<?xml version="1.0" encoding="UTF-8" standalone="no"?>
<!DOCTYPE svg PUBLIC "-//W3C//DTD SVG 1.1//EN" "http://www.w3.org/Graphics/SVG/1.1/DTD/svg11.dtd">
<svg xmlns:xl="http://www.w3.org/1999/xlink" xmlns="http://www.w3.org/2000/svg" xmlns:dc="http://purl.org/dc/elements/1.1/" version="1.1" viewBox="36 62.99866 292.5 276.75134" width="292.5" height="276.75134">
  <defs>
    <clipPath id="artboard_clip_path">
      <path d="M 36 62.99866 L 328.5 62.99866 L 328.5 339.75 L 36 339.75 Z"/>
    </clipPath>
  </defs>
  <g id="Annulets,_Three,_Interlaced" stroke-opacity="1" stroke="none" stroke-dasharray="none" fill="none" fill-opacity="1">
    <title>Annulets, Three, Interlaced</title>
    <g id="Annulets,_Three,_Interlaced_Layer_2" clip-path="url(#artboard_clip_path)">
      <title>Layer 2</title>
      <g id="Group_3">
        <g id="Graphic_9">
          <path d="M 243.57766 253.35895 C 255.02745 251.96244 266.1227 248.47174 276.30957 243.06107 C 307.04434 226.73893 326.25494 194.7802 326.25 159.98022 C 326.2485 125.76935 307.67116 94.2572 277.73847 77.691615 C 247.8058 61.126035 211.2388 62.11978 182.25 80.28661 C 191.88605 86.3284 200.34638 94.06785 207.2202 103.12916 C 226.42263 94.69442 248.58508 96.52137 266.14705 107.98676 C 283.709 119.45216 294.29777 139.00696 294.30106 159.98022 C 294.30546 179.35695 285.26568 197.62536 269.8585 209.37597 C 261.24088 215.9469 251.05383 220.14846 240.30957 221.5632 C 229.05617 223.0449 217.6119 221.4142 207.2202 216.8483 C 200.34638 225.90962 191.88605 233.64906 182.25 239.69086 C 200.52135 251.1423 222.1727 255.96773 243.57766 253.35895 Z" fill="#FFFFFF"/>
          <path d="M 243.57766 253.35895 C 255.02745 251.96244 266.1227 248.47174 276.30957 243.06107 C 307.04434 226.73893 326.25494 194.7802 326.25 159.98022 C 326.2485 125.76935 307.67116 94.2572 277.73847 77.691615 C 247.8058 61.126035 211.2388 62.11978 182.25 80.28661 C 191.88605 86.3284 200.34638 94.06785 207.2202 103.12916 C 226.42263 94.69442 248.58508 96.52137 266.14705 107.98676 C 283.709 119.45216 294.29777 139.00696 294.30106 159.98022 C 294.30546 179.35695 285.26568 197.62536 269.8585 209.37597 C 261.24088 215.9469 251.05383 220.14846 240.30957 221.5632 C 229.05617 223.0449 217.6119 221.4142 207.2202 216.8483 C 200.34638 225.90962 191.88605 233.64906 182.25 239.69086 C 200.52135 251.1423 222.1727 255.96773 243.57766 253.35895 Z" stroke="black" stroke-linecap="round" stroke-linejoin="round" stroke-width="2"/>
        </g>
        <g id="Graphic_8">
          <path d="M 170.8568 150.23741 C 170.34542 153.46328 170.0893 156.72446 170.09085 159.9906 C 170.08993 167.51622 171.45683 174.97935 174.1249 182.01614 C 179.51433 181.30546 184.97375 181.30546 190.3632 182.01614 C 201.10745 183.43088 211.2945 187.63245 219.91213 194.20337 C 229.13583 201.23637 236.20563 210.7119 240.32064 221.55656 C 251.05895 220.13895 261.23978 215.93752 269.85255 209.36933 C 261.66695 188.40735 246.2369 171.07497 226.3632 160.51827 C 216.17514 155.11352 205.07995 151.6286 193.63128 150.23741 C 186.06781 149.31492 178.42027 149.31492 170.8568 150.23741 Z" fill="#FFFFFF"/>
          <path d="M 170.8568 150.23741 C 170.34542 153.46328 170.0893 156.72446 170.09085 159.9906 C 170.08993 167.51622 171.45683 174.97935 174.1249 182.01614 C 179.51433 181.30546 184.97375 181.30546 190.3632 182.01614 C 201.10745 183.43088 211.2945 187.63245 219.91213 194.20337 C 229.13583 201.23637 236.20563 210.7119 240.32064 221.55656 C 251.05895 220.13895 261.23978 215.93752 269.85255 209.36933 C 261.66695 188.40735 246.2369 171.07497 226.3632 160.51827 C 216.17514 155.11352 205.07995 151.6286 193.63128 150.23741 C 186.06781 149.31492 178.42027 149.31492 170.8568 150.23741 Z" stroke="black" stroke-linecap="round" stroke-linejoin="round" stroke-width="2"/>
        </g>
        <g id="Graphic_7">
          <path d="M 94.64643 209.37154 C 90.44972 220.10963 88.26301 231.5278 88.19536 243.05665 C 88.19487 243.23253 88.19487 243.40842 88.19536 243.5843 C 88.64544 295.20735 130.62142 336.81896 182.24643 336.81896 C 233.87143 336.81896 275.8474 295.20735 276.2975 243.5843 C 276.29798 243.40842 276.29798 243.23253 276.2975 243.05665 C 266.11584 248.46533 255.02654 251.95598 243.5826 253.35452 C 238.79356 283.51642 212.78616 305.72022 182.24643 305.72022 C 151.7067 305.72022 125.69929 283.51642 120.91026 253.35452 C 120.39797 250.12304 120.14186 246.85614 120.1443 243.5843 C 120.14338 236.0587 121.51028 228.59556 124.17834 221.55878 C 128.29335 210.71412 135.36314 201.23859 144.58685 194.20558 C 140.39014 183.4675 138.20344 172.04933 138.13579 160.52048 C 118.26207 171.07719 102.83203 188.40956 94.64643 209.37154 Z" fill="#FFFFFF"/>
          <path d="M 94.64643 209.37154 C 90.44972 220.10963 88.26301 231.5278 88.19536 243.05665 C 88.19487 243.23253 88.19487 243.40842 88.19536 243.5843 C 88.64544 295.20735 130.62142 336.81896 182.24643 336.81896 C 233.87143 336.81896 275.8474 295.20735 276.2975 243.5843 C 276.29798 243.40842 276.29798 243.23253 276.2975 243.05665 C 266.11584 248.46533 255.02654 251.95598 243.5826 253.35452 C 238.79356 283.51642 212.78616 305.72022 182.24643 305.72022 C 151.7067 305.72022 125.69929 283.51642 120.91026 253.35452 C 120.39797 250.12304 120.14186 246.85614 120.1443 243.5843 C 120.14338 236.0587 121.51028 228.59556 124.17834 221.55878 C 128.29335 210.71412 135.36314 201.23859 144.58685 194.20558 C 140.39014 183.4675 138.20344 172.04933 138.13579 160.52048 C 118.26207 171.07719 102.83203 188.40956 94.64643 209.37154 Z" stroke="black" stroke-linecap="round" stroke-linejoin="round" stroke-width="2"/>
        </g>
        <g id="Graphic_6">
          <path d="M 219.9072 194.21 C 211.29442 187.64182 201.11359 183.44039 190.37528 182.02278 C 188.3614 187.32936 185.6296 192.33482 182.25613 196.89937 C 175.81088 205.61586 167.1963 212.49344 157.2689 216.8483 C 146.8772 221.4142 135.43294 223.0449 124.17953 221.5632 C 121.51147 228.6 120.14457 236.0631 120.14549 243.58873 C 120.14305 246.86056 120.39917 250.12747 120.91145 253.35895 C 142.322 255.97173 163.98005 251.14614 182.25613 239.69086 C 191.89218 233.64906 200.3525 225.90962 207.22634 216.8483 C 212.4789 209.92432 216.74646 202.30574 219.9072 194.21 Z" fill="#FFFFFF"/>
          <path d="M 219.9072 194.21 C 211.29442 187.64182 201.11359 183.44039 190.37528 182.02278 C 188.3614 187.32936 185.6296 192.33482 182.25613 196.89937 C 175.81088 205.61586 167.1963 212.49344 157.2689 216.8483 C 146.8772 221.4142 135.43294 223.0449 124.17953 221.5632 C 121.51147 228.6 120.14457 236.0631 120.14549 243.58873 C 120.14305 246.86056 120.39917 250.12747 120.91145 253.35895 C 142.322 255.97173 163.98005 251.14614 182.25613 239.69086 C 191.89218 233.64906 200.3525 225.90962 207.22634 216.8483 C 212.4789 209.92432 216.74646 202.30574 219.9072 194.21 Z" stroke="black" stroke-linecap="round" stroke-linejoin="round" stroke-width="2"/>
        </g>
        <g id="Graphic_5">
          <path d="M 193.63723 150.22192 C 205.08118 151.62046 216.17048 155.11111 226.35213 160.5198 C 226.35262 160.34391 226.35262 160.16802 226.35213 159.99214 C 226.35427 139.45577 219.63493 119.48306 207.2202 103.12405 C 200.34483 94.06885 191.8846 86.33526 182.25 80.29852 C 153.2612 62.13169 116.6942 61.13795 86.76152 77.70353 C 56.828844 94.26911 38.251513 125.78127 38.25 159.99214 C 38.25136 194.786 57.46105 226.73668 88.19043 243.05597 C 88.25808 231.52712 90.44478 220.10895 94.64149 209.37086 C 79.23908 197.62389 70.19985 179.36288 70.19894 159.99214 C 70.19648 139.01585 80.78291 119.45576 98.34583 107.98631 C 115.90875 96.51686 138.0746 94.6881 157.27979 103.12405 C 167.201 107.48144 175.80946 114.35883 182.25 123.07299 C 188.16685 131.07915 192.07233 140.3904 193.63723 150.22192 Z" fill="#FFFFFF"/>
          <path d="M 193.63723 150.22192 C 205.08118 151.62046 216.17048 155.11111 226.35213 160.5198 C 226.35262 160.34391 226.35262 160.16802 226.35213 159.99214 C 226.35427 139.45577 219.63493 119.48306 207.2202 103.12405 C 200.34483 94.06885 191.8846 86.33526 182.25 80.29852 C 153.2612 62.13169 116.6942 61.13795 86.76152 77.70353 C 56.828844 94.26911 38.251513 125.78127 38.25 159.99214 C 38.25136 194.786 57.46105 226.73668 88.19043 243.05597 C 88.25808 231.52712 90.44478 220.10895 94.64149 209.37086 C 79.23908 197.62389 70.19985 179.36288 70.19894 159.99214 C 70.19648 139.01585 80.78291 119.45576 98.34583 107.98631 C 115.90875 96.51686 138.0746 94.6881 157.27979 103.12405 C 167.201 107.48144 175.80946 114.35883 182.25 123.07299 C 188.16685 131.07915 192.07233 140.3904 193.63723 150.22192 Z" stroke="black" stroke-linecap="round" stroke-linejoin="round" stroke-width="2"/>
        </g>
        <g id="Graphic_4">
          <path d="M 174.1237 182.0226 C 171.4536 174.98047 170.08668 167.5114 170.08966 159.98005 C 170.08812 156.7139 170.34423 153.45273 170.85562 150.22686 C 172.42052 140.39534 176.326 131.08409 182.24285 123.07792 C 175.80231 114.36376 167.19384 107.48638 157.27264 103.12899 C 144.86144 119.48335 138.14229 139.44951 138.14072 159.98005 C 138.1402 160.16161 138.1402 160.34317 138.14072 160.52473 C 138.20837 172.05358 140.39508 183.47175 144.59179 194.20984 C 147.75252 202.30557 152.02007 209.92415 157.27264 216.84814 C 167.19384 212.49075 175.80231 205.61336 182.24285 196.8992 C 178.86938 192.33465 176.13757 187.32919 174.1237 182.0226 Z" fill="#FFFFFF"/>
          <path d="M 174.1237 182.0226 C 171.4536 174.98047 170.08668 167.5114 170.08966 159.98005 C 170.08812 156.7139 170.34423 153.45273 170.85562 150.22686 C 172.42052 140.39534 176.326 131.08409 182.24285 123.07792 C 175.80231 114.36376 167.19384 107.48638 157.27264 103.12899 C 144.86144 119.48335 138.14229 139.44951 138.14072 159.98005 C 138.1402 160.16161 138.1402 160.34317 138.14072 160.52473 C 138.20837 172.05358 140.39508 183.47175 144.59179 194.20984 C 147.75252 202.30557 152.02007 209.92415 157.27264 216.84814 C 167.19384 212.49075 175.80231 205.61336 182.24285 196.8992 C 178.86938 192.33465 176.13757 187.32919 174.1237 182.0226 Z" stroke="black" stroke-linecap="round" stroke-linejoin="round" stroke-width="2"/>
        </g>
      </g>
    </g>
  </g>
</svg>
