<?xml version="1.0" encoding="UTF-8" standalone="no"?>
<!DOCTYPE svg PUBLIC "-//W3C//DTD SVG 1.1//EN" "http://www.w3.org/Graphics/SVG/1.1/DTD/svg11.dtd">
<svg xmlns="http://www.w3.org/2000/svg" xmlns:xl="http://www.w3.org/1999/xlink" version="1.1" xmlns:dc="http://purl.org/dc/elements/1.1/" viewBox="54 63 310.5 234" width="310.5" height="234">
  <defs>
    <clipPath id="artboard_clip_path">
      <path d="M 54 63 L 364.5 63 L 364.5 297 L 54 297 Z"/>
    </clipPath>
  </defs>
  <g id="Banner_(5)" stroke-opacity="1" fill="none" fill-opacity="1" stroke-dasharray="none" stroke="none">
    <title>Banner (5)</title>
    <g id="Banner_(5)_Art" clip-path="url(#artboard_clip_path)">
      <title>Art</title>
      <g id="Group_25">
        <g id="Graphic_85">
          <path d="M 61.48263 70.39099 C 60.84919 72.92476 59.96237 75.77525 59.51896 76.72541 C 59.012205 77.67558 58.18873 80.39938 57.61863 82.74312 C 57.11188 85.08686 56.478434 87.68397 56.2884 88.4441 C 56.09837 89.39427 56.60512 90.7245 57.9987 92.62482 C 59.83568 95.22194 60.02571 95.98207 60.215746 100.79623 C 60.40578 105.67374 60.27909 106.1805 58.75883 107.7641 C 57.30191 109.34771 57.238565 109.72778 57.87201 111.88148 C 58.69548 114.79532 58.75883 131.70824 57.93535 132.72174 C 57.55529 133.2285 57.681975 134.30535 58.37876 135.69892 C 59.26558 137.5359 59.328926 138.61276 58.885516 141.65328 C 58.50545 143.6803 58.50545 148.74784 58.75883 153.18194 C 59.13889 159.7064 59.07555 161.29 58.252074 162.93696 C 57.4286 164.45722 57.365254 165.2807 57.93535 167.11768 C 58.252074 168.38456 58.69548 174.08555 58.885516 179.78653 C 59.13889 188.27466 59.012205 190.55506 58.18873 192.07532 C 57.4286 193.59558 57.365254 194.4824 57.93535 196.6361 C 58.31542 198.15637 58.568795 203.3506 58.568795 208.16476 C 58.50545 213.04227 58.82217 217.6664 59.20224 218.6799 C 59.772336 220.07348 59.70899 241.23047 59.13889 250.47873 C 59.07555 251.17552 59.07555 253.64594 59.13889 255.92634 L 59.26558 260.10706 L 61.8627 260.48712 C 63.25627 260.67716 64.966566 261.3106 65.60001 261.8807 C 67.24696 263.3376 70.41417 262.95755 70.160795 261.24725 C 69.717385 257.82666 68.830566 222.98732 69.14729 221.15033 L 69.5907 218.99663 L 117.92237 219.3767 C 144.52696 219.50338 166.50742 219.8201 166.7608 219.9468 C 167.07752 220.13683 168.78781 220.01014 170.56145 219.75676 C 172.39844 219.44004 174.74217 219.44004 175.75568 219.75676 C 178.60617 220.58024 187.72775 219.75676 189.18467 218.55322 C 190.3882 217.5397 190.3882 217.41302 189.3747 210.57184 C 188.74126 206.70784 188.2345 199.4866 188.17116 194.41906 C 188.10781 189.35151 187.85444 181.05342 187.53772 175.92253 C 187.0943 167.62443 187.15765 166.54758 188.04447 166.16751 C 188.61457 165.97748 193.55542 166.10417 199.06637 166.54758 C 204.57732 166.92765 209.39149 167.24437 209.7082 167.24437 C 211.4185 167.18102 216.35935 166.54758 219.20985 165.97748 C 220.98349 165.66076 224.08736 165.34404 226.24106 165.34404 C 228.33142 165.2807 231.3086 164.90063 232.8922 164.39387 C 240.11345 162.17683 241.57037 162.05014 244.10414 163.25368 C 247.208 164.77394 255.88618 167.94115 262.60067 169.96817 C 271.46886 172.69197 277.2332 173.51545 287.05155 173.51545 C 295.79306 173.51545 298.45352 173.19873 305.35804 171.23506 C 307.1317 170.79165 309.66545 170.03151 311.05903 169.65145 C 315.0497 168.5746 316.4433 169.08135 318.4703 172.24856 C 323.98126 181.11676 327.71857 193.02548 327.08513 199.93 C 326.6417 204.61748 324.0446 210.5085 320.94073 213.73906 C 319.6105 215.13263 317.64683 217.47637 316.50664 218.93329 C 313.5928 222.73394 309.8555 225.5211 305.80145 226.85132 C 301.36736 228.30824 298.5802 228.30824 294.3995 226.78797 C 290.8522 225.45774 283.06086 220.01014 280.9705 217.41302 C 277.92998 213.54902 269.63188 208.9249 262.60067 207.15125 C 247.08132 203.2239 236.8829 205.75768 226.62113 216.14614 C 217.81627 225.14102 217.11949 226.0912 214.8391 233.37578 C 213.0021 239.33014 212.87542 242.75073 214.45903 246.17132 C 217.62624 253.07584 219.2732 256.05302 220.47673 256.93984 C 225.861 260.7405 239.7334 267.8984 241.8871 267.8984 C 242.71057 267.8984 244.54755 268.40516 245.87778 268.97525 C 247.9048 269.92542 250.12185 270.11545 258.60998 270.0521 C 264.81772 270.0521 269.18847 269.79873 269.69522 269.35532 C 270.13863 268.97525 272.92578 267.64502 275.83962 266.37814 C 278.75345 265.11125 284.01103 262.13407 287.49496 259.85368 C 295.8564 254.34273 297.37667 253.83597 302.0008 254.91283 C 304.0278 255.35624 306.81496 256.4331 308.33523 257.25657 C 310.869 258.5868 311.12237 259.0302 311.94585 262.51414 C 312.38926 264.6045 313.1494 267.70837 313.65614 269.482 C 314.09955 271.1923 314.47962 274.86627 314.47962 277.52673 C 314.54296 282.911 315.8732 285.9515 319.2938 288.67532 C 321.51083 290.44896 327.40185 292.60266 329.9356 292.60266 C 331.0758 292.60266 333.54624 293.04607 335.44657 293.55283 C 337.6636 294.12293 339.12054 294.2496 339.5006 293.86955 C 339.88067 293.4895 340.95752 293.2361 341.9077 293.2361 C 344.12473 293.2361 348.62218 289.30876 349.12893 286.96502 C 349.31896 286.0782 350.2058 283.41775 351.0926 281.074 L 352.6762 276.8933 L 351.02926 273.40935 C 348.74887 268.84857 346.3418 266.63152 343.17457 266.1881 C 341.02087 265.8714 340.38742 266.12476 338.99385 267.455 C 337.09352 269.35532 336.9035 270.93893 338.42375 271.50902 C 339.12054 271.7624 339.88067 271.319 340.7675 270.24214 C 341.5276 269.29198 342.60447 268.53184 343.17457 268.53184 C 344.75818 268.53184 347.98873 272.83925 348.43214 275.6264 C 349.00224 278.7936 346.6585 285.31807 344.5048 286.71165 C 342.41444 288.10522 337.72696 287.85184 332.9128 286.14155 C 326.8951 283.9245 326.0716 283.3544 325.3115 280.69394 C 323.9179 275.56306 324.67805 271.1923 327.52854 267.7717 C 328.79542 266.25145 329.11214 265.23794 329.11214 262.19742 C 329.11214 258.65014 328.98546 258.33342 325.94493 255.03952 C 324.23464 253.1392 320.56067 250.09866 317.71018 248.26168 L 312.64264 244.90443 L 308.33523 245.22115 C 304.8513 245.53788 302.88762 246.17132 297.1233 249.0218 C 289.1419 253.0125 280.21037 256.05302 273.49588 257.12988 C 267.3515 258.1434 262.15726 256.93984 252.84565 252.25237 C 239.09995 245.4112 235.1726 241.61053 233.52565 233.18574 C 232.70217 228.815 232.5755 229.1317 237.13627 223.93748 C 239.1633 221.59374 243.40736 219.12332 245.37103 219.12332 C 247.27136 219.12332 252.2122 222.73394 258.41995 228.75165 C 262.60067 232.80568 265.57785 235.02273 269.2518 236.92306 L 274.31936 239.52017 L 283.50427 239.1401 C 297.1233 238.57 303.4577 236.47965 311.62913 229.76515 C 314.09955 227.73814 317.0134 225.64778 318.0269 225.14102 C 325.24814 221.6571 332.3427 214.43584 338.0437 204.9342 C 341.02087 199.99335 343.68132 192.70876 343.68132 189.6049 C 343.68132 188.4647 344.25142 185.7409 344.9482 183.52384 C 346.40513 178.83637 346.5318 174.46561 345.32828 169.96817 C 344.6315 167.24437 340.32408 158.5662 336.3334 151.53499 L 335.12985 149.50797 L 337.53693 145.07387 C 341.5276 137.6626 343.2379 129.42784 341.9077 123.98023 C 341.5276 122.45997 340.89418 119.54614 340.45077 117.45578 C 339.1839 111.1847 337.917 106.87728 336.3334 103.71007 C 334.1797 99.466 334.30637 98.57919 336.9035 99.14928 C 339.5006 99.71938 346.3418 102.82325 349.19228 104.78692 C 350.45916 105.6104 352.2328 107.51073 353.2463 109.03099 C 355.90677 112.95833 355.78008 116.69564 352.86624 122.01656 C 351.0926 125.24712 350.6492 126.76738 350.6492 129.49119 C 350.6492 133.6719 350.2058 134.87545 348.68552 134.87545 C 347.73536 134.87545 347.482 134.43204 347.482 132.46837 L 347.41864 130.12463 L 346.2151 131.64489 C 343.618 134.68542 345.58165 138.04266 349.9524 138.04266 C 353.373 138.04266 354.6399 136.64909 354.13313 133.48187 C 353.6897 131.20148 353.87975 130.88476 357.17365 127.52751 C 361.4177 123.2201 362.1145 120.87637 362.2412 111.31138 C 362.30454 105.67374 362.05116 104.28017 360.6576 100.92292 C 359.77077 98.76922 357.9338 95.91873 356.60355 94.5885 C 353.9431 91.99138 347.9254 87.36725 347.16526 87.36725 C 346.9119 87.36725 345.5183 86.79715 344.0614 86.16371 C 337.4736 83.05984 333.22952 82.23637 326.0716 82.4264 C 322.2076 82.55309 318.4703 83.05984 317.26677 83.56659 C 315.4298 84.39007 314.8597 84.26338 309.98218 82.61643 C 301.17732 79.51256 288.1284 79.95597 276.5364 83.69328 C 268.55503 86.2904 266.7814 87.36725 265.76788 90.53446 C 264.56434 94.08174 265.5145 96.04541 268.74506 96.55217 C 272.54572 97.18561 275.14283 98.57919 278.8168 101.99978 C 281.28722 104.40686 282.30073 105.86378 282.61745 107.57407 C 282.8075 108.84096 283.1242 110.29787 283.2509 110.93132 C 283.75765 112.57827 286.48145 114.03519 290.59883 114.66863 C 294.01942 115.23873 294.58952 115.17538 295.79306 114.09853 C 298.51686 111.6281 314.6063 103.45669 317.9002 102.8866 C 319.7372 102.50653 320.624 102.75991 322.9044 104.34351 C 326.6417 106.94063 330.25234 110.99466 330.69575 113.14837 C 330.94913 114.16187 331.51923 115.87217 332.02598 117.01237 C 333.22952 119.79951 333.16618 125.37381 331.83595 130.06128 C 330.6324 134.3687 327.5919 139.30955 326.1983 139.30955 C 325.69155 139.30955 323.6012 138.16935 321.57418 136.77578 C 317.9002 134.30535 313.5928 132.40502 304.7246 129.49119 C 297.50336 127.14745 270.9621 125.56384 256.3296 126.6407 L 251.00867 127.02076 L 247.39804 124.10692 C 245.43437 122.52332 242.01378 120.43296 239.7334 119.41945 C 237.51634 118.40594 232.38545 116.0622 228.39476 114.22522 C 224.40408 112.38823 219.90663 110.67794 218.44972 110.48791 C 216.9928 110.23453 214.7124 109.53774 213.38217 108.84096 C 212.1153 108.20751 209.89824 107.63741 208.44132 107.57407 C 205.71752 107.57407 203.31044 107.194 194.8223 105.35702 C 188.8046 104.15348 175.94571 103.96345 133.37837 104.78692 C 90.55765 105.54705 85.55345 105.73709 78.64893 106.56056 C 74.84827 107.00397 71.047615 107.3207 70.22414 107.13066 C 68.26047 106.7506 67.943746 105.0403 68.70388 100.0361 C 69.08394 97.75571 69.40066 95.72869 69.40066 95.47532 C 69.40066 95.28528 70.160795 94.20843 71.047615 93.13158 C 72.25116 91.738 72.63122 90.66115 72.44119 89.39427 C 71.99778 86.73381 69.33732 76.53538 68.4505 74.064955 C 68.00709 72.861414 67.24696 70.58102 66.740205 68.997414 C 65.98007 66.71702 65.47332 66.08358 64.206434 65.95689 C 62.68617 65.76686 62.49614 66.02023 61.48263 70.39099 Z M 281.6673 151.34496 L 281.6673 151.34496 C 283.56762 151.72502 287.49496 152.48515 290.47214 152.9919 C 296.80657 154.1321 304.40788 156.34915 304.40788 157.04594 C 304.40788 158.88292 289.01523 158.94627 284.45444 157.10928 C 281.28722 155.77906 276.5364 152.5485 276.5364 151.59833 C 276.5364 150.52148 277.2332 150.52148 281.6673 151.34496 Z" fill="black"/>
        </g>
        <g id="Graphic_84">
          <path d="M 65.409975 76.15532 C 65.853385 79.00581 67.75371 82.41056 67.81706 83.80414 C 67.81706 85.26105 68.50593 86.98719 68.88599 87.36725 C 70.15288 88.63414 66.86689 89.26758 63.69968 89.26758 C 59.39227 89.26758 58.63214 88.82417 58.63214 86.48043 C 58.63214 84.45341 61.73601 74.00161 63.06624 71.531185 C 64.14309 69.56751 64.523156 70.32764 65.409975 76.15532 Z" fill="#FFFFFF"/>
        </g>
        <g id="Graphic_83">
          <path d="M 308.96867 84.5801 C 317.20342 86.8605 322.3343 89.96437 328.28867 96.10876 C 332.15267 100.09945 332.53273 100.73289 334.68644 106.05381 C 338.74047 116.25223 339.69064 125.75387 337.28355 132.91178 C 335.7633 137.40922 332.3427 142.6668 330.7591 142.98351 C 328.79542 143.36358 329.0488 141.33656 331.26585 137.91597 C 334.30637 133.35519 335.5099 129.17446 335.44657 123.41014 C 335.44657 116.82233 332.84946 109.72778 328.85877 105.16699 C 328.09864 104.34351 324.99477 102.44319 321.8909 100.92292 C 316.4433 98.26246 315.9999 98.13578 310.4256 98.13578 C 305.48473 98.13578 303.90113 98.38915 300.22716 99.90941 C 297.82008 100.92292 295.09627 101.93643 294.1461 102.12646 C 293.2593 102.37984 291.04224 103.71007 289.2686 105.10364 C 287.49496 106.49722 285.848 107.63741 285.5313 107.63741 C 285.2779 107.63741 284.2644 106.05381 283.31424 104.15348 C 282.04736 101.55637 280.65378 99.97276 277.73995 97.81905 C 275.58624 96.23545 273.17916 94.77853 272.35568 94.5885 C 271.40552 94.33512 270.83542 93.70168 270.83542 93.00489 C 270.83542 91.61132 270.13863 91.48463 269.06178 92.56148 C 268.49168 93.13158 268.30165 93.00489 268.30165 92.05473 C 268.30165 90.21774 270.5187 88.38076 275.20618 86.41709 C 280.9705 84.01 286.48145 83.123185 295.413 82.9965 C 302.0008 82.93315 304.09116 83.18653 308.96867 84.5801 Z" fill="#FFFFFF"/>
        </g>
        <g id="Graphic_82">
          <path d="M 332.9128 84.83348 C 339.81732 86.16371 344.75818 88.00069 349.57234 91.23125 C 354.8299 94.71519 356.47687 96.61551 355.01995 97.56568 C 354.3865 97.94574 354.57654 98.19912 355.78008 98.64253 C 356.6669 99.0226 357.6804 99.71938 358.1238 100.22614 C 359.20067 101.49302 360.2775 111.6281 359.77077 115.17538 C 359.13732 119.41945 357.04696 124.67702 355.71673 125.37381 C 353.9431 126.32397 353.62637 125.12043 355.0833 123.28345 C 356.9836 120.87637 358.2505 117.45578 358.2505 114.73197 C 358.2505 112.13486 355.71673 107.44738 352.8029 104.78692 C 349.6357 101.87309 342.7945 98.26246 339.56395 97.81905 C 336.71346 97.43899 336.01667 96.93223 332.53273 93.32161 C 330.44237 91.10456 328.352 89.26758 327.9086 89.26758 C 326.51503 89.26758 320.8774 87.24056 320.43398 86.54378 C 319.1671 84.45341 326.00827 83.50325 332.9128 84.83348 Z" fill="#FFFFFF"/>
        </g>
        <g id="Graphic_81">
          <path d="M 66.23345 93.70168 C 66.55017 94.33512 66.80355 97.43899 66.80355 100.6062 L 66.740205 106.37053 L 64.33312 106.37053 L 61.989385 106.37053 L 61.48263 101.1763 C 61.229254 98.26246 60.785844 95.47532 60.46912 94.84187 C 59.64565 93.25827 61.229254 91.92804 63.636336 92.3081 C 64.77653 92.43479 65.91673 93.06823 66.23345 93.70168 Z" fill="#FFFFFF"/>
        </g>
        <g id="Graphic_80">
          <path d="M 312.0092 101.23964 C 312.0092 102.06312 305.80145 105.92712 300.2905 108.58758 C 295.2863 110.99466 290.78886 112.1982 288.6985 111.6281 C 286.35477 111.058 287.17824 110.17119 290.15542 110.17119 C 293.89273 110.17119 298.45352 108.39755 305.35804 104.21682 C 311.37575 100.6062 312.0092 100.28948 312.0092 101.23964 Z" fill="#FFFFFF"/>
        </g>
        <g id="Graphic_79">
          <path d="M 293.32263 106.05381 C 292.30913 106.94063 290.8522 107.63741 290.15542 107.63741 C 289.01523 107.57407 289.07857 107.44738 290.66218 106.05381 C 291.61234 105.16699 293.06926 104.4702 293.8294 104.4702 C 295.15962 104.53355 295.09627 104.59689 293.32263 106.05381 Z" fill="#FFFFFF"/>
        </g>
        <g id="Graphic_78">
          <path d="M 166.50742 107.194 C 186.77758 107.3207 189.31135 107.44738 190.00814 108.3342 C 190.9583 109.66443 197.1027 110.29787 196.91267 109.03099 C 196.78598 108.58758 197.35608 108.27086 198.36958 108.27086 C 199.2564 108.27086 199.8265 108.52423 199.57313 108.9043 C 199.31975 109.28437 200.77667 109.53774 203.50047 109.60109 C 208.37798 109.60109 207.36447 110.67794 202.36027 110.74128 C 196.976 110.86797 191.5284 111.6281 192.41522 112.13486 C 193.36539 112.7683 208.1246 112.89499 209.64486 112.32489 C 210.21496 112.13486 210.65837 111.56476 210.65837 111.058 C 210.65837 109.91781 211.92526 109.91781 213.50886 111.058 C 214.20565 111.50142 216.35935 112.26155 218.25968 112.70496 C 220.16 113.14837 223.5806 114.41525 225.861 115.61879 C 228.1414 116.75899 232.82886 118.97604 236.24945 120.55964 C 240.11345 122.39663 244.6109 125.12043 247.96814 127.78089 C 250.94532 130.12463 254.30257 132.72174 255.44277 133.48187 C 256.58296 134.30535 259.6235 137.40922 262.28395 140.44974 C 268.49168 147.67099 271.7856 150.9649 275.14283 153.30863 C 277.61326 155.08227 278.6901 157.04594 277.16985 157.04594 C 276.78978 157.04594 275.0795 156.34915 273.3692 155.46233 C 270.01195 153.75204 268.9351 153.49866 268.9351 154.51217 C 268.9351 155.77906 280.46375 160.21315 283.88434 160.21315 C 284.58113 160.21315 285.46795 160.8466 285.9747 161.54338 C 286.73483 162.87361 287.17824 162.87361 293.1326 162.5569 C 297.1233 162.36686 299.277 162.4302 298.89693 162.81027 C 298.5802 163.12699 297.18664 163.5704 295.79306 163.76043 C 290.66218 164.45722 290.2821 164.5839 291.16893 165.66076 C 293.1326 168.06784 295.34965 168.5746 300.67057 167.75112 C 305.92814 166.99099 307.3217 167.24437 305.4214 168.63794 C 303.33103 170.1582 294.8429 171.23506 284.77116 171.23506 C 275.9663 171.23506 274.44604 171.04502 269.88526 169.5881 C 267.0981 168.70128 261.96722 167.18102 258.4833 166.23086 C 251.26204 164.26719 243.28067 160.8466 239.28998 158.05945 C 237.76972 156.9826 235.48932 155.46233 234.22244 154.7022 C 232.95555 153.94207 231.56198 152.86522 231.11857 152.23178 C 230.7385 151.66168 229.53496 150.58483 228.52145 149.8247 C 227.50795 149.1279 224.2774 146.72083 221.36355 144.50378 C 215.15581 139.8163 207.04775 135.25551 202.61365 133.92528 C 197.35608 132.34168 185.89076 130.9481 184.87726 131.77158 C 181.39332 134.68542 187.91778 137.28253 199.50978 137.59925 C 205.65417 137.78928 206.09758 137.91597 210.02493 140.19637 C 216.80276 144.12371 219.1465 145.70732 225.48093 150.90155 C 228.83817 153.62535 232.51214 156.22246 233.77903 156.79256 C 237.83306 158.50286 236.50283 160.33984 230.2951 161.48004 C 224.2774 162.62024 189.9448 162.62024 187.28434 161.48004 C 183.67372 160.02312 183.73706 159.38968 184.3705 179.84988 C 184.81391 196.7628 183.99044 213.16896 182.53352 214.62588 C 181.83673 215.32266 178.3528 215.5127 166.25404 215.76607 C 151.49483 215.9561 150.79804 215.9561 149.08775 214.68922 L 147.3141 213.359 L 145.47712 214.75256 C 144.0202 215.82942 143.4501 215.9561 142.30991 215.386 C 141.35975 214.87925 140.59962 214.8159 139.77614 215.32266 C 139.07935 215.63938 136.2922 215.9561 133.50506 215.9561 C 129.57771 215.9561 128.37417 215.76607 128.05745 215.00594 C 127.61404 213.73906 126.47385 213.8024 125.01693 215.13263 C 123.94007 216.0828 121.27962 216.14614 97.2088 216.0828 C 77.69876 216.0828 70.35083 215.82942 69.65404 215.25932 C 68.957254 214.68922 68.76722 212.59886 68.76722 205.88437 C 68.76722 196.38273 69.21063 194.73578 71.1743 196.50942 C 72.694566 197.903 73.32801 197.83965 74.65824 196.31938 C 75.73509 195.0525 75.67175 194.98915 74.08814 194.41906 C 73.20132 194.039 72.25116 193.78561 71.934434 193.78561 C 70.92093 193.78561 69.5907 190.42837 69.08394 186.50102 C 68.387156 180.99007 68.70388 171.23506 69.78073 168.32122 C 70.79424 165.47073 70.41417 156.60253 69.08394 150.52148 C 68.26047 146.91086 68.26047 146.84751 69.717385 146.15073 C 70.92093 145.58063 71.1743 145.07387 71.047615 143.23689 C 70.98427 141.97 70.604205 140.89315 70.160795 140.70312 C 68.64053 140.19637 69.46401 138.73945 71.80775 137.97932 C 73.64473 137.34587 73.89811 137.0925 72.8846 136.90246 C 71.36434 136.58574 70.66755 135.63558 70.66755 133.86194 C 70.66755 133.10181 70.22414 132.34168 69.717385 132.0883 C 69.0206 131.83492 68.76722 130.75807 68.76722 128.28764 L 68.76722 124.86705 L 71.934434 124.10692 C 73.70807 123.66351 75.10165 123.15676 75.10165 122.96673 C 75.10165 122.14325 72.8846 120.30627 71.80775 120.30627 C 71.11096 120.30627 70.66755 119.86286 70.66755 119.10273 C 70.66755 118.46928 70.22414 117.58246 69.717385 117.13905 C 68.387156 116.0622 69.14729 115.23873 71.491025 115.23873 C 72.63122 115.23873 74.65824 114.60528 76.05181 113.84515 C 77.82545 112.83164 79.66243 112.38823 82.06952 112.38823 C 84.72998 112.38823 85.55345 112.13486 85.55345 111.43807 C 85.55345 110.74128 86.56696 110.36122 89.41745 110.10784 C 93.7882 109.72778 94.80171 109.22102 94.29496 107.95414 C 94.10493 107.25735 94.42165 107.00397 95.37181 107.00397 C 96.25863 107.00397 96.6387 107.3207 96.44866 107.82745 C 96.00525 109.03099 101.95962 110.93132 103.7966 110.23453 C 104.55673 109.91781 106.96381 109.4744 109.18086 109.22102 C 112.60145 108.84096 113.1082 108.9043 113.1082 109.79112 C 113.1082 110.67794 113.80499 110.80463 117.73234 110.67794 C 120.20276 110.6146 122.98991 110.17119 123.87673 109.72778 C 125.71371 108.77761 127.48735 108.65092 127.80407 109.4744 C 127.93076 109.79112 129.76775 110.23453 131.9848 110.48791 C 135.7221 110.93132 135.91214 110.86797 135.91214 109.60109 C 135.91214 108.84096 135.53207 108.27086 134.96198 108.27086 C 134.45522 108.27086 134.01181 108.01748 134.01181 107.70076 C 134.01181 106.87728 136.67227 106.56056 140.66296 106.81394 C 142.4366 106.94063 154.0286 107.13066 166.50742 107.194 Z" fill="#FFFFFF"/>
        </g>
        <g id="Graphic_77">
          <path d="M 66.86689 108.96764 C 66.86689 109.28437 65.53666 109.53774 63.88971 109.4744 C 60.84919 109.41105 60.84919 109.41105 62.68617 108.65092 C 64.5865 107.7641 66.86689 107.95414 66.86689 108.96764 Z" fill="#FFFFFF"/>
        </g>
        <g id="Graphic_76">
          <path d="M 79.53575 108.27086 L 81.11935 108.71427 L 79.219025 109.28437 C 76.55857 109.98115 70.73089 109.98115 70.54086 109.22102 C 70.160795 108.01748 76.49522 107.3207 79.53575 108.27086 Z" fill="#FFFFFF"/>
        </g>
        <g id="Graphic_75">
          <path d="M 89.4808 108.08082 C 89.22742 108.27086 88.84735 108.27086 88.59398 108.08082 C 88.40394 107.82745 88.59398 107.63741 89.03739 107.63741 C 89.4808 107.63741 89.67083 107.82745 89.4808 108.08082 Z" fill="#FFFFFF"/>
        </g>
        <g id="Graphic_74">
          <path d="M 131.66807 108.08082 C 131.22466 108.20751 130.46453 108.20751 130.08447 108.08082 C 129.64106 107.89079 129.95778 107.7641 130.8446 107.7641 C 131.73142 107.7641 132.04814 107.89079 131.66807 108.08082 Z" fill="#FFFFFF"/>
        </g>
        <g id="Graphic_73">
          <path d="M 66.55017 111.31138 C 67.3103 111.81814 67.37365 123.66351 66.61352 128.35099 L 66.04342 131.70824 L 63.319615 131.70824 L 60.53247 131.70824 L 60.53247 121.6365 C 60.53247 114.16187 60.7225 111.43807 61.35594 111.24804 C 62.55948 110.74128 65.853385 110.74128 66.55017 111.31138 Z" fill="#FFFFFF"/>
        </g>
        <g id="Graphic_72">
          <path d="M 275.01614 128.2243 C 286.6715 128.66771 298.77024 130.06128 304.97798 131.77158 C 310.1722 133.2285 318.597 136.83912 319.23044 137.97932 C 319.4838 138.35938 321.06742 139.37289 322.71437 140.25971 C 327.7819 142.79348 331.39254 147.35427 337.53693 158.94627 C 343.618 170.53827 343.30126 169.52476 343.30126 175.92253 C 343.30126 179.4698 342.98454 182.06692 342.54113 182.51033 C 342.03437 183.01709 341.71765 182.95374 341.40093 182.19361 C 341.2109 181.62351 340.45077 181.11676 339.81732 181.11676 C 338.55044 181.11676 338.2337 182.38365 339.24723 183.39715 C 340.0707 184.22063 341.9077 191.7586 341.46428 192.51873 C 340.7675 193.65892 339.88067 192.51873 339.88067 190.42837 C 339.88067 188.52804 337.7903 183.01709 337.09352 183.01709 C 336.96683 183.01709 336.39673 183.9039 335.82664 184.91742 C 334.9398 186.69106 335.00316 187.00778 336.46008 189.54155 C 338.55044 193.27886 338.6138 201.38692 336.46008 201.38692 C 336.01667 201.38692 335.69995 199.86666 335.6366 197.39624 C 335.57326 194.67243 335.00316 192.39204 333.86296 189.98496 C 332.7861 187.70456 332.3427 187.07112 332.4694 188.21132 C 332.59608 189.16148 332.40605 190.0483 332.02598 190.175 C 331.58257 190.30168 331.3292 192.51873 331.3292 196.066 C 331.26585 200.56345 330.94913 202.6538 329.6189 206.39112 C 327.84526 211.20529 327.4652 211.96542 326.8951 211.39532 C 326.70506 211.20529 327.27516 208.7982 328.22532 206.0744 C 330.25234 200.18338 330.5057 194.6091 329.0488 190.93512 C 328.4787 189.54155 327.2118 185.86758 326.1983 182.76371 C 324.488 177.4428 323.53785 175.79584 315.11306 162.93696 C 310.9957 156.60253 308.33523 154.89224 297.1233 151.21827 C 290.8522 149.19125 284.8345 148.24109 278.31004 148.17774 C 273.3692 148.17774 272.29234 147.29092 275.58624 145.9607 C 277.61326 145.07387 277.73995 144.8205 277.1065 143.6803 C 276.5364 142.5401 275.9663 142.35007 273.8126 142.6668 C 272.35568 142.79348 270.70873 143.04686 270.20198 143.17355 C 269.69522 143.30024 269.31516 143.1102 269.3785 142.6668 C 269.44185 142.28673 269.12513 141.58994 268.61837 141.20987 C 268.11162 140.76646 267.6682 140.00633 267.6682 139.49958 C 267.6682 138.92948 267.16145 138.6761 266.27463 138.8028 C 263.8042 139.18286 264.31096 137.47256 266.84473 137.0925 C 270.9621 136.39571 271.2155 136.26902 269.9486 135.00214 C 268.9351 133.98863 264.56434 133.60856 261.96722 134.30535 C 261.46047 134.43204 260.95372 134.242 260.82703 133.92528 C 260.70034 133.54522 261.71385 133.03846 263.04408 132.72174 C 267.47818 131.70824 267.47818 131.70824 265.76788 130.31466 C 264.43765 129.23781 263.67752 129.11112 260.25693 129.49119 C 257.59647 129.74456 256.26624 129.68122 256.26624 129.23781 C 256.26624 128.85774 257.02637 128.41433 258.03988 128.16096 C 258.99004 127.97092 260.0669 127.71755 260.38362 127.52751 C 260.76368 127.40083 262.03057 127.46417 263.29745 127.59086 C 264.56434 127.78089 269.88526 128.03427 275.01614 128.2243 Z" fill="#FFFFFF"/>
        </g>
        <g id="Graphic_71">
          <path d="M 260.0669 131.70824 C 260.0669 132.02496 259.81352 132.34168 259.43345 132.34168 C 259.11673 132.34168 258.8 132.02496 258.8 131.70824 C 258.8 131.32817 259.11673 131.0748 259.43345 131.0748 C 259.81352 131.0748 260.0669 131.32817 260.0669 131.70824 Z" fill="#FFFFFF"/>
        </g>
        <g id="Graphic_70">
          <path d="M 65.47332 136.07899 C 66.55017 136.77578 67.24696 145.01053 66.99358 154.7022 C 66.80355 161.9868 66.740205 162.17683 65.21994 162.74692 C 64.26978 163.12699 63.06624 163.12699 62.11607 162.74692 L 60.53247 162.11348 L 60.659156 149.31794 L 60.84919 136.5224 L 62.432795 136.07899 C 64.649844 135.44555 64.523156 135.44555 65.47332 136.07899 Z" fill="#FFFFFF"/>
        </g>
        <g id="Graphic_69">
          <path d="M 309.34873 162.24017 C 309.032 163.12699 300.54388 165.91414 298.2635 165.91414 C 297.44 165.91414 296.80657 165.66076 296.80657 165.34404 C 296.80657 164.7106 298.96027 164.0138 300.92395 164.0138 C 301.62073 164.0138 303.20434 163.44371 304.40788 162.81027 C 306.94165 161.35335 309.7288 161.09997 309.34873 162.24017 Z" fill="#FFFFFF"/>
        </g>
        <g id="Graphic_68">
          <path d="M 66.31515 165.154 C 66.71565 165.59742 65.71441 165.91414 63.912175 165.91414 C 62.10994 165.91414 60.708204 165.47073 60.708204 164.90063 C 60.708204 163.82378 65.11366 164.0138 66.31515 165.154 Z" fill="#FFFFFF"/>
        </g>
        <g id="Graphic_67">
          <path d="M 64.5865 168.19453 C 65.409975 168.95466 65.60001 170.7283 65.60001 177.3161 C 65.60001 182.447 65.853385 185.6142 66.296795 185.86758 C 68.387156 187.1978 67.8804 191.25184 65.60001 191.25184 C 63.763025 191.25184 62.432795 191.82194 61.60932 190.93512 C 60.659156 190.0483 60.53247 188.338 60.53247 179.53315 C 60.53247 173.83217 60.7225 168.76463 60.91253 168.19453 C 61.41929 166.92765 63.319615 166.8643 64.5865 168.19453 Z" fill="#FFFFFF"/>
        </g>
        <g id="Graphic_66">
          <path d="M 64.88152 197.64961 C 66.17448 199.29656 66.40956 200.24673 66.46833 203.794 C 66.46833 206.13774 66.70342 209.43165 66.9385 211.0786 C 67.29113 213.42233 67.232355 214.3725 66.585875 215.06929 C 65.58677 216.0828 63.2947 216.20948 61.649115 215.32266 C 60.65001 214.68922 60.53247 213.86574 60.53247 205.56765 C 60.53247 200.6268 60.70878 196.31938 60.943864 196.12935 C 61.82543 195.17919 63.471014 195.81263 64.88152 197.64961 Z" fill="#FFFFFF"/>
        </g>
        <g id="Graphic_65">
          <path d="M 334.30637 202.7805 C 334.1797 205.631 332.4694 210.25512 331.51923 210.25512 C 330.7591 210.25512 330.8858 209.43165 332.02598 206.77119 C 332.65942 205.25092 332.84946 203.54063 332.59608 202.2104 C 332.15267 199.73997 332.72277 198.40974 333.73627 199.42325 C 334.11634 199.80332 334.3697 201.32358 334.30637 202.7805 Z" fill="#FFFFFF"/>
        </g>
        <g id="Graphic_64">
          <path d="M 263.04408 209.55833 C 269.56854 211.45866 275.6496 214.8159 280.02034 219.12332 C 285.59463 224.50758 291.61234 228.37158 295.91975 229.2584 C 299.277 229.9552 300.60723 229.89184 304.66126 228.87834 C 307.19503 228.2449 306.62493 229.3851 303.20434 231.91886 C 299.277 234.8327 296.23647 236.16293 292.1191 236.60634 C 288.95188 236.9864 288.8252 236.92306 285.91136 233.94588 C 282.6808 230.77866 281.6673 228.30824 284.2644 230.14522 C 286.22808 231.5388 287.1149 231.4121 287.5583 229.7018 C 287.8117 228.62496 287.30493 227.80148 284.89785 225.77447 C 283.31424 224.3809 280.9705 222.29053 279.70362 221.15033 C 278.50008 219.9468 276.6631 218.55322 275.6496 218.04647 C 274.57273 217.47637 273.30585 216.5262 272.7991 215.89276 C 270.6454 213.42233 263.04408 210.25512 259.18008 210.25512 C 256.13955 210.25512 257.97654 211.39532 263.61418 212.97892 C 268.11162 214.2458 268.61837 214.56253 268.8084 216.0828 C 268.99844 217.41302 269.63188 217.98312 272.29234 219.05997 C 276.15634 220.70693 281.60395 224.06417 281.60395 224.88765 C 281.60395 225.90115 280.21037 225.45774 278.31004 223.87414 C 276.15634 222.03715 275.58624 221.9738 274.5094 223.2407 C 274.06598 223.8108 273.30585 224.69761 272.7991 225.20437 C 272.03896 226.02784 272.16565 226.0912 273.49588 225.77447 C 274.63608 225.45774 275.58624 225.77447 276.85313 226.91466 C 279.2602 228.94168 278.50008 230.08188 275.01614 229.57512 C 272.60906 229.19506 272.29234 229.32174 271.59555 230.77866 C 270.9621 232.23558 271.0888 232.48896 273.1158 233.75584 C 274.57273 234.64266 276.78978 235.21276 279.45024 235.46614 C 284.64447 235.8462 284.7078 236.8597 279.57693 236.8597 C 275.33286 236.8597 271.5322 235.46614 267.85824 232.679 C 266.7814 231.85552 265.57785 231.15873 265.19778 231.15873 C 264.81772 231.15873 264.56434 230.52529 264.69103 229.76515 C 264.75437 228.75165 264.3743 228.30824 262.85404 227.92817 C 261.84054 227.61145 259.43345 226.02784 257.59647 224.3809 C 251.1987 218.55322 247.84145 216.77958 242.64722 216.27283 C 236.94624 215.76607 232.25877 216.90627 228.71149 219.75676 C 226.24106 221.72043 223.77063 222.35388 224.34073 220.83361 C 224.46742 220.3902 225.98768 218.86994 227.5713 217.5397 C 229.21824 216.14614 231.11857 214.43584 231.81536 213.6757 C 237.13627 208.29145 251.70545 206.39112 263.04408 209.55833 Z" fill="#FFFFFF"/>
        </g>
        <g id="Graphic_63">
          <path d="M 327.4652 213.9291 C 327.84526 214.56253 324.29798 217.98312 321.06742 220.26352 C 317.14008 222.98732 317.3301 221.59374 321.63752 216.96961 C 324.67805 213.6757 326.6417 212.6622 327.4652 213.9291 Z" fill="#FFFFFF"/>
        </g>
        <g id="Graphic_62">
          <path d="M 65.853385 218.15686 C 67.75371 217.46007 66.86689 216.82663 64.0164 216.82663 C 62.432795 216.82663 61.16591 217.08 61.16591 217.33338 C 61.16591 218.3469 64.079746 218.85364 65.853385 218.15686 Z" fill="#FFFFFF"/>
        </g>
        <g id="Graphic_61">
          <path d="M 238.52985 218.99663 C 238.52985 219.31335 237.26296 220.45355 235.7427 221.59374 C 233.08224 223.62076 229.66165 228.6883 229.66165 230.71532 C 229.66165 231.22207 230.10506 231.79217 230.61181 232.04555 C 231.1819 232.23558 231.56198 233.18574 231.56198 234.2626 C 231.56198 235.2761 232.70217 238.2533 234.09575 240.8504 C 236.1861 244.7144 237.3263 245.9813 240.3035 248.0083 C 245.7511 251.61893 258.03988 257.76332 259.81352 257.76332 C 262.2206 257.76332 263.86755 258.90352 263.86755 260.6138 C 263.86755 261.4373 264.12093 262.26076 264.3743 262.4508 C 264.69103 262.64083 267.41483 261.754 270.45536 260.55047 C 273.55922 259.34693 276.2197 258.4601 276.34637 258.65014 C 277.29654 259.6003 275.58624 260.80384 271.40552 262.13407 C 265.70454 263.9077 264.81772 264.54116 265.89457 265.80804 C 268.11162 268.53184 261.33378 269.10194 250.24854 267.26496 C 242.83726 266.06142 237.453 264.28778 233.96906 262.0074 C 232.82886 261.24725 230.61181 259.91702 229.0282 259.09355 C 222.37706 255.48293 221.61693 254.78614 219.52657 250.35204 C 218.38637 248.0083 217.24617 245.53788 216.92945 244.96778 C 215.66257 242.49735 216.92945 234.706 218.95647 233.05906 C 219.52657 232.5523 220.4134 230.842 220.79345 229.2584 C 221.55358 226.34456 223.7073 223.36738 224.65745 223.93748 C 224.91083 224.06417 224.46742 225.2677 223.64395 226.5346 C 222.12368 228.6883 221.49024 231.79217 222.5671 231.79217 C 223.7073 231.72883 224.46742 230.65197 225.48093 227.61145 C 226.49444 224.57093 229.66165 220.58024 230.42178 221.34037 C 230.61181 221.59374 229.85168 223.17735 228.64814 224.951 C 226.62113 227.92817 225.79765 231.15873 227.06454 231.15873 C 227.38126 231.15873 228.39476 229.51178 229.34493 227.5481 C 230.2951 225.45774 232.25877 222.73394 233.90572 221.21368 C 236.56617 218.6799 238.52985 217.7931 238.52985 218.99663 Z" fill="#FFFFFF"/>
        </g>
        <g id="Graphic_60">
          <path d="M 65.853385 226.95865 C 66.99358 229.1757 67.12027 230.50593 67.05693 238.74068 C 66.99358 243.80822 66.740205 248.68573 66.55017 249.5092 C 66.36014 250.39602 66.55017 251.85294 67.12027 252.9298 C 68.00709 254.57675 68.00709 254.9568 67.183615 256.2237 C 66.67686 256.98383 66.23345 258.06068 66.23345 258.63078 C 66.23345 259.70763 64.206434 259.89766 62.36945 258.9475 C 61.229254 258.31406 61.16591 257.42724 61.16591 241.97124 C 61.16591 225.24835 61.35594 223.79143 63.636336 224.23484 C 64.14309 224.36153 65.093254 225.56507 65.853385 226.95865 Z" fill="#FFFFFF"/>
        </g>
        <g id="Graphic_59">
          <path d="M 312.896 247.24817 C 314.09955 247.75493 317.3301 250.41538 320.11726 253.1392 C 326.1983 259.22024 327.5919 262.3241 325.6282 265.618 C 322.71437 270.6222 322.461 271.38234 322.52434 276.13316 C 322.5877 282.53093 323.66454 284.43125 328.28867 286.6483 C 332.59608 288.67532 337.4736 290.0689 340.38742 290.0689 C 341.46428 290.0689 342.41444 290.32227 342.41444 290.639 C 342.41444 292.28594 331.39254 291.33578 324.93142 289.0554 C 319.80054 287.2184 318.9137 285.25473 317.71018 272.64922 C 316.8867 264.41447 316.82336 263.97106 313.90952 258.96686 L 311.4391 254.78614 L 307.51175 254.34273 C 302.31752 253.7093 300.60723 253.0125 300.60723 251.4289 C 300.60723 249.7186 302.31752 249.78194 307.3217 251.80896 C 311.62913 253.51925 312.64264 253.39256 312.64264 251.23886 C 312.64264 248.7051 311.62913 247.94496 308.52526 248.0083 C 306.94165 248.0083 305.67477 247.81827 305.67477 247.5649 C 305.67477 246.23466 309.98218 246.04463 312.896 247.24817 Z" fill="#FFFFFF"/>
        </g>
        <g id="Graphic_58">
          <path d="M 289.8387 255.67296 C 289.8387 256.24306 282.42742 260.93053 281.5406 260.93053 C 280.21037 260.93053 281.22388 259.85368 284.64447 257.63663 C 288.19175 255.35624 289.8387 254.78614 289.8387 255.67296 Z" fill="#FFFFFF"/>
        </g>
        <g id="Graphic_57">
          <path d="M 272.54572 90.34443 C 272.29234 90.53446 272.6724 91.16791 273.43254 91.67466 C 274.88945 92.68817 275.45955 92.43479 274.88945 90.91453 C 274.5094 89.90102 273.30585 89.5843 272.54572 90.34443 Z" fill="black"/>
        </g>
        <g id="Graphic_56">
          <path d="M 278.43673 90.97787 C 278.43673 92.11807 282.61745 95.602 283.9477 95.602 C 284.64447 95.602 285.4046 96.04541 285.65798 96.55217 C 286.03804 97.56568 287.93837 97.8824 287.93837 96.99558 C 287.93837 95.91873 282.2374 91.67466 279.8303 90.91453 C 279.07018 90.66115 278.43673 90.7245 278.43673 90.97787 Z" fill="black"/>
        </g>
        <g id="Graphic_55">
          <path d="M 355.0833 102.50653 C 355.0833 103.20332 355.4 103.96345 355.71673 104.15348 C 356.0968 104.40686 356.35018 103.83676 356.35018 102.94994 C 356.35018 102.06312 356.0968 101.30299 355.71673 101.30299 C 355.4 101.30299 355.0833 101.87309 355.0833 102.50653 Z" fill="black"/>
        </g>
        <g id="Graphic_54">
          <path d="M 135.91214 112.07151 C 135.91214 112.38823 136.22886 112.70496 136.60893 112.70496 C 136.92565 112.70496 137.05234 112.38823 136.8623 112.07151 C 136.67227 111.69145 136.35555 111.43807 136.16552 111.43807 C 136.03883 111.43807 135.91214 111.69145 135.91214 112.07151 Z" fill="black"/>
        </g>
        <g id="Graphic_53">
          <path d="M 79.91581 113.78181 C 78.20552 113.97184 76.81194 114.73197 75.22834 116.25223 C 72.75791 118.59597 73.32801 118.97604 77.63542 117.83584 C 78.83896 117.45578 81.05601 116.88568 82.57627 116.50561 C 84.53994 115.99886 85.23673 115.4921 85.23673 114.60528 C 85.23673 113.27505 85.11004 113.27505 79.91581 113.78181 Z" fill="black"/>
        </g>
        <g id="Graphic_52">
          <path d="M 205.2741 113.97184 C 204.19726 114.35191 204.3873 114.54194 206.4143 114.922 C 208.94808 115.42876 209.64486 116.50561 207.36447 116.50561 C 206.16093 116.50561 206.09758 116.6323 206.85772 117.13905 C 208.1246 117.96253 213.63555 117.96253 214.1423 117.13905 C 214.7124 116.18889 216.35935 116.37892 219.46322 117.7725 C 221.68027 118.786 222.06034 119.22942 221.49024 119.9262 C 220.60342 120.93971 221.80696 121.57315 224.46742 121.50981 C 225.41758 121.50981 225.79765 121.31978 225.41758 121.12974 C 224.97417 121.00305 224.5941 120.43296 224.5941 119.98955 C 224.5941 119.48279 223.96067 118.72266 223.20054 118.3426 C 222.37706 117.89919 221.4269 117.2024 220.98349 116.75899 C 220.54008 116.31558 219.08316 115.80882 217.68958 115.55545 C 216.296 115.30207 214.8391 114.73197 214.39568 114.22522 C 213.5722 113.27505 207.49116 113.02168 205.2741 113.97184 Z" fill="black"/>
        </g>
        <g id="Graphic_51">
          <path d="M 123.56001 115.30207 C 122.79988 116.44227 123.62335 116.56896 127.42401 115.61879 L 131.16132 114.73197 L 127.5507 114.66863 C 125.58703 114.60528 123.75004 114.922 123.56001 115.30207 Z" fill="black"/>
        </g>
        <g id="Graphic_50">
          <path d="M 195.77247 117.2024 C 195.5191 117.58246 195.45575 117.96253 195.58244 118.08922 C 196.02585 118.59597 201.09339 117.58246 200.77667 117.07571 C 200.33326 116.25223 196.21588 116.37892 195.77247 117.2024 Z" fill="black"/>
        </g>
        <g id="Graphic_49">
          <path d="M 80.48591 118.2159 C 77.19201 118.72266 77.44539 119.48279 81.05601 119.9262 C 85.17339 120.36961 86.88368 119.9262 85.80683 118.65932 C 85.11004 117.7725 84.15988 117.70915 80.48591 118.2159 Z" fill="black"/>
        </g>
        <g id="Graphic_48">
          <path d="M 138.31922 118.84935 C 138.69929 118.97604 139.45942 118.97604 139.90283 118.84935 C 140.2829 118.65932 139.96617 118.53263 139.07935 118.53263 C 138.19253 118.53263 137.87581 118.65932 138.31922 118.84935 Z" fill="black"/>
        </g>
        <g id="Graphic_47">
          <path d="M 126.22047 119.73617 C 126.72722 120.24292 127.23398 120.24292 128.1208 119.73617 C 129.1343 119.16607 129.00762 119.10273 127.42401 119.03938 C 126.03044 119.03938 125.71371 119.22942 126.22047 119.73617 Z" fill="black"/>
        </g>
        <g id="Graphic_46">
          <path d="M 213.50886 120.30627 C 213.25549 120.68633 213.95227 120.93971 215.21916 120.87637 C 216.92945 120.87637 217.11949 120.74968 216.04263 120.30627 C 214.33234 119.54614 213.95227 119.54614 213.50886 120.30627 Z" fill="black"/>
        </g>
        <g id="Graphic_45">
          <path d="M 143.51345 121.57315 C 143.51345 122.01656 143.70348 122.2066 143.95686 122.01656 C 144.1469 121.76319 144.1469 121.38312 143.95686 121.12974 C 143.70348 120.93971 143.51345 121.12974 143.51345 121.57315 Z" fill="black"/>
        </g>
        <g id="Graphic_44">
          <path d="M 138.63594 122.01656 C 139.20604 122.14325 140.09286 122.14325 140.53627 122.01656 C 140.91634 121.82653 140.47293 121.69984 139.39607 121.69984 C 138.38257 121.69984 138.0025 121.82653 138.63594 122.01656 Z" fill="black"/>
        </g>
        <g id="Graphic_43">
          <path d="M 80.16919 123.47348 C 80.16919 123.7902 80.73929 124.10692 81.49942 124.10692 C 82.19621 124.10692 82.57627 123.7902 82.38624 123.47348 C 82.19621 123.09342 81.56276 122.84004 81.05601 122.84004 C 80.54925 122.84004 80.16919 123.09342 80.16919 123.47348 Z" fill="black"/>
        </g>
        <g id="Graphic_42">
          <path d="M 217.94296 124.10692 C 217.30952 125.12043 217.4362 125.18378 222.25037 125.56384 C 226.05103 125.81722 228.0147 125.37381 226.62113 124.48699 C 225.35424 123.72686 218.38637 123.34679 217.94296 124.10692 Z" fill="black"/>
        </g>
        <g id="Graphic_41">
          <path d="M 136.8623 125.37381 C 135.2787 126.0706 135.97548 126.19728 140.09286 126.00725 C 141.92985 125.9439 143.5768 126.19728 143.76683 126.57735 C 144.0202 126.95742 145.03371 127.27414 146.11057 127.27414 C 148.32762 127.27414 148.64434 125.69053 146.55398 125.12043 C 144.46362 124.61368 138.31922 124.74037 136.8623 125.37381 Z" fill="black"/>
        </g>
        <g id="Graphic_40">
          <path d="M 226.17772 129.17446 C 225.7343 129.87125 226.05103 129.99794 229.97837 131.01145 C 235.55267 132.46837 237.51634 131.01145 232.13208 129.42784 C 228.77483 128.41433 226.68447 128.28764 226.17772 129.17446 Z" fill="black"/>
        </g>
        <g id="Graphic_39">
          <path d="M 75.73509 130.75807 C 75.73509 130.9481 75.86178 131.0748 76.05181 131.0748 C 76.24184 131.0748 76.36853 130.9481 76.36853 130.75807 C 76.36853 130.56804 76.24184 130.44135 76.05181 130.44135 C 75.86178 130.44135 75.73509 130.56804 75.73509 130.75807 Z" fill="black"/>
        </g>
        <g id="Graphic_38">
          <path d="M 80.0425 136.77578 C 79.09234 138.42273 79.09234 138.6761 79.91581 138.6761 C 80.99266 138.6761 81.62611 137.34587 81.30939 135.88896 C 81.1827 135.19217 80.80263 135.44555 80.0425 136.77578 Z" fill="black"/>
        </g>
        <g id="Graphic_37">
          <path d="M 72.8846 139.30955 C 73.137975 139.68961 73.581385 139.8163 73.89811 139.62627 C 74.78493 139.05617 74.59489 138.6761 73.4547 138.6761 C 72.94794 138.6761 72.694566 138.99283 72.8846 139.30955 Z" fill="black"/>
        </g>
        <g id="Graphic_36">
          <path d="M 71.80775 147.98771 C 72.25116 148.17774 72.82125 148.1144 73.01129 147.92437 C 73.26466 147.73433 72.8846 147.5443 72.18781 147.60765 C 71.491025 147.60765 71.30099 147.79768 71.80775 147.98771 Z" fill="black"/>
        </g>
        <g id="Graphic_35">
          <path d="M 73.20132 178.583 C 73.20132 178.89971 73.77142 179.21643 74.468205 179.21643 C 75.16499 179.21643 75.73509 178.89971 75.73509 178.583 C 75.73509 178.20292 75.16499 177.94955 74.468205 177.94955 C 73.77142 177.94955 73.20132 178.20292 73.20132 178.583 Z" fill="black"/>
        </g>
        <g id="Graphic_34">
          <path d="M 75.10165 197.58627 C 74.21483 199.23322 75.29168 201.38692 77.06532 201.38692 C 78.07883 201.38692 78.26886 201.13355 77.95214 200.24673 C 77.69876 199.67663 77.3187 198.53643 77.19201 197.71296 C 76.81194 196.00266 75.98847 195.93932 75.10165 197.58627 Z" fill="black"/>
        </g>
        <g id="Graphic_33">
          <path d="M 148.581 211.58535 C 148.581 211.90207 148.89771 212.02876 149.21444 211.83873 C 149.5945 211.6487 149.84788 211.33197 149.84788 211.14194 C 149.84788 211.01525 149.5945 210.88856 149.21444 210.88856 C 148.89771 210.88856 148.581 211.20529 148.581 211.58535 Z" fill="black"/>
        </g>
        <g id="Graphic_32">
          <path d="M 270.20198 138.48607 C 270.20198 138.8028 270.6454 139.49958 271.15214 140.19637 C 271.7856 141.08319 272.48237 141.27322 273.74926 140.9565 C 275.33286 140.51309 275.3962 140.44974 274.31936 139.30955 C 273.2425 138.106 270.20198 137.5359 270.20198 138.48607 Z" fill="black"/>
        </g>
        <g id="Graphic_31">
          <path d="M 308.52526 152.61184 C 308.33523 152.92856 308.5886 153.43532 309.1587 153.62535 C 310.55227 154.19545 310.9957 153.562 309.8555 152.67519 C 309.22205 152.16843 308.84198 152.10509 308.52526 152.61184 Z" fill="black"/>
        </g>
        <g id="Graphic_30">
          <path d="M 314.35293 154.32214 C 312.83267 155.8424 314.8597 158.31283 317.64683 158.31283 C 319.42047 158.31283 323.09444 160.59322 324.36132 162.49355 C 325.1848 163.76043 325.56486 163.95047 326.26165 163.38037 C 326.95844 162.81027 327.3385 162.93696 327.97195 164.0138 C 328.73208 165.21735 333.4829 167.81447 334.87647 167.81447 C 335.1932 167.81447 335.44657 167.24437 335.44657 166.54758 C 335.44657 165.34404 331.3292 162.05014 328.66873 161.22666 C 327.97195 160.97328 327.14847 160.40319 326.95844 159.89643 C 326.7684 159.32633 325.7549 158.94627 324.42467 158.94627 C 322.9044 158.94627 321.51083 158.37617 320.11726 157.10928 C 318.21693 155.52568 315.68316 153.87873 314.98637 153.87873 C 314.8597 153.87873 314.54296 154.06876 314.35293 154.32214 Z" fill="black"/>
        </g>
        <g id="Graphic_29">
          <path d="M 339.6273 168.95466 C 339.43726 169.33473 339.56395 169.84148 339.944 170.03151 C 340.89418 170.66496 341.5276 169.84148 340.70414 169.018 C 340.26073 168.5746 339.88067 168.5746 339.6273 168.95466 Z" fill="black"/>
        </g>
        <g id="Graphic_28">
          <path d="M 269.75857 221.46706 C 270.01195 221.6571 270.392 221.6571 270.6454 221.46706 C 270.83542 221.21368 270.6454 221.02365 270.20198 221.02365 C 269.75857 221.02365 269.56854 221.21368 269.75857 221.46706 Z" fill="black"/>
        </g>
        <g id="Graphic_27">
          <path d="M 66.29778 133.55222 C 66.69827 133.10881 65.69703 132.79209 63.8948 132.79209 C 62.092565 132.79209 60.69083 133.2355 60.69083 133.8056 C 60.69083 134.88245 65.09629 134.69242 66.29778 133.55222 Z" fill="#FFFFFF"/>
        </g>
        <g id="Graphic_26">
          <path d="M 66.30773 193.34207 C 66.70822 193.78548 65.70698 194.1022 63.90475 194.1022 C 62.102515 194.1022 60.70078 193.65879 60.70078 193.0887 C 60.70078 192.01184 65.10624 192.20187 66.30773 193.34207 Z" fill="#FFFFFF"/>
        </g>
      </g>
    </g>
  </g>
</svg>
