<?xml version="1.0" encoding="UTF-8" standalone="no"?>
<!DOCTYPE svg PUBLIC "-//W3C//DTD SVG 1.1//EN" "http://www.w3.org/Graphics/SVG/1.1/DTD/svg11.dtd">
<svg xmlns:xl="http://www.w3.org/1999/xlink" version="1.1" xmlns="http://www.w3.org/2000/svg" xmlns:dc="http://purl.org/dc/elements/1.1/" viewBox="34.5 61 279 264" width="279" height="264">
  <defs>
    <clipPath id="artboard_clip_path">
      <path d="M 34.5 61 L 313.5 61 L 313.5 325 L 34.5 325 Z"/>
    </clipPath>
  </defs>
  <g id="Crescent_(1)" stroke-opacity="1" stroke="none" fill="none" fill-opacity="1" stroke-dasharray="none">
    <title>Crescent (1)</title>
    <g id="Crescent_(1)_Layer_2" clip-path="url(#artboard_clip_path)">
      <title>Layer 2</title>
      <g id="Group_42">
        <g id="Graphic_44">
          <path d="M 238.04524 62.713195 C 238.3057 62.96763 238.56501 63.22393 238.82317 63.48209 C 274.6015 99.26025 274.6015 157.26805 238.82317 193.0462 C 203.04502 228.82455 145.03721 228.82455 109.25906 193.0462 C 73.48072 157.26805 73.48072 99.26025 109.25906 63.48209 C 109.51721 63.22393 109.77653 62.96764 110.03698 62.713206 C 97.9442 69.04392 86.59281 77.28997 76.43146 87.45137 C 22.522846 141.3597 22.522846 228.76233 76.43146 282.67067 C 130.3398 336.5793 217.74243 336.5793 271.65077 282.67067 C 325.5594 228.76233 325.5594 141.3597 271.65077 87.45137 C 261.48942 77.28996 250.13803 69.043915 238.04522 62.71322 Z" fill="#FFFFFF"/>
          <path d="M 238.04524 62.713195 C 238.3057 62.96763 238.56501 63.22393 238.82317 63.48209 C 274.6015 99.26025 274.6015 157.26805 238.82317 193.0462 C 203.04502 228.82455 145.03721 228.82455 109.25906 193.0462 C 73.48072 157.26805 73.48072 99.26025 109.25906 63.48209 C 109.51721 63.22393 109.77653 62.96764 110.03698 62.713206 C 97.9442 69.04392 86.59281 77.28997 76.43146 87.45137 C 22.522846 141.3597 22.522846 228.76233 76.43146 282.67067 C 130.3398 336.5793 217.74243 336.5793 271.65077 282.67067 C 325.5594 228.76233 325.5594 141.3597 271.65077 87.45137 C 261.48942 77.28996 250.13803 69.043915 238.04522 62.71322 Z" stroke="black" stroke-linecap="round" stroke-linejoin="round" stroke-width="2"/>
        </g>
        <g id="Line_43">
          <path d="M 106.6113 65.70988 C 43.74588 113.34005 57.698156 179.62363 61.06595 192.61367 C 64.43374 205.60372 95.58143 276.23642 173.52172 277.5194 C 251.462 278.80236 281.89676 209.93374 286.22678 192.61367 C 290.5568 175.29361 303.54684 114.34005 242.92662 66.70988" stroke="black" stroke-linecap="round" stroke-linejoin="round" stroke-width="1"/>
        </g>
      </g>
    </g>
  </g>
</svg>
