<?xml version="1.0" encoding="UTF-8" standalone="no"?>
<!DOCTYPE svg PUBLIC "-//W3C//DTD SVG 1.1//EN" "http://www.w3.org/Graphics/SVG/1.1/DTD/svg11.dtd">
<svg xmlns:xl="http://www.w3.org/1999/xlink" version="1.1" xmlns="http://www.w3.org/2000/svg" xmlns:dc="http://purl.org/dc/elements/1.1/" viewBox="45 72 274.5 274.5" width="274.5" height="274.5">
  <defs>
    <clipPath id="artboard_clip_path">
      <path d="M 45 72 L 319.5 72 L 319.5 336.10227 L 309.10227 344.42045 L 45 346.5 Z"/>
    </clipPath>
  </defs>
  <g id="Crescents,_Four,_Conjoined_In_Saltire_Horns_Outwards" stroke-opacity="1" stroke="none" fill="none" fill-opacity="1" stroke-dasharray="none">
    <title>Crescents, Four, Conjoined In Saltire Horns Outwards</title>
    <g id="Crescents,_Four,_Conjoined_In_Saltire_Horns_Outwards_Art" clip-path="url(#artboard_clip_path)">
      <title>Art</title>
      <g id="Group_129">
        <g id="Graphic_123">
          <path d="M 89.72188 84.70604 C 102.46516 82.24657 116.16292 85.95091 126.03101 95.81905 C 141.82974 111.6177 141.82974 137.23234 126.03101 153.03098 C 110.23237 168.8297 84.61773 168.8297 68.81909 153.03098 C 58.950946 143.16289 55.24661 129.46513 57.70607 116.72185 C 46.6227 140.82086 51.0078 170.28517 70.86139 190.13866 C 96.34307 215.62047 137.65701 215.62047 163.1387 190.13866 C 188.6205 164.65698 188.6205 123.34304 163.1387 97.86136 C 143.2852 78.00777 113.8209 73.62266 89.72188 84.70605 Z" fill="#FFFFFF"/>
          <path d="M 89.72188 84.70604 C 102.46516 82.24657 116.16292 85.95091 126.03101 95.81905 C 141.82974 111.6177 141.82974 137.23234 126.03101 153.03098 C 110.23237 168.8297 84.61773 168.8297 68.81909 153.03098 C 58.950946 143.16289 55.24661 129.46513 57.70607 116.72185 C 46.6227 140.82086 51.0078 170.28517 70.86139 190.13866 C 96.34307 215.62047 137.65701 215.62047 163.1387 190.13866 C 188.6205 164.65698 188.6205 123.34304 163.1387 97.86136 C 143.2852 78.00777 113.8209 73.62266 89.72188 84.70605 Z" stroke="black" stroke-linecap="round" stroke-linejoin="round" stroke-width="1"/>
        </g>
        <g id="Graphic_122">
          <path d="M 91.01689 84.65311 C 108.96364 78.85661 129.44395 83.08337 143.6958 97.33338 C 163.95771 117.59244 163.95771 150.43885 143.6958 170.69791 C 123.43401 190.95708 90.58317 190.95708 70.32137 170.69791 C 56.2981 156.67661 51.98034 136.62594 57.36809 118.89175 L 57.169295 118.83098 C 54.0377 129.07259 54.13333 140.02958 57.443216 150.21498 C 66.35074 177.62583 95.7956 192.62671 123.21015 183.72039 C 150.6247 174.81406 165.6276 145.37318 156.72008 117.96233 C 147.81255 90.55148 118.36769 75.5506 90.95314 84.45693 Z" stroke="black" stroke-linecap="round" stroke-linejoin="round" stroke-width="1"/>
        </g>
        <g id="Group_118">
          <g id="Graphic_120">
            <path d="M 274.77812 84.70604 C 262.03484 82.24657 248.33708 85.95091 238.469 95.81905 C 222.67026 111.6177 222.67026 137.23234 238.469 153.03098 C 254.26763 168.8297 279.88227 168.8297 295.6809 153.03098 C 305.54905 143.16289 309.2534 129.46513 306.79393 116.72185 C 317.8773 140.82086 313.4922 170.28517 293.6386 190.13866 C 268.15693 215.62047 226.843 215.62047 201.3613 190.13866 C 175.8795 164.65698 175.8795 123.34304 201.3613 97.86136 C 221.2148 78.00777 250.6791 73.62266 274.77812 84.70605 Z" fill="#FFFFFF"/>
            <path d="M 274.77812 84.70604 C 262.03484 82.24657 248.33708 85.95091 238.469 95.81905 C 222.67026 111.6177 222.67026 137.23234 238.469 153.03098 C 254.26763 168.8297 279.88227 168.8297 295.6809 153.03098 C 305.54905 143.16289 309.2534 129.46513 306.79393 116.72185 C 317.8773 140.82086 313.4922 170.28517 293.6386 190.13866 C 268.15693 215.62047 226.843 215.62047 201.3613 190.13866 C 175.8795 164.65698 175.8795 123.34304 201.3613 97.86136 C 221.2148 78.00777 250.6791 73.62266 274.77812 84.70605 Z" stroke="black" stroke-linecap="round" stroke-linejoin="round" stroke-width="1"/>
          </g>
          <g id="Graphic_119">
            <path d="M 273.4831 84.65311 C 255.53636 78.85661 235.05605 83.08337 220.8042 97.33338 C 200.5423 117.59244 200.5423 150.43885 220.8042 170.69791 C 241.066 190.95708 273.91683 190.95708 294.17863 170.69791 C 308.2019 156.67661 312.51966 136.62594 307.1319 118.89175 L 307.3307 118.83098 C 310.4623 129.07259 310.36667 140.02958 307.0568 150.21498 C 298.14926 177.62583 268.7044 192.62671 241.28985 183.72039 C 213.8753 174.81406 198.8724 145.37318 207.77992 117.96233 C 216.68745 90.55148 246.1323 75.5506 273.54686 84.45693 Z" stroke="black" stroke-linecap="round" stroke-linejoin="round" stroke-width="1"/>
          </g>
        </g>
        <g id="Group_115">
          <g id="Graphic_117">
            <path d="M 89.72188 333.79396 C 102.46516 336.25343 116.16292 332.5491 126.03101 322.68095 C 141.82974 306.8823 141.82974 281.26766 126.03101 265.46902 C 110.23237 249.6703 84.61773 249.6703 68.81909 265.46902 C 58.950946 275.3371 55.24661 289.03487 57.70607 301.77815 C 46.6227 277.67914 51.0078 248.21483 70.86139 228.36134 C 96.34307 202.87953 137.65701 202.87953 163.1387 228.36134 C 188.6205 253.84302 188.6205 295.15696 163.1387 320.63864 C 143.2852 340.49223 113.8209 344.87734 89.72188 333.79395 Z" fill="#FFFFFF"/>
            <path d="M 89.72188 333.79396 C 102.46516 336.25343 116.16292 332.5491 126.03101 322.68095 C 141.82974 306.8823 141.82974 281.26766 126.03101 265.46902 C 110.23237 249.6703 84.61773 249.6703 68.81909 265.46902 C 58.950946 275.3371 55.24661 289.03487 57.70607 301.77815 C 46.6227 277.67914 51.0078 248.21483 70.86139 228.36134 C 96.34307 202.87953 137.65701 202.87953 163.1387 228.36134 C 188.6205 253.84302 188.6205 295.15696 163.1387 320.63864 C 143.2852 340.49223 113.8209 344.87734 89.72188 333.79395 Z" stroke="black" stroke-linecap="round" stroke-linejoin="round" stroke-width="1"/>
          </g>
          <g id="Graphic_116">
            <path d="M 91.01689 333.8469 C 108.96364 339.6434 129.44395 335.41663 143.6958 321.16662 C 163.95771 300.90756 163.95771 268.06115 143.6958 247.8021 C 123.43401 227.54292 90.58317 227.54292 70.32137 247.8021 C 56.2981 261.8234 51.98034 281.87406 57.36809 299.60825 L 57.169295 299.66902 C 54.0377 289.4274 54.13333 278.47042 57.443216 268.285 C 66.35074 240.87417 95.7956 225.8733 123.21015 234.7796 C 150.6247 243.68594 165.6276 273.12682 156.72008 300.53767 C 147.81255 327.9485 118.36769 342.9494 90.95314 334.04307 Z" stroke="black" stroke-linecap="round" stroke-linejoin="round" stroke-width="1"/>
          </g>
        </g>
        <g id="Group_112">
          <g id="Graphic_114">
            <path d="M 274.77812 333.79396 C 262.03484 336.25343 248.33708 332.5491 238.469 322.68095 C 222.67026 306.8823 222.67026 281.26766 238.469 265.46902 C 254.26763 249.6703 279.88227 249.6703 295.6809 265.46902 C 305.54905 275.3371 309.2534 289.03487 306.79393 301.77815 C 317.8773 277.67914 313.4922 248.21483 293.6386 228.36134 C 268.15693 202.87953 226.843 202.87953 201.3613 228.36134 C 175.8795 253.84302 175.8795 295.15696 201.3613 320.63864 C 221.2148 340.49223 250.6791 344.87734 274.77812 333.79395 Z" fill="#FFFFFF"/>
            <path d="M 274.77812 333.79396 C 262.03484 336.25343 248.33708 332.5491 238.469 322.68095 C 222.67026 306.8823 222.67026 281.26766 238.469 265.46902 C 254.26763 249.6703 279.88227 249.6703 295.6809 265.46902 C 305.54905 275.3371 309.2534 289.03487 306.79393 301.77815 C 317.8773 277.67914 313.4922 248.21483 293.6386 228.36134 C 268.15693 202.87953 226.843 202.87953 201.3613 228.36134 C 175.8795 253.84302 175.8795 295.15696 201.3613 320.63864 C 221.2148 340.49223 250.6791 344.87734 274.77812 333.79395 Z" stroke="black" stroke-linecap="round" stroke-linejoin="round" stroke-width="1"/>
          </g>
          <g id="Graphic_113">
            <title>Adjustable Arc</title>
            <path d="M 273.4831 333.8469 C 255.53636 339.6434 235.05605 335.41663 220.8042 321.16662 C 200.5423 300.90756 200.5423 268.06115 220.8042 247.8021 C 241.066 227.54292 273.91683 227.54292 294.17863 247.8021 C 308.2019 261.8234 312.51966 281.87406 307.1319 299.60825 L 307.3307 299.66902 C 310.4623 289.4274 310.36667 278.47042 307.0568 268.285 C 298.14926 240.87417 268.7044 225.8733 241.28985 234.7796 C 213.8753 243.68594 198.8724 273.12682 207.77992 300.53767 C 216.68745 327.9485 246.1323 342.9494 273.54686 334.04307 Z" stroke="black" stroke-linecap="round" stroke-linejoin="round" stroke-width="1"/>
          </g>
        </g>
      </g>
    </g>
  </g>
</svg>
