<?xml version="1.0" encoding="UTF-8" standalone="no"?>
<!DOCTYPE svg PUBLIC "-//W3C//DTD SVG 1.1//EN" "http://www.w3.org/Graphics/SVG/1.1/DTD/svg11.dtd">
<svg xmlns:xl="http://www.w3.org/1999/xlink" xmlns="http://www.w3.org/2000/svg" xmlns:dc="http://purl.org/dc/elements/1.1/" version="1.1" viewBox="35.4375 60.75 293.625 297" width="293.625" height="297">
  <defs>
    <clipPath id="artboard_clip_path">
      <path d="M 35.4375 60.75 L 329.0625 60.75 L 329.0625 346.5 L 317.94034 355.5 L 35.4375 357.75 Z"/>
    </clipPath>
  </defs>
  <g id="Cross_Annuletty" stroke-opacity="1" stroke="none" stroke-dasharray="none" fill="none" fill-opacity="1">
    <title>Cross Annuletty</title>
    <g id="Cross_Annuletty_Art" clip-path="url(#artboard_clip_path)">
      <title>Art</title>
      <g id="Graphic_129">
        <path d="M 306.94536 197.05466 C 313.33827 203.44754 313.33827 213.81244 306.94536 220.20532 C 300.55247 226.59824 290.18757 226.59824 283.7947 220.20532 C 277.40178 213.81244 277.40178 203.44754 283.7947 197.05466 C 290.18757 190.66175 300.55247 190.66175 306.94536 197.05466 M 170.67468 310.17468 C 177.06756 303.78176 187.43246 303.78176 193.82534 310.17468 C 200.21825 316.56756 200.21825 326.93246 193.82534 333.32534 C 187.43246 339.71825 177.06756 339.71825 170.67468 333.32534 C 164.28176 326.93246 164.28176 316.56756 170.67468 310.17468 M 170.67468 83.93464 C 177.06756 77.54173 187.43246 77.54173 193.82534 83.93464 C 200.21825 90.32752 200.21825 100.69242 193.82534 107.0853 C 187.43246 113.47822 177.06756 113.47822 170.67468 107.0853 C 164.28176 100.69242 164.28176 90.32752 170.67468 83.93464 M 96.48723 196.61842 C 95.03663 193.31236 92.95797 190.21543 90.25125 187.50873 C 78.5863 175.84371 59.673684 175.84371 48.00873 187.50873 C 36.343713 199.17368 36.343713 218.0863 48.00873 229.75125 C 59.673684 241.41627 78.5863 241.41627 90.25125 229.75125 C 92.61675 227.38577 94.50255 224.72226 95.90867 221.88158 L 170.23844 221.88158 L 170.23844 294.39277 C 166.93238 295.84337 163.83545 297.92203 161.12874 300.62874 C 149.46373 312.2937 149.46373 331.2063 161.12874 342.87127 C 172.7937 354.5363 191.70631 354.5363 203.37127 342.87127 C 215.03629 331.2063 215.03629 312.2937 203.37127 300.62874 C 201.0058 298.26325 198.34227 296.37745 195.5016 294.97133 L 195.5016 221.88158 L 268.59135 221.88158 C 269.99746 224.72226 271.88327 227.38577 274.24876 229.75125 C 285.9137 241.41627 304.82633 241.41627 316.4913 229.75125 C 328.1563 218.0863 328.1563 199.17368 316.4913 187.50873 C 304.82633 175.84371 285.9137 175.84371 274.24876 187.50873 C 271.54204 190.21543 269.46338 193.31236 268.0128 196.61842 L 195.5016 196.61842 L 195.5016 122.28865 C 198.34227 120.88253 201.0058 118.99673 203.37127 116.63124 C 215.03629 104.96628 215.03629 86.05367 203.37127 74.38871 C 191.70631 62.7237 172.7937 62.7237 161.12874 74.38871 C 149.46373 86.05367 149.46373 104.96628 161.12874 116.63124 C 163.83545 119.33796 166.93238 121.41661 170.23844 122.86721 L 170.23844 196.61842 Z M 52.759974 208.63 C 52.759974 204.44055 54.3582 200.2511 57.55466 197.05466 C 63.94754 190.66175 74.31244 190.66175 80.70532 197.05466 C 87.09824 203.44754 87.09824 213.81244 80.70532 220.20532 C 74.31244 226.59824 63.94754 226.59824 57.55466 220.20532 C 54.3582 217.00888 52.759974 212.81944 52.759974 208.63 C 52.759974 208.63 52.759974 208.63 52.759974 208.63 Z" fill="#FFFFFF"/>
        <path d="M 306.94536 197.05466 C 313.33827 203.44754 313.33827 213.81244 306.94536 220.20532 C 300.55247 226.59824 290.18757 226.59824 283.7947 220.20532 C 277.40178 213.81244 277.40178 203.44754 283.7947 197.05466 C 290.18757 190.66175 300.55247 190.66175 306.94536 197.05466 M 170.67468 310.17468 C 177.06756 303.78176 187.43246 303.78176 193.82534 310.17468 C 200.21825 316.56756 200.21825 326.93246 193.82534 333.32534 C 187.43246 339.71825 177.06756 339.71825 170.67468 333.32534 C 164.28176 326.93246 164.28176 316.56756 170.67468 310.17468 M 170.67468 83.93464 C 177.06756 77.54173 187.43246 77.54173 193.82534 83.93464 C 200.21825 90.32752 200.21825 100.69242 193.82534 107.0853 C 187.43246 113.47822 177.06756 113.47822 170.67468 107.0853 C 164.28176 100.69242 164.28176 90.32752 170.67468 83.93464 M 96.48723 196.61842 C 95.03663 193.31236 92.95797 190.21543 90.25125 187.50873 C 78.5863 175.84371 59.673684 175.84371 48.00873 187.50873 C 36.343713 199.17368 36.343713 218.0863 48.00873 229.75125 C 59.673684 241.41627 78.5863 241.41627 90.25125 229.75125 C 92.61675 227.38577 94.50255 224.72226 95.90867 221.88158 L 170.23844 221.88158 L 170.23844 294.39277 C 166.93238 295.84337 163.83545 297.92203 161.12874 300.62874 C 149.46373 312.2937 149.46373 331.2063 161.12874 342.87127 C 172.7937 354.5363 191.70631 354.5363 203.37127 342.87127 C 215.03629 331.2063 215.03629 312.2937 203.37127 300.62874 C 201.0058 298.26325 198.34227 296.37745 195.5016 294.97133 L 195.5016 221.88158 L 268.59135 221.88158 C 269.99746 224.72226 271.88327 227.38577 274.24876 229.75125 C 285.9137 241.41627 304.82633 241.41627 316.4913 229.75125 C 328.1563 218.0863 328.1563 199.17368 316.4913 187.50873 C 304.82633 175.84371 285.9137 175.84371 274.24876 187.50873 C 271.54204 190.21543 269.46338 193.31236 268.0128 196.61842 L 195.5016 196.61842 L 195.5016 122.28865 C 198.34227 120.88253 201.0058 118.99673 203.37127 116.63124 C 215.03629 104.96628 215.03629 86.05367 203.37127 74.38871 C 191.70631 62.7237 172.7937 62.7237 161.12874 74.38871 C 149.46373 86.05367 149.46373 104.96628 161.12874 116.63124 C 163.83545 119.33796 166.93238 121.41661 170.23844 122.86721 L 170.23844 196.61842 Z M 52.759974 208.63 C 52.759974 204.44055 54.3582 200.2511 57.55466 197.05466 C 63.94754 190.66175 74.31244 190.66175 80.70532 197.05466 C 87.09824 203.44754 87.09824 213.81244 80.70532 220.20532 C 74.31244 226.59824 63.94754 226.59824 57.55466 220.20532 C 54.3582 217.00888 52.759974 212.81944 52.759974 208.63 C 52.759974 208.63 52.759974 208.63 52.759974 208.63 Z" stroke="black" stroke-linecap="round" stroke-linejoin="round" stroke-width="2"/>
      </g>
    </g>
  </g>
</svg>
