<?xml version="1.0" encoding="UTF-8" standalone="no"?>
<!DOCTYPE svg PUBLIC "-//W3C//DTD SVG 1.1//EN" "http://www.w3.org/Graphics/SVG/1.1/DTD/svg11.dtd">
<svg xmlns:xl="http://www.w3.org/1999/xlink" xmlns="http://www.w3.org/2000/svg" xmlns:dc="http://purl.org/dc/elements/1.1/" version="1.1" viewBox="31.5 58.5 301 301.5" width="301" height="301.5">
  <defs>
    <clipPath id="artboard_clip_path">
      <path d="M 31.5 58.5 L 332.5 58.5 L 332.5 360 L 31.5 360 Z"/>
    </clipPath>
  </defs>
  <g id="Cross,_Avellane_(2)" stroke-opacity="1" stroke="none" stroke-dasharray="none" fill="none" fill-opacity="1">
    <title>Cross, Avellane (2)</title>
    <g id="Cross,_Avellane_(2)_Layer_2" clip-path="url(#artboard_clip_path)">
      <title>Layer 2</title>
      <g id="Group_57">
        <g id="Graphic_62">
          <path d="M 162.24083 209.25057 C 162.24083 198.19887 171.2 189.23969 182.25172 189.23969 C 193.30342 189.23969 202.2626 198.19887 202.2626 209.25057 C 202.2626 220.30228 193.30342 229.26146 182.25172 229.26146 C 171.2 229.26146 162.24083 220.30228 162.24083 209.25057 Z" fill="#FFFFFF"/>
          <path d="M 162.24083 209.25057 C 162.24083 198.19887 171.2 189.23969 182.25172 189.23969 C 193.30342 189.23969 202.2626 198.19887 202.2626 209.25057 C 202.2626 220.30228 193.30342 229.26146 182.25172 229.26146 C 171.2 229.26146 162.24083 220.30228 162.24083 209.25057 Z" stroke="black" stroke-linecap="butt" stroke-linejoin="round" stroke-width="2"/>
        </g>
        <g id="Graphic_61">
          <path d="M 203.91963 86.19535 C 198.60414 71.51514 190.6492 63 182.25023 63 C 173.85127 63 165.89631 71.51514 160.58083 86.19535 C 153.19963 78.48446 143.94936 75.53057 135.01527 78.03151 C 126.08119 80.53244 118.25567 88.26639 113.38739 99.40631 C 119.79056 92.77874 127.9291 90.74152 135.49548 93.87229 C 143.06186 97.00305 149.23106 104.96041 152.25392 115.48822 C 153.26932 119.5823 152.64307 123.99127 150.54965 127.48675 C 147.70623 133.61053 146.21645 140.46193 146.21462 147.42329 C 146.21734 170.5889 162.34767 189.36665 182.2445 189.36665 C 202.14135 189.36665 218.27168 170.5889 218.2744 147.42329 C 218.2745 140.32574 216.72785 133.34421 213.77924 127.13217 C 211.92016 123.60684 211.42066 118.95641 212.45242 114.77906 C 215.58653 104.4658 221.75985 96.74711 229.2591 93.76516 C 236.75838 90.7832 244.78562 92.85527 251.11307 99.40631 C 246.2448 88.26639 238.41927 80.53244 229.48518 78.03151 C 220.5511 75.53057 211.30083 78.48446 203.91963 86.19535 Z" fill="#FFFFFF"/>
          <path d="M 203.91963 86.19535 C 198.60414 71.51514 190.6492 63 182.25023 63 C 173.85127 63 165.89631 71.51514 160.58083 86.19535 C 153.19963 78.48446 143.94936 75.53057 135.01527 78.03151 C 126.08119 80.53244 118.25567 88.26639 113.38739 99.40631 C 119.79056 92.77874 127.9291 90.74152 135.49548 93.87229 C 143.06186 97.00305 149.23106 104.96041 152.25392 115.48822 C 153.26932 119.5823 152.64307 123.99127 150.54965 127.48675 C 147.70623 133.61053 146.21645 140.46193 146.21462 147.42329 C 146.21734 170.5889 162.34767 189.36665 182.2445 189.36665 C 202.14135 189.36665 218.27168 170.5889 218.2744 147.42329 C 218.2745 140.32574 216.72785 133.34421 213.77924 127.13217 C 211.92016 123.60684 211.42066 118.95641 212.45242 114.77906 C 215.58653 104.4658 221.75985 96.74711 229.2591 93.76516 C 236.75838 90.7832 244.78562 92.85527 251.11307 99.40631 C 246.2448 88.26639 238.41927 80.53244 229.48518 78.03151 C 220.5511 75.53057 211.30083 78.48446 203.91963 86.19535 Z" stroke="black" stroke-linecap="butt" stroke-linejoin="round" stroke-width="2"/>
        </g>
        <g id="Graphic_60">
          <path d="M 203.91963 332.30465 C 198.60414 346.98486 190.6492 355.5 182.25023 355.5 C 173.85127 355.5 165.89631 346.98486 160.58083 332.30465 C 153.19963 340.01554 143.94936 342.96943 135.01527 340.4685 C 126.08119 337.96756 118.25567 330.2336 113.38739 319.0937 C 119.79056 325.72126 127.9291 327.75848 135.49548 324.6277 C 143.06186 321.49695 149.23106 313.5396 152.25392 303.01178 C 153.26932 298.9177 152.64307 294.50873 150.54965 291.01325 C 147.70623 284.88947 146.21645 278.03807 146.21462 271.0767 C 146.21734 247.9111 162.34767 229.13335 182.2445 229.13335 C 202.14135 229.13335 218.27168 247.9111 218.2744 271.0767 C 218.2745 278.17426 216.72785 285.1558 213.77924 291.36783 C 211.92016 294.89316 211.42066 299.5436 212.45242 303.72094 C 215.58653 314.0342 221.75985 321.7529 229.2591 324.73484 C 236.75838 327.7168 244.78562 325.64473 251.11307 319.0937 C 246.2448 330.2336 238.41927 337.96756 229.48518 340.4685 C 220.5511 342.96943 211.30083 340.01554 203.91963 332.30465 Z" fill="#FFFFFF"/>
          <path d="M 203.91963 332.30465 C 198.60414 346.98486 190.6492 355.5 182.25023 355.5 C 173.85127 355.5 165.89631 346.98486 160.58083 332.30465 C 153.19963 340.01554 143.94936 342.96943 135.01527 340.4685 C 126.08119 337.96756 118.25567 330.2336 113.38739 319.0937 C 119.79056 325.72126 127.9291 327.75848 135.49548 324.6277 C 143.06186 321.49695 149.23106 313.5396 152.25392 303.01178 C 153.26932 298.9177 152.64307 294.50873 150.54965 291.01325 C 147.70623 284.88947 146.21645 278.03807 146.21462 271.0767 C 146.21734 247.9111 162.34767 229.13335 182.2445 229.13335 C 202.14135 229.13335 218.27168 247.9111 218.2744 271.0767 C 218.2745 278.17426 216.72785 285.1558 213.77924 291.36783 C 211.92016 294.89316 211.42066 299.5436 212.45242 303.72094 C 215.58653 314.0342 221.75985 321.7529 229.2591 324.73484 C 236.75838 327.7168 244.78562 325.64473 251.11307 319.0937 C 246.2448 330.2336 238.41927 337.96756 229.48518 340.4685 C 220.5511 342.96943 211.30083 340.01554 203.91963 332.30465 Z" stroke="black" stroke-linecap="butt" stroke-linejoin="round" stroke-width="2"/>
        </g>
        <g id="Graphic_59">
          <path d="M 305.30465 230.91963 C 319.98486 225.60414 328.5 217.6492 328.5 209.25023 C 328.5 200.85127 319.98486 192.89631 305.30465 187.58083 C 313.01554 180.19963 315.96943 170.94936 313.4685 162.01527 C 310.96756 153.08119 303.2336 145.25567 292.0937 140.3874 C 298.72126 146.79056 300.75848 154.9291 297.6277 162.49548 C 294.49695 170.06186 286.5396 176.23106 276.01178 179.25392 C 271.9177 180.26932 267.50873 179.64307 264.01325 177.54965 C 257.88947 174.70623 251.03807 173.21645 244.0767 173.21462 C 220.9111 173.21734 202.13335 189.34767 202.13335 209.2445 C 202.13335 229.14135 220.9111 245.27168 244.0767 245.2744 C 251.17426 245.2745 258.1558 243.72785 264.36783 240.77924 C 267.89316 238.92016 272.5436 238.42066 276.72094 239.45242 C 287.0342 242.58653 294.7529 248.75985 297.73484 256.2591 C 300.7168 263.75838 298.64473 271.78562 292.0937 278.11307 C 303.2336 273.2448 310.96756 265.41927 313.4685 256.48518 C 315.96943 247.5511 313.01554 238.30083 305.30465 230.91963 Z" fill="#FFFFFF"/>
          <path d="M 305.30465 230.91963 C 319.98486 225.60414 328.5 217.6492 328.5 209.25023 C 328.5 200.85127 319.98486 192.89631 305.30465 187.58083 C 313.01554 180.19963 315.96943 170.94936 313.4685 162.01527 C 310.96756 153.08119 303.2336 145.25567 292.0937 140.3874 C 298.72126 146.79056 300.75848 154.9291 297.6277 162.49548 C 294.49695 170.06186 286.5396 176.23106 276.01178 179.25392 C 271.9177 180.26932 267.50873 179.64307 264.01325 177.54965 C 257.88947 174.70623 251.03807 173.21645 244.0767 173.21462 C 220.9111 173.21734 202.13335 189.34767 202.13335 209.2445 C 202.13335 229.14135 220.9111 245.27168 244.0767 245.2744 C 251.17426 245.2745 258.1558 243.72785 264.36783 240.77924 C 267.89316 238.92016 272.5436 238.42066 276.72094 239.45242 C 287.0342 242.58653 294.7529 248.75985 297.73484 256.2591 C 300.7168 263.75838 298.64473 271.78562 292.0937 278.11307 C 303.2336 273.2448 310.96756 265.41927 313.4685 256.48518 C 315.96943 247.5511 313.01554 238.30083 305.30465 230.91963 Z" stroke="black" stroke-linecap="butt" stroke-linejoin="round" stroke-width="2"/>
        </g>
        <g id="Graphic_58">
          <path d="M 59.195354 230.91963 C 44.515137 225.60414 36 217.6492 36 209.25023 C 36 200.85127 44.515137 192.89631 59.195354 187.58083 C 51.484457 180.19963 48.53057 170.94936 51.031507 162.01527 C 53.532444 153.08119 61.26639 145.25567 72.40631 140.3874 C 65.77874 146.79056 63.741524 154.9291 66.87229 162.49548 C 70.00305 170.06186 77.960415 176.23106 88.48822 179.25392 C 92.58229 180.26932 96.99127 179.64307 100.48675 177.54965 C 106.61053 174.70623 113.46193 173.21645 120.42329 173.21462 C 143.58889 173.21734 162.36665 189.34767 162.36665 209.2445 C 162.36665 229.14135 143.58889 245.27168 120.42329 245.2744 C 113.32574 245.2745 106.34421 243.72785 100.13217 240.77924 C 96.60684 238.92016 91.95641 238.42066 87.77906 239.45242 C 77.4658 242.58653 69.74711 248.75985 66.76516 256.2591 C 63.7832 263.75838 65.85527 271.78562 72.40631 278.11307 C 61.26639 273.2448 53.532444 265.41927 51.031507 256.48518 C 48.53057 247.5511 51.484457 238.30083 59.195354 230.91963 Z" fill="#FFFFFF"/>
          <path d="M 59.195354 230.91963 C 44.515137 225.60414 36 217.6492 36 209.25023 C 36 200.85127 44.515137 192.89631 59.195354 187.58083 C 51.484457 180.19963 48.53057 170.94936 51.031507 162.01527 C 53.532444 153.08119 61.26639 145.25567 72.40631 140.3874 C 65.77874 146.79056 63.741524 154.9291 66.87229 162.49548 C 70.00305 170.06186 77.960415 176.23106 88.48822 179.25392 C 92.58229 180.26932 96.99127 179.64307 100.48675 177.54965 C 106.61053 174.70623 113.46193 173.21645 120.42329 173.21462 C 143.58889 173.21734 162.36665 189.34767 162.36665 209.2445 C 162.36665 229.14135 143.58889 245.27168 120.42329 245.2744 C 113.32574 245.2745 106.34421 243.72785 100.13217 240.77924 C 96.60684 238.92016 91.95641 238.42066 87.77906 239.45242 C 77.4658 242.58653 69.74711 248.75985 66.76516 256.2591 C 63.7832 263.75838 65.85527 271.78562 72.40631 278.11307 C 61.26639 273.2448 53.532444 265.41927 51.031507 256.48518 C 48.53057 247.5511 51.484457 238.30083 59.195354 230.91963 Z" stroke="black" stroke-linecap="butt" stroke-linejoin="round" stroke-width="2"/>
        </g>
      </g>
    </g>
  </g>
</svg>
