<?xml version="1.0" encoding="UTF-8" standalone="no"?>
<!DOCTYPE svg PUBLIC "-//W3C//DTD SVG 1.1//EN" "http://www.w3.org/Graphics/SVG/1.1/DTD/svg11.dtd">
<svg xmlns:xl="http://www.w3.org/1999/xlink" xmlns="http://www.w3.org/2000/svg" xmlns:dc="http://purl.org/dc/elements/1.1/" version="1.1" viewBox="46.17036 63 133.82964 351" width="133.82964" height="351">
  <defs>
    <clipPath id="artboard_clip_path">
      <path d="M 46.17036 63 L 180 63 L 180 414 L 46.17036 414 Z"/>
    </clipPath>
  </defs>
  <g id="Ermine_Spot_(11)" stroke-opacity="1" stroke="none" stroke-dasharray="none" fill="none" fill-opacity="1">
    <title>Ermine Spot (11)</title>
    <g id="Ermine_Spot_(11)_Layer_2" clip-path="url(#artboard_clip_path)">
      <title>Layer 2</title>
      <g id="Graphic_3">
        <path d="M 99.52233 214.80006 L 99.859 219.17673 C 90.49401 237.6356 75.58206 252.41245 57.39091 261.26005 C 73.16811 265.41955 89.90148 261.06454 101.92709 249.6691 L 102.26376 254.52672 C 94.2619 271.1483 82.05916 285.1964 66.96186 295.16718 C 79.94725 299.14545 93.98526 296.25157 104.52423 287.42385 L 104.8128 291.56004 C 100.2952 305.81307 90.52382 317.6252 77.639 324.40908 C 85.51966 332.5299 97.90932 333.50802 106.8809 326.71765 C 105.81604 340.20893 97.57057 351.94573 85.52662 357.11383 C 93.52381 359.0339 101.92249 357.79983 109.09328 353.65097 L 113.08518 411.75 L 117.07708 353.65097 C 124.24787 357.79983 132.64655 359.0339 140.64374 357.11383 C 128.59979 351.94573 120.35432 340.20893 119.28946 326.71765 C 128.26104 333.50802 140.6507 332.5299 148.53136 324.40908 C 135.64654 317.6252 125.87516 305.81307 121.35756 291.56004 L 121.64613 287.42385 C 132.1851 296.25157 146.2231 299.14545 159.2085 295.16718 C 144.1112 285.1964 131.90846 271.1483 123.9066 254.52672 L 124.24327 249.6691 C 136.26888 261.06454 153.00225 265.41955 168.77945 261.26005 C 150.5883 252.41245 135.67635 237.6356 126.31137 219.17673 L 126.64803 214.80006 C 140.60057 226.73797 159.3967 230.58756 176.66706 225.04435 C 153.17858 221.57833 134.2134 203.36027 129.0528 179.3058 L 129.53375 172.62055 C 151.64655 165.19902 166.6264 143.80755 166.61516 119.66771 C 165.98585 89.42526 142.20497 65.25 113.08518 65.25 C 83.96539 65.25 60.18451 89.42526 59.5552 119.66771 C 59.543954 143.80755 74.52381 165.19902 96.63661 172.62055 L 97.11757 179.3058 C 91.95695 203.36027 72.99178 221.57833 49.503297 225.04435 C 66.773666 230.58756 85.56979 226.73797 99.52233 214.80006 Z M 131.76326 100.57192 C 142.07893 110.88754 142.07893 127.61246 131.76326 137.92808 C 121.44764 148.24375 104.72272 148.24375 94.4071 137.92808 C 84.09143 127.61246 84.09143 110.88754 94.4071 100.57192 C 104.72272 90.25625 121.44764 90.25625 131.76326 100.57192" fill="#FFFFFF"/>
        <path d="M 99.52233 214.80006 L 99.859 219.17673 C 90.49401 237.6356 75.58206 252.41245 57.39091 261.26005 C 73.16811 265.41955 89.90148 261.06454 101.92709 249.6691 L 102.26376 254.52672 C 94.2619 271.1483 82.05916 285.1964 66.96186 295.16718 C 79.94725 299.14545 93.98526 296.25157 104.52423 287.42385 L 104.8128 291.56004 C 100.2952 305.81307 90.52382 317.6252 77.639 324.40908 C 85.51966 332.5299 97.90932 333.50802 106.8809 326.71765 C 105.81604 340.20893 97.57057 351.94573 85.52662 357.11383 C 93.52381 359.0339 101.92249 357.79983 109.09328 353.65097 L 113.08518 411.75 L 117.07708 353.65097 C 124.24787 357.79983 132.64655 359.0339 140.64374 357.11383 C 128.59979 351.94573 120.35432 340.20893 119.28946 326.71765 C 128.26104 333.50802 140.6507 332.5299 148.53136 324.40908 C 135.64654 317.6252 125.87516 305.81307 121.35756 291.56004 L 121.64613 287.42385 C 132.1851 296.25157 146.2231 299.14545 159.2085 295.16718 C 144.1112 285.1964 131.90846 271.1483 123.9066 254.52672 L 124.24327 249.6691 C 136.26888 261.06454 153.00225 265.41955 168.77945 261.26005 C 150.5883 252.41245 135.67635 237.6356 126.31137 219.17673 L 126.64803 214.80006 C 140.60057 226.73797 159.3967 230.58756 176.66706 225.04435 C 153.17858 221.57833 134.2134 203.36027 129.0528 179.3058 L 129.53375 172.62055 C 151.64655 165.19902 166.6264 143.80755 166.61516 119.66771 C 165.98585 89.42526 142.20497 65.25 113.08518 65.25 C 83.96539 65.25 60.18451 89.42526 59.5552 119.66771 C 59.543954 143.80755 74.52381 165.19902 96.63661 172.62055 L 97.11757 179.3058 C 91.95695 203.36027 72.99178 221.57833 49.503297 225.04435 C 66.773666 230.58756 85.56979 226.73797 99.52233 214.80006 Z M 131.76326 100.57192 C 142.07893 110.88754 142.07893 127.61246 131.76326 137.92808 C 121.44764 148.24375 104.72272 148.24375 94.4071 137.92808 C 84.09143 127.61246 84.09143 110.88754 94.4071 100.57192 C 104.72272 90.25625 121.44764 90.25625 131.76326 100.57192" stroke="black" stroke-linecap="butt" stroke-linejoin="round" stroke-width="2"/>
      </g>
    </g>
  </g>
</svg>
