<?xml version="1.0" encoding="UTF-8" standalone="no"?>
<!DOCTYPE svg PUBLIC "-//W3C//DTD SVG 1.1//EN" "http://www.w3.org/Graphics/SVG/1.1/DTD/svg11.dtd">
<svg xmlns:xl="http://www.w3.org/1999/xlink" xmlns="http://www.w3.org/2000/svg" xmlns:dc="http://purl.org/dc/elements/1.1/" version="1.1" viewBox="85.5 62 193.5 352" width="193.5" height="352">
  <defs>
    <clipPath id="artboard_clip_path">
      <path d="M 85.5 62 L 279 62 L 279 414 L 85.5 414 Z"/>
    </clipPath>
  </defs>
  <g id="Ermine_Spot_(4)" stroke-opacity="1" stroke="none" stroke-dasharray="none" fill="none" fill-opacity="1">
    <title>Ermine Spot (4)</title>
    <g id="Ermine_Spot_(4)_Layer_2" clip-path="url(#artboard_clip_path)">
      <title>Layer 2</title>
      <g id="Group_3">
        <g id="Group_4">
          <title>shape1-1</title>
          <g id="Graphic_5">
            <path d="M 167.71068 118.21559 C 164.61764 124.93576 166.53315 132.90009 172.34371 137.47884 C 178.15428 142.0576 186.34572 142.0576 192.15629 137.47884 C 197.96685 132.90009 199.88236 124.93576 196.78932 118.21559 L 182.22556 64.75 Z M 220.88304 179.4029 L 274.34862 164.88801 L 220.88304 150.37313 C 214.16102 147.24955 206.17374 149.1501 201.57896 154.96649 C 196.98418 160.78287 196.98418 168.99315 201.57896 174.80953 C 206.17374 180.62592 214.16102 182.52647 220.88304 179.4029 Z M 143.61696 179.4029 C 150.33898 182.52647 158.32626 180.62592 162.92104 174.80953 C 167.51582 168.99315 167.51582 160.78287 162.92104 154.96649 C 158.32626 149.1501 150.33898 147.24955 143.61696 150.37313 L 90.15138 164.88801 Z M 182.81202 175.63977 L 132.62084 385.34803 L 161.94383 358.27313 L 162.53029 411.25 L 182.22556 365.4084 L 201.9697 411.25 L 202.55617 358.27313 L 231.8303 385.34803 Z" fill="#FFFFFF"/>
            <path d="M 167.71068 118.21559 C 164.61764 124.93576 166.53315 132.90009 172.34371 137.47884 C 178.15428 142.0576 186.34572 142.0576 192.15629 137.47884 C 197.96685 132.90009 199.88236 124.93576 196.78932 118.21559 L 182.22556 64.75 Z M 220.88304 179.4029 L 274.34862 164.88801 L 220.88304 150.37313 C 214.16102 147.24955 206.17374 149.1501 201.57896 154.96649 C 196.98418 160.78287 196.98418 168.99315 201.57896 174.80953 C 206.17374 180.62592 214.16102 182.52647 220.88304 179.4029 Z M 143.61696 179.4029 C 150.33898 182.52647 158.32626 180.62592 162.92104 174.80953 C 167.51582 168.99315 167.51582 160.78287 162.92104 154.96649 C 158.32626 149.1501 150.33898 147.24955 143.61696 150.37313 L 90.15138 164.88801 Z M 182.81202 175.63977 L 132.62084 385.34803 L 161.94383 358.27313 L 162.53029 411.25 L 182.22556 365.4084 L 201.9697 411.25 L 202.55617 358.27313 L 231.8303 385.34803 Z" stroke="black" stroke-linecap="butt" stroke-linejoin="round" stroke-width="2"/>
          </g>
        </g>
      </g>
    </g>
  </g>
</svg>
