<?xml version="1.0" encoding="UTF-8" standalone="no"?>
<!DOCTYPE svg PUBLIC "-//W3C//DTD SVG 1.1//EN" "http://www.w3.org/Graphics/SVG/1.1/DTD/svg11.dtd">
<svg xmlns:xl="http://www.w3.org/1999/xlink" xmlns="http://www.w3.org/2000/svg" xmlns:dc="http://purl.org/dc/elements/1.1/" version="1.1" viewBox="33.75 60.75 297 297" width="297" height="297">
  <defs>
    <clipPath id="artboard_clip_path">
      <path d="M 33.75 60.75 L 330.75 60.75 L 330.75 346.5 L 313.875 357.75 L 33.75 357.75 Z"/>
    </clipPath>
  </defs>
  <g id="Escarbuncle_(7)" stroke-opacity="1" stroke="none" stroke-dasharray="none" fill="none" fill-opacity="1">
    <title>Escarbuncle (7)</title>
    <g id="Escarbuncle_(7)_Art" clip-path="url(#artboard_clip_path)">
      <title>Art</title>
      <g id="Group_167">
        <g id="Graphic_165">
          <path d="M 288.968 103.07467 C 288.16592 102.72591 286.27776 102.99489 284.7159 103.61012 C 280.9346 105.09962 280.00048 104.89783 276.60537 101.58227 C 274.5155 99.65172 272.4854 98.83712 269.3368 98.55805 C 263.909 98.03731 261.49275 98.89414 260.14755 101.98788 C 259.3504 103.82122 259.45997 104.82259 260.7627 106.68337 C 261.67436 108.0335 262.8127 109.95904 263.266 111.10988 C 264.09297 112.96816 263.91112 113.22971 260.2942 114.65445 C 255.77305 116.43538 254.51506 118.5452 255.27968 122.89693 C 255.8849 126.36188 255.78525 126.59105 239.90496 141.9624 C 219.6878 161.511 219.25933 161.86968 214.1005 163.2371 C 209.5993 164.34546 209.02138 165.0479 208.58784 169.49177 C 208.24151 172.95172 206.19888 174.516 205.19509 171.9677 C 204.28843 169.66603 197.77463 166.62938 194.14778 166.82359 C 192.39165 166.9456 190.7526 166.64166 190.5907 166.23065 C 190.4288 165.81964 191.87356 165.63036 193.80904 165.72257 L 197.35118 166.03652 L 198.46722 162.84313 C 199.41634 160.19028 199.242 159.0245 197.87702 156.52354 C 196.85328 154.64781 195.35126 153.24536 193.9912 152.92648 C 192.43435 152.59016 191.45543 151.5514 190.64592 149.49634 C 189.41546 146.37264 188.60618 134.91666 188.83066 123.43332 C 188.9005 119.51254 188.82088 115.93551 188.6266 115.44229 C 187.84946 113.46943 189.34437 100.63103 190.43294 99.53752 C 191.07563 98.99949 192.62254 98.10527 193.85558 97.61956 C 197.14369 96.32434 198.2124 92.76976 196.561 88.57742 C 195.26578 85.28931 195.3156 85.17473 198.57633 82.84576 C 201.70504 80.66375 201.8545 80.32 201.06494 77.59237 C 200.0487 74.28933 198.08585 73.16336 192.49365 72.707375 C 189.54186 72.44575 188.954 71.91765 186.90652 68.166204 C 184.01465 62.75326 181.91977 61.77426 179.06755 64.417104 C 177.97897 65.51061 176.14556 67.84709 175.08685 69.498575 C 173.36553 72.36065 172.65808 72.73428 167.44943 74.21627 C 162.15858 75.73065 161.69775 76.00713 160.50202 78.75713 C 159.05717 82.08004 159.909 85.44785 162.4149 86.26495 C 163.61054 86.64859 164.53714 88.2777 165.99176 92.4526 C 167.62573 96.84172 168.48756 98.30643 170.1241 99.08615 C 171.22012 99.69895 172.52535 101.08396 172.9463 102.1526 C 173.7882 104.28987 174.09182 115.18536 173.37436 117.46208 C 173.15763 118.1172 173.16005 120.77506 173.3767 123.25358 C 173.77513 128.60419 174.55187 146.24523 174.56422 150.13362 C 174.55672 151.56095 174.12325 152.87119 173.54784 153.09785 C 172.89021 153.3569 172.08062 154.43546 171.55002 155.49909 C 170.93471 157.07087 171.22363 158.28647 173.15653 161.9881 C 175.1218 165.77192 175.34597 166.82312 174.43924 167.65508 C 173.87876 168.16073 172.82756 168.38489 172.02548 168.03613 C 170.42132 167.33862 163.81272 169.84686 163.60843 171.25674 C 163.37175 172.58442 160.33025 173.7825 159.9093 172.71387 C 159.7474 172.30285 160.1958 171.2716 160.90575 170.4222 C 161.87975 169.27887 161.86981 168.04833 160.96316 165.74666 C 159.53842 162.12974 157.29657 161.01871 152.7655 161.5691 C 149.87596 161.94766 149.2059 161.45194 142.69469 154.80588 C 138.76155 150.84764 134.22562 146.0823 132.49694 144.10443 C 130.71844 142.24115 126.08537 137.2292 122.08747 133.10656 C 118.17177 128.95153 114.94358 125.09543 114.88132 124.45525 C 114.90126 123.78269 115.61371 122.45752 116.53789 121.42877 C 119.11362 118.32509 117.84336 113.41287 113.54652 109.97772 C 111.68332 108.62259 111.39189 107.88277 111.76059 106.40813 C 112.51543 103.26205 112.40586 102.26068 111.07075 100.3177 C 109.16522 97.64982 104.05872 98.42688 99.41298 102.06108 C 94.76724 105.69528 95.40742 105.63303 89.9373 103.79954 C 86.77629 102.76571 84.72623 102.62367 83.31134 103.37093 C 81.27122 104.45943 81.1815 105.91913 82.67586 115.01618 C 82.92989 116.62535 82.15018 118.26189 80.11999 120.58093 C 78.05741 122.81777 77.14567 124.60127 77.28262 126.6364 C 77.57389 133.6435 80.75977 136.18685 86.67586 134.33123 C 90.06111 133.28261 90.73367 133.30256 91.59551 134.76727 C 93.31919 137.69669 97.81038 138.49142 101.87319 136.5112 C 104.35672 135.343 105.6869 135.1039 106.5363 135.81385 C 108.61123 137.46541 115.384 144.29332 121.94254 151.30057 C 125.41734 155.05953 130.86743 160.6992 133.96861 163.75072 C 140.30048 170.18255 141.00042 171.23625 139.9691 173.92148 C 139.03741 176.37755 140.17565 181.43673 141.85952 182.57764 C 142.52958 183.07336 144.79387 183.03605 146.86387 182.50553 C 151.28287 181.42954 152.97917 183.3252 149.19535 185.29048 C 145.98694 187.0291 143.26416 193.13439 144.42986 196.09368 C 144.91556 197.32673 145.0077 198.52488 144.51448 198.71917 C 144.10347 198.88107 142.98009 197.2345 142.10581 195.01504 C 140.8106 191.72693 140.06084 190.78782 138.19262 190.38423 C 135.04655 189.6294 133.43488 190.3592 131.66373 193.33587 C 129.97478 196.28015 127.95209 197.17186 124.13096 196.87285 C 122.63887 196.70094 119.02946 196.69835 116.2072 196.76554 C 102.62146 196.98939 78.63595 196.8468 77.75167 196.53043 C 77.17875 196.28131 76.08775 194.71696 75.24335 193.05547 C 74.48116 191.3616 73.751345 189.74992 73.572 189.53569 C 72.71016 188.07098 66.39057 188.66118 63.050135 190.54676 C 59.87411 192.36757 59.430714 192.44727 58.96245 191.01745 C 58.60626 190.11322 58.384605 188.58625 58.35723 187.5525 C 58.40463 184.78005 55.59738 181.9926 52.760174 181.7808 C 46.67475 181.51909 42.51722 185.91056 43.025216 192.26253 C 43.336506 195.46343 42.888107 196.49468 39.71951 200.0218 C 35.016436 205.19792 34.78719 208.2319 39.071586 210.9123 C 41.933663 212.63362 42.030804 212.88023 41.557454 215.5356 C 41.029276 219.25708 43.08669 224.23906 46.17543 226.5358 C 49.5581 229.0966 55.84031 229.37576 58.57544 227.15886 C 60.42129 225.57715 60.42379 225.10137 58.80477 220.99124 C 57.2505 217.0455 57.30283 216.45515 58.685335 215.6257 C 60.01802 214.91082 60.8201 215.25958 62.33706 216.94102 C 66.935246 222.34653 72.77907 221.75382 75.19048 215.58127 C 76.76985 211.63562 78.89218 210.51474 83.58016 211.3269 C 85.44837 211.7305 89.84492 211.80284 93.50416 211.69084 C 97.0488 211.52902 104.3 211.61638 109.51608 211.8407 C 114.76454 212.14722 121.21116 212.3616 123.75443 212.30936 C 127.83962 212.31444 128.83849 212.68064 130.81127 215.03714 C 132.06668 216.53673 133.74804 218.15341 134.46792 218.53455 C 136.05465 219.42885 139.29293 218.2482 141.1089 216.10851 C 142.26474 214.70364 142.46153 214.72108 142.4864 216.2306 C 142.50126 219.64323 144.30956 225.19813 145.74682 226.43618 C 147.70717 228.03792 147.34097 229.03678 144.7155 229.1214 C 140.97406 229.2658 138.33606 231.7293 138.48295 234.99495 C 138.57258 236.66888 138.36578 238.55454 138.01703 239.35662 C 137.7181 240.04412 133.00258 244.46547 127.59707 249.06366 C 122.19156 253.66184 114.6911 260.41467 110.94708 264.16846 C 100.73885 274.17192 100.65665 274.2043 96.2651 273.1804 C 91.28319 272.1042 89.6217 272.94858 87.57899 277.6465 C 85.1377 283.26107 82.92073 283.65957 79.85944 279.26293 C 77.53047 276.0022 77.49809 275.92 73.70183 277.1305 C 67.78574 278.98613 66.62239 281.81833 69.068366 287.78675 C 70.34865 290.79587 71.651375 292.65665 73.05875 293.33672 C 75.03905 294.2659 76.07022 297.84794 74.59057 298.4308 C 73.76854 298.7546 73.9378 304.00555 74.87683 306.38943 C 75.78349 308.6911 78.66551 309.73987 82.55641 309.25174 C 85.16695 308.88813 86.116 309.3689 88.08878 311.7254 C 93.28976 317.938 100.40894 318.17234 106.01875 312.16427 C 108.74145 309.1926 108.36289 306.3031 104.97021 305.6454 C 103.64253 305.4087 102.58141 304.40233 101.99856 302.9227 C 100.80048 299.8812 101.75954 298.45887 104.2156 299.39055 C 105.24685 299.83895 107.18233 299.93116 108.5449 299.77427 C 111.79562 299.3484 113.95291 294.7003 112.52817 291.0834 C 111.20057 287.71308 111.57678 284.8111 113.54964 284.03398 C 114.37167 283.71017 116.92746 281.27905 119.2217 278.6661 C 121.48357 275.97092 126.58021 270.8297 130.60322 267.06096 C 141.2374 257.17458 145.83833 252.7034 146.1547 251.81913 C 146.90203 250.10038 150.29972 249.80653 152.27751 251.2115 C 157.01774 254.56694 163.12076 248.36458 160.82174 242.5282 C 159.62366 239.4867 161.77838 238.44802 163.56931 241.06607 C 164.26925 242.11976 165.31043 243.7987 165.97799 244.7702 C 166.7103 245.9061 168.42905 246.65342 170.5937 246.84528 C 173.48072 246.9425 174.00382 247.3062 173.57035 248.61643 C 173.33618 249.46834 172.62624 250.31774 172.05082 250.5444 C 168.5983 251.90438 169.80624 259.31006 173.7195 260.80723 C 176.71611 261.90582 177.2317 263.69683 176.63868 270.38755 C 176.40943 273.42154 176.39684 278.93405 176.55867 282.4787 C 176.75287 286.10555 176.8299 293.292 176.72018 298.5579 C 176.61044 303.8238 176.54803 309.45088 176.55546 311.1572 C 176.51056 313.45386 175.79811 314.77904 173.57363 316.60486 C 171.13493 318.61003 170.62177 319.47687 171.10247 321.66146 C 171.40633 323.15605 172.49233 325.67195 173.50113 327.2687 C 176.48021 331.6977 174.60199 333.1972 168.27746 331.60533 C 164.2471 330.5341 161.42727 333.25916 162.80219 336.99066 C 165.04888 343.4174 167.92339 345.8935 172.55161 345.5897 C 176.73644 345.36563 177.83245 345.97844 179.32195 349.75976 C 181.32954 354.85633 184.78198 356.63 189.30313 354.84906 C 191.6048 353.9424 193.351 352.58985 194.3275 350.97075 C 195.5033 348.8933 196.58937 348.2756 200.7792 347.09995 C 205.05124 345.89194 206.05511 345.3066 207.759 342.6413 C 209.89134 339.6173 210.27506 335.28803 208.72572 333.5244 C 208.22007 332.9639 206.6134 332.74217 205.16864 332.93144 C 200.9813 333.6313 200.0074 331.641 202.35897 327.48612 C 205.04186 322.72595 205.00705 319.9859 202.21474 317.4774 C 201.03903 316.4212 199.0438 315.21305 197.89797 314.71483 C 193.34702 312.80414 191.332 306.00126 191.38714 292.4006 C 191.64188 265.80704 191.95083 263.21645 195.45817 260.79033 C 199.80498 257.84363 199.20477 253.42713 193.74716 249.21477 C 189.33575 245.7298 190.45921 244.24272 196.88588 245.12967 L 201.93505 245.89452 L 202.91656 243.32387 C 203.43222 241.98125 204.42366 240.64113 205.08128 240.3821 C 207.05415 239.60496 207.64442 242.79092 206.0078 245.14484 C 204.10713 247.7927 204.76968 249.71573 208.6605 252.36123 C 210.78525 253.8982 212.4243 254.20215 214.6089 253.72145 C 218.00908 252.95183 221.459 255.20126 226.85428 261.90707 C 228.53314 263.99953 231.5023 267.198 233.41281 268.91432 C 235.24114 270.66303 238.76577 274.3074 241.14706 276.97777 C 243.56074 279.73035 246.97078 283.3249 248.7991 285.0736 C 252.25897 288.55357 252.61265 289.93358 250.54007 294.0735 C 248.7988 297.60815 251.03805 302.3286 255.2627 303.893 C 257.80097 304.7923 258.4212 305.40262 258.11976 306.5659 C 257.8532 307.3356 256.73225 308.3469 255.74582 308.73547 C 253.27974 309.70688 252.49502 312.29498 254.12406 314.502 C 254.97096 315.68773 256.8865 316.4525 259.6913 316.5821 C 264.2996 316.9509 267.224 316.17876 271.47117 313.46122 C 273.82517 311.9642 274.66214 311.9194 277.18297 313.0155 C 282.79754 315.45677 287.3337 310.8212 285.7272 304.3322 C 285.0049 301.2932 285.2565 300.2445 287.43617 297.5817 C 291.4318 292.77923 290.81172 285.90166 286.1985 283.3508 L 283.77733 282.02554 L 281.15177 285.2438 C 279.76426 287.0248 278.10026 288.34498 277.5921 288.26027 C 277.08395 288.17557 276.20717 286.43187 275.67665 284.36186 C 274.9394 281.04388 274.58072 280.61542 272.85696 280.81964 C 271.6912 280.99398 270.70976 280.431 270.2888 279.36236 C 269.70597 277.8827 269.1156 277.8304 265.9919 279.06084 L 262.375 280.4856 L 257.2512 275.19215 C 254.3792 272.2403 249.37 266.99668 246.0571 263.64874 C 229.657 246.84427 225.01148 241.07757 227.31316 240.1709 C 228.7928 239.58806 230.16045 235.34598 229.44808 233.53752 C 229.0919 232.6333 227.60732 231.03406 226.1028 230.10738 C 223.89584 228.60278 222.9443 228.59778 219.8206 229.82823 C 217.84773 230.60537 216.07415 230.92417 215.87987 230.43095 C 215.71797 230.01994 216.5425 229.22036 217.85774 228.70227 C 220.48822 227.6661 222.3142 223.6233 221.72643 219.96157 C 220.93193 215.05185 220.98175 214.93727 223.09658 215.2437 C 224.1951 215.38074 225.82913 216.63623 226.77317 218.06856 C 229.55547 222.48013 230.67143 222.42037 238.80456 217.03262 C 241.455 215.32388 245.44304 215.08236 264.1452 215.312 C 270.64164 215.4118 278.69743 215.37214 282.02785 215.38966 C 289.49328 215.29768 290.77113 215.64894 291.90445 218.52604 C 292.39016 219.75908 294.0217 221.49034 295.41163 222.3672 C 297.71824 223.64263 298.473 223.6302 301.2704 222.05348 C 309.15192 217.7144 308.23275 217.7916 309.66993 222.1633 C 310.736 225.35175 311.33878 226.15884 312.91306 226.29838 C 317.89747 226.89882 323.1436 221.41385 322.66296 216.09562 C 322.3965 213.7317 322.95947 212.75026 325.18395 210.92444 C 329.8297 207.29024 329.63556 200.52975 324.76824 199.50335 C 321.76913 198.88053 320.89236 197.13684 321.291 193.08653 C 321.85908 188.01992 319.95356 185.35205 315.5097 184.91851 C 311.65617 184.5373 309.3171 186.3133 308.2957 190.22907 C 307.32414 194.03026 306.5345 194.43627 303.03224 192.7772 C 298.1226 190.43806 292.41824 192.5901 292.1815 197.05142 C 291.98462 200.16762 290.42277 200.78285 282.31967 200.4613 C 278.67787 200.37653 270.07905 200.72505 263.28368 201.31274 C 256.45593 201.81824 248.47985 202.30129 245.59282 202.20407 C 240.4415 202.14415 240.32692 202.09433 238.31182 198.4251 C 235.94053 193.85162 233.71363 193.01958 228.78147 194.9624 C 225.24675 196.35477 225.24675 196.35477 224.11344 193.47767 C 223.46583 191.83362 221.96881 189.47962 220.69596 188.17681 C 217.85633 185.30715 218.33711 184.3581 222.15575 185.1329 C 223.7126 185.4692 225.79754 185.21767 226.85123 184.51774 C 228.9088 183.23245 230.0921 179.7277 229.2502 177.59042 C 228.95878 176.8506 229.19546 175.52292 229.72606 174.45929 C 231.10114 171.92352 240.70157 162.06452 256.7612 146.90739 L 265.8136 138.3088 L 269.20377 139.44228 C 271.05454 140.04265 273.4309 140.53093 274.43228 140.42136 C 276.7464 140.26947 279.33957 136.969 279.14036 134.2937 C 278.9586 131.42161 282.8196 130.3755 286.8624 132.20148 C 291.4781 134.27657 295.09503 132.85183 296.61214 128.266 C 298.2613 123.5332 296.5426 119.65224 292.0415 117.62697 C 290.20816 116.82981 288.47447 115.80349 288.31257 115.39248 C 288.1183 114.89926 288.8183 112.81932 289.7973 110.72444 C 291.65566 106.76385 291.37425 104.12093 288.968 103.07467 Z" fill="black"/>
        </g>
        <g id="Graphic_164">
          <path d="M 290.9278 126.61185 C 290.00613 127.16483 288.47916 127.38648 287.4803 127.02029 C 286.5138 126.73629 284.0378 126.47717 281.8881 126.5643 C 275.9322 126.6314 275.99202 124.61373 281.9106 122.28233 C 286.13533 120.71313 287.0545 120.63593 289.67247 121.97863 C 293.01032 123.70246 293.42877 125.24687 290.9278 126.61185 Z" fill="#FFFFFF"/>
        </g>
        <g id="Graphic_163">
          <path d="M 322.86 206.71216 C 321.6568 207.75584 309.9742 207.9897 308.63407 206.99826 C 306.1008 205.1474 310.8835 203.54833 321.0591 202.86357 C 323.09423 202.72662 324.3272 205.37455 322.86 206.71216 Z" fill="#FFFFFF"/>
        </g>
        <g id="Graphic_162">
          <path d="M 284.2474 111.5812 C 282.52357 114.91905 279.14325 118.14975 276.10175 119.34783 C 274.2933 120.0602 273.09514 120.15233 273.03288 119.51215 C 272.91087 117.75602 281.27826 108.38272 282.98457 108.37529 C 285.05207 108.32054 285.35843 109.33936 284.2474 111.5812 Z" fill="#FFFFFF"/>
        </g>
        <g id="Graphic_161">
          <path d="M 317.05136 194.37675 C 316.8944 196.14782 315.9179 197.76693 314.40335 198.74335 C 310.8138 201.20184 309.45875 199.93141 310.92604 195.46017 C 312.27625 191.41487 313.9602 189.42214 315.68144 189.6937 C 317.09132 189.898 317.43007 190.999 317.05136 194.37675 Z" fill="#FFFFFF"/>
        </g>
        <g id="Graphic_160">
          <path d="M 273.57115 110.75393 C 271.5509 114.3035 269.62784 114.96605 269.51083 112.25837 C 269.31162 109.58307 268.40497 107.2814 266.79087 105.35335 C 264.8181 102.99684 267.2543 101.46745 270.6918 102.96212 C 274.35845 104.55643 275.44194 107.5481 273.57115 110.75393 Z" fill="#FFFFFF"/>
        </g>
        <g id="Graphic_159">
          <path d="M 316.4305 218.83553 C 315.11525 219.35362 312.33788 217.12413 309.4385 213.13851 C 308.52684 211.7884 310.64666 211.14328 313.46392 212.02764 C 315.70827 212.6629 316.50785 213.48743 317.15296 215.60726 C 317.70092 217.48048 317.49913 218.41458 316.4305 218.83553 Z" fill="#FFFFFF"/>
        </g>
        <g id="Graphic_158">
          <path d="M 302.78782 204.9331 C 303.21604 213.97532 302.663 216.1873 299.9503 217.25584 C 296.8266 218.4863 295.99965 216.62802 296.43076 209.5263 C 296.6102 206.60688 296.56294 203.11205 296.25908 201.61747 C 295.7037 198.03793 296.73 196.30425 299.3206 196.6132 C 301.87882 196.83993 302.49405 198.40179 302.78782 204.9331 Z" fill="#FFFFFF"/>
        </g>
        <g id="Graphic_157">
          <path d="M 274.35274 133.7107 C 274.10112 134.75938 273.2766 135.55896 272.40725 135.52158 C 270.81552 135.57883 261.8782 125.42543 260.58296 122.13732 C 259.8382 120.24666 260.06988 119.87053 261.97548 119.40476 C 264.4565 118.71234 264.75043 118.97639 269.84183 124.18762 C 273.69277 128.17824 275.02287 131.07278 274.35274 133.7107 Z" fill="#FFFFFF"/>
        </g>
        <g id="Graphic_156">
          <path d="M 262.5505 134.84628 C 262.16937 135.56616 258.3606 139.15554 254.09098 143.02142 C 249.90357 146.8549 241.84012 154.58916 236.183 160.23603 C 230.60808 165.85053 225.2997 170.69533 224.55988 170.98675 C 223.73786 171.31056 223.19231 172.0952 223.41898 172.67062 C 223.53106 173.19621 223.85236 174.49402 224.12634 175.43063 C 224.40033 176.36724 224.8686 177.79706 225.1102 178.65147 C 225.64072 180.72148 223.3241 181.34914 220.67375 179.92424 C 218.59631 178.74845 218.23512 178.79577 216.10779 180.8682 C 209.26494 187.36198 206.02665 188.54262 204.66667 185.0901 C 204.01906 183.44605 204.43508 182.3326 206.46528 180.01356 C 207.83535 178.42934 209.7634 176.81524 210.66763 176.45906 C 212.8871 175.58478 214.01807 172.67038 213.04666 170.2043 C 212.43143 168.64245 212.68054 168.06953 214.2424 167.4543 C 215.31102 167.03336 216.60632 167.18783 217.19418 167.71593 C 217.69983 168.27641 218.5019 168.62517 219.07733 168.3985 C 220.55698 167.81565 253.61787 136.27587 256.42528 132.79606 C 257.9448 130.86809 260.55786 130.0287 261.53678 131.06746 C 262.9566 132.50229 263.21314 133.63568 262.5505 134.84628 Z" fill="#FFFFFF"/>
        </g>
        <g id="Graphic_155">
          <path d="M 290.45992 209.3144 C 289.0799 209.6681 284.4193 209.88967 279.97294 209.9319 C 270.998 210.04875 255.04832 210.53908 244.05318 211.07187 C 237.04608 211.36313 236.71727 211.49266 234.44047 213.90884 C 231.66795 216.99507 230.48723 216.89042 229.28915 213.84892 C 228.15584 210.97183 226.9278 210.506 220.51106 210.84958 C 216.16183 211.13842 215.27755 210.82205 214.2538 208.94633 C 212.61233 205.98453 214.3087 204.74656 219.55717 205.05308 C 226.97027 205.55146 228.3179 205.11557 228.99053 202.00188 C 229.3443 200.24825 230.15389 199.16968 231.36948 198.88076 C 232.94627 198.54452 233.38717 198.9406 234.30626 201.99703 L 235.5342 205.5965 L 241.52 206.08738 C 244.78315 206.41627 251.165 206.46625 255.54662 206.2596 C 278.8347 204.87272 291.44893 205.31643 292.3232 207.5359 C 292.71177 208.52234 292.2335 208.9956 290.45992 209.3144 Z" fill="#FFFFFF"/>
        </g>
        <g id="Graphic_154">
          <path d="M 285.21435 292.6645 C 283.5229 296.08454 280.69062 298.05483 278.7427 297.20785 C 276.64783 296.22885 276.1123 295.1104 277.34784 294.1489 C 277.7763 293.79022 279.4403 292.47005 280.89007 291.32922 C 284.74616 288.10103 287.13747 288.8683 285.21435 292.6645 Z" fill="#FFFFFF"/>
        </g>
        <g id="Graphic_153">
          <path d="M 194.70545 79.5277 C 194.39158 79.93621 192.58062 81.12435 190.57287 82.29506 C 187.47905 84.08349 186.78904 84.26033 186.33572 83.1095 C 185.5262 81.05443 188.4482 77.62444 191.58433 77.148745 C 194.0803 76.73531 195.74671 78.073 194.70545 79.5277 Z" fill="#FFFFFF"/>
        </g>
        <g id="Graphic_152">
          <path d="M 280.02776 308.66633 C 278.0549 309.44346 276.69734 308.6488 273.11045 304.36426 C 266.80103 296.7841 268.211 293.85475 275.3325 299.88057 C 280.4613 304.22245 282.41164 307.7273 280.02776 308.66633 Z" fill="#FFFFFF"/>
        </g>
        <g id="Graphic_151">
          <path d="M 267.96446 290.81825 C 262.56888 296.64698 260.21237 298.61976 257.94558 299.13285 C 255.10337 299.8726 253.76083 296.2233 256.03764 293.8071 C 261.97876 287.19375 265.47366 284.01287 267.36432 283.26812 C 269.255 282.52337 269.71332 282.72266 270.49045 284.69552 C 271.26758 286.6684 270.869 287.58505 267.96446 290.81825 Z" fill="#FFFFFF"/>
        </g>
        <g id="Graphic_150">
          <path d="M 191.7284 93.42472 C 191.16792 93.93037 189.06553 94.37869 187.13006 94.28648 C 185.22696 94.27647 181.09195 94.38597 178.05546 94.6325 C 172.90164 95.04836 172.4433 94.84907 171.22528 92.48013 C 170.00726 90.11119 170.1069 89.88203 172.40858 88.97537 C 174.79246 88.03634 181.0124 87.6753 188.11414 88.10642 C 190.361 88.2659 191.42462 88.7965 192.03985 90.35835 C 192.4608 91.42698 192.3387 92.80449 191.7284 93.42472 Z" fill="#FFFFFF"/>
        </g>
        <g id="Graphic_149">
          <path d="M 183.00295 77.30048 C 181.90678 82.95494 179.9663 83.81428 178.25013 79.45754 C 177.08443 76.49824 178.9927 69.28943 181.12996 68.44754 C 183.10283 67.67041 184.09661 72.12179 183.00295 77.30048 Z" fill="#FFFFFF"/>
        </g>
        <g id="Graphic_148">
          <path d="M 267.94412 307.159 C 267.97892 309.89905 266.04587 312.4647 263.97837 312.51945 C 261.99307 312.5418 261.46004 310.9476 262.6707 308.47658 C 263.25114 307.29837 263.57252 305.46253 263.3658 304.21455 C 263.11426 302.1296 264.3847 300.77455 266.02123 301.55427 C 267.1347 301.9703 267.99152 304.38655 267.94412 307.159 Z" fill="#FFFFFF"/>
        </g>
        <g id="Graphic_147">
          <path d="M 258.60352 286.33926 C 257.87613 287.38545 253.68637 285.42744 252.974 283.619 C 252.74734 283.04357 250.8393 280.85147 248.74944 278.92092 C 246.7094 276.8758 243.18477 273.2314 240.9006 270.80765 C 238.69866 268.3515 232.76036 261.95455 227.80098 256.59636 L 218.66436 246.9013 L 214.96774 247.88264 C 211.96112 248.68714 211.0594 248.56755 210.31214 247.15267 C 209.6944 246.0666 209.814 245.16486 210.7531 244.4151 C 212.89539 242.62166 212.10331 240.3698 207.79655 235.70412 C 203.3752 230.9886 202.66534 228.70438 205.53993 228.04684 C 206.83773 227.72553 208.11308 228.55257 210.0535 230.82687 C 215.23703 237.23625 215.58078 237.38572 219.79306 235.06175 C 223.0513 233.20856 223.57689 233.09648 224.09497 234.41172 C 224.41878 235.23375 224.0127 237.57774 223.1159 239.64023 C 221.70343 243.04535 221.7333 243.60332 223.36485 245.3346 C 230.86993 253.2984 236.2702 259.05266 245.29224 268.6979 C 250.9366 274.8308 256.02802 280.04203 256.5511 280.40573 C 258.0407 281.05342 259.4953 285.2283 258.60352 286.33926 Z" fill="#FFFFFF"/>
        </g>
        <g id="Graphic_146">
          <path d="M 184.2801 105.85446 C 183.6371 118.92703 184.54821 142.2126 186.03514 149.60334 C 187.00898 154.72728 187.04136 154.80948 190.44647 156.22194 C 196.37242 158.7305 195.60013 162.07335 189.17096 161.66218 C 184.98863 161.41049 184.75697 161.78662 184.61978 169.1524 C 184.5723 175.05848 183.72532 177.0064 181.38134 176.6003 C 180.05366 176.36363 179.86188 175.39464 179.54566 170.01166 C 179.35646 165.43326 178.79606 162.80527 177.54315 160.8299 C 176.01376 158.3937 175.98388 157.83573 177.35646 155.77573 C 179.571 152.71937 179.6582 151.73544 178.89891 133.89762 C 177.44007 99.33792 177.56216 97.96042 181.95621 98.50854 C 184.5468 98.81748 184.59413 99.17867 184.2801 105.85446 Z" fill="#FFFFFF"/>
        </g>
        <g id="Graphic_145">
          <path d="M 220.00823 197.27879 C 219.93846 198.06593 218.4887 199.20676 217.04142 199.8718 C 214.3113 201.13715 214.3113 201.13715 212.51042 197.28856 C 210.58003 193.11116 210.75695 190.66753 213.22303 189.69612 C 215.93572 188.62756 220.6983 193.9683 220.00823 197.27879 Z" fill="#FFFFFF"/>
        </g>
        <g id="Graphic_144">
          <path d="M 173.79867 83.58496 C 173.18587 84.68097 172.44604 84.97239 171.06854 84.8503 C 168.59253 84.59118 164.63694 81.78127 164.906 80.53579 C 165.2772 78.58537 169.72858 77.59159 171.78858 78.96416 C 174.33929 80.61823 174.79261 81.76907 173.79867 83.58496 Z" fill="#FFFFFF"/>
        </g>
        <g id="Graphic_143">
          <path d="M 201.65278 177.92103 C 200.70616 180.0981 199.14681 180.23756 194.59336 178.80265 C 190.2367 177.38519 188.41088 175.1607 189.50697 172.63988 C 190.55323 170.23363 193.11395 169.9846 197.12436 171.72837 C 201.13477 173.47215 202.69905 175.51478 201.65278 177.92103 Z" fill="#FFFFFF"/>
        </g>
        <g id="Graphic_142">
          <path d="M 217.0085 221.72505 C 216.17395 224.42773 212.91572 226.28093 210.62406 225.28448 C 208.79073 224.48733 208.7758 224.20834 210.23807 220.68864 C 211.89965 216.7106 213.9921 215.03175 215.47668 216.631 C 216.92887 218.14802 217.44446 219.93904 217.0085 221.72505 Z" fill="#FFFFFF"/>
        </g>
        <g id="Graphic_141">
          <path d="M 210.39779 209.04089 C 210.01892 218.6859 204.13755 226.41522 194.2234 230.41546 C 185.50992 233.8478 179.78319 234.01455 173.12243 230.84587 C 170.02868 229.50067 167.42815 227.9612 167.26625 227.55018 C 167.07196 227.05696 165.88132 225.72177 164.52626 224.45135 C 162.73032 222.78484 161.47991 220.3337 159.53959 214.92577 C 157.27796 208.22003 157.10362 207.05425 158.04782 202.2193 C 159.34577 195.63074 161.91158 191.29652 167.15268 186.7631 C 171.96533 182.58836 180.28274 179.59691 185.62834 180.15004 C 190.6302 180.5537 199.84417 184.90067 202.58415 187.9995 C 206.18848 192.08727 210.57228 203.9394 210.39779 209.04089 Z" fill="#FFFFFF"/>
        </g>
        <g id="Graphic_140">
          <path d="M 200.61754 237.48747 C 200.15663 240.8976 193.76977 241.79917 192.5393 238.67546 C 191.82694 236.867 193.54576 234.4807 196.42286 233.34738 C 199.54656 232.11692 201.04858 233.51938 200.61754 237.48747 Z" fill="#FFFFFF"/>
        </g>
        <g id="Graphic_139">
          <path d="M 174.23971 177.51432 C 172.6056 179.39246 167.42682 181.43243 166.34825 180.62284 C 165.00814 179.6314 166.3833 173.962 168.2117 172.57707 C 171.71904 170.15096 176.89765 174.37826 174.23971 177.51432 Z" fill="#FFFFFF"/>
        </g>
        <g id="Graphic_138">
          <path d="M 187.34552 243.57008 C 186.74007 249.50604 187.29054 250.90348 190.44905 252.4131 C 193.72214 253.97252 193.75944 256.2368 190.55354 257.49964 C 188.41627 258.34154 187.9853 259.176 187.38486 264.1604 C 187.0236 267.34136 186.78426 275.4121 186.81398 282.23733 C 186.81132 288.98038 186.80115 297.15075 186.63667 300.34914 C 186.55439 303.51516 186.76103 307.89677 186.99512 310.1785 C 187.48576 313.59363 187.2192 314.36333 185.49295 315.04332 C 183.7667 315.7233 183.39056 315.49165 182.43659 312.82878 C 181.87118 311.15234 181.43787 306.1953 181.59243 301.76638 C 181.74698 297.33744 181.54292 289.34642 181.3089 283.93105 C 180.99268 278.54807 180.93559 270.68907 181.1549 266.42454 L 181.55614 258.76483 L 178.24816 257.59897 C 176.3974 256.9986 174.72847 256.1367 174.5018 255.56127 C 173.91895 254.08162 176.36016 251.60068 178.77392 251.21962 C 181.41684 250.9382 181.99977 249.28422 181.73838 242.8351 C 181.50186 237.89551 182.44598 236.1942 185.46503 236.14446 C 187.36813 236.15448 187.9161 238.0277 187.34552 243.57008 Z" fill="#FFFFFF"/>
        </g>
        <g id="Graphic_137">
          <path d="M 155.9836 170.46193 L 154.67579 172.68633 L 158.91529 177.6634 C 163.23699 182.60807 164.19096 185.27093 161.97149 186.1452 C 160.49184 186.72805 158.44929 185.1587 154.75032 180.34855 C 152.04522 176.85614 151.84844 176.8387 148.72473 178.06916 C 145.92984 179.1701 145.33948 179.11777 144.75664 177.63813 C 144.40045 176.7339 144.63963 174.93044 145.33464 173.80205 L 146.47804 171.64241 L 142.10652 166.81232 C 137.67023 161.81782 119.68842 143.16751 113.92695 137.46056 C 112.09863 135.71186 110.09346 133.27315 109.52555 132.0725 C 108.50181 130.19677 108.7011 129.73844 110.34515 129.09083 C 111.98921 128.44322 112.93825 128.924 115.5811 131.77622 C 130.524 148.0152 147.39737 165.29795 149.29546 166.2595 C 149.44242 166.39153 150.6904 166.18481 152.10279 165.91333 C 153.43297 165.67423 154.87774 165.48496 155.38589 165.56966 C 156.94274 165.90598 157.20921 168.26991 155.9836 170.46193 Z" fill="#FFFFFF"/>
        </g>
        <g id="Graphic_136">
          <path d="M 177.47643 239.00638 C 176.86104 243.7118 169.6796 242.8373 166.83505 237.78554 C 164.26698 233.19463 166.04556 231.92428 172.23556 234.1389 C 177.4765 235.87275 177.77044 236.1368 177.47643 239.00638 Z" fill="#FFFFFF"/>
        </g>
        <g id="Graphic_135">
          <path d="M 156.50857 195.41894 C 154.73241 199.34714 154.25413 199.82042 152.87914 199.22255 C 149.9498 197.8126 148.05178 193.7174 149.14787 191.19656 C 150.54289 187.98823 154.6854 186.45141 156.64325 188.52893 C 158.74806 190.73847 158.73313 190.45948 156.50857 195.41894 Z" fill="#FFFFFF"/>
        </g>
        <g id="Graphic_134">
          <path d="M 153.42444 207.83882 C 152.94616 208.31209 150.22104 208.62588 147.38383 208.41408 C 141.15145 208.02035 139.26079 208.7651 138.27678 211.81153 C 137.65897 213.85909 137.28033 214.1032 135.77331 213.6523 C 134.80682 213.3683 133.55141 211.8687 132.96856 210.38905 C 131.83525 207.51196 129.93465 207.02617 118.38404 207.11307 C 115.5294 207.09805 111.01826 206.97588 108.29564 206.8139 C 105.6876 206.70174 99.22354 206.68414 94.0224 206.7388 C 88.85364 206.87569 83.73471 206.89798 82.70096 206.92535 C 81.63482 206.87052 79.84631 206.91033 78.76274 207.0523 C 76.28422 207.26894 74.72495 204.27476 76.0502 201.85358 C 76.76265 200.5284 77.64944 200.369 81.56772 200.91462 C 84.15831 201.22357 87.91469 201.35817 89.94981 201.22122 C 91.98493 201.08427 96.85726 201.15912 100.7606 201.42575 C 104.54935 201.64256 107.91215 201.74228 108.15876 201.64514 C 108.40537 201.548 110.42305 201.60783 112.71972 201.65273 C 117.88598 201.99163 128.25837 201.3243 130.06683 200.61194 C 130.80666 200.32051 132.38845 199.03272 133.49447 197.74243 C 136.21718 194.77078 137.57723 195.08965 138.73793 199.0005 C 139.62464 201.97474 139.7716 202.10676 146.29791 202.76454 C 151.44673 203.30023 153.18292 203.85077 153.701 205.16602 C 154.08957 206.15245 153.98492 207.33316 153.42444 207.83882 Z" fill="#FFFFFF"/>
        </g>
        <g id="Graphic_133">
          <path d="M 159.29 234.3005 L 154.75884 237.98452 L 156.03412 241.9452 C 157.43892 246.23467 156.4151 247.49258 152.46695 246.38898 C 149.17391 245.50212 144.40365 247.85596 139.1426 253.06195 C 136.56937 255.68985 133.86661 257.98895 133.2912 258.2156 C 132.71577 258.44227 128.09991 262.63445 123.10291 267.5465 C 109.26775 280.8778 108.27881 281.74216 106.5725 281.7496 C 105.70316 281.7122 104.70679 280.87023 104.28584 279.8016 C 103.60585 278.07534 104.20122 277.1761 107.94273 273.8981 C 110.34906 271.81073 113.51515 268.75937 114.9998 267.22498 C 116.51684 265.77278 123.22766 259.42597 129.92104 253.27594 C 142.05481 242.13415 144.33412 239.2422 143.13604 236.2007 C 142.16463 233.73462 144.43642 232.26999 147.00457 233.72726 C 149.57272 235.18454 150.87303 234.38747 155.39676 228.99713 C 159.57423 223.9331 160.80477 223.92317 162.84725 228.62616 C 163.64182 230.40224 163.2283 231.03992 159.29 234.3005 Z" fill="#FFFFFF"/>
        </g>
        <g id="Graphic_132">
          <path d="M 198.44077 323.80687 C 197.30237 325.01496 195.47897 325.44834 189.2914 325.89158 C 181.18329 326.5216 177.0209 325.59734 176.57509 323.01917 C 176.28867 321.3278 180.73262 318.6277 182.78018 319.2455 C 183.54988 319.51207 185.81417 319.47476 187.89911 319.22323 C 194.90871 318.4562 198.48324 318.85234 199.16323 320.5786 C 199.51941 321.48282 199.20054 322.8429 198.44077 323.80687 Z" fill="#FFFFFF"/>
        </g>
        <g id="Graphic_131">
          <path d="M 155.97233 222.5032 C 154.01933 225.7414 150.67397 225.4449 148.82328 221.7109 C 147.03735 218.1413 147.08967 217.55093 149.56326 215.1522 C 152.59733 212.2478 152.59733 212.2478 154.37583 214.1111 C 156.3013 216.1064 157.0983 220.54034 155.97233 222.5032 Z" fill="#FFFFFF"/>
        </g>
        <g id="Graphic_130">
          <path d="M 202.66251 341.51525 C 201.29494 342.6237 196.14363 342.5638 194.65655 341.44032 C 193.08727 340.34924 192.22066 330.43517 193.52096 329.6381 C 194.57466 328.93816 195.08031 329.49864 196.21363 332.37573 C 197.6882 335.87807 200.21896 338.2047 201.94521 337.5247 C 203.50707 336.90948 204.1621 340.25984 202.66251 341.51525 Z" fill="#FFFFFF"/>
        </g>
        <g id="Graphic_129">
          <path d="M 112.62712 119.45583 C 111.33425 121.95922 101.38756 132.14453 99.4969 132.88928 C 97.60624 133.63403 96.34833 132.61021 95.98471 129.99967 C 95.76306 128.4727 97.26765 126.26574 102.13513 121.02487 C 108.45489 114.1674 109.90466 113.02658 111.31203 113.70664 C 112.76924 114.27213 113.50648 117.59012 112.62712 119.45583 Z" fill="#FFFFFF"/>
        </g>
        <g id="Graphic_128">
          <path d="M 105.40361 107.86767 C 104.19794 109.38713 103.30114 111.44963 103.41072 112.451 C 103.40572 113.40255 102.79291 114.49856 101.88868 114.85474 C 100.73784 115.30807 100.10017 114.89455 99.42018 113.1683 C 97.99543 109.55138 99.10646 107.30954 103.18672 105.13254 C 107.64561 102.71143 108.57471 103.86477 105.40361 107.86767 Z" fill="#FFFFFF"/>
        </g>
        <g id="Graphic_127">
          <path d="M 189.98093 344.51655 C 190.69572 348.98287 189.00928 351.45137 186.40875 349.9119 C 183.85804 348.25782 183.06847 345.5302 184.13719 341.9756 C 184.72011 340.32163 185.09632 337.41966 185.13871 335.59877 C 185.07904 331.34918 185.44523 330.3503 187.23375 330.3105 C 188.46429 330.30057 188.72333 330.9582 189.0595 335.6686 C 189.27364 338.6229 189.62975 342.66077 189.98093 344.51655 Z" fill="#FFFFFF"/>
        </g>
        <g id="Graphic_126">
          <path d="M 95.31247 117.44518 C 93.66841 118.0928 87.56813 114.41847 86.69386 112.199 C 84.94531 107.76005 88.16865 106.30042 92.15412 109.66831 C 94.22905 111.31987 96.4633 116.99186 95.31247 117.44518 Z" fill="#FFFFFF"/>
        </g>
        <g id="Graphic_125">
          <path d="M 180.95138 336.29862 C 180.14422 340.03505 179.66594 340.50832 175.90706 340.8495 C 172.14819 341.19066 168.96973 340.3536 168.3545 338.79177 C 167.64213 336.9833 169.02464 336.15385 172.64899 336.4354 C 175.87977 336.6821 176.20858 336.5526 177.90996 334.36307 C 178.93378 333.10515 179.98998 331.92945 180.23659 331.8323 C 181.14082 331.4761 181.5717 333.7753 180.95138 336.29862 Z" fill="#FFFFFF"/>
        </g>
        <g id="Graphic_124">
          <path d="M 93.63337 124.75364 C 92.89105 125.52084 90.25806 127.03279 87.79198 128.0042 C 83.84625 129.55846 83.09148 129.5709 82.60578 128.33786 C 81.05151 124.39213 86.58655 120.12275 91.76524 121.21642 C 94.76434 121.83923 95.23511 122.79329 93.63337 124.75364 Z" fill="#FFFFFF"/>
        </g>
        <g id="Graphic_123">
          <path d="M 71.73343 199.091 C 71.68853 201.38766 71.89768 205.2935 72.11433 207.77201 C 72.76186 212.5497 71.91238 214.9734 69.4463 215.9448 C 65.74718 217.40193 64.13316 212.34025 64.766145 201.17077 C 64.8758 199.0385 64.93814 196.54505 64.89332 195.70809 C 64.75136 194.6245 65.54351 193.74273 67.10536 193.1275 C 71.05109 191.57324 71.83323 192.59455 71.73343 199.091 Z" fill="#FFFFFF"/>
        </g>
        <g id="Graphic_122">
          <path d="M 107.09278 295.1236 C 104.7089 296.06263 102.64891 294.69006 96.59852 287.7675 C 90.93921 281.35562 89.98524 278.69276 92.89721 277.16587 C 94.60853 276.2069 95.29603 276.50582 97.72715 279.0616 C 99.32631 280.71067 101.83963 283.2341 103.37403 284.71874 C 104.90842 286.2034 106.84633 288.95347 107.62346 290.92633 C 108.93612 294.01765 108.90124 294.41123 107.09278 295.1236 Z" fill="#FFFFFF"/>
        </g>
        <g id="Graphic_121">
          <path d="M 59.95365 199.07824 C 59.44299 199.4693 57.03174 199.3746 54.62299 198.8041 C 49.543943 197.48127 47.65336 195.09238 47.939936 190.51649 C 48.084475 187.99065 48.597635 187.1238 50.4883 186.37906 C 53.5298 185.18098 54.44396 186.05533 54.047806 189.62986 C 53.716414 193.36879 53.53707 193.15456 57.03933 194.81363 C 60.197834 196.32324 61.28884 197.8876 59.95365 199.07824 Z" fill="#FFFFFF"/>
        </g>
        <g id="Graphic_120">
          <path d="M 97.16119 299.32063 C 95.83594 301.7418 95.94802 302.2674 98.18978 306.51207 C 100.02554 309.9671 100.28208 311.1005 99.46005 311.4243 C 96.00754 312.78427 88.34048 307.5431 89.32448 304.49666 C 90.0245 302.41672 95.44503 294.9639 96.59586 294.51056 C 98.32212 293.83057 98.60353 296.4735 97.16119 299.32063 Z" fill="#FFFFFF"/>
        </g>
        <g id="Graphic_119">
          <path d="M 58.625815 205.10883 C 57.90343 205.20347 54.73241 206.07274 51.59377 207.0242 C 46.69649 208.57347 45.498334 208.6656 43.78209 207.4425 C 39.417995 204.31872 44.38011 199.80023 50.689697 201.11313 C 52.8369 201.50177 55.08375 201.66125 55.659166 201.43458 C 57.22102 200.81936 59.49524 202.01259 59.74928 203.62176 C 59.843916 204.34414 59.3482 205.0142 58.625815 205.10883 Z" fill="#FFFFFF"/>
        </g>
        <g id="Graphic_118">
          <path d="M 89.16774 296.86682 C 86.94076 299.16842 85.07497 301.4227 84.99027 301.93085 C 84.75359 303.25853 81.13667 304.68327 80.058105 303.8737 C 78.83257 302.93207 79.57248 299.507 81.52047 297.22035 C 83.97912 294.54262 90.86178 289.83736 92.07487 290.0242 C 94.13987 290.44524 93.09361 292.8515 89.16774 296.86682 Z" fill="#FFFFFF"/>
        </g>
        <g id="Graphic_117">
          <path d="M 56.38374 213.39871 C 52.019486 216.5422 51.14013 218.40791 53.01327 220.99358 C 54.039513 222.39353 54.05195 223.1483 53.22742 223.94788 C 51.678004 225.31787 47.78468 223.14814 46.65136 220.27104 C 45.19424 216.57192 46.335143 214.88806 52.00963 212.17803 C 60.13526 208.2176 62.49419 208.90267 56.38374 213.39871 Z" fill="#FFFFFF"/>
        </g>
        <g id="Graphic_116">
          <path d="M 86.48517 289.09245 C 85.29945 289.93935 83.09491 291.0926 81.72985 291.7253 C 79.37835 292.74652 78.72323 292.5298 76.6508 290.40245 C 73.925754 287.5826 71.99536 283.4052 73.16364 282.7551 C 73.624475 282.4786 74.33192 282.105 74.792755 281.8285 C 75.25359 281.55202 76.593705 282.54345 77.78435 283.87864 C 79.8219 286.39955 80.41226 286.45188 88.24388 285.36103 C 88.44067 285.37847 88.63495 285.8717 88.69721 286.51187 C 88.64488 287.10222 87.70327 288.32776 86.48517 289.09245 Z" fill="#FFFFFF"/>
        </g>
        <g id="Graphic_115">
          <path d="M 202.53668 193.90558 C 198.73807 189.3246 194.1797 185.7076 190.96886 184.78836 C 177.89636 181.01172 165.84988 188.03595 162.23515 201.51945 C 160.56106 207.87636 160.54362 208.07314 163.00453 214.32055 C 165.95116 221.801 169.41103 225.28096 176.33834 227.67993 C 182.9219 229.92944 185.85876 229.91208 191.85955 227.5483 C 202.92454 223.09473 208.7761 211.6738 205.53563 200.79567 C 204.71368 197.98584 203.31882 194.9269 202.53668 193.90558 Z M 202.58603 212.5928 L 202.58603 212.5928 C 201.7191 215.21328 200.491 217.88108 199.8483 218.4191 C 199.17325 218.87494 198.16687 219.93607 197.58895 220.6385 C 195.87263 222.54903 185.20372 226.5617 182.61312 226.25277 C 174.35062 225.04444 168.86064 220.74988 165.93145 213.07265 C 163.3734 206.57864 163.73716 202.9219 167.50863 197.06823 C 172.93417 188.66385 177.17883 186.42208 185.70538 187.33648 C 194.6579 188.36797 199.18138 192.37853 202.26496 201.8941 C 203.91136 207.038 204.0035 208.23614 202.58603 212.5928 Z" fill="black"/>
        </g>
        <g id="Graphic_114">
          <path d="M 195.39505 194.81959 C 191.44698 190.58235 185.35162 189.09011 178.99214 191.02543 C 174.58808 192.3804 169.89501 195.65342 170.44548 197.05087 C 170.575 197.37968 170.11167 198.13194 169.4366 198.58777 C 167.526 200.00508 167.03755 208.64872 168.64164 212.47987 C 170.47239 216.88643 172.88356 220.11478 174.5226 220.41872 C 175.30975 220.4885 176.12677 221.11623 176.35344 221.69165 C 177.45437 224.48654 192.83363 223.27134 193.37424 220.3046 C 193.45895 219.79645 194.20128 219.02926 194.9411 218.73783 C 197.07837 217.89594 200.6755 210.87649 200.71046 207.34928 C 200.76537 203.1495 198.90224 198.66074 195.39505 194.81959 Z M 197.49212 207.85736 L 197.49212 207.85736 C 197.51942 212.02474 193.30706 217.48234 188.5393 219.3604 C 182.7029 221.65943 173.7978 217.8555 171.72795 212.11875 C 169.83495 207.072 170.81903 200.89195 173.87054 197.79077 C 177.61456 194.03698 185.31666 192.61732 189.63594 194.90413 C 193.77587 196.97672 197.40257 203.0498 197.49212 207.85736 Z" fill="black"/>
        </g>
      </g>
    </g>
  </g>
</svg>
