<?xml version="1.0" encoding="UTF-8" standalone="no"?>
<!DOCTYPE svg PUBLIC "-//W3C//DTD SVG 1.1//EN" "http://www.w3.org/Graphics/SVG/1.1/DTD/svg11.dtd">
<svg xmlns:xl="http://www.w3.org/1999/xlink" version="1.1" xmlns="http://www.w3.org/2000/svg" xmlns:dc="http://purl.org/dc/elements/1.1/" viewBox="54 60.75 256.5 297" width="256.5" height="297">
  <defs>
    <clipPath id="artboard_clip_path">
      <path d="M 54 60.75 L 310.5 60.75 L 310.5 346.5 L 295.92614 357.75 L 54 357.75 Z"/>
    </clipPath>
  </defs>
  <g id="Estoile_Pierced" stroke-opacity="1" stroke="none" fill="none" fill-opacity="1" stroke-dasharray="none">
    <title>Estoile Pierced</title>
    <g id="Estoile_Pierced_Art" clip-path="url(#artboard_clip_path)">
      <title>Art</title>
      <g id="Group_113">
        <g id="Graphic_126">
          <title>path23</title>
          <path d="M 145.1878 227.0946 L 145.22842 227.1623 C 143.40667 223.39957 142.16917 219.38112 141.55856 215.24541 C 135.4301 214.71655 129.37477 213.5409 123.49364 211.73806 C 123.44029 211.65606 123.35208 211.60328 123.2546 211.595 C 111.77186 215.24523 103.31232 225.03527 101.36615 236.92602 C 99.04398 245.52245 92.96223 252.60953 84.81793 256.2097 C 71.54515 260.1452 60.936465 270.1606 56.24448 283.1852 C 62.89354 271.46986 75.5597 264.48253 89.01592 265.10675 C 102.70084 262.83877 114.74834 254.7923 122.08529 243.0199 C 126.0907 233.70884 135.0993 227.53618 145.22842 227.1623 L 145.1878 227.0946 C 135.0763 227.55167 126.1098 233.73256 122.08529 243.0199 C 114.74834 254.7923 102.70084 262.83877 89.01592 265.10675 C 75.54662 264.4563 62.86938 271.48464 56.28511 283.25292 C 62.640495 276.06004 72.24378 272.63395 81.71683 274.17984 C 94.03841 278.41623 107.65723 276.29257 118.10396 268.50577 C 126.79293 257.42056 142.20405 254.20682 154.59943 260.89522 C 159.12552 256.82503 163.20648 252.2856 166.77361 247.3533 C 157.34048 243.52144 149.66372 236.3272 145.22842 227.1623 Z" fill="#FFFFFF"/>
          <path d="M 145.1878 227.0946 L 145.22842 227.1623 C 143.40667 223.39957 142.16917 219.38112 141.55856 215.24541 C 135.4301 214.71655 129.37477 213.5409 123.49364 211.73806 C 123.44029 211.65606 123.35208 211.60328 123.2546 211.595 C 111.77186 215.24523 103.31232 225.03527 101.36615 236.92602 C 99.04398 245.52245 92.96223 252.60953 84.81793 256.2097 C 71.54515 260.1452 60.936465 270.1606 56.24448 283.1852 C 62.89354 271.46986 75.5597 264.48253 89.01592 265.10675 C 102.70084 262.83877 114.74834 254.7923 122.08529 243.0199 C 126.0907 233.70884 135.0993 227.53618 145.22842 227.1623 L 145.1878 227.0946 C 135.0763 227.55167 126.1098 233.73256 122.08529 243.0199 C 114.74834 254.7923 102.70084 262.83877 89.01592 265.10675 C 75.54662 264.4563 62.86938 271.48464 56.28511 283.25292 C 62.640495 276.06004 72.24378 272.63395 81.71683 274.17984 C 94.03841 278.41623 107.65723 276.29257 118.10396 268.50577 C 126.79293 257.42056 142.20405 254.20682 154.59943 260.89522 C 159.12552 256.82503 163.20648 252.2856 166.77361 247.3533 C 157.34048 243.52144 149.66372 236.3272 145.22842 227.1623 Z" stroke="black" stroke-linecap="round" stroke-linejoin="round" stroke-width="1.5"/>
        </g>
        <g id="Graphic_125">
          <title>path18</title>
          <path d="M 308.5304 136.03969 C 308.5988 135.92271 308.6665 135.80535 308.73354 135.6876 L 308.61166 135.82302 Z" fill="#FFFFFF"/>
          <path d="M 308.5304 136.03969 C 308.5988 135.92271 308.6665 135.80535 308.73354 135.6876 L 308.61166 135.82302 Z" stroke="black" stroke-linecap="round" stroke-linejoin="round" stroke-width="1.5"/>
        </g>
        <g id="Graphic_124">
          <title>path30</title>
          <path d="M 166.77863 247.3613 C 163.19253 252.31118 159.08868 256.86445 154.53674 260.94383 C 154.84181 261.02406 155.13053 261.15697 155.38988 261.33655 C 159.85403 257.1862 163.87085 252.57935 167.37447 247.5915 C 167.17527 247.5163 166.97665 247.43957 166.77863 247.3613 Z" fill="#FFFFFF"/>
          <path d="M 166.77863 247.3613 C 163.19253 252.31118 159.08868 256.86445 154.53674 260.94383 C 154.84181 261.02406 155.13053 261.15697 155.38988 261.33655 C 159.85403 257.1862 163.87085 252.57935 167.37447 247.5915 C 167.17527 247.5163 166.97665 247.43957 166.77863 247.3613 Z" stroke="black" stroke-linecap="round" stroke-linejoin="round" stroke-width="1.5"/>
        </g>
        <g id="Graphic_123">
          <title>path42</title>
          <path d="M 207.67292 241.58878 C 210.20128 247.2125 212.1172 253.09192 213.3876 259.12556 C 213.47297 259.20275 213.55873 259.2795 213.6449 259.35577 C 212.55182 253.10995 210.70096 247.02077 208.13334 241.22314 C 207.98074 241.34612 207.82726 241.468 207.67292 241.58878 Z" fill="#FFFFFF"/>
          <path d="M 207.67292 241.58878 C 210.20128 247.2125 212.1172 253.09192 213.3876 259.12556 C 213.47297 259.20275 213.55873 259.2795 213.6449 259.35577 C 212.55182 253.10995 210.70096 247.02077 208.13334 241.22314 C 207.98074 241.34612 207.82726 241.468 207.67292 241.58878 Z" stroke="black" stroke-linecap="round" stroke-linejoin="round" stroke-width="1.5"/>
        </g>
        <g id="Graphic_122">
          <title>path47</title>
          <path d="M 208.132 241.22138 C 210.6996 247.019 212.55046 253.1082 213.64355 259.354 C 222.65532 267.52514 235.46222 270.0093 246.87542 265.79996 C 255.48175 263.51653 264.65904 265.2435 271.8467 270.499 C 281.89175 280.02378 295.86884 284.20182 309.49324 281.75234 C 296.02446 281.85177 283.6413 274.3779 277.45307 262.4145 C 268.64404 251.6969 255.64907 245.2882 241.78365 244.82353 C 231.57503 246.01736 221.60895 241.1428 216.28422 232.35143 C 214.01686 235.69215 211.27 238.68085 208.132 241.22138 Z" fill="#FFFFFF"/>
          <path d="M 208.132 241.22138 C 210.6996 247.019 212.55046 253.1082 213.64355 259.354 C 222.65532 267.52514 235.46222 270.0093 246.87542 265.79996 C 255.48175 263.51653 264.65904 265.2435 271.8467 270.499 C 281.89175 280.02378 295.86884 284.20182 309.49324 281.75234 C 296.02446 281.85177 283.6413 274.3779 277.45307 262.4145 C 268.64404 251.6969 255.64907 245.2882 241.78365 244.82353 C 231.57503 246.01736 221.60895 241.1428 216.28422 232.35143 C 214.01686 235.69215 211.27 238.68085 208.132 241.22138 Z" stroke="black" stroke-linecap="round" stroke-linejoin="round" stroke-width="1.5"/>
        </g>
        <g id="Graphic_121">
          <title>path59</title>
          <path d="M 222.8656 203.08492 C 229.05224 203.72202 235.14002 204.93325 240.99822 207.02176 L 240.99822 206.96277 L 241.2149 207.03048 C 252.95833 203.4009 261.66757 193.48264 263.74864 181.36855 C 266.07082 172.77212 272.15256 165.68504 280.29687 162.08486 C 293.2371 158.25185 303.6669 148.63241 308.53177 136.04375 C 301.88483 147.61326 289.31782 154.4851 275.99054 153.83783 C 262.30562 156.1058 250.25812 164.15227 242.92118 175.9247 C 238.87243 185.32675 229.72697 191.51711 219.49366 191.78228 C 221.12104 195.25027 222.25599 199.3029 222.8656 203.08492 Z" fill="#FFFFFF"/>
          <path d="M 222.8656 203.08492 C 229.05224 203.72202 235.14002 204.93325 240.99822 207.02176 L 240.99822 206.96277 L 241.2149 207.03048 C 252.95833 203.4009 261.66757 193.48264 263.74864 181.36855 C 266.07082 172.77212 272.15256 165.68504 280.29687 162.08486 C 293.2371 158.25185 303.6669 148.63241 308.53177 136.04375 C 301.88483 147.61326 289.31782 154.4851 275.99054 153.83783 C 262.30562 156.1058 250.25812 164.15227 242.92118 175.9247 C 238.87243 185.32675 229.72697 191.51711 219.49366 191.78228 C 221.12104 195.25027 222.25599 199.3029 222.8656 203.08492 Z" stroke="black" stroke-linecap="round" stroke-linejoin="round" stroke-width="1.5"/>
        </g>
        <g id="Graphic_120">
          <title>path64</title>
          <path d="M 219.4923 191.78905 C 229.7256 191.52388 238.87108 185.33352 242.91982 175.93147 C 250.25977 164.15583 262.31283 156.10894 276.00273 153.8446 C 289.3281 154.48398 301.8893 147.60722 308.5304 136.03698 L 308.61166 135.8203 C 308.47345 135.97534 308.3335 136.12882 308.19186 136.28073 C 301.41766 147.37808 289.1245 153.8908 276.13814 153.2623 C 262.45323 155.53028 250.40573 163.57674 243.06878 175.34916 C 238.9617 184.89328 229.61124 191.1163 219.22147 191.2203 C 219.3132 191.40918 219.40348 191.59878 219.4923 191.78905 Z" fill="#FFFFFF"/>
          <path d="M 219.4923 191.78905 C 229.7256 191.52388 238.87108 185.33352 242.91982 175.93147 C 250.25977 164.15583 262.31283 156.10894 276.00273 153.8446 C 289.3281 154.48398 301.8893 147.60722 308.5304 136.03698 L 308.61166 135.8203 C 308.47345 135.97534 308.3335 136.12882 308.19186 136.28073 C 301.41766 147.37808 289.1245 153.8908 276.13814 153.2623 C 262.45323 155.53028 250.40573 163.57674 243.06878 175.34916 C 238.9617 184.89328 229.61124 191.1163 219.22147 191.2203 C 219.3132 191.40918 219.40348 191.59878 219.4923 191.78905 Z" stroke="black" stroke-linecap="round" stroke-linejoin="round" stroke-width="1.5"/>
        </g>
        <g id="Graphic_119">
          <title>path69</title>
          <path d="M 219.42536 191.71802 C 229.81513 191.61403 238.95764 185.39101 243.06472 175.8469 C 250.40467 164.07126 262.45773 156.02437 276.14762 153.76003 C 289.134 154.38853 301.42714 147.37672 308.20134 136.27938 C 301.83346 143.09115 292.4865 146.27623 283.2842 144.77016 C 270.96885 140.53473 257.3565 142.6531 246.91062 150.43068 C 238.11646 161.53792 222.47973 164.46186 210.2662 157.2829 L 210.11723 157.40477 L 210.03598 157.47248 C 205.53034 161.63443 201.43954 166.22411 197.82117 171.1769 C 207.17273 175.00297 214.9969 182.63622 219.42536 191.71802 Z" fill="#FFFFFF"/>
          <path d="M 219.42536 191.71802 C 229.81513 191.61403 238.95764 185.39101 243.06472 175.8469 C 250.40467 164.07126 262.45773 156.02437 276.14762 153.76003 C 289.134 154.38853 301.42714 147.37672 308.20134 136.27938 C 301.83346 143.09115 292.4865 146.27623 283.2842 144.77016 C 270.96885 140.53473 257.3565 142.6531 246.91062 150.43068 C 238.11646 161.53792 222.47973 164.46186 210.2662 157.2829 L 210.11723 157.40477 L 210.03598 157.47248 C 205.53034 161.63443 201.43954 166.22411 197.82117 171.1769 C 207.17273 175.00297 214.9969 182.63622 219.42536 191.71802 Z" stroke="black" stroke-linecap="round" stroke-linejoin="round" stroke-width="1.5"/>
        </g>
        <g id="Graphic_118">
          <title>path74</title>
          <path d="M 122.71228 173.72955 C 108.84687 173.26487 95.85189 166.8562 87.04287 156.1386 C 80.87454 144.14421 68.44841 136.67489 54.96207 136.85491 C 64.37477 138.76076 72.14841 145.36836 75.54578 154.35107 C 78.03199 167.13856 86.67326 177.873 98.63475 183.03285 C 112.91985 185.05722 123.52789 197.30038 123.49771 211.72817 C 129.37834 213.5356 135.43368 214.7158 141.56263 215.24907 C 141.26745 213.26297 141.11809 211.25792 141.11575 209.25 C 141.1155 200.98963 143.6023 192.92054 148.25234 186.09332 C 142.8529 177.37247 132.9019 172.55526 122.71228 173.72955 Z" fill="#FFFFFF"/>
          <path d="M 122.71228 173.72955 C 108.84687 173.26487 95.85189 166.8562 87.04287 156.1386 C 80.87454 144.14421 68.44841 136.67489 54.96207 136.85491 C 64.37477 138.76076 72.14841 145.36836 75.54578 154.35107 C 78.03199 167.13856 86.67326 177.873 98.63475 183.03285 C 112.91985 185.05722 123.52789 197.30038 123.49771 211.72817 C 129.37834 213.5356 135.43368 214.7158 141.56263 215.24907 C 141.26745 213.26297 141.11809 211.25792 141.11575 209.25 C 141.1155 200.98963 143.6023 192.92054 148.25234 186.09332 C 142.8529 177.37247 132.9019 172.55526 122.71228 173.72955 Z" stroke="black" stroke-linecap="round" stroke-linejoin="round" stroke-width="1.5"/>
        </g>
        <g id="Graphic_117">
          <title>path79</title>
          <path d="M 180.91138 100.41632 C 176.0324 113.39953 176.97466 127.85421 183.49789 140.09414 C 189.60162 148.27949 190.40455 159.2617 185.55626 168.24778 C 189.56256 168.57027 194.07744 169.62257 197.82041 171.087 C 201.51626 166.09519 205.23191 161.4303 210.0265 157.48196 L 210.1213 157.4007 C 212.78593 145.45647 208.54632 133.02514 199.1388 125.19803 C 192.85242 118.89155 189.75183 110.08248 190.70219 101.22883 C 193.93304 87.77027 190.56958 73.57739 181.64265 63 C 188.46176 74.61534 188.17914 89.07629 180.91138 100.41632 Z" fill="#FFFFFF"/>
          <path d="M 180.91138 100.41632 C 176.0324 113.39953 176.97466 127.85421 183.49789 140.09414 C 189.60162 148.27949 190.40455 159.2617 185.55626 168.24778 C 189.56256 168.57027 194.07744 169.62257 197.82041 171.087 C 201.51626 166.09519 205.23191 161.4303 210.0265 157.48196 L 210.1213 157.4007 C 212.78593 145.45647 208.54632 133.02514 199.1388 125.19803 C 192.85242 118.89155 189.75183 110.08248 190.70219 101.22883 C 193.93304 87.77027 190.56958 73.57739 181.64265 63 C 188.46176 74.61534 188.17914 89.07629 180.91138 100.41632 Z" stroke="black" stroke-linecap="round" stroke-linejoin="round" stroke-width="1.5"/>
        </g>
        <g id="Graphic_116">
          <title>path35</title>
          <path d="M 178.98626 250.25222 L 179.05397 250.25222 C 175.04973 249.94275 170.0121 248.62534 166.26702 247.17482 C 162.76764 252.162 158.75539 256.76883 154.29596 260.91986 C 154.03201 260.7667 154.86593 261.0409 154.59727 260.89616 C 151.79311 272.89127 156.01465 285.44053 165.49851 293.30197 C 171.77996 299.6109 174.87546 308.41965 173.92159 317.27117 C 170.69073 330.72973 174.0542 344.9226 182.98113 355.5 C 176.16201 343.88466 176.44464 329.4237 183.7124 318.0837 C 188.59548 305.0965 187.65316 290.63595 181.12589 278.39232 C 175.02347 270.21268 174.21538 259.23743 179.05397 250.25222 L 178.98626 250.25222 C 174.22462 259.2624 175.0567 270.20567 181.12589 278.39232 C 187.65316 290.63595 188.59548 305.0965 183.7124 318.0837 C 176.41556 329.4227 176.1638 343.9144 183.06238 355.5 C 180.0087 346.39666 181.84463 336.36298 187.92393 328.93076 C 197.7532 320.3806 202.72517 307.52753 201.20855 294.58846 C 195.9882 281.39034 201.29183 266.36338 213.64003 259.36593 C 213.5549 259.28402 213.65412 259.01777 213.56773 258.93717 C 212.29732 252.90354 210.3814 247.0241 207.85304 241.4004 C 199.73972 247.7761 189.34144 251.05458 179.05397 250.25222 Z" fill="#FFFFFF"/>
          <path d="M 178.98626 250.25222 L 179.05397 250.25222 C 175.04973 249.94275 170.0121 248.62534 166.26702 247.17482 C 162.76764 252.162 158.75539 256.76883 154.29596 260.91986 C 154.03201 260.7667 154.86593 261.0409 154.59727 260.89616 C 151.79311 272.89127 156.01465 285.44053 165.49851 293.30197 C 171.77996 299.6109 174.87546 308.41965 173.92159 317.27117 C 170.69073 330.72973 174.0542 344.9226 182.98113 355.5 C 176.16201 343.88466 176.44464 329.4237 183.7124 318.0837 C 188.59548 305.0965 187.65316 290.63595 181.12589 278.39232 C 175.02347 270.21268 174.21538 259.23743 179.05397 250.25222 L 178.98626 250.25222 C 174.22462 259.2624 175.0567 270.20567 181.12589 278.39232 C 187.65316 290.63595 188.59548 305.0965 183.7124 318.0837 C 176.41556 329.4227 176.1638 343.9144 183.06238 355.5 C 180.0087 346.39666 181.84463 336.36298 187.92393 328.93076 C 197.7532 320.3806 202.72517 307.52753 201.20855 294.58846 C 195.9882 281.39034 201.29183 266.36338 213.64003 259.36593 C 213.5549 259.28402 213.65412 259.01777 213.56773 258.93717 C 212.29732 252.90354 210.3814 247.0241 207.85304 241.4004 C 199.73972 247.7761 189.34144 251.05458 179.05397 250.25222 Z" stroke="black" stroke-linecap="round" stroke-linejoin="round" stroke-width="1.5"/>
        </g>
        <g id="Graphic_115">
          <title>path52</title>
          <path d="M 216.27474 232.3574 C 221.60523 241.1484 231.57737 246.01804 241.78772 244.81595 C 255.6553 245.284 268.65065 251.6978 277.45713 262.42044 C 283.6292 274.40958 296.0546 281.8732 309.53793 281.6906 C 300.12523 279.78474 292.3516 273.17714 288.9542 264.19443 C 286.46393 251.41203 277.82327 240.68342 265.86525 235.5262 C 251.63107 233.50905 241.03954 221.34264 241.0023 206.9663 C 235.1337 205.06222 229.07715 203.79553 222.93737 203.1881 C 223.2352 205.19208 223.38457 207.21534 223.38425 209.24133 C 223.38594 217.51236 220.89416 225.5918 216.23412 232.4251 Z" fill="#FFFFFF"/>
          <path d="M 216.27474 232.3574 C 221.60523 241.1484 231.57737 246.01804 241.78772 244.81595 C 255.6553 245.284 268.65065 251.6978 277.45713 262.42044 C 283.6292 274.40958 296.0546 281.8732 309.53793 281.6906 C 300.12523 279.78474 292.3516 273.17714 288.9542 264.19443 C 286.46393 251.41203 277.82327 240.68342 265.86525 235.5262 C 251.63107 233.50905 241.03954 221.34264 241.0023 206.9663 C 235.1337 205.06222 229.07715 203.79553 222.93737 203.1881 C 223.2352 205.19208 223.38457 207.21534 223.38425 209.24133 C 223.38594 217.51236 220.89416 225.5918 216.23412 232.4251 Z" stroke="black" stroke-linecap="round" stroke-linejoin="round" stroke-width="1.5"/>
        </g>
        <g id="Graphic_114">
          <title>path84</title>
          <path d="M 156.72945 176.99586 C 154.22338 171.47342 152.29908 165.70506 150.98768 159.78408 C 151.04649 159.74818 151.10517 159.71207 151.16372 159.67575 L 151.10956 159.432 C 142.09609 151.07525 129.15266 148.4897 117.6204 152.74229 C 109.01608 155.02958 99.83899 153.30763 92.6491 148.05678 C 82.60656 138.52714 68.62916 134.34397 55.00257 136.7899 C 68.47135 136.69048 80.8545 144.16433 87.04274 156.12777 C 95.84922 166.85042 108.84456 173.26422 122.71215 173.73226 C 132.90748 172.53588 142.8646 177.39275 148.19804 186.16374 C 150.55725 182.69025 153.43439 179.59846 156.72945 176.99586 L 156.77008 176.95524 L 156.72945 176.99586 C 164.90859 170.51871 175.24343 167.39164 185.64144 168.24778 C 190.40315 159.23763 189.57108 148.2943 183.50182 140.10768 C 176.9701 127.86603 176.02284 113.40544 180.90177 100.41632 C 188.1986 89.07732 188.45036 74.58561 181.55179 63 C 184.60044 72.09932 182.76475 82.12656 176.69024 89.5557 C 166.86596 98.10862 161.89924 110.96129 163.41916 123.898 C 168.77765 137.21277 163.56064 152.44298 151.16372 159.67575 C 152.43183 165.60975 154.3247 171.39279 156.8107 176.92815 L 156.77008 176.95524 L 156.8107 176.92815 Z" fill="#FFFFFF"/>
          <path d="M 156.72945 176.99586 C 154.22338 171.47342 152.29908 165.70506 150.98768 159.78408 C 151.04649 159.74818 151.10517 159.71207 151.16372 159.67575 L 151.10956 159.432 C 142.09609 151.07525 129.15266 148.4897 117.6204 152.74229 C 109.01608 155.02958 99.83899 153.30763 92.6491 148.05678 C 82.60656 138.52714 68.62916 134.34397 55.00257 136.7899 C 68.47135 136.69048 80.8545 144.16433 87.04274 156.12777 C 95.84922 166.85042 108.84456 173.26422 122.71215 173.73226 C 132.90748 172.53588 142.8646 177.39275 148.19804 186.16374 C 150.55725 182.69025 153.43439 179.59846 156.72945 176.99586 L 156.77008 176.95524 L 156.72945 176.99586 C 164.90859 170.51871 175.24343 167.39164 185.64144 168.24778 C 190.40315 159.23763 189.57108 148.2943 183.50182 140.10768 C 176.9701 127.86603 176.02284 113.40544 180.90177 100.41632 C 188.1986 89.07732 188.45036 74.58561 181.55179 63 C 184.60044 72.09932 182.76475 82.12656 176.69024 89.5557 C 166.86596 98.10862 161.89924 110.96129 163.41916 123.898 C 168.77765 137.21277 163.56064 152.44298 151.16372 159.67575 C 152.43183 165.60975 154.3247 171.39279 156.8107 176.92815 L 156.77008 176.95524 L 156.8107 176.92815 Z" stroke="black" stroke-linecap="round" stroke-linejoin="round" stroke-width="1.5"/>
        </g>
      </g>
    </g>
  </g>
</svg>
