<?xml version="1.0" encoding="UTF-8" standalone="no"?>
<!DOCTYPE svg PUBLIC "-//W3C//DTD SVG 1.1//EN" "http://www.w3.org/Graphics/SVG/1.1/DTD/svg11.dtd">
<svg xmlns="http://www.w3.org/2000/svg" xmlns:xl="http://www.w3.org/1999/xlink" version="1.1" xmlns:dc="http://purl.org/dc/elements/1.1/" viewBox="76.5 72 211.5 306" width="211.5" height="306">
  <defs>
    <clipPath id="artboard_clip_path">
      <path d="M 76.5 72 L 288 72 L 288 378 L 76.5 378 Z"/>
    </clipPath>
  </defs>
  <g id="Gemstone,_Step-Cut_(1)" stroke-opacity="1" fill="none" fill-opacity="1" stroke-dasharray="none" stroke="none">
    <title>Gemstone, Step-Cut (1)</title>
    <g id="Gemstone,_Step-Cut_(1)_Layer_2" clip-path="url(#artboard_clip_path)">
      <title>Layer 2</title>
      <g id="Group_53">
        <g id="Graphic_64">
          <path d="M 125.66667 74.25 L 81 118.91667 L 81 331.08333 L 125.66667 375.75 L 237.33333 375.75 L 282 331.08333 L 282 118.91667 L 237.33333 74.25 Z" fill="#FFFFFF"/>
          <path d="M 125.66667 74.25 L 81 118.91667 L 81 331.08333 L 125.66667 375.75 L 237.33333 375.75 L 282 331.08333 L 282 118.91667 L 237.33333 74.25 Z" stroke="black" stroke-linecap="round" stroke-linejoin="round" stroke-width="2"/>
        </g>
        <g id="Graphic_63">
          <path d="M 248.5 317.8229 L 248.5 132.17708 L 224.07292 107.75 L 138.92708 107.75 L 114.5 132.17708 L 114.5 317.8229 L 138.92708 342.25 L 224.07292 342.25 Z" stroke="black" stroke-linecap="round" stroke-linejoin="round" stroke-width="2"/>
        </g>
        <g id="Graphic_62">
          <path d="M 226.16667 308.75 L 226.16667 141.25 L 215 130.08333 L 148 130.08333 L 136.83333 141.25 L 136.83333 308.75 L 148 319.91667 L 215 319.91667 Z" stroke="black" stroke-linecap="round" stroke-linejoin="round" stroke-width="2"/>
        </g>
        <g id="Line_61">
          <line x1="81" y1="118.91667" x2="136.83333" y2="141.25" stroke="black" stroke-linecap="round" stroke-linejoin="round" stroke-width="2"/>
        </g>
        <g id="Line_60">
          <line x1="125.66667" y1="74.25" x2="148" y2="130.08333" stroke="black" stroke-linecap="round" stroke-linejoin="round" stroke-width="2"/>
        </g>
        <g id="Line_59">
          <line x1="282" y1="118.91667" x2="226.16667" y2="141.25" stroke="black" stroke-linecap="round" stroke-linejoin="round" stroke-width="2"/>
        </g>
        <g id="Line_58">
          <line x1="237.33333" y1="74.25" x2="215" y2="130.08333" stroke="black" stroke-linecap="round" stroke-linejoin="round" stroke-width="2"/>
        </g>
        <g id="Line_57">
          <line x1="81" y1="331.08333" x2="136.83333" y2="308.75" stroke="black" stroke-linecap="round" stroke-linejoin="round" stroke-width="2"/>
        </g>
        <g id="Line_56">
          <line x1="125.66667" y1="375.75" x2="148" y2="319.91667" stroke="black" stroke-linecap="round" stroke-linejoin="round" stroke-width="2"/>
        </g>
        <g id="Line_55">
          <line x1="282" y1="331.08333" x2="226.16667" y2="308.75" stroke="black" stroke-linecap="round" stroke-linejoin="round" stroke-width="2"/>
        </g>
        <g id="Line_54">
          <line x1="237.33333" y1="375.75" x2="215" y2="319.91667" stroke="black" stroke-linecap="round" stroke-linejoin="round" stroke-width="2"/>
        </g>
      </g>
    </g>
  </g>
</svg>
