<?xml version="1.0" encoding="UTF-8" standalone="no"?>
<!DOCTYPE svg PUBLIC "-//W3C//DTD SVG 1.1//EN" "http://www.w3.org/Graphics/SVG/1.1/DTD/svg11.dtd">
<svg xmlns="http://www.w3.org/2000/svg" xmlns:xl="http://www.w3.org/1999/xlink" version="1.1" xmlns:dc="http://purl.org/dc/elements/1.1/" viewBox="49.5 63 126 351" width="126" height="351">
  <defs>
    <clipPath id="artboard_clip_path">
      <path d="M 49.5 63 L 175.5 63 L 175.5 414 L 49.5 414 Z"/>
    </clipPath>
  </defs>
  <g id="Key_(9)" stroke-opacity="1" fill="none" fill-opacity="1" stroke-dasharray="none" stroke="none">
    <title>Key (9)</title>
    <g id="Key_(9)_Art" clip-path="url(#artboard_clip_path)">
      <title>Art</title>
      <g id="Group_766">
        <g id="Graphic_773">
          <path d="M 128.19073 409.88703 C 138.0931 406.13455 143.09642 400.7143 145.0769 391.85427 C 146.32772 385.8086 148.09972 383.7239 151.8522 383.7239 C 154.87504 383.7239 161.44188 380.4926 163.8393 377.8867 C 166.7579 374.55116 170.19767 362.8768 170.3019 356.10147 C 170.3019 350.8897 169.78073 348.70074 166.86213 343.2805 C 161.96306 334.212 156.95975 330.04257 149.45479 328.47904 C 138.82276 326.39433 138.0931 326.0816 137.7804 322.8503 C 137.57193 320.97408 138.40581 318.57666 140.17782 316.075 C 142.67947 312.42676 142.78371 311.6971 141.74135 307.0065 C 141.11594 304.2964 140.07358 301.3778 139.5524 300.75237 C 138.82276 299.9185 138.30158 273.8596 137.88464 227.68323 C 137.25922 145.75406 137.36346 140.0211 138.61429 98.1184 C 139.13546 81.23224 139.2397 67.0562 138.82276 66.639254 C 137.36346 65.17996 108.38597 64.65878 108.28173 66.11808 C 108.1775 66.847725 108.28173 78.62635 108.38597 92.48968 C 108.59444 119.38246 108.69867 119.06975 103.17419 120.32058 C 99.42171 121.2587 97.44123 119.59093 97.337 115.62998 C 97.337 113.75374 97.23276 103.12171 97.12852 92.17697 C 96.81582 66.32655 98.06664 67.89008 78.36612 67.89008 L 64.085845 67.89008 L 60.333364 71.329856 L 56.47665 74.873865 L 56.37241 99.78617 C 56.268176 113.44103 55.851234 135.53897 55.43429 148.67266 C 54.391935 178.90098 54.391935 184.217 55.851234 185.6763 C 56.997825 186.82288 60.391966 186.71051 74.04683 188.37828 C 77.79931 188.89946 89.774 188.51204 92.22291 188.37828 C 94.67181 188.24452 94.65601 185.66159 96.32718 184.274 C 99.07118 182.05177 102.13183 179.42215 102.13183 164.9334 C 102.13183 158.05386 102.44454 151.79973 102.75725 150.8616 C 103.4869 148.88113 106.7182 148.67266 108.07326 150.5489 C 109.21985 151.90396 108.90715 175.1485 107.34361 204.95987 C 106.09278 229.0383 106.09278 255.93107 107.23938 261.0386 C 107.76055 263.22756 108.38597 271.14947 108.4902 278.65443 L 108.80291 292.20505 L 105.2589 294.0813 C 96.50311 298.56343 93.79299 306.58956 98.69206 313.36488 C 100.46406 315.86653 100.77677 317.5343 100.35983 321.49525 C 99.63018 327.64515 98.37935 328.6875 93.37604 327.33245 C 87.01767 325.56044 80.3466 327.7494 72.320456 334.31623 C 68.67221 337.23483 67.838326 338.69412 66.691734 344.11437 C 65.54514 349.63886 65.54514 351.5151 66.900205 357.45653 C 69.506095 368.40127 71.382335 372.46645 75.65599 376.1147 C 79.92965 379.76294 85.76685 382.16036 87.53885 381.118 C 88.06003 380.8053 89.51933 381.01377 90.66592 381.6392 C 92.22945 382.47307 92.75063 383.82813 92.75063 387.05943 C 92.75063 393.7305 96.29464 399.77618 103.17419 404.98795 C 106.50973 407.4896 110.15797 410.0955 111.30456 410.7209 C 114.43163 412.3887 122.77048 411.97174 128.19073 409.88703 Z M 113.38928 381.9519 C 111.4088 380.07565 110.47068 377.78247 109.9495 373.92575 C 109.01138 367.46314 107.96902 366.00385 104.00807 366.00385 C 94.52263 366.00385 87.01767 355.0591 92.64639 349.4304 C 95.8777 346.1991 102.65301 344.5313 106.7182 345.9906 C 110.99186 347.55415 123.08318 347.55415 126.52296 346.09485 C 128.7119 345.0525 130.06697 345.3652 135.48722 347.86686 C 145.3896 352.45322 147.47431 358.39465 141.32441 364.54455 C 138.61429 367.25467 136.84228 368.08856 134.13216 368.08856 C 130.06697 368.08856 129.23308 369.3394 129.23308 375.07234 C 129.23308 377.99094 128.3992 379.55447 125.4806 382.36883 C 120.99847 386.53826 118.07988 386.434 113.38928 381.9519 Z" fill="black"/>
        </g>
        <g id="Graphic_772">
          <path d="M 111.61727 401.9651 L 111.61727 401.9651 C 121.51965 405.50913 131.21356 402.1736 137.15499 393.20933 C 139.44817 389.66532 139.76088 388.31026 139.2397 384.45354 C 138.19734 377.46976 139.03123 376.4274 145.3896 376.4274 C 152.26915 376.4274 157.16822 373.30034 159.35717 367.6716 C 160.608 364.33608 160.71223 362.45984 159.66987 356.30994 C 158.94022 352.24475 157.3767 347.4499 156.2301 345.57367 C 153.10303 340.46613 144.45148 334.62894 137.15499 332.64846 C 131.10932 330.9807 130.69238 330.668 129.23308 326.2901 C 127.66955 322.01643 127.35684 321.70372 123.50013 321.49525 C 121.20694 321.2868 116.62058 320.66137 113.28504 320.03595 C 109.42832 319.20207 106.82243 319.20207 106.19702 319.8275 C 105.67584 320.34866 104.84196 323.57996 104.42501 327.01974 L 103.69537 333.16964 L 94.83534 333.6908 C 81.59742 334.62894 75.34329 339.00683 73.050105 348.9092 C 71.382335 356.10147 72.94587 362.25137 78.36612 368.71397 C 83.47366 374.86387 87.12191 377.46976 90.87439 377.46976 C 95.46075 377.46976 96.50311 379.0333 99.94288 391.75004 C 101.29795 396.6491 104.52925 399.5677 111.61727 401.9651 Z M 123.39589 391.54156 L 123.39589 391.54156 C 118.39258 393.31357 119.53917 393.31357 114.01469 391.9585 C 110.05374 390.91615 109.01138 390.08227 107.13514 386.434 C 105.88431 384.14084 104.32078 380.2841 103.69537 377.99094 C 102.65301 374.23846 101.71489 373.5088 95.77346 370.5902 C 89.31086 367.46314 88.89391 367.0462 86.07955 360.5836 C 82.63978 352.45322 83.05672 350.0558 88.47697 344.7398 C 91.91675 341.40425 93.48028 340.6746 99.83865 339.7365 C 106.61396 338.79836 107.55208 338.79836 110.78339 340.88307 C 115.05704 343.48896 117.5587 343.5932 122.2493 341.40425 C 126.73143 339.2153 131.83897 340.57036 139.65664 345.9906 C 153.41574 355.5803 153.62421 365.79538 140.17782 372.77916 C 134.5491 375.69776 134.02792 376.32317 132.25592 381.53495 C 130.1712 388.1018 128.81614 389.66532 123.39589 391.54156 Z" fill="#FFFFFF"/>
        </g>
        <g id="Graphic_771">
          <path d="M 106.86986 312.98598 C 105.30633 311.73515 103.74279 309.75468 103.63856 308.3996 C 103.22161 306.10643 103.37797 304.97263 107.23468 305.8065 C 109.42363 306.3277 115.15659 308.1518 121.30649 308.1518 C 127.35215 308.1518 134.37502 305.9759 134.79197 306.39284 C 135.93856 307.4352 132.72028 313.6114 130.21863 314.65375 C 128.9678 315.27916 123.86026 315.59187 118.85695 315.3834 C 111.56046 315.17493 109.26728 314.758 106.86986 312.98598 Z" fill="#FFFFFF"/>
        </g>
        <g id="Graphic_770">
          <path d="M 115.47399 296.27024 C 115.16128 295.95754 114.74434 272.713 114.74434 244.5694 C 114.6401 216.53002 114.53587 192.34737 114.53587 190.88807 C 114.53587 189.42877 114.22316 178.90098 114.01469 167.43506 C 113.70198 155.96915 113.07657 146.171 112.65963 145.75406 C 112.13845 145.23288 107.55208 144.92018 102.54877 144.92018 C 95.66923 144.92018 92.9591 145.33712 92.12522 146.48371 C 91.4998 147.52607 91.1871 153.57173 91.4998 163.47411 C 91.70827 172.02143 91.39557 180.04757 90.87439 181.50687 C 89.83203 184.11276 89.62356 184.217 78.36612 184.42546 C 67.52562 184.63393 66.691734 184.5297 65.64938 182.54922 C 63.98161 179.5264 65.85785 177.54591 70.65269 177.12897 C 74.82211 176.81626 76.17717 174.0019 72.42469 173.3765 C 66.17056 172.43837 65.64938 172.12566 65.64938 168.9986 C 65.64938 163.47411 67.31715 160.86822 71.06963 160.45128 C 75.55176 160.03434 75.44752 157.74115 70.86116 155.5522 L 67.21291 153.88444 L 67.21291 143.98206 L 67.21291 134.07968 L 71.90351 134.07968 L 76.59411 134.07968 L 76.90682 138.77028 C 77.32376 146.27524 77.94918 148.15148 80.24236 148.15148 C 82.53554 148.15148 83.89061 144.399 83.05672 140.64652 C 82.74401 139.29146 82.84825 133.35003 83.26519 127.30436 C 84.09908 115.73421 83.47366 112.71138 80.24236 112.71138 C 77.428 112.71138 76.69835 114.48339 76.59411 121.05023 C 76.59411 126.57471 76.48988 126.78319 73.67552 127.09589 C 68.98492 127.61707 67.73409 125.84507 67.73409 118.0274 C 67.73409 110.10549 68.67221 108.54196 73.57128 108.54196 C 75.34329 108.54196 77.532235 107.81231 78.26188 106.87419 C 79.408475 105.41489 79.30424 104.99795 77.63647 103.74712 C 76.59411 102.91324 74.09246 102.28782 72.111984 102.28782 C 68.776446 102.28782 68.67221 102.07935 68.98492 98.95228 C 69.29762 95.82522 69.61033 95.51251 73.67552 94.8871 C 76.17717 94.57439 78.470355 94.05321 78.78306 93.63627 C 80.13812 92.28121 78.15765 89.77955 75.34329 89.25838 C 70.444215 88.21602 69.29762 87.06943 68.98492 83.31695 C 68.567975 78.52211 70.54845 77.06281 78.470355 76.12469 C 89.41509 74.873865 89.31086 74.56116 90.14474 93.11509 C 90.45745 101.87088 90.97862 112.39867 91.29133 116.35963 C 91.4998 120.42481 91.70827 124.07306 91.70827 124.49 C 91.70827 124.90694 96.50311 125.11542 102.3403 125.01118 L 113.07657 124.69847 L 113.80622 118.96552 C 114.3274 115.83845 115.26552 103.85136 115.89093 92.38544 L 117.24599 71.53833 L 121.41541 71.85103 C 123.7086 72.059505 126.21025 72.58068 127.04414 73.10186 C 128.19073 73.72727 128.50343 87.48637 128.7119 157.63692 C 128.92038 235.70937 129.65003 281.15608 130.79662 290.0161 C 131.42203 294.60247 129.75426 296.89566 125.58484 297.52107 C 122.14506 298.04225 116.62058 297.3126 115.47399 296.27024 Z" fill="#FFFFFF"/>
        </g>
        <g id="Graphic_769">
          <path d="M 58.24865 179.21368 C 57.83171 171.60449 58.76983 128.76366 59.603715 116.04692 C 60.12489 107.08266 60.750306 95.40828 60.750306 90.09226 C 60.95878 80.50259 61.479955 78.62635 63.46043 79.77294 C 64.19008 80.29412 64.39855 83.10848 63.98161 87.48637 C 63.46043 93.94898 62.62655 131.57802 62.209604 164.308 C 62.00113 177.33744 61.479955 180.4645 59.29101 180.4645 C 58.76983 180.4645 58.35289 179.8391 58.24865 179.21368 Z" fill="#FFFFFF"/>
        </g>
        <g id="Graphic_768">
          <path d="M 94.20993 161.07544 C 95.25228 144.02616 99.52594 145.8648 98.69206 162.91409 C 98.06664 174.94887 97.39466 180.55073 95.41418 176.20484 C 94.26759 174.0319 93.79299 167.42713 94.20993 161.07544 Z" fill="#FFFFFF"/>
        </g>
        <g id="Graphic_767">
          <path d="M 132.7492 302.28856 C 130.99022 303.4612 124.54065 304.63386 121.0227 304.63386 C 117.50474 304.63386 111.05517 303.4612 108.70987 302.28856 C 106.36457 301.1159 106.15661 299.04223 108.99299 300.2264 C 111.82936 301.41054 116.9152 302.8749 121.0227 302.8749 C 125.13019 302.8749 129.81757 301.70224 131.57655 301.1159 C 133.33552 300.5296 134.50817 301.1159 132.7492 302.28856 Z" fill="#FFFFFF"/>
        </g>
      </g>
    </g>
  </g>
</svg>
