<?xml version="1.0" encoding="UTF-8" standalone="no"?>
<!DOCTYPE svg PUBLIC "-//W3C//DTD SVG 1.1//EN" "http://www.w3.org/Graphics/SVG/1.1/DTD/svg11.dtd">
<svg xmlns:xl="http://www.w3.org/1999/xlink" xmlns="http://www.w3.org/2000/svg" xmlns:dc="http://purl.org/dc/elements/1.1/" version="1.1" viewBox="58.5 99 247.5 279" width="247.5" height="279">
  <defs>
    <clipPath id="artboard_clip_path">
      <path d="M 58.5 99 L 306 99 L 306 356.0044 L 306 378 L 58.5 378 Z"/>
    </clipPath>
  </defs>
  <g id="Knot,_Heneage_(2)" stroke-opacity="1" stroke="none" stroke-dasharray="none" fill="none" fill-opacity="1">
    <title>Knot, Heneage (2)</title>
    <g id="Knot,_Heneage_(2)_Layer_2" clip-path="url(#artboard_clip_path)">
      <title>Layer 2</title>
      <g id="Group_499">
        <g id="Graphic_619">
          <path d="M 211.45712 104.82652 C 208.46766 105.73997 204.97996 107.06861 203.56827 107.73294 C 202.23962 108.39726 199.41624 108.81247 197.34023 108.72943 C 187.79056 108.31422 186.46192 108.64638 183.1403 112.30017 C 180.8982 114.79139 176.08185 116.8674 173.59063 116.36916 C 172.01286 115.95395 169.4386 116.037 167.86083 116.4522 C 165.45265 117.11652 164.70529 117.03348 163.2936 115.70483 C 161.54975 114.04402 157.06556 112.46625 151.25272 111.30368 C 148.59542 110.80544 147.34981 111.05456 145.19076 112.38321 C 142.53346 114.04402 142.28434 114.04402 138.21535 112.71537 C 133.14988 111.05456 129.99433 111.05456 126.50663 112.54929 C 123.51717 113.7949 114.29967 122.76328 114.29967 124.34105 C 114.29967 125.58666 111.72541 127.16443 109.73244 127.16443 C 107.65642 127.16443 101.01318 132.2299 101.01318 133.80767 C 101.01318 134.63808 100.4319 135.7176 99.76757 136.29889 C 98.85412 137.04626 98.77108 137.71058 99.43541 138.95619 C 100.18277 140.36788 100.01669 141.0322 98.10676 142.69301 C 94.7021 145.84856 91.6296 153.3222 92.21088 156.976 C 92.54304 158.6368 92.70912 160.62978 92.79216 161.37714 C 92.79216 162.20755 93.12433 163.03795 93.53953 163.28707 C 94.53602 163.9514 93.78865 168.10343 91.6296 173.66714 C 89.47054 179.23086 89.22142 187.11971 91.13135 190.7735 C 91.96176 192.35127 92.21088 193.846 91.79568 194.51032 C 91.46351 195.17465 90.71615 197.49978 90.13487 199.65884 C 89.30446 203.31262 89.3875 204.22607 91.13135 208.71026 C 92.21088 211.4506 94.03777 214.60614 95.03426 215.60263 C 96.36291 216.93128 96.86115 218.09384 96.44595 219.2564 C 96.19683 220.16986 96.69507 223.7406 97.60852 227.31135 C 98.85412 232.1277 99.85061 234.28675 101.92663 236.36277 C 103.9196 238.35574 104.99913 240.5148 106.1617 245.16507 C 106.9921 248.56973 107.98859 252.2235 108.32075 253.38608 C 109.48332 257.289 112.14061 260.69365 114.88095 261.77318 C 116.54176 262.4375 117.62129 263.434 117.62129 264.2644 C 117.62129 265.0948 118.61778 266.9217 119.86339 268.33338 C 121.44116 270.2433 122.52068 270.90764 123.93237 270.57548 C 125.0119 270.4094 125.67623 270.57548 125.4271 270.90764 C 125.17798 271.32284 124.26454 271.655 123.43413 271.655 C 121.44116 271.655 115.13007 277.5509 115.13007 279.46082 C 115.13007 280.29122 113.88447 281.37075 112.05757 282.1181 C 110.31372 282.86548 107.73946 284.5263 106.32777 285.85494 C 104.91609 287.26663 102.50791 289.01048 101.01318 289.75785 C 97.85764 291.33562 95.1173 295.65373 95.03426 299.22447 C 94.95122 300.47008 94.45297 301.9648 93.78865 302.46305 C 93.20737 302.9613 92.70912 303.87474 92.70912 304.45603 C 92.70912 305.12035 90.88223 306.19988 88.5571 306.94724 C 86.315 307.6946 84.23899 308.60805 83.98986 309.02326 C 83.74074 309.35542 81.99689 309.9367 80.08696 310.26887 C 78.177025 310.60103 75.68581 311.51447 74.4402 312.26184 C 71.45074 314.08873 67.21567 318.98812 65.72094 322.3928 C 65.05662 323.97056 63.97709 325.8805 63.478846 326.62786 C 62.64844 327.79042 62.81452 329.28515 64.64141 334.5167 C 67.46479 343.0699 69.87297 344.3155 72.281145 338.5857 C 72.53027 338.0044 73.19459 338.33657 73.94196 339.25002 C 75.270605 340.8278 75.270605 340.8278 76.43317 339.33306 C 78.09398 337.00793 80.00392 338.91786 80.75128 343.65117 C 81.24953 347.30496 81.83081 348.13536 86.48108 351.95523 C 89.3875 354.44644 90.05182 354.3634 90.71615 351.62306 C 91.13135 350.12833 90.88223 349.13185 90.05182 348.55056 C 88.5571 347.47104 87.31149 343.0699 88.5571 343.0699 C 88.9723 343.0699 89.3875 343.81725 89.3875 344.7307 C 89.3875 347.2219 90.96527 346.72367 91.54656 344.06637 C 91.87872 342.82077 92.37696 341.40908 92.70912 340.99387 C 93.04129 340.49563 93.53953 339.167 93.87169 337.83833 C 94.12081 336.59272 94.86818 335.59624 95.36642 335.59624 C 96.94419 335.59624 110.14764 322.06063 110.14764 320.48285 C 110.14764 319.65245 112.38974 316.82907 115.13007 314.17177 C 118.0365 311.3484 120.11251 308.60805 120.11251 307.61157 C 120.11251 306.36596 121.02595 305.53555 123.26805 304.6221 C 126.8388 303.2104 132.81771 297.39758 134.2294 293.9929 C 135.47501 291.16954 137.63407 290.33913 140.20832 291.66778 C 141.28785 292.24906 144.4434 292.99643 147.34981 293.3286 C 151.0036 293.7438 153.07961 294.40812 154.15914 295.5707 C 154.98954 296.48413 157.81292 298.228 160.47022 299.4736 C 165.70178 301.9648 165.61873 302.62913 159.72286 304.95427 C 154.9065 306.78116 151.50184 311.68056 152.08312 315.74954 C 152.58137 319.40333 151.66792 320.23373 146.76853 320.89806 C 140.45745 321.72846 136.8867 325.63137 136.13934 332.60678 C 135.80717 335.3471 136.0563 336.3436 137.46798 337.5892 C 139.46096 339.4161 139.87616 341.82428 137.96623 341.0769 C 136.55454 340.57867 136.30542 341.4921 137.55103 342.73772 C 138.13231 343.319 137.96623 344.48158 137.05278 346.22543 C 135.05981 350.21138 136.13934 357.1868 139.29488 360.17624 C 142.53346 363.24874 148.92758 364.24523 153.57785 362.41834 C 155.40475 361.67097 157.06556 361.42185 157.23164 361.83705 C 160.05502 369.892 168.94036 375.0405 176.33097 373.04753 C 180.81516 371.8019 184.55198 368.6464 185.13327 365.6569 C 185.6315 363.3318 185.88063 363.24874 191.02915 362.83354 C 195.26422 362.50138 197.00807 361.9201 199.00104 360.17624 C 200.49577 359.01367 201.90746 358.0172 202.23962 358.0172 C 203.15307 358.0172 204.81388 350.79266 204.31564 349.13185 C 204.06651 348.30144 203.4022 346.72367 202.90395 345.64414 C 202.07354 343.98333 202.15658 343.56813 203.56827 342.73772 C 204.48172 342.2395 206.72381 340.32955 208.5507 338.4196 C 211.37408 335.59624 211.87233 334.5167 211.78929 331.94245 C 211.54016 327.29218 210.12848 324.71792 205.97645 321.47934 C 202.98699 319.07116 202.32266 318.07468 202.32266 315.8326 C 202.32266 311.43143 200.1636 307.36245 197.34023 306.28292 C 194.0186 305.0373 194.18469 303.54258 197.75543 302.87826 C 200.82793 302.29697 204.48172 299.39055 205.97645 296.4011 C 206.80685 294.82332 212.70273 290.00697 214.03138 289.92393 C 214.2805 289.92393 215.1109 291.25258 215.85827 292.83035 C 217.26996 295.73677 221.2559 298.39407 225.98922 299.39055 C 227.9822 299.8888 229.14476 301.05136 231.80206 305.95076 C 234.62544 310.9332 235.87105 312.34488 239.69091 314.58697 C 245.1716 317.7425 247.16457 319.65245 247.16457 321.47934 C 247.16457 323.2232 249.98794 325.79745 254.30605 327.9565 C 257.95984 329.7834 257.95984 329.86644 259.20545 339.0009 C 259.78673 342.9038 258.7072 346.3915 257.0464 346.3915 C 256.54815 346.3915 256.6312 345.7272 257.21247 344.64766 C 257.95984 343.23597 257.8768 342.98685 256.96335 343.23597 C 255.38558 343.7342 255.13646 348.3845 256.54815 351.12482 C 258.20896 354.28036 259.1224 364.49435 257.95984 365.90604 C 255.55166 368.81246 260.61714 369.892 268.3399 368.3142 C 271.24633 367.73293 274.40187 367.40077 275.39836 367.56685 C 278.1387 368.0651 278.71998 367.40077 277.7235 364.66043 C 276.56092 361.25577 277.39133 359.59496 278.80302 362.50138 C 280.2147 365.5739 282.0416 366.2382 282.0416 363.83003 C 282.0416 362.83354 282.37376 361.42185 282.872 360.59145 C 283.61937 359.0967 283.8685 359.17976 287.60532 361.0897 C 289.76437 362.1692 291.8404 363.3318 292.2556 363.747 C 293.16904 364.66043 299.48012 361.42185 299.48012 360.0932 C 299.48012 359.5119 299.97836 358.8476 300.6427 358.59847 C 301.55613 358.2663 301.7222 357.4359 301.22397 355.7751 C 300.72573 353.86516 300.0614 353.3669 296.90586 352.86867 C 294.9129 352.5365 292.75383 351.54002 292.17255 350.79266 C 290.4287 348.3845 288.68485 341.40908 288.68485 336.7588 C 288.68485 329.6173 287.93748 327.29218 284.86498 325.4653 C 282.29072 323.97056 282.12464 323.6384 282.29072 319.5694 C 282.53984 314.08873 280.87903 310.18582 277.88957 308.85718 C 276.56092 308.2759 275.3153 307.11332 275.0662 306.28292 C 274.73403 305.0373 274.40187 304.95427 273.15626 305.70163 C 270.7481 307.19636 267.42646 305.53555 266.84518 302.5461 C 266.01477 298.4771 258.37504 294.07596 252.23004 294.07596 C 250.9014 294.07596 250.4862 293.5777 250.4862 291.83386 C 250.4862 290.58825 249.9049 287.93095 249.15754 286.02102 C 247.99497 283.1146 246.91544 282.03507 243.17862 279.95906 C 240.60436 278.6304 237.86402 277.46784 237.03362 277.46784 C 236.2032 277.46784 235.5389 276.88656 235.5389 276.22224 C 235.5389 275.5579 234.79152 274.64447 233.79504 274.06318 C 232.13422 273.23278 232.13422 273.0667 235.5389 269.74507 C 239.69091 265.6761 240.85348 263.10183 240.10612 259.44804 C 239.69091 257.03987 239.94004 256.62466 242.3482 255.37906 C 248.90842 251.9744 256.29903 243.83642 256.29903 240.0996 C 256.29903 238.93702 257.21247 238.02358 259.03937 237.19317 C 262.44403 235.78148 263.93876 234.12067 266.76214 228.4739 C 268.25687 225.5675 269.08727 222.57803 269.1703 220.2529 C 269.1703 216.84824 269.3364 216.51607 271.66153 215.85175 C 273.48842 215.43655 274.9001 214.02486 276.97613 210.53715 C 279.5504 206.30208 279.71646 205.38864 279.30126 201.07053 C 278.88606 196.58634 279.05214 196.0881 281.29424 193.92904 C 282.6229 192.68343 284.1176 190.3583 284.61586 188.78053 C 285.9445 184.87762 285.1141 175.57708 283.37025 174.24843 C 282.20768 173.33498 282.29072 172.83674 284.20066 168.93383 C 286.19363 165.03093 286.27667 164.03444 285.77843 158.71984 C 285.19714 153.15613 284.94802 152.65788 281.37728 149.08714 C 278.1387 145.84856 277.47437 144.60295 277.22525 141.4474 C 276.727 134.80416 271.8276 128.327 264.60308 124.59017 C 262.6101 123.51065 259.45457 121.01943 257.62768 119.02645 C 251.98092 112.9645 247.8289 110.97152 240.52132 110.88848 C 233.2968 110.7224 230.4734 110.14111 229.31084 108.64638 C 228.31436 107.31774 221.8372 104.1622 218.93077 103.58091 C 217.7682 103.33179 214.44658 103.91307 211.45712 104.82652 Z M 205.4782 130.90126 C 207.55422 131.23342 210.70976 131.06734 213.11794 130.48605 C 216.5226 129.65565 217.85125 129.73869 221.17287 130.81821 C 223.33192 131.56558 227.73307 132.2299 230.88862 132.31294 C 236.6184 132.47903 236.70145 132.47903 241.6839 136.96322 C 244.42423 139.45443 247.74585 141.94565 248.99146 142.60997 C 251.1505 143.77254 251.3166 144.18774 251.3166 149.08714 C 251.3166 154.23565 251.39963 154.56781 255.13646 158.6368 C 258.292 162.20755 258.87328 163.37011 258.62416 165.44613 C 258.292 167.68822 258.79024 172.08937 259.9528 177.73613 C 260.28497 179.06478 259.7037 180.47647 258.292 182.22032 C 256.38207 184.54546 256.13295 185.37586 256.38207 190.60742 L 256.6312 196.5033 L 252.06396 201.15357 C 248.078 205.3056 247.4137 206.46816 246.16808 211.94884 C 245.33767 215.3535 244.1751 218.25992 243.67686 218.426 C 243.09558 218.59209 241.01956 220.33594 239.10963 222.24587 C 235.70497 225.65053 235.5389 225.9827 235.5389 230.8821 C 235.5389 234.95108 235.28977 235.94756 234.21024 235.94756 C 232.38335 235.94756 228.14828 238.35574 224.99274 241.17912 C 222.99976 243.08905 222.16936 244.74986 221.33895 248.81885 C 220.4255 253.71824 220.17638 254.13345 217.7682 254.54865 C 216.27348 254.8808 215.1109 254.71473 214.94483 254.2165 C 214.6957 253.6352 214.19746 253.6352 213.36706 254.38257 C 212.28753 255.21297 211.70625 254.96385 209.87935 252.8048 C 208.71679 251.3931 206.39165 249.7323 204.81388 249.23405 C 202.73787 248.4867 201.40922 247.24108 200.24665 244.74986 C 199.00104 242.3417 197.42327 240.76392 194.84901 239.43527 C 192.773 238.43878 190.9461 237.11013 190.78002 236.52885 C 190.61394 236.0306 189.36834 234.28675 187.95665 232.87506 C 186.54496 231.38033 185.54847 230.05168 185.7976 229.8856 C 185.96367 229.71952 188.20577 228.64 190.78002 227.39439 C 195.76246 225.1523 198.0876 222.57803 199.91449 217.42952 C 200.82793 214.85526 200.82793 213.94182 199.91449 212.53013 C 199.00104 211.0354 199.16712 210.4541 201.40922 207.79681 C 202.8209 206.136 204.97996 203.39566 206.0595 201.65181 C 208.1355 198.5793 208.1355 198.49627 206.8899 193.67992 C 205.22908 187.2858 205.31212 185.95715 207.3051 182.55248 C 210.04543 177.90221 210.95888 171.17593 209.3811 166.02741 C 207.88638 160.79586 205.22908 156.22863 203.8174 156.22863 C 203.07003 156.22863 202.73787 154.48477 202.73787 150.16667 C 202.73787 144.85207 202.48874 143.6895 200.49577 141.11524 C 199.16712 139.28835 197.2572 137.9597 195.76246 137.71058 C 193.43732 137.21234 192.02563 135.46849 194.0186 135.46849 C 194.51685 135.46849 194.84901 135.05328 194.84901 134.472 C 194.84901 133.89072 195.8455 132.47903 197.00807 131.15038 C 198.58584 129.5726 199.58232 129.07436 200.5788 129.5726 C 201.32618 129.98781 203.48523 130.5691 205.4782 130.90126 Z M 157.48076 133.06031 C 159.22461 133.47551 160.71934 133.39247 161.38367 132.89423 C 162.048 132.31294 162.96144 132.31294 164.20705 132.97727 L 165.9509 133.97376 L 163.95792 135.38545 C 160.38718 137.79362 154.82346 144.1047 153.2457 147.50937 C 151.50184 151.16315 151.16968 156.31167 152.49833 158.71984 C 153.16265 160.0485 152.91353 161.04498 151.16968 163.61924 C 149.34279 166.44261 149.01062 168.02039 148.59542 175.90924 C 147.68197 193.0156 147.84806 196.0881 150.17319 200.57229 C 151.834 203.64479 152.16616 205.13952 151.66792 206.9664 C 150.50535 210.86931 152.91353 219.33945 156.23515 222.99324 C 157.81292 224.7371 159.30765 227.39439 159.63981 228.80608 C 159.88894 230.21777 160.6363 232.37682 161.21759 233.5394 C 162.29711 235.6154 162.29711 235.69844 158.8094 236.6119 C 153.6609 237.94054 150.00711 242.3417 150.00711 247.075 C 150.00711 250.64574 149.92407 250.72878 146.93461 251.144 C 143.28082 251.5592 138.21535 253.38608 137.38494 254.6317 C 137.05278 255.0469 136.0563 253.71824 135.14285 251.5592 C 134.2294 249.48318 132.23643 246.74284 130.57562 245.49723 C 127.83528 243.4212 127.58616 242.92297 127.58616 238.93702 C 127.58616 235.44932 127.08791 233.7885 125.09494 230.79905 C 123.76629 228.80608 121.9394 226.3979 121.02595 225.65053 C 119.6973 224.40493 119.44818 223.49148 119.86339 220.08682 C 120.36163 215.7687 119.19906 211.69972 116.87393 209.95587 C 113.5523 207.46465 113.38622 206.46816 115.21311 202.2331 C 117.37217 197.08458 116.95697 192.93255 113.71838 188.9466 L 111.31021 185.95715 L 113.71838 181.22383 C 115.87744 176.98877 116.04352 176.07532 115.54528 171.17593 C 115.21311 168.18647 114.63183 164.44964 114.13359 162.78883 C 113.38622 160.0485 113.46926 159.63329 115.87744 156.976 C 118.36866 154.3187 120.11251 150.08362 120.11251 146.84504 C 120.11251 146.01464 121.69028 144.35383 123.76629 143.02518 C 125.8423 141.77957 129.33001 138.87315 131.5721 136.54801 C 135.39197 132.6451 135.72413 132.47903 137.46798 133.72463 C 140.45745 135.63457 146.68549 135.38545 149.5919 133.14335 C 151.0036 132.06382 152.49833 131.48254 153.2457 131.8147 C 153.99306 132.06382 155.90299 132.6451 157.48076 133.06031 Z M 175.25144 254.13345 C 176.24793 255.0469 177.99178 256.2925 179.15435 256.8738 C 180.39995 257.5381 182.97421 259.86325 184.88414 262.10534 C 186.79408 264.34744 190.03266 267.1708 191.9426 268.41642 C 193.85253 269.66203 195.76246 271.07372 196.09462 271.655 C 196.42678 272.15325 197.0911 272.2363 197.6724 271.90413 C 198.25368 271.57196 197.92151 271.90413 197.0911 272.6515 C 196.17766 273.4819 195.0151 274.14622 194.35077 274.14622 C 193.10516 274.14622 188.20577 280.4573 188.20577 282.1181 C 188.20577 282.6994 186.54496 284.27717 184.55198 285.60582 L 180.8982 288.09704 L 178.57306 286.10406 C 177.24441 285.02454 174.91928 283.945 173.42455 283.61285 C 171.01637 283.1146 166.61522 279.87602 166.61522 278.6304 C 166.61522 278.3813 166.11698 277.63393 165.45265 276.9696 C 164.78833 276.38832 163.54272 274.8936 162.71232 273.81406 C 161.88191 272.73453 159.97198 271.2398 158.56029 270.49244 L 155.90299 269.1638 L 161.4667 263.8492 C 164.5392 260.85973 168.35907 257.20595 169.93684 255.62818 C 171.51461 254.0504 173.00934 252.72176 173.17543 252.63872 C 173.42455 252.63872 174.338 253.30304 175.25144 254.13345 Z M 181.06428 323.97056 C 181.97773 325.79745 182.97421 327.29218 183.30637 327.29218 C 184.88414 327.29218 184.55198 330.0325 182.64205 332.35765 C 181.06428 334.18455 180.39995 335.9284 180.39995 338.1705 C 180.39995 339.91435 180.15083 341.40908 179.81867 341.40908 C 179.56955 341.40908 177.57658 342.73772 175.41752 344.39854 L 171.51461 347.30496 L 166.44914 345.39502 C 162.29711 343.81725 161.21759 342.98685 160.71934 341.15995 C 160.13806 339.08394 160.47022 338.5857 164.124 335.9284 C 166.86434 333.93543 168.6082 331.94245 169.68772 329.3682 C 170.6842 326.96 171.92982 325.38225 173.42455 324.71792 C 174.67016 324.21968 176.24793 323.14015 177.07833 322.2267 C 178.98827 320.06765 179.23739 320.1507 181.06428 323.97056 Z M 179.98475 151.2462 C 181.06428 151.91052 181.56252 152.99004 181.56252 155.06606 C 181.56252 158.80288 182.559 160.79586 186.79408 165.11397 C 189.20225 167.68822 189.94962 168.8508 189.2853 169.6812 C 187.79056 171.67417 186.29583 181.05775 186.79408 185.8741 C 187.29232 190.3583 187.12624 190.69046 184.13678 194.34424 C 179.98475 199.49276 177.74266 205.7208 178.15786 211.4506 L 178.32394 213.94182 L 175.83272 211.0354 C 173.00934 207.79681 173.09239 207.87985 174.00583 202.98046 C 174.7532 199.07756 173.67367 195.6729 170.76725 192.93255 L 168.94036 191.27174 L 170.6842 186.20627 C 172.84326 179.89519 172.84326 178.15133 170.6842 174.16539 C 169.77076 172.42154 169.10644 170.9268 169.27252 170.76072 C 169.4386 170.67768 170.35205 170.0964 171.34853 169.59816 C 173.50759 168.51863 176.58009 162.37363 176.58009 159.21809 C 176.58009 157.88944 175.66664 156.56079 174.00583 155.31518 L 171.43157 153.48829 L 173.83975 151.99356 C 176.49705 150.16667 177.65962 150.08362 179.98475 151.2462 Z" fill="black"/>
        </g>
        <g id="Graphic_618">
          <path d="M 210.12848 108.14814 C 207.55422 109.14463 206.80685 108.89551 208.46766 107.6499 C 209.29807 106.98557 210.46064 106.73645 210.87584 106.98557 C 211.37408 107.31774 211.04192 107.81598 210.12848 108.14814 Z" fill="#FFFFFF"/>
        </g>
        <g id="Graphic_617">
          <path d="M 223.498 110.55632 C 227.06875 113.04753 232.21726 118.77733 233.21375 121.35159 C 234.37632 124.42409 232.3003 123.84281 228.48044 120.10598 C 224.3284 116.037 220.0103 113.04753 218.1834 113.04753 C 217.51909 113.04753 219.34598 114.79139 222.08632 116.95044 C 224.9097 119.19254 227.1518 121.18551 227.23483 121.51767 C 227.23483 122.76328 225.65706 122.182 223.0828 120.02294 C 221.67111 118.77733 220.25942 118.11301 219.92726 118.44517 C 219.09686 119.27558 225.3249 124.67321 227.1518 124.67321 C 228.8126 124.67321 230.2243 126.0849 229.39389 126.91531 C 228.31436 128.07788 223.0828 124.75625 217.9343 119.60774 C 214.94483 116.53524 211.6232 113.7949 210.70976 113.46274 C 208.38462 112.79841 208.46766 111.05456 210.87584 109.97503 C 217.43604 106.90253 218.1834 106.90253 223.498 110.55632 Z" fill="#FFFFFF"/>
        </g>
        <g id="Graphic_616">
          <path d="M 198.75192 114.70835 C 204.39868 116.70132 212.28753 121.93287 212.28753 123.75977 C 212.28753 124.92233 212.12145 124.92233 211.45712 123.84281 C 210.7928 122.76328 210.62672 122.84632 210.62672 124.17497 C 210.62672 125.50362 210.21152 125.6697 207.05597 125.2545 C 205.063 124.92233 202.32266 124.17497 200.99401 123.59369 C 193.43732 119.85686 190.86307 118.86037 188.62097 118.69429 C 187.29232 118.52821 186.12975 117.94693 186.12975 117.36564 C 186.12975 116.037 190.61394 113.04753 192.60692 113.04753 C 193.43732 113.04753 196.17766 113.7949 198.75192 114.70835 Z" fill="#FFFFFF"/>
        </g>
        <g id="Graphic_615">
          <path d="M 155.3217 117.2826 C 159.55677 119.1095 165.9509 124.50713 165.28657 125.6697 C 165.03745 126.0849 163.7088 125.42058 162.29711 124.25801 C 160.96846 123.09544 159.47373 122.182 159.05853 122.182 C 158.56029 122.182 159.30765 123.09544 160.55326 124.17497 C 161.79887 125.2545 162.62927 126.5001 162.29711 126.83227 C 161.88191 127.16443 160.96846 126.83227 160.13806 126.0849 C 158.14508 124.25801 152.41529 121.93287 151.75096 122.68024 C 151.50184 123.0124 151.66792 123.4276 152.16616 123.59369 C 153.91002 124.17497 156.23515 126.16794 155.7369 126.66619 C 154.32522 128.07788 145.2738 120.85335 146.02116 118.94341 C 146.18724 118.61125 148.7615 119.1095 151.91704 120.10598 C 154.98954 121.10247 157.48076 121.68375 157.48076 121.35159 C 157.48076 120.68727 156.7334 120.3551 151.33576 118.52821 C 149.50887 117.94693 147.84806 117.03348 147.68197 116.53524 C 147.18373 114.95747 151.0036 115.37267 155.3217 117.2826 Z" fill="#FFFFFF"/>
        </g>
        <g id="Graphic_614">
          <path d="M 246.66632 117.19956 C 251.39963 119.5247 255.13646 124.8393 255.80078 130.15389 C 256.216 133.30943 256.0499 134.63808 255.13646 135.38545 C 253.89085 136.38193 252.47916 135.3024 253.30957 133.97376 C 253.9739 132.81119 246.8324 120.93639 245.25463 120.68727 C 244.00902 120.43814 244.1751 121.01943 246.08504 124.09193 C 247.4137 126.0849 248.99146 129.65565 249.65578 131.98078 C 250.3201 134.55504 251.23355 136.29889 251.89788 136.29889 C 252.5622 136.29889 252.81132 136.63105 252.5622 137.1293 C 251.48267 138.87315 249.65578 137.87666 248.41017 134.8872 C 247.49673 132.72815 246.91544 132.06382 246.4172 132.81119 C 245.91896 133.6416 245.50375 133.6416 244.67335 132.56207 C 243.3447 130.9843 240.85348 126.66619 239.60787 123.84281 C 239.10963 122.68024 238.11314 120.68727 237.44882 119.35862 C 236.3693 117.36564 236.3693 116.8674 237.28274 116.28612 C 239.19267 115.04051 243.17862 115.45571 246.66632 117.19956 Z" fill="#FFFFFF"/>
        </g>
        <g id="Graphic_613">
          <path d="M 137.7171 118.19605 C 139.544 119.19254 139.46096 119.27558 135.89021 119.69078 L 132.15339 120.18902 L 136.8867 121.68375 C 141.28785 123.0124 143.19778 124.25801 142.36738 125.17146 C 142.11826 125.33754 140.62353 124.92233 138.96272 124.25801 C 137.3019 123.59369 134.72765 123.0124 133.23292 123.09544 L 130.49258 123.09544 L 134.14636 124.75625 C 136.22238 125.6697 139.71008 126.66619 142.03522 127.08139 C 145.19076 127.57963 145.85508 127.9118 144.77555 128.41004 C 143.8621 128.82524 141.37089 128.49308 138.54751 127.57963 C 135.89021 126.74923 131.5721 125.91882 128.83177 125.75274 C 126.09143 125.50362 123.51717 125.08842 123.18501 124.75625 C 121.9394 123.59369 124.26454 119.60774 126.75575 118.61125 C 130.24346 117.11652 135.55805 116.95044 137.7171 118.19605 Z" fill="#FFFFFF"/>
        </g>
        <g id="Graphic_612">
          <path d="M 213.78226 119.69078 C 214.36354 120.60423 214.52963 121.35159 214.11442 121.35159 C 213.78226 121.35159 213.0349 120.60423 212.4536 119.69078 C 211.87233 118.77733 211.70625 118.02997 212.12145 118.02997 C 212.4536 118.02997 213.20098 118.77733 213.78226 119.69078 Z" fill="#FFFFFF"/>
        </g>
        <g id="Graphic_611">
          <path d="M 175.74968 121.35159 C 177.99178 122.51416 182.06077 129.5726 182.64205 133.39247 C 183.38941 137.79362 182.39293 146.762 181.47948 143.77254 C 181.14732 142.60997 180.81516 140.2018 180.81516 138.3749 C 180.73212 136.54801 180.15083 133.89072 179.56955 132.56207 L 178.49002 130.07085 L 177.8257 132.31294 C 177.07833 135.21936 176.08185 134.63808 175.41752 130.90126 C 175.08536 129.32348 174.50407 127.82875 174.00583 127.57963 C 173.09239 126.99835 173.59063 129.5726 175.33448 134.80416 C 176.58009 138.62403 175.33448 138.95619 173.7567 135.21936 C 171.6807 130.40301 169.18948 121.93287 169.60468 121.18551 C 170.18597 120.27206 173.83975 120.3551 175.74968 121.35159 Z" fill="#FFFFFF"/>
        </g>
        <g id="Graphic_610">
          <path d="M 188.03969 123.09544 C 191.02915 124.09193 192.27475 126.33402 189.86658 126.33402 C 188.95313 126.33402 188.20577 126.66619 188.20577 127.16443 C 188.20577 127.57963 188.8701 127.99484 189.61746 127.99484 C 190.61394 127.99484 190.78002 128.24396 190.19874 128.82524 C 188.8701 130.15389 185.46543 128.49308 183.88766 125.6697 C 181.81164 122.182 183.05725 121.35159 188.03969 123.09544 Z" fill="#FFFFFF"/>
        </g>
        <g id="Graphic_609">
          <path d="M 221.58807 125.50362 C 223.0828 127.16443 222.75064 127.82875 220.59159 127.57963 C 219.92726 127.49659 218.51557 127.33051 217.51909 127.33051 C 216.43956 127.24747 215.60915 126.83227 215.60915 126.5001 C 215.60915 125.83578 218.51557 124.09193 219.76118 123.92585 C 220.0103 123.84281 220.8407 124.59017 221.58807 125.50362 Z" fill="#FFFFFF"/>
        </g>
        <g id="Graphic_608">
          <path d="M 159.55677 127.99484 C 159.8059 128.41004 159.30765 128.82524 158.3942 128.82524 C 157.39772 128.82524 156.65035 128.41004 156.65035 127.99484 C 156.65035 127.49659 157.1486 127.16443 157.81292 127.16443 C 158.47725 127.16443 159.30765 127.49659 159.55677 127.99484 Z" fill="#FFFFFF"/>
        </g>
        <g id="Graphic_607">
          <path d="M 127.08791 130.15389 C 129.9113 131.23342 117.04001 137.9597 112.14061 137.9597 C 110.64588 137.9597 109.15115 138.3749 108.90203 138.7901 C 108.23771 139.95268 105.16521 138.29186 105.16521 136.7141 C 105.16521 133.14335 121.85636 128.16092 127.08791 130.15389 Z" fill="#FFFFFF"/>
        </g>
        <g id="Graphic_606">
          <path d="M 264.0218 133.39247 C 264.35396 134.0568 264.437 137.37842 264.27092 140.86612 C 264.10484 144.27079 264.27092 147.09416 264.60308 147.09416 C 265.51653 147.09416 267.9247 141.69653 267.9247 139.7866 C 267.9247 138.87315 268.17383 137.5445 268.42295 136.79713 C 268.83815 135.63457 269.25335 135.7176 271.32937 137.21234 C 273.8206 138.95619 273.90363 140.45092 271.4124 140.45092 C 270.49896 140.45092 269.41944 141.94565 268.25687 144.76903 C 267.26038 147.1772 265.4335 149.91754 264.18788 150.83099 C 262.11187 152.40876 261.9458 152.40876 260.9493 150.99707 C 260.368 150.2497 259.20545 149.58538 258.45808 149.58538 C 257.62768 149.58538 257.21247 149.25322 257.54464 148.75498 C 257.79376 148.33977 258.54112 148.1737 259.1224 148.42281 C 260.03585 148.75498 260.45105 147.34329 260.9493 142.77606 C 261.69666 136.04977 261.69666 135.7176 260.86626 133.55855 C 260.45105 132.47903 260.70018 132.14686 261.9458 132.14686 C 262.85923 132.14686 263.77268 132.72815 264.0218 133.39247 Z" fill="#FFFFFF"/>
        </g>
        <g id="Graphic_605">
          <path d="M 168.85732 139.53747 C 169.0234 140.36788 170.35205 141.86261 171.6807 142.8591 C 173.9228 144.5199 175.25144 147.09416 173.17543 145.76552 C 172.67718 145.43335 171.2655 146.18072 170.01988 147.42633 C 167.69475 149.75146 163.21056 153.07308 160.2211 154.65086 C 157.89596 155.89646 155.81995 155.06606 155.81995 152.99004 C 155.81995 150.41579 160.13806 142.19477 161.71583 141.69653 C 162.4632 141.4474 163.7088 140.53396 164.5392 139.62051 C 166.44914 137.5445 168.27603 137.46146 168.85732 139.53747 Z" fill="#FFFFFF"/>
        </g>
        <g id="Graphic_604">
          <path d="M 257.37855 139.3714 C 256.79727 139.53747 255.80078 139.53747 255.30254 139.3714 C 254.72126 139.12227 255.13646 138.95619 256.29903 138.95619 C 257.4616 138.95619 257.8768 139.12227 257.37855 139.3714 Z" fill="#FFFFFF"/>
        </g>
        <g id="Graphic_603">
          <path d="M 194.35077 142.02869 C 196.59286 142.52693 198.5028 144.60295 196.75895 144.60295 C 196.34374 144.60295 196.01158 146.59592 195.92854 149.0041 C 195.8455 153.82045 193.52036 162.87187 192.3578 162.87187 C 190.78002 162.87187 187.37536 157.64032 187.37536 155.31518 C 187.37536 152.15964 186.04671 149.58538 184.3859 149.58538 C 183.72158 149.58538 183.38941 149.17018 183.63854 148.75498 C 183.88766 148.25673 185.05023 147.92457 186.04671 147.92457 C 187.54144 147.92457 188.12273 147.34329 188.62097 145.18423 C 189.03617 143.77254 189.2853 142.02869 189.2853 141.4474 C 189.20225 140.70004 189.7005 140.53396 190.5309 140.94916 C 191.3613 141.19828 193.02212 141.69653 194.35077 142.02869 Z" fill="#FFFFFF"/>
        </g>
        <g id="Graphic_602">
          <path d="M 111.80845 142.94214 C 111.80845 143.35734 111.22717 143.77254 110.56284 143.77254 C 109.15115 143.77254 101.01318 151.57835 101.01318 152.907 C 101.01318 153.90349 102.09271 153.40525 104.3348 151.49531 C 106.9921 149.17018 112.63886 146.18072 112.63886 147.01112 C 112.63886 147.50937 111.22717 148.83802 109.56636 149.91754 C 104.50088 153.23917 102.25879 155.23214 102.84007 155.81342 C 103.17223 156.14559 104.41784 155.64734 105.74649 154.81694 C 109.40028 152.24268 110.14764 151.91052 110.14764 152.82396 C 110.14764 153.3222 108.56987 154.7339 106.65994 155.89646 C 104.66696 157.05903 102.17575 158.96896 101.17926 160.13153 C 98.10676 163.20403 96.36291 162.37363 96.69507 157.88944 C 97.11027 151.41227 102.50791 144.18774 107.8225 142.94214 C 111.72541 142.02869 111.80845 142.02869 111.80845 142.94214 Z" fill="#FFFFFF"/>
        </g>
        <g id="Graphic_601">
          <path d="M 272.90714 145.35031 C 272.90714 148.1737 272.32586 149.17018 268.58903 152.907 C 266.18085 155.31518 264.10484 156.80991 263.93876 156.31167 C 263.77268 155.81342 265.35045 153.57133 267.42646 151.41227 C 269.50248 149.25322 271.24633 146.84504 271.24633 146.09768 C 271.24633 144.60295 272.07673 142.11173 272.57498 142.11173 C 272.74106 142.11173 272.90714 143.60646 272.90714 145.35031 Z" fill="#FFFFFF"/>
        </g>
        <g id="Graphic_600">
          <path d="M 256.29903 149.58538 C 256.29903 150.00058 255.71774 150.16667 255.05342 149.91754 C 254.3891 149.58538 253.8078 149.25322 253.8078 149.08714 C 253.8078 148.92106 254.3891 148.75498 255.05342 148.75498 C 255.71774 148.75498 256.29903 149.08714 256.29903 149.58538 Z" fill="#FFFFFF"/>
        </g>
        <g id="Graphic_599">
          <path d="M 275.8966 156.72687 C 275.97964 160.13153 274.15275 163.45315 269.7516 168.02039 C 267.17734 170.67768 265.35045 173.00282 265.6826 173.33498 C 266.59606 174.24843 273.48842 169.6812 276.14572 166.44261 C 277.5574 164.69876 278.71998 162.45667 278.71998 161.37714 C 278.71998 160.13153 279.13518 159.55025 279.7995 159.71633 C 281.0451 160.21457 281.29424 167.0239 280.04863 167.0239 C 279.5504 167.0239 276.727 169.266 273.73754 172.00633 C 270.7481 174.74667 267.75862 176.98877 267.01126 176.98877 C 265.10133 176.98877 263.27443 173.83322 263.10835 170.26248 C 262.85923 167.0239 264.10484 165.11397 270.7481 158.05552 C 274.2358 154.40173 275.81356 153.98653 275.8966 156.72687 Z" fill="#FFFFFF"/>
        </g>
        <g id="Graphic_598">
          <path d="M 161.71583 161.87538 C 159.88894 163.45315 158.31117 165.11397 158.31117 165.52917 C 158.31117 166.77478 161.30063 164.7818 164.62225 161.2941 C 166.28306 159.4672 168.02691 158.13856 168.44211 158.38768 C 169.93684 159.30113 165.9509 164.11748 161.13454 167.18998 C 157.89596 169.18295 155.48779 171.50809 154.24218 173.66714 C 153.2457 175.49404 152.2492 176.98877 152.08312 176.98877 C 151.4188 176.98877 153.74393 170.42856 155.90299 165.94437 C 157.39772 163.03795 159.3907 160.54674 160.96846 159.55025 C 165.03745 157.05903 165.5357 158.6368 161.71583 161.87538 Z" fill="#FFFFFF"/>
        </g>
        <g id="Graphic_597">
          <path d="M 104.41784 167.93734 C 102.09271 169.34903 98.68804 174.49755 100.01669 174.49755 C 100.51494 174.49755 102.00967 173.08586 103.42136 171.342 C 105.49737 168.8508 105.91257 168.60167 105.91257 169.93032 C 105.91257 170.84376 104.41784 173.08586 102.67399 174.91275 C 100.8471 176.73964 99.35237 178.4835 99.35237 178.81566 C 99.35237 180.31039 101.42838 179.3139 103.67048 176.82268 C 107.65642 172.3385 106.32777 176.2414 101.76054 182.30336 C 97.19331 188.28228 97.3594 188.28228 94.7021 183.3829 C 92.79216 179.81215 94.86818 174.5806 100.76406 167.93734 C 105.24825 162.87187 105.58041 162.70579 105.99561 164.61572 C 106.41082 166.11045 105.99561 166.94086 104.41784 167.93734 Z" fill="#FFFFFF"/>
        </g>
        <g id="Graphic_596">
          <path d="M 202.65482 175.8262 C 201.90746 178.23437 200.5788 180.89167 199.7484 181.63904 C 197.6724 183.54897 197.75543 181.9712 199.99753 178.15133 C 201.32618 175.99228 201.74138 173.83322 201.74138 170.42856 L 201.65834 165.7783 L 202.8209 168.60167 C 203.90043 171.09289 203.90043 171.84025 202.65482 175.8262 Z" fill="#FFFFFF"/>
        </g>
        <g id="Graphic_595">
          <path d="M 198.00455 173.25194 C 197.5063 179.3139 195.26422 183.88113 192.52388 184.29634 C 190.1157 184.6285 190.1157 182.8016 192.773 176.2414 C 196.84199 166.1935 198.58584 165.197 198.00455 173.25194 Z" fill="#FFFFFF"/>
        </g>
        <g id="Graphic_594">
          <path d="M 280.96207 178.81566 C 280.3808 179.14782 279.71646 178.81566 279.3843 177.98525 C 279.05214 177.23789 278.80302 176.82268 278.63694 177.15485 C 278.30478 178.73262 278.1387 179.23086 277.22525 181.38992 C 276.64396 182.63552 275.56444 183.96417 274.81707 184.29634 C 272.15977 185.37586 265.51653 189.86005 265.4335 190.44134 C 265.4335 191.52086 269.08727 191.10566 270.582 189.9431 C 271.4124 189.3618 271.74457 188.5314 271.4124 188.19924 C 271.08025 187.86708 271.4124 187.78404 272.07673 187.95012 C 273.8206 188.5314 277.64045 186.4554 278.80302 184.37938 C 279.30126 183.46593 279.88255 182.88465 280.13167 183.13377 C 280.71295 183.632 277.5574 187.701 275.23227 189.27877 C 273.40538 190.60742 263.1914 194.34424 261.53058 194.42728 C 259.9528 194.42728 260.20193 189.86005 261.9458 188.44836 C 262.69315 187.78404 265.8487 185.8741 268.9212 184.2133 C 271.91065 182.46944 275.4814 180.06127 276.727 178.73262 C 278.5539 176.73964 279.21822 176.49052 280.46383 177.23789 C 281.54336 177.90221 281.70944 178.31742 280.96207 178.81566 Z" fill="#FFFFFF"/>
        </g>
        <g id="Graphic_593">
          <path d="M 159.97198 178.8987 C 157.72988 180.89167 154.15914 186.4554 154.15914 188.03316 C 154.15914 188.5314 156.65035 186.4554 159.8059 183.3829 C 164.95441 178.31742 167.44563 176.6566 167.44563 178.4835 C 167.44563 178.8987 165.61873 180.64255 163.37664 182.46944 C 160.80238 184.46242 158.47725 187.36884 157.1486 190.19222 C 154.74042 195.00857 154.74042 196.83546 157.23164 193.09863 C 159.22461 189.9431 166.7813 182.71856 167.36259 183.29985 C 167.6117 183.54897 167.44563 183.96417 166.94738 184.29634 C 165.70178 185.20978 157.979 194.51032 156.40123 197.08458 C 154.57434 200.07404 153.6609 199.991 152.58137 196.83546 C 151.33576 193.18168 151.4188 187.45188 152.83049 184.04721 C 154.40826 180.39343 157.979 176.98877 160.30414 176.98877 C 161.96495 177.0718 161.96495 177.15485 159.97198 178.8987 Z" fill="#FFFFFF"/>
        </g>
        <g id="Graphic_592">
          <path d="M 105.41433 191.43782 C 105.66345 192.10215 104.91609 194.34424 103.83656 196.5033 C 101.17926 201.4027 101.84358 202.31614 104.83304 197.83195 C 106.07865 195.92201 107.24122 194.59336 107.49034 194.75945 C 108.32075 195.6729 106.65994 199.5758 104.25176 202.31614 C 102.75703 203.97695 101.92663 205.55472 102.25879 205.88688 C 102.59095 206.21904 104.08568 204.97343 105.66345 203.14654 C 109.06811 199.07756 109.40028 200.4062 106.07865 204.97343 C 104.75 206.80033 102.84007 209.87283 101.92663 211.78276 C 99.0202 217.34648 97.7746 216.35 97.11027 207.79681 C 96.77811 203.0635 97.02723 201.56877 98.52196 198.49627 C 100.01669 195.58985 104.00264 190.27526 104.83304 190.27526 C 104.91609 190.27526 105.16521 190.7735 105.41433 191.43782 Z" fill="#FFFFFF"/>
        </g>
        <g id="Graphic_591">
          <path d="M 164.29009 198.1641 C 163.2936 200.24012 162.21407 201.90093 161.79887 201.90093 C 160.96846 201.90093 158.31117 206.38512 158.31117 207.79681 C 158.31117 208.87634 163.79184 202.89742 165.5357 199.90796 C 166.44914 198.24715 166.53218 198.3302 166.61522 200.98749 C 166.61522 202.89742 165.86786 204.64127 164.124 206.5512 C 162.79536 208.04594 161.0515 211.20148 160.2211 213.5266 C 159.3907 215.7687 158.56029 217.67864 158.31117 217.67864 C 157.72988 217.67864 154.98954 212.6962 154.98954 211.61668 C 154.98954 211.0354 155.7369 208.21202 156.7334 205.22256 C 158.14508 200.90445 159.05853 199.40972 161.38367 197.91499 C 162.8784 196.83546 163.95792 195.6729 163.7088 195.2577 C 162.8784 193.92904 164.124 192.4343 165.20353 193.51384 C 165.86786 194.17816 165.61873 195.5068 164.29009 198.1641 Z" fill="#FFFFFF"/>
        </g>
        <g id="Graphic_590">
          <path d="M 195.67942 196.33722 C 195.67942 197.91499 191.3613 203.4787 190.1157 203.56175 C 189.03617 203.56175 185.46543 207.71377 186.04671 208.29506 C 186.628 208.87634 192.68996 205.55472 194.10165 203.8939 C 194.84901 202.98046 196.09462 201.15357 196.75895 199.82492 L 198.0876 197.3337 L 198.17063 199.49276 C 198.17063 201.07053 197.00807 202.73134 194.0186 205.55472 C 191.77651 207.63073 189.61746 209.37458 189.2853 209.37458 C 188.8701 209.37458 187.37536 210.4541 185.88063 211.8658 L 183.1403 214.27398 L 182.30989 212.11492 C 180.98124 208.62722 182.80813 204.8904 187.62448 200.90445 C 191.27827 197.91499 194.5999 195.5068 195.51334 195.34073 C 195.59638 195.2577 195.67942 195.75593 195.67942 196.33722 Z" fill="#FFFFFF"/>
        </g>
        <g id="Graphic_589">
          <path d="M 267.34342 201.48573 C 266.34693 202.15006 263.77268 203.56175 261.53058 204.55823 C 257.8768 206.21904 257.71072 206.38512 259.78673 206.71729 C 260.9493 206.88337 263.52356 206.21904 265.4335 205.22256 C 267.34342 204.22607 269.08727 203.64479 269.3364 203.8939 C 270.00072 204.55823 264.76916 207.46465 260.78322 208.54418 C 256.29903 209.78979 256.0499 210.78627 260.20193 210.4541 C 262.02883 210.37107 264.8522 209.2085 266.92822 207.71377 C 269.00423 206.30208 270.7481 205.3056 270.9972 205.47168 C 271.24633 205.80384 270.08376 206.88337 265.0183 210.86931 C 263.93876 211.78276 250.40315 215.3535 249.9049 214.9383 C 249.73882 214.68918 250.07098 212.94533 250.56923 210.95236 C 251.3166 208.21202 252.39612 206.71729 254.97038 204.80735 C 258.45808 202.2331 263.35747 200.4062 267.0943 200.32316 L 269.08727 200.24012 L 267.34342 201.48573 Z" fill="#FFFFFF"/>
        </g>
        <g id="Graphic_588">
          <path d="M 168.85732 207.21553 C 168.44211 208.54418 166.86434 208.71026 166.3661 207.5477 C 166.11698 206.80033 166.61522 206.38512 167.52867 206.38512 C 168.44211 206.38512 169.0234 206.80033 168.85732 207.21553 Z" fill="#FFFFFF"/>
        </g>
        <g id="Graphic_587">
          <path d="M 272.90714 207.21553 C 272.90714 207.46465 272.57498 207.87985 272.07673 208.12898 C 271.66153 208.3781 271.24633 208.21202 271.24633 207.79681 C 271.24633 207.29857 271.66153 206.88337 272.07673 206.88337 C 272.57498 206.88337 272.90714 207.04945 272.90714 207.21553 Z" fill="#FFFFFF"/>
        </g>
        <g id="Graphic_586">
          <path d="M 192.3578 215.43655 C 192.3578 218.67513 190.5309 221.41547 186.79408 223.98972 C 183.05725 226.48094 182.559 227.31135 184.30286 227.89263 C 184.8011 228.0587 184.3859 228.0587 183.22333 227.89263 C 176.49705 226.73006 177.99178 221.16634 186.628 215.7687 C 190.61394 213.19445 189.61746 215.9348 184.88414 220.58506 C 179.81867 225.5675 179.56955 226.89614 184.30286 223.65756 C 189.03617 220.33594 190.86307 218.17688 191.02915 215.68567 C 191.11219 213.02837 192.3578 212.77925 192.3578 215.43655 Z" fill="#FFFFFF"/>
        </g>
        <g id="Graphic_585">
          <path d="M 169.4386 215.68567 C 169.77076 216.43303 169.18948 218.34297 168.27603 219.92074 C 167.36259 221.4985 166.61522 223.57452 166.61522 224.571 C 166.61522 226.14878 166.86434 226.06574 168.27603 223.65756 C 169.18948 222.24587 170.269 221.00026 170.76725 221.00026 C 171.92982 221.00026 171.76374 221.9137 170.35205 223.82364 C 169.68772 224.7371 169.10644 226.23182 169.10644 227.14526 C 169.18948 228.80608 169.27252 228.80608 170.269 227.39439 C 172.26198 224.82013 173.09239 225.89966 171.51461 229.0552 C 170.6842 230.79905 169.93684 233.04114 169.93684 234.03763 C 169.93684 237.35925 167.69475 236.11365 165.5357 231.54641 C 161.63279 223.49148 161.63279 223.40844 164.29009 217.84472 C 166.03394 214.19094 168.44211 213.19445 169.4386 215.68567 Z" fill="#FFFFFF"/>
        </g>
        <g id="Graphic_584">
          <path d="M 110.31372 216.1839 C 110.56284 216.7652 110.0646 218.34297 109.2342 219.75465 C 108.48683 221.0833 107.57338 223.15932 107.32426 224.32189 C 106.74298 226.3979 106.74298 226.3979 108.15467 224.7371 C 108.90203 223.82364 110.23068 221.58155 111.14413 219.75465 L 112.7219 216.43303 L 112.3067 219.33945 C 111.97453 220.91722 110.97805 223.3254 110.0646 224.571 C 109.15115 225.81662 108.48683 227.47743 108.65291 228.30783 C 108.81899 229.22128 109.81548 228.2248 111.72541 225.31837 C 114.63183 220.75114 116.04352 219.92074 113.88447 223.98972 C 113.22014 225.31837 112.63886 226.73006 112.63886 227.06222 C 112.63886 227.72655 112.05757 228.39087 108.73595 231.2973 C 106.90906 232.79202 106.90906 232.79202 104.83304 230.4669 C 102.42487 227.6435 102.09271 224.48797 104.00264 220.75114 C 106.49386 215.7687 109.48332 213.6927 110.31372 216.1839 Z" fill="#FFFFFF"/>
        </g>
        <g id="Graphic_583">
          <path d="M 256.29903 222.24587 C 255.13646 222.9102 253.64173 223.49148 252.9774 223.49148 C 252.31308 223.49148 250.81835 224.32189 249.65578 225.23533 L 247.57977 226.89614 L 249.65578 226.3979 C 252.06396 225.81662 254.88734 224.65405 258.20896 222.9102 C 259.5376 222.24587 260.70018 221.83067 260.9493 222.0798 C 261.69666 222.82716 258.7072 224.48797 252.06396 227.14526 C 248.2441 228.55695 245.0055 230.3008 244.83943 230.8821 C 244.25815 232.5429 249.65578 231.38033 255.80078 228.4739 C 260.70018 226.06574 260.78322 226.06574 258.37504 228.0587 C 255.71774 230.3008 249.24058 232.9581 244.5903 233.87155 C 238.19618 235.03412 238.4453 228.4739 245.0055 225.06925 C 250.40315 222.16283 261.03234 219.58857 256.29903 222.24587 Z" fill="#FFFFFF"/>
        </g>
        <g id="Graphic_582">
          <path d="M 120.11251 233.87155 C 120.11251 234.61891 120.61075 234.86804 121.35812 234.61891 C 122.02244 234.28675 122.60372 234.53587 122.60372 235.03412 C 122.60372 235.53236 122.3546 235.86452 122.02244 235.86452 C 120.11251 235.53236 119.36514 236.36277 117.70433 240.01655 C 116.79089 242.25865 115.96048 244.58378 115.96048 245.08203 C 115.96048 246.74284 117.78737 244.91594 119.11602 241.84344 C 120.27859 239.18615 120.44467 239.1031 120.77683 240.76392 C 120.94291 241.7604 120.11251 244.58378 119.03298 246.99196 C 117.87041 249.3171 116.70784 252.14047 116.45872 253.13696 C 116.12656 254.2165 115.46224 255.0469 115.04703 255.0469 C 113.63534 255.0469 110.895 247.82236 110.81197 244.0025 C 110.81197 240.3487 113.5523 233.45635 115.13007 233.45635 C 116.37568 233.45635 116.12656 235.6154 114.71487 236.77797 C 113.30318 237.94054 112.97102 243.4212 114.29967 243.4212 C 114.79791 243.4212 115.13007 242.7569 115.13007 241.84344 C 115.13007 241.01304 115.71136 239.85047 116.37568 239.2692 C 117.04001 238.6879 117.62129 237.35925 117.62129 236.36277 C 117.62129 233.70547 118.4517 231.7125 119.36514 232.29378 C 119.78035 232.5429 120.11251 233.29027 120.11251 233.87155 Z" fill="#FFFFFF"/>
        </g>
        <g id="Graphic_581">
          <path d="M 178.40698 237.35925 C 178.07482 243.25513 179.4865 245.08203 180.31691 239.9335 C 180.64908 237.94054 181.14732 236.0306 181.39644 235.53236 C 182.22685 234.12067 182.97421 238.77094 182.22685 240.3487 C 181.81164 241.17912 181.56252 244.25162 181.64556 247.24108 C 181.7286 250.1475 181.64556 252.72176 181.39644 252.97088 C 180.8982 253.46912 176.58009 248.3206 175.00232 245.33115 C 173.67367 242.7569 173.83975 237.94054 175.41752 234.61891 C 177.49354 230.3008 178.73914 231.54641 178.40698 237.35925 Z" fill="#FFFFFF"/>
        </g>
        <g id="Graphic_580">
          <path d="M 165.70178 239.18615 C 166.3661 239.60135 166.69826 240.76392 166.44914 242.09257 C 166.20002 243.25513 166.44914 244.33466 166.94738 244.58378 C 167.44563 244.8329 166.61522 246.0785 165.03745 247.4902 C 161.71583 250.39662 160.80238 250.23054 162.79536 247.15804 C 164.45617 244.66682 164.45617 244.66682 160.38718 246.74284 C 158.56029 247.65628 156.23515 248.40365 155.23866 248.40365 C 153.32873 248.40365 153.32873 248.3206 154.57434 245.99547 C 155.7369 243.5873 161.96495 238.52182 163.7088 238.52182 C 164.20705 238.43878 165.03745 238.77094 165.70178 239.18615 Z" fill="#FFFFFF"/>
        </g>
        <g id="Graphic_579">
          <path d="M 245.4207 242.83993 C 243.84294 243.83642 241.01956 245.4142 239.0266 246.32763 C 236.70145 247.40716 235.04064 248.81885 234.37632 250.47966 C 233.37983 252.72176 232.8816 253.05392 230.2243 252.97088 C 218.51557 252.55568 233.21375 241.92648 246.66632 241.01304 C 247.74585 240.93 247.4137 241.51128 245.4207 242.83993 Z" fill="#FFFFFF"/>
        </g>
        <g id="Graphic_578">
          <path d="M 190.03266 250.9779 C 190.28178 254.2165 190.9461 257.289 191.5274 257.78723 C 192.3578 258.61764 192.44084 257.37203 192.10867 251.89135 C 191.69347 245.74635 192.19171 243.67034 193.6034 245.91243 C 193.85253 246.32763 194.26773 250.23054 194.4338 254.38257 C 194.5999 258.61764 194.93205 262.93575 195.18117 263.93223 C 195.4303 265.17784 195.18117 265.84217 194.4338 265.84217 C 192.93908 265.84217 189.03617 261.10885 189.03617 259.28196 C 189.03617 258.5346 188.53793 257.20595 187.95665 256.37554 C 187.12624 255.296 187.0432 253.71824 187.4584 250.9779 C 187.79056 248.9019 188.12273 246.6598 188.12273 246.0785 C 188.20577 245.58027 188.53793 245.08203 188.95313 245.08203 C 189.2853 245.08203 189.86658 247.73932 190.03266 250.9779 Z" fill="#FFFFFF"/>
        </g>
        <g id="Graphic_577">
          <path d="M 242.68038 247.98845 C 241.5178 249.06797 240.52132 250.31358 240.52132 250.72878 C 240.52132 251.89135 236.53537 253.46912 235.9541 252.55568 C 235.12368 251.144 236.86754 249.151 240.18916 247.57324 C 244.67335 245.49723 245.25463 245.58027 242.68038 247.98845 Z" fill="#FFFFFF"/>
        </g>
        <g id="Graphic_576">
          <path d="M 159.14157 250.06446 C 158.47725 250.5627 157.1486 250.81182 156.23515 250.81182 C 154.98954 250.81182 155.15562 250.47966 157.06556 249.64926 C 159.72286 248.4867 161.13454 248.81885 159.14157 250.06446 Z" fill="#FFFFFF"/>
        </g>
        <g id="Graphic_575">
          <path d="M 126.17447 255.37906 C 126.42359 257.9533 126.92183 260.44453 127.254 260.94277 C 128.25048 262.60358 129.33001 258.5346 128.83177 255.12993 L 128.41656 252.14047 L 130.24346 255.8773 C 131.1569 257.9533 132.15339 261.35798 132.40251 263.51703 C 132.73467 266.7556 132.48555 267.50298 130.99082 268.25034 C 128.33352 269.74507 123.76629 267.25386 122.60372 263.8492 C 121.5242 260.52757 121.9394 254.38257 123.43413 251.9744 C 125.0119 249.48318 125.59318 250.1475 126.17447 255.37906 Z" fill="#FFFFFF"/>
        </g>
        <g id="Graphic_574">
          <path d="M 204.39868 253.22 C 204.14955 253.46912 203.48523 253.22 202.90395 252.63872 C 202.15658 251.8083 202.23962 251.72527 203.4022 252.2235 C 204.2326 252.47264 204.6478 252.97088 204.39868 253.22 Z" fill="#FFFFFF"/>
        </g>
        <g id="Graphic_573">
          <path d="M 202.73787 256.95683 C 203.07003 258.03635 203.15307 261.10885 202.98699 263.76615 C 202.8209 267.50298 202.4057 268.7486 201.49226 268.7486 C 199.83145 268.7486 199.25016 264.76264 200.24665 259.44804 C 201.07705 254.71473 201.9905 253.88432 202.73787 256.95683 Z" fill="#FFFFFF"/>
        </g>
        <g id="Graphic_572">
          <path d="M 159.97198 256.54162 C 159.97198 256.95683 156.06907 258.70068 151.25272 260.44453 C 142.53346 263.60007 139.79312 265.59304 145.689 264.51352 C 147.34981 264.18135 150.00711 263.434 151.50184 262.76966 C 152.91353 262.18838 154.15914 262.0223 154.15914 262.4375 C 154.15914 263.35095 152.6644 263.93223 145.2738 265.9252 C 138.21535 267.7521 136.4715 267.41994 137.3019 264.2644 C 138.79663 258.03635 139.04576 257.87027 147.68197 256.79074 C 154.9065 255.79426 159.97198 255.71122 159.97198 256.54162 Z" fill="#FFFFFF"/>
        </g>
        <g id="Graphic_571">
          <path d="M 210.62672 257.20595 C 210.62672 258.1194 208.5507 259.61412 207.13902 259.69716 C 205.063 259.86325 205.31212 258.45156 207.55422 257.5381 C 209.79631 256.62466 210.62672 256.54162 210.62672 257.20595 Z" fill="#FFFFFF"/>
        </g>
        <g id="Graphic_570">
          <path d="M 228.89564 259.7802 C 228.8126 261.69014 218.1834 266.67257 214.11442 266.67257 C 212.4536 266.67257 212.2045 266.9217 213.11794 267.41994 C 213.78226 267.91818 215.44307 268.00122 216.85476 267.7521 C 220.0103 267.1708 231.38686 261.69014 231.38686 260.7767 C 231.38686 260.3615 231.80206 260.02933 232.38335 260.02933 C 234.21024 260.02933 230.0582 263.60007 225.57402 265.84217 C 219.67814 268.7486 213.20098 270.4094 210.29456 269.66203 C 208.30158 269.1638 208.05246 268.83163 208.46766 266.83865 C 209.132 264.34744 211.04192 262.76966 215.94131 260.69365 C 219.34598 259.28196 228.89564 258.61764 228.89564 259.7802 Z" fill="#FFFFFF"/>
        </g>
        <g id="Graphic_569">
          <path d="M 232.21726 269.1638 C 232.21726 269.579 231.55294 269.9942 230.80557 269.9942 C 229.55997 269.9942 229.47693 269.8281 230.55645 269.1638 C 232.13422 268.1673 232.21726 268.1673 232.21726 269.1638 Z" fill="#FFFFFF"/>
        </g>
        <g id="Graphic_568">
          <path d="M 142.86562 270.74156 C 141.70305 271.90413 133.56508 274.97663 131.73819 274.97663 C 130.82474 274.97663 130.07738 275.39183 130.07738 275.89007 C 130.07738 277.21872 136.4715 276.38832 140.29136 274.56142 C 142.03522 273.73102 143.61299 273.3158 143.8621 273.56494 C 144.69251 274.39534 135.97325 278.2152 132.07035 278.7965 C 127.75224 279.37778 126.75575 280.37426 129.66217 281.12163 C 130.99082 281.4538 133.31596 281.0386 135.89021 279.87602 C 138.13231 278.96257 140.45745 278.29825 141.03873 278.54737 C 141.7861 278.7965 141.53697 279.12866 140.45745 279.54386 C 139.544 279.95906 137.13582 280.95555 135.05981 281.869 C 131.32298 283.5298 125.34406 284.02805 121.9394 282.94852 C 119.6973 282.20116 119.6973 281.869 121.77332 278.46433 C 124.43062 274.06318 129.74521 271.57196 139.21184 270.07723 C 143.28082 269.4129 144.11123 269.579 142.86562 270.74156 Z" fill="#FFFFFF"/>
        </g>
        <g id="Graphic_567">
          <path d="M 220.92375 273.23278 C 221.17287 273.64798 220.8407 274.22926 220.09334 274.4784 C 218.43253 275.1427 217.68517 274.56142 218.51557 273.39886 C 219.1799 272.31933 220.34246 272.2363 220.92375 273.23278 Z" fill="#FFFFFF"/>
        </g>
        <g id="Graphic_566">
          <path d="M 215.60915 274.14622 C 215.60915 274.56142 215.19395 274.97663 214.77875 274.97663 C 214.2805 274.97663 212.53665 275.89007 210.7928 276.9696 C 209.132 278.04913 206.22557 279.37778 204.39868 279.95906 C 202.57178 280.54034 200.7449 281.2877 200.24665 281.61987 C 199.16712 282.36724 195.4303 281.37075 195.09813 280.20818 C 194.93205 279.70994 196.75895 277.9661 199.16712 276.30528 C 203.2361 273.56494 204.06651 273.3158 209.63023 273.3158 C 213.0349 273.3158 215.60915 273.64798 215.60915 274.14622 Z" fill="#FFFFFF"/>
        </g>
        <g id="Graphic_565">
          <path d="M 215.77523 277.71697 C 214.77875 280.95555 212.70273 283.19764 209.29807 284.5263 C 207.47118 285.27366 206.72381 285.3567 207.63726 284.69237 C 208.46766 284.19413 210.21152 282.86548 211.37408 281.869 L 213.53314 280.0421 L 208.71679 281.95203 C 206.0595 283.03156 203.48523 284.27717 203.07003 284.69237 C 202.57178 285.1906 200.82793 285.27366 198.75192 284.85845 C 196.84199 284.5263 195.0151 284.44325 194.68293 284.60933 C 194.35077 284.7754 193.93557 284.60933 193.68644 284.19413 C 193.43732 283.86197 196.09462 283.2807 199.66536 282.94852 C 205.22908 282.45028 206.72381 281.95203 211.04192 279.12866 C 213.78226 277.3848 216.1074 275.89007 216.19044 275.89007 C 216.27348 275.80703 216.02436 276.63744 215.77523 277.71697 Z" fill="#FFFFFF"/>
        </g>
        <g id="Graphic_564">
          <path d="M 160.80238 280.12514 C 163.21056 282.6994 164.95441 287.0175 165.70178 292.16602 C 166.53218 297.89582 165.45265 297.81278 163.79184 291.99994 C 163.04448 289.50873 161.4667 286.43622 160.38718 285.1906 L 158.31117 282.86548 L 158.8094 285.3567 C 159.14157 286.68535 160.05502 289.50873 160.88542 291.5017 C 162.71232 295.65373 162.71232 295.73677 161.79887 295.73677 C 161.38367 295.73677 160.6363 294.82332 160.13806 293.66075 C 159.14157 291.58474 154.98954 279.37778 154.98954 278.71345 C 154.98954 277.46784 159.30765 278.54737 160.80238 280.12514 Z" fill="#FFFFFF"/>
        </g>
        <g id="Graphic_563">
          <path d="M 227.23483 280.4573 C 227.23483 281.12163 226.90267 281.4538 226.40443 281.20467 C 225.98922 280.95555 225.57402 280.12514 225.57402 279.46082 C 225.57402 278.7965 225.98922 278.46433 226.40443 278.71345 C 226.90267 278.96257 227.23483 279.79298 227.23483 280.4573 Z" fill="#FFFFFF"/>
        </g>
        <g id="Graphic_562">
          <path d="M 231.13774 280.95555 C 230.88862 281.61987 230.6395 281.37075 230.6395 280.4573 C 230.55645 279.54386 230.80557 279.0456 231.0547 279.37778 C 231.30382 279.6269 231.38686 280.37426 231.13774 280.95555 Z" fill="#FFFFFF"/>
        </g>
        <g id="Graphic_561">
          <path d="M 143.36386 280.78947 C 143.36386 281.20467 143.19778 281.61987 143.0317 281.61987 C 142.78258 281.61987 142.36738 281.20467 142.11826 280.78947 C 141.86913 280.29122 142.03522 279.95906 142.45042 279.95906 C 142.94866 279.95906 143.36386 280.29122 143.36386 280.78947 Z" fill="#FFFFFF"/>
        </g>
        <g id="Graphic_560">
          <path d="M 223.83017 283.5298 C 225.24186 285.27366 225.98922 289.92393 224.82665 289.92393 C 224.3284 289.92393 223.9132 289.17656 223.9132 288.2631 C 223.9132 287.1836 223.33192 286.6023 222.2524 286.6023 C 220.4255 286.6023 220.75767 288.4292 222.91672 291.00346 C 224.4945 292.7473 223.58105 293.90988 221.8372 292.41515 C 220.50855 291.33562 218.10037 286.3532 218.10037 284.7754 C 218.10037 284.27717 219.01382 284.19413 220.25942 284.44325 C 222.00328 284.9415 222.33544 284.7754 222.00328 283.77893 C 221.33895 282.1181 222.58456 282.03507 223.83017 283.5298 Z" fill="#FFFFFF"/>
        </g>
        <g id="Graphic_559">
          <path d="M 228.8126 289.2596 C 228.89564 291.41866 228.56348 293.41163 228.06524 293.66075 C 227.567 293.9929 227.23483 291.9169 227.31787 288.09704 C 227.31787 281.37075 228.72956 282.36724 228.8126 289.2596 Z" fill="#FFFFFF"/>
        </g>
        <g id="Graphic_558">
          <path d="M 237.94706 285.7719 C 238.4453 285.7719 238.8605 286.1871 238.8605 286.6023 C 238.8605 287.10055 238.19618 287.4327 237.44882 287.26663 C 235.04064 286.85143 235.20672 290.42217 237.69794 295.8198 C 240.18916 300.96832 241.6839 300.96832 240.35524 295.8198 C 238.52835 288.67832 238.52835 288.59528 239.857 289.6748 C 241.43477 291.0865 242.76342 295.65373 243.42774 302.38 C 243.92598 308.2759 243.26166 310.26887 240.85348 309.5215 C 238.77747 308.85718 234.5424 299.3075 234.21024 294.49116 C 234.21024 293.5777 234.04416 291.33562 233.87808 289.50873 C 233.79504 287.68183 233.96112 285.43974 234.29328 284.60933 C 234.9576 283.19764 235.04064 283.19764 235.9541 284.44325 C 236.53537 285.1906 237.36578 285.7719 237.94706 285.7719 Z" fill="#FFFFFF"/>
        </g>
        <g id="Graphic_557">
          <path d="M 154.98954 287.51575 C 154.98954 288.51224 156.15211 290.75433 157.64684 292.66427 C 160.2211 295.8198 160.2211 295.90285 158.14508 294.5742 C 154.98954 292.4982 152.00008 285.7719 154.15914 285.7719 C 154.65738 285.7719 154.98954 286.51927 154.98954 287.51575 Z" fill="#FFFFFF"/>
        </g>
        <g id="Graphic_556">
          <path d="M 125.34406 287.51575 C 128.58265 288.4292 129.74521 290.2561 126.58967 289.50873 C 125.51014 289.2596 123.01893 289.4257 120.94291 289.8409 C 117.20609 290.58825 117.20609 290.58825 123.01893 290.6713 C 129.57913 290.75433 129.16393 292.41515 122.60372 292.41515 C 120.52771 292.41515 117.37217 292.83035 115.54528 293.3286 C 112.3067 294.24204 112.3067 294.32508 114.29967 295.07244 C 115.46224 295.48765 118.61778 295.65373 121.35812 295.4046 C 126.09143 295.07244 126.17447 295.07244 123.43413 296.06893 C 121.85636 296.56717 119.53122 297.56366 118.28562 298.228 C 116.37568 299.14143 115.21311 299.14143 111.47629 298.228 C 108.98507 297.6467 106.07865 297.39758 104.91609 297.72974 C 103.75352 297.97886 102.59095 297.89582 102.34183 297.48062 C 101.84358 296.73325 110.97805 288.2631 113.30318 287.26663 C 115.46224 286.43622 121.85636 286.51927 125.34406 287.51575 Z" fill="#FFFFFF"/>
        </g>
        <g id="Graphic_555">
          <path d="M 197.42327 290.5052 C 198.00455 291.0865 196.92503 291.99994 194.51685 293.1625 C 189.53442 295.48765 187.0432 295.4046 185.38239 292.83035 C 184.05374 290.83737 184.13678 290.75433 186.71104 290.00697 C 189.86658 289.01048 196.2607 289.34264 197.42327 290.5052 Z" fill="#FFFFFF"/>
        </g>
        <g id="Graphic_554">
          <path d="M 178.15786 293.07947 L 180.8982 295.4046 L 180.31691 303.2104 C 179.81867 309.85366 179.56955 310.7671 178.6561 309.5215 C 178.07482 308.77414 177.07833 305.70163 176.49705 302.71217 C 175.41752 297.31454 174.08887 296.98238 174.08887 302.04785 C 174.08887 304.87123 176.08185 310.26887 177.4105 311.09927 C 178.49002 311.7636 178.49002 313.1753 177.49354 313.1753 C 177.07833 313.1753 175.66664 311.1823 174.338 308.77414 C 172.26198 305.0373 172.01286 303.62562 172.0959 298.228 C 172.17894 294.82332 172.26198 291.75082 172.34502 291.33562 C 172.5111 290.00697 175.5836 290.9204 178.15786 293.07947 Z" fill="#FFFFFF"/>
        </g>
        <g id="Graphic_553">
          <path d="M 200.7449 293.5777 C 199.41624 295.1555 191.3613 298.228 188.62097 298.228 C 187.4584 298.228 186.54496 297.72974 186.54496 297.14846 C 186.54496 296.4011 186.37888 296.4011 185.88063 297.14846 C 185.46543 297.72974 184.8011 297.89582 184.13678 297.48062 C 182.64205 296.48413 184.71806 295.9859 190.5309 295.8198 C 193.6034 295.73677 195.8455 295.1555 198.00455 293.7438 C 201.24314 291.66778 202.4057 291.58474 200.7449 293.5777 Z" fill="#FFFFFF"/>
        </g>
        <g id="Graphic_552">
          <path d="M 109.31723 301.88177 C 111.97453 302.87826 112.05757 303.04434 110.56284 303.7917 C 109.6494 304.28995 106.49386 304.95427 103.58744 305.28643 C 98.77108 305.8677 98.43892 306.0338 99.68453 307.19636 C 100.8471 308.35893 101.59446 308.44197 105.74649 307.52853 C 108.32075 307.0303 110.56284 306.69812 110.81197 306.8642 C 111.47629 307.61157 105.99561 309.85366 103.5044 309.85366 C 97.7746 309.85366 95.9477 306.53204 99.76757 302.7952 C 102.00967 300.47008 104.75 300.22096 109.31723 301.88177 Z" fill="#FFFFFF"/>
        </g>
        <g id="Graphic_551">
          <path d="M 167.77779 305.0373 C 168.69124 308.44197 168.35907 308.9402 164.37313 310.1028 C 162.21407 310.7671 160.30414 311.7636 160.13806 312.34488 C 159.55677 314.0057 167.6117 312.67704 168.94036 310.85015 C 170.01988 309.5215 170.10293 309.5215 169.77076 311.01623 C 169.10644 314.91914 158.3942 318.40684 155.98603 315.50042 C 154.4913 313.67353 157.89596 309.18934 162.4632 306.8642 C 164.5392 305.78468 166.11698 304.53907 166.03394 304.04082 C 165.5357 302.29697 167.27955 303.29346 167.77779 305.0373 Z" fill="#FFFFFF"/>
        </g>
        <g id="Graphic_550">
          <path d="M 254.8043 306.53204 C 257.4616 308.60805 259.1224 314.4209 258.37504 318.9051 C 258.04288 320.73198 257.54464 322.47583 257.21247 322.72495 C 256.79727 322.89103 255.6347 322.06063 254.47213 320.815 C 252.5622 318.739 250.4862 311.26535 250.4862 306.28292 C 250.4862 304.373 252.31308 304.53907 254.8043 306.53204 Z" fill="#FFFFFF"/>
        </g>
        <g id="Graphic_549">
          <path d="M 191.3613 307.61157 C 191.9426 308.1098 193.02212 309.5215 193.68644 310.85015 C 195.34726 314.08873 193.93557 318.98812 190.28178 322.6419 L 187.54144 325.4653 L 186.12975 321.64542 C 185.05023 318.9051 184.8011 316.57995 185.13327 312.594 C 185.46543 309.6876 185.88063 306.94724 186.12975 306.61508 C 186.628 305.78468 189.78354 306.36596 191.3613 307.61157 Z" fill="#FFFFFF"/>
        </g>
        <g id="Graphic_548">
          <path d="M 237.78098 307.8607 C 237.53186 308.1098 236.7845 308.19285 236.2032 307.94373 C 235.5389 307.6946 235.788 307.4455 236.70145 307.4455 C 237.6149 307.36245 238.11314 307.61157 237.78098 307.8607 Z" fill="#FFFFFF"/>
        </g>
        <g id="Graphic_547">
          <path d="M 94.03777 311.5975 C 95.1173 312.594 97.19331 313.5905 98.68804 313.92265 C 101.2623 314.50393 101.34534 314.58697 99.68453 315.41738 C 98.27284 316.2478 97.3594 315.99866 94.12081 313.8396 C 91.96176 312.42792 90.46703 311.01623 90.71615 310.60103 C 91.38047 309.5215 91.96176 309.6876 94.03777 311.5975 Z" fill="#FFFFFF"/>
        </g>
        <g id="Graphic_546">
          <path d="M 109.31723 313.1753 C 109.31723 313.5905 108.56987 314.0057 107.65642 314.0057 C 106.74298 314.0057 105.99561 313.5905 105.99561 313.1753 C 105.99561 312.67704 106.74298 312.34488 107.65642 312.34488 C 108.56987 312.34488 109.31723 312.67704 109.31723 313.1753 Z" fill="#FFFFFF"/>
        </g>
        <g id="Graphic_545">
          <path d="M 272.90714 314.08873 C 274.31883 316.57995 273.57146 316.663 271.49545 314.33785 C 270.24984 312.92616 270.08376 312.34488 270.83112 312.34488 C 271.49545 312.34488 272.4089 313.09224 272.90714 314.08873 Z" fill="#FFFFFF"/>
        </g>
        <g id="Graphic_544">
          <path d="M 93.70561 317.41035 L 96.03075 320.1507 L 93.12433 321.72846 C 91.46351 322.55887 89.88574 323.80448 89.63662 324.38576 C 89.3875 325.0501 88.72318 325.63137 88.22493 325.63137 C 86.7302 325.63137 83.82378 328.953 82.49513 332.19157 C 81.58169 334.43367 81.24953 334.6828 80.75128 333.52022 C 80.08696 331.77637 86.23196 323.38927 89.13838 322.06063 C 91.46351 321.06414 91.21439 319.48637 88.72318 319.1542 C 87.64365 318.98812 86.64716 319.5694 85.98284 320.815 C 85.48459 321.89454 83.57466 324.13664 81.83081 325.8805 C 80.00392 327.62434 78.59223 329.70036 78.59223 330.53076 C 78.59223 332.6898 76.10101 334.5167 73.36067 334.35063 C 70.12209 334.18455 68.95952 332.77286 70.12209 330.44772 L 71.03554 328.5378 L 71.11858 330.6138 C 71.20162 332.2746 71.61682 331.77637 73.27763 328.20563 C 74.4402 325.7144 76.10101 322.6419 77.01446 321.31326 C 78.84135 318.82204 78.01094 318.3238 75.02148 319.9846 C 73.36067 320.815 73.27763 320.815 74.27412 319.5694 C 74.93844 318.82204 77.34662 317.24427 79.671755 316.0817 C 85.65068 313.09224 90.46703 313.50745 93.70561 317.41035 Z" fill="#FFFFFF"/>
        </g>
        <g id="Graphic_543">
          <path d="M 172.67718 315.2513 C 172.17894 316.74603 166.61522 319.3203 165.86786 318.48988 C 165.61873 318.1577 165.86786 317.7425 166.3661 317.57643 C 166.94738 317.3273 168.27603 316.4969 169.27252 315.6665 C 171.59766 313.75657 173.42455 313.50745 172.67718 315.2513 Z" fill="#FFFFFF"/>
        </g>
        <g id="Graphic_542">
          <path d="M 269.91768 318.48988 C 270.7481 320.06765 271.24633 321.89454 270.9972 322.6419 C 270.49896 323.80448 265.6826 325.38225 264.93525 324.55184 C 264.437 324.0536 267.26038 315.6665 267.9247 315.6665 C 268.17383 315.6665 269.08727 316.99515 269.91768 318.48988 Z" fill="#FFFFFF"/>
        </g>
        <g id="Graphic_541">
          <path d="M 278.71998 319.48637 C 278.71998 320.64894 278.3878 321.3963 277.88957 321.06414 C 277.47437 320.815 277.05917 319.81853 277.05917 318.9051 C 277.05917 318.07468 277.47437 317.3273 277.88957 317.3273 C 278.3878 317.3273 278.71998 318.3238 278.71998 319.48637 Z" fill="#FFFFFF"/>
        </g>
        <g id="Graphic_540">
          <path d="M 72.11506 325.79745 C 71.45074 326.46177 71.3677 326.1296 71.69986 324.71792 C 72.03202 323.6384 72.364186 323.2232 72.61331 323.8875 C 72.77939 324.4688 72.53027 325.38225 72.11506 325.79745 Z" fill="#FFFFFF"/>
        </g>
        <g id="Graphic_539">
          <path d="M 161.4667 324.21968 C 160.88542 324.80096 158.56029 325.79745 156.40123 326.37873 C 151.25272 327.62434 144.19427 331.1951 142.36738 333.4372 C 140.04224 336.26056 140.62353 336.67576 143.61299 334.43367 C 145.19076 333.18806 146.93461 332.2746 147.59893 332.2746 C 149.34279 332.2746 162.38015 327.5413 163.79184 326.37873 C 164.5392 325.79745 164.95441 325.7144 164.95441 326.2957 C 164.95441 327.5413 160.88542 330.6138 158.3942 331.11205 C 153.99306 332.10853 148.67846 334.35063 146.02116 336.26056 C 143.61299 338.08745 143.11474 338.25353 141.28785 337.25705 C 138.29839 335.67928 138.46447 331.6103 141.53697 328.70387 C 144.52643 325.8805 151.58488 323.30623 152.49833 324.80096 C 152.99657 325.54833 153.99306 325.54833 157.1486 324.55184 C 162.38015 322.97407 162.79536 322.89103 161.4667 324.21968 Z" fill="#FFFFFF"/>
        </g>
        <g id="Graphic_538">
          <path d="M 96.27987 327.87346 C 94.53602 329.6173 92.95824 330.69684 92.79216 330.3647 C 92.37696 329.3682 96.94419 324.80096 98.35588 324.80096 C 98.93716 324.80096 98.02372 326.21265 96.27987 327.87346 Z" fill="#FFFFFF"/>
        </g>
        <g id="Graphic_537">
          <path d="M 199.83145 325.54833 C 199.83145 327.5413 197.75543 331.77637 195.59638 334.01847 C 192.68996 337.09097 192.93908 337.83833 196.2607 336.09448 C 198.918 334.76583 200.82793 332.8559 200.5788 331.77637 C 200.49577 330.94597 201.5753 327.29218 201.90746 327.29218 C 202.07354 327.29218 202.73787 327.5413 203.48523 327.79042 C 205.063 328.3717 205.22908 329.7834 203.8174 329.7834 C 203.2361 329.7834 201.82442 331.77637 200.66185 334.2676 L 198.66888 338.75178 L 193.35428 339.33306 C 189.03617 339.8313 187.70752 339.66522 186.71104 338.5857 C 185.54847 337.42313 185.54847 337.09097 187.20928 335.3471 C 189.45138 332.93894 189.45138 332.60678 187.37536 332.0255 C 186.46192 331.77637 185.71455 331.1951 185.71455 330.69684 C 185.71455 329.45123 188.4549 329.53428 189.7005 330.7799 C 190.5309 331.6103 191.44435 331.11205 194.10165 328.28867 C 197.17415 325.0501 199.83145 323.80448 199.83145 325.54833 Z" fill="#FFFFFF"/>
        </g>
        <g id="Graphic_536">
          <path d="M 205.063 325.38225 C 204.48172 325.54833 203.48523 325.54833 202.98699 325.38225 C 202.4057 325.13313 202.8209 324.96704 203.98347 324.96704 C 205.14604 324.96704 205.56124 325.13313 205.063 325.38225 Z" fill="#FFFFFF"/>
        </g>
        <g id="Graphic_535">
          <path d="M 194.0186 326.46177 C 194.0186 326.87698 193.85253 327.29218 193.68644 327.29218 C 193.43732 327.29218 193.02212 326.87698 192.773 326.46177 C 192.52388 325.96353 192.68996 325.63137 193.10516 325.63137 C 193.6034 325.63137 194.0186 325.96353 194.0186 326.46177 Z" fill="#FFFFFF"/>
        </g>
        <g id="Graphic_534">
          <path d="M 88.05885 332.19157 C 85.48459 337.5892 84.40507 338.5857 85.06939 334.9319 C 85.56763 332.52374 89.3875 326.21265 89.96878 326.79394 C 90.21791 327.04306 89.30446 329.45123 88.05885 332.19157 Z" fill="#FFFFFF"/>
        </g>
        <g id="Graphic_533">
          <path d="M 273.73754 329.3682 C 273.73754 330.1986 272.8241 330.6138 270.83112 330.6138 C 269.25335 330.6138 267.67558 330.6138 267.34342 330.69684 C 267.01126 330.69684 266.59606 330.3647 266.42998 329.86644 C 266.2639 329.45123 267.42646 328.953 268.9212 328.70387 C 270.41592 328.5378 272.15977 328.28867 272.74106 328.28867 C 273.2393 328.20563 273.73754 328.70387 273.73754 329.3682 Z" fill="#FFFFFF"/>
        </g>
        <g id="Graphic_532">
          <path d="M 275.23227 333.52022 C 275.0662 333.93543 274.651 334.35063 274.15275 334.43367 C 273.73754 334.43367 271.91065 334.76583 270.24984 335.098 C 265.8487 336.01144 264.35396 334.6828 268.42295 333.4372 C 272.15977 332.2746 275.56444 332.2746 275.23227 333.52022 Z" fill="#FFFFFF"/>
        </g>
        <g id="Graphic_531">
          <path d="M 283.53633 333.76934 C 283.7024 334.35063 283.37025 334.59975 282.53984 334.2676 C 281.79248 334.01847 281.2112 333.35414 281.2112 332.93894 C 281.2112 331.8594 283.12113 332.52374 283.53633 333.76934 Z" fill="#FFFFFF"/>
        </g>
        <g id="Graphic_530">
          <path d="M 89.3875 335.7623 C 89.3875 337.09097 89.13838 337.3401 88.47405 336.67576 C 87.97581 336.17752 87.80973 335.3471 88.05885 334.84887 C 88.9723 333.4372 89.3875 333.76934 89.3875 335.7623 Z" fill="#FFFFFF"/>
        </g>
        <g id="Graphic_529">
          <path d="M 152.91353 336.42664 C 152.6644 336.84184 151.75096 337.25705 151.0036 337.25705 C 149.75799 337.25705 149.75799 337.09097 150.83752 336.42664 C 152.49833 335.3471 153.57785 335.3471 152.91353 336.42664 Z" fill="#FFFFFF"/>
        </g>
        <g id="Graphic_528">
          <path d="M 263.77268 336.42664 C 263.77268 336.84184 263.1914 337.25705 262.44403 337.25705 C 261.7797 337.25705 261.44754 336.84184 261.69666 336.42664 C 261.9458 335.9284 262.52707 335.59624 263.0253 335.59624 C 263.4405 335.59624 263.77268 335.9284 263.77268 336.42664 Z" fill="#FFFFFF"/>
        </g>
        <g id="Graphic_527">
          <path d="M 274.98315 337.25705 C 274.73403 337.67225 273.73754 338.08745 272.8241 338.08745 C 271.91065 338.08745 271.4124 337.67225 271.66153 337.25705 C 271.91065 336.7588 272.90714 336.42664 273.8206 336.42664 C 274.73403 336.42664 275.23227 336.7588 274.98315 337.25705 Z" fill="#FFFFFF"/>
        </g>
        <g id="Graphic_526">
          <path d="M 85.40155 340.16347 C 85.65068 341.32604 85.48459 342.4886 85.15243 342.73772 C 84.73723 342.98685 84.40507 341.99036 84.40507 340.6617 C 84.40507 337.50617 84.90331 337.3401 85.40155 340.16347 Z" fill="#FFFFFF"/>
        </g>
        <g id="Graphic_525">
          <path d="M 282.37376 341.0769 C 284.03457 343.56813 283.8685 347.6371 282.0416 347.6371 C 280.6299 347.6371 280.46383 351.37394 281.6264 356.10725 C 282.0416 358.0172 281.95856 358.8476 281.29424 358.8476 C 280.796 358.8476 280.3808 358.18327 280.3808 357.35286 C 280.3808 356.6055 279.7995 355.27685 279.21822 354.44644 C 278.47086 353.44996 278.22173 351.20786 278.47086 346.8067 C 278.80302 340.91083 278.71998 340.57867 277.1422 340.57867 C 276.14572 340.57867 275.3153 341.0769 275.23227 341.57516 C 274.98315 343.81725 274.81707 346.1424 274.651 350.2944 C 274.56795 354.44644 274.4849 354.61252 270.83112 356.35638 C 266.34693 358.51543 263.27443 358.10023 262.11187 355.02773 C 260.86626 351.95523 261.11538 349.6301 262.69315 347.88624 C 263.6066 346.8067 264.10484 345.06286 264.0218 342.82077 L 263.85572 339.33306 L 265.18437 341.74124 C 266.2639 343.9003 266.2639 344.5646 265.0183 348.55056 C 262.94227 355.11077 264.437 357.8511 268.83815 355.52597 C 270.7481 354.44644 270.91417 352.37043 269.1703 351.7061 C 268.25687 351.2909 268.00775 350.37746 268.42295 347.72016 C 269.3364 340.91083 269.3364 340.8278 273.07322 339.9974 C 279.13518 338.50266 280.87903 338.75178 282.37376 341.0769 Z" fill="#FFFFFF"/>
        </g>
        <g id="Graphic_524">
          <path d="M 152.49833 340.91083 C 152.00008 341.40908 152.16616 342.2395 152.99657 343.15293 C 155.23866 345.64414 153.91002 346.72367 151.4188 344.39854 C 150.09015 343.23597 148.59542 342.2395 148.01414 342.2395 C 147.34981 342.2395 146.68549 341.6582 146.35332 340.99387 C 146.02116 339.9974 146.60245 339.74826 149.5919 339.91435 C 151.834 340.08043 152.91353 340.49563 152.49833 340.91083 Z" fill="#FFFFFF"/>
        </g>
        <g id="Graphic_523">
          <path d="M 146.60245 344.39854 C 147.84806 343.65117 151.66792 349.13185 152.99657 353.533 C 154.98954 360.2593 152.99657 360.6745 146.93461 354.69557 C 144.60947 352.45347 142.45042 350.54354 142.2013 350.54354 C 141.12177 350.54354 141.7861 352.9517 143.77907 355.94117 C 144.94164 357.602 145.43988 358.8476 144.8586 358.6815 C 143.36386 358.18327 141.20481 353.86516 140.70657 350.54354 C 140.20832 347.05583 142.94866 342.4886 144.69251 343.98333 C 145.2738 344.48158 146.18724 344.64766 146.60245 344.39854 Z" fill="#FFFFFF"/>
        </g>
        <g id="Graphic_522">
          <path d="M 158.72637 347.2219 C 158.47725 347.6371 157.64684 348.0523 156.98252 348.0523 C 156.3182 348.0523 155.98603 347.6371 156.23515 347.2219 C 156.48427 346.72367 157.31468 346.3915 157.979 346.3915 C 158.64333 346.3915 158.97549 346.72367 158.72637 347.2219 Z" fill="#FFFFFF"/>
        </g>
        <g id="Graphic_521">
          <path d="M 195.4303 347.6371 C 195.26422 348.0523 193.27124 349.0488 191.02915 349.79617 C 187.0432 351.12482 187.0432 351.20786 189.2853 351.78915 C 190.69698 352.1213 192.52388 352.03827 193.68644 351.457 C 194.84901 350.95874 195.92854 350.54354 196.09462 350.54354 C 197.00807 350.54354 196.42678 353.03475 195.18117 354.19732 C 192.27475 357.1868 180.15083 354.69557 177.65962 350.62658 C 176.74617 349.2149 176.91225 348.7997 178.49002 347.6371 C 179.90171 346.5576 181.97773 346.3915 187.95665 346.5576 C 192.60692 346.72367 195.59638 347.13887 195.4303 347.6371 Z" fill="#FFFFFF"/>
        </g>
        <g id="Graphic_520">
          <path d="M 164.95441 351.37394 C 164.95441 351.78915 165.45265 352.20435 166.11698 352.20435 C 166.7813 352.20435 167.52867 352.5365 167.77779 352.9517 C 168.10995 353.3669 167.36259 353.44996 166.03394 353.1178 C 163.87488 352.5365 162.29711 350.54354 164.04096 350.54354 C 164.5392 350.54354 164.95441 350.8757 164.95441 351.37394 Z" fill="#FFFFFF"/>
        </g>
        <g id="Graphic_519">
          <path d="M 162.38015 352.9517 C 163.21056 353.7821 166.86434 355.1938 170.60117 356.0242 C 176.82921 357.4359 177.32745 357.68503 176.91225 359.34584 C 176.58009 360.59145 176.9953 361.5049 178.2409 362.41834 C 179.90171 363.5809 179.73563 363.66395 174.83624 363.24874 C 171.92982 363.08266 168.44211 362.50138 167.11347 362.08618 C 161.4667 360.34232 162.38015 362.00313 168.77428 365.15868 C 171.84678 366.57037 172.34502 367.0686 170.93333 367.15165 C 165.61873 367.2347 159.97198 360.9236 159.97198 354.9447 C 159.97198 350.8757 160.13806 350.7096 162.38015 352.9517 Z" fill="#FFFFFF"/>
        </g>
        <g id="Graphic_518">
          <path d="M 288.43572 356.8546 C 291.50822 359.01367 291.50822 359.01367 289.10005 358.51543 C 286.44275 357.8511 284.53282 356.6055 284.53282 355.44293 C 284.53282 354.3634 285.03106 354.5295 288.43572 356.8546 Z" fill="#FFFFFF"/>
        </g>
        <g id="Graphic_517">
          <path d="M 182.30989 361.0897 C 182.39293 362.08618 182.06077 363.08266 181.7286 363.3318 C 181.39644 363.49786 181.06428 361.9201 180.98124 359.8441 C 180.8982 357.0207 181.06428 356.4394 181.56252 357.602 C 181.97773 358.51543 182.30989 360.0932 182.30989 361.0897 Z" fill="#FFFFFF"/>
        </g>
        <g id="Graphic_516">
          <path d="M 272.8241 360.9236 C 271.24633 362.41834 262.94227 365.49084 262.94227 364.66043 C 262.94227 364.24523 264.60308 363.1657 266.6791 362.25226 C 268.7551 361.3388 271.08025 359.9271 271.8276 359.17976 C 272.8241 358.18327 273.32234 358.10023 273.57146 358.8476 C 273.73754 359.34584 273.40538 360.34232 272.8241 360.9236 Z" fill="#FFFFFF"/>
        </g>
        <g id="Graphic_515">
          <path d="M 265.4335 359.678 C 265.4335 360.0932 265.0183 360.5084 264.52004 360.5084 C 264.10484 360.5084 263.93876 360.0932 264.18788 359.678 C 264.437 359.17976 264.8522 358.8476 265.10133 358.8476 C 265.2674 358.8476 265.4335 359.17976 265.4335 359.678 Z" fill="#FFFFFF"/>
        </g>
        <g id="Graphic_514">
          <path d="M 257.12943 340.57867 C 257.12943 340.99387 257.54464 341.40908 257.95984 341.40908 C 258.45808 341.40908 258.79024 340.99387 258.79024 340.57867 C 258.79024 340.08043 258.45808 339.74826 257.95984 339.74826 C 257.54464 339.74826 257.12943 340.08043 257.12943 340.57867 Z" fill="black"/>
        </g>
        <g id="Graphic_513">
          <path d="M 197.34023 117.86389 C 197.34023 118.86037 204.81388 123.0124 207.63726 123.59369 C 209.87935 124.09193 210.04543 124.00889 209.132 122.84632 C 208.05246 121.51767 199.66536 117.19956 198.17063 117.19956 C 197.6724 117.19956 197.34023 117.44868 197.34023 117.86389 Z" fill="black"/>
        </g>
        <g id="Graphic_512">
          <path d="M 242.18213 125.08842 C 242.18213 125.58666 243.01254 127.24747 244.00902 128.82524 C 245.50375 131.23342 245.91896 131.48254 246.16808 130.15389 C 246.33416 129.24044 245.5868 127.74571 244.3412 126.41706 C 243.17862 125.2545 242.18213 124.67321 242.18213 125.08842 Z" fill="black"/>
        </g>
        <g id="Graphic_511">
          <path d="M 118.78386 131.8147 C 116.79089 132.6451 116.6248 132.89423 118.0365 132.97727 C 120.52771 133.22639 122.93589 132.89423 123.68325 132.14686 C 124.92886 130.9843 121.27508 130.73517 118.78386 131.8147 Z" fill="black"/>
        </g>
        <g id="Graphic_510">
          <path d="M 165.28657 141.11524 C 162.96144 142.94214 159.63981 147.92457 160.30414 148.50585 C 160.55326 148.75498 162.38015 147.5924 164.29009 145.84856 C 166.28306 144.1047 168.193 142.4439 168.52515 142.11173 C 168.85732 141.77957 168.69124 141.11524 168.10995 140.617 C 167.27955 139.95268 166.53218 140.11876 165.28657 141.11524 Z" fill="black"/>
        </g>
        <g id="Graphic_509">
          <path d="M 166.28306 145.9316 C 164.62225 147.5924 163.37664 149.08714 163.62576 149.33626 C 164.20705 149.91754 170.76725 144.68599 170.76725 143.6895 C 170.76725 142.27781 169.35556 142.94214 166.28306 145.9316 Z" fill="black"/>
        </g>
        <g id="Graphic_508">
          <path d="M 192.3578 148.50585 C 192.3578 151.99356 192.68996 154.56781 193.1882 154.56781 C 193.68644 154.56781 194.10165 154.06957 194.10165 153.48829 C 194.68293 148.00761 194.51685 145.35031 193.52036 144.02166 C 192.52388 142.69301 192.44084 143.2743 192.3578 148.50585 Z" fill="black"/>
        </g>
        <g id="Graphic_507">
          <path d="M 231.38686 250.06446 C 231.38686 250.47966 231.80206 250.89486 232.21726 250.89486 C 232.7155 250.89486 233.04767 250.47966 233.04767 250.06446 C 233.04767 249.56622 232.7155 249.23405 232.21726 249.23405 C 231.80206 249.23405 231.38686 249.56622 231.38686 250.06446 Z" fill="black"/>
        </g>
        <g id="Graphic_506">
          <path d="M 220.59159 261.85622 C 217.43604 262.68662 215.36003 264.18135 217.18692 264.18135 C 219.26294 264.18135 224.74361 262.27142 224.74361 261.52406 C 224.74361 260.69365 224.41145 260.7767 220.59159 261.85622 Z" fill="black"/>
        </g>
        <g id="Graphic_505">
          <path d="M 114.05055 297.48062 C 114.71487 298.14494 115.3792 298.14494 116.54176 297.48062 C 117.87041 296.73325 117.70433 296.6502 115.62832 296.56717 C 113.80143 296.56717 113.38622 296.8163 114.05055 297.48062 Z" fill="black"/>
        </g>
        <g id="Graphic_504">
          <path d="M 187.12624 308.77414 C 186.37888 309.43846 186.37888 317.9086 187.0432 320.3998 C 188.12273 324.4688 188.78705 321.9776 188.4549 315.41738 C 187.95665 308.1098 187.95665 307.8607 187.12624 308.77414 Z" fill="black"/>
        </g>
        <g id="Graphic_503">
          <path d="M 77.9279 322.89103 C 75.68581 326.04657 73.52675 331.4442 74.10804 332.35765 C 74.93844 333.76934 75.85189 333.105 77.34662 329.70036 C 78.26007 327.79042 80.17 325.38225 81.66473 324.21968 C 85.06939 321.64542 85.15243 320.64894 81.99689 320.64894 C 80.25304 320.64894 79.09047 321.31326 77.9279 322.89103 Z" fill="black"/>
        </g>
        <g id="Graphic_502">
          <path d="M 147.59893 326.5448 C 146.5194 326.96 145.77204 327.5413 146.02116 327.79042 C 146.27028 328.03955 147.76501 327.62434 149.25974 326.96 C 152.33225 325.63137 150.83752 325.21617 147.59893 326.5448 Z" fill="black"/>
        </g>
        <g id="Graphic_501">
          <path d="M 280.3808 345.1459 C 280.3808 345.81023 280.796 346.3915 281.2112 346.3915 C 281.70944 346.3915 282.0416 345.81023 282.0416 345.1459 C 282.0416 344.48158 281.70944 343.9003 281.2112 343.9003 C 280.796 343.9003 280.3808 344.48158 280.3808 345.1459 Z" fill="black"/>
        </g>
        <g id="Graphic_500">
          <path d="M 165.78482 359.76104 C 165.78482 360.59145 170.6842 362.1692 173.3415 362.1692 C 177.49354 362.1692 175.91576 360.84057 170.76725 360.01016 C 168.02691 359.5119 165.78482 359.42888 165.78482 359.76104 Z" fill="black"/>
        </g>
      </g>
    </g>
  </g>
</svg>
