<?xml version="1.0" encoding="UTF-8" standalone="no"?>
<!DOCTYPE svg PUBLIC "-//W3C//DTD SVG 1.1//EN" "http://www.w3.org/Graphics/SVG/1.1/DTD/svg11.dtd">
<svg xmlns:xl="http://www.w3.org/1999/xlink" xmlns="http://www.w3.org/2000/svg" xmlns:dc="http://purl.org/dc/elements/1.1/" version="1.1" viewBox="33.99687 132.33333 348.50313 97.16667" width="348.50313" height="97.16667">
  <defs>
    <clipPath id="artboard_clip_path">
      <path d="M 33.99687 132.33333 L 382.5 132.33333 L 382.5 229.5 L 33.99687 229.5 Z"/>
    </clipPath>
  </defs>
  <g id="Label_of_Five_Points" stroke-opacity="1" stroke="none" stroke-dasharray="none" fill="none" fill-opacity="1">
    <title>Label of Five Points</title>
    <g id="Label_of_Five_Points_Layer_2" clip-path="url(#artboard_clip_path)">
      <title>Layer 2</title>
      <g id="Graphic_3">
        <title>path17</title>
        <path d="M 282.6815 225.97148 L 282.87656 225.97148 L 283.0716 225.97148 L 304.6238 225.86002 C 298.2323 221.18855 294.40063 213.79078 294.2726 205.87514 L 294.2726 159.05101 L 346.10515 159.05101 L 346.10515 205.87514 C 345.97713 213.79078 342.14545 221.18855 335.75396 225.86002 L 357.30616 225.97148 L 357.5012 225.97148 L 357.69624 225.97148 L 379.24843 225.86002 C 372.85695 221.18855 369.02527 213.79078 368.89725 205.87514 L 368.89725 159.05101 L 368.9321 159.05101 L 368.9321 135.86186 L 368.89725 135.86186 L 346.10515 135.86186 L 294.2726 135.86186 L 271.47354 135.86186 L 219.64797 135.86186 L 196.8489 135.86186 L 145.01636 135.86186 L 122.22426 135.86186 L 70.39172 135.86186 L 47.634446 135.86186 L 47.599617 135.86186 L 47.599617 205.87514 C 47.471596 213.79078 43.63992 221.18855 37.248434 225.86002 L 58.80063 225.97148 L 58.99567 225.97148 L 59.19071 225.97148 L 80.7429 225.86002 C 74.35142 221.18855 70.51974 213.79078 70.39172 205.87514 L 70.39172 159.05101 L 122.22426 159.05101 L 122.22426 205.87514 C 122.09624 213.79078 118.26456 221.18855 111.87308 225.86002 L 133.42527 225.97148 L 133.62031 225.97148 L 133.81535 225.97148 L 155.36755 225.86002 C 148.97606 221.18855 145.14438 213.79078 145.01636 205.87514 L 145.01636 159.05101 L 196.8489 159.05101 L 196.8489 205.87514 C 196.72251 213.78955 192.89354 221.18708 186.50468 225.86002 L 208.0499 225.97148 L 208.24495 225.97148 L 208.44696 225.97148 L 229.9922 225.86002 C 223.60333 221.18708 219.77436 213.78955 219.64797 205.87514 L 219.64797 159.05101 L 271.47354 159.05101 L 271.47354 205.87514 C 271.34715 213.78955 267.51818 221.18708 261.12932 225.86002 L 282.6815 225.97148" fill="#FFFFFF"/>
        <path d="M 282.6815 225.97148 L 282.87656 225.97148 L 283.0716 225.97148 L 304.6238 225.86002 C 298.2323 221.18855 294.40063 213.79078 294.2726 205.87514 L 294.2726 159.05101 L 346.10515 159.05101 L 346.10515 205.87514 C 345.97713 213.79078 342.14545 221.18855 335.75396 225.86002 L 357.30616 225.97148 L 357.5012 225.97148 L 357.69624 225.97148 L 379.24843 225.86002 C 372.85695 221.18855 369.02527 213.79078 368.89725 205.87514 L 368.89725 159.05101 L 368.9321 159.05101 L 368.9321 135.86186 L 368.89725 135.86186 L 346.10515 135.86186 L 294.2726 135.86186 L 271.47354 135.86186 L 219.64797 135.86186 L 196.8489 135.86186 L 145.01636 135.86186 L 122.22426 135.86186 L 70.39172 135.86186 L 47.634446 135.86186 L 47.599617 135.86186 L 47.599617 205.87514 C 47.471596 213.79078 43.63992 221.18855 37.248434 225.86002 L 58.80063 225.97148 L 58.99567 225.97148 L 59.19071 225.97148 L 80.7429 225.86002 C 74.35142 221.18855 70.51974 213.79078 70.39172 205.87514 L 70.39172 159.05101 L 122.22426 159.05101 L 122.22426 205.87514 C 122.09624 213.79078 118.26456 221.18855 111.87308 225.86002 L 133.42527 225.97148 L 133.62031 225.97148 L 133.81535 225.97148 L 155.36755 225.86002 C 148.97606 221.18855 145.14438 213.79078 145.01636 205.87514 L 145.01636 159.05101 L 196.8489 159.05101 L 196.8489 205.87514 C 196.72251 213.78955 192.89354 221.18708 186.50468 225.86002 L 208.0499 225.97148 L 208.24495 225.97148 L 208.44696 225.97148 L 229.9922 225.86002 C 223.60333 221.18708 219.77436 213.78955 219.64797 205.87514 L 219.64797 159.05101 L 271.47354 159.05101 L 271.47354 205.87514 C 271.34715 213.78955 267.51818 221.18708 261.12932 225.86002 L 282.6815 225.97148" stroke="black" stroke-linecap="butt" stroke-linejoin="round" stroke-width="2"/>
      </g>
    </g>
  </g>
</svg>
