<?xml version="1.0" encoding="UTF-8" standalone="no"?>
<!DOCTYPE svg PUBLIC "-//W3C//DTD SVG 1.1//EN" "http://www.w3.org/Graphics/SVG/1.1/DTD/svg11.dtd">
<svg xmlns:xl="http://www.w3.org/1999/xlink" xmlns="http://www.w3.org/2000/svg" xmlns:dc="http://purl.org/dc/elements/1.1/" version="1.1" viewBox="45 63 202.5 351" width="202.5" height="351">
  <defs>
    <clipPath id="artboard_clip_path">
      <path d="M 45 63 L 247.5 63 L 247.5 360 L 219.46154 414 L 45 414 Z"/>
    </clipPath>
  </defs>
  <g id="Mandorla" stroke-opacity="1" stroke="none" stroke-dasharray="none" fill="none" fill-opacity="1">
    <title>Mandorla</title>
    <g id="Mandorla_Art" clip-path="url(#artboard_clip_path)">
      <title>Art</title>
      <g id="Graphic_70">
        <path d="M 146.25 65.25 C 132.65193 73.61026 119.82617 83.81076 108.1127 95.85148 C 31.47055 174.63411 31.47055 302.3659 108.1127 381.1485 C 119.82617 393.18924 132.65193 403.38974 146.25 411.75 C 159.84807 403.38974 172.67383 393.18924 184.3873 381.1485 C 261.02945 302.3659 261.02945 174.63411 184.3873 95.85148 C 172.67383 83.81076 159.84807 73.61026 146.25 65.25 Z" fill="#FFFFFF"/>
        <path d="M 146.25 65.25 C 132.65193 73.61026 119.82617 83.81076 108.1127 95.85148 C 31.47055 174.63411 31.47055 302.3659 108.1127 381.1485 C 119.82617 393.18924 132.65193 403.38974 146.25 411.75 C 159.84807 403.38974 172.67383 393.18924 184.3873 381.1485 C 261.02945 302.3659 261.02945 174.63411 184.3873 95.85148 C 172.67383 83.81076 159.84807 73.61026 146.25 65.25 Z" stroke="black" stroke-linecap="round" stroke-linejoin="miter" stroke-width="2"/>
      </g>
    </g>
  </g>
</svg>
