<?xml version="1.0" encoding="UTF-8" standalone="no"?>
<!DOCTYPE svg PUBLIC "-//W3C//DTD SVG 1.1//EN" "http://www.w3.org/Graphics/SVG/1.1/DTD/svg11.dtd">
<svg xmlns:xl="http://www.w3.org/1999/xlink" xmlns="http://www.w3.org/2000/svg" xmlns:dc="http://purl.org/dc/elements/1.1/" version="1.1" viewBox="33.75 60.75 297 353.25" width="297" height="353.25">
  <defs>
    <clipPath id="artboard_clip_path">
      <path d="M 33.75 60.75 L 330.75 60.75 L 330.75 252 L 216 414 L 33.75 414 Z"/>
    </clipPath>
  </defs>
  <g id="Mascle_Ploy__(2)" stroke-opacity="1" stroke="none" stroke-dasharray="none" fill="none" fill-opacity="1">
    <title>Mascle Ployé (2)</title>
    <g id="Mascle_Ploy__(2)_Layer_2" clip-path="url(#artboard_clip_path)">
      <title>Layer 2</title>
      <g id="Graphic_3">
        <path d="M 182.24627 63 C 182.24627 63 182.23576 63.036315 182.2148 63.107794 C 181.02142 66.10908 152.6278 137.21261 128.8368 168.2619 C 105.11939 199.21513 52.15594 234.49977 49.603155 236.19156 C 49.534794 236.22723 49.5 236.24513 49.5 236.24513 C 49.5 236.24513 49.50398 236.2474 49.51189 236.25193 C 49.50894 236.2539 49.507457 236.25487 49.507457 236.25487 C 49.507457 236.25487 104.95078 271.21266 129.95435 303.84444 C 153.13826 334.1014 178.29294 399.08525 181.83144 408.38345 C 182.04794 408.89544 182.17719 409.28247 182.22515 409.42664 C 182.2392 409.46887 182.24627 409.49027 182.24627 409.49027 C 182.24627 409.49027 182.24693 409.4886 182.24823 409.4853 C 182.2519 409.4951 182.25373 409.5 182.25373 409.5 C 182.25373 409.5 182.26424 409.4637 182.2852 409.3922 L 182.2852 409.3922 C 183.47858 406.3909 211.8722 335.2874 235.6632 304.2381 C 259.3806 273.28487 312.34406 238.00023 314.89685 236.30844 C 314.9652 236.27277 315 236.25487 315 236.25487 C 315 236.25487 314.99602 236.2526 314.9881 236.24807 C 314.99106 236.2461 314.99254 236.24513 314.99254 236.24513 L 314.99254 236.24513 C 314.99254 236.24513 259.54922 201.28734 234.54565 168.65556 C 211.36174 138.39858 186.20706 73.41475 182.66856 64.116545 C 182.46115 63.571515 182.328 63.217816 182.27388 63.07366 C 182.2608 63.031125 182.25373 63.00973 182.25373 63.00973 C 182.25373 63.00973 182.25307 63.011386 182.25177 63.01468 C 182.2481 63.00491 182.24627 63 182.24627 63 Z M 181.94494 363.64447 C 180 351 161.03297 311.22706 144.13622 288.04314 C 125.91328 263.03957 85.50543 236.25373 85.50543 236.25373 C 85.50543 236.25373 85.50652 236.25298 85.50867 236.25148 C 85.5029 236.248 85.5 236.24627 85.5 236.24627 C 85.5 236.24627 85.52536 236.23255 85.57518 236.20522 C 87.43568 234.90892 126.03616 207.87263 143.32174 184.15522 C 160.66094 160.36421 180 121.5 182.22434 108.0826 C 182.24785 107.76893 182.44105 108.11436 182.55506 108.85553 C 184.5 121.5 203.46703 161.27294 220.36378 184.45686 C 238.58672 209.46043 278.99457 236.24627 278.99457 236.24627 L 278.99457 236.24627 C 278.99457 236.24627 278.99348 236.24702 278.99133 236.24852 C 278.9971 236.252 279 236.25373 279 236.25373 C 279 236.25373 278.97464 236.26745 278.92482 236.29478 C 277.06432 237.59108 238.46384 264.62737 221.17826 288.34478 C 203.83906 312.1358 184.5 355.5 182.27566 364.4174 C 182.27566 364.4174 182.0782 364.34586 181.94494 363.64447 Z" fill="#FFFFFF"/>
        <path d="M 182.24627 63 C 182.24627 63 182.23576 63.036315 182.2148 63.107794 C 181.02142 66.10908 152.6278 137.21261 128.8368 168.2619 C 105.11939 199.21513 52.15594 234.49977 49.603155 236.19156 C 49.534794 236.22723 49.5 236.24513 49.5 236.24513 C 49.5 236.24513 49.50398 236.2474 49.51189 236.25193 C 49.50894 236.2539 49.507457 236.25487 49.507457 236.25487 C 49.507457 236.25487 104.95078 271.21266 129.95435 303.84444 C 153.13826 334.1014 178.29294 399.08525 181.83144 408.38345 C 182.04794 408.89544 182.17719 409.28247 182.22515 409.42664 C 182.2392 409.46887 182.24627 409.49027 182.24627 409.49027 C 182.24627 409.49027 182.24693 409.4886 182.24823 409.4853 C 182.2519 409.4951 182.25373 409.5 182.25373 409.5 C 182.25373 409.5 182.26424 409.4637 182.2852 409.3922 L 182.2852 409.3922 C 183.47858 406.3909 211.8722 335.2874 235.6632 304.2381 C 259.3806 273.28487 312.34406 238.00023 314.89685 236.30844 C 314.9652 236.27277 315 236.25487 315 236.25487 C 315 236.25487 314.99602 236.2526 314.9881 236.24807 C 314.99106 236.2461 314.99254 236.24513 314.99254 236.24513 L 314.99254 236.24513 C 314.99254 236.24513 259.54922 201.28734 234.54565 168.65556 C 211.36174 138.39858 186.20706 73.41475 182.66856 64.116545 C 182.46115 63.571515 182.328 63.217816 182.27388 63.07366 C 182.2608 63.031125 182.25373 63.00973 182.25373 63.00973 C 182.25373 63.00973 182.25307 63.011386 182.25177 63.01468 C 182.2481 63.00491 182.24627 63 182.24627 63 Z M 181.94494 363.64447 C 180 351 161.03297 311.22706 144.13622 288.04314 C 125.91328 263.03957 85.50543 236.25373 85.50543 236.25373 C 85.50543 236.25373 85.50652 236.25298 85.50867 236.25148 C 85.5029 236.248 85.5 236.24627 85.5 236.24627 C 85.5 236.24627 85.52536 236.23255 85.57518 236.20522 C 87.43568 234.90892 126.03616 207.87263 143.32174 184.15522 C 160.66094 160.36421 180 121.5 182.22434 108.0826 C 182.24785 107.76893 182.44105 108.11436 182.55506 108.85553 C 184.5 121.5 203.46703 161.27294 220.36378 184.45686 C 238.58672 209.46043 278.99457 236.24627 278.99457 236.24627 L 278.99457 236.24627 C 278.99457 236.24627 278.99348 236.24702 278.99133 236.24852 C 278.9971 236.252 279 236.25373 279 236.25373 C 279 236.25373 278.97464 236.26745 278.92482 236.29478 C 277.06432 237.59108 238.46384 264.62737 221.17826 288.34478 C 203.83906 312.1358 184.5 355.5 182.27566 364.4174 C 182.27566 364.4174 182.0782 364.34586 181.94494 363.64447 Z" stroke="black" stroke-linecap="round" stroke-linejoin="round" stroke-width="2"/>
      </g>
    </g>
  </g>
</svg>
