<?xml version="1.0" encoding="UTF-8" standalone="no"?>
<!DOCTYPE svg PUBLIC "-//W3C//DTD SVG 1.1//EN" "http://www.w3.org/Graphics/SVG/1.1/DTD/svg11.dtd">
<svg xmlns:xl="http://www.w3.org/1999/xlink" version="1.1" xmlns="http://www.w3.org/2000/svg" xmlns:dc="http://purl.org/dc/elements/1.1/" viewBox="76.5 72 211.5 274.5" width="211.5" height="274.5">
  <defs>
    <clipPath id="artboard_clip_path">
      <path d="M 76.5 72 L 288 72 L 288 346.5 L 76.5 346.5 Z"/>
    </clipPath>
  </defs>
  <g id="Mount_of_Six_Hillocks_Couped_(1)" stroke-opacity="1" stroke="none" fill="none" fill-opacity="1" stroke-dasharray="none">
    <title>Mount of Six Hillocks Couped (1)</title>
    <g id="Mount_of_Six_Hillocks_Couped_(1)_Art" clip-path="url(#artboard_clip_path)">
      <title>Art</title>
      <g id="Group_111">
        <g id="Graphic_117">
          <path d="M 215.25 122.625 C 215.25 97.56507 200.47537 77.25 182.25 77.25 C 164.02463 77.25 149.25 97.56507 149.25 122.625 L 149.25 184.5 L 182.25 213.375 L 215.25 184.5 Z" fill="#FFFFFF"/>
          <path d="M 215.25 122.625 C 215.25 97.56507 200.47537 77.25 182.25 77.25 C 164.02463 77.25 149.25 97.56507 149.25 122.625 L 149.25 184.5 L 182.25 213.375 L 215.25 184.5 Z" stroke="black" stroke-linecap="round" stroke-linejoin="round" stroke-width="2"/>
        </g>
        <g id="Graphic_116">
          <path d="M 248.25 201 C 248.25 175.94007 233.47537 155.625 215.25 155.625 C 197.02463 155.625 182.25 175.94007 182.25 201 L 182.25 262.875 L 215.25 291.75 L 248.25 262.875 Z" fill="#FFFFFF"/>
          <path d="M 248.25 201 C 248.25 175.94007 233.47537 155.625 215.25 155.625 C 197.02463 155.625 182.25 175.94007 182.25 201 L 182.25 262.875 L 215.25 291.75 L 248.25 262.875 Z" stroke="black" stroke-linecap="round" stroke-linejoin="round" stroke-width="2"/>
        </g>
        <g id="Graphic_115">
          <path d="M 182.25 201 C 182.25 175.94007 167.47537 155.625 149.25 155.625 C 131.02463 155.625 116.25 175.94007 116.25 201 L 116.25 262.875 L 149.25 291.75 L 182.25 262.875 Z" fill="#FFFFFF"/>
          <path d="M 182.25 201 C 182.25 175.94007 167.47537 155.625 149.25 155.625 C 131.02463 155.625 116.25 175.94007 116.25 201 L 116.25 262.875 L 149.25 291.75 L 182.25 262.875 Z" stroke="black" stroke-linecap="round" stroke-linejoin="round" stroke-width="2"/>
        </g>
        <g id="Graphic_114">
          <path d="M 149.25 279.375 C 149.25 254.31507 134.47537 234 116.25 234 C 98.02463 234 83.25 254.31507 83.25 279.375 L 83.25 341.25 L 149.25 341.25 Z" fill="#FFFFFF"/>
          <path d="M 149.25 279.375 C 149.25 254.31507 134.47537 234 116.25 234 C 98.02463 234 83.25 254.31507 83.25 279.375 L 83.25 341.25 L 149.25 341.25 Z" stroke="black" stroke-linecap="round" stroke-linejoin="round" stroke-width="2"/>
        </g>
        <g id="Graphic_113">
          <path d="M 215.25 279.375 C 215.25 254.31507 200.47537 234 182.25 234 C 164.02463 234 149.25 254.31507 149.25 279.375 L 149.25 341.25 L 215.25 341.25 Z" fill="#FFFFFF"/>
          <path d="M 215.25 279.375 C 215.25 254.31507 200.47537 234 182.25 234 C 164.02463 234 149.25 254.31507 149.25 279.375 L 149.25 341.25 L 215.25 341.25 Z" stroke="black" stroke-linecap="round" stroke-linejoin="round" stroke-width="2"/>
        </g>
        <g id="Graphic_112">
          <path d="M 281.25 279.375 C 281.25 254.31507 266.47537 234 248.25 234 C 230.02463 234 215.25 254.31507 215.25 279.375 L 215.25 341.25 L 281.25 341.25 Z" fill="#FFFFFF"/>
          <path d="M 281.25 279.375 C 281.25 254.31507 266.47537 234 248.25 234 C 230.02463 234 215.25 254.31507 215.25 279.375 L 215.25 341.25 L 281.25 341.25 Z" stroke="black" stroke-linecap="round" stroke-linejoin="round" stroke-width="2"/>
        </g>
      </g>
    </g>
  </g>
</svg>
