<?xml version="1.0" encoding="UTF-8" standalone="no"?>
<!DOCTYPE svg PUBLIC "-//W3C//DTD SVG 1.1//EN" "http://www.w3.org/Graphics/SVG/1.1/DTD/svg11.dtd">
<svg xmlns:xl="http://www.w3.org/1999/xlink" version="1.1" xmlns="http://www.w3.org/2000/svg" xmlns:dc="http://purl.org/dc/elements/1.1/" viewBox="38.381847 62.182295 364.21875 436.5" width="364.21875" height="436.5">
  <defs>
    <clipPath id="artboard_clip_path">
      <path d="M 38.381847 62.182295 L 402.53773 62.182295 C 402.53773 62.182295 402.6006 104.90762 402.6006 207.95107 C 402.6006 310.9945 316.7932 431.29565 220.39472 498.6823 C 123.9309 431.29565 38.437823 311.49717 38.437823 207.95107 C 38.437823 104.40497 38.381847 62.182295 38.381847 62.182295 Z"/>
    </clipPath>
  </defs>
  <g id="Mountain_(2)" stroke-opacity="1" stroke="none" fill="none" fill-opacity="1" stroke-dasharray="none">
    <title>Mountain (2)</title>
    <g id="Mountain_(2)_Layer_2" clip-path="url(#artboard_clip_path)">
      <title>Layer 2</title>
      <g id="Graphic_12">
        <text transform="translate(36 524)" fill="black">
          <tspan font-family="Cochin" font-size="12" fill="black" x="0" y="11" xml:space="preserve">A craggy peak. </tspan>
          <tspan font-family="Cochin" font-size="12" fill="black" x="0" y="30" xml:space="preserve">Default orientation: issuant from base. Proper coloration: vert.</tspan>
          <tspan font-family="Cochin" font-size="12" fill="black" x="0" y="49" xml:space="preserve">Artist: Ajir Tsagaan.</tspan>
        </text>
      </g>
      <g id="Graphic_48">
        <path d="M 127.91155 412.0649 C 155.36214 444.779 187.1498 474.0942 220.23504 497.2096 C 255.88785 472.28346 290.08405 440.079 318.97693 404.1854 C 318.3376 403.45642 317.65305 403.034 317.65305 403.034 L 316.52883 402.01014 C 315.36445 400.9662 314.13984 400.22342 313.5978 400.22342 C 313.05576 400.22342 311.85123 401.4681 310.1649 403.73664 C 309.2615 404.94117 308.1172 406.3866 307.6153 406.92864 L 306.7119 407.9324 L 306.00926 406.82827 C 304.64413 404.7404 303.39944 404.05785 302.4559 404.9211 C 302.25514 405.10177 302.01423 405.2423 301.89378 405.2423 C 301.7934 405.2423 301.09076 403.9173 300.3279 402.27113 C 298.88246 399.11927 296.0719 393.5985 294.7469 391.28982 C 293.1007 388.41903 291.89618 387.39518 290.8924 388.05767 C 290.63142 388.23835 290.25 388.65993 290.0894 389.0012 C 289.9087 389.3425 289.6678 389.5834 289.54735 389.54326 C 289.4269 389.5031 288.42312 388.1179 287.2989 386.4717 C 284.12696 381.8142 281.9588 379.5256 280.43307 379.22445 C 279.48952 379.04377 278.82703 379.72633 278.14446 381.6536 C 277.5422 383.33992 277.52212 383.33992 277.18083 381.4729 C 277.00015 380.52935 276.77932 380.12784 276.07668 379.36497 C 274.97253 378.2006 274.89223 378.0199 274.0089 375.4904 C 273.0252 372.6999 272.34264 370.35107 271.11803 365.59318 C 270.01388 361.297 268.88965 357.6232 268.2874 356.41867 C 267.90595 355.6558 267.40406 355.3948 266.44044 355.4149 C 266.07908 355.4149 265.79802 355.27437 265.61734 354.9933 C 265.45674 354.7524 264.7541 352.64448 264.03138 350.3358 C 262.26473 344.53397 260.9799 341.54272 258.99243 338.4511 C 256.70382 334.9379 256.9648 335.0784 253.31106 335.37954 C 250.68117 335.62045 250.17928 335.60037 248.89445 335.3193 C 246.32478 334.73713 245.06003 333.87388 244.15663 332.0671 C 243.99602 331.7258 243.29338 329.87885 242.6108 327.9516 C 240.96462 323.33424 239.5995 320.54374 237.51163 317.65287 C 234.94197 314.0995 230.52536 308.83972 229.5818 308.2174 C 228.63826 307.59504 228.45758 307.25376 227.19283 303.6201 C 225.80762 299.6652 225.58678 299.344 221.79251 296.0717 C 221.00957 295.38913 220.18647 294.82702 219.94557 294.82702 C 219.72474 294.82702 218.84141 295.4293 217.97817 296.17208 C 214.30435 299.344 214.20397 299.5046 212.49755 304.32273 C 211.75476 306.3905 211.27295 307.43444 210.93167 307.73557 C 207.59913 310.62644 201.87761 317.8737 199.87006 321.7282 C 199.32802 322.77212 198.46478 324.79975 197.94281 326.2452 C 195.91519 331.9868 195.63413 332.58905 194.63035 333.59282 C 193.88756 334.3356 193.38567 334.63675 192.34175 334.95796 C 190.3342 335.5803 189.29027 335.6606 186.3191 335.37954 C 183.18732 335.0784 182.96649 335.13864 182.10324 336.62422 C 181.82218 337.10603 181.09946 338.25034 180.4972 339.15374 C 179.21237 341.10106 177.68663 344.61427 176.6427 347.9669 C 176.2412 349.2718 175.53855 351.46002 175.09689 352.84523 L 174.25372 355.35467 L 173.39047 355.3948 C 172.44692 355.4149 172.06549 355.6558 171.6439 356.4789 C 171.08179 357.56297 169.9174 361.35725 168.65265 366.2356 C 167.44812 370.8329 166.00268 375.5707 165.23981 377.39757 C 165.05914 377.7991 164.45687 378.64226 163.91483 379.2445 C 163.23226 379.9873 162.89098 380.5695 162.81068 381.09147 C 162.73038 381.51305 162.60992 382.2157 162.52962 382.65736 L 162.3891 383.4604 L 161.84705 381.83426 C 161.00388 379.36497 160.22094 378.7627 158.7755 379.5055 C 157.20961 380.30852 155.30244 382.5369 152.07028 387.33495 C 151.24719 388.55956 150.46424 389.56333 150.36386 389.5834 C 150.24341 389.5834 149.98243 389.2622 149.7616 388.8607 C 149.29986 388.0175 148.83813 387.7164 148.17563 387.89706 C 147.51314 388.05767 146.28854 389.40273 145.34499 390.9887 C 143.07646 394.88334 137.53562 406.3866 135.40761 411.66646 L 135 412.35417 C 135 412.35417 134.19698 411.95266 133.37388 411.2701 C 131.36633 409.58375 130.8409 408.99924 129.9375 408.97917 C 129.61857 408.97077 128.77978 410.318 127.91155 412.0649 Z" fill="black"/>
      </g>
      <g id="Graphic_46">
        <path d="M 134.253 419.4738 C 147.17452 434.2753 160.96464 448.3127 175.3276 461.31335 C 176.48813 459.73284 177.2646 458.4424 177.32527 458.4424 C 177.42565 458.4424 178.08814 457.55907 178.83093 456.4549 C 180.37675 454.1864 182.50475 451.7974 183.64905 451.0747 L 184.45207 450.5728 L 184.31155 448.7459 C 184.25132 447.72207 184.13087 445.67437 184.07064 444.1888 L 183.95019 441.4786 L 184.95396 439.87255 C 185.51608 438.9892 186.56 437.3631 187.26264 436.25896 C 187.98536 435.1548 188.7683 433.89005 189.0293 433.4283 L 189.49103 432.6052 L 189.1096 428.2087 C 188.90884 425.77954 188.80846 423.47086 188.88876 423.04927 C 188.98914 422.48716 189.39065 421.90497 190.45465 420.78074 C 192.7031 418.41183 194.57013 416.82587 195.13224 416.82587 C 195.77466 416.82587 198.525 419.1145 198.9466 419.9978 C 199.28787 420.7406 199.38825 422.1459 199.16742 422.8686 C 199.06704 423.1296 199.16742 423.73184 199.40833 424.37426 C 199.62916 424.93637 199.91021 426.10075 200.05074 426.92385 C 200.19127 427.74694 200.37195 428.63026 200.47233 428.89125 L 200.653 429.353 L 201.35565 428.81094 C 202.56018 427.88747 203.22267 428.3693 203.56395 430.417 C 203.7647 431.58136 204.78856 433.5086 205.77226 434.5726 C 207.09724 435.998 207.4586 436.8813 208.78359 442.08085 C 209.62676 445.4134 210.10857 446.91905 210.30932 446.9592 C 210.53016 446.99935 216.65318 442.7032 219.263 440.67557 C 219.62436 440.3945 220.06602 440.1737 220.28685 440.1737 C 220.50768 440.1737 221.17017 440.8161 221.99327 441.81987 C 223.31825 443.46606 224.56293 444.6706 228.75871 448.40464 C 232.73366 451.91785 232.3723 451.49627 232.3723 452.6807 C 232.3723 453.2629 232.23178 454.22653 232.07117 454.8288 C 231.58936 456.6155 231.6496 456.91665 232.55299 457.33824 C 233.75752 457.8803 234.11887 458.38216 234.64084 460.34956 C 235.10257 462.09613 235.20295 462.25674 237.35103 464.96693 C 238.57564 466.51274 240.36236 468.80135 241.34606 470.0661 C 242.32976 471.33087 243.2733 472.4551 243.4339 472.55547 C 243.65463 472.6879 244.954 475.28005 247.24336 476.7137 C 268.03506 459.6664 287.9483 440.32985 306.15246 419.47907 C 305.5471 418.51486 305.04564 417.8988 305.04564 417.80957 C 305.04564 417.58874 303.72065 413.97515 302.89756 411.98767 C 300.4885 406.10555 294.0242 392.89586 292.55867 390.84816 C 291.7958 389.7641 291.4746 389.6035 291.2939 390.1656 C 290.83218 391.61103 289.48712 392.0527 288.54357 391.02884 C 288.2625 390.7277 287.05798 389.04137 285.85345 387.27472 C 283.78568 384.2433 281.5573 381.5733 280.69405 381.11154 C 280.3929 380.971 280.2524 380.971 280.13193 381.17177 C 280.03156 381.33237 279.4092 383.1191 278.74672 385.1668 C 277.58234 388.7001 277.5422 388.98114 277.5422 390.8883 C 277.5422 393.197 277.02023 402.3916 276.73917 405.3226 C 276.61872 406.4067 276.53842 408.13317 276.53842 409.15702 C 276.53842 411.52593 276.2172 412.4494 275.3941 412.4695 C 274.9926 412.4695 274.4907 411.82707 274.65132 411.4858 C 274.73162 411.3051 274.87215 409.85967 274.95245 408.25363 C 275.03276 406.6476 275.19336 404.29875 275.3138 403.034 C 275.91608 396.50946 276.03653 382.75773 275.4945 381.37252 C 275.3941 381.09147 274.97253 380.4892 274.53087 380.02747 C 274.10928 379.56573 273.58732 378.843 273.3665 378.40135 C 272.704 377.07637 270.99758 371.61583 269.71275 366.69733 C 269.05025 364.1076 268.12678 360.87543 267.68512 359.5103 L 266.86202 357.0611 L 266.19953 357.0611 C 264.4329 357.0611 264.3526 356.94063 262.50564 350.8979 C 261.82307 348.66953 260.77915 345.63812 260.1568 344.1726 C 259.13295 341.68325 257.4466 338.79238 256.94472 338.65185 C 256.8042 338.6117 256.68374 339.0935 256.58337 339.97683 C 256.4027 341.9643 255.419 346.8025 254.47544 350.2354 C 254.03378 351.84146 253.71257 353.1865 253.75272 353.2066 C 253.79287 353.24674 254.15423 352.90546 254.55574 352.4638 C 254.97732 352.00206 255.419 351.6407 255.53944 351.6407 C 256.44284 351.6407 257.06518 353.4475 258.04888 358.80766 C 259.07273 364.40872 259.0928 364.79016 258.87197 369.04616 L 258.65114 372.92074 L 259.3538 377.49795 C 259.7553 380.0074 260.25718 384.0827 260.478 386.5721 C 260.71892 389.06144 261.04013 392.57466 261.2208 394.40153 C 261.4015 396.389 261.542 400.04274 261.5621 403.5359 C 261.58217 408.6953 261.52194 409.6589 261.1405 412.06797 C 260.03635 418.7732 259.79545 422.6277 260.1568 427.88747 C 260.29733 430.0155 260.478 431.8022 260.51816 431.84235 C 260.5784 431.90257 261.18066 431.2401 261.8833 430.35676 C 263.6098 428.1886 263.6901 428.16853 266.74157 428.16853 C 269.45176 428.1886 269.7529 428.30906 269.31124 429.13215 C 269.0101 429.71434 267.66504 429.9753 265.99878 429.8348 L 264.55334 429.69427 L 262.3651 432.3844 C 261.16058 433.8499 259.5947 435.85745 258.87197 436.82107 C 257.22578 439.04945 256.4629 439.31043 255.70004 437.9453 C 254.95725 436.60024 255.03755 436.58017 253.5319 438.40704 C 252.74894 439.31043 251.78532 440.59527 251.3838 441.2377 C 250.96222 441.8801 250.4804 442.4623 250.3198 442.5225 C 249.9183 442.66304 249.35618 442.3619 249.27588 441.9403 C 249.07513 440.93655 254.13415 434.7533 255.158 434.7533 C 255.59967 434.7533 256.24208 435.35556 256.76404 436.25896 C 256.94472 436.5601 257.14548 436.3995 258.14925 435.0745 C 259.23333 433.6692 259.31363 433.48854 259.0928 433.0268 C 258.71137 432.18363 258.41024 427.8473 258.4303 423.41063 C 258.4303 419.63644 258.5106 418.65274 259.1731 414.1759 C 260.45794 405.44306 260.37764 401.3276 258.47046 382.75773 C 258.35 381.59336 258.00873 379.28467 257.72767 377.6385 C 257.24586 374.86806 257.2057 374.1654 257.18563 368.6045 C 257.16555 362.883 257.14548 362.44132 256.60344 359.6709 C 255.9008 356.01716 255.45914 354.21037 255.25838 354.29067 C 255.17808 354.3308 254.4955 355.05354 253.73264 355.9168 C 252.26713 357.5429 252.1266 357.82396 250.13913 363.14397 L 249.39633 365.13144 L 249.7577 366.35605 C 250.0789 367.44012 250.13913 368.2632 250.09898 372.51923 C 250.0789 377.8593 249.89822 378.98354 249.11528 379.104 C 248.3524 379.20437 248.2721 378.82294 248.4327 374.848 C 248.5933 370.79273 248.4327 367.3598 248.05128 366.43635 C 247.77022 365.7337 247.77022 364.6697 248.0312 364.04736 C 251.68494 355.3145 254.5156 345.076 255.17808 338.23026 L 255.3186 336.76475 L 254.4353 336.92536 C 253.95347 337.00566 252.4679 337.08596 251.1429 337.08596 C 248.01112 337.0659 246.00357 336.4636 244.4176 335.03826 C 243.193 333.9341 242.6108 332.80988 241.3059 329.15613 C 239.35858 323.6153 238.81654 322.4509 236.84914 319.5801 C 234.5806 316.2476 229.40113 309.88365 228.95947 309.88365 C 228.89924 309.88365 228.71856 310.20486 228.57803 310.60637 C 228.33713 311.26886 228.3572 311.36924 228.83902 312.09195 C 229.12007 312.5336 229.36098 313.17603 229.36098 313.5173 C 229.36098 315.10328 226.20913 324.37816 224.844 326.8073 C 224.04097 328.23266 223.5993 328.4535 222.19402 328.17243 C 221.57168 328.052 221.04972 327.97168 221.02964 328.01183 C 221.00957 328.0319 220.58798 328.91523 220.0861 329.95915 C 219.60428 331.0031 219.06225 331.9868 218.88157 332.1273 C 218.72096 332.24776 217.85771 332.56897 216.99447 332.82995 L 215.4085 333.2716 L 215.26797 335.88143 C 214.86646 342.66695 214.64563 344.6745 213.7824 349.31194 C 212.89907 353.98953 212.618 354.8528 211.99567 354.8528 C 211.85514 354.8528 211.6343 354.71225 211.49378 354.55165 C 211.21272 354.21037 211.19265 354.3308 212.47748 347.3847 C 213.16005 343.7711 213.4411 340.9204 213.62178 336.10226 C 213.7623 332.1474 213.82254 332.00686 215.8301 331.4648 C 217.83764 330.92278 217.91794 330.84248 218.92172 328.57394 C 220.0058 326.10466 220.22662 325.94405 221.8126 326.4058 C 223.07735 326.74707 223.01712 326.78722 223.82014 325.1812 C 224.72354 323.3744 226.972 316.99038 227.55418 314.54117 C 227.7951 313.5173 227.77501 313.4571 227.27313 312.73437 C 226.67086 311.85105 226.6307 311.18856 227.1326 309.78327 L 227.49396 308.7795 L 226.95192 307.57497 C 226.65079 306.91247 226.12882 305.5072 225.76746 304.46326 C 224.6834 301.1508 224.08112 300.1671 222.03342 298.42054 C 221.04972 297.5573 220.12625 296.85465 220.0058 296.85465 C 219.7649 296.83457 218.45998 297.91865 216.85394 299.4243 C 215.6494 300.5686 215.34828 301.1508 214.08352 304.72424 C 212.9593 307.93632 212.43733 308.8598 211.3131 309.6026 C 209.82751 310.5662 203.2026 318.97785 201.59656 321.92895 C 200.77346 323.39446 199.589 326.34556 198.40455 329.73832 C 196.7182 334.65682 195.63413 335.80113 191.81978 336.78483 C 190.11337 337.2265 189.55125 337.24656 185.19487 336.92536 C 184.71306 336.8852 184.69298 336.92536 184.7532 337.98936 C 185.03426 343.0283 187.50355 352.64448 190.47473 360.27317 C 191.1573 362.0599 191.67926 363.72616 191.69933 364.1879 C 191.7194 364.9106 191.67926 364.9909 191.17737 365.05114 C 190.51488 365.13144 190.55503 365.21174 188.72816 360.37355 C 186.45962 354.37097 184.3517 346.74228 183.6089 341.76355 C 183.368 340.2378 183.18732 338.91283 183.18732 338.79238 C 183.18732 338.2905 182.74566 338.692 181.86233 340.03706 C 180.31652 342.3658 179.37297 344.73473 176.58248 353.54787 C 175.77946 356.0573 175.55862 357.041 175.55862 358.06486 C 175.55862 359.36977 175.55862 359.36977 176.4821 360.1728 C 177.3855 360.9758 177.40557 360.9959 177.96769 363.58563 C 178.2889 365.011 178.9313 367.942 179.39305 370.0901 C 180.2563 374.0249 180.27637 374.54685 179.55365 374.6673 C 178.75063 374.8279 178.71048 374.64723 177.06429 367.07876 L 175.9802 361.99966 L 174.95636 361.01596 L 173.95258 360.0122 L 173.95258 358.5266 C 173.95258 357.10124 173.9325 357.041 173.51092 357.10124 C 173.12949 357.1414 172.92873 357.48267 172.3867 359.06864 C 172.04541 360.11256 171.36284 362.3811 170.92118 364.0875 C 169.19469 370.592 168.49205 373.06127 167.6288 375.55063 C 166.5648 378.6222 166.3239 379.14414 165.27997 380.26837 C 164.8383 380.7502 164.39664 381.4729 164.29627 381.8945 C 163.83453 383.90204 164.09551 396.44923 164.81823 405.3427 C 165.3402 411.9676 165.3402 412.0479 164.89853 412.26873 C 164.45687 412.50963 163.83453 412.26873 163.63377 411.74676 C 163.57355 411.58616 163.51332 410.8233 163.51332 410.10057 C 163.51332 409.3578 163.39287 407.4506 163.23226 405.84457 C 163.07166 404.23853 162.83075 400.44425 162.7103 397.41285 C 162.32887 388.88076 162.26864 388.29857 161.20464 385.0664 C 160.10049 381.7138 159.77928 380.95094 159.47814 380.95094 C 158.91603 380.95094 156.22591 384.1028 154.15814 387.17435 C 152.91345 389.0012 151.68885 390.7277 151.4078 391.02884 C 150.46424 392.0326 149.56084 391.7315 148.51692 390.0652 C 148.29609 389.70386 148.25594 389.72393 147.77412 390.28605 C 145.52567 392.9561 134.95946 415.8921 134.4375 419.10417 C 134.42648 419.1703 134.36 419.29726 134.253 419.4738 Z" fill="#FFFFFF"/>
      </g>
      <g id="Graphic_47">
        <path d="M 307.37097 418.0782 C 310.96185 413.9345 314.48494 409.73203 317.93377 405.47686 C 317.10744 404.73138 315.97945 403.8254 315.3243 403.21467 C 314.64173 402.57226 313.9391 402.0302 313.77848 402.0302 C 313.61788 402.0302 312.5338 403.2749 311.3895 404.8207 C 310.2251 406.34645 308.81983 408.07295 308.23764 408.63506 C 307.31417 409.55853 307.09334 409.679 306.471 409.61876 C 305.84866 409.55853 305.66798 409.418 305.12594 408.49453 C 304.76458 407.91234 304.2627 407.14947 303.98163 406.7881 L 303.47975 406.1457 L 303.018 406.58736 L 302.57635 407.029 L 303.82103 409.96004 C 304.5036 411.5661 305.34677 413.65394 305.68805 414.5975 C 305.88866 415.1403 306.7109 416.80347 307.37097 418.0782 Z" fill="#FFFFFF"/>
      </g>
      <g id="Graphic_45">
        <path d="M 129.1898 413.5821 C 130.42621 415.0437 131.67124 416.4984 132.92461 417.9459 C 133.17651 417.5506 133.41207 417.02347 133.62289 416.337 C 133.72326 416.19646 134.41994 414.3467 134.35919 414.15904 C 134.29844 413.9714 133.0539 413.03443 132.71261 412.77345 C 132.71261 412.77345 130.50536 410.66835 130.3542 410.66667 C 130.27784 410.6658 129.72157 412.1315 129.1898 413.5821 Z" fill="#FFFFFF"/>
      </g>
      <g id="Graphic_43">
        <path d="M 176.47792 462.35126 C 177.81231 463.5514 179.15156 464.74256 180.49543 465.92453 C 182.63772 464.2402 185.38773 462.07307 186.2388 461.49387 C 187.66415 460.53024 189.47095 459.3458 190.27397 458.864 C 191.077 458.38216 193.26522 456.9769 195.13224 455.7322 C 199.44848 452.8815 199.589 452.82125 200.97421 452.82125 C 202.03822 452.82125 202.19882 452.761 203.845 451.5565 C 204.78856 450.85385 206.27415 449.8099 207.1374 449.22773 C 208.00064 448.64554 208.6832 448.06335 208.62298 447.9429 C 208.58283 447.80237 207.98057 445.4937 207.27792 442.7835 C 206.59536 440.0733 205.89271 437.604 205.7321 437.26273 C 205.55143 436.9415 204.96924 436.19873 204.4272 435.61654 C 203.4435 434.55254 202.35942 432.56506 202.1386 431.3806 C 201.99807 430.6579 202.01814 430.6579 201.05452 430.93895 C 199.72953 431.3204 199.08712 430.4772 198.54508 427.64657 C 198.3644 426.66287 198.0432 425.3981 197.82236 424.836 C 197.50115 423.9928 197.461 423.5311 197.56138 422.34663 L 197.7019 420.86104 L 196.5576 419.77697 C 195.91519 419.1747 195.29285 418.6929 195.1724 418.6929 C 194.81103 418.6929 191.29782 422.0254 190.79593 422.82844 C 190.31412 423.6114 190.31412 423.9928 190.816 428.73064 C 190.91639 429.77457 191.01676 431.2401 191.01676 431.9628 C 191.01676 433.4283 191.01676 433.4283 187.40317 439.06953 C 186.49978 440.4949 185.67668 441.9604 185.59638 442.32176 C 185.51608 442.66304 185.5763 444.0081 185.71683 445.3331 C 186.05811 448.30426 186.05811 450.77355 185.7369 451.35574 C 185.59638 451.59664 185.05434 452.1186 184.49222 452.50004 C 183.95019 452.8815 182.98656 453.825 182.32407 454.5678 C 181.45525 455.5658 178.63653 459.3385 176.47792 462.35126 Z" fill="#FFFFFF"/>
      </g>
      <g id="Graphic_42">
        <path d="M 181.5451 466.84507 C 194.10858 477.8307 207.06907 488.01103 220.23504 497.2096 C 228.87091 491.17194 237.42133 484.70727 245.83162 477.86657 C 244.10776 475.88043 241.64086 473.0899 241.44643 472.8566 C 241.1453 472.49524 239.6798 470.60815 238.1942 468.6809 C 236.70861 466.75365 235.0825 464.6658 234.5806 464.04346 C 233.83782 463.14006 233.57684 462.6181 233.21548 461.2329 C 232.9545 460.3094 232.6935 459.44617 232.6132 459.3257 C 232.5329 459.20526 232.0511 458.9242 231.5492 458.6833 C 230.96702 458.40224 230.4852 457.98065 230.26438 457.55907 C 229.90302 456.91665 229.90302 456.83635 230.3246 455.1701 C 231.02725 452.41974 231.10755 452.6205 228.31705 450.21143 C 226.972 449.04705 224.583 446.81867 222.97697 445.2327 C 221.391 443.6668 219.98572 442.382 219.8452 442.40206 C 219.72474 442.40206 218.39975 443.30546 216.91417 444.4096 C 215.42858 445.51377 212.43733 447.6016 210.28925 449.04705 C 208.14117 450.4925 205.69196 452.1989 204.86886 452.82125 C 202.84124 454.36706 202.56018 454.4875 201.2352 454.46744 C 200.0909 454.44737 200.07082 454.46744 195.79473 457.2178 C 188.42702 462.01583 191.67063 459.18085 188.52267 461.49617 C 186.5756 462.92825 183.56143 465.24664 181.5451 466.8451 Z" fill="#FFFFFF"/>
      </g>
      <g id="Graphic_27">
        <path d="M 190.31412 341.78363 C 189.25012 341.9643 189.00921 342.1249 189.00921 342.7071 C 189.00921 343.46997 189.61148 343.67073 190.97661 343.38967 C 191.6391 343.24914 192.28152 343.1889 192.44212 343.24914 C 192.60273 343.30937 192.98416 344.15254 193.30537 345.13624 C 193.6065 346.11994 193.98794 347.1237 194.14854 347.3646 C 194.48983 347.90666 195.07202 347.9669 195.45345 347.50515 C 195.67428 347.24417 195.59398 346.8226 194.95156 344.8552 C 193.88756 341.58287 193.88756 341.60295 192.36182 341.62302 C 191.67926 341.6431 190.75578 341.70333 190.31412 341.78363 Z" fill="black"/>
      </g>
      <g id="Graphic_26">
        <path d="M 246.26456 341.76355 C 245.94335 341.9844 244.4176 346.34077 244.4176 347.0635 C 244.4176 347.66575 245.06003 348.00703 245.52176 347.6256 C 245.80282 347.40477 246.82667 344.8552 247.10773 343.73095 C 247.24826 343.16884 247.2884 343.16884 248.1918 343.2692 C 248.71377 343.32944 249.4164 343.4499 249.7577 343.51012 C 250.88192 343.75103 251.4641 342.68703 250.5607 342.10484 C 249.9986 341.74348 246.68614 341.4624 246.26456 341.76355 Z" fill="black"/>
      </g>
      <g id="Graphic_25">
        <path d="M 196.57768 353.08614 C 195.9955 353.38727 196.19624 354.2505 197.2201 356.0573 C 198.54508 358.366 198.72576 359.0887 198.6856 362.0599 C 198.66553 363.98714 198.74583 364.9106 199.06704 366.075 C 199.48863 367.76133 199.91021 373.54308 199.80984 376.59455 C 199.7496 378.14037 199.78976 378.42143 200.11097 378.6222 C 200.67308 378.96346 201.17497 378.2006 201.33557 376.715 C 201.6367 374.12527 201.13482 367.1189 200.51248 365.21174 C 200.27157 364.46895 200.23142 363.80646 200.3318 362.50155 C 200.53255 359.73113 200.0909 357.84403 198.6053 355.21414 C 197.94281 354.04976 197.3004 353.0259 197.15987 352.98576 C 197.01934 352.92553 196.75836 352.9657 196.57768 353.08614 Z" fill="black"/>
      </g>
    </g>
    <g id="Esc____Badge_Master_layer" clip-path="url(#artboard_clip_path)">
      <title>Master layer</title>
      <g id="Line_22">
        <line x1="40.416667" y1="64.125" x2="33.666667" y2="57.375" stroke="black" stroke-linecap="butt" stroke-linejoin="round" stroke-width=".25"/>
      </g>
      <g id="Line_21">
        <line x1="220.41667" y1="64.125" x2="220.41667" y2="55.125" stroke="black" stroke-linecap="butt" stroke-linejoin="round" stroke-width=".5"/>
      </g>
      <g id="Line_20">
        <line x1="400.41667" y1="64.125" x2="407.16667" y2="57.375" stroke="black" stroke-linecap="butt" stroke-linejoin="round" stroke-width=".5"/>
      </g>
      <g id="Line_19">
        <line x1="89.35417" y1="375.1875" x2="96.10417" y2="368.4375" stroke="black" stroke-linecap="round" stroke-linejoin="round" stroke-width=".5"/>
      </g>
      <g id="Line_18">
        <line x1="351.486" y1="375.1875" x2="344.736" y2="368.4375" stroke="black" stroke-linecap="butt" stroke-linejoin="round" stroke-width=".5"/>
      </g>
      <g id="Line_17">
        <line x1="220.41667" y1="505.125" x2="220.41667" y2="496.125" stroke="black" stroke-linecap="butt" stroke-linejoin="round" stroke-width=".5"/>
      </g>
      <g id="Line_16">
        <line x1="42.666667" y1="244.125" x2="33.666667" y2="244.125" stroke="black" stroke-linecap="butt" stroke-linejoin="round" stroke-width=".5"/>
      </g>
      <g id="Line_15">
        <line x1="407.16667" y1="244.125" x2="398.16667" y2="244.125" stroke="black" stroke-linecap="butt" stroke-linejoin="round" stroke-width=".5"/>
      </g>
      <g id="Graphic_14">
        <path d="M 39.361014 63 L 401.5485 63 C 401.5485 63 401.611 105.5 401.611 208 C 401.611 310.5 316.26745 430.16666 220.39004 497.1979 C 124.44764 430.16666 39.416687 311 39.416687 208 C 39.416687 105 39.361014 63 39.361014 63 Z" stroke="black" stroke-linecap="round" stroke-linejoin="miter" stroke-width="2"/>
      </g>
    </g>
  </g>
</svg>
