<?xml version="1.0" encoding="UTF-8" standalone="no"?>
<!DOCTYPE svg PUBLIC "-//W3C//DTD SVG 1.1//EN" "http://www.w3.org/Graphics/SVG/1.1/DTD/svg11.dtd">
<svg xmlns:xl="http://www.w3.org/1999/xlink" version="1.1" xmlns="http://www.w3.org/2000/svg" xmlns:dc="http://purl.org/dc/elements/1.1/" viewBox="54 121.5 310.5 121.5" width="310.5" height="121.5">
  <defs>
    <clipPath id="artboard_clip_path">
      <path d="M 54 121.5 L 364.5 121.5 L 364.5 243 L 54 243 Z"/>
    </clipPath>
  </defs>
  <g id="Rainbow_(1)" stroke-opacity="1" stroke="none" fill="none" fill-opacity="1" stroke-dasharray="none">
    <title>Rainbow (1)</title>
    <g id="Rainbow_(1)_Layer_2" clip-path="url(#artboard_clip_path)">
      <title>Layer 2</title>
      <g id="Group_124">
        <g id="Graphic_177">
          <path d="M 309.78028 127.20032 C 304.5403 128.7951 299.07248 133.12379 296.90813 137.45248 C 295.769 139.61682 294.8577 141.55334 294.8577 141.66725 C 294.8577 141.78116 291.78206 140.86986 288.02294 139.61682 C 281.416 137.45248 265.12646 133.46553 258.4056 132.44031 C 256.583 132.21249 252.1404 131.4151 248.72302 130.73162 C 245.30564 130.16206 238.92652 129.36467 234.48392 128.90902 C 225.14307 128.11163 184.02056 128.11163 182.6536 128.90902 C 182.19795 129.25075 179.0084 129.7064 175.70492 129.93423 C 166.5919 130.73162 151.89715 132.78205 150.75802 133.46553 C 150.18846 133.80727 147.79629 134.149 145.40412 134.26292 C 143.01195 134.37683 138.91109 135.28813 136.17718 136.54117 C 129.57024 139.27508 128.77285 139.16117 124.10243 135.17422 C 118.97635 130.61771 112.71115 127.99771 105.76247 127.65598 C 98.24422 127.31424 93.91554 129.25075 88.56163 135.62987 C 85.48599 139.27508 83.32165 140.86986 81.27122 140.86986 C 72.95558 140.98377 63.15908 149.75506 60.08344 159.8933 C 57.121704 169.6898 58.26083 177.32195 63.95647 185.7515 L 67.373855 190.76366 L 64.63995 197.59843 C 62.36169 203.40798 62.13387 205.11668 63.04517 210.6984 C 64.526035 220.03925 66.80429 224.0262 73.52515 228.92445 C 80.246 234.05052 89.92859 236.21487 96.87727 234.39226 C 100.63639 233.25314 108.61029 228.69662 108.61029 227.44358 C 108.61029 227.10184 109.06594 226.19054 109.6355 225.27924 C 110.43289 224.0262 111.23028 224.25402 114.0781 226.30445 C 117.15375 228.5827 118.5207 228.81054 124.33025 228.35489 C 138.56935 226.98793 148.47976 215.82448 148.47976 201.01581 C 148.47976 196.11756 147.45455 196.68713 163.858 193.7254 C 179.69187 190.87758 179.57796 190.87758 203.1579 190.30801 C 227.53524 189.62454 234.14219 190.30801 261.0256 195.77583 L 278.45426 199.42104 L 277.65687 205.3445 C 276.40383 215.48274 282.66904 224.36794 292.2377 225.8488 C 295.88292 226.53228 297.3638 227.44358 299.07248 230.51923 C 304.31247 239.40443 315.58983 240.8853 323.3359 233.8227 C 327.32285 230.1775 327.55068 230.06358 335.7524 230.63314 L 344.18194 231.0888 L 349.76367 225.62098 C 360.35756 215.36883 363.09147 200.56016 356.2567 191.44714 L 353.29497 187.68802 L 355.57322 184.72629 C 359.33235 179.94195 360.8132 171.05675 359.21843 163.08285 C 357.9654 157.15939 357.0541 155.56461 351.13062 149.75506 C 347.3715 146.10985 343.7263 143.14812 342.9289 143.14812 C 342.24543 143.14812 339.62543 142.57855 337.23326 141.89507 C 333.9298 140.98377 332.56284 139.84464 331.65154 137.45248 C 331.08197 135.51596 328.12024 132.3264 325.0446 130.04814 C 319.46287 125.94728 316.1594 125.37772 309.78028 127.20032 Z" fill="black"/>
        </g>
        <g id="Graphic_176">
          <path d="M 321.5133 132.44031 C 323.4498 133.80727 323.79155 134.60466 322.65243 135.17422 C 321.6272 135.8577 321.6272 136.54117 323.10808 138.02204 C 325.842 140.64203 325.50025 141.78116 322.19677 141.09769 C 319.9185 140.75595 319.46287 140.98377 320.03243 142.46464 C 320.82982 144.51507 317.64026 148.84376 315.362 148.84376 C 314.5646 148.84376 312.742 147.93245 311.26115 146.67941 C 308.75506 144.62898 308.75506 144.51507 310.57767 141.66725 C 311.6029 139.95856 312.5142 138.36378 312.5142 137.90813 C 312.5142 136.42726 307.95768 141.2116 307.2742 143.48985 C 306.59072 145.6542 306.4768 145.6542 305.4516 143.8316 C 303.17334 139.84464 310.122 133.35162 315.58983 134.37683 C 317.29852 134.71857 318.0959 134.37683 317.8681 133.57944 C 316.50113 129.25075 305.90725 133.57944 303.28725 139.61682 C 301.46465 143.71768 299.98378 144.17333 299.98378 140.75595 C 299.98378 133.46553 314.67853 127.76989 321.5133 132.44031 Z" fill="#FFFFFF"/>
        </g>
        <g id="Graphic_175">
          <path d="M 222.40917 132.3264 C 222.06743 132.55423 213.63788 133.12379 203.72747 133.46553 C 175.02145 134.37683 175.81883 135.8577 204.9805 135.8577 C 231.6361 135.8577 243.93869 136.99682 263.5317 141.09769 C 286.7699 145.99594 311.37506 153.85592 311.37506 156.47591 C 311.37506 158.1846 310.0081 158.41243 308.52724 156.93156 C 305.67942 154.31157 269.56906 144.28724 262.96212 144.28724 C 261.0256 144.28724 261.0256 144.51507 262.39256 145.42637 C 263.30386 145.99594 265.4682 146.5655 267.06298 146.5655 C 268.65776 146.5655 272.98645 147.59071 276.74557 148.72984 C 304.88203 157.84287 310.23593 159.77938 310.23593 160.91851 C 310.23593 161.60199 308.86898 162.74112 307.2742 163.5385 C 304.7681 164.67763 302.7177 164.3359 293.9464 161.48808 C 278.22644 156.58983 263.6456 152.94462 262.7343 153.85592 C 261.36734 155.22287 263.98734 156.47591 272.6447 158.52634 C 283.01077 160.91851 298.84465 165.58894 301.1229 167.0698 C 304.7681 169.34806 301.009 169.34806 294.17423 167.0698 C 285.63077 164.3359 277.20122 162.85503 278.9099 164.4498 C 279.5934 165.01937 282.89686 166.1585 286.31424 167.0698 C 294.28814 168.8924 300.0977 171.62631 299.1864 173.10718 C 298.61683 174.1324 291.89597 173.44892 288.13685 172.08197 C 287.11163 171.74023 286.31424 171.96805 286.31424 172.65153 C 286.31424 173.335 287.33946 173.90457 288.5925 173.90457 C 292.0099 173.90457 297.70552 177.09413 297.70552 179.03065 C 297.70552 181.19499 297.5916 181.19499 286.99772 177.89152 C 282.09947 176.29674 277.42905 175.15761 276.74557 175.38544 C 275.2647 175.955 284.2638 180.16977 289.73163 181.3089 C 294.7438 182.44803 299.3003 185.29585 297.93335 186.6628 C 297.3638 187.23237 294.8577 186.6628 291.89597 185.40976 C 286.08642 182.67585 283.69425 182.44803 284.2638 184.38455 C 284.60555 185.18194 286.99772 186.43498 289.84554 187.23237 C 295.6551 188.94106 302.26204 192.24453 302.26204 193.49757 C 302.26204 194.86452 300.32552 194.6367 295.99683 192.8141 C 293.60466 191.78888 291.78206 191.56105 291.44032 192.24453 C 290.87076 193.04192 295.19944 195.548 297.3638 195.548 C 297.70552 195.548 301.9203 197.48452 306.70463 199.76277 C 318.7794 205.68624 314.10897 206.02798 300.78117 200.21843 C 286.8838 194.18105 274.92297 190.1941 261.0256 187.11845 C 259.203 186.6628 257.83605 186.89063 257.83605 187.4602 C 257.83605 188.02976 260.56995 189.16888 263.87342 189.85236 C 279.47948 193.61148 313.88114 207.0532 312.05854 208.8758 C 311.7168 209.21754 307.72985 207.85058 303.17334 205.80015 C 298.61683 203.74972 292.80727 201.24364 290.3012 200.10451 C 282.2134 196.4593 258.97517 190.42192 247.12824 188.71323 C 223.77612 185.52367 208.62572 184.9541 190.39967 186.43498 C 180.48926 187.23237 172.05971 188.3715 171.71797 188.82715 C 171.49015 189.3967 170.46493 189.51062 169.55363 189.05497 C 168.52842 188.71323 166.5919 189.2828 165.11103 190.30801 C 163.51625 191.21931 162.1493 191.56105 161.92147 190.9915 C 161.69365 190.42192 157.02322 191.21931 151.32758 192.8141 C 145.74586 194.40887 139.13892 196.11756 136.86066 196.57322 C 134.46849 197.14278 131.96241 198.05408 131.16502 198.62365 C 130.36763 199.1932 126.83633 200.33234 123.41895 201.12973 C 120.00157 202.04103 116.58418 203.18016 115.9007 203.6358 C 115.10332 204.31929 114.0781 203.97755 113.05289 202.83842 C 111.79984 201.35755 111.79984 201.12973 113.28071 201.47147 C 114.76158 201.8132 116.6981 201.12973 126.83633 196.91495 C 129.57024 195.77583 129.57024 195.66191 127.17807 195.66191 C 125.6972 195.548 124.55808 194.86452 124.55808 193.95322 C 124.55808 190.76366 158.39018 181.87847 178.66665 179.71412 C 197.12053 177.7776 201.67704 177.6637 220.8144 178.575 C 241.3187 179.6002 262.27865 183.24542 277.9986 188.71323 C 288.82033 192.47236 289.73163 192.70018 289.73163 190.9915 C 289.73163 188.3715 262.8482 181.53673 237.7874 177.89152 C 226.1683 176.06891 193.01967 175.38544 181.85621 176.63848 C 169.89537 178.00543 142.32847 183.9289 133.6711 187.00454 C 129.00068 188.59932 125.6972 188.25758 127.63372 186.32106 C 129.45633 184.49846 164.08582 176.41065 176.3884 175.0437 C 188.69098 173.67674 195.0701 171.62631 187.21011 171.62631 C 183.67882 171.62631 167.84494 173.79066 158.16235 175.61326 C 155.31453 176.18283 137.54414 180.85325 131.16502 182.67585 C 130.02589 183.0176 129.11459 182.67585 129.11459 181.99238 C 129.11459 180.51151 137.65805 176.29674 140.7337 176.18283 C 141.75891 176.18283 143.01195 175.61326 143.4676 174.92978 C 144.26499 173.56283 144.03717 173.56283 133.78501 176.18283 C 131.0511 176.8663 128.54503 177.09413 128.08937 176.63848 C 127.74764 176.18283 128.08937 175.61326 128.88676 175.38544 C 129.57024 175.0437 130.25372 174.36022 130.25372 173.79066 C 130.25372 173.335 129.45633 173.10718 128.54503 173.44892 C 127.63372 173.90457 126.83633 173.56283 126.83633 172.87935 C 126.83633 172.19588 128.43111 171.28458 130.25372 170.82892 C 132.19023 170.48719 134.01284 169.6898 134.35458 169.23415 C 135.15197 167.8672 133.32936 167.9811 129.57024 169.34806 C 126.4946 170.6011 123.07721 169.23415 125.46938 167.75328 C 127.17807 166.72806 145.97368 161.37416 147.9102 161.37416 C 148.70759 161.37416 149.84672 160.8046 150.30237 160.12112 C 150.87193 159.0959 149.84672 158.982 146.65716 159.66547 C 141.30326 160.57677 128.20329 164.56372 125.46938 166.04459 C 124.21634 166.61415 123.30504 166.61415 122.73547 165.81676 C 122.39373 165.13328 122.27982 164.56372 122.39373 164.3359 C 123.53286 163.5385 137.65805 158.86808 140.27804 158.41243 C 141.98674 158.0707 150.30237 156.58983 158.73192 154.99505 C 167.16146 153.40027 177.75535 151.9194 182.31186 151.46375 C 190.28576 150.78027 194.04488 149.64114 192.67793 148.2742 C 191.76663 147.36289 164.42756 150.78027 153.03628 153.28635 C 139.70848 156.24809 130.59546 158.64026 124.89982 160.69069 C 122.27982 161.60199 119.77374 161.94373 119.432 161.37416 C 118.5207 160.0072 119.20418 159.77938 132.53197 155.90635 C 159.4154 148.16028 178.78057 145.54028 210.44832 145.31246 C 221.95352 145.19855 228.78828 144.8568 227.0796 144.28724 C 220.47265 142.1229 188.8049 143.0342 168.87015 145.99594 C 148.02411 149.07158 145.85977 149.52723 128.54503 154.6533 C 112.71115 159.43764 113.1668 159.32373 113.1668 158.1846 C 113.1668 157.61504 119.65983 154.99505 127.74764 152.48896 C 141.07543 148.16028 155.31453 145.08463 176.95796 142.00899 C 188.12142 140.3003 228.9022 140.41421 239.04044 142.00899 C 249.97606 143.8316 260.79778 144.7429 260.0004 143.8316 C 256.69692 140.3003 196.32314 137.11074 179.23622 139.61682 C 152.23889 143.37594 129.2285 148.61593 111.11637 154.99505 C 107.92681 156.13417 106.33203 156.362 106.55986 155.56461 C 107.8129 151.80549 150.07454 140.3003 171.0345 137.90813 C 174.90753 137.56639 178.0971 136.65509 178.0971 136.19944 C 178.0971 134.71857 175.24927 134.9464 159.87104 137.45248 C 152.23889 138.81943 145.40412 139.61682 144.60673 139.389 C 141.645 138.36378 166.47799 133.92118 183.22317 132.55423 C 190.51359 131.87075 222.97873 131.75684 222.40917 132.3264 Z" fill="#FFFFFF"/>
        </g>
        <g id="Graphic_174">
          <path d="M 236.53435 134.149 C 233.91436 135.0603 225.94046 134.26292 225.94046 133.00988 C 225.94046 132.66814 228.9022 132.55423 232.4335 132.78205 C 237.44566 133.12379 238.47087 133.35162 236.53435 134.149 Z" fill="#FFFFFF"/>
        </g>
        <g id="Graphic_173">
          <path d="M 99.49726 133.35162 C 99.49726 133.69335 99.04161 134.26292 98.35814 134.60466 C 97.78857 134.9464 97.21901 134.71857 97.21901 134.149 C 97.21901 133.46553 97.78857 132.89596 98.35814 132.89596 C 99.04161 132.89596 99.49726 133.12379 99.49726 133.35162 Z" fill="#FFFFFF"/>
        </g>
        <g id="Graphic_172">
          <path d="M 252.59606 135.0603 C 256.69692 136.65509 252.70997 137.11074 246.44477 135.62987 L 240.17956 134.26292 L 245.30564 134.26292 C 248.15346 134.26292 251.45693 134.60466 252.59606 135.0603 Z" fill="#FFFFFF"/>
        </g>
        <g id="Graphic_171">
          <path d="M 109.74941 136.31335 C 109.74941 136.88291 108.04072 137.33856 106.1042 137.22465 C 101.54769 137.11074 97.21901 138.36378 97.21901 139.84464 C 97.21901 141.2116 98.58596 141.09769 102.459 139.73073 C 104.85116 138.70552 106.55986 139.04725 111.3442 141.32551 C 114.53375 142.92029 116.35636 144.17333 115.33114 144.28724 C 114.41984 144.28724 112.59723 143.48985 111.3442 142.57855 C 108.83811 140.75595 102.91465 140.3003 102.91465 142.00899 C 102.91465 142.57855 104.16769 143.14812 105.76247 143.14812 C 109.40768 143.14812 109.40768 145.19855 105.76247 146.10985 C 104.05377 146.5655 101.20595 145.88202 98.0164 144.40116 C 95.28249 143.0342 92.43467 142.00899 91.75119 142.00899 C 90.15641 142.00899 89.92859 140.18638 91.40945 139.27508 C 91.97902 138.81943 92.6625 139.16117 92.89032 139.84464 C 93.11815 140.64203 95.05466 139.95856 97.67466 138.13595 C 102.00334 135.17422 109.74941 134.03509 109.74941 136.31335 Z" fill="#FFFFFF"/>
        </g>
        <g id="Graphic_170">
          <path d="M 270.59428 139.16117 L 275.49253 140.75595 L 271.04993 140.07247 C 268.65776 139.73073 264.10125 138.70552 260.79778 137.90813 L 254.98823 136.42726 L 260.34213 136.99682 C 263.30386 137.33856 267.9743 138.24987 270.59428 139.16117 Z" fill="#FFFFFF"/>
        </g>
        <g id="Graphic_169">
          <path d="M 138.79718 141.43942 C 132.64589 143.48985 128.43111 143.48985 133.6711 141.43942 C 135.83544 140.64203 138.91109 139.95856 140.50587 139.95856 C 142.67021 139.95856 142.32847 140.3003 138.79718 141.43942 Z" fill="#FFFFFF"/>
        </g>
        <g id="Graphic_168">
          <path d="M 279.47948 142.00899 C 279.47948 142.57855 279.25165 143.14812 279.02383 143.14812 C 278.6821 143.14812 278.11252 142.57855 277.7708 142.00899 C 277.42905 141.32551 277.65687 140.86986 278.22644 140.86986 C 278.9099 140.86986 279.47948 141.32551 279.47948 142.00899 Z" fill="#FFFFFF"/>
        </g>
        <g id="Graphic_167">
          <path d="M 286.8838 143.14812 C 288.36467 143.8316 288.5925 144.17333 287.45337 144.17333 C 286.54207 144.17333 284.9473 143.71768 284.036 143.14812 C 281.98556 141.78116 283.80816 141.78116 286.8838 143.14812 Z" fill="#FFFFFF"/>
        </g>
        <g id="Graphic_166">
          <path d="M 127.97546 144.28724 C 127.06416 144.8568 125.46938 145.42637 124.55808 145.42637 C 123.07721 145.42637 123.07721 145.31246 124.55808 144.28724 C 125.46938 143.71768 127.06416 143.14812 127.97546 143.14812 C 129.45633 143.14812 129.45633 143.26203 127.97546 144.28724 Z" fill="#FFFFFF"/>
        </g>
        <g id="Graphic_165">
          <path d="M 89.81468 145.76811 C 96.87727 147.93245 99.15552 149.64114 100.52248 153.6281 L 101.77552 157.38721 L 98.58596 153.742 C 95.28249 149.86897 88.44772 146.5655 83.89121 146.5655 C 80.01818 146.5655 73.41123 149.52723 72.61384 151.69157 C 71.3608 154.76722 72.95558 154.76722 75.917315 151.80549 C 79.3347 148.3881 85.25816 147.81854 90.38424 150.55245 C 95.16858 153.05853 94.71293 154.76722 89.81468 152.71679 C 84.91643 150.66636 84.46077 150.66636 81.72687 152.8307 C 79.67644 154.5394 79.79035 154.6533 83.32165 153.96983 C 85.71382 153.40027 87.76425 153.742 88.90337 154.76722 C 90.49815 156.13417 90.38424 156.362 87.53642 156.81765 C 85.71382 157.15939 84.11904 158.0707 83.7773 158.86808 C 83.43556 160.12112 83.7773 160.23503 85.48599 159.32373 C 87.08077 158.41243 88.44772 158.52634 90.49815 159.55156 C 93.34597 160.91851 93.34597 161.14634 91.97902 170.48719 C 91.40945 173.90457 91.75119 174.81587 94.82684 176.98022 C 96.64944 178.46108 98.47205 179.14456 98.9277 178.575 C 99.26944 178.00543 99.04161 177.20804 98.35814 176.7524 C 97.78857 176.41065 97.21901 175.0437 97.21901 173.67674 C 97.21901 172.08197 96.64944 171.62631 95.51032 172.08197 C 92.77641 173.10718 93.45988 168.7785 96.64944 165.01937 C 99.839 161.26025 105.76247 159.20982 107.8129 161.26025 C 108.7242 162.17155 108.26855 162.5133 106.1042 162.5133 C 104.50943 162.5133 102.57291 163.31068 101.77552 164.22198 C 100.63639 165.58894 101.09204 165.70285 104.39551 165.13328 C 106.9016 164.79155 109.52159 165.2472 111.79984 166.38633 C 115.78679 168.43676 116.12853 169.34806 114.0781 171.39849 C 113.05289 172.4237 113.05289 173.10718 114.0781 174.1324 C 114.87549 174.92978 115.44505 176.29674 115.44505 177.20804 C 115.44505 178.46108 114.9894 178.34717 113.85028 176.63848 C 111.68593 173.79066 110.31898 175.27152 112.02767 178.46108 C 112.82506 179.94195 113.96419 180.62542 114.9894 180.28369 C 115.9007 179.94195 116.47027 180.05586 116.12853 180.62542 C 115.78679 181.19499 116.6981 181.99238 118.29287 182.33412 C 121.2546 183.1315 121.93808 185.7515 120.00157 188.71323 C 119.09026 190.08019 118.86244 189.85236 119.09026 187.5741 C 119.31809 185.97933 118.97635 184.72629 118.29287 184.72629 C 117.72331 184.72629 117.15375 185.52367 117.15375 186.43498 C 116.81201 190.53584 113.73636 195.43409 111.11637 195.88974 L 108.38246 196.4593 L 111.3442 193.95322 C 114.64766 191.33323 117.03983 181.87847 114.41984 181.87847 C 113.73636 181.87847 113.1668 182.67585 113.1668 183.58716 C 113.1668 184.49846 112.71115 185.29585 112.02767 185.29585 C 111.4581 185.29585 110.88854 184.27063 110.88854 183.0176 C 110.88854 181.76455 110.31898 180.73934 109.6355 180.73934 C 108.95202 180.73934 108.61029 181.53673 109.06594 182.44803 C 110.20507 185.40976 107.35725 190.9915 103.71204 192.928 C 100.40857 194.6367 100.29465 194.7506 102.34508 196.23148 C 103.82595 197.3706 103.93986 197.82626 102.91465 197.82626 C 101.66161 197.82626 101.66161 198.168 102.68682 199.1932 C 104.85116 201.35755 104.2816 202.6106 101.88943 201.24364 C 100.63639 200.67408 99.38335 200.10451 99.04161 200.10451 C 97.67466 200.10451 98.47205 203.29407 100.18074 204.77494 C 101.54769 205.91406 101.88943 207.62276 101.54769 211.72362 C 101.20595 214.68535 101.20595 217.19143 101.43378 217.19143 C 101.77552 217.19143 102.80073 216.16622 103.93986 214.79926 C 105.64855 212.63492 105.99029 212.521 107.35725 214.2297 C 108.61029 215.71057 108.61029 216.0523 107.35725 216.0523 C 106.44594 216.0523 104.85116 217.64708 103.82595 219.4697 C 101.77552 223.00098 103.25639 224.36794 106.1042 221.52012 C 106.9016 220.72273 107.47116 220.60882 107.47116 221.2923 C 107.47116 224.8236 94.82684 232.0001 91.18163 230.40532 C 90.38424 230.06358 90.83989 229.60793 92.43467 229.15227 C 96.42162 227.89923 95.3964 226.7601 90.61207 227.21576 C 87.08077 227.5575 85.37208 226.87402 80.47383 223.2288 C 77.17036 220.83664 74.43645 218.44447 74.43645 217.98882 C 74.43645 217.53317 75.917315 218.21665 77.85383 219.5836 C 82.29643 222.88707 83.66338 221.4062 79.79035 217.41926 C 76.14514 213.54622 73.52515 203.18016 75.57558 200.67408 C 77.62601 198.168 79.22079 198.62365 77.85383 201.12973 C 76.25905 204.20537 76.48688 209.33145 78.30948 211.72362 C 80.35991 214.45752 82.866 214.45752 81.38513 211.72362 C 79.44861 207.9645 79.3347 198.96538 81.38513 198.96538 C 82.06861 198.96538 82.29643 200.21843 81.95469 202.15494 C 81.49904 204.20537 81.84078 206.02798 82.97991 207.50884 C 84.80251 209.67319 84.80251 209.55927 84.23295 205.91406 C 83.32165 200.9019 85.71382 197.2567 90.27033 196.3454 C 92.20684 195.88974 93.80162 194.97844 93.80162 194.06713 C 93.80162 193.26974 95.3964 191.67497 97.21901 190.64975 C 100.18074 188.82715 100.86422 187.4602 100.63639 183.24542 C 100.52248 182.78977 99.04161 182.56194 97.1051 182.78977 C 95.16858 183.0176 92.32076 182.33412 90.72598 181.3089 C 89.24511 180.28369 87.65033 179.71412 87.30859 180.05586 C 86.39729 180.96716 88.10598 183.1315 90.83989 184.15672 L 93.23206 185.18194 L 90.72598 185.18194 C 88.10598 185.29585 78.99296 177.32195 78.99296 175.0437 C 78.99296 174.36022 78.53731 173.90457 77.85383 173.90457 C 75.34775 173.90457 77.05644 177.43587 82.06861 182.33412 C 87.99207 188.25758 87.30859 189.16888 80.47383 184.27063 C 75.8034 180.85325 72.15819 174.1324 72.15819 168.7785 C 72.15819 167.18371 71.70254 165.93067 71.019065 165.93067 C 69.31037 165.93067 69.65211 170.48719 71.70254 176.52456 C 73.29732 181.42281 77.28427 185.86541 83.09382 189.51062 C 85.14425 190.76366 85.14425 190.87758 82.63817 190.87758 C 80.92948 190.9915 78.08166 189.05497 74.43645 185.29585 C 68.28516 178.91673 66.80429 173.90457 67.94342 163.5385 C 68.74081 157.15939 67.25994 156.13417 65.43734 161.60199 C 64.63995 164.10807 64.526035 167.52545 65.20951 171.85414 C 66.46255 179.25847 67.82951 182.33412 71.93037 186.6628 C 73.52515 188.3715 74.55036 190.1941 74.09471 190.53584 C 72.95558 191.67497 67.48777 185.18194 65.323425 180.16977 C 61.33648 170.82892 61.678216 163.5385 66.46255 154.5394 C 68.05733 151.57766 75.46166 146.33767 79.44861 145.31246 C 84.46077 144.17333 84.80251 144.17333 89.81468 145.76811 Z" fill="#FFFFFF"/>
        </g>
        <g id="Graphic_164">
          <path d="M 292.80727 144.97072 C 292.46554 145.31246 291.44032 145.42637 290.64293 145.08463 C 289.73163 144.7429 290.07337 144.40116 291.3264 144.40116 C 292.57945 144.28724 293.26293 144.62898 292.80727 144.97072 Z" fill="#FFFFFF"/>
        </g>
        <g id="Graphic_163">
          <path d="M 121.1407 146.5655 C 120.22939 147.13506 118.63461 147.70463 117.72331 147.70463 C 116.81201 147.70463 114.76158 148.3881 113.1668 149.1855 C 109.40768 151.12201 105.1929 152.26114 105.1929 151.34984 C 105.1929 150.32462 117.6094 145.6542 120.57113 145.54028 C 122.39373 145.42637 122.50765 145.6542 121.1407 146.5655 Z" fill="#FFFFFF"/>
        </g>
        <g id="Graphic_162">
          <path d="M 339.2837 146.67941 C 342.24543 147.4768 345.5489 149.75506 348.73846 153.05853 C 353.29497 158.0707 355.4593 162.05764 351.8141 159.0959 C 349.1941 156.93156 348.3967 158.52634 350.56106 161.60199 C 351.7002 163.08285 352.26975 166.1585 352.26975 169.34806 C 352.04193 174.1324 352.04193 174.1324 351.35845 170.71501 C 350.44715 165.47502 348.51063 166.04459 347.82715 171.85414 C 347.02976 177.43587 344.97933 181.87847 343.0428 181.87847 C 342.35934 181.87847 342.58716 180.96716 343.6124 179.82804 C 345.6628 177.6637 346.23237 175.0437 344.7515 175.15761 C 342.815 175.27152 338.71413 181.76455 339.3976 183.47324 C 340.195 185.52367 342.815 185.86541 343.8402 184.15672 C 344.18194 183.47324 345.20716 183.0176 345.89064 183.0176 C 346.68803 183.0176 346.4602 183.58716 345.32107 184.15672 C 344.29586 184.8402 343.7263 186.20715 344.06803 187.4602 C 344.40977 188.59932 344.06803 189.96627 343.38455 190.42192 C 342.47325 190.87758 343.0428 192.35844 344.97933 194.6367 C 348.73846 199.0793 348.85237 204.5471 345.32107 204.4332 C 343.8402 204.31929 342.0176 203.74972 341.33412 203.18016 C 340.3089 202.49668 339.2837 202.6106 338.3724 203.40798 C 336.5498 204.88885 335.29675 203.97755 335.29675 201.01581 C 335.29675 199.76277 334.8411 199.1932 334.1576 199.53495 C 332.1072 200.788 332.90458 205.68624 335.6385 207.39493 C 337.6889 208.76188 339.05587 208.8758 343.6124 207.62276 C 349.9915 206.02798 351.47236 204.31929 350.67497 199.53495 C 350.1054 196.23148 350.1054 196.23148 351.47236 198.73756 C 352.6115 200.9019 352.38366 202.15494 350.67497 205.3445 C 348.62454 209.21754 349.0802 211.83753 351.47236 209.44536 C 352.15584 208.76188 353.6367 206.2558 354.6619 203.86363 L 356.59844 199.53495 L 356.02887 205.00276 C 355.80105 207.9645 354.548 212.4071 353.29497 214.68535 C 351.0167 219.12795 351.58628 219.01404 336.43587 219.5836 C 334.61327 219.6975 332.56284 218.44447 330.5124 216.16622 C 326.52546 211.72362 326.29764 209.44536 330.17067 213.3184 C 332.335 215.48274 334.0437 216.0523 337.00544 215.82448 C 341.78978 215.36883 342.9289 213.20448 338.4863 213.20448 C 331.1959 212.97666 326.9811 203.6358 331.87936 198.39582 C 334.1576 196.00365 334.61327 193.95322 334.38544 188.3715 C 334.1576 185.06802 329.94284 182.33412 328.00633 184.27063 C 327.32285 184.8402 325.72807 185.29585 324.3611 185.29585 C 321.6272 185.29585 319.6907 181.76455 321.17156 179.4863 C 321.74112 178.46108 321.17156 178.34717 319.57678 178.6889 C 316.84287 179.4863 316.1594 177.54978 318.43765 175.27152 C 319.12113 174.58805 319.34895 173.56283 318.8933 173.10718 C 317.75418 171.96805 313.6533 176.98022 313.6533 179.6002 C 313.6533 182.56194 320.37417 187.5741 324.3611 187.68802 C 327.55068 187.68802 327.6646 187.80193 325.50025 188.82715 C 321.85504 190.64975 314.3368 188.25758 312.742 184.72629 C 311.37506 181.65064 309.0968 180.85325 309.0968 183.47324 C 309.0968 184.27063 310.122 186.32106 311.37506 187.91584 C 314.22288 191.44714 321.96895 193.04192 327.55068 191.1054 C 330.85415 189.96627 331.08197 189.96627 329.6011 191.33323 C 324.9307 195.77583 311.7168 193.38366 307.50202 187.4602 C 305.22377 184.15672 305.22377 177.54978 307.3881 174.58805 C 309.32463 171.96805 309.55245 170.48719 307.95768 170.48719 C 306.02116 170.48719 303.40116 177.09413 303.40116 181.99238 C 303.40116 186.09324 304.08464 187.23237 308.2994 191.1054 C 313.5394 196.00365 318.0959 197.3706 325.38633 196.23148 C 329.94284 195.43409 330.05676 195.548 328.23415 197.48452 C 325.27242 200.44625 318.0959 199.64886 309.8942 195.66191 C 306.02116 193.7254 303.51508 192.13062 304.31247 192.13062 C 305.4516 192.13062 305.22377 191.1054 303.51508 188.25758 C 296.4525 176.8663 306.02116 163.65242 321.17156 163.65242 C 326.7533 163.65242 330.2846 165.13328 327.09502 166.1585 C 326.18372 166.50024 326.63937 167.18371 328.23415 168.09502 C 331.08197 169.57588 331.65154 172.76544 329.03154 172.76544 C 328.12024 172.76544 327.32285 173.56283 327.32285 174.47413 C 327.32285 176.63848 329.25937 176.63848 331.53762 174.47413 C 333.36023 172.53762 332.79066 165.58894 330.5124 162.85503 C 329.94284 162.05764 329.82893 160.34895 330.17067 158.86808 C 330.96806 156.362 330.96806 156.362 328.12024 158.29852 C 326.52546 159.32373 324.9307 159.77938 324.58894 159.20982 C 323.90547 158.0707 326.8672 155.22287 329.94284 154.19766 C 331.65154 153.51418 332.79066 151.12201 331.3098 151.12201 C 329.4872 151.12201 323.79155 154.88113 321.85504 157.2733 C 319.34895 160.57677 317.64026 159.8933 319.57678 156.47591 C 321.5133 152.8307 325.27242 150.0968 328.46198 149.98288 C 330.05676 149.98288 332.1072 149.41332 333.0185 148.84376 C 334.27153 148.04637 333.81588 147.70463 330.85415 147.70463 C 328.6898 147.70463 324.70286 149.07158 321.74112 150.78027 C 317.8681 153.05853 316.9568 153.28635 318.20983 151.69157 C 320.37417 149.07158 328.23415 145.42637 331.87936 145.42637 C 333.47414 145.42637 336.7776 145.99594 339.2837 146.67941 Z" fill="#FFFFFF"/>
        </g>
        <g id="Graphic_161">
          <path d="M 300.55334 147.70463 C 301.46465 149.1855 299.98378 149.1855 297.70552 147.70463 C 296.22466 146.79332 296.22466 146.5655 297.93335 146.5655 C 298.95856 146.5655 300.2116 147.02115 300.55334 147.70463 Z" fill="#FFFFFF"/>
        </g>
        <g id="Graphic_160">
          <path d="M 118.17896 164.90546 C 119.432 166.04459 120.11548 167.29763 119.77374 167.63937 C 118.97635 168.55067 110.88854 163.5385 110.88854 162.17155 C 110.88854 160.69069 115.78679 162.5133 118.17896 164.90546 Z" fill="#FFFFFF"/>
        </g>
        <g id="Graphic_159">
          <path d="M 121.1407 170.48719 C 121.1407 171.05675 120.91287 171.62631 120.68504 171.62631 C 120.3433 171.62631 119.77374 171.05675 119.432 170.48719 C 119.09026 169.8037 119.31809 169.34806 119.88765 169.34806 C 120.57113 169.34806 121.1407 169.8037 121.1407 170.48719 Z" fill="#FFFFFF"/>
        </g>
        <g id="Graphic_158">
          <path d="M 124.33025 181.08108 C 124.55808 186.32106 124.21634 188.71323 123.30504 188.71323 C 122.39373 188.71323 122.27982 187.5741 122.73547 185.18194 C 123.07721 183.24542 122.73547 180.16977 121.82417 177.89152 C 120.22939 174.01848 120.57113 172.4237 122.73547 173.10718 C 123.41895 173.335 124.10243 176.98022 124.33025 181.08108 Z" fill="#FFFFFF"/>
        </g>
        <g id="Graphic_157">
          <path d="M 349.0802 179.94195 C 347.94107 180.96716 347.82715 180.85325 348.51063 179.25847 C 348.85237 178.11934 349.53585 177.54978 349.8776 177.89152 C 350.21932 178.23326 349.8776 179.14456 349.0802 179.94195 Z" fill="#FFFFFF"/>
        </g>
        <g id="Graphic_156">
          <path d="M 353.06714 181.76455 C 352.04193 183.70107 350.21932 185.7515 348.9663 186.43498 C 345.5489 188.25758 346.23237 186.09324 350.1054 182.67585 C 352.04193 180.96716 353.5228 179.03065 353.5228 178.23326 C 353.5228 177.54978 353.86453 177.20804 354.20627 177.54978 C 354.548 178.00543 353.97844 179.82804 353.06714 181.76455 Z" fill="#FFFFFF"/>
        </g>
        <g id="Graphic_155">
          <path d="M 110.88854 190.9915 C 109.06594 194.52279 108.26855 193.04192 109.97724 189.2828 C 110.77463 187.5741 111.57202 186.6628 111.79984 187.34628 C 112.02767 188.02976 111.57202 189.73845 110.88854 190.9915 Z" fill="#FFFFFF"/>
        </g>
        <g id="Graphic_154">
          <path d="M 81.95469 194.18105 C 80.13209 194.40887 77.967745 193.8393 76.94253 192.8141 C 75.46166 191.33323 75.8034 191.33323 80.246 192.47236 C 84.80251 193.7254 85.03034 193.8393 81.95469 194.18105 Z" fill="#FFFFFF"/>
        </g>
        <g id="Graphic_153">
          <path d="M 72.72776 196.68713 C 73.069495 197.2567 72.84167 197.82626 72.04428 197.82626 C 71.3608 197.82626 69.99385 198.73756 69.19646 199.76277 C 67.94342 201.47147 67.71559 201.58538 67.60168 199.9906 C 67.60168 196.80104 71.24689 194.40887 72.72776 196.68713 Z" fill="#FFFFFF"/>
        </g>
        <g id="Graphic_152">
          <path d="M 143.69543 200.33234 C 144.26499 206.82537 144.15108 209.44536 143.12586 210.47058 C 142.32847 211.26797 142.10065 210.81231 142.44239 208.76188 C 142.78412 207.1671 142.44239 204.31929 141.87282 202.38277 C 140.8476 199.76277 140.96152 198.96538 142.10065 198.96538 C 142.89804 198.96538 143.58151 199.64886 143.69543 200.33234 Z" fill="#FFFFFF"/>
        </g>
        <g id="Graphic_151">
          <path d="M 140.50587 206.59754 C 140.50587 207.50884 139.48065 210.12884 138.34153 212.521 C 135.94936 217.19143 129.2285 220.381 124.67199 218.90012 C 123.19112 218.44447 122.27982 218.6723 122.27982 219.4697 C 122.27982 221.74794 125.92503 222.08968 131.73458 220.26708 L 137.54414 218.44447 L 135.15197 220.72273 C 131.73458 224.1401 123.41895 224.9375 117.72331 222.3175 C 115.21723 221.17838 113.1668 219.4697 113.1668 218.55838 C 113.1668 217.41926 113.85028 217.19143 115.21723 217.761 C 116.24244 218.21665 118.17896 218.7862 119.432 219.12795 C 121.36852 219.5836 121.36852 219.35577 118.86244 217.30534 C 117.26766 216.0523 115.67288 214.91318 115.21723 214.91318 C 114.64766 214.91318 114.30593 214.3436 114.30593 213.77405 C 114.30593 213.09057 115.67288 212.74883 117.49548 212.86275 C 121.36852 213.3184 122.27982 211.04014 118.29287 210.5845 C 113.28071 209.90101 115.21723 207.28102 122.39373 204.77494 C 128.54503 202.7245 129.34241 202.7245 129.91198 204.31929 C 130.36763 205.3445 130.02589 207.62276 129.45633 209.33145 C 128.08937 212.74883 128.88676 213.54622 131.16502 211.26797 C 131.96241 210.47058 132.53197 208.0784 132.53197 205.91406 C 132.53197 202.83842 132.87371 202.26886 133.89893 203.29407 C 135.83544 205.2306 137.08848 205.00276 137.08848 202.6106 C 137.2024 200.9019 137.31631 200.9019 138.79718 202.83842 C 139.70848 204.09146 140.50587 205.80015 140.50587 206.59754 Z" fill="#FFFFFF"/>
        </g>
        <g id="Graphic_150">
          <path d="M 284.036 202.04103 C 284.036 202.6106 283.58034 203.74972 282.89686 204.66102 C 281.64382 206.71145 280.04904 205.45841 280.96034 202.95233 C 281.64382 201.24364 284.036 200.56016 284.036 202.04103 Z" fill="#FFFFFF"/>
        </g>
        <g id="Graphic_149">
          <path d="M 70.90515 217.30534 L 73.41123 222.3175 L 69.99385 218.33056 C 67.03212 214.91318 66.576466 213.54622 66.576466 208.0784 L 66.69038 201.8132 L 67.60168 207.0532 C 68.05733 209.90101 69.65211 214.45752 70.90515 217.30534 Z" fill="#FFFFFF"/>
        </g>
        <g id="Graphic_148">
          <path d="M 289.6177 214.2297 C 291.2125 216.16622 290.18728 216.62187 287.7951 215.141 C 286.08642 214.11579 284.71947 206.36972 285.8586 204.4332 C 286.54207 203.40798 287.11163 204.5471 287.45337 207.73667 C 287.90902 210.35666 288.82033 213.20448 289.6177 214.2297 Z" fill="#FFFFFF"/>
        </g>
        <g id="Graphic_147">
          <path d="M 323.4498 206.2558 C 322.76634 209.21754 324.3611 214.11579 327.09502 217.41926 C 328.12024 218.6723 328.34807 219.4697 327.55068 219.4697 C 324.3611 219.4697 319.23504 207.50884 321.17156 204.4332 C 322.5385 202.38277 324.1333 203.6358 323.4498 206.2558 Z" fill="#FFFFFF"/>
        </g>
        <g id="Graphic_146">
          <path d="M 292.57945 207.0532 C 291.78206 209.55927 294.62988 213.77405 297.3638 213.77405 C 299.52813 213.77405 299.1864 212.29318 296.5664 210.5845 C 295.31336 209.7871 294.28814 208.64797 294.28814 208.0784 C 294.28814 206.02798 298.84465 206.93928 305.67942 210.35666 C 309.43854 212.17927 313.5394 213.77405 314.79244 213.77405 C 316.84287 213.77405 317.0707 213.20448 316.84287 209.67319 C 316.61505 207.0532 317.0707 205.2306 317.8681 205.00276 C 318.8933 204.66102 319.12113 205.45841 318.66548 207.85058 C 317.52635 213.4323 322.3107 220.26708 330.17067 224.36794 C 333.2463 226.07663 333.36023 226.19054 331.08197 226.30445 C 329.4872 226.30445 325.9559 224.0262 322.19677 220.60882 C 316.61505 215.59665 315.58983 215.0271 312.28636 215.71057 C 310.23593 216.0523 307.3881 217.8749 305.90725 219.6975 C 303.7429 222.2036 302.26204 222.88707 299.07248 222.77316 C 296.6803 222.65925 295.769 222.43142 296.90813 222.08968 C 297.93335 221.86186 298.84465 221.06447 298.84465 220.4949 C 298.84465 219.92534 297.93335 219.4697 296.90813 219.4697 C 295.19944 219.4697 295.19944 219.24186 296.4525 218.44447 C 297.70552 217.64708 297.13596 216.62187 293.8325 213.77405 C 289.95945 210.35666 288.7064 207.1671 290.52902 205.45841 C 292.1238 203.86363 293.26293 204.77494 292.57945 207.0532 Z" fill="#FFFFFF"/>
        </g>
        <g id="Graphic_145">
          <path d="M 108.61029 207.50884 C 108.61029 208.42015 107.8129 209.21754 106.9016 209.21754 C 105.42073 209.21754 105.30682 208.8758 106.55986 207.50884 C 108.38246 205.45841 108.61029 205.45841 108.61029 207.50884 Z" fill="#FFFFFF"/>
        </g>
        <g id="Graphic_144">
          <path d="M 73.29732 214.11579 C 73.29732 214.68535 72.84167 214.68535 72.15819 214.3436 C 71.58863 214.00187 71.019065 212.74883 71.019065 211.72362 C 71.019065 210.01493 71.24689 210.01493 72.15819 211.4958 C 72.72776 212.4071 73.29732 213.66013 73.29732 214.11579 Z" fill="#FFFFFF"/>
        </g>
        <g id="Graphic_143">
          <path d="M 314.79244 219.4697 C 314.79244 220.03925 313.99505 220.60882 313.08375 220.60882 C 310.8055 220.60882 310.9194 222.43142 313.4255 224.0262 C 315.02027 225.05141 314.79244 225.16533 312.17245 224.59576 C 309.78028 224.1401 308.9829 224.36794 309.32463 225.39315 C 310.0081 227.44358 315.70375 227.89923 317.75418 226.19054 C 320.14634 224.25402 320.94373 225.62098 318.7794 227.89923 C 316.1594 230.40532 309.8942 230.1775 307.50202 227.5575 C 305.5655 225.39315 305.5655 225.16533 308.0716 221.86186 C 310.57767 218.55838 314.79244 216.9636 314.79244 219.4697 Z" fill="#FFFFFF"/>
        </g>
        <g id="Graphic_142">
          <path d="M 344.40977 224.59576 C 342.815 225.50707 341.1063 226.19054 340.42282 226.19054 C 339.85326 226.19054 340.53673 225.50707 342.1315 224.59576 C 343.7263 223.68446 345.5489 223.00098 346.11846 223.00098 C 346.80194 223.00098 346.00455 223.68446 344.40977 224.59576 Z" fill="#FFFFFF"/>
        </g>
        <g id="Graphic_141">
          <path d="M 307.1603 231.0888 C 308.0716 231.65836 308.0716 232.0001 307.2742 232.0001 C 305.22377 232.0001 301.9203 227.6714 302.9455 226.19054 C 303.51508 225.16533 304.08464 225.62098 304.7681 227.5575 C 305.33768 229.03836 306.3629 230.63314 307.1603 231.0888 Z" fill="#FFFFFF"/>
        </g>
        <g id="Graphic_140">
          <path d="M 317.75418 232.56966 C 315.2481 234.50618 311.8307 234.84791 310.8055 233.25314 C 310.46376 232.56966 312.17245 231.88618 314.4507 231.65836 C 316.84287 231.43053 319.0072 231.2027 319.34895 231.0888 C 319.6907 230.97488 318.8933 231.65836 317.75418 232.56966 Z" fill="#FFFFFF"/>
        </g>
        <g id="Graphic_139">
          <path d="M 232.31958 145.31246 C 232.88914 145.88202 238.47087 147.02115 244.73607 147.70463 C 260.56995 149.52723 288.36467 156.81765 303.7429 163.08285 C 306.02116 163.99416 306.4768 161.94373 304.31247 160.57677 C 303.51508 160.12112 297.70552 158.0707 291.44032 155.90635 C 270.59428 149.07158 228.21872 141.43942 232.31958 145.31246 Z" fill="black"/>
        </g>
        <g id="Graphic_138">
          <path d="M 204.29703 148.61593 C 204.29703 150.0968 209.4231 150.78027 222.52308 151.0081 C 228.44655 151.12201 237.67348 151.69157 243.02738 152.26114 C 248.38128 152.94462 253.7352 153.40027 254.98823 153.40027 C 262.27865 153.28635 245.41955 149.52723 235.0535 148.95767 C 214.20745 147.81854 204.29703 147.70463 204.29703 148.61593 Z" fill="black"/>
        </g>
        <g id="Graphic_137">
          <path d="M 184.93186 166.61415 C 170.80667 167.9811 153.37801 170.94284 152.01106 172.19588 C 150.75802 173.44892 152.80845 173.67674 157.02322 172.76544 C 161.57974 171.74023 181.40056 168.66458 190.05793 167.75328 C 192.56402 167.41154 198.6014 167.18371 203.49964 167.18371 C 209.08137 167.0698 212.15702 166.61415 211.70136 165.93067 C 210.79006 164.56372 204.52486 164.67763 184.93186 166.61415 Z" fill="black"/>
        </g>
        <g id="Graphic_136">
          <path d="M 226.62394 166.95589 C 226.05438 167.75328 226.96568 168.20893 229.0161 168.32284 C 232.5474 168.55067 234.48392 168.7785 244.73607 170.37327 C 253.7352 171.74023 258.06387 171.85414 257.3804 170.6011 C 256.81083 169.6898 250.65954 168.55067 240.74913 167.52545 C 238.58478 167.29763 234.59784 166.72806 232.09175 166.38633 C 229.13002 165.93067 227.0796 166.1585 226.62394 166.95589 Z" fill="black"/>
        </g>
        <g id="Graphic_135">
          <path d="M 200.87965 171.5124 C 200.87965 172.3098 203.49964 172.76544 208.62572 172.76544 C 216.59961 172.87935 230.6109 173.67674 237.10392 174.47413 C 242.57173 175.15761 241.54652 173.2211 235.9648 172.3098 C 225.3709 170.71501 200.87965 170.14545 200.87965 171.5124 Z" fill="black"/>
        </g>
        <g id="Graphic_134">
          <path d="M 247.5839 174.92978 C 247.5839 175.49935 249.5204 176.29674 251.91258 176.7524 C 254.19084 177.32195 256.69692 177.7776 257.3804 177.89152 C 257.94996 178.11934 262.7343 179.25847 267.86037 180.62542 C 278.45426 183.35933 278.34035 183.35933 278.34035 181.99238 C 278.34035 180.96716 265.12646 177.09413 254.6465 175.0437 C 247.35607 173.67674 247.5839 173.67674 247.5839 174.92978 Z" fill="black"/>
        </g>
        <g id="Graphic_133">
          <path d="M 199.17096 181.87847 C 198.7153 182.56194 201.44921 183.0176 206.80311 182.90368 C 214.32136 182.78977 214.6631 182.67585 210.56224 181.76455 C 204.29703 180.51151 199.96835 180.51151 199.17096 181.87847 Z" fill="black"/>
        </g>
        <g id="Graphic_132">
          <path d="M 172.40145 183.81498 C 161.01017 185.40976 136.17718 191.33323 132.30415 193.38366 C 127.86155 195.77583 131.39285 195.77583 138.45544 193.38366 C 147.9102 190.30801 166.25016 186.6628 183.10925 184.72629 C 190.51359 183.81498 196.8927 182.78977 197.23444 182.56194 C 198.14574 181.53673 183.5649 182.33412 172.40145 183.81498 Z" fill="black"/>
        </g>
        <g id="Graphic_131">
          <path d="M 217.397 182.90368 C 218.65005 183.47324 222.52308 184.0428 225.94046 184.0428 C 229.35785 184.15672 237.10392 184.9541 243.02738 185.86541 C 255.5578 187.80193 258.4056 187.91584 254.41866 186.20715 C 248.26737 183.70107 212.15702 180.51151 217.397 182.90368 Z" fill="black"/>
        </g>
        <g id="Graphic_130">
          <path d="M 98.35814 210.35666 C 98.35814 210.92623 97.56075 211.4958 96.64944 211.4958 C 95.62423 211.4958 94.94075 212.521 94.94075 213.88796 C 94.94075 215.59665 94.37119 216.0523 93.23206 215.59665 C 92.20684 215.25491 91.52337 215.59665 91.52337 216.62187 C 91.52337 218.90012 87.08077 218.7862 86.28338 216.62187 C 85.48599 214.79926 83.54947 214.2297 83.54947 215.9384 C 83.54947 218.21665 87.30859 220.60882 91.06772 220.60882 C 94.37119 220.60882 95.3964 219.92534 97.78857 216.0523 C 100.86422 211.26797 101.31987 209.21754 99.49726 209.21754 C 98.9277 209.21754 98.35814 209.67319 98.35814 210.35666 Z" fill="black"/>
        </g>
        <g id="Graphic_129">
          <path d="M 338.71413 149.86897 C 338.71413 150.43853 339.62543 151.12201 340.76456 151.46375 C 341.78978 151.69157 343.6124 152.37505 344.7515 152.8307 C 347.82715 154.08374 347.02976 151.57766 343.8402 150.2107 C 340.3089 148.61593 338.71413 148.50202 338.71413 149.86897 Z" fill="black"/>
        </g>
        <g id="Graphic_128">
          <path d="M 339.3976 160.46286 C 339.62543 162.96894 339.3976 165.70285 338.82804 166.38633 C 337.23326 168.43676 336.20805 172.76544 337.23326 172.76544 C 337.80283 172.76544 339.3976 171.74023 340.76456 170.48719 C 344.6376 166.84198 343.8402 155.67852 339.73934 155.67852 C 339.2837 155.67852 339.1698 157.84287 339.3976 160.46286 Z" fill="black"/>
        </g>
        <g id="Graphic_127">
          <path d="M 309.8942 174.70196 C 309.43854 175.0437 309.0968 176.7524 309.0968 178.34717 C 309.2107 181.19499 309.2107 181.19499 310.8055 179.14456 C 313.4255 175.72717 312.5142 171.96805 309.8942 174.70196 Z" fill="black"/>
        </g>
        <g id="Graphic_126">
          <path d="M 349.76367 214.57144 C 349.308 214.91318 348.9663 215.82448 348.9663 216.50795 C 348.9663 217.19143 349.53585 217.07752 350.33323 216.28013 C 351.0167 215.59665 351.35845 214.68535 351.13062 214.3436 C 350.7889 214.00187 350.1054 214.11579 349.76367 214.57144 Z" fill="black"/>
        </g>
        <g id="Graphic_125">
          <path d="M 134.5824 208.9897 C 133.44328 210.6984 131.96241 212.97666 131.16502 214.00187 C 129.11459 216.8497 131.0511 217.8749 133.78501 215.36883 C 136.97457 212.4071 138.1137 210.12884 137.2024 207.85058 C 136.63283 206.1419 136.17718 206.36972 134.5824 208.9897 Z" fill="black"/>
        </g>
      </g>
    </g>
  </g>
</svg>
