<?xml version="1.0" encoding="UTF-8" standalone="no"?>
<!DOCTYPE svg PUBLIC "-//W3C//DTD SVG 1.1//EN" "http://www.w3.org/Graphics/SVG/1.1/DTD/svg11.dtd">
<svg xmlns:xl="http://www.w3.org/1999/xlink" version="1.1" xmlns="http://www.w3.org/2000/svg" xmlns:dc="http://purl.org/dc/elements/1.1/" viewBox="38.381847 62.01563 364.21875 436.5" width="364.21875" height="436.5">
  <defs>
    <clipPath id="artboard_clip_path">
      <path d="M 38.381847 62.01563 L 402.53773 62.01563 C 402.53773 62.01563 402.6006 104.74096 402.6006 207.7844 C 402.6006 310.82785 316.7932 431.129 220.39472 498.5156 C 123.9309 431.129 38.437823 311.3305 38.437823 207.7844 C 38.437823 104.2383 38.381847 62.01563 38.381847 62.01563 Z"/>
    </clipPath>
  </defs>
  <g id="Stream_Fesswise_Throughout" stroke-opacity="1" stroke="none" fill="none" fill-opacity="1" stroke-dasharray="none">
    <title>Stream Fesswise Throughout</title>
    <g id="Stream_Fesswise_Throughout_Layer_3" clip-path="url(#artboard_clip_path)">
      <title>Layer 3</title>
      <g id="Group_1263">
        <g id="Graphic_1258">
          <path d="M 39.416687 207.00842 C 39.41738 222.4208 41.321885 238.1951 44.881875 254.1025 C 49.05931 256.51106 54.90265 259.25806 59.8246 259.25806 C 68.58871 259.25806 86.11694 262.1613 94.88105 267.96774 C 103.64516 273.7742 132.85887 279.58065 144.54435 276.67742 C 156.22984 273.7742 185.44355 276.67742 194.20766 279.58065 C 202.97177 282.48387 238.02823 282.48387 246.79234 279.58065 C 255.55645 276.67742 295.0299 271.09757 307.4108 273.7742 C 319.79167 276.45082 351.9617 270.87097 357.80444 265.06452 C 362.32593 260.5711 386.0921 254.33904 396.6096 251.75025 C 399.8711 236.6198 401.61083 221.63612 401.611 207.00233 C 401.05396 207.0951 384.0011 209.95078 378.25403 212.80645 C 372.4113 215.70968 351.9617 224.41935 334.43347 224.41935 C 316.90524 224.41935 305.21976 233.12903 293.53427 230.2258 C 281.8488 227.32258 243.87097 230.2258 235.10685 233.12903 C 230.7248 234.58065 219.03931 235.30645 207.35383 235.30645 C 195.66835 235.30645 183.98286 234.58065 179.6008 233.12903 C 170.8367 230.2258 143.38776 224.0948 129.9375 227.32258 C 116.48724 230.55036 90.70452 224.0948 80.27419 218.6129 C 70.06795 213.24878 40.674907 207.26313 39.416687 207.00842 Z" fill="#FFFFFF"/>
          <path d="M 39.416687 207.00842 C 39.41738 222.4208 41.321885 238.1951 44.881875 254.1025 C 49.05931 256.51106 54.90265 259.25806 59.8246 259.25806 C 68.58871 259.25806 86.11694 262.1613 94.88105 267.96774 C 103.64516 273.7742 132.85887 279.58065 144.54435 276.67742 C 156.22984 273.7742 185.44355 276.67742 194.20766 279.58065 C 202.97177 282.48387 238.02823 282.48387 246.79234 279.58065 C 255.55645 276.67742 295.0299 271.09757 307.4108 273.7742 C 319.79167 276.45082 351.9617 270.87097 357.80444 265.06452 C 362.32593 260.5711 386.0921 254.33904 396.6096 251.75025 C 399.8711 236.6198 401.61083 221.63612 401.611 207.00233 C 401.05396 207.0951 384.0011 209.95078 378.25403 212.80645 C 372.4113 215.70968 351.9617 224.41935 334.43347 224.41935 C 316.90524 224.41935 305.21976 233.12903 293.53427 230.2258 C 281.8488 227.32258 243.87097 230.2258 235.10685 233.12903 C 230.7248 234.58065 219.03931 235.30645 207.35383 235.30645 C 195.66835 235.30645 183.98286 234.58065 179.6008 233.12903 C 170.8367 230.2258 143.38776 224.0948 129.9375 227.32258 C 116.48724 230.55036 90.70452 224.0948 80.27419 218.6129 C 70.06795 213.24878 40.674907 207.26313 39.416687 207.00842 Z" stroke="black" stroke-linecap="round" stroke-linejoin="round" stroke-width="2"/>
        </g>
        <g id="Line_1254">
          <path d="M 39.375 215.70968 C 56.903226 224.41935 59.8246 227.32258 65.66734 227.32258 C 71.51008 227.32258 86.11694 224.41935 97.80242 230.2258 C 109.4879 236.03226 115.33065 247.64516 132.85887 253.4516 C 150.3871 259.25806 170.8367 265.06452 188.36492 262.1613" stroke="black" stroke-linecap="round" stroke-linejoin="round" stroke-width="1"/>
        </g>
        <g id="Line_1253">
          <path d="M 124.09476 244.74194 C 138.70161 241.8387 144.54435 250.5484 164.99395 253.4516 C 185.44355 256.35484 211.73589 244.74194 226.34274 244.74194 C 240.9496 244.74194 275.9478 260.47877 293.00993 259.85842 C 310.07206 259.23807 325.4696 252.62103 340.86714 244.34973" stroke="black" stroke-linecap="round" stroke-linejoin="round" stroke-width="1"/>
        </g>
        <g id="Line_1252">
          <path d="M 115.33065 236.03226 C 135.78024 230.2258 150.3871 244.74194 162.07258 244.74194 C 173.75806 244.74194 189.20522 245.01347 200.0504 238.93548" stroke="black" stroke-linecap="round" stroke-linejoin="round" stroke-width="1"/>
        </g>
        <g id="Line_1251">
          <path d="M 147.46573 233.12903 C 159.15121 230.2258 161.28905 235.42393 173.75806 238.93548" stroke="black" stroke-linecap="round" stroke-linejoin="round" stroke-width="1"/>
        </g>
        <g id="Line_1250">
          <path d="M 40.330414 227.32258 C 52.0159 224.41935 57.02807 237.31913 65.79218 237.31913 C 74.5563 237.31913 74.74049 231.69206 83.0624 233.12903 C 91.3843 234.566 93.67421 240.42087 103.64516 238.93548" stroke="black" stroke-linecap="round" stroke-linejoin="round" stroke-width="1"/>
        </g>
        <g id="Line_1249">
          <path d="M 45.40085 233.18348 C 54.16496 241.89316 59.8246 244.74194 71.51008 244.74194 C 83.19556 244.74194 89.03831 241.8387 97.80242 244.74194 C 106.56653 247.64516 107.19908 249.93286 115.33065 248.48538" stroke="black" stroke-linecap="round" stroke-linejoin="round" stroke-width="1"/>
        </g>
        <g id="Line_1248">
          <path d="M 42.785256 240.819 C 42.785256 240.819 47.314834 247.14112 57.40742 251.82056 C 67.5 256.5 71.54838 251.70667 82.40322 253.61133 C 93.25806 255.516 102.78399 270.81995 120.66993 266.921" stroke="black" stroke-linecap="round" stroke-linejoin="round" stroke-width="1"/>
        </g>
        <g id="Line_1247">
          <path d="M 84.65625 249.82258 C 91.95968 249.09677 109.88737 252.988 117.36142 257.7044 C 124.83547 262.42083 130.709 269.39533 139.08736 269.77025 C 147.46573 270.14516 159.80488 267.70373 168.59092 268.0239 C 177.37695 268.34408 193.69177 271.7219 203.54863 268.34408 C 213.4055 264.96627 220.13387 258.56334 230.8752 257.71144 C 241.61653 256.85953 254.8723 266.3174 264.72918 259.56178" stroke="black" stroke-linecap="round" stroke-linejoin="round" stroke-width="1"/>
        </g>
        <g id="Line_1246">
          <path d="M 195.66835 260.70968 C 202.97177 257.08065 214.65726 251.53656 221.96069 251.40538 C 229.2641 251.2742 244.5345 252.22227 253.17285 256.85953" stroke="black" stroke-linecap="round" stroke-linejoin="round" stroke-width="1"/>
        </g>
        <g id="Line_1245">
          <path d="M 240.21925 236.75806 C 254.8261 241.8387 270.1217 251.8114 290.09688 251.3891 C 310.07206 250.96677 337.0335 228.71172 358.00893 228.01715 C 378.98437 227.32258 397.5092 235.53644 399.3957 235.53644" stroke="black" stroke-linecap="round" stroke-linejoin="round" stroke-width="1"/>
        </g>
        <g id="Line_1244">
          <path d="M 260.66885 234.58065 C 260.66885 234.58065 277.46673 243.12413 286.9612 242.48142 C 296.45565 241.8387 305.5528 234.5638 313.0549 234.20932 C 320.55696 233.85484 323.99032 235.0308 323.99032 235.0308" stroke="black" stroke-linecap="round" stroke-linejoin="round" stroke-width="1"/>
        </g>
        <g id="Line_1243">
          <path d="M 335.89415 238.20968 C 348.31 241.1129 356.34375 241.93927 362.1865 241.16318 C 368.02923 240.3871 377.07054 237.34902 380.9614 234.072" stroke="black" stroke-linecap="round" stroke-linejoin="round" stroke-width="1"/>
        </g>
        <g id="Line_1242">
          <path d="M 354.88306 236.75806 C 358.53478 233.85484 363.32622 231.7473 370.98354 234.072" stroke="black" stroke-linecap="round" stroke-linejoin="round" stroke-width="1"/>
        </g>
        <g id="Line_1241">
          <path d="M 368.02923 221.51613 C 379.7147 219.3387 388.15053 222.40333 397.1823 226.72395" stroke="black" stroke-linecap="round" stroke-linejoin="round" stroke-width="1"/>
        </g>
        <g id="Line_1240">
          <path d="M 387.01815 218.6129 C 392.8609 214.25806 396.54586 213.71847 401.625 214.05368" stroke="black" stroke-linecap="round" stroke-linejoin="round" stroke-width="1"/>
        </g>
        <g id="Line_1239">
          <path d="M 211.73589 270.87097 C 211.73589 270.87097 220.83787 275.5306 232.7196 274.6524 C 244.6013 273.7742 249.02488 267.60037 260.0045 266.19926 C 270.98413 264.79816 287.07122 269.63886 294.6848 268.4404 C 302.2984 267.24194 317.21725 266.01524 323.9009 259.29393" stroke="black" stroke-linecap="round" stroke-linejoin="round" stroke-width="1"/>
        </g>
        <g id="Line_1238">
          <path d="M 239.52185 264.3387 C 235.87013 267.24194 231.0787 269.34946 223.42137 267.02477" stroke="black" stroke-linecap="round" stroke-linejoin="round" stroke-width="1"/>
        </g>
        <g id="Line_1237">
          <path d="M 322.01764 267.24194 C 335.1638 268.69355 332.56916 260.8673 344.0913 257.15946 C 355.6134 253.4516 359.8604 256.69724 359.8604 256.69724" stroke="black" stroke-linecap="round" stroke-linejoin="round" stroke-width="1"/>
        </g>
        <g id="Line_1236">
          <path d="M 337.35484 253.4516 C 346.11895 247.64516 355.6134 246.98876 363.64718 249.13148 C 371.68095 251.2742 384.37113 245.0372 387.01815 237.60603" stroke="black" stroke-linecap="round" stroke-linejoin="round" stroke-width="1"/>
        </g>
        <g id="Line_1235">
          <path d="M 380.44506 252 C 390.4892 251.79282 389.19636 240.35973 398.5995 242.95246" stroke="black" stroke-linecap="round" stroke-linejoin="round" stroke-width="1"/>
        </g>
      </g>
    </g>
    <g id="Esc____Badge_Master_layer" clip-path="url(#artboard_clip_path)">
      <title>Master layer</title>
      <g id="Line_22">
        <line x1="40.416667" y1="64.125" x2="33.666667" y2="57.375" stroke="black" stroke-linecap="butt" stroke-linejoin="round" stroke-width=".25"/>
      </g>
      <g id="Line_21">
        <line x1="220.41667" y1="64.125" x2="220.41667" y2="55.125" stroke="black" stroke-linecap="butt" stroke-linejoin="round" stroke-width=".5"/>
      </g>
      <g id="Line_20">
        <line x1="400.41667" y1="64.125" x2="407.16667" y2="57.375" stroke="black" stroke-linecap="butt" stroke-linejoin="round" stroke-width=".5"/>
      </g>
      <g id="Line_19">
        <line x1="89.35417" y1="375.1875" x2="96.10417" y2="368.4375" stroke="black" stroke-linecap="round" stroke-linejoin="round" stroke-width=".5"/>
      </g>
      <g id="Line_18">
        <line x1="351.486" y1="375.1875" x2="344.736" y2="368.4375" stroke="black" stroke-linecap="butt" stroke-linejoin="round" stroke-width=".5"/>
      </g>
      <g id="Line_17">
        <line x1="220.41667" y1="505.125" x2="220.41667" y2="496.125" stroke="black" stroke-linecap="butt" stroke-linejoin="round" stroke-width=".5"/>
      </g>
      <g id="Line_16">
        <line x1="42.666667" y1="244.125" x2="33.666667" y2="244.125" stroke="black" stroke-linecap="butt" stroke-linejoin="round" stroke-width=".5"/>
      </g>
      <g id="Line_15">
        <line x1="407.16667" y1="244.125" x2="398.16667" y2="244.125" stroke="black" stroke-linecap="butt" stroke-linejoin="round" stroke-width=".5"/>
      </g>
      <g id="Graphic_14">
        <path d="M 39.361014 63 L 401.5485 63 C 401.5485 63 401.611 105.5 401.611 208 C 401.611 310.5 316.26745 430.16666 220.39004 497.1979 C 124.44764 430.16666 39.416687 311 39.416687 208 C 39.416687 105 39.361014 63 39.361014 63 Z" stroke="black" stroke-linecap="round" stroke-linejoin="miter" stroke-width="2"/>
      </g>
    </g>
  </g>
</svg>
