<?xml version="1.0" encoding="UTF-8" standalone="no"?>
<!DOCTYPE svg PUBLIC "-//W3C//DTD SVG 1.1//EN" "http://www.w3.org/Graphics/SVG/1.1/DTD/svg11.dtd">
<svg xmlns:xl="http://www.w3.org/1999/xlink" version="1.1" xmlns="http://www.w3.org/2000/svg" xmlns:dc="http://purl.org/dc/elements/1.1/" viewBox="33.75 60.75 297 297" width="297" height="297">
  <defs>
    <clipPath id="artboard_clip_path">
      <path d="M 33.75 60.75 L 330.75 60.75 L 330.75 346.5 L 313.875 357.75 L 33.75 357.75 Z"/>
    </clipPath>
  </defs>
  <g id="Sun_(7)" stroke-opacity="1" stroke="none" fill="none" fill-opacity="1" stroke-dasharray="none">
    <title>Sun (7)</title>
    <g id="Sun_(7)_Art" clip-path="url(#artboard_clip_path)">
      <title>Art</title>
      <g id="Group_113">
        <g id="Group_160">
          <g id="Graphic_162">
            <path d="M 201.55341 132.15808 C 200.85433 135.66163 198.66515 137.97667 197.09984 140.09972 L 197.09984 140.09972 C 196.7739 140.02994 196.44754 139.96248 196.12082 139.89735 C 205.54499 141.79161 214.5113 145.5889 222.43213 151.04626 L 222.43213 151.04626 C 225.6268 149.12231 230.12275 147.32182 231.46367 140.74625 C 233.46253 130.94431 223.8753 129.74259 226.09627 121.34168 C 228.31724 112.94078 235.44474 115.23885 236.58917 106.9886 C 237.7336 98.73836 230.67585 97.94927 232.43364 92.07993 C 234.19142 86.21059 236.48186 86.92662 237.3755 83.57547 C 238.26914 80.22432 235.2215 78.63632 237.94034 74.017835 C 232.42707 76.90188 234.05064 78.30356 232.51763 81.26262 C 230.98462 84.22167 227.26891 82.50796 223.62166 88.47936 C 219.9744 94.45076 225.29893 94.36718 221.69758 101.92672 C 218.09624 109.48627 211.06801 103.80143 205.54018 111.64543 C 200.01234 119.48942 206.987 123.6225 203.1008 130.11353 C 202.61162 130.93063 202.0943 131.59767 201.5534 132.15808 Z" fill="#FFFFFF"/>
            <path d="M 201.55341 132.15808 C 200.85433 135.66163 198.66515 137.97667 197.09984 140.09972 L 197.09984 140.09972 C 196.7739 140.02994 196.44754 139.96248 196.12082 139.89735 C 205.54499 141.79161 214.5113 145.5889 222.43213 151.04626 L 222.43213 151.04626 C 225.6268 149.12231 230.12275 147.32182 231.46367 140.74625 C 233.46253 130.94431 223.8753 129.74259 226.09627 121.34168 C 228.31724 112.94078 235.44474 115.23885 236.58917 106.9886 C 237.7336 98.73836 230.67585 97.94927 232.43364 92.07993 C 234.19142 86.21059 236.48186 86.92662 237.3755 83.57547 C 238.26914 80.22432 235.2215 78.63632 237.94034 74.017835 C 232.42707 76.90188 234.05064 78.30356 232.51763 81.26262 C 230.98462 84.22167 227.26891 82.50796 223.62166 88.47936 C 219.9744 94.45076 225.29893 94.36718 221.69758 101.92672 C 218.09624 109.48627 211.06801 103.80143 205.54018 111.64543 C 200.01234 119.48942 206.987 123.6225 203.1008 130.11353 C 202.61162 130.93063 202.0943 131.59767 201.5534 132.15808 Z" stroke="black" stroke-linecap="round" stroke-linejoin="round" stroke-width=".8866642"/>
          </g>
          <g id="Graphic_161">
            <path d="M 222.43213 151.04626 C 225.62852 149.11816 230.1264 147.31298 231.4711 140.72829 C 233.4756 130.91274 223.8869 129.71456 226.11282 121.30173 C 228.33873 112.8889 235.46658 115.18614 236.61563 106.92473 C 237.76469 98.66332 230.7058 97.87696 232.46708 91.99918 C 234.22837 86.12139 236.51892 86.83713 237.41454 83.48122 C 238.27345 80.26285 235.50587 78.67006 237.6783 74.46484 C 237.71484 74.31643 237.70223 74.05689 237.6651 74.08046 C 234.1065 78.52795 234.8826 78.75701 234.62394 82.16368 C 234.36232 85.60924 229.21276 85.7467 227.41409 91.4654 C 225.6154 97.1841 230.46378 96.77773 228.79352 104.99535 C 227.12326 113.21297 218.92873 109.39674 215.45723 118.35833 C 211.98572 127.31991 219.75356 129.64175 217.5488 136.89056 C 216.26784 141.10216 213.63374 142.35394 211.10877 144.6852 C 215.0608 146.45105 218.85332 148.57888 222.43213 151.04626 Z" stroke="black" stroke-linecap="round" stroke-linejoin="round" stroke-width=".4433321"/>
          </g>
        </g>
        <g id="Group_157">
          <g id="Graphic_159">
            <path d="M 170.58223 130.63926 C 171.2771 134.14365 170.1405 137.12022 169.5068 139.68068 L 169.5068 139.68068 C 169.17895 139.74095 168.85163 139.80351 168.52485 139.86837 C 177.95655 138.01197 187.6935 138.08894 197.09984 140.09972 L 197.09984 140.09972 C 199.31506 137.09968 202.77976 133.71572 201.50225 127.12753 C 199.59792 117.30679 190.2806 119.86541 189.11762 111.25406 C 187.95464 102.64271 195.41902 102.03828 193.3191 93.97809 C 191.2192 85.9179 184.3967 87.88977 183.7746 81.79452 C 183.15247 75.69928 185.54257 75.4843 185.08576 72.04626 C 184.62895 68.60822 181.2056 68.30737 181.95006 63 C 177.96014 67.77435 179.99652 68.448016 179.71259 71.768485 C 179.42865 75.088955 175.33997 74.92763 174.2555 81.84023 C 173.17104 88.75283 178.05827 86.638 177.62398 95.00029 C 177.18968 103.36257 168.52095 100.80005 166.41567 110.16237 C 164.31038 119.52468 172.33579 120.67406 171.22942 128.15818 C 171.09015 129.10028 170.8675 129.91451 170.58223 130.63926 Z" fill="#FFFFFF"/>
            <path d="M 170.58223 130.63926 C 171.2771 134.14365 170.1405 137.12022 169.5068 139.68068 L 169.5068 139.68068 C 169.17895 139.74095 168.85163 139.80351 168.52485 139.86837 C 177.95655 138.01197 187.6935 138.08894 197.09984 140.09972 L 197.09984 140.09972 C 199.31506 137.09968 202.77976 133.71572 201.50225 127.12753 C 199.59792 117.30679 190.2806 119.86541 189.11762 111.25406 C 187.95464 102.64271 195.41902 102.03828 193.3191 93.97809 C 191.2192 85.9179 184.3967 87.88977 183.7746 81.79452 C 183.15247 75.69928 185.54257 75.4843 185.08576 72.04626 C 184.62895 68.60822 181.2056 68.30737 181.95006 63 C 177.96014 67.77435 179.99652 68.448016 179.71259 71.768485 C 179.42865 75.088955 175.33997 74.92763 174.2555 81.84023 C 173.17104 88.75283 178.05827 86.638 177.62398 95.00029 C 177.18968 103.36257 168.52095 100.80005 166.41567 110.16237 C 164.31038 119.52468 172.33579 120.67406 171.22942 128.15818 C 171.09015 129.10028 170.8675 129.91451 170.58223 130.63926 Z" stroke="black" stroke-linecap="round" stroke-linejoin="round" stroke-width=".8866642"/>
          </g>
          <g id="Graphic_158">
            <path d="M 197.09984 140.09972 C 199.31506 137.09518 202.77976 133.70615 201.50225 127.10809 C 199.59792 117.27262 190.2806 119.83508 189.11762 111.21082 C 187.95464 102.58656 195.41902 101.98122 193.3191 93.90895 C 191.2192 85.83668 184.3967 87.8115 183.7746 81.70712 C 183.15247 75.60274 185.54257 75.38744 185.08576 71.94424 C 184.64767 68.64217 181.48123 68.229726 181.87903 63.513255 C 181.856 63.36216 181.74501 63.1272 181.71973 63.16319 C 180.13399 68.63395 180.93867 68.54857 182.00338 71.79491 C 183.08024 75.07831 178.37527 77.17596 178.90196 83.14767 C 179.42865 89.11939 183.75245 86.88856 185.35408 95.11983 C 186.9557 103.3511 177.92454 102.96128 178.14674 112.56919 C 178.36894 122.1771 186.43402 121.34958 187.1711 128.89032 C 187.59933 133.27154 185.64478 135.43606 184.20415 138.55613 C 188.5311 138.67518 192.84923 139.18971 197.09984 140.09972 Z" stroke="black" stroke-linecap="round" stroke-linejoin="round" stroke-width=".4433321"/>
          </g>
        </g>
        <g id="Group_154">
          <g id="Graphic_156">
            <path d="M 250.4118 168.38736 C 247.44008 170.37041 244.25512 170.4594 241.64706 170.8538 L 241.64706 170.8538 C 241.46592 170.57396 241.28285 170.2955 241.09788 170.01842 C 246.42233 178.02176 250.07738 187.04698 251.81932 196.5068 L 251.81932 196.5068 C 255.43872 197.40533 259.89098 199.3113 265.48878 195.60986 C 273.8332 190.09224 267.90376 182.4633 275.41456 178.09343 C 282.92536 173.72355 286.3403 180.38844 292.98332 175.36387 C 299.62636 170.3393 295.19375 164.79075 300.58694 161.88344 C 305.98014 158.97613 307.0934 161.10202 310.09493 159.3643 C 313.09645 157.62658 312.06433 154.3487 317.2526 153.00544 C 311.3148 151.1463 311.4717 153.28547 308.29533 154.29384 C 305.11896 155.3022 303.70334 151.46302 296.9019 153.10644 C 290.1005 154.74986 293.9246 158.45577 286.03267 161.25464 C 278.14073 164.0535 277.1908 155.06402 267.7355 156.70179 C 258.2802 158.33956 260.2895 166.19392 252.95168 168.03582 C 252.028 168.26768 251.19053 168.37356 250.4118 168.38735 Z" fill="#FFFFFF"/>
            <path d="M 250.4118 168.38736 C 247.44008 170.37041 244.25512 170.4594 241.64706 170.8538 L 241.64706 170.8538 C 241.46592 170.57396 241.28285 170.2955 241.09788 170.01842 C 246.42233 178.02176 250.07738 187.04698 251.81932 196.5068 L 251.81932 196.5068 C 255.43872 197.40533 259.89098 199.3113 265.48878 195.60986 C 273.8332 190.09224 267.90376 182.4633 275.41456 178.09343 C 282.92536 173.72355 286.3403 180.38844 292.98332 175.36387 C 299.62636 170.3393 295.19375 164.79075 300.58694 161.88344 C 305.98014 158.97613 307.0934 161.10202 310.09493 159.3643 C 313.09645 157.62658 312.06433 154.3487 317.2526 153.00544 C 311.3148 151.1463 311.4717 153.28547 308.29533 154.29384 C 305.11896 155.3022 303.70334 151.46302 296.9019 153.10644 C 290.1005 154.74986 293.9246 158.45577 286.03267 161.25464 C 278.14073 164.0535 277.1908 155.06402 267.7355 156.70179 C 258.2802 158.33956 260.2895 166.19392 252.95168 168.03582 C 252.028 168.26768 251.19053 168.37356 250.4118 168.38735 Z" stroke="black" stroke-linecap="round" stroke-linejoin="round" stroke-width=".8866642"/>
          </g>
          <g id="Graphic_155">
            <path d="M 251.81932 196.5068 C 255.44288 197.4036 259.89982 199.30765 265.50675 195.60241 C 273.86478 190.07917 267.9318 182.4517 275.4545 178.07688 C 282.97724 173.70207 286.393 180.3666 293.0472 175.33741 C 299.7014 170.30822 295.26605 164.7608 300.6677 161.84999 C 306.06933 158.93918 307.1829 161.06495 310.18918 159.32526 C 313.07225 157.65687 312.24155 154.57362 316.75123 153.13623 C 316.882 153.05712 317.0566 152.86468 317.0137 152.8551 C 311.35253 153.48363 311.73934 154.19438 309.14757 156.42036 C 306.5262 158.67176 302.7877 155.12766 297.47212 157.89954 C 292.15653 160.67142 295.8722 163.81239 288.8804 168.44207 C 281.88862 173.07175 278.7927 164.57887 270.00117 168.46094 C 261.20965 172.34301 265.06056 179.4775 258.37588 183.04418 C 254.49205 185.11644 251.74432 184.139 248.31044 184.00202 C 249.8563 188.04517 251.0334 192.2315 251.81932 196.5068 Z" stroke="black" stroke-linecap="round" stroke-linejoin="round" stroke-width=".4433321"/>
          </g>
        </g>
        <g id="Group_151">
          <g id="Graphic_153">
            <path d="M 229.58583 145.41345 C 227.5992 148.38278 224.69074 149.68383 222.43213 151.04626 L 222.43213 151.04626 C 222.1577 150.85705 221.882 150.66984 221.60508 150.48464 C 229.58697 155.84118 236.4176 162.78067 241.64706 170.8538 L 241.64706 170.8538 C 245.3348 170.29884 250.17754 170.35593 253.93275 164.79405 C 259.5305 156.50316 251.13293 151.72404 256.39973 144.81255 C 261.66653 137.90105 267.37204 142.75177 271.5866 135.56749 C 275.80114 128.38321 269.5826 124.9533 273.45268 120.20342 C 277.32276 115.45353 279.16483 116.99156 281.27288 114.23749 C 283.38093 111.48341 281.173 108.85001 285.45227 105.62354 C 279.255 106.17822 280.2186 108.09451 277.6699 110.24167 C 275.1212 112.38882 272.34413 109.38361 266.68935 113.50473 C 261.03457 117.62584 265.98577 119.58622 259.76565 125.19216 C 253.54553 130.7981 249.2278 122.8564 241.11897 127.9879 C 233.01015 133.11939 237.87224 139.60694 231.79785 144.1167 C 231.0332 144.68439 230.3 145.10269 229.58583 145.41345 Z" fill="#FFFFFF"/>
            <path d="M 229.58583 145.41345 C 227.5992 148.38278 224.69074 149.68383 222.43213 151.04626 L 222.43213 151.04626 C 222.1577 150.85705 221.882 150.66984 221.60508 150.48464 C 229.58697 155.84118 236.4176 162.78067 241.64706 170.8538 L 241.64706 170.8538 C 245.3348 170.29884 250.17754 170.35593 253.93275 164.79405 C 259.5305 156.50316 251.13293 151.72404 256.39973 144.81255 C 261.66653 137.90105 267.37204 142.75177 271.5866 135.56749 C 275.80114 128.38321 269.5826 124.9533 273.45268 120.20342 C 277.32276 115.45353 279.16483 116.99156 281.27288 114.23749 C 283.38093 111.48341 281.173 108.85001 285.45227 105.62354 C 279.255 106.17822 280.2186 108.09451 277.6699 110.24167 C 275.1212 112.38882 272.34413 109.38361 266.68935 113.50473 C 261.03457 117.62584 265.98577 119.58622 259.76565 125.19216 C 253.54553 130.7981 249.2278 122.8564 241.11897 127.9879 C 233.01015 133.11939 237.87224 139.60694 231.79785 144.1167 C 231.0332 144.68439 230.3 145.10269 229.58583 145.41345 Z" stroke="black" stroke-linecap="round" stroke-linejoin="round" stroke-width=".8866642"/>
          </g>
          <g id="Graphic_152">
            <path d="M 241.64706 170.8538 C 245.33798 170.29566 250.1843 170.34916 253.9465 164.7803 C 259.55466 156.479 251.15438 151.7026 256.4303 144.78197 C 261.70623 137.86135 267.4124 142.71143 271.63548 135.5186 C 275.85857 128.32578 269.63794 124.89796 273.51448 120.14161 C 277.39103 115.38526 279.23332 116.92307 281.345 114.16535 C 283.37016 111.52066 281.4228 108.99 285.03913 105.93625 C 285.12967 105.81311 285.21734 105.5685 285.17402 105.57607 C 280.18432 108.32319 280.81368 108.83182 279.27104 111.88018 C 277.71078 114.96336 272.9006 113.1197 269.0504 117.71477 C 265.20018 122.30983 269.835 123.78979 265.14713 130.7427 C 260.45926 137.6956 254.34892 131.03396 247.71222 137.9849 C 241.0755 144.93584 247.36353 150.05356 242.5526 155.90686 C 239.75744 159.30767 236.8448 159.45613 233.6199 160.64368 C 236.59534 163.78748 239.2849 167.20468 241.64706 170.8538 Z" stroke="black" stroke-linecap="round" stroke-linejoin="round" stroke-width=".4433321"/>
          </g>
        </g>
        <g id="Group_148">
          <g id="Graphic_150">
            <path d="M 259.34192 228.55341 C 255.83837 227.85433 253.52333 225.66515 251.40028 224.09984 L 251.40028 224.09984 C 251.47006 223.7739 251.53752 223.44754 251.60265 223.12082 C 249.7084 232.545 245.9111 241.5113 240.45374 249.43213 L 240.45374 249.43213 C 242.3777 252.6268 244.17818 257.12275 250.75375 258.46367 C 260.5557 260.46253 261.7574 250.8753 270.15832 253.09627 C 278.55922 255.31724 276.26115 262.44474 284.5114 263.58917 C 292.76164 264.7336 293.55073 257.67585 299.42007 259.43364 C 305.2894 261.19142 304.57338 263.48186 307.92453 264.3755 C 311.27568 265.26914 312.8637 262.2215 317.48217 264.94034 C 314.5981 259.42707 313.19644 261.05064 310.2374 259.51763 C 307.27833 257.98462 308.99204 254.2689 303.02064 250.62166 C 297.04924 246.9744 297.13282 252.29893 289.57328 248.69758 C 282.01373 245.09624 287.69857 238.068 279.85457 232.54018 C 272.01058 227.01234 267.8775 233.987 261.38647 230.1008 C 260.56937 229.61162 259.90233 229.0943 259.34192 228.5534 Z" fill="#FFFFFF"/>
            <path d="M 259.34192 228.55341 C 255.83837 227.85433 253.52333 225.66515 251.40028 224.09984 L 251.40028 224.09984 C 251.47006 223.7739 251.53752 223.44754 251.60265 223.12082 C 249.7084 232.545 245.9111 241.5113 240.45374 249.43213 L 240.45374 249.43213 C 242.3777 252.6268 244.17818 257.12275 250.75375 258.46367 C 260.5557 260.46253 261.7574 250.8753 270.15832 253.09627 C 278.55922 255.31724 276.26115 262.44474 284.5114 263.58917 C 292.76164 264.7336 293.55073 257.67585 299.42007 259.43364 C 305.2894 261.19142 304.57338 263.48186 307.92453 264.3755 C 311.27568 265.26914 312.8637 262.2215 317.48217 264.94034 C 314.5981 259.42707 313.19644 261.05064 310.2374 259.51763 C 307.27833 257.98462 308.99204 254.2689 303.02064 250.62166 C 297.04924 246.9744 297.13282 252.29893 289.57328 248.69758 C 282.01373 245.09624 287.69857 238.068 279.85457 232.54018 C 272.01058 227.01234 267.8775 233.987 261.38647 230.1008 C 260.56937 229.61162 259.90233 229.0943 259.34192 228.5534 Z" stroke="black" stroke-linecap="round" stroke-linejoin="round" stroke-width=".8866642"/>
          </g>
          <g id="Graphic_149">
            <path d="M 240.45374 249.43213 C 242.38184 252.62852 244.18702 257.1264 250.7717 258.4711 C 260.58726 260.4756 261.78544 250.8869 270.19827 253.11282 C 278.6111 255.33873 276.31386 262.46658 284.57527 263.61563 C 292.83668 264.7647 293.62304 257.7058 299.50082 259.46708 C 305.3786 261.22837 304.66287 263.51892 308.01878 264.41454 C 311.23715 265.27345 312.82994 262.50587 317.03516 264.6783 C 317.18357 264.71484 317.4431 264.70223 317.41954 264.6651 C 312.97205 261.1065 312.743 261.8826 309.33632 261.62394 C 305.89076 261.36232 305.7533 256.21276 300.0346 254.4141 C 294.3159 252.6154 294.72227 257.46378 286.50465 255.79352 C 278.28703 254.12326 282.10326 245.92873 273.14167 242.45723 C 264.1801 238.98572 261.85825 246.75356 254.60944 244.5488 C 250.39784 243.26784 249.14606 240.63374 246.8148 238.10877 C 245.04895 242.0608 242.92112 245.85332 240.45374 249.43213 Z" stroke="black" stroke-linecap="round" stroke-linejoin="round" stroke-width=".4433321"/>
          </g>
        </g>
        <g id="Group_145">
          <g id="Graphic_147">
            <path d="M 260.86074 197.58223 C 257.35635 198.2771 254.37978 197.1405 251.81932 196.5068 L 251.81932 196.5068 C 251.75905 196.17895 251.6965 195.85163 251.63163 195.52485 C 253.48803 204.95655 253.41106 214.6935 251.40028 224.09984 L 251.40028 224.09984 C 254.40032 226.31506 257.78428 229.77976 264.37247 228.50225 C 274.1932 226.59792 271.6346 217.2806 280.24594 216.11762 C 288.8573 214.95464 289.46172 222.41902 297.5219 220.3191 C 305.5821 218.2192 303.61023 211.3967 309.70548 210.7746 C 315.80072 210.15247 316.0157 212.54257 319.45374 212.08576 C 322.89178 211.62895 323.19263 208.2056 328.5 208.95006 C 323.72565 204.96014 323.052 206.99652 319.7315 206.71259 C 316.41104 206.42865 316.57237 202.33997 309.65977 201.2555 C 302.74717 200.17104 304.862 205.05827 296.4997 204.62398 C 288.13743 204.18968 290.69995 195.52095 281.33763 193.41567 C 271.97532 191.31038 270.82594 199.33579 263.34182 198.22942 C 262.39972 198.09015 261.5855 197.8675 260.86074 197.58223 Z" fill="#FFFFFF"/>
            <path d="M 260.86074 197.58223 C 257.35635 198.2771 254.37978 197.1405 251.81932 196.5068 L 251.81932 196.5068 C 251.75905 196.17895 251.6965 195.85163 251.63163 195.52485 C 253.48803 204.95655 253.41106 214.6935 251.40028 224.09984 L 251.40028 224.09984 C 254.40032 226.31506 257.78428 229.77976 264.37247 228.50225 C 274.1932 226.59792 271.6346 217.2806 280.24594 216.11762 C 288.8573 214.95464 289.46172 222.41902 297.5219 220.3191 C 305.5821 218.2192 303.61023 211.3967 309.70548 210.7746 C 315.80072 210.15247 316.0157 212.54257 319.45374 212.08576 C 322.89178 211.62895 323.19263 208.2056 328.5 208.95006 C 323.72565 204.96014 323.052 206.99652 319.7315 206.71259 C 316.41104 206.42865 316.57237 202.33997 309.65977 201.2555 C 302.74717 200.17104 304.862 205.05827 296.4997 204.62398 C 288.13743 204.18968 290.69995 195.52095 281.33763 193.41567 C 271.97532 191.31038 270.82594 199.33579 263.34182 198.22942 C 262.39972 198.09015 261.5855 197.8675 260.86074 197.58223 Z" stroke="black" stroke-linecap="round" stroke-linejoin="round" stroke-width=".8866642"/>
          </g>
          <g id="Graphic_146">
            <path d="M 251.40028 224.09984 C 254.40482 226.31506 257.79385 229.77976 264.3919 228.50225 C 274.22738 226.59792 271.66492 217.2806 280.28918 216.11762 C 288.91344 214.95464 289.51878 222.41902 297.59105 220.3191 C 305.66332 218.2192 303.6885 211.3967 309.79288 210.7746 C 315.89726 210.15247 316.11256 212.54257 319.55576 212.08576 C 322.85783 211.64767 323.27027 208.48123 327.98674 208.87903 C 328.13784 208.856 328.3728 208.74501 328.3368 208.71973 C 322.86605 207.134 322.95143 207.93867 319.7051 209.00338 C 316.4217 210.08024 314.32404 205.37527 308.35233 205.90196 C 302.3806 206.42865 304.61144 210.75245 296.38017 212.35408 C 288.1489 213.9557 288.53872 204.92454 278.9308 205.14674 C 269.3229 205.36894 270.15042 213.43402 262.60968 214.1711 C 258.22846 214.59933 256.06394 212.64478 252.94387 211.20415 C 252.82482 215.5311 252.3103 219.84923 251.40028 224.09984 Z" stroke="black" stroke-linecap="round" stroke-linejoin="round" stroke-width=".4433321"/>
          </g>
        </g>
        <g id="Group_142">
          <g id="Graphic_144">
            <path d="M 223.11264 277.4118 C 221.12959 274.44008 221.0406 271.25512 220.6462 268.64706 L 220.6462 268.64706 C 220.92604 268.46592 221.2045 268.28285 221.48158 268.09788 C 213.47824 273.42233 204.45302 277.07738 194.9932 278.81932 L 194.9932 278.81932 C 194.09467 282.43872 192.1887 286.89098 195.89014 292.4888 C 201.40776 300.8332 209.0367 294.90376 213.40657 302.41456 C 217.77645 309.92536 211.11156 313.3403 216.13613 319.98332 C 221.1607 326.62636 226.70925 322.19375 229.61656 327.58694 C 232.52387 332.98014 230.39798 334.0934 232.1357 337.09493 C 233.87342 340.09645 237.1513 339.06433 238.49456 344.2526 C 240.3537 338.3148 238.21453 338.4717 237.20616 335.29533 C 236.1978 332.11896 240.03698 330.70334 238.39356 323.9019 C 236.75014 317.1005 233.04423 320.9246 230.24536 313.03267 C 227.4465 305.14073 236.43598 304.1908 234.7982 294.7355 C 233.16044 285.2802 225.30608 287.2895 223.46418 279.95168 C 223.23232 279.028 223.12644 278.19053 223.11265 277.4118 Z" fill="#FFFFFF"/>
            <path d="M 223.11264 277.4118 C 221.12959 274.44008 221.0406 271.25512 220.6462 268.64706 L 220.6462 268.64706 C 220.92604 268.46592 221.2045 268.28285 221.48158 268.09788 C 213.47824 273.42233 204.45302 277.07738 194.9932 278.81932 L 194.9932 278.81932 C 194.09467 282.43872 192.1887 286.89098 195.89014 292.4888 C 201.40776 300.8332 209.0367 294.90376 213.40657 302.41456 C 217.77645 309.92536 211.11156 313.3403 216.13613 319.98332 C 221.1607 326.62636 226.70925 322.19375 229.61656 327.58694 C 232.52387 332.98014 230.39798 334.0934 232.1357 337.09493 C 233.87342 340.09645 237.1513 339.06433 238.49456 344.2526 C 240.3537 338.3148 238.21453 338.4717 237.20616 335.29533 C 236.1978 332.11896 240.03698 330.70334 238.39356 323.9019 C 236.75014 317.1005 233.04423 320.9246 230.24536 313.03267 C 227.4465 305.14073 236.43598 304.1908 234.7982 294.7355 C 233.16044 285.2802 225.30608 287.2895 223.46418 279.95168 C 223.23232 279.028 223.12644 278.19053 223.11265 277.4118 Z" stroke="black" stroke-linecap="round" stroke-linejoin="round" stroke-width=".8866642"/>
          </g>
          <g id="Graphic_143">
            <path d="M 194.9932 278.81932 C 194.0964 282.44288 192.19235 286.89982 195.89759 292.50675 C 201.42083 300.86478 209.0483 294.9318 213.42312 302.4545 C 217.79793 309.97724 211.1334 313.393 216.1626 320.0472 C 221.19178 326.7014 226.7392 322.26605 229.65 327.6677 C 232.56082 333.06933 230.43505 334.1829 232.17474 337.18918 C 233.84313 340.07225 236.92638 339.24155 238.36377 343.75123 C 238.44288 343.882 238.63532 344.0566 238.6449 344.0137 C 238.01637 338.35253 237.30562 338.73934 235.07964 336.14757 C 232.82824 333.5262 236.37234 329.7877 233.60046 324.47212 C 230.82858 319.15653 227.6876 322.8722 223.05793 315.8804 C 218.42825 308.8886 226.92113 305.7927 223.03906 297.00117 C 219.157 288.20965 212.0225 292.06056 208.45582 285.37588 C 206.38356 281.49205 207.361 278.7443 207.49798 275.31044 C 203.45483 276.8563 199.2685 278.0334 194.9932 278.81932 Z" stroke="black" stroke-linecap="round" stroke-linejoin="round" stroke-width=".4433321"/>
          </g>
        </g>
        <g id="Group_139">
          <g id="Graphic_141">
            <path d="M 246.08655 256.58583 C 243.11722 254.5992 241.81617 251.69074 240.45374 249.43213 L 240.45374 249.43213 C 240.64295 249.1577 240.83016 248.882 241.01536 248.60508 C 235.65882 256.58697 228.71933 263.4176 220.6462 268.64706 L 220.6462 268.64706 C 221.20116 272.3348 221.14407 277.17754 226.70595 280.93275 C 234.99684 286.5305 239.77596 278.13293 246.68745 283.39973 C 253.59895 288.66653 248.74823 294.37204 255.9325 298.5866 C 263.1168 302.80114 266.5467 296.5826 271.2966 300.45268 C 276.04647 304.32276 274.50844 306.16483 277.2625 308.27288 C 280.0166 310.38093 282.65 308.173 285.87646 312.45227 C 285.32178 306.255 283.4055 307.2186 281.25833 304.6699 C 279.11118 302.1212 282.1164 299.34413 277.99527 293.68935 C 273.87416 288.03457 271.91378 292.98577 266.30784 286.76565 C 260.7019 280.54553 268.6436 276.2278 263.5121 268.11897 C 258.3806 260.01015 251.89306 264.87224 247.3833 258.79785 C 246.8156 258.0332 246.3973 257.3 246.08655 256.58583 Z" fill="#FFFFFF"/>
            <path d="M 246.08655 256.58583 C 243.11722 254.5992 241.81617 251.69074 240.45374 249.43213 L 240.45374 249.43213 C 240.64295 249.1577 240.83016 248.882 241.01536 248.60508 C 235.65882 256.58697 228.71933 263.4176 220.6462 268.64706 L 220.6462 268.64706 C 221.20116 272.3348 221.14407 277.17754 226.70595 280.93275 C 234.99684 286.5305 239.77596 278.13293 246.68745 283.39973 C 253.59895 288.66653 248.74823 294.37204 255.9325 298.5866 C 263.1168 302.80114 266.5467 296.5826 271.2966 300.45268 C 276.04647 304.32276 274.50844 306.16483 277.2625 308.27288 C 280.0166 310.38093 282.65 308.173 285.87646 312.45227 C 285.32178 306.255 283.4055 307.2186 281.25833 304.6699 C 279.11118 302.1212 282.1164 299.34413 277.99527 293.68935 C 273.87416 288.03457 271.91378 292.98577 266.30784 286.76565 C 260.7019 280.54553 268.6436 276.2278 263.5121 268.11897 C 258.3806 260.01015 251.89306 264.87224 247.3833 258.79785 C 246.8156 258.0332 246.3973 257.3 246.08655 256.58583 Z" stroke="black" stroke-linecap="round" stroke-linejoin="round" stroke-width=".8866642"/>
          </g>
          <g id="Graphic_140">
            <path d="M 220.6462 268.64706 C 221.20434 272.33798 221.15084 277.1843 226.7197 280.9465 C 235.021 286.55466 239.7974 278.15438 246.71803 283.4303 C 253.63865 288.70623 248.78857 294.4124 255.9814 298.63548 C 263.17422 302.85857 266.60204 296.63794 271.3584 300.5145 C 276.11474 304.39103 274.57693 306.23332 277.33465 308.345 C 279.97934 310.37016 282.51 308.4228 285.56375 312.03913 C 285.6869 312.12967 285.9315 312.21734 285.92393 312.17402 C 283.1768 307.1843 282.6682 307.8137 279.6198 306.27104 C 276.53664 304.71078 278.3803 299.9006 273.78523 296.0504 C 269.19017 292.20018 267.7102 296.835 260.7573 292.14713 C 253.8044 287.45926 260.46604 281.34892 253.5151 274.7122 C 246.56416 268.0755 241.44644 274.36353 235.59314 269.5526 C 232.19233 266.75744 232.04387 263.8448 230.85632 260.6199 C 227.71252 263.59534 224.29532 266.2849 220.6462 268.64706 Z" stroke="black" stroke-linecap="round" stroke-linejoin="round" stroke-width=".4433321"/>
          </g>
        </g>
        <g id="Group_136">
          <g id="Graphic_138">
            <path d="M 162.94659 286.34192 C 163.64567 282.83837 165.83485 280.52333 167.40016 278.40028 L 167.40016 278.40028 C 167.72611 278.47006 168.05246 278.53752 168.37918 278.60265 C 158.95501 276.7084 149.98871 272.9111 142.06787 267.45374 L 142.06787 267.45374 C 138.8732 269.3777 134.37725 271.17818 133.03633 277.75375 C 131.03747 287.5557 140.6247 288.7574 138.40373 297.15832 C 136.18276 305.55922 129.05526 303.26115 127.91083 311.5114 C 126.7664 319.76164 133.82415 320.55073 132.06636 326.42007 C 130.30858 332.2894 128.01814 331.5734 127.1245 334.92453 C 126.23086 338.27568 129.27849 339.8637 126.55966 344.48217 C 132.07293 341.5981 130.44936 340.19644 131.98237 337.2374 C 133.51538 334.27833 137.23109 335.99204 140.87834 330.02064 C 144.5256 324.04924 139.20107 324.13282 142.80242 316.57328 C 146.40376 309.01373 153.43199 314.69857 158.95982 306.85457 C 164.48766 299.01058 157.513 294.8775 161.39919 288.38647 C 161.88838 287.56937 162.4057 286.90233 162.94659 286.34192 Z" fill="#FFFFFF"/>
            <path d="M 162.94659 286.34192 C 163.64567 282.83837 165.83485 280.52333 167.40016 278.40028 L 167.40016 278.40028 C 167.72611 278.47006 168.05246 278.53752 168.37918 278.60265 C 158.95501 276.7084 149.98871 272.9111 142.06787 267.45374 L 142.06787 267.45374 C 138.8732 269.3777 134.37725 271.17818 133.03633 277.75375 C 131.03747 287.5557 140.6247 288.7574 138.40373 297.15832 C 136.18276 305.55922 129.05526 303.26115 127.91083 311.5114 C 126.7664 319.76164 133.82415 320.55073 132.06636 326.42007 C 130.30858 332.2894 128.01814 331.5734 127.1245 334.92453 C 126.23086 338.27568 129.27849 339.8637 126.55966 344.48217 C 132.07293 341.5981 130.44936 340.19644 131.98237 337.2374 C 133.51538 334.27833 137.23109 335.99204 140.87834 330.02064 C 144.5256 324.04924 139.20107 324.13282 142.80242 316.57328 C 146.40376 309.01373 153.43199 314.69857 158.95982 306.85457 C 164.48766 299.01058 157.513 294.8775 161.39919 288.38647 C 161.88838 287.56937 162.4057 286.90233 162.94659 286.34192 Z" stroke="black" stroke-linecap="round" stroke-linejoin="round" stroke-width=".8866642"/>
          </g>
          <g id="Graphic_137">
            <path d="M 142.06787 267.45374 C 138.87148 269.38184 134.37359 271.18702 133.02889 277.7717 C 131.02439 287.58726 140.61309 288.78544 138.38718 297.19827 C 136.16127 305.6111 129.03342 303.31386 127.88437 311.57527 C 126.73531 319.8367 133.7942 320.62304 132.03292 326.50082 C 130.27163 332.3786 127.98108 331.66287 127.08546 335.0188 C 126.22655 338.23715 128.99413 339.82994 126.82169 344.03516 C 126.78516 344.18357 126.79777 344.4431 126.8349 344.41954 C 130.3935 339.97205 129.6174 339.743 129.87606 336.33632 C 130.13768 332.89076 135.28724 332.7533 137.08591 327.0346 C 138.88459 321.3159 134.03622 321.72227 135.70648 313.50465 C 137.37674 305.28703 145.57127 309.10326 149.04277 300.14167 C 152.51428 291.1801 144.74644 288.85825 146.95119 281.60944 C 148.23216 277.39784 150.86626 276.14606 153.39123 273.8148 C 149.4392 272.04895 145.64668 269.92112 142.06787 267.45374 Z" stroke="black" stroke-linecap="round" stroke-linejoin="round" stroke-width=".4433321"/>
          </g>
        </g>
        <g id="Group_133">
          <g id="Graphic_135">
            <path d="M 193.91777 287.86074 C 193.2229 284.35635 194.3595 281.37978 194.9932 278.81932 L 194.9932 278.81932 C 195.32105 278.75905 195.64837 278.6965 195.97515 278.63163 C 186.54345 280.48803 176.8065 280.41106 167.40016 278.40028 L 167.40016 278.40028 C 165.18494 281.40032 161.72024 284.7843 162.99775 291.37247 C 164.90208 301.1932 174.2194 298.6346 175.38238 307.24594 C 176.54536 315.8573 169.08098 316.46172 171.1809 324.5219 C 173.2808 332.5821 180.1033 330.61023 180.7254 336.70548 C 181.34753 342.8007 178.95743 343.0157 179.41424 346.45374 C 179.87105 349.8918 183.2944 350.19263 182.54994 355.5 C 186.53986 350.72565 184.50348 350.052 184.78741 346.7315 C 185.07135 343.41104 189.16003 343.57237 190.2445 336.65977 C 191.32896 329.74717 186.44173 331.862 186.87602 323.4997 C 187.31032 315.13743 195.97905 317.69995 198.08433 308.33763 C 200.18962 298.9753 192.16421 297.82594 193.27058 290.34182 C 193.40985 289.39972 193.6325 288.5855 193.91777 287.86074 Z" fill="#FFFFFF"/>
            <path d="M 193.91777 287.86074 C 193.2229 284.35635 194.3595 281.37978 194.9932 278.81932 L 194.9932 278.81932 C 195.32105 278.75905 195.64837 278.6965 195.97515 278.63163 C 186.54345 280.48803 176.8065 280.41106 167.40016 278.40028 L 167.40016 278.40028 C 165.18494 281.40032 161.72024 284.7843 162.99775 291.37247 C 164.90208 301.1932 174.2194 298.6346 175.38238 307.24594 C 176.54536 315.8573 169.08098 316.46172 171.1809 324.5219 C 173.2808 332.5821 180.1033 330.61023 180.7254 336.70548 C 181.34753 342.8007 178.95743 343.0157 179.41424 346.45374 C 179.87105 349.8918 183.2944 350.19263 182.54994 355.5 C 186.53986 350.72565 184.50348 350.052 184.78741 346.7315 C 185.07135 343.41104 189.16003 343.57237 190.2445 336.65977 C 191.32896 329.74717 186.44173 331.862 186.87602 323.4997 C 187.31032 315.13743 195.97905 317.69995 198.08433 308.33763 C 200.18962 298.9753 192.16421 297.82594 193.27058 290.34182 C 193.40985 289.39972 193.6325 288.5855 193.91777 287.86074 Z" stroke="black" stroke-linecap="round" stroke-linejoin="round" stroke-width=".8866642"/>
          </g>
          <g id="Graphic_134">
            <path d="M 167.40016 278.40028 C 165.18494 281.40482 161.72024 284.79385 162.99775 291.3919 C 164.90208 301.22738 174.2194 298.66492 175.38238 307.28918 C 176.54536 315.91344 169.08098 316.51878 171.1809 324.59105 C 173.2808 332.66332 180.1033 330.6885 180.7254 336.7929 C 181.34753 342.89726 178.95743 343.11256 179.41424 346.55576 C 179.85233 349.85783 183.01877 350.27027 182.62097 354.98674 C 182.644 355.13784 182.75499 355.3728 182.78027 355.3368 C 184.36601 349.86605 183.56133 349.95143 182.49662 346.7051 C 181.41976 343.4217 186.12473 341.32404 185.59804 335.35233 C 185.07135 329.3806 180.74755 331.61144 179.14592 323.38017 C 177.5443 315.1489 186.57546 315.53872 186.35326 305.9308 C 186.13106 296.3229 178.06598 297.15042 177.3289 289.60968 C 176.90067 285.22846 178.85522 283.06394 180.29585 279.94387 C 175.9689 279.8248 171.65077 279.3103 167.40016 278.40028 Z" stroke="black" stroke-linecap="round" stroke-linejoin="round" stroke-width=".4433321"/>
          </g>
        </g>
        <g id="Group_130">
          <g id="Graphic_132">
            <path d="M 114.08821 250.11264 C 117.05992 248.1296 120.24488 248.0406 122.85294 247.6462 L 122.85294 247.6462 C 123.03408 247.92604 123.21715 248.2045 123.40212 248.48158 C 118.07767 240.47824 114.42262 231.45302 112.68068 221.9932 L 112.68068 221.9932 C 109.06128 221.09467 104.60902 219.1887 99.01122 222.89014 C 90.66679 228.40776 96.59624 236.0367 89.08544 240.40657 C 81.57464 244.77645 78.15972 238.11156 71.51668 243.13613 C 64.87364 248.1607 69.30625 253.70925 63.91306 256.61656 C 58.51986 259.52387 57.406595 257.39798 54.405075 259.1357 C 51.403554 260.87342 52.435666 264.1513 47.2474 265.49456 C 53.1852 267.3537 53.0283 265.21453 56.20467 264.20616 C 59.38104 263.1978 60.79666 267.03698 67.59808 265.39356 C 74.3995 263.75014 70.57539 260.04423 78.46733 257.24536 C 86.35927 254.4465 87.30919 263.43598 96.7645 261.7982 C 106.21981 260.16044 104.21051 252.30608 111.54832 250.46418 C 112.472 250.23232 113.30947 250.12644 114.08821 250.11265 Z" fill="#FFFFFF"/>
            <path d="M 114.08821 250.11264 C 117.05992 248.1296 120.24488 248.0406 122.85294 247.6462 L 122.85294 247.6462 C 123.03408 247.92604 123.21715 248.2045 123.40212 248.48158 C 118.07767 240.47824 114.42262 231.45302 112.68068 221.9932 L 112.68068 221.9932 C 109.06128 221.09467 104.60902 219.1887 99.01122 222.89014 C 90.66679 228.40776 96.59624 236.0367 89.08544 240.40657 C 81.57464 244.77645 78.15972 238.11156 71.51668 243.13613 C 64.87364 248.1607 69.30625 253.70925 63.91306 256.61656 C 58.51986 259.52387 57.406595 257.39798 54.405075 259.1357 C 51.403554 260.87342 52.435666 264.1513 47.2474 265.49456 C 53.1852 267.3537 53.0283 265.21453 56.20467 264.20616 C 59.38104 263.1978 60.79666 267.03698 67.59808 265.39356 C 74.3995 263.75014 70.57539 260.04423 78.46733 257.24536 C 86.35927 254.4465 87.30919 263.43598 96.7645 261.7982 C 106.21981 260.16044 104.21051 252.30608 111.54832 250.46418 C 112.472 250.23232 113.30947 250.12644 114.08821 250.11265 Z" stroke="black" stroke-linecap="round" stroke-linejoin="round" stroke-width=".8866642"/>
          </g>
          <g id="Graphic_131">
            <path d="M 112.68068 221.9932 C 109.05712 221.0964 104.60018 219.19235 98.99325 222.89759 C 90.63522 228.42083 96.56821 236.0483 89.04549 240.42312 C 81.52276 244.79793 78.107 238.1334 71.4528 243.1626 C 64.7986 248.19178 69.233945 253.7392 63.83231 256.65 C 58.43067 259.56082 57.317106 257.43505 54.310824 259.17474 C 51.42775 260.84313 52.25845 263.92638 47.748767 265.36377 C 47.617993 265.44288 47.44339 265.63532 47.48631 265.6449 C 53.14747 265.01637 52.760656 264.30562 55.352434 262.07964 C 57.973804 259.82824 61.71229 263.37234 67.02788 260.60046 C 72.34347 257.82858 68.6278 254.6876 75.61959 250.05793 C 82.61138 245.42825 85.7073 253.92113 94.49883 250.03906 C 103.29035 246.157 99.43944 239.0225 106.12412 235.45582 C 110.00795 233.38356 112.75568 234.361 116.18956 234.49798 C 114.6437 230.45483 113.46659 226.2685 112.68068 221.9932 Z" stroke="black" stroke-linecap="round" stroke-linejoin="round" stroke-width=".4433321"/>
          </g>
        </g>
        <g id="Group_127">
          <g id="Graphic_129">
            <path d="M 134.91417 273.08655 C 136.9008 270.11722 139.80926 268.81617 142.06787 267.45374 L 142.06787 267.45374 C 142.3423 267.64295 142.618 267.83016 142.89492 268.01536 C 134.91303 262.65882 128.0824 255.71933 122.85294 247.6462 L 122.85294 247.6462 C 119.1652 248.20116 114.32246 248.14407 110.56725 253.70595 C 104.9695 261.99684 113.36707 266.77596 108.10027 273.68745 C 102.83347 280.59895 97.12796 275.74823 92.91341 282.9325 C 88.69886 290.1168 94.9174 293.5467 91.04732 298.2966 C 87.17724 303.04647 85.33517 301.50844 83.22712 304.2625 C 81.11907 307.0166 83.32701 309.65 79.04773 312.87646 C 85.245 312.3218 84.28141 310.4055 86.83011 308.25833 C 89.37881 306.11118 92.15587 309.1164 97.81065 304.99527 C 103.46543 300.87416 98.51423 298.91378 104.73435 293.30784 C 110.95447 287.7019 115.27221 295.6436 123.38103 290.5121 C 131.48985 285.3806 126.62776 278.89306 132.70215 274.3833 C 133.4668 273.8156 134.19999 273.3973 134.91417 273.08655 Z" fill="#FFFFFF"/>
            <path d="M 134.91417 273.08655 C 136.9008 270.11722 139.80926 268.81617 142.06787 267.45374 L 142.06787 267.45374 C 142.3423 267.64295 142.618 267.83016 142.89492 268.01536 C 134.91303 262.65882 128.0824 255.71933 122.85294 247.6462 L 122.85294 247.6462 C 119.1652 248.20116 114.32246 248.14407 110.56725 253.70595 C 104.9695 261.99684 113.36707 266.77596 108.10027 273.68745 C 102.83347 280.59895 97.12796 275.74823 92.91341 282.9325 C 88.69886 290.1168 94.9174 293.5467 91.04732 298.2966 C 87.17724 303.04647 85.33517 301.50844 83.22712 304.2625 C 81.11907 307.0166 83.32701 309.65 79.04773 312.87646 C 85.245 312.3218 84.28141 310.4055 86.83011 308.25833 C 89.37881 306.11118 92.15587 309.1164 97.81065 304.99527 C 103.46543 300.87416 98.51423 298.91378 104.73435 293.30784 C 110.95447 287.7019 115.27221 295.6436 123.38103 290.5121 C 131.48985 285.3806 126.62776 278.89306 132.70215 274.3833 C 133.4668 273.8156 134.19999 273.3973 134.91417 273.08655 Z" stroke="black" stroke-linecap="round" stroke-linejoin="round" stroke-width=".8866642"/>
          </g>
          <g id="Graphic_128">
            <path d="M 122.85294 247.6462 C 119.16202 248.20434 114.3157 248.15084 110.5535 253.7197 C 104.94534 262.021 113.34562 266.7974 108.0697 273.71803 C 102.79377 280.63865 97.08761 275.78857 92.86452 282.9814 C 88.64143 290.17422 94.86206 293.60204 90.98552 298.3584 C 87.10897 303.11474 85.26668 301.57693 83.15498 304.33465 C 81.12984 306.97934 83.07721 309.51 79.46087 312.56375 C 79.37033 312.6869 79.28266 312.9315 79.32598 312.92393 C 84.31568 310.1768 83.68632 309.6682 85.22896 306.6198 C 86.78922 303.53664 91.5994 305.3803 95.44961 300.78523 C 99.29982 296.19017 94.665 294.7102 99.35287 287.7573 C 104.04074 280.8044 110.15108 287.46604 116.78778 280.5151 C 123.42449 273.56416 117.13647 268.44644 121.94739 262.59314 C 124.74256 259.19233 127.65519 259.04387 130.8801 257.85632 C 127.90466 254.71252 125.21511 251.29532 122.85294 247.6462 Z" stroke="black" stroke-linecap="round" stroke-linejoin="round" stroke-width=".4433321"/>
          </g>
        </g>
        <g id="Group_124">
          <g id="Graphic_126">
            <path d="M 105.15808 189.94659 C 108.66163 190.64567 110.97667 192.83485 113.09972 194.40016 L 113.09972 194.40016 C 113.02994 194.7261 112.96248 195.05246 112.89735 195.37918 C 114.79161 185.95501 118.58889 176.9887 124.04626 169.06787 L 124.04626 169.06787 C 122.12231 165.8732 120.32182 161.37725 113.74625 160.03633 C 103.94431 158.03747 102.74259 167.6247 94.34168 165.40373 C 85.94078 163.18276 88.23885 156.05526 79.9886 154.91083 C 71.73836 153.7664 70.94927 160.82415 65.07993 159.06636 C 59.210585 157.30858 59.92662 155.01814 56.57547 154.1245 C 53.22432 153.23086 51.636317 156.2785 47.017835 153.55966 C 49.901883 159.07293 51.30356 157.44936 54.262616 158.98237 C 57.22167 160.51538 55.50796 164.23109 61.47936 167.87834 C 67.450764 171.5256 67.36718 166.20107 74.92672 169.80242 C 82.48627 173.40376 76.80143 180.43199 84.64543 185.95982 C 92.48942 191.48766 96.6225 184.513 103.11353 188.3992 C 103.93063 188.88838 104.59767 189.4057 105.15808 189.9466 Z" fill="#FFFFFF"/>
            <path d="M 105.15808 189.94659 C 108.66163 190.64567 110.97667 192.83485 113.09972 194.40016 L 113.09972 194.40016 C 113.02994 194.7261 112.96248 195.05246 112.89735 195.37918 C 114.79161 185.95501 118.58889 176.9887 124.04626 169.06787 L 124.04626 169.06787 C 122.12231 165.8732 120.32182 161.37725 113.74625 160.03633 C 103.94431 158.03747 102.74259 167.6247 94.34168 165.40373 C 85.94078 163.18276 88.23885 156.05526 79.9886 154.91083 C 71.73836 153.7664 70.94927 160.82415 65.07993 159.06636 C 59.210585 157.30858 59.92662 155.01814 56.57547 154.1245 C 53.22432 153.23086 51.636317 156.2785 47.017835 153.55966 C 49.901883 159.07293 51.30356 157.44936 54.262616 158.98237 C 57.22167 160.51538 55.50796 164.23109 61.47936 167.87834 C 67.450764 171.5256 67.36718 166.20107 74.92672 169.80242 C 82.48627 173.40376 76.80143 180.43199 84.64543 185.95982 C 92.48942 191.48766 96.6225 184.513 103.11353 188.3992 C 103.93063 188.88838 104.59767 189.4057 105.15808 189.9466 Z" stroke="black" stroke-linecap="round" stroke-linejoin="round" stroke-width=".8866642"/>
          </g>
          <g id="Graphic_125">
            <path d="M 124.04626 169.06787 C 122.11816 165.87148 120.31298 161.3736 113.72829 160.02889 C 103.91274 158.0244 102.71456 167.6131 94.30173 165.38718 C 85.8889 163.16127 88.18614 156.03342 79.92473 154.88437 C 71.66332 153.73531 70.87696 160.7942 64.99918 159.03292 C 59.12139 157.27163 59.83713 154.98108 56.48122 154.08546 C 53.26285 153.22655 51.67006 155.99413 47.46484 153.82169 C 47.31643 153.78516 47.05689 153.79777 47.080464 153.8349 C 51.52795 157.3935 51.757006 156.6174 55.163677 156.87606 C 58.60924 157.13768 58.7467 162.28724 64.4654 164.08591 C 70.1841 165.8846 69.77773 161.03622 77.99535 162.70648 C 86.21297 164.37674 82.39674 172.57127 91.35833 176.04277 C 100.31991 179.51428 102.64175 171.74644 109.89056 173.95119 C 114.10216 175.23216 115.35394 177.86626 117.6852 180.39123 C 119.45105 176.4392 121.57888 172.64668 124.04626 169.06787 Z" stroke="black" stroke-linecap="round" stroke-linejoin="round" stroke-width=".4433321"/>
          </g>
        </g>
        <g id="Group_121">
          <g id="Graphic_123">
            <path d="M 103.63926 220.91777 C 107.14365 220.2229 110.12022 221.3595 112.68068 221.9932 L 112.68068 221.9932 C 112.74095 222.32105 112.80351 222.64837 112.86837 222.97515 C 111.01197 213.54345 111.08894 203.8065 113.09972 194.40016 L 113.09972 194.40016 C 110.09968 192.18494 106.71572 188.72024 100.12753 189.99775 C 90.30679 191.90208 92.86541 201.2194 84.25406 202.38238 C 75.64271 203.54536 75.03828 196.08098 66.97809 198.1809 C 58.9179 200.2808 60.889765 207.1033 54.79452 207.7254 C 48.69928 208.34753 48.4843 205.95743 45.04626 206.41424 C 41.60822 206.87105 41.307373 210.2944 36 209.54994 C 40.77435 213.53986 41.448016 211.50348 44.768485 211.78741 C 48.088955 212.07135 47.92763 216.16003 54.84023 217.2445 C 61.75283 218.32896 59.638 213.44173 68.000285 213.87602 C 76.36257 214.31032 73.80005 222.97905 83.16237 225.08433 C 92.52468 227.18962 93.67406 219.16421 101.15818 220.27058 C 102.10028 220.40985 102.91451 220.6325 103.63926 220.91777 Z" fill="#FFFFFF"/>
            <path d="M 103.63926 220.91777 C 107.14365 220.2229 110.12022 221.3595 112.68068 221.9932 L 112.68068 221.9932 C 112.74095 222.32105 112.80351 222.64837 112.86837 222.97515 C 111.01197 213.54345 111.08894 203.8065 113.09972 194.40016 L 113.09972 194.40016 C 110.09968 192.18494 106.71572 188.72024 100.12753 189.99775 C 90.30679 191.90208 92.86541 201.2194 84.25406 202.38238 C 75.64271 203.54536 75.03828 196.08098 66.97809 198.1809 C 58.9179 200.2808 60.889765 207.1033 54.79452 207.7254 C 48.69928 208.34753 48.4843 205.95743 45.04626 206.41424 C 41.60822 206.87105 41.307373 210.2944 36 209.54994 C 40.77435 213.53986 41.448016 211.50348 44.768485 211.78741 C 48.088955 212.07135 47.92763 216.16003 54.84023 217.2445 C 61.75283 218.32896 59.638 213.44173 68.000285 213.87602 C 76.36257 214.31032 73.80005 222.97905 83.16237 225.08433 C 92.52468 227.18962 93.67406 219.16421 101.15818 220.27058 C 102.10028 220.40985 102.91451 220.6325 103.63926 220.91777 Z" stroke="black" stroke-linecap="round" stroke-linejoin="round" stroke-width=".8866642"/>
          </g>
          <g id="Graphic_122">
            <path d="M 113.09972 194.40016 C 110.09518 192.18494 106.70615 188.72024 100.10809 189.99775 C 90.27262 191.90208 92.83508 201.2194 84.21082 202.38238 C 75.58656 203.54536 74.98122 196.08098 66.90895 198.1809 C 58.83668 200.2808 60.8115 207.1033 54.70712 207.7254 C 48.60274 208.34753 48.387437 205.95743 44.944243 206.41424 C 41.64217 206.85233 41.229726 210.01877 36.513255 209.62097 C 36.362162 209.644 36.127203 209.75499 36.16319 209.78027 C 41.63395 211.366 41.54857 210.56133 44.79491 209.49662 C 48.07831 208.41976 50.175956 213.12473 56.14767 212.59804 C 62.11939 212.07135 59.888556 207.74755 68.11983 206.14592 C 76.3511 204.5443 75.96128 213.57546 85.56919 213.35326 C 95.1771 213.13106 94.34958 205.06598 101.89032 204.3289 C 106.27154 203.90067 108.43606 205.85522 111.55613 207.29585 C 111.67518 202.9689 112.18971 198.65077 113.09972 194.40016 Z" stroke="black" stroke-linecap="round" stroke-linejoin="round" stroke-width=".4433321"/>
          </g>
        </g>
        <g id="Group_118">
          <g id="Graphic_120">
            <path d="M 141.38736 141.0882 C 143.37041 144.05992 143.4594 147.24488 143.8538 149.85294 L 143.8538 149.85294 C 143.57396 150.03408 143.2955 150.21715 143.01842 150.40212 C 151.02176 145.07767 160.04698 141.42262 169.5068 139.68068 L 169.5068 139.68068 C 170.40533 136.06128 172.3113 131.60902 168.60986 126.01122 C 163.09224 117.66679 155.4633 123.59624 151.09343 116.08544 C 146.72355 108.57464 153.38844 105.15972 148.36387 98.51668 C 143.3393 91.87364 137.79075 96.30625 134.88344 90.91306 C 131.97613 85.51986 134.10202 84.4066 132.3643 81.405075 C 130.62658 78.40355 127.34869 79.43567 126.00544 74.2474 C 124.1463 80.1852 126.28547 80.0283 127.29384 83.20467 C 128.3022 86.38104 124.46302 87.79666 126.10644 94.59808 C 127.74986 101.3995 131.45577 97.57539 134.25464 105.46733 C 137.05351 113.35927 128.06402 114.30919 129.70179 123.7645 C 131.33956 133.21981 139.19392 131.21051 141.03582 138.54832 C 141.26768 139.472 141.37356 140.30947 141.38735 141.0882 Z" fill="#FFFFFF"/>
            <path d="M 141.38736 141.0882 C 143.37041 144.05992 143.4594 147.24488 143.8538 149.85294 L 143.8538 149.85294 C 143.57396 150.03408 143.2955 150.21715 143.01842 150.40212 C 151.02176 145.07767 160.04698 141.42262 169.5068 139.68068 L 169.5068 139.68068 C 170.40533 136.06128 172.3113 131.60902 168.60986 126.01122 C 163.09224 117.66679 155.4633 123.59624 151.09343 116.08544 C 146.72355 108.57464 153.38844 105.15972 148.36387 98.51668 C 143.3393 91.87364 137.79075 96.30625 134.88344 90.91306 C 131.97613 85.51986 134.10202 84.4066 132.3643 81.405075 C 130.62658 78.40355 127.34869 79.43567 126.00544 74.2474 C 124.1463 80.1852 126.28547 80.0283 127.29384 83.20467 C 128.3022 86.38104 124.46302 87.79666 126.10644 94.59808 C 127.74986 101.3995 131.45577 97.57539 134.25464 105.46733 C 137.05351 113.35927 128.06402 114.30919 129.70179 123.7645 C 131.33956 133.21981 139.19392 131.21051 141.03582 138.54832 C 141.26768 139.472 141.37356 140.30947 141.38735 141.0882 Z" stroke="black" stroke-linecap="round" stroke-linejoin="round" stroke-width=".8866642"/>
          </g>
          <g id="Graphic_119">
            <path d="M 169.5068 139.68068 C 170.4036 136.05712 172.30765 131.60018 168.60241 125.99325 C 163.07917 117.63522 155.4517 123.56821 151.07688 116.04549 C 146.70207 108.52276 153.3666 105.107 148.33741 98.4528 C 143.30822 91.7986 137.7608 96.23395 134.84999 90.83231 C 131.93918 85.43067 134.06495 84.31711 132.32526 81.31082 C 130.65687 78.42775 127.57362 79.25845 126.13623 74.74877 C 126.05712 74.61799 125.86468 74.44339 125.8551 74.48631 C 126.48363 80.14747 127.19438 79.76066 129.42036 82.35243 C 131.67176 84.9738 128.12766 88.71229 130.89954 94.02788 C 133.67142 99.34347 136.81239 95.6278 141.44207 102.61959 C 146.07175 109.61138 137.57887 112.7073 141.46094 121.49883 C 145.34301 130.29035 152.4775 126.43944 156.04418 133.12412 C 158.11644 137.00795 157.139 139.75568 157.00202 143.18956 C 161.04517 141.6437 165.2315 140.46659 169.5068 139.68068 Z" stroke="black" stroke-linecap="round" stroke-linejoin="round" stroke-width=".4433321"/>
          </g>
        </g>
        <g id="Group_115">
          <g id="Graphic_117">
            <path d="M 118.41345 161.91417 C 121.38278 163.9008 122.68383 166.80926 124.04626 169.06787 L 124.04626 169.06787 C 123.85705 169.3423 123.66984 169.618 123.48464 169.89492 C 128.84118 161.91303 135.78067 155.0824 143.8538 149.85294 L 143.8538 149.85294 C 143.29884 146.1652 143.35593 141.32246 137.79405 137.56725 C 129.50316 131.9695 124.72404 140.36707 117.81255 135.10027 C 110.90105 129.83347 115.75177 124.12796 108.56749 119.91341 C 101.38321 115.69886 97.95331 121.9174 93.20342 118.04732 C 88.45353 114.17724 89.99156 112.33517 87.23749 110.22712 C 84.48341 108.11907 81.85001 110.32701 78.62354 106.04773 C 79.17822 112.245 81.09451 111.28141 83.24167 113.83011 C 85.38882 116.37881 82.38361 119.15587 86.50473 124.81065 C 90.62584 130.46543 92.58622 125.51423 98.19216 131.73435 C 103.79809 137.95447 95.8564 142.2722 100.9879 150.38103 C 106.11939 158.48985 112.60694 153.62776 117.1167 159.70215 C 117.68439 160.4668 118.10269 161.19999 118.41345 161.91417 Z" fill="#FFFFFF"/>
            <path d="M 118.41345 161.91417 C 121.38278 163.9008 122.68383 166.80926 124.04626 169.06787 L 124.04626 169.06787 C 123.85705 169.3423 123.66984 169.618 123.48464 169.89492 C 128.84118 161.91303 135.78067 155.0824 143.8538 149.85294 L 143.8538 149.85294 C 143.29884 146.1652 143.35593 141.32246 137.79405 137.56725 C 129.50316 131.9695 124.72404 140.36707 117.81255 135.10027 C 110.90105 129.83347 115.75177 124.12796 108.56749 119.91341 C 101.38321 115.69886 97.95331 121.9174 93.20342 118.04732 C 88.45353 114.17724 89.99156 112.33517 87.23749 110.22712 C 84.48341 108.11907 81.85001 110.32701 78.62354 106.04773 C 79.17822 112.245 81.09451 111.28141 83.24167 113.83011 C 85.38882 116.37881 82.38361 119.15587 86.50473 124.81065 C 90.62584 130.46543 92.58622 125.51423 98.19216 131.73435 C 103.79809 137.95447 95.8564 142.2722 100.9879 150.38103 C 106.11939 158.48985 112.60694 153.62776 117.1167 159.70215 C 117.68439 160.4668 118.10269 161.19999 118.41345 161.91417 Z" stroke="black" stroke-linecap="round" stroke-linejoin="round" stroke-width=".8866642"/>
          </g>
          <g id="Graphic_116">
            <path d="M 143.8538 149.85294 C 143.29566 146.16202 143.34916 141.3157 137.7803 137.5535 C 129.479 131.94534 124.70259 140.34562 117.78197 135.0697 C 110.86135 129.79377 115.71143 124.08761 108.5186 119.86452 C 101.32578 115.64143 97.89796 121.86206 93.14161 117.98552 C 88.38526 114.10897 89.92307 112.26668 87.16535 110.15498 C 84.52066 108.12984 81.99 110.07721 78.93625 106.46087 C 78.81311 106.37033 78.5685 106.28266 78.57607 106.32598 C 81.32319 111.31568 81.831815 110.68632 84.88018 112.22896 C 87.96336 113.78922 86.1197 118.5994 90.71477 122.44961 C 95.30983 126.29982 96.78979 121.665 103.7427 126.35287 C 110.6956 131.04074 104.03396 137.15108 110.9849 143.78778 C 117.93584 150.42449 123.05356 144.13647 128.90686 148.9474 C 132.30767 151.74256 132.45613 154.65519 133.64368 157.8801 C 136.78748 154.90466 140.20468 152.21511 143.8538 149.85294 Z" stroke="black" stroke-linecap="round" stroke-linejoin="round" stroke-width=".4433321"/>
          </g>
        </g>
        <g id="Graphic_114">
          <circle cx="182.25" cy="209.25" r="70.8224510061547" fill="#FFFFFF"/>
          <circle cx="182.25" cy="209.25" r="70.8224510061547" stroke="black" stroke-linecap="round" stroke-linejoin="round" stroke-width=".8866642"/>
        </g>
      </g>
    </g>
  </g>
</svg>
