<?xml version="1.0" encoding="UTF-8" standalone="no"?>
<!DOCTYPE svg PUBLIC "-//W3C//DTD SVG 1.1//EN" "http://www.w3.org/Graphics/SVG/1.1/DTD/svg11.dtd">
<svg xmlns:xl="http://www.w3.org/1999/xlink" xmlns="http://www.w3.org/2000/svg" xmlns:dc="http://purl.org/dc/elements/1.1/" version="1.1" viewBox="45 64.3116 274.5 246.1884" width="274.5" height="246.1884">
  <defs>
    <clipPath id="artboard_clip_path">
      <path d="M 45 64.3116 L 319.5 64.3116 L 319.5 310.5 L 45 310.5 Z"/>
    </clipPath>
  </defs>
  <g id="Triquetra_(3)" stroke-opacity="1" stroke="none" stroke-dasharray="none" fill="none" fill-opacity="1">
    <title>Triquetra (3)</title>
    <g id="Triquetra_(3)_Layer_2" clip-path="url(#artboard_clip_path)">
      <title>Layer 2</title>
      <g id="Group_26">
        <g id="Graphic_25">
          <path d="M 280.14105 280.04234 C 279.71615 280.0814 278.55617 280.09093 277.22504 280.07348 C 260.60136 279.71487 245.01678 275.85983 229.52524 268.2961 C 225.84085 266.50284 217.2117 261.32044 214.05802 259.03214 C 208.98555 255.32434 204.25615 251.36937 200.52291 247.65558 C 199.06192 246.20544 198.38996 245.5593 198.17365 245.1627 C 198.22861 244.8265 198.612 244.16058 199.46783 242.87682 C 201.9955 239.02431 205.72102 232.60272 207.8228 228.44296 C 208.5905 227.16292 208.96986 226.59173 209.18068 226.37183 C 209.18214 226.3722 209.1836 226.37258 209.18505 226.37297 C 209.3393 226.4308 210.5154 226.7393 211.78788 227.06706 C 222.4691 229.8627 234.40356 235.24186 244.17862 241.66217 C 258.33028 250.9745 270.32257 263.37168 278.8637 277.5619 C 279.73802 279.0131 280.25838 279.71843 280.14106 280.04235 Z M 182.61166 223.24864 C 182.58195 223.3167 182.53281 223.40406 182.46742 223.51732 C 182.1975 223.98484 182.17116 223.9919 181.87647 223.57687 C 181.81467 223.49426 181.76142 223.4111 181.72003 223.33506 C 181.72291 223.21846 181.85737 223.21102 182.19277 223.21102 C 182.41132 223.21102 182.54455 223.21418 182.61166 223.24864 Z M 193.01597 198.88449 C 192.82503 198.87599 192.411 198.84142 191.93281 198.79373 C 188.31603 198.46435 179.87922 198.4244 174.1169 198.72636 L 173.15838 198.77727 C 171.94072 198.74768 171.4209 198.69948 171.21834 198.62216 L 170.91275 197.5666 C 170.28657 195.33499 168.9313 189.27622 168.42286 186.37793 C 167.7697 182.6556 167.30787 178.91074 167.0354 175.1585 C 166.72073 170.82514 166.65859 166.48192 166.84589 162.15218 C 166.90885 160.69676 167 159.24285 167.1192 157.79135 C 167.20399 156.75908 167.30297 155.72802 167.4161 154.6985 C 167.60571 153.06186 167.82104 151.42574 168.0685 149.80611 C 168.24322 148.63327 168.43998 147.47848 168.65468 146.32677 C 169.95491 139.35203 171.91314 132.49002 174.5158 125.84299 C 174.93092 124.77473 175.36486 123.71933 175.81622 122.66618 C 176.13361 121.9256 176.45963 121.18615 176.79432 120.44755 C 178.45699 116.79334 181.55678 110.8882 182.12284 110.28007 C 182.16522 110.26912 182.20707 110.26973 182.24928 110.28176 C 182.44722 110.52754 183.08307 111.60265 183.79303 112.87044 C 190.62825 125.32206 194.87457 138.39276 196.71228 152.6595 C 196.95178 154.39002 197.13566 156.1674 197.27787 157.94923 C 197.39711 159.44327 197.48706 160.94046 197.54755 162.43974 C 197.6366 165.88093 197.56977 170.79687 197.39837 174.49458 C 197.0624 179.6349 196.37758 184.7674 195.33739 189.85056 C 194.82568 192.35116 193.9227 196.1161 193.35425 198.12307 C 193.27127 198.41602 193.19543 198.67151 193.12897 198.88015 C 193.07172 198.81016 193.04412 198.8505 193.01595 198.88448 Z M 166.26234 244.93527 C 166.3206 245.1115 166.31132 245.23467 166.23295 245.31234 C 166.10574 245.417 165.25054 246.28129 164.33044 247.21941 C 156.56874 255.07182 145.94301 262.71776 135.49533 267.97306 C 120.35478 275.5726 103.62237 279.75963 87.06271 280.06135 C 85.23581 280.09542 84.3661 280.2067 84.23557 279.8584 C 84.30079 279.47644 84.78593 278.78338 85.52185 277.5619 C 99.21079 254.83055 121.09382 237.40125 146.60152 228.89868 C 149.3029 227.99822 153.61052 226.7327 155.38633 226.32757 C 155.48202 226.3768 155.59402 226.493 155.73359 226.69315 C 155.82198 226.87894 155.93178 227.11637 156.04882 227.37554 C 157.57196 230.67246 161.75576 237.99893 164.89843 242.83826 Z M 217.61038 202.92437 C 217.66697 202.43187 217.91213 201.22915 218.22747 199.8627 C 220.12903 192.0649 221.28317 184.69422 221.79318 176.96546 C 222.00195 173.80179 222.1028 170.57812 222.1028 167.2406 C 222.18618 166.15757 222.1712 164.75583 222.13176 163.37708 C 221.36944 136.57237 212.94348 110.88638 197.99345 89.12661 L 198.07384 89.04703 C 191.98191 79.54075 182.34069 70.09018 182.34069 70.09018 C 182.34069 70.09018 182.27294 70.14156 182.13867 70.25235 C 181.99789 70.31654 181.80074 70.477415 181.48667 70.78527 C 181.3268 70.95967 181.11074 71.15747 180.8644 71.38972 C 178.5606 73.56163 173.60665 78.74603 166.32837 89.06259 L 166.42157 89.15579 L 166.34515 89.27107 C 157.93114 101.51499 151.64212 114.86982 147.52992 129.21083 C 143.6631 142.73835 141.91188 156.4862 142.27539 170.321 C 142.4004 172.74672 142.50742 175.33065 142.67888 177.83894 C 143.192 185.34552 144.28226 192.17466 146.15808 199.8627 C 146.50093 201.3484 146.76084 202.64055 146.7856 203.03672 C 146.37132 203.19342 144.90867 203.65566 143.18568 204.17743 C 119.87376 211.2001 99.88484 223.30266 83.32686 240.4138 C 67.88108 256.40832 56.75004 275.49505 50.20555 297.31887 C 49.877776 298.3951 49.68987 299.0457 49.611813 299.4459 C 49.55241 299.659 49.51552 299.79986 49.50644 299.8498 C 49.448596 300.17758 49.7378 300.29326 52.147824 300.8524 C 74.320055 306.0966 96.41516 306.0002 117.98971 300.62102 C 141.10667 294.83696 161.73648 283.48093 179.32002 266.88067 C 180.84316 265.45394 182.13493 264.27785 182.19277 264.27785 C 182.25061 264.27785 183.54239 265.45394 185.0848 266.89995 C 202.82259 283.57733 223.29816 294.83696 246.39584 300.62102 C 260.9703 304.25487 275.78232 305.4779 290.6952 304.2723 L 290.7163 304.35272 C 301.99495 303.8301 315 300.20584 315 300.20584 C 315 300.20584 314.11403 293.16934 306.57556 276.85256 L 306.57556 276.85256 L 306.44826 276.88667 L 305.53098 275.04357 C 297.18183 258.00088 284.6874 242.23828 269.73114 229.9299 C 262.9976 224.39484 257.23726 220.49028 248.92844 215.87128 C 239.22413 210.46886 231.01065 206.9958 220.705 203.98452 C 219.19908 203.52396 217.9162 203.09 217.61038 202.92436 Z" fill="black"/>
        </g>
        <g id="Graphic_24">
          <path d="M 194.13506 239.67083 C 193.73345 240.17363 193.6448 240.2115 193.3854 239.92815 C 192.59754 239.09482 189.04765 234.48506 187.5742 232.4099 L 185.92741 230.05657 L 187.3786 227.46593 C 194.4899 214.76319 198.6125 204.07507 201.22945 191.56037 C 207.23014 162.96636 202.59378 133.2847 188.10226 107.9092 C 186.32019 104.78761 182.4085 98.72225 182.1978 98.7787 C 181.61838 98.93396 174.7901 110.37528 172.6684 114.78282 C 162.03614 136.78454 158.37182 160.56064 161.91937 184.49321 C 162.49043 188.3627 163.04965 191.13449 164.14847 195.70942 C 165.05675 199.57324 165.07086 199.62592 164.55893 199.6643 C 163.58772 199.72693 158.41617 200.54808 155.7401 201.09576 C 154.25369 201.39524 152.99725 201.60488 152.96385 201.5856 C 152.81358 201.49884 150.81888 192.42162 150.29634 189.47065 C 145.93667 164.24548 148.97154 138.43625 159.06469 115.05466 C 161.30225 109.86803 162.49643 107.52973 166.15708 101.22785 C 170.84217 93.11304 174.58216 87.79201 179.9308 81.57417 C 181.97412 79.19183 182.12062 79.05378 182.37107 79.19838 C 182.70502 79.39118 185.9308 83.21271 188.273 86.21244 C 190.99339 89.6754 196.64052 98.05623 198.75704 101.7939 C 213.31655 127.47582 218.85165 156.71906 214.68972 185.90716 C 212.66575 200.05546 208.15025 214.12332 201.43382 227.29894 C 200.0224 230.09063 194.96462 238.65816 194.13506 239.67083 Z" fill="#FFFFFF"/>
        </g>
        <g id="Graphic_23">
          <path d="M 190.3483 205.0298 C 190.98454 205.1262 191.06167 205.18403 190.94598 205.55036 C 190.61822 206.64933 188.401 212.0285 187.34059 214.34213 L 186.12593 216.94495 L 183.15678 216.98352 C 168.60023 217.17632 157.28276 218.9501 145.13623 222.9411 C 117.37274 232.04135 93.98586 250.8974 79.25579 276.13517 C 77.44345 279.23928 74.14653 285.6596 74.30077 285.81383 C 74.72494 286.238 88.04756 286.4308 92.92545 286.06447 C 117.29562 284.2714 139.7185 275.55676 158.67093 260.5182 C 161.73648 258.0889 163.8573 256.21872 167.2699 252.97965 C 170.16193 250.26114 170.20049 250.22258 170.4897 250.64674 C 171.02954 251.4565 174.32645 255.52464 176.1388 257.56834 C 177.14136 258.70587 177.95113 259.68916 177.95113 259.72772 C 177.95113 259.90124 171.08738 266.1673 168.79303 268.09533 C 149.12723 284.4835 125.25834 294.75984 99.96272 297.7097 C 94.35218 298.36524 91.73008 298.5002 84.44216 298.48092 C 75.07198 298.48092 68.593835 297.9025 60.53471 296.37938 C 57.44988 295.80097 57.25708 295.74313 57.25708 295.45393 C 57.25708 295.06833 58.953735 290.36396 60.38047 286.83568 C 62.01929 282.74828 66.45373 273.6673 68.632396 269.9655 C 83.59383 244.51564 106.15166 225.10048 133.51027 214.11077 C 146.77505 208.78943 161.21592 205.66604 175.98455 204.89483 C 179.10794 204.7213 189.05652 204.8177 190.3483 205.0298 Z" fill="#FFFFFF"/>
        </g>
        <g id="Graphic_22">
          <path d="M 218.55523 209.8884 C 222.14135 210.91025 227.32772 212.7033 230.87528 214.11077 C 258.23388 225.10048 280.7917 244.51564 295.75315 269.9655 C 297.9318 273.6673 302.36626 282.74828 304.00508 286.83568 C 305.4318 290.36396 307.12847 295.06833 307.12847 295.45393 C 307.12847 295.74313 306.93567 295.80097 303.85084 296.37938 C 295.7917 297.9025 289.31356 298.48092 279.9434 298.48092 C 271.13234 298.5002 266.64005 298.17244 258.92797 296.9385 C 220.69533 290.86524 186.60794 267.70972 166.82645 234.39354 C 164.937 231.19302 161.67864 225.13904 161.79432 225.02336 C 162.04496 224.792 172.64907 223.40382 174.26861 223.40382 C 174.51925 223.40382 174.84702 223.77015 175.27118 224.5028 C 183.87015 239.81127 194.78274 252.36268 208.31744 262.52335 C 226.65291 276.3087 248.22746 284.34853 271.4601 286.06447 C 276.338 286.4308 289.6606 286.238 290.08477 285.81383 C 290.239 285.6596 286.9421 279.23928 285.12976 276.13517 C 270.34185 250.82027 246.87784 231.92567 219.01796 222.86398 C 217.05138 222.22773 214.56423 221.4758 213.48454 221.1866 C 212.38557 220.87812 211.49868 220.56963 211.49868 220.47323 C 211.49868 220.37683 211.98068 219.10434 212.5591 217.61976 C 213.1375 216.15447 214.06294 213.64804 214.6028 212.04778 C 215.14264 210.44753 215.6632 209.13647 215.74032 209.13647 C 215.81744 209.13647 217.08994 209.48352 218.55523 209.8884 Z" fill="#FFFFFF"/>
        </g>
      </g>
    </g>
  </g>
</svg>
