<?xml version="1.0" encoding="UTF-8" standalone="no"?>
<!DOCTYPE svg PUBLIC "-//W3C//DTD SVG 1.1//EN" "http://www.w3.org/Graphics/SVG/1.1/DTD/svg11.dtd">
<svg xmlns="http://www.w3.org/2000/svg" xmlns:xl="http://www.w3.org/1999/xlink" version="1.1" xmlns:dc="http://purl.org/dc/elements/1.1/" viewBox="33.75 60.75 297 297" width="297" height="297">
  <defs>
    <clipPath id="artboard_clip_path">
      <path d="M 33.75 60.75 L 330.75 60.75 L 330.75 346.5 L 313.875 357.75 L 33.75 357.75 Z"/>
    </clipPath>
  </defs>
  <g id="Wheel,_Rimless_(1)" stroke-opacity="1" fill="none" fill-opacity="1" stroke-dasharray="none" stroke="none">
    <title>Wheel, Rimless (1)</title>
    <g id="Wheel,_Rimless_(1)_Art" clip-path="url(#artboard_clip_path)">
      <title>Art</title>
      <g id="Group_113">
        <g id="Graphic_122">
          <path d="M 154.177 170.81396 C 145.1 161.68404 110.57341 126.75949 104.58815 117.78159 C 98.51635 108.67389 101.79037 92.8906 102.66715 89.22064 L 102.66714 89.22063 C 86.64016 99.86824 72.86824 113.64016 62.22063 129.66714 C 65.8906 128.79037 81.67389 125.51635 90.78159 131.58815 C 99.75949 137.57341 134.68404 172.1 143.81396 181.177 C 146.7142 177.21288 150.21288 173.7142 154.177 170.81396 Z" fill="#FFFFFF"/>
          <path d="M 154.177 170.81396 C 145.1 161.68404 110.57341 126.75949 104.58815 117.78159 C 98.51635 108.67389 101.79037 92.8906 102.66715 89.22064 L 102.66714 89.22063 C 86.64016 99.86824 72.86824 113.64016 62.22063 129.66714 C 65.8906 128.79037 81.67389 125.51635 90.78159 131.58815 C 99.75949 137.57341 134.68404 172.1 143.81396 181.177 C 146.7142 177.21288 150.21288 173.7142 154.177 170.81396 Z" stroke="black" stroke-linecap="round" stroke-linejoin="round" stroke-width="2"/>
        </g>
        <g id="Graphic_121">
          <path d="M 135.221 201.92223 C 122.34677 201.8848 73.2374 201.6034 62.656846 199.4873 C 51.923317 197.34058 43.07793 183.86503 41.10285 180.65 L 41.10284 180.65 C 37.299053 199.51178 37.299053 218.98822 41.10284 237.85 C 43.07793 234.63497 51.923317 221.15942 62.656846 219.0127 C 73.2374 216.8966 122.34677 216.6152 135.221 216.57777 C 134.46874 211.72393 134.46874 206.77607 135.221 201.92223 Z" fill="#FFFFFF"/>
          <path d="M 135.221 201.92223 C 122.34677 201.8848 73.2374 201.6034 62.656846 199.4873 C 51.923317 197.34058 43.07793 183.86503 41.10285 180.65 L 41.10284 180.65 C 37.299053 199.51178 37.299053 218.98822 41.10284 237.85 C 43.07793 234.63497 51.923317 221.15942 62.656846 219.0127 C 73.2374 216.8966 122.34677 216.6152 135.221 216.57777 C 134.46874 211.72393 134.46874 206.77607 135.221 201.92223 Z" stroke="black" stroke-linecap="round" stroke-linejoin="round" stroke-width="2"/>
        </g>
        <g id="Graphic_120">
          <path d="M 143.81396 237.323 C 134.68404 246.4 99.75949 280.9266 90.78159 286.91185 C 81.67389 292.98365 65.8906 289.70963 62.22064 288.83285 L 62.22063 288.83286 C 72.86824 304.85984 86.64016 318.63176 102.66714 329.27937 C 101.79037 325.6094 98.51635 309.8261 104.58815 300.7184 C 110.57341 291.7405 145.1 256.81596 154.177 247.68604 C 150.21288 244.7858 146.7142 241.28712 143.81396 237.323 Z" fill="#FFFFFF"/>
          <path d="M 143.81396 237.323 C 134.68404 246.4 99.75949 280.9266 90.78159 286.91185 C 81.67389 292.98365 65.8906 289.70963 62.22064 288.83285 L 62.22063 288.83286 C 72.86824 304.85984 86.64016 318.63176 102.66714 329.27937 C 101.79037 325.6094 98.51635 309.8261 104.58815 300.7184 C 110.57341 291.7405 145.1 256.81596 154.177 247.68604 C 150.21288 244.7858 146.7142 241.28712 143.81396 237.323 Z" stroke="black" stroke-linecap="round" stroke-linejoin="round" stroke-width="2"/>
        </g>
        <g id="Graphic_119">
          <path d="M 174.92223 256.279 C 174.8848 269.15323 174.6034 318.2626 172.4873 328.84315 C 170.34058 339.5767 156.86503 348.42207 153.65 350.39715 L 153.65 350.39716 C 172.51178 354.20095 191.98822 354.20095 210.85 350.39716 C 207.63497 348.42207 194.15942 339.5767 192.0127 328.84315 C 189.8966 318.2626 189.6152 269.15323 189.57777 256.279 C 184.72393 257.03126 179.77607 257.03126 174.92223 256.279 Z" fill="#FFFFFF"/>
          <path d="M 174.92223 256.279 C 174.8848 269.15323 174.6034 318.2626 172.4873 328.84315 C 170.34058 339.5767 156.86503 348.42207 153.65 350.39715 L 153.65 350.39716 C 172.51178 354.20095 191.98822 354.20095 210.85 350.39716 C 207.63497 348.42207 194.15942 339.5767 192.0127 328.84315 C 189.8966 318.2626 189.6152 269.15323 189.57777 256.279 C 184.72393 257.03126 179.77607 257.03126 174.92223 256.279 Z" stroke="black" stroke-linecap="round" stroke-linejoin="round" stroke-width="2"/>
        </g>
        <g id="Graphic_118">
          <path d="M 210.323 247.68604 C 219.4 256.81596 253.9266 291.7405 259.91185 300.7184 C 265.98365 309.8261 262.70963 325.6094 261.83285 329.27936 L 261.83286 329.27937 C 277.85984 318.63176 291.63176 304.85984 302.27937 288.83286 C 298.6094 289.70963 282.8261 292.98365 273.7184 286.91185 C 264.7405 280.9266 229.81596 246.4 220.68604 237.323 C 217.7858 241.28712 214.28712 244.7858 210.323 247.68604 Z" fill="#FFFFFF"/>
          <path d="M 210.323 247.68604 C 219.4 256.81596 253.9266 291.7405 259.91185 300.7184 C 265.98365 309.8261 262.70963 325.6094 261.83285 329.27936 L 261.83286 329.27937 C 277.85984 318.63176 291.63176 304.85984 302.27937 288.83286 C 298.6094 289.70963 282.8261 292.98365 273.7184 286.91185 C 264.7405 280.9266 229.81596 246.4 220.68604 237.323 C 217.7858 241.28712 214.28712 244.7858 210.323 247.68604 Z" stroke="black" stroke-linecap="round" stroke-linejoin="round" stroke-width="2"/>
        </g>
        <g id="Graphic_117">
          <path d="M 229.279 216.57777 C 242.15323 216.6152 291.2626 216.8966 301.84315 219.0127 C 312.5767 221.15942 321.42207 234.63497 323.39715 237.85 L 323.39716 237.85 C 327.20095 218.98822 327.20095 199.51178 323.39716 180.65 C 321.42207 183.86503 312.5767 197.34058 301.84315 199.4873 C 291.2626 201.6034 242.15323 201.8848 229.279 201.92223 C 230.03126 206.77607 230.03126 211.72393 229.279 216.57777 Z" fill="#FFFFFF"/>
          <path d="M 229.279 216.57777 C 242.15323 216.6152 291.2626 216.8966 301.84315 219.0127 C 312.5767 221.15942 321.42207 234.63497 323.39715 237.85 L 323.39716 237.85 C 327.20095 218.98822 327.20095 199.51178 323.39716 180.65 C 321.42207 183.86503 312.5767 197.34058 301.84315 199.4873 C 291.2626 201.6034 242.15323 201.8848 229.279 201.92223 C 230.03126 206.77607 230.03126 211.72393 229.279 216.57777 Z" stroke="black" stroke-linecap="round" stroke-linejoin="round" stroke-width="2"/>
        </g>
        <g id="Graphic_116">
          <path d="M 220.68604 181.177 C 229.81596 172.1 264.7405 137.57341 273.7184 131.58815 C 282.8261 125.51635 298.6094 128.79037 302.27936 129.66715 L 302.27937 129.66714 C 291.63176 113.64016 277.85984 99.86824 261.83286 89.22063 C 262.70963 92.8906 265.98365 108.67389 259.91185 117.78159 C 253.9266 126.75949 219.4 161.68404 210.323 170.81396 C 214.28712 173.7142 217.7858 177.21288 220.68604 181.177 Z" fill="#FFFFFF"/>
          <path d="M 220.68604 181.177 C 229.81596 172.1 264.7405 137.57341 273.7184 131.58815 C 282.8261 125.51635 298.6094 128.79037 302.27936 129.66715 L 302.27937 129.66714 C 291.63176 113.64016 277.85984 99.86824 261.83286 89.22063 C 262.70963 92.8906 265.98365 108.67389 259.91185 117.78159 C 253.9266 126.75949 219.4 161.68404 210.323 170.81396 C 214.28712 173.7142 217.7858 177.21288 220.68604 181.177 Z" stroke="black" stroke-linecap="round" stroke-linejoin="round" stroke-width="2"/>
        </g>
        <g id="Graphic_115">
          <path d="M 189.57777 162.221 C 189.6152 149.34677 189.8966 100.2374 192.0127 89.65685 C 194.15942 78.92332 207.63497 70.07793 210.85 68.10285 L 210.85 68.10284 C 191.98822 64.29905 172.51178 64.29905 153.65 68.10284 C 156.86503 70.07793 170.34058 78.92332 172.4873 89.65685 C 174.6034 100.2374 174.8848 149.34677 174.92223 162.221 C 179.77607 161.46874 184.72393 161.46874 189.57777 162.221 Z" fill="#FFFFFF"/>
          <path d="M 189.57777 162.221 C 189.6152 149.34677 189.8966 100.2374 192.0127 89.65685 C 194.15942 78.92332 207.63497 70.07793 210.85 68.10285 L 210.85 68.10284 C 191.98822 64.29905 172.51178 64.29905 153.65 68.10284 C 156.86503 70.07793 170.34058 78.92332 172.4873 89.65685 C 174.6034 100.2374 174.8848 149.34677 174.92223 162.221 C 179.77607 161.46874 184.72393 161.46874 189.57777 162.221 Z" stroke="black" stroke-linecap="round" stroke-linejoin="round" stroke-width="2"/>
        </g>
        <g id="Graphic_114">
          <path d="M 225.39544 166.1046 C 201.56686 142.2759 162.93314 142.2759 139.10456 166.1046 C 115.27586 189.93317 115.27586 228.5669 139.10456 252.39548 C 162.93314 276.22418 201.56686 276.22418 225.39544 252.39548 C 249.22414 228.5669 249.22414 189.93317 225.39544 166.1046 M 215.90344 175.5966 C 234.48983 194.18288 234.48983 224.3172 215.90344 242.90348 C 197.31715 261.48986 167.18285 261.48986 148.59656 242.90348 C 130.01017 224.3172 130.01017 194.18288 148.59656 175.5966 C 167.18285 157.0102 197.31715 157.0102 215.90344 175.5966" fill="#FFFFFF"/>
          <path d="M 225.39544 166.1046 C 201.56686 142.2759 162.93314 142.2759 139.10456 166.1046 C 115.27586 189.93317 115.27586 228.5669 139.10456 252.39548 C 162.93314 276.22418 201.56686 276.22418 225.39544 252.39548 C 249.22414 228.5669 249.22414 189.93317 225.39544 166.1046 M 215.90344 175.5966 C 234.48983 194.18288 234.48983 224.3172 215.90344 242.90348 C 197.31715 261.48986 167.18285 261.48986 148.59656 242.90348 C 130.01017 224.3172 130.01017 194.18288 148.59656 175.5966 C 167.18285 157.0102 197.31715 157.0102 215.90344 175.5966" stroke="black" stroke-linecap="round" stroke-linejoin="round" stroke-width="2"/>
        </g>
      </g>
    </g>
  </g>
</svg>
