<?xml version="1.0" encoding="UTF-8" standalone="no"?>
<!DOCTYPE svg PUBLIC "-//W3C//DTD SVG 1.1//EN" "http://www.w3.org/Graphics/SVG/1.1/DTD/svg11.dtd">
<svg xmlns="http://www.w3.org/2000/svg" xmlns:dc="http://purl.org/dc/elements/1.1/" version="1.1" xmlns:xl="http://www.w3.org/1999/xlink" viewBox="74.55726 62.875 42.56774 351.25" width="42.56774" height="351.25">
  <defs>
    <clipPath id="artboard_clip_path">
      <path d="M 74.55726 62.875 L 117.125 62.875 L 117.125 414.125 L 74.55726 414.125 Z"/>
    </clipPath>
  </defs>
  <g id="Arrow_(1)" fill-opacity="1" stroke="none" stroke-dasharray="none" stroke-opacity="1" fill="none">
    <title>Arrow (1)</title>
    <g id="Arrow_(1)_Layer_2" clip-path="url(#artboard_clip_path)">
      <title>Layer 2</title>
      <g id="Group_153">
        <g id="Graphic_162">
          <path d="M 96.9389 65.14207 C 94.61057 67.65667 94.61057 67.65667 92.93417 65.794 C 92.00283 64.769535 90.88523 63.931334 90.41956 63.931334 C 90.04703 63.931334 89.6745 66.81847 89.6745 70.45067 C 89.6745 73.98974 89.3951 76.97001 89.1157 76.97001 C 88.74316 76.97001 87.62556 76.13181 86.50796 75.10734 C 79.15042 68.3086 77.28775 66.72534 76.82209 67.09787 C 76.63582 67.37727 76.26329 76.69061 76.07702 87.86662 C 75.89075 99.04263 75.42509 110.31177 74.95942 112.82637 C 74.028085 118.41437 75.23882 120.92898 81.75816 126.88951 C 84.08649 129.03158 85.94916 131.08052 85.94916 131.45305 C 85.94916 131.82558 86.78736 132.94318 87.90496 133.87452 C 90.2333 135.92345 90.32643 138.43806 91.0715 246.93847 C 91.3509 287.35837 91.81656 328.1508 92.00283 337.371 C 92.37536 348.36074 92.1891 355.2526 91.53716 356.929 C 89.6745 361.77195 85.66976 366.70802 82.50322 368.0119 L 79.33669 369.31576 L 81.29249 373.0411 C 82.31696 375.09003 84.73843 381.51623 86.78736 387.2905 C 88.74316 393.06478 91.25776 400.1429 92.37536 402.9369 C 93.5861 405.7309 94.88997 409.45626 95.35563 411.0395 C 96.56637 415.1374 98.3359 414.95113 99.82604 410.667 C 100.5711 408.7112 101.59557 406.476 102.2475 405.7309 C 102.8063 404.98585 103.92391 402.8438 104.57584 401.07425 C 105.22777 399.3047 107.64924 393.80984 109.97758 388.9669 C 112.21278 384.12397 114.16858 379.65357 114.26171 379.1879 C 114.35485 378.6291 115.00678 377.32523 115.56558 376.1145 C 116.21752 374.9969 116.42028 372.34553 116.59005 372.2029 C 117.37097 371.54677 117.42825 370.71276 113.14411 368.2913 C 110.72264 366.8943 108.02178 365.03162 107.27671 364.1003 C 104.48271 360.8406 102.71317 354.135 102.89944 347.9882 C 103.0857 344.6354 102.8063 312.97005 102.34064 277.6725 C 101.9681 242.2818 101.50244 195.06316 101.4093 172.61801 L 101.22304 131.82558 L 105.87971 127.44831 C 108.48744 125.02685 111.46771 122.41911 112.49218 121.67404 C 114.26171 120.37018 114.35485 119.53197 113.79605 110.03237 C 113.51665 104.35123 113.33038 91.49882 113.33038 81.44041 C 113.42351 71.28887 113.23725 63 112.86471 63 C 112.58531 63 110.90891 64.490134 109.13938 66.3528 C 107.46298 68.21547 104.85524 70.543806 103.45824 71.56827 L 100.8505 73.33781 L 101.03677 69.79874 C 101.03677 67.7498 100.66424 65.328335 100.19857 64.397 C 99.26724 62.81373 99.08097 62.81373 96.9389 65.14207 Z" fill="black"/>
          <path d="M 96.9389 65.14207 C 94.61057 67.65667 94.61057 67.65667 92.93417 65.794 C 92.00283 64.769535 90.88523 63.931334 90.41956 63.931334 C 90.04703 63.931334 89.6745 66.81847 89.6745 70.45067 C 89.6745 73.98974 89.3951 76.97001 89.1157 76.97001 C 88.74316 76.97001 87.62556 76.13181 86.50796 75.10734 C 79.15042 68.3086 77.28775 66.72534 76.82209 67.09787 C 76.63582 67.37727 76.26329 76.69061 76.07702 87.86662 C 75.89075 99.04263 75.42509 110.31177 74.95942 112.82637 C 74.028085 118.41437 75.23882 120.92898 81.75816 126.88951 C 84.08649 129.03158 85.94916 131.08052 85.94916 131.45305 C 85.94916 131.82558 86.78736 132.94318 87.90496 133.87452 C 90.2333 135.92345 90.32643 138.43806 91.0715 246.93847 C 91.3509 287.35837 91.81656 328.1508 92.00283 337.371 C 92.37536 348.36074 92.1891 355.2526 91.53716 356.929 C 89.6745 361.77195 85.66976 366.70802 82.50322 368.0119 L 79.33669 369.31576 L 81.29249 373.0411 C 82.31696 375.09003 84.73843 381.51623 86.78736 387.2905 C 88.74316 393.06478 91.25776 400.1429 92.37536 402.9369 C 93.5861 405.7309 94.88997 409.45626 95.35563 411.0395 C 96.56637 415.1374 98.3359 414.95113 99.82604 410.667 C 100.5711 408.7112 101.59557 406.476 102.2475 405.7309 C 102.8063 404.98585 103.92391 402.8438 104.57584 401.07425 C 105.22777 399.3047 107.64924 393.80984 109.97758 388.9669 C 112.21278 384.12397 114.16858 379.65357 114.26171 379.1879 C 114.35485 378.6291 115.00678 377.32523 115.56558 376.1145 C 116.21752 374.9969 116.42028 372.34553 116.59005 372.2029 C 117.37097 371.54677 117.42825 370.71276 113.14411 368.2913 C 110.72264 366.8943 108.02178 365.03162 107.27671 364.1003 C 104.48271 360.8406 102.71317 354.135 102.89944 347.9882 C 103.0857 344.6354 102.8063 312.97005 102.34064 277.6725 C 101.9681 242.2818 101.50244 195.06316 101.4093 172.61801 L 101.22304 131.82558 L 105.87971 127.44831 C 108.48744 125.02685 111.46771 122.41911 112.49218 121.67404 C 114.26171 120.37018 114.35485 119.53197 113.79605 110.03237 C 113.51665 104.35123 113.33038 91.49882 113.33038 81.44041 C 113.42351 71.28887 113.23725 63 112.86471 63 C 112.58531 63 110.90891 64.490134 109.13938 66.3528 C 107.46298 68.21547 104.85524 70.543806 103.45824 71.56827 L 100.8505 73.33781 L 101.03677 69.79874 C 101.03677 67.7498 100.66424 65.328335 100.19857 64.397 C 99.26724 62.81373 99.08097 62.81373 96.9389 65.14207 Z" stroke="black" stroke-linecap="round" stroke-linejoin="round" stroke-width=".25"/>
        </g>
        <g id="Graphic_161">
          <path d="M 99.36037 119.81138 C 99.63977 149.24153 100.19857 211.3615 100.47797 257.83508 L 101.03677 342.4002 L 97.2183 342.4002 L 93.39983 342.4002 L 93.3067 316.04345 C 93.21357 301.60778 93.12043 281.5841 92.93417 271.61882 C 92.84103 261.65355 92.4685 211.54778 92.09596 160.3244 C 91.44403 74.26914 91.53716 67.37727 92.93417 69.05367 C 94.4243 70.91634 94.51743 70.91634 96.47323 68.49487 C 97.59084 67.191 98.6153 66.0734 98.70844 66.166536 C 98.80157 66.25967 99.08097 90.38122 99.36037 119.81138 Z" fill="#FFFFFF"/>
          <path d="M 99.36037 119.81138 C 99.63977 149.24153 100.19857 211.3615 100.47797 257.83508 L 101.03677 342.4002 L 97.2183 342.4002 L 93.39983 342.4002 L 93.3067 316.04345 C 93.21357 301.60778 93.12043 281.5841 92.93417 271.61882 C 92.84103 261.65355 92.4685 211.54778 92.09596 160.3244 C 91.44403 74.26914 91.53716 67.37727 92.93417 69.05367 C 94.4243 70.91634 94.51743 70.91634 96.47323 68.49487 C 97.59084 67.191 98.6153 66.0734 98.70844 66.166536 C 98.80157 66.25967 99.08097 90.38122 99.36037 119.81138 Z" stroke="black" stroke-linecap="round" stroke-linejoin="round" stroke-width=".25"/>
        </g>
        <g id="Graphic_160">
          <path d="M 111.46771 78.64641 C 111.46771 85.63142 111.74711 97.45936 112.11965 104.91003 L 112.77158 118.41437 L 107.27671 123.72298 C 104.20331 126.70325 101.59557 129.12472 101.31617 129.12472 C 101.03677 129.12472 100.94364 127.54145 101.1299 125.58565 C 101.22304 123.16418 102.2475 121.11524 104.29644 118.88004 C 107.64924 115.24784 107.64924 113.7577 104.29644 116.8311 C 101.59557 119.34571 100.8505 119.43884 100.8505 116.92424 C 100.8505 115.52724 101.31617 115.1547 102.2475 115.52724 C 103.0857 115.80664 104.11017 115.1547 104.76211 113.94397 C 106.06597 111.70877 106.53164 105.84136 105.50717 105.84136 C 104.29644 105.84136 103.55137 108.91477 104.57584 109.5667 C 105.60031 110.21863 103.17884 114.22337 101.6887 114.22337 C 101.1299 114.22337 100.8505 106.86583 100.94364 94.19969 C 101.03677 83.20995 101.31617 74.362275 101.6887 74.45541 C 102.06124 74.54854 111.56085 66.25967 111.56085 65.794 C 111.56085 65.794 111.56085 71.56827 111.46771 78.64641 Z" fill="#FFFFFF"/>
          <path d="M 111.46771 78.64641 C 111.46771 85.63142 111.74711 97.45936 112.11965 104.91003 L 112.77158 118.41437 L 107.27671 123.72298 C 104.20331 126.70325 101.59557 129.12472 101.31617 129.12472 C 101.03677 129.12472 100.94364 127.54145 101.1299 125.58565 C 101.22304 123.16418 102.2475 121.11524 104.29644 118.88004 C 107.64924 115.24784 107.64924 113.7577 104.29644 116.8311 C 101.59557 119.34571 100.8505 119.43884 100.8505 116.92424 C 100.8505 115.52724 101.31617 115.1547 102.2475 115.52724 C 103.0857 115.80664 104.11017 115.1547 104.76211 113.94397 C 106.06597 111.70877 106.53164 105.84136 105.50717 105.84136 C 104.29644 105.84136 103.55137 108.91477 104.57584 109.5667 C 105.60031 110.21863 103.17884 114.22337 101.6887 114.22337 C 101.1299 114.22337 100.8505 106.86583 100.94364 94.19969 C 101.03677 83.20995 101.31617 74.362275 101.6887 74.45541 C 102.06124 74.54854 111.56085 66.25967 111.56085 65.794 C 111.56085 65.794 111.56085 71.56827 111.46771 78.64641 Z" stroke="black" stroke-linecap="round" stroke-linejoin="round" stroke-width=".25"/>
        </g>
        <g id="Graphic_159">
          <path d="M 85.48349 76.22494 C 87.06676 77.62194 88.5569 78.83268 89.02256 78.83268 C 89.3951 78.83268 89.6745 91.12629 89.6745 106.02763 L 89.58136 133.31572 L 87.53243 130.52172 C 86.41483 129.03158 84.55216 126.98265 83.34142 125.86505 C 80.54742 123.53671 75.61135 116.45857 76.26329 115.80664 C 77.00835 115.06157 77.47402 104.72376 77.47402 86.37648 L 77.56715 70.264405 L 80.17489 71.94081 C 81.57189 72.87214 83.99336 74.73481 85.48349 76.22494 Z" fill="#FFFFFF"/>
          <path d="M 85.48349 76.22494 C 87.06676 77.62194 88.5569 78.83268 89.02256 78.83268 C 89.3951 78.83268 89.6745 91.12629 89.6745 106.02763 L 89.58136 133.31572 L 87.53243 130.52172 C 86.41483 129.03158 84.55216 126.98265 83.34142 125.86505 C 80.54742 123.53671 75.61135 116.45857 76.26329 115.80664 C 77.00835 115.06157 77.47402 104.72376 77.47402 86.37648 L 77.56715 70.264405 L 80.17489 71.94081 C 81.57189 72.87214 83.99336 74.73481 85.48349 76.22494 Z" stroke="black" stroke-linecap="round" stroke-linejoin="round" stroke-width=".25"/>
        </g>
        <g id="Graphic_158">
          <path d="M 99.29828 345.8151 C 95.38836 346.078 93.39983 346.40494 93.39983 345.1942 C 93.39983 344.6354 95.41214 344.26287 98.02813 344.26287 C 101.65028 344.26287 102.02349 345.07003 99.60873 345.8151 Z" fill="#FFFFFF"/>
          <path d="M 99.29828 345.8151 C 95.38836 346.078 93.39983 346.40494 93.39983 345.1942 C 93.39983 344.6354 95.41214 344.26287 98.02813 344.26287 C 101.65028 344.26287 102.02349 345.07003 99.60873 345.8151 Z" stroke="black" stroke-linecap="round" stroke-linejoin="round" stroke-width=".25"/>
        </g>
        <g id="Graphic_157">
          <path d="M 101.22304 351.15475 C 101.1299 354.0419 101.87497 356.929 103.73764 360.93375 C 105.22777 364.1003 106.71301 366.1639 107.18358 366.6149 C 107.56002 366.97568 109.13938 367.82562 110.72264 369.4089 C 112.39905 370.89903 114.18268 371.4227 114.35485 371.45783 C 115.52531 371.7638 106.62478 394.08924 98.80157 408.8043 L 97.40457 411.5052 L 95.72817 406.94165 C 94.79683 404.5202 93.3067 400.79485 92.4685 398.7459 C 91.53716 396.697 89.86076 391.85404 88.65003 388.03557 C 87.53243 384.2171 85.57663 378.81537 84.36589 376.20763 L 81.60293 370.34023 L 86.32169 367.1737 C 91.16463 362.33075 93.5861 357.58095 93.95863 352.27235 C 94.05177 350.2234 94.23803 348.17448 94.23803 347.7088 C 94.33117 347.33628 95.91443 347.05688 97.87024 347.05688 L 101.4093 347.05688 L 101.22304 351.15475 Z" fill="#FFFFFF"/>
          <path d="M 101.22304 351.15475 C 101.1299 354.0419 101.87497 356.929 103.73764 360.93375 C 105.22777 364.1003 106.71301 366.1639 107.18358 366.6149 C 107.56002 366.97568 109.13938 367.82562 110.72264 369.4089 C 112.39905 370.89903 114.18268 371.4227 114.35485 371.45783 C 115.52531 371.7638 106.62478 394.08924 98.80157 408.8043 L 97.40457 411.5052 L 95.72817 406.94165 C 94.79683 404.5202 93.3067 400.79485 92.4685 398.7459 C 91.53716 396.697 89.86076 391.85404 88.65003 388.03557 C 87.53243 384.2171 85.57663 378.81537 84.36589 376.20763 L 81.60293 370.34023 L 86.32169 367.1737 C 91.16463 362.33075 93.5861 357.58095 93.95863 352.27235 C 94.05177 350.2234 94.23803 348.17448 94.23803 347.7088 C 94.33117 347.33628 95.91443 347.05688 97.87024 347.05688 L 101.4093 347.05688 L 101.22304 351.15475 Z" stroke="black" stroke-linecap="round" stroke-linejoin="round" stroke-width=".25"/>
        </g>
        <g id="Graphic_156">
          <path d="M 82.87576 107.42463 C 84.27276 109.5667 84.55216 109.65983 84.83156 108.26283 C 85.01783 107.3315 84.64529 106.2139 83.90023 105.74823 C 81.66502 104.2581 81.19936 104.91003 82.87576 107.42463 Z" fill="black"/>
          <path d="M 82.87576 107.42463 C 84.27276 109.5667 84.55216 109.65983 84.83156 108.26283 C 85.01783 107.3315 84.64529 106.2139 83.90023 105.74823 C 81.66502 104.2581 81.19936 104.91003 82.87576 107.42463 Z" stroke="black" stroke-linecap="round" stroke-linejoin="round" stroke-width=".25"/>
        </g>
        <g id="Graphic_155">
          <path d="M 81.29249 111.33624 C 81.29249 112.54697 83.99336 114.5959 84.73843 113.94397 C 85.39036 113.1989 83.34142 110.49803 82.13069 110.49803 C 81.66502 110.49803 81.29249 110.87057 81.29249 111.33624 Z" fill="black"/>
          <path d="M 81.29249 111.33624 C 81.29249 112.54697 83.99336 114.5959 84.73843 113.94397 C 85.39036 113.1989 83.34142 110.49803 82.13069 110.49803 C 81.66502 110.49803 81.29249 110.87057 81.29249 111.33624 Z" stroke="black" stroke-linecap="round" stroke-linejoin="round" stroke-width=".25"/>
        </g>
        <g id="Graphic_154">
          <path d="M 79.42982 114.8753 C 79.522955 115.9929 82.59636 119.25257 84.83156 120.55644 C 87.90496 122.32598 87.34616 120.18391 83.90023 117.01737 C 80.82682 114.3165 79.42982 113.57144 79.42982 114.8753 Z" fill="black"/>
          <path d="M 79.42982 114.8753 C 79.522955 115.9929 82.59636 119.25257 84.83156 120.55644 C 87.90496 122.32598 87.34616 120.18391 83.90023 117.01737 C 80.82682 114.3165 79.42982 113.57144 79.42982 114.8753 Z" stroke="black" stroke-linecap="round" stroke-linejoin="round" stroke-width=".25"/>
        </g>
      </g>
    </g>
  </g>
</svg>
