<?xml version="1.0" encoding="UTF-8" standalone="no"?>
<!DOCTYPE svg PUBLIC "-//W3C//DTD SVG 1.1//EN" "http://www.w3.org/Graphics/SVG/1.1/DTD/svg11.dtd">
<svg xmlns:xl="http://www.w3.org/1999/xlink" xmlns="http://www.w3.org/2000/svg" xmlns:dc="http://purl.org/dc/elements/1.1/" version="1.1" viewBox="33.75 60.302746 297 306.97903" width="297" height="306.97903">
  <defs>
    <clipPath id="artboard_clip_path">
      <path d="M 33.75 60.302746 L 330.75 60.302746 L 330.75 367.2818 L 33.75 367.2818 Z"/>
    </clipPath>
  </defs>
  <g id="Bat_(2)" stroke-opacity="1" stroke="none" stroke-dasharray="none" fill="none" fill-opacity="1">
    <title>Bat (2)</title>
    <g id="Bat_(2)_Layer_2" clip-path="url(#artboard_clip_path)">
      <title>Layer 2</title>
      <g id="Group_3">
        <g id="Graphic_18">
          <path d="M 318.5146 63.86354 C 317.182 64.45581 305.7807 75.709015 293.1949 88.88711 C 264.6177 118.79693 252.17994 130.93855 242.25935 138.34197 C 234.5598 144.11664 232.33876 148.5587 236.18854 150.92779 C 237.07695 151.52006 238.55764 150.92779 239.59412 149.59517 C 240.6306 148.11449 242.25935 147.078 243.4439 147.078 C 246.99754 147.078 232.33876 160.55224 223.15852 165.73463 C 214.57055 170.6209 205.8345 172.24964 204.20576 169.43634 C 203.76155 168.696 204.35383 166.17884 205.53837 163.95781 C 206.72292 161.58872 208.05554 156.85053 208.6478 153.44495 C 209.24009 149.29903 210.72077 146.48573 212.9418 145.00505 C 217.08771 142.33982 219.16067 133.30764 219.60488 116.27977 C 219.75295 107.83987 219.30874 104.13816 218.1242 104.13816 C 214.12634 104.13816 199.3195 119.68534 191.02767 132.5673 C 187.6221 138.04583 183.47618 137.7497 179.47833 131.82696 C 173.55559 123.09092 164.22728 114.35488 157.12 110.65317 C 153.27021 108.72828 149.86464 107.09953 149.5685 107.09953 C 149.27236 107.09953 149.27236 112.28192 149.5685 118.5008 C 150.16077 131.23468 152.67794 142.63595 154.60283 142.63595 C 158.0084 142.63595 162.15432 149.29903 163.33887 156.70246 C 164.0792 161.14451 165.41182 166.17884 166.30024 167.8076 C 168.66933 172.39771 167.33671 172.98999 156.67579 172.69385 C 145.86679 172.39771 136.98268 168.54793 133.1329 162.6252 C 130.02347 157.887 131.05994 153.14881 134.46552 155.96211 C 136.53848 157.73894 139.64791 156.85053 139.64791 154.48143 C 139.64791 151.372 131.94836 144.41278 126.46982 142.63595 C 121.8797 141.15527 118.17799 138.04583 111.66298 130.1982 C 91.96987 106.35918 59.98709 76.44936 48.733887 71.41503 C 43.995696 69.194 36 72.15537 36 76.00515 C 36 81.48368 39.257506 87.85063 42.66308 88.73904 C 49.6223 90.51586 54.36049 109.32055 53.620145 132.27116 C 53.17594 145.00505 52.4356 149.0029 49.6223 154.33336 C 46.957065 159.51576 46.51286 161.14451 48.14161 162.03292 C 49.17809 162.77326 50.658776 163.36554 51.25105 163.36554 C 51.99139 163.36554 54.36049 164.69815 56.433446 166.47497 C 75.23814 180.98568 86.04714 198.7539 87.37975 217.41052 L 88.26816 228.51565 L 95.07931 232.36543 C 109.14581 240.65727 123.50845 262.5714 122.76811 274.56494 L 122.3239 280.48768 L 134.31745 280.19154 C 140.83246 280.04348 147.79168 280.3396 149.71657 280.9319 C 155.93544 283.00484 152.826 290.2602 140.83246 301.36533 C 133.57711 308.17648 130.46767 314.39536 134.31745 314.39536 C 135.502 314.39536 136.98268 313.655 137.57496 312.7666 C 138.7595 310.69364 141.1286 313.95115 141.1286 317.80093 C 141.1286 319.2816 142.01701 321.50264 143.20156 322.53912 C 144.97838 324.31594 145.57065 324.0198 147.05134 320.46616 C 148.23588 317.35672 149.5685 316.4683 151.64146 316.91252 C 153.12214 317.35672 154.45476 317.5048 154.60283 317.20866 C 154.60283 316.91252 155.04703 313.2108 155.49124 309.21296 C 155.93544 304.03056 157.41613 300.625 160.08136 297.8117 C 163.48694 293.9619 164.0792 293.81384 166.4483 296.03487 C 170.89036 300.0327 178.88605 331.1271 181.9955 356.15066 C 182.73583 363.25794 184.95686 366.51545 187.02982 363.406 C 187.6221 362.36953 188.21437 357.18714 188.36243 351.7086 C 188.5105 346.37814 189.69505 337.1979 190.8796 331.5713 C 193.39676 319.72582 201.09632 296.7752 203.31735 294.5542 C 206.13065 291.7409 211.0169 298.7001 211.75725 306.39966 C 212.79373 318.09707 213.53407 320.3181 215.90317 319.4297 C 217.08771 318.8374 218.1242 317.20866 218.1242 315.72797 C 218.1242 312.3224 219.4568 312.17433 223.3066 314.98763 C 224.93534 316.0241 227.74864 317.35672 229.67353 317.949 C 232.1907 318.8374 232.93104 318.3932 232.93104 316.32025 C 232.93104 314.6915 232.1907 312.7666 231.30228 311.8782 C 229.96967 310.54558 230.2658 310.3975 232.78297 310.98978 C 235.30013 311.58206 235.8924 311.13785 235.8924 308.4726 C 235.8924 302.9941 229.08126 295.4426 223.3066 294.25805 C 216.79158 293.0735 211.60918 287.15076 213.68214 283.30098 C 216.34737 278.41472 226.71216 271.30744 233.0791 270.27096 C 239.29798 269.23448 239.44605 268.93834 241.0748 261.53492 C 242.11128 257.389 243.8881 252.35468 245.07265 250.4298 C 249.21857 244.35898 259.8795 234.14226 266.69064 229.84827 C 272.90952 225.85042 273.20566 225.40622 273.64986 217.85473 C 274.09407 207.78607 284.45886 185.5758 293.34297 176.39556 C 295.1198 174.3226 296.60047 172.39771 296.60047 171.80544 C 296.60047 167.8076 319.8472 151.52006 325.32575 151.52006 C 328.13905 151.52006 328.13905 151.372 326.0661 146.04153 C 324.5854 141.89561 322.51245 132.86344 320.58756 120.42569 C 319.25494 111.68965 319.25494 76.59743 320.58756 75.11674 C 321.17983 74.52447 322.6605 74.8206 323.697 75.85708 C 325.4738 77.1897 326.21416 76.74549 327.54678 73.19185 C 330.6562 65.9365 325.76996 60.90217 318.5146 63.86354 Z" fill="black"/>
        </g>
        <g id="Graphic_17">
          <path d="M 325.91802 69.34207 C 326.5103 72.15537 326.36223 72.15537 324.43734 69.63821 C 322.51245 67.121045 321.7721 67.56525 314.3687 75.56095 C 309.77856 80.29914 302.81935 88.4429 298.8215 93.6253 C 294.67558 98.95576 287.71636 107.2476 283.12624 112.13385 C 278.6842 117.16818 270.39236 126.4965 264.91382 133.0115 C 259.28722 139.52652 249.0705 150.63165 241.9632 157.59087 C 218.27226 181.42989 213.97828 187.35263 208.05554 204.97277 C 200.80018 226.4427 199.3195 246.28387 203.61348 269.0864 C 205.09417 277.23017 207.3152 284.92973 208.49974 286.26235 C 209.6843 287.59497 210.72077 289.51986 210.72077 290.40827 C 210.72077 292.92543 216.93965 296.62714 221.08556 296.62714 C 223.45466 296.62714 226.5641 298.40396 229.3774 301.21726 C 232.78297 305.06704 233.0791 305.51125 230.41387 304.17863 C 228.63705 303.29022 226.86023 302.54988 226.41603 302.54988 C 224.93534 302.54988 227.4525 312.17433 229.08126 313.2108 C 232.04263 315.28377 228.34092 314.39536 223.89886 312.02626 C 220.64136 310.3975 218.86454 310.24944 217.53192 311.2859 C 216.05123 312.47047 215.60703 311.58206 215.45896 306.99193 C 215.01476 298.40396 201.54053 279.59927 196.35813 280.63575 C 188.65857 282.11643 185.6972 295.8868 186.1414 330.23868 C 186.1414 343.56484 185.84527 354.37384 185.253 354.37384 C 184.51265 354.37384 184.06845 343.7129 184.06845 330.6829 C 184.06845 304.03056 181.9955 286.11428 178.14571 281.52416 C 174.74014 277.23017 168.3732 278.85893 165.11569 285.0778 C 163.78307 287.59497 160.3775 292.1851 157.86033 295.14646 C 153.86249 299.73658 152.97408 301.9576 152.826 307.88034 C 152.67794 311.8782 152.3818 313.95115 151.9376 312.61853 C 151.04919 308.91682 147.49554 309.36103 146.60713 313.2108 C 145.71872 316.6164 144.08997 316.32025 143.4977 312.61853 C 143.05349 309.36103 140.98053 306.84386 139.49985 307.73228 C 138.7595 308.32455 138.16723 308.17648 138.3153 307.43614 C 138.3153 306.84386 141.42474 303.8825 145.27452 300.92113 C 153.41828 294.85032 159.78522 283.1529 162.15432 270.27096 C 162.89466 265.68084 164.67148 257.53707 165.85603 252.35468 C 168.8174 240.5092 168.52126 220.51996 165.41182 211.19165 C 162.59852 202.75174 149.27236 185.87194 139.05564 177.87625 C 130.7638 171.21316 128.54278 168.54793 118.32606 152.85268 C 105.14797 132.5673 69.46347 92.88496 54.656625 81.77982 C 48.43775 77.1897 41.034327 75.85708 42.51501 79.70686 C 42.959217 80.89141 42.66308 81.92789 41.92274 81.92789 C 41.034327 81.92789 40.442053 79.85493 40.442053 77.48584 C 40.442053 73.93219 41.034327 73.04378 43.55149 73.04378 C 48.58582 73.04378 50.806845 74.52447 68.42699 89.47938 C 78.495645 98.06735 98.92909 119.53728 110.6265 133.75185 C 114.92048 139.08231 119.21447 142.63595 122.91618 143.96857 C 129.8754 146.48573 135.20586 149.8913 135.20586 151.8162 C 135.20586 152.7046 134.16938 152.55654 132.83677 151.372 C 130.91188 149.8913 130.3196 149.8913 129.13505 151.66813 C 124.84107 158.33121 132.2445 170.32475 142.60928 173.58226 C 150.0127 175.80329 165.5599 176.09942 168.07706 174.02647 C 169.85388 172.69385 170.89036 173.28612 173.85173 176.83977 C 181.69935 186.90842 183.92038 188.68524 187.77016 187.9449 C 193.10062 186.90842 193.98904 186.16808 196.062 179.9492 C 198.4311 172.39771 200.2079 170.6209 203.16928 172.10158 C 208.05554 174.7668 217.23578 172.84192 225.67568 167.36339 C 237.3731 159.95996 246.2572 151.22392 246.2572 147.37414 C 246.2572 143.3763 241.22287 142.93209 239.00184 146.6338 C 237.66923 149.0029 237.52116 149.0029 237.3731 146.78187 C 237.3731 145.44925 240.6306 142.33982 245.22072 139.67459 C 252.47607 135.23253 297.48888 90.96007 312.59186 73.33992 C 319.69915 65.04809 324.88154 63.5674 325.91802 69.34207 Z" fill="#FFFFFF"/>
        </g>
        <g id="Graphic_16">
          <path d="M 315.55323 93.32916 C 315.7013 110.65317 319.25494 138.6381 322.3644 145.7454 C 323.2528 147.81835 321.7721 148.26256 311.85152 149.0029 C 295.71206 150.18745 273.35372 157.29473 244.7765 170.32475 C 241.9632 171.65737 240.48253 172.98999 241.37094 173.28612 C 242.40742 173.73033 245.3688 172.84192 247.88595 171.65737 C 250.55118 170.32475 253.36448 169.28828 254.2529 169.28828 C 255.1413 169.28828 258.9911 167.65952 262.6928 165.73463 C 271.1327 161.14451 304.30003 151.52006 311.4073 151.52006 L 316.5897 151.52006 L 311.11118 154.92564 C 303.41162 159.51576 290.67773 172.24964 286.23568 179.65307 C 284.16272 183.05864 280.9052 188.24104 278.98033 191.2024 C 274.09407 198.7539 269.94815 211.04358 269.94815 218.15086 C 269.94815 223.48133 269.50394 224.0736 266.3945 224.0736 C 261.36018 224.0736 242.5555 217.26245 233.22717 211.932 C 228.9332 209.5629 224.6392 207.78607 223.60273 208.23028 C 220.4933 209.26676 234.26365 216.81825 247.5898 221.40837 C 265.20996 227.47918 265.0619 227.3311 258.9911 231.6251 C 250.69925 237.54783 241.37094 249.09717 238.85378 256.79673 L 236.3366 264.05208 L 229.67353 257.09287 C 226.1199 253.09502 220.64136 246.1358 217.68 241.3976 C 214.71862 236.8075 211.90532 232.9577 211.46111 232.9577 C 207.90747 232.9577 217.97612 249.54137 228.19285 260.2023 L 234.41172 266.7173 L 229.96967 267.7538 C 227.4525 268.34607 221.97397 271.60357 217.53192 275.15722 L 209.6843 281.67223 L 207.01906 268.34607 C 205.68644 261.0907 204.5019 250.13365 204.64996 244.06284 C 204.79803 233.10578 208.49974 211.33971 210.72077 208.52641 C 211.31304 207.638 212.34952 204.67663 212.9418 201.86333 C 213.97828 196.97708 218.42033 188.24104 221.8259 184.6874 C 222.56625 183.79898 225.97182 179.80113 229.22933 175.95136 C 232.48683 171.9535 239.7422 164.40202 245.22072 159.07155 C 250.84732 153.74109 260.7679 142.93209 267.28292 135.23253 C 273.946 127.53297 281.4975 119.09307 284.01465 116.72398 C 288.60477 112.42999 292.7507 107.2476 308.1498 86.81415 C 311.9996 81.63175 315.2571 77.48584 315.2571 77.48584 C 315.40516 77.48584 315.55323 84.59312 315.55323 93.32916 Z" fill="#FFFFFF"/>
        </g>
        <g id="Graphic_15">
          <path d="M 55.2489 85.92574 C 71.38836 100.43645 90.48919 121.01796 105.14797 140.11879 C 112.69946 149.74324 121.8797 163.36554 121.8797 164.84622 C 121.8797 165.58656 124.98914 168.99214 128.69085 172.54578 C 157.41613 199.34617 160.96977 204.52857 163.1908 222.1487 C 164.52341 232.21737 164.22728 236.65942 162.00625 248.80103 C 160.3775 256.79673 158.74874 266.2731 158.30454 269.97482 C 156.97192 279.4512 155.6393 281.07995 151.34532 278.85893 C 149.42043 277.82245 143.4977 277.0821 137.8711 277.0821 C 126.76596 277.37824 126.46982 276.6379 133.28097 267.60573 C 135.20586 265.08856 136.68655 262.5714 136.68655 261.97912 C 136.68655 261.38685 138.3153 258.72162 140.24019 256.20445 C 144.08997 251.02206 154.45476 230.88475 154.45476 228.51565 C 154.45476 224.5178 151.34532 227.92338 146.90327 236.95556 C 144.23804 242.58216 138.61144 252.2066 134.61359 258.57355 L 127.21016 269.97482 L 124.84107 264.4963 C 119.21447 250.57785 111.81105 240.9534 99.8175 231.77316 L 96.26386 228.95986 L 105.74024 227.18304 C 110.92264 226.14656 118.17799 223.77746 121.73163 221.7045 C 125.28528 219.77962 128.98699 218.15086 130.02347 218.15086 C 132.39256 218.15086 143.64576 208.23028 142.46122 207.1938 C 142.01701 206.60152 138.61144 208.52641 135.0578 211.19165 C 123.80459 219.48348 107.66513 225.40622 95.52352 225.55429 C 92.85828 225.55429 90.9334 224.962 91.3776 224.22167 C 91.96987 223.48133 91.22953 217.85473 90.04498 211.63585 C 86.63941 193.42343 76.27462 177.43204 60.57936 166.03077 L 54.508556 161.58872 L 61.91198 162.6252 C 66.057895 163.21747 78.34758 166.62304 89.30464 170.17669 C 109.88616 176.98783 110.6265 177.28397 121.73163 182.46637 C 128.09858 185.42774 131.35608 185.5758 128.39471 182.61444 C 126.46982 180.68955 92.71022 167.8076 89.60078 167.8076 C 88.26816 167.8076 83.3819 166.47497 78.93985 164.69815 C 74.4978 162.92133 66.946306 160.99644 62.06005 160.40417 C 57.32186 159.66383 53.17594 158.77542 52.879803 158.47928 C 52.583666 158.18314 53.32401 154.92564 54.656625 151.372 C 56.28538 146.78187 56.87765 139.82265 56.87765 127.97718 C 56.72958 118.79693 56.433446 110.80124 56.13731 110.20896 C 55.693104 109.76476 55.10083 106.35918 54.508556 102.80554 C 54.06435 99.2519 53.02787 95.25405 52.28753 93.92143 C 49.32616 88.73904 46.51286 80.44721 47.69741 80.44721 C 48.43775 80.44721 51.843324 82.96437 55.2489 85.92574 Z" fill="#FFFFFF"/>
        </g>
        <g id="Graphic_14">
          <path d="M 210.86884 114.79909 C 205.98258 119.83341 196.65427 133.0115 195.02551 137.30549 C 193.2487 141.89561 197.24654 139.52652 200.50405 134.04798 C 205.68644 125.60808 214.12634 114.50295 215.45896 114.50295 C 217.53192 114.50295 216.79158 131.67889 214.42248 137.30549 C 213.23793 140.26686 210.86884 143.52436 209.24009 144.41278 C 207.46326 145.59732 206.27872 147.96642 206.27872 150.48358 C 206.27872 156.11018 202.87314 163.66167 197.24654 170.76896 C 192.95256 176.09942 191.768 176.6917 185.54913 176.6917 C 179.77446 176.6917 177.99764 175.95136 174.14786 171.80544 C 168.66933 166.3269 166.30024 160.7003 166.30024 153.74109 C 166.30024 149.74324 165.11569 147.52221 161.11784 143.96857 C 158.30454 141.4514 155.49124 137.15742 154.60283 134.64026 C 152.826 128.56945 152.52987 115.98363 154.15862 115.98363 C 156.08351 115.98363 162.15432 123.09092 168.22513 132.5673 C 173.11138 140.26686 176.66503 143.3763 176.66503 139.97072 C 176.66503 137.89776 166.0041 123.09092 160.22943 117.31625 C 157.12 114.20681 155.04703 111.54158 155.93544 111.54158 C 157.86033 111.54158 170.29808 124.42353 175.33241 131.82696 C 177.84957 135.3806 180.21867 138.34197 180.81094 138.34197 C 189.69505 139.82265 189.84312 139.67459 196.21006 130.34627 C 203.16928 120.12955 213.68214 108.136 214.86669 109.32055 C 215.3109 109.61669 213.386 112.13385 210.86884 114.79909 Z" fill="#FFFFFF"/>
        </g>
        <g id="Graphic_13">
          <path d="M 190.13926 180.24534 C 192.36028 178.32045 193.10062 178.17238 192.65642 179.505 C 191.61994 183.05864 187.32596 184.98353 184.51265 183.2067 C 183.18004 182.3183 181.69935 180.68955 181.40322 179.505 C 180.95901 178.17238 181.69935 178.32045 183.92038 180.24534 C 187.02982 183.05864 187.02982 183.05864 190.13926 180.24534 Z" fill="#FFFFFF"/>
        </g>
        <g id="Graphic_12">
          <path d="M 188.5105 178.76466 C 188.5105 179.20886 187.91823 179.9492 187.02982 180.3934 C 186.28948 180.83761 185.54913 180.54148 185.54913 179.80113 C 185.54913 178.91272 186.28948 178.17238 187.02982 178.17238 C 187.91823 178.17238 188.5105 178.46852 188.5105 178.76466 Z" fill="#FFFFFF"/>
        </g>
        <g id="Graphic_11">
          <path d="M 176.66503 284.78167 C 179.6264 290.2602 183.18004 326.24083 180.81094 326.24083 C 180.21867 326.24083 179.6264 324.61208 179.6264 322.6872 C 179.6264 320.7623 178.58992 316.4683 177.40537 313.06274 C 176.22082 309.65717 175.33241 306.84386 175.48048 306.54773 C 175.92468 305.06704 170.59422 295.29453 168.07706 293.0735 L 164.96762 290.2602 L 167.92899 286.11428 C 171.48263 281.07995 174.444 280.63575 176.66503 284.78167 Z" fill="#FFFFFF"/>
        </g>
        <g id="Graphic_10">
          <path d="M 200.94825 286.41042 C 203.0212 289.3718 202.87314 290.11213 199.7637 294.25805 C 196.5062 298.55203 193.10062 307.73228 190.73153 317.949 C 188.80664 326.68504 188.36243 320.02196 189.99119 305.95545 C 192.36028 284.33746 195.6178 278.85893 200.94825 286.41042 Z" fill="#FFFFFF"/>
        </g>
        <g id="Graphic_9">
          <path d="M 168.52126 154.48143 C 167.04058 156.85053 172.0749 161.88485 175.77662 161.88485 C 181.55129 161.88485 183.18004 159.66383 179.33026 157.14666 C 174.14786 153.74109 169.7058 152.7046 168.52126 154.48143 Z" fill="black"/>
        </g>
        <g id="Graphic_8">
          <path d="M 177.55344 159.07155 C 178.73799 161.14451 176.07275 160.7003 172.81525 158.18314 C 170.15002 156.25825 170.15002 156.11018 173.40752 156.9986 C 175.18434 157.4428 177.10923 158.33121 177.55344 159.07155 Z" fill="#FFFFFF"/>
        </g>
        <g id="Graphic_7">
          <path d="M 196.35813 154.77757 C 191.91608 156.85053 192.06415 160.40417 196.35813 160.40417 C 200.05984 160.40417 203.31735 157.887 203.31735 154.92564 C 203.31735 152.7046 200.80018 152.55654 196.35813 154.77757 Z" fill="black"/>
        </g>
        <g id="Graphic_6">
          <path d="M 201.83666 156.55439 C 201.83666 156.85053 200.50405 157.4428 198.8753 157.887 C 197.24654 158.33121 196.21006 158.03507 196.80234 157.29473 C 197.54268 155.96211 201.83666 155.36984 201.83666 156.55439 Z" fill="#FFFFFF"/>
        </g>
        <g id="Graphic_5">
          <path d="M 182.8839 171.80544 C 183.62424 175.50715 187.02982 175.95136 187.02982 172.39771 C 187.02982 170.6209 186.1414 169.28828 184.66072 169.28828 C 183.3281 169.28828 182.58776 170.32475 182.8839 171.80544 Z" fill="black"/>
        </g>
        <g id="Graphic_4">
          <path d="M 188.9547 171.5093 C 188.5105 172.84192 188.5105 174.3226 189.10278 174.7668 C 190.13926 175.80329 194.43324 172.39771 194.43324 170.6209 C 194.43324 168.39986 189.99119 169.1402 188.9547 171.5093 Z" fill="black"/>
        </g>
      </g>
    </g>
  </g>
</svg>
