<?xml version="1.0" encoding="UTF-8" standalone="no"?>
<!DOCTYPE svg PUBLIC "-//W3C//DTD SVG 1.1//EN" "http://www.w3.org/Graphics/SVG/1.1/DTD/svg11.dtd">
<svg xmlns:xl="http://www.w3.org/1999/xlink" xmlns="http://www.w3.org/2000/svg" xmlns:dc="http://purl.org/dc/elements/1.1/" version="1.1" viewBox="54 67.5 184.5 342" width="184.5" height="342">
  <defs>
    <clipPath id="artboard_clip_path">
      <path d="M 54 67.5 L 238.5 67.5 L 238.5 356.8846 L 212.95385 409.5 L 54 409.5 Z"/>
    </clipPath>
  </defs>
  <g id="Bird_s_Jambe_Erased_(1)" stroke-opacity="1" stroke="none" stroke-dasharray="none" fill="none" fill-opacity="1">
    <title>Bird&apos;s Jambe Erased (1)</title>
    <g id="Bird_s_Jambe_Erased_(1)_Art" clip-path="url(#artboard_clip_path)">
      <title>Art</title>
      <g id="Group_103">
        <g id="Graphic_117">
          <path d="M 61.04262 303.69956 C 61.31763 303.8848 63.116756 303.23882 64.990526 302.2551 C 70.49826 299.2979 77.79072 298.1426 83.88219 299.25906 C 86.53635 299.68288 86.97578 299.99063 86.92518 300.95603 C 86.88947 301.6375 87.43081 303.2603 88.15442 304.66488 C 90.94717 310.0501 98.81122 312.11363 107.47231 309.8342 C 111.3426 308.78428 111.91048 308.81404 116.76153 309.69466 C 119.58308 310.1842 122.11177 310.8292 122.38083 311.12804 C 123.08039 311.90497 120.02026 313.7946 115.8452 315.22717 C 112.18718 316.57295 105.69844 316.5176 101.83958 315.1765 C 98.2587 313.96383 90.3024 313.66075 88.14171 314.6864 C 84.4031 316.4835 79.53266 322.49212 79.37195 325.5587 C 79.336235 326.24015 78.58013 326.5422 76.91839 326.73982 C 68.672434 327.6174 60.96058 337.8618 59.48079 349.79947 C 58.90494 354.2679 59.33592 356.9099 60.64205 356.97835 C 60.92599 356.99323 62.88334 355.50137 64.97509 353.61795 C 68.97633 350.06933 75.42839 346.4783 80.92148 344.88704 L 84.33449 343.87008 L 85.3899 345.4629 C 87.07319 348.1136 91.41339 350.04938 96.01324 350.29045 C 101.976 350.60294 104.60885 349.26037 111.39199 342.61172 C 115.3543 338.7194 119.0329 335.89414 123.86215 332.84447 C 131.10306 328.32675 138.35313 324.7206 138.94506 325.378 C 139.6476 326.09817 138.3273 329.5595 136.09841 332.97324 C 132.51898 338.2523 127.85141 342.5632 121.50697 346.27376 C 113.22305 351.13543 110.90141 354.1457 110.58296 360.22203 C 110.44903 362.7775 111.81292 367.17674 112.96678 367.9775 C 113.40918 368.22845 113.02679 369.00562 111.76578 370.24926 C 106.46783 375.72297 103.09593 386.8212 104.1141 395.64397 C 104.58127 399.76844 107.07545 406.5047 108.41158 407.0872 C 109.74474 407.7265 110.89217 406.47693 111.67755 403.4431 C 113.22153 397.88654 116.60083 393.16644 124.5614 385.7823 C 128.15321 382.44 130.64248 380.5774 131.38073 380.6161 C 133.19795 380.7113 138.47556 377.79903 140.17575 375.7812 C 142.7843 372.72903 143.78494 369.93426 144.58448 363.37063 C 145.44973 356.6396 145.90975 355.4679 152.0432 343.83106 C 156.408 335.51818 158.87299 331.946 162.10324 328.98334 C 168.0767 323.65892 175.27344 322.15693 184.73053 324.247 C 190.63973 325.58168 193.78142 327.56854 196.85788 331.8867 C 198.55308 334.31025 200.3378 336.1121 201.88621 336.99048 C 208.19638 340.4531 215.6498 337.3132 216.79602 330.65384 L 217.2109 328.17004 L 218.8042 329.27854 C 221.5035 331.01444 224.1554 334.7409 225.96764 339.27753 C 227.72607 343.7544 228.71552 344.43263 230.19153 342.3461 C 233.32285 338.0116 234.26226 328.77894 232.08822 323.54003 C 230.5691 319.92987 224.76037 313.41853 222.35419 312.6091 C 220.72816 312.12527 220.5159 311.82943 220.4616 309.60576 C 220.31134 305.95345 218.5172 302.15805 216.11375 300.20988 C 212.12595 296.98284 208.19268 297.06143 201.3999 300.6346 C 197.35948 302.75755 191.76769 304.05894 187.56536 303.8387 C 182.34084 303.5649 170.33101 300.20216 168.87809 298.58853 C 166.61798 296.07842 163.28203 267.37454 164.99114 265.18635 C 171.76487 256.54416 174.24328 246.1963 171.93957 235.82562 C 171.67027 234.44485 171.67027 234.44485 173.84656 236.38112 C 180.86868 242.55744 183.96621 247.56003 186.39218 256.68436 C 187.8669 262.2283 188.77576 263.35786 190.83478 262.0991 C 195.3114 259.25873 198.36613 246.60637 196.53507 238.08267 C 196.17303 236.29842 196.02326 234.81003 196.19362 234.81895 C 196.36398 234.82788 198.58194 235.96912 201.07194 237.35238 C 204.56031 239.24353 206.2523 240.64192 208.22846 243.13714 C 209.61567 244.91817 211.07455 246.41823 211.47207 246.43906 C 212.835 246.5105 213.70716 243.9937 213.96013 239.1667 C 214.57917 227.35476 208.00742 216.93122 196.25402 210.8486 C 193.86868 209.64166 191.99145 208.51828 192.00335 208.29113 C 192.0361 207.66646 201.3928 201.89296 207.42353 198.73542 C 210.58235 197.1357 213.17032 195.563 213.1852 195.27906 C 213.2239 194.5408 211.0595 192.37739 209.18227 191.254 L 207.58006 190.31588 L 213.30006 187.65455 C 219.60283 184.73905 220.73538 183.7734 219.56342 182.23144 C 218.07454 180.2173 209.5107 176.2949 206.27376 176.12525 C 204.57012 176.03597 204.83 175.4232 207.57322 173.06142 C 210.4987 170.48142 216.56144 163.45335 216.60608 162.60153 C 216.6775 161.23861 214.80623 160.00166 210.11043 158.33196 L 205.30402 156.59951 L 208.16104 155.32564 C 212.30015 153.49257 229.24026 137.75265 229.40716 135.65446 C 229.5024 133.83724 227.98376 132.39099 223.22497 129.74994 C 217.58137 126.60696 213.47452 125.65145 205.90383 125.59635 L 199.18794 125.52911 L 202.60665 123.31662 C 204.43554 122.10275 209.0255 118.18637 212.68302 114.67668 C 218.01396 109.66025 219.4721 107.91446 219.5376 106.66512 C 219.66556 104.22322 217.67178 103.15068 211.89724 102.50638 C 205.1005 101.80852 199.23072 102.98145 190.31296 106.89879 L 183.43338 109.9549 L 185.50406 107.38704 C 190.24901 101.59963 194.42536 92.53659 196.28554 84.20634 C 197.25295 79.87233 197.25295 79.87233 195.94955 78.66514 C 194.8614 77.69701 194.1291 77.54474 192.01307 77.71856 C 188.58196 77.9943 179.8435 81.75021 175.11591 85.03299 C 171.21908 87.67597 162.85504 95.15288 158.86298 99.61309 L 156.68467 102.06142 L 157.67316 98.41185 C 158.17782 96.3883 158.71795 92.60135 158.91462 89.93528 C 159.21818 84.14288 158.49835 72.887145 157.67903 71.13588 C 155.78024 67.16416 146.35162 72.13667 139.00406 80.86268 C 135.29891 85.28098 129.69096 94.49676 128.22436 98.57683 C 127.35516 101.03682 126.44655 100.9892 126.5775 98.49052 C 126.70547 96.04863 123.72626 85.52865 121.334 80.10746 C 119.40223 75.67846 117.69215 73.53885 116.10207 73.45552 C 114.68237 73.38111 111.26092 76.73234 109.13667 80.32239 C 104.13528 88.82969 101.71342 98.09856 101.71286 108.97487 L 101.66347 115.35003 L 98.12378 111.17843 C 96.19547 108.85655 92.61114 105.53677 90.19876 103.75896 C 85.92106 100.63062 77.11494 95.8983 75.35451 95.80604 C 74.161955 95.74354 72.53046 97.53719 72.45308 99.01369 C 72.32808 101.3988 74.12069 111.7427 75.58947 117.4002 C 77.86888 126.0613 83.35297 137.6806 86.7042 141.10205 L 87.89699 142.2465 L 85.42236 142.7432 C 83.23762 143.1412 82.9388 143.41026 82.69106 144.87783 C 82.50308 146.29158 83.17882 147.52282 86.80531 152.21147 C 89.20602 155.29839 92.86846 160.38753 94.87165 163.45361 C 96.93164 166.52267 99.52379 170.30295 100.69575 171.84492 C 102.81847 174.80337 102.74978 175.02755 99.77893 175.21352 C 97.43573 175.37544 97.493 177.54232 99.86371 180.11517 C 101.63653 182.14418 105.26028 187.97157 111.66787 199.35455 C 112.91769 201.58393 115.57556 205.19682 117.51279 207.34834 C 121.06737 211.236 121.06737 211.236 119.87208 212.31224 C 117.59806 214.4139 114.38067 221.4772 111.42986 231.06 C 106.56457 246.7494 104.39866 251.13448 99.7668 254.76395 C 97.44789 256.63546 97.0774 257.1855 97.49004 258.00433 C 99 260.7029 107.82598 260.7099 114.344 258.03345 C 118.42037 256.31098 123.12687 252.34377 125.37065 248.6461 C 126.17735 247.37866 126.78094 246.72696 126.75416 247.23805 C 126.62916 249.62316 123.74334 255.79273 120.98251 259.5772 C 119.26744 261.87896 117.89608 264.1418 117.87227 264.5961 C 117.69668 267.9466 128.72478 265.05098 134.61467 260.23467 C 135.86079 259.275 137.03227 258.65305 137.13394 258.88615 C 137.70504 259.94108 138.8363 266.6059 139.33372 272.3264 C 140.40023 283.4864 139.49878 288.73497 136.15173 290.6665 C 134.86073 291.39605 133.71901 291.4501 128.8501 290.9102 C 121.76943 290.19747 116.52062 288.21406 110.64666 284.034 C 102.07638 278.06128 99.38923 277.18018 94.23091 278.9029 C 92.55132 279.44125 89.73298 279.97688 88.01743 280.11475 C 78.53403 280.69968 67.70405 287.42097 63.24352 295.38717 C 61.173085 299.03698 60.109955 303.0243 61.04262 303.69956 Z" fill="black"/>
        </g>
        <g id="Graphic_116">
          <path d="M 65.521246 296.4746 C 70.60049 288.6547 82.37504 282.38153 91.2908 282.8488 C 92.42656 282.9083 92.97063 283.39238 93.62852 284.96435 C 94.0801 286.1269 94.45107 287.74078 94.40643 288.5926 C 94.2425 290.634 92.21694 294.51394 90.30448 296.23593 C 88.81335 297.52444 88.64001 297.5723 83.54693 296.96372 C 76.58876 296.08656 71.24793 296.94554 64.02167 300.09737 C 63.2058 300.45322 63.66284 299.3383 65.521246 296.4746 Z" fill="#FFFFFF"/>
        </g>
        <g id="Graphic_115">
          <path d="M 63.19784 345.154 C 66.92262 334.92843 74.196015 328.7041 82.10446 328.83382 C 85.11721 328.93477 86.76134 330.15982 87.85592 333.1783 C 88.75013 335.67375 88.64894 337.60455 87.38818 339.93013 C 86.57255 341.36794 86.03765 341.79546 84.78831 341.73 C 80.75635 341.51868 74.75835 344.05154 66.79432 349.3286 L 62.01591 352.4948 L 62.14388 350.05292 C 62.21233 348.7468 62.66913 346.5499 63.19784 345.154 Z" fill="#FFFFFF"/>
        </g>
        <g id="Graphic_114">
          <path d="M 76.47933 100.42052 L 76.47933 100.42052 C 75.797875 100.38481 75.72918 100.60899 76.04659 103.24505 C 77.25965 114.8683 82.79232 129.90681 89.55527 139.94175 C 90.9276 142.00672 91.85431 142.79556 92.93329 142.85211 C 96.39737 143.03366 102.13049 145.55494 105.51446 148.35172 L 107.14965 149.74713 L 108.96567 144.4326 C 111.18789 137.8866 113.8349 133.01423 117.04705 129.31037 C 119.64966 126.37178 123.73471 123.39699 125.15442 123.47139 C 127.42595 123.59044 133.41767 133.12941 135.03895 139.13658 C 135.46969 140.69665 135.89447 142.37029 136.04103 142.83352 C 136.18461 143.35355 136.79118 142.64506 137.62169 140.92332 C 141.50243 133.1545 147.07218 126.84088 151.9674 124.70577 C 155.11431 123.3332 156.87177 123.48225 157.68812 125.2903 C 158.9201 127.86041 159.6055 132.16715 159.68432 137.18237 L 159.7453 142.53832 L 161.02415 140.95396 C 163.46235 137.89286 170.15 131.97949 172.60951 130.68478 C 176.4736 128.66646 179.531 127.91559 180.80142 128.6655 C 182.01505 129.41243 183.05308 133.50987 183.67325 140.1479 C 184.06876 144.55333 183.76768 148.12504 182.56443 153.69945 L 182.10466 155.95313 L 185.44004 155.3307 C 187.33488 155.0314 191.7852 154.86603 195.36286 155.05352 C 201.4392 155.37197 202.06982 155.29113 204.64589 153.94559 C 210.20446 151.10497 216.10625 146.06151 220.49262 140.59697 C 224.5742 135.51507 224.76243 135.18327 223.9074 134.11346 C 222.14052 131.97087 216.8617 129.4734 211.84624 128.47027 C 206.99817 127.53286 203.5192 127.63526 192.28455 129.03952 C 189.01488 129.49455 190.13528 127.67411 194.15783 125.89188 C 200.8611 122.94042 207.41732 117.36182 212.87623 109.9035 C 214.5345 107.59874 214.54046 107.48517 213.55697 106.69335 C 212.0294 105.41747 209.15105 104.92495 204.02225 104.99783 C 197.0673 105.14583 190.28022 107.52346 182.6718 112.53442 C 180.19742 114.11307 177.90827 115.4167 177.56754 115.39885 C 176.54536 115.34528 176.96346 113.88664 178.27233 112.81635 C 180.53147 110.99864 184.88188 105.13361 187.0359 100.97568 C 189.69183 95.93295 191.34046 90.55271 191.56367 86.29359 L 191.73628 82.99987 L 189.84144 83.29918 C 186.74214 83.76313 177.75866 87.84787 173.44943 90.75396 C 168.01658 94.45533 160.24126 101.56448 155.68155 107.07688 C 150.09692 113.67445 149.45117 112.95728 153.10155 104.1514 C 156.42333 96.18247 156.96226 86.98575 154.63498 78.15132 L 153.86625 75.43465 L 151.58603 76.567925 C 148.60353 78.063 142.68983 83.33361 139.39708 87.4888 C 134.945 93.12073 131.04615 100.14832 127.76032 108.51775 C 126.51765 111.58455 125.64524 113.01938 124.95783 113.09724 C 123.40669 113.35762 123.01786 112.08447 123.2619 107.42783 C 123.51785 102.54404 122.42254 96.27972 120.20338 89.72872 C 118.5196 84.91411 116.36961 80.30284 115.68815 80.26713 C 115.12027 80.23737 111.66037 85.4088 110.13079 88.51751 C 109.4885 89.90746 108.23691 93.14463 107.35878 95.77498 C 105.26502 102.043 104.46371 114.07318 105.7026 120.85753 C 106.14548 123.2724 106.31038 125.5588 106.06537 125.88763 C 105.20188 127.1521 104.11373 126.18396 102.484 122.51106 C 100.24722 117.38275 94.45338 110.58746 89.34469 107.01697 C 85.55427 104.36972 78.12322 100.56362 76.47933 100.42052 Z" fill="#FFFFFF"/>
        </g>
        <g id="Graphic_113">
          <path d="M 93.03544 145.24912 C 98.92654 145.84258 101.48523 147.00167 105.37458 151.02077 C 108.83343 154.56175 109.36536 154.19101 111.56651 146.96057 C 113.77956 139.50297 117.49613 132.69361 121.327 129.13606 L 124.08212 126.54713 L 126.16293 129.21867 C 130.11526 134.20911 132.62432 140.66141 133.38807 147.81947 C 133.93013 152.68813 135.62485 152.94778 137.3992 148.42829 C 139.23927 143.74141 142.63023 137.7122 145.54654 134.22061 C 148.16403 130.99808 152.43433 127.74828 153.85403 127.82269 C 154.76264 127.8703 155.89342 132.37121 156.45954 137.86753 C 156.76504 140.73075 156.64599 143.00228 156.03395 145.98824 C 154.96213 151.22788 154.96213 151.22788 155.92753 151.27848 C 156.38184 151.30229 157.6488 149.94508 158.70348 148.29203 C 163.35247 141.07598 170.4136 134.55579 175.63763 132.66569 C 176.7972 132.2709 177.84023 131.92696 178.0106 131.93589 C 178.52168 131.96267 180.24488 139.2849 180.61038 143.17626 C 181.03268 147.0706 180.91041 148.31696 179.295 155.23644 C 178.84118 157.37653 178.69809 159.02042 178.96715 159.31924 C 179.29002 159.67782 181.24165 159.3815 183.78498 158.66062 C 191.24459 156.48908 203.65442 157.65195 211.1512 161.29065 C 212.26315 161.80448 213.19581 162.47975 213.18093 162.76369 C 213.13034 163.72909 209.25482 168.13846 205.1281 171.90829 C 199.98242 176.6497 199.99456 177.5045 205.1055 177.77235 C 210.21644 178.0402 217.68917 181.05127 217.09474 182.61456 C 216.96628 182.89254 214.15116 184.45334 210.76518 186.04116 C 204.74933 188.91475 204.5192 188.95964 201.7036 188.35652 C 200.06865 188.04306 197.3996 187.90318 195.73786 188.10082 C 194.13588 188.24464 192.70725 188.3406 192.65344 188.28083 C 192.54284 188.2181 193.2987 186.8341 194.23386 185.28867 C 196.4806 181.53421 195.9663 180.48226 191.83266 180.03785 C 187.13412 179.5069 178.91245 182.09406 173.02232 185.8284 L 170.60472 187.41003 L 170.2866 181.5281 C 169.92334 174.3341 169.05245 169.22042 168.12872 168.3748 C 167.69227 168.01025 166.73282 167.84608 165.87207 167.9718 C 163.91449 168.38171 157.63923 174.03198 154.5766 178.1423 L 152.24603 181.32291 L 151.10037 177.10595 C 150.53796 174.7987 149.14134 171.02413 148.06188 168.80368 C 144.7248 161.85243 142.68067 162.82724 136.27221 174.27884 L 133.25769 179.64445 L 132.97029 177.52245 C 132.60502 174.71304 130.79279 170.17642 128.73578 167.05057 C 126.9957 164.39689 122.62228 160.92187 120.97542 160.83556 C 119.66929 160.7671 116.41523 164.18405 114.8916 167.1792 C 114.1955 168.50937 113.25463 171.25033 112.69319 173.2709 C 112.18853 175.29444 111.63899 177.08785 111.46267 177.1925 C 111.10408 177.51537 106.43506 175.33458 105.2931 174.30668 C 104.752 173.76582 102.06413 169.63886 99.34329 165.05462 C 96.67922 160.47336 92.56224 154.27845 90.2751 151.19749 C 86.92065 146.75087 86.24491 145.51963 86.9472 145.15783 C 87.4702 144.95746 90.1452 144.98376 93.03544 145.24912 Z" fill="#FFFFFF"/>
        </g>
        <g id="Graphic_112">
          <path d="M 87.06394 320.0396 L 87.06394 320.0396 C 86.05687 320.78405 84.66444 322.36246 84.03405 323.52525 L 82.7852 325.6237 L 84.62945 326.28978 C 86.52453 327.07242 89.33764 329.89623 90.35734 332.1705 C 91.37703 334.44476 90.7563 338.68304 89.09207 341.10137 C 88.28835 342.31202 87.54439 343.46886 87.53546 343.63922 C 87.4251 344.65844 92.51545 346.40576 96.20669 346.5992 C 101.20405 346.8611 102.9583 345.985 111.98593 338.88453 C 118.58109 333.64964 129.59036 326.7669 134.18378 324.95766 C 135.57943 324.4044 137.42344 323.98856 138.33205 324.03618 C 139.97891 324.1225 139.97891 324.1225 139.7302 321.26224 C 139.59828 319.4331 139.70864 318.4139 140.04937 318.43176 C 140.61726 318.4615 140.85953 319.27143 141.24587 322.76528 C 141.51244 325.2848 140.17156 330.2256 138.35208 333.43302 C 134.22014 340.56228 129.83055 345.00165 122.9661 348.85577 C 118.85997 351.14613 115.75222 353.94435 114.71861 356.28184 C 113.81643 358.28455 113.64108 362.717 114.30517 365.25736 C 114.88246 367.28066 114.99306 367.3434 117.00148 367.05005 C 118.14915 366.8824 119.7541 366.6818 120.55807 366.5531 C 125.03219 365.93343 130.7777 370.39146 131.22999 374.79987 C 131.3887 376.1179 131.78645 377.2207 132.18397 377.24152 C 133.60368 377.31593 137.7604 374.06018 139.01223 371.90496 C 139.8906 370.35655 140.53562 367.82787 141.11146 363.35945 C 142.13196 355.83936 143.71809 351.65167 149.16759 342.1998 C 157.75114 327.2747 163.02528 322.2553 172.1796 320.3434 C 176.72838 319.38597 185.29447 320.00573 189.81992 321.6665 C 193.11685 322.8643 194.04654 323.59634 197.65195 327.60055 C 203.084 333.69354 203.96285 334.30904 207.0862 334.47273 C 210.20955 334.63642 212.50167 333.276 213.84303 330.4991 C 215.24713 327.61157 215.00783 326.74487 212.68225 325.4841 C 210.1325 324.15465 208.81695 322.09266 208.5742 319.11883 C 208.21464 315.1139 212.2248 311.3949 216.71108 311.63003 C 218.24436 311.7104 218.48044 311.55192 218.55484 310.1322 C 218.67687 307.8039 216.53902 304.04743 214.3838 302.7956 C 211.73237 301.23303 208.35806 301.51175 202.71865 303.72174 C 195.85692 306.43712 192.4707 306.943 184.2932 306.51442 C 172.53803 305.89836 166.13834 303.05742 165.0403 297.93184 C 163.58319 290.96523 162.22976 279.84712 162.09068 272.7218 C 162.00638 269.98407 161.78172 267.75147 161.61136 267.74254 C 161.441 267.7336 160.7387 268.09542 160.14701 268.51996 C 158.5542 269.57537 156.5128 269.41144 155.95361 268.12936 C 155.69645 267.6034 155.52858 265.37377 155.58191 263.26962 C 155.66452 258.4337 154.14789 252.60285 150.8795 245.42742 L 148.37366 240.00028 L 146.61122 244.29262 C 145.6344 246.6331 143.38169 250.50112 141.60388 252.9135 L 138.29922 257.29584 L 139.69633 263.2343 C 142.371 275.2189 142.5289 286.33128 139.94762 291.03626 C 138.42994 293.91782 136.06293 294.53404 127.71506 294.09655 C 118.22845 293.65632 115.43666 292.5989 106.7347 285.879 C 102.63034 282.7028 100.29583 281.6124 97.22927 281.45168 C 95.1281 281.34156 94.99667 281.67634 96.07018 284.01037 C 97.14368 286.3444 96.76225 291.4494 95.30732 294.22035 C 94.67098 295.4967 93.15902 297.18275 91.97564 298.03184 C 90.79225 298.88093 89.82114 300.02586 89.7884 300.65053 C 89.75864 301.2184 90.64964 302.6887 91.77969 303.94377 C 94.89782 307.4669 100.01793 308.64633 105.72925 307.23732 C 110.1136 306.15738 115.49658 306.66726 119.95333 308.5522 C 122.12641 309.46332 124.31734 310.0337 125.0675 309.84523 C 127.19544 309.44426 126.5234 311.4021 123.7234 313.7609 C 122.3518 314.94178 119.24083 316.71484 116.79918 317.6688 C 111.56324 319.78607 107.05316 320.00526 98.81267 318.60534 C 92.54786 317.53675 89.9118 317.85415 87.06394 320.0396 Z" fill="#FFFFFF"/>
        </g>
        <g id="Graphic_111">
          <path d="M 104.76785 177.8097 C 106.97366 178.09613 109.04209 178.83091 110.63538 179.93941 C 112.01342 180.80885 113.40634 181.39435 113.69921 181.23886 C 114.04887 181.08636 114.34745 179.73534 114.42483 178.25885 C 114.67185 173.54543 118.13697 165.01456 120.10646 164.3775 C 121.32283 163.9857 125.03562 167.02749 127.09262 170.15333 C 129.0988 173.16263 130.70793 178.315 131.05558 182.54708 C 131.20237 184.09227 131.62716 185.76591 131.99789 186.29784 C 132.57494 187.2392 132.74531 187.24812 133.52224 186.54856 C 133.94357 186.11509 134.8398 184.22595 135.50589 182.3817 C 136.90975 178.41224 141.79756 169.89899 143.34548 168.61345 C 144.41529 167.7584 144.52589 167.82115 145.6351 169.47372 C 147.89248 173.12257 149.27149 178.31981 149.34139 183.5054 C 149.3907 190.17046 150.18573 190.21212 154.50912 183.77623 C 157.90628 178.7154 163.88545 172.19545 165.13479 172.26093 C 166.44092 172.32938 167.11466 177.94522 166.65906 185.55187 C 166.1618 193.95355 166.32324 194.13284 170.7101 190.8322 C 176.93774 186.09055 185.4431 182.43631 189.64543 182.65655 C 192.14411 182.7875 192.11137 183.41217 189.39543 187.42676 C 188.22122 189.18744 187.2144 191.01383 187.19059 191.46814 C 187.14 192.43354 187.71085 192.4065 194.0409 191.14381 C 198.70324 190.19233 203.39285 190.89365 207.15326 193.02683 C 209.64028 194.4669 210.20245 195.69218 208.38523 195.59694 C 205.6026 195.4511 197.4564 200.4267 187.22729 207.63502 C 178.4774 213.782 171.96685 217.38247 165.89694 219.11435 C 161.85034 220.26894 160.36491 220.36192 153.88808 220.07943 C 142.69782 219.54992 134.20291 216.48529 124.88521 209.56227 C 119.84224 205.82438 117.86949 201.90306 110.35912 190.91784 C 107.71614 187.021 105.17824 181.93118 103.83294 180.43707 C 102.48466 178.99975 101.35758 177.68791 101.36353 177.57434 C 101.37246 177.40397 102.90277 177.54111 104.76785 177.8097 Z" fill="#FFFFFF"/>
        </g>
        <g id="Graphic_110">
          <path d="M 107.48284 249.8725 C 110.12687 245.05694 111.51882 241.31462 114.17974 231.8305 C 116.96615 222.12519 118.41191 218.44264 121.05321 214.7658 L 122.89674 212.18604 L 126.03843 214.1729 C 127.80506 215.23354 129.29072 216.2225 129.40132 216.28525 C 129.51192 216.34799 129.05512 218.54487 128.46391 221.13332 C 127.22471 226.30724 126.85221 231.24187 127.3107 236.61865 C 127.59536 239.8794 127.52072 240.21714 125.06491 244.70092 C 120.78367 252.5057 113.08573 258.13834 106.23543 258.46266 C 104.6962 258.49588 102.82218 258.39767 102.09584 258.13183 C 100.75078 257.71967 100.75078 257.71967 103.20707 255.3998 C 104.58165 254.16212 106.47899 251.64212 107.48284 249.8725 Z" fill="#FFFFFF"/>
        </g>
        <g id="Graphic_109">
          <path d="M 108.66294 381.6463 C 111.00172 375.04947 115.3313 369.58195 119.02824 368.57987 C 123.13163 367.42826 127.4929 370.0485 128.9106 374.5075 L 129.79886 377.11653 L 124.61722 381.45745 C 119.19354 386.0704 113.53427 393.00573 110.79476 398.5566 C 109.96425 400.27833 109.09481 401.65637 108.86766 401.64446 C 108.6405 401.63256 108.19191 400.4132 107.81796 398.85613 C 106.82183 395.0456 107.3248 385.4484 108.66294 381.6463 Z" fill="#FFFFFF"/>
        </g>
        <g id="Graphic_108">
          <path d="M 123.13202 262.02455 C 124.42303 261.295 127.99007 254.07918 129.18165 249.81387 C 130.23288 246.0537 130.47145 243.67455 130.66667 234.51676 C 130.90058 224.62073 131.45833 219.4111 132.47135 218.55308 C 132.65362 218.33485 134.89836 218.965 137.46895 219.89693 C 139.97978 220.88268 142.72074 221.82355 143.56363 222.03855 C 145.75159 222.66572 146.62224 226.69744 146.21748 234.42064 C 145.94665 239.58837 145.63914 241.10975 144.00813 245.0673 C 140.02025 254.8805 132.00587 262.2049 124.32481 263.169 C 122.5495 263.36068 121.90078 262.7003 123.13202 262.02455 Z" fill="#FFFFFF"/>
        </g>
        <g id="Graphic_107">
          <path d="M 155.16356 223.4437 L 161.87945 223.51094 L 162.93783 225.04696 C 163.46405 225.87175 165.01567 227.7753 166.30419 229.26642 C 168.5075 231.77355 168.76466 232.29952 169.2678 236.82448 C 170.35465 245.42307 168.44686 254.66194 164.47908 260.83175 C 163.0539 263.03483 159.22899 266.4788 158.26359 266.4282 C 158.03644 266.4163 157.76392 264.01036 157.74831 261.04845 C 157.72008 255.06783 156.23345 249.75105 152.66327 242.90147 C 150.38482 238.5682 149.82538 236.20416 149.60893 230.55534 C 149.4919 228.44227 149.2164 226.09312 148.96817 225.39678 C 148.72292 224.64365 148.53445 223.8935 148.54338 223.72313 C 148.4985 223.493 151.52316 223.3668 155.16356 223.4437 Z" fill="#FFFFFF"/>
        </g>
        <g id="Graphic_106">
          <path d="M 166.50286 222.21575 C 168.74737 221.76394 174.22236 219.43144 177.85633 217.458 C 181.66958 215.32314 181.66958 215.32314 185.5324 220.93528 C 191.45518 229.61648 193.92877 237.8322 193.50937 246.92128 C 193.24152 252.03222 191.42872 258.3719 190.30784 258.02845 C 190.02687 257.95678 189.33005 256.0411 188.65406 253.7279 C 186.26405 245.00408 184.03668 241.8693 174.4586 233.39515 C 166.9492 226.73773 164.14503 223.74356 164.75755 222.9215 C 164.93982 222.70328 165.6989 222.34445 166.50286 222.21575 Z" fill="#FFFFFF"/>
        </g>
        <g id="Graphic_105">
          <path d="M 186.99183 211.55902 L 190.29995 209.2838 L 191.75883 210.78386 C 192.57196 211.56675 195.09196 213.46408 197.34885 214.94902 C 206.3226 220.82902 211.86597 230.2306 211.4674 238.92218 L 211.33645 241.42087 L 208.90003 239.0154 C 205.65047 235.82706 201.88113 233.86425 198.20775 233.33007 L 195.21286 232.8884 L 193.95386 229.74743 C 192.35687 225.44986 188.6374 219.2758 185.94382 216.34436 C 184.7002 215.08335 183.73455 213.9508 183.73753 213.89402 C 183.7405 213.83723 185.21973 212.77587 186.99183 211.55902 Z" fill="#FFFFFF"/>
        </g>
        <g id="Graphic_104">
          <path d="M 212.71008 316.2606 C 214.5179 314.3623 218.46604 313.99977 221.06069 315.55935 C 223.9901 317.25037 227.64933 321.31435 229.0757 324.52103 C 230.30768 327.09114 230.42745 328.06547 230.1715 332.94926 C 229.91258 337.88984 229.20481 340.52912 228.62454 338.5626 C 228.475 338.15616 227.49127 336.2824 226.33717 334.3997 C 223.98408 330.40417 219.47005 326.35234 215.73667 324.79 C 213.78777 323.9476 212.86106 323.15876 212.2002 321.64358 C 210.91441 319.0137 211.02477 317.9945 212.71008 316.2606 Z" fill="#FFFFFF"/>
        </g>
      </g>
    </g>
  </g>
</svg>
