<?xml version="1.0" encoding="UTF-8" standalone="no"?>
<!DOCTYPE svg PUBLIC "-//W3C//DTD SVG 1.1//EN" "http://www.w3.org/Graphics/SVG/1.1/DTD/svg11.dtd">
<svg xmlns="http://www.w3.org/2000/svg" xmlns:dc="http://purl.org/dc/elements/1.1/" version="1.1" xmlns:xl="http://www.w3.org/1999/xlink" viewBox="36 81 292.5 315" width="292.5" height="315">
  <defs>
    <clipPath id="artboard_clip_path">
      <path d="M 36 81 L 328.5 81 L 328.5 347.53846 L 216 396 L 36 396 Z"/>
    </clipPath>
  </defs>
  <g id="Caltrop_(2)" fill-opacity="1" stroke="none" stroke-dasharray="none" stroke-opacity="1" fill="none">
    <title>Caltrop (2)</title>
    <g id="Caltrop_(2)_Art" clip-path="url(#artboard_clip_path)">
      <title>Art</title>
      <g id="Group_53">
        <g id="Graphic_169">
          <path d="M 176.95164 86.57654 C 176.30398 90.17728 176.38417 89.52507 175.74544 98.52682 C 175.47007 102.47806 175.04753 106.97713 174.81478 108.48669 C 174.58203 109.99624 174.33787 112.1592 174.24928 113.29287 C 174.1263 114.42594 173.88455 116.45134 173.6542 117.82334 C 173.45884 119.16154 173.01572 122.86905 172.65038 126.0619 C 172.32004 129.22098 171.84313 132.8935 171.64777 134.2317 C 171.18467 137.11325 169.16726 152.1798 168.48538 157.74076 C 168.24123 159.90373 167.8873 162.44318 167.69854 163.4031 C 167.51038 164.32862 167.23184 166.49098 167.09865 168.20868 C 166.7545 172.15871 165.80249 179.40058 165.55035 180.04979 C 165.37 180.52824 164.97447 183.47977 163.69091 193.94949 C 163.48595 195.83793 162.86007 200.16145 162.35358 203.55825 C 161.84708 206.95505 161.2996 210.72953 161.17481 211.96577 C 161.05003 213.202 160.80588 215.36497 160.57492 216.77135 C 160.37836 218.17834 160.08961 220.92533 159.91784 222.88315 C 159.56408 227.38343 159.45851 227.5192 153.58479 230.9599 C 152.95977 231.293 151.53357 232.1969 150.3855 232.93368 C 149.20304 233.66985 147.04685 235.00823 145.55188 235.91094 C 144.0569 236.81366 141.5882 238.3186 140.05764 239.28948 C 138.52708 240.26038 136.75458 241.29585 136.09517 241.62834 C 135.43636 241.92645 134.18452 242.6958 133.31457 243.26543 C 131.74841 244.3045 124.69523 248.30943 120.5982 250.47394 C 119.45253 251.07315 117.88937 251.94028 117.125 252.37414 C 111.56498 255.57953 106.10934 258.71794 104.78992 259.4173 C 103.92176 259.88377 102.46238 260.7183 101.48866 261.3205 C 100.54933 261.92332 98.67366 262.957 97.31985 263.65577 C 96.00043 264.35515 94.08977 265.4226 93.11605 266.02482 C 92.10794 266.62643 90.33605 267.62752 89.12099 268.2599 C 83.87949 270.95486 82.90697 271.4883 79.43377 273.38848 C 77.41934 274.48853 74.465585 276.1914 72.83185 277.1605 C 71.19812 278.1296 69.25187 279.26523 68.48809 279.6647 C 65.50235 281.2294 60.14747 284.50717 51.79785 289.8655 C 38.959705 298.1383 37.83822 299.32273 44.541676 297.61652 C 48.446344 296.61826 50.76127 296.03946 52.90245 295.56083 C 53.93895 295.30372 56.04634 294.7901 57.5667 294.40383 C 59.08706 294.01757 61.26263 293.53954 62.401096 293.353 C 63.540165 293.1321 64.819195 292.776 65.235475 292.57687 C 65.652356 292.34334 66.793226 292.01925 67.828525 291.83092 C 68.82883 291.67638 71.62822 290.93404 74.08311 290.22008 C 76.50301 289.5399 80.44507 288.3703 82.89936 287.69074 C 91.64743 285.1258 101.84888 282.07023 102.85399 281.64057 C 103.44282 281.41005 105.83013 280.6261 108.21684 279.87656 C 112.54079 278.50722 113.8898 278.08356 125.16274 274.7371 C 128.48278 273.72863 132.39045 272.55843 133.80824 272.13597 C 136.67941 271.22287 145.45947 268.7961 149.19099 267.86362 C 150.5382 267.54314 152.05976 267.0881 152.64859 266.85756 C 153.20243 266.66083 154.61902 266.30715 155.75809 266.08623 C 156.89775 265.83092 159.1771 265.3203 160.83561 264.90205 C 162.49413 264.4838 163.94271 264.26827 164.07787 264.40823 C 164.3144 264.65317 164.44055 265.30897 165.30382 271.0345 C 165.58032 272.93135 166.01615 275.5534 166.26786 276.8994 C 166.52017 278.21102 166.91141 281.4171 167.14211 283.96674 C 167.4072 286.517 167.82503 290.17073 168.06713 292.06698 C 168.30924 293.96322 168.6269 297.4432 168.75863 299.75033 C 168.88976 302.09185 169.09507 304.12506 169.16205 304.22943 C 169.22843 304.3682 169.44155 305.95432 169.61667 307.7462 C 169.7918 309.53808 170.11846 312.5022 170.36237 314.2953 C 171.18765 320.22656 171.5511 323.05374 171.75522 325.15573 C 172.0547 327.7066 172.88237 333.5003 173.13829 334.60557 C 173.48956 336.15972 175.1011 350.2576 174.96054 350.42716 C 174.85617 350.49414 174.95094 350.9774 175.11388 351.49625 C 175.60692 352.81207 176.70252 359.02326 176.83965 361.02088 C 176.89222 361.9506 177.17112 363.7099 177.42583 364.88395 C 177.71433 366.093 178.3409 369.6128 178.83591 372.78625 C 179.33152 375.92534 179.89712 378.99685 180.05826 379.61887 C 180.22 380.2065 180.5061 381.5531 180.69444 382.5884 C 182.00195 390.4545 182.7093 393.2877 183.46588 393.3009 C 183.94734 393.3093 184.5944 389.74296 184.98855 384.8994 C 185.12173 383.1817 185.41889 379.95324 185.63045 377.6865 C 185.87641 375.42038 186.43033 369.30677 186.93365 364.1211 C 188.16927 350.4857 193.15068 299.6257 193.38523 298.01297 C 193.5016 297.2582 193.87715 293.4807 194.2201 289.59945 C 194.56305 285.7182 195.11277 279.84532 195.41112 276.5481 C 195.70948 273.25086 195.97404 269.91864 195.98725 269.16206 C 196.05586 267.20244 196.63654 263.49733 196.91466 263.33018 C 197.05342 263.2638 197.67123 263.3434 198.32224 263.49235 C 198.97265 263.6757 200.95886 264.19198 202.73993 264.63588 C 207.39835 265.7836 212.39587 267.21245 213.11145 267.60334 C 213.45235 267.7813 213.82884 267.89107 213.9682 267.7903 C 214.14195 267.69013 215.54653 268.02425 217.15445 268.53393 C 218.72799 269.043 221.87745 269.92358 224.13758 270.51344 C 226.3971 271.13768 228.793 271.8331 229.4416 272.11964 C 230.0902 272.40616 231.7687 272.81386 233.10572 273.078 C 234.4777 273.30835 235.67536 273.67326 235.8099 273.8476 C 235.91008 274.02136 236.32036 274.16613 236.76743 274.17393 C 237.524 274.18714 241.39326 275.2179 251.3551 278.0062 C 260.63215 280.61056 267.68525 282.5225 270.1861 283.11655 C 271.5907 283.45067 274.2291 284.04713 276.0108 284.45663 C 277.79186 284.90053 281.4252 285.65196 284.0648 286.17964 C 288.34974 287.04564 293.00875 288.15897 299.9949 289.96654 C 301.2275 290.29765 302.56092 290.76813 302.9694 291.01607 C 303.37727 291.2984 304.3366 291.52154 305.12756 291.53534 C 305.88414 291.54855 307.90654 291.96225 309.65262 292.43994 C 316.67074 294.38566 323.98138 295.33888 324 294.2728 C 324.0042 294.03206 322.87893 293.462 321.3386 293.02232 C 320.8939 292.87696 320.42026 292.4215 320.2555 292.0058 C 320.0588 291.45196 319.24303 290.88732 317.6381 290.2057 C 315.3158 289.23635 295.57872 278.88133 294.79916 278.2141 C 294.56143 278.03796 293.88144 277.5789 293.26782 277.25857 C 290.54244 275.7318 287.23844 273.8509 285.84286 273.00092 C 284.9915 272.50446 283.6973 271.75946 282.94733 271.36796 C 282.19675 271.01086 281.3454 270.5144 281.0745 270.26886 C 280.56584 269.84718 278.89635 268.92363 269.32042 263.73402 C 266.6964 262.3122 264.31133 260.99776 264.0386 260.8554 C 263.7659 260.71303 260.3907 258.9685 256.53706 257.0436 C 248.28553 252.84034 243.1033 250.16985 241.7065 249.38866 C 241.16167 249.06955 237.47998 247.14766 233.52496 245.1178 C 226.774 241.66313 221.32143 238.71272 220.57505 238.1149 C 220.4055 237.97433 218.63524 236.91142 216.65923 235.8105 C 214.68382 234.67522 211.99403 233.08025 210.66723 232.23148 C 209.37482 231.38331 207.73912 230.49475 207.0899 230.24262 C 206.4401 230.02487 205.38302 229.49042 204.73621 229.10072 C 204.09 228.67664 202.4875 227.85746 201.1571 227.21503 C 199.69033 226.50142 198.73882 225.8312 198.67664 225.4517 C 198.61386 225.1066 198.27897 224.58476 197.93987 224.30364 C 197.4994 223.91755 197.2423 222.88105 196.9754 220.43396 C 196.80148 218.5733 196.4568 216.64087 196.1907 216.12021 C 195.95957 215.56577 195.6113 213.83968 195.39877 212.21915 C 195.22065 210.59922 194.8566 207.80643 194.64708 206.01396 C 194.40317 204.22088 194.0807 201.01602 193.91039 198.94902 C 193.54556 194.2298 192.85106 186.7184 192.39824 183.09845 C 192.21831 181.58169 192.04319 179.78981 191.98581 179.1352 C 191.7763 177.34273 191.06997 172.47994 190.01897 165.68472 C 188.77663 158.02615 187.36818 148.05985 185.2648 132.57736 C 184.07486 123.8877 183.65943 120.0964 183.91157 119.4472 C 184.12811 118.86617 184.06894 118.31473 183.80402 117.7253 C 183.17222 116.47586 182.90473 114.06316 183.32222 113.79524 C 183.91285 113.46155 183.7915 112.53062 183.08251 111.76144 C 182.57627 111.2022 182.225 109.64805 181.61523 105.16535 C 180.12762 93.82166 178.37466 83.88375 177.82742 83.70219 C 177.62228 83.62981 177.25738 84.82746 176.95164 86.57654 Z" fill="black"/>
        </g>
        <g id="Graphic_168">
          <path d="M 179.23888 93.49654 C 179.4502 95.18585 179.90362 98.7714 180.30266 101.5304 C 181.2197 108.11688 181.43342 109.66863 181.50418 111.52749 C 181.60512 113.62767 182.44438 120.7288 182.97018 124.10922 C 183.7139 128.80065 184.63095 135.38713 184.83386 137.5579 C 184.91722 138.69457 185.28788 141.10906 185.63435 142.93833 C 185.94644 144.767 186.37747 147.66416 186.5206 149.31787 C 186.87266 152.79846 187.36107 156.35022 188.3221 162.38706 C 188.69517 164.664 189.1268 167.52677 189.27714 168.7678 C 189.42748 170.00884 189.9201 173.31988 190.35173 176.18265 C 190.74958 179.01042 191.26397 183.04425 191.3993 185.14503 C 191.56963 187.21203 191.92588 190.45188 192.16919 192.27935 C 192.3781 194.10622 192.5792 196.38015 192.5636 197.2743 C 192.548 198.16843 192.66275 199.47765 192.8233 200.13406 C 192.98383 200.79047 193.18434 203.0988 193.2509 205.19838 C 193.31685 207.33235 193.48777 209.36496 193.65432 209.67747 C 193.82027 210.02437 194.13115 211.92182 194.33706 213.92064 C 194.74109 218.36534 195.31208 221.12734 196.07964 222.48235 C 196.44712 223.10797 196.57208 223.83256 196.4605 224.31222 C 196.20477 225.16776 196.02922 225.3711 191.12579 230.37677 C 189.58442 231.96668 187.55199 234.09843 186.60545 235.11392 C 185.65891 236.1294 184.01197 237.85508 182.96047 238.97194 C 181.17477 240.764 180.96603 240.89795 180.56355 240.30612 C 179.92575 239.40057 180.04633 238.40507 180.8409 238.21254 C 181.70485 237.9868 181.70545 237.95242 180.86671 236.73377 C 180.16193 235.72386 180.13535 235.2762 179.9362 221.06535 C 179.91363 218.41613 179.79794 213.21965 179.69022 209.53693 C 179.5825 205.8542 179.50616 202.34403 179.51577 201.7938 C 179.52597 201.20917 179.45102 199.59104 179.33807 198.17865 C 179.25951 196.76687 179.14579 193.42804 179.08884 190.77822 C 179.06628 188.129 178.98155 185.10028 178.89638 184.06678 C 178.81122 183.03329 178.7005 179.52251 178.65316 176.32245 C 178.60641 173.088 178.48429 170.23064 178.42031 169.95432 C 178.35633 169.678 178.30504 162.76262 178.34354 154.6448 C 178.38263 146.4926 178.37386 129.25785 178.32505 116.28805 C 178.27623 103.31825 178.2306 92.13733 178.2432 91.41514 C 178.28282 89.1454 178.84644 90.35926 179.23888 93.49654 Z" fill="#FFFFFF"/>
        </g>
        <g id="Graphic_167">
          <path d="M 177.28553 102.92255 C 177.52206 103.16748 177.6742 104.30535 177.65199 105.57778 C 177.62317 107.2285 177.5116 107.70815 177.24128 107.42823 C 177.03854 107.21829 176.62767 107.10792 176.38514 107.20688 C 176.07383 107.30465 175.90488 107.1297 175.91088 106.7858 C 175.91808 106.37312 176.12682 106.23916 176.60588 106.38513 C 177.49582 106.64147 177.50542 106.09123 176.5853 105.59356 C 175.9041 105.20327 175.88532 104.30853 176.6051 104.45869 C 176.81025 104.53107 176.9858 104.32774 176.9906 104.05262 C 176.9954 103.7775 176.86204 103.53437 176.6557 103.53077 C 176.48376 103.52776 176.316 103.28403 176.3208 103.00891 C 176.33162 102.3899 176.7449 102.36271 177.28553 102.92255 Z" fill="#FFFFFF"/>
        </g>
        <g id="Graphic_166">
          <path d="M 176.22477 108.5113 C 176.21996 108.78642 176.0782 109.02475 175.87186 109.02115 C 175.69991 109.01814 175.53217 108.77441 175.53697 108.4993 C 175.54177 108.22418 175.71792 107.98645 175.88987 107.98945 C 176.0962 107.99305 176.22957 108.23618 176.22477 108.5113 Z" fill="#FFFFFF"/>
        </g>
        <g id="Graphic_165">
          <path d="M 177.58475 109.42945 C 177.57815 109.80774 177.437 110.01168 177.23245 109.9049 C 177.0623 109.79873 176.89636 109.45183 176.90116 109.17671 C 176.90596 108.9016 177.08151 108.69826 177.25346 108.70126 C 177.4598 108.70486 177.59196 109.01677 177.58475 109.42945 Z" fill="#FFFFFF"/>
        </g>
        <g id="Graphic_164">
          <path d="M 175.74648 110.29177 C 175.60712 110.39254 175.50575 110.28757 175.50996 110.04684 C 175.51416 109.80611 175.61913 109.70474 175.75489 109.81031 C 175.85566 109.94967 175.85205 110.15601 175.74648 110.29177 Z" fill="#FFFFFF"/>
        </g>
        <g id="Graphic_163">
          <path d="M 176.11672 114.70148 C 176.35264 114.9808 176.8299 115.22994 177.1738 115.23594 C 177.58648 115.24314 177.823 115.48808 177.8152 115.93514 C 177.8086 116.31343 177.73442 116.62174 177.63125 116.61994 C 177.32174 116.61454 175.62265 115.41527 175.35413 115.03218 C 174.71633 114.12663 175.40953 113.82913 176.11672 114.70148 Z" fill="#FFFFFF"/>
        </g>
        <g id="Graphic_162">
          <path d="M 176.55796 117.01401 C 177.22835 118.02332 177.22294 118.33283 176.50076 118.32023 C 175.81296 118.30822 174.6949 117.3255 174.7063 116.67209 C 174.7189 115.9499 175.98773 116.17845 176.55796 117.01401 Z" fill="#FFFFFF"/>
        </g>
        <g id="Graphic_161">
          <path d="M 175.86433 119.30673 C 176.19562 120.03492 176.224 120.37942 175.94769 120.4434 C 175.2213 120.67152 175.91347 122.40362 176.8378 122.66056 C 177.31746 122.77213 177.69034 123.08825 177.68554 123.36337 C 177.67954 123.70726 177.4726 123.73805 176.789 123.48532 C 175.4912 122.94666 175.28365 123.01184 175.26684 123.97475 C 175.25844 124.45621 175.07989 124.8315 174.87355 124.8279 C 174.6672 124.8243 174.60743 124.30725 174.7624 123.31234 C 174.95116 122.35243 174.89318 121.7322 174.65485 121.59044 C 174.00865 121.16636 174.26378 120.3452 175.05475 120.35901 L 175.77694 120.37162 L 175.06856 119.56804 C 174.19063 118.62391 174.12785 118.27881 174.85004 118.29141 C 175.12516 118.29622 175.56442 118.75109 175.86433 119.30673 Z" fill="#FFFFFF"/>
        </g>
        <g id="Graphic_160">
          <path d="M 175.1906 128.34227 C 175.178 129.06446 175.03984 129.09645 174.11972 128.59878 C 173.47231 128.24348 173.2496 127.20758 173.73885 126.76891 C 174.08936 126.39663 175.20321 127.62008 175.1906 128.34227 Z" fill="#FFFFFF"/>
        </g>
        <g id="Graphic_159">
          <path d="M 174.04991 130.62719 C 174.14348 131.17923 174.00232 131.38317 173.6946 131.2746 C 173.45568 131.16722 173.18776 130.74974 173.16058 130.33646 C 173.06701 129.78442 173.20817 129.58048 173.51588 129.68906 C 173.7548 129.79643 174.02272 130.21391 174.04991 130.62719 Z" fill="#FFFFFF"/>
        </g>
        <g id="Graphic_158">
          <path d="M 175.16995 133.46757 C 176.89202 135.32085 177.05436 135.87409 175.69077 135.16228 C 174.43035 134.45227 173.04557 132.98328 173.05758 132.29549 C 173.07379 131.36696 173.3809 131.50992 175.16995 133.46757 Z" fill="#FFFFFF"/>
        </g>
        <g id="Graphic_157">
          <path d="M 173.76494 135.12866 C 173.61777 135.6765 174.35934 136.54946 174.74183 136.31533 C 174.91558 136.21516 175.05074 136.35512 175.04654 136.59585 C 175.04174 136.87097 175.4762 137.60096 176.04942 138.26457 C 177.16028 139.65998 177.25745 140.00568 176.53526 139.99307 C 175.95063 139.98287 175.83786 140.5313 176.3483 140.84982 C 176.75618 141.13214 176.78036 141.71737 176.36769 141.71017 C 176.19574 141.70717 175.27861 141.03755 174.3301 140.19539 C 172.7034 138.79098 172.20496 137.78466 172.96934 137.3508 C 173.17808 137.21684 173.21787 136.90794 173.05133 136.59542 C 172.65065 135.90042 172.98717 134.35828 173.50002 134.53923 C 173.70456 134.646 173.83792 134.88914 173.76494 135.12866 Z" fill="#FFFFFF"/>
        </g>
        <g id="Graphic_156">
          <path d="M 174.78755 141.57939 C 175.86702 142.80224 175.85801 143.31809 174.77014 142.5767 C 174.29409 142.25878 173.9188 142.08023 173.917 142.1834 C 173.9128 142.42413 175.22639 144.02947 176.24068 145.04479 C 177.72862 146.51558 176.66614 146.29063 174.93806 144.78125 C 172.66816 142.7808 171.53011 140.97212 172.72956 141.23386 C 172.96969 141.27245 173.281 141.17468 173.42216 140.97075 C 173.74007 140.49469 173.80825 140.53028 174.78755 141.57939 Z" fill="#FFFFFF"/>
        </g>
        <g id="Graphic_155">
          <path d="M 174.4844 145.15173 C 174.71852 145.53423 174.88206 146.01869 174.7747 146.25761 C 174.70231 146.46275 174.86286 147.11916 175.16276 147.6748 C 175.56223 148.43859 175.59182 148.7143 175.28051 148.81207 C 175.03798 148.91104 174.82684 149.18256 174.82204 149.45768 C 174.81723 149.7328 174.53851 149.93433 174.229 149.92893 C 173.74695 149.95492 173.81332 150.09368 174.5591 150.7259 C 175.06714 151.18197 175.47082 151.70503 175.46661 151.94576 C 175.4576 152.4616 175.25127 152.458 174.39933 151.99593 C 173.34344 151.39269 173.64215 152.01711 175.16208 153.62606 C 176.7158 155.27 176.63442 155.99099 175.00051 154.99925 C 173.77508 154.25546 173.3588 154.4546 174.13416 155.36254 C 174.84254 156.16611 174.87093 156.51061 174.18733 156.25787 C 173.33359 155.89897 173.6009 156.35084 175.2228 158.03037 C 176.06695 158.93951 176.67216 159.74129 176.56719 159.84266 C 176.46162 159.97841 176.08633 159.79986 175.74783 159.48435 C 174.5296 158.32787 174.68355 159.36257 175.90057 160.58783 C 176.57697 161.25324 176.94445 161.87886 176.7719 161.91025 C 176.25305 162.0732 173.29414 160.12953 173.26816 159.64747 C 173.27236 159.40674 172.90187 158.95307 172.42582 158.63515 C 170.72613 157.47027 171.22517 158.4422 173.55726 160.82213 C 174.87565 162.15236 175.95512 163.37521 175.95212 163.54716 C 175.94912 163.71911 175.54124 163.43679 175.0338 162.94633 C 173.64662 161.6149 172.55455 161.11423 172.09967 161.5535 C 171.53983 162.09413 171.26591 162.02055 170.52434 161.1476 C 169.9843 160.55336 169.91973 160.31143 170.23584 159.93854 C 170.55195 159.56566 170.55496 159.3937 170.24905 159.18197 C 169.7386 158.86345 169.92478 156.08027 170.48043 155.78037 C 170.75855 155.61322 170.79774 155.3387 170.5968 155.02559 C 169.89442 153.87812 170.62201 153.58121 171.70508 154.59773 C 172.68678 155.50927 172.76577 154.92585 171.82326 153.73978 C 171.25124 153.00739 171.12028 152.6267 171.3972 152.52833 C 171.7429 152.43116 171.67772 152.22362 171.27405 151.70057 C 170.66643 151.03636 170.4745 150.2074 170.88718 150.2146 C 171.02474 150.217 171.63836 150.53732 172.25017 150.9608 C 173.7809 151.95073 173.72233 151.3649 172.1662 149.85852 C 171.15072 148.91199 171.01736 148.66886 171.50062 148.5741 C 172.15643 148.44794 172.3018 148.00327 171.75756 147.64977 C 171.5874 147.5436 171.42146 147.1967 171.42627 146.92158 C 171.43167 146.61207 171.60542 146.5119 171.80936 146.65306 C 172.11586 146.83041 172.15386 146.62467 171.99331 145.96826 C 171.80138 145.1393 171.87196 145.03733 172.48738 145.25448 C 173.37671 145.5452 173.38572 145.02936 172.50538 144.22278 C 172.1331 143.87228 171.93396 143.456 172.04013 143.28585 C 172.25248 142.94555 173.78021 144.10743 174.4844 145.15173 Z" fill="#FFFFFF"/>
        </g>
        <g id="Graphic_154">
          <path d="M 171.08376 162.60217 C 171.82233 163.64708 171.82233 163.64708 171.13453 163.63507 C 170.13722 163.61766 170.26518 164.1703 171.55819 164.98408 C 173.1909 166.0446 176.56686 169.71556 175.60934 169.38924 C 174.47988 169.05993 174.64282 169.57878 175.99921 170.70326 C 177.3218 171.79276 177.48415 172.346 176.48685 172.3286 C 175.55832 172.31239 175.6199 172.72627 176.63599 173.63841 C 177.51692 174.4106 177.77403 175.4471 177.08623 175.4351 C 176.8799 175.43149 175.96217 174.79626 175.08124 174.02408 C 173.5903 172.72524 172.36366 172.05022 173.30977 173.02995 C 173.95177 173.69476 173.76842 174.34517 172.90867 174.33016 C 172.4616 174.32236 171.98194 174.21078 171.7786 174.03523 C 171.60906 173.89467 172.52138 174.8394 173.84097 176.10085 C 175.12558 177.3961 176.10308 178.54836 175.96312 178.68352 C 175.6476 179.02202 175.20654 178.67032 171.31113 175.19668 C 168.4318 172.6352 167.52309 171.48412 168.75272 171.9872 C 169.02604 172.09516 169.26737 172.06498 169.27037 171.89303 C 169.27337 171.72108 169.03804 171.40737 168.76712 171.16183 C 168.08893 170.59959 168.13593 169.878 168.83033 169.51172 C 169.21222 169.31198 169.284 169.14123 169.01188 168.96448 C 168.33189 168.5054 168.59243 167.37474 169.3834 167.38855 C 170.0368 167.39995 170.0374 167.36556 169.56855 166.63497 C 168.7968 165.52069 168.90416 165.28176 170.00044 165.5417 L 170.92536 165.76424 L 169.90867 164.88649 C 169.09532 164.18428 168.99635 163.94175 169.31307 163.53448 C 169.5586 163.26356 169.67137 162.71512 169.54102 162.30004 C 169.2857 161.16037 170.21123 161.34853 171.08376 162.60217 Z" fill="#FFFFFF"/>
        </g>
        <g id="Graphic_153">
          <path d="M 176.9376 166.2132 C 176.928 166.76343 176.17621 166.4751 175.53661 165.67273 C 174.5935 164.52106 174.76966 164.28333 175.9239 165.16349 C 176.50133 165.58637 176.9406 166.04124 176.9376 166.2132 Z" fill="#FFFFFF"/>
        </g>
        <g id="Graphic_152">
          <path d="M 173.17692 164.87474 C 173.17511 164.9779 173.10513 165.04548 173.00196 165.04368 C 172.8988 165.04188 172.83122 164.9719 172.83302 164.86873 C 172.83482 164.76556 172.9048 164.69798 173.00797 164.69978 C 173.11114 164.70159 173.17872 164.77157 173.17692 164.87474 Z" fill="#FFFFFF"/>
        </g>
        <g id="Graphic_151">
          <path d="M 169.23195 174.09398 C 169.56865 174.51266 169.56504 174.719 169.21394 175.12568 C 168.86284 175.53235 169.19833 176.01982 171.22631 178.08484 C 173.49202 180.326 174.27278 180.92444 174.28299 180.33982 C 174.28539 180.20226 173.54322 179.3637 172.5959 178.45275 C 171.68299 177.5424 170.90823 176.60007 170.91183 176.39373 C 170.92023 175.91227 176.89002 180.76373 177.15313 181.45633 C 177.34866 182.07895 176.901 182.10553 175.94648 181.60727 C 174.925 181.00463 175.1881 181.69723 176.4727 182.99247 C 177.11471 183.65728 177.65355 184.3203 177.65114 184.45785 C 177.64274 184.93931 176.7516 184.75175 176.00643 184.08514 C 175.63355 183.76903 175.02353 183.24237 174.65064 182.92626 C 174.27776 182.61015 173.94106 182.19147 173.87528 182.01832 C 173.67795 181.49887 170.11443 178.71904 169.90449 178.92177 C 169.79952 179.02314 170.54169 179.8617 171.55778 180.77385 C 174.57226 183.4753 177.61453 186.55564 177.60853 186.89954 C 177.59652 187.58733 176.44047 186.81035 172.77918 183.7192 C 171.83067 182.87704 170.98113 182.2774 170.91115 182.34498 C 170.77119 182.48014 172.76358 184.61334 175.03168 186.71696 C 177.16463 188.6806 177.5997 189.3762 176.50522 189.0131 C 175.75284 188.75917 175.78603 188.82855 176.79732 190.01581 C 178.5164 192.04104 178.0941 192.58408 175.91716 191.17006 C 174.72612 190.42686 174.72612 190.42686 175.0924 191.12127 C 175.29154 191.53755 175.89796 192.27054 176.47418 192.7622 C 177.21995 193.39443 177.48667 193.88069 177.30692 194.32476 C 177.19774 194.66685 177.3275 195.11632 177.6322 195.39685 C 178.276 195.9585 178.2622 196.74946 177.63898 196.97938 C 177.2233 197.14413 177.18531 197.34987 177.48342 198.00868 C 177.94687 199.04878 177.56137 199.45485 176.71123 198.8896 C 175.72473 198.25318 175.51659 198.35275 176.19058 199.15572 C 177.0679 200.13425 176.24435 200.01667 174.64663 198.92237 C 172.57346 197.47577 172.66523 198.13098 174.79938 200.02585 C 176.62822 201.6746 177.87423 203.20996 177.5937 203.51467 C 177.38437 203.68301 173.47455 201.03474 172.93632 200.33734 C 172.46446 199.7787 169.9926 199.49474 170.22432 200.0148 C 170.2901 200.18794 170.96589 200.88775 171.71046 201.58875 C 173.09824 202.8858 173.8838 203.2091 173.8952 202.5557 C 173.8988 202.34936 174.17333 202.38855 174.5818 202.63648 C 175.36437 203.13175 175.45553 203.82135 174.83171 204.08566 C 174.5204 204.18343 174.65316 204.46095 175.22878 204.987 C 177.1602 206.67193 177.93796 207.44232 177.93195 207.78622 C 177.92175 208.37085 177.34072 208.1543 176.29024 207.24156 C 175.7478 206.78488 174.7583 206.3204 174.03732 206.23902 C 173.35072 206.15823 172.49697 205.79933 172.12469 205.44883 C 171.54966 204.88838 171.27454 204.88358 169.92674 205.23846 C 169.0284 205.46358 168.06428 205.51555 167.6202 205.3358 C 167.17554 205.19044 166.59271 205.07706 166.38577 205.10785 C 165.6262 205.2666 165.91632 204.41165 166.64151 204.2523 C 167.60863 204.02838 167.31173 203.3008 166.24624 203.2478 C 164.6999 203.152 164.43258 202.70013 165.61144 202.1703 C 166.27085 201.8378 166.69133 201.39794 166.69854 200.98526 C 166.70814 200.43502 166.8819 200.33486 167.56669 200.5188 C 168.2171 200.70217 168.42524 200.6026 168.43184 200.2243 C 168.44144 199.67407 166.87331 198.8555 166.38645 199.1566 C 166.2127 199.25676 165.76743 199.1458 165.35896 198.89786 C 164.06655 198.0497 164.76918 195.24112 166.31793 195.19935 C 166.765 195.20716 168.47326 197.8514 168.46125 198.5392 C 168.44805 199.29578 169.10506 199.10085 169.56773 198.21451 C 170.104 197.05426 169.80469 196.46423 168.20097 195.71383 C 166.7686 195.00082 166.20258 193.92453 167.50219 194.36002 C 168.42531 194.68573 168.92658 193.55927 168.07584 193.02841 C 166.44253 192.0023 166.34176 191.86293 166.83343 191.2867 C 167.21952 190.84624 167.22372 190.60551 166.78866 189.9099 C 166.25223 189.10934 166.22246 186.8728 166.67794 186.39914 C 166.8173 186.29837 166.8275 185.71374 166.73454 185.12731 C 166.5444 184.19518 166.61499 184.09321 167.2654 184.27657 C 167.94959 184.49491 167.98518 184.42673 167.54892 183.79991 C 167.01248 182.99934 167.23828 177.94642 167.79212 177.7497 C 167.99966 177.68451 168.00507 177.375 167.77214 176.92373 C 167.50543 176.43747 167.54822 175.95661 167.83534 175.27362 C 168.08568 174.72758 168.16526 174.10976 168.0307 173.93541 C 167.697 173.34478 168.7607 173.50095 169.23195 174.09398 Z" fill="#FFFFFF"/>
        </g>
        <g id="Graphic_150">
          <path d="M 175.30216 175.16315 C 176.22168 175.6952 177.53347 177.40372 177.15158 177.60346 C 176.7685 177.87197 173.67623 175.68517 173.68583 175.13493 C 173.69543 174.5847 174.31445 174.5955 175.30216 175.16315 Z" fill="#FFFFFF"/>
        </g>
        <g id="Graphic_149">
          <path d="M 176.8469 204.91205 C 176.70755 205.01281 176.50121 205.00921 176.36545 204.90364 C 176.26468 204.76428 176.36965 204.66291 176.61038 204.66711 C 176.85111 204.67132 176.95248 204.77629 176.8469 204.91205 Z" fill="#FFFFFF"/>
        </g>
        <g id="Graphic_148">
          <path d="M 164.72786 205.49172 C 164.82802 205.66547 164.68746 205.83501 164.41234 205.8302 C 164.10283 205.8248 163.8651 205.64866 163.8681 205.4767 C 163.87171 205.27037 164.01167 205.1352 164.18362 205.1382 C 164.38996 205.14181 164.62829 205.28358 164.72786 205.49172 Z" fill="#FFFFFF"/>
        </g>
        <g id="Graphic_147">
          <path d="M 165.20949 207.46094 C 165.91907 208.19574 167.34124 209.49338 168.35793 210.37113 C 169.37462 211.2489 170.4221 212.33358 170.65502 212.78486 C 170.92234 213.23673 171.90284 214.21705 172.81876 214.95545 C 176.0094 217.41917 177.49493 219.02752 177.2434 219.64233 C 177.13423 219.98443 177.29597 220.57206 177.69965 221.0951 C 178.507 222.14122 178.56197 222.93338 177.83978 222.92078 C 177.1176 222.90817 177.17797 223.39083 177.99072 224.12743 C 178.46498 224.5485 178.56214 224.8942 178.31721 225.13074 C 178.10727 225.33348 177.42548 224.97757 176.30742 223.99484 C 175.3927 223.18767 174.54435 222.51925 174.44118 222.51745 C 173.85655 222.50725 174.46297 223.24024 176.39378 224.95956 C 178.12185 226.46894 178.49114 226.9914 178.17562 227.3299 C 177.8945 227.669 177.8891 227.9785 178.224 228.50035 C 178.45812 228.88284 178.55469 229.26293 178.44972 229.3643 C 178.20479 229.60083 175.8577 228.08064 175.8649 227.66796 C 175.8679 227.496 175.59518 227.35365 175.28567 227.34825 C 174.73483 227.37303 174.73423 227.40742 175.34305 228.00286 C 176.93476 229.44106 178.65263 231.53506 178.44269 231.7378 C 178.23215 231.97493 176.63443 230.88063 175.24725 229.5492 C 173.72432 228.1122 173.64654 228.62685 175.09709 230.269 C 175.83926 231.10755 176.47586 232.08187 176.47106 232.357 C 176.46626 232.6321 176.83674 233.08579 177.3146 233.30053 C 177.82685 233.51587 178.12975 233.89956 178.02178 234.17288 C 177.9144 234.4118 178.2469 235.07122 178.71816 235.66425 C 179.32457 236.39725 179.48871 236.84732 179.24378 237.08385 C 178.8589 237.45553 177.05784 236.18568 174.92669 234.11886 C 174.38545 233.5934 173.73925 233.16932 173.46413 233.16452 C 173.189 233.15972 173.05385 233.01975 173.19441 232.8502 C 173.44295 232.40734 172.05577 231.0759 171.33358 231.0633 C 171.02407 231.0579 170.5836 230.6718 170.38567 230.18675 C 170.18774 229.7017 169.78166 229.3162 169.50654 229.3114 C 169.26581 229.3072 168.9623 228.9579 168.83255 228.50842 C 168.64122 227.64507 166.03401 225.26034 165.68411 225.59823 C 165.54475 225.699 165.77768 226.15027 166.14816 226.60394 C 166.51925 227.02323 166.95611 227.61566 167.12326 227.89378 C 167.42256 228.4838 167.52453 228.5544 163.82525 225.669 C 161.75508 224.05044 161.15107 223.17988 162.11519 223.1279 C 162.32213 223.09712 162.63224 223.06813 162.736 223.03555 C 162.87357 223.03795 162.70882 222.62227 162.4415 222.1704 C 162.07282 221.61355 162.04503 221.23466 162.25498 221.03193 C 162.4999 220.7954 162.47152 220.4509 162.2048 219.96464 C 161.63638 219.0259 162.09126 218.58664 163.00958 219.18748 C 163.5876 219.57597 163.55562 219.4378 162.81645 218.4273 C 161.7074 216.92872 161.6838 216.3091 162.81507 216.53525 C 163.84317 216.7596 163.95414 216.31433 162.96644 215.74669 C 162.52357 215.49815 162.35582 215.25442 162.56576 215.05168 C 162.98565 214.6462 164.04513 215.0431 164.03553 215.59334 C 164.02652 216.1092 166.7103 218.04806 167.02522 217.74395 C 167.16518 217.6088 166.7615 217.08574 166.1509 216.59348 C 163.77781 214.59124 162.59518 213.36658 162.8401 213.13005 C 162.98007 212.9949 163.35716 213.07028 163.66246 213.3164 C 163.96777 213.56254 164.64777 214.02161 165.192 214.37512 C 165.70245 214.69363 166.1749 215.21788 166.27207 215.56358 C 166.36984 215.8749 166.70773 216.2248 167.01544 216.33337 C 168.07433 216.76465 167.8426 216.2446 166.42104 214.91258 C 162.45984 211.2658 162.52682 211.37016 162.9515 210.68957 C 163.23323 210.31608 163.27542 209.86961 163.07569 209.48772 C 162.84156 209.10523 162.91454 208.8657 163.33142 208.63218 C 163.7827 208.39925 163.82069 208.1935 163.52138 207.60348 C 162.59028 205.764 163.45183 205.67584 165.20949 207.46094 Z" fill="#FFFFFF"/>
        </g>
        <g id="Graphic_146">
          <path d="M 170.57792 207.34825 C 170.91161 207.93888 170.10924 208.57848 169.63618 208.08862 C 169.2307 207.66874 169.51843 206.95135 170.03428 206.96036 C 170.20623 206.96336 170.44396 207.1395 170.57792 207.34825 Z" fill="#FFFFFF"/>
        </g>
        <g id="Graphic_145">
          <path d="M 177.25454 209.1504 C 177.86455 209.67706 177.93093 209.81582 177.51765 209.843 C 177.20814 209.8376 176.6977 209.5191 176.3604 209.1348 C 175.58504 208.22686 176.23844 208.23826 177.25454 209.1504 Z" fill="#FFFFFF"/>
        </g>
        <g id="Graphic_144">
          <path d="M 171.49299 212.07707 C 171.28244 212.3142 170.30014 211.43705 170.30795 210.98998 C 170.31095 210.81803 170.61866 210.9266 170.99094 211.2771 C 171.36323 211.6276 171.59796 211.9757 171.49299 212.07707 Z" fill="#FFFFFF"/>
        </g>
        <g id="Graphic_143">
          <path d="M 175.68453 214.35186 C 176.33914 214.2945 176.4743 214.43445 176.29454 214.87852 C 176.15038 215.2544 176.4153 215.84383 177.15866 216.61362 C 177.83386 217.3478 178.06738 217.7647 177.72348 217.7587 C 177.44836 217.7539 176.09378 216.52623 174.709 215.05724 C 172.91875 213.16837 172.58326 212.6809 173.49978 213.38492 C 174.24675 213.94836 175.23686 214.37845 175.68453 214.35186 Z" fill="#FFFFFF"/>
        </g>
        <g id="Graphic_142">
          <path d="M 165.09005 228.0991 C 165.5993 228.48639 165.9354 228.93946 165.79543 229.07462 C 165.68986 229.21037 164.9079 228.68072 164.09575 227.90973 C 163.283 227.17314 162.3001 226.33037 161.85663 226.11623 C 161.44815 225.8683 161.17843 225.554 161.3196 225.35005 C 161.42576 225.1799 162.10756 225.5358 162.81894 226.16743 C 163.56472 226.79965 164.5814 227.6774 165.09005 228.0991 Z" fill="#FFFFFF"/>
        </g>
        <g id="Graphic_141">
          <path d="M 200.15198 227.6447 C 202.3639 229.0249 204.81597 230.44373 210.98412 233.78503 C 213.19846 235.0277 215.78688 236.5177 216.77338 237.15412 C 217.7249 237.82434 219.6665 238.92464 221.0639 239.67144 C 222.46187 240.38385 223.85805 241.19943 224.12897 241.44496 C 224.39988 241.6905 225.0135 242.0108 225.45817 242.15617 C 225.90283 242.30153 227.0619 242.90657 228.0152 243.47362 C 230.05698 244.74767 236.2951 248.0214 248.50165 254.25453 C 257.91283 259.02845 258.21934 259.2058 263.50115 262.08443 C 265.3752 263.11475 269.6693 265.42573 273.0433 267.23904 C 279.6549 270.7945 283.40297 272.85513 283.946 273.27742 C 284.42086 273.6641 286.70218 275.01114 288.88272 276.21882 C 289.9048 276.78707 290.9939 277.45968 291.2648 277.7052 C 291.53572 277.95075 292.45525 278.4828 293.3078 278.9105 C 294.16093 279.3038 296.13754 280.3703 297.73826 281.29265 C 299.33958 282.1806 302.67857 284.0277 305.2006 285.37895 C 307.72326 286.6958 309.937 287.97285 310.13973 288.1828 C 310.30868 288.35774 310.75275 288.5375 311.09665 288.5435 C 312.2315 288.5633 318.15833 291.9348 317.73905 292.3059 C 317.5641 292.47483 314.04175 291.27814 310.4886 289.8745 C 305.8772 288.0052 305.5013 287.86103 301.4365 286.20766 C 299.28495 285.3101 297.1322 284.4813 296.65314 284.33534 C 295.93455 284.1164 294.53417 283.54155 291.01842 281.96656 C 289.0382 281.1064 287.4327 280.45916 286.0649 279.98808 C 285.21055 279.66356 282.9908 278.7304 281.11378 277.87203 C 279.23614 277.04805 274.86545 275.18294 271.3817 273.7461 C 267.89733 272.34368 264.17524 270.7651 263.11695 270.2994 C 261.17174 269.40545 258.9502 268.57546 255.18952 267.237 C 254.06126 266.8389 253.00237 266.40762 252.79903 266.23207 C 252.5951 266.0909 249.72735 264.83684 246.44813 263.5068 C 243.1689 262.17673 239.8565 260.7773 239.10592 260.4202 C 238.35535 260.0631 236.75043 259.38147 235.5208 258.8784 C 232.8214 257.83367 228.75601 256.2147 225.1015 254.70608 C 223.59855 254.09504 221.68533 253.33924 220.83098 253.01472 C 219.97603 252.7246 218.4399 252.04418 217.416 251.5791 C 216.3927 251.07963 214.30933 250.21766 212.80638 249.60662 C 208.3983 247.91286 200.57223 244.95542 199.81925 244.73587 C 199.44276 244.6261 198.89793 244.307 198.59322 244.02647 C 198.11896 243.60538 197.9808 243.63737 197.52173 244.31737 C 196.9215 245.2013 196.69174 246.5389 195.8267 254.7111 C 195.49574 257.90456 195.1292 261.1662 195.04722 261.92157 C 194.93085 262.67635 194.77485 265.70086 194.65505 268.6228 C 194.56963 271.54534 194.38705 274.1222 194.2459 274.32612 C 194.10533 274.49567 193.87636 277.7597 193.70716 281.5408 C 193.57295 285.2881 193.27099 288.79167 193.05624 289.26953 C 192.8753 289.78237 192.60335 291.56645 192.43697 293.21476 C 192.3044 294.89807 191.94146 297.95337 191.62972 300.04635 C 191.31858 302.10494 190.87246 305.9844 190.6199 308.62882 C 190.36734 311.27324 189.92182 315.1183 189.61009 317.2113 C 189.29895 319.2699 188.93241 322.53152 188.79623 324.42117 C 188.62565 326.3102 188.3701 329.1266 188.20492 330.7061 C 188.00596 332.25066 187.78196 337.2004 187.66953 341.6705 C 187.5523 346.4157 187.31072 350.40193 187.09058 351.1893 C 186.87043 351.97666 186.66907 353.65877 186.64566 354.99997 C 186.631 359.78137 184.48453 382.24176 183.95427 383.0581 C 183.42462 383.84007 183.00096 382.49106 182.976 379.9794 C 182.96742 378.50003 182.87789 375.74644 182.77334 373.8526 C 182.70319 371.95935 182.58286 368.9988 182.5435 367.3125 C 182.53912 365.5924 182.4116 363.04456 182.29924 361.5978 C 182.1579 359.8409 182.2109 358.7754 182.49503 358.26436 C 182.84973 357.65134 182.78516 357.4094 182.17694 356.7796 C 181.56873 356.14977 181.53794 355.94283 181.89385 355.26103 C 182.14238 354.81817 182.25395 354.3385 182.15378 354.16476 C 182.05362 353.991 181.9393 350.68657 181.86896 346.8325 C 181.79228 339.4007 181.68697 335.5804 181.4663 330.4853 C 181.2952 326.49186 181.1818 313.28013 181.29423 308.81004 C 181.32725 306.9186 181.23711 304.1994 181.08977 302.7864 C 180.90805 301.37282 180.92356 292.601 181.05064 283.3495 C 181.17833 274.06363 181.24761 266.15275 181.15225 265.70388 C 181.0237 265.18563 180.75277 264.9401 180.13375 264.9293 C 179.10206 264.9113 179.25402 264.08833 180.28812 263.96878 C 180.94333 263.877 181.0519 263.5693 181.31707 260.2027 C 181.49005 258.1761 181.56628 253.80857 181.48635 250.50474 C 181.40642 247.2009 181.35547 244.20718 181.36147 243.86329 C 181.41447 242.7978 182.7139 241.27246 191.16095 232.3038 C 194.49102 228.7499 197.21606 226.35503 197.90385 226.36703 C 198.00702 226.36883 199.02912 226.93708 200.15198 227.6447 Z" fill="#FFFFFF"/>
        </g>
        <g id="Graphic_140">
          <path d="M 164.30346 229.80538 C 165.05163 230.30005 166.27286 231.28457 167.05182 231.98618 C 167.7964 232.68718 169.62884 234.12958 171.0896 235.1871 C 174.52036 237.6894 176.79027 239.68985 177.08657 240.45183 C 177.21813 240.79813 177.45225 241.18062 177.6562 241.32178 C 177.92891 241.46414 177.9241 241.73926 177.67558 242.18213 C 177.1791 243.03347 177.2105 243.20602 177.8639 243.21743 C 178.2422 243.22403 178.34176 243.43217 178.1614 243.91063 C 177.98106 244.3891 178.08062 244.59723 178.45891 244.60383 C 179.14671 244.61584 179.1437 244.78779 178.39991 246.01322 C 177.86966 246.82957 177.86546 247.0703 178.23954 247.31763 C 178.57924 247.56436 178.61003 247.7713 178.29031 248.35053 C 178.07737 248.72522 177.9616 249.4456 178.09075 249.92946 C 178.2501 250.65465 178.38645 250.72583 178.9421 250.42593 C 179.77466 250.02766 179.79764 250.68167 179.05865 251.63198 C 178.35464 252.5485 178.38183 252.96178 179.18 252.5629 C 180.2213 252.03068 180.28107 252.54773 179.36052 254.04527 C 178.7235 255.06617 178.57693 255.5796 178.84725 255.85954 C 179.08378 256.10447 179.07477 256.6203 178.81784 257.54464 C 178.1622 259.63162 177.77723 265.92017 178.29308 265.92918 C 178.5338 265.93338 178.42344 266.34426 177.96376 267.05864 C 177.32734 268.04514 177.28754 268.35405 177.65263 269.11723 C 177.84996 269.63668 178.25664 269.9878 178.49917 269.88882 C 179.19177 269.6257 178.93303 270.6532 178.02028 271.70368 C 177.03756 272.82174 176.8886 273.47275 177.61078 273.48535 C 177.95468 273.49135 178.01686 273.87084 177.85889 275.0377 C 177.69672 276.4453 177.7287 276.58344 178.4165 276.59545 C 179.31064 276.61106 179.30764 276.783 178.3913 278.03983 C 177.75727 278.88877 177.6457 279.36843 177.78823 281.05653 C 177.89517 282.81282 177.85598 283.08734 177.26895 283.2147 C 176.57815 283.37464 176.39 284.30016 176.92523 285.1695 C 177.15875 285.5864 177.3307 285.5894 177.92554 285.01498 C 178.97284 284.13885 179.20457 284.6589 178.42338 286.05568 C 177.85453 287.11216 177.81654 287.3179 178.22441 287.60022 C 178.6329 287.84815 178.66368 288.0551 178.30657 288.80567 C 177.73593 289.96532 177.73593 289.96532 178.59928 289.774 C 179.32507 289.58026 179.32447 289.61465 178.40392 291.1122 C 177.87306 291.96294 177.47376 293.15998 177.46176 293.84778 C 177.44975 294.53558 177.19642 295.25356 176.9171 295.4895 C 176.63777 295.72542 176.38984 296.1339 176.38444 296.4434 C 176.37723 296.8561 176.61976 296.7571 177.35396 296.08192 C 178.57801 294.93368 178.88752 294.93908 178.45504 296.06674 C 177.95257 297.262 178.01594 297.5727 178.60417 297.37656 C 179.36615 297.08026 179.25578 297.49114 178.05651 299.19022 C 177.06838 300.6178 177.0316 300.75475 177.54024 301.17643 C 177.84614 301.38817 178.0115 301.76946 177.87033 301.9734 C 177.51622 302.55203 178.17083 302.49465 178.69749 301.88464 C 178.94302 301.61372 179.25493 301.48157 179.42568 301.55335 C 179.76538 301.80008 179.43966 302.7232 178.66747 303.60414 C 177.75533 304.62023 176.82817 306.49606 177.24085 306.50327 C 177.4128 306.50627 177.58715 306.3717 177.59016 306.19976 C 177.59316 306.0278 177.83809 305.7913 178.1494 305.6935 C 178.59947 305.52937 178.66585 305.66813 178.4813 306.3873 C 178.29914 306.96894 178.36011 307.4172 178.59844 307.55897 C 178.87056 307.73573 178.75839 308.24977 178.22453 309.27247 L 177.44214 310.73803 L 178.16793 310.5443 C 179.06567 310.35356 179.06567 310.35356 178.1765 312.02366 C 177.32294 313.62558 177.23435 314.75925 177.95653 314.77185 C 178.54116 314.78206 178.59914 315.40228 178.10447 316.15045 C 177.92712 316.45696 177.92112 316.80086 178.15705 317.08018 C 178.42616 317.42888 178.38337 317.90974 178.05645 318.90164 C 177.76572 319.79098 177.68614 320.4088 177.92207 320.6881 C 178.08981 320.93185 178.20516 322.20668 178.14736 323.5473 C 178.07035 325.98836 178.72273 328.02937 179.8124 328.6676 C 180.22088 328.91553 180.1835 329.0869 179.68883 329.83506 C 179.33652 330.3105 178.97162 331.50816 178.81725 332.46867 C 178.66288 333.4292 178.43433 334.698 178.28657 335.28024 C 178.06402 336.20517 178.1298 336.3783 178.7802 336.56167 C 179.19108 336.67205 179.42761 336.91698 179.28645 337.1209 C 179.17968 337.32546 179.17368 337.66935 179.30703 337.9125 C 179.47478 338.1562 179.51655 339.70496 179.41835 341.38887 C 179.31596 343.3135 179.4313 344.58833 179.66664 344.90204 C 179.97014 345.25134 179.96474 345.56085 179.64503 346.14008 C 179.3615 346.61673 179.3211 346.96003 179.55944 347.1018 C 179.86535 347.31354 180.262 350.2101 180.19999 351.79143 C 180.05978 355.88263 180.07796 356.81175 180.48283 357.26603 C 180.71816 357.57974 180.81353 358.0286 180.70555 358.30193 C 180.59818 358.54085 180.70093 360.53787 180.97322 362.67545 C 181.21052 364.8468 181.42801 368.15305 181.46378 370.0457 C 181.49954 371.93834 181.76043 374.72932 182.00913 376.2473 C 182.57293 379.42196 182.6099 381.24582 182.12843 381.2374 C 181.95648 381.2344 181.78634 381.12825 181.78934 380.9563 C 181.76815 380.1991 180.8433 374.0597 180.27591 371.09137 C 179.89565 369.2271 179.62155 367.1927 179.63176 366.60808 C 179.64196 366.02345 179.42585 364.60926 179.17054 363.4696 C 178.88084 362.3293 178.53316 360.56883 178.4142 359.50034 C 178.13892 357.5347 177.01373 351.0478 176.50551 348.6309 C 176.34677 347.87133 176.13185 346.38836 176.0467 345.35486 C 175.84258 343.25287 174.23181 331.08142 173.7332 328.1143 C 172.77096 322.14622 171.91489 316.008 171.47047 311.9066 C 171.20539 309.35635 170.9047 306.87427 170.84433 306.3916 C 170.81834 305.90956 170.64622 303.94573 170.4741 301.9819 C 170.30137 300.05247 170.09126 298.29438 169.99049 298.15502 C 169.89032 297.98127 169.7128 296.32695 169.57386 294.4325 C 169.17764 289.54073 168.42594 283.33554 167.88934 280.57414 C 167.63763 279.22814 167.52288 277.91892 167.63085 277.6456 C 167.73882 277.37228 167.5565 275.99308 167.20222 274.6109 C 166.81355 273.2281 166.31674 270.15778 166.04865 267.77947 C 165.78056 265.40117 165.35012 262.46962 165.06222 261.22618 C 164.80871 259.98334 164.46524 257.98212 164.34929 256.7417 C 164.19895 255.50065 163.89167 253.39686 163.60497 252.08464 C 163.31887 250.73803 163.10696 249.0831 163.11896 248.39532 C 163.14657 246.81338 162.65534 245.3944 161.97174 245.14165 C 161.69902 244.9993 158.44176 246.35285 154.62645 248.14388 C 148.2091 251.1967 144.98562 252.58525 140.30997 254.39566 C 139.27047 254.82472 137.53777 255.55128 136.46328 256.01413 C 135.38818 256.51137 134.2805 256.90484 134.00538 256.90004 C 133.73027 256.89524 133.10644 257.15955 132.65337 257.49565 C 131.8522 258.06647 127.13615 260.22017 126.68909 260.21237 C 126.58592 260.21057 125.51202 260.63903 124.29877 261.16826 C 123.08492 261.73188 120.48587 262.82172 118.47625 263.64665 C 116.46663 264.4716 113.69382 265.6616 112.30682 266.291 C 110.91922 266.9548 109.70597 267.484 109.6028 267.4822 C 109.39646 267.4786 102.9833 270.2907 97.054 272.97364 C 95.28571 273.76838 93.79494 274.43037 93.69177 274.42857 C 93.62299 274.42737 91.92468 275.15453 89.91326 276.08263 C 87.90244 276.97634 86.16913 277.7373 86.03157 277.7349 C 85.9284 277.7331 82.4612 279.2894 78.368375 281.21318 C 74.27555 283.13696 70.842735 284.69386 70.773955 284.69265 C 70.60201 284.68965 63.97891 287.70448 60.23238 289.4967 C 58.98354 290.0941 57.59714 290.68912 57.14767 290.81888 C 56.66381 290.94803 54.54982 291.83995 52.434025 292.83503 C 50.31883 293.7957 48.13606 294.68643 47.54903 294.81378 C 46.99639 294.94174 46.30319 295.23924 46.02387 295.47517 C 45.74455 295.7111 45.050147 296.07738 44.496307 296.2741 C 43.596166 296.6024 43.527987 296.5668 43.94907 296.09256 C 44.22959 295.78785 44.926394 295.284 45.550814 294.9853 C 46.175235 294.6866 47.98452 293.51417 49.551875 292.4063 C 52.337884 290.45972 54.21655 289.2541 60.925835 285.24316 C 66.03638 282.16753 69.441405 280.23175 71.10653 279.4352 C 71.97348 279.03753 73.43226 278.23738 74.40478 277.70395 C 75.34352 277.13553 76.59416 276.43495 77.1498 276.13505 C 77.73983 275.83574 79.82363 274.7025 81.83806 273.60245 C 83.85248 272.5024 86.35257 271.17003 87.39387 270.6378 C 89.96273 269.30662 95.06967 266.43733 99.9003 263.632 C 102.09027 262.32863 105.1484 260.55878 106.67716 259.69106 C 109.94403 257.78726 111.36902 256.95212 113.28147 255.7815 C 114.04646 255.31324 116.75468 253.8813 119.28916 252.54952 C 121.85802 251.21834 125.99124 248.95126 128.49312 247.51572 C 132.21126 245.379 133.25136 244.91554 134.03933 245.1013 C 134.86169 245.28765 135.00045 245.22128 134.90688 244.66924 C 134.8477 244.1178 134.98647 244.05142 135.94818 244.137 C 136.87491 244.25638 137.04866 244.1562 137.05947 243.5372 C 137.07087 242.8838 137.20963 242.8174 138.03139 243.03816 C 138.78496 243.2233 138.88873 243.19072 138.55084 242.84082 C 137.43638 241.65175 138.88436 241.47063 140.0682 242.6265 C 140.50806 243.04699 140.95153 243.26113 141.09149 243.12597 C 141.23085 243.0252 140.99612 242.6771 140.58885 242.3604 C 140.18097 242.07807 139.84547 241.5906 139.85088 241.2811 C 139.85988 240.76525 140.20378 240.77125 141.74112 241.3829 C 142.28716 241.63322 142.35654 241.60003 142.01984 241.18135 C 141.27707 240.37718 141.49482 239.72737 142.45473 239.91613 C 142.93439 240.0277 143.31388 239.96553 143.31748 239.7592 C 143.32769 239.17456 144.44617 238.16207 145.09958 238.17347 C 145.40909 238.17888 145.75659 237.97854 145.86396 237.7396 C 145.97253 237.4319 146.24765 237.4367 147.102 237.76122 C 148.0927 238.15692 148.16208 238.12373 147.99974 237.5705 C 147.86998 237.12102 148.04673 236.8489 148.59997 236.68656 C 149.04944 236.5568 149.5665 236.49703 149.73784 236.53442 C 150.9017 236.86434 152.03836 236.78097 152.21692 236.4057 C 152.2905 236.13177 152.6018 236.034 152.87513 236.14197 C 153.14844 236.24994 153.56292 236.15398 153.84165 235.95244 C 154.08598 235.7503 154.56864 235.68993 154.91073 235.7991 C 155.3886 236.01384 155.45917 235.91187 155.26424 235.25486 C 155.00413 234.39031 155.14108 234.4271 156.90715 235.73075 C 158.3679 236.78826 158.34252 236.2718 156.7918 234.45592 C 155.20729 232.60504 155.2175 232.0204 156.77602 233.38923 C 157.31785 233.8803 158.171 234.2736 158.68685 234.2826 C 159.30587 234.2934 159.5098 234.43456 159.36624 234.77606 C 159.1141 235.42527 160.4427 236.17086 161.41043 235.91255 C 161.79052 235.816 162.64846 235.93416 163.2295 236.1507 C 164.59608 236.69057 164.94538 236.38706 164.41616 235.1738 C 164.08486 234.44562 164.12345 234.2055 164.47155 233.97076 C 164.95842 233.66966 163.94533 232.58556 161.93913 231.24333 C 161.32672 230.85423 161.12578 230.54112 161.33512 230.37278 C 161.54326 230.2732 162.26185 230.49215 162.94244 230.91684 C 164.50697 231.94176 164.92745 231.5019 163.50229 230.3762 C 162.485 229.53284 162.11871 228.83844 162.70334 228.84864 C 162.8409 228.85104 163.55589 229.27633 164.30346 229.80538 Z" fill="#FFFFFF"/>
        </g>
        <g id="Graphic_139">
          <path d="M 201.32057 247.4109 C 201.97158 247.55987 202.8953 247.8512 203.37316 248.06594 C 203.85102 248.2807 206.44965 249.18606 209.18523 250.12822 C 211.92142 251.036 214.45186 251.90576 214.82715 252.08432 C 215.20244 252.26287 216.43327 252.69716 217.56214 253.06087 C 218.691 253.42458 219.6823 253.78588 219.78368 253.89085 C 220.18795 254.3795 221.51895 254.98755 222.13797 254.99836 C 222.51626 255.00496 222.89215 255.14913 222.99232 255.32288 C 223.12687 255.49723 223.81047 255.74996 224.56465 255.90073 C 225.31882 256.0515 226.00242 256.30423 226.13698 256.47858 C 226.23715 256.65233 226.61303 256.7965 226.99132 256.8031 C 227.33522 256.8091 227.64233 256.95206 227.63993 257.08962 C 227.63753 257.22718 228.66202 257.65787 229.96284 258.02458 C 231.22986 258.3563 233.34763 259.21887 234.71182 259.8963 C 236.04162 260.5731 237.37382 261.11237 237.68333 261.11777 C 237.95845 261.12257 238.26556 261.26553 238.36573 261.4393 C 238.4659 261.61304 239.25266 261.86757 240.07622 261.98515 C 240.89918 262.1371 241.7873 262.49662 241.98945 262.74095 C 242.22538 263.02027 242.63385 263.2682 242.87458 263.2724 C 243.1497 263.2772 244.00405 263.60173 244.8234 263.96003 C 245.60837 264.31774 246.5303 264.71223 246.8718 264.8558 C 247.8293 265.1821 247.54638 265.62438 245.7377 266.76242 C 243.9646 267.8323 242.9505 268.7778 243.50073 268.7874 C 243.70706 268.791 244.54023 268.35834 245.3758 267.78812 C 247.28944 266.5487 247.97844 266.49193 246.47747 267.73855 C 240.6491 272.52167 240.50975 272.62243 239.3139 272.15436 C 238.73408 271.86903 238.0179 271.51253 237.74638 271.3014 C 237.50925 271.09084 237.0308 270.9105 236.75568 270.9057 C 235.58642 270.88528 236.11907 269.93137 238.78073 267.2258 C 240.3559 265.67087 241.51537 264.2807 241.3802 264.14073 C 241.24505 264.00077 240.09398 264.9095 238.79934 266.1597 C 236.7699 268.1195 233.9549 269.756 233.96812 268.9994 C 233.97052 268.86185 235.23137 267.57664 236.77033 266.1243 C 238.3093 264.67194 239.46818 263.31615 239.368 263.1424 C 239.23405 262.93366 237.52374 264.34862 235.5293 266.27463 L 231.89092 269.75436 L 230.76325 269.32187 C 230.14844 269.07034 229.2917 268.88338 228.879 268.87618 C 228.50072 268.86958 228.09044 268.7248 227.98968 268.58545 C 227.8889 268.4461 229.22394 266.85258 230.94026 265.0937 C 232.6222 263.33425 233.92223 261.77453 233.82206 261.60078 C 233.7225 261.39264 232.11534 262.8094 230.25906 264.70342 C 227.91172 267.13928 226.65567 268.14936 226.10543 268.13976 C 225.69276 268.13256 225.38565 267.9896 225.45743 267.81884 C 225.5292 267.6481 227.038 265.9544 228.85988 264.0598 C 230.64678 262.19896 232.0174 260.53727 231.88224 260.3973 C 231.78147 260.25794 230.03437 261.80987 228.07311 263.80526 C 224.81663 267.08525 223.66615 267.95958 223.68116 267.09983 C 223.68416 266.92788 225.05238 265.40375 226.69872 263.71246 C 230.51685 259.78867 231.25405 258.94152 230.63503 258.93072 C 230.3943 258.92652 228.54042 260.68298 226.5086 262.78034 C 223.10914 266.36744 221.95986 267.173 221.4922 266.3736 C 221.39204 266.19987 220.67225 266.0497 219.88129 266.0359 C 219.1253 265.9883 218.26856 265.80134 218.03143 265.5908 C 217.76052 265.34527 217.41782 265.2705 217.24407 265.37065 C 216.8272 265.60418 213.7501 264.51846 213.7573 264.10578 C 213.7603 263.93383 214.07222 263.80167 214.4505 263.80827 C 214.86319 263.81548 215.66016 263.4854 216.28638 263.0835 C 216.9132 262.64725 217.43505 262.31235 217.43505 262.31235 C 217.46944 262.31295 217.6136 261.93707 217.75837 261.5268 C 217.97731 260.8082 217.90973 260.73822 217.28711 260.93376 C 216.87263 261.02972 216.56253 261.0587 216.56433 260.95554 C 216.56613 260.85237 217.51386 259.7681 218.67094 258.51548 C 220.9507 256.00965 221.18106 254.63765 218.9031 257.04032 C 213.33185 262.85994 212.0716 264.11075 211.7277 264.10475 C 211.52136 264.10115 211.45618 263.8936 211.56416 263.6203 C 211.67213 263.34697 211.50498 263.06885 211.19667 262.99467 C 210.7508 262.9181 211.59597 261.79763 214.3674 258.71557 C 218.50705 254.10937 219.18807 252.53884 215.19198 256.80354 C 209.7245 262.59057 209.20086 263.02863 207.6533 263.00162 C 206.89673 262.9884 206.17695 262.83825 206.0424 262.6639 C 205.87644 262.317 211.28054 256.21926 212.77971 255.0758 C 213.5471 254.47 213.9084 253.4787 213.32378 253.4685 C 213.18622 253.4661 211.25995 255.4277 209.05077 257.83156 C 205.19345 262.02987 203.79804 263.14073 203.53793 262.27618 C 203.47275 262.06864 203.13185 261.8907 202.75356 261.8841 C 201.9282 261.86968 201.9348 261.4914 202.74078 260.64545 C 203.0563 260.30695 204.4589 258.78342 205.79213 257.29307 C 207.15975 255.80333 208.66613 254.2472 209.22417 253.80974 C 210.09713 253.06817 210.52781 252.04367 209.9088 252.03287 C 209.77124 252.03047 207.7744 254.09403 205.46024 256.59927 C 201.49734 260.93335 200.69497 261.57295 200.2605 260.84296 C 200.16034 260.6692 199.74886 260.59322 199.36877 260.6898 C 198.8849 260.81895 198.68097 260.67778 198.68758 260.2995 C 198.69538 259.85243 198.49024 259.78005 197.79944 259.94 C 196.97048 260.13192 196.9367 260.09693 197.2926 259.41514 C 197.54053 259.00666 198.10638 258.12213 198.59984 257.44273 C 199.69354 255.8794 199.70194 255.39795 198.55387 256.1347 C 198.03262 256.43522 197.68632 256.56678 197.7925 256.39663 C 197.86367 256.26027 198.149 255.68044 198.43312 255.1694 C 198.8958 254.28306 198.8638 254.1449 198.35276 253.86078 C 197.84231 253.54227 197.84411 253.4391 198.48414 252.24625 C 198.9824 251.29174 199.13497 250.4344 199.0944 248.81687 C 199.02425 246.92362 199.09724 246.6841 199.5751 246.89884 C 199.8828 247.0074 200.66957 247.26194 201.32057 247.4109 Z" fill="#FFFFFF"/>
        </g>
        <g id="Graphic_138">
          <path d="M 158.44768 251.92582 C 157.37937 254.0056 156.44681 256.19094 156.29905 256.77317 C 156.0753 257.76688 156.0753 257.76688 156.63695 257.12307 C 156.95306 256.7502 157.94659 255.0131 158.80196 253.30802 C 160.76004 249.52375 161.51902 249.3994 159.7335 253.15228 C 159.02048 254.58465 158.12652 256.52987 157.69823 257.4168 L 156.98162 259.0555 L 157.92713 260.06962 C 158.46776 260.62947 159.18035 261.1923 159.52184 261.33587 C 160.58193 261.69838 160.18983 262.48275 158.73885 262.83582 C 158.01306 263.02956 157.28547 263.32646 157.1793 263.4966 C 157.07253 263.70115 156.58867 263.8303 156.1416 263.8225 C 155.69453 263.8147 154.96994 263.93965 154.51987 264.1038 C 152.54644 264.82616 151.06167 265.14425 150.85834 264.9687 C 150.75757 264.82933 150.83655 264.2459 151.08749 263.66548 C 151.7709 261.9574 151.25266 262.08595 150.46547 263.82662 C 150.00099 264.81613 149.43935 265.45993 148.95549 265.5891 C 148.541 265.68505 147.8834 265.91438 147.5021 266.07972 C 146.32505 266.5064 143.14497 267.3797 142.59473 267.37008 C 142.354 267.36588 141.73078 267.5958 141.24392 267.8969 C 140.79145 268.1986 139.72056 268.45513 138.8946 268.4751 C 138.03425 268.4945 137.13591 268.7196 136.8222 268.95494 C 136.36853 269.32543 136.23157 269.28864 136.06802 268.80418 C 135.87129 268.25033 135.8025 268.24913 135.51838 268.76018 C 135.34103 269.0667 134.99293 269.3014 134.71781 269.2966 C 134.30513 269.2894 134.30873 269.08307 134.59586 268.40007 C 135.13572 267.03348 134.65546 266.9563 134.08121 268.3223 C 133.79469 268.9709 133.33561 269.6509 133.09128 269.85303 C 132.42887 270.35747 128.76073 271.60066 128.55799 271.39072 C 128.45662 271.28575 128.07653 271.3823 127.65965 271.61584 C 126.54657 272.31882 126.48739 271.76738 127.45134 269.75458 C 128.44907 267.77678 128.52325 267.46847 128.11057 267.46126 C 127.97301 267.45886 127.47475 268.41338 126.97288 269.57423 C 125.89376 272.27302 125.64763 272.57833 124.65032 272.56092 C 124.23764 272.55372 123.75378 272.68288 123.64701 272.8874 C 123.54084 273.05756 123.05638 273.2211 122.60931 273.2133 C 122.16224 273.2055 121.67838 273.33466 121.57161 273.5392 C 121.2537 274.01525 120.70466 273.93687 120.71366 273.42102 C 120.71786 273.1803 121.61003 271.33824 122.71213 269.29346 C 123.77925 267.28246 124.63822 265.37103 124.57484 265.06032 C 124.45109 264.26695 122.82173 266.95614 120.96082 271.0861 C 119.81592 273.61175 119.32126 274.35993 118.80481 274.3853 C 118.42652 274.3787 117.56077 274.7076 116.90016 275.10887 C 116.23955 275.51015 115.47697 275.84084 115.20185 275.83604 C 114.54844 275.82463 110.32886 277.127 109.21878 277.65802 C 108.73252 277.92474 108.0755 278.11967 107.766 278.11427 C 107.49088 278.10947 107.10779 278.378 106.89604 278.6839 C 106.64691 279.16115 106.47436 279.19254 106.06829 278.80705 C 105.62722 278.45534 105.45467 278.48673 105.06618 279.06476 C 104.53532 279.9155 104.08705 279.97648 104.09966 279.2543 C 104.11406 278.42893 103.45705 278.62387 102.99318 279.57898 C 102.5287 280.5685 102.01045 280.69704 102.02606 279.8029 C 102.00007 279.32084 101.86131 279.38722 101.16031 280.1318 C 100.21257 281.21606 99.93625 281.28004 99.94886 280.55785 C 99.96326 279.7325 99.30625 279.92743 98.84238 280.88254 C 98.41349 281.80387 97.85965 282.0006 97.87346 281.20963 C 97.88066 280.79695 97.67432 280.79335 96.42788 281.2532 C 95.59772 281.5139 94.6306 281.73784 94.2867 281.73183 C 93.9434 281.69144 93.32018 281.92137 92.9027 282.18928 C 92.52021 282.4234 91.8626 282.65273 91.41553 282.64493 C 91.00285 282.63772 90.55338 282.76748 90.44661 282.97202 C 90.34044 283.14217 89.85598 283.3057 89.37452 283.2973 C 88.89306 283.2889 88.09669 283.5846 87.53925 283.98768 C 87.0168 284.35697 85.94411 284.71665 85.22132 284.73843 C 84.49853 284.7602 83.15072 285.1151 82.24998 285.47778 C 78.92214 286.9333 77.16525 287.07464 77.11748 285.8698 C 77.12288 285.5603 76.87495 285.96876 76.55163 286.75433 C 76.04556 288.1559 75.38195 288.72913 75.39876 287.7662 C 75.41437 286.87208 76.92537 283.08 77.26927 283.086 C 77.44122 283.089 77.5028 283.5029 77.35503 284.08512 C 77.16748 284.97626 77.20007 285.08003 77.82209 284.91888 C 78.20218 284.8223 78.62146 284.45123 78.73063 284.10913 C 78.98337 283.42553 80.42277 281.76504 80.76666 281.77104 C 80.86983 281.77284 81.00019 282.18792 81.05997 282.70497 C 81.14693 283.6353 81.18132 283.6359 82.31001 282.0388 C 83.22636 280.78197 83.67943 280.44587 84.43601 280.45908 C 84.98624 280.46868 85.60886 280.27315 85.82001 280.00163 C 86.03055 279.7645 86.58319 279.63655 87.09724 279.74872 C 87.78323 279.8639 87.99137 279.76433 88.17353 279.1827 C 88.39367 278.39533 88.84374 278.2312 89.07307 278.8888 C 89.17143 279.16572 89.48395 278.99917 89.97621 278.38856 C 90.43228 277.8805 90.92094 277.47624 91.12728 277.47984 C 91.33362 277.48344 91.29563 277.68918 91.0495 277.9945 C 90.80337 278.2998 90.6948 278.6075 90.82995 278.74746 C 90.93132 278.85243 91.06828 278.88922 91.13826 278.82165 C 92.4425 277.0212 93.28347 276.14146 93.69615 276.14866 C 93.93688 276.15286 94.1746 276.329 94.1704 276.56975 C 94.1662 276.81047 94.72244 276.47618 95.38726 275.83418 C 96.82125 274.4832 97.3329 274.73293 96.40995 276.36803 C 96.05404 277.04983 95.8369 277.66525 95.97266 277.77082 C 96.07403 277.8758 96.35395 277.60547 96.56809 277.162 C 97.13574 276.1743 98.7127 274.5162 99.12538 274.5234 C 99.29733 274.5264 99.32211 275.07725 99.20754 275.72886 C 98.75884 277.78505 99.5962 277.11166 101.16279 274.07737 C 101.98197 272.47485 102.76016 271.25002 102.89591 271.3556 C 103.06666 271.42737 102.63057 272.76137 101.94955 274.3319 C 99.76593 279.21304 100.74025 278.57644 103.23699 273.49437 C 104.02238 271.85686 104.80117 270.59764 104.97131 270.7038 C 105.10767 270.775 104.67038 272.17777 103.95437 273.7821 C 103.27275 275.387 102.76728 276.7542 102.86805 276.89357 C 102.96942 276.99854 103.99674 275.29645 105.10064 273.1485 C 107.16549 269.1597 108.46013 267.90947 106.81576 271.4584 C 105.10082 275.10932 106.14032 274.68026 107.99462 270.92858 C 109.49002 268.03065 110.07465 268.04086 108.85437 270.9436 C 107.45554 274.2216 108.00818 274.09365 109.82149 270.71967 C 111.06476 268.47094 111.52323 267.82534 111.68738 268.2754 C 112.01687 269.10677 112.84343 269.0524 113.89133 268.14188 L 114.79868 267.4009 L 114.06148 268.24805 C 112.9388 269.50127 112.67886 270.59754 113.39624 270.88527 C 114.11363 271.173 115.2707 269.92037 115.28931 268.8543 C 115.30072 268.20088 116.88308 266.23328 117.39893 266.24228 C 117.53649 266.24468 117.56428 266.62357 117.4527 267.10323 C 117.26395 268.06314 117.7424 268.2435 118.40962 267.46393 C 119.32236 266.41346 120.13632 267.08127 120.1057 268.83516 C 120.0979 269.28222 119.77758 269.89584 119.39329 270.23314 C 118.97401 270.60422 118.68689 271.28722 118.67608 271.90624 C 118.66047 272.80037 118.72805 272.87035 119.11354 272.46428 C 119.35908 272.19336 120.21145 270.66022 120.96125 269.0909 C 121.95958 267.0787 122.25031 266.18936 121.97699 266.0814 C 121.19082 265.79246 121.54973 264.93872 122.73159 264.23694 C 123.3916 263.87005 123.98704 263.26124 124.09681 262.88475 C 124.38934 261.89225 124.96556 262.3839 124.74061 263.4464 C 124.44028 264.88597 125.30783 264.4539 126.09383 262.782 C 126.48712 261.92886 126.945 261.31765 127.11514 261.42382 C 127.2853 261.53 126.35274 263.71534 125.06908 266.30736 C 123.78602 268.865 122.67732 271.28807 122.56754 271.66456 C 122.23342 273.06914 123.68483 270.72085 126.17976 265.74194 C 127.56899 263.01416 128.84665 260.76604 129.0186 260.76904 C 129.22493 260.77264 129.3257 260.912 129.25392 261.08275 C 129.07297 261.5956 125.96459 268.215 125.00305 270.09025 C 123.86235 272.37517 124.09588 272.79205 125.30355 270.6115 C 126.90272 267.68098 127.29362 266.9654 129.14672 263.2825 C 130.18005 261.23652 131.13559 259.70518 131.30634 259.77696 C 131.4421 259.88253 131.0072 261.14775 130.2936 262.6145 C 127.75947 267.86794 128.41348 267.84496 131.22333 262.56194 C 132.25545 260.58473 133.27977 259.0546 133.41553 259.16017 C 133.58568 259.26634 133.61286 259.67962 133.4687 260.0555 C 133.32334 260.50017 133.38912 260.67332 133.59786 260.53937 C 133.806 260.4398 134.01053 260.54657 134.1101 260.7547 C 134.30744 261.27416 135.07962 260.39323 135.9344 258.72253 C 136.53883 257.59787 137.16385 257.26477 137.14825 258.1589 C 137.13444 258.94988 137.68768 258.78753 138.11717 257.83182 C 138.33191 257.35396 138.78558 256.98348 139.0607 256.98828 C 139.54216 256.99668 139.54036 257.09985 139.0427 258.01998 C 138.72298 258.5992 138.6464 259.04507 138.85273 259.04867 C 139.02468 259.05167 139.58873 258.2703 140.0864 257.3502 C 140.58466 256.39567 141.07933 255.6475 141.1481 255.6487 C 141.25128 255.6505 141.486 255.9986 141.61636 256.41368 C 141.91206 257.21005 141.91206 257.21005 142.30716 256.25374 C 142.5231 255.7071 142.83801 255.403 143.04255 255.50976 C 143.28088 255.65153 143.27608 255.92665 143.02755 256.3695 C 142.56607 257.18707 142.55647 257.7373 143.00354 257.7451 C 143.20987 257.7487 143.66775 257.1375 144.02545 256.35253 C 144.70467 254.88517 146.0271 254.01384 147.4027 254.03785 C 147.88415 254.04626 148.33542 253.81333 148.4434 253.54 C 148.58576 253.2673 148.96825 253.03317 149.34654 253.03977 C 149.93117 253.04998 149.99754 253.18874 149.81239 253.9423 C 149.51806 255.038 150.24205 254.94742 150.84709 253.78837 C 151.06063 253.3793 151.37554 253.0752 151.5463 253.14697 C 151.92218 253.29113 152.02955 253.0522 149.13772 259.0906 C 147.78108 261.92215 146.67177 264.3796 146.66997 264.48278 C 146.65436 265.37692 147.85844 263.4027 150.991 257.36852 C 152.98406 253.55047 154.7232 250.4848 154.85895 250.59036 C 155.16546 250.76772 154.48264 252.44142 152.98844 255.27057 C 152.3846 256.36084 151.9871 257.4547 152.05228 257.66225 C 152.21523 258.1811 153.69982 255.9022 153.71363 255.11122 C 153.71903 254.8017 153.89758 254.42643 154.07134 254.32626 C 154.28008 254.1923 155.09445 252.8649 155.87744 251.36495 C 156.90897 249.42213 157.43682 248.74334 157.67335 248.98827 C 157.94367 249.2682 157.61795 250.19132 156.55204 252.13353 C 155.13082 254.72316 154.90947 255.5793 155.70945 255.07726 C 156.16132 254.80994 157.90285 251.6067 157.91365 250.9877 C 157.92566 250.2999 159.72517 247.71687 160.06606 247.89482 C 160.20182 248.0004 159.4822 249.81105 158.44768 251.92582 Z" fill="#FFFFFF"/>
        </g>
        <g id="Graphic_137">
          <path d="M 162.57637 259.77237 C 162.56977 260.15066 162.73451 260.56634 162.90466 260.6725 C 163.51708 261.0616 163.23475 261.46948 162.16447 261.6916 C 160.78347 261.9771 160.6833 261.80335 161.32813 260.3354 C 161.90178 259.0038 162.59498 258.7063 162.57637 259.77237 Z" fill="#FFFFFF"/>
        </g>
        <g id="Graphic_136">
          <path d="M 216.20962 261.56855 C 216.20782 261.67172 216.03287 261.84067 215.78974 261.97403 C 215.5466 262.1074 215.51282 262.0724 215.65458 261.83407 C 215.90251 261.4256 216.21442 261.29344 216.20962 261.56855 Z" fill="#FFFFFF"/>
        </g>
        <g id="Graphic_135">
          <path d="M 249.77392 266.11047 C 250.66026 266.57314 252.71285 267.22818 253.33186 267.23898 C 253.64137 267.2444 253.94668 267.49052 254.07944 267.76804 C 254.1778 268.04496 254.4831 268.2911 254.79262 268.2965 C 255.06774 268.3013 255.30547 268.47745 255.30187 268.6838 C 255.29827 268.89012 255.60597 268.9987 255.98606 268.90213 C 256.36615 268.80556 256.77763 268.88155 256.8778 269.0553 C 256.97797 269.22905 257.35386 269.3732 257.73215 269.3798 C 258.07604 269.3858 258.38135 269.63195 258.37655 269.90707 C 258.36995 270.28536 258.60887 270.39273 259.1965 270.23098 C 259.64537 270.13562 260.12563 270.2128 260.2252 270.42094 C 260.35916 270.62968 260.76884 270.80883 261.14713 270.81544 C 262.04126 270.83104 261.95808 271.6552 261.01814 272.2924 C 260.56627 272.55972 260.28575 272.86443 260.4209 273.0044 C 260.52228 273.10936 261.1467 272.81065 261.8429 272.3412 C 263.09655 271.46867 263.13093 271.46927 264.15183 272.1063 C 264.73045 272.4604 265.2041 272.91587 265.2005 273.1222 C 265.1963 273.36294 265.67656 273.44013 266.39995 273.38395 C 267.12394 273.2934 267.6036 273.40496 267.5994 273.6457 C 267.5958 273.85203 267.9023 274.0294 268.2806 274.036 C 268.65888 274.0426 268.966 274.18555 268.9624 274.3919 C 268.9594 274.56384 269.33467 274.7424 269.81613 274.7508 C 271.08856 274.773 270.8678 275.59476 269.26787 276.59885 C 268.5029 277.0671 267.87486 277.57215 267.87366 277.64092 C 267.86886 277.91604 268.84198 277.34822 270.26998 276.34114 C 271.41925 275.5356 272.73267 275.1801 272.72307 275.73035 C 272.72127 275.83352 272.47333 276.242 272.12343 276.5799 C 271.45682 277.32506 271.93707 277.40225 272.9126 276.69687 C 273.2613 276.42775 273.85013 276.19723 274.19403 276.20323 C 275.12256 276.21944 274.86682 277.07498 273.82612 277.57282 C 273.2367 277.83774 273.02675 278.04048 273.30007 278.14845 C 273.539 278.25582 274.02285 278.12666 274.33717 277.85695 C 275.10515 277.21674 276.14345 276.85646 276.13685 277.23475 C 276.13024 277.61304 273.16508 279.9693 272.718 279.9615 C 272.54606 279.9585 271.98982 280.2928 271.46737 280.6621 C 270.03817 281.73795 269.87823 281.04715 271.27424 279.9019 C 272.73902 278.75786 272.36253 278.6481 270.3499 279.64497 C 268.89173 280.41073 267.82924 280.18578 268.9779 279.41462 C 270.0578 278.64226 269.61374 278.4625 268.3975 279.1637 C 266.9375 280.0326 266.45605 280.0242 266.47105 279.16446 C 266.48186 278.54544 266.3787 278.54364 265.54673 278.90752 C 264.85353 279.20503 264.6128 279.20082 264.51503 278.8895 C 264.41666 278.6126 264.0052 278.5366 263.34938 278.66277 C 262.17652 278.8487 262.01417 278.29546 263.05727 277.66006 C 264.4135 276.82372 263.7263 276.77732 262.23312 277.57687 C 260.63557 278.4434 259.78003 278.18766 260.72777 277.1034 C 261.11446 276.62853 261.08067 276.59354 260.3199 276.82107 C 259.83603 276.95022 259.31598 277.18195 259.14103 277.3509 C 258.4768 277.9585 257.5531 277.66718 257.5669 276.8762 C 257.5771 276.2916 257.47513 276.221 257.16022 276.5251 C 256.4954 277.1671 255.74123 277.01635 255.96137 276.22898 C 256.14473 275.57857 256.11034 275.57797 255.10403 276.0764 C 253.92397 276.67502 252.93446 276.21055 253.73924 275.4334 C 254.47403 274.7238 254.2037 274.44388 253.29937 275.0129 C 252.8125 275.314 252.43242 275.41057 252.43602 275.20424 C 252.43962 274.9979 252.61637 274.72578 252.79012 274.6256 C 253.34637 274.2913 251.5507 272.71195 250.38566 272.4508 C 249.42574 272.26206 248.93468 272.8039 249.8234 273.129 C 250.13112 273.23758 250.12872 273.37514 249.74263 273.8156 C 249.1448 274.56198 248.66334 274.55358 248.67594 273.8314 C 248.68314 273.4187 248.44422 273.31134 247.75462 273.4025 C 247.20258 273.49607 246.4122 273.44787 246.00133 273.3375 C 245.24836 273.11795 245.4239 272.9146 248.00658 270.79247 C 249.54254 269.51207 250.7328 268.32883 250.63264 268.15508 C 250.49808 267.98073 250.083 268.11108 249.66432 268.44778 C 245.96197 271.6512 244.60395 272.5907 243.7786 272.5763 C 243.29714 272.5679 242.81808 272.42192 242.7179 272.24817 C 242.51697 271.93506 246.04558 268.83182 246.59582 268.84142 C 247.14606 268.85103 248.4877 266.87922 248.1136 266.6319 C 247.67133 266.34897 248.02544 265.77034 248.67885 265.78175 C 248.95397 265.78655 249.43302 265.9325 249.77392 266.11047 Z" fill="#FFFFFF"/>
        </g>
        <g id="Graphic_134">
          <path d="M 250.37683 274.9275 C 250.37503 275.03066 250.30505 275.09824 250.20188 275.09644 C 250.0987 275.09464 250.03113 275.02466 250.03293 274.9215 C 250.03473 274.81832 250.1047 274.75074 250.20788 274.75254 C 250.31105 274.75434 250.37863 274.82432 250.37683 274.9275 Z" fill="#FFFFFF"/>
        </g>
        <g id="Graphic_133">
          <path d="M 278.18763 277.99296 C 278.18403 278.1993 277.9391 278.43582 277.66218 278.5342 C 277.38466 278.66695 277.14033 278.8691 277.13733 279.04104 C 277.13433 279.213 277.6176 279.11822 278.242 278.8195 C 279.14455 278.35366 279.38528 278.35787 279.6882 278.74156 C 279.88972 279.02028 280.74527 279.276 281.57003 279.3248 C 282.56673 279.3766 283.25093 279.59496 283.51945 279.97805 C 283.75477 280.29176 284.09567 280.4697 284.3044 280.33575 C 284.82566 280.03525 284.77506 280.96317 284.2496 281.5044 C 283.86472 281.8761 283.9323 281.94607 284.55432 281.78493 C 285.83155 281.53202 285.78635 282.15044 284.50072 282.8848 C 283.1101 283.72054 282.7656 283.74893 283.05334 283.03154 C 283.2693 282.4849 283.2693 282.4849 281.57277 283.1089 C 281.22587 283.27485 281.1601 283.1017 281.37664 282.52067 C 281.62997 281.8027 281.5618 281.7671 280.8354 281.99522 C 280.38594 282.12498 279.455 282.24633 278.7666 282.2687 C 278.112 282.3261 277.35302 282.45044 277.14428 282.5844 C 276.90115 282.71776 276.66222 282.6104 276.56325 282.36785 C 276.4311 282.05594 275.91705 281.94377 274.91854 281.99514 L 273.47236 282.0731 L 274.69462 281.02802 L 275.91687 279.98294 L 274.113 280.84587 C 271.20023 282.17104 271.87285 281.08197 275.35326 278.7691 C 276.9894 277.66244 278.19904 277.33955 278.18763 277.99296 Z" fill="#FFFFFF"/>
        </g>
        <g id="Graphic_132">
          <path d="M 287.2603 282.45137 C 286.52852 282.989 286.15203 282.87923 286.54053 282.3012 C 286.6473 282.09667 287.0286 281.93132 287.3381 281.93672 C 287.85335 281.9801 287.85275 282.0145 287.2603 282.45137 Z" fill="#FFFFFF"/>
        </g>
        <g id="Graphic_131">
          <path d="M 289.45827 282.66174 C 289.45046 283.1088 286.70245 284.84966 286.43273 284.53535 C 286.09483 284.18545 288.12306 282.29443 288.84525 282.30703 C 289.18915 282.31304 289.46187 282.4554 289.45827 282.66174 Z" fill="#FFFFFF"/>
        </g>
        <g id="Graphic_130">
          <path d="M 292.0243 283.46334 C 292.50216 283.67808 292.87385 284.06297 292.86965 284.3037 C 292.85884 284.92272 290.8812 285.8858 290.6145 285.39955 C 290.48054 285.1908 289.9653 285.1474 289.37886 285.24038 C 288.13602 285.4939 288.13902 285.32194 289.3311 284.03553 C 290.3482 282.91807 290.7283 282.8215 292.0243 283.46334 Z" fill="#FFFFFF"/>
        </g>
        <g id="Graphic_129">
          <path d="M 285.66097 283.42107 C 285.65917 283.52423 285.5186 283.6938 285.31047 283.79335 C 285.13672 283.89352 284.96597 283.82174 284.96897 283.6498 C 284.97257 283.44345 285.14752 283.2745 285.31947 283.2775 C 285.5258 283.2811 285.66217 283.3523 285.66097 283.42107 Z" fill="#FFFFFF"/>
        </g>
        <g id="Graphic_128">
          <path d="M 294.23684 284.80917 C 294.22904 285.25624 294.3986 285.3968 294.7099 285.29903 C 294.9868 285.20067 295.53525 285.31344 295.94433 285.527 C 296.52356 285.8467 296.58933 286.01985 296.23823 286.42652 C 295.6766 287.07033 295.16134 287.02693 294.2822 286.15158 C 293.87613 285.7661 293.3639 285.55074 293.19013 285.6509 C 292.70327 285.952 292.78886 284.9903 293.27872 284.51724 C 293.90855 283.90903 294.25065 284.0182 294.23684 284.80917 Z" fill="#FFFFFF"/>
        </g>
        <g id="Graphic_127">
          <path d="M 297.9873 286.73226 C 297.9855 286.83543 297.84495 287.00498 297.6368 287.10454 C 297.46306 287.2047 297.2923 287.13293 297.2953 286.96098 C 297.2989 286.75464 297.47387 286.5857 297.6458 286.5887 C 297.85216 286.5923 297.9885 286.66348 297.9873 286.73226 Z" fill="#FFFFFF"/>
        </g>
        <g id="Graphic_126">
          <path d="M 78.57309 283.28077 C 78.57129 283.38394 78.50131 283.45152 78.39814 283.44972 C 78.29497 283.44792 78.22739 283.37794 78.22919 283.27477 C 78.23099 283.1716 78.30097 283.10402 78.40414 283.10582 C 78.50731 283.10762 78.57489 283.1776 78.57309 283.28077 Z" fill="#FFFFFF"/>
        </g>
        <g id="Graphic_125">
          <path d="M 301.7516 287.86437 C 301.7498 287.96754 301.6798 288.03512 301.57664 288.03332 C 301.47347 288.03152 301.4059 287.96154 301.4077 287.85837 C 301.4095 287.7552 301.47948 287.68762 301.58265 287.68942 C 301.6858 287.69122 301.7534 287.7612 301.7516 287.86437 Z" fill="#FFFFFF"/>
        </g>
        <g id="Graphic_124">
          <path d="M 75.45879 284.32722 C 75.3714 285.3921 74.39785 287.95515 73.98037 288.22306 C 73.70225 288.3902 72.97766 288.51516 72.35864 288.50436 C 71.25816 288.48515 70.39241 288.81404 68.86005 289.8881 C 68.40698 290.2242 67.57682 290.4849 67.06097 290.4759 C 66.51073 290.4663 65.36986 290.7904 64.50351 291.15368 C 63.63656 291.55135 62.60066 291.77407 62.22417 291.6643 C 61.74511 291.51833 61.29504 291.68248 60.90955 292.08856 C 60.59344 292.46144 59.86465 292.82713 59.24383 292.9195 C 58.62301 293.01186 57.72467 293.23698 57.24021 293.40052 C 56.06315 293.8272 56.02876 293.82658 56.03896 293.24195 C 56.05217 292.48538 57.757684 291.34553 58.82377 291.36414 C 59.33962 291.37315 59.96284 291.14322 60.20837 290.8723 C 60.4539 290.6014 60.973954 290.36966 61.38663 290.37686 C 61.79931 290.38407 62.49131 290.15534 62.90939 289.85304 C 63.431244 289.51814 64.018274 289.3908 64.56611 289.53795 C 65.6274 289.83168 68.46898 288.64287 68.759105 287.78792 C 69.04683 287.07053 69.95898 286.05444 70.337265 286.06105 C 70.474825 286.06345 70.60758 286.34097 70.60218 286.65048 C 70.62877 287.09815 70.94188 286.8972 71.78404 285.9487 C 72.45126 285.16914 73.04249 284.80105 73.17645 285.0098 C 73.276015 285.21793 73.23742 285.45806 73.02868 285.59202 C 72.85493 285.6922 72.67758 285.9987 72.67398 286.20504 C 72.66978 286.44577 72.91291 286.3124 73.22902 285.93952 C 74.25034 284.58133 74.77519 284.0745 75.11909 284.0805 C 75.29104 284.0835 75.46119 284.18966 75.45879 284.32722 Z" fill="#FFFFFF"/>
        </g>
        <g id="Graphic_123">
          <path d="M 53.96416 293.85935 C 53.95876 294.16885 53.64565 294.3698 53.23297 294.3626 C 52.61395 294.3518 52.58076 294.2824 52.932465 293.84134 C 53.178 293.57042 53.49171 293.3351 53.66366 293.3381 C 53.83561 293.3411 53.968965 293.58423 53.96416 293.85935 Z" fill="#FFFFFF"/>
        </g>
        <g id="Graphic_122">
          <path d="M 51.54186 294.67707 C 51.53886 294.84902 51.22635 295.01557 50.81367 295.00837 C 50.43538 295.00176 50.232044 294.8262 50.338215 294.65606 C 50.444987 294.45153 50.791287 294.31997 51.066406 294.32477 C 51.341525 294.32957 51.545464 294.47073 51.54186 294.67707 Z" fill="#FFFFFF"/>
        </g>
        <g id="Graphic_121">
          <path d="M 47.73496 295.98664 C 47.73196 296.1586 47.55701 296.32754 47.35067 296.32394 C 47.17872 296.32093 47.11294 296.1478 47.21911 295.97764 C 47.325884 295.7731 47.500234 295.63854 47.603404 295.64034 C 47.672184 295.64154 47.73856 295.7803 47.73496 295.98664 Z" fill="#FFFFFF"/>
        </g>
        <g id="Graphic_120">
          <path d="M 156.66123 204.4909 C 156.65943 204.59407 156.72701 204.66405 156.83018 204.66585 C 156.93335 204.66765 157.00333 204.60007 157.00513 204.4969 C 157.00693 204.39374 156.93935 204.32376 156.83619 204.32195 C 156.73302 204.32015 156.66303 204.38773 156.66123 204.4909 Z" fill="black"/>
        </g>
        <g id="Graphic_119">
          <path d="M 221.91538 289.42926 C 221.91238 289.6012 222.08313 289.673 222.25688 289.57282 C 222.46502 289.47326 222.60558 289.3037 222.60738 289.20054 C 222.60858 289.13176 222.47222 289.06058 222.26588 289.05698 C 222.09393 289.05397 221.91898 289.22292 221.91538 289.42926 Z" fill="black"/>
        </g>
        <g id="Graphic_118">
          <path d="M 181.1465 200.99665 C 181.1435 201.1686 181.31425 201.24038 181.488 201.14021 C 181.69614 201.04064 181.8367 200.8711 181.8385 200.76793 C 181.8397 200.69915 181.70334 200.62797 181.497 200.62436 C 181.32505 200.62136 181.1501 200.7903 181.1465 200.99665 Z" fill="black"/>
        </g>
        <g id="Graphic_117">
          <path d="M 174.99972 139.27826 C 174.99672 139.45021 175.16567 139.62516 175.33762 139.62817 C 175.54395 139.63177 175.68452 139.46222 175.68752 139.29027 C 175.69112 139.08393 175.55596 138.94397 175.34962 138.94037 C 175.17767 138.93737 175.00332 139.07192 174.99972 139.27826 Z" fill="black"/>
        </g>
        <g id="Graphic_116">
          <path d="M 173.46592 158.1717 C 173.56609 158.34545 173.8382 158.5222 174.01015 158.5252 C 174.2165 158.5288 174.25389 158.35746 174.15372 158.18371 C 174.05415 157.97557 173.78143 157.8332 173.60948 157.8302 C 173.40314 157.8266 173.36635 157.96356 173.46592 158.1717 Z" fill="black"/>
        </g>
        <g id="Graphic_115">
          <path d="M 173.22486 168.0404 C 173.36062 168.14598 173.56696 168.14958 173.70632 168.04881 C 173.81189 167.91305 173.71052 167.80808 173.4698 167.80388 C 173.22906 167.79968 173.1241 167.90105 173.22486 168.0404 Z" fill="black"/>
        </g>
        <g id="Graphic_114">
          <path d="M 170.28166 173.0803 C 170.51698 173.394 170.7897 173.53636 170.85968 173.46878 C 171.10461 173.23226 170.63456 172.57045 170.22188 172.56324 C 170.01554 172.55964 170.01194 172.76598 170.28166 173.0803 Z" fill="black"/>
        </g>
        <g id="Graphic_113">
          <path d="M 167.42328 189.02658 C 167.52345 189.20033 167.79557 189.37708 167.96752 189.38008 C 168.17386 189.38368 168.21125 189.21233 168.11108 189.03858 C 168.01151 188.83044 167.7388 188.68808 167.56685 188.68508 C 167.3605 188.68148 167.32372 188.81844 167.42328 189.02658 Z" fill="black"/>
        </g>
        <g id="Graphic_112">
          <path d="M 170.7055 190.18468 C 170.352 190.72892 170.3478 190.96965 170.71829 191.42332 C 171.76036 192.81752 172.33599 193.34358 172.58032 193.14144 C 172.68589 193.00568 172.48735 192.555 172.08248 192.10074 C 171.10378 191.01724 171.14297 190.74272 172.23624 191.17461 C 174.18326 191.9654 174.36902 191.17744 172.46 190.1809 C 171.16458 189.50469 171.16458 189.50469 170.7055 190.18468 Z" fill="black"/>
        </g>
        <g id="Graphic_111">
          <path d="M 167.8917 191.75239 C 167.8845 192.16506 168.08544 192.47818 168.42934 192.48418 C 168.73885 192.48958 168.915 192.25185 168.85223 191.90675 C 168.69528 191.044 167.90612 190.92703 167.8917 191.75239 Z" fill="black"/>
        </g>
        <g id="Graphic_110">
          <path d="M 170.76863 194.45143 C 171.5132 195.15244 172.46171 195.9946 172.8334 196.3795 C 173.24008 196.7306 173.75052 197.0491 173.99125 197.05331 C 174.4727 197.06172 172.34516 194.78855 170.98578 193.83602 C 169.49063 192.7779 169.34646 193.1538 170.76863 194.45143 Z" fill="black"/>
        </g>
        <g id="Graphic_109">
          <path d="M 174.03387 194.61163 C 174.02667 195.0243 176.16322 196.78162 176.37376 196.5445 C 176.5831 196.37614 174.69268 194.31352 174.3144 194.30692 C 174.17683 194.30452 174.03687 194.43968 174.03387 194.61163 Z" fill="black"/>
        </g>
        <g id="Graphic_108">
          <path d="M 170.73622 196.30849 C 170.83638 196.48224 171.1085 196.659 171.28045 196.662 C 171.4868 196.6656 171.52418 196.49424 171.42401 196.3205 C 171.32445 196.11235 171.05173 195.97 170.87978 195.967 C 170.67344 195.96339 170.63665 196.10035 170.73622 196.30849 Z" fill="black"/>
        </g>
        <g id="Graphic_107">
          <path d="M 166.08818 196.53696 C 166.08517 196.7089 166.25232 196.98703 166.42247 197.0932 C 166.627 197.19997 166.76517 197.16798 166.76877 196.96164 C 166.77177 196.7897 166.63901 196.51217 166.43448 196.4054 C 166.26433 196.29923 166.09178 196.33062 166.08818 196.53696 Z" fill="black"/>
        </g>
        <g id="Graphic_106">
          <path d="M 169.26457 201.78686 C 169.36474 201.9606 169.63686 202.13736 169.80881 202.14037 C 170.01515 202.14397 170.05254 201.97262 169.95237 201.79887 C 169.8528 201.59073 169.58009 201.44837 169.40814 201.44536 C 169.2018 201.44176 169.165 201.57872 169.26457 201.78686 Z" fill="black"/>
        </g>
        <g id="Graphic_105">
          <path d="M 167.36413 202.2697 C 167.59945 202.5834 167.87217 202.72577 167.94215 202.6582 C 168.18708 202.42166 167.71703 201.75985 167.30435 201.75265 C 167.09801 201.74904 167.0944 201.95538 167.36413 202.2697 Z" fill="black"/>
        </g>
        <g id="Graphic_104">
          <path d="M 168.71571 203.6693 C 168.95164 203.94862 169.36011 204.19656 169.63523 204.20136 C 170.0823 204.20916 170.0841 204.106 169.7474 203.6873 C 169.51148 203.408 169.103 203.16006 168.82788 203.15525 C 168.38082 203.14745 168.37902 203.25062 168.71571 203.6693 Z" fill="black"/>
        </g>
        <g id="Graphic_103">
          <path d="M 172.55237 204.59628 C 173.16179 205.15732 173.8068 205.6502 174.01313 205.6538 C 174.42641 205.6266 172.1577 203.55738 171.71063 203.54958 C 171.57307 203.54718 171.94356 204.00085 172.55237 204.59628 Z" fill="black"/>
        </g>
        <g id="Graphic_102">
          <path d="M 165.16867 209.79946 C 165.60733 210.28872 166.049 210.60603 166.11958 210.50406 C 166.36451 210.26754 165.14929 208.9391 164.7366 208.9319 C 164.53027 208.9283 164.73 209.3102 165.16867 209.79946 Z" fill="black"/>
        </g>
        <g id="Graphic_101">
          <path d="M 169.90702 214.25102 C 171.02208 215.4057 171.76965 215.93475 171.87763 215.66143 C 172.05978 215.0798 171.42018 214.27743 169.85505 213.2869 C 167.88265 211.97966 167.91223 212.25537 169.90702 214.25102 Z" fill="black"/>
        </g>
        <g id="Graphic_100">
          <path d="M 167.49493 214.48412 C 167.49192 214.65607 167.66087 214.83102 167.83282 214.83402 C 168.03916 214.83762 168.17972 214.66807 168.18272 214.49612 C 168.18633 214.28978 168.05117 214.14982 167.84483 214.14622 C 167.67288 214.14322 167.49853 214.27778 167.49493 214.48412 Z" fill="black"/>
        </g>
        <g id="Graphic_99">
          <path d="M 173.63168 217.65287 C 173.62868 217.82482 173.86521 218.06975 174.17292 218.17832 C 174.99287 218.50224 175.13163 218.43586 174.65978 217.87722 C 174.18853 217.28418 173.64009 217.1714 173.63168 217.65287 Z" fill="black"/>
        </g>
        <g id="Graphic_98">
          <path d="M 164.84965 218.22198 C 165.18695 218.60628 165.62861 218.9236 165.80056 218.9266 C 166.0069 218.9302 165.87475 218.61828 165.53745 218.234 C 165.20015 217.8497 164.75849 217.53239 164.58654 217.52938 C 164.3802 217.52578 164.51236 217.8377 164.84965 218.22198 Z" fill="black"/>
        </g>
        <g id="Graphic_97">
          <path d="M 173.59207 219.9226 C 173.8274 220.2363 174.10011 220.37867 174.1701 220.3111 C 174.41502 220.07457 173.94497 219.41276 173.5323 219.40555 C 173.32595 219.40195 173.32235 219.6083 173.59207 219.9226 Z" fill="black"/>
        </g>
        <g id="Graphic_96">
          <path d="M 163.9629 219.75452 C 163.9611 219.8577 164.02867 219.92767 164.13184 219.92947 C 164.235 219.93128 164.30499 219.8637 164.3068 219.76053 C 164.3086 219.65736 164.24101 219.58738 164.13784 219.58558 C 164.03467 219.58377 163.9647 219.65135 163.9629 219.75452 Z" fill="black"/>
        </g>
        <g id="Graphic_95">
          <path d="M 164.83962 220.76744 C 165.03636 221.32128 165.99087 221.81955 165.99807 221.40687 C 166.00408 221.06297 165.2607 220.29318 164.9168 220.28718 C 164.77925 220.28478 164.74125 220.49052 164.83962 220.76744 Z" fill="black"/>
        </g>
        <g id="Graphic_94">
          <path d="M 172.53936 221.10824 C 172.53516 221.34897 172.63653 221.45394 172.77589 221.35317 C 172.88146 221.2174 172.88506 221.01107 172.7843 220.8717 C 172.64853 220.76614 172.54356 220.8675 172.53936 221.10824 Z" fill="black"/>
        </g>
        <g id="Graphic_93">
          <path d="M 165.7853 223.74238 C 165.67913 223.91253 165.8137 224.08688 166.08881 224.09168 C 166.39832 224.09708 166.64205 223.92934 166.64505 223.75739 C 166.64865 223.55105 166.5135 223.41109 166.34155 223.40808 C 166.1352 223.40448 165.89208 223.53784 165.7853 223.74238 Z" fill="black"/>
        </g>
        <g id="Graphic_92">
          <path d="M 166.97094 224.79509 C 166.96794 224.96704 167.1369 225.14199 167.30884 225.145 C 167.51518 225.1486 167.65574 224.97904 167.65874 224.8071 C 167.66234 224.60075 167.52718 224.4608 167.32085 224.4572 C 167.1489 224.4542 166.97455 224.58875 166.97094 224.79509 Z" fill="black"/>
        </g>
        <g id="Graphic_91">
          <path d="M 170.23198 225.196 C 170.12581 225.36616 170.19159 225.5393 170.36354 225.5423 C 170.56988 225.5459 170.74483 225.37697 170.74783 225.20502 C 170.75143 224.99868 170.68505 224.85992 170.61627 224.85872 C 170.5131 224.85691 170.33875 224.99147 170.23198 225.196 Z" fill="black"/>
        </g>
        <g id="Graphic_90">
          <path d="M 168.3901 226.26467 C 168.58684 226.81851 170.01501 227.77225 170.02282 227.32518 C 170.03062 226.87812 169.0851 225.864 168.60365 225.8556 C 168.4317 225.8526 168.32553 226.02274 168.3901 226.26467 Z" fill="black"/>
        </g>
        <g id="Graphic_89">
          <path d="M 173.48462 226.0784 C 173.48342 226.14718 173.71994 226.3921 173.99086 226.63764 C 174.43133 227.02373 174.46632 226.98994 174.30277 226.50548 C 174.13923 226.02102 173.49122 225.7001 173.48462 226.0784 Z" fill="black"/>
        </g>
        <g id="Graphic_88">
          <path d="M 172.4265 227.57354 C 172.4193 227.98622 173.0643 228.47909 173.30924 228.24256 C 173.37922 228.17498 173.24646 227.89746 172.94116 227.65133 C 172.63645 227.3708 172.4301 227.3672 172.4265 227.57354 Z" fill="black"/>
        </g>
        <g id="Graphic_87">
          <path d="M 173.16405 230.64805 C 173.2998 230.75362 173.50615 230.75722 173.6455 230.65646 C 173.75108 230.5207 173.64971 230.41573 173.40898 230.41152 C 173.16825 230.40732 173.06328 230.5087 173.16405 230.64805 Z" fill="black"/>
        </g>
        <g id="Graphic_86">
          <path d="M 174.92651 232.15803 C 175.02668 232.33178 175.19563 232.50673 175.2988 232.50853 C 175.36758 232.50973 175.43936 232.33899 175.44236 232.16704 C 175.44596 231.9607 175.27642 231.82014 175.07008 231.81653 C 174.89813 231.81353 174.82695 231.9499 174.92651 232.15803 Z" fill="black"/>
        </g>
        <g id="Graphic_85">
          <path d="M 166.81187 233.9084 C 166.80227 234.45865 167.72119 235.0251 168.0717 234.6528 C 168.31662 234.41628 167.54306 233.40517 167.13038 233.39797 C 166.95843 233.39496 166.81667 233.6333 166.81187 233.9084 Z" fill="black"/>
        </g>
        <g id="Graphic_84">
          <path d="M 206.58395 253.31645 C 206.19846 253.72252 206.0193 254.1322 206.15447 254.27216 C 206.45857 254.58707 207.50888 253.539 207.34593 253.02014 C 207.28136 252.7782 207.00444 252.87658 206.58395 253.31645 Z" fill="black"/>
        </g>
        <g id="Graphic_83">
          <path d="M 221.41853 258.76984 C 221.1404 258.937 221.03304 259.17592 221.1682 259.31588 C 221.30336 259.45584 221.61407 259.39246 221.824 259.18973 C 222.34886 258.68288 222.07914 258.36857 221.41853 258.76984 Z" fill="black"/>
        </g>
        <g id="Graphic_82">
          <path d="M 219.27975 259.11092 C 218.93285 259.27686 218.65233 259.58157 218.64933 259.75352 C 218.63913 260.33815 219.15858 260.1408 219.61825 259.42643 C 220.11352 258.64386 220.07913 258.64326 219.27975 259.11092 Z" fill="black"/>
        </g>
        <g id="Graphic_81">
          <path d="M 208.4013 261.53546 C 208.53707 261.64103 208.7434 261.64463 208.88277 261.54387 C 208.98834 261.4081 208.88697 261.30314 208.64624 261.29893 C 208.40551 261.29473 208.30054 261.3961 208.4013 261.53546 Z" fill="black"/>
        </g>
        <g id="Graphic_80">
          <path d="M 242.04357 267.52355 C 241.69487 267.79267 241.51692 268.13356 241.65207 268.27352 C 241.78723 268.4135 242.16792 268.28253 242.48283 267.97842 C 243.25202 267.26944 242.91412 266.91954 242.04357 267.52355 Z" fill="black"/>
        </g>
        <g id="Graphic_79">
          <path d="M 238.7683 269.9088 C 238.7665 270.01198 238.83408 270.08196 238.93725 270.08376 C 239.04042 270.08556 239.1104 270.01798 239.1122 269.9148 C 239.114 269.81164 239.04642 269.74166 238.94325 269.73986 C 238.84008 269.73806 238.7701 269.80564 238.7683 269.9088 Z" fill="black"/>
        </g>
        <g id="Graphic_78">
          <path d="M 144.63307 257.01674 C 143.80728 258.99755 143.86586 259.58338 144.72003 257.94707 C 145.11152 257.1971 145.40165 256.34215 145.33767 256.06583 C 145.30809 255.7901 144.99137 256.1974 144.63307 257.01674 Z" fill="black"/>
        </g>
        <g id="Graphic_77">
          <path d="M 153.56484 257.72305 C 153.3489 258.2697 153.61681 258.68717 154.0343 258.41926 C 154.45117 258.18573 154.43299 257.2566 154.0547 257.25 C 153.88275 257.247 153.67281 257.44974 153.56484 257.72305 Z" fill="black"/>
        </g>
        <g id="Graphic_76">
          <path d="M 147.31145 259.26512 C 146.21295 261.10357 145.21101 263.3221 145.44814 263.53264 C 145.65028 263.77698 147.31583 260.98522 147.93047 259.27593 C 148.2194 258.48976 148.40275 257.83935 148.33397 257.83815 C 148.2652 257.83695 147.80672 258.48256 147.31145 259.26512 Z" fill="black"/>
        </g>
        <g id="Graphic_75">
          <path d="M 135.75662 261.02425 C 135.15098 262.2177 134.71969 263.27658 134.82046 263.41594 C 135.09078 263.69586 136.04091 262.47403 136.05172 261.855 C 136.05652 261.5799 136.30746 260.99947 136.62477 260.5578 C 136.94208 260.11613 137.12424 259.5345 137.05966 259.29258 C 136.96069 259.05005 136.39664 259.8314 135.75662 261.02425 Z" fill="black"/>
        </g>
        <g id="Graphic_74">
          <path d="M 152.35536 260.00677 C 152.14422 260.2783 151.8595 260.82372 151.74912 261.2346 C 151.38542 262.36347 152.1444 262.2391 152.61127 261.11205 C 153.04316 260.01878 152.88202 259.39676 152.35536 260.00677 Z" fill="black"/>
        </g>
        <g id="Graphic_73">
          <path d="M 136.72991 262.41726 C 135.69779 264.39446 135.29669 265.69468 135.92831 264.9833 C 136.80427 264.06977 138.44383 260.79595 138.17231 260.5848 C 137.96778 260.47804 137.33435 261.2926 136.72991 262.41726 Z" fill="black"/>
        </g>
        <g id="Graphic_72">
          <path d="M 139.02006 261.28762 C 138.91208 261.56094 138.97666 261.80287 139.14861 261.80587 C 139.35495 261.80947 139.49671 261.57114 139.50151 261.29602 C 139.50632 261.0209 139.44174 260.77897 139.37296 260.77777 C 139.30418 260.77657 139.16242 261.0149 139.02006 261.28762 Z" fill="black"/>
        </g>
        <g id="Graphic_71">
          <path d="M 140.76674 261.7309 C 140.62738 261.83168 140.5182 262.17378 140.5128 262.4833 C 140.53939 262.93096 140.60817 262.93216 140.8923 262.4211 C 141.28199 261.7743 141.18722 261.29105 140.76674 261.7309 Z" fill="black"/>
        </g>
        <g id="Graphic_70">
          <path d="M 149.70811 261.88698 C 149.56875 261.98775 149.45958 262.32985 149.45418 262.63936 C 149.48077 263.08703 149.54955 263.08823 149.83367 262.57718 C 150.22336 261.93038 150.1286 261.44712 149.70811 261.88698 Z" fill="black"/>
        </g>
        <g id="Graphic_69">
          <path d="M 139.45049 264.21916 C 139.44629 264.4599 139.54766 264.56486 139.68702 264.4641 C 139.79259 264.32834 139.79619 264.122 139.69542 263.98264 C 139.55966 263.87707 139.4547 263.97843 139.45049 264.21916 Z" fill="black"/>
        </g>
        <g id="Graphic_68">
          <path d="M 140.45217 265.95667 C 140.44797 266.1974 140.54934 266.30237 140.6887 266.2016 C 140.79427 266.06584 140.79787 265.8595 140.6971 265.72014 C 140.56135 265.61457 140.45638 265.71594 140.45217 265.95667 Z" fill="black"/>
        </g>
        <g id="Graphic_67">
          <path d="M 136.52212 266.43847 C 136.37916 266.74558 136.37316 267.08948 136.47452 267.19445 C 136.5415 267.29882 136.71705 267.0955 136.86002 266.78838 C 137.00298 266.48127 137.00898 266.13737 136.90761 266.0324 C 136.84063 265.92803 136.66508 266.13137 136.52212 266.43847 Z" fill="black"/>
        </g>
        <g id="Graphic_66">
          <path d="M 110.74822 270.83904 C 109.3168 274.0133 109.3168 274.0133 110.03898 274.0259 C 110.38288 274.0319 110.79316 274.17667 110.89273 274.3848 C 111.19323 274.90606 112.43307 274.8245 112.44268 274.27426 C 112.44748 273.99914 112.14337 273.68423 111.80187 273.54067 C 110.77558 273.21315 110.62284 272.10967 111.43182 271.09178 C 112.24019 270.10828 112.39276 269.25093 111.84252 269.24133 C 111.63618 269.23773 111.14211 269.9515 110.74822 270.83904 Z" fill="black"/>
        </g>
        <g id="Graphic_65">
          <path d="M 115.04816 270.8453 C 114.94019 271.11862 114.93358 271.4969 115.06754 271.70565 C 115.43502 272.33127 115.92069 272.09894 115.93629 271.2048 C 115.9525 270.27628 115.37207 270.02534 115.04816 270.8453 Z" fill="black"/>
        </g>
        <g id="Graphic_64">
          <path d="M 251.84847 269.4491 C 251.84667 269.5523 251.91425 269.62227 252.01742 269.62407 C 252.1206 269.62587 252.19057 269.5583 252.19237 269.45512 C 252.19417 269.35195 252.1266 269.28197 252.02342 269.28017 C 251.92025 269.27837 251.85027 269.34595 251.84847 269.4491 Z" fill="black"/>
        </g>
        <g id="Graphic_63">
          <path d="M 254.4247 269.6661 C 254.31854 269.83623 253.93725 270.00158 253.59335 269.99558 C 253.24945 269.98957 252.6938 270.28948 252.3433 270.66177 C 251.88784 271.13542 251.84984 271.34116 252.15935 271.34656 C 252.7096 271.35617 254.93576 269.9502 254.94236 269.57192 C 254.94836 269.22802 254.67264 269.2576 254.4247 269.6661 Z" fill="black"/>
        </g>
        <g id="Graphic_62">
          <path d="M 250.80477 270.1189 C 250.80297 270.22207 250.87054 270.29205 250.9737 270.29386 C 251.07688 270.29566 251.14686 270.22808 251.14867 270.1249 C 251.15047 270.02174 251.0829 269.95176 250.97972 269.94996 C 250.87655 269.94816 250.80657 270.01574 250.80477 270.1189 Z" fill="black"/>
        </g>
        <g id="Graphic_61">
          <path d="M 254.22275 271.38258 C 254.21855 271.6233 254.3199 271.72828 254.45928 271.6275 C 254.56485 271.49175 254.56845 271.2854 254.46768 271.14605 C 254.33192 271.04048 254.22695 271.14185 254.22275 271.38258 Z" fill="black"/>
        </g>
        <g id="Graphic_60">
          <path d="M 257.64613 272.33674 C 256.11377 273.4108 255.93882 273.57976 256.76958 273.28466 C 257.66972 272.95636 259.71973 271.78813 259.72273 271.61618 C 259.72873 271.2723 258.7598 271.59938 257.64613 272.33674 Z" fill="black"/>
        </g>
        <g id="Graphic_59">
          <path d="M 264.1538 273.96395 C 263.87568 274.1311 263.7683 274.37003 263.90347 274.51 C 264.03863 274.64995 264.34934 274.58657 264.55928 274.38384 C 265.08413 273.877 264.8144 273.56268 264.1538 273.96395 Z" fill="black"/>
        </g>
        <g id="Graphic_58">
          <path d="M 266.02724 275.02867 C 265.67674 275.40095 265.53377 275.70806 265.70572 275.71106 C 266.119 275.68388 267.2339 274.87773 267.2393 274.56822 C 267.2465 274.15554 266.65826 274.35167 266.02724 275.02867 Z" fill="black"/>
        </g>
        <g id="Graphic_57">
          <path d="M 262.0574 275.81938 C 261.77687 276.1241 261.77327 276.33043 261.9796 276.33403 C 262.3923 276.34123 262.88515 275.69623 262.64862 275.4513 C 262.58104 275.38132 262.30352 275.51407 262.0574 275.81938 Z" fill="black"/>
        </g>
        <g id="Graphic_56">
          <path d="M 267.00534 276.14655 C 266.86358 276.38488 266.89737 276.41987 267.1405 276.2865 C 267.38363 276.15315 267.55858 275.9842 267.56038 275.88104 C 267.56518 275.60592 267.25327 275.73807 267.00534 276.14655 Z" fill="black"/>
        </g>
        <g id="Graphic_55">
          <path d="M 270.37692 278.09742 C 270.51268 278.203 270.71902 278.2066 270.85838 278.10583 C 270.96395 277.97007 270.86258 277.8651 270.62185 277.8609 C 270.38112 277.8567 270.27615 277.95806 270.37692 278.09742 Z" fill="black"/>
        </g>
        <g id="Graphic_54">
          <path d="M 282.74666 280.89337 C 282.6049 281.1317 282.6387 281.1667 282.88182 281.03333 C 283.12495 280.89997 283.2999 280.73102 283.3017 280.62785 C 283.3065 280.35273 282.9946 280.4849 282.74666 280.89337 Z" fill="black"/>
        </g>
      </g>
    </g>
  </g>
</svg>
