<?xml version="1.0" encoding="UTF-8" standalone="no"?>
<!DOCTYPE svg PUBLIC "-//W3C//DTD SVG 1.1//EN" "http://www.w3.org/Graphics/SVG/1.1/DTD/svg11.dtd">
<svg xmlns="http://www.w3.org/2000/svg" xmlns:xl="http://www.w3.org/1999/xlink" version="1.1" xmlns:dc="http://purl.org/dc/elements/1.1/" viewBox="63 85.5 292.5 189" width="292.5" height="189">
  <defs>
    <clipPath id="artboard_clip_path">
      <path d="M 63 85.5 L 355.5 85.5 L 355.5 274.5 L 63 274.5 Z"/>
    </clipPath>
  </defs>
  <g id="Cat,_Domestic,_Couchant_(3)" stroke-opacity="1" fill="none" fill-opacity="1" stroke-dasharray="none" stroke="none">
    <title>Cat, Domestic, Couchant (3)</title>
    <g id="Cat,_Domestic,_Couchant_(3)_Art" clip-path="url(#artboard_clip_path)">
      <title>Art</title>
      <g id="Group_336">
        <g id="Graphic_356">
          <path d="M 136.834 90.0945 C 136.57721 90.33777 136.84752 90.83784 138.0639 92.33804 C 140.6183 95.54118 143.99713 100.92028 146.37583 105.63713 L 146.74074 106.33993 L 145.95685 106.69133 C 144.28095 107.44819 140.6183 109.54306 139.55058 110.35398 C 138.03687 111.47575 135.44192 114.04367 134.72561 115.11138 C 133.25244 117.30086 132.80643 118.88216 132.48207 123.11246 C 132.21176 126.70753 131.77927 128.41047 130.56289 130.72159 C 130.02228 131.73524 128.03552 134.57346 126.30556 136.78997 C 124.65669 138.88485 123.08891 141.68252 123.08891 142.50696 C 123.08891 143.03406 123.48085 143.70982 124.76481 145.37221 L 125.91361 146.88593 L 125.58925 147.60224 C 125.14324 148.61589 125.06215 149.35923 125.30542 150.50804 C 125.57573 151.81902 126.08931 152.84619 126.79211 153.49492 C 127.50842 154.15718 128.23825 154.38694 129.54924 154.37342 L 130.53586 154.3599 L 130.79265 154.87349 C 131.1035 155.48168 131.73872 156.0358 132.48207 156.36018 C 133.0362 156.60345 136.27987 157.29273 139.69925 157.91444 C 141.99686 158.3199 145.14593 159.33355 147.09214 160.27962 C 148.80859 161.13109 149.93036 162.1177 150.66019 163.4422 C 151.16026 164.3207 151.2008 164.4829 151.2008 165.42896 C 151.2008 166.71292 150.8494 167.91578 150.16012 168.92943 C 148.87616 170.8351 146.21364 173.60574 143.76737 175.57898 C 141.8617 177.0927 140.5372 178.21447 139.34785 179.25515 C 138.7667 179.76873 137.87468 180.45801 137.37462 180.78238 C 135.91496 181.74197 131.9009 185.59384 130.29258 187.5806 C 127.72467 190.7567 126.49477 193.01376 125.1973 196.9197 C 123.14297 203.08268 122.44017 207.17783 122.58884 212.20553 C 122.65642 214.89508 123.0754 217.8144 123.71061 219.99036 C 124.45396 222.53124 126.62993 227.38325 128.3734 230.31608 C 130.54937 234.01928 131.23866 234.89777 135.09052 238.8983 L 137.7125 241.64193 L 135.44192 241.66896 C 134.185 241.68247 132.49558 241.72302 131.67115 241.75005 C 128.65723 241.8852 118.26394 241.83114 113.01999 241.66896 C 107.42464 241.49326 97.38275 240.79046 93.50385 240.2904 C 88.66536 239.69572 86.89485 239.5876 83.77281 239.74978 C 80.272335 239.92548 78.90729 240.07415 76.93405 240.49312 C 75.13651 240.88507 74.50129 241.1013 73.379515 241.7095 C 72.91999 241.9663 72.46047 242.18254 72.365865 242.18254 C 72.02798 242.18254 70.55481 242.97994 69.98717 243.48 C 68.90594 244.42608 67.32465 246.4669 66.67591 247.76437 C 65.675776 249.76464 65.040555 252.42716 65.243285 253.80572 C 65.36492 254.63016 65.70281 254.495 67.14895 253.10293 C 68.40587 251.87303 69.94662 250.83235 70.83863 250.6161 C 71.19003 250.535 71.21706 250.54853 71.13597 250.7783 C 70.52778 252.34607 70.09529 254.69774 70.24396 255.69787 C 70.3656 256.5223 70.73051 256.40067 72.01447 255.1167 C 72.947025 254.17064 74.48777 252.9948 74.75808 252.9948 C 74.798625 252.9948 74.67699 253.31917 74.50129 253.6976 C 73.74443 255.3735 73.176785 258.03602 73.352485 259.21186 C 73.47412 260.0363 73.81201 259.90114 75.25815 258.50906 C 76.623195 257.18456 78.042305 256.252 79.19111 255.94115 L 79.83984 255.77896 L 80.56967 256.53582 C 81.97527 257.96845 83.52953 258.48203 86.97594 258.6307 C 88.67887 258.69828 89.03027 258.75234 88.96269 258.901 C 88.50317 260.1309 88.15177 262.96912 88.42208 263.3881 C 88.62481 263.72598 89.04379 263.4692 90.26017 262.29335 C 91.51709 261.06346 93.05784 260.02278 93.94985 259.80653 C 94.30125 259.72544 94.32828 259.73896 94.24719 259.96872 C 93.639 261.5365 93.20651 263.88816 93.35518 264.8883 C 93.47682 265.71273 93.84173 265.5911 95.12569 264.30714 C 96.05824 263.36107 97.59899 262.18523 97.8693 262.18523 C 97.90984 262.18523 97.78821 262.5096 97.61251 262.90154 C 96.85565 264.56393 96.288 267.22645 96.4637 268.4023 C 96.58534 269.22672 96.92323 269.09157 98.36937 267.6995 C 99.73441 266.375 101.15352 265.44243 102.30233 265.13157 L 102.95106 264.9694 L 103.68089 265.72625 C 104.55939 266.61826 105.72171 267.23997 107.07324 267.5238 C 109.6817 268.07792 115.15541 267.8887 118.99376 267.11833 C 121.15622 266.67232 121.50762 266.6453 123.8728 266.6453 C 125.44058 266.6453 126.99484 266.72638 127.90037 266.84802 C 129.56275 267.0913 131.60357 267.02372 133.15783 266.67232 C 134.57694 266.36147 136.15824 266.42905 140.72642 266.98317 C 141.02376 267.02372 143.15918 267.1724 145.45679 267.32106 C 149.67357 267.59136 151.05213 267.74003 157.48543 268.63204 C 162.24283 269.28078 166.05415 269.3754 170.52773 268.9564 C 172.20363 268.80774 175.39325 268.52392 177.60976 268.3347 C 179.82628 268.1455 182.90777 267.83464 184.435 267.65894 C 185.96224 267.46973 188.25984 267.25348 189.51677 267.1724 C 190.78721 267.0913 192.55772 266.94263 193.47676 266.84802 C 195.45 266.61826 199.65327 265.87492 200.09928 265.65867 C 200.6399 265.40188 200.49122 264.8883 199.57218 263.86113 C 198.65314 262.83397 194.67963 257.59002 194.76072 257.50893 C 194.8283 257.44135 198.34228 257.69814 200.4642 257.94142 C 201.50487 258.04954 203.76193 258.3604 205.46486 258.61718 C 207.1813 258.87397 209.10049 259.13077 209.76274 259.1713 C 210.41147 259.21186 210.93857 259.29295 210.93857 259.36053 C 210.93857 259.4146 210.7899 260.0363 210.6007 260.72558 C 210.27632 261.94196 210.12765 263.87465 210.33038 264.19902 C 210.53311 264.5369 210.9521 264.2801 212.16847 263.09076 C 213.4254 261.87438 214.96614 260.8337 215.85815 260.61745 C 216.20955 260.53636 216.23658 260.54988 216.1555 260.77964 C 215.5473 262.3474 215.1148 264.69908 215.26348 265.69922 C 215.38512 266.52365 215.75003 266.402 217.034 265.11806 C 217.96655 264.172 219.5073 262.99615 219.7776 262.99615 C 219.81815 262.99615 219.6965 263.32052 219.5208 263.69895 C 218.76395 265.37485 218.1963 268.03737 218.372 269.2132 C 218.49364 270.03764 218.83153 269.9025 220.27767 268.5104 C 221.64272 267.1859 223.06183 266.25335 224.21063 265.9425 L 224.85937 265.7803 L 225.5892 266.53717 C 226.4677 267.42918 227.63 268.0509 228.98154 268.3347 C 231.59 268.88884 237.0637 268.69962 240.90207 267.92925 C 243.06452 267.48324 243.41592 267.4562 245.7811 267.4562 C 247.34888 267.4562 248.90314 267.5373 249.80867 267.65894 C 251.47106 267.90222 253.51187 267.83464 255.06613 267.48324 C 256.20142 267.23997 258.0395 267.25348 260.4047 267.5373 C 261.33725 267.64543 262.3644 267.76706 262.7023 267.8076 C 263.04018 267.83464 265.10803 267.9833 267.2975 268.13198 C 269.5005 268.26713 271.46023 268.44283 271.64945 268.52392 C 271.85218 268.5915 273.06856 268.6861 274.3525 268.72665 C 275.70405 268.7672 277.40698 268.91587 278.3801 269.06454 C 281.0426 269.49703 285.9892 269.9025 289.6654 269.98358 C 294.5309 270.0917 297.81513 269.67273 301.28857 268.52392 C 303.87 267.65894 305.3702 266.63178 306.54604 264.92884 C 307.53266 263.4692 307.77593 262.67178 307.77593 260.8337 C 307.77593 259.40107 307.7354 259.1713 307.27587 257.88736 C 307.01907 257.11698 306.84337 256.5088 306.89744 256.53582 C 306.965 256.56285 307.89757 257.33323 308.9788 258.2658 C 312.57388 261.33377 314.3714 262.5096 317.57455 263.87465 C 319.0207 264.49635 321.8454 265.2397 323.5213 265.44243 C 324.81877 265.5911 327.19747 265.53703 328.65712 265.30727 C 332.21165 264.73963 333.50913 264.30714 335.4959 263.00967 C 337.07717 261.9825 337.95567 261.2797 340.5371 258.8875 C 343.551 256.11685 345.60535 253.58948 347.5786 250.19713 C 349.93026 246.1966 351.40343 242.00684 352.29544 236.91156 C 353.02527 232.8029 353.53885 224.57206 353.17394 222.95022 C 353.07933 222.4907 352.8901 221.31486 352.782 220.35528 C 352.1738 215.40866 350.63305 209.55653 348.6463 204.63694 C 345.94323 197.96037 341.0777 190.12148 335.9689 184.21528 C 332.09 179.72819 328.94094 177.03863 323.04826 173.18676 C 319.26397 170.71346 314.46602 168.05094 311.6413 166.83456 C 303.91055 163.53682 293.3686 160.9689 280.90745 159.33355 C 277.19073 158.847 276.65012 158.7659 274.1498 158.25232 C 273.05504 158.03608 271.7711 157.81983 271.31156 157.77929 C 269.1491 157.60359 266.1487 157.42789 263.4051 157.30625 C 258.5666 157.09 255.26886 156.644 251.21426 155.63035 C 245.6054 154.22475 240.63176 152.88673 238.40173 152.18394 C 237.00965 151.73793 234.98235 151.10271 233.90112 150.76483 C 230.10331 149.57548 228.64366 148.76456 227.1029 146.9535 C 226.18387 145.87228 225.88653 145.33166 225.6838 144.3045 C 225.427 143.08812 225.7784 141.91228 226.85963 140.31748 C 227.50837 139.35789 228.1571 138.77673 229.04912 138.3172 C 230.0087 137.83065 233.86058 136.5467 235.104 136.2899 C 235.67163 136.16827 236.45552 135.99257 236.82044 135.88445 C 237.78002 135.61414 245.14588 134.12745 247.97058 133.6409 C 255.823 132.27585 259.03964 130.82971 260.35063 128.05907 C 260.97233 126.74808 261.05343 125.81552 260.6885 124.27478 C 259.94517 121.17976 258.2963 119.54441 254.72825 118.40912 C 252.89017 117.82796 251.4981 117.65226 249.25454 117.74687 C 247.21373 117.82796 246.90287 117.89554 242.63203 119.19301 C 241.44268 119.55792 239.56405 120.04448 238.4558 120.27424 C 235.94194 120.80133 234.48228 121.22031 232.8199 121.89608 C 232.1171 122.1799 230.77908 122.707 229.84652 123.0584 C 228.21117 123.6801 223.49432 125.95068 220.95343 127.34276 C 219.1694 128.32937 214.89857 131.55954 213.4254 133.04623 C 211.43864 135.0465 210.12765 137.20895 209.51946 139.46601 C 208.8572 141.97986 209.14103 144.89917 210.6007 150.18367 C 211.2359 152.49479 211.53325 153.25165 212.33065 154.441 C 214.2228 157.30625 219.75057 161.79334 223.67002 163.65845 C 226.71097 165.1046 231.63055 167.02377 238.50985 169.44302 C 243.55107 171.21353 244.91612 171.5379 249.10587 171.97038 C 249.41673 171.99742 250.3628 172.14608 251.21426 172.29475 C 253.16047 172.61912 256.25548 172.94349 259.30995 173.11919 C 260.5939 173.18676 262.7158 173.37598 264.0403 173.51113 C 267.24345 173.87605 269.63566 174.03823 273.9876 174.20041 C 281.7319 174.49775 288.3679 175.18703 293.6524 176.24123 C 297.6124 177.02512 301.89676 178.47126 306.04597 180.39044 C 311.47913 182.9178 317.33127 187.12107 321.5751 191.54059 C 324.21058 194.2842 328.3868 199.67682 330.4141 202.9205 C 331.04934 203.93415 331.94135 205.33974 332.40087 206.04254 C 333.87404 208.25905 334.9688 210.79994 336.15813 214.77344 C 337.2934 218.54422 337.84755 221.54463 338.13137 225.35595 C 338.3341 228.28878 338.05028 233.37054 337.49615 236.2358 C 336.71226 240.41203 333.6578 245.237 330.95473 246.5615 C 329.18422 247.4265 327.98136 247.44 324.8458 246.6426 C 323.5348 246.30472 321.43993 245.4127 320.99393 244.99373 C 320.29113 244.345 319.0342 242.52042 318.45305 241.33107 C 317.6962 239.73626 317.29073 238.31715 316.61496 234.81668 C 316.31762 233.2489 315.80404 230.64044 315.47967 229.0051 C 315.1553 227.36973 314.6958 225.08564 314.47954 223.93684 C 313.96595 221.32838 311.92514 213.84089 311.23586 212.0028 C 309.7897 208.205 306.938 203.31244 304.80256 200.9878 C 303.89703 200.0147 301.3021 197.7306 299.86946 196.67641 C 296.50414 194.17608 290.2871 191.41895 285.94867 190.4999 C 283.4078 189.9593 281.71837 189.75656 278.6504 189.6079 C 274.50118 189.41868 272.9199 189.4322 270.1898 189.72953 C 268.85177 189.8782 266.91908 190.06742 265.89192 190.1485 C 263.4051 190.33772 261.06694 190.68912 257.7692 191.36489 C 252.84962 192.37854 250.2682 193.12188 241.4562 196.09525 C 235.32023 198.1631 230.75205 199.28487 224.15657 200.3661 L 221.886 200.74453 L 220.37228 200.50125 C 217.91248 200.1093 217.29078 199.86603 216.5069 199.00105 C 216.14198 198.58207 215.77706 198.10904 215.69597 197.94685 C 215.61488 197.78467 215.3716 197.25757 215.14184 196.77102 C 214.91208 196.28447 214.3174 195.3384 213.81734 194.67614 C 212.4523 192.8651 207.19483 187.5941 204.31606 185.14783 C 201.4373 182.70156 199.46406 180.7148 197.32863 178.10635 C 194.49041 174.64642 193.58489 173.1327 192.7064 170.37558 C 191.69274 167.21299 191.3954 164.91538 191.53055 161.29327 C 191.6657 157.33328 192.12523 154.37342 193.43622 148.72401 C 194.6526 143.52061 195.04454 141.06082 195.20673 137.64144 C 195.39594 133.65442 194.72017 128.01852 193.62543 124.26126 C 191.90898 118.46318 188.16524 111.43521 183.7187 105.74525 C 181.34 102.67727 178.23147 99.33899 176.20417 97.63605 C 175.02833 96.66295 166.5407 90.43238 166.12173 90.24317 C 165.6622 90.02692 164.58098 90.67566 163.43218 91.83798 C 161.6887 93.59497 159.17485 96.86568 157.8909 99.05516 C 157.60707 99.54172 157.3638 99.94718 157.35028 99.97421 C 157.33676 99.98772 155.64735 99.05516 153.62005 97.89285 C 150.24121 95.96015 143.07809 92.35156 139.23973 90.66214 C 137.87468 90.05395 137.06376 89.86474 136.834 90.0945 Z" fill="black"/>
        </g>
        <g id="Graphic_355">
          <path d="M 165.7433 91.78391 C 165.86494 92.02719 166.25688 92.66241 166.6218 93.20302 C 166.98671 93.74364 167.28405 94.2437 167.28405 94.3248 C 167.28405 94.39237 167.0678 94.45995 166.7975 94.45995 C 166.16228 94.45995 166.31094 94.66268 167.31108 95.13572 C 168.0274 95.4736 168.48691 95.85203 168.50043 96.10882 C 168.50043 96.14937 168.13551 96.16288 167.6895 96.12234 C 167.18944 96.06828 166.87859 96.09531 166.87859 96.1764 C 166.87859 96.3521 168.6491 97.29817 168.95995 97.29817 C 169.16268 97.29817 169.67626 97.91988 169.55462 98.04151 C 169.5276 98.06854 169.01401 98.01448 168.43285 97.90636 C 167.83818 97.81175 167.3246 97.75769 167.28405 97.78472 C 167.12186 97.96042 168.62207 98.75783 170.1493 99.31196 C 170.5007 99.44711 171.08186 100.27154 170.82506 100.27154 C 170.75749 100.27154 170.46015 100.19045 170.17633 100.08233 C 169.47353 99.83905 166.9732 99.42008 166.58125 99.48765 C 166.14876 99.56875 168.23012 100.54185 170.2439 101.21762 C 171.60895 101.66362 172.0009 101.87987 172.01441 102.19072 C 172.01441 102.23127 171.81168 102.21775 171.58192 102.15018 C 171.13592 102.04205 166.33797 100.94731 166.25688 100.94731 C 166.22985 100.94731 166.20282 101.0284 166.20282 101.12301 C 166.20282 101.24465 167.29756 101.69065 169.1762 102.33939 C 170.81155 102.90703 172.29824 103.4071 172.48745 103.46116 C 172.67667 103.50171 172.91994 103.71795 173.04158 103.9342 C 173.27134 104.39372 173.28486 104.3802 172.37933 104.12341 C 171.79817 103.96123 169.9736 103.60983 167.44623 103.17734 C 167.17593 103.12328 167.01374 103.15031 167.0678 103.21789 C 167.1624 103.36656 170.63585 104.70457 172.46042 105.27222 C 173.63625 105.65065 174.46069 106.11017 174.27147 106.3129 C 174.23093 106.33993 173.7579 106.24532 173.20376 106.08314 C 171.69005 105.62362 166.75695 104.44778 166.41907 104.4613 C 166.33797 104.47481 166.4461 104.56942 166.64883 104.67754 C 167.02726 104.88027 171.85223 106.79945 172.3523 106.9346 C 174.67693 107.59685 174.98779 107.73201 175.19052 108.12395 C 175.4473 108.62402 175.42028 108.62402 173.7714 108.11044 C 172.40636 107.69146 167.5138 106.62375 166.9732 106.62375 C 166.70289 106.63727 166.70289 106.65078 166.91913 106.77242 C 167.63545 107.1914 173.46055 109.16463 175.8798 109.79985 C 175.9609 109.82688 176.25823 110.43507 176.54205 111.1649 C 177.1097 112.63807 177.31242 112.90838 177.70437 112.69213 C 178.02874 112.51644 178.02874 112.44886 177.59625 111.09733 C 176.73127 108.35371 171.32513 98.36588 168.27067 93.86528 C 167.73005 93.05436 167.29756 92.37859 167.31108 92.36507 C 167.3381 92.35156 168.3923 93.0949 169.64923 94.01394 C 175.90683 98.59564 177.04212 99.54172 179.44785 102.23127 C 183.7322 107.0157 187.21916 112.12449 189.84114 117.5036 C 192.7199 123.38276 193.9498 128.41047 194.13901 135.07353 C 194.26065 139.1957 193.88222 142.2772 192.57124 147.88606 C 190.89533 155.04919 190.61151 157.15758 190.598 162.17177 C 190.598 165.86145 190.61151 166.09121 190.9629 167.72657 C 191.71977 171.20001 192.8956 173.97065 194.54447 176.18717 C 197.3827 179.98498 200.18037 182.97187 203.5592 185.79657 C 206.16766 187.97254 209.3843 191.08107 210.6007 192.58127 C 211.1278 193.21649 211.88465 194.16256 212.30362 194.67614 C 212.7226 195.20324 213.53352 196.37908 214.11468 197.31163 C 216.04737 200.43368 216.54744 200.82562 219.18293 201.37975 C 221.30483 201.81224 222.5077 201.7717 226.07575 201.12296 C 232.2928 199.98767 235.50945 199.17675 240.53715 197.50085 C 250.7277 194.09498 253.20102 193.37867 258.44497 192.31096 C 261.66162 191.66222 263.35103 191.41895 266.35144 191.16216 C 267.6489 191.05403 269.90597 190.8378 271.3521 190.68912 C 273.64972 190.44584 274.27142 190.41881 276.21763 190.54045 C 277.44753 190.62154 279.24506 190.71615 280.20465 190.7567 C 286.30007 191.05403 293.301 193.4868 298.72066 197.19 C 300.54523 198.4334 303.22127 200.78507 304.3971 202.1366 C 306.3298 204.39367 309.22207 209.47543 310.3168 212.57044 C 311.03313 214.5572 313.00637 221.89602 313.43886 224.13957 C 313.6416 225.18025 314.1011 227.5184 314.46602 229.34297 C 314.83094 231.16754 315.3175 233.65436 315.54725 234.88426 C 316.58793 240.41203 317.57455 242.7637 319.85864 245.19646 C 320.92635 246.31823 321.46696 246.6561 323.23747 247.2508 C 325.34587 247.9536 327.26504 248.30498 328.75173 248.2374 C 329.91405 248.18335 330.07623 248.1428 331.2926 247.5346 C 332.80633 246.79127 333.50913 246.14253 335.0634 244.0882 C 336.8204 241.75005 338.10434 238.76316 338.57738 235.96549 C 339.18557 232.26228 339.33423 225.77492 338.88823 222.65288 C 338.2395 218.20634 337.1718 214.13822 335.604 210.28635 C 334.76605 208.25905 333.2118 205.23162 332.7793 204.81264 C 332.6171 204.66397 332.14408 203.90712 331.7116 203.12323 C 330.69794 201.29866 329.3464 199.33893 327.2245 196.59532 C 323.02123 191.18919 320.29113 188.44558 315.43913 184.78292 C 309.57347 180.3499 301.35615 176.70075 293.9227 175.22758 C 288.75986 174.20041 281.3805 173.403 275.00125 173.18676 C 270.9061 173.05161 267.74352 172.84888 264.59444 172.511 C 262.90503 172.32178 260.47227 172.11905 259.1883 172.03796 C 255.49863 171.83523 252.24143 171.47032 250.2006 171.03783 C 249.68703 170.91619 248.74096 170.79455 248.10574 170.754 C 245.84868 170.59182 243.9295 170.15933 241.0102 169.18623 C 232.44147 166.29394 225.00803 163.33409 222.34551 161.7528 C 219.20996 159.87416 215.58785 156.87376 213.88492 154.75185 C 212.6415 153.19759 212.23604 152.25151 211.35755 148.92674 C 210.6007 146.075 210.38444 144.7505 210.30335 142.70969 C 210.2493 140.8716 210.2628 140.66887 210.6007 139.53359 C 211.15482 137.64144 212.22253 135.87093 213.89843 134.03285 C 214.69584 133.16786 218.87207 129.87012 220.43985 128.86999 C 221.75084 128.03204 227.94086 124.93703 229.52216 124.31532 C 230.3466 124.00447 231.81976 123.42331 232.79287 123.03136 C 234.82017 122.22044 236.22576 121.81498 239.00992 121.23383 C 240.82097 120.8554 243.11858 120.20666 246.61905 119.08489 C 248.0787 118.62537 248.28144 118.58482 249.86273 118.59834 C 251.74136 118.59834 252.8361 118.76052 254.4174 119.2741 C 257.72866 120.35533 259.21534 121.86905 259.7965 124.78836 C 259.98572 125.74795 259.98572 125.92365 259.7965 126.66699 C 259.02613 129.68091 256.1068 131.12705 247.93004 132.57319 C 244.2809 133.20841 237.64487 134.57346 236.3474 134.93837 C 235.71218 135.11407 234.90126 135.33032 234.52283 135.41141 C 232.95505 135.7493 229.71137 136.84403 228.6031 137.39816 C 227.184 138.12799 226.22441 139.11461 225.4135 140.68239 C 224.6161 142.1961 224.41336 143.12866 224.58906 144.27747 C 224.7918 145.52088 225.11616 146.22368 226.04871 147.34545 C 227.73813 149.42681 229.42755 150.44046 233.10372 151.6163 C 239.0775 153.52196 240.68582 154.0085 243.24022 154.67076 C 255.97166 157.98202 255.8365 157.9685 266.21628 158.53614 C 270.97368 158.79294 271.93327 158.88754 274.39306 159.3741 C 275.73108 159.6444 278.4747 160.0769 280.47496 160.3472 C 285.77297 161.05 287.3948 161.30679 291.0845 162.03661 C 300.57226 163.92876 307.0326 165.84794 312.57388 168.41585 C 317.33127 170.63237 325.06204 175.5114 329.18422 178.90375 C 335.80673 184.35043 343.4429 195.02754 347.37586 204.3396 C 349.4572 209.2727 351.49803 216.86832 352.06568 221.81493 C 352.40356 224.7072 351.9981 232.49204 351.2953 236.5061 C 350.34923 241.9663 348.9031 245.95332 346.2541 250.35931 C 344.48358 253.29214 342.6455 255.50866 339.7397 258.1847 C 336.3068 261.34728 334.07677 262.88803 331.83322 263.6449 C 330.46818 264.0909 327.7651 264.40175 325.2107 264.40175 C 323.0077 264.38823 322.832 264.3747 321.0615 263.90168 C 317.15557 262.8745 314.41196 261.4419 310.95204 258.61718 C 310.16815 257.96845 308.6139 256.71152 307.4921 255.79248 C 306.28925 254.81937 304.9242 253.56245 304.16734 252.7245 C 301.20748 249.4538 298.0584 246.87236 297.28803 247.11564 C 296.93664 247.23727 296.96367 247.6968 297.3421 247.84546 C 298.18005 248.18335 301.3967 251.10266 303.14017 253.12996 C 304.735 254.96804 305.6405 256.38715 306.2352 257.98196 C 306.64064 259.04967 306.6812 259.27943 306.6812 260.76612 C 306.6947 262.40148 306.6947 262.40148 306.1676 263.45567 C 305.42426 264.9829 304.316 266.0371 302.68065 266.8345 C 300.65335 267.8076 298.126 268.4293 294.6255 268.80774 C 291.57105 269.14563 282.5293 268.71314 278.78554 268.0509 C 278.15032 267.94276 276.75824 267.7941 275.67702 267.72652 C 274.5958 267.65894 272.7442 267.51027 271.55484 267.38863 C 270.3655 267.2805 267.93273 267.0913 266.1487 266.98317 C 264.36468 266.86154 262.20223 266.68584 261.35076 266.5777 C 260.4993 266.4696 259.0937 266.34795 258.24224 266.32092 C 257.39077 266.2939 256.59337 266.23983 256.48524 266.18577 C 256.3636 266.14522 255.80948 266.2128 255.25535 266.36147 C 253.6335 266.78044 251.70082 266.84802 249.6465 266.5777 C 248.28144 266.402 247.25427 266.36147 245.18643 266.402 C 242.82124 266.4696 242.2671 266.52365 240.60473 266.88857 C 236.6988 267.74003 230.77908 267.84816 228.37335 267.0913 C 227.48134 266.80748 226.02168 265.75328 225.96762 265.3343 C 225.9406 265.17212 226.04871 264.6315 226.2109 264.11792 C 226.5623 262.96912 226.94073 259.80653 226.84612 258.76585 L 226.77854 257.99548 L 227.33267 257.53596 C 228.08953 256.92777 228.54905 256.71152 229.7384 256.37364 C 230.86017 256.0628 233.13075 256.00872 235.13102 256.2385 C 236.38794 256.38715 236.68528 256.3466 236.80692 256.00872 C 237.03668 255.41405 236.22576 255.1978 233.23887 255.07617 C 231.48188 254.99507 230.95478 255.0221 230.06277 255.22483 C 228.56257 255.5492 227.41376 256.10333 226.5758 256.90074 C 226.17035 257.27917 225.73786 257.59002 225.5892 257.59002 C 225.45404 257.59002 224.94046 257.77923 224.46742 257.99548 C 223.99438 258.22524 223.58892 258.38742 223.5754 258.3739 C 223.5619 258.34688 223.58892 257.90087 223.6565 257.3873 C 223.8322 255.8871 223.80517 254.9275 223.58892 254.71125 C 223.41322 254.53555 223.4808 254.4139 224.15657 253.71112 C 225.80544 251.99467 228.83287 250.7107 231.2386 250.6972 C 232.30631 250.6972 235.65812 250.99454 238.71258 251.37296 C 239.90193 251.52163 242.11845 251.73788 243.64568 251.846 C 245.1729 251.96764 247.51106 252.15685 248.84908 252.26498 C 250.1871 252.3731 253.174 252.52177 255.4716 252.58934 C 257.78272 252.65692 261.3913 252.77856 263.51322 252.85965 C 265.63512 252.92723 268.64904 252.9948 270.1898 252.9948 C 272.71716 252.9948 273.028 252.96777 273.1902 252.75153 C 273.2848 252.6299 273.3794 252.48122 273.3794 252.44068 C 273.3794 252.40013 273.00098 252.26498 272.54146 252.14334 C 271.8792 251.98115 270.6358 251.91358 266.82447 251.85952 C 255.1337 251.68382 248.0652 251.33242 247.74082 250.8864 C 247.65973 250.76477 247.21373 249.83222 246.7542 248.80505 C 243.19967 240.72288 241.57783 232.96508 242.02384 226.0993 C 242.28063 222.17985 242.91585 218.89562 243.98356 216.03037 C 245.67298 211.51625 247.64622 209.12403 251.47106 206.9886 C 254.70122 205.17756 258.05302 204.3261 262.90503 204.0693 C 266.86502 203.86657 270.8926 204.245 274.3255 205.137 C 277.6773 206.002 279.83974 206.8805 281.1372 207.90765 C 282.06977 208.62397 282.29953 208.67803 282.29953 208.16445 C 282.29953 207.62383 281.06963 206.50206 279.82622 205.90739 C 277.70432 204.88022 273.8119 203.78548 270.50064 203.2854 C 268.56795 203.0016 261.986 202.96104 259.93165 203.23135 C 254.03897 204.01524 249.1329 206.38042 246.18656 209.84035 C 243.64568 212.84075 241.79408 217.97658 241.14534 223.86926 C 240.88855 226.15335 240.88855 230.6945 241.14534 232.884 C 241.78056 238.31715 243.79435 245.20997 246.07844 249.75113 C 246.3893 250.35931 246.60554 250.89993 246.55147 250.94047 C 246.45687 251.03508 240.95613 250.6161 238.9829 250.3458 C 238.17197 250.23768 236.19873 250.03495 234.60392 249.87276 C 232.0225 249.6295 231.42782 249.61597 228.79233 249.75113 C 225.29186 249.92682 223.9268 250.0755 221.95357 250.49447 C 220.15603 250.8864 219.5208 251.10266 218.39904 251.71085 C 217.93952 251.96764 217.48 252.18388 217.38539 252.18388 C 217.0475 252.18388 215.57433 252.9813 215.0067 253.48136 C 214.03358 254.3193 212.39823 256.38715 211.81707 257.50893 C 211.33052 258.44148 211.24943 258.5361 210.93857 258.4685 C 210.74936 258.42797 208.87073 258.13063 206.74882 257.79275 C 202.09955 257.07644 198.72071 256.6845 196.03116 256.56285 L 194.0309 256.46825 L 193.65246 255.91412 C 193.44973 255.60326 193.09833 255.06265 192.8956 254.69774 L 192.50366 254.0355 L 192.9767 254.1301 C 194.00386 254.33282 200.54528 255.17077 201.69409 255.25187 C 203.66732 255.3735 204.3431 255.1032 204.09981 254.3058 C 204.05927 254.1436 203.24835 253.2516 202.30228 252.31904 C 200.6399 250.68368 196.19334 245.9398 196.26092 245.8587 C 196.31498 245.80465 202.69422 246.23714 203.84302 246.3723 C 206.14063 246.6561 206.88397 246.4804 206.88397 245.6695 C 206.88397 245.0613 206.42445 244.38554 201.47784 237.6549 C 198.85587 234.08685 197.59894 232.28931 196.82857 230.99184 C 196.3285 230.1539 195.92304 229.78898 195.66625 229.95116 C 195.08509 230.30256 196.62584 232.8164 201.55893 239.54705 C 204.8702 244.06117 205.72165 245.29107 205.61353 245.38567 C 205.57299 245.42622 204.37012 245.35864 202.9375 245.25052 C 199.20726 244.92615 195.8014 244.6964 195.34188 244.72342 C 194.81478 244.75045 194.53096 245.0478 194.62557 245.45325 C 194.67963 245.62895 195.20673 246.31823 195.82843 246.994 C 198.95047 250.4404 201.2751 252.88668 201.8833 253.40026 C 202.26173 253.71112 202.55907 254.02197 202.55907 254.08955 C 202.55907 254.15712 202.30228 254.21118 201.9779 254.21118 C 201.23456 254.21118 194.46338 253.3327 192.9902 253.03535 C 190.85479 252.61638 190.6926 253.11644 192.16578 255.5357 C 193.55785 257.79275 196.57177 261.95547 198.31525 264.02332 C 198.72071 264.49635 199.03156 264.8883 199.00453 264.8883 C 198.9775 264.8883 198.13955 265.03697 197.13942 265.22618 C 194.67963 265.6722 192.5307 265.9425 190.598 266.0371 C 188.73288 266.1317 187.17862 266.28038 184.04306 266.6453 C 182.81317 266.79396 180.0155 267.06427 177.826 267.25348 C 175.63652 267.4427 172.83885 267.68597 171.60895 267.8076 C 165.25675 268.38877 163.37812 268.3347 156.20147 267.37512 C 151.05213 266.68584 148.8221 266.4696 144.2404 266.17225 C 142.45638 266.05062 140.29393 265.87492 139.44246 265.7668 C 138.591 265.65867 137.1854 265.53703 136.33394 265.51 C 135.48247 265.48297 134.68506 265.4289 134.57694 265.37485 C 134.4553 265.3343 133.90118 265.40188 133.34705 265.55055 C 131.7252 265.96952 129.79251 266.0371 127.73818 265.7668 C 126.37314 265.5911 125.34597 265.55055 123.27812 265.5911 C 120.91294 265.65867 120.35881 265.71273 118.69643 266.07765 C 114.7905 266.9291 108.87078 267.03724 106.46505 266.28038 C 105.57304 265.99656 104.11338 264.94236 104.05932 264.52338 C 104.03229 264.3612 104.14041 263.8206 104.3026 263.307 C 104.654 262.1582 105.03242 258.9956 104.93782 257.95493 L 104.87024 257.18456 L 105.42437 256.72504 C 106.18123 256.11685 106.64075 255.9006 107.8301 255.56272 C 108.95187 255.25187 111.22245 255.1978 113.22272 255.42756 C 114.47964 255.57623 114.77698 255.5357 114.89862 255.1978 C 115.12838 254.60313 114.31746 254.38688 111.33057 254.26525 C 109.57358 254.18415 109.04648 254.21118 108.15447 254.4139 C 106.65426 254.73828 105.50546 255.2924 104.66751 256.08982 C 104.26205 256.46825 103.82956 256.7791 103.68089 256.7791 C 103.54574 256.7791 103.03216 256.9683 102.55912 257.18456 C 102.08608 257.41432 101.68062 257.5765 101.66711 257.563 C 101.65359 257.53596 101.68062 257.08995 101.7482 256.57637 C 101.9239 255.07617 101.89687 254.11658 101.68062 253.90033 C 101.50492 253.72463 101.5725 253.603 102.24827 252.9002 C 103.89714 251.18375 106.92457 249.8998 109.3303 249.88628 C 110.41153 249.88628 113.77685 250.18362 116.80428 250.56204 C 121.52113 251.1432 131.08999 251.7514 139.49652 251.99467 C 149.4303 252.2785 155.91765 252.14334 160.52638 251.56218 C 161.45894 251.44054 162.58071 251.3054 163.02672 251.25133 C 164.05388 251.1432 164.0674 250.9675 163.0943 250.19713 C 161.47245 248.89966 160.93184 248.35905 160.1885 247.30485 C 158.90454 245.48028 157.29622 242.73667 157.06646 241.99332 C 156.94482 241.6149 156.80966 240.5607 156.7556 239.65517 C 156.70154 238.73613 156.59342 237.9252 156.51233 237.84412 C 155.97171 237.3035 155.62032 239.74978 155.98523 241.50677 C 156.24202 242.70964 156.80966 243.92602 158.05308 245.8587 C 159.64788 248.35905 160.3642 249.31863 161.05348 249.84573 C 161.4319 250.12955 161.72925 250.39986 161.72925 250.4404 C 161.74276 250.54853 160.79669 250.64314 157.75574 250.85938 C 154.66073 251.07563 142.72669 251.07563 136.06363 250.85938 C 130.53586 250.68368 120.39936 249.96737 116.61507 249.48082 C 111.77658 248.88614 110.00607 248.77802 106.88403 248.9402 C 103.38355 249.1159 102.0185 249.26457 100.04527 249.68355 C 98.24773 250.0755 97.61251 250.29174 96.49073 250.89993 C 96.03121 251.15672 95.57169 251.37296 95.47708 251.37296 C 95.1392 251.37296 93.66603 252.17037 93.09839 252.67044 C 92.17934 253.46784 90.57102 255.4681 89.96283 256.57637 L 89.4087 257.59002 L 87.77334 257.59002 C 85.86768 257.5765 84.40803 257.41432 83.35383 257.08995 C 82.46182 256.80613 81.00216 255.75193 80.9481 255.33296 C 80.92107 255.17077 81.02919 254.63016 81.19138 254.11658 C 81.54278 252.96777 81.92121 249.8052 81.8266 248.7645 L 81.75902 247.99413 L 82.31315 247.5346 C 83.07001 246.92642 83.52953 246.71018 84.71888 246.3723 C 85.84065 246.06144 88.11123 246.00738 90.1115 246.23714 C 91.36842 246.3858 91.66576 246.34526 91.7874 246.00738 C 92.01716 245.4127 91.20624 245.19646 88.21935 245.07482 C 86.46236 244.99373 85.93526 245.02076 85.04325 245.2235 C 83.54305 245.54786 82.39424 246.10199 81.55629 246.8994 C 81.15083 247.27782 80.71834 247.58867 80.56967 247.58867 C 80.43452 247.58867 79.92094 247.7779 79.4479 247.99413 C 78.97486 248.2239 78.5694 248.38608 78.55589 248.37256 C 78.54237 248.34553 78.5694 247.89952 78.63698 247.38594 C 78.81268 245.88574 78.78565 244.92615 78.5694 244.7099 C 78.3937 244.5342 78.46128 244.41257 79.13705 243.70977 C 80.78592 241.99332 83.81335 240.70937 86.21908 240.69585 C 87.30031 240.69585 90.66563 240.9932 93.69306 241.37162 C 94.88241 241.5203 98.65319 241.84466 102.07257 242.10145 C 109.41139 242.65558 122.75103 243.08807 127.38679 242.9529 C 128.92753 242.89885 132.11715 242.79073 134.46882 242.72315 L 138.75318 242.588 L 140.41557 243.9125 C 143.82143 246.62908 145.26757 247.57516 145.75412 247.39946 C 146.24067 247.21024 145.68655 246.58854 143.83495 245.2235 C 140.19932 242.54745 136.77994 239.38486 133.18486 235.3573 C 130.33313 232.15416 126.88672 225.96414 125.07566 220.7337 C 123.7917 217.05753 123.29164 211.70546 123.83225 207.1643 C 124.3188 202.98807 126.15689 196.43314 127.72467 193.3246 C 128.73832 191.2973 130.87374 188.35097 132.73886 186.39124 C 134.22554 184.83698 137.11782 182.36368 138.42881 181.52572 C 138.9424 181.20136 139.92901 180.37692 140.59127 179.68764 C 141.26703 179.01187 142.24014 178.11986 142.76723 177.7144 C 144.8486 176.1196 146.33528 174.83564 147.7679 173.36246 C 151.32244 169.75387 152.37664 167.8347 152.255 165.1992 C 152.20094 163.71252 151.6468 162.61777 150.25473 161.21218 C 149.36272 160.30665 149.03835 160.0769 147.55166 159.36058 C 145.40272 158.30638 142.65911 157.40086 140.29393 156.95485 C 135.79332 156.10338 133.17135 155.53574 132.71183 155.29246 C 132.09012 154.98161 131.8063 154.67076 131.536 154.02202 C 131.34678 153.5625 131.23866 152.03527 131.40084 152.03527 C 131.44139 152.03527 131.84685 152.1569 132.30637 152.31909 C 132.84698 152.49479 133.6579 152.62994 134.57694 152.67049 C 135.82035 152.73807 136.25284 152.69752 138.02335 152.3326 C 139.14512 152.10285 140.83454 151.83254 141.78061 151.73793 C 143.38894 151.58926 143.6187 151.58926 145.07836 151.85957 C 146.76777 152.17042 147.06511 152.12988 146.98402 151.57575 C 146.92996 151.1838 146.48395 151.0081 144.80805 150.7378 C 143.40245 150.50804 143.22676 150.50804 141.30758 150.7378 C 140.19932 150.85943 138.591 151.11623 137.73953 151.29193 C 133.96875 152.11636 131.68466 151.48114 129.18432 148.94026 L 128.06255 147.79145 L 128.13013 147.02108 C 128.23825 145.75064 128.79238 144.7505 129.99524 143.58819 C 130.5764 143.03406 131.38732 142.38532 131.8063 142.15556 C 132.49558 141.76362 132.56316 141.69604 132.52261 141.31761 C 132.46855 140.79051 131.9009 140.38505 130.67101 139.9931 C 129.48166 139.6282 127.29218 139.29031 126.46774 139.35789 C 126.08931 139.3714 125.79198 139.38492 125.79198 139.35789 C 125.79198 139.24976 126.72453 137.9523 127.54897 136.8981 C 129.30596 134.66807 130.96835 132.22179 131.67115 130.8162 C 132.92807 128.30234 133.26596 126.91026 133.54978 123.08543 C 133.84711 119.1795 134.185 117.89554 135.45544 115.9223 C 136.18527 114.80053 138.55045 112.40831 140.11823 111.23248 C 141.46976 110.21883 145.51085 107.9888 147.29487 107.286 C 148.52477 106.79945 149.82224 106.36696 154.30933 104.93433 C 154.86346 104.75863 155.3365 104.637 155.36352 104.66403 C 155.39055 104.69106 155.36352 104.97488 155.29595 105.29925 C 155.12025 106.06962 155.28243 106.52914 155.6879 106.46157 C 155.93117 106.43454 156.0528 106.25884 156.24202 105.6101 C 157.43137 101.67714 158.9586 98.83892 161.85088 95.21681 C 163.16187 93.56794 165.20269 91.35142 165.40542 91.35142 C 165.473 91.35142 165.62166 91.55415 165.7433 91.78391 Z" fill="#FFFFFF"/>
        </g>
        <g id="Graphic_354">
          <path d="M 144.48368 94.3248 C 147.37596 95.73039 150.8494 97.52793 152.20094 98.2983 C 153.55247 99.06868 155.14728 99.94718 155.76898 100.25803 C 156.39069 100.56888 156.87724 100.86622 156.85021 100.9338 C 156.82318 100.98786 156.56639 101.65011 156.26905 102.40697 C 155.74195 103.74498 155.71492 103.78553 155.29595 103.78553 C 154.67424 103.78553 152.09281 104.47481 149.80872 105.2587 C 148.71398 105.63713 147.7544 105.94798 147.6733 105.94798 C 147.60572 105.94798 147.47057 105.74525 147.38948 105.50198 C 147.17323 104.89379 145.80818 102.28533 144.60532 100.20397 C 143.59167 98.44697 140.42908 93.60848 139.49652 92.3921 C 139.22622 92.04071 139.05052 91.75688 139.1181 91.75688 C 139.17216 91.75688 141.57788 92.90569 144.48368 94.3248 Z" fill="#FFFFFF"/>
        </g>
        <g id="Graphic_353">
          <path d="M 129.88712 151.04865 L 130.4007 151.45411 L 130.3061 152.34612 C 130.21149 153.22462 130.21149 153.25165 129.779 153.33274 C 129.53572 153.37329 128.99511 153.34626 128.58965 153.25165 C 127.21109 152.96783 126.33259 151.6163 126.23798 149.6025 C 126.19744 148.89971 126.23798 148.29152 126.33259 148.04825 L 126.48126 147.64279 L 127.9274 149.14299 C 128.7248 149.96742 129.6033 150.81889 129.88712 151.04865 Z" fill="#FFFFFF"/>
        </g>
        <g id="Graphic_352">
          <path d="M 80.31288 241.4527 C 79.12353 242.16902 78.3937 242.80424 78.00176 243.48 C 77.81254 243.80438 77.55575 244.07469 77.434115 244.07469 C 76.86647 244.07469 75.46088 244.92615 74.54183 245.83168 C 74.00122 246.34526 73.555215 246.75072 73.52818 246.7372 C 73.51467 246.71018 73.555215 246.1155 73.63631 245.4127 C 73.7174 244.72342 73.757945 243.8179 73.7174 243.41243 L 73.66334 242.6826 L 74.48777 242.3177 C 75.69064 241.77708 79.17759 241.02022 80.65076 240.97967 L 81.1238 240.96616 L 80.31288 241.4527 Z" fill="#FFFFFF"/>
        </g>
        <g id="Graphic_351">
          <path d="M 72.6632 243.31783 C 72.86593 243.5611 72.3929 247.49406 72.0415 248.54826 C 71.79822 249.25106 71.78471 249.25106 70.9873 249.48082 C 69.78444 249.8052 68.29775 250.65665 67.23004 251.64327 L 66.283966 252.52177 L 66.37857 251.9406 C 66.52724 250.98102 67.270585 248.79154 67.703076 247.99413 C 68.54103 246.49393 70.16287 244.60178 71.37925 243.70977 C 72.25774 243.07455 72.41993 243.034 72.6632 243.31783 Z" fill="#FFFFFF"/>
        </g>
        <g id="Graphic_350">
          <path d="M 77.75848 245.19646 C 77.79903 245.30458 77.70442 246.34526 77.55575 247.50758 L 77.28545 249.6295 L 76.63671 250.4269 C 76.08258 251.11617 75.785245 251.33242 74.60941 251.91358 C 73.62279 252.41365 72.96054 252.85965 72.25774 253.5084 L 71.28464 254.4139 L 71.36573 253.84627 C 71.527915 252.88668 72.136105 251.08914 72.63617 250.089 C 73.50115 248.3996 75.23112 246.3723 76.51507 245.53434 C 77.36654 244.9802 77.65036 244.91264 77.75848 245.19646 Z" fill="#FFFFFF"/>
        </g>
        <g id="Graphic_349">
          <path d="M 80.86701 248.71044 C 80.97513 249.00778 80.40749 253.18402 80.1507 253.9544 C 79.90742 254.6572 79.89391 254.6572 79.0965 254.88695 C 77.89364 255.21132 76.40695 256.0628 75.36627 257.02237 C 74.63644 257.69814 74.43371 257.8333 74.43371 257.61705 C 74.43371 257.29268 74.98784 255.36 75.379785 254.3058 C 76.015005 252.61638 78.08285 250.04846 79.6236 249.04833 C 80.475065 248.4942 80.75889 248.42662 80.86701 248.71044 Z" fill="#FFFFFF"/>
        </g>
        <g id="Graphic_348">
          <path d="M 103.4241 250.64314 C 102.23475 251.35945 101.50492 251.99467 101.11298 252.67044 C 100.92376 252.9948 100.66697 253.2651 100.54533 253.2651 C 99.97769 253.2651 98.5721 254.11658 97.65305 255.0221 C 97.11244 255.5357 96.66643 255.94115 96.6394 255.92763 C 96.62589 255.9006 96.66643 255.30593 96.74753 254.60313 C 96.82862 253.91385 96.86916 253.00832 96.82862 252.60286 L 96.77456 251.87303 L 97.59899 251.50812 C 98.80186 250.9675 102.28881 250.21065 103.76198 250.1701 L 104.23502 250.15658 L 103.4241 250.64314 Z" fill="#FFFFFF"/>
        </g>
        <g id="Graphic_347">
          <path d="M 225.3324 251.45406 C 224.14305 252.17037 223.41322 252.8056 223.02128 253.48136 C 222.83207 253.80572 222.57527 254.07603 222.45364 254.07603 C 221.886 254.07603 220.4804 254.9275 219.56136 255.83302 C 219.02074 256.3466 218.57474 256.75207 218.5477 256.73855 C 218.5342 256.71152 218.57474 256.11685 218.65583 255.41405 C 218.73692 254.72477 218.77747 253.81924 218.73692 253.41378 L 218.68286 252.68395 L 219.5073 252.31904 C 220.71016 251.77842 224.19711 251.02157 225.67029 250.98102 L 226.14332 250.9675 L 225.3324 251.45406 Z" fill="#FFFFFF"/>
        </g>
        <g id="Graphic_346">
          <path d="M 95.77442 252.50825 C 95.97715 252.75153 95.50412 256.6845 95.15272 257.7387 C 94.90944 258.44148 94.89593 258.44148 94.09852 258.67124 C 92.89566 258.9956 91.40897 259.84708 90.36829 260.80667 C 89.74658 261.3743 89.43573 261.59056 89.43573 261.4419 C 89.43573 260.79315 90.19259 258.3604 90.66563 257.4819 C 91.57115 255.77896 93.17948 253.8598 94.49047 252.9002 C 95.36896 252.26498 95.53115 252.22443 95.77442 252.50825 Z" fill="#FFFFFF"/>
        </g>
        <g id="Graphic_345">
          <path d="M 217.68272 253.31917 C 217.88545 253.56245 217.41242 257.4954 217.06102 258.5496 C 216.81774 259.2524 216.80423 259.2524 216.00682 259.48216 C 214.80396 259.80653 213.31727 260.658 212.24956 261.64462 L 211.30349 262.5231 L 211.3981 261.94196 C 211.54676 260.98237 212.2901 258.79288 212.7226 257.99548 C 213.56055 256.49528 215.1824 254.60313 216.39877 253.71112 C 217.27726 253.0759 217.43945 253.03535 217.68272 253.31917 Z" fill="#FFFFFF"/>
        </g>
        <g id="Graphic_344">
          <path d="M 100.8697 254.38688 C 100.91025 254.495 100.81564 255.5357 100.66697 256.698 L 100.39667 258.8199 L 99.74793 259.61732 C 99.1938 260.3066 98.89646 260.52285 97.72063 261.104 C 96.73401 261.60407 96.07176 262.05008 95.36896 262.6988 L 94.39586 263.60434 L 94.47695 263.0367 C 94.63913 262.0771 95.24732 260.27957 95.74739 259.27943 C 96.61237 257.59002 98.34234 255.56272 99.62629 254.72477 C 100.47776 254.17064 100.76158 254.10306 100.8697 254.38688 Z" fill="#FFFFFF"/>
        </g>
        <g id="Graphic_343">
          <path d="M 222.778 255.1978 C 222.81855 255.30593 222.72394 256.3466 222.57527 257.50893 L 222.30497 259.63083 L 221.65623 260.42824 C 221.1021 261.11752 220.80477 261.33377 219.62893 261.91492 C 218.6423 262.415 217.98006 262.861 217.27726 263.50973 L 216.30416 264.41526 L 216.38525 263.84762 C 216.54744 262.88803 217.15563 261.0905 217.6557 260.09035 C 218.52067 258.40094 220.25064 256.37364 221.5346 255.5357 C 222.38606 254.98156 222.66988 254.91398 222.778 255.1978 Z" fill="#FFFFFF"/>
        </g>
        <g id="Graphic_342">
          <path d="M 103.97823 257.90087 C 104.08635 258.1982 103.51871 262.37445 103.26192 263.14482 C 103.01864 263.84762 103.00512 263.84762 102.20772 264.07738 C 101.00486 264.40175 99.51817 265.2532 98.47749 266.2128 C 97.74766 266.88857 97.54493 267.02372 97.54493 266.80748 C 97.54493 266.4831 98.09906 264.5504 98.491 263.49622 C 99.12622 261.8068 101.19407 259.2389 102.73482 258.23875 C 103.58628 257.68463 103.8701 257.61705 103.97823 257.90087 Z" fill="#FFFFFF"/>
        </g>
        <g id="Graphic_341">
          <path d="M 225.88653 258.7118 C 225.99465 259.00913 225.427 263.18537 225.17022 263.95574 C 224.92694 264.65854 224.91343 264.65854 224.11602 264.8883 C 222.91316 265.21267 221.42647 266.06413 220.3858 267.02372 C 219.65596 267.6995 219.45323 267.83464 219.45323 267.6184 C 219.45323 267.29403 220.00736 265.36133 220.3993 264.30714 C 221.03453 262.61772 223.10237 260.0498 224.64312 259.04967 C 225.49459 258.49555 225.7784 258.42797 225.88653 258.7118 Z" fill="#FFFFFF"/>
        </g>
        <g id="Graphic_340">
          <path d="M 140.69939 124.66672 C 140.52369 124.78836 140.38854 125.0046 140.38854 125.15327 C 140.38854 125.356 140.48314 125.41006 140.80751 125.41006 C 141.18594 125.41006 141.22649 125.45061 141.1454 125.7074 C 140.52369 127.9104 140.40205 130.24855 140.83454 131.6947 C 141.15891 132.74889 141.6725 133.76254 142.1185 134.24909 C 142.32123 134.46534 142.42935 134.65455 142.34826 134.68158 C 142.28068 134.72213 141.96983 134.88431 141.6725 135.0465 C 141.26703 135.27626 141.13188 135.43844 141.13188 135.68172 C 141.13188 136.51967 142.55099 136.0196 144.44314 134.50588 C 146.71371 132.68131 149.24108 130.00528 150.79534 127.76173 C 151.6468 126.53184 151.7279 126.19395 151.30892 125.77498 C 150.72777 125.19382 147.10566 124.62617 143.42949 124.51805 C 141.30758 124.45047 140.95618 124.46399 140.69939 124.66672 Z" fill="black"/>
        </g>
        <g id="Graphic_339">
          <path d="M 143.32136 125.51819 C 143.443 125.59928 143.443 125.74795 143.29433 126.1534 C 143.1727 126.49129 143.10512 127.24815 143.0916 128.12664 C 143.0916 129.89715 143.38894 130.96486 144.18634 132.08664 L 144.75399 132.87053 L 144.15931 133.39762 C 143.83495 133.68145 143.47003 133.8977 143.36191 133.88418 C 143.01051 133.83012 142.28068 132.70834 141.98334 131.72172 C 141.57788 130.45128 141.56437 128.4375 141.92928 126.65347 L 142.19959 125.41006 L 142.67263 125.41006 C 142.94293 125.41006 143.22676 125.46412 143.32136 125.51819 Z" fill="#FFFFFF"/>
        </g>
        <g id="Graphic_338">
          <path d="M 148.71398 126.08583 C 149.59248 126.2345 150.3223 126.38317 150.36285 126.4102 C 150.51152 126.57238 148.26797 129.38357 146.56504 131.18111 C 145.63248 132.16773 145.60545 132.18124 145.44327 131.87039 C 145.15945 131.32978 144.95672 130.00528 145.05133 129.34302 C 145.15945 128.55914 145.52436 127.72118 146.10552 126.92378 C 146.36231 126.57238 146.60559 126.18044 146.64613 126.04528 C 146.75426 125.76146 146.78129 125.76146 148.71398 126.08583 Z" fill="#FFFFFF"/>
        </g>
        <g id="Graphic_337">
          <path d="M 183.27269 131.4379 C 183.17808 131.70821 183.35378 132.24882 184.44852 135.06001 C 185.2189 137.06028 185.98927 139.58765 185.85412 139.7228 C 185.81357 139.76335 185.54326 139.53359 185.2189 139.23625 C 184.39446 138.43884 184.13767 138.33072 183.75924 138.64157 L 183.44839 138.89837 L 184.21876 141.3041 C 185.0567 143.92607 185.44866 145.38572 185.59732 146.43992 L 185.69193 147.10217 L 184.94859 146.37234 C 184.4215 145.85876 184.09712 145.64252 183.84033 145.64252 C 183.15105 145.64252 183.15105 145.73712 183.57002 148.61589 C 183.69166 149.44032 183.77275 150.49452 183.74572 150.95404 L 183.70518 151.792 L 182.98886 150.76483 C 182.16443 149.589 181.73194 149.35923 181.31296 149.87282 C 181.12375 150.10258 181.06969 150.39991 181.06969 151.1838 C 181.06969 152.22448 180.83993 153.995 180.67774 154.30584 C 180.61017 154.42748 180.35337 154.19772 179.8398 153.5625 C 179.43433 153.06243 178.93426 152.56237 178.73153 152.44073 C 178.40717 152.26503 178.32607 152.26503 178.0017 152.44073 C 177.78546 152.56237 177.5557 152.87322 177.43406 153.18407 C 176.70423 155.2384 176.20417 156.31963 175.4338 157.48195 C 174.69045 158.60372 174.56881 158.87403 174.60936 159.30652 C 174.6499 159.739 174.70397 159.80659 174.97427 159.80659 C 175.16349 159.80659 175.3527 159.68495 175.4473 159.53628 C 175.51489 159.38761 175.89331 158.77942 176.28526 158.18475 C 177.17727 156.79267 177.35297 156.44127 177.96116 154.81943 L 178.47474 153.49492 L 179.3262 154.6167 C 180.27228 155.88714 180.33986 155.95472 180.74532 155.95472 C 181.36702 155.95472 181.73194 155.07622 182.02928 152.77861 L 182.19146 151.5352 L 182.81317 152.35964 C 183.15105 152.80564 183.61057 153.26516 183.8133 153.3868 C 184.17821 153.57602 184.20524 153.57602 184.52961 153.2111 C 184.82695 152.8597 184.85398 152.72455 184.84047 151.45411 C 184.84047 150.69725 184.75937 149.5079 184.66477 148.81862 C 184.58367 148.14285 184.52961 147.57521 184.57016 147.57521 C 184.5972 147.57521 184.92156 147.84552 185.27296 148.1834 C 185.98927 148.84565 186.31364 148.92674 186.67855 148.52128 C 186.88128 148.30504 186.9083 148.11582 186.82722 147.41302 C 186.69207 146.19664 186.24606 144.25044 185.71896 142.49344 C 185.46217 141.6555 185.25944 140.93918 185.25944 140.89863 C 185.25944 140.85809 185.47569 140.97973 185.746 141.15543 C 186.31364 141.54737 186.4623 141.56089 186.80019 141.31761 C 187.1651 141.0473 187.11104 140.10123 186.6245 138.23611 C 185.98927 135.7628 184.17821 131.49196 183.70518 131.30275 C 183.39432 131.18111 183.3673 131.19463 183.27269 131.4379 Z" fill="black"/>
        </g>
      </g>
    </g>
  </g>
</svg>
