<?xml version="1.0" encoding="UTF-8" standalone="no"?>
<!DOCTYPE svg PUBLIC "-//W3C//DTD SVG 1.1//EN" "http://www.w3.org/Graphics/SVG/1.1/DTD/svg11.dtd">
<svg xmlns="http://www.w3.org/2000/svg" xmlns:xl="http://www.w3.org/1999/xlink" version="1.1" xmlns:dc="http://purl.org/dc/elements/1.1/" viewBox="54 67.5 256.5 283.5" width="256.5" height="283.5">
  <defs>
    <clipPath id="artboard_clip_path">
      <path d="M 54 67.5 L 310.5 67.5 L 310.5 351 L 54 351 Z"/>
    </clipPath>
  </defs>
  <g id="Chair,_Curule" stroke-opacity="1" fill="none" fill-opacity="1" stroke-dasharray="none" stroke="none">
    <title>Chair, Curule</title>
    <g id="Chair,_Curule_Art" clip-path="url(#artboard_clip_path)">
      <title>Art</title>
      <g id="Group_799">
        <g id="Graphic_920">
          <path d="M 122.2563 75.80851 C 118.1032 77.4236 113.604 82.38426 113.604 85.32604 C 113.604 87.22954 115.5075 90.34437 117.81479 92.13251 C 119.83366 93.74761 119.89134 96.22794 117.93015 97.78535 C 115.8536 99.45813 105.12475 109.26407 102.00992 112.43658 C 100.51019 113.93631 98.31827 115.66677 97.04927 116.30127 C 95.83794 116.87809 92.89616 119.30073 90.5312 121.6657 C 88.16624 123.97298 84.1285 127.66462 81.64817 129.85654 L 77.03361 133.77892 L 75.99534 132.45223 C 73.11124 128.52985 72.41905 127.89535 70.457865 127.31853 C 66.93926 126.33794 64.80503 126.62635 62.84384 128.24144 C 60.363516 130.37568 58.22928 134.75951 58.22928 137.93202 C 58.22928 140.12394 58.575374 140.93148 60.53656 143.18108 C 63.13225 146.18055 63.07457 147.04578 59.95974 149.2377 C 56.15273 151.94875 55.34518 156.50562 58.286964 158.98595 C 61.63252 161.81237 62.3247 162.79296 64.80503 168.27275 C 66.131715 171.27221 68.438995 175.42532 69.93873 177.44419 C 71.43846 179.46306 72.64978 181.2512 72.64978 181.48193 C 72.64978 183.21239 86.08969 197.80593 94.51126 205.18923 C 97.97218 208.1887 98.20291 208.53479 98.72204 211.76498 C 99.29886 215.5143 101.49078 219.78277 103.56733 221.10946 C 104.3172 221.6286 106.2207 221.9747 108.06653 221.9747 C 111.93122 221.9747 113.83473 223.2437 115.39214 226.93534 C 115.96896 228.26203 116.77651 229.41567 117.23797 229.41567 C 117.98783 229.41567 122.19862 232.8766 130.2741 240.02916 C 135.23475 244.47067 141.98354 248.79682 148.79002 251.85397 C 151.78948 253.23833 154.6159 254.68038 155.07736 255.02648 C 155.48113 255.37257 157.1539 256.29548 158.82669 257.10303 C 160.90324 258.1413 161.76847 258.89117 161.76847 259.69872 C 161.76847 261.0254 159.98033 261.6599 152.53935 263.04427 C 149.94366 263.50573 146.71347 264.42864 145.3291 265.12082 C 142.61804 266.4475 137.02289 268.6971 134.08111 269.6777 C 133.10051 269.9661 130.62019 271.46584 128.54364 273.02326 C 126.46709 274.58067 122.48703 277.00332 119.71829 278.44537 C 115.2191 280.75265 113.66168 282.02165 106.33607 289.46263 C 98.20291 297.65347 96.81854 299.4993 94.51126 305.09445 C 93.93444 306.65186 92.83848 308.84378 92.08861 309.99742 C 91.33875 311.20874 90.06974 313.68907 89.31988 315.59257 C 88.39697 317.84217 86.83955 320.0341 84.70532 322.226 C 80.72526 326.20606 80.14844 327.24434 80.14844 330.64757 C 80.14844 335.0891 82.5134 338.08855 87.6471 340.10742 C 96.35708 343.45298 97.5684 343.62602 102.99051 342.18397 C 107.02825 341.1457 107.48971 340.7996 108.35494 337.74246 C 108.98944 335.7236 108.93176 334.28154 108.06653 328.85943 L 107.02825 322.34137 L 108.87408 319.3996 C 109.91235 317.7845 110.7199 316.1117 110.7199 315.76562 C 110.7199 313.97748 114.2385 308.03623 117.35333 304.633 C 129.2935 291.4815 140.71454 282.07933 140.71454 285.48257 C 140.71454 286.92462 138.11885 292.63514 136.21534 295.3462 C 135.17707 296.9036 134.02343 298.8071 133.73502 299.67234 C 133.4466 300.4799 132.00456 303.0179 130.62019 305.2675 C 128.25523 309.0745 128.0245 309.709 128.0245 313.11225 C 128.0245 317.61144 128.88973 319.0535 132.46601 320.6109 C 133.90806 321.2454 135.6962 322.226 136.50375 322.8605 C 138.23421 324.1872 139.38785 324.01414 144.57923 321.6492 C 146.54042 320.72627 148.5016 319.9764 148.90538 319.9764 C 150.80889 319.91872 154.55822 317.61144 155.36577 315.99635 C 156.8655 313.11225 156.5194 311.15106 153.92372 308.0939 C 151.7318 305.44054 151.61644 305.09445 151.90485 302.49876 C 152.0779 300.94135 152.65471 298.8648 153.17385 297.8842 C 153.69299 296.84592 154.55822 294.53864 155.13504 292.7505 C 156.34636 288.9435 160.55715 282.1947 163.03747 280.11814 C 163.96038 279.36828 166.1523 277.75318 167.88276 276.54186 C 170.70918 274.58067 171.51673 274.34994 175.90056 274.00385 C 179.07307 273.77312 181.61107 273.254 183.05312 272.50412 C 185.64881 271.11975 187.43696 271.46584 194.76257 274.58067 C 200.18468 276.88795 207.39493 283.00224 214.37445 291.25077 C 218.12378 295.6346 223.77662 304.5753 223.77662 306.01736 C 223.77662 306.4788 222.79602 308.44 221.64238 310.3435 C 220.02729 313.05457 219.45047 314.66966 219.27742 317.20767 C 218.93133 322.226 219.3351 323.2066 222.62298 324.87937 C 224.98794 326.0907 226.31462 326.32142 230.237 326.32142 C 234.27474 326.32142 235.54374 326.0907 238.48552 324.70633 C 240.38903 323.7834 242.29254 322.62978 242.754 322.11064 C 243.9653 320.6109 244.19604 316.40012 243.21545 313.2853 C 242.754 311.72788 242.17717 308.84378 242.00413 306.8249 C 241.83108 304.86372 241.19658 302.26803 240.56208 301.0567 C 239.98526 299.90307 239.1777 297.8842 238.77393 296.6152 C 238.37016 295.3462 237.6203 293.78878 237.04347 293.15428 C 235.48606 291.4238 232.42891 285.7133 232.42891 284.61734 C 232.42891 282.71383 235.0823 283.57906 239.06234 286.80926 C 241.54267 288.8858 243.44618 289.98177 244.42677 289.98177 C 245.5804 289.98177 247.1955 291.25077 251.3486 295.57692 C 254.2904 298.69175 258.21277 303.0179 260.0586 305.2675 C 263.5195 309.47828 268.19175 318.18826 268.19175 320.49554 C 268.19175 321.18773 267.26884 323.66805 266.17288 325.85997 C 262.76965 332.7818 262.76965 335.20445 266.28825 339.06915 C 269.6915 342.81848 270.9605 343.22225 277.6516 342.7608 C 280.8241 342.53007 284.16967 342.01093 284.9772 341.60715 C 288.38045 339.819 291.84137 334.3969 291.84137 330.76294 C 291.84137 328.9171 289.4764 324.70633 286.18854 320.6109 C 283.93894 317.84217 282.66993 314.8427 282.61225 312.13165 C 282.61225 311.0357 281.68934 308.95914 280.13193 306.65186 C 278.74756 304.633 277.3055 302.095 276.90174 301.0567 C 276.44028 300.01843 275.17128 298.46102 274.01764 297.5958 C 270.9028 295.3462 268.19175 292.7505 268.19175 292.00064 C 268.19175 290.44322 264.5578 286.40548 262.36587 285.48257 C 261.09687 284.90575 257.63595 282.07933 254.46344 278.9645 C 249.7335 274.23458 248.4645 273.31167 246.04187 272.73485 C 242.6963 271.9273 238.13943 269.6777 237.04347 268.29333 C 235.88983 266.96665 228.16045 263.50573 225.27635 263.04427 C 223.94966 262.87123 221.8731 262.17904 220.6618 261.60222 C 219.45047 260.96772 216.56637 260.21786 214.31677 259.98713 C 210.79817 259.52567 205.60679 258.60276 203.18414 257.91058 C 201.56905 257.5068 202.49196 255.37257 204.9146 253.87284 C 206.2413 253.0076 208.66393 251.33483 210.22135 250.1812 C 211.83644 249.02755 213.8553 247.8739 214.77822 247.64318 C 215.64345 247.41245 218.989 245.56663 222.16152 243.49008 C 225.27635 241.41352 228.968 239.2793 230.29468 238.70247 C 231.62137 238.06797 233.64024 236.6836 234.7362 235.47228 C 235.83215 234.31864 238.6009 232.06904 240.7928 230.5693 C 243.0424 229.06958 246.2149 226.35852 247.94537 224.57038 L 251.0602 221.2825 L 255.04026 221.39787 C 258.90495 221.51323 259.078 221.45555 260.6931 219.55205 C 261.616 218.4561 262.36587 217.4178 262.42355 217.18708 C 262.42355 216.95636 263.00037 216.7833 263.63488 216.89867 C 264.32706 216.95636 265.01924 216.66795 265.1346 216.26417 C 265.36534 215.74503 264.96156 215.572 263.80792 215.68735 C 262.2505 215.8604 262.13514 215.68735 261.9621 213.66848 C 261.73137 211.0151 262.2505 210.32293 266.28825 207.72724 C 268.0187 206.63128 270.09526 204.6701 270.9605 203.28572 C 271.82572 201.95904 273.7869 199.5364 275.28664 197.97898 C 276.78637 196.36388 279.32438 192.72992 280.93947 189.9035 C 282.61225 187.0194 284.7465 183.7892 285.78476 182.69325 C 288.8419 179.3477 292.24515 173.17572 293.91792 168.15739 C 294.78315 165.50401 296.74434 160.88946 298.30176 157.89 C 299.91685 154.71748 301.0705 151.66034 301.0705 150.56438 C 301.0705 149.5261 301.4166 148.43014 301.82036 148.14173 C 302.16645 147.79564 303.3201 146.87273 304.35837 146.06518 C 306.2042 144.56545 307.99233 140.52771 307.99233 137.81666 C 307.99233 135.39401 306.72333 132.04846 305.1659 130.20263 C 303.55082 128.29913 298.4748 126.1649 295.53302 126.1649 C 291.55296 126.1649 287.2268 129.3374 287.2268 132.16382 C 287.2268 133.72123 285.6694 135.97083 284.63112 135.97083 C 283.59285 135.97083 276.20955 129.45277 268.48016 121.89642 C 265.30765 118.72391 261.6737 115.49372 260.40468 114.62849 C 259.13568 113.82094 257.05913 112.14817 255.8478 110.93685 C 254.5788 109.72552 252.50225 108.11043 251.23325 107.30288 C 248.63756 105.68778 246.33028 103.20746 246.2726 102.05382 C 246.2726 101.59236 247.13782 100.20799 248.23378 98.88131 C 253.07907 92.8247 252.3869 87.40259 246.2149 84.34544 C 243.44618 82.90339 243.0424 82.84571 240.27367 83.48021 C 233.92865 84.97995 232.25587 87.691 232.1405 96.74707 C 231.96746 106.09156 230.8715 114.85922 229.3141 118.66623 C 227.75667 122.47324 223.60357 129.10667 221.12324 131.76005 C 220.20033 132.74064 218.58524 134.64415 217.54696 135.91315 C 216.50868 137.23984 213.79763 139.83553 211.60571 141.73903 C 208.02943 144.79618 207.33725 145.19995 205.08765 145.19995 C 201.56905 145.19995 198.858 147.16114 198.1658 150.10292 C 197.93508 151.37193 197.589 152.7563 197.47362 153.21775 C 197.2429 153.85225 196.14694 153.96762 191.41701 153.62152 C 188.18682 153.3908 181.09194 153.10239 175.55447 152.92934 C 163.96038 152.58325 157.21159 151.31424 155.71186 149.12233 C 153.51994 145.83445 150.86657 143.4695 148.73234 142.89267 C 146.88651 142.37353 145.90592 141.5083 143.82937 138.68189 C 142.32963 136.7207 140.5415 134.00964 139.73394 132.62528 C 137.77276 129.3374 133.21588 117.28186 132.69674 114.05167 C 132.40833 112.60962 131.83151 110.01393 131.37005 108.28347 C 130.85092 106.55301 129.98569 103.20746 129.46655 100.90018 L 128.48596 96.68939 L 130.04337 94.49748 C 132.1776 91.32497 133.7927 86.76809 133.7927 83.71094 C 133.7927 80.53843 132.00456 76.96215 129.928 76.03924 C 128.48596 75.404735 123.75603 75.23169 122.2563 75.80851 Z M 118.21856 120.74278 L 118.21856 120.74278 C 118.21856 121.55033 119.31452 124.14602 120.69889 126.62635 C 122.08325 129.049 123.92908 132.62528 124.7943 134.52878 C 127.90914 141.10453 128.31291 141.79671 131.08164 144.3924 C 132.58138 145.83445 133.7927 147.21882 133.7927 147.50723 C 133.7927 147.73796 134.60025 148.8916 135.52316 150.10292 C 136.50375 151.31424 137.25362 152.92934 137.25362 153.6792 C 137.25362 155.40967 136.0423 157.8323 134.4272 159.27436 C 133.33124 160.31264 133.1582 160.31264 131.77383 159.38972 C 129.46655 157.89 126.87086 153.90993 125.89027 150.33365 C 125.1404 147.56491 124.56358 146.75737 122.31398 145.08459 C 119.25684 142.7773 115.8536 136.54765 113.31559 128.76058 C 112.50804 126.22257 111.7005 123.74225 111.52745 123.28079 C 111.3544 122.70397 112.21963 121.3196 113.71936 119.70451 C 116.19969 117.05114 116.19969 117.05114 117.23797 118.20478 C 117.7571 118.83928 118.21856 119.99292 118.21856 120.74278 Z M 242.52326 122.01179 L 242.52326 122.01179 C 242.86936 122.24252 244.25372 123.9153 245.5804 125.76112 C 248.00305 128.99131 248.06074 129.16436 247.1955 130.54872 C 246.67637 131.29859 246.04187 131.9331 245.75346 131.9331 C 245.52273 131.9331 244.59982 133.2021 243.79227 134.70183 C 242.98472 136.20156 241.71572 137.9897 241.08121 138.56652 C 240.38903 139.20102 239.1777 141.04685 238.37016 142.71963 C 237.38957 144.91154 234.7362 148.08405 229.2564 153.56384 C 224.98794 157.8323 221.12324 161.35091 220.6618 161.35091 C 219.85424 161.35091 215.70114 156.50562 215.70114 155.52503 C 215.70114 154.42907 222.33457 147.39187 224.29575 146.41127 C 225.4494 145.77677 227.58363 144.04631 228.968 142.4889 C 230.35236 140.98917 232.25587 139.2587 233.1211 138.73957 C 235.0823 137.52825 235.77447 136.20156 236.46665 132.45223 C 236.75506 130.83713 237.50493 128.81826 238.08175 128.01072 C 238.71625 127.14549 239.35075 125.70344 239.58148 124.72284 C 240.27367 122.01179 241.25426 121.08888 242.52326 122.01179 Z M 101.4331 137.9897 L 101.4331 137.9897 C 102.7021 140.64307 103.91342 143.4695 104.14415 144.16168 C 104.3172 144.91154 105.00938 146.18055 105.64388 147.04578 C 106.2207 147.911 107.2013 149.98756 107.77812 151.66034 C 109.1048 155.58271 111.64281 160.48568 112.91182 161.81237 C 116.66115 165.67706 122.2563 173.63718 122.2563 175.1946 C 122.2563 175.71373 121.44875 177.27114 120.52584 178.54015 C 117.69942 182.46252 115.27678 181.5396 110.95063 174.96386 C 106.97057 168.84957 105.87461 167.4652 103.22124 164.81183 C 101.77919 163.36978 99.99105 160.83177 99.1835 159.10131 C 98.31827 157.25549 97.28 155.81344 96.47245 155.52503 C 95.72258 155.23662 95.14576 154.54444 95.14576 153.90993 C 95.14576 152.1218 93.64603 146.93041 92.31934 144.04631 C 90.47352 140.00857 90.70425 138.79725 93.99212 135.7401 C 98.08754 131.9331 98.72204 132.10614 101.4331 137.9897 Z M 260.347 139.83553 L 260.347 139.83553 C 261.78905 140.70076 263.28878 142.02744 263.69256 142.7773 C 264.32706 143.98863 264.2117 144.50777 262.82733 147.16114 C 257.69363 156.96708 237.85102 178.6555 234.044 178.6555 C 232.89037 178.6555 228.968 173.8679 228.968 172.42585 C 228.968 171.04149 230.46773 169.13798 235.94752 163.71587 C 238.37016 161.29323 240.7928 158.5245 241.25426 157.60158 C 241.71572 156.62099 244.3691 153.3908 247.13782 150.39133 C 249.84888 147.39187 252.44457 144.104 252.90602 143.18108 C 253.88662 141.16221 256.42463 138.27811 257.23217 138.27811 C 257.52058 138.27811 258.90495 138.9703 260.347 139.83553 Z M 80.66758 151.31424 L 80.66758 151.31424 C 81.35976 152.17947 81.8789 153.21775 81.8789 153.6792 C 81.8789 155.12126 84.58995 159.73582 90.87729 169.0803 C 91.45411 170.00321 92.20398 171.15685 92.55007 171.67599 C 92.83848 172.19513 93.64603 173.34877 94.33821 174.32936 C 95.0304 175.25227 96.12635 177.15578 96.81854 178.48246 C 97.51072 179.86683 98.31827 180.9628 98.60668 180.9628 C 99.1835 180.9628 110.14308 191.05714 110.89295 192.32614 C 111.58513 193.4221 109.85467 195.9601 108.41262 195.9601 C 106.04766 195.9601 98.31827 187.71158 95.49185 182.17411 C 94.91503 181.13584 92.60775 178.25174 90.30047 175.8291 C 88.05087 173.40645 85.22446 169.59944 84.01313 167.40752 C 82.85949 165.15792 80.95599 161.81237 79.91771 159.90886 C 77.668115 156.04417 76.802885 151.94875 77.89884 150.62206 C 78.821755 149.46842 79.34089 149.58378 80.66758 151.31424 Z M 278.74756 154.25603 L 278.74756 154.25603 C 282.7853 158.00536 283.36212 158.98595 282.4392 160.65873 C 280.36266 164.2927 277.9977 167.98434 274.53677 172.88731 C 272.40254 175.88677 270.21062 179.17465 269.6915 180.21292 C 269.17235 181.2512 266.57666 184.88517 263.8656 188.2884 C 257.05913 196.9407 256.65535 197.51752 256.65535 198.2097 C 256.65535 198.5558 256.02085 199.24798 255.271 199.70944 C 253.48284 200.86308 252.50225 200.40162 248.1761 196.3062 C 242.29254 190.76873 241.94644 188.2884 246.44564 184.4237 C 250.65643 180.78974 255.04026 175.8291 260.40468 168.50348 C 262.9427 165.04256 265.94216 161.17787 267.0958 159.90886 C 268.24944 158.63986 270.15294 156.10185 271.30658 154.25603 C 272.46022 152.46788 273.7869 150.96815 274.24836 150.96815 C 274.7675 150.96815 276.7287 152.46788 278.74756 154.25603 Z M 139.61858 216.89867 L 139.61858 216.89867 C 140.08004 217.30245 141.92586 219.55205 143.59864 221.917 C 146.71347 226.24316 152.88544 232.8766 153.86603 232.8766 C 154.09676 232.8766 155.8849 234.31864 157.78841 236.10678 C 160.15337 238.2987 162.97979 240.2022 167.01753 242.1057 C 173.30487 245.16285 174.74692 246.20113 174.74692 247.8739 C 174.74692 250.4696 171.34368 249.60437 159.7496 244.23994 C 154.55822 241.8173 149.02075 238.41406 146.48274 236.0491 C 145.04069 234.7224 142.84877 232.99195 141.57977 232.1844 C 140.31076 231.37686 138.17653 229.6464 136.79216 228.3197 C 135.46548 227.0507 132.92747 225.08952 131.25469 223.99356 C 129.52423 222.8976 127.73609 221.39787 127.21695 220.70569 C 126.29404 219.32132 126.00563 217.24477 126.69781 216.55258 C 127.39 215.8604 138.63799 216.1488 139.61858 216.89867 Z M 176.01592 218.4561 L 176.01592 218.4561 C 177.22724 219.0329 178.9577 218.97523 185.30272 218.22536 C 195.45475 217.01404 203.18414 217.01404 204.16474 218.16768 C 204.74156 218.85986 204.74156 219.379 204.2801 220.47496 C 203.47255 222.2631 198.858 225.60866 195.51244 226.87766 C 194.07039 227.3968 192.1092 228.3197 191.07092 228.9542 C 188.99437 230.16553 180.11134 231.37686 177.3426 230.80004 C 172.72805 229.81944 167.59435 226.99302 163.5566 223.2437 C 158.94205 218.91754 158.71132 218.57145 159.80728 217.7639 C 160.90324 217.01404 174.11242 217.59086 176.01592 218.4561 Z M 233.4095 218.11 L 233.4095 218.11 C 234.62083 219.32132 227.58363 226.01243 223.08443 227.85825 C 221.9308 228.3197 220.14265 229.70408 219.10437 230.85772 C 216.68173 233.5111 214.37445 235.01082 206.06824 239.2793 C 198.10813 243.3747 192.28224 245.79736 191.18629 245.3359 C 188.99437 244.52835 190.60947 243.25935 197.06985 240.8944 C 200.93454 239.45234 204.97228 237.49115 206.47202 236.3375 C 214.14372 230.51163 220.3157 224.68574 223.1998 220.47496 C 224.64185 218.3984 225.33403 217.87927 227.12217 217.70622 C 229.37177 217.4178 232.94805 217.64854 233.4095 218.11 Z" fill="black"/>
        </g>
        <g id="Graphic_919">
          <path d="M 126.81318 82.09585 C 127.96682 82.96108 128.13986 83.42253 127.85145 85.61445 C 127.6784 87.0565 127.21695 88.55623 126.7555 89.01769 C 125.71722 90.05596 122.71776 90.5751 121.67948 89.82523 C 120.92961 89.3061 120.92961 89.19073 121.67948 88.67159 C 122.14094 88.38318 123.29458 88.09477 124.1598 88.09477 C 125.42881 88.09477 125.7749 87.86405 125.60186 87.0565 C 125.48649 86.36431 124.73663 86.01822 122.94848 85.90286 C 120.9873 85.72981 120.52584 85.49908 120.52584 84.57617 C 120.52584 83.07644 122.54471 81.17293 124.1598 81.17293 C 124.85199 81.17293 126.06331 81.57671 126.81318 82.09585 Z" fill="#FFFFFF"/>
        </g>
        <g id="Graphic_918">
          <path d="M 244.48445 87.86405 C 245.11895 88.72928 245.52273 89.65219 245.34968 89.9406 C 245.17664 90.22901 244.83054 91.67106 244.6575 93.17079 L 244.25372 95.88184 L 241.7734 96.05489 C 240.38903 96.17025 238.8893 95.93953 238.42784 95.53575 C 237.50493 94.78589 237.33188 92.36324 238.19711 91.8441 C 238.5432 91.67106 238.77393 90.92119 238.77393 90.22901 C 238.77393 88.3255 240.38903 86.36431 241.94644 86.36431 C 242.754 86.36431 243.79227 86.99882 244.48445 87.86405 Z" fill="#FFFFFF"/>
        </g>
        <g id="Graphic_917">
          <path d="M 122.48703 101.477 C 122.94848 102.22686 122.60239 102.91905 120.92961 104.76487 C 119.77597 106.09156 118.79538 107.36056 118.79538 107.70665 C 118.79538 107.99506 117.58406 109.09102 116.08433 110.07162 C 114.52691 111.10989 109.33553 115.95518 104.43256 120.85815 C 99.58727 125.76112 94.16517 130.6064 92.49239 131.70236 C 90.76193 132.79832 89.03147 134.41342 88.51233 135.33633 C 88.05087 136.25924 85.97432 138.04738 83.78241 139.43175 C 81.64817 140.75844 78.41798 143.29645 76.62984 145.08459 C 70.91932 150.85279 65.09344 154.60212 63.824436 153.33311 C 63.01689 152.52557 63.99748 151.48729 67.63145 149.00696 C 69.304225 147.96869 73.2266 144.62313 76.45679 141.68135 C 79.6293 138.68189 84.82068 133.95196 87.99319 131.18323 C 91.10802 128.41449 95.08808 124.89589 96.76086 123.39616 C 101.4331 119.18537 109.33553 111.28294 113.25791 106.8991 C 116.83419 102.91905 120.3528 100.03495 121.33339 100.38104 C 121.6218 100.4964 122.14094 100.95786 122.48703 101.477 Z" fill="#FFFFFF"/>
        </g>
        <g id="Graphic_916">
          <path d="M 240.38903 101.82309 C 240.7928 102.1115 241.36962 103.14978 241.65803 104.18805 C 242.81167 108.28347 238.6009 120.80047 233.29414 129.049 C 228.21813 136.83606 218.3545 148.43014 214.72054 150.7951 C 213.16313 151.83338 211.6634 151.4296 211.6634 149.92988 C 211.6634 148.66087 216.04723 144.33472 218.18146 143.52717 C 219.27742 143.1234 220.20033 142.02744 221.06556 140.18162 C 221.75775 138.6242 223.08443 136.43229 224.00734 135.22097 C 226.0262 132.5676 231.04455 124.37675 233.52487 119.64683 C 235.31301 116.35895 237.04347 109.61016 237.04347 106.14924 C 237.04347 102.39991 238.42784 100.61177 240.38903 101.82309 Z" fill="#FFFFFF"/>
        </g>
        <g id="Graphic_915">
          <path d="M 249.4451 111.22526 C 252.27152 115.03227 270.21062 131.76005 274.59446 134.58646 C 276.3249 135.7401 278.45915 137.41288 279.32438 138.27811 C 280.1896 139.20102 281.68934 140.12394 282.61225 140.29698 C 285.26562 140.8738 286.65 143.06572 286.65 146.75737 C 286.65 153.44848 284.45808 153.85225 278.45915 148.19942 C 276.15187 146.0075 273.2101 143.4695 271.8834 142.54658 C 270.5567 141.56599 267.7303 139.37407 265.53838 137.52825 C 263.34647 135.7401 259.3664 132.5676 256.65535 130.43336 C 251.3486 126.28026 243.79227 118.55087 243.15777 116.58968 C 242.81167 115.37836 244.023 110.99453 245.17664 109.61016 C 246.2726 108.28347 247.65696 108.80261 249.4451 111.22526 Z" fill="#FFFFFF"/>
        </g>
        <g id="Graphic_914">
          <path d="M 126.29404 113.47485 C 126.29404 113.76326 126.06331 114.05167 125.7749 114.05167 C 125.42881 114.05167 125.02504 113.76326 124.85199 113.47485 C 124.67894 113.12876 124.90967 112.89803 125.37113 112.89803 C 125.89027 112.89803 126.29404 113.12876 126.29404 113.47485 Z" fill="#FFFFFF"/>
        </g>
        <g id="Graphic_913">
          <path d="M 129.17814 115.72445 C 129.17814 116.58968 125.65954 119.87755 125.08272 119.47378 C 124.10212 118.89696 124.56358 117.62796 126.06331 116.41663 C 127.6784 115.14763 129.17814 114.80154 129.17814 115.72445 Z" fill="#FFFFFF"/>
        </g>
        <g id="Graphic_912">
          <path d="M 130.04337 122.24252 C 129.58191 123.39616 127.15927 124.66516 126.35172 124.2037 C 125.31345 123.51152 125.60186 122.87702 127.56304 121.60801 C 129.52423 120.39669 130.62019 120.6851 130.04337 122.24252 Z" fill="#FFFFFF"/>
        </g>
        <g id="Graphic_911">
          <path d="M 107.8358 124.8382 C 107.8358 125.99185 105.64388 128.47217 104.54793 128.47217 C 103.27892 128.47217 103.6827 126.85708 105.35547 125.29966 C 107.2013 123.62688 107.8358 123.51152 107.8358 124.8382 Z" fill="#FFFFFF"/>
        </g>
        <g id="Graphic_910">
          <path d="M 133.21588 125.41503 C 133.21588 126.28026 130.04337 129.049 129.06278 129.049 C 127.39 129.049 127.85145 127.54926 129.928 126.22257 C 131.77383 125.01125 133.21588 124.66516 133.21588 125.41503 Z" fill="#FFFFFF"/>
        </g>
        <g id="Graphic_909">
          <path d="M 110.14308 129.56813 C 110.14308 130.26031 105.87461 133.66355 105.00938 133.66355 C 103.62501 133.66355 104.49024 131.87541 106.50911 130.49104 C 108.75871 128.99131 110.14308 128.64522 110.14308 129.56813 Z" fill="#FFFFFF"/>
        </g>
        <g id="Graphic_908">
          <path d="M 135.17707 130.66409 C 135.35011 130.9525 134.60025 132.04846 133.50429 133.08673 C 131.77383 134.75951 131.48542 134.87487 131.13933 134.00964 C 130.85092 133.25978 131.25469 132.5676 132.40833 131.587 C 134.25415 130.14495 134.71561 129.9719 135.17707 130.66409 Z" fill="#FFFFFF"/>
        </g>
        <g id="Graphic_907">
          <path d="M 252.6753 132.50991 C 254.34807 133.43282 254.00198 135.56706 251.6947 138.39348 C 250.54106 139.72016 249.1567 141.79671 248.69524 142.89267 C 247.36855 146.06518 242.98472 151.19888 234.50547 159.50509 C 226.3723 167.52288 224.8149 168.38811 224.4688 165.2156 C 224.29575 163.88892 225.27635 162.50455 230.81382 156.5633 C 240.56208 146.06518 244.6575 141.27758 247.13782 137.41288 C 249.4451 133.8366 250.88715 131.9331 251.29093 131.9331 C 251.4063 131.9331 252.0408 132.2215 252.6753 132.50991 Z" fill="#FFFFFF"/>
        </g>
        <g id="Graphic_906">
          <path d="M 297.8403 133.43282 C 299.22467 134.75951 298.93626 135.85547 297.09043 136.77838 C 296.2252 137.23984 295.0139 138.27811 294.49474 139.08566 C 293.3411 140.8738 292.24515 140.98917 290.68773 139.43175 C 289.01495 137.75897 289.24568 135.7401 291.32223 134.00964 C 293.3411 132.27918 296.45593 131.99077 297.8403 133.43282 Z" fill="#FFFFFF"/>
        </g>
        <g id="Graphic_905">
          <path d="M 112.45036 133.60587 C 112.45036 134.4711 107.31666 138.39348 106.68216 137.9897 C 105.64388 137.3552 106.04766 136.60533 108.52798 134.8172 C 110.89295 133.08673 112.45036 132.62528 112.45036 133.60587 Z" fill="#FFFFFF"/>
        </g>
        <g id="Graphic_904">
          <path d="M 66.59317 135.39401 C 66.996945 137.23984 67.91986 137.58593 69.0735 136.43229 C 69.65032 135.85547 69.93873 135.85547 70.28482 136.48997 C 70.80396 137.3552 70.57323 138.6242 69.592635 139.83553 C 68.727405 141.04685 65.266486 140.75844 64.5743 139.48943 C 63.07457 136.60533 62.90152 135.4517 63.76675 134.52878 C 65.15112 133.2021 66.1894 133.4905 66.59317 135.39401 Z" fill="#FFFFFF"/>
        </g>
        <g id="Graphic_903">
          <path d="M 135.92693 136.77838 C 135.46548 137.87434 133.7927 137.9897 133.7927 136.95143 C 133.7927 136.54765 134.08111 135.91315 134.48488 135.50938 C 135.35011 134.64415 136.38839 135.56706 135.92693 136.77838 Z" fill="#FFFFFF"/>
        </g>
        <g id="Graphic_902">
          <path d="M 139.2148 139.95089 C 139.38785 140.18162 138.86871 141.04685 138.11885 141.73903 C 137.02289 142.7773 136.50375 142.95035 135.98461 142.43122 C 135.52316 141.96976 135.6962 141.5083 136.73448 140.64307 C 138.2919 139.31639 138.75335 139.20102 139.2148 139.95089 Z" fill="#FFFFFF"/>
        </g>
        <g id="Graphic_901">
          <path d="M 112.45036 141.73903 C 112.45036 142.7773 110.89295 144.04631 109.62394 144.04631 C 108.41262 144.04631 108.98944 141.33526 110.31613 140.75844 C 111.87354 140.00857 112.45036 140.29698 112.45036 141.73903 Z" fill="#FFFFFF"/>
        </g>
        <g id="Graphic_900">
          <path d="M 89.37756 146.642 C 89.37756 147.79564 86.78187 150.39133 85.62823 150.39133 C 84.1285 150.39133 84.70532 148.43014 86.66651 147.10346 C 88.9161 145.60373 89.37756 145.54604 89.37756 146.642 Z" fill="#FFFFFF"/>
        </g>
        <g id="Graphic_899">
          <path d="M 142.61804 146.18055 C 142.79109 146.46896 142.67573 147.21882 142.38732 147.911 C 141.8105 149.5261 139.5609 149.75683 139.5609 148.19942 C 139.5609 146.46896 141.86818 144.91154 142.61804 146.18055 Z" fill="#FFFFFF"/>
        </g>
        <g id="Graphic_898">
          <path d="M 293.6872 150.96815 C 293.57183 154.89053 293.22574 155.9288 290.39932 161.63932 C 288.61118 165.10024 287.2268 168.33043 287.2268 168.67652 C 287.2268 170.3493 281.63166 180.55902 278.40147 184.7698 C 277.19015 186.32722 275.402 188.80754 274.36373 190.30727 C 269.40308 197.63289 266.7497 200.97844 264.90388 202.30513 C 263.80792 203.11268 262.2505 204.43936 261.38528 205.3046 C 259.82786 207.03505 258.4435 207.32346 257.34754 206.2275 C 256.13622 205.01618 256.59767 202.93963 258.4435 201.32454 C 259.4241 200.40162 261.15455 198.38275 262.3082 196.82534 C 263.40415 195.21024 265.07693 193.1337 265.94216 192.21078 C 271.76804 185.92344 285.78476 163.54283 286.9961 158.69754 C 287.39986 156.9094 290.457 149.12233 291.3799 147.33419 C 291.66833 146.75737 292.3605 146.3536 292.87965 146.46896 C 293.6872 146.642 293.86024 147.33419 293.6872 150.96815 Z" fill="#FFFFFF"/>
        </g>
        <g id="Graphic_897">
          <path d="M 269.9222 147.79564 C 270.72976 148.77624 269.86453 150.39133 264.2117 158.69754 C 260.11627 164.69647 257.809 167.4652 250.02192 175.59836 C 242.81167 183.1547 239.46612 185.80808 238.42784 184.94285 C 237.04347 183.7892 237.50493 182.92398 242.1195 178.25174 C 244.54213 175.77141 246.96478 172.945 247.42623 172.07976 C 247.8877 171.15685 249.61815 169.25334 251.29093 167.8113 C 252.90602 166.42693 255.09794 164.06196 256.13622 162.56223 C 257.1745 161.12018 259.13568 158.58218 260.52005 156.96708 C 261.90442 155.35198 263.00037 153.85225 263.00037 153.62152 C 263.00037 153.44848 263.80792 151.83338 264.7885 150.10292 C 266.69202 146.75737 268.42248 145.94982 269.9222 147.79564 Z" fill="#FFFFFF"/>
        </g>
        <g id="Graphic_896">
          <path d="M 117.06492 150.39133 C 117.06492 151.02583 116.66115 151.54497 116.19969 151.54497 C 115.33446 151.54497 114.98837 150.33365 115.73823 149.64147 C 116.43042 148.8916 117.06492 149.2377 117.06492 150.39133 Z" fill="#FFFFFF"/>
        </g>
        <g id="Graphic_895">
          <path d="M 206.70274 150.1606 C 207.91407 150.62206 212.644 157.65926 213.10545 159.73582 C 213.33617 160.60105 214.31677 162.15846 215.35504 163.19674 C 216.33564 164.23501 218.58524 166.8307 220.25801 168.96493 C 221.9308 171.15685 224.06503 173.46413 225.04562 174.09863 C 225.96853 174.79082 228.3335 177.32882 230.237 179.75147 C 232.1405 182.17411 233.98633 184.36603 234.3901 184.71212 C 234.79388 185.00053 236.12056 186.731 237.44725 188.46145 C 238.71625 190.1919 240.5044 192.26846 241.36962 193.076 C 242.23485 193.88356 243.84995 195.9601 245.0036 197.69057 C 246.09955 199.42103 247.71464 201.67063 248.63756 202.59354 C 250.59874 204.6701 255.09794 213.14935 254.63648 213.8992 C 254.40576 214.18762 253.9443 214.41835 253.54053 214.41835 C 252.73298 214.41835 249.1567 210.78438 245.9265 206.63128 C 244.71518 205.01618 242.00413 201.90136 239.8699 199.65176 C 237.79334 197.40216 235.19765 194.28733 234.15937 192.72992 C 231.2176 188.46145 228.50654 185.00053 227.23754 183.90457 C 226.66072 183.38543 225.56476 182.05875 224.8149 180.9628 C 222.27688 177.0981 211.60571 163.13905 210.91353 162.6776 C 210.3367 162.3315 206.35665 157.48622 202.95341 152.92934 C 202.3766 152.17947 203.934 149.81451 205.02997 149.81451 C 205.43374 149.81451 206.2413 149.98756 206.70274 150.1606 Z" fill="#FFFFFF"/>
        </g>
        <g id="Graphic_894">
          <path d="M 90.5312 151.54497 C 91.28107 152.98702 90.81961 153.85225 89.31988 153.85225 C 88.57001 153.85225 88.22392 153.44848 88.22392 152.52557 C 88.22392 150.1606 89.49292 149.64147 90.5312 151.54497 Z" fill="#FFFFFF"/>
        </g>
        <g id="Graphic_893">
          <path d="M 149.59757 151.31424 C 150.17439 152.81398 150.00134 155.46735 149.30916 155.9288 C 148.55929 156.39026 146.54042 154.0253 146.48274 152.64093 C 146.48274 150.73742 148.96306 149.64147 149.59757 151.31424 Z" fill="#FFFFFF"/>
        </g>
        <g id="Graphic_892">
          <path d="M 122.83312 151.48729 C 122.83312 151.7757 121.73716 153.0447 120.46816 154.37139 C 118.1032 156.73635 116.4881 157.42854 116.4881 155.98649 C 116.54578 153.96762 122.83312 149.46842 122.83312 151.48729 Z" fill="#FFFFFF"/>
        </g>
        <g id="Graphic_891">
          <path d="M 145.90592 154.83285 C 145.90592 156.33258 144.983 157.5439 144.23314 157.08244 C 143.54096 156.62099 143.36791 154.83285 144.00241 154.25603 C 144.75228 153.50616 145.90592 153.85225 145.90592 154.83285 Z" fill="#FFFFFF"/>
        </g>
        <g id="Graphic_890">
          <path d="M 72.64978 155.23662 C 72.64978 156.04417 68.0929 160.19727 67.22767 160.19727 C 66.1894 160.19727 67.16999 158.5245 69.36191 156.62099 C 72.01528 154.25603 72.64978 154.0253 72.64978 155.23662 Z" fill="#FFFFFF"/>
        </g>
        <g id="Graphic_889">
          <path d="M 95.14576 156.39026 C 95.14576 156.79403 94.22285 157.89 93.12689 158.69754 C 91.33875 160.0819 91.05034 160.13959 90.70425 159.27436 C 90.47352 158.58218 90.87729 157.89 92.03093 156.9094 C 93.93444 155.40967 95.14576 155.17894 95.14576 156.39026 Z" fill="#FFFFFF"/>
        </g>
        <g id="Graphic_888">
          <path d="M 165.22939 157.5439 C 171.9205 157.60158 174.91996 158.1784 174.57387 159.27436 C 174.34314 159.90886 173.5356 159.96654 161.76847 159.73582 C 155.76954 159.62045 155.13504 159.50509 155.13504 158.58218 C 155.13504 157.02476 155.76954 156.62099 157.44232 157.08244 C 158.24987 157.31317 161.76847 157.5439 165.22939 157.5439 Z" fill="#FFFFFF"/>
        </g>
        <g id="Graphic_887">
          <path d="M 123.98676 158.92827 C 123.98676 160.428 122.31398 162.50455 121.16034 162.50455 C 119.54525 162.50455 119.31452 161.00482 120.58352 159.38972 C 121.96789 157.65926 123.98676 157.37085 123.98676 158.92827 Z" fill="#FFFFFF"/>
        </g>
        <g id="Graphic_886">
          <path d="M 74.66865 159.04363 C 75.24547 160.02423 74.38024 161.92773 73.341965 161.92773 C 72.82283 161.92773 71.72687 162.44687 70.91932 163.08137 C 67.63145 165.67706 67.74681 163.3121 71.09237 160.54336 C 73.68806 158.35145 74.09183 158.1784 74.66865 159.04363 Z" fill="#FFFFFF"/>
        </g>
        <g id="Graphic_885">
          <path d="M 198.10813 159.04363 C 198.74263 159.04363 199.83859 159.38972 200.4154 159.85118 C 201.396 160.54336 200.81918 160.65873 195.51244 160.54336 C 189.28278 160.48568 186.80245 159.85118 188.93669 158.92827 C 189.5135 158.69754 191.59006 158.58218 193.43588 158.75522 C 195.2817 158.92827 197.41594 159.04363 198.10813 159.04363 Z" fill="#FFFFFF"/>
        </g>
        <g id="Graphic_884">
          <path d="M 170.99759 162.61992 C 174.63155 163.36978 175.90056 164.06196 175.90056 165.10024 C 175.90056 166.08083 173.1895 166.1962 160.67251 165.5617 C 152.48167 165.2156 150.05902 164.52342 151.55875 162.966 C 153.11617 161.4086 164.47952 161.17787 170.99759 162.61992 Z" fill="#FFFFFF"/>
        </g>
        <g id="Graphic_883">
          <path d="M 127.0439 165.79242 L 126.69781 168.21507 L 124.5059 167.06143 C 121.44875 165.50401 121.50643 162.90833 124.56358 162.38919 C 126.7555 162.0431 127.44768 163.02369 127.0439 165.79242 Z" fill="#FFFFFF"/>
        </g>
        <g id="Graphic_882">
          <path d="M 96.2994 163.6582 C 96.2994 164.40806 95.89563 164.81183 95.20344 164.81183 C 93.93444 164.81183 93.18457 163.9466 93.70371 163.08137 C 94.3959 161.98541 96.2994 162.44687 96.2994 163.6582 Z" fill="#FFFFFF"/>
        </g>
        <g id="Graphic_881">
          <path d="M 76.97593 163.6582 C 77.55275 164.5811 75.360835 167.86898 74.09183 167.98434 C 73.45733 168.0997 72.476735 168.33043 71.9576 168.56116 C 69.99641 169.3687 70.86164 167.23447 73.341965 165.15792 C 75.87997 162.966 76.39911 162.73528 76.97593 163.6582 Z" fill="#FFFFFF"/>
        </g>
        <g id="Graphic_880">
          <path d="M 140.88758 166.65765 C 141.11831 167.52288 140.5415 168.4458 138.81103 170.0609 C 136.15766 172.48354 135.23475 172.77195 134.71561 171.38758 C 133.96574 169.4264 134.4272 167.52288 136.27302 165.38865 L 138.11885 163.13905 L 139.38785 164.2927 C 140.02235 164.98488 140.71454 166.02315 140.88758 166.65765 Z" fill="#FFFFFF"/>
        </g>
        <g id="Graphic_879">
          <path d="M 201.1076 164.35037 C 202.43428 164.63878 203.6456 165.33097 203.81864 165.79242 C 204.16474 166.5423 202.89573 166.65765 194.12807 166.42693 C 188.5906 166.31156 183.86067 166.02315 183.57226 165.73474 C 183.34153 165.50401 183.7453 164.75415 184.49517 164.17733 C 185.76418 163.13905 186.51404 163.08137 192.28224 163.36978 C 195.80085 163.54283 199.7809 164.00428 201.1076 164.35037 Z" fill="#FFFFFF"/>
        </g>
        <g id="Graphic_878">
          <path d="M 99.12582 167.34984 C 99.64496 167.98434 99.58727 168.38811 98.83741 169.13798 C 97.97218 170.00321 97.79913 170.00321 96.99158 169.19566 C 96.24172 168.50348 96.24172 168.15739 96.87622 167.4652 C 97.74145 166.31156 98.26059 166.31156 99.12582 167.34984 Z" fill="#FFFFFF"/>
        </g>
        <g id="Graphic_877">
          <path d="M 166.7868 167.75361 C 166.90217 168.0997 168.63263 168.56116 170.59381 168.79189 C 174.8046 169.31103 176.36201 170.29162 173.88169 170.92612 C 172.2666 171.3299 156.34636 170.86844 155.8849 170.40698 C 155.76954 170.23394 155.82722 169.48407 156.05795 168.61884 C 156.40404 167.11911 156.5194 167.11911 161.48006 167.11911 C 164.65257 167.11911 166.67144 167.34984 166.7868 167.75361 Z" fill="#FFFFFF"/>
        </g>
        <g id="Graphic_876">
          <path d="M 149.25147 169.25334 C 149.42452 170.40698 149.1938 170.58003 147.69406 170.58003 C 145.84824 170.58003 145.6175 170.23394 146.25201 168.56116 C 146.82883 167.1768 149.02075 167.69593 149.25147 169.25334 Z" fill="#FFFFFF"/>
        </g>
        <g id="Graphic_875">
          <path d="M 197.64667 169.02262 C 201.33832 169.65712 204.33778 171.15685 203.53023 171.9644 C 203.0111 172.48354 182.53399 171.44526 182.53399 170.92612 C 182.53399 170.58003 183.4569 170.11857 184.55286 169.83016 C 185.64881 169.59944 186.9755 168.96493 187.43696 168.4458 C 188.35987 167.52288 189.16742 167.58057 197.64667 169.02262 Z" fill="#FFFFFF"/>
        </g>
        <g id="Graphic_874">
          <path d="M 79.91771 169.13798 C 80.14844 169.59944 80.09076 170.6954 79.91771 171.50294 C 79.6293 172.65658 79.28321 172.88731 78.3603 172.5989 C 77.7258 172.36817 76.62984 172.5989 75.82229 173.11804 C 74.09183 174.27168 73.80342 174.27168 73.80342 173.2334 C 73.80342 172.42585 78.244935 168.33043 79.16785 168.27275 C 79.398575 168.27275 79.74467 168.67652 79.91771 169.13798 Z" fill="#FFFFFF"/>
        </g>
        <g id="Graphic_873">
          <path d="M 102.0676 172.77195 C 102.0676 174.15631 100.97164 175.1946 99.99105 174.79082 C 99.12582 174.5024 98.89509 172.77195 99.58727 172.13744 C 100.39482 171.3299 102.0676 171.73367 102.0676 172.77195 Z" fill="#FFFFFF"/>
        </g>
        <g id="Graphic_872">
          <path d="M 150.1167 173.11804 C 151.32803 174.04095 151.32803 174.56009 150.1167 175.88677 C 148.79002 177.32882 145.27142 177.27114 144.3485 175.77141 C 142.84877 173.40645 147.5787 171.21453 150.1167 173.11804 Z" fill="#FFFFFF"/>
        </g>
        <g id="Graphic_871">
          <path d="M 169.44017 174.32936 C 173.24719 175.1946 174.97765 176.34823 173.99705 177.27114 C 173.824 177.44419 169.95931 177.55955 165.40243 177.55955 C 157.78841 177.50187 157.09623 177.3865 156.17331 176.29055 C 155.5965 175.59836 155.13504 174.8485 155.13504 174.56009 C 155.13504 172.88731 162.9221 172.77195 169.44017 174.32936 Z" fill="#FFFFFF"/>
        </g>
        <g id="Graphic_870">
          <path d="M 106.91289 175.65605 C 107.08593 175.94446 106.33607 176.98273 105.29779 178.021 C 103.27892 179.9822 102.0676 179.69379 103.22124 177.55955 C 104.14415 175.77141 106.27839 174.67545 106.91289 175.65605 Z" fill="#FFFFFF"/>
        </g>
        <g id="Graphic_869">
          <path d="M 196.37767 176.34823 C 197.41594 176.752 197.30058 176.86737 195.2817 177.7326 C 191.70542 179.23233 181.38035 178.6555 181.38035 176.92505 C 181.38035 176.40591 182.07253 175.94446 183.05312 175.77141 C 185.30272 175.36764 194.87793 175.77141 196.37767 176.34823 Z" fill="#FFFFFF"/>
        </g>
        <g id="Graphic_868">
          <path d="M 203.76096 177.21346 C 203.58792 178.021 202.08818 178.25174 199.7809 177.79028 C 196.66608 177.21346 197.47362 176.29055 200.87686 176.4636 C 202.49196 176.57896 203.81864 176.86737 203.76096 177.21346 Z" fill="#FFFFFF"/>
        </g>
        <g id="Graphic_867">
          <path d="M 86.14737 177.32882 C 86.60882 177.84796 81.8789 182.69325 80.89831 182.69325 C 79.6293 182.69325 80.03308 181.65497 82.22499 179.23233 C 84.24386 176.98273 85.28214 176.4636 86.14737 177.32882 Z" fill="#FFFFFF"/>
        </g>
        <g id="Graphic_866">
          <path d="M 129.75496 178.0787 C 129.75496 178.7132 129.35118 179.40538 128.88973 179.6361 C 127.6784 180.09756 127.27463 179.57842 127.73609 178.13637 C 128.19755 176.57896 129.75496 176.57896 129.75496 178.0787 Z" fill="#FFFFFF"/>
        </g>
        <g id="Graphic_865">
          <path d="M 215.64345 177.67492 C 216.50868 178.77087 215.87418 179.23233 213.39386 179.23233 C 211.43267 179.23233 209.93294 178.42478 209.93294 177.3865 C 209.93294 176.57896 214.95127 176.86737 215.64345 177.67492 Z" fill="#FFFFFF"/>
        </g>
        <g id="Graphic_864">
          <path d="M 108.29726 181.36656 C 106.39375 183.27007 106.10534 183.38543 105.75925 182.40484 C 105.18243 181.02047 108.75871 177.61723 109.7393 178.59783 C 110.20076 179.05928 109.79699 179.80915 108.29726 181.36656 Z" fill="#FFFFFF"/>
        </g>
        <g id="Graphic_863">
          <path d="M 146.77115 180.38597 C 146.77115 181.36656 143.25255 181.8857 140.8299 181.2512 C 138.98408 180.78974 139.61858 180.2706 142.61804 179.75147 C 145.84824 179.23233 146.77115 179.3477 146.77115 180.38597 Z" fill="#FFFFFF"/>
        </g>
        <g id="Graphic_862">
          <path d="M 171.5744 180.32829 C 172.555 180.55902 173.36255 181.19352 173.47791 181.77034 C 173.70864 182.75093 173.24719 182.80861 165.69084 182.46252 C 153.05849 181.82802 150.4628 181.2512 154.73126 179.9822 C 156.69245 179.40538 168.6903 179.6361 171.5744 180.32829 Z" fill="#FFFFFF"/>
        </g>
        <g id="Graphic_861">
          <path d="M 198.10813 181.02047 C 201.91514 181.30888 207.5103 181.82802 210.50976 182.05875 C 213.50922 182.28948 216.50868 182.75093 217.14319 183.1547 C 218.0661 183.67384 216.39332 183.7892 209.35612 183.7892 C 197.12753 183.73153 181.78412 183.03934 181.26498 182.46252 C 181.03425 182.2318 181.43803 181.48193 182.24558 180.84743 C 183.4569 179.86683 184.20676 179.75147 187.43696 180.03988 C 189.5135 180.21292 194.30111 180.67438 198.10813 181.02047 Z" fill="#FFFFFF"/>
        </g>
        <g id="Graphic_860">
          <path d="M 88.62769 183.09702 C 88.85842 183.7892 85.97432 185.86576 85.51287 185.34662 C 85.33982 185.17358 85.62823 184.36603 86.14737 183.55848 C 87.12796 182.05875 88.22392 181.8857 88.62769 183.09702 Z" fill="#FFFFFF"/>
        </g>
        <g id="Graphic_859">
          <path d="M 112.39268 184.65444 C 112.91182 185.28894 112.9695 185.80808 112.45036 186.6733 C 111.75818 188.05768 111.23904 188.17304 110.25844 187.19245 C 109.33553 186.26953 109.39321 184.59676 110.31613 184.25066 C 111.46977 183.73153 111.7005 183.7892 112.39268 184.65444 Z" fill="#FFFFFF"/>
        </g>
        <g id="Graphic_858">
          <path d="M 153.40458 184.88517 C 155.48113 185.23126 156.05795 185.51967 156.17331 186.55794 C 156.34636 187.71158 156.05795 187.82695 151.96253 188.17304 C 148.09783 188.57681 147.2326 188.46145 145.09837 187.3655 C 143.0795 186.3849 142.27195 186.26953 140.65686 186.731 C 138.11885 187.48086 135.52316 187.48086 135.52316 186.731 C 135.52316 186.3849 135.52316 185.98112 135.52316 185.69271 C 135.46548 184.65444 148.04015 184.07762 153.40458 184.88517 Z" fill="#FFFFFF"/>
        </g>
        <g id="Graphic_857">
          <path d="M 92.60775 187.0194 C 93.12689 188.2884 93.81907 189.03827 94.51126 189.03827 C 95.08808 189.03827 95.89563 189.44204 96.2994 189.9035 C 96.70317 190.36496 97.33768 190.76873 97.74145 190.76873 C 99.93337 190.76873 99.76032 194.17197 97.51072 195.3833 C 96.53013 195.90243 95.83794 195.72938 93.70371 194.51806 C 92.31934 193.65283 90.99266 192.4992 90.81961 191.86469 C 90.58888 191.28787 89.95438 190.48032 89.31988 190.1919 C 88.62769 189.78814 88.22392 188.98059 88.22392 187.88463 C 88.22392 186.3849 89.03147 185.69271 91.56948 185.05821 C 91.68484 185.00053 92.1463 185.92344 92.60775 187.0194 Z" fill="#FFFFFF"/>
        </g>
        <g id="Graphic_856">
          <path d="M 171.17063 186.50026 C 171.9205 186.6733 172.43964 187.07708 172.2666 187.48086 C 171.97818 188.40377 163.2682 188.74986 162.40297 187.88463 C 160.7302 186.15417 165.74853 185.34662 171.17063 186.50026 Z" fill="#FFFFFF"/>
        </g>
        <g id="Graphic_855">
          <path d="M 198.56958 187.19245 C 201.7421 187.76927 202.43428 188.2884 201.28064 189.09595 C 200.70382 189.49973 197.8774 189.5574 193.49357 189.32668 C 189.68655 189.09595 185.64881 188.9229 184.55286 188.98059 C 181.66876 189.03827 179.82293 188.51913 180.11134 187.71158 C 180.51512 186.32722 192.28224 186.0388 198.56958 187.19245 Z" fill="#FFFFFF"/>
        </g>
        <g id="Graphic_854">
          <path d="M 207.85638 188.23072 C 209.47148 188.86522 208.83698 189.6151 206.76043 189.6151 C 205.37606 189.6151 204.74156 189.32668 204.74156 188.74986 C 204.74156 187.88463 206.2413 187.59622 207.85638 188.23072 Z" fill="#FFFFFF"/>
        </g>
        <g id="Graphic_853">
          <path d="M 121.10266 191.05714 C 121.10266 191.74932 120.69889 192.4992 120.23743 192.72992 C 119.71829 192.90296 119.3722 193.7682 119.3722 194.92183 C 119.3722 195.9601 119.08379 197.22911 118.79538 197.69057 C 118.33392 198.44044 118.16088 198.44044 117.41101 197.69057 C 116.94956 197.22911 116.37274 196.13316 116.19969 195.26793 C 115.8536 193.94124 116.08433 193.59515 117.58406 192.7876 C 118.56465 192.32614 119.3722 191.40323 119.3722 190.82641 C 119.3722 190.2496 119.54525 189.6151 119.71829 189.44204 C 120.41048 188.80754 121.10266 189.6151 121.10266 191.05714 Z" fill="#FFFFFF"/>
        </g>
        <g id="Graphic_852">
          <path d="M 171.22832 191.98005 C 172.43964 192.38383 173.01646 192.96065 173.01646 193.82588 C 173.01646 194.97952 172.9011 194.97952 159.92264 194.63342 C 136.0423 193.88356 130.85092 193.53747 130.50482 192.61455 C 130.33178 192.1531 130.50482 191.57628 130.96628 191.23019 C 132.06224 190.48032 168.80567 191.1725 171.22832 191.98005 Z" fill="#FFFFFF"/>
        </g>
        <g id="Graphic_851">
          <path d="M 204.74156 192.72992 C 207.1642 193.1337 208.0871 193.99892 207.22188 194.86415 C 206.1836 195.90243 181.03425 195.84475 179.36148 194.80647 C 177.91943 193.88356 179.53452 192.96065 183.51458 192.4415 C 187.3216 191.98005 201.28064 192.21078 204.74156 192.72992 Z" fill="#FFFFFF"/>
        </g>
        <g id="Graphic_850">
          <path d="M 215.98955 193.30674 C 219.0467 194.63342 218.64292 195.9601 215.23968 195.9601 C 211.77876 195.9601 209.87525 194.80647 211.0289 193.4221 C 212.0095 192.26846 213.39386 192.26846 215.98955 193.30674 Z" fill="#FFFFFF"/>
        </g>
        <g id="Graphic_849">
          <path d="M 102.52906 197.51752 C 102.75978 198.9019 101.37542 200.1709 99.99105 199.88249 C 98.49132 199.59408 98.37595 198.49812 99.76032 197.11375 C 101.20237 195.6717 102.29833 195.84475 102.52906 197.51752 Z" fill="#FFFFFF"/>
        </g>
        <g id="Graphic_848">
          <path d="M 129.40887 197.45984 C 131.02396 198.09434 130.38946 198.8442 128.37059 198.8442 C 126.4094 198.8442 125.37113 198.2097 126.121 197.45984 C 126.58245 196.99839 128.25523 196.99839 129.40887 197.45984 Z" fill="#FFFFFF"/>
        </g>
        <g id="Graphic_847">
          <path d="M 166.1523 197.63289 C 169.78627 197.63289 171.286 197.86362 171.80514 198.44044 C 172.15123 198.95957 172.2666 199.42103 172.03586 199.59408 C 171.286 199.99785 132.63906 199.07494 132.23528 198.61348 C 130.96628 197.40216 134.4272 197.11375 147.34797 197.34448 C 154.962 197.51752 163.44125 197.63289 166.1523 197.63289 Z" fill="#FFFFFF"/>
        </g>
        <g id="Graphic_846">
          <path d="M 200.87686 198.95957 C 202.72269 199.30567 204.33778 199.8248 204.5685 200.1709 C 204.9146 200.74772 179.41916 200.22858 178.84234 199.70944 C 178.72698 199.59408 178.78466 199.07494 178.9577 198.5558 C 179.3038 197.80593 180.5728 197.74825 188.41755 197.97898 C 193.43588 198.15203 199.03104 198.61348 200.87686 198.95957 Z" fill="#FFFFFF"/>
        </g>
        <g id="Graphic_845">
          <path d="M 105.98998 200.74772 C 106.2207 201.90136 103.39429 203.86254 102.58674 203.055 C 102.24065 202.7089 102.47137 201.95904 103.27892 200.92076 C 104.54793 199.24798 105.70157 199.1903 105.98998 200.74772 Z" fill="#FFFFFF"/>
        </g>
        <g id="Graphic_844">
          <path d="M 226.94913 200.63235 C 227.23754 200.92076 226.0839 201.1515 223.77662 201.1515 C 218.52755 201.1515 211.77876 200.4593 212.9324 200.05553 C 214.43213 199.5364 226.31462 199.99785 226.94913 200.63235 Z" fill="#FFFFFF"/>
        </g>
        <g id="Graphic_843">
          <path d="M 116.4881 203.22804 C 116.4881 203.6895 116.25737 204.0356 115.91128 204.0356 C 115.62287 204.0356 115.33446 203.51645 115.33446 202.82427 C 115.33446 202.18977 115.62287 201.84367 115.91128 202.01672 C 116.25737 202.18977 116.4881 202.76659 116.4881 203.22804 Z" fill="#FFFFFF"/>
        </g>
        <g id="Graphic_842">
          <path d="M 159.28814 203.11268 C 160.7302 203.74718 162.51833 203.86254 165.69084 203.63182 C 170.017 203.28572 172.32427 203.92023 171.51673 205.2469 C 170.88222 206.28519 138.46494 205.41996 138.34958 204.324 C 138.11885 202.88195 141.23368 202.30513 149.13611 202.30513 C 154.962 202.30513 157.8461 202.53586 159.28814 203.11268 Z" fill="#FFFFFF"/>
        </g>
        <g id="Graphic_841">
          <path d="M 125.71722 203.11268 C 125.71722 203.22804 125.08272 203.45877 124.27517 203.57413 C 123.5253 203.74718 123.00617 203.63182 123.17921 203.40109 C 123.46762 202.88195 125.71722 202.65122 125.71722 203.11268 Z" fill="#FFFFFF"/>
        </g>
        <g id="Graphic_840">
          <path d="M 206.06824 204.6701 C 208.95234 206.2275 206.76043 206.45823 192.62834 206.2275 C 184.66822 206.05446 178.0348 205.76605 177.86175 205.593 C 176.59274 204.38168 180.05366 203.57413 182.4763 204.55473 C 183.1108 204.78546 184.89895 204.6701 186.51404 204.26632 C 189.80192 203.40109 204.2801 203.74718 206.06824 204.6701 Z" fill="#FFFFFF"/>
        </g>
        <g id="Graphic_839">
          <path d="M 112.68109 205.53532 C 113.25791 207.03505 113.08486 207.4965 111.87354 207.4965 C 111.00831 207.4965 110.7199 207.09274 110.7199 206.05446 C 110.7199 204.43936 112.10427 204.09327 112.68109 205.53532 Z" fill="#FFFFFF"/>
        </g>
        <g id="Graphic_838">
          <path d="M 230.5831 205.65069 C 232.60196 205.99678 234.3901 206.40055 234.56315 206.5736 C 234.79388 206.74664 230.64077 206.9197 225.33403 206.9197 C 216.33564 206.9197 213.913 206.51592 215.98955 205.36228 C 217.0855 204.72777 225.68012 204.90082 230.5831 205.65069 Z" fill="#FFFFFF"/>
        </g>
        <g id="Graphic_837">
          <path d="M 124.90967 208.93856 C 125.83258 209.68843 125.89027 209.86147 125.1404 210.3806 C 123.8714 211.18816 120.75657 211.0728 120.0067 210.14988 C 118.56465 208.41942 122.83312 207.38115 124.90967 208.93856 Z" fill="#FFFFFF"/>
        </g>
        <g id="Graphic_836">
          <path d="M 160.038 208.70783 C 169.90163 208.53479 169.6709 208.53479 170.9399 209.7461 C 172.38196 211.24584 171.74745 212.6879 169.3825 213.3224 C 168.51726 213.55312 162.46065 213.38007 155.82722 212.9763 C 149.25147 212.57253 141.11831 212.22643 137.6574 212.22643 C 130.85092 212.16875 129.17814 211.88034 129.17814 210.66902 C 129.17814 208.53479 132.5237 208.07333 146.19433 208.41942 C 152.88544 208.59247 159.1151 208.70783 160.038 208.70783 Z" fill="#FFFFFF"/>
        </g>
        <g id="Graphic_835">
          <path d="M 229.42945 211.0728 C 229.6025 211.88034 228.79495 212.05339 223.94966 212.3418 C 220.83483 212.57253 217.02782 212.9763 215.41273 213.20703 C 213.5669 213.55312 212.12485 213.49544 211.43267 213.14935 C 210.16366 212.45716 194.93562 212.39948 185.01431 213.03398 C 180.39975 213.3224 178.55393 213.20703 177.91943 212.6879 C 176.76579 211.7073 176.82347 211.0151 178.20784 210.49597 C 178.78466 210.26525 190.55178 210.0922 204.2801 210.0922 C 227.0068 210.0922 229.2564 210.14988 229.42945 211.0728 Z" fill="#FFFFFF"/>
        </g>
        <g id="Graphic_834">
          <path d="M 119.48756 216.55258 C 119.94902 217.1294 120.75657 218.34072 121.16034 219.26364 C 121.67948 220.3019 122.71776 221.22482 123.8714 221.57092 C 124.90967 221.917 126.17868 222.8976 126.7555 223.70515 C 129.35118 227.51216 132.63906 230.97308 136.38839 233.56877 C 138.5803 235.1262 142.27195 237.77956 144.46387 239.51002 C 148.2132 242.39412 149.42452 243.14398 155.13504 246.14345 C 159.05741 248.22 165.28707 250.87337 167.99812 251.68092 C 170.82454 252.54615 171.5744 253.93052 169.90163 255.3149 C 169.20945 255.8917 168.22885 255.71866 165.11402 254.6227 C 156.75013 251.56556 152.94312 249.71973 149.94366 247.35477 C 148.27088 246.02808 145.84824 244.413 144.63691 243.7785 C 142.21427 242.56716 136.15766 238.06797 128.31291 231.60758 C 124.73663 228.72348 122.71776 226.58925 121.79484 224.8011 C 120.9873 223.12833 119.89134 221.9747 118.79538 221.51323 C 116.89187 220.70569 115.91128 219.20595 115.91128 217.07172 C 115.91128 215.8604 116.19969 215.572 117.23797 215.572 C 117.98783 215.572 119.02611 216.03344 119.48756 216.55258 Z" fill="#FFFFFF"/>
        </g>
        <g id="Graphic_833">
          <path d="M 151.3857 217.87927 C 152.19326 218.16768 153.11617 219.0906 153.40458 219.84046 C 153.69299 220.59032 154.21213 221.39787 154.50054 221.6286 C 155.76954 222.37846 155.07736 223.07065 153.11617 223.07065 C 151.32803 223.07065 151.0973 222.8976 151.0973 221.6286 C 151.0973 220.648 150.57816 219.95582 149.36684 219.32132 C 146.48274 217.82159 148.15552 216.66795 151.3857 217.87927 Z" fill="#FFFFFF"/>
        </g>
        <g id="Graphic_832">
          <path d="M 243.61922 219.379 C 244.023 220.47496 242.17717 222.72456 236.12056 228.60812 C 232.65964 232.01136 231.39064 232.8766 228.968 233.4534 C 227.41058 233.85718 226.0839 234.49168 226.0839 234.83778 C 226.0839 235.87605 223.60357 238.0103 219.79656 240.37525 C 217.95073 241.4712 215.06663 243.49008 213.39386 244.81676 C 211.43267 246.48954 209.87525 247.2971 208.72161 247.2971 C 207.7987 247.2971 207.04884 247.52782 207.04884 247.81623 C 207.04884 248.96987 203.53023 250.758 199.83859 251.56556 C 196.95449 252.14238 195.51244 252.83456 194.12807 254.16125 C 193.0898 255.14184 191.99383 255.9494 191.70542 255.9494 C 191.35933 255.9494 190.60947 256.46853 189.97496 257.1607 C 189.16742 258.08362 189.05205 258.4297 189.68655 258.7758 C 190.95556 259.58335 189.39814 263.15964 186.341 266.38983 C 183.68763 269.21625 183.62994 269.21625 180.80353 268.87015 C 179.18843 268.6971 176.88115 268.1203 175.61215 267.65883 C 172.67037 266.5052 169.3248 266.67824 166.38303 268.0626 C 165.11402 268.63943 161.59542 269.9661 158.59596 271.0044 C 153.28921 272.79253 140.71454 278.50305 138.98408 279.8874 C 138.52262 280.2912 136.3307 281.61788 134.08111 282.7715 C 131.8892 283.98284 128.37059 286.40548 126.29404 288.19362 C 119.89134 293.7311 111.93122 302.49876 110.43149 305.72895 C 109.62394 307.34405 107.95116 310.4012 106.62448 312.47775 C 105.29779 314.5543 103.50965 317.84217 102.64442 319.80336 C 101.83687 321.82223 100.56787 324.1295 99.818 324.93706 C 98.72204 326.20606 98.20291 326.3791 96.41476 326.033 C 95.26112 325.85997 93.76139 325.1678 93.18457 324.59096 C 92.03093 323.495 92.03093 323.43732 94.22285 319.28422 C 95.43417 316.97694 97.68377 312.53543 99.29886 309.47828 C 100.85628 306.42114 103.50965 302.3834 105.12475 300.59525 C 112.04659 292.92355 122.08325 282.88688 123.98676 281.79092 C 125.08272 281.09874 126.58245 280.06046 127.21695 279.48364 C 128.659 278.21464 140.5415 271.52353 141.34904 271.52353 C 141.63745 271.52353 143.54096 270.71598 145.50214 269.6777 C 150.23207 267.31274 158.53828 265.1785 163.32588 265.1785 C 168.0558 265.1785 168.80567 264.8901 169.95931 262.69818 C 171.17063 260.27554 176.36201 254.9111 178.49625 253.75747 C 180.8612 252.48847 185.87954 251.91165 188.30219 252.54615 C 189.8596 253.0076 190.72483 252.89224 192.4553 251.96933 C 193.66661 251.3925 195.74316 250.58496 197.06985 250.1812 C 198.45422 249.71973 200.30004 248.5661 201.28064 247.47013 C 202.49196 246.14345 203.53023 245.56663 204.68387 245.56663 C 205.8952 245.56663 206.99115 244.93213 208.49089 243.31703 C 209.7022 242.04803 211.9518 240.37525 213.62458 239.45234 C 215.23968 238.5871 217.89305 237.0297 219.45047 235.99142 C 221.06556 235.01082 223.1421 233.97255 224.1227 233.7995 C 225.27635 233.5111 226.14158 232.8766 226.54535 232.01136 C 227.52595 229.87712 231.73673 225.55097 235.0246 223.2437 C 236.58202 222.14774 238.77393 220.648 239.8699 219.84046 C 242.17717 218.22536 243.10008 218.11 243.61922 219.379 Z" fill="#FFFFFF"/>
        </g>
        <g id="Graphic_831">
          <path d="M 216.62405 221.9747 C 217.14319 222.83992 215.75882 223.64747 213.68227 223.64747 C 212.75935 223.64747 211.60571 223.41674 211.14426 223.12833 C 209.7599 222.2631 211.08658 221.3402 213.68227 221.3402 C 215.06663 221.3402 216.39332 221.6286 216.62405 221.9747 Z" fill="#FFFFFF"/>
        </g>
        <g id="Graphic_830">
          <path d="M 159.51887 226.58925 C 159.69192 226.93534 159.57655 227.51216 159.28814 227.80057 C 158.4806 228.60812 153.86603 227.6852 153.51994 226.64693 C 153.23153 225.7817 158.94205 225.66634 159.51887 226.58925 Z" fill="#FFFFFF"/>
        </g>
        <g id="Graphic_829">
          <path d="M 209.7022 228.20435 C 209.0677 229.18494 204.16474 229.0119 204.16474 228.0313 C 204.16474 227.45448 204.97228 227.1084 206.64506 226.99302 C 209.24075 226.81998 210.27903 227.22375 209.7022 228.20435 Z" fill="#FFFFFF"/>
        </g>
        <g id="Graphic_828">
          <path d="M 165.28707 230.22322 C 166.38303 231.08845 166.38303 231.08845 165.22939 232.01136 C 164.30648 232.70354 163.2682 232.8189 160.32642 232.5305 C 158.24987 232.35745 156.46172 232.06904 156.34636 231.95368 C 156.231 231.8383 156.57709 231.2038 157.1539 230.5693 C 158.42291 229.18494 163.49893 228.9542 165.28707 230.22322 Z" fill="#FFFFFF"/>
        </g>
        <g id="Graphic_827">
          <path d="M 203.0111 232.58818 C 203.0111 233.22268 202.3766 233.4534 200.7615 233.4534 C 199.4925 233.4534 198.28117 233.68414 198.10813 234.03023 C 197.76203 234.60705 194.3588 234.83778 194.3588 234.31864 C 194.3588 234.1456 194.7049 233.5111 195.05098 232.8766 C 195.68548 231.896 196.43535 231.72295 199.37713 231.72295 C 202.20355 231.72295 203.0111 231.896 203.0111 232.58818 Z" fill="#FFFFFF"/>
        </g>
        <g id="Graphic_826">
          <path d="M 165.34475 235.52996 C 165.1717 235.703 164.65257 235.7607 164.2488 235.58764 C 163.78734 235.4146 163.96038 235.24155 164.59489 235.24155 C 165.22939 235.18387 165.57548 235.35691 165.34475 235.52996 Z" fill="#FFFFFF"/>
        </g>
        <g id="Graphic_825">
          <path d="M 195.3394 237.3181 C 195.6278 238.12565 190.78251 238.6448 182.70703 238.6448 C 177.11188 238.6448 175.90056 238.47174 175.90056 237.77956 C 175.90056 237.20274 176.82347 236.91433 179.53452 236.74128 C 185.82186 236.3375 195.16634 236.6836 195.3394 237.3181 Z" fill="#FFFFFF"/>
        </g>
        <g id="Graphic_824">
          <path d="M 185.7065 246.72027 C 185.7065 247.98927 185.47577 249.02755 185.12968 249.02755 C 184.84127 249.02755 184.55286 247.98927 184.55286 246.72027 C 184.55286 245.45126 184.84127 244.413 185.12968 244.413 C 185.47577 244.413 185.7065 245.45126 185.7065 246.72027 Z" fill="#FFFFFF"/>
        </g>
        <g id="Graphic_823">
          <path d="M 180.51512 247.35477 C 181.14962 248.8545 181.14962 249.2006 180.45743 249.66205 C 178.72698 250.758 177.91943 249.8351 178.49625 247.2971 C 178.9577 245.10517 179.5922 245.10517 180.51512 247.35477 Z" fill="#FFFFFF"/>
        </g>
        <g id="Graphic_822">
          <path d="M 213.10545 265.00546 C 215.35504 265.98605 218.18146 266.90897 219.45047 267.1397 C 221.46934 267.54347 226.60303 269.79307 238.02407 275.38822 C 239.69685 276.19577 241.60035 277.52245 242.29254 278.27232 C 243.0424 279.0222 244.59982 279.8874 245.86882 280.2335 C 247.13782 280.5796 249.32974 281.9063 250.82947 283.29065 C 252.27152 284.61734 254.9249 286.75157 256.65535 288.07826 C 262.885 292.8082 265.59606 296.15374 268.53785 302.6718 C 269.9799 306.01736 272.2295 309.99742 273.38313 311.6125 C 276.3826 315.59257 279.15133 321.01468 279.15133 322.8605 C 279.15133 324.87937 277.76697 326.14838 276.61333 325.22547 C 276.20955 324.87937 275.1136 322.97587 274.24836 320.957 C 273.32545 318.9958 272.1718 316.7462 271.595 315.93866 C 271.07585 315.1311 270.44135 313.5737 270.2683 312.42006 C 270.03758 311.09338 268.9993 309.4206 267.26884 307.5171 C 265.7691 305.95968 263.75024 303.364 262.65428 301.80658 C 260.28932 298.1726 251.9831 289.69336 248.57987 287.38608 C 247.1955 286.40548 244.83054 284.61734 243.3885 283.29065 C 241.65803 281.73324 240.04294 280.81033 238.6009 280.5796 C 236.52434 280.2335 234.044 278.50305 229.66018 274.29226 C 228.73727 273.42703 227.58363 273.02326 225.33403 272.96558 C 223.60357 272.9079 220.3157 272.10035 217.4316 271.0044 C 212.644 269.15856 210.91353 268.87015 198.56958 267.37042 C 192.22456 266.62056 191.59006 266.21678 193.83966 263.9672 C 195.05098 262.75586 195.51244 262.75586 202.08818 262.9866 C 208.20248 263.275 209.64453 263.5634 213.10545 265.00546 Z" fill="#FFFFFF"/>
        </g>
        <g id="Graphic_821">
          <path d="M 208.7793 272.10035 C 208.7793 273.08094 208.37552 273.254 205.8952 273.254 C 203.87633 273.254 203.0111 273.02326 203.0111 272.50412 C 203.0111 271.23512 203.6456 270.9467 206.29897 270.9467 C 208.37552 270.9467 208.7793 271.11975 208.7793 272.10035 Z" fill="#FFFFFF"/>
        </g>
        <g id="Graphic_820">
          <path d="M 162.6337 274.98445 C 162.6337 275.96504 162.22992 276.1381 159.7496 276.1381 C 157.73073 276.1381 156.8655 275.90736 156.8655 275.38822 C 156.8655 274.11922 157.5 273.8308 160.15337 273.8308 C 162.22992 273.8308 162.6337 274.00385 162.6337 274.98445 Z" fill="#FFFFFF"/>
        </g>
        <g id="Graphic_819">
          <path d="M 216.7394 276.83027 C 216.91246 277.6955 216.50868 277.86855 214.02836 277.86855 C 211.9518 277.86855 211.08658 277.63782 211.08658 277.11868 C 211.08658 275.96504 211.3173 275.84968 214.08604 275.84968 C 215.98955 275.84968 216.56637 276.0804 216.7394 276.83027 Z" fill="#FFFFFF"/>
        </g>
        <g id="Graphic_818">
          <path d="M 157.03854 278.79146 C 157.96146 279.77205 156.57709 280.75265 154.2698 280.75265 C 151.7318 280.75265 150.69352 280.11814 151.3857 279.0222 C 151.78948 278.3877 156.46172 278.21464 157.03854 278.79146 Z" fill="#FFFFFF"/>
        </g>
        <g id="Graphic_817">
          <path d="M 223.08443 282.59847 C 223.25748 283.4637 222.79602 283.63675 220.08497 283.63675 C 217.20087 283.63675 216.85478 283.52138 216.85478 282.42542 C 216.85478 281.38715 217.14319 281.2718 219.85424 281.44483 C 222.2192 281.5602 222.96907 281.8486 223.08443 282.59847 Z" fill="#FFFFFF"/>
        </g>
        <g id="Graphic_816">
          <path d="M 152.7124 284.04052 C 152.48167 285.25184 148.44393 285.82866 147.40565 284.7904 C 146.48274 283.86747 147.98247 283.05993 150.69352 283.05993 C 152.48167 283.05993 152.88544 283.23297 152.7124 284.04052 Z" fill="#FFFFFF"/>
        </g>
        <g id="Graphic_815">
          <path d="M 226.94913 287.6745 C 226.94913 288.309 226.14158 288.5974 223.94966 288.71276 C 221.18093 288.8858 220.89252 288.77044 220.89252 287.6745 C 220.89252 286.57853 221.18093 286.46316 223.94966 286.6362 C 226.14158 286.75157 226.94913 287.04 226.94913 287.6745 Z" fill="#FFFFFF"/>
        </g>
        <g id="Graphic_814">
          <path d="M 149.8283 289.80872 C 149.71293 290.61627 148.96306 290.90468 146.88651 291.02004 C 144.46387 291.1931 144.17546 291.07772 144.17546 290.03945 C 144.17546 289.00117 144.52155 288.82813 147.11724 288.82813 C 149.59757 288.82813 150.00134 289.00117 149.8283 289.80872 Z" fill="#FFFFFF"/>
        </g>
        <g id="Graphic_813">
          <path d="M 230.29468 291.94295 C 230.75614 293.15428 230.17932 293.4427 227.12217 293.4427 C 224.7572 293.4427 224.35344 293.26964 224.35344 292.28905 C 224.35344 291.30845 224.7572 291.1354 227.17985 291.1354 C 229.08336 291.1354 230.12164 291.4238 230.29468 291.94295 Z" fill="#FFFFFF"/>
        </g>
        <g id="Graphic_812">
          <path d="M 146.71347 293.78878 C 147.2326 293.96182 147.63638 294.654 147.63638 295.23083 C 147.63638 296.15374 147.17492 296.3268 144.75228 296.3268 C 142.27195 296.3268 141.86818 296.15374 141.86818 295.23083 C 141.86818 294.42328 142.32963 294.0195 143.48327 293.84646 C 144.3485 293.7311 145.21373 293.55805 145.44446 293.50037 C 145.6175 293.50037 146.19433 293.61573 146.71347 293.78878 Z" fill="#FFFFFF"/>
        </g>
        <g id="Graphic_811">
          <path d="M 232.42891 296.3268 C 232.42891 297.30738 232.02514 297.48043 229.54482 297.48043 C 227.0645 297.48043 226.66072 297.30738 226.66072 296.3268 C 226.66072 295.3462 227.0645 295.17315 229.54482 295.17315 C 232.02514 295.17315 232.42891 295.3462 232.42891 296.3268 Z" fill="#FFFFFF"/>
        </g>
        <g id="Graphic_810">
          <path d="M 145.90592 299.2109 C 145.90592 300.1338 145.50214 300.36453 143.77168 300.36453 C 142.56036 300.36453 141.23368 300.1338 140.77222 299.8454 C 139.38785 298.98016 140.71454 298.05725 143.36791 298.05725 C 145.50214 298.05725 145.90592 298.2303 145.90592 299.2109 Z" fill="#FFFFFF"/>
        </g>
        <g id="Graphic_809">
          <path d="M 234.44778 300.94135 C 234.44778 301.57585 233.69792 301.86426 231.90978 301.97962 C 228.79495 302.21035 227.75667 301.80658 228.16045 300.65294 C 228.67959 299.38393 234.44778 299.67234 234.44778 300.94135 Z" fill="#FFFFFF"/>
        </g>
        <g id="Graphic_808">
          <path d="M 146.48274 302.9602 C 146.48274 303.42167 145.9636 303.82545 145.38678 303.82545 C 142.0989 303.82545 141.23368 306.36345 144.17546 307.34405 C 145.15605 307.69014 145.90592 308.32464 145.90592 308.7284 C 145.90592 309.53596 145.27142 309.82437 142.0989 310.45888 C 138.52262 311.15106 135.46548 308.4977 138.5803 307.34405 C 139.33017 307.05564 140.25308 306.42114 140.65686 305.902 C 141.29136 305.15213 141.23368 304.9214 139.90699 304.40227 C 139.09944 304.11386 138.40726 303.47935 138.40726 302.9602 C 138.40726 302.26803 139.2148 302.095 142.445 302.095 C 145.67519 302.095 146.48274 302.26803 146.48274 302.9602 Z" fill="#FFFFFF"/>
        </g>
        <g id="Graphic_807">
          <path d="M 235.60142 305.5559 C 235.60142 306.70955 230.75614 307.11332 230.06395 306.07504 C 229.3141 304.80604 230.12164 304.3446 232.89037 304.51763 C 234.85156 304.633 235.60142 304.9214 235.60142 305.5559 Z" fill="#FFFFFF"/>
        </g>
        <g id="Graphic_806">
          <path d="M 237.04347 310.17047 C 237.04347 311.15106 236.6397 311.3241 234.21706 311.3241 C 232.60196 311.3241 231.1599 311.0357 230.98686 310.7473 C 230.29468 309.59365 231.39064 309.01683 234.21706 309.01683 C 236.6397 309.01683 237.04347 309.18987 237.04347 310.17047 Z" fill="#FFFFFF"/>
        </g>
        <g id="Graphic_805">
          <path d="M 140.77222 313.40066 C 145.9636 313.74675 146.77115 314.38125 144.57923 316.28476 C 143.02182 317.61144 141.00295 318.0152 136.96521 317.7845 C 134.65793 317.61144 132.63906 315.30416 132.63906 312.82384 C 132.63906 310.17047 133.1582 309.93974 134.94634 311.6125 C 136.27302 312.88152 137.19594 313.16993 140.77222 313.40066 Z" fill="#FFFFFF"/>
        </g>
        <g id="Graphic_804">
          <path d="M 227.6413 314.61198 C 228.56422 315.24648 230.81382 315.76562 232.94805 315.93866 C 237.04347 316.22707 237.73566 316.97694 235.94752 318.7651 C 234.96692 319.74568 233.98633 319.9764 230.98686 319.9764 C 227.699 319.9764 227.0068 319.80336 225.79549 318.53435 C 224.35344 317.0923 224.06503 316.1694 224.69953 314.5543 C 225.16098 313.40066 225.7378 313.40066 227.6413 314.61198 Z" fill="#FFFFFF"/>
        </g>
        <g id="Graphic_803">
          <path d="M 94.3959 330.12844 C 96.87622 331.2244 98.14522 331.5128 99.818 331.2244 C 102.81747 330.70526 103.39429 331.1667 102.29833 333.30095 C 101.4331 335.0891 99.35655 336.24273 95.83794 336.9926 C 94.28053 337.3387 93.47298 337.10796 91.68484 335.83895 C 89.08915 334.0508 87.6471 330.8783 88.80074 329.49393 C 89.78133 328.2826 90.70425 328.39798 94.3959 330.12844 Z" fill="#FFFFFF"/>
        </g>
        <g id="Graphic_802">
          <path d="M 272.11413 330.12844 C 272.864 331.68585 275.92114 333.24326 278.2861 333.24326 C 280.30497 333.24326 280.07425 333.99313 277.70928 335.14677 C 274.82518 336.53114 273.26777 336.3581 271.5373 334.51227 C 269.6915 332.5511 269.3454 331.5705 269.9799 329.8977 C 270.6144 328.22493 271.30658 328.2826 272.11413 330.12844 Z" fill="#FFFFFF"/>
        </g>
        <g id="Graphic_801">
          <path d="M 239.35075 92.01715 C 239.35075 92.30556 239.69685 92.94006 240.10062 93.51688 C 240.73512 94.38211 241.08121 94.49748 242.1195 93.92066 C 244.13836 92.8247 243.7346 91.55569 241.36962 91.55569 C 240.27367 91.55569 239.35075 91.78642 239.35075 92.01715 Z" fill="black"/>
        </g>
        <g id="Graphic_800">
          <path d="M 181.43803 257.04535 C 180.80353 257.73753 180.63048 258.25667 181.03425 258.54508 C 181.38035 258.71812 181.66876 259.23726 181.66876 259.69872 C 181.66876 260.27554 181.14962 260.3909 179.64989 260.16017 C 177.28493 259.7564 175.90056 260.6793 175.90056 262.6405 C 175.90056 264.42864 176.13129 264.48632 181.09194 264.65937 C 185.41809 264.77473 185.41809 264.77473 186.74477 262.87123 C 188.41755 260.3909 188.35987 259.35263 186.51404 257.44912 C 184.7259 255.66098 182.8224 255.5456 181.43803 257.04535 Z" fill="black"/>
        </g>
      </g>
    </g>
  </g>
</svg>
