<?xml version="1.0" encoding="UTF-8" standalone="no"?>
<!DOCTYPE svg PUBLIC "-//W3C//DTD SVG 1.1//EN" "http://www.w3.org/Graphics/SVG/1.1/DTD/svg11.dtd">
<svg xmlns:xl="http://www.w3.org/1999/xlink" xmlns="http://www.w3.org/2000/svg" xmlns:dc="http://purl.org/dc/elements/1.1/" version="1.1" viewBox="40.5 67.5 283.5 342" width="283.5" height="342">
  <defs>
    <clipPath id="artboard_clip_path">
      <path d="M 40.5 67.5 L 324 67.5 L 324 356.8846 L 214.96154 409.5 L 40.5 409.5 Z"/>
    </clipPath>
  </defs>
  <g id="Cock_(6)" stroke-opacity="1" stroke="none" stroke-dasharray="none" fill="none" fill-opacity="1">
    <title>Cock (6)</title>
    <g id="Cock_(6)_Art" clip-path="url(#artboard_clip_path)">
      <title>Art</title>
      <g id="Group_86">
        <g id="Graphic_118">
          <path d="M 48.022505 114.23266 C 58.11663 108.55246 67.97361 113.71091 77.82506 119.11677 L 70.9795 123.12513 C 69.34116 117.95168 60.47658 115.43291 48.022505 114.23266 Z" fill="#FFFFFF"/>
          <path d="M 48.022505 114.23266 C 58.11663 108.55246 67.97361 113.71091 77.82506 119.11677 L 70.9795 123.12513 C 69.34116 117.95168 60.47658 115.43291 48.022505 114.23266 Z" stroke="black" stroke-linecap="round" stroke-linejoin="round" stroke-width="1"/>
        </g>
        <g id="Graphic_117">
          <path d="M 48.022735 114.2326 C 58.11676 108.55251 67.97372 113.711 77.82529 119.11687 L 70.97972 123.12509 C 69.3412 117.95175 60.476765 115.43288 48.022735 114.2326 Z" stroke="#FFFFFF" stroke-linecap="square" stroke-linejoin="miter" stroke-width="1"/>
        </g>
        <g id="Graphic_116">
          <path d="M 128.92836 297.9847 L 130.21749 320.49448 L 121.50019 353.81047 C 118.46104 355.83077 117.57647 359.441 108.57319 357.0605 C 106.30559 352.96826 102.93737 351.90565 99.20015 351.85897 C 92.25236 353.30603 89.72493 355.51465 88.81396 357.87316 L 91.97689 360.3231 C 94.19009 359.61155 96.10691 358.12293 98.37406 357.87717 C 101.14671 358.25332 102.23481 357.2089 107.9867 362.0986 C 101.1922 362.1601 94.29091 362.1415 88.51539 364.8618 C 87.66661 365.2617 86.76562 366.4958 85.92072 366.85518 L 87.36676 372.2042 C 93.16547 366.8279 100.9078 368.91852 107.03414 369.74278 C 100.11857 373.41205 96.42244 377.7629 94.5435 382.3661 L 100.50345 384.60036 C 105.23327 375.60906 114.76599 372.41848 125.32851 370.47155 C 130.43104 368.1493 137.3705 368.63745 143.79315 368.3349 L 146.56032 363.1905 C 145.86841 358.68102 136.47568 361.95596 130.3748 362.28584 C 128.44392 358.65955 131.48751 354.45762 133.11597 350.41966 C 148.28616 350.91797 141.78695 349.67813 142.24179 345.19522 C 140.3084 345.45457 138.3427 345.5858 136.33947 344.34555 C 139.30428 329.98197 141.03954 324.51414 149.34502 312.64182 L 137.01146 294.5641 L 128.92836 297.9847 Z" fill="#FFFFFF"/>
          <path d="M 128.92836 297.9847 L 130.21749 320.49448 L 121.50019 353.81047 C 118.46104 355.83077 117.57647 359.441 108.57319 357.0605 C 106.30559 352.96826 102.93737 351.90565 99.20015 351.85897 C 92.25236 353.30603 89.72493 355.51465 88.81396 357.87316 L 91.97689 360.3231 C 94.19009 359.61155 96.10691 358.12293 98.37406 357.87717 C 101.14671 358.25332 102.23481 357.2089 107.9867 362.0986 C 101.1922 362.1601 94.29091 362.1415 88.51539 364.8618 C 87.66661 365.2617 86.76562 366.4958 85.92072 366.85518 L 87.36676 372.2042 C 93.16547 366.8279 100.9078 368.91852 107.03414 369.74278 C 100.11857 373.41205 96.42244 377.7629 94.5435 382.3661 L 100.50345 384.60036 C 105.23327 375.60906 114.76599 372.41848 125.32851 370.47155 C 130.43104 368.1493 137.3705 368.63745 143.79315 368.3349 L 146.56032 363.1905 C 145.86841 358.68102 136.47568 361.95596 130.3748 362.28584 C 128.44392 358.65955 131.48751 354.45762 133.11597 350.41966 C 148.28616 350.91797 141.78695 349.67813 142.24179 345.19522 C 140.3084 345.45457 138.3427 345.5858 136.33947 344.34555 C 139.30428 329.98197 141.03954 324.51414 149.34502 312.64182 L 137.01146 294.5641 L 128.92836 297.9847 Z" stroke="black" stroke-linecap="round" stroke-linejoin="round" stroke-width="1"/>
        </g>
        <g id="Graphic_115">
          <path d="M 101.16097 275.87736 C 103.12381 281.5768 102.62283 287.5613 108.49516 292.80827 C 113.13779 300.25295 119.02161 303.1295 125.19693 304.93416 L 125.92196 314.7737 C 127.63895 312.78328 128.15985 310.93128 131.8366 308.71422 L 137.12724 315.13115 L 146.48152 317.35665 L 150.30862 311.12516 L 144.04326 299.85918 L 152.61502 309.61796 C 154.79719 303.16314 149.1342 297.61615 101.16097 275.87736 Z" fill="#FFFFFF"/>
          <path d="M 101.16097 275.87736 C 103.12381 281.5768 102.62283 287.5613 108.49516 292.80827 C 113.13779 300.25295 119.02161 303.1295 125.19693 304.93416 L 125.92196 314.7737 C 127.63895 312.78328 128.15985 310.93128 131.8366 308.71422 L 137.12724 315.13115 L 146.48152 317.35665 L 150.30862 311.12516 L 144.04326 299.85918 L 152.61502 309.61796 C 154.79719 303.16314 149.1342 297.61615 101.16097 275.87736 Z" stroke="black" stroke-linecap="round" stroke-linejoin="round" stroke-width="1"/>
        </g>
        <g id="Graphic_114">
          <path d="M 142.4976 203.0009 C 164.38504 201.84607 192.2548 207.12315 193.14914 183.39845 L 200.75076 183.3961 C 191.19197 162.37904 185.83773 140.87552 194.61533 117.73684 C 210.3348 90.61501 235.38918 91.51884 261.71214 96.2316 C 290.55433 108.83397 302.15353 124.64619 309.03305 141.33695 C 293.85738 125.02691 226.6445 76.23133 207.81543 135.79869 C 229.09634 84.14478 289.58737 117.92652 289.96738 138.28043 C 274.82123 122.12483 248.67737 117.30196 237.2961 122.73912 C 250.36273 115.36725 274.21464 126.34823 284.30957 139.79765 C 291.44173 149.29938 302.06018 157.50563 318.12727 159.28914 C 312.09385 172.38637 291.07264 163.92312 274.32074 148.73906 C 259.5762 135.37482 239.75534 129.61081 226.20045 137.4929 C 243.6942 129.7341 264.12453 136.39596 275.83396 152.10102 C 283.38964 162.23495 294.48393 174.39129 309.76757 183.06168 C 305.39942 188.86867 283.6275 179.2229 260.5836 156.37426 C 249.2793 145.16554 229.64404 151.12236 215.8914 162.63957 C 261.98356 131.38423 268.1522 176.23177 294.31208 190.98983 C 288.9367 193.51402 283.1789 194.89406 270.8315 180.60923 C 253.45082 160.50171 231.36349 158.39786 218.79358 180.13875 C 232.5443 163.02403 247.41175 159.00273 264.88778 174.20495 C 271.38294 179.85515 271.897 192.60559 286.5581 199.78102 C 280.6872 203.04075 272.8546 200.5199 259.36985 184.83795 C 249.8703 173.79011 233.2267 177.75837 222.14844 191.44567 C 245.1123 169.09604 258.76434 183.5284 271.74378 200.6181 C 254.54238 190.60044 238.5608 188.7357 224.79263 201.66513 C 243.54753 186.54452 257.85747 194.62131 271.32433 207.09887 C 254.08347 200.77005 239.03549 201.45012 227.19384 214.83653 C 248.46262 201.53636 270.91592 203.96183 276.52462 229.30236 C 263.43838 211.60835 245.42906 222.1095 228.87255 224.29065 C 243.58462 222.53347 258.6463 220.1245 263.37718 236.96357 C 251.80922 232.16584 241.10683 234.84736 230.408 237.56226 C 252.37024 236.67498 266.54222 236.5199 268.7634 250.66662 C 258.66478 246.68063 245.13446 246.15765 231.6313 245.60714 C 247.31013 246.3176 263.14623 246.91852 260.53275 260.3904 C 249.07597 254.24596 237.65746 256.5764 226.23078 257.04992 C 235.24306 258.43303 246.93648 255.22214 248.67274 269.0719 C 240.92808 265.31013 233.4398 263.76262 226.06612 263.20872 C 231.99557 268.02305 238.59672 266.36955 243.8373 277.81786 L 218.60066 271.96683 L 142.4976 203.0009 Z" fill="#FFFFFF"/>
          <path d="M 142.4976 203.0009 C 164.38504 201.84607 192.2548 207.12315 193.14914 183.39845 L 200.75076 183.3961 C 191.19197 162.37904 185.83773 140.87552 194.61533 117.73684 C 210.3348 90.61501 235.38918 91.51884 261.71214 96.2316 C 290.55433 108.83397 302.15353 124.64619 309.03305 141.33695 C 293.85738 125.02691 226.6445 76.23133 207.81543 135.79869 C 229.09634 84.14478 289.58737 117.92652 289.96738 138.28043 C 274.82123 122.12483 248.67737 117.30196 237.2961 122.73912 C 250.36273 115.36725 274.21464 126.34823 284.30957 139.79765 C 291.44173 149.29938 302.06018 157.50563 318.12727 159.28914 C 312.09385 172.38637 291.07264 163.92312 274.32074 148.73906 C 259.5762 135.37482 239.75534 129.61081 226.20045 137.4929 C 243.6942 129.7341 264.12453 136.39596 275.83396 152.10102 C 283.38964 162.23495 294.48393 174.39129 309.76757 183.06168 C 305.39942 188.86867 283.6275 179.2229 260.5836 156.37426 C 249.2793 145.16554 229.64404 151.12236 215.8914 162.63957 C 261.98356 131.38423 268.1522 176.23177 294.31208 190.98983 C 288.9367 193.51402 283.1789 194.89406 270.8315 180.60923 C 253.45082 160.50171 231.36349 158.39786 218.79358 180.13875 C 232.5443 163.02403 247.41175 159.00273 264.88778 174.20495 C 271.38294 179.85515 271.897 192.60559 286.5581 199.78102 C 280.6872 203.04075 272.8546 200.5199 259.36985 184.83795 C 249.8703 173.79011 233.2267 177.75837 222.14844 191.44567 C 245.1123 169.09604 258.76434 183.5284 271.74378 200.6181 C 254.54238 190.60044 238.5608 188.7357 224.79263 201.66513 C 243.54753 186.54452 257.85747 194.62131 271.32433 207.09887 C 254.08347 200.77005 239.03549 201.45012 227.19384 214.83653 C 248.46262 201.53636 270.91592 203.96183 276.52462 229.30236 C 263.43838 211.60835 245.42906 222.1095 228.87255 224.29065 C 243.58462 222.53347 258.6463 220.1245 263.37718 236.96357 C 251.80922 232.16584 241.10683 234.84736 230.408 237.56226 C 252.37024 236.67498 266.54222 236.5199 268.7634 250.66662 C 258.66478 246.68063 245.13446 246.15765 231.6313 245.60714 C 247.31013 246.3176 263.14623 246.91852 260.53275 260.3904 C 249.07597 254.24596 237.65746 256.5764 226.23078 257.04992 C 235.24306 258.43303 246.93648 255.22214 248.67274 269.0719 C 240.92808 265.31013 233.4398 263.76262 226.06612 263.20872 C 231.99557 268.02305 238.59672 266.36955 243.8373 277.81786 L 218.60066 271.96683 L 142.4976 203.0009 Z" stroke="black" stroke-linecap="round" stroke-linejoin="round" stroke-width="1"/>
        </g>
        <g id="Graphic_113">
          <path d="M 244.4704 164.77453 L 244.4704 164.77453 C 251.9768 165.47351 259.81253 169.53817 267.0498 176.58751 C 266.39463 175.7017 265.68644 174.89965 264.88783 174.20494 C 257.67235 167.92826 250.90155 164.9286 244.4704 164.77453 Z M 244.4704 164.77453 L 244.4704 164.77453 C 235.32524 164.55542 226.86693 170.09039 218.79352 180.1388 C 225.408 168.69853 234.6578 163.8608 244.4704 164.77453 Z" stroke="#FFFFFF" stroke-linecap="square" stroke-linejoin="miter" stroke-width="1"/>
        </g>
        <g id="Graphic_112">
          <path d="M 197.5347 312.2666 L 197.5347 312.2666 L 186.84446 317.15844 L 189.72235 329.39742 C 190.57765 330.6112 191.50715 331.81633 192.50848 333.01314 C 193.14247 333.77124 193.80515 334.52604 194.49606 335.27733 C 197.6849 346.80682 197.55882 358.17074 198.6127 369.59353 C 194.2268 372.1812 189.6941 368.79 185.21242 367.48924 C 181.79364 369.4544 176.13205 370.4926 176.00398 373.81764 L 178.336 378.81054 C 179.67477 376.7581 183.49595 377.36823 186.5906 374.34693 L 192.40622 376.5978 L 177.82112 381.94007 L 168.97968 391.44193 L 173.4922 396.3287 C 179.99187 395.29584 179.23342 391.0836 181.313 388.1144 C 186.14792 387.9736 191.19933 385.20627 196.30953 381.7251 C 190.40283 386.4947 189.78495 394.2188 182.91417 398.16235 L 188.36375 401.0401 L 193.56745 399.2687 C 192.64013 392.16666 200.55106 390.659 202.94537 384.29566 L 208.13854 383.6948 L 214.46203 377.70034 C 218.25154 376.3385 222.18065 376.18398 226.14683 376.34838 L 227.4878 371.51517 C 222.18262 367.3574 219.42977 371.36013 212.80602 369.7055 C 209.66167 367.58433 209.65373 365.0999 209.06956 362.68235 C 212.85624 361.95296 215.65105 360.43697 217.87934 358.47234 L 215.8538 354.3498 C 213.48406 355.31247 211.13841 355.78697 208.82884 355.5472 C 206.54104 343.87306 205.87327 332.0117 207.04744 319.9373 Z" fill="#FFFFFF"/>
          <path d="M 197.5347 312.2666 L 197.5347 312.2666 L 186.84446 317.15844 L 189.72235 329.39742 C 190.57765 330.6112 191.50715 331.81633 192.50848 333.01314 C 193.14247 333.77124 193.80515 334.52604 194.49606 335.27733 C 197.6849 346.80682 197.55882 358.17074 198.6127 369.59353 C 194.2268 372.1812 189.6941 368.79 185.21242 367.48924 C 181.79364 369.4544 176.13205 370.4926 176.00398 373.81764 L 178.336 378.81054 C 179.67477 376.7581 183.49595 377.36823 186.5906 374.34693 L 192.40622 376.5978 L 177.82112 381.94007 L 168.97968 391.44193 L 173.4922 396.3287 C 179.99187 395.29584 179.23342 391.0836 181.313 388.1144 C 186.14792 387.9736 191.19933 385.20627 196.30953 381.7251 C 190.40283 386.4947 189.78495 394.2188 182.91417 398.16235 L 188.36375 401.0401 L 193.56745 399.2687 C 192.64013 392.16666 200.55106 390.659 202.94537 384.29566 L 208.13854 383.6948 L 214.46203 377.70034 C 218.25154 376.3385 222.18065 376.18398 226.14683 376.34838 L 227.4878 371.51517 C 222.18262 367.3574 219.42977 371.36013 212.80602 369.7055 C 209.66167 367.58433 209.65373 365.0999 209.06956 362.68235 C 212.85624 361.95296 215.65105 360.43697 217.87934 358.47234 L 215.8538 354.3498 C 213.48406 355.31247 211.13841 355.78697 208.82884 355.5472 C 206.54104 343.87306 205.87327 332.0117 207.04744 319.9373 Z" stroke="black" stroke-linecap="round" stroke-linejoin="round" stroke-width="1"/>
        </g>
        <g id="Graphic_111">
          <path d="M 68.942045 94.75697 L 68.942045 94.75697 L 106.15766 101.9249 C 126.6179 98.74198 126.89612 88.05953 140.16461 86.72271 C 137.8553 84.06307 134.83101 82.39941 110.16934 87.24782 C 118.91456 82.92528 123.45704 77.46079 110.16833 87.24547 C 110.13807 87.26036 110.10779 87.27529 109.7547 87.45038 C 109.86327 87.39796 109.9712 87.34537 110.07749 87.29025 C 109.97019 87.34322 109.86259 87.39659 110.07849 87.29261 C 110.10882 87.27769 110.1391 87.26276 130.93331 81.95242 C 125.70837 81.35322 118.91392 82.94036 126.42011 71.56712 C 120.54295 74.37754 115.79777 78.23617 107.51564 78.81964 C 106.84958 76.16968 108.34456 73.97256 109.37695 71.678485 C 103.58411 75.341565 98.81295 80.65232 91.28933 81.52411 C 90.68676 75.13972 94.81556 73.44395 99.4117 72.21132 C 92.20174 71.75599 86.12556 66.067435 75.33705 82.12947 C 74.453 80.25614 72.5551 79.21369 74.98549 74.62414 C 69.51096 77.68968 63.372294 79.92777 64.743 91.5215 Z" fill="#FFFFFF"/>
          <path d="M 68.942045 94.75697 L 68.942045 94.75697 L 106.15766 101.9249 C 126.6179 98.74198 126.89612 88.05953 140.16461 86.72271 C 137.8553 84.06307 134.83101 82.39941 110.16934 87.24782 C 118.91456 82.92528 123.45704 77.46079 110.16833 87.24547 C 110.13807 87.26036 110.10779 87.27529 109.7547 87.45038 C 109.86327 87.39796 109.9712 87.34537 110.07749 87.29025 C 109.97019 87.34322 109.86259 87.39659 110.07849 87.29261 C 110.10882 87.27769 110.1391 87.26276 130.93331 81.95242 C 125.70837 81.35322 118.91392 82.94036 126.42011 71.56712 C 120.54295 74.37754 115.79777 78.23617 107.51564 78.81964 C 106.84958 76.16968 108.34456 73.97256 109.37695 71.678485 C 103.58411 75.341565 98.81295 80.65232 91.28933 81.52411 C 90.68676 75.13972 94.81556 73.44395 99.4117 72.21132 C 92.20174 71.75599 86.12556 66.067435 75.33705 82.12947 C 74.453 80.25614 72.5551 79.21369 74.98549 74.62414 C 69.51096 77.68968 63.372294 79.92777 64.743 91.5215 Z" stroke="#FFFFFF" stroke-linecap="square" stroke-linejoin="miter" stroke-width="1"/>
        </g>
        <g id="Graphic_110">
          <path d="M 168.0656 204.1356 C 190.46769 203.15837 189.95648 189.58725 198.1088 180.7779 C 194.4751 190.49614 202.73384 196.75106 181.2178 211.67729 C 192.71204 206.86492 199.8129 188.45846 208.57156 175.1818 C 204.34116 188.83935 206.53793 203.68857 187.99904 214.69366 C 200.31305 207.30828 207.0533 196.66973 214.55643 186.47658 C 215.19694 199.6978 209.3327 210.79297 189.7756 217.41191 C 201.58054 214.19865 213.36807 210.92804 223.35016 201.83201 C 223.12617 212.17835 211.66353 219.17417 191.66387 223.62555 C 204.062 221.92545 216.5066 220.47066 227.92597 213.5822 C 224.38092 224.58686 204.55226 227.2623 186.66154 230.92904 C 200.83344 228.75044 215.24472 228.64237 228.92738 222.2377 C 226.09692 229.71593 210.70776 233.01188 196.08462 236.56325 C 207.05353 234.88033 217.92752 233.40693 229.79534 229.73894 C 222.58436 236.16567 211.97492 239.8984 200.95839 243.30874 C 210.7751 242.23712 220.60554 241.28368 230.1195 237.5955 C 225.9487 241.79052 219.291 245.27168 210.2814 248.07754 C 218.52595 246.05143 226.13437 245.2686 233.1072 245.7288 C 229.2013 247.86632 226.05016 250.0767 216.84094 251.70422 C 221.98797 251.60225 227.05728 251.59866 231.53362 252.34318 C 228.2077 255.84485 225.10568 259.43456 215.8227 260.59307 L 191.50665 252.5889 L 168.0656 204.1356 Z" fill="#FFFFFF"/>
          <path d="M 168.0656 204.1356 C 190.46769 203.15837 189.95648 189.58725 198.1088 180.7779 C 194.4751 190.49614 202.73384 196.75106 181.2178 211.67729 C 192.71204 206.86492 199.8129 188.45846 208.57156 175.1818 C 204.34116 188.83935 206.53793 203.68857 187.99904 214.69366 C 200.31305 207.30828 207.0533 196.66973 214.55643 186.47658 C 215.19694 199.6978 209.3327 210.79297 189.7756 217.41191 C 201.58054 214.19865 213.36807 210.92804 223.35016 201.83201 C 223.12617 212.17835 211.66353 219.17417 191.66387 223.62555 C 204.062 221.92545 216.5066 220.47066 227.92597 213.5822 C 224.38092 224.58686 204.55226 227.2623 186.66154 230.92904 C 200.83344 228.75044 215.24472 228.64237 228.92738 222.2377 C 226.09692 229.71593 210.70776 233.01188 196.08462 236.56325 C 207.05353 234.88033 217.92752 233.40693 229.79534 229.73894 C 222.58436 236.16567 211.97492 239.8984 200.95839 243.30874 C 210.7751 242.23712 220.60554 241.28368 230.1195 237.5955 C 225.9487 241.79052 219.291 245.27168 210.2814 248.07754 C 218.52595 246.05143 226.13437 245.2686 233.1072 245.7288 C 229.2013 247.86632 226.05016 250.0767 216.84094 251.70422 C 221.98797 251.60225 227.05728 251.59866 231.53362 252.34318 C 228.2077 255.84485 225.10568 259.43456 215.8227 260.59307 L 191.50665 252.5889 L 168.0656 204.1356 Z" stroke="black" stroke-linecap="round" stroke-linejoin="round" stroke-width="1"/>
        </g>
        <g id="Graphic_109">
          <path d="M 168.0656 204.13567 C 190.46772 203.15838 189.9565 189.5873 198.10888 180.77793 C 194.47527 190.49624 202.73394 196.75103 181.21796 211.67744 C 192.71214 206.86486 199.81295 188.45855 208.57156 175.18173 C 204.3412 188.8394 206.53802 203.68857 187.99921 214.69365 C 200.31322 207.3083 207.05338 196.6698 214.55648 186.4766 C 215.19692 199.69796 209.33285 210.79302 189.77556 217.41188 C 201.58079 214.19848 213.36824 210.92807 223.3502 201.83204 C 223.1264 212.17824 211.66352 219.1742 191.66404 223.62557 C 204.06225 221.9253 216.50673 220.47062 227.92593 213.58232 C 224.38108 224.58699 204.55237 227.26233 186.66164 230.929 C 200.83335 228.75043 215.2447 228.6424 228.92742 222.23767 C 226.09713 229.71575 210.70786 233.01194 196.0848 236.5633 C 207.05363 234.88042 217.92756 233.40702 229.79538 229.73896 C 222.5845 236.16554 211.975 239.8984 200.95852 243.30872 C 210.77527 242.237 220.6057 241.28352 230.11966 237.59558 C 225.94886 241.79063 219.29103 245.27162 210.28153 248.07744 C 218.52598 246.0515 226.13456 245.26858 233.10734 245.72875 C 229.20137 247.86635 226.0502 250.0766 216.84106 251.7041 C 221.98807 251.60233 227.0574 251.59855 231.5337 252.34303 C 228.20776 255.84478 225.10582 259.4346 215.82298 260.59314 L 191.50682 252.58886 L 168.0656 204.13567 Z" stroke="#FFFFFF" stroke-linecap="square" stroke-linejoin="miter" stroke-width="1"/>
        </g>
        <g id="Graphic_108">
          <path d="M 202.82685 250.51305 L 223.4137 254.98996 C 213.6461 244.0888 188.59337 236.60684 158.5284 230.24615 L 210.41426 239.12784 C 204.487 230.855 176.04162 225.18746 151.4473 219.0746 L 204.69873 229.03876 C 193.45453 218.12107 174.56627 215.2321 157.84737 210.06446 L 190.44498 216.62977 C 185.03187 208.07478 170.2192 206.26261 155.9151 204.0859 L 175.5168 205.53914 C 168.17388 200.56027 162.84227 199.8873 156.83893 197.7767 L 164.99945 196.8325 L 153.08585 190.35484 C 142.12729 187.0539 130.0108 188.0132 120.42417 179.66213 C 117.1708 176.17966 118.56378 172.1593 119.51029 168.19061 C 122.23886 161.99278 125.29164 158.59748 126.83098 142.12123 C 126.3637 134.04347 123.35682 124.06693 118.56078 116.49003 L 120.90678 116.15197 C 114.97436 107.97788 108.1832 100.64047 94.69185 94.32618 C 85.24102 93.09792 76.02835 91.5725 69.330594 95.43545 C 67.52301 103.48831 63.41858 110.70006 74.07179 119.76435 C 65.53405 118.05241 70.29499 125.57672 69.57694 129.72574 L 75.24541 139.40696 C 74.58349 153.43719 69.67884 165.65373 60.897585 176.2129 C 53.59859 190.0132 48.973893 203.504 48.198416 216.5495 C 50.36053 228.03087 52.33083 239.48466 75.26599 253.9385 C 80.27351 263.4205 81.52211 273.3374 96.66523 281.64644 C 107.9317 284.63736 118.15809 284.41122 130.95906 292.15014 L 164.73355 298.16596 C 166.66276 305.1993 173.39599 310.84972 181.68808 316.0512 L 188.55033 328.90195 L 202.45336 323.98547 L 208.10144 319.19712 L 189.56181 301.90874 C 195.23294 306.848 200.84434 311.27166 205.65002 308.73036 L 195.45515 299.53417 C 200.5075 302.60094 205.24579 302.95344 209.60206 300.00347 C 205.47623 298.7925 199.63549 298.90073 200.23093 294.05845 C 204.04574 290.0335 198.71272 287.0674 195.33146 283.87496 L 243.2179 301.07565 C 231.0777 276.5698 192.87985 274.15485 164.43983 263.46762 L 242.19277 285.06838 C 237.7604 277.6117 226.49622 269.83927 201.4042 261.42774 L 237.73153 271.52634 C 230.05403 261.4267 217.5651 255.09023 202.82685 250.51305 Z" fill="#FFFFFF"/>
          <path d="M 202.82685 250.51305 L 223.4137 254.98996 C 213.6461 244.0888 188.59337 236.60684 158.5284 230.24615 L 210.41426 239.12784 C 204.487 230.855 176.04162 225.18746 151.4473 219.0746 L 204.69873 229.03876 C 193.45453 218.12107 174.56627 215.2321 157.84737 210.06446 L 190.44498 216.62977 C 185.03187 208.07478 170.2192 206.26261 155.9151 204.0859 L 175.5168 205.53914 C 168.17388 200.56027 162.84227 199.8873 156.83893 197.7767 L 164.99945 196.8325 L 153.08585 190.35484 C 142.12729 187.0539 130.0108 188.0132 120.42417 179.66213 C 117.1708 176.17966 118.56378 172.1593 119.51029 168.19061 C 122.23886 161.99278 125.29164 158.59748 126.83098 142.12123 C 126.3637 134.04347 123.35682 124.06693 118.56078 116.49003 L 120.90678 116.15197 C 114.97436 107.97788 108.1832 100.64047 94.69185 94.32618 C 85.24102 93.09792 76.02835 91.5725 69.330594 95.43545 C 67.52301 103.48831 63.41858 110.70006 74.07179 119.76435 C 65.53405 118.05241 70.29499 125.57672 69.57694 129.72574 L 75.24541 139.40696 C 74.58349 153.43719 69.67884 165.65373 60.897585 176.2129 C 53.59859 190.0132 48.973893 203.504 48.198416 216.5495 C 50.36053 228.03087 52.33083 239.48466 75.26599 253.9385 C 80.27351 263.4205 81.52211 273.3374 96.66523 281.64644 C 107.9317 284.63736 118.15809 284.41122 130.95906 292.15014 L 164.73355 298.16596 C 166.66276 305.1993 173.39599 310.84972 181.68808 316.0512 L 188.55033 328.90195 L 202.45336 323.98547 L 208.10144 319.19712 L 189.56181 301.90874 C 195.23294 306.848 200.84434 311.27166 205.65002 308.73036 L 195.45515 299.53417 C 200.5075 302.60094 205.24579 302.95344 209.60206 300.00347 C 205.47623 298.7925 199.63549 298.90073 200.23093 294.05845 C 204.04574 290.0335 198.71272 287.0674 195.33146 283.87496 L 243.2179 301.07565 C 231.0777 276.5698 192.87985 274.15485 164.43983 263.46762 L 242.19277 285.06838 C 237.7604 277.6117 226.49622 269.83927 201.4042 261.42774 L 237.73153 271.52634 C 230.05403 261.4267 217.5651 255.09023 202.82685 250.51305 Z" stroke="black" stroke-linecap="round" stroke-linejoin="round" stroke-width="1"/>
        </g>
        <g id="Line_107">
          <path d="M 66.901454 175.05485 C 70.56427 171.75602 74.22708 168.45719 77.8899 165.15836" stroke="#FFFFFF" stroke-linecap="square" stroke-linejoin="miter" stroke-width="1"/>
        </g>
        <g id="Graphic_106">
          <path d="M 81.76183 101.33832 C 82.05222 103.84793 80.18859 106.12522 77.59929 106.42482 C 75.009985 106.72443 72.67557 104.93288 72.385185 102.42327 C 72.0948 99.91365 73.95842 97.6363 76.54772 97.3367 C 79.13703 97.0371 81.47145 98.8287 81.76183 101.33832 Z" stroke="#FFFFFF" stroke-linecap="square" stroke-linejoin="miter" stroke-width="1"/>
        </g>
        <g id="Graphic_105">
          <path d="M 70.25217 131.09489 C 68.04605 140.08717 65.833995 146.98232 53.11202 152.4866 C 47.74447 157.78681 48.92257 163.41245 50.589754 168.73298 C 54.749214 172.42714 56.83243 171.72 59.81859 171.07626 C 58.258176 167.30045 59.21811 164.6292 60.30006 159.74293 C 64.44692 155.64485 64.57798 154.42034 67.23005 152.3253 C 71.064185 146.37041 71.79837 140.72465 72.6387 134.74692 C 71.08333 157.75684 54.78465 154.44428 60.14166 172.60417 L 64.7584 177.42013 C 76.48322 180.50847 82.85751 172.11213 82.66972 169.53371 C 80.65109 150.73414 81.74672 146.13965 70.25217 131.09489 Z" fill="#FFFFFF"/>
          <path d="M 70.25217 131.09489 C 68.04605 140.08717 65.833995 146.98232 53.11202 152.4866 C 47.74447 157.78681 48.92257 163.41245 50.589754 168.73298 C 54.749214 172.42714 56.83243 171.72 59.81859 171.07626 C 58.258176 167.30045 59.21811 164.6292 60.30006 159.74293 C 64.44692 155.64485 64.57798 154.42034 67.23005 152.3253 C 71.064185 146.37041 71.79837 140.72465 72.6387 134.74692 C 71.08333 157.75684 54.78465 154.44428 60.14166 172.60417 L 64.7584 177.42013 C 76.48322 180.50847 82.85751 172.11213 82.66972 169.53371 C 80.65109 150.73414 81.74672 146.13965 70.25217 131.09489 Z" stroke="black" stroke-linecap="round" stroke-linejoin="round" stroke-width="1"/>
        </g>
        <g id="Graphic_104">
          <path d="M 78.380655 101.37046 C 78.50984 102.48693 77.67146 103.50112 76.50809 103.63573 C 75.3447 103.77035 74.29688 102.9744 74.167695 101.85793 C 74.03851 100.74147 74.87689 99.72727 76.04027 99.59265 C 77.20365 99.45804 78.25147 100.254 78.380655 101.37046 Z" stroke="#FFFFFF" stroke-linecap="butt" stroke-linejoin="miter" stroke-width="1"/>
        </g>
        <g id="Graphic_103">
          <path d="M 86.0757 367.0151 C 82.39078 368.90398 80.69953 371.7397 79.31837 374.7228 C 81.72598 373.8515 83.05659 371.12713 86.92907 372.6017 C 88.70937 370.28835 88.67753 369.09695 86.0757 367.0151 Z" fill="#FFFFFF"/>
          <path d="M 86.0757 367.0151 C 82.39078 368.90398 80.69953 371.7397 79.31837 374.7228 C 81.72598 373.8515 83.05659 371.12713 86.92907 372.6017 C 88.70937 370.28835 88.67753 369.09695 86.0757 367.0151 Z" stroke="black" stroke-linecap="round" stroke-linejoin="round" stroke-width="1"/>
        </g>
        <g id="Graphic_102">
          <path d="M 89.19577 357.3508 C 91.16042 357.3057 92.46103 358.0045 92.23745 360.41 C 90.22821 360.61538 88.3718 362.14085 86.54945 363.96256 C 86.84387 361.7101 87.51653 359.4891 89.19577 357.3508 Z" fill="#FFFFFF"/>
          <path d="M 89.19577 357.3508 C 91.16042 357.3057 92.46103 358.0045 92.23745 360.41 C 90.22821 360.61538 88.3718 362.14085 86.54945 363.96256 C 86.84387 361.7101 87.51653 359.4891 89.19577 357.3508 Z" stroke="black" stroke-linecap="round" stroke-linejoin="round" stroke-width="1"/>
        </g>
        <g id="Graphic_101">
          <path d="M 176.51422 373.17377 C 170.94022 372.9792 170.75484 378.08148 170.0419 381.6707 C 174.57379 379.58693 175.70427 378.33522 178.45765 377.33466 C 179.22507 376.0643 177.60141 374.59707 176.51422 373.17377 Z" fill="#FFFFFF"/>
          <path d="M 176.51422 373.17377 C 170.94022 372.9792 170.75484 378.08148 170.0419 381.6707 C 174.57379 379.58693 175.70427 378.33522 178.45765 377.33466 C 179.22507 376.0643 177.60141 374.59707 176.51422 373.17377 Z" stroke="black" stroke-linecap="round" stroke-linejoin="round" stroke-width="1"/>
        </g>
        <g id="Graphic_100">
          <path d="M 169.60678 391.8078 C 166.95323 394.19315 163.15694 394.4437 169.68795 402.61633 C 171.8298 397.965 170.99236 397.88776 174.27418 395.5074 C 173.74097 392.98397 171.82401 392.20666 169.60678 391.8078 Z" fill="#FFFFFF"/>
          <path d="M 169.60678 391.8078 C 166.95323 394.19315 163.15694 394.4437 169.68795 402.61633 C 171.8298 397.965 170.99236 397.88776 174.27418 395.5074 C 173.74097 392.98397 171.82401 392.20666 169.60678 391.8078 Z" stroke="black" stroke-linecap="round" stroke-linejoin="round" stroke-width="1"/>
        </g>
        <g id="Graphic_99">
          <path d="M 182.19277 398.24577 C 177.74284 402.59664 182.02466 405.00805 181.63008 408.54387 C 182.76973 405.13455 184.66073 402.8965 189.05156 400.6683 C 187.7639 398.41634 185.11752 397.9811 182.19277 398.24577 Z" fill="#FFFFFF"/>
          <path d="M 182.19277 398.24577 C 177.74284 402.59664 182.02466 405.00805 181.63008 408.54387 C 182.76973 405.13455 184.66073 402.8965 189.05156 400.6683 C 187.7639 398.41634 185.11752 397.9811 182.19277 398.24577 Z" stroke="black" stroke-linecap="round" stroke-linejoin="round" stroke-width="1"/>
        </g>
        <g id="Graphic_98">
          <path d="M 226.89414 371.43764 C 231.0083 372.29187 232.16728 374.22405 233.38206 376.97307 L 225.68072 376.1099 C 225.60234 374.77816 224.88598 373.7442 226.89414 371.43764 Z" fill="#FFFFFF"/>
          <path d="M 226.89414 371.43764 C 231.0083 372.29187 232.16728 374.22405 233.38206 376.97307 L 225.68072 376.1099 C 225.60234 374.77816 224.88598 373.7442 226.89414 371.43764 Z" stroke="black" stroke-linecap="round" stroke-linejoin="round" stroke-width="1"/>
        </g>
        <g id="Line_97">
          <path d="M 105.04361 197.68619 C 105.24553 204.4849 104.93607 206.81198 105.64935 218.08233 C 106.36264 229.35267 103.52095 242.73552 114.83317 256.58876 C 126.14538 270.442 162.77497 270.4346 195.75602 284.25836" stroke="black" stroke-linecap="square" stroke-linejoin="miter" stroke-width="1"/>
        </g>
        <g id="Line_96">
          <path d="M 63.54789 185.23746 C 62.29058 197.95505 61.033266 210.67264 59.77595 223.39023 C 61.78198 215.4589 63.78801 207.52758 65.79404 199.59626 C 67.0649 194.57631 68.33575 189.55636 69.60661 184.53642 C 70.74245 196.87963 71.87829 209.22284 73.01413 221.56605 C 75.25141 208.05288 77.48869 194.53972 79.72597 181.02655 C 80.9055 191.22062 82.08503 201.4147 83.26456 211.60876 C 84.88827 199.531 86.51198 187.45323 88.13569 175.37547" stroke="black" stroke-linecap="square" stroke-linejoin="miter" stroke-width="1"/>
        </g>
        <g id="Graphic_95">
          <path d="M 142.62841 344.7592 C 141.40304 346.93296 141.99947 348.51794 143.42251 349.83583 C 146.41696 347.90893 149.40357 345.3991 152.35 343.01413 C 149.1064 343.619 145.60173 346.22452 142.62841 344.7592 Z" fill="#FFFFFF"/>
          <path d="M 142.62841 344.7592 C 141.40304 346.93296 141.99947 348.51794 143.42251 349.83583 C 146.41696 347.90893 149.40357 345.3991 152.35 343.01413 C 149.1064 343.619 145.60173 346.22452 142.62841 344.7592 Z" stroke="#FFFFFF" stroke-linecap="square" stroke-linejoin="miter" stroke-width="1"/>
        </g>
        <g id="Graphic_94">
          <path d="M 215.52027 354.72485 C 216.09166 355.8224 215.4681 357.37033 217.93795 357.75306 C 222.12033 356.46415 222.96087 352.36024 224.74606 348.6957 C 221.8064 350.7546 219.49665 353.0426 215.52027 354.72485 Z" fill="#FFFFFF"/>
          <path d="M 215.52027 354.72485 C 216.09166 355.8224 215.4681 357.37033 217.93795 357.75306 C 222.12033 356.46415 222.96087 352.36024 224.74606 348.6957 C 221.8064 350.7546 219.49665 353.0426 215.52027 354.72485 Z" stroke="black" stroke-linecap="round" stroke-linejoin="round" stroke-width="1"/>
        </g>
        <g id="Graphic_93">
          <path d="M 206.33975 171.0545 L 206.33975 171.0545 C 215.53115 162.77885 215.659 149.7046 229.07694 135.09269 C 242.82805 122.7554 254.97734 117.9819 267.7758 110.73344 C 280.52742 100.29285 295.22335 89.23997 284.45184 67.87159 C 281.9105 78.33485 284.41704 78.90804 265.5629 96.6632 C 254.84177 104.02745 236.9517 109.96931 221.83807 123.0658 C 203.7166 140.7038 207.23608 155.73321 206.33975 171.0545 Z" fill="#FFFFFF"/>
          <path d="M 206.33975 171.0545 L 206.33975 171.0545 C 215.53115 162.77885 215.659 149.7046 229.07694 135.09269 C 242.82805 122.7554 254.97734 117.9819 267.7758 110.73344 C 280.52742 100.29285 295.22335 89.23997 284.45184 67.87159 C 281.9105 78.33485 284.41704 78.90804 265.5629 96.6632 C 254.84177 104.02745 236.9517 109.96931 221.83807 123.0658 C 203.7166 140.7038 207.23608 155.73321 206.33975 171.0545 Z" stroke="black" stroke-linecap="round" stroke-linejoin="round" stroke-width="1"/>
        </g>
        <g id="Graphic_92">
          <path d="M 94.81797 381.81925 C 95.66994 381.7303 97.02224 380.53737 97.2897 381.7399 C 98.3117 382.06443 99.9659 382.12858 100.20565 384.60687 C 97.84765 385.89673 98.59649 389.0737 98.77579 391.9049 C 96.57693 389.0723 94.26176 386.3099 94.81797 381.81925 Z" fill="#FFFFFF"/>
          <path d="M 94.81797 381.81925 C 95.66994 381.7303 97.02224 380.53737 97.2897 381.7399 C 98.3117 382.06443 99.9659 382.12858 100.20565 384.60687 C 97.84765 385.89673 98.59649 389.0737 98.77579 391.9049 C 96.57693 389.0723 94.26176 386.3099 94.81797 381.81925 Z" stroke="black" stroke-linecap="round" stroke-linejoin="round" stroke-width="1"/>
        </g>
        <g id="Graphic_91">
          <path d="M 146.6478 363.41745 C 150.40198 364.67184 152.32327 367.00816 153.77481 369.6222 C 150.48679 368.84325 148.49466 367.29957 143.11823 367.75414 L 146.6478 363.41745 Z" fill="#FFFFFF"/>
          <path d="M 146.6478 363.41745 C 150.40198 364.67184 152.32327 367.00816 153.77481 369.6222 C 150.48679 368.84325 148.49466 367.29957 143.11823 367.75414 L 146.6478 363.41745 Z" stroke="black" stroke-linecap="round" stroke-linejoin="round" stroke-width="1"/>
        </g>
        <g id="Line_90">
          <line x1="192.57993" y1="277.02414" x2="154.5249" y2="266.51627" stroke="#FFFFFF" stroke-linecap="square" stroke-linejoin="miter" stroke-width="1"/>
        </g>
        <g id="Graphic_89">
          <path d="M 43.214294 104.26334 C 47.225586 104.13046 50.65167 103.11681 53.64325 103.94942 C 63.07572 106.57453 69.14296 113.10692 74.0579 119.40658 C 65.78151 120.32486 56.32328 119.24183 49.778754 123.09294 C 50.61691 123.68232 51.440966 124.61705 52.43775 124.52515 C 59.57482 123.86757 65.66333 125.44532 68.88963 129.06814 C 72.32174 127.99321 75.791 125.53652 79.296455 121.72425 C 75.90667 116.85364 76.43069 121.07162 69.12692 107.11258 C 69.77495 103.87025 68.41866 101.38283 71.07135 97.38546 L 68.97302 94.4121 C 69.13828 92.56122 66.56263 91.98996 64.643996 91.11216 C 63.085374 92.46232 61.298326 93.70393 62.93678 96.5726 C 56.45879 95.11679 45.136945 92.98483 43.214294 104.26334 Z" fill="#FFFFFF"/>
          <path d="M 43.214294 104.26334 C 47.225586 104.13046 50.65167 103.11681 53.64325 103.94942 C 63.07572 106.57453 69.14296 113.10692 74.0579 119.40658 C 65.78151 120.32486 56.32328 119.24183 49.778754 123.09294 C 50.61691 123.68232 51.440966 124.61705 52.43775 124.52515 C 59.57482 123.86757 65.66333 125.44532 68.88963 129.06814 C 72.32174 127.99321 75.791 125.53652 79.296455 121.72425 C 75.90667 116.85364 76.43069 121.07162 69.12692 107.11258 C 69.77495 103.87025 68.41866 101.38283 71.07135 97.38546 L 68.97302 94.4121 C 69.13828 92.56122 66.56263 91.98996 64.643996 91.11216 C 63.085374 92.46232 61.298326 93.70393 62.93678 96.5726 C 56.45879 95.11679 45.136945 92.98483 43.214294 104.26334 Z" stroke="black" stroke-linecap="round" stroke-linejoin="round" stroke-width="1"/>
        </g>
        <g id="Graphic_88">
          <path d="M 43.214555 104.26346 C 47.225623 104.13053 50.65195 103.11692 53.64343 103.94943 C 63.07583 106.57445 69.14316 113.10698 74.05795 119.4066 C 65.781574 120.32487 56.32339 119.2419 49.778866 123.09303 C 50.617034 123.68236 51.441093 124.61709 52.437766 124.52528 C 59.57484 123.86758 65.66349 125.44531 68.88986 129.06819 C 72.32202 127.99319 75.79117 125.53648 79.296495 121.72423 C 75.90663 116.85372 76.43082 121.0716 69.12696 107.11268 C 69.77513 103.8703 68.418766 101.38281 71.0714 97.38553 L 68.97312 94.4122 C 69.1383 92.5611 66.56277 91.99008 64.64424 91.11222 C 63.085585 92.46232 61.2985 93.70393 62.937004 96.5725 C 56.458865 95.11686 45.136973 92.98493 43.214555 104.26346 Z" stroke="#FFFFFF" stroke-linecap="square" stroke-linejoin="miter" stroke-width="1"/>
        </g>
        <g id="Graphic_87">
          <circle cx="206.35963" cy="164.05624" r="7.74395044495509" fill="#FFFFFF"/>
        </g>
      </g>
    </g>
  </g>
</svg>
