<?xml version="1.0" encoding="UTF-8" standalone="no"?>
<!DOCTYPE svg PUBLIC "-//W3C//DTD SVG 1.1//EN" "http://www.w3.org/Graphics/SVG/1.1/DTD/svg11.dtd">
<svg xmlns="http://www.w3.org/2000/svg" xmlns:xl="http://www.w3.org/1999/xlink" version="1.1" xmlns:dc="http://purl.org/dc/elements/1.1/" viewBox="45 63 135 351" width="135" height="351">
  <defs>
    <clipPath id="artboard_clip_path">
      <path d="M 45 63 L 180 63 L 180 414 L 45 414 Z"/>
    </clipPath>
  </defs>
  <g id="Cresset_(2)" stroke-opacity="1" fill="none" fill-opacity="1" stroke-dasharray="none" stroke="none">
    <title>Cresset (2)</title>
    <g id="Cresset_(2)_Art" clip-path="url(#artboard_clip_path)">
      <title>Art</title>
      <g id="Group_766">
        <g id="Graphic_843">
          <path d="M 95.71209 67.13301 C 87.38393 73.7714 79.99721 82.50993 75.62794 90.8381 C 71.64491 98.49035 69.6896 105.63568 69.399924 113.52933 C 69.303366 116.81231 69.351645 117.7779 69.930995 121.3747 C 71.52421 131.56161 73.93817 140.44499 76.81078 146.72128 C 78.33158 150.0284 80.67312 157.5841 80.67312 159.17732 L 80.67312 159.87737 L 77.65567 159.87737 L 74.63822 159.87737 L 74.63822 157.63238 C 74.61408 151.9113 72.82775 144.62114 70.29309 139.9622 C 67.32392 134.55492 62.90637 130.23393 57.93361 127.89239 C 55.64035 126.83025 54.9403 126.66127 54.771324 127.14406 C 54.650626 127.4096 55.01272 127.81997 55.954164 128.52002 C 62.32702 133.22724 66.961824 142.30374 68.84471 153.84247 C 69.11025 155.5081 69.399924 158.21173 69.47234 159.87737 L 69.59304 162.89482 L 68.82057 163.37761 C 67.44462 164.2225 67.03424 165.0191 67.03424 166.82957 C 67.05838 168.76074 67.541175 169.82288 68.748155 170.54707 L 69.5689 171.02986 L 69.5689 188.67592 L 69.5689 206.3461 L 68.67574 206.8289 C 67.468756 207.48067 66.913545 208.63937 66.913545 210.44984 C 66.913545 212.2603 67.468756 213.419 68.67574 214.07078 C 69.42406 214.48115 69.5689 214.67427 69.5689 215.35018 C 69.5689 217.47446 67.32392 219.42977 63.7754 220.34708 C 60.0579 221.31266 58.416404 223.14727 58.392265 226.38198 C 58.368125 229.52013 60.44413 232.22376 64.33061 234.10665 C 68.50676 236.11024 71.47593 236.61717 80.57656 236.8103 L 87.57705 236.95512 L 87.14253 237.82415 C 86.65974 238.78973 86.58732 239.73118 86.94942 241.01058 C 87.28737 242.21756 88.13226 243.0383 89.53235 243.54524 L 90.73933 243.97975 L 90.95659 257.01514 C 91.05315 264.20874 91.14971 271.3782 91.17385 272.9714 L 91.17385 275.86817 L 89.91859 275.9406 L 88.68747 276.013 L 88.51849 277.14757 C 88.34951 278.42696 88.71161 287.93797 89.26682 297.2317 C 90.1117 311.57064 92.86362 347.78005 93.12916 348.21456 C 93.20157 348.3111 93.85334 348.40768 94.57753 348.40768 C 95.30172 348.40768 95.88107 348.50424 95.88107 348.6008 C 95.88107 349.80777 96.5087 356.2289 96.99149 359.7533 C 97.7881 365.7399 100.44346 380.8996 101.07109 383.1687 C 101.1435 383.4101 100.70899 383.8205 99.83997 384.3757 C 98.10191 385.46197 95.68795 388.0449 94.72237 389.90366 C 92.45325 394.10395 92.45325 399.7285 94.69823 403.9529 C 95.68795 405.7875 97.9088 408.2015 99.67099 409.3843 C 100.41932 409.89125 101.98839 410.61544 103.12295 411.0258 C 104.93342 411.65344 105.48863 411.75 107.83017 411.75 C 110.17172 411.75 110.72693 411.65344 112.5374 411.0258 C 115.0962 410.13265 116.90667 408.9498 118.78955 406.9462 C 121.27593 404.2667 122.67603 400.7182 122.67603 397.0007 C 122.67603 394.34535 122.33808 392.8487 121.20352 390.483 C 119.87584 387.6828 117.89639 385.63095 114.54098 383.5308 C 114.51684 383.5308 114.90308 381.35824 115.43415 378.75116 C 117.2929 369.48155 119.05509 357.9911 119.41718 352.9942 C 119.4896 351.85964 119.6103 350.363 119.68272 349.68708 L 119.80342 348.40768 L 121.1311 348.40768 C 121.97598 348.40768 122.48291 348.287 122.55533 348.118 C 122.74845 347.5628 124.80032 321.12992 125.81418 306.16337 C 126.70735 292.7176 127.21428 281.2513 127.06944 277.14757 L 127.02116 276.013 L 125.7659 275.9406 L 124.4865 275.86817 L 124.4865 272.60932 C 124.4865 270.823 124.58306 263.6294 124.70376 256.65304 L 124.92101 243.93147 L 125.86246 243.66593 C 127.19014 243.25556 128.42126 242.09686 128.73507 240.91402 C 129.02475 239.77946 128.85577 238.23452 128.3247 237.41378 L 127.98674 236.8827 L 132.98364 236.8827 C 143.38781 236.8827 148.96406 235.86884 152.9471 233.26176 C 156.68873 230.82366 158.16125 227.3717 156.88185 224.04044 C 156.1818 222.20583 154.82998 221.2161 151.81253 220.2988 C 148.11917 219.16424 146.09145 217.42618 146.09145 215.39846 C 146.09145 214.626 146.188 214.457 146.7915 214.19148 C 148.77094 213.37073 149.56755 210.57054 148.5054 208.20486 C 148.14331 207.40825 147.80536 207.0703 147.05703 206.75648 L 146.09145 206.3461 L 146.09145 188.6035 L 146.09145 170.86089 L 146.88805 170.4988 C 148.14331 169.8953 148.7468 168.76074 148.7468 166.902 C 148.7468 165.0191 148.23987 163.9811 146.93633 163.23277 C 146.11559 162.74998 146.09145 162.67756 146.09145 161.22918 C 146.09145 159.5877 146.69494 154.18042 147.0329 152.61135 C 147.32257 151.38023 148.52955 150.05255 150.72625 148.60417 C 153.79198 146.60058 156.5439 145.61086 161.90289 144.54872 C 165.91006 143.75211 168.29988 142.61755 170.71384 140.3967 C 173.68302 137.64479 175.63832 133.99971 176.70047 129.22007 C 177.35224 126.34746 177.25568 118.4538 176.53149 114.37421 C 175.97628 111.18778 175.61418 110.31876 175.1314 110.92225 C 174.98655 111.09123 174.43134 112.32235 173.852 113.65002 C 170.40003 121.85749 165.23415 128.61658 159.94758 131.85129 C 158.57162 132.69617 155.74729 133.8066 154.99896 133.8066 C 154.5403 133.8066 154.5403 133.78245 154.9024 133.27552 C 155.57831 132.2858 158.4992 129.41319 159.7786 128.47174 C 160.62349 127.84411 160.98558 127.4096 160.91316 127.1682 C 160.72005 126.66127 160.45451 126.70955 158.35437 127.62686 C 155.96455 128.66486 152.87468 130.74086 151.04007 132.55133 C 149.76067 133.78245 149.39857 134.02385 147.97434 134.3618 C 145.97075 134.86874 144.03958 135.71362 142.5912 136.70335 C 141.98771 137.11372 141.50492 137.4034 141.50492 137.33098 C 141.50492 137.25856 141.84288 135.54465 142.27739 133.51692 C 143.00158 130.04082 143.04986 129.53388 143.074 124.63354 C 143.074 120.43325 143.00158 119.15385 142.66362 117.94687 C 141.50492 113.74658 138.4392 106.93921 136.19421 103.53553 C 134.601 101.14571 132.33187 98.80417 131.60768 98.80417 C 131.17317 98.80417 131.10075 98.90073 131.19731 99.33524 C 132.59741 105.24944 133.03192 109.78769 132.62155 114.32593 C 131.99392 121.06088 131.10075 123.90936 126.87632 132.35822 C 123.15882 139.76908 122.74845 140.46913 123.40022 138.0793 C 125.21069 131.58575 125.21069 122.07475 123.40022 113.65002 C 121.63803 105.37014 118.06537 97.28337 113.43056 91.15191 C 111.08902 88.0379 110.53381 88.1586 111.45112 91.58643 C 113.09261 97.66961 113.86508 104.91149 113.67196 112.08095 C 113.47884 118.8159 112.56154 124.4887 110.75107 130.06496 L 109.95446 132.47892 L 109.42339 130.66845 C 108.40952 127.21648 108.43366 127.2889 107.85431 127.2889 C 107.37152 127.2889 107.22668 127.55444 106.64733 129.38905 C 104.95756 134.98943 103.55746 142.54513 102.92983 149.49734 L 102.73672 151.5492 L 102.20565 148.65245 C 100.85383 141.57955 100.00894 139.14145 96.82251 132.96171 C 90.40138 120.50567 87.33565 110.5843 86.73216 100.4698 C 86.03211 88.83451 88.953 78.4062 95.15688 70.19874 C 96.07419 68.99176 97.30531 67.54338 97.9088 66.93989 C 98.51229 66.36054 99.01922 65.73291 99.01922 65.56393 C 99.01922 64.839744 97.93294 65.370816 95.71209 67.13301 Z M 141.02213 158.1876 L 141.02213 159.87737 L 140.05655 159.87737 L 139.09096 159.87737 L 139.93585 158.1876 C 140.3945 157.24615 140.82901 156.49782 140.90143 156.49782 C 140.97385 156.49782 141.02213 157.24615 141.02213 158.1876 Z M 80.43172 175.10946 L 80.43172 175.10946 C 80.43172 175.2543 80.26275 176.67853 80.04549 178.29589 C 79.80409 180.15463 79.6834 182.35134 79.75581 184.2825 L 79.85237 187.3241 L 78.33158 186.0447 C 77.51083 185.34465 76.40041 184.5239 75.86934 184.21009 L 74.87961 183.65488 L 74.87961 179.23733 L 74.87961 174.84392 L 77.65567 174.84392 C 79.49028 174.84392 80.43172 174.94048 80.43172 175.10946 Z M 140.68418 189.97945 L 140.68418 189.97945 C 140.58762 198.30762 140.46692 205.16327 140.41864 205.21154 C 140.37036 205.28396 138.3185 205.23568 135.8804 205.13913 L 131.4387 204.97015 L 132.11462 203.20796 C 133.90095 198.64557 134.69755 193.8418 134.98723 186.18954 C 135.20449 180.58915 135.34932 179.23733 135.97695 176.9682 C 136.5563 174.74736 136.4356 174.84392 138.753 174.84392 L 140.85315 174.84392 L 140.68418 189.97945 Z M 76.690085 192.48997 L 76.690085 192.48997 C 78.01776 196.9558 79.70754 203.76317 79.70754 204.72875 C 79.70754 205.23568 79.61098 205.25982 77.41427 205.25982 L 75.12101 205.25982 L 75.12101 198.6697 C 75.12101 195.0729 75.04859 191.01746 74.97617 189.68978 C 74.87961 187.97587 74.92789 187.39652 75.09687 187.66205 C 75.24171 187.8793 75.94176 190.05187 76.690085 192.48997 Z M 82.7974 217.20893 L 83.37676 218.39177 L 81.54215 220.10568 C 80.50414 221.07126 79.5627 222.18169 79.34544 222.71276 C 78.59711 224.4991 78.62125 227.6131 79.39372 230.22017 C 79.51442 230.6547 79.34544 230.67883 75.09687 230.55813 C 70.606904 230.4133 66.74457 229.83394 65.17549 229.0132 C 63.70298 228.26487 63.292604 226.43026 64.37889 225.58537 C 64.71684 225.31983 65.82726 224.90946 66.865266 224.6922 C 71.765605 223.60592 75.12101 220.51605 75.12101 217.0158 L 75.12101 215.8571 L 78.66953 215.92953 L 82.24219 216.00195 L 82.7974 217.20893 Z M 140.53934 217.0158 L 140.53934 217.0158 C 140.53934 219.40563 142.56707 222.18169 145.19828 223.46109 C 145.89833 223.79904 147.4674 224.3301 148.69852 224.66807 C 151.28146 225.31983 151.88495 225.75435 151.88495 226.91305 C 151.88495 229.18217 148.45713 230.2926 140.68418 230.534 C 136.29077 230.67883 136.14593 230.6547 136.29077 230.22017 C 136.99082 227.99933 137.08738 225.22328 136.53216 223.3404 C 136.19421 222.22997 135.85626 221.74717 133.9975 219.98498 C 132.8388 218.85042 131.70424 217.54688 131.51113 217.08823 C 131.17317 216.29162 131.19731 216.24334 131.6801 216.07437 C 131.96978 216.00195 134.09406 215.92953 136.38733 215.9054 L 140.53934 215.88125 L 140.53934 217.0158 Z M 125.06585 218.8987 L 125.06585 218.8987 C 125.62106 220.03326 126.27283 220.854 127.50395 221.9403 C 128.66265 222.95415 129.29028 223.75076 129.57996 224.47495 C 130.59382 227.15444 128.63851 230.34087 125.8866 230.43743 L 124.7279 230.4857 L 124.02785 228.43384 C 123.37608 226.59923 123.30366 226.04402 123.30366 223.36453 C 123.27952 221.07126 123.40022 219.98498 123.73817 218.82628 C 123.97957 218.00553 124.22097 217.32963 124.2451 217.32963 C 124.26925 217.32963 124.65548 218.02967 125.06585 218.8987 Z" fill="black"/>
        </g>
        <g id="Graphic_842">
          <path d="M 90.42552 73.26447 C 90.32896 73.4093 89.67719 74.35075 88.953 75.34047 C 80.91452 86.54125 78.25916 100.66292 81.66284 114.08454 C 81.92838 115.12254 82.94224 118.01929 83.90783 120.48153 C 87.19081 128.8097 89.33924 133.42036 91.99459 137.78963 C 95.32586 143.24518 97.08805 149.93185 97.08805 157.0289 L 97.08805 159.87737 L 94.312 159.87737 C 92.7912 159.87737 91.53594 159.82909 91.53594 159.75667 C 91.53594 158.88764 90.64278 151.98372 90.20826 149.32836 C 88.49435 139.18973 85.30792 130.93398 81.78354 127.55444 C 80.38344 126.20262 80.26275 126.70955 81.10763 130.35463 C 83.11122 138.6828 84.1975 146.74542 84.46304 155.09773 L 84.60787 159.87737 L 83.25606 159.87737 L 81.90424 159.87737 L 81.7594 158.96006 C 81.25247 155.94261 78.86265 148.72487 77.05218 144.66942 C 74.58994 139.14145 72.20012 129.87184 70.77588 120.28842 C 69.27923 110.36704 71.91044 98.87659 77.99362 88.66553 C 80.74554 84.05487 83.54573 80.38565 88.10812 75.43703 C 90.25654 73.14377 90.83589 72.56442 90.42552 73.26447 Z" fill="#FFFFFF"/>
        </g>
        <g id="Graphic_841">
          <path d="M 90.32896 76.0888 C 84.75271 87.21716 84.10094 101.36297 88.51849 115.91915 C 89.82203 120.31256 94.0706 130.25807 96.33972 134.28939 C 99.62271 140.10703 101.5056 147.51789 102.3022 157.75308 L 102.44704 159.87737 L 100.29862 159.87737 L 98.12605 159.87737 L 97.98122 155.58052 C 97.73982 148.16966 95.97763 142.06234 92.5498 136.72749 C 89.96687 132.74445 83.66643 118.16413 82.53187 113.50519 C 79.61098 101.65264 81.54215 89.24488 87.915 78.7683 C 89.09784 76.83713 91.29455 73.69898 91.46352 73.69898 C 91.5118 73.69898 91.00487 74.78526 90.32896 76.0888 Z" fill="#FFFFFF"/>
        </g>
        <g id="Graphic_840">
          <path d="M 116.11006 97.1144 C 120.55175 104.98391 122.98985 113.36035 123.64162 123.11275 C 124.17269 130.62017 123.13468 137.42753 120.6483 142.8348 C 119.75514 144.74184 117.89639 147.2765 115.04792 150.3905 L 113.14089 152.49065 L 112.99605 151.76646 C 112.89949 151.38023 112.82707 150.48706 112.80293 149.76287 C 112.7788 148.60417 112.89949 148.3145 114.00991 146.64886 C 120.16551 137.42753 121.78287 124.46457 118.64472 109.54629 C 117.87225 105.87707 116.18248 100.01115 114.9755 96.82472 C 113.5754 93.1555 113.62368 93.2762 114.20303 93.97625 C 114.46857 94.3142 115.33759 95.7143 116.11006 97.1144 Z" fill="#FFFFFF"/>
        </g>
        <g id="Graphic_839">
          <path d="M 114.80652 99.38352 C 121.10696 118.26069 120.69658 133.66176 113.5754 145.46602 C 113.11675 146.23849 112.68223 146.81784 112.60982 146.76956 C 112.56154 146.69714 112.24772 144.93495 111.93391 142.8348 C 111.62009 140.71052 111.1373 137.9586 110.84763 136.65507 L 110.34069 134.33767 L 110.84763 133.03413 C 111.59595 131.07882 112.92363 126.2509 113.4547 123.54726 C 114.42029 118.74348 114.58926 116.71575 114.58926 109.78769 C 114.58926 103.36655 114.37201 100.78362 113.5754 96.53504 C 113.30986 95.13495 113.6961 96.00397 114.80652 99.38352 Z" fill="#FFFFFF"/>
        </g>
        <g id="Graphic_838">
          <path d="M 134.45616 102.83548 C 136.94254 106.21503 139.91171 112.39477 141.40836 117.27097 C 142.036 119.32283 142.08427 119.68493 142.08427 124.27145 C 142.08427 128.27862 142.01185 129.58216 141.5532 131.99612 C 140.5152 137.5241 138.70473 143.41416 136.09765 149.85943 C 134.38374 154.05972 131.58355 159.87737 131.29387 159.87737 C 130.93178 159.87737 131.26973 151.35609 131.84908 146.23849 C 132.69397 138.65865 133.70783 133.3238 135.37346 127.4096 C 136.41147 123.66796 136.677 121.97819 136.677 118.74348 C 136.677 113.86728 135.18035 106.57712 133.17676 101.6285 C 132.8388 100.8319 133.24918 101.21813 134.45616 102.83548 Z" fill="#FFFFFF"/>
        </g>
        <g id="Graphic_837">
          <path d="M 134.91481 111.35676 C 135.47002 113.98798 135.54244 114.92942 135.54244 118.71934 C 135.54244 124.24731 135.10793 126.17848 133.4423 128.03723 C 131.31801 130.40291 129.77307 133.51692 127.69707 139.6001 C 125.16241 147.0351 120.84142 153.45623 115.36173 157.8255 L 113.38228 159.41871 L 113.23745 156.69094 L 113.09261 153.96316 L 114.9755 151.98372 C 118.693 148.02482 122.45877 142.81067 125.25897 137.78963 C 127.38325 133.9273 130.90764 126.54057 131.63182 124.31973 C 133.2009 119.68493 133.92509 114.49491 133.73197 109.32904 C 133.61127 106.384 133.63541 106.23917 133.94923 107.25303 C 134.1182 107.85652 134.55272 109.69113 134.91481 111.35676 Z" fill="#FFFFFF"/>
        </g>
        <g id="Graphic_836">
          <path d="M 174.57618 117.07785 C 173.70716 125.43015 171.38975 131.65817 167.8171 135.27911 C 165.47555 137.64479 163.80992 138.48968 160.1407 139.14145 C 158.64404 139.38284 156.5439 139.93805 155.45761 140.32429 C 153.55059 141.02434 150.3883 142.73825 150.07448 143.22104 C 150.00206 143.36588 149.83309 143.46244 149.71239 143.46244 C 149.27788 143.46244 151.20904 138.97247 152.72984 136.48609 C 153.52645 135.15841 153.64714 135.06185 154.70929 134.89288 C 161.25112 133.9273 168.32402 127.21648 173.20022 117.36752 C 174.02097 115.70189 174.74516 114.37421 174.7693 114.39835 C 174.81758 114.44663 174.74516 115.62947 174.57618 117.07785 Z" fill="#FFFFFF"/>
        </g>
        <g id="Graphic_835">
          <path d="M 176.12112 122.46098 C 176.12112 127.2889 176.07284 127.81997 175.46935 130.06496 C 174.55204 133.49278 173.0071 136.48609 171.07594 138.5621 C 168.29988 141.57955 165.9342 142.78653 161.03386 143.70383 C 156.1818 144.62114 152.31947 146.14193 149.30201 148.38692 C 148.45713 148.9904 147.78122 149.37664 147.78122 149.20766 C 147.78122 149.06282 147.9502 148.26622 148.16745 147.46961 C 148.48127 146.21435 148.7468 145.80398 149.88137 144.74184 C 151.25732 143.4383 154.41961 141.65197 156.64045 140.95192 C 157.31636 140.71052 159.05442 140.32429 160.47865 140.08289 C 164.19615 139.43112 166.1756 138.41726 168.56542 135.97916 C 170.18277 134.3618 170.64143 133.6859 171.92082 131.10296 C 173.58646 127.69927 174.84172 123.28173 175.34865 118.98488 C 175.83144 114.95356 176.14526 116.3778 176.12112 122.46098 Z" fill="#FFFFFF"/>
        </g>
        <g id="Graphic_834">
          <path d="M 109.39925 134.77218 C 110.72693 140.49326 111.54767 146.26263 112.0546 153.35967 C 112.19944 155.5081 112.296 172.01959 112.296 196.25575 L 112.296 235.67573 L 107.83017 235.67573 L 103.36435 235.67573 L 103.36435 196.73854 C 103.36435 173.2507 103.4609 156.3047 103.60574 153.96316 C 104.16095 145.2729 105.29552 138.15172 107.27496 130.78914 L 107.80603 128.85798 L 108.24055 130.30635 C 108.50608 131.10296 109.01302 133.10655 109.39925 134.77218 Z" fill="#FFFFFF"/>
        </g>
        <g id="Graphic_833">
          <path d="M 61.55455 131.27194 C 67.3722 135.54465 71.37937 142.47271 72.94845 150.94571 C 73.648495 154.7115 73.84161 161.73612 74.03473 192.90035 L 74.203705 217.83656 L 73.57608 219.1401 C 72.46565 221.36094 70.41379 222.76104 66.81699 223.6542 C 64.451305 224.2577 63.6547 224.61979 63.14777 225.4164 C 62.616695 226.213 62.78567 228.24073 63.43744 228.94078 C 64.86168 230.50985 69.4482 231.49957 76.20729 231.6927 L 79.82823 231.78925 L 80.50414 232.82725 C 80.89038 233.4066 81.73526 234.27563 82.41117 234.78256 L 83.64229 235.67573 L 79.03163 235.67573 C 76.49697 235.67573 73.57608 235.55503 72.53807 235.4102 C 64.427166 234.3239 59.43027 230.87194 59.43027 226.40612 C 59.43027 224.98188 59.8165 223.91974 60.733806 222.93001 C 61.409715 222.15755 62.18218 221.79545 64.01679 221.31266 C 67.05838 220.51605 69.61718 218.72972 70.31723 216.8951 C 70.48621 216.4606 70.558625 206.99787 70.534486 187.54135 C 70.51035 156.69094 70.51035 156.5461 69.23095 150.46292 C 67.61359 142.7141 63.60642 134.21697 59.9372 130.81328 C 59.526826 130.40291 59.18887 129.99254 59.18887 129.89598 C 59.18887 129.6063 59.79236 129.94426 61.55455 131.27194 Z" fill="#FFFFFF"/>
        </g>
        <g id="Graphic_832">
          <path d="M 155.36106 131.19952 C 150.87109 136.05158 147.5881 143.80039 145.77763 153.69763 C 145.2707 156.57024 145.2707 156.98061 145.17414 186.47921 C 145.10172 215.83297 145.12586 216.36404 145.58452 217.28135 C 146.50182 219.06768 148.7468 220.56433 151.64356 221.31266 C 153.623 221.8196 154.32305 222.20583 155.1438 223.1714 C 156.01282 224.2094 156.25422 224.88532 156.25422 226.43026 C 156.32664 230.82366 151.20904 234.3239 143.12228 235.4102 C 142.08427 235.55503 139.16338 235.67573 136.62872 235.67573 L 132.01806 235.67573 L 133.15262 234.90326 C 133.80439 234.49288 134.67341 233.62386 135.08379 232.9721 L 135.83212 231.78925 L 139.3565 231.6927 C 145.46382 231.54785 150.17104 230.6547 151.74011 229.3753 C 152.85054 228.43384 153.26091 227.10617 152.75398 225.92332 C 152.29533 224.8129 151.547 224.35425 148.9882 223.70248 C 146.26042 223.00243 144.61893 222.15755 143.3154 220.80573 C 141.28767 218.72972 141.40836 221.52992 141.72218 186.86544 C 142.01185 153.81833 142.036 153.55279 143.33953 148.29036 C 144.78791 142.47271 147.39499 137.64479 151.04007 133.95143 C 152.7057 132.26166 156.01282 129.70286 156.5439 129.70286 C 156.6646 129.70286 156.13352 130.37877 155.36106 131.19952 Z" fill="#FFFFFF"/>
        </g>
        <g id="Graphic_831">
          <path d="M 84.36648 133.2031 C 86.85286 138.17586 88.49435 144.25904 89.89445 153.60107 C 90.40138 157.0289 90.42552 157.80136 90.49794 186.69647 L 90.5945 216.29162 L 90.06343 217.71586 C 89.62891 218.87456 89.12198 219.52633 87.43221 221.19196 C 84.34234 224.2577 84.0768 225.68193 85.93555 229.496 C 86.00797 229.61668 85.69416 229.496 85.28378 229.2546 C 84.00438 228.50626 83.69057 227.80621 83.69057 225.75435 C 83.69057 223.55764 84.10094 222.83346 86.27351 221.19196 C 88.0357 219.86428 89.02542 218.6573 89.60477 217.1365 C 90.01515 216.05023 90.03929 214.52943 89.84617 185.94814 C 89.65305 157.65652 89.60477 155.72536 89.17026 152.87688 C 88.1564 146.64886 86.49076 140.30015 84.1975 134.12041 C 83.47331 132.18924 82.99052 130.71672 83.08708 130.81328 C 83.20778 130.93398 83.78713 131.99612 84.36648 133.2031 Z" fill="#FFFFFF"/>
        </g>
        <g id="Graphic_830">
          <path d="M 131.46285 134.16869 C 128.42126 142.32787 126.5625 150.53534 126.07972 157.9462 C 125.93488 159.87737 125.81418 173.83006 125.79004 188.98973 L 125.71762 216.50888 L 126.2487 217.54688 C 127.09358 219.1401 127.9626 220.12982 129.6041 221.3368 C 131.39043 222.66448 132.09048 223.8956 132.09048 225.7302 C 132.09048 227.39584 131.58355 228.55454 130.61796 229.1339 C 130.18345 229.39943 129.77307 229.59254 129.74894 229.54427 C 129.70066 229.496 129.89377 229.06147 130.18345 228.57868 C 130.47312 228.0959 130.73866 227.10617 130.81108 226.28542 C 131.0042 224.3301 130.37657 223.12313 128.22814 221.2161 C 127.09358 220.20224 126.36939 219.30907 125.8866 218.3435 L 125.21069 216.96753 L 125.21069 187.63791 C 125.21069 160.64983 125.23483 158.04276 125.6452 154.92875 C 126.87632 145.61086 128.54196 139.04489 131.14903 133.58934 C 131.8008 132.21338 132.38015 131.1271 132.45257 131.17538 C 132.50085 131.2478 132.06634 132.59961 131.46285 134.16869 Z" fill="#FFFFFF"/>
        </g>
        <g id="Graphic_829">
          <path d="M 85.62174 141.65197 C 86.94942 146.21435 87.81844 150.31808 88.25296 154.13214 C 88.63919 157.43927 89.00128 163.9811 88.80817 163.9811 C 88.73575 163.9811 88.2771 163.7397 87.7943 163.47417 C 87.21495 163.13621 86.70802 162.99138 86.24937 163.08793 L 85.57346 163.23277 L 85.42862 156.5461 C 85.28378 148.72487 84.60787 142.32787 83.18364 134.77218 C 82.94224 133.4445 84.63201 138.24828 85.62174 141.65197 Z" fill="#FFFFFF"/>
        </g>
        <g id="Graphic_828">
          <path d="M 131.96978 137.93447 C 130.8835 144.16248 130.37657 149.69045 130.23173 156.6668 L 130.08689 163.23277 L 129.45926 163.11207 C 129.09717 163.03966 128.4454 163.1845 127.89019 163.47417 L 126.94874 163.95696 L 127.09358 159.32216 C 127.23842 154.3494 127.69707 150.94571 128.97647 145.7557 C 129.70066 142.81067 132.35601 134.21697 132.50085 134.38594 C 132.54913 134.43422 132.30773 136.02744 131.96978 137.93447 Z" fill="#FFFFFF"/>
        </g>
        <g id="Graphic_827">
          <path d="M 147.20187 136.99302 C 145.77763 139.02075 143.82232 143.0762 143.02572 145.56258 C 142.4705 147.3972 142.32567 147.63859 141.28767 148.38692 C 139.04268 149.98013 136.62872 153.64935 135.22863 157.53583 L 134.38374 159.87737 L 133.46643 159.87737 L 132.57327 159.87737 L 133.75611 157.48755 C 135.61486 153.81833 137.66673 148.84557 139.28408 144.1142 C 140.10483 141.74852 140.8773 139.6001 141.02213 139.3587 C 141.38422 138.6828 144.08786 136.82404 145.60866 136.22055 C 147.08117 135.61706 148.09503 135.30325 148.21573 135.37567 C 148.26401 135.42395 147.80536 136.124 147.20187 136.99302 Z" fill="#FFFFFF"/>
        </g>
        <g id="Graphic_826">
          <path d="M 125.35553 150.0284 C 125.08999 151.64576 124.75204 154.18042 124.6072 155.65294 C 124.46236 157.10131 124.29338 158.67039 124.22097 159.08076 L 124.10027 159.87737 L 119.27235 159.87737 L 114.44443 159.87737 L 116.27904 158.40485 C 119.27235 155.9909 123.11054 151.45265 125.04171 148.02482 C 125.37967 147.3972 125.71762 146.9144 125.7659 146.96268 C 125.81418 147.01096 125.62106 148.38692 125.35553 150.0284 Z" fill="#FFFFFF"/>
        </g>
        <g id="Graphic_825">
          <path d="M 141.9153 149.78701 C 141.84288 150.10083 141.64976 151.21125 141.48078 152.2734 C 141.23939 153.7459 140.97385 154.51837 140.32208 155.53224 C 139.83929 156.28057 139.13924 157.55997 138.753 158.38071 L 138.02882 159.87737 L 136.74942 159.87737 C 136.04937 159.87737 135.47002 159.82909 135.47002 159.7808 C 135.47002 159.49113 136.7977 156.25643 137.42533 154.97703 C 138.4392 152.99758 139.42892 151.52506 140.61176 150.2698 C 141.72218 149.13524 142.10841 148.9904 141.9153 149.78701 Z" fill="#FFFFFF"/>
        </g>
        <g id="Graphic_824">
          <path d="M 84.53546 162.50858 C 84.53546 163.42589 84.36648 164.53631 84.17336 165.0191 C 83.71471 166.10539 83.71471 168.13311 84.17336 169.41251 C 84.36648 169.94358 84.53546 171.10228 84.53546 171.9713 C 84.53546 173.44382 84.48718 173.58866 84.00438 173.7335 C 83.69057 173.80592 81.51801 173.87834 79.17646 173.87834 L 74.87961 173.87834 L 74.87961 167.36064 L 74.87961 160.84295 L 79.70754 160.84295 L 84.53546 160.84295 L 84.53546 162.50858 Z" fill="#FFFFFF"/>
        </g>
        <g id="Graphic_823">
          <path d="M 102.39876 167.36064 L 102.39876 173.87834 L 96.96735 173.87834 L 91.53594 173.87834 L 91.53594 167.36064 L 91.53594 160.84295 L 96.96735 160.84295 L 102.39876 160.84295 L 102.39876 167.36064 Z" fill="#FFFFFF"/>
        </g>
        <g id="Graphic_822">
          <path d="M 124.12441 167.36064 L 124.12441 173.87834 L 118.693 173.87834 L 113.26159 173.87834 L 113.26159 167.36064 L 113.26159 160.84295 L 118.693 160.84295 L 124.12441 160.84295 L 124.12441 167.36064 Z" fill="#FFFFFF"/>
        </g>
        <g id="Graphic_821">
          <path d="M 140.82901 161.01193 C 140.8773 161.13263 140.8773 164.05352 140.82901 167.52962 L 140.7566 173.87834 L 136.48388 173.87834 C 134.14234 173.87834 131.96978 173.80592 131.6801 173.7335 C 131.17317 173.58866 131.1249 173.44382 131.1249 171.94717 C 131.1249 171.054 131.29387 169.91944 131.48699 169.4608 C 131.6801 168.978 131.84908 167.91586 131.84908 167.11925 C 131.84908 166.32264 131.6801 165.2605 131.48699 164.7777 C 131.29387 164.31905 131.1249 163.23277 131.1249 162.38789 L 131.1249 160.84295 L 135.92867 160.84295 C 138.58403 160.84295 140.78073 160.91537 140.82901 161.01193 Z" fill="#FFFFFF"/>
        </g>
        <g id="Graphic_820">
          <path d="M 69.4482 169.72633 C 69.15853 170.016 68.31364 168.83316 68.096386 167.86758 C 67.80671 166.61232 68.168804 165.1398 68.91713 164.39147 L 69.4482 163.8604 L 69.52062 166.73301 C 69.54476 168.30209 69.52062 169.6539 69.4482 169.72633 Z" fill="#FFFFFF"/>
        </g>
        <g id="Graphic_819">
          <path d="M 87.86672 164.85013 C 88.30123 165.33292 88.39779 165.7433 88.39779 166.902 C 88.39779 168.59176 87.915 169.70219 87.04598 170.016 C 85.40448 170.64363 84.29406 168.22967 85.01825 165.6226 C 85.4769 163.95696 86.73216 163.619 87.86672 164.85013 Z" fill="#FFFFFF"/>
        </g>
        <g id="Graphic_818">
          <path d="M 129.7248 164.24664 C 130.37657 164.58459 130.8835 165.91227 130.8835 167.2158 C 130.8835 168.59176 130.56968 169.41251 129.8455 169.8953 C 128.51782 170.74019 127.26256 169.31595 127.26256 166.95027 C 127.26256 165.57431 127.67293 164.70529 128.46954 164.29491 C 129.19372 163.93282 129.1213 163.93282 129.7248 164.24664 Z" fill="#FFFFFF"/>
        </g>
        <g id="Graphic_817">
          <path d="M 146.69494 164.12594 C 147.63638 164.48803 148.16745 167.38478 147.49154 168.64004 C 147.20187 169.19525 146.59838 169.75047 146.28456 169.7746 C 146.16387 169.7746 146.09145 168.47107 146.09145 166.87785 C 146.09145 165.28464 146.13973 163.9811 146.188 163.9811 C 146.23629 163.9811 146.47768 164.05352 146.69494 164.12594 Z" fill="#FFFFFF"/>
        </g>
        <g id="Graphic_816">
          <path d="M 88.88058 188.8449 L 88.88058 207.69792 L 88.18054 207.16685 C 87.7943 206.90132 87.11839 206.65992 86.65974 206.63578 L 85.81486 206.61164 L 85.67002 194.54184 C 85.57346 187.8793 85.50104 179.86496 85.50104 176.72681 L 85.50104 171.00572 L 86.29765 171.12642 C 86.877 171.22298 87.28737 171.10228 87.915 170.66777 C 88.37365 170.32982 88.78403 170.04014 88.83231 170.04014 C 88.85645 170.016 88.88058 178.489 88.88058 188.8449 Z" fill="#FFFFFF"/>
        </g>
        <g id="Graphic_815">
          <path d="M 129.19372 171.10228 L 130.15931 171.10228 L 130.15931 187.63791 C 130.15931 196.73854 130.08689 204.72875 130.01447 205.40466 C 129.86963 206.5875 129.8455 206.61164 129.02475 206.63578 C 128.54196 206.65992 127.86605 206.90132 127.47981 207.16685 L 126.77976 207.69792 L 126.77976 188.8449 L 126.77976 169.99186 L 127.50395 170.54707 C 127.9626 170.88503 128.59023 171.07814 129.19372 171.10228 Z" fill="#FFFFFF"/>
        </g>
        <g id="Graphic_814">
          <path d="M 84.53546 184.42734 L 84.53546 193.98663 L 83.18364 191.8382 C 82.41117 190.65536 81.66284 189.42424 81.49387 189.08629 C 81.05935 188.2414 80.67312 185.65846 80.67312 183.53418 C 80.67312 181.7237 81.32489 175.39913 81.54215 175.03704 C 81.61456 174.94048 82.31461 174.84392 83.11122 174.84392 L 84.53546 174.84392 L 84.53546 184.42734 Z" fill="#FFFFFF"/>
        </g>
        <g id="Graphic_813">
          <path d="M 95.78451 176.09918 C 94.50511 178.1269 93.22571 180.8064 92.35669 183.29278 L 91.53594 185.58605 L 91.53594 180.20291 L 91.53594 174.84392 L 94.0706 174.84392 L 96.60526 174.84392 L 95.78451 176.09918 Z" fill="#FFFFFF"/>
        </g>
        <g id="Graphic_812">
          <path d="M 101.81941 175.375 C 101.6263 175.6888 100.95039 177.06477 100.32276 178.46486 C 95.66381 188.94145 94.67409 197.48687 97.37773 203.98042 C 98.12605 205.81503 98.19847 205.88745 98.75368 205.52536 C 99.04336 205.33224 98.99508 205.09085 98.46401 203.98042 C 96.388 199.58702 96.36386 193.52798 98.41573 186.47921 C 99.1882 183.75144 100.80555 179.62356 101.86769 177.61998 L 102.37462 176.6544 L 102.39876 195.77296 L 102.39876 214.91567 L 96.94321 214.91567 L 91.5118 214.91567 L 91.60836 202.16995 C 91.68078 191.283 91.7532 189.20699 92.11529 187.71033 C 93.08088 183.55832 94.69823 179.67184 96.70182 176.55783 L 97.81224 174.84392 L 99.9848 174.84392 L 102.15737 174.84392 L 101.81941 175.375 Z" fill="#FFFFFF"/>
        </g>
        <g id="Graphic_811">
          <path d="M 124.12441 175.42327 C 124.12441 175.73709 123.64162 176.8475 123.03813 177.86137 C 118.25848 185.94814 114.6134 196.20747 114.46857 202.00098 C 114.37201 205.38052 114.42029 205.71848 114.95136 205.57364 C 115.38587 205.45294 115.43415 205.23568 115.43415 203.3528 C 115.43415 199.49046 116.64113 194.32458 118.8137 188.7242 C 119.82756 186.1654 123.40022 178.8511 123.88301 178.3683 C 124.05199 178.19933 124.12441 184.45148 124.12441 196.52129 L 124.12441 214.91567 L 118.693 214.91567 L 113.26159 214.91567 L 113.26159 194.8798 L 113.26159 174.84392 L 118.693 174.84392 L 124.12441 174.84392 L 124.12441 175.42327 Z" fill="#FFFFFF"/>
        </g>
        <g id="Graphic_810">
          <path d="M 132.81467 175.0129 C 132.81467 175.1336 132.59741 176.38886 132.30773 177.86137 C 131.99392 179.55114 131.75252 182.39962 131.60768 185.6826 C 131.48699 188.50694 131.34215 190.89676 131.26973 190.96918 C 131.17317 191.0416 131.1249 187.4448 131.1249 182.97897 L 131.1249 174.84392 L 131.96978 174.84392 C 132.42843 174.84392 132.81467 174.91634 132.81467 175.0129 Z" fill="#FFFFFF"/>
        </g>
        <g id="Graphic_809">
          <path d="M 135.47002 174.91634 C 135.47002 174.94048 135.18035 176.0509 134.84239 177.37858 C 134.31132 179.47873 134.19062 180.565 134.02165 185.70674 C 133.90095 188.9656 133.63541 192.6831 133.4423 193.9625 C 133.05606 196.473 132.09048 200.4319 131.51113 202.00098 C 131.14903 202.91828 131.14903 202.82172 131.22145 199.58702 C 131.24559 197.26961 131.4387 195.36259 131.82494 193.55212 C 132.18704 191.69337 132.42843 189.37596 132.57327 185.82744 C 132.76639 181.38575 133.46643 175.78537 133.92509 175.03704 C 134.04578 174.86806 135.47002 174.74736 135.47002 174.91634 Z" fill="#FFFFFF"/>
        </g>
        <g id="Graphic_808">
          <path d="M 78.76609 187.85517 C 80.8421 189.93117 82.09736 191.7175 83.54573 194.56598 L 84.53546 196.56957 L 84.53546 200.81814 C 84.53546 204.60805 84.48718 205.04257 84.14922 204.97015 C 83.88369 204.92187 83.44917 204.0287 82.84568 202.24237 C 81.68698 198.76627 79.82823 194.25216 77.60739 189.47252 C 76.64181 187.37238 75.8452 185.58605 75.8452 185.53777 C 75.8452 185.22395 77.19702 186.2861 78.76609 187.85517 Z" fill="#FFFFFF"/>
        </g>
        <g id="Graphic_807">
          <path d="M 79.34544 195.84538 C 80.62484 198.9111 82.60429 204.34252 82.60429 204.80117 C 82.60429 204.92187 82.19391 205.01843 81.66284 205.01843 L 80.74554 205.01843 L 80.57656 203.73903 C 80.40758 202.55619 78.2833 193.86593 77.872925 192.82793 C 77.77637 192.5624 77.75223 192.39341 77.82465 192.46583 C 77.897065 192.53825 78.59711 194.05905 79.34544 195.84538 Z" fill="#FFFFFF"/>
        </g>
        <g id="Graphic_806">
          <path d="M 84.46304 207.23927 C 84.39062 207.81862 84.1975 208.83248 84.02852 209.53253 C 83.78713 210.5464 83.78713 211.00505 84.02852 211.9465 C 84.1975 212.57412 84.39062 213.51557 84.46304 213.99836 L 84.58374 214.91567 L 79.85237 214.91567 L 75.12101 214.91567 L 75.12101 210.57054 L 75.12101 206.2254 L 79.85237 206.2254 L 84.58374 206.2254 L 84.46304 207.23927 Z" fill="#FFFFFF"/>
        </g>
        <g id="Graphic_805">
          <path d="M 140.53934 210.57054 L 140.53934 214.91567 L 135.80798 214.91567 L 131.07661 214.91567 L 131.19731 214.11906 C 131.24559 213.70869 131.46285 212.71896 131.63182 211.97063 C 131.89736 210.83607 131.89736 210.35328 131.63182 209.31528 C 131.46285 208.61523 131.26973 207.6255 131.19731 207.11857 L 131.07661 206.2254 L 135.80798 206.2254 L 140.53934 206.2254 L 140.53934 210.57054 Z" fill="#FFFFFF"/>
        </g>
        <g id="Graphic_804">
          <path d="M 69.5689 210.44984 C 69.5689 213.39487 69.54476 213.4673 69.08611 213.2259 C 67.517035 212.381 67.492895 208.5911 69.01369 207.69792 C 69.25509 207.55309 69.47234 207.4324 69.52062 207.4324 C 69.54476 207.4324 69.5689 208.7842 69.5689 210.44984 Z" fill="#FFFFFF"/>
        </g>
        <g id="Graphic_803">
          <path d="M 147.15359 207.9876 C 148.1916 209.0256 148.23987 211.36714 147.27429 212.6224 C 146.28456 213.85352 146.09145 213.4673 146.09145 210.32914 C 146.09145 208.4704 146.188 207.4324 146.33284 207.4324 C 146.47768 207.4324 146.83978 207.69792 147.15359 207.9876 Z" fill="#FFFFFF"/>
        </g>
        <g id="Graphic_802">
          <path d="M 88.01156 208.4704 C 88.39779 209.00146 88.49435 209.46011 88.47021 210.5464 C 88.42193 212.52584 87.72188 213.68455 86.56318 213.70869 C 84.94583 213.73282 84.26992 209.65323 85.64588 208.13244 C 86.24937 207.45653 87.35979 207.6255 88.01156 208.4704 Z" fill="#FFFFFF"/>
        </g>
        <g id="Graphic_801">
          <path d="M 130.01447 208.03588 C 131.0042 209.0256 131.07661 211.89821 130.13517 213.08106 C 129.45926 213.92594 128.66265 213.87766 127.89019 212.96036 C 127.35911 212.33273 127.26256 211.99477 127.26256 210.59468 C 127.26256 209.29114 127.35911 208.80835 127.76949 208.30141 C 128.3247 207.57723 129.41098 207.45653 130.01447 208.03588 Z" fill="#FFFFFF"/>
        </g>
        <g id="Graphic_800">
          <path d="M 89.04956 214.89153 C 88.90472 216.72614 87.915 218.56075 86.49076 219.71945 C 83.20778 222.39894 82.62843 223.26797 82.60429 225.5371 C 82.60429 228.1683 83.40089 229.54427 85.57346 230.55813 C 87.69774 231.54785 89.89445 231.8134 96.36386 231.8134 L 102.39876 231.8134 L 102.39876 233.74456 L 102.39876 235.67573 L 94.67409 235.67573 C 87.52877 235.67573 86.82872 235.62745 85.4769 235.19293 C 82.0008 234.0101 80.67312 232.29618 79.94893 227.99933 C 79.39372 224.64393 79.99721 222.80932 82.38703 220.70917 C 84.41476 218.8987 85.50104 217.16065 85.50104 215.68813 L 85.50104 214.67427 L 86.44248 214.67427 C 87.11839 214.67427 87.60119 214.5053 88.08398 214.07078 C 88.44607 213.75696 88.85645 213.4673 88.97714 213.4673 C 89.09784 213.4673 89.12198 214.11906 89.04956 214.89153 Z" fill="#FFFFFF"/>
        </g>
        <g id="Graphic_799">
          <path d="M 129.21786 214.67427 C 130.15931 214.67427 130.15931 214.67427 130.15931 215.63985 C 130.15931 217.11237 130.95592 218.4159 133.29746 220.70917 C 135.18035 222.56792 135.44588 222.93001 135.68728 224.06458 C 136.04937 225.7302 136.02523 226.74407 135.59072 228.79594 C 134.81825 232.41688 133.29746 234.2032 130.18345 235.19293 C 128.78335 235.62745 127.98674 235.67573 120.96212 235.67573 L 113.26159 235.67573 L 113.26159 233.74456 L 113.26159 231.8134 L 119.29649 231.8134 C 126.70735 231.8134 129.21786 231.40302 131.46285 229.8098 C 133.03192 228.69938 133.63541 225.15086 132.59741 223.19555 C 131.9215 221.9403 131.72838 221.74717 129.8455 220.25052 C 127.64879 218.51247 126.77976 217.03995 126.77976 214.96394 L 126.77976 213.419 L 127.52809 214.04664 C 128.03502 214.48115 128.54196 214.67427 129.21786 214.67427 Z" fill="#FFFFFF"/>
        </g>
        <g id="Graphic_798">
          <path d="M 84.53546 216.29162 C 84.53546 216.3399 84.41476 216.62958 84.24578 216.91925 C 83.98025 217.42618 83.98025 217.42618 83.78713 216.96753 C 83.47331 216.14679 83.54573 215.92953 84.05266 216.05023 C 84.3182 216.12265 84.53546 216.2192 84.53546 216.29162 Z" fill="#FFFFFF"/>
        </g>
        <g id="Graphic_797">
          <path d="M 96.72596 217.59516 C 97.49842 218.51247 99.09164 220.20224 100.27448 221.28852 L 102.39876 223.31625 L 102.39876 226.84063 C 102.39876 228.86836 102.3022 230.365 102.18151 230.365 C 102.06081 230.365 100.95039 229.6891 99.74341 228.8925 C 97.25703 227.22686 93.73265 223.96802 91.6325 221.40922 L 90.25654 219.71945 L 90.76347 218.6573 C 91.02901 218.1021 91.34282 217.23307 91.41524 216.75028 L 91.58422 215.88125 L 93.46711 215.88125 L 95.35 215.88125 L 96.72596 217.59516 Z" fill="#FFFFFF"/>
        </g>
        <g id="Graphic_796">
          <path d="M 101.16764 217.42618 C 102.32634 218.87456 102.39876 219.06768 102.39876 220.32294 C 102.39876 221.07126 102.3022 221.67475 102.18151 221.67475 C 101.91597 221.67475 96.84665 216.38818 96.84665 216.0985 C 96.84665 215.9778 97.5467 215.88125 98.39159 215.88125 L 99.93652 215.88125 L 101.16764 217.42618 Z" fill="#FFFFFF"/>
        </g>
        <g id="Graphic_795">
          <path d="M 102.01253 216.02609 C 102.22979 216.0985 102.39876 216.4606 102.39876 216.77441 L 102.39876 217.40204 L 101.91597 216.77441 C 101.24006 215.92953 101.2642 215.7364 102.01253 216.02609 Z" fill="#FFFFFF"/>
        </g>
        <g id="Graphic_794">
          <path d="M 116.39973 218.1021 C 117.89639 222.39894 119.99654 226.4544 122.24152 229.327 L 123.40022 230.8478 L 122.45877 230.8478 C 120.62416 230.8478 116.73769 227.95105 114.25131 224.71634 L 113.26159 223.43695 L 113.26159 219.79187 C 113.26159 215.83297 113.2133 215.92953 114.7341 215.9054 L 115.60313 215.88125 L 116.39973 218.1021 Z" fill="#FFFFFF"/>
        </g>
        <g id="Graphic_793">
          <path d="M 123.64162 216.00195 C 123.64162 216.05023 123.35194 216.96753 122.98985 217.9814 C 122.1691 220.39536 121.95184 224.3784 122.50705 226.74407 C 122.72431 227.6131 122.84501 228.33729 122.79673 228.38556 C 122.70017 228.48212 120.40691 224.86118 119.65858 223.38867 C 118.8137 221.6989 116.88253 216.75028 116.88253 216.26748 C 116.88253 215.92953 117.34118 215.88125 120.26207 215.88125 C 122.12082 215.88125 123.64162 215.92953 123.64162 216.00195 Z" fill="#FFFFFF"/>
        </g>
        <g id="Graphic_792">
          <path d="M 91.02901 222.27824 C 92.83948 224.4991 96.5087 227.90277 98.85024 229.52013 L 100.82969 230.89608 L 98.92266 230.77539 C 95.88107 230.55813 94.48097 229.73738 90.76347 225.99574 C 89.04956 224.28183 87.6736 222.78518 87.6736 222.64034 C 87.6736 222.39894 89.36338 220.7333 89.62891 220.70917 C 89.70133 220.70917 90.32896 221.40922 91.02901 222.27824 Z" fill="#FFFFFF"/>
        </g>
        <g id="Graphic_791">
          <path d="M 90.30482 227.0096 C 91.58422 228.289 93.17743 229.6891 93.8292 230.12362 L 95.03618 230.89608 L 92.33255 230.77539 C 88.13226 230.55813 86.53904 229.5684 85.93555 226.71993 C 85.69416 225.5371 85.7183 225.2957 86.20109 224.2094 L 86.73216 223.00243 L 87.35979 223.84732 C 87.69774 224.30597 89.02542 225.7302 90.30482 227.0096 Z" fill="#FFFFFF"/>
        </g>
        <g id="Graphic_790">
          <path d="M 117.87225 229.76152 L 119.34477 230.8478 L 116.30318 230.8478 L 113.26159 230.8478 L 113.26159 228.0476 L 113.26159 225.24742 L 114.83066 226.9372 C 115.72383 227.87863 117.07564 229.15803 117.87225 229.76152 Z" fill="#FFFFFF"/>
        </g>
        <g id="Graphic_789">
          <path d="M 126.8039 237.19652 C 127.47981 237.6069 127.81777 238.47592 127.79363 239.6829 C 127.79363 241.01058 127.23842 241.8796 126.03144 242.4831 C 125.28311 242.89347 123.90715 242.9176 107.90259 242.9176 C 92.50153 242.9176 90.4738 242.86933 89.60477 242.53137 C 87.69774 241.7589 87.11839 238.9587 88.56677 237.4862 L 89.17026 236.8827 L 95.13274 236.8103 C 105.77831 236.6413 126.34525 236.90684 126.8039 237.19652 Z" fill="#FFFFFF"/>
        </g>
        <g id="Graphic_788">
          <path d="M 123.81059 254.21494 C 123.71403 259.88775 123.5692 267.03307 123.47264 270.0988 L 123.3278 275.67505 L 120.28621 275.8199 C 116.35145 276.03714 99.30889 276.03714 95.37414 275.8199 L 92.33255 275.67505 L 92.18771 270.7023 C 92.09115 267.9745 91.94631 260.80505 91.84976 254.81843 L 91.70492 243.8832 L 107.83017 243.8832 L 123.95543 243.8832 L 123.81059 254.21494 Z" fill="#FFFFFF"/>
        </g>
        <g id="Graphic_787">
          <path d="M 125.98316 283.39972 C 125.81418 290.5692 125.47623 296.74892 124.22097 314.12944 C 123.27952 327.62348 121.73459 347.2731 121.61389 347.36967 C 121.51733 347.46623 94.14302 347.46623 94.04646 347.36967 C 93.87748 347.22484 91.84976 321.2989 90.93245 307.73244 C 90.06343 294.6005 89.82203 290.2071 89.67719 283.76182 L 89.53235 276.95445 L 107.83017 276.95445 L 126.128 276.95445 L 125.98316 283.39972 Z" fill="#FFFFFF"/>
        </g>
        <g id="Graphic_786">
          <path d="M 118.49988 351.3527 C 118.30676 355.09435 117.60671 360.71888 116.39973 367.84006 C 115.53071 372.95766 113.88922 381.79275 113.59954 382.71006 C 113.50298 383.07215 113.35814 383.07215 111.98219 382.6135 C 109.88204 381.91345 105.77831 381.91345 103.67816 382.6135 L 102.15737 383.12043 L 101.94011 382.22726 C 101.11936 379.16153 98.58471 364.48465 97.81224 358.4256 C 97.28117 354.2012 96.84665 348.86633 97.01563 348.57666 C 97.06391 348.4801 101.96425 348.40768 107.87845 348.40768 L 118.64472 348.40768 L 118.49988 351.3527 Z" fill="#FFFFFF"/>
        </g>
        <g id="Graphic_785">
          <path d="M 111.57181 383.5791 C 115.82038 384.7378 119.53788 388.23803 120.98626 392.4142 C 121.71045 394.4902 121.90356 397.99043 121.37249 400.06643 C 119.75514 406.48757 114.34787 410.7603 107.83017 410.7603 C 103.87128 410.7603 100.90211 409.505 98.05363 406.60826 C 92.5498 401.05616 92.5498 392.8004 98.05363 387.2483 C 101.77113 383.48252 106.57492 382.179 111.57181 383.5791 Z" fill="#FFFFFF"/>
        </g>
        <g id="Graphic_784">
          <path d="M 118.91025 68.09859 C 114.6134 71.23674 113.8168 75.82326 116.68941 80.86844 C 117.22048 81.80989 118.64472 83.6445 119.82756 84.94803 C 122.67603 88.08618 123.27952 89.34144 123.27952 92.06922 C 123.27952 94.00039 123.23124 94.24178 122.48291 95.42462 C 121.90356 96.34193 121.75873 96.77644 121.95184 96.96956 C 122.60361 97.62133 126.128 94.79699 127.4074 92.62443 C 128.87991 90.11391 129.09717 86.56539 127.93846 84.03073 C 127.31084 82.67891 125.95902 81.18226 123.81059 79.42007 C 121.71045 77.70615 120.40691 73.7714 120.55175 69.59525 C 120.6483 67.181286 120.43105 67.01231 118.91025 68.09859 Z" fill="black"/>
        </g>
        <g id="Graphic_783">
          <path d="M 118.01709 70.72981 C 117.4136 71.93679 117.0515 73.964515 117.1722 75.60601 C 117.34118 77.70615 118.4516 79.90286 120.02067 81.15812 C 121.95184 82.70305 123.59334 84.48938 124.29338 85.81706 C 124.87274 86.92748 124.9693 87.38613 124.9693 89.14833 C 124.9693 91.7554 124.6072 92.76927 124.34166 90.88638 C 124.07613 88.90693 122.91743 86.85506 120.74486 84.48938 C 117.31704 80.74774 116.06178 78.30964 116.06178 75.26805 C 116.03764 73.24033 116.52043 71.88851 117.67913 70.60911 C 118.3309 69.90906 118.40332 69.9332 118.01709 70.72981 Z" fill="#FFFFFF"/>
        </g>
        <g id="Graphic_782">
          <path d="M 120.26207 75.38875 C 120.98626 77.80271 122.00012 79.29937 123.81059 80.77188 C 125.86246 82.41338 126.10386 82.70305 126.87632 84.24799 C 128.25228 86.97576 127.86605 90.35531 125.91074 93.0348 C 125.33139 93.80727 124.80032 94.45904 124.75204 94.45904 C 124.67962 94.45904 124.92101 93.83141 125.25897 93.08308 C 126.10386 91.24847 126.29697 88.49656 125.69348 86.68609 C 125.06585 84.73078 123.76231 82.99273 121.56561 81.15812 C 118.93439 78.96141 118.2102 77.58546 118.23434 74.78526 C 118.23434 73.336885 118.37918 72.492 118.8137 71.40572 L 119.39304 69.95734 L 119.58616 71.88851 C 119.70686 72.95065 119.99654 74.51973 120.26207 75.38875 Z" fill="#FFFFFF"/>
        </g>
        <g id="Graphic_781">
          <path d="M 164.34099 86.29985 C 162.9409 91.00708 161.22698 94.3142 159.00614 96.53504 C 157.4612 98.10412 157.14739 98.32138 155.5059 98.80417 C 153.16435 99.50422 152.07807 100.05943 150.77453 101.26641 C 147.5881 104.1873 146.21215 110.2222 147.53982 115.31566 C 148.11917 117.5365 149.61583 120.60223 150.0262 120.4574 C 150.21932 120.40911 150.31588 119.6125 150.31588 117.97101 C 150.34002 115.07426 150.79867 113.40863 152.1022 111.45332 C 153.1885 109.83597 154.7817 108.53243 157.00255 107.44615 C 161.99945 105.03219 165.45141 101.3871 166.70667 97.13854 C 167.50328 94.45904 167.04462 90.21047 165.6928 87.45855 C 165.04104 86.15502 164.50997 85.69636 164.34099 86.29985 Z" fill="black"/>
        </g>
        <g id="Graphic_780">
          <path d="M 164.19615 93.85555 C 163.64094 97.09026 161.87875 99.93873 159.7786 101.02501 C 159.24753 101.29055 158.2578 101.67678 157.5819 101.8699 C 154.46789 102.7872 151.64356 105.00805 150.36416 107.56684 C 149.471 109.3049 149.03648 111.04295 148.81922 113.50519 C 148.6261 116.11226 148.28815 115.43636 148.09503 112.05681 C 147.80536 107.08405 149.68825 102.7872 152.97123 100.85603 C 153.5023 100.54222 154.58859 100.10771 155.3852 99.89045 C 156.1818 99.67319 157.26808 99.23868 157.79916 98.92487 C 159.87516 97.74203 162.38568 94.38662 163.7375 90.98294 L 164.31685 89.53456 L 164.38927 90.86224 C 164.43755 91.58643 164.34099 92.9141 164.19615 93.85555 Z" fill="#FFFFFF"/>
        </g>
        <g id="Graphic_779">
          <path d="M 166.07904 92.98652 C 166.39285 98.63519 163.39954 102.98032 156.90599 106.31158 C 154.00924 107.80824 151.83667 109.73941 150.72625 111.76714 C 150.12276 112.9017 149.95378 113.04653 149.95378 112.56374 C 149.95378 111.64644 150.60555 109.3049 151.1849 108.1462 C 152.48844 105.5874 154.75757 103.77693 157.79916 102.85962 C 158.71646 102.59409 159.94758 102.11129 160.5028 101.79748 C 163.35126 100.18013 165.379 95.97983 165.40313 91.68298 C 165.42727 89.26902 165.91006 90.23461 166.07904 92.98652 Z" fill="#FFFFFF"/>
        </g>
        <g id="Graphic_778">
          <path d="M 102.25393 90.88638 C 102.13323 91.05535 102.03667 92.31061 101.98839 93.71071 C 101.84355 98.22482 100.78141 102.03887 99.01922 104.16316 C 98.60885 104.64595 97.5467 105.53912 96.65354 106.14261 C 93.75679 108.04964 92.50153 110.43946 92.30841 114.39835 C 92.16357 117.46408 92.64636 119.80562 93.9499 122.4127 C 94.86721 124.22317 97.23289 127.31304 98.12605 127.86825 C 98.87438 128.3269 98.99508 127.62686 98.39159 126.1302 C 97.16047 123.08861 97.20875 119.82976 98.48815 117.19855 C 98.89852 116.32952 99.96066 114.95356 101.33662 113.52933 C 103.89542 110.84983 104.71617 109.78769 105.73003 107.97722 C 108.3371 103.27 108.14399 98.24896 105.2231 93.80727 C 104.25751 92.35889 102.785 90.5967 102.51946 90.5967 C 102.47118 90.5967 102.35048 90.74154 102.25393 90.88638 Z" fill="black"/>
        </g>
        <g id="Graphic_777">
          <path d="M 103.75058 95.9557 C 104.0644 97.04198 104.1851 98.24896 104.20923 100.13185 C 104.20923 102.47339 104.13681 102.93204 103.5816 104.11488 C 102.76086 105.85293 101.91597 106.81852 100.25034 107.95308 C 97.73982 109.66699 96.02591 111.93611 95.27758 114.59147 C 94.72237 116.47436 94.89135 120.216 95.5914 122.46098 C 96.19489 124.36801 95.73623 123.90936 94.64995 121.54368 C 92.88776 117.75376 92.74292 113.16723 94.312 110.14978 C 95.08446 108.62899 95.90521 107.75996 97.45014 106.79438 C 99.26061 105.65982 100.4676 104.23558 101.33662 102.28027 C 102.08495 100.56636 102.85742 97.18681 102.88156 95.5936 C 102.88156 94.96597 102.97811 94.45904 103.09881 94.45904 C 103.19537 94.45904 103.50919 95.13495 103.75058 95.9557 Z" fill="#FFFFFF"/>
        </g>
        <g id="Graphic_776">
          <path d="M 105.15068 95.5936 C 107.00943 99.28696 106.96115 103.22172 105.02998 107.08405 C 104.0644 108.99108 103.29193 109.9808 100.58829 112.80514 C 98.27089 115.2191 97.06391 117.24683 96.72596 119.20213 C 96.6294 119.7332 96.5087 120.38497 96.41214 120.65051 C 96.29144 121.06088 96.24316 121.03674 96.09833 120.40911 C 96.00177 119.99874 95.92935 118.86418 95.90521 117.85032 C 95.85693 113.86728 97.49842 111.01881 101.5056 108.29103 C 102.785 107.39787 103.99198 105.82879 104.66789 104.16316 C 105.51277 102.03887 105.39207 97.28337 104.45063 94.86941 C 104.08854 94.00039 104.59547 94.50732 105.15068 95.5936 Z" fill="#FFFFFF"/>
        </g>
        <g id="Graphic_775">
          <path d="M 48.688144 108.53243 C 48.036374 110.1015 47.77084 111.64644 47.891537 113.23965 C 48.20535 117.48822 51.560756 120.60223 57.740495 122.34028 C 58.971615 122.67824 60.39585 123.18517 60.90278 123.4507 C 63.268465 124.65768 64.71684 126.78197 64.9341 129.38905 C 65.030656 130.6443 65.127214 130.90984 65.48931 130.90984 C 65.99624 130.90984 66.81699 128.95453 67.22736 126.73369 C 67.75843 123.90936 66.72043 120.52981 64.66856 118.40553 C 63.220185 116.90887 61.65111 116.18468 59.044034 115.82259 C 56.557655 115.4605 55.47137 115.00184 53.82988 113.52933 C 52.767737 112.61202 49.774426 108.48415 49.774426 107.95308 C 49.774426 107.39787 49.00196 107.80824 48.688144 108.53243 Z" fill="black"/>
        </g>
        <g id="Graphic_774">
          <path d="M 53.540204 114.63975 C 55.10928 115.89501 56.485236 116.45022 58.87506 116.81231 C 60.130316 117.00543 61.55455 117.36752 62.037345 117.60892 C 63.171906 118.21241 64.78926 119.87804 65.41689 121.1333 C 66.0928 122.48512 66.52731 124.89908 66.310055 126.0095 L 66.11694 126.9268 L 65.8514 125.59913 C 64.95824 121.3747 62.15804 118.98488 57.161145 118.23655 C 54.55407 117.85032 53.17811 117.22269 52.04355 115.89501 C 51.17452 114.857 50.329637 112.94998 50.11238 111.59816 L 49.9434 110.51188 L 51.27108 112.20165 C 52.01941 113.11895 53.03327 114.22938 53.540204 114.63975 Z" fill="#FFFFFF"/>
        </g>
        <g id="Graphic_773">
          <path d="M 50.74001 115.84673 C 52.14011 117.85032 53.7816 118.74348 56.94389 119.22627 C 60.51655 119.75734 62.85809 121.15744 63.99265 123.37829 C 64.88582 125.16462 64.78926 125.3336 63.58228 124.15075 C 62.23046 122.84721 60.54069 121.97819 58.10259 121.3747 C 57.185284 121.1333 55.54379 120.52981 54.48165 120.04702 C 50.81243 118.30897 49.05024 116.08812 48.88126 112.94998 L 48.80884 111.23606 L 49.41233 112.99826 C 49.750286 113.98798 50.353776 115.26738 50.74001 115.84673 Z" fill="#FFFFFF"/>
        </g>
        <g id="Graphic_772">
          <path d="M 106.0197 163.78798 C 104.52305 164.56045 103.79886 165.83985 103.91956 167.52962 C 104.1851 171.34368 108.86818 172.5748 111.18558 169.43665 C 111.57181 168.92972 111.69251 168.42279 111.69251 167.28823 C 111.69251 165.5019 111.08902 164.48803 109.64064 163.7397 C 108.40952 163.11207 107.34738 163.13621 106.0197 163.78798 Z" fill="black"/>
        </g>
        <g id="Graphic_771">
          <path d="M 109.03715 164.56045 C 110.65451 165.23636 111.28214 167.23995 110.36483 168.7366 C 109.47167 170.20912 107.75776 170.64363 106.33352 169.7746 C 104.28165 168.54349 104.42649 165.5019 106.57492 164.58459 C 107.56464 164.15008 108.02329 164.15008 109.03715 164.56045 Z" fill="#FFFFFF"/>
        </g>
        <g id="Graphic_770">
          <path d="M 106.1404 207.04615 C 103.19537 208.39797 103.12295 212.59826 106.0197 214.11906 C 107.32324 214.8191 108.28883 214.8191 109.64064 214.11906 C 112.32014 212.76724 112.5374 209.19458 110.05102 207.33583 C 109.25441 206.73234 107.13013 206.56336 106.1404 207.04615 Z" fill="black"/>
        </g>
        <g id="Graphic_769">
          <path d="M 109.93032 208.5911 C 111.47525 210.11188 110.8959 212.64654 108.8199 213.44315 C 106.23696 214.43287 103.79886 211.39128 105.3438 209.12216 C 106.09212 208.01174 106.86459 207.6255 108.16813 207.7462 C 108.91646 207.84276 109.42339 208.06002 109.93032 208.5911 Z" fill="#FFFFFF"/>
        </g>
        <g id="Graphic_768">
          <rect x="91.24736" y="205.86331" width="11.604023" height="9.591641" fill="#FFFFFF"/>
          <rect x="91.24736" y="205.86331" width="11.604023" height="9.591641" stroke="black" stroke-linecap="round" stroke-linejoin="round" stroke-width=".7241881"/>
        </g>
        <g id="Graphic_767">
          <rect x="112.89949" y="205.86331" width="11.687966" height="9.591641" fill="#FFFFFF"/>
          <rect x="112.89949" y="205.86331" width="11.687966" height="9.591641" stroke="black" stroke-linecap="round" stroke-linejoin="round" stroke-width=".7241881"/>
        </g>
      </g>
    </g>
  </g>
</svg>
