<?xml version="1.0" encoding="UTF-8" standalone="no"?>
<!DOCTYPE svg PUBLIC "-//W3C//DTD SVG 1.1//EN" "http://www.w3.org/Graphics/SVG/1.1/DTD/svg11.dtd">
<svg xmlns:xl="http://www.w3.org/1999/xlink" xmlns="http://www.w3.org/2000/svg" xmlns:dc="http://purl.org/dc/elements/1.1/" version="1.1" viewBox="40.5 67.5 283.5 283.5" width="283.5" height="283.5">
  <defs>
    <clipPath id="artboard_clip_path">
      <path d="M 40.5 67.5 L 324 67.5 L 324 340.26136 L 307.89205 351 L 40.5 351 Z"/>
    </clipPath>
  </defs>
  <g id="Crow_Regardant" stroke-opacity="1" stroke="none" stroke-dasharray="none" fill="none" fill-opacity="1">
    <title>Crow Regardant</title>
    <g id="Crow_Regardant_Art" clip-path="url(#artboard_clip_path)">
      <title>Art</title>
      <g id="Group_113">
        <g id="Graphic_207">
          <path d="M 91.06808 314.89623 L 85.47859 310.67003 C 85.47859 310.67003 82.82018 310.3292 79.75278 313.87376 C 76.14006 318.3726 77.70784 324.03027 78.45765 323.68945 C 78.79847 323.6213 79.95727 319.25876 82.34303 318.2363 C 84.72878 317.14566 86.43289 318.5771 86.70555 318.9861 Z" fill="#FFFFFF"/>
          <path d="M 91.06808 314.89623 L 85.47859 310.67003 C 85.47859 310.67003 82.82018 310.3292 79.75278 313.87376 C 76.14006 318.3726 77.70784 324.03027 78.45765 323.68945 C 78.79847 323.6213 79.95727 319.25876 82.34303 318.2363 C 84.72878 317.14566 86.43289 318.5771 86.70555 318.9861 Z" stroke="black" stroke-linecap="butt" stroke-linejoin="round" stroke-width="1.5"/>
        </g>
        <g id="Graphic_206">
          <path d="M 113.97134 315.10072 C 109.19982 317.69097 103.61034 314.48724 101.70173 312.78313 C 100.54294 311.76067 99.52047 310.7382 97.81636 310.80636 C 97.27104 310.87453 96.11225 310.7382 95.22611 310.9427 C 94.27181 311.1472 93.11301 311.41984 93.11301 311.41984 C 93.11301 311.41984 93.04485 309.64757 91.06808 308.28428 C 87.86435 306.17118 85.41043 307.8753 84.52429 309.7839 L 84.72878 309.92023 C 84.66062 310.1929 84.59245 310.5337 84.59245 310.87453 C 87.86435 311.55617 87.79618 317.48648 85.95574 318.84977 C 85.54676 319.46325 86.16024 320.8947 88.68232 321.849 C 89.90928 322.18983 90.99991 322.4625 92.3632 321.23553 C 93.72649 320.00857 92.70402 319.80407 94.06731 318.84977 C 95.4306 317.89547 97.13471 319.7359 98.08902 320.21306 C 99.52047 320.8947 100.88376 321.23553 102.31521 321.16736 C 104.36015 321.03103 107.35938 320.28122 107.35938 320.28122 C 107.35938 320.28122 113.56235 319.12243 115.60728 321.44002" fill="#FFFFFF"/>
          <path d="M 113.97134 315.10072 C 109.19982 317.69097 103.61034 314.48724 101.70173 312.78313 C 100.54294 311.76067 99.52047 310.7382 97.81636 310.80636 C 97.27104 310.87453 96.11225 310.7382 95.22611 310.9427 C 94.27181 311.1472 93.11301 311.41984 93.11301 311.41984 C 93.11301 311.41984 93.04485 309.64757 91.06808 308.28428 C 87.86435 306.17118 85.41043 307.8753 84.52429 309.7839 L 84.72878 309.92023 C 84.66062 310.1929 84.59245 310.5337 84.59245 310.87453 C 87.86435 311.55617 87.79618 317.48648 85.95574 318.84977 C 85.54676 319.46325 86.16024 320.8947 88.68232 321.849 C 89.90928 322.18983 90.99991 322.4625 92.3632 321.23553 C 93.72649 320.00857 92.70402 319.80407 94.06731 318.84977 C 95.4306 317.89547 97.13471 319.7359 98.08902 320.21306 C 99.52047 320.8947 100.88376 321.23553 102.31521 321.16736 C 104.36015 321.03103 107.35938 320.28122 107.35938 320.28122 C 107.35938 320.28122 113.56235 319.12243 115.60728 321.44002" stroke="black" stroke-linecap="butt" stroke-linejoin="round" stroke-width="1.5"/>
        </g>
        <g id="Graphic_205">
          <path d="M 93.93098 311.35168 C 93.86282 312.16965 93.72649 312.91946 93.45383 313.66927 C 93.24934 314.41908 92.90852 315.10072 92.49953 315.7142 L 92.3632 315.64604 C 92.49953 314.9644 92.5677 314.2146 92.5677 313.53294 C 92.49953 312.8513 92.43137 312.16965 92.22687 311.488 Z" fill="black"/>
        </g>
        <g id="Graphic_204">
          <path d="M 80.02543 337.7995 C 79.61645 343.59347 84.59245 347.27435 85.00144 346.66087 C 85.0696 346.32005 83.36549 342.84366 84.72878 340.59423 C 86.09207 338.3448 87.25087 338.27664 87.72802 338.41297 L 88.81865 333.64146 L 82.75201 331.93735 C 82.75201 331.93735 80.57075 333.09614 80.02543 337.7995" fill="#FFFFFF"/>
          <path d="M 80.02543 337.7995 C 79.61645 343.59347 84.59245 347.27435 85.00144 346.66087 C 85.0696 346.32005 83.36549 342.84366 84.72878 340.59423 C 86.09207 338.3448 87.25087 338.27664 87.72802 338.41297 L 88.81865 333.64146 L 82.75201 331.93735 C 82.75201 331.93735 80.57075 333.09614 80.02543 337.7995" stroke="black" stroke-linecap="butt" stroke-linejoin="round" stroke-width="1.5"/>
        </g>
        <g id="Graphic_203">
          <path d="M 146.96294 326.55235 C 145.19066 323.07597 142.66857 322.12166 142.66857 322.12166 C 142.66857 322.12166 138.03339 320.4857 137.01092 324.3711 C 135.98846 328.32463 138.23788 329.96058 138.23788 329.96058 C 138.23788 329.96058 140.82813 328.7336 143.41838 329.96058 C 146.89477 331.2557 147.50825 334.59576 148.59888 335.0729 C 149.62135 333.3688 148.12173 328.66545 146.96294 326.55235 Z" fill="#FFFFFF"/>
          <path d="M 146.96294 326.55235 C 145.19066 323.07597 142.66857 322.12166 142.66857 322.12166 C 142.66857 322.12166 138.03339 320.4857 137.01092 324.3711 C 135.98846 328.32463 138.23788 329.96058 138.23788 329.96058 C 138.23788 329.96058 140.82813 328.7336 143.41838 329.96058 C 146.89477 331.2557 147.50825 334.59576 148.59888 335.0729 C 149.62135 333.3688 148.12173 328.66545 146.96294 326.55235 Z" stroke="black" stroke-linecap="butt" stroke-linejoin="round" stroke-width="1.5"/>
        </g>
        <g id="Graphic_202">
          <path d="M 88.88681 318.3726 L 84.93328 315.3734 C 84.93328 315.3734 80.91157 316.39585 78.45765 319.3951 C 76.88987 321.23553 76.00373 325.46172 77.57151 327.643 C 78.32132 327.50666 78.79847 323.9621 81.59322 323.14413 C 84.3198 322.4625 86.2284 323.89394 86.2284 323.89394 Z" fill="#FFFFFF"/>
          <path d="M 88.88681 318.3726 L 84.93328 315.3734 C 84.93328 315.3734 80.91157 316.39585 78.45765 319.3951 C 76.88987 321.23553 76.00373 325.46172 77.57151 327.643 C 78.32132 327.50666 78.79847 323.9621 81.59322 323.14413 C 84.3198 322.4625 86.2284 323.89394 86.2284 323.89394 Z" stroke="black" stroke-linecap="butt" stroke-linejoin="round" stroke-width="1.5"/>
        </g>
        <g id="Graphic_201">
          <path d="M 132.6484 327.50666 C 133.8072 327.84748 132.85289 330.7104 136.12479 331.11937 C 138.7832 331.39203 139.46484 329.7561 139.46484 329.7561 C 139.46484 329.7561 137.35175 325.1209 142.87307 322.258 C 143.35022 321.71268 143.07756 319.32692 139.46484 318.91793 C 137.35175 318.4408 136.26111 320.4857 136.26111 320.4857 C 136.26111 320.4857 134.21618 318.9861 132.23941 320.1449 C 131.42144 320.62205 129.44467 321.37185 128.14954 321.3037 C 127.39973 321.16736 123.85518 320.5539 123.4462 318.2363 C 123.03721 317.282 123.78702 313.87376 123.78702 313.87376 L 126.5136 306.85282 C 126.5136 306.85282 138.5787 267.45377 138.7832 266.15864 C 138.9877 262.27327 128.89935 262.88675 128.89935 262.88675 C 128.89935 262.88675 127.6724 277.3376 126.71809 279.72337 C 126.58176 280.13236 126.64993 279.99603 125.96828 281.70014 C 124.67316 282.58628 123.92335 288.03943 124.26417 288.72108 C 123.2417 289.19823 121.74208 294.10607 122.21924 295.74202 C 121.26493 296.62816 119.96981 300.9225 120.03797 302.2858 C 118.87918 303.10378 116.97057 307.80713 117.58405 308.89776 C 117.24323 309.51124 116.90241 310.7382 115.13013 314.41908 C 114.17583 315.98686 113.49418 316.73667 112.26722 316.873 C 105.92793 318.3726 104.01932 314.82807 100.40661 315.03256 C 99.24781 315.10072 97.88452 315.7142 97.5437 315.98686 C 95.15794 317.75914 92.15871 316.60034 91.68156 315.7142 C 90.72725 313.2603 88.68232 313.2603 86.70555 313.66927 C 84.52429 314.28275 84.1153 316.05503 84.1153 316.05503 C 84.1153 316.05503 86.56922 315.9187 86.77372 320.28122 C 86.77372 320.8947 86.84188 321.37185 86.63739 321.98534 C 86.50106 322.39432 85.75125 323.2123 85.81941 323.6213 C 85.95574 324.7119 87.25087 325.73438 89.36397 325.25723 C 90.72725 324.98457 91.61339 324.09843 91.95422 323.34862 C 93.86282 323.7576 95.6351 324.03027 97.47554 323.14413 C 98.08902 322.87147 98.63433 322.4625 99.31598 322.4625 C 99.99762 322.53065 100.54294 323.07597 101.15642 323.4168 C 102.04256 323.82578 102.99686 323.7576 103.95116 323.6213 C 102.24705 324.50742 99.72496 325.5299 97.33921 325.5299 C 95.6351 325.5299 94.20364 325.46172 92.84035 326.21153 C 91.27257 327.09767 90.79542 327.9838 89.63662 329.21077 C 89.43213 328.66545 88.47783 328.12014 87.93251 327.9838 C 87.31903 327.7793 86.70555 327.84748 86.02391 327.84748 C 83.97897 327.9838 80.57075 330.43773 81.72955 332.9598 C 81.865875 333.30064 81.93404 333.23247 82.2067 333.1643 C 83.91081 332.48266 87.1827 335.2774 87.11454 339.02645 C 87.11454 339.5036 87.52353 339.9126 88.00068 340.1171 C 89.02314 340.73056 91.4089 341.27588 93.04485 339.7081 C 94.68079 338.1403 93.99915 336.70886 93.86282 336.16354 C 95.15794 335.34557 95.90775 333.64146 97.06655 332.68716 C 98.83883 331.32387 101.29275 331.6647 103.54217 331.4602 C 105.9961 331.2557 108.31369 330.43773 110.22229 328.8018 C 113.42602 326.00704 119.83348 325.3254 123.51436 327.7793 C 125.15031 328.86995 125.96828 329.7561 128.01322 329.1426 C 129.44467 328.52912 131.01245 327.4385 132.6484 327.50666 Z" fill="#FFFFFF"/>
          <path d="M 132.6484 327.50666 C 133.8072 327.84748 132.85289 330.7104 136.12479 331.11937 C 138.7832 331.39203 139.46484 329.7561 139.46484 329.7561 C 139.46484 329.7561 137.35175 325.1209 142.87307 322.258 C 143.35022 321.71268 143.07756 319.32692 139.46484 318.91793 C 137.35175 318.4408 136.26111 320.4857 136.26111 320.4857 C 136.26111 320.4857 134.21618 318.9861 132.23941 320.1449 C 131.42144 320.62205 129.44467 321.37185 128.14954 321.3037 C 127.39973 321.16736 123.85518 320.5539 123.4462 318.2363 C 123.03721 317.282 123.78702 313.87376 123.78702 313.87376 L 126.5136 306.85282 C 126.5136 306.85282 138.5787 267.45377 138.7832 266.15864 C 138.9877 262.27327 128.89935 262.88675 128.89935 262.88675 C 128.89935 262.88675 127.6724 277.3376 126.71809 279.72337 C 126.58176 280.13236 126.64993 279.99603 125.96828 281.70014 C 124.67316 282.58628 123.92335 288.03943 124.26417 288.72108 C 123.2417 289.19823 121.74208 294.10607 122.21924 295.74202 C 121.26493 296.62816 119.96981 300.9225 120.03797 302.2858 C 118.87918 303.10378 116.97057 307.80713 117.58405 308.89776 C 117.24323 309.51124 116.90241 310.7382 115.13013 314.41908 C 114.17583 315.98686 113.49418 316.73667 112.26722 316.873 C 105.92793 318.3726 104.01932 314.82807 100.40661 315.03256 C 99.24781 315.10072 97.88452 315.7142 97.5437 315.98686 C 95.15794 317.75914 92.15871 316.60034 91.68156 315.7142 C 90.72725 313.2603 88.68232 313.2603 86.70555 313.66927 C 84.52429 314.28275 84.1153 316.05503 84.1153 316.05503 C 84.1153 316.05503 86.56922 315.9187 86.77372 320.28122 C 86.77372 320.8947 86.84188 321.37185 86.63739 321.98534 C 86.50106 322.39432 85.75125 323.2123 85.81941 323.6213 C 85.95574 324.7119 87.25087 325.73438 89.36397 325.25723 C 90.72725 324.98457 91.61339 324.09843 91.95422 323.34862 C 93.86282 323.7576 95.6351 324.03027 97.47554 323.14413 C 98.08902 322.87147 98.63433 322.4625 99.31598 322.4625 C 99.99762 322.53065 100.54294 323.07597 101.15642 323.4168 C 102.04256 323.82578 102.99686 323.7576 103.95116 323.6213 C 102.24705 324.50742 99.72496 325.5299 97.33921 325.5299 C 95.6351 325.5299 94.20364 325.46172 92.84035 326.21153 C 91.27257 327.09767 90.79542 327.9838 89.63662 329.21077 C 89.43213 328.66545 88.47783 328.12014 87.93251 327.9838 C 87.31903 327.7793 86.70555 327.84748 86.02391 327.84748 C 83.97897 327.9838 80.57075 330.43773 81.72955 332.9598 C 81.865875 333.30064 81.93404 333.23247 82.2067 333.1643 C 83.91081 332.48266 87.1827 335.2774 87.11454 339.02645 C 87.11454 339.5036 87.52353 339.9126 88.00068 340.1171 C 89.02314 340.73056 91.4089 341.27588 93.04485 339.7081 C 94.68079 338.1403 93.99915 336.70886 93.86282 336.16354 C 95.15794 335.34557 95.90775 333.64146 97.06655 332.68716 C 98.83883 331.32387 101.29275 331.6647 103.54217 331.4602 C 105.9961 331.2557 108.31369 330.43773 110.22229 328.8018 C 113.42602 326.00704 119.83348 325.3254 123.51436 327.7793 C 125.15031 328.86995 125.96828 329.7561 128.01322 329.1426 C 129.44467 328.52912 131.01245 327.4385 132.6484 327.50666 Z" stroke="black" stroke-linecap="butt" stroke-linejoin="round" stroke-width="1.5"/>
        </g>
        <g id="Graphic_200">
          <path d="M 135.23865 325.59805 C 134.96599 324.7119 134.89783 323.7576 134.89783 322.8033 C 134.96599 321.849 135.10232 320.8947 135.44314 320.00857 L 136.94276 320.75837 C 136.46561 321.44002 136.05662 322.18983 135.78396 323.0078 C 135.5113 323.82578 135.30681 324.7119 135.37498 325.59805 Z" fill="black"/>
        </g>
        <g id="Graphic_199">
          <path d="M 90.38643 331.801 C 89.84112 330.91488 89.2958 330.02874 88.68232 329.27893 L 90.2501 328.5973 C 90.4546 329.6879 90.4546 330.7104 90.52276 331.73285 Z" fill="black"/>
        </g>
        <g id="Graphic_198">
          <path d="M 103.6785 322.53065 C 104.29198 322.39432 104.97363 322.258 105.65527 322.12166 L 106.67774 321.91717 C 107.01856 321.849 107.35938 321.849 107.63204 321.6445 C 108.24552 321.37185 108.79084 320.96287 109.47248 320.62205 C 110.15413 320.21306 110.9721 320.07673 111.65374 320.21306 L 111.65374 320.41755 C 110.9721 320.5539 110.35862 320.82654 109.8133 321.23553 C 109.26799 321.6445 108.79084 322.18983 108.04103 322.5988 C 107.35938 323.0078 106.7459 323.34862 105.9961 323.6213 C 105.31445 323.89394 104.6328 324.09843 103.81483 324.23476 Z" fill="black"/>
        </g>
        <g id="Graphic_197">
          <path d="M 92.3632 315.1689 C 92.63586 316.05503 92.70402 316.873 92.5677 317.69097 C 92.43137 318.50895 92.22687 319.25876 91.81789 319.9404 L 91.68156 319.87224 C 91.81789 319.12243 91.74972 318.3726 91.61339 317.69097 C 91.47706 317.00933 91.20441 316.39585 90.79542 315.85053 Z" fill="black"/>
        </g>
        <g id="Graphic_196">
          <path d="M 122.76455 318.64528 C 122.42373 318.09996 122.35556 317.55465 122.21924 317.00933 C 122.15107 316.464 122.15107 315.98686 122.15107 315.5097 C 122.15107 314.5554 122.2874 313.6011 122.42373 312.6468 L 122.62822 312.6468 C 122.69639 313.6011 122.90088 314.48724 123.10537 315.3734 C 123.2417 315.78237 123.37803 316.25952 123.51436 316.60034 C 123.71885 317.00933 123.92335 317.35015 124.12784 317.55465 Z" fill="black"/>
        </g>
        <g id="Graphic_195">
          <path d="M 130.05815 282.65444 C 129.3765 282.44995 128.6267 282.3818 127.94505 282.31362 C 127.60423 282.31362 127.19524 282.24545 126.85442 282.24545 C 126.64993 282.24545 126.5136 282.24545 126.37727 282.24545 C 126.3091 282.24545 126.24094 282.24545 126.17277 282.31362 C 126.10461 282.31362 126.17277 282.31362 126.17277 282.31362 C 126.10461 282.31362 126.37727 282.31362 126.44543 282.1773 L 125.3548 280.88217 C 125.5593 280.74584 125.83195 280.67767 125.90012 280.67767 C 125.96828 280.67767 126.10461 280.67767 126.17277 280.67767 C 126.3091 280.67767 126.44543 280.74584 126.5136 280.74584 C 126.71809 280.814 126.92258 280.88217 127.12708 280.95033 C 127.4679 281.08666 127.87689 281.223 128.21771 281.3593 C 128.89935 281.70014 129.581 282.04096 130.19448 282.5181 Z" fill="black"/>
        </g>
        <g id="Graphic_194">
          <path d="M 127.80872 289.6072 C 127.19524 289.40272 126.58176 289.2664 125.96828 289.2664 C 125.69562 289.2664 125.3548 289.2664 125.08214 289.33456 C 124.94581 289.33456 124.80949 289.40272 124.67316 289.40272 L 124.26417 289.53905 L 124.196 287.83494 C 124.12784 287.83494 124.196 287.83494 124.196 287.83494 L 124.26417 287.83494 L 124.4005 287.83494 L 124.67316 287.9031 C 124.87765 287.97127 125.01398 287.97127 125.21847 288.03943 C 125.5593 288.1076 125.90012 288.24393 126.24094 288.38026 C 126.85442 288.6529 127.4679 289.0619 127.94505 289.4709 Z" fill="black"/>
        </g>
        <g id="Graphic_193">
          <path d="M 125.69562 296.69632 C 125.08214 296.56 124.4005 296.3555 123.78702 296.28733 C 123.51436 296.21917 123.17354 296.21917 122.90088 296.21917 C 122.62822 296.21917 122.42373 296.3555 122.42373 296.42366 L 121.74208 294.85588 C 122.35556 294.6514 122.76455 294.7877 123.17354 294.92404 C 123.51436 295.06037 123.85518 295.1967 124.12784 295.4012 C 124.74132 295.74202 125.21847 296.151 125.76379 296.49183 Z" fill="black"/>
        </g>
        <g id="Graphic_192">
          <path d="M 123.4462 303.2401 C 122.90088 302.8993 122.2874 302.76296 121.67392 302.6948 C 121.40126 302.6948 121.06044 302.62663 120.78778 302.6948 C 120.51512 302.6948 120.24247 302.83112 120.31063 302.8993 L 119.49266 301.39967 C 120.10614 301.19517 120.58329 301.26334 120.92411 301.39967 C 121.3331 301.536 121.60576 301.67233 121.94658 301.80865 C 122.56006 302.14948 123.17354 302.55846 123.58253 303.17194 Z" fill="black"/>
        </g>
        <g id="Graphic_191">
          <path d="M 121.1286 310.05655 C 120.58329 309.71573 119.90164 309.5794 119.28816 309.51124 C 118.94734 309.44307 118.67468 309.44307 118.33386 309.44307 C 118.19753 309.44307 118.0612 309.44307 117.92487 309.51124 C 117.78855 309.51124 117.65222 309.5794 117.72038 309.5794 L 117.24323 307.94346 C 117.58405 307.8753 117.78855 307.94346 117.99304 308.01162 C 118.19753 308.0798 118.40203 308.14795 118.53836 308.14795 C 118.87918 308.28428 119.22 308.4206 119.56082 308.6251 C 119.90164 308.8296 120.1743 308.96592 120.44696 309.1704 C 120.71962 309.3749 120.99228 309.64757 121.19677 309.92023 Z" fill="black"/>
        </g>
        <g id="Graphic_190">
          <path d="M 154.87001 256.68378 C 154.39286 263.29573 151.46179 273.38407 144.98617 277.7466 C 141.78244 279.92786 138.71504 282.58628 136.8746 286.13083 C 136.05662 287.63045 135.9203 289.74355 133.94352 288.5166 C 132.98922 287.9031 132.23941 285.38102 131.96675 284.35855 C 131.08062 285.10836 130.46714 285.65368 129.85366 286.199 C 129.85366 286.199 129.98998 282.24545 129.44467 280.95033 C 128.49037 281.3593 127.2634 281.49565 125.5593 282.65444 C 123.85518 283.81324 122.0829 287.76678 121.60576 286.13083 C 121.06044 284.49488 122.0829 282.58628 121.53759 281.0185 C 118.47019 271.8163 119.90164 262.75042 114.72115 253.88904 C 113.35786 251.50328 110.7676 249.45835 110.63128 246.6636 C 110.42678 243.11905 106.33692 224.033 102.92869 218.1027" fill="#FFFFFF"/>
          <path d="M 154.87001 256.68378 C 154.39286 263.29573 151.46179 273.38407 144.98617 277.7466 C 141.78244 279.92786 138.71504 282.58628 136.8746 286.13083 C 136.05662 287.63045 135.9203 289.74355 133.94352 288.5166 C 132.98922 287.9031 132.23941 285.38102 131.96675 284.35855 C 131.08062 285.10836 130.46714 285.65368 129.85366 286.199 C 129.85366 286.199 129.98998 282.24545 129.44467 280.95033 C 128.49037 281.3593 127.2634 281.49565 125.5593 282.65444 C 123.85518 283.81324 122.0829 287.76678 121.60576 286.13083 C 121.06044 284.49488 122.0829 282.58628 121.53759 281.0185 C 118.47019 271.8163 119.90164 262.75042 114.72115 253.88904 C 113.35786 251.50328 110.7676 249.45835 110.63128 246.6636 C 110.42678 243.11905 106.33692 224.033 102.92869 218.1027" stroke="black" stroke-linecap="butt" stroke-linejoin="round" stroke-width="1.5"/>
        </g>
        <g id="Graphic_189">
          <path d="M 146.48578 251.8441 C 147.37192 252.2531 148.05357 253.13923 148.39439 254.09353 C 148.73521 255.04783 148.66705 256.2748 148.1899 257.2291 C 147.9854 257.70625 147.84907 257.9789 147.7809 258.25156 C 147.71274 258.52422 147.71274 258.86504 147.7809 259.27403 C 147.84907 259.68302 147.91724 260.16017 147.9854 260.63732 C 148.05357 261.11447 147.9854 261.6598 147.71274 262.13694 C 147.50825 261.18264 146.89477 260.63732 146.48578 259.68302 C 146.28129 259.20587 146.0768 258.66055 146.14496 258.04707 C 146.21313 257.36543 146.41762 256.88827 146.62211 256.4793 C 146.96294 255.79764 147.09926 255.04783 147.0311 254.29803 C 147.0311 253.61638 146.89477 252.7984 146.48578 251.8441 Z" fill="black"/>
        </g>
        <g id="Graphic_188">
          <path d="M 141.30528 262.2051 C 141.71427 262.9549 141.91877 263.70472 142.12326 264.45453 C 142.32775 265.20434 142.46408 265.95415 142.60041 266.6358 C 142.73674 267.3856 142.8049 268.06725 142.94123 268.81706 C 143.0094 269.56686 143.14573 270.31667 143.21389 271.13465 C 142.53225 270.6575 142.0551 269.97585 141.71427 269.22604 C 141.37345 268.47623 141.1008 267.72642 140.96446 266.90845 C 140.82813 266.15864 140.75997 265.34067 140.82813 264.5227 C 140.8963 263.7729 141.03263 262.9549 141.30528 262.2051 Z" fill="black"/>
        </g>
        <g id="Graphic_187">
          <path d="M 121.19677 245.43665 C 121.46943 246.6636 121.53759 247.8224 121.53759 249.04936 C 121.53759 249.66284 121.53759 250.20816 121.67392 250.48082 C 121.81025 250.75347 122.15107 251.0943 122.56006 251.50328 C 123.4462 252.38942 124.196 253.4119 124.74132 254.50252 C 125.28664 255.59315 125.69562 256.8201 125.76379 258.04707 C 125.01398 257.0246 124.33233 256.13847 123.65069 255.25233 C 122.90088 254.3662 122.15107 253.54822 121.40126 252.7984 C 120.99228 252.38942 120.44696 251.8441 120.1743 251.02613 C 119.96981 250.14 120.1743 249.5265 120.24247 248.9812 C 120.44696 247.75424 120.71962 246.59544 121.19677 245.43665 Z" fill="black"/>
        </g>
        <g id="Graphic_186">
          <path d="M 110.9721 316.60034 L 105.92793 311.6925 C 105.92793 311.6925 103.33768 311.01086 99.86129 314.2146 C 95.77143 318.2363 96.5894 324.03027 97.33921 323.82578 C 97.68003 323.7576 99.38414 319.59958 101.83806 318.84977 C 104.36015 318.09996 105.85977 319.66774 106.13242 320.07673 Z" fill="#FFFFFF"/>
          <path d="M 110.9721 316.60034 L 105.92793 311.6925 C 105.92793 311.6925 103.33768 311.01086 99.86129 314.2146 C 95.77143 318.2363 96.5894 324.03027 97.33921 323.82578 C 97.68003 323.7576 99.38414 319.59958 101.83806 318.84977 C 104.36015 318.09996 105.85977 319.66774 106.13242 320.07673 Z" stroke="black" stroke-linecap="butt" stroke-linejoin="round" stroke-width="1.5"/>
        </g>
        <g id="Graphic_185">
          <path d="M 133.67087 319.5314 C 128.6267 321.5082 123.51436 317.6228 121.81025 315.78237 C 120.78778 314.62357 119.90164 313.53294 118.19753 313.32845 C 117.65222 313.32845 116.56159 313.0558 115.60728 313.12396 C 114.65298 313.19212 113.42602 313.32845 113.42602 313.32845 C 113.42602 313.32845 113.63051 311.55617 111.72191 309.92023 C 108.79084 307.39814 106.20059 308.8296 105.04179 310.60187 L 105.17812 310.7382 C 105.04179 311.01086 104.97363 311.35168 104.90546 311.6925 C 108.04103 312.71497 107.29122 318.64528 105.31445 319.80407 C 104.8373 320.41755 105.24629 321.91717 107.63204 323.14413 C 108.79084 323.6213 109.8133 324.03027 111.38109 322.93964 C 112.8807 321.91717 111.9264 321.57635 113.35786 320.75837 C 114.78931 320.00857 116.28893 321.98534 117.17507 322.5988 C 118.47019 323.48495 119.83348 323.9621 121.26493 324.03027 C 123.30987 324.09843 126.37727 323.7576 126.37727 323.7576 C 126.37727 323.7576 132.6484 323.34862 134.42067 325.8707" fill="#FFFFFF"/>
          <path d="M 133.67087 319.5314 C 128.6267 321.5082 123.51436 317.6228 121.81025 315.78237 C 120.78778 314.62357 119.90164 313.53294 118.19753 313.32845 C 117.65222 313.32845 116.56159 313.0558 115.60728 313.12396 C 114.65298 313.19212 113.42602 313.32845 113.42602 313.32845 C 113.42602 313.32845 113.63051 311.55617 111.72191 309.92023 C 108.79084 307.39814 106.20059 308.8296 105.04179 310.60187 L 105.17812 310.7382 C 105.04179 311.01086 104.97363 311.35168 104.90546 311.6925 C 108.04103 312.71497 107.29122 318.64528 105.31445 319.80407 C 104.8373 320.41755 105.24629 321.91717 107.63204 323.14413 C 108.79084 323.6213 109.8133 324.03027 111.38109 322.93964 C 112.8807 321.91717 111.9264 321.57635 113.35786 320.75837 C 114.78931 320.00857 116.28893 321.98534 117.17507 322.5988 C 118.47019 323.48495 119.83348 323.9621 121.26493 324.03027 C 123.30987 324.09843 126.37727 323.7576 126.37727 323.7576 C 126.37727 323.7576 132.6484 323.34862 134.42067 325.8707" stroke="black" stroke-linecap="butt" stroke-linejoin="round" stroke-width="1.5"/>
        </g>
        <g id="Graphic_184">
          <path d="M 114.244 313.46478 C 114.10767 314.2146 113.83501 314.9644 113.49418 315.7142 C 113.15336 316.39585 112.81254 317.0775 112.33539 317.6228 L 112.19906 317.55465 C 112.47172 316.873 112.53988 316.19136 112.60805 315.5097 C 112.67621 314.82807 112.60805 314.14642 112.53988 313.46478 Z" fill="black"/>
        </g>
        <g id="Graphic_183">
          <path d="M 97.27104 338.004 C 96.18041 343.66163 100.67927 347.956 101.15642 347.41068 C 101.29275 347.06986 99.99762 343.38898 101.63357 341.34404 C 103.26952 339.2991 104.42831 339.36727 104.90546 339.5036 L 106.54141 334.9366 L 100.67927 332.55083 C 100.6111 332.55083 98.29351 333.43696 97.27104 338.004" fill="#FFFFFF"/>
          <path d="M 97.27104 338.004 C 96.18041 343.66163 100.67927 347.956 101.15642 347.41068 C 101.29275 347.06986 99.99762 343.38898 101.63357 341.34404 C 103.26952 339.2991 104.42831 339.36727 104.90546 339.5036 L 106.54141 334.9366 L 100.67927 332.55083 C 100.6111 332.55083 98.29351 333.43696 97.27104 338.004" stroke="black" stroke-linecap="butt" stroke-linejoin="round" stroke-width="1.5"/>
        </g>
        <g id="Graphic_182">
          <path d="M 165.02652 334.8684 C 163.66323 331.18754 161.34564 329.96058 161.34564 329.96058 C 161.34564 329.96058 156.91495 327.7793 155.41533 331.52836 C 153.91571 335.2774 155.96064 337.25417 155.96064 337.25417 C 155.96064 337.25417 158.68722 336.29987 161.07298 337.86765 C 164.41304 339.57177 164.54937 342.98 165.57183 343.5253 C 166.86696 341.95752 165.8445 337.11785 165.02652 334.8684 Z" fill="#FFFFFF"/>
          <path d="M 165.02652 334.8684 C 163.66323 331.18754 161.34564 329.96058 161.34564 329.96058 C 161.34564 329.96058 156.91495 327.7793 155.41533 331.52836 C 153.91571 335.2774 155.96064 337.25417 155.96064 337.25417 C 155.96064 337.25417 158.68722 336.29987 161.07298 337.86765 C 164.41304 339.57177 164.54937 342.98 165.57183 343.5253 C 166.86696 341.95752 165.8445 337.11785 165.02652 334.8684 Z" stroke="black" stroke-linecap="butt" stroke-linejoin="round" stroke-width="1.5"/>
        </g>
        <g id="Graphic_181">
          <path d="M 108.31369 319.80407 L 104.76913 316.39585 C 104.76913 316.39585 100.67927 316.94117 97.88452 319.59958 C 96.11225 321.23553 94.68079 325.3254 96.04408 327.643 C 96.79389 327.643 97.7482 324.1666 100.6111 323.68945 C 103.40584 323.34862 105.10996 324.98457 105.10996 324.98457 Z" fill="#FFFFFF"/>
          <path d="M 108.31369 319.80407 L 104.76913 316.39585 C 104.76913 316.39585 100.67927 316.94117 97.88452 319.59958 C 96.11225 321.23553 94.68079 325.3254 96.04408 327.643 C 96.79389 327.643 97.7482 324.1666 100.6111 323.68945 C 103.40584 323.34862 105.10996 324.98457 105.10996 324.98457 Z" stroke="black" stroke-linecap="butt" stroke-linejoin="round" stroke-width="1.5"/>
        </g>
        <g id="Graphic_180">
          <path d="M 150.71198 334.1186 C 151.80261 334.59576 150.50749 337.32234 153.71122 338.1403 C 156.36963 338.7538 157.1876 337.186 157.1876 337.186 C 157.1876 337.186 155.61982 332.34633 161.48197 330.16507 C 162.02728 329.6879 162.02728 327.30216 158.48273 326.41603 C 156.4378 325.6662 155.0745 327.57482 155.0745 327.57482 C 155.0745 327.57482 153.23407 325.8707 151.12097 326.75685 C 150.23483 327.09767 148.1899 327.643 146.96294 327.4385 C 146.28129 327.234 142.8049 326.21153 142.66857 323.82578 C 142.39592 322.8033 143.48655 319.5314 143.48655 319.5314 L 147.0311 312.91946 C 147.0311 312.91946 163.7314 275.2245 164.07221 273.99755 C 164.75386 270.11218 154.66552 269.56686 154.66552 269.56686 C 154.66552 269.56686 151.73445 283.74507 150.43932 285.9945 C 150.23483 286.33532 150.37116 286.26716 149.48502 287.83494 C 148.12173 288.58475 146.69028 293.90158 146.96294 294.58322 C 145.8723 294.9922 143.82737 299.6274 144.10003 301.3315 C 143.07756 302.0813 141.30528 306.17118 141.1008 307.53447 C 139.80567 308.14795 137.35175 312.6468 137.89706 313.8056 C 137.48808 314.3509 137.01092 315.5097 134.82966 318.9861 C 133.73903 320.4857 132.92106 321.0992 131.6941 321.03103 C 125.21847 321.78084 123.71885 318.0318 120.10614 317.75914 C 118.94734 317.69097 117.51589 318.16813 117.17507 318.3726 C 114.58482 319.87224 111.72191 318.3726 111.38109 317.35015 C 110.69944 314.82807 108.72267 314.5554 106.67774 314.69174 C 104.49648 315.03256 103.81483 316.73667 103.81483 316.73667 C 103.81483 316.73667 106.26875 316.873 105.92793 321.23553 C 105.85977 321.849 105.85977 322.32616 105.58711 322.87147 C 105.38261 323.28046 104.56464 323.9621 104.56464 324.3711 C 104.56464 325.46172 105.72344 326.6205 107.83653 326.41603 C 109.26799 326.2797 110.22229 325.5299 110.63128 324.84824 C 112.47172 325.46172 114.244 326.00704 116.1526 325.25723 C 116.76608 325.05274 117.37956 324.7119 118.0612 324.84824 C 118.74285 324.98457 119.22 325.59805 119.76532 326.00704 C 120.58329 326.55235 121.60576 326.55235 122.4919 326.55235 C 120.71962 327.234 118.0612 327.91564 115.67545 327.643 C 113.97134 327.4385 112.53988 327.234 111.17659 327.7793 C 109.47248 328.46096 108.92717 329.27893 107.63204 330.36956 C 107.49571 329.82425 106.60957 329.21077 106.13242 328.9381 C 105.51894 328.66545 104.90546 328.66545 104.29198 328.5973 C 102.24705 328.46096 98.56617 330.5059 99.45231 333.1643 C 99.58863 333.50513 99.58863 333.43696 99.92946 333.43696 C 101.70173 332.9598 104.6328 336.09538 104.08749 339.84442 C 104.01932 340.32158 104.42831 340.79873 104.76913 341.0714 C 105.72344 341.8212 108.04103 342.63917 109.8133 341.27588 C 111.58558 339.9126 111.10843 338.41297 111.10843 337.86765 C 112.47172 337.186 113.42602 335.61823 114.72115 334.80025 C 116.62975 333.64146 119.08367 334.3231 121.3331 334.39127 C 123.78702 334.45943 126.24094 333.9141 128.28587 332.55083 C 131.83042 330.16507 138.23788 330.3014 141.6461 333.1643 C 143.14573 334.45943 143.82737 335.41373 145.94047 335.0729 C 147.37192 334.80025 149.07603 333.84595 150.71198 334.1186 Z" fill="#FFFFFF"/>
          <path d="M 150.71198 334.1186 C 151.80261 334.59576 150.50749 337.32234 153.71122 338.1403 C 156.36963 338.7538 157.1876 337.186 157.1876 337.186 C 157.1876 337.186 155.61982 332.34633 161.48197 330.16507 C 162.02728 329.6879 162.02728 327.30216 158.48273 326.41603 C 156.4378 325.6662 155.0745 327.57482 155.0745 327.57482 C 155.0745 327.57482 153.23407 325.8707 151.12097 326.75685 C 150.23483 327.09767 148.1899 327.643 146.96294 327.4385 C 146.28129 327.234 142.8049 326.21153 142.66857 323.82578 C 142.39592 322.8033 143.48655 319.5314 143.48655 319.5314 L 147.0311 312.91946 C 147.0311 312.91946 163.7314 275.2245 164.07221 273.99755 C 164.75386 270.11218 154.66552 269.56686 154.66552 269.56686 C 154.66552 269.56686 151.73445 283.74507 150.43932 285.9945 C 150.23483 286.33532 150.37116 286.26716 149.48502 287.83494 C 148.12173 288.58475 146.69028 293.90158 146.96294 294.58322 C 145.8723 294.9922 143.82737 299.6274 144.10003 301.3315 C 143.07756 302.0813 141.30528 306.17118 141.1008 307.53447 C 139.80567 308.14795 137.35175 312.6468 137.89706 313.8056 C 137.48808 314.3509 137.01092 315.5097 134.82966 318.9861 C 133.73903 320.4857 132.92106 321.0992 131.6941 321.03103 C 125.21847 321.78084 123.71885 318.0318 120.10614 317.75914 C 118.94734 317.69097 117.51589 318.16813 117.17507 318.3726 C 114.58482 319.87224 111.72191 318.3726 111.38109 317.35015 C 110.69944 314.82807 108.72267 314.5554 106.67774 314.69174 C 104.49648 315.03256 103.81483 316.73667 103.81483 316.73667 C 103.81483 316.73667 106.26875 316.873 105.92793 321.23553 C 105.85977 321.849 105.85977 322.32616 105.58711 322.87147 C 105.38261 323.28046 104.56464 323.9621 104.56464 324.3711 C 104.56464 325.46172 105.72344 326.6205 107.83653 326.41603 C 109.26799 326.2797 110.22229 325.5299 110.63128 324.84824 C 112.47172 325.46172 114.244 326.00704 116.1526 325.25723 C 116.76608 325.05274 117.37956 324.7119 118.0612 324.84824 C 118.74285 324.98457 119.22 325.59805 119.76532 326.00704 C 120.58329 326.55235 121.60576 326.55235 122.4919 326.55235 C 120.71962 327.234 118.0612 327.91564 115.67545 327.643 C 113.97134 327.4385 112.53988 327.234 111.17659 327.7793 C 109.47248 328.46096 108.92717 329.27893 107.63204 330.36956 C 107.49571 329.82425 106.60957 329.21077 106.13242 328.9381 C 105.51894 328.66545 104.90546 328.66545 104.29198 328.5973 C 102.24705 328.46096 98.56617 330.5059 99.45231 333.1643 C 99.58863 333.50513 99.58863 333.43696 99.92946 333.43696 C 101.70173 332.9598 104.6328 336.09538 104.08749 339.84442 C 104.01932 340.32158 104.42831 340.79873 104.76913 341.0714 C 105.72344 341.8212 108.04103 342.63917 109.8133 341.27588 C 111.58558 339.9126 111.10843 338.41297 111.10843 337.86765 C 112.47172 337.186 113.42602 335.61823 114.72115 334.80025 C 116.62975 333.64146 119.08367 334.3231 121.3331 334.39127 C 123.78702 334.45943 126.24094 333.9141 128.28587 332.55083 C 131.83042 330.16507 138.23788 330.3014 141.6461 333.1643 C 143.14573 334.45943 143.82737 335.41373 145.94047 335.0729 C 147.37192 334.80025 149.07603 333.84595 150.71198 334.1186 Z" stroke="black" stroke-linecap="butt" stroke-linejoin="round" stroke-width="1.5"/>
        </g>
        <g id="Graphic_179">
          <path d="M 153.50672 332.55083 C 153.3704 331.6647 153.3704 330.7104 153.50672 329.7561 C 153.64305 328.8018 153.98387 327.91564 154.39286 327.0295 L 155.82432 327.9838 C 155.279 328.5973 154.80185 329.27893 154.39286 330.02874 C 154.05204 330.77855 153.71122 331.6647 153.64305 332.55083 Z" fill="black"/>
        </g>
        <g id="Graphic_178">
          <path d="M 108.17736 333.30064 C 107.7002 332.34633 107.29122 331.39203 106.81407 330.57406 L 108.45001 330.0969 C 108.51818 331.18754 108.38185 332.21 108.38185 333.23247 Z" fill="black"/>
        </g>
        <g id="Graphic_177">
          <path d="M 122.4919 325.6662 C 123.10537 325.59805 123.85518 325.5299 124.53683 325.5299 L 125.5593 325.46172 C 125.90012 325.46172 126.24094 325.46172 126.58176 325.3254 C 127.19524 325.1209 127.80872 324.78008 128.49037 324.50742 C 129.17201 324.23476 130.05815 324.1666 130.7398 324.3711 L 130.7398 324.5756 C 129.98998 324.5756 129.3765 324.78008 128.83119 325.18906 C 128.28587 325.5299 127.6724 326.00704 126.92258 326.2797 C 126.17277 326.55235 125.49113 326.89318 124.80949 327.09767 C 124.12784 327.30216 123.37803 327.4385 122.56006 327.4385 Z" fill="black"/>
        </g>
        <g id="Graphic_176">
          <path d="M 112.1309 317.00933 C 112.26722 317.89547 112.26722 318.7816 111.99457 319.5314 C 111.79007 320.3494 111.44925 321.03103 110.9721 321.71268 L 110.83577 321.6445 C 111.04026 320.8947 111.10843 320.1449 111.04026 319.46325 C 110.9721 318.7816 110.7676 318.09996 110.49495 317.55465 Z" fill="black"/>
        </g>
        <g id="Graphic_175">
          <path d="M 141.98693 324.09843 C 141.71427 323.48495 141.71427 322.93964 141.6461 322.4625 C 141.6461 321.91717 141.6461 321.44002 141.71427 320.96287 C 141.8506 320.00857 142.0551 319.05426 142.32775 318.16813 L 142.53225 318.16813 C 142.53225 319.12243 142.53225 320.00857 142.66857 320.96287 C 142.73674 321.44002 142.8049 321.849 142.94123 322.258 C 143.07756 322.66698 143.21389 323.07597 143.41838 323.28046 Z" fill="black"/>
        </g>
        <g id="Graphic_174">
          <path d="M 153.43856 289.2664 C 152.82508 288.92557 152.07527 288.78924 151.39363 288.6529 C 151.0528 288.58475 150.71198 288.5166 150.37116 288.5166 C 150.16666 288.5166 150.03034 288.44842 149.894 288.5166 C 149.82584 288.5166 149.75768 288.5166 149.68951 288.5166 C 149.62135 288.5166 149.68951 288.5166 149.68951 288.5166 C 149.62135 288.5166 149.894 288.5166 149.96217 288.44842 L 149.00787 287.01697 C 149.21236 286.88064 149.55318 286.88064 149.55318 286.88064 C 149.62135 286.88064 149.75768 286.88064 149.82584 286.88064 C 149.96217 286.88064 150.0985 286.9488 150.16666 287.01697 C 150.37116 287.08513 150.57565 287.1533 150.71198 287.28962 C 151.0528 287.49412 151.39363 287.63045 151.73445 287.83494 C 152.34793 288.24393 153.02957 288.6529 153.57489 289.19823 Z" fill="black"/>
        </g>
        <g id="Graphic_173">
          <path d="M 150.43932 295.87835 C 149.82584 295.6057 149.28053 295.4012 148.66705 295.33303 C 148.39439 295.26487 148.05357 295.26487 147.7809 295.26487 C 147.64458 295.26487 147.50825 295.26487 147.37192 295.26487 L 146.89477 295.33303 L 147.0311 293.62892 C 146.96294 293.62892 147.0311 293.62892 147.0311 293.62892 L 147.09926 293.62892 L 147.2356 293.6971 L 147.50825 293.76525 C 147.71274 293.8334 147.84907 293.90158 148.05357 293.96974 C 148.39439 294.10607 148.73521 294.2424 149.00787 294.4469 C 149.62135 294.7877 150.0985 295.26487 150.57565 295.74202 Z" fill="black"/>
        </g>
        <g id="Graphic_172">
          <path d="M 147.50825 302.6948 C 146.89477 302.4903 146.28129 302.21764 145.66781 302.0813 C 145.39515 302.01315 145.05433 301.945 144.78167 301.945 C 144.50901 301.945 144.30452 302.01315 144.30452 302.0813 L 143.7592 300.44537 C 144.37269 300.30904 144.78167 300.51353 145.1225 300.64986 C 145.46332 300.7862 145.73597 300.99068 146.00863 301.19517 C 146.55395 301.60416 147.0311 302.0813 147.50825 302.4903 Z" fill="black"/>
        </g>
        <g id="Graphic_171">
          <path d="M 144.50901 308.96592 C 144.03186 308.55694 143.41838 308.35244 142.8049 308.2161 C 142.53225 308.14795 142.19142 308.0798 141.91877 308.0798 C 141.6461 308.0798 141.37345 308.14795 141.44161 308.2161 L 140.82813 306.64833 C 141.50978 306.512 141.91877 306.64833 142.25959 306.78466 C 142.60041 306.921 142.94123 307.1255 143.21389 307.32998 C 143.7592 307.73896 144.30452 308.2161 144.64534 308.8296 Z" fill="black"/>
        </g>
        <g id="Graphic_170">
          <path d="M 141.37345 315.44155 C 140.8963 315.03256 140.21465 314.82807 139.60117 314.69174 C 139.26035 314.62357 138.9877 314.5554 138.64687 314.5554 C 138.51054 314.5554 138.37421 314.5554 138.23788 314.5554 C 138.10156 314.5554 137.96523 314.62357 138.03339 314.62357 L 137.76073 312.91946 C 138.10156 312.91946 138.30605 312.98763 138.51054 313.0558 C 138.71504 313.12396 138.85136 313.19212 139.05586 313.2603 C 139.39668 313.3966 139.66934 313.6011 140.01016 313.8056 C 140.28282 314.0101 140.55548 314.2146 140.82813 314.48724 C 141.1008 314.7599 141.30528 315.03256 141.50978 315.3052 Z" fill="black"/>
        </g>
        <g id="Graphic_169">
          <path d="M 178.6594 256.54745 C 184.58972 265.40883 189.9747 275.76983 196.99565 280.13236 C 207.22032 308.96592 225.2839 313.87376 225.2839 313.87376 C 225.2839 313.87376 231.28237 322.32616 236.73553 324.78008 C 242.1887 327.30216 240.75723 325.6662 241.3707 325.93887 C 245.39242 332.4145 251.52722 334.8684 256.50322 337.52683 C 257.38936 338.89012 259.70695 342.162 263.18334 343.5253 C 266.59156 344.8886 271.9084 344.61594 272.31738 343.9343 C 272.31738 343.45714 274.83946 342.571 270.88593 334.3231 C 264.2058 320.3494 256.70772 306.98915 252.95867 299.08208 C 249.14146 291.24316 246.89204 284.56305 245.73324 282.99526" fill="#FFFFFF"/>
          <path d="M 178.6594 256.54745 C 184.58972 265.40883 189.9747 275.76983 196.99565 280.13236 C 207.22032 308.96592 225.2839 313.87376 225.2839 313.87376 C 225.2839 313.87376 231.28237 322.32616 236.73553 324.78008 C 242.1887 327.30216 240.75723 325.6662 241.3707 325.93887 C 245.39242 332.4145 251.52722 334.8684 256.50322 337.52683 C 257.38936 338.89012 259.70695 342.162 263.18334 343.5253 C 266.59156 344.8886 271.9084 344.61594 272.31738 343.9343 C 272.31738 343.45714 274.83946 342.571 270.88593 334.3231 C 264.2058 320.3494 256.70772 306.98915 252.95867 299.08208 C 249.14146 291.24316 246.89204 284.56305 245.73324 282.99526" stroke="black" stroke-linecap="butt" stroke-linejoin="round" stroke-width="1.5"/>
        </g>
        <g id="Graphic_168">
          <path d="M 232.373 299.55923 C 243.41565 331.73285 256.43506 337.32234 256.43506 337.32234" stroke="black" stroke-linecap="butt" stroke-linejoin="round" stroke-width="1.5"/>
        </g>
        <g id="Graphic_167">
          <path d="M 222.28466 294.85588 C 233.19098 323.0078 241.5752 325.73438 241.5752 325.73438" stroke="black" stroke-linecap="butt" stroke-linejoin="round" stroke-width="1.5"/>
        </g>
        <g id="Graphic_166">
          <path d="M 210.42405 286.47165 C 212.12816 296.9008 225.2839 313.73744 225.2839 313.73744" stroke="black" stroke-linecap="butt" stroke-linejoin="round" stroke-width="1.5"/>
        </g>
        <g id="Graphic_165">
          <path d="M 214.24126 268.40807 C 216.0817 278.08742 226.71535 290.49335 232.373 299.55923" stroke="black" stroke-linecap="butt" stroke-linejoin="round" stroke-width="1.5"/>
        </g>
        <g id="Graphic_164">
          <path d="M 203.74393 263.84105 C 207.4248 276.24698 214.65024 284.6312 222.28466 294.92404" stroke="black" stroke-linecap="butt" stroke-linejoin="round" stroke-width="1.5"/>
        </g>
        <g id="Graphic_163">
          <path d="M 189.83838 256.88827 C 189.83838 256.88827 195.49603 269.63503 210.42405 286.47165" stroke="black" stroke-linecap="butt" stroke-linejoin="round" stroke-width="1.5"/>
        </g>
        <g id="Graphic_162">
          <path d="M 230.2599 275.29268 C 232.23668 280.405 234.55427 285.38102 236.94002 290.28886 C 239.32578 295.1967 241.91603 300.03638 244.6426 304.8079 C 247.30102 309.5794 250.09576 314.3509 252.95867 318.9861 C 255.82158 323.68945 258.6845 328.3928 261.27474 333.23247 L 261.1384 333.30064 C 257.93468 328.8018 254.86728 324.23476 251.9362 319.59958 C 249.00513 314.9644 246.07406 310.26105 243.34748 305.48954 C 240.55274 300.71802 237.9625 295.87835 235.4404 290.9705 C 232.98648 286.06266 230.73706 281.0185 228.69212 275.838 Z" fill="black"/>
        </g>
        <g id="Graphic_161">
          <path d="M 200.5402 258.3879 C 210.83304 257.63808 274.15782 254.43435 278.11136 253.2074 C 283.36002 251.57145 287.58622 250.61714 292.15324 247.54974 C 294.19817 246.18645 296.31127 244.755 297.74272 242.77823 C 299.106 240.80146 300.33297 238.96102 299.3105 236.84792 C 298.62886 235.48463 297.26557 234.66666 295.76595 234.53033 C 282.33755 233.4397 244.91527 225.1918 220.98954 213.80834" fill="#FFFFFF"/>
          <path d="M 200.5402 258.3879 C 210.83304 257.63808 274.15782 254.43435 278.11136 253.2074 C 283.36002 251.57145 287.58622 250.61714 292.15324 247.54974 C 294.19817 246.18645 296.31127 244.755 297.74272 242.77823 C 299.106 240.80146 300.33297 238.96102 299.3105 236.84792 C 298.62886 235.48463 297.26557 234.66666 295.76595 234.53033 C 282.33755 233.4397 244.91527 225.1918 220.98954 213.80834" stroke="black" stroke-linecap="butt" stroke-linejoin="round" stroke-width="1.5"/>
        </g>
        <g id="Graphic_160">
          <path d="M 191.5425 215.44428 C 198.56343 218.71618 205.65254 221.64725 213.0143 223.96484 C 220.37606 226.28243 227.80599 228.0547 235.37224 229.6225 C 242.9385 231.19027 250.50475 232.6899 258.071 234.1895 C 265.63726 235.68913 273.20352 237.12058 280.76977 238.75653 C 273.0672 237.80223 265.43277 236.7116 257.79835 235.48463 C 250.16393 234.25767 242.5295 232.89438 234.96325 231.3266 C 231.2142 230.50863 227.397 229.69065 223.64795 228.6682 C 219.8989 227.64572 216.14986 226.5551 212.53715 225.25997 C 205.24355 222.60155 198.2226 219.32966 191.5425 215.44428 Z" fill="black"/>
        </g>
        <g id="Graphic_159">
          <path d="M 178.31859 224.64648 C 185.4077 228.60002 193.0421 231.25844 200.81286 233.09888 C 204.69823 234.05318 208.65177 234.87115 212.6053 235.62096 C 216.55885 236.37077 220.5124 237.18875 224.46593 237.93855 C 228.41947 238.68836 232.373 239.30184 236.3947 239.91532 C 240.34825 240.5288 244.36995 241.07412 248.39165 241.61944 C 256.3669 242.6419 264.4103 243.5962 272.38554 244.61867 C 264.34214 244.346 256.23057 243.73253 248.25532 242.91456 C 240.21192 242.0966 232.1685 241.07412 224.26143 239.64267 C 220.23973 238.89286 216.35436 238.07488 212.40082 237.2569 C 208.44728 236.37077 204.49374 235.5528 200.60837 234.46217 C 192.7013 232.21274 185.06687 229.14534 178.31859 224.64648 Z" fill="black"/>
        </g>
        <g id="Graphic_158">
          <path d="M 203.8121 246.79993 C 208.31095 247.2771 212.74164 247.6179 217.2405 247.95873 C 221.67118 248.29955 226.17004 248.5722 230.60073 248.7767 C 232.85016 248.91303 235.09958 248.9812 237.28085 249.11753 C 239.53027 249.25386 241.7797 249.25386 243.96096 249.39018 C 248.45982 249.5265 252.8905 249.59468 257.38936 249.59468 C 252.95867 250.3445 248.45982 250.61714 243.96096 250.75347 C 239.4621 250.8898 234.96325 250.82164 230.4644 250.54898 C 225.96555 250.27632 221.4667 249.9355 217.036 249.32202 C 212.6053 248.70854 208.17462 247.89057 203.8121 246.79993 Z" fill="black"/>
        </g>
        <g id="Graphic_157">
          <path d="M 45.670546 172.36434 C 48.94244 152.73298 58.14464 140.53154 61.075714 130.17054 C 63.87046 110.19835 72.391015 97.11078 86.02391 82.25093 C 91.34074 76.45695 102.99686 69.91316 118.87918 71.20828 C 132.03492 72.298915 132.6484 74.34385 142.66857 78.77454 C 144.10003 79.45618 146.89477 81.29662 146.96294 83.13706 C 146.96294 84.0232 146.28129 84.77301 145.46332 85.11383 C 144.64534 85.45466 144.23636 85.38649 143.35022 85.38649 C 141.98693 85.31833 142.25959 86.1363 140.96446 86.47712 C 140.48731 86.61345 140.01016 86.74978 139.60117 87.02244 C 139.12402 87.36326 138.71504 88.93104 138.44238 89.47636 C 135.98846 93.70256 133.19371 95.74749 128.83119 97.92875 C 127.05891 98.81489 125.21847 99.5647 123.71885 100.85982 C 122.21924 102.15495 120.65145 105.42684 120.78778 107.40361 C 120.99228 109.44855 120.78778 113.74291 122.21924 115.17436 C 124.67316 117.49195 126.3091 117.0148 128.89935 118.03727 C 129.44467 118.65075 129.44467 118.65075 129.44467 118.65075 C 129.30834 119.60505 124.87765 125.4672 124.87765 131.80649 C 124.87765 141.7585 141.30528 155.1869 158.82355 165.20707 C 181.38599 178.15832 192.7013 187.83768 212.94613 205.69676 C 227.6015 218.57985 241.09806 232.41723 257.1167 245.43665 C 278.65667 262.06877 305.37714 278.4964 315.94263 284.42672 C 317.57858 285.38102 319.0782 285.9945 319.41902 287.83494 C 319.89617 290.2207 318.19206 291.7203 316.2153 293.21993 C 314.23852 294.71955 311.85277 295.46936 309.467 296.151 C 304.21835 297.7188 299.85582 297.37796 294.40266 297.44613 C 292.2214 297.44613 271.09042 298.8776 252.82234 288.58475 C 232.782 288.03943 219.48992 278.7009 214.78657 277.61027 C 214.78657 277.61027 174.50138 269.9077 149.00787 264.3182 C 114.72115 256.75195 89.70479 246.1183 74.231455 234.05318 C 57.94015 221.10193 41.44435 198.06235 45.670546 172.36434 Z" fill="#FFFFFF"/>
          <path d="M 45.670546 172.36434 C 48.94244 152.73298 58.14464 140.53154 61.075714 130.17054 C 63.87046 110.19835 72.391015 97.11078 86.02391 82.25093 C 91.34074 76.45695 102.99686 69.91316 118.87918 71.20828 C 132.03492 72.298915 132.6484 74.34385 142.66857 78.77454 C 144.10003 79.45618 146.89477 81.29662 146.96294 83.13706 C 146.96294 84.0232 146.28129 84.77301 145.46332 85.11383 C 144.64534 85.45466 144.23636 85.38649 143.35022 85.38649 C 141.98693 85.31833 142.25959 86.1363 140.96446 86.47712 C 140.48731 86.61345 140.01016 86.74978 139.60117 87.02244 C 139.12402 87.36326 138.71504 88.93104 138.44238 89.47636 C 135.98846 93.70256 133.19371 95.74749 128.83119 97.92875 C 127.05891 98.81489 125.21847 99.5647 123.71885 100.85982 C 122.21924 102.15495 120.65145 105.42684 120.78778 107.40361 C 120.99228 109.44855 120.78778 113.74291 122.21924 115.17436 C 124.67316 117.49195 126.3091 117.0148 128.89935 118.03727 C 129.44467 118.65075 129.44467 118.65075 129.44467 118.65075 C 129.30834 119.60505 124.87765 125.4672 124.87765 131.80649 C 124.87765 141.7585 141.30528 155.1869 158.82355 165.20707 C 181.38599 178.15832 192.7013 187.83768 212.94613 205.69676 C 227.6015 218.57985 241.09806 232.41723 257.1167 245.43665 C 278.65667 262.06877 305.37714 278.4964 315.94263 284.42672 C 317.57858 285.38102 319.0782 285.9945 319.41902 287.83494 C 319.89617 290.2207 318.19206 291.7203 316.2153 293.21993 C 314.23852 294.71955 311.85277 295.46936 309.467 296.151 C 304.21835 297.7188 299.85582 297.37796 294.40266 297.44613 C 292.2214 297.44613 271.09042 298.8776 252.82234 288.58475 C 232.782 288.03943 219.48992 278.7009 214.78657 277.61027 C 214.78657 277.61027 174.50138 269.9077 149.00787 264.3182 C 114.72115 256.75195 89.70479 246.1183 74.231455 234.05318 C 57.94015 221.10193 41.44435 198.06235 45.670546 172.36434 Z" stroke="black" stroke-linecap="butt" stroke-linejoin="round" stroke-width="1.5"/>
        </g>
        <g id="Graphic_156">
          <path d="M 181.24966 266.49946 C 179.95453 273.04325 175.86467 282.65444 168.9119 286.26716 C 165.4355 288.03943 162.09545 290.35703 159.84602 293.62892 C 158.89172 294.9922 158.48273 297.1053 156.64229 295.67385 C 155.75615 294.9922 155.34716 292.40196 155.14267 291.31133 C 154.18837 291.99297 153.50672 292.40196 152.82508 292.8791 C 152.82508 292.8791 153.43856 288.99374 153.09774 287.63045 C 152.07527 287.97127 150.84831 287.9031 149.00787 288.8574 C 147.16743 289.8117 144.98617 293.4926 144.64534 291.85664 C 144.30452 290.2207 145.53148 288.38026 145.19066 286.7443 C 143.28205 277.26945 145.73597 268.40807 141.6461 259.00137 C 140.55548 256.4793 138.30605 254.09353 138.44238 251.36695 C 138.64687 247.8224 136.8746 228.39553 134.21618 222.05624" fill="#FFFFFF"/>
          <path d="M 181.24966 266.49946 C 179.95453 273.04325 175.86467 282.65444 168.9119 286.26716 C 165.4355 288.03943 162.09545 290.35703 159.84602 293.62892 C 158.89172 294.9922 158.48273 297.1053 156.64229 295.67385 C 155.75615 294.9922 155.34716 292.40196 155.14267 291.31133 C 154.18837 291.99297 153.50672 292.40196 152.82508 292.8791 C 152.82508 292.8791 153.43856 288.99374 153.09774 287.63045 C 152.07527 287.97127 150.84831 287.9031 149.00787 288.8574 C 147.16743 289.8117 144.98617 293.4926 144.64534 291.85664 C 144.30452 290.2207 145.53148 288.38026 145.19066 286.7443 C 143.28205 277.26945 145.73597 268.40807 141.6461 259.00137 C 140.55548 256.4793 138.30605 254.09353 138.44238 251.36695 C 138.64687 247.8224 136.8746 228.39553 134.21618 222.05624" stroke="black" stroke-linecap="butt" stroke-linejoin="round" stroke-width="1.5"/>
        </g>
        <g id="Graphic_155">
          <path d="M 173.47891 260.7055 C 174.36505 261.18264 174.91036 262.13694 175.11486 263.1594 C 175.31935 264.18187 175.11486 265.34067 174.56954 266.2268 C 174.29688 266.6358 174.0924 266.9766 174.02423 267.1811 C 173.95606 267.45377 173.8879 267.7946 173.95606 268.20358 C 173.95606 268.61256 174.02423 269.0897 174.02423 269.56686 C 174.02423 270.044 173.8879 270.58933 173.54708 270.99832 C 173.47891 270.044 172.9336 269.43054 172.59277 268.40807 C 172.45644 267.93092 172.32011 267.3856 172.45644 266.70396 C 172.59277 266.09048 172.86543 265.61333 173.06992 265.20434 C 173.47891 264.5227 173.6834 263.84105 173.75157 263.09124 C 173.81973 262.47776 173.75157 261.59162 173.47891 260.7055 Z" fill="black"/>
        </g>
        <g id="Graphic_154">
          <path d="M 167.13962 270.31667 C 167.48044 271.06648 167.61677 271.88446 167.68493 272.63427 C 167.82126 273.38407 167.82126 274.13388 167.88942 274.8837 C 167.95759 275.6335 167.95759 276.31515 167.95759 277.06496 C 167.95759 277.81476 167.95759 278.56457 167.88942 279.38255 C 167.27594 278.76907 166.86696 278.08742 166.5943 277.3376 C 166.32164 276.5878 166.18531 275.76983 166.11715 274.95186 C 166.04898 274.13388 166.11715 273.38407 166.25348 272.5661 C 166.52614 271.8163 166.73063 271.06648 167.13962 270.31667 Z" fill="black"/>
        </g>
        <g id="Graphic_153">
          <path d="M 149.1442 251.23062 C 149.28053 252.45758 149.21236 253.68455 149.07603 254.84334 C 149.00787 255.45682 148.9397 256.00214 149.00787 256.2748 C 149.07603 256.61562 149.3487 256.95644 149.75768 257.4336 C 150.50749 258.3879 151.18913 259.47852 151.59812 260.63732 C 152.0071 261.79612 152.27976 263.02308 152.14343 264.25004 C 151.52995 263.1594 150.98464 262.13694 150.37116 261.18264 C 149.75768 260.22833 149.1442 259.3422 148.39439 258.45606 C 148.05357 257.9789 147.57642 257.4336 147.37192 256.54745 C 147.2356 255.6613 147.50825 255.04783 147.71274 254.50252 C 148.12173 253.48005 148.53072 252.32126 149.1442 251.23062 Z" fill="black"/>
        </g>
        <g id="Graphic_152">
          <path d="M 224.26143 237.80223 C 229.85092 242.91456 235.71306 247.54974 242.05236 251.57145 C 248.39165 255.59315 255.0036 259.1377 261.61556 262.75042 C 268.2275 266.36313 274.83946 269.9077 281.51958 273.45224 C 288.13153 276.9968 294.81165 280.54134 301.35544 284.2904 C 294.47083 281.223 287.65438 278.01926 280.83794 274.6792 C 274.08965 271.33914 267.34137 267.86275 260.72942 264.25004 C 254.11747 260.56916 247.50552 256.95644 241.30255 252.66208 C 235.09958 248.36772 229.3056 243.32355 224.26143 237.80223 Z" fill="black"/>
        </g>
        <g id="Graphic_151">
          <path d="M 208.92443 242.71007 C 214.37759 248.43588 221.12587 252.66208 228.01048 256.34296 C 231.48687 258.1834 234.96325 259.95568 238.5078 261.72795 C 242.05236 263.43206 245.5969 265.20434 249.0733 267.04478 C 255.9579 270.79382 262.97885 274.2702 270.13612 277.61027 C 277.22522 280.95033 284.45065 284.0859 291.60792 287.3578 C 284.10983 284.8357 276.74807 281.9728 269.52264 278.9054 C 262.2972 275.76983 255.13993 272.3616 248.25532 268.5444 C 244.77894 266.70396 241.30255 264.93168 237.82616 263.09124 C 234.34977 261.31896 230.80522 259.41036 227.397 257.4336 C 223.98878 255.45682 220.64872 253.27556 217.51315 250.8898 C 214.37759 248.50405 211.44652 245.77747 208.92443 242.71007 Z" fill="black"/>
        </g>
        <g id="Graphic_150">
          <path d="M 189.4294 250.75347 C 192.63312 253.07107 196.04135 254.97967 199.51773 256.75195 C 202.99412 258.52422 206.60684 260.092 210.21956 261.6598 L 221.12587 266.2268 C 224.73859 267.7946 228.3513 269.36237 231.89585 271.2028 C 238.84863 274.74736 246.07406 277.81476 253.43582 280.54134 C 260.7976 283.26792 268.29568 285.65368 275.86193 287.6986 C 268.09118 286.4035 260.45676 284.35855 252.95867 281.90463 C 245.46058 279.38255 238.09882 276.3833 231.07788 272.70243 C 224.1251 269.0897 216.8315 266.15864 209.67424 262.81858 C 206.12969 261.18264 202.58514 259.41036 199.10875 257.4336 C 195.7687 255.525 192.42863 253.34372 189.4294 250.75347 Z" fill="black"/>
        </g>
        <g id="Graphic_149">
          <path d="M 174.22872 190.90508 C 172.86543 189.81445 171.36581 189.20097 169.79803 188.72381 C 168.16208 188.24666 166.52614 188.04217 164.82202 187.70135 C 163.11791 187.36052 161.4138 186.67888 159.91418 185.65641 C 159.16437 185.17926 158.48273 184.56578 157.86925 183.9523 C 157.52843 183.61148 157.25577 183.27066 156.98311 182.92983 C 156.71045 182.58901 156.4378 182.2482 156.2333 181.97553 C 155.75615 181.43022 155.14267 180.95307 154.59735 180.81674 C 154.05204 180.6804 153.43856 180.81674 152.82508 181.15756 C 152.68875 181.22572 152.55242 181.36205 152.4161 181.49838 L 151.93894 181.90737 C 151.46179 182.31635 150.98464 182.45268 150.43932 182.58901 C 149.96217 182.72534 149.41686 182.72534 148.87154 182.65718 C 148.59888 182.58901 148.25806 182.45268 148.12173 182.38452 C 147.91724 182.31635 147.7809 182.2482 147.57642 182.18003 C 146.14496 181.6347 144.50901 181.6347 142.87307 181.97553 C 141.23712 182.2482 139.60117 182.7935 137.96523 183.13433 L 137.89706 182.86167 C 139.46484 182.2482 140.96446 181.49838 142.66857 181.02123 C 144.30452 180.54408 146.21313 180.33959 147.9854 180.81674 C 148.39439 180.95307 148.9397 181.15756 149.07603 181.15756 C 149.3487 181.15756 149.68951 181.15756 150.03034 181.0894 C 150.37116 181.02123 150.71198 180.81674 150.84831 180.6804 L 151.32546 180.27142 C 151.52995 180.1351 151.73445 179.99876 151.93894 179.79427 C 152.34793 179.52161 152.82508 179.31712 153.3704 179.1808 C 153.91571 179.04446 154.46103 179.04446 155.00634 179.1808 C 156.09697 179.45345 156.84678 180.1351 157.52843 180.8849 C 157.86925 181.22572 158.07374 181.6347 158.3464 181.90737 C 158.61906 182.2482 158.82355 182.52085 159.0962 182.7935 C 159.64152 183.33882 160.255 183.88414 160.86849 184.36129 C 162.16361 185.3156 163.66323 185.92907 165.16285 186.47439 C 166.73063 186.95154 168.43474 187.36052 170.07069 187.974 C 171.63847 188.58749 173.13809 189.54179 174.22872 190.90508 Z" fill="black"/>
        </g>
        <g id="Graphic_148">
          <path d="M 99.92946 166.22954 C 95.15794 164.3891 92.90852 163.91195 87.79618 164.11644 C 80.91157 164.3891 66.46071 167.59283 62.37084 183.9523 C 57.59933 203.03835 76.27639 218.71618 83.56999 225.87345 C 90.11377 232.2809 104.6328 239.37 114.31216 244.9595 C 128.55853 253.13923 163.86772 264.7272 182.1358 266.77212" fill="#FFFFFF"/>
          <path d="M 99.92946 166.22954 C 95.15794 164.3891 92.90852 163.91195 87.79618 164.11644 C 80.91157 164.3891 66.46071 167.59283 62.37084 183.9523 C 57.59933 203.03835 76.27639 218.71618 83.56999 225.87345 C 90.11377 232.2809 104.6328 239.37 114.31216 244.9595 C 128.55853 253.13923 163.86772 264.7272 182.1358 266.77212" stroke="black" stroke-linecap="butt" stroke-linejoin="round" stroke-width="1.5"/>
        </g>
        <g id="Graphic_147">
          <path d="M 182.1358 266.70396 C 188.33876 269.56686 204.0166 274.06572 214.9229 277.5421" stroke="black" stroke-linecap="butt" stroke-linejoin="round" stroke-width="1.5"/>
        </g>
        <g id="Graphic_146">
          <path d="M 109.88147 159.75392 C 110.56311 160.84455 110.63128 162.34417 110.08596 163.57113 C 109.54065 164.86625 108.51818 165.82056 107.35938 166.5022 C 106.20059 167.18384 104.90546 167.52467 103.61034 167.661 C 102.31521 167.79732 100.88376 167.59283 99.58863 166.91119 L 100.40661 165.41157 C 101.29275 165.82056 102.38338 166.02505 103.47401 165.95688 C 104.56464 165.88872 105.65527 165.61606 106.67774 165.13891 C 107.63204 164.66176 108.51818 163.98011 109.0635 163.02581 C 109.60881 162.07151 109.74514 161.04904 109.8133 159.75392 Z" fill="black"/>
        </g>
        <g id="Graphic_145">
          <path d="M 79.07113 195.19944 C 79.20746 196.35823 79.88911 197.03988 80.57075 197.78969 C 81.252395 198.47133 82.07037 199.2893 82.75201 200.03911 C 83.43366 200.85709 84.1153 201.67506 84.72878 202.5612 C 85.34226 203.44734 85.88758 204.40164 86.36473 205.4241 C 85.41043 204.8788 84.52429 204.19715 83.70632 203.44734 C 82.88834 202.69753 82.13853 201.94772 81.45689 201.12975 C 80.77524 200.31177 80.0936 199.56196 79.48012 198.5395 C 79.20746 198.06235 78.9348 197.51703 78.79847 196.90355 C 78.73031 196.29007 78.79847 195.6766 79.07113 195.19944 Z" fill="black"/>
        </g>
        <g id="Graphic_144">
          <path d="M 99.45231 200.17544 C 100.06579 200.99342 100.6111 201.67506 101.15642 202.28854 C 101.7699 202.90202 102.38338 203.5155 102.99686 204.06082 C 103.6785 204.60613 104.36015 205.08328 105.04179 205.56044 C 105.7916 206.03759 106.54141 206.44657 107.42755 206.85556 C 106.47325 207.12822 105.45078 207.06005 104.49648 206.7874 C 103.54217 206.51474 102.65604 206.03759 101.83806 205.35594 C 101.08825 204.74246 100.40661 203.9245 99.99762 203.03835 C 99.6568 202.15221 99.38414 201.1979 99.45231 200.17544 Z" fill="black"/>
        </g>
        <g id="Graphic_143">
          <path d="M 100.54294 222.60155 C 103.883 225.73712 107.35938 228.73635 110.9721 231.46293 C 114.58482 234.25767 118.33386 236.77976 122.2874 238.96102 C 126.24094 241.14228 130.39897 242.98272 134.69333 244.20969 C 138.9877 245.43665 143.48655 246.18645 147.9854 246.18645 L 148.05357 246.18645 L 148.12173 246.18645 C 149.07603 246.32278 150.16666 246.39095 151.18913 246.39095 C 152.2116 246.39095 153.23407 246.39095 154.3247 246.32278 C 155.34716 246.25462 156.36963 246.18645 157.3921 245.98196 C 158.41456 245.77747 159.43703 245.57297 160.255 245.09582 L 160.32317 245.02766 L 160.39133 245.02766 C 161.48197 244.82317 162.5726 244.346 163.25424 243.45988 C 164.00405 242.57374 164.34487 241.41494 164.41304 240.25615 C 164.41304 241.41494 164.20854 242.6419 163.5269 243.66437 C 163.18608 244.14152 162.70893 244.61867 162.23177 244.9595 C 161.68646 245.30032 161.14114 245.5048 160.52766 245.7093 L 160.664 245.64114 C 159.70969 246.25462 158.68722 246.59544 157.5966 246.8681 C 156.57412 247.14076 155.4835 247.2771 154.46103 247.41341 C 153.3704 247.54974 152.34793 247.6179 151.2573 247.6179 C 150.16666 247.6179 149.1442 247.6179 147.9854 247.48158 L 148.12173 247.48158 C 143.48655 247.6179 138.7832 247.00443 134.35251 245.7093 C 129.85366 244.48234 125.62746 242.50557 121.60576 240.18798 C 117.58405 237.8704 113.83501 235.1438 110.35862 232.14458 C 106.7459 229.34983 103.47401 226.07794 100.54294 222.60155 Z" fill="black"/>
        </g>
        <g id="Graphic_142">
          <path d="M 150.57565 215.37612 L 157.93741 221.23826 C 160.39133 223.14687 162.91342 225.05547 165.4355 226.82775 C 168.02575 228.60002 170.68417 230.1678 173.41075 231.59926 C 176.20549 232.96255 179.00023 234.1895 181.99947 235.21198 C 183.49909 235.89362 185.13503 236.37077 186.77098 236.57527 C 187.58895 236.7116 188.40693 236.77976 189.29307 236.77976 C 190.11104 236.77976 190.99718 236.7116 191.61066 236.5071 L 191.74699 236.43894 L 191.81515 236.43894 C 192.97395 236.37077 194.2009 236.37077 195.3597 236.16628 C 196.5185 235.96179 197.6773 235.68913 198.76793 235.28014 C 199.85856 234.87115 200.9492 234.32584 201.83533 233.57603 C 202.72146 232.82622 203.53944 231.94008 204.08475 230.7813 C 203.74393 231.94008 203.06229 233.0307 202.17615 233.91685 C 201.29 234.803 200.19938 235.48463 199.10875 236.02995 C 198.01812 236.57527 196.79116 236.9161 195.5642 237.18875 C 194.33724 237.4614 193.11028 237.59773 191.88332 237.73406 L 192.0878 237.6659 C 191.06534 238.07488 190.1792 238.14305 189.29307 238.2112 C 188.40693 238.2112 187.45263 238.2112 186.56649 238.07488 C 184.79421 237.8704 183.02194 237.4614 181.31782 236.7116 L 181.38599 236.7116 C 178.38675 235.68913 175.45568 234.46217 172.59277 233.0307 C 169.72987 231.59926 167.07145 229.89515 164.4812 227.98654 C 161.95912 226.07794 159.5052 224.033 157.1876 221.9199 C 155.00634 219.8068 152.75691 217.62555 150.57565 215.37612 Z" fill="black"/>
        </g>
        <g id="Graphic_141">
          <path d="M 136.39744 208.76417 C 137.07909 208.83233 137.69257 209.03682 138.23788 209.17315 C 138.7832 209.37765 139.32852 209.51397 139.80567 209.71847 C 140.35098 209.92296 140.82813 210.12745 141.37345 210.4001 C 141.91877 210.67277 142.39592 210.94543 143.0094 211.35441 C 142.39592 211.62707 141.71427 211.69524 141.1008 211.69524 C 140.48731 211.69524 139.80567 211.5589 139.26035 211.28625 C 138.64687 211.08176 138.10156 210.74093 137.6244 210.26378 C 137.07909 209.92296 136.6701 209.4458 136.39744 208.76417 Z" fill="black"/>
        </g>
        <g id="Graphic_140">
          <path d="M 130.67163 221.7154 C 133.53454 224.442 136.60194 226.8959 139.87383 228.94085 C 143.14573 230.98578 146.62211 232.75806 150.23483 234.32584 C 152.0071 235.07565 153.84755 235.82546 155.61982 236.5071 C 157.46026 237.18875 159.3007 237.8704 161.14114 238.48387 C 162.02728 238.8247 162.98158 239.09735 163.93589 239.43817 C 164.14038 239.50634 164.41304 239.5745 164.61753 239.64267 C 164.82202 239.71083 165.02652 239.71083 165.23101 239.779 C 165.64 239.84716 166.11715 239.91532 166.5943 239.91532 C 167.5486 239.9835 168.5029 239.91532 169.38904 239.84716 C 170.34335 239.71083 171.22948 239.50634 172.04746 239.16552 L 172.18379 239.09735 L 172.32011 239.09735 C 173.13809 239.16552 173.95606 239.09735 174.77404 238.89286 C 175.592 238.75653 176.40998 238.55203 177.22796 238.27938 C 178.04593 238.00672 178.79574 237.6659 179.54555 237.2569 C 180.29536 236.84792 181.04517 236.37077 181.65865 235.82546 C 180.56801 237.18875 179.00023 238.14305 177.43245 238.89286 C 175.7965 239.5745 174.0924 240.11982 172.25195 240.18798 L 172.5246 240.11982 C 171.5703 240.66513 170.54784 240.86963 169.52537 241.07412 C 168.5029 241.2786 167.48044 241.34678 166.45797 241.34678 C 165.91266 241.34678 165.4355 241.34678 164.89019 241.2786 C 164.61753 241.21045 164.34487 241.21045 164.07221 241.14228 C 163.79956 241.07412 163.59506 241.00596 163.3224 240.9378 C 162.3681 240.66513 161.4138 240.39248 160.4595 240.05165 C 158.5509 239.43817 156.71045 238.8247 154.87001 238.07488 C 153.02957 237.39324 151.18913 236.57527 149.41686 235.7573 C 145.80414 234.12134 142.32775 232.14458 139.12402 229.82698 C 136.05662 227.64572 133.05739 224.85098 130.67163 221.7154 Z" fill="black"/>
        </g>
        <g id="Graphic_139">
          <path d="M 172.66094 214.01283 C 174.0924 215.0353 175.38752 216.12593 176.68264 217.1484 C 178.04593 218.17086 179.34105 219.2615 180.70434 220.28396 C 183.43092 222.3289 186.1575 224.30566 189.08857 225.9416 C 189.83838 226.3506 190.52003 226.82775 191.26983 227.16857 C 192.01964 227.57756 192.76945 227.91838 193.51926 228.2592 C 193.92825 228.39553 194.26907 228.60002 194.67806 228.80452 L 195.83685 229.2135 C 196.58666 229.48616 197.40464 229.75882 198.2226 229.89515 C 201.42634 230.5768 204.83456 230.30414 208.24279 229.75882 C 205.03906 230.98578 201.56267 231.7356 198.01812 231.25844 C 194.47356 230.71312 191.26983 229.14534 188.2706 227.44123 C 185.27136 225.66895 182.54478 223.55585 179.95453 221.30643 C 178.6594 220.2158 177.43245 218.98883 176.20549 217.76187 C 174.97853 216.60308 173.81973 215.30795 172.66094 214.01283 Z" fill="black"/>
        </g>
        <g id="Graphic_138">
          <path d="M 211.78734 224.64648 C 211.58284 223.55585 210.9012 222.73788 210.1514 222.1244 C 209.40158 221.44276 208.51544 220.89744 207.6293 220.35212 C 205.85703 219.19333 204.08475 217.8982 202.38064 216.67124 C 200.67653 215.37612 198.97242 214.081 197.33647 212.64954 C 195.70052 211.28625 194.06458 209.8548 192.63312 208.28701 C 194.54173 209.30948 196.38217 210.4001 198.15445 211.5589 C 199.92672 212.7177 201.699 214.01283 203.4031 215.2398 C 205.10722 216.53491 206.81133 217.83004 208.44728 219.2615 C 209.26525 219.94314 210.08323 220.69295 210.83304 221.57908 C 211.44652 222.39706 211.99183 223.55585 211.78734 224.64648 Z" fill="black"/>
        </g>
        <g id="Graphic_137">
          <path d="M 74.9131 127.64846 C 75.39025 128.5346 75.594745 129.55706 75.66291 130.57953 C 75.66291 131.602 75.52658 132.62446 75.18576 133.57877 C 75.04943 134.05592 74.77677 134.53307 74.57228 134.94205 C 74.36778 135.35104 74.16329 135.8282 73.89063 136.23718 C 73.617975 136.64617 73.34532 137.12332 73.004495 137.46414 C 72.8 137.66863 72.66367 137.87313 72.391015 138.00945 C 72.18652 138.14578 71.8457 138.28211 71.64121 138.07762 C 71.91386 138.07762 72.05019 137.87313 72.18652 137.7368 C 72.32285 137.5323 72.391015 137.32781 72.45918 137.12332 C 72.59551 136.71433 72.73184 136.23718 72.86817 135.76003 L 73.617975 133.03345 C 73.82247 132.14731 74.09513 131.26117 74.29962 130.37504 C 74.36778 129.55706 74.57228 128.60276 74.9131 127.64846 Z" fill="black"/>
        </g>
        <g id="Graphic_136">
          <path d="M 83.02467 128.73909 C 83.36549 129.2844 83.63815 129.82972 83.84264 130.30687 C 84.04714 130.85219 84.25163 131.32934 84.3198 131.94282 C 84.45612 132.48813 84.52429 133.10161 84.45612 133.7151 C 84.38796 134.32857 84.25163 134.94205 83.91081 135.55553 C 83.56999 135.01022 83.29733 134.4649 83.09284 133.98775 C 82.88834 133.44244 82.68385 132.96528 82.61568 132.3518 C 82.47936 131.80649 82.41119 131.19301 82.47936 130.57953 C 82.54752 129.96605 82.68385 129.2844 83.02467 128.73909 Z" fill="black"/>
        </g>
        <g id="Graphic_135">
          <path d="M 93.79466 127.85295 C 94.20364 128.60276 94.4763 129.2844 94.74896 129.96605 C 95.02162 130.6477 95.15794 131.3975 95.36244 132.07915 C 95.56693 132.76079 95.70326 133.5106 95.77143 134.19225 C 95.90775 134.94205 95.97592 135.69186 95.97592 136.50984 C 95.29427 136.03269 94.81712 135.35104 94.40814 134.6694 C 93.99915 133.98775 93.72649 133.23794 93.59016 132.48813 C 93.38567 131.73832 93.3175 130.98852 93.3175 130.17054 C 93.38567 129.42073 93.522 128.67092 93.79466 127.85295 Z" fill="black"/>
        </g>
        <g id="Graphic_134">
          <path d="M 102.51971 130.57953 C 103.40584 131.19301 104.08749 131.87465 104.76913 132.62446 C 105.45078 133.37427 105.9961 134.12408 106.54141 134.94205 C 107.08673 135.76003 107.63204 136.50984 108.17736 137.32781 C 108.72267 138.14578 109.26799 138.96376 109.74514 139.8499 C 108.72267 139.50907 107.9047 138.8956 107.08673 138.21395 C 106.33692 137.5323 105.65527 136.7825 105.04179 135.96452 C 104.42831 135.14655 103.95116 134.26041 103.54217 133.37427 C 103.13319 132.5563 102.79236 131.602 102.51971 130.57953 Z" fill="black"/>
        </g>
        <g id="Graphic_133">
          <path d="M 113.35786 133.03345 C 114.0395 133.03345 114.72115 133.3061 115.26646 133.7151 C 115.81178 134.12408 116.28893 134.60123 116.62975 135.14655 C 116.97057 135.69186 117.17507 136.3735 117.3114 137.05515 C 117.37956 137.7368 117.3114 138.41844 117.03874 139.03192 C 116.62975 138.4866 116.28893 137.94129 116.01627 137.46414 L 115.13013 136.03269 L 114.31216 134.60123 C 113.97134 134.12408 113.69868 133.64693 113.35786 133.03345 Z" fill="black"/>
        </g>
        <g id="Graphic_132">
          <path d="M 113.35786 133.03345 C 114.0395 133.03345 114.72115 133.3061 115.26646 133.7151 C 115.81178 134.12408 116.28893 134.60123 116.62975 135.14655 C 116.97057 135.69186 117.17507 136.3735 117.3114 137.05515 C 117.37956 137.7368 117.3114 138.41844 117.03874 139.03192 C 116.62975 138.4866 116.28893 137.94129 116.01627 137.46414 L 115.13013 136.03269 L 114.31216 134.60123 C 113.97134 134.12408 113.69868 133.64693 113.35786 133.03345 Z" fill="black"/>
        </g>
        <g id="Graphic_131">
          <path d="M 128.89935 118.03727 C 126.24094 117.0148 124.67316 117.49195 122.21924 115.17436 C 120.71962 113.74291 120.92411 109.44855 120.78778 107.40361 C 120.58329 105.42684 122.21924 102.15495 123.71885 100.85982 C 125.21847 99.5647 127.05891 98.81489 128.83119 97.92875 C 133.26188 95.74749 135.98846 93.70256 138.44238 89.47636 C 138.7832 88.93104 139.12402 87.36326 139.60117 87.02244 C 140.01016 86.74978 140.48731 86.61345 140.96446 86.47712 C 142.25959 86.1363 141.98693 85.31833 143.35022 85.38649 C 144.23636 85.45466 144.64534 85.45466 145.46332 85.11383 C 145.53148 85.11383 145.59965 85.04567 145.66781 85.04567 C 152.68875 86.06814 161.55013 89.13554 167.61677 91.04414 C 171.09315 92.13477 171.9793 92.81642 175.66017 94.24787 C 178.18226 95.27034 181.99947 97.58793 184.0444 99.42837 C 186.43016 101.54147 188.33876 103.72273 189.49756 106.6538 C 190.1792 108.42608 190.45186 109.7212 190.45186 112.24329 C 190.45186 112.58411 190.45186 112.9931 190.1792 113.12943 C 188.88408 111.56164 187.79345 110.94816 187.79345 110.94816 C 185.4077 109.03956 179.34105 106.31298 173.81973 105.35868 C 164.20854 103.65457 160.39133 104.67703 150.64382 103.65457 C 147.44009 103.31374 140.8963 102.6321 135.5113 103.7909 C 126.44543 105.6995 124.80949 110.74367 124.12784 111.49348 C 124.12784 111.49348 124.12784 111.56164 124.12784 111.49348 C 138.5787 104.81336 147.91724 109.10772 158.89172 109.85753 C 164.2767 110.26652 173.13809 110.81184 178.79574 111.62981 C 182.47662 112.17512 184.58972 112.72044 185.33953 113.19759 C 186.02117 113.60658 185.27136 113.53841 184.45339 113.87924 C 183.63542 114.22006 175.11486 114.69721 171.5703 115.03803 C 168.57107 115.31069 164.4812 115.44702 158.5509 115.58335 C 150.16666 115.856 135.30681 116.46949 129.30834 118.30993 C 129.03568 118.24176 128.96752 118.1736 128.89935 118.03727 Z" fill="#FFFFFF"/>
          <path d="M 128.89935 118.03727 C 126.24094 117.0148 124.67316 117.49195 122.21924 115.17436 C 120.71962 113.74291 120.92411 109.44855 120.78778 107.40361 C 120.58329 105.42684 122.21924 102.15495 123.71885 100.85982 C 125.21847 99.5647 127.05891 98.81489 128.83119 97.92875 C 133.26188 95.74749 135.98846 93.70256 138.44238 89.47636 C 138.7832 88.93104 139.12402 87.36326 139.60117 87.02244 C 140.01016 86.74978 140.48731 86.61345 140.96446 86.47712 C 142.25959 86.1363 141.98693 85.31833 143.35022 85.38649 C 144.23636 85.45466 144.64534 85.45466 145.46332 85.11383 C 145.53148 85.11383 145.59965 85.04567 145.66781 85.04567 C 152.68875 86.06814 161.55013 89.13554 167.61677 91.04414 C 171.09315 92.13477 171.9793 92.81642 175.66017 94.24787 C 178.18226 95.27034 181.99947 97.58793 184.0444 99.42837 C 186.43016 101.54147 188.33876 103.72273 189.49756 106.6538 C 190.1792 108.42608 190.45186 109.7212 190.45186 112.24329 C 190.45186 112.58411 190.45186 112.9931 190.1792 113.12943 C 188.88408 111.56164 187.79345 110.94816 187.79345 110.94816 C 185.4077 109.03956 179.34105 106.31298 173.81973 105.35868 C 164.20854 103.65457 160.39133 104.67703 150.64382 103.65457 C 147.44009 103.31374 140.8963 102.6321 135.5113 103.7909 C 126.44543 105.6995 124.80949 110.74367 124.12784 111.49348 C 124.12784 111.49348 124.12784 111.56164 124.12784 111.49348 C 138.5787 104.81336 147.91724 109.10772 158.89172 109.85753 C 164.2767 110.26652 173.13809 110.81184 178.79574 111.62981 C 182.47662 112.17512 184.58972 112.72044 185.33953 113.19759 C 186.02117 113.60658 185.27136 113.53841 184.45339 113.87924 C 183.63542 114.22006 175.11486 114.69721 171.5703 115.03803 C 168.57107 115.31069 164.4812 115.44702 158.5509 115.58335 C 150.16666 115.856 135.30681 116.46949 129.30834 118.30993 C 129.03568 118.24176 128.96752 118.1736 128.89935 118.03727 Z" stroke="black" stroke-linecap="butt" stroke-linejoin="round" stroke-width="1.5"/>
        </g>
        <g id="Graphic_130">
          <path d="M 138.51054 96.08831 C 138.23788 96.4973 138.03339 96.70179 137.8289 96.90629 C 137.6244 97.11078 137.41991 97.24711 137.14725 97.31527 C 136.94276 97.38344 136.6701 97.4516 136.39744 97.4516 C 136.12479 97.4516 135.78396 97.4516 135.30681 97.38344 C 135.30681 96.90629 135.44314 96.56546 135.64763 96.2928 C 135.85213 96.02015 136.12479 95.81565 136.46561 95.67932 C 136.80643 95.543 137.14725 95.47483 137.48808 95.543 C 137.8289 95.61116 138.16972 95.74749 138.51054 96.08831 Z" fill="black"/>
        </g>
        <g id="Graphic_129">
          <path d="M 134.14802 100.17818 C 133.94352 100.65533 133.67087 100.92799 133.3982 101.13248 C 133.12555 101.33697 132.85289 101.54147 132.58023 101.6778 C 132.30758 101.81413 131.96675 101.88229 131.62593 101.95046 C 131.28511 102.01862 130.87612 102.01862 130.39897 101.95046 C 130.46714 101.4733 130.67163 101.06432 130.87612 100.79166 C 131.14878 100.519 131.42144 100.24634 131.76226 100.11001 C 132.10308 99.97369 132.4439 99.83736 132.85289 99.83736 C 133.33004 99.83736 133.73903 99.90552 134.14802 100.17818 Z" fill="black"/>
        </g>
        <g id="Graphic_128">
          <path d="M 112.19906 86.40896 C 115.81178 85.99997 119.56082 86.54529 122.83272 88.11307 C 123.37803 90.22617 122.21924 92.61192 120.58329 94.11154 C 120.24247 94.45236 119.83348 94.79319 119.35633 94.99768 C 118.0612 95.67932 116.49342 95.61116 115.13013 94.99768 C 114.10767 94.58869 113.15336 93.83888 112.60805 92.88458 C 112.26722 92.33927 112.06273 91.72579 111.9264 91.11231 C 111.79007 90.56699 111.65374 90.02167 111.65374 89.47636 C 111.65374 88.52206 111.9264 87.2951 112.19906 86.40896 Z" fill="#FFFFFF"/>
          <path d="M 112.19906 86.40896 C 115.81178 85.99997 119.56082 86.54529 122.83272 88.11307 C 123.37803 90.22617 122.21924 92.61192 120.58329 94.11154 C 120.24247 94.45236 119.83348 94.79319 119.35633 94.99768 C 118.0612 95.67932 116.49342 95.61116 115.13013 94.99768 C 114.10767 94.58869 113.15336 93.83888 112.60805 92.88458 C 112.26722 92.33927 112.06273 91.72579 111.9264 91.11231 C 111.79007 90.56699 111.65374 90.02167 111.65374 89.47636 C 111.65374 88.52206 111.9264 87.2951 112.19906 86.40896 Z" stroke="black" stroke-linecap="butt" stroke-linejoin="round" stroke-width="1.5"/>
        </g>
        <g id="Graphic_127">
          <path d="M 110.35862 117.56012 C 110.29046 117.0148 110.35862 116.53765 110.63128 116.0605 C 110.90394 115.58335 111.31292 115.17436 111.85824 114.96987 C 112.40355 114.76537 113.0852 114.76537 113.56235 114.96987 C 114.10767 115.17436 114.44849 115.51518 114.72115 115.99233 L 114.58482 116.26499 C 114.0395 116.33316 113.63051 116.40132 113.35786 116.46949 C 113.01703 116.53765 112.81254 116.60581 112.53988 116.67398 C 112.26722 116.74214 111.99457 116.87847 111.72191 117.08297 C 111.24476 117.15113 110.90394 117.35562 110.35862 117.56012 Z" fill="black"/>
        </g>
        <g id="Graphic_126">
          <path d="M 83.84264 114.76537 C 83.97897 114.28822 84.3198 114.01556 84.72878 113.81107 C 85.0696 113.60658 85.47859 113.53841 85.88758 113.60658 C 86.29656 113.60658 86.63739 113.74291 86.97821 113.9474 C 87.31903 114.1519 87.65985 114.49272 87.72802 115.03803 L 87.52353 115.24253 C 87.11454 115.31069 86.84188 115.37885 86.56922 115.37885 C 86.29656 115.37885 86.02391 115.37885 85.75125 115.37885 C 85.47859 115.37885 85.20593 115.31069 84.93328 115.17436 C 84.66062 115.1062 84.3198 114.96987 83.84264 114.76537 Z" fill="black"/>
        </g>
        <g id="Graphic_125">
          <path d="M 120.3788 97.65609 C 119.90164 98.47407 119.08367 99.08755 118.19753 99.49653 C 117.3114 99.90552 116.28893 100.04185 115.26646 99.90552 C 114.31216 99.76919 113.35786 99.42837 112.53988 98.95122 C 111.72191 98.47407 111.04026 97.79242 110.49495 97.04261 L 110.63128 96.83812 C 111.51742 97.11078 112.33539 97.38344 113.0852 97.65609 C 113.90317 97.92875 114.65298 98.06508 115.40279 98.20141 C 116.1526 98.26957 116.90241 98.33774 117.72038 98.20141 C 118.60652 98.06508 119.4245 97.79242 120.3788 97.65609 Z" fill="black"/>
        </g>
        <g id="Graphic_124">
          <path d="M 102.86053 94.17971 C 102.24705 94.31604 101.7699 94.45236 101.36091 94.58869 L 100.06579 95.06584 C 99.58863 95.20217 99.11148 95.3385 98.42984 95.40667 C 98.08902 95.40667 97.7482 95.40667 97.40737 95.27034 C 97.06655 95.13401 96.79389 94.86135 96.65756 94.58869 L 96.79389 94.3842 C 97.40737 94.3842 97.68003 94.17971 98.08902 93.97521 C 98.498 93.77072 98.97515 93.56623 99.45231 93.4299 C 99.99762 93.29357 100.6111 93.2254 101.22458 93.29357 C 101.90623 93.29357 102.51971 93.63439 102.86053 94.17971 Z" fill="black"/>
        </g>
        <g id="Graphic_123">
          <path d="M 100.13395 90.63515 C 100.88376 90.3625 101.63357 90.29433 102.38338 90.29433 C 103.13319 90.29433 103.883 90.29433 104.56464 90.3625 C 105.24629 90.43066 105.85977 90.43066 106.54141 90.43066 C 107.22305 90.43066 107.9047 90.3625 108.65451 90.3625 L 108.79084 90.63515 C 108.24552 91.24863 107.56388 91.72579 106.7459 91.93028 C 105.9961 92.20294 105.10996 92.20294 104.36015 92.13477 C 103.54217 92.06661 102.86053 91.86211 102.17888 91.65762 C 101.49724 91.38496 100.8156 91.11231 100.13395 90.63515 Z" fill="black"/>
        </g>
        <g id="Graphic_122">
          <path d="M 117.51589 86.95427 C 116.08443 86.74978 117.17507 88.52206 116.97057 90.158 C 116.76608 91.79395 115.33463 93.4299 116.83424 93.56623 C 118.2657 93.70256 120.24247 91.58946 120.51512 89.54452 C 120.78778 87.56775 119.0155 87.15877 117.51589 86.95427 Z" fill="black"/>
        </g>
        <g id="Graphic_121">
          <path d="M 89.90928 117.49195 C 89.90928 117.0148 90.31827 116.74214 90.59093 116.60581 C 90.93175 116.46949 91.20441 116.40132 91.54523 116.40132 C 91.81789 116.40132 92.15871 116.46949 92.3632 116.67398 C 92.63586 116.81031 92.84035 117.08297 93.04485 117.42379 L 92.97668 117.69645 C 92.63586 117.9691 92.3632 118.03727 92.09054 118.10543 C 91.81789 118.1736 91.61339 118.1736 91.4089 118.1736 C 91.20441 118.1736 90.99991 118.10543 90.79542 117.9691 C 90.52276 117.83277 90.31827 117.69645 89.90928 117.49195 Z" fill="black"/>
        </g>
        <g id="Graphic_120">
          <path d="M 100.13395 121.85448 C 99.86129 121.51366 99.79313 121.241 99.79313 120.96834 C 99.79313 120.69568 99.79313 120.42302 99.92946 120.21853 C 100.06579 120.01404 100.20212 119.80954 100.47477 119.67321 C 100.67927 119.53689 101.02009 119.46872 101.42908 119.46872 L 101.63357 119.67321 C 101.70173 120.0822 101.7699 120.2867 101.70173 120.49119 C 101.70173 120.69568 101.63357 120.90018 101.49724 121.0365 C 101.42908 121.17283 101.22458 121.30916 101.08825 121.44549 C 100.8156 121.64998 100.6111 121.78631 100.13395 121.85448 Z" fill="black"/>
        </g>
        <g id="Graphic_119">
          <path d="M 105.51894 119.80954 C 105.24629 119.46872 105.17812 119.19606 105.17812 118.9234 C 105.17812 118.65075 105.17812 118.37809 105.31445 118.1736 C 105.45078 117.9691 105.58711 117.76461 105.85977 117.62828 C 106.06426 117.49195 106.40508 117.42379 106.81407 117.42379 L 107.01856 117.62828 C 107.08673 118.03727 107.15489 118.24176 107.08673 118.44625 C 107.08673 118.65075 107.01856 118.85524 106.88223 118.99157 C 106.81407 119.1279 106.60957 119.26423 106.47325 119.40056 C 106.20059 119.60505 105.9961 119.67321 105.51894 119.80954 Z" fill="black"/>
        </g>
        <g id="Graphic_118">
          <path d="M 93.65833 120.90018 C 93.93098 120.55935 94.13548 120.35486 94.27181 120.21853 C 94.40814 120.0822 94.54446 119.94587 94.81712 119.87771 C 95.22611 119.67321 96.11225 119.67321 96.5894 120.35486 L 96.5894 120.62752 C 96.31674 120.90018 96.18041 121.10467 95.97592 121.241 C 95.83959 121.37733 95.70326 121.44549 95.4306 121.58182 C 94.88529 121.64998 94.06731 121.64998 93.65833 120.90018 Z" fill="black"/>
        </g>
        <g id="Graphic_117">
          <path d="M 123.2417 87.36326 C 124.05968 87.84041 125.01398 88.31756 125.96828 88.72655 C 126.17277 88.79471 126.44543 88.93104 126.64993 88.99921 C 126.78625 89.06737 126.99075 88.99921 127.19524 88.93104 C 127.39973 88.86288 127.60423 88.79471 127.80872 88.65839 C 128.01322 88.52206 128.21771 88.38573 128.28587 88.11307 C 128.35404 88.38573 128.28587 88.72655 128.14954 88.93104 C 128.01322 89.2037 127.80872 89.40819 127.53606 89.61269 C 127.2634 89.74902 126.99075 89.95351 126.58176 89.88535 C 126.24094 89.88535 125.96828 89.81718 125.69562 89.81718 C 125.15031 89.74902 124.60499 89.61269 124.05968 89.47636 C 123.51436 89.34003 122.96904 89.13554 122.4919 88.93104 Z" fill="black"/>
        </g>
        <g id="Graphic_116">
          <path d="M 112.33539 87.2951 C 111.85824 87.36326 111.38109 87.36326 110.90394 87.36326 C 110.42678 87.36326 109.94963 87.36326 109.54065 87.36326 C 108.58634 87.2951 107.7002 87.36326 106.7459 87.15877 C 107.15489 86.81794 107.56388 86.61345 108.04103 86.47712 C 108.51818 86.34079 108.92717 86.20446 109.40432 86.06814 C 109.88147 85.93181 110.29046 85.86364 110.7676 85.79548 C 111.24476 85.72731 111.65374 85.59098 112.1309 85.52282 Z" fill="black"/>
        </g>
        <g id="Graphic_115">
          <path d="M 125.83195 84.0232 C 124.60499 84.15953 123.37803 83.95504 122.2874 83.75054 L 118.94734 83.0689 C 117.85671 82.86441 116.76608 82.72808 115.67545 82.72808 C 114.58482 82.72808 113.49418 82.79624 112.33539 83.13706 C 113.0852 82.18276 114.31216 81.56928 115.53912 81.36479 C 116.76608 81.09213 118.0612 81.16029 119.28816 81.36479 C 120.51512 81.56928 121.60576 81.97827 122.69639 82.45542 C 123.71885 82.86441 124.80949 83.40972 125.83195 84.0232 Z" fill="black"/>
        </g>
        <g id="Graphic_114">
          <path d="M 151.39363 92.74825 C 151.46179 92.40743 151.46179 92.06661 151.39363 91.86211 C 151.32546 91.65762 151.18913 91.58946 151.0528 91.52129 C 150.78015 91.38496 150.303 91.24863 149.75768 91.11231 C 149.21236 90.97598 148.73521 90.90781 148.12173 90.83965 C 147.57642 90.77148 147.0311 90.63515 146.28129 90.63515 C 146.62211 89.95351 147.37192 89.61269 147.9854 89.40819 C 148.66705 89.2037 149.3487 89.2037 150.0985 89.34003 C 150.78015 89.54452 151.52995 89.81718 152.07527 90.63515 C 152.34793 91.04414 152.4161 91.65762 152.14343 91.99844 C 152.0071 92.40743 151.73445 92.61192 151.39363 92.74825 Z" fill="black"/>
        </g>
      </g>
    </g>
  </g>
</svg>
