<?xml version="1.0" encoding="UTF-8" standalone="no"?>
<!DOCTYPE svg PUBLIC "-//W3C//DTD SVG 1.1//EN" "http://www.w3.org/Graphics/SVG/1.1/DTD/svg11.dtd">
<svg xmlns:xl="http://www.w3.org/1999/xlink" xmlns="http://www.w3.org/2000/svg" xmlns:dc="http://purl.org/dc/elements/1.1/" version="1.1" viewBox="45 76.5 202.5 324" width="202.5" height="324">
  <defs>
    <clipPath id="artboard_clip_path">
      <path d="M 45 76.5 L 247.5 76.5 L 247.5 350.65385 L 219.46154 400.5 L 45 400.5 Z"/>
    </clipPath>
  </defs>
  <g id="Cup_(9)" stroke="none" stroke-opacity="1" fill-opacity="1" stroke-dasharray="none" fill="none">
    <title>Cup (9)</title>
    <g id="Cup_(9)_Art" clip-path="url(#artboard_clip_path)">
      <title>Art</title>
      <g id="Group_79">
        <g id="Graphic_77">
          <path d="M 48.67191 83.02281 C 48.67191 83.02281 49.161425 80.73115 146.49476 80.73115 C 243.8281 80.73115 243.8281 83.02281 243.8281 83.02281 C 243.8281 83.02281 243.8281 234.26885 146.25 234.26885 C 48.67191 234.26885 48.67191 83.02281 48.67191 83.02281 Z" fill="#FFFFFF"/>
          <path d="M 48.67191 83.02281 C 48.67191 83.02281 49.161425 80.73115 146.49476 80.73115 C 243.8281 80.73115 243.8281 83.02281 243.8281 83.02281 C 243.8281 83.02281 243.8281 234.26885 146.25 234.26885 C 48.67191 234.26885 48.67191 83.02281 48.67191 83.02281 Z" stroke="black" stroke-linecap="round" stroke-linejoin="round" stroke-width="1.5"/>
        </g>
        <g id="Graphic_76">
          <path d="M 48.67191 83.02281 C 48.67191 83.02281 49.161425 85.76885 146.49476 85.76885 C 243.8281 85.76885 243.8281 83.02281 243.8281 83.02281 C 243.8281 83.02281 243.8281 234.26885 146.25 234.26885 C 48.67191 234.26885 48.67191 83.02281 48.67191 83.02281 Z" fill="#FFFFFF"/>
          <path d="M 48.67191 83.02281 C 48.67191 83.02281 49.161425 85.76885 146.49476 85.76885 C 243.8281 85.76885 243.8281 83.02281 243.8281 83.02281 C 243.8281 83.02281 243.8281 234.26885 146.25 234.26885 C 48.67191 234.26885 48.67191 83.02281 48.67191 83.02281 Z" stroke="black" stroke-linecap="round" stroke-linejoin="round" stroke-width="1.5"/>
        </g>
        <g id="Graphic_75">
          <path d="M 146.21958 396.26885 C 211.81215 396.26885 216.5075 373.7039 216.5075 373.7039 C 216.5075 373.7039 217.74666 368.7139 215.46946 367.1999 C 215.46946 367.1999 187.48857 355.5065 174.07159 340.2599 C 160.6546 325.01333 166.76437 265.38832 162.58504 243.19322 C 169.05493 238.15604 182.66649 225.0028 187.47667 223.0889 C 187.47667 223.0889 177.66143 227.26885 146.16143 227.26885 C 114.66143 227.26885 105.08838 223.0889 105.08838 223.0889 C 109.89856 225.0028 123.295 238.15604 129.76489 243.19322 C 125.58556 265.38832 131.69533 325.01333 118.27834 340.2599 C 104.86135 355.5065 76.88047 367.1999 76.88047 367.1999 C 74.60327 368.7139 75.84243 373.7039 75.84243 373.7039 C 75.84243 373.7039 80.53778 396.26885 146.13035 396.26885 Z" fill="#FFFFFF"/>
          <path d="M 146.21958 396.26885 C 211.81215 396.26885 216.5075 373.7039 216.5075 373.7039 C 216.5075 373.7039 217.74666 368.7139 215.46946 367.1999 C 215.46946 367.1999 187.48857 355.5065 174.07159 340.2599 C 160.6546 325.01333 166.76437 265.38832 162.58504 243.19322 C 169.05493 238.15604 182.66649 225.0028 187.47667 223.0889 C 187.47667 223.0889 177.66143 227.26885 146.16143 227.26885 C 114.66143 227.26885 105.08838 223.0889 105.08838 223.0889 C 109.89856 225.0028 123.295 238.15604 129.76489 243.19322 C 125.58556 265.38832 131.69533 325.01333 118.27834 340.2599 C 104.86135 355.5065 76.88047 367.1999 76.88047 367.1999 C 74.60327 368.7139 75.84243 373.7039 75.84243 373.7039 C 75.84243 373.7039 80.53778 396.26885 146.13035 396.26885 Z" stroke="black" stroke-linecap="round" stroke-linejoin="round" stroke-width="1.5"/>
        </g>
        <g id="Graphic_74">
          <path d="M 61.39613 161.28265 C 61.48914 161.29219 61.67101 161.31059 61.93825 161.33727 C 62.38323 161.3817 62.90664 161.43321 63.50503 161.49124 C 65.214196 161.65697 67.18161 161.84162 69.379515 162.04047 C 75.65858 162.60853 82.52649 163.17657 89.7613 163.70674 C 102.5368 164.64295 115.04953 165.35795 126.78333 165.76358 C 133.75523 166.0046 140.3232 166.13095 146.4194 166.13095 C 152.3774 166.13095 158.77815 166.01026 165.55933 165.77973 C 177.39695 165.37732 190.02287 164.65585 202.90842 163.70672 C 210.10622 163.17654 216.93448 162.6085 223.1739 162.04042 C 225.35792 161.84158 227.31245 161.65692 229.01006 161.49119 C 229.6044 161.43316 230.12423 161.38164 230.56612 161.33721 C 230.8315 161.31053 231.0121 161.29213 231.10446 161.2826 C 231.55118 161.23648 231.87593 160.83696 231.82982 160.39024 C 231.7837 159.94353 231.3842 159.61877 230.93747 159.66489 C 230.84653 159.67427 230.66737 159.69253 230.40343 159.71907 C 229.96309 159.76334 229.4448 159.8147 228.85204 159.87258 C 227.15788 160.03798 225.20686 160.2223 223.02643 160.42082 C 216.79594 160.98808 209.97692 161.55536 202.78895 162.08481 C 189.92335 163.03248 177.31821 163.75276 165.50408 164.15437 C 158.74043 164.3843 152.35786 164.50464 146.4194 164.50464 C 140.3431 164.50464 133.79362 164.37866 126.83952 164.13825 C 115.12862 163.7334 102.63618 163.01957 89.88015 162.0848 C 82.65507 161.55533 75.79629 160.98804 69.52605 160.42078 C 67.331695 160.22226 65.36775 160.03793 63.66199 159.87253 C 63.06515 159.81465 62.54327 159.76329 62.09981 159.71901 C 61.834 159.69247 61.65355 159.67422 61.56194 159.66483 C 61.115186 159.61904 60.715906 159.94409 60.67012 160.39084 C 60.62433 160.83759 60.94938 161.23687 61.39613 161.28265 Z" fill="#FFFFFF"/>
          <path d="M 61.39613 161.28265 C 61.48914 161.29219 61.67101 161.31059 61.93825 161.33727 C 62.38323 161.3817 62.90664 161.43321 63.50503 161.49124 C 65.214196 161.65697 67.18161 161.84162 69.379515 162.04047 C 75.65858 162.60853 82.52649 163.17657 89.7613 163.70674 C 102.5368 164.64295 115.04953 165.35795 126.78333 165.76358 C 133.75523 166.0046 140.3232 166.13095 146.4194 166.13095 C 152.3774 166.13095 158.77815 166.01026 165.55933 165.77973 C 177.39695 165.37732 190.02287 164.65585 202.90842 163.70672 C 210.10622 163.17654 216.93448 162.6085 223.1739 162.04042 C 225.35792 161.84158 227.31245 161.65692 229.01006 161.49119 C 229.6044 161.43316 230.12423 161.38164 230.56612 161.33721 C 230.8315 161.31053 231.0121 161.29213 231.10446 161.2826 C 231.55118 161.23648 231.87593 160.83696 231.82982 160.39024 C 231.7837 159.94353 231.3842 159.61877 230.93747 159.66489 C 230.84653 159.67427 230.66737 159.69253 230.40343 159.71907 C 229.96309 159.76334 229.4448 159.8147 228.85204 159.87258 C 227.15788 160.03798 225.20686 160.2223 223.02643 160.42082 C 216.79594 160.98808 209.97692 161.55536 202.78895 162.08481 C 189.92335 163.03248 177.31821 163.75276 165.50408 164.15437 C 158.74043 164.3843 152.35786 164.50464 146.4194 164.50464 C 140.3431 164.50464 133.79362 164.37866 126.83952 164.13825 C 115.12862 163.7334 102.63618 163.01957 89.88015 162.0848 C 82.65507 161.55533 75.79629 160.98804 69.52605 160.42078 C 67.331695 160.22226 65.36775 160.03793 63.66199 159.87253 C 63.06515 159.81465 62.54327 159.76329 62.09981 159.71901 C 61.834 159.69247 61.65355 159.67422 61.56194 159.66483 C 61.115186 159.61904 60.715906 159.94409 60.67012 160.39084 C 60.62433 160.83759 60.94938 161.23687 61.39613 161.28265 Z" stroke="black" stroke-linecap="round" stroke-linejoin="round" stroke-width=".75"/>
        </g>
        <g id="Graphic_73">
          <path d="M 234.13151 149.88937 C 234.03663 149.89883 233.84977 149.91722 233.57454 149.94396 C 233.1154 149.98855 232.57504 150.0403 231.9571 150.09859 C 230.191 150.2652 228.1576 150.45086 225.88558 150.65082 C 219.39345 151.22218 212.2916 151.79357 204.81 152.32687 C 191.58377 153.26964 178.63028 153.98927 166.4873 154.39675 C 159.30125 154.6379 152.53201 154.76426 146.25 154.76426 C 139.96799 154.76426 133.19875 154.6379 126.0127 154.39675 C 113.86972 153.98927 100.91623 153.26964 87.69 152.32687 C 80.20839 151.79357 73.10655 151.22218 66.61442 150.65082 C 64.3424 150.45086 62.30899 150.2652 60.54291 150.09859 C 59.92496 150.0403 59.38461 149.98855 58.92546 149.94396 C 58.650226 149.91722 58.46337 149.89883 58.368485 149.88937 C 57.92161 149.84481 57.523225 150.17095 57.47867 150.61783 C 57.43411 151.0647 57.76025 151.46309 58.20713 151.50764 C 58.30338 151.51724 58.491614 151.53577 58.76824 151.56264 C 59.22887 151.60738 59.77071 151.65927 60.39017 151.7177 C 62.159566 151.88462 64.19636 152.0706 66.47184 152.27085 C 72.97256 152.84298 80.0833 153.41508 87.57437 153.94905 C 100.81958 154.89318 113.79285 155.6139 125.95816 156.02214 C 133.16148 156.26386 139.94868 156.39056 146.25 156.39056 C 152.55132 156.39056 159.33852 156.26386 166.54184 156.02214 C 178.70715 155.6139 191.68042 154.89318 204.92563 153.94905 C 212.4167 153.41508 219.52744 152.84298 226.02816 152.27085 C 228.30364 152.0706 230.34043 151.88462 232.10983 151.7177 C 232.7293 151.65927 233.27113 151.60738 233.73176 151.56264 C 234.0084 151.53577 234.19662 151.51724 234.29287 151.50764 C 234.73975 151.46309 235.0659 151.0647 235.02133 150.61783 C 234.97677 150.17095 234.5784 149.84481 234.13151 149.88937 Z" fill="#FFFFFF"/>
          <path d="M 234.13151 149.88937 C 234.03663 149.89883 233.84977 149.91722 233.57454 149.94396 C 233.1154 149.98855 232.57504 150.0403 231.9571 150.09859 C 230.191 150.2652 228.1576 150.45086 225.88558 150.65082 C 219.39345 151.22218 212.2916 151.79357 204.81 152.32687 C 191.58377 153.26964 178.63028 153.98927 166.4873 154.39675 C 159.30125 154.6379 152.53201 154.76426 146.25 154.76426 C 139.96799 154.76426 133.19875 154.6379 126.0127 154.39675 C 113.86972 153.98927 100.91623 153.26964 87.69 152.32687 C 80.20839 151.79357 73.10655 151.22218 66.61442 150.65082 C 64.3424 150.45086 62.30899 150.2652 60.54291 150.09859 C 59.92496 150.0403 59.38461 149.98855 58.92546 149.94396 C 58.650226 149.91722 58.46337 149.89883 58.368485 149.88937 C 57.92161 149.84481 57.523225 150.17095 57.47867 150.61783 C 57.43411 151.0647 57.76025 151.46309 58.20713 151.50764 C 58.30338 151.51724 58.491614 151.53577 58.76824 151.56264 C 59.22887 151.60738 59.77071 151.65927 60.39017 151.7177 C 62.159566 151.88462 64.19636 152.0706 66.47184 152.27085 C 72.97256 152.84298 80.0833 153.41508 87.57437 153.94905 C 100.81958 154.89318 113.79285 155.6139 125.95816 156.02214 C 133.16148 156.26386 139.94868 156.39056 146.25 156.39056 C 152.55132 156.39056 159.33852 156.26386 166.54184 156.02214 C 178.70715 155.6139 191.68042 154.89318 204.92563 153.94905 C 212.4167 153.41508 219.52744 152.84298 226.02816 152.27085 C 228.30364 152.0706 230.34043 151.88462 232.10983 151.7177 C 232.7293 151.65927 233.27113 151.60738 233.73176 151.56264 C 234.0084 151.53577 234.19662 151.51724 234.29287 151.50764 C 234.73975 151.46309 235.0659 151.0647 235.02133 150.61783 C 234.97677 150.17095 234.5784 149.84481 234.13151 149.88937 Z" stroke="black" stroke-linecap="round" stroke-linejoin="round" stroke-width=".75"/>
        </g>
        <g id="Graphic_72">
          <path d="M 236.73122 139.91403 C 236.63396 139.92407 236.4424 139.94358 236.1602 139.97193 C 235.68945 140.01923 235.1354 140.07412 234.50172 140.13595 C 232.69067 140.31267 230.6051 140.5096 228.27436 140.7217 C 221.6144 141.32775 214.32567 141.93383 206.64297 142.4995 C 192.90672 143.51088 179.44898 144.27988 166.83541 144.70926 C 159.59277 144.9558 152.7592 145.08486 146.40247 145.08486 C 139.92165 145.08486 132.93785 144.95073 125.5238 144.69475 C 113.00316 144.26247 99.64686 143.49926 86.00924 142.49948 C 78.293145 141.9338 70.96864 141.32772 64.272896 140.72166 C 61.92962 140.50956 59.83242 140.31263 58.01094 140.1359 C 57.3736 140.07407 56.8163 140.01919 56.34274 139.97188 C 56.05887 139.94353 55.86615 139.92402 55.768284 139.91398 C 55.321536 139.86817 54.92224 140.19319 54.876424 140.63994 C 54.83061 141.08669 55.155635 141.48598 55.60238 141.5318 C 55.70165 141.54198 55.89579 141.56163 56.181095 141.59013 C 56.65617 141.63759 57.215004 141.69262 57.853894 141.7546 C 59.678785 141.93166 61.77946 142.12892 64.12629 142.34134 C 70.83086 142.9482 78.16451 143.55504 85.89034 144.12142 C 99.54746 145.12264 112.92409 145.887 125.46768 146.32008 C 132.89952 146.57667 139.90178 146.71116 146.40247 146.71116 C 152.77876 146.71116 159.63055 146.58176 166.89074 146.33462 C 179.52775 145.90444 193.00624 145.13425 206.76239 144.1214 C 214.4549 143.55502 221.75287 142.94817 228.42174 142.3413 C 230.7561 142.12888 232.84517 141.93162 234.65966 141.75456 C 235.2949 141.69258 235.8505 141.63754 236.3228 141.59008 C 236.60644 141.56158 236.79943 141.54193 236.89812 141.53175 C 237.34484 141.48566 237.6696 141.08616 237.62352 140.63944 C 237.57744 140.19272 237.17794 139.86794 236.73122 139.91403 Z" fill="#FFFFFF"/>
          <path d="M 236.73122 139.91403 C 236.63396 139.92407 236.4424 139.94358 236.1602 139.97193 C 235.68945 140.01923 235.1354 140.07412 234.50172 140.13595 C 232.69067 140.31267 230.6051 140.5096 228.27436 140.7217 C 221.6144 141.32775 214.32567 141.93383 206.64297 142.4995 C 192.90672 143.51088 179.44898 144.27988 166.83541 144.70926 C 159.59277 144.9558 152.7592 145.08486 146.40247 145.08486 C 139.92165 145.08486 132.93785 144.95073 125.5238 144.69475 C 113.00316 144.26247 99.64686 143.49926 86.00924 142.49948 C 78.293145 141.9338 70.96864 141.32772 64.272896 140.72166 C 61.92962 140.50956 59.83242 140.31263 58.01094 140.1359 C 57.3736 140.07407 56.8163 140.01919 56.34274 139.97188 C 56.05887 139.94353 55.86615 139.92402 55.768284 139.91398 C 55.321536 139.86817 54.92224 140.19319 54.876424 140.63994 C 54.83061 141.08669 55.155635 141.48598 55.60238 141.5318 C 55.70165 141.54198 55.89579 141.56163 56.181095 141.59013 C 56.65617 141.63759 57.215004 141.69262 57.853894 141.7546 C 59.678785 141.93166 61.77946 142.12892 64.12629 142.34134 C 70.83086 142.9482 78.16451 143.55504 85.89034 144.12142 C 99.54746 145.12264 112.92409 145.887 125.46768 146.32008 C 132.89952 146.57667 139.90178 146.71116 146.40247 146.71116 C 152.77876 146.71116 159.63055 146.58176 166.89074 146.33462 C 179.52775 145.90444 193.00624 145.13425 206.76239 144.1214 C 214.4549 143.55502 221.75287 142.94817 228.42174 142.3413 C 230.7561 142.12888 232.84517 141.93162 234.65966 141.75456 C 235.2949 141.69258 235.8505 141.63754 236.3228 141.59008 C 236.60644 141.56158 236.79943 141.54193 236.89812 141.53175 C 237.34484 141.48566 237.6696 141.08616 237.62352 140.63944 C 237.57744 140.19272 237.17794 139.86794 236.73122 139.91403 Z" stroke="black" stroke-linecap="round" stroke-linejoin="round" stroke-width=".75"/>
        </g>
        <g id="Line_71">
          <path d="M 79.60552 369.63935 C 79.60552 369.63935 86.61894 388.67944 146.52105 388.67944 C 206.42316 388.67944 213.59144 369.63935 213.59144 369.63935" stroke="black" stroke-linecap="round" stroke-linejoin="round" stroke-width=".75"/>
        </g>
      </g>
    </g>
  </g>
</svg>
