<?xml version="1.0" encoding="UTF-8" standalone="no"?>
<!DOCTYPE svg PUBLIC "-//W3C//DTD SVG 1.1//EN" "http://www.w3.org/Graphics/SVG/1.1/DTD/svg11.dtd">
<svg xmlns:xl="http://www.w3.org/1999/xlink" xmlns="http://www.w3.org/2000/svg" xmlns:dc="http://purl.org/dc/elements/1.1/" version="1.1" viewBox="36 72 292.5 333" width="292.5" height="333">
  <defs>
    <clipPath id="artboard_clip_path">
      <path d="M 36 72 L 328.5 72 L 328.5 353.76923 L 288 405 L 36 405 Z"/>
    </clipPath>
    <clipPath id="outer_stroke_clip_path">
      <path d="M 36 72 L 328.5 72 L 328.5 405 L 36 405 Z M 146.77816 110.84904 L 146.77816 110.84904 C 144.93595 108.25199 148.66466 106.90544 148.66466 106.90544 C 157.23193 104.91149 156.12727 104.22077 163.81876 124.45612 C 168.39611 134.5147 171.4156 139.99789 171.71573 139.25502 C 172.0909 138.32644 170.2251 132.66128 166.5726 124.05652 C 162.84506 115.63747 161.1809 110.29408 161.72777 107.51059 C 162.16527 105.2838 163.58592 105.78329 166.82187 105.79451 C 171.5079 105.95953 172.84356 106.93124 175.87136 113.33932 C 177.7173 117.32561 179.85218 123.80498 180.43376 127.7125 C 181.2761 131.50934 182.1155 136.87811 182.41565 136.13524 C 183.54116 133.3495 181.76368 119.60854 179.2893 114.50422 C 177.88607 111.56093 176.41416 107.29104 177.81943 106.45168 C 181.85957 104.03851 186.99653 103.39349 187.36508 113.23037 C 187.78437 126.05629 190.03227 119.30592 190.19769 111.5664 C 190.23462 106.0248 189.92372 104.75872 192.89892 104.88062 C 199.11007 105.01373 199.66348 106.31749 196.69775 114.1926 C 194.89693 118.6498 193.42068 126.04653 193.25566 130.73257 C 192.90492 135.34356 193.30826 137.01875 193.8016 134.19362 C 199.61661 109.10697 202.6499 103.20344 208.5928 105.60453 C 211.56427 106.80508 211.4855 108.06944 207.29106 116.31226 C 204.55792 121.47292 201.7779 129.42307 201.24146 133.95904 C 200.24732 141.7666 200.32235 141.58088 203.85644 130.69492 C 209.23447 113.64093 214.46444 107.11269 220.7075 108.77092 C 225.5755 110.08963 225.68618 110.35038 221.23847 116.54657 C 215.66898 124.44986 208.27998 142.20359 210.32286 143.02896 C 211.06572 143.3291 214.28472 137.5006 217.36112 129.88624 C 224.48564 113.32184 229.41172 108.61512 233.59695 113.76257 C 236.968 117.71695 237.1931 117.1598 222.98895 137.3448 C 212.89672 151.62999 208.0195 163.70155 206.44203 178.83455 C 204.60382 194.07824 209.98412 208.56585 217.56657 210.11713 C 221.13457 210.9106 222.50588 212.32877 222.41963 215.75044 C 222.44406 219.43285 222.96556 219.2115 225.29162 213.45429 C 228.9289 204.98637 232.54003 204.069 232.43883 211.80527 C 232.3451 217.38424 232.60585 217.27356 234.52857 209.84117 C 235.9223 204.78744 238.05518 201.1125 240.70207 199.3735 C 244.65272 197.08109 244.83843 197.15612 244.66967 202.9208 C 244.58342 206.34247 244.16138 210.06053 243.5611 211.54626 C 242.96084 213.032 243.2141 215.0786 244.214 216.34671 C 245.32455 217.87557 245.73536 217.39345 245.96794 214.679 C 245.97542 212.5217 246.59065 206.72138 247.09146 201.73895 C 248.19628 194.19214 249.13234 192.41 252.33638 190.8961 C 255.91185 189.53228 256.2439 190.31453 255.02092 199.75789 C 254.21997 205.48318 254.16563 210.42996 254.72278 210.65507 C 255.46564 210.9552 256.67367 205.82644 257.58903 199.28325 C 258.46875 192.2936 260.5378 185.56842 262.55625 182.71138 C 267.00396 176.51519 267.37166 177.7439 265.8655 193.76984 C 264.13423 210.35293 265.55614 207.90297 268.33415 189.7985 C 270.16114 177.79077 275.6743 164.67995 277.3345 168.5912 C 277.66656 169.37346 276.92943 178.14899 275.66707 188.22453 C 272.8741 210.6436 274.55677 208.08295 278.2464 184.51394 C 281.17448 166.03804 285.684 152.73777 290.00982 149.51677 C 291.7244 148.48125 291.0229 157.70324 288.0198 176.36486 C 285.77078 192.09066 284.09012 204.80561 284.79733 204.65928 C 285.31884 204.43792 288.27134 189.64444 291.16003 171.80072 C 296.1402 140.75994 302.27605 119.69149 305.80466 121.11714 C 307.2904 121.71742 298.16864 188.67447 295.9176 194.24596 C 295.39238 195.54597 295.68504 196.9604 296.4279 197.26054 C 297.3565 197.63571 301.29565 177.19197 305.3642 151.61573 C 310.1624 119.42126 313.944 101.50625 317.54565 92.59187 C 320.39695 85.53466 322.94438 80.29895 323.27642 81.08121 C 323.60847 81.86346 321.97467 91.78893 319.7406 103.20013 C 313.45667 134.79433 307.1992 180.22525 305.1304 208.3377 C 303.16855 237.78955 300.05544 260.624 290.1978 282.34906 C 290.1978 282.34906 285.7248 294.27923 282.7362 295.89266 C 279.74757 297.5061 272.54684 294.3318 272.54684 294.3318 C 263.78253 290.35873 253.51554 279.94566 251.04862 272.68403 C 247.8857 262.3328 233.40728 256.38926 219.68123 256.67644 C 210.79128 256.7572 206.72692 257.05098 201.81338 269.42617 C 198.60756 277.42625 195.7037 282.94407 195.47312 295.81284 C 194.8731 318.68584 197.0324 328.84764 204.88135 339.3639 C 209.5093 345.55436 209.89223 349.33093 210.3052 352.32444 C 210.65465 354.8574 209.39068 361.41958 207.52515 364.9856 C 205.10681 369.74804 203.8298 374.8922 195.43834 377.06884 C 187.69103 379.0047 182.20206 379.4562 175.30613 372.9975 C 171.82064 369.861 171.57016 367.81373 169.40764 364.32028 C 166.6741 359.9823 167.95243 352.78566 169.68913 348.19364 C 170.21642 346.6454 169.70247 347.83408 172.26859 337.20513 C 175.7032 322.82246 175.65982 303.14602 171.91907 287.8086 C 169.83106 278.53975 158.3184 262.65466 150.74715 257.86742 C 143.2866 253.34094 126.9174 254.28847 116.81942 259.498 C 109.92549 263.19364 107.4531 268.24362 106.25455 281.3694 C 105.75 287.43048 93.26215 295.34698 87.20481 293.7638 C 76.54021 290.7512 63.472254 262.13994 55.49541 224.13593 C 50.263187 199.12257 43.120415 102.91086 46.435137 101.65771 C 50.68218 99.70108 54.22974 117.12076 57.11347 154.36322 C 58.96716 177.57949 60.76076 196.66688 61.282264 196.44551 C 61.803765 196.22415 61.15263 180.19073 60.06624 160.95701 C 58.7191 141.83398 58.25368 125.8756 58.77518 125.65423 C 60.41472 124.80443 65.04267 130.99488 67.10624 136.58132 C 68.13803 139.37454 70.38558 156.26898 72.07224 174.01697 C 73.57318 191.68992 75.31045 205.56978 75.610585 204.82691 C 75.91072 204.08405 75.21272 190.84012 74.0007 175.66025 C 72.86371 160.29466 72.64782 147.46155 73.50511 146.94378 C 74.47307 146.68677 77.80849 150.19469 80.76873 154.63119 C 85.46798 161.71457 86.7493 167.63306 88.16773 187.64903 C 89.89578 214.91915 92.08125 217.5304 90.68525 191.04253 C 90.38311 181.63108 90.44867 173.44835 91.19527 172.66983 C 91.86684 172.07704 94.6132 173.83473 97.4665 176.93183 C 101.209 181.03628 103.1225 186.99415 104.68153 198.64168 C 105.73027 207.27461 106.79022 212.6716 106.87273 210.32858 C 106.76953 207.91053 107.01333 201.96014 107.06767 197.01336 C 107.32642 186.74836 108.74459 185.37705 114.0835 190.34253 C 116.49407 192.39662 118.29689 198.09374 118.49582 205.08714 C 119.23321 217.6989 120.93657 219.89932 120.86701 207.77342 C 120.88196 203.45882 121.67543 199.89083 122.90415 199.52313 C 126.55092 199.05223 133.18236 206.70025 133.31374 211.72207 C 133.31374 211.72207 132.81338 217.227 133.47991 217.15836 C 134.14644 217.08972 134.98518 212.39737 134.98518 212.39737 C 136.74662 208.57237 144.17462 208.5781 142.5989 212.47815 C 141.99862 213.96388 144.22555 219.12185 144.05711 213.47028 C 144.06484 209.80303 149.6792 211.85318 152.84385 210.97146 C 152.84385 210.97146 155.23904 210.91044 157.54747 208.75318 C 159.8559 206.59592 160.42605 191.13547 160.42605 191.13547 C 162.77254 168.75205 158.82912 147.49989 149.5413 133.59386 C 140.77125 120.54512 138.23469 113.26891 142.16205 110.50832 C 143.80187 108.79293 145.92358 114.54134 146.9617 115.91717 C 148.47935 118.04256 152.3607 125.01153 155.3885 131.41961 C 158.4163 137.82769 161.3015 142.4499 161.75171 141.3356 C 163.11362 137.96476 148.62036 113.4461 146.77816 110.84904 Z"/>
    </clipPath>
    <clipPath id="outer_stroke_clip_path_2">
      <path d="M 36 72 L 328.5 72 L 328.5 405 L 36 405 Z M 193.19796 391.68973 L 193.19198 391.52247 C 194.6237 385.2812 195.97079 381.58475 195.97079 381.58475 C 195.97079 381.58475 190.9597 382.68174 185.63477 383.00617 C 181.28168 383.0573 178.66805 380.67334 178.66805 380.67334 C 178.66805 380.67334 181.66234 386.7369 184.06804 393.837 C 186.99439 402.10766 191.0032 401.47458 193.19796 391.68973 Z"/>
    </clipPath>
  </defs>
  <g id="Dove_Migrant_to_Base" stroke-opacity="1" stroke="none" stroke-dasharray="none" fill="none" fill-opacity="1">
    <title>Dove Migrant to Base</title>
    <g id="Dove_Migrant_to_Base_Art" clip-path="url(#artboard_clip_path)">
      <title>Art</title>
      <g id="Group_59">
        <g id="Graphic_58">
          <path d="M 318.65394 75.57973 C 316.7499 77.61887 313.417 93.44787 304.35657 110.52629 C 284.77437 147.76526 277.30793 160.86995 255.77458 181.55027 C 239.24236 197.33815 223.50002 204.52121 218.29996 202.42026 C 211.9856 199.8691 210.07147 180.65123 216.61814 159.10066 C 219.66637 148.88253 224.23462 142.81682 230.99344 135.17802 C 243.01787 121.45745 244.2972 117.22162 237.99406 111.43451 C 235.1764 108.78388 230.53724 105.82937 227.9372 104.77889 C 215.67994 99.82663 148.98937 99.66987 140.04508 104.69742 C 136.766 106.39704 136.0907 108.06849 135.58241 115.20822 C 134.99536 123.61231 138.31582 131.43483 147.53233 144.44792 C 153.27084 152.16723 157.0323 164.70144 155.34042 180.65235 C 154.76084 186.89914 153.9676 193.40228 153.746 197.5099 C 153.30053 204.29902 151.07168 204.00532 148.24281 204.59064 C 139.83124 206.16088 111.53407 185.42391 98.27119 170.12788 C 87.67588 157.85392 58.965774 115.05792 54.80298 103.43857 C 46.181 79.86408 40.663576 87.78704 40.262495 117.65344 C 39.880107 142.1266 41.754215 156.5371 42.44648 160.70537 C 42.774785 162.56627 43.60957 177.42644 45.303707 193.01713 C 48.64886 225.90934 51.73776 242.42508 63.68768 271.6648 C 72.98123 294.64648 80.10303 299.1321 90.37954 299.2388 C 100.80853 299.4116 108.36799 295.36564 112.33929 278.67788 C 115.59297 264.72874 121.5942 264.09652 129.04154 261.70464 C 138.64992 258.2416 146.07268 260.48354 156.33086 272.49836 C 162.92761 280.30033 166.12995 283.95743 168.40367 293.30132 C 171.40904 306.1813 170.59888 325.29686 166.30324 341.27593 C 161.97194 356.80854 161.50792 361.6602 169.94592 373.9267 C 174.01673 379.89206 175.4409 380.6745 175.4409 380.6745 C 175.4409 380.6745 178.19838 389.16982 178.96437 390.67793 C 179.73037 392.18604 180.54583 395.85355 182.47055 398.5755 C 187.24483 405.47315 191.93834 403.48088 196.29032 392.70933 C 198.16618 388.06643 200.36388 380.23945 200.36388 380.23945 C 200.36388 380.23945 202.54634 379.89865 205.91166 374.77737 C 215.78253 359.97067 217.70786 352.03425 207.20282 333.7654 C 196.83206 315.74118 196.51722 300.38207 203.62105 279.0566 C 203.62105 279.0566 205.60245 270.35556 209.3294 265.59033 C 213.05635 260.8251 215.66745 261.58492 217.03548 261.36096 C 229.8511 259.65384 244.11007 265.4835 247.35474 275.63454 C 250.0652 284.3491 266.809 296.88254 273.6805 299.6588 C 280.7377 302.5101 285.08417 300.55464 290.4323 292.12985 C 300.52827 276.766 308.99764 237.5085 312.73014 190.84139 C 316.06503 151.57475 321.6693 126.23069 325.0401 108.79779 C 329.0543 88.16833 327.7412 75.62219 325.5126 74.72178 C 324.58403 74.34661 320.48293 73.72631 318.65394 75.57973 Z" fill="black"/>
        </g>
        <g id="Graphic_57">
          <path d="M 146.77816 110.84904 C 148.62036 113.4461 163.11362 137.96476 161.75171 141.3356 C 161.3015 142.4499 158.4163 137.82769 155.3885 131.41961 C 152.3607 125.01153 148.47935 118.04256 146.9617 115.91717 C 145.92358 114.54134 143.80187 108.79293 142.16205 110.50832 C 138.23469 113.26891 140.77125 120.54512 149.5413 133.59386 C 158.82912 147.49989 162.77254 168.75205 160.42605 191.13547 C 160.42605 191.13547 159.8559 206.59592 157.54747 208.75318 C 155.23904 210.91044 152.84385 210.97146 152.84385 210.97146 C 149.6792 211.85318 144.06484 209.80303 144.05711 213.47028 C 144.22555 219.12185 141.99862 213.96388 142.5989 212.47815 C 144.17462 208.5781 136.74662 208.57237 134.98518 212.39737 C 134.98518 212.39737 134.14644 217.08972 133.47991 217.15836 C 132.81338 217.227 133.31374 211.72207 133.31374 211.72207 C 133.18236 206.70025 126.55092 199.05223 122.90415 199.52313 C 121.67543 199.89083 120.88196 203.45882 120.86701 207.77342 C 120.93657 219.89932 119.23321 217.6989 118.49582 205.08714 C 118.29689 198.09374 116.49407 192.39662 114.0835 190.34253 C 108.74459 185.37705 107.32642 186.74836 107.06767 197.01336 C 107.01333 201.96014 106.76953 207.91053 106.87273 210.32858 C 106.79022 212.6716 105.73027 207.27461 104.68153 198.64168 C 103.1225 186.99415 101.209 181.03628 97.4665 176.93183 C 94.6132 173.83473 91.86684 172.07704 91.19527 172.66983 C 90.44867 173.44835 90.38311 181.63108 90.68525 191.04253 C 92.08125 217.5304 89.89578 214.91915 88.16773 187.64903 C 86.7493 167.63306 85.46798 161.71457 80.76873 154.63119 C 77.80849 150.19469 74.47307 146.68677 73.50511 146.94378 C 72.64782 147.46155 72.86371 160.29466 74.0007 175.66025 C 75.21272 190.84012 75.91072 204.08405 75.610585 204.82691 C 75.31045 205.56978 73.57318 191.68992 72.07224 174.01697 C 70.38558 156.26898 68.13803 139.37454 67.10624 136.58132 C 65.04267 130.99488 60.41472 124.80443 58.77518 125.65423 C 58.25368 125.8756 58.7191 141.83398 60.06624 160.95701 C 61.15263 180.19073 61.803765 196.22415 61.282264 196.44551 C 60.76076 196.66688 58.96716 177.57949 57.11347 154.36322 C 54.22974 117.12076 50.68218 99.70108 46.435137 101.65771 C 43.120415 102.91086 50.263187 199.12257 55.49541 224.13593 C 63.472254 262.13994 76.54021 290.7512 87.20481 293.7638 C 93.26215 295.34698 105.75 287.43048 106.25455 281.3694 C 107.4531 268.24362 109.92549 263.19364 116.81942 259.498 C 126.9174 254.28847 143.2866 253.34094 150.74715 257.86742 C 158.3184 262.65466 169.83106 278.53975 171.91907 287.8086 C 175.65982 303.14602 175.7032 322.82246 172.26859 337.20513 C 169.70247 347.83408 170.21642 346.6454 169.68913 348.19364 C 167.95243 352.78566 166.6741 359.9823 169.40764 364.32028 C 171.57016 367.81373 171.82064 369.861 175.30613 372.9975 C 182.20206 379.4562 187.69103 379.0047 195.43834 377.06884 C 203.8298 374.8922 205.10681 369.74804 207.52515 364.9856 C 209.39068 361.41958 210.65465 354.8574 210.3052 352.32444 C 209.89223 349.33093 209.5093 345.55436 204.88135 339.3639 C 197.0324 328.84764 194.8731 318.68584 195.47312 295.81284 C 195.7037 282.94407 198.60756 277.42625 201.81338 269.42617 C 206.72692 257.05098 210.79128 256.7572 219.68123 256.67644 C 233.40728 256.38926 247.8857 262.3328 251.04862 272.68403 C 253.51554 279.94566 263.78253 290.35873 272.54684 294.3318 C 272.54684 294.3318 279.74757 297.5061 282.7362 295.89266 C 285.7248 294.27923 290.1978 282.34906 290.1978 282.34906 C 300.05544 260.624 303.16855 237.78955 305.1304 208.3377 C 307.1992 180.22525 313.45667 134.79433 319.7406 103.20013 C 321.97467 91.78893 323.60847 81.86346 323.27642 81.08121 C 322.94438 80.29895 320.39695 85.53466 317.54565 92.59187 C 313.944 101.50625 310.1624 119.42126 305.3642 151.61573 C 301.29565 177.19197 297.3565 197.63571 296.4279 197.26054 C 295.68504 196.9604 295.39238 195.54597 295.9176 194.24596 C 298.16864 188.67447 307.2904 121.71742 305.80466 121.11714 C 302.27605 119.69149 296.1402 140.75994 291.16003 171.80072 C 288.27134 189.64444 285.31884 204.43792 284.79733 204.65928 C 284.09012 204.80561 285.77078 192.09066 288.0198 176.36486 C 291.0229 157.70324 291.7244 148.48125 290.00982 149.51677 C 285.684 152.73777 281.17448 166.03804 278.2464 184.51394 C 274.55677 208.08295 272.8741 210.6436 275.66707 188.22453 C 276.92943 178.14899 277.66656 169.37346 277.3345 168.5912 C 275.6743 164.67995 270.16114 177.79077 268.33415 189.7985 C 265.55614 207.90297 264.13423 210.35293 265.8655 193.76984 C 267.37166 177.7439 267.00396 176.51519 262.55625 182.71138 C 260.5378 185.56842 258.46875 192.2936 257.58903 199.28325 C 256.67367 205.82644 255.46564 210.9552 254.72278 210.65507 C 254.16563 210.42996 254.21997 205.48318 255.02092 199.75789 C 256.2439 190.31453 255.91185 189.53228 252.33638 190.8961 C 249.13234 192.41 248.19628 194.19214 247.09146 201.73895 C 246.59065 206.72138 245.97542 212.5217 245.96794 214.679 C 245.73536 217.39345 245.32455 217.87557 244.214 216.34671 C 243.2141 215.0786 242.96084 213.032 243.5611 211.54626 C 244.16138 210.06053 244.58342 206.34247 244.66967 202.9208 C 244.83843 197.15612 244.65272 197.08109 240.70207 199.3735 C 238.05518 201.1125 235.9223 204.78744 234.52857 209.84117 C 232.60585 217.27356 232.3451 217.38424 232.43883 211.80527 C 232.54003 204.069 228.9289 204.98637 225.29162 213.45429 C 222.96556 219.2115 222.44406 219.43285 222.41963 215.75044 C 222.50588 212.32877 221.13457 210.9106 217.56657 210.11713 C 209.98412 208.56585 204.60382 194.07824 206.44203 178.83455 C 208.0195 163.70155 212.89672 151.62999 222.98895 137.3448 C 237.1931 117.1598 236.968 117.71695 233.59695 113.76257 C 229.41172 108.61512 224.48564 113.32184 217.36112 129.88624 C 214.28472 137.5006 211.06572 143.3291 210.32286 143.02896 C 208.27998 142.20359 215.66898 124.44986 221.23847 116.54657 C 225.68618 110.35038 225.5755 110.08963 220.7075 108.77092 C 214.46444 107.11269 209.23447 113.64093 203.85644 130.69492 C 200.32235 141.58088 200.24732 141.7666 201.24146 133.95904 C 201.7779 129.42307 204.55792 121.47292 207.29106 116.31226 C 211.4855 108.06944 211.56427 106.80508 208.5928 105.60453 C 202.6499 103.20344 199.61661 109.10697 193.8016 134.19362 C 193.30826 137.01875 192.90492 135.34356 193.25566 130.73257 C 193.42068 126.04653 194.89693 118.6498 196.69775 114.1926 C 199.66348 106.31749 199.11007 105.01373 192.89892 104.88062 C 189.92372 104.75872 190.23462 106.0248 190.19769 111.5664 C 190.03227 119.30592 187.78437 126.05629 187.36508 113.23037 C 186.99653 103.39349 181.85957 104.03851 177.81943 106.45168 C 176.41416 107.29104 177.88607 111.56093 179.2893 114.50422 C 181.76368 119.60854 183.54116 133.3495 182.41565 136.13524 C 182.1155 136.87811 181.2761 131.50934 180.43376 127.7125 C 179.85218 123.80498 177.7173 117.32561 175.87136 113.33932 C 172.84356 106.93124 171.5079 105.95953 166.82187 105.79451 C 163.58592 105.78329 162.16527 105.2838 161.72777 107.51059 C 161.1809 110.29408 162.84506 115.63747 166.5726 124.05652 C 170.2251 132.66128 172.0909 138.32644 171.71573 139.25502 C 171.4156 139.99789 168.39611 134.5147 163.81876 124.45612 C 156.12727 104.22077 157.23193 104.91149 148.66466 106.90544 C 148.66466 106.90544 144.93595 108.25199 146.77816 110.84904 Z" fill="#FFFFFF"/>
          <path d="M 146.77816 110.84904 C 148.62036 113.4461 163.11362 137.96476 161.75171 141.3356 C 161.3015 142.4499 158.4163 137.82769 155.3885 131.41961 C 152.3607 125.01153 148.47935 118.04256 146.9617 115.91717 C 145.92358 114.54134 143.80187 108.79293 142.16205 110.50832 C 138.23469 113.26891 140.77125 120.54512 149.5413 133.59386 C 158.82912 147.49989 162.77254 168.75205 160.42605 191.13547 C 160.42605 191.13547 159.8559 206.59592 157.54747 208.75318 C 155.23904 210.91044 152.84385 210.97146 152.84385 210.97146 C 149.6792 211.85318 144.06484 209.80303 144.05711 213.47028 C 144.22555 219.12185 141.99862 213.96388 142.5989 212.47815 C 144.17462 208.5781 136.74662 208.57237 134.98518 212.39737 C 134.98518 212.39737 134.14644 217.08972 133.47991 217.15836 C 132.81338 217.227 133.31374 211.72207 133.31374 211.72207 C 133.18236 206.70025 126.55092 199.05223 122.90415 199.52313 C 121.67543 199.89083 120.88196 203.45882 120.86701 207.77342 C 120.93657 219.89932 119.23321 217.6989 118.49582 205.08714 C 118.29689 198.09374 116.49407 192.39662 114.0835 190.34253 C 108.74459 185.37705 107.32642 186.74836 107.06767 197.01336 C 107.01333 201.96014 106.76953 207.91053 106.87273 210.32858 C 106.79022 212.6716 105.73027 207.27461 104.68153 198.64168 C 103.1225 186.99415 101.209 181.03628 97.4665 176.93183 C 94.6132 173.83473 91.86684 172.07704 91.19527 172.66983 C 90.44867 173.44835 90.38311 181.63108 90.68525 191.04253 C 92.08125 217.5304 89.89578 214.91915 88.16773 187.64903 C 86.7493 167.63306 85.46798 161.71457 80.76873 154.63119 C 77.80849 150.19469 74.47307 146.68677 73.50511 146.94378 C 72.64782 147.46155 72.86371 160.29466 74.0007 175.66025 C 75.21272 190.84012 75.91072 204.08405 75.610585 204.82691 C 75.31045 205.56978 73.57318 191.68992 72.07224 174.01697 C 70.38558 156.26898 68.13803 139.37454 67.10624 136.58132 C 65.04267 130.99488 60.41472 124.80443 58.77518 125.65423 C 58.25368 125.8756 58.7191 141.83398 60.06624 160.95701 C 61.15263 180.19073 61.803765 196.22415 61.282264 196.44551 C 60.76076 196.66688 58.96716 177.57949 57.11347 154.36322 C 54.22974 117.12076 50.68218 99.70108 46.435137 101.65771 C 43.120415 102.91086 50.263187 199.12257 55.49541 224.13593 C 63.472254 262.13994 76.54021 290.7512 87.20481 293.7638 C 93.26215 295.34698 105.75 287.43048 106.25455 281.3694 C 107.4531 268.24362 109.92549 263.19364 116.81942 259.498 C 126.9174 254.28847 143.2866 253.34094 150.74715 257.86742 C 158.3184 262.65466 169.83106 278.53975 171.91907 287.8086 C 175.65982 303.14602 175.7032 322.82246 172.26859 337.20513 C 169.70247 347.83408 170.21642 346.6454 169.68913 348.19364 C 167.95243 352.78566 166.6741 359.9823 169.40764 364.32028 C 171.57016 367.81373 171.82064 369.861 175.30613 372.9975 C 182.20206 379.4562 187.69103 379.0047 195.43834 377.06884 C 203.8298 374.8922 205.10681 369.74804 207.52515 364.9856 C 209.39068 361.41958 210.65465 354.8574 210.3052 352.32444 C 209.89223 349.33093 209.5093 345.55436 204.88135 339.3639 C 197.0324 328.84764 194.8731 318.68584 195.47312 295.81284 C 195.7037 282.94407 198.60756 277.42625 201.81338 269.42617 C 206.72692 257.05098 210.79128 256.7572 219.68123 256.67644 C 233.40728 256.38926 247.8857 262.3328 251.04862 272.68403 C 253.51554 279.94566 263.78253 290.35873 272.54684 294.3318 C 272.54684 294.3318 279.74757 297.5061 282.7362 295.89266 C 285.7248 294.27923 290.1978 282.34906 290.1978 282.34906 C 300.05544 260.624 303.16855 237.78955 305.1304 208.3377 C 307.1992 180.22525 313.45667 134.79433 319.7406 103.20013 C 321.97467 91.78893 323.60847 81.86346 323.27642 81.08121 C 322.94438 80.29895 320.39695 85.53466 317.54565 92.59187 C 313.944 101.50625 310.1624 119.42126 305.3642 151.61573 C 301.29565 177.19197 297.3565 197.63571 296.4279 197.26054 C 295.68504 196.9604 295.39238 195.54597 295.9176 194.24596 C 298.16864 188.67447 307.2904 121.71742 305.80466 121.11714 C 302.27605 119.69149 296.1402 140.75994 291.16003 171.80072 C 288.27134 189.64444 285.31884 204.43792 284.79733 204.65928 C 284.09012 204.80561 285.77078 192.09066 288.0198 176.36486 C 291.0229 157.70324 291.7244 148.48125 290.00982 149.51677 C 285.684 152.73777 281.17448 166.03804 278.2464 184.51394 C 274.55677 208.08295 272.8741 210.6436 275.66707 188.22453 C 276.92943 178.14899 277.66656 169.37346 277.3345 168.5912 C 275.6743 164.67995 270.16114 177.79077 268.33415 189.7985 C 265.55614 207.90297 264.13423 210.35293 265.8655 193.76984 C 267.37166 177.7439 267.00396 176.51519 262.55625 182.71138 C 260.5378 185.56842 258.46875 192.2936 257.58903 199.28325 C 256.67367 205.82644 255.46564 210.9552 254.72278 210.65507 C 254.16563 210.42996 254.21997 205.48318 255.02092 199.75789 C 256.2439 190.31453 255.91185 189.53228 252.33638 190.8961 C 249.13234 192.41 248.19628 194.19214 247.09146 201.73895 C 246.59065 206.72138 245.97542 212.5217 245.96794 214.679 C 245.73536 217.39345 245.32455 217.87557 244.214 216.34671 C 243.2141 215.0786 242.96084 213.032 243.5611 211.54626 C 244.16138 210.06053 244.58342 206.34247 244.66967 202.9208 C 244.83843 197.15612 244.65272 197.08109 240.70207 199.3735 C 238.05518 201.1125 235.9223 204.78744 234.52857 209.84117 C 232.60585 217.27356 232.3451 217.38424 232.43883 211.80527 C 232.54003 204.069 228.9289 204.98637 225.29162 213.45429 C 222.96556 219.2115 222.44406 219.43285 222.41963 215.75044 C 222.50588 212.32877 221.13457 210.9106 217.56657 210.11713 C 209.98412 208.56585 204.60382 194.07824 206.44203 178.83455 C 208.0195 163.70155 212.89672 151.62999 222.98895 137.3448 C 237.1931 117.1598 236.968 117.71695 233.59695 113.76257 C 229.41172 108.61512 224.48564 113.32184 217.36112 129.88624 C 214.28472 137.5006 211.06572 143.3291 210.32286 143.02896 C 208.27998 142.20359 215.66898 124.44986 221.23847 116.54657 C 225.68618 110.35038 225.5755 110.08963 220.7075 108.77092 C 214.46444 107.11269 209.23447 113.64093 203.85644 130.69492 C 200.32235 141.58088 200.24732 141.7666 201.24146 133.95904 C 201.7779 129.42307 204.55792 121.47292 207.29106 116.31226 C 211.4855 108.06944 211.56427 106.80508 208.5928 105.60453 C 202.6499 103.20344 199.61661 109.10697 193.8016 134.19362 C 193.30826 137.01875 192.90492 135.34356 193.25566 130.73257 C 193.42068 126.04653 194.89693 118.6498 196.69775 114.1926 C 199.66348 106.31749 199.11007 105.01373 192.89892 104.88062 C 189.92372 104.75872 190.23462 106.0248 190.19769 111.5664 C 190.03227 119.30592 187.78437 126.05629 187.36508 113.23037 C 186.99653 103.39349 181.85957 104.03851 177.81943 106.45168 C 176.41416 107.29104 177.88607 111.56093 179.2893 114.50422 C 181.76368 119.60854 183.54116 133.3495 182.41565 136.13524 C 182.1155 136.87811 181.2761 131.50934 180.43376 127.7125 C 179.85218 123.80498 177.7173 117.32561 175.87136 113.33932 C 172.84356 106.93124 171.5079 105.95953 166.82187 105.79451 C 163.58592 105.78329 162.16527 105.2838 161.72777 107.51059 C 161.1809 110.29408 162.84506 115.63747 166.5726 124.05652 C 170.2251 132.66128 172.0909 138.32644 171.71573 139.25502 C 171.4156 139.99789 168.39611 134.5147 163.81876 124.45612 C 156.12727 104.22077 157.23193 104.91149 148.66466 106.90544 C 148.66466 106.90544 144.93595 108.25199 146.77816 110.84904 Z" stroke="black" stroke-linecap="round" stroke-linejoin="round" stroke-width="5.2134457" clip-path="url(#outer_stroke_clip_path)"/>
        </g>
        <g id="Graphic_56">
          <path d="M 193.19796 391.68973 C 191.0032 401.47458 186.99439 402.10766 184.06804 393.837 C 181.66234 386.7369 178.66805 380.67334 178.66805 380.67334 C 178.66805 380.67334 181.28168 383.0573 185.63477 383.00617 C 190.9597 382.68174 195.97079 381.58475 195.97079 381.58475 C 195.97079 381.58475 194.6237 385.2812 193.19198 391.52247 Z" fill="#FFFFFF"/>
          <path d="M 193.19796 391.68973 C 191.0032 401.47458 186.99439 402.10766 184.06804 393.837 C 181.66234 386.7369 178.66805 380.67334 178.66805 380.67334 C 178.66805 380.67334 181.28168 383.0573 185.63477 383.00617 C 190.9597 382.68174 195.97079 381.58475 195.97079 381.58475 C 195.97079 381.58475 194.6237 385.2812 193.19198 391.52247 Z" stroke="black" stroke-linecap="round" stroke-linejoin="miter" stroke-width="5.2134457" clip-path="url(#outer_stroke_clip_path_2)"/>
        </g>
        <g id="Graphic_55">
          <path d="M 173.43307 355.8869 C 175.39383 357.85475 176.02883 361.4897 174.85137 364.00577 C 173.67393 366.52185 171.12992 366.96627 169.16917 364.9984 C 167.2084 363.03055 166.57341 359.3956 167.75086 356.87953 C 168.9283 354.36344 171.47231 353.91902 173.43307 355.8869" fill="#FFFFFF"/>
          <path d="M 173.43307 355.8869 C 175.39383 357.85475 176.02883 361.4897 174.85137 364.00577 C 173.67393 366.52185 171.12992 366.96627 169.16917 364.9984 C 167.2084 363.03055 166.57341 359.3956 167.75086 356.87953 C 168.9283 354.36344 171.47231 353.91902 173.43307 355.8869" stroke="black" stroke-linecap="round" stroke-linejoin="round" stroke-width="3.4756304"/>
        </g>
        <g id="Graphic_54">
          <path d="M 209.22372 357.45656 C 210.44604 360.01453 209.79156 363.6927 207.7619 365.67204 C 205.73224 367.65137 203.096 367.1823 201.8737 364.6243 C 200.6514 362.06636 201.30587 358.38816 203.33553 356.40884 C 205.36519 354.4295 208.00142 354.8986 209.22372 357.45656" fill="#FFFFFF"/>
          <path d="M 209.22372 357.45656 C 210.44604 360.01453 209.79156 363.6927 207.7619 365.67204 C 205.73224 367.65137 203.096 367.1823 201.8737 364.6243 C 200.6514 362.06636 201.30587 358.38816 203.33553 356.40884 C 205.36519 354.4295 208.00142 354.8986 209.22372 357.45656" stroke="black" stroke-linecap="round" stroke-linejoin="round" stroke-width="3.4756304"/>
        </g>
      </g>
    </g>
  </g>
</svg>
