<?xml version="1.0" encoding="UTF-8" standalone="no"?>
<!DOCTYPE svg PUBLIC "-//W3C//DTD SVG 1.1//EN" "http://www.w3.org/Graphics/SVG/1.1/DTD/svg11.dtd">
<svg xmlns="http://www.w3.org/2000/svg" xmlns:dc="http://purl.org/dc/elements/1.1/" version="1.1" xmlns:xl="http://www.w3.org/1999/xlink" viewBox="33.75 117 297 232.60654" width="297" height="232.60654">
  <defs>
    <clipPath id="artboard_clip_path">
      <path d="M 33.75 117 L 330.75 117 L 330.75 349.60654 L 33.75 349.60654 Z"/>
    </clipPath>
  </defs>
  <g id="Dragonfly_(2)" fill-opacity="1" stroke="none" stroke-dasharray="none" stroke-opacity="1" fill="none">
    <title>Dragonfly (2)</title>
    <g id="Dragonfly_(2)_Layer_2" clip-path="url(#artboard_clip_path)">
      <title>Layer 2</title>
      <g id="Group_3">
        <g id="Graphic_28">
          <title>path24</title>
          <path d="M 186.4161 140.31163 C 186.23755 138.52096 187.44658 136.88693 189.21118 136.53401 C 190.97579 136.1811 192.72029 137.22442 193.2442 138.94601" stroke="black" stroke-linecap="round" stroke-linejoin="round" stroke-width="2"/>
        </g>
        <g id="Graphic_27">
          <title>path29</title>
          <path d="M 178.0843 140.31163 C 178.26284 138.52096 177.0538 136.88693 175.2892 136.53401 C 173.5246 136.1811 171.7801 137.22442 171.2562 138.94601" stroke="black" stroke-linecap="round" stroke-linejoin="round" stroke-width="2"/>
        </g>
        <g id="Graphic_26">
          <title>path34</title>
          <path d="M 176.30932 144.33427 C 176.309 144.36988 176.309 144.40549 176.30932 144.4411 L 176.30932 158.33861 L 188.16737 158.33861 L 188.16737 144.8587 C 188.18156 144.68426 188.18805 144.50928 188.1868 144.33427 C 188.10066 141.11629 185.4672 138.55236 182.24806 138.55236 C 179.02892 138.55236 176.39546 141.11629 176.30932 144.33427 Z" fill="#FFFFFF"/>
          <path d="M 176.30932 144.33427 C 176.309 144.36988 176.309 144.40549 176.30932 144.4411 L 176.30932 158.33861 L 188.16737 158.33861 L 188.16737 144.8587 C 188.18156 144.68426 188.18805 144.50928 188.1868 144.33427 C 188.10066 141.11629 185.4672 138.55236 182.24806 138.55236 C 179.02892 138.55236 176.39546 141.11629 176.30932 144.33427 Z" stroke="black" stroke-linecap="round" stroke-linejoin="round" stroke-width="2"/>
        </g>
        <g id="Graphic_25">
          <title>path42</title>
          <path d="M 190.1511 159.29036 C 194.2512 153.88121 200.34835 150.34116 207.07867 149.46207 L 197.25038 129.79578 L 199.97938 124.87193 C 200.33138 123.83823 200.15045 122.69742 199.49588 121.82337 C 198.84131 120.94931 197.7975 120.4547 196.70652 120.50164 C 198.37058 119.75234 200.32284 120.08743 201.64179 121.34875 C 202.96073 122.61008 203.38265 124.54543 202.70838 126.24128 L 200.52324 130.61157 L 212.54638 151.64722 C 205.56767 155.5257 198.46117 159.16964 191.2388 162.57293 C 190.25521 161.79276 189.828 160.50352 190.1511 159.29036 Z" fill="#FFFFFF"/>
          <path d="M 190.1511 159.29036 C 194.2512 153.88121 200.34835 150.34116 207.07867 149.46207 L 197.25038 129.79578 L 199.97938 124.87193 C 200.33138 123.83823 200.15045 122.69742 199.49588 121.82337 C 198.84131 120.94931 197.7975 120.4547 196.70652 120.50164 C 198.37058 119.75234 200.32284 120.08743 201.64179 121.34875 C 202.96073 122.61008 203.38265 124.54543 202.70838 126.24128 L 200.52324 130.61157 L 212.54638 151.64722 C 205.56767 155.5257 198.46117 159.16964 191.2388 162.57293 C 190.25521 161.79276 189.828 160.50352 190.1511 159.29036 Z" stroke="black" stroke-linecap="round" stroke-linejoin="round" stroke-width="2"/>
        </g>
        <g id="Graphic_24">
          <title>path47</title>
          <path d="M 173.75746 159.29036 C 169.65734 153.88121 163.5602 150.34116 156.82989 149.46207 L 166.65818 129.79578 L 163.92918 124.87193 C 163.57717 123.83823 163.7581 122.69742 164.41267 121.82337 C 165.06724 120.94931 166.11106 120.4547 167.20203 120.50164 C 165.53798 119.75234 163.58571 120.08743 162.26677 121.34875 C 160.94782 122.61008 160.5259 124.54543 161.20017 126.24128 L 163.38532 130.61157 L 151.36217 151.64722 C 158.34088 155.5257 165.44738 159.16964 172.66975 162.57293 C 173.65334 161.79276 174.08055 160.50352 173.75746 159.29036 Z" fill="#FFFFFF"/>
          <path d="M 173.75746 159.29036 C 169.65734 153.88121 163.5602 150.34116 156.82989 149.46207 L 166.65818 129.79578 L 163.92918 124.87193 C 163.57717 123.83823 163.7581 122.69742 164.41267 121.82337 C 165.06724 120.94931 166.11106 120.4547 167.20203 120.50164 C 165.53798 119.75234 163.58571 120.08743 162.26677 121.34875 C 160.94782 122.61008 160.5259 124.54543 161.20017 126.24128 L 163.38532 130.61157 L 151.36217 151.64722 C 158.34088 155.5257 165.44738 159.16964 172.66975 162.57293 C 173.65334 161.79276 174.08055 160.50352 173.75746 159.29036 Z" stroke="black" stroke-linecap="round" stroke-linejoin="round" stroke-width="2"/>
        </g>
        <g id="Graphic_23">
          <title>path52</title>
          <path d="M 178.42396 254.7589 C 179.0151 261.10307 178.8413 267.53346 177.90924 273.80362 C 176.95283 273.73176 176.09017 274.57005 175.84336 275.81115 C 175.59655 277.05225 176.0334 278.3552 176.8895 278.93143 C 178.65908 277.54576 180.73005 277.01773 182.7554 277.43582 L 182.7554 277.46495 L 182.82338 277.44553 L 182.90108 277.46495 L 182.90108 277.43582 C 184.92642 277.01773 186.9974 277.54576 188.76697 278.93143 C 189.78536 278.49784 190.43464 277.16172 190.31908 275.73737 C 190.20353 274.31302 189.3552 273.19535 188.2911 273.06553 C 187.27714 267.0645 186.96263 260.88904 187.35877 254.7589 Z" fill="#FFFFFF"/>
          <path d="M 178.42396 254.7589 C 179.0151 261.10307 178.8413 267.53346 177.90924 273.80362 C 176.95283 273.73176 176.09017 274.57005 175.84336 275.81115 C 175.59655 277.05225 176.0334 278.3552 176.8895 278.93143 C 178.65908 277.54576 180.73005 277.01773 182.7554 277.43582 L 182.7554 277.46495 L 182.82338 277.44553 L 182.90108 277.46495 L 182.90108 277.43582 C 184.92642 277.01773 186.9974 277.54576 188.76697 278.93143 C 189.78536 278.49784 190.43464 277.16172 190.31908 275.73737 C 190.20353 274.31302 189.3552 273.19535 188.2911 273.06553 C 187.27714 267.0645 186.96263 260.88904 187.35877 254.7589 Z" stroke="black" stroke-linecap="round" stroke-linejoin="round" stroke-width="2"/>
        </g>
        <g id="Graphic_22">
          <title>path57</title>
          <path d="M 178.42396 239.31847 C 179.01568 244.0515 178.84189 248.84894 177.90924 253.52676 C 176.9509 253.47057 176.08528 254.09628 175.83808 255.0239 C 175.59087 255.9515 176.0303 256.925 176.8895 257.35318 C 178.6589 256.3193 180.72988 255.925 182.7554 256.23633 L 182.7554 256.25576 L 182.82338 256.24605 L 182.90108 256.25576 L 182.90108 256.23633 C 184.9266 255.925 186.99758 256.3193 188.76697 257.35318 C 189.77999 257.02614 190.42394 256.0325 190.30871 254.97425 C 190.19348 253.916 189.35076 253.08426 188.2911 252.9829 C 187.2759 248.50366 186.96138 243.8941 187.35877 239.31847 Z" fill="#FFFFFF"/>
          <path d="M 178.42396 239.31847 C 179.01568 244.0515 178.84189 248.84894 177.90924 253.52676 C 176.9509 253.47057 176.08528 254.09628 175.83808 255.0239 C 175.59087 255.9515 176.0303 256.925 176.8895 257.35318 C 178.6589 256.3193 180.72988 255.925 182.7554 256.23633 L 182.7554 256.25576 L 182.82338 256.24605 L 182.90108 256.25576 L 182.90108 256.23633 C 184.9266 255.925 186.99758 256.3193 188.76697 257.35318 C 189.77999 257.02614 190.42394 256.0325 190.30871 254.97425 C 190.19348 253.916 189.35076 253.08426 188.2911 252.9829 C 187.2759 248.50366 186.96138 243.8941 187.35877 239.31847 Z" stroke="black" stroke-linecap="round" stroke-linejoin="round" stroke-width="2"/>
        </g>
        <g id="Graphic_21">
          <title>path62</title>
          <path d="M 178.42396 224.02208 C 179.01568 228.75512 178.84189 233.55254 177.90924 238.23036 C 176.9509 238.17418 176.08528 238.7999 175.83808 239.7275 C 175.59087 240.6551 176.0303 241.6286 176.8895 242.0568 C 178.6589 241.0229 180.72988 240.6286 182.7554 240.93994 L 182.7554 240.95937 L 182.82338 240.94965 L 182.90108 240.95937 L 182.90108 240.93994 C 184.9266 240.6286 186.99758 241.0229 188.76697 242.0568 C 189.77999 241.72974 190.42394 240.7361 190.30871 239.67786 C 190.19348 238.61962 189.35076 237.78786 188.2911 237.6865 C 187.2759 233.20727 186.96138 228.5977 187.35877 224.02208 Z" fill="#FFFFFF"/>
          <path d="M 178.42396 224.02208 C 179.01568 228.75512 178.84189 233.55254 177.90924 238.23036 C 176.9509 238.17418 176.08528 238.7999 175.83808 239.7275 C 175.59087 240.6551 176.0303 241.6286 176.8895 242.0568 C 178.6589 241.0229 180.72988 240.6286 182.7554 240.93994 L 182.7554 240.95937 L 182.82338 240.94965 L 182.90108 240.95937 L 182.90108 240.93994 C 184.9266 240.6286 186.99758 241.0229 188.76697 242.0568 C 189.77999 241.72974 190.42394 240.7361 190.30871 239.67786 C 190.19348 238.61962 189.35076 237.78786 188.2911 237.6865 C 187.2759 233.20727 186.96138 228.5977 187.35877 224.02208 Z" stroke="black" stroke-linecap="round" stroke-linejoin="round" stroke-width="2"/>
        </g>
        <g id="Graphic_20">
          <title>path67</title>
          <path d="M 182.82338 225.38075 L 182.90108 225.39046 L 182.90108 225.37104 C 184.9266 225.0597 186.99758 225.454 188.76697 226.4879 C 189.77999 226.16084 190.42394 225.1672 190.30871 224.10896 C 190.19348 223.0507 189.35076 222.21896 188.2911 222.1176 C 186.74028 215.27206 186.83347 208.15647 188.56302 201.35389 L 182.82338 201.35389 L 177.09345 201.89774 C 179.00174 208.65737 179.2813 215.77295 177.90924 222.66146 C 176.9509 222.60528 176.08528 223.231 175.83808 224.1586 C 175.59087 225.0862 176.0303 226.0597 176.8895 226.4879 C 178.6589 225.454 180.72988 225.0597 182.7554 225.37104 L 182.7554 225.39046 Z" fill="#FFFFFF"/>
          <path d="M 182.82338 225.38075 L 182.90108 225.39046 L 182.90108 225.37104 C 184.9266 225.0597 186.99758 225.454 188.76697 226.4879 C 189.77999 226.16084 190.42394 225.1672 190.30871 224.10896 C 190.19348 223.0507 189.35076 222.21896 188.2911 222.1176 C 186.74028 215.27206 186.83347 208.15647 188.56302 201.35389 L 182.82338 201.35389 L 177.09345 201.89774 C 179.00174 208.65737 179.2813 215.77295 177.90924 222.66146 C 176.9509 222.60528 176.08528 223.231 175.83808 224.1586 C 175.59087 225.0862 176.0303 226.0597 176.8895 226.4879 C 178.6589 225.454 180.72988 225.0597 182.7554 225.37104 L 182.7554 225.39046 Z" stroke="black" stroke-linecap="round" stroke-linejoin="round" stroke-width="2"/>
        </g>
        <g id="Graphic_19">
          <title>path75</title>
          <path d="M 188.9478 190.29026 C 190.40582 190.00495 191.91663 190.34521 193.11157 191.22802 C 194.3065 192.11083 195.07564 193.45498 195.2313 194.93248 C 196.65875 198.09012 197.75554 201.38701 198.50416 204.77048 C 207.1891 213.02502 214.2342 222.84794 219.26788 233.7212 C 221.84757 233.2727 224.48618 234.08485 226.36717 235.90634 L 229.09617 241.37406 C 230.39676 240.26945 232.29766 240.24113 233.63058 241.30652 C 234.9635 242.3719 235.35475 244.2323 234.56389 245.74434 C 233.48962 243.80298 231.062 243.07427 229.09617 244.10306 C 228.34103 244.53132 227.44205 244.62708 226.61363 244.3675 C 225.78522 244.10794 225.10162 243.5163 224.72588 242.7337 C 223.78026 241.35183 222.95807 239.88942 222.2688 238.36341 L 221.1811 237.54763 C 219.57012 237.5702 217.98313 237.94127 216.52917 238.63534 C 211.9273 226.09363 204.11054 214.98137 193.86195 206.41176 C 193.5601 202.11675 192.14787 197.97378 189.7636 194.38862 C 188.89363 195.07825 187.65956 195.06437 186.80533 194.35534 C 185.9511 193.64631 185.71016 192.43591 186.22777 191.45382 C 186.74538 190.47172 187.88007 189.98633 188.9478 190.29026 Z" fill="#FFFFFF"/>
          <path d="M 188.9478 190.29026 C 190.40582 190.00495 191.91663 190.34521 193.11157 191.22802 C 194.3065 192.11083 195.07564 193.45498 195.2313 194.93248 C 196.65875 198.09012 197.75554 201.38701 198.50416 204.77048 C 207.1891 213.02502 214.2342 222.84794 219.26788 233.7212 C 221.84757 233.2727 224.48618 234.08485 226.36717 235.90634 L 229.09617 241.37406 C 230.39676 240.26945 232.29766 240.24113 233.63058 241.30652 C 234.9635 242.3719 235.35475 244.2323 234.56389 245.74434 C 233.48962 243.80298 231.062 243.07427 229.09617 244.10306 C 228.34103 244.53132 227.44205 244.62708 226.61363 244.3675 C 225.78522 244.10794 225.10162 243.5163 224.72588 242.7337 C 223.78026 241.35183 222.95807 239.88942 222.2688 238.36341 L 221.1811 237.54763 C 219.57012 237.5702 217.98313 237.94127 216.52917 238.63534 C 211.9273 226.09363 204.11054 214.98137 193.86195 206.41176 C 193.5601 202.11675 192.14787 197.97378 189.7636 194.38862 C 188.89363 195.07825 187.65956 195.06437 186.80533 194.35534 C 185.9511 193.64631 185.71016 192.43591 186.22777 191.45382 C 186.74538 190.47172 187.88007 189.98633 188.9478 190.29026 Z" stroke="black" stroke-linecap="round" stroke-linejoin="round" stroke-width="2"/>
        </g>
        <g id="Graphic_18">
          <title>path80</title>
          <path d="M 175.55258 190.29026 C 174.09457 190.00495 172.58376 190.34521 171.38882 191.22802 C 170.1939 192.11083 169.42475 193.45498 169.26908 194.93248 C 167.84164 198.09012 166.74485 201.38701 165.99622 204.77048 C 157.31128 213.02502 150.26619 222.84794 145.2325 233.7212 C 142.65282 233.2727 140.0142 234.08485 138.13322 235.90634 L 135.40422 241.37406 C 134.10363 240.26945 132.20273 240.24113 130.86981 241.30652 C 129.5369 242.3719 129.14564 244.2323 129.9365 245.74434 C 131.01077 243.80298 133.43838 243.07427 135.40422 244.10306 C 136.15936 244.53132 137.05834 244.62708 137.88676 244.3675 C 138.71517 244.10794 139.39876 243.5163 139.7745 242.7337 C 140.72012 241.35183 141.54232 239.88942 142.23158 238.36341 L 143.3193 237.54763 C 144.93027 237.5702 146.51726 237.94127 147.97122 238.63534 C 152.57308 226.09363 160.38985 214.98137 170.63844 206.41176 C 170.9403 202.11675 172.35252 197.97378 174.7368 194.38862 C 175.60676 195.07825 176.84083 195.06437 177.69506 194.35534 C 178.5493 193.64631 178.79023 192.43591 178.27262 191.45382 C 177.755 190.47172 176.62032 189.98633 175.55258 190.29026 Z" fill="#FFFFFF"/>
          <path d="M 175.55258 190.29026 C 174.09457 190.00495 172.58376 190.34521 171.38882 191.22802 C 170.1939 192.11083 169.42475 193.45498 169.26908 194.93248 C 167.84164 198.09012 166.74485 201.38701 165.99622 204.77048 C 157.31128 213.02502 150.26619 222.84794 145.2325 233.7212 C 142.65282 233.2727 140.0142 234.08485 138.13322 235.90634 L 135.40422 241.37406 C 134.10363 240.26945 132.20273 240.24113 130.86981 241.30652 C 129.5369 242.3719 129.14564 244.2323 129.9365 245.74434 C 131.01077 243.80298 133.43838 243.07427 135.40422 244.10306 C 136.15936 244.53132 137.05834 244.62708 137.88676 244.3675 C 138.71517 244.10794 139.39876 243.5163 139.7745 242.7337 C 140.72012 241.35183 141.54232 239.88942 142.23158 238.36341 L 143.3193 237.54763 C 144.93027 237.5702 146.51726 237.94127 147.97122 238.63534 C 152.57308 226.09363 160.38985 214.98137 170.63844 206.41176 C 170.9403 202.11675 172.35252 197.97378 174.7368 194.38862 C 175.60676 195.07825 176.84083 195.06437 177.69506 194.35534 C 178.5493 193.64631 178.79023 192.43591 178.27262 191.45382 C 177.755 190.47172 176.62032 189.98633 175.55258 190.29026 Z" stroke="black" stroke-linecap="round" stroke-linejoin="round" stroke-width="2"/>
        </g>
        <g id="Graphic_17">
          <title>path85</title>
          <path d="M 175.94513 196.57085 C 176.0458 190.423 179.19458 185.5228 183.04442 185.5228 C 186.89426 185.5228 190.04305 190.423 190.1437 196.57085 C 190.2112 200.69324 188.87305 204.54949 186.64875 206.64244 C 184.42446 208.7354 181.66438 208.7354 179.4401 206.64244 C 177.2158 204.54949 175.87764 200.69324 175.94513 196.57085 Z" fill="#FFFFFF"/>
          <path d="M 175.94513 196.57085 C 176.0458 190.423 179.19458 185.5228 183.04442 185.5228 C 186.89426 185.5228 190.04305 190.423 190.1437 196.57085 C 190.2112 200.69324 188.87305 204.54949 186.64875 206.64244 C 184.42446 208.7354 181.66438 208.7354 179.4401 206.64244 C 177.2158 204.54949 175.87764 200.69324 175.94513 196.57085 Z" stroke="black" stroke-linecap="round" stroke-linejoin="round" stroke-width="2"/>
        </g>
        <g id="Graphic_16">
          <title>path90</title>
          <path d="M 169.89044 171.16492 C 169.81968 165.78765 172.15954 160.78195 176.01227 158.0684 C 179.865 155.35485 184.63228 155.35485 188.485 158.0684 C 192.33774 160.78195 194.6776 165.78765 194.60684 171.16492 C 194.6776 176.54218 192.33774 181.54788 188.485 184.26143 C 184.63228 186.97498 179.865 186.97498 176.01227 184.26143 C 172.15954 181.54788 169.81968 176.54218 169.89044 171.16492 Z" fill="#FFFFFF"/>
          <path d="M 169.89044 171.16492 C 169.81968 165.78765 172.15954 160.78195 176.01227 158.0684 C 179.865 155.35485 184.63228 155.35485 188.485 158.0684 C 192.33774 160.78195 194.6776 165.78765 194.60684 171.16492 C 194.6776 176.54218 192.33774 181.54788 188.485 184.26143 C 184.63228 186.97498 179.865 186.97498 176.01227 184.26143 C 172.15954 181.54788 169.81968 176.54218 169.89044 171.16492 Z" stroke="black" stroke-linecap="round" stroke-linejoin="round" stroke-width="2"/>
        </g>
        <g id="Graphic_15">
          <title>path98</title>
          <path d="M 169.3897 148.25296 C 169.47583 145.03498 172.1093 142.47105 175.32844 142.47105 C 178.54757 142.47105 181.18104 145.03498 181.26717 148.25296 C 181.32497 150.41256 180.20587 152.43332 178.34464 153.53015 C 176.4834 154.62698 174.17346 154.62698 172.31223 153.53015 C 170.451 152.43332 169.3319 150.41256 169.3897 148.25296 Z" fill="#FFFFFF"/>
          <path d="M 169.3897 148.25296 C 169.47583 145.03498 172.1093 142.47105 175.32844 142.47105 C 178.54757 142.47105 181.18104 145.03498 181.26717 148.25296 C 181.32497 150.41256 180.20587 152.43332 178.34464 153.53015 C 176.4834 154.62698 174.17346 154.62698 172.31223 153.53015 C 170.451 152.43332 169.3319 150.41256 169.3897 148.25296 Z" stroke="black" stroke-linecap="round" stroke-linejoin="round" stroke-width="2"/>
        </g>
        <g id="Graphic_14">
          <title>path103</title>
          <path d="M 183.22894 148.25296 C 183.31508 145.03498 185.94854 142.47105 189.16768 142.47105 C 192.38681 142.47105 195.02028 145.03498 195.10641 148.25296 C 195.16422 150.41256 194.0451 152.43332 192.18388 153.53015 C 190.32265 154.62698 188.0127 154.62698 186.15147 153.53015 C 184.29025 152.43332 183.17114 150.41256 183.22894 148.25296 Z" fill="#FFFFFF"/>
          <path d="M 183.22894 148.25296 C 183.31508 145.03498 185.94854 142.47105 189.16768 142.47105 C 192.38681 142.47105 195.02028 145.03498 195.10641 148.25296 C 195.16422 150.41256 194.0451 152.43332 192.18388 153.53015 C 190.32265 154.62698 188.0127 154.62698 186.15147 153.53015 C 184.29025 152.43332 183.17114 150.41256 183.22894 148.25296 Z" stroke="black" stroke-linecap="round" stroke-linejoin="round" stroke-width="2"/>
        </g>
        <g id="Graphic_13">
          <title>path111</title>
          <path d="M 182.9782 329.60857 L 182.9782 329.6377 C 183.0008 329.63102 183.02346 329.62455 183.04618 329.6183 C 183.0689 329.62455 183.09156 329.63102 183.11416 329.6377 L 183.11416 329.60857 C 184.02364 329.81317 184.8278 330.34122 185.377 331.09447 C 185.81488 332.3162 185.5504 333.67957 184.68747 334.64897 C 184.90396 336.69354 185.59574 338.65913 186.7075 340.3886 C 187.12118 337.5415 187.66889 334.7155 188.3488 331.91997 C 189.70278 328.43893 189.14324 324.50376 186.8726 321.5381 L 183.16272 320.08135 L 183.16272 320.0328 L 183.10445 320.06192 L 183.0559 320.0328 L 183.0559 320.08135 L 183.04618 320.08135 L 183.03647 320.08135 L 183.03647 320.0328 L 182.9879 320.06192 L 182.92964 320.0328 L 182.92964 320.08135 L 179.21975 321.5381 C 176.94912 324.50376 176.38958 328.43893 177.74357 331.91997 C 178.42347 334.7155 178.97118 337.5415 179.38485 340.3886 C 180.49662 338.65913 181.1884 336.69354 181.4049 334.64897 C 180.54196 333.67957 180.27748 332.3162 180.71536 331.09447 C 181.26456 330.34122 182.06872 329.81317 182.9782 329.60857 Z" fill="#FFFFFF"/>
          <path d="M 182.9782 329.60857 L 182.9782 329.6377 C 183.0008 329.63102 183.02346 329.62455 183.04618 329.6183 C 183.0689 329.62455 183.09156 329.63102 183.11416 329.6377 L 183.11416 329.60857 C 184.02364 329.81317 184.8278 330.34122 185.377 331.09447 C 185.81488 332.3162 185.5504 333.67957 184.68747 334.64897 C 184.90396 336.69354 185.59574 338.65913 186.7075 340.3886 C 187.12118 337.5415 187.66889 334.7155 188.3488 331.91997 C 189.70278 328.43893 189.14324 324.50376 186.8726 321.5381 L 183.16272 320.08135 L 183.16272 320.0328 L 183.10445 320.06192 L 183.0559 320.0328 L 183.0559 320.08135 L 183.04618 320.08135 L 183.03647 320.08135 L 183.03647 320.0328 L 182.9879 320.06192 L 182.92964 320.0328 L 182.92964 320.08135 L 179.21975 321.5381 C 176.94912 324.50376 176.38958 328.43893 177.74357 331.91997 C 178.42347 334.7155 178.97118 337.5415 179.38485 340.3886 C 180.49662 338.65913 181.1884 336.69354 181.4049 334.64897 C 180.54196 333.67957 180.27748 332.3162 180.71536 331.09447 C 181.26456 330.34122 182.06872 329.81317 182.9782 329.60857 Z" stroke="black" stroke-linecap="round" stroke-linejoin="round" stroke-width="2"/>
        </g>
        <g id="Graphic_12">
          <title>path119</title>
          <path d="M 179.54606 340.27267 C 178.71204 340.66883 178.2456 341.5735 178.40657 342.48268 C 178.56755 343.39187 179.31626 344.08137 180.2356 344.1671" stroke="black" stroke-linecap="round" stroke-linejoin="round" stroke-width="2"/>
        </g>
        <g id="Graphic_11">
          <title>path124</title>
          <path d="M 186.77525 340.27267 C 187.60927 340.66883 188.07572 341.5735 187.91474 342.48268 C 187.75377 343.39187 187.00506 344.08137 186.08571 344.1671" stroke="black" stroke-linecap="round" stroke-linejoin="round" stroke-width="2"/>
        </g>
        <g id="Graphic_10">
          <title>path129</title>
          <path d="M 187.10578 312.2531 L 178.6177 312.2531 C 178.58423 314.9897 178.29814 317.7173 177.76308 320.40127 C 176.80474 320.3451 175.93912 320.9708 175.69191 321.8984 C 175.4447 322.826 175.88414 323.7995 176.74334 324.2277 C 178.51273 323.1938 180.58372 322.7995 182.60924 323.11085 L 182.60924 323.13027 L 182.67722 323.12056 L 182.75491 323.13027 L 182.75491 323.11085 C 184.78043 322.7995 186.85142 323.1938 188.6208 324.2277 C 189.63383 323.90065 190.27778 322.907 190.16255 321.84877 C 190.04732 320.79052 189.2046 319.95877 188.14493 319.8574 C 187.57985 317.35737 187.23216 314.8131 187.10578 312.2531 Z" fill="#FFFFFF"/>
          <path d="M 187.10578 312.2531 L 178.6177 312.2531 C 178.58423 314.9897 178.29814 317.7173 177.76308 320.40127 C 176.80474 320.3451 175.93912 320.9708 175.69191 321.8984 C 175.4447 322.826 175.88414 323.7995 176.74334 324.2277 C 178.51273 323.1938 180.58372 322.7995 182.60924 323.11085 L 182.60924 323.13027 L 182.67722 323.12056 L 182.75491 323.13027 L 182.75491 323.11085 C 184.78043 322.7995 186.85142 323.1938 188.6208 324.2277 C 189.63383 323.90065 190.27778 322.907 190.16255 321.84877 C 190.04732 320.79052 189.2046 319.95877 188.14493 319.8574 C 187.57985 317.35737 187.23216 314.8131 187.10578 312.2531 Z" stroke="black" stroke-linecap="round" stroke-linejoin="round" stroke-width="2"/>
        </g>
        <g id="Graphic_9">
          <title>path134</title>
          <path d="M 178.42396 297.49786 C 179.01568 302.2309 178.84189 307.02833 177.90924 311.70615 C 176.9509 311.64996 176.08528 312.27568 175.83808 313.2033 C 175.59087 314.1309 176.0303 315.1044 176.8895 315.53258 C 178.6589 314.4987 180.72988 314.1044 182.7554 314.41573 L 182.7554 314.43515 L 182.82338 314.42544 L 182.90108 314.43515 L 182.90108 314.41573 C 184.9266 314.1044 186.99758 314.4987 188.76697 315.53258 C 189.77999 315.20553 190.42394 314.2119 190.30871 313.15365 C 190.19348 312.0954 189.35076 311.26365 188.2911 311.1623 C 187.2759 306.68305 186.96138 302.07348 187.35877 297.49786 Z" fill="#FFFFFF"/>
          <path d="M 178.42396 297.49786 C 179.01568 302.2309 178.84189 307.02833 177.90924 311.70615 C 176.9509 311.64996 176.08528 312.27568 175.83808 313.2033 C 175.59087 314.1309 176.0303 315.1044 176.8895 315.53258 C 178.6589 314.4987 180.72988 314.1044 182.7554 314.41573 L 182.7554 314.43515 L 182.82338 314.42544 L 182.90108 314.43515 L 182.90108 314.41573 C 184.9266 314.1044 186.99758 314.4987 188.76697 315.53258 C 189.77999 315.20553 190.42394 314.2119 190.30871 313.15365 C 190.19348 312.0954 189.35076 311.26365 188.2911 311.1623 C 187.2759 306.68305 186.96138 302.07348 187.35877 297.49786 Z" stroke="black" stroke-linecap="round" stroke-linejoin="round" stroke-width="2"/>
        </g>
        <g id="Graphic_8">
          <title>path139</title>
          <path d="M 178.42396 277.56576 C 179.01516 283.87436 178.84136 290.26868 177.90924 296.50367 C 176.95293 296.4324 176.09042 297.2659 175.84363 298.49985 C 175.59684 299.7338 176.03355 301.02927 176.8895 301.60234 C 178.6592 300.22494 180.73016 299.70034 182.7554 300.11644 L 182.7554 300.14557 L 182.82338 300.12615 L 182.90108 300.14557 L 182.90108 300.11644 C 184.92631 299.70034 186.99728 300.22494 188.76697 301.60234 C 189.77999 301.16627 190.42394 299.84142 190.30871 298.43043 C 190.19348 297.01944 189.35076 295.91043 188.2911 295.7753 C 187.27665 289.8061 186.96214 283.66337 187.35877 277.56576 Z" fill="#FFFFFF"/>
          <path d="M 178.42396 277.56576 C 179.01516 283.87436 178.84136 290.26868 177.90924 296.50367 C 176.95293 296.4324 176.09042 297.2659 175.84363 298.49985 C 175.59684 299.7338 176.03355 301.02927 176.8895 301.60234 C 178.6592 300.22494 180.73016 299.70034 182.7554 300.11644 L 182.7554 300.14557 L 182.82338 300.12615 L 182.90108 300.14557 L 182.90108 300.11644 C 184.92631 299.70034 186.99728 300.22494 188.76697 301.60234 C 189.77999 301.16627 190.42394 299.84142 190.30871 298.43043 C 190.19348 297.01944 189.35076 295.91043 188.2911 295.7753 C 187.27665 289.8061 186.96214 283.66337 187.35877 277.56576 Z" stroke="black" stroke-linecap="round" stroke-linejoin="round" stroke-width="2"/>
        </g>
        <g id="Graphic_7">
          <title>path150</title>
          <path d="M 184.0627 185.10322 C 182.7625 184.08289 182.16565 182.40533 182.52921 180.79305 C 182.89278 179.18078 184.15184 177.92173 185.7641 177.55816 C 187.37638 177.1946 189.05394 177.79144 190.07427 179.09164 C 206.41507 180.87734 222.52602 184.35665 238.14742 189.4735 C 248.22157 192.73035 259.00484 193.11042 269.2833 190.57093 C 290.78516 186.0115 313.08335 193.30222 327.7383 209.68365 C 328.66366 211.16482 328.75167 213.02076 327.97063 214.58285 C 327.1896 216.14494 325.65202 217.1881 323.91187 217.3365 C 283.28377 228.58753 240.17733 227.0617 200.44642 212.96622 C 195.0179 212.22547 191.0171 207.5174 191.16199 202.0405 C 193.44847 195.41083 190.393 188.12116 184.0627 185.10322 Z" fill="#FFFFFF"/>
          <path d="M 184.0627 185.10322 C 182.7625 184.08289 182.16565 182.40533 182.52921 180.79305 C 182.89278 179.18078 184.15184 177.92173 185.7641 177.55816 C 187.37638 177.1946 189.05394 177.79144 190.07427 179.09164 C 206.41507 180.87734 222.52602 184.35665 238.14742 189.4735 C 248.22157 192.73035 259.00484 193.11042 269.2833 190.57093 C 290.78516 186.0115 313.08335 193.30222 327.7383 209.68365 C 328.66366 211.16482 328.75167 213.02076 327.97063 214.58285 C 327.1896 216.14494 325.65202 217.1881 323.91187 217.3365 C 283.28377 228.58753 240.17733 227.0617 200.44642 212.96622 C 195.0179 212.22547 191.0171 207.5174 191.16199 202.0405 C 193.44847 195.41083 190.393 188.12116 184.0627 185.10322 Z" stroke="black" stroke-linecap="round" stroke-linejoin="round" stroke-width="2"/>
        </g>
        <g id="Graphic_6">
          <title>path155</title>
          <path d="M 185.7036 177.9675 C 183.3513 173.50411 185.49905 168.26634 190.61775 165.98321 C 202.9463 160.0948 216.87072 156.99676 231.03804 156.99013 C 249.4046 154.43126 267.13193 149.29034 283.4815 141.78154 C 294.49705 138.66134 306.5485 139.49708 316.8122 144.09293 C 318.9535 145.00222 320.38862 146.77789 320.60974 148.79166 C 320.83086 150.80543 319.8068 152.77328 317.89992 153.99892 L 290.21173 168.87731 C 279.79544 172.47117 269.58637 176.4835 259.61972 180.90046 C 235.30886 186.15868 209.56952 185.13736 185.7036 177.9675 Z" fill="#FFFFFF"/>
          <path d="M 185.7036 177.9675 C 183.3513 173.50411 185.49905 168.26634 190.61775 165.98321 C 202.9463 160.0948 216.87072 156.99676 231.03804 156.99013 C 249.4046 154.43126 267.13193 149.29034 283.4815 141.78154 C 294.49705 138.66134 306.5485 139.49708 316.8122 144.09293 C 318.9535 145.00222 320.38862 146.77789 320.60974 148.79166 C 320.83086 150.80543 319.8068 152.77328 317.89992 153.99892 L 290.21173 168.87731 C 279.79544 172.47117 269.58637 176.4835 259.61972 180.90046 C 235.30886 186.15868 209.56952 185.13736 185.7036 177.9675 Z" stroke="black" stroke-linecap="round" stroke-linejoin="round" stroke-width="2"/>
        </g>
        <g id="Graphic_5">
          <title>path163</title>
          <path d="M 180.4373 185.10322 C 181.7375 184.08289 182.33435 182.40533 181.97079 180.79305 C 181.60722 179.18078 180.34816 177.92173 178.7359 177.55816 C 177.12362 177.1946 175.44606 177.79144 174.42573 179.09164 C 158.08493 180.87734 141.97398 184.35665 126.35258 189.4735 C 116.27843 192.73035 105.49516 193.11042 95.21671 190.57093 C 73.71484 186.0115 51.41665 193.30222 36.7617 209.68365 C 35.83634 211.16482 35.74833 213.02076 36.52937 214.58285 C 37.310415 216.14494 38.84798 217.1881 40.58813 217.3365 C 81.21623 228.58753 124.32267 227.0617 164.05358 212.96622 C 169.4821 212.22547 173.4829 207.5174 173.33801 202.0405 C 171.05153 195.41083 174.107 188.12116 180.4373 185.10322 Z" fill="#FFFFFF"/>
          <path d="M 180.4373 185.10322 C 181.7375 184.08289 182.33435 182.40533 181.97079 180.79305 C 181.60722 179.18078 180.34816 177.92173 178.7359 177.55816 C 177.12362 177.1946 175.44606 177.79144 174.42573 179.09164 C 158.08493 180.87734 141.97398 184.35665 126.35258 189.4735 C 116.27843 192.73035 105.49516 193.11042 95.21671 190.57093 C 73.71484 186.0115 51.41665 193.30222 36.7617 209.68365 C 35.83634 211.16482 35.74833 213.02076 36.52937 214.58285 C 37.310415 216.14494 38.84798 217.1881 40.58813 217.3365 C 81.21623 228.58753 124.32267 227.0617 164.05358 212.96622 C 169.4821 212.22547 173.4829 207.5174 173.33801 202.0405 C 171.05153 195.41083 174.107 188.12116 180.4373 185.10322 Z" stroke="black" stroke-linecap="round" stroke-linejoin="round" stroke-width="2"/>
        </g>
        <g id="Graphic_4">
          <title>path168</title>
          <path d="M 178.7964 177.9675 C 181.1487 173.50411 179.00095 168.26634 173.88225 165.98321 C 161.5537 160.0948 147.62928 156.99676 133.46196 156.99013 C 115.09539 154.43126 97.36807 149.29034 81.01852 141.78154 C 70.00295 138.66134 57.951505 139.49708 47.687796 144.09293 C 45.546484 145.00222 44.111377 146.77789 43.890257 148.79166 C 43.669137 150.80543 44.69319 152.77328 46.60008 153.99892 L 74.28827 168.87731 C 84.70456 172.47117 94.91363 176.4835 104.88028 180.90046 C 129.19114 186.15868 154.93048 185.13736 178.7964 177.9675 Z" fill="#FFFFFF"/>
          <path d="M 178.7964 177.9675 C 181.1487 173.50411 179.00095 168.26634 173.88225 165.98321 C 161.5537 160.0948 147.62928 156.99676 133.46196 156.99013 C 115.09539 154.43126 97.36807 149.29034 81.01852 141.78154 C 70.00295 138.66134 57.951505 139.49708 47.687796 144.09293 C 45.546484 145.00222 44.111377 146.77789 43.890257 148.79166 C 43.669137 150.80543 44.69319 152.77328 46.60008 153.99892 L 74.28827 168.87731 C 84.70456 172.47117 94.91363 176.4835 104.88028 180.90046 C 129.19114 186.15868 154.93048 185.13736 178.7964 177.9675 Z" stroke="black" stroke-linecap="round" stroke-linejoin="round" stroke-width="2"/>
        </g>
      </g>
    </g>
  </g>
</svg>
