<?xml version="1.0" encoding="UTF-8" standalone="no"?>
<!DOCTYPE svg PUBLIC "-//W3C//DTD SVG 1.1//EN" "http://www.w3.org/Graphics/SVG/1.1/DTD/svg11.dtd">
<svg xmlns:xl="http://www.w3.org/1999/xlink" xmlns="http://www.w3.org/2000/svg" xmlns:dc="http://purl.org/dc/elements/1.1/" version="1.1" viewBox="67.5 60.75 91.17036 355.5" width="91.17036" height="355.5">
  <defs>
    <clipPath id="artboard_clip_path">
      <path d="M 67.5 60.75 L 158.67036 60.75 L 158.67036 416.25 L 67.5 416.25 Z"/>
    </clipPath>
  </defs>
  <g id="Feather_(1)" stroke-opacity="1" stroke="none" stroke-dasharray="none" fill="none" fill-opacity="1">
    <title>Feather (1)</title>
    <g id="Feather_(1)_Layer_2" clip-path="url(#artboard_clip_path)">
      <title>Layer 2</title>
      <g id="Group_3">
        <g id="Graphic_10">
          <path d="M 102.28092 70.1774 C 100.75382 74.30059 99.074 78.11835 98.46316 79.03462 C 97.85232 79.79817 96.32521 85.75389 94.95081 92.01502 C 91.74389 106.82795 90.21678 112.63096 87.16257 121.03004 C 85.78818 124.6951 83.95565 133.2469 83.19209 140.11887 C 81.05415 158.74957 81.05415 236.4793 83.34481 248.84885 C 85.02462 258.62233 85.94089 263.20365 91.59118 287.48464 C 92.81286 292.98222 94.33997 300.15962 94.95081 303.51926 C 95.56166 306.8789 96.93605 311.76563 98.15774 314.51442 C 100.75382 321.08098 100.75382 321.08098 95.56166 321.08098 C 92.35473 321.08098 90.98034 321.84453 90.98034 323.52435 C 90.98034 325.05146 89.91136 325.6623 88.23155 325.20417 C 78.9162 323.21893 69.44814 338.6427 73.57132 349.33245 C 74.94572 352.6921 83.80294 357.1207 84.56649 354.83003 C 84.87191 353.76106 86.70444 353.60835 88.9951 354.0665 C 92.66015 354.98274 92.81286 354.83003 91.8966 351.16498 C 90.82763 346.88908 93.42371 343.83487 94.95081 347.65263 C 95.40895 349.02703 96.78334 350.096 97.85232 350.096 C 100.29569 350.096 100.75382 353.45564 103.19719 387.5101 C 104.11345 400.94865 105.64056 412.55465 106.40411 413.4709 C 108.38935 415.45616 111.29085 411.7911 114.65049 403.54473 C 116.63572 398.19985 117.24657 392.39685 117.24657 377.88934 C 117.09386 362.46556 117.39928 359.25864 119.2318 359.25864 C 120.45349 359.25864 121.52247 357.88424 121.52247 356.20443 C 121.52247 353.30293 126.4092 349.33245 128.08902 351.01227 C 128.54715 351.6231 128.39444 353.60835 127.47818 355.7463 C 125.64565 360.78575 125.64565 379.11102 127.63089 379.11102 C 128.54715 379.11102 129.158 377.73663 129.158 376.0568 C 129.158 374.5297 131.29595 370.71194 133.73932 367.96315 C 136.3354 365.06165 138.32064 362.00743 138.32064 361.09117 C 138.32064 358.03696 141.83298 357.2734 143.81822 360.0222 C 146.56701 363.68725 153.5917 362.00743 153.5917 357.73153 C 153.5917 356.0517 152.98086 354.67732 152.0646 354.67732 C 151.30104 354.67732 150.53749 352.53937 150.53749 350.096 C 150.53749 344.293 146.87243 336.9629 143.05467 334.82494 C 141.37485 334.0614 136.79353 333.29783 132.82305 333.29783 L 125.64565 333.29783 L 129.76884 330.0909 C 132.51763 327.95296 133.5866 325.96772 132.97576 324.1352 C 132.36492 322.30267 133.89203 319.7066 137.55708 316.34695 C 143.97093 310.23853 145.34532 305.5045 146.71972 284.58314 C 147.63598 272.06087 147.48327 268.54852 145.80346 267.47955 C 144.27635 266.56328 144.12364 265.79973 145.34532 264.88347 C 148.09412 263.05094 150.53749 253.8883 150.53749 245.64192 C 150.53749 220.59738 144.8872 168.21763 142.1384 168.21763 C 141.37485 168.21763 139.84774 171.27184 138.77877 174.9369 C 137.7098 178.60195 135.72455 182.57243 134.50287 183.6414 C 132.36492 185.47393 132.21221 185.16851 133.5866 181.96159 C 134.35016 179.97635 136.18269 171.88269 137.7098 164.09444 C 141.37485 143.93664 139.69503 126.68034 132.67034 110.3403 C 132.21221 109.11861 131.60137 107.74422 131.44866 107.28609 C 131.29595 106.82795 130.37968 104.38458 129.158 101.94121 C 128.08902 99.34513 124.42397 91.09876 121.06433 83.61594 C 114.95591 69.71927 110.37459 63 106.86224 63 C 105.79327 63 103.80803 66.20692 102.28092 70.1774 Z" fill="black"/>
        </g>
        <g id="Graphic_9">
          <path d="M 113.73422 75.52227 C 114.8032 78.27106 118.31554 86.21202 121.67518 93.084 C 124.8821 100.10869 127.63089 106.36982 127.63089 107.13337 C 127.63089 107.74422 129.00529 111.56198 130.6851 115.53246 C 132.51763 119.35023 134.961 127.74931 136.18269 134.16316 C 138.01521 144.54748 138.01521 147.44898 136.02998 159.055 C 133.73932 172.1881 124.72939 199.82873 120.6062 206.08987 C 119.38452 208.0751 119.0791 209.75492 119.99536 210.36577 C 120.75891 210.8239 122.59144 209.2968 123.96584 207.00613 C 125.49294 204.71547 128.24173 200.28686 130.22697 197.23265 C 132.0595 194.33115 133.73932 191.12423 133.73932 190.20796 C 133.73932 189.2917 134.80829 187.61188 136.18269 186.5429 C 137.55708 185.47393 139.38961 182.72514 140.15316 180.5872 L 141.83298 176.76943 L 142.90195 182.1143 C 144.58177 189.2917 147.48327 229.4546 147.48327 243.35127 C 147.48327 253.27746 146.87243 255.87354 141.98569 265.3416 C 138.93148 271.1446 134.50287 278.93284 132.0595 282.5979 C 125.95107 291.76054 123.04957 297.56354 124.11855 298.78523 C 125.34023 299.8542 136.02998 288.2482 139.2369 282.4452 C 142.90195 275.5732 144.42906 277.55845 143.5128 288.5536 C 142.29111 303.9774 139.2369 310.84937 130.22697 318.79032 C 124.27126 323.9825 122.43873 326.73127 122.13331 330.39633 C 121.9806 332.9924 121.06433 335.8939 120.14807 336.81018 C 115.87217 341.08607 121.67518 342.6132 127.02005 338.6427 C 130.6851 335.8939 134.961 335.7412 140.30587 338.18457 C 145.0399 340.47523 147.48327 345.20926 147.48327 352.38666 C 147.48327 358.8005 144.8872 359.41135 143.5128 353.45564 C 142.1384 347.80534 140.00045 345.5147 136.4881 345.5147 C 134.19745 345.5147 133.73932 346.12553 134.50287 348.26347 C 136.94624 353.91377 136.94624 357.57882 134.65558 362.16014 C 133.28118 364.75622 131.44866 366.89417 130.6851 366.89417 C 128.54715 366.89417 128.69987 358.8005 130.83781 356.66256 C 133.28118 354.2192 131.90679 347.95805 128.54715 347.3472 C 127.02005 347.0418 123.81312 348.11076 121.36975 349.9433 C 119.0791 351.7758 116.78844 353.1502 116.48301 353.1502 C 115.71946 353.1502 114.65049 341.5442 112.35983 310.39124 C 111.59627 299.09065 110.22188 282.90332 109.30561 274.50424 C 106.86224 253.27746 109.00019 188.22272 113.58151 146.2273 C 115.41404 130.19268 114.19235 94.6111 111.9017 93.23671 C 108.84748 91.40418 108.23664 96.13821 107.16766 126.83305 C 106.55682 143.02038 105.48785 159.51312 104.7243 163.4836 C 102.28092 176.61672 100.90653 211.28203 100.90653 260.45486 C 100.90653 287.0265 100.4484 308.86413 99.83755 308.86413 C 99.074 308.86413 98.61587 308.406 98.61587 307.64244 C 98.61587 307.0316 97.5469 301.68673 96.32521 295.88373 C 94.95081 289.928 92.50744 278.322 90.82763 269.92292 C 89.14781 261.52383 87.00986 251.59764 86.24631 247.77987 C 84.56649 239.6862 83.95565 152.79386 85.63546 141.64598 C 86.24631 137.37008 87.77341 131.10895 88.9951 127.5966 L 91.43847 121.03004 L 95.56166 127.74931 C 99.68484 134.16316 102.73906 137.21737 103.96074 135.99569 C 104.26616 135.69026 102.28092 132.02521 99.37942 127.90202 C 95.25624 121.9463 94.18726 118.73938 94.03455 112.93638 C 94.03455 108.9659 94.7981 105.75898 95.56166 105.75898 C 96.47792 105.75898 97.08876 106.52253 97.08876 107.59151 C 97.08876 110.18759 103.50261 124.08426 104.877 124.08426 C 105.94598 124.08426 99.83755 102.85748 97.85232 99.65055 C 96.78334 97.97074 99.99026 83.92136 103.19719 75.9804 C 103.96074 74.30059 104.877 71.70451 105.33514 70.1774 C 106.55682 66.20692 111.44356 69.26114 113.73422 75.52227 Z" fill="#FFFFFF"/>
        </g>
        <g id="Graphic_8">
          <path d="M 112.35983 116.75415 C 112.35983 127.90202 111.59627 143.93664 110.83272 152.33572 C 109.91646 160.7348 108.84748 173.10437 108.54206 179.82364 C 108.08393 186.5429 107.47309 195.0947 107.01495 198.91247 C 104.41887 223.34617 107.16766 298.93794 112.35983 338.18457 C 114.65049 356.20443 115.71946 389.9535 114.19235 395.14564 C 113.4288 398.19985 111.9017 399.72696 109.91646 399.72696 C 105.94598 399.72696 105.33514 392.24414 103.80803 324.89875 C 101.9755 254.49914 102.73906 196.3164 105.33514 178.29653 C 105.79327 175.70045 106.55682 168.21763 107.16766 161.49836 C 107.6258 154.7791 108.38935 148.67067 108.84748 148.05983 C 109.30561 147.29627 109.45832 135.53755 109.45832 121.64089 C 109.30561 105.60627 109.76375 96.59634 110.83272 96.59634 C 111.74898 96.59634 112.35983 104.07916 112.35983 116.75415 Z" fill="#FFFFFF"/>
        </g>
        <g id="Graphic_7">
          <path d="M 101.67008 327.1894 C 101.67008 327.95296 101.05924 328.7165 100.29569 328.7165 C 99.37942 328.7165 98.31045 327.95296 97.85232 327.1894 C 97.39418 326.27314 98.00503 325.6623 99.22671 325.6623 C 100.60111 325.6623 101.67008 326.27314 101.67008 327.1894 Z" fill="#FFFFFF"/>
        </g>
        <g id="Graphic_6">
          <path d="M 96.01979 331.1599 C 101.67008 332.22886 101.67008 332.22886 101.67008 339.55897 C 101.67008 346.88908 99.83755 349.48516 98.00503 344.75113 C 96.78334 341.3915 91.43847 342.00234 88.68968 345.8201 L 86.0936 349.33245 L 86.70444 345.20926 C 87.77341 339.10084 83.49752 338.18457 79.22162 343.52944 L 75.70927 347.80534 L 75.70927 342.15505 C 75.70927 332.22886 81.8177 328.86922 96.01979 331.1599 Z" fill="#FFFFFF"/>
        </g>
        <g id="Graphic_5">
          <path d="M 83.80294 351.6231 C 82.73396 352.8448 80.4433 347.95805 81.35957 346.43095 C 81.97041 345.6674 82.88667 346.27824 83.34481 347.95805 C 83.95565 349.48516 84.26107 351.16498 83.80294 351.6231 Z" fill="#FFFFFF"/>
        </g>
        <g id="Graphic_4">
          <path d="M 110.83272 405.68268 C 110.83272 406.1408 110.22188 406.90436 109.30561 407.3625 C 108.54206 407.8206 107.77851 407.5152 107.77851 406.75165 C 107.77851 405.8354 108.54206 405.07183 109.30561 405.07183 C 110.22188 405.07183 110.83272 405.37725 110.83272 405.68268 Z" fill="#FFFFFF"/>
        </g>
      </g>
    </g>
  </g>
</svg>
