<?xml version="1.0" encoding="UTF-8" standalone="no"?>
<!DOCTYPE svg PUBLIC "-//W3C//DTD SVG 1.1//EN" "http://www.w3.org/Graphics/SVG/1.1/DTD/svg11.dtd">
<svg xmlns="http://www.w3.org/2000/svg" xmlns:xl="http://www.w3.org/1999/xlink" version="1.1" xmlns:dc="http://purl.org/dc/elements/1.1/" viewBox="36 81 351 108" width="351" height="108">
  <defs>
    <clipPath id="artboard_clip_path">
      <path d="M 36 81 L 387 81 L 387 189 L 36 189 Z"/>
    </clipPath>
  </defs>
  <g id="Fox_Courant_(3)" stroke-opacity="1" fill="none" fill-opacity="1" stroke-dasharray="none" stroke="none">
    <title>Fox Courant (3)</title>
    <g id="Fox_Courant_(3)_Layer_2" clip-path="url(#artboard_clip_path)">
      <title>Layer 2</title>
      <g id="Group_677">
        <g id="Graphic_698">
          <path d="M 379.6208 100.27873 C 377.63937 101.76642 374.03143 103.29272 371.35613 103.81697 C 370.379 104.0027 368.63032 104.3377 367.50172 104.51281 C 364.10886 105.1393 350.63527 105.51747 348.0271 105.08074 C 346.72475 104.83709 344.6791 104.33809 343.43786 103.94624 C 339.16576 102.63063 336.6621 102.1504 331.81437 101.811 C 327.6736 101.5211 327.12167 101.43164 327.972 100.88126 C 328.5017 100.56257 330.0989 100.21696 331.52343 100.16422 C 333.09944 100.12208 334.03312 99.83167 333.95685 99.47055 C 333.71746 98.53893 326.2923 96.59597 321.64655 96.27072 C 318.77175 96.01863 316.17167 96.19237 313.74885 96.73431 C 311.7911 97.15632 310.0929 97.49486 310.0424 97.49132 C 309.9919 97.48779 308.33818 98.64265 306.4143 100.03272 C 303.9067 101.78853 302.38224 102.54583 301.3723 102.47513 C 300.61484 102.4221 298.62072 102.63826 296.97302 102.98034 C 295.3253 103.32241 291.20783 104.1523 287.81497 104.7788 C 284.41857 105.45587 280.34805 106.33987 278.79074 106.84075 C 275.26862 107.8648 264.42754 110.51112 263.05 110.61797 C 260.74936 110.86351 255.63003 112.23317 251.9317 113.60066 C 249.7942 114.4167 247.5557 115.22566 246.98257 115.43966 C 246.41297 115.60309 244.90263 116.15808 243.60134 116.62605 C 242.30006 117.09403 240.07216 117.75126 238.67695 118.11101 C 236.2001 118.69999 235.8971 118.67877 233.33485 117.58453 C 227.82047 115.16544 218.21188 114.69604 211.6938 116.47602 C 208.6403 117.32958 204.83285 118.07953 203.15232 118.16517 C 202.59332 118.17686 201.77123 118.32261 201.35666 118.44606 C 200.94208 118.56951 198.6238 119.06794 196.20803 119.50871 C 193.79228 119.94949 190.7024 120.5972 189.26375 120.85226 C 187.87206 121.16143 186.02237 121.48936 185.15686 121.53041 C 184.3383 121.62558 182.49921 121.80178 181.06763 121.95568 C 179.68654 122.11311 178.41705 122.12589 178.32312 122.01766 C 178.2292 121.90943 178.43014 121.21194 178.7861 120.47448 C 179.8 118.30915 180.3195 115.95672 179.8827 115.67201 C 179.6408 115.5026 177.78156 116.6939 175.685 118.37683 C 170.73546 122.4013 165.80046 124.03799 159.7408 123.61375 C 156.71098 123.40163 155.16323 123.03914 153.89623 122.2897 L 152.19241 121.25556 L 153.86942 121.22049 C 157.32795 121.10685 155.52563 119.30343 150.17438 117.45484 C 147.39953 116.49819 145.32208 116.4544 138.98625 117.07815 C 137.09313 117.30139 134.96519 117.25406 134.22186 116.99872 L 132.83267 116.54568 L 134.4253 115.53902 C 138.35284 113.06942 138.83558 112.69661 138.87797 112.08967 C 138.94155 111.17927 138.42952 111.24507 137.19743 112.17532 C 135.42152 113.62658 131.053 112.96495 126.80104 110.63425 C 124.79778 109.52832 123.04346 108.49064 122.90257 108.3283 C 122.76168 108.16596 121.88452 107.64712 120.95334 107.17532 C 115.64448 104.7198 115.05264 104.47506 110.55735 103.44878 C 108.4612 102.94625 108.31678 102.83449 107.57739 100.3431 C 106.40264 96.09316 103.3412 89.06821 101.80196 87.13073 C 99.94457 84.66272 98.77856 83.92036 98.69731 85.08365 C 98.39954 88.62059 95.31052 97.24796 94.30411 97.12668 C 94.15262 97.11607 93.51278 96.10559 92.88353 94.94338 C 91.63211 92.51779 86.63828 88.45791 84.76989 88.3271 C 83.75994 88.25639 83.64482 88.45163 83.88422 89.38325 C 84.53778 92.37689 84.78986 94.58003 84.85263 98.04056 C 84.97713 104.24999 84.86658 105.10628 84.26062 105.06386 C 83.45266 105.00729 79.588295 108.75196 77.29536 111.79343 C 74.21422 115.94871 72.9998 116.62607 63.01468 120.0947 C 55.059005 122.84137 52.36001 124.4313 52.81304 125.93695 C 52.93627 126.35219 54.30884 127.76974 55.8435 129.04617 C 57.37463 130.37318 59.512765 132.45424 60.639916 133.75297 C 61.76707 135.05169 62.81089 136.09045 63.012875 136.1046 C 63.21133 136.16932 64.358635 136.45294 65.6034 136.79422 C 66.99966 137.1461 68.76706 137.26983 70.3067 137.02185 C 72.40534 136.76217 72.90678 136.8481 73.71225 137.66688 C 74.70557 138.7021 77.677835 139.01185 80.71722 138.3606 C 82.88049 137.90215 88.84269 138.26874 88.80383 138.8251 C 88.77557 139.22973 84.06624 139.81488 70.36698 141.24458 C 63.62364 141.89064 62.80156 142.03638 55.58006 143.7163 C 47.94752 145.46908 45.81002 146.28512 44.51435 148.12578 C 43.895294 148.9973 43.46763 150.03469 43.59086 150.44992 C 43.714093 150.86515 43.304093 151.64965 42.652204 152.26475 C 42.054345 152.8328 41.345937 154.25714 41.11673 155.35925 C 40.740606 157.11181 40.85324 157.67878 41.742035 158.75751 C 42.396007 159.56568 43.42112 160.1457 44.279573 160.2058 C 45.03703 160.25884 45.679363 160.5071 45.6617 160.76 C 45.598115 161.6704 48.86485 163.57636 50.63225 163.7001 C 52.147165 163.80615 52.99398 163.30636 56.711426 160.21214 C 59.0852 158.19283 61.61046 156.18413 62.24822 155.77135 C 64.1615 154.53301 66.50203 154.44275 68.60982 155.50518 C 69.63847 156.03462 70.52622 156.40173 70.52975 156.35115 C 72.26015 153.37194 73.53214 152.59696 76.15799 152.7808 C 76.86495 152.8303 78.43389 152.88931 79.69632 152.9777 C 80.95875 153.06608 82.4267 153.11803 82.98217 153.15692 C 87.68193 153.43513 89.38117 153.80822 91.97981 155.10831 C 95.11625 156.70019 95.77728 157.4072 94.00282 157.38462 C 90.10394 157.26413 87.96187 157.41911 85.44512 157.85282 C 83.90547 158.1008 79.35824 158.54483 75.4311 158.82897 C 63.70725 159.58376 59.0929 160.98877 55.52092 164.90639 C 54.47316 166.10367 52.452866 168.14772 50.987 169.51903 C 48.91621 171.55955 48.401683 172.38756 48.29924 173.85433 C 48.083756 176.9396 50.49204 178.78545 53.112275 177.5966 C 53.89799 177.245 54.24441 177.37091 54.79032 178.27317 C 55.37613 179.33069 55.77658 179.40955 59.4265 179.46178 C 64.19443 179.49064 66.06531 178.85924 66.599994 177.01613 C 67.40378 174.22617 70.553716 172.71864 75.04796 173.03328 C 77.16884 173.18177 78.504 173.68185 81.084975 175.23483 C 82.88625 176.32663 84.41281 176.99258 84.53146 176.74676 C 84.89803 175.85757 91.18128 173.80701 95.85777 172.96543 C 101.81788 171.90877 105.99148 172.4551 111.39427 175.01884 C 113.55609 176.03423 115.38562 176.7214 115.50075 176.52615 C 116.17279 174.89596 116.63433 174.82662 118.07153 176.0454 C 119.27037 177.0442 119.44057 177.51354 119.03763 178.19689 C 117.95455 179.89995 118.79534 180.21294 120.76618 178.87698 C 121.62005 178.27603 122.54313 178.13736 123.59297 178.36333 C 124.99276 178.66464 125.13012 178.87755 124.88326 180.23256 C 124.54703 182.14039 125.57568 182.66983 126.15379 180.93142 C 126.59912 179.64113 126.59912 179.64113 131.38221 180.1793 C 134.00453 180.41372 136.28044 180.52223 136.39203 180.37757 C 136.50362 180.2329 138.38615 180.1614 140.56459 180.21226 C 142.7395 180.3137 145.43351 180.24819 146.56211 180.07307 C 147.69071 179.89796 149.5298 179.72177 150.65134 179.6478 C 151.7764 179.52327 153.26202 179.32233 153.98664 179.11893 C 154.71126 178.91554 158.42124 178.10794 162.23221 177.30742 C 166.03965 176.55747 169.76376 175.54756 170.5025 175.14185 C 171.87549 174.37394 173.912 173.55083 177.4952 172.37858 C 179.8347 171.5767 179.5953 170.64507 176.97298 170.41065 C 176.11806 170.29998 175.27374 170.03756 175.13638 169.82464 C 174.87225 169.24707 177.27637 168.2464 180.15367 167.73628 C 181.44082 167.47062 182.99106 167.0709 183.61822 166.80985 C 184.29588 166.55235 186.22537 166.53495 188.28516 166.83164 C 190.24395 167.12125 191.86339 167.1838 191.88105 166.93091 C 191.9199 166.37455 189.4788 164.27228 188.72133 164.21925 C 187.4589 164.13087 188.02393 163.3064 189.7398 162.71496 C 190.67347 162.42455 192.76858 162.21545 194.38448 162.32859 C 197.31332 162.53364 197.31332 162.53364 197.1562 161.15035 C 196.9592 159.6118 197.64393 159.25312 200.26978 159.43696 C 204.91552 159.76222 207.71614 161.07645 214.50418 166.32928 C 216.6236 167.9516 219.0531 169.49398 219.8469 169.75286 C 220.69123 170.01528 221.57546 170.43296 221.8643 170.65649 C 222.38798 171.15058 228.03764 172.35932 228.06237 172.00528 C 228.06943 171.90412 227.59875 170.65135 226.98716 169.23625 C 225.90136 166.61896 225.91092 165.7556 227.00877 166.74731 C 228.2475 167.90137 236.05754 171.59934 238.64806 172.28896 C 243.8796 173.67174 248.76973 173.4042 248.88277 171.7857 C 248.91103 171.38107 248.54944 170.74584 248.06567 170.40702 C 247.1486 169.73291 248.70696 169.94366 256.26138 171.48907 C 260.51478 172.34593 264.7237 172.38647 268.93865 171.61423 C 272.89758 170.8749 273.31922 170.65028 273.41107 169.33525 C 273.52764 167.66617 276.80932 164.99887 278.90443 164.78977 C 280.538 164.65001 284.67732 166.41375 291.36935 170.1351 C 292.74088 170.84102 294.30733 171.66225 294.94966 171.91052 C 295.9384 172.2847 300.96507 176.601 301.74934 177.72325 C 302.5336 178.8455 305.87308 181.16314 309.006 182.8056 C 316.1126 186.40348 320.79614 185.46075 324.55286 179.6247 C 325.85912 177.6323 325.86868 176.76894 324.6981 175.36553 C 324.185 174.7197 323.93502 173.93981 324.10418 173.69753 C 324.32736 173.4082 324.3874 172.54837 324.24195 171.72498 C 324.0813 170.39227 323.07385 169.55936 321.3711 169.23684 C 321.12213 169.16859 320.44343 168.71447 319.97025 168.2239 C 319.0239 167.2428 318.28056 166.98745 316.60356 167.02252 C 315.38103 167.0894 315.4951 166.18253 316.73177 165.91334 C 317.50336 165.76405 317.78764 165.32653 317.8431 163.80565 C 317.92083 162.69293 318.04905 161.58374 318.1172 161.33439 C 318.51203 160.04056 318.18224 158.95014 316.8344 157.17854 C 315.11084 154.97402 314.7104 154.89516 312.278 156.30046 C 310.47986 157.34355 310.42937 157.34002 309.28455 156.29419 C 308.4791 155.47541 307.68526 155.21653 306.2572 155.31986 C 305.13568 155.39381 304.3348 155.2361 304.356 154.93262 C 304.47256 153.26354 301.52896 150.3637 299.12982 149.83996 C 298.72938 149.7611 296.51 148.84334 294.19315 147.86793 C 291.87984 146.84194 289.01812 145.6759 287.78042 145.23347 C 283.6704 143.77674 281.90903 142.84021 279.3669 140.73087 C 277.97668 139.5662 276.63694 138.40507 276.35516 138.08039 C 276.12033 137.80982 275.22094 136.88282 274.419 136.01347 C 272.99947 134.5418 272.94898 134.53826 271.27655 135.23438 C 270.3358 135.62595 268.27 136.14205 266.67986 136.3865 C 264.1631 136.8202 263.30466 136.7601 260.57677 135.85757 C 257.94634 135.01268 257.56003 134.7315 258.49017 134.49167 C 260.3035 133.9579 259.9843 132.71573 257.88815 132.2132 C 256.8383 131.98722 255.44558 131.58477 254.74922 131.38354 C 252.1188 130.53865 257.0488 130.42637 264.66328 131.11194 C 272.22725 131.79398 272.62416 131.92342 282.12886 135.33343 C 283.2186 135.71468 284.45983 136.10653 284.86028 136.18539 C 285.26072 136.26425 287.50483 136.82797 289.84994 137.39876 C 296.83123 139.15816 299.6414 139.60903 304.1639 139.51905 C 307.3629 139.48889 308.4915 139.31377 308.53035 138.75741 C 308.56214 138.30221 308.02434 138.01043 307.1154 137.9468 C 304.08556 137.73467 300.67336 135.00533 300.8182 132.93163 C 300.89237 131.86949 300.98984 131.92713 302.70882 133.4706 C 306.33112 136.82455 313.44728 139.55908 319.6044 140.04097 C 323.9941 140.39913 330.47437 139.88713 331.59133 139.15212 C 331.90845 138.97102 332.8386 138.73119 333.65714 138.63602 C 334.5262 138.54439 336.22792 138.15527 337.47165 137.78492 C 338.76587 137.4181 340.66252 137.14428 341.7265 137.16794 C 344.2584 137.24356 344.33613 136.13084 341.89003 135.55298 C 337.69773 134.54791 338.07947 134.16804 343.62605 133.94645 C 352.8907 133.52774 353.8784 133.19029 360.13277 128.64726 C 361.8981 127.34774 361.7491 126.57493 359.75497 126.7911 C 358.4784 126.90503 358.64403 126.71332 361.0365 125.15275 C 367.20857 121.0614 374.6343 113.55085 377.6922 108.27578 C 378.67427 106.56565 379.8114 104.81554 380.14263 104.43213 C 380.744 103.8135 382.26432 100.20968 382.3279 99.29927 C 382.37736 98.59117 381.28513 98.97214 379.6208 100.27873 Z" fill="black"/>
        </g>
        <g id="Graphic_697">
          <path d="M 328.9869 98.76648 C 329.71244 99.27471 329.7089 99.32529 328.99846 99.32638 C 328.54403 99.29456 327.65733 99.63909 327.06296 100.15657 C 326.42164 100.61993 324.8396 101.47487 323.53124 102.04402 C 322.2229 102.61316 321.15284 103.4023 321.1316 103.70577 C 321.07494 104.51502 321.6773 104.60802 322.43378 103.94941 C 323.4064 103.10263 330.4487 102.52832 334.1205 102.98869 C 336.08262 103.22771 339.33276 103.9127 341.3711 104.51284 C 346.98467 106.22734 351.46788 106.69369 359.0045 106.30646 C 368.83454 105.77484 372.3858 105.05777 379.75666 101.96514 C 380.0162 101.88166 379.54144 102.86494 378.7425 104.1305 C 377.94 105.44662 376.89655 107.30497 376.37484 108.23415 C 374.91423 110.97817 370.1859 116.1872 365.6577 119.98712 C 359.72464 125.01016 355.36733 127.09394 351.4794 126.82174 C 350.57055 126.75811 349.954 126.86743 350.09133 127.08035 C 350.28267 127.24622 349.99834 127.68375 349.46863 128.00245 C 348.66875 128.55637 348.8167 128.61755 350.5981 128.53896 C 351.716 128.51558 354.00587 128.42176 355.6792 128.43726 L 358.73 128.34589 L 357.1267 129.5043 C 354.24076 131.58944 351.3388 132.45363 346.56065 132.57654 C 344.0148 132.70326 340.9569 132.89578 339.77433 133.11795 C 338.5448 133.286 336.81036 133.4187 335.952 133.3586 C 335.0431 133.29498 334.27157 133.44426 334.25386 133.69716 C 334.21845 134.20294 335.78818 134.97358 337.29233 135.23137 C 337.7937 135.3173 338.3385 135.50792 338.47936 135.67026 C 338.75753 136.04552 334.53308 137.68116 332.7375 137.96206 C 332.1245 138.0208 330.6319 138.32291 329.34127 138.63916 C 328.05063 138.95541 326.6767 139.0117 326.29047 138.73053 C 325.9007 138.49994 324.87222 137.9705 323.9917 137.50224 L 322.41842 136.78217 L 324.54527 136.11786 C 328.43136 134.96679 328.57654 132.89307 324.84364 132.5809 C 323.93477 132.51727 322.49173 132.11128 321.6112 131.64302 C 320.73066 131.17476 319.35582 130.51942 318.52224 130.10528 L 317.0535 129.3417 L 318.8597 128.90907 C 321.23546 128.313 327.20052 125.73187 327.23593 125.22608 C 327.2501 125.02377 324.58108 124.73525 321.346 124.55959 L 315.37728 124.29419 L 318.93562 123.47596 C 322.80046 122.62836 325.14345 121.77587 329.9224 119.46748 C 331.65593 118.62314 334.17164 117.47779 335.52694 116.96276 C 338.2951 115.83507 339.05066 114.46483 336.74663 114.76096 C 335.92812 114.85614 332.92428 115.00162 329.97093 115.15063 C 319.08763 115.50686 315.7702 115.78287 312.071 116.43876 C 306.9802 117.40383 306.83225 117.34265 309.89537 115.6257 C 312.16924 114.31093 319.04134 110.37016 319.62154 110.055 C 319.6791 109.95737 319.69682 109.70448 319.51256 109.43745 C 319.3788 109.17395 317.29443 109.23133 314.7849 109.5639 C 312.32583 109.9 310.2344 110.05853 310.18744 110.00442 C 310.1405 109.9503 311.48425 108.87538 313.2461 107.62642 C 317.09757 104.79565 317.35266 104.05112 314.40285 104.14955 C 313.18395 104.16587 310.43965 104.22787 308.25785 104.2276 C 304.60822 104.17539 304.3593 104.10714 304.8704 103.3297 C 306.2956 101.09146 310.1081 98.81706 314.2936 97.73778 C 316.7739 97.09821 318.24527 97.09957 322.72493 97.6165 C 325.6969 97.92622 328.5502 98.48177 328.9869 98.76648 Z" fill="#FFFFFF"/>
        </g>
        <g id="Graphic_696">
          <path d="M 104.44634 95.04134 L 104.44634 95.04134 C 103.2772 92.16409 101.72529 88.95508 100.98445 87.93753 C 99.64014 86.11535 99.58964 86.11181 99.50133 87.37627 C 99.38829 88.99477 98.124 92.56569 95.71907 97.9373 C 93.97205 101.88103 93.76051 102.73025 93.71169 106.33544 C 93.64625 110.90515 93.03675 110.91331 92.44926 106.24706 L 92.05878 103.11936 L 89.97531 103.88836 C 88.82904 104.31636 87.40204 105.13131 86.80418 105.69936 C 86.25682 106.27095 84.33294 107.66102 82.53126 108.7547 C 80.46296 110.033 78.78098 111.59249 77.70849 113.14382 C 76.17904 115.42554 72.212635 118.4515 70.798715 118.35251 C 70.445235 118.32777 69.71355 118.63232 69.180316 119.00159 C 68.59659 119.36733 67.763905 119.66481 67.356395 119.6871 C 66.14446 119.60226 54.63945 124.48923 54.39154 125.13261 C 54.265816 125.47958 55.29197 126.77124 56.67514 128.03706 C 59.39098 130.56517 60.223665 130.26769 58.964134 127.23163 C 58.52628 126.2353 58.47121 125.5707 58.78832 125.3896 C 59.419015 125.07798 60.57755 128.10697 60.62411 130.34655 C 60.7727 133.30483 63.84556 135.80711 67.636375 136.02169 C 68.8988 136.11007 72.122514 135.72586 74.79782 135.2016 C 77.47313 134.67735 79.780825 134.33066 79.87122 134.48946 C 79.96515 134.59769 80.62868 134.5425 81.3028 134.33556 C 82.08146 134.08512 82.63693 134.12401 82.81419 134.4922 C 83.21567 135.28269 82.74354 135.50376 80.30201 135.58696 C 77.19696 135.72535 74.71304 136.41548 75.02413 137.04717 C 75.342285 137.5777 75.95178 137.56954 82.83955 137.03525 C 84.88063 136.8732 86.79246 137.1087 89.87736 137.9854 C 93.3122 138.93744 95.22403 139.17294 100.14698 139.16182 C 103.49746 139.14226 106.90196 139.07566 107.77454 138.93345 L 109.31418 138.68546 L 107.39778 137.78891 C 105.53188 136.8959 103.27862 135.01008 103.32101 134.40314 C 103.3316 134.2514 105.00861 134.21634 106.978 134.35421 C 110.4118 134.59462 114.01019 133.93169 114.07024 133.07186 C 114.08437 132.86954 112.46742 132.04478 110.54396 131.24939 C 107.43682 129.96452 106.95657 129.57512 106.87927 128.50237 C 106.85952 127.332 106.86305 127.28142 107.50996 128.19075 C 108.42806 129.57649 113.91667 131.63799 116.01531 131.37831 C 118.57196 131.09988 118.15136 132.03612 114.92974 133.84359 C 113.08109 134.88315 111.21373 135.46397 109.47917 135.59666 C 108.00062 135.69645 106.7675 135.91507 106.75337 136.11738 C 106.71451 136.67374 108.6016 137.26329 111.12646 137.44005 C 112.2879 137.52137 113.22968 137.84143 113.20849 138.1449 C 113.1555 138.90357 109.8389 139.89119 106.93584 140.04372 C 105.56181 140.1 104.43675 140.22453 104.42968 140.32569 C 104.42262 140.42684 104.81351 141.36907 105.2443 142.46657 C 105.72558 143.5676 106.21144 145.32968 106.33925 146.40596 L 106.55849 148.35268 L 108.22281 147.04609 C 111.12982 144.6575 116.70755 141.08362 119.54038 139.75719 C 121.00728 139.0975 122.50245 138.0332 122.7938 137.49451 C 123.08514 136.95583 124.47474 135.2234 125.9007 133.69682 C 128.04672 131.30579 128.4214 131.02706 128.34721 132.0892 C 128.25079 132.74319 127.49895 134.06284 126.62388 134.96726 C 124.49553 137.1054 124.51423 137.56414 126.77392 136.4517 C 128.87859 135.37924 130.3829 135.63703 128.48376 136.67306 C 127.26934 137.35042 122.17682 139.78929 119.81967 140.84408 C 116.31273 142.37744 107.65883 148.5822 105.98848 150.70157 C 105.21087 151.66364 104.20301 153.0162 103.64859 153.68893 C 103.14466 154.36521 101.83382 155.69655 100.80019 156.69152 C 99.2298 158.10634 98.5486 158.41443 96.82817 158.3448 C 95.7137 158.3176 94.23868 158.36681 93.51406 158.57021 L 92.2269 158.83587 L 93.59843 159.5418 C 94.38519 159.90184 95.22598 160.21483 95.47847 160.2325 C 95.73095 160.25018 95.91175 160.5678 95.88349 160.97242 C 95.82697 161.78167 94.02528 162.87534 90.57943 164.26051 L 88.22934 165.21414 L 89.99321 165.38845 C 91.95907 165.57691 96.16591 164.1942 96.22596 163.33437 C 96.24363 163.08148 96.51377 162.84626 96.76626 162.86394 C 97.67521 162.92757 97.20411 163.86028 95.64079 165.17394 C 93.16249 167.23675 92.57876 167.6025 90.34733 168.3103 C 87.80585 169.09805 87.60843 169.74496 89.76568 170.0993 C 91.87243 170.4501 91.9674 171.26995 89.9309 172.09306 C 87.32126 173.13017 87.40916 174.05118 90.0587 173.16934 C 92.08814 172.4474 94.55793 171.95957 99.72879 171.30508 C 102.64599 170.95023 107.54525 172.0048 111.27706 173.79082 L 114.75991 175.5086 L 115.64205 174.50302 C 116.68628 173.35632 120.53049 170.62675 121.08596 170.66564 C 121.28795 170.67978 121.2759 172.30536 121.09117 174.2238 L 120.7429 177.7572 L 122.13354 176.7364 C 122.88289 176.17895 124.66233 174.67711 126.0671 173.454 C 127.42491 172.17677 128.64993 171.34768 128.7873 171.5606 C 128.87416 171.76998 128.52276 173.1685 127.91888 174.54933 C 127.36196 175.98428 127.0247 177.18048 127.22668 177.19462 C 127.37818 177.20523 128.23559 176.5537 129.15409 175.75397 C 130.0221 174.9507 131.61826 173.89347 132.76805 173.41489 C 135.43525 172.28016 137.60704 170.2467 139.06022 167.60387 C 139.70047 166.42888 140.43465 165.36212 140.69773 165.22806 C 141.38246 164.8694 141.69459 166.21271 141.07907 167.03365 C 140.79832 167.4206 140.4833 169.02496 140.37378 170.59289 C 140.21129 172.91948 140.40725 173.74641 141.37585 175.13569 C 142.4924 176.58614 145.3774 178.87197 145.41979 178.26503 C 145.43038 178.1133 144.989 177.16754 144.50418 176.11709 C 143.7012 174.5361 143.6027 173.76683 144.07171 171.41086 C 144.79466 167.59874 147.71973 162.7718 151.12007 159.85868 C 152.6329 158.54148 154.61683 156.29158 155.42976 154.82373 C 156.97688 152.28912 156.98748 152.13739 156.4748 149.3061 C 156.18033 147.70989 155.79547 145.95487 155.63234 145.38437 L 155.29901 144.34453 L 156.08681 145.4162 C 157.19277 147.01839 158.0398 151.60116 157.51926 153.24195 C 156.73313 155.77902 155.10622 158.00309 152.07703 160.68806 C 146.50137 165.6852 144.1141 170.80392 145.28179 175.15502 C 145.97068 177.64287 147.51594 178.76757 149.96806 178.53264 C 154.71728 178.10275 168.90073 174.8264 170.8539 173.74334 C 172.01783 173.06244 173.5423 172.30514 174.27046 172.05117 L 175.5682 171.63377 L 173.84673 170.85251 L 172.12172 170.12184 L 173.84007 168.7682 C 175.55843 167.41457 181.56093 165.75096 186.1622 165.2599 C 188.05178 165.08723 188.1058 165.04019 187.02313 164.55779 L 185.843 164.01773 L 187.03871 162.88164 C 188.28493 161.74907 191.29148 160.8414 193.46286 160.99342 C 194.3718 161.05706 195.00603 160.69486 195.53115 159.71511 C 196.22543 158.49308 196.53548 158.41314 199.6769 158.4806 C 202.66683 158.53745 206.55615 159.5213 209.15479 160.8214 C 209.84408 161.12378 209.60115 160.24274 208.29466 157.15257 C 206.37658 152.64729 205.5765 148.11863 206.63695 148.19287 C 206.99043 148.21762 207.33082 149.15631 207.4551 150.28317 C 207.90626 155.44813 211.95998 162.79668 216.01099 165.82487 C 218.0365 167.33897 226.0884 171.20635 226.12373 170.70056 C 226.1308 170.5994 225.8409 169.66425 225.50404 168.67498 C 224.96415 166.95995 224.75093 164.20044 225.2559 164.2358 C 225.3064 164.23933 227.25564 165.3923 229.5407 166.82292 C 234.50064 169.91475 241.2446 172.1658 244.7102 171.951 C 246.03374 171.89118 247.16234 171.71607 247.2704 171.62198 C 247.37845 171.5279 247.01334 170.94325 246.4028 170.23978 C 245.41654 169.1034 245.4236 169.00224 246.27395 168.45186 C 246.90817 168.08966 247.6727 168.04154 248.50995 168.4051 C 254.09602 170.52426 263.06685 171.40644 268.72045 170.37914 C 271.75277 169.82906 272.12038 169.6515 272.5763 168.20947 C 273.21904 166.27228 276.476 163.95902 278.87762 163.72056 C 280.2587 163.56312 281.6984 164.0197 285.32568 165.84924 C 287.87734 167.09522 290.03917 168.1106 290.14722 168.01651 C 290.25175 167.973 289.86086 167.03078 289.32555 165.9768 C 288.21855 163.66297 286.32688 162.41237 283.75152 162.23207 C 282.1861 162.12247 281.9912 162.00717 282.59258 161.38855 C 282.97432 161.00867 283.9585 160.7218 284.81694 160.7819 C 287.1398 160.94452 292.6708 162.39909 292.63902 162.8543 C 292.6249 163.0566 293.15916 163.39896 293.85906 163.54961 C 294.55542 163.75084 295.10736 163.8403 295.11442 163.73915 C 295.1568 163.13221 288.24658 158.17578 286.36655 157.48508 C 284.63447 156.85556 284.10727 156.41204 284.3481 155.86982 C 284.58896 155.3276 285.1515 155.26534 286.70277 155.57725 L 288.70146 156.02213 L 286.7466 153.49647 C 285.72752 152.10366 284.8564 150.77203 284.87052 150.56972 C 284.88818 150.31683 284.64982 150.09684 284.34684 150.07563 C 284.04386 150.05442 283.12327 149.43089 282.31074 148.71327 C 280.06455 146.7263 274.4845 143.79435 272.7676 143.67415 C 271.65666 143.59637 270.8169 143.99501 269.77622 145.09114 C 268.57344 146.3284 268.32552 146.97177 268.40034 148.80672 C 268.41656 150.02767 268.28834 151.13686 268.0288 151.22033 C 267.55312 151.49199 260.8879 148.83985 258.8412 147.62923 C 256.65362 146.25626 252.97272 142.2883 253.03983 141.3273 C 253.09282 140.56864 253.50386 140.49576 256.1156 140.88191 C 258.12487 141.17506 259.14188 141.14461 259.17014 140.73999 C 259.19134 140.43652 258.80502 140.15534 258.35055 140.12353 C 255.7752 139.94322 248.41298 134.19276 249.20472 133.02838 C 249.4279 132.73905 250.59994 132.66863 251.95276 132.91582 L 254.3625 133.28783 L 251.68406 131.6772 C 250.17164 130.80893 248.67334 129.73835 248.2941 129.35602 C 246.67964 127.76905 243.97543 125.80083 240.32592 123.56313 C 238.1853 122.24428 236.3441 120.99722 236.20675 120.7843 C 235.9391 120.2573 232.3623 118.4313 231.06705 118.08649 C 230.5151 117.99702 228.72194 117.5157 227.0732 117.14614 C 223.28487 116.16936 216.06835 116.32486 212.9502 117.37719 C 211.23435 117.96862 202.23486 119.67653 199.6782 119.95497 C 198.96418 120.00663 195.61828 120.68724 192.21835 121.41489 C 186.29107 122.72798 176.93706 123.69951 176.37348 123.05015 C 176.23259 122.88781 176.61682 121.74572 177.3111 120.5237 C 177.95488 119.29813 178.33204 118.2572 178.07956 118.23952 C 177.87757 118.22538 176.8616 118.96746 175.8315 119.91185 C 170.62346 124.73143 158.782 126.44367 153.01762 123.2447 C 150.47655 121.84699 150.21243 121.26942 151.6465 120.3533 L 152.81396 119.62183 L 151.32377 119.16173 C 150.47945 118.89931 149.28871 118.511 148.64638 118.26272 C 147.95355 118.01091 145.4686 117.98942 143.0705 118.1773 C 138.16979 118.59658 136.09587 118.50221 133.15186 117.78784 C 132.05506 117.50775 130.85019 117.32175 130.54014 117.40169 C 129.05806 117.55206 130.13408 115.95015 131.78885 115.50692 C 134.1142 114.90734 134.1061 114.29687 131.80443 113.83077 C 128.79933 113.2646 127.8646 112.84338 124.40648 110.77156 C 118.46131 107.25498 116.74337 106.42315 113.95439 105.6688 C 112.46067 105.25928 110.67103 104.72738 109.97113 104.57673 C 108.77687 104.23899 108.7193 104.33661 108.42402 107.11134 C 108.26402 108.67573 107.80207 110.93053 107.4143 112.1232 C 106.6635 114.15448 104.45993 116.64313 103.44999 116.57242 C 103.1975 116.55474 103.37372 116.2113 103.85999 115.78792 C 105.48441 114.32605 106.56292 111.96194 107.05208 108.59088 C 107.65533 104.31294 107.1755 101.73808 104.44634 95.04134 Z" fill="#FFFFFF"/>
        </g>
        <g id="Graphic_695">
          <path d="M 301.6696 104.78281 C 300.7953 106.39887 301.13107 106.67651 303.11713 105.84985 C 304.1084 105.46181 306.7119 105.23748 309.4492 105.27664 L 314.16287 105.35252 L 311.20864 107.68701 C 309.59467 108.99715 306.791 110.63061 305.014 111.37025 C 303.19006 112.05577 301.7125 112.8672 301.69124 113.17067 C 301.63812 113.92935 302.04916 113.85647 306.0505 112.51017 C 309.89685 111.20384 314.98784 110.23878 315.35992 110.72227 C 315.50078 110.88461 313.90097 111.99244 311.8361 113.22018 C 307.7134 115.57452 303.5341 118.73811 303.9097 119.17102 C 304.05057 119.33336 306.31126 118.93255 308.94666 118.253 C 314.376 116.80337 317.1381 116.48849 325.36773 116.35308 C 328.5701 116.27232 331.877 116.14806 332.69554 116.05289 C 334.12708 115.89898 334.07304 115.94602 331.8496 117.26432 C 330.52705 118.03578 329.2656 118.65903 329.06364 118.64489 C 328.81117 118.62721 327.9714 119.02586 327.17857 119.47862 C 323.6255 121.66953 314.6049 123.68096 309.8549 123.39923 C 307.0742 123.25538 306.91917 123.29535 307.73153 124.01297 C 308.44645 124.67293 310.3546 124.959 316.00994 125.35494 C 322.5237 125.81098 323.2235 125.96162 322.27213 126.50493 C 320.47035 127.59862 314.95416 128.83887 312.58094 128.67272 C 311.3186 128.58434 310.14306 128.70535 309.97033 128.99821 C 309.7471 129.28754 310.2379 129.5252 311.0458 129.58177 C 314.6238 129.93392 317.3186 130.58003 318.7803 131.44476 C 319.6538 132.01417 320.8338 132.55422 321.38213 132.69427 C 324.87423 133.54867 325.61748 133.80401 325.58915 134.20864 C 325.50416 135.42252 319.9906 135.90056 317.5766 134.8675 C 316.7359 134.55451 316.42585 134.63446 316.3869 135.19082 C 316.3515 135.6966 317.4668 136.43543 319.84096 137.31322 C 322.2585 138.2957 323.13554 138.81454 322.65984 139.08619 C 321.50294 139.66594 318.7364 139.31977 314.41422 138.00064 C 309.29477 136.47322 305.67152 134.5931 302.55938 131.93556 C 301.1694 130.77089 299.9531 130.02499 299.78745 130.2167 C 299.6218 130.4084 299.6883 131.6329 299.85578 132.86445 C 300.2049 135.12526 301.75883 137.57206 302.9202 137.65337 C 303.22316 137.67458 303.51196 137.8981 303.49425 138.151 C 303.40927 139.36488 298.43868 138.61027 287.6736 135.82354 C 283.33372 134.75731 282.2946 134.3796 274.8258 131.62034 C 272.05478 130.61312 269.9987 130.26586 263.53544 129.81336 C 259.19295 129.50934 254.73176 129.45114 253.6032 129.62626 C 251.70304 129.95066 251.3602 129.77418 248.9054 127.87422 C 244.18714 124.24018 241.4728 122.4237 238.48118 120.9436 L 235.54006 119.46703 L 238.03905 119.2862 C 240.58855 119.1089 242.82 118.40108 251.68727 114.95578 C 254.29696 113.91866 258.69873 112.65121 261.52548 112.13755 C 265.84843 111.2712 273.1239 109.5442 281.80167 107.35629 C 285.82874 106.36757 289.68307 105.67171 292.22903 105.545 C 293.5525 105.48518 296.22422 105.01149 298.13854 104.48477 C 302.53323 103.31848 302.48273 103.31495 301.6696 104.78281 Z" fill="#FFFFFF"/>
        </g>
        <g id="Graphic_694">
          <path d="M 86.83639 90.7079 C 88.68462 91.8536 93.24718 97.00117 93.18712 97.86109 C 93.15886 98.26576 93.33965 98.58337 93.59214 98.601 C 93.89512 98.62217 93.85979 99.128 93.49321 100.01735 C 93.06555 101.05493 92.05311 101.74667 89.548 102.74081 C 87.67006 103.47377 86.16679 103.92792 86.18445 103.675 C 86.31164 101.85398 85.80026 92.46544 85.52804 91.27732 C 85.13613 89.62337 85.0821 89.67043 86.83639 90.7079 Z" fill="#FFFFFF"/>
        </g>
        <g id="Graphic_693">
          <path d="M 257.323 135.9854 C 262.68168 138.44444 263.8395 138.57633 268.64522 137.33717 L 273.0399 136.17088 L 275.10938 138.5013 C 279.111 142.94922 280.2839 143.59043 292.87308 148.58874 C 297.2174 150.31603 301.00984 151.95386 301.29864 152.17738 C 301.7788 152.56678 304.775 157.60505 304.47204 157.58384 C 304.42155 157.5803 302.4726 156.42733 300.2384 155.00025 C 294.6476 151.50843 286.6968 146.9365 284.5317 145.9717 C 283.20025 145.42104 282.54736 145.32451 282.11508 145.70086 C 281.6828 146.0772 280.69063 145.7536 278.5397 144.58649 C 274.8695 142.65227 271.82832 141.88026 270.70775 142.66586 C 268.63225 144.04534 267.3009 146.3918 267.41882 148.33145 L 267.54027 150.22053 L 263.4989 148.51445 C 259.36364 146.70015 256.11864 144.49073 255.46392 142.97093 C 255.11308 142.18397 255.37263 142.10049 257.19042 142.22776 C 260.97748 142.4929 263.45955 140.37948 260.429 139.45574 C 257.54282 138.64376 255.8756 137.81546 255.36974 137.06848 C 255.04107 136.68968 254.51042 136.29675 254.15696 136.272 C 253.8035 136.24726 253.27286 135.85432 252.94773 135.42495 C 252.48882 134.73207 252.5464 134.63445 253.55628 134.70516 C 254.2127 134.75111 255.94812 135.33005 257.323 135.9854 Z" fill="#FFFFFF"/>
        </g>
        <g id="Graphic_692">
          <path d="M 287.93847 148.80224 C 288.3752 149.08695 292.81072 151.68467 297.7804 154.62475 C 307.431 160.28138 307.3371 160.17316 306.90483 160.5495 C 306.79322 160.69417 305.12604 159.86588 303.27458 158.77055 C 296.154 154.66336 288.48156 150.4667 286.6558 149.72897 C 284.72908 148.98416 283.0468 147.64655 283.09638 146.93845 C 283.1247 146.53382 286.43338 147.83282 287.93847 148.80224 Z" fill="#FFFFFF"/>
        </g>
        <g id="Graphic_691">
          <path d="M 292.9908 154.23837 C 296.2205 155.93845 300.16858 158.24791 302.2547 159.6138 C 303.323 160.2985 305.3763 161.40796 306.90256 162.0739 C 309.95153 163.45638 309.99494 163.56107 308.47955 168.53761 C 307.7037 170.92296 307.7117 171.53344 308.31233 173.10028 C 309.05027 174.88004 311.61387 177.39753 312.82565 177.48237 C 314.1384 177.57428 314.0356 176.14394 312.6776 174.52408 C 311.12826 172.73833 310.76054 170.0188 312.13887 170.62355 C 312.52863 170.85415 312.86435 171.13178 312.8502 171.3341 C 312.89006 171.48937 313.4827 172.44573 314.22326 173.46328 C 315.4298 175.07254 315.6716 175.24195 316.475 174.63746 C 317.3289 174.0365 317.32535 174.08707 316.74962 175.0633 C 316.18098 175.93836 316.20314 176.34652 317.0881 177.47583 C 318.29462 179.0851 320.1734 179.06415 320.84564 177.43394 C 321.34518 176.0966 320.86506 175.7072 319.83846 176.60103 C 319.35217 177.02443 318.63114 177.17725 318.18735 176.9937 C 317.4982 176.69132 317.56284 176.49254 318.6293 175.75398 C 319.9624 174.83079 321.79068 174.8063 323.25228 175.67103 C 324.85473 176.6981 324.1072 178.67882 320.94858 181.7614 C 318.6146 183.936 316.31774 184.13098 311.41124 182.46598 C 307.2949 181.11044 303.9527 178.8434 300.17548 174.8178 C 298.9043 173.40731 296.93688 171.7956 295.811 171.20852 C 293.22 169.80729 291.47578 167.90625 290.3002 165.13015 C 289.68895 163.71504 288.89435 162.74454 288.10067 162.48566 L 286.8632 162.04324 L 288.129 162.08104 C 288.83586 162.13052 290.07688 162.52237 290.85286 163.03413 C 292.89556 164.29532 297.63996 166.10145 298.41502 165.90158 C 299.13606 165.74876 299.30078 164.84541 298.6444 164.79946 C 297.78606 164.73937 292.3639 160.29365 291.8758 159.29377 C 291.65876 158.77031 290.594 158.03502 289.60543 157.66086 C 288.56284 157.33373 288.12613 157.04902 288.5841 157.03026 C 289.09253 157.01503 290.57538 157.57628 291.95016 158.23162 C 293.32494 158.88696 294.7139 159.33999 294.97697 159.20593 C 296.0328 158.6191 295.41893 157.96621 293.47104 157.52488 C 291.27425 157.0153 288.93123 154.97068 287.24367 152.26039 L 286.2896 150.6688 L 288.68574 151.95474 C 289.956 152.65359 291.91542 153.65482 292.9908 154.23837 Z" fill="#FFFFFF"/>
        </g>
        <g id="Graphic_690">
          <path d="M 101.7512 140.90041 C 103.47591 141.63108 104.43708 143.12151 104.81897 145.63874 C 105.3063 148.8241 104.8608 150.11439 102.41609 153.1453 C 99.13966 157.18532 98.66753 157.4064 96.0871 155.85343 C 92.9725 153.9581 88.78697 152.14028 87.22174 152.0307 C 86.41388 151.97413 85.92313 151.73647 86.14634 151.44714 C 86.31906 151.15427 86.93912 150.99438 87.49453 151.03326 C 87.99944 151.06861 88.47157 150.84754 88.48927 150.59464 C 88.52823 150.03828 87.92941 149.8947 86.20562 149.87567 C 85.64668 149.88737 84.66164 149.46262 84.09115 148.91441 L 82.99713 147.87212 L 84.97246 147.1972 C 86.11514 146.81975 87.6148 146.41648 88.43328 146.3213 C 90.17832 146.03687 90.34304 145.13353 88.62633 145.01334 C 87.91945 144.96385 85.8741 144.46487 84.13877 143.88594 C 80.56713 142.721 80.28806 141.63412 83.45747 141.29692 C 84.52841 141.21942 86.11843 140.97495 87.09901 140.73865 C 90.91681 139.83693 99.53575 139.93208 101.7512 140.90041 Z" fill="#FFFFFF"/>
        </g>
        <g id="Graphic_689">
          <path d="M 316.15154 158.96041 C 316.87796 160.18028 317.06314 161.15894 316.85147 162.00817 C 316.59993 162.70213 316.3413 163.49724 316.26603 163.84776 C 316.14026 164.19474 315.90996 164.58523 315.69383 164.7734 C 315.3156 165.1027 311.92638 162.78154 311.96887 162.1746 C 311.98303 161.97228 310.48507 160.90171 308.57964 159.85343 C 306.72824 158.75811 305.2843 157.6405 305.3525 157.39114 C 305.77324 156.4549 307.3819 156.66917 308.77178 157.83383 C 310.39996 159.21848 310.95183 159.30794 311.4266 158.32465 C 311.7862 157.5366 313.77215 156.70995 314.61634 156.97235 C 314.91575 157.04414 315.56243 157.95347 316.15154 158.96041 Z" fill="#FFFFFF"/>
        </g>
        <g id="Graphic_688">
          <path d="M 79.80068 142.7689 C 79.6572 143.36878 80.28528 143.81936 82.21199 144.56417 C 83.59745 145.06778 84.77386 145.6584 84.76324 145.81014 C 84.74908 146.01245 84.01385 146.36759 83.18119 146.66508 C 80.89578 147.41995 80.81695 147.82104 82.6941 149.27395 C 84.76258 150.89273 84.29136 151.82544 81.52136 151.52985 C 77.13913 151.07057 73.19101 151.6582 71.52305 153.0154 C 70.07123 154.18441 69.7107 154.26082 67.0523 153.82057 C 63.441625 153.212 61.91714 153.96932 56.03811 158.94532 C 51.45588 162.79227 49.70726 163.12729 47.64848 160.64514 L 46.525186 159.29584 L 47.71655 157.49867 C 48.39328 156.52952 49.805234 155.20523 50.86112 154.61841 C 51.917 154.0316 52.66993 153.42357 52.57957 153.26476 C 52.01615 152.6154 49.6413 153.9231 46.87496 156.47405 C 43.40619 159.63656 42.180206 159.75403 42.385587 156.82048 C 42.587427 153.93751 43.58128 152.78726 47.574515 150.83047 C 49.621627 149.85561 51.15319 148.99714 51.00171 148.98653 C 50.850235 148.97593 49.51264 149.23806 48.01649 149.59075 C 46.52388 149.89287 45.193367 150.05385 45.052513 149.8915 C 44.91166 149.72917 45.523733 148.9588 46.489255 148.21317 C 47.566385 147.32288 49.91291 146.41981 53.424305 145.54747 C 56.36612 144.83855 58.846415 144.19898 58.99789 144.20958 C 59.15291 144.16961 60.2345 143.94037 61.417075 143.71821 C 63.8398 143.17626 75.30947 141.69207 77.70032 141.60533 C 79.63674 141.48677 80.02652 141.71736 79.80068 142.7689 Z" fill="#FFFFFF"/>
        </g>
        <g id="Graphic_687">
          <path d="M 313.80856 167.08082 C 314.8397 166.84786 314.83616 166.89844 314.1772 167.61487 C 313.51825 168.3313 313.5511 168.58775 314.72165 169.9911 C 315.4261 170.80275 315.86395 171.7991 315.74176 172.09555 C 315.61604 172.44258 314.75302 171.72151 313.77384 170.48403 C 312.84516 169.25007 311.74733 168.25845 311.39385 168.23376 C 310.88888 168.1985 310.7399 167.42563 310.85647 165.75637 L 310.97202 163.37542 L 311.7972 165.3646 C 312.5426 167.04323 312.8784 167.32084 313.80856 167.08082 Z" fill="#FFFFFF"/>
        </g>
        <g id="Graphic_686">
          <path d="M 318.3267 168.5154 C 318.7705 168.69895 319.08143 169.33064 319.04248 169.887 C 318.98936 170.64568 319.2312 170.81509 320.00625 170.61522 C 321.3473 170.3025 322.9967 171.38367 322.9117 172.59755 C 322.86214 173.30565 322.28196 173.62082 320.43953 173.84761 C 319.10554 174.05918 317.88316 174.12608 317.7928 173.96727 C 317.65195 173.80493 316.1884 168.61983 316.1193 168.15755 C 316.13346 167.95524 317.5401 168.15537 318.3267 168.5154 Z" fill="#FFFFFF"/>
        </g>
        <g id="Graphic_685">
          <path d="M 310.10275 170.73499 C 309.91946 171.17964 309.9498 172.19831 310.19626 173.02877 L 310.59878 174.5309 L 309.67716 173.19583 C 308.75907 171.81018 308.63127 170.73387 309.23516 169.35286 C 309.53357 168.71294 309.6886 168.67294 310.0032 169.25402 C 310.23096 169.62573 310.23554 170.2868 310.10275 170.73499 Z" fill="#FFFFFF"/>
        </g>
        <g id="Graphic_684">
          <path d="M 92.2573 159.85434 C 93.43372 160.44497 94.35414 161.0685 94.34352 161.22023 C 94.2904 161.9789 87.629 164.35881 85.38961 164.45616 C 82.99519 164.59349 82.25288 165.04978 83.53383 165.5969 C 83.82616 165.76984 85.7883 166.00887 87.76107 166.09616 C 89.78433 166.18698 91.43997 166.45537 91.42935 166.6071 C 91.41873 166.75884 90.11037 167.32799 88.55309 167.82888 C 85.69453 168.79775 85.01779 169.7669 86.91528 170.2047 C 88.9607 170.7037 88.93946 171.00716 86.29179 173.31229 C 83.74865 175.5739 83.5396 175.66092 82.73433 174.84215 C 81.40906 173.4787 77.07191 171.65027 74.69874 171.48412 C 73.5374 171.40281 71.37774 171.8107 69.81338 172.41275 C 67.52087 173.26878 66.87246 173.8333 65.87952 175.69518 C 65.23557 176.92076 64.558834 177.8899 64.35332 177.92634 C 64.15135 177.9122 63.433825 178.01445 62.71276 178.16727 C 61.995235 178.26952 60.318344 178.3046 58.90454 178.20561 C 55.71994 178.03348 55.43377 177.04774 57.87147 174.118 C 59.81223 171.76338 59.934464 171.46698 58.87411 171.39275 C 58.47017 171.36447 58.10255 171.54204 58.08839 171.74435 C 58.03173 172.5536 54.220104 175.53964 52.60879 176.08757 C 51.20653 176.54849 50.957603 176.48023 50.408345 175.62856 C 50.03981 175.0945 49.78997 174.3146 49.814757 173.96055 C 49.88912 172.8984 53.62455 169.55126 56.14736 168.30474 C 58.82519 167.01825 59.00854 166.57365 56.90646 166.88392 L 55.31993 167.0778 L 56.86121 165.35596 C 59.77813 162.10399 65.05943 160.59316 75.24655 160.03571 C 78.50643 159.85733 82.48737 159.52612 84.18197 159.23815 C 88.23819 158.55643 89.80348 158.66602 92.2573 159.85434 Z" fill="#FFFFFF"/>
        </g>
        <g id="Graphic_683">
          <path d="M 141.47908 177.27762 L 143.4652 179.34807 L 140.4826 179.19009 C 128.85164 178.62992 127.74435 178.50157 128.08626 177.96642 C 128.70541 177.0949 131.5267 175.20853 133.08396 174.70764 C 133.86613 174.40662 135.40832 173.3964 136.54302 172.4085 L 138.59983 170.57027 L 139.04285 172.9393 C 139.33348 174.58609 140.05637 175.85653 141.47908 177.27762 Z" fill="#FFFFFF"/>
        </g>
        <g id="Graphic_682">
          <path d="M 119.82873 174.13522 C 119.71921 175.70334 118.8325 176.04806 117.89322 174.96583 C 117.47055 174.47883 117.64677 174.13532 118.50418 173.48357 C 120.00288 172.3683 119.95239 172.36477 119.82873 174.13522 Z" fill="#FFFFFF"/>
        </g>
        <g id="Graphic_681">
          <path d="M 126.23689 176.10865 C 125.633 177.48976 124.68872 177.93213 124.03123 177.17456 C 123.74945 176.8499 125.83791 174.55584 126.44387 174.59816 C 126.69636 174.6158 126.54943 175.26634 126.23689 176.10865 Z" fill="#FFFFFF"/>
        </g>
        <g id="Graphic_680">
          <path d="M 100.64891 92.74192 C 100.63831 92.89366 101.12666 93.8935 101.70893 95.00156 C 103.06486 97.38353 104.03157 102.43221 103.80194 105.72 C 103.62177 108.29965 102.0651 111.69807 100.62396 112.71564 C 98.80462 114.06259 99.08474 110.77832 101.16758 107.11168 C 102.21077 105.25307 102.13098 104.94253 100.81203 105.66366 C 98.54528 106.8777 98.14422 103.90166 100.26197 101.91479 C 101.56575 100.68431 101.79039 98.92102 100.49368 100.05033 C 100.1695 100.33266 99.44488 100.53619 98.93991 100.50092 C 98.13196 100.44449 98.00166 100.13042 98.3061 98.67767 C 98.71403 96.46972 98.16209 96.38034 97.25627 98.45186 C 96.59835 99.87992 96.67815 100.19047 97.5846 101.0162 C 98.39005 101.83488 98.46278 102.24658 98.03159 103.33468 C 97.29491 105.16387 97.51311 106.39899 98.7003 106.8377 C 99.44009 107.14351 99.56685 107.50816 99.20735 108.2963 C 98.96297 108.88918 98.655 110.39251 98.57021 111.60646 C 98.44303 113.4274 98.61323 113.89674 99.54794 114.31782 C 100.48265 114.7389 100.85026 114.56126 102.02727 112.96613 C 103.9208 110.55698 104.62818 108.42077 104.89313 104.62716 C 105.20755 100.12542 102.83794 92.64066 101.07055 92.51722 C 100.86856 92.50312 100.65951 92.59017 100.64891 92.74192 Z" fill="black"/>
        </g>
        <g id="Graphic_679">
          <path d="M 82.20145 117.11778 C 79.56801 119.22059 77.8505 121.28588 77.77613 122.34803 C 77.73364 122.95497 77.88866 122.915 78.68853 122.36108 C 79.87017 121.42728 80.89771 121.24509 84.71646 121.055 C 90.20852 120.88042 92.28301 118.7893 89.24013 116.59403 C 86.72433 114.84228 84.88893 114.96791 82.20145 117.11778 Z" fill="black"/>
        </g>
        <g id="Graphic_678">
          <path d="M 87.78036 117.15259 C 89.09318 117.2445 89.83734 118.21148 89.12781 118.9242 C 88.52635 119.54283 87.44474 119.77206 83.26888 119.98797 L 80.72297 120.11469 L 83.14035 118.20005 C 84.64623 116.98399 85.74908 116.45129 86.29034 116.69249 C 86.68367 116.8725 87.37995 117.07373 87.78036 117.15259 Z" fill="#FFFFFF"/>
        </g>
      </g>
    </g>
  </g>
</svg>
