<?xml version="1.0" encoding="UTF-8" standalone="no"?>
<!DOCTYPE svg PUBLIC "-//W3C//DTD SVG 1.1//EN" "http://www.w3.org/Graphics/SVG/1.1/DTD/svg11.dtd">
<svg xmlns="http://www.w3.org/2000/svg" xmlns:dc="http://purl.org/dc/elements/1.1/" version="1.1" xmlns:xl="http://www.w3.org/1999/xlink" viewBox="81 76.5 202.5 324" width="202.5" height="324">
  <defs>
    <clipPath id="artboard_clip_path">
      <path d="M 81 76.5 L 283.5 76.5 L 283.5 400.5 L 81 400.5 Z"/>
    </clipPath>
  </defs>
  <g id="Gauntlet,_Clenched_(3)" fill-opacity="1" stroke="none" stroke-dasharray="none" stroke-opacity="1" fill="none">
    <title>Gauntlet, Clenched (3)</title>
    <g id="Gauntlet,_Clenched_(3)_Art" clip-path="url(#artboard_clip_path)">
      <title>Art</title>
      <g id="Group_53">
        <g id="Graphic_86">
          <path d="M 190.66177 80.47343 C 189.35352 80.62606 188.06708 80.822295 187.78363 80.88771 C 187.50017 80.97492 183.4664 81.32379 178.82212 81.67266 C 167.76742 82.52302 163.84267 82.91549 161.26978 83.41699 C 159.50365 83.76585 158.91494 83.78766 157.73751 83.59142 C 155.36086 83.19895 150.25869 83.65683 146.81363 84.59441 C 142.58363 85.72823 140.09796 86.57859 138.2228 87.55978 C 136.41306 88.51916 133.73115 90.72138 132.70635 92.11684 C 132.16125 92.87999 131.3545 93.35968 127.05908 95.54009 C 120.23438 99.00695 118.64268 100.07536 115.19762 103.58582 C 112.4503 106.37675 109.68117 108.49176 106.56318 110.21428 C 102.33318 112.54733 99.49864 115.22924 97.99415 118.34723 C 96.86033 120.70208 95.116 125.80425 94.94157 127.28693 C 94.87616 127.87564 94.0476 130.42673 93.08822 132.95601 C 90.27548 140.45664 90.3627 139.97694 90.64615 148.50237 C 91.03863 159.38263 91.30028 164.85548 91.67095 168.6276 C 91.84538 170.50275 92.08523 173.03203 92.19425 174.25306 C 92.4777 177.45827 94.28745 188.86184 95.24683 193.63695 C 96.59868 200.30902 99.17157 210.99305 99.56405 211.47274 C 99.67307 211.62537 99.89111 212.12687 100.04374 212.60656 C 100.19637 213.08625 100.80688 214.61254 101.4174 215.9862 C 102.00611 217.35986 103.16173 220.47785 103.99029 222.91992 C 107.08648 232.07766 109.65937 237.89937 114.52169 246.81726 C 115.69912 248.97587 116.81113 251.13448 116.96376 251.61417 C 117.35623 252.7262 117.6833 253.05325 119.60206 254.49232 C 121.30278 255.75696 121.30278 255.73516 121.52082 258.6133 C 121.67345 260.40125 121.4118 261.7313 120.29979 265.13275 C 120.08175 265.85228 119.88551 266.65904 119.88551 266.9425 C 119.88551 267.22594 119.66747 268.0109 119.42763 268.70863 C 118.46824 271.30332 116.76752 277.60472 115.17582 284.4294 C 114.28185 288.31055 113.40968 291.7556 113.25705 292.06087 C 113.10442 292.36612 112.79917 293.49994 112.60293 294.56834 C 112.38489 295.63675 112.12324 296.66154 112.01422 296.85778 C 111.927 297.054 111.4255 298.66752 110.94581 300.47727 C 108.7436 308.5448 107.02107 313.60336 105.6474 316.06723 C 104.64441 317.87698 102.4422 321.03858 101.89709 321.47466 C 100.17456 322.8265 96.44606 327.88508 95.33404 330.34895 C 94.74533 331.6572 93.04461 337.4353 92.73935 339.0706 C 92.39048 341.0984 89.42512 349.5584 88.31311 351.6952 C 87.57177 353.1561 87.52816 353.3087 87.33192 356.66655 C 87.15749 359.4575 87.15749 360.28604 87.41914 361.0274 C 87.78981 362.1612 89.8176 364.3634 91.49651 365.47543 C 92.17244 365.9333 93.26265 366.76187 93.89497 367.3288 C 95.33404 368.63703 97.05657 369.4656 99.14977 369.83626 C 100.06554 369.9889 103.85947 370.42497 107.56617 370.79564 C 126.6666 372.7144 137.1326 374.58956 145.65801 377.66395 C 153.76916 380.5639 161.22617 384.61947 176.79434 394.54036 C 179.2146 396.08845 180.7627 396.74257 181.9183 396.74257 C 183.09573 396.74257 185.45058 396.02304 186.45357 395.3689 C 186.75883 395.17268 187.0859 394.99824 187.1513 394.99824 C 187.21672 394.99824 187.54378 394.8238 187.87084 394.58396 C 189.09187 393.7336 196.24363 389.30736 199.90673 387.10514 C 217.6335 376.50833 227.18372 373.8046 257.14262 370.79564 C 260.87112 370.42497 264.64324 369.9889 265.55902 369.83626 C 267.6522 369.4656 269.37474 368.63703 270.8138 367.3288 C 271.44614 366.76187 272.53634 365.9333 273.21227 365.47543 C 274.9348 364.3416 277.028 362.05218 277.20243 361.1146 C 277.28965 360.72212 277.31145 358.78155 277.26784 356.8192 L 277.20243 353.2433 L 276.41748 351.717 C 275.9814 350.86665 275.08743 348.66443 274.4333 346.81108 C 272.68897 341.86154 272.3401 340.74953 271.99124 339.17963 C 271.8168 338.39468 271.46794 336.9774 271.2063 336.01803 C 270.94464 335.05864 270.55217 333.61957 270.33412 332.8128 C 269.87624 331.0685 268.89505 328.90987 267.91386 327.4708 C 266.71464 325.70466 262.8771 321.0604 262.3102 320.6897 C 262.02674 320.51528 261.329 319.6649 260.7621 318.81455 C 258.6471 315.63115 257.46968 313.2981 256.37947 310.0493 C 255.39828 307.06212 253.3705 300.063 252.8254 297.75175 C 252.69457 297.20665 252.52014 296.72695 252.43292 296.66154 C 252.3457 296.59613 252.10586 295.65855 251.90962 294.59015 C 251.69158 293.49994 251.38632 292.36612 251.2337 292.06087 C 251.08106 291.7556 249.81642 286.54442 248.42096 280.50467 C 245.91348 269.668 244.19095 263.12676 243.16616 260.6193 C 242.20678 258.24264 239.80832 248.45257 239.80832 246.90448 C 239.80832 246.62103 241.46543 242.93612 243.49322 238.74973 C 251.38632 222.44023 252.71637 218.34105 256.0524 199.7421 C 257.16442 193.63695 257.0554 193.8986 259.49746 189.7122 C 260.82752 187.42277 262.2448 184.04312 263.335 180.51085 C 264.9267 175.38688 264.4252 173.4463 261.2418 172.61775 C 260.45685 172.39971 260.30422 172.26889 260.30422 171.8328 C 260.30422 171.52754 260.36963 171.2877 260.47865 171.2877 C 260.56587 171.2877 260.7621 171.02605 260.89293 170.69899 C 261.2418 169.95765 261.2636 167.27574 260.91473 163.13295 C 260.6749 160.16758 260.6967 159.40444 261.15458 154.41129 C 261.43803 151.40232 261.8523 146.82345 262.07035 144.25056 C 262.57185 138.53787 263.00793 122.9479 262.70267 122.11935 C 262.57185 121.79229 262.48463 120.92012 262.48463 120.17878 C 262.48463 117.40965 261.61247 114.90218 259.6937 112.04583 C 259.2358 111.3481 258.7125 110.38872 258.5599 109.90903 C 257.79674 107.55418 254.8968 103.04072 252.19307 100.03175 C 251.2119 98.91974 249.79462 97.24082 249.05328 96.32504 C 248.33374 95.40927 247.33075 94.34087 246.80745 93.992 C 246.30595 93.62133 245.28116 92.79277 244.4962 92.11684 C 242.8173 90.63416 240.57146 89.43493 238.6963 88.97705 C 237.93316 88.80261 235.92718 88.54096 234.24826 88.41014 C 229.1679 88.01766 227.83784 87.73421 223.8695 86.16431 C 218.24402 83.94029 215.12603 83.26436 207.21112 82.52302 C 204.9435 82.30498 204.22395 82.15235 203.61344 81.75987 C 201.73828 80.560645 195.15343 79.88472 190.66177 80.47343 Z" fill="black"/>
        </g>
        <g id="Graphic_85">
          <path d="M 201.69467 83.70044 C 203.54802 84.59441 204.61643 85.66282 207.34194 89.34772 C 209.675 92.46571 210.7216 94.75514 211.2667 97.91675 C 211.52834 99.35582 211.76819 101.12196 211.8336 101.84149 C 211.92082 102.88809 210.35092 120.46223 209.82762 124.53961 L 209.6968 125.45538 L 207.6908 124.69224 C 201.8037 122.51182 198.90374 121.92311 193.9106 121.92311 C 189.89863 121.94492 188.37234 122.16296 184.70924 123.34038 C 183.18295 123.84188 177.90635 125.93507 175.11542 127.1561 C 174.9846 127.22152 174.81016 127.0907 174.74475 126.87265 C 174.65753 126.52379 174.22145 121.3562 173.85078 116.12321 C 173.4147 110.01805 172.9132 98.00396 173.06583 97.37164 C 173.37108 96.04159 174.06882 94.71154 175.87856 92.02963 C 179.04016 87.38534 181.26419 84.92147 182.83408 84.33276 C 183.66264 84.0275 189.7024 82.98091 191.18507 82.89369 C 191.8392 82.85008 194.10683 82.82828 196.20003 82.85008 L 200.01575 82.89369 L 201.69467 83.70044 Z" fill="#FFFFFF"/>
        </g>
        <g id="Graphic_84">
          <path d="M 176.40186 86.84024 C 175.0064 88.49735 174.26505 89.60937 172.84778 92.24767 C 171.75758 94.27545 171.2997 94.97319 171.05984 94.97319 C 170.99443 94.97319 170.8636 94.64612 170.7982 94.25365 C 170.55835 93.18525 169.66438 91.57174 168.7704 90.56875 C 168.00726 89.71839 164.38778 87.1455 163.84267 87.10189 C 163.38479 87.03648 165.5434 86.73122 169.38093 86.27333 C 172.9568 85.85905 174.22145 85.72823 176.53269 85.64101 L 177.47026 85.5974 L 176.40186 86.84024 Z" fill="#FFFFFF"/>
        </g>
        <g id="Graphic_83">
          <path d="M 158.10818 86.60039 C 158.67509 86.79663 159.13298 87.01467 159.13298 87.10189 C 159.13298 87.18911 159.54726 87.40715 160.07056 87.53797 C 161.77128 88.06127 164.0171 89.2823 165.78324 90.67777 C 167.81103 92.26947 168.83582 93.53411 169.18469 94.82056 C 169.31551 95.32205 169.55536 95.91076 169.7298 96.15061 C 169.94783 96.47767 170.03505 97.39345 170.03505 99.66108 C 170.03505 101.34 170.14407 103.58582 170.2531 104.67603 C 170.47113 106.83464 171.01624 127.41776 170.8636 127.59219 C 170.7982 127.6358 167.96366 127.78843 164.5622 127.89745 C 158.06457 128.09368 155.86235 128.39894 153.24586 129.40193 C 150.36771 130.49214 146.42116 133.21766 143.28136 136.27024 L 141.03554 138.42885 L 138.61527 133.4357 C 134.77775 125.49899 133.66573 122.9479 132.31388 118.95775 C 131.63795 116.95177 130.8312 113.9646 130.67857 112.85259 C 130.22068 109.90903 130.3079 108.33913 131.15826 103.4768 C 131.61614 100.79489 133.70934 95.80174 135.23563 93.70855 C 137.89574 90.04545 137.83033 90.08906 143.76105 87.93045 C 148.05647 86.36055 148.33992 86.31694 153.26766 86.27333 C 156.25483 86.25153 157.32323 86.31694 158.10818 86.60039 Z" fill="#FFFFFF"/>
        </g>
        <g id="Graphic_82">
          <path d="M 215.88917 88.2357 C 219.00716 88.86802 219.50866 89.06426 220.2064 89.762 C 220.7515 90.3071 220.7297 90.48153 220.07557 90.78679 C 219.247 91.15746 217.6771 92.68375 215.91097 94.82056 L 214.31927 96.71752 L 213.9922 96.12881 C 213.83958 95.77994 213.33809 94.34087 212.8802 92.90179 C 211.98623 90.04545 211.65917 89.2823 210.89602 88.36653 C 210.61257 88.01766 210.37272 87.64699 210.37272 87.53797 C 210.37272 87.25452 212.3787 87.49436 215.88917 88.2357 Z" fill="#FFFFFF"/>
        </g>
        <g id="Graphic_81">
          <path d="M 234.24826 90.80859 C 235.33847 90.87401 236.5159 91.11385 236.86476 91.28829 C 237.23543 91.48452 237.99857 91.74617 238.5873 91.8988 C 240.06997 92.26947 241.16018 92.83638 243.29698 94.44989 C 245.91348 96.36865 247.6578 98.33102 249.05328 100.8603 C 249.29312 101.27458 249.81642 102.10314 250.2089 102.69185 C 250.84122 103.60763 250.92843 103.91289 250.92843 105.15572 C 250.92843 106.04969 250.7758 106.87825 250.51415 107.46696 C 250.2961 107.96846 249.79462 109.60377 249.40214 111.10825 C 248.83524 113.35408 245.9789 122.33739 244.73606 125.82605 C 244.21276 127.30874 244.03832 127.28693 241.18198 125.36817 C 236.31966 122.05394 235.29486 121.68327 230.34532 121.3344 C 226.37696 121.05095 224.56722 121.26899 221.38382 122.381 C 220.1846 122.79528 218.1786 123.4712 216.91397 123.88548 C 215.64932 124.29976 214.23206 124.82306 213.77417 125.06291 C 213.29448 125.30275 212.8802 125.47719 212.8584 125.43358 C 212.81479 125.41177 213.03283 123.9509 213.31628 122.22837 C 213.9486 118.28182 214.23206 114.94578 214.5155 107.72861 C 214.84257 99.44304 214.66814 100.18438 216.91397 97.19721 C 219.6613 93.55592 221.44923 92.29128 225.67923 91.04844 C 228.0777 90.35071 228.33934 90.3289 234.24826 90.80859 Z" fill="#FFFFFF"/>
        </g>
        <g id="Graphic_80">
          <path d="M 129.8282 98.81072 C 129.63197 99.29041 128.30191 104.69784 127.84403 106.81284 C 127.38614 108.86243 127.10269 109.01506 124.92227 108.31732 C 122.26217 107.46696 119.95093 106.96547 118.7299 106.96547 C 116.78932 106.96547 116.6367 106.81284 117.85773 105.94067 C 121.39 103.38959 129.23949 98.46185 129.76279 98.46185 C 129.87181 98.46185 129.89362 98.61448 129.8282 98.81072 Z" fill="#FFFFFF"/>
        </g>
        <g id="Graphic_79">
          <path d="M 254.4825 109.64738 C 255.11483 110.47593 255.39828 110.97743 257.14262 114.22625 C 258.47267 116.73372 259.1922 118.6961 259.80272 121.39981 C 260.12978 122.9261 260.1952 124.14713 260.1734 129.42374 C 260.1516 132.84699 260.04257 137.16421 259.91174 139.01756 C 259.6283 143.18215 258.38545 157.68191 258.25463 158.42325 C 258.1892 158.72851 258.0584 159.33903 257.97117 159.81872 L 257.79674 160.64728 L 256.0742 158.72851 C 255.11483 157.6601 252.3675 154.69474 249.96905 152.14366 C 244.84508 146.69262 245.23755 147.69561 245.78266 141.63406 C 246.6112 132.56353 246.85106 130.73199 248.1157 124.73585 C 249.0969 120.04795 249.751 117.58409 250.90663 114.09542 C 251.757 111.58795 252.54194 109.40753 252.69457 109.2331 C 253.13065 108.7098 253.8938 108.88423 254.4825 109.64738 Z" fill="#FFFFFF"/>
        </g>
        <g id="Graphic_78">
          <path d="M 123.0035 111.13006 C 125.40196 112.32929 127.40794 113.76836 127.6914 114.5315 C 127.80042 114.85857 128.17109 115.92697 128.49815 116.88635 C 128.82521 117.84574 129.76279 120.15698 130.61315 122.01033 C 132.09584 125.30275 137.24161 138.7341 137.08898 138.88674 C 137.04538 138.93035 134.95218 139.27921 132.4229 139.64988 C 126.0997 140.60926 125.66361 140.69648 123.30876 141.41602 C 120.91031 142.17916 119.44943 143.16035 117.26902 145.47159 C 115.98257 146.84525 112.49391 151.72938 111.27288 153.88799 L 110.77138 154.76016 L 109.02705 151.3151 C 106.86844 147.04149 104.70983 142.26638 101.33018 134.37328 C 99.36781 129.79441 98.73549 128.09368 98.73549 127.39595 C 98.73549 126.45837 99.8475 122.27198 100.67606 120.04795 C 101.9407 116.69012 103.75044 115.14202 109.98643 112.13305 C 113.32246 110.51954 114.26004 110.3015 118.53366 110.25789 L 121.21557 110.23609 L 123.0035 111.13006 Z" fill="#FFFFFF"/>
        </g>
        <g id="Graphic_77">
          <path d="M 230.2799 123.86368 C 233.8994 124.56141 236.29785 125.47719 238.84894 127.1343 C 240.00456 127.89745 241.20378 128.63879 241.53085 128.76961 C 242.55564 129.2275 243.3842 130.44853 243.53683 131.80039 C 243.8639 134.43869 243.64585 143.33478 243.23157 143.74906 C 242.9045 144.07612 241.3564 142.83329 235.88357 137.84014 C 231.8716 134.19885 228.75362 131.77859 226.5732 130.66657 C 225.09052 129.90343 224.19655 129.92523 220.07557 130.73199 C 216.36886 131.47333 213.64334 131.60415 213.20726 131.03724 C 212.72757 130.47034 213.20726 129.61997 214.5155 128.726 C 216.89216 127.0907 217.35005 126.80724 219.247 125.84786 C 220.48985 125.23734 222.01614 124.69224 223.56423 124.34337 C 227.48898 123.4276 227.85965 123.4058 230.2799 123.86368 Z" fill="#FFFFFF"/>
        </g>
        <g id="Graphic_76">
          <path d="M 198.83833 125.23734 C 199.62328 125.34636 200.45183 125.5426 200.69168 125.67342 C 200.90972 125.80425 201.65106 126.0659 202.30519 126.28394 C 204.72545 127.02528 208.1705 129.00946 208.95545 130.14327 C 209.1517 130.44853 209.28251 131.12446 209.28251 131.97482 C 209.28251 133.15225 209.2171 133.3921 208.80282 133.65374 C 207.53818 134.4605 198.07518 137.40406 188.35053 139.97694 C 177.27403 142.8987 177.77552 142.81148 177.44846 142.00473 C 177.07779 141.11076 175.20263 131.844 175.33346 131.51694 C 175.61691 130.7974 181.41681 127.26513 183.4664 126.5892 C 184.20775 126.32755 186.73703 125.84786 189.04827 125.49899 C 193.4091 124.84487 195.5677 124.77945 198.83833 125.23734 Z" fill="#FFFFFF"/>
        </g>
        <g id="Graphic_75">
          <path d="M 170.92902 131.3643 C 171.45232 131.62596 171.64856 132.14926 172.82598 136.27024 C 174.4613 141.91751 175.15902 144.64303 175.70413 147.69561 C 175.94397 148.98206 176.48908 151.7948 176.90336 153.9534 C 177.31764 156.11201 177.6447 158.1616 177.6229 158.53227 C 177.51387 159.62248 176.77253 159.53526 174.72294 158.1834 C 174.0034 157.70372 173.32748 157.55109 170.88541 157.22402 C 167.37494 156.76614 165.49979 156.85335 164.14793 157.48567 C 163.60283 157.72552 162.59984 158.1834 161.9021 158.48866 C 161.02994 158.88114 160.15777 159.55707 159.06756 160.64728 C 157.49767 162.23898 154.0308 167.01409 153.20225 168.693 C 152.9624 169.1945 152.70075 169.49976 152.59173 169.41254 C 152.3955 169.2163 147.92565 159.7315 145.65801 154.71655 C 144.72044 152.64515 143.9791 150.46474 143.12873 147.39035 C 142.4528 144.9701 141.9077 142.8987 141.9077 142.76788 C 141.9077 142.63705 143.56482 140.71829 145.6144 138.49426 L 149.32111 134.4823 L 151.76318 133.26127 C 155.73153 131.3207 157.86834 130.97183 165.23814 131.03724 C 169.03206 131.05905 170.51474 131.14627 170.92902 131.3643 Z" fill="#FFFFFF"/>
        </g>
        <g id="Graphic_74">
          <path d="M 97.38363 132.95601 C 97.7107 134.02441 97.77611 134.19885 99.67307 138.03638 C 100.45802 139.58447 103.16173 145.18814 105.71282 150.46474 C 110.68416 160.7345 110.70597 160.7563 114.89236 165.61862 C 118.11938 169.39074 121.73887 173.9478 125.00949 178.37405 C 132.68455 188.77462 133.40408 189.62499 135.51909 191.04226 C 138.7243 193.15726 138.00476 192.93922 141.84229 192.8084 C 147.48956 192.61215 149.21209 191.89262 152.80977 188.27313 C 155.51349 185.5476 156.1022 184.87168 156.47287 184.15215 C 157.36684 182.386 158.239 182.05895 159.35102 183.06194 C 159.7653 183.45441 160.354 183.97771 160.65927 184.23936 C 161.8367 185.32957 163.4502 186.41978 164.69303 187.00849 C 165.84865 187.5754 166.24113 187.6408 167.96366 187.619 C 169.05386 187.619 170.8418 187.48818 171.95381 187.33555 L 173.9816 187.0739 L 174.26505 188.18591 C 174.43949 188.77462 174.83196 190.45354 175.15902 191.89262 C 175.48609 193.3317 176.40186 196.27525 177.165 198.43386 C 179.91233 206.0217 180.37022 209.33593 179.7379 216.4659 C 178.7131 227.80405 177.6447 230.61678 173.5019 232.8626 C 171.23428 234.10544 167.1787 235.54452 162.9487 236.63473 C 159.35102 237.5505 158.7405 237.63772 155.75333 237.72493 C 152.56993 237.83395 152.33008 237.81215 147.1407 236.83096 C 133.36048 234.21447 128.82521 232.7536 124.15913 229.41755 C 123.30876 228.80704 122.21856 228.0657 121.73887 227.76044 C 119.14417 226.19054 113.95479 221.50265 111.27288 218.27563 C 110.16086 216.94558 108.35112 215.04862 107.2173 214.02383 C 104.60081 211.64717 102.55122 209.53217 101.89709 208.5728 C 101.19936 207.5262 99.52044 200.52706 98.84451 195.79556 C 98.53925 193.70236 98.10317 191.15128 97.88513 190.10468 C 97.31822 187.5972 95.57389 178.28683 95.15961 175.64853 C 94.20023 169.49976 93.72054 163.24197 93.72054 156.76614 C 93.72054 153.73536 93.56791 150.61737 93.26265 147.652 C 92.73935 142.28818 92.89198 139.49725 93.80775 137.40406 C 94.48368 135.87776 96.72951 132.04024 96.94755 132.04024 C 97.03477 132.04024 97.231 132.45451 97.38363 132.95601 Z" fill="#FFFFFF"/>
        </g>
        <g id="Graphic_73">
          <path d="M 221.66727 135.28905 C 221.90711 138.53787 219.33423 143.57463 215.5621 147.23773 C 212.29149 150.42113 207.01488 153.60454 202.65405 155.04361 C 196.96317 156.89696 190.87981 157.115 185.36337 155.67593 C 182.24537 154.86918 181.43862 154.41129 180.13037 152.66696 C 179.51985 151.8384 178.80032 150.63917 178.56047 149.98505 C 178.03717 148.63319 177.94996 146.40917 178.38604 146.0385 C 178.84393 145.64602 191.3377 141.96112 199.2526 139.88973 C 204.20215 138.58148 211.07045 136.33565 213.4253 135.24544 C 214.9516 134.5259 216.30345 134.24245 220.62067 133.71915 C 221.40562 133.63194 221.55825 133.84998 221.66727 135.28905 Z" fill="#FFFFFF"/>
        </g>
        <g id="Graphic_72">
          <path d="M 229.62578 135.72514 C 235.25125 139.91153 242.75188 147.43396 254.09003 160.2548 C 258.6689 165.42238 258.40726 165.0299 258.23282 166.66522 C 258.1456 167.40656 257.92756 168.6276 257.73133 169.36893 C 257.36066 170.69899 257.33885 170.7426 256.4885 170.89522 C 254.09003 171.3095 249.48936 171.50574 246.72023 171.3095 C 243.07894 171.04785 240.94213 170.56816 239.93914 169.80502 C 234.57532 165.72764 234.22646 165.40058 231.45733 161.69387 C 228.6228 157.92176 228.0995 156.94057 227.18372 153.51732 C 226.46418 150.72639 226.0717 147.69561 225.91908 143.59643 C 225.78825 139.7371 226.0499 135.83416 226.5296 134.83117 C 226.87846 134.04622 227.6634 134.26426 229.62578 135.72514 Z" fill="#FFFFFF"/>
        </g>
        <g id="Graphic_71">
          <path d="M 135.5845 143.29117 C 136.6093 143.4656 137.83033 143.68365 138.28821 143.77087 L 139.13857 143.9235 L 140.22878 146.54 C 141.47162 149.50536 145.17832 161.01795 145.0257 161.41042 C 144.96028 161.54125 144.26255 161.71568 143.4776 161.8029 C 137.91754 162.3262 136.21682 162.78408 134.5597 164.17955 C 134.18903 164.4848 133.64393 164.83367 133.33867 164.9427 C 132.74996 165.18254 131.52893 166.62161 129.69738 169.2381 C 128.95604 170.30651 128.41093 171.48394 127.84403 173.16286 C 127.01547 175.67033 126.40495 176.4989 125.90346 175.82296 C 125.77263 175.67033 124.48619 174.05683 123.02531 172.26889 C 119.77649 168.21331 116.41865 163.69986 114.49989 160.7781 C 113.40968 159.09918 113.06082 158.40145 113.08262 157.89995 C 113.16984 156.67892 114.45628 153.21206 115.24123 152.03464 C 116.30963 150.48654 118.2502 148.1971 119.20958 147.41216 C 120.62685 146.21293 123.4614 144.40319 124.5734 143.9671 C 126.97186 143.05133 132.4447 142.72427 135.5845 143.29117 Z" fill="#FFFFFF"/>
        </g>
        <g id="Graphic_70">
          <path d="M 219.42144 149.67979 C 218.41845 152.77598 217.19742 155.19624 214.77716 158.85934 L 212.8584 161.8029 L 209.93664 162.65326 C 205.64122 163.9179 203.9623 164.24496 199.1872 164.79006 C 195.45868 165.20434 194.67374 165.22615 193.34368 165.0081 C 190.94523 164.59383 187.1731 162.52243 186.23553 161.12697 C 185.86486 160.56006 185.88666 160.53825 186.40996 160.10217 C 186.91146 159.7097 187.1513 159.6879 191.18507 159.81872 C 194.58652 159.94954 195.82936 159.90593 197.39925 159.62248 C 204.87808 158.31423 213.4035 154.10603 218.06958 149.43994 C 219.11618 148.39334 219.96655 147.41216 219.96655 147.25953 C 219.96655 147.1287 220.01015 147.0633 220.07557 147.1287 C 220.14098 147.19412 219.85752 148.34974 219.42144 149.67979 Z" fill="#FFFFFF"/>
        </g>
        <g id="Graphic_69">
          <path d="M 222.9319 149.81061 C 223.28078 151.64216 224.08753 153.77897 225.83186 157.44207 C 228.25212 162.54424 232.67836 168.60579 235.40388 170.54636 L 236.34146 171.2441 L 235.62192 171.37492 C 235.22945 171.44033 233.59414 171.59296 232.00243 171.72378 C 230.43254 171.8546 228.86264 172.05084 228.55738 172.15986 C 227.79423 172.46512 224.67624 172.42151 223.58603 172.11626 C 222.43041 171.7674 220.3154 169.65239 217.5681 166.09831 C 216.43427 164.61563 215.4749 163.32919 215.43128 163.22016 C 215.38767 163.11114 215.5839 162.80589 215.84556 162.54424 C 216.49969 161.89011 218.76732 158.05258 219.7485 155.91578 C 220.68608 153.9098 221.75449 150.66098 222.16876 148.61139 C 222.3214 147.82644 222.49583 147.39035 222.51763 147.6302 C 222.56124 147.87005 222.75748 148.85123 222.9319 149.81061 Z" fill="#FFFFFF"/>
        </g>
        <g id="Graphic_68">
          <path d="M 181.52584 158.46686 C 181.65666 158.61949 181.8529 159.09918 182.00553 159.51346 C 182.52883 161.19238 186.27914 164.87728 188.56857 165.9893 C 192.84219 168.06069 195.17523 168.38775 199.12178 167.47197 C 202.76307 166.64342 203.56983 166.49079 204.26756 166.49079 C 204.70364 166.49079 205.16153 166.5998 205.31416 166.75244 C 206.0119 167.45017 205.07431 173.79518 203.8969 176.23724 C 203.11194 177.91616 201.3676 179.63869 200.01575 180.07477 C 197.6609 180.85972 195.89477 181.09956 192.20987 181.09956 C 188.6994 181.09956 188.50316 181.07776 187.41295 180.53266 C 186.78063 180.2056 185.62501 179.28982 184.84007 178.48307 C 183.55362 177.17482 183.29197 176.76054 182.50702 174.75456 C 180.69728 170.08847 179.56346 165.11713 179.54166 161.58485 C 179.51985 159.81872 179.60707 159.27361 179.91233 158.79392 C 180.3266 158.1616 181.15516 158.00897 181.52584 158.46686 Z" fill="#FFFFFF"/>
        </g>
        <g id="Graphic_67">
          <path d="M 169.94783 159.40444 C 170.53655 159.57887 172.10644 160.38563 173.4147 161.19238 C 175.70413 162.63145 175.81315 162.71867 176.46727 164.09233 C 178.03717 167.29754 178.82212 169.28172 179.84692 172.70497 L 180.93712 176.30265 L 180.2612 177.89436 C 179.08377 180.61987 176.42367 182.69127 172.54253 183.9123 C 168.63958 185.15514 166.41556 185.04612 163.31937 183.49802 C 162.4036 183.01833 161.00813 182.05895 160.22318 181.36121 C 158.58787 179.85673 156.32024 176.82595 155.36086 174.81997 C 154.44509 172.8358 154.57591 171.57115 156.0586 168.60579 C 157.6939 165.31336 159.7435 162.71867 161.64045 161.54125 C 165.65242 159.07738 167.35314 158.61949 169.94783 159.40444 Z" fill="#FFFFFF"/>
        </g>
        <g id="Graphic_66">
          <path d="M 143.91368 164.55022 C 144.546 164.68104 145.33095 164.9863 145.65801 165.22615 C 146.53018 165.83666 149.93163 170.43734 151.28348 172.81399 C 155.23003 179.81312 155.29545 180.07477 153.9872 182.66946 C 152.65715 185.30777 149.93163 187.79344 146.5956 189.38514 C 145.15652 190.08287 144.89487 190.12648 142.27837 190.2137 L 139.48744 190.30091 L 137.80852 189.1671 C 136.41306 188.20772 135.49728 187.27014 132.4229 183.60704 C 130.39511 181.18678 128.69439 178.98456 128.65078 178.74472 C 128.56356 178.1342 130.41692 172.8576 131.3981 171.00424 C 132.31388 169.2381 134.27625 167.23213 136.02058 166.27275 C 136.6747 165.90207 137.37244 165.5314 137.54687 165.42238 C 139.37842 164.37578 141.64605 164.07053 143.91368 164.55022 Z" fill="#FFFFFF"/>
        </g>
        <g id="Graphic_65">
          <path d="M 213.31628 166.18553 C 214.60273 167.0577 215.5621 167.99527 216.47788 169.32533 C 217.52448 170.87342 218.76732 171.98543 220.2282 172.72677 C 221.55825 173.3809 222.80108 174.4929 222.80108 174.9944 C 222.80108 175.19064 222.14696 175.77935 221.3402 176.32446 C 219.6831 177.39286 216.73953 180.2492 213.59973 183.82508 C 211.13587 186.5942 210.61257 187.29194 208.95545 189.95205 C 208.27952 191.02045 207.49457 192.15427 207.18932 192.50313 C 206.36076 193.44071 204.9435 195.81736 203.78787 198.25943 C 203.22096 199.48046 202.74127 200.54886 202.74127 200.61428 C 202.74127 200.6797 203.17735 200.7233 203.70065 200.7233 C 204.59462 200.7233 204.70364 200.65788 205.18333 199.87293 C 205.72844 198.97896 207.1675 196.77675 210.87422 191.17308 C 212.9238 188.05509 213.66515 187.16112 216.87036 183.9123 C 222.49583 178.1778 225.13413 176.19363 228.25212 175.34327 C 230.95584 174.60193 237.17002 174.12224 243.8421 174.14404 C 247.0909 174.14404 250.2525 174.4493 250.60137 174.81997 C 250.66678 174.88538 248.83524 175.73574 246.524 176.73874 C 240.98574 179.11539 235.94899 181.53565 233.943 182.77848 C 230.95584 184.63184 222.62665 191.50014 220.2282 194.05123 C 219.48685 194.85798 218.33123 196.23164 217.69891 197.082 C 216.39067 198.82634 212.11705 205.89088 212.11705 206.32696 C 212.11705 206.4796 211.8772 207.30815 211.59375 208.18031 C 210.91782 210.2299 210.43813 213.54413 210.2419 217.5343 L 210.08927 220.6959 L 211.46293 224.83868 C 214.23206 233.21147 215.86737 236.70014 217.32824 237.44148 C 218.7019 238.16102 221.2748 237.70313 224.87248 236.06782 C 225.65743 235.71895 226.90026 234.9558 227.6416 234.3671 C 229.6476 232.8408 234.9024 227.4988 236.64672 225.25296 C 237.47528 224.16275 238.50007 222.89811 238.93615 222.39662 C 239.39404 221.91693 240.09177 220.97935 240.50605 220.30342 C 240.94213 219.6493 241.50904 218.86435 241.7925 218.5591 C 242.44662 217.86136 243.25337 216.5313 243.4278 215.92079 C 243.55863 215.3975 246.21874 211.2983 250.7758 204.60443 C 253.06524 201.2684 253.76297 200.37443 253.65395 200.94134 C 253.13065 203.62325 251.01565 213.02084 250.47055 215.11403 C 248.6172 222.13497 246.0225 228.74162 241.20378 238.6407 C 240.06997 240.97375 238.80533 243.3286 238.39105 243.8955 C 237.47528 245.13834 235.29486 246.68644 233.04903 247.66762 C 232.15506 248.0601 230.58517 248.84505 229.56037 249.39015 C 226.96568 250.80742 217.0448 255.51712 214.29747 256.65093 C 213.03283 257.15243 211.52834 257.80655 210.91782 258.0682 C 209.54416 258.70052 209.08628 258.87496 208.41035 259.0494 C 208.1051 259.1148 205.9901 259.6599 203.67885 260.24862 C 198.53307 261.57867 193.4745 262.32 187.04228 262.69068 C 180.10857 263.08316 170.05685 263.03955 166.21932 262.60346 C 164.5404 262.40723 162.22917 262.16738 161.09535 262.10197 C 157.73751 261.88393 152.9624 261.36063 149.21209 260.79372 C 147.29333 260.51027 144.89487 260.1614 143.87007 260.03058 C 140.8393 259.6381 137.04538 258.96217 135.88976 258.6133 C 135.30104 258.43887 134.23264 258.1336 133.4913 257.95918 C 131.00563 257.37047 122.4802 253.05325 120.91031 251.57057 C 120.19077 250.89464 116.37505 244.83309 114.5435 241.51885 C 113.88937 240.29782 113.01721 238.44447 112.60293 237.39787 C 112.21045 236.35127 111.46911 234.58514 110.96762 233.47312 C 110.48793 232.3611 110.07365 231.2273 110.07365 230.94384 C 110.07365 230.6822 109.57215 229.43936 108.98344 228.21833 C 107.87143 225.9289 103.42338 213.8494 103.61962 213.63135 C 103.90307 213.3697 105.90906 215.17945 107.67519 217.27264 C 108.2203 217.92677 108.80901 218.6027 108.98344 218.79893 C 109.15787 218.99517 109.59396 219.49667 109.94282 219.91095 C 114.34726 225.25296 117.92314 228.43637 121.84789 230.48596 C 122.50201 230.83482 124.0283 231.68518 125.24933 232.38292 C 129.2613 234.69416 132.4229 235.78436 140.07615 237.44148 C 153.42029 240.31963 154.5105 240.51586 157.34504 240.34143 C 159.89612 240.1888 161.68406 239.73091 166.76443 237.89937 C 171.62675 236.15503 175.0064 234.71596 176.22743 233.8874 C 178.99655 231.96864 180.69728 229.1341 181.26419 225.471 C 181.46042 224.27177 181.74388 222.65827 181.9183 221.87332 C 182.61604 218.71172 182.76867 217.25084 182.74687 213.3915 C 182.70326 209.03068 182.15816 204.9751 181.3514 203.20897 C 181.13336 202.70747 180.93712 202.20598 180.93712 202.09696 C 180.93712 201.98794 180.06496 199.1534 178.99655 195.79556 C 177.27403 190.36633 176.72892 188.38215 176.44547 186.22354 C 176.35825 185.61302 176.44547 185.504 177.6883 184.80627 C 179.10558 183.99952 180.47924 182.62586 181.52584 180.99054 C 181.8529 180.44544 182.24537 180.00936 182.3762 180.00936 C 182.52883 180.00936 183.11754 180.44544 183.70625 180.96874 C 184.27316 181.49204 185.516 182.27699 186.43177 182.73488 L 188.1325 183.54163 L 193.08203 183.45441 C 197.87895 183.3672 198.1188 183.3454 199.6887 182.75668 C 203.439 181.3394 204.70364 180.271 205.88107 177.48008 C 206.84045 175.19064 207.75622 172.18167 207.88705 170.7862 C 207.95246 170.15388 208.1051 169.45615 208.2141 169.2163 C 208.32313 168.97646 208.43215 168.19151 208.45396 167.47197 L 208.51937 166.16372 L 209.60958 165.90207 C 211.44112 165.4878 212.3569 165.5532 213.31628 166.18553 Z" fill="#FFFFFF"/>
        </g>
        <g id="Graphic_64">
          <path d="M 260.93654 175.4523 C 261.1982 175.73574 261.329 176.12822 261.2854 176.47709 C 261.13277 177.5891 258.51628 186.0055 258.21102 186.35436 C 258.0366 186.5506 257.75313 187.16112 257.5569 187.70622 C 257.36066 188.27313 257.14262 188.73102 257.0772 188.73102 C 256.90277 188.73102 256.5103 189.49416 254.4171 193.855 C 252.69457 197.47448 250.7104 200.81051 247.50518 205.56382 C 246.10972 207.6352 244.16915 210.51336 243.18796 211.97424 C 242.20678 213.4133 241.18198 215.09223 240.89853 215.65914 C 240.61507 216.24785 239.93914 217.33806 239.39404 218.0794 C 238.84894 218.82074 238.04218 219.97636 237.6279 220.63048 C 236.0798 223.09435 230.34532 229.35214 228.05588 231.09647 C 227.1401 231.7942 225.19954 232.94983 223.71686 233.69117 C 220.44624 235.32648 219.33423 235.4791 218.22221 234.4107 C 216.95757 233.21147 215.69293 230.11529 213.4689 222.74548 C 212.20427 218.5591 212.13886 217.70873 212.96741 213.54413 C 213.83958 209.24872 214.36288 207.72243 216.02 204.60443 C 217.69891 201.42103 219.02897 199.54587 221.18758 197.23463 C 223.60784 194.66174 230.01826 188.70921 230.60697 188.49117 C 230.86862 188.38215 231.60996 187.92426 232.24228 187.44457 C 232.8528 186.96488 234.4663 185.94009 235.77455 185.13333 C 238.93615 183.23637 253.47952 175.95379 254.4389 175.80116 C 254.85318 175.73574 255.72535 175.5395 256.37947 175.36507 C 257.0336 175.19064 258.23282 175.03801 259.03958 175.0162 C 260.2606 174.9944 260.56587 175.05982 260.93654 175.4523 Z" fill="#FFFFFF"/>
        </g>
        <g id="Graphic_63">
          <path d="M 237.0174 249.39015 C 237.21363 249.54278 237.6279 250.61118 237.93316 251.745 C 238.23842 252.87882 240.46244 261.1644 242.8609 270.1695 C 245.39018 279.5453 247.19992 286.69705 247.1345 286.9805 C 247.0691 287.24215 246.89467 287.5038 246.74204 287.5692 C 246.39317 287.67823 238.56548 286.54442 237.5625 286.21736 C 237.17002 286.08653 235.38208 285.73766 233.55053 285.4324 C 231.71898 285.12715 230.10547 284.8437 229.95284 284.77828 C 229.47315 284.60385 220.16278 283.2956 216.15082 282.8377 C 204.66003 281.52946 199.40524 281.28962 182.24537 281.28962 C 165.0855 281.28962 159.8307 281.52946 148.33992 282.8377 C 144.32796 283.2956 135.01759 284.60385 134.5379 284.77828 C 134.38527 284.8437 132.77176 285.12715 130.94022 285.4324 C 129.10867 285.73766 127.32073 286.08653 126.92825 286.21736 C 125.92526 286.54442 118.09757 287.67823 117.7487 287.5692 C 117.59608 287.5038 117.42164 287.24215 117.35623 286.9805 C 117.24721 286.5226 121.49902 270.1913 121.84789 269.73342 C 122.04412 269.47177 124.59521 260.98996 124.81325 259.92155 C 125.00949 258.83135 125.40196 258.5915 126.38315 258.94037 C 126.81923 259.093 127.25531 259.31104 127.32073 259.42006 C 127.49516 259.6817 129.63197 260.24862 130.50413 260.24862 C 130.8966 260.24862 132.90259 260.59748 134.97398 261.01176 C 137.04538 261.42604 140.16337 261.99295 141.9077 262.2982 C 143.65203 262.60346 146.74822 263.12676 148.776 263.49743 C 154.94658 264.56584 158.67509 264.9147 169.817 265.4598 C 173.71995 265.65605 185.5596 265.438 192.01363 265.06733 C 201.2804 264.52223 206.77504 263.01774 216.39067 258.41707 C 218.30943 257.5013 220.03196 256.75995 220.2282 256.75995 C 220.42443 256.75995 221.8635 256.14944 223.3898 255.3863 C 224.9379 254.64495 226.94387 253.70737 227.81604 253.3149 C 228.71 252.92242 230.86862 251.83222 232.61295 250.87283 C 235.81816 249.1067 236.38507 248.91046 237.0174 249.39015 Z" fill="#FFFFFF"/>
        </g>
        <g id="Graphic_62">
          <path d="M 198.7075 284.4076 C 199.7977 284.53844 202.58864 284.77828 204.92168 284.97452 C 212.902 285.62864 214.18845 285.78127 218.7237 286.4136 C 221.20938 286.78426 225.65743 287.5256 228.6446 288.0707 C 231.60996 288.6158 237.0174 289.5534 240.68048 290.1421 C 247.0473 291.1451 247.35255 291.2105 247.81044 291.7774 C 248.0721 292.10447 248.33374 292.715 248.42096 293.15107 C 248.50817 293.58716 248.7044 294.21948 248.85704 294.59015 C 249.03147 294.939 249.42395 296.18185 249.7292 297.31567 C 250.03446 298.44948 250.53596 300.1284 250.8194 301.02237 C 252.41112 306.03732 252.95622 307.91248 254.09003 312.3169 C 254.78777 314.97702 255.28926 317.22285 255.22385 317.28826 C 255.04942 317.4627 246.80745 316.3725 245.25936 315.98 C 243.79848 315.58754 239.7429 314.67177 237.95497 314.3229 C 237.23543 314.17027 236.16703 313.93043 235.5565 313.756 C 234.9678 313.60336 232.98362 313.2327 231.15207 312.90563 C 229.32052 312.60037 227.70702 312.3169 227.5544 312.2515 C 227.27093 312.1425 226.5732 312.03346 219.85752 311.0959 C 213.12004 310.1365 205.90287 309.43877 199.2526 309.0899 C 196.67972 308.95908 192.9294 308.76284 190.92342 308.65382 C 186.27914 308.37037 178.2116 308.37037 173.56732 308.65382 C 171.56134 308.76284 167.81103 308.95908 165.23814 309.0899 C 158.58787 309.43877 151.3707 310.1365 144.63322 311.0959 C 137.91754 312.03346 137.21981 312.1425 136.93636 312.2515 C 136.78373 312.3169 135.17022 312.60037 133.33867 312.90563 C 131.50712 313.2327 129.54475 313.60336 128.93423 313.756 C 128.34552 313.90862 127.36434 314.14847 126.75382 314.2793 C 125.0531 314.64996 120.77948 315.63115 119.44943 315.98 C 118.33742 316.26347 110.53153 317.37548 109.63756 317.37548 C 109.2887 317.37548 109.44133 316.61234 110.96762 310.6598 C 111.9052 306.9749 113.40968 301.43665 114.30365 298.34046 C 116.02618 292.36612 116.50587 291.36313 117.63969 291.1233 C 117.98855 291.05788 120.80129 290.6 123.91928 290.1203 C 127.03727 289.6188 131.65975 288.83385 134.16723 288.37597 C 143.30317 286.67524 149.84441 285.73766 155.31725 285.3452 C 157.127 285.21436 160.20138 284.9527 162.18556 284.75648 C 164.16973 284.58204 167.00427 284.3422 168.50876 284.23318 C 172.04103 283.99333 196.15642 284.14596 198.7075 284.4076 Z" fill="#FFFFFF"/>
        </g>
        <g id="Graphic_61">
          <path d="M 195.98198 312.2515 C 210.15468 313.2763 227.22733 315.3041 235.22945 316.9176 C 256.0306 321.1476 260.43504 322.52126 263.59664 325.8137 C 264.79587 327.0347 265.10113 327.60163 266.69283 331.6572 C 268.1101 335.23308 269.1349 338.83076 270.33412 344.47803 C 271.2717 348.79526 271.2717 348.90428 270.2905 349.79825 C 269.81082 350.25613 269.33113 350.29974 261.61247 350.82304 C 242.73007 352.0877 241.7489 352.1313 230.65058 352.1531 C 219.05077 352.1531 217.82974 352.06588 210.45994 350.84485 C 203.4826 349.66742 186.25734 345.52463 185.79945 344.9141 C 185.5814 344.65247 185.516 343.148 185.516 339.31045 C 185.516 336.10524 185.38517 332.90003 185.18893 331.1121 C 184.79646 327.66704 183.64084 320.5371 183.33558 319.81754 C 183.09573 319.25064 182.02733 319.1416 181.59125 319.6649 C 181.3078 320.0138 180.8063 322.49946 179.69429 329.14972 C 179.2146 332.00606 179.10558 333.48874 178.99655 338.85256 L 178.86573 345.17577 L 173.52371 346.52762 C 166.43737 348.33737 158.26081 350.1689 154.24885 350.84485 C 146.87905 352.06588 145.65801 352.1531 134.05821 352.1531 C 122.9599 352.1313 121.97871 352.0877 103.09632 350.82304 C 92.43409 350.1035 93.06641 350.5614 94.37466 344.47803 C 95.57389 338.83076 96.59868 335.23308 98.01595 331.6572 C 99.60766 327.60163 99.91291 327.0347 101.11214 325.8137 C 104.27374 322.52126 108.67818 321.1476 129.47934 316.9176 C 139.57466 314.8898 158.60968 312.7748 175.70413 311.83723 C 178.7349 311.6628 191.53394 311.92444 195.98198 312.2515 Z" fill="#FFFFFF"/>
        </g>
        <g id="Graphic_60">
          <path d="M 183.11754 328.62642 C 183.4882 331.0467 183.59723 333.1617 183.70625 339.0706 C 183.83707 346.375 183.66264 349.493 183.09573 350.5614 C 182.72506 351.2373 181.8965 351.0411 181.3514 350.1253 C 180.8499 349.34036 180.8281 349.16593 180.7627 343.3006 C 180.67547 336.30148 180.89352 332.61658 181.74388 327.62343 C 182.4198 323.56786 182.3544 323.52425 183.11754 328.62642 Z" fill="#FFFFFF"/>
        </g>
        <g id="Graphic_59">
          <path d="M 178.90934 349.5584 C 178.82212 350.45237 178.2334 351.36815 177.73191 351.38995 C 177.6447 351.41175 177.20861 351.6952 176.79434 352.04407 C 176.38006 352.41474 175.87856 352.6982 175.70413 352.6982 C 175.5079 352.6982 175.26805 352.7636 175.20263 352.82902 C 174.96279 353.06887 172.62974 354.02825 171.23428 354.44253 C 170.51474 354.66057 169.48995 354.98763 168.94484 355.16207 C 159.32921 358.30186 153.85637 358.89058 135.80254 358.73795 C 126.77562 358.67253 123.39598 358.5417 117.05097 358.08382 C 103.66323 357.10264 98.97534 356.95 94.91977 357.3643 C 93.001 357.56052 91.14765 357.77856 90.79878 357.8658 L 90.16646 357.9966 L 90.27548 356.2959 C 90.40631 354.3771 90.66796 354.00645 92.30327 353.52676 C 93.5243 353.1779 97.77611 353.1779 100.26178 353.54856 C 101.46101 353.723 105.6474 353.91923 110.18267 354.00645 C 115.69912 354.11547 119.275 354.3117 122.19675 354.63877 C 127.36434 355.20567 133.01161 355.53274 137.89574 355.53274 C 141.9077 355.53274 148.64518 354.7914 154.5541 353.6794 C 156.16761 353.37413 159.85251 352.7854 162.73066 352.34933 C 170.18768 351.28093 172.67335 350.6704 177.23042 348.88247 C 177.6447 348.70804 178.2334 348.5772 178.51686 348.5554 C 178.99655 348.5554 179.01836 348.62082 178.90934 349.5584 Z" fill="#FFFFFF"/>
        </g>
        <g id="Graphic_58">
          <path d="M 187.47837 348.88247 C 192.03543 350.6704 194.5211 351.28093 201.97812 352.34933 C 204.85627 352.7854 208.54117 353.37413 210.15468 353.6794 C 216.0636 354.7914 222.80108 355.53274 226.81305 355.53274 C 231.69718 355.53274 237.34445 355.20567 242.51203 354.63877 C 245.4338 354.3117 249.00967 354.11547 254.52612 354.00645 C 259.06138 353.91923 263.24778 353.723 264.447 353.54856 C 266.93268 353.1779 271.1845 353.1779 272.40552 353.52676 C 274.04083 354.00645 274.30248 354.3771 274.4333 356.2959 L 274.54232 357.9966 L 273.91 357.8658 C 273.56114 357.77856 271.7078 357.56052 269.78902 357.3643 C 265.73345 356.95 261.04556 357.10264 247.6578 358.08382 C 241.3128 358.5417 237.93316 358.67253 228.90625 358.73795 C 210.8524 358.89058 205.37957 358.30186 195.76394 355.16207 C 195.21884 354.98763 194.19404 354.66057 193.4745 354.44253 C 192.07904 354.02825 189.746 353.06887 189.50615 352.82902 C 189.44074 352.7636 189.2009 352.6982 189.00466 352.6982 C 188.83022 352.6982 188.32873 352.41474 187.91445 352.04407 C 187.50017 351.6952 187.06409 351.41175 186.97687 351.38995 C 186.47538 351.36815 185.88666 350.45237 185.79945 349.5584 C 185.69043 348.62082 185.71223 348.5554 186.19192 348.5554 C 186.47538 348.5772 187.06409 348.70804 187.47837 348.88247 Z" fill="#FFFFFF"/>
        </g>
        <g id="Graphic_57">
          <path d="M 183.57543 352.91624 C 184.07692 353.2651 185.18893 353.7666 186.0393 354.02825 C 186.88966 354.2899 189.15729 355.09665 191.07605 355.8162 C 199.88493 359.1086 203.70065 360.0244 211.02685 360.5477 C 218.26582 361.0492 240.39703 360.78754 250.8194 360.068 C 256.13962 359.69733 270.55217 359.69733 272.01304 360.068 C 273.2995 360.41687 274.12805 361.0928 273.60475 361.41986 C 272.907 361.83414 272.42732 362.2048 272.10026 362.51006 C 271.90402 362.6845 271.44614 363.01156 271.09727 363.2514 C 270.7266 363.46945 270.2251 363.8619 269.96345 364.10177 C 269.48376 364.51605 269.1349 364.53785 255.68174 364.58146 C 234.64074 364.62507 232.59115 364.9085 217.82974 369.70543 C 205.554 373.6738 203.80967 374.3497 198.48946 377.09704 C 192.55873 380.1714 189.30992 382.37364 185.5814 385.9277 C 183.4446 387.9555 183.35738 388.0209 182.3544 388.0209 C 181.3514 388.0209 181.26419 387.9555 179.12738 385.9277 C 175.39887 382.37364 172.15005 380.1714 166.21932 377.09704 C 160.89911 374.3497 159.15478 373.6738 146.87905 369.70543 C 132.11764 364.9085 130.06805 364.62507 109.02705 364.58146 C 95.57389 364.53785 95.22502 364.51605 94.74533 364.10177 C 94.48368 363.8619 93.98219 363.46945 93.61152 363.2514 C 93.26265 363.01156 92.80476 362.6845 92.60853 362.51006 C 92.28146 362.2048 91.80177 361.83414 91.10404 361.41986 C 90.58074 361.0928 91.4093 360.41687 92.69574 360.068 C 94.15662 359.69733 108.56916 359.69733 113.88937 360.068 C 121.71706 360.6131 127.58238 360.76573 138.85512 360.76573 C 158.58787 360.76573 161.59685 360.32965 173.63273 355.8162 C 175.5515 355.09665 177.81913 354.2899 178.6695 354.02825 C 179.51985 353.7666 180.61006 353.2869 181.06795 352.93804 C 182.15816 352.1095 182.48522 352.1095 183.57543 352.91624 Z" fill="#FFFFFF"/>
        </g>
        <g id="Graphic_56">
          <path d="M 120.38701 366.65285 C 124.72603 367.0017 133.94919 368.4408 137.11079 369.24755 C 138.00476 369.4656 139.48744 369.83626 140.38141 370.0325 C 143.41219 370.75203 147.09709 371.95126 151.28348 373.6302 C 162.07654 377.9474 168.31252 380.82555 171.56134 382.98416 C 172.56433 383.6601 174.63573 385.3826 176.1184 386.8435 L 178.84393 389.4818 L 178.38604 390.0705 C 178.12439 390.39757 177.84093 390.94267 177.77552 391.29154 C 177.6883 391.6622 177.57928 391.94566 177.53568 391.94566 C 177.47026 391.94566 175.79134 390.94267 173.78536 389.74344 C 152.28647 376.68276 143.12873 373.1287 123.70124 370.27234 C 119.90732 369.70543 108.89622 368.3972 104.40457 367.9611 C 101.61364 367.69945 99.93472 367.3288 100.19637 367.06713 C 100.349 366.9145 107.15189 366.67466 116.09159 366.4784 C 116.94195 366.4566 118.88252 366.54383 120.38701 366.65285 Z" fill="#FFFFFF"/>
        </g>
        <g id="Graphic_55">
          <path d="M 259.27942 366.78368 C 262.11396 366.8709 264.51242 367.0017 264.55603 367.08893 C 264.70865 367.3506 263.00793 367.69945 260.30422 367.9611 C 255.81256 368.3972 244.80147 369.70543 241.00755 370.27234 C 221.47103 373.1505 212.3787 376.70456 190.55275 389.9615 C 188.35053 391.29154 186.51898 392.35994 186.51898 392.33814 C 186.49718 392.29453 186.36636 391.83664 186.21373 391.29154 C 186.0611 390.74643 185.88666 390.1577 185.82125 389.9615 C 185.64682 389.4818 190.87981 384.48864 193.14745 382.98416 C 196.39626 380.82555 202.63225 377.9474 213.4253 373.6302 C 217.6117 371.95126 221.2966 370.75203 224.32737 370.0325 C 225.22134 369.83626 226.70403 369.4656 227.598 369.24755 C 230.43254 368.528 239.96095 367.0017 243.9511 366.65285 C 245.9571 366.4784 248.44276 366.50022 259.27942 366.78368 Z" fill="#FFFFFF"/>
        </g>
        <g id="Graphic_54">
          <path d="M 183.90249 390.72463 C 184.5348 391.35695 184.64383 391.6186 184.64383 392.49077 C 184.64383 393.36293 184.5348 393.6246 183.90249 394.2569 C 183.27017 394.8892 183.00852 394.99824 182.13635 394.99824 C 180.3266 394.99824 179.41083 394.06066 179.41083 392.2291 C 179.41083 391.6622 179.58527 391.29154 180.15217 390.72463 C 180.8063 390.0705 181.02434 389.9833 182.02733 389.9833 C 183.03032 389.9833 183.24836 390.0705 183.90249 390.72463 Z" fill="#FFFFFF"/>
        </g>
      </g>
    </g>
  </g>
</svg>
