<?xml version="1.0" encoding="UTF-8" standalone="no"?>
<!DOCTYPE svg PUBLIC "-//W3C//DTD SVG 1.1//EN" "http://www.w3.org/Graphics/SVG/1.1/DTD/svg11.dtd">
<svg xmlns:xl="http://www.w3.org/1999/xlink" xmlns="http://www.w3.org/2000/svg" xmlns:dc="http://purl.org/dc/elements/1.1/" version="1.1" viewBox="81 63 202.5 342" width="202.5" height="342">
  <defs>
    <clipPath id="artboard_clip_path">
      <path d="M 81 63 L 283.5 63 L 283.5 405 L 81 405 Z"/>
    </clipPath>
  </defs>
  <g id="Hawk_(1)" stroke-opacity="1" stroke="none" stroke-dasharray="none" fill="none" fill-opacity="1">
    <title>Hawk (1)</title>
    <g id="Hawk_(1)_Layer_2" clip-path="url(#artboard_clip_path)">
      <title>Layer 2</title>
      <g id="Group_3">
        <g id="Graphic_87">
          <path d="M 120.21373 66.34302 C 116.97413 67.53656 115.61009 68.47434 112.28523 71.71394 C 111.17695 72.82222 109.4719 73.67475 108.36361 73.76 C 107.17007 73.84525 105.12401 75.29455 103.1632 77.51112 C 100.43511 80.58021 99.83835 82.02951 99.41208 85.95113 C 99.07107 89.53174 99.24158 91.15154 100.34986 92.8566 C 101.7139 94.90266 101.88441 94.90266 103.84522 93.62387 C 106.74381 91.74831 110.15392 92.43033 112.28523 95.24367 C 113.81978 97.37499 114.07554 98.82428 113.99029 106.75278 C 113.99029 114.76653 113.64928 116.72734 111.2622 123.12129 C 106.48805 136.16495 104.86825 144.5197 104.86825 156.36982 C 105.03876 174.44339 108.36361 187.82805 117.91191 207.94768 C 120.29898 213.06284 123.36808 219.6273 124.73212 222.44063 C 127.1192 227.47054 127.71596 231.1364 128.56849 245.0326 C 129.76203 265.9195 131.89334 277.00233 136.58224 288.08518 C 138.03154 291.32478 139.22507 294.56438 139.22507 295.2464 C 139.22507 295.92842 139.99235 297.29246 140.93013 298.3155 C 142.54993 300.02055 142.54993 300.36156 141.44164 304.36844 C 140.75962 306.67026 139.9071 310.42137 139.56608 312.80845 C 139.31032 315.11027 138.4578 318.43512 137.86103 320.05492 C 137.26426 321.67472 136.15598 325.59635 135.3887 328.66544 C 133.68365 335.82667 129.93253 345.20446 127.2897 349.1261 C 124.81737 352.8772 121.49252 355.179 115.61009 357.2251 C 111.85897 358.58912 110.58018 358.67438 107.42583 357.82185 C 100.52037 355.9463 92.50662 358.4186 92.33611 362.34024 C 92.33611 362.85176 91.31308 364.13055 90.11954 365.3241 C 87.05045 368.1374 84.66337 373.50834 84.66337 377.77097 C 84.66337 382.63037 86.79469 382.8009 87.56196 378.112 C 88.24398 373.9346 92.08035 371.2065 97.36602 371.2065 C 100.60562 371.2065 100.86138 371.37702 100.86138 373.5936 C 100.86138 374.95763 100.0941 377.60047 99.15632 379.5613 C 96.76925 384.50593 96.93975 389.53584 99.66784 393.11645 C 100.86138 394.651 102.14017 395.9298 102.48118 395.9298 C 102.90744 395.9298 103.41896 394.1395 103.67471 391.9229 C 104.01573 388.59806 104.69775 387.31927 107.17007 385.18795 C 108.87513 383.73866 110.23917 381.8631 110.23917 381.09583 C 110.23917 379.5613 114.07554 379.135 115.01332 380.66956 C 115.26908 381.1811 115.09857 383.8239 114.5018 386.552 C 113.30826 392.17867 113.90503 397.63484 115.78059 397.63484 C 116.46261 397.63484 116.80362 397.12332 116.54787 396.4413 C 115.78059 394.4805 119.78747 389.2801 123.19757 387.74553 C 125.15838 386.893 126.43717 385.6142 126.60768 384.50593 C 126.77818 383.39765 127.54546 382.63037 128.739 382.45987 C 130.3588 382.2041 130.5293 382.45987 130.10304 385.4437 C 129.59152 389.6211 131.04082 393.3722 133.17213 393.3722 C 134.28042 393.3722 134.79193 392.77544 134.79193 391.2409 C 134.79193 387.74553 136.49699 384.50593 139.31032 382.88613 C 143.06144 380.84007 144.68124 380.9253 143.91397 383.39765 C 143.57296 384.4207 143.1467 387.234 142.89094 389.6211 C 142.46467 393.45746 142.72043 394.22473 144.68124 396.35605 C 145.87478 397.63484 146.89781 398.9989 146.89781 399.42515 C 146.89781 400.7892 149.6259 402.75 151.4162 402.75 L 153.29176 402.75 L 151.33095 401.21545 C 149.28489 399.59565 147.49458 393.96898 148.26185 391.4114 C 148.68812 390.04735 156.53136 385.69947 158.57743 385.69947 C 159.77096 385.69947 172.4736 373.4231 172.4736 372.3148 C 172.4736 371.8033 173.07038 370.013 173.7524 368.30793 L 175.11644 365.1536 L 178.27079 367.7964 C 181.16938 370.1835 181.8514 370.354 188.5011 370.354 C 195.83284 370.354 198.30516 369.5867 203.59083 365.6651 C 207.4272 362.7665 215.01468 359.10064 215.95246 359.6974 C 216.46398 360.0384 216.805 360.8057 216.805 361.4877 C 216.805 363.02226 218.5953 363.02226 220.64136 361.4877 C 222.0054 360.4647 222.09065 360.0384 221.15287 357.7366 C 219.70358 354.24124 218.08378 352.8772 212.54236 350.83113 C 206.23366 348.44406 203.50557 348.61456 197.5379 351.5984 C 190.46192 355.179 188.24535 354.58225 186.96656 348.6998 C 185.94353 344.35193 184.32373 315.9628 185.00575 314.684 C 185.85827 313.2347 187.81909 314.25774 187.81909 316.1333 C 187.81909 317.32684 188.24535 318.52038 188.67161 318.77613 C 189.43889 319.28765 189.86515 315.6218 189.9504 305.47672 C 189.9504 302.91914 190.54717 301.04358 191.48495 300.1058 C 193.87202 297.71873 193.0195 289.8755 189.52414 281.52072 C 188.1601 278.36638 187.90434 276.66132 188.5011 272.99546 L 189.09788 268.56232 L 192.50798 271.54616 C 196.6001 275.21203 200.35123 276.66132 202.7383 275.55304 C 206.1484 274.0185 211.0078 277.2581 216.63448 284.67507 C 224.56298 295.33165 241.95452 313.57572 253.80464 323.8913 C 258.49354 327.98342 267.10406 332.84282 269.49113 332.84282 C 270.76992 332.84282 274.6063 330.11474 277.8459 326.9604 C 283.2168 321.67472 277.8459 310.08036 260.1986 288.68195 C 253.8899 281.0092 250.6503 275.9793 251.3323 274.95627 C 252.0996 273.59223 253.46363 273.848 253.46363 275.21203 C 253.46363 275.89405 253.80464 276.57607 254.2309 276.74657 C 254.57192 276.83183 257.89677 279.64517 261.56263 282.97002 C 265.14324 286.20962 269.32062 289.70498 270.85517 290.64276 C 272.38972 291.58054 274.69154 293.02983 275.97033 293.9676 C 278.5279 295.7579 279.9772 295.16115 278.3574 292.94458 C 277.76064 292.1773 276.65235 290.13124 275.97033 288.51144 C 275.20306 286.89164 273.75376 284.33406 272.73073 282.97002 C 269.49113 278.53688 267.0188 273.0807 267.53032 271.37566 C 267.87133 270.26737 267.70082 269.75586 266.8483 269.75586 C 266.16628 269.75586 264.71698 268.3918 263.6087 266.772 C 262.5004 265.1522 260.96586 263.61767 260.11334 263.3619 C 259.34606 263.10615 256.87374 260.2928 254.57192 257.13846 C 252.2701 253.98412 246.89918 247.76067 242.7218 243.32753 C 228.74036 228.57882 227.63208 225.16872 239.22644 233.01196 C 242.63654 235.22853 246.89918 237.87136 248.86 238.8944 C 250.73555 239.83217 252.7816 241.28147 253.37838 241.9635 C 254.0604 242.73077 255.08343 243.32753 255.6802 243.32753 C 257.21475 243.32753 255.93596 239.83217 252.69636 235.4843 C 249.88302 231.64792 239.05593 219.54204 234.9638 215.44992 C 233.42926 214.00062 232.15047 212.55132 232.15047 212.38082 C 232.15047 211.6988 228.4846 207.52142 225.75652 205.13434 C 221.8349 201.55373 213.48014 192.68746 213.39488 192.00543 C 213.39488 191.1529 205.12538 174.52864 199.8397 164.46883 C 194.9803 155.26154 186.45504 141.1096 184.9205 139.74556 C 184.40898 139.23404 183.38595 137.87 182.70393 136.59121 C 182.0219 135.39767 179.63483 131.7318 177.41826 128.4922 C 175.11644 125.16735 173.32613 122.09826 173.32613 121.58674 C 173.32613 121.16048 171.19482 117.75037 168.63724 114.16976 C 165.9944 110.58915 163.43683 106.58227 162.7548 105.38874 C 161.22026 102.31964 158.83318 91.06629 158.49217 85.43962 C 158.0659 78.19314 155.16732 74.10101 147.06832 69.071105 C 141.35639 65.57575 126.69293 64.0412 120.21373 66.34302 Z M 163.01056 291.15427 L 163.01056 291.15427 C 164.2041 292.60357 167.01744 295.84317 169.31926 298.3155 L 173.32613 302.74863 L 173.32613 314.25774 C 173.32613 328.66544 170.76855 348.5293 168.38148 353.0477 C 166.25016 356.88407 162.4138 357.7366 159.60046 354.92326 C 158.15116 353.47396 157.04288 353.2182 154.4853 353.5592 C 152.695 353.81498 150.64893 353.5592 149.9669 352.96245 C 147.06832 350.7459 146.04528 342.73213 147.66509 335.2299 C 148.1766 333.18383 149.19963 327.55716 150.05216 322.6125 C 151.50145 314.002 151.67196 313.66097 153.88853 313.4052 C 155.50833 313.2347 156.36086 312.3822 157.12813 310.42137 C 157.7249 308.88683 158.66268 306.49975 159.3447 305.1357 C 160.19723 303.1749 160.19723 301.04358 159.68571 296.3547 C 159.25945 292.94458 158.66268 289.79023 158.40692 289.2787 C 157.12813 287.23265 160.9645 288.85245 163.01056 291.15427 Z" fill="black"/>
        </g>
        <g id="Graphic_86">
          <path d="M 139.65134 71.45818 C 141.18588 72.48121 142.72043 72.73697 144.59599 72.39596 C 147.23882 71.88444 147.23882 71.969695 145.61902 73.248485 C 143.99922 74.527275 143.99922 74.61253 146.64205 76.65859 C 148.3471 78.02263 149.88165 80.40971 150.73418 83.05254 C 152.26873 87.57093 151.84247 89.7875 149.88165 88.1677 C 149.11438 87.48568 149.19963 88.76447 150.39317 92.43033 C 152.18348 98.39802 152.52449 102.14914 151.0752 101.63762 C 150.47842 101.46711 149.45539 99.76206 148.68812 97.80125 C 147.23882 94.05013 145.53377 91.74831 146.30104 94.56165 C 147.32407 98.39802 147.83559 104.3657 147.06832 104.3657 C 146.64205 104.3657 145.87478 102.83116 145.27801 100.9556 C 144.7665 99.08004 143.82872 97.54549 143.40245 97.54549 C 142.80568 97.54549 142.72043 98.14226 143.06144 98.99479 C 143.82872 101.04085 145.19276 109.39561 145.19276 112.20895 C 145.19276 115.87481 143.74346 115.02229 143.1467 110.93016 C 142.20892 104.62146 140.84487 104.10995 141.44164 110.33339 C 142.03841 116.38633 142.29417 117.1536 143.57296 117.1536 C 144.68124 117.1536 151.16044 110.6744 151.16044 109.56612 C 151.16044 107.77581 154.40004 108.62834 157.04288 111.10066 C 158.74793 112.63521 159.68571 114.42552 159.68571 115.87481 C 159.68571 117.66512 160.02672 118.09138 161.56127 117.83562 C 163.69258 117.57987 164.54511 119.71118 164.71562 125.93463 C 164.80087 130.02675 166.50592 129.25948 166.50592 125.0821 C 166.50592 122.60977 166.67643 122.26876 167.69946 123.03604 C 168.38148 123.6328 169.14875 125.59362 169.48977 127.46917 C 170.17179 131.30554 171.62108 132.84009 171.36532 129.42999 C 171.19482 126.78715 172.81462 125.76412 173.7524 127.98069 C 174.0934 128.83322 175.03119 132.41383 175.88371 135.90919 C 176.73624 139.40455 177.50351 141.2801 177.50351 140.00131 C 177.58877 138.72252 177.92978 137.52899 178.35604 137.27323 C 179.80534 136.33545 181.16938 139.40455 182.44817 146.73627 C 183.89746 155.09103 184.40898 156.45508 184.40898 151.85143 C 184.40898 149.72012 184.83524 148.69709 185.60252 148.69709 C 187.30757 148.69709 189.35363 154.49427 190.03566 161.05872 C 190.63242 167.11166 192.08172 169.49873 192.08172 164.55408 C 192.08172 159.60943 193.53101 161.05872 194.72455 167.19691 C 195.40657 170.43651 196.00334 172.31207 196.17385 171.45954 C 196.51486 169.925 197.62314 169.49873 198.47567 170.77752 C 198.73143 171.20379 199.3282 173.59086 199.75446 176.14844 C 200.26597 179.04703 201.20375 181.0931 202.31204 181.86037 C 203.24982 182.45714 204.0171 183.39492 204.0171 183.73593 C 204.0171 184.1622 206.1484 188.85109 208.70599 194.0515 C 211.26357 199.2519 213.39488 204.02606 213.39488 204.62283 C 213.39488 206.41313 204.5286 202.1505 198.73143 197.71736 C 194.04253 194.0515 192.59323 193.62524 194.89506 196.43857 C 197.19688 199.33716 206.74518 206.6689 208.27972 206.6689 C 209.13225 206.6689 210.07003 207.0099 210.41104 207.43617 C 210.6668 207.86243 212.03084 208.4592 213.39488 208.8002 C 215.78196 209.31172 218.51004 212.72183 218.51004 215.19416 C 218.51004 218.68952 200.948 209.65273 189.9504 200.44545 C 180.82837 192.68746 181.33988 193.02847 183.1302 196.18281 C 186.7108 202.40626 205.6369 215.36466 216.805 219.37154 C 222.0054 221.2471 231.46845 231.39216 228.05834 231.39216 C 226.77955 231.39216 209.55851 224.40144 208.27972 223.29316 C 207.5977 222.78164 204.6991 220.99134 201.88577 219.4568 C 196.4296 216.47295 181.33988 204.70808 180.74312 203.00303 C 180.5726 202.40626 180.14635 202.23575 179.80534 202.57676 C 178.69705 203.5998 191.48495 215.53517 199.6692 221.0766 C 208.19447 226.87377 223.53995 234.376 228.8256 235.22853 C 231.3832 235.6548 232.8325 236.76308 235.90158 240.5142 C 238.0329 243.07178 239.8232 245.5441 239.8232 245.97037 C 239.8232 247.1639 236.92462 246.8229 235.04906 245.45885 C 234.19653 244.77683 232.91774 244.18006 232.23572 244.18006 C 230.87168 244.18006 217.91327 236.76308 216.12297 235.05803 C 215.5262 234.46126 214.50317 233.94974 213.9064 233.94974 C 212.4571 233.94974 204.0171 228.32307 193.44576 220.30932 C 188.84212 216.81396 183.6417 212.9776 181.93665 211.8693 C 180.2316 210.76102 178.69705 209.56748 178.4413 209.22647 C 178.18554 208.88546 176.13947 207.1804 173.7524 205.47535 C 168.21098 201.38323 157.38389 190.72664 154.14429 186.2935 C 152.78024 184.3327 149.54064 180.15532 147.06832 177.00097 C 138.37255 166.00337 131.55233 151.16941 131.55233 143.15566 C 131.55233 141.19485 132.40486 138.0405 133.51314 135.99444 C 135.13294 132.84009 136.07072 131.98757 139.99235 130.53827 C 145.87478 128.40695 149.88165 129.42999 153.2065 133.77787 C 154.6558 135.65343 156.19035 136.76171 157.46914 136.76171 C 160.28248 136.76171 163.94834 133.60737 163.94834 131.13504 C 163.94834 129.17423 163.69258 129.08897 158.49217 129.08897 C 154.8263 129.08897 152.78024 128.66271 152.09822 127.89544 C 150.90469 126.5314 144.08447 123.97382 141.5269 123.97382 C 138.88406 123.97382 131.12607 130.79403 129.42102 134.6304 C 126.69293 140.68334 126.77818 147.33304 129.76203 156.02881 C 132.1491 163.10478 132.49011 167.45267 130.61455 167.45267 C 130.18829 167.45267 129.84728 167.79368 129.84728 168.3052 C 129.84728 168.73146 131.21132 169.32823 132.83112 169.66924 C 135.3887 170.0955 136.24123 170.94803 138.88406 175.46642 C 140.50386 178.27976 144.16973 183.30966 146.89781 186.63452 C 149.71115 189.87412 151.92772 192.85796 152.01297 193.11372 C 152.01297 194.0515 147.66509 195.58605 144.68124 195.58605 C 142.63518 195.58605 141.78265 195.92706 142.03841 196.60908 C 142.46467 198.05837 149.45539 197.54686 151.2457 195.92706 C 151.92772 195.24504 152.78024 194.73352 152.95075 194.73352 C 153.2065 194.73352 156.4461 197.71736 160.19723 201.38323 C 167.01744 208.11819 171.53583 212.12506 183.98272 222.35538 C 203.0793 238.12712 202.9088 237.95662 207.7682 246.14087 C 212.20135 253.6431 216.29347 258.58776 217.23125 257.64998 C 217.65752 257.30897 212.79811 250.65926 208.27972 245.28834 C 207.34194 244.18006 207.08619 242.475 207.93871 242.475 C 210.07003 242.475 215.3557 246.90815 218.5953 251.42654 C 219.95934 253.3021 222.43166 256.3712 224.05146 258.24675 L 227.0353 261.65685 L 225.15975 258.07624 C 224.05146 256.11543 223.4547 254.23987 223.7957 253.89886 C 224.56298 253.1316 229.50763 256.8827 232.49148 260.54857 C 237.77714 266.94252 246.64342 279.2189 246.64342 280.07143 C 246.64342 282.1175 238.2034 278.7074 233.94077 274.95627 C 232.15047 273.33647 230.61592 272.65445 229.33713 272.9102 C 228.05834 273.16596 226.26803 272.3987 224.13672 270.69364 C 222.3464 269.24434 220.2151 267.8803 219.36257 267.62454 C 218.4248 267.36878 217.487 266.431 217.23125 265.49322 C 216.9755 264.6407 216.12297 263.44716 215.3557 262.76514 C 214.16216 261.82736 214.0769 261.9126 214.67367 263.78817 C 215.95246 267.7098 219.44782 272.05768 224.05146 275.38253 C 226.60904 277.17284 228.99612 279.47466 229.50763 280.4977 C 230.2749 282.1175 242.3808 296.43994 248.51898 302.8339 C 252.0996 306.585 262.24465 311.52966 266.33678 311.52966 C 269.7469 311.52966 271.28144 312.80845 269.7469 314.343 C 268.1271 315.9628 258.83455 313.66097 253.97515 310.33612 C 242.12503 302.32237 222.26116 283.14052 223.2842 280.58294 C 223.4547 279.98618 222.26116 278.36638 220.5561 276.91708 C 218.9363 275.55304 215.61145 271.71667 213.30963 268.30656 C 211.09306 264.9817 208.8765 262.08312 208.45023 261.9126 C 208.10922 261.82736 206.91568 260.20756 205.8074 258.41725 C 204.78436 256.7122 202.99406 254.83664 202.05628 254.23987 C 200.35123 253.38735 200.26597 253.4726 201.289 254.66614 C 201.88577 255.34816 203.84659 259.01402 205.72214 262.76514 C 207.51245 266.51626 209.388 269.8411 209.89952 270.09687 C 211.43407 271.1199 210.92256 273.16596 209.2175 273.16596 C 207.4272 273.16596 199.58395 264.9817 197.45264 260.88958 C 195.66233 257.39422 191.05869 250.91502 190.63242 251.34128 C 190.46192 251.5118 192.08172 255.4334 194.38354 260.03705 C 196.6001 264.72595 198.56092 268.73283 198.73143 269.07384 C 198.90193 269.5001 198.47567 269.75586 197.7084 269.75586 C 196.00334 269.75586 186.19929 258.1615 181.93665 251.00027 C 179.72008 247.1639 177.75927 245.0326 175.7132 244.00955 C 173.32613 242.90127 171.9621 241.11096 169.0635 235.4843 C 164.88612 227.3853 164.97137 227.5558 164.28935 228.2378 C 164.0336 228.49357 164.2041 230.11337 164.80087 231.73317 C 165.56814 234.035 165.56814 235.91055 164.88612 239.2354 C 163.77784 244.0948 164.28935 245.97037 165.4829 241.53723 C 166.33542 237.95662 169.0635 237.01884 169.0635 240.25844 C 169.0635 242.04874 167.1027 247.59017 165.8239 249.29522 C 165.6534 249.55098 164.97137 249.03946 164.3746 248.18694 C 163.43683 246.8229 163.26632 247.1639 163.35157 250.91502 C 163.52208 254.15462 163.86309 255.2629 164.97137 255.51866 C 167.2732 256.11543 167.86996 260.1223 165.9944 262.25362 C 164.3746 264.04393 164.3746 264.04393 166.33542 263.0209 C 167.4437 262.42413 168.893 262.16837 169.57502 262.42413 C 171.53583 263.1914 170.93906 267.11302 168.63724 269.24434 C 165.9944 271.71667 165.9944 272.5692 168.55199 273.93324 C 171.36532 275.4678 173.07038 278.8779 171.79159 280.15668 C 170.17179 281.77648 170.59805 282.37325 172.89987 281.86173 C 175.5427 281.43547 177.07725 283.14052 181.8514 292.1773 C 186.7108 301.29934 186.02878 303.1749 180.48736 296.18418 C 178.01503 293.1151 174.60492 289.2787 172.72937 287.6589 L 169.40451 284.67507 L 169.74552 289.96074 C 170.25704 297.88923 168.63724 297.12196 162.32854 286.20962 C 160.45298 282.88477 158.83318 279.30415 158.83318 278.36638 C 158.83318 277.4286 157.81015 274.44475 156.61661 271.71667 C 153.80328 265.49322 151.4162 258.58776 149.9669 253.04634 C 149.37014 250.48876 146.81256 245.62936 143.82872 241.19622 C 141.10063 237.1041 137.60527 231.81843 136.15598 229.5166 C 134.70668 227.21478 132.74587 224.4867 131.80809 223.46366 C 126.94869 218.09275 119.1907 203.00303 115.69534 192.17594 C 115.01332 190.04462 114.07554 187.23129 113.64928 185.86724 C 112.7115 182.96865 113.30826 181.4341 114.92807 182.79815 C 117.65615 185.01472 122.4303 179.9848 120.981 176.31895 C 120.46949 174.86965 114.92807 174.7844 113.05251 176.2337 C 112.37049 176.7452 111.77372 175.97794 111.0917 173.67611 C 109.72765 168.98722 108.36361 156.28457 108.70462 151.08416 C 108.96038 146.65102 108.96038 146.65102 112.19998 145.88375 C 113.99029 145.45748 115.69534 144.5197 115.9511 143.92294 C 116.54787 142.30314 115.43958 139.4898 114.67231 140.68334 C 114.3313 141.19485 113.05251 141.87687 111.77372 142.21788 C 109.8129 142.64415 109.38664 142.47364 109.38664 141.1096 C 109.38664 139.23404 112.28523 129.51524 116.1216 118.51765 C 119.70221 108.11682 119.87272 101.21136 116.71837 94.73215 C 113.73453 88.67922 109.89816 86.03638 105.03876 86.80366 C 101.96966 87.31517 101.7139 87.22992 101.7139 85.26911 C 101.7139 81.51799 102.56643 80.49496 105.63553 80.49496 C 108.10785 80.49496 109.38664 81.34749 113.64928 85.69537 C 117.31514 89.44649 119.10545 92.00407 119.78747 94.56165 C 120.46949 96.94872 121.49252 98.56852 122.68606 99.16529 C 125.07313 100.18832 125.58465 99.67681 125.58465 96.0962 C 125.58465 93.96488 124.98788 92.60084 123.36808 91.32205 C 122.08929 90.29902 118.59393 87.05942 115.43958 84.07557 C 112.37049 81.17698 109.13088 78.53415 108.36361 78.27839 C 105.97654 77.51112 106.5733 76.23233 109.30139 76.23233 C 110.66543 76.23233 112.19998 76.8291 112.79675 77.51112 C 113.39352 78.19314 114.5018 78.78991 115.26908 78.704655 C 116.1216 78.704655 116.20686 78.53415 115.61009 78.19314 C 113.47877 77.34061 114.41655 73.76 117.05938 72.39596 C 123.28283 69.15636 135.3887 68.64484 139.65134 71.45818 Z" fill="#FFFFFF"/>
        </g>
        <g id="Graphic_85">
          <path d="M 154.14429 80.40971 C 154.40004 80.83597 154.22954 81.43274 153.71802 81.77375 C 153.29176 82.02951 152.8655 81.6885 152.8655 81.00648 C 152.8655 79.47193 153.37701 79.21617 154.14429 80.40971 Z" fill="#FFFFFF"/>
        </g>
        <g id="Graphic_84">
          <path d="M 148.26185 110.93016 C 147.40933 111.78269 146.64205 110.5039 147.40933 109.39561 C 147.92084 108.45783 148.09135 108.45783 148.43236 109.39561 C 148.60286 109.99238 148.51761 110.6744 148.26185 110.93016 Z" fill="#FFFFFF"/>
        </g>
        <g id="Graphic_83">
          <path d="M 163.94834 200.7012 C 163.94834 201.12747 163.77784 201.55373 163.60733 201.55373 C 163.35157 201.55373 162.92531 201.12747 162.66955 200.7012 C 162.4138 200.1897 162.5843 199.84868 163.01056 199.84868 C 163.52208 199.84868 163.94834 200.1897 163.94834 200.7012 Z" fill="#FFFFFF"/>
        </g>
        <g id="Graphic_82">
          <path d="M 223.2842 207.94768 C 223.6252 209.14122 223.53995 210.42 223.2842 210.67577 C 222.43166 211.5283 219.1068 207.77718 219.70358 206.75414 C 220.81186 205.0491 222.68742 205.73111 223.2842 207.94768 Z" fill="#FFFFFF"/>
        </g>
        <g id="Graphic_81">
          <path d="M 230.44541 213.57436 C 231.04218 214.51214 231.2127 215.62042 230.87168 215.87618 C 230.1044 216.64345 227.46157 214.7679 227.2058 213.1481 C 226.77955 211.18728 229.33713 211.44304 230.44541 213.57436 Z" fill="#FFFFFF"/>
        </g>
        <g id="Graphic_80">
          <path d="M 227.46157 217.75174 C 228.1436 219.11578 228.74036 220.99134 228.74036 221.92912 C 228.74036 224.6572 226.6943 223.2079 225.245 219.6273 C 224.64823 217.92224 223.9662 216.2172 223.7957 215.79093 C 223.6252 215.44992 224.05146 215.19416 224.81874 215.19416 C 225.50076 215.19416 226.6943 216.30244 227.46157 217.75174 Z" fill="#FFFFFF"/>
        </g>
        <g id="Graphic_79">
          <path d="M 234.70805 223.3784 C 235.21956 224.57195 235.56057 225.936 235.56057 226.36226 C 235.56057 228.57882 231.7242 225.85074 230.87168 223.0374 C 230.01915 220.22406 233.59976 220.39457 234.70805 223.3784 Z" fill="#FFFFFF"/>
        </g>
        <g id="Graphic_78">
          <path d="M 243.0628 227.8968 C 248.43372 234.2055 247.83696 235.8253 241.78402 231.47741 C 237.8624 228.66408 235.47532 223.71942 237.94765 223.71942 C 238.71492 223.71942 241.01674 225.59498 243.0628 227.8968 Z" fill="#FFFFFF"/>
        </g>
        <g id="Graphic_77">
          <path d="M 199.75446 227.47054 C 199.75446 227.64104 199.1577 228.2378 198.47567 228.83458 C 197.45264 229.6871 197.19688 229.6871 197.19688 228.49357 C 197.19688 227.7263 197.79365 227.12953 198.47567 227.12953 C 199.1577 227.12953 199.75446 227.30003 199.75446 227.47054 Z" fill="#FFFFFF"/>
        </g>
        <g id="Graphic_76">
          <path d="M 133.5984 230.45438 C 133.85415 230.88065 133.17213 231.39216 131.9786 231.56267 C 129.59152 232.07418 128.99475 230.88065 131.38183 230.28388 C 132.1491 230.02812 132.91638 229.85761 133.00163 229.77236 C 133.08688 229.77236 133.34264 230.02812 133.5984 230.45438 Z" fill="#FFFFFF"/>
        </g>
        <g id="Graphic_75">
          <path d="M 137.52002 244.94733 C 137.52002 245.45885 136.41173 245.8851 135.0477 245.8851 C 133.17213 245.8851 132.49011 245.45885 132.23435 243.83905 C 131.9786 242.73077 132.1491 241.19622 132.57537 240.42894 C 133.25739 239.2354 133.68365 239.4059 135.47396 241.53723 C 136.58224 242.90127 137.52002 244.43582 137.52002 244.94733 Z" fill="#FFFFFF"/>
        </g>
        <g id="Graphic_74">
          <path d="M 142.97619 245.45885 C 142.63518 246.14087 141.8679 246.73764 141.18588 246.73764 C 140.50386 246.73764 140.16285 246.39663 140.50386 245.97037 C 140.75962 245.5441 140.58911 244.94733 140.0776 244.60632 C 139.56608 244.2653 139.39558 243.66854 139.65134 243.24228 C 140.50386 241.9635 143.4877 244.00955 142.97619 245.45885 Z" fill="#FFFFFF"/>
        </g>
        <g id="Graphic_73">
          <path d="M 172.4736 245.8851 C 172.4736 246.8229 172.81462 247.59017 173.32613 247.59017 C 175.62796 247.59017 185.68777 269.6706 184.06797 271.2904 C 183.21544 272.05768 180.0611 269.41485 176.90675 265.32272 C 174.94594 262.8504 172.81462 260.1223 172.04734 259.26978 C 171.02431 258.07624 170.76855 256.79745 171.10957 254.58088 C 171.53583 252.10856 171.45058 251.76755 170.76855 252.87583 C 169.57502 254.83664 167.35845 254.83664 167.35845 252.96108 C 167.35845 252.10856 167.95522 249.80674 168.7225 247.84592 C 170.17179 244.0948 172.4736 242.90127 172.4736 245.8851 Z" fill="#FFFFFF"/>
        </g>
        <g id="Graphic_72">
          <path d="M 243.2333 246.73764 C 243.2333 247.1639 242.8923 247.59017 242.3808 247.59017 C 241.95452 247.59017 241.52826 247.1639 241.52826 246.73764 C 241.52826 246.22612 241.95452 245.8851 242.3808 245.8851 C 242.8923 245.8851 243.2333 246.22612 243.2333 246.73764 Z" fill="#FFFFFF"/>
        </g>
        <g id="Graphic_71">
          <path d="M 141.5269 249.80674 C 142.46467 250.4035 144.16973 252.10856 145.27801 253.6431 L 147.15357 256.3712 L 145.1075 255.00715 C 142.20892 253.1316 137.52002 252.44957 134.70668 253.4726 C 132.49011 254.32513 132.40486 254.23987 132.40486 251.42654 C 132.40486 249.38047 132.83112 248.4427 133.9394 248.18694 C 135.90022 247.67542 139.22507 248.4427 141.5269 249.80674 Z" fill="#FFFFFF"/>
        </g>
        <g id="Graphic_70">
          <path d="M 239.4822 249.72148 C 243.14806 250.7445 248.34847 254.83664 248.34847 256.5417 C 248.34847 257.64998 245.44988 256.7122 241.35775 254.32513 C 238.88543 252.87583 236.32785 251.42654 235.64583 251.08553 C 234.19653 250.31825 233.344 248.4427 234.4523 248.4427 C 234.87855 248.4427 237.18037 249.03946 239.4822 249.72148 Z" fill="#FFFFFF"/>
        </g>
        <g id="Graphic_69">
          <path d="M 143.4877 256.96796 C 146.3863 258.41725 146.89781 259.09927 146.89781 261.4011 C 146.89781 263.95868 146.81256 263.95868 143.74346 263.3619 C 138.54305 262.42413 137.26426 262.42413 136.92325 263.5324 C 136.6675 264.21443 137.26426 264.6407 138.2873 264.6407 C 139.31032 264.6407 140.33336 265.1522 140.58911 265.83423 C 140.84487 266.51626 141.61215 266.85727 142.20892 266.68676 C 143.99922 266.00474 146.7273 267.79505 148.1766 270.60838 C 148.85862 271.97243 149.45539 273.2512 149.45539 273.59223 C 149.45539 274.44475 146.47155 274.0185 144.08447 272.7397 C 141.8679 271.6314 141.6974 271.6314 141.95316 272.99546 C 142.12366 273.76273 142.97619 274.53 143.91397 274.78576 C 146.98306 275.29728 150.13741 278.19587 152.78024 282.97002 C 155.76409 288.2557 156.2756 291.92155 153.97378 291.92155 C 152.26873 291.92155 148.60286 286.12437 148.60286 283.48153 C 148.60286 282.54376 147.49458 281.0092 146.13054 280.07143 C 143.82872 278.36638 143.65821 278.36638 143.3172 279.81567 C 143.06144 280.6682 143.23195 283.31103 143.74346 285.61285 C 144.68124 290.387 143.91397 296.43994 142.37942 295.92842 C 141.8679 295.7579 140.50386 292.77407 139.48083 289.2787 C 138.4578 285.78336 137.17901 282.20274 136.75275 281.26497 C 135.64446 278.79264 133.42789 268.3918 132.74587 262.42413 C 132.3196 257.8205 132.40486 257.0532 133.7689 256.20068 C 136.24123 254.83664 139.82184 255.0924 143.4877 256.96796 Z" fill="#FFFFFF"/>
        </g>
        <g id="Graphic_68">
          <path d="M 242.12503 267.62454 C 242.8923 269.75586 241.78402 270.09687 240.67573 268.13606 C 240.07896 266.85727 240.07896 266.34575 240.67573 266.34575 C 241.18725 266.34575 241.78402 266.94252 242.12503 267.62454 Z" fill="#FFFFFF"/>
        </g>
        <g id="Graphic_67">
          <path d="M 174.51967 268.81808 C 177.333 271.88717 173.07038 276.83183 170.08653 273.848 C 168.63724 272.3987 168.80774 270.60838 170.5128 268.73283 C 172.21785 266.772 172.72937 266.772 174.51967 268.81808 Z" fill="#FFFFFF"/>
        </g>
        <g id="Graphic_66">
          <path d="M 152.695 269.07384 C 152.43923 269.6706 151.75721 270.18212 151.16044 270.18212 C 150.56368 270.18212 149.88165 269.6706 149.71115 269.07384 C 149.45539 268.47707 150.05216 268.0508 151.16044 268.0508 C 152.26873 268.0508 152.8655 268.47707 152.695 269.07384 Z" fill="#FFFFFF"/>
        </g>
        <g id="Graphic_65">
          <path d="M 180.91362 275.8088 C 182.36292 277.2581 183.55645 278.7074 183.55645 279.13365 C 183.55645 279.5599 184.75 282.37325 186.11403 285.3571 C 187.56333 288.4262 188.67161 291.4953 188.67161 292.26256 C 188.67161 294.47913 187.05181 293.7971 185.2615 290.81326 C 182.27766 285.8686 177.24776 279.2189 176.13947 278.79264 C 175.5427 278.53688 175.28695 277.7696 175.45745 277.00233 C 175.7132 276.3203 176.05422 275.12677 176.30998 274.44475 C 176.90675 272.5692 178.01503 272.9102 180.91362 275.8088 Z" fill="#FFFFFF"/>
        </g>
        <g id="Graphic_64">
          <path d="M 186.11403 274.95627 C 186.11403 275.4678 185.77302 275.55304 185.2615 275.29728 C 184.83524 275.04152 184.40898 274.3595 184.40898 273.93324 C 184.40898 273.42172 184.83524 273.33647 185.2615 273.59223 C 185.77302 273.848 186.11403 274.53 186.11403 274.95627 Z" fill="#FFFFFF"/>
        </g>
        <g id="Graphic_63">
          <path d="M 261.13637 274.3595 C 261.13637 274.61526 260.79536 275.04152 260.28384 275.29728 C 259.85758 275.55304 259.43132 275.38253 259.43132 274.95627 C 259.43132 274.44475 259.85758 274.0185 260.28384 274.0185 C 260.79536 274.0185 261.13637 274.189 261.13637 274.3595 Z" fill="#FFFFFF"/>
        </g>
        <g id="Graphic_62">
          <path d="M 215.78196 276.3203 C 216.29347 277.9401 213.65064 277.68435 213.05387 276.06455 C 212.71286 275.12677 212.96862 274.871 213.99165 275.04152 C 214.75893 275.21203 215.5262 275.8088 215.78196 276.3203 Z" fill="#FFFFFF"/>
        </g>
        <g id="Graphic_61">
          <path d="M 153.71802 278.28112 C 153.71802 278.7074 153.54752 279.13365 153.37701 279.13365 C 153.12126 279.13365 152.695 278.7074 152.43923 278.28112 C 152.18348 277.7696 152.35398 277.4286 152.78024 277.4286 C 153.29176 277.4286 153.71802 277.7696 153.71802 278.28112 Z" fill="#FFFFFF"/>
        </g>
        <g id="Graphic_60">
          <path d="M 244.08584 284.16356 C 248.77473 285.1866 251.58807 286.29487 252.18484 287.23265 C 252.6111 288.08518 253.8899 289.79023 254.99818 291.06902 C 257.55576 294.30862 257.38525 294.7349 253.7194 294.05286 C 249.542 293.2856 242.03978 289.2787 237.6919 285.5276 C 233.68501 282.1175 234.28178 282.03224 244.08584 284.16356 Z" fill="#FFFFFF"/>
        </g>
        <g id="Graphic_59">
          <path d="M 158.83318 286.29487 C 158.83318 286.55063 158.49217 286.9769 157.98066 287.23265 C 157.5544 287.4884 157.12813 287.3179 157.12813 286.89164 C 157.12813 286.38012 157.5544 285.95386 157.98066 285.95386 C 158.49217 285.95386 158.83318 286.12437 158.83318 286.29487 Z" fill="#FFFFFF"/>
        </g>
        <g id="Graphic_58">
          <path d="M 236.49835 299.85004 C 243.2333 306.49975 250.6503 313.2347 252.95212 314.76926 C 257.4705 317.83835 263.18243 320.22543 265.82527 320.22543 C 267.1893 320.22543 271.96346 318.52038 274.86205 316.90058 C 275.97033 316.3038 276.48185 322.35675 275.54407 324.91433 C 273.75376 330.2 265.82527 329.0917 256.959 322.442 C 250.13878 317.32684 223.6252 290.728 223.6252 289.02296 C 223.6252 288.2557 223.71045 287.6589 223.88096 287.6589 C 224.05146 287.6589 229.67814 293.1151 236.49835 299.85004 Z" fill="#FFFFFF"/>
        </g>
        <g id="Graphic_57">
          <path d="M 147.15357 289.79023 C 146.89781 290.5575 146.47155 290.98377 146.30104 290.728 C 146.04528 290.47225 146.13054 289.96074 146.47155 289.44922 C 147.23882 288.08518 147.75034 288.34094 147.15357 289.79023 Z" fill="#FFFFFF"/>
        </g>
        <g id="Graphic_56">
          <path d="M 150.30792 293.9676 C 150.30792 294.64963 149.9669 295.4169 149.54064 295.67266 C 148.68812 296.26943 147.57983 294.05286 148.3471 293.2856 C 149.28489 292.3478 150.30792 292.77407 150.30792 293.9676 Z" fill="#FFFFFF"/>
        </g>
        <g id="Graphic_55">
          <path d="M 157.63965 296.61044 C 157.98066 297.29246 157.8954 298.57125 157.5544 299.33853 C 157.04288 300.70257 156.87237 300.70257 155.67883 298.91227 C 154.91156 297.88923 153.71802 297.0367 152.95075 297.0367 C 151.75721 297.0367 151.75721 296.8662 152.8655 296.18418 C 154.74106 294.99064 157.12813 295.16115 157.63965 296.61044 Z" fill="#FFFFFF"/>
        </g>
        <g id="Graphic_54">
          <path d="M 190.37667 297.88923 C 190.37667 298.3155 190.03566 298.74176 189.52414 298.74176 C 189.09788 298.74176 188.67161 298.3155 188.67161 297.88923 C 188.67161 297.3777 189.09788 297.0367 189.52414 297.0367 C 190.03566 297.0367 190.37667 297.3777 190.37667 297.88923 Z" fill="#FFFFFF"/>
        </g>
        <g id="Graphic_53">
          <path d="M 260.3691 299.7648 C 260.8806 300.87308 262.1594 302.57813 263.09718 303.60116 C 264.54648 305.22096 264.63173 305.56197 263.4382 305.98824 C 261.9889 306.585 257.72626 304.70945 256.10646 302.74863 C 255.59495 302.0666 253.97515 301.04358 252.6111 300.4468 C 248.77473 298.827 249.542 297.88923 254.74242 297.88923 C 258.66404 297.88923 259.51657 298.145 260.3691 299.7648 Z" fill="#FFFFFF"/>
        </g>
        <g id="Graphic_52">
          <path d="M 149.45539 299.5943 C 149.45539 300.02055 148.85862 300.4468 148.1766 300.4468 C 147.49458 300.4468 146.89781 300.02055 146.89781 299.5943 C 146.89781 299.08277 147.49458 298.74176 148.1766 298.74176 C 148.85862 298.74176 149.45539 299.08277 149.45539 299.5943 Z" fill="#FFFFFF"/>
        </g>
        <g id="Graphic_51">
          <path d="M 178.35604 302.91914 C 180.74312 306.32925 180.5726 307.26703 177.58877 307.26703 C 175.2017 307.26703 175.03119 307.09652 175.03119 303.85692 C 175.03119 299.85004 175.96897 299.50903 178.35604 302.91914 Z" fill="#FFFFFF"/>
        </g>
        <g id="Graphic_50">
          <path d="M 152.8655 302.57813 C 152.8655 303.26015 152.52449 303.85692 152.01297 303.85692 C 151.5867 303.85692 151.16044 303.26015 151.16044 302.57813 C 151.16044 301.8961 151.5867 301.29934 152.01297 301.29934 C 152.52449 301.29934 152.8655 301.8961 152.8655 302.57813 Z" fill="#FFFFFF"/>
        </g>
        <g id="Graphic_49">
          <path d="M 148.1766 303.1749 C 148.43236 303.77167 148.26185 305.39147 147.92084 306.84076 C 147.40933 308.80157 146.64205 309.4836 144.85175 309.6541 C 142.46467 309.9951 142.46467 309.90986 143.06144 306.67026 C 143.40245 304.87995 143.82872 303.1749 143.99922 302.8339 C 144.68124 301.7256 147.75034 302.0666 148.1766 303.1749 Z" fill="#FFFFFF"/>
        </g>
        <g id="Graphic_48">
          <path d="M 154.91156 307.94905 C 155.08207 308.29006 154.99681 309.1426 154.57055 309.8246 C 153.97378 310.7624 153.54752 310.84764 152.78024 310.08036 C 152.26873 309.56885 152.09822 308.71632 152.35398 308.2048 C 153.036 307.09652 154.3148 307.01127 154.91156 307.94905 Z" fill="#FFFFFF"/>
        </g>
        <g id="Graphic_47">
          <path d="M 179.63483 309.9951 C 181.08413 311.95592 181.5104 317.07108 180.31685 317.7531 C 179.97584 318.00886 178.69705 318.00886 177.333 317.7531 C 175.2017 317.32684 175.03119 317.07108 175.03119 312.7232 C 175.03119 308.71632 175.28695 308.11955 176.65099 308.11955 C 177.58877 308.11955 178.9528 308.97208 179.63483 309.9951 Z" fill="#FFFFFF"/>
        </g>
        <g id="Graphic_46">
          <path d="M 183.72696 312.5527 C 183.1302 313.14946 182.70393 313.2347 182.70393 312.7232 C 182.70393 311.52966 183.72696 310.50663 184.32373 311.1034 C 184.49423 311.35915 184.23847 312.04117 183.72696 312.5527 Z" fill="#FFFFFF"/>
        </g>
        <g id="Graphic_45">
          <path d="M 146.04528 315.11027 C 146.04528 319.79917 144.42548 324.31756 142.80568 324.31756 C 139.82184 324.31756 138.96931 323.03877 139.9071 319.96967 C 140.41861 318.34987 141.01538 316.04805 141.27114 314.684 C 141.6974 312.97895 142.29417 312.3822 143.91397 312.3822 C 145.78953 312.3822 146.04528 312.80845 146.04528 315.11027 Z" fill="#FFFFFF"/>
        </g>
        <g id="Graphic_44">
          <path d="M 178.6118 320.6517 C 180.2316 322.52725 181.16938 326.9604 180.2316 328.4097 C 179.72008 329.2622 178.9528 329.2622 177.333 328.66544 C 175.28695 327.89817 175.03119 327.3014 175.03119 324.0618 C 175.03119 319.0319 176.22472 317.9236 178.6118 320.6517 Z" fill="#FFFFFF"/>
        </g>
        <g id="Graphic_43">
          <path d="M 142.63518 328.15393 C 143.06144 329.34746 143.23195 331.39353 142.97619 332.84282 C 142.46467 335.14464 142.12366 335.4004 139.13982 335.2299 C 135.64446 335.14464 135.2182 334.37737 136.58224 330.96726 C 137.0085 329.85898 137.60527 328.32443 137.86103 327.4719 C 138.54305 325.25534 141.6974 325.6816 142.63518 328.15393 Z" fill="#FFFFFF"/>
        </g>
        <g id="Graphic_42">
          <path d="M 179.29382 331.9903 C 180.91362 333.6101 181.6809 338.72526 180.48736 339.83354 C 180.2316 340.0893 178.69705 339.9188 177.07725 339.40728 C 174.00816 338.4695 173.7524 337.70222 174.69018 332.92807 C 175.28695 329.85898 176.8215 329.51797 179.29382 331.9903 Z" fill="#FFFFFF"/>
        </g>
        <g id="Graphic_41">
          <path d="M 139.56608 337.3612 C 140.50386 338.04323 141.27114 340.34506 141.78265 343.6699 C 142.12366 346.5685 143.1467 350.06386 143.91397 351.34265 C 146.04528 354.92326 150.56368 357.5661 154.57055 357.5661 C 157.04288 357.5661 157.98066 357.9071 157.98066 358.8449 C 157.98066 359.8679 156.70187 360.12367 151.2457 360.12367 C 145.78953 360.12367 144.16973 360.4647 142.29417 361.91398 C 139.9071 363.78954 138.37255 363.44853 138.37255 360.9762 C 138.37255 360.12367 138.03154 359.10064 137.52002 358.8449 C 137.09376 358.58912 136.75275 359.5269 136.838 361.23196 C 137.0085 365.1536 136.07072 366.3471 133.51314 365.6651 C 131.63759 365.23883 131.46708 365.40934 131.9786 366.68813 C 133.34264 370.013 133.34264 371.8033 131.9786 373.2526 C 131.12607 374.1051 129.84728 374.4461 128.9095 374.19036 C 127.54546 373.7641 127.37495 374.01985 127.80122 376.15117 C 128.05697 377.5152 127.88647 379.47602 127.2897 380.5843 C 126.35192 382.3746 126.26667 382.3746 125.07313 380.84007 C 124.13535 379.64653 123.79434 379.5613 123.19757 380.4138 C 122.2598 381.77785 117.7414 381.43684 117.31514 380.0728 C 117.14463 379.5613 119.87272 375.29864 123.36808 370.60975 C 127.37495 365.3241 130.95556 359.3564 132.83112 354.92326 C 136.6675 345.80123 136.58224 344.6077 132.57537 351.5984 C 129.16526 357.65135 125.58465 362.596 121.40727 367.37015 C 119.53171 369.5867 118.25292 370.26874 117.14463 369.92773 C 115.9511 369.5867 115.43958 370.013 115.01332 371.6328 C 114.5018 373.67884 111.94422 374.70188 111.94422 372.91157 C 111.94422 372.40005 111.34745 372.05904 110.66543 372.05904 C 109.55715 372.05904 109.38664 372.6558 109.8129 374.95763 C 110.49493 378.36774 109.72765 379.04976 106.31755 378.112 C 104.52724 377.6857 103.67471 376.74794 103.07795 374.78713 C 102.14017 371.29177 103.58946 369.50146 109.4719 366.9439 C 116.46261 363.96004 128.14223 353.0477 130.6998 347.08 C 131.46708 345.1192 132.91638 341.8796 133.7689 339.83354 C 135.3887 336.08242 136.92325 335.4004 139.56608 337.3612 Z" fill="#FFFFFF"/>
        </g>
        <g id="Graphic_40">
          <path d="M 178.6118 342.64688 C 180.14635 344.0109 181.16938 345.88648 181.5104 348.27355 C 182.44817 353.90023 184.9205 355.86104 191.14394 355.86104 C 195.40657 355.86104 197.02637 355.43478 200.35123 353.30346 C 205.21063 350.23436 207.4272 349.9786 207.4272 352.62144 C 207.4272 356.2873 206.40417 358.4186 204.78436 358.4186 C 203.84659 358.4186 203.16456 358.8449 203.16456 359.3564 C 203.16456 359.95317 202.22678 360.12367 200.60698 359.78266 C 198.47567 359.3564 198.0494 359.61216 198.0494 360.9762 C 198.0494 363.1075 195.15081 364.64206 192.16697 363.96004 C 190.37667 363.61903 189.6094 363.78954 189.18313 364.81257 C 188.58636 366.43237 185.77302 365.92085 183.38595 363.7043 C 182.36292 362.937 181.8514 362.7665 181.8514 363.36327 C 181.8514 363.96004 181.08413 364.3863 180.14635 364.3863 C 177.58877 364.3863 176.48048 361.3172 176.992 355.52003 C 177.333 350.66063 177.333 350.49012 176.22472 352.8772 C 175.62796 354.24124 175.11644 355.9463 175.03119 356.54306 C 175.03119 357.13983 174.51967 357.82185 173.83765 358.0776 C 172.98512 358.4186 172.81462 359.5269 173.07038 361.91398 C 173.49664 364.8978 173.32613 365.40934 171.70633 365.8356 C 170.5128 366.09136 169.91603 366.9439 169.91603 368.22267 C 169.91603 370.95076 167.69946 372.6558 165.6534 371.37702 C 163.69258 370.1835 162.92531 370.95076 164.0336 373.08208 C 165.4829 375.81016 164.28935 377.42996 161.39076 376.91845 C 159.00369 376.40693 158.91844 376.4922 159.42995 378.87926 C 159.85621 381.09583 159.60046 381.43684 158.0659 381.43684 C 157.12813 381.43684 156.2756 380.9253 156.19035 380.32855 C 156.19035 379.81704 155.76409 380.15805 155.25257 381.1811 C 154.05903 383.56815 152.52449 384.1649 148.94387 383.4829 C 145.19276 382.8009 145.27801 381.09583 149.11438 377.77097 C 161.22026 367.19964 162.24329 366.09136 168.893 355.6053 C 171.45058 351.51315 172.1326 349.6376 173.66715 342.8174 C 174.34917 340.00405 175.62796 339.9188 178.6118 342.64688 Z" fill="#FFFFFF"/>
        </g>
        <g id="Graphic_39">
          <path d="M 213.22438 353.9855 C 213.39488 354.58225 212.71286 355.0085 211.77508 355.0085 C 209.98478 355.0085 209.47326 354.07073 210.58155 352.96245 C 211.34882 352.19518 212.79811 352.79194 213.22438 353.9855 Z" fill="#FFFFFF"/>
        </g>
        <g id="Graphic_38">
          <path d="M 157.98066 355.86104 C 157.98066 356.2873 157.21338 356.71357 156.36086 356.71357 C 155.42308 356.71357 154.40004 356.2873 154.14429 355.86104 C 153.80328 355.34952 154.57055 355.0085 155.76409 355.0085 C 156.95762 355.0085 157.98066 355.34952 157.98066 355.86104 Z" fill="#FFFFFF"/>
        </g>
        <g id="Graphic_37">
          <path d="M 104.9535 360.0384 C 107.59634 360.12367 107.76684 360.29418 107.51108 362.85176 C 107.17007 366.09136 104.6125 367.2849 104.10098 364.3863 C 103.84522 362.51075 102.22542 361.99923 102.05491 363.78954 C 102.05491 364.30105 101.45815 365.92085 100.86138 367.19964 C 99.83835 369.33096 99.32683 369.5867 97.11026 369.16045 C 95.31995 368.81944 93.6149 369.16045 91.65409 370.354 C 90.11954 371.29177 88.49974 372.05904 87.98823 372.05904 C 86.53893 372.05904 90.11954 366.7734 92.16561 366.0061 C 93.35914 365.57984 94.04116 364.5568 94.04116 363.278 C 94.04116 360.4647 95.40521 359.5269 98.98582 359.78266 C 100.69087 359.95317 103.41896 360.0384 104.9535 360.0384 Z" fill="#FFFFFF"/>
        </g>
        <g id="Graphic_36">
          <path d="M 115.35433 360.9762 C 115.35433 361.91398 111.0917 363.8748 110.40967 363.19277 C 110.23917 362.937 110.23917 362.16974 110.49493 361.40246 C 111.0917 359.95317 115.35433 359.61216 115.35433 360.9762 Z" fill="#FFFFFF"/>
        </g>
        <g id="Graphic_35">
          <path d="M 163.09582 361.57297 C 163.09582 363.02226 157.46914 367.7964 155.67883 367.7964 C 154.14429 367.7964 153.71802 368.30793 153.71802 369.92773 C 153.71802 372.6558 151.33095 373.7641 149.88165 371.8033 C 148.3471 369.67197 147.75034 370.013 147.75034 373.33783 C 147.75034 375.7249 147.40933 376.32168 146.04528 376.32168 C 145.1075 376.32168 144.34023 375.7249 144.34023 375.0429 C 144.34023 372.74107 142.97619 373.67884 141.5269 376.91845 C 140.67437 378.70875 138.71356 381.01057 137.0085 382.0336 C 131.80809 385.35846 130.87031 384.33543 134.96244 379.7318 C 136.75275 377.77097 137.52002 375.98067 137.52002 374.01985 C 137.52002 371.29177 137.86103 370.95076 142.89094 368.7342 C 145.78953 367.37015 150.56368 365.6651 153.54752 364.7273 C 156.53136 363.8748 159.3447 362.68125 159.85621 362.0845 C 160.794 360.89095 163.09582 360.54994 163.09582 361.57297 Z" fill="#FFFFFF"/>
        </g>
        <g id="Graphic_34">
          <path d="M 152.8655 362.68125 C 152.8655 363.61903 146.21579 365.75035 145.53377 364.98307 C 145.19276 364.7273 145.19276 363.8748 145.44852 363.1075 C 146.04528 361.6582 152.8655 361.23196 152.8655 362.68125 Z" fill="#FFFFFF"/>
        </g>
        <g id="Graphic_33">
          <path d="M 140.93013 366.5176 C 140.93013 367.88166 137.60527 369.5867 136.41173 368.9047 C 135.47396 368.30793 138.37255 365.23883 139.82184 365.23883 C 140.41861 365.23883 140.93013 365.8356 140.93013 366.5176 Z" fill="#FFFFFF"/>
        </g>
        <g id="Graphic_32">
          <path d="M 115.35433 375.81016 C 115.35433 376.0659 115.01332 376.4922 114.5018 376.74794 C 114.07554 377.0037 113.64928 376.8332 113.64928 376.40693 C 113.64928 375.8954 114.07554 375.46915 114.5018 375.46915 C 115.01332 375.46915 115.35433 375.63966 115.35433 375.81016 Z" fill="#FFFFFF"/>
        </g>
        <g id="Graphic_31">
          <path d="M 134.10991 377.1742 C 134.10991 377.60047 133.51314 378.02673 132.83112 378.02673 C 132.1491 378.02673 131.55233 377.60047 131.55233 377.1742 C 131.55233 376.6627 132.1491 376.32168 132.83112 376.32168 C 133.51314 376.32168 134.10991 376.6627 134.10991 377.1742 Z" fill="#FFFFFF"/>
        </g>
        <g id="Graphic_30">
          <path d="M 104.27148 380.49906 C 104.27148 381.01057 103.93047 381.60734 103.41896 381.8631 C 102.99269 382.11886 102.56643 383.05664 102.56643 383.90916 C 102.56643 384.7617 101.96966 385.95523 101.28764 386.552 C 100.17936 387.4045 100.00885 387.31927 100.00885 385.86997 C 100.00885 383.22714 101.79916 379.7318 103.1632 379.7318 C 103.75997 379.7318 104.27148 380.0728 104.27148 380.49906 Z" fill="#FFFFFF"/>
        </g>
        <g id="Graphic_29">
          <path d="M 121.32201 384.9322 C 121.32201 386.211 117.05938 391.66715 116.03635 391.66715 C 114.75756 391.66715 115.86584 385.6142 117.22989 384.67644 C 118.84969 383.73866 121.32201 383.8239 121.32201 384.9322 Z" fill="#FFFFFF"/>
        </g>
        <g id="Graphic_28">
          <path d="M 147.32407 387.14876 C 146.98306 388.0013 146.5568 389.9621 146.30104 391.49665 C 145.78953 394.56575 144.08447 394.73625 143.65821 391.7524 C 143.1467 388.3423 144.25498 385.69947 146.13054 385.69947 C 147.49458 385.69947 147.75034 386.0405 147.32407 387.14876 Z" fill="#FFFFFF"/>
        </g>
        <g id="Graphic_27">
          <path d="M 119.3612 75.12404 C 119.61696 75.72081 120.12848 76.23233 120.55474 76.23233 C 120.981 76.23233 121.32201 77.34061 121.32201 78.704655 C 121.32201 80.15395 122.2598 82.28527 123.53858 83.81981 C 125.41414 86.03638 126.35192 86.46265 129.59152 86.46265 C 132.91638 86.46265 133.85415 86.03638 136.41173 83.39355 C 139.22507 80.40971 139.31032 80.32446 141.44164 81.77375 C 142.63518 82.54102 143.82872 82.96729 144.08447 82.71153 C 144.68124 82.20001 139.39558 75.806065 137.52002 74.86829 C 136.838 74.527275 132.3196 74.186265 127.63071 74.10101 C 120.8105 74.01576 119.02019 74.27152 119.3612 75.12404 Z" fill="black"/>
        </g>
        <g id="Graphic_26">
          <path d="M 127.63071 80.49496 C 128.739 82.88204 128.739 83.05254 127.37495 83.05254 C 125.4994 83.05254 123.8796 81.43274 123.8796 79.47193 C 123.8796 77.084855 126.18142 77.68162 127.63071 80.49496 Z" fill="#FFFFFF"/>
        </g>
        <g id="Graphic_25">
          <path d="M 135.81497 80.75072 C 135.81497 82.37052 134.02466 83.90507 132.23435 83.90507 C 130.44405 83.90507 130.27354 82.62628 131.80809 80.92122 C 133.08688 79.38668 135.81497 79.30142 135.81497 80.75072 Z" fill="#FFFFFF"/>
        </g>
        <g id="Graphic_24">
          <path d="M 130.01779 100.69984 C 128.9095 104.3657 129.33576 105.55924 131.55233 104.3657 C 132.40486 103.93944 133.85415 103.51318 134.79193 103.51318 C 136.32648 103.51318 137.52002 101.97863 137.52002 100.01782 C 137.52002 98.48327 135.13294 99.3358 134.70668 101.04085 C 134.10991 103.17217 132.40486 102.40489 132.40486 100.10307 C 132.40486 97.20448 130.95556 97.54549 130.01779 100.69984 Z" fill="black"/>
        </g>
        <g id="Graphic_23">
          <path d="M 138.37255 99.3358 C 138.37255 100.27358 138.79881 100.78509 139.22507 100.52934 C 139.73659 100.27358 140.0776 99.42105 140.0776 98.73903 C 140.0776 98.05701 139.73659 97.54549 139.22507 97.54549 C 138.79881 97.54549 138.37255 98.31277 138.37255 99.3358 Z" fill="black"/>
        </g>
        <g id="Graphic_22">
          <path d="M 137.60527 112.54996 C 137.60527 113.48774 137.86103 113.7435 138.11679 113.06148 C 138.37255 112.46471 138.2873 111.69743 138.03154 111.44168 C 137.77578 111.10066 137.52002 111.61218 137.60527 112.54996 Z" fill="black"/>
        </g>
        <g id="Graphic_21">
          <path d="M 126.43717 125.67887 C 125.75515 126.10513 123.36808 126.27564 121.15151 126.01988 C 116.46261 125.42311 116.1216 126.10513 119.1907 129.42999 C 121.91878 132.32858 125.58465 132.41383 127.80122 129.51524 C 130.3588 126.10513 129.50627 123.71806 126.43717 125.67887 Z" fill="black"/>
        </g>
        <g id="Graphic_20">
          <path d="M 138.03154 140.00131 C 137.77578 141.96213 138.11679 145.37223 138.79881 148.35608 C 141.18588 157.3076 149.37014 166.5149 152.695 163.87206 C 154.40004 162.50802 153.88853 160.88822 151.5867 160.29145 C 145.53377 158.7569 140.0776 149.54961 140.0776 141.02435 C 140.0776 135.99444 138.79881 135.39767 138.03154 140.00131 Z" fill="black"/>
        </g>
        <g id="Graphic_19">
          <path d="M 147.75034 144.43445 C 147.75034 147.07729 151.92772 154.40901 155.50833 158.24538 C 159.77096 162.76377 163.01056 164.04256 165.05663 161.91125 C 167.01744 159.95044 165.90915 158.07488 162.7548 158.07488 C 158.91844 158.07488 155.16732 155.43205 152.43923 150.74315 C 148.77337 144.3492 147.75034 142.98516 147.75034 144.43445 Z" fill="black"/>
        </g>
        <g id="Graphic_18">
          <path d="M 161.39076 148.44133 C 161.39076 149.89062 165.05663 155.00578 167.52895 157.1371 C 170.8538 159.95044 172.72937 160.63246 174.17866 159.77993 C 175.88371 158.7569 174.51967 156.36982 172.21785 156.36982 C 170.00128 156.36982 166.76168 153.81225 164.3746 150.14638 C 163.01056 147.92981 161.39076 147.07729 161.39076 148.44133 Z" fill="black"/>
        </g>
        <g id="Graphic_17">
          <path d="M 171.62108 149.46436 C 171.62108 150.91365 177.75927 156.36982 179.37907 156.36982 C 181.93665 156.36982 181.33988 155.26154 176.73624 151.85143 C 172.3031 148.52658 171.62108 148.18557 171.62108 149.46436 Z" fill="black"/>
        </g>
        <g id="Graphic_16">
          <path d="M 115.35433 154.75002 C 115.35433 158.7569 116.71837 160.63246 119.70221 160.63246 C 123.70909 160.63246 125.58465 159.26842 125.58465 156.36982 C 125.58465 153.64174 124.81737 153.21548 123.19757 154.83528 C 122.51555 155.5173 121.91878 155.5173 121.15151 154.83528 C 120.46949 154.32376 118.93494 153.55649 117.65615 153.04497 C 115.43958 152.19244 115.35433 152.2777 115.35433 154.75002 Z" fill="black"/>
        </g>
        <g id="Graphic_15">
          <path d="M 152.01297 171.11853 C 151.92772 178.45026 163.86309 191.83493 168.12572 189.1921 C 170.00128 188.08381 168.97825 186.2935 166.33542 185.782 C 162.4138 184.92946 157.29864 179.8143 154.4853 173.84662 C 152.52449 169.58399 152.09822 169.15772 152.01297 171.11853 Z" fill="black"/>
        </g>
        <g id="Graphic_14">
          <path d="M 163.94834 176.4042 C 163.94834 177.17147 166.25016 180.15532 169.0635 182.8834 C 173.15563 187.06078 174.60492 187.99856 176.48048 187.7428 C 179.72008 187.4018 179.46433 185.18522 176.13947 184.3327 C 174.60492 183.90643 171.70633 182.03087 169.74552 180.15532 C 164.11885 174.86965 163.94834 174.69915 163.94834 176.4042 Z" fill="black"/>
        </g>
        <g id="Graphic_13">
          <path d="M 177.58877 177.00097 C 177.58877 178.62077 181.6809 182.79815 183.21544 182.79815 C 185.091 182.79815 184.49423 181.68986 180.91362 178.62077 C 178.69705 176.7452 177.58877 176.2337 177.58877 177.00097 Z" fill="black"/>
        </g>
        <g id="Graphic_12">
          <path d="M 186.45504 178.10925 C 187.39282 178.79127 188.3306 179.13228 188.58636 178.87653 C 189.09788 178.365 186.96656 176.83046 185.68777 176.83046 C 185.2615 176.91571 185.60252 177.42723 186.45504 178.10925 Z" fill="black"/>
        </g>
        <g id="Graphic_11">
          <path d="M 136.6675 181.86037 C 133.51314 183.56542 129.93253 184.24744 129.08 183.39492 C 128.39798 182.7129 128.14223 183.0539 128.14223 184.5032 C 128.14223 187.4018 128.99475 188.51008 131.80809 189.1921 C 134.45092 189.87412 136.6675 188.51008 136.6675 186.123 C 136.6675 185.27048 137.43477 184.3327 138.37255 184.07694 C 139.31032 183.82118 140.0776 182.96865 140.0776 182.28663 C 140.0776 181.00784 138.71356 180.83734 136.6675 181.86037 Z" fill="black"/>
        </g>
        <g id="Graphic_10">
          <path d="M 133.68365 186.20825 C 133.9394 186.63452 133.5984 187.06078 132.83112 187.06078 C 132.06385 187.06078 131.72284 186.63452 131.9786 186.20825 C 132.23435 185.69674 132.66062 185.35573 132.83112 185.35573 C 133.00163 185.35573 133.42789 185.69674 133.68365 186.20825 Z" fill="#FFFFFF"/>
        </g>
        <g id="Graphic_9">
          <path d="M 191.7407 193.28422 C 191.99647 194.13675 192.50798 194.56301 192.76374 194.30726 C 193.0195 194.0515 192.76374 193.36948 192.16697 192.7727 C 191.31444 192.00543 191.2292 192.09069 191.7407 193.28422 Z" fill="black"/>
        </g>
        <g id="Graphic_8">
          <path d="M 125.58465 205.98687 C 125.58465 206.41313 125.92566 207.43617 126.35192 208.2887 C 127.4602 210.2495 137.34951 210.59051 138.11679 208.71496 C 138.71356 207.09515 138.54305 207.0099 134.79193 206.32788 C 132.06385 205.81637 131.55233 205.98687 131.55233 207.26566 C 131.46708 208.6297 131.38183 208.6297 130.44405 207.43617 C 129.25051 205.90162 125.58465 204.70808 125.58465 205.98687 Z" fill="black"/>
        </g>
        <g id="Graphic_7">
          <path d="M 150.98994 215.44992 C 149.6259 215.96143 148.60286 216.64345 148.60286 216.98446 C 148.60286 217.41073 147.23882 217.49598 145.53377 217.24022 C 141.6974 216.81396 140.67437 217.41073 141.78265 219.54204 C 143.23195 222.18487 147.40933 221.5881 154.57055 217.837 C 155.25257 217.41073 155.84934 216.64345 155.84934 215.96143 C 155.84934 214.42688 153.88853 214.25638 150.98994 215.44992 Z" fill="black"/>
        </g>
        <g id="Graphic_6">
          <path d="M 142.63518 231.81843 C 142.63518 232.67095 143.57296 233.09721 145.61902 233.09721 C 147.66509 233.09721 148.60286 232.67095 148.60286 231.81843 C 148.60286 230.9659 147.66509 230.53964 145.61902 230.53964 C 143.57296 230.53964 142.63518 230.9659 142.63518 231.81843 Z" fill="black"/>
        </g>
        <g id="Graphic_5">
          <path d="M 185.2615 234.5465 C 185.2615 236.76308 196.17385 250.91502 197.8789 250.91502 C 198.47567 251.00027 197.19688 248.69845 194.89506 245.79986 C 192.67849 242.90127 189.9504 239.32066 188.92737 237.7861 C 186.96656 234.80227 185.2615 233.35297 185.2615 234.5465 Z" fill="black"/>
        </g>
        <g id="Graphic_4">
          <path d="M 198.13466 243.49804 C 200.09547 247.24916 209.30276 257.8205 210.58155 257.8205 C 211.34882 257.8205 208.45023 253.6431 203.33507 247.3344 C 198.73143 241.70773 196.17385 239.83217 198.13466 243.49804 Z" fill="black"/>
        </g>
      </g>
    </g>
  </g>
</svg>
