<?xml version="1.0" encoding="UTF-8" standalone="no"?>
<!DOCTYPE svg PUBLIC "-//W3C//DTD SVG 1.1//EN" "http://www.w3.org/Graphics/SVG/1.1/DTD/svg11.dtd">
<svg xmlns="http://www.w3.org/2000/svg" xmlns:dc="http://purl.org/dc/elements/1.1/" version="1.1" xmlns:xl="http://www.w3.org/1999/xlink" viewBox="63 81 238.5 315" width="238.5" height="315">
  <defs>
    <clipPath id="artboard_clip_path">
      <path d="M 63 81 L 301.5 81 L 301.5 347.53846 L 268.47692 396 L 63 396 Z"/>
    </clipPath>
  </defs>
  <g id="Helm,_Close,_Affronty_(1)" fill-opacity="1" stroke="none" stroke-dasharray="none" stroke-opacity="1" fill="none">
    <title>Helm, Close, Affronty (1)</title>
    <g id="Helm,_Close,_Affronty_(1)_Art" clip-path="url(#artboard_clip_path)">
      <title>Art</title>
      <g id="Group_53">
        <g id="Graphic_114">
          <path d="M 176.91052 89.37162 C 173.53736 93.83794 170.85132 96.71137 166.97843 99.99084 C 164.35485 102.17715 163.3554 102.80181 159.4825 104.51963 C 143.80353 111.48459 128.49936 119.85503 118.8796 126.7263 C 116.94315 128.13178 115.06917 129.3811 114.7256 129.50603 C 113.78862 129.88083 104.66858 137.84524 102.6072 140.15649 C 98.51568 144.6228 92.39401 153.68038 87.92769 161.8322 C 82.74301 171.2958 78.99505 181.29036 78.96381 185.72544 C 78.96381 186.50627 78.80765 187.34956 78.65148 187.59942 C 78.49532 187.8493 78.33915 188.00545 78.33915 187.91175 C 78.30792 187.81806 78.24545 186.28764 78.12052 184.47612 C 77.99559 181.72762 77.83942 180.97803 77.18353 179.88487 C 76.43394 178.60432 76.34024 178.54185 74.87229 178.54185 C 73.77913 178.54185 73.21694 178.69802 72.81091 179.13528 C 71.37419 180.69693 69.531445 185.8816 70.03117 187.13093 C 70.12487 187.41203 69.99994 187.94299 69.750076 188.31778 C 69.437746 188.75505 69.28158 189.7545 69.28158 191.28492 C 69.28158 193.40876 69.219115 193.65863 68.34459 194.50192 C 66.65801 196.1885 66.43938 198.6559 67.71993 201.56058 C 68.21966 202.68497 68.34459 204.05922 68.500755 210.14966 C 68.594454 214.14748 68.906785 219.80065 69.15665 222.73656 C 69.59391 227.95247 69.62514 228.04617 70.5309 228.88946 C 71.03063 229.35795 71.99885 229.88892 72.71721 230.07631 C 73.40434 230.2637 73.96653 230.48234 73.96653 230.57604 C 73.96653 230.70097 75.99668 241.8824 78.49532 255.49998 C 82.80547 279.11213 84.89808 290.76205 84.89808 291.13684 C 84.89808 291.23054 84.42959 291.293 83.83616 291.293 C 81.71232 291.293 80.21313 293.69795 80.21313 297.13358 C 80.21313 298.4766 80.40053 299.10126 81.30629 300.4755 C 82.21205 301.91223 82.61807 302.2558 83.86739 302.66182 C 84.71069 302.9117 85.83507 303.16155 86.4285 303.224 L 87.52166 303.3177 L 90.23893 314.12434 C 93.20606 325.80548 94.67402 330.5529 97.29759 336.58087 C 99.51513 341.6094 99.60883 342.04664 99.23403 345.45104 C 98.73431 349.91736 98.54691 350.38586 95.92334 353.22806 C 92.70634 356.7574 92.39401 357.28835 92.39401 359.56836 C 92.39401 362.69166 93.45593 363.62865 101.76391 367.81387 C 122.37769 378.152 155.57838 387.86546 171.56968 388.24026 C 174.13078 388.30273 174.50558 388.39643 175.87983 389.27095 C 178.37847 390.89507 180.75218 391.36356 185.37467 391.14493 C 191.2777 390.86383 196.83718 389.45835 207.1753 385.6167 C 209.42408 384.7734 212.54738 383.80517 214.14027 383.4616 C 221.7299 381.80626 234.2231 377.18378 242.9371 372.81116 C 244.21765 372.15526 247.24725 370.781 249.6522 369.7191 C 261.33334 364.5344 270.17228 358.69384 271.7964 355.03957 C 272.95202 352.5097 271.4216 349.63626 268.1109 348.1371 C 265.5498 347.0127 265.11253 346.04447 265.11253 341.5157 C 265.11253 338.5173 265.175 338.205 266.54925 334.73812 C 268.2046 330.5529 271.26544 321.52656 272.4523 317.2164 C 277.106 300.60044 280.0419 286.733 283.04028 267.2436 C 283.6337 263.3707 284.5707 258.09232 285.07043 255.5312 C 285.6014 252.93888 286.03865 250.47147 286.03865 250.00297 C 286.03865 249.53448 286.22605 248.6912 286.4759 248.129 C 286.72577 247.5668 287.4129 245.53665 288.03756 243.66267 C 288.631 241.75746 289.91154 237.97826 290.87976 235.22976 C 292.94114 229.3892 294.28416 224.2045 294.81512 220.23792 C 295.00252 218.67627 295.31485 217.08338 295.471 216.64612 C 295.6584 216.20886 295.87705 214.2724 296.00198 212.3672 C 296.18938 209.30636 296.3143 208.74417 296.90773 208.2132 C 297.65733 207.49485 297.8135 205.80827 297.31376 203.8406 C 297.1576 203.24716 296.93897 202.0603 296.81404 201.21702 C 296.65787 200.0614 296.37677 199.46797 295.68965 198.87454 C 294.84636 198.12495 294.7839 197.93755 294.7839 195.78247 C 294.7839 194.53315 294.56526 192.503 294.28416 191.28492 C 293.72197 188.78628 293.8469 185.91284 294.62773 184.03886 C 295.22115 182.63338 295.22115 180.32213 294.65896 178.41692 C 294.2217 176.9802 292.7225 175.32485 291.06716 174.4191 C 290.4425 174.07553 290.28634 174.10677 289.91154 174.63773 C 289.66168 174.9813 289.19318 175.54348 288.9121 175.88705 C 287.75646 177.23007 287.19427 179.04158 287.35043 181.00926 C 287.4129 182.07118 287.38167 182.91447 287.25674 182.91447 C 286.6633 182.91447 284.8518 181.94625 284.25837 181.29036 C 283.88357 180.91556 282.63425 178.1046 281.47863 175.10622 C 276.7312 162.70672 271.39037 152.4623 265.7372 144.87267 C 262.95746 141.12471 257.3355 135.56524 254.43085 133.69125 C 253.11906 132.84796 250.1207 130.97398 247.77821 129.50603 C 245.43574 128.03808 241.78148 125.6956 239.68887 124.29012 C 229.6006 117.57502 217.0137 111.10979 204.86406 106.36237 C 198.49253 103.86373 196.30622 102.14592 187.46728 92.49492 C 184.28151 88.99682 181.4393 86.06092 181.18944 85.96722 C 180.0026 85.49873 179.5341 85.87352 176.91052 89.37162 Z" fill="black"/>
        </g>
        <g id="Graphic_113">
          <path d="M 181.97027 90.18368 C 184.28151 92.74478 184.50014 94.2752 184.8437 109.36074 C 185.4059 133.19153 185.7807 143.40472 186.18673 144.49788 C 186.49906 145.40363 186.56152 141.90554 186.56152 126.1641 C 186.56152 110.51636 186.62399 106.79964 186.96755 107.2369 C 187.15495 107.518 187.34235 107.64293 187.34235 107.518 C 187.34235 107.39306 187.65468 107.518 188.02947 107.76786 C 188.84153 108.36129 189.84099 108.42375 189.84099 107.92402 C 189.84099 107.70539 189.34126 106.8621 188.74783 106.01881 C 188.12317 105.17552 187.49851 103.8325 187.34235 103.02044 C 186.87385 100.7092 186.09303 96.27411 186.09303 95.99302 C 186.09303 95.21219 187.43605 96.21165 190.52811 99.30371 C 195.18183 103.95743 200.89747 107.76786 205.92599 109.51691 C 210.6734 111.17226 222.47948 116.8879 229.38197 120.85449 C 231.59952 122.13504 236.84666 125.47697 241.06312 128.28794 C 245.27957 131.09892 249.62096 133.84742 250.74535 134.37838 C 252.83796 135.37784 257.3355 138.90717 259.83416 141.56197 C 263.6758 145.6535 268.36077 152.74339 272.0775 160.05191 C 274.70107 165.2366 278.66766 174.138 278.44903 174.35663 C 278.38656 174.4191 277.54327 173.01361 276.5438 171.2021 C 269.45392 158.053 260.45882 146.77788 250.5892 138.62607 C 247.05986 135.69017 246.0604 135.75263 249.3711 138.68854 C 259.24073 147.46501 265.7372 155.05463 272.0775 165.26782 C 274.38874 169.01579 278.91752 177.5424 281.26 182.69584 L 282.22822 184.81969 L 281.01013 187.3808 C 280.323 188.78628 279.63588 190.16053 279.47972 190.4104 C 278.94876 191.25369 276.10655 199.24934 275.45066 201.65428 C 274.7323 204.30908 273.889 209.02527 273.63914 211.74254 C 273.48298 213.3979 273.4205 213.52282 272.79585 213.33542 C 272.4523 213.2105 271.57777 212.742 270.89064 212.2735 C 262.45773 206.52663 240.4697 199.37427 221.88605 196.34467 C 218.79398 195.84494 213.35944 195.00165 209.86134 194.43945 C 195.74403 192.3156 191.184 190.25423 189.21633 185.16325 C 188.84153 184.1638 188.40427 183.10187 188.2481 182.7583 C 188.09194 182.41475 187.6859 178.32322 187.37358 173.70074 L 186.81139 165.26782 L 186.74892 171.85799 C 186.68645 182.00872 187.62344 186.10024 190.62181 189.06738 C 194.1199 192.47177 198.555 193.8148 213.73424 196.0011 C 225.57155 197.71892 232.28664 199.09317 242.12504 201.84168 C 256.6484 205.90197 268.32953 210.83678 272.48352 214.67844 C 274.29504 216.30256 274.48244 216.36502 267.95474 213.52282 C 246.9974 204.46525 224.50962 198.5622 202.95885 196.53206 C 194.71334 195.75124 195.1506 195.75124 195.1506 196.21973 C 195.1506 196.7507 195.6191 196.8444 200.9287 197.28166 C 214.1715 198.34358 228.88225 201.18578 242.4686 205.30854 C 245.06094 206.08936 247.65328 206.8702 248.2467 207.02636 C 250.33932 207.61978 259.36566 210.96171 263.23855 212.58583 C 265.39363 213.4916 268.2983 214.61598 269.73502 215.08447 C 272.29613 215.99023 274.13887 217.05215 273.6079 217.39571 C 273.45175 217.4894 272.76462 217.30201 272.10873 216.98968 C 269.57885 215.7716 246.77876 208.61924 236.25324 205.7458 C 224.63456 202.56004 199.0235 198.43728 186.56152 197.75015 C 179.69026 197.34412 164.13622 198.5622 154.86002 200.21756 C 140.30544 202.8099 130.31088 205.15237 115.78753 209.30636 C 102.10747 213.24172 97.36005 214.77214 93.98689 216.39626 C 92.20661 217.23955 90.67619 217.83298 90.58249 217.73928 C 90.45756 217.64558 90.58249 217.17708 90.86359 216.7086 C 91.36332 215.80283 90.0203 216.30256 110.66531 209.2439 C 130.27964 202.5288 150.33123 198.21865 167.2283 197.06303 C 169.10227 196.9381 170.38282 196.78193 170.10173 196.71946 C 169.7894 196.657 169.53953 196.4696 169.53953 196.2822 C 169.53953 195.87617 166.13513 196.12604 157.67099 197.15672 C 147.48903 198.40605 137.7131 200.3425 126.81278 203.24716 C 119.78535 205.12114 104.69981 210.11842 96.79786 213.17926 C 93.64333 214.39734 91.01975 215.3968 90.95729 215.3968 C 90.89482 215.3968 90.83236 215.24064 90.83236 215.08447 C 90.83236 214.89707 91.20715 214.58474 91.70688 214.39734 C 92.17537 214.17871 92.98743 213.71022 93.48716 213.33542 C 95.08004 212.1798 100.79568 209.27513 104.41871 207.77595 C 114.22588 203.77812 129.53005 199.4992 141.27366 197.43782 C 142.83531 197.18796 147.05177 196.53206 150.64356 196.0011 C 165.41678 193.87726 169.91433 192.56547 173.4749 189.34847 C 176.6919 186.47504 177.69135 182.38351 177.62888 172.17032 L 177.56642 165.58015 L 177.00422 174.01307 C 176.6919 178.63555 176.28586 182.72708 176.16093 183.07064 C 175.06777 185.66298 173.69352 188.03669 172.78777 188.84875 C 169.94556 191.34739 164.94828 192.8778 154.51646 194.43945 C 137.432 197.0318 130.7169 198.40605 121.00344 201.18578 C 108.2916 204.84004 98.70307 208.74417 93.17483 212.4609 L 91.61318 213.52282 L 91.42578 210.55568 C 91.23838 208.0258 91.05099 207.24499 90.114 205.30854 C 89.48934 204.09045 88.48988 201.52935 87.86522 199.62413 C 86.77206 196.3759 86.30357 195.31398 84.89808 193.00273 C 84.36712 192.09698 84.33589 191.72218 84.61699 189.25477 C 85.42905 182.13365 87.64659 174.57526 91.01975 167.57907 C 92.30031 164.9555 93.01867 163.05028 92.9562 162.58179 C 92.83127 161.61356 88.80221 169.57798 87.24056 173.9506 C 85.39781 179.10405 83.68 186.7249 83.64876 189.91067 L 83.61753 191.19122 L 82.89917 189.78574 C 82.49314 189.0049 81.99341 187.63066 81.74355 186.75613 C 81.36875 185.22572 81.39999 184.85092 82.14958 181.88378 C 83.14904 178.0109 84.61699 174.16923 87.24056 168.70346 C 91.17592 160.45794 97.98471 149.55762 101.29541 146.18446 C 102.3261 145.15377 104.16885 143.15486 105.3557 141.71814 C 110.07189 136.1899 119.50426 128.78767 129.59252 122.69724 C 138.369 117.41886 144.92792 113.98323 156.57783 108.57992 C 160.54443 106.7684 164.66718 104.64456 165.76034 103.89497 C 166.8535 103.17661 169.35213 101.02153 171.28858 99.11632 C 173.53736 96.96124 175.0053 95.77438 175.2864 95.86808 C 175.91107 96.11795 175.59874 97.1174 174.31818 99.14755 C 173.75599 100.05331 173.2875 100.92783 173.2875 101.11523 C 173.2875 101.64619 168.44638 106.26867 165.10445 108.92348 C 163.38663 110.2665 162.10608 111.39089 162.29348 111.39089 C 162.8869 111.39089 167.07213 108.54868 169.44583 106.581 C 174.81791 102.05222 175.50504 101.58372 175.9423 102.05222 C 176.28586 102.39578 176.44203 105.86265 176.6919 118.60571 C 176.87929 127.44465 177.19162 135.87757 177.37902 137.34552 C 177.56642 138.78224 177.72258 141.37457 177.72258 143.09239 L 177.75381 146.21569 L 178.19108 144.8102 C 178.53464 143.65458 178.56587 141.84307 178.28477 134.03482 C 177.69135 117.23146 177.44148 95.49329 177.81628 93.52561 C 178.06614 92.27629 178.5034 91.3393 179.3467 90.33984 C 179.97136 89.55902 180.56478 88.90312 180.65848 88.90312 C 180.72095 88.90312 181.31438 89.49655 181.97027 90.18368 Z" fill="#FFFFFF"/>
        </g>
        <g id="Graphic_112">
          <path d="M 292.19155 176.8865 C 293.44087 178.07336 294.15923 179.85364 294.15923 181.79009 C 294.15923 182.53968 294.06553 182.60214 292.7225 182.60214 C 291.69182 182.60214 291.12963 182.41475 290.75483 182.03995 C 290.47374 181.69639 290.03647 181.38406 289.7866 181.25912 C 289.47428 181.1342 289.53674 181.07173 290.03647 181.07173 C 291.12963 181.0405 290.84853 180.1972 289.63044 179.97857 C 288.8184 179.8224 288.5373 179.60378 288.5373 179.16651 C 288.5373 178.63555 288.75592 178.54185 290.09894 178.54185 C 291.2858 178.54185 291.6606 178.41692 291.6606 178.07336 C 291.6606 177.7298 291.31703 177.60486 290.3488 177.60486 C 289.5992 177.60486 289.16195 177.47993 289.34935 177.355 C 289.53674 177.23007 289.84908 176.82404 290.0677 176.418 C 290.56743 175.48102 290.75483 175.54348 292.19155 176.8865 Z" fill="#FFFFFF"/>
        </g>
        <g id="Graphic_111">
          <path d="M 75.77805 179.85364 C 76.09038 180.16597 76.02791 180.35337 75.46572 180.82186 L 74.74736 181.38406 L 75.65311 181.29036 C 77.121065 181.1342 76.90243 181.82132 75.37202 182.22735 C 73.43557 182.7583 73.52927 183.35174 75.52818 183.16434 C 76.6838 183.0394 77.08983 183.10187 77.08983 183.4142 C 77.08983 183.66407 76.71504 183.91393 76.24654 184.03886 C 74.77859 184.3512 74.59119 184.4449 74.59119 184.85092 C 74.59119 185.16325 74.96599 185.22572 75.84051 185.16325 C 76.93367 185.03832 77.08983 185.10078 77.08983 185.69421 C 77.08983 186.31887 76.93367 186.3501 74.09146 186.3501 L 71.093095 186.3501 L 71.31173 185.06955 C 71.56159 183.63283 73.12324 180.4783 73.90407 179.85364 C 74.52873 179.38514 75.30955 179.38514 75.77805 179.85364 Z" fill="#FFFFFF"/>
        </g>
        <g id="Graphic_110">
          <path d="M 292.41018 185.47558 C 292.50388 185.8816 292.59758 186.47504 292.56635 186.8186 C 292.56635 187.34956 292.41018 187.25586 291.6606 186.3501 C 290.5362 185.03832 290.50497 184.78845 291.4732 184.78845 C 291.97292 184.78845 292.28525 185.00709 292.41018 185.47558 Z" fill="#FFFFFF"/>
        </g>
        <g id="Graphic_109">
          <path d="M 287.1318 185.28818 C 288.8184 185.94408 289.66168 190.75396 291.03593 207.27622 C 291.50442 212.71076 291.848 215.45927 292.28525 216.73982 C 293.06607 218.9886 293.06607 219.176 292.09785 223.67355 C 291.6606 225.73493 291.22333 227.82754 291.12963 228.3585 C 291.03593 228.85823 289.16195 233.51194 286.97564 238.6654 C 284.78933 243.81884 282.4781 249.34708 281.8222 250.93996 C 280.44794 254.25066 275.88792 262.58987 270.32845 271.86608 C 262.39526 285.07764 248.18424 303.5051 238.22091 313.4372 C 232.75514 318.87175 221.76112 327.4296 214.79616 331.64605 C 207.30024 336.1436 198.02403 340.8598 189.21633 344.5765 C 186.49906 345.73214 185.7807 345.91954 185.1248 345.66967 L 184.31274 345.38858 L 184.12535 339.1732 C 184.00041 335.7688 183.81302 319.0279 183.71932 301.9747 L 183.50069 270.99155 L 185.81193 270.99155 C 187.09248 270.99155 205.73859 269.8047 227.28936 268.33675 C 262.64513 265.9318 266.51802 265.61948 267.2676 265.0885 C 268.64186 264.05783 269.98488 262.49618 271.57777 260.02877 C 272.38982 258.71698 274.23257 256.21834 275.63806 254.50053 C 281.22877 247.5668 284.22713 242.1635 287.19427 233.6681 C 289.037 228.3585 289.47428 226.32835 289.81784 221.95573 C 290.56743 211.30528 288.0688 190.25423 285.7888 188.47395 C 285.3203 188.13039 285.3203 188.13039 285.63262 188.53641 C 286.81947 190.09807 289.81784 214.67844 288.94332 215.7716 C 288.75592 215.99023 288.5373 218.08284 288.4436 220.39408 C 287.85016 233.2933 284.03974 242.38212 273.67038 255.59368 C 268.9542 261.59042 266.73665 263.80796 265.51856 263.80796 C 264.9876 263.80796 264.48787 263.9329 264.4254 264.1203 C 264.3317 264.4014 236.44063 266.7751 219.98084 267.83702 C 195.7128 269.46114 188.74783 269.8047 185.90563 269.58607 L 182.96973 269.36744 L 182.96973 263.6518 C 182.96973 260.18493 183.09466 257.84246 183.28206 257.71753 C 183.46945 257.5926 183.56315 250.00297 183.53192 236.22922 C 183.50069 224.51684 183.59439 213.83515 183.71932 212.49213 C 183.96918 210.14966 183.96918 210.0872 183.31329 210.0872 C 182.9385 210.0872 182.71986 210.21212 182.81356 210.39952 C 182.90726 210.55568 182.87603 212.30473 182.68863 214.20995 C 182.50123 216.20886 182.34507 229.0144 182.31383 243.72514 L 182.25137 269.74223 L 180.0026 269.74223 C 178.65957 269.74223 177.66011 269.86716 177.59765 270.0858 C 177.53518 270.30443 173.69352 270.2732 164.54225 269.92963 C 126.18812 268.46168 116.56835 267.8058 103.32556 265.8381 C 100.48335 265.40084 97.79732 265.05728 97.32882 265.05728 C 96.82909 265.05728 96.4543 264.93235 96.4543 264.7762 C 96.4543 264.65125 95.86087 264.33892 95.11128 264.15152 C 93.89319 263.80796 93.58086 263.4644 91.80058 260.87206 C 90.73866 259.27918 89.58304 257.2178 89.23947 256.31204 C 88.89591 255.37505 88.20878 253.78217 87.70905 252.72024 C 84.64822 246.1613 79.401075 230.60728 77.58956 222.73656 C 76.65257 218.67627 76.40271 214.67844 76.24654 202.49757 C 76.12161 192.09698 76.02791 190.4104 75.65311 190.4104 C 75.247085 190.4104 75.18462 191.97205 75.27832 202.4351 C 75.34078 211.8987 75.30955 214.24118 74.99722 213.42912 C 74.74736 212.742 74.622425 208.71294 74.622425 200.18633 L 74.59119 187.94299 L 75.559415 188.28655 C 76.71504 188.69258 79.49477 191.37862 81.58739 194.0959 C 84.27342 197.62522 88.67728 206.71402 88.61481 208.588 C 88.61481 209.02527 88.52111 209.11897 88.42741 208.83787 C 88.36495 208.588 88.14632 208.08828 88.02138 207.74471 C 87.86522 207.40115 87.39672 206.2143 86.9907 205.0899 C 85.39781 200.77975 82.89917 196.4696 80.21313 193.44 C 79.05751 192.1282 78.02682 191.56602 78.02682 192.2219 C 78.02682 192.34684 78.68272 193.22137 79.52601 194.0959 C 83.18027 198.15618 86.45973 204.87128 87.67782 210.93048 C 88.39618 214.39734 88.55235 219.11353 87.95892 220.17545 C 87.77152 220.55025 87.55289 222.14313 87.45919 223.73601 C 87.33426 226.23465 87.39672 226.73438 87.86522 227.26534 C 88.58358 228.0774 89.33317 228.04617 90.08276 227.2341 C 92.9562 224.04834 114.28834 217.4894 135.02706 213.3979 C 151.92412 210.0872 172.0694 207.52608 181.56424 207.52608 C 188.3418 207.52608 205.20763 209.40006 218.73152 211.64884 C 240.71956 215.33433 266.5805 222.26806 271.92133 225.92232 C 273.0145 226.67192 274.23257 227.26534 274.6386 227.26534 C 275.79422 227.26534 276.9186 226.73438 277.106 226.10972 C 277.1997 225.7974 277.07478 223.9234 276.8249 221.95573 C 275.8567 214.9283 275.6693 211.92994 276.0441 209.77486 C 277.51204 201.02962 281.79096 188.34902 284.07097 185.9753 C 284.88303 185.13202 286.0074 184.88215 287.1318 185.28818 Z" fill="#FFFFFF"/>
        </g>
        <g id="Graphic_108">
          <path d="M 291.72306 189.78574 C 292.1291 190.09807 292.4414 197.28166 292.06662 197.28166 C 291.87922 197.28166 291.62936 196.40713 291.50442 195.31398 C 291.31703 193.5337 290.56743 188.9112 290.22387 187.44326 C 290.1614 187.0997 290.41127 187.44326 290.78607 188.22408 C 291.1921 189.0049 291.59812 189.69204 291.72306 189.78574 Z" fill="#FFFFFF"/>
        </g>
        <g id="Graphic_107">
          <path d="M 73.31064 192.34684 C 73.24817 194.81425 73.31064 201.71674 73.43557 207.74471 L 73.685435 218.67627 L 73.060774 216.95845 C 72.43611 215.2094 71.74899 214.4598 70.812 214.4598 C 70.3435 214.4598 70.2498 214.05378 70.156105 211.46144 C 70.062406 208.55677 70.09364 208.46307 70.93693 207.68225 C 71.78022 206.83896 71.78022 206.83896 71.78022 202.37264 C 71.78022 198.68714 71.68652 197.84385 71.31173 197.71892 C 70.93693 197.56275 70.84323 196.78193 70.84323 193.3463 C 70.84323 188.66135 71.06186 187.91175 72.49858 187.91175 L 73.40434 187.91175 Z" fill="#FFFFFF"/>
        </g>
        <g id="Graphic_106">
          <path d="M 69.78131 198.43728 C 70.12487 198.5622 70.21857 199.34304 70.156105 202.56004 L 70.09364 206.4954 L 69.99994 203.24716 C 69.90624 200.3425 69.81254 199.99893 69.28158 199.874 C 68.40706 199.65537 68.188425 198.40605 68.68815 196.87563 L 69.125416 195.56384 L 69.219115 196.90686 C 69.28158 197.71892 69.50021 198.31235 69.78131 198.43728 Z" fill="#FFFFFF"/>
        </g>
        <g id="Graphic_105">
          <path d="M 293.2847 199.56167 C 294.4091 199.84276 295.09622 200.59236 295.09622 201.52935 C 295.09622 201.9666 295.22115 202.59127 295.40855 202.9036 C 295.5647 203.21593 295.78335 204.24662 295.90828 205.1836 C 296.09568 206.74526 296.06444 206.90142 295.471 207.08882 C 295.09622 207.21375 294.5965 207.12005 294.25293 206.83896 C 292.254 205.1836 292.3477 205.43347 292.1291 201.9666 C 292.0354 200.1551 292.06662 198.8433 292.19155 199.0307 C 292.3165 199.2181 292.8162 199.46797 293.2847 199.56167 Z" fill="#FFFFFF"/>
        </g>
        <g id="Graphic_104">
          <path d="M 293.8469 211.3365 C 293.7532 212.86693 293.5658 214.20995 293.4721 214.30365 C 293.34717 214.42858 293.191 213.67899 293.0973 212.67953 C 292.6288 208.2132 292.59758 208.52554 293.31594 208.52554 C 293.97183 208.52554 294.00306 208.61924 293.8469 211.3365 Z" fill="#FFFFFF"/>
        </g>
        <g id="Graphic_103">
          <path d="M 71.24926 216.45872 C 71.34296 216.7086 71.21803 216.98968 70.96816 217.08338 C 70.2498 217.36448 70.21857 217.33325 70.21857 216.64612 C 70.21857 215.92776 70.9994 215.80283 71.24926 216.45872 Z" fill="#FFFFFF"/>
        </g>
        <g id="Graphic_102">
          <path d="M 76.184075 221.48724 C 76.74627 225.17273 77.55833 228.01494 80.463 236.32292 C 83.1178 243.91254 85.64768 250.47147 88.17755 256.31204 C 88.80221 257.78 89.7392 259.93507 90.23893 261.15316 C 91.92551 265.0885 91.01975 264.6825 103.48172 266.90003 L 114.41328 268.80524 L 148.26985 270.02333 C 166.8535 270.71046 182.12643 271.30388 182.1889 271.36635 C 182.31383 271.5225 182.96973 325.4307 182.96973 335.8625 L 182.96973 345.95077 L 182.22013 345.95077 C 180.87711 345.95077 168.60254 341.48445 160.85676 338.17375 C 154.2666 335.3628 149.86274 333.05154 145.49012 330.1781 C 128.65553 319.05915 111.16504 303.4114 103.70035 292.72973 L 102.4198 290.9182 L 110.35298 285.45244 C 114.7256 282.45407 118.3174 279.9242 118.3174 279.79926 C 118.3174 279.48693 116.97438 276.30116 116.34972 275.14554 C 115.78753 274.11485 111.57107 270.99155 110.72778 270.99155 C 110.47792 270.99155 110.10312 270.77292 109.88449 270.52306 C 109.66586 270.2732 109.3223 270.05456 109.1349 270.05456 C 108.9475 270.05456 106.04283 272.58444 102.7009 275.6765 C 99.35897 278.76857 96.51676 281.29845 96.42306 281.29845 C 96.1732 281.29845 91.36332 272.67814 88.24002 266.61893 C 84.49205 259.34164 79.713405 245.94268 76.99613 234.91743 C 75.80928 230.20125 75.559415 228.60836 75.40325 225.07903 C 75.27832 222.7678 75.12215 219.86312 75.05969 218.67627 L 74.90352 216.48996 L 75.37202 217.89544 C 75.62188 218.67627 75.99668 220.26915 76.184075 221.48724 Z" fill="#FFFFFF"/>
        </g>
        <g id="Graphic_101">
          <path d="M 71.90515 218.4264 C 71.99885 218.73873 72.342415 220.67518 72.71721 222.73656 C 73.060774 224.79794 73.43557 226.85931 73.52927 227.3278 C 73.685435 228.1711 73.6542 228.20233 72.43611 228.20233 C 71.56159 228.20233 71.15556 228.0774 71.15556 227.76507 C 71.15556 227.26534 70.6246 221.51847 70.37474 219.3634 C 70.21857 217.9579 70.21857 217.89544 70.96816 217.89544 C 71.43666 217.89544 71.81145 218.11407 71.90515 218.4264 Z" fill="#FFFFFF"/>
        </g>
        <g id="Graphic_100">
          <path d="M 90.76989 222.98642 C 90.86359 224.61054 90.80112 224.7667 90.2077 224.7667 C 89.67673 224.7667 89.58304 224.5793 89.58304 223.57985 C 89.58304 220.64395 90.61372 220.14422 90.76989 222.98642 Z" fill="#FFFFFF"/>
        </g>
        <g id="Graphic_99">
          <path d="M 275.54436 223.39245 C 275.88792 224.2982 275.73176 225.0478 275.1071 225.39136 C 274.41997 225.76616 274.38874 225.67246 274.48244 224.2982 C 274.57613 222.8615 275.13833 222.36176 275.54436 223.39245 Z" fill="#FFFFFF"/>
        </g>
        <g id="Graphic_98">
          <path d="M 282.60302 259.15424 C 281.97836 263.6518 276.3564 295.32207 275.54436 298.9451 C 270.7657 319.74628 264.67527 337.48662 259.80292 344.7327 C 255.39907 351.22915 250.74535 356.25766 244.31135 361.44234 C 235.62858 368.43853 225.66525 374.49774 209.76765 382.5246 C 207.70627 383.58654 195.7128 387.4282 192.0273 388.24026 C 190.05962 388.6775 187.31111 389.1148 185.93686 389.2397 C 179.87766 389.7082 174.69298 387.58437 173.4749 384.1175 C 170.97625 377.0276 170.60145 352.6971 172.94393 348.1683 C 173.81845 346.41926 174.13078 346.38803 177.37902 347.2938 C 183.18836 348.94914 183.0322 348.94914 187.90454 347.23132 C 204.92653 341.2346 218.60659 333.36387 230.9124 322.4948 C 242.78093 312.06296 248.0593 306.37855 258.30374 293.167 C 263.33225 286.67052 266.83035 281.57954 270.9531 274.8332 C 274.70107 268.6803 282.72795 256.31204 282.85288 256.4682 C 282.91535 256.49944 282.7904 257.74876 282.60302 259.15424 Z" fill="#FFFFFF"/>
        </g>
        <g id="Graphic_97">
          <path d="M 86.49097 268.33675 C 88.73974 272.95923 91.33208 278.30008 92.30031 280.2053 L 94.01812 283.64092 L 91.39455 286.0771 C 89.98906 287.38888 88.30248 288.88807 87.67782 289.41903 L 86.58467 290.3248 L 85.27288 283.2349 C 83.96109 276.08253 81.43122 259.34164 81.49369 258.09232 C 81.49369 257.62383 81.64985 257.78 81.96218 258.6545 C 82.21205 259.34164 84.24219 263.68303 86.49097 268.33675 Z" fill="#FFFFFF"/>
        </g>
        <g id="Graphic_96">
          <path d="M 112.94532 274.17732 C 113.32012 274.36472 113.63245 274.61458 113.63245 274.7395 C 113.63245 274.8332 110.66531 277.4568 107.01105 280.51762 C 103.35679 283.6097 100.10856 286.4519 99.765 286.8267 C 99.42143 287.2327 99.04664 287.54505 98.89047 287.54505 C 98.76554 287.54505 96.79786 289.13793 94.51785 291.1056 L 90.36386 294.6974 L 88.89591 293.2607 L 87.42796 291.82397 L 89.48934 289.91876 C 90.64496 288.85683 95.51731 284.3905 100.32719 279.98666 L 109.0412 271.991 L 110.63408 272.89677 C 111.5086 273.42773 112.5393 273.98992 112.94532 274.17732 Z" fill="#FFFFFF"/>
        </g>
        <g id="Graphic_95">
          <path d="M 115.25657 276.8009 C 115.53766 277.30062 115.88123 278.08145 115.97493 278.54994 C 116.22479 279.5494 116.59959 279.2683 101.76391 289.45026 C 91.73811 296.35275 90.95729 296.82125 90.73866 296.1966 C 90.52003 295.60316 90.73866 295.2596 92.23784 293.91658 C 93.20606 293.04206 94.89265 291.63657 95.9858 290.79328 C 97.07896 289.95 98.07841 289.04423 98.17211 288.76313 C 98.26581 288.48204 98.64061 288.10724 99.04664 287.95108 C 99.42143 287.76368 102.95076 284.92147 106.88612 281.642 C 110.82148 278.36254 114.19464 275.70774 114.38204 275.7702 C 114.56944 275.83267 114.94424 276.30116 115.25657 276.8009 Z" fill="#FFFFFF"/>
        </g>
        <g id="Graphic_94">
          <path d="M 86.9907 293.22945 C 87.42796 293.6355 87.70905 294.26014 87.70905 294.7911 C 87.70905 295.7281 88.20878 296.0092 88.39618 295.13467 C 88.48988 294.6974 88.55235 294.6974 88.86468 295.0722 C 89.11454 295.41576 89.11454 295.79056 88.80221 296.6651 C 88.36495 297.94564 88.73974 298.25797 89.4581 297.28974 C 89.86413 296.79 89.86413 296.79 89.89537 297.28974 C 89.89537 297.60207 89.7392 298.4766 89.52057 299.2262 C 89.08331 300.91277 87.89645 301.6936 85.99124 301.53743 C 84.99178 301.47497 84.77315 301.3188 84.83562 300.88154 C 84.92932 300.25688 84.77315 300.22565 83.99233 300.72538 C 83.52383 301.00647 83.27397 301.00647 82.89917 300.69414 C 82.21205 300.13195 82.27451 299.7884 83.1178 299.63222 C 83.74246 299.53852 83.71123 299.47606 82.80547 299.1325 C 82.11835 298.8514 81.77478 298.50783 81.77478 298.13304 C 81.77478 297.60207 81.86848 297.57084 82.43068 297.85194 C 83.36767 298.3829 83.61753 297.9144 82.74301 297.22728 C 82.02465 296.72755 81.64985 295.5407 81.99341 294.94727 C 82.05588 294.82234 82.33698 294.94727 82.58684 295.19713 C 83.55506 296.13412 84.02356 295.66563 83.1178 294.66617 C 82.14958 293.60425 83.1178 292.85466 85.67891 292.63603 C 86.02247 292.6048 86.6159 292.85466 86.9907 293.22945 Z" fill="#FFFFFF"/>
        </g>
        <g id="Graphic_93">
          <path d="M 102.29487 294.6974 C 103.35679 295.88426 105.07461 297.88317 106.1053 299.19496 C 110.07189 304.161 119.69165 314.0931 124.72017 318.3408 C 130.15471 322.93204 138.55639 328.6477 150.33123 335.70634 C 154.51646 338.2362 163.94882 343.07733 167.82172 344.70145 C 169.53953 345.45104 171.06995 346.13817 171.22611 346.29433 C 171.38228 346.41926 171.22611 347.8872 170.82009 349.7612 C 169.82063 354.6023 169.2272 361.0363 169.2272 367.50154 C 169.2272 375.05993 169.6957 378.77666 171.31981 383.8364 C 171.50721 384.46107 171.72584 384.46107 164.54225 383.5553 C 157.2962 382.6183 142.71038 377.83967 133.18431 373.3421 C 125.75086 369.78155 121.8155 367.12675 116.38095 361.94207 C 109.69709 355.50807 102.7946 345.73214 100.48335 339.39184 C 100.01486 338.1113 99.04664 335.5814 98.32828 333.7699 C 96.67293 329.58467 93.29976 319.24655 92.26907 315.18626 C 91.83181 313.46844 91.08222 309.7205 90.58249 306.8158 C 89.8329 302.50566 89.77043 301.53743 90.114 301.25634 C 90.33263 301.06894 90.52003 300.53798 90.52003 300.13195 C 90.52003 299.4136 92.08168 297.5396 92.6751 297.5396 C 92.80003 297.5396 93.20606 298.91386 93.61209 300.5692 C 97.39129 316.59174 99.79623 325.21205 102.48227 332.20825 C 103.76282 335.51895 108.79133 344.7639 111.19628 348.19955 C 119.34809 359.94316 128.74923 367.1892 141.0238 371.21827 C 146.95807 373.18595 147.67643 372.99855 142.05449 370.9684 C 139.21228 369.9377 135.65172 368.46977 134.09007 367.68894 C 130.9043 366.09606 125.81332 362.59796 122.1903 359.44343 C 113.41382 351.8538 104.63734 337.33046 100.35842 323.30684 C 99.45267 320.37094 96.23567 307.5654 93.98689 298.07057 L 93.70579 296.91495 L 96.86033 294.72864 C 98.57814 293.51055 100.07733 292.54233 100.17102 292.54233 C 100.26472 292.54233 101.23295 293.51055 102.29487 294.6974 Z" fill="#FFFFFF"/>
        </g>
        <g id="Graphic_92">
          <path d="M 263.33225 344.20172 C 263.42595 344.42035 263.58212 345.91954 263.70705 347.54365 C 263.83198 349.16777 264.0506 350.6982 264.20678 350.9793 C 265.01883 352.54093 262.36403 356.7574 258.6473 359.84946 C 253.46262 364.1284 240.12613 372.49883 234.78528 374.81007 C 228.32005 377.5898 217.2011 381.52516 216.8263 381.15037 C 216.79507 381.11914 219.07508 379.80735 221.91729 378.27693 C 229.63184 374.0917 236.53433 369.87525 241.12558 366.56455 C 248.12178 361.5048 255.0555 354.3837 259.92785 347.26256 C 262.2391 343.92062 262.9887 343.26473 263.33225 344.20172 Z" fill="#FFFFFF"/>
        </g>
        <g id="Graphic_91">
          <path d="M 106.07406 353.29053 C 110.82148 360.1618 115.1941 364.37824 122.84619 369.56292 C 134.0276 377.1213 143.36627 381.05667 157.04633 383.89887 C 162.231 384.99203 165.6354 385.8353 164.94828 385.8978 C 164.07376 385.96025 155.17235 384.3049 150.98713 383.30545 C 142.92901 381.369 136.08898 379.24515 125.43853 375.43473 C 107.29215 368.93826 100.01486 365.15907 97.98471 361.2237 C 97.11019 359.5059 97.07896 359.75576 99.5776 354.2275 C 100.20226 352.8845 100.67075 350.57325 101.01432 347.1064 L 101.20171 344.9513 L 102.76336 347.8872 C 103.63789 349.4801 105.10584 351.91627 106.07406 353.29053 Z" fill="#FFFFFF"/>
        </g>
        <g id="Graphic_90">
          <path d="M 269.45392 351.1979 C 271.3279 352.6034 271.10927 353.7278 268.45447 356.50753 C 265.86213 359.2248 260.42758 362.75413 253.49386 366.25222 C 250.33932 367.8451 247.93438 369.00073 248.09054 368.84456 C 248.27794 368.6884 249.58973 367.72018 251.05768 366.7207 C 258.9284 361.3174 263.9569 356.91355 265.05007 354.4149 C 265.48733 353.47792 265.7372 353.2593 266.08076 353.47792 C 266.67418 353.8527 269.17282 353.8215 269.17282 353.4467 C 269.17282 353.2593 268.8605 353.00943 268.4857 352.85326 C 267.8298 352.6034 266.36185 350.94805 266.36185 350.44832 C 266.36185 350.07353 268.6731 350.6045 269.45392 351.1979 Z" fill="#FFFFFF"/>
        </g>
        <g id="Graphic_89">
          <path d="M 96.76663 356.72616 C 95.86087 359.38096 95.95457 360.59905 97.23512 362.47303 L 98.29704 364.09715 L 96.86033 363.06646 C 94.83018 361.5985 93.83072 360.00562 94.08059 358.63137 C 94.29922 357.56945 97.11019 354.0089 97.29759 354.6023 C 97.36005 354.75848 97.11019 355.69547 96.76663 356.72616 Z" fill="#FFFFFF"/>
        </g>
        <g id="Graphic_88">
          <path d="M 182.81356 102.52071 C 182.68863 106.11251 182.6574 114.0457 182.7511 120.13613 C 183.15712 142.99869 185.15604 154.52367 189.15386 157.02231 C 190.49688 157.89684 190.52811 157.14724 189.1851 155.86669 C 186.74892 153.58668 185.2185 147.27761 184.18781 134.97181 C 184.00041 132.72303 183.78178 123.25943 183.68808 113.88953 C 183.59439 104.51963 183.40699 96.68014 183.28206 96.43028 C 183.15712 96.18041 182.9385 98.92892 182.81356 102.52071 Z" fill="black"/>
        </g>
        <g id="Graphic_87">
          <path d="M 193.68265 111.79692 C 194.7758 112.9213 197.0558 113.8583 206.08215 117.01283 C 218.3255 121.29175 223.1666 123.19696 229.2258 126.13287 C 232.88007 127.88192 235.31625 128.9126 235.78474 128.8189 C 236.34693 128.75644 235.44118 128.16301 232.00555 126.38273 C 226.35237 123.47806 218.3255 120.1986 209.20545 117.10653 C 203.45858 115.17008 199.14842 113.54597 193.27662 111.14102 C 193.02675 111.04732 193.18292 111.32842 193.68265 111.79692 Z" fill="black"/>
        </g>
        <g id="Graphic_86">
          <path d="M 179.3467 133.31646 C 179.37793 147.37131 179.28423 152.14996 178.9719 153.11819 C 178.7845 153.83654 178.0349 155.1171 177.34778 155.99162 C 176.66066 156.83491 176.09846 157.64697 176.09846 157.74067 C 176.09846 158.2404 176.84806 157.80314 177.97244 156.64751 C 179.97136 154.58614 180.22122 153.39928 180.37739 143.96691 C 180.62725 132.2233 180.18999 114.82652 179.69026 114.82652 C 179.37793 114.82652 179.31546 118.60571 179.3467 133.31646 Z" fill="black"/>
        </g>
        <g id="Graphic_85">
          <path d="M 142.21065 122.32244 C 141.17996 122.79094 138.0879 123.97779 135.33939 124.91478 C 129.71745 126.88246 126.87525 128.25671 121.9092 131.50494 C 116.69329 134.94058 112.38313 138.50114 107.35462 143.52965 C 101.73267 149.18283 99.88993 151.36914 100.73322 151.36914 C 101.10801 151.36914 102.2324 150.33845 103.60666 148.74556 C 107.91681 143.71705 113.85108 138.34497 119.72289 134.15975 C 125.43853 130.06823 129.65498 127.75698 134.0276 126.3515 C 138.30653 124.94601 142.83531 123.19696 142.92901 122.91587 C 142.99148 122.7597 143.2101 122.63477 143.42874 122.63477 C 143.64737 122.63477 144.08463 122.35367 144.39696 122.01011 C 145.17779 121.13559 144.5219 121.22929 142.21065 122.32244 Z" fill="black"/>
        </g>
        <g id="Graphic_84">
          <path d="M 182.5637 162.30069 C 182.0952 171.3895 182.12643 192.90904 182.62616 192.90904 C 183.15712 192.90904 183.31329 184.6323 183.06342 171.35826 C 182.8448 160.17684 182.7511 158.74013 182.5637 162.30069 Z" fill="black"/>
        </g>
        <g id="Graphic_83">
          <path d="M 170.32036 209.9935 C 155.29728 211.2428 139.89941 213.80392 122.53386 217.89544 C 115.53766 219.5508 104.16885 222.70532 99.1091 224.3919 C 94.64278 225.8911 97.29759 225.57876 103.76282 223.8297 C 132.74705 216.0527 153.07974 212.02364 169.16474 210.83678 C 171.28858 210.68062 172.03817 210.52445 172.03817 210.21212 C 172.03817 209.96226 171.94447 209.8061 171.81954 209.83733 C 171.66338 209.86856 171.00748 209.93102 170.32036 209.9935 Z" fill="black"/>
        </g>
        <g id="Graphic_82">
          <path d="M 196.39992 210.64938 C 196.39992 210.80555 198.67993 211.1491 201.4909 211.4302 C 214.23397 212.77323 229.1321 215.64666 249.1837 220.7064 C 254.587 222.08066 259.52183 223.32998 260.11525 223.51738 C 262.02047 224.07958 261.89553 223.79848 259.9591 223.17382 C 244.43628 218.17654 223.13537 213.58529 204.27064 211.21158 C 197.4306 210.33705 196.39992 210.2746 196.39992 210.64938 Z" fill="black"/>
        </g>
        <g id="Graphic_81">
          <path d="M 164.85458 224.42314 C 156.14057 226.70315 151.67425 229.0144 141.52353 236.54155 C 139.49338 238.0095 137.49447 239.44622 137.0572 239.66485 L 136.27638 240.07088 L 137.11967 240.07088 C 137.58817 240.07088 138.77502 239.53992 139.74324 238.88402 C 140.71147 238.25936 141.74216 237.57224 141.99202 237.41607 C 142.61668 237.01004 143.36627 236.41661 145.49012 234.6051 C 148.95698 231.70043 155.35975 228.51466 164.47979 225.2352 C 170.00803 223.20505 170.0705 223.08012 164.85458 224.42314 Z" fill="black"/>
        </g>
        <g id="Graphic_80">
          <path d="M 202.80268 225.67246 C 209.86134 228.20233 212.01642 229.07686 215.13972 230.76344 C 217.98193 232.29386 222.57318 235.4484 225.85264 238.1032 C 227.2269 239.19635 228.63238 240.07088 228.97594 240.07088 C 229.63184 240.07088 229.63184 240.03964 228.88225 239.66485 C 228.44498 239.44622 226.44607 238.0095 224.41593 236.54155 C 216.70137 230.8259 211.64163 227.82754 206.9879 226.1722 C 204.8016 225.4226 197.68047 223.48615 197.11828 223.51738 C 196.99335 223.54862 199.55445 224.51684 202.80268 225.67246 Z" fill="black"/>
        </g>
        <g id="Graphic_79">
          <path d="M 270.5783 231.4818 C 270.07858 231.91906 269.5164 232.26262 269.39146 232.26262 C 269.2353 232.26262 268.07967 232.88728 266.79912 233.6681 C 263.89445 235.4484 260.08402 237.32237 258.05387 237.97826 C 255.8988 238.6654 250.90152 239.78978 248.96507 239.97718 C 247.15355 240.16458 246.68506 240.69554 248.3404 240.69554 C 249.68343 240.69554 253.83742 239.88348 256.39852 239.1339 C 257.5229 238.79032 258.741 238.50923 259.05333 238.50923 C 259.92785 238.50923 266.86158 234.94866 268.6731 233.54318 C 269.54762 232.88728 270.5783 232.26262 270.98434 232.1377 C 271.39037 232.01276 271.67147 231.6692 271.67147 231.2944 C 271.67147 230.57604 271.7027 230.5448 270.5783 231.4818 Z" fill="black"/>
        </g>
        <g id="Graphic_78">
          <path d="M 91.76935 232.044 C 91.76935 233.32455 101.29541 238.9465 105.7305 240.32074 C 110.54038 241.7887 111.13381 241.94486 111.13381 241.53883 C 111.13381 241.3202 109.66586 240.6643 107.79188 240.07088 C 103.85652 238.82156 98.57814 236.22922 95.04881 233.82427 C 91.67565 231.4818 91.76935 231.54427 91.76935 232.044 Z" fill="black"/>
        </g>
        <g id="Graphic_77">
          <path d="M 162.3247 279.4557 L 161.63758 280.14282 L 161.88745 300.78784 C 162.01238 312.15666 162.19978 322.3074 162.3247 323.30684 C 162.54334 325.5244 163.168 325.89918 163.98006 324.33753 C 164.76088 322.8071 165.32308 310.00158 165.32308 294.26014 C 165.29184 281.642 165.26061 281.0798 164.66718 280.04913 C 163.88636 278.7061 163.23047 278.54994 162.3247 279.4557 Z" fill="black"/>
        </g>
        <g id="Graphic_76">
          <path d="M 163.5428 301.6936 C 163.48033 323.61917 163.29293 322.27615 162.82444 297.0711 C 162.57457 284.1094 162.6995 280.45515 163.32416 280.82995 C 163.48033 280.95488 163.57403 289.13793 163.5428 301.6936 Z" fill="#FFFFFF"/>
        </g>
        <g id="Graphic_75">
          <path d="M 149.76904 280.299 C 149.01945 281.11105 149.11315 282.54777 149.95644 283.57845 C 150.8622 284.73408 153.17344 285.1401 153.82933 284.26558 C 154.42276 283.39106 154.32906 282.14174 153.517 280.95488 C 152.92357 280.08036 152.58001 279.86173 151.54932 279.79926 C 150.64356 279.7368 150.14384 279.86173 149.76904 280.299 Z" fill="black"/>
        </g>
        <g id="Graphic_74">
          <path d="M 152.29891 283.0475 C 153.4233 283.39106 153.3296 283.7971 152.11151 283.7971 C 150.92466 283.7971 150.17507 282.9538 150.17507 281.642 L 150.2063 280.51762 L 150.73726 281.61078 C 151.11206 282.36037 151.61179 282.79763 152.29891 283.0475 Z" fill="#FFFFFF"/>
        </g>
        <g id="Graphic_73">
          <path d="M 131.96623 280.61132 C 131.21663 281.42338 131.31033 282.8601 132.15362 283.8908 C 133.05938 285.0464 135.37062 285.45244 136.02652 284.5779 C 136.61994 283.7034 136.52624 282.45407 135.71419 281.2672 C 135.12076 280.3927 134.7772 280.17406 133.7465 280.1116 C 132.84075 280.04913 132.34102 280.17406 131.96623 280.61132 Z" fill="black"/>
        </g>
        <g id="Graphic_72">
          <path d="M 133.7465 283.2349 C 133.9339 283.35982 134.4024 283.48476 134.80843 283.48476 C 135.21446 283.48476 135.43309 283.6097 135.33939 283.7971 C 135.02706 284.2968 133.55911 284.17188 132.93445 283.57845 C 132.59089 283.26612 132.37225 282.6727 132.40349 281.95434 L 132.43472 280.82995 L 132.90322 281.9231 C 133.15308 282.51653 133.52788 283.10996 133.7465 283.2349 Z" fill="#FFFFFF"/>
        </g>
        <g id="Graphic_71">
          <path d="M 125.87579 286.3582 C 125.28236 286.95162 125.43853 288.6382 126.09442 289.23163 C 126.43798 289.54396 127.25004 289.8563 127.93717 289.95 C 128.99909 290.10615 129.24895 290.01245 129.56128 289.41903 C 130.34211 287.9823 128.96786 285.9834 127.21881 285.9834 C 126.68785 285.9834 126.09442 286.13956 125.87579 286.3582 Z" fill="black"/>
        </g>
        <g id="Graphic_70">
          <path d="M 128.21826 288.8256 C 129.06156 289.013 129.06156 289.04423 127.99963 289.07546 C 126.62538 289.1067 126.12565 288.66943 126.12565 287.38888 L 126.15689 286.4519 L 126.71908 287.54505 C 127.12511 288.2634 127.62484 288.70067 128.21826 288.8256 Z" fill="#FFFFFF"/>
        </g>
        <g id="Graphic_69">
          <path d="M 136.80734 289.79382 C 136.21391 290.38725 136.37008 292.07383 137.0572 292.6985 C 137.432 293.04206 138.21283 293.29192 139.02488 293.29192 L 140.33667 293.32315 L 140.43037 292.01137 C 140.49284 291.0119 140.3679 290.57465 139.83694 290.07492 C 139.05612 289.35656 137.40077 289.2004 136.80734 289.79382 Z" fill="black"/>
        </g>
        <g id="Graphic_68">
          <path d="M 139.14982 292.26123 C 139.9931 292.44863 139.9931 292.47986 138.93119 292.5111 C 137.55693 292.54233 137.0572 292.10507 137.0572 290.8245 L 137.08844 289.88752 L 137.65063 290.98068 C 138.05666 291.69904 138.55639 292.1363 139.14982 292.26123 Z" fill="#FFFFFF"/>
        </g>
        <g id="Graphic_67">
          <path d="M 148.98821 291.98013 C 148.42602 292.54233 148.51972 294.85357 149.17561 295.66563 C 149.95644 296.60262 152.29891 296.91495 152.89234 296.13412 C 153.48577 295.2596 153.39207 294.01028 152.58001 292.82342 C 152.01782 291.9489 151.64302 291.73027 150.64356 291.6678 C 149.9252 291.60534 149.20685 291.7615 148.98821 291.98013 Z" fill="black"/>
        </g>
        <g id="Graphic_66">
          <path d="M 151.42439 295.04097 C 151.98658 295.04097 152.33015 295.1659 152.20521 295.3533 C 151.89288 295.85303 150.42493 295.7281 149.80027 295.13467 C 149.45671 294.82234 149.23808 294.2289 149.26931 293.51055 L 149.26931 292.38616 L 149.86274 293.69795 C 150.3937 294.85357 150.5811 295.04097 151.42439 295.04097 Z" fill="#FFFFFF"/>
        </g>
        <g id="Graphic_65">
          <path d="M 130.24841 294.16644 C 129.68622 294.72864 129.81115 296.44645 130.46704 297.03988 C 130.77937 297.32098 131.59143 297.66454 132.21609 297.75824 C 133.15308 297.9144 133.49664 297.8207 133.80897 297.38344 C 134.43363 296.50892 134.33993 295.8218 133.43418 294.75987 C 132.55965 293.72918 130.998 293.41685 130.24841 294.16644 Z" fill="black"/>
        </g>
        <g id="Graphic_64">
          <path d="M 132.59089 296.63385 C 133.43418 296.82125 133.43418 296.8525 132.37225 296.8837 C 130.998 296.91495 130.49827 296.4777 130.49827 295.19713 L 130.5295 294.26014 L 131.0917 295.3533 C 131.49773 296.07166 131.99746 296.50892 132.59089 296.63385 Z" fill="#FFFFFF"/>
        </g>
        <g id="Graphic_63">
          <path d="M 149.14438 304.03607 C 148.39479 304.84813 148.48849 306.28485 149.33178 307.31554 C 150.23753 308.47116 152.54878 308.8772 153.20467 308.00267 C 153.7981 307.12814 153.7044 305.87882 152.89234 304.69197 C 152.29891 303.81744 151.95535 303.5988 150.92466 303.53635 C 150.0189 303.47388 149.51918 303.5988 149.14438 304.03607 Z" fill="black"/>
        </g>
        <g id="Graphic_62">
          <path d="M 151.73672 306.9095 C 152.29891 306.9095 152.64248 307.03444 152.51754 307.22184 C 152.20521 307.72157 150.73726 307.59664 150.1126 307.0032 C 149.76904 306.69088 149.5504 306.09745 149.58164 305.3791 L 149.58164 304.2547 L 150.17507 305.5665 C 150.70603 306.7221 150.89343 306.9095 151.73672 306.9095 Z" fill="#FFFFFF"/>
        </g>
        <g id="Graphic_61">
          <path d="M 148.98821 314.4679 C 148.42602 315.0301 148.51972 317.34134 149.17561 318.1534 C 149.95644 319.0904 152.29891 319.4027 152.89234 318.6219 C 153.48577 317.74736 153.39207 316.49804 152.58001 315.3112 C 152.01782 314.43667 151.64302 314.21803 150.64356 314.15557 C 149.9252 314.0931 149.20685 314.24927 148.98821 314.4679 Z" fill="black"/>
        </g>
        <g id="Graphic_60">
          <path d="M 151.42439 317.52873 C 151.98658 317.52873 152.33015 317.65367 152.20521 317.84106 C 151.89288 318.3408 150.42493 318.21586 149.80027 317.62243 C 149.45671 317.3101 149.23808 316.71668 149.26931 315.9983 L 149.26931 314.87393 L 149.86274 316.1857 C 150.3937 317.34134 150.5811 317.52873 151.42439 317.52873 Z" fill="#FFFFFF"/>
        </g>
        <g id="Graphic_59">
          <path d="M 273.76408 275.6765 C 273.67038 275.92637 272.7334 279.6431 271.67147 283.95325 C 264.86267 311.75063 255.6177 334.8006 244.87355 350.6045 C 241.719 355.2582 236.8779 361.7859 234.19186 364.97167 C 231.3809 368.28237 232.41158 367.40785 236.222 363.22262 C 250.18316 347.9809 261.1147 325.6493 269.48515 295.447 C 271.54653 288.04477 274.29504 276.145 274.0764 275.5828 C 273.9827 275.33294 273.889 275.36417 273.76408 275.6765 Z" fill="black"/>
        </g>
        <g id="Graphic_58">
          <path d="M 182.0952 359.4122 C 180.28369 360.5678 179.75273 362.3481 180.62725 364.09715 C 181.7204 366.15852 184.4689 366.84565 186.4366 365.53386 C 188.87276 363.8785 188.87276 361.13 186.4366 359.47466 C 185.09357 358.5689 183.43822 358.5689 182.0952 359.4122 Z" fill="black"/>
        </g>
        <g id="Graphic_57">
          <path d="M 185.7807 360.1618 C 186.68645 360.6303 187.34235 361.5048 187.34235 362.22317 C 187.34235 362.4418 187.09248 362.3481 186.71769 361.9733 C 186.40536 361.5985 185.65576 361.2237 185.09357 361.09878 C 183.68808 360.78645 183.50069 360.6303 183.93795 360.13055 C 184.40644 359.56836 184.6563 359.56836 185.7807 360.1618 Z" fill="#FFFFFF"/>
        </g>
        <g id="Graphic_56">
          <path d="M 182.6574 360.8489 C 182.62616 361.16124 182.2826 361.81714 181.87657 362.3481 L 181.09575 363.2851 L 181.09575 362.50426 C 181.09575 361.66097 181.87657 360.31795 182.3763 360.31795 C 182.53246 360.31795 182.6574 360.5678 182.6574 360.8489 Z" fill="#FFFFFF"/>
        </g>
        <g id="Graphic_55">
          <path d="M 186.09303 362.66043 C 187.12372 363.6911 184.96864 365.12784 183.43822 364.4407 C 182.2826 363.90975 182.0952 363.16016 182.96973 362.4418 C 183.81302 361.75467 185.28097 361.8796 186.09303 362.66043 Z" fill="#FFFFFF"/>
        </g>
        <g id="Graphic_54">
          <path d="M 84.58575 294.07275 C 83.7737 295.6344 84.74192 299.9758 85.99124 300.4755 C 86.27234 300.5692 86.39727 300.78784 86.30357 300.97524 C 86.20987 301.1314 86.39727 301.28757 86.74083 301.28757 C 87.30303 301.28757 87.33426 301.2251 86.897 300.35058 C 86.6159 299.81962 86.30357 299.4136 86.1474 299.4136 C 86.02247 299.4136 85.64768 298.91386 85.36658 298.25797 C 84.96055 297.38344 84.86685 296.69632 85.02302 295.29083 C 85.21041 293.38562 85.11672 293.10452 84.58575 294.07275 Z" fill="black"/>
        </g>
      </g>
    </g>
  </g>
</svg>
