<?xml version="1.0" encoding="UTF-8" standalone="no"?>
<!DOCTYPE svg PUBLIC "-//W3C//DTD SVG 1.1//EN" "http://www.w3.org/Graphics/SVG/1.1/DTD/svg11.dtd">
<svg xmlns:xl="http://www.w3.org/1999/xlink" xmlns="http://www.w3.org/2000/svg" xmlns:dc="http://purl.org/dc/elements/1.1/" version="1.1" viewBox="49.5 60.75 127.17036 355.5" width="127.17036" height="355.5">
  <defs>
    <clipPath id="artboard_clip_path">
      <path d="M 176.67036 60.75 L 49.5 60.75 L 49.5 416.25 L 176.67036 416.25 Z"/>
    </clipPath>
  </defs>
  <g id="Horn,_Drinking_(1)" stroke="none" stroke-opacity="1" fill-opacity="1" stroke-dasharray="none" fill="none">
    <title>Horn, Drinking (1)</title>
    <g id="Horn,_Drinking_(1)_Layer_2" clip-path="url(#artboard_clip_path)">
      <title>Layer 2</title>
      <g id="Group_3">
        <g id="Graphic_14">
          <path d="M 122.39877 67.94093 C 127.2201 69.58724 131.33588 71.35115 131.57107 72.05671 C 131.80626 72.644675 132.51182 73.11505 133.09978 73.11505 C 134.86369 73.11505 146.85823 82.287345 153.79625 88.75499 C 157.20646 91.93001 161.43983 96.98654 163.08614 100.04397 C 164.85004 102.98381 166.61394 105.68846 167.08432 106.04124 C 168.84822 107.33477 171.78806 116.97744 171.78806 121.3284 C 171.78806 125.79695 168.84822 136.61556 167.2019 137.7915 C 166.84913 138.14427 165.20282 141.2017 163.6741 144.61192 C 161.67501 148.7277 159.91111 150.96197 158.1472 151.43234 C 154.97218 152.2555 152.9731 155.07774 148.85732 164.72041 C 146.15267 171.18806 146.03507 172.1288 147.68138 173.77512 C 149.56288 175.7742 149.56288 176.95014 146.27026 196.0003 C 144.50636 206.7013 142.38967 211.87542 139.68502 211.87542 C 138.97946 211.87542 138.2739 213.05136 138.1563 214.46248 C 138.1563 215.9912 137.21556 225.39868 136.03962 235.39413 C 132.15904 267.73235 134.98128 315.47533 142.38967 344.7561 C 146.27026 360.39606 147.09341 362.51274 150.03325 363.5711 C 152.14994 364.39424 153.44347 366.8637 155.91293 374.3897 C 160.0287 386.5018 164.37966 396.73246 166.26116 398.26118 C 168.61303 400.14267 171.78806 406.6103 171.78806 409.43256 C 171.78806 412.0196 171.43528 412.0196 165.32041 411.43165 C 159.55833 410.8437 146.38785 405.90476 144.74154 403.78807 C 144.38876 403.3177 141.21374 400.96583 137.68593 398.61396 C 134.15813 396.2621 128.39604 391.67594 124.98583 388.5009 C 119.81171 383.67958 118.87097 382.03327 118.87097 378.62305 C 118.87097 376.3888 117.93022 373.21375 116.63669 371.68504 C 111.22739 364.747 92.64761 327.35227 86.88552 311.82993 C 85.4744 308.30212 83.94569 305.2447 83.47531 305.0095 C 83.00494 304.7743 80.41788 299.24742 77.83082 292.66218 C 67.247404 265.38048 60.89735 231.63114 59.83901 196.58826 C 59.603824 187.88634 59.01586 184.9465 57.36955 183.065 C 54.07693 179.4196 53.72415 175.7742 55.252864 159.5463 C 57.01677 139.79058 57.48714 137.7915 60.0742 137.7915 C 61.72051 137.7915 62.89644 134.96925 65.83628 122.73952 C 67.83537 114.39038 69.48168 105.21808 69.48168 102.27825 C 69.48168 96.75135 73.95024 84.40403 79.35954 75.23173 C 83.59291 67.94093 88.53183 65.82425 102.40787 65.353876 C 111.93295 65.001095 114.87279 65.47147 122.39877 67.94093 Z" fill="black"/>
        </g>
        <g id="Graphic_13">
          <path d="M 91.82445 72.52708 C 87.3559 74.87895 84.65125 78.40676 84.53365 82.16975 C 84.41606 85.93274 88.53183 93.69392 94.17632 100.16156 C 96.05782 102.39584 95.87825 104.26045 96.74053 105.55335 C 97.60282 106.84625 99.11525 108.15792 100.87916 109.92183 C 104.75974 113.44963 118.12424 123.46976 120.89212 124.87462 C 123.66 126.27947 128.27845 127.20808 130.74791 128.5016 C 136.03962 131.20626 155.32496 132.85257 155.32496 130.61829 C 155.32496 129.91273 156.03052 129.55995 156.73608 129.91273 C 157.55924 130.14791 160.1463 129.32476 162.61576 128.03123 C 168.73063 124.73861 168.96581 120.97562 163.43892 111.68573 C 160.96945 107.68755 158.97036 103.68937 158.85277 102.86621 C 158.85277 102.04306 157.91202 100.86712 156.73608 100.27916 C 155.67774 99.5736 155.20737 98.98563 155.91293 98.98563 C 158.3824 98.98563 138.86187 81.69938 132.15904 78.05398 C 118.51819 70.88077 100.1736 68.293714 91.82445 72.52708 Z" fill="#FFFFFF"/>
        </g>
        <g id="Graphic_12">
          <path d="M 80.30029 90.98927 C 81.35863 92.63558 81.71141 94.63467 81.241035 96.04579 C 80.41788 98.28007 80.41788 98.28007 79.59473 95.69301 C 79.12435 94.28189 78.3012 93.10595 77.595635 93.10595 C 77.00767 93.10595 77.47804 94.98745 78.53638 97.22172 C 80.65307 101.57268 79.71232 104.39493 77.242855 100.98472 C 74.89098 97.80969 73.83264 98.63285 76.06692 101.92547 C 77.83082 104.63012 77.83082 104.8653 76.06692 104.8653 C 73.36227 104.8653 73.71505 106.27643 78.06601 112.03851 C 80.30029 114.86075 82.29938 117.80059 82.53456 118.62375 C 83.24013 120.50524 98.2921 132.85257 105.34771 137.43871 C 111.10979 141.08411 128.39604 147.43416 136.27481 148.84529 C 140.62577 149.55085 156.03052 147.55176 158.85277 145.90545 C 160.0287 145.19989 158.73517 145.0823 155.32496 145.55267 C 150.38603 146.14063 150.15085 146.02304 152.26753 144.37673 C 153.56106 143.31839 155.67774 142.49524 156.97127 142.49524 C 158.3824 142.49524 160.2639 141.90727 161.20464 141.3193 C 162.49817 140.49615 161.43983 140.37855 157.91202 140.84893 C 153.91384 141.4369 152.9731 141.3193 152.9731 139.79058 C 152.9731 138.73224 154.6194 137.7915 157.32405 137.20353 C 162.61576 136.26278 165.90838 134.61647 165.90838 132.97016 C 165.90838 132.38219 164.37966 132.61738 162.38057 133.67572 C 157.67683 136.14518 148.15176 135.91 139.56743 133.20535 C 135.56925 131.91182 130.04235 130.2655 127.10251 129.44235 C 117.57744 126.7377 112.79093 123.31796 104.33103 115.559 C 99.77274 111.34425 96.22366 108.60524 95.01542 107.27846 C 93.08223 105.15563 84.76884 97.45691 84.76884 95.22263 C 84.76884 94.28189 79.94751 88.40221 79.12435 88.40221 C 78.88916 88.40221 79.35954 89.57814 80.30029 90.98927 Z" fill="#FFFFFF"/>
        </g>
        <g id="Graphic_11">
          <path d="M 70.30484 122.50433 C 67.48259 133.32294 66.77703 140.84893 68.30575 143.78876 C 70.77521 148.37491 79.12435 156.60646 85.592 160.95742 C 89.00221 163.1917 91.82445 165.42597 91.82445 166.01394 C 91.82445 167.54266 105.34771 174.1279 112.40332 176.0094 C 120.75246 178.12608 133.68775 178.24367 137.56834 176.24458 C 139.68502 175.18624 141.21374 172.48159 143.33042 166.01394 C 144.85914 161.1926 146.62304 156.48887 147.3286 155.66571 C 148.26935 154.60737 147.3286 154.25459 142.97764 154.25459 C 128.98401 154.25459 114.52 149.66844 100.99675 140.96652 C 91.58927 134.96925 78.65398 123.2099 76.06692 118.38856 C 74.77339 116.15428 73.36227 114.62557 72.89189 115.09594 C 72.42152 115.68391 71.245584 118.97653 70.30484 122.50433 Z" fill="#FFFFFF"/>
        </g>
        <g id="Graphic_10">
          <path d="M 71.0104 158.37036 C 81.00585 167.89544 83.62967 169.38254 83.62967 169.38254 C 83.62967 169.38254 81.659165 170.95658 71.8989 162.13707 C 68.60628 159.19723 65.953875 156.84165 65.953875 157.31202 C 65.953875 157.7824 64.89553 157.19443 63.602005 156.0185 C 60.77976 153.43143 60.42698 154.96015 63.249224 158.01758 C 65.4835 160.60464 64.42516 162.25095 61.8381 160.13427 C 59.251044 158.01758 59.72142 159.5463 63.13163 164.838 C 66.89462 170.3649 66.42425 171.77603 62.07329 168.24822 C 57.83992 165.0732 57.957515 166.48432 62.07329 170.12972 C 63.954785 171.65843 65.01313 173.30474 64.54275 173.77512 C 63.954785 174.2455 62.54366 173.65752 61.250134 172.48159 C 59.956605 171.30565 58.89826 170.71768 58.89826 171.30565 C 58.89826 171.77603 60.19179 173.18715 61.8381 174.48068 C 63.48441 175.7742 64.77794 177.30292 64.77794 177.8909 C 64.77794 179.6548 62.19088 179.06682 59.72142 176.83255 C 58.42789 175.7742 59.36864 177.6557 61.8381 181.1835 C 70.77521 193.53083 88.06146 203.64387 107.3468 207.64205 C 119.22375 210.11152 126.27936 209.99392 134.15813 207.17168 C 139.68502 205.1726 139.92021 204.9374 136.15722 205.40778 C 130.8655 206.23093 130.39513 204.46703 135.33406 202.46794 C 139.68502 200.70404 141.33133 198.46976 137.21556 200.11607 C 133.33497 201.5272 133.33497 200.70404 137.09796 197.29382 L 140.0378 194.58917 L 137.09796 195.17714 C 133.21738 195.8827 133.21738 193.29564 137.09796 192.3549 C 138.74427 192.00211 140.0378 191.06137 140.0378 190.4734 C 140.0378 189.76784 139.09705 189.65024 137.92112 190.12062 C 136.86278 190.4734 135.68684 190.94377 135.33406 191.06137 C 134.98128 191.17896 134.6285 190.70858 134.5109 190.12062 C 134.27572 189.41506 135.92203 188.35671 138.03871 187.53356 C 141.21374 186.47522 140.1554 186.35762 131.45347 186.828 C 119.57653 187.65115 116.98947 185.65206 128.27845 184.35853 C 132.15904 183.88816 137.09796 182.71222 139.21465 181.77148 C 141.8017 180.47795 142.15449 180.24276 140.0378 180.71313 C 122.86915 185.0641 98.05691 179.5372 86.65034 168.95378 C 85.00403 167.42506 83.92473 166.9436 83.28465 166.27734 C 81.67789 164.93828 65.4835 152.72587 64.18997 150.72678 C 63.83719 150.13882 63.13163 149.55085 62.66126 149.55085 C 62.19088 149.66844 65.953875 153.54903 71.0104 158.37036 Z" fill="#FFFFFF"/>
        </g>
        <g id="Graphic_9">
          <path d="M 64.89553 208.7004 C 65.83628 222.92921 68.18815 240.80343 71.36318 256.44337 C 73.71505 268.08513 82.06419 293.72052 84.29847 295.8372 C 85.23922 296.77795 87.23831 301.01132 88.76702 305.1271 C 90.41333 309.12528 93.94114 317.23923 96.88098 323.1189 C 99.70322 328.881 103.819 336.99494 105.81808 341.2283 C 115.57835 361.6896 123.45711 373.44894 128.39604 375.21284 C 132.747 376.74156 138.86187 374.97766 142.27208 371.44985 C 144.50636 368.9804 144.62395 368.15723 143.44802 365.2174 C 141.33133 359.4553 135.33406 335.34863 133.57016 325.3532 C 128.63123 295.60202 128.63123 240.80343 133.57016 216.57916 L 134.15813 213.63932 L 120.98765 213.63932 C 109.58108 213.52173 106.40605 213.05136 98.40969 210.3467 C 85.70959 205.87815 78.1836 202.11516 71.245584 196.82345 C 67.71778 194.1188 65.13072 192.82527 64.66035 193.53083 C 64.307566 194.2364 64.42516 201.05682 64.89553 208.7004 Z" fill="#FFFFFF"/>
        </g>
        <g id="Graphic_8">
          <path d="M 139.33224 378.85824 C 137.09796 379.6814 132.8646 380.03418 130.04235 379.799 C 126.74973 379.5638 125.22102 379.799 125.92658 380.50455 C 126.63214 381.2101 129.2192 381.6805 131.80626 381.7981 C 137.21556 381.7981 138.03871 383.91476 133.21738 385.67867 L 130.04235 386.8546 L 133.33497 386.9722 C 138.74427 387.0898 142.27208 392.1463 137.92112 393.43984 C 136.86278 393.7926 137.92112 393.7926 140.50818 393.43984 C 144.50636 392.85187 144.97673 393.08706 144.50636 395.08615 C 144.03598 396.85005 144.38876 397.20283 146.62304 396.73246 C 149.68047 396.1445 150.26844 397.5556 147.91657 399.9075 C 146.74063 401.201 146.97582 401.201 149.0925 400.14267 C 152.8555 398.26118 154.97218 398.49636 155.67774 401.201 C 156.03052 402.49454 155.79534 403.5529 155.20737 403.5529 C 154.6194 403.5529 154.14903 404.14085 154.14903 404.7288 C 154.14903 405.4344 155.44256 405.0816 156.97127 404.14085 C 159.08796 402.72973 159.91111 402.61214 160.2639 403.6705 C 160.61667 404.7288 160.96945 404.49363 161.55742 403.2001 C 162.0278 401.789 161.67501 401.201 160.49908 401.201 C 159.20555 401.201 158.73517 400.49545 159.20555 398.84914 C 159.55833 397.32043 159.20555 396.49727 158.1472 396.49727 C 157.20646 396.49727 156.5009 395.6741 156.5009 394.73337 C 156.5009 393.7926 155.91293 392.96947 155.20737 392.96947 C 154.5018 392.96947 154.14903 391.91112 154.5018 390.6176 C 154.85459 389.20647 154.5018 388.26572 153.56106 388.26572 C 152.62031 388.26572 152.03234 386.8546 152.14994 384.03236 C 152.26753 379.3286 150.15085 377.21193 146.97582 378.97584 C 142.62486 381.2101 142.0369 379.9166 145.6823 376.1536 C 147.79898 374.0369 149.44529 371.92022 149.44529 371.33226 C 149.44529 370.8619 148.15176 372.0378 146.50545 374.0369 C 144.85914 375.9184 141.56652 378.1527 139.33224 378.85824 Z" fill="#FFFFFF"/>
        </g>
        <g id="Graphic_7">
          <path d="M 115.34316 73.46783 C 118.87097 74.17339 122.51637 75.46692 123.33952 76.290075 C 124.16268 77.11323 125.69139 77.81879 126.74973 77.81879 C 129.92476 77.81879 142.15449 86.16793 147.68138 92.04761 C 156.14812 101.10231 164.73245 115.33113 164.73245 120.15246 C 164.73245 126.03214 163.6741 126.97289 156.03052 128.6192 C 148.15176 130.14791 134.5109 128.5016 127.2201 125.20899 C 115.34316 119.68209 103.58381 110.03942 94.88189 98.63285 C 87.59109 88.87258 84.76884 82.287345 86.65034 79.22991 C 90.29574 73.46783 102.99584 70.88077 115.34316 73.46783 Z" fill="black"/>
        </g>
        <g id="Graphic_6">
          <path d="M 93.35317 79.4651 C 91.35408 80.52344 93.23558 80.64104 102.17268 80.40585 C 108.40514 80.17066 114.87279 80.52344 116.5191 81.229 C 118.63578 82.05216 118.87097 82.40494 117.34225 82.40494 C 116.28391 82.52253 115.34316 82.99291 115.34316 83.69847 C 115.34316 84.40403 114.28482 84.40403 112.28573 83.69847 C 107.93477 82.05216 94.76429 82.16975 93.23558 83.93365 C 92.29483 85.10959 93.35317 85.34478 97.93932 84.992 C 105.34771 84.52162 113.22648 85.69756 116.04872 87.81424 C 119.57653 90.28371 117.69503 90.75408 110.63942 88.87258 C 103.819 86.99109 94.17632 87.57905 94.17632 89.81333 C 94.17632 90.63649 95.82263 90.75408 98.52728 90.4013 C 104.17177 89.46055 112.99129 91.45964 115.57835 94.28189 C 119.10615 98.04488 117.93022 98.75044 111.46257 96.51616 C 104.99493 94.28189 97.70413 93.57632 97.70413 95.34023 C 97.70413 95.9282 100.1736 96.63376 103.23103 97.10413 C 115.22557 98.75044 127.92567 107.33477 135.56925 119.21172 C 139.68502 125.44417 141.09614 126.26733 140.74336 122.03396 C 140.74336 120.50524 140.27299 119.4469 139.92021 119.68209 C 139.44984 119.91728 138.2739 118.74134 137.09796 117.09503 C 136.03962 115.44872 133.33497 112.03851 130.9831 109.45145 C 126.39695 104.39493 126.86733 103.68937 132.62941 107.21717 C 135.80444 109.09867 142.97764 117.80059 147.79898 125.67936 C 148.62213 126.8553 149.56288 127.44326 150.03325 126.97289 C 151.0916 126.03214 146.74063 118.85893 140.39058 111.09776 C 138.1563 108.27552 136.74518 105.57087 137.09796 104.8653 C 138.1563 103.219 145.21192 110.98017 150.26844 119.21172 C 154.14903 125.56177 157.67683 128.5016 156.03052 124.03305 C 154.97218 121.3284 145.32951 107.09958 142.50727 104.04215 C 139.80262 101.2199 139.21465 97.80969 141.33133 97.80969 C 142.97764 97.80969 145.91748 101.2199 153.20828 111.92092 C 160.49908 122.62193 159.91111 121.91637 160.73427 120.97562 C 161.9102 119.91728 156.14812 110.74498 148.15176 100.86712 C 143.44802 94.98745 138.1563 90.04852 132.39422 86.16793 C 124.39786 80.87622 121.34043 79.70029 108.87552 77.46601 C 105.34771 76.76045 96.29301 77.93638 93.35317 79.4651 Z" fill="#FFFFFF"/>
        </g>
        <g id="Graphic_5">
          <path d="M 101.23194 102.27825 C 101.23194 102.74862 103.46621 103.80696 106.17086 104.51252 C 113.22648 106.39402 121.10524 112.03851 125.92658 118.27097 C 129.80717 123.56268 131.80626 124.9738 131.80626 122.50433 C 131.80626 120.85802 121.69321 110.03942 117.22466 106.8644 C 111.58017 102.86621 101.23194 99.80878 101.23194 102.27825 Z" fill="#FFFFFF"/>
        </g>
        <g id="Graphic_4">
          <path d="M 108.28755 109.56905 C 108.28755 110.15701 109.46348 111.21535 110.8746 112.03851 C 112.40332 112.74407 115.34316 114.97835 117.34225 116.97744 C 121.22284 120.62284 124.04508 120.74043 121.10524 117.09503 C 119.10615 114.50797 110.63942 108.39311 109.2283 108.39311 C 108.75792 108.39311 108.28755 108.86348 108.28755 109.56905 Z" fill="#FFFFFF"/>
        </g>
      </g>
    </g>
  </g>
</svg>
