<?xml version="1.0" encoding="UTF-8" standalone="no"?>
<!DOCTYPE svg PUBLIC "-//W3C//DTD SVG 1.1//EN" "http://www.w3.org/Graphics/SVG/1.1/DTD/svg11.dtd">
<svg xmlns="http://www.w3.org/2000/svg" xmlns:dc="http://purl.org/dc/elements/1.1/" version="1.1" xmlns:xl="http://www.w3.org/1999/xlink" viewBox="67.5 94.5 283.5 173.42695" width="283.5" height="173.42695">
  <defs>
    <clipPath id="artboard_clip_path">
      <path d="M 67.5 94.5 L 351 94.5 L 351 267.92695 L 67.5 267.92695 Z"/>
    </clipPath>
  </defs>
  <g id="Lance_Fracted_in_Chevron" fill-opacity="1" stroke="none" stroke-dasharray="none" stroke-opacity="1" fill="none">
    <title>Lance Fracted in Chevron</title>
    <g id="Lance_Fracted_in_Chevron_Art" clip-path="url(#artboard_clip_path)">
      <title>Art</title>
      <g id="Group_25">
        <g id="Graphic_33">
          <path d="M 262.45202 181.72484 C 262.4161 181.69423 262.4253 181.71647 262.4332 181.7312 C 262.43624 181.73687 262.43908 181.74143 262.43908 181.74143 C 262.43908 181.74143 262.45123 181.7334 262.45602 181.72831 C 262.45602 181.72831 262.45602 181.72831 262.45602 181.72831 L 262.45603 181.7283 C 262.45896 181.7252 262.45913 181.7232 262.45202 181.72484 C 262.45202 181.72484 262.45202 181.72484 262.45202 181.72484 Z M 262.45202 181.72484 L 262.452 181.72484 C 262.4533 181.72593 262.45463 181.72709 262.45603 181.7283 C 262.45602 181.7283 262.45602 181.72831 262.45602 181.72831 C 262.64346 181.89303 263.90083 183.31532 271.30744 192.59512 C 275.9097 198.38201 279.66335 203.38189 279.5114 203.66922 C 279.42368 203.94638 277.17707 205.55272 274.59927 207.1457 C 272.03164 208.80288 269.72083 210.41939 269.44048 210.72705 C 268.6096 211.71427 272.25396 214.36206 281.66847 219.78166 C 291.22156 225.24514 304.56837 234.7149 315.27896 243.74657 C 323.63308 250.7821 337.3075 264.46557 338.7595 264.53577 C 339.58918 264.5759 343.0938 262.58855 345.01063 259.95025 C 346.92747 257.31195 347.85485 255.5441 347.99852 254.45073 C 348.1422 253.35735 348.58537 253.74075 346.8303 251.38608 C 335.07227 235.7412 329.2114 226.99447 323.7047 216.74368 C 318.5463 207.03007 309.7948 185.22644 308.6054 182.08056 C 308.3631 181.43973 308.1452 180.83712 307.75995 180.89814 C 307.43892 180.94898 304.42564 183.53236 301.17268 186.68024 C 297.84534 189.77407 295.0145 192.26274 294.8556 192.09046 C 294.25042 191.59396 279.37883 173.74377 278.28993 172.27082 C 277.19085 170.73367 277.20668 170.40454 277.20668 170.40454 C 277.20668 170.40454 277.23472 170.5951 282.3345 163.73226 C 285.1444 159.86476 287.48698 156.78672 287.43614 156.46569 C 287.3853 156.14466 286.15577 155.2248 284.87803 154.63737 C 280.8859 152.70282 262.32924 138.40229 253.5219 130.58295 C 246.24273 124.10115 221.7303 101.06464 218.80556 97.97379 C 218.48772 97.62924 216.36574 98.36022 213.08168 100.06506 C 208.03734 102.70686 207.84472 102.73737 206.0025 101.91027 C 205.0121 101.47479 203.87613 100.53583 203.57166 99.86008 C 203.1623 98.93767 202.74655 98.80606 201.7701 99.2898 C 201.10452 99.65848 199.3576 100.26425 197.97559 100.68059 C 195.3298 101.42872 193.43473 103.17683 193.65845 104.58936 C 193.78048 105.35983 194.87955 106.89698 201.56492 115.44731 C 210.30287 126.56847 229.43397 154.27464 233.57403 161.71434 C 234.2167 162.86306 235.11298 164.36651 235.54587 165.02193 C 237.41282 168.08287 242.26413 178.76654 245.33304 186.50752 C 246.2331 188.86599 246.38186 188.97406 248.4803 188.51007 C 249.69005 188.25265 252.70394 186.91968 255.194 185.60386 C 261.21124 182.32332 262.2752 181.7928 262.4332 181.7312" fill="black"/>
        </g>
        <g id="Graphic_32">
          <path d="M 308.9207 187.70728 C 308.9207 187.70728 308.2378 187.9987 307.3751 188.85705 C 307.2006 189.0371 306.5137 189.65165 305.80745 189.7635 C 305.1654 189.8652 304.5367 189.6357 304.48585 189.31467 C 304.42484 188.92943 304.8336 188.60143 305.34725 188.52007 C 306.9524 188.26584 308.33072 186.31986 308.33072 186.31986 C 308.33072 186.31986 308.38137 185.7516 307.76225 184.33588 C 307.4476 183.59592 307.10194 182.97685 306.90932 183.00735 C 306.7167 183.03786 305.2946 184.4478 303.7104 186.08085 C 299.7111 190.33418 292.9649 195.944 292.4341 195.50154 C 292.1366 195.2854 292.38646 194.7851 292.97767 194.36239 C 294.20396 193.37836 294.71122 194.08782 283.9785 181.17648 L 275.8495 171.40683 L 273.1706 173.60817 C 271.718 174.82549 269.01878 176.89841 267.2553 178.23078 C 265.42764 179.57332 263.91083 180.8008 263.80276 180.94955 C 263.6845 181.0341 264.7836 182.57125 266.2342 184.25017 C 267.69498 185.9933 269.99103 188.85464 271.3234 190.6181 C 272.71997 192.3714 275.25948 195.52326 276.96372 197.5569 C 278.6578 199.52635 280.08488 201.47226 280.12555 201.72909 C 280.3086 202.8848 281.68743 202.86386 282.8832 201.68722 C 284.25127 200.35166 285.75153 199.85077 285.88373 200.68545 C 285.9651 201.1991 279.93473 205.51084 273.88722 209.29878 C 271.00873 211.07101 271.00873 211.07101 272.33412 212.37487 C 273.10838 213.10785 275.17054 214.49246 276.9689 215.45814 C 288.6312 221.77225 299.6317 229.31005 312.0326 239.45615 C 316.26876 242.93164 320.3562 246.29905 321.0459 246.9138 C 321.6714 247.5387 323.50726 249.1566 325.1098 250.5482 C 326.64815 251.94996 330.04268 255.09804 332.6089 257.5875 C 335.17515 260.07697 337.71087 262.37382 338.2957 262.7419 C 339.95548 263.66372 341.4624 261.84656 343.9027 259.35105 C 345.0536 258.1157 346.87535 253.74833 346.87535 253.74833 L 338.08276 241.45113 C 333.26375 234.71132 327.6565 226.3193 325.65418 222.8191 C 319.47807 212.08199 315.74677 204.3143 310.6139 191.43745 C 309.30447 188.15657 308.9207 187.70728 308.9207 187.70728 Z" fill="#FFFFFF"/>
        </g>
        <g id="Graphic_31">
          <path d="M 273.77022 148.30553 C 263.14477 140.64251 259.0675 137.3393 247.85285 127.20277 C 242.64282 122.5652 226.38343 107.17256 222.00488 102.7982 C 219.89506 100.69715 218.17746 98.9947 218.11326 99.00487 C 218.11326 99.00487 216.53543 99.84712 214.5927 100.8788 C 209.68695 103.56447 205.87847 104.03604 204.01212 102.22552 C 202.75094 100.91149 202.29133 100.91847 199.3887 101.70728 C 194.35394 103.16288 194.202 103.45021 196.88708 107.10555 C 198.14507 108.81498 200.4818 111.93314 202.132 114.04117 C 212.35107 127.03386 230.3526 153.01027 234.98656 161.49061 C 239.76928 170.07903 244.33965 179.81996 246.22813 185.51014 C 246.6985 186.81779 247.32082 187.8381 247.64185 187.78725 C 248.54073 187.64488 259.24096 182.06697 260.96056 180.87318 C 261.77808 180.21717 264.38958 178.4214 266.64635 176.87927 C 272.8153 172.61139 277.21 168.36125 281.66133 162.39092 C 283.76876 159.4903 285.56213 157.10013 285.55196 157.03592 C 285.53162 156.90751 280.24084 153.00671 273.77022 148.30553 Z" fill="#FFFFFF"/>
        </g>
        <g id="Graphic_30">
          <path d="M 181.41985 112.44671 L 181.41985 112.44671 C 181.91196 109.73612 180.30702 103.34286 178.51126 100.73136 C 175.55221 96.59288 174.961 97.0156 165.29225 111.18373 C 160.48998 118.2627 153.00302 129.58424 148.68389 136.38925 C 144.37492 143.25846 137.21219 154.13375 132.778 160.6279 C 121.29234 177.45318 120.6439 178.34568 106.53837 200.65377 C 99.47035 211.7115 92.25039 223.05657 90.39979 225.91652 C 68.3782 259.74574 68.05843 258.2873 72.79882 260.23028 C 74.4978 260.9197 76.4751 258.92403 78.78531 256.0571 C 79.183905 255.6649 81.93339 252.66258 84.91935 249.49118 C 90.66497 243.38167 125.90158 204.89256 159.42556 168.05683 L 179.43862 146.0636 L 178.85898 142.40387 C 177.97426 136.81797 178.9186 125.74288 181.41985 112.44671 Z" fill="black"/>
        </g>
        <g id="Graphic_29">
          <path d="M 177.6161 101.57244 C 177.30842 101.29209 177.15715 102.98614 176.59326 103.99688 C 175.71532 105.51808 175.70893 106.30888 176.6433 109.71498 C 177.79442 114.07399 177.30928 117.2442 174.86428 120.92226 L 173.54387 122.97425 L 175.59586 124.29466 C 176.70132 125.041 177.7661 125.53052 177.9282 125.3074 C 178.09032 125.08427 178.66319 121.6369 179.27294 117.59135 C 180.10842 112.06208 180.1511 109.42266 179.5854 106.68216 C 179.13158 104.64791 178.51564 102.83679 178.21814 102.62064 Z" fill="#FFFFFF"/>
        </g>
        <g id="Graphic_28">
          <path d="M 175.49618 99.56349 C 174.5331 99.71603 161.9025 118.03898 151.89996 133.83956 C 150.05952 136.76372 151.556 135.40782 154.90307 131.19198 C 156.3824 129.31227 158.34805 126.76318 159.34105 125.55284 C 160.28 124.41688 162.41794 121.70888 164.0492 119.54183 C 165.69064 117.439 168.6156 113.88236 170.50368 111.67464 C 173.89143 107.71562 176.346 102.85134 176.1185 100.5838 C 176.09118 99.99579 175.753 99.52282 175.49618 99.56349 Z" fill="#FFFFFF"/>
        </g>
        <g id="Graphic_27">
          <path d="M 174.71328 106.90814 C 174.71328 106.90814 173.37555 110.42348 168.71788 115.77484 C 168.5436 115.98026 163.99955 121.72164 158.56858 128.57111 C 141.7048 149.67066 127.43277 170.09644 107.04942 202.21823 C 99.9477 213.47876 94.92609 221.25064 94.65591 221.62251 C 94.4938 221.84564 92.86952 224.4723 90.97505 227.47082 C 89.08058 230.46934 87.28401 233.2549 86.95979 233.70116 C 86.6254 234.0832 83.18421 239.36701 79.27703 245.4486 C 75.423885 251.45583 71.86185 256.68376 71.711055 256.97807 C 71.139485 257.94858 71.57134 258.71347 72.72385 258.92583 C 74.49489 259.3035 71.346814 262.698 138.13477 189.46265 C 159.34361 166.29277 176.81317 146.94014 176.9988 146.45002 C 177.38025 145.534 176.24888 140.05298 175.44411 139.12738 C 174.33168 137.92143 173.6629 138.68552 173.99849 140.8043 C 174.21204 142.15263 173.90178 143.5181 173.24317 144.34639 C 171.86175 146.01314 170.86118 145.51345 171.96544 143.75896 C 172.3774 143.03555 172.75505 141.26451 172.73411 139.88568 C 172.77738 138.49669 173.25295 136.51269 173.95542 135.54582 C 175.13406 133.84536 175.12389 133.78116 173.62243 131.7812 C 171.87751 129.49074 172.0492 128.0814 174.0637 128.74958 C 176.08837 129.48197 176.75396 129.11328 176.49973 127.50814 C 176.23533 125.83879 174.93028 124.66334 173.58196 124.8769 C 173.13252 124.94808 171.34233 126.94285 169.6672 129.24847 C 166.9215 133.1058 162.79758 138.23447 156.10662 146.27075 C 154.88731 147.71438 152.96552 150.12489 151.87462 151.54818 C 148.92614 155.37181 146.51424 157.59668 146.01714 156.95143 C 145.77368 156.6609 146.17547 155.8733 146.91862 155.16324 C 147.72597 154.44302 150.39091 151.32246 152.92744 148.22225 C 155.4538 145.05782 159.1893 140.38556 161.34757 137.80597 C 173.80389 122.53817 176.42627 115.86957 175.96212 112.75794 C 175.49798 109.64631 174.71328 106.90814 174.71328 106.90814 Z" fill="#FFFFFF"/>
        </g>
        <g id="Graphic_26">
          <path d="M 175.72501 130.61211 C 174.95927 130.76095 174.9186 131.23306 175.53576 132.70465 C 176.11566 133.98454 176.11054 134.98025 175.55766 135.8835 C 174.79922 137.09195 174.8489 137.34755 175.8789 137.8768 C 177.06136 138.50905 177.00912 139.2198 177.00912 139.2198 C 177.00912 139.2198 177.15172 138.29254 177.2309 135.29299 C 177.29764 132.22954 177.34872 129.46871 177.34872 129.46871 C 177.34872 129.46871 176.746 130.41365 175.72501 130.61211 Z" fill="#FFFFFF"/>
        </g>
      </g>
    </g>
  </g>
</svg>
