<?xml version="1.0" encoding="UTF-8" standalone="no"?>
<!DOCTYPE svg PUBLIC "-//W3C//DTD SVG 1.1//EN" "http://www.w3.org/Graphics/SVG/1.1/DTD/svg11.dtd">
<svg xmlns="http://www.w3.org/2000/svg" xmlns:xl="http://www.w3.org/1999/xlink" version="1.1" xmlns:dc="http://purl.org/dc/elements/1.1/" viewBox="54 60.75 256.5 355.5" width="256.5" height="355.5">
  <defs>
    <clipPath id="artboard_clip_path">
      <path d="M 54 60.75 L 310.5 60.75 L 310.5 351 L 245.35714 416.25 L 54 416.25 Z"/>
    </clipPath>
  </defs>
  <g id="Lion_(4)" stroke-opacity="1" fill="none" fill-opacity="1" stroke-dasharray="none" stroke="none">
    <title>Lion (4)</title>
    <g id="Lion_(4)_Layer_2" clip-path="url(#artboard_clip_path)">
      <title>Layer 2</title>
      <g id="Group_3">
        <g id="Graphic_38">
          <path d="M 58.444454 98.11404 C 61.898715 95.09157 63.7122 96.12785 63.7122 101.05017 C 63.7122 102.43187 64.83484 103.98629 66.73468 105.54071 C 70.44801 108.47683 70.620726 110.11761 67.16646 110.11761 C 65.09391 110.11761 64.48941 110.54939 64.05763 112.44923 C 63.7122 113.74458 62.07143 116.07621 60.43065 117.63063 C 57.66724 120.22132 57.49453 120.73946 57.92631 124.4528 C 58.27174 128.07977 61.121505 132.57031 63.02135 132.57031 C 63.366775 132.57031 63.7122 131.0159 63.7122 129.11605 C 63.7122 125.92086 63.884915 125.66179 66.130185 125.66179 C 67.42553 125.66179 68.97995 126.09357 69.49809 126.61171 C 70.10259 127.2162 71.138865 127.30256 72.08879 126.95713 C 74.50677 125.8345 80.29266 126.439 81.93343 127.90706 C 83.48785 129.28876 85.30134 133.43388 87.11483 139.39248 C 87.71932 141.5514 90.22366 145.95558 92.728 149.32348 C 98.42754 157.18193 99.55017 159.51356 101.19095 166.50844 C 102.05451 170.30812 103.52257 173.58967 105.59513 176.18037 C 107.2359 178.42564 108.61761 180.58455 108.61761 181.01634 C 108.61761 182.4844 110.25838 181.79355 110.77652 180.06641 C 111.8128 176.78487 113.1945 178.16657 112.67637 181.96626 C 111.98551 187.40672 115.69885 193.53804 116.64877 188.443 C 116.82148 187.40672 117.08055 188.35664 117.16691 190.68827 C 117.25326 194.4016 120.53481 201.65555 122.08923 201.65555 C 122.3483 201.65555 122.52101 200.3602 122.43466 198.80579 C 122.17559 194.4016 122.3483 193.0199 123.29822 193.0199 C 123.81636 193.0199 124.16179 193.71075 124.16179 194.48796 C 124.16179 195.35152 124.67993 197.51044 125.37078 199.41028 L 126.49342 202.69183 L 128.22055 200.27385 C 129.17047 198.89214 130.46582 195.69695 131.07031 193.10625 L 132.19295 188.443 L 133.31558 191.29277 C 134.00644 192.84718 134.52457 194.66067 134.52457 195.26517 C 134.52457 195.95602 134.95636 196.47416 135.38814 196.47416 C 135.90628 196.47416 136.2517 195.95602 136.2517 195.26517 C 136.2517 194.66067 136.8562 193.6244 137.54705 193.0199 C 138.58333 192.15633 138.8424 192.4154 139.27419 194.48796 C 140.74225 201.31013 145.49186 211.15477 147.30534 211.15477 C 147.73713 211.15477 147.90984 208.99586 147.65077 206.40516 C 147.13263 199.92842 148.42798 197.16501 149.29155 202.9509 C 149.63697 205.28253 150.15511 207.95958 150.50054 208.7368 C 150.93232 209.85943 150.32782 210.723 148.16891 212.01834 C 144.19651 214.43632 140.2241 215.04082 135.04271 213.91818 C 132.62473 213.40004 127.61605 212.2774 123.98908 211.58656 C 114.74892 209.6867 111.8128 207.5278 110.94924 202.08734 C 110.51745 199.66935 110.25838 196.04238 110.34474 193.96982 C 110.4311 188.78843 108.53125 186.11137 104.81792 186.11137 C 101.2773 186.11137 100.24102 188.09757 102.74536 189.73835 C 104.99063 191.29277 104.29978 192.67447 100.84552 193.27897 C 98.60025 193.7971 98.25482 194.2289 98.25482 196.81959 C 98.25482 198.46036 97.9094 200.10114 97.39126 200.3602 C 96.44134 200.9647 92.12351 198.89214 90.56909 196.9923 C 89.87824 196.2151 88.23746 195.6106 86.85576 195.6106 C 85.47405 195.6106 83.31514 194.83339 82.10615 193.88346 C 80.89716 192.93354 78.99731 192.15633 77.96103 192.15633 C 75.37034 192.15633 72.34786 195.6106 71.74336 199.41028 C 71.22522 202.86454 72.52057 203.64175 74.07499 200.79199 C 74.93855 199.15121 75.19762 199.15121 76.92475 200.3602 C 77.96103 201.05106 79.25638 202.9509 79.77452 204.50532 C 80.29266 205.97338 80.98351 207.18237 81.32894 207.00966 C 82.27886 206.66423 84.61049 209.34129 84.09235 210.20485 C 83.83328 210.55028 82.45157 211.41384 80.98351 212.01834 C 79.60181 212.62284 78.39282 213.4864 78.39282 213.91818 C 78.39282 214.43632 77.44289 215.90438 76.2339 217.37245 C 74.93855 218.8405 74.07499 220.99942 74.07499 222.55384 C 74.07499 226.0081 77.09747 230.15322 79.68816 230.15322 C 81.415295 230.15322 81.67436 229.72143 81.50165 227.3898 C 81.415295 224.6264 81.50165 224.6264 84.69684 224.88547 C 86.42397 224.97182 87.89204 224.71275 87.89204 224.28097 C 87.89204 223.8492 88.66925 223.2447 89.61917 222.98562 C 92.38258 222.29477 93.3325 224.45368 92.81436 230.41229 C 92.03715 237.83895 94.28242 240.42965 101.10459 239.82515 C 102.91808 239.65244 103.09079 237.40717 101.2773 236.7163 C 100.58645 236.45724 99.98195 235.59368 99.98195 234.81647 C 99.98195 233.9529 100.24102 233.60748 100.58645 233.86655 C 100.84552 234.21197 102.05451 232.91663 103.2635 230.93042 C 105.76784 226.7853 108.4449 225.48996 114.23078 225.74903 C 122.60737 226.18081 131.67481 229.89415 137.37434 235.24825 C 140.0514 237.83895 140.74225 238.09802 141.4331 237.06174 C 142.0376 236.02546 142.38302 236.3709 142.8148 238.5298 C 143.50566 241.8977 143.93744 241.98406 146.09635 239.56608 L 147.65077 237.7526 L 149.03248 240.60236 C 149.80968 242.24313 151.9686 244.3157 153.69573 245.2656 C 157.06364 247.0791 158.79077 246.64732 156.97728 244.40205 C 156.02736 243.2794 156.11371 242.41585 157.49542 239.47972 L 159.1362 235.85275 L 159.74069 239.65244 C 160.34518 243.1067 163.19495 247.42453 164.92208 247.42453 C 165.35386 247.42453 165.872 246.73367 166.13107 245.8701 C 166.4765 245.0929 167.16735 243.19305 167.8582 241.63864 C 168.54906 240.17058 169.0672 238.5298 169.0672 238.01166 C 169.0672 237.49352 169.49898 237.06174 169.93076 237.06174 C 170.4489 237.06174 170.79433 238.44344 170.79433 240.08422 C 170.79433 242.41585 171.0534 242.93399 172.17603 242.5022 C 174.07588 241.81135 175.28487 238.3571 175.97572 232.31213 L 176.49386 227.13074 L 177.70285 231.1895 C 178.3937 233.52112 179.17091 235.3346 179.42998 235.3346 C 179.7754 235.3346 180.89804 234.3847 181.93432 233.26205 L 183.83417 231.1895 L 188.23835 232.83027 C 190.7427 233.69383 193.07432 234.81647 193.59246 235.3346 C 194.02424 235.7664 194.97416 236.19817 195.66501 236.19817 C 197.21943 236.19817 206.805 242.93399 207.4095 244.40205 C 207.92764 245.78375 200.50098 241.8977 197.73757 239.39337 C 194.97416 236.80267 193.5061 238.5298 195.31959 242.07042 C 196.0968 243.53848 196.7013 244.9202 196.7013 245.0929 C 196.7013 245.2656 194.62874 245.6974 192.21075 245.95646 C 188.9292 246.3019 184.87045 247.8563 178.13463 251.39693 C 169.93076 255.71476 167.94456 256.4056 163.71309 256.4056 C 157.75449 256.49196 154.99108 254.59212 156.80457 251.74235 C 157.3227 250.79243 157.84084 249.8425 157.84084 249.49708 C 157.84084 248.71987 154.04116 250.10158 152.48674 251.56964 C 150.5869 253.2104 150.41418 258.47816 152.31402 261.06886 C 153.86844 263.31413 153.00488 263.5732 150.7596 261.50064 C 149.03248 259.94623 148.7734 260.9825 150.15511 264.1777 C 150.67325 265.30033 152.14131 266.50932 153.3503 266.85475 L 155.50922 267.3729 L 153.60937 268.66824 C 151.10503 270.48173 151.19139 273.3315 153.78209 273.3315 C 155.50922 273.3315 155.68193 273.76327 155.76829 278.34017 C 155.76829 281.53536 156.45914 284.6442 157.66813 287.0622 C 159.1362 290.08466 159.3089 291.12094 158.5317 291.63908 C 155.59557 293.45257 145.49186 291.29365 136.33806 286.97583 C 128.47962 283.2625 128.22055 282.8307 128.65233 276.6994 C 128.9114 273.07242 128.65233 271.25893 127.87512 270.56808 C 127.27062 270.04994 126.75249 268.58188 126.75249 267.20018 C 126.75249 264.43677 124.939 262.3642 122.00287 261.587 C 119.7576 260.9825 116.04427 262.62328 116.82148 263.91863 C 117.16691 264.3504 117.68505 264.52312 118.03047 264.3504 C 118.3759 264.09134 119.15311 264.26405 119.67125 264.60948 C 121.22567 265.5594 120.01667 267.9774 117.85776 268.3228 C 116.47606 268.49552 115.87156 269.3591 115.52613 271.518 C 115.008 275.3177 113.799 275.66312 110.51745 272.8997 C 108.61761 271.3453 106.89048 270.65444 104.55885 270.7408 C 102.74536 270.7408 99.98195 270.56808 98.42754 270.22266 C 94.7142 269.5318 91.69172 271.08622 91.08723 274.19506 C 90.13731 278.5129 92.29622 282.4853 93.3325 278.5129 C 94.02335 275.9222 95.40506 276.44033 97.82304 280.24 C 99.03203 282.13986 100.41374 283.69428 100.84552 283.69428 C 101.36366 283.69428 101.70908 284.0397 101.70908 284.55784 C 101.70908 284.98963 101.10459 285.4214 100.41374 285.4214 C 99.63653 285.4214 97.3049 287.2349 95.23234 289.48017 C 92.12351 292.7617 91.3463 294.14342 91.3463 296.64776 C 91.3463 299.84295 93.50521 302.69272 96.78676 303.9017 C 98.16847 304.3335 98.34118 304.07442 97.82304 301.9155 C 97.21854 298.9794 99.20474 297.25226 102.14087 298.3749 C 103.09079 298.72032 104.55885 298.72032 105.33606 298.28854 C 107.06319 297.3386 108.09947 298.63396 107.40862 300.79288 C 107.06319 301.65644 107.49497 303.1245 108.18583 304.07442 C 108.87668 304.938 109.48117 306.57876 109.48117 307.61504 C 109.48117 310.03303 113.45358 314.78264 115.43978 314.78264 C 116.90784 314.78264 119.84396 312.2783 119.84396 311.0693 C 119.84396 310.72388 119.23946 310.4648 118.54861 310.4648 C 117.85776 310.4648 116.90784 309.6876 116.3897 308.73768 C 115.61249 307.2696 115.7852 306.83783 117.51233 306.23334 C 118.9804 305.62884 119.7576 304.5062 120.18939 302.26094 L 120.79388 299.1521 L 125.62985 299.41117 C 128.22055 299.5839 130.55217 299.9293 130.81124 300.27474 C 130.98396 300.70652 131.67481 300.9656 132.36566 300.9656 C 135.99264 300.9656 143.50566 304.938 148.08255 309.16946 C 150.84596 311.76016 153.60937 313.91907 154.12751 313.91907 C 154.732 313.91907 155.25015 314.52357 155.25015 315.21442 C 155.25015 316.8552 157.75449 320.8276 158.79077 320.8276 C 159.22255 320.8276 159.56798 319.7913 159.56798 318.4096 C 159.56798 316.59612 159.74069 316.33706 160.43154 317.37333 C 160.86332 318.0642 161.2951 320.13674 161.2951 321.86387 C 161.2951 323.67736 161.64053 325.14542 162.07232 325.14542 C 163.97216 325.14542 165.61293 324.0228 165.61293 322.6411 C 165.61293 319.4459 166.82193 320.2231 169.15355 324.9727 C 170.53526 327.64976 171.6579 330.9313 171.6579 332.22666 C 171.6579 335.59457 172.95324 335.24914 174.4213 331.5358 C 175.28487 329.46325 175.45758 327.218 175.11215 325.05907 C 174.33495 320.74124 174.93944 320.30946 177.87556 323.15922 C 180.46626 325.5772 182.3661 325.31814 180.03448 322.8138 C 177.96192 320.3958 177.44378 317.20062 178.91184 315.21442 C 180.29355 313.4873 180.29355 313.4873 182.02068 315.6462 C 182.9706 316.8552 184.1796 319.4459 184.69773 321.4321 C 185.21587 323.50465 185.99308 325.14542 186.42486 325.14542 C 187.5475 325.14542 188.9292 321.25938 189.01556 317.97783 L 189.10192 315.21442 L 190.22455 317.8051 C 192.1244 321.86387 191.86533 327.3907 189.70641 329.5496 C 187.37479 331.88123 188.152 332.5721 191.86533 331.44945 C 194.54238 330.67224 194.8878 330.7586 196.0968 332.9175 C 198.083 336.19906 198.77385 341.81224 197.65121 345.0938 C 196.18315 349.4116 197.73757 349.92975 201.36455 346.38914 C 203.95524 343.7121 204.47338 342.6758 204.47338 339.39425 C 204.47338 337.3217 204.90517 335.3355 205.33695 335.07643 C 205.85509 334.81736 206.20051 335.42185 206.20051 336.5445 C 206.20051 337.66712 207.15044 339.22154 208.35943 340.17146 C 211.55462 342.58945 211.3819 349.15255 207.92764 357.3564 C 204.0416 366.68293 194.19695 376.7003 191.60626 374.1096 C 191.08812 373.59145 190.65633 372.7279 190.65633 372.20974 C 190.65633 370.56897 186.7703 367.46013 184.78409 367.46013 C 183.83417 367.46013 181.93432 366.42386 180.72533 365.21486 C 176.83929 361.41518 171.6579 363.48773 170.36254 369.44633 C 169.58534 372.64153 170.36254 373.3324 172.4351 371.43254 C 174.24859 369.79176 176.4075 370.3099 175.6303 372.2961 C 175.37122 372.98695 175.45758 373.5051 175.88936 373.5051 C 176.32115 373.5051 176.83929 374.54137 177.012 375.8367 C 177.27107 377.21842 177.7892 379.0319 178.13463 379.8955 C 178.91184 381.6226 178.13463 381.6226 172.78053 379.98183 C 171.48518 379.55005 170.36254 379.98183 169.0672 381.2772 C 167.59913 382.74524 166.56286 383.09067 164.23123 382.57253 C 161.64053 382.14075 160.94968 382.3998 158.70441 384.90416 C 155.59557 388.3584 155.42286 390.431 158.27263 393.7989 L 160.43154 396.3896 L 162.24503 393.9716 C 164.05852 391.5536 165.61293 390.9491 165.61293 392.5899 C 165.61293 393.1944 166.21743 394.05795 167.081 394.66245 C 168.37634 395.61237 168.37634 395.87144 167.081 397.7713 C 164.14487 401.83004 166.21743 409.4294 171.0534 412.7973 C 174.59402 415.30166 175.45758 413.6609 172.52146 410.0339 C 169.2399 405.80244 171.48518 401.9164 174.93944 405.8888 C 176.49386 407.61593 177.09836 407.78864 180.03448 407.0978 C 182.88424 406.40694 183.48874 406.57965 184.78409 408.3068 C 185.5613 409.34306 186.943 410.98384 187.80657 411.93376 C 189.36099 413.6609 189.36099 413.57453 190.1382 410.37934 C 191.00176 407.0978 191.08812 407.01144 194.2833 407.52957 C 196.35587 407.875 197.82393 407.7023 198.34207 407.01144 C 203.17803 401.05283 203.60982 400.27562 203.60982 396.82136 C 203.60982 393.45346 207.58222 384.55873 209.48206 383.69517 C 209.8275 383.52245 211.03648 382.2271 212.07276 380.8454 C 218.98128 371.77796 231.24391 360.5516 234.18004 360.5516 C 236.94345 360.5516 239.016 355.9747 240.31135 346.99363 C 240.48407 345.95735 240.8295 344.74836 241.08856 344.23022 C 241.434 343.79844 240.91585 342.6758 240.05228 341.81224 C 238.49786 340.34418 236.4253 337.06263 236.4253 336.02635 C 236.4253 335.76728 237.0298 335.76728 237.72066 336.02635 C 239.4478 336.7172 239.4478 333.522 237.72066 328.68604 C 236.51166 325.23178 236.8571 324.1955 238.75693 326.09535 C 239.4478 326.7862 239.87957 326.52713 240.31135 325.14542 C 240.65678 324.10914 240.48407 322.8138 239.96593 322.29566 C 237.72066 320.0504 239.27507 319.87767 241.6067 322.12294 C 243.85197 324.28186 244.45647 324.45457 245.14732 323.4183 C 246.52902 321.25938 245.49275 313.8327 243.07476 308.39225 C 241.52034 305.1107 241.0022 302.9518 241.52034 302.08822 C 242.12484 300.9656 242.55662 301.22466 243.85197 303.46993 C 246.01088 307.18326 246.7881 306.83783 246.7881 302.17458 C 246.7881 299.1521 246.01088 296.64776 243.67926 292.32993 L 240.57042 286.54404 L 242.03848 283.34885 C 243.7656 279.72188 246.3563 278.2538 248.86065 279.54916 C 251.79677 281.10358 265.70018 279.8946 270.10436 277.73568 C 279.7763 272.8997 287.80746 259.6008 288.75738 246.56096 C 289.18916 241.1205 288.9301 238.78887 287.03025 231.9667 C 285.7349 227.56252 284.18048 223.07198 283.48963 222.0357 C 282.88513 221.08578 281.07164 217.11338 279.43087 213.3137 C 277.87645 209.514 274.76762 203.12361 272.52235 199.06486 C 262.93677 182.05262 258.01445 167.372 258.01445 156.232 C 258.01445 144.22845 260.95057 137.31992 267.60002 133.43388 C 271.91785 130.84318 281.07164 128.07977 281.7625 129.02969 C 281.9352 129.46147 283.9214 130.23868 286.08032 130.84318 C 291.43443 132.31124 296.8749 139.13341 296.8749 144.40116 C 296.8749 149.58255 291.17536 152.95046 288.23924 149.40984 C 286.77118 147.6827 285.64854 148.54627 285.64854 151.39604 C 285.64854 153.29588 284.9577 154.0731 282.10792 155.4548 C 278.30824 157.26828 276.14932 159.68627 276.14932 162.10425 C 276.14932 163.74503 277.44467 164.1768 278.30824 162.7951 C 278.5673 162.27696 279.25816 161.93154 279.7763 161.93154 C 280.29444 161.93154 279.949 162.7951 278.9991 163.83138 C 275.89025 167.19929 274.4222 172.03526 274.4222 179.1165 C 274.4222 186.62951 275.63118 191.72455 277.44467 192.50176 C 278.3946 192.84718 278.74002 192.2427 278.82637 190.17013 C 278.91273 184.55696 280.03537 184.64331 280.12172 190.25649 C 280.12172 194.14253 280.72622 197.33773 281.9352 200.01478 C 283.83505 204.07354 292.298 213.74547 294.1115 213.74547 C 295.6659 213.74547 295.40683 210.8957 293.42063 205.97338 C 291.6935 201.65555 291.26172 196.12873 292.21164 192.32905 C 292.64342 190.86098 293.16156 190.51556 294.37055 190.86098 C 295.75226 191.29277 296.01133 190.94734 296.01133 188.96114 C 296.0977 187.6658 296.61582 185.59323 297.30668 184.38424 C 297.99753 183.17525 298.51567 181.1027 298.60202 179.72099 L 298.60202 177.21665 L 300.76094 179.72099 C 301.88357 181.01634 303.09257 181.8799 303.438 181.53448 C 303.78342 181.2754 303.95613 177.9075 303.86977 174.10781 C 303.78342 170.04905 304.0425 167.02658 304.647 166.68115 C 305.07877 166.42208 305.51055 166.85386 305.51055 167.71743 C 305.51055 169.09913 305.5969 169.09913 307.06497 167.71743 C 308.9648 165.81758 308.87845 157.09557 306.89225 153.55495 C 304.3879 148.97806 302.0563 142.67403 302.0563 140.60147 C 302.0563 134.55651 294.8887 126.26628 287.03025 123.2438 C 281.9352 121.34396 273.2132 120.6531 272.26328 122.12117 C 272.0042 122.55295 269.8453 123.58923 267.4273 124.36644 C 261.4687 126.35264 257.06452 131.10225 253.5239 139.30612 C 250.84685 145.6965 250.67414 146.38736 250.67414 156.75015 C 250.7605 166.50844 251.01956 168.40828 253.43755 176.18037 C 254.99197 180.92998 258.2735 188.70207 260.6915 193.45168 C 272.6087 216.50888 274.24948 220.30857 275.63118 227.47616 C 276.4084 231.44856 277.0129 236.45724 277.0129 238.7025 C 277.0129 244.57476 274.76762 252.51956 271.91785 256.49196 C 267.77274 262.3642 258.35987 265.7321 254.38747 262.70964 C 253.61026 262.10514 252.1422 259.85987 251.10592 257.7873 C 250.06964 255.6284 248.86065 253.2104 248.42887 252.4332 C 247.99709 251.56964 247.91073 250.36065 248.1698 249.75615 C 248.947 247.6836 244.3701 233.00298 240.65678 225.74903 C 236.4253 217.2861 231.33027 208.9095 226.66702 202.60548 C 222.86733 197.5968 222.60826 197.25137 218.03136 191.72455 C 212.7636 185.42052 211.64098 183.17525 209.74113 175.3168 C 207.66857 166.33572 207.49586 163.65867 209.05028 163.65867 C 211.03648 163.65867 212.93632 160.89526 213.9726 156.49108 C 214.66346 154.0731 215.52702 152.43232 216.30423 152.43232 C 216.90873 152.43232 217.7723 151.56875 218.20407 150.61883 C 218.80857 148.80534 218.89493 148.80534 220.79477 151.4824 C 221.83105 152.95046 223.04004 154.15945 223.38547 154.15945 C 223.81725 154.15945 224.68082 152.34596 225.37167 150.01433 L 226.75337 145.95558 L 228.3078 151.30968 C 229.2577 154.33216 230.20764 156.75015 230.4667 156.75015 C 230.81213 156.75015 231.93477 154.93666 233.0574 152.60503 C 234.78453 149.23713 235.12996 147.25092 235.0436 141.11961 C 235.0436 134.12473 235.12996 133.69295 236.59802 134.55651 C 237.46159 135.161 238.58422 136.71543 239.10236 138.18349 C 239.96593 140.51511 240.13864 140.60147 240.74313 139.04705 C 242.12484 135.50643 240.91585 128.85698 237.807 123.07109 C 236.07988 119.96225 234.69818 116.50799 234.69818 115.299 C 234.69818 113.39916 235.0436 113.65823 237.72066 117.45791 C 239.4478 119.8759 241.17492 121.8621 241.6067 122.03481 C 242.72934 122.4666 243.5929 116.50799 242.9884 112.19016 C 242.72934 110.03125 241.52034 107.00877 240.225 105.368 C 238.15244 102.60459 238.15244 102.43187 239.6205 101.65466 C 240.48407 101.13653 241.34763 100.7911 241.6067 100.7911 C 241.86577 100.87746 242.90205 100.61839 244.02468 100.27296 C 246.52902 99.4094 246.44267 98.02769 243.85197 98.02769 C 240.31135 98.02769 237.89337 95.43699 230.72577 84.21064 C 229.34407 82.05173 228.99864 80.3246 229.2577 77.99297 C 229.60314 75.48863 229.17136 74.106925 227.01244 70.99809 C 223.98996 66.50755 220.19028 64.78042 216.13152 65.98941 C 214.40439 66.42119 212.7636 66.334835 211.3819 65.64398 C 210.17291 65.03949 203.95524 64.348634 197.56486 64.00321 C 191.17447 63.65778 184.3523 63.226 182.45246 63.053286 C 180.55262 62.88057 177.87556 63.13964 176.4075 63.65778 C 172.95324 64.86677 170.79433 66.852974 170.79433 68.75282 C 170.79433 69.61638 169.93076 70.91173 168.89448 71.602585 C 166.21743 73.24336 153.26395 77.30212 150.67325 77.30212 C 145.31914 77.30212 145.4055 84.46971 150.84596 91.03281 C 152.5731 93.19172 154.5593 96.2142 155.07743 97.59591 C 156.37278 100.61839 159.1362 102.7773 160.08611 101.3956 C 160.34518 100.87746 160.17247 100.01389 159.65433 99.49575 C 157.75449 97.59591 158.61805 96.12785 160.60425 98.02769 C 163.36766 100.53203 163.97216 100.1866 163.36766 96.30056 C 162.67681 92.2418 163.54038 91.98273 166.21743 95.17792 L 168.11727 97.59591 L 168.20363 95.17792 C 168.20363 92.8463 168.28999 92.8463 170.27619 94.14164 C 171.74425 95.09157 172.4351 95.26428 172.69417 94.48707 C 173.12595 93.19172 177.27107 99.49575 178.04828 102.60459 L 178.65277 105.02257 L 175.37122 102.86366 C 171.6579 100.35932 171.57154 100.27296 167.081 101.56831 C 164.74937 102.1728 161.8996 104.33172 157.84084 108.56319 C 152.48674 114.00365 151.62317 114.60815 149.46426 114.00365 C 148.16891 113.74458 146.7872 112.96737 146.44178 112.44923 C 145.31914 110.63575 145.66457 107.61327 147.13263 106.83606 C 150.15511 105.10893 146.26907 100.61839 141.77853 100.61839 C 139.79232 100.61839 136.51078 104.67714 135.90628 107.78598 C 135.64721 109.42675 135.90628 112.53559 136.68349 115.03993 C 138.49698 121.08489 142.72845 124.36644 148.85976 124.36644 C 152.48674 124.28008 153.78209 123.76194 156.80457 121.34396 C 158.79077 119.78954 160.43154 117.97605 160.43154 117.37156 C 160.43154 116.76706 162.07232 114.52179 164.14487 112.19016 C 167.59913 108.39048 168.03092 108.1314 170.88068 108.7359 C 172.60781 108.99497 174.93944 110.37668 176.2348 111.67203 C 178.221 113.74458 178.3937 114.26272 177.44378 116.07621 C 175.88936 119.18505 174.33495 119.2714 173.12595 116.24892 C 172.60781 114.78086 171.8306 113.57187 171.48518 113.57187 C 170.79433 113.57187 170.4489 116.07621 170.62161 118.92598 C 170.70797 119.78954 170.53526 120.4804 170.18983 120.4804 C 169.15355 120.4804 167.42642 117.45791 167.34006 115.47171 C 167.34006 114.43543 166.99464 113.57187 166.4765 113.57187 C 165.18115 113.57187 165.44022 124.19373 166.90828 127.64799 C 167.59913 129.28876 168.72177 130.84318 169.49898 131.1886 C 170.96704 131.70675 174.68037 130.49775 175.54394 129.11605 C 177.09836 126.52535 185.47494 125.05729 185.47494 127.38892 C 185.47494 130.23868 180.46626 134.21109 178.48006 133.0021 C 178.04828 132.65667 176.4075 133.0021 174.85308 133.69295 C 171.2261 135.42008 167.51278 135.67915 158.96348 134.81558 C 151.9686 134.12473 151.79589 134.21109 147.04627 136.88814 C 144.45558 138.3562 142.29666 140.16969 142.29666 140.9469 C 142.29666 141.89682 142.72845 142.06953 143.85108 141.63775 C 146.95992 140.25604 149.80968 140.3424 153.78209 141.89682 L 158.01356 143.5376 L 155.50922 144.48752 C 154.21387 145.09201 150.7596 146.04193 147.90984 146.64643 C 143.24659 147.76906 141.34674 148.54627 135.21543 152.0869 C 133.40194 153.12317 125.62985 152.77774 123.38458 151.56875 C 120.79388 150.18705 111.2083 139.91062 108.09947 135.161 C 104.90428 130.32504 101.70908 123.15745 101.70908 120.91218 C 101.70908 120.13497 102.57265 119.61683 103.868 119.61683 C 105.16335 119.61683 106.54505 118.83962 107.40862 117.45791 C 108.4449 115.9035 109.56753 115.299 111.64009 115.299 C 113.799 115.299 115.09435 114.60815 116.73512 112.62195 C 119.23946 109.68582 119.41218 108.21776 118.03047 104.159 C 116.73512 100.61839 115.69885 100.7911 115.35342 104.67714 C 115.18071 106.40428 114.57621 107.95869 113.97172 108.21776 C 113.36722 108.39048 111.38102 107.00877 109.65389 105.19528 C 105.50877 100.87746 103.95436 100.27296 102.05451 102.43187 C 101.2773 103.29544 99.46381 104.07265 97.99575 104.07265 L 95.49141 104.07265 L 96.09591 98.54583 C 96.35498 95.35064 96.26862 92.8463 95.83684 92.50087 C 95.40506 92.2418 95.23234 90.08289 95.49141 87.6649 C 96.09591 81.01545 92.29622 76.611265 86.94211 77.7339 C 84.43777 78.3384 83.31514 80.75638 85.64677 80.75638 C 87.89204 80.75638 87.89204 83.26072 85.64677 85.24692 C 84.52413 86.36956 82.71064 87.92397 81.76072 88.78754 C 80.46537 89.99653 80.11995 91.03281 80.46537 92.50087 C 81.415295 96.12785 80.11995 96.47327 76.92475 93.70986 C 74.76584 91.72366 73.29778 91.11917 71.91607 91.46459 C 70.879795 91.72366 68.72088 91.37824 67.16646 90.60103 C 61.98507 88.01033 55.42197 92.06909 56.112825 97.50955 L 56.371895 99.92753 L 58.44445 98.11405 Z M 205.59602 271.43165 L 205.59602 271.43165 C 204.8188 272.727 202.74625 275.40405 201.01912 277.39025 C 195.4923 283.95335 194.2833 285.93955 191.86533 291.9845 C 190.56998 295.26606 189.36099 298.11582 189.18827 298.28854 C 188.7565 298.89303 185.30223 295.43877 184.09324 293.0208 C 180.2072 285.50777 185.30223 277.04482 197.13308 271.77707 C 198.60114 271.08622 200.2419 270.309 200.8464 270.04994 C 201.53726 269.70452 203.17803 269.3591 204.55974 269.27273 L 207.06408 269.10002 L 205.59602 271.43165 Z M 187.97928 306.4924 L 187.89292 309.16946 L 186.7703 306.147 C 185.21587 302.08822 185.21587 301.39737 186.7703 302.69272 C 187.46114 303.2972 188.06564 305.02435 187.97928 306.4924 L 187.97928 306.4924 Z" fill="black"/>
        </g>
        <g id="Graphic_37">
          <path d="M 195.23323 66.42119 C 203.2644 66.593905 210.08656 67.02569 210.34563 67.28476 C 210.6047 67.54383 209.65478 67.8029 208.35943 67.8029 C 206.45958 67.8029 206.11416 68.061966 206.89137 68.839175 C 207.66857 69.61638 209.30935 69.53003 214.05896 68.75282 C 221.22655 67.45747 222.86733 67.97561 225.8898 72.55251 C 228.04872 75.92041 228.3078 77.99297 226.75337 80.15188 C 225.45802 81.87901 222.00376 82.74258 221.3129 81.53359 C 220.44934 80.23824 219.41307 80.67002 218.89493 82.56987 C 218.5495 83.86522 217.85865 84.297 216.21787 84.03793 C 215.00888 83.86522 214.05896 84.12428 214.05896 84.64242 C 214.05896 86.19684 217.1678 86.71498 219.3267 85.59235 C 220.44934 84.98785 222.95368 84.21064 224.85353 83.95157 C 227.96236 83.43343 228.39415 83.60615 230.20764 86.36956 C 231.24391 88.01033 232.10748 89.73746 232.10748 90.2556 C 232.10748 90.77374 234.00732 93.10537 236.33895 95.43699 C 240.05228 99.15032 240.3977 99.75482 239.016 100.1866 C 238.06608 100.44567 236.59802 100.27296 235.6481 99.84118 C 231.76205 97.76862 232.02112 99.58211 236.2526 103.81358 C 240.91585 108.56319 243.07476 113.57187 241.7794 116.93977 C 241.17492 118.75326 241.0022 118.6669 238.32515 115.38536 C 236.77073 113.48551 235.56174 111.49931 235.56174 110.98117 C 235.56174 110.37668 235.0436 110.11761 234.52546 110.37668 C 233.8346 110.54939 233.40283 112.44923 233.40283 115.38536 C 233.40283 119.18505 233.92097 120.73946 236.2526 124.10737 C 237.97972 126.69807 239.18872 129.63419 239.53414 132.31124 C 240.05228 136.19729 239.96593 136.37 238.75693 134.64287 C 237.97972 133.69295 235.90717 132.22488 234.00732 131.36132 C 230.81213 129.89326 229.34407 127.8207 227.44423 122.20752 C 227.2715 121.51667 227.01244 122.12117 227.01244 123.58923 C 226.92609 126.69807 228.22143 129.63419 230.8985 132.31124 C 233.23011 134.55651 234.18004 139.91062 233.40283 145.95558 C 232.71198 151.56875 230.72577 153.90038 229.8622 150.10069 C 229.2577 147.51 225.54438 142.06953 224.42175 142.06953 C 223.98996 142.06953 223.9036 143.79666 224.07632 145.86922 C 224.68082 150.61883 223.38547 151.4824 220.62206 148.11449 C 217.945 145.00565 217.42687 144.9193 217.42687 147.6827 C 217.42687 148.8917 216.73601 150.18705 215.7861 150.70519 C 214.83617 151.13697 213.54082 153.38224 212.93632 155.54115 C 212.33183 157.87278 210.95012 160.11805 209.91385 160.8089 C 207.92764 162.10425 207.92764 162.10425 208.44578 158.30456 C 209.13664 153.12317 207.75493 152.43232 204.99152 156.49108 C 203.17803 159.08177 202.74625 160.72255 202.8326 164.52224 L 202.91896 169.27185 L 203.60982 164.86766 C 204.30067 160.37712 205.94144 156.232 206.805 157.09557 C 207.06408 157.35464 206.97772 158.99542 206.6323 160.8089 C 206.20051 162.6224 205.94144 164.34952 206.0278 164.69495 C 206.11416 165.04037 206.6323 168.14921 207.15044 171.60347 C 207.66857 175.05773 208.44578 178.25293 208.87757 178.77107 C 209.30935 179.20285 209.65478 180.23913 209.65478 181.1027 C 209.65478 184.29789 212.50454 188.443 221.83105 198.89214 C 223.21275 200.44656 224.3354 201.91462 224.3354 202.08734 C 224.3354 202.26005 226.4943 205.7143 229.085 209.60036 C 236.07988 220.0495 236.8571 221.34485 240.05228 227.9943 C 243.07476 234.12562 247.30623 249.238 246.44267 250.70607 C 246.01088 251.39693 249.29243 258.65088 251.9695 262.70964 C 254.9056 267.28653 265.95925 265.3867 271.8315 259.25537 C 276.32203 254.59212 277.9628 249.15166 278.04917 238.18437 C 278.22188 224.71275 276.5811 219.79043 263.62762 195.6106 C 258.79165 186.62951 253.9557 174.45324 252.7467 168.49464 C 249.20608 150.61883 255.85553 130.67047 266.73646 126.61171 C 268.37723 126.00721 270.88157 125.05729 272.26328 124.4528 C 275.3721 123.15745 287.7211 124.19373 289.44823 125.92086 C 290.05273 126.439 292.1253 128.4252 294.1115 130.15233 C 298.2566 133.86566 299.0338 135.24736 299.811 139.99697 C 300.0701 141.98318 301.6245 146.38736 303.26528 149.92798 C 306.28776 156.75015 308.0149 163.65867 306.54683 163.65867 C 306.11505 163.65867 305.4242 162.70875 305.16512 161.49976 C 304.2152 157.61371 302.91985 159.25449 302.91985 164.26317 C 302.91985 167.02658 302.6608 171.3444 302.4017 173.84874 C 301.88357 177.47572 301.6245 178.16657 300.6746 177.38936 C 299.98373 176.87122 299.4656 175.1441 299.4656 173.50332 C 299.4656 170.13541 298.0839 169.01278 296.2704 170.82626 C 295.14776 171.9489 295.0614 172.81246 295.92497 176.26673 C 297.0476 180.75727 296.18404 184.38424 293.33428 187.234 C 289.79366 190.60191 289.18916 201.31013 292.1253 208.305 C 293.76606 212.19105 292.72978 211.84563 288.67102 207.18237 C 284.3532 202.26005 281.41707 195.52424 281.3307 190.60191 C 281.3307 186.80223 284.09412 180.15277 286.16668 178.94378 C 286.85753 178.59835 287.37567 177.1303 287.37567 175.74859 C 287.37567 172.38068 285.1304 172.29433 284.3532 175.66223 C 284.09412 177.04394 282.79878 179.03014 281.5898 180.15277 C 280.3808 181.2754 278.74002 183.60703 277.9628 185.2478 L 276.5811 188.27029 L 276.32203 184.55696 C 276.14932 181.96626 276.5811 179.98006 277.87645 177.9075 C 278.91273 176.26673 279.3445 174.79867 278.82637 174.5396 C 278.3946 174.19417 277.61738 174.7123 277.09924 175.48952 C 276.32203 176.78487 276.23568 176.61215 276.14932 174.19417 C 276.14932 170.82626 277.7901 167.45836 280.81258 164.6086 C 283.66234 161.93154 283.66234 160.37712 280.72622 160.0317 C 278.30824 159.68627 278.30824 159.68627 281.50343 158.2182 C 283.3169 157.441 285.64854 156.75015 286.85753 156.75015 C 289.1028 156.75015 291.00265 154.93666 289.27552 154.33216 C 288.15288 153.98674 287.80746 151.56875 288.9301 151.56875 C 289.27552 151.56875 289.96637 151.91418 290.4845 152.34596 C 290.9163 152.8641 292.298 152.69139 294.1115 152.00054 C 298.68838 150.01433 299.98373 143.79666 296.96125 137.92442 C 294.80234 133.69295 292.1253 131.36132 287.1166 129.2024 C 280.89893 126.52535 276.32203 126.87078 269.2408 130.4114 C 260.34607 134.90194 257.4963 140.16969 256.7191 153.55495 C 255.9419 166.24937 258.2735 174.02146 270.10436 197.7695 C 282.88513 223.67647 285.04405 229.11694 286.42575 239.65244 C 288.41195 254.2467 280.89893 270.48173 269.75894 275.83583 C 265.00933 278.16746 256.97817 278.94467 251.10592 277.73568 C 247.30623 276.8721 246.1836 276.95847 244.54282 278.0811 C 239.53414 281.2763 238.2388 287.58032 241.6067 292.07086 C 243.7656 295.09334 246.01088 301.05195 245.32003 302.17458 C 245.06096 302.60636 244.28375 301.82915 243.5929 300.5338 C 242.3839 298.3749 242.2112 298.28854 240.91585 299.49753 C 239.016 301.48373 239.27507 305.80156 241.6067 308.9104 C 242.9884 310.81024 243.67926 313.14186 244.02468 317.28698 L 244.45647 322.9865 L 242.03848 320.8276 C 239.10236 318.0642 237.97972 315.99163 237.807 312.79644 C 237.6343 309.94667 235.6481 308.1332 233.48918 308.99675 C 230.98484 309.94667 231.8484 313.8327 235.56174 317.97783 C 237.46159 320.13674 239.016 322.29566 239.016 322.6411 C 239.016 323.67736 237.54794 323.591 236.8571 322.55473 C 236.07988 321.25938 233.8346 321.51845 233.8346 322.8138 C 233.8346 323.50465 234.35275 325.14542 235.0436 326.52713 C 235.73445 327.90883 236.59802 330.06775 236.8571 331.3631 C 237.37523 333.3493 237.20252 333.60837 235.6481 333.1766 C 234.61182 332.9175 233.8346 333.09023 233.8346 333.522 C 233.8346 334.731 236.4253 339.9124 238.15244 342.15766 C 239.53414 343.97115 239.53414 344.57565 238.4115 349.49797 C 237.0298 355.54293 235.90717 357.9609 234.52546 357.9609 C 231.76205 357.9609 217.68594 370.56897 211.8137 378.34106 C 210.43198 380.2409 209.05028 381.8817 208.70485 382.14075 C 206.805 383.52245 202.0554 392.9353 201.62362 396.3896 C 200.93276 401.3119 197.91028 406.23423 195.66501 406.3206 C 195.23323 406.3206 194.97416 405.62973 194.97416 404.8525 C 194.97416 402.9527 191.34719 397.68493 190.05184 397.68493 C 188.3247 397.68493 188.7565 395.61237 190.65633 393.9716 C 192.46982 392.4172 192.2971 390.7764 190.3109 390.7764 C 189.70641 390.7764 188.67013 392.4172 188.06564 394.4034 C 185.64765 402.5209 183.83417 405.2843 180.89804 405.7161 C 177.18471 406.23423 175.45758 404.59345 174.16223 399.153 L 173.12595 394.7488 L 175.97572 392.4172 C 177.96192 390.7764 178.65277 389.5674 178.221 388.53113 C 177.87556 387.75392 177.53014 387.2358 177.35742 387.4085 C 177.18471 387.5812 175.71665 389.3947 174.07588 391.3809 C 170.4489 395.69873 168.98084 395.1806 168.89448 389.3947 C 168.72177 383.7815 170.18983 380.93176 172.78053 381.8817 C 173.8168 382.2271 175.803 382.48617 177.27107 382.57253 C 180.29355 382.57253 181.07076 380.49997 179.34363 377.21842 C 177.96192 374.62773 178.91184 372.9006 182.79789 370.7417 C 186.07944 368.9282 186.59758 369.1009 189.44734 373.59145 C 192.38347 378.34106 194.19695 377.99563 200.32827 371.5189 C 207.4095 364.09223 211.55462 355.54293 211.9864 347.33906 C 212.33183 341.1214 211.03648 336.5445 209.05028 336.97627 C 208.53214 337.06263 207.2368 335.24914 206.11416 332.9175 C 204.8188 330.24046 203.4371 328.68604 202.57354 328.5997 C 200.58734 328.5997 200.50098 331.70852 202.40083 335.42185 C 203.95524 338.61705 203.4371 342.41673 201.01912 344.57565 C 199.37835 346.0437 199.292 346.0437 199.4647 342.24402 C 199.63742 339.22154 197.39215 329.72232 196.0968 327.82248 C 195.92408 327.64976 195.06052 328.1679 194.1106 329.03147 C 191.95168 331.01767 191.00176 330.24046 192.38347 327.64976 C 193.59246 325.4045 193.16067 322.12294 190.56998 313.74636 C 188.58378 307.7014 188.58378 307.61504 190.1382 301.48373 C 192.03804 294.05706 194.8878 288.35753 199.63742 282.13986 C 213.9726 263.4005 214.31803 262.70964 214.40439 251.656 C 214.40439 246.12918 213.9726 242.58856 213.1954 241.1205 C 211.64098 238.27073 210.08656 238.01166 210.95012 240.68871 C 211.29555 241.81135 211.72733 244.05662 211.90005 245.6974 C 212.07276 247.76995 211.9864 248.11538 211.55462 246.9064 C 210.0002 242.3295 195.14687 232.31213 187.46114 230.585 C 185.82037 230.32593 184.61138 229.46236 184.61138 228.7715 C 184.61138 227.30345 185.04316 227.30345 187.28843 228.51244 C 188.58378 229.11694 189.36099 229.11694 190.3109 228.33973 C 191.86533 227.04438 191.86533 224.97182 190.3109 224.97182 C 189.70641 224.97182 188.58378 224.28097 187.97928 223.4174 C 186.85665 222.12206 186.943 222.0357 188.23835 223.07198 C 192.2971 226.26717 189.62006 215.90438 184.78409 209.77307 C 181.15711 205.19617 179.34363 202.00098 177.6165 197.51044 C 177.012 195.7833 176.32115 194.91974 175.803 195.43788 C 174.85308 196.3878 179.94812 206.9233 183.22967 210.723 C 186.25215 214.17725 187.89292 218.236 186.51122 218.75415 C 185.30223 219.09958 185.12951 224.10826 186.3385 224.10826 C 186.85665 224.10826 187.20207 224.45368 187.20207 224.97182 C 187.20207 226.6126 185.90672 225.8354 184.43866 223.2447 C 182.79789 220.39492 179.6027 219.445 180.81169 222.12206 C 181.93432 224.6264 181.67525 231.27585 180.55262 231.62128 C 179.86176 231.88035 179.42998 231.3622 179.42998 230.41229 C 179.42998 228.33973 176.92564 224.7991 175.88936 225.4036 C 175.45758 225.74903 175.11215 228.16701 175.11215 230.84407 C 175.0258 233.52112 174.50766 236.7163 173.8168 237.9253 C 172.69417 239.9115 172.60781 239.9115 172.52146 238.27073 C 172.52146 235.07554 168.20363 232.7439 168.20363 235.9391 C 168.20363 236.80267 167.42642 239.22065 166.4765 241.2932 C 164.74937 245.00654 164.66301 245.0929 162.93588 243.45212 C 161.38146 242.07042 161.20875 241.03414 161.46782 236.02546 C 161.64053 231.70763 161.46782 230.15322 160.60425 230.15322 C 159.99976 230.15322 159.3089 231.27585 159.04984 232.7439 C 158.70441 234.12562 157.9272 235.7664 157.3227 236.28453 C 156.63185 236.80267 155.68193 238.78887 155.1638 240.68871 L 154.30023 244.14298 L 152.14131 242.24313 C 150.32782 240.42965 149.63697 238.61616 148.85976 233.3484 C 148.6007 231.3622 147.13263 231.794 146.87356 234.03926 C 146.26907 238.18437 145.75093 238.3571 143.4193 235.42097 C 141.86488 233.43476 141.00132 232.91663 140.56953 233.69383 C 140.0514 234.3847 139.18783 234.03926 137.4607 232.39849 C 136.079 231.1895 133.66101 229.63508 132.19295 229.11694 C 130.63853 228.51244 129.34318 227.8216 129.34318 227.47616 C 129.34318 226.7853 119.49853 224.1946 115.95792 223.93554 C 114.57621 223.8492 111.29466 224.0219 108.87668 224.36733 C 104.64521 224.97182 104.12707 225.31725 102.57265 228.42608 C 99.55017 234.3847 93.937 232.31213 93.937 225.31725 C 93.937 222.0357 93.67793 221.51756 91.77808 220.99942 C 90.31002 220.654 89.01467 220.91306 87.97839 221.86299 C 85.81948 223.76283 84.7832 223.59012 82.88336 220.8267 C 79.94723 216.76795 79.68816 214.6954 82.01979 213.83183 C 83.14243 213.40004 84.69684 212.19105 85.56041 211.24113 C 87.02847 209.42764 86.94211 209.34129 85.04227 207.35509 C 83.91963 206.23245 82.45157 205.19617 81.84708 204.9371 C 80.8108 204.59168 80.8108 204.1599 82.10615 202.26005 C 82.88336 200.9647 84.52413 199.32393 85.64677 198.63307 C 87.63297 197.33773 87.89204 197.33773 91.77808 200.27385 C 94.02335 202.00098 96.18227 203.38268 96.7004 203.38268 C 98.25482 203.38268 100.84552 199.7557 100.84552 197.5968 C 100.84552 195.69695 101.10459 195.52424 103.60893 196.04238 C 107.14955 196.73323 109.48117 199.32393 109.48117 202.51912 C 109.48117 208.99586 112.93544 211.24113 128.47962 214.6954 C 139.61961 217.11338 143.4193 217.02702 148.51434 214.17725 L 152.48674 212.01834 L 154.04116 215.64531 C 155.07743 218.236 155.68193 218.92686 155.85464 217.89058 C 156.11371 217.02702 155.25015 214.17725 154.04116 211.5002 C 151.45046 205.97338 151.01868 202.69183 153.09123 205.45524 C 153.78209 206.40516 154.38658 207.00966 154.38658 206.7506 C 154.47294 206.57788 154.5593 203.64175 154.64565 200.3602 C 154.90472 194.2289 155.42286 192.58811 158.96348 186.80223 C 160.86332 183.60703 164.4903 180.41184 165.2675 181.18905 C 165.44022 181.36176 165.2675 182.65711 164.74937 183.95246 C 163.36766 187.57943 164.74937 188.27029 169.8444 186.54316 C 174.85308 184.90238 178.48006 181.7072 180.72533 176.95758 C 181.50254 175.23045 183.7478 172.29433 185.5613 170.5672 C 189.01556 167.28565 190.39726 164.0041 187.46114 166.33572 C 183.40238 169.3582 181.67525 171.3444 179.7754 174.97138 C 177.44378 179.72099 172.60781 183.95246 168.80813 184.72967 C 167.42642 184.98874 166.04472 185.16145 165.95836 184.98874 C 165.78565 184.81603 166.39014 183.17525 167.34006 181.36176 C 168.28999 179.54828 168.89448 177.82114 168.63541 177.64843 C 168.03092 177.04394 161.55418 180.06641 160.08611 181.7072 C 157.66813 184.38424 153.52302 193.88346 152.91852 197.85586 L 152.40038 201.91462 L 150.7596 198.63307 C 148.68705 194.74703 147.73713 195.35152 146.26907 201.7419 L 145.14643 206.40516 L 143.16023 202.08734 C 141.00132 197.33773 140.0514 191.72455 140.91496 188.35664 C 141.34674 186.62951 142.0376 186.11137 143.85108 186.11137 C 146.35542 186.11137 151.79589 181.2754 151.79589 179.03014 C 151.88224 174.7123 158.96348 165.3858 162.24503 165.3858 C 162.93588 165.3858 163.8858 165.12673 164.23123 164.7813 C 164.83572 164.1768 166.30379 163.83138 169.93076 163.31324 C 171.13975 163.14053 173.0396 162.7951 174.24859 162.44968 C 176.4075 161.84518 176.4075 161.93154 176.14843 166.24937 C 175.71665 171.43076 176.66657 171.77619 178.82549 167.11293 C 180.2072 164.1768 181.15711 163.48596 187.02936 161.06797 C 190.65633 159.59991 194.54238 158.0455 195.4923 157.61371 C 196.61494 157.18193 198.51478 154.50488 200.0692 151.22333 C 202.74625 145.5238 203.86889 144.05573 203.00532 147.25092 C 201.96904 151.05061 205.33695 147.85542 207.92764 142.58767 C 210.0002 138.3562 210.51834 136.02457 210.51834 131.7931 C 210.51834 124.53915 208.70485 125.23 208.44578 132.57031 C 208.35943 135.85186 207.58222 139.56519 206.6323 141.63775 C 204.99152 145.00565 204.99152 145.00565 204.6461 142.67403 C 204.47338 141.37868 203.95524 140.3424 203.52346 140.3424 C 203.09168 140.3424 202.22811 141.37868 201.70997 142.67403 C 198.51478 150.53247 196.78765 153.90038 195.57866 155.19573 C 194.80145 155.97294 191.5199 157.441 188.3247 158.47728 C 185.04316 159.51356 181.32983 161.4134 179.94812 162.6224 L 177.44378 164.95402 L 177.96192 161.67247 C 178.30735 159.25449 178.221 158.47728 177.44378 158.8227 C 176.83929 158.99542 174.85308 159.68627 172.95324 160.2044 C 164.92208 162.44968 163.2813 163.05417 159.74069 164.6086 C 155.85464 166.33572 153.26395 169.70363 151.62317 175.05773 C 150.15511 179.98006 146.09635 184.38424 143.16023 184.38424 C 140.74225 184.38424 140.65589 184.29789 141.95124 181.96626 C 142.55573 180.6709 143.33294 178.25293 143.59201 176.61215 C 144.71465 169.61727 146.01 165.73123 147.56441 164.26317 C 148.42798 163.3996 149.20519 162.10425 149.20519 161.32704 C 149.20519 159.34084 142.29666 160.37712 140.39682 162.70875 C 139.61961 163.74503 138.66969 164.52224 138.32426 164.52224 C 137.97884 164.52224 136.94256 165.12673 136.079 165.9903 C 134.61093 167.28565 134.52457 167.28565 134.35186 165.29944 C 134.00644 159.77262 136.68349 152.8641 139.53325 151.82782 C 140.31046 151.56875 141.60581 150.79154 142.29666 150.2734 C 142.98752 149.6689 145.49186 148.8917 147.82348 148.54627 C 150.15511 148.20085 153.09123 147.51 154.30023 146.99186 C 155.50922 146.56007 156.80457 146.04193 157.06364 146.04193 C 158.18627 145.86922 163.02224 140.68783 163.02224 139.7379 C 163.02224 138.26984 162.5041 138.3562 159.99976 139.99697 C 158.09991 141.29232 157.58177 141.20597 153.52302 139.91062 C 151.19139 139.13341 149.20519 138.3562 149.20519 138.18349 C 149.20519 137.92442 150.24147 137.31992 151.45046 136.62907 C 153.3503 135.67915 154.64565 135.67915 159.82704 136.62907 C 166.39014 137.92442 170.36254 137.7517 174.68037 136.02457 C 176.14843 135.42008 178.56642 134.90194 180.2072 134.72922 C 182.3661 134.64287 183.83417 133.7793 185.5613 131.62039 L 187.89292 128.68427 L 188.49742 131.10225 C 189.36099 134.21109 190.3109 133.43388 191.00176 128.94334 L 191.60626 125.23 L 193.24703 127.38892 C 194.19695 128.59791 194.97416 130.06597 194.97416 130.58411 C 194.97416 131.1886 195.40594 131.70675 195.92408 131.70675 C 197.39215 131.70675 196.2695 126.00721 193.93788 121.60303 C 192.03804 118.06241 192.2971 115.73078 194.2833 117.71698 C 195.75137 119.18505 196.7013 119.01233 196.7013 117.11249 C 196.7013 115.03993 193.24703 114.09001 191.60626 115.73078 C 190.56998 116.76706 190.56998 117.45791 191.77897 120.56675 L 193.16067 124.10737 L 191.08812 123.58923 C 189.10192 123.07109 189.01556 123.2438 189.44734 125.8345 C 189.96548 128.68427 189.96548 128.68427 188.58378 126.78442 C 185.734 122.89838 179.34363 123.41652 173.98952 127.90706 L 171.31247 130.15233 L 169.32627 127.90706 C 166.90828 125.05729 166.82193 123.93466 169.0672 123.93466 C 172.52146 123.93466 177.44378 120.6531 178.9982 117.37156 C 180.81169 113.57187 181.07076 106.7497 179.6027 101.82738 C 178.3937 97.59591 171.31247 88.01033 168.03092 86.11049 C 164.74937 84.12428 161.38146 85.50599 159.1362 89.6511 C 157.15 93.27808 156.02736 93.6235 153.43666 91.03281 C 151.9686 89.56475 151.70953 88.61483 152.22767 86.11049 C 152.5731 84.297 153.00488 82.13808 153.09123 81.18816 C 153.17759 80.06553 154.12751 79.28832 155.941 78.94289 C 157.49542 78.59747 159.22255 77.99297 159.74069 77.56119 C 160.34518 77.04305 162.41774 76.17948 164.31759 75.57499 C 166.21743 74.97049 167.94456 74.19328 168.20363 73.847855 C 169.32627 72.20708 177.35742 73.157 176.32115 74.79778 C 174.85308 77.30212 179.51634 82.48351 183.31603 82.48351 C 184.69773 82.48351 188.06564 78.07933 188.06564 76.17948 C 188.06564 75.48863 188.67013 74.45235 189.36099 73.847855 C 190.39726 72.98429 191.08812 73.07065 192.9016 74.27964 C 195.06052 75.66134 195.14687 75.66134 194.80145 74.106925 C 194.2833 71.42987 190.82905 70.39359 184.43866 71.25716 C 176.92564 72.12072 173.0396 71.343515 172.69417 68.839175 C 172.52146 67.54383 172.86688 66.93933 173.73045 66.93933 C 174.50766 66.93933 175.11215 66.593905 175.11215 66.16212 C 175.11215 65.73034 176.4075 65.47127 177.96192 65.64398 C 179.42998 65.90305 187.28843 66.16212 195.23323 66.42119 Z" fill="#FFFFFF"/>
        </g>
        <g id="Graphic_36">
          <path d="M 180.81169 76.00677 C 180.29355 78.51111 180.46626 79.02925 181.7616 79.1156 C 182.71153 79.1156 182.88424 79.28832 182.1934 79.63374 C 180.89804 80.15188 177.70285 77.56119 177.70285 75.92041 C 177.70285 74.97049 179.86176 73.07065 181.07076 72.98429 C 181.24347 72.98429 181.07076 74.36599 180.81169 76.00677 Z" fill="#FFFFFF"/>
        </g>
        <g id="Graphic_35">
          <path d="M 187.20207 73.32972 C 187.20207 73.41607 186.7703 74.88413 186.25215 76.43855 L 185.21587 79.28832 L 184.09324 77.21576 C 182.45246 74.19328 182.62517 73.41607 185.04316 73.157 C 186.25215 73.07065 187.20207 73.157 187.20207 73.32972 Z" fill="#FFFFFF"/>
        </g>
        <g id="Graphic_34">
          <path d="M 91.77808 81.18816 C 93.3325 82.82894 93.937 84.297 93.937 86.88769 C 93.937 88.78754 93.67793 90.2556 93.3325 90.08289 C 88.23746 87.6649 88.32382 87.6649 88.32382 83.34708 C 88.32382 80.92909 88.58289 79.02925 88.92831 79.02925 C 89.27374 79.02925 90.56909 79.97917 91.77808 81.18816 Z" fill="#FFFFFF"/>
        </g>
        <g id="Graphic_33">
          <path d="M 150.50054 80.75638 C 150.24147 81.7063 150.32782 82.48351 150.7596 82.48351 C 151.27775 82.48351 151.45046 83.26072 151.19139 84.21064 C 150.32782 87.57855 148.34162 85.41963 148.34162 81.10181 C 148.34162 79.80646 148.85976 79.02925 149.72333 79.02925 C 150.67325 79.02925 150.93232 79.54739 150.50054 80.75638 Z" fill="#FFFFFF"/>
        </g>
        <g id="Graphic_32">
          <path d="M 166.90828 87.83762 C 167.34006 88.18304 166.21743 89.04661 164.40394 89.82382 C 160.25883 91.55095 159.56798 90.94645 162.59045 88.09669 C 163.97216 86.88769 165.2675 86.19684 165.52658 86.54227 C 165.78565 86.88769 166.39014 87.49219 166.90828 87.83762 Z" fill="#FFFFFF"/>
        </g>
        <g id="Graphic_31">
          <path d="M 90.82816 91.20552 L 94.97327 93.79622 L 94.36878 98.54583 C 93.937 102.43187 94.10971 103.64087 95.3187 105.02257 C 97.21854 107.09513 98.34118 107.09513 102.05451 104.93621 L 105.07699 103.29544 L 106.89048 105.54071 C 110.60381 110.20396 108.27218 117.02613 102.91808 117.02613 C 100.15467 117.02613 99.98195 117.19884 99.98195 119.78954 C 100.15467 126.61171 107.14955 138.87434 115.87156 147.51 C 121.31202 152.77774 121.65745 153.38224 120.01667 153.90038 C 118.9804 154.15945 118.11683 154.67759 118.11683 155.10937 C 118.11683 156.49108 119.84396 156.8365 121.7438 155.80022 C 123.38458 154.93666 133.4883 154.50488 134.2655 155.36844 C 134.43822 155.54115 134.17915 156.66379 133.57465 157.87278 C 132.97016 159.34084 132.79744 162.0179 133.14287 165.64487 L 133.74737 171.1717 L 136.079 168.92642 C 137.37434 167.71743 139.79232 165.64487 141.4331 164.26317 C 145.49186 161.06797 148.34162 161.15433 145.4055 164.43588 C 143.85108 166.24937 142.29666 171.08533 142.29666 174.19417 C 142.29666 175.57587 141.69217 177.99386 141.08767 179.63463 C 140.0514 181.96626 139.27419 182.65711 137.63341 182.65711 C 135.21543 182.65711 134.61093 183.8661 136.68349 184.72967 C 138.2379 185.33416 138.32426 186.97494 136.94256 189.99742 L 135.90628 192.2427 L 134.78364 190.25649 C 134.17915 189.13385 133.74737 187.57943 133.66101 186.71587 C 133.66101 185.93866 133.31558 185.2478 132.8838 185.2478 C 131.84752 185.2478 129.34318 190.68827 129.34318 193.0199 C 129.34318 195.43788 127.7024 198.374 126.66613 197.7695 C 126.23435 197.42408 125.88892 196.2151 125.88892 194.91974 C 125.88892 189.99742 122.17559 188.87478 121.05295 193.45168 C 120.79388 194.66067 120.18939 195.6106 119.7576 195.6106 C 118.20319 195.6106 117.94412 190.94734 119.32582 187.0613 C 121.39838 181.1027 121.13931 180.23913 117.85776 183.34796 C 116.30334 184.90238 114.66257 186.11137 114.31714 186.11137 C 113.97172 186.11137 113.88536 184.55696 114.23078 182.65711 C 114.92164 178.6847 114.23078 176.09401 112.4173 175.40316 C 111.64009 175.05773 110.86288 175.57587 110.4311 176.87122 C 109.74024 178.6847 109.65389 178.6847 107.92676 175.74859 C 106.97683 174.10781 105.59513 172.12161 104.90428 171.43076 C 104.21342 170.7399 103.00443 167.372 102.22722 163.91774 C 101.10459 159.4272 99.63653 156.232 96.44134 151.82782 C 90.82816 143.96938 88.23746 138.9607 87.46025 134.47015 C 87.02847 131.87946 85.90584 129.72054 83.57421 127.2162 L 80.2063 123.76194 L 75.19762 124.36644 C 70.620726 124.88458 70.01623 124.71186 68.20274 122.81202 C 66.73468 121.2576 66.130185 119.53047 66.04383 116.50799 C 65.871115 112.36288 65.871115 112.27652 68.72088 112.01745 C 72.69328 111.58567 72.52057 108.30412 68.46181 104.67714 C 66.82104 103.20908 65.43933 101.74102 65.43933 101.3956 C 65.43933 101.05017 66.82104 99.06397 68.54817 96.99141 C 71.91607 93.01901 73.55685 92.67358 75.97483 95.52335 C 76.75204 96.38692 78.30646 97.25048 79.42909 97.33684 C 81.15623 97.59591 81.415295 97.16412 81.67436 94.14164 C 81.93343 90.8601 83.66057 88.52847 85.64677 88.52847 C 86.16491 88.52847 88.49653 89.73746 90.82816 91.20552 Z" fill="#FFFFFF"/>
        </g>
        <g id="Graphic_30">
          <path d="M 171.6579 92.06909 C 171.6579 92.58723 171.31247 92.67358 170.79433 92.41451 C 170.36254 92.15544 169.93076 91.46459 169.93076 91.03281 C 169.93076 90.51467 170.36254 90.42831 170.79433 90.68738 C 171.31247 90.94645 171.6579 91.6373 171.6579 92.06909 Z" fill="#FFFFFF"/>
        </g>
        <g id="Graphic_29">
          <path d="M 68.03003 92.8463 C 69.152664 93.53715 69.06631 93.96893 67.42553 95.60971 C 65.52569 97.42319 65.43933 97.50955 64.3167 95.95513 C 63.366775 94.65978 62.50321 94.40071 60.43065 94.8325 C 57.23546 95.43699 56.80368 94.40071 59.653444 93.01901 C 62.07143 91.89637 66.3029 91.72366 68.03003 92.8463 Z" fill="#FFFFFF"/>
        </g>
        <g id="Graphic_28">
          <path d="M 167.34006 93.27808 C 167.34006 93.96893 167.16735 94.57343 166.99464 94.57343 C 166.82193 94.57343 166.4765 93.96893 166.13107 93.27808 C 165.872 92.58723 166.04472 91.98273 166.4765 91.98273 C 166.99464 91.98273 167.34006 92.58723 167.34006 93.27808 Z" fill="#FFFFFF"/>
        </g>
        <g id="Graphic_27">
          <path d="M 162.07232 96.55963 C 162.15867 96.99141 161.81325 96.99141 161.2951 96.73234 C 160.86332 96.47327 160.43154 95.35064 160.5179 94.31436 C 160.5179 92.50087 160.60425 92.50087 161.2951 94.14164 C 161.72689 95.09157 162.07232 96.2142 162.07232 96.55963 Z" fill="#FFFFFF"/>
        </g>
        <g id="Graphic_26">
          <path d="M 157.84084 98.37312 C 157.84084 98.8049 157.23635 98.63219 156.5455 98.02769 C 155.85464 97.42319 155.50922 96.55963 155.76829 96.12785 C 156.37278 95.26428 157.84084 96.90505 157.84084 98.37312 Z" fill="#FFFFFF"/>
        </g>
        <g id="Graphic_25">
          <path d="M 145.75093 104.50443 C 145.75093 105.10893 145.14643 106.05885 144.45558 106.66334 C 142.72845 108.1314 142.8148 110.03125 144.88736 113.3128 C 146.35542 115.73078 147.04627 116.16257 149.89604 116.16257 C 152.5731 116.16257 153.86844 115.55807 156.37278 113.14009 C 158.18627 111.41296 159.56798 109.68582 159.56798 109.16769 C 159.56798 107.69962 167.59913 103.20908 170.36254 103.20908 C 173.21231 103.20908 179.42998 107.61327 179.42998 109.77218 C 179.42998 111.41296 178.91184 111.3266 176.83929 109.25404 C 174.50766 106.92241 171.2261 106.23156 167.2537 107.44055 C 164.57666 108.30412 163.19495 109.42675 160.94968 112.96737 C 157.49542 118.23512 154.99108 120.6531 151.19139 122.20752 C 148.68705 123.15745 147.90984 123.07109 144.36922 121.43032 C 141.26039 119.96225 140.0514 118.75326 138.66969 115.64443 C 136.59713 110.80846 137.11527 106.57699 140.13775 104.159 C 142.46938 102.43187 145.75093 102.60459 145.75093 104.50443 Z" fill="#FFFFFF"/>
        </g>
        <g id="Graphic_24">
          <path d="M 117.25326 109.25404 C 117.25326 110.7221 113.88536 113.57187 112.07187 113.57187 C 110.77652 113.57187 110.34474 112.96737 110.34474 111.41296 C 110.34474 109.51311 110.60381 109.3404 111.98551 110.03125 C 113.10815 110.63575 114.05807 110.54939 115.18071 109.68582 C 117.16691 108.21776 117.25326 108.1314 117.25326 109.25404 Z" fill="#FFFFFF"/>
        </g>
        <g id="Graphic_23">
          <path d="M 173.38502 119.8759 C 173.38502 120.30768 173.0396 120.30768 172.52146 120.04861 C 172.08968 119.78954 171.6579 118.83962 171.6579 118.06241 C 171.6579 116.76706 171.8306 116.76706 172.52146 117.8897 C 172.95324 118.58055 173.38502 119.53047 173.38502 119.8759 Z" fill="#FFFFFF"/>
        </g>
        <g id="Graphic_22">
          <path d="M 64.92119 120.4804 C 65.26662 122.4666 64.92119 123.58923 63.7122 124.79822 C 62.76228 125.74814 61.98507 127.12985 61.98507 127.90706 C 61.98507 129.11605 61.726 129.11605 60.68972 128.25248 C 58.78988 126.69807 59.04895 122.03481 61.121505 119.78954 C 63.53949 117.2852 64.23034 117.37156 64.92119 120.4804 Z" fill="#FFFFFF"/>
        </g>
        <g id="Graphic_21">
          <path d="M 168.20363 120.56675 C 168.20363 121.08489 167.8582 121.17125 167.34006 120.91218 C 166.90828 120.6531 166.4765 119.96225 166.4765 119.53047 C 166.4765 119.01233 166.90828 118.92598 167.34006 119.18505 C 167.8582 119.44411 168.20363 120.13497 168.20363 120.56675 Z" fill="#FFFFFF"/>
        </g>
        <g id="Graphic_20">
          <path d="M 108.61761 192.4154 C 108.61761 196.30145 105.8542 195.1788 105.59513 191.12005 C 105.42242 188.27029 105.59513 188.09757 107.06319 188.96114 C 107.92676 189.56564 108.61761 190.94734 108.61761 192.4154 Z" fill="#FFFFFF"/>
        </g>
        <g id="Graphic_19">
          <path d="M 82.45157 196.9923 C 82.53793 197.42408 82.27886 198.374 81.84708 199.06486 C 81.15623 200.10114 80.72444 200.1875 79.25638 199.23757 C 78.30646 198.71943 76.75204 198.2013 75.80212 198.2013 C 72.95235 198.2013 73.98863 195.26517 77.09747 194.57432 C 78.8246 194.14253 82.01979 195.52424 82.45157 196.9923 Z" fill="#FFFFFF"/>
        </g>
        <g id="Graphic_18">
          <path d="M 80.11995 219.79043 C 81.24258 221.86299 79.51545 227.8216 77.96103 227.30345 C 76.32026 226.69895 75.45669 222.55384 76.49297 220.2222 C 77.70196 217.63152 78.910955 217.4588 80.11995 219.79043 Z" fill="#FFFFFF"/>
        </g>
        <g id="Graphic_17">
          <path d="M 96.7004 234.21197 C 98.51389 235.85275 98.77296 237.9253 97.13219 237.9253 C 95.49141 237.9253 93.937 236.11182 93.937 234.29833 C 93.937 232.39849 94.62785 232.31213 96.7004 234.21197 Z" fill="#FFFFFF"/>
        </g>
        <g id="Graphic_16">
          <path d="M 203.2644 244.9202 C 211.8137 250.01522 213.10904 251.48328 213.10904 255.28297 C 213.10904 257.09646 212.7636 258.73723 212.33183 258.9963 C 211.03648 259.85987 201.4509 250.36065 199.03292 245.78375 C 197.65121 243.36577 196.78765 241.37957 196.96036 241.37957 C 197.21943 241.37957 200.0692 243.02034 203.2644 244.9202 Z" fill="#FFFFFF"/>
        </g>
        <g id="Graphic_15">
          <path d="M 204.0416 254.76483 C 208.87757 259.51444 211.3819 262.62328 211.03648 263.4005 C 210.51834 264.7822 205.33695 267.3729 199.72377 269.01366 C 191.17447 271.69072 185.38858 276.00854 182.79789 281.79443 C 180.29355 287.2349 180.89804 292.15722 184.52502 296.30233 C 187.37479 299.49753 187.5475 301.48373 184.78409 298.9794 C 182.1934 296.5614 182.02068 298.20218 184.3523 303.81535 C 185.90672 307.44233 186.68393 311.242 186.85665 315.6462 L 187.20207 322.12294 L 185.734 319.10046 C 183.14331 314.00543 181.67525 312.19194 180.12083 312.19194 C 178.3937 312.19194 176.83929 314.69628 176.83929 317.4597 C 176.83929 319.0141 176.58022 319.10046 175.54394 318.2369 C 174.50766 317.37333 174.24859 317.6324 173.73045 319.53225 C 173.47138 320.74124 173.38502 323.33194 173.73045 325.23178 C 174.07588 327.13162 173.98952 329.11782 173.73045 329.63596 C 173.21231 330.49953 172.34874 328.68604 169.15355 319.70496 C 167.77185 315.8189 167.59913 315.6462 166.30379 317.11426 C 165.61293 317.97783 164.66301 319.53225 164.40394 320.56853 C 164.05852 321.69116 163.36766 322.55473 162.93588 322.55473 C 162.41774 322.55473 162.33138 322.12294 162.59045 321.69116 C 163.2813 320.6549 161.55418 315.0417 160.34518 314.2645 C 159.9134 314.00543 159.22255 314.69628 158.79077 315.8189 C 158.01356 317.8051 158.01356 317.8051 156.97728 315.21442 C 155.07743 310.63752 154.732 310.20574 152.65945 310.03303 C 151.62317 309.94667 149.63697 308.65132 148.42798 307.18326 C 145.75093 303.98807 142.38302 302.26094 133.05651 299.23846 C 123.38458 296.04327 119.58489 296.7341 118.80768 301.82915 C 118.63497 303.64264 118.03047 304.07442 115.35342 304.24714 C 111.46738 304.59256 108.61761 303.21086 108.79032 301.1383 C 109.04939 297.3386 108.61761 296.64776 105.76784 296.64776 C 103.78164 296.64776 102.22722 295.9569 100.58645 294.22978 C 97.39126 290.94823 97.47761 288.27118 100.84552 287.58032 C 103.95436 286.88947 104.38614 283.867 101.70908 282.13986 C 99.46381 280.75816 99.55017 278.16746 101.79544 274.97227 C 103.868 272.03614 106.4587 271.77707 108.96304 274.1087 C 109.99931 275.05862 111.89916 275.9222 113.36722 276.0949 C 115.69885 276.35397 116.04427 276.00854 116.73512 273.15878 C 117.68505 269.5318 119.67125 268.7546 124.24815 270.22266 L 127.18427 271.17258 L 126.9252 276.78575 C 126.83884 280.32637 127.09791 282.91707 127.87512 283.78063 C 129.5159 285.8532 136.59713 289.30745 145.57821 292.4163 C 152.65945 294.83427 154.04116 295.007 156.80457 294.22978 C 160.5179 293.10714 161.03604 293.3662 161.72689 296.64776 C 162.07232 298.11582 162.67681 299.23846 163.19495 299.23846 C 164.31759 299.23846 163.45402 295.6115 161.2951 291.0346 C 160.34518 289.13474 158.87712 285.2487 157.84084 282.4853 C 156.11371 277.39025 156.11371 277.39025 157.84084 274.62684 L 159.56798 271.86343 L 156.7182 270.9135 C 155.25015 270.48173 154.5593 270.04994 155.3365 269.9636 C 157.15 269.87723 158.18627 267.28653 157.06364 266.1639 C 156.45914 265.5594 156.63185 264.9549 157.58177 264.26405 C 158.70441 263.4005 158.5317 263.14142 156.28643 262.1915 C 152.83216 260.72344 151.3641 256.8374 153.00488 253.6422 L 154.21387 251.31057 L 154.81836 253.72855 C 155.50922 256.49196 159.1362 258.65088 162.84952 258.65088 C 166.4765 258.65088 174.07588 255.88747 178.56642 253.0377 C 183.5751 249.75615 189.44734 247.59724 193.33339 247.51088 C 196.18315 247.42453 197.3058 248.20173 204.0416 254.76483 Z" fill="#FFFFFF"/>
        </g>
        <g id="Graphic_14">
          <path d="M 125.19807 265.9912 C 126.3207 267.5456 125.97528 268.1501 123.81636 268.1501 C 122.00287 268.1501 121.65745 267.7183 121.7438 265.5594 C 121.83016 263.31413 122.00287 263.14142 123.21187 264.09134 C 123.98908 264.60948 124.85264 265.47305 125.19807 265.9912 Z" fill="#FFFFFF"/>
        </g>
        <g id="Graphic_13">
          <path d="M 100.84552 273.3315 C 100.84552 273.67692 100.06831 274.62684 99.20474 275.40405 C 98.08211 276.44033 97.39126 276.61304 96.95947 275.9222 C 96.61405 275.3177 95.40506 275.14498 94.28242 275.40405 C 93.15979 275.74948 92.20986 275.66312 92.20986 275.3177 C 92.29622 274.19506 94.28242 271.9498 95.66413 271.43165 C 97.04583 270.99986 100.84552 272.38157 100.84552 273.3315 Z" fill="#FFFFFF"/>
        </g>
        <g id="Graphic_12">
          <path d="M 97.82304 293.1935 C 99.03203 295.6115 99.03203 295.87055 97.39126 297.51133 C 96.44134 298.46125 95.66413 299.5839 95.66413 300.10202 C 95.66413 302.26094 93.937 300.62016 93.41886 297.9431 C 93.07343 295.7842 93.3325 294.22978 94.28242 292.7617 C 95.05963 291.55272 95.83684 290.6028 96.09591 290.6028 C 96.26862 290.6028 97.04583 291.72544 97.82304 293.1935 Z" fill="#FFFFFF"/>
        </g>
        <g id="Graphic_11">
          <path d="M 114.66257 307.61504 C 114.66257 308.39225 115.26706 309.77396 116.13063 310.63752 C 117.42598 312.1056 117.42598 312.19194 115.7852 312.19194 C 113.97172 312.19194 111.8128 310.20574 110.94924 307.61504 C 110.51745 306.4924 110.86288 306.147 112.50365 306.147 C 113.97172 306.147 114.66257 306.66512 114.66257 307.61504 Z" fill="#FFFFFF"/>
        </g>
        <g id="Graphic_10">
          <path d="M 236.68438 314.00543 C 237.11616 315.6462 237.89337 317.4597 238.32515 318.0642 C 238.8433 318.6687 239.016 319.35953 238.75693 319.6186 C 238.49786 319.87767 237.6343 318.92775 236.77073 317.4597 C 235.90717 315.99163 234.95725 314.78264 234.61182 314.78264 C 233.8346 314.78264 233.0574 311.58744 233.6619 310.8966 C 234.69818 309.8603 235.90717 311.15566 236.68438 314.00543 Z" fill="#FFFFFF"/>
        </g>
        <g id="Graphic_9">
          <path d="M 179.86176 366.59657 C 181.41618 368.3237 181.41618 368.41006 179.68905 370.22354 L 177.87556 371.95068 L 177.27107 370.1372 C 176.92564 368.9282 175.97572 368.3237 174.59402 368.3237 C 172.17603 368.3237 172.00332 367.63285 174.07588 366.07843 C 176.2348 364.43765 178.04828 364.61037 179.86176 366.59657 Z" fill="#FFFFFF"/>
        </g>
        <g id="Graphic_8">
          <path d="M 167.16735 388.09935 C 167.42642 391.29454 167.2537 391.8127 166.30379 390.9491 C 164.57666 389.5674 161.55418 390.6037 160.94968 392.7626 C 160.25883 395.61237 158.35898 393.1944 158.35898 389.3947 C 158.35898 385.595 160.5179 383.69517 164.31759 384.0406 C 166.73557 384.29966 166.90828 384.55873 167.16735 388.09935 Z" fill="#FFFFFF"/>
        </g>
        <g id="Graphic_7">
          <path d="M 172.60781 399.67113 C 173.12595 401.4846 172.78053 402.17547 171.0534 403.2981 C 169.41262 404.42074 168.98084 405.2843 169.32627 407.01144 C 169.75805 409.17035 169.6717 409.17035 168.54906 407.61593 C 166.90828 405.37066 166.99464 400.362 168.80813 398.3758 C 170.62161 396.3896 171.8306 396.735 172.60781 399.67113 Z" fill="#FFFFFF"/>
        </g>
        <g id="Graphic_6">
          <path d="M 192.38347 401.05283 C 193.76517 403.7299 193.41974 405.19795 191.17447 405.80244 C 189.70641 406.14787 188.9292 407.01144 188.7565 408.73857 C 188.41106 411.0702 188.41106 411.0702 186.943 407.78864 C 185.734 405.19795 185.64765 404.16167 186.42486 402.60725 C 188.3247 399.06663 190.9154 398.3758 192.38347 401.05283 Z" fill="#FFFFFF"/>
        </g>
        <g id="Graphic_5">
          <path d="M 214.5771 71.68894 C 212.84997 72.89793 211.3819 74.53871 211.3819 75.22956 C 211.3819 76.26584 211.9864 76.093125 214.05896 74.36599 C 216.90873 71.94801 221.48562 71.343515 223.2991 73.157 C 224.07632 73.93421 224.3354 73.93421 224.3354 72.89793 C 224.3354 69.098245 219.3267 68.49375 214.5771 71.68894 Z" fill="black"/>
        </g>
        <g id="Graphic_4">
          <path d="M 201.19183 98.2004 C 201.4509 98.8049 202.74625 99.58211 204.12796 99.92753 C 207.15044 100.70474 211.2092 104.33172 212.33183 107.26784 C 213.28175 109.85854 213.3681 117.8897 212.41819 119.44411 C 211.90005 120.22132 211.3819 119.44411 210.69105 117.19884 C 209.56842 113.57187 206.805 110.63575 203.78253 109.85854 C 201.2782 109.25404 200.0692 111.67203 202.14176 112.88102 C 203.00532 113.3128 203.60982 114.52179 203.60982 115.47171 L 203.60982 117.2852 L 201.62362 115.47171 C 198.94656 112.96737 196.2695 112.88102 197.56486 115.299 C 198.083 116.24892 198.94656 116.93977 199.4647 116.76706 C 199.98284 116.6807 201.01912 117.63063 201.62362 119.01233 C 203.2644 122.20752 204.47338 121.17125 204.47338 116.50799 C 204.47338 114.43543 204.90517 112.7083 205.33695 112.7083 C 206.54594 112.7083 209.48206 117.63063 210.08656 120.6531 C 211.46826 126.87078 213.9726 122.55295 214.14532 113.65823 C 214.31803 105.19528 211.55462 101.22288 203.09168 98.02769 C 201.4509 97.33684 200.93276 97.42319 201.19183 98.2004 Z" fill="black"/>
        </g>
      </g>
    </g>
  </g>
</svg>
