<?xml version="1.0" encoding="UTF-8" standalone="no"?>
<!DOCTYPE svg PUBLIC "-//W3C//DTD SVG 1.1//EN" "http://www.w3.org/Graphics/SVG/1.1/DTD/svg11.dtd">
<svg xmlns:xl="http://www.w3.org/1999/xlink" version="1.1" xmlns="http://www.w3.org/2000/svg" xmlns:dc="http://purl.org/dc/elements/1.1/" viewBox="58.5 94.5 301.5 173.42695" width="301.5" height="173.42695">
  <defs>
    <clipPath id="artboard_clip_path">
      <path d="M 58.5 94.5 L 360 94.5 L 360 267.92695 L 58.5 267.92695 Z"/>
    </clipPath>
  </defs>
  <g id="Murex_Shell" stroke-opacity="1" stroke="none" fill="none" fill-opacity="1" stroke-dasharray="none">
    <title>Murex Shell</title>
    <g id="Murex_Shell_Art" clip-path="url(#artboard_clip_path)">
      <title>Art</title>
      <g id="Group_25">
        <g id="Graphic_132">
          <title>path9076</title>
          <path d="M 63 184.33839 C 67.57146 179.0849 71.537685 173.27273 80.93768 172.47636 C 84.91739 169.0278 90.16577 163.40977 96.56083 164.66478 C 98.84588 161.185 101.05333 157.93802 104.08308 152.22414 C 99.89174 147.45854 99.41022 141.209 97.7181 135.44373 C 97.11063 129.95166 100.99824 128.03123 103.21513 129.94668 C 106.98245 134.30532 112.34112 137.20841 117.39169 144.41257 C 118.22573 142.06411 119.07306 139.72894 120.28486 137.75826 C 118.64362 133.95114 119.67005 126.80943 119.41691 121.26716 C 120.019 118.90895 125.83072 113.98737 127.22848 117.50604 C 129.76685 122.28434 131.00557 126.1962 132.4362 130.236 C 132.66316 127.42513 133.71033 125.14515 133.88279 122.13511 C 134.66704 117.58536 139.3119 118.18557 139.95846 120.39922 L 141.98368 127.92147 C 145.68157 122.37123 147.1085 114.53308 145.7448 111.71968 C 144.11078 106.1663 148.5051 105.77835 151.53116 107.09061 C 157.56567 110.27418 153.79748 117.8918 159.05341 120.68852 L 162.81454 118.95263 C 163.9354 116.06654 163.43404 112.03353 163.6825 108.53719 C 164.41659 103.66419 168.87949 96.87158 171.49407 107.37992 C 172.07249 112.51535 175.46608 117.09166 175.54451 122.42443 C 177.7144 119.73685 184.65801 116.33883 187.69585 117.79535 C 188.4799 113.84761 191.11024 110.53371 191.7463 106.8013 C 195.0648 98.12084 199.24575 105.77905 198.97923 107.95856 C 197.758 112.29021 198.46637 116.13944 198.6899 120.1099 C 199.43652 121.32783 201.47185 121.90142 200.1365 124.16034 L 204.18693 125.89624 C 207.03335 124.06493 214.06897 126.779 211.13056 136.89031 C 219.0079 129.96602 224.02436 134.20382 222.41394 140.36211 C 229.47443 139.62602 233.4025 143.49058 231.6721 148.75233 C 236.0494 147.65927 242.06435 151.0534 239.19435 157.14253 C 243.10014 157.87972 244.40207 153.31485 247.00593 157.14253 C 252.76127 152.98483 249.526 161.67086 250.47774 164.37548 C 254.89216 163.85587 259.03002 159.18787 263.78634 163.79684 C 265.46627 159.65154 271.0341 157.06941 275.06973 161.4823 C 278.17956 159.9191 279.27317 161.2362 279.6988 163.50752 C 281.42745 161.91165 283.25328 159.73257 284.6172 160.32502 C 284.4681 165.62992 289.0147 165.08914 286.3531 169.00456 L 288.95698 170.16182 C 295.03065 165.6374 299.98307 169.51818 300.24035 174.50158 C 302.98887 173.09567 306.89466 174.20851 310.2218 172.47636 C 309.84737 174.73077 312.21755 177.24635 312.10237 179.41999 C 314.8991 180.35269 320.0104 175.85906 323.09643 175.98292 C 324.7359 177.26405 323.19288 178.5336 324.54302 179.13067 C 328.59726 177.01963 332.61578 175.11109 335.5371 179.41999 L 341.32344 177.68408 C 346.4384 173.97524 351.51794 170.6913 355.5 180.57725 C 346.53084 182.37202 348.06113 186.62858 343.638 189.25677 C 303.68164 223.03135 279.84348 185.20635 238.61573 216.1633 C 235.6926 218.25833 233.38536 219.5867 230.80415 219.6351 C 229.60404 222.44174 227.80137 226.32784 222.12463 225.71078 C 218.86158 224.76113 216.05287 226.99182 213.1558 228.60395 C 212.10798 231.01727 209.5517 231.22794 206.21216 229.76123 C 203.07175 228.78457 201.66403 231.27328 199.55787 232.3651 C 195.77902 235.2681 192.57635 234.7141 189.14243 235.54758 C 187.66223 231.76166 184.76846 235.04353 182.19881 236.70485 C 180.68432 239.1735 178.4001 240.47325 175.2552 240.46598 C 168.42216 239.8488 160.9822 252.47265 157.3175 257.82502 C 153.89966 262.47574 147.49308 261.2131 146.03412 254.3532 C 144.35302 246.36193 142.30656 237.63992 140.24777 228.89327 C 136.16341 238.75867 131.91118 248.28834 124.046 250.5921 C 117.97406 252.40447 115.37601 247.70504 118.54896 242.78052 C 124.53834 235.5065 124.16176 226.49633 126.36053 218.18852 C 116.4011 216.85026 120.31143 213.65391 113.63056 211.2449 C 112.09277 229.92165 104.20804 231.82002 94.53561 231.49713 C 97.13947 225.4783 101.47923 219.09588 104.95104 210.66627 C 102.20067 208.40953 100.46922 205.30368 100.03264 201.11879 C 93.31512 204.7555 94.29228 205.61476 92.7997 199.09358 C 88.49897 199.4782 85.44602 196.74337 82.67359 193.30723 C 73.15854 195.15665 68.46115 189.12262 63 184.33839 Z" fill="#FFFFFF"/>
          <path d="M 63 184.33839 C 67.57146 179.0849 71.537685 173.27273 80.93768 172.47636 C 84.91739 169.0278 90.16577 163.40977 96.56083 164.66478 C 98.84588 161.185 101.05333 157.93802 104.08308 152.22414 C 99.89174 147.45854 99.41022 141.209 97.7181 135.44373 C 97.11063 129.95166 100.99824 128.03123 103.21513 129.94668 C 106.98245 134.30532 112.34112 137.20841 117.39169 144.41257 C 118.22573 142.06411 119.07306 139.72894 120.28486 137.75826 C 118.64362 133.95114 119.67005 126.80943 119.41691 121.26716 C 120.019 118.90895 125.83072 113.98737 127.22848 117.50604 C 129.76685 122.28434 131.00557 126.1962 132.4362 130.236 C 132.66316 127.42513 133.71033 125.14515 133.88279 122.13511 C 134.66704 117.58536 139.3119 118.18557 139.95846 120.39922 L 141.98368 127.92147 C 145.68157 122.37123 147.1085 114.53308 145.7448 111.71968 C 144.11078 106.1663 148.5051 105.77835 151.53116 107.09061 C 157.56567 110.27418 153.79748 117.8918 159.05341 120.68852 L 162.81454 118.95263 C 163.9354 116.06654 163.43404 112.03353 163.6825 108.53719 C 164.41659 103.66419 168.87949 96.87158 171.49407 107.37992 C 172.07249 112.51535 175.46608 117.09166 175.54451 122.42443 C 177.7144 119.73685 184.65801 116.33883 187.69585 117.79535 C 188.4799 113.84761 191.11024 110.53371 191.7463 106.8013 C 195.0648 98.12084 199.24575 105.77905 198.97923 107.95856 C 197.758 112.29021 198.46637 116.13944 198.6899 120.1099 C 199.43652 121.32783 201.47185 121.90142 200.1365 124.16034 L 204.18693 125.89624 C 207.03335 124.06493 214.06897 126.779 211.13056 136.89031 C 219.0079 129.96602 224.02436 134.20382 222.41394 140.36211 C 229.47443 139.62602 233.4025 143.49058 231.6721 148.75233 C 236.0494 147.65927 242.06435 151.0534 239.19435 157.14253 C 243.10014 157.87972 244.40207 153.31485 247.00593 157.14253 C 252.76127 152.98483 249.526 161.67086 250.47774 164.37548 C 254.89216 163.85587 259.03002 159.18787 263.78634 163.79684 C 265.46627 159.65154 271.0341 157.06941 275.06973 161.4823 C 278.17956 159.9191 279.27317 161.2362 279.6988 163.50752 C 281.42745 161.91165 283.25328 159.73257 284.6172 160.32502 C 284.4681 165.62992 289.0147 165.08914 286.3531 169.00456 L 288.95698 170.16182 C 295.03065 165.6374 299.98307 169.51818 300.24035 174.50158 C 302.98887 173.09567 306.89466 174.20851 310.2218 172.47636 C 309.84737 174.73077 312.21755 177.24635 312.10237 179.41999 C 314.8991 180.35269 320.0104 175.85906 323.09643 175.98292 C 324.7359 177.26405 323.19288 178.5336 324.54302 179.13067 C 328.59726 177.01963 332.61578 175.11109 335.5371 179.41999 L 341.32344 177.68408 C 346.4384 173.97524 351.51794 170.6913 355.5 180.57725 C 346.53084 182.37202 348.06113 186.62858 343.638 189.25677 C 303.68164 223.03135 279.84348 185.20635 238.61573 216.1633 C 235.6926 218.25833 233.38536 219.5867 230.80415 219.6351 C 229.60404 222.44174 227.80137 226.32784 222.12463 225.71078 C 218.86158 224.76113 216.05287 226.99182 213.1558 228.60395 C 212.10798 231.01727 209.5517 231.22794 206.21216 229.76123 C 203.07175 228.78457 201.66403 231.27328 199.55787 232.3651 C 195.77902 235.2681 192.57635 234.7141 189.14243 235.54758 C 187.66223 231.76166 184.76846 235.04353 182.19881 236.70485 C 180.68432 239.1735 178.4001 240.47325 175.2552 240.46598 C 168.42216 239.8488 160.9822 252.47265 157.3175 257.82502 C 153.89966 262.47574 147.49308 261.2131 146.03412 254.3532 C 144.35302 246.36193 142.30656 237.63992 140.24777 228.89327 C 136.16341 238.75867 131.91118 248.28834 124.046 250.5921 C 117.97406 252.40447 115.37601 247.70504 118.54896 242.78052 C 124.53834 235.5065 124.16176 226.49633 126.36053 218.18852 C 116.4011 216.85026 120.31143 213.65391 113.63056 211.2449 C 112.09277 229.92165 104.20804 231.82002 94.53561 231.49713 C 97.13947 225.4783 101.47923 219.09588 104.95104 210.66627 C 102.20067 208.40953 100.46922 205.30368 100.03264 201.11879 C 93.31512 204.7555 94.29228 205.61476 92.7997 199.09358 C 88.49897 199.4782 85.44602 196.74337 82.67359 193.30723 C 73.15854 195.15665 68.46115 189.12262 63 184.33839 Z" stroke="black" stroke-linecap="butt" stroke-linejoin="round" stroke-width="1.5"/>
        </g>
        <g id="Graphic_131">
          <title>path9078</title>
          <path d="M 82.67359 193.30723 C 87.31426 191.329 90.06442 176.31111 80.93768 172.47636" stroke="black" stroke-linecap="butt" stroke-linejoin="round" stroke-width=".965"/>
        </g>
        <g id="Graphic_130">
          <title>path9080</title>
          <path d="M 96.56083 164.66478 C 105.49012 172.22548 104.76195 188.81954 92.7997 199.09358" stroke="black" stroke-linecap="butt" stroke-linejoin="round" stroke-width=".965"/>
        </g>
        <g id="Graphic_129">
          <title>path9082</title>
          <path d="M 100.03264 201.11879 C 110.13366 188.61064 108.31056 174.11513 100.45399 158.61404" stroke="black" stroke-linecap="butt" stroke-linejoin="round" stroke-width=".965"/>
        </g>
        <g id="Graphic_128">
          <title>path9084</title>
          <path d="M 104.95104 210.66627 C 122.07474 205.2104 125.79417 168.96182 104.08308 152.22414" stroke="black" stroke-linecap="butt" stroke-linejoin="round" stroke-width=".965"/>
        </g>
        <g id="Graphic_127">
          <title>path9086</title>
          <path d="M 132.4362 130.236 C 131.59041 141.29443 132.34283 153.29677 127.66246 162.78422" stroke="black" stroke-linecap="round" stroke-linejoin="round" stroke-width=".965"/>
        </g>
        <g id="Graphic_126">
          <title>path9088</title>
          <path d="M 141.98368 127.92147 C 144.55801 137.66852 143.78691 152.98366 156.95586 155.04498" stroke="black" stroke-linecap="round" stroke-linejoin="round" stroke-width=".965"/>
        </g>
        <g id="Graphic_125">
          <title>path9090</title>
          <path d="M 123.03338 166.11138 C 131.09328 177.91625 141.23054 168.59287 150.37388 164.9541 C 173.43912 152.15276 193.59657 157.59112 212.4325 171.3191 C 218.5075 175.43868 224.9856 178.59073 232.97405 178.11807" stroke="black" stroke-linecap="round" stroke-linejoin="round" stroke-width="1.165"/>
        </g>
        <g id="Graphic_124">
          <title>path9098</title>
          <path d="M 123.17804 178.11805 C 119.99565 189.06364 128.14411 199.60007 128.90434 210.9548 C 147.44534 224.29723 184.12835 222.28145 248.99186 191.82673 C 249.77398 187.00775 246.5446 186.32968 241.36425 187.66553 C 218.6873 191.28407 211.89502 176.65516 185.3813 178.26272 C 162.477 178.7208 164.11618 201.0496 123.17804 178.11805 Z" fill="#FFFFFF"/>
        </g>
        <g id="Graphic_123">
          <title>path9092</title>
          <path d="M 123.17804 178.11805 C 163.74453 201.14948 162.94239 178.49475 185.3813 178.26272 C 210.94096 176.8812 219.4345 190.18981 241.36425 187.66553" stroke="black" stroke-linecap="round" stroke-linejoin="round" stroke-width="1.165"/>
        </g>
        <g id="Graphic_122">
          <title>path9094</title>
          <path d="M 128.90434 210.9548 C 137.15951 215.07844 154.08442 222.05155 154.27206 232.6401 C 154.25052 239.83425 151.22947 244.37835 150.58965 249.21096 C 152.33894 248.63102 153.93014 248.00367 157.54532 247.9835 C 154.45265 246.74682 156.62634 244.41298 157.95447 242.2553 C 161.61461 238.77404 169.02534 231.4577 170.22918 235.29964 C 173.10626 236.81346 174.6234 235.8472 177.79858 231.61722 C 180.17952 226.05475 184.43597 225.70202 189.25497 226.91192 C 194.48713 228.4647 197.62306 227.79917 196.4152 224.457 C 201.51367 221.32907 204.85057 224.57487 208.68992 223.4341 C 210.87163 222.00165 212.088 219.74177 215.23642 219.13794 C 216.66505 217.65477 217.96153 216.8324 218.71425 218.72879 C 219.61105 221.1818 222.1532 220.27168 223.1127 216.98988 C 223.87297 215.2338 225.36146 210.80442 225.97678 212.69373 C 226.09726 215.08975 227.01715 216.10035 231.19353 211.46626 C 231.4163 208.13999 233.2617 204.56248 235.89883 206.4541 C 236.8314 203.81093 237.06695 199.29185 241.8316 197.45264 C 244.48813 196.7913 246.77858 194.02235 248.99186 191.82673" stroke="black" stroke-linecap="round" stroke-linejoin="round" stroke-width="1.165"/>
        </g>
        <g id="Graphic_121">
          <title>path9100</title>
          <path d="M 126.36053 218.18852 C 128.40986 218.50168 130.89317 220.5125 133.1595 220.50307 C 132.38583 223.34387 131.62514 226.17447 137.06528 224.11954 C 138.66328 225.71078 139.98865 227.30203 140.24777 228.89327" stroke="black" stroke-linecap="butt" stroke-linejoin="round" stroke-width=".965"/>
        </g>
        <g id="Graphic_120">
          <title>path9102</title>
          <path d="M 120.28486 137.75826 C 123.42767 137.26754 124.32556 139.02172 124.76929 141.23007 C 125.60699 136.10392 127.71366 129.31111 132.06701 136.89311" stroke="black" stroke-linecap="butt" stroke-linejoin="round" stroke-width=".965"/>
        </g>
        <g id="Graphic_119">
          <title>path9104</title>
          <path d="M 142.53994 130.32773 C 144.3892 128.2841 145.90367 125.81001 149.57826 126.11323 C 150.94478 120.46706 154.3481 123.97482 155.94325 125.10062 C 156.66598 123.44153 157.04168 121.57421 159.05341 120.68852" stroke="black" stroke-linecap="butt" stroke-linejoin="round" stroke-width=".965"/>
        </g>
        <g id="Graphic_118">
          <title>path9106</title>
          <path d="M 187.69585 117.79535 C 190.55355 119.34161 191.74354 121.03947 191.60163 122.85842 C 193.95934 121.92204 195.56142 117.96316 198.6899 120.1099" stroke="black" stroke-linecap="butt" stroke-linejoin="round" stroke-width=".965"/>
        </g>
        <g id="Graphic_117">
          <title>path9112</title>
          <path d="M 240.35163 169.8725 C 242.7083 168.74757 244.6321 169.68281 245.84866 172.91035 C 247.43992 171.8961 249.03116 172.42233 250.6224 172.91035 C 253.58386 171.51327 256.3859 169.85046 260.4592 170.30648 C 261.17646 171.80732 260.34653 176.15726 261.90578 178.11805 C 262.19814 176.52377 262.52147 174.8985 262.62908 173.48897 C 263.30415 173.57455 263.97923 173.71536 264.6543 174.93556 C 267.00628 172.09221 269.19164 167.78254 272.46588 173.055 C 271.5253 174.74268 269.66814 176.43037 270.296 178.11805 L 275.64837 176.38214 C 277.9302 174.0293 279.04876 175.457 280.27746 176.52681 C 282.5746 173.22414 285.54976 178.96095 283.89392 182.1685 C 284.81136 182.02598 285.78883 181.98345 287.5104 183.18112 C 294.43153 176.8415 296.67524 180.07947 297.9258 185.351 C 303.0092 181.33811 309.04474 184.61609 309.4985 189.40144 C 313.72047 189.4045 316.71196 187.76815 320.20326 186.79759 C 322.02696 186.74033 325.09034 183.37715 324.6877 189.25679 C 328.06385 186.83644 332.06445 182.45354 333.65653 185.6403 C 335.72415 188.84108 341.5561 183.67674 345.80787 182.02384 M 202.01705 144.41257 C 203.47854 147.09921 200.54798 149.32351 198.54525 151.6455 C 201.8894 149.19189 205.1606 146.30054 209.25 148.31835 C 215.15319 149.09514 213.74573 152.69648 211.27522 156.70855 C 214.4577 156.1024 217.6402 154.32734 220.8227 155.26197 C 224.38177 156.0579 221.98618 158.47785 221.69066 160.32504 C 223.68326 162.38408 226.63193 159.39302 228.77893 160.61434 C 231.73508 162.93844 229.1412 166.11342 230.2255 167.70262 C 232.49184 167.2121 234.75816 165.69205 237.0245 166.4007 C 235.81782 169.98554 238.19184 171.97897 240.35163 174.06761 C 240.14836 172.61117 239.32161 170.97659 240.35163 169.8725 M 146.6988 147.33446 C 149.85787 139.39187 154.93536 136.70835 160.35534 143.11063 C 161.11751 138.3426 166.4067 131.7246 173.08531 140.36213 C 178.0563 137.88596 184.459 135.36192 188.41914 143.2553 C 192.86057 143.04822 196.88053 140.10157 202.01705 144.41257" stroke="black" stroke-linecap="round" stroke-linejoin="round" stroke-width=".865"/>
        </g>
        <g id="Graphic_116">
          <title>path9116</title>
          <path d="M 162.81453 118.95263 C 162.73862 130.36226 158.15507 132.5412 156.21185 139.88728" stroke="black" stroke-linecap="butt" stroke-linejoin="round" stroke-width=".965"/>
        </g>
        <g id="Graphic_115">
          <title>path9118</title>
          <path d="M 175.54451 122.42443 C 175.72803 125.41282 177.1134 127.96138 177.28041 130.66998 C 178.27966 132.57494 179.15772 133.38917 179.88427 132.83987 C 181.59893 130.81876 181.91399 136.26216 182.89548 138.15128" stroke="black" stroke-linecap="butt" stroke-linejoin="round" stroke-width=".965"/>
        </g>
        <g id="Graphic_114">
          <title>path9120</title>
          <path d="M 160.35534 143.11063 C 159.96958 144.9444 159.36684 146.50224 159.19807 147.88438 C 159.03799 152.2313 160.4301 152.76834 162.38056 151.93482 C 162.7249 154.6253 159.02595 155.44604 160.05647 160.56572" stroke="black" stroke-linecap="butt" stroke-linejoin="round" stroke-width=".765"/>
        </g>
        <g id="Graphic_113">
          <title>path9122</title>
          <path d="M 173.08531 140.36213 C 171.09965 142.48378 170.74041 144.60544 171.06009 146.7271 C 172.0939 148.1819 173.01629 149.72027 175.54451 150.05426 C 176.0062 152.71592 172.80587 155.37758 170.7915 158.03924" stroke="black" stroke-linecap="butt" stroke-linejoin="round" stroke-width=".765"/>
        </g>
        <g id="Graphic_112">
          <title>path9124</title>
          <path d="M 188.41914 143.2553 C 185.71183 145.61806 185.80686 147.98081 186.53857 150.34357 C 188.6238 155.46057 186.25696 156.12549 185.76955 158.66985" stroke="black" stroke-linecap="butt" stroke-linejoin="round" stroke-width=".765"/>
        </g>
        <g id="Graphic_111">
          <title>path9126</title>
          <path d="M 198.54525 151.6455 C 201.24613 154.54295 199.01021 155.38337 197.24332 156.41923 C 195.73517 156.97205 196.5794 160.3577 194.53575 161.25726" stroke="black" stroke-linecap="butt" stroke-linejoin="round" stroke-width=".765"/>
        </g>
        <g id="Graphic_110">
          <title>path9128</title>
          <path d="M 211.27522 156.70855 C 207.31505 161.77698 208.86222 164.27533 207.67236 168.05094" stroke="black" stroke-linecap="butt" stroke-linejoin="round" stroke-width=".665"/>
        </g>
        <g id="Graphic_109">
          <title>path9130</title>
          <path d="M 221.69066 160.32504 C 219.4671 162.6083 215.75471 165.40334 219.3761 165.6774 C 223.7627 165.742 217.26234 170.90969 216.04452 173.60128" stroke="black" stroke-linecap="butt" stroke-linejoin="round" stroke-width=".565"/>
        </g>
        <g id="Graphic_108">
          <title>path9132</title>
          <path d="M 230.2255 167.70262 C 231.16803 172.64723 228.9489 175.2052 227.95413 177.93802" stroke="black" stroke-linecap="butt" stroke-linejoin="round" stroke-width=".465"/>
        </g>
        <g id="Graphic_107">
          <title>path9134</title>
          <path d="M 240.35163 174.06761 C 240.90296 176.69254 237.41508 175.56267 236.73517 178.84134" stroke="black" stroke-linecap="round" stroke-linejoin="round" stroke-width=".565"/>
        </g>
        <g id="Graphic_106">
          <title>path9136</title>
          <path d="M 248.99186 191.82673 C 248.80768 194.1598 250.27763 194.92077 250.91172 193.16256 C 252.87823 192.66385 252.41058 187.19445 255.39614 186.0743 C 257.51863 185.9032 257.5807 184.81639 264.22033 186.65292 C 266.17883 187.6717 266.63603 189.19091 264.50964 191.57132 C 261.46414 194.202 259.0854 194.49902 256.5534 195.33246 C 254.05356 198.34939 252.7511 202.29762 248.01854 203.578 C 241.67013 205.63249 239.44826 210.01937 239.3587 215.61146" stroke="black" stroke-linecap="butt" stroke-linejoin="round" stroke-width=".765"/>
        </g>
        <g id="Graphic_105">
          <title>path9138</title>
          <path d="M 232.97405 178.11807 L 237.74004 179.44975 C 238.8993 178.79168 240.0586 178.5715 241.21787 179.44975 C 242.46657 178.8019 243.8696 178.15409 245.30944 177.50625 C 245.01207 180.618 246.15977 181.20085 248.17354 180.26806 C 250.2001 179.22457 250.94657 180.37553 251.65137 181.59781 C 253.6923 179.10876 255.26744 178.79326 256.1521 181.70007 C 259.66196 180.2074 262.49327 181.20275 264.84668 183.95046" stroke="black" stroke-linecap="round" stroke-linejoin="round" stroke-width=".865"/>
        </g>
        <g id="Graphic_104">
          <title>path9142</title>
          <path d="M 239.3587 215.61146 C 259.42253 195.36062 280.83042 194.88673 302.79597 202.61824 C 305.43593 203.36033 308.00494 201.7905 310.1608 201.4419" stroke="black" stroke-linecap="butt" stroke-linejoin="round" stroke-width=".665"/>
        </g>
        <g id="Graphic_103">
          <title>path9144</title>
          <path d="M 270.296 178.11805 C 272.7262 181.63062 272.4374 185.1432 272.2115 188.65577 C 271.41094 191.22543 270.38623 192.56223 269.04053 192.1336 C 265.33804 191.70956 264.43952 197.15302 263.82734 200.1239" stroke="black" stroke-linecap="butt" stroke-linejoin="round" stroke-width=".865"/>
        </g>
        <g id="Graphic_102">
          <title>path9146</title>
          <path d="M 283.89392 182.1685 C 283.34262 184.69263 281.38653 187.01762 280.39463 189.37179 C 287.81526 188.4727 280.79477 194.79417 279.98146 198.01206" stroke="black" stroke-linecap="butt" stroke-linejoin="round" stroke-width=".765"/>
        </g>
        <g id="Graphic_101">
          <title>path9148</title>
          <path d="M 297.9258 185.351 C 293.99607 185.6856 291.5191 190.26975 293.38536 190.49697 C 297.81484 191.20146 291.61398 196.576 291.18434 199.3472" stroke="black" stroke-linecap="butt" stroke-linejoin="round" stroke-width=".765"/>
        </g>
        <g id="Graphic_100">
          <title>path9150</title>
          <path d="M 309.4985 189.40144 C 307.8173 189.50278 306.79575 190.39568 306.47837 192.1336 C 306.4799 194.77713 307.74446 194.68026 308.2173 196.02059 C 307.16126 198.20753 305.85913 199.164 304.53487 200.00987" stroke="black" stroke-linecap="round" stroke-linejoin="round" stroke-width=".765"/>
        </g>
        <g id="Graphic_99">
          <title>path9152</title>
          <path d="M 319.5714 189.67865 C 317.84217 190.04715 317.2887 192.37522 316.29813 193.9748 C 318.79 193.91096 322.19775 193.02267 319.4691 197.65722 C 319.2374 200.57837 316.9323 200.04388 315.17295 200.41902" stroke="black" stroke-linecap="round" stroke-linejoin="round" stroke-width=".665"/>
        </g>
        <g id="Graphic_98">
          <title>path9154</title>
          <path d="M 328.8257 199.09407 C 329.79027 194.7298 332.8472 194.46956 332.45983 192.1336 C 331.46346 191.40115 327.7886 192.51722 327.44766 191.62216 C 327.35535 190.45738 331.84864 188.5367 332.16057 184.52324" stroke="black" stroke-linecap="butt" stroke-linejoin="round" stroke-width=".565"/>
        </g>
        <g id="Graphic_97">
          <title>path9156</title>
          <path d="M 117.39169 144.41257 C 116.25411 147.84227 114.65922 150.9061 111.60534 152.80277 C 108.9711 155.0646 109.46968 158.4475 113.05193 155.69596 C 119.46576 153.03085 123.6232 143.99343 131.74898 143.56425" stroke="black" stroke-linecap="butt" stroke-linejoin="round" stroke-width=".665"/>
        </g>
        <g id="Graphic_96">
          <title>path9158</title>
          <path d="M 155.94325 125.10062 C 156.44024 130.10845 154.44312 134.75999 153.6777 139.58749" stroke="black" stroke-linecap="butt" stroke-linejoin="round" stroke-width=".765"/>
        </g>
        <g id="Graphic_95">
          <title>path9160</title>
          <path d="M 149.57826 126.11323 C 148.38602 130.19115 148.74824 134.35073 148.13471 137.92033" stroke="black" stroke-linecap="round" stroke-linejoin="round" stroke-width=".765"/>
        </g>
        <g id="Graphic_94">
          <title>path9162</title>
          <path d="M 191.60163 122.85842 C 184.3269 130.09271 185.94048 134.08252 186.14031 140.01607" stroke="black" stroke-linecap="butt" stroke-linejoin="round" stroke-width=".765"/>
        </g>
        <g id="Graphic_93">
          <title>path9164</title>
          <path d="M 211.13056 136.89031 C 208.1866 140.77981 208.1678 144.18177 207.38546 147.711" stroke="black" stroke-linecap="butt" stroke-linejoin="round" stroke-width=".665"/>
        </g>
        <g id="Graphic_92">
          <title>path9166</title>
          <path d="M 222.41394 140.36211 C 216.60692 143.84749 217.2601 149.62519 217.21274 155.1543" stroke="black" stroke-linecap="butt" stroke-linejoin="round" stroke-width=".665"/>
        </g>
        <g id="Graphic_91">
          <title>path9170</title>
          <path d="M 231.6721 148.75233 C 225.26996 151.80695 226.8415 156.26867 226.61916 160.41384" stroke="black" stroke-linecap="butt" stroke-linejoin="round" stroke-width=".665"/>
        </g>
        <g id="Graphic_90">
          <title>path9172</title>
          <path d="M 239.19435 157.14253 C 238.68183 156.81763 238.03557 158.36515 237.33088 160.73081" stroke="black" stroke-linecap="round" stroke-linejoin="round" stroke-width=".665"/>
        </g>
        <g id="Graphic_89">
          <title>path9174</title>
          <path d="M 250.47774 164.37548 C 251.47857 167.84339 251.1231 170.58794 249.231 172.51298" stroke="black" stroke-linecap="butt" stroke-linejoin="round" stroke-width=".665"/>
        </g>
        <g id="Graphic_88">
          <title>path9176</title>
          <path d="M 279.6988 163.50752 C 278.21647 168.81021 272.50434 171.11455 270.296 178.11805" stroke="black" stroke-linecap="butt" stroke-linejoin="round" stroke-width=".665"/>
        </g>
        <g id="Graphic_87">
          <title>path9178</title>
          <path d="M 288.95698 170.16182 C 287.68153 172.7815 285.86393 175.40116 284.0571 178.02083" stroke="black" stroke-linecap="butt" stroke-linejoin="round" stroke-width=".565"/>
        </g>
        <g id="Graphic_86">
          <title>path9180</title>
          <path d="M 300.24035 174.50158 C 299.7367 178.61787 300.205 181.11433 300.4763 183.93894" stroke="black" stroke-linecap="butt" stroke-linejoin="round" stroke-width=".565"/>
        </g>
        <g id="Graphic_85">
          <title>path9182</title>
          <path d="M 312.10237 179.41999 C 312.6762 181.94419 309.34613 183.60087 307.74382 185.64148" stroke="black" stroke-linecap="butt" stroke-linejoin="round" stroke-width=".565"/>
        </g>
        <g id="Graphic_84">
          <title>path9184</title>
          <path d="M 324.54302 179.13067 C 323.73584 179.53673 323.0722 180.37348 322.53777 181.59781" stroke="black" stroke-linecap="round" stroke-linejoin="round" stroke-width=".565"/>
        </g>
        <g id="Graphic_83">
          <title>path9186</title>
          <path d="M 327.63423 186.9473 C 327.39583 184.77544 326.6554 182.20885 330.0049 180.37034" stroke="black" stroke-linecap="round" stroke-linejoin="round" stroke-width=".465"/>
        </g>
        <g id="Graphic_82">
          <title>path9188</title>
          <path d="M 132.65338 222.73864 C 129.35707 227.3752 127.72255 233.2174 125.11965 238.06143" stroke="black" stroke-linecap="round" stroke-linejoin="round" stroke-width=".465"/>
        </g>
        <g id="Graphic_81">
          <title>path9190</title>
          <path d="M 137.06528 224.11954 C 134.0722 230.07306 130.35582 237.1141 127.36274 241.36678" stroke="black" stroke-linecap="round" stroke-linejoin="round" stroke-width=".465"/>
        </g>
        <g id="Graphic_80">
          <title>path9192</title>
          <path d="M 139.23017 226.60876 C 137.17384 231.6492 135.15511 236.72095 131.97302 240.82324" stroke="black" stroke-linecap="round" stroke-linejoin="round" stroke-width=".465"/>
        </g>
        <g id="Graphic_79">
          <title>path9194</title>
          <path d="M 131.05242 163.79948 C 131.02875 165.58293 130.90239 167.26368 131.66615 169.83455" stroke="black" stroke-linecap="round" stroke-linejoin="round" stroke-width=".665"/>
        </g>
        <g id="Graphic_78">
          <title>path9196</title>
          <path d="M 135.75772 161.95828 C 135.0758 164.27684 135.0758 166.32263 135.75772 168.09565" stroke="black" stroke-linecap="round" stroke-linejoin="round" stroke-width=".765"/>
        </g>
        <g id="Graphic_77">
          <title>path9198</title>
          <path d="M 140.7699 160.52624 C 140.5136 162.8471 140.44758 164.40681 140.46302 165.6407" stroke="black" stroke-linecap="round" stroke-linejoin="round" stroke-width=".665"/>
        </g>
        <g id="Graphic_76">
          <title>path9200</title>
          <line x1="145.67977" y1="158.27588" x2="144.5546" y2="164.7201" stroke="black" stroke-linecap="round" stroke-linejoin="round" stroke-width=".765"/>
        </g>
        <g id="Graphic_75">
          <title>path9202</title>
          <line x1="150.0782" y1="157.86672" x2="148.85074" y2="162.6743" stroke="black" stroke-linecap="round" stroke-linejoin="round" stroke-width=".665"/>
        </g>
        <g id="Graphic_74">
          <title>path9204</title>
          <line x1="154.8858" y1="156.33239" x2="154.37435" y2="160.21938" stroke="black" stroke-linecap="round" stroke-linejoin="round" stroke-width=".865"/>
        </g>
        <g id="Graphic_73">
          <title>path9206</title>
          <path d="M 124.09675 164.20866 C 125.97423 159.14237 126.4001 153.78576 126.96085 148.45612" stroke="black" stroke-linecap="round" stroke-linejoin="round" stroke-width=".565"/>
        </g>
        <g id="Graphic_72">
          <title>path9208</title>
          <path d="M 121.02808 162.8789 C 122.11818 159.13645 123.10074 155.35367 122.05097 150.80877" stroke="black" stroke-linecap="round" stroke-linejoin="round" stroke-width=".565"/>
        </g>
        <g id="Graphic_71">
          <title>path9210</title>
          <path d="M 118.47085 161.65142 C 118.85363 159.57154 118.78121 157.49166 116.73193 155.41178" stroke="black" stroke-linecap="round" stroke-linejoin="round" stroke-width=".565"/>
        </g>
        <g id="Graphic_70">
          <title>path9212</title>
          <path d="M 152.84002 142.8302 C 151.68314 145.68038 153.03655 149.56925 150.69194 152.24081" stroke="black" stroke-linecap="round" stroke-linejoin="round" stroke-width=".665"/>
        </g>
        <g id="Graphic_69">
          <title>path9214</title>
          <path d="M 156.01098 142.42105 C 156.8246 145.01238 155.71937 147.6037 155.29495 150.19503" stroke="black" stroke-linecap="round" stroke-linejoin="round" stroke-width=".565"/>
        </g>
        <g id="Graphic_68">
          <title>path9216</title>
          <path d="M 166.54677 155.2072 C 166.63612 153.73518 166.40868 152.22356 168.59255 151.01334" stroke="black" stroke-linecap="round" stroke-linejoin="round" stroke-width=".865"/>
        </g>
        <g id="Graphic_67">
          <title>path9218</title>
          <path d="M 179.63978 156.02552 C 178.94423 153.58618 179.77263 151.58224 180.96954 149.68359" stroke="black" stroke-linecap="round" stroke-linejoin="round" stroke-width=".965"/>
        </g>
        <g id="Graphic_66">
          <title>path9222</title>
          <path d="M 191.91448 158.17359 C 191.15326 155.50852 191.7235 153.50917 193.14195 151.93395" stroke="black" stroke-linecap="round" stroke-linejoin="round" stroke-width=".665"/>
        </g>
        <g id="Graphic_65">
          <title>path9224</title>
          <path d="M 204.18693 125.89624 C 197.95161 130.06139 200.58108 136.36914 199.63342 142.86087" stroke="black" stroke-linecap="butt" stroke-linejoin="round" stroke-width=".765"/>
        </g>
        <g id="Graphic_64">
          <title>path9226</title>
          <path d="M 189.8687 137.61347 C 189.79448 132.37262 190.18218 128.97943 191.19846 128.10057" stroke="black" stroke-linecap="round" stroke-linejoin="round" stroke-width=".665"/>
        </g>
        <g id="Graphic_63">
          <title>path9228</title>
          <path d="M 193.6534 139.55696 C 193.50134 136.20676 195.87973 132.63939 194.88087 129.53261" stroke="black" stroke-linecap="round" stroke-linejoin="round" stroke-width=".765"/>
        </g>
        <g id="Graphic_62">
          <title>path9230</title>
          <path d="M 204.29148 144.05768 C 205.60292 140.57068 203.87113 136.78955 205.62124 134.13562" stroke="black" stroke-linecap="round" stroke-linejoin="round" stroke-width=".765"/>
        </g>
        <g id="Graphic_61">
          <title>path9232</title>
          <path d="M 214.62268 140.37528 C 212.83 143.57293 212.88715 146.40061 212.345 149.34814" stroke="black" stroke-linecap="round" stroke-linejoin="round" stroke-width=".665"/>
        </g>
        <g id="Graphic_60">
          <title>path9234</title>
          <path d="M 220.01018 155.07984 C 219.58163 146.68999 226.08904 145.18907 228.34537 141.04456" stroke="black" stroke-linecap="butt" stroke-linejoin="round" stroke-width=".465"/>
        </g>
        <g id="Graphic_59">
          <title>path9236</title>
          <path d="M 226.4644 147.73971 C 224.52949 148.43762 223.89106 150.22457 224.36683 152.94743" stroke="black" stroke-linecap="round" stroke-linejoin="round" stroke-width=".665"/>
        </g>
        <g id="Graphic_58">
          <title>path9238</title>
          <path d="M 199.17702 160.32167 C 202.42692 160.0197 201.0803 155.711 203.47316 155.2072" stroke="black" stroke-linecap="round" stroke-linejoin="round" stroke-width=".465"/>
        </g>
        <g id="Graphic_57">
          <title>path9240</title>
          <path d="M 205.51895 156.1278 C 206.09007 157.66214 205.2313 159.19647 204.18918 160.73081" stroke="black" stroke-linecap="round" stroke-linejoin="round" stroke-width=".365"/>
        </g>
        <g id="Graphic_56">
          <title>path9242</title>
          <path d="M 213.4975 160.32167 C 211.92203 161.52945 211.7494 164.54548 211.86087 166.76588" stroke="black" stroke-linecap="round" stroke-linejoin="round" stroke-width=".365"/>
        </g>
        <g id="Graphic_55">
          <title>path9244</title>
          <path d="M 215.33871 163.18576 C 213.6558 163.55686 213.70299 166.30683 213.4975 168.70937" stroke="black" stroke-linecap="round" stroke-linejoin="round" stroke-width=".365"/>
        </g>
        <g id="Graphic_54">
          <title>path9246</title>
          <line x1="221.76298" y1="174.57392" x2="225.59645" y2="167.63029" stroke="black" stroke-linecap="round" stroke-linejoin="round" stroke-width=".465"/>
        </g>
        <g id="Graphic_53">
          <title>path9248</title>
          <path d="M 226.82603 169.80017 C 226.32814 171.64878 226.95585 174.06019 225.09014 175.22488" stroke="black" stroke-linecap="round" stroke-linejoin="round" stroke-width=".365"/>
        </g>
        <g id="Graphic_52">
          <title>path9250</title>
          <path d="M 232.97405 178.11807 C 232.77194 176.22195 232.60587 174.32861 234.8546 172.62102" stroke="black" stroke-linecap="round" stroke-linejoin="round" stroke-width=".565"/>
        </g>
        <g id="Graphic_51">
          <title>path9252</title>
          <path d="M 250.6224 172.91035 C 248.31184 177.3547 251.67674 177.27996 250.17197 179.96877" stroke="black" stroke-linecap="butt" stroke-linejoin="round" stroke-width=".565"/>
        </g>
        <g id="Graphic_50">
          <title>path9254</title>
          <path d="M 231.59978 152.3688 C 229.13346 153.04324 230.10153 155.6802 230.1532 157.7935" stroke="black" stroke-linecap="round" stroke-linejoin="round" stroke-width=".465"/>
        </g>
        <g id="Graphic_49">
          <title>path9256</title>
          <path d="M 234.56527 156.34692 C 233.25302 159.75985 234.47954 162.18975 235.65022 164.30314" stroke="black" stroke-linecap="round" stroke-linejoin="round" stroke-width=".665"/>
        </g>
        <g id="Graphic_48">
          <title>path9258</title>
          <path d="M 240.71327 160.542 C 240.20697 162.18741 239.70066 163.35591 239.19435 164.2308 C 240.86328 163.8764 241.18267 164.73658 240.93026 166.11138" stroke="black" stroke-linecap="round" stroke-linejoin="round" stroke-width=".665"/>
        </g>
        <g id="Graphic_47">
          <title>path9260</title>
          <path d="M 246.13798 162.27792 C 245.41937 163.36908 243.38755 164.64785 245.12537 165.3881 C 247.03385 166.79887 245.0753 168.20963 243.22994 169.62041" stroke="black" stroke-linecap="round" stroke-linejoin="round" stroke-width=".565"/>
        </g>
        <g id="Graphic_46">
          <title>path9262</title>
          <path d="M 260.4592 170.30648 C 258.9908 169.2281 259.14705 167.60818 258.8116 166.15215" stroke="black" stroke-linecap="round" stroke-linejoin="round" stroke-width=".565"/>
        </g>
        <g id="Graphic_45">
          <title>path9264</title>
          <path d="M 263.78634 163.79684 C 263.8661 164.9117 263.32982 166.12922 262.59632 167.3796" stroke="black" stroke-linecap="round" stroke-linejoin="round" stroke-width=".765"/>
        </g>
        <g id="Graphic_44">
          <title>path9266</title>
          <path d="M 185.36797 124.21358 C 184.68014 128.46418 186.2726 134.46886 182.22465 136.13475" stroke="black" stroke-linecap="round" stroke-linejoin="round" stroke-width=".465"/>
        </g>
        <g id="Graphic_43">
          <title>path9268</title>
          <path d="M 97.21655 226.05074 C 103.26975 224.87634 107.13077 221.19662 109.36711 215.66011" stroke="black" stroke-linecap="round" stroke-linejoin="round" stroke-width=".465"/>
        </g>
        <g id="Graphic_42">
          <title>path9270</title>
          <path d="M 100.47715 220.01555 C 103.39467 221.71792 105.87305 216.3941 108.5488 214.22807" stroke="black" stroke-linecap="round" stroke-linejoin="round" stroke-width=".465"/>
        </g>
        <g id="Graphic_41">
          <title>path9272</title>
          <path d="M 86.96654 183.65014 C 82.46556 185.20872 78.57832 185.78165 73.46361 184.66648" stroke="black" stroke-linecap="round" stroke-linejoin="round" stroke-width=".565"/>
        </g>
        <g id="Graphic_40">
          <title>path9274</title>
          <path d="M 86.26945 178.4549 C 78.72722 180.94214 74.23334 177.6662 66.22065 180.5923" stroke="black" stroke-linecap="butt" stroke-linejoin="round" stroke-width=".665"/>
        </g>
        <g id="Graphic_39">
          <title>path9276</title>
          <path d="M 86.04518 177.50624 C 89.68957 174.13776 90.3501 167.48599 102.20687 173.61926" stroke="black" stroke-linecap="butt" stroke-linejoin="round" stroke-width=".565"/>
        </g>
        <g id="Graphic_38">
          <title>path9278</title>
          <path d="M 86.96578 182.6207 C 90.07467 181.0242 96.99925 173.50697 102.30916 180.6772" stroke="black" stroke-linecap="butt" stroke-linejoin="round" stroke-width=".565"/>
        </g>
        <g id="Graphic_37">
          <title>path9280</title>
          <path d="M 86.24975 187.01914 C 91.12781 186.58504 96.38063 182.02848 100.77482 186.91687" stroke="black" stroke-linecap="butt" stroke-linejoin="round" stroke-width=".565"/>
        </g>
        <g id="Graphic_36">
          <title>path9282</title>
          <path d="M 85.02229 190.49697 C 89.14744 192.222 94.90492 190.18308 97.29699 193.66793" stroke="black" stroke-linecap="butt" stroke-linejoin="round" stroke-width=".665"/>
        </g>
        <g id="Graphic_35">
          <title>path9284</title>
          <path d="M 104.04808 166.5613 C 106.53336 164.8816 104.46178 159.41847 108.95796 156.84382" stroke="black" stroke-linecap="butt" stroke-linejoin="round" stroke-width=".565"/>
        </g>
        <g id="Graphic_34">
          <title>path9286</title>
          <path d="M 105.58241 171.67575 C 110.3904 171.66198 111.9528 166.72724 116.1182 168.5048" stroke="black" stroke-linecap="butt" stroke-linejoin="round" stroke-width=".565"/>
        </g>
        <g id="Graphic_33">
          <title>path9288</title>
          <path d="M 107.01446 180.98408 C 111.69015 176.23004 115.14015 181.6901 119.08458 183.02985" stroke="black" stroke-linecap="butt" stroke-linejoin="round" stroke-width=".565"/>
        </g>
        <g id="Graphic_32">
          <title>path9290</title>
          <path d="M 106.80988 185.28023 C 111.36156 194.09817 117.04838 184.7196 118.57314 190.70155" stroke="black" stroke-linecap="butt" stroke-linejoin="round" stroke-width=".565"/>
        </g>
        <g id="Graphic_31">
          <title>path9292</title>
          <path d="M 104.55952 193.87252 C 107.47558 199.0979 113.81619 196.8974 116.32278 198.88469" stroke="black" stroke-linecap="butt" stroke-linejoin="round" stroke-width=".565"/>
        </g>
        <g id="Graphic_30">
          <title>path9294</title>
          <path d="M 94.84204 197.45263 C 97.21251 198.93257 100.00303 195.57166 102.61602 196.63433" stroke="black" stroke-linecap="butt" stroke-linejoin="round" stroke-width=".365"/>
        </g>
        <g id="Graphic_29">
          <title>path9296</title>
          <path d="M 99.44506 191.00842 C 101.95088 191.55156 104.79105 186.85809 106.80988 186.20082" stroke="black" stroke-linecap="butt" stroke-linejoin="round" stroke-width=".365"/>
        </g>
        <g id="Graphic_28">
          <title>path9298</title>
          <path d="M 102.51373 182.723 C 103.87728 182.09438 105.09749 178.37585 106.70759 177.50624" stroke="black" stroke-linecap="butt" stroke-linejoin="round" stroke-width=".365"/>
        </g>
        <g id="Graphic_27">
          <title>path9300</title>
          <path d="M 102.61602 174.0284 C 104.14595 174.05566 104.13951 170.3718 105.17326 169.93685" stroke="black" stroke-linecap="butt" stroke-linejoin="round" stroke-width=".365"/>
        </g>
        <g id="Graphic_26">
          <title>path9302</title>
          <path d="M 100.67253 169.73228 C 102.51214 169.4572 100.90124 165.45868 102.51373 163.49262" stroke="black" stroke-linecap="butt" stroke-linejoin="round" stroke-width=".365"/>
        </g>
      </g>
    </g>
  </g>
</svg>
