<?xml version="1.0" encoding="UTF-8" standalone="no"?>
<!DOCTYPE svg PUBLIC "-//W3C//DTD SVG 1.1//EN" "http://www.w3.org/Graphics/SVG/1.1/DTD/svg11.dtd">
<svg xmlns="http://www.w3.org/2000/svg" xmlns:xl="http://www.w3.org/1999/xlink" version="1.1" xmlns:dc="http://purl.org/dc/elements/1.1/" viewBox="45 63 274.5 351" width="274.5" height="351">
  <defs>
    <clipPath id="artboard_clip_path">
      <path d="M 45 63 L 319.5 63 L 319.5 360 L 281.4923 414 L 45 414 Z"/>
    </clipPath>
    <clipPath id="inner_stroke_clip_path">
      <path d="M 158.26318 106.00413 C 158.26318 106.00413 177.1886 119.13985 181.10368 124.9782 L 181.10368 122.05792 C 181.10368 122.05792 163.93794 106.65186 158.26318 106.00413 Z M 255.0702 241.56735 C 265.2318 235.7777 276.804 229.53628 289.9817 222.83644 C 289.9817 222.83644 207.17497 257.08835 184.38877 286.9613 L 184.2847 276.5634 C 190.48898 270.14152 205.09314 260.0051 205.09314 260.0051 C 200.61127 260.51666 188.96168 270.23402 184.26202 274.29678 L 183.56051 204.20331 C 188.67452 197.99891 205.66538 186.20594 205.66538 186.20594 C 200.68064 186.7749 186.82952 198.73133 183.53476 201.6306 L 183.41729 189.89246 C 193.85294 176.85875 230.55243 151.38644 230.55243 151.38644 L 230.55243 151.38644 C 219.82765 152.61058 189.7272 178.71966 183.36167 184.33502 L 182.76066 124.28399 C 187.57518 118.16296 205.09314 106.00413 205.09314 106.00413 L 205.09314 106.00413 C 199.98294 106.58742 185.55437 119.13865 182.7341 121.63019 L 182.16985 65.25122 C 182.16985 65.25122 181.45347 119.65367 180.68769 184.00914 C 173.6054 177.77972 144.39693 152.58835 133.86688 151.38644 L 133.86688 151.38644 C 133.86688 151.38644 169.70896 176.26363 180.62338 189.4279 C 180.57722 193.32657 180.53095 197.25668 180.48472 201.20861 C 176.49805 197.72547 163.6061 186.75047 158.83542 186.20594 C 158.83542 186.20594 174.83654 197.31196 180.45634 203.63885 C 180.17984 227.33507 179.90562 251.74134 179.66467 274.79162 C 175.41717 271.093 162.93916 260.53882 158.26318 260.0051 C 158.26318 260.0051 173.81562 270.7997 179.63991 277.1672 C 179.60536 280.4904 179.57153 283.78373 179.53852 287.04086 C 156.83885 257.1492 73.88504 222.83644 73.88504 222.83644 L 73.88504 222.83644 C 87.06276 229.53628 98.63496 235.7777 108.79655 241.56735 C 104.39252 250.6234 82.81518 253.7522 82.81512 253.7522 L 82.81512 253.7522 C 82.81512 253.7522 82.81512 253.7522 82.81512 253.7522 L 82.81512 253.7522 C 96.85974 252.5056 110.62218 245.30199 113.02128 243.9952 C 159.3854 270.87387 174.58159 287.5927 179.46013 294.8631 C 179.42613 298.29552 179.39317 301.68033 179.36134 305.00975 C 174.3702 300.6594 159.31912 287.90532 153.69905 287.26384 L 153.69905 287.26384 C 153.69905 287.26384 172.4444 300.27457 179.33416 307.87088 C 179.18316 323.84964 179.05983 338.4746 178.97744 350.8604 C 170.9159 347.12737 145.74313 328.84177 105.19885 330.4516 C 105.19885 330.4516 148.38935 336.0893 178.94724 355.60564 C 178.82378 375.9682 178.82776 389.2997 179.0277 391.03286 C 180.05792 399.96294 187.61594 415.4208 200.66687 410.9581 C 213.72249 406.49074 199.06067 397.9025 196.42895 398.5909 C 182.77393 402.1545 185.43376 391.3747 185.43376 391.3747 L 185.07587 355.61563 C 215.5285 336.8468 257.34735 331.38817 257.34735 331.38817 C 219.00095 329.8656 194.40466 346.1399 185.03035 351.06708 L 184.59197 307.26507 C 191.88448 299.60397 209.66366 287.26384 209.66366 287.26384 L 209.66366 287.26384 C 204.24126 287.88276 190.03962 299.7772 184.5645 304.5204 L 184.46696 294.77348 C 189.4099 287.45587 204.67085 270.764 250.84547 243.9952 C 253.24457 245.30199 267.007 252.5056 281.05163 253.7522 L 281.05163 253.7522 L 281.05163 253.7522 C 281.05157 253.7522 259.47422 250.6234 255.0702 241.56735 Z"/>
    </clipPath>
  </defs>
  <g id="Oak_Leaf_(7)" stroke-opacity="1" fill="none" fill-opacity="1" stroke-dasharray="none" stroke="none">
    <title>Oak Leaf (7)</title>
    <g id="Oak_Leaf_(7)_Art" clip-path="url(#artboard_clip_path)">
      <title>Art</title>
      <g id="Group_53">
        <g id="Group_55">
          <g id="Graphic_57">
            <path d="M 182.25 65.249996 C 182.25 65.249996 192.84715 103.37726 199.37496 100.63315 C 205.90277 97.88435 206.2446 88.94959 213.11426 93.07513 C 219.98391 97.19598 213.11426 105.78422 208.30504 117.4631 C 203.49581 129.14197 212.4259 139.79063 230.63258 131.2024 C 248.83926 122.61884 268.07616 141.16737 253.995 149.40908 C 239.90918 157.65547 189.7565 181.35975 224.79314 219.83355 C 224.79314 219.83355 244.37656 240.10066 277.6946 204.02913 C 277.6946 204.02913 286.62937 194.7572 286.28284 208.49651 C 286.28284 208.49651 295.9013 207.11977 301.74073 200.25012 C 307.5825 193.38047 327.16312 200.59665 312.73545 217.76844 C 298.30824 234.9449 280.4434 236.32165 294.52923 252.4679 C 308.6132 268.60948 307.23926 269.6397 301.74073 271.7048 C 296.2478 273.76523 293.1525 273.07686 282.50383 270.32806 C 271.85517 267.57926 232.6977 287.84638 235.09996 303.30894 C 237.5069 318.76683 259.83445 322.8877 268.76453 325.28996 C 277.6946 327.6969 284.56894 351.02657 226.16988 353.087 C 226.16988 353.087 183.81405 360.3781 183.1772 385.72135 C 182.54033 411.0693 182.25 65.249996 182.25 65.249996 Z" fill="#FFFFFF"/>
            <path d="M 182.25 65.249996 C 182.25 65.249996 192.84715 103.37726 199.37496 100.63315 C 205.90277 97.88435 206.2446 88.94959 213.11426 93.07513 C 219.98391 97.19598 213.11426 105.78422 208.30504 117.4631 C 203.49581 129.14197 212.4259 139.79063 230.63258 131.2024 C 248.83926 122.61884 268.07616 141.16737 253.995 149.40908 C 239.90918 157.65547 189.7565 181.35975 224.79314 219.83355 C 224.79314 219.83355 244.37656 240.10066 277.6946 204.02913 C 277.6946 204.02913 286.62937 194.7572 286.28284 208.49651 C 286.28284 208.49651 295.9013 207.11977 301.74073 200.25012 C 307.5825 193.38047 327.16312 200.59665 312.73545 217.76844 C 298.30824 234.9449 280.4434 236.32165 294.52923 252.4679 C 308.6132 268.60948 307.23926 269.6397 301.74073 271.7048 C 296.2478 273.76523 293.1525 273.07686 282.50383 270.32806 C 271.85517 267.57926 232.6977 287.84638 235.09996 303.30894 C 237.5069 318.76683 259.83445 322.8877 268.76453 325.28996 C 277.6946 327.6969 284.56894 351.02657 226.16988 353.087 C 226.16988 353.087 183.81405 360.3781 183.1772 385.72135 C 182.54033 411.0693 182.25 65.249996 182.25 65.249996 Z" stroke="black" stroke-linecap="butt" stroke-linejoin="round" stroke-width="3"/>
          </g>
          <g id="Graphic_56">
            <path d="M 182.25 65.249996 C 182.25 65.249996 171.65285 103.37726 165.12504 100.63315 C 158.59723 97.88435 158.25539 88.94959 151.38574 93.07513 C 144.51609 97.19598 151.38574 105.78422 156.19496 117.4631 C 161.00419 129.14197 152.0741 139.79063 133.86742 131.2024 C 115.66074 122.61884 96.42384 141.16737 110.50499 149.40908 C 124.59082 157.65547 174.74349 181.35975 139.70686 219.83355 C 139.70686 219.83355 120.12344 240.10066 86.80539 204.02913 C 86.80539 204.02913 77.87063 194.7572 78.21716 208.49651 C 78.21716 208.49651 68.59871 207.11977 62.75927 200.25012 C 56.91749 193.38047 37.336877 200.59665 51.76455 217.76844 C 66.191755 234.9449 84.0566 236.32165 69.97077 252.4679 C 55.88681 268.60948 57.26074 269.6397 62.75927 271.7048 C 68.25218 273.76523 71.34751 273.07686 81.99617 270.32806 C 92.64483 267.57926 131.80231 287.84638 129.40004 303.30894 C 126.99309 318.76683 104.66555 322.8877 95.73547 325.28996 C 86.80539 327.6969 79.93106 351.02657 138.33012 353.087 C 138.33012 353.087 180.68595 360.3781 181.3228 385.72135 C 181.95967 411.0693 182.25 65.249996 182.25 65.249996 Z" fill="#FFFFFF"/>
            <path d="M 182.25 65.249996 C 182.25 65.249996 171.65285 103.37726 165.12504 100.63315 C 158.59723 97.88435 158.25539 88.94959 151.38574 93.07513 C 144.51609 97.19598 151.38574 105.78422 156.19496 117.4631 C 161.00419 129.14197 152.0741 139.79063 133.86742 131.2024 C 115.66074 122.61884 96.42384 141.16737 110.50499 149.40908 C 124.59082 157.65547 174.74349 181.35975 139.70686 219.83355 C 139.70686 219.83355 120.12344 240.10066 86.80539 204.02913 C 86.80539 204.02913 77.87063 194.7572 78.21716 208.49651 C 78.21716 208.49651 68.59871 207.11977 62.75927 200.25012 C 56.91749 193.38047 37.336877 200.59665 51.76455 217.76844 C 66.191755 234.9449 84.0566 236.32165 69.97077 252.4679 C 55.88681 268.60948 57.26074 269.6397 62.75927 271.7048 C 68.25218 273.76523 71.34751 273.07686 81.99617 270.32806 C 92.64483 267.57926 131.80231 287.84638 129.40004 303.30894 C 126.99309 318.76683 104.66555 322.8877 95.73547 325.28996 C 86.80539 327.6969 79.93106 351.02657 138.33012 353.087 C 138.33012 353.087 180.68595 360.3781 181.3228 385.72135 C 181.95967 411.0693 182.25 65.249996 182.25 65.249996 Z" stroke="black" stroke-linecap="butt" stroke-linejoin="round" stroke-width="3"/>
          </g>
        </g>
        <g id="Graphic_54">
          <path d="M 158.26318 106.00413 C 158.26318 106.00413 177.1886 119.13985 181.10368 124.9782 L 181.10368 122.05792 C 181.10368 122.05792 163.93794 106.65186 158.26318 106.00413 Z M 255.0702 241.56735 C 265.2318 235.7777 276.804 229.53628 289.9817 222.83644 C 289.9817 222.83644 207.17497 257.08835 184.38877 286.9613 L 184.2847 276.5634 C 190.48898 270.14152 205.09314 260.0051 205.09314 260.0051 C 200.61127 260.51666 188.96168 270.23402 184.26202 274.29678 L 183.56051 204.20331 C 188.67452 197.99891 205.66538 186.20594 205.66538 186.20594 C 200.68064 186.7749 186.82952 198.73133 183.53476 201.6306 L 183.41729 189.89246 C 193.85294 176.85875 230.55243 151.38644 230.55243 151.38644 L 230.55243 151.38644 C 219.82765 152.61058 189.7272 178.71966 183.36167 184.33502 L 182.76066 124.28399 C 187.57518 118.16296 205.09314 106.00413 205.09314 106.00413 L 205.09314 106.00413 C 199.98294 106.58742 185.55437 119.13865 182.7341 121.63019 L 182.16985 65.25122 C 182.16985 65.25122 181.45347 119.65367 180.68769 184.00914 C 173.6054 177.77972 144.39693 152.58835 133.86688 151.38644 L 133.86688 151.38644 C 133.86688 151.38644 169.70896 176.26363 180.62338 189.4279 C 180.57722 193.32657 180.53095 197.25668 180.48472 201.20861 C 176.49805 197.72547 163.6061 186.75047 158.83542 186.20594 C 158.83542 186.20594 174.83654 197.31196 180.45634 203.63885 C 180.17984 227.33507 179.90562 251.74134 179.66467 274.79162 C 175.41717 271.093 162.93916 260.53882 158.26318 260.0051 C 158.26318 260.0051 173.81562 270.7997 179.63991 277.1672 C 179.60536 280.4904 179.57153 283.78373 179.53852 287.04086 C 156.83885 257.1492 73.88504 222.83644 73.88504 222.83644 L 73.88504 222.83644 C 87.06276 229.53628 98.63496 235.7777 108.79655 241.56735 C 104.39252 250.6234 82.81518 253.7522 82.81512 253.7522 L 82.81512 253.7522 C 82.81512 253.7522 82.81512 253.7522 82.81512 253.7522 L 82.81512 253.7522 C 96.85974 252.5056 110.62218 245.30199 113.02128 243.9952 C 159.3854 270.87387 174.58159 287.5927 179.46013 294.8631 C 179.42613 298.29552 179.39317 301.68033 179.36134 305.00975 C 174.3702 300.6594 159.31912 287.90532 153.69905 287.26384 L 153.69905 287.26384 C 153.69905 287.26384 172.4444 300.27457 179.33416 307.87088 C 179.18316 323.84964 179.05983 338.4746 178.97744 350.8604 C 170.9159 347.12737 145.74313 328.84177 105.19885 330.4516 C 105.19885 330.4516 148.38935 336.0893 178.94724 355.60564 C 178.82378 375.9682 178.82776 389.2997 179.0277 391.03286 C 180.05792 399.96294 187.61594 415.4208 200.66687 410.9581 C 213.72249 406.49074 199.06067 397.9025 196.42895 398.5909 C 182.77393 402.1545 185.43376 391.3747 185.43376 391.3747 L 185.07587 355.61563 C 215.5285 336.8468 257.34735 331.38817 257.34735 331.38817 C 219.00095 329.8656 194.40466 346.1399 185.03035 351.06708 L 184.59197 307.26507 C 191.88448 299.60397 209.66366 287.26384 209.66366 287.26384 L 209.66366 287.26384 C 204.24126 287.88276 190.03962 299.7772 184.5645 304.5204 L 184.46696 294.77348 C 189.4099 287.45587 204.67085 270.764 250.84547 243.9952 C 253.24457 245.30199 267.007 252.5056 281.05163 253.7522 L 281.05163 253.7522 L 281.05163 253.7522 C 281.05157 253.7522 259.47422 250.6234 255.0702 241.56735 Z" fill="#FFFFFF"/>
          <path d="M 158.26318 106.00413 C 158.26318 106.00413 177.1886 119.13985 181.10368 124.9782 L 181.10368 122.05792 C 181.10368 122.05792 163.93794 106.65186 158.26318 106.00413 Z M 255.0702 241.56735 C 265.2318 235.7777 276.804 229.53628 289.9817 222.83644 C 289.9817 222.83644 207.17497 257.08835 184.38877 286.9613 L 184.2847 276.5634 C 190.48898 270.14152 205.09314 260.0051 205.09314 260.0051 C 200.61127 260.51666 188.96168 270.23402 184.26202 274.29678 L 183.56051 204.20331 C 188.67452 197.99891 205.66538 186.20594 205.66538 186.20594 C 200.68064 186.7749 186.82952 198.73133 183.53476 201.6306 L 183.41729 189.89246 C 193.85294 176.85875 230.55243 151.38644 230.55243 151.38644 L 230.55243 151.38644 C 219.82765 152.61058 189.7272 178.71966 183.36167 184.33502 L 182.76066 124.28399 C 187.57518 118.16296 205.09314 106.00413 205.09314 106.00413 L 205.09314 106.00413 C 199.98294 106.58742 185.55437 119.13865 182.7341 121.63019 L 182.16985 65.25122 C 182.16985 65.25122 181.45347 119.65367 180.68769 184.00914 C 173.6054 177.77972 144.39693 152.58835 133.86688 151.38644 L 133.86688 151.38644 C 133.86688 151.38644 169.70896 176.26363 180.62338 189.4279 C 180.57722 193.32657 180.53095 197.25668 180.48472 201.20861 C 176.49805 197.72547 163.6061 186.75047 158.83542 186.20594 C 158.83542 186.20594 174.83654 197.31196 180.45634 203.63885 C 180.17984 227.33507 179.90562 251.74134 179.66467 274.79162 C 175.41717 271.093 162.93916 260.53882 158.26318 260.0051 C 158.26318 260.0051 173.81562 270.7997 179.63991 277.1672 C 179.60536 280.4904 179.57153 283.78373 179.53852 287.04086 C 156.83885 257.1492 73.88504 222.83644 73.88504 222.83644 L 73.88504 222.83644 C 87.06276 229.53628 98.63496 235.7777 108.79655 241.56735 C 104.39252 250.6234 82.81518 253.7522 82.81512 253.7522 L 82.81512 253.7522 C 82.81512 253.7522 82.81512 253.7522 82.81512 253.7522 L 82.81512 253.7522 C 96.85974 252.5056 110.62218 245.30199 113.02128 243.9952 C 159.3854 270.87387 174.58159 287.5927 179.46013 294.8631 C 179.42613 298.29552 179.39317 301.68033 179.36134 305.00975 C 174.3702 300.6594 159.31912 287.90532 153.69905 287.26384 L 153.69905 287.26384 C 153.69905 287.26384 172.4444 300.27457 179.33416 307.87088 C 179.18316 323.84964 179.05983 338.4746 178.97744 350.8604 C 170.9159 347.12737 145.74313 328.84177 105.19885 330.4516 C 105.19885 330.4516 148.38935 336.0893 178.94724 355.60564 C 178.82378 375.9682 178.82776 389.2997 179.0277 391.03286 C 180.05792 399.96294 187.61594 415.4208 200.66687 410.9581 C 213.72249 406.49074 199.06067 397.9025 196.42895 398.5909 C 182.77393 402.1545 185.43376 391.3747 185.43376 391.3747 L 185.07587 355.61563 C 215.5285 336.8468 257.34735 331.38817 257.34735 331.38817 C 219.00095 329.8656 194.40466 346.1399 185.03035 351.06708 L 184.59197 307.26507 C 191.88448 299.60397 209.66366 287.26384 209.66366 287.26384 L 209.66366 287.26384 C 204.24126 287.88276 190.03962 299.7772 184.5645 304.5204 L 184.46696 294.77348 C 189.4099 287.45587 204.67085 270.764 250.84547 243.9952 C 253.24457 245.30199 267.007 252.5056 281.05163 253.7522 L 281.05163 253.7522 L 281.05163 253.7522 C 281.05157 253.7522 259.47422 250.6234 255.0702 241.56735 Z" stroke="black" stroke-linecap="butt" stroke-linejoin="round" stroke-width="2" clip-path="url(#inner_stroke_clip_path)"/>
        </g>
      </g>
    </g>
  </g>
</svg>
