<?xml version="1.0" encoding="UTF-8" standalone="no"?>
<!DOCTYPE svg PUBLIC "-//W3C//DTD SVG 1.1//EN" "http://www.w3.org/Graphics/SVG/1.1/DTD/svg11.dtd">
<svg xmlns="http://www.w3.org/2000/svg" xmlns:xl="http://www.w3.org/1999/xlink" version="1.1" xmlns:dc="http://purl.org/dc/elements/1.1/" viewBox="54 76.5 256.5 265.5" width="256.5" height="265.5">
  <defs>
    <clipPath id="artboard_clip_path">
      <path d="M 54 76.5 L 310.5 76.5 L 310.5 331.9432 L 295.92614 342 L 54 342 Z"/>
    </clipPath>
  </defs>
  <g id="Pavilion_(5)" stroke-opacity="1" fill="none" fill-opacity="1" stroke-dasharray="none" stroke="none">
    <title>Pavilion (5)</title>
    <g id="Pavilion_(5)_Art" clip-path="url(#artboard_clip_path)">
      <title>Art</title>
      <g id="Group_113">
        <g id="Graphic_172">
          <path d="M 174.05686 83.72849 C 172.93434 84.10266 170.58592 85.10373 170.00332 85.3499 C 167.78947 86.28533 165.58342 93.03602 167.20483 96.65302 C 167.76609 97.8379 168.95876 100.16088 168.95876 100.16088 C 168.95876 100.16088 162.45752 108.73566 161.8339 110.29471 C 159.5265 116.46856 155.22352 121.70697 143.00056 133.3063 C 140.6308 135.55134 133.27208 142.66061 126.72407 149.02154 C 118.42992 157.1286 113.93985 161.05741 111.94427 161.93048 C 107.82837 163.73898 104.02429 167.91724 104.02429 170.53644 C 104.02429 174.4029 105.02208 175.58777 109.13798 176.39848 L 112.8797 177.08446 L 112.44316 179.70366 C 112.19372 181.138 111.75718 183.13358 111.50773 184.19373 C 111.19592 185.19152 110.44758 187.74837 109.88632 189.80631 C 109.32506 191.86426 108.51435 194.54583 108.01546 195.7307 C 107.51656 196.91559 107.01767 198.8488 106.83058 199.97133 C 106.51877 202.4658 103.46303 212.0072 102.71469 212.8179 C 102.40288 213.19208 102.15343 214.1275 102.15343 215.00058 C 102.15343 215.936 101.15563 218.99175 99.97076 221.92276 C 98.78588 224.79142 97.78808 227.47299 97.78808 227.7848 C 97.78808 228.47078 95.66777 234.45753 93.11093 240.94319 C 92.23786 243.00113 89.99283 248.73844 88.12197 253.66504 C 86.18875 258.59164 83.88135 264.14186 83.07064 265.95036 C 82.25994 267.75886 81.26214 269.87917 80.95033 270.68988 C 80.32671 272.1242 79.95254 272.8102 78.58058 275.2423 C 78.14404 275.9283 76.709715 278.73458 75.33775 281.41615 C 73.965786 284.16008 72.406735 286.84165 71.90784 287.4029 C 71.40894 287.96416 70.97241 288.83723 70.97241 289.33613 C 70.97241 290.39628 68.10375 296.2583 66.295255 298.93988 C 64.54912 301.49672 63.67605 303.42995 62.927705 306.42333 C 62.55353 307.7953 61.86755 309.47907 61.368654 310.16505 C 60.807395 310.85103 60.37086 311.97355 60.37086 312.7219 C 60.37086 313.40787 59.93433 314.5304 59.43543 315.21637 C 58.936534 315.84 58.5 317.1496 58.5 318.02267 C 58.5 319.39463 58.87417 319.70644 61.80519 320.39242 C 63.551325 320.8913 65.359824 321.45258 65.671634 321.70203 C 66.04581 321.95147 67.29305 322.388 68.47793 322.63746 C 69.662805 322.8869 71.65839 323.5729 72.84327 324.1965 C 75.0883 325.3814 75.83665 325.56847 82.821195 326.94044 C 85.06623 327.37697 87.49835 328.06295 88.24669 328.43713 C 88.99504 328.87366 90.17992 329.18547 90.8659 329.18547 C 91.55188 329.18547 93.04857 329.68437 94.17109 330.308 C 95.2936 330.9316 97.47627 331.67995 99.03533 331.9294 C 100.53201 332.17885 102.09106 332.6154 102.46524 332.9272 C 103.65012 333.86262 130.83996 335.60876 140.50608 335.29695 C 145.93158 335.10986 147.0541 334.8604 148.92496 333.5508 C 151.91833 331.4305 154.53754 329.06075 154.53754 328.43713 C 154.53754 328.1253 155.16116 327.06516 155.9095 326.06737 C 157.09438 324.44596 157.4062 324.32123 158.2169 325.06958 C 159.2147 325.94264 162.08335 326.25445 175.42882 327.0028 C 178.54692 327.1899 181.66503 327.6888 182.47573 328.06295 C 183.53589 328.6242 184.40896 328.6242 185.968 328.06295 C 187.09052 327.6264 189.64737 327.3146 191.64295 327.3146 C 194.1998 327.3146 195.63412 327.0028 196.44483 326.25445 C 197.56735 325.25666 197.8168 325.25666 200.56072 326.87807 C 203.2423 328.37476 205.42496 329.49728 209.35377 331.30578 C 211.47408 332.30357 233.7997 332.17885 235.7329 331.18106 C 236.66834 330.74452 241.47022 330.37035 249.01603 330.24562 C 256.4371 330.05854 262.92276 329.622 266.4774 328.93602 C 269.5955 328.37476 274.0232 327.6264 276.39296 327.25225 C 278.76272 326.94044 281.19484 326.37918 281.81846 326.06737 C 282.44208 325.6932 283.5646 325.44375 284.3753 325.44375 C 285.186 325.44375 286.12144 325.1943 286.4956 324.8825 C 286.80742 324.63304 289.05246 323.8847 291.4222 323.26108 C 293.85433 322.6998 296.3488 321.95147 297.0348 321.70203 C 297.72078 321.3902 299.3422 321.01604 300.71416 320.82896 C 306.01493 320.0806 307.574 317.08723 304.2688 314.15622 C 303.20864 313.2208 302.21085 311.7241 301.9614 310.7263 C 301.71195 309.7285 300.52707 307.67057 299.27983 306.1115 C 296.723 302.9934 296.47354 302.61924 293.97906 297.9421 C 292.98126 296.07123 291.1104 293.3273 289.8008 291.89297 C 288.4912 290.39628 286.80742 287.96416 286.12144 286.46747 C 285.3731 284.9708 284.31294 283.09992 283.68932 282.28922 C 282.5668 280.79253 280.50886 276.61427 280.50886 275.86593 C 280.50886 275.61648 279.57343 273.4338 278.38855 271.0017 C 277.26603 268.5072 274.39738 262.4581 272.08998 257.46913 C 269.7826 252.48016 267.35047 247.36648 266.72685 246.05687 C 266.04086 244.6849 265.54197 243.0635 265.54197 242.43987 C 265.54197 241.7539 264.856 239.82067 263.98292 238.1369 C 263.10985 236.45312 262.42387 234.64462 262.42387 234.14572 C 262.42387 233.0232 260.7401 227.66007 259.99175 226.2881 C 259.67994 225.72685 259.2434 224.35488 258.99395 223.17 C 258.55742 220.98733 255.87585 212.06956 254.94042 209.76217 C 254.69097 209.07618 254.005 207.26768 253.38137 205.70863 C 252.8201 204.14958 252.07177 202.4658 251.82232 201.9669 C 251.57287 201.40565 251.13634 199.78424 250.8869 198.34991 C 250.63744 196.91559 250.2009 195.60598 249.8891 195.35654 C 249.5773 195.16945 249.32784 193.9222 249.32784 192.6126 C 249.32784 191.303 249.0784 189.9934 248.70422 189.80631 C 248.3924 189.61923 248.0806 188.6838 248.0806 187.74837 C 248.0806 186.81294 247.3946 184.5679 246.52155 182.7594 C 244.58832 178.51879 244.52596 176.27375 246.33446 175.46305 C 247.0828 175.08887 248.0806 173.7169 248.5795 172.28258 C 249.51492 169.7881 249.51492 169.72574 247.20753 166.54527 C 245.9603 164.73677 244.6117 161.59529 243.67628 160.84694 C 238.99913 157.22994 230.36978 149.52044 218.89516 138.7318 C 211.91061 132.18379 205.8615 126.69593 205.48732 126.5712 C 204.61426 126.2594 202.49395 124.01436 201.55852 122.39295 C 201.18434 121.70697 200.31128 120.89626 199.6253 120.58445 C 197.75443 119.64902 186.34218 107.80023 186.34218 106.8648 C 186.34218 106.55299 185.28202 105.24339 184.03478 103.93379 L 182.28865 101.21324 L 184.09715 99.13191 C 186.03037 97.19869 186.3032 95.56168 186.49808 93.49594 C 186.66505 91.91309 185.88226 89.10721 185.44572 88.23414 C 184.44793 86.30092 182.05479 84.80423 180.27747 83.8688 C 179.4696 83.44361 178.78078 83.32313 178.0792 83.32313 C 176.40781 83.3025 176.67606 82.79306 174.05686 83.72849 Z" fill="black"/>
        </g>
        <g id="Graphic_171">
          <path d="M 178.85873 86.90895 C 185.78092 90.46359 183.91006 99.63081 176.23953 99.69317 C 173.8074 99.69317 172.9967 99.38136 171.43765 97.75995 C 168.13246 94.51712 169.0679 89.34107 173.30851 87.1584 C 175.99008 85.78643 176.67606 85.78643 178.85873 86.90895 Z" fill="#FFFFFF"/>
        </g>
        <g id="Graphic_170">
          <path d="M 179.13157 102.2656 C 179.50574 102.45269 180.1366 103.2595 180.53471 104.01953 C 180.96345 104.83804 181.97684 106.55299 182.78754 107.3637 C 183.53589 108.1744 185.84328 110.79361 187.83887 113.16337 L 191.51823 117.46635 L 187.71414 113.78699 C 185.59383 111.72904 183.72297 110.23235 183.53589 110.41944 C 182.60046 111.29251 194.0127 122.89185 195.32231 122.39295 C 195.69648 122.26823 199.99947 126.07231 204.73898 130.93655 C 215.58997 141.8499 226.31625 151.76547 235.48347 159.1242 C 239.28755 162.2423 242.468 165.1733 242.468 165.60984 C 242.468 166.79472 241.90676 166.60764 239.537 164.54969 C 237.04252 162.30466 235.98236 162.11757 236.54362 164.0508 C 236.9178 165.1733 236.79307 165.29803 235.85764 164.92386 C 233.48788 163.98843 231.24285 163.80134 230.4945 164.3626 C 229.93324 164.79914 224.5701 164.79914 215.02872 164.3626 C 206.98401 164.0508 194.38688 163.8637 187.02816 163.92607 C 178.04803 163.98843 173.55796 163.8637 173.30851 163.36481 C 172.74725 162.49174 173.74505 151.45366 174.4934 150.0817 C 175.3041 148.585 175.3041 145.65399 174.43103 144.78092 C 173.93213 144.28203 173.93213 143.6584 174.24394 142.91006 C 174.55575 142.28644 174.86756 138.85653 174.92993 135.23953 C 174.99229 131.62253 175.17937 125.38633 175.42882 121.3328 C 175.74063 116.28147 175.6159 114.03644 175.17937 114.03644 C 174.74284 114.03644 174.4934 115.4084 174.4934 117.40399 C 174.4934 119.27485 174.24394 121.02099 173.86977 121.20807 C 173.55796 121.39516 173.24615 123.64019 173.24615 126.13467 C 173.24615 128.69152 172.93434 130.93655 172.4978 131.37308 C 172.06127 131.80962 171.81182 134.36646 171.93655 138.91889 C 171.9989 142.72298 171.81182 145.90344 171.43765 146.09053 C 171.12584 146.27761 170.6893 149.20863 170.50222 152.57618 C 170.00332 160.05962 169.13026 163.24009 167.38412 163.67662 C 166.63577 163.80134 160.89847 163.8637 154.53754 163.80134 L 143.00056 163.61426 L 145.2456 161.2445 C 146.49284 159.99726 147.80244 158.9371 148.11425 158.9371 C 148.73787 158.9371 154.53754 152.82563 156.78257 149.76989 C 158.09218 148.02375 159.71359 143.97022 159.27705 143.53368 C 158.96524 143.22187 154.53754 148.70973 154.53754 149.45808 C 154.53754 150.01933 149.54858 154.75885 143.56182 159.87254 C 138.44813 164.30024 137.57506 164.48733 124.72848 164.54969 C 117.99338 164.54969 113.44096 164.30024 113.62804 163.98843 C 113.87749 163.67662 122.04438 158.09508 131.46105 149.3644 C 140.753 140.75843 156.4084 125.88522 156.4084 124.20145 C 156.4084 123.88964 157.09438 122.95421 157.96745 122.1435 C 158.84052 121.3328 162.08335 116.78037 162.3328 115.9073 C 162.58224 115.03423 163.58003 113.47518 164.51547 112.35266 C 165.51326 111.29251 166.88522 108.73566 167.5712 106.74008 C 168.31955 104.74449 170.56458 102.57741 171.06348 102.2656 C 171.81182 101.64198 177.2607 101.70434 179.13157 102.2656 Z" fill="#FFFFFF"/>
        </g>
        <g id="Graphic_169">
          <path d="M 205.0508 166.42055 C 212.4095 166.79472 221.57673 167.35598 225.31845 167.73015 C 229.12254 168.04196 235.1093 168.60322 238.66393 168.91503 C 242.28093 169.22684 245.4614 169.7881 245.7732 170.0999 C 246.64627 170.97298 245.02486 172.78148 243.77762 172.34494 C 241.78203 171.5966 222.82397 170.16227 208.6678 169.66338 C 200.68545 169.41393 183.59825 169.41393 170.75167 169.66338 C 130.59052 170.41172 107.70365 170.53644 107.32948 169.97519 C 107.20475 169.72574 107.32948 169.10212 107.70365 168.66558 C 108.38963 167.85488 123.5436 166.60764 137.38798 166.23346 C 153.6021 165.73457 193.32673 165.8593 205.0508 166.42055 Z" fill="#FFFFFF"/>
        </g>
        <g id="Graphic_168">
          <path d="M 205.79913 173.7169 L 214.28037 174.09108 L 214.65454 175.89958 C 214.84163 176.835 215.4029 177.64572 215.90179 177.64572 C 216.40068 177.64572 217.14903 178.14461 217.46084 178.70587 C 218.08446 179.76603 218.08446 179.76603 218.14682 178.70587 C 218.14682 178.08225 217.89737 177.0221 217.5232 176.39848 C 217.08666 175.58777 217.14903 175.2136 217.89737 174.90179 C 219.26934 174.4029 220.9531 175.46305 220.9531 176.77265 C 220.9531 177.95753 224.00885 180.07784 224.69483 179.45422 C 224.88192 179.20477 224.7572 178.3317 224.44538 177.45863 C 223.50995 175.08887 224.5701 174.90179 226.5657 177.0221 C 228.686 179.20477 231.86647 179.6413 231.86647 177.70808 C 231.86647 176.71029 232.303 176.58556 235.67055 176.835 C 237.79086 176.95973 240.0359 177.3339 240.59715 177.64572 C 241.71967 178.20697 241.8444 178.70587 243.02927 185.19152 C 244.58832 193.54804 252.07177 218.4305 254.87806 224.54197 C 255.9382 226.84936 256.81128 229.34385 256.81128 230.0922 C 256.81128 233.2103 265.54197 256.09716 272.96305 272.436 C 278.9498 285.53204 282.94098 292.57895 289.23954 301.12255 C 290.6115 302.9934 291.9211 305.05136 292.23292 305.61262 C 292.48237 306.17388 294.4156 308.606 296.59826 311.0381 C 298.71857 313.40787 300.4647 315.6529 300.4647 315.9647 C 300.4647 316.27653 298.5315 316.6507 296.16173 316.8378 C 293.66725 316.9625 291.4222 317.4614 290.7986 317.9603 C 288.803 319.5817 284.00113 321.01604 275.5199 322.32565 C 272.46415 322.82454 269.4084 323.44816 260.553 325.56847 C 256.4371 326.5039 244.33887 326.94044 243.52817 326.12973 C 242.6551 325.25666 240.41007 325.25666 239.47464 326.1921 C 238.35212 327.3146 210.41393 327.25225 207.54527 326.12973 C 201.30907 323.6976 197.94152 321.5773 197.69207 319.9559 C 197.50498 318.83337 198.19097 318.2721 201.4338 316.6507 C 204.92607 314.90456 206.11095 314.6551 211.91061 314.40567 C 215.52761 314.21858 218.70808 313.8444 219.08225 313.5326 C 219.39406 313.2208 220.26713 312.97134 221.01547 312.97134 C 222.88633 312.97134 231.05576 308.73072 234.4233 305.92443 C 235.98236 304.6772 237.60377 303.61703 237.91558 303.61703 C 238.2274 303.61703 239.0381 303.05578 239.66172 302.3698 C 240.5348 301.43436 240.72188 300.43657 240.47243 297.69264 C 240.16062 294.3251 239.97353 294.01328 236.04472 290.0221 C 233.73733 287.7147 230.55686 285.15787 228.93545 284.34716 C 227.25168 283.4741 224.19594 281.22906 222.07563 279.3582 C 219.95532 277.42498 217.2114 275.05522 215.96415 274.05743 C 213.96856 272.436 212.34715 270.37807 209.72794 266.0751 C 207.29582 262.02155 203.92827 257.8433 200.37364 254.35102 C 196.38247 250.42222 194.13743 246.74286 191.64295 240.00776 C 191.0817 238.4487 189.64737 235.20588 188.46249 232.77376 C 187.2776 230.404 186.34218 227.90952 186.34218 227.34826 C 186.34218 226.84936 186.09273 226.16338 185.71856 225.9763 C 185.40675 225.7892 185.09494 224.9785 185.09494 224.23016 C 185.09494 223.48181 184.72077 222.1722 184.28423 221.29914 C 183.8477 220.42607 183.09935 218.49285 182.60046 216.9338 C 182.16392 215.37475 181.5403 213.8157 181.29085 213.5039 C 181.0414 213.12972 180.66723 211.57067 180.41779 209.8869 C 180.16834 208.26548 179.7318 206.7688 179.42 206.5817 C 179.10818 206.39462 178.85873 204.52376 178.85873 202.40345 C 178.85873 200.28314 178.23511 196.54141 177.54913 194.17166 C 175.99008 188.80852 174.99229 179.51658 175.86536 178.39406 C 176.55134 177.58335 182.10156 177.3339 182.8499 178.08225 C 183.09935 178.39406 189.585 178.58115 197.1308 178.58115 C 204.73898 178.58115 211.41172 178.8306 211.97298 179.08004 C 213.53203 179.89075 214.15565 177.58335 212.65896 176.39848 C 211.7859 175.7125 209.4785 175.40068 203.49174 175.27596 C 199.06403 175.15124 195.25995 174.96415 195.0105 174.83942 C 194.82342 174.65234 192.26657 174.83942 189.39792 175.2136 C 182.8499 175.96194 175.11701 176.27375 174.74284 175.7125 C 174.11922 174.65234 176.48898 173.96636 181.0414 173.7169 C 191.20642 173.28037 197.56735 173.28037 205.79913 173.7169 Z" fill="#FFFFFF"/>
        </g>
        <g id="Graphic_167">
          <path d="M 172.62253 174.46525 C 172.62253 175.58777 169.94096 175.89958 163.76712 175.46305 L 157.53092 175.02651 L 157.78037 176.46084 C 157.96745 177.77044 158.27926 177.95753 160.77374 177.95753 C 163.33059 177.95753 163.58003 178.08225 163.9542 179.82839 C 164.26602 181.138 164.39074 181.32508 164.4531 180.38965 C 164.51547 178.6435 165.38853 178.3317 168.8808 178.8306 L 171.6871 179.20477 L 171.6871 186.68821 C 171.62474 190.8041 171.31293 195.85543 170.93876 197.91338 C 169.25498 207.64186 166.82286 218.55521 166.32396 219.0541 C 166.01215 219.42828 165.7627 220.42607 165.7627 221.29914 C 165.7627 223.6689 163.45531 231.52652 162.70697 231.77597 C 162.3328 231.9007 162.02098 232.5243 162.02098 233.2103 C 162.02098 233.89628 161.77154 234.89407 161.45973 235.5177 C 161.14792 236.07895 160.39957 238.1369 159.83831 240.00776 C 159.2147 241.87862 158.46635 243.68712 158.2169 244.0613 C 157.90509 244.3731 157.65564 245.12144 157.65564 245.6827 C 157.65564 246.24396 157.2191 247.05467 156.72021 247.4912 C 156.22131 247.92773 155.78478 248.86316 155.78478 249.6115 C 155.78478 250.42222 154.78699 252.16835 153.6021 253.54032 C 152.41723 254.97464 151.41944 256.3466 151.41944 256.65842 C 151.41944 257.90566 133.45917 274.30688 126.78643 279.1711 C 123.2318 281.79032 115.87308 289.77266 115.87308 291.0199 C 115.93544 292.89076 117.3074 294.57454 122.54581 299.5635 C 125.3521 302.24507 127.84659 304.989 128.09603 305.73734 C 128.78202 308.04474 135.26767 314.15622 137.5127 314.59275 C 138.63522 314.77984 139.75774 315.21637 139.94482 315.5282 C 140.13191 315.84 140.94261 316.08944 141.69096 316.08944 C 143.62418 316.08944 148.61315 318.39684 151.04527 320.39242 C 155.16116 323.82233 144.80906 331.18106 137.13853 330.18326 C 132.96027 329.622 132.52374 329.622 131.02705 330.1209 C 130.02926 330.4327 129.53036 330.18326 128.9691 329.18547 C 128.40785 328.1253 128.4702 327.3146 129.59272 325.0072 C 130.4658 323.074 130.7776 321.5773 130.52815 320.39242 C 130.09162 318.58392 130.09162 318.58392 128.28312 322.0762 C 127.28533 324.0718 126.03809 326.12973 125.53919 326.691 C 125.0403 327.25225 124.60376 328.06295 124.60376 328.43713 C 124.60376 329.622 121.61038 330.1209 114.00221 330.1209 C 102.58996 330.1209 98.59879 328.25004 101.77925 324.32123 C 104.14901 321.51494 106.39405 317.21196 107.01767 314.40567 C 107.57892 311.97355 107.51656 311.7241 106.45641 311.7241 C 105.1468 311.7241 103.89956 313.7197 104.39846 315.0293 C 104.89736 316.4636 100.15784 324.1965 97.72572 325.94264 C 96.41612 326.87807 94.42053 326.56626 89.80574 324.75777 C 88.99504 324.44596 87.68543 324.1965 86.87473 324.1965 C 86.06402 324.1965 85.25331 323.94706 85.06623 323.63525 C 84.87914 323.3858 83.88135 322.94927 82.821195 322.76218 C 80.82561 322.32565 80.38908 321.0784 81.88576 319.83116 C 82.38466 319.39463 82.821195 318.70865 82.821195 318.33448 C 82.821195 317.89794 83.81899 316.6507 85.00387 315.46582 C 86.18875 314.28094 87.18654 313.09606 87.18654 312.7219 C 87.18654 312.4101 87.87252 311.2252 88.74559 310.1027 C 89.61866 308.98017 90.30464 307.85765 90.30464 307.67057 C 90.30464 307.48348 90.99062 306.36096 91.73897 305.3008 C 92.54967 304.1783 93.73455 301.8709 94.35817 300.18712 C 94.98179 298.441 95.7925 296.6325 96.22903 296.1336 C 96.66557 295.6347 97.35155 294.01328 97.72572 292.57895 C 98.0999 291.14463 98.84824 289.2114 99.34714 288.2136 C 99.84603 287.27818 100.28257 285.40732 100.28257 284.16008 C 100.28257 282.91284 100.53201 281.6656 100.90619 281.4785 C 101.28036 281.29142 101.52981 280.6678 101.52981 280.1689 C 101.52981 279.67 101.28036 279.29584 100.90619 279.29584 C 100.59438 279.29584 100.28257 279.73237 100.28257 280.23127 C 100.28257 280.73017 99.72131 282.10213 99.03533 283.34937 C 98.34934 284.5966 97.78808 285.9062 97.78808 286.2804 C 97.78808 286.65456 97.41391 287.46527 96.91502 287.96416 C 96.41612 288.52542 95.60541 290.2092 95.10652 291.76825 C 92.11314 300.5613 79.82782 320.4548 77.33334 320.4548 C 76.77208 320.4548 75.27539 319.83116 74.09051 319.08282 C 69.41336 316.1518 66.35762 314.8422 65.734 315.46582 C 64.798566 316.40125 62.86534 316.21417 62.86534 315.21637 C 62.86534 314.77984 63.239515 314.0315 63.67605 313.65732 C 64.174946 313.28315 64.92329 311.84882 65.359824 310.47686 C 65.79636 309.1049 66.5447 307.67057 66.98124 307.2964 C 67.41777 306.92222 68.10375 305.67498 68.47793 304.4901 C 68.8521 303.30522 69.47572 302.3698 69.78753 302.3698 C 70.1617 302.3698 70.22406 301.80854 70.03698 301.0602 C 69.47572 299.43878 69.53808 299.2517 76.21082 286.65456 C 77.76987 283.66118 79.07947 280.91725 79.07947 280.54308 C 79.07947 280.23127 79.765455 278.48513 80.63852 276.67663 C 81.51159 274.9305 82.19757 273.05964 82.19757 272.6231 C 82.19757 272.1242 82.63411 271.6253 83.13301 271.43822 C 83.6319 271.18877 84.06844 270.44043 84.06844 269.62972 C 84.06844 268.88138 84.50497 267.8836 85.00387 267.44705 C 86.87473 265.888 100.7191 228.15897 101.52981 222.3593 C 101.84162 220.3637 102.46524 218.11868 102.96413 217.30797 C 103.46303 216.55963 104.21137 214.37696 104.64791 212.38137 C 105.02208 210.44815 105.6457 208.702 105.95751 208.51493 C 106.26932 208.26548 106.51877 207.51713 106.51877 206.7688 C 106.51877 205.95808 106.89294 204.83557 107.39184 204.14958 C 107.82837 203.4636 108.45199 201.90455 108.70144 200.71967 C 108.88853 199.5348 110.19813 195.2318 111.5701 191.24064 C 112.94206 187.1871 114.00221 182.7594 114.00221 181.26271 C 114.00221 176.64792 114.31402 176.46084 125.47683 175.02651 C 129.65509 174.52761 131.2765 174.52761 132.14957 175.02651 C 132.77319 175.46305 134.33224 175.77486 135.51712 175.77486 C 136.88908 175.77486 137.63743 176.0243 137.38798 176.39848 C 137.2009 176.71029 136.32782 177.0221 135.57948 177.0221 C 133.64626 177.0221 132.27429 178.58115 133.70862 179.1424 C 134.20751 179.3295 135.2053 179.51658 135.89129 179.51658 C 138.63522 179.51658 139.07175 184.94208 137.76215 204.4614 C 137.32562 211.13413 136.702 217.18325 136.45255 217.86923 C 136.14074 218.55521 135.76657 220.48844 135.64184 222.23457 C 135.01822 229.34385 133.02264 238.38634 131.40122 241.37972 C 131.08941 242.00334 130.83996 243.31294 130.83996 244.3731 C 130.83996 245.9945 129.90453 248.73844 128.28312 251.98127 C 127.97131 252.6049 127.72186 253.4156 127.72186 253.85213 C 127.72186 254.28866 127.34769 255.34882 126.91116 256.2219 C 125.78864 258.3422 125.10266 261.83447 125.78864 261.83447 C 126.97352 261.83447 130.21634 255.8477 132.46138 249.67387 C 133.02264 247.92773 134.08279 245.9945 134.70641 245.24617 C 135.33003 244.56018 135.82893 243.3753 135.82893 242.62696 C 135.82893 241.81625 136.26546 240.19484 136.76436 238.9476 C 137.26325 237.76272 137.69979 235.70477 137.69979 234.45753 C 137.69979 233.2103 138.0116 231.83833 138.32341 231.52652 C 138.69758 231.15235 139.25884 229.0944 139.57065 226.84936 C 139.88246 224.6667 140.6308 221.0497 141.25443 218.80466 C 142.00277 215.99837 142.31458 212.94263 142.18986 208.82674 C 142.1275 205.5839 142.37694 201.71746 142.75111 200.22077 C 143.4371 197.78865 143.37473 197.41448 142.18986 196.16724 C 141.00498 194.92 140.88025 193.9222 140.75553 187.43656 C 140.69317 179.70366 141.19206 177.89516 143.37473 178.58115 C 143.99835 178.76823 145.68213 178.6435 147.0541 178.26934 C 150.92054 177.20918 151.54416 178.01989 151.35708 183.81956 C 151.23235 186.56349 151.4818 189.12033 151.91833 189.93104 C 152.35487 190.67938 152.66668 192.36316 152.66668 193.6104 C 152.66668 195.48126 152.85376 195.79307 153.41502 195.2318 C 154.22573 194.4211 154.41282 192.86205 154.72463 186.0646 C 154.84935 182.50996 154.78699 182.32287 153.47738 182.50996 C 152.23014 182.69704 152.04306 182.4476 152.04306 180.82618 C 152.04306 179.57894 152.35487 178.89296 152.91613 178.89296 C 153.7892 178.89296 155.78478 176.64792 155.78478 175.65013 C 155.78478 174.77706 151.54416 175.15124 150.54637 176.08667 C 149.48621 177.14682 147.92716 177.3339 147.3659 176.39848 C 147.17882 176.0243 145.99394 175.77486 144.80906 175.77486 C 141.6286 175.77486 142.25222 174.65234 145.68213 174.34053 C 152.2925 173.84163 172.62253 173.904 172.62253 174.46525 Z" fill="#FFFFFF"/>
        </g>
        <g id="Graphic_166">
          <path d="M 230.61923 177.0221 C 230.61923 177.3339 230.05797 177.64572 229.30962 177.64572 C 228.62364 177.64572 228.24947 177.3339 228.43655 177.0221 C 228.62364 176.64792 229.24726 176.39848 229.74616 176.39848 C 230.24505 176.39848 230.61923 176.64792 230.61923 177.0221 Z" fill="#FFFFFF"/>
        </g>
        <g id="Graphic_165">
          <path d="M 175.36646 199.78424 C 175.49118 203.90013 175.86536 208.76437 176.05244 210.57287 C 176.36425 212.75554 176.23953 214.18987 175.803 214.6264 C 175.36646 215.06294 175.11701 218.49285 175.11701 223.91835 C 175.11701 228.5955 174.86756 233.08557 174.4934 233.89628 C 174.18158 234.70698 173.62032 237.70036 173.24615 240.63138 C 172.43544 247.9901 171.74946 252.04363 171.12584 253.04142 C 170.81403 253.54032 170.19041 257.71857 169.75388 262.33336 C 169.31734 266.94816 168.69372 271.0017 168.31955 271.37586 C 167.94538 271.75003 167.63357 273.18436 167.63357 274.6187 C 167.63357 276.053 167.32176 277.48734 166.94758 277.8615 C 166.63577 278.17332 166.13688 280.10655 165.9498 282.03977 C 165.7627 283.973 165.32617 285.71913 165.07672 285.9062 C 164.76491 286.0933 164.51547 286.904 164.51547 287.7147 C 164.51547 288.52542 164.26602 289.33613 164.01657 289.5232 C 163.70476 289.7103 163.1435 291.45644 162.70697 293.45202 C 162.27043 295.4476 161.64681 297.38083 161.335 297.69264 C 161.08555 298.0668 159.83831 301.43436 158.59107 305.1761 C 157.4062 308.85545 156.03423 312.34772 155.66006 312.8466 C 154.84935 313.78205 150.60873 313.47024 149.23677 312.4101 C 148.92496 312.09827 146.43047 311.7241 143.81127 311.59938 C 139.50829 311.4123 138.8223 311.2252 137.0138 309.54143 C 135.95365 308.48127 134.83114 307.1093 134.45696 306.42333 C 131.90012 301.0602 128.71966 297.4432 121.67274 292.0177 L 119.98897 290.64573 L 122.29637 287.21582 C 123.5436 285.2826 125.3521 283.22465 126.28754 282.60103 C 127.28533 281.9774 129.59272 280.1689 131.40122 278.5475 C 133.27208 276.92608 135.14295 275.55412 135.45476 275.55412 C 136.2031 275.55412 153.91392 258.03038 153.91392 257.3444 C 153.91392 257.09495 154.84935 255.41118 155.97187 253.60268 C 157.15674 251.79418 158.27926 249.86096 158.46635 249.36206 C 158.7158 248.86316 159.15233 247.9901 159.46414 247.4912 C 159.96304 246.55577 160.5243 244.93436 161.89626 239.69594 C 164.82728 228.7826 166.07452 224.54197 166.82286 223.3571 C 167.2594 222.60875 167.63357 221.29914 167.63357 220.48844 C 167.63357 219.67773 168.31955 216.87144 169.13026 214.3146 C 169.94096 211.75775 170.81403 207.51713 171.00112 204.89793 C 171.25057 202.27872 171.74946 199.97133 172.06127 199.72188 C 172.37308 199.5348 172.62253 198.16283 172.62253 196.60378 C 172.62253 193.79748 173.8074 190.9912 174.61812 191.86426 C 174.86756 192.1137 175.17937 195.66835 175.36646 199.78424 Z" fill="#FFFFFF"/>
        </g>
        <g id="Graphic_164">
          <path d="M 179.85653 215.56184 C 180.04361 217.18325 180.48015 218.7423 180.7296 219.11647 C 180.97904 219.42828 181.41558 221.67332 181.66503 224.10544 C 182.351 230.9029 186.4669 241.69153 191.01933 248.42663 C 193.07728 251.54473 193.82562 252.7296 194.44924 254.2263 C 194.76105 255.037 196.44483 257.09495 198.06624 258.90345 C 199.68766 260.71195 201.62088 262.957 202.2445 264.01714 C 202.93048 265.01493 203.74119 266.32454 204.11536 266.8858 C 207.73236 272.56074 209.72794 275.05522 211.16227 275.80357 C 212.16006 276.30246 214.59218 278.2357 216.65013 280.1689 C 218.64571 282.03977 220.51658 283.66118 220.76602 283.66118 C 221.01547 283.66118 222.51216 284.7837 224.0712 286.15566 C 225.63026 287.52763 227.18931 288.65015 227.43876 288.65015 C 228.24947 288.65015 236.85543 297.06902 236.85543 297.87973 C 236.85543 298.2539 236.10709 299.00224 235.17166 299.50114 C 234.17386 300.00004 232.73954 301.12255 231.92883 301.99562 C 231.05576 302.8687 230.12033 303.61703 229.80852 303.61703 C 229.4967 303.61703 228.31183 304.42774 227.12695 305.42553 C 224.32066 307.92 221.51437 308.606 213.78148 308.606 C 204.61426 308.66836 201.68324 309.54143 198.37805 313.28315 C 196.13302 315.84 195.63412 316.1518 194.82342 315.46582 C 194.26216 315.0293 193.82562 313.96913 193.82562 313.0337 C 193.82562 312.16063 193.13964 309.4167 192.32893 307.04695 C 189.64737 299.12697 189.46028 298.2539 189.46028 294.07564 C 189.46028 291.76825 189.21083 289.3985 188.89902 288.77487 C 188.58721 288.2136 187.83887 285.46968 187.2776 282.72575 C 186.654 279.98182 185.78092 276.98844 185.34439 276.053 C 184.8455 275.11758 184.47132 273.74562 184.47132 272.9349 C 184.47132 272.1242 183.91006 269.94153 183.22408 268.07067 C 182.5381 266.1998 181.97684 263.5806 181.97684 262.271 C 181.97684 260.9614 181.5403 258.90345 181.0414 257.6562 C 180.41779 256.28425 180.10598 253.4156 180.10598 249.86096 C 180.10598 246.80522 179.79416 243.74948 179.48235 243.12586 C 178.54692 241.37972 177.86094 211.63303 178.734 212.19429 C 179.10818 212.38137 179.60708 213.94042 179.85653 215.56184 Z" fill="#FFFFFF"/>
        </g>
        <g id="Group_155">
          <g id="Graphic_163">
            <path d="M 177.23732 256.97023 C 178.1104 279.79474 178.4222 319.64408 177.67386 320.0806 C 177.29968 320.33006 176.98787 321.2655 176.98787 322.20092 C 176.92551 323.75997 176.86315 323.6976 176.1148 321.63966 C 175.49118 319.83116 175.36646 312.0359 175.49118 285.7815 C 175.67827 244.6849 175.6159 246.24396 176.23953 246.24396 C 176.55134 246.24396 176.98787 251.1082 177.23732 256.97023 Z" fill="#FFFFFF"/>
          </g>
          <g id="Graphic_162">
            <path d="M 173.8074 291.7059 C 173.86977 306.17388 173.74505 311.7241 173.24615 312.0359 C 172.74725 312.34772 172.56017 314.21858 172.74725 317.52377 C 172.87198 321.8891 172.80962 322.63746 171.87419 322.82454 C 170.31513 323.13635 170.00332 320.20534 170.75167 311.9112 C 171.06348 307.85765 171.31293 299.31405 171.25057 292.95313 C 171.12584 283.973 171.25057 281.1667 171.87419 280.356 C 172.4978 279.60765 172.62253 278.42277 172.31072 276.2401 C 171.87419 273.24672 172.186 271.8124 173.18379 271.8124 C 173.43324 271.8124 173.68269 280.79253 173.8074 291.7059 Z" fill="#FFFFFF"/>
          </g>
          <g id="Graphic_161">
            <path d="M 180.7296 273.30908 C 180.7296 274.1198 181.16613 275.11758 181.66503 275.55412 C 182.16392 275.99065 182.41337 276.61427 182.16392 277.0508 C 181.47794 278.11096 181.41558 283.84827 182.10156 284.72134 C 182.47573 285.15787 182.60046 286.96637 182.41337 288.77487 C 182.22628 290.58337 182.0392 299.31405 182.0392 308.16946 C 182.0392 321.0784 181.85211 324.25887 181.2285 324.0718 C 180.29306 323.75997 179.35763 302.1827 180.2307 300.3742 C 180.48015 299.81295 180.48015 296.00887 180.10598 291.95533 C 179.29527 282.28922 179.29527 271.8124 180.10598 271.8124 C 180.48015 271.8124 180.7296 272.49838 180.7296 273.30908 Z" fill="#FFFFFF"/>
          </g>
          <g id="Graphic_160">
            <path d="M 185.78092 281.60323 C 185.84328 283.287 186.09273 290.45864 186.40454 297.69264 C 186.71635 304.92664 186.90344 312.78425 186.90344 315.27874 C 186.90344 317.71085 187.21525 320.33006 187.58942 321.0784 C 188.2754 322.388 187.58942 324.1965 186.27982 324.1965 C 186.03037 324.1965 185.6562 321.01604 185.4691 317.1496 C 185.28202 313.3455 184.90785 306.2986 184.6584 301.49672 C 184.03478 291.0199 184.3466 278.67222 185.1573 278.67222 C 185.4691 278.67222 185.78092 279.98182 185.78092 281.60323 Z" fill="#FFFFFF"/>
          </g>
          <g id="Graphic_159">
            <path d="M 168.25719 320.0806 C 167.94538 320.39242 167.63357 321.51494 167.63357 322.45037 C 167.63357 323.5729 167.32176 324.1965 166.69814 324.1965 C 165.9498 324.1965 165.7627 322.82454 165.63798 316.21417 C 165.4509 304.8019 165.7627 298.5657 166.51105 296.4454 C 168.44427 290.77045 168.569 291.207 168.75608 305.4879 C 168.81845 314.3433 168.69372 319.64408 168.25719 320.0806 Z" fill="#FFFFFF"/>
          </g>
          <g id="Graphic_158">
            <path d="M 163.6424 315.27874 C 163.51767 323.75997 163.08114 325.31902 161.39736 323.26108 C 160.96083 322.76218 160.15012 322.32565 159.65123 322.32565 C 158.84052 322.32565 158.90288 322.13856 159.83831 321.45258 C 160.89847 320.70423 160.96083 320.39242 160.21248 319.02046 C 159.71359 318.08503 159.58886 317.1496 159.90067 316.58834 C 160.89847 315.154 162.02098 311.47465 162.02098 309.79088 C 162.02098 308.606 162.95641 306.73514 163.6424 306.73514 C 163.6424 306.73514 163.6424 310.6016 163.6424 315.27874 Z" fill="#FFFFFF"/>
          </g>
          <g id="Graphic_157">
            <path d="M 191.20642 312.47244 C 191.3935 316.9625 191.26878 317.4614 190.39571 316.71306 C 188.89902 315.46582 189.0861 307.35876 190.64516 307.35876 C 190.83225 307.35876 191.0817 309.66615 191.20642 312.47244 Z" fill="#FFFFFF"/>
          </g>
          <g id="Graphic_156">
            <path d="M 192.14185 320.0806 C 192.51602 321.01604 192.07949 321.70203 191.20642 321.70203 C 190.95697 321.70203 190.70752 321.14077 190.70752 320.4548 C 190.70752 319.02046 191.64295 318.771 192.14185 320.0806 Z" fill="#FFFFFF"/>
          </g>
        </g>
        <g id="Graphic_154">
          <path d="M 176.92551 89.96469 C 176.3019 90.58831 177.36205 98.07176 178.1104 98.3212 C 178.54692 98.44593 178.85873 98.00939 178.85873 97.26105 C 178.85873 96.57507 179.17054 95.82672 179.48235 95.63964 C 180.41779 95.07838 180.2307 92.95807 179.10818 91.27429 C 178.1104 89.7776 177.48677 89.40343 176.92551 89.96469 Z" fill="black"/>
        </g>
        <g id="Graphic_153">
          <path d="M 165.70034 113.91171 C 160.8361 122.76712 145.43268 141.0392 134.51932 150.8924 C 131.65067 153.44925 129.59272 155.819 129.59272 156.50499 C 129.59272 157.1286 129.77981 157.68986 129.9669 157.68986 C 130.90233 157.68986 140.94261 148.02375 141.50387 146.65178 C 141.81568 145.84108 142.25222 145.21746 142.56403 145.21746 C 144.43489 145.21746 159.40178 127.75609 162.02098 122.45531 C 162.89405 120.70918 163.89185 118.90068 164.26602 118.40178 C 165.63798 116.59328 168.38191 110.91834 168.13246 110.35708 C 168.0701 110.04527 166.94758 111.60432 165.70034 113.91171 Z" fill="black"/>
        </g>
        <g id="Graphic_152">
          <path d="M 169.0679 121.6446 C 168.75608 122.45531 167.82065 124.32617 167.0723 125.7605 C 166.38633 127.25719 165.7627 129.12805 165.7627 129.8764 C 165.7627 130.62474 165.20145 132.24615 164.51547 133.55576 C 162.8317 136.73622 162.95641 137.60929 164.82728 135.36425 C 165.70034 134.3041 166.38633 133.18158 166.38633 132.80741 C 166.38633 132.43324 166.63577 131.62253 166.94758 130.99891 C 168.44427 128.31734 170.56458 121.58224 170.19041 120.95862 C 169.8786 120.52209 169.50443 120.77154 169.0679 121.6446 Z" fill="black"/>
        </g>
        <g id="Graphic_151">
          <path d="M 182.60046 121.45752 C 182.60046 122.20586 182.91227 122.76712 183.22408 122.76712 C 183.59825 122.76712 183.8477 122.39295 183.8477 121.89405 C 183.8477 121.39516 183.59825 120.77154 183.22408 120.58445 C 182.91227 120.39737 182.60046 120.77154 182.60046 121.45752 Z" fill="black"/>
        </g>
        <g id="Graphic_150">
          <path d="M 184.47132 125.32397 C 184.47132 126.07231 186.84108 131.43545 188.33776 133.99229 C 188.64957 134.49119 189.39792 136.05024 190.0839 137.4222 C 190.70752 138.79417 192.51602 141.16392 194.07507 142.66061 C 195.57176 144.1573 197.00609 146.02816 197.19317 146.7765 C 197.56735 148.2732 207.85708 158.00167 210.4763 159.37364 C 212.16006 160.2467 213.15786 159.99726 213.15786 158.75002 C 213.15786 158.31348 209.66558 154.5094 205.3626 150.20642 C 201.05962 145.90344 197.56735 142.09935 197.56735 141.72518 C 197.56735 141.28865 196.5072 140.0414 195.25995 138.91889 C 193.95035 137.79637 192.32893 136.05024 191.64295 134.99008 C 191.01933 133.92993 190.14626 132.62032 189.7721 132.05907 C 189.46028 131.49781 188.52485 129.93876 187.7765 128.56679 C 186.21745 125.69814 184.47132 124.01436 184.47132 125.32397 Z" fill="black"/>
        </g>
        <g id="Graphic_149">
          <path d="M 191.95476 125.32397 C 192.01712 126.63357 194.63633 130.99891 195.8212 131.74726 C 197.3179 132.68269 197.94152 131.6849 196.75664 130.37529 C 196.13302 129.75167 195.69648 128.94096 195.69648 128.62915 C 195.69648 128.25498 194.88578 127.19483 193.82562 126.19703 C 192.64074 125.07452 191.95476 124.76271 191.95476 125.32397 Z" fill="black"/>
        </g>
        <g id="Graphic_148">
          <path d="M 149.6733 140.47794 C 145.18323 145.40454 140.25663 150.51823 138.8223 151.82783 C 137.32562 153.13744 135.45476 155.07066 134.58169 156.06845 L 133.02264 157.93931 L 134.8935 156.75443 C 138.26105 154.63412 139.8201 153.32452 145.05851 148.21083 C 147.8648 145.40454 150.1722 142.8477 150.1722 142.47353 C 150.1722 142.09935 151.54416 140.5403 153.22794 138.98125 C 154.91171 137.4222 156.72021 135.1148 157.2191 133.8052 C 157.78037 132.55796 158.15454 131.49781 158.02981 131.49781 C 157.90509 131.49781 154.16337 135.55134 149.6733 140.47794 Z" fill="black"/>
        </g>
        <g id="Graphic_147">
          <path d="M 200.37364 135.23953 C 199.99947 135.86315 205.42496 142.09935 206.3604 142.09935 C 207.54527 142.09935 206.8593 140.2285 205.3626 139.2307 C 204.48953 138.66944 203.99064 137.98346 204.17772 137.60929 C 204.61426 136.86094 202.68103 134.61591 201.55852 134.61591 C 201.12198 134.61591 200.56072 134.86536 200.37364 135.23953 Z" fill="black"/>
        </g>
        <g id="Graphic_146">
          <path d="M 210.03975 139.48015 C 210.03975 140.2285 212.78368 142.72298 213.65675 142.72298 C 214.09329 142.72298 214.4051 143.15951 214.4051 143.72077 C 214.4051 144.968 221.01547 151.45366 222.20035 151.45366 C 222.69925 151.45366 223.13578 151.20421 223.13578 150.95476 C 223.13578 150.45587 210.97518 138.98125 210.41393 138.98125 C 210.22684 138.98125 210.03975 139.2307 210.03975 139.48015 Z" fill="black"/>
        </g>
        <g id="Graphic_145">
          <path d="M 213.15786 146.33997 C 213.15786 147.2754 225.00664 157.87695 225.50554 157.37805 C 225.755 157.19097 223.38523 154.44704 220.20477 151.3913 C 214.904 146.27761 213.15786 145.03037 213.15786 146.33997 Z" fill="black"/>
        </g>
        <g id="Graphic_144">
          <path d="M 233.73733 160.68324 C 233.73733 160.99505 234.17386 161.49395 234.73512 161.68103 C 235.35874 161.93048 235.6082 161.7434 235.48347 161.30686 C 235.17166 160.37143 233.73733 159.87254 233.73733 160.68324 Z" fill="black"/>
        </g>
        <g id="Graphic_143">
          <path d="M 238.41448 180.76382 C 238.2274 181.07563 238.35212 181.88634 238.66393 182.57232 C 239.0381 183.2583 239.47464 186.3764 239.66172 189.55687 C 239.97353 194.92 241.71967 201.9669 243.154 203.52596 C 243.4658 203.83777 243.59053 200.78203 243.40344 196.2296 C 243.154 189.12033 242.9669 188.1849 241.53258 186.0646 C 240.65951 184.75499 239.97353 182.88413 239.97353 181.9487 C 239.97353 180.1402 239.16283 179.57894 238.41448 180.76382 Z" fill="black"/>
        </g>
        <g id="Graphic_142">
          <path d="M 189.46028 182.88413 C 189.46028 183.38302 188.83666 183.88192 188.08832 184.00664 C 186.09273 184.2561 185.78092 188.12254 187.52706 191.11592 C 188.2754 192.3008 188.83666 193.98457 188.83666 194.85764 C 188.83666 195.66835 189.14847 196.35433 189.46028 196.35433 C 189.83445 196.35433 190.0839 195.98016 190.0839 195.48126 C 190.0839 194.35874 193.13964 187.74837 193.88799 187.31183 C 194.1998 187.06238 194.44924 186.50113 194.44924 185.93987 C 194.44924 185.0668 194.32452 185.0668 193.26437 186.00223 C 192.14185 187.06238 192.01712 187.06238 191.3935 185.93987 C 190.83225 185.00444 190.76988 185.12916 190.70752 186.81294 C 190.70752 187.93545 190.39571 188.87088 190.02154 188.87088 C 189.52264 188.87088 189.39792 187.81073 189.64737 185.44097 C 189.83445 183.5701 189.89682 182.01106 189.70973 182.01106 C 189.585 182.01106 189.46028 182.38523 189.46028 182.88413 Z" fill="black"/>
        </g>
        <g id="Graphic_141">
          <path d="M 213.15786 183.38302 C 213.15786 183.88192 213.4073 184.50554 213.71911 184.81735 C 214.03092 185.19152 214.4051 186.00223 214.59218 186.68821 C 214.77927 187.49892 214.904 187.31183 214.96635 186.00223 C 214.96635 184.94208 214.59218 183.69483 214.09329 183.2583 C 213.34494 182.63468 213.15786 182.63468 213.15786 183.38302 Z" fill="black"/>
        </g>
        <g id="Graphic_140">
          <path d="M 197.25554 190.55466 C 197.44262 191.17828 197.87916 194.67055 198.25333 198.34991 C 198.56514 201.9669 199.06403 205.70863 199.4382 206.64406 C 199.75002 207.51713 200.06183 209.2009 200.06183 210.38579 C 200.06183 211.57067 200.31128 212.63082 200.62309 212.8179 C 200.87253 213.005 201.30907 214.93822 201.49615 217.05852 C 201.7456 219.2412 202.36922 222.23457 202.93048 223.79363 C 203.92827 226.59992 204.61426 228.7826 205.73677 233.45974 C 206.04858 234.8317 206.73457 236.76493 207.1711 237.82508 C 207.67 238.82288 208.1689 240.13248 208.35598 240.63138 C 208.60543 241.31736 208.73015 241.255 208.73015 240.38193 C 208.79251 239.38413 207.35819 232.77376 205.0508 223.48181 C 204.67662 222.10985 204.17772 219.30356 203.8659 217.2456 C 203.5541 215.18766 202.80576 211.82011 202.2445 209.76217 C 201.68324 207.70422 200.9349 204.7732 200.68545 203.21415 C 198.9393 193.54804 197.94152 189.4945 197.44262 189.4945 C 197.06845 189.4945 197.00609 189.9934 197.25554 190.55466 Z" fill="black"/>
        </g>
        <g id="Graphic_139">
          <path d="M 216.27596 194.17166 C 216.27596 194.67055 216.77485 195.98016 217.39847 197.10267 C 218.0221 198.2252 219.08225 201.09384 219.70587 203.52596 C 220.76602 207.5795 223.07342 213.44153 224.44538 215.68656 C 224.7572 216.18546 225.19373 217.05852 225.38081 217.55742 C 225.5679 218.05632 226.00444 218.99175 226.31625 219.553 C 226.62806 220.17663 226.8775 221.17442 226.8775 221.8604 C 226.8775 222.48402 227.31404 223.3571 227.81293 223.79363 C 228.31183 224.23016 228.74837 225.10323 228.74837 225.72685 C 228.74837 226.787 233.05135 231.9007 233.98678 231.9007 C 234.85984 231.9007 234.17386 229.78038 231.8041 225.04087 C 230.43214 222.29694 229.4967 219.7401 229.6838 219.42828 C 230.12033 218.7423 226.12916 209.82453 225.069 209.2009 C 224.69483 208.95146 224.38302 207.95367 224.38302 206.95587 C 224.38302 205.95808 224.13357 205.02265 223.82176 204.7732 C 222.9487 204.2743 220.01768 198.8488 220.01768 197.78865 C 220.01768 196.66614 217.64792 193.23623 216.83722 193.23623 C 216.5254 193.23623 216.27596 193.67276 216.27596 194.17166 Z" fill="black"/>
        </g>
        <g id="Graphic_138">
          <path d="M 190.70752 208.76437 C 190.70752 209.51272 192.32893 210.75996 192.76547 210.32342 C 193.32673 209.6998 192.51602 208.20312 191.5806 208.20312 C 191.0817 208.20312 190.70752 208.45256 190.70752 208.76437 Z" fill="black"/>
        </g>
        <g id="Graphic_137">
          <path d="M 252.44594 229.4062 C 252.44594 229.71802 252.75775 230.15455 253.06956 230.34164 C 253.44373 230.52873 253.69318 231.46416 253.69318 232.3996 C 253.69318 233.33502 254.1297 234.64462 254.6286 235.26824 C 255.1275 235.95422 255.56404 237.51327 255.56404 238.69815 C 255.6264 239.9454 256.00058 241.62917 256.49947 242.50224 C 256.99837 243.3753 257.37254 244.80963 257.4349 245.74506 C 257.4349 246.6805 257.7467 247.61592 258.05852 247.803 C 258.4327 247.9901 258.68214 248.9879 258.68214 249.98568 C 258.68214 250.98347 258.9316 251.9189 259.2434 252.106 C 259.49285 252.29308 259.92938 253.35323 260.17883 254.47575 C 260.80245 257.71857 263.8582 264.32895 264.73126 264.32895 C 265.85378 264.32895 265.72905 261.70974 264.60654 260.21306 C 264.10764 259.58944 263.6711 258.46692 263.6711 257.78094 C 263.6711 257.09495 263.23457 255.97244 262.73568 255.34882 C 262.23678 254.66283 261.80025 253.2285 261.80025 252.106 C 261.80025 250.2975 261.30135 248.92553 258.30797 242.93877 C 257.80907 241.94098 257.4349 240.7561 257.4349 240.2572 C 257.4349 239.7583 257.18545 238.88524 256.87364 238.26162 C 255.68877 235.89186 255.00278 233.95864 254.6286 231.77597 C 254.44152 230.52873 253.88027 229.34385 253.38137 229.15676 C 252.88247 228.96967 252.44594 229.0944 252.44594 229.4062 Z" fill="black"/>
        </g>
        <g id="Graphic_136">
          <path d="M 273.0254 276.67663 C 273.0254 277.42498 273.27486 278.5475 273.58667 279.1711 C 273.89848 279.73237 275.08336 282.1645 276.26824 284.5966 C 277.39076 286.96637 278.70036 289.27377 279.1369 289.77266 C 279.51106 290.2092 279.88524 290.95754 279.88524 291.39407 C 279.88524 292.5166 281.569 293.8262 282.00555 293.1402 C 282.31736 292.6413 274.45974 276.80136 273.3996 275.67884 C 273.2125 275.49175 273.0254 275.9283 273.0254 276.67663 Z" fill="black"/>
        </g>
        <g id="Graphic_135">
          <path d="M 246.2721 276.61427 C 246.20974 277.0508 247.02044 279.1711 248.0806 281.29142 C 249.0784 283.4741 250.32563 286.7793 250.82453 288.7125 C 251.32342 290.64573 252.13413 293.1402 252.6954 294.138 C 253.25665 295.19816 253.69318 297.00666 253.69318 298.19154 C 253.69318 299.62586 254.19208 300.74838 255.25223 301.74617 C 256.1253 302.55688 256.99837 304.11593 257.18545 305.3008 C 257.37254 306.42333 257.80907 307.54584 258.1209 307.73293 C 258.4327 307.92 258.68214 308.4189 258.68214 308.9178 C 258.68214 309.35434 259.5552 311.59938 260.553 313.78205 C 261.61316 316.02708 262.42387 318.2721 262.42387 318.771 C 262.42387 319.2699 262.98512 320.33006 263.60874 321.14077 C 264.79362 322.5751 264.91835 322.5751 265.91614 321.5773 C 266.91393 320.64187 266.91393 320.20534 266.2903 318.39684 C 265.85378 317.27432 265.54197 315.9647 265.54197 315.5282 C 265.54197 314.5304 261.3637 306.1115 260.17883 304.8019 C 259.67994 304.303 259.30576 303.24286 259.30576 302.43216 C 259.30576 301.6838 258.86923 300.93547 258.37033 300.74838 C 257.87144 300.49893 257.4349 299.93767 257.4349 299.43878 C 257.4349 298.87752 256.49947 296.6325 255.3146 294.3251 C 254.1297 292.08006 251.63523 286.96637 249.702 283.03756 C 247.83115 279.10875 246.2721 276.2401 246.2721 276.61427 Z" fill="black"/>
        </g>
        <g id="Graphic_134">
          <path d="M 267.84936 281.91504 C 268.03645 282.72575 268.53535 283.7859 268.90952 284.2848 C 269.2837 284.7837 270.21912 286.46747 270.9051 288.02652 C 274.335 295.19816 275.021 296.50776 275.70698 297.63028 C 278.57563 302.24507 280.32177 305.3008 280.69594 306.23624 C 280.88303 306.85986 281.4443 307.35876 281.9432 307.35876 C 282.37972 307.35876 283.43987 308.04474 284.25058 308.9178 C 285.6849 310.47686 287.36868 310.97575 287.36868 309.9156 C 287.36868 309.6038 286.80742 309.2296 286.12144 309.04253 C 285.3731 308.85545 284.8742 308.16946 284.8742 307.48348 C 284.8742 306.1115 282.94098 302.3698 282.255 302.3698 C 282.00555 302.3698 281.0701 300.99783 280.2594 299.3764 C 279.4487 297.69264 278.26382 296.00887 277.76493 295.57233 C 277.20367 295.07344 276.76713 294.26273 276.76713 293.6391 C 276.76713 293.0155 276.3306 292.20478 275.8317 291.76825 C 275.3328 291.3317 274.89627 290.7081 274.89627 290.33392 C 274.89627 289.95975 274.2103 288.96196 273.3996 288.0889 C 272.5265 287.15346 271.2169 285.22023 270.4062 283.72354 C 268.7848 280.6678 267.2881 279.5453 267.84936 281.91504 Z" fill="black"/>
        </g>
        <g id="Graphic_133">
          <path d="M 121.48566 178.26934 C 121.48566 178.58115 123.04471 178.89296 124.91557 178.89296 C 128.53257 178.89296 129.9669 180.01547 128.40785 181.57452 C 128.03367 181.9487 127.72186 182.63468 127.72186 183.13358 C 127.72186 183.88192 127.90895 183.88192 128.6573 183.2583 C 129.15619 182.82177 129.59272 181.69925 129.59272 180.70146 C 129.59272 179.70366 129.90453 178.89296 130.40343 178.89296 C 130.90233 178.89296 130.83996 178.6435 130.21634 178.26934 C 128.9691 177.45863 121.48566 177.45863 121.48566 178.26934 Z" fill="black"/>
        </g>
        <g id="Graphic_132">
          <path d="M 116.87087 180.88854 C 115.87308 184.00664 114.43875 188.12254 113.93985 188.9956 C 113.62804 189.61923 113.3786 190.55466 113.3786 191.17828 C 113.3786 191.73954 113.12915 193.04914 112.75497 194.1093 C 107.4542 211.13413 105.83279 216.49727 106.08224 216.68435 C 106.51877 217.12089 110.88411 206.5817 110.88411 205.14738 C 110.88411 203.9625 111.94427 200.59495 113.44096 197.28976 C 113.6904 196.60378 114.37639 194.35874 114.93764 192.3008 C 115.93544 188.6838 116.62142 186.62585 117.8063 184.38082 C 118.55464 182.88413 118.49228 180.1402 117.74394 180.1402 C 117.36976 180.1402 116.99559 180.51437 116.87087 180.88854 Z" fill="black"/>
        </g>
        <g id="Graphic_131">
          <path d="M 123.2318 183.69483 C 122.98235 186.56349 121.85983 186.81294 121.61038 184.00664 C 121.23621 180.32728 120.4255 181.9487 119.98897 187.12475 C 119.67716 191.11592 119.73952 192.42552 120.36314 192.92442 C 120.9244 193.29859 121.17385 194.73292 121.17385 196.79086 C 121.04912 199.90896 121.54802 200.90676 122.42109 199.41007 C 122.79526 198.8488 123.79305 192.73733 124.29195 187.93545 C 124.35431 186.8753 124.66612 185.5657 124.91557 185.00444 C 125.47683 183.63247 125.10266 181.88634 124.16723 181.57452 C 123.73069 181.38744 123.35652 182.19815 123.2318 183.69483 Z" fill="black"/>
        </g>
        <g id="Graphic_130">
          <path d="M 157.718 183.07121 C 157.718 184.13137 157.4062 185.25389 157.03202 185.44097 C 156.72021 185.62806 156.4084 187.43656 156.4084 189.36978 C 156.4084 192.73733 155.84714 196.79086 154.41282 203.21415 C 154.101 204.7732 153.53975 208.14075 153.22794 210.6976 C 152.85376 213.25444 152.04306 217.18325 151.35708 219.42828 C 149.92275 224.41725 149.86039 225.60212 151.16999 226.10102 C 152.72904 226.66228 153.91392 224.9785 155.84714 219.36592 C 158.09218 212.94263 159.08997 205.771 159.08997 196.35433 C 159.08997 189.80631 157.90509 178.3317 157.718 183.07121 Z" fill="black"/>
        </g>
        <g id="Graphic_129">
          <path d="M 127.59714 186.12695 C 127.28533 186.3764 127.09824 187.12475 127.09824 187.8731 C 127.09824 188.74616 127.28533 188.93325 127.78422 188.43435 C 128.1584 188.06018 128.34548 187.24947 128.22076 186.68821 C 128.1584 186.12695 127.84659 185.8775 127.59714 186.12695 Z" fill="black"/>
        </g>
        <g id="Graphic_128">
          <path d="M 126.3499 190.4923 C 126.03809 190.74174 125.851 191.61481 125.851 192.42552 C 125.851 193.29859 125.60155 194.4211 125.3521 194.98236 C 125.0403 195.54362 124.97793 196.7285 125.28974 197.60157 L 125.72628 199.16062 L 125.78864 197.41448 C 125.851 196.4167 126.16281 195.10709 126.53698 194.4211 C 127.22297 193.04914 127.09824 189.6816 126.3499 190.4923 Z" fill="black"/>
        </g>
        <g id="Graphic_127">
          <path d="M 114.62583 199.28534 C 114.62583 201.84219 106.33168 226.59992 101.46744 238.76051 C 100.96855 239.88303 101.03091 240.13248 101.46744 239.63358 C 102.58996 238.57343 106.89294 227.5977 111.50773 213.87806 C 115.68599 201.3433 116.55906 197.60157 115.24946 197.60157 C 114.93764 197.60157 114.62583 198.34991 114.62583 199.28534 Z" fill="black"/>
        </g>
        <g id="Graphic_126">
          <path d="M 124.0425 201.77983 C 124.0425 202.83998 123.73069 203.9625 123.35652 204.14958 C 123.04471 204.33667 122.7329 205.20974 122.7329 206.02044 C 122.7329 206.83115 122.48345 207.70422 122.10928 207.8913 C 121.79747 208.0784 121.48566 209.2009 121.48566 210.26106 C 121.48566 212.63082 119.67716 222.42166 118.99118 223.79363 C 118.74173 224.35488 118.3052 226.787 118.05575 229.28148 C 117.74394 232.7114 117.24504 234.27045 116.12252 235.58005 C 115.31182 236.57784 114.81292 237.51327 115.06237 237.76272 C 115.43654 238.07453 114.81292 239.7583 112.06899 245.9945 C 111.44537 247.42884 110.75939 249.42442 110.50994 250.35985 C 110.26049 251.35765 109.38742 253.7274 108.57672 255.59826 C 105.6457 262.20864 105.27153 263.14407 105.27153 264.01714 C 105.27153 265.7009 107.01767 265.01493 108.01546 262.957 C 108.57672 261.89683 109.01325 260.71195 109.01325 260.27542 C 109.01325 259.83888 109.63687 259.02818 110.32285 258.3422 C 112.81734 256.09716 120.17606 239.38413 120.23842 235.8295 C 120.23842 235.20588 120.67495 234.14572 121.17385 233.5221 C 121.67274 232.83612 122.10928 231.52652 122.10928 230.65345 C 122.10928 229.78038 122.35873 228.7826 122.67054 228.40842 C 122.98235 228.0966 123.35652 226.72464 123.5436 225.35268 C 123.98014 221.67332 125.22738 215.06294 125.97573 212.44373 C 126.53698 210.63523 126.47462 209.388 125.66392 206.83115 C 125.10266 205.02265 124.5414 202.6529 124.41667 201.6551 L 124.16723 199.78424 Z" fill="black"/>
        </g>
        <g id="Graphic_125">
          <path d="M 102.15343 226.84936 C 101.28036 228.53314 101.34272 229.4062 102.46524 229.4062 C 103.08886 229.4062 103.40067 228.7826 103.40067 227.53535 C 103.40067 225.35268 103.08886 225.1656 102.15343 226.84936 Z" fill="black"/>
        </g>
        <g id="Graphic_124">
          <path d="M 148.73787 228.5955 C 148.48842 228.7826 148.30134 229.65566 148.30134 230.52873 C 148.30134 231.83833 148.42606 231.9007 149.23677 231.27707 C 149.73566 230.84054 150.1722 229.96747 150.1722 229.34385 C 150.1722 228.15897 149.48621 227.7848 148.73787 228.5955 Z" fill="black"/>
        </g>
        <g id="Graphic_123">
          <path d="M 100.7191 231.2147 C 100.46965 232.27486 100.53201 232.5243 101.03091 232.02541 C 101.34272 231.7136 101.52981 231.02762 101.40508 230.5911 C 101.218 230.0922 100.96855 230.404 100.7191 231.2147 Z" fill="black"/>
        </g>
        <g id="Graphic_122">
          <path d="M 96.6032 242.5646 C 94.79471 247.42884 93.4851 251.54473 93.73455 251.73182 C 94.29581 252.29308 95.04415 251.1082 95.91722 248.11482 C 96.35376 246.55577 97.16446 244.80963 97.66336 244.24837 C 98.16226 243.62475 98.66115 242.19043 98.72351 241.00555 C 98.78588 239.88303 99.03533 238.69815 99.16005 238.38634 C 99.65895 237.57564 100.40729 233.77155 100.09548 233.77155 C 99.97076 233.77155 98.4117 237.70036 96.6032 242.5646 Z" fill="black"/>
        </g>
        <g id="Graphic_121">
          <path d="M 94.10872 257.59385 C 88.12197 272.37365 80.26435 290.14683 75.89901 298.81516 C 73.46689 303.61703 72.84327 306.1115 74.15287 306.1115 C 74.46468 306.1115 75.21303 305.05136 75.71192 303.74176 C 76.21082 302.4945 77.02153 300.74838 77.52042 299.8753 C 79.2042 296.88193 83.94371 287.0911 85.00387 284.2848 C 85.56512 282.72575 86.31347 280.9796 86.62528 280.41836 C 86.93709 279.79474 87.18654 278.79694 87.18654 278.2357 C 87.18654 277.61206 87.87252 275.86593 88.74559 274.36924 C 89.61866 272.9349 90.30464 271.3135 90.30464 270.8146 C 90.30464 270.3157 90.74117 269.75445 91.24007 269.56736 C 91.73897 269.3179 92.1755 268.75665 92.1755 268.25776 C 92.1755 267.75886 92.73676 266.63635 93.42274 265.76328 C 94.10872 264.8902 94.66998 263.45588 94.66998 262.64517 C 94.66998 261.7721 95.10652 260.08833 95.66777 258.8411 C 96.22903 257.5315 97.03974 255.59826 97.53864 254.47575 C 98.03753 253.35323 98.4117 251.79418 98.4117 251.04584 C 98.4117 250.23513 98.66115 249.36206 98.97296 248.9879 C 99.4095 248.55135 100.40729 243.12586 100.03312 243.12586 C 99.97076 243.12586 97.28919 249.6115 94.10872 257.59385 Z" fill="black"/>
        </g>
        <g id="Graphic_120">
          <path d="M 89.74338 260.4625 C 87.99724 264.82785 86.56292 268.63193 86.56292 268.94374 C 86.56292 269.25555 85.62749 271.5006 84.44261 273.9327 C 81.88576 279.29584 81.26214 281.1667 82.07285 281.1667 C 83.07064 281.1667 92.1755 259.77652 92.1755 257.46913 C 92.1755 256.8455 92.61204 255.91007 93.11093 255.34882 C 94.17109 254.35102 94.29581 253.35323 93.54747 252.85433 C 93.23566 252.66725 91.55188 256.09716 89.74338 260.4625 Z" fill="black"/>
        </g>
        <g id="Graphic_119">
          <path d="M 93.04857 271.6253 C 92.11314 273.6209 90.74117 276.61427 89.93047 278.3604 C 89.0574 280.0442 88.43378 281.72796 88.43378 282.03977 C 88.43378 282.28922 85.50276 288.4007 81.94813 295.57233 C 78.33113 302.74397 75.64956 308.73072 75.96137 308.9178 C 76.64735 309.35434 78.33113 307.67057 79.82782 305.11372 C 80.45144 304.11593 81.19978 302.8687 81.51159 302.3698 C 82.01049 301.49672 82.75883 299.93767 84.9415 294.76162 C 85.50276 293.5144 85.9393 292.08006 85.9393 291.58116 C 85.9393 291.08226 86.37583 290.33392 86.81237 289.8974 C 88.12197 288.83723 90.11755 284.53425 90.99062 280.8549 C 91.92605 276.86372 93.4851 273.74562 95.54305 271.87476 C 97.47627 270.0039 97.72572 268.07067 95.91722 268.07067 C 94.98179 268.07067 94.23345 269.0061 93.04857 271.6253 Z" fill="black"/>
        </g>
        <g id="Graphic_118">
          <path d="M 80.45144 284.2848 C 80.45144 285.15787 80.57616 285.46968 80.76325 285.03315 C 80.88797 284.65897 80.88797 283.91063 80.76325 283.4741 C 80.57616 283.09992 80.45144 283.41173 80.45144 284.2848 Z" fill="black"/>
        </g>
        <g id="Graphic_117">
          <path d="M 78.45585 287.52763 C 78.45585 288.7125 78.58058 288.77487 79.07947 288.02652 C 79.89018 286.84165 79.89018 286.15566 79.07947 286.15566 C 78.76766 286.15566 78.45585 286.7793 78.45585 287.52763 Z" fill="black"/>
        </g>
        <g id="Graphic_116">
          <path d="M 101.03091 291.45644 C 100.59438 292.3295 100.28257 293.6391 100.28257 294.26273 C 100.28257 294.9487 100.03312 295.50997 99.65895 295.50997 C 99.34714 295.50997 99.03533 295.82178 99.03533 296.2583 C 99.03533 297.9421 101.40508 294.4498 101.77925 292.20478 C 102.27815 289.5232 102.0287 289.27377 101.03091 291.45644 Z" fill="black"/>
        </g>
        <g id="Graphic_115">
          <path d="M 113.93985 296.19595 C 113.50332 297.69264 112.94206 299.18933 112.63025 299.50114 C 112.3808 299.8753 112.13135 300.62366 112.13135 301.24728 C 112.13135 301.8709 111.69482 302.55688 111.19592 302.74397 C 110.5723 302.9934 110.26049 303.9912 110.26049 305.4879 C 110.26049 308.23183 109.38742 309.16726 108.45199 307.54584 C 107.57892 305.92443 106.9553 306.92222 107.4542 309.16726 C 107.82837 311.0381 107.89073 311.0381 109.57451 310.16505 C 112.06899 308.9178 113.87749 304.86428 115.24946 297.38083 C 115.93544 293.6391 114.93764 292.76604 113.93985 296.19595 Z" fill="black"/>
        </g>
        <g id="Graphic_114">
          <path d="M 97.35155 300.31185 C 96.54084 301.99562 95.91722 303.61703 95.91722 303.8665 C 95.91722 304.11593 95.23124 305.23845 94.42053 306.2986 C 93.54747 307.42112 92.73676 309.1049 92.48731 310.16505 L 92.11314 312.0359 L 93.67219 310.16505 C 94.54526 309.1049 95.2936 308.04474 95.2936 307.73293 C 95.2936 307.42112 96.16667 305.36317 97.22683 303.1805 C 98.28698 301.0602 99.03533 298.81516 98.9106 298.2539 C 98.78588 297.5679 98.16226 298.37862 97.35155 300.31185 Z" fill="black"/>
        </g>
      </g>
    </g>
  </g>
</svg>
