<?xml version="1.0" encoding="UTF-8" standalone="no"?>
<!DOCTYPE svg PUBLIC "-//W3C//DTD SVG 1.1//EN" "http://www.w3.org/Graphics/SVG/1.1/DTD/svg11.dtd">
<svg xmlns="http://www.w3.org/2000/svg" xmlns:xl="http://www.w3.org/1999/xlink" version="1.1" xmlns:dc="http://purl.org/dc/elements/1.1/" viewBox="49.5 62.18747 265.5 351.81253" width="265.5" height="351.81253">
  <defs>
    <clipPath id="artboard_clip_path">
      <path d="M 49.5 62.18747 L 315 62.18747 L 315 414 L 49.5 414 Z"/>
    </clipPath>
  </defs>
  <g id="Pine_Tree_(2)" stroke-opacity="1" fill="none" fill-opacity="1" stroke-dasharray="none" stroke="none">
    <title>Pine Tree (2)</title>
    <g id="Pine_Tree_(2)_Layer_2" clip-path="url(#artboard_clip_path)">
      <title>Layer 2</title>
      <g id="Graphic_11">
        <rect x="298.6875" y="407.5704" width="76.608" height="91.9296" id="path"/>
        <clipPath id="clip_path">
          <use xl:href="#path"/>
        </clipPath>
        <g clip-path="url(#clip_path)">
          <image xl:href="image67.pdf" width="261" height="352" transform="translate(303.0615 407.7752) scale(.26)"/>
        </g>
      </g>
      <g id="Group_3">
        <g id="Graphic_6">
          <path d="M 168.80998 83.99773 C 157.14778 111.76487 148.81764 125.64845 136.04475 138.97668 C 125.49323 150.08353 125.7709 150.91655 141.59818 153.69326 C 150.76134 155.35929 151.87202 156.46998 150.206 161.74573 C 147.42928 170.9089 139.93215 180.6274 125.7709 193.67795 C 118.82912 200.0644 112.99802 206.17317 112.99802 207.28385 C 112.99802 211.17125 123.27186 216.16934 131.602 216.447 L 140.48749 216.447 L 134.93406 226.1655 C 129.6583 235.051 108.55528 256.70937 89.67362 272.53664 L 81.34347 279.47843 L 89.11827 284.4765 C 93.28335 287.25323 101.05815 289.75227 106.3339 289.75227 C 111.60966 290.02994 115.77473 290.86296 115.77473 291.69597 C 115.77473 298.91543 78.28909 330.2923 60.795786 337.78943 C 49.9666 342.23217 49.68893 344.7312 59.40743 352.506 C 66.349215 357.78178 69.68127 358.3371 94.94937 357.22643 C 119.10679 356.11575 137.4331 352.7837 155.48175 345.56423 C 159.64682 343.8982 160.20216 345.56423 160.20216 362.5022 C 160.20216 373.0537 158.25846 387.7703 156.0371 395.2674 C 153.81572 402.76455 151.87202 409.984 151.87202 411.37237 C 151.87202 412.48305 166.31094 413.59374 184.0819 413.59374 C 216.2918 413.59374 216.2918 413.59374 214.62577 407.2073 C 213.51508 403.87524 211.57138 391.6577 210.18302 380.27316 C 208.517 368.88863 206.5733 355.28273 205.74028 350.00698 C 204.07425 341.39916 204.35192 340.8438 209.07234 342.7875 C 219.62385 347.23026 264.60663 358.05945 272.93677 358.05945 C 282.09993 358.05945 310.7001 344.7312 312.08845 339.73313 C 312.6438 338.0671 304.869 332.51367 294.8728 327.5156 C 275.99116 317.7971 252.1114 295.3057 235.45113 271.1483 L 226.8433 258.65307 L 238.5055 260.04143 C 257.1095 262.81814 278.4902 247.82388 263.21827 242.8258 C 258.2202 241.43744 249.3347 231.9966 232.11907 210.33824 C 226.0103 202.56344 204.6296 167.57683 204.6296 165.35546 C 204.6296 165.0778 209.07234 165.35546 214.62577 165.9108 C 225.45495 167.29916 237.95017 162.0234 237.95017 156.46998 C 237.95017 154.52628 231.8414 147.02915 224.0666 139.80969 C 216.56947 132.59023 210.18302 125.64845 210.18302 124.26009 C 210.18302 123.1494 206.85097 116.76296 202.6859 110.09884 C 198.52082 103.7124 191.8567 90.66184 187.9693 80.94334 C 183.80424 71.50251 179.91684 63.17237 179.3615 62.61703 C 178.80615 62.061684 174.08574 71.50251 168.80998 83.99773 Z" fill="black"/>
        </g>
        <g id="Graphic_5">
          <path d="M 187.1363 93.71623 C 198.24315 117.3183 207.12864 131.20187 218.79084 143.14175 C 225.17728 149.52819 229.34235 156.1923 228.50934 157.85833 C 225.45495 162.57875 212.12673 161.1904 204.6296 155.35929 C 189.913 143.69709 189.63534 152.3049 204.35192 178.6837 C 216.84714 201.45275 229.34235 218.11304 246.55798 236.43935 C 258.2202 248.6569 259.0532 250.04525 254.3328 252.5443 C 245.72497 257.2647 234.34044 255.59868 223.51125 248.10155 C 217.68015 243.93648 212.12673 241.43744 211.2937 242.27045 C 208.517 244.7695 234.6181 281.97747 253.49977 301.9698 C 262.9406 312.24366 278.21253 325.01654 287.65336 330.56997 L 304.5913 340.56615 L 290.9854 346.6749 C 274.32513 353.6167 270.99307 353.89438 245.72497 348.06328 C 226.28797 343.62053 221.0122 341.67683 196.29945 328.90395 L 184.0819 322.5175 L 174.91875 329.4593 C 154.64874 345.0089 88.56293 359.72548 71.3473 352.506 C 66.62689 350.5623 63.01716 348.34095 63.29483 347.23026 C 63.29483 346.39725 71.62497 339.1778 81.62114 331.68066 C 112.165 308.35626 115.49706 305.30187 122.99419 292.2513 C 130.21365 280.31144 130.49132 274.20267 123.54953 279.47843 C 117.16309 284.4765 107.16692 285.5872 98.83677 281.97747 L 90.7843 278.6454 L 108.55528 263.92883 C 118.27378 255.87635 130.49132 242.8258 135.76708 234.77332 C 153.53805 207.56152 155.48175 201.73042 144.09722 207.8392 C 136.87776 211.7266 127.7146 211.7266 125.49323 208.11687 C 124.66022 206.7285 129.38063 199.50905 136.32242 192.2896 C 149.65065 178.6837 167.14395 145.91846 164.08956 140.92038 C 162.97888 138.97668 161.31285 139.53202 159.64682 142.5864 C 157.9808 145.36312 153.53805 147.02915 147.1516 147.02915 L 137.4331 147.02915 L 146.3186 136.7553 C 151.31668 131.20187 160.47984 116.20762 166.5886 103.43473 C 172.69738 90.66184 178.2508 80.388 179.3615 80.388 C 180.1945 80.388 183.80424 86.49677 187.1363 93.71623 Z" fill="#FFFFFF"/>
        </g>
        <g id="Graphic_4">
          <path d="M 191.8567 332.01336 C 195.7441 333.95706 199.35384 338.3998 200.18685 342.56487 C 201.29754 348.1183 207.4063 403.3749 207.4063 408.373 C 207.4063 408.92835 196.57712 409.4837 183.52657 409.4837 L 159.36915 409.4837 L 161.31285 398.93217 C 162.42354 393.37874 163.8119 377.82914 164.92258 364.5009 C 166.5886 340.89884 166.86628 339.78816 175.19642 334.79007 C 179.91684 331.7357 184.0819 329.23664 184.35958 329.23664 C 184.63725 328.95897 187.9693 330.34733 191.8567 332.01336 Z" fill="#FFFFFF"/>
        </g>
      </g>
    </g>
  </g>
</svg>
