<?xml version="1.0" encoding="UTF-8" standalone="no"?>
<!DOCTYPE svg PUBLIC "-//W3C//DTD SVG 1.1//EN" "http://www.w3.org/Graphics/SVG/1.1/DTD/svg11.dtd">
<svg xmlns="http://www.w3.org/2000/svg" xmlns:xl="http://www.w3.org/1999/xlink" version="1.1" xmlns:dc="http://purl.org/dc/elements/1.1/" viewBox="67.5 63 90 351" width="90" height="351">
  <defs>
    <clipPath id="artboard_clip_path">
      <path d="M 67.5 63 L 157.5 63 L 157.5 414 L 67.5 414 Z"/>
    </clipPath>
  </defs>
  <g id="Poppy_Boll_Slipped" stroke-opacity="1" fill="none" fill-opacity="1" stroke-dasharray="none" stroke="none">
    <title>Poppy Boll Slipped</title>
    <g id="Poppy_Boll_Slipped_Art" clip-path="url(#artboard_clip_path)">
      <title>Art</title>
      <g id="Group_766">
        <g id="Graphic_770">
          <path d="M 107.8345 172.5255 C 107.02264 215.60707 103.5 402.7659 103.5 406.74736 C 103.5 411.24736 121.5 411.24736 121.5 406.74736 C 121.5 402.7659 117.97736 215.60707 117.1655 172.5255 C 126.68606 171.61721 135.93359 167.91999 143.23146 161.43384 C 160.20407 146.3492 160.20407 121.8922 143.23146 106.80756 C 126.25894 91.72285 98.74106 91.72285 81.76854 106.80756 C 64.79593 121.8922 64.79593 146.3492 81.76854 161.43384 C 89.06641 167.91999 98.31394 171.61721 107.8345 172.52552 Z" fill="#FFFFFF"/>
          <path d="M 107.8345 172.5255 C 107.02264 215.60707 103.5 402.7659 103.5 406.74736 C 103.5 411.24736 121.5 411.24736 121.5 406.74736 C 121.5 402.7659 117.97736 215.60707 117.1655 172.5255 C 126.68606 171.61721 135.93359 167.91999 143.23146 161.43384 C 160.20407 146.3492 160.20407 121.8922 143.23146 106.80756 C 126.25894 91.72285 98.74106 91.72285 81.76854 106.80756 C 64.79593 121.8922 64.79593 146.3492 81.76854 161.43384 C 89.06641 167.91999 98.31394 171.61721 107.8345 172.52552 Z" stroke="black" stroke-linecap="round" stroke-linejoin="round" stroke-width="1.5"/>
        </g>
        <g id="Graphic_769">
          <path d="M 97.89772 97.72671 L 97.89772 97.7267 C 108.55874 94.35757 120.40392 94.80148 130.7529 99.05844 C 135.53817 97.17298 140.02173 94.35994 143.90673 90.61932 C 147.38215 87.27308 150.08662 83.46565 152.02013 79.40163 C 146.19755 79.44241 140.38243 80.69614 135.01868 83.16281 C 135.11273 82.8807 135.2037 82.59686 135.29155 82.31131 C 136.68749 77.7739 137.17734 73.18536 136.8625 68.72552 C 130.74214 71.98083 125.49803 76.76828 121.80567 82.73476 C 121.0416 77.03065 118.96177 71.62377 115.81137 66.87764 C 113.32449 70.65238 111.481 74.90991 110.45913 79.5388 C 110.22008 80.62162 110.03069 81.70348 109.88948 82.78219 C 106.19559 76.79366 100.93992 71.98945 94.80334 68.72552 C 94.48851 73.18536 94.97836 77.7739 96.3743 82.31131 C 96.46215 82.59686 96.55312 82.8807 96.64717 83.1628 C 91.28341 80.69614 85.4683 79.44241 79.64572 79.40163 C 81.57923 83.46565 84.2837 87.27308 87.75912 90.61932 C 90.81623 93.56281 94.24398 95.93195 97.89772 97.72671 Z" fill="#FFFFFF"/>
          <path d="M 97.89772 97.72671 L 97.89772 97.7267 C 108.55874 94.35757 120.40392 94.80148 130.7529 99.05844 C 135.53817 97.17298 140.02173 94.35994 143.90673 90.61932 C 147.38215 87.27308 150.08662 83.46565 152.02013 79.40163 C 146.19755 79.44241 140.38243 80.69614 135.01868 83.16281 C 135.11273 82.8807 135.2037 82.59686 135.29155 82.31131 C 136.68749 77.7739 137.17734 73.18536 136.8625 68.72552 C 130.74214 71.98083 125.49803 76.76828 121.80567 82.73476 C 121.0416 77.03065 118.96177 71.62377 115.81137 66.87764 C 113.32449 70.65238 111.481 74.90991 110.45913 79.5388 C 110.22008 80.62162 110.03069 81.70348 109.88948 82.78219 C 106.19559 76.79366 100.93992 71.98945 94.80334 68.72552 C 94.48851 73.18536 94.97836 77.7739 96.3743 82.31131 C 96.46215 82.59686 96.55312 82.8807 96.64717 83.1628 C 91.28341 80.69614 85.4683 79.44241 79.64572 79.40163 C 81.57923 83.46565 84.2837 87.27308 87.75912 90.61932 C 90.81623 93.56281 94.24398 95.93195 97.89772 97.72671 Z" stroke="black" stroke-linecap="round" stroke-linejoin="round" stroke-width="1.5"/>
        </g>
        <g id="Line_768">
          <path d="M 108.07994 163.74736 C 108.07994 163.74736 107.84184 172.64022 107.84184 172.64022" stroke="black" stroke-linecap="round" stroke-linejoin="round" stroke-width="1.5"/>
        </g>
        <g id="Line_767">
          <path d="M 116.92518 163.65212 C 116.92518 163.65212 117.16327 172.54498 117.16327 172.54498" stroke="black" stroke-linecap="round" stroke-linejoin="round" stroke-width="1.5"/>
        </g>
      </g>
    </g>
  </g>
</svg>
