<?xml version="1.0" encoding="UTF-8" standalone="no"?>
<!DOCTYPE svg PUBLIC "-//W3C//DTD SVG 1.1//EN" "http://www.w3.org/Graphics/SVG/1.1/DTD/svg11.dtd">
<svg xmlns="http://www.w3.org/2000/svg" xmlns:xl="http://www.w3.org/1999/xlink" version="1.1" xmlns:dc="http://purl.org/dc/elements/1.1/" viewBox="49.5 60.39803 265.5 286.10197" width="265.5" height="286.10197">
  <defs>
    <clipPath id="artboard_clip_path">
      <path d="M 49.5 60.39803 L 315 60.39803 L 315 346.5 L 247.57143 346.5 L 49.5 346.5 Z"/>
    </clipPath>
  </defs>
  <g id="Portcullis_(3)" stroke-opacity="1" fill="none" fill-opacity="1" stroke-dasharray="none" stroke="none">
    <title>Portcullis (3)</title>
    <g id="Portcullis_(3)_Layer_2" clip-path="url(#artboard_clip_path)">
      <title>Layer 2</title>
      <g id="Group_3">
        <g id="Graphic_112">
          <path d="M 75.05928 64.98847 C 61.75259 65.55072 57.53568 66.95636 55.192956 71.64181 C 53.412483 75.01534 53.69361 80.356755 55.84892 82.98061 C 57.53568 85.22963 57.62939 86.16672 56.78601 100.69163 C 56.317465 109.12544 55.84892 154.66805 55.84892 201.80372 C 55.94263 297.4807 56.03634 298.6989 61.94001 310.50625 C 65.87579 318.2841 69.436736 321.09538 80.02586 324.75003 C 87.71001 327.3739 88.74081 327.5613 97.08091 326.90534 C 114.79193 325.5934 126.59927 325.406 130.06651 326.5305 C 132.87778 327.4676 133.53375 328.21727 134.00229 330.6537 C 134.47084 332.7153 135.87647 334.7769 138.59404 336.9322 C 146.09076 343.117 149.27687 343.67927 156.96102 340.39945 C 161.83389 338.24414 164.27032 334.96432 166.42563 327.84243 C 167.83127 322.96956 165.67596 314.72316 161.83389 310.59996 C 156.11763 304.50887 143.18578 303.7592 138.59404 309.28803 L 136.62614 311.72447 L 112.82404 312.0056 C 89.77161 312.28672 82.83713 311.63076 78.71393 308.8195 C 76.83975 307.60127 73.09139 300.6668 71.96688 296.4499 C 70.18641 289.60913 68.87448 280.51935 69.34303 278.83258 C 69.90528 276.77098 70.0927 244.62877 69.99899 161.60253 C 69.90528 86.82268 69.71786 89.35283 75.43412 89.72766 C 77.02717 89.82137 78.62023 90.28992 78.99506 90.66475 C 79.3699 91.03959 79.83844 134.4269 80.02586 187.0914 L 80.4007 282.86207 L 82.83713 284.82996 C 85.17986 286.79785 85.27357 286.98527 83.96164 289.4217 C 82.64972 291.85815 82.83713 292.3267 85.83582 298.13665 C 87.71001 301.51018 89.58419 304.41516 90.05273 304.50887 C 91.27095 304.79 100.82928 293.17007 100.82928 291.3896 C 100.82928 290.63993 100.45444 289.70284 99.89219 289.4217 C 97.64317 288.01607 99.0488 285.39222 102.51604 284.54884 L 105.98328 283.70546 L 106.2644 266.93153 C 106.35811 256.4361 106.1707 249.87648 105.51473 249.2205 C 105.04619 248.75197 104.57764 247.9086 104.57764 247.53375 C 104.57764 246.40924 121.25786 246.59666 121.91382 247.72117 C 122.19495 248.1897 123.50687 248.65826 124.8188 248.65826 L 127.16153 248.65826 L 126.97411 265.99444 C 126.8804 280.89418 127.06782 283.61175 128.37975 285.1111 C 129.22313 286.04818 129.87909 288.10978 129.87909 289.79655 C 129.87909 292.98265 134.37713 302.8221 136.81356 304.79 C 137.93807 305.8208 138.59404 305.44596 140.46822 302.35356 C 144.87254 295.32538 146.65302 291.20218 145.71593 289.79655 C 144.12287 287.2664 144.87254 286.04818 149.08945 284.2677 L 153.30636 282.48724 L 153.30636 274.8968 C 153.30636 269.5554 152.93152 267.40008 152.18185 267.40008 C 151.24476 267.40008 151.24476 267.21266 152.08814 266.6504 C 152.83782 266.18186 153.30636 262.80833 153.49378 257.56062 L 153.7749 249.1268 L 162.67727 249.1268 L 171.57963 249.1268 L 172.04818 266.463 C 172.3293 278.45775 172.89156 284.45513 173.73494 286.04818 C 174.48461 287.1727 174.76574 289.04687 174.48461 290.17138 C 174.20349 291.4833 175.4217 294.76313 177.95185 299.44858 C 180.10716 303.47807 182.07505 306.7579 182.35618 306.7579 C 182.91843 306.66418 190.32145 294.01345 191.35225 291.4833 C 191.72708 290.4525 191.35225 289.14058 190.32145 287.92236 C 188.63468 286.1419 188.63468 286.04818 190.41516 284.73626 C 191.35225 283.98658 193.13272 283.33062 194.16352 283.33062 C 196.78737 283.33062 197.34963 280.0508 197.34963 262.99575 C 197.34963 253.81226 197.72446 249.50164 198.47414 249.0331 C 200.2546 247.9086 212.6242 248.56455 213.84243 249.87648 C 215.24806 251.2821 216.56 260.4656 215.43548 261.12157 C 214.96693 261.4027 214.77952 266.5567 214.87323 272.55407 C 214.96693 282.48724 215.15435 283.61175 216.93483 284.92367 C 219.37126 286.61044 219.46497 287.73495 217.02853 288.48462 C 215.34177 289.04687 215.5292 289.51542 219.37126 295.13796 C 221.714 298.5115 223.58817 301.885 223.58817 302.6347 C 223.58817 305.9145 227.14911 303.00953 231.74086 295.98134 C 235.3955 290.4525 236.3326 288.2972 235.58293 287.3601 C 234.0836 285.57964 235.3955 283.33062 238.01937 283.33062 C 240.83064 283.33062 241.3929 281.83127 241.3929 274.42826 C 241.3929 270.5862 241.01806 268.33717 240.2684 268.05604 C 239.3313 267.6812 239.3313 267.4938 240.2684 267.4938 C 241.11177 267.40008 241.3929 264.86993 241.3929 258.02917 L 241.3929 248.65826 L 243.73562 248.65826 C 245.04755 248.65826 246.07835 248.1897 246.07835 247.72117 C 246.07835 247.1589 247.5777 246.9715 249.92042 247.34633 C 251.98202 247.72117 254.60587 248.0023 255.73038 248.096 C 257.79198 248.1897 257.79198 248.56455 258.26053 264.5888 C 258.63537 277.80178 259.0102 281.45644 260.32213 283.33062 C 261.25922 284.73626 261.72776 286.98527 261.54035 288.95316 C 261.35293 291.10847 261.91518 293.17007 263.32082 295.04425 C 264.35162 296.5436 266.3195 299.91713 267.53773 302.54098 C 269.2245 306.19563 269.88045 306.9453 270.53642 305.8208 C 278.5954 292.88894 280.09474 289.60913 278.87653 287.73495 C 277.84573 286.04818 277.93944 285.57964 279.90733 284.174 C 285.9984 279.58226 285.52987 284.92367 285.43616 226.3555 C 285.24874 121.86988 285.43616 91.32072 286.27954 90.85217 C 286.7481 90.57104 287.40405 91.88297 287.7789 93.75715 C 288.15372 95.72504 288.34114 131.70933 288.34114 173.691 C 288.24743 220.077 288.62227 255.59273 289.27823 264.02655 C 290.40274 279.48855 289.27823 297.5744 286.7481 303.47807 C 283.6557 310.8811 272.87915 315.098 260.60326 313.78607 C 257.0423 313.31752 248.7959 312.9427 242.4237 312.84898 L 230.80377 312.66156 L 225.46235 307.32014 C 225.46235 307.32014 222.87633 304.25518 219.87734 303.1074 C 216.87835 301.95966 213.84243 302.07243 213.84243 302.07243 C 201.94137 302.07243 195.47545 308.63207 195.47545 320.81425 C 195.47545 332.7153 207.3765 341.61767 220.12093 339.18123 C 224.43155 338.33785 231.0849 332.6216 231.0849 329.6229 C 231.0849 328.31098 231.64715 327.09276 232.39682 326.81163 C 235.02068 325.78083 243.17337 325.87454 253.10653 327.09276 C 272.5043 329.34178 280.09474 328.31098 288.15372 322.2199 C 294.33852 317.44072 296.96238 313.59865 300.05478 304.41516 C 302.3975 297.5744 302.58492 295.88764 302.3975 284.2677 C 302.3038 277.33324 302.2101 270.7736 302.3038 269.7428 C 303.14718 255.03048 303.2409 246.8778 302.4912 241.8175 C 302.11638 238.44397 302.02267 235.07044 302.4912 234.32077 C 303.3346 232.72772 303.4283 219.0462 302.67863 193.83845 C 302.3975 183.999 302.3038 173.03503 302.3975 169.47409 C 302.58492 160.19689 302.67863 147.07762 302.4912 128.71064 C 302.3975 112.59268 302.3975 108.93802 302.77234 98.3489 C 303.05347 87.19752 303.05347 87.19752 305.86474 84.9485 C 311.581 80.54417 312.04954 72.204065 306.89554 67.237484 L 304.08427 64.51992 L 195.66286 64.51992 C 136.06389 64.51992 81.80633 64.70734 75.05928 64.98847 Z M 70.84237 73.42228 L 70.84237 73.42228 C 72.622844 75.20276 73.37252 77.17065 72.1543 77.17065 C 71.87317 77.17065 70.84237 76.23356 69.90528 75.01534 L 68.21852 72.95374 L 65.78208 75.20276 C 64.470155 76.51468 63.06452 77.17065 62.68968 76.79581 C 61.94001 76.04614 66.531754 71.5481 68.12481 71.5481 C 68.59335 71.5481 69.81157 72.39148 70.84237 73.42228 Z M 294.61965 73.234865 L 294.61965 73.234865 C 294.90078 74.07825 294.43223 74.45308 293.30772 74.17196 C 292.46434 74.07825 291.52725 73.32857 291.24612 72.67261 C 290.965 71.82923 291.43354 71.45439 292.55805 71.73552 C 293.40143 71.82923 294.33852 72.5789 294.61965 73.234865 Z M 218.99642 312.9427 L 218.99642 312.9427 C 220.12093 313.9735 220.49577 315.2854 220.12093 317.90927 C 219.8398 319.87716 220.12093 322.4073 220.6832 323.5318 C 221.62028 325.21858 221.30446 326.26236 218.83325 327.46957 C 214.5236 329.6096 211.0297 330.803 207.0002 326.7735 C 203.43925 323.21257 202.97217 319.78345 205.4086 316.2225 C 208.4073 312.0056 215.90403 310.1314 218.99642 312.9427 Z M 151.7133 314.62945 L 151.7133 314.62945 C 163.70807 319.68974 160.33454 332.99643 147.12156 332.99643 C 143.65433 332.99643 139.62484 329.90403 140.74934 328.12356 C 141.12418 327.4676 141.87385 324.4689 142.4361 321.3765 C 143.27949 316.78476 143.93545 315.47283 145.80963 314.53574 C 148.71462 313.0364 148.05865 313.0364 151.7133 314.62945 Z M 168.29981 93.10119 L 168.29981 93.10119 C 169.98658 94.03828 170.174 94.97537 170.174 105.28337 C 170.174 111.37446 169.79916 116.62217 169.33061 116.9033 C 167.64385 117.9341 154.52458 118.68377 153.96232 117.74668 C 152.83782 115.9662 153.02523 92.91377 154.14974 92.25781 C 155.7428 91.22701 166.0508 91.88297 168.29981 93.10119 Z M 214.6858 104.81482 L 214.6858 117.9341 L 206.72054 118.49635 C 202.3162 118.77748 198.56785 118.87119 198.28672 118.68377 C 197.44334 117.9341 196.78737 95.44392 197.53705 93.85086 C 198.38043 92.1641 201.1917 91.69555 209.5318 91.69555 L 214.6858 91.69555 L 214.6858 104.81482 Z M 258.54166 95.06908 L 258.54166 95.06908 C 258.35424 97.03697 258.63537 99.56712 259.29133 100.69163 C 259.9473 102.09726 260.041 102.4721 259.29133 102.09726 C 258.63537 101.62872 258.26053 102.84693 258.26053 105.75192 C 258.26053 108.37577 258.63537 109.87511 259.19762 109.50028 C 259.75987 109.21915 260.1347 109.59399 260.1347 110.34366 C 260.1347 111.18704 259.75987 111.843 259.19762 111.843 C 258.72907 111.843 258.26053 113.34235 258.26053 115.12282 C 258.26053 117.55926 257.8857 118.40264 256.66747 118.49635 C 255.73038 118.59006 253.01282 118.77748 250.57638 118.9649 C 248.23366 119.15231 245.14126 118.9649 243.73562 118.40264 L 241.29919 117.46555 L 241.4866 105.93933 C 241.5803 99.66083 241.3929 93.85086 241.01806 93.00748 C 240.4558 91.69555 240.83064 91.50814 242.98595 91.60184 C 244.39159 91.78926 247.7651 91.60184 250.29526 91.32072 C 257.9794 90.38363 258.9165 90.75846 258.54166 95.06908 Z M 121.16415 92.63264 L 121.16415 92.63264 C 122.7572 92.91377 124.25655 93.66344 124.44396 94.31941 C 125.09993 96.19359 125.38106 115.40395 124.8188 117.27813 C 124.25655 118.87119 123.31946 119.0586 115.72902 118.77748 C 111.04357 118.68377 107.10779 118.40264 106.92037 118.21522 C 106.73295 118.0278 106.45182 112.7801 106.2644 106.40788 C 106.07699 98.44261 105.60844 94.88166 104.85877 94.60053 C 104.2028 94.31941 103.92168 93.56974 104.1091 92.91377 C 104.57764 91.69555 114.60451 91.50814 121.16415 92.63264 Z M 126.31815 150.63856 L 126.31815 150.63856 C 126.69298 163.57042 126.50556 169.19296 125.66218 169.84892 C 125.19364 170.31747 120.97673 170.5986 116.29127 170.50489 L 107.85746 170.41118 L 107.57633 158.79125 C 107.48262 152.23162 107.67004 146.8902 108.2323 146.60907 C 108.70084 146.32795 112.91775 145.95311 117.6032 145.95311 L 126.13073 145.8594 L 126.31815 150.63856 Z M 258.26053 158.229 L 258.26053 158.229 C 258.26053 165.72573 257.8857 170.03634 257.22973 170.50489 C 256.66747 170.87972 253.01282 171.34827 249.26446 171.53569 C 243.92304 171.91052 242.32999 171.7231 242.23628 170.6923 C 241.20548 145.8594 241.11177 147.54616 243.4545 147.07762 C 247.6714 146.14053 249.17075 146.04682 253.66878 146.32795 L 258.26053 146.70278 L 258.26053 158.229 Z M 170.92367 158.3227 L 170.92367 158.3227 C 171.2048 171.53569 171.76705 170.87972 160.61567 170.87972 C 154.89942 170.87972 154.24345 170.6923 154.14974 169.00554 C 153.7749 161.69624 153.96232 149.51405 154.52458 148.10842 C 155.08683 146.70278 156.21134 146.51536 162.86469 146.70278 L 170.64254 146.98391 L 170.92367 158.3227 Z M 215.6229 159.16609 L 215.6229 171.34827 L 207.18908 171.34827 C 197.34963 171.34827 197.63076 171.6294 197.44334 158.88496 C 197.34963 154.57435 196.88108 150.17002 196.31883 149.13922 C 195.66286 147.921 195.66286 147.45246 196.22512 147.8273 C 196.78737 148.10842 197.53705 148.01471 197.81817 147.45246 C 198.193 146.7965 201.75395 146.51536 207.00166 146.70278 L 215.6229 146.98391 L 215.6229 159.16609 Z M 124.8188 196.27489 L 124.8188 196.27489 C 125.94331 198.14907 126.03702 220.63925 124.91251 221.01408 C 123.41316 221.57634 116.38498 221.85746 111.4184 221.67005 L 107.48262 221.48263 L 107.2015 208.8319 L 106.92037 196.27489 L 109.2631 195.90005 C 114.4171 195.24409 124.25655 195.52521 124.8188 196.27489 Z M 241.3929 196.6151 L 241.3929 195.24409 L 248.51478 195.24409 C 252.35686 195.24409 256.29264 195.61892 257.22973 196.18118 C 258.72907 196.93085 258.9165 198.5239 259.0102 209.769 L 259.0102 222.41972 L 250.20155 222.41972 L 241.3929 222.41972 L 241.3929 208.8319 Z M 215.75175 196.6151 C 215.75168 198.64993 215.64626 203.3048 215.43548 208.64448 L 214.87323 221.48263 L 206.15828 221.48263 L 197.34963 221.48263 L 197.34963 209.01932 C 197.34963 201.71 197.72446 196.18118 198.28672 195.61892 C 199.1301 194.77554 214.96693 194.68183 215.7166 195.52521 C 215.74006 195.54866 215.75177 195.93595 215.75175 196.6151 L 153.30636 196.27489 L 158.74149 195.99376 C 163.80178 195.61892 167.36272 195.90005 169.98658 196.74343 C 170.82996 196.93085 171.11109 200.30438 171.11109 209.30045 L 171.11109 221.48263 L 162.20872 221.48263 L 153.30636 221.48263 L 153.30636 208.8319 L 153.30636 196.6151 C 215.75175 196.6151 215.75175 196.6151 215.75175 196.6151 Z" fill="black"/>
        </g>
        <g id="Graphic_111">
          <path d="M 251.04493 66.30039 L 251.04493 66.30039 C 223.40075 66.112975 200.0672 65.83185 199.31752 65.64443 C 198.47414 65.45701 192.75788 65.64443 186.57308 65.92556 C 180.38828 66.206684 150.96363 66.58152 121.16415 66.58152 L 66.90659 66.67523 L 62.59597 68.92425 C 59.316155 70.61101 57.91052 72.01665 57.160846 74.35937 C 55.94263 78.10774 56.78601 81.20014 59.03503 81.66868 C 60.253246 81.94981 60.53437 81.20014 60.53437 78.29516 C 60.53437 70.61101 67.28143 66.95636 72.24801 72.01665 C 75.05928 74.82792 75.15299 77.35806 72.622844 81.48126 L 70.65495 84.66737 L 75.43412 84.66737 L 80.11957 84.66737 L 80.4007 97.50552 C 80.58812 104.62741 80.86924 140.33057 81.05666 176.97081 C 81.15037 213.51736 81.4315 248.28342 81.61892 253.99968 C 81.90004 264.4014 81.99375 264.5888 84.80502 267.4938 C 86.39808 269.08684 87.71001 270.8673 87.71001 271.617 C 87.71001 272.27295 88.55339 273.7723 89.49048 274.9905 L 91.27095 277.23953 L 93.05142 274.05342 C 93.98851 272.27295 95.9564 269.46168 97.45575 267.6812 C 100.0796 264.5888 100.17331 264.30768 100.26702 253.0626 L 100.36073 241.63008 L 113.66742 241.63008 C 120.97673 241.63008 127.25524 242.00492 127.63007 242.37975 C 128.09862 242.7546 128.28604 247.72117 128.19233 253.25 C 127.9112 262.71462 128.09862 263.558 130.16022 266.08815 C 132.69036 269.27426 135.50164 274.9905 135.50164 277.14582 C 135.50164 277.9892 136.1576 278.64517 136.90727 278.64517 C 137.65694 278.64517 138.31291 277.9892 138.31291 277.23953 C 138.31291 275.55277 142.15498 269.27426 144.31029 267.4938 C 145.5285 266.463 145.80963 264.21397 145.80963 254.1871 C 145.80963 245.19102 146.09076 242.09862 147.02785 242.00492 C 150.30767 241.8175 172.51672 242.28604 173.07898 242.56717 C 173.3601 242.7546 173.54752 247.9086 173.45381 253.99968 C 173.3601 264.02655 173.92236 267.96233 175.79654 269.27426 C 176.17138 269.5554 177.76443 271.99182 179.26378 274.7094 C 181.98134 279.48855 182.07505 279.48855 183.10585 277.33324 C 183.6681 276.11502 185.44857 273.58487 187.13534 271.617 C 190.22774 268.14975 190.22774 268.05604 190.60257 256.2487 C 190.79 249.78277 191.44596 243.8791 191.9145 243.22313 C 193.039 241.9112 214.6858 241.63008 215.5292 242.942 C 215.81032 243.41055 216.18515 249.0331 216.37257 255.49902 C 216.46628 261.96495 216.6537 267.11895 216.84112 266.93153 C 217.87192 265.99444 223.11962 272.6478 224.43155 276.58357 L 226.0246 281.26902 L 227.14911 277.23953 C 227.80508 274.7094 229.58555 271.8981 231.64715 269.8365 L 235.02068 266.5567 L 234.92697 254.74935 C 234.73955 244.72248 234.92697 242.942 236.2389 242.37975 C 237.08228 242.09862 242.70482 241.8175 248.7022 241.7238 L 259.57246 241.63008 L 259.85358 252.87517 C 259.9473 259.05997 260.1347 265.05735 260.22842 266.27557 C 260.22842 267.40008 261.54035 269.18055 262.94598 270.21135 C 264.44533 271.24215 266.50693 273.58487 267.72515 275.45906 L 269.78675 278.73887 L 271.3798 275.17793 C 272.22318 273.21004 274.19107 270.49248 275.69042 269.27426 L 278.40798 266.93153 L 278.22056 175.28405 L 278.03314 83.73028 L 282.15634 83.73028 C 284.49907 83.73028 286.37325 83.44915 286.37325 83.16803 C 286.37325 82.8869 285.34245 81.387555 284.03053 79.7945 C 281.6878 77.07694 281.03183 73.89083 282.43747 71.92294 C 283.9368 69.76763 287.8726 67.79974 290.8713 67.79974 C 295.0882 67.79974 297.99318 70.98585 299.49252 77.07694 C 300.71074 82.32465 301.64783 82.60577 304.4591 78.85741 C 305.95845 76.88952 306.05216 75.95243 305.20878 72.76632 C 304.64652 70.61101 303.522 68.4557 302.77234 67.79974 C 301.83525 66.95636 288.43485 66.58152 251.04493 66.30039 Z M 147.40269 85.32334 L 147.40269 85.32334 C 147.68382 84.9485 153.11894 84.66737 159.49116 84.66737 C 173.07898 84.66737 171.67334 82.51206 171.57963 103.87773 L 171.57963 118.87119 L 159.866 119.43344 C 153.40007 119.71457 147.87123 119.80828 147.4964 119.62086 C 146.5593 119.15231 146.4656 86.16672 147.40269 85.32334 Z M 191.35225 85.41705 L 191.35225 85.41705 C 191.63337 85.04221 197.25592 84.66737 204.00297 84.66737 L 216.09144 84.66737 L 216.09144 90.00879 C 216.09144 93.00748 216.18515 100.69163 216.37257 107.15755 L 216.56 118.87119 L 212.34308 119.43344 C 210.00035 119.80828 204.1904 120.0894 199.50494 120.18311 L 190.79 120.37053 L 190.69628 117.74668 C 190.41516 111.09333 190.9774 86.07301 191.35225 85.41705 Z M 237.176 85.32334 L 237.176 85.32334 C 238.76904 85.13592 244.4853 84.85479 249.92042 84.85479 L 259.85358 84.66737 L 260.50955 99.66083 C 261.0718 111.28075 260.9781 115.12282 259.9473 117.18442 L 258.72907 119.80828 L 246.6406 119.80828 L 234.55213 119.80828 L 234.45842 102.75322 L 234.3647 85.69817 Z M 99.14251 102.4721 L 99.14251 102.4721 L 98.67397 85.60446 L 112.4492 85.60446 L 126.13073 85.60446 L 126.13073 102.94064 L 126.13073 120.27682 L 117.97804 120.37053 C 104.1091 120.65166 100.82928 120.55795 100.26702 119.9957 C 99.89219 119.71457 99.42364 111.843 99.14251 102.4721 Z M 101.0167 155.1366 L 101.0167 155.1366 L 100.82928 138.92493 L 112.91775 139.11235 C 121.16415 139.11235 125.38106 139.5809 126.03702 140.33057 C 126.59927 140.98653 127.16153 148.20213 127.25524 156.44853 L 127.53636 171.34827 L 114.4171 171.34827 L 101.29782 171.34827 Z M 238.58162 139.95573 L 238.58162 139.95573 C 244.39159 139.29977 258.0731 139.48718 258.82278 140.14315 C 259.85358 141.26766 259.85358 169.94263 258.82278 171.34827 C 258.0731 172.28536 254.887 172.7539 246.82802 172.84762 C 240.73693 173.03503 235.58293 172.84762 235.3018 172.6602 C 235.1144 172.37907 234.73955 165.06976 234.64584 156.2611 L 234.3647 140.42427 Z M 151.7133 140.7054 L 151.7133 140.7054 C 153.86862 140.51798 159.21003 140.42427 163.61436 140.42427 L 171.57963 140.42427 L 172.04818 154.48064 C 172.3293 162.16478 172.42301 169.28667 172.14189 170.13005 C 171.86076 171.6294 170.45512 171.81682 159.77229 171.81682 L 147.68382 171.81682 L 147.68382 156.44853 L 147.68382 140.98653 Z M 191.8208 141.26766 L 191.8208 141.26766 C 192.75788 140.14315 195.19432 139.95573 204.47152 140.14315 C 210.75003 140.33057 216.18515 140.7054 216.46628 140.98653 C 216.7474 141.26766 217.12224 148.38955 217.21595 156.82336 L 217.49708 172.28536 L 204.3778 172.28536 L 191.35225 172.28536 L 190.9774 157.47933 C 190.69628 146.70278 190.9774 142.29846 191.8208 141.26766 Z M 234.83326 189.43412 L 234.83326 189.43412 C 236.4263 188.96558 257.13602 189.34041 258.72907 189.99638 C 259.9473 190.37121 260.1347 192.99507 260.1347 206.39547 C 260.1347 225.4184 260.88438 224.48132 247.29657 223.91906 C 242.23628 223.63794 237.176 223.45052 236.05148 223.45052 C 233.89617 223.3568 233.89617 223.3568 233.89617 206.58288 C 233.89617 196.27489 234.271 189.62154 234.83326 189.43412 Z M 101.95379 191.2146 L 101.95379 191.2146 C 102.51604 189.80896 104.1091 189.62154 114.32338 189.62154 C 125.75589 189.62154 126.13073 189.71525 126.59927 191.68314 C 126.8804 192.90136 126.97411 200.39808 126.8804 208.36336 L 126.59927 222.88826 L 113.94855 222.88826 L 101.29782 222.88826 L 101.29782 207.8948 C 101.29782 199.64841 101.57895 192.15169 101.95379 191.2146 Z M 146.93414 190.93347 L 146.93414 190.93347 C 147.40269 190.1838 151.6196 189.90267 159.58487 189.99638 L 171.57963 190.09009 L 172.04818 201.80372 C 172.3293 208.26965 172.3293 215.57896 172.04818 218.2028 L 171.57963 222.88826 L 160.80309 223.1694 C 154.89942 223.2631 148.99574 223.1694 147.77753 222.88826 L 145.62222 222.326 L 145.99705 207.14514 C 146.18447 198.80503 146.5593 191.49572 146.93414 190.93347 Z M 195.944 190.55863 L 195.944 190.55863 C 198.56785 190.2775 204.1904 189.99638 208.59472 190.09009 L 216.56 190.09009 L 216.6537 206.20805 L 216.84112 222.41972 L 214.31097 222.60714 C 212.99904 222.60714 207.09537 222.79455 201.2854 222.88826 L 190.79 223.07568 L 190.9774 207.05143 L 191.25854 191.02718 Z" fill="#FFFFFF"/>
        </g>
        <g id="Graphic_110">
          <path d="M 291.24612 77.17065 C 292.0895 78.95112 293.0266 82.79319 293.40143 85.69817 C 293.86998 90.1025 293.68256 91.1333 292.37063 91.60184 C 291.52725 91.97668 290.68387 92.07039 290.49645 91.97668 C 290.40274 91.78926 289.55936 88.50944 288.71598 84.66737 C 287.8726 80.8253 286.9355 76.60839 286.65438 75.48388 C 285.811 71.92294 289.37194 73.234865 291.24612 77.17065 Z" fill="#FFFFFF"/>
        </g>
        <g id="Graphic_109">
          <path d="M 297.61834 80.16934 C 298.83656 84.38625 300.4296 103.03435 299.67994 105.00224 C 299.2114 106.40788 297.0561 106.5953 296.3064 105.47079 C 296.0253 105.00224 295.65045 99.84824 295.36932 93.94457 C 295.0882 88.0409 294.43223 81.76239 293.86998 79.98192 C 293.40143 78.20145 292.9329 76.60839 292.9329 76.51468 C 292.9329 76.327265 293.68256 76.23356 294.61965 76.23356 C 295.83787 76.23356 296.77496 77.45177 297.61834 80.16934 Z" fill="#FFFFFF"/>
        </g>
        <g id="Graphic_108">
          <path d="M 68.59335 82.04352 C 68.21852 84.76108 67.74997 91.22701 67.468845 96.38101 C 66.90659 105.75192 66.25063 107.90722 64.376446 106.78272 C 61.56517 105.00224 65.31354 77.17065 68.31223 77.17065 C 68.87448 77.17065 68.96819 79.23225 68.59335 82.04352 Z" fill="#FFFFFF"/>
        </g>
        <g id="Graphic_107">
          <path d="M 63.25194 84.57366 C 62.408555 90.00879 61.377755 91.88297 59.69099 90.85217 C 58.379065 90.00879 58.379065 86.82268 59.59728 86.07301 C 60.15954 85.79188 60.53437 84.66737 60.53437 83.73028 C 60.53437 82.13723 63.15823 78.57628 63.81419 79.23225 C 64.00161 79.41966 63.72048 81.76239 63.25194 84.57366 Z" fill="#FFFFFF"/>
        </g>
        <g id="Graphic_106">
          <path d="M 60.8155 106.22046 C 60.253246 114.09202 59.69099 117.9341 58.94132 118.21522 C 57.348265 118.68377 57.254556 97.59923 58.7539 94.78795 C 60.8155 90.85217 61.471464 94.60053 60.8155 106.22046 Z" fill="#FFFFFF"/>
        </g>
        <g id="Graphic_105">
          <path d="M 293.1203 100.69163 C 294.0574 109.21915 293.9637 121.0265 292.83918 121.77617 C 290.77758 122.99439 290.1216 119.62086 290.1216 107.34497 C 290.1216 97.69293 290.40274 94.88166 291.33983 95.16279 C 291.9021 95.44392 292.74547 97.88035 293.1203 100.69163 Z" fill="#FFFFFF"/>
        </g>
        <g id="Graphic_104">
          <path d="M 66.90659 123.83777 C 67.09401 135.83253 66.90659 138.08155 65.78208 138.08155 C 65.03241 138.08155 64.18903 137.70671 63.9079 137.23817 C 63.15823 136.01995 63.06452 111.09333 63.81419 109.96882 C 64.18903 109.40657 64.9387 109.12544 65.500954 109.31286 C 66.25063 109.50028 66.71917 114.09202 66.90659 123.83777 Z" fill="#FFFFFF"/>
        </g>
        <g id="Graphic_103">
          <path d="M 299.3051 125.33711 C 299.58623 134.33318 299.3051 139.39347 298.64914 140.79911 C 296.2127 145.29715 295.55674 141.6425 296.0253 125.99308 C 296.3064 117.46555 296.58754 110.24995 296.58754 109.96882 C 296.68125 109.7814 297.2435 110.15624 297.80576 110.7185 C 298.64914 111.56188 299.1177 116.34104 299.3051 125.33711 Z" fill="#FFFFFF"/>
        </g>
        <g id="Graphic_102">
          <path d="M 60.90921 123.74406 C 61.65888 126.46162 60.72179 145.7657 59.69099 146.7965 C 59.222446 147.26504 58.285355 147.35875 57.7231 146.98391 C 56.87972 146.42166 56.6923 143.42296 57.254556 134.89544 C 57.62939 128.71064 58.09794 123.27551 58.379065 122.80697 C 59.12874 121.58875 60.346955 122.0573 60.90921 123.74406 Z" fill="#FFFFFF"/>
        </g>
        <g id="Graphic_101">
          <path d="M 293.30772 126.46162 C 293.68256 127.305 293.86998 133.67722 293.77627 140.6117 C 293.77627 150.9197 293.49514 153.26242 292.27692 153.73096 C 291.52725 154.01209 290.59016 153.82467 290.21532 153.26242 C 289.9342 152.79387 289.74678 146.14053 289.9342 138.6438 C 290.1216 127.96097 290.49645 124.96228 291.43354 124.96228 C 292.1832 124.96228 293.0266 125.61824 293.30772 126.46162 Z" fill="#FFFFFF"/>
        </g>
        <g id="Graphic_100">
          <path d="M 66.438045 142.95442 C 67.18772 145.7657 66.15692 164.60122 65.21983 165.63202 C 63.15823 167.78733 62.408555 164.60122 62.408555 153.54355 C 62.408555 142.39216 62.68968 141.26766 65.31354 140.98653 C 65.68837 140.89282 66.15692 141.82991 66.438045 142.95442 Z" fill="#FFFFFF"/>
        </g>
        <g id="Graphic_99">
          <path d="M 299.02398 158.229 C 299.02398 169.5678 298.83656 171.34827 297.52463 171.6294 C 296.2127 171.91052 295.93158 170.6923 295.65045 163.66413 C 295.36932 159.16609 295.36932 152.98129 295.55674 149.9826 C 295.83787 145.48456 296.2127 144.54747 297.43092 144.8286 C 298.83656 145.10973 299.02398 146.7965 299.02398 158.229 Z" fill="#FFFFFF"/>
        </g>
        <g id="Graphic_98">
          <path d="M 60.346955 162.63333 C 60.06583 173.59729 59.87841 175.09663 58.472774 175.37776 C 56.97343 175.65889 56.78601 174.62809 56.78601 163.00816 C 56.78601 150.73227 56.87972 150.26373 58.7539 150.26373 C 60.62808 150.26373 60.62808 150.63856 60.346955 162.63333 Z" fill="#FFFFFF"/>
        </g>
        <g id="Graphic_97">
          <path d="M 293.40143 159.54093 C 294.0574 161.60253 293.9637 179.8758 293.214 182.31223 C 293.0266 183.24932 292.27692 183.999 291.52725 183.999 C 290.59016 183.999 290.21532 182.12481 289.9342 177.15823 C 289.46565 165.5383 290.0279 157.76045 291.52725 157.76045 C 292.1832 157.76045 293.0266 158.60384 293.40143 159.54093 Z" fill="#FFFFFF"/>
        </g>
        <g id="Graphic_96">
          <path d="M 65.68837 179.8758 C 65.68837 188.30961 65.407245 190.09009 64.28274 190.09009 C 63.15823 190.09009 62.78339 188.30961 62.59597 180.81289 C 62.314846 170.78602 62.68968 168.6307 64.56386 169.28667 C 65.31354 169.47409 65.68837 172.47278 65.68837 179.8758 Z" fill="#FFFFFF"/>
        </g>
        <g id="Graphic_95">
          <path d="M 299.49252 187.84107 C 299.49252 197.96165 299.2114 200.11696 298.0869 200.5855 C 297.2435 200.86663 296.40012 200.86663 296.119 200.5855 C 294.90078 199.36728 294.2448 176.22114 295.36932 174.44067 C 295.65045 173.97212 296.68125 174.15954 297.71205 174.62809 C 299.3051 175.56518 299.49252 176.68969 299.49252 187.84107 Z" fill="#FFFFFF"/>
        </g>
        <g id="Graphic_94">
          <path d="M 59.97212 179.12612 C 60.8155 180.43805 61.00292 202.17856 60.15954 203.49048 C 59.69099 204.33387 59.03503 204.42757 58.285355 203.7716 C 57.06714 202.7408 56.130047 181.09401 57.254556 179.31354 C 57.91052 178.18903 59.316155 178.09532 59.97212 179.12612 Z" fill="#FFFFFF"/>
        </g>
        <g id="Graphic_93">
          <path d="M 292.9329 205.08354 C 293.1203 224.85615 293.214 223.3568 291.52725 223.3568 C 290.68387 223.3568 290.1216 222.51343 290.1216 221.2015 C 290.1216 220.077 289.8405 212.9551 289.55936 205.45837 C 289.0908 195.61892 289.27823 191.12089 290.1216 189.62154 C 290.68387 188.49703 291.62096 187.93478 291.9958 188.30961 C 292.46434 188.77816 292.83918 196.27489 292.9329 205.08354 Z" fill="#FFFFFF"/>
        </g>
        <g id="Graphic_92">
          <path d="M 67.18772 199.08616 C 67.562554 202.36598 67.65626 205.45837 67.468845 206.02063 C 67.28143 206.48917 66.90659 209.20674 66.62546 212.018 C 66.34434 214.82928 65.9695 217.35943 65.68837 217.64055 C 64.28274 218.95248 63.439355 215.39154 63.345646 207.42627 C 63.15823 192.62023 63.15823 192.52652 65.03241 192.80765 C 66.25063 192.99507 66.71917 194.307 67.18772 199.08616 Z" fill="#FFFFFF"/>
        </g>
        <g id="Graphic_91">
          <path d="M 298.46172 205.7395 C 299.77365 209.20674 299.77365 231.5095 298.46172 232.35288 C 295.93158 233.85223 295.0882 230.01015 295.36932 217.54685 C 295.46303 210.70608 295.65045 204.8024 295.65045 204.33387 C 295.83787 202.83452 297.71205 203.7716 298.46172 205.7395 Z" fill="#FFFFFF"/>
        </g>
        <g id="Graphic_90">
          <path d="M 61.284046 218.85877 C 61.56517 229.4479 61.471464 229.91644 59.59728 229.91644 C 57.91052 229.91644 57.7231 229.3542 57.7231 223.54423 C 57.7231 220.077 57.441974 215.0167 57.06714 212.29914 C 56.50488 207.42627 56.59859 207.23885 58.7539 207.61368 C 61.00292 207.8948 61.00292 208.08223 61.284046 218.85877 Z" fill="#FFFFFF"/>
        </g>
        <g id="Graphic_89">
          <path d="M 67.468845 224.01277 C 67.74997 225.98066 68.0311 231.04095 68.0311 235.25786 C 68.0311 241.44266 67.74997 243.03572 66.71917 243.03572 C 64.56386 243.03572 64.376446 242.19233 64.28274 231.69692 C 64.00161 219.98328 64.00161 220.54554 65.59466 220.54554 C 66.34434 220.54554 67.09401 221.95117 67.468845 224.01277 Z" fill="#FFFFFF"/>
        </g>
        <g id="Graphic_88">
          <path d="M 293.30772 240.22444 C 293.30772 252.50033 292.83918 254.56193 290.8713 252.59404 C 289.37194 251.0947 288.8097 230.4787 290.21532 227.94855 C 292.37063 223.82535 293.40143 227.76114 293.30772 240.22444 Z" fill="#FFFFFF"/>
        </g>
        <g id="Graphic_87">
          <path d="M 61.377755 244.72248 C 61.09663 257.3732 60.90921 258.02917 58.56648 258.02917 C 56.97343 258.02917 56.87972 257.1858 57.348265 246.59666 C 57.7231 235.82012 58.66019 232.07175 60.72179 233.28997 C 61.19034 233.5711 61.471464 238.6314 61.377755 244.72248 Z" fill="#FFFFFF"/>
        </g>
        <g id="Graphic_86">
          <path d="M 298.64914 238.91252 C 299.67994 243.69168 299.58623 266.27557 298.46172 266.93153 C 297.89947 267.30637 297.2435 267.40008 296.96238 267.11895 C 296.68125 266.83782 296.3064 259.5285 295.93158 250.90728 C 295.55674 237.788 295.65045 235.35157 296.77496 235.7264 C 297.52463 236.00753 298.368 237.41317 298.64914 238.91252 Z" fill="#FFFFFF"/>
        </g>
        <g id="Graphic_85">
          <path d="M 67.84368 262.3398 C 68.0311 274.8031 67.84368 277.61437 66.71917 278.55146 C 63.81419 280.9879 63.25194 278.73887 63.439355 263.83913 C 63.439355 255.87386 63.72048 248.65826 64.00161 248.0023 C 64.28274 247.25262 65.21983 246.78408 66.06321 246.9715 C 67.37514 247.25262 67.562554 249.31422 67.84368 262.3398 Z" fill="#FFFFFF"/>
        </g>
        <g id="Graphic_84">
          <path d="M 293.214 258.68513 C 294.1511 260.2782 294.80707 282.0187 293.9637 283.33062 C 293.40143 284.0803 292.74547 284.45513 292.46434 284.174 C 291.71467 283.42433 290.59016 266.93153 290.8713 261.02786 C 291.0587 258.2166 292.27692 257.09208 293.214 258.68513 Z" fill="#FFFFFF"/>
        </g>
        <g id="Graphic_83">
          <path d="M 60.62808 267.5875 C 61.09663 288.67204 60.90921 294.5757 60.06583 294.5757 C 59.59728 294.6694 58.84761 292.60782 58.379065 290.17138 C 57.441974 283.79916 57.06714 263.3706 58.00423 261.96495 C 59.69099 259.4348 60.53437 261.21528 60.62808 267.5875 Z" fill="#FFFFFF"/>
        </g>
        <g id="Graphic_82">
          <path d="M 100.17331 274.14713 L 100.64186 281.45644 L 95.9564 281.45644 C 92.11433 281.45644 91.45837 281.1753 92.30175 280.23822 C 92.864 279.48855 93.98851 277.0521 94.73819 274.8031 C 96.23753 270.7736 98.86139 265.99444 99.32993 266.6504 C 99.51735 266.7441 99.89219 270.21135 100.17331 274.14713 Z" fill="#FFFFFF"/>
        </g>
        <g id="Graphic_81">
          <path d="M 85.27357 270.39877 C 85.92953 271.617 87.05404 274.14713 87.71001 276.0213 C 88.27226 277.9892 89.20935 279.58226 89.6779 279.58226 C 90.14644 279.58226 90.52128 280.0508 90.52128 280.61306 C 90.52128 281.1753 88.92822 281.45644 86.5855 281.26902 C 82.08746 280.9879 81.33779 279.58226 81.90004 272.46037 C 82.27488 267.86862 83.30568 267.30637 85.27357 270.39877 Z" fill="#FFFFFF"/>
        </g>
        <g id="Graphic_80">
          <path d="M 132.12811 270.8673 C 132.78407 272.36666 133.90858 275.27164 134.56455 277.42695 C 136.06389 282.39353 137.84436 281.83127 140.65564 275.45906 C 141.87385 272.7415 143.4669 270.02393 144.31029 269.27426 C 145.80963 268.14975 145.90334 268.6183 145.62222 274.9905 L 145.34109 281.92498 L 139.81225 282.1124 C 136.62614 282.2061 134.00229 282.76836 133.62745 283.33062 C 133.0652 284.2677 132.31553 284.0803 130.44135 282.76836 C 128.28604 281.1753 128.09862 280.33193 128.00491 274.61567 C 128.00491 269.7428 128.28604 268.33717 129.41055 268.33717 C 130.16022 268.33717 131.37844 269.46168 132.12811 270.8673 Z" fill="#FFFFFF"/>
        </g>
        <g id="Graphic_79">
          <path d="M 220.7769 272.55407 C 221.8077 274.24084 222.65108 276.48986 222.65108 277.61437 C 222.65108 278.9263 223.02592 279.48855 223.68188 279.02 C 224.33784 278.64517 224.61897 279.1137 224.33784 280.1445 C 223.963 282.1124 221.714 282.86207 218.34046 282.0187 C 216.27886 281.45644 216.09144 280.9879 216.09144 274.8968 C 216.09144 267.5875 217.30966 266.93153 220.7769 272.55407 Z" fill="#FFFFFF"/>
        </g>
        <g id="Graphic_78">
          <path d="M 234.45842 280.1445 C 234.1773 280.89418 232.58424 281.45644 230.71006 281.45644 L 227.52395 281.45644 L 228.46104 277.8955 C 228.9296 276.0213 230.52264 272.9289 231.83457 271.14844 L 234.3647 267.86862 L 234.64584 273.39746 C 234.83326 276.39615 234.73955 279.48855 234.45842 280.1445 Z" fill="#FFFFFF"/>
        </g>
        <g id="Graphic_77">
          <path d="M 278.87653 274.33455 C 278.87653 279.30113 278.78282 279.39484 275.87784 279.86338 C 272.22318 280.42564 271.3798 280.0508 271.3798 277.80178 C 271.3798 275.55277 276.81493 268.14975 277.93944 268.8057 C 278.5017 269.08684 278.87653 271.617 278.87653 274.33455 Z" fill="#FFFFFF"/>
        </g>
        <g id="Graphic_76">
          <path d="M 264.72646 273.49117 C 268.3811 277.52066 269.59933 279.39484 267.63144 278.17662 C 267.1629 277.8955 266.69435 278.17662 266.69435 278.9263 C 266.69435 280.42564 264.72646 281.45644 261.91518 281.45644 C 260.69696 281.45644 260.1347 280.80047 260.041 279.30113 C 259.57246 272.17924 259.66616 269.27426 260.22842 269.27426 C 260.50955 269.27426 262.57115 271.14844 264.72646 273.49117 Z" fill="#FFFFFF"/>
        </g>
        <g id="Graphic_75">
          <path d="M 178.70152 277.23953 L 180.29458 281.45644 L 177.95185 282.0187 C 174.10978 283.0495 172.70414 280.70676 173.45381 274.8968 C 174.10978 270.49248 174.2972 270.11764 175.60912 271.52328 C 176.4525 272.27295 177.76443 274.8968 178.70152 277.23953 Z" fill="#FFFFFF"/>
        </g>
        <g id="Graphic_74">
          <path d="M 190.32145 275.64647 L 190.32145 280.9879 L 186.29196 281.26902 C 182.35618 281.55015 182.26247 281.55015 183.48068 279.39484 C 185.7297 275.17793 189.19694 270.21135 189.7592 270.21135 C 190.04032 270.21135 190.32145 272.6478 190.32145 275.64647 Z" fill="#FFFFFF"/>
        </g>
        <g id="Graphic_73">
          <path d="M 299.77365 272.36666 C 300.05478 273.02262 300.05478 274.61567 299.96107 275.9276 C 299.77365 277.23953 299.3988 282.39353 299.02398 287.3601 C 298.64914 292.79524 297.80576 297.01214 297.0561 298.04294 C 295.83787 299.5423 295.74416 297.94924 296.3064 286.1419 C 296.58754 278.64517 297.0561 272.27295 297.3372 271.8044 C 297.99318 270.7736 299.2114 271.05473 299.77365 272.36666 Z" fill="#FFFFFF"/>
        </g>
        <g id="Graphic_72">
          <path d="M 66.71917 284.92367 C 66.06321 285.57964 69.530445 297.29327 72.1543 303.10323 C 73.46623 306.19563 74.12219 308.8195 73.65364 309.56916 C 70.84237 314.0672 63.345646 298.6989 63.345646 288.48462 C 63.345646 283.1432 63.9079 281.92498 65.87579 283.51804 C 66.531754 284.0803 67.0003 284.73626 66.71917 284.92367 Z" fill="#FFFFFF"/>
        </g>
        <g id="Graphic_71">
          <path d="M 272.87915 283.89287 C 272.59802 284.73626 272.3169 285.95447 272.3169 286.70415 C 272.3169 287.54753 271.2861 288.01607 269.50562 288.01607 C 267.1629 288.01607 266.69435 287.64124 266.69435 285.86076 C 266.69435 282.95578 267.3503 282.39353 270.72384 282.39353 C 272.78544 282.39353 273.3477 282.76836 272.87915 283.89287 Z" fill="#FFFFFF"/>
        </g>
        <g id="Graphic_70">
          <path d="M 185.16745 283.98658 C 185.16745 284.45513 184.88632 285.67335 184.6052 286.79785 C 183.94923 289.14058 180.482 289.79655 180.482 287.64124 C 180.482 286.89156 180.20087 285.67335 179.91974 284.82996 C 179.4512 283.61175 180.01345 283.33062 182.26247 283.33062 C 183.85552 283.33062 185.16745 283.61175 185.16745 283.98658 Z" fill="#FFFFFF"/>
        </g>
        <g id="Graphic_69">
          <path d="M 230.1478 285.67335 C 230.1478 287.73495 229.77297 288.01607 226.39944 288.01607 C 223.02592 288.01607 222.65108 287.73495 222.65108 285.67335 C 222.65108 283.51804 223.02592 283.33062 226.39944 283.33062 C 229.77297 283.33062 230.1478 283.51804 230.1478 285.67335 Z" fill="#FFFFFF"/>
        </g>
        <g id="Graphic_68">
          <path d="M 264.82016 286.2356 C 264.82016 287.1727 264.44533 288.01607 263.88307 288.01607 C 263.41453 288.01607 262.94598 286.89156 262.94598 285.57964 C 262.94598 284.2677 263.32082 283.42433 263.88307 283.79916 C 264.44533 284.0803 264.82016 285.2048 264.82016 286.2356 Z" fill="#FFFFFF"/>
        </g>
        <g id="Graphic_67">
          <path d="M 93.33255 286.04818 C 93.33255 286.98527 92.7703 288.2035 92.11433 288.76575 C 91.17724 289.60913 90.33386 289.14058 88.45968 287.07898 L 86.02324 284.2677 L 89.6779 284.2677 C 92.58288 284.2677 93.33255 284.64255 93.33255 286.04818 Z" fill="#FFFFFF"/>
        </g>
        <g id="Graphic_66">
          <path d="M 141.3116 287.07898 C 140.93676 289.60913 140.56193 289.89025 137.75065 289.89025 C 135.59535 289.89025 134.56455 289.4217 134.56455 288.57833 C 134.56455 287.82865 134.28342 286.61044 134.00229 285.76705 C 133.53375 284.54884 134.18971 284.2677 137.56324 284.2677 C 141.68644 284.2677 141.68644 284.36142 141.3116 287.07898 Z" fill="#FFFFFF"/>
        </g>
        <g id="Graphic_65">
          <path d="M 177.67072 284.64255 C 177.67072 284.82996 177.95185 285.67335 178.23298 286.51673 C 178.60781 287.45382 178.32668 288.01607 177.3896 288.01607 C 176.63992 288.01607 175.79654 287.1727 175.51541 286.1419 C 175.23429 284.92367 175.51541 284.2677 176.3588 284.2677 C 177.10847 284.2677 177.67072 284.45513 177.67072 284.64255 Z" fill="#FFFFFF"/>
        </g>
        <g id="Graphic_64">
          <path d="M 132.69036 288.10978 C 132.69036 289.04687 132.31553 289.89025 131.84698 289.89025 C 131.37844 289.89025 131.09731 288.85945 131.09731 287.54753 C 131.09731 286.3293 131.37844 285.48593 131.84698 285.76705 C 132.31553 286.04818 132.69036 287.07898 132.69036 288.10978 Z" fill="#FFFFFF"/>
        </g>
        <g id="Graphic_63">
          <path d="M 87.14775 288.95316 C 86.5855 289.51542 86.21066 289.2343 86.21066 288.01607 C 86.21066 286.79785 86.5855 286.51673 87.14775 287.07898 C 87.80372 287.73495 87.80372 288.2972 87.14775 288.95316 Z" fill="#FFFFFF"/>
        </g>
        <g id="Graphic_62">
          <path d="M 293.0266 297.29327 C 291.9021 303.6655 287.49776 312.38043 285.43616 312.38043 C 283.9368 312.38043 284.31165 310.69367 286.8418 306.38305 C 288.15372 304.13403 289.37194 300.19825 289.74678 296.91844 C 290.1216 293.82604 290.77758 290.2651 291.33983 288.95316 L 292.1832 286.61044 L 293.214 288.76575 C 293.86998 290.2651 293.86998 292.70153 293.0266 297.29327 Z" fill="#FFFFFF"/>
        </g>
        <g id="Graphic_61">
          <path d="M 222.27624 293.3575 C 223.30704 297.29327 222.08882 297.5744 219.55868 293.91974 C 216.46628 289.4217 216.37257 288.85945 219.37126 290.17138 C 220.6832 290.82735 221.99512 292.23298 222.27624 293.3575 Z" fill="#FFFFFF"/>
        </g>
        <g id="Graphic_60">
          <path d="M 184.79261 294.76313 C 183.6681 298.98004 181.88763 300.38567 181.13796 297.6681 C 179.4512 291.57702 179.4512 290.92105 181.6065 290.63993 C 185.54228 289.98396 186.01083 290.63993 184.79261 294.76313 Z" fill="#FFFFFF"/>
        </g>
        <g id="Graphic_59">
          <path d="M 228.64846 291.95185 C 228.27362 293.17007 227.61766 295.13796 227.0554 296.4499 L 226.21202 298.7926 L 224.8064 295.6065 C 223.11962 291.67073 223.7756 289.89025 226.868 289.89025 C 229.0233 289.89025 229.21071 290.17138 228.64846 291.95185 Z" fill="#FFFFFF"/>
        </g>
        <g id="Graphic_58">
          <path d="M 271.3798 291.57702 C 271.3798 294.20087 270.2553 297.38698 269.4119 297.38698 C 268.94336 297.38698 268.56853 296.82473 268.56853 296.16876 C 268.56853 295.5128 267.91256 294.10716 267.1629 293.07636 C 265.75726 291.3896 265.75726 291.3896 266.3195 293.82604 C 266.69435 295.5128 266.50693 296.4499 265.85096 296.4499 C 265.2887 296.4499 264.82016 295.88764 264.82016 295.13796 C 264.82016 294.3883 264.1642 293.5449 263.32082 293.26378 C 260.79067 292.23298 263.32082 290.3588 267.53773 290.17138 C 270.63013 289.98396 271.3798 290.2651 271.3798 291.57702 Z" fill="#FFFFFF"/>
        </g>
        <g id="Graphic_57">
          <path d="M 139.15629 293.82604 C 139.25 291.85815 139.71854 290.82735 140.65564 290.82735 C 142.4361 290.82735 142.4361 290.73364 140.18709 295.6065 C 139.15629 297.85553 138.31291 299.07374 138.31291 298.32407 C 138.31291 297.10585 138.2192 297.10585 137.37582 298.32407 C 136.71985 299.44858 136.34502 299.07374 135.87647 296.6373 C 135.50164 294.95054 134.84567 293.3575 134.28342 292.98265 C 133.72116 292.60782 133.62745 293.3575 134.00229 294.95054 C 134.75196 298.04294 132.97149 297.38698 131.84698 294.20087 C 131.09731 292.4204 131.47215 292.13927 134.47084 291.76444 C 137.65694 291.2959 137.84436 291.4833 138.40662 294.10716 L 138.96887 296.91844 L 139.15629 293.82604 Z" fill="#FFFFFF"/>
        </g>
        <g id="Graphic_56">
          <path d="M 178.98265 292.88894 C 179.26378 294.10716 179.5449 296.26247 179.5449 297.85553 C 179.5449 300.5731 179.4512 300.47938 177.20218 296.26247 C 174.3909 291.01476 174.3909 290.82735 176.63992 290.82735 C 177.67072 290.82735 178.60781 291.67073 178.98265 292.88894 Z" fill="#FFFFFF"/>
        </g>
        <g id="Graphic_55">
          <path d="M 86.77292 294.20087 C 88.27226 298.13665 87.80372 298.98004 85.83582 295.98134 C 83.77422 292.79524 83.4931 291.76444 84.89873 291.76444 C 85.46099 291.76444 86.30437 292.88894 86.77292 294.20087 Z" fill="#FFFFFF"/>
        </g>
        <g id="Graphic_54">
          <path d="M 92.39546 293.5449 C 92.39546 295.7002 90.61499 300.6668 90.05273 300.10454 C 89.86531 299.8234 89.30306 297.85553 88.83451 295.7002 C 87.99113 291.95185 87.99113 291.76444 90.14644 291.76444 C 91.7395 291.76444 92.39546 292.3267 92.39546 293.5449 Z" fill="#FFFFFF"/>
        </g>
        <g id="Graphic_53">
          <path d="M 62.97081 300.8542 C 64.376446 306.57047 71.02979 314.2546 76.18379 316.2225 C 78.3391 316.97218 79.27619 319.87716 77.40201 319.87716 C 75.621535 319.87716 69.436736 316.3162 67.37514 314.0672 C 64.75128 311.25592 60.53437 302.8221 60.53437 300.29196 C 60.53437 297.4807 62.22114 297.85553 62.97081 300.8542 Z" fill="#FFFFFF"/>
        </g>
        <g id="Graphic_52">
          <path d="M 218.43417 304.04033 C 221.9014 304.9774 228.27362 310.41254 228.27362 312.38043 C 228.27362 313.9735 223.40075 314.62945 222.55737 313.1301 C 221.15173 310.69367 214.6858 308.35094 210.93744 309.0069 C 197.53705 311.53705 198.38043 330.37258 212.06195 331.21596 C 215.5292 331.4971 218.7153 330.37258 222.27624 327.74872 C 226.11831 324.75003 228.27362 324.84374 228.27362 327.84243 C 228.27362 332.05934 221.24544 336.7448 214.96693 336.7448 C 210.4689 336.7448 203.2533 333.09014 200.44203 329.4355 C 194.63206 321.75134 197.34963 309.28803 205.78344 305.16483 C 210.5626 302.8221 213.09275 302.54098 218.43417 304.04033 Z" fill="#FFFFFF"/>
        </g>
        <g id="Graphic_51">
          <path d="M 294.52594 310.69367 C 293.214 312.9427 291.1524 315.66025 289.9342 316.78476 C 287.0292 319.50232 278.87653 323.71923 277.84573 323.06327 C 276.15896 322.03247 277.09605 320.06458 279.43878 319.50232 C 282.7186 318.65894 289.8405 311.81818 292.1832 307.41385 C 293.86998 304.04033 294.1511 303.8529 295.46303 305.16483 C 296.77496 306.47676 296.68125 307.039 294.52594 310.69367 Z" fill="#FFFFFF"/>
        </g>
        <g id="Graphic_50">
          <path d="M 156.21134 308.25723 C 164.45774 311.81818 167.1753 323.62552 161.64647 332.34047 C 158.08552 338.15043 153.96232 340.0246 146.93414 339.18123 C 140.84305 338.43156 135.87647 335.05803 135.03309 331.02854 C 134.18971 327.09276 134.93938 326.71792 137.56324 329.7166 C 143.56062 336.8385 154.24345 336.46367 158.8352 328.96694 C 162.39614 323.2507 160.52196 316.50363 154.52458 312.47414 C 151.80702 310.69367 150.30767 310.41254 146.93414 310.78738 C 144.4977 311.0685 142.15498 311.9119 141.49902 312.75527 C 140.74934 313.78607 139.81225 314.0672 138.40662 313.50494 C 136.43873 312.84898 136.43873 312.84898 138.78145 310.22512 C 140.09338 308.8195 142.3424 307.50756 143.74803 307.13272 C 145.15367 306.8516 146.74673 306.47676 147.21527 306.28934 C 148.6209 305.9145 152.46298 306.7579 156.21134 308.25723 Z" fill="#FFFFFF"/>
        </g>
        <g id="Graphic_49">
          <path d="M 79.93215 311.53705 C 81.33779 312.0993 85.74212 312.84898 89.58419 313.2238 C 94.9256 313.59865 96.61237 314.1609 96.61237 315.1917 C 96.61237 317.2533 92.30175 317.44072 84.5239 315.75396 C 77.02717 313.9735 74.96557 313.0364 75.90266 311.53705 C 76.74604 310.22512 76.652335 310.22512 79.93215 311.53705 Z" fill="#FFFFFF"/>
        </g>
        <g id="Graphic_48">
          <path d="M 119.57109 313.31752 C 121.44527 314.53574 120.13335 314.91058 110.20018 316.1288 C 100.0796 317.347 99.89219 317.347 99.89219 315.75396 C 99.89219 313.50494 116.5724 311.44334 119.57109 313.31752 Z" fill="#FFFFFF"/>
        </g>
        <g id="Graphic_47">
          <path d="M 134.096 313.87978 C 138.31291 314.62945 140.18709 315.75396 140.18709 317.72185 C 140.18709 318.75265 139.53113 318.94007 137.1884 318.3778 C 135.50164 318.00298 133.44004 317.62814 132.69036 317.53443 C 129.59796 317.1596 123.69429 315.84767 122.94462 315.37912 C 121.35157 314.53574 125.56847 312.28672 128.00491 312.75527 C 129.31684 313.0364 132.0344 313.50494 134.096 313.87978 Z" fill="#FFFFFF"/>
        </g>
        <g id="Graphic_46">
          <path d="M 234.83326 314.62945 C 234.83326 315.56654 232.67795 316.50363 228.55475 317.44072 C 225.08752 318.1904 222.08882 318.65894 221.8077 318.3778 C 220.8706 317.44072 223.40075 316.1288 228.74217 314.91058 C 231.83457 314.1609 234.45842 313.50494 234.64584 313.41123 C 234.73955 313.31752 234.83326 313.87978 234.83326 314.62945 Z" fill="#FFFFFF"/>
        </g>
        <g id="Graphic_45">
          <path d="M 251.98202 314.53574 C 258.72907 315.0043 260.1347 315.56654 258.54166 317.1596 C 257.8857 317.81556 255.26184 317.81556 249.92042 317.0659 C 245.79722 316.40992 241.4866 316.1288 240.4558 316.40992 C 239.425 316.69105 238.3005 316.50363 238.01937 316.0351 C 237.3634 314.91058 241.11177 313.50494 243.6419 313.87978 C 244.76642 314.0672 248.51478 314.34832 251.98202 314.53574 Z" fill="#FFFFFF"/>
        </g>
        <g id="Graphic_44">
          <path d="M 281.6878 314.34832 C 281.6878 316.69105 269.03707 319.68974 264.2579 318.56523 C 260.32213 317.53443 262.75856 316.2225 270.349 315.2854 C 274.09736 314.81687 277.37718 314.1609 277.75202 313.87978 C 278.5954 312.9427 281.6878 313.2238 281.6878 314.34832 Z" fill="#FFFFFF"/>
        </g>
        <g id="Graphic_43">
          <path d="M 90.05273 319.50232 C 93.51997 319.78345 98.86139 320.1583 101.95379 320.252 C 107.2015 320.53312 109.2631 321.1891 108.13859 322.2199 C 105.32731 325.03116 81.15037 323.4381 81.15037 320.4394 C 81.15037 318.94007 82.18117 317.90927 83.02455 318.47152 C 83.39939 318.75265 86.5855 319.1275 90.05273 319.50232 Z" fill="#FFFFFF"/>
        </g>
        <g id="Graphic_42">
          <path d="M 136.71985 320.72054 C 139.90596 321.93876 140.2808 325.03116 137.1884 324.18778 C 135.31422 323.62552 128.00491 323.06327 114.88564 322.3136 C 109.82535 322.12618 110.57502 319.50232 115.82273 318.94007 C 120.97673 318.3778 133.25262 319.4086 136.71985 320.72054 Z" fill="#FFFFFF"/>
        </g>
        <g id="Graphic_41">
          <path d="M 243.6419 319.50232 C 244.4853 320.252 244.95384 321.2828 244.76642 321.65763 C 244.4853 322.03247 240.3621 322.4073 235.58293 322.501 C 230.80377 322.68843 225.8372 322.87585 224.52526 322.96956 C 223.02592 323.06327 222.18253 322.68843 222.18253 321.75134 C 222.18253 318.47152 240.73693 316.50363 243.6419 319.50232 Z" fill="#FFFFFF"/>
        </g>
        <g id="Graphic_40">
          <path d="M 259.66616 320.3457 C 260.69696 320.53312 264.1642 320.72054 267.44402 320.72054 C 272.78544 320.81425 273.25398 321.00167 273.25398 322.87585 C 273.25398 324.84374 273.06656 324.84374 261.35293 324.18778 C 254.7933 323.90665 248.98333 323.15698 248.51478 322.68843 C 248.04624 322.2199 247.95253 321.1891 248.32737 320.3457 C 248.88962 318.84636 251.98202 318.84636 259.66616 320.3457 Z" fill="#FFFFFF"/>
        </g>
        <g id="Graphic_39">
          <path d="M 134.84567 71.73552 C 131.65956 75.85872 133.81487 81.387555 138.12549 80.356755 C 139.53113 79.98192 141.21789 79.23225 141.87385 78.57628 C 143.65433 76.98323 141.78014 72.67261 138.78145 71.5481 C 135.68905 70.42359 135.87647 70.42359 134.84567 71.73552 Z" fill="black"/>
        </g>
        <g id="Graphic_38">
          <path d="M 139.81225 76.13985 C 138.96887 77.45177 136.71985 77.45177 135.97018 76.23356 C 135.59535 75.6713 135.87647 74.54679 136.53244 73.79712 C 137.56324 72.5789 137.84436 72.5789 139.06258 73.79712 C 139.81225 74.54679 140.09338 75.57759 139.81225 76.13985 Z" fill="#FFFFFF"/>
        </g>
        <g id="Graphic_37">
          <path d="M 178.23298 72.67261 C 174.95316 77.35806 178.04556 83.35545 183.10585 82.23094 C 187.97872 81.10643 189.47807 76.42097 186.19825 72.67261 C 183.94923 69.95505 180.10716 70.04876 178.23298 72.67261 Z" fill="black"/>
        </g>
        <g id="Graphic_36">
          <path d="M 184.13665 73.32857 C 184.98003 73.89083 185.16745 75.01534 184.79261 76.60839 C 184.32407 78.38886 183.5744 79.04483 181.88763 79.04483 C 180.5757 79.04483 179.5449 78.85741 179.5449 78.66999 C 179.5449 78.48257 179.26378 77.63919 178.98265 76.88952 C 178.70152 76.13985 179.17007 74.82792 180.01345 73.98454 C 181.79392 72.297774 182.26247 72.204065 184.13665 73.32857 Z" fill="#FFFFFF"/>
        </g>
        <g id="Graphic_35">
          <path d="M 221.8077 73.04745 C 219.46497 76.04614 219.37126 77.07694 221.33915 79.7945 C 222.36995 81.29385 223.68188 81.8561 226.30573 81.8561 C 230.33522 81.8561 232.022 80.54417 232.022 77.17065 C 232.022 74.265665 231.27231 73.04745 228.55475 71.64181 C 225.46235 70.04876 223.8693 70.32988 221.8077 73.04745 Z" fill="black"/>
        </g>
        <g id="Graphic_34">
          <path d="M 228.17991 73.79712 C 229.0233 74.82792 229.117 75.6713 228.27362 77.17065 C 227.0554 79.41966 224.71268 79.325955 223.21333 76.88952 C 222.36995 75.48388 222.55737 74.92163 223.963 73.79712 C 226.30573 72.11036 226.868 72.11036 228.17991 73.79712 Z" fill="#FFFFFF"/>
        </g>
        <g id="Graphic_33">
          <path d="M 267.53773 73.234865 C 265.66355 74.82792 265.47613 75.48388 266.2258 77.63919 C 267.53773 81.20014 269.69304 82.51206 272.87915 81.387555 C 276.90864 79.88821 277.75202 77.7329 275.503 74.6405 C 273.06656 71.36068 270.4427 70.89214 267.53773 73.234865 Z" fill="black"/>
        </g>
        <g id="Graphic_32">
          <path d="M 272.3169 74.82792 C 274.00365 76.88952 272.59802 80.16934 270.16158 79.7945 C 267.81885 79.51337 266.97547 76.79581 268.56853 74.82792 C 270.06787 73.04745 270.81755 73.04745 272.3169 74.82792 Z" fill="#FFFFFF"/>
        </g>
        <g id="Graphic_31">
          <path d="M 86.49179 74.17196 C 83.21197 77.82661 85.83582 82.98061 90.61499 82.41835 C 93.98851 82.04352 94.9256 81.29385 95.58157 78.48257 C 96.8935 73.51599 89.95902 70.32988 86.49179 74.17196 Z" fill="black"/>
        </g>
        <g id="Graphic_30">
          <path d="M 93.14513 75.57759 C 93.70739 78.20145 91.64579 80.16934 89.49048 78.95112 C 87.42888 77.92032 87.24146 76.13985 88.83451 74.54679 C 90.42757 72.95374 92.7703 73.51599 93.14513 75.57759 Z" fill="#FFFFFF"/>
        </g>
        <g id="Graphic_29">
          <path d="M 266.3195 126.93017 C 261.91518 130.3974 263.88307 136.4885 269.4119 136.4885 C 272.78544 136.4885 275.12816 134.05206 274.84704 130.77224 C 274.65962 128.05468 273.81624 128.14839 272.5043 131.05337 C 271.00496 134.33318 265.75726 133.95835 265.75726 130.58482 C 265.75726 128.05468 268.1937 126.55533 271.09867 127.305 C 273.25398 127.77355 273.4414 127.67984 272.4106 126.46162 C 270.72384 124.49373 269.3182 124.58744 266.3195 126.93017 Z" fill="black"/>
        </g>
        <g id="Graphic_28">
          <path d="M 87.33517 127.86726 C 83.02455 131.24078 84.99244 137.14446 90.42757 137.14446 C 96.42495 137.14446 98.20542 129.3666 92.67659 127.2113 C 90.05273 126.08679 89.49048 126.1805 87.33517 127.86726 Z" fill="black"/>
        </g>
        <g id="Graphic_27">
          <path d="M 92.95771 129.08548 C 94.36335 130.20998 94.55077 130.77224 93.70739 132.17788 C 92.39546 134.33318 89.86531 134.80173 88.17855 133.3961 C 86.39808 131.89675 86.39808 131.05337 88.27226 129.2729 C 90.05273 127.39871 90.61499 127.39871 92.95771 129.08548 Z" fill="#FFFFFF"/>
        </g>
        <g id="Graphic_26">
          <path d="M 181.04425 129.2729 C 178.88894 131.3345 179.17007 134.89544 181.6065 136.5822 C 184.32407 138.5501 185.44857 138.45638 187.97872 136.39478 C 189.38436 135.27028 189.8529 134.23948 189.38436 133.3961 C 188.8221 132.459 188.44727 132.55271 187.7913 133.77093 C 186.7605 135.64511 182.44988 135.73882 181.79392 133.86464 C 181.04425 131.99046 183.01214 129.64773 185.35487 129.64773 C 186.29196 129.64773 186.8542 129.17918 186.57308 128.71064 C 185.7297 127.305 182.6373 127.58613 181.04425 129.2729 Z" fill="black"/>
        </g>
        <g id="Graphic_25">
          <path d="M 224.52526 129.83515 C 222.18253 132.3653 222.18253 133.86464 224.52526 136.20737 C 227.0554 138.73751 228.64846 138.5501 231.45973 135.64511 C 233.80246 133.02126 233.80246 130.95966 231.27231 128.89806 C 229.117 127.2113 226.68057 127.49242 224.52526 129.83515 Z" fill="black"/>
        </g>
        <g id="Graphic_24">
          <path d="M 229.77297 131.99046 C 230.42893 133.67722 228.64846 136.20737 226.77428 136.20737 C 225.9309 136.20737 225.46235 135.17657 225.46235 133.3961 C 225.46235 131.24078 225.8372 130.58482 227.33653 130.58482 C 228.36733 130.58482 229.49184 131.24078 229.77297 131.99046 Z" fill="#FFFFFF"/>
        </g>
        <g id="Graphic_23">
          <path d="M 132.59665 130.95966 C 131.0036 134.33318 132.22182 137.89413 135.22051 138.6438 C 138.31291 139.48718 140.3745 138.17526 141.59273 134.80173 C 142.3424 132.64642 142.15498 131.99046 140.2808 130.49111 C 137.1884 127.96097 133.81487 128.14839 132.59665 130.95966 Z" fill="black"/>
        </g>
        <g id="Graphic_22">
          <path d="M 139.25 133.02126 C 139.25 135.64511 135.78276 137.5193 133.90858 136.01995 C 132.12811 134.61431 132.40924 132.74013 134.65825 131.14708 C 137.28211 129.3666 139.25 130.20998 139.25 133.02126 Z" fill="#FFFFFF"/>
        </g>
        <g id="Graphic_21">
          <path d="M 86.49179 177.06452 C 83.02455 178.9387 82.83713 184.18641 86.30437 186.43543 C 91.64579 189.90267 97.26833 184.93609 94.17593 179.50096 C 92.39546 176.31485 89.58419 175.47147 86.49179 177.06452 Z" fill="black"/>
        </g>
        <g id="Graphic_20">
          <path d="M 92.48917 180.43805 C 93.42626 182.12481 93.23884 182.68707 91.83321 183.71787 C 88.27226 186.34172 84.61761 183.71787 86.21066 179.68838 C 86.96033 177.62678 91.27095 178.09532 92.48917 180.43805 Z" fill="#FFFFFF"/>
        </g>
        <g id="Graphic_19">
          <path d="M 265.94467 177.06452 C 264.82016 177.8142 263.88307 179.21983 263.88307 180.15692 C 263.88307 182.21852 268.00627 186.81027 269.78675 186.81027 C 271.84835 186.81027 274.19107 183.62416 274.19107 180.9066 C 274.19107 178.56387 271.2861 175.56518 269.03707 175.56518 C 268.47482 175.56518 267.06918 176.22114 265.94467 177.06452 Z" fill="black"/>
        </g>
        <g id="Graphic_18">
          <path d="M 271.19238 180.34434 C 271.66093 184.28012 266.88176 184.84238 265.56984 181.09401 C 264.82016 179.12612 266.60064 177.25194 269.03707 177.62678 C 270.2553 177.8142 271.00496 178.75129 271.19238 180.34434 Z" fill="#FFFFFF"/>
        </g>
        <g id="Graphic_17">
          <path d="M 225.64977 177.25194 C 224.52526 177.43936 222.9322 178.75129 222.18253 180.34434 C 220.8706 182.78078 220.8706 183.34303 222.18253 185.87318 C 223.58817 188.59074 224.05672 188.87187 226.868 188.87187 C 229.86668 188.87187 230.71006 188.59074 232.30311 186.34172 C 233.80246 184.28012 233.80246 183.71787 232.58424 180.9066 C 231.27231 177.62678 229.39813 176.68969 225.64977 177.25194 Z" fill="black"/>
        </g>
        <g id="Graphic_16">
          <path d="M 230.0541 181.0003 C 231.27231 183.24932 228.9296 186.81027 226.30573 186.81027 C 224.05672 186.81027 222.55737 183.24932 223.7756 180.9066 C 224.9001 178.75129 228.9296 178.845 230.0541 181.0003 Z" fill="#FFFFFF"/>
        </g>
        <g id="Graphic_15">
          <path d="M 132.97149 179.03241 C 130.53505 179.9695 131.84698 181.09401 134.75196 180.53176 C 136.90727 180.06321 137.93807 180.34434 138.87516 181.65627 C 139.99967 183.15561 139.90596 183.62416 138.59404 185.1235 C 136.62614 187.37252 135.97018 187.27881 133.15891 184.28012 C 130.90989 181.74998 130.81618 181.74998 130.81618 183.81158 C 130.81618 186.90398 133.81487 189.52783 136.81356 188.96558 C 139.43742 188.40332 140.56193 187.27881 141.49902 184.28012 C 142.71724 180.43805 137.37582 177.25194 132.97149 179.03241 Z" fill="black"/>
        </g>
        <g id="Graphic_14">
          <path d="M 179.35748 179.40725 C 176.92105 180.81289 177.01476 187.37252 179.4512 188.68445 C 182.16876 190.09009 184.6989 189.80896 186.38567 187.93478 C 190.8837 182.9682 185.07374 176.03372 179.35748 179.40725 Z" fill="black"/>
        </g>
        <g id="Graphic_13">
          <path d="M 185.82341 181.74998 C 186.38567 183.53045 182.91843 186.99769 181.23167 186.34172 C 179.07636 185.49834 178.32668 183.0619 179.63861 181.46885 C 180.95054 179.9695 185.35487 180.15692 185.82341 181.74998 Z" fill="#FFFFFF"/>
        </g>
        <g id="Graphic_12">
          <path d="M 266.97547 226.63663 C 261.25922 229.07306 262.38373 237.41317 268.47482 237.41317 C 273.4414 237.41317 275.87784 231.79063 272.69173 227.2926 C 271.00496 224.85615 270.91125 224.85615 266.97547 226.63663 Z" fill="black"/>
        </g>
        <g id="Graphic_11">
          <path d="M 271.19238 229.4479 C 271.56722 232.4466 269.97416 234.03964 267.2566 233.28997 C 264.63275 232.634 263.97678 230.19757 265.94467 228.22968 C 267.72515 226.4492 270.91125 227.2926 271.19238 229.4479 Z" fill="#FFFFFF"/>
        </g>
        <g id="Graphic_10">
          <path d="M 86.30437 228.88564 C 84.33648 232.82143 85.92953 236.38237 89.77161 236.47608 C 93.8948 236.47608 96.05011 229.07306 92.48917 227.10517 C 89.49048 225.51212 87.80372 225.98066 86.30437 228.88564 Z" fill="black"/>
        </g>
        <g id="Graphic_9">
          <path d="M 92.02062 231.32208 C 91.7395 232.16546 90.7087 232.72772 89.86531 232.5403 C 87.80372 232.16546 87.05404 228.97935 88.83451 227.94855 C 90.52128 226.91775 92.864 229.3542 92.02062 231.32208 Z" fill="#FFFFFF"/>
        </g>
        <g id="Graphic_8">
          <path d="M 180.01345 229.3542 C 176.3588 234.88303 181.13796 240.59928 186.47937 237.03833 C 189.47807 235.07044 189.66548 231.6032 186.8542 228.97935 C 184.13665 226.4492 181.79392 226.63663 180.01345 229.3542 Z" fill="black"/>
        </g>
        <g id="Graphic_7">
          <path d="M 186.8542 230.94724 C 187.22905 232.91513 184.41777 235.7264 182.44988 235.35157 C 180.85683 234.97673 180.01345 232.4466 180.85683 230.29128 C 181.6065 228.3234 186.47937 228.97935 186.8542 230.94724 Z" fill="#FFFFFF"/>
        </g>
        <g id="Graphic_6">
          <path d="M 133.0652 230.385 C 130.06651 234.97673 134.00229 240.59928 138.59404 238.25655 C 141.21789 236.85092 142.06127 235.6327 142.06127 232.82143 C 142.06127 228.13597 135.68905 226.3555 133.0652 230.385 Z" fill="black"/>
        </g>
        <g id="Graphic_5">
          <path d="M 140.18709 230.29128 C 140.18709 230.4787 140.46822 231.32208 140.74934 232.07175 C 141.59273 234.22706 138.50033 236.6635 136.34502 235.539 C 134.56455 234.6019 133.90858 231.79063 135.22051 230.5724 C 135.87647 229.82274 140.18709 229.63532 140.18709 230.29128 Z" fill="#FFFFFF"/>
        </g>
        <g id="Graphic_4">
          <path d="M 223.21333 230.10386 C 221.24544 232.91513 221.33915 234.32077 223.58817 236.19495 C 226.0246 238.25655 228.74217 238.6314 230.1478 236.94463 C 231.36602 235.44528 230.80377 235.07044 226.868 234.41448 C 225.74348 234.22706 224.9938 233.38368 224.9938 232.25917 C 224.9938 230.66612 225.55606 230.385 228.0862 230.66612 C 232.2094 230.94724 231.64715 228.60452 227.61766 228.22968 C 225.46235 228.04226 224.33784 228.5108 223.21333 230.10386 Z" fill="black"/>
        </g>
      </g>
    </g>
  </g>
</svg>
