<?xml version="1.0" encoding="UTF-8" standalone="no"?>
<!DOCTYPE svg PUBLIC "-//W3C//DTD SVG 1.1//EN" "http://www.w3.org/Graphics/SVG/1.1/DTD/svg11.dtd">
<svg xmlns="http://www.w3.org/2000/svg" xmlns:xl="http://www.w3.org/1999/xlink" version="1.1" xmlns:dc="http://purl.org/dc/elements/1.1/" viewBox="81 67.5 202.5 342" width="202.5" height="342">
  <defs>
    <clipPath id="artboard_clip_path">
      <path d="M 81 67.5 L 283.5 67.5 L 283.5 382.53766 L 223.7459 409.5 L 81 409.5 Z"/>
    </clipPath>
    <clipPath id="inner_stroke_clip_path">
      <path d="M 153.41882 65.778385 C 152.17504 66.72951 152.17504 66.949 153.93096 70.680335 C 155.61372 74.26534 158.90608 84.58139 159.78404 88.82487 C 160.00353 89.84916 160.80833 94.09264 161.68629 98.33612 C 164.61283 113.33462 164.97864 124.3823 163.58854 153.94033 C 163.14956 162.42729 163.44221 166.30495 165.41762 179.54753 C 166.22242 185.0348 168.41732 192.93644 169.95376 196.08247 C 170.90488 197.91156 174.2704 210.93465 174.12407 212.32475 C 174.12407 212.98323 170.61223 205.74004 170.53906 204.93525 C 170.53906 203.54514 163.8812 194.18022 159.78404 189.79042 C 152.10188 181.44978 137.61552 172.67017 128.47009 170.69476 C 120.20262 169.012 108.13065 160.45188 105.64309 154.67196 C 100.00951 141.28305 99.05838 129.72323 102.86288 121.23627 C 106.30156 113.55411 100.81431 116.91963 94.8149 126.13822 C 88.2302 136.16161 86.40111 143.77061 88.15703 153.57451 C 90.71775 168.49985 97.2293 174.93824 122.69017 187.88817 C 148.51687 201.05758 166.00293 223.00662 168.271 245.2483 C 168.70998 249.12596 169.29529 254.39373 169.51478 256.95445 C 170.31957 264.19763 165.5842 271.6598 160.0767 275.39164 C 154.56918 279.1235 143.74956 281.3429 132.8599 289.1098 C 121.97022 296.87668 103.96033 314.8999 103.96033 338.38536 C 103.96033 344.0921 107.15289 354.9698 113.10576 362.82195 C 119.05864 370.6741 129.9053 379.63706 137.79843 384.58807 C 145.69155 389.5391 162.9144 396.87035 171.54506 398.5806 C 180.17573 400.2908 188.22249 408.1103 190.4761 411.75 C 191.94543 407.52246 198.04852 400.06214 212.46172 395.3065 C 220.36337 392.67263 224.82634 390.47773 235.94718 383.67353 C 253.7259 372.9185 259.70907 366.63762 263.45663 356.3104 C 267.2042 345.9832 269.46682 340.64063 269.01705 333.99555 C 268.3139 323.51167 262.79816 313.2903 260.60326 309.9248 C 257.60356 305.16916 243.34555 292.71736 235.87402 287.82942 C 228.40248 282.9415 224.02154 280.8789 219.99755 278.9035 C 207.12078 272.39194 202.292 265.51458 202.43832 253.51577 C 202.65781 224.8357 219.63173 196.08247 248.3118 176.10885 C 250.7262 174.35293 253.87222 171.86537 255.3355 170.54843 C 256.79876 169.23149 258.48152 167.84138 259.14 167.4024 C 260.96908 166.37811 271.06563 154.08666 273.48002 149.91634 C 277.65034 142.81949 278.1625 129.86956 274.7238 118.09024 C 274.06533 115.89534 273.40686 113.04197 273.18737 111.72503 C 272.5289 107.7742 271.06563 107.33522 270.5535 110.92023 C 268.5049 125.84557 261.1154 136.16161 245.5316 146.185 C 243.1172 147.72144 239.82484 149.91634 238.21525 151.0138 C 236.60565 152.11124 233.38646 154.0135 231.04523 155.25727 C 228.704 156.50105 224.46052 159.28126 221.60715 161.403 C 218.75377 163.52474 215.38825 166.0123 214.14447 166.8171 C 209.24252 170.18261 204.19425 178.30376 195.4878 196.74094 L 192.34177 203.32565 L 192.78075 196.2288 C 193.0734 192.27797 193.73187 187.15653 194.31718 184.88846 C 194.9025 182.54723 195.4878 179.84019 195.70729 178.8159 C 195.85361 177.79161 196.43892 175.52354 196.95107 173.69446 C 197.4632 171.86537 197.9022 170.03629 198.04852 169.67047 C 198.12168 169.23149 198.92648 166.23179 199.73128 162.86627 C 200.60924 159.50075 201.63353 155.03778 202.0725 152.9892 C 202.51149 150.86747 203.0968 148.16042 203.31629 146.9898 C 206.02333 134.91784 202.58465 116.48065 195.41463 104.62817 C 193.80504 101.99429 192.4881 99.65306 192.4881 99.43357 C 192.4881 95.5559 170.4659 74.26534 162.0521 69.9487 C 160.36935 69.07074 158.10128 67.60747 156.93066 66.58318 C 155.02842 65.04675 154.58943 64.97359 153.41882 65.778385 Z"/>
    </clipPath>
    <clipPath id="inner_stroke_clip_path_2">
      <path d="M 202.9391 260.057 C 202.554 258.04565 202.3879 255.8704 202.41687 253.4943 C 202.63636 224.81425 219.61028 196.06101 248.29034 176.0874 C 250.70474 174.33147 253.85077 171.84392 255.31403 170.52697 C 256.7773 169.21003 258.46006 167.81993 259.11853 167.38095 C 260.94762 166.35666 271.04417 154.0652 273.45857 149.89488 C 277.62888 142.79803 278.14103 129.8481 274.70235 118.06879 C 274.04387 115.87388 273.3854 113.02051 273.1659 111.70357 C 272.50744 107.75274 271.04417 107.31376 270.53203 110.89877 C 268.48345 125.82411 261.09395 136.14016 245.51013 146.16355 C 243.09574 147.69998 239.80338 149.89488 238.1938 150.99234 C 236.5842 152.08979 233.365 153.99204 231.02377 155.23581 C 228.68254 156.4796 224.43906 159.2598 221.5857 161.38154 C 218.73231 163.50328 215.3668 165.99084 214.12302 166.79564 C 209.22107 170.16116 204.1728 178.2823 195.46634 196.71949 L 192.32031 203.3042 L 192.7593 196.20734 C 193.05195 192.25652 193.71042 187.13507 194.29573 184.867 C 194.88103 182.52578 195.46634 179.81873 195.68583 178.79444 C 195.83216 177.77015 196.41747 175.50209 196.9296 173.673 C 197.44175 171.84392 197.88073 170.01483 198.02706 169.64901 C 198.10022 169.21003 198.90502 166.21033 199.70982 162.84481 C 200.58778 159.4793 201.61207 155.01632 202.05105 152.96775 C 202.49003 150.846 203.07534 148.13896 203.29483 146.96835 C 206.00188 134.89638 202.5632 116.45919 195.39318 104.60671 C 193.78358 101.97283 192.46664 99.6316 192.46664 99.41211 C 192.46664 95.53445 170.44444 74.24389 162.03065 69.927244 C 160.34789 69.04928 158.07982 67.586014 156.9092 66.56173 C 155.00696 65.02529 154.56798 64.95213 153.39736 65.75693 C 152.15358 66.70805 152.15358 66.92754 153.9095 70.65888 C 155.59227 74.24389 158.88462 84.55993 159.76258 88.80341 C 159.98207 89.8277 160.78687 94.07118 161.66483 98.31466 C 164.59137 113.31316 164.95719 124.36084 163.56708 153.91887 C 163.1281 162.40583 163.42075 166.2835 165.39617 179.52608 C 166.20096 185.01333 168.39587 192.91499 169.9323 196.06101 C 170.88342 197.8901 174.24894 210.9132 174.10262 212.3033 C 174.10262 212.96177 170.59077 205.7186 170.5176 204.9138 C 170.5176 203.52369 163.85973 194.15876 159.76258 189.76896 C 152.08042 181.42833 137.59406 172.64871 128.44863 170.6733 C 120.18116 168.99054 108.1092 160.43042 105.62164 154.6505 C 99.98805 141.2616 99.03693 129.70177 102.84143 121.21482 C 106.28011 113.53265 100.79285 116.89817 94.79345 126.11677 C 88.20874 136.14016 86.37965 143.74915 88.13557 153.55306 C 90.6963 168.4784 97.20784 174.91678 122.66872 187.8667 C 148.49541 201.03613 165.98147 222.98516 168.24954 245.22685 C 168.68852 249.1045 169.27383 254.37228 169.49332 256.933 C 169.60668 257.95328 169.61012 258.9779 169.51696 259.99584 C 174.6329 259.8999 179.73356 259.8472 184.76654 259.8472 C 190.7834 259.8472 196.86872 259.9225 202.9391 260.057 Z"/>
    </clipPath>
  </defs>
  <g id="Radish_(5)" stroke-opacity="1" fill="none" fill-opacity="1" stroke-dasharray="none" stroke="none">
    <title>Radish (5)</title>
    <g id="Radish_(5)_Layer_2" clip-path="url(#artboard_clip_path)">
      <title>Layer 2</title>
      <g id="Group_846">
        <g id="Graphic_848">
          <path d="M 153.41882 65.778385 C 152.17504 66.72951 152.17504 66.949 153.93096 70.680335 C 155.61372 74.26534 158.90608 84.58139 159.78404 88.82487 C 160.00353 89.84916 160.80833 94.09264 161.68629 98.33612 C 164.61283 113.33462 164.97864 124.3823 163.58854 153.94033 C 163.14956 162.42729 163.44221 166.30495 165.41762 179.54753 C 166.22242 185.0348 168.41732 192.93644 169.95376 196.08247 C 170.90488 197.91156 174.2704 210.93465 174.12407 212.32475 C 174.12407 212.98323 170.61223 205.74004 170.53906 204.93525 C 170.53906 203.54514 163.8812 194.18022 159.78404 189.79042 C 152.10188 181.44978 137.61552 172.67017 128.47009 170.69476 C 120.20262 169.012 108.13065 160.45188 105.64309 154.67196 C 100.00951 141.28305 99.05838 129.72323 102.86288 121.23627 C 106.30156 113.55411 100.81431 116.91963 94.8149 126.13822 C 88.2302 136.16161 86.40111 143.77061 88.15703 153.57451 C 90.71775 168.49985 97.2293 174.93824 122.69017 187.88817 C 148.51687 201.05758 166.00293 223.00662 168.271 245.2483 C 168.70998 249.12596 169.29529 254.39373 169.51478 256.95445 C 170.31957 264.19763 165.5842 271.6598 160.0767 275.39164 C 154.56918 279.1235 143.74956 281.3429 132.8599 289.1098 C 121.97022 296.87668 103.96033 314.8999 103.96033 338.38536 C 103.96033 344.0921 107.15289 354.9698 113.10576 362.82195 C 119.05864 370.6741 129.9053 379.63706 137.79843 384.58807 C 145.69155 389.5391 162.9144 396.87035 171.54506 398.5806 C 180.17573 400.2908 188.22249 408.1103 190.4761 411.75 C 191.94543 407.52246 198.04852 400.06214 212.46172 395.3065 C 220.36337 392.67263 224.82634 390.47773 235.94718 383.67353 C 253.7259 372.9185 259.70907 366.63762 263.45663 356.3104 C 267.2042 345.9832 269.46682 340.64063 269.01705 333.99555 C 268.3139 323.51167 262.79816 313.2903 260.60326 309.9248 C 257.60356 305.16916 243.34555 292.71736 235.87402 287.82942 C 228.40248 282.9415 224.02154 280.8789 219.99755 278.9035 C 207.12078 272.39194 202.292 265.51458 202.43832 253.51577 C 202.65781 224.8357 219.63173 196.08247 248.3118 176.10885 C 250.7262 174.35293 253.87222 171.86537 255.3355 170.54843 C 256.79876 169.23149 258.48152 167.84138 259.14 167.4024 C 260.96908 166.37811 271.06563 154.08666 273.48002 149.91634 C 277.65034 142.81949 278.1625 129.86956 274.7238 118.09024 C 274.06533 115.89534 273.40686 113.04197 273.18737 111.72503 C 272.5289 107.7742 271.06563 107.33522 270.5535 110.92023 C 268.5049 125.84557 261.1154 136.16161 245.5316 146.185 C 243.1172 147.72144 239.82484 149.91634 238.21525 151.0138 C 236.60565 152.11124 233.38646 154.0135 231.04523 155.25727 C 228.704 156.50105 224.46052 159.28126 221.60715 161.403 C 218.75377 163.52474 215.38825 166.0123 214.14447 166.8171 C 209.24252 170.18261 204.19425 178.30376 195.4878 196.74094 L 192.34177 203.32565 L 192.78075 196.2288 C 193.0734 192.27797 193.73187 187.15653 194.31718 184.88846 C 194.9025 182.54723 195.4878 179.84019 195.70729 178.8159 C 195.85361 177.79161 196.43892 175.52354 196.95107 173.69446 C 197.4632 171.86537 197.9022 170.03629 198.04852 169.67047 C 198.12168 169.23149 198.92648 166.23179 199.73128 162.86627 C 200.60924 159.50075 201.63353 155.03778 202.0725 152.9892 C 202.51149 150.86747 203.0968 148.16042 203.31629 146.9898 C 206.02333 134.91784 202.58465 116.48065 195.41463 104.62817 C 193.80504 101.99429 192.4881 99.65306 192.4881 99.43357 C 192.4881 95.5559 170.4659 74.26534 162.0521 69.9487 C 160.36935 69.07074 158.10128 67.60747 156.93066 66.58318 C 155.02842 65.04675 154.58943 64.97359 153.41882 65.778385 Z" fill="#FFFFFF"/>
          <path d="M 153.41882 65.778385 C 152.17504 66.72951 152.17504 66.949 153.93096 70.680335 C 155.61372 74.26534 158.90608 84.58139 159.78404 88.82487 C 160.00353 89.84916 160.80833 94.09264 161.68629 98.33612 C 164.61283 113.33462 164.97864 124.3823 163.58854 153.94033 C 163.14956 162.42729 163.44221 166.30495 165.41762 179.54753 C 166.22242 185.0348 168.41732 192.93644 169.95376 196.08247 C 170.90488 197.91156 174.2704 210.93465 174.12407 212.32475 C 174.12407 212.98323 170.61223 205.74004 170.53906 204.93525 C 170.53906 203.54514 163.8812 194.18022 159.78404 189.79042 C 152.10188 181.44978 137.61552 172.67017 128.47009 170.69476 C 120.20262 169.012 108.13065 160.45188 105.64309 154.67196 C 100.00951 141.28305 99.05838 129.72323 102.86288 121.23627 C 106.30156 113.55411 100.81431 116.91963 94.8149 126.13822 C 88.2302 136.16161 86.40111 143.77061 88.15703 153.57451 C 90.71775 168.49985 97.2293 174.93824 122.69017 187.88817 C 148.51687 201.05758 166.00293 223.00662 168.271 245.2483 C 168.70998 249.12596 169.29529 254.39373 169.51478 256.95445 C 170.31957 264.19763 165.5842 271.6598 160.0767 275.39164 C 154.56918 279.1235 143.74956 281.3429 132.8599 289.1098 C 121.97022 296.87668 103.96033 314.8999 103.96033 338.38536 C 103.96033 344.0921 107.15289 354.9698 113.10576 362.82195 C 119.05864 370.6741 129.9053 379.63706 137.79843 384.58807 C 145.69155 389.5391 162.9144 396.87035 171.54506 398.5806 C 180.17573 400.2908 188.22249 408.1103 190.4761 411.75 C 191.94543 407.52246 198.04852 400.06214 212.46172 395.3065 C 220.36337 392.67263 224.82634 390.47773 235.94718 383.67353 C 253.7259 372.9185 259.70907 366.63762 263.45663 356.3104 C 267.2042 345.9832 269.46682 340.64063 269.01705 333.99555 C 268.3139 323.51167 262.79816 313.2903 260.60326 309.9248 C 257.60356 305.16916 243.34555 292.71736 235.87402 287.82942 C 228.40248 282.9415 224.02154 280.8789 219.99755 278.9035 C 207.12078 272.39194 202.292 265.51458 202.43832 253.51577 C 202.65781 224.8357 219.63173 196.08247 248.3118 176.10885 C 250.7262 174.35293 253.87222 171.86537 255.3355 170.54843 C 256.79876 169.23149 258.48152 167.84138 259.14 167.4024 C 260.96908 166.37811 271.06563 154.08666 273.48002 149.91634 C 277.65034 142.81949 278.1625 129.86956 274.7238 118.09024 C 274.06533 115.89534 273.40686 113.04197 273.18737 111.72503 C 272.5289 107.7742 271.06563 107.33522 270.5535 110.92023 C 268.5049 125.84557 261.1154 136.16161 245.5316 146.185 C 243.1172 147.72144 239.82484 149.91634 238.21525 151.0138 C 236.60565 152.11124 233.38646 154.0135 231.04523 155.25727 C 228.704 156.50105 224.46052 159.28126 221.60715 161.403 C 218.75377 163.52474 215.38825 166.0123 214.14447 166.8171 C 209.24252 170.18261 204.19425 178.30376 195.4878 196.74094 L 192.34177 203.32565 L 192.78075 196.2288 C 193.0734 192.27797 193.73187 187.15653 194.31718 184.88846 C 194.9025 182.54723 195.4878 179.84019 195.70729 178.8159 C 195.85361 177.79161 196.43892 175.52354 196.95107 173.69446 C 197.4632 171.86537 197.9022 170.03629 198.04852 169.67047 C 198.12168 169.23149 198.92648 166.23179 199.73128 162.86627 C 200.60924 159.50075 201.63353 155.03778 202.0725 152.9892 C 202.51149 150.86747 203.0968 148.16042 203.31629 146.9898 C 206.02333 134.91784 202.58465 116.48065 195.41463 104.62817 C 193.80504 101.99429 192.4881 99.65306 192.4881 99.43357 C 192.4881 95.5559 170.4659 74.26534 162.0521 69.9487 C 160.36935 69.07074 158.10128 67.60747 156.93066 66.58318 C 155.02842 65.04675 154.58943 64.97359 153.41882 65.778385 Z" stroke="black" stroke-linecap="round" stroke-linejoin="round" stroke-width="6" clip-path="url(#inner_stroke_clip_path)"/>
        </g>
        <g id="Graphic_847">
          <path d="M 202.9391 260.057 C 202.554 258.04565 202.3879 255.8704 202.41687 253.4943 C 202.63636 224.81425 219.61028 196.06101 248.29034 176.0874 C 250.70474 174.33147 253.85077 171.84392 255.31403 170.52697 C 256.7773 169.21003 258.46006 167.81993 259.11853 167.38095 C 260.94762 166.35666 271.04417 154.0652 273.45857 149.89488 C 277.62888 142.79803 278.14103 129.8481 274.70235 118.06879 C 274.04387 115.87388 273.3854 113.02051 273.1659 111.70357 C 272.50744 107.75274 271.04417 107.31376 270.53203 110.89877 C 268.48345 125.82411 261.09395 136.14016 245.51013 146.16355 C 243.09574 147.69998 239.80338 149.89488 238.1938 150.99234 C 236.5842 152.08979 233.365 153.99204 231.02377 155.23581 C 228.68254 156.4796 224.43906 159.2598 221.5857 161.38154 C 218.73231 163.50328 215.3668 165.99084 214.12302 166.79564 C 209.22107 170.16116 204.1728 178.2823 195.46634 196.71949 L 192.32031 203.3042 L 192.7593 196.20734 C 193.05195 192.25652 193.71042 187.13507 194.29573 184.867 C 194.88103 182.52578 195.46634 179.81873 195.68583 178.79444 C 195.83216 177.77015 196.41747 175.50209 196.9296 173.673 C 197.44175 171.84392 197.88073 170.01483 198.02706 169.64901 C 198.10022 169.21003 198.90502 166.21033 199.70982 162.84481 C 200.58778 159.4793 201.61207 155.01632 202.05105 152.96775 C 202.49003 150.846 203.07534 148.13896 203.29483 146.96835 C 206.00188 134.89638 202.5632 116.45919 195.39318 104.60671 C 193.78358 101.97283 192.46664 99.6316 192.46664 99.41211 C 192.46664 95.53445 170.44444 74.24389 162.03065 69.927244 C 160.34789 69.04928 158.07982 67.586014 156.9092 66.56173 C 155.00696 65.02529 154.56798 64.95213 153.39736 65.75693 C 152.15358 66.70805 152.15358 66.92754 153.9095 70.65888 C 155.59227 74.24389 158.88462 84.55993 159.76258 88.80341 C 159.98207 89.8277 160.78687 94.07118 161.66483 98.31466 C 164.59137 113.31316 164.95719 124.36084 163.56708 153.91887 C 163.1281 162.40583 163.42075 166.2835 165.39617 179.52608 C 166.20096 185.01333 168.39587 192.91499 169.9323 196.06101 C 170.88342 197.8901 174.24894 210.9132 174.10262 212.3033 C 174.10262 212.96177 170.59077 205.7186 170.5176 204.9138 C 170.5176 203.52369 163.85973 194.15876 159.76258 189.76896 C 152.08042 181.42833 137.59406 172.64871 128.44863 170.6733 C 120.18116 168.99054 108.1092 160.43042 105.62164 154.6505 C 99.98805 141.2616 99.03693 129.70177 102.84143 121.21482 C 106.28011 113.53265 100.79285 116.89817 94.79345 126.11677 C 88.20874 136.14016 86.37965 143.74915 88.13557 153.55306 C 90.6963 168.4784 97.20784 174.91678 122.66872 187.8667 C 148.49541 201.03613 165.98147 222.98516 168.24954 245.22685 C 168.68852 249.1045 169.27383 254.37228 169.49332 256.933 C 169.60668 257.95328 169.61012 258.9779 169.51696 259.99584 C 174.6329 259.8999 179.73356 259.8472 184.76654 259.8472 C 190.7834 259.8472 196.86872 259.9225 202.9391 260.057 Z" fill="#FFFFFF"/>
          <path d="M 202.9391 260.057 C 202.554 258.04565 202.3879 255.8704 202.41687 253.4943 C 202.63636 224.81425 219.61028 196.06101 248.29034 176.0874 C 250.70474 174.33147 253.85077 171.84392 255.31403 170.52697 C 256.7773 169.21003 258.46006 167.81993 259.11853 167.38095 C 260.94762 166.35666 271.04417 154.0652 273.45857 149.89488 C 277.62888 142.79803 278.14103 129.8481 274.70235 118.06879 C 274.04387 115.87388 273.3854 113.02051 273.1659 111.70357 C 272.50744 107.75274 271.04417 107.31376 270.53203 110.89877 C 268.48345 125.82411 261.09395 136.14016 245.51013 146.16355 C 243.09574 147.69998 239.80338 149.89488 238.1938 150.99234 C 236.5842 152.08979 233.365 153.99204 231.02377 155.23581 C 228.68254 156.4796 224.43906 159.2598 221.5857 161.38154 C 218.73231 163.50328 215.3668 165.99084 214.12302 166.79564 C 209.22107 170.16116 204.1728 178.2823 195.46634 196.71949 L 192.32031 203.3042 L 192.7593 196.20734 C 193.05195 192.25652 193.71042 187.13507 194.29573 184.867 C 194.88103 182.52578 195.46634 179.81873 195.68583 178.79444 C 195.83216 177.77015 196.41747 175.50209 196.9296 173.673 C 197.44175 171.84392 197.88073 170.01483 198.02706 169.64901 C 198.10022 169.21003 198.90502 166.21033 199.70982 162.84481 C 200.58778 159.4793 201.61207 155.01632 202.05105 152.96775 C 202.49003 150.846 203.07534 148.13896 203.29483 146.96835 C 206.00188 134.89638 202.5632 116.45919 195.39318 104.60671 C 193.78358 101.97283 192.46664 99.6316 192.46664 99.41211 C 192.46664 95.53445 170.44444 74.24389 162.03065 69.927244 C 160.34789 69.04928 158.07982 67.586014 156.9092 66.56173 C 155.00696 65.02529 154.56798 64.95213 153.39736 65.75693 C 152.15358 66.70805 152.15358 66.92754 153.9095 70.65888 C 155.59227 74.24389 158.88462 84.55993 159.76258 88.80341 C 159.98207 89.8277 160.78687 94.07118 161.66483 98.31466 C 164.59137 113.31316 164.95719 124.36084 163.56708 153.91887 C 163.1281 162.40583 163.42075 166.2835 165.39617 179.52608 C 166.20096 185.01333 168.39587 192.91499 169.9323 196.06101 C 170.88342 197.8901 174.24894 210.9132 174.10262 212.3033 C 174.10262 212.96177 170.59077 205.7186 170.5176 204.9138 C 170.5176 203.52369 163.85973 194.15876 159.76258 189.76896 C 152.08042 181.42833 137.59406 172.64871 128.44863 170.6733 C 120.18116 168.99054 108.1092 160.43042 105.62164 154.6505 C 99.98805 141.2616 99.03693 129.70177 102.84143 121.21482 C 106.28011 113.53265 100.79285 116.89817 94.79345 126.11677 C 88.20874 136.14016 86.37965 143.74915 88.13557 153.55306 C 90.6963 168.4784 97.20784 174.91678 122.66872 187.8667 C 148.49541 201.03613 165.98147 222.98516 168.24954 245.22685 C 168.68852 249.1045 169.27383 254.37228 169.49332 256.933 C 169.60668 257.95328 169.61012 258.9779 169.51696 259.99584 C 174.6329 259.8999 179.73356 259.8472 184.76654 259.8472 C 190.7834 259.8472 196.86872 259.9225 202.9391 260.057 Z" stroke="black" stroke-linecap="round" stroke-linejoin="round" stroke-width="6" clip-path="url(#inner_stroke_clip_path_2)"/>
        </g>
      </g>
    </g>
  </g>
</svg>
