<?xml version="1.0" encoding="UTF-8" standalone="no"?>
<!DOCTYPE svg PUBLIC "-//W3C//DTD SVG 1.1//EN" "http://www.w3.org/Graphics/SVG/1.1/DTD/svg11.dtd">
<svg xmlns="http://www.w3.org/2000/svg" xmlns:xl="http://www.w3.org/1999/xlink" version="1.1" xmlns:dc="http://purl.org/dc/elements/1.1/" viewBox="36 108 292.5 261" width="292.5" height="261">
  <defs>
    <clipPath id="artboard_clip_path">
      <path d="M 36 108 L 328.5 108 L 328.5 315.46154 L 248.72727 369 L 36 369 Z"/>
    </clipPath>
  </defs>
  <g id="Rose_(8)" stroke-opacity="1" fill="none" fill-opacity="1" stroke-dasharray="none" stroke="none">
    <title>Rose (8)</title>
    <g id="Rose_(8)_Layer_2" clip-path="url(#artboard_clip_path)">
      <title>Layer 2</title>
      <g id="Graphic_44">
        <rect x="229.5322" y="367.2056" width="61.4016" height="73.68192" id="path"/>
        <clipPath id="clip_path">
          <use xl:href="#path"/>
        </clipPath>
        <g clip-path="url(#clip_path)">
          <image xl:href="image225.pdf" width="284" height="255" transform="translate(230.413 377.27154) scale(.21)"/>
        </g>
      </g>
      <g id="Group_598">
        <g id="Graphic_608">
          <path d="M 105.69168 117.50727 C 100.49461 121.22944 98.39946 124.3994 97.17337 130.46104 C 95.20246 139.52685 95.09873 143.56599 96.28304 151.81604 C 97.2912 158.63137 97.80494 160.02464 101.18953 165.26316 C 103.29194 168.43174 105.46839 171.50556 106.0473 172.03415 C 107.20512 173.09134 104.1313 175.26779 100.92427 175.66156 C 99.74273 175.80664 98.85582 176.2582 98.918 176.76458 C 98.96981 177.18656 98.17767 177.71216 97.16492 177.83651 C 94.29546 178.18884 91.22015 181.05081 84.52607 189.32586 L 78.50866 196.83248 L 77.3269 206.74374 C 76.1007 217.68848 76.67652 224.47122 79.31041 230.57292 C 80.26536 232.7687 80.85164 234.75275 80.53479 234.963 C 80.21793 235.17324 77.97033 235.7062 75.52286 236.00672 C 59.77195 238.1977 46.989524 247.81998 42.18313 261.00333 C 40.20934 266.5571 40.144173 267.42178 41.100514 273.81513 C 41.735617 277.5922 42.49806 281.011 42.80306 281.40188 C 44.412455 283.34597 45.408966 280.99624 46.088727 273.97367 C 46.315314 271.6328 50.60625 267.5079 53.053723 267.20738 C 53.644493 267.13484 54.79644 266.05105 55.57972 264.75552 C 57.368375 261.8802 57.959144 261.80766 58.27002 264.33953 C 58.57053 266.787 62.508925 269.5588 68.389916 271.40676 C 73.101225 272.79865 85.51626 272.0453 87.34487 270.19307 C 87.95786 269.6038 89.54215 268.5526 90.9991 267.8597 L 93.58577 266.59974 L 92.78764 269.86745 C 91.06405 276.7612 90.60329 289.75364 91.99496 294.80852 C 93.25042 299.45178 96.12564 306.12352 98.30209 309.19734 C 101.77107 314.4255 113.40123 320.5363 125.05958 323.38822 C 132.7336 325.18735 151.05784 323.0231 157.1403 319.53487 C 162.50467 316.4775 163.09395 317.0905 161.64426 324.12194 C 160.60032 328.8762 160.65063 329.9837 162.19924 335.619 C 163.13048 339.01703 164.24236 341.79322 164.66434 341.7414 C 165.08632 341.6896 165.49644 342.2389 165.60006 343.08287 C 165.79695 344.6864 173.16288 352.34877 175.01809 352.80633 C 177.05245 353.32755 176.74147 355.67877 174.5664 356.8025 C 173.43668 357.36957 172.6016 358.2431 172.6534 358.6651 C 172.71558 359.17147 171.53254 360.00207 170.14963 360.6002 C 166.39178 362.08964 166.85072 364.432 171.06751 365.28492 C 172.82796 365.66844 174.71575 365.69366 175.25471 365.19914 C 175.80403 364.789 176.54287 364.52697 176.91154 364.7387 C 177.26985 364.86605 178.88522 364.06803 180.37475 362.9428 C 181.94868 361.8072 183.7432 361.07283 184.44946 361.24312 C 186.39943 361.7747 192.94694 353.00365 193.72584 348.8816 C 194.08863 346.95237 194.81273 343.7794 195.25992 341.8398 C 195.83445 339.5419 195.75903 335.4391 195.1062 330.12216 C 194.027 322.03053 194.43124 320.43887 196.8846 322.27934 C 198.57988 323.52754 211.5264 325.7073 214.64903 325.3239 C 216.32658 325.03225 220.37757 324.53485 223.59497 324.22547 C 227.89915 323.697 230.21042 322.98486 232.50246 321.4184 C 234.3192 320.16732 236.36693 319.4019 237.32637 319.5411 C 238.29617 319.7647 240.98797 318.66316 243.6176 317.05526 C 249.3521 313.5241 259.4842 305.34093 259.3702 304.41258 C 259.3184 303.9906 260.30155 302.92753 261.643 301.9918 C 263.30134 300.84584 264.0639 299.38152 264.5022 296.672 C 264.77025 294.66872 265.34478 292.3708 265.76826 291.63347 C 267.26078 289.13717 267.99374 286.73414 268.99624 281.6423 C 269.86103 276.82437 271.35205 275.0136 272.58092 277.3471 C 272.82225 277.91714 275.28745 279.15647 277.88 280.0375 C 281.8214 281.43826 284.41544 281.63376 291.65124 281.25932 C 299.56222 280.80198 301.2294 280.42594 306.2547 278.09555 C 318.07906 272.53164 320.6465 270.41736 323.04378 264.12625 C 324.2639 260.80672 324.3187 259.85765 323.19494 257.6826 C 322.41765 256.236 321.70552 253.92474 321.53972 252.5744 C 321.37392 251.22407 320.83945 249.662 320.42933 249.1127 C 319.23006 247.7179 317.0861 249.09484 316.7751 251.44607 C 316.356 255.0099 313.76485 258.32645 311.14858 258.6477 C 308.5323 258.96892 304.27856 255.72183 303.00974 252.36523 C 302.26503 250.4863 295.02046 245.20772 293.50134 245.39425 C 293.16375 245.4357 291.2138 244.9041 289.25345 244.28813 C 287.28276 243.58775 284.87973 242.8548 283.9203 242.7156 C 282.339 242.39574 282.46633 242.03743 285.17298 238.96372 C 286.82243 237.04783 289.2226 234.26876 290.5759 232.7319 C 292.0773 231.00553 293.2115 228.3819 293.6824 225.24002 C 294.1311 222.6149 294.86406 220.21185 295.25496 219.90685 C 295.73024 219.5915 295.92275 218.3685 295.77768 217.18696 C 295.6326 216.00542 296.00576 214.16058 296.55657 213.06493 C 298.26233 209.51443 297.503 199.84151 294.74624 192.04153 C 289.2757 176.09363 279.53782 167.95147 261.2374 164.03038 C 257.1894 163.15672 253.8906 162.1054 253.84916 161.76783 C 253.7248 160.75508 256.9171 157.4504 258.17268 157.21057 C 260.19817 156.96187 264.58387 152.91098 266.87003 149.20355 C 268.3729 146.79165 269.55157 143.13454 270.0447 139.47594 C 270.49488 136.16527 271.23083 132.39118 271.7402 130.95795 C 272.75893 128.09149 272.6333 117.99809 271.53765 117.44727 C 271.169 117.23553 270.3917 115.78895 269.9416 114.21652 C 268.98816 111.3352 267.23956 110.35055 267.55044 112.88242 C 268.0064 116.59584 260.17084 121.15598 245.1735 125.9958 C 239.06294 127.85977 229.79105 138.1647 226.61937 146.52126 C 225.65395 149.12417 225.34746 149.4188 224.9181 148.01517 C 222.31092 139.34014 206.88606 127.44152 194.9212 124.88422 C 190.77845 123.93653 182.93264 123.52919 180.17867 124.12434 C 178.8387 124.37453 177.29886 124.39227 176.75103 124.11686 C 174.75961 123.24769 160.87129 127.35167 154.10329 130.83838 C 148.46501 133.75804 146.44689 135.4622 142.18554 140.52583 C 139.42559 143.86309 137.04467 147.49649 136.9262 148.62472 C 136.80772 149.75295 136.49973 150.73311 136.24654 150.7642 C 135.65577 150.83674 133.17133 148.74308 133.0988 148.15231 C 133.02626 147.56154 132.34223 146.87452 127.61617 142.57173 C 125.20577 140.38331 121.8137 138.57244 116.72336 136.88442 C 109.49354 134.51674 109.30402 134.36867 107.35117 130.32505 C 105.72404 126.84111 105.49457 125.66994 106.11055 123.7096 C 106.55625 122.45553 107.17223 120.4952 107.54389 119.33588 C 107.92592 118.26096 108.49746 117.3341 108.91944 117.28229 C 109.25702 117.24084 109.54279 116.77741 109.49098 116.35543 C 109.3459 115.17389 108.52267 115.4463 105.69168 117.50727 Z" fill="black"/>
        </g>
        <g id="Graphic_607">
          <path d="M 104.44636 122.71459 C 100.63359 130.03618 102.92231 144.49007 109.13779 152.55071 C 110.95742 154.81166 112.72525 156.65063 113.23162 156.58846 C 113.6536 156.53665 114.93876 157.23553 116.16026 158.11357 C 117.30772 159.08636 118.93046 159.7438 119.69003 159.65053 C 120.61838 159.53654 119.73447 158.61706 117.12269 156.8817 C 111.5201 153.11488 105.0352 142.85995 106.38115 139.86764 C 106.85793 138.86675 109.34536 139.58935 122.8648 145.03982 C 127.18522 146.7367 130.95482 149.52925 132.73151 152.13814 C 134.8132 155.13793 134.88275 157.09975 133.28948 162.26413 C 132.6735 164.22446 132.61421 167.23012 133.0613 170.1736 C 133.94659 175.29066 133.36469 176.13312 130.51158 173.82773 C 128.90069 172.56916 126.25483 171.95168 121.84703 171.63621 C 120.89795 171.5814 118.51564 171.01724 116.55531 170.40126 C 114.59498 169.78528 111.94912 169.1678 110.7365 169.05969 C 107.42583 168.6095 101.05642 158.5974 99.70032 151.73912 C 99.09481 148.90076 98.44635 146.41034 98.14135 146.01944 C 97.4366 145.16363 98.51473 134.40841 99.6608 131.18364 C 100.23383 129.57126 100.63808 127.9796 100.5759 127.47322 C 100.45156 126.46048 104.1873 120.6047 105.10528 120.40631 C 105.5169 120.2701 105.21927 121.33467 104.44636 122.71459 Z" fill="#FFFFFF"/>
        </g>
        <g id="Graphic_606">
          <path d="M 182.3033 126.77618 C 183.28347 127.08417 186.02558 127.09015 188.47306 126.78964 C 190.83614 126.49949 192.63954 126.53507 192.4278 126.90374 C 192.31082 127.34644 192.5951 127.56854 193.18586 127.496 C 194.4518 127.34056 204.41775 132.45633 208.18736 135.24887 C 209.69313 136.349 211.49503 137.07011 212.0547 136.74439 C 212.6144 136.41866 212.89867 136.64076 212.6973 137.09383 C 212.49592 137.5469 213.15773 138.75065 214.21043 139.64941 C 215.34753 140.53781 216.25217 141.62609 216.30398 142.04807 C 216.3558 142.47005 217.19676 143.73748 218.27018 144.80503 C 219.96397 146.73876 222.7 154.36995 222.63034 157.29121 C 222.62884 157.97674 222.67617 160.4553 222.71313 162.84947 C 222.73973 165.15924 222.42875 167.51046 222.05858 167.98426 C 221.61438 168.5528 221.42188 169.7758 221.5566 170.87294 C 221.81565 172.98283 217.4181 177.63485 212.30692 180.66113 C 209.19165 182.5 208.41874 183.87991 210.69742 183.60013 C 211.3726 183.51723 213.7268 182.45715 215.98626 181.32305 C 219.85072 179.30652 219.93512 179.29616 219.35172 180.82415 C 218.94897 181.73028 218.829 183.54404 218.97408 184.72558 C 219.31604 187.51064 220.9625 186.9658 222.10858 183.74104 C 223.30796 180.25272 229.49416 172.72537 231.43526 172.48704 C 232.02603 172.4145 232.82854 171.9733 233.27274 171.40474 C 233.6429 170.93095 237.50588 169.59996 241.9063 168.45997 C 248.80753 166.75593 250.4214 166.64344 254.1955 167.3794 C 256.65184 167.8488 260.3001 168.25754 262.45143 168.33606 C 264.51838 168.42494 266.43726 168.70334 266.72153 168.92544 C 267.0058 169.14754 268.56488 169.98412 270.27203 170.6312 C 274.05498 172.13707 281.07745 177.69992 283.15914 180.6997 C 284.0001 181.96714 285.53696 183.32046 286.5275 183.71285 C 287.518 184.10524 288.20205 184.79226 288.01104 185.32972 C 287.53425 186.33061 290.19037 191.91558 290.88775 191.31594 C 291.1202 191.11606 291.64283 193.27926 291.99515 196.14872 C 292.34748 199.01817 292.85673 202.46803 293.1173 203.8924 C 293.79534 207.32153 293.51384 215.49456 292.6654 217.65477 C 292.273 218.6453 291.47638 221.22749 290.7227 223.46173 C 289.3308 228.17304 285.29893 234.40785 283.6954 234.60474 C 283.02025 234.68764 282.55532 235.0874 282.59677 235.42498 C 282.6486 235.84696 281.08502 237.06695 279.0891 238.25437 C 277.08285 239.3574 275.5193 240.57739 275.5711 240.99936 C 275.61255 241.33695 275.2957 241.5472 274.84262 241.3458 C 274.3792 241.06004 273.9039 241.3754 273.7973 241.9025 C 273.69068 242.4296 271.14695 243.3416 268.0554 243.9782 C 263.2863 244.90645 261.82047 244.82943 257.53114 243.38573 C 252.7991 241.82505 246.85007 237.32975 246.58064 235.13546 C 246.5081 234.5447 245.85516 234.11085 245.18 234.19375 C 242.31054 234.54608 246.06967 242.1373 249.36997 242.5031 C 250.24502 242.65266 251.03417 243.4981 251.15852 244.51086 C 251.3554 246.11438 251.03855 246.32462 247.93813 246.1913 C 244.15218 246.05647 240.35288 247.2083 240.50832 248.47425 C 240.5705 248.98062 241.6247 249.19386 242.97502 249.02806 C 247.3636 248.4892 251.53744 249.69008 255.41217 252.64105 C 257.57088 254.17502 259.40237 255.83484 259.46455 256.3412 C 259.51636 256.7632 260.0849 257.2074 260.79116 257.37768 C 261.49742 257.54797 262.8003 259.7867 263.61756 262.2564 C 264.99 266.45695 265.3216 269.1576 265.9224 283.81875 C 266.0349 285.43263 265.63066 287.0243 265.145 287.25525 C 264.57497 287.49658 264.21516 288.05477 264.26698 288.47675 C 264.4017 289.5739 259.0728 295.71095 256.6016 297.21373 C 253.5811 299.12663 253.9068 299.6863 257.48402 298.81874 C 260.05883 298.15992 260.41714 298.28726 260.32975 299.6687 C 260.2646 300.53336 259.55534 301.73413 258.68917 302.3545 C 257.81263 302.89046 255.8789 304.58425 254.42045 305.96268 C 249.3581 310.782 237.08803 317.6 231.549 318.5371 C 227.10712 319.3395 222.86362 321.0599 222.9776 321.98824 C 223.03978 322.4946 222.50232 322.3036 221.80792 321.53218 C 220.72413 320.38023 219.7647 320.24103 216.78862 321.12046 C 213.97098 321.89476 211.73524 321.8266 207.06538 320.7723 C 203.71327 319.98453 200.3197 318.85918 199.3825 318.20324 C 198.44527 317.5473 196.30579 316.86766 194.6401 316.55817 C 190.71794 316.01173 183.06624 308.81278 181.76783 304.51746 C 181.31776 302.94503 180.65744 301.05574 180.32135 300.41167 C 179.90087 299.77795 179.70249 298.85996 179.74543 298.512 C 179.78838 298.16407 179.50122 294.42993 179.17261 290.3582 C 178.46209 282.47833 178.58943 282.12002 182.94703 276.4449 C 184.93556 273.80203 185.82246 273.35045 188.38542 273.29277 C 191.1379 273.38315 191.28596 273.19363 190.25548 271.77813 C 189.11988 270.2042 188.31887 269.9599 185.49086 270.6498 C 183.65488 271.04656 181.847 273.06757 182.0128 274.4179 C 182.07497 274.92427 181.62041 275.40843 180.94525 275.49133 C 180.27008 275.57423 179.66745 276.2479 179.41277 276.9645 C 178.95522 278.81972 177.41537 278.83745 177.1874 276.98075 C 176.96978 275.20844 174.14926 272.4707 172.12526 272.03388 C 170.2804 271.66072 169.79914 274.7182 171.56846 275.87164 C 172.31616 276.3795 172.7781 277.3508 172.6078 278.05706 C 172.43752 278.7633 172.73066 279.75534 173.30957 280.28393 C 174.08836 281.045 174.12682 282.75363 173.3805 286.44332 C 172.78375 289.25797 172.68301 291.92605 173.1568 292.2962 C 174.4301 293.59623 172.63985 302.04018 170.57878 304.09228 C 169.58526 305.07095 168.79162 306.28208 168.8538 306.78845 C 168.91597 307.29483 167.09772 309.23144 164.7731 311.23023 C 161.59266 313.93377 159.01635 315.27812 153.56022 316.8904 C 145.4656 319.34065 132.92323 320.45232 129.06624 319.0412 C 127.7174 318.52147 125.96732 318.22235 125.12336 318.32597 C 124.2794 318.4296 121.15975 317.44195 118.17781 316.1804 C 115.19586 314.91884 111.95037 313.60398 110.9702 313.296 C 106.76527 311.84192 99.76951 303.70575 97.39917 297.65735 C 95.37527 292.33743 93.66845 277.0411 94.89593 275.177 C 95.31941 274.43967 95.64962 272.94277 95.5993 271.83526 C 95.44536 269.8838 97.63527 266.78787 104.52773 259.4308 C 107.4772 256.2416 112.692 254.0593 116.3506 254.55242 C 117.5736 254.74493 118.88248 254.24154 119.78124 253.18884 C 120.82806 251.94662 121.32408 251.80005 121.68089 252.61292 C 121.99625 253.0882 122.6181 253.26886 123.08303 252.8691 C 125.18555 251.1546 133.27867 249.38986 134.09891 250.4885 C 134.48831 250.86903 135.08944 250.8809 135.56473 250.56553 C 136.02965 250.16577 137.29409 250.69586 138.27276 251.68938 C 139.33583 252.67254 139.89401 253.03234 139.4839 252.48302 C 138.43269 250.89873 140.26717 251.1875 141.76108 252.88876 C 142.55023 253.7342 144.08858 254.402 145.28049 254.34133 C 150.66995 254.27926 145.57085 246.93822 139.78163 246.53537 C 137.45113 246.39318 137.33565 246.15035 137.4897 243.21872 C 137.62003 241.48936 137.9088 239.65487 138.19456 239.19145 C 139.32728 237.25334 139.14375 234.36316 137.87044 233.06314 C 136.3869 231.44627 136.21661 232.15252 136.77907 240.22193 C 137.08695 244.12485 133.53934 245.93114 120.19146 248.85507 L 108.9224 251.26675 L 104.0956 249.63204 C 94.2525 246.21455 89.18 241.18328 84.51036 230.3628 C 80.785305 221.65369 79.81561 216.547 80.3488 209.0284 C 80.90122 202.36414 81.01083 200.46599 80.93092 198.41977 C 80.8273 197.5758 81.71569 196.4387 82.84542 195.87166 C 83.97515 195.3046 84.78951 194.26226 84.69625 193.5027 C 84.61335 192.82754 85.40699 191.6164 86.52636 190.96496 C 87.64572 190.3135 88.46009 189.27117 88.37719 188.596 C 88.14921 186.7393 91.94413 182.76095 94.13842 182.49152 C 95.23557 182.35681 96.12247 181.90524 96.07066 181.48326 C 96.01884 181.06128 96.63184 180.472 97.45507 180.1996 C 99.81964 179.22392 99.97807 179.1188 102.62842 177.67969 C 106.40849 175.67353 122.89524 174.59156 127.02614 176.14038 C 128.72293 176.70306 130.83132 177.12952 131.75967 177.01553 C 133.86957 176.75647 135.23763 178.13052 139.7371 184.77417 C 143.21644 190.08672 143.2268 190.17112 142.58411 194.70477 C 142.29385 197.22478 142.12058 199.3021 142.3101 199.45016 C 142.889 199.97875 145.59715 196.2195 145.98067 194.45906 C 146.29015 192.79337 146.8602 192.55204 151.11107 192.2871 C 158.42091 191.8179 163.29663 190.36256 162.6674 188.72646 C 162.40535 187.98762 161.67837 187.64854 161.02393 187.90024 C 155.3768 190.04997 153.74219 189.99367 149.11826 187.22037 C 146.52721 185.6538 144.1479 183.71859 143.69632 182.83168 C 143.32915 181.93442 141.87818 179.8852 140.4894 178.34236 C 137.10182 174.4749 135.29564 166.0442 136.78229 161.40693 C 137.419 159.61539 137.93136 156.8111 137.98765 155.1765 C 138.05432 153.62628 138.39489 152.21378 138.64808 152.18269 C 138.98566 152.14124 139.90664 150.5718 140.61738 148.6855 C 141.42288 146.87324 142.90504 144.29255 143.95187 143.05033 C 144.9987 141.80811 145.61318 140.53331 145.40294 140.21645 C 144.69818 139.36064 157.32955 131.29893 161.45607 130.02124 C 161.95209 129.87467 162.99742 129.31798 163.7792 128.70798 C 165.42716 127.47762 179.73148 126.06394 182.3033 126.77618 Z" fill="#FFFFFF"/>
        </g>
        <g id="Graphic_605">
          <path d="M 268.99083 124.61343 L 268.99083 124.61343 C 269.03826 122.2089 268.8636 120.08864 268.49492 119.8769 C 267.54734 119.13657 265.88902 120.28254 266.05482 121.63287 C 266.27243 123.40518 263.99353 133.45115 262.8593 136.07479 C 261.51336 139.0671 256.066 146.33239 255.13764 146.44638 C 254.71566 146.49819 253.94424 147.19258 253.35198 147.95065 C 251.4271 150.41436 250.6587 149.7377 250.76242 145.69856 C 250.75654 143.55758 250.4649 141.88003 250.05328 142.01624 C 246.33838 143.15772 243.10474 141.24172 244.88154 138.96753 C 246.1401 137.35664 250.7137 139.02244 252.24757 141.74682 C 253.00414 143.02461 253.8984 144.0285 254.236 143.98704 C 255.33314 143.85233 260.02095 136.6803 260.93456 133.65541 C 261.41284 131.96899 261.95628 129.41789 262.0333 127.95208 L 262.1237 125.1996 L 256.521 126.31587 C 253.17625 126.98355 250.64288 127.97996 250.135 128.72766 C 249.71154 129.465 248.65584 129.9373 247.93923 129.68261 C 247.14858 129.52269 245.4488 130.33107 244.21246 131.42522 C 242.98648 132.60377 241.63465 133.4551 241.2023 133.42251 C 240.844 133.29517 238.27506 136.09497 235.52547 139.51663 C 231.8238 144.25454 230.56375 146.55096 230.3579 149.0606 C 230.269 151.12755 229.66488 152.48675 228.68322 152.86429 C 227.78596 153.23146 227.18333 153.90513 227.25587 154.4959 C 227.4912 157.80806 227.1002 162.99615 226.16288 167.2233 C 225.6298 169.8588 225.1604 172.31514 225.19148 172.56833 C 225.23293 172.90591 227.31323 171.70814 229.8481 170.0262 C 232.29856 168.35464 236.90186 166.07606 240.026 165.00712 C 243.15014 163.93818 246.22246 162.44726 246.89912 161.67883 C 247.57578 160.9104 249.08604 159.95396 250.31052 159.46094 C 253.99434 158.06627 262.63102 148.86736 264.57073 144.43146 C 266.81843 139.01539 268.87374 129.93922 268.99083 124.61343 Z M 240.1478 147.85856 L 240.1478 147.85856 C 239.868 145.57987 240.57575 145.06463 242.37616 146.47126 C 243.13422 147.06353 243.725 146.991 244.56008 146.11744 C 245.1627 145.44377 246.14437 145.06624 246.6922 145.34164 C 248.77837 146.28485 248.08376 155.27961 245.83467 156.49811 C 245.03216 156.93932 244.84265 156.79126 245.09733 156.07464 C 245.4364 155.34766 245.17286 155.29435 244.0535 155.9458 C 241.3291 157.47967 238.91273 158.03337 236.65626 157.79642 C 232.99766 157.30329 234.04448 156.06107 238.0629 155.99601 C 241.32174 156.02422 242.1346 155.6674 243.76334 153.58272 C 246.05837 150.64522 245.9992 148.76779 243.64797 148.4568 C 242.68853 148.3176 242.11848 148.55894 242.50788 148.93946 C 242.81288 149.33036 242.43235 149.71975 241.75718 149.80265 C 240.91323 149.90628 240.3136 149.20889 240.1478 147.85856 Z" fill="#FFFFFF"/>
        </g>
        <g id="Graphic_604">
          <path d="M 82.50687 239.86094 C 83.06505 240.22074 83.67505 241.00252 83.74759 241.5933 C 83.82013 242.18406 84.52488 243.03988 85.27259 243.54775 C 86.10469 244.04525 86.52517 244.67897 86.38746 244.95288 C 86.155 245.15276 88.25004 246.8659 91.04098 248.6649 C 93.84227 250.54832 96.1905 252.23036 96.23195 252.56794 C 96.2734 252.90552 94.58399 253.7983 92.45188 254.5741 C 89.09528 255.84292 83.17722 256.4839 74.03289 256.66433 C 71.63873 256.7013 71.59279 258.4203 74.03877 258.8053 C 78.14008 259.41542 90.49443 257.47015 94.37963 255.62242 C 98.09603 253.79542 104.03482 253.32323 104.2317 254.92675 C 104.27315 255.26433 102.70959 256.48433 100.70332 257.58735 C 98.20104 258.83694 97.14385 259.99476 97.2682 261.0075 C 97.47545 262.69542 94.7703 265.0836 93.86567 263.99533 C 93.56067 263.60444 91.41819 264.29584 89.0847 265.5247 C 85.62149 267.32063 83.78551 267.7174 78.92314 267.88607 C 70.970716 268.00583 68.2301 267.31432 62.7963 263.52677 L 58.21532 260.4055 L 61.81037 256.1947 C 66.0184 251.39462 70.13606 249.347 77.33042 248.635 C 83.00565 248.1095 85.54938 247.1975 84.72914 246.09885 C 83.62463 244.7781 71.96616 246.80926 66.36047 249.29658 C 61.97927 251.2909 60.18324 252.71076 56.99981 256.78536 C 52.33572 262.75513 49.482504 265.33283 46.664863 266.10713 C 44.75485 266.59866 44.64973 266.44023 44.84523 263.84618 C 45.02 261.08335 49.435395 253.08808 50.87012 252.91192 C 51.2921 252.8601 51.70521 252.03837 51.93917 251.15297 C 52.08873 250.27792 53.36802 248.83582 54.81461 248.05853 C 56.26119 247.28123 58.23637 245.92503 59.32465 245.0204 C 64.44918 240.70745 78.62028 237.5111 82.50687 239.86094 Z" fill="#FFFFFF"/>
        </g>
        <g id="Graphic_603">
          <path d="M 257.765 247.3834 C 257.44664 248.27918 252.25118 246.43273 252.11646 245.3356 C 252.06465 244.9136 253.36167 245.01136 255.06882 245.65843 C 256.7656 246.2211 257.97673 247.01474 257.765 247.3834 Z" fill="#FFFFFF"/>
        </g>
        <g id="Graphic_602">
          <path d="M 277.176 245.00004 L 277.176 245.00004 C 274.74188 244.0139 274.91067 243.99317 273.0717 245.761 C 272.31064 246.53978 271.03285 247.29635 270.1889 247.39997 C 269.26054 247.51396 268.98513 248.0618 269.45743 249.11748 C 269.81424 249.93035 269.75944 250.87943 269.36855 251.18443 C 268.4387 251.98394 261.21923 249.70066 261.07416 248.51912 C 261.02235 248.09715 260.37976 247.7477 259.7046 247.8306 C 257.9323 248.04822 258.3187 249.7998 260.23757 250.0782 C 262.24085 250.34624 268.61026 260.35835 269.78133 265.01197 C 270.2092 267.10113 270.9228 268.72687 271.2604 268.68542 C 271.51358 268.65434 271.8704 269.4672 271.98438 270.39556 C 272.23158 273.10658 277.83567 276.18788 284.0987 276.9609 C 290.1929 277.75465 300.80604 276.2802 306.84407 273.82545 C 311.4992 271.96885 317.50913 267.88987 318.94834 265.65713 C 320.3772 263.33998 320.7075 256.96 319.3483 256.35587 C 317.89436 255.6777 315.62005 258.784 315.6037 261.44172 C 315.58 262.644 315.43043 263.51903 315.14616 263.29693 C 314.86188 263.07483 313.5515 264.26374 312.2189 265.9694 C 310.1993 268.35907 308.8371 269.126 304.5951 270.16086 C 301.7671 270.85077 298.35867 271.6976 296.94467 272.04256 C 295.61507 272.37715 294.2233 272.20537 293.82353 271.74045 C 293.2239 271.04306 292.8019 271.09487 291.9772 272.05282 C 291.0577 272.93673 289.97092 273.15584 287.43018 272.6968 C 283.6768 272.12963 280.30547 270.48754 281.0458 269.53996 C 281.63807 268.7819 279.76513 266.7845 278.5836 266.92957 C 278.0772 266.99174 278.31854 267.5618 279.00258 268.2488 C 280.1604 269.306 280.09673 269.48516 278.6309 269.40813 C 276.90155 269.2778 274.98128 264.80183 276.5848 264.60495 C 277.00678 264.55313 279.70445 265.5926 282.602 266.8645 C 290.66243 270.41522 299.92373 269.79208 306.7258 265.1875 C 309.8944 263.0851 310.85683 261.85323 308.88314 262.5239 C 306.48748 263.2464 302.13747 260.6108 300.36227 257.31637 C 299.36438 255.46853 297.4189 252.88036 296.04047 251.42192 C 293.30434 248.67382 285.20097 245.47106 281.54086 245.66346 C 280.18017 245.74486 278.2613 245.46646 277.176 245.00004 Z M 270.06294 251.95585 L 270.06294 251.95585 C 269.8764 250.43672 270.9943 250.4708 273.3425 252.15284 C 274.46925 252.95684 275.57526 253.59206 275.91284 253.5506 C 276.25043 253.50916 278.5883 255.1068 281.07273 257.20045 C 287.25274 262.1814 285.03772 262.28204 278.2566 257.28923 C 277.31937 256.6333 276.3925 256.06175 276.13932 256.09284 C 274.95778 256.2379 270.1873 252.9686 270.06294 251.95585 Z" fill="#FFFFFF"/>
        </g>
        <g id="Graphic_601">
          <path d="M 176.9247 305.54047 L 176.9247 305.54047 C 175.6781 301.66713 173.85248 302.1483 172.8722 306.7234 C 172.6486 307.6932 171.73949 308.6615 170.84222 309.02868 C 169.94495 309.39585 169.24757 309.9955 169.29938 310.41747 C 169.34083 310.75505 168.33545 312.33485 167.06653 313.86135 C 164.14814 317.30373 163.00196 325.4116 164.73271 329.7395 C 170.24033 343.19846 175.49487 351.80544 178.33174 351.88545 C 181.1686 351.96547 183.93017 343.0596 183.32327 336.02366 C 183.03461 332.97505 182.7874 330.26403 182.82 329.8317 C 182.77854 329.4941 183.08504 329.19947 183.50702 329.14765 C 186.03889 328.83678 186.79962 342.70726 184.60373 348.5453 C 184.084 349.89414 183.7538 351.39105 183.81596 351.8974 C 183.87814 352.4038 183.40136 353.4047 182.79873 354.07835 C 180.67399 356.3096 182.43593 356.0076 185.06705 353.71417 C 189.23064 349.94756 191.0178 347.75776 190.4078 346.97598 C 190.1028 346.5851 190.17833 345.8048 190.52777 345.1622 C 191.45912 343.67717 191.58219 335.60927 190.73834 330.8298 C 189.63393 324.62597 186.54697 318.3229 183.08387 315.2357 C 181.2731 313.7447 179.73774 311.70584 179.63411 310.8619 C 179.52013 309.93353 179.06856 309.04663 178.6155 308.84525 C 178.16242 308.64388 177.37477 307.1129 176.9247 305.54047 Z M 172.74775 310.59374 L 172.74775 310.59374 C 174.65188 307.96123 175.51208 310.083 174.9508 315.97733 C 174.50948 320.0579 174.6427 321.8406 175.41112 322.51725 C 176.17955 323.1939 176.10552 323.28867 175.19938 322.8859 C 174.1141 322.4195 174.17478 323.6114 175.42576 330.31124 C 176.31255 334.74277 177.13717 338.6679 177.26302 338.99513 C 177.48362 339.3964 177.2926 339.93385 176.81732 340.2492 C 174.52528 341.81566 170.63187 313.5949 172.74775 310.59374 Z" fill="#FFFFFF"/>
        </g>
        <g id="Graphic_600">
          <path d="M 173.4787 197.93617 C 166.7981 200.04147 159.88053 204.40323 157.34118 208.14174 C 156.24104 209.6475 155.40446 211.20659 155.43554 211.45977 C 155.46663 211.71296 154.66263 212.8397 153.6691 213.81837 C 150.54048 216.9439 149.77782 223.2913 151.4966 233.10342 C 153.3501 244.0127 154.61893 247.3693 158.59578 251.84974 C 161.79384 255.56913 169.01768 260.67892 170.6212 260.48203 C 171.12757 260.41986 172.04407 260.907 172.7281 261.59402 C 175.32802 263.9305 179.31385 264.2978 188.74544 262.9684 C 196.2463 261.96174 198.73672 261.31328 201.92602 259.37966 C 203.99596 258.0975 206.1177 257.2373 206.57078 257.43867 C 207.02384 257.64004 207.33034 257.3454 207.27852 256.92343 C 207.21635 256.41705 208.3683 255.33326 209.80452 254.47157 C 213.16261 252.51722 218.3272 244.3443 215.96413 244.63445 C 215.54215 244.68627 215.32154 244.285 215.52292 243.83195 C 215.79833 243.28412 216.70595 243.00134 217.581 243.1509 C 219.3311 243.45003 219.92635 241.3209 219.36677 236.76354 C 219.1906 235.3288 219.4468 233.92667 219.84804 233.70607 C 220.3337 233.4751 220.70685 231.63025 220.70097 229.48927 C 220.70546 227.4327 220.8047 225.45014 221.00608 224.99707 C 221.21782 224.6284 220.59895 223.0767 219.71654 221.47168 C 218.74972 219.87703 218.04646 218.3357 218.0894 217.98774 C 218.25083 216.51157 215.92044 211.48628 214.46798 210.1226 C 213.59443 209.2875 211.73185 207.3745 210.4171 205.7369 C 209.1127 204.1837 206.8385 202.4069 205.4793 201.80278 C 204.1201 201.19866 202.90898 200.40502 202.8468 199.89864 C 202.795 199.47666 202.33156 199.1909 201.8252 199.25307 C 201.31881 199.31524 199.65312 199.00576 198.14586 198.59115 C 195.38452 197.73085 180.06456 195.75684 179.2517 196.11365 C 179.00887 196.22913 176.45477 197.05674 173.4787 197.93617 Z" fill="black"/>
        </g>
        <g id="Graphic_599">
          <path d="M 188.96745 199.88945 C 189.77882 200.21817 193.5307 201.47086 197.19817 202.7339 C 203.09988 204.75065 204.40577 205.61832 207.72968 209.66494 C 214.262 217.51534 216.46057 224.95551 215.23587 235.21472 C 213.62615 247.9199 204.51868 255.3776 187.92381 257.6722 C 178.39746 258.92755 175.57245 258.2464 167.9903 253.00927 C 162.1982 249.09438 156.53204 240.6236 155.133 234.1133 C 153.24392 225.00742 153.1152 221.16816 154.73207 219.68461 C 155.58788 218.97986 156.20237 217.70505 156.1091 216.9455 C 156.01584 216.18593 156.9176 213.76217 158.10362 211.56051 C 160.221 207.8738 165.30258 203.90882 170.12649 202.0315 C 173.07147 200.89888 187.35507 199.31642 188.96745 199.88945 Z" fill="#FFFFFF"/>
        </g>
      </g>
    </g>
  </g>
</svg>
