<?xml version="1.0" encoding="UTF-8" standalone="no"?>
<!DOCTYPE svg PUBLIC "-//W3C//DTD SVG 1.1//EN" "http://www.w3.org/Graphics/SVG/1.1/DTD/svg11.dtd">
<svg xmlns="http://www.w3.org/2000/svg" xmlns:xl="http://www.w3.org/1999/xlink" version="1.1" xmlns:dc="http://purl.org/dc/elements/1.1/" viewBox="36 63 292.5 351" width="292.5" height="351">
  <defs>
    <clipPath id="artboard_clip_path">
      <path d="M 36 63 L 328.5 63 L 328.5 360 L 288 414 L 36 414 Z"/>
    </clipPath>
  </defs>
  <g id="Rowan_Berries,_Cluster_of_(1)" stroke-opacity="1" fill="none" fill-opacity="1" stroke-dasharray="none" stroke="none">
    <title>Rowan Berries, Cluster of (1)</title>
    <g id="Rowan_Berries,_Cluster_of_(1)_Art" clip-path="url(#artboard_clip_path)">
      <title>Art</title>
      <g id="Group_53">
        <g id="Graphic_134">
          <path d="M 290.35635 82.62837 C 287.41213 83.41677 285.08888 82.21158 283.77412 79.15357 C 282.51333 76.37321 279.7138 76.05297 278.09213 78.45718 C 276.91782 80.19816 275.72433 80.35812 271.31873 79.55769 C 261.06728 77.5885 247.553 84.03322 247.90543 90.66389 C 247.98444 91.4409 247.89373 92.82719 247.58325 93.82398 C 247.15898 95.34713 246.91027 95.17938 244.71055 91.64508 C 243.36296 89.5299 240.3303 86.15751 237.98397 84.09239 C 232.68398 79.43191 227.47437 78.57167 218.69764 80.853965 C 212.86512 82.34786 212.6434 82.31893 212.04583 79.98592 C 211.28637 76.819975 208.9862 76.47471 208.02776 79.32627 C 207.5206 80.7935 205.54618 81.75356 200.992 82.78287 C 194.43839 84.27287 192.85151 85.3737 193.33723 87.87252 C 193.5531 88.9831 192.51958 90.33655 189.98403 92.48619 C 186.8623 95.32605 186.19127 96.3209 185.02834 101.0851 C 182.82019 109.36604 183.8144 120.41012 186.90881 122.61796 C 187.57204 123.06531 188.31428 124.28968 188.47618 125.12262 C 188.71904 126.37203 191.6457 128.82858 197.28317 132.63109 C 201.92578 135.76257 205.9861 138.86316 206.25986 139.5303 C 206.5336 140.19743 205.91069 142.55157 204.81734 144.70901 C 202.23725 149.96479 200.77912 158.0279 201.47097 163.44005 C 201.87378 165.88295 201.83315 168.26797 201.49763 168.7654 C 200.43517 170.34057 200.91666 178.747 202.20834 180.94509 C 203.55593 183.06027 203.50001 183.14317 193.94172 196.59862 C 188.26883 204.47252 183.4848 212.10162 182.24873 215.00715 C 179.41018 221.89792 171.40592 235.19535 170.49398 234.58024 C 169.00171 233.5737 164.19198 220.31788 163.9358 216.4058 C 163.80867 214.2695 162.72734 209.07712 161.41844 204.93746 C 159.89365 199.68722 159.57569 196.9397 160.52437 195.89088 C 161.3612 195.00787 162.5547 194.84791 163.54954 195.51894 C 166.28536 197.36428 174.66124 192.27854 181.33091 184.71511 C 186.29798 179.13943 187.1657 177.67414 188.69113 172.55134 C 191.06314 164.74279 191.16945 160.4721 189.37092 154.55474 C 187.87117 149.80387 181.56886 140.72803 178.0869 138.37942 C 174.43913 135.91897 166.21216 133.98846 162.76857 134.8019 C 160.90795 135.2356 157.52418 135.24503 155.41875 134.78987 C 153.09159 134.30578 149.98351 134.6218 147.78738 135.55292 C 144.81228 136.9236 144.00827 136.86378 143.5996 135.50253 C 142.67433 132.22475 145.79606 129.38488 151.5707 128.33444 C 158.59476 127.04114 165.36263 121.83575 172.95985 112.00304 L 178.7696 104.4627 L 179.1152 96.97601 C 179.69616 86.9944 177.4155 83.04363 166.88671 75.941885 C 160.0057 71.30058 158.98192 70.85128 153.68551 70.65622 C 150.05303 70.49789 145.41595 71.47128 140.66313 73.33158 C 133.38061 76.259875 131.20561 78.41147 129.89801 84.28431 C 129.49683 86.66738 120.69116 89.17141 117.06452 87.93143 C 115.29266 87.3394 112.9616 87.57641 111.0701 88.59239 C 109.37334 89.49848 106.42717 90.64743 104.45471 91.24694 C 102.62108 91.81946 99.08678 94.01918 96.69005 96.14184 C 92.56568 99.75287 92.28608 100.16739 91.51069 105.07236 C 89.96186 114.52176 91.12414 120.1306 95.75115 126.14648 C 98.12057 129.07152 100.71172 132.02549 101.62367 132.6406 C 104.44239 134.54186 103.18714 135.86637 98.80657 135.56532 C 96.17283 135.35692 94.56677 134.87673 94.7924 134.18457 C 95.61201 131.35999 91.05067 123.45846 85.77962 118.57624 C 80.95007 114.11245 79.8164 113.4684 74.74757 112.22063 C 64.41516 109.83496 53.241696 114.23992 45.25694 123.93186 C 40.25899 130.08982 39.52814 131.88867 37.97346 142.41972 C 37.36778 146.71543 39.96251 154.13482 42.01592 153.95178 C 42.93176 153.8458 43.78193 155.62546 44.400624 159.17894 C 44.884394 162.0383 46.1972 165.45686 47.43881 166.6562 C 49.81018 169.22069 49.99517 170.91355 47.88389 171.54004 C 46.995034 171.78485 45.184483 173.2173 43.73448 174.6517 C 41.391723 177.052 41.052307 178.27053 40.96518 184.12223 C 40.941777 188.44883 41.61639 191.9194 42.937 193.89576 C 44.064815 195.62146 46.01387 199.34855 47.35756 202.18483 C 48.91908 205.77115 50.73711 208.08302 52.89261 209.53692 C 54.71649 210.76715 60.105236 214.4019 64.99656 217.70114 L 73.81134 223.7674 L 77.97798 222.59732 C 80.17217 222.02675 83.39403 221.18438 84.92109 220.88755 C 91.19706 219.45152 99.06965 215.1119 102.5308 211.05353 C 106.82878 206.11214 109.9219 198.30748 110.06494 192.37288 C 110.20604 186.79882 113.17171 182.04437 116.2489 182.31064 C 119.18727 182.60389 125.45902 187.07548 130.69919 192.53997 C 135.11227 197.08471 138.26814 203.31452 143.18776 216.76507 C 144.58152 220.6001 146.03315 223.99167 146.44767 224.27127 C 146.80627 224.63377 147.62555 226.9957 148.333 229.52346 C 149.88087 235.63362 152.33677 243.08 153.40672 245.24915 C 153.87326 246.16694 154.22796 247.25054 154.253 247.7499 C 154.33395 248.16638 155.4751 252.55475 156.7801 257.4155 C 158.16801 262.3322 160.87426 274.7723 162.81519 285.1281 C 164.81204 295.401 168.0427 308.31545 170.09384 313.67948 C 172.08906 319.1264 174.33104 325.10166 175.01345 327.13003 C 176.35324 330.6874 174.65942 346.43197 171.94409 356.18015 C 168.88934 367.14685 167.17113 372.019 164.67784 376.60958 C 161.62341 382.38976 159.95885 392.72606 161.57433 396.59 C 162.20473 397.9802 164.87293 402.07174 167.599 405.71983 C 173.54662 413.71207 175.04279 413.9975 178.2939 407.7469 C 180.28392 403.90244 182.73494 396.8709 184.06952 391.1369 C 184.38195 389.77954 185.22464 387.8149 185.9516 386.73714 C 186.73446 385.5765 187.80278 382.91967 188.25793 380.81424 C 188.769 378.6259 190.31752 374.36303 191.66543 371.2917 C 194.61582 364.2351 197.46608 355.18105 197.36594 353.18356 C 197.31977 351.4637 202.4585 344.9182 207.11313 340.69988 C 208.75787 339.1556 214.99158 335.27862 220.86083 332.1208 C 226.786 328.88007 232.3217 325.8591 233.2395 325.3926 C 239.08176 322.09593 243.25425 319.8442 246.73068 318.08794 L 250.6525 316.029 L 250.60276 309.84373 C 250.59333 306.45996 249.83971 302.21236 248.98954 300.4327 C 247.482 297.12403 247.482 297.12403 244.53778 297.91243 C 243.0377 298.34808 241.5087 299.00546 241.2291 299.41998 C 240.27848 300.82934 222.38722 311.43843 217.21598 313.74023 C 215.40933 314.4516 211.85 316.15192 209.37427 317.49757 C 203.95042 320.3527 196.83955 322.3112 195.5131 321.4165 C 195.01567 321.08097 194.55304 319.44208 194.58977 317.77815 C 194.6265 316.11423 194.16387 314.47533 193.58355 314.0839 C 193.00322 313.69246 191.42252 308.52513 190.15035 302.72154 C 188.79527 296.86204 187.46328 291.86246 187.13167 291.6388 C 186.80005 291.4151 185.72457 285.1411 184.71087 277.7025 C 183.75308 270.18103 182.6854 262.4648 182.36354 260.43838 C 182.12458 258.46788 182.16326 256.4434 182.49878 255.94598 C 182.8343 255.44856 183.32034 252.76085 183.50175 249.9883 C 183.74493 246.05118 185.01189 242.56337 189.4682 233.9895 C 197.09273 219.10908 206.54309 205.09835 210.3261 203.0664 C 211.82811 202.2702 213.63866 200.83774 214.25378 199.9258 C 215.37216 198.26773 223.2581 196.59079 224.91617 197.70917 C 225.4136 198.0447 228.57563 198.00632 231.87845 197.58042 C 238.6229 196.70164 240.25595 197.32065 240.8727 201.23468 C 241.35647 204.09405 246.45 211.02772 249.76616 213.2645 C 253.91135 216.06045 268.14803 219.63213 274.74977 219.50143 C 282.57198 219.3496 289.06772 218.30305 292.40533 216.57377 C 293.90735 215.77757 297.006 212.07779 300.86442 206.35743 L 306.9307 197.54264 L 305.5236 191.04495 C 304.822 187.43555 304.4231 184.27155 304.7027 183.85703 C 304.92636 183.52542 304.57166 182.44182 303.82748 181.578 C 302.20224 179.51678 303.34956 177.63698 306.28988 177.56968 C 314.972 177.39476 325.75663 162.83653 325.45654 151.65754 C 325.41622 148.85604 325.62657 145.86176 325.79823 144.89195 C 326.9592 140.4883 319.11845 128.68606 311.79594 123.62634 C 310.30367 122.6198 307.06457 121.5206 304.62558 121.20231 C 302.13066 120.96693 300.05417 120.29005 299.7515 119.84464 C 299.50473 119.31634 300.23753 117.15694 301.27496 115.0824 C 302.87354 111.81826 302.91027 110.15434 301.5513 105.01593 C 300.5181 101.18286 298.48808 97.0393 296.11866 94.11426 C 292.61947 89.82408 292.51153 89.26879 294.15627 87.7245 C 297.278 84.88464 294.74472 81.48722 290.35635 82.62837 Z M 221.28788 160.88465 L 221.28788 160.88465 C 223.2158 163.39127 225.28254 165.8709 225.75103 166.42814 C 226.7709 167.59855 221.12696 175.25073 218.76697 175.70946 C 217.7952 175.89835 216.76558 176.5307 216.37414 177.11102 C 214.97616 179.18362 213.2989 176.4842 212.66298 170.98916 C 211.89213 164.79999 212.88566 155.45853 214.56324 152.97142 C 215.5698 151.47915 215.7356 151.59099 216.74963 153.84304 C 217.29712 155.1773 219.35996 158.37803 221.28788 160.88465 Z M 242.00016 177.38832 L 242.00016 177.38832 C 241.7456 178.30221 241.0437 179.87934 240.31674 180.95708 C 239.58978 182.03483 239.22143 183.47508 239.4682 184.0034 C 240.39932 186.19952 237.86572 187.98862 232.09107 189.03907 C 226.7329 190.00856 219.47377 188.61025 220.64808 186.86927 C 220.92768 186.45476 224.7936 184.47872 229.15887 182.47765 C 233.52416 180.47657 238.00323 177.94914 239.14665 176.79044 C 241.32165 174.63885 242.5961 174.89536 242.00016 177.38832 Z M 128.53327 172.50328 L 129.9693 178.77925 L 127.33946 177.84976 C 123.574 176.63677 122.64093 174.80118 123.90594 171.67392 C 124.55194 170.1797 124.57526 168.69853 124.70246 167.98942 C 124.73966 167.39094 125.13351 166.10431 125.62908 164.77697 C 125.62072 164.60012 125.61518 164.40258 125.61261 164.1832 C 125.55922 159.6262 124.54868 160.52776 122.62498 152.11353 C 121.83853 148.80876 121.42596 148.16861 117.7031 144.21004 C 116.60031 142.98372 115.94098 141.81527 116.16466 141.48365 C 116.44426 141.06913 117.88645 141.07693 119.54843 141.47422 C 122.48485 142.12802 124.86012 143.9714 129.37919 149.43199 C 131.61174 152.02346 131.71773 152.9393 130.56846 155.17966 C 129.78364 156.70086 128.82911 158.83132 128.40679 159.99392 C 128.17635 160.62831 127.9479 161.28938 127.72675 161.9314 C 127.67883 162.24355 127.60902 162.6222 127.51445 163.07463 C 127.58186 165.98357 127.77575 168.97679 128.53327 172.50328 Z" fill="black"/>
        </g>
        <g id="Graphic_133">
          <path d="M 293.8741 98.87261 C 297.87038 108.68483 297.88176 111.70805 293.9674 117.51132 C 292.40167 119.83262 290.92663 120.76765 288.3449 121.19745 C 283.8756 121.92213 277.95042 125.16286 276.10508 127.89868 C 274.9867 129.55675 274.3755 129.7476 273.5214 128.68903 C 268.00945 122.19686 255.8785 113.89382 250.9446 113.34016 C 246.23242 112.81543 246.09555 112.48187 247.31634 107.27421 C 247.8853 104.64243 247.92983 101.5363 247.46524 100.25796 C 246.7269 98.31249 247.23408 96.84525 250.47935 91.67628 C 253.9483 86.1757 254.84105 85.20979 259.23332 83.34754 C 267.32375 79.75797 270.8964 80.7203 284.68542 90.14172 C 291.2348 94.55935 292.7521 96.06527 293.8741 98.87261 Z" fill="#FFFFFF"/>
        </g>
        <g id="Graphic_132">
          <path d="M 317.17266 134.61092 C 318.87885 137.0886 317.50785 139.30002 314.87997 138.00997 C 313.7733 137.50475 312.52583 137.38706 311.9686 137.85555 C 310.7712 138.7366 315.10137 143.22543 318.56025 144.71412 C 320.442 145.50089 321.1283 146.80816 321.61013 150.02808 C 321.98597 152.33215 321.91444 155.29945 321.3803 156.62786 C 320.92903 158.0122 320.5857 159.95181 320.7187 161.00648 C 321.11565 164.53103 309.7741 174.37122 305.61527 174.0991 C 304.67244 174.06627 303.0046 174.75063 301.72432 175.57577 C 299.69204 176.97928 299.4703 176.95034 298.92673 174.89498 C 298.19424 171.86786 294.1765 166.02169 291.7723 164.40003 C 286.79806 161.04487 279.87446 159.14915 274.90577 159.89886 L 269.71535 160.61964 L 272.34355 156.72316 C 276.202 151.0028 277.72936 145.51946 277.46374 138.2236 L 277.16528 131.87058 L 281.26267 128.12073 C 286.13903 123.93132 294.3026 122.20042 301.8374 123.9053 C 306.57463 124.9294 314.00703 130.18386 317.17266 134.61092 Z" fill="#FFFFFF"/>
        </g>
        <g id="Graphic_131">
          <path d="M 239.17128 90.20061 C 241.35377 91.79333 243.7284 104.00976 242.4634 107.13702 C 241.9003 108.68716 241.64183 110.32215 241.8886 110.85046 C 242.13535 111.37876 238.21352 113.4377 233.32188 115.32499 C 222.56488 119.649 220.05632 121.93747 216.90338 130.54612 C 215.5805 134.11684 214.3155 137.2441 214.09182 137.57571 C 213.42078 138.57056 205.38107 132.78583 202.40434 129.33054 C 199.4276 125.87525 197.40508 125.47601 199.68965 128.70568 C 202.46969 132.63141 197.71134 130.38684 192.99557 125.39669 C 189.21679 121.52102 188.3936 119.88018 187.20628 113.77197 C 186.01897 107.66375 186.14056 105.6952 187.99565 101.15662 C 190.94604 94.10005 192.86843 92.5018 198.16484 92.69686 C 204.6258 92.95369 207.26734 91.71989 204.1999 89.65087 C 202.79053 88.70025 202.8754 88.39562 204.7399 87.24081 C 205.90836 86.58148 208.2973 85.90102 210.10004 85.91077 C 211.90279 85.92053 215.5681 85.13603 218.1807 84.12395 C 224.5165 81.88392 229.69912 82.60534 234.22794 86.26317 C 236.1887 87.82696 238.34225 89.64142 239.17128 90.20061 Z" fill="#FFFFFF"/>
        </g>
        <g id="Graphic_130">
          <path d="M 264.66404 125.36834 C 269.80017 129.55643 270.79112 130.94857 272.4297 135.67245 L 274.2861 141.14637 L 269.4481 148.49782 C 265.31007 154.6327 263.94297 156.12301 261.10864 157.10616 C 258.3572 158.14522 257.9947 158.50382 259.07246 159.23077 C 259.8186 159.73404 261.79105 159.13453 263.51675 158.00672 C 267.6642 155.25561 268.52023 155.95363 265.1459 159.34683 C 263.7788 160.83715 260.24645 162.67631 257.44105 163.43773 C 254.63565 164.19914 252.2178 165.10133 251.9382 165.51585 C 251.0435 166.84231 242.06258 165.85073 239.57546 164.17315 C 238.0832 163.1666 236.94758 162.8831 236.94368 163.6042 C 236.85102 165.35103 240.58364 167.50685 244.2701 167.94282 C 247.15254 168.31898 247.48416 168.54265 246.81312 169.5375 C 246.36577 170.20073 243.73008 170.35288 240.98646 169.94975 C 236.85655 169.4559 235.03072 168.58623 231.16513 165.37575 C 228.51416 163.22578 225.61838 160.18696 224.7123 158.4902 C 223.8891 156.84935 222.70536 155.20656 222.12504 154.81512 C 220.38406 153.64082 217.9652 139.344 218.87552 135.13314 C 219.3037 132.88888 220.85025 128.98656 222.3061 126.47051 C 224.51784 122.65498 225.68824 121.6351 229.35746 120.1295 C 234.75043 117.85664 244.30418 115.49534 245.21612 116.11045 C 245.63064 116.39005 247.12876 116.31494 248.5729 115.9622 C 251.4612 115.2567 254.14307 116.82439 264.66404 125.36834 Z" fill="#FFFFFF"/>
        </g>
        <g id="Graphic_129">
          <path d="M 174.00247 88.46131 C 176.54713 94.88196 176.74155 99.95859 174.5607 103.19184 C 173.61007 104.6012 173.2687 106.18028 173.68127 106.82042 C 174.28663 107.71123 174.11887 107.95994 172.67472 108.31269 C 171.70296 108.50158 169.69572 110.40447 168.1859 112.64287 C 166.732 114.79837 164.66688 117.1447 163.52541 117.94286 C 162.38394 118.74101 160.62931 120.09055 159.59773 121.08345 C 158.56615 122.07634 155.67395 123.50294 153.1462 124.21039 C 149.06246 125.43639 148.39728 125.34959 147.52013 123.4311 C 147.0266 122.37448 147.09618 119.76773 147.57832 117.80112 C 148.73734 113.75802 149.16583 106.32725 148.49707 101.77502 C 147.45638 94.19762 141.36214 87.67457 134.79324 86.86244 C 131.85487 86.5692 131.52325 86.34552 131.8916 84.90527 C 132.51842 81.83003 138.23162 76.75762 142.8726 75.06313 C 149.1814 72.68427 155.47461 73.18982 161.28177 76.38307 C 169.82671 81.061105 171.86842 83.04136 174.00247 88.46131 Z" fill="#FFFFFF"/>
        </g>
        <g id="Graphic_128">
          <path d="M 294.08157 173.3156 C 296.96565 178.51771 296.99263 178.65654 294.96816 178.61785 C 293.52596 178.61005 293.32927 179.08049 293.39657 182.0208 C 293.55262 183.9354 294.34492 186.15851 295.22793 186.99535 C 296.02803 187.77627 296.52155 188.83289 296.18604 189.3303 C 295.7946 189.91064 296.0316 192.2417 296.60024 194.79643 C 297.6585 199.12888 297.54664 199.29468 293.4665 204.9861 C 290.1692 209.51688 288.1909 211.19804 284.4368 213.00827 C 281.79528 214.24207 279.46227 214.83963 279.2155 214.31132 C 278.5022 212.86522 280.20482 210.87748 282.5089 210.50165 C 283.6754 210.20287 284.87084 209.68237 285.20635 209.18494 C 285.98922 208.0243 277.49013 210.25262 275.59668 211.62915 C 274.78877 212.29043 273.51238 212.39447 272.76625 211.8912 C 272.0201 211.38792 268.78102 210.28872 265.62287 209.60598 C 261.85547 208.75354 258.92295 207.37864 257.01812 205.73195 C 255.0863 203.94643 254.0625 203.49713 253.86387 204.32812 C 253.41262 205.71245 259.84627 211.01698 260.57323 209.93923 C 260.90874 209.4418 262.65362 209.895 264.56236 210.8206 C 266.3882 211.69028 269.2378 213.00926 270.78794 213.57235 L 273.6665 214.6696 L 270.4196 215.0126 C 268.64382 215.14167 266.84108 215.13192 266.50946 214.90824 C 266.09494 214.62865 263.9895 214.1735 261.91107 213.85716 C 258.55818 213.2843 257.2587 212.52843 252.45614 208.20346 C 249.3097 205.35743 246.66458 202.1258 246.31183 200.68166 C 245.95908 199.2375 244.9392 198.0671 243.72068 197.7277 C 242.64098 197.36129 241.75797 196.52445 241.76187 195.80335 C 241.79276 195.22107 242.23816 194.9184 242.65268 195.198 C 243.97914 196.0927 244.73698 194.43267 244.3361 191.62923 C 242.99274 183.60642 244.5201 178.12307 248.63864 175.5937 C 249.91893 174.76856 251.34 173.55589 251.84327 172.80975 C 252.34654 172.06362 255.46632 169.5843 258.9177 167.32867 C 263.67833 164.02618 265.5679 163.37075 267.83913 163.93774 C 269.44518 164.41793 271.4157 164.17897 272.2236 163.5177 C 276.51573 159.65795 289.76895 165.58182 294.08157 173.3156 Z" fill="#FFFFFF"/>
        </g>
        <g id="Graphic_127">
          <path d="M 300.22198 181.5585 C 300.38 183.11253 300.21223 183.36124 299.05158 182.57837 C 298.30544 182.0751 298.11655 181.10333 298.5639 180.4401 C 299.01126 179.77687 299.5685 179.30839 299.7343 179.42022 C 299.9001 179.53206 300.089 180.50382 300.22198 181.5585 Z" fill="#FFFFFF"/>
        </g>
        <g id="Graphic_126">
          <path d="M 214.67377 142.79312 C 214.61005 144.31822 213.87725 146.47762 213.09438 147.63827 C 207.92282 155.1266 206.9787 175.83984 211.6483 179.11015 C 212.39444 179.61342 214.80645 179.79288 217.11052 179.41705 C 220.0528 178.9892 222.11205 177.7245 225.23573 174.5241 C 229.61467 169.99917 230.78312 169.33985 231.07995 170.8669 C 231.105 171.36627 229.48528 173.40993 227.3662 175.47862 C 225.22013 177.4085 223.57344 179.31333 223.6544 179.7298 C 223.84133 181.0621 227.9849 179.0321 231.99742 175.58688 C 235.45272 172.61015 239.3417 171.49403 239.7195 173.43756 C 239.9604 175.04751 230.9213 179.6859 225.11772 180.95807 C 220.48064 181.93146 218.97862 182.72767 219.1945 183.83825 C 219.43736 185.08766 218.51762 185.91475 215.65435 187.11962 C 212.4845 188.60018 212.06608 189.04168 213.14383 189.76863 C 213.88997 190.2719 214.69397 190.33173 214.97357 189.9172 C 215.25316 189.5027 217.4145 189.87494 219.73972 190.71958 C 222.06492 191.56422 225.91718 192.11203 228.33114 191.93095 C 230.71812 191.61103 233.68737 191.322 235.04667 191.27389 C 236.32306 191.16985 238.57121 190.87692 239.90353 190.68998 C 241.5694 190.36617 242.34447 190.64771 242.31164 191.59054 C 242.24791 193.11564 229.61502 195.57123 222.7935 195.31245 C 214.75152 195.0748 211.13627 196.85804 204.5495 204.47739 C 202.6232 206.79674 200.2824 208.8365 199.47644 209.13723 C 197.61582 209.57093 194.32244 213.3806 194.2028 214.9886 C 194.17191 215.57089 191.98716 219.52523 189.2741 223.72634 C 184.12757 231.71404 182.60605 236.11574 183.75305 239.42245 C 184.10775 240.50605 184.07491 241.44888 183.51962 241.55682 C 182.96433 241.66476 181.97338 240.27263 181.26204 238.46598 C 180.14202 235.29808 180.36765 234.60591 185.44102 224.75955 C 189.19542 217.7628 193.89459 210.43833 200.18063 202.01304 C 206.63443 193.33903 209.0409 189.41362 208.46059 189.02218 C 207.38284 188.29523 208.13677 187.3563 194.10493 207.44405 C 187.84392 216.36872 182.45064 223.8281 182.09009 223.82616 C 180.09064 224.28684 190.62687 204.37434 193.52298 202.22664 C 194.9151 201.2357 205.6516 185.31818 207.7824 181.08618 C 207.92317 180.69865 207.3178 179.80784 206.4348 178.971 C 203.53707 176.29273 204.6912 157.77171 207.94395 156.34707 C 209.6677 155.5798 211.62715 147.1311 210.21583 146.54102 C 208.3071 145.61542 209.30616 140.37884 211.55626 139.72536 C 214.0011 138.96199 214.6624 139.7699 214.67377 142.79312 Z" fill="#FFFFFF"/>
        </g>
        <g id="Graphic_125">
          <path d="M 143.43994 98.36394 C 145.85553 103.00883 145.05642 117.42692 141.99419 124.6493 C 138.9609 131.64995 135.6002 132.5193 137.52292 125.73453 C 139.24698 119.78074 140.1807 111.24328 139.45407 107.13451 C 138.78336 102.94283 134.63654 95.3209 132.75284 94.89468 C 132.00475 94.75195 131.97387 95.33423 132.74504 96.33688 C 135.05659 99.70537 137.60288 110.95198 136.8353 114.41476 C 136.49198 116.35438 136.11582 119.23683 136.07909 120.90076 C 136.12525 122.6206 135.2208 125.74981 134.21035 127.96318 C 131.825 133.10906 131.73624 134.13479 134.0673 133.89778 C 135.48252 133.76676 135.67531 134.01742 135.0602 134.92936 C 133.6063 137.08486 128.13628 138.22016 123.73068 137.41974 C 121.04297 136.9337 119.07246 137.17266 118.40143 138.1675 C 117.67448 139.24525 116.73165 139.21241 114.68604 137.95325 C 101.08788 129.14304 96.20631 124.04105 94.63731 116.71042 C 94.09567 114.2945 93.91458 111.88054 94.19417 111.46603 C 94.52969 110.9686 94.67827 109.13887 94.54919 107.3631 C 94.11386 100.67651 101.50074 93.83809 108.90453 94.12776 C 112.75874 94.31502 119.72883 92.74407 125.75999 90.41918 C 131.70824 88.03838 139.84256 91.71572 143.43994 98.36394 Z" fill="#FFFFFF"/>
        </g>
        <g id="Graphic_124">
          <path d="M 206.6253 154.01016 C 206.3457 154.42468 205.73449 154.61552 205.23706 154.28 C 204.82255 154.0004 204.68762 153.3063 204.96722 152.89177 C 205.30274 152.39435 205.94093 152.34233 206.35545 152.62193 C 206.85287 152.95744 206.9608 153.51274 206.6253 154.01016 Z" fill="#FFFFFF"/>
        </g>
        <g id="Graphic_123">
          <path d="M 178.87303 146.87071 C 180.30743 148.32071 180.93587 150.07144 180.56752 151.5117 C 180.311 152.78613 180.82566 155.06322 181.8436 156.59417 C 184.04526 159.76792 184.81025 167.03874 183.48152 171.6911 C 182.43434 175.5684 175.69899 185.01747 171.4358 188.65549 C 168.4259 191.32954 162.23283 192.82149 160.24314 191.47942 C 159.66282 191.088 158.35944 191.0532 157.33176 191.325 C 156.30408 191.5968 155.36125 191.56396 155.1974 191.09157 C 154.97762 190.70208 152.84715 189.74756 150.38313 188.9299 C 144.56816 187.17885 142.16785 184.8361 137.24987 176.2115 C 133.73344 169.97975 133.24382 168.20204 133.4948 162.82272 C 134.00815 155.08732 137.46376 146.92407 141.10795 144.9191 C 142.55405 144.2058 144.0021 143.13195 144.33762 142.63452 C 144.72905 142.0542 145.70081 141.8653 146.58772 141.98105 C 147.50161 142.2356 149.83462 141.63805 151.86495 140.59509 C 153.92226 139.69095 156.5599 139.17824 157.8054 139.65648 C 159.0509 140.13472 160.66087 139.89381 161.52469 139.14963 C 162.3326 138.48835 164.1373 138.13755 165.49464 138.44998 C 168.34815 139.04786 175.56273 143.55229 178.87303 146.87071 Z" fill="#FFFFFF"/>
        </g>
        <g id="Graphic_122">
          <path d="M 139.68915 140.5847 C 138.45893 142.40858 137.7918 142.68232 136.8818 141.70666 C 135.4744 140.39548 137.1058 136.18852 139.6394 134.39943 C 140.97562 133.49139 141.14143 133.60322 141.26855 135.73954 C 141.31666 137.09883 140.58386 139.25823 139.68915 140.5847 Z" fill="#FFFFFF"/>
        </g>
        <g id="Graphic_121">
          <path d="M 134.4425 146.5749 C 133.82738 147.48684 132.39103 146.39739 131.15528 144.1164 C 130.66176 143.05978 130.58665 141.56166 131.034 140.89843 C 131.76096 139.82069 132.09257 140.04436 133.35336 142.82472 C 134.25945 144.52149 134.66617 146.24328 134.4425 146.5749 Z" fill="#FFFFFF"/>
        </g>
        <g id="Graphic_120">
          <path d="M 85.72338 123.84567 C 87.04399 125.82203 87.94618 128.23989 87.63569 129.23668 C 86.92988 131.5349 88.71897 134.0685 90.44272 133.30124 C 91.16577 132.94459 91.85793 133.17022 91.96587 133.72551 C 92.07381 134.2808 89.84874 135.43365 87.07033 136.3339 C 78.37455 139.03266 72.56089 147.2941 73.48584 155.7584 C 73.75179 157.86774 74.45923 160.39549 75.12051 161.20339 C 75.80878 162.15012 75.99572 163.48243 75.54836 164.14566 C 75.04509 164.8918 74.73071 166.60969 74.91765 167.942 C 75.29348 170.24607 74.904 170.46585 68.51814 171.70713 C 60.88287 173.19128 56.92267 172.08818 51.32 166.98229 C 47.346473 163.21651 45.299234 157.13138 47.14457 154.39556 C 47.87152 153.3178 48.322776 151.93348 47.99311 151.34925 C 47.74635 150.82094 48.28246 149.13198 49.23309 147.72262 C 50.46331 145.89874 50.61384 143.70845 49.85827 139.82141 C 48.59195 132.93618 46.7141 131.4283 44.943867 135.66225 C 44.18603 137.32227 43.64212 140.45343 43.71332 142.67265 C 43.88466 146.88936 43.23671 148.74413 41.91025 147.84942 C 40.58379 146.95471 40.50543 135.80465 41.853344 132.73331 C 43.847255 128.16775 52.327484 119.17188 55.940784 117.74918 C 57.77442 117.17666 60.167246 115.7751 61.19883 114.7822 C 62.48107 113.59652 64.5075 113.27465 67.05638 113.78768 C 69.16181 114.24283 72.09823 114.89663 73.594395 115.18208 C 77.55654 115.92463 83.08216 119.89295 85.72338 123.84567 Z" fill="#FFFFFF"/>
        </g>
        <g id="Graphic_119">
          <path d="M 118.55294 151.17623 C 119.3472 153.0388 120.05074 156.28765 120.23378 158.34106 C 120.278 160.42145 121.0703 162.64457 121.89934 163.20377 C 123.88903 164.54583 123.55156 165.4038 119.18596 172.5914 C 116.07951 177.73338 114.85319 178.83616 109.59514 181.80314 C 105.95096 183.80812 101.42182 185.3368 98.36966 185.5699 C 93.62464 185.988 92.54494 185.6216 87.81943 182.4342 C 80.27519 177.34555 78.32418 173.97901 79.2462 167.60485 C 79.79206 164.11314 79.38924 161.67025 78.28841 160.08337 C 74.32268 154.8754 77.09978 143.96267 83.02301 141.08249 C 88.08436 138.58595 94.4972 137.48348 99.04163 138.25692 C 105.7474 139.40261 116.3321 146.42146 118.55294 151.17623 Z" fill="#FFFFFF"/>
        </g>
        <g id="Graphic_118">
          <path d="M 135.4546 179.94608 C 135.97315 181.50207 135.80345 182.11133 134.77772 182.02257 C 132.75324 181.98389 131.37866 179.72988 132.44113 178.1547 C 133.5036 176.57954 134.41554 177.19465 135.4546 179.94608 Z" fill="#FFFFFF"/>
        </g>
        <g id="Graphic_117">
          <path d="M 154.86904 200.51983 C 154.88432 202.82196 155.15026 204.93129 155.56478 205.21088 C 155.8964 205.43456 155.75368 206.18264 155.30632 206.84587 C 154.24385 208.42105 153.49772 207.91777 151.29996 204.02293 C 148.77253 199.54385 150.52553 193.36834 153.75877 195.5492 C 154.422 195.99654 154.85376 198.21771 154.86904 200.51983 Z" fill="#FFFFFF"/>
        </g>
        <g id="Graphic_116">
          <path d="M 133.67266 186.34332 C 135.32879 187.82225 139.1713 190.17282 142.15973 191.4648 C 146.47658 193.29096 147.66421 194.21266 147.65836 195.2943 C 147.62553 196.23713 146.9584 196.51088 145.8787 196.14448 C 145.02072 195.807 143.60746 195.57748 142.74754 195.60057 C 141.88761 195.62365 140.61512 195.00659 139.84396 194.00394 C 139.07279 193.0013 137.7174 192.32831 136.66273 192.46128 C 135.74689 192.56727 134.94483 192.1469 134.97572 191.56463 C 134.95068 191.06525 131.5266 188.2732 127.24258 185.5042 C 119.4207 180.46952 117.79546 178.4083 121.07324 177.48304 C 122.62923 176.96448 124.4801 178.33353 133.67266 186.34332 Z" fill="#FFFFFF"/>
        </g>
        <g id="Graphic_115">
          <path d="M 146.90769 205.88517 C 148.08915 213.07504 149.92637 216.96793 152.9148 218.25993 C 155.01828 219.07563 155.7124 218.9407 156.2485 217.25175 C 156.6149 216.17205 157.09315 214.92655 157.37274 214.51203 C 157.59642 214.1804 157.26676 213.59619 156.68643 213.20475 C 156.0232 212.7574 155.72637 211.23034 155.9559 209.81708 C 156.38407 207.57283 156.57881 207.46294 157.6816 208.68926 C 158.25997 209.44125 158.66669 211.16304 158.49308 212.4934 C 158.26355 213.90667 158.971 216.43442 159.98698 218.32592 C 161.14178 220.19044 161.93603 222.053 161.82224 222.57937 C 161.22631 225.07233 165.43848 235.99513 167.51107 237.39312 C 168.83753 238.28783 169.66462 239.20757 169.38502 239.6221 C 169.16135 239.9537 169.23255 242.17292 169.55246 244.5599 C 170.03623 247.41926 170.77651 249.00418 171.91213 249.28768 C 173.4083 249.57313 173.4951 248.90795 172.87641 245.35447 C 172.4736 242.91157 172.43133 240.47063 172.82277 239.8903 C 174.33259 237.6519 175.47764 241.31917 175.4926 248.8078 C 175.57128 254.77135 176.03002 257.13134 177.57625 258.41554 C 178.70797 259.42013 179.2015 260.47675 178.59028 260.6676 C 176.81062 261.51776 176.38602 268.22744 177.9417 272.8954 C 179.47038 277.42454 181.29199 284.20184 181.529 286.5329 C 182.40583 293.6379 186.22624 310.32756 187.13819 310.94267 C 187.96722 311.50186 188.56868 313.11377 190.80481 320.17066 C 191.37734 322.0043 192.44534 324.534 193.21455 325.8972 C 194.34042 327.98344 194.75494 328.26303 196.39578 327.43985 C 201.20647 325.1361 203.73227 324.7892 204.94494 326.21026 C 206.4333 327.9379 210.65977 325.96382 218.34738 319.93135 C 220.854 318.00343 225.4758 314.72792 228.75942 312.721 C 232.04306 310.71407 235.4135 308.04197 236.2523 306.7984 C 237.09108 305.55486 238.8457 304.2053 240.12405 303.74073 C 241.34647 303.35904 242.87743 302.3411 243.43662 301.51208 C 246.14773 297.67152 249.0627 302.29137 248.8 309.83398 L 248.61275 313.6882 L 243.93893 316.3255 C 241.40728 317.75405 237.56836 319.8689 235.3992 320.93886 C 233.23006 322.0088 231.28263 323.1077 231.00304 323.5222 C 229.82873 325.2632 211.11623 333.8709 206.81272 334.7074 C 202.64803 335.51694 201.95196 336.0124 201.8863 337.89806 C 201.7686 339.14552 200.81602 340.91543 199.78444 341.90833 C 198.00088 343.4796 195.38405 350.3993 193.96071 357.15904 C 193.67722 358.29466 192.18463 362.47463 190.63807 366.37696 C 186.92594 375.81466 185.03997 380.9355 184.80654 383.06987 C 184.48826 385.50887 179.33978 393.8571 177.28052 395.1218 C 176.19497 395.83705 175.79964 397.13848 176.14848 399.30372 C 176.3894 400.9137 176.21188 402.96514 175.59677 403.8771 C 174.75798 405.12064 174.14872 404.95093 171.08518 402.1608 C 169.09744 400.4582 166.64512 397.47725 165.54623 395.52983 C 163.40439 391.5521 164.37257 386.89776 170.16346 372.5899 C 174.4907 362.24024 179.00715 347.67584 180.01012 341.71816 C 181.7654 329.99557 180.59758 320.28186 177.24664 319.34846 C 174.94842 318.64264 170.83639 309.71733 168.44615 300.3853 C 167.54981 296.8858 165.8267 287.28002 164.59518 279.0914 C 163.33666 270.76398 161.41491 261.9892 160.23507 259.6253 C 159.19406 257.23442 157.77527 252.90002 157.26451 249.90183 C 156.69784 246.98655 154.76244 240.7356 152.95806 235.8999 C 151.23658 231.12008 148.92145 223.28617 147.977 218.42737 C 146.97662 213.65146 145.80653 209.48482 145.30911 209.1493 C 144.56298 208.64603 143.58764 204.3695 143.1406 199.8462 C 142.74754 195.60057 146.10205 200.99938 146.90769 205.88517 Z" fill="#FFFFFF"/>
        </g>
        <g id="Graphic_114">
          <path d="M 139.9727 200.96623 C 139.63719 201.46365 139.19569 201.04523 138.84099 199.96163 C 138.5692 198.93395 138.3803 197.96219 138.49214 197.79638 C 138.60398 197.63057 139.12839 198.10491 139.62386 198.80098 C 140.06341 199.57995 140.2523 200.5517 139.9727 200.96623 Z" fill="#FFFFFF"/>
        </g>
        <g id="Graphic_113">
          <path d="M 179.80097 231.69063 C 178.23133 234.73304 175.7634 234.63648 176.61195 231.59017 C 177.3467 229.07023 180.63423 226.3422 180.93106 227.86926 C 181.06598 228.56337 180.52988 230.25233 179.80097 231.69063 Z" fill="#FFFFFF"/>
        </g>
        <g id="Graphic_112">
          <path d="M 152.06495 211.29374 C 152.03017 212.59712 151.6927 213.4551 151.27818 213.1755 C 150.44914 212.6163 149.85549 209.5622 150.41468 208.73316 C 151.25347 207.4896 152.10559 208.90872 152.06495 211.29374 Z" fill="#FFFFFF"/>
        </g>
        <g id="Graphic_111">
          <path d="M 107.16526 190.05515 C 106.9858 192.46716 91.62945 211.29965 88.62541 212.89205 C 87.70762 213.3586 84.78648 215.0069 82.28182 216.57428 C 75.85337 220.56114 72.446515 219.71065 65.939705 212.54745 C 61.721365 207.89282 61.03505 206.58554 61.19143 203.3136 C 61.28603 201.20623 61.770124 198.87907 62.32932 198.05004 C 63.50362 196.30906 61.56464 185.5927 60.09351 185.80662 C 59.62112 185.97048 59.472544 187.80021 59.79441 189.82664 C 60.682944 194.76835 59.87309 195.79018 56.358296 194.3844 C 52.8435 192.97861 51.3145 193.636 53.02264 195.75312 C 55.30916 198.62224 53.67222 198.72433 50.30405 195.84936 C 47.487274 193.58755 46.74699 192.00263 45.64258 185.95034 C 44.86003 181.92447 44.49395 177.81765 44.86035 176.73795 C 45.76481 173.60874 51.23483 172.47344 56.18987 174.24757 C 59.20724 175.31784 62.97855 175.44918 67.94724 174.69947 L 75.16409 173.65683 L 78.13497 178.19377 C 81.43552 183.31494 87.73426 187.92536 91.8931 188.19747 C 93.5011 188.31711 95.71837 188.60646 96.96583 188.72415 C 98.15737 188.92474 100.71015 188.71667 102.57077 188.28297 C 106.56965 187.3616 107.42762 187.69906 107.16526 190.05515 Z" fill="#FFFFFF"/>
        </g>
        <g id="Graphic_110">
          <path d="M 103.06528 204.5386 C 101.61138 206.6941 98.70943 209.92344 96.6752 211.6875 C 92.16134 215.5183 89.35789 215.91917 92.98289 212.33318 C 94.29407 210.92577 97.58746 207.1161 100.2407 203.719 C 105.76891 196.95372 107.81842 197.49178 103.06528 204.5386 Z" fill="#FFFFFF"/>
        </g>
        <g id="Graphic_109">
          <path d="M 54.63196 205.88526 C 55.36834 208.19128 55.25455 208.71764 54.259706 208.0466 C 51.19227 205.9776 48.43726 202.55123 49.16421 201.47348 C 50.2826 199.8154 53.513893 202.3568 54.63196 205.88526 Z" fill="#FFFFFF"/>
        </g>
        <g id="Graphic_108">
          <path d="M 212.9853 321.62194 C 211.58731 323.69454 209.41816 324.7645 208.2575 323.9816 C 206.84815 323.031 207.54811 321.8144 210.21859 320.3589 C 212.44366 319.20603 214.10368 319.96387 212.9853 321.62194 Z" fill="#FFFFFF"/>
        </g>
        <g id="Graphic_107">
          <path d="M 279.44755 109.88874 C 277.78167 110.21255 271.7944 119.80436 273.01293 120.14377 C 273.7051 120.3694 275.5735 118.4935 277.41885 115.75767 C 280.66217 110.94926 281.11342 109.56493 279.44755 109.88874 Z" fill="black"/>
        </g>
        <g id="Graphic_106">
          <path d="M 284.32912 114.99073 C 283.49423 115.51318 282.21004 117.05942 281.48113 118.49772 C 280.27594 120.82098 280.30293 120.9598 282.19443 119.94382 C 283.30697 119.3674 284.59116 117.82116 285.0424 116.43683 C 285.7193 114.36033 285.6094 114.16559 284.32912 114.99073 Z" fill="black"/>
        </g>
        <g id="Graphic_105">
          <path d="M 259.076 102.17904 C 258.43 103.67326 257.4176 106.24717 256.65975 107.9072 C 255.22894 110.92262 255.49098 113.75305 257.0008 111.51465 C 258.95798 108.61302 261.66356 100.66759 260.83452 100.1084 C 260.3371 99.77288 259.55618 100.57298 259.076 102.17904 Z" fill="black"/>
        </g>
        <g id="Graphic_104">
          <path d="M 269.1805 110.80394 C 267.28314 112.90157 266.49832 114.42277 266.88195 115.28464 C 267.7861 117.34196 270.17697 116.30094 270.27352 113.83301 C 270.2524 112.61254 271.09313 111.00844 272.01287 110.18135 C 272.8767 109.43716 273.27008 108.49629 272.77266 108.16077 C 272.35814 107.88118 270.71535 109.06491 269.1805 110.80394 Z" fill="black"/>
        </g>
        <g id="Graphic_103">
          <path d="M 262.9549 108.0522 C 261.55693 110.12479 260.6853 112.31117 261.01497 112.8954 C 261.78223 114.61914 262.28356 114.23356 264.69394 109.58705 C 267.41285 104.30429 266.25415 103.16087 262.9549 108.0522 Z" fill="black"/>
        </g>
        <g id="Graphic_102">
          <path d="M 299.5337 149.85319 C 298.9784 149.96112 298.1705 150.6224 297.72314 151.28563 C 296.7166 152.7779 289.92564 157.12336 289.3453 156.73193 C 289.0966 156.56417 287.43268 156.52743 285.6569 156.6565 L 282.46593 156.9166 L 284.37272 158.20274 C 285.45047 158.9297 287.72366 159.13614 289.58428 158.70243 C 293.8608 157.7271 301.0162 152.66248 300.6924 150.9966 C 300.55747 150.3025 300.03306 149.82815 299.5337 149.85319 Z" fill="black"/>
        </g>
        <g id="Graphic_101">
          <path d="M 291.88314 149.03521 C 290.29626 150.13604 288.7094 151.23688 288.237 151.40073 C 287.7916 151.70341 287.87255 152.11988 288.36997 152.4554 C 289.2819 153.07051 294.6209 150.52 295.68338 148.94483 C 296.9136 147.12094 294.55556 147.21913 291.88314 149.03521 Z" fill="black"/>
        </g>
        <g id="Graphic_100">
          <path d="M 307.2665 161.10012 C 306.3757 161.70548 303.87298 162.9123 301.78868 163.67762 C 299.62148 164.38702 297.9517 165.43193 297.97674 165.9313 C 298.2196 167.18071 304.99884 164.99855 307.33965 162.9588 C 309.54164 160.94602 309.46654 159.4479 307.2665 161.10012 Z" fill="black"/>
        </g>
        <g id="Graphic_99">
          <path d="M 306.00117 169.4139 C 305.4979 170.16004 304.44128 170.65356 303.83202 170.48385 C 302.7793 170.25627 302.66747 170.42208 303.4965 170.98127 C 304.60124 171.84705 307.2717 170.39152 307.00187 169.00329 C 306.97683 168.50391 306.44852 168.75067 306.00117 169.4139 Z" fill="black"/>
        </g>
        <g id="Graphic_98">
          <path d="M 233.4389 93.692 C 232.9106 93.93876 233.37323 95.57765 234.50105 97.30335 C 235.71177 99.08496 236.88965 101.8094 237.3523 103.4483 C 238.05584 106.69715 239.32443 108.03531 239.88947 106.12462 C 240.34268 104.37974 237.06553 94.93197 235.65617 93.98135 C 234.99294 93.53399 234.02313 93.36233 233.4389 93.692 Z" fill="black"/>
        </g>
        <g id="Graphic_97">
          <path d="M 227.99165 100.87374 C 227.2647 101.95149 230.76942 110.34654 232.20967 110.71489 C 234.42498 111.36479 231.9499 102.33739 229.46278 100.65981 C 228.96536 100.3243 228.32716 100.37632 227.99165 100.87374 Z" fill="black"/>
        </g>
        <g id="Graphic_96">
          <path d="M 223.11497 110.24967 C 223.98237 113.9709 225.30493 115.58671 226.25556 114.17735 C 226.75883 113.43121 224.26424 108.00931 222.93778 107.1146 C 222.60616 106.89093 222.65428 108.25022 223.11497 110.24967 Z" fill="black"/>
        </g>
        <g id="Graphic_95">
          <path d="M 218.89989 115.24697 C 218.869 115.82925 219.25263 116.69112 219.66715 116.97072 C 220.16458 117.30624 220.52708 116.94764 220.55796 116.36536 C 220.64477 115.70018 220.2052 114.92121 219.7907 114.64161 C 219.29327 114.3061 218.9867 114.5818 218.89989 115.24697 Z" fill="black"/>
        </g>
        <g id="Graphic_94">
          <path d="M 192.21626 100.26418 C 191.04195 102.00516 191.65252 112.18736 193.15032 117.29878 C 194.54018 121.85491 196.30034 124.61024 197.08321 123.44958 C 197.41873 122.95216 197.22789 122.34095 196.64756 121.94952 C 195.4869 121.16664 193.95855 111.45098 194.01869 105.46046 C 194.1019 100.32986 193.44648 98.4403 192.21626 100.26418 Z" fill="black"/>
        </g>
        <g id="Graphic_93">
          <path d="M 213.58982 117.57576 C 213.88665 119.10281 214.3223 120.60288 214.73682 120.88248 C 215.89748 121.66535 215.71639 119.25139 214.39773 116.91448 C 213.24488 114.68941 213.24488 114.68941 213.58982 117.57576 Z" fill="black"/>
        </g>
        <g id="Graphic_92">
          <path d="M 208.60358 121.57042 C 208.5727 122.1527 209.12213 123.12641 209.78536 123.57377 C 210.4486 124.02112 211.0598 123.83028 211.0907 123.248 C 211.1775 122.58282 210.57213 121.69201 209.9089 121.24466 C 209.24567 120.7973 208.69038 120.90524 208.60358 121.57042 Z" fill="black"/>
        </g>
        <g id="Graphic_91">
          <path d="M 243.52457 126.30793 C 241.74686 126.79755 241.80083 127.0752 243.79052 128.41726 C 245.946 129.87116 245.91708 130.09289 243.54539 132.71493 C 241.8717 134.48094 239.70256 135.55089 237.76098 135.56812 C 234.4042 135.71637 231.75486 138.39238 233.66164 139.67852 C 234.24197 140.06996 235.49138 139.8271 236.3552 139.08291 C 238.38943 137.31885 241.20816 139.2201 242.76578 143.52752 C 244.26942 147.55729 246.59268 148.76248 249.40393 146.91941 C 252.15925 145.15925 253.8713 146.55528 252.08188 149.2082 C 251.18717 150.53467 251.15434 151.4775 251.9294 151.75904 C 254.20064 152.32603 255.40583 150.00278 254.95685 145.84004 C 254.45585 141.0391 254.73544 140.62458 257.22256 142.30216 C 258.4661 143.14095 259.34327 145.05944 259.4434 147.05693 L 259.61864 150.55254 L 261.1304 147.95359 C 262.3356 145.63033 262.1737 144.7974 259.55556 141.7046 C 257.93032 139.64339 255.67274 136.55254 254.60084 134.74394 C 251.4931 129.87344 245.96942 125.54457 243.52457 126.30793 Z" fill="black"/>
        </g>
        <g id="Graphic_90">
          <path d="M 248.3538 135.95825 C 245.78932 138.32962 245.0952 138.46454 244.7714 136.79866 C 244.4206 134.99396 247.70813 132.26594 249.2004 133.27249 C 250.19524 133.94352 249.8867 134.57977 248.3538 135.95825 Z" fill="#FFFFFF"/>
        </g>
        <g id="Graphic_89">
          <path d="M 228.95694 142.89812 C 227.96763 146.33196 236.65497 155.44843 239.1616 153.52051 C 239.6629 153.13493 238.7799 152.29809 237.01 151.3455 C 235.15717 150.33701 233.08848 148.21793 231.604 145.76918 C 230.25837 143.29345 229.09967 142.15003 228.95694 142.89812 Z" fill="black"/>
        </g>
        <g id="Graphic_88">
          <path d="M 246.99486 161.57842 C 242.22285 161.8577 240.77675 162.571 242.60064 163.80122 C 243.8442 164.64 251.84 163.15781 251.62413 162.04723 C 251.62608 161.68668 249.49172 161.45325 246.99486 161.57842 Z" fill="black"/>
        </g>
        <g id="Graphic_87">
          <path d="M 166.01998 92.60618 C 165.68446 93.1036 165.56677 94.35106 165.75567 95.32282 C 166.29535 98.09928 163.62814 109.20676 161.81174 111.72085 C 160.97295 112.96441 157.8821 115.222 155.07281 116.70451 C 152.26351 118.18703 150.06348 119.83925 150.17142 120.39454 C 150.35836 121.72685 154.55393 120.33504 155.72824 118.59406 C 156.23151 117.84793 157.93022 116.58129 159.48816 115.70218 C 163.3271 113.58732 165.45397 110.07643 167.12992 102.76335 C 168.37965 97.33397 167.64164 90.20197 166.01998 92.60618 Z" fill="black"/>
        </g>
        <g id="Graphic_86">
          <path d="M 154.81921 102.05884 C 154.4837 102.55626 154.50678 103.41618 154.75354 103.94449 C 155.0832 104.52872 155.6385 104.42078 156.08585 103.75755 C 156.58912 103.01142 156.64894 102.20741 156.15152 101.8719 C 155.737 101.5923 155.0988 101.64432 154.81921 102.05884 Z" fill="black"/>
        </g>
        <g id="Graphic_85">
          <path d="M 152.39518 109.2292 C 151.66823 110.30695 151.13212 111.99591 151.09928 112.93874 C 151.0645 114.24211 151.64872 113.91245 153.21446 111.59114 C 154.33285 109.93307 154.95186 108.30003 154.45444 107.96451 C 154.03992 107.68491 153.0662 108.23435 152.39518 109.2292 Z" fill="black"/>
        </g>
        <g id="Graphic_84">
          <path d="M 272.56464 167.12514 C 270.87178 167.31013 269.20785 167.2734 268.79333 166.9938 C 268.46172 166.77012 267.73867 167.12677 267.2913 167.79 C 266.62028 168.78485 267.53417 169.0394 271.22258 169.11483 C 273.88525 169.1015 276.27222 168.78159 276.4959 168.44997 C 277.3347 167.20642 275.72863 166.72623 272.56464 167.12514 Z" fill="black"/>
        </g>
        <g id="Graphic_83">
          <path d="M 265.3956 174.7136 C 261.36972 175.49615 256.84058 177.02483 255.3366 178.18159 C 250.93654 181.48603 252.34785 182.07611 257.6888 179.16505 C 260.30335 177.79242 265.0812 176.4315 268.21627 176.2543 C 271.35133 176.07712 274.07187 175.62033 274.29555 175.28872 C 275.358 173.71355 272.00318 173.50125 265.3956 174.7136 Z" fill="black"/>
        </g>
        <g id="Graphic_82">
          <path d="M 264.1787 179.20015 C 258.3192 180.55523 251.24865 185.3152 253.15544 186.60135 C 253.48705 186.82503 255.76804 185.58927 258.16282 183.82716 C 261.19774 181.65248 263.75443 180.7233 266.5 180.7659 C 270.68778 180.81628 272.13388 180.10299 270.31 178.87276 C 269.72967 178.48133 266.95516 178.66047 264.1787 179.20015 Z" fill="black"/>
        </g>
        <g id="Graphic_81">
          <path d="M 262.18837 188.23113 C 260.46657 188.63785 258.57507 189.65383 258.01587 190.48287 C 257.12116 191.80933 257.78634 191.89613 261.7563 191.19649 C 264.338 190.76669 266.47823 189.91846 266.5091 189.33619 C 266.57283 187.81108 265.4372 187.52759 262.18837 188.23113 Z" fill="black"/>
        </g>
        <g id="Graphic_80">
          <path d="M 271.0802 195.43497 C 269.2986 196.6457 266.5761 197.46303 265.024 197.26048 C 262.03167 196.68959 260.55663 197.62461 262.46342 198.91076 C 263.9557 199.9173 269.69945 199.44914 272.17518 198.1035 C 273.42654 197.50008 274.1535 196.42233 274.27118 195.17488 C 274.39082 193.56687 273.97435 193.64782 271.0802 195.43497 Z" fill="black"/>
        </g>
        <g id="Graphic_79">
          <path d="M 277.7164 199.18741 C 272.42552 203.09722 262.16432 202.93077 257.49863 198.93937 C 256.0083 197.57227 254.8457 197.14995 254.676 197.75921 C 254.5063 198.36848 256.05058 200.01322 258.1791 201.3283 C 264.64558 205.69 277.24174 204.89834 280.5969 199.92412 C 282.0508 197.76862 280.30592 197.31541 277.7164 199.18741 Z" fill="black"/>
        </g>
        <g id="Graphic_78">
          <path d="M 127.27828 107.12412 C 127.11052 107.37283 127.54227 109.594 128.16681 112.06583 C 129.36193 116.73184 129.38665 122.41774 128.25656 126.23911 C 127.57968 128.3156 127.44085 128.34259 124.54312 125.66432 C 120.92819 122.26104 120.23213 122.75651 122.42599 127.37246 C 124.72779 132.5437 126.52664 133.27455 128.59565 130.20711 C 130.94426 126.72515 131.58278 121.48661 130.67896 114.24278 C 129.98517 109.19118 128.28482 105.63185 127.27828 107.12412 Z" fill="black"/>
        </g>
        <g id="Graphic_77">
          <path d="M 105.44047 114.10625 C 105.12024 116.9058 108.58432 127.68588 110.4043 129.6372 C 112.60987 132.08985 116.3194 133.38575 118.0451 132.25793 C 118.99183 131.56966 118.71808 130.90253 116.8942 129.67231 C 113.66095 127.49146 109.45042 121.39462 108.22636 116.95034 C 107.00036 112.8666 105.59295 111.55542 105.44047 114.10625 Z" fill="black"/>
        </g>
        <g id="Graphic_76">
          <path d="M 176.51207 162.889 C 176.20354 163.52525 176.05107 166.07609 176.31506 168.54597 C 177.13988 175.01278 173.78667 179.62646 166.31136 182.3041 C 165.36658 182.6318 163.80864 183.51091 162.94482 184.2551 C 161.44085 185.41185 161.44085 185.41185 163.8857 184.64848 C 174.8875 181.21333 176.8967 178.9499 178.64612 168.30896 C 179.1611 165.39953 177.51862 161.39674 176.51207 162.889 Z" fill="black"/>
        </g>
        <g id="Graphic_75">
          <path d="M 157.47283 154.99237 C 152.54672 152.9965 151.62893 153.46304 152.16276 157.32115 C 152.3497 158.65346 151.75573 160.78588 150.7222 162.13932 C 148.68211 164.98503 149.06185 166.568 151.5067 165.80464 C 152.86794 165.39597 153.8358 165.92818 155.62685 168.10123 C 157.00533 169.63414 158.71737 171.03017 159.54836 171.22881 C 161.65379 171.68397 163.1945 168.86329 162.46201 165.83617 C 162.08228 164.2532 162.45258 162.4524 163.4302 161.18185 C 165.4124 158.7796 164.3366 157.6921 157.47283 154.99237 Z" fill="black"/>
        </g>
        <g id="Graphic_74">
          <path d="M 172.96413 167.61257 C 170.3551 173.09007 163.3886 179.12644 158.91927 179.85112 C 156.47638 180.25394 155.1691 180.94025 155.44285 181.60738 C 156.21011 183.33113 163.79336 181.2088 166.4427 178.53279 C 172.02098 172.76626 173.47488 170.61076 174.04578 167.61842 L 174.5627 164.34844 L 172.96413 167.61257 Z" fill="black"/>
        </g>
        <g id="Graphic_73">
          <path d="M 139.27594 150.31759 C 138.66083 151.22953 138.74179 151.646 139.43785 151.15053 C 140.078 150.73796 140.49837 149.9359 140.41741 149.51944 C 140.39238 149.02006 139.80815 149.34973 139.27594 150.31759 Z" fill="black"/>
        </g>
        <g id="Graphic_72">
          <path d="M 67.77232 166.01734 C 66.937435 166.5398 66.37824 167.36883 66.459195 167.7853 C 66.6211 168.61824 70.36737 168.2502 70.98249 167.33827 C 71.877195 166.0118 69.22037 164.9435 67.77232 166.01734 Z" fill="black"/>
        </g>
        <g id="Graphic_71">
          <path d="M 50.237043 156.96394 C 49.957447 157.37846 50.16942 159.21015 50.71496 160.90496 C 51.83303 164.4334 56.77637 168.37084 60.46282 168.80681 C 64.78747 169.19077 63.85439 167.35518 58.15712 164.35667 C 53.64943 161.9193 52.600615 160.97063 52.415625 159.27777 C 52.178616 156.94671 51.019913 155.8033 50.237043 156.96394 Z" fill="black"/>
        </g>
        <g id="Graphic_70">
          <path d="M 90.46906 143.8131 C 87.80249 144.54754 86.83041 149.92295 88.72354 153.73294 C 90.67065 157.82058 89.63906 158.81347 86.60446 155.80163 C 85.25297 154.40755 83.92651 153.51284 83.81467 153.67865 C 83.25547 154.50769 84.13589 166.07812 84.84919 167.52422 C 85.69936 169.30389 96.08963 171.2461 97.04026 169.83674 C 97.4317 169.2564 97.1599 168.22873 96.41572 167.3649 C 95.69852 166.6399 95.46346 163.9483 95.92057 161.48232 C 96.57827 157.8248 96.36239 156.71422 94.50957 155.70572 C 93.34892 154.92285 91.88364 154.05513 91.44213 153.6367 C 90.2545 152.71501 90.87188 146.256 92.26206 145.6256 C 93.98581 144.85834 92.3856 143.2965 90.46906 143.8131 Z" fill="black"/>
        </g>
        <g id="Graphic_69">
          <path d="M 90.36179 163.64335 C 90.0822 164.05787 89.63679 164.36055 89.47099 164.2487 C 89.22227 164.08095 89.08735 163.38683 89.11824 162.80456 C 89.20504 162.13938 89.59453 161.9196 90.00905 162.1992 C 90.50647 162.53471 90.69731 163.14592 90.36179 163.64335 Z" fill="#FFFFFF"/>
        </g>
        <g id="Graphic_68">
          <path d="M 114.35056 169.20925 C 111.83419 172.93992 105.54066 177.6209 102.90497 177.77305 C 101.7674 177.8501 100.93252 178.37256 101.04045 178.92785 C 101.06549 179.42723 102.7564 179.60279 104.61702 179.16909 C 108.78171 178.35955 117.17318 170.3894 116.66048 167.75177 C 116.4446 166.64119 115.86038 166.97085 114.35056 169.20925 Z" fill="black"/>
        </g>
        <g id="Graphic_67">
          <path d="M 106.85638 165.11934 C 105.13264 165.88661 105.51042 167.83013 107.66592 169.28403 C 110.31884 171.07345 111.87677 170.19435 110.61404 167.77453 C 109.32431 165.2159 108.24656 164.48895 106.85638 165.11934 Z" fill="black"/>
        </g>
        <g id="Graphic_66">
          <path d="M 92.2312 176.96646 C 91.28838 176.93362 90.56533 177.29027 90.72918 177.76266 C 90.94506 178.87324 95.8172 180.59146 96.43231 179.67952 C 97.10334 178.68467 94.4774 177.03408 92.2312 176.96646 Z" fill="black"/>
        </g>
        <g id="Graphic_65">
          <path d="M 171.43194 250.89374 C 170.04566 250.80303 169.76607 251.21755 170.03591 252.60578 C 170.27877 253.8552 170.7762 254.1907 172.0256 253.94784 C 173.13619 253.73197 173.61053 253.20756 173.42163 252.2358 C 173.28671 251.5417 172.5136 250.8996 171.43194 250.89374 Z" fill="black"/>
        </g>
        <g id="Graphic_64">
          <path d="M 173.57836 274.53592 C 173.131 275.19915 172.98633 276.3078 173.2331 276.8361 C 173.56275 277.42032 174.22989 277.14658 174.845 276.23463 C 175.51603 275.2398 175.68769 274.26998 175.19027 273.93446 C 174.77575 273.65487 174.02571 273.8727 173.57836 274.53592 Z" fill="black"/>
        </g>
        <g id="Graphic_63">
          <path d="M 168.25886 273.48094 C 168.33592 274.6185 168.77547 275.39748 169.05312 275.3435 C 170.02488 275.1546 169.9267 272.79657 168.93185 272.12554 C 168.43442 271.79003 168.0989 272.28745 168.25886 273.48094 Z" fill="black"/>
        </g>
        <g id="Graphic_62">
          <path d="M 174.3879 278.7006 C 174.05238 279.19804 174.14666 282.27718 174.51664 285.6629 C 175.14867 291.87905 174.7205 294.1233 173.06242 293.00492 C 172.565 292.6694 171.98077 292.99907 171.89397 293.66425 C 171.66834 294.3564 172.4665 295.4979 173.65608 296.05903 C 175.34309 296.9557 176.35712 299.20774 177.65822 304.7896 C 179.55689 312.70446 179.29062 315.78165 177.2086 310.9999 C 176.60714 309.388 175.6162 307.99586 175.00693 307.82615 C 172.95742 307.2881 179.59883 320.33193 182.25175 322.12134 C 185.89952 324.5818 187.26467 323.45202 184.98205 319.8618 C 182.61652 316.21567 180.1164 306.6889 177.15396 290.3367 C 175.97054 283.5074 174.66749 278.2861 174.3879 278.7006 Z" fill="black"/>
        </g>
        <g id="Graphic_61">
          <path d="M 217.53915 325.77915 C 216.45555 326.13385 215.28515 327.15373 214.89176 328.0946 C 214.24576 329.58883 214.4675 329.61776 216.58072 328.6307 C 219.44594 327.0653 220.20572 325.04472 217.53915 325.77915 Z" fill="black"/>
        </g>
        <g id="Graphic_60">
          <path d="M 192.92034 344.39512 C 192.05457 345.49985 189.4202 355.6645 189.58015 356.858 C 189.9059 358.1633 191.58544 355.31565 191.9307 353.0155 C 192.01946 351.98975 192.44958 349.38495 192.84882 347.36242 C 193.16515 345.28398 193.19994 343.9806 192.92034 344.39512 Z" fill="black"/>
        </g>
        <g id="Graphic_59">
          <path d="M 184.4983 347.761 C 183.49176 349.2533 179.77183 360.1332 179.4555 362.21163 C 179.19508 364.20717 177.13745 370.29783 173.84764 378.57292 C 171.65314 384.33 171.19018 387.87765 172.858 387.1933 C 174.05345 386.6728 177.4359 376.65085 181.7056 361.55815 C 182.83764 357.37623 184.24927 352.7798 184.89527 351.28556 C 186.0465 348.68466 185.6726 346.02004 184.4983 347.761 Z" fill="black"/>
        </g>
        <g id="Graphic_58">
          <path d="M 186.21329 363.9955 C 183.09904 370.5797 183.2512 373.2154 186.52735 367.46414 C 187.9832 364.9481 188.99755 362.01363 188.83564 361.1807 C 188.50988 359.87536 187.97962 360.48267 186.21329 363.9955 Z" fill="black"/>
        </g>
        <g id="Graphic_57">
          <path d="M 179.45421 382.9577 C 178.78708 383.23146 178.3108 384.1164 178.4727 384.94935 C 178.6346 385.7823 179.13203 386.1178 179.9939 385.73417 C 180.66103 385.46043 181.13732 384.57547 180.97542 383.74253 C 180.8135 382.9096 180.31609 382.5741 179.45421 382.9577 Z" fill="black"/>
        </g>
        <g id="Graphic_56">
          <path d="M 99.37752 194.09013 C 98.82027 194.55862 95.38806 198.39528 91.81508 202.61947 C 88.15919 206.78774 84.05985 210.89814 82.55783 211.69434 C 80.999895 212.57345 80.16306 213.45645 80.577575 213.73605 C 80.99209 214.01565 83.32705 213.05754 85.80278 211.7119 C 89.0305 209.78788 91.67984 207.11187 95.86988 201.6152 C 100.8428 194.95786 102.38546 191.77663 99.37752 194.09013 Z" fill="black"/>
        </g>
        <g id="Graphic_55">
          <path d="M 80.21831 192.98802 C 79.09992 194.6461 78.95525 195.75473 79.78428 196.31392 C 80.61332 196.87311 81.58703 196.32367 82.70542 194.6656 C 83.82381 193.00752 83.96848 191.89889 83.13944 191.3397 C 82.3104 190.7805 81.33669 191.32994 80.21831 192.98802 Z" fill="black"/>
        </g>
        <g id="Graphic_54">
          <path d="M 83.10402 203.0161 C 82.20931 204.34257 80.67445 206.0816 79.55997 207.01858 C 77.83232 208.50694 77.94221 208.70169 79.63507 208.5167 C 82.96487 208.22962 87.43256 202.67897 85.35997 201.28098 C 84.94545 201.00139 83.9428 201.77256 83.10402 203.0161 Z" fill="black"/>
        </g>
      </g>
    </g>
  </g>
</svg>
