<?xml version="1.0" encoding="UTF-8" standalone="no"?>
<!DOCTYPE svg PUBLIC "-//W3C//DTD SVG 1.1//EN" "http://www.w3.org/Graphics/SVG/1.1/DTD/svg11.dtd">
<svg xmlns:xl="http://www.w3.org/1999/xlink" version="1.1" xmlns="http://www.w3.org/2000/svg" xmlns:dc="http://purl.org/dc/elements/1.1/" viewBox="54 63 184.5 351" width="184.5" height="351">
  <defs>
    <clipPath id="artboard_clip_path">
      <path d="M 54 63 L 238.5 63 L 238.5 360 L 212.95385 414 L 54 414 Z"/>
    </clipPath>
    <clipPath id="inner_stroke_clip_path">
      <path d="M 230.52082 225.10303 C 227.21018 219.60575 222.06756 211.05915 219.1527 206.09784 C 215.88454 200.53516 212.69193 195.85838 210.86204 193.87969 L 207.85963 190.62816 L 206.35102 183.0003 C 204.47556 173.6465 202.56594 168.64064 197.61144 160.44865 C 185.39444 140.10184 170.01086 122.62663 144.71824 100.43657 C 133.70055 90.77111 124.32541 84.58984 112.76522 79.26762 C 98.88841 72.85939 75.99471 64.87266 73.19005 65.46881 C 69.84604 66.1796 63.30807 74.67223 63.91568 77.53082 C 63.973 77.8005 65.066566 77.90629 66.330015 77.75048 C 68.36003 77.488105 68.84884 77.66607 70.97134 79.69531 C 74.71269 83.24074 76.11318 86.38178 77.30625 93.85123 C 77.87817 97.3375 79.02538 104.5912 79.89068 109.98816 C 81.49177 119.90763 81.59781 123.32382 80.4477 124.80848 C 79.95758 125.42001 79.59958 125.32699 78.6118 124.12763 C 76.92078 122.00668 73.85481 115.27357 70.59995 106.32571 C 67.06524 96.59175 63.953416 89.64289 62.519306 88.20017 C 60.03541 85.79677 57.94754 88.43909 56.553005 95.66933 C 55.1814 103.00744 55.36691 104.94105 58.539156 119.60009 C 61.78358 134.8639 63.83754 141.07927 69.49475 152.84247 C 76.63739 167.61592 84.44603 180.2184 102.57274 206.35563 C 113.5456 222.17523 123.60623 237.68137 129.68138 248.2283 C 137.30398 261.54678 138.09424 263.4082 140.54762 274.95045 C 143.001 286.4927 143.04633 289.35806 140.96886 297.35356 C 138.44584 306.9658 132.88601 313.16475 124.6831 315.4157 C 117.69777 317.29507 112.07153 317.08165 98.01153 314.3202 C 91.12783 312.96475 85.39502 311.98477 85.32154 312.1695 C 85.18267 312.31177 85.3257 314.31077 85.63394 316.55653 C 86.6639 324.84986 91.07487 331.0152 99.59304 336.08207 L 105.08326 339.3685 L 103.7815 341.731 C 99.76835 348.84137 101.63419 354.70213 109.30215 359.21686 L 112.14536 360.9238 L 111.36889 364.69667 C 110.8957 366.7139 110.63019 368.9125 110.7563 369.5058 C 111.24926 371.82504 113.692 373.50435 119.04256 375.07293 C 121.98349 375.9135 124.51247 376.6725 124.64327 376.75746 C 124.7626 376.78847 124.50308 377.6892 124.05075 378.7437 C 122.71329 381.73387 122.05615 385.53776 122.50326 387.64125 C 123.35162 391.6325 127.82645 394.12007 134.3042 394.0961 L 137.23496 394.09326 L 138.47234 398.0582 C 139.8129 402.50854 142.01774 405.98596 144.73353 407.8891 C 147.17627 409.5684 153.73843 412.0633 154.12067 411.4747 C 154.88515 410.2975 155.92221 400.3246 156.46839 389.1031 C 157.13912 374.75467 157.654 370.8119 159.70384 363.21688 C 161.58718 356.1646 163.8947 351.10795 173.0508 333.7157 C 176.96416 326.40103 182.12196 316.45422 184.64862 311.63285 C 187.83996 305.43 189.45387 302.9448 190.08156 302.9805 C 199.93172 303.7054 206.7667 301.91436 212.70146 297.21416 C 216.16065 294.3931 217.91813 291.2573 218.85095 286.09822 C 219.376 282.99888 219.26604 281.95117 217.48436 274.0995 C 215.90566 266.9375 215.0513 264.2441 212.31572 258.0045 C 210.5356 253.87307 209.13172 250.4509 209.16273 250.33155 C 209.2052 250.26615 211.50958 249.4381 214.19152 248.5298 C 221.04266 246.28434 224.50392 244.53392 229.94857 240.44525 C 232.46662 238.5007 235.09593 236.81438 235.74315 236.6768 C 236.39038 236.53924 236.86095 236.10098 236.73823 235.78883 C 236.65798 235.41128 233.8854 230.58885 230.52082 225.10303 Z"/>
    </clipPath>
  </defs>
  <g id="Salmon_Haurient" stroke-opacity="1" stroke="none" fill="none" fill-opacity="1" stroke-dasharray="none">
    <title>Salmon Haurient</title>
    <g id="Salmon_Haurient_Art" clip-path="url(#artboard_clip_path)">
      <title>Art</title>
      <g id="Group_70">
        <g id="Graphic_73">
          <path d="M 230.52082 225.10303 C 227.21018 219.60575 222.06756 211.05915 219.1527 206.09784 C 215.88454 200.53516 212.69193 195.85838 210.86204 193.87969 L 207.85963 190.62816 L 206.35102 183.0003 C 204.47556 173.6465 202.56594 168.64064 197.61144 160.44865 C 185.39444 140.10184 170.01086 122.62663 144.71824 100.43657 C 133.70055 90.77111 124.32541 84.58984 112.76522 79.26762 C 98.88841 72.85939 75.99471 64.87266 73.19005 65.46881 C 69.84604 66.1796 63.30807 74.67223 63.91568 77.53082 C 63.973 77.8005 65.066566 77.90629 66.330015 77.75048 C 68.36003 77.488105 68.84884 77.66607 70.97134 79.69531 C 74.71269 83.24074 76.11318 86.38178 77.30625 93.85123 C 77.87817 97.3375 79.02538 104.5912 79.89068 109.98816 C 81.49177 119.90763 81.59781 123.32382 80.4477 124.80848 C 79.95758 125.42001 79.59958 125.32699 78.6118 124.12763 C 76.92078 122.00668 73.85481 115.27357 70.59995 106.32571 C 67.06524 96.59175 63.953416 89.64289 62.519306 88.20017 C 60.03541 85.79677 57.94754 88.43909 56.553005 95.66933 C 55.1814 103.00744 55.36691 104.94105 58.539156 119.60009 C 61.78358 134.8639 63.83754 141.07927 69.49475 152.84247 C 76.63739 167.61592 84.44603 180.2184 102.57274 206.35563 C 113.5456 222.17523 123.60623 237.68137 129.68138 248.2283 C 137.30398 261.54678 138.09424 263.4082 140.54762 274.95045 C 143.001 286.4927 143.04633 289.35806 140.96886 297.35356 C 138.44584 306.9658 132.88601 313.16475 124.6831 315.4157 C 117.69777 317.29507 112.07153 317.08165 98.01153 314.3202 C 91.12783 312.96475 85.39502 311.98477 85.32154 312.1695 C 85.18267 312.31177 85.3257 314.31077 85.63394 316.55653 C 86.6639 324.84986 91.07487 331.0152 99.59304 336.08207 L 105.08326 339.3685 L 103.7815 341.731 C 99.76835 348.84137 101.63419 354.70213 109.30215 359.21686 L 112.14536 360.9238 L 111.36889 364.69667 C 110.8957 366.7139 110.63019 368.9125 110.7563 369.5058 C 111.24926 371.82504 113.692 373.50435 119.04256 375.07293 C 121.98349 375.9135 124.51247 376.6725 124.64327 376.75746 C 124.7626 376.78847 124.50308 377.6892 124.05075 378.7437 C 122.71329 381.73387 122.05615 385.53776 122.50326 387.64125 C 123.35162 391.6325 127.82645 394.12007 134.3042 394.0961 L 137.23496 394.09326 L 138.47234 398.0582 C 139.8129 402.50854 142.01774 405.98596 144.73353 407.8891 C 147.17627 409.5684 153.73843 412.0633 154.12067 411.4747 C 154.88515 410.2975 155.92221 400.3246 156.46839 389.1031 C 157.13912 374.75467 157.654 370.8119 159.70384 363.21688 C 161.58718 356.1646 163.8947 351.10795 173.0508 333.7157 C 176.96416 326.40103 182.12196 316.45422 184.64862 311.63285 C 187.83996 305.43 189.45387 302.9448 190.08156 302.9805 C 199.93172 303.7054 206.7667 301.91436 212.70146 297.21416 C 216.16065 294.3931 217.91813 291.2573 218.85095 286.09822 C 219.376 282.99888 219.26604 281.95117 217.48436 274.0995 C 215.90566 266.9375 215.0513 264.2441 212.31572 258.0045 C 210.5356 253.87307 209.13172 250.4509 209.16273 250.33155 C 209.2052 250.26615 211.50958 249.4381 214.19152 248.5298 C 221.04266 246.28434 224.50392 244.53392 229.94857 240.44525 C 232.46662 238.5007 235.09593 236.81438 235.74315 236.6768 C 236.39038 236.53924 236.86095 236.10098 236.73823 235.78883 C 236.65798 235.41128 233.8854 230.58885 230.52082 225.10303 Z" fill="#FFFFFF"/>
          <path d="M 230.52082 225.10303 C 227.21018 219.60575 222.06756 211.05915 219.1527 206.09784 C 215.88454 200.53516 212.69193 195.85838 210.86204 193.87969 L 207.85963 190.62816 L 206.35102 183.0003 C 204.47556 173.6465 202.56594 168.64064 197.61144 160.44865 C 185.39444 140.10184 170.01086 122.62663 144.71824 100.43657 C 133.70055 90.77111 124.32541 84.58984 112.76522 79.26762 C 98.88841 72.85939 75.99471 64.87266 73.19005 65.46881 C 69.84604 66.1796 63.30807 74.67223 63.91568 77.53082 C 63.973 77.8005 65.066566 77.90629 66.330015 77.75048 C 68.36003 77.488105 68.84884 77.66607 70.97134 79.69531 C 74.71269 83.24074 76.11318 86.38178 77.30625 93.85123 C 77.87817 97.3375 79.02538 104.5912 79.89068 109.98816 C 81.49177 119.90763 81.59781 123.32382 80.4477 124.80848 C 79.95758 125.42001 79.59958 125.32699 78.6118 124.12763 C 76.92078 122.00668 73.85481 115.27357 70.59995 106.32571 C 67.06524 96.59175 63.953416 89.64289 62.519306 88.20017 C 60.03541 85.79677 57.94754 88.43909 56.553005 95.66933 C 55.1814 103.00744 55.36691 104.94105 58.539156 119.60009 C 61.78358 134.8639 63.83754 141.07927 69.49475 152.84247 C 76.63739 167.61592 84.44603 180.2184 102.57274 206.35563 C 113.5456 222.17523 123.60623 237.68137 129.68138 248.2283 C 137.30398 261.54678 138.09424 263.4082 140.54762 274.95045 C 143.001 286.4927 143.04633 289.35806 140.96886 297.35356 C 138.44584 306.9658 132.88601 313.16475 124.6831 315.4157 C 117.69777 317.29507 112.07153 317.08165 98.01153 314.3202 C 91.12783 312.96475 85.39502 311.98477 85.32154 312.1695 C 85.18267 312.31177 85.3257 314.31077 85.63394 316.55653 C 86.6639 324.84986 91.07487 331.0152 99.59304 336.08207 L 105.08326 339.3685 L 103.7815 341.731 C 99.76835 348.84137 101.63419 354.70213 109.30215 359.21686 L 112.14536 360.9238 L 111.36889 364.69667 C 110.8957 366.7139 110.63019 368.9125 110.7563 369.5058 C 111.24926 371.82504 113.692 373.50435 119.04256 375.07293 C 121.98349 375.9135 124.51247 376.6725 124.64327 376.75746 C 124.7626 376.78847 124.50308 377.6892 124.05075 378.7437 C 122.71329 381.73387 122.05615 385.53776 122.50326 387.64125 C 123.35162 391.6325 127.82645 394.12007 134.3042 394.0961 L 137.23496 394.09326 L 138.47234 398.0582 C 139.8129 402.50854 142.01774 405.98596 144.73353 407.8891 C 147.17627 409.5684 153.73843 412.0633 154.12067 411.4747 C 154.88515 410.2975 155.92221 400.3246 156.46839 389.1031 C 157.13912 374.75467 157.654 370.8119 159.70384 363.21688 C 161.58718 356.1646 163.8947 351.10795 173.0508 333.7157 C 176.96416 326.40103 182.12196 316.45422 184.64862 311.63285 C 187.83996 305.43 189.45387 302.9448 190.08156 302.9805 C 199.93172 303.7054 206.7667 301.91436 212.70146 297.21416 C 216.16065 294.3931 217.91813 291.2573 218.85095 286.09822 C 219.376 282.99888 219.26604 281.95117 217.48436 274.0995 C 215.90566 266.9375 215.0513 264.2441 212.31572 258.0045 C 210.5356 253.87307 209.13172 250.4509 209.16273 250.33155 C 209.2052 250.26615 211.50958 249.4381 214.19152 248.5298 C 221.04266 246.28434 224.50392 244.53392 229.94857 240.44525 C 232.46662 238.5007 235.09593 236.81438 235.74315 236.6768 C 236.39038 236.53924 236.86095 236.10098 236.73823 235.78883 C 236.65798 235.41128 233.8854 230.58885 230.52082 225.10303 Z" stroke="black" stroke-linecap="round" stroke-linejoin="round" stroke-width="2.2932116" clip-path="url(#inner_stroke_clip_path)"/>
        </g>
        <g id="Graphic_72">
          <path d="M 113.82977 101.6253 C 113.17764 103.91503 110.53317 106.05884 108.5537 105.97344 C 107.0237 105.91904 102.77936 103.21491 100.65223 100.94651 C 98.69762 98.89452 98.40169 97.50225 99.05295 93.12485 C 99.69514 89.00244 100.9526 86.58404 102.76861 86.19804 C 104.34247 85.8635 110.72828 90.01049 112.59135 92.52483 C 114.09649 94.54583 114.64303 98.60536 113.82977 101.6253 Z" fill="#FFFFFF"/>
        </g>
        <g id="Graphic_71">
          <path d="M 110.46842 359.69784 L 112.26141 360.52598 L 111.40663 364.4628 C 110.55422 368.38924 110.55279 368.40335 111.05509 369.80926 C 111.40326 370.78487 111.93373 371.55244 112.77745 372.3018 C 113.9789 373.36856 114.07739 373.4062 119.5033 374.87505 C 124.14354 376.131 124.98315 376.42246 124.83807 376.7279 C 123.47592 379.60188 123.06107 380.8315 122.59235 383.38486 C 122.12126 385.9502 122.11418 386.39213 122.5189 387.7543 C 123.70314 391.7385 127.9384 393.93045 134.07746 393.7369 C 135.6444 393.68747 136.9985 393.6639 137.0868 393.68188 C 137.175 393.70105 137.60472 394.9753 138.042 396.5136 C 139.10594 400.257 139.68643 401.63375 141.14526 403.87117 C 142.99831 406.7134 145.80597 408.73366 149.9717 410.2221 L 149.97113 410.2215 C 150.82913 410.5283 152.14542 410.92755 152.89605 411.1096 L 154.26101 411.44015 L 154.61908 409.0222 C 155.83652 400.8028 155.93102 399.671 156.53861 386.03405 C 157.05117 374.53116 157.39618 371.55395 158.96392 365.11176 C 161.03955 356.58237 162.91601 352.34237 172.58058 334.3437 C 174.29315 331.15424 178.64957 322.81467 182.26142 315.81135 C 185.87333 308.80808 188.9289 303.01536 189.05254 302.9397 C 189.17574 302.86355 190.4784 302.8577 191.94735 302.9265 C 199.87231 303.2979 205.8027 301.82937 211.21583 298.15495 C 215.3857 295.3244 217.25085 292.58235 218.3156 287.7082 C 219.99754 280.01943 218.01265 271.0738 211.2633 255.92328 C 210.32686 253.82103 209.41497 251.65738 209.23504 251.11567 L 208.90947 250.1301 L 209.58556 249.88672 C 209.9576 249.75345 212.1203 249.05278 214.39156 248.3301 C 222.02494 245.9013 225.4601 244.08815 229.93413 240.1264 C 232.5277 237.8297 234.07033 236.93642 235.74402 236.7596 C 236.26332 236.70496 236.71179 236.55927 236.7384 236.4345 C 236.8439 235.94898 234.19057 231.3214 227.55689 220.42108 C 219.67132 207.46378 218.48389 205.46933 215.7356 200.5498 C 213.8268 197.13422 212.31897 195.22423 209.54155 192.70378 C 207.9202 191.23243 207.24169 189.87094 206.9237 187.45112 C 205.8358 179.2738 204.11557 171.68114 199.51275 163.71786 C 184.21428 137.24982 163.4126 116.09562 136.884 93.99592 C 128.68865 87.16875 119.8062 82.57065 109.24222 77.77882 C 101.21359 74.13701 86.15831 68.75515 76.50739 66.07697 C 74.53317 65.52908 73.64808 65.38815 73.11738 65.536696 C 71.270456 66.0541 65.96609 71.80336 64.63295 74.73271 C 63.9869 76.15222 63.76822 77.86214 64.181636 78.26111 C 64.30966 78.38461 65.30811 78.28768 66.40034 78.04559 L 68.38617 77.60554 L 70.32758 79.15586 C 72.38389 80.79811 74.56156 83.62259 75.45013 85.7992 C 77.17155 90.01741 78.59192 97.7747 78.48014 102.34804 C 78.4274 104.50731 78.85934 106.81277 79.81313 109.45119 C 80.68351 111.86072 81.17946 114.78735 81.32786 118.38672 C 81.48915 122.30518 81.36262 123.72864 80.76177 124.74808 C 80.04616 125.96219 79.50267 125.6686 78.02077 123.26688 C 75.51321 119.20323 73.77542 115.20077 70.80319 106.65849 C 67.68623 97.69527 63.93642 89.28939 62.539954 88.13431 C 60.95134 86.82028 59.44832 87.40675 58.386884 89.75468 C 57.349025 92.05066 55.812186 99.49903 55.8477 102.06197 C 55.93126 108.10766 56.914607 114.67273 58.98051 122.97714 C 62.6492 137.72468 66.35647 147.41343 73.11042 159.9049 C 80.62135 173.79676 85.69863 182.07298 93.63112 193.35478 C 111.65914 218.99484 123.2864 236.6958 130.75383 249.87 C 136.39466 259.82144 138.41892 264.4515 140.36695 271.85765 C 143.1665 282.5014 143.15344 291.68916 140.32751 299.66743 C 138.53696 304.7224 136.64803 307.70722 133.33253 310.7201 C 129.04613 314.61538 123.85767 316.28583 115.48835 316.4652 C 110.14232 316.57962 109.34438 316.47106 97.08024 313.95428 C 90.58109 312.6205 85.25715 311.54493 85.25531 311.5673 C 85.18096 311.9103 85.57025 315.697 85.8504 317.35313 C 86.41807 320.7095 87.40842 323.4063 89.07507 326.13295 C 92.13298 331.1364 95.99109 334.38526 102.62229 337.5408 C 104.42993 338.40093 105.21793 338.89693 105.08968 339.09335 C 103.41711 341.645 102.60107 343.51114 102.05194 346.03994 C 101.53107 348.4388 101.50629 348.93233 101.83498 350.36315 C 102.62036 353.78192 106.31951 357.78155 110.46837 359.6978 L 110.46842 359.69784 Z M 117.60538 354.71525 L 117.60533 354.71445 C 114.95899 356.77383 112.66057 358.42706 112.49724 358.3887 C 111.77991 358.2196 107.91298 354.94293 107.10237 353.81713 C 105.94298 352.20732 105.15297 350.395 105.30499 349.69446 C 105.39377 349.28636 106.85134 348.41468 110.79931 346.40894 C 119.66883 341.903 135.60922 333.2291 139.54726 330.76564 C 141.6566 329.44613 143.02348 328.06032 142.35813 327.9159 C 141.64909 327.76197 138.64022 329.01702 119.52037 337.44204 C 112.6824 340.4551 106.94924 342.8904 106.77998 342.85353 C 106.55753 342.80523 106.64502 342.11636 107.10432 340.33117 L 107.7363 337.8756 L 104.21388 335.81295 C 94.59829 330.18245 91.08339 325.72365 89.66732 317.35992 C 89.2359 314.81467 89.17999 313.67093 89.4888 313.73795 C 89.55105 313.7514 90.93483 314.4118 92.56381 315.20535 C 98.02775 317.86724 101.79228 319.1885 107.3501 320.39527 C 112.96853 321.61517 115.47362 321.87377 119.96286 321.6972 C 125.3356 321.48604 129.14965 320.3517 133.93495 317.54287 C 136.38515 316.10456 136.78901 315.94905 137.115 316.31812 C 137.32046 316.5507 138.45522 318.0849 139.63696 319.72736 C 142.77254 324.08584 146.63332 327.92452 152.33819 332.35585 C 153.5917 333.32965 154.49644 334.19235 154.34964 334.275 C 154.20251 334.35752 152.18565 335.0503 149.86797 335.8151 C 138.9972 339.40213 132.06745 343.46175 117.60538 354.71525 Z M 163.47794 335.8515 L 163.47786 335.85176 C 163.03579 336.42436 162.66872 336.64207 162.28916 336.5566 C 160.80865 336.22232 152.05796 329.49923 148.76279 326.16432 C 146.10411 323.47352 142.06319 318.6881 140.3333 316.18135 L 138.88062 314.07643 L 140.13206 312.1747 C 142.21479 309.00957 141.90263 308.9475 144.706 313.08375 C 147.26645 316.86163 148.88305 318.89544 150.98738 320.986 C 152.95113 322.9369 157.7797 326.72247 161.54329 329.26167 C 163.41995 330.5278 165.02429 331.64936 165.10479 331.75605 C 165.33483 332.0523 164.19501 334.92156 163.47794 335.8515 Z M 147.42005 303.8039 L 147.42089 303.80544 C 152.3687 312.865 159.26182 318.57533 169.045 321.7189 C 171.48992 322.50472 171.57692 322.71936 170.35617 324.95415 C 169.82377 325.92884 168.21002 328.24636 168.21002 328.24636 C 167.1226 329.64908 166.96964 329.75196 166.23029 329.57552 C 165.78962 329.47033 164.23652 328.6003 162.77905 327.64214 C 155.64503 322.95196 151.91642 319.1788 146.83713 311.5097 C 143.79596 306.91797 143.69954 306.62378 144.45453 304.2447 C 144.78119 303.21535 145.20845 302.01064 145.40375 301.5677 L 145.75898 300.76232 L 147.42005 303.8039 C 147.42033 303.80442 147.4206 303.80493 147.42089 303.80544 Z M 149.52694 296.94247 L 149.52837 296.94444 C 155.85845 305.64893 160.19305 309.29735 169.8397 314.0403 C 173.97734 316.07473 173.98379 316.07903 173.88439 316.84315 C 173.82962 317.26405 173.49932 318.21417 173.1506 318.9546 L 172.51644 320.3007 L 170.57931 319.92853 C 165.52043 318.95637 159.47837 315.4084 155.32935 310.97353 C 153.53441 309.05476 148.18906 300.6671 147.16812 298.167 C 146.56612 296.6929 146.53597 296.38582 146.87466 295.1693 L 147.25183 293.8139 C 147.25183 293.8139 149.5279 296.94378 149.52694 296.94247 L 149.52694 296.94247 C 149.52742 296.94313 149.5279 296.94378 149.52837 296.94444 L 149.52837 296.94444 Z M 175.43037 313.58155 L 175.43037 313.58155 C 174.93141 314.17486 173.41918 313.71943 169.89644 311.91487 C 162.47558 308.1135 157.24873 303.45664 151.4765 295.50372 C 147.73288 290.3459 147.3541 289.62943 147.28807 287.5834 C 147.25538 286.56924 147.3026 285.6946 147.39095 285.63496 C 147.48033 285.57744 148.08506 286.23997 148.73513 287.107 C 153.40484 293.33682 156.46017 296.58603 160.9831 300.13195 C 164.713 303.05622 168.55316 305.4652 173.21675 307.8064 C 175.0231 308.71322 176.62385 309.6436 176.77305 309.8742 C 176.99585 310.21726 176.92914 310.55527 176.40565 311.73776 C 176.054 312.53222 175.61528 313.36196 175.43045 313.58155 L 175.43037 313.58156 Z M 196.11077 297.91015 L 196.11046 297.91018 C 194.87595 297.86117 193.431 297.72687 192.89955 297.61175 C 191.69663 297.35098 191.69818 297.34144 193.6059 293.40194 C 195.37906 289.74037 198.5245 282.1884 200.18344 277.60993 C 201.1624 274.9078 201.79097 272.47074 203.3274 265.40983 C 204.3837 260.55697 205.32784 256.6035 205.4255 256.62485 C 205.63625 256.6704 209.98416 264.1706 211.68794 267.4274 C 215.328 274.38573 216.5912 281.27438 215.29816 287.0972 C 214.6252 290.12468 213.75767 291.7885 211.8608 293.6894 C 208.8356 296.72115 203.3303 298.19634 196.11077 297.91015 Z M 177.33219 286.28243 L 177.33246 286.28324 C 176.15081 286.6018 174.5022 286.1425 172.92679 285.0557 C 169.72793 282.849 169.198 280.3589 170.5769 274.01465 C 171.11563 271.53605 171.31086 271.02518 172.13375 269.94166 C 173.2434 268.48058 173.4068 267.8782 173.22683 265.91604 C 173.15252 265.10967 173.15108 264.41767 173.22379 264.3767 C 173.29612 264.3364 174.36366 264.69207 175.59598 265.16716 C 178.18443 266.1649 180.59615 266.52587 182.6501 266.22266 C 184.19114 265.99498 185.89969 265.09285 186.48143 264.19932 C 187.03506 263.34912 187.4923 260.92263 187.44912 259.06192 C 187.4284 258.16713 187.43641 257.30584 187.4644 257.14756 C 187.50025 256.95218 188.20737 257.16913 189.66865 257.82378 C 192.384 259.03927 193.15933 259.20804 194.2001 258.8056 C 195.10445 258.45573 196.56608 257.37266 197.2842 256.5202 C 197.53044 256.22596 197.77237 256.0445 197.8157 256.11626 C 198.08439 256.53397 189.22904 282.31026 188.15434 284.2387 C 187.2819 285.80426 182.46082 281.63797 181.6682 278.6336 C 181.20724 276.88644 181.94258 274.49682 183.20246 273.64785 C 183.7111 273.30503 184.40084 273.01455 184.73622 273.0049 C 185.98434 272.96546 186.17476 271.33052 184.9604 271.06684 C 183.6123 270.77406 182.85727 271.07747 181.81741 272.32993 C 180.37759 274.0639 179.968 276.156 180.51438 278.9852 C 180.73663 280.1357 180.8934 281.52323 180.86351 282.0686 C 180.76372 283.87276 179.15677 285.79048 177.33219 286.28243 Z M 153.22229 275.24994 L 153.22316 275.25067 C 151.91645 275.70365 151.14675 275.4566 147.87897 273.53534 C 145.05433 271.87453 145.00245 271.8272 144.6598 270.59948 C 144.46768 269.91342 143.51104 267.18975 142.5333 264.54716 C 141.55619 261.90437 140.77593 259.65184 140.79981 259.5414 C 140.82358 259.43032 141.32667 259.21162 141.9174 259.05365 C 142.50781 258.89515 143.86216 258.2637 144.92632 257.6489 L 146.86157 256.53167 L 148.80034 259.0666 C 149.86666 260.46082 151.87234 263.15647 153.25755 265.05682 C 155.65525 268.34684 155.7712 268.5709 155.68037 269.7405 C 155.43225 272.93117 154.61237 274.76638 153.22229 275.24994 Z M 166.6068 270.01896 L 166.60678 270.01975 C 164.55378 270.01445 160.97274 269.13474 159.25837 268.21445 C 156.3069 266.6301 154.6467 264.56786 150.88026 257.7987 L 148.78858 254.03805 L 149.07737 251.8423 C 149.23488 250.63434 149.4926 249.4232 149.64899 249.15103 C 149.93177 248.65846 149.94174 248.6614 151.51468 249.70083 C 153.9581 251.31538 158.65824 253.72685 161.02724 254.5814 C 163.02086 255.3003 163.26122 255.33378 164.54126 255.071 L 165.9152 254.78872 L 167.46504 256.92812 C 170.32861 260.88092 171.49137 265.001 170.50936 267.7151 C 169.98833 269.15524 168.51708 270.0237 166.6068 270.01896 Z M 180.32804 263.70647 L 180.3284 263.7056 C 178.60476 263.83597 175.6412 263.20586 174.24728 262.41385 C 172.68366 261.5253 171.28734 260.1144 170.57368 258.70103 C 169.3021 256.1833 168.05513 252.17512 168.0736 250.66275 C 168.08342 249.8542 168.08272 248.41697 168.07268 247.46884 C 168.0632 246.5209 168.13457 245.6953 168.23082 245.63126 C 168.32806 245.5687 169.20112 245.9048 170.17104 246.37797 C 174.60645 248.54214 177.61145 249.77595 179.3849 250.1611 L 181.30692 250.5784 L 182.29608 252.4772 C 184.40707 256.52944 184.46346 260.75806 182.43499 262.8914 C 181.93038 263.42174 181.40303 263.62558 180.32804 263.70647 Z M 144.33015 234.35929 L 144.33015 234.35929 C 144.77347 233.80766 145.18703 233.1228 145.24903 232.83707 C 145.31107 232.55146 145.50663 231.98522 145.68377 231.57905 L 146.00571 230.84033 L 147.02188 231.40354 C 149.30835 232.67173 152.5547 233.36896 155.31466 233.18515 C 156.17866 233.12764 159.0528 236.59228 162.13805 241.41043 C 165.0507 245.95875 165.94627 248.15148 165.70908 250.15204 C 165.57671 251.26848 165.45227 251.50195 164.7496 251.9541 L 164.74993 251.95368 C 164.05641 252.3998 163.73324 252.42178 162.45583 252.11888 C 161.6381 251.92412 160.74807 251.6631 160.47876 251.53822 C 156.14975 249.5394 153.1113 247.43232 150.2583 244.45062 C 148.70038 242.82245 145.33413 238.38042 144.10442 236.33024 L 143.52407 235.36228 L 144.33015 234.35929 L 144.33016 234.35927 Z M 193.0616 256.65 L 193.06169 256.6499 C 190.56261 257.02636 186.80897 254.45107 184.24641 250.60197 C 182.94604 248.64836 182.76237 248.06913 182.65723 245.58914 C 182.58555 243.89552 181.99698 239.7064 181.3247 236.10485 C 181.27946 235.86272 182.18143 236.0165 184.83853 236.70466 C 192.17117 238.60348 195.17993 237.74474 195.73833 233.59372 C 196.0241 231.46914 195.02453 227.20502 193.27698 223.0947 C 190.77833 217.21806 190.44502 216.23008 189.88944 213.05117 C 189.5794 211.27735 189.09153 208.98994 188.805 207.96816 C 188.51832 206.94643 188.30185 206.02895 188.32354 205.92934 C 188.34505 205.82973 189.0146 205.68036 189.81149 205.59953 C 193.03798 205.26827 194.35366 204.57308 196.06687 202.29447 C 196.90035 201.18592 197.03926 200.80447 197.38728 198.66913 C 197.69875 196.75817 197.69642 195.48583 197.37644 192.28381 C 197.0774 189.2924 197.06158 187.7162 197.3135 186.02757 C 197.65497 183.7389 198.23502 181.94796 198.6087 182.02922 C 198.91494 182.09574 199.50935 184.3184 200.48535 189.0468 C 203.38174 203.07925 204.17613 217.1661 202.8803 231.5204 C 202.4788 235.96972 200.3117 247.14312 199.3191 249.8827 C 198.02096 253.46572 195.40267 256.2974 193.0616 256.65 Z M 178.41687 246.0195 L 178.41673 246.01848 C 177.51445 246.23952 176.61798 246.16375 173.91298 245.63723 C 169.47071 244.77282 167.71418 243.86832 164.8117 240.9506 C 163.35593 239.4872 158.55198 233.46583 158.01478 232.43183 C 157.80686 232.03046 157.89966 231.25508 158.40634 229.18154 C 159.36444 225.26022 159.07752 225.45127 161.8609 226.88137 C 165.09852 228.5448 169.52415 229.555 171.3538 229.0481 C 172.0187 228.86509 172.82644 228.77193 173.1493 228.84183 C 174.37698 229.1084 178.636 237.24626 179.6205 241.20666 C 179.9646 242.59057 180.01952 243.47868 179.8194 244.43018 C 179.55124 245.70724 179.51198 245.75107 178.41687 246.0195 Z M 211.5745 245.96558 L 211.57447 245.96552 C 209.05116 246.82097 206.84552 247.4902 206.67303 247.45266 C 206.17844 247.34525 206.19384 246.85064 206.85041 241.7618 C 207.6354 235.67765 208.26048 229.11305 208.55092 223.904 C 208.8836 217.93852 208.8512 217.9881 210.7012 220.61119 C 212.93044 223.77195 216.66904 227.85691 223.99277 235.1344 C 225.48332 236.61554 226.79146 237.99838 226.9 238.20703 C 227.04677 238.4898 226.31964 239.06624 224.05552 240.46226 C 220.45766 242.68093 217.77226 243.86502 211.5745 245.96558 Z M 170.36562 199.16586 C 171.89654 192.077 169.36774 185.3253 162.54895 178.29598 C 159.53111 175.18507 158.85693 174.7213 158.0792 175.22147 C 157.31702 175.71164 157.56733 176.16431 160.47064 179.5486 C 163.66834 183.27598 165.73216 186.4138 166.73245 189.06778 C 167.4375 190.93858 168.05831 193.64468 167.9242 194.2622 C 167.89217 194.40952 166.37838 194.18748 164.19817 193.71592 C 160.28743 192.86992 158.47834 192.6626 158.625 193.07684 C 158.6745 193.2172 158.91746 193.37577 159.16437 193.4294 C 159.7519 193.55695 162.91489 196.04106 165.2781 198.23087 C 166.30784 199.18515 167.35741 200.06955 167.60994 200.19625 L 167.61096 200.19572 C 167.86375 200.32245 168.50232 200.53391 169.03018 200.66576 L 169.98995 200.90537 L 170.3656 199.16595 Z M 177.94063 188.76533 L 177.94052 188.765 C 183.63557 191.32221 183.67123 191.32096 184.27366 188.5466 C 185.66845 182.12302 182.68443 174.51181 176.13632 167.79128 C 172.99124 164.56341 164.75777 158.49072 163.01266 158.11182 C 162.5225 158.00547 162.29389 158.16687 161.88342 158.90974 C 160.88611 160.71415 160.81015 160.6084 164.10592 162.00367 C 169.26708 164.1887 175.40304 169.62623 178.97156 175.17723 C 181.2253 178.68317 181.80992 180.64173 181.1857 182.5936 C 180.84226 183.66703 180.5779 184.00085 179.5592 184.64742 C 178.89028 185.07235 177.4321 185.70027 176.31883 186.0432 C 175.20553 186.38617 174.29704 186.77155 174.29886 186.89943 C 174.30107 187.02726 175.9399 187.86695 177.94063 188.76533 Z M 188.97493 234.34253 L 188.97449 234.34289 C 186.73175 234.75797 180.0567 232.36383 177.88594 230.36575 C 176.78418 229.35098 175.73048 227.4642 175.4691 226.03778 C 175.37732 225.5371 175.32484 224.40842 175.35268 223.5296 C 175.41825 221.46882 174.84142 219.03122 173.66957 216.41035 C 173.1556 215.26064 172.85867 214.3064 173.00922 214.29025 C 173.15987 214.27396 174.52678 214.8352 176.0468 215.53744 C 180.30477 217.50476 186.62399 219.9607 187.53924 220.00381 C 187.9916 220.02504 188.66884 220.0318 189.044 220.01752 C 189.66448 219.9948 189.79614 220.1984 190.4989 222.27032 C 191.62644 225.5938 192.37312 230.76733 191.984 232.55958 C 191.8447 233.20112 190.3469 234.08868 188.97493 234.34253 Z M 90.53282 165.5591 L 90.53257 165.55918 C 85.6404 164.89548 80.979 163.83962 80.07933 163.19135 C 79.37602 162.68426 79.01137 161.8611 79.42677 161.71735 C 79.54004 161.67824 81.87085 161.68282 84.60639 161.72752 C 109.24467 162.1299 123.74595 155.72111 131.06928 141.19338 C 133.24916 136.86918 135.07055 128.03584 135.19602 121.18011 C 135.28054 116.56266 134.97603 110.27009 134.40746 104.8906 C 134.10672 102.04418 133.9581 99.65262 134.07722 99.57591 C 135.14223 98.8909 138.36494 107.3937 139.72386 114.47406 C 142.60044 129.46219 140.18653 142.79053 132.97738 151.72515 C 124.15938 162.65371 107.98227 167.92636 90.53282 165.5591 Z M 82.30595 158.654 L 82.30404 158.65652 C 77.22972 158.3908 77.3008 158.41884 75.93698 156.12673 C 74.41204 153.56202 71.523096 147.74476 69.77181 143.7086 C 65.98889 134.99073 63.447385 125.08271 61.53539 111.59907 C 60.1575 101.88226 59.93067 97.2211 60.69754 94.37752 C 61.249414 92.3306 61.84417 91.96927 62.68362 93.17087 C 63.49805 94.33651 67.83846 104.55985 69.631135 109.5348 C 71.96825 116.02056 74.09324 120.44489 77.18827 125.26944 C 80.15774 129.89639 80.18136 129.9645 79.99668 133.37231 C 79.95083 134.22186 79.95822 135.206 80.01379 135.55932 C 80.10761 136.16009 80.16365 136.1333 80.90736 135.12988 C 81.93572 133.74241 83.030055 130.78942 83.25764 128.78905 C 83.85721 123.51361 83.14306 113.07708 81.56115 104.00393 C 81.06368 101.15074 80.32457 96.82954 79.91854 94.40131 C 79.13055 89.68915 78.45581 87.51207 76.56023 83.56564 C 74.40901 79.08752 72.48399 77.2905 69.43225 76.91168 C 68.56529 76.8041 67.564415 76.73781 67.208275 76.76468 C 66.59647 76.81032 66.581065 76.76794 66.9255 75.97577 C 67.52063 74.60635 71.42556 69.91073 72.28065 69.53359 C 73.02021 69.20874 73.28384 69.25541 77.34701 70.43028 C 100.23323 77.04794 113.28276 82.94997 123.89355 91.48214 C 130.51574 96.8069 132.1708 99.75975 132.89048 107.53319 C 133.70209 116.30002 132.95784 124.80955 130.75042 132.00342 C 128.7393 138.55757 126.16004 143.9159 123.45065 147.16851 C 120.6697 150.50696 114.13302 154.10752 107.12967 156.1584 C 100.54218 158.08752 90.5912 159.08792 82.30595 158.654 L 82.30595 158.654 Z M 87.89027 148.58688 L 87.89039 148.58721 C 87.95516 148.77073 89.00347 149.06982 90.59466 149.35919 L 93.19301 149.83164 L 94.51798 148.85402 C 95.24669 148.31632 96.14357 147.55171 96.51105 147.15504 L 97.17921 146.43361 L 96.14576 146.35216 C 94.90524 146.25454 90.13387 147.21577 88.76317 147.8417 C 88.22476 148.08673 87.83402 148.42117 87.89027 148.58688 Z M 84.09834 140.43084 L 84.09834 140.43084 L 84.09833 140.43083 C 84.69128 141.35286 85.47461 141.4106 88.05714 140.72378 C 90.82005 139.98913 92.53705 139.10763 93.67475 137.8399 C 94.96206 136.40534 95.56652 134.5635 94.80422 134.39808 C 94.66485 134.36781 93.53016 134.94195 92.28278 135.67397 C 91.03545 136.40608 88.99695 137.31725 87.75308 137.69911 C 84.17043 138.79865 83.41285 139.36498 84.09834 140.43084 Z M 103.45806 105.6914 L 103.45807 105.6914 L 103.45805 105.69136 C 104.70809 106.47482 105.46138 106.76323 106.92357 107.01822 C 109.35025 107.4413 110.84533 106.87867 112.42906 104.94634 C 113.39805 103.764 113.59164 103.31549 114.26977 100.68271 C 115.62641 95.41552 114.92315 92.34414 111.66423 89.30246 C 109.63988 87.41309 103.89884 84.88436 101.6735 84.90197 C 99.90544 84.91593 99.31468 85.70974 97.64002 90.32125 C 97.04134 91.9701 96.93475 92.59412 96.97307 94.22339 C 97.08755 99.08183 99.37987 103.13547 103.45806 105.6914 Z M 108.50693 104.7315 L 108.50707 104.73143 C 108.33445 104.69609 107.94991 104.66799 107.65307 104.66946 C 106.18152 104.67623 100.64549 100.75926 99.76274 99.08644 C 99.04261 97.72216 98.92228 95.67582 99.39041 92.74814 C 99.84288 89.91759 100.77267 87.85668 101.88739 87.21742 C 103.35366 86.3755 106.39192 87.89536 110.19492 91.37331 C 111.83852 92.87651 112.57315 94.2958 112.92526 96.64904 C 113.19717 98.46506 112.4876 101.84929 111.62137 102.86843 C 110.94987 103.65828 108.99018 104.83086 108.50693 104.7315 Z M 104.62906 98.7153 L 104.62906 98.7153 C 105.37277 99.36496 106.86389 99.5682 107.74296 99.14216 C 109.35503 98.3581 110.29199 96.42684 109.7206 95.06522 C 109.04828 93.46256 106.2606 92.16757 104.50316 92.6416 C 103.67377 92.86528 102.88151 93.71688 102.69234 94.58805 C 102.46304 95.64407 103.4007 97.64236 104.62906 98.7153 Z M 159.89462 133.18113 L 159.8946 133.18114 C 155.75968 133.80282 150.46882 131.72739 145.81021 127.65625 C 144.41669 126.4384 144.15917 126.07717 144.1627 125.34494 C 144.17814 122.06235 143.13515 113.77035 141.95677 107.80932 C 141.74247 106.72401 141.67347 105.82045 141.8045 105.80443 C 142.29115 105.73969 148.33107 111.11198 153.67708 116.36472 C 156.8123 119.44525 165.59095 128.52046 165.99201 129.09625 C 166.25354 129.47132 164.16264 131.48462 162.68824 132.28053 C 162.00761 132.64727 160.75052 133.05242 159.89462 133.18113 Z M 140.18169 391.5687 L 140.18157 391.56886 Z M 140.18169 391.5687 C 140.18169 391.5687 140.18169 391.5687 140.18169 391.5687 L 140.18157 391.56886 L 140.18157 391.56886 C 140.18161 391.5688 140.18165 391.56876 140.18169 391.5687 Z M 140.18157 391.56886 Z M 140.18157 391.56886 Z M 140.18157 391.56886 C 142.87931 388.46657 144.71958 384.75496 144.79 382.27436 C 144.80563 381.72575 144.75662 381.31617 144.68065 381.3654 C 144.60487 381.41413 144.22765 382.3462 143.84242 383.43675 C 142.78537 386.4286 142.03213 387.62655 139.71882 389.99505 C 137.248 392.52574 137.2962 392.5139 132.76004 391.52893 C 130.09424 390.95007 129.81826 390.8367 128.54906 389.79906 C 126.9965 388.52985 126.13442 386.74915 125.94694 384.4245 C 125.80627 382.6679 126.32856 378.9871 126.98599 377.11755 C 127.54786 375.51954 127.8915 375.13683 136.05397 367.01804 C 141.5594 361.54208 143.98828 358.7503 144.5931 357.2035 C 145.1504 355.77796 144.48557 355.87517 142.05414 357.5747 C 139.7212 359.20548 138.39623 360.5258 131.69397 367.8984 C 129.18487 370.65845 126.712 373.2479 126.19874 373.65237 C 125.2712 374.3829 125.25299 374.38533 123.14155 373.92685 C 118.99475 373.0264 116.61181 371.60876 115.24739 369.2308 C 114.26176 367.5129 113.84514 365.4495 114.02526 363.1789 L 114.17253 361.3223 L 115.43665 360.24677 C 124.42986 352.59577 139.18413 343.7466 155.21039 336.3915 L 156.93748 335.59828 L 159.04186 337.0718 C 161.4584 338.764 161.43536 338.65306 160.0217 341.7844 C 157.06967 348.3237 153.57279 360.68324 152.3237 368.9932 C 150.59495 380.49447 150.52784 391.9752 152.1313 401.92285 C 152.48952 404.1445 152.67372 406.12777 152.54127 406.3301 L 152.54145 406.33073 C 152.34873 406.6248 151.87244 406.60077 150.17025 406.2184 C 147.7159 405.665 145.87575 404.7877 144.48547 403.50824 C 143.21108 402.3353 140.83194 398.40194 139.65721 395.52575 L 138.72515 393.24366 L 140.18157 391.56886 C 140.18157 391.56886 140.18157 391.56886 140.18157 391.56886 Z M 159.42498 270.98484 C 159.42512 270.9849 159.42526 270.98498 159.4254 270.98505 L 159.4254 270.98505 C 159.4254 270.98505 159.4254 270.98505 159.4254 270.98505 L 159.4254 270.98505 C 161.83873 272.20987 164.3323 272.54533 167.003 272.00463 C 168.09314 271.7829 169.01027 271.64872 169.04291 271.7036 C 169.07459 271.7589 168.8297 272.53445 168.49858 273.42706 C 167.57379 275.9206 167.45636 278.72957 168.1259 282.32893 C 168.29278 283.22498 168.3351 284.05585 168.21947 284.17548 C 168.10442 284.29583 167.38003 284.5582 166.60986 284.759 L 166.60947 284.7583 C 163.9372 285.4555 161.38784 284.37707 159.61306 281.79834 C 158.75977 280.5592 157.51119 277.55774 157.11194 275.78862 C 156.83224 274.54808 156.85196 273.85095 157.21444 272.1714 L 157.66352 270.0908 L 159.42498 270.98484 L 159.42498 270.98484 L 159.4254 270.98505 C 159.42512 270.9849 159.42526 270.98498 159.4254 270.98505 L 159.42498 270.98484 Z M 159.42498 270.98484 L 159.42498 270.98484 C 159.42512 270.9849 159.42526 270.98498 159.42498 270.98484 Z M 159.42498 270.98484 L 159.4254 270.98505 Z M 159.4254 270.98505 L 159.4254 270.98505 M 159.42498 270.98484 L 159.42498 270.98484 M 159.42498 270.98484 L 159.42498 270.98484 M 122.42604 168.33493 C 122.42634 168.33526 122.42664 168.33558 122.42694 168.3359 Z M 122.42604 168.33493 L 122.42694 168.3359 C 127.73704 174.05236 130.41208 177.97554 131.87419 182.18764 C 132.19762 183.11804 132.42268 184.35696 132.37564 184.94068 C 132.30229 185.8513 132.16134 186.08857 131.38593 186.61132 C 130.45635 187.23767 129.10698 187.42246 126.06172 187.34033 C 125.14215 187.31492 124.4272 187.4029 124.4741 187.53248 C 124.52012 187.66264 125.49611 188.60865 126.64298 189.6348 C 131.20825 193.7194 135.10952 197.88624 137.38335 201.10617 C 140.36633 205.33035 141.8768 211.67419 140.02517 212.20174 C 139.6738 212.3017 138.28521 212.21277 136.93955 212.00338 C 135.59402 211.7957 134.5339 211.74054 134.58533 211.8847 C 134.76029 212.3798 136.51976 213.95665 137.71498 214.6895 C 138.9119 215.42364 138.91204 215.42407 141.06757 221.3794 C 143.48917 228.07014 143.95818 229.78602 143.82712 231.47282 C 143.75176 232.4428 143.62226 232.7161 143.07147 233.07055 C 142.49478 233.4414 142.10598 233.4328 140.13471 233.00476 C 137.68606 232.47304 135.97442 231.6629 134.09631 230.1466 C 132.62603 228.95973 129.67431 224.31484 129.09017 222.26934 C 128.6621 220.7705 128.66919 220.6615 129.28909 219.17882 C 131.54485 213.78356 131.08638 209.1062 127.79085 203.8929 C 126.96243 202.58247 125.4401 200.64743 124.4078 199.5927 C 122.4259 197.5679 119.70796 195.26688 119.47489 195.41744 C 119.39899 195.46646 119.19065 195.88444 119.01192 196.34628 C 118.6936 197.16983 118.71746 197.2107 120.25013 198.46316 C 122.62395 200.40306 125.57057 203.5612 126.18593 204.82166 C 127.39838 207.31054 127.87808 211.14 127.32887 213.94805 L 127.03466 215.45266 L 125.30821 215.9486 C 124.35865 216.2212 122.79771 216.53234 121.83939 216.64007 C 120.84155 216.75268 120.11161 216.9718 120.13064 217.15387 C 120.18071 217.62881 122.46406 219.39907 123.99188 220.14744 C 125.24997 220.7637 125.39918 220.94617 126.39365 223.09544 C 127.90869 226.36832 130.43843 229.4888 134.20879 232.73574 C 135.89191 234.1852 135.95702 234.21562 139.35241 235.14028 L 142.79136 236.07658 L 144.29277 238.48137 C 145.88282 241.02804 147.06256 244.19356 147.63486 247.4485 C 147.92597 249.10403 147.90156 249.776 147.47938 251.73155 C 146.74593 255.12955 145.65084 256.3762 142.49655 257.08578 C 142.49655 257.08578 140.6139 257.38715 140.32344 257.32563 C 139.71765 257.19714 139.02205 256.11052 136.81335 251.8446 C 132.55976 243.6282 123.09397 228.71456 113.6891 215.41156 C 106.23576 204.86905 96.13778 189.7031 89.52942 179.12668 C 86.41868 174.14784 83.89235 169.98589 83.91675 169.87766 C 83.94064 169.76957 85.84189 169.81995 88.14174 169.98977 L 92.32325 170.29845 C 92.32325 170.29845 94.12614 171.93508 94.12596 171.93492 L 94.12622 171.93516 C 99.35479 176.68158 102.38876 181.44197 103.21532 186.19648 C 103.39391 187.22355 103.39945 188.13151 103.22883 188.47604 C 103.06282 188.81123 102.27138 189.31153 101.31945 189.6836 C 100.42511 190.03266 99.76854 190.4322 99.85733 190.57311 C 100.23988 191.16786 102.93638 192.55234 104.2808 192.84427 C 106.32247 193.28755 106.79054 193.02378 106.99314 191.31587 C 107.22891 189.327 106.5193 187.04745 103.82668 181.14426 C 101.16471 175.31179 99.35478 170.84199 99.45844 170.36503 C 99.49619 170.19123 100.77388 169.94791 102.32093 169.8199 L 105.11519 169.58866 L 107.32711 171.92543 L 107.32722 171.92554 L 107.32711 171.92543 C 107.32714 171.92547 107.32718 171.9255 107.32722 171.92554 C 108.54379 173.21078 110.32186 175.22924 111.27853 176.4111 C 114.03875 179.82058 116.39473 184.19652 115.88743 184.97049 C 115.7576 185.1685 114.7451 185.67205 113.63743 186.0895 C 111.65418 186.83533 110.6781 187.38577 110.85365 187.6575 C 110.90257 187.73367 112.25065 188.45403 113.84934 189.25843 C 117.17429 190.93137 117.67449 190.96476 118.49718 189.56903 C 119.33616 188.1454 119.42698 186.0445 118.7619 183.44664 C 117.98872 180.42666 116.89775 178.13413 113.76224 172.93934 C 112.33487 170.57176 111.18073 168.5648 111.20238 168.47731 C 111.22312 168.39012 112.04854 168.08233 113.03695 167.794 C 114.02487 167.50438 115.93433 166.85494 117.27912 166.34805 L 119.7243 165.42647 Z M 153.46683 207.76204 C 153.46683 207.76204 153.46683 207.76204 153.46683 207.76204 L 155.72018 209.7746 L 156.85451 209.63698 C 158.88982 209.38843 160.43424 207.13868 160.28611 204.63816 C 160.1028 201.54403 157.39124 197.61205 149.35397 188.78552 C 146.62934 185.79332 144.41906 183.2525 144.442 183.13973 C 144.46505 183.02658 144.84639 183.08711 145.28974 183.27417 C 147.12191 184.04709 148.57211 183.11245 149.04007 180.8546 C 149.81262 177.13616 146.96708 172.0398 138.2299 161.49319 C 135.57703 158.29099 133.4167 155.63075 133.42566 155.5827 C 133.43623 155.53419 134.11458 154.5721 134.93314 153.4448 C 135.75172 152.31745 136.91204 150.61187 137.51164 149.65466 C 138.97326 147.32103 139.25725 147.01956 139.86801 147.15226 C 140.73149 147.33975 146.60476 151.48461 150.10507 154.37675 C 154.23666 157.79053 156.88352 160.49835 158.3488 162.81098 C 159.70485 164.95105 159.89506 166.20346 159.04814 167.41622 C 158.23766 168.577 157.03073 168.69681 152.34297 168.08181 C 150.132 167.79177 148.24394 167.607 148.14483 167.66906 C 147.77327 167.90802 148.45315 168.62699 151.07214 170.76432 C 153.51613 172.75885 153.92814 173.00326 155.37693 173.31783 C 157.23888 173.72202 158.18555 173.42382 159.48057 172.02501 C 160.18676 171.26235 160.33255 170.89165 160.59625 169.19 C 161.1935 165.33547 160.29952 161.70774 157.78084 157.76706 C 155.34025 153.94856 151.37595 150.26485 144.3723 145.3077 C 142.93225 144.2884 141.6288 143.22931 141.47832 142.95259 C 141.24086 142.5197 141.36254 141.95084 142.36529 138.8091 C 143.99939 133.68925 144.51989 133.28228 148.54847 133.97423 C 151.74271 134.5229 154.9601 136.00261 156.92658 137.82729 C 160.60799 141.24326 164.03027 147.5893 163.50228 150.02096 L 163.32986 150.81534 L 160.35166 150.34456 C 156.72384 149.77055 156.26386 149.79886 156.96744 150.55044 C 157.2439 150.84578 158.17675 151.9484 159.04085 153.00048 C 160.82097 155.16853 161.94387 156.1635 163.03347 156.53836 C 163.73997 156.78142 163.83318 156.71904 164.59986 155.48993 C 165.2277 154.48316 165.56475 153.50179 166.06739 151.2163 C 166.68897 148.39095 166.69793 148.16122 166.25856 146.39444 C 165.97634 145.25943 165.14396 143.40965 164.11425 141.62908 C 162.30052 138.49331 162.10081 137.69927 162.89876 136.79909 C 163.5522 136.0599 165.88158 134.97973 168.24267 134.31935 L 170.0915 133.8021 L 171.97643 135.76174 C 173.01308 136.83954 175.2626 139.09565 176.97537 140.77534 C 178.68806 142.45504 180.81892 144.66348 181.71032 145.68324 C 183.94728 148.24175 187.40646 153.71471 189.64407 158.23513 C 192.81697 164.64577 197.27414 175.90967 197.0439 176.94086 C 196.9779 177.2381 196.49256 178.0493 195.96538 178.7435 C 194.07838 181.2286 193.9717 182.37143 195.02752 188.80578 C 195.6171 192.39926 195.62226 192.69504 195.13412 194.89933 C 194.23528 198.95736 192.92928 200.67685 190.15574 201.45296 C 189.2572 201.70444 188.0012 201.94783 187.365 201.995 L 186.20803 202.07986 L 184.79205 200.01352 C 181.87515 195.75652 178.62317 193.15605 176.9721 193.76079 C 176.38555 193.97547 177.08936 194.95554 178.85498 196.38259 C 184.13244 200.64824 187.84547 209.3741 186.67562 214.76166 C 186.33772 216.3179 185.95058 216.38236 182.08562 215.51447 C 175.2199 213.9747 169.32565 210.4207 167.06418 206.45715 C 166.58126 205.61042 166.14035 204.47573 166.08242 203.93571 C 165.98349 202.99687 165.93611 202.95174 165.0055 202.91103 C 162.51842 202.80195 162.57224 202.78792 162.68198 203.5094 C 162.9201 205.09046 163.86035 206.76531 165.78465 209.0361 C 169.37494 213.27287 172.31259 220.33075 171.9532 223.8564 C 171.84835 224.8868 171.72564 225.09333 170.904 225.6214 C 169.63216 226.43954 168.02657 226.47233 165.40727 225.73406 C 162.93756 225.0379 160.5776 223.77142 159.40086 222.51064 C 158.95597 222.03434 157.92881 220.25453 157.12091 218.55424 C 155.27259 214.67233 153.21942 211.44227 152.31584 210.99488 C 151.9338 210.8059 151.58113 210.67773 151.53185 210.71217 C 151.48248 210.74584 151.28728 211.29326 151.09719 211.9287 L 150.75202 213.08402 L 152.94207 215.79984 C 155.45639 218.91788 156.32264 220.61797 157.12676 224.0137 C 158.21833 228.6232 157.44962 230.64064 154.51742 230.8605 L 154.51862 230.85945 C 152.12996 231.03858 150.41535 230.51565 148.60272 229.05517 C 146.14475 227.07608 144.83108 225.0173 142.93275 220.17875 C 141.67656 216.97725 141.35254 215.87467 141.65881 215.8427 C 141.8843 215.81881 142.52807 215.50683 143.08828 215.14788 C 144.27298 214.38865 144.68224 213.16437 144.35502 211.35782 C 143.69926 207.73649 140.0936 201.59122 135.6127 196.45783 C 134.12737 194.75621 132.62432 193.01133 132.27287 192.58026 L 131.63371 191.79653 L 132.3306 191.93362 C 133.43999 192.15153 134.01232 191.40386 134.51764 189.07658 C 135.261 185.65294 134.56434 181.8181 132.26834 176.6972 C 131.05589 173.99273 127.00551 167.57874 124.95996 165.12384 L 123.63238 163.53057 L 126.25824 161.6297 C 127.70254 160.58422 129.40957 159.30694 130.05202 158.79168 L 131.21987 157.85451 L 133.4806 159.77577 C 136.5817 162.41114 139.08862 165.12258 141.54842 168.50176 C 143.52698 171.2201 145.7962 175.1212 146.34916 176.7566 C 146.59814 177.49242 146.57135 177.53504 145.47258 178.1797 C 144.33497 178.84672 142.07621 179.19655 140.7569 178.91008 C 140.37524 178.82715 139.70373 178.75357 139.26468 178.74629 L 138.46641 178.73321 L 138.74843 179.78089 C 138.92931 180.45804 138.91928 181.09679 138.7159 181.58764 C 138.40402 182.3402 138.4335 182.37655 142.16545 185.83713 C 149.61705 192.74683 153.05707 196.68053 155.0307 200.54742 C 155.62637 201.71838 156.10154 202.74326 156.08246 202.82576 C 156.06458 202.90809 153.41862 202.33187 150.20247 201.54515 C 146.9863 200.75844 143.99873 200.12605 143.5636 200.1401 C 142.85936 200.16274 143.11112 200.38144 145.85035 202.12704 C 149.87441 204.6914 150.77396 205.35693 153.46675 207.76197 C 153.46678 207.762 153.4668 207.76202 153.46683 207.76204 Z M 153.46675 207.76197 Z M 153.4669 207.7621 C 153.46686 207.76206 153.4668 207.76202 153.46675 207.76197 Z M 153.46683 207.76204 Z M 181.73632 285.2589 L 181.73632 285.2589 L 182.66195 284.2998 L 183.31562 285.14637 C 183.6751 285.61193 184.58657 286.49348 185.34104 287.10522 L 185.3411 287.10527 C 185.3411 287.10527 185.3411 287.10527 185.3411 287.10527 L 185.3411 287.10527 C 185.34106 287.10524 185.34108 287.10525 185.3411 287.10527 L 186.7128 288.21745 L 186.2242 289.63987 C 185.7723 290.9557 179.47754 305.1433 178.61658 306.78648 L 178.61688 306.7865 C 178.28389 307.4223 178.10768 307.493 177.20998 307.352 C 175.91295 307.14807 171.50294 304.9296 168.6478 303.04478 C 161.9139 298.59956 153.72462 290.15595 148.24268 282.00613 C 147.09036 280.29353 145.83155 276.6585 146.1844 276.0637 C 146.28865 275.88747 147.2402 276.01895 149.02309 276.45257 C 151.25325 276.9951 151.95759 277.06404 153.20191 276.8611 C 154.02496 276.72658 154.71462 276.6549 154.7294 276.70083 C 156.09612 280.41045 158.10903 283.55868 160.07814 285.06598 C 161.19504 285.92107 161.68126 286.11174 164.05626 286.6258 C 166.51269 287.15774 166.94388 287.17468 168.73758 286.81072 L 170.71317 286.40974 L 171.75874 287.18588 C 173.18881 288.24755 175.51234 288.74206 177.04516 288.31147 C 178.39974 287.9308 180.43702 286.6051 181.73601 285.25922 Z M 181.73601 285.25922 C 181.73601 285.25922 181.73601 285.25922 181.73601 285.25922 Z M 181.73601 285.25922 C 181.73612 285.2591 181.73622 285.259 181.73632 285.2589 M 212.6763 218.29131 L 212.6763 218.29131 L 212.67724 218.29262 C 212.67724 218.29262 212.67724 218.29262 212.67724 218.29262 L 208.97863 213.10494 L 208.70684 206.12084 C 208.55748 202.27958 208.41502 198.85953 208.39223 198.5204 C 208.368 198.167 208.4613 197.92836 208.61225 197.9611 C 208.75678 197.99247 210.29032 200.3373 212.02028 203.17175 C 213.75017 206.00621 217.56417 211.83929 220.4958 216.1341 C 228.23134 227.4668 231.83467 233.00133 231.9525 233.73162 C 232.07412 234.48524 231.30857 235.7036 230.02833 236.79372 L 230.02825 236.79384 C 229.5697 237.18484 229.04773 237.47204 228.86892 237.43337 C 228.69 237.39457 227.84653 236.7047 226.99446 235.9004 C 223.15082 232.2725 219.03916 227.21584 212.67724 218.29262 L 212.6763 218.29131 Z M 212.67724 218.29262 Z M 212.67724 218.29262 C 212.67693 218.29219 212.67662 218.29175 212.6763 218.29131 Z M 212.6763 218.29131 C 212.67662 218.29175 212.67693 218.29219 212.67724 218.29262 Z" fill="black"/>
        </g>
      </g>
    </g>
  </g>
</svg>
