<?xml version="1.0" encoding="UTF-8" standalone="no"?>
<!DOCTYPE svg PUBLIC "-//W3C//DTD SVG 1.1//EN" "http://www.w3.org/Graphics/SVG/1.1/DTD/svg11.dtd">
<svg xmlns="http://www.w3.org/2000/svg" xmlns:dc="http://purl.org/dc/elements/1.1/" version="1.1" xmlns:xl="http://www.w3.org/1999/xlink" viewBox="36 63 283.5 216" width="283.5" height="216">
  <defs>
    <clipPath id="artboard_clip_path">
      <path d="M 36 63 L 319.5 63 L 319.5 279 L 36 279 Z"/>
    </clipPath>
  </defs>
  <g id="Snail_(2)" fill-opacity="1" stroke="none" stroke-dasharray="none" stroke-opacity="1" fill="none">
    <title>Snail (2)</title>
    <g id="Snail_(2)_Layer_2" clip-path="url(#artboard_clip_path)">
      <title>Layer 2</title>
      <g id="Group_147">
        <g id="Graphic_162">
          <path d="M 245.19144 65.58286 C 255.89113 69.20559 261.03035 71.64882 269.87654 77.29354 C 281.41872 84.79174 287.90593 90.3522 293.71914 97.93466 C 300.6276 106.78085 302.8181 111.16182 305.00857 120.00802 C 305.9353 123.96774 307.19906 127.92747 307.70455 128.85421 C 310.23204 133.31944 310.9903 139.5539 311.41153 157.07779 C 311.66428 172.91669 311.49578 176.03392 310.1478 181.51014 C 308.4628 188.0816 305.09282 197.51754 302.90233 201.73 C 300.1221 207.20623 286.3052 226.16236 282.85096 229.36384 L 280.74472 231.30158 L 282.9352 233.49206 C 285.37844 235.9353 292.37115 239.55802 298.35286 241.58 C 301.4701 242.67525 302.8181 242.7595 304.75582 242.00126 C 306.86206 241.243 307.87305 241.32726 311.24303 243.01225 C 316.298 245.4555 318.1515 248.06722 316.71925 250.7632 C 314.86576 254.38593 311.49578 257.33466 309.22105 257.33466 C 307.6203 257.33466 306.86206 257.9244 306.1038 259.7779 C 304.67157 263.65337 300.1221 265.4226 289.84367 266.18086 C 277.796 267.02335 276.6165 267.1076 257.07062 269.04534 C 247.63468 270.05633 235.924 270.81458 230.95328 270.89883 C 226.06681 270.89883 219.9166 271.32008 217.38912 271.74132 C 201.55022 274.6058 180.31935 275.36405 168.52442 273.4263 C 147.29356 270.05633 123.95645 268.4556 88.31892 268.03435 C 64.89757 267.69735 61.35909 267.52885 59.421354 266.2651 C 56.80962 264.49587 56.97812 263.31638 60.3481 261.54714 C 63.54958 259.69365 66.41406 254.63868 67.00381 249.33096 C 67.42505 246.04523 67.08806 243.68625 65.487316 238.79978 C 64.30782 235.34555 62.95983 231.13308 62.538584 229.53234 C 62.03309 227.9316 60.09535 222.20263 58.15761 216.89492 C 51.080656 197.18054 48.80592 186.64935 48.80592 173.92768 C 48.89017 168.19872 48.38467 163.565 47.54218 160.86901 C 46.86818 158.51003 45.94144 153.03381 45.52019 148.65284 C 44.846195 141.82863 44.930444 139.7224 46.278436 134.33043 C 48.300423 126.32673 47.879176 114.7003 45.26744 106.5281 C 45.014694 105.85411 44.593446 104.25337 44.3407 103.07388 C 44.08795 101.81013 42.06596 98.44015 39.959725 95.49142 C 36.421247 90.6892 36 89.76246 36 85.54998 C 36 80.07377 37.34799 78.72578 42.73996 78.72578 C 47.37368 78.72578 52.597146 81.84301 53.77664 85.38149 C 54.450635 87.40347 54.366385 88.83571 53.35539 91.8687 C 52.42865 94.73318 52.1759 97.59766 52.5129 102.98963 C 53.18689 112.67832 53.43964 114.02631 55.54588 118.15453 C 58.24186 123.46225 61.94884 125.31574 70.03679 125.39999 C 72.39577 125.39999 73.91226 124.72599 76.3555 122.61975 C 78.20899 121.01901 79.97823 119.24977 80.31522 118.57578 C 81.24197 117.05929 83.17971 105.34861 83.01121 102.56838 C 82.92696 101.22039 82.75846 99.45115 82.75846 98.44015 C 82.67421 97.51341 81.32622 95.23867 79.72548 93.46944 C 74.33351 87.40347 75.17601 80.07377 81.663215 77.37779 C 85.87569 75.60855 88.15042 75.94554 91.18341 78.64153 C 93.62664 80.83201 93.96364 81.67451 93.96364 85.21299 C 93.96364 87.40347 93.28964 91.5317 92.5314 94.31193 C 91.77315 97.09216 89.91966 105.76986 88.40317 113.68931 C 85.95994 126.66373 85.79144 128.85421 86.29694 138.12166 C 86.97093 150.50633 90.42516 161.96426 97.08087 174.34893 C 103.90508 186.98635 108.7073 191.45157 108.7073 185.21711 C 108.7073 184.03762 109.97104 181.51014 111.57178 179.5724 C 115.5315 174.60168 116.2055 173.16944 121.76596 156.65654 C 124.96744 146.96785 127.24218 140.90189 129.26417 136.43667 C 130.35941 134.07768 131.79165 130.7077 132.3814 128.85421 C 137.18362 114.8688 158.07749 89.34121 172.31565 80.07377 C 192.87252 66.6781 202.30846 63.47662 223.28658 63.139624 C 237.01925 62.80263 237.272 62.886876 245.19144 65.58286 Z" fill="black"/>
        </g>
        <g id="Graphic_161">
          <path d="M 203.2352 66.59385 C 190.59779 69.96383 173.32664 79.39977 163.7222 88.16172 C 157.572 93.80643 144.42907 109.56108 140.13235 116.46954 C 135.07738 124.55749 127.66343 142.41838 121.00772 162.46975 C 117.89049 171.9057 115.95275 176.11817 112.58277 180.5834 C 109.80254 184.29037 109.80254 186.2281 112.58277 188.83984 C 114.35201 190.44058 114.60476 191.03033 113.67802 192.12557 C 113.17252 192.79957 112.83552 193.47356 113.00402 193.64206 C 113.17252 193.8948 114.85751 195.15855 116.711 196.5908 C 125.64144 203.5835 137.94186 214.87293 137.35212 215.54692 C 137.09937 215.71542 133.98214 213.1037 130.44366 209.81796 C 126.82093 206.44798 121.76596 202.15126 119.06998 200.38202 C 116.374 198.61278 112.58277 195.5798 110.64503 193.81056 C 108.7073 191.95707 106.26406 190.01933 105.33732 189.51384 C 104.32632 189.00834 103.06258 187.7446 102.55708 186.81785 C 99.10286 180.9204 92.0259 166.93498 90.76216 163.3965 C 89.83541 161.03751 88.48742 157.41479 87.56068 155.30855 C 86.71818 153.20231 85.87569 149.57959 85.62294 147.30485 C 84.6962 139.3854 84.8647 124.64174 85.79144 120.00802 C 86.38119 117.48054 87.56068 111.16182 88.57167 106.10686 C 89.49842 100.96764 90.84641 94.14343 91.5204 90.77345 C 93.03689 83.0225 93.03689 83.528 90.50941 80.49502 C 88.82442 78.47303 87.64493 77.88328 85.37019 77.88328 C 81.41047 77.88328 77.53499 81.67451 77.53499 85.63423 C 77.53499 88.33022 80.98922 94.73318 82.50571 94.73318 C 82.84271 94.73318 83.60095 95.65992 84.10645 96.83941 C 84.8647 98.5244 84.78045 101.13614 83.8537 108.46584 C 83.17971 113.60506 82.58996 118.23878 82.58996 118.57578 C 82.58996 120.00802 75.59725 125.82123 73.23827 126.32673 C 65.655815 128.01172 57.31512 126.57948 57.31512 123.63075 C 57.31512 122.95675 56.80962 122.28276 56.135624 122.03 C 54.450635 121.35601 52.26015 115.62705 51.080656 108.63434 C 49.901163 101.64163 49.98541 96.08117 51.333404 92.71119 C 51.8389 91.3632 52.09165 89.17271 51.8389 87.82472 C 50.996406 84.37049 46.194186 79.56827 43.498203 79.56827 C 40.80222 79.56827 37.095243 83.0225 37.095243 85.54998 C 37.095243 87.74047 39.20148 92.28994 41.223467 94.48043 C 43.75095 97.09216 45.183193 100.54639 47.03668 108.21309 C 49.311417 117.39629 49.479916 124.30474 47.62643 134.24618 C 46.615434 139.97514 46.362685 144.18762 46.78393 148.98984 C 47.45793 157.07779 49.564165 164.576 50.65941 162.891 C 51.080656 162.217 51.164905 164.49174 50.82791 168.45147 C 49.98541 179.15115 50.15391 183.02663 52.1759 192.46257 C 54.197886 202.31976 57.652115 213.2722 62.538584 225.2356 C 64.30782 229.61659 65.740064 233.66056 65.740064 234.2503 C 65.740064 234.84005 66.66681 238.21003 67.76205 241.66426 L 69.78404 247.98297 L 67.5093 254.80718 C 65.40307 261.21014 65.15032 261.6314 62.11734 262.55813 C 60.3481 263.06363 59.084356 263.90612 59.252855 264.41162 C 59.75835 265.9281 78.79873 267.1076 92.78415 266.4336 C 99.94535 266.18086 109.38129 266.2651 113.76226 266.68635 C 124.46195 267.69735 130.52791 268.1186 144.51332 268.7926 C 151.00053 269.04534 156.898 269.6351 157.65624 270.05633 C 158.41449 270.39333 160.52072 270.56183 162.28996 270.30908 C 164.7332 269.97208 165.2387 270.05633 164.31195 270.73033 C 163.2167 271.57282 163.2167 271.65707 164.31195 271.65707 C 164.98595 271.65707 167.85043 271.90982 170.54641 272.24682 C 174.08489 272.58382 175.34863 272.41532 174.92738 271.74132 C 174.16914 270.56183 175.51713 270.56183 176.69662 271.74132 C 177.28637 272.33107 182.17284 272.66807 190.51354 272.58382 C 206.77368 272.49957 208.96417 272.33107 208.96417 271.57282 C 208.96417 270.73033 216.63087 270.14058 234.15476 269.55084 C 242.2427 269.2981 249.15117 268.87684 249.48817 268.6241 C 250.16216 268.2871 256.39662 267.6131 283.7777 265.33836 C 300.4591 263.90612 303.57633 263.06363 305.26132 259.18815 C 306.4408 256.40792 307.36756 255.64967 309.8108 255.64967 C 311.83278 255.64967 315.961 251.18445 315.961 248.99396 C 315.961 248.15147 314.4445 246.38223 312.67527 245.20274 C 309.72654 243.0965 308.88405 242.928 304.84007 243.4335 C 300.7961 243.939 299.53236 243.602 291.1074 240.06352 L 281.83997 236.18804 L 270.4663 237.53604 C 245.6127 240.56902 244.68595 240.65327 217.97886 241.83276 C 211.15466 242.16976 205.5942 242.67525 205.5942 243.0965 C 205.5942 243.7705 193.96776 243.602 179.8981 242.591 C 168.94567 241.83276 162.28996 239.22103 155.887 233.2393 C 153.35952 230.79608 149.73679 227.67885 147.8833 226.33086 C 146.02981 224.98286 143.16533 222.37113 141.56459 220.6019 L 138.61586 217.31616 L 141.81734 220.2649 C 143.58658 221.86563 145.10307 223.04513 145.27157 222.79238 C 145.44007 222.53963 148.8943 225.31986 153.02252 229.02684 C 164.3962 238.96828 167.93468 240.40052 185.37432 241.66426 C 190.93478 242.0855 199.27548 241.83276 230.02654 240.06352 C 243.2537 239.30528 279.05973 235.7668 281.41872 234.9243 C 282.4297 234.5873 282.2612 234.16606 280.66047 232.90232 L 278.55424 231.38582 L 283.18796 226.83635 C 285.71544 224.30887 290.51766 218.15866 293.88764 213.01944 C 297.17337 207.96447 300.37485 203.33075 300.88035 202.741 C 302.4811 200.80327 307.53606 187.66035 308.7998 182.09988 C 310.56904 174.09618 311.07453 161.29026 310.23204 148.0631 C 309.3053 135.17292 307.70455 129.02271 308.2943 140.48064 C 308.6313 149.07409 307.4518 158.59428 304.16608 172.15844 C 299.36386 191.87282 290.34916 204.84724 275.6055 213.35644 C 261.4516 221.44439 247.97168 224.89862 232.97527 224.22462 C 227.83605 224.05612 222.02284 223.46637 219.9166 222.87663 C 217.81037 222.37113 212.16565 221.02314 207.36343 219.84365 C 202.47696 218.66415 198.096 217.31616 197.67474 216.97916 C 197.16924 216.55792 195.4 215.96817 193.79927 215.63117 C 186.8908 214.19893 172.31565 199.62377 167.09218 188.9241 C 161.11047 176.53942 157.0665 159.68952 157.82474 150.33783 C 158.41449 143.26087 164.81745 129.35971 171.13616 121.52451 C 173.49514 118.57578 175.68563 115.79555 175.93838 115.3743 C 177.03362 113.85781 186.5538 106.02261 190.26079 103.66362 C 192.28277 102.39988 196.83225 100.20939 200.37072 98.77715 C 206.01544 96.50242 207.78468 96.16542 214.01914 96.24967 C 217.97886 96.33392 222.1071 96.58667 223.28658 96.83941 C 224.46607 97.09216 226.9093 97.42916 228.7628 97.68191 C 232.13278 98.10316 240.81047 100.88339 243.7592 102.39988 C 244.6017 102.90538 246.03394 102.98963 246.96068 102.73688 C 248.05593 102.39988 248.39292 102.56838 248.14018 103.32662 C 247.88743 104.00062 250.16216 105.76986 254.2904 108.0446 C 263.55783 113.09956 269.1183 118.82853 272.99377 127.25347 C 274.763 131.0447 276.36375 135.59417 276.6165 137.36341 C 278.21724 149.41109 278.21724 150.08508 276.36375 156.31954 C 275.35276 159.77377 273.75202 164.239 272.74102 166.34523 C 268.6128 174.85443 259.34536 183.27937 251.51016 185.63836 C 249.65667 186.2281 247.55043 186.9021 246.87643 187.15485 C 246.20244 187.4076 244.4332 187.7446 243.0852 187.99735 C 241.65297 188.16584 238.61999 188.5871 236.34525 188.9241 C 231.12178 189.68233 224.12908 188.7556 220.0851 186.64935 C 207.27918 179.99365 194.97876 155.30855 199.86523 146.0411 C 201.80297 142.50263 211.49166 130.11796 213.4294 128.85421 C 214.44039 128.26447 217.13637 127.25347 219.49536 126.74798 C 223.87633 125.73698 229.68954 126.66373 234.15476 128.93846 C 235.33426 129.61246 236.85075 130.11796 237.4405 130.11796 C 240.05223 130.11796 244.51745 134.16193 246.70794 138.5429 C 248.72992 142.58688 248.98267 144.01912 248.81417 150.25358 C 248.64567 155.8983 248.22443 158.17303 246.4552 161.79576 C 241.31597 172.2427 231.96428 175.86542 222.19134 171.0632 C 218.31586 169.20971 217.47337 168.28297 215.36713 163.81775 C 212.67115 158.00453 212.33415 153.28656 214.35614 148.65284 C 216.20963 144.27187 219.0741 141.99713 224.88732 140.56489 C 229.85804 139.30115 230.36354 139.30115 233.56502 140.73339 C 239.96798 143.59787 243.67495 150.59058 241.48447 155.7298 C 239.20973 160.95326 235.16576 163.81775 230.19504 163.81775 C 223.37083 163.7335 216.88362 153.28656 221.34884 149.83233 C 223.45508 148.31584 228.34155 148.31584 228.34155 149.83233 C 228.34155 150.67483 227.2463 151.18033 225.14007 151.34882 C 222.35984 151.60157 222.02284 151.85432 222.2756 153.62356 C 222.69684 156.48804 224.88732 159.26827 228.00455 160.70052 C 231.12178 162.217 234.49176 161.12176 237.946 157.41479 C 241.23172 153.79206 240.97897 150.08508 236.935 146.0411 C 232.97527 142.16563 230.1108 141.32314 225.05582 142.67113 C 220.33785 143.93487 218.82136 145.28286 216.54662 149.91658 C 214.52464 154.12906 214.77738 157.24629 217.55762 163.14375 C 219.15836 166.42948 220.2536 167.52472 223.96058 169.29396 C 226.4038 170.47345 229.4368 171.4002 230.70054 171.4002 C 233.31227 171.4002 239.12548 168.53572 240.81047 166.42948 C 247.46618 158.17303 249.06692 148.4001 245.19144 139.7224 C 243.4222 135.50992 239.54673 132.81394 231.79578 130.11796 C 225.56132 127.92747 219.5796 128.26447 215.11438 131.0447 C 211.66015 133.15094 207.27918 138.5429 204.66745 143.59787 C 203.65645 145.70411 202.22421 148.0631 201.46597 148.90559 C 200.28647 150.33783 200.53922 153.20231 202.47696 160.02652 C 203.7407 164.576 209.55392 174.34893 213.34514 178.30866 C 219.83235 185.13286 224.12908 186.9021 234.239 186.81785 C 239.37823 186.81785 242.2427 186.48085 242.49546 185.80686 C 242.66396 185.30136 243.0852 185.04861 243.50646 185.30136 C 244.51745 185.8911 255.97538 181.59439 259.0926 179.48815 C 263.30508 176.62367 267.7703 171.5687 270.04504 167.10348 C 271.14028 164.7445 272.06703 162.63825 271.98278 162.30126 C 271.89853 161.96426 272.06703 161.12176 272.40402 160.44777 C 272.65677 159.77377 273.49927 156.5723 274.2575 153.45506 C 276.2795 145.11436 275.437 137.70041 271.73003 129.86521 C 270.1293 126.41098 268.7813 123.29375 268.7813 122.8725 C 268.7813 121.52451 261.03035 114.44755 256.14388 111.33032 C 247.12918 105.68561 236.85075 101.22039 230.36354 100.20939 C 229.01555 99.95664 225.81407 99.1984 223.28658 98.44015 C 215.87263 96.33392 206.01544 97.34491 198.51724 100.88339 C 195.2315 102.48413 190.85053 105.09586 188.7443 106.78085 C 186.63806 108.46584 183.43658 111.07758 181.5831 112.59407 C 177.03362 116.30104 169.53542 124.97874 166.67093 129.94946 C 161.86871 138.3744 159.08848 146.7151 159.17273 153.20231 C 159.25698 163.902 163.30096 178.98265 169.11417 190.18783 C 172.48415 196.5908 184.86882 210.32346 187.48055 210.49196 C 188.4073 210.5762 191.44028 211.7557 194.22051 213.18794 C 205.2572 218.83265 222.86533 222.79238 236.68225 222.79238 C 248.89842 222.79238 258.33436 220.51764 270.4663 214.53593 C 278.47 210.66045 281.16597 208.80697 286.1367 203.83625 C 291.69715 198.27578 299.9536 185.63836 299.9536 182.68963 C 299.9536 182.09988 300.88035 178.64565 302.05984 175.02293 C 307.4518 158.67853 308.54705 138.12166 304.92432 124.64174 C 303.99758 121.44026 302.90233 117.14354 302.39684 115.29005 C 301.4701 111.58307 296.83637 103.83212 290.9389 96.16542 C 283.69345 86.72948 261.4516 72.15432 247.29768 67.60485 C 233.56502 63.139624 217.22062 62.71838 203.2352 66.59385 Z" fill="#FFFFFF"/>
          <path d="M 203.2352 66.59385 C 190.59779 69.96383 173.32664 79.39977 163.7222 88.16172 C 157.572 93.80643 144.42907 109.56108 140.13235 116.46954 C 135.07738 124.55749 127.66343 142.41838 121.00772 162.46975 C 117.89049 171.9057 115.95275 176.11817 112.58277 180.5834 C 109.80254 184.29037 109.80254 186.2281 112.58277 188.83984 C 114.35201 190.44058 114.60476 191.03033 113.67802 192.12557 C 113.17252 192.79957 112.83552 193.47356 113.00402 193.64206 C 113.17252 193.8948 114.85751 195.15855 116.711 196.5908 C 125.64144 203.5835 137.94186 214.87293 137.35212 215.54692 C 137.09937 215.71542 133.98214 213.1037 130.44366 209.81796 C 126.82093 206.44798 121.76596 202.15126 119.06998 200.38202 C 116.374 198.61278 112.58277 195.5798 110.64503 193.81056 C 108.7073 191.95707 106.26406 190.01933 105.33732 189.51384 C 104.32632 189.00834 103.06258 187.7446 102.55708 186.81785 C 99.10286 180.9204 92.0259 166.93498 90.76216 163.3965 C 89.83541 161.03751 88.48742 157.41479 87.56068 155.30855 C 86.71818 153.20231 85.87569 149.57959 85.62294 147.30485 C 84.6962 139.3854 84.8647 124.64174 85.79144 120.00802 C 86.38119 117.48054 87.56068 111.16182 88.57167 106.10686 C 89.49842 100.96764 90.84641 94.14343 91.5204 90.77345 C 93.03689 83.0225 93.03689 83.528 90.50941 80.49502 C 88.82442 78.47303 87.64493 77.88328 85.37019 77.88328 C 81.41047 77.88328 77.53499 81.67451 77.53499 85.63423 C 77.53499 88.33022 80.98922 94.73318 82.50571 94.73318 C 82.84271 94.73318 83.60095 95.65992 84.10645 96.83941 C 84.8647 98.5244 84.78045 101.13614 83.8537 108.46584 C 83.17971 113.60506 82.58996 118.23878 82.58996 118.57578 C 82.58996 120.00802 75.59725 125.82123 73.23827 126.32673 C 65.655815 128.01172 57.31512 126.57948 57.31512 123.63075 C 57.31512 122.95675 56.80962 122.28276 56.135624 122.03 C 54.450635 121.35601 52.26015 115.62705 51.080656 108.63434 C 49.901163 101.64163 49.98541 96.08117 51.333404 92.71119 C 51.8389 91.3632 52.09165 89.17271 51.8389 87.82472 C 50.996406 84.37049 46.194186 79.56827 43.498203 79.56827 C 40.80222 79.56827 37.095243 83.0225 37.095243 85.54998 C 37.095243 87.74047 39.20148 92.28994 41.223467 94.48043 C 43.75095 97.09216 45.183193 100.54639 47.03668 108.21309 C 49.311417 117.39629 49.479916 124.30474 47.62643 134.24618 C 46.615434 139.97514 46.362685 144.18762 46.78393 148.98984 C 47.45793 157.07779 49.564165 164.576 50.65941 162.891 C 51.080656 162.217 51.164905 164.49174 50.82791 168.45147 C 49.98541 179.15115 50.15391 183.02663 52.1759 192.46257 C 54.197886 202.31976 57.652115 213.2722 62.538584 225.2356 C 64.30782 229.61659 65.740064 233.66056 65.740064 234.2503 C 65.740064 234.84005 66.66681 238.21003 67.76205 241.66426 L 69.78404 247.98297 L 67.5093 254.80718 C 65.40307 261.21014 65.15032 261.6314 62.11734 262.55813 C 60.3481 263.06363 59.084356 263.90612 59.252855 264.41162 C 59.75835 265.9281 78.79873 267.1076 92.78415 266.4336 C 99.94535 266.18086 109.38129 266.2651 113.76226 266.68635 C 124.46195 267.69735 130.52791 268.1186 144.51332 268.7926 C 151.00053 269.04534 156.898 269.6351 157.65624 270.05633 C 158.41449 270.39333 160.52072 270.56183 162.28996 270.30908 C 164.7332 269.97208 165.2387 270.05633 164.31195 270.73033 C 163.2167 271.57282 163.2167 271.65707 164.31195 271.65707 C 164.98595 271.65707 167.85043 271.90982 170.54641 272.24682 C 174.08489 272.58382 175.34863 272.41532 174.92738 271.74132 C 174.16914 270.56183 175.51713 270.56183 176.69662 271.74132 C 177.28637 272.33107 182.17284 272.66807 190.51354 272.58382 C 206.77368 272.49957 208.96417 272.33107 208.96417 271.57282 C 208.96417 270.73033 216.63087 270.14058 234.15476 269.55084 C 242.2427 269.2981 249.15117 268.87684 249.48817 268.6241 C 250.16216 268.2871 256.39662 267.6131 283.7777 265.33836 C 300.4591 263.90612 303.57633 263.06363 305.26132 259.18815 C 306.4408 256.40792 307.36756 255.64967 309.8108 255.64967 C 311.83278 255.64967 315.961 251.18445 315.961 248.99396 C 315.961 248.15147 314.4445 246.38223 312.67527 245.20274 C 309.72654 243.0965 308.88405 242.928 304.84007 243.4335 C 300.7961 243.939 299.53236 243.602 291.1074 240.06352 L 281.83997 236.18804 L 270.4663 237.53604 C 245.6127 240.56902 244.68595 240.65327 217.97886 241.83276 C 211.15466 242.16976 205.5942 242.67525 205.5942 243.0965 C 205.5942 243.7705 193.96776 243.602 179.8981 242.591 C 168.94567 241.83276 162.28996 239.22103 155.887 233.2393 C 153.35952 230.79608 149.73679 227.67885 147.8833 226.33086 C 146.02981 224.98286 143.16533 222.37113 141.56459 220.6019 L 138.61586 217.31616 L 141.81734 220.2649 C 143.58658 221.86563 145.10307 223.04513 145.27157 222.79238 C 145.44007 222.53963 148.8943 225.31986 153.02252 229.02684 C 164.3962 238.96828 167.93468 240.40052 185.37432 241.66426 C 190.93478 242.0855 199.27548 241.83276 230.02654 240.06352 C 243.2537 239.30528 279.05973 235.7668 281.41872 234.9243 C 282.4297 234.5873 282.2612 234.16606 280.66047 232.90232 L 278.55424 231.38582 L 283.18796 226.83635 C 285.71544 224.30887 290.51766 218.15866 293.88764 213.01944 C 297.17337 207.96447 300.37485 203.33075 300.88035 202.741 C 302.4811 200.80327 307.53606 187.66035 308.7998 182.09988 C 310.56904 174.09618 311.07453 161.29026 310.23204 148.0631 C 309.3053 135.17292 307.70455 129.02271 308.2943 140.48064 C 308.6313 149.07409 307.4518 158.59428 304.16608 172.15844 C 299.36386 191.87282 290.34916 204.84724 275.6055 213.35644 C 261.4516 221.44439 247.97168 224.89862 232.97527 224.22462 C 227.83605 224.05612 222.02284 223.46637 219.9166 222.87663 C 217.81037 222.37113 212.16565 221.02314 207.36343 219.84365 C 202.47696 218.66415 198.096 217.31616 197.67474 216.97916 C 197.16924 216.55792 195.4 215.96817 193.79927 215.63117 C 186.8908 214.19893 172.31565 199.62377 167.09218 188.9241 C 161.11047 176.53942 157.0665 159.68952 157.82474 150.33783 C 158.41449 143.26087 164.81745 129.35971 171.13616 121.52451 C 173.49514 118.57578 175.68563 115.79555 175.93838 115.3743 C 177.03362 113.85781 186.5538 106.02261 190.26079 103.66362 C 192.28277 102.39988 196.83225 100.20939 200.37072 98.77715 C 206.01544 96.50242 207.78468 96.16542 214.01914 96.24967 C 217.97886 96.33392 222.1071 96.58667 223.28658 96.83941 C 224.46607 97.09216 226.9093 97.42916 228.7628 97.68191 C 232.13278 98.10316 240.81047 100.88339 243.7592 102.39988 C 244.6017 102.90538 246.03394 102.98963 246.96068 102.73688 C 248.05593 102.39988 248.39292 102.56838 248.14018 103.32662 C 247.88743 104.00062 250.16216 105.76986 254.2904 108.0446 C 263.55783 113.09956 269.1183 118.82853 272.99377 127.25347 C 274.763 131.0447 276.36375 135.59417 276.6165 137.36341 C 278.21724 149.41109 278.21724 150.08508 276.36375 156.31954 C 275.35276 159.77377 273.75202 164.239 272.74102 166.34523 C 268.6128 174.85443 259.34536 183.27937 251.51016 185.63836 C 249.65667 186.2281 247.55043 186.9021 246.87643 187.15485 C 246.20244 187.4076 244.4332 187.7446 243.0852 187.99735 C 241.65297 188.16584 238.61999 188.5871 236.34525 188.9241 C 231.12178 189.68233 224.12908 188.7556 220.0851 186.64935 C 207.27918 179.99365 194.97876 155.30855 199.86523 146.0411 C 201.80297 142.50263 211.49166 130.11796 213.4294 128.85421 C 214.44039 128.26447 217.13637 127.25347 219.49536 126.74798 C 223.87633 125.73698 229.68954 126.66373 234.15476 128.93846 C 235.33426 129.61246 236.85075 130.11796 237.4405 130.11796 C 240.05223 130.11796 244.51745 134.16193 246.70794 138.5429 C 248.72992 142.58688 248.98267 144.01912 248.81417 150.25358 C 248.64567 155.8983 248.22443 158.17303 246.4552 161.79576 C 241.31597 172.2427 231.96428 175.86542 222.19134 171.0632 C 218.31586 169.20971 217.47337 168.28297 215.36713 163.81775 C 212.67115 158.00453 212.33415 153.28656 214.35614 148.65284 C 216.20963 144.27187 219.0741 141.99713 224.88732 140.56489 C 229.85804 139.30115 230.36354 139.30115 233.56502 140.73339 C 239.96798 143.59787 243.67495 150.59058 241.48447 155.7298 C 239.20973 160.95326 235.16576 163.81775 230.19504 163.81775 C 223.37083 163.7335 216.88362 153.28656 221.34884 149.83233 C 223.45508 148.31584 228.34155 148.31584 228.34155 149.83233 C 228.34155 150.67483 227.2463 151.18033 225.14007 151.34882 C 222.35984 151.60157 222.02284 151.85432 222.2756 153.62356 C 222.69684 156.48804 224.88732 159.26827 228.00455 160.70052 C 231.12178 162.217 234.49176 161.12176 237.946 157.41479 C 241.23172 153.79206 240.97897 150.08508 236.935 146.0411 C 232.97527 142.16563 230.1108 141.32314 225.05582 142.67113 C 220.33785 143.93487 218.82136 145.28286 216.54662 149.91658 C 214.52464 154.12906 214.77738 157.24629 217.55762 163.14375 C 219.15836 166.42948 220.2536 167.52472 223.96058 169.29396 C 226.4038 170.47345 229.4368 171.4002 230.70054 171.4002 C 233.31227 171.4002 239.12548 168.53572 240.81047 166.42948 C 247.46618 158.17303 249.06692 148.4001 245.19144 139.7224 C 243.4222 135.50992 239.54673 132.81394 231.79578 130.11796 C 225.56132 127.92747 219.5796 128.26447 215.11438 131.0447 C 211.66015 133.15094 207.27918 138.5429 204.66745 143.59787 C 203.65645 145.70411 202.22421 148.0631 201.46597 148.90559 C 200.28647 150.33783 200.53922 153.20231 202.47696 160.02652 C 203.7407 164.576 209.55392 174.34893 213.34514 178.30866 C 219.83235 185.13286 224.12908 186.9021 234.239 186.81785 C 239.37823 186.81785 242.2427 186.48085 242.49546 185.80686 C 242.66396 185.30136 243.0852 185.04861 243.50646 185.30136 C 244.51745 185.8911 255.97538 181.59439 259.0926 179.48815 C 263.30508 176.62367 267.7703 171.5687 270.04504 167.10348 C 271.14028 164.7445 272.06703 162.63825 271.98278 162.30126 C 271.89853 161.96426 272.06703 161.12176 272.40402 160.44777 C 272.65677 159.77377 273.49927 156.5723 274.2575 153.45506 C 276.2795 145.11436 275.437 137.70041 271.73003 129.86521 C 270.1293 126.41098 268.7813 123.29375 268.7813 122.8725 C 268.7813 121.52451 261.03035 114.44755 256.14388 111.33032 C 247.12918 105.68561 236.85075 101.22039 230.36354 100.20939 C 229.01555 99.95664 225.81407 99.1984 223.28658 98.44015 C 215.87263 96.33392 206.01544 97.34491 198.51724 100.88339 C 195.2315 102.48413 190.85053 105.09586 188.7443 106.78085 C 186.63806 108.46584 183.43658 111.07758 181.5831 112.59407 C 177.03362 116.30104 169.53542 124.97874 166.67093 129.94946 C 161.86871 138.3744 159.08848 146.7151 159.17273 153.20231 C 159.25698 163.902 163.30096 178.98265 169.11417 190.18783 C 172.48415 196.5908 184.86882 210.32346 187.48055 210.49196 C 188.4073 210.5762 191.44028 211.7557 194.22051 213.18794 C 205.2572 218.83265 222.86533 222.79238 236.68225 222.79238 C 248.89842 222.79238 258.33436 220.51764 270.4663 214.53593 C 278.47 210.66045 281.16597 208.80697 286.1367 203.83625 C 291.69715 198.27578 299.9536 185.63836 299.9536 182.68963 C 299.9536 182.09988 300.88035 178.64565 302.05984 175.02293 C 307.4518 158.67853 308.54705 138.12166 304.92432 124.64174 C 303.99758 121.44026 302.90233 117.14354 302.39684 115.29005 C 301.4701 111.58307 296.83637 103.83212 290.9389 96.16542 C 283.69345 86.72948 261.4516 72.15432 247.29768 67.60485 C 233.56502 63.139624 217.22062 62.71838 203.2352 66.59385 Z" stroke="black" stroke-linecap="round" stroke-linejoin="round" stroke-width="1"/>
        </g>
        <g id="Graphic_160">
          <path d="M 108.7073 189.85083 C 108.7073 190.69333 111.23478 191.87282 111.82453 191.28307 C 112.07728 191.03033 111.99303 190.52483 111.65603 190.01933 C 110.98203 188.9241 108.7073 188.7556 108.7073 189.85083 Z" fill="#FFFFFF"/>
          <path d="M 108.7073 189.85083 C 108.7073 190.69333 111.23478 191.87282 111.82453 191.28307 C 112.07728 191.03033 111.99303 190.52483 111.65603 190.01933 C 110.98203 188.9241 108.7073 188.7556 108.7073 189.85083 Z" stroke="black" stroke-linecap="round" stroke-linejoin="round" stroke-width="1"/>
        </g>
        <g id="Graphic_159">
          <path d="M 184.27907 273.9318 C 184.86882 274.1003 186.04831 274.1003 186.80656 273.9318 C 187.64905 273.67906 187.14356 273.51056 185.79557 273.51056 C 184.36332 273.51056 183.77358 273.67906 184.27907 273.9318 Z" fill="#FFFFFF"/>
          <path d="M 184.27907 273.9318 C 184.86882 274.1003 186.04831 274.1003 186.80656 273.9318 C 187.64905 273.67906 187.14356 273.51056 185.79557 273.51056 C 184.36332 273.51056 183.77358 273.67906 184.27907 273.9318 Z" stroke="black" stroke-linecap="round" stroke-linejoin="round" stroke-width="1"/>
        </g>
        <g id="Graphic_158">
          <path d="M 87.56068 82.60125 C 89.58267 85.21299 89.83541 87.82472 88.23467 90.01521 C 87.05518 91.7002 83.3482 91.61595 82.84271 89.93096 C 82.58996 89.34121 83.09546 89.08846 84.10645 89.34121 C 86.54968 90.01521 88.15042 87.57197 86.88668 84.96024 C 86.21269 83.3595 85.53869 82.93825 84.27495 83.3595 C 82.08446 84.03349 82.08446 82.43275 84.1907 81.25326 C 85.53869 80.57927 86.12844 80.83201 87.56068 82.60125 Z" fill="black"/>
        </g>
        <g id="Graphic_157">
          <path d="M 45.94144 84.11774 C 48.047675 86.22398 48.047675 87.15072 46.109937 91.11045 C 45.183193 93.21669 43.076956 93.63793 41.476216 92.03719 C 39.791226 90.3522 40.296723 89.67821 42.908457 90.18371 C 45.85719 90.77345 46.78393 89.00421 44.930444 86.30823 C 43.91945 84.87599 43.498203 84.70749 42.908457 85.54998 C 42.23446 86.56098 41.981713 86.56098 41.391966 85.46574 C 40.88647 84.70749 40.88647 83.865 41.476216 83.191 C 42.73996 81.59026 43.6667 81.84301 45.94144 84.11774 Z" fill="black"/>
        </g>
        <g id="Graphic_156">
          <path d="M 186.21681 104.33762 C 186.21681 104.50612 185.62707 104.92736 184.86882 105.18011 C 184.19483 105.43286 183.85783 105.34861 184.11058 104.84311 C 184.61607 104.00062 186.21681 103.66362 186.21681 104.33762 Z" fill="black"/>
        </g>
        <g id="Graphic_155">
          <path d="M 310.1478 246.71923 C 309.55804 247.47747 308.1258 248.06722 307.03056 248.06722 C 304.84007 248.06722 303.49208 246.71923 305.68257 246.71923 C 306.4408 246.71923 308.04155 246.38223 309.22105 245.96098 C 311.07453 245.37124 311.1588 245.4555 310.1478 246.71923 Z" fill="black"/>
        </g>
        <g id="Graphic_154">
          <path d="M 308.54705 250.34196 C 309.89504 250.51046 310.90603 251.01595 310.90603 251.35295 C 310.90603 252.19544 305.9353 251.4372 305.34557 250.51046 C 305.09282 250.0892 305.17707 249.83646 305.5983 249.83646 C 305.9353 249.9207 307.2833 250.17346 308.54705 250.34196 Z" fill="black"/>
        </g>
        <g id="Graphic_153">
          <path d="M 300.7961 259.01965 C 300.7961 260.36764 300.4591 261.54714 300.03785 261.54714 C 299.70085 261.54714 299.36386 260.4519 299.4481 259.01965 C 299.53236 255.73392 300.7961 255.73392 300.7961 259.01965 Z" fill="black"/>
        </g>
        <g id="Graphic_152">
          <path d="M 295.74113 258.85115 C 295.74113 259.86215 290.85466 261.71564 289.25392 261.2944 C 287.99018 260.9574 287.99018 260.87314 289.50667 260.7889 C 290.4334 260.7889 291.9499 260.1149 292.87665 259.4409 C 294.6459 258.0929 295.74113 257.84016 295.74113 258.85115 Z" fill="black"/>
        </g>
        <g id="Graphic_151">
          <path d="M 284.4517 260.53614 C 284.19895 260.9574 281.25022 261.6314 277.88024 261.88413 C 274.51026 262.22113 270.8033 262.72663 269.6238 262.89513 C 268.02305 263.23213 267.85455 263.14788 268.69705 262.55813 C 269.37104 262.05263 272.57252 261.4629 275.85825 261.1259 C 279.14398 260.87314 282.51396 260.36764 283.4407 260.1149 C 284.36745 259.86215 284.7887 260.03065 284.4517 260.53614 Z" fill="black"/>
        </g>
        <g id="Graphic_150">
          <path d="M 122.18721 260.70464 C 124.29345 261.04164 131.5389 261.7999 138.36311 262.38963 C 145.27157 262.97938 150.83203 263.73762 150.83203 264.07462 C 150.83203 264.41162 149.2313 264.58012 147.2093 264.41162 C 145.27157 264.24312 137.43637 263.48487 129.76966 262.81088 C 122.10296 262.05263 107.27506 261.37864 96.74387 261.2944 C 86.12844 261.21014 77.53499 260.87314 77.53499 260.4519 C 77.53499 259.69365 117.30074 259.86215 122.18721 260.70464 Z" fill="black"/>
        </g>
        <g id="Graphic_149">
          <path d="M 71.72178 263.23213 C 70.62653 264.15887 68.941544 264.9171 67.93055 264.9171 C 66.58256 264.83287 67.00381 264.41162 69.44704 263.23213 C 73.659515 261.1259 74.33351 261.1259 71.72178 263.23213 Z" fill="black"/>
        </g>
        <g id="Graphic_148">
          <path d="M 256.14388 263.56912 C 255.89113 263.82187 249.15117 264.24312 241.14747 264.49587 C 233.22802 264.74862 224.12908 265.2541 221.01185 265.67536 C 213.17664 266.7706 167.59768 267.6131 161.36322 266.7706 C 157.90899 266.34936 163.46945 266.0966 178.63436 266.01236 C 190.93478 265.9281 206.26819 265.50686 212.7554 264.9171 C 225.98256 263.82187 256.81787 262.81088 256.14388 263.56912 Z" fill="black"/>
        </g>
      </g>
    </g>
  </g>
</svg>
