<?xml version="1.0" encoding="UTF-8" standalone="no"?>
<!DOCTYPE svg PUBLIC "-//W3C//DTD SVG 1.1//EN" "http://www.w3.org/Graphics/SVG/1.1/DTD/svg11.dtd">
<svg xmlns="http://www.w3.org/2000/svg" xmlns:dc="http://purl.org/dc/elements/1.1/" version="1.1" xmlns:xl="http://www.w3.org/1999/xlink" viewBox="40.5 59.88832 283.5 303.22336" width="283.5" height="303.22336">
  <defs>
    <clipPath id="artboard_clip_path">
      <path d="M 40.5 59.88832 L 324 59.88832 L 324 363.1117 L 40.5 363.1117 Z"/>
    </clipPath>
  </defs>
  <g id="Snail_Shell_(1)" fill-opacity="1" stroke="none" stroke-dasharray="none" stroke-opacity="1" fill="none">
    <title>Snail Shell (1)</title>
    <g id="Snail_Shell_(1)_Layer_2" clip-path="url(#artboard_clip_path)">
      <title>Layer 2</title>
      <g id="Group_3">
        <g id="Graphic_52">
          <path d="M 120.79682 63.19868 C 117.96562 63.64571 116.17749 65.13582 115.13442 67.818014 C 114.24035 70.053176 112.30321 74.37449 110.8131 77.50371 C 109.17399 80.48393 107.38586 85.84832 106.93882 89.42457 C 106.49179 92.85182 105.00168 98.66324 103.95861 102.2395 C 101.1274 110.88212 101.57444 124.14408 105.1507 131.14759 L 107.9819 136.66098 L 103.8096 138.3001 C 101.42543 139.19417 97.70016 140.83328 95.465 142.02537 C 93.08082 143.21746 89.65358 144.11152 87.71644 144.11152 C 83.99117 144.11152 78.03074 150.36997 78.03074 154.39326 C 78.03074 155.73436 74.00745 160.65171 69.2391 165.56907 C 62.83164 171.82752 59.553404 176.59587 57.31824 182.85432 C 55.530114 187.47365 54.18902 192.09298 54.18902 192.83804 C 54.18902 193.7321 52.102866 198.94748 49.569683 204.60989 C 45.09936 214.4446 44.95035 215.18965 46.73848 222.34217 C 47.781554 226.36546 48.52661 234.11402 48.3776 239.62742 C 48.228587 245.88587 48.97364 251.6973 50.61276 255.72058 C 51.953855 259.14782 52.69891 263.1711 52.25188 264.66122 C 51.804845 266.44935 52.84792 268.83352 55.08308 270.91967 C 57.02022 272.7078 58.65934 275.68802 58.65934 277.47615 C 58.65934 279.26428 60.29846 283.28757 62.38461 286.4168 C 64.47076 289.397 67.599985 295.35744 69.09009 299.52974 C 71.17624 304.7451 75.19953 310.2585 82.05403 317.262 C 87.56743 322.7754 92.93181 327.39475 93.97489 327.39475 C 95.01796 327.39475 103.36257 331.26903 112.75024 336.03737 C 138.67811 349.0013 143.74448 351.23647 151.49304 352.57757 C 155.36732 353.32262 159.83764 354.96174 161.32775 356.30284 C 162.66885 357.64393 166.99016 359.13404 170.86444 359.58107 C 176.97388 360.47514 178.01695 360.1771 181.59321 356.30284 C 185.31848 352.42856 186.36156 351.98152 194.11012 352.42856 C 199.92154 352.8756 207.07405 351.6835 216.75975 349.1503 C 228.08457 346.0211 232.7039 345.42505 240.15444 346.1701 C 249.09508 347.2132 249.3931 347.06417 254.60848 341.8488 C 258.78078 337.6765 259.67485 335.88836 258.9298 332.4611 C 257.88672 327.09673 262.05902 322.3284 270.85065 318.3051 C 279.34427 314.57982 288.1359 306.23522 288.1359 301.9139 C 288.1359 298.03963 294.24534 292.82425 295.28842 295.95348 C 296.1825 298.48666 301.54687 297.89062 302.58995 295.20843 C 303.03698 294.01634 302.73896 291.33415 301.69588 289.248 C 299.75874 284.77767 303.335 269.7276 308.40137 262.27705 C 310.0405 259.74387 311.97762 254.5285 312.42466 250.80322 C 313.0207 247.07795 314.80883 241.26653 316.44795 237.8393 C 319.13014 232.6239 319.42816 230.9848 317.93805 227.1105 C 316.29894 222.7892 313.46773 205.35494 310.78554 182.7053 C 309.89147 176.14883 308.55038 172.8706 304.08005 167.5062 C 301.09984 163.78094 298.56666 159.45963 298.56666 157.96952 C 298.56666 151.26404 285.60272 128.76341 278.15218 122.80298 C 276.36405 121.31288 274.4269 118.77969 273.97988 117.14057 C 273.38384 115.50146 269.65857 112.67025 265.33726 110.5841 C 261.01594 108.64696 254.9065 104.62367 251.62827 101.79247 C 248.35003 98.81225 244.92278 96.42808 243.8797 96.42808 C 242.83663 96.42808 239.85642 95.08698 237.17422 93.44786 C 234.49203 91.80875 230.46874 90.46765 228.3826 90.46765 C 226.29644 90.46765 223.0182 88.97754 221.08106 87.0404 C 215.26964 81.527 210.05427 78.54679 206.329 78.54679 C 204.54087 78.54679 196.04726 76.60965 187.70265 74.22548 C 179.06003 71.69229 165.64906 69.15911 156.11237 68.26505 C 147.17173 67.51999 138.08207 66.1789 135.99592 65.43384 C 130.48252 63.34769 125.41616 62.60264 120.79682 63.19868 Z" fill="black"/>
        </g>
        <g id="Graphic_51">
          <path d="M 141.65833 85.55029 C 146.57568 93.8949 143.89349 94.78896 135.99592 87.48743 L 129.43945 81.527 L 126.90627 84.80524 C 125.26715 87.0404 124.22407 90.91468 124.22407 95.385 C 124.22407 101.49445 124.6711 102.83554 127.20429 103.43158 C 130.78054 104.32565 130.92956 106.70982 127.94934 113.86234 C 125.41616 119.67376 125.86319 123.25002 128.99242 123.25002 C 131.67461 123.25002 138.5291 112.37223 141.50932 103.28257 C 143.89349 96.27907 144.19151 95.98105 145.3836 99.4083 C 147.02272 103.5806 144.63855 115.79948 141.06229 121.46189 C 139.72119 123.54804 139.27416 126.52825 139.8702 129.06143 C 140.76427 133.08473 140.46624 133.23374 132.27065 135.17088 C 124.96913 136.959 123.33 136.959 119.90276 135.02186 C 116.62452 133.08473 115.87947 131.4456 114.68738 122.50496 C 113.79332 115.35245 113.94233 109.39202 115.13442 103.72961 C 116.02848 99.25928 116.77353 94.34193 116.77353 92.85182 C 116.77353 91.51072 119.45573 86.59337 122.88297 82.12305 L 128.8434 73.927455 L 133.46274 76.60965 C 135.84691 78.09976 139.57218 82.12305 141.65833 85.55029 Z" fill="#FFFFFF"/>
        </g>
        <g id="Graphic_50">
          <path d="M 168.18224 86.44436 C 168.18224 90.31864 165.20203 90.16963 164.755 86.14634 C 164.30796 83.76217 164.904 82.8681 166.2451 83.31513 C 167.28818 83.76217 168.18224 85.10326 168.18224 86.44436 Z" fill="#FFFFFF"/>
        </g>
        <g id="Graphic_49">
          <path d="M 157.9005 144.85657 C 142.85042 140.38625 123.77704 141.1313 115.73046 146.34668 C 113.94233 147.53877 111.40915 148.13481 110.06805 147.53877 C 107.38586 146.6447 104.85267 149.3269 104.85267 153.35019 C 104.85267 154.8403 106.78981 156.47941 110.06805 157.52249 C 122.28693 161.54578 129.73747 173.16862 124.82011 180.47015 C 122.58495 184.0464 122.58495 184.34442 124.82011 184.34442 C 129.14143 184.34442 134.2078 179.8741 135.10186 175.40378 C 136.29394 170.1884 140.61525 167.5062 150.30095 166.46313 C 156.70842 165.8671 157.9005 165.12204 159.83764 161.24776 C 161.02973 158.71458 162.66885 155.43634 163.4139 153.79722 C 164.30796 152.1581 165.35104 148.58184 165.79807 145.75064 C 165.81522 145.65754 165.83282 145.56544 165.85084 145.47436 C 165.85084 145.47436 159.47359 145.3285 157.9005 144.85657 Z M 171.23956 146.8068 C 170.51928 152.26188 167.51093 159.95244 163.71192 165.27105 C 160.88072 169.14533 158.49655 172.8706 158.49655 173.61565 C 158.64556 174.50972 171.31147 185.08948 175.63278 187.62266 C 176.67586 188.2187 180.1031 187.32464 183.23233 185.68552 C 187.1066 183.74838 190.53386 183.15234 193.21605 183.74838 C 197.53736 184.64245 212.43844 179.7251 216.46173 175.99982 C 218.10085 174.50972 217.95184 173.91367 215.12063 172.42356 C 213.3325 171.5295 210.3523 171.08247 208.56416 171.5295 C 204.09384 172.57258 202.60373 170.93346 205.88197 168.54928 C 208.26614 166.76116 207.96812 166.31412 203.34878 161.8438 C 198.58044 157.07546 198.28242 156.92645 196.34528 159.75765 C 194.70616 161.99281 193.8121 162.14182 192.32199 160.65171 C 190.83188 159.1616 191.1299 158.41655 193.21605 156.77744 C 195.60022 154.9893 195.45121 154.69128 191.1299 153.20118 C 184.42442 150.817 183.82837 151.11503 183.82837 155.88337 C 183.82837 159.1616 182.33827 161.39677 177.86794 164.97303 C 170.71543 170.63544 168.9273 169.89038 172.35455 162.73787 C 173.69564 159.75765 174.88773 155.43634 174.88773 153.05217 C 174.88773 151.30114 175.38612 149.62132 176.18603 148.45562 Z M 174.64842 137.53431 C 176.4494 136.66283 183.20079 138.61899 195.3022 143.36647 C 209.90526 149.17789 216.75975 156.47941 231.3628 181.81124 C 233.29994 185.2385 235.5351 188.51673 236.42917 188.96376 C 237.17422 189.5598 241.94257 188.66574 247.00893 187.17563 C 251.9263 185.68552 259.0788 183.59937 262.80407 182.5563 C 270.2546 180.47015 270.70164 178.98004 268.16846 165.71808 L 267.1254 159.75765 L 270.1056 163.3339 C 271.89373 165.27105 273.23483 167.95324 273.23483 169.29434 C 273.23483 170.78445 274.1289 173.0196 275.17197 174.50972 C 277.1091 177.1919 277.25812 177.1919 278.3012 174.65873 C 280.38734 169.14533 269.50956 148.58184 264.5922 148.58184 C 263.54913 148.58184 261.91 150.22096 261.01594 152.30711 C 260.12188 154.39326 258.48276 156.03238 257.4397 156.03238 C 256.3966 156.03238 255.0555 157.37348 254.60848 159.1616 C 253.4164 162.88688 241.79356 168.40027 237.0252 167.65522 C 234.194 167.20819 234.79005 166.46313 240.8995 162.73787 C 250.8832 156.62842 260.5689 146.6447 265.03924 138.15109 C 267.72143 132.93571 270.99967 133.68077 269.65857 139.04516 C 268.9135 141.72735 270.40362 145.45262 274.72493 152.60513 C 278.00317 158.11853 280.68536 164.07896 280.68536 165.8671 C 280.68536 167.65522 281.72844 169.89038 282.92053 170.93346 C 284.26162 171.97653 285.00668 173.76466 284.55964 174.95675 C 283.36756 177.78795 285.1557 181.3642 287.53986 181.3642 C 290.6691 181.3642 291.56315 174.80774 289.17898 170.0394 C 287.9869 167.65522 286.9438 163.1849 286.9438 160.20468 C 286.9438 156.92645 285.00668 151.26404 282.32448 146.04866 C 275.768 133.82978 273.97988 131.89264 269.36055 131.2966 C 264.29418 130.84956 263.1021 129.50847 262.50605 123.99507 C 261.91 118.18365 259.22782 118.18365 258.63177 123.99507 C 258.33375 126.37924 256.84364 129.9555 255.20453 131.89264 C 253.71442 133.97879 252.37332 136.66098 252.37332 138.15109 C 252.37332 141.1313 238.51532 156.03238 235.68412 156.03238 C 234.49203 156.03238 232.40588 157.37348 231.06478 159.1616 C 227.93556 162.73787 224.95534 162.29083 224.3593 157.82051 C 223.91227 155.28733 225.25336 153.94623 230.76676 151.41305 C 244.02872 145.1546 258.48276 124.14408 252.0753 120.12079 C 248.64805 117.88563 247.903 118.63068 249.54212 122.65397 C 250.5852 125.7832 250.43618 127.2733 248.64805 129.21045 C 247.45597 130.55154 246.4129 132.33967 246.4129 133.08473 C 246.4129 135.76692 239.40939 142.4724 235.5351 143.36647 C 231.06478 144.55855 230.17072 142.62141 233.896 139.6412 C 235.08807 138.44911 237.91928 134.72384 240.00543 131.14759 C 243.5817 125.03814 243.5817 124.4421 241.34653 121.01485 C 237.91928 115.79948 235.23708 116.39552 231.80984 122.952 C 228.08457 130.10451 219.59095 139.6412 219.59095 136.66098 C 219.59095 135.4689 221.6771 131.4456 224.06128 127.72034 C 229.12764 120.12079 229.7237 114.30937 225.8494 110.88212 C 222.27315 107.60389 216.61074 107.60389 216.61074 110.73311 C 216.61074 113.11728 213.03448 125.7832 210.5013 131.74363 C 209.45822 134.42582 207.96812 135.17088 203.94483 135.17088 C 197.9844 135.17088 197.38835 133.82978 201.70966 129.9555 C 208.41515 123.84606 210.79932 117.88563 209.75625 109.98806 C 209.30921 105.96477 207.96812 102.2395 206.77603 101.79247 C 204.09384 100.74939 203.79581 101.64346 202.60373 111.62718 C 201.70966 118.48167 200.36857 121.6109 195.45121 127.72034 C 192.17298 131.74363 188.89474 135.17088 188.2987 135.17088 C 184.87145 135.17088 185.6165 131.74363 190.23584 126.67726 C 195.45121 120.86584 199.3255 112.07421 197.83538 109.54103 C 197.38835 108.79597 196.19627 108.94498 195.00418 109.83905 C 192.02397 112.37223 189.7888 110.28608 189.7888 105.21971 C 189.7888 99.5573 187.40463 94.93797 184.42442 94.93797 C 182.7853 94.93797 182.48728 95.83204 183.08332 97.76918 C 184.2754 101.94148 181.14618 119.97178 178.31498 124.14408 C 175.03674 129.21045 174.4407 127.72034 176.37784 120.2698 C 177.71893 115.05442 177.71893 113.56432 175.7818 111.47817 C 174.4407 109.98806 173.39762 107.45488 173.39762 105.66675 C 173.39762 104.02763 172.65257 100.74939 171.7585 98.36522 C 170.11938 94.34193 169.97037 94.49094 168.18224 103.13356 C 166.0961 113.11728 162.37083 122.50496 159.83764 124.14408 C 158.49655 124.88913 158.34753 123.99507 159.09259 121.31288 C 159.53962 119.07771 159.2416 112.52124 158.34753 106.56081 C 156.85743 96.87511 154.32424 88.67952 154.02622 92.70281 C 153.87721 93.44786 153.57919 99.5573 153.28117 105.96477 C 152.83414 112.37223 151.79106 120.41881 150.897 123.69705 C 149.5559 129.06143 149.70491 130.10451 151.94007 131.74363 C 153.43018 132.7867 155.96336 133.68077 157.7515 133.68077 C 159.08193 133.68077 168.63367 136.53186 168.63367 136.53186 Z" fill="#FFFFFF"/>
        </g>
        <g id="Graphic_48">
          <path d="M 241.49554 110.13707 C 247.30696 116.0975 247.30696 119.22672 241.64455 115.35245 C 237.62126 112.52124 227.0415 102.83554 227.0415 101.79247 C 227.0415 99.70632 236.8762 105.36872 241.49554 110.13707 Z" fill="#FFFFFF"/>
        </g>
        <g id="Graphic_47">
          <path d="M 98.44521 159.1616 C 109.91904 163.78094 115.73046 167.3572 117.6676 171.23148 C 120.64781 176.89389 117.96562 176.59587 110.66409 170.48642 C 105.00168 165.56907 96.35906 161.99281 90.10061 161.99281 C 86.97138 161.99281 86.07732 160.5027 88.01446 158.56556 C 89.50457 157.07546 93.82588 157.37348 98.44521 159.1616 Z" fill="#FFFFFF"/>
        </g>
        <g id="Graphic_46">
          <path d="M 101.87246 175.40378 C 104.40564 177.78795 106.93882 179.8741 107.68388 179.8741 C 108.42893 179.8741 110.66409 181.66223 112.75024 183.74838 C 117.07156 188.0697 116.77353 190.00683 109.91904 198.20243 C 107.9819 200.5866 106.34278 204.31187 106.34278 206.69604 C 106.34278 212.35845 103.95861 213.69954 99.93532 210.12329 C 93.22983 204.16286 83.69315 202.97077 67.450974 206.1 C 58.95736 207.73911 61.19252 197.15935 71.77229 184.49344 C 83.99117 170.0394 93.52786 167.20819 101.87246 175.40378 Z" fill="#FFFFFF"/>
        </g>
        <g id="Graphic_45">
          <path d="M 221.23007 183.74838 C 222.8692 185.83453 222.72018 186.57959 219.44194 189.4108 C 217.3558 191.19892 211.8424 193.5831 207.22306 194.62617 C 202.60373 195.66924 198.72945 197.15935 198.72945 197.9044 C 198.72945 199.69253 209.45822 199.69253 214.5246 197.7554 C 220.336 195.52023 221.82612 197.7554 221.82612 208.48417 C 221.82612 216.97778 221.5281 217.72283 216.75975 221.74612 C 212.43844 225.32238 211.9914 226.06744 214.07756 226.9615 C 217.80283 228.3026 223.31622 224.1303 224.95534 218.6169 C 227.0415 211.46438 229.27665 213.2525 228.97863 221.89514 C 228.5316 230.83578 226.74347 233.51797 220.93205 233.51797 C 214.6736 233.51797 209.90526 231.2828 200.21956 223.83228 C 194.25913 219.21294 191.27891 215.7857 190.53386 212.65647 C 189.93781 210.2723 187.85166 205.05692 185.91452 201.33165 C 182.04024 194.03012 182.33827 191.79496 187.1066 191.79496 C 191.42792 191.79496 209.90526 185.98354 213.1835 183.59937 C 216.75975 180.76817 218.8459 180.91718 221.23007 183.74838 Z" fill="#FFFFFF"/>
        </g>
        <g id="Graphic_44">
          <path d="M 282.17547 185.98354 C 282.17547 188.96376 278.5992 189.85782 276.9601 187.32464 C 275.768 185.3875 279.04625 181.06619 280.83438 182.25827 C 281.57943 182.7053 282.17547 184.34442 282.17547 185.98354 Z" fill="#FFFFFF"/>
        </g>
        <g id="Graphic_43">
          <path d="M 151.046 186.7286 C 156.26138 188.36772 158.94358 188.66574 161.02973 187.47365 C 163.4139 186.28156 165.05302 186.8776 169.37433 190.45387 C 181.74222 200.5866 179.65607 222.7892 166.69214 219.51096 C 164.755 219.06393 161.9238 216.53075 160.43369 214.14658 C 157.60248 209.22922 155.81435 208.48417 154.47326 211.91141 C 153.28117 215.04064 157.7515 219.65997 164.00994 221.74612 C 169.0763 223.38524 170.2684 227.25952 165.35104 226.36546 C 164.00994 226.06744 160.88072 227.1105 158.49655 228.4516 C 154.32424 230.9848 154.02622 230.9848 150.897 228.3026 C 145.3836 223.08722 144.78756 220.70305 147.32074 211.31537 C 150.44996 199.0965 147.32074 191.79496 138.67811 191.79496 L 134.2078 191.79496 L 137.93306 194.77518 C 142.7014 198.35144 145.68162 208.7822 142.85042 211.16636 C 141.36031 212.50746 140.01921 212.06043 137.48603 209.52724 C 134.65482 206.69604 133.31373 206.39802 126.31022 207.29208 C 116.92254 208.33516 116.02848 206.69604 121.69089 198.79847 C 125.41616 193.43408 128.39637 190.75189 135.25087 186.8776 C 140.91328 183.74838 141.95635 183.74838 151.046 186.7286 Z" fill="#FFFFFF"/>
        </g>
        <g id="Graphic_42">
          <path d="M 298.11962 189.11277 C 299.90775 192.54002 300.6528 197.7554 300.6528 206.249 C 300.8018 220.70305 299.1627 223.53425 292.90425 220.107 C 289.17898 217.87184 288.88096 216.82877 287.83788 204.46088 C 286.7948 191.34793 286.7948 190.9009 290.52007 187.62266 C 292.60622 185.83453 294.54336 184.34442 294.8414 184.34442 C 295.28842 184.34442 296.6295 186.57959 298.11962 189.11277 Z" fill="#FFFFFF"/>
        </g>
        <g id="Graphic_41">
          <path d="M 272.34076 188.0697 C 273.38384 190.75189 270.40362 192.242 259.67485 194.62617 C 255.0555 195.52023 249.98915 197.30836 248.49904 198.50045 C 245.96586 200.5866 246.26388 200.5866 252.37332 199.84154 C 256.0986 199.3945 262.35704 198.35144 266.23132 197.45737 C 276.06603 195.37122 276.9601 196.5633 276.8111 211.16636 C 276.51306 229.19666 274.4269 230.38875 252.82035 223.68326 C 238.51532 219.21294 237.91928 218.31888 237.17422 203.56681 L 236.7272 194.32815 L 242.68762 192.391 C 248.35003 190.60288 266.23132 186.28156 269.65857 185.98354 C 270.70164 185.98354 271.74472 186.8776 272.34076 188.0697 Z" fill="#FFFFFF"/>
        </g>
        <g id="Graphic_40">
          <path d="M 284.41063 210.12329 C 284.41063 218.4679 283.8146 224.72634 282.92053 224.87535 C 282.02646 225.17337 281.2814 221.89514 281.2814 217.4248 C 281.1324 213.1035 280.68536 206.84505 280.08932 203.56681 C 279.04625 197.15935 279.9403 194.32815 282.6225 195.2222 C 283.8146 195.52023 284.41063 200.5866 284.41063 210.12329 Z" fill="#FFFFFF"/>
        </g>
        <g id="Graphic_39">
          <path d="M 229.12764 201.03363 C 230.61775 206.84505 230.17072 211.46438 228.23358 210.86834 C 225.99842 210.12329 224.65732 197.7554 226.74347 197.7554 C 227.48853 197.7554 228.5316 199.2455 229.12764 201.03363 Z" fill="#FFFFFF"/>
        </g>
        <g id="Graphic_38">
          <path d="M 88.75951 212.65647 C 99.04125 215.48767 96.65708 217.1268 82.50106 216.97778 C 70.13317 216.82877 68.49405 217.1268 64.02373 220.70305 C 59.851426 223.83228 58.65934 224.1303 57.31824 222.49118 C 55.08308 219.958 57.914286 213.1035 61.490544 212.20944 C 66.25889 210.86834 83.39512 211.16636 88.75951 212.65647 Z" fill="#FFFFFF"/>
        </g>
        <g id="Graphic_37">
          <path d="M 132.41966 214.14658 C 133.90977 215.7857 136.29394 217.4248 137.78405 217.87184 C 139.27416 218.4679 141.95635 221.4481 143.74448 224.57733 C 148.66184 233.21995 156.85743 238.43533 166.0961 238.58434 L 173.69564 238.73335 L 177.42091 247.674 C 179.80508 253.78344 182.7853 257.95574 186.36156 260.78694 C 192.32199 265.25726 196.7923 265.5553 196.04726 261.383 C 195.74923 259.44585 196.6433 258.8498 199.92154 258.8498 C 204.68988 258.8498 212.73646 251.39926 214.07756 245.73686 C 215.12063 241.41554 214.22657 241.56455 208.86218 246.92894 C 206.478 249.3131 203.19977 251.39926 201.70966 251.39926 C 197.38835 251.39926 194.25913 253.03838 194.25913 255.27354 C 194.25913 258.9988 191.42792 257.5087 186.9576 251.39926 C 179.06003 240.52148 178.613 237.69028 183.08332 229.94172 C 185.31848 226.21645 187.55364 222.7892 188.14969 222.49118 C 188.74573 222.04415 191.1299 223.38524 193.51407 225.4714 C 199.4745 230.68677 205.73295 234.11402 214.07756 237.24324 C 217.95184 238.73335 221.08106 240.37247 221.08106 241.11752 C 221.08106 243.79972 214.5246 254.6775 210.6503 258.55178 C 202.75274 266.30034 196.94132 269.7276 190.38485 270.47264 C 184.57343 271.0687 183.82837 270.77066 183.82837 268.08847 C 183.82837 266.00232 182.63629 264.95924 179.65607 264.5122 C 173.99366 263.76716 171.90751 264.5122 171.90751 267.64144 C 171.90751 271.96275 168.62928 273.75088 160.5827 273.75088 C 155.66534 273.75088 151.64205 272.8568 149.40689 271.0687 C 143.59547 266.89638 136.59196 263.32013 134.05878 263.32013 C 132.8667 263.32013 129.29044 260.3399 126.31022 256.61464 C 117.07156 245.73686 110.8131 214.74262 117.22057 212.20944 C 121.8399 210.2723 129.88648 211.31537 132.41966 214.14658 Z" fill="#FFFFFF"/>
        </g>
        <g id="Graphic_36">
          <path d="M 97.10411 225.91843 C 98.89224 226.8125 100.97839 227.25952 101.72345 226.8125 C 105.00168 224.87535 107.53487 228.1536 108.42893 235.3061 C 109.02497 239.4784 110.51508 244.8428 111.70717 247.07795 C 114.09134 251.8463 113.79332 252.14432 100.38235 253.3364 C 92.7828 254.08146 78.32876 260.3399 74.30547 264.81023 C 70.5802 268.98253 68.34504 268.5355 64.17274 262.8731 C 59.702415 257.06167 58.063296 248.27004 59.40439 237.24324 C 60.44747 229.7927 61.04351 228.74963 65.513834 226.36546 C 71.474264 223.38524 91.73973 222.9382 97.10411 225.91843 Z" fill="#FFFFFF"/>
        </g>
        <g id="Graphic_35">
          <path d="M 246.11487 225.32238 C 248.35003 226.66348 255.20453 228.89864 261.31397 230.23974 C 270.55263 232.3259 272.48977 233.36896 272.48977 235.75314 C 272.48977 240.37247 267.87044 240.22346 252.0753 234.85907 C 241.34653 231.2828 237.47225 229.34567 237.47225 227.55754 C 237.47225 222.6402 240.15444 221.89514 246.11487 225.32238 Z" fill="#FFFFFF"/>
        </g>
        <g id="Graphic_34">
          <path d="M 296.3315 230.68677 C 297.52358 234.41204 296.4805 235.75314 293.35128 234.56105 C 290.52007 233.36896 290.37106 227.55754 293.20227 227.55754 C 294.39435 227.55754 295.88446 228.89864 296.3315 230.68677 Z" fill="#FFFFFF"/>
        </g>
        <g id="Graphic_33">
          <path d="M 284.85767 233.965 C 285.1557 235.60412 284.41063 236.4982 282.32448 236.4982 C 278.5992 236.4982 276.66207 233.66698 279.34427 231.87886 C 282.17547 230.09073 284.26162 230.9848 284.85767 233.965 Z" fill="#FFFFFF"/>
        </g>
        <g id="Graphic_32">
          <path d="M 251.62827 239.62742 C 254.9065 241.41554 260.5689 243.20367 264.29418 243.79972 C 269.9566 244.54477 270.99967 245.28982 271.4467 248.41905 C 271.89373 252.44234 264.29418 265.8533 260.5689 267.1944 C 259.22782 267.79045 255.65156 265.25726 251.03222 260.63793 C 247.00893 256.61464 240.8995 251.9953 237.62126 250.5052 C 230.91577 247.37597 229.8727 243.94873 233.896 238.1373 C 236.7272 234.11402 241.79356 234.56105 251.62827 239.62742 Z" fill="#FFFFFF"/>
        </g>
        <g id="Graphic_31">
          <path d="M 294.9904 241.71357 C 296.1825 246.77993 291.86117 267.49243 288.73195 270.91967 C 285.75173 274.1979 282.4735 274.64494 281.2814 271.66473 C 280.38734 269.42957 287.68887 242.75664 289.92403 239.77643 C 292.3082 236.94522 293.94732 237.54126 294.9904 241.71357 Z" fill="#FFFFFF"/>
        </g>
        <g id="Graphic_30">
          <path d="M 283.66558 245.28982 C 283.66558 245.88587 282.6225 249.76015 281.1324 253.78344 C 278.00317 263.32013 272.34076 272.26077 269.50956 272.26077 C 266.52934 272.26077 266.67835 269.8766 269.9566 265.10825 C 271.4467 262.8731 273.53285 257.21068 274.57592 252.59135 C 275.619 247.97202 277.25812 243.79972 278.15218 243.5017 C 280.38734 242.75664 283.66558 243.79972 283.66558 245.28982 Z" fill="#FFFFFF"/>
        </g>
        <g id="Graphic_29">
          <path d="M 236.57818 253.63443 C 238.51532 254.97552 243.5817 260.0419 247.903 264.95924 C 259.0788 277.77417 255.94958 279.11527 241.19751 267.93946 C 234.79005 263.0221 228.82962 258.7008 228.08457 258.40277 C 226.29644 257.80673 229.42566 251.39926 231.66083 251.39926 C 232.40588 251.39926 234.64104 252.44234 236.57818 253.63443 Z" fill="#FFFFFF"/>
        </g>
        <g id="Graphic_28">
          <path d="M 123.33 265.10825 C 126.16121 271.96275 126.16121 272.11176 123.33 276.13505 C 112.30321 291.63217 111.70717 293.2713 111.55816 306.53324 C 111.40915 317.85806 110.96211 319.19916 108.42893 319.6462 C 106.78981 319.7952 103.06454 317.70905 99.93532 314.72884 C 96.80609 311.89763 93.67687 309.51346 93.08082 309.51346 C 90.10061 309.51346 79.66986 295.95348 78.77579 291.03613 C 77.88173 286.26778 78.32876 284.9267 84.4382 277.77417 C 91.2927 269.8766 101.72345 263.32013 107.53487 263.32013 C 109.77003 263.32013 110.8131 264.66122 111.55816 267.79045 C 112.60123 272.7078 116.62452 273.75088 119.75375 270.0256 C 121.24386 268.23748 120.79682 267.0454 117.07156 263.46914 C 112.1542 258.9988 112.30321 256.91266 117.36958 257.65772 C 119.45573 257.95574 121.39287 260.48892 123.33 265.10825 Z" fill="#FFFFFF"/>
        </g>
        <g id="Graphic_27">
          <path d="M 88.16347 266.44935 C 85.63029 268.83352 83.0971 270.47264 82.35205 269.7276 C 80.86194 268.23748 82.35205 265.8533 86.22633 263.61815 C 91.73973 260.48892 92.7828 261.83002 88.16347 266.44935 Z" fill="#FFFFFF"/>
        </g>
        <g id="Graphic_26">
          <path d="M 241.79356 275.539 C 249.2441 282.69152 255.35354 288.80096 255.35354 289.248 C 255.35354 289.69503 252.96936 292.82425 249.98915 296.1025 C 244.47575 302.21193 240.8995 303.40402 237.91928 300.4238 C 236.8762 299.38073 235.08807 299.0827 233.74698 299.67875 C 231.80984 300.2748 231.66083 301.16886 233.00192 303.55303 C 236.42917 309.9605 249.3931 306.23522 259.0788 296.2515 C 265.03924 289.99305 269.65857 288.50294 271.14868 292.2282 C 272.6388 296.1025 269.21154 299.82776 257.5887 307.1293 C 246.7109 313.9838 245.96586 314.2818 239.26037 312.9407 C 233.74698 312.04664 231.66083 310.70555 228.97863 306.68225 C 227.0415 303.85105 225.10435 299.82776 224.65732 297.7416 C 224.2103 295.65546 221.82612 289.099 219.44194 283.13856 C 217.05777 277.32714 215.12063 271.81374 215.12063 271.0687 C 215.12063 269.57858 225.8494 261.681 227.33951 262.12804 C 227.78655 262.42606 234.34302 268.3865 241.79356 275.539 Z" fill="#FFFFFF"/>
        </g>
        <g id="Graphic_25">
          <path d="M 147.46975 278.3702 C 159.09259 286.5658 166.84115 287.7579 172.20553 281.94647 L 175.9308 277.92318 L 183.08332 281.0524 C 190.68287 284.47965 195.3022 284.9267 198.72945 282.69152 C 202.3057 280.45636 204.39186 283.7346 205.43493 292.82425 C 206.62702 302.957 212.28943 315.92092 218.10085 322.17937 C 221.82612 326.05365 222.12414 326.9477 220.336 329.3319 C 217.95184 332.61013 212.28943 334.24924 201.56065 334.69628 L 193.21605 334.9943 L 192.471 328.1398 C 191.42792 320.09322 190.68287 318.90114 187.85166 321.2853 C 186.65958 322.17937 184.57343 322.6264 183.23233 322.03036 C 181.4442 321.2853 180.84816 322.03036 180.84816 324.56355 C 180.84816 329.4809 182.48728 331.41804 186.65958 332.0141 C 191.72594 332.75914 192.17298 335.44133 187.55364 337.5275 C 181.74222 340.20967 181.2952 339.91165 177.42091 331.86507 C 173.69564 324.1165 173.69564 323.37146 175.63278 300.12578 C 176.37784 290.8871 176.22883 287.16185 175.03674 287.16185 C 174.14267 287.16185 173.39762 288.50294 173.39762 290.14206 C 173.39762 291.63217 172.35455 296.84755 171.16246 301.6159 C 169.97037 306.23522 168.9273 313.38774 168.9273 317.262 C 168.9273 324.56355 167.5862 326.05365 164.60599 322.4774 C 161.62577 318.90114 161.02973 311.3016 162.96687 301.31787 C 164.30796 294.31436 164.30796 290.8871 163.26489 289.84404 C 161.17874 287.7579 157.00644 301.6159 157.00644 310.2585 C 157.00644 321.73234 162.51984 332.75914 167.5862 331.41804 C 169.97037 330.822 171.90751 333.05716 171.90751 336.3354 C 171.90751 339.3156 167.13917 338.86858 163.11588 335.44133 C 160.43369 333.20617 158.34753 332.4611 157.7515 333.35518 C 157.30446 334.10023 157.15545 335.44133 157.7515 336.1864 C 159.39061 339.0176 155.51633 339.3156 145.53261 337.08045 C 139.42317 335.59034 134.3568 333.5042 132.8667 331.71606 C 131.37659 330.07694 128.99242 328.88486 127.3533 329.18288 C 125.86319 329.4809 123.181 328.43783 121.54188 326.7987 C 118.71067 324.41453 118.71067 323.6695 120.4988 320.83828 C 121.54188 319.19916 122.88297 315.02686 123.47902 311.5996 C 123.92605 308.32137 125.56517 303.85105 126.90627 301.7649 C 134.65482 290.29107 136.14493 287.60888 136.14493 285.2247 C 136.14493 279.5623 131.5256 283.28757 125.41616 293.86733 C 121.8399 299.97677 118.56166 304.89413 117.96562 305.04314 C 114.09134 305.19215 120.64781 289.099 127.3533 281.79746 C 128.8434 280.15834 130.1845 278.0722 130.1845 277.32714 C 130.1845 275.09197 133.46274 272.26077 136.14493 272.26077 C 137.48603 272.26077 142.5524 275.09197 147.46975 278.3702 Z" fill="#FFFFFF"/>
        </g>
        <g id="Graphic_24">
          <path d="M 213.48151 278.51922 C 214.97162 282.09548 216.61074 287.60888 217.20678 290.7381 C 218.8459 299.38073 224.3593 309.36445 232.10786 317.262 C 239.26037 324.71256 240.45246 327.9908 236.57818 329.4809 C 233.15093 330.822 228.82962 327.9908 226.14743 322.4774 C 224.80633 319.7952 222.72018 317.113 221.5281 316.51696 C 218.6969 314.87785 214.22657 304.2981 212.88547 296.1025 C 212.28943 292.37722 211.54437 288.0559 211.24635 286.4168 C 210.94833 284.77767 209.30921 281.64845 207.8191 279.5623 C 205.58394 276.58208 205.28592 275.241 206.62702 273.8999 C 209.45822 271.0687 210.6503 271.96275 213.48151 278.51922 Z" fill="#FFFFFF"/>
        </g>
        <g id="Graphic_23">
          <path d="M 78.03074 275.241 C 78.03074 275.98604 76.98766 276.7311 75.64657 276.7311 C 74.45448 276.7311 73.85844 275.98604 74.30547 275.241 C 74.7525 274.34692 75.79558 273.75088 76.68964 273.75088 C 77.43469 273.75088 78.03074 274.34692 78.03074 275.241 Z" fill="#FFFFFF"/>
        </g>
        <g id="Graphic_22">
          <path d="M 264.4432 281.64845 C 263.69814 282.3935 261.91 282.69152 260.5689 282.09548 C 258.48276 281.35043 258.33375 280.7544 259.82386 278.96625 C 261.31397 277.17813 262.20803 277.0291 263.84715 278.3702 C 265.18825 279.5623 265.33726 280.7544 264.4432 281.64845 Z" fill="#FFFFFF"/>
        </g>
        <g id="Graphic_21">
          <path d="M 280.38734 284.62866 C 282.6225 288.20492 282.6225 288.94997 280.68536 290.14206 C 277.25812 292.37722 276.36405 291.9302 274.4269 288.0559 C 272.6388 284.03262 273.83087 279.11527 276.36405 280.00933 C 277.25812 280.30735 279.04625 282.3935 280.38734 284.62866 Z" fill="#FFFFFF"/>
        </g>
        <g id="Graphic_20">
          <path d="M 191.42792 115.20343 C 191.42792 116.84255 191.87495 117.28959 192.32199 116.0975 C 192.76902 115.05442 192.62 113.71333 192.17298 113.2663 C 191.72594 112.67025 191.27891 113.56432 191.42792 115.20343 Z" fill="black"/>
        </g>
        <g id="Graphic_19">
          <path d="M 201.11362 164.82402 C 200.51758 165.8671 200.36857 167.05918 200.8156 167.5062 C 202.1567 168.8473 203.6468 166.91017 202.90175 164.82402 C 202.3057 163.1849 202.00769 163.1849 201.11362 164.82402 Z" fill="black"/>
        </g>
        <g id="Graphic_18">
          <path d="M 101.87246 190.30486 C 101.87246 191.0499 102.61751 191.79496 103.36257 191.79496 C 104.25663 191.79496 104.85267 191.0499 104.85267 190.30486 C 104.85267 189.4108 104.25663 188.81475 103.36257 188.81475 C 102.61751 188.81475 101.87246 189.4108 101.87246 190.30486 Z" fill="black"/>
        </g>
        <g id="Graphic_17">
          <path d="M 97.40214 197.7554 C 97.40214 199.69253 98.14719 200.7356 99.33928 200.28858 C 100.23334 199.99055 101.1274 198.79847 101.1274 197.7554 C 101.1274 196.71232 100.23334 195.52023 99.33928 195.0732 C 98.14719 194.77518 97.40214 195.81825 97.40214 197.7554 Z" fill="black"/>
        </g>
        <g id="Graphic_16">
          <path d="M 157.00644 194.32815 C 157.30446 197.15935 162.37083 205.65296 163.71192 205.50395 C 166.2451 205.20593 166.2451 198.20243 163.71192 195.66924 C 161.17874 193.28507 157.00644 192.391 157.00644 194.32815 Z" fill="black"/>
        </g>
        <g id="Graphic_15">
          <path d="M 128.6944 225.6204 C 122.73396 228.74963 120.79682 233.51797 125.56517 233.51797 C 127.20429 233.51797 128.99242 232.92193 129.43945 232.02787 C 129.88648 231.2828 132.41966 230.09073 135.10186 229.34567 C 140.31723 228.00458 141.50932 224.1303 136.88999 223.38524 C 135.25087 223.23623 131.5256 224.2793 128.6944 225.6204 Z" fill="black"/>
        </g>
        <g id="Graphic_14">
          <path d="M 140.46624 245.88587 C 137.039 250.05817 136.29394 252.88937 137.48603 259.14782 C 137.48603 259.89288 139.27416 260.3399 141.2113 260.3399 C 144.78756 260.3399 145.08558 259.74387 146.8737 245.58785 C 147.46975 240.37247 144.93657 240.52148 140.46624 245.88587 Z" fill="black"/>
        </g>
        <g id="Graphic_13">
          <path d="M 158.04951 247.97202 C 157.45347 248.41905 157.00644 252.14432 157.00644 256.1676 C 157.00644 261.532 157.7515 264.06518 160.28467 266.59836 C 164.15895 270.47264 165.64906 268.23748 162.96687 261.83002 C 162.0728 259.59486 161.32775 256.46563 161.47676 254.97552 C 162.22181 247.97202 160.88072 245.1408 158.04951 247.97202 Z" fill="black"/>
        </g>
        <g id="Graphic_12">
          <path d="M 93.97489 231.43182 C 92.03775 233.36896 92.93181 235.00808 96.06104 235.00808 C 97.70016 235.00808 98.89224 234.26303 98.59422 233.21995 C 97.84917 231.1338 95.31599 230.09073 93.97489 231.43182 Z" fill="black"/>
        </g>
        <g id="Graphic_11">
          <path d="M 97.40214 242.45862 C 97.40214 243.20367 98.44521 243.94873 99.78631 243.94873 C 100.97839 243.94873 101.57444 243.20367 101.1274 242.45862 C 100.68037 241.56455 99.6373 240.9685 98.74323 240.9685 C 97.99818 240.9685 97.40214 241.56455 97.40214 242.45862 Z" fill="black"/>
        </g>
        <g id="Graphic_10">
          <path d="M 88.46149 298.03963 C 88.46149 301.31787 92.03775 308.02335 93.82588 308.02335 C 94.71994 308.02335 96.65708 309.36445 98.14719 311.00357 C 101.57444 314.72884 104.10762 312.7917 102.76652 307.4273 C 102.17048 304.89413 100.82938 303.55303 98.89224 303.55303 C 97.25313 303.55303 94.86895 301.9139 93.52786 299.82776 C 90.84566 295.80447 88.46149 294.9104 88.46149 298.03963 Z" fill="black"/>
        </g>
        <g id="Graphic_9">
          <path d="M 242.09158 289.099 C 241.19751 290.29107 240.8995 291.48316 241.34653 292.0792 C 242.83663 293.4203 246.4129 291.48316 246.4129 289.248 C 246.4129 286.5658 244.32674 286.5658 242.09158 289.099 Z" fill="black"/>
        </g>
        <g id="Graphic_8">
          <path d="M 128.24736 316.06993 C 127.05528 319.19916 129.73747 326.35167 131.67461 325.1596 C 133.76076 323.8185 133.46274 319.49718 131.22758 316.36795 C 129.29044 313.83477 129.14143 313.83477 128.24736 316.06993 Z" fill="black"/>
        </g>
        <g id="Graphic_7">
          <path d="M 195.1532 316.815 C 193.9611 318.6031 198.72945 330.07694 201.11362 330.971 C 204.24285 332.1631 203.6468 326.05365 200.21956 320.24223 C 197.09033 315.17587 196.34528 314.72884 195.1532 316.815 Z" fill="black"/>
        </g>
        <g id="Graphic_6">
          <path d="M 137.63504 320.24223 C 137.63504 325.1596 140.01921 328.58684 142.10536 326.5007 C 143.14844 325.4576 143.29745 323.6695 142.25437 320.9873 C 140.31723 316.06993 137.63504 315.7719 137.63504 320.24223 Z" fill="black"/>
        </g>
        <g id="Graphic_5">
          <path d="M 206.17999 318.00707 C 206.17999 320.09322 210.6503 325.90464 212.28943 325.90464 C 213.1835 325.90464 213.63052 324.1165 213.3325 321.73234 C 213.03448 318.90114 211.9914 317.56004 209.60723 317.262 C 207.6701 316.964 206.17999 317.262 206.17999 318.00707 Z" fill="black"/>
        </g>
        <g id="Graphic_4">
          <path d="M 147.46975 324.1165 C 147.02272 325.01058 147.32074 326.20266 148.2148 326.6497 C 150.44996 328.1398 151.94007 326.20266 150.00293 324.26552 C 148.95986 323.22245 148.0658 323.22245 147.46975 324.1165 Z" fill="black"/>
        </g>
      </g>
    </g>
  </g>
</svg>
