<?xml version="1.0" encoding="UTF-8" standalone="no"?>
<!DOCTYPE svg PUBLIC "-//W3C//DTD SVG 1.1//EN" "http://www.w3.org/Graphics/SVG/1.1/DTD/svg11.dtd">
<svg xmlns="http://www.w3.org/2000/svg" xmlns:dc="http://purl.org/dc/elements/1.1/" version="1.1" xmlns:xl="http://www.w3.org/1999/xlink" viewBox="94.5 63 36 351" width="36" height="351">
  <defs>
    <clipPath id="artboard_clip_path">
      <path d="M 94.5 63 L 130.5 63 L 130.5 414 L 94.5 414 Z"/>
    </clipPath>
  </defs>
  <g id="Spear_(8)" fill-opacity="1" stroke="none" stroke-dasharray="none" stroke-opacity="1" fill="none">
    <title>Spear (8)</title>
    <g id="Spear_(8)_Art" clip-path="url(#artboard_clip_path)">
      <title>Art</title>
      <g id="Group_772">
        <g id="Graphic_771">
          <path d="M 112.5 156 L 112.5 156 C 114.77817 156 116.625 157.84683 116.625 160.125 L 116.625 407.625 C 116.625 409.90317 114.77817 411.75 112.5 411.75 L 112.5 411.75 C 110.22183 411.75 108.375 409.90317 108.375 407.625 L 108.375 160.125 C 108.375 157.84683 110.22183 156 112.5 156 Z" fill="#FFFFFF"/>
          <path d="M 112.5 156 L 112.5 156 C 114.77817 156 116.625 157.84683 116.625 160.125 L 116.625 407.625 C 116.625 409.90317 114.77817 411.75 112.5 411.75 L 112.5 411.75 C 110.22183 411.75 108.375 409.90317 108.375 407.625 L 108.375 160.125 C 108.375 157.84683 110.22183 156 112.5 156 Z" stroke="black" stroke-linecap="round" stroke-linejoin="round" stroke-width="1.5"/>
        </g>
        <g id="Graphic_770">
          <path d="M 112.5 65.25 L 126.9375 129.1875 L 112.5 164.25 L 98.0625 129.1875 Z" fill="#FFFFFF"/>
          <path d="M 112.5 65.25 L 126.9375 129.1875 L 112.5 164.25 L 98.0625 129.1875 Z" stroke="black" stroke-linecap="round" stroke-linejoin="round" stroke-width="1.5"/>
        </g>
        <g id="Graphic_769">
          <path d="M 112.5 110.625 L 112.5 110.625 C 113.12132 110.625 113.625 111.12868 113.625 111.75 L 113.625 159 C 113.625 159.62132 113.12132 160.125 112.5 160.125 L 112.5 160.125 C 111.87868 160.125 111.375 159.62132 111.375 159 L 111.375 111.75 C 111.375 111.12868 111.87868 110.625 112.5 110.625 Z" stroke="black" stroke-linecap="round" stroke-linejoin="round" stroke-width=".75"/>
        </g>
        <g id="Graphic_768">
          <rect x="108.375" y="156" width="8.25" height="37.125" fill="#FFFFFF"/>
          <rect x="108.375" y="156" width="8.25" height="37.125" stroke="black" stroke-linecap="round" stroke-linejoin="round" stroke-width="1"/>
        </g>
        <g id="Graphic_767">
          <path d="M 108.375 184.875 L 116.625 184.875 C 118.90317 184.875 120.75 186.72183 120.75 189 L 120.75 189 C 120.75 191.27817 118.90317 193.125 116.625 193.125 L 108.375 193.125 C 106.09683 193.125 104.25 191.27817 104.25 189 L 104.25 189 C 104.25 186.72183 106.09683 184.875 108.375 184.875 Z" fill="#FFFFFF"/>
          <path d="M 108.375 184.875 L 116.625 184.875 C 118.90317 184.875 120.75 186.72183 120.75 189 L 120.75 189 C 120.75 191.27817 118.90317 193.125 116.625 193.125 L 108.375 193.125 C 106.09683 193.125 104.25 191.27817 104.25 189 L 104.25 189 C 104.25 186.72183 106.09683 184.875 108.375 184.875 Z" stroke="black" stroke-linecap="round" stroke-linejoin="round" stroke-width="1.5"/>
        </g>
        <g id="Graphic_766">
          <path d="M 108.375 156 L 116.625 156 C 118.90317 156 120.75 157.84683 120.75 160.125 L 120.75 160.125 C 120.75 162.40317 118.90317 164.25 116.625 164.25 L 108.375 164.25 C 106.09683 164.25 104.25 162.40317 104.25 160.125 L 104.25 160.125 C 104.25 157.84683 106.09683 156 108.375 156 Z" fill="#FFFFFF"/>
          <path d="M 108.375 156 L 116.625 156 C 118.90317 156 120.75 157.84683 120.75 160.125 L 120.75 160.125 C 120.75 162.40317 118.90317 164.25 116.625 164.25 L 108.375 164.25 C 106.09683 164.25 104.25 162.40317 104.25 160.125 L 104.25 160.125 C 104.25 157.84683 106.09683 156 108.375 156 Z" stroke="black" stroke-linecap="round" stroke-linejoin="round" stroke-width="1.5"/>
        </g>
      </g>
    </g>
  </g>
</svg>
