<?xml version="1.0" encoding="UTF-8" standalone="no"?>
<!DOCTYPE svg PUBLIC "-//W3C//DTD SVG 1.1//EN" "http://www.w3.org/Graphics/SVG/1.1/DTD/svg11.dtd">
<svg xmlns="http://www.w3.org/2000/svg" xmlns:dc="http://purl.org/dc/elements/1.1/" version="1.1" xmlns:xl="http://www.w3.org/1999/xlink" viewBox="58.5 81 175.5 315" width="175.5" height="315">
  <defs>
    <clipPath id="artboard_clip_path">
      <path d="M 58.5 81 L 234 81 L 234 347.53846 L 209.7 396 L 58.5 396 Z"/>
    </clipPath>
  </defs>
  <g id="Spider_(4)" fill-opacity="1" stroke="none" stroke-dasharray="none" stroke-opacity="1" fill="none">
    <title>Spider (4)</title>
    <g id="Spider_(4)_Art" clip-path="url(#artboard_clip_path)">
      <title>Art</title>
      <g id="Group_70">
        <g id="Graphic_106">
          <path d="M 82.99639 357.2462 C 82.99639 357.2462 85.3648 393.0392 97.04988 390.98534 C 97.04988 390.98534 89.25564 392.7329 85.5789 356.54174 Z" fill="#FFFFFF"/>
          <path d="M 82.99639 357.2462 C 82.99639 357.2462 85.3648 393.0392 97.04988 390.98534 C 97.04988 390.98534 89.25564 392.7329 85.5789 356.54174 Z" stroke="black" stroke-linecap="butt" stroke-linejoin="round" stroke-width="1"/>
        </g>
        <g id="Graphic_105">
          <path d="M 228.24708 136.2648 C 228.24708 136.2648 234.68737 106.81012 222.89024 105.5872 C 222.89024 105.5872 230.8513 106.09836 225.5787 136.1966 Z" fill="#FFFFFF"/>
          <path d="M 228.24708 136.2648 C 228.24708 136.2648 234.68737 106.81012 222.89024 105.5872 C 222.89024 105.5872 230.8513 106.09836 225.5787 136.1966 Z" stroke="black" stroke-linecap="butt" stroke-linejoin="round" stroke-width="1"/>
        </g>
        <g id="Graphic_104">
          <path d="M 76.05834 117.09827 C 76.05834 117.09827 73.71813 85.00597 86.42177 85.50578 C 86.42177 85.50578 77.89687 84.83668 78.89997 117.43147 Z" fill="#FFFFFF"/>
          <path d="M 76.05834 117.09827 C 76.05834 117.09827 73.71813 85.00597 86.42177 85.50578 C 86.42177 85.50578 77.89687 84.83668 78.89997 117.43147 Z" stroke="black" stroke-linecap="butt" stroke-linejoin="round" stroke-width="1"/>
        </g>
        <g id="Graphic_103">
          <path d="M 64.25292 135.83526 C 64.25292 135.83526 57.812626 106.38059 69.60976 105.15767 C 69.60976 105.15767 61.64869 105.66882 66.9213 135.76706 Z" fill="#FFFFFF"/>
          <path d="M 64.25292 135.83526 C 64.25292 135.83526 57.812626 106.38059 69.60976 105.15767 C 69.60976 105.15767 61.64869 105.66882 66.9213 135.76706 Z" stroke="black" stroke-linecap="butt" stroke-linejoin="round" stroke-width="1"/>
        </g>
        <g id="Graphic_102">
          <path d="M 77.62783 290.4502 C 77.62783 290.4502 70.77994 310.50543 78.92068 312.30082 C 78.92068 312.30082 73.40199 311.3086 79.4858 290.71076 Z" fill="#FFFFFF"/>
          <path d="M 77.62783 290.4502 C 77.62783 290.4502 70.77994 310.50543 78.92068 312.30082 C 78.92068 312.30082 73.40199 311.3086 79.4858 290.71076 Z" stroke="black" stroke-linecap="butt" stroke-linejoin="round" stroke-width="1"/>
        </g>
        <g id="Graphic_101">
          <path d="M 92.60618 156.98322 C 92.60618 156.98322 76.7269 121.04565 74.38668 119.04106 C 74.38668 119.04106 77.72973 112.01961 81.23992 117.20307 C 81.23992 117.20307 84.24869 131.07668 95.44781 154.81203 Z" fill="#FFFFFF"/>
          <path d="M 92.60618 156.98322 C 92.60618 156.98322 76.7269 121.04565 74.38668 119.04106 C 74.38668 119.04106 77.72973 112.01961 81.23992 117.20307 C 81.23992 117.20307 84.24869 131.07668 95.44781 154.81203 Z" stroke="black" stroke-linecap="butt" stroke-linejoin="round" stroke-width="1"/>
        </g>
        <g id="Graphic_100">
          <path d="M 84.85158 170.6314 C 84.85158 170.6314 65.396624 139.40767 62.96838 137.8591 C 62.96838 137.8591 65.11906 130.90295 69.05154 135.24457 C 69.05154 135.24457 73.6798 147.7128 87.18602 168.2404 Z" fill="#FFFFFF"/>
          <path d="M 84.85158 170.6314 C 84.85158 170.6314 65.396624 139.40767 62.96838 137.8591 C 62.96838 137.8591 65.11906 130.90295 69.05154 135.24457 C 69.05154 135.24457 73.6798 147.7128 87.18602 168.2404 Z" stroke="black" stroke-linecap="butt" stroke-linejoin="round" stroke-width="1"/>
        </g>
        <g id="Graphic_99">
          <path d="M 94.7892 267.79466 C 94.7892 267.79466 78.711585 288.04674 76.89229 288.93438 C 76.89229 288.93438 77.839095 293.9637 80.93173 291.2456 C 80.93173 291.2456 85.15873 282.90797 96.22862 269.65066 Z" fill="#FFFFFF"/>
          <path d="M 94.7892 267.79466 C 94.7892 267.79466 78.711585 288.04674 76.89229 288.93438 C 76.89229 288.93438 77.839095 293.9637 80.93173 291.2456 C 80.93173 291.2456 85.15873 282.90797 96.22862 269.65066 Z" stroke="black" stroke-linecap="butt" stroke-linejoin="round" stroke-width="1"/>
        </g>
        <g id="Graphic_98">
          <path d="M 92.67448 311.15067 C 92.67448 311.15067 83.05737 352.79864 81.17499 355.2936 C 81.17499 355.2936 85.26057 362.6693 87.77651 356.5181 C 87.77651 356.5181 88.6007 340.80873 95.61081 313.21784 Z" fill="#FFFFFF"/>
          <path d="M 92.67448 311.15067 C 92.67448 311.15067 83.05737 352.79864 81.17499 355.2936 C 81.17499 355.2936 85.26057 362.6693 87.77651 356.5181 C 87.77651 356.5181 88.6007 340.80873 95.61081 313.21784 Z" stroke="black" stroke-linecap="butt" stroke-linejoin="round" stroke-width="1"/>
        </g>
        <g id="Graphic_97">
          <path d="M 100.12797 169.35205 C 100.12797 169.35205 89.93168 159.9928 91.60334 156.31413 C 93.27473 152.63815 96.11636 153.14064 96.78492 154.97863 C 97.45348 156.81662 99.79369 164.17127 102.46818 167.84994 Z" fill="#FFFFFF"/>
          <path d="M 100.12797 169.35205 C 100.12797 169.35205 89.93168 159.9928 91.60334 156.31413 C 93.27473 152.63815 96.11636 153.14064 96.78492 154.97863 C 97.45348 156.81662 99.79369 164.17127 102.46818 167.84994 Z" stroke="black" stroke-linecap="butt" stroke-linejoin="round" stroke-width="1"/>
        </g>
        <g id="Graphic_96">
          <path d="M 93.4465 181.10483 C 93.4465 181.10483 82.78328 173.77782 83.83635 170.14396 C 84.88953 166.51263 87.58049 166.60144 88.44291 168.21741 C 89.30534 169.83338 92.44699 176.34408 95.40714 179.40097 Z" fill="#FFFFFF"/>
          <path d="M 93.4465 181.10483 C 93.4465 181.10483 82.78328 173.77782 83.83635 170.14396 C 84.88953 166.51263 87.58049 166.60144 88.44291 168.21741 C 89.30534 169.83338 92.44699 176.34408 95.40714 179.40097 Z" stroke="black" stroke-linecap="butt" stroke-linejoin="round" stroke-width="1"/>
        </g>
        <g id="Graphic_95">
          <path d="M 101.62707 261.1666 C 101.62707 261.1666 93.59592 265.43237 94.04134 268.05404 C 94.48704 270.67396 96.3733 270.82667 97.10452 269.767 C 97.83573 268.70735 100.54919 264.4114 102.86029 262.5129 Z" fill="#FFFFFF"/>
          <path d="M 101.62707 261.1666 C 101.62707 261.1666 93.59592 265.43237 94.04134 268.05404 C 94.48704 270.67396 96.3733 270.82667 97.10452 269.767 C 97.83573 268.70735 100.54919 264.4114 102.86029 262.5129 Z" stroke="black" stroke-linecap="butt" stroke-linejoin="round" stroke-width="1"/>
        </g>
        <g id="Graphic_94">
          <path d="M 99.20026 296.5596 C 99.20026 296.5596 90.17074 307.4214 91.91443 311.4508 C 93.65773 315.4772 96.28056 314.79714 96.81077 312.7204 C 97.34099 310.64367 99.15042 302.34785 101.45705 298.1349 Z" fill="#FFFFFF"/>
          <path d="M 99.20026 296.5596 C 99.20026 296.5596 90.17074 307.4214 91.91443 311.4508 C 93.65773 315.4772 96.28056 314.79714 96.81077 312.7204 C 97.34099 310.64367 99.15042 302.34785 101.45705 298.1349 Z" stroke="black" stroke-linecap="butt" stroke-linejoin="round" stroke-width="1"/>
        </g>
        <g id="Graphic_93">
          <path d="M 135.8984 222.9655 C 135.8984 222.9655 99.29227 175.9973 98.79086 169.98083 C 98.28944 163.96168 102.9696 163.79508 106.14551 168.14015 C 109.32142 172.48792 134.39388 215.44425 140.41142 218.28722 Z" fill="#FFFFFF"/>
          <path d="M 135.8984 222.9655 C 135.8984 222.9655 99.29227 175.9973 98.79086 169.98083 C 98.28944 163.96168 102.9696 163.79508 106.14551 168.14015 C 109.32142 172.48792 134.39388 215.44425 140.41142 218.28722 Z" stroke="black" stroke-linecap="butt" stroke-linejoin="round" stroke-width="1"/>
        </g>
        <g id="Graphic_92">
          <path d="M 133.62585 226.08214 C 133.62585 226.08214 93.56093 187.3792 92.29566 181.86553 C 91.03003 176.34938 95.32945 175.57354 98.84147 179.18194 C 102.35384 182.79284 131.23367 219.30597 137.16934 221.14395 Z" fill="#FFFFFF"/>
          <path d="M 133.62585 226.08214 C 133.62585 226.08214 93.56093 187.3792 92.29566 181.86553 C 91.03003 176.34938 95.32945 175.57354 98.84147 179.18194 C 102.35384 182.79284 131.23367 219.30597 137.16934 221.14395 Z" stroke="black" stroke-linecap="butt" stroke-linejoin="round" stroke-width="1"/>
        </g>
        <g id="Graphic_91">
          <path d="M 133.27472 232.9637 C 133.27472 232.9637 102.20766 256.79413 100.8841 260.54353 C 99.5601 264.29464 102.50062 265.17952 105.24111 262.9399 C 107.98206 260.69858 131.06345 237.50483 135.3552 236.69497 Z" fill="#FFFFFF"/>
          <path d="M 133.27472 232.9637 C 133.27472 232.9637 102.20766 256.79413 100.8841 260.54353 C 99.5601 264.29464 102.50062 265.17952 105.24111 262.9399 C 107.98206 260.69858 131.06345 237.50483 135.3552 236.69497 Z" stroke="black" stroke-linecap="butt" stroke-linejoin="round" stroke-width="1"/>
        </g>
        <g id="Graphic_90">
          <path d="M 134.13523 236.4661 C 134.13523 236.4661 98.71604 288.018 98.08446 294.71705 C 97.45281 301.4191 101.81305 301.71155 104.89334 296.93763 C 107.97371 292.16072 132.52714 244.82066 138.21664 241.78686 Z" fill="#FFFFFF"/>
          <path d="M 134.13523 236.4661 C 134.13523 236.4661 98.71604 288.018 98.08446 294.71705 C 97.45281 301.4191 101.81305 301.71155 104.89334 296.93763 C 107.97371 292.16072 132.52714 244.82066 138.21664 241.78686 Z" stroke="black" stroke-linecap="butt" stroke-linejoin="round" stroke-width="1"/>
        </g>
        <g id="Graphic_89">
          <path d="M 216.44166 117.52781 C 216.44166 117.52781 218.78187 85.43551 206.07823 85.93531 C 206.07823 85.93531 214.60313 85.26622 213.60003 117.86101 Z" fill="#FFFFFF"/>
          <path d="M 216.44166 117.52781 C 216.44166 117.52781 218.78187 85.43551 206.07823 85.93531 C 206.07823 85.93531 214.60313 85.26622 213.60003 117.86101 Z" stroke="black" stroke-linecap="butt" stroke-linejoin="round" stroke-width="1"/>
        </g>
        <g id="Graphic_88">
          <path d="M 214.87217 290.87974 C 214.87217 290.87974 221.72006 310.93497 213.57932 312.73036 C 213.57932 312.73036 219.098 311.73813 213.0142 291.1403 Z" fill="#FFFFFF"/>
          <path d="M 214.87217 290.87974 C 214.87217 290.87974 221.72006 310.93497 213.57932 312.73036 C 213.57932 312.73036 219.098 311.73813 213.0142 291.1403 Z" stroke="black" stroke-linecap="butt" stroke-linejoin="round" stroke-width="1"/>
        </g>
        <g id="Graphic_87">
          <path d="M 209.50361 357.67572 C 209.50361 357.67572 207.1352 393.46873 195.45012 391.41487 C 195.45012 391.41487 203.24436 393.16243 206.9211 356.97128 Z" fill="#FFFFFF"/>
          <path d="M 209.50361 357.67572 C 209.50361 357.67572 207.1352 393.46873 195.45012 391.41487 C 195.45012 391.41487 203.24436 393.16243 206.9211 356.97128 Z" stroke="black" stroke-linecap="butt" stroke-linejoin="round" stroke-width="1"/>
        </g>
        <g id="Graphic_86">
          <path d="M 199.89382 157.41276 C 199.89382 157.41276 215.7731 121.47519 218.11332 119.4706 C 218.11332 119.4706 214.77027 112.44915 211.26008 117.6326 C 211.26008 117.6326 208.2513 131.50622 197.0522 155.24157 Z" fill="#FFFFFF"/>
          <path d="M 199.89382 157.41276 C 199.89382 157.41276 215.7731 121.47519 218.11332 119.4706 C 218.11332 119.4706 214.77027 112.44915 211.26008 117.6326 C 211.26008 117.6326 208.2513 131.50622 197.0522 155.24157 Z" stroke="black" stroke-linecap="butt" stroke-linejoin="round" stroke-width="1"/>
        </g>
        <g id="Graphic_85">
          <path d="M 207.64842 171.06094 C 207.64842 171.06094 227.10338 139.8372 229.53162 138.28864 C 229.53162 138.28864 227.38094 131.33249 223.44846 135.67411 C 223.44846 135.67411 218.8202 148.14234 205.31398 168.66994 Z" fill="#FFFFFF"/>
          <path d="M 207.64842 171.06094 C 207.64842 171.06094 227.10338 139.8372 229.53162 138.28864 C 229.53162 138.28864 227.38094 131.33249 223.44846 135.67411 C 223.44846 135.67411 218.8202 148.14234 205.31398 168.66994 Z" stroke="black" stroke-linecap="butt" stroke-linejoin="round" stroke-width="1"/>
        </g>
        <g id="Graphic_84">
          <path d="M 197.7108 268.2242 C 197.7108 268.2242 213.78841 288.47627 215.6077 289.36392 C 215.6077 289.36392 214.6609 294.39324 211.56827 291.67515 C 211.56827 291.67515 207.34127 283.3375 196.27138 270.0802 Z" fill="#FFFFFF"/>
          <path d="M 197.7108 268.2242 C 197.7108 268.2242 213.78841 288.47627 215.6077 289.36392 C 215.6077 289.36392 214.6609 294.39324 211.56827 291.67515 C 211.56827 291.67515 207.34127 283.3375 196.27138 270.0802 Z" stroke="black" stroke-linecap="butt" stroke-linejoin="round" stroke-width="1"/>
        </g>
        <g id="Graphic_83">
          <path d="M 199.82552 311.5802 C 199.82552 311.5802 209.44263 353.22818 211.325 355.7231 C 211.325 355.7231 207.23943 363.09883 204.7235 356.94763 C 204.7235 356.94763 203.8993 341.23827 196.8892 313.64737 Z" fill="#FFFFFF"/>
          <path d="M 199.82552 311.5802 C 199.82552 311.5802 209.44263 353.22818 211.325 355.7231 C 211.325 355.7231 207.23943 363.09883 204.7235 356.94763 C 204.7235 356.94763 203.8993 341.23827 196.8892 313.64737 Z" stroke="black" stroke-linecap="butt" stroke-linejoin="round" stroke-width="1"/>
        </g>
        <g id="Graphic_82">
          <path d="M 192.37203 169.78158 C 192.37203 169.78158 202.56832 160.42234 200.89666 156.74367 C 199.22527 153.06768 196.38364 153.57018 195.71508 155.40817 C 195.04652 157.24616 192.7063 164.60081 190.03182 168.27948 Z" fill="#FFFFFF"/>
          <path d="M 192.37203 169.78158 C 192.37203 169.78158 202.56832 160.42234 200.89666 156.74367 C 199.22527 153.06768 196.38364 153.57018 195.71508 155.40817 C 195.04652 157.24616 192.7063 164.60081 190.03182 168.27948 Z" stroke="black" stroke-linecap="butt" stroke-linejoin="round" stroke-width="1"/>
        </g>
        <g id="Graphic_81">
          <path d="M 199.0535 181.53437 C 199.0535 181.53437 209.71672 174.20736 208.66365 170.5735 C 207.61047 166.94217 204.91951 167.03098 204.05709 168.64695 C 203.19466 170.26292 200.053 176.77362 197.09286 179.8305 Z" fill="#FFFFFF"/>
          <path d="M 199.0535 181.53437 C 199.0535 181.53437 209.71672 174.20736 208.66365 170.5735 C 207.61047 166.94217 204.91951 167.03098 204.05709 168.64695 C 203.19466 170.26292 200.053 176.77362 197.09286 179.8305 Z" stroke="black" stroke-linecap="butt" stroke-linejoin="round" stroke-width="1"/>
        </g>
        <g id="Graphic_80">
          <path d="M 190.87293 261.59612 C 190.87293 261.59612 198.90408 265.8619 198.45866 268.48358 C 198.01296 271.1035 196.1267 271.2562 195.39548 270.19655 C 194.66427 269.1369 191.95081 264.84095 189.6397 262.94244 Z" fill="#FFFFFF"/>
          <path d="M 190.87293 261.59612 C 190.87293 261.59612 198.90408 265.8619 198.45866 268.48358 C 198.01296 271.1035 196.1267 271.2562 195.39548 270.19655 C 194.66427 269.1369 191.95081 264.84095 189.6397 262.94244 Z" stroke="black" stroke-linecap="butt" stroke-linejoin="round" stroke-width="1"/>
        </g>
        <g id="Graphic_79">
          <path d="M 193.29974 296.98914 C 193.29974 296.98914 202.32926 307.85095 200.58557 311.88033 C 198.84227 315.90673 196.21944 315.22667 195.68923 313.14994 C 195.15901 311.0732 193.34958 302.7774 191.04295 298.56444 Z" fill="#FFFFFF"/>
          <path d="M 193.29974 296.98914 C 193.29974 296.98914 202.32926 307.85095 200.58557 311.88033 C 198.84227 315.90673 196.21944 315.22667 195.68923 313.14994 C 195.15901 311.0732 193.34958 302.7774 191.04295 298.56444 Z" stroke="black" stroke-linecap="butt" stroke-linejoin="round" stroke-width="1"/>
        </g>
        <g id="Graphic_78">
          <path d="M 156.6016 223.39504 C 156.6016 223.39504 193.20773 176.42684 193.70914 170.41037 C 194.21056 164.39122 189.5304 164.22461 186.3545 168.5697 C 183.17858 172.91745 158.10612 215.87379 152.08858 218.71676 Z" fill="#FFFFFF"/>
          <path d="M 156.6016 223.39504 C 156.6016 223.39504 193.20773 176.42684 193.70914 170.41037 C 194.21056 164.39122 189.5304 164.22461 186.3545 168.5697 C 183.17858 172.91745 158.10612 215.87379 152.08858 218.71676 Z" stroke="black" stroke-linecap="butt" stroke-linejoin="round" stroke-width="1"/>
        </g>
        <g id="Graphic_77">
          <path d="M 158.87415 226.51168 C 158.87415 226.51168 198.93907 187.80873 200.20434 182.29507 C 201.46997 176.77892 197.17055 176.00308 193.65853 179.61148 C 190.14616 183.22238 161.26633 219.7355 155.33066 221.57348 Z" fill="#FFFFFF"/>
          <path d="M 158.87415 226.51168 C 158.87415 226.51168 198.93907 187.80873 200.20434 182.29507 C 201.46997 176.77892 197.17055 176.00308 193.65853 179.61148 C 190.14616 183.22238 161.26633 219.7355 155.33066 221.57348 Z" stroke="black" stroke-linecap="butt" stroke-linejoin="round" stroke-width="1"/>
        </g>
        <g id="Graphic_76">
          <path d="M 159.22528 233.39324 C 159.22528 233.39324 190.29234 257.22366 191.6159 260.97306 C 192.9399 264.72417 189.99938 265.60906 187.25889 263.36944 C 184.51794 261.12812 161.43655 237.93437 157.1448 237.1245 Z" fill="#FFFFFF"/>
          <path d="M 159.22528 233.39324 C 159.22528 233.39324 190.29234 257.22366 191.6159 260.97306 C 192.9399 264.72417 189.99938 265.60906 187.25889 263.36944 C 184.51794 261.12812 161.43655 237.93437 157.1448 237.1245 Z" stroke="black" stroke-linecap="butt" stroke-linejoin="round" stroke-width="1"/>
        </g>
        <g id="Graphic_75">
          <path d="M 158.36477 236.89564 C 158.36477 236.89564 193.78396 288.44755 194.41554 295.1466 C 195.04719 301.84863 190.68695 302.1411 187.60666 297.36717 C 184.5263 292.59025 159.97286 245.2502 154.28336 242.2164 Z" fill="#FFFFFF"/>
          <path d="M 158.36477 236.89564 C 158.36477 236.89564 193.78396 288.44755 194.41554 295.1466 C 195.04719 301.84863 190.68695 302.1411 187.60666 297.36717 C 184.5263 292.59025 159.97286 245.2502 154.28336 242.2164 Z" stroke="black" stroke-linecap="butt" stroke-linejoin="round" stroke-width="1"/>
        </g>
        <g id="Graphic_74">
          <path d="M 140.41142 211.89187 C 140.41142 211.89187 138.57262 203.36832 141.07998 198.02095 C 143.58733 192.6709 146.26155 198.52076 144.59016 200.86124 C 144.59016 200.86124 142.58423 205.03971 143.08565 208.0493 Z" fill="#FFFFFF"/>
          <path d="M 140.41142 211.89187 C 140.41142 211.89187 138.57262 203.36832 141.07998 198.02095 C 143.58733 192.6709 146.26155 198.52076 144.59016 200.86124 C 144.59016 200.86124 142.58423 205.03971 143.08565 208.0493 Z" stroke="black" stroke-linecap="butt" stroke-linejoin="round" stroke-width="1"/>
        </g>
        <g id="Graphic_73">
          <path d="M 151.59684 211.89187 C 151.59684 211.89187 153.43563 203.36832 150.92828 198.02095 C 148.42093 192.6709 145.7467 198.52076 147.4181 200.86124 C 147.4181 200.86124 149.42403 205.03971 148.92261 208.0493 Z" fill="#FFFFFF"/>
          <path d="M 151.59684 211.89187 C 151.59684 211.89187 153.43563 203.36832 150.92828 198.02095 C 148.42093 192.6709 145.7467 198.52076 147.4181 200.86124 C 147.4181 200.86124 149.42403 205.03971 148.92261 208.0493 Z" stroke="black" stroke-linecap="butt" stroke-linejoin="round" stroke-width="1"/>
        </g>
        <g id="Graphic_72">
          <path d="M 145.94636 245.82082 L 145.94636 245.99495 L 155.02023 245.3264 C 155.02023 245.3264 163.90305 234.6276 157.04981 221.0899 C 157.04981 221.0899 154.877 219.08261 153.0382 217.41122 C 153.0382 217.41122 154.877 209.72337 150.02944 206.88308 C 147.28777 205.2735 145.36352 204.69039 141.91567 206.7111 C 137.06837 209.55408 138.9069 217.24193 138.9069 217.24193 C 137.06837 218.91332 134.8953 220.9206 134.8953 220.9206 C 128.04206 234.45833 136.92488 245.1563 136.92488 245.1563 Z" fill="#FFFFFF"/>
          <path d="M 145.94636 245.82082 L 145.94636 245.99495 L 155.02023 245.3264 C 155.02023 245.3264 163.90305 234.6276 157.04981 221.0899 C 157.04981 221.0899 154.877 219.08261 153.0382 217.41122 C 153.0382 217.41122 154.877 209.72337 150.02944 206.88308 C 147.28777 205.2735 145.36352 204.69039 141.91567 206.7111 C 137.06837 209.55408 138.9069 217.24193 138.9069 217.24193 C 137.06837 218.91332 134.8953 220.9206 134.8953 220.9206 C 128.04206 234.45833 136.92488 245.1563 136.92488 245.1563 Z" stroke="black" stroke-linecap="butt" stroke-linejoin="round" stroke-width="1"/>
        </g>
        <g id="Graphic_71">
          <path d="M 145.94931 239.06513 C 145.59972 239.23253 143.3283 240.41997 136.78246 245.7805 C 127.7618 253.16768 124.5746 281.0748 131.91985 296.9898 C 138.65807 311.58894 144.88091 312.10943 145.86413 312.09573 C 145.94501 312.09465 153.2873 311.49032 160.02526 296.89146 C 167.37078 280.97617 164.18331 253.06906 155.16291 245.6819 C 147.98454 239.80355 145.94931 239.06513 145.94931 239.06513 Z" fill="#FFFFFF"/>
          <path d="M 145.94931 239.06513 C 145.59972 239.23253 143.3283 240.41997 136.78246 245.7805 C 127.7618 253.16768 124.5746 281.0748 131.91985 296.9898 C 138.65807 311.58894 144.88091 312.10943 145.86413 312.09573 C 145.94501 312.09465 153.2873 311.49032 160.02526 296.89146 C 167.37078 280.97617 164.18331 253.06906 155.16291 245.6819 C 147.98454 239.80355 145.94931 239.06513 145.94931 239.06513 Z" stroke="black" stroke-linecap="butt" stroke-linejoin="round" stroke-width="1"/>
        </g>
      </g>
    </g>
  </g>
</svg>
