<?xml version="1.0" encoding="UTF-8" standalone="no"?>
<!DOCTYPE svg PUBLIC "-//W3C//DTD SVG 1.1//EN" "http://www.w3.org/Graphics/SVG/1.1/DTD/svg11.dtd">
<svg xmlns="http://www.w3.org/2000/svg" xmlns:dc="http://purl.org/dc/elements/1.1/" version="1.1" xmlns:xl="http://www.w3.org/1999/xlink" viewBox="81 63 63 351" width="63" height="351">
  <defs>
    <clipPath id="artboard_clip_path">
      <path d="M 81 63 L 144 63 L 144 414 L 81 414 Z"/>
    </clipPath>
  </defs>
  <g id="Sword_(10)" fill-opacity="1" stroke="none" stroke-dasharray="none" stroke-opacity="1" fill="none">
    <title>Sword (10)</title>
    <g id="Sword_(10)_Layer_2" clip-path="url(#artboard_clip_path)">
      <title>Layer 2</title>
      <g id="Group_37">
        <g id="Graphic_20">
          <path d="M 108.86463 410.8447 C 106.10878 409.3788 104.76018 405.333 105.99151 402.22535 C 106.28469 401.40446 105.75697 400.4663 103.88065 398.6486 C 102.41478 397.18274 101.18344 395.3064 101.00754 394.251 C 100.71436 392.9024 100.12801 392.14013 99.07258 391.7883 C 93.5609 389.67746 92.15365 382.8758 96.37537 378.77135 C 98.83804 376.3673 98.83804 375.89823 97.4308 360.7704 C 97.2549 359.01135 97.079 356.19687 97.02036 354.49646 C 97.02036 352.85468 96.78582 351.27153 96.55128 351.037 C 95.84766 350.392 95.96493 346.22892 96.66855 345.81848 C 97.079 345.58394 97.079 345.11486 96.66855 344.3526 C 95.96493 343.06263 95.9063 340.07225 96.55128 339.42726 C 96.78582 339.19272 97.02036 337.60958 97.079 335.9678 C 97.13763 334.2674 97.19626 332.33243 97.2549 331.6288 C 97.2549 330.86655 97.2549 329.51795 97.19626 328.52115 L 97.079 326.7621 L 90.68778 326.7621 L 84.3552 326.7621 L 84.3552 319.43273 L 84.3552 312.10335 L 87.52149 312.10335 L 90.68778 312.10335 L 91.03959 296.15463 C 91.2155 287.35938 91.68457 245.20082 91.97775 202.4559 C 92.5641 129.22079 92.97454 112.21664 94.32315 102.6005 C 96.02356 90.69759 99.13122 81.43326 103.64611 74.51433 C 106.51923 70.05807 111.26866 65.25 112.73454 65.25 C 113.14499 65.25 115.25585 67.067685 117.42534 69.35445 C 123.93383 76.27338 128.7419 88.05902 130.67685 101.95551 C 132.08409 112.09937 132.4359 125.99586 133.02225 192.19478 C 133.31543 230.89388 133.7845 273.69743 133.96041 287.35938 L 134.31222 312.10335 L 137.47851 312.10335 L 140.6448 312.10335 L 140.6448 319.43273 L 140.6448 326.7621 L 134.6054 326.7621 L 128.62463 326.7621 L 127.97964 329.40068 C 127.62783 331.04246 127.5692 332.39106 127.921 332.9774 C 128.21418 333.50513 128.33145 335.08827 128.09691 336.4955 C 127.921 337.90275 127.97964 339.19272 128.27282 339.31 C 128.85917 339.6618 128.97644 350.15747 128.44872 351.09563 C 128.27282 351.3888 128.03828 352.97195 127.97964 354.61373 C 127.921 356.19687 127.7451 359.12862 127.51056 361.06358 C 127.33466 362.99853 127.21739 365.9303 127.21739 367.6307 C 127.21739 369.27248 126.98285 370.797 126.68967 370.9729 C 126.3965 371.1488 126.27923 372.55604 126.45513 374.08055 C 126.68967 376.1914 127.21739 377.24684 128.68326 378.65408 C 132.84635 382.64126 131.55638 389.3843 126.16196 391.6124 C 125.10653 392.0815 124.227 392.84375 124.227 393.37146 C 124.227 394.83734 121.82297 398.7659 120.35709 399.7627 C 119.18439 400.52493 119.06712 400.994 119.3603 403.4567 C 119.59484 405.45027 119.41893 406.8575 118.71531 408.1475 C 117.0149 411.4897 112.3241 412.77965 108.86463 410.8447 Z" fill="black"/>
        </g>
        <g id="Graphic_19">
          <path d="M 115.07994 407.61977 C 116.60445 406.44707 116.95626 405.1571 116.25264 403.3394 C 115.95947 402.6358 115.07994 402.40125 112.5 402.40125 C 109.04053 402.40125 108.39555 402.87033 108.39555 405.09846 C 108.39555 406.3298 111.09276 408.8511 112.38273 408.8511 C 113.02772 408.8511 114.20042 408.3234 115.07994 407.61977 Z" fill="#FFFFFF"/>
        </g>
        <g id="Graphic_18">
          <path d="M 113.73134 398.88315 C 115.13858 398.1209 116.60445 395.3064 116.60445 393.31283 L 116.60445 391.84695 L 110.1546 391.84695 C 103.00113 391.84695 102.70795 392.02286 105.05335 395.36505 C 106.40196 397.4173 109.68552 399.4695 111.5032 399.4695 C 112.08955 399.4695 113.08635 399.17633 113.73134 398.88315 Z" fill="#FFFFFF"/>
        </g>
        <g id="Graphic_17">
          <path d="M 120.41573 394.7787 C 121.58843 392.49194 121.52979 391.84695 120.12255 391.84695 C 119.12576 391.84695 118.94985 392.2574 118.94985 394.19235 C 118.94985 397.00683 119.18439 397.1241 120.41573 394.7787 Z" fill="#FFFFFF"/>
        </g>
        <g id="Graphic_16">
          <path d="M 103.70475 387.80114 C 103.41157 387.15615 103.1184 385.573 103.1184 384.2244 C 103.1184 382.8758 103.41157 381.29265 103.70475 380.64767 C 104.2911 379.65087 104.1152 379.5336 102.29751 379.5336 C 99.89347 379.5336 97.48944 381.4099 96.96172 383.6967 C 96.37537 386.15936 99.07258 388.9152 102.00433 388.9152 C 104.1152 388.9152 104.2911 388.79793 103.70475 387.80114 Z" fill="#FFFFFF"/>
        </g>
        <g id="Graphic_15">
          <path d="M 117.24944 388.15295 C 119.7121 386.27663 119.94665 382.93443 117.71852 380.94084 C 116.66309 380.0027 116.60445 380.0027 116.60445 381.7031 C 116.60445 382.64126 116.194 383.93123 115.72493 384.5762 C 114.90404 385.63164 114.90404 385.63164 114.8454 384.16577 C 114.8454 381.879 112.73454 379.5336 110.74095 379.5336 C 106.57786 379.5336 104.40837 384.45894 107.22285 387.44933 C 108.45418 388.7393 109.09917 388.9152 112.44136 388.9152 C 114.55223 388.9152 116.72172 388.5634 117.24944 388.15295 Z" fill="#FFFFFF"/>
        </g>
        <g id="Graphic_14">
          <path d="M 125.69288 388.5634 C 126.7483 388.15295 128.33145 385.33847 128.33145 383.93123 C 128.33145 382.2308 125.10653 379.5336 123.0543 379.5336 C 121.23662 379.5336 121.23662 379.59224 121.64706 381.46856 C 122.23341 383.93123 122.0575 387.15615 121.23662 388.15295 C 120.7089 388.7393 121.00208 388.9152 122.64386 388.9152 C 123.75792 388.9152 125.16516 388.7393 125.69288 388.5634 Z" fill="#FFFFFF"/>
        </g>
        <g id="Graphic_13">
          <path d="M 123.34748 374.8428 L 123.34748 373.37693 L 112.61727 373.201 C 103.47021 373.08375 101.88706 373.201 101.59389 373.96328 C 101.35935 374.43236 101.35935 375.25325 101.59389 375.72233 C 101.88706 376.4846 103.47021 376.60185 112.61727 376.4846 L 123.34748 376.30868 L 123.34748 374.8428 Z" fill="#FFFFFF"/>
        </g>
        <g id="Graphic_12">
          <path d="M 123.93383 368.39295 L 123.93383 366.92708 L 112.61727 366.75117 C 102.9425 366.6339 101.30071 366.75117 101.00754 367.51343 C 100.773 367.9825 100.9489 368.8034 101.35935 369.27248 C 102.00433 370.03473 103.88065 370.152 113.02772 370.03473 L 123.93383 369.85883 L 123.93383 368.39295 Z" fill="#FFFFFF"/>
        </g>
        <g id="Graphic_11">
          <path d="M 124.28564 362.764 C 124.81335 362.119 124.87199 361.5913 124.4029 360.88767 C 123.87519 360.00815 122.40932 359.89088 112.5 359.89088 C 102.59068 359.89088 101.12481 360.00815 100.5971 360.88767 C 100.12801 361.5913 100.18665 362.119 100.71436 362.764 C 101.88706 364.17123 123.11294 364.17123 124.28564 362.764 Z" fill="#FFFFFF"/>
        </g>
        <g id="Graphic_10">
          <path d="M 124.46154 356.49005 C 125.04789 356.0796 125.45834 355.20008 125.28243 354.5551 C 125.10653 353.49966 124.4029 353.44103 113.14499 353.26512 C 101.06617 353.14785 99.6003 353.32376 99.6003 355.31735 C 99.6003 356.78322 102.18024 357.19367 112.85181 357.19367 C 120.7089 357.2523 123.69929 357.0764 124.46154 356.49005 Z" fill="#FFFFFF"/>
        </g>
        <g id="Graphic_9">
          <path d="M 125.69288 348.45705 L 125.69288 346.99118 L 112.61727 346.81527 C 101.41798 346.698 99.54166 346.81527 99.24849 347.57753 C 99.01395 348.0466 99.01395 348.8675 99.24849 349.33658 C 99.54166 350.09883 101.41798 350.2161 112.61727 350.09883 L 125.69288 349.92293 L 125.69288 348.45705 Z" fill="#FFFFFF"/>
        </g>
        <g id="Graphic_8">
          <path d="M 125.69288 342.0072 L 125.69288 340.54133 L 112.61727 340.36542 C 101.35935 340.24815 99.54166 340.36542 99.24849 341.12768 C 99.01395 341.59676 99.18985 342.41765 99.6003 342.88673 C 100.24528 343.649 102.29751 343.76625 113.02772 343.649 L 125.69288 343.47308 L 125.69288 342.0072 Z" fill="#FFFFFF"/>
        </g>
        <g id="Graphic_7">
          <path d="M 124.87199 336.37824 C 125.3997 335.73326 125.45834 335.20554 124.98926 334.50192 C 124.46154 333.6224 122.93703 333.50513 112.5 333.50513 C 102.06297 333.50513 100.53846 333.6224 100.01074 334.50192 C 99.54166 335.20554 99.6003 335.73326 100.12801 336.37824 C 101.30071 337.7855 123.69929 337.7855 124.87199 336.37824 Z" fill="#FFFFFF"/>
        </g>
        <g id="Graphic_6">
          <path d="M 124.10973 329.9284 C 125.16516 329.22477 125.28243 328.81433 124.81335 327.87617 C 124.227 326.82074 123.58202 326.7621 112.3241 326.87937 C 101.18344 327.05528 100.47982 327.1139 100.30392 328.16934 C 99.83484 330.51474 101.59389 330.86655 112.5 330.86655 C 120.8848 330.86655 123.0543 330.69065 124.10973 329.9284 Z" fill="#FFFFFF"/>
        </g>
        <g id="Graphic_5">
          <path d="M 137.71305 319.43273 L 137.71305 315.0351 L 112.5 315.0351 L 87.28695 315.0351 L 87.28695 319.43273 L 87.28695 323.83035 L 112.5 323.83035 L 137.71305 323.83035 L 137.71305 319.43273 Z" fill="#FFFFFF"/>
        </g>
        <g id="Graphic_4">
          <path d="M 110.97549 295.56828 C 111.1514 286.42122 111.5032 250.8884 111.67911 216.5283 C 111.91365 182.1682 112.20682 148.6876 112.44136 142.06185 C 112.6759 134.67384 112.96908 155.372 113.26226 195.4197 C 113.4968 231.36296 113.8486 272.34882 114.08315 286.47986 L 114.43496 312.10335 L 122.93703 312.10335 L 131.38047 312.10335 L 131.02866 285.60033 C 130.79412 271.00022 130.38368 228.31394 130.0905 190.7289 C 129.38688 113.62388 129.0937 106.93949 125.86878 93.3948 C 123.64065 84.0132 120.00528 76.62519 115.07994 71.172135 L 112.96908 68.7681 L 111.44457 69.999435 C 110.56504 70.64442 108.86463 72.579375 107.6333 74.221155 C 100.71436 83.42685 97.2549 96.61973 96.02356 118.25604 C 95.43721 129.45533 93.61953 310.8134 94.14724 311.6929 C 94.26451 311.92745 98.01715 312.10335 102.47341 312.10335 L 110.56504 312.10335 L 110.97549 295.56828 Z" fill="#FFFFFF"/>
        </g>
      </g>
    </g>
  </g>
</svg>
