<?xml version="1.0" encoding="UTF-8" standalone="no"?>
<!DOCTYPE svg PUBLIC "-//W3C//DTD SVG 1.1//EN" "http://www.w3.org/Graphics/SVG/1.1/DTD/svg11.dtd">
<svg xmlns="http://www.w3.org/2000/svg" xmlns:dc="http://purl.org/dc/elements/1.1/" version="1.1" xmlns:xl="http://www.w3.org/1999/xlink" viewBox="67.5 63 90 351" width="90" height="351">
  <defs>
    <clipPath id="artboard_clip_path">
      <path d="M 67.5 63 L 157.5 63 L 157.5 414 L 67.5 414 Z"/>
    </clipPath>
  </defs>
  <g id="Sword_(14)" fill-opacity="1" stroke="none" stroke-dasharray="none" stroke-opacity="1" fill="none">
    <title>Sword (14)</title>
    <g id="Sword_(14)_Art" clip-path="url(#artboard_clip_path)">
      <title>Art</title>
      <g id="Group_823">
        <g id="Graphic_853">
          <path d="M 111.16678 65.77165 L 110.00477 68.15683 C 109.39319 69.502315 108.59813 70.54201 108.23118 70.54201 C 107.92538 70.54201 107.19148 71.52054 106.70222 72.68255 C 106.21295 73.84456 105.5402 74.8231 105.23441 74.8231 C 104.86746 74.8231 104.31704 75.49584 103.95009 76.2909 C 103.58314 77.08596 102.6046 78.06449 101.80954 78.43144 C 100.95332 78.79839 100.03595 79.83809 99.669 80.694305 C 99.11857 82.22327 98.14004 109.98919 98.44583 116.71661 C 98.50699 118.36789 98.6293 141.85272 98.75162 168.82358 C 98.87394 195.79444 99.17973 218.91232 99.42436 220.19665 C 99.669 221.48098 99.79131 234.87467 99.669 250.04196 C 99.60784 265.1481 99.60784 279.21452 99.669 281.23275 C 99.85247 284.47414 99.85247 290.22304 99.669 295.91077 C 99.60784 296.8893 99.60784 301.2927 99.669 305.6961 C 99.669 310.03836 99.669 314.9922 99.669 316.70463 C 99.73016 318.3559 100.15827 322.57584 100.70869 326.06187 C 101.99302 334.50173 102.17649 334.31825 93.06389 334.01246 C 88.84396 333.89014 85.23561 333.40088 84.13476 332.9116 C 83.15623 332.4835 81.93306 332.1777 81.50495 332.23887 C 79.11977 332.6058 74.961 329.976 72.51466 326.48998 C 71.964236 325.6949 71.47497 325.4503 71.04686 325.8784 C 69.88485 327.0404 69.273265 335.4191 69.94601 341.65726 C 70.435275 346.06067 70.435275 348.6905 69.88485 351.8707 C 69.02863 356.7634 69.39558 358.2312 71.230335 357.8031 C 73.37088 357.25266 78.99745 355.17327 83.64549 353.15505 C 87.68195 351.4426 95.14328 349.4244 98.2012 349.17975 C 99.24089 349.1186 99.42436 349.48554 99.30205 351.25913 C 98.87394 360.861 99.05741 370.82983 99.669 371.99184 C 100.76985 374.01007 99.91363 375.6002 97.10034 377.00683 C 95.75486 377.74073 94.10358 378.9639 93.43084 379.75896 C 92.81926 380.554 91.90188 381.22676 91.41261 381.22676 C 88.72164 381.22676 87.19268 388.8104 89.02743 393.2138 C 90.12828 395.8436 96.48876 402.0206 98.2012 402.0818 C 98.87394 402.14294 100.64753 402.2041 102.17649 402.26525 C 104.8063 402.3264 104.92862 402.38757 105.23441 404.46696 C 105.96831 408.6869 108.65928 410.82743 114.10238 411.6225 C 116.4264 411.9283 116.97683 411.7448 118.32231 410.3993 C 119.17853 409.5431 119.91243 408.2588 119.91243 407.58604 C 119.91243 405.262 120.58518 404.46696 122.6034 404.46696 C 123.6431 404.46696 125.47785 403.85537 126.63986 403.12147 C 127.80187 402.3264 129.88125 401.1644 131.22674 400.49166 C 133.12265 399.5743 134.10119 398.47343 135.44667 395.7213 C 137.03679 392.54106 137.1591 391.99064 136.48636 389.8501 C 136.11941 388.56577 135.93594 386.731 136.11941 385.7525 C 136.54752 383.4896 136.30289 383.18383 131.716 380.06475 C 129.63662 378.6581 127.74071 376.94567 127.55724 376.3341 C 127.37376 375.7225 127.6184 373.6431 128.10766 371.7472 C 128.84156 368.8116 128.84156 367.89422 128.10766 364.59167 C 127.6184 362.5123 127.3126 358.84278 127.37376 356.4576 L 127.55724 352.1765 L 131.2879 352.23767 C 135.2632 352.29883 139.72776 354.07242 145.59897 357.98656 C 147.12793 358.9651 148.90152 360.06595 149.57426 360.37174 C 150.30817 360.67753 151.22554 361.35027 151.65365 361.9007 C 153.61072 364.28588 153.91651 363.0627 153.91651 351.99304 C 153.97767 344.5317 154.28346 339.94483 154.89505 337.1927 C 155.9959 332.6058 155.75126 331.38265 153.91651 331.99423 C 153.24377 332.23887 151.95944 332.42234 151.10323 332.42234 C 150.247 332.4835 147.37256 332.97277 144.6816 333.58435 C 137.4649 335.23563 130.00357 335.7249 129.57546 334.62405 C 129.39199 334.13478 129.45315 329.79253 129.75894 324.89986 C 130.37052 315.7261 130.49284 291.62968 130.00357 280.00958 C 129.88125 276.27892 129.63662 264.47534 129.45315 253.71146 C 129.33083 242.94758 128.84156 231.81675 128.41345 228.9423 C 127.98534 225.63975 127.80187 220.1355 128.0465 213.83618 C 128.22998 208.39308 128.16882 203.74504 127.92419 203.56156 C 127.74071 203.31693 127.49608 198.97468 127.43492 193.89853 C 127.37376 188.76122 127.19028 178.54777 127.06797 171.1476 C 126.8845 163.74743 126.5787 144.78832 126.33407 129.07061 C 126.15059 113.29174 125.72248 99.71457 125.35553 98.85835 C 125.04974 98.0633 124.8051 93.41526 124.8051 88.58374 L 124.8051 79.77693 L 123.03151 78.370285 C 122.05298 77.57523 119.85127 74.8231 118.07768 72.193285 C 116.30409 69.502315 114.28586 67.178295 113.42964 66.8725 C 112.63458 66.56671 111.96184 65.95513 111.96184 65.58818 C 111.96184 64.73196 111.16678 65.77165 111.16678 65.77165 Z" fill="black"/>
        </g>
        <g id="Graphic_852">
          <path d="M 108.7816 110.72309 C 108.84276 135.06414 109.0874 145.52223 109.76014 153.10587 C 110.31056 158.67128 110.73867 164.29786 110.67751 165.64334 C 110.5552 173.16583 110.5552 184.72477 110.73867 189.80092 C 110.86099 192.98116 110.92215 197.50688 110.92215 199.89206 C 110.67751 219.4016 110.73867 236.159 111.04446 240.2566 C 111.22794 242.94758 111.53373 255.66853 111.59489 268.45064 C 111.7172 281.2939 112.023 292.36358 112.26763 293.09748 C 112.51227 293.89254 112.38995 295.23803 111.96184 296.21656 C 111.41141 297.5009 111.41141 299.33564 111.96184 303.61673 C 112.32879 306.7358 112.38995 309.42678 112.14531 309.6714 C 111.90068 309.8549 109.94361 309.91605 107.86423 309.79373 L 104.01125 309.5491 L 104.01125 307.40855 C 104.01125 306.0019 104.43935 304.9622 105.23441 304.28947 C 106.39642 303.3721 106.51874 302.45472 106.64106 296.52235 C 106.70222 292.7917 106.5799 285.94195 106.33527 281.23275 C 106.09063 276.52355 105.72368 264.29187 105.47905 254.01725 C 105.05094 231.08285 104.86746 227.59682 104.01125 220.68592 C 103.3385 215.8544 103.39966 214.8147 104.31704 212.06258 C 105.23441 209.3716 105.29557 207.9038 104.8063 201.66565 C 104.50051 197.6292 104.50051 189.9844 104.74515 184.60245 C 105.05094 179.22051 105.05094 173.83857 104.86746 172.67656 C 104.68399 171.51455 104.43935 168.76242 104.3782 166.56072 C 104.25588 164.35902 103.88893 161.97384 103.52198 161.23994 C 102.42113 159.22171 102.66576 155.18525 104.01125 152.67776 C 105.41789 150.04795 105.5402 147.96856 104.56167 143.25936 C 104.19472 141.42461 103.95009 135.79804 103.95009 130.78305 C 103.95009 125.7069 103.76661 120.56959 103.46082 119.34642 C 103.15503 118.12326 103.15503 113.23058 103.46082 108.33791 C 103.76661 103.5064 104.13356 95.98391 104.31704 91.64166 C 104.56167 87.23826 104.8063 83.14064 104.92862 82.40674 C 105.29557 80.81662 107.61959 77.7587 108.23118 78.18681 C 108.53697 78.30913 108.7816 92.98715 108.7816 110.72309 Z" fill="#FFFFFF"/>
        </g>
        <g id="Graphic_851">
          <path d="M 116.54872 81.61168 C 118.75042 85.22003 118.81158 85.52582 118.38347 89.13417 C 117.71073 95.12769 118.26116 111.33467 119.36201 116.41082 C 119.6678 117.93978 120.03475 132.06737 120.21823 147.9074 C 120.34054 163.68627 120.76865 183.25697 121.1356 191.32988 C 121.50255 199.4028 121.8695 215.79324 122.05298 227.71914 C 122.23645 239.64503 122.48109 250.77586 122.72572 252.4883 C 122.9092 254.13957 123.3373 263.3745 123.6431 272.97636 C 123.94889 282.57823 124.31584 292.42474 124.49931 294.8099 L 124.8051 299.27448 L 120.95213 298.90753 C 115.01976 298.29595 114.46933 296.64467 119.97359 295.91077 C 123.58194 295.4215 123.70426 294.19833 120.15707 293.89254 C 117.1603 293.6479 116.7322 293.2198 116.54872 290.2842 C 116.24293 284.47414 115.63134 248.75763 115.2644 216.40483 C 115.08092 196.8953 114.83628 176.52954 114.71397 171.1476 C 114.59165 165.76566 114.34702 154.0844 114.16354 145.15527 C 113.98007 135.73688 113.55196 127.54165 113.12385 125.58458 C 112.57342 123.07709 112.51227 118.73484 112.94037 108.46023 C 113.24617 100.87658 113.4908 91.27471 113.4908 87.05478 C 113.61312 79.10419 113.67427 77.88102 114.04123 77.88102 C 114.16354 77.88102 115.2644 79.59345 116.54872 81.61168 Z" fill="#FFFFFF"/>
        </g>
        <g id="Graphic_850">
          <path d="M 124.49931 308.32593 C 124.49931 315.60378 124.31584 315.8484 119.79012 315.35914 C 116.24293 314.93104 114.77513 313.6467 116.54872 312.3624 C 117.1603 311.8731 118.38347 311.50616 119.23969 311.50616 C 121.07444 311.50616 120.52402 310.83342 117.8942 309.9772 C 115.20324 309.121 115.08092 306.85812 117.77189 307.0416 C 122.48109 307.28623 124.01005 305.75727 119.6678 305.1457 C 116.85451 304.71758 115.20324 303.4944 115.93714 302.3324 C 116.18177 301.9043 117.95536 301.72082 120.4017 301.84313 L 124.49931 302.0266 L 124.49931 308.32593 Z" fill="#FFFFFF"/>
        </g>
        <g id="Graphic_849">
          <path d="M 111.59489 312.66817 C 111.83952 312.97397 111.77836 313.6467 111.59489 314.19713 C 111.04446 315.60378 105.35673 315.60378 104.8063 314.19713 C 104.62283 313.6467 104.8063 312.97397 105.29557 312.66817 C 106.39642 311.99543 111.16678 311.93427 111.59489 312.66817 Z" fill="#FFFFFF"/>
        </g>
        <g id="Graphic_848">
          <path d="M 110.43288 318.2336 C 110.61635 318.5394 110.37172 318.84517 109.88245 318.84517 C 109.33203 318.84517 108.90392 318.5394 108.90392 318.2336 C 108.90392 317.86664 109.14855 317.622 109.45434 317.622 C 109.8213 317.622 110.2494 317.86664 110.43288 318.2336 Z" fill="#FFFFFF"/>
        </g>
        <g id="Graphic_847">
          <path d="M 124.68279 319.3956 C 124.92742 320.80224 124.8051 320.80224 121.19676 320.5576 C 114.59165 320.06834 114.59165 317.43853 121.1356 317.74432 C 124.13236 317.9278 124.49931 318.0501 124.68279 319.3956 Z" fill="#FFFFFF"/>
        </g>
        <g id="Graphic_846">
          <path d="M 109.76014 321.65846 C 110.31056 321.84194 110.73867 322.39236 110.73867 322.88163 C 110.73867 323.4932 109.94361 323.73785 107.98654 323.73785 C 106.02947 323.73785 105.23441 323.4932 105.23441 322.88163 C 105.23441 321.65846 107.92538 320.92456 109.76014 321.65846 Z" fill="#FFFFFF"/>
        </g>
        <g id="Graphic_845">
          <path d="M 122.84804 323.0651 C 123.52078 323.43206 123.45962 323.6767 122.6034 323.9825 C 121.19676 324.5329 116.18177 323.73785 116.60988 323.0651 C 117.03799 322.39236 121.80834 322.39236 122.84804 323.0651 Z" fill="#FFFFFF"/>
        </g>
        <g id="Graphic_844">
          <path d="M 110.12709 327.10156 C 110.12709 327.7743 109.45434 328.01894 107.68075 328.01894 C 105.90716 328.01894 105.23441 327.7743 105.23441 327.10156 C 105.23441 326.4288 105.90716 326.1842 107.68075 326.1842 C 109.45434 326.1842 110.12709 326.4288 110.12709 327.10156 Z" fill="#FFFFFF"/>
        </g>
        <g id="Graphic_843">
          <path d="M 124.377 329.05863 C 123.94889 329.18095 123.21499 329.18095 122.84804 329.05863 C 122.41993 328.87515 122.72572 328.75284 123.58194 328.75284 C 124.43816 328.75284 124.74395 328.87515 124.377 329.05863 Z" fill="#FFFFFF"/>
        </g>
        <g id="Graphic_842">
          <path d="M 106.45758 331.3215 C 106.45758 331.50497 106.21295 331.81076 105.846 331.99423 C 105.5402 332.1777 105.23441 332.0554 105.23441 331.7496 C 105.23441 331.38265 105.5402 331.07686 105.846 331.07686 C 106.21295 331.07686 106.45758 331.19917 106.45758 331.3215 Z" fill="#FFFFFF"/>
        </g>
        <g id="Graphic_841">
          <path d="M 117.77189 333.2174 C 118.99506 335.78606 119.42317 336.09185 123.21499 337.43733 C 125.72248 338.41587 127.55724 338.5382 135.14088 338.29355 C 141.68483 338.11008 144.74275 337.74312 146.45519 336.94807 C 147.80067 336.39764 149.085 336.153 149.32963 336.39764 C 149.88006 337.0704 148.71805 352.66578 148.0453 353.3385 C 147.67835 353.70547 146.5775 353.27736 145.17086 352.29883 C 143.15263 350.8922 138.38227 349.30207 130.92095 347.52847 C 128.96388 347.10036 116.54872 346.12183 105.5402 345.5714 C 95.38791 345.02098 83.89013 346.54994 77.8966 349.17975 C 74.47173 350.7087 74.47173 350.64755 74.83868 343.7978 C 75.02216 340.006 74.89984 337.0704 74.53289 336.39764 C 73.37088 334.2571 75.26679 334.0736 77.774285 336.09185 C 79.05861 337.13154 80.34294 337.8043 80.58757 337.6208 C 80.89336 337.43733 82.91159 337.6208 85.11329 338.0489 C 93.06389 339.7002 104.56167 338.2324 108.29233 335.1133 C 110.06593 333.58435 114.71397 331.07686 115.75366 331.07686 C 116.36525 331.07686 117.22146 331.99423 117.77189 333.2174 Z" fill="#FFFFFF"/>
        </g>
        <g id="Graphic_840">
          <path d="M 124.68279 332.0554 C 126.21175 332.4835 126.51754 334.13478 125.04974 334.13478 C 123.76541 334.13478 121.74719 333.03393 121.74719 332.30003 C 121.74719 331.6273 122.66456 331.56612 124.68279 332.0554 Z" fill="#FFFFFF"/>
        </g>
        <g id="Graphic_839">
          <path d="M 117.09915 350.8922 C 118.01652 351.68724 118.68926 352.84925 118.68926 353.522 C 118.68926 354.1336 118.9339 354.92864 119.23969 355.23443 C 120.64633 356.70223 123.6431 363.6743 123.09267 364.2247 C 122.48109 364.8363 120.27938 361.53375 118.50579 357.37498 C 118.01652 356.21297 116.54872 354.19474 115.2644 352.9104 C 113.42964 351.0145 113.12385 350.46408 113.85775 349.9748 C 115.08092 349.17975 115.38671 349.2409 117.09915 350.8922 Z" fill="#FFFFFF"/>
        </g>
        <g id="Graphic_838">
          <path d="M 113.18501 355.35675 C 117.40494 360.3106 119.97359 364.89746 118.99506 365.81484 C 118.75042 366.05947 118.01652 365.38673 117.28262 364.4082 C 116.60988 363.3685 114.53049 361.1668 112.7569 359.3932 C 110.9833 357.68077 109.5155 355.96833 109.5155 355.6014 C 109.5155 355.2956 109.0874 354.74516 108.59813 354.50053 C 108.10886 354.19474 107.49727 353.0939 107.3138 351.99304 C 106.64106 348.6905 108.23118 349.60786 113.18501 355.35675 Z" fill="#FFFFFF"/>
        </g>
        <g id="Graphic_837">
          <path d="M 121.62487 351.38145 C 122.48109 352.23767 122.6034 354.31706 121.8695 354.31706 C 121.01328 354.31706 118.6281 351.50377 119.11737 351.07566 C 119.72896 350.4029 120.82981 350.5864 121.62487 351.38145 Z" fill="#FFFFFF"/>
        </g>
        <g id="Graphic_836">
          <path d="M 110.12709 360.18826 C 110.12709 360.5552 110.67751 361.35027 111.35026 361.96186 C 112.023 362.57344 112.57342 363.3685 112.57342 363.7966 C 112.57342 364.16356 113.67427 365.38673 115.01976 366.4876 C 116.36525 367.52727 117.4661 368.6893 117.4661 368.99508 C 117.4661 369.30087 118.32231 371.38025 119.30085 373.58196 C 120.34054 375.78366 121.1356 377.86305 121.1356 378.16884 C 121.1356 379.5143 120.03475 378.6581 119.23969 376.7622 C 118.13884 373.9489 111.96184 364.65283 110.9833 364.28588 C 110.49404 364.1024 110.12709 363.42966 110.12709 362.81808 C 110.12709 362.08417 109.5155 361.41143 108.59813 361.0445 C 107.74191 360.7387 106.76337 359.76015 106.45758 358.9651 C 106.15179 358.17004 105.60136 357.3138 105.29557 357.0692 C 104.92862 356.8857 104.62283 355.96833 104.62283 355.05096 C 104.62283 353.46084 104.74515 353.522 107.37496 356.4576 C 108.90392 358.10888 110.12709 359.76015 110.12709 360.18826 Z" fill="#FFFFFF"/>
        </g>
        <g id="Graphic_835">
          <path d="M 107.37496 362.45112 C 108.41465 363.85777 109.5155 365.4479 109.8213 365.9983 C 110.18825 366.54874 111.41141 368.5058 112.63458 370.2794 C 115.75366 374.92744 117.77189 378.71926 117.28262 379.14737 C 116.60988 379.8201 115.63134 378.71926 113.79659 375.23323 C 111.65605 371.07446 108.59813 367.28264 107.92538 367.9554 C 107.61959 368.2 107.74191 368.99508 108.17002 369.60666 C 108.59813 370.2794 108.90392 371.1356 108.90392 371.50257 C 108.90392 371.8695 109.69898 373.3985 110.73867 374.8663 C 111.90068 376.63988 112.26763 377.55725 111.7172 377.55725 C 110.73867 377.55725 107.49727 374.01007 106.15179 371.50257 C 105.66252 370.52404 104.68399 369.5455 104.01125 369.30087 C 102.54344 368.8116 102.48228 367.58843 103.82777 365.2644 C 104.62283 363.91893 104.68399 363.30734 104.19472 362.81808 C 103.70545 362.3288 103.6443 361.71722 104.0724 360.92216 C 104.92862 359.33205 105.29557 359.5155 107.37496 362.45112 Z" fill="#FFFFFF"/>
        </g>
        <g id="Graphic_834">
          <path d="M 122.35877 372.11415 C 122.35877 372.41995 122.11414 372.6646 121.74719 372.6646 C 121.4414 372.6646 121.1356 372.23647 121.1356 371.68605 C 121.1356 371.1968 121.4414 370.95214 121.74719 371.1356 C 122.11414 371.3191 122.35877 371.7472 122.35877 372.11415 Z" fill="#FFFFFF"/>
        </g>
        <g id="Graphic_833">
          <path d="M 106.45758 377.00683 C 106.88569 377.67957 107.00801 378.41347 106.82453 378.59695 C 106.33527 379.14737 104.62283 377.55725 104.62283 376.5787 C 104.62283 375.2944 105.72368 375.53903 106.45758 377.00683 Z" fill="#FFFFFF"/>
        </g>
        <g id="Graphic_832">
          <path d="M 105.846 382.26645 C 105.78484 382.57224 105.41789 383.42846 104.92862 384.2847 C 103.3385 387.09797 103.76661 390.21705 106.21295 393.15265 C 108.41465 395.8436 108.53697 397.12795 106.5799 397.12795 C 104.86746 397.12795 101.62607 394.80393 100.34174 392.72454 C 98.44583 389.60546 98.75162 388.0765 101.99302 384.77395 C 104.74515 382.0218 105.846 381.22676 105.846 382.26645 Z" fill="#FFFFFF"/>
        </g>
        <g id="Graphic_831">
          <path d="M 97.8954 383.0615 C 97.8954 383.3673 97.34498 384.5293 96.67224 385.63016 C 95.02096 388.3823 95.14328 390.2782 97.28382 393.6419 C 98.32351 395.23204 99.11857 396.82215 99.11857 397.12795 C 99.11857 398.3511 95.99949 396.21057 94.71517 394.19234 C 93.06389 391.50137 93.43084 386.11943 95.51023 383.91773 C 96.97803 382.38877 97.8954 382.0218 97.8954 383.0615 Z" fill="#FFFFFF"/>
        </g>
        <g id="Graphic_830">
          <path d="M 121.8695 383.4896 C 122.84804 384.1012 124.25468 385.63016 124.86626 386.9145 C 126.02827 389.17735 126.02827 389.2385 124.86626 391.9295 C 123.70426 394.49813 121.19676 396.51636 118.99506 396.51636 C 117.77189 396.51636 117.83305 396.08825 119.36201 392.3576 L 120.64633 389.29967 L 119.36201 386.42522 C 118.6281 384.8351 118.07768 383.30614 118.07768 383.00035 C 118.07768 382.14413 119.91243 382.38877 121.8695 383.4896 Z" fill="#FFFFFF"/>
        </g>
        <g id="Graphic_829">
          <path d="M 130.12589 384.5293 C 131.96064 387.3426 132.32759 390.21705 131.41022 393.3973 C 130.85979 395.23204 130.12589 396.27173 129.14735 396.5775 C 127.74071 397.12795 127.74071 397.12795 128.22998 393.9477 C 128.84156 390.09473 128.65809 385.81364 127.86303 384.2847 C 127.3126 383.30614 127.6184 382.44993 128.41345 382.44993 C 128.59693 382.44993 129.39199 383.3673 130.12589 384.5293 Z" fill="#FFFFFF"/>
        </g>
        <g id="Graphic_828">
          <path d="M 113.61312 384.2235 C 115.44787 385.7525 116.91567 389.48314 116.48756 391.56253 C 115.9983 393.8254 112.51227 395.9048 110.86099 394.92624 C 110.31056 394.5593 109.5155 393.70307 109.20971 393.03033 C 108.84276 392.29643 108.17002 391.3179 107.74191 390.76747 C 106.70222 389.48314 107.25264 387.3426 109.27087 384.9574 C 111.10562 382.7557 111.77836 382.69456 113.61312 384.2235 Z" fill="#FFFFFF"/>
        </g>
        <g id="Graphic_827">
          <path d="M 126.21175 398.9627 C 125.96712 399.20733 124.8051 399.5743 123.70426 399.8189 C 122.23645 400.06355 121.74719 399.94123 121.93066 399.3908 C 122.05298 399.02386 122.97035 398.47343 123.94889 398.28996 C 125.90596 397.923 127.00681 398.2288 126.21175 398.9627 Z" fill="#FFFFFF"/>
        </g>
        <g id="Graphic_826">
          <path d="M 113.73543 401.4702 C 115.14208 401.95946 115.63134 402.5099 115.63134 403.5496 C 115.63134 406.24055 110.86099 406.36287 109.45434 403.73305 C 108.84276 402.6322 108.96508 402.26525 109.88245 401.5925 C 111.22794 400.61398 111.2891 400.61398 113.73543 401.4702 Z" fill="#FFFFFF"/>
        </g>
        <g id="Graphic_825">
          <path d="M 118.68926 288.87755 C 118.68926 289.18334 119.11737 289.48914 119.60664 289.48914 C 120.09591 289.48914 120.52402 289.18334 120.52402 288.87755 C 120.52402 288.5106 120.09591 288.26597 119.60664 288.26597 C 119.11737 288.26597 118.68926 288.5106 118.68926 288.87755 Z" fill="black"/>
        </g>
        <g id="Graphic_824">
          <path d="M 111.47257 336.7646 C 107.92538 338.7828 107.49727 342.5135 110.67751 344.16476 C 112.63458 345.20445 116.12061 344.59287 117.77189 342.9416 C 118.9339 341.7796 118.9339 341.65726 117.22146 338.72166 C 115.6925 336.0307 113.85775 335.4191 111.47257 336.7646 Z" fill="black"/>
        </g>
      </g>
    </g>
  </g>
</svg>
