<?xml version="1.0" encoding="UTF-8" standalone="no"?>
<!DOCTYPE svg PUBLIC "-//W3C//DTD SVG 1.1//EN" "http://www.w3.org/Graphics/SVG/1.1/DTD/svg11.dtd">
<svg xmlns="http://www.w3.org/2000/svg" xmlns:xl="http://www.w3.org/1999/xlink" version="1.1" xmlns:dc="http://purl.org/dc/elements/1.1/" viewBox="33.75 61.875 296.25 352" width="296.25" height="352">
  <defs>
    <clipPath id="artboard_clip_path">
      <path d="M 35 61.875 L 330 61.875 L 330 413.875 L 33.75 413.875 Z"/>
    </clipPath>
  </defs>
  <g id="Thorns,_Wreath_of" stroke-opacity="1" fill="none" fill-opacity="1" stroke-dasharray="none" stroke="none">
    <title>Thorns, Wreath of</title>
    <g id="Thorns,_Wreath_of_Layer_2" clip-path="url(#artboard_clip_path)">
      <title>Layer 2</title>
      <g id="Graphic_77">
        <rect x="298.6875" y="411.9454" width="76.608" height="91.9296" id="path"/>
        <clipPath id="clip_path">
          <use xl:href="#path"/>
        </clipPath>
        <g clip-path="url(#clip_path)">
          <image xl:href="image338.pdf" width="294" height="348" transform="translate(298.7715 412.6702) scale(.26)"/>
        </g>
      </g>
      <g id="Graphic_44">
        <path d="M 323.0862 246.10508 C 320.78913 248.63185 319.52575 248.40214 320.55942 245.53081 C 321.01883 244.612 322.16737 243.80802 323.20104 243.80802 C 325.0387 243.80802 325.0387 244.03773 323.0862 246.10508 Z" fill="#FFFFFF"/>
      </g>
      <g id="Group_96">
        <g id="Graphic_92">
          <path d="M 179.34736 73.45323 L 176.51835 69.62025 C 176.19038 69.17589 175.56428 69.08154 175.11993 69.409505 C 174.8961 69.5747 174.7512 69.82567 174.72006 70.1021 L 174.18655 74.83607 C 174.1247 75.38488 174.51946 75.87992 175.06827 75.94177 C 175.19252 75.95577 175.3183 75.94635 175.43908 75.91398 L 178.8016 75.013 C 179.33506 74.87006 179.65165 74.32172 179.5087 73.78825 C 179.47634 73.667475 179.42161 73.55384 179.34736 73.45323 Z" fill="white"/>
          <path d="M 179.49774 73.64111 L 175.9921 69.26141 C 176.16602 69.18244 175.56654 69.125 175.11993 69.409505 C 174.9084 69.57796 174.7532 69.81026 174.72006 70.1021 M 174.7965 69.30324 L 174.24604 75.05598 C 174.15559 75.37212 174.57352 75.845785 175.06827 75.94177 C 175.18162 75.94414 175.30622 75.9535 175.43908 75.91398 M 174.72872 76.22257 L 179.05504 74.34319 C 179.37783 74.91491 179.64217 74.2722 179.5087 73.78825 C 179.47732 73.66534 179.41101 73.54867 179.34736 73.45323 M 179.98645 73.13369 L 179.04243 73.6057 M 179.54748 73.57946 L 176.38337 69.61883 C 176.38477 68.96369 175.7853 68.90625 175.33868 69.190755 C 175.12715 69.35921 174.97194 69.59151 174.9388 69.88335 M 174.9635 69.19938 L 174.4218 74.67774 C 174.37434 75.15337 174.79227 75.627035 175.28702 75.72302 C 175.40037 75.72539 175.52497 75.73475 175.65783 75.69523 M 174.8223 76.07683 L 178.51763 74.45566 C 179.59658 74.69616 179.86092 74.05345 179.72745 73.5695 C 179.69607 73.44659 179.62976 73.32992 179.56611 73.23448 M 180.10408 73.04082 L 179.48393 73.39824" stroke="black" stroke-linecap="round" stroke-linejoin="round" stroke-width="1.75"/>
        </g>
        <g id="Graphic_91">
          <path d="M 206.84434 72.80374 L 206.31083 68.06977 C 206.24898 67.52096 205.75394 67.1262 205.20513 67.18805 C 204.9287 67.219205 204.67774 67.3641 204.51254 67.58792 L 201.68353 71.42091 C 201.35556 71.865265 201.4499 72.49136 201.89427 72.81933 C 201.99487 72.89358 202.1085 72.94831 202.2293 72.98067 L 205.5918 73.881655 C 206.12527 74.0246 206.6736 73.708015 206.81655 73.17455 C 206.84892 73.05377 206.85834 72.92799 206.84434 72.80374 Z" fill="white"/>
          <path d="M 206.9007 73.21216 L 206.16048 67.84827 C 206.29655 67.59767 205.76984 67.101056 205.20513 67.18805 C 204.94628 67.21024 204.65747 67.3596 204.51254 67.58792 M 204.72929 67.35641 L 200.68716 71.67391 C 201.36935 71.8314 201.453 72.43706 201.89427 72.81933 C 201.99987 72.89743 202.12086 72.94469 202.2293 72.98067 M 201.96684 72.923575 L 206.54746 73.9201 C 206.13566 74.04003 206.65407 73.70304 206.81655 73.17455 C 206.85203 73.06434 206.8503 72.93223 206.84434 72.80374 M 206.98484 73.10627 L 206.29727 68.28864 C 206.5153 67.37892 205.98859 66.882306 205.42388 66.9693 C 205.16503 66.99149 204.87622 67.14085 204.7313 67.36917 M 204.9096 67.313455 L 201.41646 70.95242 C 201.5881 71.61265 201.67176 72.21831 202.11302 72.60058 C 202.21862 72.67868 202.3396 72.72594 202.44804 72.76192 M 202.08947 72.7533 L 206.11595 73.62462 C 206.35441 73.82128 206.87282 73.48429 207.0353 72.9558 C 207.07078 72.84559 207.06906 72.71348 207.06309 72.58499" stroke="black" stroke-linecap="round" stroke-linejoin="round" stroke-width="1.75"/>
        </g>
        <g id="Graphic_89">
          <path d="M 187.25715 85.84061 L 185.51658 81.40603 C 185.3148 80.89193 184.73445 80.63874 184.22035 80.84053 C 183.9614 80.94217 183.75649 81.14708 183.65485 81.40603 L 181.91428 85.84061 C 181.7125 86.35471 181.96568 86.93505 182.47978 87.13684 C 182.59618 87.18252 182.7201 87.20597 182.84515 87.20597 L 186.32628 87.20597 C 186.87857 87.20597 187.32628 86.75826 187.32628 86.20597 C 187.32628 86.08093 187.30283 85.957 187.25715 85.84061 Z" fill="white"/>
          <path d="M 187.5103 86.55252 L 185.47837 80.83843 C 185.34833 80.91534 184.7776 80.58683 184.22035 80.84053 C 183.9339 80.9644 183.74734 81.1644 183.65485 81.40603 M 183.8557 80.77849 L 182.05993 86.38916 C 181.668 86.2823 181.97732 86.95087 182.47978 87.13684 C 182.60797 87.19231 182.73128 87.20582 182.84515 87.20597 M 182.27808 87.25618 L 186.8611 86.85039 C 186.8922 87.24541 187.2866 86.73192 187.32628 86.20597 C 187.33366 86.09191 187.29994 85.95503 187.25715 85.84061 M 187.58857 86.4542 L 185.77595 81.26055 C 185.56708 80.69659 184.99636 80.36808 184.4391 80.62178 C 184.15264 80.74565 183.9661 80.94565 183.8736 81.18728 M 184.0283 80.68935 L 182.41887 85.57099 C 181.88675 86.06355 182.19607 86.73212 182.69853 86.91809 C 182.82672 86.97356 182.95003 86.98707 183.0639 86.98722 M 182.37796 87.03955 L 186.62266 86.67931 C 187.11095 87.02666 187.50534 86.51317 187.54503 85.98722 C 187.5524 85.87316 187.51869 85.73628 187.4759 85.62186" stroke="black" stroke-linecap="round" stroke-linejoin="round" stroke-width="1.75"/>
        </g>
        <g id="Graphic_87">
          <path d="M 168.03436 93.57604 L 170.6589 97.55183 C 170.96316 98.01274 171.58346 98.13973 172.04437 97.83547 C 172.27653 97.68222 172.43436 97.43918 172.47994 97.16475 L 173.26047 92.46519 C 173.35096 91.92037 172.98265 91.40535 172.43783 91.31487 C 172.31448 91.29438 172.18838 91.29721 172.06607 91.3232 L 168.661 92.04697 C 168.1208 92.1618 167.77595 92.69282 167.89077 93.23303 C 167.91677 93.35534 167.96547 93.47169 168.03436 93.57604 Z" fill="white"/>
          <path d="M 167.75006 93.23679 L 171.40781 97.60148 C 171.01322 98.00482 171.54342 98.1715 172.04437 97.83547 C 172.25958 97.68001 172.43634 97.42268 172.47994 97.16475 M 172.40367 97.50061 L 173.67601 91.89795 C 173.40296 91.96916 173.00283 91.38082 172.43783 91.31487 C 172.30806 91.28509 172.19839 91.30052 172.06607 91.3232 M 172.899 91.072 L 167.9133 92.57569 C 168.13021 92.10784 167.82657 92.64511 167.89077 93.23303 C 167.92841 93.36671 167.96772 93.46351 168.03436 93.57604 M 167.59535 93.57604 L 168.55103 93.57604 M 167.89052 93.10137 L 171.19327 97.00767 C 171.23197 97.78607 171.76217 97.95276 172.26312 97.61672 C 172.47833 97.46126 172.6551 97.20393 172.6987 96.946 M 172.47834 97.38335 L 173.63665 92.40263 C 173.62171 91.75041 173.22158 91.16207 172.65658 91.09612 C 172.52681 91.06634 172.41714 91.08177 172.28482 91.10446 M 173.02097 91.00441 L 168.7624 92.25162 C 168.34896 91.88909 168.04532 92.42636 168.10952 93.01428 C 168.14716 93.14796 168.18647 93.24476 168.25311 93.35729 M 167.70473 93.43338 L 168.14374 93.36893" stroke="black" stroke-linecap="round" stroke-linejoin="round" stroke-width="1.75"/>
        </g>
        <g id="Graphic_88">
          <path d="M 196.84074 92.14608 L 197.9472 96.77974 C 198.07547 97.31692 198.61492 97.64841 199.1521 97.52014 C 199.42268 97.45553 199.65412 97.28113 199.7908 97.03884 L 202.1316 92.88966 C 202.40298 92.40864 202.23303 91.79871 201.752 91.52734 C 201.6431 91.46591 201.52365 91.42544 201.39982 91.40803 L 197.95257 90.92355 C 197.40566 90.84669 196.9 91.22774 196.82313 91.77465 C 196.80572 91.89847 196.8117 92.02446 196.84074 92.14608 Z" fill="white"/>
          <path d="M 196.76715 91.88529 L 198.36618 97.55198 C 198.06085 97.28781 198.56125 97.63834 199.1521 97.52014 C 199.40045 97.46555 199.67835 97.25372 199.7908 97.03884 M 199.36863 97.7532 L 202.37102 92.67289 C 202.32474 92.50149 202.1937 91.79436 201.752 91.52734 C 201.6458 91.46615 201.53424 91.41451 201.39982 91.40803 M 202.11177 91.51288 L 197.8199 90.88081 C 197.4201 90.90643 196.85023 91.24595 196.82313 91.77465 C 196.81523 91.89714 196.81137 92.03188 196.84074 92.14608 M 196.96456 91.75107 L 198.40358 96.869 C 198.2796 97.06906 198.78 97.41959 199.37085 97.30139 C 199.6192 97.2468 199.8971 97.03497 200.00956 96.8201 M 199.38703 97.59006 L 202.1154 93.15097 C 202.54349 92.28274 202.41246 91.57561 201.97076 91.30859 C 201.86455 91.2474 201.753 91.19576 201.61857 91.18928 M 202.2181 91.42426 L 198.13908 90.90825 C 197.63885 90.68768 197.06898 91.0272 197.04188 91.5559 C 197.03398 91.67839 197.03012 91.81313 197.0595 91.92733" stroke="black" stroke-linecap="round" stroke-linejoin="round" stroke-width="1.75"/>
        </g>
        <g id="Graphic_90">
          <path d="M 194.20496 75.79871 L 195.31141 80.43238 C 195.43968 80.96956 195.97914 81.30105 196.51632 81.17278 C 196.7869 81.10817 197.01834 80.93377 197.15502 80.69148 L 199.49583 76.5423 C 199.7672 76.06128 199.59725 75.45135 199.11623 75.17998 C 199.00733 75.11854 198.88787 75.07807 198.76404 75.06067 L 195.31679 74.57619 C 194.76988 74.49933 194.2642 74.880375 194.18734 75.427285 C 194.16994 75.55111 194.17592 75.67709 194.20496 75.79871 Z" fill="white"/>
          <path d="M 194.05607 75.23408 L 195.49086 80.67525 C 195.40249 80.93924 196.00866 81.317745 196.51632 81.17278 C 196.80975 81.08698 197.03145 80.94018 197.15502 80.69148 M 196.90896 81.11293 L 199.89125 76.004915 C 199.7555 76.01835 199.54939 75.487335 199.11623 75.17998 C 199.00322 75.11285 198.89963 75.08869 198.76404 75.06067 M 199.18165 75.09394 L 195.1615 74.77368 C 194.80045 74.5626 194.2346 74.91995 194.18734 75.427285 C 194.1752 75.54937 194.17045 75.66572 194.20496 75.79871 M 194.2466 75.103305 L 195.48202 80.02195 C 195.62124 80.72049 196.22741 81.098995 196.73507 80.95403 C 197.0285 80.86823 197.2502 80.72143 197.37377 80.47273 M 196.99493 80.98989 L 199.5677 76.58169 C 199.97424 75.7996 199.76814 75.268585 199.33498 74.96123 C 199.22197 74.8941 199.11838 74.86994 198.9828 74.84192 M 199.28428 75.06929 L 195.71769 74.77966 C 195.0192 74.34385 194.45334 74.7012 194.4061 75.208535 C 194.39394 75.33062 194.3892 75.44697 194.4237 75.57996" stroke="black" stroke-linecap="round" stroke-linejoin="round" stroke-width="1.75"/>
        </g>
        <g id="Graphic_71">
          <path d="M 277.94894 173.48206 C 281.27968 175.09 283.57674 177.38706 285.8738 181.52177 L 289.0897 187.26443 L 286.79263 191.05458 C 285.6441 193.12193 284.61042 195.07443 284.61042 195.419 C 284.61042 195.6487 286.3332 195.8784 288.40057 195.8784 C 292.19072 195.8784 297.24425 199.66856 297.24425 202.42503 C 297.24425 203.11415 297.93337 204.26268 298.8522 204.9518 C 300.23043 206.21518 300.11558 207.24886 297.5888 212.07268 C 294.7175 217.81534 294.7175 217.81534 290.23822 217.12622 C 285.6441 216.32225 284.3807 217.47078 287.3669 219.8827 C 290.46792 222.5243 290.35307 227.463 286.90748 235.84727 C 285.06983 240.4414 283.23218 245.95433 282.77277 248.2514 C 282.08365 252.1564 281.85395 252.3861 278.17865 251.58213 C 273.58453 250.77816 273.35482 251.697 276.5707 256.98023 C 278.98262 261.00008 279.44203 269.38436 277.94894 279.72113 C 277.14497 284.77466 277.14497 284.77466 275.76673 281.67363 C 274.1588 278.1132 271.97658 277.53892 271.97658 280.7548 C 271.97658 286.72717 269.44982 289.8282 258.42392 297.4085 C 252.22186 301.5432 246.7089 304.9888 245.90494 304.9888 C 245.21582 304.9888 244.0673 303.38086 243.26332 301.5432 C 241.88509 298.0976 238.8989 297.29365 239.58802 300.50953 C 240.73655 304.9888 238.2098 310.04233 231.77802 316.58896 C 228.10272 320.26426 224.77198 323.3653 224.54228 323.3653 C 224.19772 323.3653 223.7383 322.3316 223.39374 321.06823 C 222.47492 317.7375 220.2927 318.31175 220.17786 321.8722 C 220.063 327.84456 217.42139 332.78324 212.36785 336.45853 C 207.88858 339.6744 207.42917 339.78927 206.3955 337.95162 C 204.55784 334.8506 203.06476 335.65456 203.06476 339.6744 C 202.9499 342.54575 201.57167 345.0725 196.8627 350.2409 L 190.77548 357.01723 L 184.80312 355.4093 C 179.63473 354.1459 178.7159 353.4568 178.14164 350.7003 C 177.33767 346.3359 176.07429 345.76163 173.89208 348.7478 C 172.28414 351.15972 172.16929 351.15972 166.88605 349.20722 C 160.68398 346.7953 158.27207 343.80913 158.27207 338.64074 C 158.27207 334.04662 156.66412 332.8981 154.36706 336.11398 L 152.64427 338.5259 L 148.62441 336.11398 C 140.92926 331.29015 138.6322 327.38514 137.1391 316.58896 C 136.56484 312.22454 134.49749 312.45425 132.20042 317.04837 L 130.01822 321.06823 L 125.19439 317.5078 C 122.55277 315.55528 118.99232 313.60278 117.26953 313.14337 C 114.85761 312.5691 113.93879 311.42057 113.70908 309.1235 C 113.36453 306.7116 112.90511 306.13733 111.41202 306.7116 C 110.37835 307.171 108.5407 307.86013 107.50702 308.08983 C 106.35849 308.4344 105.43966 309.1235 105.43966 309.69777 C 105.43966 310.27204 104.63569 310.73145 103.71687 310.73145 C 101.87922 310.73145 100.38613 308.31954 99.2376 303.4957 C 98.66334 300.8541 98.89304 300.16497 101.07525 299.361 L 103.60202 298.44218 L 101.1901 297.06394 C 99.81187 296.37482 97.05539 293.5035 95.21774 290.74702 C 91.77215 285.80834 91.77215 285.80834 93.95436 283.39643 C 95.21774 282.0182 96.25142 280.63995 96.25142 280.41025 C 96.25142 280.0657 94.18407 279.37657 91.54245 279.032 C 88.44141 278.45775 86.25921 277.3092 85.11068 275.47157 C 84.077 273.97848 80.97597 271.10715 78.21949 269.2695 C 75.57787 267.43185 73.28081 265.3645 73.28081 264.79023 C 73.28081 264.1011 75.11846 263.6417 77.30067 263.6417 C 79.48288 263.6417 81.320525 263.06744 81.320525 262.49317 C 81.320525 261.80405 80.63141 261.34464 79.82744 261.34464 C 76.38184 261.34464 72.13228 254.22375 70.98375 246.5286 C 69.72037 237.91462 68.34213 232.28682 66.50448 227.80755 C 65.470804 225.05108 65.70051 224.2471 67.65301 222.40946 C 70.29463 219.99754 70.06493 219.76784 63.74801 217.81534 C 58.57962 216.09254 56.97168 212.18754 60.30242 208.6271 C 61.79551 207.01915 62.94404 206.6746 64.09257 207.3637 C 67.30845 209.43106 68.34213 208.51224 68.34213 203.4587 C 68.34213 197.1418 72.59169 190.0209 77.76008 187.8387 C 81.77994 186.23075 81.89479 185.8862 79.59773 182.78516 C 78.678905 181.52177 77.87493 178.5356 77.87493 176.00883 C 77.87493 173.59691 77.30067 170.61073 76.7264 169.4622 C 75.80758 167.7394 76.037285 167.05029 77.87493 166.01661 C 80.51655 164.63838 82.46906 165.3275 82.46906 167.85426 C 82.46906 171.185 85.68494 169.34735 86.14435 165.67205 C 86.94832 159.9294 87.40774 158.89572 90.50877 155.56499 C 93.6098 152.23425 95.44745 149.01836 97.2851 143.96483 C 98.20392 141.55291 99.0079 141.0935 100.9604 141.55291 C 103.1426 142.12718 103.37231 141.89747 102.68319 140.05982 C 100.73069 135.4657 100.61584 133.7429 101.87922 130.64187 C 103.02775 128.00025 104.29113 127.19628 108.88526 126.27746 C 114.85761 125.01407 115.77644 125.58834 115.77644 130.52702 C 115.77644 133.5132 117.8438 133.2835 119.22203 130.06761 C 120.82997 126.39231 123.58645 123.52099 130.70734 118.3526 C 137.94308 113.06936 138.74705 112.38024 141.27382 108.8198 L 143.11146 106.17817 L 145.52338 109.27921 C 148.62441 113.18421 149.65809 112.15053 149.19868 105.71876 C 148.96897 101.00979 148.09974 101.63277 149.70246 100.59545 C 150.72682 99.90331 156.39528 94.99074 156.39528 94.99074 C 156.39528 94.99074 160.22457 94.57802 164.12957 94.1186 C 171.02075 93.31463 179.15907 90.54096 190.125 91.23807 C 201.09093 91.93519 218.11772 96.03928 218.11772 96.03928 C 218.11772 96.03928 216.5099 90.20252 213.98314 89.05399 C 212.94946 88.70943 201.74937 86.22365 190.125 85.61307 C 178.50063 85.0025 167.37176 88.35778 168.75 86.17557 C 169.78368 84.68248 174.90942 82.36126 176.64855 80.6808 C 178.7438 78.71985 183.32794 78.366365 185.625 77.67725 C 189.64486 76.52872 199.7174 75.375755 198.19656 75.66742 C 197.51146 75.88978 192.44565 69.60764 181.125 72.11307 C 170.99638 74.39025 162.86619 84.70066 162.86619 79.87683 C 162.86619 77.69462 160.45427 78.7283 159.53545 81.36992 C 158.96118 82.86301 156.66412 85.38977 154.48192 87.11257 C 150.92147 89.75419 149.65809 90.09875 145.17882 89.52448 C 140.5847 88.83536 139.89558 88.37595 139.89558 86.07889 C 139.89558 82.6333 139.55102 82.6333 131.39645 86.76801 C 127.72116 88.72051 123.81615 90.2136 122.78248 90.2136 C 121.63394 90.2136 118.64777 91.82154 116.00615 93.77405 C 110.60805 97.7939 105.32481 99.63155 103.02775 98.25331 C 100.38613 96.53052 99.81187 98.13846 101.53466 102.61773 C 103.1426 106.63759 103.1426 107.21185 99.69701 114.56245 C 97.85936 118.92686 95.79201 122.37245 95.21774 122.37245 C 93.49495 122.37245 90.50877 118.92686 90.50877 117.08921 C 90.50877 114.10304 88.09685 115.48127 86.37406 119.50113 C 85.45523 121.79819 83.84729 123.9804 82.69876 124.32496 C 78.678905 125.81805 73.28081 130.75673 70.409485 135.6954 C 67.99757 139.83012 66.84904 140.74894 64.09257 140.74894 C 60.30242 140.74894 60.07271 140.97865 61.91036 144.42424 C 62.59948 145.68762 63.40345 150.05204 63.633156 154.18675 C 63.977715 158.43631 64.78169 162.80073 65.470804 164.06411 C 67.30845 167.5097 61.5658 172.10382 56.28256 171.29985 C 52.722116 170.72559 52.60726 170.9553 52.60726 174.6306 C 52.60726 177.0425 51.229027 180.7178 49.16167 184.04854 C 47.324023 187.03472 45.71608 190.36546 45.71608 191.39914 C 45.71608 192.66252 44.22299 193.9259 41.696224 194.72987 C 39.514016 195.419 37.676367 196.68238 37.676367 197.48635 C 37.676367 199.0943 40.89225 202.19532 43.304166 202.9993 C 44.10814 203.229 45.486374 205.29635 46.17549 207.47856 C 48.01314 212.7618 45.486374 219.07872 39.28431 224.59167 C 36.64269 226.88873 35.379306 228.61152 36.29813 228.95608 C 39.399163 229.98976 41.12196 232.97594 41.12196 237.6849 C 41.12196 240.32653 42.155636 244.46124 43.41902 246.988 C 44.797256 249.62963 45.71608 253.76434 45.71608 256.98023 C 45.71608 262.49317 46.52005 263.52685 48.81711 261.2298 C 49.735937 260.31096 51.114174 260.65552 53.870647 262.60803 C 60.07271 267.0873 60.64698 267.89127 60.64698 272.7151 C 60.64698 276.1607 60.07271 277.65377 58.349915 278.5726 C 55.47859 280.0657 55.47859 281.44393 58.349915 284.31525 C 59.6133 285.57863 60.64698 287.76084 60.64698 289.25393 C 60.64698 293.7332 64.55198 302.92144 67.99757 306.59674 C 69.83522 308.54924 72.01743 311.99484 72.8214 314.17704 C 74.544195 319.11572 75.92243 319.69 77.64523 316.0147 C 78.79376 313.48793 79.25317 313.25822 82.69876 314.2919 C 84.76612 314.86616 87.86715 316.35925 89.58994 317.62264 C 91.31274 318.886 93.26524 319.9197 93.83951 319.9197 C 95.90686 319.9197 97.62966 327.84456 96.82569 333.70206 C 96.02172 339.55957 97.05539 340.9378 99.69701 337.7219 C 101.87922 335.0803 102.68319 335.5397 109.68923 342.31604 C 113.93879 346.45075 117.49923 348.86266 120.026 349.32208 C 123.4716 350.0112 128.63998 354.49046 129.78851 357.93605 C 130.59248 360.46282 133.0044 357.8212 133.0044 354.3756 C 133.0044 351.27458 133.34896 351.04487 139.43617 350.2409 C 144.37485 349.66664 146.90162 349.89634 149.77294 351.38943 C 153.33339 352.99737 153.67794 353.57164 153.67794 358.39547 C 153.67794 364.25297 155.05618 364.9421 157.81265 360.69253 C 158.84633 359.0846 160.45427 357.8212 161.3731 357.8212 C 163.44045 357.8212 179.40503 366.55003 181.12782 368.6174 C 182.04665 369.7659 181.81694 370.7996 180.209 372.86695 C 171.70987 383.778 169.52767 393.0811 173.0881 402.8436 C 178.2565 416.5111 181.81694 413.4101 186.41106 391.1286 C 187.32989 386.4196 188.70812 381.13637 189.39724 379.41357 C 190.66063 376.4274 190.77548 376.4274 193.4171 378.03534 C 196.8627 380.3324 199.38946 385.15623 201.80137 393.9999 C 203.63902 400.6614 203.86873 400.8911 210.3005 403.99213 C 216.61741 406.9783 225.11654 408.4714 226.72448 406.86345 C 227.1839 406.40404 224.77198 402.6139 221.3264 398.36433 C 215.00947 390.43947 211.67873 384.58196 208.1183 374.7046 C 206.96976 371.60357 204.6727 367.5837 202.9499 365.8609 C 200.07858 362.9896 199.84887 362.53018 201.45681 361.15194 C 202.9499 360.0034 203.63902 360.0034 205.59152 361.15194 C 208.8074 363.2193 210.3005 361.2668 208.8074 357.24694 C 208.1183 355.4093 208.00344 353.6865 208.46285 353.2271 C 221.44124 341.51207 221.44124 341.51207 228.10272 341.9715 C 232.92655 342.4309 234.9939 343.12 236.60184 345.18737 C 238.6692 347.71413 238.78405 347.71413 240.392 345.64678 C 241.31082 344.49825 242.1148 342.8903 242.1148 342.2012 C 242.1148 341.51207 243.8376 340.36354 245.90494 339.6744 C 256.70113 335.99912 260.49128 334.27633 265.77452 330.25647 C 269.10526 327.7297 273.23997 325.43264 274.96276 325.0881 C 281.39453 323.595 281.40097 323.4272 278.98905 321.245 C 276.692 319.2925 276.8004 319.34543 280.36086 311.65028 C 283.9213 304.06998 286.67777 301.5432 291.61645 301.5432 C 295.1769 301.5432 293.56896 298.9016 289.43425 297.8679 C 284.3807 296.48967 284.26586 292.0104 289.20454 289.48364 C 293.56896 287.18658 295.866 287.30143 300.46014 290.0579 C 304.0206 292.2401 304.13544 292.2401 304.13544 290.17276 C 304.13544 289.02423 302.9869 286.6123 301.60867 284.8895 C 299.42646 282.13304 299.3116 281.55878 300.91955 280.41025 C 304.48 277.88348 314.2425 263.75656 316.30986 258.35846 C 318.83663 251.35243 322.2822 246.0692 326.41693 242.8533 C 329.97737 240.09683 328.9437 238.37403 323.5456 238.37403 C 320.904 238.37403 320.67428 238.02947 320.67428 232.86109 C 320.67428 228.84123 319.4109 224.82137 315.9653 217.47078 C 310.22265 205.64091 310.22265 200.01311 315.85045 195.30414 C 317.6881 193.6962 319.75545 192.43281 320.3297 192.43281 C 322.74163 192.43281 321.1337 190.48031 317.80295 189.56149 C 314.7019 188.5278 313.89795 187.37928 311.37118 180.37324 C 307.35132 168.88794 306.08794 161.8819 307.58103 159.24028 C 309.41868 155.67984 309.0741 155.45013 303.67602 156.2541 C 299.19676 156.94322 298.16308 156.71352 293.10954 152.80851 C 286.3332 147.64012 284.72527 143.39056 287.48174 137.76276 C 288.51542 135.58055 290.35307 133.39835 291.5016 132.70923 C 295.29175 130.64187 294.14322 129.26364 288.63028 129.26364 C 283.4619 129.26364 283.34704 129.14878 278.86777 122.0279 C 273.81423 114.21789 272.6657 107.3267 276.1113 105.3742 C 279.21233 103.65141 276.22615 102.84744 271.28747 104.11082 C 267.15276 105.1445 266.23393 104.91479 259.917 101.23949 C 249.35053 95.03743 247.7426 93.65919 246.0198 89.40963 C 244.18215 85.16007 241.77023 84.81551 241.19597 88.83536 C 240.96626 90.55816 240.33765 92.48807 238.5 92.48807 C 237.0069 92.48807 225.11884 90.41818 223.3125 90.11307 C 222.50853 88.39028 223.04919 87.91654 223.85316 85.38977 C 224.42742 83.32242 224.88683 81.48477 224.88683 81.25506 C 224.88683 81.02536 223.39374 81.14021 221.5561 81.59962 C 218.22536 82.28874 217.9529 82.94097 214.3125 77.17557 C 211.7373 73.09159 203.9931 71.66543 202.5 71.550574 C 200.7772 71.550574 186.071 69.41743 186.41555 72.1739 C 186.7601 74.35611 198.85137 75.93977 200.8125 76.61307 C 202.77363 77.28638 204.61957 76.70909 207 78.30057 C 209.93068 80.31549 211.44204 81.71897 208.80042 81.71897 C 208.22615 81.71897 207.2227 82.73753 207.2227 83.65636 C 207.2227 84.69003 208.68557 85.80834 210.52322 85.80834 C 212.47572 85.80834 215.23918 91.24728 216.73227 93.65919 C 218.79962 97.10478 218.79962 97.33449 216.50256 101.81376 C 213.86094 107.097 214.4352 108.47524 218.22536 105.83362 C 222.24521 102.96229 223.39374 103.53655 227.873 110.54259 L 232.00772 116.97436 L 229.5958 121.22392 C 228.21757 123.63584 227.1839 125.9329 227.1839 126.27746 C 227.1839 126.73687 229.48096 126.73687 232.23743 126.39231 C 237.29096 125.58834 237.40582 125.7032 247.05347 133.97261 L 256.70113 142.47174 L 254.63377 145.57277 C 252.68127 148.21439 251.6476 152.23425 252.79612 152.23425 C 253.02583 152.23425 254.74863 151.54513 256.58628 150.6263 C 263.01805 147.52527 264.39628 147.64012 271.40232 151.54513 C 278.2935 155.33528 278.2935 155.33528 278.63806 161.07793 C 278.98262 166.13147 278.63806 166.93544 275.99644 168.31367 C 274.3885 169.11764 273.1251 170.15132 273.1251 170.49588 C 273.23997 170.84044 275.30732 172.21868 277.94894 173.48206 Z M 141.50352 98.36817 C 139.89558 100.20582 138.51734 100.66523 135.53116 100.09096 C 131.97072 99.5167 131.74101 99.7464 131.97072 102.61773 C 132.31528 107.67126 130.93704 109.39406 122.09336 114.21789 C 113.01997 119.04172 106.5882 121.10907 106.5882 118.92686 C 106.5882 116.51495 112.56055 105.71876 114.97247 103.76626 C 117.26953 102.04347 117.49923 102.04347 118.99232 104.11082 C 121.05968 107.097 123.81615 106.86729 123.81615 103.76626 C 123.81615 102.38802 124.96468 100.09096 126.34292 98.59787 C 128.41027 96.41567 129.90336 95.95625 136.22028 95.95625 L 143.68573 95.95625 L 141.50352 98.36817 Z M 249.6951 106.29303 C 257.16054 109.85347 257.16054 109.96833 255.43774 112.60995 C 254.40407 114.21789 253.6001 115.59612 253.6001 115.82583 C 253.6001 116.17039 256.012 116.6298 258.88334 116.97436 C 261.8695 117.31892 265.0854 118.46745 266.23393 119.61598 C 269.2201 122.71701 276.22615 136.15482 276.91526 140.28953 L 277.60438 143.84997 L 272.78055 141.55291 C 270.13893 140.28953 266.11908 137.76276 263.70716 135.92511 C 259.6873 132.82408 259.57245 132.47952 260.721 128.57452 C 261.29525 126.27746 261.52496 124.2101 261.1804 123.75069 C 260.83584 123.40613 258.30907 123.75069 255.7823 124.55466 L 250.95848 126.04775 L 245.44553 120.5348 C 238.8989 114.10304 238.09493 111.80597 241.31082 107.90097 L 243.60788 104.91479 L 237.375 105.42557 C 232.09176 106.11469 232.3125 106.55057 232.3125 106.55057 C 232.3125 106.55057 228.27334 99.94666 227.25 98.67557 C 238.68223 100.15374 245.56038 104.34053 249.6951 106.29303 Z M 93.95436 130.41217 C 93.95436 131.90526 89.47509 136.03997 85.57009 137.99247 C 82.3542 139.71526 82.3542 140.63409 85.57009 144.42424 C 87.06318 146.03218 86.94832 146.83615 84.53641 150.28175 C 83.15817 152.46395 80.28685 155.56499 78.33435 157.28778 C 74.31449 160.61852 73.28081 159.81455 73.28081 153.26792 C 73.28081 150.51145 73.74022 149.93719 76.15214 149.93719 C 79.36802 149.93719 79.59773 149.59263 77.64523 146.60645 C 75.11846 142.58659 79.94229 135.12114 87.63744 131.10129 C 91.54245 129.03393 93.95436 128.80423 93.95436 130.41217 Z M 298.73734 174.05633 C 301.4938 179.22471 302.87205 183.81883 303.44632 188.98722 C 304.2503 195.8784 304.13544 196.22296 302.5275 194.04076 C 297.47396 187.03472 289.20454 167.5097 289.20454 162.57102 C 289.20454 159.6997 294.48778 166.01661 298.73734 174.05633 Z M 63.05889 186.69016 C 61.10639 191.16943 58.349915 196.45267 57.08653 198.40517 C 54.904324 201.39135 54.44491 201.62106 53.52609 200.01311 C 52.95182 198.86458 52.722116 195.99326 53.18153 193.4665 C 53.870647 189.67634 54.44491 188.98722 56.74197 188.98722 C 58.92418 188.98722 59.498446 188.41296 59.498446 186.23075 C 59.498446 183.24457 65.470804 175.20486 66.15992 177.27221 C 66.38963 177.96133 64.89654 182.2109 63.05889 186.69016 Z M 305.1691 222.40946 L 302.41264 224.47681 L 306.8919 229.07094 C 311.25633 233.5502 311.37118 233.7799 310.7969 240.4414 C 310.22265 246.41375 305.28397 259.04758 303.44632 259.04758 C 303.10176 259.04758 301.4938 258.0139 299.88587 256.75052 C 296.21058 253.8792 295.52146 254.45346 297.1294 259.16243 C 299.3116 265.3645 298.6225 267.5467 293.2244 272.82995 C 287.1372 278.8023 287.1372 278.91716 289.89366 261.11494 L 291.84616 248.82566 L 295.4066 248.13654 C 303.67602 246.41375 303.56117 246.5286 298.8522 241.70477 C 294.60263 237.34035 294.60263 237.34035 295.98087 232.40167 C 296.8997 229.6452 299.0819 224.36196 300.91955 220.5718 L 304.36514 213.79548 L 306.08794 217.12622 C 307.69588 220.22725 307.69588 220.45696 305.1691 222.40946 Z M 53.755794 224.0174 C 53.755794 225.05108 54.559765 227.463 55.59344 229.30064 C 57.201385 232.51653 57.201385 233.0908 55.59344 235.5027 C 53.870647 238.14433 53.9855 238.37403 56.97168 240.55624 C 59.38359 242.27904 60.64698 244.46124 61.680654 249.28507 C 62.484625 252.84552 62.829184 256.0614 62.59948 256.40596 C 60.53212 258.35846 51.68844 244.92066 49.735937 236.9958 C 48.81711 233.43535 51.114174 222.2946 52.722116 222.2946 C 53.29638 222.2946 53.755794 223.09858 53.755794 224.0174 Z M 79.02346 283.9707 C 85.68494 291.551 89.13053 297.1788 90.39392 302.69174 C 91.6573 308.31954 90.27906 308.6641 83.61759 304.41453 C 78.4492 301.0838 78.33435 300.8541 80.86111 297.8679 C 82.92847 295.6857 82.81361 295.57085 76.61155 294.1926 C 74.31449 293.7332 73.395665 292.58467 72.8214 289.94305 C 71.78772 284.6598 72.01743 278.5726 73.16596 278.5726 C 73.74022 278.5726 76.38184 280.9845 79.02346 283.9707 Z M 275.42217 297.4085 C 275.42217 303.266 260.83584 325.66235 257.0457 325.66235 C 256.47142 325.66235 255.5526 324.0544 254.86348 322.1019 C 253.6001 318.4266 251.30304 318.54146 251.30304 322.21676 C 251.30304 326.58117 249.6951 327.9594 242.45935 330.25647 C 233.15625 333.1278 232.582 333.1278 234.07508 330.25647 C 234.87905 328.7634 236.487 327.9594 238.78405 327.9594 C 241.54053 327.9594 242.22964 327.5 241.65538 326.2366 C 241.31082 325.3178 240.73655 323.8247 240.50685 323.02073 C 240.1623 322.3316 243.8376 318.31175 248.66141 314.40675 C 257.2754 307.28586 257.5051 307.05615 262.55863 307.86013 L 267.61217 308.6641 L 266.8082 305.10365 C 266.11908 302.00262 266.46364 301.3135 269.90923 299.24615 C 273.46967 297.06394 275.42217 296.37482 275.42217 297.4085 Z M 112.56055 323.595 C 115.89129 324.85838 119.22203 328.9931 119.22203 331.97927 C 119.22203 334.39118 121.86365 334.16147 123.58645 331.405 C 124.39042 330.1416 125.4241 329.10794 125.8835 329.10794 C 126.34292 329.2228 128.98454 331.29015 131.85587 333.70206 C 136.9094 338.18133 137.02425 338.2962 133.92322 338.2962 C 132.08557 338.2962 130.70734 337.7219 130.70734 336.8031 C 130.70734 335.7694 128.86969 335.31 124.39042 335.31 C 118.53291 335.42486 117.8438 335.0803 112.90511 330.25647 C 109.91893 327.38514 107.04761 324.16926 106.47334 323.1356 C 105.32481 320.95337 105.66937 321.06823 112.56055 323.595 Z" fill="black"/>
        </g>
        <g id="Graphic_70">
          <path d="M 174.38701 79.30256 C 171.28598 82.28874 164.58898 86.76801 160.33942 89.17992 C 155.975 91.70669 151.13525 95.92313 150.30836 96.51608 C 148.58384 97.83617 138.40249 107.3267 136.79455 110.19803 C 135.1866 113.06936 124.16071 119.73083 119.56659 120.64966 C 117.15468 121.10907 114.74276 121.79819 114.05364 122.2576 C 112.33085 123.63584 103.48716 125.7032 94.64348 126.96658 C 85.57009 128.1151 80.74626 131.331 75.00361 139.71526 C 71.902575 144.19453 71.55802 145.68762 71.55802 153.38278 C 71.55802 159.6997 71.0986 162.34132 69.83522 163.375 C 67.53816 165.09779 66.619335 162.68587 66.50448 154.99072 C 66.38963 146.03218 73.62537 132.82408 81.66508 127.54084 C 83.04332 126.73687 89.13053 125.47349 95.10289 124.78437 C 109.91893 123.29128 126.57263 116.6298 133.57866 109.27921 C 146.55706 96.07111 161.02802 83.81995 163.54986 82.88219 C 164.7645 82.36126 168.75921 82.17389 172.2048 78.38374 C 175.4207 74.93815 181.37834 74.296185 187.3125 72.80329 C 194.00766 71.88843 200.63963 73.037405 189 74.79786 C 183.24833 76.04744 178.67754 75.98445 174.9375 78.86307 Z" fill="#FFFFFF"/>
        </g>
        <g id="Graphic_95">
          <path d="M 221.09022 96.82178 C 223.01024 99.97282 224.87673 103.07847 225.5919 103.86516 C 226.62558 105.12854 229.5252 110.19233 233.08906 115.16044 C 237.8218 121.55236 241.77023 126.39231 247.85744 131.67555 C 260.03187 142.12718 265.0854 145.91733 270.2538 148.4441 C 275.76673 151.20057 284.84012 156.2541 290.46792 159.81455 C 298.73734 164.98294 307.58103 185.08222 307.58103 198.97944 C 307.58103 205.98547 309.53353 202.88444 310.3375 194.72987 C 311.37118 185.08222 311.48603 185.65648 303.44632 167.62456 C 300.8047 161.53734 285.98866 148.78866 281.62424 148.78866 C 280.82027 148.78866 277.8341 147.18071 275.0776 145.34306 C 272.2063 143.39056 269.33496 141.89747 268.64585 141.89747 C 267.95673 141.89747 265.42996 140.17468 263.1329 138.10732 C 260.721 136.03997 256.93083 132.93893 254.63377 131.331 C 252.3367 129.6082 248.4317 126.27746 246.0198 123.86554 C 243.49303 121.45363 239.86567 118.6611 238.6692 117.20407 C 236.12166 114.18346 232.64584 111.03684 224.7238 97.91219 Z M 220.97669 90.03485 C 215.98315 81.73626 211.04785 73.79465 203.0625 73.22086 C 195.51651 71.688464 186.64855 73.0859 197.548 74.36307 C 204.90942 75.54967 207.64206 75.55587 209.25 77.73807 C 210.27252 79.21504 213.864 83.48702 217.07438 89.16868 C 217.89702 89.27532 220.97669 90.03485 220.97669 90.03485 Z" fill="#FFFFFF"/>
        </g>
        <g id="Graphic_68">
          <path d="M 142.5372 91.36213 C 145.98279 91.36213 148.73238 91.36307 148.73238 91.36307 L 145.6875 93.61307 C 145.6875 93.61307 142.65205 93.65919 137.82822 93.65919 C 129.90336 93.65919 128.06572 94.1186 120.37056 98.02361 C 111.75658 102.27317 111.75658 102.27317 107.16246 111.69112 C 101.99407 122.37245 97.97422 125.24378 102.45349 115.13671 C 106.35849 106.29303 110.95261 99.5167 113.82394 98.25331 C 115.20217 97.5642 117.72894 95.95625 119.45174 94.57802 C 122.66762 92.05125 130.59248 90.09875 134.7272 90.90272 C 135.99058 91.13243 139.55102 91.36213 142.5372 91.36213 Z" fill="#FFFFFF"/>
        </g>
        <g id="Graphic_67">
          <path d="M 244.297 96.07111 C 254.97833 99.7464 260.9507 103.4217 266.46364 109.96833 C 269.2201 113.18421 272.32114 116.74466 273.35482 117.89319 C 277.60438 122.37245 282.54306 134.20232 283.11733 141.20835 C 283.6916 147.75498 283.57674 148.09954 281.85395 146.37674 C 280.7054 145.34306 279.5569 142.93115 279.32718 140.8638 C 278.2935 134.77658 271.1726 121.10907 265.3151 114.21789 C 260.14672 108.13068 244.68133 99.36631 234 97.98807 C 230.5544 97.52866 226.9172 95.86469 226.6875 95.17557 C 226.34294 94.1419 224.3316 94.17885 229.5 93.26002 C 229.84456 93.14517 240.27714 94.80772 244.297 96.07111 Z" fill="#FFFFFF"/>
        </g>
        <g id="Graphic_66">
          <path d="M 271.97658 109.39406 C 271.97658 112.26539 271.86173 112.38024 270.13893 110.65744 C 269.10526 109.62377 268.64585 108.24553 268.9904 107.55641 C 270.4835 105.25935 271.97658 106.29303 271.97658 109.39406 Z" fill="#FFFFFF"/>
        </g>
        <g id="Graphic_65">
          <path d="M 237.52067 109.85347 C 237.52067 111.92083 237.29096 112.15053 235.79787 110.88715 C 234.30478 109.62377 234.30478 109.16435 235.45331 108.47524 C 237.52067 107.097 237.52067 107.097 237.52067 109.85347 Z" fill="#FFFFFF"/>
        </g>
        <g id="Graphic_64">
          <path d="M 261.06554 113.18421 C 261.4101 113.75848 260.9507 114.33274 259.917 114.33274 C 258.88334 114.33274 258.42392 113.75848 258.76848 113.18421 C 259.11304 112.49509 259.6873 112.03568 259.917 112.03568 C 260.14672 112.03568 260.721 112.49509 261.06554 113.18421 Z" fill="#FFFFFF"/>
        </g>
        <g id="Graphic_63">
          <path d="M 235.2236 122.2576 C 235.2236 122.83187 234.18993 123.52099 232.92655 123.86554 C 230.97405 124.32496 230.8592 124.09525 231.89287 122.2576 C 232.92655 120.19025 235.2236 120.19025 235.2236 122.2576 Z" fill="#FFFFFF"/>
        </g>
        <g id="Graphic_62">
          <path d="M 258.19422 128.00025 C 258.19422 130.06761 256.12686 130.41217 254.74863 128.68937 C 253.6001 127.19628 253.71495 126.96658 255.7823 126.96658 C 257.0457 126.96658 258.19422 127.42599 258.19422 128.00025 Z" fill="#FFFFFF"/>
        </g>
        <g id="Graphic_61">
          <path d="M 97.39995 134.66173 C 93.26524 147.52527 92.23156 149.47777 86.0295 155.67984 C 82.46906 159.12543 76.15214 164.63838 72.13228 167.96911 C 59.95786 177.61677 53.870647 183.81883 52.033 188.18325 C 50.080496 192.89223 49.735937 199.66856 51.34388 202.53988 C 52.033 203.91812 51.918145 205.1815 50.88447 206.6746 C 49.39138 208.6271 49.16167 208.39739 48.127994 204.37753 C 46.52005 198.40517 48.81711 188.41296 53.29638 182.55545 C 55.13403 180.14354 57.08653 177.73162 57.77565 177.27221 C 58.349915 176.8128 62.02521 173.82662 65.81536 170.61073 C 69.60551 167.39485 75.00361 163.14529 77.76008 161.07793 C 82.58391 157.63234 89.7048 149.24807 91.19789 145.34306 C 91.54245 144.42424 92.69098 141.55291 93.6098 139.02615 C 97.17025 129.6082 97.5148 129.03393 98.08907 129.6082 C 98.43363 129.95276 98.08907 132.24982 97.39995 134.66173 Z" fill="#FFFFFF"/>
        </g>
        <g id="Graphic_60">
          <path d="M 289.0897 131.90526 C 288.85998 132.02011 287.71145 132.93893 286.67777 133.7429 C 284.95498 135.12114 284.61042 135.00629 284.61042 133.39835 C 284.61042 132.24982 285.52924 131.5607 287.1372 131.5607 C 288.51542 131.5607 289.3194 131.67555 289.0897 131.90526 Z" fill="#FFFFFF"/>
        </g>
        <g id="Graphic_59">
          <path d="M 89.81965 141.3232 C 89.36024 142.24203 88.67112 142.70144 88.09685 142.35688 C 86.48891 141.43806 86.94832 139.60041 88.78597 139.60041 C 89.81965 139.60041 90.16421 140.28953 89.81965 141.3232 Z" fill="#FFFFFF"/>
        </g>
        <g id="Graphic_58">
          <path d="M 260.9507 145.22821 C 261.29525 145.80248 260.83584 146.60645 259.80216 146.951 C 256.70113 148.21439 255.5526 147.75498 257.0457 145.91733 C 258.65363 143.96483 260.03187 143.73512 260.9507 145.22821 Z" fill="#FFFFFF"/>
        </g>
        <g id="Graphic_57">
          <path d="M 288.1665 168.58992 C 291.6121 179.6158 296.78484 190.13575 302.9869 199.324 C 313.43853 214.7143 319.52575 231.25314 318.26236 240.6711 C 317.11383 249.39992 311.8306 262.60803 307.00676 269.38436 C 301.2641 276.96466 293.9135 284.2004 291.84616 284.31525 C 291.0422 284.31525 290.35307 284.77466 290.35307 285.34893 C 290.35307 285.9232 289.3194 286.6123 288.056 286.95687 C 284.03615 287.99055 285.29954 282.937 290.0085 279.14686 C 300.91955 270.30318 308.8444 258.35846 312.17515 246.0692 C 315.2762 234.46903 310.5672 213.79548 302.9869 205.64091 C 298.04823 200.35767 283.4619 172.56324 282.77277 166.93544 C 282.4282 164.17896 281.25 157.17557 281.25 157.17557 L 286.3125 160.55057 C 286.3125 160.55057 287.15794 164.68618 288.056 168.31367 Z" fill="#FFFFFF"/>
        </g>
        <g id="Graphic_56">
          <path d="M 304.13544 160.96308 C 304.13544 162.57102 303.79088 162.57102 302.41264 161.4225 C 301.4938 160.61852 300.68985 159.81455 300.68985 159.58484 C 300.68985 159.35514 301.4938 159.12543 302.41264 159.12543 C 303.33147 159.12543 304.13544 159.9294 304.13544 160.96308 Z" fill="#FFFFFF"/>
        </g>
        <g id="Graphic_55">
          <path d="M 280.59056 170.61073 C 280.93512 171.185 280.82027 171.75926 280.13115 171.75926 C 279.5569 171.75926 278.63806 171.185 278.2935 170.61073 C 277.94894 169.92162 278.0638 169.4622 278.7529 169.4622 C 279.32718 169.4622 280.246 169.92162 280.59056 170.61073 Z" fill="#FFFFFF"/>
        </g>
        <g id="Graphic_54">
          <path d="M 74.544195 172.56324 C 75.00361 180.9475 73.96993 184.1634 67.99757 193.12193 C 64.55198 198.29032 60.30242 204.26268 58.57962 206.44489 C 52.95182 213.56577 47.66858 225.39564 47.094317 232.05711 C 46.634905 237.2255 47.094317 239.52256 49.85079 244.92066 C 51.573586 248.59595 55.363736 253.99405 58.12021 257.09508 C 63.40345 262.60803 63.86286 264.44567 59.72815 263.06744 C 53.9855 261.34464 46.17549 249.51478 44.452697 240.21168 C 42.61505 229.8749 47.324023 215.05886 55.938 204.26268 C 61.91036 196.68238 69.83522 179.22471 69.83522 173.48206 C 69.83522 172.10382 71.32831 170.9553 73.62537 170.72559 C 74.08478 170.61073 74.42934 171.52956 74.544195 172.56324 Z" fill="#FFFFFF"/>
        </g>
        <g id="Graphic_53">
          <path d="M 290.92734 192.43281 C 291.2719 193.00708 291.0422 193.58134 290.46792 193.58134 C 289.7788 193.58134 289.20454 193.00708 289.20454 192.43281 C 289.20454 191.7437 289.43425 191.28428 289.66395 191.28428 C 290.0085 191.28428 290.58278 191.7437 290.92734 192.43281 Z" fill="#FFFFFF"/>
        </g>
        <g id="Graphic_52">
          <path d="M 315.62074 191.7437 C 315.62074 192.08825 315.16133 192.66252 314.4722 193.00708 C 313.89795 193.35164 313.32368 193.12193 313.32368 192.54767 C 313.32368 191.85855 313.89795 191.28428 314.4722 191.28428 C 315.16133 191.28428 315.62074 191.514 315.62074 191.7437 Z" fill="#FFFFFF"/>
        </g>
        <g id="Graphic_51">
          <path d="M 44.56755 198.17547 C 44.56755 198.74973 43.76358 199.324 42.7299 199.324 C 41.811077 199.324 41.351664 198.74973 41.696224 198.17547 C 42.040783 197.48635 42.844754 197.02694 43.53387 197.02694 C 44.10814 197.02694 44.56755 197.48635 44.56755 198.17547 Z" fill="#FFFFFF"/>
        </g>
        <g id="Graphic_50">
          <path d="M 298.6225 220.1124 C 293.56896 231.02344 290.92734 238.83344 289.7788 246.41375 C 289.3194 249.28507 288.74513 252.3861 288.63028 253.30493 C 288.40057 254.22375 287.94116 257.3248 287.5966 260.1961 C 286.1035 270.87744 284.72527 278.68745 283.9213 279.83598 C 283.4619 280.5251 283.00248 285.34893 282.77277 290.5173 C 282.4282 295.57085 281.5094 301.88777 280.4757 304.41453 C 274.3885 319.57514 273.58453 320.83852 262.6735 329.6822 C 261.1804 330.83074 256.012 333.3575 251.30304 335.31 C 244.41185 338.06648 240.6217 338.7556 231.89287 339.10015 C 219.6036 339.55957 218.79962 339.90413 206.8549 351.84884 C 191.80916 366.8946 185.8368 377.6908 182.3912 396.06727 C 181.58724 400.4317 180.55356 403.5327 180.09415 402.95845 C 179.63473 402.49904 178.14164 398.4792 176.87826 394.2296 L 174.3515 386.4196 L 181.81694 374.7046 C 191.924 358.96973 201.57167 347.5993 210.64506 340.7081 C 214.89462 337.4922 220.75212 332.0941 223.7383 328.64853 C 234.87905 315.89984 240.6217 311.19086 260.60613 298.6719 C 261.6398 297.98276 265.3151 295.57085 268.87555 293.2738 C 272.436 290.86188 275.65188 288.90937 275.99644 288.90937 C 276.341 288.90937 276.5707 289.94305 276.5707 291.20643 C 276.5707 292.81438 274.6182 294.53717 270.02408 296.9491 C 260.14672 302.11747 249.35053 310.04233 241.19597 317.9672 C 233.15625 325.7772 228.33243 333.47236 230.6295 334.8506 C 232.35228 335.88427 243.8376 333.24265 250.26936 330.25647 C 253.02583 328.9931 256.24172 327.9594 257.2754 327.9594 C 261.29525 327.9594 271.51717 314.981 275.65188 304.5294 C 277.71924 299.24615 278.40835 296.03026 280.4757 282.0182 C 280.7054 279.83598 281.27968 274.09333 281.7391 269.38436 C 282.88762 255.602 286.79263 241.93448 295.06205 223.21343 C 299.65617 212.64695 301.72352 209.20136 302.64235 210.12018 C 302.87205 210.3499 301.14926 214.82916 298.6225 220.1124 Z" fill="#FFFFFF"/>
        </g>
        <g id="Graphic_49">
          <path d="M 65.470804 232.51653 C 67.767865 238.37403 68.80154 248.59595 69.60551 271.222 L 70.409485 294.30747 L 73.85508 299.24615 C 75.69273 301.88777 78.90861 304.87395 80.97597 305.90762 C 83.04332 306.9413 84.76612 308.08983 84.76612 308.54924 C 84.76612 309.00866 86.37406 309.69777 88.32656 310.1572 C 91.42759 310.8463 93.83951 313.48793 92.57612 314.7513 C 92.00186 315.32557 82.00964 311.65028 74.65905 308.08983 C 70.63919 306.13733 69.260955 304.5294 66.38963 298.6719 C 63.40345 292.58467 62.94404 290.0579 62.94404 282.4776 C 62.94404 277.42407 63.74801 270.30318 64.55198 266.62788 C 66.963894 256.40596 64.09257 241.1305 56.74197 224.2471 C 54.67462 219.65299 54.215206 217.70048 55.13403 216.78166 C 56.16771 215.74798 57.545944 217.35592 60.41727 222.5243 C 62.59948 226.42932 64.78169 230.90858 65.470804 232.51653 Z" fill="#FFFFFF"/>
        </g>
        <g id="Graphic_48">
          <path d="M 65.2411 220.45696 C 65.2411 220.80152 64.78169 221.37578 64.09257 221.72034 C 63.5183 222.0649 62.94404 221.8352 62.94404 221.26093 C 62.94404 220.5718 63.5183 219.99754 64.09257 219.99754 C 64.78169 219.99754 65.2411 220.22725 65.2411 220.45696 Z" fill="#FFFFFF"/>
        </g>
        <g id="Graphic_47">
          <path d="M 292.65013 221.14608 C 292.65013 221.72034 292.19072 222.2946 291.5016 222.2946 C 290.92734 222.2946 290.35307 221.72034 290.35307 221.14608 C 290.35307 220.45696 290.92734 219.99754 291.5016 219.99754 C 292.19072 219.99754 292.65013 220.45696 292.65013 221.14608 Z" fill="#FFFFFF"/>
        </g>
        <g id="Graphic_46">
          <path d="M 310.22265 225.7402 C 310.91177 228.38182 309.8781 228.72638 307.81073 226.65902 C 305.9731 224.82137 306.08794 223.44314 308.04044 223.44314 C 308.8444 223.44314 309.8781 224.47681 310.22265 225.7402 Z" fill="#FFFFFF"/>
        </g>
        <g id="Graphic_45">
          <path d="M 297.24425 244.11668 C 297.24425 244.5761 296.21058 245.26522 294.9472 245.60977 C 293.33925 246.0692 292.65013 245.60977 292.65013 244.23154 C 292.65013 243.083 292.9947 241.81962 293.4541 241.47506 C 294.25807 240.6711 297.24425 242.73845 297.24425 244.11668 Z" fill="#FFFFFF"/>
        </g>
        <g id="Graphic_43">
          <path d="M 281.16483 255.48714 C 281.16483 256.17625 280.7054 256.98023 280.0163 257.3248 C 279.44203 257.66934 278.86777 257.20993 278.86777 256.2911 C 278.86777 255.25743 279.44203 254.45346 280.0163 254.45346 C 280.7054 254.45346 281.16483 254.91287 281.16483 255.48714 Z" fill="#FFFFFF"/>
        </g>
        <g id="Graphic_42">
          <path d="M 286.90748 299.70556 C 286.90748 300.05012 286.44807 300.6244 285.75895 300.96894 C 285.1847 301.3135 284.61042 301.0838 284.61042 300.50953 C 284.61042 299.8204 285.1847 299.24615 285.75895 299.24615 C 286.44807 299.24615 286.90748 299.47585 286.90748 299.70556 Z" fill="#FFFFFF"/>
        </g>
        <g id="Graphic_41">
          <path d="M 148.55809 346.6399 C 153.1638 350.58114 160.87596 355.52414 163.0959 355.52414 C 163.89987 355.52414 168.60884 357.8212 173.43267 360.69253 C 178.37135 363.56385 182.73577 365.8609 183.31003 365.8609 C 183.8843 365.8609 185.26253 364.82724 186.52592 363.449 C 188.70812 361.0371 188.59327 361.0371 186.18136 358.96973 C 184.80312 357.93605 181.70209 356.67267 179.17532 356.21326 C 170.79105 354.94988 160.10972 348.86266 147.9353 338.5259 C 134.61234 327.2703 126.57263 321.06823 119.7963 317.16322 C 117.26953 315.67013 112.216 314.0622 108.5407 313.60278 C 101.99407 312.91366 101.76437 312.91366 102.22378 315.44043 C 102.45349 317.5078 103.94658 318.4266 108.88526 320.03455 C 122.59544 324.0732 136.79736 332.9309 143.93743 341.51125 C 140.66308 341.38873 136.77502 342.0355 133.2341 341.62692 C 119.10718 340.13383 112.216 335.7694 102.33863 321.6425 C 100.04157 318.54146 97.5148 309.81263 95.79201 299.24615 C 95.3326 297.06394 91.77215 290.2876 87.7523 284.31525 C 83.61759 278.3429 78.79376 272.4854 76.95611 271.33686 C 73.51052 269.38436 73.395665 269.38436 72.70655 271.6814 C 72.13228 273.51906 73.16596 275.127 77.53037 279.032 C 86.83347 287.4163 91.19789 294.88173 94.52863 308.31954 C 96.25142 314.86616 98.77819 322.79102 100.27128 326.12176 C 103.37231 333.01294 114.51306 344.72795 119.91115 347.025 C 123.81615 348.63296 137.1391 348.9775 141.96293 347.71413 C 143.28081 347.3376 146.50334 347.266 148.5581 346.6399 Z" fill="#FFFFFF"/>
        </g>
        <g id="Graphic_40">
          <path d="M 135.30146 323.02073 C 135.30146 324.5138 134.9569 324.5138 133.57866 323.3653 C 132.65984 322.5613 132.20042 321.52764 132.54498 320.95337 C 133.46381 319.4603 135.30146 320.83852 135.30146 323.02073 Z" fill="#FFFFFF"/>
        </g>
        <g id="Graphic_39">
          <path d="M 202.7202 369.5362 C 203.40931 370.3402 204.32814 372.2927 204.78755 373.90063 C 206.51035 379.75813 212.7124 391.8177 216.158 396.1821 C 219.6036 400.6614 219.6036 400.6614 216.84712 399.97227 C 215.23918 399.6277 212.0233 398.9386 209.72623 398.59403 C 205.82123 397.79006 205.24696 397.33065 204.21329 392.96623 C 202.26078 385.38593 199.61916 380.1027 196.05872 376.6571 C 192.03886 372.86695 192.03886 372.7521 195.1399 368.8471 C 197.5518 365.74606 199.84887 365.97577 202.7202 369.5362 Z" fill="#FFFFFF"/>
        </g>
        <g id="Graphic_38">
          <path d="M 175.84458 399.74256 C 176.41885 402.95845 176.304 403.64757 175.50002 402.03962 C 174.5812 399.8574 173.89208 393.65535 174.8109 394.68903 C 175.04061 394.91874 175.50002 397.2158 175.84458 399.74256 Z" fill="#FFFFFF"/>
        </g>
        <g id="Graphic_37">
          <path d="M 215.81344 402.1545 C 217.76595 403.0733 219.14418 404.22183 218.79962 404.45154 C 218.45506 404.7961 216.27286 403.99213 213.7461 402.72874 C 211.33417 401.46536 210.0708 400.4317 210.87476 400.31683 C 211.67873 400.31683 213.9758 401.1208 215.81344 402.1545 Z" fill="#FFFFFF"/>
        </g>
        <g id="Graphic_36">
          <path d="M 244.3803 90.50661 L 244.90222 91.63743 C 245.12426 92.11853 244.91426 92.68855 244.43315 92.91059 C 244.24875 92.9957 244.0421 93.0201 243.84294 92.98027 L 243.13465 92.83861 C 242.5931 92.7303 242.24188 92.20347 242.3502 91.66191 C 242.3601 91.61241 242.37372 91.56373 242.39098 91.51629 L 242.73307 90.57553 C 242.90132 90.11283 243.41282 89.87413 243.87553 90.04238 C 244.09896 90.12363 244.28067 90.29075 244.3803 90.50661 Z" fill="#FFFFFF"/>
        </g>
        <g id="Graphic_35">
          <path d="M 217.64397 102.89213 L 219.28207 100.29848 C 219.55724 99.8628 220.1335 99.73267 220.56918 100.00784 C 220.71308 100.09872 220.82937 100.22723 220.90548 100.37945 L 221.25626 101.081 C 221.47937 101.52721 221.33946 102.06962 220.92836 102.35225 L 218.68573 103.89406 C 218.34996 104.1249 217.89064 104.03984 217.6598 103.70407 C 217.49264 103.46094 217.48642 103.1416 217.64397 102.89213 Z" fill="#FFFFFF"/>
        </g>
        <g id="Graphic_34">
          <path d="M 209.19525 83.14608 L 210.0861 82.69973 C 210.57986 82.45233 211.1807 82.65205 211.4281 83.14582 C 211.42823 83.14607 211.42835 83.14632 211.42848 83.14657 L 211.7208 83.73123 C 211.91306 84.11573 211.7572 84.58328 211.3727 84.77553 C 211.21066 84.85656 211.02542 84.87852 210.84892 84.83762 L 209.3553 84.49156 C 208.96782 84.40179 208.72648 84.01489 208.81626 83.62741 C 208.86465 83.41855 209.00357 83.24211 209.19525 83.14608 Z" fill="#FFFFFF"/>
        </g>
        <g id="Graphic_33">
          <path d="M 221.79078 83.43379 L 221.00627 83.80771 C 220.50772 84.04533 220.2962 84.64212 220.53382 85.14067 C 220.53653 85.14635 220.5393 85.152 220.5421 85.15763 L 220.82629 85.726 C 221.01418 86.10178 221.47113 86.2541 221.8469 86.06621 C 222.00939 85.98497 222.13743 85.84827 222.20788 85.68083 L 222.76292 84.36174 C 222.91693 83.99571 222.74506 83.57413 222.37903 83.42011 C 222.18997 83.34056 221.97594 83.34554 221.79078 83.43379 Z" fill="#FFFFFF"/>
        </g>
        <g id="Graphic_32">
          <path d="M 158.04222 93.05057 L 164.6717 89.28068 C 164.6717 89.28068 181.91054 86.83172 190.125 87.30057 C 198.33946 87.76943 212.5213 90.3067 215.10305 90.81075 C 217.6848 91.3148 229.57327 92.99246 235.6875 94.17557 C 241.80173 95.35869 231.75 97.55057 231.75 97.55057 L 216 94.05057 C 216 94.05057 198.63294 89.67453 187.3125 89.55057 C 175.99206 89.42662 158.04222 93.05057 158.04222 93.05057 Z" fill="#FFFFFF"/>
        </g>
        <g id="Graphic_31">
          <path d="M 145.1391 104.52178 L 145.73177 104.03673 C 146.15916 103.68694 146.78919 103.74985 147.13898 104.17724 C 147.25395 104.31771 147.32851 104.48683 147.35468 104.66645 L 147.62718 106.53726 C 147.69408 106.99654 147.37599 107.4231 146.91671 107.48999 C 146.64019 107.53027 146.36173 107.43046 146.17375 107.22369 L 145.03251 105.96832 C 144.661 105.55966 144.69112 104.92721 145.09978 104.55571 C 145.11259 104.54406 145.1257 104.53275 145.1391 104.52178 Z" fill="#FFFFFF"/>
        </g>
        <g id="Graphic_30">
          <path d="M 117.60735 123.44757 L 119.67291 122.65673 C 120.18869 122.45926 120.76689 122.7173 120.96436 123.23307 C 121.07056 123.51043 121.04797 123.82065 120.90271 124.0797 L 119.09354 127.30626 C 118.82343 127.78798 118.21395 127.95953 117.73223 127.68942 C 117.4492 127.53073 117.26076 127.24457 117.2268 126.92187 L 116.9704 124.48615 C 116.92298 124.03565 117.18431 123.60954 117.60735 123.44757 Z" fill="#FFFFFF"/>
        </g>
        <g id="Graphic_29">
          <path d="M 136.0798 104.12513 L 136.24418 103.9906 C 136.64145 103.66547 136.69992 103.07984 136.37479 102.68257 C 136.26265 102.54555 136.1137 102.44341 135.94549 102.38816 L 135.84939 102.3566 C 135.32468 102.18428 134.75962 102.46995 134.5873 102.99467 C 134.54028 103.13783 134.52623 103.28978 134.54619 103.43914 L 134.55754 103.5241 C 134.62609 104.03706 135.09749 104.39732 135.61044 104.32877 C 135.78276 104.30574 135.94527 104.23524 136.0798 104.12513 Z" fill="#FFFFFF"/>
        </g>
        <g id="Graphic_28">
          <path d="M 104.28469 100.18338 L 106.79339 100.85237 C 107.32702 100.99467 107.64426 101.54263 107.50196 102.07626 C 107.47196 102.18876 107.42255 102.29515 107.35595 102.39064 L 105.66122 104.82066 C 105.3453 105.27366 104.72196 105.38478 104.26896 105.06885 C 104.0742 104.93302 103.93412 104.73232 103.8738 104.50266 L 103.05983 101.40365 C 102.91953 100.86949 103.23882 100.32272 103.77299 100.18242 C 103.94075 100.13836 104.11709 100.13869 104.28469 100.18338 Z" fill="#FFFFFF"/>
        </g>
        <g id="Graphic_27">
          <path d="M 87.69708 123.76549 L 90.57902 123.47622 C 91.12855 123.42106 91.52931 122.93087 91.47415 122.38135 C 91.46123 122.2526 91.42344 122.12759 91.36289 122.01324 L 90.01231 119.46278 C 89.75386 118.9747 89.14867 118.78856 88.6606 119.04702 C 88.48575 119.1396 88.3423 119.28197 88.2484 119.45611 L 86.71703 122.29585 C 86.45489 122.78195 86.63645 123.38853 87.12256 123.65067 C 87.29831 123.74544 87.49841 123.78543 87.69708 123.76549 Z" fill="#FFFFFF"/>
        </g>
        <g id="Graphic_26">
          <path d="M 64.02934 145.83449 L 63.2149 143.86287 C 63.00404 143.35242 63.246905 142.76769 63.75735 142.55683 C 63.81569 142.53273 63.87618 142.51421 63.938014 142.50151 L 66.04947 142.06798 C 66.59047 141.9569 67.119085 142.30541 67.23017 142.8464 C 67.27738 143.07635 67.2422 143.31557 67.13078 143.52219 L 65.833764 145.92735 C 65.57162 146.41345 64.96505 146.59501 64.47894 146.33287 C 64.27613 146.2235 64.11731 146.04746 64.02934 145.83449 Z" fill="#FFFFFF"/>
        </g>
        <g id="Graphic_25">
          <path d="M 74.38396 147.83698 L 75.0601 147.90626 C 75.60951 147.96256 76.10053 147.56282 76.15683 147.01341 C 76.17805 146.80632 76.13411 146.59778 76.03115 146.41685 L 75.64085 145.73104 C 75.36768 145.25105 74.757115 145.08338 74.27712 145.35655 C 74.096265 145.45947 73.952025 145.61626 73.8645 145.80504 L 73.57866 146.42157 C 73.34636 146.92262 73.56423 147.51713 74.06528 147.74943 C 74.16592 147.79608 74.273616 147.82567 74.38396 147.83698 Z" fill="#FFFFFF"/>
        </g>
        <g id="Graphic_24">
          <path d="M 119.8772 100.27398 L 121.42435 99.5004 C 121.91833 99.25341 122.519 99.45364 122.76599 99.94761 C 122.8687 100.15304 122.89757 100.38756 122.84775 100.61176 L 122.33203 102.93249 C 122.21222 103.47162 121.67805 103.81155 121.13891 103.69174 C 120.8872 103.63581 120.66682 103.4848 120.52379 103.27026 L 119.49236 101.7231 C 119.186 101.26357 119.31018 100.6427 119.76971 100.33635 C 119.80421 100.31335 119.8401 100.29252 119.8772 100.27398 Z" fill="#FFFFFF"/>
        </g>
        <g id="Graphic_23">
          <path d="M 134.59805 87.41313 L 136.3191 86.1932 C 136.7347 85.89862 137.31041 85.99671 137.605 86.41231 C 137.72586 86.58283 137.78523 86.78935 137.77338 86.99803 L 137.7183 87.96745 C 137.68821 88.49684 137.25015 88.91072 136.7199 88.91072 L 135.07498 88.91072 C 134.61949 88.91072 134.25024 88.54147 134.25024 88.08598 C 134.25024 87.81857 134.37989 87.56776 134.59805 87.41313 Z" fill="#FFFFFF"/>
        </g>
        <g id="Graphic_22">
          <path d="M 222.01536 327.90426 L 223.07913 326.8405 C 223.33593 326.5837 223.43332 326.20786 223.33355 325.85866 L 222.75528 323.8347 C 222.66 323.50122 222.3124 323.3081 221.9789 323.4034 C 221.749 323.4691 221.57633 323.65964 221.53356 323.8949 L 220.9099 327.32505 C 220.8453 327.6803 221.08092 328.0206 221.43615 328.0852 C 221.6472 328.12357 221.86367 328.05595 222.01536 327.90426 Z" fill="#FFFFFF"/>
        </g>
        <g id="Graphic_21">
          <path d="M 241.83342 307.62953 L 242.8972 306.56575 C 243.154 306.30896 243.25138 305.93312 243.1516 305.58393 L 242.57334 303.55998 C 242.47806 303.2265 242.13047 303.03338 241.79697 303.12866 C 241.56706 303.19435 241.3944 303.3849 241.35162 303.62016 L 240.72796 307.0503 C 240.66337 307.40554 240.89898 307.74587 241.2542 307.81046 C 241.46527 307.84883 241.68173 307.7812 241.83342 307.62953 Z" fill="#FFFFFF"/>
        </g>
        <g id="Graphic_20">
          <path d="M 274.18583 286.90192 L 275.2496 285.83815 C 275.5064 285.58135 275.6038 285.2055 275.50402 284.85632 L 274.92575 282.83237 C 274.83047 282.49888 274.48287 282.30577 274.14938 282.40105 C 273.91947 282.46674 273.7468 282.6573 273.70403 282.89255 L 273.08037 286.3227 C 273.01578 286.67794 273.2514 287.01826 273.60662 287.08285 C 273.81768 287.12123 274.03414 287.0536 274.18583 286.90192 Z" fill="#FFFFFF"/>
        </g>
        <g id="Graphic_19">
          <path d="M 262.29692 304.30565 L 263.4606 303.41758 C 263.89964 303.08252 264.52717 303.16682 264.86223 303.60586 C 264.92914 303.69354 264.98108 303.79168 265.01596 303.8963 L 265.46 305.2284 C 265.63464 305.75235 265.35148 306.31867 264.82753 306.4933 C 264.6392 306.5561 264.43644 306.5614 264.2451 306.50855 L 262.63736 306.0645 C 262.105 305.9175 261.79264 305.36673 261.93967 304.83438 C 261.99782 304.62385 262.1233 304.43815 262.29692 304.30565 Z" fill="#FFFFFF"/>
        </g>
        <g id="Graphic_18">
          <path d="M 301.59526 263.20427 L 302.31416 262.0733 C 302.5653 261.6782 302.5087 261.16175 302.17797 260.8304 L 300.4854 259.13472 C 300.15475 258.8035 299.6182 258.803 299.28697 259.13363 C 299.07154 259.34866 298.988 259.6627 299.06808 259.95635 L 299.8833 262.94556 C 300.02086 263.4499 300.5412 263.74722 301.0455 263.60968 C 301.27284 263.54768 301.46886 263.40312 301.59526 263.20427 Z" fill="#FFFFFF"/>
        </g>
        <g id="Graphic_17">
          <path d="M 296.3123 284.74702 L 297.53603 283.59725 C 297.93852 283.21908 298.57138 283.2388 298.94955 283.6413 C 298.992 283.68647 299.03016 283.7355 299.06353 283.78774 L 300.71668 286.37594 C 301.01397 286.8414 300.87765 287.4597 300.4122 287.757 C 300.11567 287.9464 299.7414 287.966 299.4267 287.80866 L 296.54985 286.37023 C 296.05587 286.12324 295.85564 285.52257 296.10263 285.0286 C 296.15538 284.9231 296.22636 284.82778 296.3123 284.74702 Z" fill="#FFFFFF"/>
        </g>
        <g id="Graphic_16">
          <path d="M 273.89538 321.95085 L 274.76846 320.99503 C 275.14093 320.58725 275.77345 320.55863 276.18123 320.9311 C 276.21614 320.963 276.24875 320.99733 276.2788 321.03384 L 276.81644 321.68684 C 277.16748 322.1132 277.1064 322.74343 276.68004 323.09446 C 276.5307 323.21743 276.3489 323.29443 276.15665 323.31614 L 274.67675 323.48327 C 274.1726 323.5402 273.71774 323.17766 273.6608 322.6735 C 273.63105 322.41006 273.71657 322.1466 273.89538 321.95085 Z" fill="#FFFFFF"/>
        </g>
        <g id="Graphic_15">
          <path d="M 239.55684 343.87565 L 240.44184 342.10566 C 240.68883 341.61168 240.4886 341.011 239.99463 340.764 C 239.82556 340.6795 239.636 340.6446 239.4479 340.6634 L 236.49792 340.9584 C 235.94838 341.01336 235.54743 341.5034 235.6024 342.05294 C 235.63104 342.3395 235.78185 342.5998 236.0162 342.76717 L 238.08118 344.24217 C 238.5306 344.56318 239.15514 344.4591 239.47615 344.00967 C 239.5065 343.96717 239.5335 343.92236 239.55684 343.87565 Z" fill="#FFFFFF"/>
        </g>
        <g id="Graphic_14">
          <path d="M 156.68924 340.78115 L 156.45954 338.96587 C 156.40752 338.5548 156.03213 338.26375 155.62107 338.31576 C 155.37915 338.34637 155.1672 338.49265 155.05277 338.70797 L 154.40042 339.93545 C 154.14588 340.4144 154.31955 341.00896 154.79189 341.2756 L 155.42273 341.6317 C 155.83329 341.86344 156.35398 341.7185 156.58573 341.30793 C 156.676 341.14804 156.71229 340.9633 156.68924 340.78115 Z" fill="#FFFFFF"/>
        </g>
        <g id="Graphic_13">
          <path d="M 176.83112 351.63435 L 176.63026 350.22834 C 176.57044 349.8096 176.18249 349.51863 175.76374 349.57845 C 175.53543 349.61107 175.33396 349.74483 175.2153 349.9426 L 174.66102 350.8664 C 174.37687 351.34 174.53044 351.95425 175.00402 352.2384 C 175.02596 352.25157 175.0484 352.2639 175.0713 352.27533 L 175.58526 352.5323 C 176.01349 352.74642 176.5342 352.57285 176.7483 352.14463 C 176.82717 351.9869 176.85605 351.8089 176.83112 351.63435 Z" fill="#FFFFFF"/>
        </g>
        <g id="Graphic_12">
          <path d="M 158.26158 356.89074 L 157.13673 358.59844 C 156.88772 358.97648 156.3794 359.08107 156.00138 358.83207 C 155.7546 358.6695 155.61442 358.3867 155.6345 358.09187 L 155.78325 355.9083 C 155.82078 355.3573 156.29789 354.94104 156.8489 354.97857 C 156.9978 354.9887 157.14254 355.03206 157.2725 355.10542 L 157.91804 355.4698 C 158.399 355.7413 158.5688 356.3513 158.2973 356.83223 C 158.28607 356.85213 158.27416 356.87165 158.26158 356.89074 Z" fill="#FFFFFF"/>
        </g>
        <g id="Graphic_11">
          <path d="M 130.09222 350.84173 L 128.99039 350.84173 C 128.4381 350.84173 127.99039 351.28944 127.99039 351.84173 C 127.99039 352.00904 128.03237 352.1737 128.11249 352.32058 L 129.7886 355.39345 C 130.01256 355.80404 130.52696 355.95533 130.93754 355.73138 C 131.23391 355.5697 131.40596 355.2475 131.3754 354.91128 L 131.08811 351.7512 C 131.04129 351.2361 130.60942 350.84173 130.09222 350.84173 Z" fill="#FFFFFF"/>
        </g>
        <g id="Graphic_10">
          <path d="M 101.16779 333.09865 L 100.07372 331.60386 C 99.78043 331.20314 99.21783 331.11606 98.81712 331.40935 C 98.58577 331.5787 98.44904 331.8482 98.44904 332.1349 L 98.44904 334.58567 C 98.44904 335.12188 98.88372 335.55656 99.41993 335.55656 C 99.66178 335.55656 99.89492 335.4663 100.07372 335.30345 L 101.03423 334.42857 C 101.41198 334.0845 101.46958 333.51098 101.16779 333.09865 Z" fill="#FFFFFF"/>
        </g>
        <g id="Graphic_9">
          <path d="M 90.02611 282.851 L 88.97495 281.41483 C 88.68045 281.01247 88.76789 280.44755 89.17025 280.15306 C 89.40194 279.98348 89.70046 279.9342 89.97435 280.02035 L 92.05266 280.674 C 92.57951 280.83968 92.87228 281.4011 92.70658 281.92794 C 92.6396 282.1409 92.50327 282.32535 92.31932 282.45187 L 91.39972 283.08432 C 90.95409 283.3908 90.34554 283.28743 90.02611 282.851 Z" fill="#FFFFFF"/>
        </g>
        <g id="Graphic_8">
          <path d="M 64.316336 204.52496 L 65.29369 205.30685 C 65.708685 205.63884 66.31424 205.57156 66.64623 205.15657 C 66.808514 204.9537 66.881885 204.69386 66.84966 204.43608 L 66.65718 202.8962 C 66.588674 202.34817 66.088884 201.95944 65.540864 202.02795 C 65.320206 202.05553 65.115036 202.15587 64.95779 202.31312 L 64.23392 203.03699 C 63.8434 203.4275 63.8434 204.06068 64.23392 204.4512 C 64.26001 204.4773 64.287525 204.50191 64.316336 204.52496 Z" fill="#FFFFFF"/>
        </g>
        <g id="Graphic_7">
          <path d="M 55.012196 174.85897 L 54.95101 174.2039 C 54.89965 173.65402 55.30379 173.1666 55.85368 173.11524 C 56.02119 173.0996 56.18994 173.12647 56.34431 173.19336 L 56.817126 173.39827 C 57.32387 173.61787 57.55665 174.2067 57.33704 174.71344 C 57.287 174.82892 57.2156 174.93392 57.126604 175.02292 L 56.68666 175.46286 C 56.302626 175.8469 55.67999 175.8469 55.29596 175.46286 C 55.13388 175.30079 55.03351 175.08718 55.012196 174.85897 Z" fill="#FFFFFF"/>
        </g>
        <g id="Graphic_6">
          <path d="M 40.43514 228.97506 L 39.82493 228.66995 C 39.330953 228.42296 39.13073 227.8223 39.37772 227.3283 C 39.433354 227.21704 39.509263 227.11713 39.60155 227.0337 L 41.087624 225.6903 C 41.42592 225.3845 41.94808 225.41083 42.253897 225.74912 C 42.451933 225.9682 42.5179 226.27635 42.426904 226.5573 L 41.8337 228.38876 C 41.66352 228.91418 41.099633 229.20215 40.57422 229.03197 C 40.5265 229.01652 40.48001 228.9975 40.43514 228.97506 Z" fill="#FFFFFF"/>
        </g>
        <g id="Graphic_5">
          <path d="M 73.01203 262.56248 L 74.40566 262.56248 C 74.95795 262.56248 75.40566 262.11477 75.40566 261.56248 C 75.40566 261.32945 75.32427 261.10373 75.17556 260.92432 L 73.49562 258.8976 C 73.16494 258.49867 72.57347 258.44334 72.17453 258.77402 C 71.93781 258.97023 71.81225 259.27 71.83846 259.57633 L 72.01567 261.64772 C 72.05993 262.16508 72.49279 262.56248 73.01203 262.56248 Z" fill="#FFFFFF"/>
        </g>
        <g id="Graphic_4">
          <path d="M 58.56884 282.10473 L 59.23338 282.76926 C 59.57191 283.1078 60.12078 283.1078 60.459314 282.76926 C 60.62188 282.6067 60.713214 282.3862 60.713214 282.1563 L 60.713214 280.91947 C 60.713214 280.40866 60.29912 279.99457 59.788316 279.99457 C 59.588196 279.99457 59.393474 280.05947 59.23338 280.17955 L 58.67595 280.59762 C 58.23412 280.929 58.14458 281.5558 58.47595 281.99762 C 58.50434 282.03547 58.53538 282.07127 58.56884 282.10473 Z" fill="#FFFFFF"/>
        </g>
      </g>
    </g>
  </g>
</svg>
