<?xml version="1.0" encoding="UTF-8" standalone="no"?>
<!DOCTYPE svg PUBLIC "-//W3C//DTD SVG 1.1//EN" "http://www.w3.org/Graphics/SVG/1.1/DTD/svg11.dtd">
<svg xmlns="http://www.w3.org/2000/svg" xmlns:xl="http://www.w3.org/1999/xlink" version="1.1" xmlns:dc="http://purl.org/dc/elements/1.1/" viewBox="33.75 60.75 297 297" width="297" height="297">
  <defs>
    <clipPath id="artboard_clip_path">
      <path d="M 33.75 60.75 L 330.75 60.75 L 330.75 346.5 L 313.875 357.75 L 33.75 357.75 Z"/>
    </clipPath>
  </defs>
  <g id="Wreath" stroke-opacity="1" fill="none" fill-opacity="1" stroke-dasharray="none" stroke="none">
    <title>Wreath</title>
    <g id="Wreath_Art" clip-path="url(#artboard_clip_path)">
      <title>Art</title>
      <g id="Group_113">
        <g id="Graphic_199">
          <path d="M 300.86785 291.32372 C 257.5523 287.46882 245.07244 284.08495 227.652 315.706 C 260.549 330.58994 268.42432 320.40675 300.86785 291.32372 Z" fill="#FFFFFF"/>
          <path d="M 300.86785 291.32372 C 257.5523 287.46882 245.07244 284.08495 227.652 315.706 C 260.549 330.58994 268.42432 320.40675 300.86785 291.32372 Z" stroke="black" stroke-linecap="round" stroke-linejoin="miter" stroke-width="2"/>
        </g>
        <g id="Graphic_198">
          <path d="M 228.1322 314.82992 L 239.1279 311.16932 L 292.4608 293.4209 M 239.1279 311.16932 C 245.29945 311.5568 254.56462 313.6844 265.4558 311.31406 M 259.2189 304.48892 C 265.77893 304.75596 271.40436 305.3815 276.8517 304.8198 M 279.68625 297.66867 C 283.41673 297.61988 285.3005 297.77777 289.1182 297.18413 M 239.072 310.994 C 243.77976 306.98157 249.91606 299.71536 260.05835 295.0933 M 259.163 304.3136 C 264.24242 300.17767 268.37987 296.30256 273.07786 293.47837 M 279.63033 297.49336 C 282.6492 295.29733 284.05482 294.0368 287.46964 292.22508" fill="#FFFFFF"/>
          <path d="M 228.1322 314.82992 L 239.1279 311.16932 L 292.4608 293.4209 M 239.1279 311.16932 C 245.29945 311.5568 254.56462 313.6844 265.4558 311.31406 M 259.2189 304.48892 C 265.77893 304.75596 271.40436 305.3815 276.8517 304.8198 M 279.68625 297.66867 C 283.41673 297.61988 285.3005 297.77777 289.1182 297.18413 M 239.072 310.994 C 243.77976 306.98157 249.91606 299.71536 260.05835 295.0933 M 259.163 304.3136 C 264.24242 300.17767 268.37987 296.30256 273.07786 293.47837 M 279.63033 297.49336 C 282.6492 295.29733 284.05482 294.0368 287.46964 292.22508" stroke="black" stroke-linecap="round" stroke-linejoin="miter" stroke-width="1"/>
        </g>
        <g id="Graphic_197">
          <path d="M 267.16108 323.22796 C 226.50238 307.78106 215.44457 301.11235 190.07967 326.90596 C 217.63912 350.0423 228.18657 342.48896 267.16108 323.22796 Z" fill="#FFFFFF"/>
          <path d="M 267.16108 323.22796 C 226.50238 307.78106 215.44457 301.11235 190.07967 326.90596 C 217.63912 350.0423 228.18657 342.48896 267.16108 323.22796 Z" stroke="black" stroke-linecap="round" stroke-linejoin="miter" stroke-width="2"/>
        </g>
        <g id="Graphic_196">
          <path d="M 190.07967 326.90256 L 201.66484 326.35817 L 257.78746 323.67028 M 201.66484 326.35817 C 207.51698 328.3996 215.85286 332.95883 226.9753 333.6155 M 222.81077 325.33745 C 229.05418 327.3619 234.29388 329.4884 239.6986 330.42234 M 244.34797 324.31673 C 247.96132 325.2813 249.72887 325.94308 253.55998 326.4024 M 201.64783 326.15403 C 207.2618 323.5682 215.13836 318.22643 226.15023 316.51843 M 222.79376 325.15032 C 228.816 322.53047 233.83455 319.92763 239.11678 318.4816 M 244.34797 324.1296 C 247.85245 322.82308 249.55365 322.0031 253.3167 321.1797" fill="#FFFFFF"/>
          <path d="M 190.07967 326.90256 L 201.66484 326.35817 L 257.78746 323.67028 M 201.66484 326.35817 C 207.51698 328.3996 215.85286 332.95883 226.9753 333.6155 M 222.81077 325.33745 C 229.05418 327.3619 234.29388 329.4884 239.6986 330.42234 M 244.34797 324.31673 C 247.96132 325.2813 249.72887 325.94308 253.55998 326.4024 M 201.64783 326.15403 C 207.2618 323.5682 215.13836 318.22643 226.15023 316.51843 M 222.79376 325.15032 C 228.816 322.53047 233.83455 319.92763 239.11678 318.4816 M 244.34797 324.1296 C 247.85245 322.82308 249.55365 322.0031 253.3167 321.1797" stroke="black" stroke-linecap="round" stroke-linejoin="miter" stroke-width="1"/>
        </g>
        <g id="Graphic_195">
          <path d="M 255.04853 270.4397 C 214.90019 287.24757 202.3113 290.0035 201.64783 326.15233 C 237.7133 323.9748 239.92485 311.28383 255.04853 270.4397 Z" fill="#FFFFFF"/>
          <path d="M 255.04853 270.4397 C 214.90019 287.24757 202.3113 290.0035 201.64783 326.15233 C 237.7133 323.9748 239.92485 311.28383 255.04853 270.4397 Z" stroke="black" stroke-linecap="round" stroke-linejoin="miter" stroke-width="2"/>
        </g>
        <g id="Graphic_194">
          <path d="M 202.76917 325.78432 L 210.70127 317.3164 L 249.1313 276.30513 M 210.70127 317.3164 C 216.31436 314.7139 225.48396 312.17553 233.92083 304.90357 M 225.18065 301.87705 C 231.0721 298.98272 236.31785 296.8589 240.8378 293.77307 M 239.92672 286.12485 C 243.19294 284.3006 244.91588 283.5381 247.98816 281.2052 M 210.56118 317.18773 C 212.78685 311.4194 214.73456 302.10265 221.43814 293.20987 M 225.04525 301.73204 C 227.54157 295.6679 229.3278 290.29034 232.1154 285.5804 M 239.78664 285.9962 C 241.39312 282.62178 242.03766 280.84924 244.17304 277.63003" fill="#FFFFFF"/>
          <path d="M 202.76917 325.78432 L 210.70127 317.3164 L 249.1313 276.30513 M 210.70127 317.3164 C 216.31436 314.7139 225.48396 312.17553 233.92083 304.90357 M 225.18065 301.87705 C 231.0721 298.98272 236.31785 296.8589 240.8378 293.77307 M 239.92672 286.12485 C 243.19294 284.3006 244.91588 283.5381 247.98816 281.2052 M 210.56118 317.18773 C 212.78685 311.4194 214.73456 302.10265 221.43814 293.20987 M 225.04525 301.73204 C 227.54157 295.6679 229.3278 290.29034 232.1154 285.5804 M 239.78664 285.9962 C 241.39312 282.62178 242.03766 280.84924 244.17304 277.63003" stroke="black" stroke-linecap="round" stroke-linejoin="miter" stroke-width="1"/>
        </g>
        <g id="Graphic_193">
          <path d="M 293.9388 259.044 L 292.20617 247.5713 L 283.83 192.0056 M 292.20617 247.5713 C 293.64412 241.54545 297.32812 232.79886 296.8494 221.655 M 289.04185 226.64508 C 290.42535 220.23178 291.9967 214.78846 292.38202 209.32802 M 285.83756 205.3122 C 286.42864 201.6215 286.90143 199.80277 286.97156 195.9379 M 292.004 247.5997 C 288.85 242.27076 282.75804 234.984 279.92578 224.20697 M 288.85654 226.67113 C 285.64806 220.95472 282.52637 216.2225 280.5594 211.11327 M 285.6354 205.3406 C 283.97985 201.98283 282.98095 200.38812 281.78803 196.71622" fill="#FFFFFF"/>
          <path d="M 293.9388 259.044 L 292.20617 247.5713 L 283.83 192.0056 M 292.20617 247.5713 C 293.64412 241.54545 297.32812 232.79886 296.8494 221.655 M 289.04185 226.64508 C 290.42535 220.23178 291.9967 214.78846 292.38202 209.32802 M 285.83756 205.3122 C 286.42864 201.6215 286.90143 199.80277 286.97156 195.9379 M 292.004 247.5997 C 288.85 242.27076 282.75804 234.984 279.92578 224.20697 M 288.85654 226.67113 C 285.64806 220.95472 282.52637 216.2225 280.5594 211.11327 M 285.6354 205.3406 C 283.97985 201.98283 282.98095 200.38812 281.78803 196.71622" stroke="black" stroke-linecap="round" stroke-linejoin="miter" stroke-width="1"/>
        </g>
        <g id="Graphic_192">
          <path d="M 273.76174 244.03706 C 240.07796 271.59652 228.85003 277.89096 238.5605 312.71114 C 272.4144 300.29237 271.05343 287.53337 273.76174 244.03706 Z" fill="#FFFFFF"/>
          <path d="M 273.76174 244.03706 C 240.07796 271.59652 228.85003 277.89096 238.5605 312.71114 C 272.4144 300.29237 271.05343 287.53337 273.76174 244.03706 Z" stroke="black" stroke-linecap="round" stroke-linejoin="miter" stroke-width="2"/>
        </g>
        <g id="Graphic_191">
          <path d="M 238.54688 312.71454 L 243.8376 302.38825 L 269.4747 252.37295 M 243.8376 302.38825 C 248.51592 298.3394 256.63064 293.3719 262.73625 284.0561 M 253.50043 283.55596 C 258.36587 279.14985 262.823 275.6624 266.31728 271.4502 M 263.33338 264.3494 C 265.97024 261.69553 267.41626 260.48768 269.7265 257.3983 M 243.6675 302.3032 C 244.21698 296.14485 243.5212 286.65214 247.5139 276.2561 M 253.3303 283.4539 C 254.05843 276.9366 254.2932 271.275 255.67457 265.97915 M 263.16326 264.26434 C 263.7774 260.57784 263.90838 258.6963 265.0737 255.0132" fill="#FFFFFF"/>
          <path d="M 238.54688 312.71454 L 243.8376 302.38825 L 269.4747 252.37295 M 243.8376 302.38825 C 248.51592 298.3394 256.63064 293.3719 262.73625 284.0561 M 253.50043 283.55596 C 258.36587 279.14985 262.823 275.6624 266.31728 271.4502 M 263.33338 264.3494 C 265.97024 261.69553 267.41626 260.48768 269.7265 257.3983 M 243.6675 302.3032 C 244.21698 296.14485 243.5212 286.65214 247.5139 276.2561 M 253.3303 283.4539 C 254.05843 276.9366 254.2932 271.275 255.67457 265.97915 M 263.16326 264.26434 C 263.7774 260.57784 263.90838 258.6963 265.0737 255.0132" stroke="black" stroke-linecap="round" stroke-linejoin="miter" stroke-width="1"/>
        </g>
        <g id="Graphic_190">
          <path d="M 321.9093 248.01148 C 280.77064 262.10787 267.99338 264.09257 264.94045 300.0654 C 301.04722 300.2821 304.0998 287.7761 321.9093 248.01148 Z" fill="#FFFFFF"/>
          <path d="M 321.9093 248.01148 C 280.77064 262.10787 267.99338 264.09257 264.94045 300.0654 C 301.04722 300.2821 304.0998 287.7761 321.9093 248.01148 Z" stroke="black" stroke-linecap="round" stroke-linejoin="miter" stroke-width="2"/>
        </g>
        <g id="Graphic_189">
          <path d="M 264.94045 300.0654 L 273.49663 292.2489 L 314.9997 254.34247 M 273.49663 292.2489 C 279.2922 290.0927 288.62173 288.26785 297.60722 281.6726 M 289.1335 277.9743 C 295.235 275.55006 300.6285 273.83345 305.37643 271.10467 M 305.0573 263.41888 C 308.44542 261.857 310.23055 261.23503 313.47673 259.13992 M 273.37424 292.1115 C 276.043 286.53112 278.69334 277.39725 286.07882 269.04954 M 289.0111 277.8369 C 291.96916 271.99254 294.17277 266.7696 297.3159 262.27872 M 304.9349 263.28147 C 306.7996 260.0474 307.57097 258.32415 309.95368 255.28012" fill="#FFFFFF"/>
          <path d="M 264.94045 300.0654 L 273.49663 292.2489 L 314.9997 254.34247 M 273.49663 292.2489 C 279.2922 290.0927 288.62173 288.26785 297.60722 281.6726 M 289.1335 277.9743 C 295.235 275.55006 300.6285 273.83345 305.37643 271.10467 M 305.0573 263.41888 C 308.44542 261.857 310.23055 261.23503 313.47673 259.13992 M 273.37424 292.1115 C 276.043 286.53112 278.69334 277.39725 286.07882 269.04954 M 289.0111 277.8369 C 291.96916 271.99254 294.17277 266.7696 297.3159 262.27872 M 304.9349 263.28147 C 306.7996 260.0474 307.57097 258.32415 309.95368 255.28012" stroke="black" stroke-linecap="round" stroke-linejoin="miter" stroke-width="1"/>
        </g>
        <g id="Graphic_188">
          <path d="M 278.89248 215.12904 C 258.7159 253.6974 250.87366 263.90453 273.3745 292.10114 C 299.79883 267.42883 293.40082 256.13078 278.89248 215.12904 Z" fill="#FFFFFF"/>
          <path d="M 278.89248 215.12904 C 258.7159 253.6974 250.87366 263.90453 273.3745 292.10114 C 299.79883 267.42883 293.40082 256.13078 278.89248 215.12904 Z" stroke="black" stroke-linecap="round" stroke-linejoin="miter" stroke-width="2"/>
        </g>
        <g id="Graphic_187">
          <path d="M 273.37424 292.1115 L 274.20645 280.5532 L 278.21443 224.48392 M 274.20645 280.5532 C 276.93047 274.9994 282.4551 267.24822 284.42273 256.28795 M 275.722 259.4331 C 278.4758 253.48003 281.2153 248.52535 282.78093 243.27353 M 277.2673 237.91373 C 278.65135 234.43799 279.51644 232.77028 280.42958 229.01198 M 274.01404 280.5287 C 272.11016 274.6461 267.75526 266.18754 267.3624 255.05566 M 275.52957 259.4086 C 273.6538 253.12696 271.65115 247.82518 270.8505 242.40944 M 277.05804 237.8916 C 276.17997 234.25963 275.56378 232.47885 275.19503 228.63272" fill="#FFFFFF"/>
          <path d="M 273.37424 292.1115 L 274.20645 280.5532 L 278.21443 224.48392 M 274.20645 280.5532 C 276.93047 274.9994 282.4551 267.24822 284.42273 256.28795 M 275.722 259.4331 C 278.4758 253.48003 281.2153 248.52535 282.78093 243.27353 M 277.2673 237.91373 C 278.65135 234.43799 279.51644 232.77028 280.42958 229.01198 M 274.01404 280.5287 C 272.11016 274.6461 267.75526 266.18754 267.3624 255.05566 M 275.52957 259.4086 C 273.6538 253.12696 271.65115 247.82518 270.8505 242.40944 M 277.05804 237.8916 C 276.17997 234.25963 275.56378 232.47885 275.19503 228.63272" stroke="black" stroke-linecap="round" stroke-linejoin="miter" stroke-width="1"/>
        </g>
        <g id="Graphic_186">
          <path d="M 326.40146 199.13958 C 292.6947 226.6276 281.39052 232.86958 291.046 267.73304 C 324.86237 255.43402 323.5947 242.523 326.40146 199.13958 Z" fill="#FFFFFF"/>
          <path d="M 326.40146 199.13958 C 292.6947 226.6276 281.39052 232.86958 291.046 267.73304 C 324.86237 255.43402 323.5947 242.523 326.40146 199.13958 Z" stroke="black" stroke-linecap="round" stroke-linejoin="miter" stroke-width="2"/>
        </g>
        <g id="Graphic_185">
          <path d="M 291.04304 267.73134 L 296.3642 257.4261 L 322.0977 207.47853 M 296.3642 257.4261 C 301.0582 253.3787 309.17453 248.43924 315.30444 239.13524 M 306.05318 238.60282 C 310.9281 234.20808 315.38954 230.73362 318.90073 226.51998 M 315.9378 219.4407 C 318.57984 216.79373 320.0367 215.59387 322.35005 212.5057 M 296.1789 257.33875 C 296.74647 251.184 296.05865 241.69182 300.0854 231.30125 M 305.8826 238.52398 C 306.62488 231.99864 306.88003 226.35103 308.26885 221.05348 M 315.77575 219.34713 C 316.3965 215.6589 316.53698 213.77563 317.70544 210.10504" fill="#FFFFFF"/>
          <path d="M 291.04304 267.73134 L 296.3642 257.4261 L 322.0977 207.47853 M 296.3642 257.4261 C 301.0582 253.3787 309.17453 248.43924 315.30444 239.13524 M 306.05318 238.60282 C 310.9281 234.20808 315.38954 230.73362 318.90073 226.51998 M 315.9378 219.4407 C 318.57984 216.79373 320.0367 215.59387 322.35005 212.5057 M 296.1789 257.33875 C 296.74647 251.184 296.05865 241.69182 300.0854 231.30125 M 305.8826 238.52398 C 306.62488 231.99864 306.88003 226.35103 308.26885 221.05348 M 315.77575 219.34713 C 316.3965 215.6589 316.53698 213.77563 317.70544 210.10504" stroke="black" stroke-linecap="round" stroke-linejoin="miter" stroke-width="1"/>
        </g>
        <g id="Graphic_184">
          <path d="M 274.6292 183.23523 C 269.11107 226.40864 265.20335 238.6889 296.1774 257.3379 C 312.32434 225.01553 302.43942 216.75478 274.6292 183.23523 Z" fill="#FFFFFF"/>
          <path d="M 274.6292 183.23523 C 269.11107 226.40864 265.20335 238.6889 296.1774 257.3379 C 312.32434 225.01553 302.43942 216.75478 274.6292 183.23523 Z" stroke="black" stroke-linecap="round" stroke-linejoin="miter" stroke-width="2"/>
        </g>
        <g id="Graphic_183">
          <path d="M 296.1929 255.42667 L 292.90377 244.58137 L 276.9809 192.04445 M 292.90377 244.58137 C 293.44364 238.56226 295.7747 229.56604 293.74375 218.87784 M 286.9151 224.79305 C 287.34406 218.39596 288.10946 212.92136 287.7066 207.5909 M 280.79204 204.62634 C 280.84406 200.97252 281.04052 199.14272 280.56755 195.40453 M 292.72652 244.63703 C 288.9341 239.9372 282.0043 233.73954 277.7558 223.72596 M 286.72632 224.83676 C 282.81584 219.76353 279.13932 215.62628 276.5166 210.96803 M 280.6148 204.682 C 278.54495 201.67509 277.36035 200.2642 275.6801 196.8857" fill="#FFFFFF"/>
          <path d="M 296.1929 255.42667 L 292.90377 244.58137 L 276.9809 192.04445 M 292.90377 244.58137 C 293.44364 238.56226 295.7747 229.56604 293.74375 218.87784 M 286.9151 224.79305 C 287.34406 218.39596 288.10946 212.92136 287.7066 207.5909 M 280.79204 204.62634 C 280.84406 200.97252 281.04052 199.14272 280.56755 195.40453 M 292.72652 244.63703 C 288.9341 239.9372 282.0043 233.73954 277.7558 223.72596 M 286.72632 224.83676 C 282.81584 219.76353 279.13932 215.62628 276.5166 210.96803 M 280.6148 204.682 C 278.54495 201.67509 277.36035 200.2642 275.6801 196.8857" stroke="black" stroke-linecap="round" stroke-linejoin="miter" stroke-width="1"/>
        </g>
        <g id="Graphic_182">
          <path d="M 319.62055 162.40914 C 289.51498 193.80009 279.05577 201.37318 292.88805 234.80006 C 324.9535 218.47153 322.12183 205.81124 319.62055 162.40914 Z" fill="#FFFFFF"/>
          <path d="M 319.62055 162.40914 C 289.51498 193.80009 279.05577 201.37318 292.88805 234.80006 C 324.9535 218.47153 322.12183 205.81124 319.62055 162.40914 Z" stroke="black" stroke-linecap="round" stroke-linejoin="miter" stroke-width="2"/>
        </g>
        <g id="Graphic_181">
          <path d="M 292.88492 234.79873 L 296.9105 223.9218 L 316.36513 171.21042 M 296.9105 223.9218 C 301.07627 219.33255 308.53014 213.44076 313.4805 203.45907 M 304.2333 204.05806 C 308.5363 199.10198 312.54105 195.1097 315.51256 190.49956 M 311.70897 183.83413 C 314.00872 180.88491 315.3085 179.51645 317.22826 176.16937 M 296.71594 223.8577 C 296.52922 217.67966 294.6897 208.34205 297.42017 197.5382 M 304.0544 204.0006 C 303.9959 197.43343 303.56086 191.79683 304.29373 186.3695 M 311.5367 183.761 C 311.70336 180.02463 311.61328 178.13827 312.3257 174.35264" fill="#FFFFFF"/>
          <path d="M 292.88492 234.79873 L 296.9105 223.9218 L 316.36513 171.21042 M 296.9105 223.9218 C 301.07627 219.33255 308.53014 213.44076 313.4805 203.45907 M 304.2333 204.05806 C 308.5363 199.10198 312.54105 195.1097 315.51256 190.49956 M 311.70897 183.83413 C 314.00872 180.88491 315.3085 179.51645 317.22826 176.16937 M 296.71594 223.8577 C 296.52922 217.67966 294.6897 208.34205 297.42017 197.5382 M 304.0544 204.0006 C 303.9959 197.43343 303.56086 191.79683 304.29373 186.3695 M 311.5367 183.761 C 311.70336 180.02463 311.61328 178.13827 312.3257 174.35264" stroke="black" stroke-linecap="round" stroke-linejoin="miter" stroke-width="1"/>
        </g>
        <g id="Graphic_180">
          <path d="M 266.29594 152.93278 C 266.08046 196.45688 263.69845 209.12185 296.71437 223.85704 C 308.80184 189.80778 297.98387 182.81327 266.29594 152.93278 Z" fill="#FFFFFF"/>
          <path d="M 266.29594 152.93278 C 266.08046 196.45688 263.69845 209.12185 296.71437 223.85704 C 308.80184 189.80778 297.98387 182.81327 266.29594 152.93278 Z" stroke="black" stroke-linecap="round" stroke-linejoin="miter" stroke-width="2"/>
        </g>
        <g id="Graphic_179">
          <path d="M 296.81377 222.68105 L 292.1183 212.07083 L 269.38305 160.67141 M 292.1183 212.07083 C 291.9159 205.88708 293.1622 196.4546 289.76485 185.84704 M 283.56387 192.70986 C 283.2016 186.15586 283.2963 180.49727 282.22184 175.1309 M 274.82564 172.98115 C 274.42262 169.2618 274.39396 167.3779 273.44693 163.6383 M 291.94514 212.1495 C 287.505 207.8469 279.6899 202.41368 274.12337 192.76832 M 283.3775 192.77783 C 278.7708 188.11051 274.51866 184.3651 271.27235 179.9588 M 274.65248 173.05983 C 272.174 170.26257 270.79423 168.97669 268.66528 165.7532" fill="#FFFFFF"/>
          <path d="M 296.81377 222.68105 L 292.1183 212.07083 L 269.38305 160.67141 M 292.1183 212.07083 C 291.9159 205.88708 293.1622 196.4546 289.76485 185.84704 M 283.56387 192.70986 C 283.2016 186.15586 283.2963 180.49727 282.22184 175.1309 M 274.82564 172.98115 C 274.42262 169.2618 274.39396 167.3779 273.44693 163.6383 M 291.94514 212.1495 C 287.505 207.8469 279.6899 202.41368 274.12337 192.76832 M 283.3775 192.77783 C 278.7708 188.11051 274.51866 184.3651 271.27235 179.9588 M 274.65248 173.05983 C 272.174 170.26257 270.79423 168.97669 268.66528 165.7532" stroke="black" stroke-linecap="round" stroke-linejoin="miter" stroke-width="1"/>
        </g>
        <g id="Graphic_178">
          <path d="M 265.0469 91.45588 C 261.192 134.77143 257.80813 147.25129 289.4292 164.67174 C 304.31312 131.77471 294.12993 123.89941 265.0469 91.45588 Z" fill="#FFFFFF"/>
          <path d="M 265.0469 91.45588 C 261.192 134.77143 257.80813 147.25129 289.4292 164.67174 C 304.31312 131.77471 294.12993 123.89941 265.0469 91.45588 Z" stroke="black" stroke-linecap="round" stroke-linejoin="miter" stroke-width="2"/>
        </g>
        <g id="Graphic_177">
          <path d="M 288.5531 164.19152 L 284.8925 153.19582 L 267.14408 99.86293 M 284.8925 153.19582 C 285.27998 147.02428 287.40757 137.75911 285.03724 126.86792 M 278.2121 133.10483 C 278.47914 126.5448 279.10468 120.91937 278.54297 115.47203 M 271.39185 112.63748 C 271.34306 108.907 271.50095 107.02323 270.9073 103.20554 M 284.7172 153.25173 C 280.70475 148.54397 273.43854 142.40767 268.81647 132.26538 M 278.0368 133.16074 C 273.90086 128.08131 270.02574 123.94386 267.20155 119.24587 M 271.21654 112.6934 C 269.0205 109.67452 267.76 108.26891 265.94826 104.85408" fill="#FFFFFF"/>
          <path d="M 288.5531 164.19152 L 284.8925 153.19582 L 267.14408 99.86293 M 284.8925 153.19582 C 285.27998 147.02428 287.40757 137.75911 285.03724 126.86792 M 278.2121 133.10483 C 278.47914 126.5448 279.10468 120.91937 278.54297 115.47203 M 271.39185 112.63748 C 271.34306 108.907 271.50095 107.02323 270.9073 103.20554 M 284.7172 153.25173 C 280.70475 148.54397 273.43854 142.40767 268.81647 132.26538 M 278.0368 133.16074 C 273.90086 128.08131 270.02574 123.94386 267.20155 119.24587 M 271.21654 112.6934 C 269.0205 109.67452 267.76 108.26891 265.94826 104.85408" stroke="black" stroke-linecap="round" stroke-linejoin="miter" stroke-width="1"/>
        </g>
        <g id="Graphic_176">
          <path d="M 296.95114 125.16265 C 281.50424 165.82135 274.83553 176.87916 300.62914 202.24406 C 323.76547 174.6846 316.21214 164.13716 296.95114 125.16265 Z" fill="#FFFFFF"/>
          <path d="M 296.95114 125.16265 C 281.50424 165.82135 274.83553 176.87916 300.62914 202.24406 C 323.76547 174.6846 316.21214 164.13716 296.95114 125.16265 Z" stroke="black" stroke-linecap="round" stroke-linejoin="miter" stroke-width="2"/>
        </g>
        <g id="Graphic_175">
          <path d="M 300.62574 202.24406 L 300.08135 190.65889 L 297.39346 134.53627 M 300.08135 190.65889 C 302.1228 184.80675 306.682 176.47087 307.33868 165.34842 M 299.06063 169.51296 C 301.08506 163.26955 303.21156 158.02985 304.14552 152.62514 M 298.0399 147.97576 C 299.0045 144.3624 299.66626 142.59486 300.1256 138.76375 M 299.8772 190.6759 C 297.2914 185.06193 291.9496 177.18537 290.2416 166.1735 M 298.8735 169.52997 C 296.25365 163.50772 293.6508 158.48918 292.2048 153.20695 M 297.85278 147.97576 C 296.54626 144.47128 295.72628 142.77008 294.9029 139.00702" fill="#FFFFFF"/>
          <path d="M 300.62574 202.24406 L 300.08135 190.65889 L 297.39346 134.53627 M 300.08135 190.65889 C 302.1228 184.80675 306.682 176.47087 307.33868 165.34842 M 299.06063 169.51296 C 301.08506 163.26955 303.21156 158.02985 304.14552 152.62514 M 298.0399 147.97576 C 299.0045 144.3624 299.66626 142.59486 300.1256 138.76375 M 299.8772 190.6759 C 297.2914 185.06193 291.9496 177.18537 290.2416 166.1735 M 298.8735 169.52997 C 296.25365 163.50772 293.6508 158.48918 292.2048 153.20695 M 297.85278 147.97576 C 296.54626 144.47128 295.72628 142.77008 294.9029 139.00702" stroke="black" stroke-linecap="round" stroke-linejoin="miter" stroke-width="1"/>
        </g>
        <g id="Graphic_174">
          <path d="M 244.16288 137.2752 C 260.97075 177.42354 263.7267 190.01243 299.8755 190.6759 C 297.69797 154.61044 285.007 152.39888 244.16288 137.2752 Z" fill="#FFFFFF"/>
          <path d="M 244.16288 137.2752 C 260.97075 177.42354 263.7267 190.01243 299.8755 190.6759 C 297.69797 154.61044 285.007 152.39888 244.16288 137.2752 Z" stroke="black" stroke-linecap="round" stroke-linejoin="miter" stroke-width="2"/>
        </g>
        <g id="Graphic_173">
          <path d="M 299.5075 189.55455 L 291.03956 181.62246 L 250.0283 143.19242 M 291.03956 181.62246 C 288.43707 176.00937 285.8987 166.83977 278.62675 158.4029 M 275.60023 167.14308 C 272.7059 161.25164 270.5821 156.00588 267.49625 151.48594 M 259.84803 152.397 C 258.02378 149.13079 257.2613 147.40785 254.92838 144.33557 M 290.9109 181.76255 C 285.14258 179.53688 275.82583 177.58917 266.93306 170.88559 M 275.45522 167.27848 C 269.3911 164.78216 264.01352 162.99594 259.3036 160.20834 M 259.71938 152.53709 C 256.34496 150.93061 254.57243 150.28607 251.3532 148.1507" fill="#FFFFFF"/>
          <path d="M 299.5075 189.55455 L 291.03956 181.62246 L 250.0283 143.19242 M 291.03956 181.62246 C 288.43707 176.00937 285.8987 166.83977 278.62675 158.4029 M 275.60023 167.14308 C 272.7059 161.25164 270.5821 156.00588 267.49625 151.48594 M 259.84803 152.397 C 258.02378 149.13079 257.2613 147.40785 254.92838 144.33557 M 290.9109 181.76255 C 285.14258 179.53688 275.82583 177.58917 266.93306 170.88559 M 275.45522 167.27848 C 269.3911 164.78216 264.01352 162.99594 259.3036 160.20834 M 259.71938 152.53709 C 256.34496 150.93061 254.57243 150.28607 251.3532 148.1507" stroke="black" stroke-linecap="round" stroke-linejoin="miter" stroke-width="1"/>
        </g>
        <g id="Graphic_172">
          <path d="M 232.76717 98.38492 L 221.29447 100.11756 L 165.72878 108.49372 M 221.29447 100.11756 C 215.26863 98.6796 206.52204 94.99561 195.37818 95.47433 M 200.36826 103.28188 C 193.95496 101.89838 188.51164 100.32701 183.0512 99.9417 M 179.03538 106.48617 C 175.34468 105.89509 173.52595 105.4223 169.66108 105.35217 M 221.32288 100.31972 C 215.99394 103.47374 208.70717 109.56569 197.93015 112.39795 M 200.3943 103.46719 C 194.6779 106.67567 189.94569 109.79736 184.83645 111.76434 M 179.06379 106.68833 C 175.706 108.34388 174.1113 109.34278 170.4394 110.5357" fill="#FFFFFF"/>
          <path d="M 232.76717 98.38492 L 221.29447 100.11756 L 165.72878 108.49372 M 221.29447 100.11756 C 215.26863 98.6796 206.52204 94.99561 195.37818 95.47433 M 200.36826 103.28188 C 193.95496 101.89838 188.51164 100.32701 183.0512 99.9417 M 179.03538 106.48617 C 175.34468 105.89509 173.52595 105.4223 169.66108 105.35217 M 221.32288 100.31972 C 215.99394 103.47374 208.70717 109.56569 197.93015 112.39795 M 200.3943 103.46719 C 194.6779 106.67567 189.94569 109.79736 184.83645 111.76434 M 179.06379 106.68833 C 175.706 108.34388 174.1113 109.34278 170.4394 110.5357" stroke="black" stroke-linecap="round" stroke-linejoin="miter" stroke-width="1"/>
        </g>
        <g id="Graphic_171">
          <path d="M 217.76024 118.56199 C 245.3197 152.24577 251.61414 163.4737 286.43432 153.76324 C 274.01555 119.90934 261.25655 121.2703 217.76024 118.56199 Z" fill="#FFFFFF"/>
          <path d="M 217.76024 118.56199 C 245.3197 152.24577 251.61414 163.4737 286.43432 153.76324 C 274.01555 119.90934 261.25655 121.2703 217.76024 118.56199 Z" stroke="black" stroke-linecap="round" stroke-linejoin="miter" stroke-width="2"/>
        </g>
        <g id="Graphic_170">
          <path d="M 286.43772 153.77685 L 276.11143 148.48612 L 226.09613 122.84902 M 276.11143 148.48612 C 272.06258 143.80781 267.09507 135.69309 257.7793 129.58748 M 257.27914 138.8233 C 252.87303 133.95786 249.38557 129.50071 245.1734 126.00645 M 238.07258 128.99035 C 235.4187 126.35349 234.21086 124.90747 231.12148 122.59724 M 276.02637 148.65624 C 269.86803 148.10675 260.37533 148.80254 249.9793 144.80982 M 257.17707 138.99341 C 250.65977 138.2653 244.99817 138.03054 239.70233 136.64916 M 237.98752 129.16047 C 234.30102 128.54634 232.4195 128.41535 228.7364 127.25003" fill="#FFFFFF"/>
          <path d="M 286.43772 153.77685 L 276.11143 148.48612 L 226.09613 122.84902 M 276.11143 148.48612 C 272.06258 143.80781 267.09507 135.69309 257.7793 129.58748 M 257.27914 138.8233 C 252.87303 133.95786 249.38557 129.50071 245.1734 126.00645 M 238.07258 128.99035 C 235.4187 126.35349 234.21086 124.90747 231.12148 122.59724 M 276.02637 148.65624 C 269.86803 148.10675 260.37533 148.80254 249.9793 144.80982 M 257.17707 138.99341 C 250.65977 138.2653 244.99817 138.03054 239.70233 136.64916 M 237.98752 129.16047 C 234.30102 128.54634 232.4195 128.41535 228.7364 127.25003" stroke="black" stroke-linecap="round" stroke-linejoin="miter" stroke-width="1"/>
        </g>
        <g id="Graphic_169">
          <path d="M 221.73466 70.41443 C 235.83105 111.55309 237.81575 124.33035 273.78856 127.38328 C 274.00528 91.27651 261.4993 88.22394 221.73466 70.41443 Z" fill="#FFFFFF"/>
          <path d="M 221.73466 70.41443 C 235.83105 111.55309 237.81575 124.33035 273.78856 127.38328 C 274.00528 91.27651 261.4993 88.22394 221.73466 70.41443 Z" stroke="black" stroke-linecap="round" stroke-linejoin="miter" stroke-width="2"/>
        </g>
        <g id="Graphic_168">
          <path d="M 273.78856 127.38328 L 265.97208 118.8271 L 228.06565 77.32402 M 265.97208 118.8271 C 263.81587 113.03153 261.99103 103.702 255.39578 94.7165 M 251.6975 103.19023 C 249.27324 97.08874 247.55663 91.69522 244.82785 86.9473 M 237.14206 87.26643 C 235.58017 83.87831 234.9582 82.09318 232.8631 78.847 M 265.83467 118.94949 C 260.2543 116.28074 251.12043 113.63039 242.77272 106.24491 M 251.56008 103.31262 C 245.71572 100.35457 240.49278 98.15096 236.0019 95.00784 M 237.00465 87.38881 C 233.77058 85.52414 232.04733 84.75276 229.0033 82.37005" fill="#FFFFFF"/>
          <path d="M 273.78856 127.38328 L 265.97208 118.8271 L 228.06565 77.32402 M 265.97208 118.8271 C 263.81587 113.03153 261.99103 103.702 255.39578 94.7165 M 251.6975 103.19023 C 249.27324 97.08874 247.55663 91.69522 244.82785 86.9473 M 237.14206 87.26643 C 235.58017 83.87831 234.9582 82.09318 232.8631 78.847 M 265.83467 118.94949 C 260.2543 116.28074 251.12043 113.63039 242.77272 106.24491 M 251.56008 103.31262 C 245.71572 100.35457 240.49278 98.15096 236.0019 95.00784 M 237.00465 87.38881 C 233.77058 85.52414 232.04733 84.75276 229.0033 82.37005" stroke="black" stroke-linecap="round" stroke-linejoin="miter" stroke-width="1"/>
        </g>
        <g id="Graphic_167">
          <path d="M 188.85222 113.43125 C 227.42058 133.60783 237.6277 141.45007 265.82432 118.94923 C 241.152 92.5249 229.85396 98.92291 188.85222 113.43125 Z" fill="#FFFFFF"/>
          <path d="M 188.85222 113.43125 C 227.42058 133.60783 237.6277 141.45007 265.82432 118.94923 C 241.152 92.5249 229.85396 98.92291 188.85222 113.43125 Z" stroke="black" stroke-linecap="round" stroke-linejoin="miter" stroke-width="2"/>
        </g>
        <g id="Graphic_166">
          <path d="M 265.83467 118.94949 L 254.27637 118.11728 L 198.2071 114.1093 M 254.27637 118.11728 C 248.7226 115.39326 240.9714 109.86862 230.01113 107.901 M 233.1563 116.60174 C 227.2032 113.84794 222.24853 111.10844 216.9967 109.5428 M 211.6369 115.05643 C 208.16117 113.67238 206.49346 112.80729 202.73516 111.89415 M 254.25187 118.3097 C 248.3693 120.21357 239.91072 124.56847 228.77884 124.96133 M 233.1318 116.79416 C 226.85015 118.66994 221.54836 120.67258 216.13262 121.47322 M 211.61478 115.26569 C 207.98281 116.14376 206.20203 116.75995 202.3559 117.1287" fill="#FFFFFF"/>
          <path d="M 265.83467 118.94949 L 254.27637 118.11728 L 198.2071 114.1093 M 254.27637 118.11728 C 248.7226 115.39326 240.9714 109.86862 230.01113 107.901 M 233.1563 116.60174 C 227.2032 113.84794 222.24853 111.10844 216.9967 109.5428 M 211.6369 115.05643 C 208.16117 113.67238 206.49346 112.80729 202.73516 111.89415 M 254.25187 118.3097 C 248.3693 120.21357 239.91072 124.56847 228.77884 124.96133 M 233.1318 116.79416 C 226.85015 118.66994 221.54836 120.67258 216.13262 121.47322 M 211.61478 115.26569 C 207.98281 116.14376 206.20203 116.75995 202.3559 117.1287" stroke="black" stroke-linecap="round" stroke-linejoin="miter" stroke-width="1"/>
        </g>
        <g id="Graphic_165">
          <path d="M 172.86276 65.92227 C 200.35078 99.62903 206.59276 110.9332 241.45622 101.27774 C 229.1572 67.46136 216.24618 68.729014 172.86276 65.92227 Z" fill="#FFFFFF"/>
          <path d="M 172.86276 65.92227 C 200.35078 99.62903 206.59276 110.9332 241.45622 101.27774 C 229.1572 67.46136 216.24618 68.729014 172.86276 65.92227 Z" stroke="black" stroke-linecap="round" stroke-linejoin="miter" stroke-width="2"/>
        </g>
        <g id="Graphic_164">
          <path d="M 241.45452 101.28068 L 231.14927 95.95955 L 181.2017 70.226025 M 231.14927 95.95955 C 227.1019 91.26554 222.16242 83.1492 212.85842 77.01929 M 212.326 86.27055 C 207.93126 81.39564 204.4568 76.93419 200.24316 73.423 M 193.16387 76.38592 C 190.5169 73.74389 189.31705 72.28701 186.22888 69.973675 M 231.06193 96.14485 C 224.90718 95.57726 215.415 96.26508 205.02443 92.23832 M 212.24717 86.44112 C 205.72182 85.69885 200.07421 85.4437 194.77666 84.05488 M 193.0703 76.54798 C 189.38208 75.92723 187.4988 75.78675 183.82822 74.61829" fill="#FFFFFF"/>
          <path d="M 241.45452 101.28068 L 231.14927 95.95955 L 181.2017 70.226025 M 231.14927 95.95955 C 227.1019 91.26554 222.16242 83.1492 212.85842 77.01929 M 212.326 86.27055 C 207.93126 81.39564 204.4568 76.93419 200.24316 73.423 M 193.16387 76.38592 C 190.5169 73.74389 189.31705 72.28701 186.22888 69.973675 M 231.06193 96.14485 C 224.90718 95.57726 215.415 96.26508 205.02443 92.23832 M 212.24717 86.44112 C 205.72182 85.69885 200.07421 85.4437 194.77666 84.05488 M 193.0703 76.54798 C 189.38208 75.92723 187.4988 75.78675 183.82822 74.61829" stroke="black" stroke-linecap="round" stroke-linejoin="miter" stroke-width="1"/>
        </g>
        <g id="Graphic_163">
          <path d="M 156.9584 117.69452 C 200.13182 123.21265 212.4121 127.12038 231.06108 96.14632 C 198.7387 79.99939 190.47796 89.8843 156.9584 117.69452 Z" fill="#FFFFFF"/>
          <path d="M 156.9584 117.69452 C 200.13182 123.21265 212.4121 127.12038 231.06108 96.14632 C 198.7387 79.99939 190.47796 89.8843 156.9584 117.69452 Z" stroke="black" stroke-linecap="round" stroke-linejoin="miter" stroke-width="2"/>
        </g>
        <g id="Graphic_162">
          <path d="M 230.69832 95.66703 L 219.32452 99.11645 L 164.22749 115.81526 M 219.32452 99.11645 C 213.0121 98.55027 203.5775 96.10562 192.36847 98.23554 M 198.57192 105.39694 C 191.8631 104.94708 186.12173 104.14439 180.5315 104.56689 M 177.42249 111.81839 C 173.59062 111.76383 171.67165 111.55779 167.7513 112.05381 M 219.3829 99.30233 C 214.45406 103.27958 207.95438 110.54707 197.45283 115.00258 M 198.61776 105.59492 C 193.29732 109.69597 188.95846 113.55164 184.07322 116.30216 M 177.48086 112.00427 C 174.32742 114.17497 172.8478 115.4173 169.30465 117.17943" fill="#FFFFFF"/>
          <path d="M 230.69832 95.66703 L 219.32452 99.11645 L 164.22749 115.81526 M 219.32452 99.11645 C 213.0121 98.55027 203.5775 96.10562 192.36847 98.23554 M 198.57192 105.39694 C 191.8631 104.94708 186.12173 104.14439 180.5315 104.56689 M 177.42249 111.81839 C 173.59062 111.76383 171.67165 111.55779 167.7513 112.05381 M 219.3829 99.30233 C 214.45406 103.27958 207.95438 110.54707 197.45283 115.00258 M 198.61776 105.59492 C 193.29732 109.69597 188.95846 113.55164 184.07322 116.30216 M 177.48086 112.00427 C 174.32742 114.17497 172.8478 115.4173 169.30465 117.17943" stroke="black" stroke-linecap="round" stroke-linejoin="miter" stroke-width="1"/>
        </g>
        <g id="Graphic_161">
          <path d="M 136.13232 72.70318 C 167.52327 102.80875 175.09636 113.26796 208.52324 99.43568 C 192.19472 67.370235 179.53442 70.2019 136.13232 72.70318 Z" fill="#FFFFFF"/>
          <path d="M 136.13232 72.70318 C 167.52327 102.80875 175.09636 113.26796 208.52324 99.43568 C 192.19472 67.370235 179.53442 70.2019 136.13232 72.70318 Z" stroke="black" stroke-linecap="round" stroke-linejoin="miter" stroke-width="2"/>
        </g>
        <g id="Graphic_160">
          <path d="M 208.5219 99.43881 L 197.645 95.41323 L 144.9336 75.9586 M 197.645 95.41323 C 193.05573 91.24746 187.16394 83.79359 177.18225 78.84324 M 177.78124 88.09043 C 172.82516 83.78744 168.83288 79.78268 164.22274 76.81117 M 157.5573 80.61476 C 154.6081 78.31501 153.23963 77.01521 149.89255 75.09547 M 197.58089 95.60779 C 191.40284 95.79451 182.06524 97.63401 171.26138 94.90356 M 177.72378 88.26934 C 171.1566 88.32784 165.52 88.76286 160.09268 88.03 M 157.4842 80.78701 C 153.7478 80.62037 151.86145 80.71045 148.07582 79.99803" fill="#FFFFFF"/>
          <path d="M 208.5219 99.43881 L 197.645 95.41323 L 144.9336 75.9586 M 197.645 95.41323 C 193.05573 91.24746 187.16394 83.79359 177.18225 78.84324 M 177.78124 88.09043 C 172.82516 83.78744 168.83288 79.78268 164.22274 76.81117 M 157.5573 80.61476 C 154.6081 78.31501 153.23963 77.01521 149.89255 75.09547 M 197.58089 95.60779 C 191.40284 95.79451 182.06524 97.63401 171.26138 94.90356 M 177.72378 88.26934 C 171.1566 88.32784 165.52 88.76286 160.09268 88.03 M 157.4842 80.78701 C 153.7478 80.62037 151.86145 80.71045 148.07582 79.99803" stroke="black" stroke-linecap="round" stroke-linejoin="miter" stroke-width="1"/>
        </g>
        <g id="Graphic_159">
          <path d="M 126.65596 126.02779 C 170.18006 126.24327 182.84503 128.62528 197.58022 95.60936 C 163.53096 83.52189 156.53646 94.33986 126.65596 126.02779 Z" fill="#FFFFFF"/>
          <path d="M 126.65596 126.02779 C 170.18006 126.24327 182.84503 128.62528 197.58022 95.60936 C 163.53096 83.52189 156.53646 94.33986 126.65596 126.02779 Z" stroke="black" stroke-linecap="round" stroke-linejoin="miter" stroke-width="2"/>
        </g>
        <g id="Graphic_158">
          <path d="M 196.40423 95.50996 L 185.79401 100.20543 L 134.3946 122.94067 M 185.79401 100.20543 C 179.61026 100.40783 170.17778 99.16155 159.57022 102.55888 M 166.43304 108.75986 C 159.87904 109.12213 154.22045 109.02743 148.85409 110.10189 M 146.70433 117.49809 C 142.98497 117.9011 141.10108 117.92977 137.36148 118.8768 M 185.8727 100.3786 C 181.57008 104.81872 176.13687 112.63381 166.4915 118.20035 M 166.50102 108.94625 C 161.8337 113.55292 158.08829 117.80507 153.68198 121.05138 M 146.78301 117.67125 C 143.98575 120.14972 142.69987 121.5295 139.47639 123.65845" fill="#FFFFFF"/>
          <path d="M 196.40423 95.50996 L 185.79401 100.20543 L 134.3946 122.94067 M 185.79401 100.20543 C 179.61026 100.40783 170.17778 99.16155 159.57022 102.55888 M 166.43304 108.75986 C 159.87904 109.12213 154.22045 109.02743 148.85409 110.10189 M 146.70433 117.49809 C 142.98497 117.9011 141.10108 117.92977 137.36148 118.8768 M 185.8727 100.3786 C 181.57008 104.81872 176.13687 112.63381 166.4915 118.20035 M 166.50102 108.94625 C 161.8337 113.55292 158.08829 117.80507 153.68198 121.05138 M 146.78301 117.67125 C 143.98575 120.14972 142.69987 121.5295 139.47639 123.65845" stroke="black" stroke-linecap="round" stroke-linejoin="miter" stroke-width="1"/>
        </g>
        <g id="Graphic_157">
          <path d="M 63.63215 127.17628 C 106.9477 131.03118 119.42756 134.41505 136.84801 102.79398 C 103.95099 87.91006 96.07568 98.09325 63.63215 127.17628 Z" fill="#FFFFFF"/>
          <path d="M 63.63215 127.17628 C 106.9477 131.03118 119.42756 134.41505 136.84801 102.79398 C 103.95099 87.91006 96.07568 98.09325 63.63215 127.17628 Z" stroke="black" stroke-linecap="round" stroke-linejoin="miter" stroke-width="2"/>
        </g>
        <g id="Graphic_156">
          <path d="M 136.36779 103.67008 L 125.37209 107.33068 L 72.0392 125.0791 M 125.37209 107.33068 C 119.20055 106.9432 109.93538 104.81561 99.04419 107.18594 M 105.2811 114.01108 C 98.72107 113.74404 93.09564 113.1185 87.6483 113.68021 M 84.81375 120.83133 C 81.08327 120.88012 79.19951 120.72223 75.38181 121.31587 M 125.428 107.50599 C 120.72024 111.51843 114.58394 118.78464 104.44165 123.4067 M 105.33701 114.18639 C 100.25758 118.32233 96.12013 122.19744 91.42214 125.02163 M 84.86967 121.00664 C 81.85079 123.20267 80.44518 124.4632 77.030355 126.27492" fill="#FFFFFF"/>
          <path d="M 136.36779 103.67008 L 125.37209 107.33068 L 72.0392 125.0791 M 125.37209 107.33068 C 119.20055 106.9432 109.93538 104.81561 99.04419 107.18594 M 105.2811 114.01108 C 98.72107 113.74404 93.09564 113.1185 87.6483 113.68021 M 84.81375 120.83133 C 81.08327 120.88012 79.19951 120.72223 75.38181 121.31587 M 125.428 107.50599 C 120.72024 111.51843 114.58394 118.78464 104.44165 123.4067 M 105.33701 114.18639 C 100.25758 118.32233 96.12013 122.19744 91.42214 125.02163 M 84.86967 121.00664 C 81.85079 123.20267 80.44518 124.4632 77.030355 126.27492" stroke="black" stroke-linecap="round" stroke-linejoin="miter" stroke-width="1"/>
        </g>
        <g id="Graphic_155">
          <path d="M 97.33892 95.27204 C 137.99762 110.71894 149.05543 117.38765 174.42033 91.59404 C 146.86088 68.45771 136.31343 76.01104 97.33892 95.27204 Z" fill="#FFFFFF"/>
          <path d="M 97.33892 95.27204 C 137.99762 110.71894 149.05543 117.38765 174.42033 91.59404 C 146.86088 68.45771 136.31343 76.01104 97.33892 95.27204 Z" stroke="black" stroke-linecap="round" stroke-linejoin="miter" stroke-width="2"/>
        </g>
        <g id="Graphic_154">
          <path d="M 174.42033 91.59744 L 162.83516 92.14183 L 106.71254 94.82972 M 162.83516 92.14183 C 156.98302 90.10039 148.64714 85.54117 137.52469 84.8845 M 141.68923 93.16255 C 135.44582 91.13812 130.20612 89.01162 124.80141 88.07766 M 120.15203 94.18327 C 116.53868 93.21869 114.77113 92.55692 110.94002 92.0976 M 162.85217 92.34597 C 157.2382 94.9318 149.36164 100.27357 138.34977 101.98157 M 141.70624 93.34968 C 135.68399 95.96953 130.66545 98.57237 125.38322 100.01839 M 120.15203 94.3704 C 116.64755 95.67692 114.94635 96.4969 111.1833 97.32028" fill="#FFFFFF"/>
          <path d="M 174.42033 91.59744 L 162.83516 92.14183 L 106.71254 94.82972 M 162.83516 92.14183 C 156.98302 90.10039 148.64714 85.54117 137.52469 84.8845 M 141.68923 93.16255 C 135.44582 91.13812 130.20612 89.01162 124.80141 88.07766 M 120.15203 94.18327 C 116.53868 93.21869 114.77113 92.55692 110.94002 92.0976 M 162.85217 92.34597 C 157.2382 94.9318 149.36164 100.27357 138.34977 101.98157 M 141.70624 93.34968 C 135.68399 95.96953 130.66545 98.57237 125.38322 100.01839 M 120.15203 94.3704 C 116.64755 95.67692 114.94635 96.4969 111.1833 97.32028" stroke="black" stroke-linecap="round" stroke-linejoin="miter" stroke-width="1"/>
        </g>
        <g id="Graphic_153">
          <path d="M 109.45147 148.0603 C 149.59981 131.25243 162.1887 128.49649 162.85217 92.34767 C 126.78671 94.52521 124.57515 107.21617 109.45147 148.0603 Z" fill="#FFFFFF"/>
          <path d="M 109.45147 148.0603 C 149.59981 131.25243 162.1887 128.49649 162.85217 92.34767 C 126.78671 94.52521 124.57515 107.21617 109.45147 148.0603 Z" stroke="black" stroke-linecap="round" stroke-linejoin="miter" stroke-width="2"/>
        </g>
        <g id="Graphic_152">
          <path d="M 161.73083 92.71568 L 153.79873 101.18362 L 115.36869 142.19487 M 153.79873 101.18362 C 148.18564 103.78612 139.01604 106.32447 130.57917 113.59643 M 139.31935 116.62295 C 133.4279 119.51728 128.18215 121.64108 123.66221 124.72693 M 124.57328 132.37515 C 121.30706 134.1994 119.58412 134.96188 116.51184 137.2948 M 153.93882 101.31227 C 151.71315 107.0806 149.76544 116.39735 143.06186 125.29013 M 139.45475 116.76796 C 136.95843 122.83209 135.1722 128.20966 132.38461 132.91959 M 124.71336 132.5038 C 123.10688 135.87822 122.46234 137.65076 120.32696 140.86997" fill="#FFFFFF"/>
          <path d="M 161.73083 92.71568 L 153.79873 101.18362 L 115.36869 142.19487 M 153.79873 101.18362 C 148.18564 103.78612 139.01604 106.32447 130.57917 113.59643 M 139.31935 116.62295 C 133.4279 119.51728 128.18215 121.64108 123.66221 124.72693 M 124.57328 132.37515 C 121.30706 134.1994 119.58412 134.96188 116.51184 137.2948 M 153.93882 101.31227 C 151.71315 107.0806 149.76544 116.39735 143.06186 125.29013 M 139.45475 116.76796 C 136.95843 122.83209 135.1722 128.20966 132.38461 132.91959 M 124.71336 132.5038 C 123.10688 135.87822 122.46234 137.65076 120.32696 140.86997" stroke="black" stroke-linecap="round" stroke-linejoin="miter" stroke-width="1"/>
        </g>
        <g id="Graphic_151">
          <path d="M 70.561195 159.456 L 72.29383 170.92871 L 80.669995 226.4944 M 72.29383 170.92871 C 70.85588 176.95455 67.17188 185.70114 67.6506 196.845 M 75.45815 191.85492 C 74.07465 198.26822 72.503285 203.71154 72.11798 209.17198 M 78.66244 213.1878 C 78.07136 216.8785 77.59857 218.69723 77.52844 222.5621 M 72.49599 170.9003 C 75.65001 176.22924 81.74196 183.51601 84.57422 194.29303 M 75.64346 191.82887 C 78.85194 197.54528 81.97363 202.2775 83.94061 207.38673 M 78.8646 213.1594 C 80.52015 216.51717 81.51905 218.11188 82.71197 221.78378" fill="#FFFFFF"/>
          <path d="M 70.561195 159.456 L 72.29383 170.92871 L 80.669995 226.4944 M 72.29383 170.92871 C 70.85588 176.95455 67.17188 185.70114 67.6506 196.845 M 75.45815 191.85492 C 74.07465 198.26822 72.503285 203.71154 72.11798 209.17198 M 78.66244 213.1878 C 78.07136 216.8785 77.59857 218.69723 77.52844 222.5621 M 72.49599 170.9003 C 75.65001 176.22924 81.74196 183.51601 84.57422 194.29303 M 75.64346 191.82887 C 78.85194 197.54528 81.97363 202.2775 83.94061 207.38673 M 78.8646 213.1594 C 80.52015 216.51717 81.51905 218.11188 82.71197 221.78378" stroke="black" stroke-linecap="round" stroke-linejoin="miter" stroke-width="1"/>
        </g>
        <g id="Graphic_150">
          <path d="M 90.73826 174.46294 C 124.42204 146.90348 135.64997 140.60904 125.93951 105.78886 C 92.08561 118.20763 93.44657 130.96663 90.73826 174.46294 Z" fill="#FFFFFF"/>
          <path d="M 90.73826 174.46294 C 124.42204 146.90348 135.64997 140.60904 125.93951 105.78886 C 92.08561 118.20763 93.44657 130.96663 90.73826 174.46294 Z" stroke="black" stroke-linecap="round" stroke-linejoin="miter" stroke-width="2"/>
        </g>
        <g id="Graphic_149">
          <path d="M 125.95312 105.78546 L 120.66239 116.11175 L 95.02529 166.12705 M 120.66239 116.11175 C 115.98408 120.1606 107.86936 125.12811 101.76375 134.44389 M 110.99957 134.94404 C 106.13413 139.35015 101.67698 142.83761 98.18272 147.04979 M 101.16662 154.1506 C 98.52976 156.80447 97.08374 158.01232 94.77351 161.1017 M 120.8325 116.19681 C 120.28302 122.35515 120.97881 131.84786 116.98609 142.2439 M 111.16969 135.04611 C 110.44157 141.56341 110.2068 147.22501 108.82543 152.52085 M 101.33674 154.23566 C 100.72261 157.92216 100.59162 159.80369 99.4263 163.48679" fill="#FFFFFF"/>
          <path d="M 125.95312 105.78546 L 120.66239 116.11175 L 95.02529 166.12705 M 120.66239 116.11175 C 115.98408 120.1606 107.86936 125.12811 101.76375 134.44389 M 110.99957 134.94404 C 106.13413 139.35015 101.67698 142.83761 98.18272 147.04979 M 101.16662 154.1506 C 98.52976 156.80447 97.08374 158.01232 94.77351 161.1017 M 120.8325 116.19681 C 120.28302 122.35515 120.97881 131.84786 116.98609 142.2439 M 111.16969 135.04611 C 110.44157 141.56341 110.2068 147.22501 108.82543 152.52085 M 101.33674 154.23566 C 100.72261 157.92216 100.59162 159.80369 99.4263 163.48679" stroke="black" stroke-linecap="round" stroke-linejoin="miter" stroke-width="1"/>
        </g>
        <g id="Graphic_148">
          <path d="M 42.5907 170.48852 C 83.72936 156.39213 96.50662 154.40743 99.55955 118.43462 C 63.45278 118.2179 60.40021 130.72389 42.5907 170.48852 Z" fill="#FFFFFF"/>
          <path d="M 42.5907 170.48852 C 83.72936 156.39213 96.50662 154.40743 99.55955 118.43462 C 63.45278 118.2179 60.40021 130.72389 42.5907 170.48852 Z" stroke="black" stroke-linecap="round" stroke-linejoin="miter" stroke-width="2"/>
        </g>
        <g id="Graphic_147">
          <path d="M 99.55955 118.43462 L 91.00337 126.2511 L 49.50029 164.15753 M 91.00337 126.2511 C 85.2078 128.40731 75.87827 130.23215 66.892775 136.8274 M 75.3665 140.5257 C 69.26501 142.94994 63.87149 144.66655 59.12357 147.39533 M 59.4427 155.08112 C 56.054577 156.64301 54.269454 157.26497 51.02327 159.36008 M 91.12576 126.38851 C 88.45701 131.96888 85.80666 141.10275 78.42118 149.45046 M 75.48889 140.6631 C 72.53084 146.50746 70.32723 151.7304 67.184115 156.22128 M 59.565085 155.21853 C 57.70041 158.4526 56.92903 160.17585 54.54632 163.21988" fill="#FFFFFF"/>
          <path d="M 99.55955 118.43462 L 91.00337 126.2511 L 49.50029 164.15753 M 91.00337 126.2511 C 85.2078 128.40731 75.87827 130.23215 66.892775 136.8274 M 75.3665 140.5257 C 69.26501 142.94994 63.87149 144.66655 59.12357 147.39533 M 59.4427 155.08112 C 56.054577 156.64301 54.269454 157.26497 51.02327 159.36008 M 91.12576 126.38851 C 88.45701 131.96888 85.80666 141.10275 78.42118 149.45046 M 75.48889 140.6631 C 72.53084 146.50746 70.32723 151.7304 67.184115 156.22128 M 59.565085 155.21853 C 57.70041 158.4526 56.92903 160.17585 54.54632 163.21988" stroke="black" stroke-linecap="round" stroke-linejoin="miter" stroke-width="1"/>
        </g>
        <g id="Graphic_146">
          <path d="M 85.60752 203.37096 C 105.7841 164.8026 113.62634 154.59547 91.1255 126.39886 C 64.701166 151.07117 71.09918 162.36922 85.60752 203.37096 Z" fill="#FFFFFF"/>
          <path d="M 85.60752 203.37096 C 105.7841 164.8026 113.62634 154.59547 91.1255 126.39886 C 64.701166 151.07117 71.09918 162.36922 85.60752 203.37096 Z" stroke="black" stroke-linecap="round" stroke-linejoin="miter" stroke-width="2"/>
        </g>
        <g id="Graphic_145">
          <path d="M 91.12576 126.38851 L 90.29355 137.94681 L 86.28557 194.01608 M 90.29355 137.94681 C 87.56953 143.50059 82.044895 151.25178 80.07727 162.21205 M 88.77801 159.0669 C 86.02421 165.01997 83.28471 169.97465 81.71907 175.22647 M 87.2327 180.58627 C 85.84865 184.06201 84.98356 185.72972 84.07042 189.48802 M 90.48596 137.97131 C 92.38984 143.85389 96.74474 152.31246 97.1376 163.44434 M 88.97043 159.09139 C 90.84621 165.37304 92.84885 170.67482 93.64949 176.09056 M 87.44196 180.6084 C 88.32003 184.24037 88.93622 186.02115 89.30497 189.86728" fill="#FFFFFF"/>
          <path d="M 91.12576 126.38851 L 90.29355 137.94681 L 86.28557 194.01608 M 90.29355 137.94681 C 87.56953 143.50059 82.044895 151.25178 80.07727 162.21205 M 88.77801 159.0669 C 86.02421 165.01997 83.28471 169.97465 81.71907 175.22647 M 87.2327 180.58627 C 85.84865 184.06201 84.98356 185.72972 84.07042 189.48802 M 90.48596 137.97131 C 92.38984 143.85389 96.74474 152.31246 97.1376 163.44434 M 88.97043 159.09139 C 90.84621 165.37304 92.84885 170.67482 93.64949 176.09056 M 87.44196 180.6084 C 88.32003 184.24037 88.93622 186.02115 89.30497 189.86728" stroke="black" stroke-linecap="round" stroke-linejoin="miter" stroke-width="1"/>
        </g>
        <g id="Graphic_144">
          <path d="M 38.09854 219.36042 C 71.8053 191.8724 83.10948 185.63042 73.45401 150.76696 C 39.63763 163.06598 40.905285 175.977 38.09854 219.36042 Z" fill="#FFFFFF"/>
          <path d="M 38.09854 219.36042 C 71.8053 191.8724 83.10948 185.63042 73.45401 150.76696 C 39.63763 163.06598 40.905285 175.977 38.09854 219.36042 Z" stroke="black" stroke-linecap="round" stroke-linejoin="miter" stroke-width="2"/>
        </g>
        <g id="Graphic_143">
          <path d="M 73.456955 150.76866 L 68.13582 161.07391 L 42.402296 211.02147 M 68.13582 161.07391 C 63.44181 165.12129 55.32547 170.06076 49.19556 179.36476 M 58.44682 179.89718 C 53.57191 184.29192 49.11046 187.76638 45.59927 191.98002 M 48.56219 199.0593 C 45.920165 201.70627 44.463284 202.90613 42.149945 205.9943 M 68.32112 161.16125 C 67.753526 167.316 68.441355 176.80818 64.414595 187.19875 M 58.61739 179.97602 C 57.87512 186.50136 57.61997 192.14897 56.23115 197.44652 M 48.724253 199.15287 C 48.1035 202.8411 47.96302 204.72437 46.79456 208.39496" fill="#FFFFFF"/>
          <path d="M 73.456955 150.76866 L 68.13582 161.07391 L 42.402296 211.02147 M 68.13582 161.07391 C 63.44181 165.12129 55.32547 170.06076 49.19556 179.36476 M 58.44682 179.89718 C 53.57191 184.29192 49.11046 187.76638 45.59927 191.98002 M 48.56219 199.0593 C 45.920165 201.70627 44.463284 202.90613 42.149945 205.9943 M 68.32112 161.16125 C 67.753526 167.316 68.441355 176.80818 64.414595 187.19875 M 58.61739 179.97602 C 57.87512 186.50136 57.61997 192.14897 56.23115 197.44652 M 48.724253 199.15287 C 48.1035 202.8411 47.96302 204.72437 46.79456 208.39496" stroke="black" stroke-linecap="round" stroke-linejoin="miter" stroke-width="1"/>
        </g>
        <g id="Graphic_142">
          <path d="M 89.87079 235.26477 C 95.38893 192.09136 99.29665 179.8111 68.32259 161.1621 C 52.175663 193.48447 62.060575 201.74522 89.87079 235.26477 Z" fill="#FFFFFF"/>
          <path d="M 89.87079 235.26477 C 95.38893 192.09136 99.29665 179.8111 68.32259 161.1621 C 52.175663 193.48447 62.060575 201.74522 89.87079 235.26477 Z" stroke="black" stroke-linecap="round" stroke-linejoin="miter" stroke-width="2"/>
        </g>
        <g id="Graphic_141">
          <path d="M 68.30709 163.07333 L 71.59623 173.91863 L 87.51912 226.45555 M 71.59623 173.91863 C 71.05636 179.93774 68.7253 188.93396 70.75625 199.62216 M 77.58489 193.70695 C 77.15594 200.10404 76.39054 205.57864 76.79341 210.9091 M 83.70796 213.87366 C 83.65594 217.52748 83.45948 219.35728 83.93245 223.09547 M 71.773476 173.86297 C 75.56591 178.56279 82.49572 184.76046 86.7442 194.77404 M 77.77368 193.66324 C 81.68416 198.73647 85.36068 202.87372 87.9834 207.53197 M 83.88521 213.818 C 85.95505 216.8249 87.13965 218.2358 88.8199 221.6143" fill="#FFFFFF"/>
          <path d="M 68.30709 163.07333 L 71.59623 173.91863 L 87.51912 226.45555 M 71.59623 173.91863 C 71.05636 179.93774 68.7253 188.93396 70.75625 199.62216 M 77.58489 193.70695 C 77.15594 200.10404 76.39054 205.57864 76.79341 210.9091 M 83.70796 213.87366 C 83.65594 217.52748 83.45948 219.35728 83.93245 223.09547 M 71.773476 173.86297 C 75.56591 178.56279 82.49572 184.76046 86.7442 194.77404 M 77.77368 193.66324 C 81.68416 198.73647 85.36068 202.87372 87.9834 207.53197 M 83.88521 213.818 C 85.95505 216.8249 87.13965 218.2358 88.8199 221.6143" stroke="black" stroke-linecap="round" stroke-linejoin="miter" stroke-width="1"/>
        </g>
        <g id="Graphic_140">
          <path d="M 44.879455 256.09086 C 74.985025 224.69991 85.44423 217.12682 71.61195 183.69994 C 39.546506 200.02847 42.37817 212.68876 44.879455 256.09086 Z" fill="#FFFFFF"/>
          <path d="M 44.879455 256.09086 C 74.985025 224.69991 85.44423 217.12682 71.61195 183.69994 C 39.546506 200.02847 42.37817 212.68876 44.879455 256.09086 Z" stroke="black" stroke-linecap="round" stroke-linejoin="miter" stroke-width="2"/>
        </g>
        <g id="Graphic_139">
          <path d="M 71.61508 183.70127 L 67.5895 194.5782 L 48.13487 247.28958 M 67.5895 194.5782 C 63.42373 199.16745 55.96986 205.05924 51.01951 215.04093 M 60.266705 214.44194 C 55.963715 219.39802 51.95895 223.3903 48.98744 228.00044 M 52.79103 234.66587 C 50.49128 237.6151 49.19148 238.98355 47.27174 242.33063 M 67.78406 194.6423 C 67.97078 200.82034 69.810285 210.15795 67.07983 220.9618 M 60.44561 214.4994 C 60.50411 221.06657 60.939135 226.70317 60.20627 232.1305 M 52.963284 234.739 C 52.79664 238.47537 52.88672 240.36173 52.1743 244.14736" fill="#FFFFFF"/>
          <path d="M 71.61508 183.70127 L 67.5895 194.5782 L 48.13487 247.28958 M 67.5895 194.5782 C 63.42373 199.16745 55.96986 205.05924 51.01951 215.04093 M 60.266705 214.44194 C 55.963715 219.39802 51.95895 223.3903 48.98744 228.00044 M 52.79103 234.66587 C 50.49128 237.6151 49.19148 238.98355 47.27174 242.33063 M 67.78406 194.6423 C 67.97078 200.82034 69.810285 210.15795 67.07983 220.9618 M 60.44561 214.4994 C 60.50411 221.06657 60.939135 226.70317 60.20627 232.1305 M 52.963284 234.739 C 52.79664 238.47537 52.88672 240.36173 52.1743 244.14736" stroke="black" stroke-linecap="round" stroke-linejoin="miter" stroke-width="1"/>
        </g>
        <g id="Graphic_138">
          <path d="M 98.20406 265.56722 C 98.41954 222.04312 100.80155 209.37815 67.78563 194.64296 C 55.698164 228.69222 66.51613 235.68673 98.20406 265.56722 Z" fill="#FFFFFF"/>
          <path d="M 98.20406 265.56722 C 98.41954 222.04312 100.80155 209.37815 67.78563 194.64296 C 55.698164 228.69222 66.51613 235.68673 98.20406 265.56722 Z" stroke="black" stroke-linecap="round" stroke-linejoin="miter" stroke-width="2"/>
        </g>
        <g id="Graphic_137">
          <path d="M 67.68623 195.81895 L 72.3817 206.42917 L 95.11695 257.8286 M 72.3817 206.42917 C 72.5841 212.61292 71.33782 222.0454 74.73515 232.65296 M 80.93613 225.79014 C 81.298405 232.34414 81.2037 238.00273 82.27816 243.3691 M 89.67436 245.51885 C 90.07738 249.2382 90.10604 251.1221 91.05307 254.8617 M 72.554865 206.3505 C 76.995 210.6531 84.81009 216.08632 90.37663 225.73168 M 81.12252 225.72217 C 85.72919 230.38949 89.98134 234.1349 93.22765 238.5412 M 89.84752 245.44017 C 92.32599 248.23743 93.70577 249.5233 95.83472 252.7468" fill="#FFFFFF"/>
          <path d="M 67.68623 195.81895 L 72.3817 206.42917 L 95.11695 257.8286 M 72.3817 206.42917 C 72.5841 212.61292 71.33782 222.0454 74.73515 232.65296 M 80.93613 225.79014 C 81.298405 232.34414 81.2037 238.00273 82.27816 243.3691 M 89.67436 245.51885 C 90.07738 249.2382 90.10604 251.1221 91.05307 254.8617 M 72.554865 206.3505 C 76.995 210.6531 84.81009 216.08632 90.37663 225.73168 M 81.12252 225.72217 C 85.72919 230.38949 89.98134 234.1349 93.22765 238.5412 M 89.84752 245.44017 C 92.32599 248.23743 93.70577 249.5233 95.83472 252.7468" stroke="black" stroke-linecap="round" stroke-linejoin="miter" stroke-width="1"/>
        </g>
        <g id="Graphic_136">
          <path d="M 99.4531 327.04412 C 103.308 283.72857 106.69187 271.2487 75.0708 253.82826 C 60.18688 286.7253 70.37007 294.6006 99.4531 327.04412 Z" fill="#FFFFFF"/>
          <path d="M 99.4531 327.04412 C 103.308 283.72857 106.69187 271.2487 75.0708 253.82826 C 60.18688 286.7253 70.37007 294.6006 99.4531 327.04412 Z" stroke="black" stroke-linecap="round" stroke-linejoin="miter" stroke-width="2"/>
        </g>
        <g id="Graphic_135">
          <path d="M 75.946895 254.30848 L 79.6075 265.30418 L 97.35592 318.63707 M 79.6075 265.30418 C 79.22002 271.47572 77.09243 280.7409 79.46276 291.63208 M 86.2879 285.39517 C 86.02086 291.9552 85.39532 297.58063 85.95703 303.02797 M 93.10815 305.86252 C 93.15694 309.593 92.99905 311.47677 93.59269 315.29446 M 79.78281 265.24827 C 83.79525 269.95603 91.06146 276.09233 95.68353 286.23462 M 86.46321 285.33926 C 90.59914 290.4187 94.47426 294.55614 97.29845 299.25413 M 93.28346 305.8066 C 95.47949 308.82548 96.74002 310.2311 98.55174 313.6459" fill="#FFFFFF"/>
          <path d="M 75.946895 254.30848 L 79.6075 265.30418 L 97.35592 318.63707 M 79.6075 265.30418 C 79.22002 271.47572 77.09243 280.7409 79.46276 291.63208 M 86.2879 285.39517 C 86.02086 291.9552 85.39532 297.58063 85.95703 303.02797 M 93.10815 305.86252 C 93.15694 309.593 92.99905 311.47677 93.59269 315.29446 M 79.78281 265.24827 C 83.79525 269.95603 91.06146 276.09233 95.68353 286.23462 M 86.46321 285.33926 C 90.59914 290.4187 94.47426 294.55614 97.29845 299.25413 M 93.28346 305.8066 C 95.47949 308.82548 96.74002 310.2311 98.55174 313.6459" stroke="black" stroke-linecap="round" stroke-linejoin="miter" stroke-width="1"/>
        </g>
        <g id="Graphic_134">
          <path d="M 67.548856 293.33735 C 82.99576 252.67865 89.66447 241.62084 63.87086 216.25594 C 40.73453 243.8154 48.28786 254.36284 67.548856 293.33735 Z" fill="#FFFFFF"/>
          <path d="M 67.548856 293.33735 C 82.99576 252.67865 89.66447 241.62084 63.87086 216.25594 C 40.73453 243.8154 48.28786 254.36284 67.548856 293.33735 Z" stroke="black" stroke-linecap="round" stroke-linejoin="miter" stroke-width="2"/>
        </g>
        <g id="Graphic_133">
          <path d="M 63.87426 216.25594 L 64.418646 227.84111 L 67.10654 283.96373 M 64.418646 227.84111 C 62.377205 233.69325 57.81799 242.02913 57.16132 253.15158 M 65.43937 248.98704 C 63.41494 255.23045 61.28844 260.47015 60.35448 265.87486 M 66.46009 270.52424 C 65.49551 274.1376 64.83374 275.90514 64.374415 279.73625 M 64.62279 227.8241 C 67.208616 233.43807 72.55039 241.31463 74.25839 252.3265 M 65.6265 248.97003 C 68.24635 254.99228 70.849185 260.01082 72.29521 265.29305 M 66.64722 270.52424 C 67.95374 274.02872 68.77372 275.72992 69.5971 279.49298" fill="#FFFFFF"/>
          <path d="M 63.87426 216.25594 L 64.418646 227.84111 L 67.10654 283.96373 M 64.418646 227.84111 C 62.377205 233.69325 57.81799 242.02913 57.16132 253.15158 M 65.43937 248.98704 C 63.41494 255.23045 61.28844 260.47015 60.35448 265.87486 M 66.46009 270.52424 C 65.49551 274.1376 64.83374 275.90514 64.374415 279.73625 M 64.62279 227.8241 C 67.208616 233.43807 72.55039 241.31463 74.25839 252.3265 M 65.6265 248.97003 C 68.24635 254.99228 70.849185 260.01082 72.29521 265.29305 M 66.64722 270.52424 C 67.95374 274.02872 68.77372 275.72992 69.5971 279.49298" stroke="black" stroke-linecap="round" stroke-linejoin="miter" stroke-width="1"/>
        </g>
        <g id="Graphic_132">
          <path d="M 120.33712 281.2248 C 103.52925 241.07646 100.77331 228.48757 64.62449 227.8241 C 66.80203 263.88956 79.49299 266.10112 120.33712 281.2248 Z" fill="#FFFFFF"/>
          <path d="M 120.33712 281.2248 C 103.52925 241.07646 100.77331 228.48757 64.62449 227.8241 C 66.80203 263.88956 79.49299 266.10112 120.33712 281.2248 Z" stroke="black" stroke-linecap="round" stroke-linejoin="miter" stroke-width="2"/>
        </g>
        <g id="Graphic_131">
          <path d="M 64.992495 228.94545 L 73.46044 236.87754 L 114.4717 275.30758 M 73.46044 236.87754 C 76.062935 242.49063 78.60129 251.66023 85.87325 260.0971 M 88.89977 251.35692 C 91.7941 257.24836 93.9179 262.49412 97.00375 267.01406 M 104.65197 266.103 C 106.47622 269.3692 107.2387 271.09215 109.57162 274.16443 M 73.58909 236.73745 C 79.35742 238.96312 88.67417 240.91083 97.56694 247.6144 M 89.04478 251.22152 C 95.10891 253.71784 100.48648 255.50406 105.1964 258.29166 M 104.78062 265.9629 C 108.15504 267.5694 109.92757 268.21393 113.14679 270.3493" fill="#FFFFFF"/>
          <path d="M 64.992495 228.94545 L 73.46044 236.87754 L 114.4717 275.30758 M 73.46044 236.87754 C 76.062935 242.49063 78.60129 251.66023 85.87325 260.0971 M 88.89977 251.35692 C 91.7941 257.24836 93.9179 262.49412 97.00375 267.01406 M 104.65197 266.103 C 106.47622 269.3692 107.2387 271.09215 109.57162 274.16443 M 73.58909 236.73745 C 79.35742 238.96312 88.67417 240.91083 97.56694 247.6144 M 89.04478 251.22152 C 95.10891 253.71784 100.48648 255.50406 105.1964 258.29166 M 104.78062 265.9629 C 108.15504 267.5694 109.92757 268.21393 113.14679 270.3493" stroke="black" stroke-linecap="round" stroke-linejoin="miter" stroke-width="1"/>
        </g>
        <g id="Graphic_130">
          <path d="M 131.73283 320.11508 L 143.20553 318.38244 L 198.77122 310.00628 M 143.20553 318.38244 C 149.23137 319.8204 157.97796 323.5044 169.12182 323.02567 M 164.13174 315.21812 C 170.54504 316.60162 175.98836 318.173 181.4488 318.5583 M 185.46462 312.01383 C 189.15532 312.6049 190.97405 313.0777 194.83892 313.14783 M 143.17712 318.18028 C 148.50606 315.02626 155.79283 308.9343 166.56985 306.10205 M 164.1057 315.0328 C 169.8221 311.82433 174.55431 308.70264 179.66355 306.73566 M 185.43621 311.81167 C 188.794 310.15612 190.3887 309.1572 194.0606 307.9643" fill="#FFFFFF"/>
          <path d="M 131.73283 320.11508 L 143.20553 318.38244 L 198.77122 310.00628 M 143.20553 318.38244 C 149.23137 319.8204 157.97796 323.5044 169.12182 323.02567 M 164.13174 315.21812 C 170.54504 316.60162 175.98836 318.173 181.4488 318.5583 M 185.46462 312.01383 C 189.15532 312.6049 190.97405 313.0777 194.83892 313.14783 M 143.17712 318.18028 C 148.50606 315.02626 155.79283 308.9343 166.56985 306.10205 M 164.1057 315.0328 C 169.8221 311.82433 174.55431 308.70264 179.66355 306.73566 M 185.43621 311.81167 C 188.794 310.15612 190.3887 309.1572 194.0606 307.9643" stroke="black" stroke-linecap="round" stroke-linejoin="miter" stroke-width="1"/>
        </g>
        <g id="Graphic_129">
          <path d="M 146.73976 299.938 C 119.1803 266.25423 112.88586 255.0263 78.06568 264.73676 C 90.48445 298.59066 103.24345 297.2297 146.73976 299.938 Z" fill="#FFFFFF"/>
          <path d="M 146.73976 299.938 C 119.1803 266.25423 112.88586 255.0263 78.06568 264.73676 C 90.48445 298.59066 103.24345 297.2297 146.73976 299.938 Z" stroke="black" stroke-linecap="round" stroke-linejoin="miter" stroke-width="2"/>
        </g>
        <g id="Graphic_128">
          <path d="M 78.06228 264.72315 L 88.38857 270.0139 L 138.40387 295.65098 M 88.38857 270.0139 C 92.43742 274.6922 97.40493 282.8069 106.72071 288.91252 M 107.22086 279.6767 C 111.62697 284.54214 115.11443 288.9993 119.3266 292.49355 M 126.42742 289.50965 C 129.08129 292.1465 130.28914 293.59253 133.37852 295.90276 M 88.47363 269.84376 C 94.63197 270.39325 104.12467 269.69746 114.52071 273.69018 M 107.32293 279.5066 C 113.84023 280.2347 119.50183 280.46946 124.79767 281.85084 M 126.51248 289.33953 C 130.19898 289.95366 132.08051 290.08465 135.7636 291.24997" fill="#FFFFFF"/>
          <path d="M 78.06228 264.72315 L 88.38857 270.0139 L 138.40387 295.65098 M 88.38857 270.0139 C 92.43742 274.6922 97.40493 282.8069 106.72071 288.91252 M 107.22086 279.6767 C 111.62697 284.54214 115.11443 288.9993 119.3266 292.49355 M 126.42742 289.50965 C 129.08129 292.1465 130.28914 293.59253 133.37852 295.90276 M 88.47363 269.84376 C 94.63197 270.39325 104.12467 269.69746 114.52071 273.69018 M 107.32293 279.5066 C 113.84023 280.2347 119.50183 280.46946 124.79767 281.85084 M 126.51248 289.33953 C 130.19898 289.95366 132.08051 290.08465 135.7636 291.24997" stroke="black" stroke-linecap="round" stroke-linejoin="miter" stroke-width="1"/>
        </g>
        <g id="Graphic_127">
          <path d="M 142.76534 348.08557 C 128.66895 306.9469 126.68425 294.16965 90.71144 291.11672 C 90.49472 327.2235 103.0007 330.27606 142.76534 348.08557 Z" fill="#FFFFFF"/>
          <path d="M 142.76534 348.08557 C 128.66895 306.9469 126.68425 294.16965 90.71144 291.11672 C 90.49472 327.2235 103.0007 330.27606 142.76534 348.08557 Z" stroke="black" stroke-linecap="round" stroke-linejoin="miter" stroke-width="2"/>
        </g>
        <g id="Graphic_126">
          <path d="M 90.71144 291.11672 L 98.52792 299.6729 L 136.43435 341.176 M 98.52792 299.6729 C 100.68413 305.46847 102.50897 314.798 109.10422 323.7835 M 112.80251 315.30977 C 115.22676 321.41126 116.94337 326.8048 119.67215 331.5527 M 127.35794 331.23357 C 128.91983 334.6217 129.54179 336.4068 131.6369 339.653 M 98.66533 299.5505 C 104.2457 302.21926 113.37957 304.8696 121.72728 312.2551 M 112.93992 315.18738 C 118.78428 318.14543 124.00722 320.34904 128.4981 323.49216 M 127.49535 331.1112 C 130.72942 332.97586 132.45267 333.74724 135.4967 336.12995" fill="#FFFFFF"/>
          <path d="M 90.71144 291.11672 L 98.52792 299.6729 L 136.43435 341.176 M 98.52792 299.6729 C 100.68413 305.46847 102.50897 314.798 109.10422 323.7835 M 112.80251 315.30977 C 115.22676 321.41126 116.94337 326.8048 119.67215 331.5527 M 127.35794 331.23357 C 128.91983 334.6217 129.54179 336.4068 131.6369 339.653 M 98.66533 299.5505 C 104.2457 302.21926 113.37957 304.8696 121.72728 312.2551 M 112.93992 315.18738 C 118.78428 318.14543 124.00722 320.34904 128.4981 323.49216 M 127.49535 331.1112 C 130.72942 332.97586 132.45267 333.74724 135.4967 336.12995" stroke="black" stroke-linecap="round" stroke-linejoin="miter" stroke-width="1"/>
        </g>
        <g id="Graphic_125">
          <path d="M 175.64778 305.06875 C 137.07942 284.89217 126.87229 277.04993 98.67568 299.55077 C 123.34799 325.9751 134.64604 319.5771 175.64778 305.06875 Z" fill="#FFFFFF"/>
          <path d="M 175.64778 305.06875 C 137.07942 284.89217 126.87229 277.04993 98.67568 299.55077 C 123.34799 325.9751 134.64604 319.5771 175.64778 305.06875 Z" stroke="black" stroke-linecap="round" stroke-linejoin="miter" stroke-width="2"/>
        </g>
        <g id="Graphic_124">
          <path d="M 98.66533 299.5505 L 110.22363 300.38272 L 166.2929 304.3907 M 110.22363 300.38272 C 115.77741 303.10674 123.5286 308.63138 134.48887 310.599 M 131.34371 301.89826 C 137.29679 304.65206 142.25147 307.39156 147.50329 308.9572 M 152.8631 303.44357 C 156.33883 304.82762 158.00654 305.6927 161.76484 306.60585 M 110.24813 300.1903 C 116.13071 298.28643 124.58928 293.93153 135.72116 293.53867 M 131.3682 301.70584 C 137.64985 299.83006 142.95164 297.82742 148.36738 297.02678 M 152.88522 303.2343 C 156.51719 302.35624 158.29797 301.74005 162.1441 301.3713" fill="#FFFFFF"/>
          <path d="M 98.66533 299.5505 L 110.22363 300.38272 L 166.2929 304.3907 M 110.22363 300.38272 C 115.77741 303.10674 123.5286 308.63138 134.48887 310.599 M 131.34371 301.89826 C 137.29679 304.65206 142.25147 307.39156 147.50329 308.9572 M 152.8631 303.44357 C 156.33883 304.82762 158.00654 305.6927 161.76484 306.60585 M 110.24813 300.1903 C 116.13071 298.28643 124.58928 293.93153 135.72116 293.53867 M 131.3682 301.70584 C 137.64985 299.83006 142.95164 297.82742 148.36738 297.02678 M 152.88522 303.2343 C 156.51719 302.35624 158.29797 301.74005 162.1441 301.3713" stroke="black" stroke-linecap="round" stroke-linejoin="miter" stroke-width="1"/>
        </g>
        <g id="Graphic_123">
          <path d="M 191.63724 352.57773 C 164.14922 318.87097 157.90724 307.5668 123.04378 317.22226 C 135.3428 351.03864 148.25382 349.771 191.63724 352.57773 Z" fill="#FFFFFF"/>
          <path d="M 191.63724 352.57773 C 164.14922 318.87097 157.90724 307.5668 123.04378 317.22226 C 135.3428 351.03864 148.25382 349.771 191.63724 352.57773 Z" stroke="black" stroke-linecap="round" stroke-linejoin="miter" stroke-width="2"/>
        </g>
        <g id="Graphic_122">
          <path d="M 123.04548 317.2193 L 133.35073 322.54045 L 183.2983 348.27397 M 133.35073 322.54045 C 137.3981 327.23446 142.33758 335.3508 151.64158 341.4807 M 152.174 332.22945 C 156.56874 337.10436 160.0432 341.5658 164.25684 345.077 M 171.33613 342.11408 C 173.98309 344.7561 175.18295 346.213 178.27112 348.52633 M 133.43807 322.35515 C 139.59282 322.92274 149.085 322.2349 159.47557 326.26168 M 152.25283 332.05888 C 158.77818 332.80115 164.42579 333.0563 169.72334 334.44512 M 171.4297 341.952 C 175.11792 342.57277 177.0012 342.71325 180.67178 343.8817" fill="#FFFFFF"/>
          <path d="M 123.04548 317.2193 L 133.35073 322.54045 L 183.2983 348.27397 M 133.35073 322.54045 C 137.3981 327.23446 142.33758 335.3508 151.64158 341.4807 M 152.174 332.22945 C 156.56874 337.10436 160.0432 341.5658 164.25684 345.077 M 171.33613 342.11408 C 173.98309 344.7561 175.18295 346.213 178.27112 348.52633 M 133.43807 322.35515 C 139.59282 322.92274 149.085 322.2349 159.47557 326.26168 M 152.25283 332.05888 C 158.77818 332.80115 164.42579 333.0563 169.72334 334.44512 M 171.4297 341.952 C 175.11792 342.57277 177.0012 342.71325 180.67178 343.8817" stroke="black" stroke-linecap="round" stroke-linejoin="miter" stroke-width="1"/>
        </g>
        <g id="Graphic_121">
          <path d="M 206.25808 300.64077 C 164.12241 295.2128 151.90178 291.68876 133.43892 322.35368 C 165.05908 338.1498 173.65175 329.0329 205.3922 302.59256 C 205.66428 301.9223 205.95274 301.2722 206.25809 300.64077 Z" fill="#FFFFFF"/>
          <path d="M 206.25808 300.64077 C 164.12241 295.2128 151.90178 291.68876 133.43892 322.35368 C 165.05908 338.1498 173.65175 329.0329 205.3922 302.59256 C 205.66428 301.9223 205.95274 301.2722 206.25809 300.64077 Z" stroke="black" stroke-linecap="round" stroke-linejoin="miter" stroke-width="2"/>
        </g>
        <g id="Graphic_120">
          <path d="M 133.80168 322.83297 L 145.17548 319.38355 L 200.27251 302.68474 M 145.17548 319.38355 C 151.48789 319.94973 160.9225 322.39438 172.13153 320.26446 M 165.92808 313.10306 C 172.6369 313.5529 178.37827 314.3556 183.9685 313.9331 M 187.07751 306.6816 C 190.90938 306.73617 192.82835 306.9422 196.7487 306.4462 M 145.1171 319.19767 C 150.04594 315.22042 156.54562 307.95293 167.04717 303.49742 M 165.88224 312.90508 C 171.20268 308.80403 175.54154 304.94836 180.42678 302.19784 M 187.01914 306.49573 C 190.17258 304.32503 191.6522 303.0827 195.19535 301.32057" fill="#FFFFFF"/>
          <path d="M 133.80168 322.83297 L 145.17548 319.38355 L 200.27251 302.68474 M 145.17548 319.38355 C 151.48789 319.94973 160.9225 322.39438 172.13153 320.26446 M 165.92808 313.10306 C 172.6369 313.5529 178.37827 314.3556 183.9685 313.9331 M 187.07751 306.6816 C 190.90938 306.73617 192.82835 306.9422 196.7487 306.4462 M 145.1171 319.19767 C 150.04594 315.22042 156.54562 307.95293 167.04717 303.49742 M 165.88224 312.90508 C 171.20268 308.80403 175.54154 304.94836 180.42678 302.19784 M 187.01914 306.49573 C 190.17258 304.32503 191.6522 303.0827 195.19535 301.32057" stroke="black" stroke-linecap="round" stroke-linejoin="miter" stroke-width="1"/>
        </g>
        <g id="Graphic_119">
          <path d="M 198.5591 319.13565 C 186.54887 311.20193 175.81672 310.8544 155.97676 319.06432 C 172.30528 351.12976 184.96558 348.2981 228.36768 345.7968 C 226.67665 344.17503 225.05474 342.61026 223.4942 341.10323 C 212.90597 342.19023 203.5242 338.19843 190.1152 326.9415 C 193.1046 323.90156 195.89527 321.31253 198.5591 319.13564 Z" fill="#FFFFFF"/>
          <path d="M 198.5591 319.13565 C 186.54887 311.20193 175.81672 310.8544 155.97676 319.06432 C 172.30528 351.12976 184.96558 348.2981 228.36768 345.7968 C 226.67665 344.17503 225.05474 342.61026 223.4942 341.10323 C 212.90597 342.19023 203.5242 338.19843 190.1152 326.9415 C 193.1046 323.90156 195.89527 321.31253 198.5591 319.13564 Z" stroke="black" stroke-linecap="round" stroke-linejoin="miter" stroke-width="2"/>
        </g>
        <g id="Graphic_118">
          <path d="M 202.25284 316.3252 C 203.43518 305.2429 206.46222 298.0819 212.1251 292.44142 L 212.12508 292.44142 C 188.33257 293.05647 178.23674 297.53366 166.91978 322.89064 C 176.82448 326.4068 184.43983 327.98473 190.99514 327.67454 C 190.70373 327.4337 190.41044 327.18935 190.1152 326.9415 C 194.5152 322.4671 198.48468 318.96957 202.25285 316.32524 Z" fill="#FFFFFF"/>
          <path d="M 202.25284 316.3252 C 203.43518 305.2429 206.46222 298.0819 212.1251 292.44142 L 212.12508 292.44142 C 188.33257 293.05647 178.23674 297.53366 166.91978 322.89064 C 176.82448 326.4068 184.43983 327.98473 190.99514 327.67454 C 190.70373 327.4337 190.41044 327.18935 190.1152 326.9415 C 194.5152 322.4671 198.48468 318.96957 202.25285 316.32524 Z" stroke="black" stroke-linecap="round" stroke-linejoin="miter" stroke-width="2"/>
        </g>
        <g id="Line_117">
          <path d="M 156.47798 318.7219 C 156.47798 318.7219 187.74557 330.9305 187.74557 330.9305 C 187.74557 330.9305 200.20598 341.58626 200.20598 341.58626" stroke="black" stroke-linecap="round" stroke-linejoin="round" stroke-width="1"/>
        </g>
        <g id="Line_116">
          <path d="M 199.96843 335.4968 C 199.96843 335.4968 187.96887 331.10334 187.96887 331.10334 C 187.96887 331.10334 193.74113 329.86827 193.74113 329.86827" stroke="black" stroke-linecap="round" stroke-linejoin="round" stroke-width="1"/>
        </g>
        <g id="Line_115">
          <path d="M 186.62216 339.78286 C 173.3001 333.687 167.68932 323.49678 167.68932 323.49678" stroke="black" stroke-linecap="round" stroke-linejoin="round" stroke-width="1"/>
        </g>
        <g id="Graphic_114">
          <path d="M 169.22914 322.27116 L 179.4658 317.47932 C 179.4658 317.47932 222.99767 298.95744 169.22914 322.27116 Z M 178.42924 318.2804 C 183.81058 318.15224 207.97145 320.50805 178.42924 318.2804 Z M 195.2172 311.01004 C 200.91962 310.74608 205.84608 310.87156 195.2172 311.01004 Z M 178.35942 318.1296 C 182.07078 314.31196 206.53757 281.6131 178.35942 318.1296 Z M 195.1566 310.8479 C 199.18417 306.8886 211.70492 289.5256 195.1566 310.8479 Z" fill="#FFFFFF"/>
          <path d="M 169.22914 322.27116 L 179.4658 317.47932 C 179.4658 317.47932 222.99767 298.95744 169.22914 322.27116 Z M 178.42924 318.2804 C 183.81058 318.15224 207.97145 320.50805 178.42924 318.2804 Z M 195.2172 311.01004 C 200.91962 310.74608 205.84608 310.87156 195.2172 311.01004 Z M 178.35942 318.1296 C 182.07078 314.31196 206.53757 281.6131 178.35942 318.1296 Z M 195.1566 310.8479 C 199.18417 306.8886 211.70492 289.5256 195.1566 310.8479 Z" stroke="black" stroke-linecap="round" stroke-linejoin="miter" stroke-width="1"/>
        </g>
      </g>
    </g>
  </g>
</svg>
