<?xml version="1.0" encoding="UTF-8" standalone="no"?>
<!DOCTYPE svg PUBLIC "-//W3C//DTD SVG 1.1//EN" "http://www.w3.org/Graphics/SVG/1.1/DTD/svg11.dtd">
<svg xmlns="http://www.w3.org/2000/svg" xmlns:dc="http://purl.org/dc/elements/1.1/" version="1.1" xmlns:xl="http://www.w3.org/1999/xlink" viewBox="72 81 220.5 315" width="220.5" height="315">
  <defs>
    <clipPath id="artboard_clip_path">
      <path d="M 72 81 L 292.5 81 L 292.5 347.53846 L 261.96923 396 L 72 396 Z"/>
    </clipPath>
  </defs>
  <g id="Ant" fill-opacity="1" stroke="none" stroke-dasharray="none" stroke-opacity="1" fill="none">
    <title>Ant</title>
    <g id="Ant_Art" clip-path="url(#artboard_clip_path)">
      <title>Art</title>
      <g id="Group_53">
        <g id="Graphic_63">
          <path d="M 160.09955 85.61895 C 157.43451 86.03636 156.2786 86.80697 155.12268 88.95826 C 154.54472 90.01786 154.0952 91.07745 154.06309 91.30221 C 154.06309 91.52697 153.48513 92.87554 152.77874 94.32044 C 152.00812 95.89377 151.23751 98.1735 150.8522 100.0037 C 150.49901 101.70547 149.95316 103.6641 149.69629 104.3705 C 149.40731 105.07689 148.92568 106.65022 148.60459 107.90247 C 148.2835 109.1226 147.60922 111.43444 147.06337 113.03988 C 146.51752 114.61321 145.93956 117.1498 145.7469 118.65892 C 145.58636 120.16804 145.23316 122.25511 144.9763 123.3147 C 144.75153 124.43851 144.55888 126.943 144.59099 129.25483 C 144.59099 132.94735 144.68731 133.42898 145.49003 135.06653 C 146.54963 137.24993 146.87071 137.5389 149.7284 138.9838 C 151.78336 140.01129 152.23289 140.10761 154.86581 140.17183 C 157.7235 140.20394 158.23724 140.23605 160.87016 140.65346 C 163.88839 141.10299 165.33328 141.61673 167.42036 143.02951 C 169.34689 144.31387 169.66797 144.69917 170.08539 145.98353 C 170.72757 148.16693 170.40648 148.96965 168.25519 150.31822 C 167.25981 150.9604 166.36077 151.57046 166.26444 151.6989 C 166.16811 151.79522 165.26907 152.59794 164.24158 153.43277 C 162.25084 155.13454 160.3243 158.08855 159.07206 161.45998 C 157.30608 166.11576 156.56758 176.19792 157.7235 179.50513 C 159.00785 183.16554 160.96648 186.50486 162.95723 188.55982 C 164.72322 190.3258 169.53954 193.76145 172.10824 195.11002 C 172.58988 195.3669 173.7458 196.33015 174.70906 197.2292 C 176.15396 198.60988 176.50715 199.18784 176.6677 200.31165 C 176.92457 201.9492 176.6677 202.78403 175.9292 202.78403 C 175.64021 202.78403 175.12647 202.97668 174.77328 203.23355 C 174.42008 203.4583 173.7779 203.7794 173.32838 203.90783 C 171.30552 204.55 167.86988 207.24715 168.12675 208.01776 C 168.15886 208.1783 168.06253 208.21042 167.90199 208.1141 C 167.74145 208.01776 167.00294 208.69205 166.29655 209.5911 C 165.59015 210.52225 164.85165 211.4534 164.6911 211.64606 C 163.5994 212.99463 162.37927 215.85232 161.86553 218.26048 C 161.57655 219.8338 161.19125 221.08605 161.06281 221.08605 C 160.74172 221.08605 158.26934 218.61367 155.70064 215.69177 C 154.4484 214.27898 153.45302 213.41205 153.19615 213.54048 C 152.93928 213.6047 152.81084 213.5726 152.93928 213.41205 C 153.0356 213.2515 151.97602 211.67817 150.59534 209.9443 C 149.21466 208.21042 147.545 205.9949 146.90282 205.03164 C 146.26065 204.06838 145.61847 203.10511 145.45793 202.94457 C 145.32949 202.75192 144.68731 201.88498 144.04514 201.01804 C 142.50391 198.93097 136.69222 193.27982 134.47671 191.67438 C 133.51344 191.0001 132.6144 190.2937 132.48596 190.10104 C 132.35753 189.9405 132.22909 188.8167 132.22909 187.62866 C 132.22909 186.44064 132.03644 184.5141 131.77957 183.29397 C 131.5548 182.10595 131.33005 180.88581 131.33005 180.62894 C 130.55943 165.95521 130.17413 163.16174 128.18338 157.41427 C 127.57331 155.61617 126.86692 153.49699 126.61005 152.69427 C 126.03209 150.6393 125.74311 149.99713 123.43128 145.21291 C 122.30747 142.90108 121.27998 140.62135 121.15155 140.17183 C 120.66992 138.56639 118.48652 134.45646 116.33523 131.08503 C 112.89958 125.75497 111.00516 122.80096 109.43183 120.26436 C 108.11537 118.17729 106.47782 115.86545 104.2302 113.00777 C 102.46422 110.69593 101.56517 109.57213 101.24408 109.21893 C 101.05143 109.02628 100.53769 108.35199 100.12027 107.74192 C 99.70286 107.13186 99.02857 106.26492 98.64327 105.8154 C 95.94613 102.73295 95.23973 101.86601 93.63429 99.87526 C 88.11158 93.03608 83.32736 90.01786 80.53389 91.6233 C 78.22206 92.97187 78.67158 95.34792 81.91457 99.13676 C 83.16682 100.61377 84.45117 101.99444 84.74015 102.21921 C 85.06124 102.44397 85.51076 102.79716 85.73552 103.02193 C 85.96028 103.24669 87.66205 104.78791 89.55647 106.45757 C 91.41878 108.12723 94.11592 110.59961 95.59293 111.91607 C 98.22585 114.29212 101.82204 117.88831 104.13388 120.4249 C 105.70721 122.15878 111.39047 129.70436 112.51428 131.56667 C 113.02802 132.36939 114.08761 133.91061 114.89033 134.9381 C 115.69305 135.96557 116.84897 137.86 117.42693 139.17646 C 118.51863 141.58462 118.51863 141.58462 117.94067 142.54788 C 115.91781 145.9193 115.62883 147.6853 116.72053 150.09345 C 117.00951 150.73563 117.26638 151.3778 117.29849 151.57046 C 117.3306 151.731 117.52325 152.30896 117.7159 152.7906 C 117.94067 153.30434 118.10121 153.78597 118.10121 153.8823 C 118.10121 153.94651 118.51863 154.94189 119.03237 156.0657 C 119.54611 157.1895 120.34883 159.43712 120.83046 161.10678 C 121.27998 162.74433 121.89005 164.7993 122.14692 165.69834 C 122.4038 166.56528 122.66066 167.59276 122.72488 167.94596 C 123.07808 169.74405 124.55508 174.94568 125.3257 176.93643 C 127.38066 182.2986 127.79808 184.03248 128.21549 188.43138 C 128.31182 189.29832 128.44025 190.13315 128.56869 190.2937 C 128.66501 190.45424 128.76134 191.16063 128.76134 191.86703 C 128.76134 192.66975 128.954 193.27982 129.24297 193.44036 C 129.49984 193.5688 129.78882 194.24308 129.85304 194.94947 C 130.01358 196.1696 132.77494 202.14185 133.19236 202.14185 C 133.32079 202.14185 133.80242 202.6877 134.21984 203.32988 C 135.1831 204.77477 141.41221 211.13232 143.46718 212.80198 C 144.2699 213.44415 146.068 214.82483 147.48078 215.88442 C 148.89357 216.94402 150.69166 218.3568 151.49438 218.99898 C 154.22363 221.2145 158.01247 224.1364 158.55832 224.45748 C 158.8473 224.65013 159.61791 225.2281 160.19587 225.77394 C 161.12703 226.57666 161.3839 227.0583 161.7371 228.9527 C 162.31506 232.25992 163.11778 234.44332 165.30118 238.84223 C 166.58553 241.41094 167.35614 243.40168 167.5488 244.68603 C 167.70934 245.74563 167.9341 247.19052 168.06253 247.89692 C 168.15886 248.6033 168.3194 249.2776 168.38362 249.40603 C 168.54417 249.6629 168.92947 257.04793 168.76893 257.04793 C 168.54417 257.01582 162.4756 251.30045 160.83805 249.50236 C 156.95288 245.36032 145.0084 233.6406 142.37548 231.4572 C 139.64623 229.14537 138.00868 228.31054 137.75181 229.04904 C 137.68759 229.2738 137.43072 229.43435 137.17385 229.43435 C 136.59589 229.43435 136.2427 229.81965 132.87127 233.92958 C 131.36215 235.75978 130.17413 237.39733 130.23835 237.55788 C 130.27045 237.6863 130.17413 237.75053 130.01358 237.6221 C 129.59617 237.39733 127.66964 239.4523 125.3578 242.59896 C 124.39454 243.91542 123.27073 245.39243 122.82121 245.84195 C 111.10149 258.68548 111.00516 258.8139 109.11074 262.31378 L 107.76217 264.88248 L 108.46857 268.2539 C 109.20707 271.8822 110.33088 276.53798 111.19782 279.68465 C 111.4868 280.74424 111.83999 282.18913 112.00054 282.89553 C 112.12897 283.60192 112.64271 285.7532 113.09224 287.71185 C 114.18394 292.2392 114.15183 292.01443 114.56924 297.63348 C 114.98666 303.28463 116.14257 308.83945 117.04162 309.7385 C 117.65169 310.38068 117.6838 310.38068 118.4223 309.7706 C 118.87182 309.4174 119.22502 308.6468 119.38556 307.74775 C 119.514 306.97714 119.8672 305.11483 120.18829 303.63783 C 121.15155 299.04626 120.66992 295.2253 117.90856 284.6615 C 117.45904 282.99186 116.81686 280.39104 116.49577 278.88193 C 116.17468 277.3728 115.24353 274.19404 114.4408 271.818 C 113.6702 269.44193 112.89958 266.809 112.80326 265.97418 C 112.5785 264.5935 112.67482 264.33663 113.60598 263.1486 C 114.18394 262.4101 115.40407 261.41473 116.30312 260.901 C 117.84434 260.00194 122.94964 255.18562 128.88977 249.02073 C 132.42175 245.3282 135.63263 241.08985 137.3665 237.6863 C 138.16922 236.1772 138.97194 234.82863 139.1646 234.7644 C 139.96732 234.44332 141.54065 235.92033 142.85711 238.16794 C 144.36623 240.80087 148.86146 246.93365 150.65955 248.79596 C 151.30173 249.47025 151.81547 250.14453 151.81547 250.27297 C 151.81547 250.56195 157.0492 255.7957 158.39778 256.82317 C 158.91152 257.20847 159.939 258.0754 160.6454 258.7176 C 162.28295 260.1946 165.20485 261.51106 167.25981 261.76793 L 168.76893 261.96058 L 168.76893 263.59813 C 168.76893 265.97418 169.15423 273.61608 169.34689 274.48302 C 169.44321 274.86832 169.60376 275.70315 169.70008 276.31322 C 169.98906 278.1113 170.98444 281.06533 171.65872 282.0286 C 171.9798 282.51022 172.23668 283.1845 172.23668 283.5377 C 172.20457 284.3083 170.08539 285.52845 167.38825 286.29906 C 164.98009 287.00546 160.16376 288.932 158.20513 289.95947 C 157.3703 290.409 156.47125 290.7622 156.21438 290.7622 C 155.9575 290.7622 154.73737 291.27593 153.51724 291.9181 C 152.32921 292.5603 150.4669 293.52355 149.40731 294.0694 C 144.9763 296.317 141.7333 299.07837 138.58664 303.1883 C 137.0133 305.27538 136.40324 307.234 136.40324 310.31646 C 136.40324 311.11918 135.8895 314.33006 135.24732 317.4125 C 134.60514 320.49496 133.83453 324.54067 133.51344 326.40298 C 133.19236 328.2653 132.71072 330.4166 132.45385 331.2193 C 132.16487 332.02202 131.84379 333.21005 131.74746 333.88433 C 131.61902 334.5265 131.39426 335.1687 131.23372 335.265 C 131.07317 335.36134 130.94474 335.71454 130.94474 336.06773 C 130.94474 336.45304 130.52732 337.8016 129.98147 339.15018 C 128.92188 341.7831 128.76134 343.77385 129.49984 345.25085 C 130.0778 346.40677 129.91726 349.7461 129.21086 351.6726 C 128.9861 352.3469 128.53658 353.7597 128.21549 354.8193 C 127.8944 355.87887 127.5412 357.099 127.38066 357.54853 C 127.25223 357.99806 126.86692 359.6356 126.51372 361.24105 C 126.16053 362.8144 125.58257 365.4152 125.19726 367.02063 C 124.84406 368.59397 124.33032 371.41954 124.04134 373.28185 C 123.78447 375.14416 123.39917 377.58444 123.20651 378.74035 C 122.17903 384.96946 122.14692 387.89137 123.11019 388.27667 C 123.39917 388.373 123.75236 388.7904 123.91291 389.20783 C 124.52298 390.8454 127.47699 389.59313 128.05495 387.44184 C 128.53658 385.67586 129.62828 379.41464 130.01358 376.3322 C 130.20624 374.9194 130.39889 373.24974 130.4631 372.63968 C 130.55943 372.0296 130.84841 369.8462 131.1374 367.82335 C 131.39426 365.8005 131.68324 362.97492 131.77957 361.56213 C 131.8759 359.2503 132.06855 357.7733 133.22447 350.4846 C 133.41712 349.20024 134.02719 347.43425 134.7978 345.92514 C 135.50419 344.54446 136.49956 342.1042 137.0133 340.46664 C 137.94446 337.57685 137.97657 337.19154 138.13711 329.7744 C 138.29766 323.6095 138.4582 321.61876 138.93984 319.82067 C 139.26092 318.56843 139.64623 316.41714 139.77466 315.00435 C 139.99943 312.37142 140.48106 310.0917 140.96269 309.57796 C 141.09113 309.3853 141.21956 309.0321 141.21956 308.77524 C 141.25167 307.68354 142.53602 306.75238 145.61847 305.66068 C 147.35235 305.0506 149.05411 304.40844 149.40731 304.2479 C 152.265 303.09198 153.93465 302.28926 154.51261 301.80762 C 154.89792 301.48653 155.98962 300.81225 156.95288 300.2985 C 159.1684 299.1105 162.73247 296.47756 165.3654 294.0373 C 166.4892 293.0098 167.90199 291.82178 168.51206 291.40437 C 169.12212 290.98695 169.7964 290.50532 169.95695 290.31267 C 170.856 289.3494 173.0394 287.8724 173.32838 288.03294 C 173.52103 288.12927 173.64947 288.09716 173.64947 287.9366 C 173.64947 287.32655 175.03015 287.23022 175.44756 287.80818 C 175.9292 288.45035 176.76402 291.37226 177.0209 293.23457 C 177.14933 294.4226 177.08511 294.64736 176.12185 295.45008 C 175.576 295.9317 174.00267 296.79865 172.6862 297.4087 C 171.36974 297.98667 170.05328 298.62885 169.7964 298.7894 C 169.53954 298.94994 168.76893 299.39946 168.12675 299.75266 C 165.3654 301.22966 161.25546 305.757 158.78309 309.96326 C 158.1409 311.08707 157.59506 312.08245 157.59506 312.17877 C 157.59506 312.2751 157.17764 313.23836 156.69601 314.33006 C 156.18227 315.42176 155.5401 317.57305 155.219 319.1785 C 154.89792 320.75183 154.41629 322.96733 154.15942 324.09114 C 153.54935 326.4993 153.742 334.1733 154.51261 337.8337 C 154.76948 339.05385 155.09057 340.78773 155.1869 341.68678 C 155.34744 343.1959 155.5722 344.7371 155.86118 346.1499 C 155.9254 346.5031 156.59969 348.3975 157.3703 350.32405 C 158.1409 352.2827 159.00785 354.72296 159.32894 355.78255 C 160.87016 361.0484 165.55805 371.16267 167.35614 373.025 C 167.9341 373.60294 168.96158 374.8552 169.63587 375.78634 C 171.01655 377.64865 174.1632 380.3779 175.80076 381.18062 C 177.0209 381.7586 179.2043 381.8549 183.9885 381.56593 C 187.97 381.30906 189.96075 380.53845 192.3689 378.29083 C 197.4742 373.53872 196.79993 374.34144 201.19883 367.88757 C 202.67584 365.7363 204.24917 363.13547 204.6987 362.108 C 205.69407 359.82826 206.59312 357.7733 207.36373 356.10364 C 209.38658 351.5763 210.5746 347.81956 211.02413 344.54446 C 211.08835 343.9986 211.21679 343.35643 211.3131 343.09956 C 211.76264 341.94365 212.21216 338.4438 212.3727 334.26964 C 212.53325 330.76978 212.46903 329.0038 212.0195 326.24243 C 210.38196 315.77496 207.36373 308.9679 201.7768 303.05987 C 198.5017 299.5921 194.74496 296.41334 193.10741 295.73906 C 192.3368 295.41797 191.88728 294.96844 191.72673 294.35838 C 191.37354 293.10613 191.50197 287.9045 191.91939 287.1018 C 192.11204 286.71648 192.40102 286.0101 192.59367 285.52845 C 192.85054 284.78995 193.0432 284.6615 193.65326 284.85417 C 194.39177 285.07893 198.05217 287.8403 198.05217 288.16138 C 198.05217 288.2577 198.37326 288.70723 198.79067 289.15675 C 199.17598 289.60627 199.88237 290.53743 200.29979 291.24382 C 201.26305 292.81715 203.57489 296.02804 204.28128 296.73443 C 204.57026 296.9913 205.21244 297.7619 205.69407 298.4041 C 207.81325 301.26177 211.9553 304.72953 214.5561 305.85333 C 215.35882 306.17442 216.22576 306.8166 216.54685 307.29823 C 217.22114 308.35782 218.47338 313.14204 218.73025 315.83918 C 218.85868 316.963 219.08345 318.76108 219.244 319.82067 C 219.40453 320.88026 219.69351 323.03155 219.91828 324.637 C 220.30358 327.78366 222.1659 335.10447 222.9365 336.58147 C 223.19338 337.0631 223.41814 337.67317 223.41814 337.93004 C 223.41814 338.1869 224.4135 340.20977 225.63365 342.42528 C 228.10602 347.04895 228.4271 347.85167 228.7161 350.8057 C 228.81242 351.9616 228.97296 353.24595 229.0693 353.69547 C 229.872 358.28704 230.5463 362.39696 231.12425 366.69955 C 231.54167 369.5251 231.9912 372.15804 232.11963 372.57546 C 232.28017 372.96077 232.7618 375.43314 233.21133 378.06607 C 233.66085 380.6669 234.14248 383.2356 234.30303 383.74933 C 235.58738 388.0519 237.32126 390.33164 239.92207 391.10225 C 240.789 391.3591 241.5275 391.55177 241.55962 391.48755 C 241.62384 391.45544 242.04125 390.5885 242.52288 389.56102 C 243.16506 388.21245 243.3577 387.37762 243.22928 386.5107 C 242.6192 381.8549 239.72942 368.91505 238.5735 365.7363 C 238.38085 365.19043 237.4818 362.5896 236.61486 359.9567 C 235.74792 357.29166 234.30303 353.31017 233.40398 351.09466 C 232.50493 348.84704 231.76643 346.8884 231.76643 346.72786 C 231.76643 346.5352 231.57378 345.98936 231.3169 345.4756 C 231.06004 344.96188 230.80317 343.5812 230.77106 342.42528 C 230.73895 341.23725 230.51419 339.15018 230.28942 337.7695 C 230.09677 336.3567 229.8078 334.077 229.67936 332.6642 C 229.55092 331.2514 229.22983 329.068 228.97296 327.84788 C 228.7161 326.59563 228.45922 325.31128 228.395 324.9581 C 228.17024 323.38475 227.43174 320.88026 226.46847 318.5363 C 226.2437 317.99047 225.76208 316.3529 225.34467 314.8438 C 224.95936 313.3347 224.0282 310.7981 223.2576 309.16054 C 222.48698 307.5551 221.7806 305.757 221.65215 305.24327 C 221.52372 304.6974 221.26685 304.2479 221.04208 304.2479 C 220.62467 304.2479 219.88617 302.93143 219.88617 302.22504 C 219.88617 301.80762 217.7991 299.46368 213.8497 295.41797 C 211.76264 293.2988 207.2995 289.47784 205.18033 288.03294 C 204.92346 287.8403 204.28128 287.29444 203.70332 286.7807 C 202.67584 285.81743 201.48781 284.9826 198.24482 282.95975 C 197.15312 282.28546 195.9651 281.41852 195.6119 281.09744 L 194.9055 280.45526 L 196.02931 277.3407 C 196.6715 275.63894 197.41 273.13445 197.73108 271.78588 C 198.02006 270.4373 198.37326 269.21717 198.46959 269.05663 C 198.5659 268.8961 198.72646 267.38697 198.8549 265.7173 C 198.98333 264.04765 199.2402 262.50643 199.43285 262.31378 C 199.6576 262.12112 200.90986 261.38262 202.22632 260.70834 C 204.24917 259.68085 206.72155 258.10752 208.16645 256.9516 C 208.3591 256.82317 208.96917 256.37364 209.54713 255.92412 C 212.30849 253.96548 217.0606 248.79596 218.5376 246.19515 C 218.76236 245.77773 219.9825 243.4659 221.23474 241.05774 C 222.48698 238.64958 223.77133 236.36985 224.09242 236.04876 C 224.67038 235.4387 224.67038 235.4387 225.7942 236.30563 C 226.40426 236.75516 227.56017 237.91107 228.29868 238.81012 C 229.0693 239.70917 230.67473 241.50726 231.89487 242.7916 C 233.115 244.07597 234.33514 245.48876 234.62411 245.90617 C 234.9131 246.3557 236.26166 247.92903 237.61023 249.43814 C 240.98166 253.09855 244.25676 255.24984 247.43553 255.7957 C 249.68315 256.2131 249.8116 256.27732 250.29322 257.36902 C 250.5501 257.9791 250.67852 258.91024 250.5822 259.4561 C 250.16478 261.9927 249.1373 267.00166 248.97676 267.29064 C 248.88043 267.4512 248.62356 269.08874 248.46302 270.91894 C 248.27036 272.71703 247.98138 274.93254 247.82084 275.8316 C 247.6603 276.69853 247.43553 278.94614 247.3392 280.77635 C 247.21077 282.60655 247.01812 284.43675 246.85757 284.82206 C 246.31172 286.26695 246.9539 298.8536 247.6603 300.6196 C 248.0777 301.64708 249.58682 302.89932 249.97213 302.54613 C 250.06846 302.4177 250.35744 302.57823 250.5822 302.89932 C 250.9675 303.41306 251.03172 303.38096 251.80233 302.67456 C 253.1509 301.3902 253.60043 299.5279 253.31145 296.317 C 253.1509 294.7437 253.0867 291.24382 253.1509 288.51457 C 253.24723 284.40464 253.5041 267.098 253.63254 257.85065 C 253.66464 255.4746 253.37566 253.83705 252.95825 253.83705 C 252.7977 253.83705 252.15553 253.06644 251.48124 252.13528 C 249.36206 249.2455 246.31172 246.0346 244.4173 244.68603 C 243.42193 243.97964 241.97703 242.88794 241.27064 242.24576 C 240.53214 241.6357 239.44044 240.76876 238.83037 240.35134 C 238.2203 239.93393 236.83962 238.84223 235.78003 237.94318 C 233.4361 235.92033 230.64262 233.92958 229.35827 233.2874 C 228.84453 233.03053 227.72072 232.35625 226.85378 231.7783 C 226.01895 231.20033 225.24834 230.7187 225.152 230.7187 C 225.0557 230.7187 224.47773 230.3334 223.89977 229.88387 C 222.8723 229.11326 222.71174 229.08115 221.58793 229.43435 C 220.23936 229.88387 215.93678 234.09012 212.88644 237.94318 C 211.92318 239.16332 210.34985 240.99352 209.4508 241.95679 C 208.51965 242.92005 206.68944 245.10345 205.4051 246.80522 C 202.74006 250.30508 198.66224 255.05718 198.30904 255.0893 C 198.02006 255.1214 197.92374 252.00685 197.98795 246.7731 L 198.02006 243.40168 L 199.75394 239.8697 C 201.61625 236.11298 202.22632 234.53965 202.22632 233.2553 C 202.22632 232.83788 202.45108 231.7783 202.70795 230.91135 C 202.96482 230.0444 203.18958 228.82428 203.18958 228.1821 C 203.18958 226.99408 203.76754 226.25557 205.53353 225.09966 C 206.04727 224.77857 206.9142 224.07217 207.46005 223.55843 C 208.03801 223.0447 209.03339 222.24197 209.73978 221.82456 C 210.41407 221.37503 211.56998 220.5081 212.30849 219.8338 C 213.01488 219.19163 214.2029 218.26048 214.9093 217.77884 C 217.89542 215.756 219.6614 214.3432 222.5512 211.7745 C 224.25297 210.26538 225.63365 208.94892 225.63365 208.8526 C 225.66575 208.72416 226.75745 207.53613 228.07392 206.15545 C 229.39038 204.80688 230.48208 203.55464 230.48208 203.4262 C 230.48208 203.26566 230.77106 202.84824 231.12425 202.52716 C 232.11963 201.596 234.30303 197.2292 234.5278 195.68798 C 234.62411 194.91737 234.9131 194.11465 235.13786 193.9541 C 235.3305 193.76145 235.6195 192.99084 235.71581 192.18812 C 236.87173 183.55084 236.90384 183.32608 239.76153 175.81262 C 240.14683 174.84935 240.4358 173.72555 240.4358 173.34024 C 240.4358 172.92282 240.56425 172.34487 240.7569 172.02378 C 240.91744 171.7348 241.36697 170.16147 241.72016 168.58813 C 243.42193 161.42787 245.28424 155.90515 247.91717 150.18978 C 248.752 148.32747 248.49512 146.14407 247.17866 143.99278 C 246.66492 143.12584 246.2154 142.16258 246.2154 141.9057 C 246.2154 140.84612 248.0135 137.37836 249.77948 135.03442 C 250.77485 133.71796 252.0592 131.82354 252.66927 130.86027 C 253.24723 129.89701 253.8252 129.03007 253.9215 128.93374 C 254.04995 128.83742 254.9811 127.61728 256.0407 126.2045 C 260.85702 119.71851 263.13675 117.34246 272.99415 108.54464 C 278.70952 103.43934 279.54435 102.66873 281.72775 100.42111 C 285.70925 96.31118 286.47986 93.42139 283.97537 92.10493 C 282.6268 91.36643 280.7966 91.52697 278.87007 92.58656 C 277.00776 93.58193 272.67306 97.69186 270.52177 100.51744 C 269.71905 101.57703 268.65946 102.89349 268.14572 103.40723 C 267.6641 103.95308 266.34763 105.55852 265.22382 106.9392 C 264.13212 108.35199 262.75144 110.08587 262.17348 110.76015 C 261.59552 111.46655 260.88913 112.49403 260.53593 113.00777 C 260.21484 113.55362 259.41212 114.61321 258.76995 115.35171 C 258.09566 116.09022 256.7792 117.92042 255.81594 119.46164 C 254.85267 120.97076 253.34356 123.37892 252.4124 124.7917 C 251.48124 126.17238 250.35744 128.0347 249.8758 128.86953 C 249.39417 129.70436 248.17404 131.59878 247.17866 133.10789 C 246.1833 134.617 244.8026 137.1215 244.12833 138.72693 C 242.77975 141.96992 240.33948 147.23577 239.60098 148.61645 C 238.9267 149.83658 235.39473 160.0793 234.84888 162.48746 C 234.36724 164.4461 233.91772 168.97344 233.37187 177.48228 C 233.21133 180.05098 232.92235 182.87656 232.7618 183.7435 C 232.56915 184.57833 232.3765 186.37642 232.31228 187.7571 C 232.21595 189.10567 232.0554 190.35791 231.92697 190.55057 C 231.79854 190.77533 231.12425 191.32118 230.38575 191.7707 C 229.64725 192.25233 227.49596 194.14675 225.60154 195.97696 C 223.70712 197.83927 222.03746 199.4447 221.87691 199.54104 C 221.55583 199.7658 219.01923 203.20144 216.99637 206.18756 C 213.94604 210.65069 203.89598 221.85666 203.38223 221.37503 C 203.2538 221.2466 203.09325 220.37966 202.99693 219.4485 C 202.80428 217.52197 201.61625 213.70102 201.19883 213.70102 C 201.0704 213.70102 200.94196 213.54048 200.94196 213.34783 C 200.94196 212.8662 196.3504 207.0866 194.93761 205.80226 C 194.32755 205.2243 192.91476 204.32525 191.82306 203.7794 C 190.1213 202.94457 189.73599 202.62348 189.57544 201.78865 C 188.99748 198.86675 189.86442 197.32553 192.88265 195.7522 C 197.7953 193.2477 198.59802 192.73397 199.36863 191.86703 C 199.85026 191.32118 200.29979 190.90376 200.42822 190.90376 C 200.52455 190.90376 201.0704 190.51846 201.61625 190.00472 C 202.70795 189.07356 205.75829 183.13343 205.75829 181.97751 C 205.75829 181.62431 205.91883 181.2069 206.07938 181.11057 C 206.27203 181.01425 206.40046 180.56472 206.40046 180.1152 C 206.40046 179.66568 206.62522 178.79874 206.9142 178.12445 C 207.6206 176.51901 207.6206 169.29453 206.9142 166.9827 C 206.62522 166.08365 206.40046 165.08827 206.40046 164.70297 C 206.40046 164.02868 205.75829 162.07004 204.40972 158.6344 C 203.607 156.51522 201.0704 152.50162 199.56128 150.86407 C 198.63013 149.8687 198.63013 149.77237 198.8549 147.6853 C 199.04754 145.9193 199.2402 145.34135 199.9466 144.63496 C 201.23094 143.38271 203.73543 142.74054 208.64808 142.41945 C 211.21679 142.2589 213.91393 141.8736 215.2304 141.48829 C 216.48263 141.1351 217.92753 140.84612 218.44127 140.84612 C 218.98712 140.814 220.3357 140.52503 221.4916 140.17183 C 222.64753 139.81863 223.89977 139.52965 224.31718 139.52965 C 224.7025 139.52965 225.31256 139.24067 225.66575 138.88748 C 226.01895 138.53428 226.62902 138.2453 227.04643 138.2453 C 227.46385 138.2453 228.58766 137.69945 229.55092 137.02517 C 231.18847 135.90136 231.3169 135.6766 231.9912 133.42898 C 232.53704 131.53456 232.66548 130.37864 232.60126 127.93837 C 232.53704 126.2366 232.4086 124.69538 232.31228 124.53484 C 232.15174 124.27796 230.9316 116.70028 230.6105 114.00314 C 230.51419 113.29675 230.38575 112.49403 230.28942 112.23716 C 230.1931 111.98029 229.77568 110.43906 229.35827 108.86573 C 228.97296 107.26029 228.26657 105.17322 227.81705 104.20995 C 227.36752 103.24669 226.918 101.99444 226.78956 101.4807 C 226.43637 99.90737 225.56943 97.4671 224.99147 96.50384 C 224.83093 96.24697 224.60616 95.79744 224.47773 95.54057 C 223.93188 94.32044 221.74848 91.68751 220.7531 91.07745 C 218.63392 89.76098 216.48263 90.14629 215.6157 91.97649 C 215.00563 93.22874 215.2946 94.35255 216.51474 95.54057 C 217.34957 96.34329 217.8312 96.56805 218.82658 96.56805 C 220.6889 96.53595 221.00998 96.7286 222.1659 98.52669 C 224.15664 101.60914 225.5052 105.01267 225.8584 107.90247 C 226.11528 110.18219 226.08317 110.02165 226.9501 113.68205 C 227.59228 116.53974 228.29868 119.84695 228.94085 122.99361 C 229.1014 123.86055 229.19772 126.10817 229.1335 127.97048 C 229.03718 130.73184 228.87664 131.59878 228.26657 132.7868 C 227.11065 135.00231 225.21623 136.19034 222.32644 136.51142 C 221.33106 136.63986 220.52834 136.83251 220.52834 136.96095 C 220.52834 137.08938 219.95038 137.1536 219.244 137.08938 C 218.5376 137.05727 217.51011 137.1215 216.93216 137.28204 C 216.3542 137.44258 215.45515 137.60312 214.9093 137.63523 C 214.39556 137.69945 213.8176 137.82789 213.62495 137.95632 C 213.4644 138.08476 212.50114 138.14897 211.53787 138.11687 C 209.99665 138.05265 206.75366 138.66272 200.84564 140.20394 C 198.98333 140.68557 196.3183 143.44693 195.644 145.534 C 195.32292 146.46516 195.03394 147.23577 194.93761 147.23577 C 194.8734 147.23577 194.39177 147.011 193.87802 146.75414 C 193.33217 146.46516 192.91476 146.33672 192.91476 146.46516 C 192.91476 146.5936 192.7221 146.52938 192.52945 146.36883 C 191.85517 145.85509 189.31857 145.34135 187.9379 145.43768 C 184.91966 145.66244 179.49327 146.33672 178.1126 146.6257 C 177.27776 146.81836 176.12185 146.9789 175.54389 146.9789 C 174.93382 146.9789 174.25954 147.13944 174.06688 147.29999 C 173.58525 147.6853 173.45682 147.3642 173.23205 145.37346 C 173.13573 144.63496 172.6541 143.19006 172.14035 142.16258 C 170.56702 139.08013 167.64512 137.73156 161.7692 137.41047 C 160.2601 137.31415 158.8152 137.18571 158.55832 137.08938 C 158.30145 136.99306 156.6318 136.7683 154.89792 136.60775 C 152.36132 136.38299 151.46227 136.19034 150.49901 135.54816 C 148.92568 134.48857 147.96241 132.01619 147.96241 129.06218 C 147.96241 127.00721 149.27887 118.75525 149.85683 117.31035 C 150.01738 116.89294 150.33847 115.92967 150.53112 115.12695 C 150.75588 114.32423 151.14119 113.07199 151.36595 112.30138 C 151.62282 111.56287 151.81547 110.66383 151.81547 110.34274 C 151.81547 109.73267 153.87044 103.59989 154.38418 102.66873 C 154.54472 102.37975 155.12268 100.7422 155.66853 99.07254 C 156.21438 97.40288 157.0492 95.47635 157.49873 94.80207 C 158.33356 93.58193 160.74172 91.68751 161.416 91.68751 C 161.60866 91.68751 162.05818 91.20588 162.41138 90.62792 C 163.24621 89.24724 163.182 87.03174 162.28295 86.06847 C 161.70499 85.4584 161.416 85.39419 160.09955 85.61895 Z" fill="black"/>
        </g>
        <g id="Graphic_62">
          <path d="M 161.57655 87.38493 C 161.67288 87.67391 161.7692 88.31609 161.7692 88.82983 C 161.7692 89.76098 161.67288 89.85731 158.36567 92.0086 C 156.95288 92.90765 155.60431 95.15527 154.86581 97.75608 C 154.64105 98.5588 153.77411 101.19172 152.93928 103.56778 C 152.10445 105.94383 151.1733 108.99417 150.8522 110.31063 C 150.49901 111.62709 149.88894 113.8426 149.40731 115.22328 C 148.95779 116.63607 148.50826 118.27362 148.41194 118.91579 C 148.31561 119.59008 148.18717 120.26436 148.12296 120.48912 C 147.73765 121.67715 146.93493 127.39252 146.93493 129.06218 C 146.96704 132.94735 147.73765 135.22707 149.53575 136.4472 C 151.23751 137.63523 153.3888 137.98843 162.89301 138.72693 C 166.81029 139.04802 169.50743 140.49292 171.40185 143.3506 C 172.20457 144.53863 172.36512 145.11659 172.36512 146.65781 C 172.36512 147.6853 172.23668 148.52012 172.04403 148.52012 C 171.88348 148.52012 171.72294 148.1027 171.72294 147.58897 C 171.72294 146.11196 170.8239 143.96067 169.7322 142.83686 C 168.51206 141.58462 166.00757 140.36448 163.69573 139.88285 C 161.3839 139.43333 155.5401 138.82326 154.25574 138.91959 C 152.42554 139.04802 148.95779 137.76367 147.8982 136.54353 C 146.67806 135.13075 145.29738 131.88775 145.52214 130.76395 C 145.61847 130.2181 145.7148 128.64476 145.7469 127.3283 C 145.7469 126.01184 146.03588 123.53946 146.38908 121.8698 C 146.71017 120.20014 147.03126 118.01675 147.09548 117.05348 C 147.1918 116.09022 147.35235 114.99852 147.48078 114.64532 C 147.60922 114.29212 148.05874 113.20042 148.44405 112.23716 C 148.82935 111.27389 149.3431 109.66845 149.56785 108.70519 C 149.79262 107.74192 150.37057 105.59063 150.88432 103.95308 C 151.39806 102.31553 151.81547 100.64587 151.81547 100.22846 C 151.81547 99.39363 152.81084 96.79282 154.51261 93.22874 C 155.15479 91.88017 155.66853 90.66003 155.66853 90.5637 C 155.66853 90.01786 157.4024 87.80235 158.1409 87.41704 C 159.39315 86.74276 161.31968 86.74276 161.57655 87.38493 Z" fill="#FFFFFF"/>
        </g>
        <g id="Graphic_61">
          <path d="M 221.4274 93.51772 C 224.60616 96.79282 226.69324 102.25132 229.5188 114.80586 C 230.8995 120.84232 231.76643 128.25946 231.41323 131.11714 C 230.9316 135.22707 229.5188 136.57564 224.15664 138.05265 C 222.42276 138.53428 220.721 139.04802 220.3678 139.20857 C 220.0146 139.36911 218.85868 139.59387 217.7991 139.6902 C 216.7395 139.81863 215.6157 140.13972 215.32671 140.3966 C 215.00563 140.68557 214.74876 140.74979 214.74876 140.58924 C 214.74876 140.36448 214.2029 140.3966 213.23964 140.68557 C 212.3727 140.94244 210.25352 141.1672 208.327 141.19931 C 206.46468 141.19931 204.60237 141.35986 204.15285 141.5204 C 203.70332 141.68094 202.9327 141.8736 202.45108 141.93781 C 200.84564 142.16258 199.04754 143.41482 198.37326 144.82761 C 198.02006 145.56611 197.73108 146.43305 197.73108 146.78625 C 197.73108 147.81373 197.34578 148.84121 197.0568 148.64856 C 196.41462 148.26325 196.76782 145.75876 197.69897 144.31387 C 199.43285 141.55251 201.61625 140.52503 207.04264 139.85074 C 222.48698 137.98843 225.53732 137.34625 227.84915 135.45183 C 228.58766 134.84177 229.19772 134.19959 229.19772 134.03905 C 229.19772 133.8464 229.5188 133.04367 229.872 132.20884 C 230.51419 130.86027 230.5463 130.31442 230.38575 126.84667 C 230.2252 123.34681 229.872 121.1313 228.3629 114.80586 C 228.10602 113.64995 227.81705 112.46192 227.75283 112.14083 C 227.6886 111.85185 227.52807 111.43444 227.43174 111.27389 C 227.3033 111.08124 227.17487 110.31063 227.11065 109.57213 C 226.9501 107.77403 226.46847 105.75118 225.66575 103.40723 C 224.7667 100.77431 223.06494 97.14601 222.74385 97.14601 C 222.5833 97.14601 222.45487 96.95336 222.45487 96.7286 C 222.45487 95.73322 221.20263 95.09105 219.43664 95.18737 C 217.8312 95.25159 217.67066 95.18737 216.99637 94.25622 C 216.3863 93.42139 216.3542 93.19663 216.7395 92.715 C 217.38168 91.88017 217.73488 91.68751 218.69814 91.68751 C 219.40453 91.68751 220.0467 92.13704 221.4274 93.51772 Z" fill="#FFFFFF"/>
        </g>
        <g id="Graphic_60">
          <path d="M 85.60709 93.67826 C 87.24464 94.67363 90.90504 98.2056 92.67103 100.51744 C 93.50586 101.57703 94.30858 102.60451 94.50123 102.79716 C 99.67075 108.15934 109.36761 121.61293 116.39944 133.10789 C 119.1287 137.5389 119.93141 139.14435 121.3121 142.74054 C 121.85794 144.24965 123.04597 146.91468 123.8808 148.68067 C 124.74774 150.44665 126.19263 154.13917 127.09168 156.86842 C 128.92188 162.35902 129.3714 165.1846 129.98147 175.49153 C 130.14202 178.41343 130.36678 181.2069 130.4631 181.75275 C 130.62365 182.90867 130.94474 186.79383 131.07317 189.45887 C 131.1374 191.32118 131.20161 191.4175 132.2612 191.89914 C 133.25657 192.38077 135.95372 194.62839 138.00868 196.68335 C 138.4582 197.13287 139.10038 197.71083 139.45358 197.9677 C 140.80215 198.96308 143.75616 202.49505 145.77901 205.54538 C 146.93493 207.27926 148.2514 209.07735 148.6688 209.52688 C 149.08622 209.9764 149.7605 210.74701 150.14581 211.29286 C 150.98064 212.41667 155.15479 216.94402 158.42989 220.28333 C 159.9069 221.79245 160.77383 222.98047 160.90227 223.62265 C 161.0307 224.1685 161.0307 224.61802 160.96648 224.61802 C 160.87016 224.61802 160.35642 224.2006 159.81057 223.68687 C 159.26472 223.17313 158.01247 222.17775 157.0171 221.50347 C 156.02173 220.82918 153.90254 219.25585 152.2971 218.03572 C 150.72377 216.78347 148.54037 215.14592 147.48078 214.3753 C 144.94418 212.513 143.78827 211.4534 137.10963 204.93532 C 135.63263 203.49042 132.45385 198.93097 131.74746 197.2292 C 131.36215 196.23383 130.7842 193.02295 131.00896 192.95873 C 131.04107 192.95873 130.88052 192.73397 130.59154 192.44499 C 130.30256 192.156 129.85304 190.55057 129.53195 188.62404 C 128.66501 183.26186 128.08705 180.88581 127.28433 179.18404 C 126.61005 177.67493 125.13304 173.1797 124.55508 170.6752 C 123.11019 164.73508 120.50937 156.03359 119.99563 155.39141 C 119.83509 155.19876 119.35346 154.01073 118.93604 152.7906 C 118.51863 151.57046 117.94067 150.12556 117.65169 149.5476 C 116.91319 148.13482 117.26638 146.52938 118.90393 143.7038 C 119.1608 143.25428 119.38556 142.48366 119.38556 142.00203 C 119.38556 140.30027 117.49114 136.09401 115.59672 133.68585 C 114.60135 132.4015 113.25278 130.50708 112.64271 129.5117 C 110.81251 126.52558 106.86313 121.58082 103.1385 117.69566 C 101.88626 116.3792 100.44136 114.83797 99.92762 114.29212 C 98.7396 113.00777 94.46912 109.09049 91.77198 106.77866 C 86.69879 102.41186 84.1943 100.0037 82.26777 97.62765 C 80.11648 94.96261 79.85961 94.22411 80.79076 93.19663 C 81.24029 92.68289 81.62559 92.61867 82.87784 92.77921 C 83.74478 92.87554 84.96491 93.26085 85.60709 93.67826 Z" fill="#FFFFFF"/>
        </g>
        <g id="Graphic_59">
          <path d="M 283.91115 93.58193 C 284.3928 94.12778 284.4249 94.28833 284.00748 95.2837 C 283.46163 96.60016 280.60394 100.10002 278.83796 101.64125 C 278.13156 102.25132 276.68667 103.56778 275.59497 104.53104 C 274.50327 105.4943 272.35198 107.45294 270.74654 108.86573 C 266.2834 112.84723 259.79743 119.42953 256.97185 122.86518 C 253.66464 126.87878 248.55934 134.48857 246.6328 138.2132 C 245.0916 141.26353 244.83472 143.09373 245.8301 144.37809 C 246.79336 145.63033 247.24288 147.13944 247.08234 148.4238 C 246.9539 149.64393 245.0916 154.78134 244.57785 155.45563 C 244.09622 156.0657 241.43118 164.95984 239.95418 171.0284 C 239.18357 174.14296 237.96343 177.9639 237.54602 178.54187 C 236.96806 179.4088 235.94058 183.0371 235.45894 185.9269 C 234.62411 191.28907 234.46357 192.1239 234.11037 192.57342 C 233.91772 192.79818 233.62874 193.88988 233.4361 194.98158 C 232.7939 198.642 230.5463 202.04552 225.441 207.11872 C 223.45025 209.10946 221.0742 211.35708 220.17515 212.1277 C 219.2761 212.8983 218.37705 213.70102 218.1523 213.89368 C 217.95964 214.05422 217.57433 214.3111 217.31746 214.43953 C 217.0606 214.56796 215.6799 215.59544 214.26712 216.75136 C 212.85434 217.87517 210.60672 219.57694 209.29026 220.47599 C 207.9738 221.40714 206.1436 222.78782 205.24455 223.52632 L 203.607 224.907 L 203.6391 223.8474 C 203.67121 223.0768 203.9602 222.56306 204.89135 221.72823 C 206.1436 220.66864 212.3406 213.99 214.49189 211.4213 C 215.16617 210.65069 216.001 209.65531 216.3863 209.2058 C 216.7716 208.75627 217.99175 207.0224 219.14766 205.28851 C 221.90902 201.14648 228.3629 194.6605 231.95908 192.41288 C 233.30765 191.61016 233.37187 191.44961 233.40398 190.00472 C 233.53242 185.959 233.59663 184.89941 233.78929 184.32146 C 233.91772 183.96826 234.2067 180.5005 234.49568 176.61534 C 235.45894 162.74433 235.36262 163.3865 237.54602 156.93263 C 238.63772 153.68964 240.0505 149.99713 240.69268 148.74488 C 241.36697 147.46053 242.42656 145.27713 243.06873 143.86434 C 245.76587 137.98843 246.2154 137.08938 246.76125 136.15823 C 249.8116 131.14925 252.0592 127.42463 252.25186 127.13565 C 252.3803 126.943 252.99036 126.01184 253.63254 125.04858 C 254.2747 124.08531 255.55906 122.09457 256.49022 120.58545 C 258.2241 117.79198 261.43498 113.29675 262.07715 112.71879 C 262.30192 112.52614 263.3294 111.24178 264.35688 109.829 C 265.41647 108.41621 266.41185 107.09975 266.6045 106.9071 C 267.47144 106.00805 270.36123 102.60451 271.0034 101.76968 C 271.87034 100.64587 274.79225 97.4671 276.494 95.79744 C 279.0306 93.35717 282.691 92.23336 283.91115 93.58193 Z" fill="#FFFFFF"/>
        </g>
        <g id="Graphic_58">
          <path d="M 190.73136 147.10733 C 191.66252 147.23577 194.5523 148.61645 195.6119 149.45128 C 199.43285 152.40529 203.6391 158.6023 204.7308 162.9691 C 205.95094 167.91385 206.1436 169.1982 206.1757 172.76228 C 206.2078 176.19792 206.11148 176.96854 205.18033 180.0831 C 204.28128 183.19765 202.83638 186.53696 201.8089 188.04608 C 201.19883 188.8809 197.02469 192.22022 195.9651 192.70186 C 195.45136 192.95873 194.77707 193.27982 194.5202 193.44036 C 194.26333 193.5688 193.62115 193.922 193.0753 194.21097 C 189.4149 196.07328 188.96537 196.4907 188.38742 198.38512 C 188.06633 199.31627 188.09844 200.05478 188.41952 201.75654 L 188.83694 203.97205 L 190.5387 204.55 C 191.50197 204.8711 192.27258 205.2564 192.27258 205.41695 C 192.27258 205.54538 192.46524 205.67382 192.69 205.67382 C 193.7496 205.67382 200.13924 213.31572 200.84564 215.4349 C 202.22632 219.35218 202.5153 226.99408 201.48781 232.00305 C 200.81353 235.27815 200.65298 235.75978 198.5659 239.99815 L 196.92836 243.33746 L 196.92836 246.90154 C 196.92836 251.1399 197.34578 257.85065 197.73108 260.09827 C 198.21271 262.82752 197.92374 267.5475 197.0889 270.3731 C 195.70823 275.25363 193.91013 280.00574 192.07993 283.8588 L 190.21762 287.71185 L 190.24973 291.01906 C 190.28184 294.58314 190.92401 296.606 192.07993 296.79865 C 193.91013 297.15184 203.09325 305.757 204.44183 308.35782 C 204.79502 309.0642 205.50142 310.28435 206.01516 311.05496 C 207.20318 312.85306 208.84073 317.12353 209.8361 320.94448 C 210.67094 324.2517 211.50577 330.67345 211.34522 332.50365 C 211.3131 333.11372 211.18468 335.07236 211.05624 336.83834 C 210.95992 338.60433 210.67094 340.91616 210.41407 341.97576 C 210.1572 343.03535 209.73978 345.1224 209.4508 346.63153 C 208.96917 349.0718 206.33625 356.16785 204.82713 359.15397 C 204.50604 359.76404 203.9602 360.91996 203.6391 361.7227 C 203.2859 362.4933 202.48319 364.0024 201.8089 365.062 C 200.10713 367.6949 195.38714 373.92403 194.39177 374.8552 C 193.94224 375.2726 193.65326 375.75423 193.7496 375.88267 C 193.84592 376.0432 193.71748 376.0753 193.49272 376.0111 C 193.23585 375.91478 192.46524 376.3964 191.75884 377.0386 C 189.25435 379.41464 187.45626 380.0247 182.96103 380.15314 C 181.64456 380.18525 180.39232 380.3137 180.16756 380.4421 C 179.5896 380.7953 176.50715 380.0568 175.2549 379.222 C 172.42933 377.3918 166.8424 370.8737 165.7507 368.14444 C 165.65437 367.88757 165.46172 367.43805 165.30118 367.18118 C 163.72784 364.45193 161.7371 359.73193 160.80594 356.58527 C 160.42063 355.2688 159.39315 352.3469 158.52621 350.0993 C 157.53084 347.49847 156.82445 345.0903 156.59969 343.51698 C 155.98962 339.05385 155.70064 337.15943 155.47588 336.3567 C 155.05846 334.78338 154.70527 329.4212 154.89792 327.36624 C 155.12268 324.637 156.59969 317.3483 156.985 316.93088 C 157.14554 316.77033 157.27397 316.44924 157.27397 316.19237 C 157.27397 315.9676 157.85193 314.55482 158.55832 313.0778 C 159.68213 310.66966 160.54907 309.3853 163.98471 304.9543 C 165.65437 302.8351 169.0579 300.5875 173.97056 298.30776 C 174.93382 297.85824 176.2824 297.15184 176.92457 296.76654 L 178.1447 296.06014 L 178.1447 293.87674 C 178.1447 290.21634 177.14933 287.64763 174.42008 284.17988 C 173.16784 282.60655 172.26879 280.84056 171.43396 278.3682 C 170.24593 274.8362 170.1175 273.07023 169.98906 261.38262 C 169.92485 256.2452 169.7964 251.33256 169.66797 250.46562 C 168.6726 243.1127 168.06253 240.8972 166.16811 237.6221 C 164.85165 235.37448 164.08104 233.54427 163.40676 230.91135 C 162.41138 227.15462 161.96186 224.29693 162.31506 223.94374 C 162.5077 223.75108 162.53982 223.01258 162.41138 222.17775 C 162.28295 221.40714 162.31506 220.66864 162.4756 220.5723 C 162.60403 220.47599 162.73247 220.02646 162.73247 219.57694 C 162.73247 218.29259 163.72784 215.27436 164.59478 213.86157 C 165.49383 212.41667 167.42036 210.0085 169.15423 208.1462 C 170.34226 206.82974 174.67695 204.58212 176.73191 204.19681 C 177.95205 203.97205 178.30525 203.61886 177.95205 203.0409 C 177.82361 202.84824 177.7594 201.78865 177.7915 200.69695 C 177.85572 198.93097 177.7594 198.57777 176.95668 197.64662 C 175.2549 195.59165 174.45219 194.94947 171.33763 193.08716 C 165.17274 189.42676 163.5994 188.04608 161.416 184.41778 C 159.48948 181.239 158.462 178.06024 158.39778 175.0099 C 158.30145 172.02378 158.68676 167.43222 159.2326 164.89562 C 159.87478 161.8774 162.28295 157.28583 164.3058 155.16665 C 166.61764 152.72638 170.5028 150.09345 171.9477 149.96502 C 172.55777 149.93291 173.23205 149.64393 173.45682 149.32284 C 173.71369 148.96965 174.099 148.8091 174.42008 148.93754 C 174.70906 149.06597 175.64021 148.87332 176.47504 148.55223 C 178.17681 147.87795 178.53 147.81373 185.36919 146.91468 C 187.13517 146.68992 188.38742 146.72203 190.73136 147.10733 Z" fill="#FFFFFF"/>
        </g>
        <g id="Graphic_57">
          <path d="M 140.12786 231.23244 C 140.6416 231.68196 142.02228 232.83788 143.2103 233.80115 C 145.26527 235.4708 155.5722 245.55297 158.62254 248.86018 C 159.42526 249.72712 162.1224 252.42426 164.62689 254.83242 C 168.86525 258.91024 169.7643 260.1625 168.89736 260.70834 C 168.54417 260.9331 165.33328 260.03405 163.88839 259.26344 C 160.22798 257.36902 152.84295 250.08032 148.44405 244.04386 C 147.41656 242.63107 146.4854 241.41094 146.35697 241.3146 C 146.00378 240.99352 143.9167 237.58999 143.40296 236.43407 C 143.08187 235.7919 142.4397 234.98917 141.95806 234.7002 C 141.47643 234.4112 140.67371 233.89747 140.15997 233.54427 C 138.90773 232.67734 138.26555 233.15897 136.72433 236.24142 C 136.01793 237.71842 135.24732 239.19543 135.02256 239.54862 C 132.74283 243.33746 118.35808 258.49283 115.94992 259.64874 C 113.92707 260.612 112.54639 261.89636 111.83999 263.4376 C 111.35836 264.5614 111.32625 264.9467 111.64734 266.26316 C 112.09686 268.15758 114.18394 274.93254 114.56924 275.8316 C 114.72979 276.1848 115.08298 277.59757 115.37196 278.94614 C 115.62883 280.32682 116.04625 282.0607 116.30312 282.7992 C 116.52788 283.5698 116.9453 285.17526 117.23427 286.4275 C 117.52325 287.64763 118.037 290.0237 118.4223 291.62913 C 119.61033 296.86287 119.80298 300.87647 119.03237 304.40844 C 118.35808 307.42667 118.0691 308.42204 117.84434 308.42204 C 117.17006 308.42204 116.20679 303.2204 115.40407 295.25742 C 115.1472 292.68872 114.7619 289.95947 114.60135 289.15675 C 113.57387 284.5652 113.28489 283.37716 112.80326 281.77172 C 112.51428 280.80846 112.09686 279.26723 111.83999 278.4003 C 111.58312 277.50125 111.16571 275.99213 110.90884 275.02887 C 110.49142 273.51975 110.07401 271.36846 109.20707 265.81364 C 108.91809 264.04765 111.5189 260.32303 118.26176 252.71324 C 119.99563 250.7546 122.14692 248.37855 123.04597 247.41528 C 123.97713 246.45202 125.3257 244.78236 126.03209 243.72277 C 126.73848 242.66318 128.88977 240.12658 130.7842 238.10373 C 132.67862 236.08087 134.73358 233.73693 135.34365 232.87 C 136.46746 231.36087 137.7197 230.42972 138.68296 230.3976 C 138.97194 230.3976 139.61412 230.78292 140.12786 231.23244 Z" fill="#FFFFFF"/>
        </g>
        <g id="Graphic_56">
          <path d="M 224.79882 231.68196 C 225.63365 232.09938 226.30793 232.5489 226.30793 232.67734 C 226.30793 232.80577 227.39963 233.51217 228.7482 234.25067 C 230.06466 234.95706 231.41323 235.824 231.73432 236.11298 C 232.0554 236.40196 232.7939 237.01203 233.37187 237.46155 C 233.98194 237.91107 234.592 238.42482 234.78466 238.61747 C 234.9773 238.778 236.29377 239.77339 237.70656 240.80087 C 239.11935 241.82835 240.62846 243.01638 241.078 243.4338 C 241.5275 243.8512 242.52288 244.71814 243.3256 245.3282 C 245.8301 247.22263 247.14655 248.47488 248.752 250.46562 C 249.61893 251.5252 250.77485 252.87378 251.2886 253.48385 C 251.83444 254.09392 252.34818 254.96086 252.4124 255.41038 C 252.50873 255.8599 252.54084 258.7818 252.4445 261.86425 C 252.0592 276.15268 251.93077 285.7532 251.96288 292.91348 C 251.995 300.49116 251.995 300.6838 251.3207 301.16545 C 250.80696 301.51864 250.45376 301.55075 249.8758 301.29388 C 248.91254 300.84436 248.49512 299.56 248.27036 296.34912 C 248.0135 293.0098 248.0135 283.4735 248.27036 282.25335 C 248.3667 281.7075 248.62356 279.97363 248.7841 278.4003 C 248.97676 276.79485 249.23363 274.64356 249.39417 273.58397 C 249.55472 272.52438 249.68315 271.30425 249.68315 270.85472 C 249.71526 270.14833 250.29322 267.06588 251.48124 261.2863 C 251.86655 259.42398 251.86655 258.87813 251.22437 256.11677 C 251.12805 255.66725 250.00424 255.24984 246.2154 254.28657 C 245.02737 253.96548 243.93567 253.48385 243.7109 253.16276 C 243.48615 252.80957 243.06873 252.5527 242.81186 252.5527 C 242.2339 252.5527 239.3441 249.6629 236.26166 245.9704 C 234.9452 244.39706 233.4361 242.66318 232.89024 242.11733 C 232.3765 241.6036 230.99582 240.06236 229.872 238.7459 C 227.78494 236.27352 225.53732 234.25067 224.89514 234.25067 C 223.83555 234.25067 222.10168 236.36985 220.56045 239.4523 C 216.51474 247.67215 214.26712 250.65827 208.80862 254.92875 C 204.82713 258.0754 199.49707 261.18997 199.01543 260.67623 C 198.63013 260.2588 198.37326 257.01582 198.69435 256.5984 C 199.49707 255.57092 203.51067 250.88304 204.92346 249.3097 C 205.8225 248.31433 206.9142 246.99787 207.36373 246.3878 C 208.23067 245.16767 210.8957 242.0531 212.18005 240.70454 C 212.62957 240.25502 213.40019 239.29175 213.91393 238.58536 C 215.2625 236.75516 220.88154 231.0398 221.65215 230.7187 C 222.35855 230.46183 222.48698 230.49394 224.79882 231.68196 Z" fill="#FFFFFF"/>
        </g>
        <g id="Graphic_55">
          <path d="M 195.48346 282.57444 C 195.90088 283.02396 196.3504 283.37716 196.51095 283.37716 C 197.02469 283.37716 201.13462 286.20274 203.51067 288.1935 C 204.82713 289.2852 206.78577 290.8585 207.81325 291.69335 C 209.99665 293.3951 216.0331 299.30314 217.51011 301.19756 C 219.91828 304.2479 223.964 312.88517 224.54195 316.16027 C 224.63827 316.7061 224.95936 317.7015 225.21623 318.34366 C 226.43637 321.20135 228.23446 328.2332 228.23446 330.1597 C 228.23446 330.8661 228.3629 332.21467 228.52344 333.17794 C 228.7161 334.1412 228.94085 335.77875 229.03718 336.83834 C 229.16562 337.89794 229.39038 339.76025 229.55092 341.0125 C 229.71147 342.23263 229.93623 343.9665 230.03255 344.86555 C 230.161 345.7325 230.35364 346.59943 230.48208 346.79208 C 230.77106 347.1774 231.92697 350.5167 231.92697 350.99833 C 231.92697 351.191 232.15174 351.6726 232.44072 352.12214 C 233.0829 353.1175 234.9452 357.99806 236.4222 362.5254 C 237.8029 366.69955 237.67445 366.25002 238.6056 370.07097 C 239.05513 371.74063 239.6331 373.92403 239.88996 374.8873 C 240.17894 375.85056 240.56425 377.8092 240.7569 379.222 C 240.91744 380.63477 241.27064 382.5934 241.55962 383.55668 C 243.00452 388.59776 241.01377 391.48755 238.12398 388.46932 C 236.22956 386.44647 235.23418 384.0383 234.65622 379.86416 C 234.43146 378.45137 233.78929 374.9194 233.21133 371.9975 C 232.60126 369.0756 231.89487 364.6767 231.60589 362.2043 C 231.34902 359.73193 230.8995 356.97057 230.67473 356.10364 C 230.41786 355.2046 230.12888 353.4707 230.00044 352.25058 C 229.71147 349.13602 229.67936 348.97548 228.90875 346.37466 C 228.52344 345.1224 227.88126 343.67752 227.46385 343.1959 C 226.37215 341.8473 225.18412 339.50338 224.12453 336.51726 C 222.5833 332.2789 221.4916 328.13685 221.17052 325.50393 C 220.97787 323.9627 220.62467 321.394 220.3999 319.82067 C 220.14304 318.21523 219.78984 315.71074 219.56508 314.20163 C 219.37243 312.72462 218.82658 310.38068 218.40916 309.0321 C 217.57433 306.33497 218.24862 307.00925 211.56998 302.28926 C 210.09298 301.26177 208.64808 300.07375 208.3591 299.65633 C 207.81325 298.88572 207.17107 298.083 205.56563 296.2528 C 204.50604 295.00055 202.1942 291.9181 200.13924 288.9962 C 199.43285 288.00083 197.85952 286.36328 196.60727 285.3679 C 195.38714 284.37253 194.23122 283.4735 194.10279 283.34505 C 193.7817 283.08818 194.10279 281.77172 194.4881 281.77172 C 194.61653 281.77172 195.06605 282.12492 195.48346 282.57444 Z" fill="#FFFFFF"/>
        </g>
        <g id="Graphic_54">
          <path d="M 173.97056 285.94587 C 173.97056 286.0743 173.64947 286.26695 173.23205 286.3954 C 172.84675 286.4917 171.5945 287.35865 170.43859 288.35403 C 169.31478 289.3173 168.2873 290.12 168.12675 290.12 C 167.99832 290.12 166.4571 291.40437 164.75533 292.9456 C 163.02145 294.51892 160.90227 296.2849 160.00322 296.86287 C 159.13628 297.47293 158.33356 298.0509 158.23724 298.17933 C 158.1409 298.30776 157.65928 298.53252 157.17764 298.62885 C 156.69601 298.7573 156.3107 298.98205 156.3107 299.1426 C 156.3107 299.27103 155.70064 299.68844 154.96214 300.04164 C 154.19152 300.42694 152.93928 301.06912 152.16867 301.51864 C 151.39806 301.96817 149.95316 302.57823 148.95779 302.8672 C 147.96241 303.1562 146.93493 303.5736 146.67806 303.76626 C 145.3616 304.72953 142.76078 305.66068 140.83426 305.82123 C 140.67371 305.85333 140.57738 306.0781 140.57738 306.36708 C 140.57738 306.65605 140.22419 307.8762 139.80677 309.0321 C 139.38936 310.22013 138.87562 312.6283 138.65086 314.36217 C 138.4582 316.12816 138.0729 318.27945 137.84814 319.1785 C 137.30229 321.3298 137.04541 324.12325 136.88487 331.2193 C 136.72433 337.22365 136.59589 337.99426 135.05467 342.4574 C 134.73358 343.42065 134.47671 344.3518 134.50882 344.48024 C 134.50882 344.6408 134.18773 345.15453 133.7382 345.60405 C 132.80705 346.59943 132.2612 348.59017 131.908 352.41112 C 131.77957 353.92024 131.49059 355.84676 131.26583 356.7458 C 131.07317 357.61275 130.84841 359.5393 130.7842 361.0163 C 130.71998 362.4933 130.431 365.25465 130.17413 367.11696 C 129.7246 370.1673 129.46773 372.3186 128.85767 377.55233 C 128.76134 378.41926 128.53658 379.7036 128.37603 380.4421 C 127.95862 382.1439 127.8623 382.5613 127.22012 385.5474 C 126.83481 387.3455 126.48161 388.14824 125.99998 388.50143 C 125.3578 388.88674 125.22937 388.85463 124.39454 388.0198 C 123.36706 387.02443 123.27073 386.28593 123.72026 382.9145 C 123.84869 381.7586 124.00923 380.53845 124.04134 380.18525 C 124.07345 379.83205 124.20189 379.3183 124.2661 379.06144 C 124.36243 378.80457 124.74774 376.26797 125.13304 373.4745 C 125.51835 370.64893 126.25685 366.539 126.8027 364.3235 C 127.31644 362.108 127.99073 359.2503 128.2797 358.03016 C 128.56869 356.7779 129.21086 354.65874 129.6925 353.27806 C 130.20624 351.8974 130.62365 350.1956 130.62365 349.52133 C 130.62365 348.84704 130.75209 348.20487 130.94474 348.07643 C 131.29794 347.85167 131.04107 345.70038 130.55943 345.1224 C 130.01358 344.44813 130.431 341.3657 131.5548 338.05848 C 132.51807 335.2008 134.4446 328.16896 134.63725 326.8846 C 135.05467 323.5774 135.21521 322.4857 135.60052 321.10502 C 136.2427 318.66475 137.04541 314.0732 137.39861 310.70177 C 137.91235 305.66068 138.16922 305.08272 141.7012 301.3581 C 142.4718 300.55538 143.78827 299.33524 144.6231 298.62885 C 146.26065 297.24817 152.04023 293.87674 154.38418 292.91348 C 155.1869 292.5603 157.14554 291.75756 158.71887 291.05117 C 160.3243 290.3769 162.25084 289.57416 163.02145 289.3173 C 163.79206 289.06042 164.59478 288.70723 164.78743 288.54668 C 164.98009 288.38614 166.07179 287.9366 167.2277 287.5513 C 168.38362 287.166 170.18172 286.4275 171.2413 285.94587 C 173.0394 285.14315 173.97056 285.14315 173.97056 285.94587 Z" fill="#FFFFFF"/>
        </g>
      </g>
    </g>
  </g>
</svg>
