<?xml version="1.0" encoding="UTF-8" standalone="no"?>
<!DOCTYPE svg PUBLIC "-//W3C//DTD SVG 1.1//EN" "http://www.w3.org/Graphics/SVG/1.1/DTD/svg11.dtd">
<svg xmlns="http://www.w3.org/2000/svg" xmlns:xl="http://www.w3.org/1999/xlink" version="1.1" xmlns:dc="http://purl.org/dc/elements/1.1/" viewBox="58.5 72 301.5 216" width="301.5" height="216">
  <defs>
    <clipPath id="artboard_clip_path">
      <path d="M 58.5 72 L 360 72 L 360 288 L 58.5 288 Z"/>
    </clipPath>
  </defs>
  <g id="Arches,_Pair_of_(1)" stroke-opacity="1" fill="none" fill-opacity="1" stroke-dasharray="none" stroke="none">
    <title>Arches, Pair of (1)</title>
    <g id="Arches,_Pair_of_(1)_Layer_2" clip-path="url(#artboard_clip_path)">
      <title>Layer 2</title>
      <g id="Group_1714">
        <g id="Graphic_1741">
          <rect x="63" y="260.4375" width="53.625" height="24.375" fill="#FFFFFF"/>
          <rect x="63" y="260.4375" width="53.625" height="24.375" stroke="black" stroke-linecap="round" stroke-linejoin="round" stroke-width="2"/>
        </g>
        <g id="Graphic_1740">
          <path d="M 70.3125 255.5625 L 109.3125 255.5625 C 110.6587 255.5625 111.75 256.6538 111.75 258 L 111.75 258 C 111.75 259.3462 110.6587 260.4375 109.3125 260.4375 L 70.3125 260.4375 C 68.96631 260.4375 67.875 259.3462 67.875 258 L 67.875 258 C 67.875 256.6538 68.96631 255.5625 70.3125 255.5625 Z" fill="#FFFFFF"/>
          <path d="M 70.3125 255.5625 L 109.3125 255.5625 C 110.6587 255.5625 111.75 256.6538 111.75 258 L 111.75 258 C 111.75 259.3462 110.6587 260.4375 109.3125 260.4375 L 70.3125 260.4375 C 68.96631 260.4375 67.875 259.3462 67.875 258 L 67.875 258 C 67.875 256.6538 68.96631 255.5625 70.3125 255.5625 Z" stroke="black" stroke-linecap="round" stroke-linejoin="round" stroke-width="2"/>
        </g>
        <g id="Graphic_1739">
          <path d="M 70.3125 167.8125 L 109.3125 167.8125 C 110.6587 167.8125 111.75 168.9038 111.75 170.25 L 111.75 170.25 C 111.75 171.5962 110.6587 172.6875 109.3125 172.6875 L 70.3125 172.6875 C 68.96631 172.6875 67.875 171.5962 67.875 170.25 L 67.875 170.25 C 67.875 168.9038 68.96631 167.8125 70.3125 167.8125 Z" fill="#FFFFFF"/>
          <path d="M 70.3125 167.8125 L 109.3125 167.8125 C 110.6587 167.8125 111.75 168.9038 111.75 170.25 L 111.75 170.25 C 111.75 171.5962 110.6587 172.6875 109.3125 172.6875 L 70.3125 172.6875 C 68.96631 172.6875 67.875 171.5962 67.875 170.25 L 67.875 170.25 C 67.875 168.9038 68.96631 167.8125 70.3125 167.8125 Z" stroke="black" stroke-linecap="round" stroke-linejoin="round" stroke-width="2"/>
        </g>
        <g id="Graphic_1738">
          <rect x="72.75" y="172.6875" width="34.125" height="82.875" fill="#FFFFFF"/>
          <rect x="72.75" y="172.6875" width="34.125" height="82.875" stroke="black" stroke-linecap="round" stroke-linejoin="round" stroke-width="2"/>
        </g>
        <g id="Graphic_1737">
          <rect x="63" y="153.1875" width="53.625" height="14.625" fill="#FFFFFF"/>
          <rect x="63" y="153.1875" width="53.625" height="14.625" stroke="black" stroke-linecap="round" stroke-linejoin="round" stroke-width="2"/>
        </g>
        <g id="Graphic_1736">
          <rect x="182.4375" y="260.4375" width="53.625" height="24.375" fill="#FFFFFF"/>
          <rect x="182.4375" y="260.4375" width="53.625" height="24.375" stroke="black" stroke-linecap="round" stroke-linejoin="round" stroke-width="2"/>
        </g>
        <g id="Graphic_1735">
          <path d="M 189.75 255.5625 L 228.75 255.5625 C 230.0962 255.5625 231.1875 256.6538 231.1875 258 L 231.1875 258 C 231.1875 259.3462 230.0962 260.4375 228.75 260.4375 L 189.75 260.4375 C 188.4038 260.4375 187.3125 259.3462 187.3125 258 L 187.3125 258 C 187.3125 256.6538 188.4038 255.5625 189.75 255.5625 Z" fill="#FFFFFF"/>
          <path d="M 189.75 255.5625 L 228.75 255.5625 C 230.0962 255.5625 231.1875 256.6538 231.1875 258 L 231.1875 258 C 231.1875 259.3462 230.0962 260.4375 228.75 260.4375 L 189.75 260.4375 C 188.4038 260.4375 187.3125 259.3462 187.3125 258 L 187.3125 258 C 187.3125 256.6538 188.4038 255.5625 189.75 255.5625 Z" stroke="black" stroke-linecap="round" stroke-linejoin="round" stroke-width="2"/>
        </g>
        <g id="Graphic_1734">
          <path d="M 189.75 167.8125 L 228.75 167.8125 C 230.0962 167.8125 231.1875 168.9038 231.1875 170.25 L 231.1875 170.25 C 231.1875 171.5962 230.0962 172.6875 228.75 172.6875 L 189.75 172.6875 C 188.4038 172.6875 187.3125 171.5962 187.3125 170.25 L 187.3125 170.25 C 187.3125 168.9038 188.4038 167.8125 189.75 167.8125 Z" fill="#FFFFFF"/>
          <path d="M 189.75 167.8125 L 228.75 167.8125 C 230.0962 167.8125 231.1875 168.9038 231.1875 170.25 L 231.1875 170.25 C 231.1875 171.5962 230.0962 172.6875 228.75 172.6875 L 189.75 172.6875 C 188.4038 172.6875 187.3125 171.5962 187.3125 170.25 L 187.3125 170.25 C 187.3125 168.9038 188.4038 167.8125 189.75 167.8125 Z" stroke="black" stroke-linecap="round" stroke-linejoin="round" stroke-width="2"/>
        </g>
        <g id="Graphic_1733">
          <rect x="192.1875" y="172.6875" width="34.125" height="82.875" fill="#FFFFFF"/>
          <rect x="192.1875" y="172.6875" width="34.125" height="82.875" stroke="black" stroke-linecap="round" stroke-linejoin="round" stroke-width="2"/>
        </g>
        <g id="Graphic_1732">
          <rect x="177.5625" y="153.1875" width="63.375" height="14.625" fill="#FFFFFF"/>
          <rect x="177.5625" y="153.1875" width="63.375" height="14.625" stroke="black" stroke-linecap="round" stroke-linejoin="round" stroke-width="2"/>
        </g>
        <g id="Graphic_1731">
          <rect x="301.875" y="260.4375" width="53.625" height="24.375" fill="#FFFFFF"/>
          <rect x="301.875" y="260.4375" width="53.625" height="24.375" stroke="black" stroke-linecap="round" stroke-linejoin="round" stroke-width="2"/>
        </g>
        <g id="Graphic_1730">
          <path d="M 309.1875 255.5625 L 348.1875 255.5625 C 349.5337 255.5625 350.625 256.6538 350.625 258 L 350.625 258 C 350.625 259.3462 349.5337 260.4375 348.1875 260.4375 L 309.1875 260.4375 C 307.8413 260.4375 306.75 259.3462 306.75 258 L 306.75 258 C 306.75 256.6538 307.8413 255.5625 309.1875 255.5625 Z" fill="#FFFFFF"/>
          <path d="M 309.1875 255.5625 L 348.1875 255.5625 C 349.5337 255.5625 350.625 256.6538 350.625 258 L 350.625 258 C 350.625 259.3462 349.5337 260.4375 348.1875 260.4375 L 309.1875 260.4375 C 307.8413 260.4375 306.75 259.3462 306.75 258 L 306.75 258 C 306.75 256.6538 307.8413 255.5625 309.1875 255.5625 Z" stroke="black" stroke-linecap="round" stroke-linejoin="round" stroke-width="2"/>
        </g>
        <g id="Graphic_1729">
          <path d="M 309.1875 167.8125 L 348.1875 167.8125 C 349.5337 167.8125 350.625 168.9038 350.625 170.25 L 350.625 170.25 C 350.625 171.5962 349.5337 172.6875 348.1875 172.6875 L 309.1875 172.6875 C 307.8413 172.6875 306.75 171.5962 306.75 170.25 L 306.75 170.25 C 306.75 168.9038 307.8413 167.8125 309.1875 167.8125 Z" fill="#FFFFFF"/>
          <path d="M 309.1875 167.8125 L 348.1875 167.8125 C 349.5337 167.8125 350.625 168.9038 350.625 170.25 L 350.625 170.25 C 350.625 171.5962 349.5337 172.6875 348.1875 172.6875 L 309.1875 172.6875 C 307.8413 172.6875 306.75 171.5962 306.75 170.25 L 306.75 170.25 C 306.75 168.9038 307.8413 167.8125 309.1875 167.8125 Z" stroke="black" stroke-linecap="round" stroke-linejoin="round" stroke-width="2"/>
        </g>
        <g id="Graphic_1728">
          <rect x="311.625" y="172.6875" width="34.125" height="82.875" fill="#FFFFFF"/>
          <rect x="311.625" y="172.6875" width="34.125" height="82.875" stroke="black" stroke-linecap="round" stroke-linejoin="round" stroke-width="2"/>
        </g>
        <g id="Graphic_1727">
          <rect x="301.875" y="153.1875" width="53.625" height="14.625" fill="#FFFFFF"/>
          <rect x="301.875" y="153.1875" width="53.625" height="14.625" stroke="black" stroke-linecap="round" stroke-linejoin="round" stroke-width="2"/>
        </g>
        <g id="Graphic_1726">
          <path d="M 209.25 116.68182 C 196.61444 94.79337 172.96499 80.0625 145.875 80.0625 C 105.48923 80.0625 72.75 112.80166 72.75 153.1875 L 109.3125 153.1875 C 109.3125 132.99458 125.68212 116.625 145.875 116.625 C 166.06788 116.625 182.4375 132.99458 182.4375 153.1875 L 199.5 153.1875 L 219 153.1875 L 236.0625 153.1875 C 236.0625 132.99458 252.43212 116.625 272.625 116.625 C 292.8179 116.625 309.1875 132.99458 309.1875 153.1875 L 345.75 153.1875 C 345.75 112.80166 313.01077 80.0625 272.625 80.0625 C 245.535 80.0625 221.88556 94.79337 209.25 116.68181 Z" fill="#FFFFFF"/>
          <path d="M 209.25 116.68182 C 196.61444 94.79337 172.96499 80.0625 145.875 80.0625 C 105.48923 80.0625 72.75 112.80166 72.75 153.1875 L 109.3125 153.1875 C 109.3125 132.99458 125.68212 116.625 145.875 116.625 C 166.06788 116.625 182.4375 132.99458 182.4375 153.1875 L 199.5 153.1875 L 219 153.1875 L 236.0625 153.1875 C 236.0625 132.99458 252.43212 116.625 272.625 116.625 C 292.8179 116.625 309.1875 132.99458 309.1875 153.1875 L 345.75 153.1875 C 345.75 112.80166 313.01077 80.0625 272.625 80.0625 C 245.535 80.0625 221.88556 94.79337 209.25 116.68181 Z" stroke="black" stroke-linecap="round" stroke-linejoin="round" stroke-width="2"/>
        </g>
        <g id="Line_1725">
          <line x1="79.01442" y1="124.72361" x2="112.32463" y2="138.02875" stroke="black" stroke-linecap="round" stroke-linejoin="round" stroke-width="2"/>
        </g>
        <g id="Line_1724">
          <line x1="101.33509" y1="95.96274" x2="123.31068" y2="124.37096" stroke="black" stroke-linecap="round" stroke-linejoin="round" stroke-width="2"/>
        </g>
        <g id="Graphic_1723">
          <path d="M 130.03125 75.1875 L 161.71875 75.1875 L 151.96875 121.5 L 139.78125 121.5 Z" fill="#FFFFFF"/>
          <path d="M 130.03125 75.1875 L 161.71875 75.1875 L 151.96875 121.5 L 139.78125 121.5 Z" stroke="black" stroke-linecap="round" stroke-linejoin="round" stroke-width="2"/>
        </g>
        <g id="Line_1722">
          <line x1="209.25" y1="123.9375" x2="179.79637" y2="138.15523" stroke="black" stroke-linecap="round" stroke-linejoin="round" stroke-width="2"/>
        </g>
        <g id="Line_1721">
          <line x1="191.69848" y1="95.96274" x2="169.72289" y2="124.37096" stroke="black" stroke-linecap="round" stroke-linejoin="round" stroke-width="2"/>
        </g>
        <g id="Line_1720">
          <line x1="209.25" y1="116.625" x2="209.25" y2="123.9375" stroke="black" stroke-linecap="round" stroke-linejoin="round" stroke-width="2"/>
        </g>
        <g id="Line_1719">
          <line x1="339.2139" y1="124.3505" x2="306.14097" y2="138.23496" stroke="black" stroke-linecap="round" stroke-linejoin="round" stroke-width="2"/>
        </g>
        <g id="Line_1718">
          <line x1="317.79587" y1="95.75396" x2="295.82028" y2="124.16219" stroke="black" stroke-linecap="round" stroke-linejoin="round" stroke-width="2"/>
        </g>
        <g id="Graphic_1717">
          <path d="M 288.46875 75.1875 L 256.78125 75.1875 L 266.53125 121.5 L 278.71875 121.5 Z" fill="#FFFFFF"/>
          <path d="M 288.46875 75.1875 L 256.78125 75.1875 L 266.53125 121.5 L 278.71875 121.5 Z" stroke="black" stroke-linecap="round" stroke-linejoin="round" stroke-width="2"/>
        </g>
        <g id="Line_1716">
          <line x1="209.25" y1="123.9375" x2="238.70363" y2="138.15523" stroke="black" stroke-linecap="round" stroke-linejoin="round" stroke-width="2"/>
        </g>
        <g id="Line_1715">
          <line x1="227.45413" y1="96.08027" x2="249.42972" y2="124.4885" stroke="black" stroke-linecap="round" stroke-linejoin="round" stroke-width="2"/>
        </g>
      </g>
    </g>
  </g>
</svg>
