<?xml version="1.0" encoding="UTF-8" standalone="no"?>
<!DOCTYPE svg PUBLIC "-//W3C//DTD SVG 1.1//EN" "http://www.w3.org/Graphics/SVG/1.1/DTD/svg11.dtd">
<svg xmlns="http://www.w3.org/2000/svg" xmlns:dc="http://purl.org/dc/elements/1.1/" version="1.1" xmlns:xl="http://www.w3.org/1999/xlink" viewBox="67.5 63 91.17036 351" width="91.17036" height="351">
  <defs>
    <clipPath id="artboard_clip_path">
      <path d="M 67.5 63 L 158.67036 63 L 158.67036 414 L 67.5 414 Z"/>
    </clipPath>
  </defs>
  <g id="Axe,_Pole_(2)" fill-opacity="1" stroke="none" stroke-dasharray="none" stroke-opacity="1" fill="none">
    <title>Axe, Pole (2)</title>
    <g id="Axe,_Pole_(2)_Layer_2" clip-path="url(#artboard_clip_path)">
      <title>Layer 2</title>
      <g id="Graphic_3">
        <path d="M 130.06277 125.8925 L 131.3698 125.17264 L 132.6459 123.9662 C 133.55165 123.07186 133.06435 123.94735 133.674 122.38651 C 135.37549 117.70841 130.60738 113.67258 128.2781 114.65485 C 127.12643 115.1293 132.44308 108.30103 133.31068 106.74227 L 133.57177 106.5274 C 133.57177 106.5274 133.57177 106.5274 132.46362 104.6224 C 130.44058 101.17173 129.88123 98.70664 128.76958 95.90657 C 126.03935 89.57957 125.8126 80.12162 125.36525 75.6625 C 124.1064 65.53638 123.82547 64.2186 123.68695 65.82114 C 123.52074 67.74089 123.23476 73.97316 122.84812 79.49153 C 122.44799 82.96072 121.70096 92.77162 120.46904 95.9028 C 117.21686 104.27157 116.66987 104.12516 115.1856 107.25739 C 114.81155 107.92944 121.86196 116.33024 120.59328 115.85933 L 119.05075 116.54075 C 117.25315 117.72337 115.59591 120.47633 116.30869 122.39833 L 117.91762 125.49356 C 118.94576 126.81926 119.99396 127.02596 120.49099 127.05084 L 121.14497 127.00503 L 121.1899 129.4286 C 120.90884 129.86495 120.11213 130.71916 118.33004 130.9366 C 114.96912 131.48432 107.43849 127.82575 102.46074 121.8521 C 98.67941 117.20225 98.90043 111.07348 102.08022 107.84668 L 102.096 107.62023 L 101.71755 107.14129 C 100.78377 105.61635 95.8274 105.15109 87.84197 109.37847 C 56.955805 126.11837 74.23082 165.45617 93.08854 170.3271 C 96.17887 171.1669 99.72524 172.37264 101.3076 171.60314 L 103.05894 167.99107 C 100.24838 152.6331 103.12568 152.06613 110.86108 147.07293 C 113.49412 145.3501 117.13151 145.45794 121.30378 143.68033 L 121.84974 244.31613 L 121.84974 406.7823 C 121.84974 409.5259 124.07385 411.75 126.81742 411.75 C 129.561 411.75 131.7851 409.5259 131.7851 406.7823 L 131.7851 285.61764 L 131.85153 285.43473 L 131.861 141.01303 C 137.35215 141.9009 142.44579 139.39568 146.77416 147.66519 C 149.21587 152.2126 144.40183 159.49153 144.90889 159.25737 C 150.55371 156.91744 152.87756 154.12571 154.07877 150.58417 C 161.72686 128.82684 129.60669 130.8529 129.91812 130.49147 Z M 130.06277 125.8925 Z" fill="#FFFFFF"/>
        <path d="M 130.06277 125.8925 L 131.3698 125.17264 L 132.6459 123.9662 C 133.55165 123.07186 133.06435 123.94735 133.674 122.38651 C 135.37549 117.70841 130.60738 113.67258 128.2781 114.65485 C 127.12643 115.1293 132.44308 108.30103 133.31068 106.74227 L 133.57177 106.5274 C 133.57177 106.5274 133.57177 106.5274 132.46362 104.6224 C 130.44058 101.17173 129.88123 98.70664 128.76958 95.90657 C 126.03935 89.57957 125.8126 80.12162 125.36525 75.6625 C 124.1064 65.53638 123.82547 64.2186 123.68695 65.82114 C 123.52074 67.74089 123.23476 73.97316 122.84812 79.49153 C 122.44799 82.96072 121.70096 92.77162 120.46904 95.9028 C 117.21686 104.27157 116.66987 104.12516 115.1856 107.25739 C 114.81155 107.92944 121.86196 116.33024 120.59328 115.85933 L 119.05075 116.54075 C 117.25315 117.72337 115.59591 120.47633 116.30869 122.39833 L 117.91762 125.49356 C 118.94576 126.81926 119.99396 127.02596 120.49099 127.05084 L 121.14497 127.00503 L 121.1899 129.4286 C 120.90884 129.86495 120.11213 130.71916 118.33004 130.9366 C 114.96912 131.48432 107.43849 127.82575 102.46074 121.8521 C 98.67941 117.20225 98.90043 111.07348 102.08022 107.84668 L 102.096 107.62023 L 101.71755 107.14129 C 100.78377 105.61635 95.8274 105.15109 87.84197 109.37847 C 56.955805 126.11837 74.23082 165.45617 93.08854 170.3271 C 96.17887 171.1669 99.72524 172.37264 101.3076 171.60314 L 103.05894 167.99107 C 100.24838 152.6331 103.12568 152.06613 110.86108 147.07293 C 113.49412 145.3501 117.13151 145.45794 121.30378 143.68033 L 121.84974 244.31613 L 121.84974 406.7823 C 121.84974 409.5259 124.07385 411.75 126.81742 411.75 C 129.561 411.75 131.7851 409.5259 131.7851 406.7823 L 131.7851 285.61764 L 131.85153 285.43473 L 131.861 141.01303 C 137.35215 141.9009 142.44579 139.39568 146.77416 147.66519 C 149.21587 152.2126 144.40183 159.49153 144.90889 159.25737 C 150.55371 156.91744 152.87756 154.12571 154.07877 150.58417 C 161.72686 128.82684 129.60669 130.8529 129.91812 130.49147 Z M 130.06277 125.8925 Z" stroke="black" stroke-linecap="round" stroke-linejoin="round" stroke-width="2"/>
      </g>
    </g>
  </g>
</svg>
