<?xml version="1.0" encoding="UTF-8" standalone="no"?>
<!DOCTYPE svg PUBLIC "-//W3C//DTD SVG 1.1//EN" "http://www.w3.org/Graphics/SVG/1.1/DTD/svg11.dtd">
<svg xmlns="http://www.w3.org/2000/svg" xmlns:dc="http://purl.org/dc/elements/1.1/" version="1.1" xmlns:xl="http://www.w3.org/1999/xlink" viewBox="49.5 60.75 265.5 297" width="265.5" height="297">
  <defs>
    <clipPath id="artboard_clip_path">
      <path d="M 49.5 60.75 L 315 60.75 L 315 346.5 L 299.91477 357.75 L 49.5 357.75 Z"/>
    </clipPath>
  </defs>
  <g id="Beetle_(1)" fill-opacity="1" stroke="none" stroke-dasharray="none" stroke-opacity="1" fill="none">
    <title>Beetle (1)</title>
    <g id="Beetle_(1)_Art" clip-path="url(#artboard_clip_path)">
      <title>Art</title>
      <g id="Group_113">
        <g id="Graphic_139">
          <path d="M 233.19652 66.747565 C 229.165 65.55851 227.24433 65.77024 222.51458 67.881614 C 210.89087 73.26215 203.74315 80.65226 197.39546 93.9477 C 194.69088 99.55615 194.47592 99.80344 191.97824 99.51358 C 190.5807 99.45647 187.64933 98.50017 185.5708 97.56164 C 181.49619 95.75625 176.88442 96.23358 174.66311 98.7889 C 172.58512 101.17936 170.2162 99.40953 165.43476 91.92456 C 159.35222 82.44025 153.3564 77.51761 144.63393 74.566265 C 136.30205 71.66503 130.08103 70.16457 129.57944 70.74158 C 129.36448 70.988866 131.19948 72.873445 133.51828 75.03387 C 135.82631 77.04021 139.3961 81.59057 141.42128 85.08765 C 143.36403 88.51308 145.94467 92.20357 147.26354 93.35005 C 148.49999 94.42488 150.3102 98.16925 151.24601 101.58767 L 153.07453 107.80817 L 147.47844 115.24462 C 140.11251 125.04998 139.52149 126.56227 141.31769 132.32052 C 143.04223 138.1612 146.19611 141.19225 152.41714 142.69271 C 157.92862 144.01053 161.12183 146.4969 161.0076 149.29198 C 160.97204 150.99769 159.74313 152.2449 155.14967 155.19836 C 149.44907 158.926 144.51565 164.76773 138.61892 174.54778 C 136.60557 177.86275 136.08243 178.13159 130.13401 178.31528 C 122.95291 178.58518 120.12175 176.84768 116.39034 169.98605 C 115.15012 167.7502 113.02473 165.03432 111.85994 163.87706 C 108.89248 161.29748 106.35388 151.56536 107.3673 147.23645 C 107.86512 145.49842 109.33378 142.14412 110.65213 139.96161 C 113.43213 135.43175 114.54094 122.50265 112.49798 119.85842 C 111.4765 118.53631 110.95336 118.80515 108.94001 122.12012 C 106.0167 126.81484 104.49364 126.06973 105.43163 120.66223 C 106.57382 114.85335 103.98293 114.33775 99.61198 119.36596 C 94.82187 125.04283 92.09302 135.84006 92.48197 148.04507 C 92.85313 161.10294 94.2194 167.35576 97.51658 170.22196 C 99.00032 171.51175 101.95377 176.1052 104.18691 180.36194 C 106.43082 184.77275 109.29107 189.14047 110.60994 190.28695 C 111.84639 191.36178 117.15368 193.08097 122.32467 193.95808 C 127.49566 194.8352 132.14352 195.98115 132.72053 196.48273 C 133.62725 197.27094 132.80401 203.21235 130.32246 214.22455 C 129.5919 217.06272 128.89042 222.5311 128.77996 226.4872 C 128.58707 230.37164 128.20777 233.8046 127.92115 234.13432 C 126.48805 235.78292 114.56642 238.0101 108.82219 237.79242 L 102.45085 237.46376 L 90.58097 227.14544 C 74.82613 213.30525 73.987295 211.2736 78.48973 199.26847 C 81.50572 191.4705 82.14255 185.07761 80.3609 180.63447 C 78.00924 174.68281 76.08857 174.89454 74.538 181.50616 C 74.05096 183.39828 72.9799 185.79575 72.04839 186.86733 C 70.47198 188.68078 70.38955 188.60913 69.07391 185.29469 C 68.3175 183.33469 68.32074 181.16673 69.03729 180.34243 C 70.75701 178.36412 71.05335 171.53052 69.408525 171.25844 C 65.49176 170.6033 60.07612 186.15613 61.080874 194.98906 C 61.53288 198.13164 62.27957 206.59552 62.84686 213.60099 C 63.60109 224.3869 64.235735 226.81994 66.06697 227.5435 C 67.342745 228.07364 74.94406 233.81305 82.89663 240.14725 C 96.51531 251.11747 97.7302 251.88413 103.87958 253.46702 C 108.13684 254.56286 112.86336 254.61945 117.52523 253.75153 C 121.41667 252.93748 125.362 252.89385 126.34038 253.59962 C 127.6377 254.43794 127.90707 258.29005 127.37098 267.23073 C 127.00298 274.14676 127.09024 282.0374 127.60312 284.94346 C 128.6289 290.75558 127.44309 292.61914 120.90741 295.47615 C 118.42427 296.5014 115.40022 298.64833 114.028 300.0604 C 110.08698 304.59404 107.92979 304.7449 102.64729 301.1659 C 99.9702 299.41763 95.56587 297.32562 92.7277 296.59506 C 88.06907 295.29502 87.40963 294.72178 82.08726 288.3585 C 76.51761 281.78025 76.40286 281.24634 76.59898 275.19394 C 76.67712 270.7756 75.687435 266.58675 73.22479 261.2622 C 66.79746 246.84718 63.009465 244.71208 64.35147 256.15367 C 65.216156 262.9835 64.01633 266.86094 61.62964 265.94396 C 60.837665 265.68967 60.09904 262.8768 59.81189 259.87755 C 59.2446 252.87208 57.151535 250.61845 54.21368 253.99807 C 51.92072 256.63582 51.85713 262.36928 53.879594 271.3633 C 54.754524 275.01823 56.406885 277.61236 60.09844 281.6897 C 62.944145 284.7423 66.11256 289.08846 67.28112 291.40674 C 71.987675 301.1421 74.93736 304.57453 81.18371 307.5442 C 89.75586 311.66733 100.54285 317.57106 102.52116 319.2908 C 105.15891 321.58375 111.0319 320.32146 126.92689 314.0229 C 129.18428 313.09085 131.55644 312.6927 131.96858 313.051 C 132.46316 313.48092 134.95436 318.1067 137.72517 323.4097 C 142.11979 332.0056 143.3169 333.6251 149.9937 339.42915 C 162.1933 350.0341 174.89718 354.5651 187.016 352.94347 C 191.99681 352.2081 203.05806 347.64107 208.52215 343.85254 C 215.47321 339.18585 222.13336 330.35887 228.3485 317.38238 C 233.82933 306.08303 235.30553 305.05078 243.00652 306.68 C 251.40628 308.3378 257.29706 306.22265 265.89243 298.49905 C 270.05218 294.87915 275.86377 290.5244 279.00258 288.91136 C 282.66452 287.0295 286.98914 283.5529 290.88006 279.40987 C 296.7272 273.3494 297.2789 272.3818 298.90112 265.68775 C 300.0363 260.8858 302.10676 256.1733 305.19493 251.6219 C 311.5038 242.20012 312.38093 237.02913 309.49107 226.7022 C 307.6911 219.78294 303.5308 220.07386 304.2522 227.06855 C 304.75807 230.98155 302.88155 238.46758 301.4948 238.56455 C 301.03254 238.59687 300.3801 237.0167 300.00352 234.9527 C 299.1356 230.29084 296.48384 230.01176 292.97274 234.0508 C 290.39316 237.01828 289.6125 240.24705 289.1696 249.41347 C 289.07692 252.5167 287.92397 258.1715 286.6417 261.97728 L 284.34227 268.95095 L 278.5269 272.1447 C 273.2347 275.0696 264.72876 281.8579 260.27538 286.81446 C 259.04647 288.06168 257.43397 288.25185 254.7391 287.35643 C 252.68213 286.72608 248.91945 286.06016 246.44332 286.07847 C 241.01803 285.99333 240.05743 284.4347 241.7012 278.0488 C 242.3601 275.29307 242.46628 266.84697 241.93832 259.29682 C 240.79997 244.12487 241.7886 241.65575 248.0204 243.3103 C 250.93023 243.95842 260.99206 245.27904 265.52035 244.49594 C 270.04864 243.71285 283.40495 233.40373 288.47467 228.40408 C 291.9572 225.0638 296.33193 221.1966 298.24884 219.82386 C 301.49863 217.58372 301.9679 216.54445 304.23825 206.94057 C 305.5345 201.12092 308.10603 192.50242 309.85755 187.65738 C 311.6915 182.884 313.1133 177.75234 313.08798 176.28314 C 313.08745 172.95416 310.1658 165.49398 308.35234 163.91757 C 306.78617 162.55612 304.63652 165.02901 304.33966 168.53363 C 304.11445 171.95582 302.03645 174.34628 300.4703 172.98483 C 299.72842 172.33994 299.10455 170.06099 298.87127 167.83215 C 298.58036 163.67186 295.88173 161.61542 294.61725 164.56834 C 294.06556 165.53595 292.97296 167.62525 292.08454 169.31317 C 290.69454 171.5781 290.8955 173.34469 292.842 177.93114 C 295.25454 183.64629 295.49588 191.52615 293.41517 199.41356 C 293.01056 201.37733 292.4233 204.05064 292.273 205.22243 C 292.16577 207.01057 290.9261 208.1037 286.77333 210.71667 C 283.95347 212.46223 280.35618 215.2686 278.92308 216.9172 C 277.48998 218.5658 273.56673 222.24657 270.19518 224.95974 C 263.0938 230.79824 260.78253 230.95985 251.1711 226.36745 C 240.11906 221.1016 240.03663 221.02995 240.12177 215.60466 C 240.16434 212.89202 239.0168 207.55293 237.58641 203.70458 C 236.15603 199.85623 235.04458 196.14041 235.1448 195.35922 C 235.32743 194.64967 238.36603 193.81784 242.13572 193.47682 C 245.83375 193.21823 251.1944 192.37886 254.00724 191.64023 L 259.1141 189.08288 L 264.90958 179.26501 C 268.11575 173.07955 273.03086 164.76169 275.8324 160.54 C 278.64474 156.47238 281.199 152.03572 281.42097 150.7815 C 281.79703 149.5165 281.53467 144.65744 280.9749 139.97402 C 280.48682 135.20817 280.23146 129.34218 280.36724 126.85527 C 281.1614 118.28364 278.06087 112.69403 270.89 109.78902 C 266.50723 108.00518 265.0849 109.80786 268.13857 113.62012 C 271.12058 117.5148 271.54403 121.35615 269.0178 121.76506 C 267.6418 122.01611 265.93233 120.81953 263.0042 117.69526 C 259.40585 113.84367 258.8396 113.49617 257.62148 114.89748 C 255.25686 117.61766 259.79532 129.37767 266.18927 136.67247 C 271.336 142.73835 271.48684 144.89554 267.09486 152.94456 C 264.8881 156.81499 260.55324 163.46647 257.44352 167.70972 L 250.77163 174.19027 L 239.9328 176.36641 L 228.1507 177.26772 L 225.32978 172.35532 C 220.89584 164.30411 215.2723 156.95544 210.56304 152.71702 C 205.12269 147.98779 205.54885 146.33219 212.8334 143.11314 C 212.8334 143.11314 216.50103 141.46928 217.6628 140.12405 C 218.82456 138.77882 220.1422 134.70531 220.1422 134.70531 C 221.23105 131.455 222.14425 127.90728 222.1405 126.74625 C 222.28327 123.25241 218.65154 112.2806 215.9777 108.36437 C 211.90956 102.22306 213.82217 96.36031 224.78863 81.58061 C 229.03405 75.864405 230.05877 75.01856 234.83163 73.52352 C 242.2417 70.99246 241.81502 69.31908 233.19652 66.747565 Z" fill="black"/>
        </g>
        <g id="Graphic_138">
          <path d="M 226.22768 72.26711 L 226.22768 72.26711 C 231.28015 71.449295 232.53761 69.50331 228.40589 69.095454 C 226.53532 68.91658 223.22088 70.232216 220.03197 72.235844 C 210.25027 78.49402 195.65472 98.94682 199.37106 101.16436 C 200.50353 101.85936 200.85103 101.29313 207.93357 89.64952 C 214.66862 78.57215 220.2507 73.14958 226.22768 72.26711 Z" fill="#FFFFFF"/>
        </g>
        <g id="Graphic_137">
          <path d="M 276.4898 125.65545 L 276.4898 125.65545 C 277.67185 122.63087 272.58204 112.86695 273.8075 121.74896 C 274.5289 127.85317 269.97944 127.64828 268.204 125.95236 C 264.81137 122.65445 265.46413 128.51675 268.94395 130.67341 C 272.58864 132.97338 275.45642 139.66314 275.0631 145.10998 C 274.88424 146.98054 272.46628 152.25928 269.54297 156.954 C 266.77374 161.63795 263.7502 167.11387 262.87257 168.95588 C 260.0069 175.58205 254.80788 178.73269 242.44554 181.30036 C 231.15102 183.63853 229.14091 184.78554 232.1908 187.43678 C 233.8394 188.86988 246.43125 187.37002 252.45457 184.93593 C 256.67196 183.24748 258.0943 181.4448 267.10775 166.41457 C 269.94864 161.6482 274.06853 155.244 276.3184 151.98991 L 278.91777 145.80203 L 278.04678 136.84976 C 276.68428 131.75795 276.02055 126.69471 276.4898 125.65545 Z" fill="#FFFFFF"/>
        </g>
        <g id="Graphic_136">
          <path d="M 210.4754 97.21369 C 209.8165 99.96943 208.77776 102.82915 208.13287 103.57102 C 206.12653 105.87905 204.50272 102.58616 205.71332 98.86281 C 207.31076 94.02854 215.92337 82.12311 219.48133 79.86142 C 221.62398 78.39546 221.15471 79.43473 216.9093 85.15093 C 213.66703 89.71312 211.3385 94.05657 210.4754 97.21369 Z" fill="#FFFFFF"/>
        </g>
        <g id="Graphic_135">
          <path d="M 306.868 181.44065 L 306.868 181.44065 C 307.58455 180.61635 308.25424 178.0147 308.17505 175.77508 L 308.12065 171.67567 L 305.14346 175.59997 C 301.86888 179.6999 301.5607 179.72146 297.93704 174.40068 C 296.55352 172.32969 295.9873 171.98219 295.5288 173.17553 C 295.12042 173.97828 296.42528 177.13864 298.18162 180.11258 L 301.51867 185.76308 L 298.6465 196.72517 L 295.77436 207.68726 L 287.78457 215.21368 C 283.34896 219.31738 278.52276 223.37097 277.025 224.09506 C 275.53804 224.97323 272.5463 227.58242 270.53997 229.89045 C 263.9477 237.47398 260.393 237.5677 245.45272 230.94795 C 241.69705 229.2751 239.91268 230.3289 240.4579 233.69722 C 240.7305 235.38137 241.38994 235.9546 243.51857 236.50254 C 245.0093 236.7854 247.84748 237.51595 249.81125 237.92057 C 254.4591 239.06652 264.10556 238.62423 267.7174 237.13296 C 272.612 235.1649 284.15977 225.3768 296.4381 212.7505 C 300.4831 208.5967 300.79828 207.56821 303.0611 195.64228 C 304.5077 188.65083 306.15145 182.26495 306.868 181.44065 Z" fill="#FFFFFF"/>
        </g>
        <g id="Graphic_134">
          <path d="M 202.05297 110.73162 C 198.48747 110.67127 197.19014 109.83296 196.47307 107.32827 C 196.0787 106.11715 197.14652 105.88764 200.54015 106.81162 C 205.97998 108.21187 207.09843 110.92074 202.05297 110.73162 Z" fill="#FFFFFF"/>
        </g>
        <g id="Graphic_133">
          <path d="M 208.7691 115.991 C 204.57 120.15558 199.823 126.44879 200.98402 126.44502 C 201.60036 126.40192 203.13744 125.13315 204.438 123.8035 C 210.25283 117.28079 212.51724 115.3418 213.17668 115.91505 C 213.58882 116.27332 213.202 117.38424 212.42456 118.44505 C 211.57548 119.58829 207.9534 124.25446 204.33131 128.92062 C 198.09032 137.09894 197.64962 137.43943 195.64275 136.41848 C 194.43863 135.80591 193.26683 135.6556 192.90855 136.06774 C 192.55028 136.47989 191.68665 136.30802 191.02721 135.73478 C 190.03806 134.87492 190.72228 133.58837 193.94676 129.87904 C 196.16807 127.32372 200.37416 122.1522 203.29047 118.46441 C 207.49656 113.2929 208.8079 112.11733 209.71463 112.90554 C 210.4565 113.55043 210.1521 114.733 208.7691 115.991 Z" fill="#FFFFFF"/>
        </g>
        <g id="Graphic_132">
          <path d="M 215.11294 123.67639 C 214.52893 124.18174 212.5226 126.48978 210.59868 128.86946 C 208.10153 131.90858 207.63227 132.94785 208.99748 132.5427 C 209.98287 132.24154 211.89977 130.8688 213.12868 129.62157 C 215.07414 127.55006 215.02404 127.94066 213.03224 131.5638 C 210.97956 135.42345 210.31312 135.85714 207.90864 135.79302 C 206.43945 135.81834 204.30381 136.27736 203.25754 136.81503 C 201.9963 137.6 201.28677 137.41736 201.21134 136.33876 C 201.08205 134.48975 214.3242 121.25414 215.3958 122.18565 C 215.80795 122.54393 215.6253 123.25347 215.11294 123.67639 Z" fill="#FFFFFF"/>
        </g>
        <g id="Graphic_131">
          <path d="M 197.3318 121.82301 C 190.94373 129.00516 186.09598 132.75059 183.95657 132.04858 C 181.6523 131.20326 182.20347 126.90668 185.13055 123.37297 L 187.47362 120.34463 L 184.71464 121.85368 C 180.09963 124.49896 177.94192 121.32082 178.92248 113.20067 C 179.56308 107.9688 181.7483 103.79021 181.99611 107.33415 C 182.19006 110.10768 183.22932 110.57694 186.35735 108.80983 C 188.8906 107.39398 189.05545 107.53729 188.73327 109.57271 C 188.18535 111.70134 188.3502 111.84465 191.05207 111.73314 C 192.52127 111.70782 193.6214 111.94057 193.40644 112.18786 C 193.11982 112.51758 194.7862 113.09782 196.98648 113.56332 C 199.176 113.87473 201.32617 114.73082 201.66666 115.17152 C 202.01793 115.76631 200.0547 118.69068 197.3318 121.82301 Z" fill="#FFFFFF"/>
        </g>
        <g id="Graphic_130">
          <path d="M 158.41098 90.01572 C 163.41817 97.40749 165.70518 102.43464 164.63036 103.67109 C 163.7705 104.66024 163.05018 104.32352 161.83152 102.39584 C 160.11827 100.03823 157.51416 95.75518 157.51416 95.75518 C 157.51416 95.75518 159.96419 100.049 160.5164 102.41038 C 161.66394 107.74947 158.90444 105.92954 154.52436 98.64876 C 149.06893 89.27544 148.78555 87.43719 153.63813 91.51076 C 157.17183 94.43784 157.51416 95.75518 157.51416 95.75518 C 157.51416 95.75518 157.25426 94.50949 155.5087 91.68963 C 154.5481 90.131 150.96052 86.4335 147.59168 83.64973 C 141.34857 78.51211 140.39875 77.10757 142.6777 76.4837 C 144.3403 75.90292 154.97373 85.14642 158.41098 90.01572 Z" fill="#FFFFFF"/>
        </g>
        <g id="Graphic_129">
          <path d="M 174.57956 114.20113 C 174.18572 116.31899 174.49442 119.62642 175.17917 121.66885 C 177.45917 127.70294 178.00114 133.23922 176.56804 134.88781 C 174.91998 136.7837 166.87578 140.2107 162.89113 140.79901 C 158.97813 141.3049 154.07221 139.78989 150.71414 137.1602 C 145.04805 132.52418 146.5189 120.34395 153.08313 116.78818 C 154.79584 115.8168 156.50154 115.85237 157.4907 116.71223 C 159.96359 118.86188 166.1232 117.26987 168.88543 113.59286 C 170.16445 111.95504 171.74086 110.14159 172.32487 109.63623 C 174.06614 107.96609 175.3279 110.51011 174.57956 114.20113 Z" fill="#FFFFFF"/>
        </g>
        <g id="Graphic_128">
          <path d="M 166.7085 111.0268 C 165.42297 112.50564 158.11572 113.94258 158.1423 112.66752 C 158.01344 110.8246 164.85432 107.68409 166.33316 108.96962 C 166.94934 109.50527 167.13702 110.53385 166.7085 111.0268 Z" fill="#FFFFFF"/>
        </g>
        <g id="Graphic_127">
          <path d="M 198.15602 144.68141 C 196.37166 145.73522 166.38226 146.43874 166.3176 145.51423 C 166.1129 142.58662 182.09083 139.6887 190.08922 141.14229 C 196.76173 142.45634 199.95117 143.7817 198.15602 144.68141 Z" fill="#FFFFFF"/>
        </g>
        <g id="Graphic_126">
          <path d="M 302.5895 249.79118 L 302.5895 249.79118 C 305.35173 246.11417 307.96222 240.25201 308.00155 239.70733 C 307.82215 238.2489 304.88518 241.6565 304.53067 243.22966 C 304.29092 245.33674 299.9733 247.8064 298.65444 246.6599 C 296.51126 244.79688 296.31968 240.11788 296.31968 240.11788 C 296.31968 240.11788 294.99573 246.37382 294.9176 250.79217 C 294.85348 253.19664 294.55285 255.54024 294.1229 256.0348 C 293.76464 256.44696 292.73668 259.46077 291.88436 262.77197 C 290.19048 269.54845 287.77576 272.65923 281.0289 276.92455 C 278.35233 278.50526 272.30423 282.79914 267.75387 286.36893 C 258.1909 293.54084 254.53597 294.41577 245.08617 292.13464 C 239.1733 290.61263 237.96218 291.007 238.47507 293.91305 C 238.85166 295.97704 240.51803 296.5573 249.00723 297.2798 C 257.10583 297.95218 259.1375 297.11334 269.94014 288.8483 C 274.50127 285.4326 279.96536 281.64407 282.14033 280.64037 C 286.93097 278.29248 289.86883 274.91286 291.32295 270.24346 C 293.3681 264.06176 297.3517 256.81548 302.5895 249.79118 Z" fill="#FFFFFF"/>
        </g>
        <g id="Graphic_125">
          <path d="M 191.52767 150.64167 C 188.96911 150.58832 182.85583 150.6287 177.91435 150.81941 C 173.04452 150.92769 168.93434 150.828 168.98444 150.4374 C 168.90902 149.35881 181.79826 147.68332 188.63186 147.97966 C 196.24666 148.3762 199.04926 150.81248 191.52767 150.64167 Z" fill="#FFFFFF"/>
        </g>
        <g id="Graphic_124">
          <path d="M 199.78948 163.61228 C 192.93915 170.82676 189.8262 177.23796 187.97876 187.3542 C 187.06932 192.06294 185.86625 198.10834 185.33988 200.54513 C 184.74185 203.06436 184.63727 221.4974 185.11347 241.59307 C 185.58967 261.68872 186.04107 283.64417 186.06368 290.6103 C 186.23442 305.23056 188.84896 319.37026 193.65625 331.6534 C 195.62432 336.54803 196.55312 340.9734 196.00143 341.941 C 195.18467 343.5465 181.88328 344.8637 180.2347 343.4306 C 179.90497 343.144 180.12318 340.72874 180.7212 338.2095 C 181.39089 335.60785 181.7524 333.02774 181.54445 332.2681 C 181.26483 331.59087 181.59026 327.3875 182.13064 322.9368 C 183.98456 308.48465 184.16952 254.66547 182.4052 223.89865 C 181.85516 212.71134 180.27987 199.0409 179.0499 193.63016 C 176.71174 182.33564 170.94761 169.65489 165.81166 163.74309 C 163.87268 161.47868 162.3243 159.26438 162.36363 158.7197 C 162.6357 157.07488 174.24216 155.87618 175.89075 157.30928 C 176.71505 158.02583 177.87283 160.19002 178.62924 162.15002 C 180.57952 167.8975 182.58263 167.75742 187.46217 161.14527 C 191.13436 156.0885 192.23074 155.16023 195.81401 154.36773 C 199.08912 153.59678 200.34335 153.81875 202.27156 155.92907 L 204.6119 158.39766 L 199.78948 163.61228 Z" fill="#FFFFFF"/>
        </g>
        <g id="Graphic_123">
          <path d="M 207.42688 170.97496 C 205.6355 173.0357 204.61455 175.04257 205.0267 175.40085 C 205.52128 175.83078 206.99748 174.79852 208.35892 173.23236 C 209.72037 171.6662 211.279 170.7056 211.69114 171.06387 C 212.18572 171.4938 211.51227 172.93444 210.29413 174.33574 C 209.076 175.73705 208.6175 176.9304 209.3987 177.0306 C 210.10825 177.21324 211.5128 176.26342 212.4443 175.19183 C 215.09555 172.14194 216.14234 174.93324 213.7815 178.81444 L 211.8398 182.04698 L 214.36928 179.47011 C 215.58741 178.0688 217.15682 177.2623 217.56897 177.62057 C 218.06354 178.0505 215.74203 181.38702 211.9443 185.7558 C 205.56701 193.09203 204.40652 196.42478 209.69498 192.33886 C 211.1604 191.15252 213.98727 188.40002 215.92196 186.17442 C 217.78499 184.03125 219.9885 182.32878 220.61562 182.43977 C 221.39682 182.53998 219.36192 185.54678 214.9301 190.8115 C 209.35177 197.3951 208.72843 198.44513 211.5984 196.30897 C 213.50452 194.78214 216.70044 191.77157 218.56347 189.6284 C 220.7239 187.3096 222.27175 186.1949 222.4797 186.95456 C 222.75932 187.63178 220.15119 191.29801 216.85506 195.08978 C 213.55892 198.88154 211.02244 202.46535 211.21963 203.07091 C 211.72875 204.81595 214.4554 202.84465 219.75787 196.74485 C 222.55242 193.5301 225.0318 191.34382 225.52637 191.77375 C 226.02095 192.20368 223.55612 195.70506 219.40013 200.48598 C 214.59924 206.00877 212.9835 208.3669 214.27706 208.0442 C 215.26245 207.74303 218.46914 204.88655 221.19203 201.75422 C 226.0037 196.38552 226.22943 196.29232 225.65295 199.11971 C 225.30922 200.84697 225.44552 201.68905 226.02954 201.1837 C 226.53112 200.60669 227.14746 200.56359 227.273 201.25158 C 227.47017 201.85715 228.1905 202.19387 228.95014 201.98591 C 232.51187 200.88524 229.8644 205.09616 219.8327 216.63632 C 212.95382 224.54956 209.12754 229.6171 209.62212 230.04703 C 210.1167 230.47696 214.39822 226.38404 220.49967 219.5316 C 225.95623 213.42103 229.2739 209.93744 227.86235 211.8942 C 226.4508 213.85096 224.70253 216.52804 224.02908 217.96868 C 223.0189 220.12963 223.54203 219.8608 226.89204 216.83945 L 231.0518 213.21955 L 226.33334 218.814 C 219.98837 226.6125 221.9128 227.56179 228.5875 220.0499 C 233.54247 214.51635 233.7682 214.42315 231.34648 218.54086 C 229.88482 220.88822 224.76876 227.4395 219.98942 233.27045 C 212.8347 241.6675 211.99638 242.96483 215.35716 240.09757 C 217.77565 238.14782 222.26136 233.65352 225.4966 230.09827 C 228.73186 226.54302 231.20046 224.20266 230.86373 224.92298 C 230.60943 225.71495 231.208 226.5247 232.0824 226.85066 C 233.1933 227.2375 232.9498 228.18355 230.95422 230.64566 C 229.46024 232.53077 229.05186 233.33352 230.08736 232.64176 C 236.18557 227.95728 236.18557 227.95728 235.93504 229.91027 C 235.8456 230.84556 232.16264 235.74824 227.86334 240.69402 C 219.3364 250.50315 219.0751 252.30206 227.07566 244.92973 C 231.4396 240.90846 230.87714 241.72198 223.51823 250.5204 C 217.9399 257.104 215.26012 260.85267 216.04132 260.95288 C 216.75086 261.13552 218.5961 259.8452 220.0292 258.1966 L 222.76287 255.21836 L 221.27266 258.2645 C 219.98664 260.90925 220.28403 260.73362 223.51928 257.17837 C 225.52562 254.87034 228.57823 252.02463 230.2694 250.7451 C 235.84447 246.32945 232.08285 252.3215 220.6897 265.4278 C 213.67829 273.66 210.28194 278.23297 211.06314 278.33318 C 211.77269 278.51582 215.83924 274.67018 220.14931 269.8785 L 227.98126 261.20182 L 220.2355 271.11116 L 212.48976 281.0205 L 218.82773 274.22895 C 222.27794 270.4264 226.84608 266.00376 228.96718 264.22964 L 232.8511 261.09355 L 229.15735 265.84214 C 227.09013 268.3867 223.3032 272.90955 220.64118 275.80536 C 217.19097 279.6079 216.35265 280.90522 217.71787 280.50008 C 218.78569 280.27057 223.0672 276.17765 227.30562 271.46838 C 233.6937 264.28623 234.71842 263.44038 233.45394 266.3933 C 232.5763 268.2353 232.02137 271.37088 232.079 273.30233 C 232.14042 276.3948 231.51707 277.44483 225.26154 284.30804 L 218.27868 291.84147 L 223.76055 287.2001 C 229.82644 282.05336 230.5753 281.6913 230.7477 284.15667 C 230.8339 285.38935 229.61577 286.79065 226.4484 289.10245 C 223.496 291.16696 221.6222 293.15605 220.9703 294.90485 L 220.00322 297.68214 L 222.72988 295.71084 C 228.1832 291.76823 228.5237 292.20893 224.43235 297.91436 C 221.59847 301.6738 220.86414 303.35095 222.13615 302.72007 C 223.18241 302.1824 224.64784 300.99605 225.43604 300.08933 C 226.1526 299.26503 227.20964 298.88144 227.78664 299.38302 C 228.44608 299.95626 226.09224 302.83053 219.08783 310.0558 C 211.51018 317.94047 209.80124 320.07287 210.8405 320.54213 C 211.63247 320.79643 214.3198 319.3698 216.79917 317.18354 C 224.77118 310.50997 225.137 312.41987 217.46614 320.07882 C 211.45413 325.99597 210.39008 327.3865 210.75589 329.2964 C 211.1648 331.82264 205.77289 338.8577 203.65503 338.46387 C 199.4301 337.8303 195.05597 322.8846 192.80942 301.82887 C 188.28023 258.09414 187.5153 225.01227 190.47908 204.28898 C 192.27587 191.23435 196.24063 178.18296 199.33257 174.79257 C 207.04276 166.58894 214.16245 163.22658 207.42688 170.97496 Z" fill="#FFFFFF"/>
        </g>
        <g id="Graphic_122">
          <path d="M 187.1928 157.29315 C 184.3196 161.59728 178.24188 159.93196 179.77843 155.3342 C 180.57365 153.42054 187.15619 152.3409 188.11679 153.89952 C 188.46806 154.49431 188.03112 155.99583 187.1928 157.29315 Z" fill="#FFFFFF"/>
        </g>
        <g id="Graphic_121">
          <path d="M 156.2896 180.35726 C 157.00992 180.69398 159.3783 179.13483 161.63193 177.04176 C 168.02377 171.02063 168.51134 172.4575 162.49232 179.3816 C 158.04971 184.49223 157.22217 185.94364 158.21133 186.8035 C 159.11806 187.5917 160.3793 186.80674 163.2455 183.50955 C 165.25183 181.20152 167.88529 179.00448 168.87067 178.70331 C 170.16423 178.3806 168.5485 180.73874 163.7476 186.26153 C 158.44513 192.36132 156.9727 194.5546 158.01196 195.02386 C 158.88637 195.3498 161.30485 193.40005 165.05246 189.42188 C 174.49314 179.39402 174.28247 184.13131 164.82401 195.01203 C 162.02947 198.22679 159.86204 201.55253 160.05922 202.1581 C 160.26718 202.91774 162.6749 200.8139 166.54426 196.3627 C 169.91205 192.4885 173.03631 189.56037 173.44846 189.91864 C 174.76733 191.06512 173.02983 193.8963 166.36592 201.56225 C 162.71151 205.76616 159.68422 210.08106 159.52313 211.09877 C 159.38358 212.42465 161.4939 210.49645 166.22313 205.0561 C 170.02085 200.68732 173.6467 197.18217 174.27381 197.29316 C 175.9903 197.4828 174.6434 200.36408 170.21155 205.6288 C 167.99025 208.18412 165.02384 212.2625 163.56218 214.60987 L 160.99714 218.89244 L 165.902 213.74948 C 168.64645 210.92532 171.30846 208.0295 171.79927 207.29842 C 172.29008 206.56732 173.4581 205.55662 174.36107 205.1838 C 176.83343 204.00447 173.64504 209.33708 167.65835 216.72343 C 159.522 226.58266 158.96707 229.71823 166.8599 220.80505 C 173.10465 213.78775 176.58019 211.4544 175.15462 215.42504 C 174.75702 216.38188 171.92314 220.14132 168.7811 223.9223 C 165.55662 227.63164 162.5902 231.71003 162.21415 232.97503 C 161.77721 234.47654 163.88753 232.54834 168.47345 227.27284 C 175.2198 219.67853 178.92107 217.25198 176.62487 222.0577 C 176.0123 223.2618 172.39022 227.92798 168.5925 232.29675 C 164.36486 237.1601 161.90003 240.66148 162.3946 241.0914 C 162.88918 241.52134 165.72683 238.92292 169.23792 234.88387 C 172.6057 231.00967 175.80163 227.9991 176.42874 228.1101 C 178.22765 228.3714 176.72666 231.26344 171.29166 237.68218 C 162.92957 247.63462 162.1489 250.8634 170.33912 241.77458 C 177.30043 233.933 180.5109 232.23753 177.1291 238.1256 C 176.15825 239.74187 172.67948 244.24317 169.38335 248.03494 C 166.15887 251.74427 163.63316 255.48216 163.83035 256.08773 C 164.0383 256.84738 166.51767 254.6611 170.67366 249.8802 C 174.18476 245.84113 177.59564 242.58328 178.22276 242.69426 C 178.92153 242.72282 177.27723 245.77972 174.72997 249.20945 C 165.81996 261.2905 165.5549 261.9284 171.94296 254.74625 C 181.79202 243.91564 182.2979 247.82864 172.6568 259.4189 C 164.7963 268.79433 163.51404 272.6001 171.05937 264.25316 C 177.37578 257.15343 181.02695 255.11748 177.98188 260.28523 C 177.08268 261.81907 175.15877 264.19876 173.6217 265.46753 C 172.01296 266.81873 169.31162 270.25922 167.57412 273.0904 L 164.45739 278.34057 L 170.7738 271.24084 C 176.9469 264.30598 180.444 262.2808 178.20867 266.85 C 177.5961 268.0541 173.97402 272.72028 170.1763 277.08905 C 165.94866 281.9524 163.48383 285.45378 163.9784 285.8837 C 164.47299 286.31364 167.31063 283.71522 170.82173 279.67617 C 179.85026 269.29003 180.32005 271.57975 171.52102 283.0337 C 167.33648 288.5134 164.18742 293.30132 164.59957 293.6596 C 165.01172 294.01787 166.77454 292.6559 168.49426 290.6776 C 170.21398 288.69928 173.39912 285.53463 175.66353 283.59565 C 179.16762 280.56353 179.54744 280.45955 178.53726 282.6205 C 177.8638 284.06114 174.17007 288.80974 170.45479 293.25016 C 166.38123 298.10274 163.84475 301.68654 164.33932 302.11647 C 164.8339 302.5464 167.67155 299.948 171.18264 295.90893 C 177.05835 289.1497 180.3297 287.21773 178.83247 291.2708 C 178.43487 292.22763 174.37208 297.2343 169.77539 302.3557 C 163.80647 308.8892 161.54583 311.9892 161.9903 312.80973 C 162.5172 313.7019 164.77084 311.60884 170.14496 305.42662 C 174.2293 300.72813 178.43916 296.71763 179.42455 296.41647 C 181.54941 295.80337 178.9305 299.31552 171.86521 306.7773 C 169.70479 309.0961 167.21841 312.2893 166.33 313.97723 C 163.23481 319.53558 166.24108 318.2415 172.2601 311.3174 C 175.6279 307.4432 178.8238 304.43264 179.45092 304.54363 C 180.62272 304.69394 174.23141 314.04406 167.85411 321.3803 C 165.6328 323.9356 163.96696 326.68435 164.16415 327.2899 C 164.3721 328.04957 166.77982 325.94573 170.64919 321.49452 C 179.82103 310.94353 179.99342 313.4089 170.83612 325.275 C 159.33576 340.16944 159.10678 342.4306 169.96278 331.607 C 174.80676 326.70055 178.30008 323.51435 177.5943 324.49273 C 176.97095 325.54277 174.43447 329.12657 171.96965 332.62795 C 169.49404 335.97524 168.2689 338.3835 169.24352 337.92824 C 170.73049 337.05007 177.2813 329.57522 177.3427 332.6677 C 177.3427 332.6677 176.12262 344.4706 174.67118 344.91022 C 173.21974 345.34984 167.29158 344.33567 167.29158 344.33567 C 162.59738 344.74134 157.12146 341.7178 154.5586 337.17447 C 153.57646 335.30767 152.22526 333.69894 151.52649 333.6704 C 149.17212 333.21566 141.66296 321.04403 140.16416 315.11015 C 139.31077 311.7634 137.81574 306.99053 136.70806 304.43574 C 134.62524 299.0072 131.84968 263.74337 132.76183 253.5377 C 133.54521 244.81197 133.94553 238.3582 133.87334 235.11165 C 133.80493 233.02612 134.00859 229.29576 134.29845 226.79808 C 134.58831 224.3004 134.8744 220.6417 134.80599 218.55617 C 134.78391 214.91902 136.25528 206.06778 139.48518 191.36456 C 142.49311 177.91557 149.40703 164.96763 154.48805 163.45104 C 157.0644 162.65154 158.97859 166.77573 157.0439 169.00133 C 156.18404 169.99049 155.3996 172.05824 155.27084 173.5382 C 155.05263 175.95345 155.27837 175.86025 158.44197 172.38743 C 163.60113 166.4525 164.55095 167.85703 159.49577 174.1718 C 156.3645 178.10687 155.4152 180.0313 156.2896 180.35726 Z" fill="#FFFFFF"/>
        </g>
        <g id="Graphic_120">
          <path d="M 100.07958 130.4816 L 100.07958 130.4816 C 100.79184 125.1673 98.56624 123.23262 97.84321 128.39283 C 95.73123 142.47595 97.13518 160.339 100.80895 165.26918 C 101.748 166.51964 104.80543 171.49292 107.53314 176.17958 C 112.4509 184.50663 112.78061 184.79325 117.65798 187.00702 C 126.76404 191.0154 130.90655 191.57734 132.84123 189.35174 C 135.42081 186.38427 133.19521 184.44959 126.64823 183.82353 C 120.57428 183.31923 116.76474 180.87595 114.0047 175.72704 C 113.12653 174.24007 110.35948 170.0981 107.71797 166.6441 C 103.45641 161.05826 102.97962 159.77547 102.60575 152.21455 C 102.22486 145.66056 102.60793 143.38862 104.47096 141.24545 C 107.48047 137.7834 109.23575 134.09939 108.32903 133.31118 C 107.91688 132.95291 106.65564 133.73788 105.50916 135.05675 C 101.7831 139.3431 99.22778 137.12179 100.07958 130.4816 Z" fill="#FFFFFF"/>
        </g>
        <g id="Graphic_119">
          <path d="M 65.09023 180.78052 L 65.09023 180.78052 C 65.09023 180.78052 61.752206 190.83734 65.42109 199.48555 C 66.34236 201.58886 67.43979 207.31855 67.7738 212.09517 C 67.7738 212.09517 67.4381 217.46157 69.092 220.87683 C 70.74591 224.29208 81.92797 232.9376 81.92797 232.9376 C 94.81932 244.57803 95.86264 247.96646 102.60987 249.02583 C 117.52413 251.52867 124.94608 251.37455 127.13453 245.028 C 127.704 243.20754 127.7288 241.34775 127.23422 240.91782 C 126.73964 240.48788 122.82664 240.99377 118.6378 241.98345 C 114.3773 243.05556 108.45043 243.54743 105.25398 243.229 L 99.55986 242.62074 L 85.71868 229.57576 C 73.20715 217.83134 71.94916 216.44835 72.16736 214.0331 C 72.37856 212.6248 72.41036 209.75806 72.25951 207.60087 C 72.10113 203.12164 72.98201 199.11168 74.70173 197.13336 C 75.33585 196.23741 76.34603 194.07646 76.98716 192.17357 L 78.14765 188.84082 L 75.77927 190.39998 C 74.60047 191.2566 73.01328 192.91596 72.40071 194.12009 C 71.78814 195.3242 70.691765 196.25248 69.91057 196.15227 C 68.18331 195.80854 66.615264 189.89202 65.586555 187.54822 C 64.68855 185.54007 65.09023 180.78052 65.09023 180.78052 Z" fill="#FFFFFF"/>
        </g>
        <g id="Graphic_118">
          <path d="M 129.6164 303.77035 L 129.6164 303.77035 C 129.49788 302.0754 129.07119 300.40203 128.65904 300.04376 C 127.1753 298.75397 122.1266 300.7328 115.30807 305.08056 C 111.59603 307.35303 107.94486 309.38898 107.10278 309.5253 C 106.33236 309.57915 102.11443 307.93862 97.7101 305.8466 C 93.38819 303.82626 87.48234 301.2973 84.69427 300.17615 C 79.68437 298.28132 79.51951 298.138 74.85983 290.18 C 70.737816 283.26828 70.3219 281.74898 71.33908 278.5811 C 72.05187 276.59577 72.18387 272.94785 71.857395 270.49327 C 70.64144 263.06865 69.08982 263.0223 67.04845 270.36503 C 65.57654 275.8873 63.12196 276.21376 60.383474 271.37302 C 57.727415 266.60393 55.657216 263.56772 55.657216 263.56772 C 53.79949 268.83286 61.5671 278.3354 68.69591 287.282 C 70.81053 289.8438 74.143804 294.3333 76.04345 297.14238 C 79.04701 301.34524 80.44832 302.56337 84.69857 304.66616 C 87.50818 306.0955 90.93414 307.48172 92.11671 307.78612 C 93.45337 308.07975 100.19527 310.5888 102.13048 311.6922 C 108.19418 315.3714 112.32818 314.5018 120.63044 311.44384 C 129.39495 308.35356 129.90731 307.93063 129.6164 303.77035 Z" fill="#FFFFFF"/>
        </g>
        <g id="Graphic_117">
          <path d="M 236.51922 343.44318 C 235.6987 343.88765 235.66637 343.4254 236.45457 342.51867 C 237.16035 341.5403 237.83757 341.26068 237.79824 341.80536 C 237.83056 342.2676 237.2681 343.08114 236.51922 343.44318 Z" fill="#FFFFFF"/>
        </g>
        <g id="Graphic_116">
          <path d="M 218.86727 207.2587 C 217.39808 207.28402 212.27125 213.6812 211.37582 216.37607 C 210.86723 217.96001 212.18934 216.93853 215.55713 213.06434 C 220.44045 207.6132 220.78795 207.04697 218.86727 207.2587 Z" fill="black"/>
        </g>
        <g id="Graphic_115">
          <path d="M 216.82213 213.4404 C 214.52917 216.07815 214.27487 216.87012 215.6401 216.46498 C 218.14477 215.7479 221.72752 211.62642 220.65594 210.6949 C 220.2438 210.33663 218.4702 211.54451 216.82213 213.4404 Z" fill="black"/>
        </g>
        <g id="Graphic_114">
          <path d="M 160.71626 277.98282 C 160.14302 278.64226 160.05358 279.57754 160.46573 279.9358 C 160.9603 280.36575 161.79161 280.07536 162.36485 279.41592 C 162.9381 278.7565 163.10996 277.89286 162.61538 277.46293 C 162.20323 277.10465 161.2895 277.3234 160.71626 277.98282 Z" fill="black"/>
        </g>
      </g>
    </g>
  </g>
</svg>
