<?xml version="1.0" encoding="UTF-8" standalone="no"?>
<!DOCTYPE svg PUBLIC "-//W3C//DTD SVG 1.1//EN" "http://www.w3.org/Graphics/SVG/1.1/DTD/svg11.dtd">
<svg xmlns="http://www.w3.org/2000/svg" xmlns:xl="http://www.w3.org/1999/xlink" version="1.1" xmlns:dc="http://purl.org/dc/elements/1.1/" viewBox="36 94.5 328.5 171" width="328.5" height="171">
  <defs>
    <clipPath id="artboard_clip_path">
      <path d="M 36 94.5 L 364.5 94.5 L 364.5 265.5 L 36 265.5 Z"/>
    </clipPath>
  </defs>
  <g id="Boar_Passant_(2)" stroke-opacity="1" fill="none" fill-opacity="1" stroke-dasharray="none" stroke="none">
    <title>Boar Passant (2)</title>
    <g id="Boar_Passant_(2)_Layer_2" clip-path="url(#artboard_clip_path)">
      <title>Layer 2</title>
      <g id="Group_3">
        <g id="Graphic_23">
          <path d="M 173.25456 98.51268 C 157.58987 99.4218 136.01599 101.70547 130.63638 103.07077 C 126.10042 104.20944 124.63422 105.18858 122.77947 108.18755 L 120.51399 111.93533 L 120.13523 108.4456 C 119.76386 105.37954 119.44056 105.06734 116.90964 105.74721 C 110.68639 107.33914 106.66284 113.55445 100.81913 130.82031 C 99.60913 134.33777 98.0555 136.37793 95.01717 138.33806 C 92.6051 139.75751 86.56358 145.6902 81.36754 151.50218 C 76.1715 157.31417 71.38065 162.05958 70.63922 162.07252 C 70.00372 162.08361 66.86556 158.3242 63.7126 153.71745 C 60.66557 149.10884 57.527405 145.34943 56.8919 145.36052 C 55.62089 145.38271 55.73975 146.12228 57.86442 158.58726 C 58.57388 162.81287 58.57388 162.81287 53.99963 155.68813 C 49.750525 148.98152 46.64379 147.0227 47.25103 151.46199 C 47.97158 156.3231 49.823404 165.2965 50.596256 167.08416 C 51.370956 168.97773 50.949135 169.09104 44.687064 168.4587 L 38.001324 167.83375 L 38.72927 173.11853 C 39.82858 181.46937 41.781314 184.08403 50.00536 187.86062 C 53.959436 189.80464 58.968985 191.51835 60.882894 191.90874 C 63.64414 192.28434 65.145475 193.31763 66.67269 195.83377 C 68.63467 198.978 68.64206 199.40168 67.08473 201.23 C 66.14996 202.30582 65.432575 203.6957 65.447365 204.54303 C 65.48989 206.97913 69.718654 212.52065 72.49469 213.7436 C 74.95113 214.86616 75.3711 214.64693 76.07555 212.51564 C 79.21294 204.09085 90.30099 201.99022 108.28793 206.6559 C 109.99185 207.1559 110.10147 207.36588 108.73748 208.13134 C 107.89754 208.5698 105.41838 212.21536 103.1566 216.17498 C 98.84118 223.8787 92.59337 230.13283 88.0611 231.48333 C 84.58246 232.4976 67.91114 248.5751 68.89028 250.0413 C 69.21913 250.67127 70.49753 251.07276 71.55671 251.05427 C 72.61588 251.03578 74.0039 251.64725 74.44236 252.4872 C 76.94872 256.46954 87.13713 257.45714 93.43856 254.2746 C 95.43435 253.28623 98.45604 250.37284 100.21227 247.7994 C 103.6188 242.65434 106.86157 240.26685 107.95032 241.94304 C 108.93131 243.51516 113.3743 243.11976 114.7235 241.50696 C 115.34421 240.64853 116.34792 237.45252 116.82389 234.37167 C 117.78508 228.73956 120.36276 224.66847 124.45472 222.3721 C 126.34274 221.27965 147.45598 216.88503 152.53447 216.47853 C 154.01731 216.45265 158.35993 216.37685 162.1748 216.4162 C 168.32172 216.52082 169.49235 216.81823 172.5098 219.73215 C 175.4195 222.542 175.96942 223.69786 176.04892 228.2523 C 176.18388 235.98428 173.82358 240.36942 164.76406 249.42733 C 155.91083 258.1638 154.4816 261.26128 159.24789 261.17808 C 160.83665 261.15035 162.65019 261.86034 163.40825 262.80066 C 164.49516 264.37093 165.76801 264.45466 173.1656 263.372 C 186.79752 261.3329 187.11157 261.11552 194.24293 244.78073 C 195.1629 242.85758 197.64391 239.31793 199.8275 236.94892 C 201.90518 234.58177 203.66326 232.11423 203.65032 231.3728 C 203.63737 230.6314 201.47835 228.33818 198.8975 226.1583 C 194.2765 222.42476 190.68509 216.97806 190.62778 213.69462 C 190.61114 212.74136 192.0792 211.86814 194.61196 211.29418 C 198.9398 210.37104 204.71163 207.19775 217.90009 197.96182 L 221.45876 195.46286 L 223.43368 199.34853 C 226.5066 205.43997 229.62257 207.92838 236.54418 209.92655 C 240.26978 210.92102 243.15728 212.45986 243.3839 213.3035 C 243.8427 215.30854 236.59303 224.8646 231.8896 228.549 C 229.90305 230.06697 226.1196 231.8282 223.375 232.40586 C 219.15124 233.22124 217.58097 234.30814 212.4927 240.2242 C 209.27396 243.98862 204.28236 249.37323 201.4688 252.0711 C 196.57389 256.92426 195.87684 259.47922 199.58395 259.41452 C 200.5372 259.39788 201.82116 260.1171 202.47145 260.95336 C 203.44874 262.31365 205.56894 262.3826 216.35773 261.34667 L 229.05118 260.17156 L 233.93501 254.68288 C 238.40257 249.62526 239.1366 249.18865 243.58513 249.111 C 249.09284 249.01486 250.2376 247.82943 253.04244 238.56285 C 254.64468 233.2374 255.26724 232.48488 262.8101 227.58548 C 267.2087 224.64806 271.81547 221.4951 273.17576 220.51782 C 276.73258 217.91294 275.8113 213.69103 271.09915 210.8067 C 265.10122 207.0972 264.66646 206.46908 264.59805 202.55014 C 264.46494 194.92408 269.6388 187.8411 274.22467 189.5622 C 275.07756 189.86515 276.7144 192.59127 277.82533 195.53847 C 280.15682 201.64286 284.029 204.96566 288.58346 204.88616 C 290.17222 204.85843 293.04124 205.3381 294.85293 205.94218 C 299.0096 207.35292 302.59784 206.54864 305.72175 203.42157 C 307.80682 201.47808 308.9682 201.2459 313.1101 201.8093 C 323.7277 203.10727 325.8627 204.02355 328.80752 208.84584 C 334.5894 218.38634 331.3886 229.24908 319.00074 241.86143 C 314.83614 246.06616 310.1475 250.5979 308.475 251.89848 C 304.6097 255.0385 305.19104 257.99494 309.8588 258.33726 C 311.769 258.51582 313.6903 259.32988 314.02286 260.17167 C 315.01864 262.59113 330.4752 261.89754 338.37093 259.00503 C 345.11082 256.66244 346.04374 255.4807 347.6053 247.82507 C 348.57944 242.93438 350.856 239.8221 353.50394 239.77588 C 357.63472 239.70377 360.5505 236.79224 360.4784 232.66146 C 360.43032 229.9076 359.44194 227.9118 355.98972 224.36978 C 350.26887 218.32455 348.7958 212.84088 351.11173 205.91372 C 353.73062 198.13368 352.30933 195.6157 343.3531 192.38164 C 336.95553 190.05646 335.6679 189.1254 332.83638 184.72493 C 330.5474 181.05664 324.31652 164.00155 324.2666 161.14178 C 324.26476 161.03586 327.0186 160.9878 330.4098 161.03455 C 335.07203 161.05912 337.39297 160.48886 340.22316 158.74426 C 342.1075 157.43997 346.19945 155.1436 349.247 153.71306 C 355.3366 150.53423 356.9943 148.3863 359.91063 139.43561 C 361.6225 134.32015 361.80104 132.40994 360.90193 129.45904 C 360.2313 127.4577 359.21334 123.76723 358.5353 121.34222 C 357.85543 118.8113 355.78384 115.45706 353.8422 113.47791 C 348.7772 108.58668 335.12045 97.06464 334.37903 97.07758 C 334.06128 97.08313 333.7842 99.41886 333.83597 102.38455 C 333.8859 105.24432 333.50474 107.68782 332.97515 107.69706 C 331.4923 107.72294 326.2955 101.35072 325.07124 97.9817 C 323.2952 93.35091 321.5279 95.28886 321.63882 101.6439 C 321.87046 108.84444 325.38553 115.98767 331.73265 121.49221 L 336.2533 125.54534 L 332.4532 126.35332 C 326.75214 127.51233 319.7851 135.05042 319.4557 140.4596 L 319.2082 144.49002 L 317.04364 141.87906 C 312.9319 136.97119 305.29342 130.32374 298.86258 126.09205 C 295.21886 123.71881 292.00066 121.44409 291.67367 120.92005 C 291.02152 119.97788 281.52277 116.01165 266.7004 110.54909 C 251.5566 104.88024 228.80892 100.61551 201.85782 98.33125 C 192.62636 97.53884 189.44883 97.5943 173.25456 98.51268 Z M 94.55725 190.89715 L 94.55725 190.89715 C 94.78018 191.52896 93.62987 192.39663 92.04666 192.74212 C 88.56248 193.43863 88.02734 193.13013 88.94177 190.88922 C 89.64992 188.96976 93.88846 189.00173 94.55725 190.89715 Z" fill="black"/>
        </g>
        <g id="Graphic_22">
          <path d="M 219.53255 103.32023 C 239.92232 106.03686 270.36076 113.87559 276.26017 118.0106 C 276.90307 118.42318 279.35766 119.43983 281.7008 120.14058 C 284.04576 120.94724 288.0017 122.99719 290.57513 124.75341 C 303.12277 133.43417 308.38483 137.47436 308.83253 138.84389 C 309.2784 140.1075 309.06655 140.1112 307.24377 138.87162 C 296.52076 131.53636 294.5939 130.40455 284.24227 126.13535 C 276.453 122.98687 247.50478 115.54593 235.49913 113.6365 C 231.675 113.06755 226.57248 112.09712 224.12714 111.61005 C 215.62046 109.85144 193.45968 108.86092 182.45536 109.6887 C 171.13514 110.62794 163.31388 111.718 152.86503 114.01939 C 149.6986 114.71035 145.68853 115.62795 143.89348 115.97713 C 142.20435 116.32446 140.30893 116.99325 139.68082 117.42801 C 139.15862 117.86092 135.58146 119.30071 131.78877 120.53236 C 121.67801 123.99328 117.7905 125.86228 115.60875 128.33721 C 112.49224 131.88795 114.51206 132.2765 119.96616 129.10875 C 143.992 115.55161 189.11892 109.04263 221.20952 114.41567 C 242.3555 117.96671 271.71628 124.76475 274.39934 126.73096 C 275.04224 127.14353 277.0676 127.84983 278.98152 128.24022 C 283.4467 129.11583 295.82926 134.40908 296.8084 135.87528 C 297.78754 137.34149 309.89672 145.1823 311.16773 145.16011 C 311.6973 145.15087 312.31803 144.29244 312.6173 143.22772 C 313.40362 139.71765 320.38332 157.18347 323.8012 170.89728 C 326.2011 180.9206 329.16994 187.11982 333.47505 190.96481 C 337.1354 194.29131 343.65553 197.5679 346.40938 197.51983 C 349.0573 197.4736 349.4028 199.05682 348.16083 206.81283 C 346.73846 216.37313 348.2023 221.32722 354.3542 227.78872 L 358.88593 232.47735 L 356.37904 234.53416 C 355.0206 235.61737 353.13073 236.6039 352.07155 236.6224 C 349.3177 236.67046 346.5245 240.5334 344.82742 246.4962 C 343.53184 251.1806 342.70114 252.14866 338.3992 254.55464 C 332.9414 257.51055 321.74374 259.4012 321.7086 257.38877 C 321.69752 256.75327 322.72157 254.72235 323.963 253.00548 C 326.03143 250.10874 326.7673 249.77804 332.275 249.6819 C 335.66437 249.62274 338.62266 249.1473 338.93117 248.61217 C 340.16705 246.57756 336.33184 245.3731 328.598 245.40215 L 320.44053 245.4386 L 323.4622 242.5252 C 328.15085 237.99347 333.9066 227.82778 334.76926 222.6212 C 335.82897 216.56356 334.32447 209.2793 331.2867 205.20027 C 328.36035 201.43716 323.2412 199.51347 311.13147 197.7118 C 294.02885 195.1497 284.92418 189.48138 270.95948 172.45533 C 254.83205 152.92424 252.14344 150.64027 245.14365 150.2327 C 240.79548 149.99075 240.95317 152.9546 245.20466 153.72798 C 249.98943 154.70396 252.88063 156.45464 257.30644 161.14512 C 261.84002 165.93968 268.34667 174.51398 268.367 175.67907 C 268.3744 176.10274 265.4198 176.79001 261.826 177.27654 C 245.01656 179.3711 223.5684 188.85715 206.83976 201.65122 C 203.49293 204.14648 194.97093 207.57967 191.68749 207.63699 C 189.9928 207.66657 189.76988 207.03476 190.22736 202.89474 C 190.76303 197.1641 189.67798 195.69975 182.62641 192.3265 C 178.56642 190.38431 177.27323 189.1355 176.70112 186.70863 C 176.00645 183.33037 173.1282 182.3211 173.1818 185.39272 C 173.4713 189.83755 176.18394 193.49844 181.31604 196.16355 L 186.66183 198.93088 L 186.45316 205.18556 C 186.18479 214.09002 189.51391 222.7198 195.21813 227.81176 L 199.631 231.76082 L 195.48304 236.9188 C 193.20093 239.71334 190.32213 244.74322 189.21435 248.047 C 186.28695 256.36218 183.67414 258.42083 175.74513 259.40683 C 171.83358 259.8989 169.1838 259.8392 169.1727 259.2037 C 169.13572 257.08535 175.09722 252.63735 179.00692 252.03936 C 183.65434 251.2166 184.38837 250.77998 183.30146 249.2097 C 182.97262 248.57975 179.89177 248.10378 176.71425 248.15924 L 170.67695 248.26462 L 173.37904 245.25086 C 177.01774 241.2672 179.05844 236.7817 179.8041 230.94145 C 180.74125 223.9324 177.56427 217.94873 170.71345 213.93628 C 151.87046 202.71666 146.81284 198.2491 143.06004 189.62673 C 141.07588 185.21148 138.74385 185.14623 139.7729 189.4722 C 141.04338 195.48917 147.85854 203.52834 157.18983 210.0403 C 159.0126 211.27987 160.19989 212.53054 159.88583 212.74793 C 159.1592 213.6082 135.25382 209.7875 133.85656 208.64643 C 133.31958 208.232 130.44686 207.5405 127.47378 207.1686 C 124.60661 206.79484 119.07857 205.7259 115.24705 204.73327 C 100.02506 200.65503 91.955 199.63045 85.62398 201.1183 C 81.61391 202.0359 78.98816 203.35313 77.0127 205.5066 C 73.686205 209.16696 72.84071 209.28767 70.35839 206.68225 C 68.95373 205.11753 68.83857 204.58979 69.88111 203.61804 C 71.44768 202.3193 81.45253 198.86022 92.31396 195.91594 C 98.95718 194.1048 99.68935 193.56226 99.96274 191.0147 C 100.23612 188.46713 99.69729 187.9468 94.90142 186.3353 C 89.99964 184.72567 89.4608 184.20533 88.86836 180.61338 C 87.93597 175.75597 83.74603 172.43871 77.58988 171.80452 C 73.97944 171.3378 73.34763 171.56072 73.377215 173.2554 C 73.39755 174.42049 74.37669 175.8867 75.44696 176.50371 C 78.33816 178.2544 79.49717 183.95544 77.4158 186.11077 C 75.958835 187.6195 75.63923 187.51913 73.3669 184.8041 C 70.552035 181.3569 63.58104 170.4598 63.99917 170.13465 C 64.20915 170.02504 66.41123 168.7152 69.03329 167.18614 C 71.65534 165.65707 78.01647 159.82475 83.11029 154.22646 C 95.6952 140.76307 99.4657 138.26041 107.29805 137.80585 C 113.0139 137.49418 113.44126 137.69862 114.11744 140.01771 C 115.02949 143.71003 117.79628 144.40338 117.09607 140.70737 C 116.28624 136.80136 117.86391 136.13813 131.51617 135.26413 C 139.03076 134.81511 144.63144 133.9757 147.15313 132.76624 C 153.25012 130.01107 154.01003 131.0573 149.54432 136.22084 C 143.6235 142.99902 138.78827 145.20241 130.4134 144.9248 C 124.79608 144.81095 123.31693 145.04867 122.38956 146.54815 C 120.63518 149.22752 123.32749 151.72332 125.08371 149.14987 C 126.22292 147.64669 127.17433 147.52413 131.32175 148.40529 C 135.3614 149.18237 136.94832 149.04872 140.83583 147.17972 C 150.40037 142.77478 157.9567 132.57766 155.11596 127.64761 C 153.80058 125.12778 152.52957 125.14996 148.44316 127.76408 C 146.66105 128.85469 142.87206 130.29817 139.91746 130.98544 C 132.21507 132.81508 103.42401 134.37713 103.39998 133.0002 C 103.34636 129.9286 108.94442 116.79907 111.54244 113.89308 C 115.80186 109.05099 116.97434 109.45432 115.27728 115.41713 C 114.07837 119.5701 114.09871 120.73519 115.17822 121.88179 C 116.3618 122.92063 117.40249 121.84297 121.01161 116.16464 C 123.48708 112.30724 126.28399 108.65613 127.228 108.1099 C 132.36989 105.26545 144.09714 103.36556 162.19424 102.20208 C 186.43084 100.71953 202.22364 101.07956 219.53255 103.32023 Z" fill="#FFFFFF"/>
        </g>
        <g id="Graphic_21">
          <path d="M 349.72436 114.29143 C 359.08523 122.49807 360.9236 136.76919 353.55504 145.58569 C 350.6522 149.23865 350.6522 149.23865 350.606 146.59071 C 350.5801 145.10786 351.17494 142.76659 351.9964 141.26895 C 356.2059 133.5671 351.82685 125.4854 342.03252 122.79572 C 338.83836 121.89793 334.8843 119.9539 333.26964 118.49879 C 330.46772 115.793 325.47165 108.78158 325.44946 107.51057 C 325.4439 107.19282 328.00997 108.52538 331.11855 110.59011 L 336.69097 114.20108 L 336.92367 109.32333 L 337.15453 104.33967 L 341.66408 107.7573 C 344.13346 109.62129 347.7864 112.52412 349.72436 114.29143 Z" fill="#FFFFFF"/>
        </g>
        <g id="Graphic_20">
          <path d="M 347.44302 129.27017 C 349.92164 131.66374 351.6755 135.02352 350.73517 135.78158 C 350.3189 136.21265 349.78376 135.90414 349.559 135.16642 C 349.2283 134.43054 347.81624 132.44214 346.3038 130.77335 C 343.49265 127.53797 344.42557 126.35624 347.44302 129.27017 Z" fill="#FFFFFF"/>
        </g>
        <g id="Graphic_19">
          <path d="M 341.7586 131.38243 C 346.14005 133.5309 349.027 141.10889 347.30407 145.58885 C 345.6815 149.7492 338.69225 156.01629 334.57626 156.93573 C 329.09074 158.30288 324.29672 156.79731 322.00775 153.12903 C 319.06663 148.51858 319.26737 147.87937 323.00776 149.72118 C 330.38262 153.40664 341.43925 149.5054 342.59193 142.7045 C 343.84684 135.68992 335.9128 130.31902 331.11826 134.8526 C 328.72098 137.11939 328.6016 142.41896 331.0839 145.02437 C 332.7041 146.79724 332.60003 146.905 329.52842 146.95862 C 324.0207 147.05476 320.94225 140.64556 324.35803 136.0301 C 328.49674 130.34252 335.7736 128.41436 341.7586 131.38243 Z" fill="#FFFFFF"/>
        </g>
        <g id="Graphic_18">
          <path d="M 338.5116 139.59724 C 338.74008 140.5468 337.91677 141.93851 336.76093 142.48844 C 334.97697 143.47312 334.44553 143.37645 333.46085 141.5925 C 332.805 140.4385 332.5673 138.95935 332.87395 138.3183 C 333.90354 136.60513 338.0528 137.5922 338.5116 139.59724 Z" fill="#FFFFFF"/>
        </g>
        <g id="Graphic_17">
          <path d="M 64.36051 160.48692 C 66.333585 164.26667 66.45614 165.21808 65.30029 165.768 C 63.720775 166.32532 60.45266 161.19083 60.3935 157.80147 C 60.33619 154.51803 61.945285 155.65539 64.36051 160.48692 Z" fill="#FFFFFF"/>
        </g>
        <g id="Graphic_16">
          <path d="M 58.56595 168.42834 C 61.93813 173.45507 67.485975 181.72826 70.85816 186.75498 C 74.33811 191.88578 77.061845 196.18217 76.85186 196.29179 C 76.64372 196.50732 75.38011 196.95317 74.22241 197.39718 C 72.22107 198.06781 71.14156 196.9212 65.917014 188.96022 C 59.05564 178.27312 56.209345 173.02532 54.1993 167.12722 C 53.4172 164.80997 52.42327 162.49643 51.88259 161.87017 C 51.34376 161.34983 50.9053 160.50988 50.897905 160.08621 C 50.85723 157.75603 53.0181 160.15515 58.56595 168.42834 Z" fill="#FFFFFF"/>
        </g>
        <g id="Graphic_15">
          <path d="M 49.640614 173.03402 C 53.02997 172.97486 53.46104 173.39114 56.535805 179.5885 C 58.40111 183.26418 59.8372 186.6295 59.842744 186.94726 C 59.86678 188.32418 48.76632 183.64426 46.289544 181.3566 C 44.9945 180.00185 43.465436 177.3798 43.112557 175.37292 C 42.42159 172.20648 42.52196 171.88688 44.119965 172.38874 C 45.186535 172.79392 47.62818 173.06915 49.640614 173.03402 Z" fill="#FFFFFF"/>
        </g>
        <g id="Graphic_14">
          <path d="M 86.14963 182.67388 C 87.27536 186.46842 86.68978 189.33928 83.99508 192.7767 C 82.23516 195.13832 80.754165 195.27012 79.13028 193.28542 C 78.15668 192.13697 78.35003 191.0741 79.99479 188.18475 C 81.6414 185.40131 81.92957 183.70109 81.33343 179.8973 L 80.50881 175.14396 L 82.87412 177.11572 C 84.0577 178.15456 85.58492 180.6707 86.14963 182.67388 Z" fill="#FFFFFF"/>
        </g>
        <g id="Graphic_13">
          <path d="M 274.94814 182.45093 C 276.5905 185.4948 288.31115 195.35544 290.3236 195.32032 C 290.9591 195.30922 293.41183 196.21996 295.76235 197.34438 C 298.11287 198.4688 300.5656 199.37953 301.30703 199.36659 C 303.63722 199.32591 302.8398 202.20048 300.4148 202.8785 C 297.35797 203.77946 291.37668 201.02322 290.69495 198.38638 C 289.9073 195.75138 287.78896 195.78836 287.83703 198.5422 C 287.91468 202.99074 284.36764 200.08607 280.31188 192.31658 C 276.36574 184.75708 275.29177 183.92823 268.93673 184.03916 C 264.17044 184.12235 254.26412 187.1559 245.11956 191.34162 C 242.91008 192.22778 242.6779 191.06639 244.54375 188.70293 C 248.68616 183.22718 256.16008 180.44798 268.54687 179.91392 C 272.78172 179.73405 273.5287 180.03886 274.94814 182.45093 Z" fill="#FFFFFF"/>
        </g>
        <g id="Graphic_12">
          <path d="M 240.30335 188.56504 C 238.35193 192.09545 239.14697 195.1541 242.00674 195.1042 C 243.06592 195.0857 247.80632 193.51966 252.54302 191.7418 C 257.3838 189.85615 262.33788 188.39233 263.7148 188.3683 L 266.1509 188.32577 L 263.69763 193.45418 C 262.36877 196.23207 261.0621 200.28097 260.77948 202.29894 C 260.30535 205.4857 260.7475 206.5375 263.7705 209.76916 C 265.81807 211.74647 268.3989 213.92636 269.5751 214.54153 C 272.4626 216.08038 271.02043 218.43644 265.0386 221.71935 C 256.75062 226.41985 250.5028 232.674 249.7331 237.13732 C 248.58043 243.93822 247.8538 244.7985 242.02834 244.90018 C 237.36797 244.98153 236.6321 245.31222 235.29954 247.87828 C 233.35736 251.93827 229.7057 255.1805 225.38898 256.73914 C 221.49222 258.07856 210.48235 258.5886 210.46201 257.4235 C 210.45462 256.99982 211.90603 255.17334 213.67335 253.2354 C 216.4832 250.3257 217.42907 249.8854 221.2495 250.24252 C 226.02317 250.583 229.0726 249.25837 227.87422 247.3722 C 227.43946 246.74408 225.73554 246.24407 224.14677 246.2718 C 219.69824 246.34945 214.48795 245.27495 214.46946 244.21578 C 214.43064 241.9915 221.10212 235.72998 223.4323 235.6893 C 231.58795 235.54695 246.90268 220.65857 246.76772 212.9266 C 246.7067 209.43132 245.52498 208.4984 238.176 206.29578 C 231.67806 204.2902 225.33464 198.9975 225.27363 195.50222 C 225.2422 193.70162 226.9147 192.40103 232.90392 189.5418 C 242.25293 184.92872 242.35884 184.92687 240.30335 188.56504 Z" fill="#FFFFFF"/>
        </g>
        <g id="Graphic_11">
          <path d="M 132.11697 212.17314 C 138.1783 213.44468 142.75679 214.7421 142.44458 215.0654 C 142.0283 215.49647 140.12179 215.52975 138.20973 215.24528 C 133.53642 214.5852 123.73787 217.72283 119.77216 221.18244 C 116.74678 223.884 113.56687 229.87268 113.62048 232.9443 C 113.63343 233.6857 113.13712 235.60147 112.63526 237.19947 C 111.62231 239.8659 111.41047 239.8696 109.68991 238.41633 C 106.78392 235.8183 103.52821 237.4644 99.49726 243.25603 C 93.91823 251.4056 86.14135 255.03768 81.10777 251.94705 C 79.823815 251.2278 80.33861 250.37123 83.6762 247.34638 C 87.0138 244.32153 88.48555 243.66014 91.14088 244.0376 C 94.32765 244.51172 99.80208 242.50907 98.51073 241.36616 C 98.29335 241.0521 95.74393 240.6728 92.98638 240.50904 C 83.0172 239.9414 81.70552 237.6334 89.70163 234.4213 C 95.27828 232.20496 102.9849 224.548 105.7393 218.4608 C 108.38962 212.48135 109.64214 211.4 114.82285 210.7798 C 117.14933 210.5273 119.58174 210.27294 120.10948 210.15778 C 120.74313 210.04077 126.0575 211.0075 132.11697 212.17314 Z" fill="#FFFFFF"/>
        </g>
        <g id="Graphic_10">
          <path d="M 80.98759 245.06242 C 78.4918 247.75472 75.75273 248.65013 75.7213 246.84954 C 75.69727 245.4726 79.98812 242.43112 81.89463 242.39784 C 82.95381 242.37935 82.75491 243.12447 80.98759 245.06242 Z" fill="#FFFFFF"/>
        </g>
        <g id="Graphic_9">
          <path d="M 209.74147 252.56238 C 204.94691 257.09596 203.43449 255.42717 207.90574 250.58138 C 209.98527 248.32014 210.93113 247.87983 211.58327 248.822 C 212.12765 249.6601 211.51618 251.0481 209.74147 252.56238 Z" fill="#FFFFFF"/>
        </g>
        <g id="Graphic_8">
          <path d="M 168.56361 254.6585 C 167.52477 255.84207 165.74082 256.82676 164.57573 256.8471 C 162.66921 256.88037 162.76958 256.56077 165.47537 253.75885 C 168.90963 250.20256 171.7842 251 168.56361 254.6585 Z" fill="#FFFFFF"/>
        </g>
        <g id="Graphic_7">
          <path d="M 320.29155 249.04348 C 322.0158 250.70858 319.00336 254.15155 315.614 254.2107 C 312.5424 254.26433 312.52946 253.5229 315.4397 250.29362 C 318.03955 247.49354 318.45952 247.2743 320.29155 249.04348 Z" fill="#FFFFFF"/>
        </g>
        <g id="Graphic_6">
          <path d="M 92.79869 156.91799 C 88.01153 161.87523 88.84355 167.05225 94.35125 166.95611 C 97.42286 166.9025 103.92688 163.18668 103.8973 161.492 C 103.88806 160.96241 104.83207 160.41618 105.99716 160.39585 C 107.37409 160.37181 108.10257 159.61745 108.07854 158.24052 C 108.0545 156.8636 107.30014 156.13511 106.02913 156.1573 C 104.96995 156.17579 101.99872 155.9098 99.34524 155.63827 C 95.62888 155.17339 94.2575 155.51518 92.79869 156.91799 Z" fill="black"/>
        </g>
        <g id="Graphic_5">
          <path d="M 98.70735 161.58259 C 95.8901 164.0686 94.41095 164.30633 94.37767 162.39981 C 94.3407 160.28146 95.38693 159.52155 98.45854 159.46794 L 101.21424 159.52579 L 98.70735 161.58259 Z" fill="#FFFFFF"/>
        </g>
        <g id="Graphic_4">
          <path d="M 137.17757 162.18248 C 137.62527 163.55202 138.19738 165.97887 138.64878 167.56024 C 139.22644 170.30485 139.12422 170.51853 136.46334 169.82333 L 133.59063 169.13183 L 134.3574 176.64087 L 135.22824 184.04215 L 132.46514 183.56063 C 130.12571 183.07172 129.70759 183.39687 129.74641 185.62113 C 129.7723 187.10398 128.85416 189.13305 127.70756 190.21256 C 125.10215 192.69488 125.12433 193.9659 127.77227 193.91967 C 129.04328 193.89749 130.40172 192.81428 131.1154 191.21257 C 131.93132 189.39719 132.87163 188.63913 134.15004 189.0406 C 135.53436 189.44024 136.15877 188.79365 136.74806 186.13462 C 137.13845 184.2207 137.29482 181.03949 137.15562 179.13482 C 136.89202 176.17283 137.09646 175.74546 139.53256 175.70294 C 141.86275 175.66227 142.27902 175.2312 142.2291 172.37143 C 142.13297 166.86373 139.78483 159.80608 138.09015 159.83566 C 136.92506 159.856 136.6184 160.49705 137.17757 162.18248 Z" fill="black"/>
        </g>
      </g>
    </g>
  </g>
</svg>
