<?xml version="1.0" encoding="UTF-8" standalone="no"?>
<!DOCTYPE svg PUBLIC "-//W3C//DTD SVG 1.1//EN" "http://www.w3.org/Graphics/SVG/1.1/DTD/svg11.dtd">
<svg xmlns="http://www.w3.org/2000/svg" xmlns:dc="http://purl.org/dc/elements/1.1/" version="1.1" xmlns:xl="http://www.w3.org/1999/xlink" viewBox="66.75976 63 91.48047 351" width="91.48047" height="351">
  <defs>
    <clipPath id="artboard_clip_path">
      <path d="M 66.75976 63 L 158.24024 63 L 158.24024 414 L 66.75976 414 Z"/>
    </clipPath>
  </defs>
  <g id="Bow_(3)" fill-opacity="1" stroke="none" stroke-dasharray="none" stroke-opacity="1" fill="none">
    <title>Bow (3)</title>
    <g id="Bow_(3)_Layer_2" clip-path="url(#artboard_clip_path)">
      <title>Layer 2</title>
      <g id="Group_3">
        <g id="Graphic_16">
          <path d="M 150.96788 63.44951 C 150.96788 63.88752 148.07702 66.51558 144.57294 69.23124 C 136.16314 75.71379 130.1186 82.45914 120.48239 96.12506 C 117.59152 100.24235 114.61305 104.18444 113.91224 104.88526 C 110.32055 108.65214 96.65464 132.56749 91.92413 143.43014 C 90.17209 147.54743 88.33245 151.57712 87.80684 152.36554 C 87.36883 153.24156 87.01842 154.6432 87.01842 155.51921 C 87.01842 156.39523 86.66801 157.44646 86.23 157.88447 C 84.30276 159.89931 74.57894 192.66246 72.9145 202.5615 C 70.02363 220.0819 68.359195 234.44862 68.27159 241.9824 C 68.18399 248.90295 70.89965 266.16054 72.8269 271.32906 C 73.0897 272.02988 73.177305 272.9935 73.0897 273.4315 C 72.9145 274.21993 74.053325 278.33722 78.433425 292.79155 C 79.48465 296.12043 80.44827 299.2741 80.53587 299.7997 C 81.499495 304.0046 85.8796 315.48047 89.03327 322.22582 C 91.22332 326.78113 93.93898 332.65046 95.0778 335.27852 C 96.30423 337.9066 97.70587 341.06025 98.23148 342.2867 C 98.75709 343.5131 100.42153 346.40398 101.91076 348.85683 C 103.4 351.2221 105.23964 354.37576 105.94045 355.865 C 109.35693 362.69795 115.40147 371.98376 118.81795 375.66305 C 119.69397 376.62667 121.0956 378.6415 121.97162 380.13075 C 125.6509 386.1753 149.74145 410.96665 152.89513 412.0179 C 153.77115 412.2807 154.47196 412.8939 154.47196 413.4195 C 154.47196 413.8575 154.90997 414.1203 155.52319 413.9451 C 157.53803 413.2443 156.92482 409.3898 154.47196 406.67415 L 152.0191 404.0461 L 151.4935 383.45962 C 150.61747 350.17086 149.39105 219.99429 148.95304 127.04856 L 148.77783 72.64772 L 150.96788 70.89568 C 153.33314 69.05604 153.85875 65.37675 152.0191 63.53711 C 151.3183 62.836294 150.96788 62.836294 150.96788 63.44951 Z M 139.84243 390.02977 L 139.84243 390.02977 C 127.57815 375.40024 107.42969 340.88505 101.99836 325.2043 C 101.03474 322.31343 98.75709 316.0061 97.09265 311.18797 C 91.92413 296.90885 87.19363 280.52727 85.70439 272.20508 C 85.44159 270.54064 84.74077 267.38697 84.30276 265.28452 C 83.68954 262.30605 83.68954 261.25483 84.56556 260.72922 C 85.35398 260.2036 85.35398 259.9408 84.21516 259.5028 C 82.55072 258.80197 82.28791 255.8235 82.375515 234.97423 C 82.375515 216.92822 83.25153 209.65725 87.36883 191.17323 C 92.97536 166.55707 98.93229 149.47467 109.79494 127.31137 C 115.40147 115.7479 122.40963 103.92163 123.98647 103.30842 C 124.33687 103.13322 124.68728 102.6076 124.68728 102.08199 C 124.68728 101.29357 130.55662 93.6722 135.02432 88.67888 C 136.33835 87.18965 138.5284 84.56159 139.84243 82.72195 C 141.15646 80.96991 142.6457 79.48067 143.0837 79.48067 C 143.52171 79.48067 143.87212 84.29878 143.87212 90.16812 C 144.04732 130.72785 144.92334 225.338 145.27375 241.9824 C 145.44896 253.02024 145.88697 292.87915 146.14977 330.4604 C 146.58778 395.6363 146.50018 398.70237 145.01095 396.59992 C 144.22253 395.3735 141.85727 392.48263 139.84243 390.02977 Z" fill="black"/>
        </g>
        <g id="Graphic_15">
          <path d="M 149.12824 69.58165 C 148.42742 70.45767 144.39773 74.83777 140.19284 79.48067 C 135.90034 84.03598 131.34503 89.3797 130.1186 91.30695 C 128.80458 93.23419 127.57815 94.98623 127.22774 95.24904 C 126.96493 95.51184 125.03769 98.2275 122.93524 101.38118 C 120.8328 104.53485 118.81795 107.16291 118.37994 107.33811 C 118.02953 107.51332 117.67912 108.03893 117.67912 108.56454 C 117.67912 109.09015 116.5403 111.105 115.22627 113.11984 C 113.82463 115.13469 111.63458 119.16438 110.23295 122.05525 C 108.91892 124.85851 106.46607 129.93943 104.80163 133.3559 C 98.75709 145.44498 88.94567 174.09084 86.1424 188.10716 C 85.79199 189.7716 84.82837 194.1517 84.12755 197.74338 C 83.33914 201.33506 82.46312 206.50358 82.11271 209.13164 C 81.7623 211.7597 81.41189 214.30016 81.32429 214.82577 C 81.23669 215.26378 81.061485 216.2274 81.061485 216.84061 C 80.88628 218.06704 76.06817 217.54143 74.22853 216.0522 C 72.03848 214.30016 78.95904 180.22298 84.03995 168.3967 C 84.65317 166.90747 86.75562 161.21334 88.77046 155.69442 C 94.02658 141.32769 106.72887 117.76275 115.40147 106.19929 C 117.94193 102.78281 123.37325 95.51184 127.49055 89.99291 C 134.2359 80.96991 136.86396 78.16664 146.14977 70.37007 C 149.12824 67.82961 150.88028 67.3916 149.12824 69.58165 Z" fill="#FFFFFF"/>
        </g>
        <g id="Graphic_14">
          <path d="M 146.93819 131.16586 C 147.201 162.26457 147.639 201.07225 147.90181 217.45383 C 148.16462 233.8354 148.51503 274.39513 148.77783 307.6839 C 149.04064 340.88505 149.47865 375.92585 149.65385 385.38687 C 149.91666 394.9355 149.74145 402.73206 149.30344 402.73206 C 148.95304 402.73206 148.33982 378.8167 148.07702 349.47005 C 147.72661 320.21098 147.201 277.5488 146.93819 254.68468 C 145.97457 177.2445 145.18615 75.538585 145.53656 74.83777 C 145.71176 74.39976 145.97457 74.224555 146.14977 74.39976 C 146.32498 74.57496 146.67538 100.06715 146.93819 131.16586 Z" fill="#FFFFFF"/>
        </g>
        <g id="Graphic_13">
          <path d="M 76.94419 219.11827 L 79.57225 220.1695 L 76.59378 220.7827 C 73.35251 221.48352 72.12608 221.0455 72.12608 219.11827 C 72.12608 217.62903 73.44011 217.62903 76.94419 219.11827 Z" fill="#FFFFFF"/>
        </g>
        <g id="Graphic_12">
          <path d="M 80.44827 224.19918 C 80.36067 225.86362 79.57225 226.38923 76.243375 227.00245 C 71.60047 227.96607 71.16246 227.70326 71.77567 225.1628 C 72.12608 223.93638 73.35251 223.14796 75.89297 222.53474 C 80.36067 221.57112 80.623475 221.65872 80.44827 224.19918 Z" fill="#FFFFFF"/>
        </g>
        <g id="Graphic_11">
          <path d="M 79.83506 230.76933 C 79.57225 232.95938 79.04664 233.3098 75.45496 234.0106 C 73.0897 234.44862 71.07486 234.62382 70.89965 234.44862 C 70.72445 234.2734 70.72445 232.95938 70.987255 231.64535 C 71.33766 229.98092 71.863275 229.3677 72.65169 229.6305 C 73.35251 229.8933 74.75414 229.7181 75.805365 229.2801 C 79.309445 227.87847 80.185465 228.22888 79.83506 230.76933 Z" fill="#FFFFFF"/>
        </g>
        <g id="Graphic_10">
          <path d="M 80.01026 237.6899 C 80.01026 239.35433 79.309445 240.14275 76.94419 241.19397 C 72.03848 243.20882 70.37404 242.8584 70.37404 239.79234 C 70.37404 237.5147 70.72445 237.16428 73.70292 236.72627 C 75.45496 236.37586 77.3822 236.02545 77.82021 235.85025 C 79.65985 235.23704 80.01026 235.49984 80.01026 237.6899 Z" fill="#FFFFFF"/>
        </g>
        <g id="Graphic_9">
          <path d="M 80.01026 244.69805 C 80.01026 246.1873 76.50618 247.67652 72.9145 247.67652 C 70.987255 247.67652 70.37404 247.2385 70.37404 245.92448 C 70.37404 244.87326 70.987255 244.17244 71.95088 244.08484 C 75.27975 243.90963 77.3822 243.55923 77.90781 243.0336 C 78.78383 242.2452 80.01026 243.20882 80.01026 244.69805 Z" fill="#FFFFFF"/>
        </g>
        <g id="Graphic_8">
          <path d="M 79.83506 250.9178 C 80.09786 252.93264 79.13424 253.37065 73.87812 253.98386 C 72.03848 254.24667 71.68807 253.89626 71.68807 252.05662 C 71.68807 250.39218 72.21368 249.77897 74.31613 249.34096 C 78.25822 248.46494 79.57225 248.81535 79.83506 250.9178 Z" fill="#FFFFFF"/>
        </g>
        <g id="Graphic_7">
          <path d="M 80.88628 257.22514 C 80.88628 260.2912 80.623475 260.554 76.06817 260.90442 C 72.8269 261.25483 72.56409 261.07963 72.301285 258.88958 C 72.03848 256.87473 72.38889 256.43672 74.491335 255.9111 C 75.805365 255.6483 77.3822 255.2979 77.82021 255.1227 C 80.185465 254.33427 80.88628 254.85988 80.88628 257.22514 Z" fill="#FFFFFF"/>
        </g>
        <g id="Graphic_6">
          <path d="M 80.88628 262.56886 C 80.88628 263.00687 80.01026 263.44488 78.95904 263.44488 C 77.2946 263.44488 77.207 263.26968 78.25822 262.56886 C 79.92266 261.43003 80.88628 261.43003 80.88628 262.56886 Z" fill="#FFFFFF"/>
        </g>
        <g id="Graphic_5">
          <path d="M 80.88628 265.19692 C 81.937505 265.19692 82.55072 265.98534 82.813525 267.56217 C 84.21516 275.35875 87.28123 289.37507 87.80684 290.1635 C 88.24485 290.6015 89.03327 292.96676 89.64648 295.4196 C 90.2597 297.78487 91.04811 300.15012 91.31092 300.67573 C 91.57373 301.11374 91.83653 301.72696 91.83653 301.98976 C 92.01174 303.041 93.41337 307.07068 94.46459 309.43593 C 95.0778 310.83756 96.04143 313.64083 96.65464 315.56807 C 98.84469 322.83904 103.92561 335.80413 104.97683 337.03056 C 105.59005 337.73138 106.37846 339.3082 106.72887 340.53464 C 107.07928 341.76107 108.56851 344.91474 110.05775 347.5428 C 115.83948 358.31785 117.94193 362.08474 118.90555 363.31116 C 119.51876 364.012 120.48239 365.6764 121.1832 366.99045 C 121.79642 368.30448 123.02284 370.2317 123.98647 371.10774 C 124.86249 372.07136 125.5633 373.035 125.5633 373.2978 C 125.5633 373.6482 127.40294 376.53907 131.08223 381.9704 C 132.39626 383.89763 133.00947 384.77365 142.6457 396.77513 C 146.76299 402.03125 150.44227 406.23614 150.79268 406.23614 C 151.14309 406.23614 151.9315 407.11216 152.54472 408.0758 C 153.68355 409.82783 153.68355 409.82783 151.9315 408.689 C 149.65385 407.02456 139.49202 397.30074 134.0607 391.519 C 126.78973 383.72243 113.12382 364.6252 106.81647 353.67494 C 94.46459 331.77444 82.72592 303.3914 77.207 281.8413 C 76.243375 278.24962 75.19215 273.86952 74.75414 272.20508 C 73.177305 266.16054 74.22853 263.7953 78.08302 264.8465 C 78.78383 265.02172 80.01026 265.19692 80.88628 265.19692 Z" fill="#FFFFFF"/>
        </g>
        <g id="Graphic_4">
          <path d="M 83.07633 231.03214 C 82.813525 231.47015 82.98873 231.90816 83.42674 231.90816 C 83.95235 231.90816 84.39036 231.47015 84.39036 231.03214 C 84.39036 230.50653 84.21516 230.15612 84.03995 230.15612 C 83.77715 230.15612 83.33914 230.50653 83.07633 231.03214 Z" fill="black"/>
        </g>
      </g>
    </g>
  </g>
</svg>
