<?xml version="1.0" encoding="UTF-8" standalone="no"?>
<!DOCTYPE svg PUBLIC "-//W3C//DTD SVG 1.1//EN" "http://www.w3.org/Graphics/SVG/1.1/DTD/svg11.dtd">
<svg xmlns="http://www.w3.org/2000/svg" xmlns:dc="http://purl.org/dc/elements/1.1/" version="1.1" xmlns:xl="http://www.w3.org/1999/xlink" viewBox="42.359175 59.88802 90 357.22396" width="90" height="357.22396">
  <defs>
    <clipPath id="artboard_clip_path">
      <path d="M 42.359175 59.88802 L 132.35917 59.88802 L 132.35917 417.112 L 42.359175 417.112 Z"/>
    </clipPath>
  </defs>
  <g id="Bow_(1)" fill-opacity="1" stroke="none" stroke-dasharray="none" stroke-opacity="1" fill="none">
    <title>Bow (1)</title>
    <g id="Bow_(1)_Layer_2" clip-path="url(#artboard_clip_path)">
      <title>Layer 2</title>
      <g id="Group_87">
        <g id="Graphic_93">
          <path d="M 113.85107 65.624735 C 111.31538 68.830854 111.13719 69.91428 112.63884 73.696245 C 113.28603 75.247895 113.87294 77.94986 114.02627 79.65776 L 114.28191 82.88874 L 110.60225 85.91349 L 106.92259 88.93824 L 106.85648 92.51662 C 106.73933 95.9102 106.59921 96.26711 104.30227 98.39298 C 103.0216 99.66146 100.76616 102.15376 99.33903 103.90024 C 97.97244 105.6499 95.96552 108.0338 94.93654 109.13335 C 93.96811 110.23608 92.5505 111.80093 91.77956 112.61046 C 91.06917 113.42316 89.83636 114.93699 89.04956 116.04923 C 87.40589 118.45217 85.44682 121.08142 81.27382 126.56939 C 79.57595 128.84807 75.85874 134.90631 73.04306 139.97974 C 70.22421 145.11372 67.10582 150.17129 66.08002 151.2103 C 65.11476 152.25248 64.2579 153.54317 64.22617 154.1486 C 64.197615 154.69349 63.3886 156.22953 62.53174 157.52023 C 61.614334 158.80775 60.843655 160.77077 60.78654 161.86054 C 60.72943 162.95032 59.678504 165.62716 58.41079 167.80696 C 57.20362 169.98994 55.81825 173.25634 55.29926 175.05042 C 54.84081 176.84767 53.821874 180.07257 53.041676 182.21722 C 50.97498 188.05841 49.529585 193.62863 47.998775 201.98699 C 46.30246 211.1866 44.613434 238.7815 45.07814 250.7656 C 45.575093 264.4512 46.84667 279.57375 47.624467 280.9501 C 48.013365 281.6383 48.153746 282.43488 49.49358 289.30453 C 49.927417 291.4521 50.479164 293.66654 50.813866 294.23047 C 51.524774 295.72474 53.39998 302.8046 53.34604 303.8338 C 53.320655 304.31816 54.034736 305.7519 54.997336 307.07724 C 55.902565 308.33886 57.5729 311.21903 58.612164 313.3983 C 59.71197 315.58078 61.289776 317.9097 62.10882 318.49902 C 62.92787 319.08833 64.05623 320.7259 64.591856 322.08958 C 66.259275 326.18378 68.10172 329.2551 70.27861 331.73683 C 71.42284 333.0717 73.06753 335.2827 73.9027 336.7228 C 74.80158 338.1055 76.48461 340.7435 77.73088 342.44797 C 78.97399 344.21297 80.59647 346.8478 81.3711 348.2847 C 82.14572 349.7216 84.5809 353.06682 86.87253 355.676 C 89.16416 358.2852 91.37304 361.315 91.80344 362.3696 C 92.23385 363.4242 93.81482 365.6926 95.23956 367.46713 C 96.728 369.1843 98.48109 371.64383 99.14732 372.8322 C 99.8741 374.0238 101.39453 376.289 102.53241 377.74494 C 104.40024 380.3319 104.55649 380.82577 104.36294 384.5189 C 104.17282 389.30496 104.83905 390.49336 109.2592 393.03196 C 110.90999 393.9684 112.35693 395.31913 112.5642 395.9978 C 112.97239 397.4762 112.1988 400.65325 111.08072 402.2945 C 108.78404 405.57387 109.59459 410.95877 112.69232 413.24594 C 113.97984 414.16334 114.46419 414.18872 117.46887 413.6177 C 120.04657 413.08497 121.29551 412.4219 123.15913 410.45547 C 124.44297 409.12644 125.70434 407.0677 126.0068 405.9301 C 126.7135 402.87096 124.31854 394.12473 121.35408 389.29476 L 118.89325 385.2804 L 119.74728 371.3013 C 120.87076 351.0226 121.21772 335.13495 120.42063 332.96835 C 120.1113 331.9201 119.83903 325.53134 119.91072 318.3714 C 119.97607 311.33256 119.8151 303.9783 119.61392 302.02506 C 119.37758 299.5843 119.45373 298.13127 119.90292 297.66914 C 120.35527 297.14647 120.39018 296.4805 119.89606 295.48325 C 119.39876 294.54655 119.28325 290.95865 119.55269 284.659 C 119.76185 279.50968 119.86235 272.95835 119.82985 270.1033 C 119.7368 267.2451 119.6911 262.32525 119.735 259.17067 C 119.77891 256.0161 119.66923 250.00013 119.5249 245.80362 C 119.22965 236.37821 119.37834 217.3233 119.87949 192.7016 C 120.26401 173.78047 120.23897 161.51588 119.61536 151.40547 C 119.13239 143.24511 118.86174 129.87489 119.0841 126.79037 C 119.40826 122.92197 119.52883 120.62134 120.06136 108.14314 C 120.54022 97.84766 120.71842 96.76423 122.32666 92.72029 C 123.24381 90.27927 124.74392 87.1403 125.54341 85.78589 C 126.8143 83.54554 127.58815 81.52198 129.49226 75.30801 C 130.15454 73.09647 129.36062 70.86933 127.12636 68.32387 C 125.98213 66.98901 124.55106 65.33557 124.04424 64.580496 C 123.19004 63.50367 122.35513 63.21708 119.50961 63.06795 C 115.99812 62.88392 115.99812 62.88392 113.85107 65.624735 Z M 103.06114 119.7583 L 103.06114 119.7583 C 103.84768 117.49257 108.96348 110.23273 110.85592 108.87489 C 111.3593 108.53701 112.34702 108.22452 113.07354 108.2626 C 114.22385 108.32288 114.43747 108.88046 114.77955 113.93726 C 115.07669 117.53467 114.83949 125.53587 114.17266 135.94291 C 113.37549 147.67873 113.28107 152.95549 113.73394 154.73979 C 114.0274 156.09077 114.2098 159.56076 114.05433 162.52736 C 113.90203 165.43343 113.78274 173.5015 113.78429 180.42244 C 113.78523 198.93882 113.33485 222.59183 112.83061 233.37165 C 112.49428 239.7892 112.57807 243.98253 113.11712 246.43915 C 113.5573 248.46563 113.69846 252.72267 113.50491 256.4158 C 113.38142 259.93046 113.36659 264.84713 113.59975 267.34843 C 114.25484 275.69993 114.48904 282.8152 114.43664 290.76536 C 114.39299 295.07343 114.44213 301.08622 114.64674 304.1324 C 115.13632 313.32516 115.28879 325.475 115.07775 336.4523 C 115.0185 342.2166 115.08984 347.8056 115.33862 348.8507 C 115.93187 351.43156 114.46392 370.1745 113.47989 372.73342 C 112.2156 376.00618 112.15506 376.003 107.63474 367.2668 C 103.77114 359.90063 102.73188 357.72134 102.77312 356.9343 C 102.79216 356.57103 101.80075 354.6371 100.57034 352.6299 C 99.33675 350.68326 97.9501 348.18222 97.46232 347.0639 C 96.97455 345.94556 95.79516 344.1232 94.94413 342.9858 C 94.03255 341.84528 92.92005 339.905 92.49917 338.66874 C 92.07511 337.49304 90.96578 335.4922 89.99367 334.3485 C 89.08526 333.1474 87.69543 330.7069 86.94302 328.8462 C 86.1906 326.9855 85.18333 325.35426 84.76905 325.15043 C 84.29422 324.9434 83.80645 323.8251 83.62139 322.7226 C 83.43633 321.62015 82.43514 318.71435 81.47228 316.2355 C 80.44888 313.7535 79.66131 311.4053 79.68035 311.04203 C 79.70256 310.61823 78.34763 307.51175 76.70268 304.14725 C 73.68693 297.97898 71.8408 292.66123 70.06739 284.7975 C 69.52516 282.40143 68.68656 279.8684 68.243465 279.05596 C 67.7972 278.30406 67.26131 275.7869 67.076 273.53094 C 66.83014 271.2718 66.52665 267.79548 66.2681 265.77852 C 65.38036 257.2327 65.12104 251.75528 65.4024 241.753 C 65.52537 235.93135 65.42521 229.73376 65.153965 227.95898 C 64.84439 225.75722 64.95227 223.69876 65.50299 221.29925 C 65.96778 219.3809 66.45744 214.67125 66.59679 210.85387 C 66.87232 203.27965 67.87196 199.26452 70.04148 197.2534 C 71.32214 195.9849 71.32531 195.92437 70.24163 194.59268 C 69.38425 193.5764 69.20236 192.4134 69.41521 189.5105 C 69.720065 184.85186 71.68685 173.96656 72.33353 173.21123 C 72.65528 172.86384 73.56291 170.60446 74.35897 168.1571 C 75.15504 165.70974 76.29506 162.49118 76.91927 161.00616 C 78.511655 157.26493 85.94901 143.93442 87.69789 141.84054 C 88.47835 140.84938 89.78757 139.03601 90.58389 137.74214 C 91.38021 136.44827 92.70529 134.33218 93.56215 133.04148 C 94.41902 131.75078 95.67087 129.8737 96.26652 128.93356 C 96.86535 127.93289 98.48363 126.0143 99.83118 124.6279 C 101.23928 123.24467 102.68862 121.07438 103.06114 119.7583 Z" fill="black"/>
        </g>
        <g id="Graphic_92">
          <path d="M 123.4528 70.07404 C 125.33066 74.78636 124.74212 79.06587 121.0159 87.61272 C 119.56999 90.87596 118.81809 91.32222 117.75661 89.56674 C 117.02984 88.37517 116.96904 87.21851 117.41745 83.29591 C 117.93275 79.25539 117.86878 78.15927 116.99528 76.29222 C 116.1728 74.60996 116.09931 73.69547 116.62464 71.78031 C 117.37286 69.0876 118.70772 67.943376 121.01152 68.0034 C 122.28292 68.070035 122.80243 68.582935 123.4528 70.07404 Z" fill="#FFFFFF"/>
        </g>
        <g id="Graphic_91">
          <path d="M 114.0381 89.85753 C 115.81632 90.67923 117.71665 96.12124 117.36368 99.38104 C 117.15376 101.0699 116.84178 102.38915 116.66015 102.37964 C 116.47852 102.37012 115.47759 100.6178 114.4957 98.50223 C 113.51698 96.32611 112.23237 94.19467 111.64915 93.73914 C 110.3648 92.76119 110.26884 91.11701 111.41572 90.08435 C 112.30774 89.28117 112.67417 89.23967 114.0381 89.85753 Z" fill="#FFFFFF"/>
        </g>
        <g id="Graphic_90">
          <path d="M 111.36701 100.28096 L 111.36701 100.28096 C 111.39874 99.67553 111.07673 98.86943 110.61143 98.48079 C 109.97401 97.901 109.21577 98.46836 106.74062 101.67765 C 102.832 106.75451 102.51025 107.1019 96.64547 113.59398 C 91.55163 119.27653 85.70932 126.4983 85.67442 127.16427 C 85.66172 127.40644 84.41305 129.22299 82.85214 131.2053 C 81.29123 133.18761 79.526475 135.5842 78.98819 136.58805 C 74.270815 144.35445 69.37524 153.20427 67.72549 156.88178 C 65.38781 162.10168 61.247305 170.4447 60.677035 170.90048 C 60.482714 171.13314 60.269356 171.72905 60.23763 172.33448 C 60.20907 172.87936 59.400316 175.5689 58.40676 178.30945 C 55.92604 185.1003 53.980694 192.10133 52.01022 200.7402 C 50.57777 207.22172 50.383963 209.76136 49.956906 223.7021 C 49.35268 243.34024 49.34685 245.7683 50.00116 250.65933 C 50.310735 252.8611 50.61448 257.4909 50.733165 261.01827 C 50.85185 264.54563 51.06941 268.50313 51.181236 269.8446 C 51.29306 271.18606 51.53918 274.59868 51.75331 277.46323 C 51.96744 280.3278 52.484284 283.2082 52.87001 283.95694 C 53.25891 284.64512 53.98594 286.99018 54.480317 289.1409 C 54.974694 291.29164 56.081104 294.5065 57.02149 296.25565 C 57.96188 298.0048 59.15739 300.67795 59.68667 302.1627 C 61.43393 307.0503 62.41265 309.22643 63.88841 311.18575 C 64.68524 312.19886 65.848764 314.32396 66.37487 315.86926 C 67.439776 318.7177 70.872975 325.02926 71.96618 326.1793 C 72.31357 326.50107 73.31768 328.19284 74.13698 329.93564 C 76.22503 334.1126 79.54323 339.14323 83.42218 343.8997 C 85.13376 345.9928 87.85262 349.71715 89.36989 352.0429 C 90.94769 354.37184 93.48492 358.08666 95.00536 360.35188 C 96.58951 362.5597 98.72515 365.82853 99.78028 367.7051 C 105.74754 377.79202 107.81629 381.17874 108.17955 381.1978 C 108.42172 381.21047 108.98564 380.87577 109.37428 380.41046 C 109.95407 379.77305 109.5427 378.35517 107.53107 373.8787 C 103.884 365.85605 103.22094 364.6071 102.02886 363.0269 C 101.39779 362.32604 99.27167 358.8756 97.26663 355.4315 C 95.26159 351.98743 92.79442 348.09415 91.835 346.70827 C 90.8724 345.38293 90.09143 344.0671 90.10729 343.7644 C 90.11998 343.5222 89.19229 341.5309 88.03194 339.34527 C 83.16106 330.34786 82.39595 328.72932 82.44037 327.88172 C 82.46575 327.39738 81.85055 326.3938 81.09839 325.68657 C 80.28887 324.91563 79.393155 323.47237 79.02647 322.3604 C 78.65661 321.30895 77.34953 318.44782 76.07761 316.0742 C 74.86941 313.64323 73.01719 309.60006 72.057505 307.0607 C 71.09782 304.5213 69.95651 301.9724 69.50072 301.40215 C 69.04176 300.89242 68.53469 298.98386 68.260276 297.2696 C 68.0464 295.55855 67.38943 293.03504 66.84746 291.79245 C 66.24812 290.48615 65.67734 288.63495 65.48593 287.65358 C 65.29135 286.73274 64.726914 284.76046 64.13392 283.33307 C 62.90325 280.1724 62.44695 277.29515 61.21422 264.90657 C 61.14707 263.871 60.70346 260.75157 60.3077 257.8775 C 58.98639 248.3376 59.97411 205.16438 61.50329 203.7875 C 61.9493 203.3859 62.34086 201.70657 62.43287 199.95082 C 62.52171 198.25562 63.008715 195.91348 63.55017 194.84909 C 64.03426 193.72098 64.83641 189.99905 65.25944 186.56079 C 65.68881 183.00144 66.40821 179.70014 66.86691 179.05638 C 67.38933 178.35524 68.45612 175.37569 69.27757 172.44398 C 70.10219 169.45174 71.3982 165.57356 72.15936 163.79217 C 72.85998 162.00761 74.73578 157.49201 76.26445 153.80815 C 77.79311 150.1243 79.43017 146.68895 79.94625 146.1089 C 80.51969 145.59257 81.1439 144.10756 81.44953 142.90939 C 81.76151 141.59013 82.68526 140.18152 83.69837 139.38469 C 84.64776 138.64522 86.25652 136.90826 87.24399 135.44228 C 90.00573 131.39808 94.4558 125.25682 95.75233 123.68562 C 98.28167 120.60059 101.42888 116.15162 101.45744 115.60673 C 101.4733 115.30402 102.77935 113.55119 104.33708 111.62942 C 107.64054 107.67432 111.28769 101.79453 111.36701 100.28096 Z" fill="#FFFFFF"/>
        </g>
        <g id="Graphic_89">
          <path d="M 115.02459 383.80276 C 114.71896 385.00092 113.73784 386.3458 112.22135 387.48053 C 109.82235 389.2368 108.653 389.53976 108.10151 388.4788 C 107.48948 387.41467 108.62316 384.3172 109.73197 384.01105 C 110.28637 383.858 111.82507 382.29947 113.07375 380.48293 L 115.37044 377.20357 L 115.4315 379.51372 C 115.48595 380.79147 115.32387 382.72567 115.02459 383.80276 Z" fill="#FFFFFF"/>
        </g>
        <g id="Graphic_88">
          <path d="M 118.10697 388.6996 C 118.08158 389.18396 118.61403 390.6082 119.27392 391.91766 C 123.95048 401.1477 123.87167 404.96827 118.9941 408.8409 C 116.90417 410.4919 116.48037 410.4697 114.81029 408.74303 C 113.25813 407.08324 113.21294 404.4704 114.77993 401.2135 C 116.0762 398.4888 115.8396 394.89455 114.2618 392.5656 C 112.84659 390.60947 112.86563 390.2462 114.45852 388.81196 C 115.92399 387.49245 118.17677 387.36767 118.10697 388.6996 Z" fill="#FFFFFF"/>
        </g>
      </g>
    </g>
  </g>
</svg>
