<?xml version="1.0" encoding="UTF-8" standalone="no"?>
<!DOCTYPE svg PUBLIC "-//W3C//DTD SVG 1.1//EN" "http://www.w3.org/Graphics/SVG/1.1/DTD/svg11.dtd">
<svg xmlns="http://www.w3.org/2000/svg" xmlns:xl="http://www.w3.org/1999/xlink" version="1.1" xmlns:dc="http://purl.org/dc/elements/1.1/" viewBox="54 85.5 310.5 189" width="310.5" height="189">
  <defs>
    <clipPath id="artboard_clip_path">
      <path d="M 54 85.5 L 364.5 85.5 L 364.5 274.5 L 54 274.5 Z"/>
    </clipPath>
  </defs>
  <g id="Bull_Passant_(5)" stroke-opacity="1" fill="none" fill-opacity="1" stroke-dasharray="none" stroke="none">
    <title>Bull Passant (5)</title>
    <g id="Bull_Passant_(5)_Art" clip-path="url(#artboard_clip_path)">
      <title>Art</title>
      <g id="Group_48">
        <g id="Graphic_47">
          <path d="M 114.42762 91.06556 L 115.72473 91.71411 L 115.57213 94.38462 C 115.49583 96.40658 115.22878 97.36033 114.58023 98.27593 C 114.12242 98.92449 113.74092 99.57304 113.74092 99.68749 C 113.74092 100.14529 116.22068 99.87824 122.82065 98.77189 C 132.54894 97.16958 147.46564 95.07132 153.11185 94.53722 C 155.85866 94.30832 160.97078 94.19387 164.9384 94.30832 C 172.79732 94.49907 176.76493 95.14762 185.34871 97.66553 C 191.49088 99.42044 193.3221 100.10714 197.48045 102.01465 C 200.57061 103.4262 214.1902 107.27936 229.52656 111.13253 C 244.4051 114.83309 251.65364 115.93944 261.15302 115.93944 C 269.5079 115.93944 283.08934 114.45159 294.19103 112.31518 C 304.9112 110.29322 310.0615 109.68282 315.3262 109.94987 C 320.32387 110.17877 326.23714 111.39958 330.50995 113.04003 C 331.95966 113.57413 334.24866 114.45159 335.6602 114.98569 C 343.9388 118.114 347.296 120.74636 352.71333 128.26193 C 356.52834 133.6411 357.0243 134.633 357.52024 138.06652 C 357.7873 139.63067 358.43584 142.64453 358.96995 144.74279 C 359.80925 147.8711 360 149.35896 360 153.13582 C 359.96185 158.32424 359.50405 160.4225 356.4139 168.96812 C 354.62083 173.85134 354.5064 174.42359 354.08673 180.03166 C 353.32373 190.37034 352.82778 192.6212 349.8139 199.22117 C 347.25786 204.7911 347.25786 205.36334 350.0428 210.7425 L 352.25552 214.93903 L 351.79772 218.75404 C 351.37807 222.26385 351.41622 222.8361 352.17922 225.7355 C 352.86593 228.55862 352.94223 229.55052 352.71333 234.89154 C 352.52257 239.8129 352.59888 241.94932 353.28558 247.02328 C 353.70523 250.41864 354.08673 253.8903 354.08673 254.8059 C 354.08673 256.06486 354.3538 256.71342 355.2694 257.74347 C 356.1087 258.73537 356.37574 259.38392 356.29944 260.22323 C 356.185 261.48218 355.7272 261.86368 353.9723 262.2452 C 353.17113 262.3978 352.71333 262.8556 352.17922 264.1527 C 351.79772 265.0683 351.07287 266.0602 350.5769 266.3654 C 349.54686 266.9758 342.4891 267.92955 338.63593 267.9677 C 336.15617 267.9677 335.9654 267.8914 335.85097 267.09025 C 335.6602 265.8313 336.42322 263.80934 337.91108 261.59663 C 339.93303 258.62092 340.1238 257.20937 339.62783 250.4568 C 339.09373 243.24642 338.02553 238.1343 336.49952 235.34934 C 335.8891 234.20484 334.55386 231.57248 333.56196 229.51237 C 331.88336 226.0407 331.65445 225.77366 330.3192 225.39216 C 328.2591 224.85806 326.4279 223.065 325.0545 220.2419 C 323.71923 217.53323 323.94813 217.57138 321.20132 219.97484 C 320.40017 220.66154 319.10306 221.65345 318.26376 222.1494 C 317.2337 222.8361 316.6996 223.48465 316.50885 224.32396 C 316.35625 224.9725 315.66955 226.15516 314.9447 226.95632 C 314.21985 227.75747 312.4268 230.88578 310.9771 233.8615 C 308.49733 238.9736 307.12392 241.45336 303.11816 248.1678 C 302.2407 249.6175 301.0962 252.09725 300.60025 253.6614 C 300.06615 255.22556 299.265 257.62902 298.8072 259.00242 C 298.3494 260.37583 297.8153 262.20703 297.6627 263.0845 C 297.2812 265.18274 296.32744 266.2128 294.45808 266.518 C 293.27543 266.70875 292.77947 267.01395 292.20722 268.00585 C 291.52052 269.1885 291.36792 269.2648 288.35406 269.4937 C 284.23385 269.83706 278.74023 269.22666 277.78647 268.3492 C 277.36682 267.9677 277.02347 267.39545 277.02347 267.0521 C 277.02347 266.40355 279.54138 262.16888 280.60958 260.94808 C 280.9911 260.52843 281.56334 259.04057 281.94484 257.59087 C 282.6697 254.84406 283.16564 253.69956 284.3483 252.1354 C 289.9182 244.73428 290.64307 243.17012 292.32167 234.96784 C 293.08468 231.34358 293.12283 230.23723 292.89392 223.1413 C 292.55057 211.16216 291.67312 206.88935 289.11706 204.52404 L 288.20146 203.64659 L 285.30205 205.1726 C 279.27433 208.26275 274.4674 212.30667 269.54605 218.44884 C 267.9819 220.35634 266.41774 222.03495 266.03623 222.1494 C 265.08248 222.4546 262.60272 221.80605 261.76342 221.04305 C 261.26747 220.58524 260.96227 219.6315 260.80967 217.87659 C 260.4663 214.29047 259.97036 212.87892 258.97846 212.65002 C 258.52066 212.57372 257.22355 212.30667 256.1172 212.11592 C 253.9045 211.65811 252.95074 211.12401 250.20393 208.87316 L 248.41087 207.3853 L 238.3774 206.88935 C 228.30576 206.43155 226.5127 206.2408 218.84453 204.75294 C 212.8931 203.64659 206.78909 204.1807 206.29313 205.89745 C 206.17868 206.27895 205.98793 208.18645 205.87348 210.17026 C 205.72088 212.15407 205.18678 215.66388 204.65268 217.99104 C 203.92783 220.96675 203.69892 223.02685 203.77522 225.0488 C 204.00413 230.96208 203.92783 231.45803 202.70702 233.9378 C 200.60876 238.1343 200.68506 245.99323 202.82147 250.8383 C 203.47002 252.288 203.85153 254.0429 204.00413 256.1793 C 204.23303 258.96427 204.15673 259.61283 203.39372 261.36773 C 202.21107 264.1527 201.63882 264.72494 199.92206 264.72494 C 198.5868 264.72494 198.47236 264.80124 197.9764 266.3654 C 197.55675 267.7388 197.25155 268.044 195.95445 268.5018 C 195.11515 268.76886 192.02499 269.1122 189.04928 269.1885 C 183.136 269.4174 182.02965 269.15036 182.02965 267.5862 C 182.02965 266.32725 183.4412 262.6267 184.1279 262.05443 C 184.4331 261.78738 184.70016 261.29143 184.70016 260.90993 C 184.70016 260.52843 185.31056 259.68913 186.03542 259.04057 C 186.79842 258.39202 187.56142 257.40012 187.82847 256.82787 C 188.43887 255.2637 188.70592 242.86492 188.17182 240.23256 C 187.82847 238.63026 187.25622 237.5239 185.88281 235.80715 C 184.39496 233.97594 184.01346 233.13664 183.78456 231.49618 C 183.4412 228.90197 181.34295 221.04305 180.6181 219.51704 C 180.3129 218.8685 179.2447 217.03728 178.29094 215.43498 L 176.49788 212.45927 L 174.20888 212.45927 C 172.07247 212.45927 171.76727 212.57372 168.0667 215.01533 C 163.83204 217.80029 163.7176 217.99104 163.7176 221.57715 C 163.7176 224.17136 164.7858 225.62106 167.64705 226.95632 C 168.94416 227.56672 170.85166 228.25342 171.91987 228.52047 C 172.94992 228.74937 174.36148 229.16902 175.01003 229.43607 C 175.65858 229.74128 176.99383 230.04648 177.94759 230.19908 C 180.0077 230.50428 181.0759 231.53433 181.41925 233.5563 C 181.61 234.51004 182.02965 235.19674 182.71635 235.6164 C 183.2886 235.9979 183.86086 236.4557 184.01346 236.6846 C 184.47126 237.25685 184.3568 247.17588 183.93716 248.7782 C 183.4412 250.49494 182.48745 251.1435 181.11405 250.6094 C 180.0077 250.18974 177.37534 248.5493 175.84933 247.32848 C 175.27708 246.87068 173.90367 246.29843 172.83547 246.06953 C 170.35571 245.53543 168.48636 244.65798 166.7696 243.28457 C 166.04475 242.71232 165.28175 242.21637 165.12915 242.21637 C 164.9384 242.21637 164.1754 241.68227 163.45054 241.07186 C 162.00083 239.77476 158.33842 237.8291 155.62976 236.9135 C 154.1419 236.41755 153.4552 235.769 151.28065 233.06034 C 149.8691 231.26728 148.19049 228.71122 147.54194 227.33782 C 146.39743 224.93436 146.35928 224.70546 146.39743 219.7078 C 146.39743 215.47313 146.62633 213.45117 147.65639 208.49165 L 148.87719 202.42578 L 144.48993 198.00037 C 138.19515 191.6293 138.34776 192.1634 138.34776 179.80276 L 138.3096 169.84557 L 137.0888 167.97622 C 136.44025 166.94616 135.868 166.18316 135.82985 166.29761 C 135.7917 166.41206 135.67725 168.39587 135.52465 170.76118 C 135.21944 175.797 134.7235 176.6363 131.55703 177.3993 C 130.45068 177.66635 129.07727 178.35305 128.27612 179.0779 C 127.51312 179.72646 126.63567 180.375 126.29231 180.5276 C 125.94896 180.64206 125.30041 181.48136 124.84261 182.43512 C 123.58366 185.02932 122.5536 185.79233 119.92124 186.02123 L 117.67039 186.21198 L 116.18253 184.45707 C 115.11433 183.19812 114.35132 182.62587 113.35942 182.47327 C 112.63457 182.32067 111.79527 182.05361 111.52821 181.82471 C 110.76521 181.21431 109.73516 178.96345 109.20106 176.7889 C 108.66696 174.5762 107.21725 171.94383 104.12709 167.51842 C 102.90629 165.76351 101.49473 163.5508 100.99878 162.5589 C 99.35832 159.39244 97.75602 157.56123 95.12366 155.84448 C 92.415 154.12772 90.889 152.22021 89.36299 148.6341 C 88.94334 147.6422 88.48554 146.84105 88.37109 146.84105 C 88.25664 146.84105 87.34103 147.2607 86.34913 147.75665 C 83.18267 149.35896 80.51216 149.66416 74.25554 149.13005 C 71.20353 148.863 68.60932 148.51965 68.53302 148.3289 C 68.30412 148.0237 69.10527 147.52775 75.40004 144.13239 C 79.44396 141.95783 84.13642 137.79947 84.59422 136.00641 C 84.70867 135.51046 84.44162 133.83185 83.98382 132.30585 C 82.22892 126.43073 82.22892 123.34057 84.09827 119.4111 C 84.78497 117.92325 84.82313 117.6562 84.32717 116.77875 C 81.809265 112.27703 70.135326 113.99379 60.979295 120.21226 C 59.75849 121.05156 58.65214 121.62381 58.53769 121.50936 C 58.232486 121.20416 59.83479 116.93135 61.39895 113.87934 C 63.993155 108.91982 70.78388 103.23545 78.98616 99.22969 C 82.41967 97.55108 82.83932 97.43663 85.70058 97.43663 C 89.47744 97.47478 91.76645 98.39038 95.35256 101.32794 L 97.83232 103.38805 L 98.29012 102.01465 C 98.82422 100.56494 101.64733 95.60542 102.63923 94.42277 C 102.98259 94.04127 104.24154 92.93492 105.5005 92.01931 C 107.6369 90.41701 107.82765 90.37886 110.46001 90.41701 C 112.17677 90.41701 113.62647 90.64591 114.42762 91.06556 Z" fill="black"/>
        </g>
        <g id="Graphic_46">
          <path d="M 107.06465 92.32451 C 104.27969 93.81237 102.21958 96.33028 99.62537 101.36609 C 98.48087 103.6551 98.44272 103.884 98.86237 105.44816 C 99.39647 107.31751 99.12942 110.75103 98.29012 112.69668 C 97.64157 114.29899 94.01731 118.60995 93.3306 118.60995 C 92.45315 118.60995 92.60575 118.30475 94.51326 116.2065 C 95.46701 115.13829 96.45891 113.84119 96.76412 113.30708 C 97.52712 111.78108 98.17567 108.04237 97.90862 106.78341 C 97.60342 105.48631 94.47511 101.86205 92.6439 100.71754 C 91.1179 99.80194 87.15028 98.77189 84.97573 98.69558 C 82.99192 98.65743 76.9642 101.48054 72.920285 104.30365 C 71.54688 105.25741 69.56307 106.63081 68.49487 107.35566 C 66.05326 108.99612 63.4209 112.23888 61.666 115.82499 C 60.941145 117.31285 60.33074 118.6481 60.33074 118.76255 C 60.33074 118.91515 61.93305 118.1903 63.840555 117.23655 C 69.52492 114.37529 72.15728 113.61228 76.8116 113.38338 C 80.47401 113.19263 81.04626 113.26893 82.64857 114.03194 C 83.64047 114.52789 84.74682 115.44349 85.16648 116.09204 C 85.92948 117.351 86.12023 118.99145 85.54798 118.99145 C 84.82313 118.99145 83.83122 122.57757 83.83122 125.05732 C 83.83122 127.99488 84.70867 131.46654 87.56993 139.85957 C 91.76645 152.14391 91.46125 151.68611 97.10747 155.92078 C 98.51902 156.98898 99.81613 158.40054 100.69358 159.88839 C 101.45658 161.14734 103.44039 164.2375 105.04269 166.71726 C 108.6288 172.21088 109.77331 174.46174 110.30741 176.8652 C 111.10856 180.5276 111.90972 181.17616 115.87733 181.17616 C 118.77674 181.17616 120.60795 180.33686 120.60795 179.0779 C 120.60795 177.51375 118.47154 175.83514 116.48773 175.83514 C 113.62647 175.83514 111.71897 173.43169 112.63457 171.02823 C 113.09237 169.80742 113.74092 170.18893 113.74092 171.67678 C 113.74092 172.85943 114.88543 174.30914 115.83918 174.30914 C 116.14438 174.30914 116.41143 173.96579 116.41143 173.54614 C 116.41143 173.05018 116.75478 172.70683 117.44148 172.55423 C 119.42529 172.13458 119.57789 172.05828 119.31084 171.14268 C 118.62414 168.66292 118.62414 168.58662 119.23454 168.58662 C 120.0357 168.58662 121.1039 170.76118 120.83685 171.86753 C 120.6461 172.59238 120.98945 173.12648 122.7062 174.8051 C 124.04146 176.1022 124.88076 177.2467 125.03336 178.04785 C 125.33856 179.612 125.60561 179.7646 126.67382 179.03975 C 128.04722 178.04785 128.31427 176.7889 128.61947 168.43402 C 128.81022 164.0086 129.11542 160.30804 129.30617 160.1173 C 130.03103 159.39244 130.14548 162.0248 129.84028 169.34962 C 129.68768 173.24094 129.57323 176.4837 129.64953 176.56 C 129.91658 176.9415 132.62524 176.06404 133.38824 175.30104 C 134.15124 174.53804 134.26569 173.92764 134.4946 169.50222 C 134.83794 163.5508 134.4946 161.52885 132.81599 159.43059 C 130.71773 156.79823 130.79403 155.38668 133.35009 149.9312 C 136.28765 143.67459 136.631 142.60638 136.631 139.43992 C 136.631 135.89196 135.6391 130.01684 134.6472 127.65153 C 133.50269 125.01917 130.41253 122.38681 126.55937 120.86081 C 123.27845 119.52555 121.7906 119.37295 113.74092 119.75446 C 110.30741 119.90706 108.7814 119.4874 108.7814 118.3429 C 108.7814 117.8851 108.97216 117.84695 109.62071 118.07585 C 110.11666 118.2666 113.51202 118.3429 117.17443 118.30475 C 124.76631 118.15215 125.94896 118.38105 129.99288 120.93711 C 134.60904 123.87467 136.21135 126.46888 137.20325 132.38215 C 138.4622 140.16477 137.88995 143.75089 134.18939 151.41906 C 133.23564 153.40287 132.43449 155.34853 132.43449 155.76818 C 132.43449 156.14968 133.12119 157.48493 133.92234 158.74389 C 134.83794 160.07914 135.5628 161.6433 135.7154 162.67335 C 135.82985 163.6271 136.44025 165.03866 137.0125 165.87796 C 139.33966 169.08257 139.3015 168.92997 139.26336 179.0016 C 139.2252 189.07324 139.41596 190.1033 141.43792 193.04085 C 143.95582 196.70326 154.94306 206.0119 159.59738 208.4535 C 161.92453 209.6743 162.95459 209.94136 167.64705 210.5899 C 172.91177 211.27661 175.54413 211.46736 175.54413 211.16216 C 175.54413 211.08586 174.74298 209.63616 173.75107 207.9957 C 171.38577 203.98994 168.2193 197.27552 167.03665 193.6894 C 165.5488 189.22584 164.8621 185.14378 164.4043 177.74265 C 163.9465 170.18893 164.21354 145.4295 164.7858 144.85724 C 165.0147 144.62834 165.20545 151.76241 165.35805 163.51265 C 165.58695 184.49522 165.7014 185.94493 168.10486 193.34605 C 169.5164 197.73332 172.98807 204.7911 175.84933 209.2165 C 179.96954 215.54943 181.6863 219.13554 183.2123 224.6673 C 183.86086 227.07077 184.54756 229.97018 184.7383 231.11468 C 184.92906 232.56438 185.38686 233.5563 186.22617 234.5482 C 186.87472 235.3112 187.86662 236.87535 188.43887 238.01985 C 189.46893 240.07996 189.46893 240.1944 189.43078 247.55739 C 189.39263 256.21746 189.08743 257.62902 186.98917 259.72728 C 186.14987 260.56658 185.46316 261.40588 185.46316 261.63478 C 185.46316 262.3978 187.02732 262.9319 187.98107 262.4741 C 188.43887 262.28333 190.11748 261.97813 191.64348 261.86368 C 194.0088 261.63478 194.65734 261.74923 195.95445 262.3978 C 197.63305 263.27524 199.69316 263.5423 198.892 262.74114 C 198.62496 262.4741 198.4342 261.63478 198.4342 260.83363 C 198.4342 259.65098 198.62496 259.30762 199.5787 258.81167 C 200.91397 258.12497 201.94402 258.08682 202.59257 258.69722 C 203.01222 259.11687 203.05037 258.62092 202.93592 255.9504 C 202.82147 253.3562 202.59257 252.4406 201.94402 251.56315 C 201.40992 250.8383 200.99027 249.3886 200.72321 247.59554 C 200.49431 246.06953 200.26541 244.65798 200.15096 244.50537 C 200.03651 244.35277 200.11281 242.21637 200.34171 239.77476 C 200.64691 235.8453 200.83767 235.0823 201.86772 233.21294 L 203.08852 231.11468 L 202.82147 226.80372 C 202.59257 223.065 202.66887 221.9205 203.39372 218.60144 C 204.65268 212.68817 204.27118 208.11015 202.21107 204.82924 C 201.02842 202.95989 199.84576 199.94603 199.3498 197.54257 C 198.8157 194.9102 198.8157 192.73565 199.38796 195.10096 C 200.15096 198.42002 201.67697 202.46393 202.78332 204.0281 C 203.50817 204.98184 204.19488 206.27895 204.34748 206.9275 C 204.61453 207.7668 204.80528 206.35525 205.22493 201.58648 C 205.94978 192.65935 205.98793 188.08134 205.37753 186.97498 C 204.65268 185.67788 205.11048 185.48713 205.91163 186.74608 C 206.75093 187.96688 206.86539 192.2397 206.29313 199.60267 L 205.94978 204.14254 L 207.81914 203.7992 C 210.87115 203.30324 218.92083 203.49399 222.65954 204.21884 C 229.45026 205.4778 230.40401 205.59224 238.49184 205.783 C 243.29876 205.9356 248.25827 206.27895 250.50913 206.66045 C 256.00275 207.57605 261.45822 207.42345 265.95993 206.20265 C 269.8894 205.1726 275.03966 203.15064 279.84658 200.78533 C 283.01304 199.22117 284.00494 198.30557 283.2801 197.58072 C 282.9749 197.27552 281.79224 197.65702 278.96913 199.10672 C 275.76452 200.67088 269.24084 202.92174 267.6767 202.92174 C 266.72294 202.92174 268.3634 202.15873 271.30095 201.24313 C 275.11596 200.02233 281.56334 197.00847 281.8304 196.28361 C 281.94484 196.01656 281.0674 194.18536 279.92288 192.27785 C 277.78647 188.80619 277.48127 188.04319 278.12982 188.04319 C 278.43503 188.04319 281.5252 192.65935 283.8905 196.62696 C 284.38645 197.46627 286.14135 199.52637 287.74366 201.20498 C 292.32167 206.0119 293.16098 208.26275 293.80953 217.41878 C 294.53438 227.91007 294.34363 231.61063 292.85577 237.5239 C 291.48237 243.01752 290.1471 246.03138 287.74366 249.27414 C 286.9425 250.3042 286.06505 251.6013 285.798 252.1354 C 285.53095 252.6695 284.9587 253.47065 284.53905 253.92846 C 284.1194 254.4244 283.39454 256.21746 282.93674 257.97237 L 282.09744 261.17698 L 283.7379 262.89374 C 284.99685 264.229 285.7217 264.6868 287.0188 264.9157 C 290.1471 265.4498 290.91012 265.3735 291.06272 264.5342 C 291.29162 263.3897 293.08468 261.67293 294.03843 261.67293 C 294.53438 261.67293 295.3737 262.13073 295.9078 262.703 L 296.86154 263.7712 L 296.86154 262.3215 C 296.86154 261.52033 297.09044 260.49028 297.39564 260.03248 C 297.70084 259.57468 298.08234 258.16312 298.31124 256.90417 C 298.5783 255.34 299.5702 252.8984 301.4014 249.27414 C 302.9274 246.37473 304.3771 243.70422 304.64416 243.36087 C 305.48347 242.40712 308.42103 236.95165 310.86263 231.91583 C 312.15974 229.28347 313.7239 226.53666 314.37245 225.8118 C 315.021 225.08696 315.6314 224.0569 315.74585 223.5228 C 315.8603 222.9887 316.66145 222.0731 317.57706 221.42455 C 319.9042 219.74594 323.94813 215.85463 323.94813 215.28238 C 323.94813 214.97718 325.93194 211.20031 328.3354 206.8512 C 331.34925 201.39573 334.32496 196.74141 337.75848 192.04895 C 343.9388 183.54147 345.007 181.93916 346.26595 178.849 C 347.3723 176.1785 349.31796 170.72303 349.92837 168.58662 C 350.348 166.98431 350.84397 157.10343 350.53877 156.26413 C 350.348 155.76818 349.92837 155.80633 347.5249 156.60748 C 344.05325 157.79013 332.6082 160.76584 329.28915 161.3381 C 320.32387 162.9404 292.51242 162.13925 286.75175 160.15544 C 286.1032 159.92654 283.8905 159.62134 281.79224 159.43059 C 278.01537 159.12539 277.93907 159.12539 275.84082 160.23174 C 274.6963 160.8803 272.90326 162.06295 271.8732 162.90225 C 269.279 165.03866 268.24894 165.49646 265.50213 165.80166 C 262.98422 166.03056 261.61082 166.56466 259.627 168.05252 C 258.97846 168.54847 257.91026 169.08257 257.2617 169.19702 C 255.9646 169.46407 255.62125 169.04442 255.1253 166.56466 C 254.93455 165.87796 254.62935 165.5346 254.1334 165.5346 C 253.48484 165.5346 253.3704 165.26756 253.3704 163.7797 C 253.3704 161.1092 254.70565 157.90458 256.23165 156.76008 C 256.9565 156.22598 257.68136 155.42483 257.91026 154.92887 C 258.36806 153.97512 259.74146 153.32657 261.34377 153.32657 C 261.95417 153.32657 263.02237 152.83062 263.82353 152.22021 C 264.81543 151.41906 265.84548 150.99941 267.3715 150.80866 C 271.83505 150.27456 283.3564 151.57166 290.10897 153.44102 C 293.08468 154.24217 293.84768 154.28032 306.58982 154.24217 C 320.93427 154.16587 326.199 153.74622 333.33306 152.02946 C 336.00357 151.34276 337.52957 150.73236 339.09373 149.66416 C 341.5735 147.9474 343.4047 145.3532 343.4047 143.56014 C 343.4047 141.72893 342.6417 138.44802 341.8787 136.88386 C 340.92494 135.0145 338.10183 132.00065 335.08797 129.59719 C 333.2949 128.18563 332.7608 127.53708 333.2186 127.46078 C 334.6683 127.15558 341.8024 133.7937 343.13764 136.61681 C 344.12955 138.75322 344.73995 143.59829 344.20585 145.27689 C 343.5573 147.4896 339.09373 151.57166 336.46137 152.37282 C 328.488 154.73812 318.2256 155.76818 304.6823 155.50113 C 294.07658 155.31038 291.06272 154.96702 282.17374 152.98322 C 278.12982 152.10576 271.14835 151.57166 268.09634 151.95316 C 266.49404 152.18206 265.57843 152.52542 264.66283 153.36472 C 263.82353 154.08957 262.94607 154.47107 262.22122 154.47107 C 260.54262 154.47107 259.20736 155.19592 258.7114 156.34043 C 258.4825 156.87453 257.7195 157.71383 257.0328 158.20978 C 255.9646 158.93464 255.54495 159.62134 254.93455 161.6433 C 254.4386 163.2456 254.286 164.3138 254.5149 164.5427 C 254.9727 165.0005 256.00275 163.74155 256.0409 162.74965 C 256.0409 161.52885 258.3299 159.77394 262.33567 157.86643 C 266.57034 155.88263 268.40154 155.31038 268.17264 156.03523 C 267.9819 156.56933 268.1345 156.49303 263.02237 158.89649 C 258.7877 160.84214 257.338 162.06295 256.53685 164.27566 C 255.85015 166.25946 255.92645 166.98431 256.76575 167.44212 C 257.37616 167.74732 257.91026 167.55657 259.7033 166.29761 C 261.30562 165.19126 262.25937 164.7716 263.28942 164.7716 C 267.02814 164.7716 268.17264 164.35196 270.69055 162.13925 C 274.27666 158.97279 276.64197 157.90458 280.03733 157.90458 C 281.5252 157.90458 284.272 158.24793 286.1032 158.62944 C 294.00028 160.38434 298.6546 160.7277 313.45684 160.7277 L 327.5724 160.76584 L 332.34116 159.69764 C 338.21628 158.36239 346.8382 155.53928 349.1272 154.20402 C 351.87402 152.60172 354.5064 149.89306 355.53643 147.60405 C 356.4139 145.7347 356.52834 145.00984 356.52834 141.30928 C 356.52834 137.41796 356.4139 136.88386 355.38383 134.82376 C 353.85783 131.6573 349.39426 125.36252 346.9908 122.95907 C 345.88445 121.85271 344.05325 120.32671 342.90874 119.60186 C 340.77234 118.22845 335.46947 115.93944 334.4394 115.93944 C 334.1342 115.93944 333.066 115.44349 332.0741 114.83309 C 330.96775 114.14639 328.60244 113.34523 326.0464 112.77298 C 315.0973 110.21692 311.70194 110.25507 296.09854 113.26893 C 292.85577 113.91749 289.3078 114.56604 288.27776 114.79494 C 285.30205 115.36719 283.1275 115.63424 280.64773 115.74869 C 279.38878 115.78684 276.37492 116.0539 273.97146 116.32094 C 271.568 116.62615 265.54028 116.85505 260.61892 116.85505 C 252.6074 116.85505 251.00508 116.7406 245.74037 115.82499 C 238.9115 114.64234 226.01675 111.51403 211.02375 107.39381 C 200.41801 104.4944 197.63305 103.5788 193.0169 101.48054 C 189.96488 100.06899 181.8389 97.66553 176.04008 96.40658 C 172.33952 95.60542 170.92796 95.52912 162.38234 95.52912 C 155.36271 95.52912 151.5477 95.71987 147.88529 96.21583 C 139.11076 97.39848 129.76398 98.81004 121.37095 100.14529 C 112.13862 101.63314 112.97792 101.21349 110.23111 105.79151 C 108.4762 108.76722 107.1028 110.21692 106.07275 110.21692 C 104.92824 110.21692 105.23344 109.60652 107.06465 108.08052 C 107.98025 107.27936 109.27736 105.67706 109.92591 104.53255 C 110.57446 103.3499 111.52821 101.8239 112.02417 101.13719 C 114.04612 98.31408 115.34323 92.28636 114.00797 91.79041 C 113.77907 91.67596 112.44382 91.56151 111.07041 91.56151 C 109.23921 91.52336 108.171 91.75226 107.06465 92.32451 Z" fill="#FFFFFF"/>
        </g>
        <g id="Graphic_45">
          <path d="M 84.40347 138.82952 C 82.80117 141.04223 80.05436 143.17863 76.3538 145.12429 C 71.08908 147.83295 71.08908 147.83295 75.28559 148.1 C 77.30755 148.21445 80.01621 148.1763 81.31331 147.9474 C 83.98382 147.52775 88.33294 145.5058 88.06589 144.81909 C 87.95144 144.55204 87.41733 142.75898 86.80693 140.85148 C 86.19653 138.90582 85.66243 137.30351 85.62428 137.30351 C 85.54798 137.30351 85.01388 137.99022 84.40347 138.82952 Z" fill="#FFFFFF"/>
        </g>
        <g id="Graphic_44">
          <path d="M 356.4902 147.98555 C 355.9561 149.13005 354.7353 151.03756 353.7434 152.18206 L 351.91217 154.28032 L 351.68327 160.61324 C 351.22547 172.47793 348.47866 179.6883 340.54343 190.1033 C 339.70413 191.20965 339.5897 191.74375 339.5897 194.3761 C 339.5897 200.40383 340.23823 205.783 341.2683 208.3772 C 342.3365 211.00956 342.4891 213.22227 341.91684 217.30433 C 341.30644 221.50085 337.52957 225.8118 334.47756 225.8118 C 333.94346 225.8118 333.4475 225.9644 333.2949 226.1933 C 332.9897 226.68926 333.94346 228.82567 336.38507 233.0985 C 338.10183 236.1505 338.63593 237.5239 339.4371 241.11 C 340.6579 246.64178 341.07754 256.1793 340.23823 259.26947 L 339.70413 261.29143 L 340.92494 261.29143 C 341.7261 261.29143 342.52724 261.63478 343.21394 262.28333 C 344.3966 263.35154 344.66365 263.3134 347.18156 261.48218 C 347.94456 260.90993 349.01276 260.52843 349.7376 260.52843 C 350.76767 260.52843 351.111 260.29953 351.60697 259.42207 C 351.91217 258.81167 352.52257 258.16312 352.98038 258.04867 C 353.51448 257.85792 353.66708 257.59087 353.51448 257.17122 C 353.36188 256.78972 353.09483 254.7296 352.90408 252.5169 C 352.71333 250.3042 352.40812 247.48108 352.17922 246.22213 C 351.98847 244.96318 351.79772 240.38516 351.79772 236.03605 C 351.79772 230.12278 351.64512 227.56672 351.22547 225.92626 C 350.7295 224.2095 350.6532 222.6835 350.8821 219.05924 L 351.111 214.44307 L 350.00467 212.38297 C 349.3561 211.27661 348.40236 209.55986 347.8301 208.56795 C 347.25786 207.6142 346.72376 205.97375 346.6093 204.9437 C 346.41855 203.26509 346.57115 202.76913 348.5168 199.06857 C 349.6613 196.85586 350.9584 193.7657 351.37807 192.20155 C 352.25552 188.99694 352.94223 183.31257 352.94223 179.19236 C 352.98038 175.5681 353.17113 174.69064 356.22314 165.91611 C 358.6266 158.93464 358.81735 158.20978 358.96995 154.43292 C 359.0844 151.38091 358.96995 149.626 358.43584 147.37515 C 358.05434 145.69654 357.711 144.70464 357.59654 145.12429 C 357.52024 145.54394 357.0243 146.84105 356.4902 147.98555 Z" fill="#FFFFFF"/>
        </g>
        <g id="Graphic_43">
          <path d="M 117.44148 174.11839 C 117.40333 174.34729 118.20449 174.9577 119.23454 175.4918 C 121.44725 176.7126 121.75245 177.0941 121.75245 179.0016 C 121.75245 180.94726 120.53165 182.12992 118.16634 182.47327 L 116.33513 182.77847 L 117.40333 183.92297 C 118.31894 184.87672 118.73859 185.02932 119.80679 184.83857 C 122.7062 184.38077 124.27036 182.20622 123.8507 179.3068 C 123.6218 177.7808 123.27845 177.2467 121.2565 175.37734 C 119.50159 173.77504 118.77674 173.31724 118.20449 173.50799 C 117.82299 173.66059 117.47963 173.92764 117.44148 174.11839 Z" fill="#FFFFFF"/>
        </g>
        <g id="Graphic_42">
          <path d="M 334.09606 199.29747 C 331.8452 202.61653 328.8695 207.95755 325.6649 214.36677 L 324.5967 216.46503 L 325.6649 218.5633 C 327.91574 223.065 329.44175 224.2858 332.8371 224.2858 C 334.9735 224.2858 336.69027 223.3702 338.71223 221.19565 C 341.00124 218.7159 341.30644 214.51937 339.78043 208.18645 C 339.09373 205.43964 338.71223 202.65468 338.55963 198.99227 L 338.33073 193.72755 L 337.22437 194.9865 C 336.65212 195.6732 335.24057 197.61887 334.09606 199.29747 Z" fill="#FFFFFF"/>
        </g>
        <g id="Graphic_41">
          <path d="M 280.57143 201.51018 C 275.80267 203.9518 270.08015 206.1645 265.69288 207.309 C 261.45822 208.41535 255.5831 208.6061 252.2259 207.72865 C 251.08138 207.42345 250.05133 207.2327 250.01318 207.309 C 249.93688 207.3853 250.92878 208.2246 252.18774 209.17836 C 253.9045 210.39916 255.049 210.9714 256.3461 211.12401 C 260.88597 211.73441 261.07672 211.92517 261.68712 216.99913 C 261.91602 218.75404 262.22122 220.3182 262.41197 220.50894 C 262.56457 220.66154 263.44203 220.9286 264.31948 221.0812 L 265.88363 221.3101 L 268.09634 218.52514 C 271.9495 213.68007 276.52752 209.40726 281.4489 206.12635 C 284.00494 204.4096 286.29395 202.95989 286.59915 202.84543 C 286.9425 202.73098 286.7136 202.19688 285.798 201.09053 C 285.07315 200.21308 284.38645 199.52637 284.272 199.60267 C 284.15755 199.64082 282.47894 200.51828 280.57143 201.51018 Z" fill="#FFFFFF"/>
        </g>
        <g id="Graphic_40">
          <path d="M 149.6402 204.90554 C 148.91534 207.19455 147.65639 214.02342 147.35119 217.41878 C 146.85523 223.02685 147.50379 225.77366 150.28875 229.89388 C 152.9974 233.8615 154.67601 235.4638 156.88872 236.26495 C 159.55923 237.18055 164.90024 240.38516 168.8297 243.39902 C 169.40196 243.85682 171.30947 244.61983 173.06437 245.07763 L 176.19268 245.87878 L 177.98574 244.00942 C 179.28284 242.67417 179.74064 241.83487 179.74064 241.0337 C 179.74064 240.38516 179.9314 239.54586 180.1603 239.1262 C 180.6181 238.2106 180.27475 236.87535 179.5499 236.87535 C 179.28284 236.87535 178.51984 236.41755 177.87129 235.88345 C 176.45973 234.7008 176.26898 232.94589 177.45164 232.22103 C 178.4817 231.57248 178.4054 231.15283 177.26089 231.15283 C 176.76493 231.15283 175.77303 230.92393 175.08633 230.61873 C 174.39963 230.35168 172.94992 229.89388 171.91987 229.66497 C 169.0586 228.97827 164.9384 226.95632 163.8702 225.69736 C 163.03089 224.70546 162.95459 224.2858 162.95459 221.04305 C 162.95459 216.99913 162.87829 217.11358 167.4563 214.17602 C 168.7534 213.33672 169.82161 212.53557 169.82161 212.42112 C 169.82161 212.26852 168.6771 212.03962 167.2274 211.88702 C 162.45864 211.39106 158.22397 209.5217 152.8448 205.43964 C 151.58585 204.52404 150.44135 203.72289 150.28875 203.72289 C 150.1743 203.68474 149.8691 204.257 149.6402 204.90554 Z" fill="#FFFFFF"/>
        </g>
        <g id="Graphic_39">
          <path d="M 177.56609 233.28924 C 177.14644 233.9378 177.22274 234.1667 178.06204 235.0823 C 179.0158 236.11235 179.0921 236.11235 179.7788 235.50194 C 180.57995 234.7771 180.7707 232.71699 180.04585 231.99213 C 179.51174 231.45803 178.4054 232.03028 177.56609 233.28924 Z" fill="#FFFFFF"/>
        </g>
        <g id="Graphic_38">
          <path d="M 180.73255 236.57015 C 181.03775 237.56205 181.03775 237.4476 180.96145 240.23256 C 180.88515 242.10192 180.73255 242.36897 178.97764 244.20017 C 176.95568 246.26028 176.91753 246.33658 177.37534 247.02328 C 177.79499 247.67184 181.4574 249.8464 182.1441 249.8464 C 183.09786 249.8464 183.55566 247.44293 183.55566 242.40712 L 183.55566 237.8291 L 182.33485 236.79905 C 180.80885 235.50194 180.35105 235.4638 180.73255 236.57015 Z" fill="#FFFFFF"/>
        </g>
        <g id="Graphic_37">
          <path d="M 353.05668 258.92612 C 352.48442 259.30762 352.02662 261.13883 352.48442 261.40588 C 353.05668 261.78738 355.0405 261.06253 355.15493 260.45213 C 355.2694 259.87988 354.31563 258.62092 353.78153 258.62092 C 353.62893 258.62092 353.32373 258.77352 353.05668 258.92612 Z" fill="#FFFFFF"/>
        </g>
        <g id="Graphic_36">
          <path d="M 199.46426 260.07063 C 198.85386 260.71918 198.85386 260.90993 199.38796 261.90183 C 199.69316 262.51224 199.96021 263.2371 199.96021 263.50414 C 199.96021 264.34344 201.75327 262.89374 202.24922 261.67293 C 202.63072 260.71918 202.63072 260.37583 202.09662 259.57468 C 201.40992 258.50647 200.76136 258.65907 199.46426 260.07063 Z" fill="#FFFFFF"/>
        </g>
        <g id="Graphic_35">
          <path d="M 347.02896 262.3978 C 344.66365 264.03824 344.1677 264.11454 343.06134 263.04634 C 342.52724 262.5504 341.45904 262.01628 340.69604 261.86368 C 339.55153 261.63478 339.17003 261.74923 338.52148 262.43594 C 337.52957 263.5423 336.42322 266.6706 336.88102 267.1284 C 337.07177 267.31915 338.59778 267.281 340.5816 267.01395 C 342.45094 266.7469 345.3122 266.40355 346.9908 266.25095 C 350.53877 265.94575 351.37807 265.2209 351.41622 262.4741 L 351.41622 260.83363 L 349.9665 261.06253 C 349.2035 261.21513 347.86826 261.82553 347.02896 262.3978 Z" fill="#FFFFFF"/>
        </g>
        <g id="Graphic_34">
          <path d="M 279.23618 264.72494 C 277.06162 268.15845 277.25237 268.31105 284.53905 268.7307 C 289.57486 269.0359 290.49047 268.84516 291.52052 267.1284 C 292.43612 265.6024 292.32167 265.2209 291.17717 265.8313 C 290.6812 266.1365 289.4604 266.17465 287.8581 266.02205 C 285.4928 265.755 285.22575 265.64055 283.509 263.9238 C 282.47894 262.89374 281.41074 262.13073 281.1437 262.2452 C 280.87663 262.35963 279.99918 263.466 279.23618 264.72494 Z" fill="#FFFFFF"/>
        </g>
        <g id="Graphic_33">
          <path d="M 292.74132 263.27524 C 292.09277 264.03824 292.01647 264.26714 292.43612 264.80124 C 293.00837 265.6024 295.33553 265.71685 296.02223 265.03014 C 296.3656 264.6868 296.25114 264.34344 295.45 263.50414 C 294.22918 262.20703 293.80953 262.16888 292.74132 263.27524 Z" fill="#FFFFFF"/>
        </g>
        <g id="Graphic_32">
          <path d="M 188.51517 263.3897 C 187.67587 263.80934 187.17992 263.88564 186.64582 263.58044 C 185.27241 262.8556 184.47126 263.1608 183.8227 264.5342 C 183.47936 265.2972 183.17416 266.2891 183.17416 266.8232 C 183.17416 267.6625 183.3649 267.7388 185.61576 267.9677 C 188.01922 268.23475 196.33595 267.7388 196.7556 267.281 C 196.87005 267.16655 197.0608 266.40355 197.17525 265.56425 C 197.366 264.11454 197.32785 264.0001 195.9163 263.2371 C 194.6955 262.58854 193.97064 262.43594 192.06314 262.58854 C 190.76603 262.703 189.16373 263.04634 188.51517 263.3897 Z" fill="#FFFFFF"/>
        </g>
        <g id="Graphic_31">
          <path d="M 102.44848 140.01217 C 103.55484 141.30928 103.51669 141.19483 103.63114 144.55204 C 103.63114 145.92544 103.78374 147.4133 103.97449 147.8711 C 104.16524 148.51965 104.12709 148.74855 103.66929 148.74855 C 103.32594 148.74855 102.98259 148.3289 102.82999 147.7948 C 102.63923 146.99365 102.37218 146.84105 101.15138 146.84105 C 99.01497 146.84105 98.44272 147.14625 98.70977 148.1763 C 99.01497 149.35896 98.25197 149.74046 97.67972 148.7104 C 97.14562 147.68035 97.45082 143.97979 98.25197 142.07228 C 98.82422 140.69888 100.46468 138.82952 101.11323 138.82952 C 101.30398 138.82952 101.91438 139.36362 102.44848 140.01217 Z" fill="black"/>
        </g>
        <g id="Graphic_30">
          <path d="M 100.76988 141.27113 C 100.76988 141.57633 101.11323 142.18673 101.53288 142.68268 L 102.25773 143.59829 L 102.29588 142.41563 C 102.29588 141.76708 102.18143 141.11853 102.02883 141.00408 C 101.60918 140.54628 100.76988 140.73703 100.76988 141.27113 Z" fill="#FFFFFF"/>
        </g>
        <g id="Graphic_29">
          <path d="M 99.24387 145.12429 C 99.24387 145.4295 99.58722 145.69654 100.00688 145.69654 C 100.84618 145.69654 101.03693 145.12429 100.27393 144.81909 C 99.47277 144.47574 99.24387 144.55204 99.24387 145.12429 Z" fill="#FFFFFF"/>
        </g>
        <g id="Graphic_28">
          <path d="M 128.23797 157.82828 C 128.23797 158.01903 125.98711 158.28609 123.20215 158.43869 C 119.12009 158.62944 117.59409 158.89649 114.99988 159.77394 C 112.90162 160.4988 111.83342 160.7277 111.83342 160.4225 C 111.83342 159.85024 114.08427 158.74389 116.60218 158.05718 C 118.70044 157.48493 128.23797 157.29418 128.23797 157.82828 Z" fill="black"/>
        </g>
        <g id="Graphic_27">
          <path d="M 146.32113 176.4837 C 147.12228 178.96345 148.07604 183.08367 148.07604 184.15187 C 148.07604 185.71603 147.38934 184.64782 146.93153 182.39697 C 146.70263 181.21431 146.16853 178.96345 145.78703 177.43745 C 145.02403 174.38544 145.40553 173.69874 146.32113 176.4837 Z" fill="black"/>
        </g>
        <g id="Graphic_26">
          <path d="M 148.76274 179.80276 C 149.22054 180.79466 152.42515 192.04895 152.8448 194.10906 C 153.03555 195.0628 152.9974 195.32986 152.6159 195.2154 C 152.04365 195.02466 150.28875 189.4166 149.4113 184.99117 C 149.06794 183.42702 148.64829 181.48136 148.41939 180.64206 C 147.96159 178.96345 148.15234 178.4675 148.76274 179.80276 Z" fill="black"/>
        </g>
      </g>
    </g>
  </g>
</svg>
