<?xml version="1.0" encoding="UTF-8" standalone="no"?>
<!DOCTYPE svg PUBLIC "-//W3C//DTD SVG 1.1//EN" "http://www.w3.org/Graphics/SVG/1.1/DTD/svg11.dtd">
<svg xmlns:xl="http://www.w3.org/1999/xlink" xmlns="http://www.w3.org/2000/svg" xmlns:dc="http://purl.org/dc/elements/1.1/" version="1.1" viewBox="36 63 292.5 301.5" width="292.5" height="301.5">
  <defs>
    <clipPath id="artboard_clip_path">
      <path d="M 36 63 L 328.5 63 L 328.5 364.5 L 36 364.5 Z"/>
    </clipPath>
    <clipPath id="inner_stroke_clip_path">
      <path d="M 187.0541 73.396015 C 186.61154 72.35359 186.17875 71.42946 185.75668 70.62312 C 185.72325 70.524 185.69211 70.42638 185.66328 70.33027 C 184.68289 66.93422 183.38598 65.632356 181.84726 66.46367 C 180.80264 66.43886 179.89159 67.524116 179.1423 69.70473 C 178.58282 70.69743 178.00345 71.90317 177.40649 73.32318 C 176.0195 76.40957 171.147 82.28281 164.81302 88.94091 C 163.20555 90.63065 161.50394 92.37093 159.74129 94.12904 C 151.91179 101.6247 142.25042 110.0701 131.57813 118.65662 C 130.8703 119.14941 130.18833 119.60696 129.53578 120.02573 C 118.42892 127.24532 108.45947 134.21438 99.57607 140.9796 C 87.08023 151.19784 76.12407 160.04502 67.65836 168.88798 C 64.76517 171.9101 62.16286 174.93171 59.82465 177.98957 C 53.22163 186.62486 48.724816 195.54911 45.73142 205.5895 C 40.978706 214.55358 39.7383 226.74764 40.915035 238.96818 C 41.020396 240.06237 41.145136 241.15678 41.288943 242.2506 C 41.584557 246.70204 42.60897 251.2897 44.348384 257.7649 C 46.924974 267.13103 50.47914 277.20402 51.977093 280.0736 C 55.46389 286.2868 70.22443 302.43826 75.59059 305.72294 C 75.8871 305.88096 76.22836 306.0735 76.60529 306.2942 C 79.98784 308.94253 83.56305 311.2954 87.31117 313.3022 C 92.93218 316.39544 106.90365 319.34453 113.0625 319.5 C 119.22135 319.65547 135.61944 316.25803 143.03462 312.50894 C 144.90845 311.53078 149.22432 310.06953 152.76753 306.99348 C 157.45296 304.18757 160.6057 300.23555 163.59973 297.50078 L 171.54866 290.27685 C 171.35383 294.73 170.2031 301.20247 168.5067 308.30204 C 167.93871 311.74548 166.8986 315.05724 165.71763 318.5072 C 161.21724 331.65407 154.6711 346.80783 150.32396 353.01173 C 145.3771 359.9234 146.5454 362.11557 154.29445 360.56165 C 155.63049 360.34275 160.06557 360.17795 166.13528 360.0722 C 169.4702 360.14653 173.11791 360.1864 176.92623 360.17942 C 192.61083 360.14696 207.57593 360.36836 210.23796 360.8045 C 217.98701 362.35843 219.1553 360.16624 214.20845 353.2546 C 210.16744 347.4876 204.22624 333.98684 199.7945 321.55355 C 198.51097 317.6685 197.41822 313.703 196.46957 309.88106 C 194.59866 302.34353 193.28821 295.36426 193.00967 290.54327 L 200.93268 297.74364 C 204.31555 300.8336 209.31398 304.2308 214.71692 307.34354 C 217.5095 309.6677 219.95577 311.46113 221.4978 312.26608 C 228.91297 316.01517 244.52682 318.68817 252.09808 318.62806 C 259.66933 318.56794 270.97898 316.98018 277.22124 313.54505 C 282.23785 310.8591 286.94472 307.55315 291.29446 303.74862 C 291.44432 303.61754 291.59377 303.48587 291.74278 303.3536 C 298.28806 297.7915 309.5657 285.15803 312.5553 279.83074 C 314.05327 276.96116 317.60743 266.88817 320.18402 257.52204 C 321.90763 251.1057 322.92917 246.54274 323.36355 242.13126 C 323.48204 240.9279 323.55684 239.7358 323.5903 238.52044 C 324.74748 226.54197 323.47843 214.59284 319.4643 203.73543 C 319.17185 202.95542 318.86356 202.17457 318.5393 201.39278 C 315.9226 195.08412 312.26585 188.71391 307.50742 182.22619 C 304.4908 177.13591 300.4601 172.27376 295.66285 167.39716 C 288.19194 160.3542 279.3907 152.49402 268.99545 144.34311 C 259.5259 136.91803 248.73357 129.2517 236.54868 121.28066 C 212.38725 102.17546 192.73116 83.33254 187.0541 73.39602 Z"/>
    </clipPath>
  </defs>
  <g id="Card-Pique_(1)" stroke-opacity="1" stroke="none" stroke-dasharray="none" fill="none" fill-opacity="1">
    <title>Card-Pique (1)</title>
    <g id="Card-Pique_(1)_Layer_2" clip-path="url(#artboard_clip_path)">
      <title>Layer 2</title>
      <g id="Graphic_3">
        <path d="M 187.0541 73.396015 C 186.61154 72.35359 186.17875 71.42946 185.75668 70.62312 C 185.72325 70.524 185.69211 70.42638 185.66328 70.33027 C 184.68289 66.93422 183.38598 65.632356 181.84726 66.46367 C 180.80264 66.43886 179.89159 67.524116 179.1423 69.70473 C 178.58282 70.69743 178.00345 71.90317 177.40649 73.32318 C 176.0195 76.40957 171.147 82.28281 164.81302 88.94091 C 163.20555 90.63065 161.50394 92.37093 159.74129 94.12904 C 151.91179 101.6247 142.25042 110.0701 131.57813 118.65662 C 130.8703 119.14941 130.18833 119.60696 129.53578 120.02573 C 118.42892 127.24532 108.45947 134.21438 99.57607 140.9796 C 87.08023 151.19784 76.12407 160.04502 67.65836 168.88798 C 64.76517 171.9101 62.16286 174.93171 59.82465 177.98957 C 53.22163 186.62486 48.724816 195.54911 45.73142 205.5895 C 40.978706 214.55358 39.7383 226.74764 40.915035 238.96818 C 41.020396 240.06237 41.145136 241.15678 41.288943 242.2506 C 41.584557 246.70204 42.60897 251.2897 44.348384 257.7649 C 46.924974 267.13103 50.47914 277.20402 51.977093 280.0736 C 55.46389 286.2868 70.22443 302.43826 75.59059 305.72294 C 75.8871 305.88096 76.22836 306.0735 76.60529 306.2942 C 79.98784 308.94253 83.56305 311.2954 87.31117 313.3022 C 92.93218 316.39544 106.90365 319.34453 113.0625 319.5 C 119.22135 319.65547 135.61944 316.25803 143.03462 312.50894 C 144.90845 311.53078 149.22432 310.06953 152.76753 306.99348 C 157.45296 304.18757 160.6057 300.23555 163.59973 297.50078 L 171.54866 290.27685 C 171.35383 294.73 170.2031 301.20247 168.5067 308.30204 C 167.93871 311.74548 166.8986 315.05724 165.71763 318.5072 C 161.21724 331.65407 154.6711 346.80783 150.32396 353.01173 C 145.3771 359.9234 146.5454 362.11557 154.29445 360.56165 C 155.63049 360.34275 160.06557 360.17795 166.13528 360.0722 C 169.4702 360.14653 173.11791 360.1864 176.92623 360.17942 C 192.61083 360.14696 207.57593 360.36836 210.23796 360.8045 C 217.98701 362.35843 219.1553 360.16624 214.20845 353.2546 C 210.16744 347.4876 204.22624 333.98684 199.7945 321.55355 C 198.51097 317.6685 197.41822 313.703 196.46957 309.88106 C 194.59866 302.34353 193.28821 295.36426 193.00967 290.54327 L 200.93268 297.74364 C 204.31555 300.8336 209.31398 304.2308 214.71692 307.34354 C 217.5095 309.6677 219.95577 311.46113 221.4978 312.26608 C 228.91297 316.01517 244.52682 318.68817 252.09808 318.62806 C 259.66933 318.56794 270.97898 316.98018 277.22124 313.54505 C 282.23785 310.8591 286.94472 307.55315 291.29446 303.74862 C 291.44432 303.61754 291.59377 303.48587 291.74278 303.3536 C 298.28806 297.7915 309.5657 285.15803 312.5553 279.83074 C 314.05327 276.96116 317.60743 266.88817 320.18402 257.52204 C 321.90763 251.1057 322.92917 246.54274 323.36355 242.13126 C 323.48204 240.9279 323.55684 239.7358 323.5903 238.52044 C 324.74748 226.54197 323.47843 214.59284 319.4643 203.73543 C 319.17185 202.95542 318.86356 202.17457 318.5393 201.39278 C 315.9226 195.08412 312.26585 188.71391 307.50742 182.22619 C 304.4908 177.13591 300.4601 172.27376 295.66285 167.39716 C 288.19194 160.3542 279.3907 152.49402 268.99545 144.34311 C 259.5259 136.91803 248.73357 129.2517 236.54868 121.28066 C 212.38725 102.17546 192.73116 83.33254 187.0541 73.39602 Z" fill="#FFFFFF"/>
        <path d="M 187.0541 73.396015 C 186.61154 72.35359 186.17875 71.42946 185.75668 70.62312 C 185.72325 70.524 185.69211 70.42638 185.66328 70.33027 C 184.68289 66.93422 183.38598 65.632356 181.84726 66.46367 C 180.80264 66.43886 179.89159 67.524116 179.1423 69.70473 C 178.58282 70.69743 178.00345 71.90317 177.40649 73.32318 C 176.0195 76.40957 171.147 82.28281 164.81302 88.94091 C 163.20555 90.63065 161.50394 92.37093 159.74129 94.12904 C 151.91179 101.6247 142.25042 110.0701 131.57813 118.65662 C 130.8703 119.14941 130.18833 119.60696 129.53578 120.02573 C 118.42892 127.24532 108.45947 134.21438 99.57607 140.9796 C 87.08023 151.19784 76.12407 160.04502 67.65836 168.88798 C 64.76517 171.9101 62.16286 174.93171 59.82465 177.98957 C 53.22163 186.62486 48.724816 195.54911 45.73142 205.5895 C 40.978706 214.55358 39.7383 226.74764 40.915035 238.96818 C 41.020396 240.06237 41.145136 241.15678 41.288943 242.2506 C 41.584557 246.70204 42.60897 251.2897 44.348384 257.7649 C 46.924974 267.13103 50.47914 277.20402 51.977093 280.0736 C 55.46389 286.2868 70.22443 302.43826 75.59059 305.72294 C 75.8871 305.88096 76.22836 306.0735 76.60529 306.2942 C 79.98784 308.94253 83.56305 311.2954 87.31117 313.3022 C 92.93218 316.39544 106.90365 319.34453 113.0625 319.5 C 119.22135 319.65547 135.61944 316.25803 143.03462 312.50894 C 144.90845 311.53078 149.22432 310.06953 152.76753 306.99348 C 157.45296 304.18757 160.6057 300.23555 163.59973 297.50078 L 171.54866 290.27685 C 171.35383 294.73 170.2031 301.20247 168.5067 308.30204 C 167.93871 311.74548 166.8986 315.05724 165.71763 318.5072 C 161.21724 331.65407 154.6711 346.80783 150.32396 353.01173 C 145.3771 359.9234 146.5454 362.11557 154.29445 360.56165 C 155.63049 360.34275 160.06557 360.17795 166.13528 360.0722 C 169.4702 360.14653 173.11791 360.1864 176.92623 360.17942 C 192.61083 360.14696 207.57593 360.36836 210.23796 360.8045 C 217.98701 362.35843 219.1553 360.16624 214.20845 353.2546 C 210.16744 347.4876 204.22624 333.98684 199.7945 321.55355 C 198.51097 317.6685 197.41822 313.703 196.46957 309.88106 C 194.59866 302.34353 193.28821 295.36426 193.00967 290.54327 L 200.93268 297.74364 C 204.31555 300.8336 209.31398 304.2308 214.71692 307.34354 C 217.5095 309.6677 219.95577 311.46113 221.4978 312.26608 C 228.91297 316.01517 244.52682 318.68817 252.09808 318.62806 C 259.66933 318.56794 270.97898 316.98018 277.22124 313.54505 C 282.23785 310.8591 286.94472 307.55315 291.29446 303.74862 C 291.44432 303.61754 291.59377 303.48587 291.74278 303.3536 C 298.28806 297.7915 309.5657 285.15803 312.5553 279.83074 C 314.05327 276.96116 317.60743 266.88817 320.18402 257.52204 C 321.90763 251.1057 322.92917 246.54274 323.36355 242.13126 C 323.48204 240.9279 323.55684 239.7358 323.5903 238.52044 C 324.74748 226.54197 323.47843 214.59284 319.4643 203.73543 C 319.17185 202.95542 318.86356 202.17457 318.5393 201.39278 C 315.9226 195.08412 312.26585 188.71391 307.50742 182.22619 C 304.4908 177.13591 300.4601 172.27376 295.66285 167.39716 C 288.19194 160.3542 279.3907 152.49402 268.99545 144.34311 C 259.5259 136.91803 248.73357 129.2517 236.54868 121.28066 C 212.38725 102.17546 192.73116 83.33254 187.0541 73.39602 Z" stroke="black" stroke-linecap="round" stroke-linejoin="round" stroke-width="10" clip-path="url(#inner_stroke_clip_path)"/>
      </g>
    </g>
  </g>
</svg>
