<?xml version="1.0" encoding="UTF-8" standalone="no"?>
<!DOCTYPE svg PUBLIC "-//W3C//DTD SVG 1.1//EN" "http://www.w3.org/Graphics/SVG/1.1/DTD/svg11.dtd">
<svg xmlns:xl="http://www.w3.org/1999/xlink" xmlns="http://www.w3.org/2000/svg" xmlns:dc="http://purl.org/dc/elements/1.1/" version="1.1" viewBox="99 61.5 166 327" width="166" height="327">
  <defs>
    <clipPath id="artboard_clip_path">
      <path d="M 99 61.5 L 265 61.5 L 265 388.5 L 99 388.5 Z"/>
    </clipPath>
  </defs>
  <g id="Cartouche_(1)" stroke-opacity="1" stroke="none" stroke-dasharray="none" fill="none" fill-opacity="1">
    <title>Cartouche (1)</title>
    <g id="Cartouche_(1)_Layer_2" clip-path="url(#artboard_clip_path)">
      <title>Layer 2</title>
      <g id="Graphic_15">
        <path d="M 387.00003 127.87526 L 387.00003 257.36565 C 387 257.38732 387 257.409 387 257.43067 C 387 274.01702 393.04095 290.60338 405.12284 303.25835 C 429.2865 328.56842 468.4635 328.56842 492.62716 303.25835 C 504.70906 290.60338 510.75 274.01702 510.75 257.43066 L 510.74997 257.36565 L 510.74997 127.87526 C 510.75 127.85358 510.75 127.83191 510.75 127.81024 C 510.75 111.22388 504.70905 94.63752 492.62716 81.98255 C 468.4635 56.67248 429.2865 56.67248 405.12284 81.98255 C 393.04094 94.63753 387 111.22389 387 127.81025 Z" fill="#FFFFFF"/>
        <path d="M 387.00003 127.87526 L 387.00003 257.36565 C 387 257.38732 387 257.409 387 257.43067 C 387 274.01702 393.04095 290.60338 405.12284 303.25835 C 429.2865 328.56842 468.4635 328.56842 492.62716 303.25835 C 504.70906 290.60338 510.75 274.01702 510.75 257.43066 L 510.74997 257.36565 L 510.74997 127.87526 C 510.75 127.85358 510.75 127.83191 510.75 127.81024 C 510.75 111.22388 504.70905 94.63752 492.62716 81.98255 C 468.4635 56.67248 429.2865 56.67248 405.12284 81.98255 C 393.04094 94.63753 387 111.22389 387 127.81025 Z" stroke="black" stroke-linecap="round" stroke-linejoin="round" stroke-width="2"/>
      </g>
      <g id="Graphic_14">
        <path d="M 614.31654 114.87231 L 614.31654 218.40894 C 614.3165 218.42627 614.3165 218.4436 614.3165 218.46093 C 614.3165 231.72288 619.1467 244.98483 628.807 255.10337 C 648.1275 275.34054 679.4523 275.34054 698.7728 255.10337 C 708.43314 244.98483 713.2633 231.72288 713.2633 218.46092 L 713.2633 218.40894 L 713.2633 114.87231 C 713.2633 114.85498 713.2633 114.83765 713.2633 114.82032 C 713.2633 101.55837 708.43314 88.29642 698.7728 78.17788 C 679.4523 57.940706 648.1275 57.940706 628.807 78.17788 C 619.1467 88.29642 614.3165 101.55837 614.3165 114.82033 Z" fill="#FFFFFF"/>
        <path d="M 614.31654 114.87231 L 614.31654 218.40894 C 614.3165 218.42627 614.3165 218.4436 614.3165 218.46093 C 614.3165 231.72288 619.1467 244.98483 628.807 255.10337 C 648.1275 275.34054 679.4523 275.34054 698.7728 255.10337 C 708.43314 244.98483 713.2633 231.72288 713.2633 218.46092 L 713.2633 218.40894 L 713.2633 114.87231 C 713.2633 114.85498 713.2633 114.83765 713.2633 114.82032 C 713.2633 101.55837 708.43314 88.29642 698.7728 78.17788 C 679.4523 57.940706 648.1275 57.940706 628.807 78.17788 C 619.1467 88.29642 614.3165 101.55837 614.3165 114.82033 Z" stroke="black" stroke-linecap="round" stroke-linejoin="round" stroke-width="2"/>
      </g>
      <g id="Graphic_3">
        <path d="M 101.00002 144.08127 L 101.00002 305.91873 C 100.99999 305.9458 100.99998 305.9729 100.99998 306 C 100.99998 326.72966 108.90813 347.45933 124.72443 363.27555 C 156.35686 394.90815 207.64314 394.90815 239.27557 363.27555 C 255.09187 347.45933 263.00002 326.72965 263.00002 305.99997 L 262.99998 305.91873 L 262.99998 144.08127 C 263 144.05419 263.00002 144.0271 263.00002 144.00001 C 263.00002 123.27034 255.09187 102.54067 239.27557 86.72445 C 207.64314 55.09185 156.35686 55.09185 124.72443 86.72445 C 108.90813 102.54067 100.99998 123.27035 100.99998 144.00003 Z" fill="#FFFFFF"/>
        <path d="M 101.00002 144.08127 L 101.00002 305.91873 C 100.99999 305.9458 100.99998 305.9729 100.99998 306 C 100.99998 326.72966 108.90813 347.45933 124.72443 363.27555 C 156.35686 394.90815 207.64314 394.90815 239.27557 363.27555 C 255.09187 347.45933 263.00002 326.72965 263.00002 305.99997 L 262.99998 305.91873 L 262.99998 144.08127 C 263 144.05419 263.00002 144.0271 263.00002 144.00001 C 263.00002 123.27034 255.09187 102.54067 239.27557 86.72445 C 207.64314 55.09185 156.35686 55.09185 124.72443 86.72445 C 108.90813 102.54067 100.99998 123.27035 100.99998 144.00003 Z" stroke="black" stroke-linecap="round" stroke-linejoin="round" stroke-width="2"/>
      </g>
    </g>
  </g>
</svg>
