<?xml version="1.0" encoding="UTF-8" standalone="no"?>
<!DOCTYPE svg PUBLIC "-//W3C//DTD SVG 1.1//EN" "http://www.w3.org/Graphics/SVG/1.1/DTD/svg11.dtd">
<svg xmlns="http://www.w3.org/2000/svg" xmlns:xl="http://www.w3.org/1999/xlink" version="1.1" xmlns:dc="http://purl.org/dc/elements/1.1/" viewBox="54 112.5 310.5 139.5" width="310.5" height="139.5">
  <defs>
    <clipPath id="artboard_clip_path">
      <path d="M 54 112.5 L 364.5 112.5 L 364.5 252 L 54 252 Z"/>
    </clipPath>
    <clipPath id="inner_stroke_clip_path">
      <path d="M 124.974 194.37838 L 127.348 194.37838 L 127.348 210.99638 L 124.974 210.99638 Z"/>
    </clipPath>
    <clipPath id="inner_stroke_clip_path_2">
      <path d="M 141.592 194.37838 L 143.966 194.37838 L 143.966 210.99638 L 141.592 210.99638 Z"/>
    </clipPath>
    <clipPath id="inner_stroke_clip_path_3">
      <path d="M 158.21 194.37838 L 160.584 194.37838 L 160.584 210.99638 L 158.21 210.99638 Z"/>
    </clipPath>
    <clipPath id="inner_stroke_clip_path_4">
      <path d="M 186.698 158.76838 L 189.072 158.76838 L 189.072 168.26438 L 186.698 168.26438 Z"/>
    </clipPath>
    <clipPath id="inner_stroke_clip_path_5">
      <path d="M 208.064 158.76838 L 210.438 158.76838 L 210.438 168.26438 L 208.064 168.26438 Z"/>
    </clipPath>
    <clipPath id="inner_stroke_clip_path_6">
      <path d="M 229.43 158.76838 L 231.804 158.76838 L 231.804 168.26438 L 229.43 168.26438 Z"/>
    </clipPath>
    <clipPath id="inner_stroke_clip_path_7">
      <path d="M 186.698 196.75238 L 189.072 196.75238 L 189.072 206.24838 L 186.698 206.24838 Z"/>
    </clipPath>
    <clipPath id="inner_stroke_clip_path_8">
      <path d="M 229.43 196.75238 L 231.804 196.75238 L 231.804 206.24838 L 229.43 206.24838 Z"/>
    </clipPath>
    <clipPath id="inner_stroke_clip_path_9">
      <path d="M 77.49399 158.76838 L 79.86799 158.76838 L 79.86799 168.26438 L 77.49399 168.26438 Z"/>
    </clipPath>
    <clipPath id="inner_stroke_clip_path_10">
      <path d="M 96.486 158.76838 L 98.86 158.76838 L 98.86 168.26438 L 96.486 168.26438 Z"/>
    </clipPath>
    <clipPath id="inner_stroke_clip_path_11">
      <path d="M 77.49399 199.12638 L 79.86799 199.12638 L 79.86799 208.62238 L 77.49399 208.62238 Z"/>
    </clipPath>
    <clipPath id="inner_stroke_clip_path_12">
      <path d="M 96.486 199.12638 L 98.86 199.12638 L 98.86 208.62238 L 96.486 208.62238 Z"/>
    </clipPath>
    <clipPath id="inner_stroke_clip_path_13">
      <path d="M 257.918 194.37838 L 260.292 194.37838 L 260.292 210.99638 L 257.918 210.99638 Z"/>
    </clipPath>
    <clipPath id="inner_stroke_clip_path_14">
      <path d="M 274.536 194.37838 L 276.91 194.37838 L 276.91 210.99638 L 274.536 210.99638 Z"/>
    </clipPath>
    <clipPath id="inner_stroke_clip_path_15">
      <path d="M 291.154 194.37838 L 293.528 194.37838 L 293.528 210.99638 L 291.154 210.99638 Z"/>
    </clipPath>
    <clipPath id="inner_stroke_clip_path_16">
      <path d="M 319.642 158.76838 L 322.016 158.76838 L 322.016 168.26438 L 319.642 168.26438 Z"/>
    </clipPath>
    <clipPath id="inner_stroke_clip_path_17">
      <path d="M 338.634 158.76838 L 341.008 158.76838 L 341.008 168.26438 L 338.634 168.26438 Z"/>
    </clipPath>
    <clipPath id="inner_stroke_clip_path_18">
      <path d="M 319.642 199.12638 L 322.016 199.12638 L 322.016 208.62238 L 319.642 208.62238 Z"/>
    </clipPath>
    <clipPath id="inner_stroke_clip_path_19">
      <path d="M 338.634 199.12638 L 341.008 199.12638 L 341.008 208.62238 L 338.634 208.62238 Z"/>
    </clipPath>
  </defs>
  <g id="Castle_of_Three_Towers_(2)" stroke-opacity="1" fill="none" fill-opacity="1" stroke-dasharray="none" stroke="none">
    <title>Castle of Three Towers (2)</title>
    <g id="Castle_of_Three_Towers_(2)_Layer_2" clip-path="url(#artboard_clip_path)">
      <title>Layer 2</title>
      <g id="Group_295">
        <g id="Graphic_294">
          <path d="M 181.53296 119.29986 C 164.91496 120.67451 165.332 123.15838 165.332 123.15838 L 167.706 149.27238 C 167.706 149.27238 168.13763 151.64638 208.064 151.64638 C 247.99036 151.64638 250.796 149.27238 250.796 149.27238 L 253.17 123.15838 C 253.17 123.15838 253.58704 120.67451 236.96904 119.29986 L 236.13496 132.65438 L 230.67845 132.11176 L 231.22106 118.96731 C 226.17563 118.67115 220.52168 117.94127 212.812 117.89362 L 212.812 130.28038 L 205.69 130.28038 L 205.69 117.89362 C 197.98032 117.94127 192.32637 118.67115 187.28093 118.96731 L 187.82354 132.11176 L 182.36704 132.65438 Z" fill="#FFFFFF"/>
          <path d="M 181.53296 119.29986 C 164.91496 120.67451 165.332 123.15838 165.332 123.15838 L 167.706 149.27238 C 167.706 149.27238 168.13763 151.64638 208.064 151.64638 C 247.99036 151.64638 250.796 149.27238 250.796 149.27238 L 253.17 123.15838 C 253.17 123.15838 253.58704 120.67451 236.96904 119.29986 L 236.13496 132.65438 L 230.67845 132.11176 L 231.22106 118.96731 C 226.17563 118.67115 220.52168 117.94127 212.812 117.89362 L 212.812 130.28038 L 205.69 130.28038 L 205.69 117.89362 C 197.98032 117.94127 192.32637 118.67115 187.28093 118.96731 L 187.82354 132.11176 L 182.36704 132.65438 Z" stroke="black" stroke-linecap="round" stroke-linejoin="round" stroke-width="1.0551111"/>
        </g>
        <g id="Graphic_293">
          <path d="M 172.454 149.27238 C 172.454 149.27238 172.454 146.89838 209.251 146.89838 C 246.048 146.89838 246.048 149.27238 246.048 149.27238 L 246.048 244.23238 C 246.048 244.23238 242.70282 246.60638 209.251 246.60638 C 175.79918 246.60638 172.454 244.23238 172.454 244.23238 Z" fill="#FFFFFF"/>
          <path d="M 172.454 149.27238 C 172.454 149.27238 172.454 146.89838 209.251 146.89838 C 246.048 146.89838 246.048 149.27238 246.048 149.27238 L 246.048 244.23238 C 246.048 244.23238 242.70282 246.60638 209.251 246.60638 C 175.79918 246.60638 172.454 244.23238 172.454 244.23238 Z" stroke="black" stroke-linecap="round" stroke-linejoin="round" stroke-width="1.0551111"/>
        </g>
        <g id="Graphic_292">
          <path d="M 219.934 218.11838 C 219.934 211.56276 215.15105 206.24838 209.251 206.24838 C 203.35095 206.24838 198.568 211.56276 198.568 218.11838 L 198.568 246.60638 L 219.934 246.60638 Z" stroke="black" stroke-linecap="round" stroke-linejoin="round" stroke-width="1.0551111"/>
        </g>
        <g id="Line_291">
          <path d="M 209.251 206.24838 C 209.251 206.24838 209.251 218.11838 209.251 218.11838" stroke="black" stroke-linecap="round" stroke-linejoin="round" stroke-width=".52755557"/>
        </g>
        <g id="Line_290">
          <path d="M 216.95593 210.41344 C 216.95593 210.41344 209.251 218.11838 209.251 218.11838" stroke="black" stroke-linecap="round" stroke-linejoin="round" stroke-width=".52755557"/>
        </g>
        <g id="Line_289">
          <path d="M 213.2492 207.74798 C 213.2492 207.74798 209.251 218.11838 209.251 218.11838" stroke="black" stroke-linecap="round" stroke-linejoin="round" stroke-width=".52755557"/>
        </g>
        <g id="Line_288">
          <path d="M 219.35106 213.66185 C 219.35106 213.66185 209.251 218.11838 209.251 218.11838" stroke="black" stroke-linecap="round" stroke-linejoin="round" stroke-width=".52755557"/>
        </g>
        <g id="Line_287">
          <path d="M 219.934 218.11838 C 219.934 218.11838 215.186 218.11838 215.186 218.11838" stroke="black" stroke-linecap="round" stroke-linejoin="round" stroke-width=".52755557"/>
        </g>
        <g id="Line_286">
          <path d="M 219.934 222.86638 C 219.934 222.86638 215.186 222.86638 215.186 222.86638" stroke="black" stroke-linecap="round" stroke-linejoin="round" stroke-width=".52755557"/>
        </g>
        <g id="Line_285">
          <path d="M 219.934 227.61438 C 219.934 227.61438 215.186 227.61438 215.186 227.61438" stroke="black" stroke-linecap="round" stroke-linejoin="round" stroke-width=".52755557"/>
        </g>
        <g id="Line_284">
          <path d="M 219.934 232.36238 C 219.934 232.36238 215.186 232.36238 215.186 232.36238" stroke="black" stroke-linecap="round" stroke-linejoin="round" stroke-width=".52755557"/>
        </g>
        <g id="Line_283">
          <path d="M 219.934 237.11038 C 219.934 237.11038 215.186 237.11038 215.186 237.11038" stroke="black" stroke-linecap="round" stroke-linejoin="round" stroke-width=".52755557"/>
        </g>
        <g id="Line_282">
          <path d="M 219.934 241.85838 C 219.934 241.85838 215.186 241.85838 215.186 241.85838" stroke="black" stroke-linecap="round" stroke-linejoin="round" stroke-width=".52755557"/>
        </g>
        <g id="Graphic_281">
          <path d="M 69.31333 133.24808 C 58.084954 134.1769 58.501994 135.85519 58.501994 135.85519 L 60.10605 151.823 C 60.10605 151.823 60.397694 153.42705 87.37497 153.42705 C 114.35224 153.42705 116.24794 151.823 116.24794 151.823 L 117.852 135.85519 C 117.852 135.85519 118.26904 134.1769 107.04066 133.24808 L 106.63064 142.2714 L 103.00549 141.86139 L 103.41551 133.02339 C 100.00643 132.82328 95.79232 132.68658 90.58308 132.65438 L 90.58308 140.66735 L 85.77091 140.66735 L 85.77091 132.65438 C 80.56167 132.68658 76.34756 132.82328 72.93848 133.02339 L 73.3485 141.86139 L 69.72335 142.2714 Z" fill="#FFFFFF"/>
          <path d="M 69.31333 133.24808 C 58.084954 134.1769 58.501994 135.85519 58.501994 135.85519 L 60.10605 151.823 C 60.10605 151.823 60.397694 153.42705 87.37497 153.42705 C 114.35224 153.42705 116.24794 151.823 116.24794 151.823 L 117.852 135.85519 C 117.852 135.85519 118.26904 134.1769 107.04066 133.24808 L 106.63064 142.2714 L 103.00549 141.86139 L 103.41551 133.02339 C 100.00643 132.82328 95.79232 132.68658 90.58308 132.65438 L 90.58308 140.66735 L 85.77091 140.66735 L 85.77091 132.65438 C 80.56167 132.68658 76.34756 132.82328 72.93848 133.02339 L 73.3485 141.86139 L 69.72335 142.2714 Z" stroke="black" stroke-linecap="round" stroke-linejoin="round" stroke-width="1.0551111"/>
        </g>
        <g id="Graphic_280">
          <path d="M 63.249994 151.58985 C 63.249994 151.58985 63.249994 149.27238 88.17699 149.27238 C 113.104 149.27238 113.104 151.58985 113.104 151.58985 L 113.104 244.2889 C 113.104 244.2889 110.8379 246.60638 88.17699 246.60638 C 65.516085 246.60638 63.249994 244.2889 63.249994 244.2889 Z" fill="#FFFFFF"/>
          <path d="M 63.249994 151.58985 C 63.249994 151.58985 63.249994 149.27238 88.17699 149.27238 C 113.104 149.27238 113.104 151.58985 113.104 151.58985 L 113.104 244.2889 C 113.104 244.2889 110.8379 246.60638 88.17699 246.60638 C 65.516085 246.60638 63.249994 244.2889 63.249994 244.2889 Z" stroke="black" stroke-linecap="round" stroke-linejoin="round" stroke-width="1.0551111"/>
        </g>
        <g id="Graphic_279">
          <rect x="113.104" y="177.76038" width="59.35" height="64.098" fill="#FFFFFF"/>
          <rect x="113.104" y="177.76038" width="59.35" height="64.098" stroke="black" stroke-linecap="round" stroke-linejoin="round" stroke-width="1.0551111"/>
        </g>
        <g id="Graphic_278">
          <path d="M 128.535 163.51638 L 128.535 168.26438 L 123.787 168.26438 L 123.787 163.51638 L 113.104 163.51638 L 113.104 177.76038 L 172.454 177.76038 L 172.454 163.51638 L 161.771 163.51638 L 161.771 168.26438 L 157.023 168.26438 L 157.023 163.51638 L 145.153 163.51638 L 145.153 168.26438 L 140.405 168.26438 L 140.405 163.51638 Z" fill="#FFFFFF"/>
          <path d="M 128.535 163.51638 L 128.535 168.26438 L 123.787 168.26438 L 123.787 163.51638 L 113.104 163.51638 L 113.104 177.76038 L 172.454 177.76038 L 172.454 163.51638 L 161.771 163.51638 L 161.771 168.26438 L 157.023 168.26438 L 157.023 163.51638 L 145.153 163.51638 L 145.153 168.26438 L 140.405 168.26438 L 140.405 163.51638 Z" stroke="black" stroke-linecap="round" stroke-linejoin="round" stroke-width="1.0551111"/>
        </g>
        <g id="Graphic_277">
          <rect x="122.6" y="192.00438" width="7.122" height="21.366" stroke="black" stroke-linecap="round" stroke-linejoin="round" stroke-width="1.0551111"/>
        </g>
        <g id="Graphic_276">
          <rect x="124.974" y="194.37838" width="2.374" height="16.618" fill="#FFFFFF"/>
          <rect x="124.974" y="194.37838" width="2.374" height="16.618" stroke="black" stroke-linecap="round" stroke-linejoin="round" stroke-width="1.0551111" clip-path="url(#inner_stroke_clip_path)"/>
        </g>
        <g id="Line_275">
          <path d="M 122.6 192.00438 C 122.6 192.00438 124.974 194.37838 124.974 194.37838" stroke="black" stroke-linecap="round" stroke-linejoin="round" stroke-width=".52755557"/>
        </g>
        <g id="Line_274">
          <path d="M 127.348 210.99638 C 127.348 210.99638 129.722 213.37038 129.722 213.37038" stroke="black" stroke-linecap="round" stroke-linejoin="round" stroke-width=".52755557"/>
        </g>
        <g id="Line_273">
          <path d="M 129.722 192.00438 C 129.722 192.00438 127.348 194.37838 127.348 194.37838" stroke="black" stroke-linecap="round" stroke-linejoin="round" stroke-width=".52755557"/>
        </g>
        <g id="Line_272">
          <path d="M 124.974 210.99638 C 124.974 210.99638 122.6 213.37038 122.6 213.37038" stroke="black" stroke-linecap="round" stroke-linejoin="round" stroke-width=".52755557"/>
        </g>
        <g id="Graphic_271">
          <rect x="139.218" y="192.00438" width="7.122" height="21.366" stroke="black" stroke-linecap="round" stroke-linejoin="round" stroke-width="1.0551111"/>
        </g>
        <g id="Graphic_270">
          <rect x="141.592" y="194.37838" width="2.374" height="16.618" fill="#FFFFFF"/>
          <rect x="141.592" y="194.37838" width="2.374" height="16.618" stroke="black" stroke-linecap="round" stroke-linejoin="round" stroke-width="1.0551111" clip-path="url(#inner_stroke_clip_path_2)"/>
        </g>
        <g id="Line_269">
          <path d="M 139.218 192.00438 C 139.218 192.00438 141.592 194.37838 141.592 194.37838" stroke="black" stroke-linecap="round" stroke-linejoin="round" stroke-width=".52755557"/>
        </g>
        <g id="Line_268">
          <path d="M 143.966 210.99638 C 143.966 210.99638 146.34 213.37038 146.34 213.37038" stroke="black" stroke-linecap="round" stroke-linejoin="round" stroke-width=".52755557"/>
        </g>
        <g id="Line_267">
          <path d="M 146.34 192.00438 C 146.34 192.00438 143.966 194.37838 143.966 194.37838" stroke="black" stroke-linecap="round" stroke-linejoin="round" stroke-width=".52755557"/>
        </g>
        <g id="Line_266">
          <path d="M 141.592 210.99638 C 141.592 210.99638 139.218 213.37038 139.218 213.37038" stroke="black" stroke-linecap="round" stroke-linejoin="round" stroke-width=".52755557"/>
        </g>
        <g id="Graphic_265">
          <rect x="155.836" y="192.00438" width="7.122" height="21.366" stroke="black" stroke-linecap="round" stroke-linejoin="round" stroke-width="1.0551111"/>
        </g>
        <g id="Graphic_264">
          <rect x="158.21" y="194.37838" width="2.374" height="16.618" fill="#FFFFFF"/>
          <rect x="158.21" y="194.37838" width="2.374" height="16.618" stroke="black" stroke-linecap="round" stroke-linejoin="round" stroke-width="1.0551111" clip-path="url(#inner_stroke_clip_path_3)"/>
        </g>
        <g id="Line_263">
          <path d="M 155.836 192.00438 C 155.836 192.00438 158.21 194.37838 158.21 194.37838" stroke="black" stroke-linecap="round" stroke-linejoin="round" stroke-width=".52755557"/>
        </g>
        <g id="Line_262">
          <path d="M 160.584 210.99638 C 160.584 210.99638 162.958 213.37038 162.958 213.37038" stroke="black" stroke-linecap="round" stroke-linejoin="round" stroke-width=".52755557"/>
        </g>
        <g id="Line_261">
          <path d="M 162.958 192.00438 C 162.958 192.00438 160.584 194.37838 160.584 194.37838" stroke="black" stroke-linecap="round" stroke-linejoin="round" stroke-width=".52755557"/>
        </g>
        <g id="Line_260">
          <path d="M 158.21 210.99638 C 158.21 210.99638 155.836 213.37038 155.836 213.37038" stroke="black" stroke-linecap="round" stroke-linejoin="round" stroke-width=".52755557"/>
        </g>
        <g id="Graphic_259">
          <rect x="184.324" y="156.39438" width="7.122" height="14.244" stroke="black" stroke-linecap="round" stroke-linejoin="round" stroke-width="1.0551111"/>
        </g>
        <g id="Graphic_258">
          <rect x="186.698" y="158.76838" width="2.374" height="9.496" fill="#FFFFFF"/>
          <rect x="186.698" y="158.76838" width="2.374" height="9.496" stroke="black" stroke-linecap="round" stroke-linejoin="round" stroke-width="1.0551111" clip-path="url(#inner_stroke_clip_path_4)"/>
        </g>
        <g id="Line_257">
          <path d="M 184.324 156.39438 C 184.324 156.39438 186.698 158.76838 186.698 158.76838" stroke="black" stroke-linecap="round" stroke-linejoin="round" stroke-width=".52755557"/>
        </g>
        <g id="Line_256">
          <path d="M 189.072 168.26438 C 189.072 168.26438 191.446 170.63838 191.446 170.63838" stroke="black" stroke-linecap="round" stroke-linejoin="round" stroke-width=".52755557"/>
        </g>
        <g id="Line_255">
          <path d="M 191.446 156.39438 C 191.446 156.39438 189.072 158.76838 189.072 158.76838" stroke="black" stroke-linecap="round" stroke-linejoin="round" stroke-width=".52755557"/>
        </g>
        <g id="Line_254">
          <path d="M 186.698 168.26438 C 186.698 168.26438 184.324 170.63838 184.324 170.63838" stroke="black" stroke-linecap="round" stroke-linejoin="round" stroke-width=".52755557"/>
        </g>
        <g id="Graphic_253">
          <rect x="205.69" y="156.39438" width="7.122" height="14.244" stroke="black" stroke-linecap="round" stroke-linejoin="round" stroke-width="1.0551111"/>
        </g>
        <g id="Graphic_252">
          <rect x="208.064" y="158.76838" width="2.374" height="9.496" fill="#FFFFFF"/>
          <rect x="208.064" y="158.76838" width="2.374" height="9.496" stroke="black" stroke-linecap="round" stroke-linejoin="round" stroke-width="1.0551111" clip-path="url(#inner_stroke_clip_path_5)"/>
        </g>
        <g id="Line_251">
          <path d="M 205.69 156.39438 C 205.69 156.39438 208.064 158.76838 208.064 158.76838" stroke="black" stroke-linecap="round" stroke-linejoin="round" stroke-width=".52755557"/>
        </g>
        <g id="Line_250">
          <path d="M 210.438 168.26438 C 210.438 168.26438 212.812 170.63838 212.812 170.63838" stroke="black" stroke-linecap="round" stroke-linejoin="round" stroke-width=".52755557"/>
        </g>
        <g id="Line_249">
          <path d="M 212.812 156.39438 C 212.812 156.39438 210.438 158.76838 210.438 158.76838" stroke="black" stroke-linecap="round" stroke-linejoin="round" stroke-width=".52755557"/>
        </g>
        <g id="Line_248">
          <path d="M 208.064 168.26438 C 208.064 168.26438 205.69 170.63838 205.69 170.63838" stroke="black" stroke-linecap="round" stroke-linejoin="round" stroke-width=".52755557"/>
        </g>
        <g id="Graphic_247">
          <rect x="227.056" y="156.39438" width="7.122" height="14.244" stroke="black" stroke-linecap="round" stroke-linejoin="round" stroke-width="1.0551111"/>
        </g>
        <g id="Graphic_246">
          <rect x="229.43" y="158.76838" width="2.374" height="9.496" fill="#FFFFFF"/>
          <rect x="229.43" y="158.76838" width="2.374" height="9.496" stroke="black" stroke-linecap="round" stroke-linejoin="round" stroke-width="1.0551111" clip-path="url(#inner_stroke_clip_path_6)"/>
        </g>
        <g id="Line_245">
          <path d="M 227.056 156.39438 C 227.056 156.39438 229.43 158.76838 229.43 158.76838" stroke="black" stroke-linecap="round" stroke-linejoin="round" stroke-width=".52755557"/>
        </g>
        <g id="Line_244">
          <path d="M 231.804 168.26438 C 231.804 168.26438 234.178 170.63838 234.178 170.63838" stroke="black" stroke-linecap="round" stroke-linejoin="round" stroke-width=".52755557"/>
        </g>
        <g id="Line_243">
          <path d="M 234.178 156.39438 C 234.178 156.39438 231.804 158.76838 231.804 158.76838" stroke="black" stroke-linecap="round" stroke-linejoin="round" stroke-width=".52755557"/>
        </g>
        <g id="Line_242">
          <path d="M 229.43 168.26438 C 229.43 168.26438 227.056 170.63838 227.056 170.63838" stroke="black" stroke-linecap="round" stroke-linejoin="round" stroke-width=".52755557"/>
        </g>
        <g id="Graphic_241">
          <rect x="184.324" y="194.37838" width="7.122" height="14.244" stroke="black" stroke-linecap="round" stroke-linejoin="round" stroke-width="1.0551111"/>
        </g>
        <g id="Graphic_240">
          <rect x="186.698" y="196.75238" width="2.374" height="9.496" fill="#FFFFFF"/>
          <rect x="186.698" y="196.75238" width="2.374" height="9.496" stroke="black" stroke-linecap="round" stroke-linejoin="round" stroke-width="1.0551111" clip-path="url(#inner_stroke_clip_path_7)"/>
        </g>
        <g id="Line_239">
          <path d="M 184.324 194.37838 C 184.324 194.37838 186.698 196.75238 186.698 196.75238" stroke="black" stroke-linecap="round" stroke-linejoin="round" stroke-width=".52755557"/>
        </g>
        <g id="Line_238">
          <path d="M 189.072 206.24838 C 189.072 206.24838 191.446 208.62238 191.446 208.62238" stroke="black" stroke-linecap="round" stroke-linejoin="round" stroke-width=".52755557"/>
        </g>
        <g id="Line_237">
          <path d="M 191.446 194.37838 C 191.446 194.37838 189.072 196.75238 189.072 196.75238" stroke="black" stroke-linecap="round" stroke-linejoin="round" stroke-width=".52755557"/>
        </g>
        <g id="Line_236">
          <path d="M 186.698 206.24838 C 186.698 206.24838 184.324 208.62238 184.324 208.62238" stroke="black" stroke-linecap="round" stroke-linejoin="round" stroke-width=".52755557"/>
        </g>
        <g id="Graphic_235">
          <rect x="227.056" y="194.37838" width="7.122" height="14.244" stroke="black" stroke-linecap="round" stroke-linejoin="round" stroke-width="1.0551111"/>
        </g>
        <g id="Graphic_234">
          <rect x="229.43" y="196.75238" width="2.374" height="9.496" fill="#FFFFFF"/>
          <rect x="229.43" y="196.75238" width="2.374" height="9.496" stroke="black" stroke-linecap="round" stroke-linejoin="round" stroke-width="1.0551111" clip-path="url(#inner_stroke_clip_path_8)"/>
        </g>
        <g id="Line_233">
          <path d="M 227.056 194.37838 C 227.056 194.37838 229.43 196.75238 229.43 196.75238" stroke="black" stroke-linecap="round" stroke-linejoin="round" stroke-width=".52755557"/>
        </g>
        <g id="Line_232">
          <path d="M 231.804 206.24838 C 231.804 206.24838 234.178 208.62238 234.178 208.62238" stroke="black" stroke-linecap="round" stroke-linejoin="round" stroke-width=".52755557"/>
        </g>
        <g id="Line_231">
          <path d="M 234.178 194.37838 C 234.178 194.37838 231.804 196.75238 231.804 196.75238" stroke="black" stroke-linecap="round" stroke-linejoin="round" stroke-width=".52755557"/>
        </g>
        <g id="Line_230">
          <path d="M 229.43 206.24838 C 229.43 206.24838 227.056 208.62238 227.056 208.62238" stroke="black" stroke-linecap="round" stroke-linejoin="round" stroke-width=".52755557"/>
        </g>
        <g id="Graphic_229">
          <rect x="75.11999" y="156.39438" width="7.122" height="14.244" stroke="black" stroke-linecap="round" stroke-linejoin="round" stroke-width="1.0551111"/>
        </g>
        <g id="Graphic_228">
          <rect x="77.49399" y="158.76838" width="2.374" height="9.496" fill="#FFFFFF"/>
          <rect x="77.49399" y="158.76838" width="2.374" height="9.496" stroke="black" stroke-linecap="round" stroke-linejoin="round" stroke-width="1.0551111" clip-path="url(#inner_stroke_clip_path_9)"/>
        </g>
        <g id="Line_227">
          <path d="M 75.11999 156.39438 C 75.11999 156.39438 77.49399 158.76838 77.49399 158.76838" stroke="black" stroke-linecap="round" stroke-linejoin="round" stroke-width=".52755557"/>
        </g>
        <g id="Line_226">
          <path d="M 79.86799 168.26438 C 79.86799 168.26438 82.24199 170.63838 82.24199 170.63838" stroke="black" stroke-linecap="round" stroke-linejoin="round" stroke-width=".52755557"/>
        </g>
        <g id="Line_225">
          <path d="M 82.24199 156.39438 C 82.24199 156.39438 79.86799 158.76838 79.86799 158.76838" stroke="black" stroke-linecap="round" stroke-linejoin="round" stroke-width=".52755557"/>
        </g>
        <g id="Line_224">
          <path d="M 77.49399 168.26438 C 77.49399 168.26438 75.11999 170.63838 75.11999 170.63838" stroke="black" stroke-linecap="round" stroke-linejoin="round" stroke-width=".52755557"/>
        </g>
        <g id="Graphic_223">
          <rect x="94.112" y="156.39438" width="7.122" height="14.244" stroke="black" stroke-linecap="round" stroke-linejoin="round" stroke-width="1.0551111"/>
        </g>
        <g id="Graphic_222">
          <rect x="96.486" y="158.76838" width="2.374" height="9.496" fill="#FFFFFF"/>
          <rect x="96.486" y="158.76838" width="2.374" height="9.496" stroke="black" stroke-linecap="round" stroke-linejoin="round" stroke-width="1.0551111" clip-path="url(#inner_stroke_clip_path_10)"/>
        </g>
        <g id="Line_221">
          <path d="M 94.112 156.39438 C 94.112 156.39438 96.486 158.76838 96.486 158.76838" stroke="black" stroke-linecap="round" stroke-linejoin="round" stroke-width=".52755557"/>
        </g>
        <g id="Line_220">
          <path d="M 98.86 168.26438 C 98.86 168.26438 101.234 170.63838 101.234 170.63838" stroke="black" stroke-linecap="round" stroke-linejoin="round" stroke-width=".52755557"/>
        </g>
        <g id="Line_219">
          <path d="M 101.234 156.39438 C 101.234 156.39438 98.86 158.76838 98.86 158.76838" stroke="black" stroke-linecap="round" stroke-linejoin="round" stroke-width=".52755557"/>
        </g>
        <g id="Line_218">
          <path d="M 96.486 168.26438 C 96.486 168.26438 94.112 170.63838 94.112 170.63838" stroke="black" stroke-linecap="round" stroke-linejoin="round" stroke-width=".52755557"/>
        </g>
        <g id="Graphic_217">
          <rect x="75.11999" y="196.75238" width="7.122" height="14.244" stroke="black" stroke-linecap="round" stroke-linejoin="round" stroke-width="1.0551111"/>
        </g>
        <g id="Graphic_216">
          <rect x="77.49399" y="199.12638" width="2.374" height="9.496" fill="#FFFFFF"/>
          <rect x="77.49399" y="199.12638" width="2.374" height="9.496" stroke="black" stroke-linecap="round" stroke-linejoin="round" stroke-width="1.0551111" clip-path="url(#inner_stroke_clip_path_11)"/>
        </g>
        <g id="Line_215">
          <path d="M 75.11999 196.75238 C 75.11999 196.75238 77.49399 199.12638 77.49399 199.12638" stroke="black" stroke-linecap="round" stroke-linejoin="round" stroke-width=".52755557"/>
        </g>
        <g id="Line_214">
          <path d="M 79.86799 208.62238 C 79.86799 208.62238 82.24199 210.99638 82.24199 210.99638" stroke="black" stroke-linecap="round" stroke-linejoin="round" stroke-width=".52755557"/>
        </g>
        <g id="Line_213">
          <path d="M 82.24199 196.75238 C 82.24199 196.75238 79.86799 199.12638 79.86799 199.12638" stroke="black" stroke-linecap="round" stroke-linejoin="round" stroke-width=".52755557"/>
        </g>
        <g id="Line_212">
          <path d="M 77.49399 208.62238 C 77.49399 208.62238 75.11999 210.99638 75.11999 210.99638" stroke="black" stroke-linecap="round" stroke-linejoin="round" stroke-width=".52755557"/>
        </g>
        <g id="Graphic_211">
          <rect x="94.112" y="196.75238" width="7.122" height="14.244" stroke="black" stroke-linecap="round" stroke-linejoin="round" stroke-width="1.0551111"/>
        </g>
        <g id="Graphic_210">
          <rect x="96.486" y="199.12638" width="2.374" height="9.496" fill="#FFFFFF"/>
          <rect x="96.486" y="199.12638" width="2.374" height="9.496" stroke="black" stroke-linecap="round" stroke-linejoin="round" stroke-width="1.0551111" clip-path="url(#inner_stroke_clip_path_12)"/>
        </g>
        <g id="Line_209">
          <path d="M 94.112 196.75238 C 94.112 196.75238 96.486 199.12638 96.486 199.12638" stroke="black" stroke-linecap="round" stroke-linejoin="round" stroke-width=".52755557"/>
        </g>
        <g id="Line_208">
          <path d="M 98.86 208.62238 C 98.86 208.62238 101.234 210.99638 101.234 210.99638" stroke="black" stroke-linecap="round" stroke-linejoin="round" stroke-width=".52755557"/>
        </g>
        <g id="Line_207">
          <path d="M 101.234 196.75238 C 101.234 196.75238 98.86 199.12638 98.86 199.12638" stroke="black" stroke-linecap="round" stroke-linejoin="round" stroke-width=".52755557"/>
        </g>
        <g id="Line_206">
          <path d="M 96.486 208.62238 C 96.486 208.62238 94.112 210.99638 94.112 210.99638" stroke="black" stroke-linecap="round" stroke-linejoin="round" stroke-width=".52755557"/>
        </g>
        <g id="Graphic_205">
          <rect x="246.048" y="177.76038" width="59.35" height="64.098" fill="#FFFFFF"/>
          <rect x="246.048" y="177.76038" width="59.35" height="64.098" stroke="black" stroke-linecap="round" stroke-linejoin="round" stroke-width="1.0551111"/>
        </g>
        <g id="Graphic_204">
          <path d="M 261.479 163.51638 L 261.479 168.26438 L 256.731 168.26438 L 256.731 163.51638 L 246.048 163.51638 L 246.048 177.76038 L 305.398 177.76038 L 305.398 163.51638 L 294.715 163.51638 L 294.715 168.26438 L 289.967 168.26438 L 289.967 163.51638 L 278.097 163.51638 L 278.097 168.26438 L 273.349 168.26438 L 273.349 163.51638 Z" fill="#FFFFFF"/>
          <path d="M 261.479 163.51638 L 261.479 168.26438 L 256.731 168.26438 L 256.731 163.51638 L 246.048 163.51638 L 246.048 177.76038 L 305.398 177.76038 L 305.398 163.51638 L 294.715 163.51638 L 294.715 168.26438 L 289.967 168.26438 L 289.967 163.51638 L 278.097 163.51638 L 278.097 168.26438 L 273.349 168.26438 L 273.349 163.51638 Z" stroke="black" stroke-linecap="round" stroke-linejoin="round" stroke-width="1.0551111"/>
        </g>
        <g id="Graphic_203">
          <rect x="255.544" y="192.00438" width="7.122" height="21.366" stroke="black" stroke-linecap="round" stroke-linejoin="round" stroke-width="1.0551111"/>
        </g>
        <g id="Graphic_202">
          <rect x="257.918" y="194.37838" width="2.374" height="16.618" fill="#FFFFFF"/>
          <rect x="257.918" y="194.37838" width="2.374" height="16.618" stroke="black" stroke-linecap="round" stroke-linejoin="round" stroke-width="1.0551111" clip-path="url(#inner_stroke_clip_path_13)"/>
        </g>
        <g id="Line_201">
          <path d="M 255.544 192.00438 C 255.544 192.00438 257.918 194.37838 257.918 194.37838" stroke="black" stroke-linecap="round" stroke-linejoin="round" stroke-width=".52755557"/>
        </g>
        <g id="Line_200">
          <path d="M 260.292 210.99638 C 260.292 210.99638 262.666 213.37038 262.666 213.37038" stroke="black" stroke-linecap="round" stroke-linejoin="round" stroke-width=".52755557"/>
        </g>
        <g id="Line_199">
          <path d="M 262.666 192.00438 C 262.666 192.00438 260.292 194.37838 260.292 194.37838" stroke="black" stroke-linecap="round" stroke-linejoin="round" stroke-width=".52755557"/>
        </g>
        <g id="Line_198">
          <path d="M 257.918 210.99638 C 257.918 210.99638 255.544 213.37038 255.544 213.37038" stroke="black" stroke-linecap="round" stroke-linejoin="round" stroke-width=".52755557"/>
        </g>
        <g id="Graphic_197">
          <rect x="272.162" y="192.00438" width="7.122" height="21.366" stroke="black" stroke-linecap="round" stroke-linejoin="round" stroke-width="1.0551111"/>
        </g>
        <g id="Graphic_196">
          <rect x="274.536" y="194.37838" width="2.374" height="16.618" fill="#FFFFFF"/>
          <rect x="274.536" y="194.37838" width="2.374" height="16.618" stroke="black" stroke-linecap="round" stroke-linejoin="round" stroke-width="1.0551111" clip-path="url(#inner_stroke_clip_path_14)"/>
        </g>
        <g id="Line_195">
          <path d="M 272.162 192.00438 C 272.162 192.00438 274.536 194.37838 274.536 194.37838" stroke="black" stroke-linecap="round" stroke-linejoin="round" stroke-width=".52755557"/>
        </g>
        <g id="Line_194">
          <path d="M 276.91 210.99638 C 276.91 210.99638 279.284 213.37038 279.284 213.37038" stroke="black" stroke-linecap="round" stroke-linejoin="round" stroke-width=".52755557"/>
        </g>
        <g id="Line_193">
          <path d="M 279.284 192.00438 C 279.284 192.00438 276.91 194.37838 276.91 194.37838" stroke="black" stroke-linecap="round" stroke-linejoin="round" stroke-width=".52755557"/>
        </g>
        <g id="Line_192">
          <path d="M 274.536 210.99638 C 274.536 210.99638 272.162 213.37038 272.162 213.37038" stroke="black" stroke-linecap="round" stroke-linejoin="round" stroke-width=".52755557"/>
        </g>
        <g id="Graphic_191">
          <rect x="288.78" y="192.00438" width="7.122" height="21.366" stroke="black" stroke-linecap="round" stroke-linejoin="round" stroke-width="1.0551111"/>
        </g>
        <g id="Graphic_190">
          <rect x="291.154" y="194.37838" width="2.374" height="16.618" fill="#FFFFFF"/>
          <rect x="291.154" y="194.37838" width="2.374" height="16.618" stroke="black" stroke-linecap="round" stroke-linejoin="round" stroke-width="1.0551111" clip-path="url(#inner_stroke_clip_path_15)"/>
        </g>
        <g id="Line_189">
          <path d="M 288.78 192.00438 C 288.78 192.00438 291.154 194.37838 291.154 194.37838" stroke="black" stroke-linecap="round" stroke-linejoin="round" stroke-width=".52755557"/>
        </g>
        <g id="Line_188">
          <path d="M 293.528 210.99638 C 293.528 210.99638 295.902 213.37038 295.902 213.37038" stroke="black" stroke-linecap="round" stroke-linejoin="round" stroke-width=".52755557"/>
        </g>
        <g id="Line_187">
          <path d="M 295.902 192.00438 C 295.902 192.00438 293.528 194.37838 293.528 194.37838" stroke="black" stroke-linecap="round" stroke-linejoin="round" stroke-width=".52755557"/>
        </g>
        <g id="Line_186">
          <path d="M 291.154 210.99638 C 291.154 210.99638 288.78 213.37038 288.78 213.37038" stroke="black" stroke-linecap="round" stroke-linejoin="round" stroke-width=".52755557"/>
        </g>
        <g id="Line_185">
          <path d="M 167.706 149.27238 C 167.706 149.27238 165.49469 144.52438 209.33234 144.52438 C 253.17 144.52438 250.2411 149.23647 250.796 149.27238" stroke="black" stroke-linecap="round" stroke-linejoin="round" stroke-width=".52755557"/>
        </g>
        <g id="Line_184">
          <path d="M 60.210184 151.5026 C 60.210184 151.5026 59.41631 147.39296 88.22727 147.39296 C 117.03823 147.39296 115.77275 151.479 116.13744 151.5026" stroke="black" stroke-linecap="round" stroke-linejoin="round" stroke-width=".52755557"/>
        </g>
        <g id="Graphic_183">
          <path d="M 311.87838 133.24808 C 300.65 134.1769 300.65 135.85519 300.65 135.85519 L 302.25405 151.823 C 302.25405 151.823 302.5457 153.42705 329.52297 153.42705 C 356.50025 153.42705 358.39595 151.823 358.39595 151.823 L 360 135.85519 C 360 135.85519 360 134.1769 348.77162 133.24808 L 348.77162 142.2714 L 345.5635 142.2714 L 345.5635 133.02339 C 342.15443 132.82328 337.94032 132.68658 332.7311 132.65438 L 332.7311 140.66735 L 327.9189 140.66735 L 327.9189 132.65438 C 322.70967 132.68658 318.49556 132.82328 315.0865 133.02339 L 315.0865 142.2714 L 311.87838 142.2714 Z" fill="#FFFFFF"/>
          <path d="M 311.87838 133.24808 C 300.65 134.1769 300.65 135.85519 300.65 135.85519 L 302.25405 151.823 C 302.25405 151.823 302.5457 153.42705 329.52297 153.42705 C 356.50025 153.42705 358.39595 151.823 358.39595 151.823 L 360 135.85519 C 360 135.85519 360 134.1769 348.77162 133.24808 L 348.77162 142.2714 L 345.5635 142.2714 L 345.5635 133.02339 C 342.15443 132.82328 337.94032 132.68658 332.7311 132.65438 L 332.7311 140.66735 L 327.9189 140.66735 L 327.9189 132.65438 C 322.70967 132.68658 318.49556 132.82328 315.0865 133.02339 L 315.0865 142.2714 L 311.87838 142.2714 Z" stroke="black" stroke-linecap="round" stroke-linejoin="round" stroke-width="1.0551111"/>
        </g>
        <g id="Graphic_182">
          <path d="M 305.398 151.58985 C 305.398 151.58985 305.398 149.27238 330.325 149.27238 C 355.252 149.27238 355.252 151.58985 355.252 151.58985 L 355.252 244.2889 C 355.252 244.2889 352.9859 246.60638 330.325 246.60638 C 307.6641 246.60638 305.398 244.2889 305.398 244.2889 Z" fill="#FFFFFF"/>
          <path d="M 305.398 151.58985 C 305.398 151.58985 305.398 149.27238 330.325 149.27238 C 355.252 149.27238 355.252 151.58985 355.252 151.58985 L 355.252 244.2889 C 355.252 244.2889 352.9859 246.60638 330.325 246.60638 C 307.6641 246.60638 305.398 244.2889 305.398 244.2889 Z" stroke="black" stroke-linecap="round" stroke-linejoin="round" stroke-width="1.0551111"/>
        </g>
        <g id="Graphic_181">
          <rect x="317.268" y="156.39438" width="7.122" height="14.244" stroke="black" stroke-linecap="round" stroke-linejoin="round" stroke-width="1.0551111"/>
        </g>
        <g id="Graphic_180">
          <rect x="319.642" y="158.76838" width="2.374" height="9.496" fill="#FFFFFF"/>
          <rect x="319.642" y="158.76838" width="2.374" height="9.496" stroke="black" stroke-linecap="round" stroke-linejoin="round" stroke-width="1.0551111" clip-path="url(#inner_stroke_clip_path_16)"/>
        </g>
        <g id="Line_179">
          <path d="M 317.268 156.39438 C 317.268 156.39438 319.642 158.76838 319.642 158.76838" stroke="black" stroke-linecap="round" stroke-linejoin="round" stroke-width=".52755557"/>
        </g>
        <g id="Line_178">
          <path d="M 322.016 168.26438 C 322.016 168.26438 324.39 170.63838 324.39 170.63838" stroke="black" stroke-linecap="round" stroke-linejoin="round" stroke-width=".52755557"/>
        </g>
        <g id="Line_177">
          <path d="M 324.39 156.39438 C 324.39 156.39438 322.016 158.76838 322.016 158.76838" stroke="black" stroke-linecap="round" stroke-linejoin="round" stroke-width=".52755557"/>
        </g>
        <g id="Line_176">
          <path d="M 319.642 168.26438 C 319.642 168.26438 317.268 170.63838 317.268 170.63838" stroke="black" stroke-linecap="round" stroke-linejoin="round" stroke-width=".52755557"/>
        </g>
        <g id="Graphic_175">
          <rect x="336.26" y="156.39438" width="7.122" height="14.244" stroke="black" stroke-linecap="round" stroke-linejoin="round" stroke-width="1.0551111"/>
        </g>
        <g id="Graphic_174">
          <rect x="338.634" y="158.76838" width="2.374" height="9.496" fill="#FFFFFF"/>
          <rect x="338.634" y="158.76838" width="2.374" height="9.496" stroke="black" stroke-linecap="round" stroke-linejoin="round" stroke-width="1.0551111" clip-path="url(#inner_stroke_clip_path_17)"/>
        </g>
        <g id="Line_173">
          <path d="M 336.26 156.39438 C 336.26 156.39438 338.634 158.76838 338.634 158.76838" stroke="black" stroke-linecap="round" stroke-linejoin="round" stroke-width=".52755557"/>
        </g>
        <g id="Line_172">
          <path d="M 341.008 168.26438 C 341.008 168.26438 343.382 170.63838 343.382 170.63838" stroke="black" stroke-linecap="round" stroke-linejoin="round" stroke-width=".52755557"/>
        </g>
        <g id="Line_171">
          <path d="M 343.382 156.39438 C 343.382 156.39438 341.008 158.76838 341.008 158.76838" stroke="black" stroke-linecap="round" stroke-linejoin="round" stroke-width=".52755557"/>
        </g>
        <g id="Line_170">
          <path d="M 338.634 168.26438 C 338.634 168.26438 336.26 170.63838 336.26 170.63838" stroke="black" stroke-linecap="round" stroke-linejoin="round" stroke-width=".52755557"/>
        </g>
        <g id="Graphic_169">
          <rect x="317.268" y="196.75238" width="7.122" height="14.244" stroke="black" stroke-linecap="round" stroke-linejoin="round" stroke-width="1.0551111"/>
        </g>
        <g id="Graphic_168">
          <rect x="319.642" y="199.12638" width="2.374" height="9.496" fill="#FFFFFF"/>
          <rect x="319.642" y="199.12638" width="2.374" height="9.496" stroke="black" stroke-linecap="round" stroke-linejoin="round" stroke-width="1.0551111" clip-path="url(#inner_stroke_clip_path_18)"/>
        </g>
        <g id="Line_167">
          <path d="M 317.268 196.75238 C 317.268 196.75238 319.642 199.12638 319.642 199.12638" stroke="black" stroke-linecap="round" stroke-linejoin="round" stroke-width=".52755557"/>
        </g>
        <g id="Line_166">
          <path d="M 322.016 208.62238 C 322.016 208.62238 324.39 210.99638 324.39 210.99638" stroke="black" stroke-linecap="round" stroke-linejoin="round" stroke-width=".52755557"/>
        </g>
        <g id="Line_165">
          <path d="M 324.39 196.75238 C 324.39 196.75238 322.016 199.12638 322.016 199.12638" stroke="black" stroke-linecap="round" stroke-linejoin="round" stroke-width=".52755557"/>
        </g>
        <g id="Line_164">
          <path d="M 319.642 208.62238 C 319.642 208.62238 317.268 210.99638 317.268 210.99638" stroke="black" stroke-linecap="round" stroke-linejoin="round" stroke-width=".52755557"/>
        </g>
        <g id="Graphic_163">
          <rect x="336.26" y="196.75238" width="7.122" height="14.244" stroke="black" stroke-linecap="round" stroke-linejoin="round" stroke-width="1.0551111"/>
        </g>
        <g id="Graphic_162">
          <rect x="338.634" y="199.12638" width="2.374" height="9.496" fill="#FFFFFF"/>
          <rect x="338.634" y="199.12638" width="2.374" height="9.496" stroke="black" stroke-linecap="round" stroke-linejoin="round" stroke-width="1.0551111" clip-path="url(#inner_stroke_clip_path_19)"/>
        </g>
        <g id="Line_161">
          <path d="M 336.26 196.75238 C 336.26 196.75238 338.634 199.12638 338.634 199.12638" stroke="black" stroke-linecap="round" stroke-linejoin="round" stroke-width=".52755557"/>
        </g>
        <g id="Line_160">
          <path d="M 341.008 208.62238 C 341.008 208.62238 343.382 210.99638 343.382 210.99638" stroke="black" stroke-linecap="round" stroke-linejoin="round" stroke-width=".52755557"/>
        </g>
        <g id="Line_159">
          <path d="M 343.382 196.75238 C 343.382 196.75238 341.008 199.12638 341.008 199.12638" stroke="black" stroke-linecap="round" stroke-linejoin="round" stroke-width=".52755557"/>
        </g>
        <g id="Line_158">
          <path d="M 338.634 208.62238 C 338.634 208.62238 336.26 210.99638 336.26 210.99638" stroke="black" stroke-linecap="round" stroke-linejoin="round" stroke-width=".52755557"/>
        </g>
        <g id="Line_157">
          <path d="M 302.3582 151.5026 C 302.3582 151.5026 301.5643 147.39296 330.37528 147.39296 C 359.18624 147.39296 357.92075 151.479 358.28544 151.5026" stroke="black" stroke-linecap="round" stroke-linejoin="round" stroke-width=".52755557"/>
        </g>
        <g id="Line_156">
          <path d="M 209.251 206.24838 C 209.251 206.24838 209.251 218.11838 209.251 218.11838" stroke="black" stroke-linecap="round" stroke-linejoin="round" stroke-width=".52755557"/>
        </g>
        <g id="Line_155">
          <path d="M 201.54606 210.41344 C 201.54606 210.41344 209.251 218.11838 209.251 218.11838" stroke="black" stroke-linecap="round" stroke-linejoin="round" stroke-width=".52755557"/>
        </g>
        <g id="Line_154">
          <path d="M 205.2528 207.74798 C 205.2528 207.74798 209.251 218.11838 209.251 218.11838" stroke="black" stroke-linecap="round" stroke-linejoin="round" stroke-width=".52755557"/>
        </g>
        <g id="Line_153">
          <path d="M 199.15093 213.66185 C 199.15093 213.66185 209.251 218.11838 209.251 218.11838" stroke="black" stroke-linecap="round" stroke-linejoin="round" stroke-width=".52755557"/>
        </g>
        <g id="Line_152">
          <path d="M 198.568 218.11838 C 198.568 218.11838 203.316 218.11838 203.316 218.11838" stroke="black" stroke-linecap="round" stroke-linejoin="round" stroke-width=".52755557"/>
        </g>
        <g id="Line_151">
          <path d="M 198.568 222.86638 C 198.568 222.86638 203.316 222.86638 203.316 222.86638" stroke="black" stroke-linecap="round" stroke-linejoin="round" stroke-width=".52755557"/>
        </g>
        <g id="Line_150">
          <path d="M 198.568 227.61438 C 198.568 227.61438 203.316 227.61438 203.316 227.61438" stroke="black" stroke-linecap="round" stroke-linejoin="round" stroke-width=".52755557"/>
        </g>
        <g id="Line_149">
          <path d="M 198.568 232.36238 C 198.568 232.36238 203.316 232.36238 203.316 232.36238" stroke="black" stroke-linecap="round" stroke-linejoin="round" stroke-width=".52755557"/>
        </g>
        <g id="Line_148">
          <path d="M 198.568 237.11038 C 198.568 237.11038 203.316 237.11038 203.316 237.11038" stroke="black" stroke-linecap="round" stroke-linejoin="round" stroke-width=".52755557"/>
        </g>
        <g id="Line_147">
          <path d="M 198.568 241.85838 C 198.568 241.85838 203.316 241.85838 203.316 241.85838" stroke="black" stroke-linecap="round" stroke-linejoin="round" stroke-width=".52755557"/>
        </g>
        <g id="Graphic_146">
          <path d="M 215.186 218.11838 C 215.186 214.185 212.5288 210.99638 209.251 210.99638 C 205.9732 210.99638 203.316 214.185 203.316 218.11838 L 203.316 246.60638 L 215.186 246.60638 Z" fill="#FFFFFF"/>
          <path d="M 215.186 218.11838 C 215.186 214.185 212.5288 210.99638 209.251 210.99638 C 205.9732 210.99638 203.316 214.185 203.316 218.11838 L 203.316 246.60638 L 215.186 246.60638 Z" stroke="black" stroke-linecap="round" stroke-linejoin="round" stroke-width="1.0551111"/>
        </g>
      </g>
    </g>
  </g>
</svg>
