<?xml version="1.0" encoding="UTF-8" standalone="no"?>
<!DOCTYPE svg PUBLIC "-//W3C//DTD SVG 1.1//EN" "http://www.w3.org/Graphics/SVG/1.1/DTD/svg11.dtd">
<svg xmlns:xl="http://www.w3.org/1999/xlink" xmlns="http://www.w3.org/2000/svg" xmlns:dc="http://purl.org/dc/elements/1.1/" version="1.1" viewBox="85.5 62.688685 193.5 319.8113" width="193.5" height="319.8113">
  <defs>
    <clipPath id="artboard_clip_path">
      <path d="M 85.5 62.688685 L 279 62.688685 L 279 382.5 L 85.5 382.5 Z"/>
    </clipPath>
  </defs>
  <g id="Chalice_(1)" stroke="none" stroke-opacity="1" fill-opacity="1" stroke-dasharray="none" fill="none">
    <title>Chalice (1)</title>
    <g id="Chalice_(1)_Layer_2" clip-path="url(#artboard_clip_path)">
      <title>Layer 2</title>
      <g id="Group_3">
        <g id="Graphic_14">
          <ellipse cx="182.3575" cy="375.49766" rx="67.682777104463" ry="4.59668919995856" fill="#FFFFFF"/>
          <ellipse cx="182.3575" cy="375.49766" rx="67.682777104463" ry="4.59668919995856" stroke="black" stroke-linecap="round" stroke-linejoin="round" stroke-width="2"/>
        </g>
        <g id="Graphic_13">
          <path d="M 210.4679 327.15765 L 210.4679 327.07077 C 203.1581 316.61625 203.1581 302.2254 210.4679 291.77087 L 210.4679 290.6197 L 154.46208 290.6197 L 154.46208 291.44877 C 161.9433 301.85004 162.07413 316.29112 154.85457 326.8337 C 148.45193 329.30945 142.45176 332.70224 137.1522 337.01206 C 124.80009 347.0572 118.57376 360.19753 118.47321 373.36306 L 119.07443 373.36306 C 116.43632 374.1557 122.46224 374.98846 137.1522 375.5979 C 162.05903 376.6312 202.44097 376.6312 227.3478 375.5979 C 242.0377 374.98846 248.06364 374.1557 245.4256 373.36307 L 245.4256 373.36307 L 246.0268 373.36307 C 245.92624 360.19753 239.6999 347.0572 227.3478 337.01206 C 222.2758 332.8873 216.56203 329.6025 210.4679 327.15765 Z" fill="#FFFFFF"/>
          <path d="M 210.4679 327.15765 L 210.4679 327.07077 C 203.1581 316.61625 203.1581 302.2254 210.4679 291.77087 L 210.4679 290.6197 L 154.46208 290.6197 L 154.46208 291.44877 C 161.9433 301.85004 162.07413 316.29112 154.85457 326.8337 C 148.45193 329.30945 142.45176 332.70224 137.1522 337.01206 C 124.80009 347.0572 118.57376 360.19753 118.47321 373.36306 L 119.07443 373.36306 C 116.43632 374.1557 122.46224 374.98846 137.1522 375.5979 C 162.05903 376.6312 202.44097 376.6312 227.3478 375.5979 C 242.0377 374.98846 248.06364 374.1557 245.4256 373.36307 L 245.4256 373.36307 L 246.0268 373.36307 C 245.92624 360.19753 239.6999 347.0572 227.3478 337.01206 C 222.2758 332.8873 216.56203 329.6025 210.4679 327.15765 Z" stroke="black" stroke-linecap="round" stroke-linejoin="round" stroke-width="2"/>
        </g>
        <g id="Graphic_12">
          <path d="M 150.04127 258.69075 L 150.04127 258.69075 C 143.76302 258.69075 138.67349 263.78028 138.67349 270.05853 C 138.67349 276.3368 143.76302 281.42632 150.04127 281.42632 L 214.45873 281.42632 C 220.73698 281.42632 225.8265 276.3368 225.8265 270.05853 C 225.8265 263.78028 220.73698 258.69075 214.45873 258.69075 Z" fill="#FFFFFF"/>
          <path d="M 150.04127 258.69075 L 150.04127 258.69075 C 143.76302 258.69075 138.67349 263.78028 138.67349 270.05853 C 138.67349 276.3368 143.76302 281.42632 150.04127 281.42632 L 214.45873 281.42632 C 220.73698 281.42632 225.8265 276.3368 225.8265 270.05853 C 225.8265 263.78028 220.73698 258.69075 214.45873 258.69075 Z" stroke="black" stroke-linecap="round" stroke-linejoin="round" stroke-width="2"/>
        </g>
        <g id="Graphic_11">
          <path d="M 155.2695 258.69075 L 209.4455 258.69075 C 211.98417 258.69075 214.04218 256.63274 214.04218 254.09407 C 214.04218 251.5554 211.98417 249.49738 209.4455 249.49738 L 155.2695 249.49738 C 152.73082 249.49738 150.67282 251.5554 150.67282 254.09407 C 150.67282 256.63274 152.73082 258.69075 155.2695 258.69075 Z" fill="#FFFFFF"/>
          <path d="M 155.2695 258.69075 L 209.4455 258.69075 C 211.98417 258.69075 214.04218 256.63274 214.04218 254.09407 C 214.04218 251.5554 211.98417 249.49738 209.4455 249.49738 L 155.2695 249.49738 C 152.73082 249.49738 150.67282 251.5554 150.67282 254.09407 C 150.67282 256.63274 152.73082 258.69075 155.2695 258.69075 Z" stroke="black" stroke-linecap="round" stroke-linejoin="round" stroke-width="2"/>
        </g>
        <g id="Graphic_10">
          <path d="M 155.2695 290.6197 L 209.4455 290.6197 C 211.98417 290.6197 214.04218 288.56168 214.04218 286.023 C 214.04218 283.48432 211.98417 281.42632 209.4455 281.42632 L 155.2695 281.42632 C 152.73082 281.42632 150.67282 283.48432 150.67282 286.023 C 150.67282 288.56168 152.73082 290.6197 155.2695 290.6197 Z" fill="#FFFFFF"/>
          <path d="M 155.2695 290.6197 L 209.4455 290.6197 C 211.98417 290.6197 214.04218 288.56168 214.04218 286.023 C 214.04218 283.48432 211.98417 281.42632 209.4455 281.42632 L 155.2695 281.42632 C 152.73082 281.42632 150.67282 283.48432 150.67282 286.023 C 150.67282 288.56168 152.73082 290.6197 155.2695 290.6197 Z" stroke="black" stroke-linecap="round" stroke-linejoin="round" stroke-width="2"/>
        </g>
        <g id="Graphic_9">
          <path d="M 154.46208 248.0781 L 154.46208 249.49738 L 210.4679 249.49738 L 210.4679 247.66694 C 203.1581 234.3223 203.1581 215.95313 210.4679 202.6085 L 210.4679 201.13905 L 154.46208 201.13905 L 154.46208 202.19734 C 162.07645 215.71032 162.07645 234.5651 154.46208 248.0781 Z" fill="#FFFFFF"/>
          <path d="M 154.46208 248.0781 L 154.46208 249.49738 L 210.4679 249.49738 L 210.4679 247.66694 C 203.1581 234.3223 203.1581 215.95313 210.4679 202.6085 L 210.4679 201.13905 L 154.46208 201.13905 L 154.46208 202.19734 C 162.07645 215.71032 162.07645 234.5651 154.46208 248.0781 Z" stroke="black" stroke-linecap="round" stroke-linejoin="round" stroke-width="2"/>
        </g>
        <g id="Graphic_8">
          <path d="M 90.04637 73.30443 C 90.19174 107.24789 99.1933 141.1264 117.05103 167.0248 C 153.05944 219.247 211.44056 219.247 247.44897 167.0248 C 265.3067 141.12639 274.30826 107.24788 274.45363 73.30441 Z" fill="#FFFFFF"/>
          <path d="M 90.04637 73.30443 C 90.19174 107.24789 99.1933 141.1264 117.05103 167.0248 C 153.05944 219.247 211.44056 219.247 247.44897 167.0248 C 265.3067 141.12639 274.30826 107.24788 274.45363 73.30441 Z" stroke="black" stroke-linecap="round" stroke-linejoin="round" stroke-width="2"/>
        </g>
        <g id="Graphic_7">
          <ellipse cx="182.25" cy="72.67287" rx="92.2055224321671" ry="7.5785360903151" fill="#FFFFFF"/>
          <ellipse cx="182.25" cy="72.67287" rx="92.2055224321671" ry="7.5785360903151" stroke="black" stroke-linecap="round" stroke-linejoin="round" stroke-width="2"/>
        </g>
        <g id="Graphic_6">
          <path d="M 182.25 75.83953 L 93.65874 74.68626 C 100.00946 71.390624 132.49993 68.85646 172.87426 68.50768 L 182.25 75.83953 Z" stroke="black" stroke-linecap="round" stroke-linejoin="round" stroke-width="1"/>
        </g>
        <g id="Graphic_5">
          <path d="M 182.50807 79.038905 L 101.95149 76.36381 C 112.16988 74.28507 133.67288 72.72143 160.02107 72.14116 L 182.50807 79.038905 Z" stroke="black" stroke-linecap="round" stroke-linejoin="round" stroke-width="1"/>
        </g>
        <g id="Graphic_4">
          <path d="M 185.95027 82.45357 L 119.39398 77.86338 C 128.5369 76.96781 140.21516 76.27043 153.4033 75.832485 L 185.95027 82.45357 Z" stroke="black" stroke-linecap="round" stroke-linejoin="round" stroke-width="1"/>
        </g>
      </g>
    </g>
  </g>
</svg>
