<?xml version="1.0" encoding="UTF-8" standalone="no"?>
<!DOCTYPE svg PUBLIC "-//W3C//DTD SVG 1.1//EN" "http://www.w3.org/Graphics/SVG/1.1/DTD/svg11.dtd">
<svg xmlns="http://www.w3.org/2000/svg" xmlns:dc="http://purl.org/dc/elements/1.1/" version="1.1" xmlns:xl="http://www.w3.org/1999/xlink" viewBox="81 67.5 202.5 283.5" width="202.5" height="283.5">
  <defs>
    <clipPath id="artboard_clip_path">
      <path d="M 81 67.5 L 283.5 67.5 L 283.5 340.26136 L 271.99432 351 L 81 351 Z"/>
    </clipPath>
  </defs>
  <g id="Cicada_(3)" fill-opacity="1" stroke="none" stroke-dasharray="none" stroke-opacity="1" fill="none">
    <title>Cicada (3)</title>
    <g id="Cicada_(3)_Art" clip-path="url(#artboard_clip_path)">
      <title>Art</title>
      <g id="Group_113">
        <g id="Graphic_166">
          <path d="M 158.66203 257.6618 C 171.25975 296.8549 191.68467 296.8549 204.28239 257.6618 C 208.50276 244.53182 234.25118 150.32453 216.95472 115.7318 C 197.35826 76.53868 165.58615 76.53868 145.9897 115.7318 C 128.69324 150.32453 154.44166 244.53182 158.66203 257.6618 Z" fill="#FFFFFF"/>
          <path d="M 158.66203 257.6618 C 171.25975 296.8549 191.68467 296.8549 204.28239 257.6618 C 208.50276 244.53182 234.25118 150.32453 216.95472 115.7318 C 197.35826 76.53868 165.58615 76.53868 145.9897 115.7318 C 128.69324 150.32453 154.44166 244.53182 158.66203 257.6618 Z" stroke="black" stroke-linecap="round" stroke-linejoin="round" stroke-width="1"/>
        </g>
        <g id="Group_159">
          <g id="Line_165">
            <path d="M 142.21987 125.76416 C 142.21987 125.76416 160.14126 134.72485 181.64692 134.72485 C 203.15258 134.72485 221.07397 125.76416 221.07397 125.76416" stroke="black" stroke-linecap="round" stroke-linejoin="round" stroke-width="1"/>
          </g>
          <g id="Line_164">
            <path d="M 140.42773 144.76083 C 140.42773 144.76083 160.14126 153.72152 181.64692 153.72152 C 203.15258 153.72152 222.8661 144.76083 222.8661 144.76083" stroke="black" stroke-linecap="round" stroke-linejoin="round" stroke-width="1"/>
          </g>
          <g id="Line_163">
            <path d="M 142.21987 172.7182 C 142.21987 172.7182 160.14126 181.67888 181.64692 181.67888 C 203.15258 181.67888 221.07397 172.7182 221.07397 172.7182" stroke="black" stroke-linecap="round" stroke-linejoin="round" stroke-width="1"/>
          </g>
          <g id="Line_162">
            <path d="M 145.80415 200.67555 C 145.80415 200.67555 162.09632 209.63625 181.64692 209.63625 C 201.19752 209.63625 217.4897 200.67555 217.4897 200.67555" stroke="black" stroke-linecap="round" stroke-linejoin="round" stroke-width="1"/>
          </g>
          <g id="Line_161">
            <path d="M 151.18056 228.63292 C 151.18056 228.63292 165.0289 237.5936 181.64692 237.5936 C 198.26493 237.5936 212.11328 228.63292 212.11328 228.63292" stroke="black" stroke-linecap="round" stroke-linejoin="round" stroke-width="1"/>
          </g>
          <g id="Line_160">
            <path d="M 158.34912 256.59028 C 158.34912 256.59028 168.93903 265.55097 181.64692 265.55097 C 194.35481 265.55097 204.94472 256.59028 204.94472 256.59028" stroke="black" stroke-linecap="round" stroke-linejoin="round" stroke-width="1"/>
          </g>
        </g>
        <g id="Graphic_158">
          <path d="M 222.6648 126.45858 C 228.03794 126.64621 295.96693 286.82267 267.47506 332.4517 C 238.9832 378.08077 191.6484 295.7324 190.31791 231.12963 C 188.98743 166.52685 217.29166 126.27094 222.6648 126.45858 Z" fill="#FFFFFF"/>
          <path d="M 222.6648 126.45858 C 228.03794 126.64621 295.96693 286.82267 267.47506 332.4517 C 238.9832 378.08077 191.6484 295.7324 190.31791 231.12963 C 188.98743 166.52685 217.29166 126.27094 222.6648 126.45858 Z" stroke="black" stroke-linecap="round" stroke-linejoin="round" stroke-width="1"/>
        </g>
        <g id="Graphic_157">
          <path d="M 142.13964 126.66054 C 136.76405 126.75437 66.04994 285.7209 93.74113 331.84027 C 121.43232 377.9596 170.1971 296.4499 172.65485 231.88018 C 175.1126 167.31046 147.51524 126.56671 142.13964 126.66054 Z" fill="#FFFFFF"/>
          <path d="M 142.13964 126.66054 C 136.76405 126.75437 66.04994 285.7209 93.74113 331.84027 C 121.43232 377.9596 170.1971 296.4499 172.65485 231.88018 C 175.1126 167.31046 147.51524 126.56671 142.13964 126.66054 Z" stroke="black" stroke-linecap="round" stroke-linejoin="round" stroke-width="1"/>
        </g>
        <g id="Graphic_156">
          <path d="M 174.16137 73.31922 C 174.15115 73.328635 174.141 73.33819 174.13095 73.34789 C 171.44133 70.965665 168.0727 71.74115 165.82516 75.67435 C 163.02566 80.57347 163.02566 88.51649 165.82516 93.4156 C 172.68623 91.71352 185.2312 91.71352 193.8844 93.4156 C 196.68391 88.51649 196.68391 80.57347 193.8844 75.67435 C 191.63688 71.74115 188.26824 70.965665 185.57862 73.34789 C 185.56856 73.33819 185.55842 73.32864 185.5482 73.31922 C 184.86345 73.94979 183.80682 73.94979 183.12206 73.31922 C 183.11184 73.328635 183.1017 73.33819 183.09164 73.34789 C 181.06256 71.550705 178.64701 71.550704 176.61793 73.34789 L 176.61793 73.34789 C 176.60787 73.33819 176.59773 73.328635 176.5875 73.31922 C 175.90275 73.94979 174.84612 73.94979 174.16137 73.31922 Z" fill="#FFFFFF"/>
          <path d="M 174.16137 73.31922 C 174.15115 73.328635 174.141 73.33819 174.13095 73.34789 C 171.44133 70.965665 168.0727 71.74115 165.82516 75.67435 C 163.02566 80.57347 163.02566 88.51649 165.82516 93.4156 C 172.68623 91.71352 185.2312 91.71352 193.8844 93.4156 C 196.68391 88.51649 196.68391 80.57347 193.8844 75.67435 C 191.63688 71.74115 188.26824 70.965665 185.57862 73.34789 C 185.56856 73.33819 185.55842 73.32864 185.5482 73.31922 C 184.86345 73.94979 183.80682 73.94979 183.12206 73.31922 C 183.11184 73.328635 183.1017 73.33819 183.09164 73.34789 C 181.06256 71.550705 178.64701 71.550704 176.61793 73.34789 L 176.61793 73.34789 C 176.60787 73.33819 176.59773 73.328635 176.5875 73.31922 C 175.90275 73.94979 174.84612 73.94979 174.16137 73.31922 Z" stroke="black" stroke-linecap="round" stroke-linejoin="round" stroke-width="1"/>
        </g>
        <g id="Group_153">
          <g id="Graphic_155">
            <circle cx="165.51767" cy="86.33711" r="7.16856595904679" fill="#FFFFFF"/>
            <circle cx="165.51767" cy="86.33711" r="7.16856595904679" stroke="black" stroke-linecap="round" stroke-linejoin="round" stroke-width="1"/>
          </g>
          <g id="Graphic_154">
            <path d="M 168.75493 79.93897 C 166.72563 78.91174 164.30972 78.91174 162.28042 79.93897 C 162.45145 80.11865 162.68572 80.28704 162.9832 80.43579 C 164.38296 81.13566 166.6524 81.13566 168.05214 80.43579 C 168.34963 80.28704 168.5839 80.11865 168.75493 79.938975 Z" fill="#FFFFFF"/>
            <path d="M 168.75493 79.93897 C 166.72563 78.91174 164.30972 78.91174 162.28042 79.93897 C 162.45145 80.11865 162.68572 80.28704 162.9832 80.43579 C 164.38296 81.13566 166.6524 81.13566 168.05214 80.43579 C 168.34963 80.28704 168.5839 80.11865 168.75493 79.938975 Z" stroke="black" stroke-linecap="round" stroke-linejoin="round" stroke-width="1"/>
          </g>
        </g>
        <g id="Group_150">
          <g id="Graphic_152">
            <circle cx="194.1919" cy="86.33711" r="7.16856595904678" fill="#FFFFFF"/>
            <circle cx="194.1919" cy="86.33711" r="7.16856595904678" stroke="black" stroke-linecap="round" stroke-linejoin="round" stroke-width="1"/>
          </g>
          <g id="Graphic_151">
            <path d="M 197.42915 79.93897 C 195.39985 78.91174 192.98393 78.91174 190.95463 79.93897 C 191.12567 80.11865 191.35994 80.28704 191.65743 80.43579 C 193.05717 81.13566 195.3266 81.13566 196.72635 80.43579 C 197.02385 80.28704 197.2581 80.11865 197.42915 79.938975 Z" fill="#FFFFFF"/>
            <path d="M 197.42915 79.93897 C 195.39985 78.91174 192.98393 78.91174 190.95463 79.93897 C 191.12567 80.11865 191.35994 80.28704 191.65743 80.43579 C 193.05717 81.13566 195.3266 81.13566 196.72635 80.43579 C 197.02385 80.28704 197.2581 80.11865 197.42915 79.938975 Z" stroke="black" stroke-linecap="round" stroke-linejoin="round" stroke-width="1"/>
          </g>
        </g>
        <g id="Graphic_149">
          <path d="M 221.07397 123.97202 C 226.45039 123.97202 299.92807 281.68022 273.046 328.27582 C 246.1639 374.87143 195.98403 294.2252 192.39975 229.7082 C 188.81547 165.1912 215.69755 123.97202 221.07397 123.97202 Z" fill="#FFFFFF"/>
          <path d="M 221.07397 123.97202 C 226.45039 123.97202 299.92807 281.68022 273.046 328.27582 C 246.1639 374.87143 195.98403 294.2252 192.39975 229.7082 C 188.81547 165.1912 215.69755 123.97202 221.07397 123.97202 Z" stroke="black" stroke-linecap="round" stroke-linejoin="round" stroke-width="1"/>
        </g>
        <g id="Group_144">
          <g id="Line_148">
            <path d="M 208.61724 195.7458 C 219.37007 154.52661 219.56404 143.6329 219.37007 143.77378" stroke="black" stroke-linecap="round" stroke-linejoin="round" stroke-width="1"/>
          </g>
          <g id="Line_147">
            <path d="M 217.57793 206.49863 C 228.33076 165.27945 226.7326 154.38573 226.53862 154.52661" stroke="black" stroke-linecap="round" stroke-linejoin="round" stroke-width="1"/>
          </g>
          <g id="Line_146">
            <path d="M 226.53862 217.25147 C 237.29146 176.03228 233.90115 165.13857 233.70718 165.27945" stroke="black" stroke-linecap="round" stroke-linejoin="round" stroke-width="1"/>
          </g>
          <g id="Line_145">
            <path d="M 235.49932 228.0043 C 246.25215 186.7851 241.0697 175.8914 240.87573 176.03228" stroke="black" stroke-linecap="round" stroke-linejoin="round" stroke-width="1"/>
          </g>
        </g>
        <g id="Group_132">
          <g id="Line_143">
            <path d="M 192.84779 199.46586 C 192.84779 199.46586 218.8338 246.52453 237.20322 243.9408 C 255.57264 241.3571 252.15514 189.73578 252.24907 189.73578" stroke="black" stroke-linecap="round" stroke-linejoin="round" stroke-width="1"/>
          </g>
          <g id="Line_142">
            <path d="M 196.8585 258.27393 C 196.8585 258.27393 204.41497 242.65518 207.47422 222.31545" stroke="black" stroke-linecap="round" stroke-linejoin="round" stroke-width="1"/>
          </g>
          <g id="Line_141">
            <path d="M 205.63603 285.01653 C 205.63603 285.01653 216.71949 257.0261 217.46812 234.10777" stroke="black" stroke-linecap="round" stroke-linejoin="round" stroke-width="1"/>
          </g>
          <g id="Line_140">
            <path d="M 228.11244 242.02915 C 230.57663 265.32695 223.62537 300.05595 216.56213 308.94385" stroke="black" stroke-linecap="round" stroke-linejoin="round" stroke-width="1"/>
          </g>
          <g id="Line_139">
            <path d="M 245.71588 268.23918 C 245.71588 268.23918 238.43437 255.84256 239.73175 243.21875" stroke="black" stroke-linecap="round" stroke-linejoin="round" stroke-width="1"/>
          </g>
          <g id="Line_138">
            <path d="M 245.71588 268.6872 C 245.71588 268.6872 234.2568 277.233 235.19408 333.2014" stroke="black" stroke-linecap="round" stroke-linejoin="round" stroke-width="1"/>
          </g>
          <g id="Line_137">
            <path d="M 248.18523 232.3701 C 248.18523 232.3701 251.1535 259.44254 269.8825 290.32344" stroke="black" stroke-linecap="round" stroke-linejoin="round" stroke-width="1"/>
          </g>
          <g id="Line_136">
            <path d="M 277.20886 278.48856 C 277.20886 278.48856 257.59267 298.7263 270.54 331.6516" stroke="black" stroke-linecap="round" stroke-linejoin="round" stroke-width="1"/>
          </g>
          <g id="Line_135">
            <path d="M 253.55648 342.3889 C 246.61195 312.3706 257.2962 264.63424 257.2962 264.63424 C 257.2962 264.63424 257.04598 266.71606 257.04598 265.55097" stroke="black" stroke-linecap="round" stroke-linejoin="round" stroke-width="1"/>
          </g>
          <g id="Line_134">
            <path d="M 227.9908 267.45207 C 232.24713 266.556 240.12206 280.1323 240.01353 280.1323" stroke="black" stroke-linecap="round" stroke-linejoin="round" stroke-width="1"/>
          </g>
          <g id="Line_133">
            <path d="M 245.71588 268.4632 C 249.30015 268.4632 254.5723 276.65697 254.8541 277.69017" stroke="black" stroke-linecap="round" stroke-linejoin="round" stroke-width="1"/>
          </g>
        </g>
        <g id="Graphic_131">
          <path d="M 141.87045 123.97202 C 136.49403 123.97202 63.01635 281.68022 89.89843 328.27582 C 116.78051 374.87143 166.96039 294.2252 170.54467 229.7082 C 174.12894 165.1912 147.24686 123.97202 141.87045 123.97202 Z" fill="#FFFFFF"/>
          <path d="M 141.87045 123.97202 C 136.49403 123.97202 63.01635 281.68022 89.89843 328.27582 C 116.78051 374.87143 166.96039 294.2252 170.54467 229.7082 C 174.12894 165.1912 147.24686 123.97202 141.87045 123.97202 Z" stroke="black" stroke-linecap="round" stroke-linejoin="round" stroke-width="1"/>
        </g>
        <g id="Group_126">
          <g id="Line_130">
            <path d="M 154.32718 195.7458 C 143.57435 154.52661 143.38038 143.6329 143.57435 143.77378" stroke="black" stroke-linecap="round" stroke-linejoin="round" stroke-width="1"/>
          </g>
          <g id="Line_129">
            <path d="M 145.36649 206.49863 C 134.61366 165.27945 136.21182 154.38573 136.4058 154.52661" stroke="black" stroke-linecap="round" stroke-linejoin="round" stroke-width="1"/>
          </g>
          <g id="Line_128">
            <path d="M 136.4058 217.25147 C 125.65296 176.03228 129.04327 165.13857 129.23724 165.27945" stroke="black" stroke-linecap="round" stroke-linejoin="round" stroke-width="1"/>
          </g>
          <g id="Line_127">
            <path d="M 127.4451 228.0043 C 116.69227 186.7851 121.87471 175.8914 122.06869 176.03228" stroke="black" stroke-linecap="round" stroke-linejoin="round" stroke-width="1"/>
          </g>
        </g>
        <g id="Group_114">
          <g id="Line_125">
            <path d="M 170.09663 199.46586 C 170.09663 199.46586 144.11062 246.52453 125.7412 243.9408 C 107.37178 241.3571 110.78928 189.73578 110.69535 189.73578" stroke="black" stroke-linecap="round" stroke-linejoin="round" stroke-width="1"/>
          </g>
          <g id="Line_124">
            <path d="M 166.08592 258.27393 C 166.08592 258.27393 158.52945 242.65518 155.4702 222.31545" stroke="black" stroke-linecap="round" stroke-linejoin="round" stroke-width="1"/>
          </g>
          <g id="Line_123">
            <path d="M 157.30839 285.01653 C 157.30839 285.01653 146.22493 257.0261 145.4763 234.10777" stroke="black" stroke-linecap="round" stroke-linejoin="round" stroke-width="1"/>
          </g>
          <g id="Line_122">
            <path d="M 134.83198 242.02915 C 132.3678 265.32695 139.31905 300.05595 146.38229 308.94385" stroke="black" stroke-linecap="round" stroke-linejoin="round" stroke-width="1"/>
          </g>
          <g id="Line_121">
            <path d="M 117.22854 268.23918 C 117.22854 268.23918 124.51004 255.84256 123.21267 243.21875" stroke="black" stroke-linecap="round" stroke-linejoin="round" stroke-width="1"/>
          </g>
          <g id="Line_120">
            <path d="M 117.22854 268.6872 C 117.22854 268.6872 128.68762 277.233 127.75034 333.2014" stroke="black" stroke-linecap="round" stroke-linejoin="round" stroke-width="1"/>
          </g>
          <g id="Line_119">
            <path d="M 114.75919 232.3701 C 114.75919 232.3701 111.79093 259.44254 93.06191 290.32344" stroke="black" stroke-linecap="round" stroke-linejoin="round" stroke-width="1"/>
          </g>
          <g id="Line_118">
            <path d="M 85.73556 278.48856 C 85.73556 278.48856 105.35175 298.7263 92.40442 331.6516" stroke="black" stroke-linecap="round" stroke-linejoin="round" stroke-width="1"/>
          </g>
          <g id="Line_117">
            <path d="M 109.38794 342.3889 C 116.33247 312.3706 105.64821 264.63424 105.64821 264.63424 C 105.64821 264.63424 105.89844 266.71606 105.89844 265.55097" stroke="black" stroke-linecap="round" stroke-linejoin="round" stroke-width="1"/>
          </g>
          <g id="Line_116">
            <path d="M 134.95362 267.45207 C 130.69729 266.556 122.82236 280.1323 122.93089 280.1323" stroke="black" stroke-linecap="round" stroke-linejoin="round" stroke-width="1"/>
          </g>
          <g id="Line_115">
            <path d="M 117.22854 268.4632 C 113.64427 268.4632 108.37211 276.65697 108.09033 277.69017" stroke="black" stroke-linecap="round" stroke-linejoin="round" stroke-width="1"/>
          </g>
        </g>
      </g>
    </g>
  </g>
</svg>
