<?xml version="1.0" encoding="UTF-8" standalone="no"?>
<!DOCTYPE svg PUBLIC "-//W3C//DTD SVG 1.1//EN" "http://www.w3.org/Graphics/SVG/1.1/DTD/svg11.dtd">
<svg xmlns:xl="http://www.w3.org/1999/xlink" xmlns="http://www.w3.org/2000/svg" xmlns:dc="http://purl.org/dc/elements/1.1/" version="1.1" viewBox="36 67.5 292.5 283.5" width="292.5" height="283.5">
  <defs>
    <clipPath id="artboard_clip_path">
      <path d="M 36 67.5 L 328.5 67.5 L 328.5 340.26136 L 311.8807 351 L 36 351 Z"/>
    </clipPath>
  </defs>
  <g id="Cinquefoil_(Shape)" stroke-opacity="1" stroke="none" stroke-dasharray="none" fill="none" fill-opacity="1">
    <title>Cinquefoil (Shape)</title>
    <g id="Cinquefoil_(Shape)_Art" clip-path="url(#artboard_clip_path)">
      <title>Art</title>
      <g id="Graphic_113">
        <path d="M 120.72685 131.60168 C 99.81042 125.78273 76.44672 131.09664 60.00003 147.54341 C 35.70293 171.84039 35.70293 211.23354 60.00003 235.53052 C 66.53359 242.0641 74.15874 246.8408 82.28841 249.86056 C 66.204 274.02748 68.81961 306.96164 90.13525 328.27717 C 114.43222 352.57428 153.82538 352.57428 178.12235 328.27717 C 179.8313 326.56823 181.42005 324.7846 182.8886 322.9368 C 184.35715 324.7846 185.9459 326.56823 187.65485 328.27717 C 211.95183 352.57428 251.34498 352.57428 275.64196 328.27717 C 296.9576 306.96164 299.5732 274.02748 283.4888 249.86054 C 291.61847 246.8408 299.24362 242.0641 305.77717 235.53052 C 330.07428 211.23354 330.07428 171.84039 305.77717 147.54341 C 289.3305 131.09664 265.96678 125.78273 245.05035 131.60168 C 244.42163 116.56162 238.36556 101.70617 226.88216 90.22283 C 202.58518 65.925725 163.19203 65.925725 138.89505 90.22283 C 127.41164 101.70617 121.35558 116.56162 120.72685 131.60168 Z" fill="#FFFFFF"/>
        <path d="M 120.72685 131.60168 C 99.81042 125.78273 76.44672 131.09664 60.00003 147.54341 C 35.70293 171.84039 35.70293 211.23354 60.00003 235.53052 C 66.53359 242.0641 74.15874 246.8408 82.28841 249.86056 C 66.204 274.02748 68.81961 306.96164 90.13525 328.27717 C 114.43222 352.57428 153.82538 352.57428 178.12235 328.27717 C 179.8313 326.56823 181.42005 324.7846 182.8886 322.9368 C 184.35715 324.7846 185.9459 326.56823 187.65485 328.27717 C 211.95183 352.57428 251.34498 352.57428 275.64196 328.27717 C 296.9576 306.96164 299.5732 274.02748 283.4888 249.86054 C 291.61847 246.8408 299.24362 242.0641 305.77717 235.53052 C 330.07428 211.23354 330.07428 171.84039 305.77717 147.54341 C 289.3305 131.09664 265.96678 125.78273 245.05035 131.60168 C 244.42163 116.56162 238.36556 101.70617 226.88216 90.22283 C 202.58518 65.925725 163.19203 65.925725 138.89505 90.22283 C 127.41164 101.70617 121.35558 116.56162 120.72685 131.60168 Z" stroke="black" stroke-linecap="round" stroke-linejoin="round" stroke-width="1.5"/>
      </g>
    </g>
  </g>
</svg>
