<?xml version="1.0" encoding="UTF-8" standalone="no"?>
<!DOCTYPE svg PUBLIC "-//W3C//DTD SVG 1.1//EN" "http://www.w3.org/Graphics/SVG/1.1/DTD/svg11.dtd">
<svg xmlns="http://www.w3.org/2000/svg" xmlns:dc="http://purl.org/dc/elements/1.1/" version="1.1" xmlns:xl="http://www.w3.org/1999/xlink" viewBox="34.3125 61.78777 295.23424 282.01223" width="295.23424" height="282.01223">
  <defs>
    <clipPath id="artboard_clip_path">
      <path d="M 34.3125 61.78777 L 329.54674 61.78777 L 329.54674 343.8 L 34.3125 343.8 Z"/>
    </clipPath>
  </defs>
  <g id="Cockatrice_Sejant_Dexter_Forepaw_Raised" fill-opacity="1" stroke="none" stroke-dasharray="none" stroke-opacity="1" fill="none">
    <title>Cockatrice Sejant Dexter Forepaw Raised</title>
    <g id="Cockatrice_Sejant_Dexter_Forepaw_Raised_Layer_2" clip-path="url(#artboard_clip_path)">
      <title>Layer 2</title>
      <g id="Group_3">
        <g id="Graphic_74">
          <path d="M 306.8161 65.20988 C 304.49986 66.4517 301.64153 67.79286 300.4095 68.23991 C 299.17745 68.686965 297.74828 69.23336 297.2062 69.43205 C 296.6641 69.63074 294.69282 70.32616 292.77084 70.92223 C 288.2862 72.313065 280.74613 75.1444 277.00073 76.7836 C 270.05202 79.91297 255.85892 87.56255 251.22645 90.69193 C 245.7069 94.41737 243.5878 95.75853 243.24283 95.75853 C 242.99642 95.75853 242.75 95.95722 242.65145 96.15592 C 242.60217 96.3546 241.32084 97.29839 239.8424 98.19249 C 238.36395 99.0866 235.45633 101.37154 233.4358 103.2591 C 231.36596 105.09698 228.3105 107.72963 226.63493 109.02112 C 222.79096 112.05115 213.27961 120.54516 209.87918 123.9229 C 208.45002 125.3634 207.02085 126.55555 206.72516 126.55555 C 205.296 126.55555 202.8812 128.24442 201.94484 129.98296 C 201.35347 131.02608 201.0085 131.96986 201.15634 132.11888 C 201.30418 132.2679 200.66352 132.51626 199.77645 132.71495 C 198.00232 133.01299 194.45404 135.69531 194.45404 136.63909 C 194.45404 136.9868 194.15835 137.83123 193.7641 138.52665 C 192.58134 140.81159 193.61625 146.2259 195.6368 148.16313 C 196.9674 149.40495 199.23436 150.59709 200.7128 150.7461 C 202.38838 150.9448 202.97976 150.10036 201.59987 149.55397 C 200.22 149.05724 199.3822 146.2259 199.97358 144.08998 C 200.51568 141.95406 201.35347 140.71224 201.797 141.30831 C 202.19125 141.85471 205.39456 143.94096 208.7457 145.8782 C 212.09685 147.81542 212.73752 148.26248 213.96956 150.15004 C 217.81352 155.71337 216.7786 165.1015 211.11122 176.37717 C 208.59786 181.44378 201.69844 187.4045 195.43967 189.9378 C 191.00433 191.77568 187.65318 192.02404 181.64082 191.0306 C 178.7825 190.58354 176.26913 190.18616 175.97344 190.13648 C 174.495 190.03714 169.27114 180.64902 167.10275 174.1419 L 165.96927 170.86351 L 169.46827 171.0622 C 171.68594 171.21122 173.31223 171.11188 173.75577 170.76417 C 174.34715 170.31711 174.34715 170.11842 173.85433 169.91973 C 171.98163 169.17464 168.92617 166.24396 167.98982 164.30673 C 167.15203 162.61786 163.40663 149.40495 163.40663 148.16313 C 163.40663 148.06379 164.14586 148.2128 164.98364 148.46117 C 168.72904 149.5043 170.65103 148.70953 168.97545 146.7723 C 167.05347 144.53703 165.32861 141.35799 164.19514 137.83123 C 163.55448 135.84433 161.82962 131.7215 160.40045 128.69147 L 157.73925 123.12814 L 159.56267 122.8301 C 160.59758 122.63141 161.43537 122.23403 161.43537 121.88632 C 161.43537 121.53862 160.10476 119.80008 158.52775 118.06153 C 156.90146 116.32299 154.88091 113.74002 153.94456 112.34918 L 152.26899 109.86555 L 157.19715 109.86555 C 160.99183 109.91523 162.56884 109.71654 163.89945 109.02112 C 168.63048 106.68651 167.98982 101.37154 162.56884 97.49708 C 157.24643 93.67228 157.73925 94.61606 157.83781 87.91026 C 157.98565 82.44628 157.8871 81.850205 156.85218 80.31035 C 154.6345 76.98229 153.10678 76.38622 146.8973 76.38622 L 141.42704 76.38622 L 140.58925 74.598005 C 139.35721 72.01503 135.06971 67.64384 132.55635 66.402025 L 130.38796 65.3589 L 126.98753 66.402025 C 123.98135 67.345804 123.19284 67.84253 119.10247 71.86601 C 116.14557 74.74702 114.02647 76.43589 113.04083 76.63458 C 112.20305 76.83327 109.24615 76.83327 106.38782 76.63458 L 101.31181 76.28687 L 99.24198 78.32345 L 97.22144 80.36003 L 97.51713 83.58875 C 97.8621 88.2083 99.43911 90.44357 103.52948 92.33112 C 108.16195 94.41737 108.8519 96.30493 106.09213 99.38463 C 105.00793 100.62645 104.07158 101.22252 103.18451 101.22252 C 102.44529 101.22252 101.31181 101.81859 100.52331 102.61335 C 99.7348 103.40812 98.05923 104.60026 96.82719 105.34535 C 92.88466 107.63029 90.17417 111.55442 89.2871 116.27332 C 88.89285 118.40924 88.30147 118.45891 86.82302 116.42234 C 85.5417 114.73347 85.49242 110.31261 86.67518 105.94142 C 87.16799 104.30222 87.85793 101.71925 88.25219 100.22907 C 88.64644 98.73889 88.99141 96.30493 88.99141 94.86443 L 88.99141 92.18211 L 90.71627 93.4736 C 92.73681 95.06312 93.52532 94.81475 92.98322 92.87752 C 91.1598 86.51943 86.57661 83.09202 77.90305 81.75086 C 72.72848 80.9561 72.1371 81.35348 74.79831 83.98613 C 76.4246 85.675 77.21311 87.06583 78.2973 90.1952 C 79.03653 92.48014 79.62791 95.31148 79.62791 96.70231 C 79.62791 98.04347 79.87431 99.33496 80.12072 99.48398 C 80.41641 99.68267 81.54989 98.93758 82.5848 97.84478 C 84.30966 96.10624 84.55607 96.0069 84.55607 96.95068 C 84.55607 98.19249 83.57043 102.11663 82.09199 106.93487 C 80.02216 113.74002 80.95851 118.95564 84.90104 122.87978 C 87.75937 125.81046 92.29328 126.75424 96.13724 125.26406 C 96.82719 124.96603 96.92575 125.11504 96.67934 125.95948 C 96.33437 126.95293 96.43293 127.0026 97.96066 126.6549 C 100.37546 126.1085 104.61368 126.20784 105.25434 126.85359 C 105.84572 127.44966 103.33236 132.76463 101.11469 135.69531 C 99.7348 137.5332 97.8621 142.50046 97.8621 144.28867 C 97.8621 145.58016 100.76971 148.90822 101.95247 148.90822 C 102.29744 148.90822 103.13523 149.90167 103.87445 151.14349 C 105.45147 153.82581 107.07776 154.42188 113.63221 154.81926 L 118.31396 155.1173 L 115.50491 157.89896 C 113.28724 160.03489 112.79443 160.77997 113.23796 161.22703 C 113.58293 161.57474 114.12503 161.8231 114.47 161.8231 C 115.35707 161.8231 115.35707 161.77343 112.89299 166.98905 C 110.57675 171.85697 107.86626 174.93667 105.25434 175.58241 C 104.5644 175.73143 103.87445 176.07914 103.72661 176.27783 C 103.57877 176.5262 102.24816 175.63208 100.76971 174.3406 C 95.05305 169.27399 89.73064 165.69756 85.04888 163.81 C 82.73265 162.86622 78.49443 159.6375 77.01598 157.70027 C 75.53753 155.71337 73.2213 151.34218 73.2213 150.49775 C 73.2213 148.90822 70.46153 144.48736 68.14529 142.40111 C 65.87834 140.31486 65.63193 139.8678 65.68121 138.12927 C 65.87834 133.60906 66.42044 131.12543 67.898885 128.29409 C 68.73667 126.6549 70.11656 124.02225 70.90506 122.4824 C 72.38351 119.60138 72.827045 116.47201 71.93998 115.08118 C 71.69357 114.6838 71.44716 113.83936 71.3486 113.14395 C 70.954344 110.26294 68.24386 108.12701 64.89271 108.07734 C 62.970725 108.07734 60.70377 109.21981 60.210955 110.41195 C 60.01383 111.00802 59.323886 110.80933 56.76124 109.61719 C 53.90291 108.27603 53.36081 108.17669 51.68524 108.67341 C 49.51685 109.26948 47.98912 111.10737 47.890554 113.29296 C 47.84127 114.43543 48.08768 114.88249 48.777623 115.0315 C 49.27044 115.13085 49.86182 114.93216 50.108226 114.53478 C 50.403916 114.08773 50.55176 114.23674 50.55176 115.13085 C 50.55176 115.82627 51.09386 117.16743 51.68524 118.1112 C 54.050755 121.63796 54.642134 125.41308 53.26225 128.04573 C 52.818715 128.89016 52.37518 129.5359 52.27662 129.5359 C 52.12877 129.5359 51.43883 128.29409 50.74889 126.80391 C 50.058945 125.31373 49.171876 123.87323 48.777623 123.52552 C 48.38337 123.22748 48.08768 122.68109 48.08768 122.38305 C 48.08768 121.43927 45.03222 118.70728 43.553773 118.35957 C 41.828917 117.91252 38.083515 119.60138 36.95004 121.3896 C 35.619435 123.3765 35.718 128.04573 37.0486 129.88361 C 38.428487 131.7215 39.51268 131.7215 39.315555 129.83394 L 39.16771 128.39344 L 40.64616 129.68492 C 41.483946 130.38034 42.666704 131.12543 43.258084 131.32412 C 43.849463 131.52281 45.67288 133.01299 47.348457 134.70186 C 49.51685 136.9868 50.50248 138.4273 50.995295 140.26519 C 51.931646 143.34489 51.882364 148.31215 50.946014 150.19971 C 50.50248 150.99447 50.058945 152.3853 49.86182 153.32908 C 49.713974 154.27286 49.07331 156.30944 48.531215 157.89896 C 47.74271 160.03489 47.20061 160.82965 46.313543 161.02834 C 44.785813 161.42572 43.652337 163.2636 43.553773 165.49887 C 43.50449 166.49232 43.307365 167.28709 43.11024 167.28709 C 42.371015 167.28709 41.138975 164.30673 41.28682 162.96557 C 41.53323 160.929 40.35047 161.02834 39.75909 163.16426 C 39.019866 165.84658 39.11843 167.23741 40.153343 169.6217 C 41.58251 172.75107 42.91311 173.39682 46.85564 172.99944 C 51.340267 172.5027 52.42446 171.45958 53.55794 166.74069 C 54.050755 164.70411 54.44501 162.12113 54.49429 160.929 C 54.49429 156.95518 56.514835 153.92515 58.19041 155.36566 C 59.915265 156.80617 64.44917 167.0884 67.307506 175.9798 C 70.41225 185.81497 73.02417 190.68288 79.33222 198.68017 C 83.61972 204.04481 87.16799 207.5219 88.35075 207.5219 C 88.69572 207.5219 89.73064 208.9624 90.56842 210.75061 C 93.0325 216.0159 93.91957 216.31395 101.21325 213.97933 C 103.77589 213.1349 106.23997 212.5885 106.73279 212.73752 C 107.17632 212.88654 107.96483 213.88 108.45764 214.97279 C 108.95046 216.06558 110.13322 217.80412 111.11885 218.89692 C 112.74514 220.68514 112.89299 221.03284 112.74514 223.31778 C 112.49874 226.8942 113.78006 230.81835 115.94845 233.2523 C 117.969 235.48757 122.89715 238.3189 124.72057 238.3189 C 126.14974 238.3189 126.64256 239.01433 127.38178 241.945 C 127.67747 243.28617 128.76166 246.41555 129.69801 248.89918 C 130.63437 251.43248 131.52143 254.01545 131.66928 254.6612 C 131.81712 255.3566 132.06353 256.1017 132.21138 256.35007 C 132.35922 256.59843 131.76784 257.7409 130.93005 258.93304 C 128.81095 261.9134 127.62819 264.89375 127.23393 268.37084 C 126.69184 272.89104 126.44543 274.18253 125.85405 276.0701 C 125.55836 277.01387 125.21339 278.2557 125.1641 278.8021 C 125.06554 279.34848 124.67129 281.23604 124.22776 283.02426 C 122.79859 289.03464 122.5029 290.47515 122.5029 291.36925 C 122.5029 292.2137 120.48236 296.9326 118.85606 299.91294 C 118.46181 300.60836 117.37761 301.70115 116.39198 302.39657 C 114.51928 303.73773 112.5973 306.27103 110.67532 309.99648 C 109.98537 311.33764 109.04902 312.72847 108.60549 313.17553 C 105.55003 315.9572 95.4473 314.41734 92.93394 310.74157 C 92.78609 310.54288 91.84974 310.04615 90.81483 309.5991 C 89.13926 308.9037 88.89285 308.9037 87.61153 309.69844 C 83.86612 312.03306 82.5848 314.41734 83.47187 317.49704 C 83.96469 319.33493 84.90104 319.7323 85.14745 318.19246 C 85.29529 317.09966 85.39385 317.14933 86.18236 318.6395 C 87.11871 320.4774 89.13926 321.2225 90.51914 320.3284 C 91.60334 319.68264 93.37747 319.63297 94.31382 320.22904 C 94.75736 320.4774 94.31382 320.87478 92.78609 321.47085 C 90.42058 322.36496 88.35075 324.05383 88.745 324.74924 C 88.89285 324.9976 88.64644 325.9414 88.20291 326.88517 C 87.71009 327.8786 87.51296 329.12043 87.66081 329.81585 C 88.15362 331.65374 91.06124 334.4354 93.27891 335.08115 C 96.43293 336.02492 98.15779 334.88245 95.64443 333.5413 L 94.41239 332.89555 L 96.08796 332.29948 C 97.46785 331.80275 97.91138 331.25635 98.45348 329.5675 C 99.04486 327.7296 99.43911 327.3322 102.29744 325.8917 C 104.07158 324.9976 105.64859 324.2525 105.895 324.2525 C 106.09213 324.2525 105.05721 325.44466 103.57877 326.8355 C 102.1496 328.276 100.72043 329.9152 100.42474 330.4616 C 99.68552 331.9021 99.78408 336.621 100.57259 338.11117 C 102.00175 340.9922 106.19069 342.68105 109.394 341.73727 C 111.21741 341.24055 111.66095 340.14775 110.08394 340.14775 C 108.80262 340.14775 106.73279 338.90594 106.73279 338.11117 C 106.73279 337.8628 107.52129 337.66412 108.50693 337.66412 C 111.02029 337.66412 113.23796 335.3792 112.8437 333.24326 C 112.5973 331.95177 112.8437 331.3557 114.81497 329.07076 C 116.09629 327.5806 117.72259 326.0904 118.51109 325.7427 C 120.28523 324.9976 123.045 325.69302 126.49471 327.7296 C 127.82531 328.57403 129.15592 329.21978 129.40233 329.21978 C 129.64873 329.21978 130.14155 329.7165 130.43724 330.31258 C 131.81712 332.94522 134.0348 333.74 136.54816 332.5975 C 138.5687 331.7034 139.20936 332.7962 137.58307 334.33606 C 135.80893 336.02492 136.79457 336.57132 139.01224 335.1805 C 140.93422 333.98835 143.20117 330.51127 143.25046 328.67338 C 143.25046 327.08386 142.70836 324.6499 142.11698 323.9048 C 141.32847 322.91136 137.33666 321.81856 133.29557 321.47085 C 128.121 321.0238 128.07172 321.0238 128.76166 317.199 C 129.55017 312.57946 132.99988 304.97955 136.9917 299.16785 C 139.80074 295.04503 146.74945 283.96803 149.65706 278.90143 C 150.59341 277.3119 151.82545 275.22566 152.41683 274.18253 C 153.0575 273.18908 153.74744 271.79825 154.04313 271.1525 C 156.11295 266.38393 157.345 264.39703 158.03494 264.54605 C 158.47847 264.6454 159.66123 263.85063 160.69614 262.75783 L 162.56884 260.87027 L 164.73723 261.5657 C 166.4621 262.16176 167.44772 262.16176 169.6654 261.7147 C 172.3266 261.21798 172.47445 261.21798 173.6572 262.41012 C 174.34715 263.10554 176.072 263.99965 177.50117 264.4467 C 179.86669 265.14212 180.45807 265.14212 182.97143 264.4467 C 185.68192 263.7513 185.87904 263.7513 186.56898 264.6454 C 187.80102 266.18524 190.8072 267.1787 194.50332 267.1787 C 196.37602 267.1787 197.90375 267.3774 197.90375 267.62575 C 197.90375 268.4205 202.0434 270.55643 204.60605 271.10283 C 206.97157 271.59956 207.1687 271.79825 208.40073 274.33155 C 209.09068 275.82173 210.27344 277.41125 210.96338 277.8583 L 212.19542 278.70274 L 208.64714 280.29226 C 201.0085 283.67 196.52387 286.10396 194.10907 288.23988 C 192.72918 289.4817 191.25074 290.47515 190.8072 290.47515 C 189.77229 290.47515 186.07617 292.80976 186.07617 293.4555 C 186.07617 294.49863 185.9776 294.747 185.13982 295.69077 C 184.647 296.23717 183.41496 298.3731 182.42933 300.36 C 180.9016 303.53904 180.6059 304.5325 180.6552 307.31416 C 180.70447 309.15205 180.45807 311.48666 180.21166 312.57946 C 179.91597 313.67225 179.66956 315.31145 179.66956 316.20556 C 179.66956 318.24213 181.29585 321.52052 182.82358 322.51398 C 183.66137 323.11005 184.05562 323.9545 184.30203 325.7427 C 184.59772 327.82894 185.04125 328.67338 186.96324 330.70996 C 189.32875 333.1936 191.98996 334.68376 194.15835 334.68376 C 194.99614 334.68376 195.6368 335.1805 196.27746 336.17394 C 197.31237 337.96216 199.9243 339.25364 205.34527 340.64448 C 210.71697 342.0353 213.67387 342.0353 218.1585 340.64448 C 224.51582 338.65757 228.3105 336.57132 233.48507 332.1008 C 235.8013 330.1139 236.49125 329.76618 237.674 330.01454 C 239.0539 330.31258 239.15245 330.21323 241.173 325.395 C 242.30648 322.663 243.24283 320.2787 243.24283 320.03035 C 243.24283 319.3846 246.249 313.3742 246.69254 313.07618 C 246.93895 312.92716 247.23464 313.27487 247.43176 313.82127 C 247.5796 314.36767 247.92458 314.81472 248.1217 314.81472 C 249.15662 314.81472 249.84656 311.63568 250.0437 306.07234 C 250.24081 300.36 250.2901 300.0123 251.3743 299.51556 C 252.35992 299.0685 252.55705 299.11818 252.80346 300.06196 C 253.29627 301.9992 254.2819 300.11163 254.47903 296.78357 C 254.62688 294.5483 254.3312 292.51172 253.39484 289.23333 C 252.31064 285.20985 252.21208 284.66345 252.90202 283.62033 C 253.69053 282.4282 254.5776 282.2295 255.41538 283.07393 C 256.4503 284.11705 256.9431 283.1236 256.49958 280.938 C 256.30245 279.74586 256.10533 278.65307 256.05604 278.45438 C 256.05604 278.2557 255.71107 277.80863 255.31682 277.36158 C 254.67616 276.71583 254.77472 276.51714 256.30245 275.57336 C 259.85073 273.38777 265.07458 266.4336 266.99656 261.367 C 268.08076 258.58533 268.08076 258.58533 268.91854 259.62846 C 269.41136 260.22453 270.49555 262.50947 271.38262 264.6454 C 272.2697 266.831 273.25532 268.6192 273.6003 268.6192 C 275.2266 268.6192 277.24713 257.59188 277.2964 248.20376 C 277.3457 241.00123 275.473 231.71245 272.86107 226.39749 C 271.1362 222.9204 270.1013 222.62237 269.65777 225.4537 C 269.0664 229.22882 265.8138 237.02742 262.75834 241.99468 C 259.50576 247.35932 254.8733 252.42593 251.52214 254.3135 C 250.38866 254.90956 249.4523 255.65465 249.40303 255.9527 C 249.40303 256.25072 251.66998 256.49908 254.97185 256.59843 L 260.4914 256.74745 L 259.80145 258.13828 C 259.4072 258.88337 258.12587 260.72126 256.9924 262.16176 L 254.92257 264.7944 L 253.98622 262.31078 C 253.14843 260.02584 252.6556 259.47944 248.76237 256.89646 C 246.39685 255.30694 244.1299 253.51873 243.73564 252.97233 C 241.56725 250.04165 241.22228 247.7567 242.55288 245.81947 C 243.19355 244.92537 243.68636 244.72668 244.77056 244.97504 C 246.88967 245.37242 246.64326 243.73322 244.17918 241.0509 C 242.0108 238.66662 239.15245 237.32546 233.9286 236.28233 C 230.13392 235.53724 228.8526 234.1464 229.98608 232.0105 C 231.36596 229.37784 241.27156 223.1191 251.12788 218.59889 C 258.0273 215.41984 272.36825 211.4957 276.90216 211.4957 C 278.77486 211.4957 281.68248 212.48916 281.68248 213.18457 C 281.68248 213.92966 283.90015 216.11526 285.52644 216.91002 C 286.1671 217.25773 287.30058 217.35707 288.18765 217.20805 C 289.56753 216.86035 289.6661 216.9597 289.32113 218.00282 C 288.92687 219.19496 287.30058 220.9335 286.51207 220.9335 C 286.31495 220.9335 286.11782 221.2812 286.11782 221.72826 C 286.11782 222.374 286.4135 222.47335 287.4977 222.22499 C 289.9618 221.57924 294.05216 219.34398 294.84067 218.15183 C 295.92486 216.46296 296.26983 212.3898 295.43204 210.4029 C 294.7421 208.6147 290.5039 204.04481 289.56753 204.04481 C 289.27184 204.04481 289.07472 203.74678 289.124 203.39907 C 289.17328 203.10103 289.07472 202.4553 288.92687 202.0579 C 288.38478 200.66708 286.56136 193.3652 286.01926 190.6332 C 285.77285 189.14303 285.625 185.7653 285.77285 183.18232 C 286.36423 169.47268 295.5306 153.72646 308.19598 144.53703 L 311.8428 141.95406 L 313.07486 142.94751 C 314.50402 144.0403 316.22888 144.239 317.7566 143.39456 C 318.8408 142.79849 318.8408 142.69915 317.85517 145.18278 C 317.65805 145.6795 317.85517 145.92787 318.5451 145.92787 C 319.23506 145.92787 319.87572 145.23245 320.61494 143.6926 C 321.847 141.1593 321.74842 138.47697 320.36854 133.3607 C 319.9743 131.82085 317.70733 130.38034 316.08104 130.6287 C 315.29253 130.72805 314.2576 129.83394 311.8921 127.05228 C 308.3931 122.87978 306.17543 118.50859 303.8099 111.35573 C 302.33147 106.8852 302.18362 105.89175 302.18362 100.47743 C 302.2329 94.46705 304.4013 79.16788 305.38693 78.12476 C 305.63334 77.8764 305.83046 77.280325 305.83046 76.7836 C 305.83046 75.29342 306.91466 73.35619 307.50604 73.852916 C 307.80173 74.10128 308.88592 74.39931 309.87155 74.598005 C 311.9414 74.995385 313.07486 74.49866 315.73606 72.01503 C 317.11595 70.72354 317.60877 70.52485 317.8059 71.07125 C 317.95374 71.46863 317.7566 72.41241 317.36236 73.1575 C 316.37673 75.09473 317.16523 75.64113 318.74224 74.15095 C 321.94555 71.170595 321.45273 66.25301 317.8059 64.66348 C 316.77098 64.21643 315.53894 63.67003 315.0954 63.42167 C 313.32127 62.52756 310.95575 63.02429 306.8161 65.20988 Z M 219.29197 295.74044 L 219.29197 295.74044 C 219.7355 296.13782 220.08047 296.7339 220.08047 297.0816 C 220.08047 297.37964 220.67185 298.22407 221.3618 298.96916 L 222.59384 300.26065 L 221.6082 301.9495 C 220.524 303.73773 220.2776 306.07234 221.01682 308.00958 C 221.41108 309.0527 221.26323 309.45008 219.83407 310.8409 C 218.947 311.73502 218.05993 312.97684 217.91208 313.62258 C 217.51783 315.11276 215.15231 315.7585 210.0763 315.85785 C 207.07013 315.90752 205.98594 315.70883 204.40892 314.81472 C 202.0434 313.47356 201.35347 312.08273 201.35347 308.705 C 201.40275 302.59526 202.93048 300.26065 208.69642 297.57833 C 214.3638 294.94568 217.91208 294.3496 219.29197 295.74044 Z M 100.32618 117.56481 L 100.32618 117.56481 C 100.32618 117.86284 99.29127 118.21055 98.00994 118.35957 C 96.67934 118.50859 95.25017 118.75695 94.75736 118.8563 C 93.87029 119.00531 93.87029 119.00531 94.70808 118.06153 C 95.29946 117.36612 96.18652 117.11775 97.96066 117.11775 C 99.24198 117.11775 100.32618 117.31644 100.32618 117.56481 Z" fill="black"/>
        </g>
        <g id="Graphic_73">
          <path d="M 313.41983 66.4517 C 313.02558 69.33271 313.71552 70.6242 315.3911 70.12747 C 316.1796 69.87911 316.03175 70.27649 314.6026 71.71699 C 313.12414 73.20717 312.4342 73.60455 311.1036 73.55488 C 308.78736 73.50521 307.50604 72.710446 306.71753 70.92223 C 306.0276 69.23336 305.09124 68.885655 305.4855 70.42551 C 305.63334 70.971904 305.53477 71.41896 305.28837 71.41896 C 305.04196 71.41896 302.57788 72.511755 299.76883 73.852916 C 296.95977 75.19408 292.82012 77.081635 290.5039 78.02541 C 288.23693 78.96919 283.60446 81.15479 280.20403 82.89333 C 276.8036 84.63187 273.896 86.0227 273.74814 86.07238 C 272.95963 86.12205 262.16696 92.87752 257.04168 96.45395 C 249.05806 102.1663 236.8855 114.53478 231.021 122.92945 C 230.4296 123.82356 229.1483 126.40653 228.26122 128.6418 C 227.32487 130.92674 226.24067 133.60906 225.79714 134.60251 C 225.3536 135.64564 225.00863 137.3345 225.00863 138.4273 C 225.00863 140.86126 226.88134 145.03376 229.00044 147.21935 C 229.8875 148.16313 230.52817 148.9579 230.38033 149.05724 C 230.28177 149.10691 229.34542 149.55397 228.35978 150.0507 C 227.32487 150.49775 226.48708 151.09382 226.48708 151.39185 C 226.48708 152.18661 227.12774 151.98792 230.7253 150.15004 C 232.598 149.20626 234.42142 148.4115 234.7664 148.4115 C 235.60418 148.4115 246.10116 145.03376 248.07242 144.08998 C 250.73363 142.89784 257.33737 141.10962 264.43392 139.71879 C 268.08076 139.02337 271.974 138.22861 273.0582 137.98025 C 275.1773 137.43385 291.68664 134.75153 295.72773 134.2548 C 297.10762 134.10579 301.9865 133.65873 306.5697 133.21168 C 311.20216 132.8143 315.6375 132.36724 316.4753 132.21823 C 317.5102 132.01954 318.24943 132.16855 318.79152 132.76463 C 319.925 133.9071 319.87572 135.19858 318.69296 134.85087 C 317.60877 134.60251 317.11595 134.85087 316.32744 136.34105 C 315.44038 137.93058 315.53894 139.32141 316.6724 140.46388 C 317.90446 141.7057 317.90446 141.80504 316.6724 142.45078 C 314.849 143.44424 312.1385 141.1593 311.0543 137.83123 C 310.61078 136.39073 309.62515 136.83778 309.92084 138.32796 L 310.16724 139.71879 L 301.00087 139.76846 C 286.51207 139.81813 274.98018 141.30831 265.91236 144.239 C 246.34757 150.54742 236.6391 156.40879 230.62674 165.54854 C 228.75404 168.37988 228.70475 168.57857 228.75404 172.80074 L 228.75404 177.12226 L 227.57128 176.6752 C 226.09283 176.07914 225.50145 176.1288 225.50145 176.72488 C 225.50145 176.97324 226.4378 177.4203 227.62056 177.768 C 231.16883 178.71178 236.83622 180.64902 238.2161 181.3941 C 239.8424 182.23854 240.3845 182.43723 248.07242 185.36791 C 249.05806 185.7653 251.66998 186.6594 253.83837 187.30515 C 256.00676 188.00056 258.91438 188.99401 260.34354 189.59009 C 265.321 191.577 278.03564 197.98476 281.23894 200.12068 C 283.01308 201.31282 285.42788 202.85267 286.56136 203.54809 C 287.7441 204.2435 289.27184 205.28663 290.06035 205.8827 C 290.79957 206.52844 291.73592 207.02517 292.0809 207.02517 C 292.47515 207.07484 292.0809 207.37288 291.2431 207.72059 C 289.4197 208.56502 288.3355 211.148 288.72975 213.78064 C 289.07472 215.91657 287.89196 216.761 285.77285 215.91657 C 283.7523 215.17148 282.32314 213.08523 281.6332 210.00553 C 280.89397 206.72713 280.59828 206.2304 278.82414 205.78335 C 278.08492 205.58466 277.14857 205.18728 276.75432 204.83957 C 273.10748 201.7102 252.75418 193.61357 241.02516 190.6332 C 231.95734 188.34827 225.94498 188.54696 219.14412 191.32863 C 214.6595 193.16651 213.37818 194.2593 212.44183 197.14032 C 211.65332 199.5246 211.55476 199.62395 210.86481 198.6305 C 210.47056 198.03443 209.97775 197.58737 209.68206 197.58737 C 209.13996 197.58737 209.0414 199.07755 209.63277 199.07755 C 209.8299 199.12723 210.71697 200.17035 211.60404 201.46184 C 212.4911 202.75333 214.31453 205.3363 215.64513 207.22386 C 216.97573 209.11142 218.99628 212.9362 220.12976 215.6682 C 221.26323 218.44987 222.84024 222.0263 223.57947 223.71516 C 224.36797 225.35436 225.00863 226.8942 225.00863 227.0929 C 225.00863 227.2916 225.8957 229.22882 226.9799 231.36475 C 230.38033 238.26924 230.67602 241.74632 227.66984 239.36204 C 225.8957 237.92153 224.8115 238.07055 223.38234 239.8091 C 221.9039 241.54763 221.0661 241.64698 219.88335 240.3555 C 219.09484 239.51105 219.14412 239.31236 220.72113 237.02742 C 221.6082 235.68626 222.49527 234.19608 222.6924 233.69936 C 223.13593 232.50722 222.19958 232.65623 221.50964 233.89805 C 221.21395 234.49412 220.8197 234.74248 220.5733 234.5438 C 220.37616 234.29543 218.79915 230.42097 217.17286 225.90076 C 213.37818 215.61853 213.62458 216.06558 209.92846 212.3898 C 204.11323 206.67746 198.39657 204.34285 193.27128 205.684 L 190.5608 206.37943 L 190.75792 205.03827 C 190.85648 204.29318 190.70864 203.39907 190.51151 203.05136 C 190.2651 202.65398 189.96941 203.49841 189.82157 205.3363 C 189.62444 206.92582 189.27947 210.0552 188.98378 212.2408 C 188.6881 214.4264 188.34312 216.86035 188.24456 217.70478 C 187.99815 219.8407 187.45605 223.01975 187.20965 224.16222 C 187.0618 224.70862 186.61827 227.2916 186.22401 229.87457 C 185.4355 234.8915 184.44988 237.82218 183.5628 237.82218 C 183.26712 237.82218 182.47861 237.37513 181.78867 236.82873 C 180.80304 236.08364 180.1131 235.88495 178.88105 236.13332 C 177.59973 236.38168 177.1562 236.23266 176.9098 235.6366 C 176.26913 233.94772 177.20548 232.40787 179.8174 230.81835 C 182.2322 229.37784 182.47861 229.0798 182.5279 227.34126 C 182.57717 226.29814 182.82358 224.46025 183.07 223.31778 C 184.1049 218.69823 182.72502 213.18457 179.86669 210.4029 C 175.08637 205.83303 173.26295 204.7899 169.07402 204.34285 C 167.10275 204.14416 165.32861 204.29318 163.80088 204.7899 C 162.47028 205.18728 161.43537 205.43565 161.38609 205.38597 C 161.38609 205.3363 161.28752 204.7899 161.18896 204.2435 C 160.7947 202.35594 160.0062 200.56773 159.4641 200.56773 C 158.87272 200.56773 158.82344 201.1638 159.41482 202.65398 C 159.66123 203.29972 160.40045 206.03172 160.99183 208.7637 C 161.58321 211.4957 162.27315 214.07868 162.47028 214.47606 C 163.30807 215.91657 163.7516 223.31778 163.60376 231.86147 C 163.45591 241.5973 162.86453 246.5149 161.43537 249.5946 C 160.35117 251.9292 160.20333 253.2207 160.94255 253.2207 C 161.23824 253.2207 161.43537 252.97233 161.43537 252.62462 C 161.43537 252.22724 161.73106 252.2769 162.22387 252.8233 C 164.0473 254.61153 162.32244 260.6219 159.36554 262.70816 C 158.08422 263.65194 157.8871 263.7016 158.1335 263.0062 C 158.33063 262.55914 158.62632 261.81405 158.77416 261.41667 C 158.922 261.0193 158.82344 260.67158 158.52775 260.67158 C 158.18278 260.67158 156.35936 263.85063 154.48666 267.77477 C 152.56468 271.64923 150.347 275.82173 149.60778 277.06354 C 148.81928 278.30536 147.24227 280.98768 146.10879 283.02426 C 144.92603 285.06083 141.72273 290.07777 139.01224 294.2006 C 133.93623 301.8005 132.55635 304.1848 129.9937 309.84746 C 128.36741 313.4239 126.7904 319.1859 127.23393 319.88133 C 127.43106 320.1297 126.83968 319.98067 126.0019 319.5833 C 125.1641 319.13624 124.27704 318.34148 123.98135 317.79508 C 123.68566 317.24868 123.24212 316.90097 122.99572 317.05 C 122.10865 317.5964 123.98135 319.63297 126.59327 320.92445 C 128.17029 321.7192 130.38796 322.3153 132.35922 322.51398 C 136.1539 322.812 140.63853 323.9545 141.42704 324.7989 C 141.82129 325.1963 141.72273 325.29564 140.88494 325.04728 C 139.45577 324.60023 136.89313 325.9414 136.20319 327.5309 C 135.71037 328.57403 135.80893 328.87207 136.79457 329.5675 L 137.92804 330.36225 L 136.59744 331.05766 C 134.18264 332.34915 133.44342 332.2498 131.91569 330.41192 C 131.12718 329.41847 130.09227 327.77927 129.59945 326.68647 C 129.05735 325.64335 128.36741 324.74924 128.07172 324.74924 C 127.23393 324.74924 127.28322 325.04728 128.26885 326.53746 L 129.10664 327.82894 L 126.54399 326.4878 C 121.12302 323.60677 118.11684 323.85514 114.61784 327.48124 C 113.43509 328.72305 112.25233 329.7165 112.0552 329.7165 C 111.85807 329.7165 111.66095 328.92174 111.66095 327.9283 C 111.66095 326.78582 111.46382 326.2891 111.11885 326.53746 C 110.62603 326.8355 110.62603 327.3322 111.41454 332.74653 C 111.75951 334.88245 111.66095 335.1308 110.52747 335.92558 C 109.14759 336.8197 106.92991 336.77 107.07776 335.82623 C 107.12704 335.5282 106.58494 334.5844 105.79644 333.74 C 104.71224 332.54784 103.92374 332.20013 102.59313 332.20013 C 101.6075 332.20013 100.819 332.0511 100.819 331.85243 C 100.819 331.7034 102.74098 329.5178 105.15578 327.0342 C 107.52129 324.55055 110.57675 320.8251 111.90736 318.78853 C 114.86425 314.26832 114.86425 314.318 114.02647 314.318 C 113.63221 314.318 112.94227 315.0631 112.44945 315.90752 C 111.95664 316.80163 110.67532 318.6892 109.6404 320.1297 C 108.11267 322.16627 107.27489 322.8617 105.59931 323.25907 C 104.46583 323.60677 102.59313 324.35186 101.45966 324.9976 C 100.2769 325.64335 99.34055 325.99106 99.34055 325.7427 C 99.34055 325.49433 99.63624 325.24597 99.98121 325.09695 C 100.2769 324.9976 100.42474 324.74924 100.2769 324.55055 C 99.48839 323.7061 98.45348 325.04728 97.91138 327.5309 C 96.92575 332.00144 93.27891 333.3426 93.13107 329.26945 C 93.0325 326.8355 92.19472 325.24597 90.96268 325.24597 C 90.42058 325.24597 89.97704 325.04728 89.97704 324.7989 C 89.97704 324.05383 91.20908 323.30874 95.49658 321.5702 C 100.76971 319.43427 104.21943 317.64606 107.81698 315.2121 C 111.95664 312.43044 115.8006 308.3573 114.27287 308.3573 C 114.12503 308.3573 113.53365 308.75466 112.94227 309.2017 C 112.20305 309.89713 112.35089 309.45008 113.48437 307.36383 C 114.61784 305.32725 115.84988 304.03577 118.31396 302.3469 C 120.0881 301.1051 121.9608 299.71425 122.40434 299.2672 C 123.68566 297.92604 122.60146 297.628 121.27086 298.9195 L 119.98954 300.11163 L 120.6302 298.67113 C 121.02445 297.8267 121.66511 296.48553 122.05937 295.69077 C 123.09428 293.70387 123.88279 290.67384 124.67129 285.5079 C 125.06554 283.17327 125.80477 279.6962 126.34687 277.80863 C 126.88896 275.8714 127.5789 272.54334 127.8746 270.35774 C 128.95879 263.25456 129.89514 261.26765 135.56253 254.8599 C 136.64672 253.61807 138.0266 251.2338 138.61798 249.54492 C 139.94859 246.01816 139.8993 246.26653 139.30793 246.26653 C 139.06152 246.26653 138.47014 247.30965 137.97732 248.60114 C 136.74528 251.97888 134.47833 255.10825 133.29557 255.2076 C 132.45778 255.25727 127.72675 239.6104 126.64256 233.35165 C 125.65692 227.6393 125.55836 217.45642 126.39615 211.09832 C 127.23393 204.83957 131.02862 191.12994 132.85204 187.70253 C 133.24629 186.8581 133.24629 186.6594 132.7042 186.6594 C 132.30994 186.6594 131.76784 187.2058 131.47215 187.85154 C 130.97934 188.94434 130.78221 188.99401 127.52962 188.74565 C 123.34069 188.44762 118.31396 189.59009 114.96282 191.52732 C 111.85807 193.3652 108.75333 196.39523 107.91555 198.38214 C 107.52129 199.32592 106.9792 200.071 106.73279 200.071 C 105.895 200.071 103.82517 196.4449 103.28308 193.96127 C 102.88882 191.97437 102.9381 190.88157 103.77589 187.5535 C 104.31799 185.36791 105.40218 182.4869 106.14141 181.24509 L 107.57058 178.96015 L 110.23178 179.10917 C 111.71023 179.15884 114.07575 179.0595 115.50491 178.81113 L 118.11684 178.36408 L 117.82115 179.7549 C 117.57474 180.74836 117.6733 181.19541 118.11684 181.19541 C 118.85606 181.19541 125.26267 177.4203 125.7062 176.72488 C 126.14974 176.02946 126.93825 176.1288 126.69184 176.82423 C 126.34687 177.768 127.18465 178.76146 128.02244 178.46342 C 128.95879 178.11571 133.39413 172.55238 134.52761 170.31711 C 135.02043 169.423 135.26684 168.33021 135.06971 167.88316 C 134.8233 167.23741 134.37977 167.73414 133.29557 169.77072 C 132.50707 171.2609 130.97934 173.49616 129.94442 174.73798 L 128.02244 176.97324 L 127.67747 171.65827 C 127.28322 165.84658 127.8746 163.01524 130.14155 159.6375 C 130.78221 158.64405 131.12718 157.74995 130.88077 157.60093 C 130.09227 157.1042 129.64873 157.6506 128.02244 160.97866 C 126.14974 164.75378 125.7062 167.58512 126.34687 171.11188 C 126.7904 173.64518 126.7904 173.69485 125.01626 175.38372 C 124.03063 176.3275 122.35506 177.56931 121.32014 178.21506 C 119.49672 179.30786 119.39816 179.30786 119.74313 178.41375 C 120.92589 175.38372 122.01008 169.02563 122.01008 165.20084 C 122.01008 161.32637 122.10865 160.87932 122.99572 160.58128 C 123.53781 160.43227 123.98135 159.93554 123.98135 159.53816 C 123.98135 158.69372 123.98135 158.69372 121.86224 159.58783 C 120.87661 159.98521 118.95463 160.33292 117.57474 160.33292 L 115.06138 160.33292 L 117.4269 157.50158 C 118.70822 155.96173 120.58092 153.97483 121.51727 153.08072 C 122.45362 152.13694 123.93207 150.7461 124.76985 149.95135 C 126.7904 147.96444 128.46597 144.38801 128.76166 141.10962 C 129.05735 138.37763 129.89514 136.93712 129.89514 139.17239 C 129.89514 142.0534 131.76784 140.66257 134.23192 135.79465 L 135.71037 132.91364 L 136.49888 134.4535 C 136.94241 135.29793 137.53379 135.99334 137.82948 135.99334 C 138.61798 135.99334 140.7371 130.97641 140.7371 129.08885 C 140.7371 127.39998 140.7371 127.39998 141.72273 128.29409 C 142.26482 128.79082 142.8562 130.0823 143.00405 131.12543 C 143.25046 132.56593 143.54615 133.01299 144.28537 133.01299 C 146.30591 133.01299 147.39011 127.0026 145.91166 124.07192 C 145.07387 122.43272 145.36956 122.23403 146.84801 123.32683 C 148.12933 124.32028 148.62215 124.27061 148.62215 123.12814 C 148.62215 121.88632 144.87675 117.11775 143.9404 117.11775 C 142.95477 117.11775 143.00405 117.91252 144.08824 118.70728 C 144.53178 119.05499 145.32028 119.84975 145.86238 120.44582 L 146.74945 121.53862 L 145.0246 121.24058 C 142.75764 120.89287 142.3141 121.7373 143.89112 123.62487 C 144.92603 124.81701 145.17244 125.66144 145.17244 127.79736 C 145.17244 130.97641 144.58106 131.62216 143.79255 129.33722 C 143.00405 127.2013 141.13135 125.46275 140.09643 125.86013 C 139.6529 126.00915 139.40649 126.35686 139.55434 126.60522 C 139.85002 127.15162 138.91367 131.96986 138.3223 132.96332 C 137.97732 133.50971 137.63235 133.41037 136.696 132.2679 C 135.26684 130.6287 134.72474 130.8274 133.88695 133.3607 C 133.54198 134.4535 132.80276 135.84433 132.26066 136.49007 L 131.3243 137.73189 L 131.57072 135.24826 C 131.71856 133.85742 131.8664 132.36724 131.96497 131.92019 C 132.30994 129.98296 131.12718 130.97641 130.09227 133.50971 C 129.00807 136.19203 129.00807 136.2417 128.6631 134.75153 C 127.43106 129.03918 122.55218 119.10466 120.97517 119.10466 C 120.13738 119.10466 120.53164 120.09811 122.2565 122.33338 C 123.19284 123.5752 124.27704 125.66144 124.67129 126.95293 C 125.06554 128.24442 125.85405 130.57903 126.39615 132.11888 C 127.62819 135.59596 127.77603 141.35799 126.69184 144.43769 C 125.75549 147.02066 122.89715 150.69644 121.36942 151.19316 C 120.77804 151.39185 119.74313 151.93825 119.10247 152.43498 C 118.16612 153.18007 117.08192 153.37876 113.43509 153.37876 C 107.91555 153.37876 105.94428 152.53432 104.5644 149.65331 C 102.79026 145.92787 103.13523 143.89129 106.78207 136.68876 C 109.34471 131.7215 110.28106 130.281 110.971 130.38034 C 111.5131 130.43001 112.79443 130.6287 113.9279 130.77772 C 115.75132 131.12543 116.04701 130.97641 117.03264 129.7346 C 118.51109 127.84704 118.2154 126.05882 115.8006 121.98567 C 114.07575 119.15433 113.9279 118.50859 113.87862 115.2302 C 113.87862 113.24329 113.6815 111.70344 113.43509 111.80279 C 112.69586 112.05115 112.10448 114.6838 112.35089 116.52168 C 112.5973 118.26022 112.54802 118.26022 110.03466 116.47201 C 108.95046 115.72692 108.16195 115.5779 105.84572 115.82627 C 101.75535 116.27332 101.26253 116.27332 98.99558 115.87594 C 96.23581 115.37921 94.36311 116.22365 92.09615 118.80662 L 90.32201 120.8432 L 90.6177 118.06153 C 91.01196 113.98838 92.68753 110.46163 95.34874 108.12701 C 97.07359 106.53749 97.66497 106.28913 97.76354 106.8852 C 98.00994 108.12701 98.69989 107.82898 99.88265 105.89175 C 101.55822 103.15975 102.59313 102.36499 104.26871 102.61335 C 106.23997 102.91139 106.6835 103.70615 104.86009 103.70615 C 103.43092 103.70615 101.85391 104.89829 102.64241 105.34535 C 102.83954 105.44469 104.31799 105.74273 105.84572 105.89175 C 108.80262 106.28913 109.68968 107.03422 110.37963 109.76621 C 110.87244 111.85246 111.85807 111.50475 111.5131 109.4185 C 111.36526 108.37538 110.23178 106.48782 108.75333 104.60026 C 107.37345 102.86172 106.23997 101.32187 106.23997 101.12318 C 106.23997 99.93103 109.54184 101.02383 111.5131 102.86172 C 112.8437 104.05386 113.63221 103.6068 112.74514 102.1663 C 112.10448 101.12318 112.44945 100.12972 113.87862 99.13627 C 114.91353 98.39118 119.49672 98.19249 123.24212 98.68922 C 135.56253 100.42776 148.52359 106.68651 152.41683 112.74657 C 153.15606 113.93871 155.07804 116.32299 156.70433 118.1112 C 159.56267 121.24058 159.61195 121.33993 158.3799 121.48894 C 157.68997 121.58829 155.7187 121.09156 153.99384 120.39615 C 150.39629 118.90597 150.59341 118.90597 150.59341 119.80008 C 150.59341 120.19746 151.52976 120.8432 152.66324 121.33993 C 153.79672 121.78698 155.27517 122.73076 155.91583 123.42618 C 157.44356 125.11504 161.13968 133.06266 162.76597 138.22861 C 163.5052 140.4142 164.63867 143.09653 165.3779 144.18932 C 167.497 147.41804 167.497 147.41804 166.26496 147.41804 C 165.57502 147.41804 163.80088 146.67295 162.27315 145.72917 C 159.06985 143.79194 158.1335 144.18932 160.40045 146.52394 C 161.23824 147.41804 162.1746 148.90822 162.421 149.90167 C 162.6674 150.84545 163.5052 154.22319 164.34298 157.40224 C 166.01856 164.05837 167.15203 166.64134 169.32042 168.42956 C 170.10893 169.12497 170.79887 169.82039 170.79887 169.91973 C 170.79887 170.31711 166.80706 169.27399 165.18077 168.47923 C 163.11094 167.38643 158.57703 162.61786 158.28134 161.22703 C 158.18278 160.58128 157.83781 158.7434 157.54212 157.1042 C 157.24643 155.41533 156.60577 153.72646 156.01439 153.18007 C 154.73307 151.88858 154.19097 152.48465 155.1766 154.07417 C 156.45793 156.0114 157.29571 163.76033 156.60577 166.84003 C 156.2608 168.23087 156.01439 170.11842 156.01439 171.0622 C 156.01439 172.00598 155.81726 172.75107 155.57086 172.75107 C 154.78235 172.75107 153.0575 170.21777 151.13551 166.04527 C 149.0164 161.6244 146.99586 158.84274 145.8131 158.84274 C 145.271 158.84274 145.17244 159.0911 145.46813 159.68718 C 145.66525 160.1839 145.91166 162.51852 146.0595 164.9028 C 146.25663 168.97595 146.15807 169.47268 144.67962 172.60205 L 143.10261 175.9798 L 141.96913 173.49616 C 141.37775 172.10533 139.75146 169.82039 138.3223 168.33021 C 135.66109 165.4492 135.02043 163.66099 135.46396 160.28325 C 135.66109 158.89242 135.51324 158.34602 135.06971 158.34602 C 134.23192 158.34602 133.88695 159.78652 134.13336 162.51852 C 134.33049 165.34985 134.87258 166.39298 137.63235 169.423 C 139.8993 171.90664 141.96913 175.83077 141.57488 176.92357 C 141.42704 177.27128 141.47632 177.81768 141.72273 178.16539 C 142.26482 179.0595 143.9404 177.17193 145.76382 173.49616 C 146.99586 171.11188 147.34083 169.6217 147.58724 166.3433 L 147.88293 162.12113 L 148.72071 163.85968 C 149.16425 164.80346 150.1006 166.79036 150.74126 168.28054 C 152.02258 171.16155 153.0575 172.55238 155.02876 173.89354 C 157.0493 175.33405 157.345 174.98634 157.64068 170.61515 C 158.18278 163.95902 158.03494 164.0087 161.6325 167.48578 C 163.7516 169.57203 164.88508 171.0622 165.13149 172.20467 C 166.01856 176.27783 170.79887 186.51038 173.60792 190.23583 C 176.12128 193.51422 180.95088 197.68672 182.03508 197.48803 C 183.36568 197.23967 183.21784 196.24621 181.73939 195.65014 C 180.01453 194.90505 176.71266 191.62666 177.6983 191.62666 C 178.09255 191.62666 180.55663 191.97437 183.16855 192.42142 C 187.65318 193.16651 188.24456 193.16651 191.74355 192.37175 C 196.03105 191.42797 199.6286 189.63976 203.76826 186.4607 C 208.99211 182.38756 211.35763 179.30786 213.871 173.29747 C 215.10303 170.26744 216.48292 166.49232 216.87717 164.95247 C 217.8628 161.12768 217.81352 155.41533 216.7786 152.78268 C 215.94082 150.49775 212.93464 146.4246 212.14614 146.4246 C 211.85045 146.4246 210.9141 145.8782 210.0763 145.23245 C 209.18924 144.5867 207.31654 143.44424 205.88737 142.69915 C 203.57114 141.40766 203.374 141.20897 204.06395 140.46388 C 204.50749 139.96715 204.80318 138.67567 204.80318 137.13581 C 204.80318 134.95022 204.60605 134.40382 203.4233 133.41037 C 202.3391 132.51626 202.0927 131.96986 202.38838 131.1751 C 202.93048 129.7346 205.09887 128.14507 207.07013 127.74769 C 207.9572 127.59867 209.0414 126.95293 209.43565 126.30719 C 209.8299 125.71112 212.5404 123.12814 215.448 120.54516 C 218.35562 117.96219 221.50964 115.0315 222.49527 113.98838 C 223.4809 112.89558 225.8957 110.80933 227.91625 109.31916 C 229.8875 107.7793 232.99225 105.246 234.81567 103.6068 C 236.5898 101.96761 239.0539 100.08005 240.28593 99.33496 C 241.51797 98.63955 244.08061 97.00035 245.95332 95.75853 C 263.4483 84.0358 280.99254 75.39277 297.10762 70.6242 C 299.5717 69.87911 303.5635 68.28958 306.0276 66.9981 C 313.5184 63.173305 313.86336 63.173305 313.41983 66.4517 Z" fill="#FFFFFF"/>
        </g>
        <g id="Graphic_72">
          <path d="M 318.39727 66.50137 C 320.07285 67.99155 320.51638 69.48173 319.72787 70.82289 C 319.4322 71.26994 319.03793 71.02158 318.24943 69.92878 C 317.46092 68.885655 316.7217 68.4386 315.73606 68.4386 C 314.0605 68.4386 313.4691 67.345804 314.35618 65.95497 C 315.19397 64.56414 316.37673 64.71316 318.39727 66.50137 Z" fill="#FFFFFF"/>
        </g>
        <g id="Graphic_71">
          <path d="M 133.7391 68.73664 C 136.20319 70.37583 139.25865 74.2503 139.25865 75.6908 C 139.25865 77.280325 141.37775 77.8764 147.09442 77.8764 L 152.71252 77.8764 L 154.68379 79.96265 L 156.60577 81.99922 L 156.31008 87.01616 C 156.16224 89.79782 156.16224 92.67883 156.40864 93.4736 C 156.70433 94.51672 157.93637 95.80821 160.49902 97.69577 C 164.8358 101.02383 166.1664 103.20943 165.32861 105.64338 C 164.49083 108.07734 162.56884 108.82243 157.09859 108.72308 C 151.1848 108.67341 150.347 108.42505 147.39011 106.18978 C 141.18063 101.47088 130.68365 97.84478 121.9608 97.39773 C 115.60348 97.05002 113.3858 97.39773 111.90736 99.03693 C 111.02029 99.9807 110.47819 100.1794 109.44328 99.93103 C 108.50693 99.68267 108.26052 99.38463 108.50693 98.78856 C 109.93609 95.41083 109.04902 93.67228 104.90937 91.63571 C 101.31181 89.89717 99.7348 88.10895 98.79845 84.73122 C 98.35492 83.09202 98.45348 82.44628 99.34055 80.65806 C 100.72043 77.72738 101.90319 77.280325 106.58494 77.97574 C 108.70405 78.27378 111.5131 78.37312 112.79443 78.17443 C 114.91353 77.82672 115.5542 77.37967 119.79241 73.1575 C 123.48853 69.43205 124.9177 68.33926 126.7904 67.743185 C 130.24011 66.70006 130.88077 66.74973 133.7391 68.73664 Z" fill="#FFFFFF"/>
        </g>
        <g id="Graphic_70">
          <path d="M 305.2391 74.995385 C 304.30273 77.37967 304.00704 78.62149 303.16926 83.58875 C 303.0214 84.38351 302.67644 86.17172 302.38075 87.56255 C 301.54296 91.63571 301.05015 97.64609 301.24727 102.41466 C 301.49368 110.26294 305.33765 120.44582 310.75862 127.549 C 314.10977 132.01954 314.15905 132.01954 307.80173 132.01954 C 302.08506 132.01954 280.8447 135.14891 266.6516 138.02992 C 256.89383 140.01683 252.01495 141.30831 248.6638 142.69915 C 245.36194 144.08998 239.39886 146.12656 234.86495 147.36837 L 231.46452 148.31215 L 229.6904 146.32525 C 227.32487 143.6926 225.84642 140.21552 226.1421 137.93058 C 226.53636 134.95022 231.36596 124.32028 233.78076 121.04189 C 239.34958 113.591 249.748 103.35844 257.73162 97.59642 C 263.49757 93.32458 269.90417 89.3011 270.79124 89.3011 C 271.1362 89.3011 272.31897 88.65535 273.45245 87.86059 C 276.06437 86.07238 286.26567 80.90643 290.79957 79.11821 C 292.72156 78.37312 296.81193 76.53524 299.91667 75.09473 C 303.0214 73.60455 305.7319 72.41241 305.92903 72.41241 C 306.07687 72.41241 305.78118 73.60455 305.2391 74.995385 Z" fill="#FFFFFF"/>
        </g>
        <g id="Graphic_69">
          <path d="M 82.43696 84.08547 C 85.68954 85.07892 88.745 87.46321 90.3713 90.24488 L 91.65262 92.43047 L 90.42058 91.78473 C 89.77992 91.43702 88.745 90.54291 88.10434 89.74815 C 87.46368 88.95339 86.62589 88.30764 86.23164 88.30764 C 85.29529 88.30764 85.34457 88.65535 86.52733 90.14553 C 88.05506 92.08276 87.85793 96.80166 85.98523 103.20943 C 84.9996 106.63683 84.4575 109.61719 84.40822 112.00148 C 84.35894 115.13085 84.50679 115.72692 85.68954 117.26677 C 86.42877 118.26022 87.46368 119.204 88.00578 119.35302 C 88.54788 119.50204 88.99141 120.09811 88.99141 120.59484 C 88.99141 121.09156 89.38566 121.98567 89.92776 122.63141 L 90.81483 123.77388 L 91.50477 122.33338 C 92.244 120.79353 92.63825 120.64451 98.35492 119.60138 C 100.12905 119.30335 102.19888 118.60793 102.9381 118.06153 C 103.72661 117.51514 104.86009 116.91906 105.55003 116.81972 C 107.42273 116.47201 111.02029 118.3099 112.15376 120.19746 C 113.28724 122.13469 113.53365 124.81701 112.44945 124.41963 C 109.29543 123.17781 104.76152 122.08501 102.9381 122.08501 C 101.70606 122.08501 99.14342 122.63141 97.27072 123.32683 C 95.39802 124.02225 93.0325 124.56865 92.04687 124.56865 C 87.56224 124.56865 83.02834 120.19746 82.33839 115.27987 C 81.99342 112.64722 82.43696 110.11392 84.35894 104.3519 C 85.83739 99.88136 86.47805 93.52327 85.59098 91.88407 C 84.80247 90.34422 84.11253 90.54291 84.16181 92.28145 C 84.2111 93.17556 83.669 94.46705 82.83121 95.60952 L 81.40204 97.4474 L 80.810665 94.06967 C 80.12072 90.39389 77.45952 84.08547 76.22748 83.29071 C 75.094 82.54562 79.13509 83.09202 82.43696 84.08547 Z" fill="#FFFFFF"/>
        </g>
        <g id="Graphic_68">
          <path d="M 68.14529 110.16359 C 71.00363 111.90213 70.75722 115.13085 67.75104 115.13085 C 66.666845 115.13085 66.22331 114.78314 65.53337 113.39231 C 65.08983 112.39886 64.202765 111.20671 63.562104 110.70999 C 62.92144 110.21326 62.57647 109.66686 62.72432 109.46817 C 63.36498 108.82243 66.61756 109.21981 68.14529 110.16359 Z" fill="#FFFFFF"/>
        </g>
        <g id="Graphic_67">
          <path d="M 55.923456 110.61064 L 57.106214 111.50475 L 55.332076 112.10082 C 54.346444 112.44853 53.114404 112.59755 52.67087 112.44853 C 52.178054 112.29951 51.19242 112.4982 50.4532 112.84591 C 48.62978 113.83936 48.43265 113.29296 49.9111 111.35573 C 50.946014 109.9649 51.48811 109.66686 52.96656 109.66686 C 53.95219 109.66686 55.282795 110.11392 55.923456 110.61064 Z" fill="#FFFFFF"/>
        </g>
        <g id="Graphic_66">
          <path d="M 63.41426 112.10082 L 64.59702 113.0446 L 63.266414 113.591 C 62.57647 113.83936 61.83725 114.33609 61.64012 114.58445 C 61.49228 114.88249 61.098024 115.13085 60.802334 115.13085 C 60.506645 115.13085 60.3588 114.98183 60.506645 114.83281 C 60.70377 114.6838 60.60521 113.93871 60.40808 113.14395 C 60.01383 111.75311 60.16167 111.55442 61.93581 111.20671 C 62.13294 111.20671 62.7736 111.6041 63.41426 112.10082 Z" fill="#FFFFFF"/>
        </g>
        <g id="Graphic_65">
          <path d="M 59.17604 112.4982 C 59.37317 112.99493 59.619576 117.61448 59.71814 122.73076 C 59.915265 130.38034 60.11239 132.51626 60.9009 134.60251 C 62.13294 137.93058 64.00564 140.56322 66.666845 142.74882 C 69.32805 144.98409 70.90506 147.3187 72.1371 150.89513 C 74.40406 157.55125 78.49443 161.8231 86.0838 165.59822 C 92.244 168.67792 98.69989 173.44649 103.62805 178.61244 L 105.15578 180.25164 L 104.26871 182.38756 C 100.96684 189.83845 101.31181 195.99785 105.25434 200.31937 C 106.48638 201.66053 106.63422 202.2566 106.88063 206.6278 C 107.17632 211.39636 107.17632 211.4957 106.09213 211.4957 C 105.50075 211.4957 102.83954 212.19112 100.17833 213.03555 C 94.26454 214.97279 93.67316 214.7741 91.30765 210.0552 C 90.12489 207.77026 89.18854 206.57812 88.00578 205.93237 C 86.28092 204.9886 84.26038 203.0017 81.20492 199.27624 C 80.36713 198.23312 79.3815 197.04098 79.03653 196.6436 C 73.56627 190.03714 69.32805 181.09607 66.32187 169.72104 C 66.026184 168.62825 64.794144 165.59822 63.562104 163.01524 C 62.379346 160.43227 61.39371 158.14733 61.39371 157.94864 C 61.39371 157.70027 60.60521 156.60748 59.619576 155.465 L 57.84544 153.37876 L 59.865984 153.37876 C 62.034374 153.37876 62.57647 152.68334 60.851616 152.23629 C 59.323886 151.8389 56.12058 153.27941 54.987105 154.86893 C 54.44501 155.61402 53.90291 157.20355 53.705783 158.39569 C 52.473743 167.18774 51.931646 169.423 50.74889 170.61515 C 49.22116 172.155 48.531215 172.05566 48.67906 170.36679 C 48.777623 168.33021 48.186244 166.98905 46.85564 166.39298 C 45.820727 165.89625 45.6236 165.94593 45.6236 166.59167 C 45.6236 166.98905 45.426474 167.18774 45.130785 167.03872 C 43.553773 166.04527 45.722164 161.32637 47.39774 162.02179 C 47.79199 162.1708 48.43265 162.46884 48.826905 162.61786 C 49.812537 163.01524 49.763255 161.97212 48.777623 161.42572 C 48.28481 161.12768 48.13696 160.82965 48.481934 160.63096 C 48.777623 160.48194 49.467566 158.69372 50.058945 156.70682 C 50.650324 154.76959 51.48811 152.13694 51.931646 150.89513 C 52.42446 149.45462 52.72015 147.21935 52.72015 144.68605 C 52.67087 139.8678 51.68524 137.48352 47.939836 133.60906 C 45.771445 131.42346 45.57432 131.02608 46.46139 131.02608 C 47.052767 131.02608 47.69343 130.77772 47.890554 130.43001 C 48.13696 130.03263 47.74271 129.98296 46.362825 130.18165 C 42.666704 130.77772 39.906935 128.49278 41.23754 125.95948 C 41.97676 124.66799 42.124607 124.07192 42.321733 121.58829 C 42.46958 119.50204 42.617423 119.35302 44.04659 119.80008 C 45.130785 120.14778 50.058945 127.0026 50.058945 128.14507 C 50.058945 129.68492 56.46555 136.93712 59.0282 138.27828 C 61.04874 139.32141 61.49228 138.626 59.66886 137.28483 C 58.88035 136.73843 57.106214 135.14891 55.67705 133.80775 L 53.163686 131.42346 L 54.050755 129.48623 C 55.08567 127.39998 55.332076 122.18436 54.49429 120.59484 C 54.00147 119.70073 54.100036 119.65106 55.47992 119.89942 C 56.41627 120.09811 56.95837 119.99877 56.95837 119.65106 C 56.95837 119.35302 56.564116 119.10466 56.12058 119.10466 C 54.642134 119.10466 52.178054 117.26677 51.931646 116.02496 C 51.586675 114.18707 51.98093 113.64067 53.6565 113.64067 C 54.54357 113.64067 55.923456 113.19362 56.71196 112.69689 C 58.58466 111.45508 58.73251 111.45508 59.17604 112.4982 Z" fill="#FFFFFF"/>
        </g>
        <g id="Graphic_64">
          <path d="M 65.82906 115.67725 C 67.20894 116.72037 68.29314 116.77005 70.46153 115.87594 C 71.3486 115.47856 71.39788 115.62758 71.10219 117.91252 C 70.85578 120.09811 68.73667 124.86668 67.11038 127.05228 C 66.22331 128.14507 65.23768 131.37379 64.59702 134.9999 L 64.00564 138.22861 L 62.970725 135.99334 C 62.42863 134.75153 61.6894 132.71495 61.39371 131.42346 C 60.851616 129.23787 60.9009 128.93983 62.379346 125.86013 C 63.80851 122.97912 64.05492 122.68109 64.89271 123.22748 C 66.666845 124.32028 66.371155 123.12814 64.39989 121.04189 C 62.13294 118.70728 61.54156 117.2171 62.379346 115.67725 C 63.06929 114.33609 64.00564 114.33609 65.82906 115.67725 Z" fill="#FFFFFF"/>
        </g>
        <g id="Graphic_63">
          <path d="M 62.330064 122.33338 C 62.330064 123.12814 62.034374 124.36995 61.64012 125.06537 C 60.99946 126.20784 60.95018 126.00915 60.95018 122.33338 C 60.95018 118.6576 60.99946 118.45891 61.64012 119.60138 C 62.034374 120.2968 62.330064 121.48894 62.330064 122.33338 Z" fill="#FFFFFF"/>
        </g>
        <g id="Graphic_62">
          <path d="M 41.28682 122.08501 C 41.188256 123.17781 40.64616 124.22094 39.906935 124.81701 C 39.266274 125.3634 38.52705 126.4562 38.23136 127.25097 C 37.5907 128.9895 37.442855 128.84049 37.0486 126.4562 C 36.555786 123.3765 38.428487 119.89942 40.39975 120.19746 C 41.23754 120.2968 41.385383 120.64451 41.28682 122.08501 Z" fill="#FFFFFF"/>
        </g>
        <g id="Graphic_61">
          <path d="M 109.44328 124.86668 C 114.27287 126.60522 114.32215 126.60522 114.61784 124.56865 L 114.91353 122.8301 L 115.8006 125.11504 C 116.49055 127.0026 116.58911 127.64835 116.09629 128.54245 C 115.60348 129.48623 115.2585 129.58558 113.58293 129.33722 C 112.49874 129.13852 110.37963 128.19475 108.8519 127.15162 C 106.33854 125.46275 105.69787 125.31373 102.10032 125.11504 L 98.10851 124.91635 L 100.07977 123.97257 C 102.44529 122.87978 104.36727 123.07847 109.44328 124.86668 Z" fill="#FFFFFF"/>
        </g>
        <g id="Graphic_60">
          <path d="M 108.95046 129.03918 C 109.0983 129.33722 108.8519 130.13198 108.3098 130.92674 C 107.81698 131.67183 106.23997 134.65218 104.8108 137.5332 C 102.88882 141.55668 102.29744 143.39456 102.29744 145.1331 C 102.29744 146.37492 102.1496 147.41804 101.95247 147.41804 C 101.0654 147.41804 99.34055 145.1331 99.34055 143.99063 C 99.38983 142.20242 101.31181 137.78156 103.43092 134.50317 C 104.41655 133.01299 105.64859 130.87707 106.09213 129.7346 C 106.78207 127.99605 107.12704 127.69802 107.81698 128.0954 C 108.26052 128.34376 108.80262 128.79082 108.95046 129.03918 Z" fill="#FFFFFF"/>
        </g>
        <g id="Graphic_59">
          <path d="M 202.73335 134.30448 C 204.4582 135.49662 204.06395 139.96715 202.24053 139.96715 C 202.0434 139.96715 201.99413 139.61944 202.19125 139.17239 C 202.38838 138.57632 202.28982 138.4273 201.797 138.57632 C 201.40275 138.67567 200.4664 139.96715 199.72717 141.45733 C 198.5937 143.64293 198.39657 144.5867 198.64298 146.17623 C 198.79082 147.21935 199.18507 148.46117 199.53005 148.85855 C 199.87502 149.3056 199.33292 149.15658 198.10088 148.46117 C 195.48895 147.02066 194.8483 145.8782 194.60189 142.2521 C 194.40476 139.66912 194.50332 138.9737 195.53824 137.48352 C 196.81956 135.59596 199.57933 133.50971 200.81137 133.50971 C 201.2549 133.50971 202.14197 133.85742 202.73335 134.30448 Z" fill="#FFFFFF"/>
        </g>
        <g id="Graphic_58">
          <path d="M 319.53075 136.39073 C 320.56566 137.08614 321.05848 139.66912 320.4178 140.86126 C 319.82644 141.95406 319.82644 141.95406 318.24943 140.31486 C 316.77098 138.77501 316.6724 138.52665 317.2145 137.3345 C 317.85517 135.94367 318.44655 135.69531 319.53075 136.39073 Z" fill="#FFFFFF"/>
        </g>
        <g id="Graphic_57">
          <path d="M 308.24526 141.25864 L 310.21653 141.55668 L 306.42184 144.43769 C 303.0707 146.97099 301.34584 148.65986 296.46696 154.12385 C 292.5737 158.59438 287.39914 168.57857 286.36423 173.7942 C 286.26567 174.24125 285.96998 175.4334 285.6743 176.5262 C 285.0829 178.76146 284.44225 182.98363 284.49153 184.42413 C 284.5901 188.59663 286.06854 196.49458 287.7934 201.95856 C 288.18765 203.10103 288.0398 203.05136 285.42788 201.3625 C 283.90015 200.36904 282.52026 199.57428 282.32314 199.57428 C 282.126 199.57428 281.53463 199.12723 280.99254 198.6305 C 279.85906 197.58737 267.63722 191.32863 263.399 189.59009 C 261.92055 188.99401 257.97803 187.5535 254.5776 186.41104 C 248.171 184.17577 240.1381 181.14574 237.57544 180.00327 C 236.78694 179.6059 234.7664 178.81113 233.09082 178.21506 C 231.46452 177.61899 230.08464 176.8739 230.03536 176.57586 C 229.29613 171.11188 229.34542 170.31711 230.4789 167.9825 C 232.64728 163.71066 240.82803 155.76304 245.2141 153.77614 C 246.15044 153.32908 248.9595 152.0376 251.3743 150.89513 C 257.28808 148.11346 268.42573 144.28867 273.79742 143.24554 C 278.4299 142.30177 281.3868 141.95406 286.11782 141.65602 C 288.97615 141.45733 293.06653 141.1593 295.23492 140.9606 C 299.17745 140.51355 304.59842 140.66257 308.24526 141.25864 Z" fill="#FFFFFF"/>
        </g>
        <g id="Graphic_56">
          <path d="M 119.79241 173.54583 C 119.2996 175.28437 118.65894 176.42684 117.91971 176.82423 C 116.53983 177.56931 107.96483 177.66866 107.2256 176.92357 C 106.83135 176.5262 107.02848 176.17848 107.91555 175.58241 C 110.37963 173.94321 112.30161 171.36024 114.47 166.69101 C 116.63839 161.97212 116.73695 161.87277 118.51109 161.72375 L 120.28523 161.57474 L 120.43307 166.24396 C 120.53164 169.37333 120.33451 171.75762 119.79241 173.54583 Z" fill="#FFFFFF"/>
        </g>
        <g id="Graphic_55">
          <path d="M 43.258084 168.28054 C 44.68725 168.67792 45.37719 168.67792 45.87001 168.28054 C 46.85564 167.48578 47.594865 168.08185 47.594865 169.72104 C 47.594865 173.14845 43.2088 173.19813 41.434664 169.77072 C 41.04041 168.97595 40.69544 167.93283 40.74472 167.4361 C 40.74472 166.93938 40.892567 166.79036 41.04041 167.13807 C 41.138975 167.48578 42.17389 167.9825 43.258084 168.28054 Z" fill="#FFFFFF"/>
        </g>
        <g id="Graphic_54">
          <path d="M 129.9937 190.53386 C 130.19083 190.73256 129.79658 192.4711 129.10664 194.35866 C 127.52962 198.9782 125.4598 207.22386 125.4598 209.06175 C 125.4598 210.20422 125.1641 210.65127 124.1292 211.04865 C 121.9608 211.8434 119.0039 213.43294 118.2154 214.2277 C 117.82115 214.62508 117.22977 215.1218 116.8848 215.3205 C 116.58911 215.56886 115.65276 216.5623 114.91353 217.55576 C 114.12503 218.59889 113.33652 219.44332 113.09011 219.44332 C 112.89299 219.44332 112.00592 218.4002 111.11885 217.15838 C 109.44328 214.62508 107.71842 208.6147 107.71842 204.9886 C 107.71842 197.68672 113.82934 191.67633 122.99572 189.9378 C 124.52345 189.68943 129.50089 190.0868 129.9937 190.53386 Z" fill="#FFFFFF"/>
        </g>
        <g id="Graphic_53">
          <path d="M 236.83622 190.88157 C 247.43176 192.96782 258.17515 196.79261 271.57975 203.3494 C 276.75432 205.8827 280.45044 208.51535 280.8447 209.95585 C 281.0911 210.89963 280.94325 210.9493 278.28205 210.70094 C 271.6783 210.00553 257.63306 214.07868 245.60834 220.1884 C 238.95533 223.56615 233.78076 226.69552 233.48507 227.4406 C 233.3865 227.68897 233.04154 227.88766 232.74585 227.88766 C 232.45016 227.88766 231.36596 228.7321 230.28177 229.72555 C 228.45835 231.56344 228.35978 231.56344 227.81769 230.61966 C 226.88134 228.98046 223.57947 221.4799 221.55892 216.26427 C 219.78478 211.79374 217.3207 207.47222 213.67387 202.30627 C 212.88536 201.21347 212.44183 200.12068 212.68823 199.82264 C 212.88536 199.57428 213.23033 198.6305 213.37818 197.78606 C 213.871 195.50113 215.59585 194.15996 220.62257 191.9247 C 224.91007 190.03714 230.62674 189.68943 236.83622 190.88157 Z" fill="#FFFFFF"/>
        </g>
        <g id="Graphic_52">
          <path d="M 172.91798 206.32975 C 177.20548 208.56502 181.00016 212.7872 181.93651 216.4133 C 182.67574 219.44332 181.59154 228.28504 180.31022 229.22882 C 179.22603 230.07326 177.9447 230.02359 177.20548 229.17915 C 176.9098 228.78177 175.13565 227.88766 173.36151 227.14257 C 170.2075 225.95043 169.9118 225.90076 167.497 226.5465 L 164.88508 227.24192 L 164.8358 224.70862 C 164.78652 223.31778 164.68795 221.72826 164.58939 221.18186 C 164.5401 220.63546 164.19514 218.59889 163.89945 216.71133 C 163.60376 214.7741 162.9631 211.79374 162.421 210.00553 C 161.8789 208.26698 161.53393 206.7768 161.58321 206.72713 C 161.6325 206.67746 162.47028 206.37943 163.40663 206.13106 C 166.21568 205.3363 171.14384 205.43565 172.91798 206.32975 Z" fill="#FFFFFF"/>
        </g>
        <g id="Graphic_51">
          <path d="M 202.73335 208.26698 C 205.14815 209.35978 206.67588 210.6016 209.48493 213.63163 C 211.75188 216.06558 213.23033 218.15183 213.47674 219.14529 C 213.62458 219.98972 213.96956 220.88383 214.16668 221.18186 C 214.3638 221.43022 214.85662 222.77139 215.30016 224.16222 C 215.6944 225.50338 216.58148 228.13603 217.27142 229.92424 L 218.55274 233.2523 L 216.13795 232.30853 C 210.22415 230.02359 200.95921 228.23537 195.9325 228.33472 C 193.27128 228.3844 188.78666 229.57653 187.80102 230.42097 C 186.96324 231.21573 186.56898 230.86802 187.0618 229.67588 C 187.3082 228.98046 187.8503 226.14912 188.24456 223.31778 C 188.83594 219.2943 190.0187 212.53883 190.46223 210.75061 C 190.46223 210.6016 190.51151 209.95585 190.51151 209.26044 C 190.51151 206.2304 197.16453 205.684 202.73335 208.26698 Z" fill="#FFFFFF"/>
        </g>
        <g id="Graphic_50">
          <path d="M 293.85503 209.60814 C 294.7421 210.45258 294.9885 211.19767 294.9885 213.18457 C 294.9885 216.16493 293.60863 218.44987 291.19383 219.642 C 289.17328 220.63546 288.77903 220.63546 289.51825 219.74136 C 290.1589 218.99627 290.35604 215.37017 289.81394 213.43294 C 289.3704 211.74407 290.701 208.51535 291.8345 208.51535 C 292.3273 208.51535 293.21437 209.01207 293.85503 209.60814 Z" fill="#FFFFFF"/>
        </g>
        <g id="Graphic_49">
          <path d="M 124.62201 218.54921 C 124.3756 224.41058 124.76985 230.07326 125.75549 235.68626 C 126.0019 237.0771 125.90333 237.32546 125.06554 237.32546 C 123.73494 237.32546 118.65894 234.59347 116.98336 233.00394 C 115.20922 231.31507 113.3858 225.55305 113.82934 222.87073 C 114.42072 218.99627 117.57474 215.37017 122.2565 213.18457 C 123.63638 212.53883 124.76985 211.99243 124.81914 211.99243 C 124.86842 211.99243 124.81914 214.97279 124.62201 218.54921 Z" fill="#FFFFFF"/>
        </g>
        <g id="Graphic_48">
          <path d="M 274.04383 234.09674 C 276.16294 242.39206 276.5079 247.55802 275.62084 255.45596 C 275.1773 259.28075 274.53665 263.30423 274.24096 264.39703 L 273.69886 266.38393 L 272.2697 263.25456 C 269.65777 257.3932 267.3908 255.50563 266.6516 258.53566 C 266.50374 259.33042 265.5674 261.51602 264.68032 263.45325 C 262.9062 267.1787 257.4852 273.5368 255.02113 274.82828 C 253.69053 275.5237 253.59196 275.5237 252.35992 273.8845 C 251.66998 272.94072 250.88148 271.5002 250.63507 270.65578 C 250.24081 269.21527 250.33938 269.06625 252.50777 267.7251 C 253.7891 266.93033 255.56323 265.5395 256.401 264.6454 C 261.5263 259.5291 271.974 239.2627 270.3477 237.6235 C 270.05202 237.32546 269.8056 237.4248 269.65777 237.87186 C 268.42573 241.69665 266.94728 245.12406 264.43392 249.9423 L 261.37846 255.70432 L 256.64742 255.70432 L 251.8671 255.65465 L 253.34556 254.56185 C 258.0766 251.08477 261.822 246.46522 265.91236 239.11367 C 267.34153 236.5307 270.84052 227.53996 270.84052 226.3478 C 270.8898 224.80796 272.95963 229.8249 274.04383 234.09674 Z" fill="#FFFFFF"/>
        </g>
        <g id="Graphic_47">
          <path d="M 174.495 228.9308 L 177.79686 230.47064 L 176.76195 231.56344 C 175.33278 233.05361 174.93853 235.4379 175.92416 236.28233 C 177.6983 237.7725 175.87488 238.26924 173.16439 237.0771 C 171.88307 236.58037 172.0802 237.47448 173.50936 239.2627 C 176.02272 242.19337 179.91597 242.39206 183.11927 239.70974 C 184.05562 238.91498 185.09054 238.07055 185.38623 237.82218 C 185.68192 237.6235 186.07617 236.43135 186.2733 235.18954 C 186.47042 233.89805 187.0618 232.5569 187.70246 231.96082 C 188.88522 230.81835 193.91194 229.37784 196.52387 229.37784 C 202.43766 229.37784 216.03938 232.80525 218.55274 234.8915 C 219.7355 235.83528 219.7355 235.93463 218.99628 237.2261 C 217.91208 239.064 218.4049 241.19992 220.12976 242.24305 L 221.55892 243.13715 L 220.37616 244.22995 C 219.7355 244.8757 218.25705 245.47177 217.17286 245.62078 C 214.85662 245.91882 214.75806 246.76325 216.92645 247.35932 C 218.89772 247.9554 222.1503 247.45867 224.46654 246.3162 C 226.83205 245.07438 230.92243 240.3555 230.92243 238.81564 C 230.92243 237.82218 231.021 237.7725 231.76021 238.36858 C 232.69656 239.16334 238.5118 247.01162 240.48306 250.19066 C 243.19355 254.4625 248.81165 267.7251 249.30446 270.85447 C 249.35375 271.40087 249.55087 272.0466 249.748 272.34465 C 250.88148 274.2322 251.27573 280.88833 250.63507 288.0412 C 249.60015 300.36 247.8753 308.3076 245.01697 313.5729 C 244.1299 315.2121 242.30648 318.54017 240.97587 321.0238 C 236.68837 328.9714 229.6411 335.08115 220.5733 338.70725 C 216.97573 340.14775 215.79297 340.34644 212.09685 340.3961 C 209.78062 340.3961 207.6615 340.2471 207.46438 339.99873 C 206.67588 339.25364 208.00648 338.90594 211.50548 339.05495 C 214.70878 339.1543 215.49729 339.0053 217.6164 337.8628 C 219.88335 336.621 222.54455 333.64064 222.54455 332.29948 C 222.54455 331.95177 223.33306 331.7034 224.71294 331.7034 C 228.40906 331.7034 231.11955 328.52436 231.71093 323.50743 C 232.00662 321.12314 232.3516 320.2787 233.6822 318.98722 C 234.96352 317.64606 235.35777 316.80163 235.60418 314.467 C 235.8013 312.8775 236.39268 310.59255 236.98406 309.35074 C 239.0046 304.92987 238.01898 292.06467 234.81567 281.6831 C 233.09082 275.97075 232.49944 274.92762 227.86697 268.91724 C 224.2694 264.29768 219.4891 259.7278 215.30016 256.89646 C 209.13996 252.77364 194.0105 246.6639 183.36568 244.08093 C 181.49298 243.5842 177.50117 242.29272 174.495 241.19992 C 171.5381 240.05745 168.38407 238.91498 167.54629 238.61695 C 165.27933 237.7725 164.44154 236.92808 164.68795 235.68626 C 164.78652 235.0902 164.93436 233.30198 164.93436 231.71245 C 164.98364 229.17915 165.13149 228.78177 166.31425 228.13603 C 168.3348 226.99356 170.94672 227.24192 174.495 228.9308 Z" fill="#FFFFFF"/>
        </g>
        <g id="Graphic_46">
          <path d="M 181.09873 237.87186 C 182.08436 238.81564 182.13364 239.01433 181.49298 239.66007 C 180.6059 240.60385 177.20548 240.60385 175.62847 239.70974 L 174.495 239.064 L 175.77631 238.91498 C 176.51554 238.81564 177.50117 238.3189 177.99399 237.7725 C 179.07818 236.58037 179.71884 236.58037 181.09873 237.87186 Z" fill="#FFFFFF"/>
        </g>
        <g id="Graphic_45">
          <path d="M 238.06826 238.61695 C 239.49743 238.96465 241.4687 240.05745 242.65145 241.0509 C 244.72128 242.8888 244.96768 243.7829 243.2921 243.7829 C 242.15863 243.7829 240.9266 245.17373 240.68018 246.6639 C 240.58162 247.65736 239.89168 246.96194 236.73766 242.59075 C 232.49944 236.7294 232.40087 237.02742 238.06826 238.61695 Z" fill="#FFFFFF"/>
        </g>
        <g id="Graphic_44">
          <path d="M 171.68594 241.34894 C 173.55864 241.945 173.55864 241.49796 171.68594 249.24688 C 170.74959 253.2207 170.7003 255.9527 171.58738 259.0324 C 171.88307 260.02584 171.68594 260.17486 169.76396 260.52257 C 167.10275 260.96962 167.00419 260.96962 164.93436 260.52257 C 163.35735 260.17486 163.30807 260.0755 163.65304 258.53566 C 164.19514 256.35007 163.99801 253.41938 163.2095 251.53182 C 162.86453 250.6874 162.71669 249.54492 162.91381 248.99852 C 163.11094 248.45212 163.5052 246.21685 163.85017 244.03126 C 164.73723 238.3189 164.49083 238.66662 167.44772 239.85876 C 168.87689 240.40516 170.79887 241.10058 171.68594 241.34894 Z" fill="#FFFFFF"/>
        </g>
        <g id="Graphic_43">
          <path d="M 227.17702 240.25614 C 228.0148 241.19992 228.0148 241.29927 227.2263 242.6901 C 226.28996 244.22995 222.74168 246.26653 220.91826 246.26653 C 219.83407 246.26653 219.83407 246.26653 221.1154 245.12406 C 221.80533 244.528 222.6924 243.33584 223.03737 242.54108 C 224.5651 239.2627 225.69858 238.61695 227.17702 240.25614 Z" fill="#FFFFFF"/>
        </g>
        <g id="Graphic_42">
          <path d="M 180.55663 244.3293 C 183.46424 245.2234 186.07617 245.9685 186.42114 246.06784 C 186.8154 246.16718 186.86467 246.76325 186.5197 248.1044 C 184.59772 256.25072 184.25275 259.33042 185.04125 261.41667 C 185.58335 262.75783 183.61209 263.7513 180.31022 263.80096 C 173.60792 263.80096 170.79887 257.98926 172.96726 248.60114 C 173.36151 246.91227 173.80505 244.92537 174.00218 244.1306 C 174.15002 243.38552 174.495 242.78945 174.79068 242.78945 C 175.03709 242.78945 177.64901 243.48486 180.55663 244.3293 Z" fill="#FFFFFF"/>
        </g>
        <g id="Graphic_41">
          <path d="M 194.35548 248.3031 C 198.15016 249.5946 198.88938 249.99197 198.5937 250.6874 C 197.70663 252.77364 196.4253 259.77748 196.4253 262.75783 L 196.4253 266.13557 L 193.66554 266.13557 C 186.07617 266.13557 184.25275 261.06896 187.50533 248.8495 C 187.89959 247.45867 188.34312 246.76325 188.9345 246.76325 C 189.37804 246.76325 191.84212 247.45867 194.35548 248.3031 Z" fill="#FFFFFF"/>
        </g>
        <g id="Graphic_40">
          <path d="M 204.60605 252.62462 C 206.77444 253.66775 209.68206 255.10825 211.06194 255.85334 L 213.67387 257.1945 L 212.19542 259.62846 C 210.372 262.6088 207.76007 268.32116 207.76007 269.3643 C 207.76007 270.50676 204.4582 270.30807 201.5013 268.91724 C 197.31237 266.93033 196.67171 264.59572 198.19944 256.6481 C 198.98795 252.42593 199.57933 250.73706 200.31855 250.73706 C 200.56496 250.73706 202.48694 251.5815 204.60605 252.62462 Z" fill="#FFFFFF"/>
        </g>
        <g id="Graphic_39">
          <path d="M 248.3681 258.0886 C 250.24081 259.3801 252.06423 260.91995 252.50777 261.51602 C 253.1977 262.6088 253.14843 262.6585 251.71926 262.6585 C 250.93076 262.6585 249.9944 263.0062 249.64944 263.40358 C 249.30446 263.85063 248.81165 263.99965 248.61452 263.80096 C 248.26955 263.40358 244.672 255.70432 244.86912 255.70432 C 244.9184 255.70432 246.4954 256.79712 248.3681 258.0886 Z" fill="#FFFFFF"/>
        </g>
        <g id="Graphic_38">
          <path d="M 217.12358 259.7278 C 218.25705 260.57224 220.67185 262.75783 222.446 264.54605 L 225.6493 267.82444 L 223.7273 269.3643 C 220.2776 272.09628 217.02501 275.27533 216.33507 276.6165 C 215.89154 277.46092 215.34944 277.90798 214.80734 277.80863 C 214.31453 277.7093 213.3289 277.5106 212.58967 277.3119 C 210.76625 276.9642 208.7457 273.8845 208.7457 271.54988 C 208.7457 270.55643 209.0414 268.86756 209.43565 267.77477 C 210.22415 265.48983 214.21596 258.18795 214.6595 258.18795 C 214.85662 258.18795 215.94082 258.88337 217.12358 259.7278 Z" fill="#FFFFFF"/>
        </g>
        <g id="Graphic_37">
          <path d="M 252.80346 264.4467 C 253.7398 265.39048 253.4934 265.8872 251.57142 266.88066 L 250.14225 267.67542 L 250.14225 265.98655 C 250.14225 263.50292 251.27573 262.85718 252.80346 264.4467 Z" fill="#FFFFFF"/>
        </g>
        <g id="Graphic_36">
          <path d="M 228.75404 272.14595 C 230.03536 273.83482 231.66165 276.66616 232.45016 278.50405 L 233.83004 281.78244 L 231.021 282.08048 C 227.47271 282.4282 224.3187 283.8687 221.9039 286.15363 L 220.0312 287.94184 L 218.60203 285.6569 C 215.94082 281.43473 216.03938 279.00077 218.99628 275.37467 C 220.47473 273.58646 225.69858 269.11593 226.28996 269.11593 C 226.38852 269.11593 227.47271 270.4571 228.75404 272.14595 Z" fill="#FFFFFF"/>
        </g>
        <g id="Graphic_35">
          <path d="M 254.8733 279.34848 C 255.6125 281.08702 255.51395 281.23604 253.4934 281.73277 C 252.11352 282.0308 252.11352 282.0308 252.11352 279.34848 C 252.11352 277.8583 251.96567 276.26878 251.81783 275.82173 C 251.22645 274.28188 254.18334 277.7093 254.8733 279.34848 Z" fill="#FFFFFF"/>
        </g>
        <g id="Graphic_34">
          <path d="M 215.64513 280.938 C 215.64513 282.2295 216.18723 283.76934 217.41927 285.75625 C 218.35562 287.39544 219.34125 288.83595 219.53838 288.98497 C 219.7355 289.134 219.78478 290.27646 219.68622 291.56794 L 219.4891 293.95223 L 217.12358 293.95223 C 213.37818 293.95223 204.65533 297.4293 202.83191 299.66458 C 202.48694 300.06196 202.0434 300.26065 201.797 300.11163 C 200.7128 299.4659 199.77645 303.5887 199.97358 307.86056 C 200.1707 312.6788 201.15634 314.6657 203.9654 316.1559 C 206.03522 317.199 211.55476 317.5964 214.46237 316.8513 C 215.6944 316.5036 216.8279 316.3049 216.87717 316.40425 C 216.97573 316.5036 216.18723 317.5467 215.10303 318.78853 C 214.06812 319.98067 213.0332 321.3715 212.88536 321.86823 C 212.58967 322.91136 212.4911 322.91136 209.23852 322.16627 C 207.26726 321.7192 206.3802 321.7192 205.04959 322.21594 C 203.47257 322.76234 203.22617 322.71267 201.5506 321.42118 C 200.26927 320.4774 199.18507 320.08 197.90375 320.08 C 196.37602 320.1297 195.98177 319.931 195.24255 318.58984 C 194.45404 317.09966 191.1029 314.318 190.11726 314.318 C 189.87085 314.318 189.52588 313.17553 189.42732 311.7847 C 189.27947 310.39386 188.83594 308.95335 188.3924 308.5063 C 187.80102 307.91023 187.75174 307.4135 188.146 306.3207 C 188.44169 305.52595 188.54025 303.93642 188.44169 302.74428 C 188.29384 301.6018 188.49097 299.8136 188.88522 298.7208 C 189.2302 297.67767 189.52588 296.23717 189.52588 295.54175 C 189.52588 293.40583 195.8832 287.6438 201.10706 285.06083 C 206.28163 282.47786 214.16668 279.10012 215.05375 279.05045 C 215.39872 279.05045 215.64513 279.74586 215.64513 280.938 Z" fill="#FFFFFF"/>
        </g>
        <g id="Graphic_33">
          <path d="M 233.73148 283.42164 C 234.56927 283.96803 236.19556 291.22023 236.14628 294.2006 L 236.097 296.68422 L 230.67602 297.72735 C 227.71912 298.3234 224.8115 298.96916 224.2694 299.16785 C 221.70677 299.9626 219.78478 294.6973 221.01682 290.12744 C 222.00246 286.551 226.9799 283.17327 231.41524 283.07393 C 232.3516 283.07393 233.4358 283.22295 233.73148 283.42164 Z" fill="#FFFFFF"/>
        </g>
        <g id="Graphic_32">
          <path d="M 253.00058 292.26336 C 253.34556 293.40583 253.59196 295.0947 253.59196 296.03848 C 253.59196 297.57833 253.39484 297.8267 252.26136 298.07505 C 251.47286 298.22407 250.8322 298.27374 250.7829 298.22407 C 250.73363 298.1744 250.93076 296.1875 251.27573 293.8032 C 251.57142 291.41893 251.96567 289.6804 252.1628 289.87907 C 252.31064 290.07777 252.7049 291.17056 253.00058 292.26336 Z" fill="#FFFFFF"/>
        </g>
        <g id="Graphic_31">
          <path d="M 189.42732 292.9091 C 189.08235 293.4555 188.3924 294.0019 187.80102 294.15092 C 186.96324 294.3496 187.0618 294.2006 188.19528 293.15747 C 189.87085 291.71696 190.21582 291.6176 189.42732 292.9091 Z" fill="#FFFFFF"/>
        </g>
        <g id="Graphic_30">
          <path d="M 188.54025 295.93913 C 188.54025 296.23717 188.19528 297.23062 187.80102 298.22407 C 187.16036 299.76392 186.96324 299.91294 185.7312 299.6149 C 184.99197 299.4162 184.30203 299.2672 184.30203 299.21752 C 184.25275 299.16785 184.74556 298.3234 185.38623 297.2803 C 186.5197 295.59142 188.54025 294.6973 188.54025 295.93913 Z" fill="#FFFFFF"/>
        </g>
        <g id="Graphic_29">
          <path d="M 236.78694 301.9992 C 236.73766 309.89713 235.16064 311.33764 227.71912 310.44353 C 222.9881 309.84746 222.05174 309.00303 222.05174 305.37693 C 222.05174 303.39002 222.29815 302.79395 223.62875 301.4528 C 225.3536 299.76392 225.55073 299.66458 230.67602 298.9195 C 232.54872 298.62145 234.175 298.27374 234.32286 298.12473 C 234.42142 298.02538 235.06208 297.92604 235.70274 297.92604 C 236.78694 297.92604 236.83622 298.07505 236.78694 301.9992 Z" fill="#FFFFFF"/>
        </g>
        <g id="Graphic_28">
          <path d="M 186.17473 301.00574 C 187.0618 301.70115 187.20965 302.29723 187.11108 304.78086 C 187.11108 305.67496 186.7661 306.46972 186.47042 306.56907 C 186.12545 306.6684 184.99197 307.01612 183.95706 307.36383 C 182.92215 307.66187 181.9858 307.86056 181.83795 307.7612 C 181.24657 307.11547 182.42933 302.59526 183.41496 301.55214 C 184.69628 300.26065 185.09054 300.1613 186.17473 301.00574 Z" fill="#FFFFFF"/>
        </g>
        <g id="Graphic_27">
          <path d="M 248.6638 311.0396 C 247.82602 313.32454 247.53033 312.1324 248.22027 309.2514 C 248.81165 306.91678 248.9102 306.81743 249.05806 308.1586 C 249.15662 308.95335 248.9595 310.2945 248.6638 311.0396 Z" fill="#FFFFFF"/>
        </g>
        <g id="Graphic_26">
          <path d="M 187.89959 309.89713 C 188.78666 311.586 188.6881 313.67225 187.70246 314.71538 C 186.8154 315.5598 185.53407 318.2918 184.69628 321.0238 L 184.25275 322.51398 L 182.7743 320.92445 C 180.95088 318.98722 180.70447 317.79508 181.1973 314.01996 C 181.6901 310.44353 182.42933 309.00303 184.05562 308.45663 C 185.7312 307.86056 187.16036 308.40696 187.89959 309.89713 Z" fill="#FFFFFF"/>
        </g>
        <g id="Graphic_25">
          <path d="M 91.11052 310.8906 C 91.7019 311.2383 92.88466 312.08273 93.77173 312.8278 C 95.79227 314.61603 99.38983 315.70883 103.52948 315.80817 C 104.46583 315.80817 104.46583 315.80817 103.52948 316.5036 C 102.98739 316.8513 101.36109 317.79508 99.93193 318.54017 C 97.51713 319.83166 97.22144 319.83166 95.15161 319.2356 L 92.93394 318.58984 L 93.96885 317.49704 C 94.60951 316.80163 94.80664 316.3049 94.46167 316.1062 C 94.16598 315.90752 93.42676 316.35457 92.83538 317.09966 C 91.40621 318.73886 89.2871 319.88133 88.30147 319.48395 C 87.21727 319.08657 85.98523 316.95064 86.3302 316.1062 C 86.47805 315.65916 86.77374 315.4108 87.02015 315.5598 C 87.21727 315.65916 87.85793 315.26178 88.4986 314.56636 C 89.2871 313.72193 89.53351 312.97684 89.38566 311.88404 C 89.13926 310.19517 89.48423 310.04615 91.11052 310.8906 Z" fill="#FFFFFF"/>
        </g>
        <g id="Graphic_24">
          <path d="M 226.4378 311.3873 C 228.0641 311.68535 230.52817 311.83437 231.90806 311.73502 L 234.37214 311.48666 L 234.37214 313.87094 C 234.37214 318.8382 229.98608 321.0238 223.97372 319.0369 C 221.21395 318.1428 219.83407 317.199 219.04556 315.65916 C 218.20777 314.1193 221.26323 309.99648 222.84024 310.59255 C 223.18522 310.6919 224.76223 311.0396 226.4378 311.3873 Z" fill="#FFFFFF"/>
        </g>
        <g id="Graphic_23">
          <path d="M 88.4986 312.57946 C 88.4986 313.3742 88.15362 313.82127 87.26655 314.01996 C 86.57661 314.21865 85.59098 314.76505 85.09816 315.26178 C 84.26038 316.1062 84.11253 316.1062 83.86612 315.46047 C 83.52115 314.56636 87.21727 310.59255 88.00578 311.08928 C 88.25219 311.2383 88.4986 311.9337 88.4986 312.57946 Z" fill="#FFFFFF"/>
        </g>
        <g id="Graphic_22">
          <path d="M 191.74355 316.35457 C 192.72918 316.95064 193.86266 318.0931 194.25691 318.88788 C 194.94686 320.22904 194.89758 320.4774 193.7641 322.91136 C 192.72918 325.1963 192.63062 325.84204 192.9756 328.4747 C 193.17272 330.1139 193.5177 331.85243 193.71482 332.29948 C 194.20763 333.5413 192.6799 333.44195 190.51151 332.15046 C 187.65318 330.41192 186.56898 329.1701 185.82976 326.53746 C 185.13982 324.2525 185.1891 323.85514 186.12545 320.57674 C 187.01252 317.3977 188.3924 315.31145 189.57516 315.31145 C 189.77229 315.31145 190.75792 315.80817 191.74355 316.35457 Z" fill="#FFFFFF"/>
        </g>
        <g id="Graphic_21">
          <path d="M 222.49527 319.83166 C 223.97372 320.37805 226.24067 320.77543 227.96553 320.77543 C 230.7253 320.77543 230.92243 320.87478 230.92243 321.9179 C 230.92243 324.00415 229.44398 327.5806 227.91625 329.0211 C 226.78277 330.1139 225.94498 330.41192 223.97372 330.51127 C 220.62257 330.6603 216.7786 329.46814 215.00447 327.67993 C 213.72315 326.38844 213.5753 325.9414 213.77243 324.05383 C 214.01884 322.06692 214.9552 320.52707 217.3207 318.24213 C 218.20777 317.3977 218.35562 317.3977 219.14412 318.0931 C 219.58766 318.4905 221.1154 319.28526 222.49527 319.83166 Z" fill="#FFFFFF"/>
        </g>
        <g id="Graphic_20">
          <path d="M 199.53005 321.42118 C 201.99413 322.51398 202.53622 323.45776 202.53622 327.1832 C 202.5855 330.41192 202.68407 330.6603 205.19743 334.13737 C 206.6266 336.12427 207.7108 337.9125 207.51367 338.0615 C 207.36582 338.2105 206.0845 338.35954 204.65533 338.35954 C 200.76209 338.4092 198.24872 337.06805 196.08033 333.74 C 194.50332 331.3557 194.20763 330.4616 194.05979 327.63025 C 193.86266 324.35186 193.91194 324.20284 195.58752 322.51398 C 197.55878 320.52707 197.41094 320.57674 199.53005 321.42118 Z" fill="#FFFFFF"/>
        </g>
        <g id="Graphic_19">
          <path d="M 210.42128 323.50743 C 211.89973 323.80546 212.2447 324.15317 212.7868 325.8917 C 213.52602 328.276 216.18723 330.36225 219.43981 331.25635 C 221.75605 331.85243 221.80533 332.49817 219.63694 334.8328 C 217.12358 337.61445 212.83608 338.7569 210.02703 337.41576 C 208.54858 336.72034 205.7888 333.44195 204.35964 330.75963 C 203.6697 329.5178 203.52186 326.4381 204.06395 324.74924 C 204.35964 323.80546 206.97157 322.663 208.10504 323.0107 C 208.40073 323.11005 209.43565 323.3584 210.42128 323.50743 Z" fill="#FFFFFF"/>
        </g>
        <g id="Graphic_18">
          <path d="M 238.95533 327.48124 C 238.5118 328.425 237.9697 329.07076 237.7233 328.92174 C 237.4276 328.72305 239.15245 325.7427 239.64527 325.7427 C 239.69455 325.7427 239.39886 326.53746 238.95533 327.48124 Z" fill="#FFFFFF"/>
        </g>
        <g id="Graphic_17">
          <path d="M 91.7019 326.78582 C 91.89903 327.0342 92.04687 328.425 92.04687 329.76618 C 91.99759 331.60406 92.244 332.49817 92.98322 333.24326 C 94.1167 334.38573 93.87029 334.4354 91.94831 333.44195 C 90.3713 332.5975 88.4986 330.21323 88.4986 328.9714 C 88.4986 326.88517 90.81483 325.29564 91.7019 326.78582 Z" fill="#FFFFFF"/>
        </g>
        <g id="Graphic_16">
          <path d="M 141.62416 326.8355 C 142.51123 327.7296 142.36339 329.26945 141.13135 331.2067 L 140.09643 332.94522 L 139.55434 331.60406 C 139.25865 330.90865 138.5687 329.81585 138.07589 329.26945 C 137.18882 328.276 137.18882 328.17665 138.0266 327.23287 C 139.01224 326.14008 140.7371 325.9414 141.62416 326.8355 Z" fill="#FFFFFF"/>
        </g>
        <g id="Graphic_15">
          <path d="M 104.12086 333.889 C 105.20506 334.2367 105.79644 335.57787 105.64859 337.1674 C 105.50075 338.90594 105.84572 339.65102 107.12704 340.3961 C 108.45764 341.19088 108.45764 341.19088 107.2256 340.9425 C 106.53566 340.7935 105.59931 340.64448 105.15578 340.64448 C 103.97302 340.64448 100.819 337.3661 100.819 336.12427 C 100.819 334.73344 101.65678 333.24326 102.39601 333.39228 C 102.74098 333.44195 103.52948 333.6903 104.12086 333.889 Z" fill="#FFFFFF"/>
        </g>
        <g id="Graphic_14">
          <path d="M 327.51437 301.89985 C 327.51437 302.1482 327.76078 302.39657 328.0072 302.39657 C 328.30287 302.39657 328.5 302.1482 328.5 301.89985 C 328.5 301.6018 328.30287 301.40312 328.0072 301.40312 C 327.76078 301.40312 327.51437 301.6018 327.51437 301.89985 Z" fill="black"/>
        </g>
        <g id="Graphic_13">
          <path d="M 325.34598 303.34035 C 325.14885 303.68806 325.09957 304.08544 325.2474 304.23446 C 325.69095 304.6815 326.18376 304.03577 325.93736 303.34035 C 325.74023 302.79395 325.64167 302.79395 325.34598 303.34035 Z" fill="black"/>
        </g>
        <g id="Graphic_12">
          <path d="M 116.39198 102.36499 C 115.75132 103.20943 114.91353 104.64993 114.61784 105.44469 C 114.12503 106.78585 114.17431 107.03422 115.45563 108.02767 C 116.19486 108.62374 117.52546 109.71654 118.36325 110.41195 C 122.2565 113.54133 127.03681 114.1374 131.22574 112.00148 C 132.60563 111.25639 133.93623 110.46163 134.08408 110.16359 C 134.33049 109.76621 134.72474 109.86555 135.3654 110.46163 C 136.25247 111.25639 136.30175 111.25639 136.30175 110.31261 C 136.30175 108.77276 132.21138 106.09044 128.90951 105.49436 C 127.77603 105.29567 125.85405 105.54404 123.48853 106.18978 C 115.35707 108.42505 114.32215 108.02767 117.03264 103.65648 C 118.70822 100.92449 118.7575 100.7258 118.11684 100.7258 C 117.82115 100.7258 117.08192 101.47088 116.39198 102.36499 Z" fill="black"/>
        </g>
        <g id="Graphic_11">
          <path d="M 130.43724 107.7793 C 130.63437 109.81588 129.40233 112.34918 128.6631 111.55442 C 128.121 111.00802 129.00807 107.18323 129.69801 107.18323 C 130.09227 107.18323 130.43724 107.48127 130.43724 107.7793 Z" fill="#FFFFFF"/>
        </g>
        <g id="Graphic_10">
          <path d="M 122.94644 108.62374 C 123.78422 109.17014 123.24212 110.16359 122.05937 110.16359 C 120.82733 110.16359 120.43307 109.61719 121.07373 108.82243 C 121.7144 108.07734 122.01008 108.02767 122.94644 108.62374 Z" fill="#FFFFFF"/>
        </g>
        <g id="Graphic_9">
          <path d="M 133.04916 108.62374 C 133.19701 108.8721 132.99988 109.31916 132.60563 109.66686 C 131.96497 110.16359 131.8664 110.11392 131.8664 109.21981 C 131.8664 108.17669 132.55635 107.82898 133.04916 108.62374 Z" fill="#FFFFFF"/>
        </g>
        <g id="Graphic_8">
          <path d="M 153.50103 133.85742 C 153.35318 136.63909 153.69816 138.77501 154.68379 141.45733 C 155.76798 144.33834 155.81726 145.77885 154.83163 146.7723 C 154.3881 147.26903 154.0924 146.92132 153.5996 145.08343 C 152.81109 142.50046 148.62215 137.63254 147.63652 138.22861 C 147.29155 138.4273 147.78436 139.22206 149.0164 140.36453 C 151.67761 142.84816 152.66324 145.23245 153.00821 150.00102 C 153.10678 150.9448 154.14169 150.24938 155.52157 148.31215 C 157.345 145.82852 157.39428 144.0403 155.76798 140.71224 C 154.9302 138.9737 154.58522 137.38418 154.53594 135.3476 C 154.53594 132.51626 153.5996 131.27445 153.50103 133.85742 Z" fill="black"/>
        </g>
        <g id="Graphic_7">
          <path d="M 137.7802 141.05995 C 137.73092 141.1593 137.63235 142.35144 137.53379 143.79194 C 137.33666 146.57361 136.00606 149.90167 134.37977 151.73956 C 133.14773 153.18007 133.04916 153.18007 132.11281 151.39185 C 131.0779 149.40495 131.17646 147.12 132.4085 144.5867 C 133.4927 142.30177 133.29557 141.01028 132.06353 142.69915 C 131.66928 143.19587 130.97934 144.83507 130.5358 146.27557 C 129.79658 148.70953 129.79658 148.9579 130.63437 150.84545 C 131.42287 152.68334 133.64054 155.31599 133.98551 154.81926 C 136.20319 151.68989 137.87876 148.7592 138.27301 147.41804 C 138.91367 145.18278 138.91367 141.60635 138.27301 141.20897 C 138.0266 141.05995 137.7802 140.9606 137.7802 141.05995 Z" fill="black"/>
        </g>
        <g id="Graphic_6">
          <path d="M 141.03278 143.84162 C 140.93422 144.0403 140.68781 144.98409 140.49069 145.97754 C 140.04715 148.36182 140.88494 150.19971 144.1868 154.07417 C 146.70017 157.05453 146.94658 157.25322 147.78436 156.50813 C 149.16425 155.21664 149.5585 152.9317 148.77 150.64676 C 148.37574 149.55397 148.12933 147.76575 148.2279 146.72263 C 148.32646 145.38147 148.12933 144.68605 147.6858 144.53703 C 147.09442 144.33834 147.04514 144.98409 147.34083 148.2128 C 148.03077 155.6637 147.78436 156.2101 145.0246 153.08072 C 142.01842 149.70298 141.57488 148.61019 141.87057 145.82852 C 142.11698 143.74227 141.72273 142.74882 141.03278 143.84162 Z" fill="black"/>
        </g>
        <g id="Graphic_5">
          <path d="M 144.08824 196.4449 C 144.43321 196.59392 144.87675 196.54425 145.0246 196.39523 C 145.22172 196.24621 144.92603 196.0972 144.38393 196.14687 C 143.84183 196.14687 143.69399 196.29589 144.08824 196.4449 Z" fill="black"/>
        </g>
        <g id="Graphic_4">
          <path d="M 77.16383 181.54312 C 77.16383 181.79149 78.2973 182.6856 79.67719 183.62937 C 83.669 186.36137 88.05506 192.12339 90.17417 197.339 C 91.11052 199.7233 91.30765 200.76642 91.01196 202.40562 C 90.3713 205.93237 92.244 208.81338 95.54586 209.35978 C 97.12288 209.60814 97.56641 209.40945 99.04486 207.91928 C 100.2769 206.67746 100.67115 205.8827 100.47402 205.1376 C 100.32618 204.54154 100.03049 204.19383 99.78408 204.34285 C 99.53767 204.49187 99.43911 204.83957 99.58696 205.08794 C 99.78408 205.3363 99.29127 206.0814 98.55204 206.7768 C 96.58078 208.6147 94.06742 208.36633 92.63825 206.18074 C 91.60334 204.64088 91.55405 202.50496 92.4904 201.31282 C 93.18035 200.41871 93.62388 195.60047 92.98322 195.60047 C 92.68753 195.60047 92.44112 196.14687 92.44112 196.84229 C 92.44112 198.72984 91.80046 198.2828 90.51914 195.45145 C 88.40003 190.8319 84.35894 185.91431 79.82503 182.38756 C 78.2973 181.19541 77.16383 180.8477 77.16383 181.54312 Z" fill="black"/>
        </g>
      </g>
    </g>
  </g>
</svg>
