<?xml version="1.0" encoding="UTF-8" standalone="no"?>
<!DOCTYPE svg PUBLIC "-//W3C//DTD SVG 1.1//EN" "http://www.w3.org/Graphics/SVG/1.1/DTD/svg11.dtd">
<svg xmlns="http://www.w3.org/2000/svg" xmlns:xl="http://www.w3.org/1999/xlink" version="1.1" xmlns:dc="http://purl.org/dc/elements/1.1/" viewBox="54 76.5 117 324" width="117" height="324">
  <defs>
    <clipPath id="artboard_clip_path">
      <path d="M 54 76.5 L 171 76.5 L 171 400.5 L 54 400.5 Z"/>
    </clipPath>
  </defs>
  <g id="Column_(11)" stroke-opacity="1" fill="none" fill-opacity="1" stroke-dasharray="none" stroke="none">
    <title>Column (11)</title>
    <g id="Column_(11)_Art" clip-path="url(#artboard_clip_path)">
      <title>Art</title>
      <g id="Group_766">
        <g id="Graphic_779">
          <path d="M 57.31218 86.76026 C 57.31218 91.77326 57.377665 92.94618 57.377665 92.94618 C 57.377665 92.94618 57.69779 93.18719 59.368794 93.18719 C 60.911256 93.18719 61.16833 93.82988 60.52564 95.37234 C 60.011486 96.65773 59.240255 98.97142 58.98318 100.51388 C 58.340485 103.47027 58.7261 103.85589 65.28157 105.26981 C 68.10941 105.9125 68.880645 107.06935 70.16603 112.72504 C 70.93726 116.45266 72.7368 120.69443 74.27926 122.36543 L 76.85003 125.19328 L 74.27926 128.53528 C 70.93726 132.77706 71.96557 136.63321 77.36419 139.20398 L 81.7345 141.2606 L 81.7345 199.74563 C 81.7345 232.0088 81.86304 270.6989 82.12011 285.60937 L 82.63427 312.98808 L 79.67788 312.98808 C 75.69319 312.98808 73.89365 315.81593 74.79342 320.4433 C 75.56465 324.0424 74.92284 324.79257 74.92284 324.79257 C 74.92284 324.79257 75.17903 324.428 70.80872 325.97047 C 67.46672 327.25586 65.28157 329.18394 63.610565 332.52594 C 60.140025 339.3385 60.52564 343.0661 65.15303 346.92225 C 68.23795 349.62156 68.53982 350.74628 68.53982 350.74628 L 68.53982 357.97657 C 68.53982 357.97657 67.85234 358.61926 64.12472 358.3622 C 61.939564 358.1051 59.75441 358.49072 59.368794 359.00488 C 59.111716 359.51903 58.59756 368.1311 58.469024 377.90004 L 58.21195 395.89544 L 81.86304 395.89544 C 94.84543 395.89544 118.88213 396.02397 135.07799 396.28105 C 151.40238 396.53813 165.41308 396.66667 166.31285 396.66667 C 167.59824 396.53813 167.85532 392.29636 167.59824 377.64296 L 167.21262 358.61926 L 163.99916 358.49072 C 155.51562 358.1051 154.5803 357.97657 154.5803 357.97657 L 154.67652 351.69175 C 159.46886 350.394 161.68547 343.4517 160.91424 339.7241 C 160.01447 335.3538 159.06967 332.23094 152.37321 329.22785 C 147.7938 327.2829 147.35001 326.8863 147.35001 326.8863 C 147.35001 326.8863 147.28915 326.48463 147.28915 320.7004 C 147.28915 314.402 146.1323 312.98808 140.73369 312.98808 C 139.4483 312.98808 138.29145 312.21685 138.29145 311.31708 C 138.29145 310.54585 138.29145 272.11283 138.16292 226.22457 C 138.03438 180.20777 138.03438 141.64621 138.16292 140.36083 C 138.29145 139.07544 139.70538 137.53298 141.50492 136.89029 C 145.23253 135.47636 145.87523 130.46336 142.7903 127.89259 C 141.1193 126.47867 141.24784 125.83597 143.94715 122.62251 C 145.61815 120.5659 147.41769 117.22389 147.93184 115.03874 C 148.83161 110.9255 152.68777 107.19789 158.98616 104.49858 C 162.4567 102.95612 162.84231 102.31342 162.4567 97.94311 C 162.35226 96.60149 159.66099 93.14577 159.66099 93.14577 L 164.72219 92.94618 L 164.64185 80.97603 L 111.04128 80.59041 L 57.31218 80.33333 L 57.31218 86.76026 Z" fill="black"/>
        </g>
        <g id="Graphic_778">
          <path d="M 161.611 90.25615 C 161.611 90.25615 160.76622 90.03799 154.08222 90.55215 C 149.96898 90.68069 127.3462 90.80922 103.95219 90.55215 L 61.148855 90.16653 L 61.148855 87.08161 L 61.148855 83.86814 L 111.27888 83.86814 L 161.40891 83.99668 Z" fill="#FFFFFF"/>
        </g>
        <g id="Graphic_777">
          <path d="M 80.55817 97.10761 C 83.00041 98.65007 86.08533 102.37769 87.49926 105.46262 C 89.55587 109.70439 90.58418 110.47562 91.74103 109.31877 C 92.6408 108.419 93.28349 106.36239 93.28349 104.43431 C 93.28349 97.62177 99.19626 94.15123 111.15035 94.15123 C 118.73412 94.15123 120.53366 94.53684 122.84735 96.97907 C 124.26128 98.52154 125.41812 100.83523 125.41812 102.12061 C 125.41812 103.406 125.93228 104.43431 126.57497 104.43431 C 129.40282 104.43431 131.84505 102.63477 131.84505 100.57815 C 131.84505 96.722 135.18705 95.17953 144.57036 94.79392 C 152.53975 94.4083 153.6966 94.66538 156.26737 97.36469 C 159.86645 101.09231 158.19545 102.24915 148.55506 102.63477 C 139.30028 102.89185 139.55736 102.89185 139.55736 105.077 C 139.55736 106.10531 140.7142 107.00508 141.9996 107.00508 C 144.18475 107.00508 144.31329 107.51923 143.28498 111.761 C 141.74252 118.70209 135.82974 123.71509 129.14574 123.71509 L 124.0042 123.71509 L 126.57497 120.37309 C 129.27428 116.90255 130.30259 110.86124 128.11743 110.86124 C 127.47474 110.86124 126.57497 112.53224 126.06082 114.58885 C 124.64689 120.88724 120.6622 123.45801 111.27888 123.71509 C 98.42503 124.22924 97.52526 124.1007 94.95449 119.85893 C 92.25518 115.23155 88.39902 114.33178 90.84126 118.83062 C 91.74103 120.50163 93.02641 122.17263 93.79764 122.68678 C 94.56887 123.20093 92.25518 123.71509 88.52756 123.71509 C 80.04402 123.71509 76.18786 120.50163 73.61709 110.98977 C 71.689015 104.43431 71.689015 104.17723 74.13125 103.53454 C 78.758635 102.24915 76.57348 100.57815 70.14655 100.57815 C 63.07693 100.57815 61.40593 98.26446 66.67601 95.69369 C 71.17486 93.50853 75.93079 93.89415 80.55817 97.10761 Z" fill="#FFFFFF"/>
        </g>
        <g id="Graphic_776">
          <path d="M 138.78613 130.01348 C 139.94298 131.04179 140.45713 132.32717 139.94298 132.84132 C 139.42882 133.35548 125.0325 133.99817 108.06542 134.12671 C 81.71502 134.25525 77.21617 134.12671 76.83056 132.45571 C 76.05933 128.47101 79.91548 127.69978 100.48165 127.31417 C 125.0325 126.80001 135.82974 127.57124 138.78613 130.01348 Z" fill="#FFFFFF"/>
        </g>
        <g id="Graphic_775">
          <path d="M 115.39212 149.4228 C 115.13504 161.24834 115.13504 161.50542 115.39212 243.513 C 115.52066 280.1465 116.03481 310.09596 116.54896 310.09596 C 117.96289 310.09596 118.3485 292.61472 118.09143 243.89862 C 117.3202 131.68448 117.3202 139.13971 119.63389 139.13971 C 121.30489 139.13971 121.56197 149.4228 121.56197 224.4893 C 121.56197 304.1832 122.20466 319.09366 124.90397 308.1679 C 125.28958 306.36835 125.28958 267.67825 124.90397 222.04707 C 124.38981 165.87573 124.51835 139.13971 125.41812 139.13971 C 126.83205 139.13971 127.08912 155.59265 127.3462 253.1534 L 127.47474 312.5382 L 120.27658 312.9238 C 116.42043 313.1809 107.03711 313.1809 99.45334 312.9238 L 85.57118 312.5382 L 85.57118 225.77469 L 85.57118 139.01117 L 100.61019 139.39679 L 115.6492 139.7824 L 115.39212 149.4228 Z" fill="#FFFFFF"/>
        </g>
        <g id="Graphic_774">
          <path d="M 133.13043 225.5176 C 133.13043 272.1771 133.51605 310.99573 134.0302 311.76696 C 134.41582 312.40966 134.0302 312.79527 133.0019 312.40966 C 131.45943 311.8955 131.07382 297.75626 130.81674 225.38907 C 130.55966 168.06088 130.81674 139.13971 131.71651 139.65387 C 132.48774 140.16802 133.0019 170.50312 133.13043 225.5176 Z" fill="#FFFFFF"/>
        </g>
        <g id="Graphic_773">
          <path d="M 142.51375 317.67974 C 143.15644 318.32243 143.41352 320.12197 143.15644 321.79297 L 142.77082 324.8779 L 115.13504 325.2635 C 82.48625 325.64913 78.86502 325.35223 78.66223 323.9942 C 78.55061 323.44864 78.11594 317.1656 78.50156 316.65143 C 79.27279 315.2375 141.09982 316.2658 142.51375 317.67974 Z" fill="#FFFFFF"/>
        </g>
        <g id="Graphic_772">
          <path d="M 147.78383 332.07605 C 154.59637 335.16098 155.11052 336.9605 150.09752 339.5313 C 147.39821 341.07375 138.52905 341.5879 111.27888 342.2306 C 91.74103 342.6162 76.83056 343.38744 78.11594 343.9016 C 79.27279 344.5443 96.75403 344.80137 116.93458 344.5443 C 151.25437 344.15868 145.97181 345.00495 149.5191 344.239 C 153.06638 343.47307 161.15184 344.80137 148.29798 346.72945 C 145.21306 347.11506 126.31789 347.37214 106.13734 347.11506 C 106.13734 347.11506 76.28706 347.2005 72.878 347.13113 C 69.46893 347.06177 67.318705 342.35914 67.318705 342.35914 C 64.619396 336.9605 65.519166 334.9039 72.33171 331.04774 C 77.08763 328.2199 77.9874 328.2199 109.47934 328.73405 C 139.30028 329.2482 142.25667 329.5053 147.78383 332.07605 Z" fill="#FFFFFF"/>
        </g>
        <g id="Graphic_771">
          <path d="M 148.79607 354.36142 C 150.46707 357.06073 150.09752 358.9406 147.65529 358.9406 C 123.10443 359.45476 73.77777 358.87634 72.878 357.97657 C 72.2353 357.33388 72.106766 355.91995 72.62092 354.7631 C 73.39215 352.7065 78.50156 352.2566 111.40742 352.77076 C 140.58567 353.2849 147.8963 352.9475 148.79607 354.36142 Z" fill="#FFFFFF"/>
        </g>
        <g id="Graphic_770">
          <path d="M 145.72721 362.79676 L 162.6943 362.79676 L 162.6943 376.2933 L 162.6943 389.78986 L 158.58106 389.9184 C 139.30028 390.5611 63.912434 389.9666 62.75559 389.06683 C 61.984356 388.2956 62.81986 381.949 62.56278 375.13646 L 62.3057 362.9253 L 66.54747 362.41115 C 68.86117 362.02553 83.77164 362.02553 99.71042 362.2826 C 115.6492 362.5397 136.3439 362.79676 145.72721 362.79676 Z" fill="#FFFFFF"/>
        </g>
        <g id="Graphic_769">
          <path d="M 99.19626 101.60646 C 97.78234 102.89185 98.42503 103.92015 100.73872 104.17723 C 101.89557 104.30577 105.36611 104.81992 108.19396 105.20554 C 113.20696 105.97677 118.9912 104.30577 118.9912 102.12061 C 118.9912 101.09231 100.22457 100.44961 99.19626 101.60646 Z" fill="black"/>
        </g>
        <g id="Graphic_768">
          <path d="M 107.55127 163.56203 C 107.6798 176.28735 108.19396 187.08459 108.83665 187.4702 C 109.47934 187.85582 109.9935 177.95835 109.9935 164.33327 C 109.9935 148.65156 109.47934 140.4251 108.70811 140.4251 C 107.80834 140.4251 107.42273 148.26595 107.55127 163.56203 Z" fill="black"/>
        </g>
        <g id="Graphic_767">
          <path d="M 107.42273 252.25362 C 107.42273 266.77848 107.93688 275.39056 108.70811 275.39056 C 109.47934 275.39056 109.9935 266.77848 109.9935 252.25362 C 109.9935 237.72877 109.47934 229.1167 108.70811 229.1167 C 107.93688 229.1167 107.42273 237.72877 107.42273 252.25362 Z" fill="black"/>
        </g>
      </g>
    </g>
  </g>
</svg>
