<?xml version="1.0" encoding="UTF-8" standalone="no"?>
<!DOCTYPE svg PUBLIC "-//W3C//DTD SVG 1.1//EN" "http://www.w3.org/Graphics/SVG/1.1/DTD/svg11.dtd">
<svg xmlns:xl="http://www.w3.org/1999/xlink" version="1.1" xmlns="http://www.w3.org/2000/svg" xmlns:dc="http://purl.org/dc/elements/1.1/" viewBox="32.67036 54 160.82964 369" width="160.82964" height="369">
  <defs>
    <clipPath id="artboard_clip_path">
      <path d="M 32.67036 54 L 193.5 54 L 193.5 423 L 32.67036 423 Z"/>
    </clipPath>
  </defs>
  <g id="Comet_(4)" stroke-opacity="1" stroke="none" fill="none" fill-opacity="1" stroke-dasharray="none">
    <title>Comet (4)</title>
    <g id="Comet_(4)_Layer_2" clip-path="url(#artboard_clip_path)">
      <title>Layer 2</title>
      <g id="Graphic_11">
        <title>Bee (1)</title>
      </g>
      <g id="Graphic_10">
        <title>Bee (1)</title>
      </g>
      <g id="Graphic_9">
        <title>Bee (1)</title>
      </g>
      <g id="Graphic_8">
        <title>Bee (1)</title>
      </g>
      <g id="Group_25">
        <g id="Graphic_34">
          <path d="M 113.08518 63.78261 L 124.22826 113.11348 L 166.9898 86.11064 L 139.98696 128.87217 L 189.31782 140.01526 L 139.98696 151.15834 L 166.9898 193.91987 L 124.22826 166.91704 C 124.22826 166.91704 115.55343 403.14083 113.09431 412.9773 C 110.6352 403.14083 101.9421 166.91704 101.9421 166.91704 L 59.18056 193.91987 L 86.1834 151.15834 L 36.852538 140.01526 L 86.1834 128.87217 L 59.18056 86.11064 L 101.9421 113.11348 Z" fill="#FFFFFF"/>
          <path d="M 113.08518 63.78261 L 124.22826 113.11348 L 166.9898 86.11064 L 139.98696 128.87217 L 189.31782 140.01526 L 139.98696 151.15834 L 166.9898 193.91987 L 124.22826 166.91704 C 124.22826 166.91704 115.55343 403.14083 113.09431 412.9773 C 110.6352 403.14083 101.9421 166.91704 101.9421 166.91704 L 59.18056 193.91987 L 86.1834 151.15834 L 36.852538 140.01526 L 86.1834 128.87217 L 59.18056 86.11064 L 101.9421 113.11348 Z" stroke="black" stroke-linecap="round" stroke-linejoin="round" stroke-width="2"/>
        </g>
        <g id="Line_33">
          <line x1="36.852538" y1="140.01526" x2="189.31782" y2="140.01526" stroke="black" stroke-linecap="round" stroke-linejoin="round" stroke-width="1"/>
        </g>
        <g id="Line_32">
          <line x1="58.987355" y1="193.9999" x2="166.7966" y2="86.19067" stroke="black" stroke-linecap="round" stroke-linejoin="round" stroke-width="1"/>
        </g>
        <g id="Line_31">
          <line x1="59.18056" y1="86.27069" x2="166.9898" y2="194.07993" stroke="black" stroke-linecap="round" stroke-linejoin="round" stroke-width="1"/>
        </g>
        <g id="Line_30">
          <line x1="113.08518" y1="64.0227" x2="113.08518" y2="413.2174" stroke="black" stroke-linecap="round" stroke-linejoin="round" stroke-width="1"/>
        </g>
        <g id="Line_29">
          <line x1="102.01768" y1="113.11186" x2="124.24082" y2="167.17132" stroke="black" stroke-linecap="round" stroke-linejoin="round" stroke-width="1"/>
        </g>
        <g id="Line_28">
          <line x1="124.24082" y1="113.11186" x2="102.01768" y2="167.17132" stroke="black" stroke-linecap="round" stroke-linejoin="round" stroke-width="1"/>
        </g>
        <g id="Line_27">
          <line x1="86.09952" y1="151.25316" x2="140.15898" y2="129.03002" stroke="black" stroke-linecap="round" stroke-linejoin="round" stroke-width="1"/>
        </g>
        <g id="Line_26">
          <line x1="86.09952" y1="129.03002" x2="140.15898" y2="151.25316" stroke="black" stroke-linecap="round" stroke-linejoin="round" stroke-width="1"/>
        </g>
      </g>
    </g>
  </g>
</svg>
