<?xml version="1.0" encoding="UTF-8" standalone="no"?>
<!DOCTYPE svg PUBLIC "-//W3C//DTD SVG 1.1//EN" "http://www.w3.org/Graphics/SVG/1.1/DTD/svg11.dtd">
<svg xmlns:xl="http://www.w3.org/1999/xlink" xmlns="http://www.w3.org/2000/svg" xmlns:dc="http://purl.org/dc/elements/1.1/" version="1.1" viewBox="36 63 292.5 324" width="292.5" height="324">
  <defs>
    <clipPath id="artboard_clip_path">
      <path d="M 36 63 L 328.5 63 L 328.5 387 L 36 387 Z"/>
    </clipPath>
  </defs>
  <g id="Compass_Rose_(2)" stroke-opacity="1" stroke="none" stroke-dasharray="none" fill="none" fill-opacity="1">
    <title>Compass Rose (2)</title>
    <g id="Compass_Rose_(2)_Layer_2" clip-path="url(#artboard_clip_path)">
      <title>Layer 2</title>
      <g id="Group_3">
        <g id="Graphic_23">
          <path d="M 179.78414 66.358 C 179.17206 66.83398 178.73126 68.23756 178.7502 69.32292 C 178.76915 70.40828 177.1096 73.07392 174.97677 75.28252 C 172.84395 77.49113 171.1871 80.31182 171.21146 81.70728 C 171.23581 83.10274 169.8566 84.05741 167.68588 84.0953 C 162.10404 84.19273 158.77952 89.21391 158.61556 97.59208 C 158.411 103.64449 158.90323 105.18688 161.23711 105.61144 C 162.79304 105.89448 163.86486 105.10027 163.84321 103.85987 C 163.74849 98.43308 172.13478 99.06218 173.78272 104.61696 C 175.43879 110.63689 174.99528 111.88542 170.65385 111.9612 C 164.29675 112.07216 131.74064 121.79124 123.5933 125.96601 C 86.70579 145.22169 56.56511 186.69377 53.463656 222.26544 C 52.31719 236.5545 51.72134 237.9608 47.08875 239.12734 C 37.361125 241.6236 36.218147 247.2271 45.23547 248.4656 C 50.21064 249.15424 51.15448 249.91326 50.57487 252.24985 C 50.13949 253.96353 50.48748 256.12884 51.28168 257.20066 C 52.22823 258.11473 53.85452 262.4291 55.015657 266.7516 C 57.321694 274.46625 68.725464 296.91156 76.21314 308.25815 C 82.42794 317.76577 94.11012 329.50443 104.63657 337.2307 C 116.89024 346.16763 133.80627 355.64355 139.72257 356.93617 C 142.21422 357.51307 145.6497 358.849 147.3742 359.90458 C 149.09871 360.96016 155.4964 363.17497 161.57588 364.93003 L 172.7964 367.99124 L 174.00354 374.9496 C 175.04481 381.29046 178.05303 384.8052 182.39447 384.72943 C 183.32477 384.7132 184.80492 380.6548 185.96143 375.82656 L 187.97788 366.95076 L 196.31546 364.78895 C 218.85279 358.6569 232.85418 352.2086 252.1687 339.15338 C 264.12466 331.03467 289.56352 304.5341 292.99438 296.7193 C 293.73986 295.0002 294.93697 292.49773 295.84563 291.2411 C 297.9595 287.94712 304.35877 272.48068 305.518 267.8075 C 306.1003 265.62595 306.78354 260.34068 307.17562 256.14618 C 307.565 251.79663 308.2726 247.90682 308.7269 247.2785 C 309.3363 246.64747 313.19363 245.49445 317.52423 244.79846 C 326.80024 243.08556 329.05023 238.70354 321.42836 237.4407 C 318.78437 237.02155 314.58175 236.1643 311.93776 235.74517 C 307.8929 235.04028 307.25917 234.27585 307.18068 229.77937 C 307.08866 224.50763 304.7772 216.48286 297.7636 196.75269 C 293.20294 184.26932 280.28384 163.86674 271.1312 154.8757 C 258.3474 142.22567 211.53515 117.14135 197.23255 115.21963 C 193.5032 114.81943 190.07314 113.79361 189.59716 113.18153 C 188.47932 111.33986 192.19863 102.27923 194.2143 102.24405 C 195.29965 102.2251 196.40395 103.29152 197.0458 104.5211 C 198.82986 108.98781 202.36085 106.9099 203.34066 100.84396 C 204.72608 91.35877 199.29737 82.45783 193.44331 84.73139 C 192.36607 85.21549 190.95167 84.15449 190.3044 82.6148 C 189.81218 81.07241 188.21837 78.61865 186.9509 77.08979 C 185.53108 75.71869 184.397 72.946715 184.05172 70.93646 C 183.86419 69.078555 183.5189 67.0683 183.50537 66.29305 C 183.32596 64.90029 181.15524 64.93818 179.78414 66.358 Z M 171.52418 144.05137 L 171.52418 144.05137 C 170.97705 148.24858 169.7115 155.7154 168.5604 160.85373 C 167.25426 165.99478 165.73814 176.87813 165.10362 184.95432 C 164.31405 193.03322 163.20084 200.34228 162.59146 200.9733 C 161.52505 202.0776 146.1866 194.12513 140.67861 189.56832 C 139.2615 188.35227 135.03182 185.94452 131.12306 184.15157 C 119.08128 178.46802 111.56575 174.41155 107.47759 171.22584 L 103.39213 168.19519 L 108.89819 163.75632 C 119.14588 155.51233 128.19918 149.92586 134.37145 148.11204 C 137.76634 147.1222 141.61555 145.50402 142.83702 144.39701 C 144.05848 143.29 149.30045 141.49242 154.3982 140.31775 C 159.49323 138.98803 164.43592 137.81607 165.20847 137.64748 C 171.22299 135.68132 172.16953 136.59539 171.52418 144.05137 Z M 201.23446 140.12062 L 201.23446 140.12062 C 205.59755 141.28524 211.21728 143.35853 213.71975 144.55564 C 216.06717 145.75545 218.87703 146.79209 219.6523 146.77856 C 220.5826 146.76232 223.09318 148.42458 225.29908 150.40235 C 227.50498 152.38013 231.42998 155.10339 234.0875 156.29779 C 236.59268 157.64995 239.57654 159.76924 240.68355 160.9907 C 242.4243 162.9766 242.28007 163.59951 239.97054 164.57041 C 238.2758 165.22039 232.60928 169.35186 227.10322 173.79072 C 221.59715 178.22958 214.70916 183.46806 211.79567 185.3801 C 206.88545 188.41267 203.97737 190.63481 196.95057 196.8063 C 193.89556 199.4963 194.2219 200.4212 192.5612 185.25054 C 191.47393 176.27381 189.60135 157.84979 188.6204 146.07943 C 187.83782 136.78719 188.29756 136.46897 201.23446 140.12062 Z M 251.83562 169.01626 L 251.83562 169.01626 C 251.84915 169.79152 256.2772 174.67737 261.64636 180.1672 C 267.80432 186.41874 273.21138 194.07928 276.58654 200.8447 C 282.53724 212.9936 285.7701 229.3776 282.2039 229.43985 C 280.9635 229.4615 271.01587 228.23925 259.82242 226.72855 C 248.78402 225.21514 236.34745 223.57104 232.46305 223.17355 L 225.1567 222.2154 L 228.27475 214.25095 C 229.90453 209.87975 232.60072 204.40424 234.11064 202.0514 C 235.62326 199.85363 236.82037 197.35116 236.80413 196.42085 C 236.7906 195.6456 237.9904 193.29818 239.50574 191.25545 C 241.02107 189.21272 243.12141 185.1435 244.003 182.33634 C 248.43532 169.696 249.1808 167.97691 250.4212 167.95526 C 251.19647 167.94173 251.8248 168.39606 251.83562 169.01626 Z M 106.53759 188.45817 L 106.53759 188.45817 C 110.82682 194.27704 115.91024 201.16774 118.12426 203.61067 C 121.92668 208.19725 133.37183 224.1277 133.38807 225.058 C 133.40431 225.98832 83.89079 232.74632 74.745475 233.06105 C 74.43537 233.06646 74.54983 230.73799 75.12132 227.93624 C 75.54046 225.29225 76.2264 220.16203 76.78707 216.74008 C 77.74522 209.43373 90.89445 180.8212 94.56967 178.12038 C 97.17035 176.0587 98.74522 177.4271 106.53759 188.45817 Z M 84.88989 254.44265 L 84.88989 254.44265 C 91.74733 256.33923 106.37085 258.87575 120.04512 260.34315 C 136.36067 262.07464 136.20292 261.9223 132.1275 268.35246 C 123.38352 282.77414 121.58245 286.21774 118.91332 293.24376 C 117.27813 297.30486 114.59546 303.55562 112.95215 307.15157 L 109.80704 313.5655 L 103.95918 307.30854 C 95.26898 298.15433 90.49024 290.9481 82.60856 274.80036 C 72.79861 254.8088 72.30639 253.2664 76.64782 253.19063 C 78.50844 253.15815 82.24049 253.7134 84.88989 254.44265 Z M 282.3458 255.3388 L 282.3458 255.3388 C 275.4887 280.11914 272.09032 289.79455 267.264 297.63372 C 260.9413 308.60097 258.18016 310.35525 255.61274 305.4369 C 254.4949 303.59524 252.43593 301.1496 250.71143 300.09402 C 249.14197 299.03573 247.8745 297.50687 247.85826 296.57656 C 247.84472 295.8013 242.7667 289.2207 236.74757 282.03615 C 221.70376 264.30733 221.5433 263.99993 227.5524 261.72367 C 230.32708 260.74464 238.82783 259.04528 246.4091 257.98236 C 254.14813 257.07178 262.49653 255.53017 264.96382 254.7116 C 267.58615 253.89035 272.6893 253.02578 276.41054 252.96083 C 282.14472 252.70564 283.08315 253.15455 282.3458 255.3388 Z M 210.5702 292.88467 L 210.5702 292.88467 C 219.19545 298.31766 242.346 309.54594 249.35848 311.43982 C 251.22722 311.8725 252.79667 312.9308 252.8075 313.551 C 252.87516 317.42727 221.2621 336.746 209.68469 339.89494 C 196.56217 343.38106 191.30397 344.24834 191.2796 342.85287 C 191.21736 339.2867 196.71381 289.86947 197.44035 287.065 C 198.02267 284.88347 197.8649 284.73113 210.5702 292.88467 Z M 163.42496 310.9235 L 163.42496 310.9235 C 164.07415 321.45887 165.19932 332.6063 165.72131 335.85427 L 166.75446 341.72998 L 160.07102 340.91605 C 152.45457 339.9633 141.84073 336.116 138.68828 333.22417 C 137.58398 332.15776 135.55208 331.26263 134.31167 331.2843 C 131.6758 331.3303 119.60424 323.9412 119.57447 322.23562 C 119.56635 321.77047 121.3999 320.18748 123.85907 318.90377 C 126.16319 317.62276 128.30955 316.1894 128.76658 315.71614 C 129.22361 315.24286 131.36997 313.8095 133.51904 312.5312 C 139.66425 309.1669 155.43424 297.41434 157.7113 294.58282 C 158.7723 293.1684 160.30386 292.056 160.92406 292.04517 C 161.54427 292.03434 162.62343 300.5459 163.42496 310.9235 Z" fill="black"/>
        </g>
        <g id="Graphic_22">
          <path d="M 182.96828 79.95108 C 185.35359 83.32161 185.37253 84.40697 183.72651 87.84786 C 182.07508 90.97866 182.09402 92.06402 183.6716 93.58746 C 185.24647 94.95586 186.17136 94.62952 187.98326 91.80612 C 190.85616 87.56832 195.50228 87.17702 197.74607 91.32551 C 199.98715 95.31895 198.62958 97.51403 194.1331 97.59251 C 192.11743 97.6277 189.35087 99.07187 187.67779 100.96226 C 184.941 104.112 184.83466 106.90562 185.59866 141.78942 C 186.29229 172.6419 187.083 182.3993 189.99492 198.1685 C 195.10384 224.29095 195.10655 224.446 187.1792 232.3393 L 180.31828 239.12828 L 180.47028 212.2936 C 180.52327 197.55834 180.87824 182.3525 181.12068 178.4708 C 182.6863 161.53776 182.76757 103.99483 181.37211 104.01919 C 179.66655 104.04896 178.68596 118.95552 177.72815 152.93879 C 177.44162 163.18029 177.0217 174.6649 176.6242 178.5493 C 176.2267 182.4337 175.8582 196.86428 175.79168 210.8243 C 175.72515 224.7843 175.31064 236.57902 174.85631 237.20734 C 174.24423 237.68332 171.73634 236.17611 169.20951 233.58355 L 164.47679 229.0132 L 166.622 209.74356 C 167.83073 199.02067 169.05568 189.2281 169.49918 187.97957 C 170.09774 186.72833 170.2176 184.70996 170.0436 183.6273 C 169.86961 182.54466 170.40321 177.5722 171.40467 172.74666 C 172.25108 167.92384 173.22547 161.5478 173.48145 158.44136 C 173.74013 155.48998 174.78567 144.30464 175.99439 133.58175 C 178.78225 106.70107 178.48105 98.33102 174.72464 96.3803 C 173.00555 95.63482 169.891 94.91369 167.72028 94.95158 C 163.37884 95.02736 162.57923 93.64543 165.47378 90.64804 C 167.9113 88.12392 172.10038 88.2059 174.47487 90.95622 C 175.58187 92.17769 176.99628 93.23869 177.77154 93.22515 C 179.7872 93.18997 179.38508 87.92364 177.17647 85.79082 C 175.75666 84.41971 175.7323 83.02425 177.07634 80.053925 C 179.16315 75.20945 179.78336 75.19862 182.96828 79.95108 Z" fill="#FFFFFF"/>
        </g>
        <g id="Graphic_21">
          <path d="M 174.40407 122.44243 C 174.13456 124.77361 173.72083 127.7277 173.74519 129.12316 C 173.62261 130.98648 171.46813 131.95468 165.58972 132.83278 C 149.8124 135.27955 132.56846 142.55997 110.77583 155.81353 C 93.43908 166.66283 74.740495 197.2334 71.27559 220.86884 C 69.47374 233.15307 67.35715 236.29198 60.68995 236.40835 C 56.96872 236.4733 56.6505 236.01357 57.02093 230.57866 C 57.78344 220.94925 60.48583 206.94322 61.86505 205.98856 C 62.63219 205.50987 63.228035 204.10359 63.20368 202.70813 C 63.14684 199.45205 71.51847 181.4696 77.10651 172.84166 C 87.37664 156.99746 109.53157 137.84384 127.8311 128.8389 C 140.90219 122.40681 169.01324 115.7122 173.85772 117.79901 C 174.48334 118.09829 174.67628 120.2663 174.40407 122.44243 Z" fill="#FFFFFF"/>
        </g>
        <g id="Graphic_20">
          <path d="M 199.64493 120.14067 C 203.3878 121.31612 210.72934 124.28994 216.04167 126.5237 C 221.20166 128.9152 227.1369 131.29317 229.1607 131.72314 C 231.03213 132.31087 232.6043 133.52422 232.61783 134.29947 C 232.63136 135.07473 233.41744 135.6814 234.34775 135.66516 C 236.67352 135.62456 260.82745 151.023 265.56018 155.59333 C 280.38668 169.75869 291.09176 187.71834 295.9076 205.9359 C 296.73428 208.86833 298.52916 213.95525 299.97874 217.0319 C 302.72558 223.343 303.33417 231.5526 301.1851 232.8309 C 300.41797 233.30958 297.62164 233.0482 294.96953 232.1639 C 291.53675 230.98302 290.11693 229.61192 290.07092 226.97605 C 289.95455 220.30885 279.38365 192.26546 276.90284 192.30876 C 276.28263 192.3196 275.1702 190.78802 274.6753 189.09058 C 273.5358 186.0085 259.4602 170.43416 252.69556 164.9687 C 251.1207 163.6003 248.28647 161.1682 246.39608 159.4951 C 237.72483 151.42625 208.7643 136.11172 202.56226 136.21998 C 201.1668 136.24434 197.27429 135.38169 193.84692 134.51092 C 187.76474 132.60081 187.60699 132.44847 187.4825 125.31611 C 187.33364 116.7883 188.41088 116.3042 199.64493 120.14067 Z" fill="#FFFFFF"/>
        </g>
        <g id="Graphic_19">
          <path d="M 232.59225 177.26217 C 231.67277 177.89861 229.85005 180.1018 228.64753 182.29418 C 225.48077 187.4677 201.34456 217.5128 199.95993 218.15735 C 199.49748 218.32052 198.20565 215.3962 197.20498 211.3811 C 195.03775 202.73343 195.33973 202.26286 215.10858 188.57934 C 222.61677 183.33003 228.73492 178.4152 228.7214 177.63993 C 228.70515 176.70963 229.93473 176.06777 231.48524 176.0407 C 233.03576 176.01364 233.50903 176.47068 232.59225 177.26217 Z" fill="#FFFFFF"/>
        </g>
        <g id="Graphic_18">
          <path d="M 239.7625 179.3084 C 237.5477 185.70609 220.01836 221.0643 218.94383 221.70345 C 217.2545 222.66352 204.6683 221.33223 204.64665 220.09182 C 204.79358 219.62396 210.26446 213.16944 216.80716 205.9207 C 223.50491 198.66927 228.96767 191.7496 228.94873 190.66423 C 228.92978 189.57887 230.437 187.071 232.41747 185.02014 C 234.39795 182.9693 236.3649 180.14319 236.95804 178.58185 C 237.39884 177.17827 238.6176 175.91621 239.39285 175.90268 C 240.4782 175.88373 240.49986 177.12414 239.7625 179.3084 Z" fill="#FFFFFF"/>
        </g>
        <g id="Graphic_17">
          <path d="M 122.92159 185.22532 C 128.71532 188.38125 137.95806 193.64836 143.4498 197.27487 C 148.7838 200.74903 155.3609 204.35658 157.86336 205.5537 C 162.55008 207.48816 163.99697 210.40978 161.08076 212.16676 C 160.16128 212.8032 159.86471 213.58387 160.18564 214.19866 C 160.50657 214.81346 159.91613 216.52984 158.85784 218.0993 C 157.04053 220.6126 155.94435 220.01134 145.39083 210.73455 C 138.9336 205.10862 130.10729 197.04247 125.84513 192.7741 C 121.42791 188.50846 116.07228 183.79389 114.03225 182.43361 C 107.28657 178.0535 111.96517 179.52282 122.92159 185.22532 Z" fill="#FFFFFF"/>
        </g>
        <g id="Graphic_16">
          <path d="M 117.24153 188.58153 C 117.2686 190.13204 128.94807 201.71565 143.28236 214.33861 L 154.1514 223.9201 L 146.24378 224.05812 L 138.33618 224.19615 L 131.96363 214.53618 C 128.46048 209.32398 124.49218 204.1199 123.07507 202.90385 C 121.66067 201.84285 120.54013 199.84613 120.52118 198.76078 C 120.49953 197.52037 120.01814 196.59818 119.39793 196.609 C 118.62268 196.62254 116.87922 194.4816 115.44046 192.02513 C 113.20208 188.18674 113.0335 187.4142 114.89411 187.38172 C 116.13452 187.36007 117.23071 187.96132 117.24153 188.58153 Z" fill="#FFFFFF"/>
        </g>
        <g id="Graphic_15">
          <path d="M 235.80573 228.07835 C 245.5956 229.14826 258.18452 230.6346 263.7826 231.46747 C 269.37797 232.1453 276.21917 233.11157 279.17055 233.37025 C 286.1641 234.17877 305.78443 238.64435 305.79797 239.4196 C 305.80338 239.7297 286.422 240.068 262.8461 240.01423 C 239.11515 239.96316 211.81803 239.97434 202.0498 240.14484 L 184.52902 240.45067 L 190.0026 234.1512 C 193.0441 230.68594 195.46266 227.07646 195.44642 226.14615 C 195.41394 224.28554 206.4334 224.7136 235.80573 228.07835 Z" fill="#FFFFFF"/>
        </g>
        <g id="Graphic_14">
          <path d="M 163.01018 233.84686 L 169.95422 240.70508 L 115.83866 241.49457 L 61.570756 242.44182 L 78.56143 238.42288 C 87.98436 236.24213 99.42838 234.3363 104.07721 234.10004 C 110.4316 233.83403 148.8058 228.66635 155.13854 227.15993 C 155.60369 227.1518 159.22129 230.03553 163.01018 233.84686 Z" fill="#FFFFFF"/>
        </g>
        <g id="Graphic_13">
          <path d="M 173.58805 244.5191 C 174.67882 244.81026 171.49853 249.20853 166.46574 254.10443 C 159.29742 261.05388 156.69132 262.80545 153.88957 262.23396 C 137.84894 258.4814 127.89319 256.794 114.53172 255.47624 C 105.98767 254.69478 97.7456 253.44276 96.33661 252.69186 C 94.92762 251.94097 88.23606 250.66188 81.55533 250.003 C 59.486645 247.44134 61.33102 246.47856 90.31205 245.1972 C 119.13803 243.91855 170.00293 243.496 173.58805 244.5191 Z" fill="#FFFFFF"/>
        </g>
        <g id="Graphic_12">
          <path d="M 302.7619 243.19496 C 302.77272 243.81516 297.36217 244.8402 290.86085 245.57407 C 284.20177 246.1556 275.6956 247.54486 271.83557 248.54283 C 267.97282 249.38575 260.39967 250.91382 254.82866 251.63146 C 244.7747 253.20284 214.32163 259.00774 206.60426 261.15873 C 203.51677 261.9881 201.0197 261.1011 196.4664 257.92352 C 187.8249 251.56023 181.84095 246.39133 181.81659 244.99587 C 181.80847 244.53072 209.08935 243.58923 242.2703 243.01006 C 275.6063 242.42817 302.75107 242.57475 302.7619 243.19496 Z" fill="#FFFFFF"/>
        </g>
        <g id="Graphic_11">
          <path d="M 67.94872 252.41188 C 68.10377 252.40918 69.438905 257.81432 71.10038 264.14435 C 74.26016 276.34197 83.72754 294.47833 87.47583 295.96388 C 88.72436 296.4074 89.67361 297.4765 89.69255 298.56186 C 89.70879 299.49217 94.45776 304.9928 100.14515 310.94238 C 105.82983 316.7369 111.67498 322.8388 113.10022 324.52 C 114.52274 326.04616 118.60008 328.61166 122.04098 330.2577 C 125.47916 331.74865 130.48681 334.2979 132.9947 335.80513 C 139.8846 339.56232 150.6562 343.56196 159.5293 345.42336 C 166.53367 346.8521 167.31975 347.45875 168.33667 352.40415 C 169.0083 355.3393 169.36711 358.1248 169.06242 358.4403 C 167.53897 360.0179 155.26287 358.6812 150.10559 356.44474 C 129.79196 347.8036 120.87285 343.30634 114.74467 338.76035 C 110.97202 335.87934 106.26635 332.8595 104.3895 331.96168 C 102.50994 330.9088 96.9749 324.80147 92.05464 318.37323 C 87.13438 311.94498 82.37459 305.82412 81.2757 305.0678 C 75.92818 300.8184 62.130986 274.5374 58.177006 261.26796 L 54.88112 250.1584 L 61.41221 251.1301 C 64.989215 251.68805 67.94601 252.25683 67.94872 252.41188 Z" fill="#FFFFFF"/>
        </g>
        <g id="Graphic_10">
          <path d="M 182.39812 251.65495 C 184.60402 253.63273 188.85265 257.12583 192.15202 259.5498 C 196.39795 262.88786 197.67354 264.88188 197.24898 267.21576 C 196.8163 269.0845 195.80402 273.28982 194.93326 276.7172 C 194.0625 280.14455 192.3832 290.56545 191.3079 300.04523 C 190.07482 309.37265 188.54788 319.6358 187.82404 322.5953 C 187.1002 325.5548 186.30522 333.3236 185.95103 339.6888 C 185.59684 346.05404 184.76126 351.49706 183.99142 351.8207 C 183.21887 351.9893 182.94395 354.01036 183.4497 356.328 C 183.96357 359.1108 183.6697 360.04653 182.41577 359.29292 C 181.31688 358.5366 180.76512 353.5831 180.77943 345.51773 C 180.88385 333.72843 179.60022 269.0748 178.94832 258.3844 C 178.9023 255.74853 178.38032 252.50057 177.8881 250.95818 C 176.7405 247.41095 177.82856 247.54706 182.39812 251.65495 Z" fill="#FFFFFF"/>
        </g>
        <g id="Graphic_9">
          <path d="M 302.3609 255.76493 C 301.79754 259.03183 300.78255 263.0821 300.03166 264.4911 C 299.28076 265.9001 296.9163 272.6106 294.86468 279.47073 C 290.46485 293.97168 285.17067 301.6639 267.34093 319.81145 C 255.30028 331.9642 247.7975 337.5236 229.83514 348.07362 C 222.6181 352.23216 203.65777 358.92214 195.15432 360.46646 C 189.12356 361.5023 188.50065 361.3581 188.45193 358.56717 C 188.30308 350.03936 190.43861 347.9858 202.81023 345.90867 C 216.41684 343.4998 237.6461 333.51313 247.42052 324.8121 C 271.24584 303.61305 278.93152 290.76083 285.40272 261.64448 L 288.1403 249.65412 L 294.33422 249.0807 C 302.8512 248.31165 303.3245 248.76868 302.3609 255.76493 Z" fill="#FFFFFF"/>
        </g>
        <g id="Graphic_8">
          <path d="M 176.23894 289.76156 C 176.76477 311.00087 177.5485 338.1294 177.91736 350.37574 C 178.56035 369.4416 178.4459 371.7701 176.8169 367.30067 C 175.67741 364.2186 174.32604 357.88315 173.77428 352.92963 C 173.07018 348.13387 172.37149 343.6482 171.89822 343.19118 C 170.62262 341.19716 169.14946 327.8844 167.31556 302.7905 C 166.29402 288.69437 164.95155 273.98345 164.41603 269.96024 C 163.52169 263.15152 163.81285 262.06075 168.37778 257.01792 C 171.11727 254.02324 173.8649 251.4937 174.4851 251.48288 C 174.95025 251.47476 175.87087 268.6746 176.23894 289.76156 Z" fill="#FFFFFF"/>
        </g>
        <g id="Graphic_7">
          <path d="M 151.7811 265.83803 C 153.96535 266.5754 155.84762 267.78333 155.85844 268.40353 C 155.87198 269.1788 151.31517 274.68677 145.83617 280.67615 C 115.24736 314.24603 112.65209 316.6178 119.41287 304.09193 C 121.21665 300.80338 123.15383 296.2717 123.88849 293.9324 C 124.46539 291.44077 128.21176 283.93065 132.12401 277.03803 C 139.79886 263.5656 142.10298 262.2846 151.7811 265.83803 Z" fill="#FFFFFF"/>
        </g>
        <g id="Graphic_6">
          <path d="M 224.50472 273.71944 C 226.41946 276.788 232.4359 283.8175 237.96283 289.45966 C 243.48705 294.94678 247.9178 299.9877 247.93133 300.76294 C 247.95028 301.8483 245.90484 300.17792 236.1374 291.5078 C 233.30047 288.92065 225.58118 282.07596 218.81113 276.3004 C 206.68274 265.6552 206.68274 265.6552 211.00794 264.64912 C 216.26344 263.6268 219.5574 265.74068 224.50472 273.71944 Z" fill="#FFFFFF"/>
        </g>
        <g id="Graphic_5">
          <path d="M 219.86052 283.1064 C 225.53168 288.12566 230.72414 292.3778 231.1893 292.36967 C 231.8095 292.35884 235.1143 295.09293 238.4272 298.29216 L 244.57975 304.2336 L 237.2382 301.2598 C 233.33216 299.6219 228.95014 297.3719 227.69078 296.3082 C 226.43413 295.39954 222.83548 293.60117 219.86786 292.4122 C 212.84455 289.8981 199.4947 280.35993 199.4514 277.8791 C 199.43515 276.9488 200.1617 274.14435 200.89906 271.9601 L 202.3765 267.74666 L 205.9968 270.78543 C 207.88719 272.45852 214.18666 277.9321 219.86052 283.1064 Z" fill="#FFFFFF"/>
        </g>
        <g id="Graphic_4">
          <path d="M 160.70484 279.48602 C 160.79957 284.9128 159.89362 286.3245 151.8004 293.6003 C 146.91455 298.02834 142.48031 301.673 141.8601 301.68383 C 141.39495 301.69195 137.55386 303.77528 133.56854 306.4815 C 129.42546 309.0354 125.43202 311.2765 124.65676 311.29002 C 123.72646 311.30626 131.02276 302.8036 140.61236 292.3997 C 150.20196 281.99583 158.73868 273.4715 159.35888 273.46068 C 159.97909 273.44985 160.648 276.22995 160.70484 279.48602 Z" fill="#FFFFFF"/>
        </g>
      </g>
    </g>
  </g>
</svg>
