<?xml version="1.0" encoding="UTF-8" standalone="no"?>
<!DOCTYPE svg PUBLIC "-//W3C//DTD SVG 1.1//EN" "http://www.w3.org/Graphics/SVG/1.1/DTD/svg11.dtd">
<svg xmlns="http://www.w3.org/2000/svg" xmlns:dc="http://purl.org/dc/elements/1.1/" version="1.1" xmlns:xl="http://www.w3.org/1999/xlink" viewBox="33.75 117 297 255.30724" width="297" height="255.30724">
  <defs>
    <clipPath id="artboard_clip_path">
      <path d="M 33.75 117 L 330.75 117 L 330.75 372.30724 L 33.75 372.30724 Z"/>
    </clipPath>
  </defs>
  <g id="Crab_(2)" fill-opacity="1" stroke="none" stroke-dasharray="none" stroke-opacity="1" fill="none">
    <title>Crab (2)</title>
    <g id="Crab_(2)_Layer_2" clip-path="url(#artboard_clip_path)">
      <title>Layer 2</title>
      <g id="Group_3">
        <g id="Graphic_74">
          <title>path27</title>
          <path d="M 258.29104 182.38744 C 244.83131 157.99668 226.24045 136.8162 203.80103 120.30724 C 237.75345 121.77915 268.42017 141.02651 284.50827 170.96155 C 279.53544 180.4529 268.6288 185.2062 258.29104 182.38744 Z" fill="#FFFFFF"/>
          <path d="M 258.29104 182.38744 C 244.83131 157.99668 226.24045 136.8162 203.80103 120.30724 C 237.75345 121.77915 268.42017 141.02651 284.50827 170.96155 C 279.53544 180.4529 268.6288 185.2062 258.29104 182.38744 Z" stroke="black" stroke-linecap="round" stroke-linejoin="round" stroke-width="2.0967742"/>
        </g>
        <g id="Graphic_73">
          <title>path32</title>
          <path d="M 227.17633 132.49042 C 246.83636 139.76646 264.07732 152.3818 276.9613 168.91844" fill="#FFFFFF"/>
          <path d="M 227.17633 132.49042 C 246.83636 139.76646 264.07732 152.3818 276.9613 168.91844" stroke="black" stroke-linecap="round" stroke-linejoin="round" stroke-width="1.0483871"/>
        </g>
        <g id="Graphic_72">
          <title>path43</title>
          <path d="M 258.11188 184.15633 C 243.3307 177.1753 228.94387 167.14535 215.94388 154.75841 C 224.2817 174.22983 240.4493 191.26234 258.49344 199.58425 C 261.95366 196.43223 261.7949 190.01331 258.11188 184.15633 Z" fill="#FFFFFF"/>
          <path d="M 258.11188 184.15633 C 243.3307 177.1753 228.94387 167.14535 215.94388 154.75841 C 224.2817 174.22983 240.4493 191.26234 258.49344 199.58425 C 261.95366 196.43223 261.7949 190.01331 258.11188 184.15633 Z" stroke="black" stroke-linecap="round" stroke-linejoin="round" stroke-width="2.0967742"/>
        </g>
        <g id="Graphic_71">
          <title>path48</title>
          <path d="M 237.49802 178.63607 C 243.18018 185.29652 250.83546 189.97476 259.3546 191.99289" fill="#FFFFFF"/>
          <path d="M 237.49802 178.63607 C 243.18018 185.29652 250.83546 189.97476 259.3546 191.99289" stroke="black" stroke-linecap="round" stroke-linejoin="round" stroke-width="1.0483871"/>
        </g>
        <g id="Graphic_70">
          <title>path56</title>
          <path d="M 261.33034 201.48243 C 261.072 194.32442 259.39717 187.09089 256.3218 179.85077 C 264.66378 173.63016 275.70025 168.44831 286.07074 165.88302 C 286.98788 177.84217 285.36265 190.23725 281.21333 202.92886 C 278.19223 203.79955 274.3856 204.13674 270.64746 203.8648 C 266.9093 203.59286 263.55258 202.73456 261.33034 201.48243 Z" fill="#FFFFFF"/>
          <path d="M 261.33034 201.48243 C 261.072 194.32442 259.39717 187.09089 256.3218 179.85077 C 264.66378 173.63016 275.70025 168.44831 286.07074 165.88302 C 286.98788 177.84217 285.36265 190.23725 281.21333 202.92886 C 278.19223 203.79955 274.3856 204.13674 270.64746 203.8648 C 266.9093 203.59286 263.55258 202.73456 261.33034 201.48243 Z" stroke="black" stroke-linecap="round" stroke-linejoin="round" stroke-width="2.0967742"/>
        </g>
        <g id="Graphic_69">
          <title>path61</title>
          <path d="M 268.46425 184.71275 C 271.21102 180.11856 275.5227 176.66922 280.60777 174.99793 C 280.57843 181.94226 279.7626 188.8751 278.17907 195.63652" fill="#FFFFFF"/>
          <path d="M 268.46425 184.71275 C 271.21102 180.11856 275.5227 176.66922 280.60777 174.99793 C 280.57843 181.94226 279.7626 188.8751 278.17907 195.63652" stroke="black" stroke-linecap="round" stroke-linejoin="round" stroke-width="1.0483871"/>
        </g>
        <g id="Graphic_68">
          <title>path69</title>
          <path d="M 247.57095 225.69984 C 251.29532 217.26975 253.5298 208.03576 254.25306 198.08586 C 264.11103 195.88672 275.77105 195.73797 285.68223 197.6849 C 285.12412 210.10365 278.93988 221.8193 267.46852 232.1896 C 264.11508 232.383 260.1204 231.80493 256.37992 230.58494 C 252.63944 229.36495 249.466 227.6051 247.57095 225.69984 Z" fill="#FFFFFF"/>
          <path d="M 247.57095 225.69984 C 251.29532 217.26975 253.5298 208.03576 254.25306 198.08586 C 264.11103 195.88672 275.77105 195.73797 285.68223 197.6849 C 285.12412 210.10365 278.93988 221.8193 267.46852 232.1896 C 264.11508 232.383 260.1204 231.80493 256.37992 230.58494 C 252.63944 229.36495 249.466 227.6051 247.57095 225.69984 Z" stroke="black" stroke-linecap="round" stroke-linejoin="round" stroke-width="2.0967742"/>
        </g>
        <g id="Graphic_67">
          <title>path74</title>
          <path d="M 263.60684 207.7855 C 267.7411 205.69745 272.51516 205.26134 276.95932 206.56575 C 275.24926 213.95298 271.45842 220.69558 266.03555 225.9954" fill="#FFFFFF"/>
          <path d="M 263.60684 207.7855 C 267.7411 205.69745 272.51516 205.26134 276.95932 206.56575 C 275.24926 213.95298 271.45842 220.69558 266.03555 225.9954" stroke="black" stroke-linecap="round" stroke-linejoin="round" stroke-width="1.0483871"/>
        </g>
        <g id="Graphic_66">
          <title>path82</title>
          <path d="M 233.15245 233.6423 C 239.48333 226.93807 244.6039 218.86715 248.4654 209.5064 C 256.86292 215.99138 264.9814 225.41116 270.34818 234.89677 C 263.81675 242.17626 254.26267 245.87747 242.2103 245.79727 C 240.206 244.49233 238.11792 242.4702 236.41484 240.18478 C 234.71175 237.89936 233.53633 235.54215 233.15245 233.6423 Z" fill="#FFFFFF"/>
          <path d="M 233.15245 233.6423 C 239.48333 226.93807 244.6039 218.86715 248.4654 209.5064 C 256.86292 215.99138 264.9814 225.41116 270.34818 234.89677 C 263.81675 242.17626 254.26267 245.87747 242.2103 245.79727 C 240.206 244.49233 238.11792 242.4702 236.41484 240.18478 C 234.71175 237.89936 233.53633 235.54215 233.15245 233.6423 Z" stroke="black" stroke-linecap="round" stroke-linejoin="round" stroke-width="2.0967742"/>
        </g>
        <g id="Graphic_65">
          <title>path87</title>
          <path d="M 255.71086 227.8201 C 259.3008 228.4987 262.53106 230.43532 264.8212 233.28198 C 260.38353 239.35688 252.49988 241.82272 245.39156 239.35913" fill="#FFFFFF"/>
          <path d="M 255.71086 227.8201 C 259.3008 228.4987 262.53106 230.43532 264.8212 233.28198 C 260.38353 239.35688 252.49988 241.82272 245.39156 239.35913" stroke="black" stroke-linecap="round" stroke-linejoin="round" stroke-width="1.0483871"/>
        </g>
        <g id="Graphic_64">
          <title>path101</title>
          <path d="M 307.01988 234.8034 C 314.11425 224.93364 318.9829 213.64223 321.28987 201.70825 C 327.06462 215.36456 325.21893 231.053 316.43246 242.99622 C 311.76042 242.81417 307.84448 239.40568 307.01988 234.8034 Z" fill="#FFFFFF"/>
          <path d="M 307.01988 234.8034 C 314.11425 224.93364 318.9829 213.64223 321.28987 201.70825 C 327.06462 215.36456 325.21893 231.053 316.43246 242.99622 C 311.76042 242.81417 307.84448 239.40568 307.01988 234.8034 Z" stroke="black" stroke-linecap="round" stroke-linejoin="round" stroke-width="2.0967742"/>
        </g>
        <g id="Graphic_63">
          <title>path106</title>
          <path d="M 320.68177 218.71006 C 320.9719 225.90256 318.34508 232.9074 313.3972 238.13565" fill="#FFFFFF"/>
          <path d="M 320.68177 218.71006 C 320.9719 225.90256 318.34508 232.9074 313.3972 238.13565" stroke="black" stroke-linecap="round" stroke-linejoin="round" stroke-width="1.0483871"/>
        </g>
        <g id="Graphic_62">
          <title>path117</title>
          <path d="M 280.9141 256.4572 C 290.92337 249.0828 299.55527 240.00276 306.41408 229.63338 C 312.53955 231.57672 317.3814 236.3084 319.4652 242.38752 C 312.31703 254.99988 299.29462 263.16112 284.82757 264.0952 C 283.2883 263.61204 282.00725 262.53144 281.27158 261.0956 C 280.5359 259.65978 280.40713 257.9888 280.9141 256.4572 Z" fill="#FFFFFF"/>
          <path d="M 280.9141 256.4572 C 290.92337 249.0828 299.55527 240.00276 306.41408 229.63338 C 312.53955 231.57672 317.3814 236.3084 319.4652 242.38752 C 312.31703 254.99988 299.29462 263.16112 284.82757 264.0952 C 283.2883 263.61204 282.00725 262.53144 281.27158 261.0956 C 280.5359 259.65978 280.40713 257.9888 280.9141 256.4572 Z" stroke="black" stroke-linecap="round" stroke-linejoin="round" stroke-width="2.0967742"/>
        </g>
        <g id="Graphic_61">
          <title>path122</title>
          <path d="M 306.41265 240.26394 C 309.27377 238.89218 312.7087 239.94944 314.30324 242.69264 C 306.9516 250.78627 297.4916 256.67308 286.983 259.69357" fill="#FFFFFF"/>
          <path d="M 306.41265 240.26394 C 309.27377 238.89218 312.7087 239.94944 314.30324 242.69264 C 306.9516 250.78627 297.4916 256.67308 286.983 259.69357" stroke="black" stroke-linecap="round" stroke-linejoin="round" stroke-width="1.0483871"/>
        </g>
        <g id="Graphic_60">
          <title>path133</title>
          <path d="M 246.6072 255.7425 C 259.5451 256.38234 272.49458 254.73808 284.862 250.88508 C 288.0353 256.7098 288.25957 263.69395 285.46648 269.71024 C 271.87982 270.4852 258.2713 268.63065 245.38746 264.24835 C 244.40694 262.96386 243.9838 261.33918 244.2132 259.73957 C 244.44257 258.13997 245.30523 256.69967 246.6072 255.7425 Z" fill="#FFFFFF"/>
          <path d="M 246.6072 255.7425 C 259.5451 256.38234 272.49458 254.73808 284.862 250.88508 C 288.0353 256.7098 288.25957 263.69395 285.46648 269.71024 C 271.87982 270.4852 258.2713 268.63065 245.38746 264.24835 C 244.40694 262.96386 243.9838 261.33918 244.2132 259.73957 C 244.44257 258.13997 245.30523 256.69967 246.6072 255.7425 Z" stroke="black" stroke-linecap="round" stroke-linejoin="round" stroke-width="2.0967742"/>
        </g>
        <g id="Graphic_59">
          <title>path138</title>
          <path d="M 280.30005 257.8761 C 282.35676 260.03093 283.09555 263.18115 282.22143 266.06894 C 270.5937 266.07443 259.0197 264.4402 247.82018 261.21153" fill="#FFFFFF"/>
          <path d="M 280.30005 257.8761 C 282.35676 260.03093 283.09555 263.18115 282.22143 266.06894 C 270.5937 266.07443 259.0197 264.4402 247.82018 261.21153" stroke="black" stroke-linecap="round" stroke-linejoin="round" stroke-width="1.0483871"/>
        </g>
        <g id="Graphic_58">
          <title>path152</title>
          <path d="M 302.25793 299.62596 C 311.92805 301.78587 320.88123 306.02755 328.5 312.05845 C 325.2499 300.5653 316.00613 291.98646 304.17222 289.4806 C 301.22697 292.14143 300.43036 296.36328 302.25793 299.62596 Z" fill="#FFFFFF"/>
          <path d="M 302.25793 299.62596 C 311.92805 301.78587 320.88123 306.02755 328.5 312.05845 C 325.2499 300.5653 316.00613 291.98646 304.17222 289.4806 C 301.22697 292.14143 300.43036 296.36328 302.25793 299.62596 Z" stroke="black" stroke-linecap="round" stroke-linejoin="round" stroke-width="2.0967742"/>
        </g>
        <g id="Graphic_57">
          <title>path157</title>
          <path d="M 318.8626 302.0428 C 314.0618 298.4158 308.31477 296.25403 302.3137 295.81786" fill="#FFFFFF"/>
          <path d="M 318.8626 302.0428 C 314.0618 298.4158 308.31477 296.25403 302.3137 295.81786" stroke="black" stroke-linecap="round" stroke-linejoin="round" stroke-width="1.0483871"/>
        </g>
        <g id="Graphic_56">
          <title>path168</title>
          <path d="M 269.71282 290.64 C 280.63674 292.78112 291.09638 296.8405 300.61212 302.63194 C 304.831 298.6904 306.94475 292.97566 306.30953 287.2283 C 295.13983 281.35703 282.2037 279.8251 269.96624 282.92446 C 268.9052 283.91023 268.28102 285.2817 268.2334 286.73188 C 268.18576 288.18205 268.71866 289.5898 269.71282 290.64 Z" fill="#FFFFFF"/>
          <path d="M 269.71282 290.64 C 280.63674 292.78112 291.09638 296.8405 300.61212 302.63194 C 304.831 298.6904 306.94475 292.97566 306.30953 287.2283 C 295.13983 281.35703 282.2037 279.8251 269.96624 282.92446 C 268.9052 283.91023 268.28102 285.2817 268.2334 286.73188 C 268.18576 288.18205 268.71866 289.5898 269.71282 290.64 Z" stroke="black" stroke-linecap="round" stroke-linejoin="round" stroke-width="2.0967742"/>
        </g>
        <g id="Graphic_55">
          <title>path173</title>
          <path d="M 299.7358 290.35263 C 301.0386 292.30537 301.15492 294.8184 300.03805 296.88315 C 291.7221 292.55217 282.74543 289.63046 273.47342 288.23696" fill="#FFFFFF"/>
          <path d="M 299.7358 290.35263 C 301.0386 292.30537 301.15492 294.8184 300.03805 296.88315 C 291.7221 292.55217 282.74543 289.63046 273.47342 288.23696" stroke="black" stroke-linecap="round" stroke-linejoin="round" stroke-width="1.0483871"/>
        </g>
        <g id="Graphic_54">
          <title>path184</title>
          <path d="M 235.8162 288.3825 C 248.76062 288.8727 261.5175 291.63932 273.50206 296.55555 C 277.17094 291.02958 278.00306 284.09154 275.74495 277.8547 C 262.27754 275.89855 248.55916 276.55998 235.34241 279.8027 C 234.25367 280.99685 233.69055 282.57846 233.77964 284.19198 C 233.86874 285.8055 234.60258 287.3155 235.8162 288.3825 Z" fill="#FFFFFF"/>
          <path d="M 235.8162 288.3825 C 248.76062 288.8727 261.5175 291.63932 273.50206 296.55555 C 277.17094 291.02958 278.00306 284.09154 275.74495 277.8547 C 262.27754 275.89855 248.55916 276.55998 235.34241 279.8027 C 234.25367 280.99685 233.69055 282.57846 233.77964 284.19198 C 233.86874 285.8055 234.60258 287.3155 235.8162 288.3825 Z" stroke="black" stroke-linecap="round" stroke-linejoin="round" stroke-width="2.0967742"/>
        </g>
        <g id="Graphic_53">
          <title>path189</title>
          <path d="M 269.9862 282.4688 C 271.64505 285.0365 272.03492 288.22307 271.04405 291.11497 C 259.59926 285.90923 246.9534 283.91664 234.46236 285.35085" fill="#FFFFFF"/>
          <path d="M 269.9862 282.4688 C 271.64505 285.0365 272.03492 288.22307 271.04405 291.11497 C 259.59926 285.90923 246.9534 283.91664 234.46236 285.35085" stroke="black" stroke-linecap="round" stroke-linejoin="round" stroke-width="1.0483871"/>
        </g>
        <g id="Graphic_52">
          <title>path203</title>
          <path d="M 280.89707 327.6242 C 289.76515 332.0439 297.43718 338.3122 303.38405 345.9967 C 302.9901 334.05936 296.0779 323.51113 285.1925 318.2358 C 281.6943 320.1112 279.9068 324.01804 280.89707 327.6242 Z" fill="#FFFFFF"/>
          <path d="M 280.89707 327.6242 C 289.76515 332.0439 297.43718 338.3122 303.38405 345.9967 C 302.9901 334.05936 296.0779 323.51113 285.1925 318.2358 C 281.6943 320.1112 279.9068 324.01804 280.89707 327.6242 Z" stroke="black" stroke-linecap="round" stroke-linejoin="round" stroke-width="2.0967742"/>
        </g>
        <g id="Graphic_51">
          <title>path208</title>
          <path d="M 296.43492 333.9592 C 292.646 329.2851 287.58658 325.80605 281.86602 323.94103" fill="#FFFFFF"/>
          <path d="M 296.43492 333.9592 C 292.646 329.2851 287.58658 325.80605 281.86602 323.94103" stroke="black" stroke-linecap="round" stroke-linejoin="round" stroke-width="1.0483871"/>
        </g>
        <g id="Graphic_50">
          <title>path219</title>
          <path d="M 251.46368 311.08314 C 261.55335 315.7858 270.73152 322.239 278.57734 330.1468 C 283.61955 327.3342 287.04423 322.29457 287.8083 316.5629 C 278.37613 308.1803 266.18683 303.5856 253.56316 303.65442 C 252.2964 304.35644 251.36102 305.5378 250.9664 306.93407 C 250.5718 308.33033 250.75092 309.82487 251.46368 311.08314 Z" fill="#FFFFFF"/>
          <path d="M 251.46368 311.08314 C 261.55335 315.7858 270.73152 322.239 278.57734 330.1468 C 283.61955 327.3342 287.04423 322.29457 287.8083 316.5629 C 278.37613 308.1803 266.18683 303.5856 253.56316 303.65442 C 252.2964 304.35644 251.36102 305.5378 250.9664 306.93407 C 250.5718 308.33033 250.75092 309.82487 251.46368 311.08314 Z" stroke="black" stroke-linecap="round" stroke-linejoin="round" stroke-width="2.0967742"/>
        </g>
        <g id="Graphic_49">
          <title>path224</title>
          <path d="M 280.67652 318.01655 C 281.47207 320.2251 280.98127 322.69248 279.4011 324.42844 C 272.3691 318.22657 264.35717 313.23397 255.69143 309.65388" fill="#FFFFFF"/>
          <path d="M 280.67652 318.01655 C 281.47207 320.2251 280.98127 322.69248 279.4011 324.42844 C 272.3691 318.22657 264.35717 313.23397 255.69143 309.65388" stroke="black" stroke-linecap="round" stroke-linejoin="round" stroke-width="1.0483871"/>
        </g>
        <g id="Graphic_48">
          <title>path235</title>
          <path d="M 219.10197 300.74883 C 231.5496 304.3343 243.2683 310.08446 253.72087 317.73575 C 258.6098 313.25297 261.08427 306.718 260.39055 300.12135 C 247.78744 294.98722 234.3119 292.33374 220.70318 292.30646 C 219.35945 293.2041 218.43287 294.60412 218.13175 296.1918 C 217.83062 297.77945 218.18023 299.42152 219.10197 300.74883 Z" fill="#FFFFFF"/>
          <path d="M 219.10197 300.74883 C 231.5496 304.3343 243.2683 310.08446 253.72087 317.73575 C 258.6098 313.25297 261.08427 306.718 260.39055 300.12135 C 247.78744 294.98722 234.3119 292.33374 220.70318 292.30646 C 219.35945 293.2041 218.43287 294.60412 218.13175 296.1918 C 217.83062 297.77945 218.18023 299.42152 219.10197 300.74883 Z" stroke="black" stroke-linecap="round" stroke-linejoin="round" stroke-width="2.0967742"/>
        </g>
        <g id="Graphic_47">
          <title>path240</title>
          <path d="M 253.69202 303.2169 C 254.68544 306.1079 254.2984 309.29483 252.64182 311.864 C 242.78274 304.06135 230.98588 299.08922 218.51608 297.48073" fill="#FFFFFF"/>
          <path d="M 253.69202 303.2169 C 254.68544 306.1079 254.2984 309.29483 252.64182 311.864 C 242.78274 304.06135 230.98588 299.08922 218.51608 297.48073" stroke="black" stroke-linecap="round" stroke-linejoin="round" stroke-width="1.0483871"/>
        </g>
        <g id="Graphic_46">
          <title>path254</title>
          <path d="M 258.1013 349.11097 C 265.28042 354.4433 271.1034 361.22906 275.1684 369 C 276.70672 358.33285 272.23413 347.86875 263.39765 341.4611 C 259.9995 342.57417 257.79684 345.75563 258.1013 349.11097 Z" fill="#FFFFFF"/>
          <path d="M 258.1013 349.11097 C 265.28042 354.4433 271.1034 361.22906 275.1684 369 C 276.70672 358.33285 272.23413 347.86875 263.39765 341.4611 C 259.9995 342.57417 257.79684 345.75563 258.1013 349.11097 Z" stroke="black" stroke-linecap="round" stroke-linejoin="round" stroke-width="2.0967742"/>
        </g>
        <g id="Graphic_45">
          <title>path259</title>
          <path d="M 270.904 357.20455 C 268.39486 352.33416 264.4509 348.443 259.54715 345.9997" fill="#FFFFFF"/>
          <path d="M 270.904 357.20455 C 268.39486 352.33416 264.4509 348.443 259.54715 345.9997" stroke="black" stroke-linecap="round" stroke-linejoin="round" stroke-width="1.0483871"/>
        </g>
        <g id="Graphic_44">
          <title>path270</title>
          <path d="M 234.57497 329.76667 C 242.79195 335.53773 249.92308 342.7189 255.64155 350.98113 C 260.5637 349.28283 264.40322 345.35207 265.99164 340.38508 C 258.94047 331.44673 248.84105 325.43633 237.61767 323.4991 C 236.3807 323.92176 235.36216 324.8231 234.79022 326.00123 C 234.21828 327.17935 234.14074 328.53578 234.57497 329.76667 Z" fill="#FFFFFF"/>
          <path d="M 234.57497 329.76667 C 242.79195 335.53773 249.92308 342.7189 255.64155 350.98113 C 260.5637 349.28283 264.40322 345.35207 265.99164 340.38508 C 258.94047 331.44673 248.84105 325.43633 237.61767 323.4991 C 236.3807 323.92176 235.36216 324.8231 234.79022 326.00123 C 234.21828 327.17935 234.14074 328.53578 234.57497 329.76667 Z" stroke="black" stroke-linecap="round" stroke-linejoin="round" stroke-width="2.0967742"/>
        </g>
        <g id="Graphic_43">
          <title>path275</title>
          <path d="M 259.4268 340.54744 C 259.78336 342.63578 258.9557 344.75004 257.27617 346.04133 C 252.01292 339.4199 245.68805 333.71712 238.55895 329.1651" fill="#FFFFFF"/>
          <path d="M 259.4268 340.54744 C 259.78336 342.63578 258.9557 344.75004 257.27617 346.04133 C 252.01292 339.4199 245.68805 333.71712 238.55895 329.1651" stroke="black" stroke-linecap="round" stroke-linejoin="round" stroke-width="1.0483871"/>
        </g>
        <g id="Graphic_42">
          <title>path286</title>
          <path d="M 207.4665 315.46925 C 217.95385 320.62325 227.4515 327.58403 235.52427 336.03263 C 240.5794 332.82537 243.81418 327.41098 244.24273 321.4396 C 233.8592 314.88645 222.3085 310.39886 210.22431 308.22302 C 208.88864 308.80782 207.84406 309.9049 207.32542 311.26765 C 206.80679 312.6304 206.85763 314.1444 207.4665 315.46925 Z" fill="#FFFFFF"/>
          <path d="M 207.4665 315.46925 C 217.95385 320.62325 227.4515 327.58403 235.52427 336.03263 C 240.5794 332.82537 243.81418 327.41098 244.24273 321.4396 C 233.8592 314.88645 222.3085 310.39886 210.22431 308.22302 C 208.88864 308.80782 207.84406 309.9049 207.32542 311.26765 C 206.80679 312.6304 206.85763 314.1444 207.4665 315.46925 Z" stroke="black" stroke-linecap="round" stroke-linejoin="round" stroke-width="2.0967742"/>
        </g>
        <g id="Graphic_41">
          <title>path291</title>
          <path d="M 237.79786 323.12924 C 238.22575 325.85553 237.37923 328.62743 235.50122 330.6495 C 227.97813 322.1573 218.28538 315.87305 207.46237 312.4706" fill="#FFFFFF"/>
          <path d="M 237.79786 323.12924 C 238.22575 325.85553 237.37923 328.62743 235.50122 330.6495 C 227.97813 322.1573 218.28538 315.87305 207.46237 312.4706" stroke="black" stroke-linecap="round" stroke-linejoin="round" stroke-width="1.0483871"/>
        </g>
        <g id="Graphic_40">
          <title>path305</title>
          <path d="M 57.480034 234.8034 C 50.385666 224.93364 45.51703 213.64223 43.210047 201.70825 C 37.43529 215.36456 39.280987 231.053 48.067456 242.99622 C 52.73949 242.81417 56.65544 239.40568 57.480034 234.8034 Z" fill="#FFFFFF"/>
          <path d="M 57.480034 234.8034 C 50.385666 224.93364 45.51703 213.64223 43.210047 201.70825 C 37.43529 215.36456 39.280987 231.053 48.067456 242.99622 C 52.73949 242.81417 56.65544 239.40568 57.480034 234.8034 Z" stroke="black" stroke-linecap="round" stroke-linejoin="round" stroke-width="2.0967742"/>
        </g>
        <g id="Graphic_39">
          <title>path310</title>
          <path d="M 43.817925 218.71006 C 43.527806 225.90256 46.154617 232.9074 51.102503 238.13565" fill="#FFFFFF"/>
          <path d="M 43.817925 218.71006 C 43.527806 225.90256 46.154617 232.9074 51.102503 238.13565" stroke="black" stroke-linecap="round" stroke-linejoin="round" stroke-width="1.0483871"/>
        </g>
        <g id="Graphic_38">
          <title>path321</title>
          <path d="M 83.58575 256.4572 C 73.576485 249.0828 64.94459 240.00276 58.085785 229.63338 C 51.960306 231.57672 47.118454 236.3084 45.03465 242.38752 C 52.18283 254.99988 65.20524 263.16112 79.67229 264.0952 C 81.21157 263.61204 82.49261 262.53144 83.22828 261.0956 C 83.96396 259.65978 84.09273 257.9888 83.58575 256.4572 Z" fill="#FFFFFF"/>
          <path d="M 83.58575 256.4572 C 73.576485 249.0828 64.94459 240.00276 58.085785 229.63338 C 51.960306 231.57672 47.118454 236.3084 45.03465 242.38752 C 52.18283 254.99988 65.20524 263.16112 79.67229 264.0952 C 81.21157 263.61204 82.49261 262.53144 83.22828 261.0956 C 83.96396 259.65978 84.09273 257.9888 83.58575 256.4572 Z" stroke="black" stroke-linecap="round" stroke-linejoin="round" stroke-width="2.0967742"/>
        </g>
        <g id="Graphic_37">
          <title>path326</title>
          <path d="M 74.16639 253.9281 C 73.603135 255.6903 73.39762 257.54727 73.56191 259.39 C 63.83475 256.02353 55.4334 249.645 49.577106 241.1801" fill="#FFFFFF"/>
          <path d="M 74.16639 253.9281 C 73.603135 255.6903 73.39762 257.54727 73.56191 259.39 C 63.83475 256.02353 55.4334 249.645 49.577106 241.1801" stroke="black" stroke-linecap="round" stroke-linejoin="round" stroke-width="1.0483871"/>
        </g>
        <g id="Graphic_36">
          <title>path337</title>
          <path d="M 117.8927 255.7425 C 104.9548 256.38234 92.00533 254.73808 79.63791 250.88508 C 76.46461 256.7098 76.24035 263.69395 79.03344 269.71024 C 92.62009 270.4852 106.22862 268.63065 119.11245 264.24835 C 120.09298 262.96386 120.51611 261.33918 120.28673 259.73957 C 120.05734 258.13997 119.19469 256.69967 117.8927 255.7425 Z" fill="#FFFFFF"/>
          <path d="M 117.8927 255.7425 C 104.9548 256.38234 92.00533 254.73808 79.63791 250.88508 C 76.46461 256.7098 76.24035 263.69395 79.03344 269.71024 C 92.62009 270.4852 106.22862 268.63065 119.11245 264.24835 C 120.09298 262.96386 120.51611 261.33918 120.28673 259.73957 C 120.05734 258.13997 119.19469 256.69967 117.8927 255.7425 Z" stroke="black" stroke-linecap="round" stroke-linejoin="round" stroke-width="2.0967742"/>
        </g>
        <g id="Graphic_35">
          <title>path342</title>
          <path d="M 110.90327 259.08698 C 110.09173 260.31882 110.21603 261.9436 111.20551 263.03767 C 101.73168 265.71656 91.7939 266.3349 82.06106 264.8511" fill="#FFFFFF"/>
          <path d="M 110.90327 259.08698 C 110.09173 260.31882 110.21603 261.9436 111.20551 263.03767 C 101.73168 265.71656 91.7939 266.3349 82.06106 264.8511" stroke="black" stroke-linecap="round" stroke-linejoin="round" stroke-width="1.0483871"/>
        </g>
        <g id="Graphic_34">
          <title>path353</title>
          <path d="M 106.20839 182.38744 C 119.66811 157.99668 138.25898 136.8162 160.6984 120.30724 C 126.74598 121.77915 96.07926 141.02651 79.99116 170.96155 C 84.96399 180.4529 95.87061 185.2062 106.20839 182.38744 Z" fill="#FFFFFF"/>
          <path d="M 106.20839 182.38744 C 119.66811 157.99668 138.25898 136.8162 160.6984 120.30724 C 126.74598 121.77915 96.07926 141.02651 79.99116 170.96155 C 84.96399 180.4529 95.87061 185.2062 106.20839 182.38744 Z" stroke="black" stroke-linecap="round" stroke-linejoin="round" stroke-width="2.0967742"/>
        </g>
        <g id="Graphic_33">
          <title>path358</title>
          <path d="M 138.5314 130.06554 C 121.53879 142.5004 108.81342 159.89187 102.10356 179.85064" fill="#FFFFFF"/>
          <path d="M 138.5314 130.06554 C 121.53879 142.5004 108.81342 159.89187 102.10356 179.85064" stroke="black" stroke-linecap="round" stroke-linejoin="round" stroke-width="1.0483871"/>
        </g>
        <g id="Graphic_32">
          <title>path369</title>
          <path d="M 106.38844 184.15633 C 121.16963 177.1753 135.55645 167.14535 148.55645 154.75841 C 140.21863 174.22983 124.05103 191.26234 106.00688 199.58425 C 102.54666 196.43223 102.70542 190.01331 106.38844 184.15633 Z" fill="#FFFFFF"/>
          <path d="M 106.38844 184.15633 C 121.16963 177.1753 135.55645 167.14535 148.55645 154.75841 C 140.21863 174.22983 124.05103 191.26234 106.00688 199.58425 C 102.54666 196.43223 102.70542 190.01331 106.38844 184.15633 Z" stroke="black" stroke-linecap="round" stroke-linejoin="round" stroke-width="2.0967742"/>
        </g>
        <g id="Graphic_31">
          <title>path374</title>
          <path d="M 127.00123 178.63607 C 121.31907 185.29652 113.66378 189.97476 105.14465 191.99289" fill="#FFFFFF"/>
          <path d="M 127.00123 178.63607 C 121.31907 185.29652 113.66378 189.97476 105.14465 191.99289" stroke="black" stroke-linecap="round" stroke-linejoin="round" stroke-width="1.0483871"/>
        </g>
        <g id="Graphic_30">
          <title>path382</title>
          <path d="M 103.16955 201.48243 C 103.4279 194.32442 105.10272 187.09089 108.17808 179.85077 C 99.83611 173.63016 88.79965 168.44831 78.42915 165.88302 C 77.51202 177.84217 79.137245 190.23725 83.28656 202.92886 C 86.30766 203.79955 90.11428 204.13674 93.85243 203.8648 C 97.59058 203.59286 100.94731 202.73456 103.16955 201.48243 Z" fill="#FFFFFF"/>
          <path d="M 103.16955 201.48243 C 103.4279 194.32442 105.10272 187.09089 108.17808 179.85077 C 99.83611 173.63016 88.79965 168.44831 78.42915 165.88302 C 77.51202 177.84217 79.137245 190.23725 83.28656 202.92886 C 86.30766 203.79955 90.11428 204.13674 93.85243 203.8648 C 97.59058 203.59286 100.94731 202.73456 103.16955 201.48243 Z" stroke="black" stroke-linecap="round" stroke-linejoin="round" stroke-width="2.0967742"/>
        </g>
        <g id="Graphic_29">
          <title>path387</title>
          <path d="M 101.49202 181.06156 C 99.66655 184.62202 98.82793 188.6064 99.06332 192.6006 C 96.07257 191.43118 92.83993 191.01598 89.65074 191.39165" fill="#FFFFFF"/>
          <path d="M 101.49202 181.06156 C 99.66655 184.62202 98.82793 188.6064 99.06332 192.6006 C 96.07257 191.43118 92.83993 191.01598 89.65074 191.39165" stroke="black" stroke-linecap="round" stroke-linejoin="round" stroke-width="1.0483871"/>
        </g>
        <g id="Graphic_28">
          <title>path395</title>
          <path d="M 116.92848 225.69984 C 113.20411 217.26975 110.96965 208.03576 110.24638 198.08586 C 100.38841 195.88672 88.72839 195.73797 78.8172 197.6849 C 79.37531 210.10365 85.55956 221.8193 97.03091 232.1896 C 100.38435 232.383 104.37903 231.80493 108.11951 230.58494 C 111.86 229.36495 115.03343 227.6051 116.92848 225.69984 Z" fill="#FFFFFF"/>
          <path d="M 116.92848 225.69984 C 113.20411 217.26975 110.96965 208.03576 110.24638 198.08586 C 100.38841 195.88672 88.72839 195.73797 78.8172 197.6849 C 79.37531 210.10365 85.55956 221.8193 97.03091 232.1896 C 100.38435 232.383 104.37903 231.80493 108.11951 230.58494 C 111.86 229.36495 115.03343 227.6051 116.92848 225.69984 Z" stroke="black" stroke-linecap="round" stroke-linejoin="round" stroke-width="2.0967742"/>
        </g>
        <g id="Graphic_27">
          <title>path400</title>
          <path d="M 104.82601 201.40471 C 104.32383 204.89027 105.07756 208.44083 106.95248 211.42177 C 103.25547 213.48365 100.44672 216.83417 99.06189 220.83435" fill="#FFFFFF"/>
          <path d="M 104.82601 201.40471 C 104.32383 204.89027 105.07756 208.44083 106.95248 211.42177 C 103.25547 213.48365 100.44672 216.83417 99.06189 220.83435" stroke="black" stroke-linecap="round" stroke-linejoin="round" stroke-width="1.0483871"/>
        </g>
        <g id="Graphic_26">
          <title>path408</title>
          <path d="M 131.34809 233.6423 C 125.01721 226.93807 119.89664 218.86715 116.03513 209.5064 C 107.63762 215.99138 99.51915 225.41116 94.15236 234.89677 C 100.68379 242.17626 110.23787 245.87747 122.29023 245.79727 C 124.29454 244.49233 126.38262 242.4702 128.0857 240.18478 C 129.78879 237.89936 130.96421 235.54215 131.34809 233.6423 Z" fill="#FFFFFF"/>
          <path d="M 131.34809 233.6423 C 125.01721 226.93807 119.89664 218.86715 116.03513 209.5064 C 107.63762 215.99138 99.51915 225.41116 94.15236 234.89677 C 100.68379 242.17626 110.23787 245.87747 122.29023 245.79727 C 124.29454 244.49233 126.38262 242.4702 128.0857 240.18478 C 129.78879 237.89936 130.96421 235.54215 131.34809 233.6423 Z" stroke="black" stroke-linecap="round" stroke-linejoin="round" stroke-width="2.0967742"/>
        </g>
        <g id="Graphic_25">
          <title>path413</title>
          <path d="M 113.63144 216.88502 L 117.2799 223.2644 C 113.34735 227.26522 110.97712 232.54175 110.59826 238.13888" fill="#FFFFFF"/>
          <path d="M 113.63144 216.88502 L 117.2799 223.2644 C 113.34735 227.26522 110.97712 232.54175 110.59826 238.13888" stroke="black" stroke-linecap="round" stroke-linejoin="round" stroke-width="1.0483871"/>
        </g>
        <g id="Graphic_24">
          <title>path427</title>
          <path d="M 106.3985 349.11094 C 99.2194 354.44326 93.39642 361.22903 89.33142 368.99997 C 87.7931 358.33282 92.26569 347.8687 101.10216 341.46107 C 104.50031 342.57414 106.70298 345.7556 106.3985 349.11094 Z" fill="#FFFFFF"/>
          <path d="M 106.3985 349.11094 C 99.2194 354.44326 93.39642 361.22903 89.33142 368.99997 C 87.7931 358.33282 92.26569 347.8687 101.10216 341.46107 C 104.50031 342.57414 106.70298 345.7556 106.3985 349.11094 Z" stroke="black" stroke-linecap="round" stroke-linejoin="round" stroke-width="2.0967742"/>
        </g>
        <g id="Graphic_23">
          <title>path432</title>
          <path d="M 93.59669 357.20306 C 96.10586 352.3327 100.04985 348.44155 104.95361 345.9983" fill="#FFFFFF"/>
          <path d="M 93.59669 357.20306 C 96.10586 352.3327 100.04985 348.44155 104.95361 345.9983" stroke="black" stroke-linecap="round" stroke-linejoin="round" stroke-width="1.0483871"/>
        </g>
        <g id="Graphic_22">
          <title>path443</title>
          <path d="M 129.92488 329.7667 C 121.7079 335.53777 114.57676 342.71896 108.8583 350.98117 C 103.93614 349.28287 100.09662 345.3521 98.5082 340.38512 C 105.55938 331.44677 115.6588 325.43638 126.88218 323.49913 C 128.11915 323.9218 129.13769 324.82315 129.70963 326.00127 C 130.28156 327.1794 130.3591 328.53582 129.92488 329.7667 Z" fill="#FFFFFF"/>
          <path d="M 129.92488 329.7667 C 121.7079 335.53777 114.57676 342.71896 108.8583 350.98117 C 103.93614 349.28287 100.09662 345.3521 98.5082 340.38512 C 105.55938 331.44677 115.6588 325.43638 126.88218 323.49913 C 128.11915 323.9218 129.13769 324.82315 129.70963 326.00127 C 130.28156 327.1794 130.3591 328.53582 129.92488 329.7667 Z" stroke="black" stroke-linecap="round" stroke-linejoin="round" stroke-width="2.0967742"/>
        </g>
        <g id="Graphic_21">
          <title>path448</title>
          <path d="M 107.25885 347.12695 C 110.26385 341.2956 114.76872 336.36966 120.30909 332.85696 C 119.52029 331.7835 119.00192 330.5357 118.7979 329.2193" fill="#FFFFFF"/>
          <path d="M 107.25885 347.12695 C 110.26385 341.2956 114.76872 336.36966 120.30909 332.85696 C 119.52029 331.7835 119.00192 330.5357 118.7979 329.2193" stroke="black" stroke-linecap="round" stroke-linejoin="round" stroke-width="1.0483871"/>
        </g>
        <g id="Graphic_20">
          <title>path459</title>
          <path d="M 157.03344 315.4693 C 146.5461 320.6233 137.04844 327.58407 128.97569 336.03266 C 123.92055 332.8254 120.68577 327.411 120.25722 321.43964 C 130.64076 314.8865 142.19145 310.3989 154.27564 308.22305 C 155.61132 308.80785 156.6559 309.90495 157.17453 311.2677 C 157.69317 312.6304 157.64233 314.1444 157.03344 315.4693 Z" fill="#FFFFFF"/>
          <path d="M 157.03344 315.4693 C 146.5461 320.6233 137.04844 327.58407 128.97569 336.03266 C 123.92055 332.8254 120.68577 327.411 120.25722 321.43964 C 130.64076 314.8865 142.19145 310.3989 154.27564 308.22305 C 155.61132 308.80785 156.6559 309.90495 157.17453 311.2677 C 157.69317 312.6304 157.64233 314.1444 157.03344 315.4693 Z" stroke="black" stroke-linecap="round" stroke-linejoin="round" stroke-width="2.0967742"/>
        </g>
        <g id="Graphic_19">
          <title>path464</title>
          <path d="M 127.90499 330.55116 C 132.94923 324.26917 139.63563 319.5079 147.22196 316.79582 C 145.96465 316.2449 145.25457 314.89854 145.50998 313.5498" fill="#FFFFFF"/>
          <path d="M 127.90499 330.55116 C 132.94923 324.26917 139.63563 319.5079 147.22196 316.79582 C 145.96465 316.2449 145.25457 314.89854 145.50998 313.5498" stroke="black" stroke-linecap="round" stroke-linejoin="round" stroke-width="1.0483871"/>
        </g>
        <g id="Graphic_18">
          <title>path478</title>
          <path d="M 83.60296 327.6242 C 74.73489 332.0439 67.06286 338.31217 61.115985 345.9967 C 61.50995 334.05934 68.422136 323.5111 79.30753 318.2358 C 82.80574 320.11118 84.59322 324.01803 83.60296 327.6242 Z" fill="#FFFFFF"/>
          <path d="M 83.60296 327.6242 C 74.73489 332.0439 67.06286 338.31217 61.115985 345.9967 C 61.50995 334.05934 68.422136 323.5111 79.30753 318.2358 C 82.80574 320.11118 84.59322 324.01803 83.60296 327.6242 Z" stroke="black" stroke-linecap="round" stroke-linejoin="round" stroke-width="2.0967742"/>
        </g>
        <g id="Graphic_17">
          <title>path483</title>
          <path d="M 68.066824 333.95816 C 71.85579 329.2841 76.91522 325.80508 82.635795 323.9401" fill="#FFFFFF"/>
          <path d="M 68.066824 333.95816 C 71.85579 329.2841 76.91522 325.80508 82.635795 323.9401" stroke="black" stroke-linecap="round" stroke-linejoin="round" stroke-width="1.0483871"/>
        </g>
        <g id="Graphic_16">
          <title>path494</title>
          <path d="M 113.03634 311.08307 C 102.94667 315.78574 93.76849 322.23893 85.92268 330.14674 C 80.88046 327.3341 77.45578 322.2945 76.691725 316.56284 C 86.12389 308.18023 98.31319 303.58555 110.93685 303.65436 C 112.20362 304.35638 113.139 305.53774 113.5336 306.934 C 113.92821 308.33027 113.74909 309.8248 113.03634 311.08307 Z" fill="#FFFFFF"/>
          <path d="M 113.03634 311.08307 C 102.94667 315.78574 93.76849 322.23893 85.92268 330.14674 C 80.88046 327.3341 77.45578 322.2945 76.691725 316.56284 C 86.12389 308.18023 98.31319 303.58555 110.93685 303.65436 C 112.20362 304.35638 113.139 305.53774 113.5336 306.934 C 113.92821 308.33027 113.74909 309.8248 113.03634 311.08307 Z" stroke="black" stroke-linecap="round" stroke-linejoin="round" stroke-width="2.0967742"/>
        </g>
        <g id="Graphic_15">
          <title>path499</title>
          <path d="M 84.64168 325.26853 C 89.66205 319.79233 95.8287 315.4903 102.70154 312.66947 C 101.72379 311.2706 101.09846 309.65626 100.87877 307.96377" fill="#FFFFFF"/>
          <path d="M 84.64168 325.26853 C 89.66205 319.79233 95.8287 315.4903 102.70154 312.66947 C 101.72379 311.2706 101.09846 309.65626 100.87877 307.96377" stroke="black" stroke-linecap="round" stroke-linejoin="round" stroke-width="1.0483871"/>
        </g>
        <g id="Graphic_14">
          <title>path510</title>
          <path d="M 145.398 300.74883 C 132.95039 304.3343 121.23169 310.08445 110.77911 317.73574 C 105.89017 313.25296 103.4157 306.718 104.10943 300.12134 C 116.71254 294.9872 130.18809 292.33373 143.7968 292.30646 C 145.14053 293.2041 146.06711 294.6041 146.36823 296.19178 C 146.66936 297.77945 146.31975 299.4215 145.398 300.74883 Z" fill="#FFFFFF"/>
          <path d="M 145.398 300.74883 C 132.95039 304.3343 121.23169 310.08445 110.77911 317.73574 C 105.89017 313.25296 103.4157 306.718 104.10943 300.12134 C 116.71254 294.9872 130.18809 292.33373 143.7968 292.30646 C 145.14053 293.2041 146.06711 294.6041 146.36823 296.19178 C 146.66936 297.77945 146.31975 299.4215 145.398 300.74883 Z" stroke="black" stroke-linecap="round" stroke-linejoin="round" stroke-width="2.0967742"/>
        </g>
        <g id="Graphic_13">
          <title>path515</title>
          <path d="M 111.35752 312.2143 C 118.10381 306.69114 126.06126 302.8427 134.57953 300.98344 C 132.2515 300.60016 130.32465 298.96418 129.56883 296.72915" fill="#FFFFFF"/>
          <path d="M 111.35752 312.2143 C 118.10381 306.69114 126.06126 302.8427 134.57953 300.98344 C 132.2515 300.60016 130.32465 298.96418 129.56883 296.72915" stroke="black" stroke-linecap="round" stroke-linejoin="round" stroke-width="1.0483871"/>
        </g>
        <g id="Graphic_12">
          <title>path529</title>
          <path d="M 62.24207 299.62596 C 52.57195 301.78587 43.61877 306.02755 36 312.05845 C 39.250114 300.5653 48.49387 291.98646 60.32778 289.4806 C 63.27303 292.14143 64.06964 296.36328 62.24207 299.62596 Z" fill="#FFFFFF"/>
          <path d="M 62.24207 299.62596 C 52.57195 301.78587 43.61877 306.02755 36 312.05845 C 39.250114 300.5653 48.49387 291.98646 60.32778 289.4806 C 63.27303 292.14143 64.06964 296.36328 62.24207 299.62596 Z" stroke="black" stroke-linecap="round" stroke-linejoin="round" stroke-width="2.0967742"/>
        </g>
        <g id="Graphic_11">
          <title>path534</title>
          <path d="M 45.639067 302.04217 C 50.43992 298.4152 56.18695 296.25347 62.18803 295.81735" fill="#FFFFFF"/>
          <path d="M 45.639067 302.04217 C 50.43992 298.4152 56.18695 296.25347 62.18803 295.81735" stroke="black" stroke-linecap="round" stroke-linejoin="round" stroke-width="1.0483871"/>
        </g>
        <g id="Graphic_10">
          <title>path545</title>
          <path d="M 94.78718 290.64 C 83.86326 292.78112 73.40362 296.8405 63.88788 302.63194 C 59.668985 298.6904 57.55525 292.97566 58.190474 287.2283 C 69.36017 281.35703 82.29629 279.8251 94.53376 282.92446 C 95.59479 283.91023 96.21898 285.2817 96.26661 286.73188 C 96.31424 288.18205 95.78134 289.5898 94.78718 290.64 Z" fill="#FFFFFF"/>
          <path d="M 94.78718 290.64 C 83.86326 292.78112 73.40362 296.8405 63.88788 302.63194 C 59.668985 298.6904 57.55525 292.97566 58.190474 287.2283 C 69.36017 281.35703 82.29629 279.8251 94.53376 282.92446 C 95.59479 283.91023 96.21898 285.2817 96.26661 286.73188 C 96.31424 288.18205 95.78134 289.5898 94.78718 290.64 Z" stroke="black" stroke-linecap="round" stroke-linejoin="round" stroke-width="2.0967742"/>
        </g>
        <g id="Graphic_9">
          <title>path550</title>
          <path d="M 64.17303 298.26954 C 70.20717 293.9357 77.12325 290.98565 84.42769 289.6299 C 83.75666 288.06066 83.474685 286.35254 83.60575 284.6509" fill="#FFFFFF"/>
          <path d="M 64.17303 298.26954 C 70.20717 293.9357 77.12325 290.98565 84.42769 289.6299 C 83.75666 288.06066 83.474685 286.35254 83.60575 284.6509" stroke="black" stroke-linecap="round" stroke-linejoin="round" stroke-width="1.0483871"/>
        </g>
        <g id="Graphic_8">
          <title>path561</title>
          <path d="M 128.68381 288.3825 C 115.73938 288.8727 102.98249 291.63932 90.99794 296.55555 C 87.32906 291.02958 86.49694 284.09154 88.75505 277.8547 C 102.22246 275.89855 115.94084 276.55998 129.15759 279.8027 C 130.24633 280.99685 130.80945 282.57846 130.72036 284.19198 C 130.63126 285.8055 129.89742 287.3155 128.68381 288.3825 Z" fill="#FFFFFF"/>
          <path d="M 128.68381 288.3825 C 115.73938 288.8727 102.98249 291.63932 90.99794 296.55555 C 87.32906 291.02958 86.49694 284.09154 88.75505 277.8547 C 102.22246 275.89855 115.94084 276.55998 129.15759 279.8027 C 130.24633 280.99685 130.80945 282.57846 130.72036 284.19198 C 130.63126 285.8055 129.89742 287.3155 128.68381 288.3825 Z" stroke="black" stroke-linecap="round" stroke-linejoin="round" stroke-width="2.0967742"/>
        </g>
        <g id="Graphic_7">
          <title>path566</title>
          <path d="M 92.68687 291.4186 C 101.13178 287.75586 110.2005 285.7458 119.40215 285.49722 C 117.52196 284.62027 116.13042 282.95098 115.60623 280.94364" fill="#FFFFFF"/>
          <path d="M 92.68687 291.4186 C 101.13178 287.75586 110.2005 285.7458 119.40215 285.49722 C 117.52196 284.62027 116.13042 282.95098 115.60623 280.94364" stroke="black" stroke-linecap="round" stroke-linejoin="round" stroke-width="1.0483871"/>
        </g>
        <g id="Graphic_6">
          <title>path571</title>
          <path d="M 181.9457 331.63313 L 181.9457 331.64393 L 182.09683 331.63313 L 182.24795 331.64393 L 182.24795 331.63313 C 191.28632 331.2324 200.20288 329.39223 208.66146 326.18204 C 212.33686 312.42364 220.99244 300.52125 232.9485 292.78466 C 254.67088 273.1356 256.82336 239.77226 237.8059 217.49483 C 218.92076 212.47997 199.9942 207.6224 181.0282 202.9226 C 162.7613 207.57747 144.5467 212.43518 126.38775 217.49483 C 107.3703 239.77226 109.52278 273.1356 131.24516 292.78466 C 143.20122 300.52125 151.8568 312.42364 155.5322 326.18204 C 163.99078 329.39223 172.90734 331.2324 181.9457 331.63313 Z" fill="#FFFFFF"/>
          <path d="M 181.9457 331.63313 L 181.9457 331.64393 L 182.09683 331.63313 L 182.24795 331.64393 L 182.24795 331.63313 C 191.28632 331.2324 200.20288 329.39223 208.66146 326.18204 C 212.33686 312.42364 220.99244 300.52125 232.9485 292.78466 C 254.67088 273.1356 256.82336 239.77226 237.8059 217.49483 C 218.92076 212.47997 199.9942 207.6224 181.0282 202.9226 C 162.7613 207.57747 144.5467 212.43518 126.38775 217.49483 C 107.3703 239.77226 109.52278 273.1356 131.24516 292.78466 C 143.20122 300.52125 151.8568 312.42364 155.5322 326.18204 C 163.99078 329.39223 172.90734 331.2324 181.9457 331.63313 Z" stroke="black" stroke-linecap="round" stroke-linejoin="round" stroke-width="2.0967742"/>
        </g>
        <g id="Graphic_5">
          <title>path576</title>
          <path d="M 182.09078 279.22925 L 185.02682 308.568 C 184.33624 312.49274 185.95182 316.4666 189.18507 318.7961 C 192.41832 321.1256 196.69925 321.4001 200.20352 319.50256 C 203.12148 317.98155 204.67849 314.7112 204.0196 311.48727 C 203.3607 308.2633 200.6454 305.86613 197.36464 305.61197 C 194.08388 305.35782 191.03179 307.3082 189.88423 310.39222 C 191.58957 305.2224 195.64727 301.1687 200.8188 299.46845 L 220.8529 291.56707 C 222.87463 291.43517 224.66027 290.2028 225.5007 288.3593 C 226.34116 286.51582 226.1004 284.3596 224.87403 282.7469 C 223.64767 281.1342 221.63418 280.326 219.63316 280.6433 L 198.99457 285.5007 C 207.91663 276.36606 219.70826 270.57696 232.39195 269.10425 C 235.64177 267.98705 238.02534 265.1888 238.6115 261.80267 C 239.19766 258.41654 237.89338 254.9799 235.2082 252.83532 C 232.523 250.69074 228.88305 250.17855 225.71031 251.49884 C 223.14988 255.56156 218.81513 258.17002 214.02638 258.5297 C 209.23763 258.8894 204.56186 256.95773 201.42327 253.32307 C 210.95414 254.6048 220.07766 249.02704 223.2816 239.9598 C 225.0026 234.3332 223.42816 228.2167 219.20438 224.12037 C 214.9806 220.02402 208.81874 218.63764 203.2475 220.53017 C 193.82748 225.26106 186.34745 233.1227 182.09078 242.7663 C 177.83683 233.12448 170.36084 225.26306 160.94487 220.53017 C 155.37362 218.63764 149.21177 220.02402 144.98799 224.12037 C 140.7642 228.2167 139.18975 234.3332 140.91075 239.9598 C 144.1147 249.02704 153.23823 254.6048 162.7691 253.32307 C 159.6305 256.95773 154.95474 258.8894 150.16599 258.5297 C 145.37723 258.17002 141.04248 255.56156 138.48205 251.49884 C 135.30931 250.17855 131.66935 250.69074 128.98417 252.83532 C 126.29899 254.9799 124.9947 258.41654 125.58086 261.80267 C 126.16702 265.1888 128.5506 267.98705 131.80041 269.10425 C 144.4841 270.57696 156.27573 276.36606 165.1978 285.5007 L 144.54841 280.6433 C 142.54482 280.3229 140.52752 281.1313 139.29966 282.74667 C 138.07181 284.36204 137.83275 286.5221 138.67766 288.36687 C 139.52258 290.21164 141.3143 291.4416 143.33946 291.56707 L 163.37357 299.46845 C 168.54096 301.1716 172.5942 305.22483 174.29734 310.39222 C 173.14978 307.3082 170.09769 305.35782 166.81693 305.61197 C 163.53617 305.86613 160.82087 308.2633 160.16198 311.48727 C 159.50308 314.7112 161.06009 317.98155 163.97805 319.50256 C 167.48232 321.4001 171.76325 321.1256 174.9965 318.7961 C 178.22975 316.4666 179.84533 312.49274 179.15475 308.568 Z" fill="#FFFFFF"/>
          <path d="M 182.09078 279.22925 L 185.02682 308.568 C 184.33624 312.49274 185.95182 316.4666 189.18507 318.7961 C 192.41832 321.1256 196.69925 321.4001 200.20352 319.50256 C 203.12148 317.98155 204.67849 314.7112 204.0196 311.48727 C 203.3607 308.2633 200.6454 305.86613 197.36464 305.61197 C 194.08388 305.35782 191.03179 307.3082 189.88423 310.39222 C 191.58957 305.2224 195.64727 301.1687 200.8188 299.46845 L 220.8529 291.56707 C 222.87463 291.43517 224.66027 290.2028 225.5007 288.3593 C 226.34116 286.51582 226.1004 284.3596 224.87403 282.7469 C 223.64767 281.1342 221.63418 280.326 219.63316 280.6433 L 198.99457 285.5007 C 207.91663 276.36606 219.70826 270.57696 232.39195 269.10425 C 235.64177 267.98705 238.02534 265.1888 238.6115 261.80267 C 239.19766 258.41654 237.89338 254.9799 235.2082 252.83532 C 232.523 250.69074 228.88305 250.17855 225.71031 251.49884 C 223.14988 255.56156 218.81513 258.17002 214.02638 258.5297 C 209.23763 258.8894 204.56186 256.95773 201.42327 253.32307 C 210.95414 254.6048 220.07766 249.02704 223.2816 239.9598 C 225.0026 234.3332 223.42816 228.2167 219.20438 224.12037 C 214.9806 220.02402 208.81874 218.63764 203.2475 220.53017 C 193.82748 225.26106 186.34745 233.1227 182.09078 242.7663 C 177.83683 233.12448 170.36084 225.26306 160.94487 220.53017 C 155.37362 218.63764 149.21177 220.02402 144.98799 224.12037 C 140.7642 228.2167 139.18975 234.3332 140.91075 239.9598 C 144.1147 249.02704 153.23823 254.6048 162.7691 253.32307 C 159.6305 256.95773 154.95474 258.8894 150.16599 258.5297 C 145.37723 258.17002 141.04248 255.56156 138.48205 251.49884 C 135.30931 250.17855 131.66935 250.69074 128.98417 252.83532 C 126.29899 254.9799 124.9947 258.41654 125.58086 261.80267 C 126.16702 265.1888 128.5506 267.98705 131.80041 269.10425 C 144.4841 270.57696 156.27573 276.36606 165.1978 285.5007 L 144.54841 280.6433 C 142.54482 280.3229 140.52752 281.1313 139.29966 282.74667 C 138.07181 284.36204 137.83275 286.5221 138.67766 288.36687 C 139.52258 290.21164 141.3143 291.4416 143.33946 291.56707 L 163.37357 299.46845 C 168.54096 301.1716 172.5942 305.22483 174.29734 310.39222 C 173.14978 307.3082 170.09769 305.35782 166.81693 305.61197 C 163.53617 305.86613 160.82087 308.2633 160.16198 311.48727 C 159.50308 314.7112 161.06009 317.98155 163.97805 319.50256 C 167.48232 321.4001 171.76325 321.1256 174.9965 318.7961 C 178.22975 316.4666 179.84533 312.49274 179.15475 308.568 Z" stroke="black" stroke-linecap="round" stroke-linejoin="round" stroke-width="1.0483871"/>
        </g>
        <g id="Graphic_4">
          <title>path581</title>
          <path d="M 181.9416 264.9909 L 181.9416 266.37255 L 182.09273 265.68172 L 182.24385 266.37255 L 182.24385 264.9909 L 188.22386 237.2281 C 189.57647 228.0228 194.52127 219.72842 201.97572 214.1608 C 204.76276 213.01607 207.60106 212.00034 210.48158 211.11683 C 213.00532 211.0728 215.2074 209.39321 215.9172 206.97094 C 216.627 204.54867 215.67968 201.94622 213.57885 200.54705 C 211.478 199.14787 208.7115 199.2769 206.75002 200.86552 C 204.78852 202.45416 204.08753 205.13348 205.0197 207.47917 C 198.69495 206.80613 192.74089 210.58165 190.65256 216.5895 C 188.86626 203.32906 193.52799 190.01384 203.19547 180.76343 C 191.7783 186.09594 183.83627 196.8451 182.09273 209.325 C 180.34919 196.8451 172.40715 186.09594 160.98999 180.76343 C 170.65747 190.01384 175.3192 203.32906 173.5329 216.5895 C 171.44457 210.58165 165.4905 206.80613 159.16576 207.47917 C 160.09792 205.13348 159.39694 202.45416 157.43544 200.86552 C 155.47394 199.2769 152.70745 199.14787 150.60661 200.54705 C 148.50577 201.94622 147.55846 204.54867 148.26826 206.97094 C 148.97805 209.39321 151.18013 211.0728 153.70387 211.11683 C 156.5844 212.00034 159.4227 213.01607 162.20974 214.1608 C 169.66419 219.72842 174.60899 228.0228 175.9616 237.2281 Z" fill="#FFFFFF"/>
          <path d="M 181.9416 264.9909 L 181.9416 266.37255 L 182.09273 265.68172 L 182.24385 266.37255 L 182.24385 264.9909 L 188.22386 237.2281 C 189.57647 228.0228 194.52127 219.72842 201.97572 214.1608 C 204.76276 213.01607 207.60106 212.00034 210.48158 211.11683 C 213.00532 211.0728 215.2074 209.39321 215.9172 206.97094 C 216.627 204.54867 215.67968 201.94622 213.57885 200.54705 C 211.478 199.14787 208.7115 199.2769 206.75002 200.86552 C 204.78852 202.45416 204.08753 205.13348 205.0197 207.47917 C 198.69495 206.80613 192.74089 210.58165 190.65256 216.5895 C 188.86626 203.32906 193.52799 190.01384 203.19547 180.76343 C 191.7783 186.09594 183.83627 196.8451 182.09273 209.325 C 180.34919 196.8451 172.40715 186.09594 160.98999 180.76343 C 170.65747 190.01384 175.3192 203.32906 173.5329 216.5895 C 171.44457 210.58165 165.4905 206.80613 159.16576 207.47917 C 160.09792 205.13348 159.39694 202.45416 157.43544 200.86552 C 155.47394 199.2769 152.70745 199.14787 150.60661 200.54705 C 148.50577 201.94622 147.55846 204.54867 148.26826 206.97094 C 148.97805 209.39321 151.18013 211.0728 153.70387 211.11683 C 156.5844 212.00034 159.4227 213.01607 162.20974 214.1608 C 169.66419 219.72842 174.60899 228.0228 175.9616 237.2281 Z" stroke="black" stroke-linecap="round" stroke-linejoin="round" stroke-width="2.0967742"/>
        </g>
      </g>
    </g>
  </g>
</svg>
