<?xml version="1.0" encoding="UTF-8" standalone="no"?>
<!DOCTYPE svg PUBLIC "-//W3C//DTD SVG 1.1//EN" "http://www.w3.org/Graphics/SVG/1.1/DTD/svg11.dtd">
<svg xmlns:xl="http://www.w3.org/1999/xlink" version="1.1" xmlns="http://www.w3.org/2000/svg" xmlns:dc="http://purl.org/dc/elements/1.1/" viewBox="36 72 292.5 279" width="292.5" height="279">
  <defs>
    <clipPath id="artboard_clip_path">
      <path d="M 36 72 L 328.5 72 L 328.5 308.07692 L 216 351 L 36 351 Z"/>
    </clipPath>
  </defs>
  <g id="Crescents,_Three,_Conjoined_In_Pall_At_The_Points" stroke-opacity="1" stroke="none" fill="none" fill-opacity="1" stroke-dasharray="none">
    <title>Crescents, Three, Conjoined In Pall At The Points</title>
    <g id="Crescents,_Three,_Conjoined_In_Pall_At_The_Points_Art" clip-path="url(#artboard_clip_path)">
      <title>Art</title>
      <g id="Graphic_55">
        <path d="M 126.35459 224.72088 C 98.82751 253.18585 99.54155 297.57382 128.49673 325.2127 C 158.18385 353.55056 206.31615 353.55056 236.00327 325.2127 C 264.95845 297.57382 265.6725 253.18584 238.1454 224.72088 C 276.56034 234.32755 314.64443 211.51518 324.10282 172.61982 C 333.80056 132.74109 309.7344 91.05729 270.34955 79.51642 C 231.93598 68.259945 193.13784 89.83555 182.25 127.90719 C 171.36216 89.83555 132.56402 68.259944 94.15045 79.51642 C 54.76559 91.05729 30.69944 132.74109 40.39718 172.61982 C 49.85557 211.51518 87.93966 234.32755 126.35459 224.72088 Z M 152.31374 209.72353 C 148.65738 211.7056 144.73155 213.3092 140.57374 214.46933 C 110.85543 222.7617 80.53994 205.25904 72.86218 175.37604 C 65.184266 145.49309 83.05156 114.54603 112.76991 106.25382 C 142.48823 97.96146 172.80371 115.46411 180.48148 145.34711 C 181.5564 149.5308 182.13063 153.73536 182.24172 157.89568 C 182.24724 157.89568 182.25276 157.89568 182.25828 157.89568 L 182.25828 157.89568 C 182.36937 153.73536 182.9436 149.5308 184.01852 145.34711 C 191.69629 115.46411 222.01177 97.96146 251.7301 106.25382 C 281.44844 114.54603 299.31573 145.49309 291.63782 175.37604 C 283.96006 205.25904 253.64457 222.7617 223.92626 214.46933 C 219.76845 213.3092 215.84262 211.7056 212.18626 209.72354 C 212.18343 209.72845 212.1806 209.73335 212.17775 209.73826 C 215.72246 211.91373 219.07412 214.5118 222.15773 217.5325 C 244.19829 239.12314 244.19829 274.12845 222.15773 295.71908 C 200.1173 317.30983 164.3827 317.30983 142.34227 295.71908 C 120.30171 274.12845 120.30171 239.12314 142.34227 217.5325 C 145.42588 214.5118 148.77754 211.91373 152.32225 209.73826 C 152.31941 209.73335 152.31657 209.72845 152.31374 209.72354 Z" fill="#FFFFFF"/>
        <path d="M 126.35459 224.72088 C 98.82751 253.18585 99.54155 297.57382 128.49673 325.2127 C 158.18385 353.55056 206.31615 353.55056 236.00327 325.2127 C 264.95845 297.57382 265.6725 253.18584 238.1454 224.72088 C 276.56034 234.32755 314.64443 211.51518 324.10282 172.61982 C 333.80056 132.74109 309.7344 91.05729 270.34955 79.51642 C 231.93598 68.259945 193.13784 89.83555 182.25 127.90719 C 171.36216 89.83555 132.56402 68.259944 94.15045 79.51642 C 54.76559 91.05729 30.69944 132.74109 40.39718 172.61982 C 49.85557 211.51518 87.93966 234.32755 126.35459 224.72088 Z M 152.31374 209.72353 C 148.65738 211.7056 144.73155 213.3092 140.57374 214.46933 C 110.85543 222.7617 80.53994 205.25904 72.86218 175.37604 C 65.184266 145.49309 83.05156 114.54603 112.76991 106.25382 C 142.48823 97.96146 172.80371 115.46411 180.48148 145.34711 C 181.5564 149.5308 182.13063 153.73536 182.24172 157.89568 C 182.24724 157.89568 182.25276 157.89568 182.25828 157.89568 L 182.25828 157.89568 C 182.36937 153.73536 182.9436 149.5308 184.01852 145.34711 C 191.69629 115.46411 222.01177 97.96146 251.7301 106.25382 C 281.44844 114.54603 299.31573 145.49309 291.63782 175.37604 C 283.96006 205.25904 253.64457 222.7617 223.92626 214.46933 C 219.76845 213.3092 215.84262 211.7056 212.18626 209.72354 C 212.18343 209.72845 212.1806 209.73335 212.17775 209.73826 C 215.72246 211.91373 219.07412 214.5118 222.15773 217.5325 C 244.19829 239.12314 244.19829 274.12845 222.15773 295.71908 C 200.1173 317.30983 164.3827 317.30983 142.34227 295.71908 C 120.30171 274.12845 120.30171 239.12314 142.34227 217.5325 C 145.42588 214.5118 148.77754 211.91373 152.32225 209.73826 C 152.31941 209.73335 152.31657 209.72845 152.31374 209.72354 Z" stroke="black" stroke-linecap="round" stroke-linejoin="round" stroke-width="2"/>
      </g>
    </g>
  </g>
</svg>
