<?xml version="1.0" encoding="UTF-8" standalone="no"?>
<!DOCTYPE svg PUBLIC "-//W3C//DTD SVG 1.1//EN" "http://www.w3.org/Graphics/SVG/1.1/DTD/svg11.dtd">
<svg xmlns:xl="http://www.w3.org/1999/xlink" version="1.1" xmlns="http://www.w3.org/2000/svg" xmlns:dc="http://purl.org/dc/elements/1.1/" viewBox="58.5 90 301.5 182.42695" width="301.5" height="182.42695">
  <defs>
    <clipPath id="artboard_clip_path">
      <path d="M 58.5 90 L 360 90 L 360 272.42695 L 58.5 272.42695 Z"/>
    </clipPath>
  </defs>
  <g id="Crescent_(16)" stroke-opacity="1" stroke="none" fill="none" fill-opacity="1" stroke-dasharray="none">
    <title>Crescent (16)</title>
    <g id="Crescent_(16)_Art" clip-path="url(#artboard_clip_path)">
      <title>Art</title>
      <g id="Graphic_25">
        <path d="M 68.52924 93.89432 C 58.50279 140.15445 71.46864 190.39788 107.42679 226.35584 C 163.66221 282.59156 254.8378 282.59156 311.0732 226.35584 C 347.03136 190.39788 359.9972 140.15445 349.97076 93.89432 C 344.31665 119.43222 331.3508 143.73006 311.0732 163.58065 C 254.8378 218.63245 163.66221 218.63245 107.42679 163.58065 C 87.1492 143.73006 74.18335 119.43222 68.52923 93.89433 Z" fill="#FFFFFF"/>
        <path d="M 68.52924 93.89432 C 58.50279 140.15445 71.46864 190.39788 107.42679 226.35584 C 163.66221 282.59156 254.8378 282.59156 311.0732 226.35584 C 347.03136 190.39788 359.9972 140.15445 349.97076 93.89432 C 344.31665 119.43222 331.3508 143.73006 311.0732 163.58065 C 254.8378 218.63245 163.66221 218.63245 107.42679 163.58065 C 87.1492 143.73006 74.18335 119.43222 68.52923 93.89433 Z" stroke="black" stroke-linecap="round" stroke-linejoin="round" stroke-width="2"/>
      </g>
    </g>
  </g>
</svg>
