<?xml version="1.0" encoding="UTF-8" standalone="no"?>
<!DOCTYPE svg PUBLIC "-//W3C//DTD SVG 1.1//EN" "http://www.w3.org/Graphics/SVG/1.1/DTD/svg11.dtd">
<svg xmlns:xl="http://www.w3.org/1999/xlink" version="1.1" xmlns="http://www.w3.org/2000/svg" xmlns:dc="http://purl.org/dc/elements/1.1/" viewBox="36 63 292.5 292.5" width="292.5" height="292.5">
  <defs>
    <clipPath id="artboard_clip_path">
      <path d="M 36 63 L 328.5 63 L 328.5 355.5 L 36 355.5 Z"/>
    </clipPath>
  </defs>
  <g id="Crescent_(9)" stroke-opacity="1" stroke="none" fill="none" fill-opacity="1" stroke-dasharray="none">
    <title>Crescent (9)</title>
    <g id="Crescent_(9)_Art" clip-path="url(#artboard_clip_path)">
      <title>Art</title>
      <g id="Graphic_72">
        <rect x="325.40625" y="353.25" width="108.28125" height="108.28125" id="path"/>
        <clipPath id="clip_path">
          <use xl:href="#path"/>
        </clipPath>
        <g clip-path="url(#clip_path)">
          <image xl:href="image201.pdf" width="289" height="285" transform="matrix(.37 0 0 .36956057 326.08188 354.72824)"/>
        </g>
      </g>
      <g id="Group_640">
        <g id="Graphic_659">
          <path d="M 197.4233 67.534445 C 195.05977 67.82093 192.553 68.39391 191.83679 68.75202 C 190.69084 69.396614 190.69084 69.53986 192.05165 70.9723 C 192.8395 71.83176 195.20301 72.90609 197.56654 73.40744 C 213.75309 76.988535 231.08558 90.09534 240.6113 105.85216 C 241.2559 106.99811 242.68833 108.9319 243.76266 110.2211 C 246.12618 112.94273 250.7816 122.46844 250.7816 124.54547 C 250.7816 126.47926 252.50053 132.06577 253.93297 134.85903 C 255.58027 137.93877 255.86676 158.56587 254.3627 161.78886 C 253.78972 163.07805 253.36 166.44428 253.36 170.02537 C 253.28837 175.82675 253.14513 176.3281 250.4235 180.62542 C 248.8478 183.13218 246.4843 186.57003 245.26672 188.36058 C 243.97752 190.0795 242.9032 191.87005 242.9032 192.29978 C 242.9032 193.94709 239.10724 199.39035 236.7437 201.1809 C 234.30857 203.04307 231.22883 205.83632 224.2815 212.6404 C 221.55987 215.2904 219.9842 216.07825 213.53822 218.01204 C 209.38415 219.30124 204.08413 220.94854 201.7206 221.73638 C 199.4287 222.52422 195.91923 223.31206 194.05706 223.52693 C 192.12327 223.7418 190.40435 224.24315 190.18948 224.52964 C 189.54489 225.60396 176.93943 225.17423 173.78807 224.0999 C 172.21239 223.52693 170.06373 223.02558 169.06102 223.02558 C 168.05832 223.02558 165.4083 222.02287 163.18803 220.87692 C 160.96775 219.65935 158.1745 218.72826 157.02855 218.72826 C 153.66232 218.72826 151.22717 217.5107 147.28797 213.85797 C 145.35418 211.9958 142.41768 209.63228 140.842 208.7012 C 134.18116 204.69037 124.01085 195.16466 124.01085 192.87276 C 124.01085 192.44303 122.57841 189.14842 120.85949 185.4957 C 119.14056 181.9146 117.35002 177.04432 116.84866 174.6808 C 116.41893 172.31728 115.48785 168.95105 114.91487 167.1605 C 114.19865 164.94022 113.76892 160.2848 113.62568 152.47801 C 113.41081 142.59419 113.55406 140.58878 114.7 138.01039 C 115.41623 136.36308 116.20407 132.85361 116.49055 130.13198 C 116.77704 127.12386 117.70813 123.61439 118.99732 120.96438 C 126.51762 104.92107 128.52303 101.19674 130.60007 99.69268 C 132.82035 98.04537 138.83658 92.10075 143.92174 86.58587 C 145.71229 84.65208 149.50825 82.21693 155.73935 79.06557 C 160.8245 76.48718 165.4083 73.90879 165.98128 73.2642 C 166.98399 72.18987 166.6975 71.90338 162.97316 70.184455 C 160.75288 69.18175 158.03125 68.322286 156.95692 68.322286 C 154.66502 68.322286 144.70958 70.82905 142.70417 71.90338 C 141.91633 72.26149 140.62713 72.6196 139.83929 72.6196 C 139.05145 72.6196 135.6136 74.05204 132.10413 75.842585 C 124.36896 79.71017 118.42434 82.36018 113.33919 84.15072 C 111.19053 84.86694 107.32295 86.72911 104.74456 88.23317 C 102.16617 89.73723 98.6567 91.31291 97.0094 91.81427 C 94.93236 92.45886 92.4256 94.17779 89.34586 97.18591 C 77.67149 108.43055 65.99712 120.24816 65.99712 120.67789 C 65.99712 120.96438 64.42144 123.11303 62.416024 125.40494 C 60.48223 127.69684 58.83493 129.91711 58.83493 130.34685 C 58.83493 130.77658 58.333576 131.56442 57.7606 132.06577 C 57.187626 132.56712 56.25654 134.4293 55.683566 136.29146 C 55.11059 138.08201 53.821397 141.44824 52.81869 143.74014 C 51.815984 146.03204 50.95652 148.25232 50.95652 148.75367 C 50.95652 149.25503 50.52679 150.4726 49.953814 151.54693 C 49.38084 152.62125 48.73624 154.55505 48.449755 155.84424 C 48.23489 157.13343 47.59029 159.35371 47.08894 160.71453 C 42.14703 173.82134 40.428103 178.76325 39.49702 182.5592 C 39.067287 184.56462 38.49431 193.73222 38.351068 203.32956 C 37.99296 220.87692 38.49431 226.46343 41.359187 239.4986 C 41.93216 242.077 42.361894 244.6554 42.361894 245.22836 C 42.361894 245.87296 43.00649 247.5919 43.79433 249.16757 C 44.58217 250.74325 45.22677 252.39055 45.22677 252.8919 C 45.22677 253.39326 45.6565 254.8257 46.229476 256.1149 C 46.80245 257.4041 47.80516 259.98247 48.449755 261.84464 C 49.09435 263.7068 50.383546 266.2852 51.24301 267.646 C 52.174093 269.00683 53.46329 271.8001 54.179506 273.87712 C 55.683566 278.3893 57.61736 281.9704 60.41061 285.19338 C 61.48494 286.48257 62.416024 287.98663 62.416024 288.63123 C 62.416024 289.92042 78.10122 306.5367 81.68231 308.97185 C 83.18637 309.97456 85.47827 311.83672 86.83909 313.0543 C 90.34856 316.3489 96.57967 320.78946 100.59049 322.9381 C 102.45266 323.94082 104.60132 325.37326 105.31754 326.0895 C 106.03376 326.8057 108.82701 328.453 111.54864 329.7422 C 114.27027 330.95977 117.2784 332.7503 118.2811 333.6814 C 119.28381 334.6125 121.07435 335.54357 122.29193 335.75844 C 123.58112 336.04492 125.8014 337.3341 127.30546 338.6233 C 130.95818 341.70305 132.319 342.34765 136.18657 342.99225 C 137.97712 343.27874 142.20281 344.4247 145.56904 345.57064 C 148.93527 346.7166 154.09205 347.93416 157.02855 348.3639 C 159.96504 348.79362 163.54614 349.4382 165.12182 349.86795 C 166.62588 350.2977 169.34751 350.44093 171.20968 350.15444 C 173.00023 349.93957 176.07997 350.0828 178.08538 350.51255 C 182.66918 351.51525 191.69354 351.51525 194.91653 350.51255 C 196.27734 350.0828 200.3598 349.4382 203.94089 349.0801 C 207.52198 348.722 211.89092 347.93416 213.60984 347.3612 C 215.32877 346.7166 218.12202 346.21523 219.76932 346.21523 C 222.49096 346.21523 231.8018 343.06387 238.964 339.76926 C 240.53967 339.05304 243.9059 337.76385 246.41267 336.9044 C 248.91944 336.11655 251.64107 334.89897 252.50053 334.326 C 253.28837 333.82465 254.50594 333.3233 255.22216 333.3233 C 258.73163 333.3233 270.6925 325.4449 278.2128 318.13945 C 279.35874 316.9935 280.5763 316.13404 281.00604 316.13404 C 281.8655 316.13404 289.45743 308.5421 291.0331 305.96373 C 291.74933 304.96102 293.6115 303.17048 295.2588 302.02452 C 297.1926 300.73533 299.05476 298.51505 300.55882 295.7218 C 301.848 293.35828 304.99938 287.70015 307.6494 283.18797 C 310.22778 278.6758 312.73454 273.66226 313.16427 272.1582 C 313.594 270.65414 314.66833 268.219 315.5278 266.78655 C 317.8913 263.0622 322.0454 252.10407 323.3346 246.3027 C 325.4116 236.8486 326.0562 228.3256 326.19946 206.55254 C 326.3427 186.1403 326.27108 184.27813 324.76702 178.62 C 323.90756 175.25377 322.69 170.31186 322.0454 167.59023 C 320.61295 161.2875 314.31022 145.53069 311.80346 141.73473 C 310.80075 140.15905 308.07912 135.14551 305.78722 130.63333 C 303.4953 126.12115 301.2034 122.0387 300.70206 121.6806 C 298.41016 119.81843 292.17906 111.94002 291.53446 110.00623 C 291.17635 108.86028 290.10202 107.57108 289.17094 107.14135 C 288.23985 106.71162 285.30336 103.77512 282.58173 100.55214 C 278.2128 95.46698 269.7614 88.37642 267.97086 88.37642 C 267.61275 88.37642 265.8222 87.08722 263.8884 85.51154 C 262.02624 84.00748 259.37623 81.85882 258.08704 80.7845 C 255.22216 78.492595 246.34105 74.76826 243.61941 74.76826 C 242.5451 74.76826 239.39372 73.83717 236.7437 72.69122 C 233.7356 71.40203 229.72477 70.39932 226.43016 70.11283 C 223.49366 69.826346 219.91257 69.18175 218.48013 68.680395 C 215.18552 67.46282 203.0098 66.81823 197.4233 67.534445 Z" fill="black"/>
        </g>
        <g id="Graphic_658">
          <path d="M 246.05456 93.67644 C 256.3681 103.77512 260.73705 108.86028 263.96003 114.51841 C 265.10598 116.4522 266.8249 119.10221 267.756 120.31978 C 268.61546 121.53735 269.7614 123.61439 270.19114 124.9752 C 270.62087 126.33602 272.3398 130.13198 274.05872 133.49821 C 276.70873 138.79823 277.2817 140.80364 278.35603 148.5388 C 279.07225 153.48072 279.78847 161.50237 280.07496 166.44428 C 280.43307 173.31998 280.79118 175.82675 281.7939 177.18756 C 283.58443 179.76595 283.5128 188.28896 281.57902 191.15383 C 280.79118 192.29978 280.14658 193.94709 280.14658 194.73493 C 280.14658 195.52277 279.502 198.2444 278.64252 200.8228 C 277.85468 203.32956 277.2817 206.1228 277.35333 206.91065 C 277.71144 211.56607 277.21008 213.78635 275.20467 216.00663 C 274.13034 217.29582 272.91277 219.158 272.62628 220.1607 C 271.83844 222.8107 267.54113 231.19047 266.03707 233.12426 C 262.59922 237.4932 246.41267 251.5311 242.2586 253.823 C 240.39643 254.89732 237.60318 256.68787 236.0275 257.90544 C 234.52343 259.123 231.94505 260.48383 230.36936 260.98518 C 228.79368 261.48653 225.9288 262.63248 223.9234 263.49195 C 221.9896 264.42303 218.33689 265.2825 215.83012 265.56898 C 213.39498 265.78385 210.38686 266.50007 209.2409 267.07304 C 208.09496 267.646 206.3044 268.14737 205.3017 268.14737 C 204.299 268.14737 202.3652 268.5771 201.076 269.15008 C 199.4287 269.79467 194.98815 270.2244 187.9692 270.43927 L 177.36916 270.65414 L 173.8597 268.2906 C 170.49346 265.9987 170.20697 265.9271 169.34751 267.14466 C 168.84616 267.86088 168.41643 269.00683 168.41643 269.79467 C 168.41643 270.79738 167.9867 271.08387 166.48264 270.869 C 164.76371 270.65414 164.4056 270.2244 163.68938 266.85818 C 162.68668 262.41762 161.54072 260.84194 159.53531 261.12842 C 158.1745 261.3433 158.03125 261.77302 158.24612 265.42574 C 158.38936 267.646 158.1745 269.65143 157.74476 269.8663 C 155.8826 271.08387 154.02043 268.36223 149.86636 258.62166 C 149.07852 256.68787 148.0758 255.32705 147.64608 255.61354 C 147.21635 255.8284 146.92986 258.97977 146.92986 262.84735 C 146.92986 268.9352 146.78661 269.65143 145.71229 269.43656 C 144.99607 269.29332 144.20823 268.07575 143.70687 266.35682 C 143.34876 264.78114 142.56092 262.77573 142.1312 261.91626 C 141.62984 261.0568 141.2001 258.97977 141.12849 257.26084 C 141.12849 255.54192 140.91362 252.8919 140.62713 251.31622 L 140.12578 248.45135 L 139.12307 250.81487 C 138.5501 252.2473 138.26361 254.5392 138.5501 256.90273 C 138.69334 258.90814 138.62172 261.3433 138.26361 262.27437 C 136.54468 266.78655 132.10413 257.90544 131.10142 247.80675 C 130.81493 244.727 130.31358 242.00538 130.09871 241.7905 C 128.95276 240.64456 128.30817 244.15403 128.30817 251.81758 C 128.30817 259.91085 127.4487 263.42032 126.66086 258.62166 C 126.37437 257.4041 125.72978 253.75137 125.08518 250.6 C 124.44058 247.3054 124.08247 243.00808 124.22572 240.4297 C 124.58383 236.06076 124.58383 236.06076 123.07977 237.34995 C 121.93382 238.4959 121.57571 239.92834 121.28922 245.51485 C 120.93111 252.8919 120.14327 254.4676 117.85137 252.82028 C 116.56218 251.8892 116.49055 250.74325 116.41893 237.8513 C 116.34731 230.18777 116.13244 223.59855 115.84596 223.0972 C 114.3419 220.66205 113.33919 225.81883 113.19595 237.34995 C 113.12432 241.0743 112.90946 244.727 112.76622 245.3716 C 112.26486 247.37702 109.7581 246.9473 108.89863 244.6554 C 107.60944 241.4324 107.8243 227.681 109.25674 221.73638 C 109.97296 218.8715 110.40269 216.29312 110.1162 216.07825 C 109.90134 215.79176 109.68647 216.14987 109.68647 216.79447 C 109.68647 217.43907 109.04188 218.65664 108.18241 219.5161 C 106.60673 221.09179 103.95672 230.6175 103.95672 234.5567 C 103.95672 237.7797 102.66753 239.7851 101.37833 238.71077 C 100.66212 238.1378 100.37563 236.34725 100.44725 232.40804 C 100.51887 222.30936 101.44996 216.50798 103.95672 210.77823 C 105.46078 207.26876 106.10538 204.83362 105.81889 203.97415 C 105.31754 202.75658 105.10267 202.8282 103.16888 204.90524 C 102.09455 206.19443 100.9486 208.12822 100.66212 209.20255 C 100.44725 210.3485 99.80265 212.35391 99.22968 213.71473 C 98.6567 215.07555 97.58237 219.08637 96.93778 222.59584 C 95.57696 229.39992 94.43101 230.90398 93.14182 227.53776 C 91.1364 222.30936 96.50805 202.75658 102.2378 194.59168 C 102.95402 193.6606 103.02564 192.94438 102.59591 192.6579 C 101.73644 192.08492 93.92966 199.8917 93.92966 201.32414 C 93.92966 201.89712 93.4283 203.32956 92.71208 204.61875 C 92.06749 205.90794 91.20803 208.48633 90.77829 210.49174 C 89.77559 215.07555 88.62964 214.78906 88.34315 209.9904 C 88.05666 204.90524 90.49181 196.23899 94.64588 187.57274 C 96.57967 183.70516 97.94048 180.12406 97.72562 179.76595 C 97.43913 179.40784 96.93778 179.76595 96.57967 180.62542 C 96.14994 181.48488 95.43372 182.2011 94.93236 182.2011 C 94.0729 182.2011 86.05125 195.02142 86.05125 196.45385 C 86.05125 196.81196 85.19179 198.17278 84.11746 199.39035 C 82.25529 201.68225 82.18367 201.68225 81.61069 200.10657 C 81.3242 199.2471 81.3242 197.95791 81.75394 197.2417 C 82.18367 196.52548 82.47015 195.23628 82.47015 194.44844 C 82.47015 189.86464 89.70397 172.96187 93.21344 169.38078 C 95.64858 166.87401 97.654 163.65103 97.36751 162.79156 C 96.79453 161.14426 84.54719 174.6808 83.11475 178.40514 C 82.54178 179.9092 79.60528 180.84028 79.60528 179.47946 C 79.60528 178.19027 81.75394 172.1024 83.04313 169.59564 C 84.83368 166.22941 99.65941 146.96313 100.87698 146.60502 C 102.02293 146.17528 102.81077 153.4091 101.87969 155.91586 C 101.23509 157.63479 101.37833 158.27938 102.66753 160.06993 C 103.74186 161.50237 104.45808 163.72265 104.74456 166.65915 C 105.24592 171.7443 108.68377 184.63624 110.04458 186.7849 C 110.61756 187.64436 111.83513 190.366 112.90946 192.94438 C 114.41352 196.74034 116.13244 199.03224 122.00544 205.1201 C 125.94464 209.27417 130.45682 214.2877 131.96088 216.29312 C 135.32711 220.94854 139.62443 224.31477 142.77579 224.88775 C 144.06498 225.17423 145.99877 225.81883 147.0731 226.32018 C 148.14743 226.89316 149.79473 227.3229 150.79744 227.3229 C 151.80015 227.3229 153.80556 227.9675 155.30962 228.6837 C 158.96234 230.54588 171.35292 231.9783 183.09891 231.9067 C 193.1976 231.83507 204.0125 229.9729 209.45577 227.3229 C 218.98148 222.8107 234.80992 213.14175 241.04103 208.0566 C 246.77078 203.4728 249.06268 200.5363 252.57215 193.37411 C 253.93297 190.58086 256.6546 185.85381 258.51677 182.91732 C 262.8857 176.18486 263.74517 173.17674 264.38976 162.50508 C 264.96274 152.90774 264.60463 149.75638 260.37894 128.84279 C 258.9465 121.96708 256.3681 117.0968 244.76537 100.19403 C 242.5451 97.04267 240.82616 94.10617 240.75454 93.60481 C 240.75454 93.17508 238.964 90.9548 236.7437 88.80615 C 232.87613 84.86694 232.23153 83.14802 235.0248 83.86424 C 235.81263 84.0791 240.75454 88.44804 246.05456 93.67644 Z" fill="#FFFFFF"/>
        </g>
        <g id="Graphic_657">
          <path d="M 123.79599 91.02643 C 124.08247 91.88589 115.84596 98.76159 114.55676 98.76159 C 112.55135 98.76159 113.84054 96.68456 117.92299 93.31833 C 122.07706 89.88048 123.29463 89.45074 123.79599 91.02643 Z" fill="#FFFFFF"/>
        </g>
        <g id="Graphic_656">
          <path d="M 112.55135 92.31562 C 112.55135 94.03455 110.04458 97.83051 107.4662 100.12241 C 105.74727 101.69809 103.81348 103.77512 103.16888 104.77783 C 102.52428 105.85216 99.51616 109.21839 96.50805 112.36975 C 91.06478 117.95626 88.91612 120.96438 88.91612 122.96979 C 88.91612 123.47114 88.05666 125.04683 87.05396 126.40764 C 86.05125 127.76846 84.54719 130.27522 83.83097 131.99415 C 83.04313 133.71307 81.39583 136.64957 80.17825 138.44012 C 77.88635 141.87797 76.23905 146.96313 73.87553 158.351 C 73.15931 161.9321 72.1566 165.65644 71.65525 166.58752 C 71.01065 167.8051 71.01065 169.8105 71.65525 175.75513 C 72.1566 179.9092 72.37147 185.06597 72.22822 187.21463 C 72.01336 189.50653 72.299845 192.22816 72.87282 193.87547 C 73.445796 195.45115 73.87553 197.5998 73.87553 198.6025 C 73.87553 205.1201 83.04313 227.3945 87.34044 231.54858 C 89.63234 233.69724 94.93236 241.0743 97.86886 246.15945 C 98.94319 248.02162 100.80536 250.09865 102.02293 250.67163 C 103.16888 251.31622 104.81618 252.5338 105.67565 253.39326 C 107.96755 255.90003 119.64192 264.56627 121.64733 265.3541 C 122.57841 265.71222 124.29734 265.9987 125.44329 265.9987 C 126.58924 265.9987 128.45141 266.78655 129.66898 267.86088 C 131.6744 269.5082 139.33794 272.44468 141.8447 272.44468 C 142.41768 272.44468 145.35418 273.66226 148.29067 275.23794 C 153.73394 277.95957 160.89613 279.96498 168.41643 280.6812 C 172.06914 281.0393 172.71374 281.39742 176.93943 285.5515 C 179.4462 287.98663 181.7381 290.70827 182.0962 291.56773 C 182.7408 293.28665 183.31378 293.50152 184.60297 292.64206 C 185.24757 292.28395 185.24757 290.99475 184.81784 288.2015 C 184.45973 286.05284 184.45973 284.04743 184.81784 283.68932 C 186.10703 282.40013 189.6165 285.265 191.69354 289.27583 C 194.34355 294.50423 195.41788 295.7218 196.7787 294.57585 C 198.21113 293.35828 197.99627 291.92584 195.99086 289.4907 C 193.98544 287.12717 193.62733 284.04743 195.27464 283.40283 C 196.4922 282.9731 199.21384 285.05014 199.21384 286.48257 C 199.21384 287.915 203.6544 292.4988 205.08684 292.4988 C 206.80576 292.4988 206.73414 292.1407 204.22737 288.41637 C 203.08142 286.69744 202.07872 284.9785 202.07872 284.69203 C 202.07872 284.33392 201.29088 283.54608 200.28817 282.90148 C 198.35438 281.6123 197.92465 279.24876 199.4287 278.6758 C 200.86114 278.17443 206.44765 281.89877 208.45307 284.69203 C 211.24632 288.488 213.1085 290.35016 214.32606 290.35016 C 216.4031 290.35016 216.33147 289.5623 213.8247 285.47987 C 211.1747 281.0393 210.74497 278.89065 212.60713 278.89065 C 214.39768 278.89065 219.84095 283.3312 220.3423 285.265 C 220.6288 286.48257 220.9869 286.76906 221.55987 286.1961 C 222.13285 285.6231 221.77474 284.11905 220.12743 280.82444 C 218.83824 278.24606 217.83553 275.66767 217.83553 275.02307 C 217.83553 273.94874 218.0504 273.94874 219.84095 274.87983 C 220.91527 275.4528 223.20718 277.4582 224.85448 279.392 C 230.72747 286.1961 230.7991 286.2677 231.58694 285.47987 C 232.58964 284.47716 231.8018 282.47175 229.43828 279.96498 C 225.9288 276.24064 222.9207 271.65684 223.2788 270.65414 C 224.2815 268.14737 226.71665 268.72034 230.65585 272.37306 C 231.94505 273.59063 233.30586 274.59334 233.59235 274.59334 C 233.87884 274.59334 235.31128 276.3839 236.81534 278.53254 C 238.46264 281.0393 239.89508 282.47175 240.82616 282.47175 C 243.5478 282.47175 242.11536 279.82174 236.09912 273.73388 C 232.7329 270.36765 230.01126 267.2879 230.01126 266.85818 C 230.01126 266.35682 230.7991 265.49736 231.8018 264.85276 C 233.4491 263.77843 233.7356 263.77843 236.81534 265.2825 C 241.11265 267.35953 243.9059 269.72305 246.5559 273.66226 C 249.1343 277.3866 251.7127 277.7447 252.0708 274.37847 C 252.28566 272.8028 251.35458 271.44198 247.55862 267.2163 C 244.98023 264.42303 242.97482 261.62978 243.04644 261.0568 C 243.69104 257.7622 249.4924 258.69328 253.78972 262.7041 C 257.80055 266.50007 261.81138 269.36494 262.74246 269.07845 C 264.38976 268.50548 262.31273 264.996 257.58568 260.48383 C 253.0735 256.25813 252.0708 254.39597 253.64648 253.46488 C 254.57756 252.8919 261.73975 256.473 267.4695 260.4122 C 269.83303 261.9879 271.83844 263.0622 272.0533 262.84735 C 273.629 261.3433 265.39247 250.2419 262.67084 250.2419 C 260.52218 250.2419 256.72622 246.3027 258.08704 245.51485 C 259.3046 244.727 261.45327 245.08512 263.2438 246.3743 C 264.03165 246.9473 265.1776 247.37702 265.8222 247.37702 C 266.39518 247.37702 268.83032 248.80946 271.12222 250.6 C 276.06413 254.25272 278.929 255.61354 280.5763 254.96894 C 282.43848 254.25272 280.43307 251.81758 275.06143 248.23648 C 272.55466 246.58918 269.4033 244.29728 268.04248 243.29457 L 265.60734 241.4324 L 267.32626 239.99996 C 270.406 237.4932 277.9263 239.57023 284.73038 244.79863 C 288.31148 247.52026 290.17365 248.02162 290.17365 246.3743 C 290.17365 244.79863 281.29253 238.06617 279.2155 238.06617 C 277.42495 238.06617 273.056 234.1986 272.9844 232.5513 C 272.9844 230.68912 274.20196 230.2594 278.929 230.2594 C 281.93713 230.331 283.29794 230.90398 288.3831 234.12697 C 295.18718 238.4959 296.9061 239.06888 297.12097 236.99185 C 297.2642 235.91752 296.1899 234.8432 293.11014 232.9094 C 290.74662 231.47696 287.95337 230.04452 286.8074 229.75803 C 283.58443 228.9702 278.2128 226.0337 277.78306 224.81612 C 276.5655 221.808 280.43307 219.22962 284.802 220.1607 C 289.0277 221.02016 293.18177 222.30936 295.18718 223.4553 C 298.05205 224.95937 303.63856 227.3229 304.4264 227.3229 C 304.85613 227.3229 305.21424 226.82154 305.21424 226.24856 C 305.21424 225.67559 304.92776 225.17423 304.49802 225.17423 C 304.1399 225.17423 302.7791 224.24315 301.4183 223.02558 C 299.26963 221.1634 295.40204 219.30124 288.23985 216.5796 C 281.2209 213.9296 283.36957 209.27417 291.10473 210.42012 C 292.75203 210.635 296.11826 211.13634 298.4818 211.49445 C 301.06017 211.85256 304.1399 212.9269 305.93046 214.07284 C 310.15615 216.72285 310.2994 215.79176 306.14533 212.49716 C 302.421 209.63228 298.26692 207.62687 291.24797 205.4066 C 287.88175 204.33226 286.87904 203.68766 286.7358 202.4701 C 286.4493 200.5363 287.95337 199.74846 292.75203 199.10386 C 295.5453 198.74575 297.40746 199.03224 301.4899 200.46468 C 304.28316 201.46739 307.14803 202.25523 307.86425 202.25523 C 308.50885 202.25523 310.08453 202.61334 311.44535 203.1147 C 314.02374 204.04577 314.81158 203.75929 314.09536 202.04036 C 313.16427 199.5336 308.6521 197.81467 302.34937 197.45656 C 296.2615 197.09845 290.675 195.66601 288.81283 193.94709 C 286.3777 191.7268 297.33584 189.4349 310.0129 189.36329 C 316.5305 189.36329 317.38997 189.50653 318.1062 190.7241 C 318.96565 192.3714 318.4643 199.8917 316.8886 210.84985 C 316.31564 215.00392 315.5278 222.88233 315.2413 228.39722 C 314.45347 243.15133 313.09265 248.80946 307.6494 259.55274 C 305.14262 264.56627 303.0656 269.00683 303.0656 269.36494 C 303.0656 269.79467 302.1345 271.37035 300.91693 273.01766 C 299.77098 274.59334 298.62503 276.81362 298.33854 277.81632 C 298.12368 278.81903 297.2642 279.96498 296.548 280.3231 C 295.83178 280.75282 294.04123 282.90148 292.6088 285.19338 C 288.16823 291.92584 280.36145 301.45155 278.35603 302.52588 C 277.35333 303.09885 275.3479 305.03264 273.9871 306.8948 C 272.62628 308.757 269.97627 311.26375 268.1141 312.48132 C 266.25193 313.6989 263.45868 315.56106 261.883 316.707 C 258.01542 319.50027 250.7816 323.72596 248.99106 324.2273 C 248.20322 324.44218 245.76807 325.30164 243.61941 326.1611 C 241.47076 327.02057 236.81534 328.453 233.23424 329.4557 C 229.72477 330.4584 225.85719 331.60437 224.6396 331.96248 C 223.49366 332.3922 221.20176 333.10843 219.62608 333.46654 C 218.0504 333.82465 214.18282 334.9706 211.03145 335.9017 C 205.51657 337.6206 204.37062 337.69223 187.89758 337.6206 C 172.284 337.6206 169.77724 337.40574 162.32857 335.83006 C 157.81639 334.82735 152.44474 334.0395 150.36771 334.0395 C 144.85282 333.9679 141.62984 333.10843 128.66628 327.95165 C 116.06082 323.00974 114.77163 322.29352 108.82701 317.85296 C 106.67835 316.20566 103.16888 313.7705 101.02022 312.48132 C 95.93507 309.40158 94.43101 308.04076 90.70667 302.884 C 88.98775 300.52047 85.33503 296.3664 82.47015 293.64476 C 79.6769 290.92313 76.7404 287.48528 76.02418 286.05284 C 75.307965 284.6204 74.162014 283.04472 73.51742 282.47175 C 72.299845 281.46904 68.145775 275.52442 68.145775 274.73658 C 68.145775 274.4501 67.07145 272.44468 65.78225 270.29603 C 64.49306 268.14737 62.70251 264.56627 61.699805 262.41762 C 60.6971 260.26896 58.76331 256.61624 57.25925 254.32434 C 55.54032 251.5311 54.179506 248.3081 53.391665 244.6554 C 52.74707 241.64727 51.529496 236.5621 50.59841 233.41075 C 49.73895 230.2594 48.807864 225.60396 48.521377 223.02558 C 48.23489 220.4472 47.51867 216.79447 46.945695 214.9323 C 46.157854 212.6404 45.94299 210.3485 46.229476 208.12822 C 46.515964 206.26605 46.945695 200.39306 47.23218 195.09304 C 47.59029 188.14571 48.091645 184.8511 48.95111 183.27543 C 50.45517 180.62542 51.815984 175.61188 53.821397 165.36995 C 55.253835 157.92127 56.54303 154.0537 59.62277 147.39286 C 60.33899 145.74555 60.983586 144.02663 61.05521 143.45365 C 61.05521 142.23608 64.27819 136.57795 66.49847 133.71307 C 67.28631 132.63875 69.93632 129.12927 72.299845 125.97791 C 74.66337 122.82655 78.17284 118.81572 80.03501 116.95355 C 81.9688 115.163 85.04854 112.15488 86.83909 110.14947 C 88.62964 108.21568 91.63776 105.49405 93.49993 104.13323 C 95.3621 102.77242 98.79995 100.05078 101.16347 98.18862 C 106.03376 94.24941 112.55135 90.88318 112.55135 92.31562 Z" fill="#FFFFFF"/>
        </g>
        <g id="Graphic_655">
          <path d="M 262.09786 96.46969 C 263.38706 97.4724 261.95462 98.26024 259.66272 97.83051 C 258.51677 97.61564 257.9438 97.04267 257.9438 96.11158 C 257.9438 95.03725 258.23028 94.82239 259.5911 95.25212 C 260.45056 95.46698 261.5965 96.03996 262.09786 96.46969 Z" fill="#FFFFFF"/>
        </g>
        <g id="Graphic_654">
          <path d="M 274.70332 104.9927 C 275.2763 105.92378 275.20467 106.49676 274.56007 107.14135 C 273.91548 107.78595 272.84115 107.85757 269.6898 107.14135 C 265.24923 106.21027 263.67355 105.27918 263.67355 103.48864 C 263.67355 102.34269 264.1749 102.34269 268.83032 103.0589 C 272.19655 103.56026 274.20196 104.20485 274.70332 104.9927 Z" fill="#FFFFFF"/>
        </g>
        <g id="Graphic_653">
          <path d="M 112.19324 106.92649 C 112.19324 108.2873 106.96484 111.00893 106.10538 110.14947 C 104.88781 108.9319 106.10538 107.06973 108.54052 106.35351 C 111.19053 105.56567 112.19324 105.70891 112.19324 106.92649 Z" fill="#FFFFFF"/>
        </g>
        <g id="Graphic_652">
          <path d="M 277.6398 112.94273 C 282.5101 113.80219 283.72768 114.51841 283.72768 116.30895 C 283.72768 117.02517 283.29794 117.74139 282.8682 117.95626 C 281.2209 118.52923 272.6979 117.59815 270.6925 116.52382 C 267.18302 114.8049 268.54383 110.65083 272.26817 111.79678 C 272.84115 112.01164 275.2763 112.513 277.6398 112.94273 Z" fill="#FFFFFF"/>
        </g>
        <g id="Graphic_651">
          <path d="M 105.1743 117.4549 C 105.5324 118.67248 103.59861 120.31978 99.08643 122.61168 C 94.86074 124.76034 93.21344 124.9752 93.21344 123.47114 C 93.21344 122.6833 103.38375 116.23733 104.24321 116.52382 C 104.60132 116.66706 105.03105 117.02517 105.1743 117.4549 Z" fill="#FFFFFF"/>
        </g>
        <g id="Graphic_650">
          <path d="M 290.17365 123.82925 C 291.6061 125.54818 289.88716 126.83737 284.37227 128.12657 C 279.14387 129.27252 277.13846 128.91441 276.279 126.6225 C 275.9925 125.97791 275.9925 124.83196 276.20738 124.11574 C 276.6371 122.89817 277.42495 122.75493 282.93983 122.75493 C 287.7385 122.75493 289.52905 123.04141 290.17365 123.82925 Z" fill="#FFFFFF"/>
        </g>
        <g id="Graphic_649">
          <path d="M 103.52699 128.77116 C 102.88239 130.8482 100.23238 133.56983 95.57696 136.79282 C 93.4283 138.3685 90.63505 140.44553 89.34586 141.44824 C 86.62422 143.81176 83.90259 144.74285 83.90259 143.38203 C 83.90259 140.51715 92.13911 131.42117 98.72832 127.12386 C 101.87969 124.9752 102.2378 124.90358 103.02564 126.12115 C 103.52699 126.76575 103.74186 127.98332 103.52699 128.77116 Z" fill="#FFFFFF"/>
        </g>
        <g id="Graphic_648">
          <path d="M 292.6088 129.8455 C 293.82636 131.8509 291.3196 133.56983 285.1601 134.85903 C 282.43848 135.50362 281.7939 135.432 281.00604 134.4293 C 280.00334 133.06848 280.43307 132.4955 283.7993 130.70496 C 286.3777 129.27252 291.9642 128.77116 292.6088 129.8455 Z" fill="#FFFFFF"/>
        </g>
        <g id="Graphic_647">
          <path d="M 297.33584 135.64687 C 298.12368 136.4347 298.76827 137.58066 298.76827 138.22525 C 298.76827 139.51445 294.68583 141.37662 291.74933 141.37662 C 290.675 141.37662 289.09932 141.87797 288.31148 142.45095 C 287.59526 143.02392 286.0912 143.52527 285.01687 143.52527 C 283.29794 143.52527 283.01146 143.23879 283.01146 141.37662 C 283.01146 139.51445 283.4412 139.08472 286.8074 137.50904 C 290.46013 135.86173 294.2561 134.35767 295.40204 134.28605 C 295.68853 134.21443 296.548 134.85903 297.33584 135.64687 Z" fill="#FFFFFF"/>
        </g>
        <g id="Graphic_646">
          <path d="M 101.66482 137.22255 C 102.16617 137.7239 102.52428 139.15634 102.52428 140.44553 C 102.52428 143.02392 100.80536 145.02933 96.72291 147.10637 C 95.29047 147.82259 93.57155 149.32665 92.85533 150.4726 C 92.13911 151.54693 88.77288 155.27126 85.40665 158.78074 C 80.75123 163.5794 79.17555 164.79698 78.74582 164.00914 C 78.0296 162.71994 79.0323 159.92669 80.67961 158.56587 C 81.39583 157.9929 82.68502 156.3456 83.6161 154.84153 C 88.27153 147.46448 98.08373 136.36308 99.9459 136.36308 C 100.44725 136.36308 101.16347 136.7212 101.66482 137.22255 Z" fill="#FFFFFF"/>
        </g>
        <g id="Graphic_645">
          <path d="M 301.06017 141.87797 C 303.63856 144.2415 302.70748 145.45907 296.76286 147.39286 C 291.10473 149.25503 289.0277 149.61314 287.02228 148.8253 C 285.30336 148.1807 285.66147 147.39286 288.45472 145.74555 C 290.74662 144.38474 298.62503 140.80364 299.41287 140.6604 C 299.62774 140.6604 300.34395 141.16175 301.06017 141.87797 Z" fill="#FFFFFF"/>
        </g>
        <g id="Graphic_644">
          <path d="M 305.21424 151.1172 C 305.21424 152.33477 304.21154 152.97936 300.05747 154.55505 C 291.10473 157.84965 289.52905 158.20776 288.23985 156.91857 C 286.59255 155.34289 287.59526 153.69558 291.0331 152.04828 C 292.75203 151.26044 294.9007 150.18611 295.9034 149.61314 C 296.9061 149.11178 298.8399 148.1807 300.2007 147.5361 C 302.56423 146.46177 302.7791 146.5334 303.92505 148.03745 C 304.64127 148.89692 305.21424 150.32935 305.21424 151.1172 Z" fill="#FFFFFF"/>
        </g>
        <g id="Graphic_643">
          <path d="M 307.93588 156.41722 C 310.6575 160.06993 310.08453 160.85777 304.1399 162.14697 C 302.56423 162.43345 298.5534 163.50778 295.2588 164.51049 C 287.0939 166.94563 286.0912 166.30104 290.675 161.64561 C 292.9669 159.35371 302.7791 154.55505 305.64397 154.34018 C 306.0021 154.26856 307.0764 155.19964 307.93588 156.41722 Z" fill="#FFFFFF"/>
        </g>
        <g id="Graphic_642">
          <path d="M 310.72913 164.43887 C 311.08724 164.94022 311.80346 166.65915 312.2332 168.1632 C 313.09265 171.31457 312.44805 172.89025 310.2994 172.89025 C 309.6548 172.89025 308.79534 173.17674 308.43723 173.46323 C 305.7156 175.82675 291.82095 178.47676 289.3142 177.11594 C 287.0939 175.97 287.7385 173.0335 290.3885 171.81592 C 291.6061 171.24295 293.75474 169.95375 295.04393 169.02267 C 296.33313 168.09158 298.62503 167.08888 300.05747 166.80239 C 301.56153 166.58752 303.7102 165.72806 304.92776 165.01184 C 307.29128 163.36454 309.72642 163.14967 310.72913 164.43887 Z" fill="#FFFFFF"/>
        </g>
        <g id="Graphic_641">
          <path d="M 315.8859 179.6227 C 316.74537 180.9119 317.38997 182.98894 317.38997 184.2065 C 317.38997 186.85652 315.8143 187.4295 310.44264 186.42679 C 308.3656 185.99706 306.0737 185.85381 305.3575 186.06868 C 304.21154 186.42679 300.63044 186.4984 292.3223 186.28354 C 288.6696 186.1403 288.3831 185.99706 288.3831 184.34975 C 288.3831 182.91732 289.0277 182.41596 291.9642 181.27001 C 297.47908 179.19298 305.85884 177.40243 310.37102 177.25919 C 314.2386 177.18756 314.45347 177.3308 315.8859 179.6227 Z" fill="#FFFFFF"/>
        </g>
      </g>
    </g>
  </g>
</svg>
