<?xml version="1.0" encoding="UTF-8" standalone="no"?>
<!DOCTYPE svg PUBLIC "-//W3C//DTD SVG 1.1//EN" "http://www.w3.org/Graphics/SVG/1.1/DTD/svg11.dtd">
<svg xmlns:xl="http://www.w3.org/1999/xlink" version="1.1" xmlns="http://www.w3.org/2000/svg" xmlns:dc="http://purl.org/dc/elements/1.1/" viewBox="45 81 274.5 256.5" width="274.5" height="256.5">
  <defs>
    <clipPath id="artboard_clip_path">
      <path d="M 45 337.5 L 319.5 337.5 L 319.5 90.71591 L 309.10227 82.94318 L 45 81 Z"/>
    </clipPath>
  </defs>
  <g id="Crescents,_Three,_Conjoined_In_Pall_Horns_Outwards" stroke-opacity="1" stroke="none" fill="none" fill-opacity="1" stroke-dasharray="none">
    <title>Crescents, Three, Conjoined In Pall Horns Outwards</title>
    <g id="Crescents,_Three,_Conjoined_In_Pall_Horns_Outwards_Art" clip-path="url(#artboard_clip_path)">
      <title>Art</title>
      <g id="Group_139">
        <g id="Group_138">
          <g id="Graphic_136">
            <path d="M 158.8176 335.85866 C 147.60816 328.27607 140.23971 315.44497 140.23975 300.89284 C 140.23969 277.5951 159.12617 258.70862 182.4239 258.70868 C 205.72164 258.70862 224.60812 277.5951 224.60806 300.89284 C 224.6081 315.445 217.23964 328.2761 206.03017 335.8587 C 231.97126 326.26184 250.46295 301.3036 250.46287 272.02632 C 250.46297 234.44932 220.0009 203.98726 182.4239 203.98735 C 144.84691 203.98726 114.38484 234.44932 114.38494 272.02632 C 114.38486 301.3036 132.87653 326.2618 158.8176 335.85866 Z" fill="#FFFFFF"/>
            <path d="M 158.8176 335.85866 C 147.60816 328.27607 140.23971 315.44497 140.23975 300.89284 C 140.23969 277.5951 159.12617 258.70862 182.4239 258.70868 C 205.72164 258.70862 224.60812 277.5951 224.60806 300.89284 C 224.6081 315.445 217.23964 328.2761 206.03017 335.8587 C 231.97126 326.26184 250.46295 301.3036 250.46287 272.02632 C 250.46297 234.44932 220.0009 203.98726 182.4239 203.98735 C 144.84691 203.98726 114.38484 234.44932 114.38494 272.02632 C 114.38486 301.3036 132.87653 326.2618 158.8176 335.85866 Z" stroke="black" stroke-linecap="round" stroke-linejoin="round" stroke-width="1"/>
          </g>
          <g id="Graphic_137">
            <path d="M 206.92366 335.1852 L 207.02806 335.3901 C 217.26996 330.1716 225.59688 321.8447 230.81539 311.6028 C 244.46304 284.81777 233.8131 252.0406 207.02806 238.39295 C 180.24304 224.7453 147.46587 235.39524 133.81822 262.18027 C 120.17057 288.9653 130.82051 321.74246 157.60554 335.3901 L 157.72248 335.1606 C 152.8006 332.64647 148.18302 329.3299 144.06402 325.21087 C 122.9207 304.06766 122.9207 269.78776 144.06402 248.64455 C 165.20724 227.50123 199.48713 227.50123 220.63034 248.64455 C 241.77367 269.78776 241.77367 304.06766 220.63034 325.21087 C 216.4979 329.34334 211.8636 332.66812 206.92366 335.1852 Z" stroke="black" stroke-linecap="round" stroke-linejoin="round" stroke-width="1"/>
          </g>
        </g>
        <g id="Group_126">
          <g id="Graphic_114">
            <path d="M 47.27642 142.18989 C 48.23841 155.68884 55.66625 168.48566 68.26878 175.7617 C 88.44518 187.4106 114.2446 180.49768 125.89341 160.32122 C 137.54233 140.14482 130.6294 114.3454 110.45294 102.69659 C 97.85043 95.42048 83.05412 95.3862 70.88268 101.30259 C 92.16433 83.63537 123.02465 80.10022 148.37948 94.73893 C 180.92216 113.52734 192.07205 155.1393 173.28347 187.68188 C 154.49506 220.22456 112.8831 231.37445 80.34052 212.58587 C 54.98562 197.9473 42.616996 169.45393 47.27642 142.18989 Z" fill="#FFFFFF"/>
            <path d="M 47.27642 142.18989 C 48.23841 155.68884 55.66625 168.48566 68.26878 175.7617 C 88.44518 187.4106 114.2446 180.49768 125.89341 160.32122 C 137.54233 140.14482 130.6294 114.3454 110.45294 102.69659 C 97.85043 95.42048 83.05412 95.3862 70.88268 101.30259 C 92.16433 83.63537 123.02465 80.10022 148.37948 94.73893 C 180.92216 113.52734 192.07205 155.1393 173.28347 187.68188 C 154.49506 220.22456 112.8831 231.37445 80.34052 212.58587 C 54.98562 197.9473 42.616996 169.45393 47.27642 142.18989 Z" stroke="black" stroke-linecap="round" stroke-linejoin="round" stroke-width="1"/>
          </g>
          <g id="Graphic_125">
            <path d="M 71.912675 100.86554 C 76.56251 97.84596 81.75899 95.49495 87.40405 93.98237 C 116.28627 86.24333 145.97353 103.38327 153.71243 132.26554 C 161.45147 161.14776 144.31153 190.83502 115.42927 198.57391 C 86.54704 206.31296 56.859785 189.17301 49.120886 160.29075 C 47.61321 154.66408 47.049754 149.00686 47.333394 143.48732 L 47.07616 143.47383 C 45.50286 173.49418 68.563744 199.10588 98.58409 200.67918 C 128.60443 202.25248 154.21613 179.1916 155.78943 149.17126 C 157.36273 119.15091 134.30185 93.53921 104.28151 91.96591 C 92.80251 91.36432 81.42773 94.41218 71.78742 100.67267 Z" stroke="black" stroke-linecap="round" stroke-linejoin="round" stroke-width="1"/>
          </g>
        </g>
        <g id="Group_127">
          <g id="Graphic_129">
            <path d="M 317.5714 142.18989 C 316.6094 155.68884 309.18156 168.48566 296.57903 175.7617 C 276.40263 187.4106 250.6032 180.49768 238.9544 160.32122 C 227.30548 140.14482 234.2184 114.3454 254.39487 102.69659 C 266.99738 95.42048 281.7937 95.3862 293.96513 101.30259 C 272.68348 83.63537 241.82316 80.10022 216.46833 94.73893 C 183.92565 113.52734 172.77576 155.1393 191.56434 187.68188 C 210.35275 220.22456 251.9647 231.37445 284.5073 212.58587 C 309.8622 197.9473 322.2308 169.45393 317.5714 142.18989 Z" fill="#FFFFFF"/>
            <path d="M 317.5714 142.18989 C 316.6094 155.68884 309.18156 168.48566 296.57903 175.7617 C 276.40263 187.4106 250.6032 180.49768 238.9544 160.32122 C 227.30548 140.14482 234.2184 114.3454 254.39487 102.69659 C 266.99738 95.42048 281.7937 95.3862 293.96513 101.30259 C 272.68348 83.63537 241.82316 80.10022 216.46833 94.73893 C 183.92565 113.52734 172.77576 155.1393 191.56434 187.68188 C 210.35275 220.22456 251.9647 231.37445 284.5073 212.58587 C 309.8622 197.9473 322.2308 169.45393 317.5714 142.18989 Z" stroke="black" stroke-linecap="round" stroke-linejoin="round" stroke-width="1"/>
          </g>
          <g id="Graphic_128">
            <path d="M 292.93513 100.86554 C 288.2853 97.84596 283.0888 95.49495 277.44376 93.98237 C 248.56154 86.24333 218.87428 103.38327 211.13538 132.26554 C 203.39634 161.14776 220.53628 190.83502 249.41854 198.57391 C 278.30077 206.31296 307.98803 189.17301 315.72692 160.29075 C 317.2346 154.66408 317.79806 149.00686 317.5144 143.48732 L 317.77165 143.47383 C 319.34495 173.49418 296.28407 199.10588 266.26372 200.67918 C 236.24338 202.25248 210.63168 179.1916 209.05838 149.17126 C 207.48508 119.15091 230.54596 93.53921 260.5663 91.96591 C 272.0453 91.36432 283.42008 94.41218 293.0604 100.67267 Z" stroke="black" stroke-linecap="round" stroke-linejoin="round" stroke-width="1"/>
          </g>
        </g>
      </g>
    </g>
  </g>
</svg>
