<?xml version="1.0" encoding="UTF-8" standalone="no"?>
<!DOCTYPE svg PUBLIC "-//W3C//DTD SVG 1.1//EN" "http://www.w3.org/Graphics/SVG/1.1/DTD/svg11.dtd">
<svg xmlns:xl="http://www.w3.org/1999/xlink" xmlns="http://www.w3.org/2000/svg" xmlns:dc="http://purl.org/dc/elements/1.1/" version="1.1" viewBox="81 61.87433 202.5 343.12567" width="202.5" height="343.12567">
  <defs>
    <clipPath id="artboard_clip_path">
      <path d="M 81 61.87433 L 283.5 61.87433 L 283.5 405 L 81 405 Z"/>
    </clipPath>
  </defs>
  <g id="Cross,_Doubled" stroke-opacity="1" stroke="none" stroke-dasharray="none" fill="none" fill-opacity="1">
    <title>Cross, Doubled</title>
    <g id="Cross,_Doubled_Layer_2" clip-path="url(#artboard_clip_path)">
      <title>Layer 2</title>
      <g id="Graphic_27">
        <path d="M 159.75 186.18716 L 159.75 280.68716 L 83.25 280.68716 L 83.25 325.68716 L 159.75 325.68716 L 159.75 402.18716 L 204.75 402.18716 L 204.75 325.68716 L 281.25 325.68716 L 281.25 280.68716 L 204.75 280.68716 L 204.75 186.18716 L 281.25 186.18716 L 281.25 141.18716 L 204.75 141.18716 L 204.75 64.687165 L 159.75 64.687165 L 159.75 141.18716 L 83.25 141.18716 L 83.25 186.18716 Z" fill="#FFFFFF"/>
        <path d="M 159.75 186.18716 L 159.75 280.68716 L 83.25 280.68716 L 83.25 325.68716 L 159.75 325.68716 L 159.75 402.18716 L 204.75 402.18716 L 204.75 325.68716 L 281.25 325.68716 L 281.25 280.68716 L 204.75 280.68716 L 204.75 186.18716 L 281.25 186.18716 L 281.25 141.18716 L 204.75 141.18716 L 204.75 64.687165 L 159.75 64.687165 L 159.75 141.18716 L 83.25 141.18716 L 83.25 186.18716 Z" stroke="black" stroke-linecap="round" stroke-linejoin="round" stroke-width="2"/>
      </g>
    </g>
  </g>
</svg>
