<?xml version="1.0" encoding="UTF-8" standalone="no"?>
<!DOCTYPE svg PUBLIC "-//W3C//DTD SVG 1.1//EN" "http://www.w3.org/Graphics/SVG/1.1/DTD/svg11.dtd">
<svg xmlns:xl="http://www.w3.org/1999/xlink" xmlns="http://www.w3.org/2000/svg" xmlns:dc="http://purl.org/dc/elements/1.1/" version="1.1" viewBox="33.75 60.75 297 297" width="297" height="297">
  <defs>
    <clipPath id="artboard_clip_path">
      <path d="M 33.75 60.75 L 330.75 60.75 L 330.75 346.5 L 313.875 357.75 L 33.75 357.75 Z"/>
    </clipPath>
  </defs>
  <g id="Cross_Bottony_(4)" stroke-opacity="1" stroke="none" stroke-dasharray="none" fill="none" fill-opacity="1">
    <title>Cross Bottony (4)</title>
    <g id="Cross_Bottony_(4)_Art" clip-path="url(#artboard_clip_path)">
      <title>Art</title>
      <g id="Graphic_115">
        <path d="M 172.93646 64.31611 C 171.90517 64.681875 169.2676 66.257844 167.07102 67.87337 C 163.75063 70.35251 162.8521 71.37312 161.311 74.44961 C 159.62056 77.97097 159.57526 78.24734 159.99918 82.51922 L 160.48373 86.95385 L 155.4459 87.45954 C 147.56177 88.28447 142.76717 91.03492 139.82661 96.52346 C 137.71053 100.44438 137.35648 104.46865 138.59477 110.03106 C 139.82923 115.4837 141.67751 118.05711 146.33638 120.8621 C 151.4439 123.92621 155.58512 124.49603 160.35933 122.73552 C 163.39642 121.58526 165.42904 121.56923 164.86173 122.63324 C 164.60264 123.08194 164.47894 143.14575 164.6929 147.69975 C 165.20062 157.5194 165.30743 163.72587 165.44002 176.966 C 165.55537 189.7121 165.43741 192.62898 164.79414 193.0911 C 164.36465 193.3809 162.77685 193.54626 161.23243 193.38037 C 159.74481 193.26745 149.19942 193.41592 137.88948 193.701 C 114.77565 194.28842 103.89521 194.28372 101.89255 193.58426 C 100.94611 193.2326 100.42724 192.53628 100.10107 191.06382 C 99.84128 189.91879 99.33896 188.12273 98.91836 187.09323 C 98.49776 186.06373 97.82887 184.21853 97.4574 183.02244 C 96.27469 179.05185 88.24734 172.6274 84.73477 172.75007 C 83.80174 172.78265 80.62805 173.16828 77.6739 173.54624 C 71.930245 174.29641 67.10882 176.2784 66.18799 178.23407 C 65.93465 178.84745 65.26524 180.13485 64.7509 181.14205 C 64.13254 182.31776 63.77013 184.52871 63.70706 187.44366 C 63.626735 189.8646 63.37601 192.1266 63.111174 192.41065 C 62.84634 192.69469 62.02308 192.72344 61.07663 192.3718 C 60.24379 192.1261 57.75293 191.60855 55.54607 191.35588 C 52.12218 190.87093 51.353803 190.89776 49.351844 191.79204 C 46.645977 192.9857 41.414923 197.40012 40.11757 199.58877 C 38.249076 202.73164 37.759825 209.17876 38.86221 215.57028 C 39.68373 220.21298 43.43466 228.49048 45.23503 229.69162 C 48.38328 231.725 51.260245 232.28402 57.3447 231.8517 L 63.10177 231.48575 L 63.53649 234.49323 C 64.32804 239.85142 65.00076 241.8064 66.75269 244.76788 C 68.26592 247.1881 69.00433 247.87677 71.624125 248.93938 C 75.807505 250.7168 79.82745 250.9611 85.28327 249.83628 C 91.44875 248.57675 93.88594 247.55736 96.32628 245.054 C 99.1393 242.20788 100.53039 237.98253 100.55443 232.37602 C 100.57987 229.957 100.55809 227.75947 100.60339 227.4831 C 100.59381 227.20864 102.01888 227.10391 103.78283 227.26214 C 105.48998 227.3674 111.97205 227.30588 118.17585 227.14417 C 124.37774 226.92756 131.41248 226.95666 133.83696 227.14678 C 136.26143 227.3369 141.10273 227.49755 144.56425 227.48657 C 148.0277 227.5305 154.01963 227.596 157.92406 227.67947 L 164.90774 227.82027 L 165.01507 230.89414 C 165.07449 232.59575 164.9994 238.31395 164.90896 243.59303 C 164.76365 248.87402 164.62479 255.91343 164.52217 259.26942 C 164.4725 262.5686 164.64518 272.2351 164.88545 280.69016 L 165.3672 296.06143 L 161.794 296.02135 C 157.56027 295.9494 154.57423 296.98795 150.5576 299.98602 C 147.9864 301.8894 145.07703 305.1236 143.8384 307.42012 C 143.58123 307.92372 143.342 310.51508 143.32807 313.26344 C 143.28294 318.26615 143.28294 318.26615 145.68076 322.41413 C 147.73011 326.0247 148.47044 326.76826 151.10173 328.1602 C 152.78083 329.03585 155.61633 329.981 157.49389 330.2452 L 160.808 330.73397 L 160.50502 334.64653 C 160.00113 342.24826 160.27625 343.83242 162.59618 347.32364 C 164.27982 349.9028 165.3552 350.7995 168.26474 352.29167 C 172.17945 354.24333 174.77817 354.70215 182.58894 354.92397 C 188.69257 355.04055 190.32184 354.48903 196.6997 349.8697 C 201.52427 346.40374 202.70802 344.10914 202.46148 338.622 C 202.38673 336.48127 201.89713 333.4757 201.45928 331.9522 C 201.02142 330.42867 200.75397 329.06407 200.9148 328.94854 C 201.0737 328.7781 202.78085 328.88337 204.82305 329.1418 C 210.01473 329.89475 212.0735 329.05344 216.63827 324.44246 C 218.86673 322.16633 220.4934 319.96618 220.83733 318.80006 C 221.71983 315.74657 221.30532 307.0228 220.13481 304.9753 C 219.60828 304.0594 219.1781 302.75546 219.1551 302.09677 C 219.1091 300.7794 215.06858 296.7987 212.49984 295.6244 C 210.09575 294.44433 204.23204 293.33014 201.2683 293.43365 C 198.13992 293.5429 197.57 292.95828 197.62157 289.714 C 197.68325 283.61155 197.57087 264.65514 197.40708 253.66936 C 197.28686 247.07866 197.25846 238.39637 197.28703 234.4934 L 197.3123 227.34803 L 210.65102 226.93714 C 230.74048 226.29047 265.61865 225.84176 266.07114 226.21066 C 266.24346 226.42447 266.5792 228.17138 266.81286 230.1417 C 267.23294 234.3038 268.36076 238.2763 269.38892 239.3945 C 269.84332 239.8183 270.59898 241.00096 271.12552 241.91685 C 271.65397 242.88763 272.34133 243.68798 272.67063 243.67648 C 272.99994 243.66498 274.34207 244.33256 275.68995 245.1648 C 280.12737 247.92257 283.48487 248.0801 290.27062 245.69976 C 295.6996 243.80648 298.8827 238.96896 299.7727 231.4087 C 300.01767 228.98202 300.27798 226.99446 300.32903 226.88276 C 300.382 226.82595 301.60478 227.2229 303.05284 227.77686 C 307.17367 229.33663 312.327 228.99177 316.3156 226.7641 C 318.47263 225.5896 319.91233 224.33026 320.74256 222.92732 C 321.4158 221.7497 322.40494 220.17635 322.87206 219.39063 C 326.46356 213.65953 327.08245 209.35123 325.1249 203.64906 C 323.65054 199.19404 319.63164 192.68454 317.20454 190.8458 C 314.72065 188.95408 309.0784 187.8871 305.2008 188.5721 C 303.4541 188.9079 301.80758 188.9654 301.41764 188.81415 C 301.02387 188.55312 300.92874 187.40233 301.07736 185.36371 C 301.3619 182.49599 301.2368 182.0607 298.84088 177.9676 C 294.39754 170.31882 289.9225 168.05698 282.11625 169.53868 C 274.85692 170.94632 271.82367 172.20636 269.71072 174.64333 C 265.80647 179.2862 264.45684 183.1254 264.6581 188.88891 C 264.72708 190.86497 264.5044 192.3566 264.13172 192.69936 C 263.75904 193.04212 262.06146 193.21133 260.4111 193.15905 C 258.76076 193.10677 249.36985 193.26988 239.53986 193.44832 C 214.83248 194.03643 199.88487 194.0089 198.7661 193.44344 C 197.87072 192.9801 197.71687 191.72145 197.28563 179.37107 C 196.58486 160.87487 196.45644 122.57398 197.03142 121.72954 C 197.39835 121.22211 198.05888 121.254 199.83625 121.79645 C 204.22767 123.23685 208.40582 121.717 214.0019 116.74025 C 220.2374 111.1916 220.9692 105.3955 216.6196 95.71002 C 213.99963 89.92107 210.0715 87.58517 203.211 87.82478 C 201.45471 87.88611 200.12791 87.65766 200.00665 87.33215 C 199.88346 86.95175 199.9319 85.19142 200.08627 83.31748 C 200.24064 81.44353 200.20353 78.80687 199.98905 77.38546 C 199.42156 73.72313 195.61906 68.68993 191.5735 66.1383 C 188.65054 64.26192 187.8745 64.06919 183.2489 63.79108 C 176.97105 63.4058 175.37941 63.46139 172.93646 64.31611 Z" fill="black"/>
      </g>
      <g id="Graphic_114">
        <path d="M 185.69011 67.6078 C 177.24303 66.47392 175.71586 66.802044 170.13634 70.67906 C 166.38262 73.3382 165.27605 74.69583 164.59776 77.30252 C 163.93096 80.23856 164.6556 88.40192 165.8472 91.05322 C 166.3814 92.18867 166.8135 93.54751 166.83459 94.15131 C 166.86909 95.13934 166.8142 95.14126 165.9622 94.34665 C 163.06536 91.64499 155.27114 90.32343 151.20084 91.78457 C 148.0559 92.99356 144.6111 96.63115 143.67947 99.85122 C 142.94246 102.35004 142.91824 103.23021 143.65037 106.88679 C 144.5855 111.63544 144.70484 111.90605 147.50915 115.10556 C 150.42707 118.41102 152.43547 119.27515 156.60666 119.12948 C 160.8876 118.97996 164.45054 117.15185 167.56603 113.52576 C 169.52007 111.25921 171.24186 110.20985 171.2802 111.30766 C 171.28978 111.58211 170.70592 113.74584 170.01995 116.13297 C 169.04302 119.62941 168.83951 121.66995 168.99284 126.0612 C 169.10017 129.13506 169.13606 133.31058 169.10104 135.45515 C 169.0641 137.54482 169.07264 144.08446 169.11115 149.90861 C 169.14966 155.73276 169.04965 160.73739 168.89266 160.9627 C 168.79248 161.24099 168.80363 169.42926 169.03501 179.20362 L 169.38157 196.99774 L 158.50687 197.1577 C 152.57557 197.25495 144.33339 197.26802 140.21134 197.2471 C 130.64427 197.08662 99.91499 198.3247 97.40757 198.9069 L 95.50197 199.4131 L 96.56374 193.26153 L 95.34899 187.16293 L 92.86248 183.62258 C 90.72061 180.50985 90.04092 179.92905 86.9195 178.66413 C 82.79292 176.9397 82.29896 176.95695 77.78384 178.26875 C 73.59611 179.51415 69.62285 182.18096 68.06833 184.87322 C 66.40979 187.73397 65.75467 195.7257 66.959675 198.76122 C 67.9847 201.36338 67.38289 201.43936 63.672386 199.0409 C 62.09922 198.05166 59.20117 196.88885 57.20618 196.40895 L 53.551254 195.60232 L 49.93536 197.48724 C 46.482197 199.31153 46.270327 199.53876 44.48163 203.3933 C 42.94819 206.68934 42.61192 208.07502 42.70583 210.76466 C 42.87641 215.64992 44.996673 221.29145 47.54695 223.5106 C 52.70622 228.05675 58.94644 228.93796 64.44686 225.94303 C 67.35885 224.35747 67.53117 224.57129 67.71708 229.89567 C 67.87041 234.28692 68.06189 235.04963 69.817656 238.1209 C 71.52045 241.24895 71.97486 241.67274 75.20988 243.0436 C 79.45006 244.874 82.42721 245.15472 86.40499 244.19143 C 92.83339 242.593 96.61063 237.45993 96.74566 230.31074 C 96.78956 226.8469 96.6 226.13906 95.01847 223.3365 C 92.85935 219.72976 93.38135 218.94213 96.90038 220.57786 C 99.91778 222.0113 107.29715 222.46801 123.49751 222.177 C 138.27089 221.93583 149.31407 221.8799 161.1352 222.07158 L 168.33651 222.14982 L 168.87333 242.2455 C 169.2056 253.33532 169.3516 266.95968 169.16291 272.57193 C 168.82333 288.02685 169.07562 293.67866 170.52892 297.5299 C 171.19589 299.3202 171.94074 301.76726 172.20245 302.9672 L 172.6633 305.1494 L 170.16982 302.9832 C 166.20145 299.49462 163.98884 299.07728 157.33516 300.51872 C 154.33762 301.22794 153.79836 301.52156 152.0128 303.89214 C 148.22982 308.86052 147.08387 315.38552 149.39423 318.6023 C 150.02862 319.45945 150.56474 320.6498 150.58199 321.1438 C 150.60115 321.6927 151.39828 322.48923 152.34664 322.89577 C 153.29692 323.3572 155.20705 324.5545 156.61557 325.5495 C 158.81354 327.12147 159.5347 327.3161 162.44355 327.21452 L 165.79148 327.0976 L 165.41373 328.86943 C 164.7776 332.6837 164.21239 338.52895 164.39307 340.55607 C 164.60058 343.35165 165.76726 345.28938 168.36284 347.23215 C 172.02613 349.8521 174.08367 350.54963 179.86757 350.95216 C 184.60292 351.22644 185.86526 351.18235 188.52582 350.26507 C 193.68805 348.60093 196.21516 345.43505 197.2705 339.4628 C 197.9615 335.6466 196.24774 329.05658 193.6553 325.62984 C 193.07962 324.88054 192.43757 323.8038 192.25375 323.26066 C 191.71188 321.90565 193.58368 322.00515 196.43643 323.44432 C 197.72368 324.1138 200.50046 324.9511 202.54458 325.26442 C 209.2277 326.24008 213.16333 324.0692 215.8537 317.7101 C 217.02403 315.03125 217.35263 313.426 217.26255 310.84615 C 217.1303 307.0587 215.4026 303.21706 213.50204 302.2942 C 212.83002 301.93297 211.76422 301.3107 211.14133 300.7829 C 210.51844 300.25506 208.01416 299.3533 205.57627 298.77895 C 200.532 297.52622 195.70604 297.8047 192.74108 299.44704 C 191.77233 300.03045 190.9057 300.39046 190.7921 300.2845 C 190.67849 300.17857 191.12261 298.73416 191.7786 297.06253 C 193.63874 292.10635 194.29595 271.58425 193.61765 239.56772 L 193.22387 221.99507 L 195.31138 221.97712 C 196.46586 221.99176 201.73664 221.86264 207.00934 221.7884 C 212.28012 221.65928 221.90207 221.81785 228.34458 222.19738 C 242.2743 222.9749 265.64722 221.93878 269.0002 220.39278 C 272.19044 218.90742 272.537 219.38994 270.5664 222.7562 C 268.54475 226.23418 268.5404 229.257 270.43468 233.14778 C 273.85752 239.89792 278.86294 243.18543 284.83188 242.59226 C 289.3228 242.16063 291.9642 240.69444 293.94245 237.54773 C 297.22573 232.43193 297.22556 227.7056 294.05483 221.88092 C 292.41266 218.9156 292.4975 218.1982 294.4115 219.5053 C 300.26317 223.42274 302.54216 224.1675 307.5251 223.66373 C 313.71358 223.0629 316.92804 220.69737 319.46908 214.78313 C 321.14992 210.98732 321.2264 208.4566 319.88794 203.17247 C 319.1884 200.44903 318.48378 199.15466 316.37066 196.86529 C 311.85658 191.9119 306.5041 191.27447 299.48033 194.7073 C 297.6979 195.59392 296.06863 196.14544 295.84335 195.98844 C 295.67103 195.77462 296.06027 194.33213 296.6633 192.7173 C 298.33072 188.53726 298.00002 185.36128 295.6022 181.2133 C 294.1362 178.57158 292.93954 177.34935 290.58075 175.89292 C 287.54802 174.02036 287.38145 173.97122 282.77503 174.24202 C 278.71745 174.49364 277.57447 174.80835 274.93307 176.27454 C 272.0249 177.96987 271.81304 178.1971 270.4143 182.2029 C 268.60712 187.10227 268.27416 191.73033 269.25458 196.2026 C 269.64713 198.00249 269.86545 199.53367 269.7595 199.64729 C 269.6555 199.8158 268.87562 199.51328 268.09 199.0461 C 264.6654 196.9674 255.52783 196.51713 222.07281 196.80623 C 215.26145 196.87924 205.9216 196.93065 201.25262 196.9838 C 196.63853 197.03503 192.67921 196.95348 192.5637 196.79264 C 192.3933 196.63372 192.46787 194.04811 192.68984 190.96274 C 192.96862 187.93034 192.98308 182.04938 192.83742 177.8777 C 192.63879 173.76283 192.233 158.99343 191.96763 145.09846 C 191.52455 122.96606 191.35084 119.56476 190.50963 117.50576 C 190.02648 116.25861 189.71564 115.22527 189.8803 115.21952 C 190.04494 115.21377 190.83057 115.68095 191.73171 116.30897 C 194.60363 118.29705 201.76346 118.76144 206.38452 117.33603 C 208.66665 116.59684 212.48988 112.78116 213.9761 109.70659 C 215.61357 106.24204 213.9233 97.17812 211.20263 94.80006 C 208.99316 92.89875 203.52637 90.56164 201.3859 90.63639 C 200.29013 90.72962 198.05522 91.24733 196.42978 91.90863 C 192.4182 93.47763 192.4182 93.47763 193.5962 91.01836 C 194.57191 89.06077 195.44413 84.13909 195.80131 78.63087 C 195.94418 76.42758 195.69973 75.72167 194.25672 73.73864 C 191.1454 69.615575 189.00232 68.0417 185.69011 67.6078 Z" fill="#FFFFFF"/>
      </g>
    </g>
  </g>
</svg>
