<?xml version="1.0" encoding="UTF-8" standalone="no"?>
<!DOCTYPE svg PUBLIC "-//W3C//DTD SVG 1.1//EN" "http://www.w3.org/Graphics/SVG/1.1/DTD/svg11.dtd">
<svg xmlns:xl="http://www.w3.org/1999/xlink" xmlns="http://www.w3.org/2000/svg" xmlns:dc="http://purl.org/dc/elements/1.1/" version="1.1" viewBox="31.5 58.5 302 301.5" width="302" height="301.5">
  <defs>
    <clipPath id="artboard_clip_path">
      <path d="M 31.5 58.5 L 333.5 58.5 L 333.5 360 L 31.5 360 Z"/>
    </clipPath>
  </defs>
  <g id="Cross_Bottony_(1)" stroke-opacity="1" stroke="none" stroke-dasharray="none" fill="none" fill-opacity="1">
    <title>Cross Bottony (1)</title>
    <g id="Cross_Bottony_(1)_Layer_2" clip-path="url(#artboard_clip_path)">
      <title>Layer 2</title>
      <g id="Graphic_12">
        <title>path15</title>
        <path d="M 208.31232 234.81232 L 253.094 234.81232 C 252.3634 237.11645 251.9908 239.51906 251.98922 241.93625 C 251.913 250.4252 256.39808 258.30213 263.73728 262.56877 C 271.0765 266.8354 280.14082 266.8354 287.48003 262.56877 C 294.81923 258.30213 299.30432 250.4252 299.2281 241.93625 C 299.2321 238.20232 298.35086 234.52064 296.6566 231.19321 C 303.9304 234.08375 312.1637 233.18334 318.6408 228.789 C 325.1179 224.39463 328.99753 217.07708 329 209.25 C 328.99753 201.42292 325.1179 194.10537 318.6408 189.71101 C 312.1637 185.31666 303.9304 184.41625 296.6566 187.30679 C 298.35086 183.97936 299.2321 180.29768 299.2281 176.56375 C 299.30432 168.0748 294.81923 160.19787 287.48003 155.93123 C 280.14082 151.6646 271.0765 151.6646 263.73728 155.93123 C 256.39808 160.19787 251.913 168.0748 251.98922 176.56375 C 251.9908 178.98094 252.3634 181.38355 253.094 183.68768 L 208.31232 183.68768 L 208.31232 138.906 C 210.61645 139.6366 213.01906 140.0092 215.43625 140.01078 C 223.9252 140.08701 231.80213 135.60192 236.06877 128.26272 C 240.3354 120.92351 240.3354 111.85918 236.06877 104.51997 C 231.80213 97.18077 223.9252 92.69568 215.43625 92.77191 C 211.70232 92.76789 208.02064 93.64914 204.69321 95.34338 C 207.58375 88.0696 206.68334 79.83629 202.289 73.35919 C 197.89463 66.8821 190.57708 63.00247 182.75 63 C 174.92292 63.00247 167.60537 66.8821 163.21101 73.35919 C 158.81666 79.83629 157.91625 88.0696 160.80679 95.34338 C 157.47936 93.64914 153.79768 92.76789 150.06375 92.77191 C 141.5748 92.69568 133.69787 97.18077 129.43123 104.51997 C 125.1646 111.85918 125.1646 120.92351 129.43123 128.26272 C 133.69787 135.60192 141.5748 140.08701 150.06375 140.01078 C 152.48094 140.0092 154.88355 139.6366 157.18768 138.906 L 157.18768 183.68768 L 112.406 183.68768 C 113.1366 181.38355 113.5092 178.98094 113.51078 176.56375 C 113.39438 163.60186 102.85376 153.15548 89.89135 153.15548 C 76.92893 153.15548 66.388316 163.60186 66.27191 176.56375 C 66.26789 180.29768 67.14914 183.97936 68.84338 187.30679 C 61.5696 184.41625 53.33629 185.31666 46.859193 189.71101 C 40.382097 194.10537 36.50247 201.42292 36.5 209.25 C 36.50247 217.07708 40.382097 224.39463 46.859193 228.789 C 53.33629 233.18334 61.5696 234.08375 68.84338 231.19321 C 67.14914 234.52064 66.26789 238.20232 66.27191 241.93625 C 66.19568 250.4252 70.68077 258.30213 78.01997 262.56877 C 85.35918 266.8354 94.42351 266.8354 101.76272 262.56877 C 109.10192 258.30213 113.58701 250.4252 113.51078 241.93625 C 113.5092 239.51906 113.1366 237.11645 112.406 234.81232 L 157.18768 234.81232 L 157.18768 279.594 C 154.88355 278.8634 152.48094 278.4908 150.06375 278.48922 C 141.5748 278.413 133.69787 282.89808 129.43123 290.2373 C 125.1646 297.5765 125.1646 306.64082 129.43123 313.98003 C 133.69787 321.31923 141.5748 325.80432 150.06375 325.7281 C 153.79768 325.7321 157.47936 324.85086 160.80679 323.1566 C 157.91625 330.4304 158.81666 338.6637 163.21101 345.1408 C 167.60537 351.6179 174.92292 355.49753 182.75 355.5 C 190.57708 355.49753 197.89463 351.6179 202.289 345.1408 C 206.68334 338.6637 207.58375 330.4304 204.69321 323.1566 C 208.02064 324.85086 211.70232 325.7321 215.43625 325.7281 C 228.39814 325.6117 238.84452 315.07107 238.84452 302.10865 C 238.84452 289.14624 228.39814 278.60562 215.43625 278.48922 C 213.01906 278.4908 210.61645 278.8634 208.31232 279.594 Z" fill="#FFFFFF"/>
        <path d="M 208.31232 234.81232 L 253.094 234.81232 C 252.3634 237.11645 251.9908 239.51906 251.98922 241.93625 C 251.913 250.4252 256.39808 258.30213 263.73728 262.56877 C 271.0765 266.8354 280.14082 266.8354 287.48003 262.56877 C 294.81923 258.30213 299.30432 250.4252 299.2281 241.93625 C 299.2321 238.20232 298.35086 234.52064 296.6566 231.19321 C 303.9304 234.08375 312.1637 233.18334 318.6408 228.789 C 325.1179 224.39463 328.99753 217.07708 329 209.25 C 328.99753 201.42292 325.1179 194.10537 318.6408 189.71101 C 312.1637 185.31666 303.9304 184.41625 296.6566 187.30679 C 298.35086 183.97936 299.2321 180.29768 299.2281 176.56375 C 299.30432 168.0748 294.81923 160.19787 287.48003 155.93123 C 280.14082 151.6646 271.0765 151.6646 263.73728 155.93123 C 256.39808 160.19787 251.913 168.0748 251.98922 176.56375 C 251.9908 178.98094 252.3634 181.38355 253.094 183.68768 L 208.31232 183.68768 L 208.31232 138.906 C 210.61645 139.6366 213.01906 140.0092 215.43625 140.01078 C 223.9252 140.08701 231.80213 135.60192 236.06877 128.26272 C 240.3354 120.92351 240.3354 111.85918 236.06877 104.51997 C 231.80213 97.18077 223.9252 92.69568 215.43625 92.77191 C 211.70232 92.76789 208.02064 93.64914 204.69321 95.34338 C 207.58375 88.0696 206.68334 79.83629 202.289 73.35919 C 197.89463 66.8821 190.57708 63.00247 182.75 63 C 174.92292 63.00247 167.60537 66.8821 163.21101 73.35919 C 158.81666 79.83629 157.91625 88.0696 160.80679 95.34338 C 157.47936 93.64914 153.79768 92.76789 150.06375 92.77191 C 141.5748 92.69568 133.69787 97.18077 129.43123 104.51997 C 125.1646 111.85918 125.1646 120.92351 129.43123 128.26272 C 133.69787 135.60192 141.5748 140.08701 150.06375 140.01078 C 152.48094 140.0092 154.88355 139.6366 157.18768 138.906 L 157.18768 183.68768 L 112.406 183.68768 C 113.1366 181.38355 113.5092 178.98094 113.51078 176.56375 C 113.39438 163.60186 102.85376 153.15548 89.89135 153.15548 C 76.92893 153.15548 66.388316 163.60186 66.27191 176.56375 C 66.26789 180.29768 67.14914 183.97936 68.84338 187.30679 C 61.5696 184.41625 53.33629 185.31666 46.859193 189.71101 C 40.382097 194.10537 36.50247 201.42292 36.5 209.25 C 36.50247 217.07708 40.382097 224.39463 46.859193 228.789 C 53.33629 233.18334 61.5696 234.08375 68.84338 231.19321 C 67.14914 234.52064 66.26789 238.20232 66.27191 241.93625 C 66.19568 250.4252 70.68077 258.30213 78.01997 262.56877 C 85.35918 266.8354 94.42351 266.8354 101.76272 262.56877 C 109.10192 258.30213 113.58701 250.4252 113.51078 241.93625 C 113.5092 239.51906 113.1366 237.11645 112.406 234.81232 L 157.18768 234.81232 L 157.18768 279.594 C 154.88355 278.8634 152.48094 278.4908 150.06375 278.48922 C 141.5748 278.413 133.69787 282.89808 129.43123 290.2373 C 125.1646 297.5765 125.1646 306.64082 129.43123 313.98003 C 133.69787 321.31923 141.5748 325.80432 150.06375 325.7281 C 153.79768 325.7321 157.47936 324.85086 160.80679 323.1566 C 157.91625 330.4304 158.81666 338.6637 163.21101 345.1408 C 167.60537 351.6179 174.92292 355.49753 182.75 355.5 C 190.57708 355.49753 197.89463 351.6179 202.289 345.1408 C 206.68334 338.6637 207.58375 330.4304 204.69321 323.1566 C 208.02064 324.85086 211.70232 325.7321 215.43625 325.7281 C 228.39814 325.6117 238.84452 315.07107 238.84452 302.10865 C 238.84452 289.14624 228.39814 278.60562 215.43625 278.48922 C 213.01906 278.4908 210.61645 278.8634 208.31232 279.594 Z" stroke="black" stroke-linecap="round" stroke-linejoin="round" stroke-width="2"/>
      </g>
      <g id="Graphic_11">
        <title>path15</title>
        <path d="M 471.30805 197.64139 L 506.4014 197.64139 C 505.82885 199.44702 505.53686 201.32984 505.5356 203.22408 C 505.4759 209.87648 508.99064 216.04927 514.74204 219.39283 C 520.49343 222.7364 527.59673 222.7364 533.3481 219.39283 C 539.0995 216.04927 542.6143 209.87648 542.55454 203.22408 C 542.5577 200.29797 541.8671 197.4128 540.5394 194.80526 C 546.2395 197.07044 552.6916 196.36483 557.7674 192.92118 C 562.8432 189.47752 565.8835 183.7431 565.8854 177.60938 C 565.8835 171.47566 562.8432 165.74123 557.7674 162.29757 C 552.6916 158.85392 546.2395 158.14831 540.5394 160.4135 C 541.8671 157.80594 542.5577 154.92078 542.55454 151.99467 C 542.6143 145.34227 539.0995 139.16948 533.3481 135.82592 C 527.59673 132.48235 520.49343 132.48235 514.74204 135.82592 C 508.99064 139.16948 505.4759 145.34227 505.5356 151.99467 C 505.53686 153.8889 505.82885 155.77173 506.4014 157.57736 L 471.30805 157.57736 L 471.30805 122.48403 C 473.1137 123.05657 474.9965 123.34855 476.89074 123.34979 C 483.54314 123.40953 489.71593 119.89477 493.0595 114.14338 C 496.40306 108.39198 496.40306 101.28868 493.0595 95.53729 C 489.71593 89.78589 483.54314 86.27113 476.89074 86.33087 C 473.96464 86.32772 471.0795 87.01832 468.4719 88.34602 C 470.7371 82.64589 470.0315 76.19382 466.58784 71.11802 C 463.1442 66.04222 457.40976 63.001936 451.27604 63 C 445.1423 63.001936 439.4079 66.04222 435.96424 71.11802 C 432.5206 76.19382 431.815 82.64589 434.08016 88.34602 C 431.4726 87.01832 428.58744 86.32772 425.66134 86.33087 C 419.00894 86.27113 412.83615 89.78589 409.4926 95.53729 C 406.149 101.28868 406.149 108.39198 409.4926 114.14338 C 412.83615 119.89477 419.00894 123.40953 425.66134 123.34979 C 427.55557 123.34855 429.4384 123.05657 431.24403 122.48403 L 431.24403 157.57736 L 396.1507 157.57736 C 396.72323 155.77173 397.0152 153.8889 397.01646 151.99467 C 396.92524 141.83703 388.66505 133.65069 378.507 133.65069 C 368.34895 133.65069 360.08876 141.83703 359.99754 151.99467 C 359.9944 154.92078 360.685 157.80594 362.0127 160.4135 C 356.31256 158.14831 349.8605 158.85392 344.7847 162.29757 C 339.7089 165.74123 336.6686 171.47566 336.66667 177.60938 C 336.6686 183.7431 339.7089 189.47752 344.7847 192.92118 C 349.8605 196.36483 356.31256 197.07044 362.0127 194.80526 C 360.685 197.4128 359.9944 200.29797 359.99754 203.22408 C 359.9378 209.87648 363.45256 216.04927 369.20395 219.39283 C 374.95535 222.7364 382.05865 222.7364 387.81005 219.39283 C 393.56144 216.04927 397.0762 209.87648 397.01646 203.22408 C 397.0152 201.32984 396.72323 199.44702 396.1507 197.64139 L 431.24403 197.64139 L 431.24403 232.73472 C 429.4384 232.16218 427.55557 231.8702 425.66134 231.86896 C 419.00894 231.80922 412.83615 235.32398 409.4926 241.07537 C 406.149 246.82677 406.149 253.93007 409.4926 259.68146 C 412.83615 265.43286 419.00894 268.94762 425.66134 268.88788 C 428.58744 268.89103 431.4726 268.20043 434.08016 266.87273 C 431.815 272.57286 432.5206 279.02493 435.96424 284.10073 C 439.4079 289.17653 445.1423 292.2168 451.27604 292.21875 C 457.40976 292.2168 463.1442 289.17653 466.58784 284.10073 C 470.0315 279.02493 470.7371 272.57286 468.4719 266.87273 C 471.0795 268.20043 473.96464 268.89103 476.89074 268.88788 C 487.0484 268.79666 495.2347 260.53647 495.2347 250.37842 C 495.2347 240.22037 487.0484 231.96018 476.89074 231.86896 C 474.9965 231.8702 473.1137 232.16218 471.30805 232.73472 Z" fill="#FFFFFF"/>
        <path d="M 471.30805 197.64139 L 506.4014 197.64139 C 505.82885 199.44702 505.53686 201.32984 505.5356 203.22408 C 505.4759 209.87648 508.99064 216.04927 514.74204 219.39283 C 520.49343 222.7364 527.59673 222.7364 533.3481 219.39283 C 539.0995 216.04927 542.6143 209.87648 542.55454 203.22408 C 542.5577 200.29797 541.8671 197.4128 540.5394 194.80526 C 546.2395 197.07044 552.6916 196.36483 557.7674 192.92118 C 562.8432 189.47752 565.8835 183.7431 565.8854 177.60938 C 565.8835 171.47566 562.8432 165.74123 557.7674 162.29757 C 552.6916 158.85392 546.2395 158.14831 540.5394 160.4135 C 541.8671 157.80594 542.5577 154.92078 542.55454 151.99467 C 542.6143 145.34227 539.0995 139.16948 533.3481 135.82592 C 527.59673 132.48235 520.49343 132.48235 514.74204 135.82592 C 508.99064 139.16948 505.4759 145.34227 505.5356 151.99467 C 505.53686 153.8889 505.82885 155.77173 506.4014 157.57736 L 471.30805 157.57736 L 471.30805 122.48403 C 473.1137 123.05657 474.9965 123.34855 476.89074 123.34979 C 483.54314 123.40953 489.71593 119.89477 493.0595 114.14338 C 496.40306 108.39198 496.40306 101.28868 493.0595 95.53729 C 489.71593 89.78589 483.54314 86.27113 476.89074 86.33087 C 473.96464 86.32772 471.0795 87.01832 468.4719 88.34602 C 470.7371 82.64589 470.0315 76.19382 466.58784 71.11802 C 463.1442 66.04222 457.40976 63.001936 451.27604 63 C 445.1423 63.001936 439.4079 66.04222 435.96424 71.11802 C 432.5206 76.19382 431.815 82.64589 434.08016 88.34602 C 431.4726 87.01832 428.58744 86.32772 425.66134 86.33087 C 419.00894 86.27113 412.83615 89.78589 409.4926 95.53729 C 406.149 101.28868 406.149 108.39198 409.4926 114.14338 C 412.83615 119.89477 419.00894 123.40953 425.66134 123.34979 C 427.55557 123.34855 429.4384 123.05657 431.24403 122.48403 L 431.24403 157.57736 L 396.1507 157.57736 C 396.72323 155.77173 397.0152 153.8889 397.01646 151.99467 C 396.92524 141.83703 388.66505 133.65069 378.507 133.65069 C 368.34895 133.65069 360.08876 141.83703 359.99754 151.99467 C 359.9944 154.92078 360.685 157.80594 362.0127 160.4135 C 356.31256 158.14831 349.8605 158.85392 344.7847 162.29757 C 339.7089 165.74123 336.6686 171.47566 336.66667 177.60938 C 336.6686 183.7431 339.7089 189.47752 344.7847 192.92118 C 349.8605 196.36483 356.31256 197.07044 362.0127 194.80526 C 360.685 197.4128 359.9944 200.29797 359.99754 203.22408 C 359.9378 209.87648 363.45256 216.04927 369.20395 219.39283 C 374.95535 222.7364 382.05865 222.7364 387.81005 219.39283 C 393.56144 216.04927 397.0762 209.87648 397.01646 203.22408 C 397.0152 201.32984 396.72323 199.44702 396.1507 197.64139 L 431.24403 197.64139 L 431.24403 232.73472 C 429.4384 232.16218 427.55557 231.8702 425.66134 231.86896 C 419.00894 231.80922 412.83615 235.32398 409.4926 241.07537 C 406.149 246.82677 406.149 253.93007 409.4926 259.68146 C 412.83615 265.43286 419.00894 268.94762 425.66134 268.88788 C 428.58744 268.89103 431.4726 268.20043 434.08016 266.87273 C 431.815 272.57286 432.5206 279.02493 435.96424 284.10073 C 439.4079 289.17653 445.1423 292.2168 451.27604 292.21875 C 457.40976 292.2168 463.1442 289.17653 466.58784 284.10073 C 470.0315 279.02493 470.7371 272.57286 468.4719 266.87273 C 471.0795 268.20043 473.96464 268.89103 476.89074 268.88788 C 487.0484 268.79666 495.2347 260.53647 495.2347 250.37842 C 495.2347 240.22037 487.0484 231.96018 476.89074 231.86896 C 474.9965 231.8702 473.1137 232.16218 471.30805 232.73472 Z" stroke="black" stroke-linecap="round" stroke-linejoin="round" stroke-width="2"/>
      </g>
      <g id="Graphic_6">
        <title>path15</title>
        <path d="M 344.27105 449.83155 L 356.02177 449.83155 C 355.83006 450.43616 355.7323 451.0666 355.73187 451.70087 C 355.71187 453.92837 356.88876 455.9953 358.81456 457.11484 C 360.74037 458.2344 363.11885 458.2344 365.04466 457.11484 C 366.97047 455.9953 368.14735 453.92837 368.12735 451.70087 C 368.1284 450.7211 367.89716 449.755 367.4526 448.8819 C 369.36124 449.6404 371.52166 449.4041 373.22125 448.25103 C 374.92084 447.09795 375.93885 445.1778 375.9395 443.124 C 375.93885 441.0702 374.92084 439.15005 373.22125 437.99697 C 371.52166 436.8439 369.36124 436.6076 367.4526 437.3661 C 367.89716 436.493 368.1284 435.5269 368.12735 434.54713 C 368.14735 432.31963 366.97047 430.2527 365.04466 429.13316 C 363.11885 428.0136 360.74037 428.0136 358.81456 429.13316 C 356.88876 430.2527 355.71187 432.31963 355.73187 434.54713 C 355.7323 435.1814 355.83006 435.81184 356.02177 436.41645 L 344.27105 436.41645 L 344.27105 424.66573 C 344.87566 424.85744 345.5061 424.9552 346.14037 424.95563 C 348.36787 424.97563 350.4348 423.79874 351.55434 421.87294 C 352.6739 419.94713 352.6739 417.56865 351.55434 415.64284 C 350.4348 413.71703 348.36787 412.54015 346.14037 412.56015 C 345.1606 412.5591 344.1945 412.79034 343.3214 413.2349 C 344.07988 411.32626 343.8436 409.16584 342.69053 407.46625 C 341.53745 405.76666 339.61732 404.74865 337.5635 404.748 C 335.50968 404.74865 333.58955 405.76666 332.43647 407.46625 C 331.2834 409.16584 331.04712 411.32626 331.8056 413.2349 C 330.9325 412.79034 329.9664 412.5591 328.98663 412.56015 C 326.75913 412.54015 324.69222 413.71703 323.57266 415.64284 C 322.4531 417.56865 322.4531 419.94713 323.57266 421.87294 C 324.69222 423.79874 326.75913 424.97563 328.98663 424.95563 C 329.6209 424.9552 330.25134 424.85744 330.85595 424.66573 L 330.85595 436.41645 L 319.10523 436.41645 C 319.29694 435.81184 319.3947 435.1814 319.39513 434.54713 C 319.3646 431.14593 316.59873 428.4048 313.1974 428.4048 C 309.79605 428.4048 307.0302 431.14593 306.99965 434.54713 C 306.9986 435.5269 307.22984 436.493 307.6744 437.3661 C 305.76576 436.6076 303.60534 436.8439 301.90575 437.99697 C 300.20616 439.15005 299.18815 441.0702 299.1875 443.124 C 299.18815 445.1778 300.20616 447.09795 301.90575 448.25103 C 303.60534 449.4041 305.76576 449.6404 307.6744 448.8819 C 307.22984 449.755 306.9986 450.7211 306.99965 451.70087 C 306.97965 453.92837 308.15653 455.9953 310.08234 457.11484 C 312.00815 458.2344 314.38663 458.2344 316.31244 457.11484 C 318.23824 455.9953 319.41513 453.92837 319.39513 451.70087 C 319.3947 451.0666 319.29694 450.43616 319.10523 449.83155 L 330.85595 449.83155 L 330.85595 461.58227 C 330.25134 461.39056 329.6209 461.2928 328.98663 461.29237 C 326.75913 461.27237 324.69222 462.44926 323.57266 464.37506 C 322.4531 466.30087 322.4531 468.67935 323.57266 470.60516 C 324.69222 472.53097 326.75913 473.70785 328.98663 473.68785 C 329.9664 473.6889 330.9325 473.45766 331.8056 473.0131 C 331.04712 474.92174 331.2834 477.08216 332.43647 478.78175 C 333.58955 480.48134 335.50968 481.49935 337.5635 481.5 C 339.61732 481.49935 341.53745 480.48134 342.69053 478.78175 C 343.8436 477.08216 344.07988 474.92174 343.3214 473.0131 C 344.1945 473.45766 345.1606 473.6889 346.14037 473.68785 C 349.54157 473.6573 352.2827 470.89145 352.2827 467.4901 C 352.2827 464.08877 349.54157 461.3229 346.14037 461.29237 C 345.5061 461.2928 344.87566 461.39056 344.27105 461.58227 Z" fill="#FFFFFF"/>
        <path d="M 344.27105 449.83155 L 356.02177 449.83155 C 355.83006 450.43616 355.7323 451.0666 355.73187 451.70087 C 355.71187 453.92837 356.88876 455.9953 358.81456 457.11484 C 360.74037 458.2344 363.11885 458.2344 365.04466 457.11484 C 366.97047 455.9953 368.14735 453.92837 368.12735 451.70087 C 368.1284 450.7211 367.89716 449.755 367.4526 448.8819 C 369.36124 449.6404 371.52166 449.4041 373.22125 448.25103 C 374.92084 447.09795 375.93885 445.1778 375.9395 443.124 C 375.93885 441.0702 374.92084 439.15005 373.22125 437.99697 C 371.52166 436.8439 369.36124 436.6076 367.4526 437.3661 C 367.89716 436.493 368.1284 435.5269 368.12735 434.54713 C 368.14735 432.31963 366.97047 430.2527 365.04466 429.13316 C 363.11885 428.0136 360.74037 428.0136 358.81456 429.13316 C 356.88876 430.2527 355.71187 432.31963 355.73187 434.54713 C 355.7323 435.1814 355.83006 435.81184 356.02177 436.41645 L 344.27105 436.41645 L 344.27105 424.66573 C 344.87566 424.85744 345.5061 424.9552 346.14037 424.95563 C 348.36787 424.97563 350.4348 423.79874 351.55434 421.87294 C 352.6739 419.94713 352.6739 417.56865 351.55434 415.64284 C 350.4348 413.71703 348.36787 412.54015 346.14037 412.56015 C 345.1606 412.5591 344.1945 412.79034 343.3214 413.2349 C 344.07988 411.32626 343.8436 409.16584 342.69053 407.46625 C 341.53745 405.76666 339.61732 404.74865 337.5635 404.748 C 335.50968 404.74865 333.58955 405.76666 332.43647 407.46625 C 331.2834 409.16584 331.04712 411.32626 331.8056 413.2349 C 330.9325 412.79034 329.9664 412.5591 328.98663 412.56015 C 326.75913 412.54015 324.69222 413.71703 323.57266 415.64284 C 322.4531 417.56865 322.4531 419.94713 323.57266 421.87294 C 324.69222 423.79874 326.75913 424.97563 328.98663 424.95563 C 329.6209 424.9552 330.25134 424.85744 330.85595 424.66573 L 330.85595 436.41645 L 319.10523 436.41645 C 319.29694 435.81184 319.3947 435.1814 319.39513 434.54713 C 319.3646 431.14593 316.59873 428.4048 313.1974 428.4048 C 309.79605 428.4048 307.0302 431.14593 306.99965 434.54713 C 306.9986 435.5269 307.22984 436.493 307.6744 437.3661 C 305.76576 436.6076 303.60534 436.8439 301.90575 437.99697 C 300.20616 439.15005 299.18815 441.0702 299.1875 443.124 C 299.18815 445.1778 300.20616 447.09795 301.90575 448.25103 C 303.60534 449.4041 305.76576 449.6404 307.6744 448.8819 C 307.22984 449.755 306.9986 450.7211 306.99965 451.70087 C 306.97965 453.92837 308.15653 455.9953 310.08234 457.11484 C 312.00815 458.2344 314.38663 458.2344 316.31244 457.11484 C 318.23824 455.9953 319.41513 453.92837 319.39513 451.70087 C 319.3947 451.0666 319.29694 450.43616 319.10523 449.83155 L 330.85595 449.83155 L 330.85595 461.58227 C 330.25134 461.39056 329.6209 461.2928 328.98663 461.29237 C 326.75913 461.27237 324.69222 462.44926 323.57266 464.37506 C 322.4531 466.30087 322.4531 468.67935 323.57266 470.60516 C 324.69222 472.53097 326.75913 473.70785 328.98663 473.68785 C 329.9664 473.6889 330.9325 473.45766 331.8056 473.0131 C 331.04712 474.92174 331.2834 477.08216 332.43647 478.78175 C 333.58955 480.48134 335.50968 481.49935 337.5635 481.5 C 339.61732 481.49935 341.53745 480.48134 342.69053 478.78175 C 343.8436 477.08216 344.07988 474.92174 343.3214 473.0131 C 344.1945 473.45766 345.1606 473.6889 346.14037 473.68785 C 349.54157 473.6573 352.2827 470.89145 352.2827 467.4901 C 352.2827 464.08877 349.54157 461.3229 346.14037 461.29237 C 345.5061 461.2928 344.87566 461.39056 344.27105 461.58227 Z" stroke="black" stroke-linecap="round" stroke-linejoin="round" stroke-width="2"/>
      </g>
    </g>
  </g>
</svg>
