<?xml version="1.0" encoding="UTF-8" standalone="no"?>
<!DOCTYPE svg PUBLIC "-//W3C//DTD SVG 1.1//EN" "http://www.w3.org/Graphics/SVG/1.1/DTD/svg11.dtd">
<svg xmlns="http://www.w3.org/2000/svg" xmlns:dc="http://purl.org/dc/elements/1.1/" version="1.1" xmlns:xl="http://www.w3.org/1999/xlink" viewBox="36 63 292.5 351" width="292.5" height="351">
  <defs>
    <clipPath id="artboard_clip_path">
      <path d="M 36 63 L 328.5 63 L 328.5 360 L 288 414 L 36 414 Z"/>
    </clipPath>
  </defs>
  <g id="Crossbow_(4)" fill-opacity="1" stroke="none" stroke-dasharray="none" stroke-opacity="1" fill="none">
    <title>Crossbow (4)</title>
    <g id="Crossbow_(4)_Art" clip-path="url(#artboard_clip_path)">
      <title>Art</title>
      <g id="Group_53">
        <g id="Graphic_82">
          <title>path18</title>
          <path d="M 225.39587 378.8523 C 214.94483 353.50644 215.77517 324.91043 227.6793 300.2137 L 232.26947 290.38097 L 217.73006 290.26447 L 184.23585 290.26447 L 184.23585 300.2137 L 217.73006 300.2137 C 206.69014 327.9549 206.69014 358.8701 217.73006 386.6113 C 218.07952 390.83903 221.78207 393.9881 226.01108 393.6544 C 230.24008 393.3207 233.40291 389.6299 233.08498 385.3997 C 231.9809 381.92905 228.9981 379.38915 225.39587 378.8523 Z" fill="#FFFFFF"/>
          <path d="M 225.39587 378.8523 C 214.94483 353.50644 215.77517 324.91043 227.6793 300.2137 L 232.26947 290.38097 L 217.73006 290.26447 L 184.23585 290.26447 L 184.23585 300.2137 L 217.73006 300.2137 C 206.69014 327.9549 206.69014 358.8701 217.73006 386.6113 C 218.07952 390.83903 221.78207 393.9881 226.01108 393.6544 C 230.24008 393.3207 233.40291 389.6299 233.08498 385.3997 C 231.9809 381.92905 228.9981 379.38915 225.39587 378.8523 Z" stroke="black" stroke-linecap="round" stroke-linejoin="round" stroke-width="1.499719"/>
        </g>
        <g id="Graphic_81">
          <title>path23</title>
          <path d="M 196.5722 115.0867 L 207.05735 88.20978 C 207.46633 86.1886 206.97853 84.0894 205.72025 82.45564 C 204.46197 80.82189 202.55692 79.81422 200.4983 79.69352 L 183.11627 79.69352 L 182.47551 79.69352 L 165.09347 79.69352 C 163.03487 79.81422 161.12982 80.82189 159.87154 82.45564 C 158.61325 84.0894 158.12546 86.1886 158.53443 88.20978 L 169.01958 115.0867 L 174.5068 115.0867 L 164.1032 88.87384 C 164.01018 87.07563 165.16122 85.4478 166.8876 84.93609 L 182.55706 84.93609 L 183.03472 84.93609 L 198.69254 84.93609 C 200.41892 85.4478 201.56995 87.07563 201.47692 88.87384 L 191.07333 115.0867 Z" fill="#FFFFFF"/>
          <path d="M 196.5722 115.0867 L 207.05735 88.20978 C 207.46633 86.1886 206.97853 84.0894 205.72025 82.45564 C 204.46197 80.82189 202.55692 79.81422 200.4983 79.69352 L 183.11627 79.69352 L 182.47551 79.69352 L 165.09347 79.69352 C 163.03487 79.81422 161.12982 80.82189 159.87154 82.45564 C 158.61325 84.0894 158.12546 86.1886 158.53443 88.20978 L 169.01958 115.0867 L 174.5068 115.0867 L 164.1032 88.87384 C 164.01018 87.07563 165.16122 85.4478 166.8876 84.93609 L 182.55706 84.93609 L 183.03472 84.93609 L 198.69254 84.93609 C 200.41892 85.4478 201.56995 87.07563 201.47692 88.87384 L 191.07333 115.0867 Z" stroke="black" stroke-linecap="round" stroke-linejoin="round" stroke-width="1.499719"/>
        </g>
        <g id="Graphic_80">
          <title>path31</title>
          <path d="M 194.68372 116.18998 L 194.91672 134.41083 C 227.2839 132.9693 258.38193 148.1131 277.6212 174.68543 C 284.74223 186.07397 295.98538 194.19797 308.9485 197.3217 C 310.62417 198.50156 312.8444 198.53777 314.56698 197.41333 C 316.28955 196.2889 317.17244 194.22708 316.8012 192.19573 C 316.42996 190.16437 314.8783 188.56684 312.8746 188.15302 C 301.9534 187.22032 292.48587 180.82559 287.64035 171.10883 C 271.06246 134.94491 233.9518 113.01991 194.68372 116.18998 Z" fill="#FFFFFF"/>
          <path d="M 194.68372 116.18998 L 194.91672 134.41083 C 227.2839 132.9693 258.38193 148.1131 277.6212 174.68543 C 284.74223 186.07397 295.98538 194.19797 308.9485 197.3217 C 310.62417 198.50156 312.8444 198.53777 314.56698 197.41333 C 316.28955 196.2889 317.17244 194.22708 316.8012 192.19573 C 316.42996 190.16437 314.8783 188.56684 312.8746 188.15302 C 301.9534 187.22032 292.48587 180.82559 287.64035 171.10883 C 271.06246 134.94491 233.9518 113.01991 194.68372 116.18998 Z" stroke="black" stroke-linecap="round" stroke-linejoin="round" stroke-width="1.499719"/>
        </g>
        <g id="Graphic_79">
          <title>path36</title>
          <path d="M 171.61756 116.18998 L 171.38456 134.41083 C 139.01738 132.9693 107.91935 148.1131 88.68007 174.68543 C 81.55905 186.07397 70.3159 194.19797 57.35278 197.3217 C 55.67711 198.50156 53.45688 198.53777 51.734303 197.41333 C 50.011725 196.2889 49.12884 194.22708 49.50008 192.19573 C 49.87132 190.16437 51.422975 188.56684 53.42668 188.15302 C 64.34788 187.22032 73.81541 180.82559 78.66093 171.10883 C 95.23882 134.94491 132.34948 113.01991 171.61756 116.18998 Z" fill="#FFFFFF"/>
          <path d="M 171.61756 116.18998 L 171.38456 134.41083 C 139.01738 132.9693 107.91935 148.1131 88.68007 174.68543 C 81.55905 186.07397 70.3159 194.19797 57.35278 197.3217 C 55.67711 198.50156 53.45688 198.53777 51.734303 197.41333 C 50.011725 196.2889 49.12884 194.22708 49.50008 192.19573 C 49.87132 190.16437 51.422975 188.56684 53.42668 188.15302 C 64.34788 187.22032 73.81541 180.82559 78.66093 171.10883 C 95.23882 134.94491 132.34948 113.01991 171.61756 116.18998 Z" stroke="black" stroke-linecap="round" stroke-linejoin="round" stroke-width="1.499719"/>
        </g>
        <g id="Graphic_78">
          <title>path41</title>
          <path d="M 169.55409 409.435 L 195.5689 409.435 L 199.11054 278.3707 C 202.94357 266.97533 205.07461 251.99146 205.07543 236.43012 C 205.0755 216.60428 201.6241 197.99013 195.8019 186.41598 L 195.8019 114.54614 L 169.78709 114.54614 L 169.78709 186.41598 C 163.96489 197.99013 160.51348 216.60428 160.51356 236.43012 C 160.5144 251.97502 162.64098 266.9443 166.4668 278.33575 Z" fill="#FFFFFF"/>
          <path d="M 169.55409 409.435 L 195.5689 409.435 L 199.11054 278.3707 C 202.94357 266.97533 205.07461 251.99146 205.07543 236.43012 C 205.0755 216.60428 201.6241 197.99013 195.8019 186.41598 L 195.8019 114.54614 L 169.78709 114.54614 L 169.78709 186.41598 C 163.96489 197.99013 160.51348 216.60428 160.51356 236.43012 C 160.5144 251.97502 162.64098 266.9443 166.4668 278.33575 Z" stroke="black" stroke-linecap="round" stroke-linejoin="round" stroke-width="1.499719"/>
        </g>
        <g id="Group_62">
          <g id="Graphic_77">
            <title>path49</title>
            <path d="M 187.4986 115.41058 L 187.4986 108.49038 L 194.84985 99.05375 L 195.08285 99.05375 L 195.01295 98.84405 L 195.08285 98.75085 L 194.978 98.75085 L 182.73368 63.008155 L 170.48936 98.75085 L 170.3845 98.75085 L 170.4544 98.84405 L 170.3845 99.05375 L 170.61751 99.05375 L 177.95711 108.49038 L 177.95711 115.41058 L 178.63282 115.41058 L 178.63282 268.66845 L 181.2075 268.66845 L 182.73368 262.35406 L 184.2482 268.66845 L 186.82289 268.66845 L 186.82289 115.41058 Z M 165.67784 237.56252 C 165.8581 239.4742 166.54078 241.292 167.64672 242.8051 C 168.67092 244.20627 170.02073 245.29496 171.56118 245.96228 C 172.2577 246.26305 172.9851 246.47423 173.7281 246.5914 L 178.30662 246.7312 L 178.30662 238.78579 L 178.30662 231.45783 L 178.30662 224.12988 L 178.30662 216.81358 L 178.30662 209.48563 L 178.30662 203.0198 C 175.71265 207.41071 173.42681 212.00185 171.46797 216.75533 C 169.91182 220.53867 168.56583 224.41717 167.43702 228.37054 C 166.78986 230.6402 166.21479 232.93272 165.7128 235.24414 C 165.61858 236.01297 165.60685 236.79083 165.67784 237.56252 Z M 198.03034 228.37054 C 196.90153 224.41717 195.55554 220.53867 193.99939 216.75533 C 192.04055 212.00185 189.7547 207.41071 187.16074 203.0198 L 187.16074 209.48563 L 187.16074 216.81358 L 187.16074 224.12988 L 187.16074 231.45783 L 187.16074 238.78579 L 187.16074 246.7312 L 191.73925 246.5914 C 192.48227 246.47423 193.20966 246.26305 193.90618 245.96228 C 195.44662 245.29496 196.79644 244.20627 197.82064 242.8051 C 198.92657 241.292 199.60926 239.4742 199.78952 237.56252 C 199.8605 236.79083 199.84878 236.01297 199.75457 235.24414 C 199.25257 232.93272 198.6775 230.6402 198.03034 228.37054 Z" fill="#FFFFFF"/>
            <path d="M 187.4986 115.41058 L 187.4986 108.49038 L 194.84985 99.05375 L 195.08285 99.05375 L 195.01295 98.84405 L 195.08285 98.75085 L 194.978 98.75085 L 182.73368 63.008155 L 170.48936 98.75085 L 170.3845 98.75085 L 170.4544 98.84405 L 170.3845 99.05375 L 170.61751 99.05375 L 177.95711 108.49038 L 177.95711 115.41058 L 178.63282 115.41058 L 178.63282 268.66845 L 181.2075 268.66845 L 182.73368 262.35406 L 184.2482 268.66845 L 186.82289 268.66845 L 186.82289 115.41058 Z M 165.67784 237.56252 C 165.8581 239.4742 166.54078 241.292 167.64672 242.8051 C 168.67092 244.20627 170.02073 245.29496 171.56118 245.96228 C 172.2577 246.26305 172.9851 246.47423 173.7281 246.5914 L 178.30662 246.7312 L 178.30662 238.78579 L 178.30662 231.45783 L 178.30662 224.12988 L 178.30662 216.81358 L 178.30662 209.48563 L 178.30662 203.0198 C 175.71265 207.41071 173.42681 212.00185 171.46797 216.75533 C 169.91182 220.53867 168.56583 224.41717 167.43702 228.37054 C 166.78986 230.6402 166.21479 232.93272 165.7128 235.24414 C 165.61858 236.01297 165.60685 236.79083 165.67784 237.56252 Z M 198.03034 228.37054 C 196.90153 224.41717 195.55554 220.53867 193.99939 216.75533 C 192.04055 212.00185 189.7547 207.41071 187.16074 203.0198 L 187.16074 209.48563 L 187.16074 216.81358 L 187.16074 224.12988 L 187.16074 231.45783 L 187.16074 238.78579 L 187.16074 246.7312 L 191.73925 246.5914 C 192.48227 246.47423 193.20966 246.26305 193.90618 245.96228 C 195.44662 245.29496 196.79644 244.20627 197.82064 242.8051 C 198.92657 241.292 199.60926 239.4742 199.78952 237.56252 C 199.8605 236.79083 199.84878 236.01297 199.75457 235.24414 C 199.25257 232.93272 198.6775 230.6402 198.03034 228.37054 Z" stroke="black" stroke-linecap="round" stroke-linejoin="round" stroke-width="1.499719"/>
          </g>
          <g id="Graphic_76">
            <title>path63</title>
            <path d="M 187.1604 238.78532 L 187.1604 246.74238 L 191.7389 246.59093 C 192.48192 246.47376 193.20931 246.26258 193.90583 245.96182 Z" fill="#FFFFFF"/>
            <path d="M 187.1604 238.78532 L 187.1604 246.74238 L 191.7389 246.59093 C 192.48192 246.47376 193.20931 246.26258 193.90583 245.96182 Z" stroke="black" stroke-linecap="round" stroke-linejoin="round" stroke-width=".7498595"/>
          </g>
          <g id="Graphic_75">
            <title>path68</title>
            <path d="M 187.1604 231.46246 L 187.1604 238.7904 L 193.90583 245.9669 C 195.44752 245.29632 196.79747 244.20352 197.8203 242.79806 Z" fill="#FFFFFF"/>
            <path d="M 187.1604 231.46246 L 187.1604 238.7904 L 193.90583 245.9669 C 195.44752 245.29632 196.79747 244.20352 197.8203 242.79806 Z" stroke="black" stroke-linecap="round" stroke-linejoin="round" stroke-width=".7498595"/>
          </g>
          <g id="Graphic_74">
            <title>path73</title>
            <path d="M 187.1604 224.13164 L 187.1604 231.4596 L 197.8203 242.80685 C 198.92623 241.29375 199.6089 239.47596 199.78917 237.56428 Z" fill="#FFFFFF"/>
            <path d="M 187.1604 224.13164 L 187.1604 231.4596 L 197.8203 242.80685 C 198.92623 241.29375 199.6089 239.47596 199.78917 237.56428 Z" stroke="black" stroke-linecap="round" stroke-linejoin="round" stroke-width=".7498595"/>
          </g>
          <g id="Graphic_73">
            <title>path78</title>
            <path d="M 187.1604 209.48225 L 193.99904 216.7636 C 192.04068 212.00614 189.75484 207.41108 187.1604 203.01641 Z" fill="#FFFFFF"/>
            <path d="M 187.1604 209.48225 L 193.99904 216.7636 C 192.04068 212.00614 189.75484 207.41108 187.1604 203.01641 Z" stroke="black" stroke-linecap="round" stroke-linejoin="round" stroke-width=".7498595"/>
          </g>
          <g id="Graphic_72">
            <title>path83</title>
            <path d="M 187.1604 216.81183 L 198.03 228.38044 C 196.9016 224.42312 195.55559 220.54072 193.99904 216.75358 L 187.1604 209.48388 Z" fill="#FFFFFF"/>
            <path d="M 187.1604 216.81183 L 198.03 228.38044 C 196.9016 224.42312 195.55559 220.54072 193.99904 216.75358 L 187.1604 209.48388 Z" stroke="black" stroke-linecap="round" stroke-linejoin="round" stroke-width=".7498595"/>
          </g>
          <g id="Graphic_71">
            <title>path88</title>
            <path d="M 187.1604 216.8128 L 187.1604 224.14074 L 199.78917 237.57338 C 199.861 236.79783 199.84926 236.01602 199.75422 235.24334 C 199.25222 232.93193 198.67715 230.6394 198.03 228.36975 Z" fill="#FFFFFF"/>
            <path d="M 187.1604 216.8128 L 187.1604 224.14074 L 199.78917 237.57338 C 199.861 236.79783 199.84926 236.01602 199.75422 235.24334 C 199.25222 232.93193 198.67715 230.6394 198.03 228.36975 Z" stroke="black" stroke-linecap="round" stroke-linejoin="round" stroke-width=".7498595"/>
          </g>
          <g id="Graphic_70">
            <title>path96</title>
            <path d="M 178.3036 238.78532 L 178.3036 246.74238 L 173.72508 246.59093 C 172.98206 246.47376 172.25467 246.26258 171.55815 245.96182 Z" fill="#FFFFFF"/>
            <path d="M 178.3036 238.78532 L 178.3036 246.74238 L 173.72508 246.59093 C 172.98206 246.47376 172.25467 246.26258 171.55815 245.96182 Z" stroke="black" stroke-linecap="round" stroke-linejoin="round" stroke-width=".7498595"/>
          </g>
          <g id="Graphic_69">
            <title>path101</title>
            <path d="M 178.3036 231.46246 L 178.3036 238.7904 L 171.55815 245.9669 C 170.01646 245.29632 168.66652 244.20352 167.6437 242.79806 Z" fill="#FFFFFF"/>
            <path d="M 178.3036 231.46246 L 178.3036 238.7904 L 171.55815 245.9669 C 170.01646 245.29632 168.66652 244.20352 167.6437 242.79806 Z" stroke="black" stroke-linecap="round" stroke-linejoin="round" stroke-width=".7498595"/>
          </g>
          <g id="Graphic_68">
            <title>path106</title>
            <path d="M 178.3036 224.13164 L 178.3036 231.4596 L 167.6437 242.80685 C 166.53776 241.29375 165.85507 239.47596 165.67482 237.56428 Z" fill="#FFFFFF"/>
            <path d="M 178.3036 224.13164 L 178.3036 231.4596 L 167.6437 242.80685 C 166.53776 241.29375 165.85507 239.47596 165.67482 237.56428 Z" stroke="black" stroke-linecap="round" stroke-linejoin="round" stroke-width=".7498595"/>
          </g>
          <g id="Graphic_67">
            <title>path111</title>
            <path d="M 178.3036 209.48225 L 171.46495 216.7636 C 173.4233 212.00614 175.70914 207.41108 178.3036 203.01641 Z" fill="#FFFFFF"/>
            <path d="M 178.3036 209.48225 L 171.46495 216.7636 C 173.4233 212.00614 175.70914 207.41108 178.3036 203.01641 Z" stroke="black" stroke-linecap="round" stroke-linejoin="round" stroke-width=".7498595"/>
          </g>
          <g id="Graphic_66">
            <title>path116</title>
            <path d="M 178.3036 216.81183 L 167.43399 228.38044 C 168.5624 224.42312 169.9084 220.54072 171.46495 216.75358 L 178.3036 209.48388 Z" fill="#FFFFFF"/>
            <path d="M 178.3036 216.81183 L 167.43399 228.38044 C 168.5624 224.42312 169.9084 220.54072 171.46495 216.75358 L 178.3036 209.48388 Z" stroke="black" stroke-linecap="round" stroke-linejoin="round" stroke-width=".7498595"/>
          </g>
          <g id="Graphic_65">
            <title>path121</title>
            <path d="M 178.3036 216.8128 L 178.3036 224.14074 L 165.67482 237.57338 C 165.60299 236.79783 165.61472 236.01602 165.70977 235.24334 C 166.21176 232.93193 166.78683 230.6394 167.43399 228.36975 Z" fill="#FFFFFF"/>
            <path d="M 178.3036 216.8128 L 178.3036 224.14074 L 165.67482 237.57338 C 165.60299 236.79783 165.61472 236.01602 165.70977 235.24334 C 166.21176 232.93193 166.78683 230.6394 167.43399 228.36975 Z" stroke="black" stroke-linecap="round" stroke-linejoin="round" stroke-width=".7498595"/>
          </g>
          <g id="Graphic_64">
            <title>path126</title>
            <path d="M 186.82626 112.13688 L 178.6362 112.13688 L 178.6362 268.66845 L 181.21089 268.66845 L 182.73706 262.35406 L 184.25158 268.66845 L 186.82626 268.66845 Z" fill="#FFFFFF"/>
            <path d="M 186.82626 112.13688 L 178.6362 112.13688 L 178.6362 268.66845 L 181.21089 268.66845 L 182.73706 262.35406 L 184.25158 268.66845 L 186.82626 268.66845 Z" stroke="black" stroke-linecap="round" stroke-linejoin="round" stroke-width=".7498595"/>
          </g>
          <g id="Graphic_63">
            <title>path131</title>
            <path d="M 187.50895 115.41407 L 187.50895 108.49388 L 194.84855 99.0456 L 195.08156 99.0456 L 195.01166 98.8359 L 195.08156 98.75434 L 194.9767 98.75434 L 182.73239 63 L 170.48807 98.75434 L 170.38322 98.75434 L 170.45312 98.8359 L 170.38322 99.0456 L 170.61622 99.0456 L 177.95582 108.49388 L 177.95582 115.41407 Z" fill="#FFFFFF"/>
            <path d="M 187.50895 115.41407 L 187.50895 108.49388 L 194.84855 99.0456 L 195.08156 99.0456 L 195.01166 98.8359 L 195.08156 98.75434 L 194.9767 98.75434 L 182.73239 63 L 170.48807 98.75434 L 170.38322 98.75434 L 170.45312 98.8359 L 170.38322 99.0456 L 170.61622 99.0456 L 177.95582 108.49388 L 177.95582 115.41407 Z" stroke="black" stroke-linecap="round" stroke-linejoin="round" stroke-width=".7498595"/>
          </g>
        </g>
        <g id="Graphic_61">
          <title>path147</title>
          <path d="M 182.40354 271.87574 L 182.40354 272.69125 L 182.65984 272.2835 L 182.79964 272.4932 L 182.79964 272.06214 L 183.4404 271.06023 L 309.77475 188.67029 C 310.10053 187.51718 309.7978 186.27769 308.97717 185.40456 C 308.15653 184.53144 306.93816 184.15257 305.7671 184.40633 L 182.75304 263.72062 L 59.42444 184.21993 C 58.25597 183.968 57.040855 184.34565 56.22103 185.21552 C 55.40121 186.0854 55.09614 187.32073 55.41678 188.47223 L 181.76278 270.86217 Z" fill="#FFFFFF"/>
          <path d="M 182.40354 271.87574 L 182.40354 272.69125 L 182.65984 272.2835 L 182.79964 272.4932 L 182.79964 272.06214 L 183.4404 271.06023 L 309.77475 188.67029 C 310.10053 187.51718 309.7978 186.27769 308.97717 185.40456 C 308.15653 184.53144 306.93816 184.15257 305.7671 184.40633 L 182.75304 263.72062 L 59.42444 184.21993 C 58.25597 183.968 57.040855 184.34565 56.22103 185.21552 C 55.40121 186.0854 55.09614 187.32073 55.41678 188.47223 L 181.76278 270.86217 Z" stroke="black" stroke-linecap="round" stroke-linejoin="round" stroke-width="1.499719"/>
        </g>
        <g id="Graphic_60">
          <title>rect152</title>
          <rect x="176.76602" y="259.90986" width="11.931163" height="12.77545" fill="#FFFFFF"/>
          <rect x="176.76602" y="259.90986" width="11.931163" height="12.77545" stroke="black" stroke-linecap="round" stroke-linejoin="round" stroke-width="1.499719"/>
        </g>
        <g id="Graphic_59">
          <title>path171</title>
          <path d="M 198.8716 139.33302 C 199.65967 139.33356 200.41561 139.02074 200.97286 138.46349 C 201.5301 137.90624 201.84293 137.1503 201.8424 136.36223 L 201.8424 115.31039 C 201.84293 114.52232 201.5301 113.76638 200.97286 113.20913 C 200.41561 112.65188 199.65967 112.33906 198.8716 112.3396 C 198.08353 112.33906 197.32759 112.65188 196.77034 113.20913 C 196.2131 113.76638 195.90027 114.52232 195.9008 115.31039 L 195.9008 136.36223 C 195.90027 137.1503 196.2131 137.90624 196.77034 138.46349 C 197.32759 139.02074 198.08353 139.33356 198.8716 139.33302 Z" fill="#FFFFFF"/>
          <path d="M 198.8716 139.33302 C 199.65967 139.33356 200.41561 139.02074 200.97286 138.46349 C 201.5301 137.90624 201.84293 137.1503 201.8424 136.36223 L 201.8424 115.31039 C 201.84293 114.52232 201.5301 113.76638 200.97286 113.20913 C 200.41561 112.65188 199.65967 112.33906 198.8716 112.3396 C 198.08353 112.33906 197.32759 112.65188 196.77034 113.20913 C 196.2131 113.76638 195.90027 114.52232 195.9008 115.31039 L 195.9008 136.36223 C 195.90027 137.1503 196.2131 137.90624 196.77034 138.46349 C 197.32759 139.02074 198.08353 139.33356 198.8716 139.33302 Z" stroke="black" stroke-linecap="round" stroke-linejoin="round" stroke-width="1.499719"/>
        </g>
        <g id="Graphic_58">
          <title>path176</title>
          <path d="M 204.7695 139.33302 C 205.55756 139.33356 206.3135 139.02074 206.87075 138.46349 C 207.428 137.90624 207.74082 137.1503 207.74028 136.36223 L 207.74028 115.31039 C 207.74082 114.52232 207.428 113.76638 206.87075 113.20913 C 206.3135 112.65188 205.55756 112.33906 204.7695 112.3396 C 203.98143 112.33906 203.22548 112.65188 202.66823 113.20913 C 202.11098 113.76638 201.79816 114.52232 201.7987 115.31039 L 201.7987 136.36223 C 201.79816 137.1503 202.11098 137.90624 202.66823 138.46349 C 203.22548 139.02074 203.98143 139.33356 204.7695 139.33302 Z" fill="#FFFFFF"/>
          <path d="M 204.7695 139.33302 C 205.55756 139.33356 206.3135 139.02074 206.87075 138.46349 C 207.428 137.90624 207.74082 137.1503 207.74028 136.36223 L 207.74028 115.31039 C 207.74082 114.52232 207.428 113.76638 206.87075 113.20913 C 206.3135 112.65188 205.55756 112.33906 204.7695 112.3396 C 203.98143 112.33906 203.22548 112.65188 202.66823 113.20913 C 202.11098 113.76638 201.79816 114.52232 201.7987 115.31039 L 201.7987 136.36223 C 201.79816 137.1503 202.11098 137.90624 202.66823 138.46349 C 203.22548 139.02074 203.98143 139.33356 204.7695 139.33302 Z" stroke="black" stroke-linecap="round" stroke-linejoin="round" stroke-width="1.499719"/>
        </g>
        <g id="Graphic_57">
          <title>path181</title>
          <path d="M 210.6674 139.33302 C 211.45546 139.33356 212.2114 139.02074 212.76865 138.46349 C 213.3259 137.90624 213.63872 137.1503 213.63818 136.36223 L 213.63818 115.31039 C 213.63872 114.52232 213.3259 113.76638 212.76865 113.20913 C 212.2114 112.65188 211.45546 112.33906 210.6674 112.3396 C 209.87932 112.33906 209.12337 112.65188 208.56613 113.20913 C 208.00888 113.76638 207.69606 114.52232 207.6966 115.31039 L 207.6966 136.36223 C 207.69606 137.1503 208.00888 137.90624 208.56613 138.46349 C 209.12337 139.02074 209.87932 139.33356 210.6674 139.33302 Z" fill="#FFFFFF"/>
          <path d="M 210.6674 139.33302 C 211.45546 139.33356 212.2114 139.02074 212.76865 138.46349 C 213.3259 137.90624 213.63872 137.1503 213.63818 136.36223 L 213.63818 115.31039 C 213.63872 114.52232 213.3259 113.76638 212.76865 113.20913 C 212.2114 112.65188 211.45546 112.33906 210.6674 112.3396 C 209.87932 112.33906 209.12337 112.65188 208.56613 113.20913 C 208.00888 113.76638 207.69606 114.52232 207.6966 115.31039 L 207.6966 136.36223 C 207.69606 137.1503 208.00888 137.90624 208.56613 138.46349 C 209.12337 139.02074 209.87932 139.33356 210.6674 139.33302 Z" stroke="black" stroke-linecap="round" stroke-linejoin="round" stroke-width="1.499719"/>
        </g>
        <g id="Graphic_56">
          <title>path189</title>
          <path d="M 154.8559 139.33302 C 155.64396 139.33356 156.3999 139.02074 156.95715 138.46349 C 157.5144 137.90624 157.82722 137.1503 157.82668 136.36223 L 157.82668 115.31039 C 157.82722 114.52232 157.5144 113.76638 156.95715 113.20913 C 156.3999 112.65188 155.64396 112.33906 154.8559 112.3396 C 154.06783 112.33906 153.31188 112.65188 152.75463 113.20913 C 152.19738 113.76638 151.88456 114.52232 151.8851 115.31039 L 151.8851 136.36223 C 151.88456 137.1503 152.19738 137.90624 152.75463 138.46349 C 153.31188 139.02074 154.06783 139.33356 154.8559 139.33302 Z" fill="#FFFFFF"/>
          <path d="M 154.8559 139.33302 C 155.64396 139.33356 156.3999 139.02074 156.95715 138.46349 C 157.5144 137.90624 157.82722 137.1503 157.82668 136.36223 L 157.82668 115.31039 C 157.82722 114.52232 157.5144 113.76638 156.95715 113.20913 C 156.3999 112.65188 155.64396 112.33906 154.8559 112.3396 C 154.06783 112.33906 153.31188 112.65188 152.75463 113.20913 C 152.19738 113.76638 151.88456 114.52232 151.8851 115.31039 L 151.8851 136.36223 C 151.88456 137.1503 152.19738 137.90624 152.75463 138.46349 C 153.31188 139.02074 154.06783 139.33356 154.8559 139.33302 Z" stroke="black" stroke-linecap="round" stroke-linejoin="round" stroke-width="1.499719"/>
        </g>
        <g id="Graphic_55">
          <title>path194</title>
          <path d="M 160.75379 139.33302 C 161.54185 139.33356 162.2978 139.02074 162.85505 138.46349 C 163.4123 137.90624 163.72512 137.1503 163.72458 136.36223 L 163.72458 115.31039 C 163.72512 114.52232 163.4123 113.76638 162.85505 113.20913 C 162.2978 112.65188 161.54185 112.33906 160.75379 112.3396 C 159.96572 112.33906 159.20977 112.65188 158.65253 113.20913 C 158.09528 113.76638 157.78246 114.52232 157.783 115.31039 L 157.783 136.36223 C 157.78246 137.1503 158.09528 137.90624 158.65253 138.46349 C 159.20977 139.02074 159.96572 139.33356 160.75379 139.33302 Z" fill="#FFFFFF"/>
          <path d="M 160.75379 139.33302 C 161.54185 139.33356 162.2978 139.02074 162.85505 138.46349 C 163.4123 137.90624 163.72512 137.1503 163.72458 136.36223 L 163.72458 115.31039 C 163.72512 114.52232 163.4123 113.76638 162.85505 113.20913 C 162.2978 112.65188 161.54185 112.33906 160.75379 112.3396 C 159.96572 112.33906 159.20977 112.65188 158.65253 113.20913 C 158.09528 113.76638 157.78246 114.52232 157.783 115.31039 L 157.783 136.36223 C 157.78246 137.1503 158.09528 137.90624 158.65253 138.46349 C 159.20977 139.02074 159.96572 139.33356 160.75379 139.33302 Z" stroke="black" stroke-linecap="round" stroke-linejoin="round" stroke-width="1.499719"/>
        </g>
        <g id="Graphic_54">
          <title>path199</title>
          <path d="M 166.65168 139.33302 C 167.43975 139.33356 168.1957 139.02074 168.75294 138.46349 C 169.3102 137.90624 169.62301 137.1503 169.62247 136.36223 L 169.62247 115.31039 C 169.62301 114.52232 169.3102 113.76638 168.75294 113.20913 C 168.1957 112.65188 167.43975 112.33906 166.65168 112.3396 C 165.86361 112.33906 165.10767 112.65188 164.55042 113.20913 C 163.99317 113.76638 163.68035 114.52232 163.68089 115.31039 L 163.68089 136.36223 C 163.68035 137.1503 163.99317 137.90624 164.55042 138.46349 C 165.10767 139.02074 165.86361 139.33356 166.65168 139.33302 Z" fill="#FFFFFF"/>
          <path d="M 166.65168 139.33302 C 167.43975 139.33356 168.1957 139.02074 168.75294 138.46349 C 169.3102 137.90624 169.62301 137.1503 169.62247 136.36223 L 169.62247 115.31039 C 169.62301 114.52232 169.3102 113.76638 168.75294 113.20913 C 168.1957 112.65188 167.43975 112.33906 166.65168 112.3396 C 165.86361 112.33906 165.10767 112.65188 164.55042 113.20913 C 163.99317 113.76638 163.68035 114.52232 163.68089 115.31039 L 163.68089 136.36223 C 163.68035 137.1503 163.99317 137.90624 164.55042 138.46349 C 165.10767 139.02074 165.86361 139.33356 166.65168 139.33302 Z" stroke="black" stroke-linecap="round" stroke-linejoin="round" stroke-width="1.499719"/>
        </g>
      </g>
    </g>
  </g>
</svg>
