<?xml version="1.0" encoding="UTF-8" standalone="no"?>
<!DOCTYPE svg PUBLIC "-//W3C//DTD SVG 1.1//EN" "http://www.w3.org/Graphics/SVG/1.1/DTD/svg11.dtd">
<svg xmlns="http://www.w3.org/2000/svg" xmlns:dc="http://purl.org/dc/elements/1.1/" version="1.1" xmlns:xl="http://www.w3.org/1999/xlink" viewBox="45 63 135 351" width="135" height="351">
  <defs>
    <clipPath id="artboard_clip_path">
      <path d="M 45 63 L 180 63 L 180 414 L 45 414 Z"/>
    </clipPath>
  </defs>
  <g id="Dagger_(5)" fill-opacity="1" stroke="none" stroke-dasharray="none" stroke-opacity="1" fill="none">
    <title>Dagger (5)</title>
    <g id="Dagger_(5)_Art" clip-path="url(#artboard_clip_path)">
      <title>Art</title>
      <g id="Group_766">
        <title>layer1</title>
        <g id="Group_767">
          <title>g24207</title>
          <g id="Graphic_774">
            <title>path24129</title>
            <path d="M 105.32646 297.64902 L 126.9076 297.51598 L 123.12229 378.5648 L 117.44267 378.6475 L 112.01023 378.9593 L 108.22638 326.78522 Z" fill="#FFFFFF"/>
          </g>
          <g id="Graphic_773">
            <title>path21698</title>
            <path d="M 108.78748 65.25506 C 107.0565 65.09994 106.32821 68.53832 105.71044 71.74811 C 102.42 88.84129 101.63762 111.34671 100.58523 129.49568 C 99.9244 140.8827 99.28911 152.14884 98.53466 163.324 C 97.78228 174.48278 98.15015 186.06872 96.4841 197.15232 C 96.03649 200.13251 94.99869 202.99086 94.77729 206.0373 C 93.83013 219.04666 94.17652 232.44516 93.06809 245.3322 C 91.95555 258.26295 89.47402 270.4241 88.96696 282.23756 C 84.087 283.19633 79.39765 281.01008 74.95916 279.84563 C 70.39218 278.647 66.00769 277.946 61.973055 276.08586 C 57.74503 274.1369 54.300866 271.02805 49.3307 271.98473 C 48.85166 281.6244 50.295786 293.57738 52.405353 300.68785 C 64.33019 301.43818 76.24463 299.2524 88.96696 299.66376 C 88.96682 299.6932 88.97197 299.7525 88.97173 299.78317 C 91.76377 299.91763 94.52207 299.09527 97.07372 299.4036 C 102.46627 299.0948 102.85363 300.34308 103.50552 303.0988 C 106.24666 326.33295 107.26357 347.35982 108.46759 368.6262 C 108.76381 372.24038 109.20314 376.0786 110.15292 378.9387 C 107.57798 382.19976 101.75033 383.27547 99.90249 387.4823 C 99.39886 388.62764 99.87069 390.2174 99.56113 392.2662 C 99.09302 395.35294 98.36559 398.7738 99.90249 402.5166 C 104.35056 406.0421 108.49498 411.42517 115.27813 411.74294 C 118.76603 411.90626 123.64695 409.20095 126.21366 407.30046 C 132.53898 402.61594 136.18613 394.2412 133.04808 387.14097 C 131.13121 382.8036 127.95792 379.66945 124.84583 376.2054 C 125.39116 374.189 125.64527 371.87985 125.84366 369.5166 L 126.97952 342.48574 L 130.98265 300.56364 C 131.60689 299.8208 135.55982 299.4588 137.51205 299.54684 C 150.39318 298.90183 165.61197 303.4722 175.76138 297.9546 C 173.90397 291.93003 176.5547 278.49734 174.05218 271.98478 C 169.37448 272.05922 165.70516 275.07387 161.7512 276.76864 C 153.77485 280.18957 144.86047 283.04224 132.36297 281.5525 C 130.63539 248.6208 125.69582 212.17496 122.4539 177.6756 C 119.30219 144.13435 117.08445 110.96567 111.86212 81.31348 C 110.83228 75.45903 111.7943 68.77106 108.78747 65.25511 Z M 108.78748 84.73183 C 110.64283 103.89289 112.19164 123.30502 114.25406 142.82077 C 117.20414 170.73854 119.38621 198.796 121.08846 226.8819 C 122.14017 244.23 123.46748 263.21297 124.84584 279.1629 C 120.86113 278.02232 115.9655 277.7929 113.22996 275.40314 C 109.4147 236.2726 109.61704 195.9187 107.761 155.46312 C 105.42934 166.27952 106.17383 178.14124 106.73691 189.97655 C 107.30822 201.96768 107.10328 214.36763 108.10236 226.1968 C 108.31558 228.72391 109.12884 231.1978 109.12884 233.71393 C 109.12884 239.61553 107.63117 245.26617 107.761 250.79877 C 107.979 260.081 110.97334 268.4756 110.49429 277.79268 C 107.0911 279.85784 102.71244 280.9453 98.1933 281.8938 C 100.08692 277.86874 97.93941 270.88455 97.85194 266.1768 C 97.582 251.55264 99.47645 236.13133 100.24386 220.73022 C 102.49216 175.6044 105.57221 128.33368 108.78748 84.73183 Z M 56.16273 278.13643 C 62.08278 282.18743 75.13094 285.75507 86.23367 285.99494 C 96.18561 286.2102 107.18759 284.96926 112.88621 280.187 C 119.35572 282.7401 128.19431 284.08008 136.80547 285.3122 C 143.8975 286.327 153.21546 286.09156 159.70064 284.6271 C 163.95327 283.66766 167.26549 280.38885 170.97753 279.5019 C 170.72742 285.41438 172.19567 290.36936 171.3189 295.904 C 130.83048 296.72404 95.11151 294.5848 56.16273 297.27183 C 56.45794 290.8249 55.110336 284.2027 56.16273 278.13643 Z M 124.61997 301.021 L 121.86907 369.31605 C 121.50645 372.1293 121.2151 374.9965 121.42983 377.22946 C 118.29724 377.0586 115.75024 377.4714 113.22996 377.9122 C 113.45178 374.48172 113.1214 371.604 112.67137 368.8458 L 108.84842 300.64185 C 108.53921 298.72212 109.12768 299.08337 110.8555 299.0707 L 119.39963 299.008 C 122.45865 299.22752 124.95233 298.63242 124.61997 301.021 Z M 120.63252 380.96535 C 121.45139 380.9365 122.28785 380.9437 123.13903 380.9892 C 126.29212 385.38735 132.61131 390.1325 130.65617 396.7086 C 129.95708 399.05937 126.89255 401.35824 124.84584 403.19924 C 122.54151 405.2726 119.93031 407.34517 117.3287 408.32446 C 112.46174 406.8128 108.94786 403.95157 104.68635 401.8338 C 100.00568 390.0322 108.3496 381.3987 120.63252 380.9653 Z" fill="black"/>
          </g>
          <g id="Graphic_772">
            <title>path21663</title>
            <path d="M 105.42687 388.01363 C 108.50479 383.48148 114.55265 380.776 121.60507 380.776 C 122.11282 380.776 122.63218 380.7903 123.14744 380.8177 C 123.19865 380.82135 123.24717 380.847 123.2766 380.8888 C 123.98252 381.8729 124.84084 382.86716 125.74973 383.9196 C 128.84815 387.5066 132.36069 391.572 130.819 396.75607 C 130.22242 398.76246 128.00828 400.67796 126.05383 402.3686 C 125.67114 402.6994 125.30143 403.0192 124.95975 403.32605 C 123.06611 405.0297 120.22123 407.41807 117.38865 408.4848 C 117.36946 408.49214 117.34905 408.4958 117.32852 408.4958 C 117.3114 408.4958 117.2943 408.49336 117.27792 408.48725 C 114.1221 407.5073 111.49453 405.941 108.95442 404.42665 C 107.56034 403.595 106.11843 402.7353 104.60953 401.98563 C 104.57195 401.96717 104.54188 401.93503 104.52685 401.89543 C 102.47057 396.70864 102.7815 391.9079 105.42684 388.0134 Z" fill="#FFFFFF"/>
          </g>
          <g id="Graphic_771">
            <title>path21668</title>
            <path d="M 110.0048 396.62345 C 110.82485 395.17674 112.98977 393.62684 114.90458 393.62684 C 116.41279 393.62684 117.45425 394.5863 117.8383 396.3289 C 117.85603 396.4109 117.8124 396.4936 117.73442 396.52435 C 117.21915 396.72663 116.63966 397.0526 116.02667 397.39773 C 114.81027 398.08177 113.55217 398.78905 112.40752 398.78905 C 111.30046 398.78905 110.51116 398.12755 109.99453 396.76763 C 109.97607 396.72046 109.9795 396.66717 110.0048 396.62345 Z" fill="#FFFFFF"/>
          </g>
          <g id="Graphic_770">
            <title>path21682</title>
            <path d="M 55.995706 278.1059 C 56.00597 278.04847 56.043544 278.00068 56.096845 277.97743 C 56.118026 277.96888 56.140576 277.96374 56.16381 277.96374 C 56.19797 277.96374 56.23146 277.97352 56.26084 277.9938 C 62.3374 282.15212 75.50397 285.59088 86.23772 285.82323 C 86.94501 285.83826 87.65503 285.84645 88.34934 285.84645 C 96.34482 285.84645 107.0731 284.8412 112.77723 280.05417 C 112.80867 280.02826 112.84829 280.01384 112.88725 280.01384 C 112.90844 280.01384 112.92962 280.0175 112.95012 280.02618 C 119.19343 282.48974 127.45815 283.79976 136.82994 285.14123 C 139.65569 285.5458 142.90992 285.759 146.24273 285.759 C 151.18558 285.759 155.9521 285.29772 159.66283 284.4599 C 161.85646 283.96445 163.80681 282.83964 165.6936 281.7517 C 167.4649 280.73006 169.13781 279.76514 170.93644 279.3353 C 170.95013 279.33162 170.96309 279.3304 170.97678 279.3304 C 171.01638 279.3304 171.05402 279.3441 171.08543 279.3694 C 171.1271 279.4036 171.14972 279.45543 171.14764 279.5088 C 171.04033 282.0366 171.25019 284.4045 171.4538 286.69515 C 171.72989 289.80997 171.99093 292.7512 171.48729 295.93026 C 171.4736 296.01227 171.40454 296.0724 171.3219 296.07446 C 164.65765 296.20908 157.55807 296.27537 149.61659 296.27537 C 141.82202 296.27537 134.06778 296.21255 126.56844 296.15237 C 119.26795 296.09358 111.7194 296.03283 104.33349 296.03283 C 91.41158 296.03283 74.25958 296.19276 56.175457 297.4406 C 56.1713 297.44126 56.16727 297.44126 56.16316 297.44126 C 56.118746 297.44126 56.07569 297.42415 56.04357 297.39274 C 56.00872 297.35864 55.990266 297.31146 55.99232 297.2629 C 56.112586 294.64148 55.95746 291.95172 55.807806 289.3508 C 55.59323 285.5977 55.369084 281.71616 55.995734 278.1059 Z" fill="#FFFFFF"/>
          </g>
          <g id="Graphic_769">
            <title>path21687</title>
            <path d="M 97.68083 266.17967 C 97.50451 256.64455 98.26443 246.5518 98.99974 236.79185 C 99.3961 231.5285 99.8068 226.08613 100.07332 220.72096 C 102.12891 179.47592 105.0025 133.71858 108.61618 84.71794 C 108.62229 84.62978 108.69545 84.56076 108.78429 84.56008 C 108.78497 84.56008 108.78563 84.56008 108.78636 84.56008 C 108.87452 84.56008 108.94764 84.62704 108.95652 84.71452 C 109.68841 92.27401 110.38546 100.01595 111.05995 107.50231 C 112.09935 119.04859 113.175 130.98781 114.4242 142.80267 C 117.16794 168.76404 119.40326 196.26233 121.25794 226.86995 C 122.40943 245.84725 123.74337 264.41315 125.01649 279.1467 C 125.02137 279.20267 124.99876 279.25743 124.95501 279.29362 C 124.9236 279.31892 124.88534 279.3326 124.84635 279.3326 C 124.83059 279.3326 124.81494 279.33016 124.79991 279.32527 C 123.62314 278.98906 122.34318 278.72663 121.10491 278.47378 C 118.14043 277.86763 115.07481 277.24098 113.11764 275.5305 C 113.08415 275.50177 113.06433 275.46144 113.05954 275.41842 C 110.52765 249.45158 109.74929 222.39887 108.99758 196.23726 C 108.6265 183.34062 108.24312 170.01962 107.65406 156.8551 C 105.78093 166.68953 106.3044 177.50667 106.81283 187.98346 L 106.9085 189.96798 C 107.13265 194.67164 107.23857 199.5195 107.34244 204.20745 C 107.50235 211.47854 107.66841 218.99702 108.27457 226.1827 C 108.36477 227.2508 108.56705 228.32986 108.76181 229.37337 C 109.02696 230.79 109.30031 232.2538 109.30031 233.71416 C 109.30031 236.59732 108.94222 239.44016 108.59575 242.18936 C 108.22057 245.16136 107.86728 247.968 107.93356 250.7951 C 108.0306 254.9261 108.68937 258.94433 109.32696 262.83 C 110.11626 267.64573 110.93357 272.6248 110.66706 277.80204 C 110.66363 277.85875 110.63288 277.90997 110.58506 277.9394 C 107.02946 280.0968 102.34287 281.1984 98.23033 282.0615 C 98.21804 282.06393 98.20641 282.06515 98.1948 282.06515 C 98.14354 282.06515 98.09366 282.04193 98.06086 282.00025 C 98.02054 281.94965 98.01302 281.88 98.04036 281.8212 C 99.29777 279.1485 98.7456 275.1706 98.21189 271.3232 C 97.95289 269.4692 97.7096 267.71704 97.6809 266.17945 Z" fill="#FFFFFF"/>
          </g>
          <g id="Graphic_768">
            <title>path21693</title>
            <path d="M 109.8114 390.55646 C 112.20663 389.10975 118.62009 386.3947 120.74607 389.87307 C 120.13513 393.5599 121.66041 395.10976 122.4545 397.3909 C 121.25176 398.71524 120.47272 398.0968 119.03762 397.3909 C 117.13443 399.1328 114.34559 399.98837 110.49477 399.7827 C 107.64442 398.023 107.65673 393.12867 109.8114 390.55646 Z M 110.15309 396.7075 C 111.6818 400.73394 115.30982 397.29247 117.67089 396.3658 C 116.667 391.80496 111.56425 394.21866 110.15309 396.7075 Z" fill="black"/>
          </g>
        </g>
      </g>
    </g>
  </g>
</svg>
