<?xml version="1.0" encoding="UTF-8" standalone="no"?>
<!DOCTYPE svg PUBLIC "-//W3C//DTD SVG 1.1//EN" "http://www.w3.org/Graphics/SVG/1.1/DTD/svg11.dtd">
<svg xmlns:xl="http://www.w3.org/1999/xlink" xmlns="http://www.w3.org/2000/svg" xmlns:dc="http://purl.org/dc/elements/1.1/" version="1.1" viewBox="33.75 60.75 243 243" width="243" height="243">
  <defs>
    <clipPath id="artboard_clip_path">
      <path d="M 33.75 60.75 L 276.75 60.75 L 276.75 303.75 L 33.75 303.75 Z"/>
    </clipPath>
  </defs>
  <g id="Delf_Ploy" stroke-opacity="1" stroke="none" stroke-dasharray="none" fill="none" fill-opacity="1">
    <title>Delf Ployé</title>
    <g id="Delf_Ploy_Art" clip-path="url(#artboard_clip_path)">
      <title>Art</title>
      <g id="Graphic_69">
        <path d="M 36 301.21264 C 69.7127 277.63984 110.7607 263.80753 155.04504 263.80764 C 199.50902 263.80753 240.71036 277.7523 274.5 301.5 C 250.71147 267.76834 236.74274 226.6377 236.74285 182.25 C 236.74274 137.86231 250.71147 96.73167 274.5 63 C 240.71036 86.74772 199.50903 100.69248 155.04504 100.69237 C 110.7607 100.69248 69.7127 86.86017 36 63.287365 L 36 63.58336 C 59.539004 97.20539 73.34735 138.11787 73.347235 182.25 C 73.34735 226.38214 59.539004 267.29462 36 300.91665 Z" fill="#FFFFFF"/>
        <path d="M 36 301.21264 C 69.7127 277.63984 110.7607 263.80753 155.04504 263.80764 C 199.50902 263.80753 240.71036 277.7523 274.5 301.5 C 250.71147 267.76834 236.74274 226.6377 236.74285 182.25 C 236.74274 137.86231 250.71147 96.73167 274.5 63 C 240.71036 86.74772 199.50903 100.69248 155.04504 100.69237 C 110.7607 100.69248 69.7127 86.86017 36 63.287365 L 36 63.58336 C 59.539004 97.20539 73.34735 138.11787 73.347235 182.25 C 73.34735 226.38214 59.539004 267.29462 36 300.91665 Z" stroke="black" stroke-linecap="round" stroke-linejoin="round" stroke-width="2"/>
      </g>
    </g>
  </g>
</svg>
