<?xml version="1.0" encoding="UTF-8" standalone="no"?>
<!DOCTYPE svg PUBLIC "-//W3C//DTD SVG 1.1//EN" "http://www.w3.org/Graphics/SVG/1.1/DTD/svg11.dtd">
<svg xmlns:xl="http://www.w3.org/1999/xlink" xmlns="http://www.w3.org/2000/svg" xmlns:dc="http://purl.org/dc/elements/1.1/" version="1.1" viewBox="45 63 135 351" width="135" height="351">
  <defs>
    <clipPath id="artboard_clip_path">
      <path d="M 45 63 L 180 63 L 180 414 L 45 414 Z"/>
    </clipPath>
  </defs>
  <g id="Eagle_s_Leg_Erased_(1)" stroke-opacity="1" stroke="none" stroke-dasharray="none" fill="none" fill-opacity="1">
    <title>Eagle&apos;s Leg Erased (1)</title>
    <g id="Eagle_s_Leg_Erased_(1)_Layer_2" clip-path="url(#artboard_clip_path)">
      <title>Layer 2</title>
      <g id="Group_3">
        <g id="Graphic_44">
          <path d="M 110.6464 71.51019 C 110.562 73.63904 110.72807 76.18899 111.04992 77.21666 C 111.56255 78.72727 111.33328 79.52144 109.79904 82.16185 C 108.79469 83.82049 107.97158 85.41519 107.97476 85.59748 C 107.98219 86.02283 106.02684 88.91372 102.88167 93.28414 C 101.51593 95.13144 100.87723 96.84449 100.61584 99.28033 C 100.04714 105.00378 99.20918 105.74779 96.90789 102.74885 C 95.04256 100.35013 89.18274 98.93286 78.71869 98.38613 C 70.74912 97.9782 65.59619 95.27217 65.53149 91.56559 C 65.52513 91.20101 64.38896 88.78956 63.00549 86.1393 C 61.622025 83.48904 60.482674 80.89529 60.47419 80.40919 C 60.44661 78.82933 59.30377 79.51788 57.167195 82.47272 C 54.61376 85.92108 53.46849 89.95269 53.094807 96.40211 C 52.86311 100.53934 53.0698 101.93372 54.415833 105.92184 C 57.17185 114.07931 58.34969 115.39596 65.46084 118.85797 C 68.89436 120.56072 72.44304 121.89676 73.41526 121.8798 C 74.99511 121.85222 75.85004 122.08042 80.38048 123.94637 C 81.41983 124.29292 83.43775 124.98708 84.9632 125.32515 C 89.90839 126.57603 94.14001 132.21569 91.87236 134.62577 C 90.97787 135.6139 88.90812 142.39683 88.93994 144.21974 C 88.98554 146.83257 86.97973 153.79674 85.33244 156.92538 C 84.50827 158.45931 83.11995 162.49516 82.32865 165.91277 L 80.73546 172.14035 L 82.0677 175.33855 C 82.76686 177.08902 83.59921 179.50577 83.86242 180.65604 C 84.06486 181.80737 84.7022 183.49814 85.14345 184.40217 C 86.14855 186.26887 86.38599 189.4254 85.83775 192.83876 C 85.50605 194.7288 85.69788 195.27248 87.05802 196.58594 C 88.78909 198.25762 89.2558 200.61998 87.79748 200.64543 C 87.31137 200.65392 86.63342 200.11871 86.25718 199.45668 C 85.81804 198.67418 84.95993 198.26368 83.86618 198.28277 C 81.92175 198.31671 81.0944 199.66836 81.97266 201.23336 C 82.28602 201.77493 82.30406 202.80791 82.01615 203.72467 C 81.37745 205.43772 81.81128 205.9164 85.47406 206.82498 C 88.34373 207.56505 94.22931 206.97606 96.57788 205.71943 C 97.54161 205.21635 99.6994 203.4768 101.37426 201.928 C 103.46811 200.0072 104.55019 199.31972 104.74202 199.8634 C 104.93174 200.28557 105.231 203.5018 105.47481 207.0229 C 105.71862 210.544 106.08395 214.063 106.34186 214.90944 C 107.24346 217.81124 107.68803 229.35207 107.42147 241.9386 C 107.17538 252.21507 107.03339 254.52727 106.44272 255.5101 C 106.2071 255.93968 106.35832 257.63894 106.81336 259.3329 C 107.39736 261.45007 107.47933 262.66428 107.06671 263.40087 C 106.71274 264.01487 106.59515 267.72463 106.79728 272.34054 C 107.11427 280.05433 106.94789 280.96896 105.0127 285.01436 C 104.36975 286.48435 104.32278 287.27534 104.96329 289.1484 C 105.4791 290.8413 105.50137 292.11733 105.10042 293.5223 C 104.75599 294.6832 104.73978 297.2363 105.09132 299.96537 C 105.51742 303.4833 105.47787 304.69963 104.8275 305.74427 C 104.23365 306.5448 103.96484 308.5553 104.01575 311.47196 C 104.1059 316.63686 103.46614 318.28914 101.40018 318.3252 C 100.3672 318.34323 99.88745 318.7163 99.7829 319.69064 C 99.68152 320.84727 99.20071 321.15957 97.31917 321.31398 C 95.37791 321.5302 95.13804 321.71674 95.69658 322.3756 C 96.75183 323.6336 95.91599 324.49913 93.60698 324.53944 C 92.51323 324.55853 90.27453 325.14465 88.64664 325.90245 C 86.47506 326.8521 85.14251 327.11847 83.3143 326.84647 C 81.97326 326.62675 79.96276 326.35793 78.86583 326.19473 C 77.64738 326.03366 76.37559 326.299 75.413975 326.9236 C 74.633595 327.48425 72.75735 327.94247 71.23826 327.969 C 69.71917 327.9955 68.32691 328.3237 68.09022 328.69254 C 67.26499 330.1657 62.79394 331.70253 60.47856 331.37825 C 57.73678 331.00063 54.89892 332.08346 52.56945 334.43384 C 51.25492 335.7332 50.72926 336.95803 50.41241 339.69875 C 50.203296 341.64743 49.348056 344.8838 48.471604 346.9049 C 47.655915 348.92496 46.97448 351.67205 46.997815 353.00884 C 47.04236 355.5609 49.326367 361.0522 49.98204 360.3114 C 50.22085 360.0641 50.80091 358.47363 51.318083 356.7627 C 52.06028 354.01456 52.536844 353.4592 55.365154 351.8295 L 58.5538 349.95038 L 60.82963 351.491 C 62.120514 352.3194 63.40928 353.0263 63.713094 353.021 C 64.80684 353.0019 71.06685 349.48883 73.16388 347.75033 C 76.275855 344.9608 81.03693 342.62878 86.72219 341.01 C 93.25496 339.19406 94.90512 339.7123 92.4679 342.85472 C 91.33991 344.39396 86.94766 346.9627 83.62475 348.11477 C 81.63016 348.7574 77.6781 352.1694 70.86773 358.9743 C 64.77485 365.0981 64.24283 365.9583 64.31495 370.09024 C 64.34889 372.03468 64.07583 373.8021 63.775194 373.9897 C 63.413795 374.17837 63.22271 377.16003 63.28529 380.74508 C 63.4009 387.3683 64.117025 390.091 66.27769 391.9983 C 66.955635 392.5335 68.06847 393.60817 68.87006 394.26278 C 69.67272 394.97815 70.410364 395.45153 70.59053 395.3268 C 70.70888 395.1424 70.905265 392.46457 70.97164 389.30275 C 71.09878 386.13986 71.46579 382.79044 71.7537 381.8737 C 72.333755 380.28322 72.57575 380.2182 76.34309 380.15246 C 78.59134 380.1132 81.07628 379.70515 81.97925 379.20313 C 84.32782 377.9465 86.64881 375.11 87.09779 372.9748 C 87.99895 368.88667 91.35322 362.56757 93.56966 360.7054 C 94.82766 359.65016 96.56541 358.22184 97.52384 357.41495 C 101.1198 354.49542 101.58439 356.73625 98.64379 362.37953 C 97.52534 364.46564 95.88336 367.8981 95.01009 370.1015 C 94.07605 372.30595 92.42877 375.4346 91.3029 377.09536 C 89.88381 379.36907 89.41786 380.53206 89.74183 381.68126 C 90.26294 383.67798 93.20155 388.3677 93.86995 388.356 C 94.72064 388.34117 96.30019 391.77817 96.33413 393.7226 C 96.38398 396.5785 98.95589 401.15304 102.28909 404.0732 C 107.96949 409.1405 114.21086 411.5236 109.08158 406.6898 C 105.86672 403.58526 104.78495 400.80816 105.00604 396.0633 L 105.12999 392.71813 L 108.47093 392.59903 C 112.29797 392.47144 116.41186 391.36634 118.39479 390.0553 C 119.65597 389.18234 119.71143 388.87746 119.17866 386.21235 C 118.90802 384.63674 118.17599 381.0026 117.63897 378.09443 C 117.16271 375.1852 116.38158 372.2205 115.94351 371.4988 C 114.75082 369.33145 115.42089 362.45138 116.97847 361.14776 C 118.71622 359.71944 119.34644 357.5203 118.93307 354.73153 C 118.72426 353.21562 118.99414 351.2659 119.69042 349.3695 C 120.73325 346.43375 120.85372 346.37086 124.90154 344.963 C 128.94937 343.55514 129.13166 343.55196 132.49168 344.5266 C 138.35574 346.18693 140.42489 346.33316 141.555 344.91544 C 142.68723 343.61926 145.29582 343.3306 147.32011 344.38934 C 149.0374 345.2711 155.90156 345.0297 158.1936 344.0172 C 159.58162 343.44593 160.41216 342.27657 161.69805 339.3366 C 162.86559 336.581 163.63642 335.4735 164.48711 335.45863 C 166.37078 335.42575 172.12604 337.81736 173.855 339.3675 C 174.71948 340.1426 175.8846 340.73008 176.43146 340.72053 C 177.76826 340.6972 178.40696 338.98415 177.4796 338.0886 C 177.10865 337.7304 176.78999 336.885 176.77726 336.15584 C 176.6921 334.75934 174.51871 332.12286 172.55625 331.12382 C 171.82072 330.77197 170.03524 329.46593 168.55464 328.21535 C 165.84074 325.953 163.81752 324.95503 160.64614 324.34178 C 159.3648 324.06023 158.56003 323.22333 157.55175 321.17434 C 156.73425 319.60828 155.11834 317.5699 153.8861 316.6189 L 151.66891 314.9557 L 149.32035 316.21233 C 148.05704 316.96376 146.79055 317.5329 146.5475 317.53715 C 146.24368 317.54246 144.7405 318.48042 143.1808 319.6625 C 136.22132 324.88968 127.40924 328.4473 125.67922 326.83637 C 124.87444 325.99947 125.46966 321.79512 127.57579 313.61356 C 128.03008 311.78217 128.63802 308.30698 128.84077 305.99372 C 129.04246 303.6197 129.65995 300.6914 130.12378 299.40686 C 131.11434 296.9583 132.37932 289.33845 132.48419 284.89953 C 132.51843 283.37938 132.82892 280.27408 133.15214 277.89794 C 133.9639 272.17025 134.22635 269.79517 134.77701 263.03875 C 135.67348 251.71764 136.25809 246.90565 136.83603 245.19366 C 137.18364 244.21508 137.45882 242.56917 137.44079 241.53618 C 137.4217 240.44244 137.80992 238.3083 138.26845 236.71995 C 138.66622 235.13268 139.18582 230.0787 139.2875 225.45749 C 139.44995 220.8352 139.90561 215.6 140.36096 213.82937 C 141.2706 210.22735 141.40578 200.56065 140.5854 195.3477 C 140.16885 192.37666 140.219 191.76796 141.0644 191.4493 C 141.60702 191.1967 142.58454 191.48354 143.20172 192.0198 C 144.43608 193.09234 149.96981 193.23888 151.71498 192.2359 C 152.31732 191.92148 153.14891 190.81289 153.55623 189.77248 C 154.31327 187.87502 154.25039 187.75456 151.59725 185.49115 C 150.11665 184.24057 148.14464 182.69466 147.22365 182.1637 C 146.24082 181.57303 145.55757 180.734 145.66956 180.18501 C 145.72077 179.63708 145.22724 179.22022 144.37443 179.11354 C 143.4001 179.00899 142.59214 177.9898 141.3952 175.5794 C 139.82202 172.50698 139.68458 171.59765 139.33578 162.06095 C 139.17425 156.28947 138.72164 151.25246 138.34539 150.59043 C 137.4053 148.96572 140.03678 143.02393 142.08683 142.07641 C 142.87039 141.69804 143.64653 140.89433 143.81821 140.28351 C 144.05066 139.67163 145.06773 138.74215 146.15193 138.17619 C 147.17643 137.67205 149.02934 135.87703 150.21703 134.27596 C 151.34396 132.67596 153.3781 130.81699 154.7043 130.18602 C 156.02943 129.49429 158.48573 127.4456 160.15741 125.71453 C 162.72252 122.93456 163.42835 121.58503 164.98305 116.63455 C 166.77127 111.13295 168.25036 105.33284 168.79966 101.98023 C 168.9671 101.12636 169.3638 99.47832 169.64747 98.31851 C 170.10495 96.66941 170.0251 95.57673 169.25987 93.52349 C 168.24204 90.92763 168.24098 90.86687 170.22633 86.21278 C 172.09758 81.98615 172.45474 81.55444 174.27234 81.21881 C 176.21147 80.88105 176.27118 80.81922 176.80245 76.43364 C 177.12566 74.0575 177.20689 71.74636 176.9564 71.32526 C 176.6441 70.84446 174.53117 71.671504 169.83404 74.18478 C 166.16034 76.13314 162.78516 77.77239 162.29905 77.78088 C 161.81294 77.78936 160.56024 79.14843 159.4962 80.8689 C 158.43109 82.52861 157.36174 83.94526 157.05792 83.95057 C 156.7541 83.95587 156.21996 84.69458 155.87129 85.6124 C 155.46291 86.59204 154.81573 87.81898 154.33916 88.37433 C 153.8626 88.92969 153.40619 90.63955 153.36982 92.03818 C 153.27375 93.49862 152.6446 95.75854 151.9377 97.0473 C 151.16899 98.27636 150.41194 100.17382 150.24768 101.20998 C 149.96932 102.67361 149.19318 103.47733 146.60475 104.9205 C 144.79987 105.98529 142.32766 107.12252 141.17845 107.44649 C 140.0303 107.83123 137.68598 109.33092 135.9493 110.82 C 134.27337 112.30802 132.65397 113.55193 132.35015 113.55723 C 132.1071 113.56148 130.60423 111.03486 129.0321 108.0232 C 126.57642 103.14272 126.19062 101.93381 126.13017 98.47029 C 126.08138 95.67516 126.4696 93.54102 127.4591 91.03168 C 128.79832 87.66529 128.85696 87.5427 127.81793 83.73157 C 126.19383 77.74249 124.43412 74.4302 121.53793 72.17103 C 118.57885 69.7914 114.10599 67.7421 112.09974 67.71634 C 110.94523 67.73649 110.7693 68.10425 110.6464 71.51019 Z" fill="black"/>
        </g>
        <g id="Graphic_43">
          <path d="M 119.95353 75.42014 C 119.9652 76.088535 119.7338 76.76118 119.43423 77.00953 C 119.1336 77.19713 118.89448 80.90901 118.9719 85.34475 C 119.01826 91.48293 118.76217 94.22259 117.90375 97.27668 C 116.69984 101.43087 116.47981 106.2365 117.40187 106.82822 C 117.76964 107.00415 118.59456 108.99556 119.36403 111.29184 C 120.77295 115.40043 120.86871 117.40457 119.82239 123.6226 C 119.38931 126.66926 120.23894 126.59365 122.61433 123.39152 C 124.398 121.11145 124.5121 120.68398 124.0966 117.7737 C 123.88356 116.01474 122.97347 112.62683 122.08036 110.21113 C 119.97122 104.29131 119.68848 95.05737 121.44805 87.91515 C 122.24147 84.61907 122.39512 82.97528 121.96235 82.557355 C 120.97317 81.60211 121.12258 79.71526 122.0948 79.69829 C 122.5809 79.6898 123.19384 79.98301 123.44326 80.34335 C 124.3194 81.78683 124.20787 89.32575 123.22867 95.9073 L 122.13219 102.73404 L 123.5146 105.32353 C 124.26921 106.76913 125.52585 109.1177 126.40306 110.62194 C 127.72045 112.96944 127.85895 113.93954 127.7456 117.89235 C 127.66756 120.38578 127.53088 123.00179 127.41996 123.61155 C 126.91657 126.1124 128.72145 125.0476 130.18644 121.92214 C 131.00531 120.08439 132.60775 117.86826 133.62482 116.93878 C 138.89564 112.47047 139.49692 112.09528 148.12034 108.17627 C 150.04887 107.23088 152.03391 106.04137 152.50942 105.42525 C 154.35066 102.96183 156.09614 98.49427 157.05063 93.97974 C 158.16727 88.30751 159.70257 85.72787 161.8293 85.69074 C 163.1661 85.66741 163.29186 85.90834 163.33747 88.52118 C 163.36505 90.10103 163.0291 91.74801 162.55254 92.30337 C 162.07598 92.85872 161.2656 95.18259 160.82085 97.56085 C 159.13264 105.30964 157.26033 109.4755 152.97763 114.8383 C 150.71635 117.61296 147.61391 120.94934 145.99557 122.25402 C 141.37936 125.92073 136.96452 130.67801 137.88128 130.96592 C 138.30874 131.08002 139.63175 130.26676 140.82581 129.03028 C 143.81414 126.12136 145.6819 125.17703 146.60926 126.07257 C 147.10386 126.5502 146.75094 127.22496 145.19442 128.58933 C 140.52593 132.74322 138.61862 134.90389 136.97027 137.97176 C 136.02775 139.69011 134.66519 141.7197 133.94663 142.34007 C 132.45194 143.76414 132.39617 147.5336 133.74023 161.85471 C 134.19178 166.83096 134.5271 172.11314 134.4918 173.57253 C 134.46285 175.3965 134.85183 176.7877 135.72373 177.98812 C 136.46987 178.9476 137.23085 180.75779 137.37359 181.97094 L 137.77847 184.27359 L 136.47592 182.77677 C 135.73191 181.9388 134.85046 180.19151 134.40178 178.86214 C 133.9531 177.53277 133.44578 176.32598 133.26031 176.14687 C 133.07484 175.96776 132.39265 175.1895 131.83093 174.34836 C 130.52308 172.54773 130.53899 173.45918 131.78259 178.54317 C 132.36658 180.66035 132.70328 182.53871 132.52311 182.66342 C 132.10625 183.15695 127.69658 177.76354 126.62117 175.35103 C 123.39814 168.29579 122.80354 165.57097 124.31308 164.99758 C 126.8503 164.10235 130.70099 161.84698 130.99208 161.11251 C 131.51668 159.82693 130.66068 159.53796 129.03492 160.4173 C 126.08508 162.04911 126.42314 160.52366 129.76757 157.12227 C 130.96163 155.88579 131.01815 155.64167 130.21655 154.98706 C 129.41496 154.33245 129.34783 153.96893 130.11337 152.55758 C 130.5228 151.6387 130.686 150.54178 130.43552 150.12067 C 129.87274 149.21877 129.82669 139.616 130.41978 135.29013 C 130.85392 132.30423 130.1728 131.58673 128.74629 133.4351 C 126.66623 136.14581 124.38479 137.76597 121.48299 138.66757 C 119.54916 139.30914 118.34662 140.05952 118.3551 140.54563 C 118.38056 142.00395 121.11492 141.95622 123.94535 140.44805 C 126.77684 139.00064 127.813 139.1649 126.80972 140.8843 C 125.98343 142.29672 117.60942 146.57607 115.60528 146.67183 C 113.47856 146.70895 113.43582 147.743 115.45693 148.61945 C 117.35545 149.43726 119.9545 148.60172 124.34356 145.8507 C 127.83073 143.66246 128.75703 144.49724 126.07358 147.46162 C 123.20784 150.42918 117.48303 153.2643 112.99395 153.76813 C 110.87147 154.0483 109.17646 154.44259 109.1807 154.68564 C 109.18494 154.9287 110.40764 155.33283 111.93097 155.54937 C 115.03733 155.92062 119.69491 154.62368 121.6683 152.76577 C 122.26638 152.2083 123.82926 151.2085 125.09575 150.63935 C 127.26521 149.5682 127.32597 149.56713 127.34507 150.66087 C 127.36628 151.87615 123.96745 155.64318 122.81295 155.66333 C 122.44837 155.6697 121.78633 156.04594 121.42917 156.47765 C 121.07308 156.97012 119.68718 157.66292 118.29705 158.11266 C 116.54445 158.69029 115.9453 159.187 116.07955 159.91404 C 116.27457 160.64002 116.82569 160.87353 117.97913 160.79262 C 119.4961 160.64457 119.55898 160.76504 118.9118 161.99198 C 118.49918 162.72856 118.27098 163.5835 118.33704 163.88625 C 118.46281 164.12719 118.11414 165.045 117.58106 165.84448 C 116.51701 167.56495 117.0063 167.73875 118.62146 166.25179 C 119.57883 165.38413 119.88159 165.31806 120.31966 166.0398 C 121.00821 167.18264 122.0039 178.95698 121.56021 181.396 C 121.22639 183.16452 118.39883 188.31957 118.02577 187.83982 C 117.90318 187.78118 117.99183 185.89539 118.1967 183.70366 C 118.51673 181.14522 118.42521 179.38414 117.98502 178.54088 C 117.35935 177.5185 117.18236 177.8255 116.32606 181.00112 C 114.55906 187.71799 111.71772 192.0831 109.40022 191.6373 C 108.42482 191.47198 108.29163 190.8057 108.35831 184.1793 C 108.40983 180.16678 108.69805 175.78544 109.04036 174.50304 C 109.71861 171.57367 108.93248 164.84058 107.90586 165.2232 C 107.5434 165.35108 107.08699 167.06095 106.9397 169.06932 C 106.73059 171.018 106.2869 173.45703 105.93823 174.37484 C 105.59062 175.35343 105.34832 178.88301 105.40772 182.28577 C 105.54242 190.00274 104.69142 193.48218 101.95463 196.87296 C 99.87245 199.46215 95.60703 202.33258 93.84489 202.36334 C 92.75114 202.38243 92.72251 200.74181 93.82186 197.56196 C 94.74529 194.74986 94.4683 192.80967 92.07262 184.40278 C 89.61829 176.11848 88.94719 158.56418 90.90784 155.9771 C 91.14453 155.60828 92.0775 153.34306 92.94865 151.01814 C 93.81874 148.63245 94.98416 145.75535 95.45012 144.59236 C 96.44386 142.32608 96.48553 141.23127 95.76653 134.8617 C 95.11253 128.73413 94.86099 128.25227 91.27201 124.6072 C 88.61145 121.91845 86.82915 120.7947 82.54388 119.04604 C 74.1567 115.6063 73.66211 115.12868 76.85924 113.73566 L 78.72806 112.8521 L 73.3342 110.27183 C 70.3921 108.86442 67.13769 106.9762 66.1485 106.02095 C 64.110425 104.17228 63.31732 104.00378 63.34065 105.34058 C 63.363985 106.67738 65.2325 109.25839 66.14395 109.24248 C 66.5693 109.23506 67.24406 109.58797 67.617126 110.06772 C 68.050956 110.5464 69.58277 111.24905 71.04852 111.64894 C 73.0025 112.16187 73.80303 112.75572 73.81576 113.48488 C 73.84228 115.00397 71.16656 114.92911 68.40356 113.33622 C 65.27174 111.50664 61.61987 107.74112 60.543406 105.26784 C 59.46906 102.91609 59.03403 91.92213 59.92958 90.99477 C 60.4669 90.43835 61.463514 91.81894 63.78813 96.15468 C 64.4788 97.41904 66.01592 98.42551 69.32367 99.88732 C 73.48847 101.69887 74.58646 101.92283 81.39728 102.10786 L 88.93832 102.34092 L 93.62423 106.14918 C 98.37091 109.95638 99.85999 111.69307 99.95575 113.6972 C 99.98439 115.33782 105.8842 122.52869 107.16024 122.50641 C 107.70711 122.49687 106.64898 117.59199 105.76754 115.8447 C 104.69743 113.736 103.9904 104.57025 104.71775 100.97142 C 105.44404 97.31181 106.9101 94.24712 110.46788 89.14011 C 114.73573 82.92662 115.08759 82.1911 115.8213 78.95684 C 116.15618 77.2491 116.73306 75.47635 117.09022 75.04464 C 117.98152 73.87422 119.9302 74.08334 119.95353 75.42014 Z" fill="white"/>
        </g>
        <g id="Graphic_42">
          <path d="M 165.06174 82.83835 C 165.07022 83.32446 164.83672 83.87557 164.53714 84.12393 C 163.8154 84.562 163.06609 83.42022 163.5384 82.62181 C 164.06937 81.70081 165.04477 81.86613 165.06174 82.83835 Z" fill="white"/>
        </g>
        <g id="Graphic_41">
          <path d="M 157.12758 115.79915 C 157.14455 116.77137 156.01868 118.43214 153.80968 120.71963 C 150.58466 123.99737 148.77978 125.06217 148.7522 123.48232 C 148.74372 122.99621 155.95929 115.02938 156.98166 114.40371 C 157.04243 114.40265 157.1138 115.00923 157.12758 115.79915 Z" fill="white"/>
        </g>
        <g id="Graphic_40">
          <path d="M 128.64307 155.37922 C 128.60988 156.96013 123.14191 160.58094 120.8926 160.55942 C 119.25092 160.52729 125.5367 155.00797 127.17732 154.97933 C 127.96724 154.96554 128.63882 155.13616 128.64307 155.37922 Z" fill="white"/>
        </g>
        <g id="Graphic_39">
          <path d="M 127.30412 179.65463 C 128.05873 181.10023 128.06298 181.34329 126.74421 182.3996 C 124.88705 183.95157 123.90847 183.60396 124.11334 181.41223 C 124.41323 177.69929 125.7373 176.9468 127.30412 179.65463 Z" fill="white"/>
        </g>
        <g id="Graphic_38">
          <path d="M 130.17454 183.92006 C 130.49427 184.8262 124.74158 189.54606 122.80563 190.0661 C 119.35696 190.97725 120.70255 187.97544 124.55853 186.0239 C 126.00519 185.33004 127.56701 184.26948 127.98387 183.77595 C 128.75683 182.78994 129.8527 182.89238 130.17454 183.92006 Z" fill="white"/>
        </g>
        <g id="Graphic_37">
          <path d="M 139.48515 184.5477 C 139.49046 184.85152 139.2527 185.15958 138.88813 185.16595 C 138.5843 185.17125 138.27519 184.87274 138.26988 184.56892 C 138.26352 184.20434 138.5631 183.95598 138.86691 183.95068 C 139.2315 183.94431 139.47879 184.18313 139.48515 184.5477 Z" fill="white"/>
        </g>
        <g id="Graphic_36">
          <path d="M 132.84995 187.4595 C 132.87329 188.7963 129.94042 191.40034 128.42133 191.42685 C 127.38835 191.44488 128.25632 188.93767 129.69555 187.81847 C 131.67423 186.26438 132.82662 186.1227 132.84995 187.4595 Z" fill="white"/>
        </g>
        <g id="Graphic_35">
          <path d="M 134.1469 192.11708 C 134.17341 193.63617 133.16376 194.991 131.94849 195.0122 C 130.85475 195.0313 130.93915 192.90246 132.0735 191.7278 C 133.38697 190.36766 134.11826 190.47646 134.1469 192.11708 Z" fill="white"/>
        </g>
        <g id="Graphic_34">
          <path d="M 120.99726 194.4132 C 121.67733 195.06993 118.96949 196.63675 115.76175 197.42212 C 112.07002 198.3375 111.00491 199.99722 114.57935 199.327 C 115.91191 199.06062 118.08879 198.4148 119.53757 197.84247 C 121.83174 196.95148 122.25708 196.94405 123.0608 197.7202 C 124.60534 199.152 123.47417 200.50895 119.66621 201.73028 C 117.73239 202.37185 116.1045 203.12965 116.1098 203.43347 C 116.1151 203.7373 117.69602 203.77048 119.7588 203.55212 C 122.91426 203.25392 123.34066 203.30726 122.74576 204.04703 C 122.38966 204.5395 121.72763 204.91575 121.36304 204.9221 C 120.20854 204.94226 117.3781 206.45044 117.38871 207.05807 C 117.3972 207.54418 120.3096 207.25022 122.6656 206.41893 C 123.63251 206.09814 124.1815 206.21012 124.43728 206.93504 C 125.00855 208.32306 123.75479 209.62136 121.03316 210.39825 C 118.25182 211.23697 118.45214 212.26677 121.30803 212.21692 C 124.65002 212.15858 127.183 211.0203 129.93358 208.41943 C 132.68416 205.81858 133.89412 205.49355 134.29052 207.3101 C 134.95331 210.45919 125.58875 217.1871 118.98249 218.27493 C 114.80041 218.95575 116.21494 219.90358 121.25832 219.81554 L 125.81558 219.736 L 125.70223 223.6888 C 125.48645 228.7375 124.47574 230.03155 119.5698 231.02892 C 117.6328 231.4882 116.00172 232.0637 116.00597 232.30676 C 116.02188 233.21822 119.68784 234.3091 121.68774 233.97027 C 124.47437 233.43537 125.1502 233.84905 125.1905 236.15806 C 125.24884 239.50006 124.24025 240.91565 120.26486 242.99085 C 115.98989 245.3144 114.9813 246.73 118.1304 246.0672 C 119.28173 245.86477 121.2198 245.46625 122.43188 245.26274 L 124.73348 244.7971 L 124.42086 247.78087 C 123.9055 253.0779 123.90656 253.13867 120.0474 254.90793 C 117.27348 256.172 116.43446 256.85524 116.45249 257.88822 C 116.47689 259.28578 117.5088 259.207 120.8211 257.44727 C 123.29014 256.12775 124.45737 256.83676 124.01581 259.39732 C 122.63566 267.38386 122.57808 267.5672 119.32761 269.38663 C 114.6923 271.9596 114.63154 271.96066 115.49177 272.4927 C 115.92136 272.7283 117.49803 272.51845 119.0097 272.0666 C 120.58106 271.5529 122.03727 271.40592 122.34639 271.70443 C 122.77916 272.12235 122.36835 276.44505 121.41916 281.2634 C 121.13974 282.66627 118.853 283.9826 116.60475 284.02185 C 115.81482 284.03564 114.96837 284.29354 114.79245 284.6613 C 114.37877 285.33713 117.18874 286.13903 118.39553 285.6317 C 119.90401 284.99756 121.40264 287.2811 120.95577 289.53785 C 120.73181 290.63584 120.26798 291.92036 119.97052 292.29024 C 119.19757 293.27625 115.94497 294.97414 114.85123 294.99323 C 114.42588 295.00065 114.06872 295.43236 114.07721 295.91847 C 114.0963 297.0122 114.64423 297.06343 116.75611 296.17562 C 119.35197 295.1578 120.33798 295.93075 120.02112 298.67148 C 119.86217 300.01146 119.34181 301.5401 118.80555 302.15727 C 117.5539 303.5771 111.87713 305.682 111.13524 304.96557 C 110.7643 304.60735 110.79218 302.72262 111.10691 299.86037 C 112.55343 288.712 113.06653 272.83893 112.06568 271.21528 C 111.87809 270.91465 111.97098 269.2719 112.3048 267.5034 C 112.9138 264.08898 113.27886 246.69893 113.02537 232.17645 C 112.85461 222.39351 111.80209 214.32787 110.35786 211.67867 C 109.91661 210.77464 109.07365 207.75025 108.47905 205.02544 C 107.88339 202.23986 107.28455 199.272 107.08635 198.36372 C 106.75601 196.84993 106.99376 196.54187 109.34551 195.46753 C 111.93819 194.26741 120.0699 193.51765 120.99726 194.4132 Z" fill="white"/>
        </g>
        <g id="Graphic_33">
          <path d="M 128.5627 196.04382 C 129.00714 197.13014 127.21499 198.9241 126.29399 198.39314 C 125.49558 197.92082 125.58105 195.85274 126.4872 195.53301 C 127.75368 194.96387 128.12039 195.07903 128.5627 196.04382 Z" fill="white"/>
        </g>
        <g id="Graphic_32">
          <path d="M 135.74235 196.46554 C 135.76674 197.8631 134.14416 198.92472 132.73705 198.40224 C 131.6977 198.0557 131.75635 197.9331 133.00799 196.51327 C 134.55814 194.78431 135.71265 194.76416 135.74235 196.46554 Z" fill="white"/>
        </g>
        <g id="Graphic_31">
          <path d="M 129.80918 204.77468 C 130.37196 205.6766 129.00091 207.22007 127.66411 207.2434 C 126.38808 207.26568 126.12381 206.05465 127.19847 204.94182 C 128.09401 204.01445 129.30928 203.99324 129.80918 204.77468 Z" fill="white"/>
        </g>
        <g id="Graphic_30">
          <path d="M 131.85482 217.5032 C 132.47942 218.46482 131.54614 224.19462 130.65166 225.18275 C 130.17403 225.67734 129.26895 226.05783 128.60055 226.0695 C 127.62833 226.08647 127.43861 225.6643 127.38558 222.62613 C 127.34528 220.31712 127.62364 218.8535 128.33902 218.05083 C 129.35184 216.8783 131.23021 216.5416 131.85482 217.5032 Z" fill="white"/>
        </g>
        <g id="Graphic_29">
          <path d="M 131.97511 231.35942 C 131.65402 233.8571 130.31055 236.98042 129.58139 236.99315 C 128.5484 237.01118 127.60938 235.44724 127.57756 233.62433 C 127.5521 232.166 128.0223 231.24607 129.39971 230.06717 C 131.67479 228.08243 132.34955 228.43534 131.97511 231.35942 Z" fill="white"/>
        </g>
        <g id="Graphic_28">
          <path d="M 131.01046 242.25625 C 131.89933 244.4289 129.08556 250.37386 127.14113 250.4078 C 126.04738 250.4269 125.92162 250.18596 126.30135 247.5657 C 126.88914 242.936 129.92975 239.53992 131.01046 242.25625 Z" fill="white"/>
        </g>
        <g id="Graphic_27">
          <path d="M 128.04454 256.8957 C 128.27774 259.80918 127.19218 263.77896 126.21996 263.79593 C 125.36927 263.81078 125.44126 257.4882 126.2771 256.62265 C 127.29205 255.57164 127.96257 255.6815 128.04454 256.8957 Z" fill="white"/>
        </g>
        <g id="Graphic_26">
          <path d="M 127.16823 269.37133 C 127.29718 269.79456 127.1958 270.9512 126.84925 271.99053 C 126.5624 272.96805 126.16888 274.79838 125.94598 275.95713 C 125.50336 278.45692 123.75076 279.03455 123.89062 276.60083 C 124.33674 270.81874 124.84649 268.68247 126.001 268.66232 C 126.4871 268.65384 126.97957 269.00993 127.16823 269.37133 Z" fill="white"/>
        </g>
        <g id="Graphic_25">
          <path d="M 124.85874 286.7953 C 124.8948 288.86128 124.0685 290.2737 123.1475 289.74272 C 122.28727 289.2107 122.25333 287.26627 123.13933 285.79203 C 124.02426 284.25703 124.82267 284.72935 124.85874 286.7953 Z" fill="white"/>
        </g>
        <g id="Graphic_24">
          <path d="M 123.80362 295.99182 C 123.8471 298.48313 123.01763 299.71325 121.9048 298.6386 C 121.1629 297.92216 122.30393 293.6475 123.21538 293.6316 C 123.5192 293.6263 123.78135 294.7158 123.80362 295.99182 Z" fill="white"/>
        </g>
        <g id="Graphic_23">
          <path d="M 122.6291 305.31198 C 122.4168 307.07837 120.36039 307.6613 120.33069 305.95992 C 120.30736 304.62312 120.78286 304.007 121.93737 303.98685 C 122.48424 303.9773 122.73578 304.45917 122.6291 305.31198 Z" fill="white"/>
        </g>
        <g id="Graphic_22">
          <path d="M 119.37014 306.6453 C 119.37969 307.19216 119.34862 308.8946 119.31331 310.354 C 119.23421 312.78665 119.05722 313.09365 117.00823 314.10193 C 115.7428 314.73184 113.56592 315.37765 112.05002 315.58646 L 109.38172 315.93695 L 109.77631 314.16738 C 110.00239 313.19092 110.3341 311.3009 110.55488 310.0206 C 110.99644 307.46006 111.47512 307.02623 115.16579 306.05007 C 118.37247 305.20393 119.40863 305.3682 119.37014 306.6453 Z" fill="white"/>
        </g>
        <g id="Graphic_21">
          <path d="M 121.7496 317.6053 C 121.77612 319.1244 120.4669 320.7276 119.78577 320.0101 C 119.10676 319.41412 119.24875 317.10192 120.02489 316.2982 C 120.92043 315.37085 121.7199 315.90393 121.7496 317.6053 Z" fill="white"/>
        </g>
        <g id="Graphic_20">
          <path d="M 117.3075 317.31815 C 117.86074 317.6732 118.00135 318.7648 117.73678 321.01837 C 117.37295 324.55008 116.41452 325.35697 112.40413 325.42697 C 109.7913 325.4726 109.74644 326.3851 112.2526 327.1923 C 115.06469 328.11573 116.3386 327.97193 118.62216 326.4733 L 120.60615 325.22303 L 121.55472 327.33384 C 122.06204 328.54063 122.9297 329.498 123.41581 329.4895 C 124.44879 329.47148 124.76852 330.37763 125.39706 335.04688 C 125.81785 338.261 125.7624 338.56586 124.72941 338.5839 C 123.45338 338.60616 121.22665 336.3961 120.09154 334.0454 C 119.39769 332.59875 118.35516 332.0699 118.37531 333.2244 C 118.38168 333.589 118.63746 334.3139 118.95188 334.91625 C 119.26524 335.4578 119.89515 336.72325 120.33853 337.7488 C 120.78084 338.7136 121.28498 339.7381 121.41181 340.0398 C 121.53758 340.2807 120.15487 341.1558 118.34681 342.0383 C 115.33197 343.42814 114.91405 343.8609 113.0972 347.7219 C 111.92435 350.17365 110.56073 352.14248 109.77717 352.52085 C 108.20898 353.21682 108.04897 354.49604 109.35364 356.1144 C 110.65937 357.7935 110.60254 361.5022 109.17603 363.35055 C 108.52248 364.2129 107.07901 365.08905 105.86692 365.29255 C 103.68686 365.7561 103.46395 366.91483 105.52991 366.87877 C 106.13755 366.86816 107.36237 367.3938 108.28655 368.10707 C 109.51879 369.0581 109.89716 369.84164 109.93004 371.7253 C 109.98307 374.7635 109.07798 375.144 105.10395 373.81536 C 102.71933 373.00603 101.86758 372.9601 101.33025 373.51654 C 100.375 374.50572 101.17554 375.09957 104.71679 376.01027 C 106.30407 376.40804 108.51171 377.52436 109.56166 378.47855 C 111.22879 379.969 111.41957 380.45193 111.15499 382.7055 C 110.78374 385.81185 109.47452 387.41503 108.11863 386.34462 C 107.6251 385.92776 107.12308 385.0248 106.98988 384.3585 C 106.84927 383.2669 106.05298 382.9161 102.63855 382.3071 C 98.30949 381.5317 96.736 381.92387 96.76888 383.80754 C 96.79221 385.14434 95.58225 385.46937 94.28606 384.33714 C 93.60705 383.74117 93.09973 382.5344 93.07958 381.37987 C 93.03079 378.58475 94.59716 374.30267 95.97775 373.30605 C 96.63767 372.8083 97.17075 372.0088 97.16121 371.46193 C 97.15166 370.91506 97.90977 369.07837 98.79152 367.3611 C 99.73404 365.64273 101.07645 362.45863 101.8282 360.25735 C 102.57994 358.05608 103.39457 355.97527 103.69202 355.6054 C 103.92871 355.23656 104.32542 353.5885 104.5409 352.00443 C 104.74683 349.87346 105.38977 348.40347 106.88129 346.7971 C 107.95276 345.50197 108.84194 344.21003 108.83769 343.96697 C 108.83239 343.66316 109.66611 342.6761 110.62242 341.74767 C 112.59686 339.95052 113.03205 337.0254 111.49175 335.83663 C 110.75198 335.24173 110.33194 335.55297 109.02802 337.45997 C 108.20067 338.8116 106.4714 340.72605 105.15158 341.7216 C 103.83175 342.71715 102.5204 344.1988 102.17067 345.05586 C 101.06389 347.81037 99.8815 349.71526 98.62562 350.89204 C 97.42944 352.007 97.36868 352.00805 96.0096 350.75535 C 93.97047 348.8459 93.12402 349.10382 93.16751 351.59513 C 93.20887 353.9649 91.57537 357.88347 89.95809 359.2489 C 89.17983 359.9311 88.69372 359.9396 87.77272 359.4086 C 86.05225 358.34457 85.99361 358.46716 86.0477 361.5661 C 86.03573 364.3623 85.10276 366.6275 83.88748 366.6487 C 83.58367 366.654 82.71813 365.8182 81.971995 364.8587 C 80.41791 362.88 78.95322 362.5409 78.37316 364.13134 C 78.14071 364.7432 78.51908 365.5268 79.56691 366.35944 C 82.09321 368.32115 82.66872 369.95222 81.98729 372.6993 C 81.30479 375.38563 79.32823 377.06125 76.65464 377.1079 C 74.34562 377.1482 73.84467 376.306 74.96948 374.5845 C 76.45144 372.43125 76.07095 371.52616 72.74623 369.09212 C 71.084406 367.9055 69.72215 366.4705 69.71473 366.04515 C 69.70624 365.55905 70.29373 364.39393 71.06668 363.40793 C 71.779936 362.48375 73.08385 360.57674 73.91121 359.2251 C 76.04036 355.8449 80.95828 352.05137 87.16495 348.9647 C 90.90153 347.1368 93.4239 345.3909 96.1713 342.60773 C 98.32166 340.44283 100.89419 338.0882 101.85368 337.34207 C 103.83342 335.84875 104.86883 332.48766 103.756 331.413 C 103.2614 330.9354 102.53542 331.1304 101.15165 331.94472 C 97.36385 334.32056 93.44392 336.09088 92.89174 335.7966 C 92.58474 335.6196 92.13925 334.47253 91.87604 333.32227 C 91.28038 330.5367 91.99787 329.85557 97.13944 328.4286 C 100.88981 327.39064 101.37486 327.3214 103.70085 328.2533 C 105.04719 328.77684 106.45217 329.1778 106.75599 329.1725 C 107.9105 329.15234 107.33393 327.4605 106.11336 327.1779 C 104.5879 326.83983 104.49744 325.1395 105.94834 324.6887 C 107.09649 324.30398 107.74686 323.25933 109.07866 319.4676 C 109.71418 317.57226 109.95511 317.4465 111.96667 317.77607 C 113.18512 317.93715 114.58056 317.79123 115.06137 317.47892 C 116.14239 316.73067 116.38544 316.72643 117.3075 317.31815 Z" fill="white"/>
        </g>
        <g id="Graphic_19">
          <path d="M 153.3333 323.2538 C 155.10393 323.70913 155.06438 324.92547 153.20193 326.1736 C 152.00044 326.98475 151.70935 327.71922 151.74541 329.7852 C 151.7698 331.18274 151.55433 332.76684 151.19823 333.2593 C 150.78562 333.9959 150.47968 333.87967 149.42655 332.7432 L 148.12506 331.30714 L 148.15688 333.13005 C 148.1993 335.5606 149.3079 336.3922 152.03377 335.85835 C 155.0027 335.32028 156.5324 335.9014 155.52062 337.1347 C 154.98436 337.75188 153.5921 338.0801 150.97927 338.1257 C 146.78658 338.1989 146.1747 337.96643 147.05646 336.24914 C 147.46696 335.39103 147.3977 334.906 146.65582 334.18955 C 146.0994 333.65222 145.47055 332.44756 145.27129 331.47852 C 144.54244 328.02667 143.70766 328.95297 144.01859 332.8376 C 144.2624 336.3587 144.14723 336.7254 143.05349 336.7445 C 142.14204 336.7604 141.33514 335.80197 140.07426 333.21035 C 138.68974 330.49933 138.1312 329.84047 137.71752 330.5163 C 136.89122 331.9287 137.09367 333.08003 138.83853 335.54164 C 140.45869 337.82308 140.46081 337.9446 139.38085 338.75362 C 138.54183 339.43687 137.20715 339.58173 134.28626 339.3896 C 129.72157 339.0438 128.48827 338.03202 127.74669 333.851 C 127.13406 330.0932 127.54667 329.35662 130.58485 329.3036 C 135.9331 329.271 138.47669 328.74036 140.1558 327.43463 C 141.11634 326.74926 142.321 326.1204 142.80712 326.11193 C 143.23246 326.1045 143.77191 325.6696 144.00648 325.17926 C 144.64412 323.40545 149.67052 322.3452 153.3333 323.2538 Z" fill="white"/>
        </g>
        <g id="Graphic_18">
          <path d="M 89.49914 329.4737 C 90.53212 329.45568 90.70774 332.5525 89.7525 333.5417 C 89.39428 333.91263 88.74285 334.8965 88.39206 335.6928 C 87.80457 336.8579 87.26194 337.1105 84.70988 337.15506 L 81.6717 337.2081 L 81.42895 333.74775 C 81.19045 330.53047 81.30667 330.22453 82.57846 329.9592 C 85.30222 329.30384 87.00041 329.09185 87.79352 329.26035 C 88.28175 329.3734 89.01304 329.4822 89.49914 329.4737 Z" fill="white"/>
        </g>
        <g id="Graphic_17">
          <path d="M 163.10077 329.1615 C 163.29155 329.64442 163.18275 330.3757 162.88424 330.68483 C 162.2872 331.30307 155.99856 333.17552 154.54023 333.20098 C 153.2642 333.22325 153.3327 330.18295 154.65252 329.1874 C 156.1504 327.9456 162.59345 327.9547 163.10077 329.1615 Z" fill="white"/>
        </g>
        <g id="Graphic_16">
          <path d="M 79.05281 333.42454 C 80.17625 335.10682 78.66746 339.20556 76.500125 340.39825 C 74.21126 341.59306 73.05039 341.24863 72.771275 339.1869 C 72.48898 336.9429 71.39842 337.1443 71.0155 339.58225 C 70.85336 340.73994 69.86174 343.12775 68.797696 344.84822 C 66.966 347.8585 66.727185 348.1058 64.47893 348.14505 C 61.68381 348.19384 60.75008 346.9337 62.30024 345.20476 C 63.84933 343.41504 63.404896 342.32872 60.45855 340.67826 C 58.92355 339.7933 57.69131 338.8423 57.686005 338.5385 C 57.66373 337.26246 60.802224 335.99204 65.04931 335.5532 C 67.96172 335.25925 70.44242 334.60813 72.18865 333.6659 C 75.19925 332.03303 78.11484 331.92136 79.05281 333.42454 Z" fill="white"/>
        </g>
        <g id="Graphic_15">
          <path d="M 59.66301 343.8528 C 60.17033 345.0596 59.93258 345.36765 58.12346 346.1894 C 55.951884 347.13904 52.97871 347.43406 52.965985 346.7049 C 52.96174 346.46184 53.854105 345.3522 54.867994 344.2404 C 57.07594 341.89216 58.83596 341.73987 59.66301 343.8528 Z" fill="white"/>
        </g>
        <g id="Graphic_14">
          <path d="M 72.88124 373.3445 C 72.912 375.10666 69.16238 379.67 67.70406 379.69543 C 66.48879 379.71665 66.6682 376.0666 68.02546 373.7332 C 68.9104 372.1982 69.63214 371.7601 71.0297 371.7357 C 72.60955 371.70814 72.85685 371.94695 72.88124 373.3445 Z" fill="white"/>
        </g>
        <g id="Graphic_13">
          <path d="M 103.37483 386.1843 C 103.64546 387.7599 100.81366 392.6719 99.77432 392.32535 C 98.73603 392.03957 98.39752 386.5751 99.28988 385.46544 C 100.36029 384.10955 103.10314 384.54793 103.37483 386.1843 Z" fill="white"/>
        </g>
        <g id="Graphic_12">
          <path d="M 79.28766 113.57171 C 79.29403 113.9363 85.8477 116.80022 86.69839 116.78537 C 87.42755 116.77264 90.69044 119.14697 93.40859 121.65237 C 94.33701 122.60868 96.1543 125.73763 97.48549 128.87506 C 100.14999 135.27145 100.96113 136.47293 100.91446 133.79933 C 100.77203 129.1216 96.78801 120.25618 94.78281 120.29118 C 94.2967 120.29967 93.80317 119.8828 93.6124 119.39988 C 92.91324 117.6494 86.78703 114.89958 80.9901 113.60278 C 80.0147 113.43746 79.28448 113.38942 79.28766 113.57171 Z" fill="black"/>
        </g>
        <g id="Graphic_11">
          <path d="M 125.40278 126.44273 C 125.2258 126.74973 125.29186 127.05249 125.65645 127.04613 C 125.96026 127.04082 126.44107 126.72852 126.61806 126.42152 C 126.79398 126.05376 126.72898 125.81176 126.3644 125.81813 C 126.06058 125.82343 125.57871 126.07497 125.40278 126.44273 Z" fill="black"/>
        </g>
        <g id="Graphic_10">
          <path d="M 128.90343 128.509 C 128.0835 130.286 129.06102 130.57284 130.00354 128.85449 C 130.70724 127.38344 130.76058 126.95703 130.09218 126.9687 C 129.78837 126.974 129.25316 127.65195 128.90343 128.509 Z" fill="black"/>
        </g>
        <g id="Graphic_9">
          <path d="M 123.09952 133.77679 C 122.92253 134.08378 123.29242 134.38124 123.96081 134.36957 C 124.68998 134.35684 125.23155 134.04348 125.22624 133.73966 C 125.21988 133.37508 124.85106 133.13839 124.36495 133.14688 C 123.87884 133.15536 123.27545 133.40902 123.09952 133.77679 Z" fill="black"/>
        </g>
        <g id="Graphic_8">
          <path d="M 118.86728 135.0663 C 118.63059 135.43512 119.30323 135.66651 120.33621 135.64848 C 121.3692 135.63045 122.21458 135.31178 122.20928 135.00797 C 122.20291 134.64338 121.53027 134.412 120.74035 134.42579 C 119.88966 134.44063 119.04321 134.69854 118.86728 135.0663 Z" fill="black"/>
        </g>
        <g id="Graphic_7">
          <path d="M 101.64208 151.10952 C 101.47252 151.84187 101.60359 152.38662 101.84665 152.38237 C 102.7581 152.36647 103.22194 151.08195 102.54187 150.42521 C 102.17093 150.067 101.87135 150.31535 101.64208 151.10952 Z" fill="black"/>
        </g>
        <g id="Graphic_6">
          <path d="M 93.50976 158.78845 C 92.34222 161.54402 92.18538 163.00553 92.1731 169.2663 C 92.23643 176.3767 93.16985 181.1014 94.50665 181.07806 C 95.23581 181.06534 95.18596 178.20945 94.37164 176.82568 C 94.05721 176.22334 93.91235 174.88867 94.07661 173.8525 C 94.41044 172.084 94.5309 172.02111 95.27704 172.9806 C 95.71299 173.58081 96.16167 174.91019 96.1797 175.94317 C 96.2094 177.64455 97.79848 181.62843 98.46688 181.61676 C 98.58841 181.61464 98.52477 177.96882 98.20429 173.53733 C 97.78805 167.1017 97.86821 164.7298 98.6051 161.67783 C 99.79205 156.55142 99.78993 156.4299 97.67063 156.89236 C 96.33913 157.21951 95.8509 157.10647 95.83923 156.43807 C 95.80848 154.67593 94.91293 155.60329 93.50976 158.78845 Z" fill="black"/>
        </g>
        <g id="Graphic_5">
          <path d="M 95.10385 166.54073 C 95.66557 167.38187 94.94458 171.3453 94.27618 171.35696 C 93.9116 171.36332 93.64733 170.1523 93.62082 168.6332 C 93.57521 166.02037 94.2277 165.09725 95.10385 166.54073 Z" fill="white"/>
        </g>
        <g id="Graphic_4">
          <path d="M 132.4873 333.82904 C 132.63216 335.1637 133.07766 336.3108 133.50619 336.48566 C 134.54447 336.77145 134.37522 334.0392 133.25602 332.59998 C 132.38624 331.5211 132.32653 331.5829 132.4873 333.82904 Z" fill="black"/>
        </g>
      </g>
    </g>
  </g>
</svg>
