<?xml version="1.0" encoding="UTF-8" standalone="no"?>
<!DOCTYPE svg PUBLIC "-//W3C//DTD SVG 1.1//EN" "http://www.w3.org/Graphics/SVG/1.1/DTD/svg11.dtd">
<svg xmlns:xl="http://www.w3.org/1999/xlink" version="1.1" xmlns="http://www.w3.org/2000/svg" xmlns:dc="http://purl.org/dc/elements/1.1/" viewBox="49.5 63 126 351" width="126" height="351">
  <defs>
    <clipPath id="artboard_clip_path">
      <path d="M 49.5 63 L 175.5 63 L 175.5 414 L 49.5 414 Z"/>
    </clipPath>
  </defs>
  <g id="Eel_Haurient" stroke-opacity="1" stroke="none" fill="none" fill-opacity="1" stroke-dasharray="none">
    <title>Eel Haurient</title>
    <g id="Eel_Haurient_Art" clip-path="url(#artboard_clip_path)">
      <title>Art</title>
      <g id="Group_766">
        <g id="Graphic_783">
          <path d="M 119.26564 65.59983 C 119.14187 65.80612 118.93558 66.342465 118.85306 66.71378 C 118.77055 67.12636 117.9454 70.591984 117.03773 74.47019 C 116.08881 78.30713 115.26366 81.89653 115.13989 82.39162 C 114.9336 83.29929 114.72732 83.34054 110.27151 83.34054 C 95.29505 83.3818 85.97086 87.42503 76.275355 98.0282 C 72.23212 102.44275 71.572 103.80425 71.77829 107.06359 C 71.98458 109.91035 73.30482 114.73748 73.84116 114.57245 C 74.04745 114.48993 74.70757 113.16969 75.32643 111.60191 L 76.48164 108.71389 L 77.22428 111.10682 C 77.63685 112.42706 78.1732 113.41724 78.37949 113.33472 C 78.62703 113.25221 79.204635 112.13826 79.65847 110.85927 L 80.52487 108.5076 L 81.06122 110.03413 C 81.63883 111.68442 82.25769 112.63335 82.71152 112.63335 C 82.87655 112.63335 83.33038 111.68442 83.74296 110.57047 C 84.15553 109.41526 84.81565 108.30131 85.22823 108.09502 C 86.38343 107.47616 99.21451 107.59993 100.69978 108.26005 L 101.9375 108.75514 L 98.84319 109.95161 C 97.15163 110.57047 92.69583 112.30329 88.98266 113.7473 L 82.21643 116.38778 L 81.22625 115.48011 C 80.73116 114.94376 80.27733 114.28364 80.27733 113.95358 C 80.27733 112.6746 79.08086 114.36616 78.79206 116.05772 L 78.50326 117.79053 L 77.8844 116.47029 C 76.8117 114.20113 75.36769 114.20113 75.285175 116.47029 C 75.24392 117.21293 75.120145 118.24436 74.95512 118.82197 L 74.66631 119.8534 L 73.88242 118.40939 C 73.42859 117.6255 73.09853 116.88287 73.05727 116.75909 C 73.016015 116.30526 72.355895 115.52137 72.025835 115.52137 C 71.695775 115.52137 70.91188 122.0813 71.11817 123.56658 C 71.2832 124.72178 71.94332 125.01059 74.54254 125.01059 C 80.15356 125.01059 87.37361 123.03023 94.42864 119.60586 C 96.6978 118.4919 99.04948 117.58424 99.62708 117.58424 C 100.86481 117.58424 103.95912 118.90448 104.37169 119.60586 C 104.53672 119.8534 104.82552 119.97718 104.99055 119.89466 C 105.36187 119.64712 106.64085 120.88484 108.37367 123.154 C 109.52888 124.63927 109.65265 125.01059 109.44636 127.11472 C 109.03379 131.77681 105.11433 137.84166 91.33433 154.96351 C 69.13781 182.60601 60.308714 196.26224 54.49141 211.85756 C 47.64267 230.17588 49.045425 244.94605 59.318535 262.76928 C 63.98063 270.897 68.72524 277.4982 80.48362 292.30963 C 83.90799 296.6004 88.15751 302.08765 89.93158 304.43932 C 103.75283 322.71638 109.98271 337.28027 112.74696 357.9915 C 113.81965 365.99547 113.69588 385.71654 112.54067 398.8364 C 111.38546 411.41994 111.38546 411.75 112.45816 411.75 C 112.91199 411.75 113.2833 411.58497 113.2833 411.3787 C 113.2833 411.1724 114.52103 409.7284 116.0063 408.1606 C 136.51126 386.913 151.36395 363.56128 164.44257 331.9168 C 171.41508 315.0425 174.26184 304.48058 174.63316 294.3725 C 174.83945 289.29783 174.75693 288.14262 173.93178 284.88328 C 172.90035 280.63376 171.0025 276.59053 168.23825 272.71233 C 166.09287 269.70053 156.60365 260.17006 154.82958 259.2624 C 154.21071 258.93233 150.95137 256.45688 147.60952 253.77515 C 135.19102 243.79084 128.91989 236.40575 126.32067 228.56684 C 124.42282 222.74953 124.5466 217.9224 126.7745 211.0324 C 129.0024 204.14241 131.80791 198.94397 144.63898 177.82015 C 156.52113 158.22285 160.7294 147.24836 162.00838 132.23064 C 162.6685 124.18544 161.5958 114.86125 159.0791 107.26987 C 157.51131 102.48401 153.8394 95.47024 150.66257 91.30323 C 145.25784 84.12443 136.59378 76.40929 124.38156 67.95151 C 120.33833 65.146 119.71947 64.8572 119.26564 65.59983 Z" fill="black"/>
        </g>
        <g id="Graphic_782">
          <path d="M 125.66055 71.37588 C 138.53288 80.45252 146.70186 88.3327 151.98281 96.74922 C 159.6567 109.04395 162.04963 126.00077 158.41898 142.29747 C 155.69598 154.46842 151.94155 162.1423 136.59378 187.10308 C 125.86683 204.51373 121.94737 215.28193 123.14384 223.90474 C 124.79414 235.53935 131.60162 244.0384 151.98281 259.84 C 163.90622 269.12293 170.30113 277.33316 172.0752 285.70843 C 174.7982 298.49825 168.85712 319.66333 154.08694 349.6575 C 143.77257 370.74008 133.78827 385.6753 119.92576 400.85803 C 118.68803 402.17827 117.9454 402.8384 118.31672 402.2608 C 119.67821 399.9916 127.76468 385.634 130.40515 380.8069 C 131.97294 377.96013 133.29318 375.5672 133.33443 375.4847 C 133.41695 375.40217 134.03581 375.7735 134.73719 376.26858 C 137.08886 377.96013 138.16156 376.4336 135.8924 374.577 C 134.40713 373.3393 134.44839 373.17427 136.67629 369.3373 L 137.70773 367.56325 L 139.11048 368.63594 C 141.75096 370.65756 142.82365 368.92475 140.22443 366.86187 L 138.65665 365.62415 L 139.85312 363.1487 L 141.04958 360.67325 L 142.65862 361.7047 C 143.56629 362.24104 144.55647 362.61235 144.88653 362.4886 C 145.91796 362.076 145.50539 361.04457 143.81383 359.97188 C 142.90617 359.39427 142.16353 358.85792 142.16353 358.7754 C 142.16353 358.15655 144.39144 353.57697 144.68024 353.57697 C 144.88653 353.57697 145.8767 353.98954 146.90814 354.48463 C 148.18712 355.1035 148.8885 355.26852 149.1773 354.97972 C 149.91994 354.2371 149.25982 353.3707 147.27946 352.42176 L 145.46413 351.5141 L 146.12425 349.98757 C 146.49557 349.12116 146.86688 348.08972 146.99066 347.67715 C 147.27946 346.72823 147.65078 346.7695 149.83742 348.04847 C 150.8276 348.62607 151.94155 348.9974 152.27161 348.8736 C 153.46808 348.4198 152.84922 347.38835 150.62131 346.10937 C 149.34233 345.408 148.35215 344.7066 148.43467 344.5416 C 148.51718 344.4178 148.92976 343.3451 149.34233 342.23116 C 149.79617 341.07595 150.16748 340.12703 150.25 340.0445 C 150.29125 339.962 151.4052 340.41584 152.72545 340.99344 C 155.2834 342.1074 156.19107 342.1074 156.19107 340.91092 C 156.19107 340.37458 155.44844 339.8795 153.71562 339.1781 C 152.35413 338.64176 151.24018 338.06416 151.24018 337.89913 C 151.24018 337.40404 152.60167 333.5671 152.89048 333.23704 C 153.0555 333.072 154.16946 333.3608 155.40718 333.89716 C 157.84137 334.96985 158.66652 334.9286 158.66652 333.7734 C 158.66652 333.2783 157.88263 332.7007 156.19107 331.9993 C 154.82958 331.38045 153.71562 330.80284 153.71562 330.6378 C 153.71562 330.30776 155.03586 325.76943 155.15964 325.6044 C 155.24215 325.5219 156.6449 325.93446 158.2952 326.55333 C 160.7294 327.41973 161.38951 327.50225 161.80209 327.08967 C 162.62724 326.26452 162.00838 325.72818 158.8728 324.57297 L 155.98479 323.54153 L 156.10856 321.9325 C 156.19107 321.0661 156.39736 320.19968 156.60365 319.9934 C 156.80994 319.7871 158.25395 319.9934 160.02802 320.48848 C 163.12233 321.31363 164.36005 321.18985 163.90622 320.03465 C 163.69993 319.45704 158.7903 317.68297 157.47005 317.68297 C 157.09874 317.68297 157.05748 317.14662 157.26377 315.74387 C 157.38754 314.6299 157.63508 313.59848 157.75886 313.3922 C 157.88263 313.1859 159.69796 313.14465 161.80209 313.26842 C 164.6076 313.4747 165.72155 313.3922 166.01035 313.02088 C 166.95927 311.90692 165.84532 311.4531 161.80209 311.20555 L 157.75886 310.958 L 158.0064 309.72028 C 158.13017 309.06016 158.25395 308.1525 158.25395 307.73992 C 158.25395 307.03854 158.70778 306.95603 163.12233 306.8735 C 167.6194 306.74974 167.94945 306.7085 167.94945 305.9246 C 167.94945 305.1407 167.6194 305.09944 163.12233 304.97567 L 158.25395 304.8519 L 158.25395 302.83028 L 158.25395 300.80866 L 163.94748 300.6849 C 169.47598 300.56112 169.59975 300.51986 169.72352 299.6122 C 169.8473 298.70453 169.8473 298.70453 163.90622 298.70453 L 157.96514 298.70453 L 157.51131 296.5179 C 157.26377 295.36268 157.22251 294.24873 157.34628 294.0837 C 157.51131 293.95992 160.2343 293.011 163.36987 292.02082 C 166.79424 290.90687 169.31095 289.9167 169.5585 289.50412 C 170.50742 287.9776 168.93963 288.10136 163.28736 289.9167 C 160.19305 290.90687 157.38754 291.73202 157.09874 291.81454 C 156.56239 291.89705 154.54077 287.35873 154.54077 286.121 C 154.54077 285.8322 156.8512 284.26442 159.69796 282.61412 C 166.0516 278.9422 167.04179 278.11706 165.474 277.4982 C 165.06143 277.37442 162.83353 278.40586 159.9455 280.0974 C 157.26377 281.6652 154.7058 283.15047 154.21071 283.398 C 153.42682 283.8106 153.22054 283.6043 151.6115 280.92256 C 150.70383 279.31352 150.08497 277.8695 150.25 277.70448 C 150.45628 277.53945 152.56042 276.01293 154.95335 274.36263 C 159.45041 271.22706 159.98676 270.73197 159.78047 270.0306 C 159.45041 269.0404 158.17143 269.61802 153.75688 272.71233 C 151.15766 274.52766 148.92976 276.01293 148.76473 276.01293 C 148.35215 276.01293 146.28928 273.28993 146.28928 272.7536 C 146.28928 272.5473 147.89832 271.02077 149.91994 269.41173 C 153.79814 266.2349 154.45826 265.451 153.79814 264.7909 C 153.22054 264.2133 152.02407 264.91467 148.06335 268.25652 L 144.68024 271.06203 L 143.02994 269.12293 C 142.08102 268.0915 141.33838 267.1013 141.33838 266.93628 C 141.33838 266.77125 142.53485 265.03844 144.02012 263.09934 C 146.70186 259.5512 147.40323 257.65335 146.00048 257.94215 C 145.42287 258.06593 142.53485 261.40778 140.26569 264.66712 C 139.72934 265.451 139.60557 265.3685 137.41892 263.2231 C 136.1812 261.9854 135.14976 260.87143 135.14976 260.7064 C 135.14976 260.54137 136.26372 258.72605 137.66647 256.6219 C 139.02797 254.51778 140.0594 252.53743 139.93563 252.24862 C 139.44054 250.96964 138.36785 251.83605 135.93366 255.42545 L 133.41695 259.17988 L 130.77647 256.58066 C 129.33246 255.13665 128.136 253.85766 128.136 253.69263 C 128.136 253.56886 129.33246 252.04234 130.81773 250.30952 C 133.49946 247.17395 133.9533 246.22503 133.00438 245.64743 C 132.55054 245.35863 131.06527 246.80264 127.76468 250.63958 L 126.36192 252.24862 L 124.5466 250.26826 L 122.73127 248.24665 L 125.86683 245.06982 C 129.04366 241.76923 129.41498 241.1091 128.30102 240.65527 C 127.84719 240.49024 126.65072 241.3979 124.42282 243.6258 L 121.246 246.80264 L 118.8118 243.8321 C 117.45031 242.22306 116.33636 240.77905 116.2951 240.61402 C 116.21259 240.449 117.90414 239.33503 120.04953 238.13857 C 124.13402 235.82815 125.08294 235.08552 124.62911 234.34288 C 124.17528 233.60025 123.30887 233.88905 119.3069 236.19947 C 117.1615 237.4372 115.2224 238.46863 115.01612 238.46863 C 114.6448 238.46863 113.11827 235.95192 111.96307 233.43522 L 111.30295 231.9087 L 113.40708 231.45486 C 114.60354 231.2073 116.83145 230.79474 118.35797 230.50594 C 120.29707 230.17588 121.32851 229.80456 121.57606 229.30947 C 122.23618 228.0305 120.9572 227.94797 115.67624 228.93815 C 112.95325 229.43324 110.68408 229.80456 110.60157 229.72204 C 110.27151 229.35073 109.57013 224.93618 109.57013 223.1621 C 109.57013 221.26426 109.65265 221.1405 110.51905 221.30552 C 112.54067 221.7181 120.13204 221.92438 120.66839 221.59432 C 122.52498 220.39786 119.18312 219.53145 112.87073 219.4902 C 109.6939 219.4902 109.48762 219.2839 109.98271 216.60217 C 110.23025 215.4057 110.4778 214.29175 110.60157 214.20924 C 110.72534 214.08546 112.87073 214.45678 115.4287 215.03439 C 120.25582 216.10708 121.12222 216.10708 121.12222 215.1169 C 121.12222 214.333 119.96701 213.87918 115.34618 212.889 C 113.20079 212.3939 111.38546 211.94008 111.26169 211.8163 C 111.0554 211.61002 112.82947 205.87523 113.11827 205.87523 C 113.20079 205.87523 115.13989 206.70038 117.45031 207.73181 C 120.62713 209.17582 121.74109 209.50588 122.15366 209.17582 C 123.02007 208.4332 122.44246 207.69056 120.37959 206.7829 C 119.3069 206.2878 117.3678 205.46265 116.08881 204.88505 L 113.73714 203.8536 L 114.85109 201.3369 C 115.46995 199.9754 116.08881 198.86146 116.25384 198.86146 C 116.41887 198.86146 118.2342 199.76912 120.33833 200.92433 C 122.44246 202.03828 124.25779 202.9872 124.42282 202.9872 C 125.00043 202.9872 125.61929 201.9145 125.33049 201.46068 C 125.16546 201.2544 124.01025 200.51176 122.77252 199.8929 C 121.5348 199.27403 119.71947 198.28385 118.72929 197.7475 L 116.99648 196.71607 L 118.27546 194.3644 C 119.0181 193.0854 119.63696 192.01272 119.71947 191.9302 C 119.76073 191.84769 121.86486 192.83787 124.42282 194.11685 C 128.30102 196.05595 129.16743 196.34475 129.62126 195.89092 C 129.91006 195.60212 130.03384 195.14828 129.8688 194.90074 C 129.70378 194.6532 127.59965 193.41547 125.16546 192.219 L 120.7509 189.9911 L 122.19492 187.39188 C 123.59767 184.91643 123.72144 184.83392 124.5466 185.37026 C 127.9297 187.5569 132.38551 189.82607 132.8806 189.61978 C 134.2421 189.1247 133.29318 188.09326 129.12617 185.65907 C 124.95917 183.22488 124.79414 183.1011 125.37174 182.2347 C 125.7018 181.7396 126.15564 180.91446 126.44444 180.41937 C 126.89827 179.5117 126.93953 179.55296 131.27156 182.15218 C 133.70575 183.5962 135.93366 184.66889 136.22246 184.54512 C 137.66647 184.00877 136.63503 182.85356 132.67432 180.5844 C 130.40515 179.26416 128.46605 178.02644 128.38354 177.8614 C 128.09474 177.40757 130.98276 173.07554 131.5191 173.19931 C 131.76665 173.28183 133.70575 174.35452 135.80988 175.59224 C 137.91401 176.87123 139.85312 177.7789 140.0594 177.61386 C 141.29713 176.87123 140.3482 175.83979 136.38749 173.52937 L 132.22048 171.13644 L 133.33443 169.19734 C 133.9533 168.1659 134.48964 167.21698 134.57216 167.17572 C 134.61342 167.0932 136.47 168.08338 138.61539 169.36237 C 142.41108 171.63153 143.81383 171.96159 143.81383 170.6826 C 143.81383 170.35255 142.03976 169.0323 139.89437 167.71207 C 137.74898 166.43309 135.97491 165.27788 135.97491 165.1541 C 135.97491 164.61776 137.70773 161.72973 138.03779 161.72973 C 138.28533 161.72973 140.14192 162.55488 142.16353 163.58632 C 146.28928 165.6492 147.11443 165.81422 147.11443 164.61776 C 147.11443 163.9989 146.12425 163.29752 142.98868 161.72973 L 138.9042 159.66686 L 140.01815 157.19141 C 140.637 155.87117 141.25587 154.75722 141.46216 154.71596 C 141.62719 154.71596 143.44251 155.54111 145.46413 156.57255 C 149.4661 158.59417 150.20874 158.7592 150.5388 157.81028 C 150.8276 157.06764 149.58988 156.15998 145.46413 154.0971 C 143.77257 153.2307 142.32856 152.52932 142.24605 152.4468 C 142.20479 152.40555 142.4936 151.49788 142.94743 150.42519 L 143.77257 148.52734 L 148.14587 150.67273 C 151.94155 152.57058 152.56042 152.77686 153.09676 152.24052 C 153.42682 151.91046 153.5506 151.41537 153.38557 151.16782 C 153.22054 150.92028 151.19892 149.72381 148.84724 148.5686 L 144.59772 146.42321 L 144.84527 145.10297 C 145.0103 144.36034 145.21659 143.70022 145.2991 143.6177 C 145.38162 143.53519 147.48575 143.98902 150.00245 144.6904 C 153.8394 145.7631 154.62329 145.84561 155.03586 145.35052 C 155.81976 144.4016 154.74706 143.78274 150.08497 142.50375 C 146.24802 141.47232 145.83545 141.26603 146.04174 140.5234 C 146.12425 140.0283 146.3718 138.95561 146.49557 138.13046 C 146.74311 136.81022 146.90814 136.60394 147.69203 136.76897 C 155.40718 138.54304 155.90227 138.62555 156.43862 138.17172 C 157.47005 137.30531 156.52113 136.6452 153.38557 135.94382 C 151.65275 135.5725 149.50736 135.07741 148.64096 134.87112 L 147.07317 134.45855 L 147.36197 132.31316 C 147.527 131.1167 147.65078 130.12651 147.69203 130.08526 C 147.7333 130.044 149.6724 130.25029 152.06533 130.58035 C 155.7785 131.03418 156.47988 130.99292 157.01622 130.49783 C 158.04766 129.50765 156.60365 128.84753 152.7667 128.55873 C 147.40323 128.1049 147.527 128.14615 147.527 125.62945 C 147.527 123.154 147.19694 123.31903 152.84922 122.49388 C 156.23233 121.95753 157.22251 121.33867 156.27359 120.38975 C 155.86101 119.97718 150.70383 120.47227 148.26964 121.17364 C 147.60952 121.33867 147.527 121.04987 147.527 118.86322 L 147.527 116.38778 L 151.15766 115.31508 C 155.32467 114.07736 155.98479 113.78856 155.98479 113.00466 C 155.98479 112.05574 154.54077 112.13826 150.86886 113.25221 C 148.97102 113.82981 147.36197 114.24239 147.27946 114.15987 C 147.2382 114.11861 147.07317 113.29347 146.90814 112.3858 L 146.6606 110.65299 L 149.6724 109.78658 C 153.75688 108.59011 154.54077 108.2188 154.54077 107.51742 C 154.54077 106.40347 153.75688 106.40347 150.25 107.4349 C 148.35215 108.01251 146.6606 108.5076 146.53683 108.5076 C 146.24802 108.5076 145.62916 107.02233 145.21659 105.45455 C 145.0103 104.54688 145.21659 104.38185 148.43467 103.35042 C 151.81778 102.19521 152.4779 101.78263 152.4779 100.7512 C 152.4779 100.00856 151.3227 100.13233 147.93958 101.28754 C 146.28928 101.86515 144.68024 102.31898 144.35018 102.31898 C 143.73132 102.31898 142.03976 99.14215 142.36982 98.56455 C 142.53485 98.35826 143.73132 97.61563 145.05156 96.95551 C 146.3718 96.29539 147.7333 95.42898 148.14587 95.05766 C 148.80599 94.35629 148.80599 94.31503 148.14587 93.81994 C 147.527 93.36611 146.90814 93.5724 144.06138 95.09892 L 140.71952 96.91425 L 138.82168 94.52132 L 136.92383 92.12838 L 139.11048 89.36413 C 141.50341 86.35234 141.7097 85.93976 140.637 85.52719 C 139.97689 85.27964 139.35803 85.81599 136.51126 89.28162 L 135.23228 90.8494 L 133.33443 89.57042 C 132.303 88.82779 131.43659 88.08515 131.43659 87.87886 C 131.43659 87.67258 132.0142 86.06354 132.71557 84.28946 C 134.57216 79.66863 134.73719 78.92599 134.15958 78.4309 C 133.3757 77.77078 132.5918 78.88474 131.02402 82.92797 C 130.28138 84.86707 129.53875 86.55863 129.41498 86.72366 C 129.12617 87.09497 125.24797 85.73348 125.24797 85.27964 C 125.24797 85.11461 125.90809 83.3818 126.69198 81.40144 C 128.38354 77.19318 128.50731 76.203 127.26959 76.40929 C 126.56821 76.4918 126.03186 77.44072 124.75288 80.65881 C 123.84522 82.92797 123.10258 84.82581 123.06133 84.82581 C 122.93755 84.94958 117.24402 83.71186 117.12025 83.58809 C 116.99648 83.46431 120.09079 69.766835 120.50336 68.57037 C 120.7509 67.91025 120.66839 67.86899 125.66055 71.37588 Z" fill="#FFFFFF"/>
        </g>
        <g id="Graphic_781">
          <path d="M 116.54264 85.81599 C 129.04366 87.46629 137.37767 93.15982 142.03976 103.39167 C 144.55647 108.7964 145.09281 111.84945 145.34036 121.91628 C 145.5879 132.14813 145.09281 136.81022 142.94743 144.03028 C 140.22443 153.2307 136.92383 159.6256 125.37174 178.23272 C 123.35013 181.53332 121.20474 185.0402 120.62713 186.07164 C 120.04953 187.10308 118.77055 189.33098 117.82163 191.02254 C 115.01612 195.84966 111.67426 203.1935 110.189 207.73181 C 105.11433 222.91456 107.09468 233.0639 117.57408 245.64743 C 119.10061 247.4215 120.29707 249.03054 120.29707 249.23683 C 120.29707 249.44311 120.54462 249.6494 120.83342 249.6494 C 121.78234 249.77317 142.65862 271.63963 145.62916 275.68287 C 152.43664 284.88328 155.4897 292.7222 156.02604 302.17016 C 156.97496 318.4256 149.50736 340.9522 132.92186 371.93654 C 128.25977 380.64187 116.50139 401.4769 116.33636 401.31186 C 116.2951 401.2706 116.8727 398.3413 117.6566 394.83444 C 120.54462 381.8796 122.93755 367.68702 124.0515 356.87757 C 124.71162 350.68895 124.71162 335.05236 124.09276 330.0602 C 121.61731 311.41183 116.21259 300.56112 99.09074 279.9324 C 85.97086 264.04826 82.09266 258.80856 78.29697 251.67102 C 70.25176 236.48827 70.45805 221.92438 79.08086 199.85164 C 82.38146 191.39386 88.57008 179.05787 97.39918 163.17375 C 109.61139 141.26603 112.04558 135.61376 112.29313 128.80627 C 112.45816 124.5155 111.96307 122.78268 110.06522 120.71981 C 108.95127 119.52334 105.60942 117.13041 103.25774 115.85143 C 101.9375 115.1088 98.22433 114.81999 97.93553 115.3976 C 97.89427 115.60388 95.54259 116.80035 92.77834 118.12059 C 87.12607 120.80232 81.30877 122.45262 76.35787 122.78268 L 73.05727 122.98897 L 76.15158 121.37993 C 79.204635 119.81215 86.38343 116.88287 97.7705 112.55083 C 102.92768 110.57047 103.54654 110.24041 103.91786 109.16772 C 104.74301 106.65101 101.44241 105.61958 92.5308 105.61958 C 89.31271 105.66083 85.39326 105.82586 83.78421 106.07341 C 82.21643 106.2797 79.369665 106.5685 77.51308 106.73353 C 73.63488 107.02233 73.26356 106.73353 74.04745 104.29934 C 74.5838 102.73155 80.89619 95.96533 84.52685 93.0773 C 87.37361 90.80814 92.32451 88.25018 95.79014 87.21874 C 101.48367 85.56845 110.06522 84.99084 116.54264 85.81599 Z" fill="#FFFFFF"/>
        </g>
        <g id="Graphic_780">
          <path d="M 83.04158 109.33275 C 82.67026 110.32293 82.50523 110.4467 82.21643 109.91035 C 81.7626 109.0852 82.13392 108.09502 82.91781 108.09502 C 83.4129 108.09502 83.4129 108.30131 83.04158 109.33275 Z" fill="#FFFFFF"/>
        </g>
        <g id="Graphic_779">
          <path d="M 74.91386 109.49778 C 74.8726 109.74532 74.62506 110.40544 74.33625 110.94179 C 73.79991 111.89071 73.79991 111.89071 73.38733 110.28167 C 72.97476 108.71389 73.016015 108.63137 73.92368 108.83766 C 74.46003 108.92017 74.91386 109.20898 74.91386 109.49778 Z" fill="#FFFFFF"/>
        </g>
        <g id="Graphic_778">
          <path d="M 78.99835 109.20898 C 78.95709 109.8691 78.25571 111.18933 78.25571 110.69424 C 78.21446 110.4467 78.09068 109.95161 77.96691 109.58029 C 77.80188 109.12646 77.92565 108.92017 78.37949 108.92017 C 78.7508 108.92017 79.039605 109.04395 78.99835 109.20898 Z" fill="#FFFFFF"/>
        </g>
        <g id="Graphic_777">
          <path d="M 80.77242 116.5528 C 80.77242 116.75909 80.56613 117.00664 80.31859 117.08915 C 80.07104 117.17167 79.86475 116.92412 79.86475 116.5528 C 79.86475 116.18149 80.07104 115.93394 80.31859 116.01646 C 80.56613 116.09897 80.77242 116.34652 80.77242 116.5528 Z" fill="#FFFFFF"/>
        </g>
        <g id="Graphic_776">
          <path d="M 77.01799 118.53316 C 76.39913 119.15203 76.15158 118.73945 76.44038 117.6255 C 76.64667 116.75909 76.72919 116.75909 77.1005 117.37795 C 77.34805 117.83179 77.30679 118.24436 77.01799 118.53316 Z" fill="#FFFFFF"/>
        </g>
        <g id="Graphic_775">
          <path d="M 73.2223 119.60586 C 73.55236 120.18346 73.5111 120.43101 73.05727 120.6373 C 72.60344 120.80232 72.43841 120.55478 72.43841 119.8534 C 72.43841 118.61568 72.685955 118.53316 73.2223 119.60586 Z" fill="#FFFFFF"/>
        </g>
        <g id="Graphic_774">
          <path d="M 108.12612 137.88292 C 106.35205 142.37998 101.3599 152.24052 100.86481 152.24052 C 100.69978 152.24052 100.41097 152.03423 100.2872 151.82794 C 100.16343 151.5804 99.58582 151.41537 99.00822 151.41537 C 97.72924 151.41537 97.72924 152.40555 99.00822 153.35447 C 99.91588 154.05585 99.95714 154.13836 99.33828 155.41734 C 98.6369 156.90261 98.18307 157.06764 97.02786 156.15998 C 96.03768 155.41734 94.88247 155.37608 94.4699 156.0362 C 94.1811 156.49004 95.74888 158.14033 96.82157 158.51165 C 97.23415 158.63542 97.23415 158.96548 96.82157 159.99692 C 96.07894 161.771 95.79014 161.89476 94.34613 161.11087 C 91.41685 159.6256 90.30289 161.02836 93.06714 162.76117 L 94.67619 163.7926 L 93.85104 165.23662 L 92.98463 166.63937 L 90.8805 165.48416 C 89.68403 164.82404 88.48757 164.37021 88.24002 164.49399 C 87.16733 164.90656 87.74493 165.938 89.76655 167.17572 C 90.92176 167.8771 91.82942 168.53722 91.82942 168.61973 C 91.82942 168.90853 90.09661 172.25039 89.68403 172.78674 C 89.35397 173.15805 88.73511 172.99302 87.04355 172.00284 C 83.12409 169.77494 81.80386 171.2602 85.6408 173.57063 C 86.87852 174.31326 87.95122 175.09715 88.03373 175.30344 C 88.19876 175.83979 85.72332 180.70817 85.22823 180.70817 C 85.02194 180.70817 83.74296 180.04805 82.3402 179.2229 C 80.93745 178.39775 79.53469 177.8614 79.204635 177.98518 C 77.96691 178.439 78.874575 179.67673 81.59757 181.24452 L 84.36182 182.8123 L 83.53667 184.7514 C 83.08284 185.8241 82.629 186.73176 82.54649 186.81428 C 82.463975 186.93805 80.97871 186.23667 79.24589 185.28775 C 76.02781 183.55494 75.1614 183.3074 74.74883 183.9675 C 74.21248 184.79266 75.07889 185.57655 78.21446 187.10308 C 80.02978 188.01074 81.51505 188.75338 81.51505 188.8359 C 81.51505 189.04218 79.039605 194.4469 78.874575 194.61194 C 78.79206 194.69445 76.8117 193.82805 74.50128 192.67284 C 71.20069 191.10505 70.12799 190.73374 69.67416 191.0638 C 68.84901 191.76517 69.591645 192.4253 73.26356 194.3644 C 78.33823 196.96361 78.09068 196.63355 76.93547 199.6041 C 76.39913 201.00685 75.82152 202.16205 75.615235 202.16205 C 75.450205 202.16205 73.63488 201.29565 71.572 200.2642 C 69.50913 199.23277 67.52877 198.44888 67.15745 198.5314 C 65.507155 198.86146 66.662364 200.01667 70.82937 202.16205 L 75.20266 204.43122 L 74.25374 207.27798 C 73.71739 208.84576 73.2223 210.166 73.13979 210.24852 C 73.05727 210.33103 70.9944 209.75343 68.47769 208.96954 C 63.60931 207.443 62.742905 207.27798 62.28907 207.97936 C 61.79398 208.8045 63.072964 209.50588 67.48751 210.82612 C 69.88045 211.56876 71.98458 212.27013 72.14961 212.47642 C 72.355895 212.64145 72.27338 213.92043 71.98458 215.3232 C 71.530746 217.75738 71.44823 217.88115 70.41679 217.67486 C 66.86865 216.97349 59.978654 216.51965 59.56608 216.93223 C 58.53464 217.96367 60.06117 218.54127 64.72326 219.07762 C 71.695775 219.82025 71.07691 219.36642 70.62308 223.3684 L 70.25176 226.79276 L 64.31069 227.0403 C 58.08081 227.28785 56.348 227.78294 57.79201 228.81438 C 58.328355 229.1857 60.06117 229.2682 64.43446 229.10318 L 70.37554 228.85564 L 70.45805 231.78492 C 70.45805 233.43522 70.49931 234.96174 70.54057 235.25055 C 70.58182 235.5806 68.80775 236.1582 65.837215 236.81833 C 58.69967 238.42737 58.823445 238.3861 58.823445 239.29378 C 58.823445 240.36647 59.483565 240.36647 65.09458 239.0875 C 67.61129 238.50989 69.96296 238.05605 70.33428 238.05605 C 70.78811 238.05605 71.24194 238.96372 71.90206 241.27414 C 72.39715 243.00695 72.89224 244.73976 73.016015 245.06982 C 73.2223 245.5649 72.10835 246.3488 68.35392 248.2879 C 62.94919 251.0934 62.20656 251.71228 63.072964 252.4549 C 63.5268 252.82623 64.76452 252.3724 68.68398 250.4333 C 71.44823 249.0718 73.79991 247.95785 73.88242 247.95785 C 74.00619 247.95785 74.95512 249.69066 75.98655 251.75353 L 77.92565 255.59048 L 76.93547 256.29185 C 70.74685 260.83018 68.931525 262.31545 68.931525 262.81054 C 68.931525 264.17203 70.54057 263.5119 74.70757 260.50012 C 77.1005 258.7673 79.12212 257.4058 79.204635 257.48832 C 79.69972 258.10718 82.75278 262.81054 82.75278 262.9343 C 82.75278 263.01682 80.89619 264.91467 78.62703 267.14257 C 74.74883 270.93826 73.92368 272.29975 74.91386 272.9186 C 75.1614 273.08364 76.68793 271.92844 78.33823 270.36065 C 79.94727 268.83413 81.96889 266.97754 82.79403 266.2349 L 84.23805 264.8734 L 87.0023 268.3803 C 88.98266 270.897 89.60152 271.9697 89.2302 272.17598 C 87.95122 272.95987 81.84511 280.96382 82.09266 281.5827 C 82.58775 282.94418 83.4129 282.28406 87.53864 277.25065 C 89.27146 275.10526 90.75673 273.3312 90.83924 273.3312 C 91.12804 273.3312 97.19289 280.75753 97.19289 281.12885 C 97.19289 281.33514 95.70762 283.35675 93.85104 285.58466 C 90.75673 289.38035 90.09661 290.7831 91.29307 291.1544 C 91.54062 291.23693 93.27343 289.50412 95.13002 287.2762 C 96.9866 285.0483 98.6369 283.23298 98.84319 283.23298 C 99.00822 283.23298 100.41097 284.71825 101.85499 286.53358 L 104.57798 289.83418 L 100.45223 293.75364 C 98.22433 295.89903 96.36774 298.00316 96.36774 298.37447 C 96.36774 299.4059 97.72924 299.3234 98.67816 298.2507 C 99.09074 297.7556 100.90606 296.06406 102.63888 294.49627 L 105.8157 291.6495 L 107.79606 294.3725 C 108.86876 295.89903 110.10648 297.63184 110.51905 298.29196 L 111.22043 299.4059 L 107.50726 302.25268 C 104.78427 304.3568 103.83534 305.30573 103.91786 305.9246 C 104.04163 307.20357 105.2381 306.74974 108.49744 304.19178 C 110.10648 302.9128 111.633 301.71633 111.92181 301.51004 C 112.29313 301.22124 112.9945 302.29393 114.52103 305.26447 C 115.63498 307.53363 116.5839 309.5965 116.5839 309.84405 C 116.5839 310.05034 114.89235 311.08177 112.87073 312.1132 C 110.80786 313.14465 108.99253 314.29986 108.86876 314.6299 C 108.29115 316.1152 109.52888 315.9914 113.24205 314.1761 C 115.34618 313.14465 117.20276 312.3195 117.40905 312.3195 C 117.73911 312.3195 119.05935 315.74387 119.05935 316.65153 C 119.05935 316.89908 118.02791 317.60045 116.79019 318.2193 C 113.2833 319.91087 111.22043 321.3549 111.22043 322.015 C 111.22043 323.04644 112.7057 322.71638 116.21259 320.98357 C 118.02791 320.03465 119.67821 319.4158 119.84324 319.53956 C 120.04953 319.62207 120.42085 320.98357 120.70965 322.46884 C 121.12222 324.5317 121.12222 325.27434 120.7509 325.48063 C 120.50336 325.64566 118.72929 326.01698 116.8727 326.3058 C 113.40708 326.84213 112.45816 327.2547 112.45816 328.2449 C 112.45816 328.9875 113.90217 328.9875 117.98666 328.20362 C 121.69983 327.50225 121.94737 327.58476 121.94737 330.14273 C 121.94737 331.00913 121.94737 331.8343 121.94737 331.9993 C 121.98863 332.24686 117.73911 332.9895 114.43851 333.31955 C 113.94342 333.3608 114.0672 334.9286 114.56229 335.09362 C 114.80983 335.17614 116.5839 335.09362 118.48175 334.88733 C 120.42085 334.68105 122.07115 334.55727 122.15366 334.68105 C 122.23618 334.76356 122.44246 336.3726 122.56624 338.2292 L 122.81378 341.6123 L 119.67821 341.6123 C 117.20276 341.6123 116.50139 341.73607 116.2951 342.27242 C 115.92378 343.2626 116.91396 343.67518 120.00827 343.67518 L 122.77252 343.67518 L 122.77252 345.61428 C 122.77252 349.2862 122.6075 349.49248 119.80198 349.40996 C 115.38744 349.24493 115.46995 351.1015 119.8845 351.4316 C 122.64875 351.63787 122.56624 351.47284 122.1124 355.4748 L 121.8236 357.6202 L 120.54462 357.2489 C 119.84324 357.0426 118.64678 356.87757 117.9454 356.87757 C 116.8727 356.87757 116.5839 357.0426 116.5839 357.7027 C 116.5839 358.36283 117.03773 358.6104 119.10061 359.02295 L 121.61731 359.51804 L 121.32851 362.44732 C 120.70965 368.63594 114.90782 400.9096 114.49524 400.45577 C 114.37147 400.37325 115.09863 392.31773 115.38744 387.1193 C 117.28528 351.4316 111.30295 329.6889 92.65457 304.6456 C 90.38541 301.59256 85.68206 295.5277 82.21643 291.1544 C 68.931525 274.4864 63.5268 266.68874 59.02973 257.85964 C 50.159376 240.3252 50.159376 226.05013 59.02973 206.2878 C 64.92955 193.12667 73.55236 180.41937 93.02589 156.15998 C 101.85499 145.18549 109.15756 135.11867 109.15756 134.00472 C 109.15756 133.75717 109.28133 133.6334 109.4051 133.79843 C 109.52888 133.9222 108.95127 135.73753 108.12612 137.88292 Z" fill="#FFFFFF"/>
        </g>
        <g id="Graphic_773">
          <path d="M 98.9257 92.00461 C 94.26361 94.85138 96.1202 100.66868 101.73121 100.66868 C 106.02199 100.66868 108.8275 96.91425 107.05343 93.5724 C 105.8157 91.30323 101.48367 90.43683 98.9257 92.00461 Z" fill="black"/>
        </g>
        <g id="Graphic_772">
          <path d="M 104.53672 93.90245 C 106.72337 95.42898 104.86678 98.60581 101.77247 98.60581 C 99.75085 98.60581 98.43062 97.61563 98.43062 96.13036 C 98.43062 93.73742 102.30882 92.33467 104.53672 93.90245 Z" fill="#FFFFFF"/>
        </g>
        <g id="Graphic_771">
          <path d="M 99.91588 94.7276 C 99.54457 95.05766 99.25577 95.63527 99.25577 95.92407 C 99.25577 96.74922 100.41097 97.78066 101.31864 97.78066 C 102.2263 97.78066 103.38151 96.74922 103.38151 95.92407 C 103.38151 95.09892 102.2263 94.06748 101.31864 94.06748 C 100.90606 94.06748 100.24594 94.35629 99.91588 94.7276 Z" fill="black"/>
        </g>
        <g id="Graphic_770">
          <path d="M 130.24012 94.81012 C 129.99258 95.30521 130.03384 96.41916 130.40515 98.19323 C 132.09671 106.23844 131.5191 111.0243 128.50731 113.58227 C 126.7745 115.06754 123.02007 116.67658 119.05935 117.58424 C 116.5839 118.16185 115.75875 118.61568 115.75875 119.48209 C 115.75875 120.26598 116.91396 120.22472 120.70965 119.23454 C 131.89042 116.38778 134.69593 112.05574 132.8806 100.50365 C 131.93168 94.23251 131.27156 92.87102 130.24012 94.81012 Z" fill="black"/>
        </g>
        <g id="Graphic_769">
          <path d="M 133.6645 121.09113 C 133.49946 121.46244 134.5309 123.36029 136.09869 125.75322 C 141.04958 133.17957 141.29713 136.31513 137.08886 140.15208 C 132.63306 144.27783 123.72144 147.00082 121.8236 144.89669 C 120.79216 143.78274 120.9572 140.64717 122.35995 132.8495 C 123.80396 124.96933 123.7627 125.17562 122.97881 124.84556 C 122.02989 124.47424 121.57606 125.83574 120.25582 132.76699 C 118.35797 143.08136 118.60552 145.63932 121.57606 147.16585 C 124.91791 148.89866 133.87078 145.92812 138.57413 141.59609 C 143.36 137.09903 143.27749 132.80825 138.24407 125.21687 C 135.06725 120.43101 134.20084 119.64712 133.6645 121.09113 Z" fill="black"/>
        </g>
        <g id="Graphic_768">
          <path d="M 129.62126 122.8652 C 129.24995 123.48406 129.58 124.43298 132.05545 130.00274 C 134.32461 135.20118 134.90222 136.10885 135.68611 136.1501 C 136.92383 136.1501 135.97491 133.22082 131.93168 124.68053 C 131.02402 122.70017 130.15761 122.04005 129.62126 122.8652 Z" fill="black"/>
        </g>
        <g id="Graphic_767">
          <path d="M 125.94935 124.47424 C 125.57803 124.8043 125.57803 135.40747 125.90809 137.96543 C 126.15564 139.61573 126.32067 139.90453 127.0633 139.78076 C 127.9297 139.65699 127.9297 139.53322 127.80593 132.43693 C 127.6409 125.877 127.39336 124.18544 126.4857 124.18544 C 126.36192 124.18544 126.07312 124.30921 125.94935 124.47424 Z" fill="black"/>
        </g>
      </g>
    </g>
  </g>
</svg>
