<?xml version="1.0" encoding="UTF-8" standalone="no"?>
<!DOCTYPE svg PUBLIC "-//W3C//DTD SVG 1.1//EN" "http://www.w3.org/Graphics/SVG/1.1/DTD/svg11.dtd">
<svg xmlns:xl="http://www.w3.org/1999/xlink" xmlns="http://www.w3.org/2000/svg" xmlns:dc="http://purl.org/dc/elements/1.1/" version="1.1" viewBox="99 62 166.5 352" width="166.5" height="352">
  <defs>
    <clipPath id="artboard_clip_path">
      <path d="M 99 62 L 265.5 62 L 265.5 414 L 99 414 Z"/>
    </clipPath>
  </defs>
  <g id="Ermine_Spot_(7)" stroke-opacity="1" stroke="none" stroke-dasharray="none" fill="none" fill-opacity="1">
    <title>Ermine Spot (7)</title>
    <g id="Ermine_Spot_(7)_Layer_2" clip-path="url(#artboard_clip_path)">
      <title>Layer 2</title>
      <g id="Group_3">
        <g id="Group_4">
          <title>shape1-1</title>
          <g id="Graphic_5">
            <path d="M 154.03963 213.08785 C 140.48074 257.6975 123.20814 300.99974 102.34069 342.69656 C 127.10506 307.3905 147.79097 269.79146 164.15778 230.3369 C 156.91951 285.19583 145.76378 339.4452 130.76788 392.70915 C 150.28082 346.57433 165.49967 298.82197 176.25138 249.995 L 182.2741 411.5 L 188.34498 250.23592 C 199.0953 298.97934 214.29784 346.6505 233.7803 392.70915 C 218.7844 339.4452 207.62867 285.19583 200.3904 230.3369 C 216.7421 269.7899 237.41187 307.3889 262.1593 342.69656 C 241.30853 300.9986 224.05204 257.6964 210.50855 213.08785 C 225.003 231.97484 242.10425 249.0439 261.6775 264.16043 C 231.53533 228.48183 208.46992 187.96806 192.82588 143.22442 C 191.22327 135.86925 187.00265 130.966 182.2741 130.966 C 177.54553 130.966 173.32492 135.86925 171.7223 143.22442 C 156.06456 187.97035 132.98296 228.4842 102.8225 264.16043 C 122.41349 249.04575 139.53089 231.97666 154.03963 213.08785 Z M 190.36861 115.85722 C 190.36861 125.22394 197.96184 132.81717 207.32856 132.81717 C 216.69529 132.81717 224.28851 125.22394 224.28851 115.85722 C 224.28851 106.4905 216.69529 98.89727 207.32856 98.89727 C 197.96184 98.89727 190.36861 106.4905 190.36861 115.85722 Z M 140.25967 115.85722 C 140.4344 125.08567 147.96542 132.47545 157.19553 132.47545 C 166.42563 132.47545 173.95666 125.08567 174.13139 115.85722 C 173.95666 106.62877 166.42563 99.23899 157.19553 99.23899 C 147.96542 99.23899 140.4344 106.62877 140.25967 115.85722 Z M 165.31414 81.11823 C 165.48887 90.34668 173.0199 97.73646 182.25 97.73646 C 191.4801 97.73646 199.01113 90.34668 199.18586 81.11823 C 199.01113 71.88978 191.4801 64.5 182.25 64.5 C 173.0199 64.5 165.48887 71.88978 165.31414 81.11823 Z" fill="#FFFFFF"/>
            <path d="M 154.03963 213.08785 C 140.48074 257.6975 123.20814 300.99974 102.34069 342.69656 C 127.10506 307.3905 147.79097 269.79146 164.15778 230.3369 C 156.91951 285.19583 145.76378 339.4452 130.76788 392.70915 C 150.28082 346.57433 165.49967 298.82197 176.25138 249.995 L 182.2741 411.5 L 188.34498 250.23592 C 199.0953 298.97934 214.29784 346.6505 233.7803 392.70915 C 218.7844 339.4452 207.62867 285.19583 200.3904 230.3369 C 216.7421 269.7899 237.41187 307.3889 262.1593 342.69656 C 241.30853 300.9986 224.05204 257.6964 210.50855 213.08785 C 225.003 231.97484 242.10425 249.0439 261.6775 264.16043 C 231.53533 228.48183 208.46992 187.96806 192.82588 143.22442 C 191.22327 135.86925 187.00265 130.966 182.2741 130.966 C 177.54553 130.966 173.32492 135.86925 171.7223 143.22442 C 156.06456 187.97035 132.98296 228.4842 102.8225 264.16043 C 122.41349 249.04575 139.53089 231.97666 154.03963 213.08785 Z M 190.36861 115.85722 C 190.36861 125.22394 197.96184 132.81717 207.32856 132.81717 C 216.69529 132.81717 224.28851 125.22394 224.28851 115.85722 C 224.28851 106.4905 216.69529 98.89727 207.32856 98.89727 C 197.96184 98.89727 190.36861 106.4905 190.36861 115.85722 Z M 140.25967 115.85722 C 140.4344 125.08567 147.96542 132.47545 157.19553 132.47545 C 166.42563 132.47545 173.95666 125.08567 174.13139 115.85722 C 173.95666 106.62877 166.42563 99.23899 157.19553 99.23899 C 147.96542 99.23899 140.4344 106.62877 140.25967 115.85722 Z M 165.31414 81.11823 C 165.48887 90.34668 173.0199 97.73646 182.25 97.73646 C 191.4801 97.73646 199.01113 90.34668 199.18586 81.11823 C 199.01113 71.88978 191.4801 64.5 182.25 64.5 C 173.0199 64.5 165.48887 71.88978 165.31414 81.11823 Z" stroke="black" stroke-linecap="round" stroke-linejoin="round" stroke-width="2"/>
          </g>
        </g>
      </g>
    </g>
  </g>
</svg>
