<?xml version="1.0" encoding="UTF-8" standalone="no"?>
<!DOCTYPE svg PUBLIC "-//W3C//DTD SVG 1.1//EN" "http://www.w3.org/Graphics/SVG/1.1/DTD/svg11.dtd">
<svg xmlns:xl="http://www.w3.org/1999/xlink" version="1.1" xmlns="http://www.w3.org/2000/svg" xmlns:dc="http://purl.org/dc/elements/1.1/" viewBox="36 61.625 292.5 289.375" width="292.5" height="289.375">
  <defs>
    <clipPath id="artboard_clip_path">
      <path d="M 36 61.625 L 328.5 61.625 L 328.5 351 L 36 351 Z"/>
    </clipPath>
  </defs>
  <g id="Escallop_(3)" stroke-opacity="1" stroke="none" fill="none" fill-opacity="1" stroke-dasharray="none">
    <title>Escallop (3)</title>
    <g id="Escallop_(3)_Layer_2" clip-path="url(#artboard_clip_path)">
      <title>Layer 2</title>
      <g id="Graphic_66">
        <path d="M 122.75865 66.94175 C 118.8555 69.9882 118.29776 78.09142 121.53429 83.73402 C 122.49947 85.4464 123.35125 87.61543 123.38508 88.5843 C 123.41892 89.55317 124.08595 91.98733 124.8063 94.09629 C 127.95281 102.71685 128.58683 106.05754 128.71027 113.29626 C 128.71642 117.17625 128.53331 121.19218 128.24419 122.17232 C 127.72602 124.00117 120.07515 128.98925 106.9371 136.10905 C 103.63475 137.84111 98.49535 140.67205 95.51144 142.26366 C 88.40354 146.13339 68.23859 153.88659 65.07363 153.99711 C 63.71721 154.04448 61.98904 154.55752 61.1674 155.10357 C 60.412605 155.71196 57.66 156.51945 55.08537 156.86804 C 49.68227 157.70342 46.313073 159.37315 43.076133 162.97836 C 40.39796 165.91736 37.52765 172.61393 36.616814 178.01334 C 35.85915 182.24334 36.62338 193.01653 37.825184 195.94938 C 40.0057 200.98216 40.14698 203.176 38.578134 206.39962 C 36.524135 210.54555 36.782706 216.09813 39.20744 224.42055 C 41.259593 231.33324 42.512457 233.8763 44.92345 236.24955 C 46.264896 237.62544 46.412123 238.13766 45.87817 239.51438 C 44.38519 243.0587 48.23626 253.33607 55.355234 264.5987 C 56.86195 267.00355 58.96578 269.84023 60.03307 270.773 C 61.43685 272.08206 61.927335 273.16432 61.99049 274.97287 C 62.10327 278.20243 66.67079 286.77337 70.84912 291.60704 C 74.48817 295.81285 77.34002 297.84737 81.12916 298.94378 C 83.15404 299.51977 83.61972 299.89152 83.39519 300.8694 C 82.77491 303.47787 84.5648 306.5842 89.12165 311.14597 C 94.48067 316.45577 98.71601 319.218 103.1488 320.22728 C 105.49664 320.792 106.42122 321.34173 107.05216 322.74244 C 109.08094 327.1338 129.77985 338.37493 136.7805 338.84183 C 138.85419 338.96343 141.30414 338.74853 142.51558 338.25354 C 144.30158 337.54447 144.75823 337.65787 145.95696 338.65072 C 148.02244 340.38935 150.4484 341.33936 159.79095 344.0526 C 170.04905 347.0572 175.81797 347.4378 190.45535 346.21527 C 204.2553 345.08666 212.12333 342.61313 215.40907 338.55352 C 216.649 337.0228 217.16123 336.8756 218.92098 337.26682 C 220.09264 337.4846 223.26212 337.50325 226.03503 337.27707 C 236.48527 336.52412 248.864 329.88354 250.72792 323.99815 C 251.02607 323.27637 252.17292 322.78363 254.55603 322.5064 C 259.70527 321.80923 264.6667 319.4372 269.8789 314.98697 C 275.59654 310.19574 276.58038 308.73864 276.46986 305.57368 C 276.39317 303.37758 276.51333 303.1147 278.1281 303.0583 C 279.7429 303.00192 285.39225 299.95916 288.2199 297.59697 C 288.9101 296.99084 291.46136 294.12094 293.88117 291.19096 C 298.4091 285.66524 301.4492 280.1268 301.35672 277.47857 C 301.31387 276.25134 301.75247 275.848 303.67216 275.2636 C 309.62726 273.56824 320.6543 252.29478 319.36597 245.03207 C 318.89947 242.7849 319.01512 242.39285 320.28665 241.76642 C 323.78503 240.09217 326.0611 229.34215 325.79473 216.1588 C 325.66083 210.47251 325.40165 208.60614 324.51685 207.34364 C 323.08826 205.32409 323.11676 204.28837 324.6977 203.26311 C 327.16037 201.56037 327.88277 198.1723 327.7382 188.47686 C 327.45605 174.84136 324.39053 162.98448 320.65245 161.49826 C 320.0621 161.2602 317.14648 161.10334 314.10844 161.14476 C 311.0704 161.18618 306.85167 160.75147 304.69987 160.24458 C 300.91523 159.27736 299.3425 158.68558 290.7457 155.10559 C 288.44893 154.15108 284.44797 152.5447 281.82824 151.60147 C 279.27084 150.59139 274.74187 148.6801 271.91257 147.2915 C 269.01868 145.90514 262.8411 143.08138 258.1116 140.9831 C 253.44893 138.94714 248.8486 136.84434 247.92403 136.2946 C 247.0017 135.80945 244.8987 134.84817 243.19226 134.13172 C 241.41898 133.35293 240.03324 132.56061 240.02196 132.23766 C 240.01294 131.9793 239.02152 131.36722 237.77624 130.89334 C 236.53096 130.41947 235.0671 129.24186 234.51428 128.22645 C 233.13675 125.8171 231.84472 120.3006 231.7139 116.55431 C 231.58082 112.74343 234.14006 102.69489 237.6817 93.00007 C 242.70054 79.30879 243.11187 72.56875 239.15213 68.438816 C 237.1377 66.31038 233.40638 65.017945 232.27532 65.96282 C 230.32713 67.58293 203.4972 73.3701 198.19395 73.36128 C 196.77069 73.34631 194.50549 73.29608 193.2114 73.2766 C 191.14223 73.284185 190.74792 73.103944 190.7028 71.81212 C 190.58408 70.26419 187.58418 65.84205 185.86872 64.86724 C 184.15326 63.892425 181.41193 65.02287 180.77135 67.05001 C 179.78383 70.25332 178.8045 71.8396 177.5375 72.59521 C 175.5735 73.76319 162.5794 73.8936 157.7568 72.83328 C 152.86961 71.77522 149.40794 70.79671 145.6721 69.37509 C 144.22855 68.7788 139.67108 67.903235 135.57702 67.33483 C 131.48522 66.83102 127.26198 66.26713 126.15717 66.1117 C 124.92317 65.960786 123.70496 66.26201 122.75865 66.94175 Z" fill="black"/>
      </g>
      <g id="Graphic_65">
        <path d="M 135.65822 69.660115 C 139.04628 70.38251 144.07168 71.69443 146.74924 72.441635 C 151.32476 73.83393 157.9026 75.15631 164.98815 76.20227 C 166.61195 76.40425 169.91512 76.54758 172.36958 76.46187 L 176.82863 76.37082 L 176.44867 78.45353 C 176.02667 81.1844 175.89975 81.25351 173.91464 79.96476 C 172.92548 79.41727 172.00992 79.12589 171.75833 79.32869 C 171.13722 80.06175 172.29843 81.83196 173.60153 82.1098 C 175.16525 82.44321 175.2524 83.08687 173.93659 84.29688 C 173.12171 85.0367 172.7274 84.85646 171.3146 83.28905 L 169.6344 81.4723 L 170.12345 84.36536 C 171.00989 89.37866 171.02342 89.76621 169.9344 90.06292 C 169.16381 90.21917 168.75597 89.65138 168.37662 88.04788 C 168.0754 86.82967 167.24166 85.17737 166.50184 84.36249 L 165.09354 82.92427 L 165.60207 84.52326 C 166.7686 88.29804 167.41473 93.8371 166.79588 94.63474 C 165.49811 96.36148 164.373 95.62473 164.28503 93.10568 C 164.23766 91.74926 163.72688 90.08568 163.18534 89.39322 C 162.3073 88.3245 162.254 88.64971 162.41414 93.23568 C 162.61632 97.17349 162.40532 98.53892 161.59947 99.53711 C 159.98326 101.40431 159.39517 101.23084 159.3072 98.71178 C 159.20119 95.676 158.38016 92.53584 157.73425 92.5584 C 157.4113 92.56967 157.20707 94.12888 157.27022 95.93744 C 157.50255 102.59033 156.12153 107.4888 155.78258 101.48633 C 155.66385 99.9384 155.13953 97.88727 154.58897 96.93645 C 153.62154 95.15947 153.56146 95.29091 153.3521 100.40715 C 153.14726 105.65256 152.3978 108.26553 151.23515 108.30613 C 150.8476 108.31967 150.54188 106.97227 150.48097 105.22831 C 150.32308 100.70693 149.25805 99.83874 148.95027 103.98837 C 148.6958 107.81278 147.5836 111.14978 146.72587 110.66238 C 146.39615 110.47988 146.08816 109.0679 146.03403 107.51771 C 145.9799 105.96752 145.66965 104.49095 145.27534 104.31071 C 144.87877 104.06588 144.64296 104.72081 144.6813 105.81886 C 144.76927 108.33792 143.17049 114.40805 142.3954 114.43512 C 142.00785 114.44865 141.69535 112.90749 141.56534 111.0366 C 141.43903 107.41949 141.12961 107.81832 139.69753 113.10659 C 138.16108 119.10988 136.04311 119.57186 137.12968 113.64895 C 137.62528 111.17419 137.57566 109.75318 137.09646 108.99388 C 136.4122 107.91838 136.41446 107.98297 136.39046 109.14787 C 136.41753 109.92296 135.91065 112.07477 135.26781 114.03732 C 134.56038 116.00212 133.92431 118.15844 133.68625 118.74878 C 132.99912 121.2949 132.42375 119.63358 131.73929 112.99648 C 131.34784 109.19462 130.75586 105.20576 130.39681 104.18358 C 129.4624 101.50007 127.56423 95.29338 126.17686 90.75026 C 125.5211 88.63905 124.24343 85.3855 123.33833 83.54168 C 121.94952 80.80937 121.64604 79.52657 121.78937 76.2234 C 121.92819 72.791045 122.22408 72.00467 123.91391 70.393585 C 126.41861 68.04267 127.70818 67.93297 135.65822 69.660115 Z" fill="#FFFFFF"/>
      </g>
      <g id="Graphic_64">
        <path d="M 186.4968 69.88956 C 187.6535 71.53059 187.67994 75.99189 186.56037 103.19235 C 186.13038 113.10187 188.93734 200.89028 189.99294 210.74792 C 190.37536 214.2914 191.01922 219.76587 191.51955 222.9819 C 191.95303 226.13558 192.73284 231.7993 193.18662 235.5343 C 193.70499 239.26707 194.29246 243.12675 194.45999 244.22028 C 194.68985 245.24698 195.44485 250.2002 196.13526 255.15567 C 196.89026 260.1089 197.79925 265.7681 198.18987 267.69456 C 198.5159 269.62327 199.10563 273.54754 199.46324 276.38053 C 199.82085 279.21352 200.54879 283.39165 201.08213 285.70114 C 202.65733 291.9191 203.70227 297.7676 205.1725 308.3868 C 206.216 316.04607 207.05056 319.57377 209.40988 326.02304 C 210.98878 330.4948 212.61196 334.383 212.88386 334.7615 C 215.09431 336.94776 211.95047 339.515 204.26945 341.788 C 197.7398 343.69744 179.1646 345.12214 171.44217 344.3571 C 166.25007 343.82704 152.52578 339.71473 149.22179 337.696 C 147.37263 336.5965 147.14503 335.6344 148.22196 333.13935 C 148.75816 331.82723 149.3928 331.48172 151.1991 331.35397 L 153.52212 331.2082 L 151.4349 330.69904 C 150.26099 330.4167 149.26956 329.8046 149.25377 329.35247 C 149.23798 328.90033 150.09407 325.63694 151.19725 322.04157 C 152.99432 316.09385 154.86192 308.46225 156.92023 298.8839 C 158.09168 293.54005 160.26994 278.1372 163.41522 253.38813 C 164.21861 246.76375 165.15795 240.32862 165.50264 239.08785 C 165.78274 237.84934 166.03803 235.90033 165.99743 234.7377 C 165.95683 233.57505 166.19858 231.2385 166.46064 229.48325 L 167.06062 226.29347 L 176.23482 226.03777 C 182.82537 225.8723 185.85214 225.50792 186.92989 224.88825 C 189.27014 223.3838 187.55468 222.40898 184.48588 223.42152 C 183.08066 223.92328 178.69974 224.39962 174.6951 224.53946 L 167.46088 224.7921 L 167.71617 222.84307 C 168.09162 220.63119 169.08714 210.24923 170.3521 194.6196 C 171.2252 184.43594 171.38207 181.52031 171.87665 171.60854 C 172.06427 167.7218 172.65133 160.45826 173.67085 148.91141 C 174.04548 144.82413 174.78345 136.3266 175.27742 130.10103 C 177.0341 108.18125 177.899 99.61462 179.16273 91.35741 C 179.68233 87.71775 180.13057 83.88657 180.09674 82.9177 C 180.03133 81.04456 181.51815 73.620265 182.01458 73.0209 C 182.76486 72.28333 182.87682 73.63749 182.43986 77.79162 C 182.14028 80.32421 181.84747 83.05057 181.68527 83.96162 C 181.11461 87.99108 180.51258 96.67787 180.22223 105.03043 C 180.07295 110.01523 179.84412 116.42555 179.7496 119.27432 C 179.52752 125.87841 179.37004 132.48024 179.13751 140.63677 C 179.0678 144.19605 178.7346 151.32138 178.3983 156.50672 C 177.28509 172.77775 177.02939 183.97457 177.73907 182.07436 C 177.97262 181.35484 178.47561 175.38764 178.89146 168.77678 C 179.2427 162.16819 179.85827 153.86894 180.18635 150.30064 C 180.57903 146.73008 180.97765 141.4779 181.07217 138.62912 C 181.1667 135.78034 181.41584 129.95134 181.58993 125.67705 C 181.76401 121.40276 182.06564 113.37315 182.26147 107.86937 C 182.72509 93.36712 183.40298 85.00102 184.52933 78.36536 C 185.86893 70.428846 185.85314 69.97671 183.86886 70.56336 C 182.77983 70.86007 182.2586 70.74893 182.2383 70.16761 C 182.15935 67.90692 184.93226 67.68075 186.4968 69.88956 Z" fill="#FFFFFF"/>
      </g>
      <g id="Graphic_63">
        <path d="M 236.59186 71.05035 C 237.6614 72.04772 237.9581 73.13675 238.08668 76.81844 C 238.24908 81.46901 237.96673 82.64292 232.3719 98.35908 C 231.08172 102.15499 229.47392 107.96676 228.87845 111.28572 C 227.90979 116.88116 227.9346 117.59167 228.97646 121.50015 C 230.38865 126.75377 230.4067 127.2705 229.07653 126.21756 C 227.2807 124.79286 226.01655 121.92686 225.47788 117.61279 C 225.20516 115.35886 224.68084 113.30773 224.4157 113.12298 C 223.75627 112.75799 223.7052 113.1478 224.0216 118.50435 C 224.30642 122.95663 223.5584 123.75879 221.9022 120.77714 C 220.73196 118.74857 219.64499 113.54826 219.12354 107.87552 C 218.81022 104.45895 217.92789 108.82265 218.08127 113.21485 C 218.10239 115.67157 217.9117 117.61832 217.52414 117.63186 C 216.55527 117.66569 215.97006 113.8706 216.00512 107.46705 C 216.00717 101.97004 215.62331 100.23736 214.86032 102.46278 C 214.68233 102.92168 214.39178 105.71264 214.2349 108.62826 C 214.09158 111.93143 213.70486 113.82036 213.3128 113.70472 C 212.00744 113.36228 211.429 109.76096 211.43022 102.38855 C 211.50199 93.33225 210.54214 93.62445 209.83123 102.89708 C 209.32598 108.79968 209.15702 109.51695 208.28801 108.70659 C 206.81513 107.27062 206.01133 102.77179 206.17557 96.36373 C 206.31132 90.99139 206.23545 90.67069 205.36952 91.80032 C 204.813 92.53112 204.35718 94.29312 204.3422 95.71639 C 204.3295 97.20424 204.3213 98.82127 204.21016 99.34251 C 204.1636 99.8615 204.1351 100.89721 204.09533 101.60997 C 204.07134 102.77487 203.87305 102.65245 202.458 101.02045 C 201.04294 99.38844 200.8221 98.62012 200.96317 95.25235 C 201.01792 93.11634 201.24163 90.26305 201.38578 88.83527 C 201.72063 85.46074 200.1239 86.03386 199.4706 89.54885 C 198.70843 93.64967 198.59052 93.97714 197.92205 93.35379 C 197.31818 92.72817 197.00711 89.3762 196.78976 81.30005 L 196.68067 76.32427 L 199.52268 76.22503 C 203.0106 76.10323 215.08156 73.61226 221.73814 71.63372 C 228.45932 69.65293 234.85384 69.429624 236.59186 71.05035 Z" fill="#FFFFFF"/>
      </g>
      <g id="Graphic_62">
        <path d="M 195.1719 79.41645 C 194.73043 83.4414 194.04248 84.11212 193.04798 81.560055 C 191.6967 78.0504 191.90092 76.49119 193.83866 76.42352 C 195.51803 76.364875 195.52029 76.42947 195.1719 79.41645 Z" fill="#FFFFFF"/>
      </g>
      <g id="Graphic_61">
        <path d="M 163.45703 104.58117 C 159.17843 109.8395 148.12473 121.09006 145.0342 123.33209 C 143.70936 124.28373 142.9636 125.15048 143.35565 125.26613 C 143.7477 125.38178 145.77177 124.08237 147.90922 122.32631 C 149.98434 120.6371 151.87922 119.3422 152.01292 119.46687 C 152.41174 119.77629 139.43692 133.42205 135.1087 137.25938 C 133.41661 138.80588 130.08125 141.44448 127.74776 143.14271 C 125.41202 144.77636 122.26592 147.279 120.7631 148.68956 C 119.25802 150.03551 116.2411 152.53365 114.1014 154.22512 C 111.89709 155.91885 107.11222 159.64278 103.39833 162.55328 C 99.75129 165.52612 95.4651 168.71528 93.8819 169.67595 C 92.2987 170.63661 87.05718 174.24716 82.19869 177.71498 C 77.33795 181.11822 71.08553 185.41077 68.29991 187.1248 C 65.51654 188.9034 61.089895 191.77412 58.498046 193.48138 C 54.009063 196.41895 44.371653 201.9291 43.66115 201.9539 C 42.821465 201.98322 41.81569 199.1082 40.485314 192.49365 C 39.16622 186.20206 39.052004 184.78331 39.595595 179.97876 C 41.04469 167.7702 46.547447 160.52902 54.68368 160.18023 C 57.396506 160.0855 57.46335 160.14783 57.06986 161.843 C 56.912175 162.88322 56.32265 164.52055 55.84427 165.63665 C 54.28219 169.05403 53.19788 175.04153 53.951236 176.24395 C 54.7737 177.5733 55.069586 176.78693 55.37962 172.7019 C 55.52152 171.20953 56.684774 167.48272 58.00202 164.4619 C 60.028955 159.54088 60.6478 158.74323 62.50064 158.0965 C 65.88563 156.8789 73.51333 154.93112 73.78298 155.24505 C 73.91667 155.36972 73.46761 157.3255 72.83605 159.611 C 71.50609 164.11967 71.21717 170.66143 72.32875 171.01063 C 72.72081 171.12628 73.00768 170.08154 73.01137 168.33532 C 73.02326 164.97207 74.84883 157.98864 76.43347 155.21717 C 77.3482 153.63314 78.86681 152.67473 83.13803 150.90883 C 86.19555 149.57333 88.94365 148.63666 89.20652 148.75682 C 89.53399 148.87472 89.3921 150.36709 88.93852 152.19368 C 87.86918 156.75792 87.86692 156.69333 88.59096 157.05606 C 88.92068 157.23856 90.00663 155.00186 91.0077 152.1861 L 92.76724 147.01573 L 97.21419 144.72633 C 99.62805 143.47798 101.66339 142.50152 101.79483 142.5616 C 101.86393 142.68853 101.67323 144.63528 101.36689 146.9741 C 100.74066 151.26418 101.15158 153.77196 102.354 153.0186 C 102.67019 152.81355 102.95029 151.57504 102.90744 150.3478 C 102.86233 149.05599 103.36245 146.7104 103.94971 145.00848 C 104.60157 143.3043 105.18658 141.53778 105.29997 141.08113 C 105.41337 140.62448 108.12763 138.71894 111.35863 136.79535 C 115.92348 134.17849 117.19726 133.61665 117.03506 134.52769 C 116.29462 137.39902 116.2249 140.9583 116.77321 141.84453 C 117.1788 142.34773 117.63996 142.5903 117.82471 142.32517 C 118.38573 141.72355 119.31974 133.28385 118.85181 132.8475 C 118.58668 132.66275 119.27463 131.99202 120.35238 131.37236 C 122.12935 130.40493 130.7979 124.92862 140.9182 118.43157 C 149.70916 112.75698 154.94843 109.08184 157.33071 106.92921 C 158.71337 105.78154 160.22973 104.75854 160.68187 104.74275 C 161.134 104.72696 162.58351 103.64162 163.83474 102.43387 C 167.2677 98.88648 167.0522 100.12274 163.45703 104.58117 Z" fill="#FFFFFF"/>
      </g>
      <g id="Graphic_60">
        <path d="M 168.78078 110.73291 C 165.89243 116.91275 164.74188 119.1517 160.19077 127.71772 C 153.93712 139.38268 150.50497 144.80547 145.90567 150.13968 C 143.2966 153.2056 143.5197 154.03852 146.34284 151.54715 C 149.727 148.45415 154.75281 140.51826 162.57757 125.69428 C 164.88768 121.47473 166.84633 118.30218 166.9913 118.7498 C 167.629 120.34428 154.7485 145.95068 152.59978 147.38379 C 152.28359 147.58884 150.82813 150.3558 149.4508 153.50805 C 148.07347 156.6603 145.40514 161.73307 143.50883 164.83878 C 136.4688 176.20785 131.57895 184.333 131.34314 184.98794 C 130.86926 186.23322 122.84991 199.18857 121.24272 201.31413 C 119.69335 203.24366 111.5643 214.90944 108.1787 219.81324 C 107.50429 220.87151 105.08673 223.86608 102.85167 226.53093 C 100.61661 229.19578 97.39321 233.18854 95.78602 235.3141 C 87.49846 246.1447 83.52252 250.81044 75.17406 259.8971 C 66.26458 269.58535 66.01524 269.85274 63.74101 269.54414 C 60.68944 269.198 57.997526 266.18786 53.91598 258.57 C 49.832176 250.88755 48.33366 246.86567 48.26517 243.05254 C 48.21924 239.88531 49.44791 238.03165 51.70634 237.88811 C 52.287663 237.86781 53.494595 237.24364 54.37406 236.50156 C 55.253525 235.75948 56.1375 235.14658 56.331275 235.1398 C 56.58964 235.1308 57.85665 234.37517 59.24608 233.42128 C 60.635506 232.46738 61.83793 231.71402 62.0317 231.70725 C 62.16088 231.70274 62.67618 233.4955 63.14267 235.74266 C 64.28296 240.61776 65.063386 242.59527 67.93185 246.95733 C 70.53067 251.00545 70.87536 249.76468 68.44325 244.9347 C 66.561695 241.05554 64.09185 231.4413 64.61678 229.80622 C 64.96147 228.56546 71.23338 222.97883 72.266835 222.94274 C 72.65438 222.9292 73.1584 224.39902 73.41307 226.1362 C 73.67 227.938 74.38809 229.98236 74.92963 230.67482 C 75.81217 231.87273 75.86098 231.41833 75.3463 225.93936 L 74.746725 219.88133 L 77.56987 217.38995 C 79.13954 216.04174 80.58679 214.8918 80.78056 214.88504 C 81.29729 214.867 82.45706 218.44802 83.09559 221.9179 C 83.64923 224.8087 85.46619 228.69012 85.96262 228.09076 C 86.15189 227.9548 85.90849 226.54057 85.5314 225.00166 C 85.15431 223.46275 84.57586 219.86143 84.22051 217.09304 L 83.59018 212.00612 L 88.70846 206.71847 C 91.51807 203.83954 94.02278 201.48863 94.34573 201.47735 C 94.6041 201.46833 95.24857 203.25658 95.71281 205.43915 C 97.03642 211.85992 97.85806 211.31387 97.23142 204.48074 L 96.62959 198.35811 L 100.23603 194.22264 C 102.22852 192.01895 104.1031 190.14273 104.36146 190.1337 C 104.61983 190.12469 105.04121 191.08002 105.27784 192.30049 C 105.7353 194.28928 108.03065 197.0546 108.7186 196.38388 C 108.84101 196.1856 108.60438 194.96513 108.2318 193.5554 C 106.40049 187.41104 106.28484 187.8031 110.89542 182.79185 C 115.31899 177.98114 116.13838 177.3705 116.19702 179.04986 C 116.24664 180.47087 118.93036 185.09806 119.64086 185.07325 C 120.0284 185.05971 120.28 184.85692 120.27324 184.66314 C 120.2394 183.69428 117.87106 176.98664 117.26493 176.29643 C 116.6588 175.60623 124.299 166.60899 134.09697 156.437 C 136.59265 153.82773 140.07442 149.82595 141.80177 147.43751 C 143.52913 145.04907 146.49868 141.19452 148.35747 138.86616 C 151.76563 134.60827 153.79789 131.69182 160.35276 121.24507 C 162.19125 118.3354 164.6576 114.88643 165.77514 113.55401 C 166.89267 112.22159 168.36617 109.97135 169.0293 108.59013 C 170.2264 105.83219 171.14564 104.37735 171.53318 104.36381 C 171.66236 104.3593 170.46979 107.24643 168.78078 110.73291 Z" fill="#FFFFFF"/>
      </g>
      <g id="Graphic_59">
        <path d="M 165.74192 108.89893 C 164.83395 110.67673 163.17796 113.25668 162.12953 114.71604 C 161.0811 116.17539 158.55918 119.88497 156.59827 122.99293 C 154.57278 126.10315 150.87775 131.40578 148.28221 134.85925 C 145.75127 138.31047 142.23197 143.0896 140.44228 145.54489 C 136.74275 150.71833 126.02103 162.21597 124.85839 162.25657 C 124.40625 162.27236 123.28195 163.411 122.3582 164.73667 C 116.08117 173.88032 88.98774 203.60456 76.764635 214.70193 C 73.50514 217.66124 68.867495 221.8974 66.42513 224.18146 C 55.33534 234.39855 48.781696 237.4729 45.74427 233.8281 C 43.51803 231.1897 40.085263 219.92767 39.831203 214.50427 C 39.61467 208.30352 40.4806 207.1739 48.60617 202.81593 L 55.778657 198.94395 L 56.45779 203.57647 C 57.21053 208.4651 58.6422 212.42464 59.74025 212.3863 C 60.644526 212.35471 60.64678 212.4193 58.92517 207.5645 C 57.642984 204.18178 57.466434 202.82988 57.82158 200.03667 C 58.28787 196.72222 58.41254 196.58852 62.39833 194.05655 C 66.38637 191.58917 66.5133 191.52007 66.75669 192.9343 C 67.34191 196.7294 68.74733 201.78924 69.342186 202.15649 C 69.738755 202.40132 69.7447 200.7197 69.36679 197.30538 C 69.006926 194.4078 68.90317 191.4366 69.07213 190.71934 C 69.41908 189.54317 78.25433 183.285 79.61074 183.23763 C 79.9337 183.22635 80.16582 184.31764 80.21093 185.60946 C 80.32822 188.9682 81.55258 192.54696 82.88049 193.5353 C 83.87868 194.34116 83.93876 194.20972 83.41445 192.1586 C 82.42589 187.9249 81.8985 183.93378 82.29425 182.30321 C 82.51427 181.19614 84.33102 179.51595 88.11627 176.79697 L 93.67398 172.98137 L 94.13001 176.78097 C 94.58605 180.58057 96.03494 183.18145 96.96998 182.17874 C 97.28165 181.8445 97.24331 180.74646 96.88201 179.65969 C 96.30438 177.93377 96.34108 175.28102 96.93204 171.83288 C 97.0319 170.98868 98.72173 169.3776 101.18439 167.67485 C 103.39546 166.1749 105.4105 164.61712 105.65533 164.22055 C 106.32523 163.0331 107.11612 163.45817 107.89654 165.43569 C 109.03601 168.43538 110.17835 167.81346 109.61118 164.5351 C 109.04852 161.38592 109.60277 160.59053 114.91114 157.04232 C 116.61901 155.94796 117.93934 154.86714 117.92806 154.54418 C 117.88746 153.38154 119.07942 154.18063 119.51885 155.65269 C 120.25724 158.27837 121.26363 157.46719 121.15311 154.30222 L 121.05386 151.46021 L 126.921 147.24579 C 130.07386 144.93691 132.78136 142.8376 132.89927 142.51013 C 133.01717 142.18266 134.83167 140.43788 136.96687 138.61723 C 141.9898 134.30295 152.9053 122.79854 157.9875 116.47743 C 160.2203 113.74799 162.51995 111.08089 163.08548 110.60845 C 163.7156 110.13375 164.64161 108.87269 165.12 107.75659 C 165.66523 106.70283 166.3464 105.83834 166.73396 105.8248 C 167.1215 105.81127 166.65214 107.18573 165.74192 108.89893 Z" fill="#FFFFFF"/>
      </g>
      <g id="Graphic_58">
        <path d="M 174.79165 114.33853 C 174.45824 115.90226 174.21874 118.3034 174.26836 119.72441 C 174.31573 121.08083 174.02374 125.68259 173.65588 129.96365 C 173.28576 134.18012 172.86459 138.78639 172.78503 140.2119 C 172.64087 141.63968 172.06058 149.09699 171.48705 156.74807 C 170.84893 164.4014 170.15607 174.19076 169.8528 178.46956 C 169.61412 182.74611 169.05781 189.03852 168.65837 192.4153 C 167.75512 199.8839 167.65978 200.85727 166.52769 214.73617 C 166.0247 220.70336 165.18153 228.0405 164.57253 230.97192 C 164.02586 233.8365 163.08878 240.3362 162.48736 245.3368 C 161.24926 256.1799 158.08287 278.47226 157.00307 284.58895 C 156.56754 286.93227 155.77235 291.93963 155.12808 295.71298 C 152.96028 309.56338 146.20835 332.88632 143.76147 335.0412 C 143.1982 335.57824 140.94879 335.98014 137.913 336.08615 C 133.26244 336.24855 132.6766 336.13967 126.42541 333.0598 C 118.7284 329.31905 111.04636 324.15504 109.60423 321.74794 C 108.64357 320.16474 108.63003 319.7772 109.89171 317.017 C 111.02872 314.3905 111.40499 314.054 112.26949 314.7352 C 112.802 315.16928 113.74914 316.36493 114.3688 317.4427 C 116.09636 320.61585 125.27159 327.79716 130.99252 330.50752 C 135.13394 332.43234 140.33056 333.09158 140.27868 331.606 C 140.25387 330.89548 139.2647 330.348 137.50495 329.95675 C 130.86252 328.63664 118.82272 320.90866 114.22301 315.11966 L 112.2619 312.666 L 113.33432 310.04177 C 115.18326 305.57964 115.6354 305.56385 119.96916 309.2927 C 126.90543 315.32347 130.14258 317.27987 132.98459 317.18062 C 134.66396 317.12198 134.04204 315.97964 132.09077 315.65976 C 131.11288 315.43523 129.54014 314.84345 128.54872 314.23137 C 125.90642 312.64222 120.50086 307.8514 118.73803 305.52018 L 117.11116 303.3782 L 118.50428 300.6781 C 119.29208 299.16318 120.14448 297.646 120.39157 297.31402 C 120.70099 296.9152 122.81978 298.32862 125.4268 300.7597 C 129.83192 304.68008 133.73077 307.06606 134.94447 306.63565 C 135.26291 306.4952 133.92823 305.31307 131.94088 303.95974 C 128.29589 301.43555 122.19479 295.2463 122.15193 294.01905 C 122.12261 293.17937 126.14797 284.37303 126.95833 283.50402 C 127.27001 283.1698 129.85222 284.89037 132.84905 287.37252 C 135.84362 289.79007 138.7578 291.75775 139.33913 291.73745 C 139.98504 291.7149 139.10701 290.64616 136.90783 288.78286 C 135.04289 287.23124 132.36226 284.54404 131.07412 282.84294 C 128.29957 279.3183 128.25446 278.0265 131.18341 273.0093 L 133.07522 269.7744 L 135.81593 272.33016 C 138.75268 274.94374 141.4573 276.46605 142.01833 275.86442 C 142.20533 275.6639 140.32686 273.7247 137.8603 271.61207 L 133.326 267.6962 L 135.22149 262.7151 C 136.2248 259.96393 137.48648 257.20373 137.91607 256.54203 C 138.65282 255.4169 138.782 255.4124 140.63566 256.64107 C 142.8859 258.11457 145.49886 258.86403 145.4718 258.08894 C 145.46052 257.76598 144.12584 256.58386 142.4682 255.41302 C 139.28663 253.196 138.71577 251.66386 140.24934 249.2822 C 140.74126 248.55364 141.38635 246.6557 141.71977 245.09196 C 142.509 241.76624 143.56113 238.56067 143.88408 238.5494 C 144.07786 238.54263 145.3299 239.21027 146.78248 240.06493 C 150.81051 242.4464 151.17776 241.85154 147.8264 238.4764 L 144.74468 235.41518 L 145.84109 231.62604 C 147.9603 223.79164 149.07926 220.6484 149.84533 220.36298 C 150.29296 220.218 150.6272 220.5297 150.6475 221.111 C 150.6926 222.40283 154.73642 225.23644 156.48038 225.17553 C 157.32007 225.1462 157.88785 224.73836 157.86755 224.15704 C 157.84951 223.64032 157.44617 223.2017 156.92944 223.21976 C 155.44385 223.27163 152.5762 220.78498 152.99451 219.80032 C 153.22806 219.0808 152.8315 218.83596 151.60426 218.87882 C 150.05407 218.93295 149.91812 218.7437 150.24928 217.11538 C 150.47381 216.1375 150.82302 215.0259 151.0701 214.69393 C 151.31493 214.29736 152.07342 211.94275 152.8274 209.45897 C 153.51452 206.91285 154.33985 204.62058 154.65153 204.28634 C 154.89861 203.95436 155.99892 203.9806 157.1796 204.45674 C 160.06222 205.52014 160.48052 204.53548 157.95388 202.55427 C 156.7574 201.626 155.74568 200.4326 155.72764 199.91588 C 155.7096 199.39915 156.49883 196.07342 157.47283 192.48256 C 159.6964 183.93315 160.89267 179.29982 161.377 176.5021 C 161.6571 175.26359 162.50868 171.87101 163.24912 168.99968 C 166.9829 155.54729 168.22346 150.33037 168.17158 148.84477 C 168.14 147.9405 168.43138 147.02494 168.8099 146.75305 C 169.3176 146.47664 169.39799 146.92652 169.18248 148.16277 C 167.4945 159.08627 166.65953 164.80638 166.92466 164.99113 C 167.86052 165.86383 170.53664 148.05081 171.8264 133.13169 C 172.24533 128.46083 172.76862 123.07495 173.0239 121.12594 C 173.34379 119.17467 173.85662 115.34124 174.15169 112.67946 C 174.55564 109.43186 174.9071 108.38487 175.0814 109.67218 C 175.24666 110.70113 175.12507 112.77481 174.79165 114.33853 Z" fill="#FFFFFF"/>
      </g>
      <g id="Graphic_57">
        <path d="M 200.91355 114.20238 C 200.60187 114.53661 199.20178 111.48135 199.16118 110.3187 C 199.20998 109.86431 199.62009 110.49669 200.24426 111.70362 C 200.80385 112.91281 201.10056 114.00184 200.91355 114.20238 Z" fill="#FFFFFF"/>
      </g>
      <g id="Graphic_56">
        <path d="M 169.5815 113.29175 C 168.85152 114.61064 168.7088 114.2276 169.23148 112.52793 C 169.46955 111.93759 169.78122 111.60336 169.91717 111.79262 C 170.11546 111.91503 169.9465 112.6323 169.5815 113.29175 Z" fill="#FFFFFF"/>
      </g>
      <g id="Graphic_55">
        <path d="M 210.86592 115.8596 C 216.31434 121.87765 228.10028 129.74383 242.18443 136.75371 C 245.08058 138.20465 246.09005 139.33346 248.98107 144.34143 C 250.01535 146.18074 250.21363 146.30315 250.16852 145.01133 C 250.14145 144.23623 249.77564 143.02028 249.36103 142.25872 C 248.94867 141.56175 248.73008 140.85801 248.91935 140.72207 C 249.04176 140.52378 251.7952 141.59169 254.94744 142.96902 C 260.00668 145.2498 260.93576 145.92873 262.3779 148.33582 C 263.479 150.23747 264.00108 152.224 264.08228 154.54929 C 264.1477 156.42243 264.4647 158.09278 264.79442 158.27528 C 265.85043 158.8851 265.98105 157.06978 265.30418 152.50185 C 264.95784 149.99182 264.75648 147.92941 264.81656 147.79797 C 265.126 147.39915 274.59403 151.8541 275.92645 152.97162 C 277.5931 154.40083 279.80438 158.46249 280.97317 162.30187 L 281.92564 165.5021 L 281.4741 161.83168 C 281.20816 159.77153 280.67257 157.39745 280.18885 156.50896 C 279.76973 155.61822 279.54438 154.7207 279.73138 154.52017 C 279.9184 154.31963 282.33533 155.01127 285.02417 156.08143 C 289.0206 157.55862 290.34402 158.41778 291.7726 160.43733 C 294.15285 163.78172 296.28907 169.39807 296.4041 172.69222 C 296.5454 174.88607 296.619 175.14218 297.16423 174.08842 C 298.07897 172.5044 297.38035 169.16596 295.13525 164.13543 C 294.15203 161.90632 293.43845 159.99114 293.56086 159.79286 C 294.05955 159.25808 304.7616 163.86394 305.96934 165.11517 C 307.71412 166.92967 309.33813 172.69325 309.51406 177.73136 C 309.62007 180.76714 309.93257 182.3083 310.3847 182.29252 C 311.48276 182.25417 310.34226 171.81747 308.92187 168.18089 C 308.2864 166.651 307.78466 165.24578 307.7779 165.05201 C 307.77112 164.85824 309.51734 164.86193 311.6556 164.98127 C 313.92533 165.16069 315.66703 165.0352 315.84727 164.64088 C 316.51943 163.51802 319.2458 163.81083 320.585 165.12214 C 323.3993 167.934 325.6401 178.39695 325.74716 188.86974 C 325.8144 200.0553 324.89742 201.57472 318.2798 200.9651 C 313.80497 200.604 305.3794 196.37134 286.08798 184.69306 C 284.30116 183.52673 281.67015 182.26053 280.4226 181.72207 C 279.11275 181.25045 277.8607 180.5828 277.65565 180.26662 C 277.386 179.95268 274.6746 178.2366 271.57567 176.53407 C 262.73776 171.60443 251.85835 163.77127 241.25904 154.6996 C 237.99483 151.9681 234.46323 148.98728 233.46278 148.11683 C 225.27447 141.41842 222.9371 139.30127 220.2985 135.9659 C 218.60928 133.89079 216.92006 131.81567 216.51673 131.37706 C 216.18024 131.0008 216.03752 130.61776 216.2313 130.61099 C 216.42507 130.60422 219.69605 133.52948 223.50406 137.01802 C 232.26323 145.24858 240.73247 152.58387 241.04415 152.24964 C 241.16882 152.11595 234.8717 145.86886 226.97927 138.38407 C 214.40306 126.40662 208.4176 119.82529 209.35264 118.82259 C 209.47506 118.6243 210.8856 120.12713 212.50572 122.07532 C 214.06124 124.02577 218.558 128.71898 222.50422 132.46137 C 229.5344 139.32956 237.9495 145.11468 245.30327 148.28538 C 248.84983 149.84295 250.13264 149.53948 247.22972 147.89476 C 237.07066 142.17055 231.05302 138.37115 228.32133 136.07376 C 226.12215 134.21046 218.13356 125.82366 214.02207 121.05232 C 213.34684 120.23519 211.93403 118.66778 210.9914 117.6013 C 208.50004 114.77816 206.32485 111.74996 206.3023 111.10405 C 206.29328 110.84569 206.7567 111.15285 207.36282 111.84306 C 207.90436 112.53551 209.45537 114.35678 210.86592 115.8596 Z" fill="#FFFFFF"/>
      </g>
      <g id="Graphic_54">
        <path d="M 168.45577 116.2412 C 168.01942 116.70913 167.69872 116.785 167.6852 116.39746 C 167.67166 116.00991 167.84739 115.48641 168.09898 115.28362 C 168.28374 115.01849 168.66903 114.94036 168.86957 115.12737 C 169.00552 115.31663 168.82979 115.84013 168.45577 116.2412 Z" fill="#FFFFFF"/>
      </g>
      <g id="Graphic_53">
        <path d="M 205.6808 121.08492 C 210.74023 128.92731 217.5016 137.35697 223.39087 143.03628 C 227.87637 147.40654 243.66942 160.75906 249.71187 165.26896 C 252.63283 167.4304 252.83788 167.7466 253.36076 171.60853 C 253.69807 173.8602 253.74626 177.09202 253.4151 178.72033 C 253.14853 180.34638 253.1313 181.70505 253.38967 181.69603 C 254.35854 181.6622 255.1853 177.55912 255.0432 173.48988 C 254.96426 171.22919 255.02803 169.35153 255.2218 169.34477 C 255.41558 169.338 257.40068 170.62675 259.65317 172.16484 C 264.8867 175.73293 265.78954 177.51216 265.48934 183.73096 C 265.12087 191.69823 266.66265 187.69952 267.2737 179.2711 C 267.25565 178.75436 267.36228 178.10394 267.41785 177.84332 C 267.4689 177.45352 272.60626 180.1196 275.84792 182.20517 C 276.57872 182.76168 277.60172 184.27804 278.0389 185.6855 C 278.8509 188.5673 278.74673 194.84392 277.75613 196.10724 C 277.32203 196.63976 277.33557 197.0273 277.86358 197.33222 C 278.9196 197.94204 279.7111 194.6809 279.55094 190.09493 C 279.44944 187.18833 279.66044 185.8229 280.23274 185.54423 C 281.3796 185.05149 290.21074 189.78735 291.8977 191.79788 C 293.92114 194.18468 294.90067 198.16 294.6019 202.568 C 294.3827 205.55047 294.46986 206.19412 295.0196 205.26955 C 295.44693 204.54325 295.54823 201.88825 295.23942 198.60087 C 295.07107 195.63193 294.92077 193.17972 294.92077 193.17972 C 294.98536 193.17746 296.76315 194.08543 298.87293 195.24049 C 304.07713 197.9689 305.48542 199.40713 307.25132 203.67835 C 308.45313 206.6112 308.70104 208.15462 308.58026 212.1037 C 308.42565 215.08391 308.6022 216.43582 308.8981 215.64945 C 309.54995 213.94526 309.3574 206.57962 308.53864 203.50405 C 308.17057 202.2235 308.00304 201.12997 308.1968 201.1232 C 308.326 201.1187 310.8834 202.12877 313.83962 203.44828 C 316.7936 204.7032 319.7453 205.89351 320.40024 206.12932 C 321.0529 206.30054 322.06464 207.49394 322.62874 208.8323 C 324.86482 213.60447 323.28614 235.06534 320.47878 238.00885 C 319.1074 239.47948 312.1623 238.75196 309.11894 236.7888 C 307.79553 235.92964 304.75442 234.03107 302.375 232.56208 C 292.26474 226.38347 282.47436 218.2536 262.75232 199.8 C 246.37036 184.3986 242.2191 180.34003 239.31085 176.69073 C 238.22777 175.30582 235.93468 172.60509 234.25223 170.72374 C 232.5698 168.8424 230.4104 166.26633 229.461 165.00609 C 228.5762 163.74359 226.61284 161.22535 225.12642 159.40183 C 220.19248 153.30115 214.58248 144.50793 214.52383 142.82856 C 214.50805 142.37642 215.57985 143.43838 216.86798 145.13949 C 222.16323 152.32695 223.84567 154.2083 229.2535 159.0637 C 234.52762 163.79444 240.1487 167.349 240.9568 166.4154 C 241.1438 166.21487 239.6822 165.10185 237.63476 163.87995 C 226.07868 157.04046 213.61874 140.98474 203.0918 119.17056 C 202.11536 117.13523 201.2771 115.35374 201.2726 115.22456 C 201.24327 114.38487 202.19266 115.64512 205.6808 121.08492 Z" fill="#FFFFFF"/>
      </g>
      <g id="Graphic_52">
        <path d="M 153.51122 117.92714 C 153.5225 118.2501 153.21082 118.58433 152.82328 118.59786 C 152.50032 118.60914 152.35986 118.2907 152.54236 117.96097 C 152.7226 117.56666 153.03653 117.29702 153.2303 117.29025 C 153.35949 117.28574 153.4977 117.53959 153.51122 117.92714 Z" fill="#FFFFFF"/>
      </g>
      <g id="Graphic_51">
        <path d="M 199.11792 118.33929 C 200.08391 121.92707 206.36628 135.15903 209.51115 140.0288 C 211.15607 142.68749 213.42291 146.48852 214.59314 148.5171 C 216.2561 151.69252 219.46106 156.43085 224.27936 162.92359 C 228.55611 168.72387 242.1539 184.0285 248.04542 189.7724 C 250.79065 192.45733 252.745 194.7172 252.4243 194.79307 C 252.10585 194.93353 251.83703 196.495 251.76875 198.24347 C 251.62767 201.61123 249.51216 207.6994 248.4787 207.7355 C 248.09115 207.74903 247.84858 208.2102 247.86662 208.72692 C 247.9185 210.21252 248.94068 209.85347 250.36087 207.92845 C 251.9658 205.7383 254.08952 198.03309 253.5164 196.43635 C 253.30007 195.7972 253.34662 195.27822 253.60498 195.2692 C 253.86334 195.26018 259.2689 200.051 265.61935 205.97288 C 274.6414 214.3236 277.2597 217.07763 277.30256 218.30486 C 277.40857 221.34065 276.2363 224.8091 274.01702 227.92608 C 272.84618 229.5837 272.06063 231.16322 272.26117 231.35023 C 272.99648 232.03592 275.64308 228.19264 277.61895 223.66142 C 278.57572 221.42923 279.6752 219.58008 279.93357 219.57106 C 280.25653 219.55978 282.6427 221.22254 285.17386 223.33293 C 289.3649 226.67875 289.90645 227.3712 289.97863 229.43812 C 290.02825 230.85913 289.27428 233.34292 287.9435 235.97618 C 286.7306 238.282 285.8985 240.38048 286.0968 240.5029 C 286.56473 240.93925 288.56767 237.18312 290.23186 232.98613 C 291.00614 231.08366 291.92087 229.49964 292.24383 229.48836 C 292.63137 229.47483 294.94394 230.88148 297.39697 232.60657 L 301.83736 235.685 L 301.95465 239.04375 C 302.08096 242.66086 300.84635 246.19614 298.19524 249.91024 C 296.2253 252.75984 296.63767 253.4568 298.7458 250.86106 C 300.0481 249.2635 302.62476 243.4179 304.1372 238.5795 C 304.42408 237.53478 304.7493 237.5881 307.39384 239.24183 C 308.98237 240.28574 311.4842 241.55645 312.9901 242.0859 C 317.18032 243.5563 317.97654 245.98596 316.3154 252.12295 C 314.37645 259.56303 307.45433 270.60463 303.94693 272.0205 C 302.86016 272.3818 300.9179 272.3203 298.0511 271.70904 C 291.471 270.32207 283.75512 264.1892 272.3723 251.20002 C 269.6113 248.06294 266.3846 244.5541 265.11 243.24054 C 261.01882 239.05052 256.15398 233.07676 250.65368 225.57312 C 236.31895 205.832 234.88134 203.5541 221.6385 179.89466 C 213.22156 164.79714 209.53883 157.4887 210.09985 156.88709 C 210.28686 156.68655 210.75704 157.18749 211.10932 158.0159 C 212.87522 162.28711 215.21343 166.27967 218.05933 169.9958 C 219.7553 172.2647 221.3867 174.53585 221.6631 175.04356 C 221.93952 175.55126 223.51083 177.95385 225.21357 180.41652 C 226.91406 182.8146 228.96683 186.04107 229.7938 187.4996 C 230.62303 189.02272 231.57017 190.21838 231.82853 190.20936 C 232.0869 190.20033 232.34075 190.06213 232.33624 189.93295 C 232.32045 189.4808 222.66725 174.16778 219.7387 169.93716 C 213.33782 160.71888 208.19042 150.35743 203.94872 138.1536 C 201.93942 132.46814 197.46705 117.36222 197.42645 116.19958 C 197.38134 114.90775 198.66721 116.54427 199.11792 118.33929 Z" fill="#FFFFFF"/>
      </g>
      <g id="Graphic_50">
        <path d="M 167.51438 128.17335 C 166.58017 131.05145 165.2502 135.56012 164.63444 138.29776 C 163.17837 144.75093 159.82681 156.1852 158.16487 160.44678 C 157.8089 161.3646 157.15253 162.9396 156.73874 164.05343 C 156.32269 165.10268 155.3126 167.66008 154.476 169.6294 C 153.63939 171.5987 151.85503 176.05857 150.48673 179.46919 C 149.11842 182.8798 147.3318 187.27508 146.55979 189.24214 C 145.78552 191.1446 144.32555 193.78239 143.2681 194.98337 C 142.2775 196.2467 141.41833 197.5701 141.43187 197.95764 C 141.44315 198.2806 140.91596 199.85109 140.25508 201.2969 C 139.59645 202.8073 139.06476 204.24862 139.07603 204.57157 C 139.08506 204.82994 137.05361 209.62178 134.528 215.07758 C 131.94005 220.60023 129.06072 227.03843 127.97928 229.4043 C 126.89784 231.7702 125.55803 234.1451 124.9925 234.61754 C 124.42697 235.08997 124.00866 236.07463 124.03347 236.78513 C 124.07859 238.07696 123.77819 238.73415 118.82374 246.86156 C 117.11443 249.76673 113.87831 255.24734 111.61926 259.07708 C 109.4248 262.90457 107.10116 266.73657 106.48232 267.53422 C 105.93032 268.3942 104.45457 270.57985 103.28598 272.30207 C 101.01114 275.67968 90.23549 291.18874 87.88929 294.37482 C 86.83861 295.7696 86.01246 296.18645 84.01013 296.25637 C 80.199255 296.38945 77.56824 295.12326 74.00958 291.36734 C 70.04532 287.10822 65.36215 278.92934 65.25614 275.89355 C 65.19298 274.085 65.67813 273.16268 68.05365 270.81628 C 69.67889 269.20744 72.36609 266.5268 74.11599 264.78428 C 77.42429 261.3706 78.31278 260.88687 78.37142 262.56624 C 78.47067 265.40825 84.90005 273.59082 87.03156 273.5164 C 87.80666 273.48932 87.66394 273.1063 86.32475 271.795 C 82.30041 267.6673 79.25089 261.82416 79.80658 259.21796 C 80.1445 257.78342 88.2834 248.2514 89.25226 248.21757 C 89.57522 248.2063 90.68311 250.3017 91.7422 252.85152 C 92.86363 255.3345 93.98731 257.88205 94.32831 258.3875 C 95.2777 259.64774 95.95662 258.71866 95.12965 257.26013 C 94.30719 255.93078 91.80966 249.22765 91.13812 246.6643 C 90.76329 245.19 91.1861 244.3345 94.22701 240.67148 C 97.82669 236.34223 99.40989 235.38156 99.4753 237.2547 C 99.52492 238.6757 106.41711 250.85166 107.12761 250.82684 C 107.9673 250.79752 107.81105 250.02694 106.72571 248.57743 C 105.84091 247.31493 103.59581 242.2844 101.38822 236.47653 C 99.96558 232.77536 99.96332 232.71077 106.31027 225.56944 L 109.85438 221.50082 L 110.58826 223.99732 C 111.53396 227.00378 114.80576 231.80444 115.9038 231.7661 C 116.87267 231.73226 116.96577 230.6943 116.04119 230.14455 C 115.18346 229.65714 112.95865 225.20794 112.00619 222.0077 C 111.28133 219.76957 111.39698 219.3775 113.66505 215.80613 C 114.95154 213.75644 116.85914 210.97369 117.84974 209.71037 L 119.6462 207.44885 L 121.23555 210.36817 C 122.06929 212.02047 123.22147 213.53232 123.67812 213.6457 C 124.79196 214.0595 124.75812 213.09064 123.5188 210.93514 C 122.96823 209.98431 122.2569 208.13373 121.82425 206.85544 C 121.16624 204.67964 121.28189 204.28758 123.67689 200.6471 C 126.93782 195.87699 128.43838 194.40185 128.93563 195.67788 C 129.0806 196.1255 130.09684 197.4481 131.16864 198.51005 C 132.57693 199.94828 133.0381 200.19086 133.07336 199.34892 C 133.05306 198.7676 132.77214 198.1307 132.44242 197.9482 C 132.17729 197.76346 131.35032 196.30493 130.71486 194.77504 L 129.51531 191.90678 L 131.59863 188.60054 L 133.6797 185.2297 L 135.56043 187.23346 C 137.90909 189.67357 138.51665 188.55296 136.53073 185.38882 C 134.75211 182.60545 134.74084 182.2825 136.34577 180.09234 C 138.68971 176.84166 148.57831 160.00551 151.23988 154.73898 C 153.72346 149.93134 156.41886 145.63367 156.44818 146.47336 C 156.45495 146.66713 156.22816 147.58043 155.87219 148.49824 C 154.8779 151.50778 155.80616 150.3113 158.16282 145.57277 C 159.84957 142.0217 160.533 141.22179 160.88528 142.0502 C 161.23982 142.9432 161.55375 142.67355 162.38585 140.57506 C 162.98214 139.1315 163.81875 137.16218 164.23705 136.17752 C 164.7222 135.2552 165.0511 133.5623 165.01276 132.46425 C 164.9496 130.6557 168.40718 122.2572 169.0088 122.81823 C 169.1425 122.9429 168.51545 125.35758 167.51438 128.17335 Z" fill="#FFFFFF"/>
      </g>
      <g id="Graphic_49">
        <path d="M 195.8369 128.08968 C 195.88877 129.57528 195.82418 129.57753 195.26685 128.43294 C 194.91908 127.73371 194.62012 126.5801 194.5953 125.86959 C 194.49237 124.7738 194.62155 124.76929 195.16535 125.52634 C 195.50635 126.03179 195.80531 127.1854 195.8369 128.08968 Z" fill="#FFFFFF"/>
      </g>
      <g id="Graphic_48">
        <path d="M 168.229 137.52553 C 167.442 140.91585 166.4553 145.99456 165.90863 148.85913 C 165.42656 151.72144 164.6531 155.4993 164.19953 157.3259 C 162.66308 163.32919 158.76567 179.50343 158.03877 182.76231 C 154.7354 197.4284 151.95756 206.7732 150.29931 209.28857 C 149.62039 210.21766 148.73272 212.57677 148.28366 214.53255 C 147.15875 219.3574 143.70056 231.4421 141.82537 237.00454 C 140.94221 239.49283 140.01702 242.6293 139.67233 243.87006 C 139.32764 245.11083 137.74157 249.6931 136.14647 254.01703 C 134.48679 258.3432 132.71597 263.1906 132.12644 264.82795 C 128.53149 274.848 117.70806 298.24844 112.94287 306.2399 C 111.72097 308.28735 110.08077 311.31944 109.23288 312.9658 C 107.24347 317.10947 105.72035 317.9387 101.81105 317.10517 C 96.59413 315.8646 86.36658 306.32726 86.23351 302.5164 C 86.17712 300.9016 86.7246 299.91244 90.72454 294.0818 C 93.55363 289.9088 95.97795 287.108 96.31444 287.48428 C 96.44813 287.60895 97.27285 289.0029 98.10208 290.526 C 100.2465 294.52533 104.9266 300.76422 106.03818 301.11342 C 107.87154 301.76077 107.69951 300.53805 105.68959 298.5388 C 103.14265 295.97627 100.95619 292.62512 98.92064 288.03997 L 97.30873 284.47474 L 98.97375 282.15315 C 100.63651 279.76697 102.82277 277.5565 103.53102 277.4671 C 103.78938 277.4581 104.93705 278.84075 106.096 280.54637 C 108.4785 283.95534 110.68444 286.01242 111.24546 285.4108 C 111.4948 285.1434 110.93973 284.0634 109.99485 282.93234 C 109.04997 281.80128 107.48317 279.52788 106.45566 277.88234 L 104.53884 274.84512 L 105.94098 272.40337 C 106.7333 271.01763 108.20454 268.7028 109.18838 267.2457 C 110.23681 265.78636 111.16056 264.4607 111.22064 264.32927 C 111.34531 264.19557 112.54856 265.3176 114.0237 266.81818 C 116.91164 269.88616 118.13661 269.7787 116.21754 266.6769 C 112.92318 261.23033 112.99905 261.55103 114.15185 259.37666 C 114.75942 258.25606 116.03689 255.948 117.07629 254.23028 L 118.90801 251.12683 L 121.69753 253.2282 C 125.3538 256.07534 125.90806 255.27994 122.68137 251.7711 L 120.06307 249.01706 L 121.51852 246.2501 C 123.57703 242.23335 125.9345 239.37022 126.5429 240.125 C 126.87713 240.4367 127.54785 241.12463 128.20955 241.55422 C 130.00313 242.91432 130.13826 241.22818 128.32212 239.22217 L 126.70652 237.40316 L 129.65044 230.9627 C 131.27486 227.47847 132.71904 224.38855 132.97063 224.18576 C 133.15764 223.98521 134.21366 224.59504 135.2832 225.5924 C 137.95482 228.02124 138.37763 227.16576 136.2535 223.74777 L 134.40804 220.90206 L 136.21496 217.0881 C 142.16062 204.01117 151.38137 182.86545 152.97195 178.41235 C 154.03534 175.52974 155.8197 171.06988 156.89663 168.57481 C 161.26217 158.39853 166.76308 141.84494 167.4824 136.51688 C 167.95094 133.26703 168.76725 130.7164 169.23518 131.15274 C 169.43346 131.27516 168.95364 134.20206 168.229 137.52553 Z" fill="#FFFFFF"/>
      </g>
      <g id="Graphic_47">
        <path d="M 204.49826 152.03844 C 208.86606 162.29777 211.93589 168.72224 214.33417 172.58335 C 215.56673 174.54508 219.14877 180.82231 222.25386 186.40483 C 225.3612 192.05195 228.73595 197.9484 229.6966 199.5316 C 231.47523 202.31497 231.54433 202.4419 230.4268 203.77432 C 228.31416 206.24088 227.76216 207.10087 227.78697 207.81137 C 227.83208 209.1032 229.34844 208.0802 230.69726 205.96365 L 231.98376 203.91396 L 236.06223 209.59183 C 239.666 214.63958 240.08062 215.40114 239.27477 216.39933 C 236.8572 219.3939 234.29325 223.75165 234.7544 223.99422 C 235.61214 224.48163 238.65982 221.01237 239.60757 218.52181 C 240.02136 217.40797 240.50425 216.42106 240.63344 216.41655 C 241.34394 216.39174 249.47012 228.7186 249.37252 229.6274 C 248.73953 233.7237 247.8451 235.88904 245.97503 237.89444 C 244.79065 239.16453 244.0539 240.28965 244.38362 240.47215 C 245.24135 240.95955 249.40656 236.15787 250.1628 233.73867 C 251.03918 231.0566 251.8766 230.96268 253.51476 233.4276 C 254.19902 234.5031 256.56798 237.52453 258.79196 240.09833 C 263.64327 245.68455 263.6681 246.39505 258.9396 251.73377 C 254.33805 257.00338 255.75454 256.82458 260.74364 251.54143 L 264.98472 247.06044 L 267.0014 249.25346 C 272.91098 255.5141 273.39244 256.338 272.9569 258.6813 C 272.4125 261.61047 271.4467 263.5843 268.8489 266.97318 C 267.6758 268.56622 267.00817 269.81826 267.3957 269.80473 C 268.42917 269.76864 270.53505 267.1083 272.538 263.35218 C 273.50604 261.44294 274.60778 259.65838 274.92397 259.45333 C 275.24016 259.24828 277.7668 261.2295 280.50977 263.84983 C 285.1267 268.28017 285.4632 268.65644 284.87593 270.35837 C 284.5222 271.34077 283.5429 272.92705 282.67245 273.9275 C 281.7374 274.9302 281.18993 275.91936 281.32588 276.10862 C 281.79155 276.48038 285.10436 273.19587 286.26392 271.21528 L 287.17866 269.63126 L 289.83674 271.67254 C 291.2961 272.72097 293.73784 274.1231 295.24825 274.78173 C 296.821 275.3735 298.34493 276.41968 298.69044 277.0543 C 299.7893 278.89137 297.06767 284.28935 292.0966 290.08922 C 287.12555 295.8891 283.08645 298.7463 279.03976 299.5343 C 276.40506 300.01432 276.14218 299.89416 273.73345 297.5855 C 266.63416 290.59037 252.72614 273.80918 252.66524 272.06522 C 252.63817 271.29013 249.7982 265.89235 247.39993 262.03124 C 246.16962 260.1341 243.67743 255.43556 241.92732 251.61648 C 240.1126 247.79965 236.70404 240.93433 234.28095 236.3627 C 228.66787 225.6295 226.30712 220.99104 226.29133 220.5389 C 226.28456 220.34513 224.82214 217.35671 223.0878 213.98977 C 221.35123 210.55824 219.11966 205.91526 218.0696 203.62381 C 217.0841 201.3301 216.03856 199.16784 215.76666 198.78932 C 214.82178 197.65826 211.56639 189.62353 210.1054 184.8243 C 209.37152 182.3278 208.16294 179.20118 207.40282 177.80498 C 206.70728 176.40654 205.851 174.10832 205.543 172.69634 C 205.23501 171.28435 204.4388 168.8547 203.7365 167.26248 C 201.69193 162.41896 200.2332 157.68433 198.6174 150.30371 C 197.7047 146.39072 196.86564 142.73383 196.7139 142.09243 C 196.56442 141.51562 196.74014 140.99213 197.0631 140.98085 C 197.38606 140.96957 197.66472 141.54187 197.68953 142.25237 C 197.71209 142.89828 198.36784 145.00949 199.14376 146.85782 C 199.85508 148.70841 202.13853 154.83698 204.08098 160.4601 C 206.02344 166.08323 208.30914 172.2764 209.1519 174.18706 C 209.99467 176.09773 210.91555 178.39369 211.27009 179.28669 C 212.06404 181.65175 216.75172 189.9598 217.41342 190.3894 C 217.74315 190.57189 216.54134 187.63904 214.6643 183.88906 C 211.7372 177.84764 207.88838 167.63485 203.12237 153.37989 C 202.3239 150.88565 201.24676 147.8191 200.68492 146.54532 C 199.4786 143.4833 196.02554 131.63994 196.05179 130.53963 C 196.036 130.0875 197.31142 133.27645 198.88806 137.68362 C 200.4647 142.09079 202.9532 148.53555 204.49826 152.03844 Z" fill="#FFFFFF"/>
      </g>
      <g id="Graphic_46">
        <path d="M 201.0124 167.03426 C 205.76938 181.03085 212.59492 198.70607 214.9399 202.8924 C 215.90958 204.73396 216.75008 206.58004 216.76587 207.03218 C 216.78392 207.5489 215.79557 208.87682 214.6112 210.1469 C 211.29839 213.43142 211.73556 214.8389 215.12198 211.8105 C 218.06754 209.12083 217.46817 208.6244 222.72446 218.40002 L 226.39365 225.3209 L 222.7827 229.3272 C 218.54613 233.93737 219.47973 234.74548 224.11963 230.5739 C 226.3149 228.62182 227.26573 228.07126 227.67358 228.63905 C 228.56063 229.96614 234.65743 241.58783 239.11155 250.61542 L 243.28476 259.00612 L 241.06098 261.99392 C 239.8233 263.58922 237.95322 265.59462 236.94457 266.3412 C 235.8736 267.15465 235.06548 268.08825 235.07676 268.4112 C 235.12413 269.76762 238.10127 267.98224 241.09563 264.8382 L 244.27926 261.5582 L 246.6798 265.4839 C 251.06625 272.57375 252.3349 275.56893 251.48927 277.27988 C 251.06646 278.13535 250.07134 279.2695 249.2497 279.81554 C 246.60003 281.71883 247.78297 282.25955 250.63093 280.47868 C 252.21413 279.518 253.60807 278.6933 253.80184 278.68653 C 253.9956 278.67976 254.6731 279.5615 255.22818 280.6415 C 255.84784 281.71924 258.00498 284.2307 260.01715 286.29455 C 262.02706 288.2938 263.64718 290.242 263.65845 290.56495 C 263.69905 291.7276 261.02088 294.6666 257.4294 297.3788 C 255.34978 298.93883 253.65093 300.29156 253.65544 300.42074 C 253.6825 301.19583 255.45948 300.2284 259.93493 296.9033 C 262.70927 294.8663 265.30112 293.15905 265.62408 293.14777 C 266.01162 293.13424 266.6801 293.7576 267.09696 294.58375 C 267.57616 295.34305 269.06258 297.16657 270.47087 298.6048 C 273.28746 301.48126 274.9865 305.69014 274.01847 307.59938 C 273.23517 309.24348 267.27946 314.62505 264.614 316.0762 C 259.47685 318.97173 252.98923 320.233 250.9305 318.68815 C 249.33972 317.57964 237.93928 294.8259 237.86484 292.6944 C 237.8468 292.17768 237.2091 290.5832 236.4467 289.1224 C 235.68658 287.72622 235.04662 286.06715 235.03083 285.615 C 235.01279 285.09828 234.60494 284.5305 234.14603 284.3525 C 233.62254 284.17678 232.6551 282.3998 231.93476 280.29086 C 231.21667 278.2465 229.45077 273.97528 228.04842 270.85542 C 226.57923 267.67323 224.3897 262.3821 223.23894 259.05943 C 222.0236 255.73904 220.03235 250.5703 218.82829 247.57287 C 214.15927 236.09533 209.84847 223.76457 206.6185 212.75413 C 206.1032 210.96137 205.0884 207.82798 204.37032 205.78362 C 203.58538 203.67692 202.97166 200.91755 202.9243 199.56113 C 202.87693 198.20472 202.40592 195.82838 201.83732 194.36083 C 199.40438 187.65545 196.09465 172.50892 194.055 158.54677 C 193.29323 153.39978 194.52354 155.29691 195.76 161.07403 C 197.00548 167.10951 200.81083 179.78127 201.67758 180.52704 C 202.01407 180.90331 202.295 181.5402 202.31303 182.05693 C 202.3401 182.83202 206.60127 193.74178 209.98134 201.64281 C 210.68815 203.36422 211.53543 205.40407 211.81635 206.04096 C 212.03267 206.6801 212.436 207.1187 212.55843 206.92042 C 212.7477 206.78448 212.37962 205.50393 211.81327 204.10097 C 209.19784 197.7253 202.29417 179.6648 201.63165 177.35982 C 201.19448 175.95235 200.1842 172.94814 199.39249 170.64767 C 198.60078 168.3472 197.78427 165.33623 197.47628 163.92424 C 197.1683 162.51226 196.2556 158.59927 195.4924 155.26308 C 194.66462 151.92915 193.77592 146.85126 193.5475 144.01376 L 193.0441 138.85775 L 195.22174 147.51214 C 196.4221 152.2558 198.99182 161.02584 201.0124 167.03426 Z" fill="#FFFFFF"/>
      </g>
      <g id="Graphic_45">
        <path d="M 193.93915 173.74825 C 195.33862 180.48972 198.2682 192.15735 199.80054 197.1481 C 200.38494 199.06778 201.1504 202.46856 201.48545 204.65563 L 202.07518 208.5799 L 199.16489 210.42762 C 197.58394 211.45288 196.26361 212.5337 196.27715 212.92125 C 196.30873 213.82553 199.37978 212.87758 201.45715 211.25295 L 203.15826 209.96482 L 203.87635 212.00918 C 204.2399 213.16055 205.76774 218.0221 207.29107 222.7545 C 208.7498 227.48912 210.84625 233.81823 211.98572 236.81793 C 213.84103 241.7974 213.92366 242.31187 213.05548 243.3769 C 211.5016 245.17726 206.5049 248.39123 203.69447 249.39475 C 199.86186 250.75732 199.31437 251.7465 202.71966 251.1102 C 205.86658 250.48296 212.9144 246.74467 213.38376 245.3702 C 214.08668 243.27623 215.3748 244.97733 217.93693 251.6782 C 219.43093 255.5709 220.85132 259.20748 220.9963 259.6551 C 221.6986 261.24733 216.738 265.49476 212.2685 267.13825 C 208.24662 268.63677 206.61236 269.98724 209.00223 269.90378 C 210.55242 269.84965 219.26833 265.72975 220.13426 264.60013 C 221.12486 263.3368 222.54812 263.35177 223.11222 264.69014 C 223.32855 265.3293 224.94497 269.0237 226.635 272.9742 L 229.66505 280.11144 L 227.35637 282.52017 C 226.04507 283.85936 223.14154 285.90085 220.8546 287.0801 C 218.12455 288.5335 217.11816 289.3447 217.89777 289.4468 C 219.59067 289.7757 227.33546 285.62506 228.9449 283.5641 C 229.68617 282.56816 230.31855 282.15805 230.39893 282.60794 C 230.41471 283.06007 231.05242 284.65455 231.8794 286.11308 C 232.64178 287.57387 233.83456 290.24835 234.54363 292.03435 L 235.8213 295.2879 L 232.01883 299.36555 C 229.64782 301.84113 226.68873 304.14324 224.3372 305.32475 C 222.1126 306.43715 221.04387 307.3152 221.6297 307.42407 C 223.45405 307.81305 229.3505 304.4383 232.73016 301.21614 C 234.54465 299.47135 236.17666 298.0563 236.37043 298.04953 C 236.5642 298.04276 238.0086 300.51445 239.6002 303.49836 L 242.38008 309.02756 L 240.58813 311.41826 C 238.23968 314.53975 234.77288 317.11827 230.2478 319.0224 C 226.86733 320.36916 225.42685 321.71286 227.3 321.64745 C 228.6564 321.6001 236.96672 316.977 240.17742 314.4721 C 241.87852 313.18395 243.5263 312.22103 243.85604 312.40353 C 244.64692 312.8286 247.50493 318.7431 248.17196 321.17726 C 249.57738 326.2371 241.744 331.5549 229.47477 333.92346 C 222.72878 335.19375 214.08402 333.94356 214.00508 331.68287 C 213.96448 330.52023 209.72279 318.3164 208.83122 316.8601 C 208.4857 316.2255 207.61732 311.7289 206.93142 306.90262 C 206.31012 302.07407 205.41014 296.67323 205.0263 294.94054 C 204.57559 293.14553 203.99714 289.5442 203.71088 286.90274 C 203.42463 284.26127 202.91528 280.78688 202.47135 279.18563 C 202.092 277.58213 201.02901 271.21693 200.03739 265.04324 C 199.11035 258.8673 197.6229 249.60678 196.73196 244.4643 C 192.5161 220.03694 189.80798 185.08041 190.40201 163.20123 L 190.6368 155.1093 L 191.70204 161.53909 C 192.27823 165.07581 193.30964 170.53674 193.93915 173.74825 Z" fill="#FFFFFF"/>
      </g>
      <g id="Graphic_44">
        <path d="M 130.70213 74.03673 C 129.58009 75.23997 129.42015 76.21561 129.58932 81.05994 C 129.7427 85.45214 129.97256 86.47883 130.53358 85.87721 C 130.96993 85.40929 131.34538 83.1974 131.39336 80.867605 L 131.50511 76.66016 L 134.67008 76.54963 C 137.96423 76.4346 138.77008 75.43641 136.9074 73.94938 C 134.98237 72.52919 132.07351 72.5661 130.70213 74.03673 Z" fill="black"/>
      </g>
      <g id="Graphic_43">
        <path d="M 176.96193 187.59844 C 176.35436 188.71905 177.35255 189.5249 179.1611 189.46175 C 181.87393 189.36701 183.78685 188.58884 183.75302 187.61997 C 183.71468 186.52192 177.57175 186.54243 176.96193 187.59844 Z" fill="black"/>
      </g>
      <g id="Graphic_42">
        <path d="M 170.79112 205.33948 C 170.80916 205.85621 177.6386 206.9758 180.15765 206.88783 C 182.99967 206.78858 185.04403 206.0705 185.01245 205.16621 C 184.99215 204.5849 182.98306 204.46104 177.88035 204.63923 C 174.00714 204.83916 170.78435 205.1457 170.79112 205.33948 Z" fill="black"/>
      </g>
      <g id="Graphic_41">
        <path d="M 177.60764 243.12736 C 178.20926 243.68838 180.48574 244.06158 183.59288 244.14708 C 187.73348 244.1965 188.82702 244.02897 189.5082 243.16448 C 189.94004 242.56737 190.2472 242.10395 190.11803 242.10846 C 189.98659 242.04838 186.88396 242.09206 183.2646 242.15378 C 177.57606 242.2231 176.80548 242.37934 177.60764 243.12736 Z" fill="black"/>
      </g>
      <g id="Graphic_40">
        <path d="M 186.30407 260.67258 C 184.70734 261.2457 180.97459 261.76407 177.9388 261.87008 C 173.35508 262.0948 172.65135 262.3134 173.77195 262.92097 C 175.552 263.89352 187.04246 263.29826 189.32715 262.05442 C 191.17097 261.14932 191.51566 259.90856 190.02555 259.83125 C 189.57116 259.78245 187.90306 260.16405 186.30407 260.67258 Z" fill="black"/>
      </g>
      <g id="Graphic_39">
        <path d="M 190.83797 273.83626 C 189.52892 275.24004 185.15702 275.97474 176.49955 276.2124 C 169.5237 276.456 168.04487 276.70165 169.09863 277.24688 C 173.6479 279.73948 195.4586 276.52038 193.54854 273.67693 C 193.00249 272.8553 191.71066 272.9004 190.83797 273.83626 Z" fill="black"/>
      </g>
      <g id="Graphic_38">
        <path d="M 174.85504 284.6769 C 176.1116 285.47374 176.8221 285.44893 176.79277 284.60924 C 176.77924 284.2217 176.1243 283.9859 175.34921 284.01295 C 174.12198 284.0558 174.0619 284.18725 174.85504 284.6769 Z" fill="black"/>
      </g>
      <g id="Graphic_37">
        <path d="M 178.40755 284.55285 C 178.16272 284.94942 179.1406 285.17395 180.81772 285.05072 C 182.94923 284.9763 183.26768 284.83582 182.28302 284.41752 C 180.4474 283.70558 178.83262 283.76197 178.40755 284.55285 Z" fill="black"/>
      </g>
      <g id="Graphic_36">
        <path d="M 192.02542 294.8772 C 188.13047 296.3066 173.3594 297.40445 168.86877 296.5912 C 165.2892 295.94017 163.87946 296.31275 165.59492 297.28757 C 166.98066 298.0799 172.44466 298.98847 176.58526 299.0379 C 182.92873 299.2044 193.84156 296.8832 196.03684 294.9311 C 197.41724 293.71885 197.415 293.65426 196.18776 293.6971 C 195.4795 293.7865 193.62215 294.30407 192.02542 294.8772 Z" fill="black"/>
      </g>
      <g id="Graphic_35">
        <path d="M 196.62329 311.7248 C 195.85947 312.07484 190.9776 313.02136 185.89746 313.84546 C 175.09126 315.5162 173.32556 316.8066 183.25005 315.81333 C 195.04316 314.62547 200.42596 313.20877 199.33386 311.5655 C 198.9215 310.86852 198.53396 310.88205 196.62329 311.7248 Z" fill="black"/>
      </g>
      <g id="Graphic_34">
        <path d="M 196.7537 324.7189 C 190.57407 327.39217 173.75863 329.2081 166.72866 327.90152 C 165.23178 327.63044 164.65272 327.71534 164.99372 328.2208 C 165.74482 329.3586 171.91481 330.1132 178.05097 329.89892 C 186.9623 329.52306 202.03295 325.89263 202.6112 323.93234 C 202.8958 322.823 200.38578 323.16934 196.7537 324.7189 Z" fill="black"/>
      </g>
      <g id="Graphic_33">
        <path d="M 173.595 331.92996 C 173.35017 332.32653 174.52184 332.5443 176.65334 332.46986 C 179.1078 332.38415 179.81154 332.16556 179.08525 331.73824 C 177.7641 330.94366 174.08241 331.07223 173.595 331.92996 Z" fill="black"/>
      </g>
      <g id="Graphic_32">
        <path d="M 155.34216 337.0296 C 155.35344 337.35254 157.32951 338.38293 159.75322 339.26834 C 164.21083 340.9881 164.27542 340.98585 177.77498 340.51443 C 185.71969 340.237 193.19873 339.5878 195.83118 339.0432 C 204.62378 337.1194 207.05569 336.38777 207.0241 335.4835 C 206.98576 334.38544 205.95456 334.48612 201.4092 335.8089 C 199.36257 336.4624 193.1934 337.58322 187.7212 338.29167 C 175.49173 339.94746 167.4043 339.84186 160.67247 337.8135 C 155.31509 336.2545 155.31509 336.2545 155.34216 337.0296 Z" fill="black"/>
      </g>
      <g id="Graphic_31">
        <path d="M 226.69075 74.56493 C 224.3745 74.904495 223.4214 75.39047 223.3193 76.17007 C 223.1128 77.66469 225.65442 78.22264 228.01272 77.2349 C 230.30642 76.24943 230.23957 76.18709 230.94413 77.843905 C 231.36777 78.86383 231.26565 79.64344 230.6468 80.441085 C 229.09744 82.37062 230.02427 82.98495 232.30218 81.54734 C 233.81854 80.52434 234.3082 79.7312 234.26083 78.37478 C 234.13452 74.75768 232.09385 73.72955 226.69075 74.56493 Z" fill="black"/>
      </g>
      <g id="Graphic_30">
        <path d="M 151.19332 114.5159 C 148.19896 117.65996 145.83697 120.39391 146.03752 120.58091 C 146.23806 120.76792 149.05669 118.14737 152.23806 114.80277 C 155.41943 111.45818 157.78367 108.78882 157.39613 108.80236 C 157.07317 108.81363 154.25228 111.3696 151.19332 114.5159 Z" fill="black"/>
      </g>
      <g id="Graphic_29">
        <path d="M 139.59132 124.88023 C 137.01526 127.03962 133.5462 129.55355 131.8293 130.38955 C 128.84766 132.04575 127.97721 133.04619 129.72117 132.98529 C 130.81922 132.94695 139.0221 127.09888 142.404 123.9413 C 146.5362 120.04614 144.55643 120.76198 139.59132 124.88023 Z" fill="black"/>
      </g>
      <g id="Graphic_28">
        <path d="M 137.0897 129.17113 C 134.8208 130.86711 132.9372 132.48497 132.82155 132.87702 C 132.53017 133.79258 133.10924 133.70769 134.1066 132.63814 C 134.54296 132.17021 136.18173 130.94893 137.76493 129.98826 C 141.87764 127.38718 143.32038 126.10807 142.15774 126.14867 C 141.64101 126.16672 139.36084 127.53974 137.0897 129.17113 Z" fill="black"/>
      </g>
      <g id="Graphic_27">
        <path d="M 125.3095 134.43275 C 125.127 134.76247 125.39664 135.0764 125.91337 135.05836 C 126.4301 135.04032 127.06473 134.6948 127.24723 134.36508 C 127.42747 133.97077 127.16008 133.72143 126.64335 133.73947 C 126.12662 133.75751 125.48974 134.03843 125.3095 134.43275 Z" fill="black"/>
      </g>
      <g id="Graphic_26">
        <path d="M 129.71072 134.53773 C 128.88457 134.9546 128.2567 135.49389 128.26572 135.75225 C 128.29504 136.59194 128.93193 136.31102 130.62853 134.8937 C 132.38746 133.40954 131.9954 133.2939 129.71072 134.53773 Z" fill="black"/>
      </g>
      <g id="Graphic_25">
        <path d="M 47.71337 167.99002 C 47.54215 168.6427 46.95714 170.40922 46.490034 171.84827 C 45.67598 174.4635 44.47233 182.58926 43.843234 190.50096 C 43.53094 194.5214 44.306856 196.36974 46.026006 195.59833 C 46.79208 195.3129 46.89194 194.4687 46.476503 191.83175 C 45.826695 188.03891 46.468504 178.63936 47.848704 171.8655 C 48.281977 169.45757 48.5305 167.31479 48.32996 167.12778 C 48.19401 166.93852 47.884587 167.33734 47.71337 167.99002 Z" fill="black"/>
      </g>
      <g id="Graphic_24">
        <path d="M 53.44149 243.13046 C 53.59999 243.96563 54.131076 246.21053 54.5217 248.137 C 56.07066 255.45527 60.8988 264.08178 63.75885 264.49926 C 65.4495 264.76357 64.9988 262.96855 62.78158 260.58852 C 60.16102 257.7699 56.786286 251.87343 56.163545 248.8557 C 55.29741 244.4237 54.29614 241.67787 53.65023 241.70043 C 53.327274 241.7117 53.22065 242.36213 53.44149 243.13046 Z" fill="black"/>
      </g>
      <g id="Graphic_23">
        <path d="M 45.18612 210.43708 C 43.380027 216.12643 43.578517 221.81045 45.77708 227.35996 C 47.625616 232.14565 49.18339 234.1607 50.58635 233.59434 C 51.733204 233.1016 51.68809 231.80978 50.42477 230.81918 C 49.89225 230.38508 48.73556 228.74406 47.90182 227.09175 C 46.653467 224.6779 46.3342 222.94295 46.12218 216.87138 C 45.919997 212.93358 45.74037 209.64168 45.61119 209.6462 C 45.5466 209.64845 45.301767 210.04502 45.18612 210.43708 Z" fill="black"/>
      </g>
      <g id="Graphic_22">
        <path d="M 166.28408 167.01827 C 166.3089 167.72877 166.50943 167.91578 166.68516 167.39228 C 166.86315 166.93338 166.77826 166.35431 166.57772 166.1673 C 166.37492 165.9157 166.19468 166.31002 166.28408 167.01827 Z" fill="black"/>
      </g>
      <g id="Graphic_21">
        <path d="M 243.04053 153.86134 C 243.71802 154.74306 244.64936 155.48658 245.1015 155.4708 C 246.39332 155.42568 246.25737 155.23642 243.93804 153.636 L 241.88383 152.22032 L 243.04053 153.86134 Z" fill="black"/>
      </g>
      <g id="Graphic_20">
        <path d="M 315.9248 168.71238 C 315.8114 169.16903 316.12163 170.6456 316.74807 171.91713 C 317.3099 173.1909 318.07085 176.4625 318.4217 179.10171 C 318.9739 183.80334 320.16894 186.5424 320.0381 182.79612 C 319.95015 180.27707 318.44466 170.49981 317.94064 169.03 C 317.4389 167.62479 316.39866 167.4671 315.9248 168.71238 Z" fill="black"/>
      </g>
      <g id="Graphic_19">
        <path d="M 243.72437 164.18465 C 243.78527 165.92861 244.78798 166.86365 245.3978 165.80763 C 245.8852 164.9499 245.09125 162.58484 244.25156 162.61416 C 243.9286 162.62544 243.69505 163.34497 243.72437 164.18465 Z" fill="black"/>
      </g>
      <g id="Graphic_18">
        <path d="M 318.89475 216.7231 C 319.24806 224.9885 319.0881 225.96414 316.3275 233.95027 C 315.5022 236.24254 317.14095 235.02126 318.09096 232.5953 C 320.53394 226.62502 321.37177 217.2833 320.12404 211.18322 C 319.04157 206.1121 318.4791 208.52453 318.89475 216.7231 Z" fill="black"/>
      </g>
      <g id="Graphic_17">
        <path d="M 230.22667 173.96847 C 229.67918 174.95764 229.20695 179.95371 229.6591 179.93793 C 230.2404 179.91763 231.84 175.7229 231.79264 174.36648 C 231.75656 173.33302 230.77867 173.10849 230.22667 173.96847 Z" fill="black"/>
      </g>
      <g id="Graphic_16">
        <path d="M 240.23502 186.48829 C 240.07733 187.52851 239.67482 188.9653 239.38119 189.81627 C 238.7361 191.71423 238.74286 191.908 239.51795 191.88093 C 240.35764 191.8516 241.19876 190.01148 241.614 187.08683 C 242.03147 184.22678 240.78394 183.68831 240.23502 186.48829 Z" fill="black"/>
      </g>
      <g id="Graphic_15">
        <path d="M 263.70417 206.68645 C 263.52618 207.14536 263.01028 209.0388 262.4921 210.86766 C 262.03854 212.69425 261.20644 214.79275 260.71227 215.4567 C 259.66384 216.91605 259.5287 218.6022 260.5396 217.9202 C 261.3635 217.43873 265.31977 208.50546 265.27917 207.34282 C 265.24082 206.24477 263.99104 205.64172 263.70417 206.68645 Z" fill="black"/>
      </g>
      <g id="Graphic_14">
        <path d="M 312.37515 246.69893 C 312.19266 247.02865 311.92158 248.52553 311.7196 250.14933 C 311.51763 251.77313 310.28753 255.4376 308.96577 258.32923 C 307.7086 261.2186 307.1236 262.98513 307.6801 262.25433 C 309.2873 260.12876 314.60057 247.46192 314.19047 246.82955 C 313.71127 246.07024 312.74014 246.03948 312.37515 246.69893 Z" fill="black"/>
      </g>
      <g id="Graphic_13">
        <path d="M 304.5633 265.59666 C 304.01357 266.52124 303.78002 267.24077 304.0384 267.23174 C 304.6843 267.2092 306.27344 264.5669 305.87236 264.19288 C 305.7364 264.00362 305.11306 264.6721 304.5633 265.59666 Z" fill="black"/>
      </g>
      <g id="Graphic_12">
        <path d="M 151.95202 158.46496 C 151.11992 160.56346 149.5113 164.49983 148.37203 167.06174 C 146.1626 172.31249 145.76685 173.94306 147.4694 170.84412 C 149.35669 167.48004 154.29822 155.27888 153.89714 154.90486 C 153.6966 154.71786 152.84871 156.36421 151.95202 158.46496 Z" fill="black"/>
      </g>
      <g id="Graphic_11">
        <path d="M 70.44824 276.4236 C 70.46854 277.00493 71.79502 279.8041 73.44445 282.59196 C 76.81693 288.42383 81.38507 293.30856 83.05316 292.92696 C 84.91502 292.5386 84.73848 291.1867 82.70006 290.22315 C 80.72849 289.32195 76.67483 284.35458 72.90804 278.34248 C 70.857525 275.1806 70.39185 274.80883 70.44824 276.4236 Z" fill="black"/>
      </g>
      <g id="Graphic_10">
        <path d="M 118.16635 261.37058 C 117.92377 261.83174 117.87722 262.35073 118.07776 262.53773 C 118.67938 263.09875 119.29597 262.2365 118.94144 261.3435 C 118.65826 260.64203 118.52908 260.64655 118.16635 261.37058 Z" fill="black"/>
      </g>
      <g id="Graphic_9">
        <path d="M 91.77543 298.24865 C 91.279 298.848 92.98256 303.1861 94.89713 306.1587 C 96.67574 308.94208 101.5533 313.428 104.11747 314.63184 C 105.69472 315.3528 106.08452 315.40386 106.70111 314.5416 C 107.25762 313.8108 106.91662 313.30536 104.67316 312.02564 C 100.58054 309.64643 95.20799 303.94908 93.25733 299.943 C 92.7 298.7984 92.02477 297.98127 91.77543 298.24865 Z" fill="black"/>
      </g>
      <g id="Graphic_8">
        <path d="M 221.6135 193.99358 C 220.36903 195.3951 220.34053 196.43082 221.56776 196.38796 C 222.21368 196.3654 224.7071 193.69154 224.68454 193.04563 C 224.64394 191.88299 222.98262 192.45836 221.6135 193.99358 Z" fill="black"/>
      </g>
      <g id="Graphic_7">
        <path d="M 292.6197 279.14174 C 292.30576 279.41138 291.63586 280.59883 291.22432 281.77726 C 289.9807 285.0542 280.1376 293.93435 277.55396 294.02457 C 276.5851 294.0584 276.44996 295.74454 277.3723 296.2297 C 279.02315 297.20676 291.69614 286.029 293.37387 282.21956 C 294.7467 278.93812 294.51006 277.71766 292.6197 279.14174 Z" fill="black"/>
      </g>
      <g id="Graphic_6">
        <path d="M 230.0979 246.20928 C 229.1028 247.34342 227.78472 248.48883 227.27476 248.70065 C 225.8072 249.26926 227.06376 250.0661 228.5313 249.49748 C 230.25723 248.91985 233.74802 245.17643 233.20423 244.41938 C 232.65592 243.53315 232.15047 243.87415 230.0979 246.20928 Z" fill="black"/>
      </g>
      <g id="Graphic_5">
        <path d="M 267.76727 304.5195 C 265.69297 308.08412 261.92803 311.38442 258.6099 312.66435 C 254.90646 314.0224 254.0315 314.89367 256.42138 314.8102 C 260.5552 314.66586 270.0378 306.57433 269.92503 303.34477 C 269.86187 301.5362 269.4811 301.74352 267.76727 304.5195 Z" fill="black"/>
      </g>
      <g id="Graphic_4">
        <path d="M 204.36294 229.64708 C 203.04938 230.92168 200.96298 232.28794 199.81388 232.71609 C 197.0057 233.7842 196.98396 235.01369 199.73883 234.27078 C 203.13735 233.44074 207.85988 229.78365 207.80124 228.10428 C 207.75613 226.81245 207.0569 227.16022 204.36294 229.64708 Z" fill="black"/>
      </g>
      <g id="Graphic_3">
        <path d="M 242.37454 321.8324 C 241.37943 322.96654 239.5559 324.45296 238.35123 325.14173 C 236.00196 326.38782 226.0625 328.80435 222.51 328.9284 C 220.3139 329.0051 219.63948 330.06337 221.406 330.6484 C 222.65127 331.12226 232.93398 329.27577 236.0606 328.0672 C 239.05804 326.86313 243.91427 323.3307 244.69757 321.6866 C 245.72344 319.58135 244.3047 319.69556 242.37454 321.8324 Z" fill="black"/>
      </g>
    </g>
  </g>
</svg>
