<?xml version="1.0" encoding="UTF-8" standalone="no"?>
<!DOCTYPE svg PUBLIC "-//W3C//DTD SVG 1.1//EN" "http://www.w3.org/Graphics/SVG/1.1/DTD/svg11.dtd">
<svg xmlns:xl="http://www.w3.org/1999/xlink" version="1.1" xmlns="http://www.w3.org/2000/svg" xmlns:dc="http://purl.org/dc/elements/1.1/" viewBox="36 63 293 302" width="293" height="302">
  <defs>
    <clipPath id="artboard_clip_path">
      <path d="M 36 63 L 329 63 L 329 365 L 36 365 Z"/>
    </clipPath>
    <clipPath id="inner_stroke_clip_path">
      <path d="M 173.80864 266.60585 C 173.90011 267.34485 172.13813 270.62863 171.93159 271.26387 C 171.79606 271.6807 171.21692 273.20298 170.31115 274.94358 C 167.09575 280.83973 168.1269 288.66427 173.4097 298.12456 C 175.674 302.16503 175.74628 309.19214 173.64132 312.76578 C 171.23613 316.82207 171.55431 326.48817 174.43992 333.95486 C 176.76582 340.0456 176.8478 340.9253 175.77519 346.6638 C 174.8117 351.72113 174.77437 353.86726 175.8785 357.4971 C 178.44353 366.61705 180.48229 366.8479 181.31578 358.0802 C 181.6771 354.0857 182.59985 351.3696 184.3961 348.76636 C 188.28203 343.46744 188.6264 340.44846 186.50686 333.67825 C 183.73887 325.04264 183.99107 321.7293 187.96237 317.11495 C 189.84738 315.00117 191.8568 311.32827 192.57995 308.9014 C 193.92223 304.43618 194.00929 305.0232 189.81946 288.65378 C 188.36198 282.96856 188.57515 281.8989 192.87722 275.04597 C 194.37834 272.63272 194.39652 265.99753 193.03968 260.1189 C 192.13003 256.49247 194.1705 256.62578 198.28585 260.5035 C 201.06015 263.18677 201.43555 263.974 200.98206 267.67414 C 200.18083 274.58837 202.23366 279.60095 208.63878 286.05587 L 214.37167 292.01112 L 214.23927 299.62013 C 214.11876 306.54628 214.39012 307.722 216.94616 311.7676 C 218.5552 314.33287 221.03606 317.10858 222.47777 318.10963 C 227.57238 321.61418 228.51258 323.4847 227.72832 329.4234 C 227.0481 334.9736 228.79052 341.05415 231.02717 341.0933 C 231.5134 341.10183 232.84428 342.8816 233.87664 345.04645 C 236.4123 350.26265 239.1318 350.50543 238.2493 345.31818 C 237.89426 343.36034 237.70946 337.2095 237.90007 331.84587 C 238.04774 323.3589 237.8838 321.59957 236.26797 319.4245 C 235.22204 318.04004 234.3706 316.659 234.37908 316.17124 C 234.38587 315.78104 232.77343 313.41085 230.87095 310.938 L 227.2537 306.38595 L 227.69311 297.9041 L 228.03698 289.32297 L 223.10242 282.21072 L 218.07232 274.99923 L 218.20302 267.48777 C 218.27431 263.3906 218.04708 259.67855 217.66489 259.28153 C 217.18545 258.8828 216.91238 257.80464 216.92766 256.92668 C 216.94294 256.04872 215.91058 253.88386 214.5814 252.00654 C 211.92302 248.2519 212.6343 246.5079 216.4014 248.03758 C 219.2984 249.25928 223.7603 255.5826 223.7077 258.6067 C 223.68902 259.67976 224.90569 262.43333 226.42597 264.50916 C 228.4172 267.47146 230.53115 268.9722 235.26563 270.81155 C 242.8971 273.8726 247.6762 278.73777 249.22245 284.91245 C 250.58608 290.40087 255.27133 295.06922 261.17615 296.7339 C 266.78924 298.3935 271.5972 301.60028 271.56155 303.64885 C 271.50724 306.7705 274.95037 310.14855 281.6043 313.48523 C 290.4728 318.12925 292.74 316.4125 286.3349 309.95756 C 284.32668 307.97078 281.57615 303.9218 280.1701 300.87216 C 278.20092 296.6417 276.1995 294.2647 271.1117 290.36995 C 262.8572 283.98022 261.80957 282.69332 259.9716 276.51353 C 258.31113 271.31266 256.02137 268.73545 245.08645 259.85927 C 239.81093 255.5709 237.4426 251.91893 237.5088 248.11443 C 237.55123 245.67565 234.13696 240.63922 230.2059 237.35022 C 227.8087 235.35662 227.27107 232.71251 229.31322 232.74827 C 231.1609 232.78063 235.09534 235.87453 238.3355 239.73693 C 242.05168 244.19315 248.81644 246.75113 256.79058 246.89076 C 263.30603 247.00484 266.9776 248.43526 270.02835 252.0016 C 271.076 253.2885 274.3382 255.88273 277.22163 257.88484 C 282.41348 261.3911 282.60797 261.3945 291.4624 261.2568 C 298.75922 261.1894 301.18527 261.52462 304.949 263.2494 C 307.35976 264.4626 310.65084 265.39844 312.20677 265.4257 C 313.66545 265.45123 315.8953 265.8806 317.24826 266.3922 C 320.33805 267.71485 322.50122 266.3866 320.29682 264.49395 C 314.0692 259.01795 299.30946 251.92883 291.26354 250.32423 C 285.83306 249.3509 283.6134 248.33623 280.93295 245.84977 C 279.0169 244.15734 277.4932 242.27662 277.5034 241.6913 C 277.52716 240.3256 272.92557 236.43936 269.4502 234.9148 C 267.71335 234.10373 263.73986 233.2535 260.53415 233.0022 C 254.0255 232.49792 247.95673 229.0739 243.47954 223.62854 C 242.0514 221.84707 239.36249 219.84837 237.62225 219.2324 C 235.78477 218.61475 233.76128 217.50592 233.1914 216.7153 C 231.28721 214.34 237.62685 213.37762 242.9448 215.2272 C 256.19276 219.75274 257.26077 219.86902 262.45382 217.71559 C 265.09813 216.6885 269.41597 214.51974 271.87427 213.00148 C 277.086 209.77498 280.78643 209.54703 287.3601 211.9065 C 293.35367 214.06065 297.9378 213.36027 304.4307 209.1804 C 308.36464 206.71217 310.81106 205.87678 314.1191 205.83712 C 319.95554 205.84173 327.96363 204.03033 328.4753 202.57557 C 328.77894 201.89782 326.26583 200.9756 321.8061 200.11685 C 317.92647 199.46343 314.34536 198.42492 313.8676 197.92864 C 311.856 196.13696 305.22464 197.09424 299.33898 199.91861 L 293.25713 202.83714 L 285.5403 199.09151 C 277.63066 195.24493 273.9404 194.88757 270.58314 197.75622 C 269.69605 198.42376 265.77907 199.91647 261.77163 201.01727 C 253.8523 203.31813 252.98048 203.1077 245.2993 197.3135 C 241.84258 194.71587 238.25128 194.26266 233.94532 195.74856 C 230.02833 197.24127 229.76036 195.87044 233.41446 192.71425 C 236.27872 190.2273 237.25627 189.95167 243.091 190.05383 C 251.8431 190.20708 256.944 187.7593 262.1196 181.01924 C 264.21098 178.226 266.00893 175.52522 266.01742 175.03746 C 266.04288 173.57419 270.73953 171.99755 274.7266 172.06736 C 276.76875 172.10312 279.8857 171.86495 281.54397 171.60125 C 285.9353 170.7999 291.77973 164.75464 293.33347 159.3173 C 294.47786 155.04377 294.97257 154.56453 300.26287 152.4128 C 307.71125 149.22546 314.20075 145.24068 314.2279 143.67986 C 314.25507 142.11904 309.97457 142.14167 304.10928 143.79543 C 301.47007 144.52986 297.6656 145.14631 295.7207 145.11226 C 292.5116 145.05607 291.33106 145.81604 285.48833 151.76377 C 279.44602 158.00074 278.65957 158.47487 274.76974 158.40676 C 263.7776 158.40945 256.81205 161.8004 251.12138 170.19032 C 247.23035 175.7819 244.58605 176.80898 236.0454 175.68362 C 233.13483 175.24234 229.91894 175.57635 227.17908 176.50419 C 219.3502 179.19696 221.0645 175.71405 229.4955 171.95844 C 232.3394 170.6421 235.78543 168.2629 237.27297 166.63008 C 239.6561 163.84195 243.01796 155.11852 243.07907 151.60667 C 243.1164 149.46054 249.7405 143.33134 252.0744 143.3722 C 253.1441 143.39093 256.19606 141.29759 258.76858 138.80552 C 263.51784 134.20479 263.82316 133.42949 266.56202 121.37739 C 266.87583 120.11433 268.85808 118.00225 271.41363 116.4857 C 279.08196 111.8385 286.75998 101.04386 282.57842 100.97064 C 281.80045 100.95702 278.85423 102.56431 275.89952 104.65936 C 272.9465 106.65685 268.9255 108.53807 266.9738 108.89422 C 261.21762 109.86682 257.9491 113.22493 254.2921 122.13835 C 250.73744 130.76083 250.24272 131.24007 243.2003 133.4587 C 234.8835 136.24051 232.1114 139.02183 229.72708 147.46963 C 228.48714 151.6439 226.86161 155.61627 226.07007 156.38306 C 225.27853 157.14985 221.64989 158.84277 218.02973 160.04794 C 214.31233 161.2514 210.88328 162.65507 210.38856 163.13432 C 208.60759 164.8596 206.87075 164.04853 206.91148 161.7073 C 206.94204 159.95137 208.53192 158.02759 212.67394 154.78236 C 220.2671 148.86529 221.79198 145.08632 221.30646 133.856 C 220.7904 124.38159 221.90762 121.66888 227.01023 119.12354 C 232.01558 116.5765 233.53367 113.18774 233.3913 104.59811 C 233.31564 97.7661 233.62775 96.6006 235.51106 94.58437 C 237.1948 92.85739 237.71327 91.01243 237.99263 86.13827 C 238.14928 82.72567 238.50383 79.12138 238.90978 78.15267 C 239.2185 77.18227 239.04946 75.71559 238.67406 74.92837 C 237.34997 72.7584 234.97533 75.05877 233.43008 80.00835 C 232.61138 82.33596 230.5132 85.5194 227.94408 87.81636 C 222.80074 92.70293 221.8848 95.02884 222.33926 102.45296 L 222.00126 107.92949 L 217.62783 110.4697 C 214.10153 111.87167 211.83263 113.68598 209.8385 116.48092 C 207.4418 120.04945 207.02396 121.70101 206.4788 130.66893 L 205.81435 140.90331 L 201.86682 144.15195 C 199.69516 145.96796 197.13283 147.87472 196.15019 148.443 C 194.48173 149.29202 194.38958 148.99766 195.05793 144.1303 C 195.93943 138.1933 195.11005 135.54408 190.37678 128.04504 C 187.25085 123.20883 186.97778 122.13066 187.62915 118.23882 C 187.96163 115.90269 188.89455 112.60127 189.79692 111.05577 C 190.60205 109.50857 191.3269 106.98416 191.35406 105.42333 C 191.41177 102.10659 187.77196 93.26055 184.63245 89.20476 C 182.53888 86.53341 182.54057 86.43586 184.27353 81.87989 C 187.6388 72.96135 185.34126 59.65009 181.08671 63.77158 C 180.69264 64.057426 180.36186 66.296 180.31942 68.73478 C 180.2736 71.36867 179.4447 74.28159 178.2438 76.212185 C 175.14432 81.03697 174.94742 92.35293 177.76634 98.06199 C 179.7406 101.99981 179.82257 102.87947 178.69176 106.37259 C 177.972 108.60435 176.85986 111.02441 176.16556 111.7929 C 174.08437 114.00082 172.69456 121.19749 173.51036 124.62711 C 173.96943 126.19645 175.3789 129.05098 176.71147 130.7332 C 177.94511 132.51125 179.54057 135.85695 180.08161 138.30595 C 181.17727 142.42354 181.07154 142.9096 177.35633 149.57764 C 175.14903 153.44223 173.1481 156.62737 172.75912 156.62056 C 172.37013 156.61375 171.80703 155.43292 171.4452 153.86528 C 170.45868 149.06654 166.96923 142.76024 163.23606 139.27954 C 158.45186 134.70704 157.52693 131.95857 157.48521 123.17554 C 157.53225 114.88197 155.2951 109.28067 150.3916 105.97464 C 147.31708 103.77402 145.5441 99.4494 146.00947 95.0664 C 146.14236 93.01953 145.01785 90.56031 141.97898 86.31111 C 139.7028 82.9535 136.96075 78.41675 135.9301 76.15434 C 134.89943 73.89193 133.473 72.01291 132.88953 72.002695 C 131.1391 71.972045 131.20799 79.19425 132.87184 84.20002 C 133.61246 86.35978 134.2134 90.95661 134.1523 94.46846 C 133.99952 103.24809 135.20091 106.87962 139.78553 111.74137 C 144.18074 116.30706 144.09708 115.52495 141.69797 130.41285 C 140.71921 136.34816 142.40004 140.37842 148.79328 147.5162 C 154.23104 153.66145 154.41874 154.05506 154.32878 159.22528 L 154.33266 164.5923 L 150.23088 159.93418 C 145.938 155.07753 142.86179 152.97447 136.57647 150.8152 C 132.32313 149.27701 129.85925 145.52579 128.99712 139.16792 C 128.04794 132.22304 121.43475 126.54512 113.4691 125.91774 C 109.68161 125.55868 106.24187 121.98553 104.86806 117.08242 C 103.86626 113.16163 102.62583 111.77378 97.25306 107.48371 C 93.7025 104.68927 90.06828 101.11272 89.12298 99.53487 C 87.42518 96.48012 83.55403 95.33895 83.5082 97.97283 C 83.49462 98.75325 85.94492 103.28488 88.97531 108.02184 C 92.09784 113.05315 94.91676 118.76221 95.54825 121.60312 C 96.81464 127.08984 100.25097 130.85809 108.91142 136.27911 C 113.72277 139.2908 114.00602 139.78366 116.30986 147.14258 C 119.24858 157.14731 120.67162 159.22143 126.06814 162.14578 C 131.85196 165.17448 137.6821 171.13144 137.63456 173.86287 C 137.6142 175.0335 138.44697 177.4876 139.58167 179.3615 C 140.90237 181.72658 141.17204 182.99986 140.47943 183.6708 C 139.68789 184.43759 138.05169 183.43313 134.80135 180.15604 C 129.35511 174.49855 124.82021 172.36994 119.07423 172.75724 C 112.64754 173.1326 107.81242 171.48665 106.21356 168.33606 C 104.14375 164.299 97.91954 158.62788 94.05178 157.2916 C 92.2143 156.67394 88.23742 156.01882 85.32005 155.96774 C 80.16773 155.77994 71.853835 152.80451 71.88099 151.24369 C 71.90815 149.68287 65.92815 146.7483 59.535404 145.17265 C 55.950896 144.32924 52.07635 143.38317 50.914494 143.07008 C 49.07362 142.64752 48.679543 142.93336 48.6439 144.98194 C 48.613343 146.73787 49.280483 147.5302 51.11966 148.0503 C 52.47431 148.46435 56.6971 151.75847 60.426875 155.43428 C 67.98197 162.88515 73.37341 166.10215 81.12759 167.70164 C 88.39725 169.19507 89.45337 169.9942 93.03158 176.78996 C 95.76004 182.10712 96.81277 183.10136 100.96547 184.83295 C 103.66968 185.9537 108.79823 187.50721 112.48168 188.25478 C 116.16513 189.00234 119.54836 190.23256 119.92376 191.01978 C 122.74947 196.33864 125.71146 199.41551 129.66458 201.43635 C 133.90435 203.75496 135.52358 205.73493 132.99519 205.69066 C 132.41172 205.68044 129.12913 204.25683 125.65715 202.53716 L 119.3888 199.40239 L 111.45759 202.3861 C 99.6094 206.86254 99.31766 206.85743 91.81398 202.04215 C 85.84756 198.32717 84.6874 197.91654 80.78909 198.33618 C 78.15667 198.68041 74.63037 200.08238 71.972485 201.88989 C 67.24868 205.02735 65.784905 205.29446 57.05487 203.87304 C 51.622694 202.99728 47.036874 203.7952 37.83468 207.147 C 35.48551 207.9841 35.483813 208.08165 37.307715 209.47972 C 38.26659 210.27716 40.78479 210.90674 42.82695 210.9425 C 44.77186 210.97655 48.93475 212.12284 51.9256 213.54134 C 58.872965 216.78559 64.610455 216.88605 72.24993 213.89722 C 79.59597 211.00083 82.02711 211.0434 83.9228 213.90645 C 85.53014 216.56928 93.84234 219.64226 99.57983 219.74273 C 101.71923 219.78019 105.42645 219.16203 107.67667 218.42078 C 113.44981 216.47267 118.98941 216.76483 122.15948 219.0647 C 124.8484 221.0634 129.68183 222.80692 131.63353 222.45077 C 132.2187 222.36343 132.99157 222.6697 133.37037 223.26183 C 133.74917 223.85395 131.70022 224.2084 127.61591 224.13688 C 123.3371 224.06196 120.99642 224.4113 120.49322 225.3783 C 120.09235 226.05435 118.31986 227.29186 116.65141 228.14088 C 114.98296 228.9899 112.41553 231.1893 110.9246 233.01724 C 106.94481 238.11935 104.98632 238.8657 94.67829 238.68522 C 83.68784 238.59035 82.31452 239.24938 75.05773 248.19735 C 71.67839 252.33417 69.209905 254.43773 67.35545 254.79558 C 59.35415 256.21678 53.76702 258.65606 49.51756 262.4849 C 44.377617 267.17637 44.956 267.47924 55.792694 265.22946 C 59.60055 264.4179 65.45056 263.6421 68.85755 263.5066 C 76.35395 263.14996 81.84044 260.90408 86.88314 256.2109 L 90.63958 252.76376 L 99.09655 253.107 C 108.62323 253.46898 112.14783 252.16456 119.3571 245.94802 C 123.10844 242.79353 123.59806 242.60694 130.40526 242.72613 C 135.55927 242.81638 138.68132 242.28556 141.5252 240.96922 C 146.6244 238.61898 147.20788 238.6292 147.16714 240.97043 C 147.1247 243.4092 141.03437 246.8155 136.65493 246.93397 C 134.90281 247.00087 133.1456 247.36043 132.84537 247.84308 C 132.54685 248.22817 131.5676 248.60135 130.59515 248.58432 C 127.87227 248.53665 122.1132 255.26648 118.0825 263.29514 C 115.56479 268.2277 113.47001 271.21602 112.00284 271.67824 C 110.8274 272.14556 109.54793 273.0014 109.15046 273.48233 C 108.84854 274.06253 107.67311 274.52986 106.70065 274.51283 C 102.3246 274.4362 95.56592 282.70984 91.39892 292.98047 C 90.47958 295.50148 88.28586 298.58567 86.70956 299.72904 C 85.13157 300.96996 82.47029 302.97257 80.79505 304.2118 C 77.7397 306.50023 72.45837 313.72634 73.22106 314.61793 C 73.5094 314.81814 76.25095 313.79275 79.38997 312.2864 C 82.62623 310.7818 86.25317 309.1864 87.6214 308.82005 C 93.38945 307.1646 99.50694 302.1975 101.9257 297.36078 C 104.9551 290.97347 109.70097 286.56784 114.58702 285.28726 C 116.7366 284.7394 119.67434 283.61988 121.05106 282.76576 C 124.58924 280.68093 130.0345 275.21415 130.06166 273.65333 C 130.19286 271.704 135.75403 265.16586 138.50237 263.75027 C 139.8757 263.09125 142.7111 262.26267 144.6628 261.9065 C 148.07657 261.3808 153.77283 258.26037 154.4824 256.6139 C 155.08965 255.2584 156.6354 255.87096 156.60823 257.4318 C 156.59296 258.30975 154.89904 260.62204 152.72569 262.5356 C 150.64958 264.45087 147.66771 268.10674 146.06595 270.7134 C 143.66077 274.76968 143.1389 276.80974 142.71646 284.3161 C 142.1747 293.0889 142.07406 293.2823 137.79745 298.67196 C 132.12714 305.89126 130.40098 310.05702 130.28216 316.8856 C 130.12939 325.66524 129.20835 328.2838 124.65697 332.69284 C 121.39185 335.85585 120.18926 337.884 119.24445 341.86827 C 117.13319 351.39425 118.02757 355.89864 121.13723 350.48855 C 124.64777 344.4024 128.32394 339.97805 131.3691 338.2749 C 138.0514 334.3911 142.87365 325.59565 142.7245 317.39623 C 142.603 313.1981 142.80598 312.71376 147.54845 308.50323 C 154.46258 302.4767 155.47068 300.44514 156.50206 291.48573 C 157.43788 282.42708 158.85194 279.42682 163.284 276.28425 C 165.0548 275.1443 166.93374 273.80767 168.21419 272.46733 C 170.82546 269.1455 172.3126 267.46803 173.08799 266.80667 C 173.08383 266.7136 173.08255 266.61213 173.08446 266.50258 C 173.00589 265.42782 173.3078 264.84762 173.59276 265.24293 C 173.8132 265.47192 173.91259 266.04506 173.80865 266.60585 Z"/>
    </clipPath>
  </defs>
  <g id="Estoile_of_16_Points" stroke-opacity="1" stroke="none" fill="none" fill-opacity="1" stroke-dasharray="none">
    <title>Estoile of 16 Points</title>
    <g id="Estoile_of_16_Points_Layer_2" clip-path="url(#artboard_clip_path)">
      <title>Layer 2</title>
      <g id="Graphic_10">
        <path d="M 173.80864 266.60585 C 173.90011 267.34485 172.13813 270.62863 171.93159 271.26387 C 171.79606 271.6807 171.21692 273.20298 170.31115 274.94358 C 167.09575 280.83973 168.1269 288.66427 173.4097 298.12456 C 175.674 302.16503 175.74628 309.19214 173.64132 312.76578 C 171.23613 316.82207 171.55431 326.48817 174.43992 333.95486 C 176.76582 340.0456 176.8478 340.9253 175.77519 346.6638 C 174.8117 351.72113 174.77437 353.86726 175.8785 357.4971 C 178.44353 366.61705 180.48229 366.8479 181.31578 358.0802 C 181.6771 354.0857 182.59985 351.3696 184.3961 348.76636 C 188.28203 343.46744 188.6264 340.44846 186.50686 333.67825 C 183.73887 325.04264 183.99107 321.7293 187.96237 317.11495 C 189.84738 315.00117 191.8568 311.32827 192.57995 308.9014 C 193.92223 304.43618 194.00929 305.0232 189.81946 288.65378 C 188.36198 282.96856 188.57515 281.8989 192.87722 275.04597 C 194.37834 272.63272 194.39652 265.99753 193.03968 260.1189 C 192.13003 256.49247 194.1705 256.62578 198.28585 260.5035 C 201.06015 263.18677 201.43555 263.974 200.98206 267.67414 C 200.18083 274.58837 202.23366 279.60095 208.63878 286.05587 L 214.37167 292.01112 L 214.23927 299.62013 C 214.11876 306.54628 214.39012 307.722 216.94616 311.7676 C 218.5552 314.33287 221.03606 317.10858 222.47777 318.10963 C 227.57238 321.61418 228.51258 323.4847 227.72832 329.4234 C 227.0481 334.9736 228.79052 341.05415 231.02717 341.0933 C 231.5134 341.10183 232.84428 342.8816 233.87664 345.04645 C 236.4123 350.26265 239.1318 350.50543 238.2493 345.31818 C 237.89426 343.36034 237.70946 337.2095 237.90007 331.84587 C 238.04774 323.3589 237.8838 321.59957 236.26797 319.4245 C 235.22204 318.04004 234.3706 316.659 234.37908 316.17124 C 234.38587 315.78104 232.77343 313.41085 230.87095 310.938 L 227.2537 306.38595 L 227.69311 297.9041 L 228.03698 289.32297 L 223.10242 282.21072 L 218.07232 274.99923 L 218.20302 267.48777 C 218.27431 263.3906 218.04708 259.67855 217.66489 259.28153 C 217.18545 258.8828 216.91238 257.80464 216.92766 256.92668 C 216.94294 256.04872 215.91058 253.88386 214.5814 252.00654 C 211.92302 248.2519 212.6343 246.5079 216.4014 248.03758 C 219.2984 249.25928 223.7603 255.5826 223.7077 258.6067 C 223.68902 259.67976 224.90569 262.43333 226.42597 264.50916 C 228.4172 267.47146 230.53115 268.9722 235.26563 270.81155 C 242.8971 273.8726 247.6762 278.73777 249.22245 284.91245 C 250.58608 290.40087 255.27133 295.06922 261.17615 296.7339 C 266.78924 298.3935 271.5972 301.60028 271.56155 303.64885 C 271.50724 306.7705 274.95037 310.14855 281.6043 313.48523 C 290.4728 318.12925 292.74 316.4125 286.3349 309.95756 C 284.32668 307.97078 281.57615 303.9218 280.1701 300.87216 C 278.20092 296.6417 276.1995 294.2647 271.1117 290.36995 C 262.8572 283.98022 261.80957 282.69332 259.9716 276.51353 C 258.31113 271.31266 256.02137 268.73545 245.08645 259.85927 C 239.81093 255.5709 237.4426 251.91893 237.5088 248.11443 C 237.55123 245.67565 234.13696 240.63922 230.2059 237.35022 C 227.8087 235.35662 227.27107 232.71251 229.31322 232.74827 C 231.1609 232.78063 235.09534 235.87453 238.3355 239.73693 C 242.05168 244.19315 248.81644 246.75113 256.79058 246.89076 C 263.30603 247.00484 266.9776 248.43526 270.02835 252.0016 C 271.076 253.2885 274.3382 255.88273 277.22163 257.88484 C 282.41348 261.3911 282.60797 261.3945 291.4624 261.2568 C 298.75922 261.1894 301.18527 261.52462 304.949 263.2494 C 307.35976 264.4626 310.65084 265.39844 312.20677 265.4257 C 313.66545 265.45123 315.8953 265.8806 317.24826 266.3922 C 320.33805 267.71485 322.50122 266.3866 320.29682 264.49395 C 314.0692 259.01795 299.30946 251.92883 291.26354 250.32423 C 285.83306 249.3509 283.6134 248.33623 280.93295 245.84977 C 279.0169 244.15734 277.4932 242.27662 277.5034 241.6913 C 277.52716 240.3256 272.92557 236.43936 269.4502 234.9148 C 267.71335 234.10373 263.73986 233.2535 260.53415 233.0022 C 254.0255 232.49792 247.95673 229.0739 243.47954 223.62854 C 242.0514 221.84707 239.36249 219.84837 237.62225 219.2324 C 235.78477 218.61475 233.76128 217.50592 233.1914 216.7153 C 231.28721 214.34 237.62685 213.37762 242.9448 215.2272 C 256.19276 219.75274 257.26077 219.86902 262.45382 217.71559 C 265.09813 216.6885 269.41597 214.51974 271.87427 213.00148 C 277.086 209.77498 280.78643 209.54703 287.3601 211.9065 C 293.35367 214.06065 297.9378 213.36027 304.4307 209.1804 C 308.36464 206.71217 310.81106 205.87678 314.1191 205.83712 C 319.95554 205.84173 327.96363 204.03033 328.4753 202.57557 C 328.77894 201.89782 326.26583 200.9756 321.8061 200.11685 C 317.92647 199.46343 314.34536 198.42492 313.8676 197.92864 C 311.856 196.13696 305.22464 197.09424 299.33898 199.91861 L 293.25713 202.83714 L 285.5403 199.09151 C 277.63066 195.24493 273.9404 194.88757 270.58314 197.75622 C 269.69605 198.42376 265.77907 199.91647 261.77163 201.01727 C 253.8523 203.31813 252.98048 203.1077 245.2993 197.3135 C 241.84258 194.71587 238.25128 194.26266 233.94532 195.74856 C 230.02833 197.24127 229.76036 195.87044 233.41446 192.71425 C 236.27872 190.2273 237.25627 189.95167 243.091 190.05383 C 251.8431 190.20708 256.944 187.7593 262.1196 181.01924 C 264.21098 178.226 266.00893 175.52522 266.01742 175.03746 C 266.04288 173.57419 270.73953 171.99755 274.7266 172.06736 C 276.76875 172.10312 279.8857 171.86495 281.54397 171.60125 C 285.9353 170.7999 291.77973 164.75464 293.33347 159.3173 C 294.47786 155.04377 294.97257 154.56453 300.26287 152.4128 C 307.71125 149.22546 314.20075 145.24068 314.2279 143.67986 C 314.25507 142.11904 309.97457 142.14167 304.10928 143.79543 C 301.47007 144.52986 297.6656 145.14631 295.7207 145.11226 C 292.5116 145.05607 291.33106 145.81604 285.48833 151.76377 C 279.44602 158.00074 278.65957 158.47487 274.76974 158.40676 C 263.7776 158.40945 256.81205 161.8004 251.12138 170.19032 C 247.23035 175.7819 244.58605 176.80898 236.0454 175.68362 C 233.13483 175.24234 229.91894 175.57635 227.17908 176.50419 C 219.3502 179.19696 221.0645 175.71405 229.4955 171.95844 C 232.3394 170.6421 235.78543 168.2629 237.27297 166.63008 C 239.6561 163.84195 243.01796 155.11852 243.07907 151.60667 C 243.1164 149.46054 249.7405 143.33134 252.0744 143.3722 C 253.1441 143.39093 256.19606 141.29759 258.76858 138.80552 C 263.51784 134.20479 263.82316 133.42949 266.56202 121.37739 C 266.87583 120.11433 268.85808 118.00225 271.41363 116.4857 C 279.08196 111.8385 286.75998 101.04386 282.57842 100.97064 C 281.80045 100.95702 278.85423 102.56431 275.89952 104.65936 C 272.9465 106.65685 268.9255 108.53807 266.9738 108.89422 C 261.21762 109.86682 257.9491 113.22493 254.2921 122.13835 C 250.73744 130.76083 250.24272 131.24007 243.2003 133.4587 C 234.8835 136.24051 232.1114 139.02183 229.72708 147.46963 C 228.48714 151.6439 226.86161 155.61627 226.07007 156.38306 C 225.27853 157.14985 221.64989 158.84277 218.02973 160.04794 C 214.31233 161.2514 210.88328 162.65507 210.38856 163.13432 C 208.60759 164.8596 206.87075 164.04853 206.91148 161.7073 C 206.94204 159.95137 208.53192 158.02759 212.67394 154.78236 C 220.2671 148.86529 221.79198 145.08632 221.30646 133.856 C 220.7904 124.38159 221.90762 121.66888 227.01023 119.12354 C 232.01558 116.5765 233.53367 113.18774 233.3913 104.59811 C 233.31564 97.7661 233.62775 96.6006 235.51106 94.58437 C 237.1948 92.85739 237.71327 91.01243 237.99263 86.13827 C 238.14928 82.72567 238.50383 79.12138 238.90978 78.15267 C 239.2185 77.18227 239.04946 75.71559 238.67406 74.92837 C 237.34997 72.7584 234.97533 75.05877 233.43008 80.00835 C 232.61138 82.33596 230.5132 85.5194 227.94408 87.81636 C 222.80074 92.70293 221.8848 95.02884 222.33926 102.45296 L 222.00126 107.92949 L 217.62783 110.4697 C 214.10153 111.87167 211.83263 113.68598 209.8385 116.48092 C 207.4418 120.04945 207.02396 121.70101 206.4788 130.66893 L 205.81435 140.90331 L 201.86682 144.15195 C 199.69516 145.96796 197.13283 147.87472 196.15019 148.443 C 194.48173 149.29202 194.38958 148.99766 195.05793 144.1303 C 195.93943 138.1933 195.11005 135.54408 190.37678 128.04504 C 187.25085 123.20883 186.97778 122.13066 187.62915 118.23882 C 187.96163 115.90269 188.89455 112.60127 189.79692 111.05577 C 190.60205 109.50857 191.3269 106.98416 191.35406 105.42333 C 191.41177 102.10659 187.77196 93.26055 184.63245 89.20476 C 182.53888 86.53341 182.54057 86.43586 184.27353 81.87989 C 187.6388 72.96135 185.34126 59.65009 181.08671 63.77158 C 180.69264 64.057426 180.36186 66.296 180.31942 68.73478 C 180.2736 71.36867 179.4447 74.28159 178.2438 76.212185 C 175.14432 81.03697 174.94742 92.35293 177.76634 98.06199 C 179.7406 101.99981 179.82257 102.87947 178.69176 106.37259 C 177.972 108.60435 176.85986 111.02441 176.16556 111.7929 C 174.08437 114.00082 172.69456 121.19749 173.51036 124.62711 C 173.96943 126.19645 175.3789 129.05098 176.71147 130.7332 C 177.94511 132.51125 179.54057 135.85695 180.08161 138.30595 C 181.17727 142.42354 181.07154 142.9096 177.35633 149.57764 C 175.14903 153.44223 173.1481 156.62737 172.75912 156.62056 C 172.37013 156.61375 171.80703 155.43292 171.4452 153.86528 C 170.45868 149.06654 166.96923 142.76024 163.23606 139.27954 C 158.45186 134.70704 157.52693 131.95857 157.48521 123.17554 C 157.53225 114.88197 155.2951 109.28067 150.3916 105.97464 C 147.31708 103.77402 145.5441 99.4494 146.00947 95.0664 C 146.14236 93.01953 145.01785 90.56031 141.97898 86.31111 C 139.7028 82.9535 136.96075 78.41675 135.9301 76.15434 C 134.89943 73.89193 133.473 72.01291 132.88953 72.002695 C 131.1391 71.972045 131.20799 79.19425 132.87184 84.20002 C 133.61246 86.35978 134.2134 90.95661 134.1523 94.46846 C 133.99952 103.24809 135.20091 106.87962 139.78553 111.74137 C 144.18074 116.30706 144.09708 115.52495 141.69797 130.41285 C 140.71921 136.34816 142.40004 140.37842 148.79328 147.5162 C 154.23104 153.66145 154.41874 154.05506 154.32878 159.22528 L 154.33266 164.5923 L 150.23088 159.93418 C 145.938 155.07753 142.86179 152.97447 136.57647 150.8152 C 132.32313 149.27701 129.85925 145.52579 128.99712 139.16792 C 128.04794 132.22304 121.43475 126.54512 113.4691 125.91774 C 109.68161 125.55868 106.24187 121.98553 104.86806 117.08242 C 103.86626 113.16163 102.62583 111.77378 97.25306 107.48371 C 93.7025 104.68927 90.06828 101.11272 89.12298 99.53487 C 87.42518 96.48012 83.55403 95.33895 83.5082 97.97283 C 83.49462 98.75325 85.94492 103.28488 88.97531 108.02184 C 92.09784 113.05315 94.91676 118.76221 95.54825 121.60312 C 96.81464 127.08984 100.25097 130.85809 108.91142 136.27911 C 113.72277 139.2908 114.00602 139.78366 116.30986 147.14258 C 119.24858 157.14731 120.67162 159.22143 126.06814 162.14578 C 131.85196 165.17448 137.6821 171.13144 137.63456 173.86287 C 137.6142 175.0335 138.44697 177.4876 139.58167 179.3615 C 140.90237 181.72658 141.17204 182.99986 140.47943 183.6708 C 139.68789 184.43759 138.05169 183.43313 134.80135 180.15604 C 129.35511 174.49855 124.82021 172.36994 119.07423 172.75724 C 112.64754 173.1326 107.81242 171.48665 106.21356 168.33606 C 104.14375 164.299 97.91954 158.62788 94.05178 157.2916 C 92.2143 156.67394 88.23742 156.01882 85.32005 155.96774 C 80.16773 155.77994 71.853835 152.80451 71.88099 151.24369 C 71.90815 149.68287 65.92815 146.7483 59.535404 145.17265 C 55.950896 144.32924 52.07635 143.38317 50.914494 143.07008 C 49.07362 142.64752 48.679543 142.93336 48.6439 144.98194 C 48.613343 146.73787 49.280483 147.5302 51.11966 148.0503 C 52.47431 148.46435 56.6971 151.75847 60.426875 155.43428 C 67.98197 162.88515 73.37341 166.10215 81.12759 167.70164 C 88.39725 169.19507 89.45337 169.9942 93.03158 176.78996 C 95.76004 182.10712 96.81277 183.10136 100.96547 184.83295 C 103.66968 185.9537 108.79823 187.50721 112.48168 188.25478 C 116.16513 189.00234 119.54836 190.23256 119.92376 191.01978 C 122.74947 196.33864 125.71146 199.41551 129.66458 201.43635 C 133.90435 203.75496 135.52358 205.73493 132.99519 205.69066 C 132.41172 205.68044 129.12913 204.25683 125.65715 202.53716 L 119.3888 199.40239 L 111.45759 202.3861 C 99.6094 206.86254 99.31766 206.85743 91.81398 202.04215 C 85.84756 198.32717 84.6874 197.91654 80.78909 198.33618 C 78.15667 198.68041 74.63037 200.08238 71.972485 201.88989 C 67.24868 205.02735 65.784905 205.29446 57.05487 203.87304 C 51.622694 202.99728 47.036874 203.7952 37.83468 207.147 C 35.48551 207.9841 35.483813 208.08165 37.307715 209.47972 C 38.26659 210.27716 40.78479 210.90674 42.82695 210.9425 C 44.77186 210.97655 48.93475 212.12284 51.9256 213.54134 C 58.872965 216.78559 64.610455 216.88605 72.24993 213.89722 C 79.59597 211.00083 82.02711 211.0434 83.9228 213.90645 C 85.53014 216.56928 93.84234 219.64226 99.57983 219.74273 C 101.71923 219.78019 105.42645 219.16203 107.67667 218.42078 C 113.44981 216.47267 118.98941 216.76483 122.15948 219.0647 C 124.8484 221.0634 129.68183 222.80692 131.63353 222.45077 C 132.2187 222.36343 132.99157 222.6697 133.37037 223.26183 C 133.74917 223.85395 131.70022 224.2084 127.61591 224.13688 C 123.3371 224.06196 120.99642 224.4113 120.49322 225.3783 C 120.09235 226.05435 118.31986 227.29186 116.65141 228.14088 C 114.98296 228.9899 112.41553 231.1893 110.9246 233.01724 C 106.94481 238.11935 104.98632 238.8657 94.67829 238.68522 C 83.68784 238.59035 82.31452 239.24938 75.05773 248.19735 C 71.67839 252.33417 69.209905 254.43773 67.35545 254.79558 C 59.35415 256.21678 53.76702 258.65606 49.51756 262.4849 C 44.377617 267.17637 44.956 267.47924 55.792694 265.22946 C 59.60055 264.4179 65.45056 263.6421 68.85755 263.5066 C 76.35395 263.14996 81.84044 260.90408 86.88314 256.2109 L 90.63958 252.76376 L 99.09655 253.107 C 108.62323 253.46898 112.14783 252.16456 119.3571 245.94802 C 123.10844 242.79353 123.59806 242.60694 130.40526 242.72613 C 135.55927 242.81638 138.68132 242.28556 141.5252 240.96922 C 146.6244 238.61898 147.20788 238.6292 147.16714 240.97043 C 147.1247 243.4092 141.03437 246.8155 136.65493 246.93397 C 134.90281 247.00087 133.1456 247.36043 132.84537 247.84308 C 132.54685 248.22817 131.5676 248.60135 130.59515 248.58432 C 127.87227 248.53665 122.1132 255.26648 118.0825 263.29514 C 115.56479 268.2277 113.47001 271.21602 112.00284 271.67824 C 110.8274 272.14556 109.54793 273.0014 109.15046 273.48233 C 108.84854 274.06253 107.67311 274.52986 106.70065 274.51283 C 102.3246 274.4362 95.56592 282.70984 91.39892 292.98047 C 90.47958 295.50148 88.28586 298.58567 86.70956 299.72904 C 85.13157 300.96996 82.47029 302.97257 80.79505 304.2118 C 77.7397 306.50023 72.45837 313.72634 73.22106 314.61793 C 73.5094 314.81814 76.25095 313.79275 79.38997 312.2864 C 82.62623 310.7818 86.25317 309.1864 87.6214 308.82005 C 93.38945 307.1646 99.50694 302.1975 101.9257 297.36078 C 104.9551 290.97347 109.70097 286.56784 114.58702 285.28726 C 116.7366 284.7394 119.67434 283.61988 121.05106 282.76576 C 124.58924 280.68093 130.0345 275.21415 130.06166 273.65333 C 130.19286 271.704 135.75403 265.16586 138.50237 263.75027 C 139.8757 263.09125 142.7111 262.26267 144.6628 261.9065 C 148.07657 261.3808 153.77283 258.26037 154.4824 256.6139 C 155.08965 255.2584 156.6354 255.87096 156.60823 257.4318 C 156.59296 258.30975 154.89904 260.62204 152.72569 262.5356 C 150.64958 264.45087 147.66771 268.10674 146.06595 270.7134 C 143.66077 274.76968 143.1389 276.80974 142.71646 284.3161 C 142.1747 293.0889 142.07406 293.2823 137.79745 298.67196 C 132.12714 305.89126 130.40098 310.05702 130.28216 316.8856 C 130.12939 325.66524 129.20835 328.2838 124.65697 332.69284 C 121.39185 335.85585 120.18926 337.884 119.24445 341.86827 C 117.13319 351.39425 118.02757 355.89864 121.13723 350.48855 C 124.64777 344.4024 128.32394 339.97805 131.3691 338.2749 C 138.0514 334.3911 142.87365 325.59565 142.7245 317.39623 C 142.603 313.1981 142.80598 312.71376 147.54845 308.50323 C 154.46258 302.4767 155.47068 300.44514 156.50206 291.48573 C 157.43788 282.42708 158.85194 279.42682 163.284 276.28425 C 165.0548 275.1443 166.93374 273.80767 168.21419 272.46733 C 170.82546 269.1455 172.3126 267.46803 173.08799 266.80667 C 173.08383 266.7136 173.08255 266.61213 173.08446 266.50258 C 173.00589 265.42782 173.3078 264.84762 173.59276 265.24293 C 173.8132 265.47192 173.91259 266.04506 173.80865 266.60585 Z" fill="#FFFFFF"/>
        <path d="M 173.80864 266.60585 C 173.90011 267.34485 172.13813 270.62863 171.93159 271.26387 C 171.79606 271.6807 171.21692 273.20298 170.31115 274.94358 C 167.09575 280.83973 168.1269 288.66427 173.4097 298.12456 C 175.674 302.16503 175.74628 309.19214 173.64132 312.76578 C 171.23613 316.82207 171.55431 326.48817 174.43992 333.95486 C 176.76582 340.0456 176.8478 340.9253 175.77519 346.6638 C 174.8117 351.72113 174.77437 353.86726 175.8785 357.4971 C 178.44353 366.61705 180.48229 366.8479 181.31578 358.0802 C 181.6771 354.0857 182.59985 351.3696 184.3961 348.76636 C 188.28203 343.46744 188.6264 340.44846 186.50686 333.67825 C 183.73887 325.04264 183.99107 321.7293 187.96237 317.11495 C 189.84738 315.00117 191.8568 311.32827 192.57995 308.9014 C 193.92223 304.43618 194.00929 305.0232 189.81946 288.65378 C 188.36198 282.96856 188.57515 281.8989 192.87722 275.04597 C 194.37834 272.63272 194.39652 265.99753 193.03968 260.1189 C 192.13003 256.49247 194.1705 256.62578 198.28585 260.5035 C 201.06015 263.18677 201.43555 263.974 200.98206 267.67414 C 200.18083 274.58837 202.23366 279.60095 208.63878 286.05587 L 214.37167 292.01112 L 214.23927 299.62013 C 214.11876 306.54628 214.39012 307.722 216.94616 311.7676 C 218.5552 314.33287 221.03606 317.10858 222.47777 318.10963 C 227.57238 321.61418 228.51258 323.4847 227.72832 329.4234 C 227.0481 334.9736 228.79052 341.05415 231.02717 341.0933 C 231.5134 341.10183 232.84428 342.8816 233.87664 345.04645 C 236.4123 350.26265 239.1318 350.50543 238.2493 345.31818 C 237.89426 343.36034 237.70946 337.2095 237.90007 331.84587 C 238.04774 323.3589 237.8838 321.59957 236.26797 319.4245 C 235.22204 318.04004 234.3706 316.659 234.37908 316.17124 C 234.38587 315.78104 232.77343 313.41085 230.87095 310.938 L 227.2537 306.38595 L 227.69311 297.9041 L 228.03698 289.32297 L 223.10242 282.21072 L 218.07232 274.99923 L 218.20302 267.48777 C 218.27431 263.3906 218.04708 259.67855 217.66489 259.28153 C 217.18545 258.8828 216.91238 257.80464 216.92766 256.92668 C 216.94294 256.04872 215.91058 253.88386 214.5814 252.00654 C 211.92302 248.2519 212.6343 246.5079 216.4014 248.03758 C 219.2984 249.25928 223.7603 255.5826 223.7077 258.6067 C 223.68902 259.67976 224.90569 262.43333 226.42597 264.50916 C 228.4172 267.47146 230.53115 268.9722 235.26563 270.81155 C 242.8971 273.8726 247.6762 278.73777 249.22245 284.91245 C 250.58608 290.40087 255.27133 295.06922 261.17615 296.7339 C 266.78924 298.3935 271.5972 301.60028 271.56155 303.64885 C 271.50724 306.7705 274.95037 310.14855 281.6043 313.48523 C 290.4728 318.12925 292.74 316.4125 286.3349 309.95756 C 284.32668 307.97078 281.57615 303.9218 280.1701 300.87216 C 278.20092 296.6417 276.1995 294.2647 271.1117 290.36995 C 262.8572 283.98022 261.80957 282.69332 259.9716 276.51353 C 258.31113 271.31266 256.02137 268.73545 245.08645 259.85927 C 239.81093 255.5709 237.4426 251.91893 237.5088 248.11443 C 237.55123 245.67565 234.13696 240.63922 230.2059 237.35022 C 227.8087 235.35662 227.27107 232.71251 229.31322 232.74827 C 231.1609 232.78063 235.09534 235.87453 238.3355 239.73693 C 242.05168 244.19315 248.81644 246.75113 256.79058 246.89076 C 263.30603 247.00484 266.9776 248.43526 270.02835 252.0016 C 271.076 253.2885 274.3382 255.88273 277.22163 257.88484 C 282.41348 261.3911 282.60797 261.3945 291.4624 261.2568 C 298.75922 261.1894 301.18527 261.52462 304.949 263.2494 C 307.35976 264.4626 310.65084 265.39844 312.20677 265.4257 C 313.66545 265.45123 315.8953 265.8806 317.24826 266.3922 C 320.33805 267.71485 322.50122 266.3866 320.29682 264.49395 C 314.0692 259.01795 299.30946 251.92883 291.26354 250.32423 C 285.83306 249.3509 283.6134 248.33623 280.93295 245.84977 C 279.0169 244.15734 277.4932 242.27662 277.5034 241.6913 C 277.52716 240.3256 272.92557 236.43936 269.4502 234.9148 C 267.71335 234.10373 263.73986 233.2535 260.53415 233.0022 C 254.0255 232.49792 247.95673 229.0739 243.47954 223.62854 C 242.0514 221.84707 239.36249 219.84837 237.62225 219.2324 C 235.78477 218.61475 233.76128 217.50592 233.1914 216.7153 C 231.28721 214.34 237.62685 213.37762 242.9448 215.2272 C 256.19276 219.75274 257.26077 219.86902 262.45382 217.71559 C 265.09813 216.6885 269.41597 214.51974 271.87427 213.00148 C 277.086 209.77498 280.78643 209.54703 287.3601 211.9065 C 293.35367 214.06065 297.9378 213.36027 304.4307 209.1804 C 308.36464 206.71217 310.81106 205.87678 314.1191 205.83712 C 319.95554 205.84173 327.96363 204.03033 328.4753 202.57557 C 328.77894 201.89782 326.26583 200.9756 321.8061 200.11685 C 317.92647 199.46343 314.34536 198.42492 313.8676 197.92864 C 311.856 196.13696 305.22464 197.09424 299.33898 199.91861 L 293.25713 202.83714 L 285.5403 199.09151 C 277.63066 195.24493 273.9404 194.88757 270.58314 197.75622 C 269.69605 198.42376 265.77907 199.91647 261.77163 201.01727 C 253.8523 203.31813 252.98048 203.1077 245.2993 197.3135 C 241.84258 194.71587 238.25128 194.26266 233.94532 195.74856 C 230.02833 197.24127 229.76036 195.87044 233.41446 192.71425 C 236.27872 190.2273 237.25627 189.95167 243.091 190.05383 C 251.8431 190.20708 256.944 187.7593 262.1196 181.01924 C 264.21098 178.226 266.00893 175.52522 266.01742 175.03746 C 266.04288 173.57419 270.73953 171.99755 274.7266 172.06736 C 276.76875 172.10312 279.8857 171.86495 281.54397 171.60125 C 285.9353 170.7999 291.77973 164.75464 293.33347 159.3173 C 294.47786 155.04377 294.97257 154.56453 300.26287 152.4128 C 307.71125 149.22546 314.20075 145.24068 314.2279 143.67986 C 314.25507 142.11904 309.97457 142.14167 304.10928 143.79543 C 301.47007 144.52986 297.6656 145.14631 295.7207 145.11226 C 292.5116 145.05607 291.33106 145.81604 285.48833 151.76377 C 279.44602 158.00074 278.65957 158.47487 274.76974 158.40676 C 263.7776 158.40945 256.81205 161.8004 251.12138 170.19032 C 247.23035 175.7819 244.58605 176.80898 236.0454 175.68362 C 233.13483 175.24234 229.91894 175.57635 227.17908 176.50419 C 219.3502 179.19696 221.0645 175.71405 229.4955 171.95844 C 232.3394 170.6421 235.78543 168.2629 237.27297 166.63008 C 239.6561 163.84195 243.01796 155.11852 243.07907 151.60667 C 243.1164 149.46054 249.7405 143.33134 252.0744 143.3722 C 253.1441 143.39093 256.19606 141.29759 258.76858 138.80552 C 263.51784 134.20479 263.82316 133.42949 266.56202 121.37739 C 266.87583 120.11433 268.85808 118.00225 271.41363 116.4857 C 279.08196 111.8385 286.75998 101.04386 282.57842 100.97064 C 281.80045 100.95702 278.85423 102.56431 275.89952 104.65936 C 272.9465 106.65685 268.9255 108.53807 266.9738 108.89422 C 261.21762 109.86682 257.9491 113.22493 254.2921 122.13835 C 250.73744 130.76083 250.24272 131.24007 243.2003 133.4587 C 234.8835 136.24051 232.1114 139.02183 229.72708 147.46963 C 228.48714 151.6439 226.86161 155.61627 226.07007 156.38306 C 225.27853 157.14985 221.64989 158.84277 218.02973 160.04794 C 214.31233 161.2514 210.88328 162.65507 210.38856 163.13432 C 208.60759 164.8596 206.87075 164.04853 206.91148 161.7073 C 206.94204 159.95137 208.53192 158.02759 212.67394 154.78236 C 220.2671 148.86529 221.79198 145.08632 221.30646 133.856 C 220.7904 124.38159 221.90762 121.66888 227.01023 119.12354 C 232.01558 116.5765 233.53367 113.18774 233.3913 104.59811 C 233.31564 97.7661 233.62775 96.6006 235.51106 94.58437 C 237.1948 92.85739 237.71327 91.01243 237.99263 86.13827 C 238.14928 82.72567 238.50383 79.12138 238.90978 78.15267 C 239.2185 77.18227 239.04946 75.71559 238.67406 74.92837 C 237.34997 72.7584 234.97533 75.05877 233.43008 80.00835 C 232.61138 82.33596 230.5132 85.5194 227.94408 87.81636 C 222.80074 92.70293 221.8848 95.02884 222.33926 102.45296 L 222.00126 107.92949 L 217.62783 110.4697 C 214.10153 111.87167 211.83263 113.68598 209.8385 116.48092 C 207.4418 120.04945 207.02396 121.70101 206.4788 130.66893 L 205.81435 140.90331 L 201.86682 144.15195 C 199.69516 145.96796 197.13283 147.87472 196.15019 148.443 C 194.48173 149.29202 194.38958 148.99766 195.05793 144.1303 C 195.93943 138.1933 195.11005 135.54408 190.37678 128.04504 C 187.25085 123.20883 186.97778 122.13066 187.62915 118.23882 C 187.96163 115.90269 188.89455 112.60127 189.79692 111.05577 C 190.60205 109.50857 191.3269 106.98416 191.35406 105.42333 C 191.41177 102.10659 187.77196 93.26055 184.63245 89.20476 C 182.53888 86.53341 182.54057 86.43586 184.27353 81.87989 C 187.6388 72.96135 185.34126 59.65009 181.08671 63.77158 C 180.69264 64.057426 180.36186 66.296 180.31942 68.73478 C 180.2736 71.36867 179.4447 74.28159 178.2438 76.212185 C 175.14432 81.03697 174.94742 92.35293 177.76634 98.06199 C 179.7406 101.99981 179.82257 102.87947 178.69176 106.37259 C 177.972 108.60435 176.85986 111.02441 176.16556 111.7929 C 174.08437 114.00082 172.69456 121.19749 173.51036 124.62711 C 173.96943 126.19645 175.3789 129.05098 176.71147 130.7332 C 177.94511 132.51125 179.54057 135.85695 180.08161 138.30595 C 181.17727 142.42354 181.07154 142.9096 177.35633 149.57764 C 175.14903 153.44223 173.1481 156.62737 172.75912 156.62056 C 172.37013 156.61375 171.80703 155.43292 171.4452 153.86528 C 170.45868 149.06654 166.96923 142.76024 163.23606 139.27954 C 158.45186 134.70704 157.52693 131.95857 157.48521 123.17554 C 157.53225 114.88197 155.2951 109.28067 150.3916 105.97464 C 147.31708 103.77402 145.5441 99.4494 146.00947 95.0664 C 146.14236 93.01953 145.01785 90.56031 141.97898 86.31111 C 139.7028 82.9535 136.96075 78.41675 135.9301 76.15434 C 134.89943 73.89193 133.473 72.01291 132.88953 72.002695 C 131.1391 71.972045 131.20799 79.19425 132.87184 84.20002 C 133.61246 86.35978 134.2134 90.95661 134.1523 94.46846 C 133.99952 103.24809 135.20091 106.87962 139.78553 111.74137 C 144.18074 116.30706 144.09708 115.52495 141.69797 130.41285 C 140.71921 136.34816 142.40004 140.37842 148.79328 147.5162 C 154.23104 153.66145 154.41874 154.05506 154.32878 159.22528 L 154.33266 164.5923 L 150.23088 159.93418 C 145.938 155.07753 142.86179 152.97447 136.57647 150.8152 C 132.32313 149.27701 129.85925 145.52579 128.99712 139.16792 C 128.04794 132.22304 121.43475 126.54512 113.4691 125.91774 C 109.68161 125.55868 106.24187 121.98553 104.86806 117.08242 C 103.86626 113.16163 102.62583 111.77378 97.25306 107.48371 C 93.7025 104.68927 90.06828 101.11272 89.12298 99.53487 C 87.42518 96.48012 83.55403 95.33895 83.5082 97.97283 C 83.49462 98.75325 85.94492 103.28488 88.97531 108.02184 C 92.09784 113.05315 94.91676 118.76221 95.54825 121.60312 C 96.81464 127.08984 100.25097 130.85809 108.91142 136.27911 C 113.72277 139.2908 114.00602 139.78366 116.30986 147.14258 C 119.24858 157.14731 120.67162 159.22143 126.06814 162.14578 C 131.85196 165.17448 137.6821 171.13144 137.63456 173.86287 C 137.6142 175.0335 138.44697 177.4876 139.58167 179.3615 C 140.90237 181.72658 141.17204 182.99986 140.47943 183.6708 C 139.68789 184.43759 138.05169 183.43313 134.80135 180.15604 C 129.35511 174.49855 124.82021 172.36994 119.07423 172.75724 C 112.64754 173.1326 107.81242 171.48665 106.21356 168.33606 C 104.14375 164.299 97.91954 158.62788 94.05178 157.2916 C 92.2143 156.67394 88.23742 156.01882 85.32005 155.96774 C 80.16773 155.77994 71.853835 152.80451 71.88099 151.24369 C 71.90815 149.68287 65.92815 146.7483 59.535404 145.17265 C 55.950896 144.32924 52.07635 143.38317 50.914494 143.07008 C 49.07362 142.64752 48.679543 142.93336 48.6439 144.98194 C 48.613343 146.73787 49.280483 147.5302 51.11966 148.0503 C 52.47431 148.46435 56.6971 151.75847 60.426875 155.43428 C 67.98197 162.88515 73.37341 166.10215 81.12759 167.70164 C 88.39725 169.19507 89.45337 169.9942 93.03158 176.78996 C 95.76004 182.10712 96.81277 183.10136 100.96547 184.83295 C 103.66968 185.9537 108.79823 187.50721 112.48168 188.25478 C 116.16513 189.00234 119.54836 190.23256 119.92376 191.01978 C 122.74947 196.33864 125.71146 199.41551 129.66458 201.43635 C 133.90435 203.75496 135.52358 205.73493 132.99519 205.69066 C 132.41172 205.68044 129.12913 204.25683 125.65715 202.53716 L 119.3888 199.40239 L 111.45759 202.3861 C 99.6094 206.86254 99.31766 206.85743 91.81398 202.04215 C 85.84756 198.32717 84.6874 197.91654 80.78909 198.33618 C 78.15667 198.68041 74.63037 200.08238 71.972485 201.88989 C 67.24868 205.02735 65.784905 205.29446 57.05487 203.87304 C 51.622694 202.99728 47.036874 203.7952 37.83468 207.147 C 35.48551 207.9841 35.483813 208.08165 37.307715 209.47972 C 38.26659 210.27716 40.78479 210.90674 42.82695 210.9425 C 44.77186 210.97655 48.93475 212.12284 51.9256 213.54134 C 58.872965 216.78559 64.610455 216.88605 72.24993 213.89722 C 79.59597 211.00083 82.02711 211.0434 83.9228 213.90645 C 85.53014 216.56928 93.84234 219.64226 99.57983 219.74273 C 101.71923 219.78019 105.42645 219.16203 107.67667 218.42078 C 113.44981 216.47267 118.98941 216.76483 122.15948 219.0647 C 124.8484 221.0634 129.68183 222.80692 131.63353 222.45077 C 132.2187 222.36343 132.99157 222.6697 133.37037 223.26183 C 133.74917 223.85395 131.70022 224.2084 127.61591 224.13688 C 123.3371 224.06196 120.99642 224.4113 120.49322 225.3783 C 120.09235 226.05435 118.31986 227.29186 116.65141 228.14088 C 114.98296 228.9899 112.41553 231.1893 110.9246 233.01724 C 106.94481 238.11935 104.98632 238.8657 94.67829 238.68522 C 83.68784 238.59035 82.31452 239.24938 75.05773 248.19735 C 71.67839 252.33417 69.209905 254.43773 67.35545 254.79558 C 59.35415 256.21678 53.76702 258.65606 49.51756 262.4849 C 44.377617 267.17637 44.956 267.47924 55.792694 265.22946 C 59.60055 264.4179 65.45056 263.6421 68.85755 263.5066 C 76.35395 263.14996 81.84044 260.90408 86.88314 256.2109 L 90.63958 252.76376 L 99.09655 253.107 C 108.62323 253.46898 112.14783 252.16456 119.3571 245.94802 C 123.10844 242.79353 123.59806 242.60694 130.40526 242.72613 C 135.55927 242.81638 138.68132 242.28556 141.5252 240.96922 C 146.6244 238.61898 147.20788 238.6292 147.16714 240.97043 C 147.1247 243.4092 141.03437 246.8155 136.65493 246.93397 C 134.90281 247.00087 133.1456 247.36043 132.84537 247.84308 C 132.54685 248.22817 131.5676 248.60135 130.59515 248.58432 C 127.87227 248.53665 122.1132 255.26648 118.0825 263.29514 C 115.56479 268.2277 113.47001 271.21602 112.00284 271.67824 C 110.8274 272.14556 109.54793 273.0014 109.15046 273.48233 C 108.84854 274.06253 107.67311 274.52986 106.70065 274.51283 C 102.3246 274.4362 95.56592 282.70984 91.39892 292.98047 C 90.47958 295.50148 88.28586 298.58567 86.70956 299.72904 C 85.13157 300.96996 82.47029 302.97257 80.79505 304.2118 C 77.7397 306.50023 72.45837 313.72634 73.22106 314.61793 C 73.5094 314.81814 76.25095 313.79275 79.38997 312.2864 C 82.62623 310.7818 86.25317 309.1864 87.6214 308.82005 C 93.38945 307.1646 99.50694 302.1975 101.9257 297.36078 C 104.9551 290.97347 109.70097 286.56784 114.58702 285.28726 C 116.7366 284.7394 119.67434 283.61988 121.05106 282.76576 C 124.58924 280.68093 130.0345 275.21415 130.06166 273.65333 C 130.19286 271.704 135.75403 265.16586 138.50237 263.75027 C 139.8757 263.09125 142.7111 262.26267 144.6628 261.9065 C 148.07657 261.3808 153.77283 258.26037 154.4824 256.6139 C 155.08965 255.2584 156.6354 255.87096 156.60823 257.4318 C 156.59296 258.30975 154.89904 260.62204 152.72569 262.5356 C 150.64958 264.45087 147.66771 268.10674 146.06595 270.7134 C 143.66077 274.76968 143.1389 276.80974 142.71646 284.3161 C 142.1747 293.0889 142.07406 293.2823 137.79745 298.67196 C 132.12714 305.89126 130.40098 310.05702 130.28216 316.8856 C 130.12939 325.66524 129.20835 328.2838 124.65697 332.69284 C 121.39185 335.85585 120.18926 337.884 119.24445 341.86827 C 117.13319 351.39425 118.02757 355.89864 121.13723 350.48855 C 124.64777 344.4024 128.32394 339.97805 131.3691 338.2749 C 138.0514 334.3911 142.87365 325.59565 142.7245 317.39623 C 142.603 313.1981 142.80598 312.71376 147.54845 308.50323 C 154.46258 302.4767 155.47068 300.44514 156.50206 291.48573 C 157.43788 282.42708 158.85194 279.42682 163.284 276.28425 C 165.0548 275.1443 166.93374 273.80767 168.21419 272.46733 C 170.82546 269.1455 172.3126 267.46803 173.08799 266.80667 C 173.08383 266.7136 173.08255 266.61213 173.08446 266.50258 C 173.00589 265.42782 173.3078 264.84762 173.59276 265.24293 C 173.8132 265.47192 173.91259 266.04506 173.80865 266.60585 Z" stroke="black" stroke-linecap="round" stroke-linejoin="round" stroke-width="4" clip-path="url(#inner_stroke_clip_path)"/>
      </g>
    </g>
  </g>
</svg>
