<?xml version="1.0" encoding="UTF-8" standalone="no"?>
<!DOCTYPE svg PUBLIC "-//W3C//DTD SVG 1.1//EN" "http://www.w3.org/Graphics/SVG/1.1/DTD/svg11.dtd">
<svg xmlns:xl="http://www.w3.org/1999/xlink" xmlns="http://www.w3.org/2000/svg" xmlns:dc="http://purl.org/dc/elements/1.1/" version="1.1" viewBox="49.5 76.5 193.5 324" width="193.5" height="324">
  <defs>
    <clipPath id="artboard_clip_path">
      <path d="M 49.5 76.5 L 243 76.5 L 243 400.5 L 49.5 400.5 Z"/>
    </clipPath>
  </defs>
  <g id="Falcon_s_Head_Erased_and_Hooded" stroke-opacity="1" stroke="none" stroke-dasharray="none" fill="none" fill-opacity="1">
    <title>Falcon&apos;s Head Erased and Hooded</title>
    <g id="Falcon_s_Head_Erased_and_Hooded_Art" clip-path="url(#artboard_clip_path)">
      <title>Art</title>
      <g id="Group_70">
        <g id="Graphic_118">
          <path d="M 134.16467 81.69719 C 130.89204 83.17643 132.95255 84.03267 138.93394 83.73944 C 144.65777 83.3392 147.71372 84.12582 146.4407 85.59027 C 146.0848 85.86524 141.39122 86.6936 135.80923 87.33401 C 127.24959 88.30768 124.80447 89.10386 120.77394 92.26161 C 116.50325 95.56119 109.25315 106.3214 109.44457 109.05889 C 109.6099 111.42308 112.10113 109.49832 113.70656 105.63487 C 115.97157 100.47491 120.91316 94.2525 123.02849 94.10459 C 125.51711 93.93056 125.08029 94.83639 119.63228 100.96916 C 114.40703 106.71125 111.25707 115.30916 113.01998 119.06211 C 114.47311 121.96145 115.92278 121.23488 117.8493 116.59874 L 119.56176 112.47773 L 119.8315 116.33509 C 120.10384 118.44172 121.14888 120.86943 122.20524 121.67084 C 123.2616 122.47225 123.83763 123.55733 123.50784 124.20558 C 123.17805 124.85384 123.3808 125.96502 123.93072 126.6768 C 124.48936 127.51302 125.80589 126.67072 127.51574 124.30044 L 130.12532 120.49182 L 128.84706 125.45774 C 128.15876 128.1317 127.89597 131.52615 128.35627 132.74435 C 129.46222 136.04308 132.6426 136.821 133.96176 134.22797 C 135.47756 130.87095 136.77408 131.53052 139.26355 136.73314 C 140.45043 139.40102 142.22465 141.52766 142.97123 141.47546 C 143.96668 141.40585 144.11113 139.89527 143.24535 136.4547 C 142.5214 133.2543 142.52401 131.50357 143.39503 131.44266 C 146.63024 131.21643 148.84821 139.68906 147.70655 148.39662 C 146.8799 154.45632 139.94133 158.94278 127.8602 161.41309 C 113.79687 164.14704 108.033 167.55104 104.80474 175.02907 C 103.41336 178.3774 102.22996 179.33542 99.49247 179.52685 C 94.3908 179.88359 77.37679 188.70073 71.619006 193.9799 C 66.439875 198.5934 58.32484 211.2897 55.38024 219.24805 C 53.158735 225.03017 53.786065 239.36584 56.21725 241.9467 C 58.0985 243.8158 62.62152 244.1247 62.49101 242.25824 C 62.325686 239.89405 80.08282 227.3988 86.32439 225.46187 C 93.66844 223.19777 104.34949 223.95135 113.3555 227.57293 C 121.46439 230.88213 122.7757 233.5413 120.70819 243.3139 C 119.89285 247.7473 118.38313 252.9795 117.5182 254.91557 C 115.48465 259.80927 117.16667 263.16667 122.62072 259.93547 C 127.11515 257.23876 127.43003 258.97397 127.68236 262.58247 C 128.27403 271.0438 113.46832 318.5938 110.10869 318.82872 C 109.11324 318.89833 101.56815 330.80453 98.17195 337.6691 C 94.45465 345.30638 89.45734 365.03694 90.62681 367.45596 C 91.32727 368.53233 91.75015 371.00355 91.75624 372.8787 C 91.67355 380.63695 96.22182 375.9425 106.09544 357.99664 C 108.9826 352.79317 111.57479 348.7357 111.96548 348.95844 C 112.24045 349.31433 111.61306 352.8593 110.40702 357.06995 C 109.21839 361.52945 108.67801 366.31873 109.24273 369.0301 C 110.38086 374.5773 122.67946 393.09842 125.71801 393.6362 C 126.98842 393.92247 128.30234 394.8309 128.74525 395.80025 C 130.80052 400.15795 132.05876 396.6939 131.34266 388.2413 C 130.75969 379.9044 131.60375 374.09357 135.16442 364.21654 C 136.83338 359.47338 137.7305 359.78576 139.1175 365.31555 C 139.67351 367.9025 141.25978 370.91757 142.71553 372.06616 C 144.17129 373.21476 146.08734 375.58157 146.97315 377.52026 C 148.57682 380.7842 154.64869 385.3612 155.69026 384.163 C 155.91302 383.7723 156.32635 380.74245 156.46471 377.3567 C 156.76754 370.9585 160.02715 360.3523 161.76918 360.2305 C 163.63565 360.09997 169.11232 370.4704 169.9929 375.91056 C 170.45928 379.00394 170.89957 381.724 170.91697 381.9729 C 171.25284 383.1998 175.7315 377.5099 175.6271 376.01674 C 175.56619 375.1457 175.87857 374.2486 176.48332 373.95623 C 176.96365 373.67257 178.55776 371.43542 180.13448 368.9494 C 182.38817 365.41576 182.92593 362.3772 182.9103 355.00097 L 182.87987 345.62514 L 185.62082 349.0596 C 187.82054 351.90674 188.5184 354.73385 189.09266 362.9463 C 189.71044 371.7809 190.06371 373.2567 191.93018 373.12616 C 195.41425 372.88253 197.59748 362.9768 196.28794 353.19024 C 195.5927 348.6124 194.6312 343.8031 193.93074 342.7267 C 193.19548 341.1526 193.40083 340.51306 194.894 340.40864 C 197.75592 340.2085 199.51012 343.83704 200.62562 352.63684 C 201.5758 359.07245 201.35043 361.2139 199.3717 365.10343 C 196.92135 369.4011 194.45707 377.07577 194.6137 379.31553 C 194.7703 381.5553 198.04294 380.07605 200.91879 376.4989 C 204.8449 371.84796 207.3962 365.4176 207.11776 361.4358 C 206.83063 357.32956 208.08364 357.367 212.28034 361.95006 C 215.37719 365.10957 216.14988 365.43066 217.67177 363.9488 C 219.20236 362.5914 219.95765 362.6636 221.97203 364.6484 C 223.19632 366.0633 224.7678 367.07875 225.26553 367.04394 C 227.00757 366.92213 226.01735 363.49027 223.7454 361.39842 C 222.54721 360.35685 221.27942 358.31984 221.1837 356.9511 C 220.79562 354.9776 221.03579 354.83577 222.26008 356.25063 C 227.15725 361.9101 229.55363 363.99322 233.31004 365.8562 C 238.10542 368.27176 240.15114 367.1284 236.92986 363.9776 C 235.59854 362.8203 234.597 361.01472 234.5274 360.01928 C 234.4491 358.8994 232.54173 356.65702 230.2785 354.6896 C 227.8995 352.85533 223.6158 347.02795 220.74433 341.727 C 211.44686 324.99665 208.98002 316.54143 207.53565 295.88587 C 206.92657 287.1757 205.67794 278.26017 204.77473 276.0726 C 203.2955 272.8 203.49215 272.036 205.71712 269.87978 C 207.71064 267.98983 208.42503 265.68916 208.45899 260.81025 C 208.45552 257.18434 209.61196 250.47638 211.03206 245.75062 C 217.79405 222.64563 218.57458 217.7145 217.19805 205.18177 C 214.76084 182.8451 204.84207 171.53489 175.35806 157.59155 C 164.23933 152.36716 161.63151 149.0484 160.97023 139.59165 C 160.33505 130.50818 162.25634 129.37351 169.1183 134.52045 C 171.63041 136.47046 173.99199 138.05588 174.36528 138.02977 C 174.73857 138.00367 175.25023 134.59183 175.45212 130.32637 C 175.73755 123.67931 176.15696 122.52463 178.93187 121.0802 C 183.86822 118.35926 185.93396 115.71402 186.46563 110.8003 C 187.14176 104.37601 184.07017 96.21315 179.12688 91.68228 C 174.71611 87.61433 166.67945 83.54984 163.56867 83.76737 C 162.57322 83.83698 160.8686 82.70578 159.76875 81.28222 C 157.97712 78.90671 157.34627 78.82578 154.6958 80.26152 C 152.65007 81.40488 150.04572 81.71204 146.7496 81.06725 C 141.4452 80.31281 136.45925 80.53643 134.16467 81.69719 Z" fill="black"/>
        </g>
        <g id="Graphic_117">
          <path d="M 156.98528 84.86741 C 156.51458 85.27658 153.12005 87.66959 152.62905 87.10476 C 152.21988 86.63407 154.87791 83.3938 155.3486 82.98464 C 155.91344 82.49364 156.69916 82.637 157.10833 83.10769 C 157.59933 83.67252 157.5501 84.37641 156.98528 84.86741 Z" fill="#FFFFFF"/>
        </g>
        <g id="Graphic_116">
          <path d="M 167.90721 88.59061 C 163.10314 86.05063 159.7087 85.78784 158.6036 87.86575 C 158.27381 88.514 156.57528 89.25797 155.08211 89.36239 C 153.4645 89.4755 151.43619 90.86773 150.42072 92.43921 C 149.53839 94.12642 148.35498 95.08445 147.69803 94.63023 C 147.1568 94.04288 147.5588 92.63934 148.59168 91.31672 C 150.31022 89.07087 150.1771 88.95514 145.44001 89.16135 C 141.19195 89.20833 140.5872 89.50069 141.93592 90.90686 C 143.28465 92.31302 143.33685 93.0596 142.19696 94.63979 C 141.05706 96.21997 139.33242 96.59065 135.30713 96.24693 C 130.65967 95.94671 129.31703 96.41572 124.57472 100.1234 C 121.62056 102.58068 118.59418 105.79326 117.952 107.33864 C 116.76599 110.0474 116.88172 109.91427 120.04123 106.81742 C 123.88642 102.79736 131.46455 98.51626 134.94862 98.27263 C 138.55712 98.0203 144.07297 100.01034 143.4134 101.30686 C 142.95918 101.96382 140.84385 102.11174 138.1699 101.42344 C 131.68469 99.8763 126.07136 103.64489 123.83854 111.05331 C 121.49869 118.7193 123.37124 120.46395 127.58364 114.54261 C 129.40052 111.91478 131.50106 109.76726 132.24765 109.71505 C 133.11866 109.65415 132.58352 110.94196 131.31919 112.53085 C 130.06356 114.24416 128.72701 116.58833 128.44073 117.85875 C 127.83336 119.90185 127.95779 119.89315 130.57346 117.95969 C 134.13237 115.21004 135.34796 116.50047 133.297 121.14531 C 132.44077 123.20581 131.89431 126.11993 132.24759 127.5957 C 132.91933 130.04952 133.1595 129.90769 135.14692 126.14257 C 137.55376 121.22277 139.01213 120.62063 139.28187 124.47799 C 139.42978 126.59332 139.82048 126.81608 140.86205 125.61789 C 143.17665 122.95525 144.2243 123.63222 147.09577 128.93317 C 149.85151 134.36725 150.7521 138.30553 151.0514 146.1621 C 151.20626 155.52923 140.18234 164.17758 126.61935 165.126 C 121.51768 165.48274 114.01178 169.00855 109.53573 172.9477 C 107.17763 174.98818 107.31076 175.10391 112.59254 179.11096 C 119.0464 183.78628 120.3577 186.44545 123.96268 200.44787 C 128.2829 217.52626 127.5 226.33333 124.14876 244.44813 C 123.12674 249.84673 120.55539 256.42843 122.0625 255.9375 C 123.83333 255.33333 126.47115 252.41393 130.33113 250.39346 C 134.67143 248.08933 139.68609 246.48827 149.40303 244.18328 C 153.7059 243.13216 153.94607 242.99033 151.71763 241.52064 C 149.62232 240.1667 149.48049 239.92652 151.21382 239.68028 C 152.3337 239.60197 154.01221 240.35987 155.08597 241.41014 C 157.11775 243.64382 165.75917 247.41593 168.37222 247.2332 C 169.36767 247.1636 170.39793 247.59172 170.6816 248.07204 C 171.42556 249.77057 183.64415 256.41853 184.33853 255.61974 C 184.81015 255.21164 183.41792 253.18333 181.2878 251.33165 C 178.21706 248.54542 177.916 247.81624 179.5336 247.70313 C 180.65348 247.62482 181.68373 248.05293 181.71854 248.55066 C 181.89256 251.03928 197.4255 263.95753 199.91413 263.7835 C 203.52263 263.53118 204.27445 259.9775 201.40037 256.4273 C 200.03424 254.77227 197.69269 251.68498 196.16732 249.54093 C 194.63326 247.27245 190.72022 243.1697 187.63208 240.1346 C 184.4282 237.23266 182.11276 234.51867 182.45995 234.11927 C 183.26136 233.06291 190.72807 237.9175 192.5545 240.79072 C 193.3968 242.10726 196.14645 245.66617 198.71947 248.4872 L 203.33297 253.66632 L 204.35105 250.3441 C 204.8514 248.55856 205.31693 246.2753 205.26472 245.5287 C 205.20382 244.6577 206.22452 239.58474 207.5924 234.1124 C 210.50744 222.15484 209.87317 200.56736 206.51353 200.80229 C 205.51808 200.8719 201.19433 198.04825 197.06723 194.46063 C 192.8244 191.00613 187.8176 187.35497 185.88152 186.49004 C 183.56345 185.52678 182.19733 183.87176 182.08421 182.25415 C 181.82318 178.52122 175.80875 171.18934 170.33901 168.07072 C 165.7751 165.38891 163.74593 161.4045 168.00877 163.35712 C 171.7565 165.0957 181.8023 174.64646 184.22217 178.85363 C 186.63334 182.93636 206.61186 200.4203 207.65343 199.2221 C 208.92646 197.75765 203.21224 185.77832 197.9879 179.01639 C 192.4799 171.77414 182.5385 163.71654 179.67657 163.91667 C 178.80556 163.97757 183.01966 168.80951 189.16984 174.50639 C 195.2043 180.3364 199.8091 185.3911 199.4619 185.79049 C 198.3046 187.1218 191.42524 181.726 185.18805 174.78482 C 182.0651 171.25201 178.57757 167.86974 177.67174 167.43292 C 176.76592 166.9961 175.91492 165.55514 175.81921 164.1864 C 175.7235 162.81766 173.46025 160.85025 170.21896 159.2013 C 160.23752 154.14746 156.03212 149.43995 154.17873 140.81679 C 153.25204 136.50521 152.71604 132.41639 152.9127 131.6524 C 153.10065 130.76398 153.45046 128.61385 153.69323 126.72128 C 153.94471 124.95314 155.18294 122.99096 156.40985 122.65509 C 158.11708 122.03555 158.09967 121.78669 155.68328 121.20542 C 154.03087 120.82081 152.69955 119.66351 152.63864 118.7925 C 152.56903 117.79704 151.35344 116.50661 149.9238 115.73131 C 147.57962 114.39475 146.10908 111.24656 147.72669 111.13344 C 149.59315 111.00293 154.86623 114.88554 154.97064 116.37871 C 155.04025 117.37416 155.71461 118.07724 156.33677 118.03374 C 157.08336 117.98153 160.76755 120.59982 164.49525 123.84025 C 168.08982 126.96496 171.38332 129.36049 171.61478 129.09423 C 172.77208 127.7629 169.02089 122.39844 165.63776 120.50934 C 162.26334 118.74467 153.35219 111.11519 153.27388 109.99531 C 153.12596 107.87998 157.92133 110.29552 163.50418 115.03175 C 167.22318 118.14776 170.90737 120.76605 171.52953 120.72254 C 173.64486 120.57462 172.63724 116.8939 170.33657 116.1795 C 165.9928 114.85773 159.53547 106.55651 162.64624 106.33898 C 163.14397 106.30418 165.23928 107.65813 167.23626 109.39408 C 170.02333 111.69998 170.92045 112.01237 170.81604 110.5192 C 170.73773 109.39931 167.6931 106.98639 164.0698 105.23912 C 160.44652 103.49185 157.94311 101.66628 158.6549 101.11635 C 160.31862 99.87465 170.4097 102.9202 172.4589 105.40273 C 173.40822 106.46171 174.5716 107.00555 174.9101 106.48172 C 176.65475 104.60917 173.9573 101.79685 168.84084 100.154 C 166.02505 99.22554 163.94714 98.12045 164.27693 97.47219 C 165.04353 95.91811 176.47726 98.49465 178.25148 100.6213 C 180.4425 103.34399 181.6781 103.13255 180.3581 100.34895 C 178.72833 96.71173 172.57815 91.01485 167.90721 88.59061 Z" fill="#FFFFFF"/>
        </g>
        <g id="Graphic_115">
          <path d="M 177.32473 114.19037 C 179.43482 117.54392 178.1531 118.88394 175.57138 115.93849 C 173.26463 113.34892 172.91135 111.87315 174.65339 111.75133 C 175.27554 111.70783 176.47373 112.7494 177.32473 114.19037 Z" fill="#FFFFFF"/>
        </g>
        <g id="Graphic_114">
          <path d="M 112.2636 185.13585 L 112.2636 185.13585 C 110.11609 183.03531 107.38992 181.60043 106.14561 181.68744 C 95.12345 183.20842 82.07645 189.74754 72.5631 198.54034 C 64.340186 206.11756 58.17863 219.92764 59.259326 228.22972 L 60.05027 234.1763 L 62.966154 227.5954 C 66.318855 220.10866 73.18173 212.75158 81.23147 208.0624 C 86.0347 205.22572 88.99494 204.6436 103.41154 203.38542 C 112.4863 202.6258 120.29936 201.70435 120.52212 201.31366 C 121.80385 199.97363 116.0087 188.62516 112.2636 185.13585 Z" fill="#FFFFFF"/>
        </g>
        <g id="Graphic_113">
          <path d="M 118.13614 210.10822 C 120.96672 213.03628 123.17515 216.00784 122.98719 216.89626 C 122.79054 217.66025 120.81096 216.17316 118.4955 213.45916 C 114.66339 208.72555 112.56808 207.3716 112.7334 209.73578 C 112.77691 210.35794 114.29357 212.37755 116.05039 214.25534 C 120.37152 218.82972 122.36589 222.3164 122.47639 225.68474 C 122.6069 227.5512 122.25971 227.9506 121.79941 226.7324 C 120.31147 223.33534 116.87614 220.69965 116.10083 222.1293 C 115.66402 223.03512 113.17801 221.4584 109.95674 218.3076 C 107.00173 215.38824 103.83266 212.98401 102.83721 213.05362 C 101.96619 213.11453 103.22529 215.02712 105.7548 217.22599 C 111.89628 222.79843 110.09942 223.9244 103.23746 218.77745 C 100.20152 216.48895 97.35093 215.06277 97.00374 215.46217 C 96.65655 215.86157 97.33961 216.68908 98.62742 217.22422 C 101.08733 218.42764 101.74167 220.6326 99.62634 220.78052 C 98.87976 220.83272 96.81055 219.85206 94.9728 218.60513 C 91.29731 216.11128 87.88546 215.59962 90.54811 217.91422 C 93.21075 220.22882 92.50767 220.90319 85.96503 222.11093 C 80.04454 223.27517 76.78932 225.00327 68.835285 231.0612 L 65.747996 233.40276 L 67.37345 228.03744 C 71.06117 216.40097 87.02753 206.90685 105.55905 205.48596 C 112.90049 204.9726 113.14935 204.9552 118.13614 210.10822 Z" fill="#FFFFFF"/>
        </g>
        <g id="Graphic_112">
          <path d="M 165.6121 250.67724 L 165.6121 250.67724 C 159.80388 248.08245 149.47002 246.92947 144.82865 248.50442 C 143.47731 248.849 139.82269 250.2299 136.65709 251.45158 C 130.93935 253.727 130.82362 253.86013 131.18906 259.08623 C 131.4936 263.44132 129.64016 272.6988 125.198 289.6397 C 124.501 292.1892 124.62544 292.1805 126.32658 289.6858 C 129.96903 284.55456 129.63401 288.7043 125.55821 298.36726 C 123.3106 303.7761 117.75033 313.6679 113.20814 320.2375 C 102.86814 335.09 90.50761 363.9632 94.4894 363.68475 C 96.85359 363.51943 106.93865 346.80916 107.3807 342.40187 C 107.93239 335.98627 118.95461 316.58464 119.29395 321.43745 C 119.32005 321.81075 117.63631 324.5543 115.47224 327.58155 C 112.29271 332.18027 109.35681 340.26305 109.63524 344.24485 C 109.67005 344.74257 110.78123 344.53983 112.09776 343.69753 C 113.4143 342.85523 114.45587 341.65704 114.40366 340.91046 C 114.27314 339.044 121.20739 325.555 122.32727 325.4767 C 124.0693 325.35487 123.58637 327.38927 121.18214 330.55834 C 119.92651 332.27166 118.62476 335.11355 118.37328 336.8817 C 118.1218 338.64983 117.25426 342.33664 116.43283 344.89487 C 115.33382 348.84794 115.39473 349.71896 116.63904 349.63195 C 117.63449 349.56234 120.20057 345.13156 122.45687 339.84716 C 124.71318 334.56277 127.0304 330.1494 127.65255 330.1059 C 128.27471 330.06238 127.9075 331.96365 126.68668 334.1747 C 125.47456 336.51016 123.50191 342.27488 122.20625 346.99194 C 120.91929 351.83343 119.18942 355.7056 118.3184 355.7665 C 116.7008 355.8796 116.30749 357.4076 115.65485 365.9559 C 114.9326 373.5088 123.1276 390.5663 125.90511 387.37113 C 126.49246 386.8299 126.65955 382.0667 126.40983 376.70748 C 126.04439 371.48137 126.48905 365.32334 127.09642 363.28024 C 128.41819 358.93647 137.31985 343.18423 138.43972 343.1059 C 140.18176 342.9841 142.36755 349.20827 143.42214 357.13705 C 144.25659 363.7058 145.37124 367.12896 148.1557 371.1856 L 151.77375 376.43433 L 153.54974 371.4336 C 154.68355 367.97825 154.8193 366.34325 153.79775 366.03956 C 152.90933 365.8516 152.72399 364.9893 153.4906 363.4352 C 154.02574 362.1474 154.35467 356.1225 154.30161 349.99927 C 154.12412 343.88475 154.14067 338.75697 154.12327 338.5081 C 154.2303 338.25055 155.91751 339.1329 158.13725 340.47814 C 161.52908 342.49167 162.11381 343.70117 162.44445 348.42955 C 162.66198 351.54033 163.82013 355.58565 164.9548 357.50694 C 167.63223 361.82113 168.27179 362.0265 167.24676 358.0969 C 166.76036 356.5054 167.01184 354.73726 167.73232 354.31177 C 169.39604 353.07007 168.90008 345.9775 166.96924 341.6111 C 164.77213 337.01323 165.98164 336.4285 168.66777 340.86713 C 169.92687 342.7797 171.11112 347.19832 171.33735 350.43353 C 171.56358 353.66874 172.27621 358.49545 172.96536 361.19813 C 174.04259 365.8743 174.04259 365.8743 175.46007 362.89927 C 177.4214 358.76086 176.58347 348.5662 173.96348 341.49713 C 171.64456 335.15723 172.5617 333.96774 176.01182 338.60303 C 177.25351 340.26675 179.34012 341.49628 180.70886 341.40057 C 182.94862 341.24395 182.79809 340.87935 179.44021 333.9869 C 175.4976 325.88496 171.5124 304.65684 174.23856 306.0917 C 175.14439 306.52853 176.01887 310.09353 176.33211 314.57305 C 176.68886 319.67472 178.06715 325.08008 180.59143 330.78042 C 182.6641 335.387 184.22165 339.7795 184.0163 340.41905 C 183.81964 341.18304 184.9804 343.4776 186.75463 345.60427 C 188.67069 347.97107 190.22824 352.36358 191.21584 357.54618 C 191.90237 361.9996 193.15015 365.5385 193.7723 365.495 C 194.39446 365.45147 194.57894 360.93715 194.2048 355.5866 C 193.58702 346.752 192.95878 344.92035 188.7299 338.0888 C 183.94237 330.42106 179.02086 317.26094 178.5945 311.1638 C 178.26386 306.43544 180.16513 306.80265 180.75334 311.63806 C 181.76443 318.9447 190.86262 338.18976 193.10238 338.03314 C 195.46657 337.8678 195.14201 335.0146 191.89725 329.73976 C 187.49172 322.17034 183.49082 311.44663 184.79866 310.4799 C 185.3947 310.0631 186.6625 312.10012 187.60922 314.90983 C 188.68906 317.83527 191.73716 323.8741 194.55643 328.42846 C 197.37569 332.9828 199.9635 337.80344 200.18363 339.1635 C 200.5195 340.3904 201.414 342.4535 202.11447 343.5299 C 204.7658 347.4708 202.93243 337.34575 200.09577 332.54253 C 195.85818 325.58656 190.94275 314.3016 191.76156 313.4941 C 192.10875 313.0947 192.78311 313.7978 193.36785 315.0073 C 196.36983 322.1747 201.56545 330.3141 201.93266 328.4128 C 202.10322 327.27554 201.582 325.1863 200.86414 323.86108 C 199.0464 321.11228 198.85237 320.12553 200.2211 320.0298 C 200.71884 319.995 202.90986 322.7177 205.26011 325.92943 C 207.49464 329.2743 209.67696 331.87255 210.17468 331.83774 C 211.17013 331.76814 204.65365 315.46852 202.14416 311.76778 C 199.20917 307.34655 196.37165 297.1667 195.97402 289.69213 L 195.70082 282.20886 L 197.25314 290.10284 C 199.74955 302.55726 206.35056 313.58368 206.35056 313.58368 C 206.35056 313.58368 202.13984 302.76524 200.63888 290.2412 C 199.53208 281.56583 199.557 276.78133 199.557 276.78133 C 199.557 276.78133 203.12449 294.9628 204.62282 298.9342 C 203.7536 290.33567 202.8308 280.4599 201.9363 278.39677 C 201.32547 276.81397 200.76945 274.22702 200.65634 272.6094 C 200.50842 270.4941 199.1684 269.21236 195.18052 267.61562 C 192.2316 266.57144 185.7142 262.77583 180.60906 259.50667 C 175.61965 256.10438 168.8447 252.20175 165.6121 250.67724 Z" fill="#FFFFFF"/>
        </g>
        <g id="Graphic_111">
          <path d="M 209.94408 337.48065 C 211.3537 339.75783 213.23496 341.6269 214.10598 341.566 C 214.977 341.5051 215.75839 341.9506 215.8106 342.6972 C 215.8541 343.31935 214.52886 344.03722 212.91126 344.15033 C 210.54707 344.31565 209.60644 343.3811 207.79133 338.88158 C 205.08171 332.3189 206.15809 331.61845 209.94408 337.48065 Z" fill="#FFFFFF"/>
        </g>
        <g id="Graphic_110">
          <path d="M 158.62451 347.44628 C 158.69412 348.44172 158.10677 348.98295 157.45851 348.65317 C 156.67712 348.20765 156.36735 347.35403 156.69714 346.70577 C 157.6952 344.88543 158.4679 345.2065 158.62451 347.44628 Z" fill="#FFFFFF"/>
        </g>
        <g id="Graphic_109">
          <path d="M 133.96277 359.54907 C 131.81349 364.5759 129.85216 368.7143 129.47887 368.7404 C 128.35899 368.81873 133.0822 354.1089 134.91647 351.72993 C 138.1221 347.5045 137.8158 350.2768 133.96277 359.54907 Z" fill="#FFFFFF"/>
        </g>
        <g id="Graphic_108">
          <path d="M 210.52182 349.319 C 213.00867 356.27235 213.32715 357.2504 212.65278 356.5473 C 210.93077 355.16726 207.36145 347.0392 208.48133 346.9609 C 209.10348 346.9174 210.0528 347.97636 210.52182 349.319 Z" fill="#FFFFFF"/>
        </g>
        <g id="Graphic_107">
          <path d="M 217.91546 349.55222 C 219.406 351.19855 220.2657 352.76394 220.04295 353.15464 C 219.68706 353.4296 218.2139 352.03214 216.4571 350.15436 C 214.816 348.14345 213.9563 346.57805 214.45402 346.54324 C 214.95174 346.50844 216.54933 347.8972 217.91546 349.55222 Z" fill="#FFFFFF"/>
        </g>
        <g id="Graphic_106">
          <path d="M 158.64015 354.8225 C 158.44088 357.33724 156.91899 358.8191 156.76237 356.57933 C 156.64925 354.96173 157.51419 353.02565 158.50963 352.95605 C 158.63407 352.94735 158.69497 353.81836 158.64015 354.8225 Z" fill="#FFFFFF"/>
        </g>
        <g id="Graphic_105">
          <path d="M 204.952 353.70974 C 204.6483 354.7313 204.2489 354.3841 204.1532 353.01536 C 203.93306 351.65532 204.25414 350.88263 204.66224 351.35426 C 205.06164 351.70145 205.26438 352.81262 204.952 353.70974 Z" fill="#FFFFFF"/>
        </g>
        <g id="Graphic_104">
          <path d="M 202.66258 369.2497 C 201.86988 370.4305 200.90923 370.9978 200.50984 370.65062 C 200.11914 370.42786 200.53855 369.2732 201.33126 368.0924 C 202.12397 366.9116 203.08461 366.34427 203.484 366.69146 C 203.8747 366.91422 203.4553 368.0689 202.66258 369.2497 Z" fill="#FFFFFF"/>
        </g>
        <g id="Graphic_103">
          <path d="M 153.19301 92.74551 C 151.83035 94.71639 152.08792 94.82342 155.39535 93.8419 C 157.72473 93.17886 161.35934 93.29982 164.79729 94.18477 C 171.29989 95.98078 172.30404 96.0356 172.19963 94.54243 C 172.10391 93.17369 161.8884 90.13684 157.9066 90.41527 C 156.16457 90.53709 153.98572 91.56473 153.19301 92.74551 Z" fill="black"/>
        </g>
        <g id="Graphic_102">
          <path d="M 158.35536 164.7824 C 158.38146 165.15569 160.51158 167.00737 163.02368 168.95737 C 165.5358 170.90738 169.83082 175.10847 172.6875 178.40981 C 178.1433 184.90548 180.59712 184.23373 175.26575 177.72937 C 168.2759 168.96522 158.10303 161.1739 158.35536 164.7824 Z" fill="black"/>
        </g>
        <g id="Graphic_101">
          <path d="M 121.77871 169.21567 C 121.11914 170.5122 127.40507 174.57406 128.44664 173.37587 C 129.37248 172.31081 125.6735 167.69293 123.93146 167.81475 C 123.18487 167.86695 122.22423 168.43428 121.77871 169.21567 Z" fill="black"/>
        </g>
        <g id="Graphic_100">
          <path d="M 129.85803 168.52567 C 129.97114 170.14328 133.77107 172.62843 134.70561 171.6878 C 135.50702 170.63145 132.5172 167.21437 130.8996 167.32749 C 130.27745 167.371 129.81453 167.90352 129.85803 168.52567 Z" fill="black"/>
        </g>
        <g id="Graphic_99">
          <path d="M 149.7322 166.63578 C 149.7496 166.88464 151.32108 167.9001 153.38159 168.75634 C 155.31766 169.62127 158.91223 172.74598 161.49394 175.69144 C 166.66608 181.70678 169.49057 182.75967 166.25451 177.60926 C 163.29342 172.81474 154.66593 165.66558 151.92845 165.857 C 150.68414 165.94402 149.7061 166.26249 149.7322 166.63578 Z" fill="black"/>
        </g>
        <g id="Graphic_98">
          <path d="M 118.03793 174.72891 C 118.47213 175.57383 119.78605 176.48227 121.1722 176.63542 C 123.1892 176.8695 123.29623 176.61193 121.68124 174.9743 C 119.52502 172.74933 117.26786 172.6571 118.03793 174.72891 Z" fill="black"/>
        </g>
        <g id="Graphic_97">
          <path d="M 179.5129 190.1864 C 179.18311 190.83466 182.07722 192.883 185.95807 194.7373 C 189.97205 196.70732 196.15095 201.02675 199.77162 204.52475 C 203.51672 208.01406 206.80152 210.28515 207.1226 209.51246 C 208.00494 207.82525 192.20572 194.67554 185.34984 191.40376 C 182.36612 189.86185 179.95842 189.40502 179.5129 190.1864 Z" fill="black"/>
        </g>
        <g id="Graphic_96">
          <path d="M 180.2377 198.76345 C 179.90792 199.4117 182.6689 201.3443 186.4253 203.2073 C 192.8905 206.25633 201.11858 213.0583 204.33724 217.95984 C 206.7136 221.54485 207.52632 218.8622 205.257 215.01962 C 201.0368 208.3125 181.77962 195.77972 180.2377 198.76345 Z" fill="black"/>
        </g>
        <g id="Graphic_95">
          <path d="M 182.1781 208.63092 C 182.84376 209.20957 187.06049 212.29078 191.6679 215.59474 C 196.26662 218.77427 200.67738 222.84222 201.53708 224.40762 C 203.11465 227.29825 206.5613 228.30764 206.38728 225.81902 C 206.13495 222.21051 186.45488 207.2065 182.47309 207.48494 C 181.47764 207.55455 181.3793 207.93654 182.1781 208.63092 Z" fill="black"/>
        </g>
        <g id="Graphic_94">
          <path d="M 179.37795 215.0787 C 179.42145 215.70086 181.01904 217.08962 183.08825 218.07028 C 187.90102 220.73469 201.66584 233.40146 202.73698 236.20247 C 203.33041 237.5364 204.25364 238.22208 204.8497 237.80529 C 206.98504 236.1555 200.26144 227.6228 191.4025 220.73992 C 183.06737 214.19552 179.18653 212.34122 179.37795 215.0787 Z" fill="black"/>
        </g>
        <g id="Graphic_93">
          <path d="M 168.12257 223.99332 C 170.22658 225.4717 172.54465 226.43497 173.01627 226.02687 C 174.6887 224.9096 169.65578 220.88516 166.79386 221.08529 C 164.42967 221.2506 164.5802 221.6152 168.12257 223.99332 Z" fill="black"/>
        </g>
        <g id="Graphic_92">
          <path d="M 180.06533 224.90876 C 180.10014 225.40648 183.14477 227.8194 186.69584 230.32196 C 190.37133 232.81582 195.03965 236.9908 197.08884 239.47333 C 199.96293 243.02354 200.87745 243.5848 201.0132 241.94978 C 201.43523 239.04436 194.94917 232.12058 187.6243 227.50617 C 181.73776 223.7915 179.94352 223.16672 180.06533 224.90876 Z" fill="black"/>
        </g>
        <g id="Graphic_91">
          <path d="M 162.8364 228.8644 C 162.94952 230.482 169.31638 233.913 170.25092 232.97238 C 170.5894 232.44855 169.49825 231.14942 167.78493 229.8938 C 164.22517 227.2668 162.7059 226.99792 162.8364 228.8644 Z" fill="black"/>
        </g>
        <g id="Graphic_90">
          <path d="M 162.07066 235.7951 C 162.15767 237.03942 173.13802 245.64956 173.71667 244.9839 C 174.75824 243.7857 169.62962 238.39252 165.8906 236.7784 C 163.69696 235.80642 162.04455 235.42181 162.07066 235.7951 Z" fill="black"/>
        </g>
        <g id="Graphic_89">
          <path d="M 157.21523 237.88518 C 157.29354 239.00506 161.6782 242.69972 163.04694 242.604 C 163.54466 242.5692 163.2262 241.59116 162.50833 240.26592 C 160.96556 237.87302 157.09341 236.14315 157.21523 237.88518 Z" fill="black"/>
        </g>
        <g id="Graphic_88">
          <path d="M 186.65836 249.45563 C 192.37434 254.30758 197.34373 259.21175 197.78663 260.1811 C 198.22954 261.15044 199.01093 261.59596 199.34941 261.07213 C 200.8713 259.59027 190.62537 247.1776 184.9964 243.56995 C 175.1942 237.50325 176.00779 240.19723 186.65836 249.45563 Z" fill="black"/>
        </g>
        <g id="Graphic_87">
          <path d="M 107.81707 210.95484 C 107.96499 213.07017 112.94308 218.09877 113.87762 217.15814 C 114.21611 216.63431 113.08145 214.71303 111.2089 212.96837 C 109.32764 211.0993 107.76486 210.20826 107.81707 210.95484 Z" fill="black"/>
        </g>
        <g id="Graphic_86">
          <path d="M 175.7919 265.72038 C 176.10168 266.574 177.36686 270.36175 178.4989 274.03377 C 181.23201 282.72046 183.6458 285.05246 181.99515 277.54048 C 180.3358 269.90406 177.80282 264.0793 176.30965 264.1837 C 175.56306 264.2359 175.3664 264.9999 175.7919 265.72038 Z" fill="black"/>
        </g>
        <g id="Graphic_85">
          <path d="M 183.62583 268.67368 C 184.12094 270.3896 185.4592 278.79872 186.566 287.4741 C 187.55707 296.2826 188.92405 303.31426 189.5462 303.27075 C 190.04393 303.23595 189.6289 295.51252 188.59432 286.08186 C 187.06725 273.18454 186.12315 268.6241 184.6587 267.35106 C 182.80355 265.85527 182.68782 265.9884 183.62583 268.67368 Z" fill="black"/>
        </g>
        <g id="Graphic_84">
          <path d="M 134.23887 275.87834 C 133.90909 276.5266 134.20145 277.13135 134.8236 277.08785 C 135.5702 277.03564 136.14884 276.36998 136.10534 275.74783 C 136.05313 275.00124 135.76947 274.52092 135.5206 274.53832 C 135.14731 274.56442 134.55996 275.10565 134.23887 275.87834 Z" fill="black"/>
        </g>
        <g id="Graphic_83">
          <path d="M 190.95242 284.04137 C 191.9722 291.47243 193.4001 299.3751 194.18757 301.6958 C 195.28482 304.8701 195.32224 303.6171 194.33725 296.68375 C 193.60722 291.60818 192.80148 283.662 192.47084 278.9336 C 192.20373 273.32552 191.639 270.61414 190.64356 270.68375 C 189.52368 270.76206 189.64288 274.25483 190.95242 284.04137 Z" fill="black"/>
        </g>
        <g id="Graphic_82">
          <path d="M 172.89951 274.42532 C 172.56972 275.07358 172.8621 275.67833 173.48425 275.63483 C 174.23083 275.58262 174.80948 274.91696 174.76598 274.2948 C 174.71377 273.54822 174.4301 273.0679 174.18124 273.0853 C 173.80795 273.1114 173.2206 273.65263 172.89951 274.42532 Z" fill="black"/>
        </g>
        <g id="Graphic_81">
          <path d="M 132.09915 286.40624 C 130.88441 290.49245 129.90983 294.43682 129.97074 295.30784 C 130.03165 296.17886 128.46972 300.66446 126.42747 305.43373 C 124.39392 310.32743 123.28621 314.15607 123.78393 314.12127 C 124.40609 314.07777 125.2336 313.3947 125.56339 312.74644 C 126.0089 311.96505 126.86252 311.6553 127.51948 312.1095 C 129.59739 313.2146 132.91005 308.7316 134.83919 302.34474 C 135.85727 299.02252 137.33827 295.16777 138.23801 293.72942 C 139.90435 290.737 139.82519 284.24047 137.95872 284.371 C 137.33657 284.4145 136.81013 285.82674 136.93194 287.56878 C 137.16687 290.9284 130.3318 309.41206 128.30349 310.8043 C 127.35154 311.49605 127.19231 311.00703 127.70135 309.3459 C 131.41517 298.08274 135.31348 282.30525 134.83578 280.83818 C 134.64174 279.85143 133.31389 282.32004 132.09915 286.40624 Z" fill="black"/>
        </g>
        <g id="Graphic_80">
          <path d="M 194.50786 277.66582 C 194.2938 278.18095 194.50525 279.41655 195.32144 280.3598 C 196.29687 281.79206 196.52833 281.5258 196.37171 279.28604 C 196.17159 276.42412 195.50593 275.84547 194.50786 277.66582 Z" fill="black"/>
        </g>
        <g id="Graphic_79">
          <path d="M 181.76278 290.31075 C 181.5461 292.5766 181.96029 294.9234 182.62595 295.50205 C 183.3003 296.20514 183.68492 294.55273 183.4674 291.44195 C 183.03234 285.2204 182.25095 284.77488 181.76278 290.31075 Z" fill="black"/>
        </g>
        <g id="Graphic_78">
          <path d="M 136.53857 306.9774 C 134.18393 312.6438 132.64811 317.5027 133.0475 317.84988 C 133.97943 318.66 138.86272 309.81583 140.26542 304.8412 C 140.86409 302.67367 141.67681 299.991 142.08753 298.7119 C 142.50694 297.5572 142.3129 296.57046 141.82388 296.7297 C 141.20172 296.7732 138.77748 301.44415 136.53857 306.9774 Z" fill="black"/>
        </g>
        <g id="Graphic_77">
          <path d="M 166.3646 306.14216 C 166.95542 309.22683 167.9491 316.2846 168.59822 321.99103 C 169.29954 328.44404 170.22623 332.75562 171.41572 333.67276 C 172.74704 334.83006 172.9785 334.5638 172.1101 332.87397 C 171.6498 331.65576 170.79794 324.83815 170.31068 317.87 C 169.6494 308.41325 168.88194 304.5907 167.38269 302.81994 C 165.48403 300.702 165.377 300.95956 166.3646 306.14216 Z" fill="black"/>
        </g>
        <g id="Graphic_76">
          <path d="M 148.49436 317.0198 C 148.14717 317.4192 147.9827 320.43166 148.20023 323.54243 C 148.65268 330.01285 150.46694 329.13574 151.224 322.0806 C 151.67474 317.79773 150.2303 315.02283 148.49436 317.0198 Z" fill="black"/>
        </g>
        <g id="Graphic_75">
          <path d="M 156.13163 320.7371 C 155.13095 324.3082 152.76846 335.2268 152.84677 336.34666 C 152.89028 336.9688 153.61946 336.66775 154.43827 335.86025 C 156.20033 334.23657 158.62895 320.6875 157.43076 319.64594 C 157.03136 319.29875 156.43531 319.71555 156.13163 320.7371 Z" fill="black"/>
        </g>
        <g id="Graphic_74">
          <path d="M 146.69397 332.40052 C 145.81164 334.08774 145.76552 335.2163 146.54691 335.66183 C 147.97656 336.43714 149.37664 333.21325 148.48213 331.15013 C 148.18106 330.42094 147.35355 331.104 146.69397 332.40052 Z" fill="black"/>
        </g>
        <g id="Graphic_73">
          <path d="M 130.12201 336.81038 C 125.70772 346.99717 122.86491 358.19944 124.32937 359.47247 C 125.39442 360.3983 125.75032 360.12334 125.6198 358.25688 C 125.52409 356.88813 126.41774 353.5746 127.59506 350.74142 C 128.77238 347.90823 129.68343 344.84357 129.60512 343.7237 C 129.52681 342.6038 130.24991 340.42758 131.26538 338.8561 C 132.15641 337.2933 132.76378 335.2502 132.32958 334.4053 C 132.02851 333.6761 130.96954 334.62544 130.12201 336.81038 Z" fill="black"/>
        </g>
        <g id="Graphic_72">
          <path d="M 136.37342 94.05883 C 135.27662 93.96287 128.047 92.90777 128.11224 92.16221 C 128.1666 91.54091 135.49404 91.47766 136.59084 91.57362 C 137.907 91.68877 138.73009 92.38684 138.67573 93.00814 C 138.6105 93.7537 137.68958 94.17398 136.37342 94.05883 Z" fill="#FFFFFF"/>
        </g>
        <g id="Graphic_71">
          <path d="M 181.5921 108.34333 C 183.70219 111.69689 182.42046 113.03691 179.83874 110.09145 C 177.53199 107.50189 177.17871 106.02612 178.92075 105.9043 C 179.5429 105.8608 180.7411 106.90237 181.5921 108.34333 Z" fill="#FFFFFF"/>
        </g>
      </g>
    </g>
  </g>
</svg>
