<?xml version="1.0" encoding="UTF-8" standalone="no"?>
<!DOCTYPE svg PUBLIC "-//W3C//DTD SVG 1.1//EN" "http://www.w3.org/Graphics/SVG/1.1/DTD/svg11.dtd">
<svg xmlns:xl="http://www.w3.org/1999/xlink" version="1.1" xmlns="http://www.w3.org/2000/svg" xmlns:dc="http://purl.org/dc/elements/1.1/" viewBox="54 63 253 304" width="253" height="304">
  <defs>
    <clipPath id="artboard_clip_path">
      <path d="M 54 63 L 307 63 L 307 367 L 54 367 Z"/>
    </clipPath>
    <clipPath id="outer_stroke_clip_path">
      <path d="M 54 63 L 307 63 L 307 367 L 54 367 Z M 75.48112 194.38158 L 75.48112 194.38158 C 72.50923 192.69618 68.36071 191.03131 66.29656 190.7778 L 62.46073 190.16914 L 64.86956 193.3121 C 74.09922 205.1189 77.31326 226.2962 73.49952 249.42994 C 72.521995 255.23792 71.109784 264.2385 70.31489 269.27118 C 65.99536 297.143 77.7699 325.50604 98.88074 338.0706 C 105.12541 341.82222 114.79686 345.22447 121.67905 346.166 L 134.25811 347.9249 C 134.25811 347.9249 108.2541 324.39484 107.16147 306.7516 C 106.59411 296.7239 106.7178 292.57158 108.07406 285.98486 C 109.33227 279.39985 109.61669 273.2179 109.30849 255.56097 L 109.01918 233.36748 L 106.2724 227.72102 C 104.74772 224.65914 101.72362 219.98267 99.71373 217.2188 C 93.69249 209.40965 81.42489 197.75239 75.48112 194.38158 Z"/>
    </clipPath>
    <clipPath id="outer_stroke_clip_path_2">
      <path d="M 54 63 L 307 63 L 307 367 L 54 367 Z M 293.93356 185.88478 L 293.93356 185.88478 C 295.65976 183.6348 296.04444 183.1124 296.04444 183.1124 C 296.04444 183.1124 294.19066 183.75695 287.66157 186.18729 C 281.523 188.51429 277.34212 190.6141 270.65398 195.17054 C 260.08416 202.11111 255.70343 209.61926 256.5582 219.25588 C 256.93826 224.17153 255.8016 228.0876 261.3831 238.7999 C 269.90246 254.86578 274.05947 261.0311 274.3845 279.6529 C 274.5142 287.08232 274.07745 295.77633 273.44667 298.97235 C 272.09377 305.75204 261.0056 312.30304 256.3206 319.2374 C 254.5031 321.87505 260.39542 326.70704 260.68958 326.7019 C 262.25842 326.67452 268.6743 323.37752 273.32524 320.11133 C 280.9838 314.95885 289.2058 302.7509 292.5403 291.49693 C 293.74762 287.61524 294.13552 276.12314 293.28037 272.08442 C 292.00942 266.70174 291.07474 263.72608 289.8678 262.00987 C 288.15544 259.43384 282.33272 240.52195 280.92162 232.72883 C 278.091 216.66017 281.2483 200.87305 289.4211 191.46492 C 291.14898 189.31142 293.26403 186.86162 293.93356 185.88478 Z"/>
    </clipPath>
    <clipPath id="outer_stroke_clip_path_3">
      <path d="M 54 63 L 307 63 L 307 367 L 54 367 Z M 127.23782 116.7374 L 127.23782 116.7374 C 127.57256 112.82278 125.38958 105.91844 125.38958 105.91844 C 125.38958 105.91844 125.13148 107.59713 123.0518 112.07314 C 121.54527 115.6705 116.64565 121.54695 106.14656 132.53993 C 88.61597 150.8943 85.28181 156.5504 85.37407 167.45503 C 85.44107 176.91236 88.62385 185.06062 96.47235 196.40895 C 102.51044 205.18297 104.74675 209.68016 106.63295 216.59634 C 111.03914 233.02356 112.08518 264.85538 108.84965 287.39994 C 107.28681 299.00907 107.8016 311.6436 110.4348 322.0213 C 114.43362 337.587 132.44384 352.329 152.2231 356.0374 C 154.97868 356.5684 165.31773 355.5692 160.13311 350.7374 C 153.4575 344.77346 140.09267 340.99972 138.10336 333.7958 C 136.33036 327.74627 135.91195 315.01354 137.17353 308.6215 C 138.44184 302.6154 143.43315 290.7534 147.34214 284.31517 C 150.39561 279.4361 154.8424 270.093 156.42845 265.43258 C 159.69018 255.6276 164.17416 247.70505 160.19309 230.93023 C 157.51368 219.13408 148.74778 208.54933 145.03731 203.88484 C 143.63258 202.07557 138.49267 198.76398 135.51068 196.49966 C 128.35828 191.31616 120.37262 183.34825 117.7441 178.85791 C 116.025 175.89594 114.07343 171.66076 114.00811 162.2999 C 113.81612 151.3005 115.42974 153.03219 120.75095 137.59336 C 123.74042 129.04782 126.90307 120.65203 127.23782 116.7374 Z"/>
    </clipPath>
    <clipPath id="outer_stroke_clip_path_4">
      <path d="M 54 63 L 307 63 L 307 367 L 54 367 Z M 248.14813 155.71527 L 248.14813 155.71527 C 243.38978 147.20846 239.44561 142.14842 239.44561 142.14842 C 239.44561 142.14842 238.79142 147.86781 238.1421 150.00248 C 236.2939 156.50128 233.62927 161.18053 226.44376 170.95749 C 217.53035 182.88795 215.9123 185.71514 213.496 193.38203 C 210.42363 202.79765 211.8263 210.10834 219.4497 225.41773 C 226.56768 239.8673 231.277 254.3462 233.10893 263.77272 C 235.05913 274.35537 234.6821 294.5464 231.12417 309.85794 C 229.65806 315.77097 211.34698 343.08208 210.19561 344.5499 C 207.60546 347.87664 221.61554 349.4987 231.2823 347.0136 C 238.2154 345.25183 245.68123 340.29574 252.1261 333.0411 C 257.5143 327.0596 266.49545 313.3907 268.75103 307.75343 C 273.3535 296.09125 274.2442 274.0702 270.56478 259.94666 C 268.25605 251.30057 266.0248 247.09284 258.29792 237.0936 C 255.68793 233.6646 251.14926 226.50517 248.31116 221.24637 C 243.34828 212.26055 243.13702 211.3956 243.53802 206.27328 C 243.6836 203.37528 244.87407 198.52873 246.00018 195.61361 C 253.40948 176.1812 253.92406 166.32766 248.14813 155.71527 Z"/>
    </clipPath>
    <clipPath id="outer_stroke_clip_path_5">
      <path d="M 54 63 L 307 63 L 307 367 L 54 367 Z M 179.88173 73.81986 L 179.88173 73.81986 C 175.4138 70.71284 173.8468 70.049906 173.8468 70.049906 C 173.8468 70.049906 174.43496 70.82644 176.36027 74.3639 C 177.27137 75.98876 177.92368 79.64496 177.98263 83.02197 C 178.14936 92.57408 172.85716 104.05527 161.43818 118.53887 C 157.11845 123.92261 146.90473 140.02593 144.15721 145.57527 C 138.18875 157.64736 135.36301 169.95413 136.58474 178.13662 C 137.79805 185.83667 143.20704 197.9032 149.23502 206.0983 C 158.681 219.0595 161.84693 226.2429 162.71855 236.84438 C 163.92139 249.5634 160.5427 263.90667 153.14556 278.41658 C 140.71669 302.47282 140.436 303.24984 138.9001 316.40275 C 137.03263 333.036 143.74324 346.62404 157.91968 355.256 C 159.50536 356.1935 161.19414 357.4187 161.89061 357.98564 C 164.18456 360.16545 176.2972 362.946 182.47451 362.83817 C 190.41676 362.69954 202.31347 358.7278 208.4133 354.1816 C 214.12597 349.93173 216.98838 345.34554 221.30006 333.88146 C 232.2602 304.34948 235.36363 285.4748 232.20348 267.38508 C 228.83713 248.71985 215.97054 219.60376 206.1694 208.7721 C 202.36763 204.49526 196.84375 191.46558 195.83497 184.24454 C 194.9377 177.79367 196.22287 172.75244 202.17617 159.81197 C 211.05458 140.25741 211.7039 138.12274 211.49843 126.35145 C 211.33 116.70285 207.06437 108.2139 203.99235 100.90589 C 200.92033 93.59788 188.02477 79.56516 179.88173 73.81986 Z"/>
    </clipPath>
  </defs>
  <g id="Flame_(6)" stroke-opacity="1" stroke="none" fill="none" fill-opacity="1" stroke-dasharray="none">
    <title>Flame (6)</title>
    <g id="Flame_(6)_Layer_2" clip-path="url(#artboard_clip_path)">
      <title>Layer 2</title>
      <g id="Group_109">
        <g id="Graphic_99">
          <path d="M 75.48112 194.38158 C 81.42489 197.75239 93.69249 209.40965 99.71373 217.2188 C 101.72362 219.98267 104.74772 224.65914 106.2724 227.72102 L 109.01918 233.36748 L 109.30849 255.56097 C 109.61669 273.2179 109.33227 279.39985 108.07406 285.98486 C 106.7178 292.57158 106.59411 296.7239 107.16147 306.7516 C 108.2541 324.39484 134.25811 347.9249 134.25811 347.9249 L 121.67905 346.166 C 114.79686 345.22447 105.12541 341.82222 98.88074 338.0706 C 77.7699 325.50604 65.99536 297.143 70.31489 269.27118 C 71.109784 264.2385 72.521995 255.23792 73.49952 249.42994 C 77.31326 226.2962 74.09922 205.1189 64.86956 193.3121 L 62.46073 190.16914 L 66.29656 190.7778 C 68.36071 191.03131 72.50923 192.69618 75.48112 194.38158 Z" fill="#FFFFFF"/>
          <path d="M 75.48112 194.38158 C 81.42489 197.75239 93.69249 209.40965 99.71373 217.2188 C 101.72362 219.98267 104.74772 224.65914 106.2724 227.72102 L 109.01918 233.36748 L 109.30849 255.56097 C 109.61669 273.2179 109.33227 279.39985 108.07406 285.98486 C 106.7178 292.57158 106.59411 296.7239 107.16147 306.7516 C 108.2541 324.39484 134.25811 347.9249 134.25811 347.9249 L 121.67905 346.166 C 114.79686 345.22447 105.12541 341.82222 98.88074 338.0706 C 77.7699 325.50604 65.99536 297.143 70.31489 269.27118 C 71.109784 264.2385 72.521995 255.23792 73.49952 249.42994 C 77.31326 226.2962 74.09922 205.1189 64.86956 193.3121 L 62.46073 190.16914 L 66.29656 190.7778 C 68.36071 191.03131 72.50923 192.69618 75.48112 194.38158 Z" stroke="black" stroke-linecap="round" stroke-linejoin="miter" stroke-width="4" clip-path="url(#outer_stroke_clip_path)"/>
        </g>
        <g id="Graphic_100">
          <path d="M 293.93356 185.88478 C 293.26403 186.86162 291.14898 189.31142 289.4211 191.46492 C 281.2483 200.87305 278.091 216.66017 280.92162 232.72883 C 282.33272 240.52195 288.15544 259.43384 289.8678 262.00987 C 291.07474 263.72608 292.00942 266.70174 293.28037 272.08442 C 294.13552 276.12314 293.74762 287.61524 292.5403 291.49693 C 289.2058 302.7509 280.9838 314.95885 273.32524 320.11133 C 268.6743 323.37752 262.25842 326.67452 260.68958 326.7019 C 260.39542 326.70704 254.5031 321.87505 256.3206 319.2374 C 261.0056 312.30304 272.09377 305.75204 273.44667 298.97235 C 274.07745 295.77633 274.5142 287.08232 274.3845 279.6529 C 274.05947 261.0311 269.90246 254.86578 261.3831 238.7999 C 255.8016 228.0876 256.93826 224.17153 256.5582 219.25588 C 255.70343 209.61926 260.08416 202.11111 270.65398 195.17054 C 277.34212 190.6141 281.523 188.51429 287.66157 186.18729 C 294.19066 183.75695 296.04444 183.1124 296.04444 183.1124 C 296.04444 183.1124 295.65976 183.6348 293.93356 185.88478 Z" fill="#FFFFFF"/>
          <path d="M 293.93356 185.88478 C 293.26403 186.86162 291.14898 189.31142 289.4211 191.46492 C 281.2483 200.87305 278.091 216.66017 280.92162 232.72883 C 282.33272 240.52195 288.15544 259.43384 289.8678 262.00987 C 291.07474 263.72608 292.00942 266.70174 293.28037 272.08442 C 294.13552 276.12314 293.74762 287.61524 292.5403 291.49693 C 289.2058 302.7509 280.9838 314.95885 273.32524 320.11133 C 268.6743 323.37752 262.25842 326.67452 260.68958 326.7019 C 260.39542 326.70704 254.5031 321.87505 256.3206 319.2374 C 261.0056 312.30304 272.09377 305.75204 273.44667 298.97235 C 274.07745 295.77633 274.5142 287.08232 274.3845 279.6529 C 274.05947 261.0311 269.90246 254.86578 261.3831 238.7999 C 255.8016 228.0876 256.93826 224.17153 256.5582 219.25588 C 255.70343 209.61926 260.08416 202.11111 270.65398 195.17054 C 277.34212 190.6141 281.523 188.51429 287.66157 186.18729 C 294.19066 183.75695 296.04444 183.1124 296.04444 183.1124 C 296.04444 183.1124 295.65976 183.6348 293.93356 185.88478 Z" stroke="black" stroke-linecap="round" stroke-linejoin="miter" stroke-width="4" clip-path="url(#outer_stroke_clip_path_2)"/>
        </g>
        <g id="Graphic_102">
          <path d="M 127.23782 116.7374 C 126.90307 120.65203 123.74042 129.04782 120.75095 137.59336 C 115.42974 153.03219 113.81612 151.3005 114.00811 162.2999 C 114.07343 171.66076 116.025 175.89594 117.7441 178.85791 C 120.37262 183.34825 128.35828 191.31616 135.51068 196.49966 C 138.49267 198.76398 143.63258 202.07557 145.03731 203.88484 C 148.74778 208.54933 157.51368 219.13408 160.19309 230.93023 C 164.17416 247.70505 159.69018 255.6276 156.42845 265.43258 C 154.8424 270.093 150.39561 279.4361 147.34214 284.31517 C 143.43315 290.7534 138.44184 302.6154 137.17353 308.6215 C 135.91195 315.01354 136.33036 327.74627 138.10336 333.7958 C 140.09267 340.99972 153.4575 344.77346 160.13311 350.7374 C 165.31773 355.5692 154.97868 356.5684 152.2231 356.0374 C 132.44384 352.329 114.43362 337.587 110.4348 322.0213 C 107.8016 311.6436 107.28681 299.00907 108.84965 287.39994 C 112.08518 264.85538 111.03914 233.02356 106.63295 216.59634 C 104.74675 209.68016 102.51044 205.18297 96.47235 196.40895 C 88.62385 185.06062 85.44107 176.91236 85.37407 167.45503 C 85.28181 156.5504 88.61597 150.8943 106.14656 132.53993 C 116.64565 121.54695 121.54527 115.6705 123.0518 112.07314 C 125.13148 107.59713 125.38958 105.91844 125.38958 105.91844 C 125.38958 105.91844 127.57256 112.82278 127.23782 116.7374 Z" fill="#FFFFFF"/>
          <path d="M 127.23782 116.7374 C 126.90307 120.65203 123.74042 129.04782 120.75095 137.59336 C 115.42974 153.03219 113.81612 151.3005 114.00811 162.2999 C 114.07343 171.66076 116.025 175.89594 117.7441 178.85791 C 120.37262 183.34825 128.35828 191.31616 135.51068 196.49966 C 138.49267 198.76398 143.63258 202.07557 145.03731 203.88484 C 148.74778 208.54933 157.51368 219.13408 160.19309 230.93023 C 164.17416 247.70505 159.69018 255.6276 156.42845 265.43258 C 154.8424 270.093 150.39561 279.4361 147.34214 284.31517 C 143.43315 290.7534 138.44184 302.6154 137.17353 308.6215 C 135.91195 315.01354 136.33036 327.74627 138.10336 333.7958 C 140.09267 340.99972 153.4575 344.77346 160.13311 350.7374 C 165.31773 355.5692 154.97868 356.5684 152.2231 356.0374 C 132.44384 352.329 114.43362 337.587 110.4348 322.0213 C 107.8016 311.6436 107.28681 299.00907 108.84965 287.39994 C 112.08518 264.85538 111.03914 233.02356 106.63295 216.59634 C 104.74675 209.68016 102.51044 205.18297 96.47235 196.40895 C 88.62385 185.06062 85.44107 176.91236 85.37407 167.45503 C 85.28181 156.5504 88.61597 150.8943 106.14656 132.53993 C 116.64565 121.54695 121.54527 115.6705 123.0518 112.07314 C 125.13148 107.59713 125.38958 105.91844 125.38958 105.91844 C 125.38958 105.91844 127.57256 112.82278 127.23782 116.7374 Z" stroke="black" stroke-linecap="round" stroke-linejoin="miter" stroke-width="4" clip-path="url(#outer_stroke_clip_path_3)"/>
        </g>
        <g id="Graphic_101">
          <path d="M 248.14813 155.71527 C 253.92406 166.32766 253.40948 176.1812 246.00018 195.61361 C 244.87407 198.52873 243.6836 203.37528 243.53802 206.27328 C 243.13702 211.3956 243.34828 212.26055 248.31116 221.24637 C 251.14926 226.50517 255.68793 233.6646 258.29792 237.0936 C 266.0248 247.09284 268.25605 251.30057 270.56478 259.94666 C 274.2442 274.0702 273.3535 296.09125 268.75103 307.75343 C 266.49545 313.3907 257.5143 327.0596 252.1261 333.0411 C 245.68123 340.29574 238.2154 345.25183 231.2823 347.0136 C 221.61554 349.4987 207.60546 347.87664 210.19561 344.5499 C 211.34698 343.08208 229.65806 315.77097 231.12417 309.85794 C 234.6821 294.5464 235.05913 274.35537 233.10893 263.77272 C 231.277 254.3462 226.56768 239.8673 219.4497 225.41773 C 211.8263 210.10834 210.42363 202.79765 213.496 193.38203 C 215.9123 185.71514 217.53035 182.88795 226.44376 170.95749 C 233.62927 161.18053 236.2939 156.50128 238.1421 150.00248 C 238.79142 147.86781 239.44561 142.14842 239.44561 142.14842 C 239.44561 142.14842 243.38978 147.20846 248.14813 155.71527 Z" fill="#FFFFFF"/>
          <path d="M 248.14813 155.71527 C 253.92406 166.32766 253.40948 176.1812 246.00018 195.61361 C 244.87407 198.52873 243.6836 203.37528 243.53802 206.27328 C 243.13702 211.3956 243.34828 212.26055 248.31116 221.24637 C 251.14926 226.50517 255.68793 233.6646 258.29792 237.0936 C 266.0248 247.09284 268.25605 251.30057 270.56478 259.94666 C 274.2442 274.0702 273.3535 296.09125 268.75103 307.75343 C 266.49545 313.3907 257.5143 327.0596 252.1261 333.0411 C 245.68123 340.29574 238.2154 345.25183 231.2823 347.0136 C 221.61554 349.4987 207.60546 347.87664 210.19561 344.5499 C 211.34698 343.08208 229.65806 315.77097 231.12417 309.85794 C 234.6821 294.5464 235.05913 274.35537 233.10893 263.77272 C 231.277 254.3462 226.56768 239.8673 219.4497 225.41773 C 211.8263 210.10834 210.42363 202.79765 213.496 193.38203 C 215.9123 185.71514 217.53035 182.88795 226.44376 170.95749 C 233.62927 161.18053 236.2939 156.50128 238.1421 150.00248 C 238.79142 147.86781 239.44561 142.14842 239.44561 142.14842 C 239.44561 142.14842 243.38978 147.20846 248.14813 155.71527 Z" stroke="black" stroke-linecap="round" stroke-linejoin="miter" stroke-width="4" clip-path="url(#outer_stroke_clip_path_4)"/>
        </g>
        <g id="Graphic_103">
          <path d="M 179.88173 73.81986 C 188.02477 79.56516 200.92033 93.59788 203.99235 100.90589 C 207.06437 108.2139 211.33 116.70285 211.49843 126.35145 C 211.7039 138.12274 211.05458 140.25741 202.17617 159.81197 C 196.22287 172.75244 194.9377 177.79367 195.83497 184.24454 C 196.84375 191.46558 202.36763 204.49526 206.1694 208.7721 C 215.97054 219.60376 228.83713 248.71985 232.20348 267.38508 C 235.36363 285.4748 232.2602 304.34948 221.30006 333.88146 C 216.98838 345.34554 214.12597 349.93173 208.4133 354.1816 C 202.31347 358.7278 190.41676 362.69954 182.47451 362.83817 C 176.2972 362.946 164.18456 360.16545 161.89061 357.98564 C 161.19414 357.4187 159.50536 356.1935 157.91968 355.256 C 143.74324 346.62404 137.03263 333.036 138.9001 316.40275 C 140.436 303.24984 140.71669 302.47282 153.14556 278.41658 C 160.5427 263.90667 163.92139 249.5634 162.71855 236.84438 C 161.84693 226.2429 158.681 219.0595 149.23502 206.0983 C 143.20704 197.9032 137.79805 185.83667 136.58474 178.13662 C 135.36301 169.95413 138.18875 157.64736 144.15721 145.57527 C 146.90473 140.02593 157.11845 123.92261 161.43818 118.53887 C 172.85716 104.05527 178.14936 92.57408 177.98263 83.02197 C 177.92368 79.64496 177.27137 75.98876 176.36027 74.3639 C 174.43496 70.82644 173.8468 70.049906 173.8468 70.049906 C 173.8468 70.049906 175.4138 70.71284 179.88173 73.81986 Z" fill="#FFFFFF"/>
          <path d="M 179.88173 73.81986 C 188.02477 79.56516 200.92033 93.59788 203.99235 100.90589 C 207.06437 108.2139 211.33 116.70285 211.49843 126.35145 C 211.7039 138.12274 211.05458 140.25741 202.17617 159.81197 C 196.22287 172.75244 194.9377 177.79367 195.83497 184.24454 C 196.84375 191.46558 202.36763 204.49526 206.1694 208.7721 C 215.97054 219.60376 228.83713 248.71985 232.20348 267.38508 C 235.36363 285.4748 232.2602 304.34948 221.30006 333.88146 C 216.98838 345.34554 214.12597 349.93173 208.4133 354.1816 C 202.31347 358.7278 190.41676 362.69954 182.47451 362.83817 C 176.2972 362.946 164.18456 360.16545 161.89061 357.98564 C 161.19414 357.4187 159.50536 356.1935 157.91968 355.256 C 143.74324 346.62404 137.03263 333.036 138.9001 316.40275 C 140.436 303.24984 140.71669 302.47282 153.14556 278.41658 C 160.5427 263.90667 163.92139 249.5634 162.71855 236.84438 C 161.84693 226.2429 158.681 219.0595 149.23502 206.0983 C 143.20704 197.9032 137.79805 185.83667 136.58474 178.13662 C 135.36301 169.95413 138.18875 157.64736 144.15721 145.57527 C 146.90473 140.02593 157.11845 123.92261 161.43818 118.53887 C 172.85716 104.05527 178.14936 92.57408 177.98263 83.02197 C 177.92368 79.64496 177.27137 75.98876 176.36027 74.3639 C 174.43496 70.82644 173.8468 70.049906 173.8468 70.049906 C 173.8468 70.049906 175.4138 70.71284 179.88173 73.81986 Z" stroke="black" stroke-linecap="round" stroke-linejoin="miter" stroke-width="4" clip-path="url(#outer_stroke_clip_path_5)"/>
        </g>
      </g>
    </g>
  </g>
</svg>
