<?xml version="1.0" encoding="UTF-8" standalone="no"?>
<!DOCTYPE svg PUBLIC "-//W3C//DTD SVG 1.1//EN" "http://www.w3.org/Graphics/SVG/1.1/DTD/svg11.dtd">
<svg xmlns="http://www.w3.org/2000/svg" xmlns:dc="http://purl.org/dc/elements/1.1/" version="1.1" xmlns:xl="http://www.w3.org/1999/xlink" viewBox="36 60.75 292.5 297" width="292.5" height="297">
  <defs>
    <clipPath id="artboard_clip_path">
      <path d="M 36 60.75 L 328.5 60.75 L 328.5 346.5 L 311.8807 357.75 L 36 357.75 Z"/>
    </clipPath>
  </defs>
  <g id="Frog_(4)" fill-opacity="1" stroke="none" stroke-dasharray="none" stroke-opacity="1" fill="none">
    <title>Frog (4)</title>
    <g id="Frog_(4)_Art" clip-path="url(#artboard_clip_path)">
      <title>Art</title>
      <g id="Group_113">
        <g id="Graphic_182">
          <path d="M 231.94383 156.24455 C 231.02973 154.16705 222.80282 148.76554 222.13802 148.43314 C 225.62822 140.45554 225.87752 129.65253 224.46482 121.01013 C 223.88312 117.60303 222.38732 114.19593 221.14082 111.03812 C 217.48442 101.64782 207.59551 94.66742 203.6067 85.44331 C 202.7757 83.61511 202.194 81.70381 201.363 79.87561 C 197.7066 71.9811 190.56 65.25 181.8345 65.25 C 173.4414 65.25 165.9624 71.898 162.30599 79.87561 C 161.47499 81.70381 160.81019 83.61511 160.06229 85.44331 C 156.07349 94.66742 146.18458 101.64782 142.52818 111.03812 C 141.28168 114.27903 139.78588 117.60303 139.20418 121.01013 C 137.79148 129.65253 138.04078 140.45554 141.53098 148.43314 C 140.94928 148.76554 132.72237 154.16705 131.72517 156.24455 C 129.31527 156.74315 121.42077 160.89815 108.62336 161.39675 C 106.96136 161.47985 106.29656 159.73475 105.29936 158.48825 C 104.13596 156.90935 102.97256 155.24735 101.89226 153.58535 C 101.31056 152.75435 100.81196 151.92335 100.39646 151.00925 C 99.14996 148.35004 98.81756 145.52464 98.23586 142.69924 C 98.06965 141.86824 97.90345 141.03724 97.57105 140.20624 C 97.15555 139.04284 96.40765 137.87944 95.99215 136.71604 C 95.65975 135.80194 95.49355 134.80474 95.16115 133.80754 C 94.33015 130.98214 92.66815 128.48913 91.17235 125.99613 C 90.50755 124.91583 89.59345 123.42003 90.09205 122.09043 C 90.09205 122.09043 93.83155 120.59463 94.49635 119.09883 C 94.82875 118.51713 95.41045 117.10443 95.57665 116.43963 C 95.99215 114.61143 96.40765 112.78323 96.32455 110.95502 C 96.15835 108.29582 95.65975 106.30142 98.06965 104.63942 C 99.56546 103.55912 100.64576 103.22672 101.39366 101.23232 C 102.14156 99.07172 101.47676 95.74772 99.06686 95.83082 C 96.90625 95.91392 95.90905 96.66182 94.49635 98.24072 C 92.16955 100.89992 90.00895 102.72812 87.84835 101.39852 C 84.93985 100.89992 86.02015 97.82522 86.60185 95.91392 C 86.85115 95.08292 87.10045 94.25192 87.34975 93.42092 C 87.59905 92.58991 87.84835 91.75891 88.18075 90.92791 C 89.34415 87.85321 89.34415 84.77851 90.75685 81.95311 C 91.42165 80.45731 92.91745 79.12771 93.00055 77.38261 C 93.16675 73.809305 88.09765 72.5628 85.52155 74.141705 C 83.94265 75.138905 83.11165 77.38261 83.85955 79.12771 C 84.93985 81.62071 85.77085 82.86721 83.61025 85.36021 C 82.61305 86.52361 81.28345 87.52081 80.61865 88.93351 C 80.20315 89.76451 80.03695 90.67861 79.704545 91.59271 C 78.45804 95.58152 72.89034 95.66462 73.88754 90.76171 C 74.38614 88.18561 74.30304 86.02501 73.80444 83.53201 C 73.47204 81.87001 72.80724 79.87561 73.38894 78.21361 C 73.97064 76.63471 74.63544 75.96991 73.72134 74.474105 C 73.13964 73.560004 72.39174 72.8952 71.39454 72.6459 C 69.56634 72.2304 67.23954 73.2276 66.65784 75.055805 C 66.07614 76.80091 66.32544 78.87841 67.48884 80.37421 C 69.48324 82.78411 67.15644 86.27431 66.57474 88.85041 C 65.99304 91.34341 67.48884 95.49842 65.49444 97.32662 C 64.91274 97.90832 63.99864 97.99142 63.25074 97.82522 C 61.505635 97.40972 60.176035 97.40972 58.763334 96.08012 C 57.68303 94.99982 56.76893 93.58712 55.85483 92.42371 C 54.85763 91.17721 55.52243 91.01101 55.10693 89.51521 C 54.35903 87.02221 49.45613 84.27991 47.96033 87.77011 C 47.62793 88.51801 47.71103 89.26591 47.79413 90.09691 C 47.87723 91.01101 47.96033 91.92511 48.37583 92.67301 C 48.87443 93.75332 49.78853 94.58432 50.86883 94.91672 C 52.28153 95.41532 52.19843 96.16322 52.78013 97.32662 C 54.19283 100.15202 55.85483 103.39292 57.932334 105.80282 C 58.680234 106.63382 59.760534 107.21552 60.674635 107.96342 C 61.505635 108.54512 62.835236 109.29302 63.41694 110.12402 C 63.83244 110.70572 63.91554 111.61982 64.24794 112.36773 C 65.16204 114.52833 65.41134 116.93823 66.40854 119.01573 C 67.65504 121.75803 69.98184 123.83553 71.56074 126.41163 C 73.22274 129.23703 73.22274 133.05964 73.80444 136.21744 C 74.30304 139.20904 74.30304 142.36684 74.71854 145.35844 C 75.38334 150.84305 75.96504 156.07835 78.62424 161.06435 C 79.787645 163.22495 80.61865 165.38555 82.03135 167.46305 C 83.52715 169.70676 85.02295 171.61806 85.35535 174.36036 C 85.60465 176.27166 86.02015 178.18296 86.51875 180.01116 C 87.10045 182.00556 88.51315 183.50136 89.51035 185.32956 C 90.00895 186.24366 90.42445 187.24087 91.25545 187.73947 C 91.67095 187.98877 92.16955 188.15497 92.58505 188.32117 C 94.82875 189.31837 95.90905 191.39587 97.73725 192.89167 C 98.56826 193.63957 99.73166 193.88887 100.81196 194.38747 C 102.05846 194.96917 103.22186 195.55087 104.55146 195.96637 C 115.02206 199.04107 125.40957 191.72827 135.63088 193.22407 C 136.29568 197.54527 133.38717 203.52847 132.22377 207.68348 C 128.73357 219.81608 128.06877 236.7685 133.71957 248.4025 C 131.14347 245.9095 128.23497 244.2475 125.24337 242.4193 C 123.16587 241.1728 121.00527 240.2587 118.92777 239.1784 C 117.26577 238.3474 111.61496 235.8544 106.87826 236.5192 C 104.21906 236.9347 100.97816 238.846 98.90066 241.7545 C 97.90345 243.1672 96.24145 246.9067 96.24145 250.2307 C 96.15835 255.2167 97.57105 260.2027 98.98376 264.9394 C 99.73166 267.5986 100.72886 270.1747 101.55986 272.7508 C 104.30216 281.227 105.54866 293.52582 105.21626 302.50063 C 103.13876 300.67243 98.56826 290.70042 97.32175 288.20742 C 96.24145 286.12992 95.24425 283.8862 95.57665 281.5594 C 95.74285 280.2298 96.32455 278.9002 96.07525 277.6537 C 95.90905 276.8227 95.41045 276.0748 95.16115 275.2438 C 94.91185 274.4128 94.91185 273.4987 94.99495 272.6677 C 95.16115 269.2606 96.49075 265.6042 95.24425 262.2802 C 94.24705 259.5379 92.08645 256.7125 88.76245 257.4604 C 87.26665 257.7928 85.85395 259.0393 85.35535 260.452 C 84.52435 263.0281 86.51875 264.5239 87.59905 266.6014 C 88.43005 268.1803 88.51315 270.0916 88.18075 271.8367 C 87.93145 273.0832 87.76525 275.5762 86.02015 275.4931 C 84.60745 275.4931 84.27505 274.1635 83.44405 273.3325 C 82.52995 272.4184 81.36655 271.7536 80.53555 270.8395 C 79.039745 269.0944 78.45804 266.8507 77.79324 264.7732 C 77.54394 264.0253 77.46084 263.2774 77.21154 262.5295 C 75.88194 259.0393 73.72134 256.3801 71.14524 253.804 C 69.31704 251.9758 65.16204 248.3194 65.66064 245.4109 C 65.90994 243.832 64.99584 242.5855 64.49724 241.2559 C 63.25074 238.015 59.178834 237.5995 56.60273 239.0122 C 56.27033 239.1784 55.85483 239.5108 55.68863 239.9263 C 55.02383 241.6714 54.27593 243.1672 55.10693 245.0785 C 55.85483 246.7405 58.514034 248.0701 59.926735 249.1504 C 61.422535 250.1476 62.087336 252.2251 63.16764 253.7209 C 64.49724 255.466 65.82684 257.2111 66.99024 259.1224 C 67.57194 260.0365 67.57194 261.0337 67.98744 261.9478 C 68.40294 262.8619 69.23394 263.1112 69.73254 263.9422 C 70.31424 264.9394 70.14804 265.6873 70.31424 266.8507 C 70.64664 269.3437 72.05934 271.5043 72.30864 273.9973 C 72.22554 272.8339 69.06774 270.5902 68.23674 269.8423 C 66.90714 268.762 65.57754 267.5155 64.08174 266.7676 C 62.253536 265.9366 61.671836 265.2718 59.843635 264.1915 C 58.597134 263.4436 57.849233 262.8619 56.51963 262.2802 C 55.10693 261.6985 53.69423 261.1168 52.78013 259.7872 C 51.61673 258.0421 50.37023 256.297 48.04343 256.2139 C 47.71103 256.2139 47.29553 256.2139 46.96313 256.2139 C 46.29833 256.297 45.550427 256.3801 44.968727 256.7956 C 42.060225 259.1224 40.398224 261.6154 43.140526 265.0225 C 44.636326 266.8507 47.04623 266.0197 49.12373 266.6845 C 51.86603 267.5155 54.85763 269.2606 57.10133 271.0057 C 58.098534 271.7536 59.095734 272.5846 60.092935 273.3325 C 61.588735 274.4959 63.001436 275.6593 64.24794 277.072 C 65.24514 278.2354 67.98744 281.1439 66.65784 282.5566 C 65.49444 283.8031 62.502836 283.72 60.923935 283.72 C 58.015434 283.6369 51.94913 278.4847 49.70543 281.8918 C 48.87443 283.2214 48.62513 284.88342 49.04063 286.37922 C 49.53923 287.95812 51.28433 289.37082 52.94633 289.62012 C 54.85763 289.86942 56.43653 288.78912 58.430934 289.53702 C 59.261934 289.86942 59.926735 290.45112 60.840835 290.45112 C 61.588735 290.45112 62.336636 290.45112 63.001436 290.53422 C 63.83244 290.70042 64.24794 290.20182 64.58034 291.03282 C 65.32824 292.52862 66.99024 293.27652 68.15364 294.35682 C 69.56634 295.52022 70.81284 296.93292 71.64384 298.59492 C 72.14244 299.59213 72.47484 300.67243 73.05654 301.66963 C 73.72134 302.83303 74.71854 303.74713 75.71574 304.57813 C 76.54674 305.32603 77.46084 305.99083 78.45804 306.40633 C 79.455245 306.82183 80.61865 306.90493 81.69895 307.15423 C 83.52715 307.56973 90.25825 312.55573 91.33855 314.38393 C 93.00055 317.20933 97.65415 323.44184 98.15276 326.68274 C 99.56546 328.84334 100.31336 331.50254 101.31056 333.99554 C 102.39086 336.65475 103.38806 339.31395 104.96696 341.72385 C 106.37966 343.96755 109.86986 345.87885 111.61496 347.87325 C 114.68966 351.11415 118.59537 350.28315 122.99967 352.85925 C 125.82507 354.52125 129.48147 350.53245 130.56177 347.45775 C 131.80827 346.62675 131.89137 344.63235 131.14347 343.30275 C 130.39557 341.97315 131.72517 341.05905 130.89417 339.72945 C 130.06317 338.39985 130.64487 336.90405 130.31247 335.40824 C 129.48147 331.33634 128.73357 327.34754 127.90257 323.27564 C 126.40677 315.96283 126.73917 303.41473 126.40677 302.00203 C 127.48707 304.91053 128.56737 307.73593 129.64767 310.64443 C 131.72517 316.12903 132.63927 319.95164 135.21537 325.18694 C 136.79428 328.34474 138.87178 330.50534 141.19858 333.16454 C 142.02958 334.16174 142.86058 335.15894 143.94088 335.74064 C 145.60288 336.65475 147.51418 336.65475 149.42548 336.65475 C 151.17058 336.65475 153.24808 336.48855 154.32839 334.99274 C 154.74389 334.41104 154.91009 333.74624 155.32559 333.24764 C 155.82419 332.58284 158.56649 330.58844 161.47499 330.58844 C 168.8709 330.58844 176.8485 340.80975 182.25 340.80975 C 187.6515 340.89285 195.546 330.58844 203.025 330.58844 C 205.93351 330.58844 208.67581 332.49974 209.17441 333.24764 C 209.58991 333.82934 209.75611 334.49414 210.17161 334.99274 C 211.25192 336.40544 213.24632 336.57165 215.07452 336.65475 C 216.98582 336.65475 218.89712 336.65475 220.55912 335.74064 C 221.63942 335.15894 222.47042 334.16174 223.30142 333.16454 C 225.54512 330.42224 227.70572 328.26164 229.28463 325.18694 C 231.86073 319.95164 232.85793 316.12903 234.85233 310.64443 C 235.93263 307.73593 237.01293 304.91053 238.09323 302.00203 C 237.84393 303.41473 238.09323 315.96283 236.59743 323.27564 C 235.76643 327.34754 235.01853 331.33634 234.18753 335.40824 C 233.85513 336.90405 234.43683 338.39985 233.60583 339.72945 C 232.85793 340.97595 234.10443 341.97315 233.35653 343.30275 C 232.60863 344.63235 232.69173 346.62675 233.93823 347.45775 C 235.01853 350.53245 238.67493 354.43815 241.50033 352.85925 C 245.98773 350.28315 249.81034 351.11415 252.88504 347.87325 C 254.71324 345.96195 258.12034 343.96755 259.53304 341.72385 C 261.02884 339.31395 262.10914 336.65475 263.18944 333.99554 C 264.18664 331.58564 264.93454 328.92644 266.34724 326.68274 C 266.92895 323.44184 271.49945 317.29243 273.16145 314.38393 C 274.24175 312.55573 280.97285 307.56973 282.80105 307.15423 C 283.88135 306.90493 285.04475 306.82183 286.04196 306.40633 C 287.03916 305.99083 287.95326 305.32603 288.78426 304.57813 C 289.78146 303.74713 290.77866 302.83303 291.44346 301.66963 C 292.02516 300.67243 292.35756 299.59213 292.85616 298.59492 C 293.68716 296.93292 294.93366 295.60332 296.34636 294.35682 C 297.59286 293.27652 299.25486 292.52862 299.91966 291.03282 C 300.33516 290.20182 300.66756 290.70042 301.49856 290.53422 C 302.24646 290.36802 302.91126 290.45112 303.65916 290.45112 C 304.57327 290.36802 305.23807 289.78632 306.06907 289.53702 C 308.06347 288.78912 309.64237 289.86942 311.55367 289.62012 C 313.21567 289.37082 314.96077 287.95812 315.45937 286.37922 C 315.95797 284.88342 315.70867 283.2214 314.79457 281.8918 C 312.55087 278.4847 306.48457 283.72 303.57606 283.72 C 301.99716 283.72 299.00556 283.8862 297.84216 282.5566 C 296.42946 281.0608 299.25486 278.1523 300.25206 277.072 C 301.49856 275.6593 302.91126 274.4959 304.40707 273.3325 C 305.40427 272.5846 306.40147 271.7536 307.39867 271.0057 C 309.64237 269.2606 312.63397 267.5155 315.37627 266.6845 C 317.45377 266.0197 319.86367 266.8507 321.35947 265.0225 C 324.10178 261.6154 322.43977 259.2055 319.53127 256.7956 C 318.94957 256.3801 318.28477 256.2139 317.53687 256.2139 C 317.20447 256.2139 316.78897 256.1308 316.45657 256.2139 C 314.12977 256.3801 312.88327 258.0421 311.71987 259.7872 C 310.80577 261.1168 309.47617 261.6985 307.98037 262.2802 C 306.65077 262.7788 305.90287 263.4436 304.65637 264.1915 C 302.91126 265.1887 302.32956 265.8535 300.41826 266.7676 C 298.83936 267.4324 297.50976 268.6789 296.26326 269.8423 C 295.34916 270.5902 292.27446 272.8339 292.19136 273.9973 C 292.44066 271.5043 293.85336 269.3437 294.18576 266.8507 C 294.35196 265.6873 294.10266 264.9394 294.76746 263.9422 C 295.26606 263.1943 296.09706 262.8619 296.51256 261.9478 C 296.92806 261.0337 296.92806 260.0365 297.50976 259.1224 C 298.67316 257.2942 300.00276 255.466 301.33236 253.7209 C 302.41266 252.2251 303.07746 250.1476 304.57327 249.1504 C 306.06907 248.1532 308.64517 246.8236 309.39307 245.0785 C 310.22407 243.1672 309.47617 241.6714 308.81137 239.9263 C 308.64517 239.5108 308.31277 239.1784 307.89727 239.0122 C 305.23807 237.5995 301.24926 238.015 300.00276 241.2559 C 299.50416 242.5855 298.59006 243.832 298.83936 245.4109 C 299.25486 248.3194 295.09986 251.9758 293.35476 253.804 C 290.77866 256.4632 288.61806 259.0393 287.28846 262.5295 C 287.03916 263.2774 286.87296 264.0253 286.70676 264.7732 C 286.04196 266.9338 285.46026 269.1775 283.96445 270.8395 C 283.13345 271.8367 281.97005 272.4184 281.05595 273.3325 C 280.22495 274.2466 279.89255 275.4931 278.47985 275.4931 C 276.73475 275.4931 276.56855 273.0001 276.31925 271.8367 C 275.98685 270.0916 276.06995 268.1803 276.90095 266.6014 C 277.98125 264.5239 279.97565 263.0281 279.14465 260.452 C 278.64605 258.9562 277.23335 257.7928 275.73755 257.4604 C 272.41355 256.7125 270.25295 259.5379 269.25575 262.2802 C 268.00925 265.5211 269.33885 269.1775 269.50505 272.6677 C 269.58815 273.5818 269.58815 274.4128 269.33885 275.2438 C 269.08955 276.0748 268.59095 276.8227 268.42475 277.6537 C 268.17545 278.9833 268.75715 280.2298 268.92335 281.5594 C 269.25575 283.8862 268.25855 286.12992 267.17825 288.20742 C 265.84864 290.61732 261.27814 300.58933 259.28374 302.50063 C 258.95134 293.60892 260.19784 281.3101 262.94014 272.7508 C 263.77114 270.0916 264.76834 267.5155 265.51624 264.9394 C 266.84585 260.2027 268.34165 255.2167 268.25855 250.2307 C 268.25855 246.9067 266.67965 243.1672 265.59934 241.7545 C 263.52184 238.9291 260.28094 236.9347 257.62174 236.5192 C 252.88504 235.7713 247.23423 238.3474 245.57223 239.1784 C 243.49473 240.1756 241.33413 241.0897 239.25663 242.4193 C 236.18193 244.2475 233.35653 245.9926 230.78043 248.4025 C 236.43123 236.7685 235.76643 219.81608 232.27623 207.68348 C 231.11283 203.61157 228.20432 197.54527 228.86912 193.22407 C 239.09043 191.72827 249.47794 199.04107 259.94854 195.96637 C 261.27814 195.55087 262.44154 194.96917 263.68804 194.38747 C 264.76834 193.88887 265.84864 193.63957 266.76275 192.89167 C 268.50785 191.31277 269.58815 189.23527 271.91495 188.32117 C 272.33045 188.15497 272.82905 187.98877 273.24455 187.73947 C 274.07555 187.15777 274.49105 186.16056 274.98965 185.32956 C 275.98685 183.50136 277.39955 182.08866 277.98125 180.01116 C 278.47985 178.09986 278.89535 176.27166 279.14465 174.36036 C 279.47705 171.61806 280.97285 169.70676 282.46865 167.46305 C 283.88135 165.38555 284.71235 163.22495 285.87576 161.06435 C 288.53496 156.16145 289.11666 150.84305 289.78146 145.35844 C 290.19696 142.36684 290.19696 139.20904 290.69556 136.21744 C 291.27726 133.05964 291.27726 129.15393 292.93926 126.41163 C 294.43506 123.83553 296.76186 121.75803 298.09146 119.01573 C 299.08866 116.93823 299.33796 114.52833 300.25206 112.36773 C 300.58446 111.61982 300.66756 110.78882 301.08306 110.12402 C 301.66476 109.29302 303.07746 108.62822 303.82537 107.96342 C 304.73947 107.29862 305.81977 106.71692 306.56767 105.80282 C 308.64517 103.39292 310.22407 100.15202 311.71987 97.32662 C 312.30157 96.24632 312.21847 95.41532 313.63117 94.91672 C 314.71147 94.58432 315.62557 93.75332 316.12417 92.67301 C 316.53967 91.84201 316.62277 90.92791 316.70587 90.09691 C 316.78897 89.34901 316.78897 88.51801 316.53967 87.77011 C 315.04387 84.36301 310.14097 87.10531 309.39307 89.51521 C 308.89447 91.01101 309.64237 91.17721 308.64517 92.42371 C 307.73107 93.58712 306.73387 94.99982 305.73667 96.08012 C 304.32397 97.49282 302.99436 97.40972 301.24926 97.82522 C 300.50136 97.99142 299.58726 97.90832 299.00556 97.32662 C 297.01116 95.41532 298.42386 91.34341 297.92526 88.85041 C 297.34356 86.35741 295.09986 82.78411 297.01116 80.37421 C 298.17456 78.96151 298.50696 76.80091 297.84216 75.055805 C 297.17736 73.2276 294.93366 72.2304 293.10546 72.6459 C 292.02516 72.8952 291.27726 73.560004 290.77866 74.474105 C 289.86456 75.96991 290.52936 76.63471 291.11106 78.21361 C 291.69276 79.87561 291.02796 81.87001 290.69556 83.53201 C 290.28006 86.10811 290.11386 88.26871 290.61246 90.76171 C 291.60966 95.66462 286.04196 95.58152 284.79545 91.59271 C 284.54615 90.67861 284.29685 89.76451 283.88135 88.93351 C 283.21655 87.52081 281.88695 86.52361 280.88975 85.36021 C 278.72915 82.95031 279.56015 81.70381 280.64045 79.12771 C 281.38835 77.38261 280.64045 75.138905 278.97845 74.141705 C 276.40235 72.5628 271.33325 73.809305 271.49945 77.38261 C 271.58255 79.12771 272.99525 80.45731 273.74315 81.95311 C 275.07275 84.77851 275.15585 87.93631 276.31925 90.92791 C 276.65165 91.75891 276.90095 92.58991 277.15025 93.42092 C 277.39955 94.25192 277.64885 95.08292 277.89815 95.91392 C 278.47985 97.82522 279.56015 100.89992 276.65165 101.39852 C 274.57415 102.72812 272.33045 100.98302 270.00365 98.24072 C 268.59095 96.66182 267.59375 95.91392 265.43314 95.83082 C 263.02324 95.74772 262.35844 99.07172 263.10634 101.23232 C 263.77114 103.22672 264.85144 103.55912 266.43035 104.63942 C 268.84025 106.30142 268.42475 108.29582 268.17545 110.95502 C 268.00925 112.78323 268.50785 114.61143 268.92335 116.43963 C 269.08955 117.10443 269.75435 118.43403 270.00365 119.09883 C 270.66845 120.51153 274.40795 122.09043 274.40795 122.09043 C 274.90655 123.42003 273.99245 124.91583 273.32765 125.99613 C 271.83185 128.48913 270.16985 130.98214 269.33885 133.80754 C 269.08955 134.80474 268.84025 135.71884 268.50785 136.71604 C 268.09235 137.87944 267.34445 139.04284 266.92895 140.20624 C 266.59655 141.03724 266.43035 141.86824 266.26414 142.69924 C 265.59934 145.52464 265.35004 148.35004 264.10354 151.00925 C 263.68804 151.92335 263.10634 152.75435 262.60774 153.58535 C 261.52744 155.24735 260.36404 156.90935 259.20064 158.48825 C 258.28654 159.73475 257.62174 161.47985 255.87664 161.39675 C 242.24823 160.89815 234.43683 156.74315 231.94383 156.24455 Z" fill="#FFFFFF"/>
          <path d="M 231.94383 156.24455 C 231.02973 154.16705 222.80282 148.76554 222.13802 148.43314 C 225.62822 140.45554 225.87752 129.65253 224.46482 121.01013 C 223.88312 117.60303 222.38732 114.19593 221.14082 111.03812 C 217.48442 101.64782 207.59551 94.66742 203.6067 85.44331 C 202.7757 83.61511 202.194 81.70381 201.363 79.87561 C 197.7066 71.9811 190.56 65.25 181.8345 65.25 C 173.4414 65.25 165.9624 71.898 162.30599 79.87561 C 161.47499 81.70381 160.81019 83.61511 160.06229 85.44331 C 156.07349 94.66742 146.18458 101.64782 142.52818 111.03812 C 141.28168 114.27903 139.78588 117.60303 139.20418 121.01013 C 137.79148 129.65253 138.04078 140.45554 141.53098 148.43314 C 140.94928 148.76554 132.72237 154.16705 131.72517 156.24455 C 129.31527 156.74315 121.42077 160.89815 108.62336 161.39675 C 106.96136 161.47985 106.29656 159.73475 105.29936 158.48825 C 104.13596 156.90935 102.97256 155.24735 101.89226 153.58535 C 101.31056 152.75435 100.81196 151.92335 100.39646 151.00925 C 99.14996 148.35004 98.81756 145.52464 98.23586 142.69924 C 98.06965 141.86824 97.90345 141.03724 97.57105 140.20624 C 97.15555 139.04284 96.40765 137.87944 95.99215 136.71604 C 95.65975 135.80194 95.49355 134.80474 95.16115 133.80754 C 94.33015 130.98214 92.66815 128.48913 91.17235 125.99613 C 90.50755 124.91583 89.59345 123.42003 90.09205 122.09043 C 90.09205 122.09043 93.83155 120.59463 94.49635 119.09883 C 94.82875 118.51713 95.41045 117.10443 95.57665 116.43963 C 95.99215 114.61143 96.40765 112.78323 96.32455 110.95502 C 96.15835 108.29582 95.65975 106.30142 98.06965 104.63942 C 99.56546 103.55912 100.64576 103.22672 101.39366 101.23232 C 102.14156 99.07172 101.47676 95.74772 99.06686 95.83082 C 96.90625 95.91392 95.90905 96.66182 94.49635 98.24072 C 92.16955 100.89992 90.00895 102.72812 87.84835 101.39852 C 84.93985 100.89992 86.02015 97.82522 86.60185 95.91392 C 86.85115 95.08292 87.10045 94.25192 87.34975 93.42092 C 87.59905 92.58991 87.84835 91.75891 88.18075 90.92791 C 89.34415 87.85321 89.34415 84.77851 90.75685 81.95311 C 91.42165 80.45731 92.91745 79.12771 93.00055 77.38261 C 93.16675 73.809305 88.09765 72.5628 85.52155 74.141705 C 83.94265 75.138905 83.11165 77.38261 83.85955 79.12771 C 84.93985 81.62071 85.77085 82.86721 83.61025 85.36021 C 82.61305 86.52361 81.28345 87.52081 80.61865 88.93351 C 80.20315 89.76451 80.03695 90.67861 79.704545 91.59271 C 78.45804 95.58152 72.89034 95.66462 73.88754 90.76171 C 74.38614 88.18561 74.30304 86.02501 73.80444 83.53201 C 73.47204 81.87001 72.80724 79.87561 73.38894 78.21361 C 73.97064 76.63471 74.63544 75.96991 73.72134 74.474105 C 73.13964 73.560004 72.39174 72.8952 71.39454 72.6459 C 69.56634 72.2304 67.23954 73.2276 66.65784 75.055805 C 66.07614 76.80091 66.32544 78.87841 67.48884 80.37421 C 69.48324 82.78411 67.15644 86.27431 66.57474 88.85041 C 65.99304 91.34341 67.48884 95.49842 65.49444 97.32662 C 64.91274 97.90832 63.99864 97.99142 63.25074 97.82522 C 61.505635 97.40972 60.176035 97.40972 58.763334 96.08012 C 57.68303 94.99982 56.76893 93.58712 55.85483 92.42371 C 54.85763 91.17721 55.52243 91.01101 55.10693 89.51521 C 54.35903 87.02221 49.45613 84.27991 47.96033 87.77011 C 47.62793 88.51801 47.71103 89.26591 47.79413 90.09691 C 47.87723 91.01101 47.96033 91.92511 48.37583 92.67301 C 48.87443 93.75332 49.78853 94.58432 50.86883 94.91672 C 52.28153 95.41532 52.19843 96.16322 52.78013 97.32662 C 54.19283 100.15202 55.85483 103.39292 57.932334 105.80282 C 58.680234 106.63382 59.760534 107.21552 60.674635 107.96342 C 61.505635 108.54512 62.835236 109.29302 63.41694 110.12402 C 63.83244 110.70572 63.91554 111.61982 64.24794 112.36773 C 65.16204 114.52833 65.41134 116.93823 66.40854 119.01573 C 67.65504 121.75803 69.98184 123.83553 71.56074 126.41163 C 73.22274 129.23703 73.22274 133.05964 73.80444 136.21744 C 74.30304 139.20904 74.30304 142.36684 74.71854 145.35844 C 75.38334 150.84305 75.96504 156.07835 78.62424 161.06435 C 79.787645 163.22495 80.61865 165.38555 82.03135 167.46305 C 83.52715 169.70676 85.02295 171.61806 85.35535 174.36036 C 85.60465 176.27166 86.02015 178.18296 86.51875 180.01116 C 87.10045 182.00556 88.51315 183.50136 89.51035 185.32956 C 90.00895 186.24366 90.42445 187.24087 91.25545 187.73947 C 91.67095 187.98877 92.16955 188.15497 92.58505 188.32117 C 94.82875 189.31837 95.90905 191.39587 97.73725 192.89167 C 98.56826 193.63957 99.73166 193.88887 100.81196 194.38747 C 102.05846 194.96917 103.22186 195.55087 104.55146 195.96637 C 115.02206 199.04107 125.40957 191.72827 135.63088 193.22407 C 136.29568 197.54527 133.38717 203.52847 132.22377 207.68348 C 128.73357 219.81608 128.06877 236.7685 133.71957 248.4025 C 131.14347 245.9095 128.23497 244.2475 125.24337 242.4193 C 123.16587 241.1728 121.00527 240.2587 118.92777 239.1784 C 117.26577 238.3474 111.61496 235.8544 106.87826 236.5192 C 104.21906 236.9347 100.97816 238.846 98.90066 241.7545 C 97.90345 243.1672 96.24145 246.9067 96.24145 250.2307 C 96.15835 255.2167 97.57105 260.2027 98.98376 264.9394 C 99.73166 267.5986 100.72886 270.1747 101.55986 272.7508 C 104.30216 281.227 105.54866 293.52582 105.21626 302.50063 C 103.13876 300.67243 98.56826 290.70042 97.32175 288.20742 C 96.24145 286.12992 95.24425 283.8862 95.57665 281.5594 C 95.74285 280.2298 96.32455 278.9002 96.07525 277.6537 C 95.90905 276.8227 95.41045 276.0748 95.16115 275.2438 C 94.91185 274.4128 94.91185 273.4987 94.99495 272.6677 C 95.16115 269.2606 96.49075 265.6042 95.24425 262.2802 C 94.24705 259.5379 92.08645 256.7125 88.76245 257.4604 C 87.26665 257.7928 85.85395 259.0393 85.35535 260.452 C 84.52435 263.0281 86.51875 264.5239 87.59905 266.6014 C 88.43005 268.1803 88.51315 270.0916 88.18075 271.8367 C 87.93145 273.0832 87.76525 275.5762 86.02015 275.4931 C 84.60745 275.4931 84.27505 274.1635 83.44405 273.3325 C 82.52995 272.4184 81.36655 271.7536 80.53555 270.8395 C 79.039745 269.0944 78.45804 266.8507 77.79324 264.7732 C 77.54394 264.0253 77.46084 263.2774 77.21154 262.5295 C 75.88194 259.0393 73.72134 256.3801 71.14524 253.804 C 69.31704 251.9758 65.16204 248.3194 65.66064 245.4109 C 65.90994 243.832 64.99584 242.5855 64.49724 241.2559 C 63.25074 238.015 59.178834 237.5995 56.60273 239.0122 C 56.27033 239.1784 55.85483 239.5108 55.68863 239.9263 C 55.02383 241.6714 54.27593 243.1672 55.10693 245.0785 C 55.85483 246.7405 58.514034 248.0701 59.926735 249.1504 C 61.422535 250.1476 62.087336 252.2251 63.16764 253.7209 C 64.49724 255.466 65.82684 257.2111 66.99024 259.1224 C 67.57194 260.0365 67.57194 261.0337 67.98744 261.9478 C 68.40294 262.8619 69.23394 263.1112 69.73254 263.9422 C 70.31424 264.9394 70.14804 265.6873 70.31424 266.8507 C 70.64664 269.3437 72.05934 271.5043 72.30864 273.9973 C 72.22554 272.8339 69.06774 270.5902 68.23674 269.8423 C 66.90714 268.762 65.57754 267.5155 64.08174 266.7676 C 62.253536 265.9366 61.671836 265.2718 59.843635 264.1915 C 58.597134 263.4436 57.849233 262.8619 56.51963 262.2802 C 55.10693 261.6985 53.69423 261.1168 52.78013 259.7872 C 51.61673 258.0421 50.37023 256.297 48.04343 256.2139 C 47.71103 256.2139 47.29553 256.2139 46.96313 256.2139 C 46.29833 256.297 45.550427 256.3801 44.968727 256.7956 C 42.060225 259.1224 40.398224 261.6154 43.140526 265.0225 C 44.636326 266.8507 47.04623 266.0197 49.12373 266.6845 C 51.86603 267.5155 54.85763 269.2606 57.10133 271.0057 C 58.098534 271.7536 59.095734 272.5846 60.092935 273.3325 C 61.588735 274.4959 63.001436 275.6593 64.24794 277.072 C 65.24514 278.2354 67.98744 281.1439 66.65784 282.5566 C 65.49444 283.8031 62.502836 283.72 60.923935 283.72 C 58.015434 283.6369 51.94913 278.4847 49.70543 281.8918 C 48.87443 283.2214 48.62513 284.88342 49.04063 286.37922 C 49.53923 287.95812 51.28433 289.37082 52.94633 289.62012 C 54.85763 289.86942 56.43653 288.78912 58.430934 289.53702 C 59.261934 289.86942 59.926735 290.45112 60.840835 290.45112 C 61.588735 290.45112 62.336636 290.45112 63.001436 290.53422 C 63.83244 290.70042 64.24794 290.20182 64.58034 291.03282 C 65.32824 292.52862 66.99024 293.27652 68.15364 294.35682 C 69.56634 295.52022 70.81284 296.93292 71.64384 298.59492 C 72.14244 299.59213 72.47484 300.67243 73.05654 301.66963 C 73.72134 302.83303 74.71854 303.74713 75.71574 304.57813 C 76.54674 305.32603 77.46084 305.99083 78.45804 306.40633 C 79.455245 306.82183 80.61865 306.90493 81.69895 307.15423 C 83.52715 307.56973 90.25825 312.55573 91.33855 314.38393 C 93.00055 317.20933 97.65415 323.44184 98.15276 326.68274 C 99.56546 328.84334 100.31336 331.50254 101.31056 333.99554 C 102.39086 336.65475 103.38806 339.31395 104.96696 341.72385 C 106.37966 343.96755 109.86986 345.87885 111.61496 347.87325 C 114.68966 351.11415 118.59537 350.28315 122.99967 352.85925 C 125.82507 354.52125 129.48147 350.53245 130.56177 347.45775 C 131.80827 346.62675 131.89137 344.63235 131.14347 343.30275 C 130.39557 341.97315 131.72517 341.05905 130.89417 339.72945 C 130.06317 338.39985 130.64487 336.90405 130.31247 335.40824 C 129.48147 331.33634 128.73357 327.34754 127.90257 323.27564 C 126.40677 315.96283 126.73917 303.41473 126.40677 302.00203 C 127.48707 304.91053 128.56737 307.73593 129.64767 310.64443 C 131.72517 316.12903 132.63927 319.95164 135.21537 325.18694 C 136.79428 328.34474 138.87178 330.50534 141.19858 333.16454 C 142.02958 334.16174 142.86058 335.15894 143.94088 335.74064 C 145.60288 336.65475 147.51418 336.65475 149.42548 336.65475 C 151.17058 336.65475 153.24808 336.48855 154.32839 334.99274 C 154.74389 334.41104 154.91009 333.74624 155.32559 333.24764 C 155.82419 332.58284 158.56649 330.58844 161.47499 330.58844 C 168.8709 330.58844 176.8485 340.80975 182.25 340.80975 C 187.6515 340.89285 195.546 330.58844 203.025 330.58844 C 205.93351 330.58844 208.67581 332.49974 209.17441 333.24764 C 209.58991 333.82934 209.75611 334.49414 210.17161 334.99274 C 211.25192 336.40544 213.24632 336.57165 215.07452 336.65475 C 216.98582 336.65475 218.89712 336.65475 220.55912 335.74064 C 221.63942 335.15894 222.47042 334.16174 223.30142 333.16454 C 225.54512 330.42224 227.70572 328.26164 229.28463 325.18694 C 231.86073 319.95164 232.85793 316.12903 234.85233 310.64443 C 235.93263 307.73593 237.01293 304.91053 238.09323 302.00203 C 237.84393 303.41473 238.09323 315.96283 236.59743 323.27564 C 235.76643 327.34754 235.01853 331.33634 234.18753 335.40824 C 233.85513 336.90405 234.43683 338.39985 233.60583 339.72945 C 232.85793 340.97595 234.10443 341.97315 233.35653 343.30275 C 232.60863 344.63235 232.69173 346.62675 233.93823 347.45775 C 235.01853 350.53245 238.67493 354.43815 241.50033 352.85925 C 245.98773 350.28315 249.81034 351.11415 252.88504 347.87325 C 254.71324 345.96195 258.12034 343.96755 259.53304 341.72385 C 261.02884 339.31395 262.10914 336.65475 263.18944 333.99554 C 264.18664 331.58564 264.93454 328.92644 266.34724 326.68274 C 266.92895 323.44184 271.49945 317.29243 273.16145 314.38393 C 274.24175 312.55573 280.97285 307.56973 282.80105 307.15423 C 283.88135 306.90493 285.04475 306.82183 286.04196 306.40633 C 287.03916 305.99083 287.95326 305.32603 288.78426 304.57813 C 289.78146 303.74713 290.77866 302.83303 291.44346 301.66963 C 292.02516 300.67243 292.35756 299.59213 292.85616 298.59492 C 293.68716 296.93292 294.93366 295.60332 296.34636 294.35682 C 297.59286 293.27652 299.25486 292.52862 299.91966 291.03282 C 300.33516 290.20182 300.66756 290.70042 301.49856 290.53422 C 302.24646 290.36802 302.91126 290.45112 303.65916 290.45112 C 304.57327 290.36802 305.23807 289.78632 306.06907 289.53702 C 308.06347 288.78912 309.64237 289.86942 311.55367 289.62012 C 313.21567 289.37082 314.96077 287.95812 315.45937 286.37922 C 315.95797 284.88342 315.70867 283.2214 314.79457 281.8918 C 312.55087 278.4847 306.48457 283.72 303.57606 283.72 C 301.99716 283.72 299.00556 283.8862 297.84216 282.5566 C 296.42946 281.0608 299.25486 278.1523 300.25206 277.072 C 301.49856 275.6593 302.91126 274.4959 304.40707 273.3325 C 305.40427 272.5846 306.40147 271.7536 307.39867 271.0057 C 309.64237 269.2606 312.63397 267.5155 315.37627 266.6845 C 317.45377 266.0197 319.86367 266.8507 321.35947 265.0225 C 324.10178 261.6154 322.43977 259.2055 319.53127 256.7956 C 318.94957 256.3801 318.28477 256.2139 317.53687 256.2139 C 317.20447 256.2139 316.78897 256.1308 316.45657 256.2139 C 314.12977 256.3801 312.88327 258.0421 311.71987 259.7872 C 310.80577 261.1168 309.47617 261.6985 307.98037 262.2802 C 306.65077 262.7788 305.90287 263.4436 304.65637 264.1915 C 302.91126 265.1887 302.32956 265.8535 300.41826 266.7676 C 298.83936 267.4324 297.50976 268.6789 296.26326 269.8423 C 295.34916 270.5902 292.27446 272.8339 292.19136 273.9973 C 292.44066 271.5043 293.85336 269.3437 294.18576 266.8507 C 294.35196 265.6873 294.10266 264.9394 294.76746 263.9422 C 295.26606 263.1943 296.09706 262.8619 296.51256 261.9478 C 296.92806 261.0337 296.92806 260.0365 297.50976 259.1224 C 298.67316 257.2942 300.00276 255.466 301.33236 253.7209 C 302.41266 252.2251 303.07746 250.1476 304.57327 249.1504 C 306.06907 248.1532 308.64517 246.8236 309.39307 245.0785 C 310.22407 243.1672 309.47617 241.6714 308.81137 239.9263 C 308.64517 239.5108 308.31277 239.1784 307.89727 239.0122 C 305.23807 237.5995 301.24926 238.015 300.00276 241.2559 C 299.50416 242.5855 298.59006 243.832 298.83936 245.4109 C 299.25486 248.3194 295.09986 251.9758 293.35476 253.804 C 290.77866 256.4632 288.61806 259.0393 287.28846 262.5295 C 287.03916 263.2774 286.87296 264.0253 286.70676 264.7732 C 286.04196 266.9338 285.46026 269.1775 283.96445 270.8395 C 283.13345 271.8367 281.97005 272.4184 281.05595 273.3325 C 280.22495 274.2466 279.89255 275.4931 278.47985 275.4931 C 276.73475 275.4931 276.56855 273.0001 276.31925 271.8367 C 275.98685 270.0916 276.06995 268.1803 276.90095 266.6014 C 277.98125 264.5239 279.97565 263.0281 279.14465 260.452 C 278.64605 258.9562 277.23335 257.7928 275.73755 257.4604 C 272.41355 256.7125 270.25295 259.5379 269.25575 262.2802 C 268.00925 265.5211 269.33885 269.1775 269.50505 272.6677 C 269.58815 273.5818 269.58815 274.4128 269.33885 275.2438 C 269.08955 276.0748 268.59095 276.8227 268.42475 277.6537 C 268.17545 278.9833 268.75715 280.2298 268.92335 281.5594 C 269.25575 283.8862 268.25855 286.12992 267.17825 288.20742 C 265.84864 290.61732 261.27814 300.58933 259.28374 302.50063 C 258.95134 293.60892 260.19784 281.3101 262.94014 272.7508 C 263.77114 270.0916 264.76834 267.5155 265.51624 264.9394 C 266.84585 260.2027 268.34165 255.2167 268.25855 250.2307 C 268.25855 246.9067 266.67965 243.1672 265.59934 241.7545 C 263.52184 238.9291 260.28094 236.9347 257.62174 236.5192 C 252.88504 235.7713 247.23423 238.3474 245.57223 239.1784 C 243.49473 240.1756 241.33413 241.0897 239.25663 242.4193 C 236.18193 244.2475 233.35653 245.9926 230.78043 248.4025 C 236.43123 236.7685 235.76643 219.81608 232.27623 207.68348 C 231.11283 203.61157 228.20432 197.54527 228.86912 193.22407 C 239.09043 191.72827 249.47794 199.04107 259.94854 195.96637 C 261.27814 195.55087 262.44154 194.96917 263.68804 194.38747 C 264.76834 193.88887 265.84864 193.63957 266.76275 192.89167 C 268.50785 191.31277 269.58815 189.23527 271.91495 188.32117 C 272.33045 188.15497 272.82905 187.98877 273.24455 187.73947 C 274.07555 187.15777 274.49105 186.16056 274.98965 185.32956 C 275.98685 183.50136 277.39955 182.08866 277.98125 180.01116 C 278.47985 178.09986 278.89535 176.27166 279.14465 174.36036 C 279.47705 171.61806 280.97285 169.70676 282.46865 167.46305 C 283.88135 165.38555 284.71235 163.22495 285.87576 161.06435 C 288.53496 156.16145 289.11666 150.84305 289.78146 145.35844 C 290.19696 142.36684 290.19696 139.20904 290.69556 136.21744 C 291.27726 133.05964 291.27726 129.15393 292.93926 126.41163 C 294.43506 123.83553 296.76186 121.75803 298.09146 119.01573 C 299.08866 116.93823 299.33796 114.52833 300.25206 112.36773 C 300.58446 111.61982 300.66756 110.78882 301.08306 110.12402 C 301.66476 109.29302 303.07746 108.62822 303.82537 107.96342 C 304.73947 107.29862 305.81977 106.71692 306.56767 105.80282 C 308.64517 103.39292 310.22407 100.15202 311.71987 97.32662 C 312.30157 96.24632 312.21847 95.41532 313.63117 94.91672 C 314.71147 94.58432 315.62557 93.75332 316.12417 92.67301 C 316.53967 91.84201 316.62277 90.92791 316.70587 90.09691 C 316.78897 89.34901 316.78897 88.51801 316.53967 87.77011 C 315.04387 84.36301 310.14097 87.10531 309.39307 89.51521 C 308.89447 91.01101 309.64237 91.17721 308.64517 92.42371 C 307.73107 93.58712 306.73387 94.99982 305.73667 96.08012 C 304.32397 97.49282 302.99436 97.40972 301.24926 97.82522 C 300.50136 97.99142 299.58726 97.90832 299.00556 97.32662 C 297.01116 95.41532 298.42386 91.34341 297.92526 88.85041 C 297.34356 86.35741 295.09986 82.78411 297.01116 80.37421 C 298.17456 78.96151 298.50696 76.80091 297.84216 75.055805 C 297.17736 73.2276 294.93366 72.2304 293.10546 72.6459 C 292.02516 72.8952 291.27726 73.560004 290.77866 74.474105 C 289.86456 75.96991 290.52936 76.63471 291.11106 78.21361 C 291.69276 79.87561 291.02796 81.87001 290.69556 83.53201 C 290.28006 86.10811 290.11386 88.26871 290.61246 90.76171 C 291.60966 95.66462 286.04196 95.58152 284.79545 91.59271 C 284.54615 90.67861 284.29685 89.76451 283.88135 88.93351 C 283.21655 87.52081 281.88695 86.52361 280.88975 85.36021 C 278.72915 82.95031 279.56015 81.70381 280.64045 79.12771 C 281.38835 77.38261 280.64045 75.138905 278.97845 74.141705 C 276.40235 72.5628 271.33325 73.809305 271.49945 77.38261 C 271.58255 79.12771 272.99525 80.45731 273.74315 81.95311 C 275.07275 84.77851 275.15585 87.93631 276.31925 90.92791 C 276.65165 91.75891 276.90095 92.58991 277.15025 93.42092 C 277.39955 94.25192 277.64885 95.08292 277.89815 95.91392 C 278.47985 97.82522 279.56015 100.89992 276.65165 101.39852 C 274.57415 102.72812 272.33045 100.98302 270.00365 98.24072 C 268.59095 96.66182 267.59375 95.91392 265.43314 95.83082 C 263.02324 95.74772 262.35844 99.07172 263.10634 101.23232 C 263.77114 103.22672 264.85144 103.55912 266.43035 104.63942 C 268.84025 106.30142 268.42475 108.29582 268.17545 110.95502 C 268.00925 112.78323 268.50785 114.61143 268.92335 116.43963 C 269.08955 117.10443 269.75435 118.43403 270.00365 119.09883 C 270.66845 120.51153 274.40795 122.09043 274.40795 122.09043 C 274.90655 123.42003 273.99245 124.91583 273.32765 125.99613 C 271.83185 128.48913 270.16985 130.98214 269.33885 133.80754 C 269.08955 134.80474 268.84025 135.71884 268.50785 136.71604 C 268.09235 137.87944 267.34445 139.04284 266.92895 140.20624 C 266.59655 141.03724 266.43035 141.86824 266.26414 142.69924 C 265.59934 145.52464 265.35004 148.35004 264.10354 151.00925 C 263.68804 151.92335 263.10634 152.75435 262.60774 153.58535 C 261.52744 155.24735 260.36404 156.90935 259.20064 158.48825 C 258.28654 159.73475 257.62174 161.47985 255.87664 161.39675 C 242.24823 160.89815 234.43683 156.74315 231.94383 156.24455 Z" stroke="black" stroke-linecap="butt" stroke-linejoin="round" stroke-width="2"/>
        </g>
        <g id="Graphic_181">
          <path d="M 167.7906 327.09824 C 168.3723 327.26444 168.8709 327.26444 169.2864 327.26444 C 169.7019 327.26444 170.2005 327.18134 170.6991 327.09824 C 171.1977 327.09824 171.8625 327.09824 172.5273 327.43064 C 173.109 327.67994 173.6076 328.34474 173.6076 328.92644 C 173.0259 328.67714 172.5273 328.67714 172.1118 328.67714 C 171.6963 328.67714 171.2808 328.76024 170.6991 328.76024 C 170.2005 328.76024 169.5357 328.76024 168.954 328.51094 C 168.4554 328.26164 167.8737 327.76304 167.7906 327.09824 Z" fill="black"/>
        </g>
        <g id="Graphic_180">
          <path d="M 168.3723 324.68834 C 168.7047 324.27284 169.1202 324.10664 169.6188 323.94044 C 170.0343 323.85734 170.4498 323.77424 170.8653 323.77424 C 171.2808 323.77424 171.6963 323.94044 172.0287 324.02354 C 172.4442 324.18974 172.7766 324.35594 173.1921 324.68834 C 172.7766 325.02074 172.3611 325.18694 171.9456 325.27004 C 171.5301 325.35314 171.1146 325.35314 170.6991 325.35314 C 170.2836 325.35314 169.9512 325.27004 169.5357 325.10384 C 169.2033 325.10384 168.7878 325.02074 168.3723 324.68834 Z" fill="black"/>
        </g>
        <g id="Graphic_179">
          <path d="M 162.55529 298.34562 C 162.88769 298.92732 163.30319 299.25973 163.71869 299.59213 C 164.1342 299.92453 164.6328 300.25693 165.0483 300.67243 C 165.5469 301.08793 165.9624 301.75273 166.1286 302.41753 C 166.2948 303.08233 166.2948 303.83023 165.9624 304.49503 C 165.5469 303.91333 165.2976 303.41473 164.8821 302.99923 C 164.5497 302.58373 164.2173 302.25133 163.80179 301.83583 C 163.38629 301.42033 162.88769 301.00483 162.55529 300.34003 C 162.30599 299.84143 162.13979 298.92732 162.55529 298.34562 Z" fill="black"/>
        </g>
        <g id="Graphic_178">
          <path d="M 163.05389 305.82463 C 163.63559 305.82463 164.1342 306.32323 164.4666 306.73873 C 164.799 307.15423 164.9652 307.56973 165.2145 307.90213 C 165.3807 308.23453 165.63 308.65003 165.7962 309.06553 C 165.9624 309.48103 166.2117 309.89653 166.3779 310.47823 C 165.7962 310.47823 165.2976 310.22893 164.799 309.89653 C 164.3835 309.56413 163.96799 309.14863 163.71869 308.65003 C 163.46939 308.15143 163.30319 307.65283 163.22009 307.23733 C 163.22009 306.82183 163.22009 306.40633 163.05389 305.82463 Z" fill="black"/>
        </g>
        <g id="Graphic_177">
          <path d="M 165.0483 314.71633 C 165.3807 314.55013 165.7962 314.55013 166.1286 314.63323 C 166.461 314.71633 166.7934 314.88253 167.0427 314.96563 C 167.5413 315.21493 168.0399 315.38113 168.5385 315.63043 C 169.0371 315.79663 169.5357 316.04593 170.0343 316.12903 C 170.5329 316.29523 171.1146 316.37833 171.7794 316.54453 C 171.3639 317.12623 170.616 317.37553 169.9512 317.45863 C 169.2033 317.54173 168.5385 317.45863 167.8737 317.20933 C 167.2089 316.96003 166.6272 316.54453 166.2117 316.04593 C 165.8793 315.54733 165.7131 315.04873 165.0483 314.71633 Z" fill="black"/>
        </g>
        <g id="Graphic_176">
          <path d="M 165.4638 318.04034 C 166.1286 318.04034 166.6272 318.20654 167.2089 318.28964 C 167.7075 318.37274 168.2061 318.53894 168.7047 318.62204 C 169.2033 318.78824 169.7019 318.87134 170.2005 319.03754 C 170.6991 319.20374 171.2808 319.36994 171.8625 319.70234 C 171.3639 320.11784 170.6991 320.28404 170.1174 320.36714 C 169.5357 320.45024 168.8709 320.36714 168.2892 320.20094 C 167.7075 320.03474 167.1258 319.78544 166.6272 319.45304 C 166.2117 319.12064 165.7131 318.62204 165.4638 318.04034 Z" fill="black"/>
        </g>
        <g id="Graphic_175">
          <path d="M 180.5049 333.58004 C 180.0063 333.82934 179.3415 333.82934 178.8429 333.66314 C 178.3443 333.49694 177.9288 333.16454 177.5133 332.91524 C 177.1809 332.66594 176.8485 332.33354 176.5992 332.16734 C 176.3499 331.91804 176.0175 331.75184 175.4358 331.66874 C 175.5189 331.50254 175.602 331.41944 175.6851 331.33634 C 175.7682 331.25324 175.9344 331.17014 176.0175 331.08704 C 176.2668 331.00394 176.6823 330.92084 176.9316 330.92084 C 177.5964 331.00394 178.0119 331.33634 178.4274 331.58564 C 178.8429 331.91804 179.0922 332.16734 179.4246 332.49974 C 179.8401 332.91524 180.0894 333.16454 180.5049 333.58004 Z" fill="black"/>
        </g>
        <g id="Graphic_174">
          <path d="M 159.72989 316.79383 C 159.89609 316.54453 160.31159 316.37833 160.64399 316.46143 C 160.97639 316.46143 161.39189 316.71073 161.64119 316.87693 C 162.13979 317.37553 162.38909 317.79104 162.63839 318.12344 L 163.38629 319.28684 C 163.63559 319.70234 163.96799 320.11784 164.2173 320.61644 C 163.55249 320.69954 162.97079 320.53334 162.47219 320.20094 C 161.97359 319.95164 161.47499 319.45304 161.14259 319.03754 C 160.81019 318.53894 160.64399 318.04034 160.47779 317.62483 C 160.39469 317.45863 160.31159 317.29243 160.22849 317.12623 C 160.22849 317.04313 160.06229 316.87693 159.72989 316.79383 Z" fill="black"/>
        </g>
        <g id="Graphic_173">
          <path d="M 160.22849 321.69674 C 160.64399 322.11224 161.05949 322.36154 161.39189 322.61084 C 161.72429 322.86014 162.13979 323.10944 162.55529 323.44184 C 162.88769 323.77424 163.30319 324.02354 163.63559 324.43904 C 163.96799 324.77144 164.3004 325.18694 164.6328 325.68554 C 164.0511 325.76864 163.46939 325.68554 162.97079 325.51934 C 162.47219 325.35314 161.97359 325.10384 161.55809 324.68834 C 161.14259 324.35594 160.72709 323.94044 160.47779 323.44184 C 160.06229 322.94324 159.89609 322.27844 160.22849 321.69674 Z" fill="black"/>
        </g>
        <g id="Graphic_172">
          <path d="M 134.13507 247.3222 C 135.46467 248.5687 136.87738 249.7321 138.29008 250.8955 L 142.69438 254.3857 C 144.19018 255.5491 145.60288 256.7956 146.93248 258.2083 C 147.26488 258.5407 147.59728 258.9562 147.92968 259.2886 C 148.26208 259.621 148.51138 260.0365 148.84378 260.3689 C 149.42548 261.1168 150.00718 262.0309 150.42268 262.8619 C 151.75228 266.269 154.32839 269.0113 156.23969 272.2522 C 156.73829 273.0832 157.15379 273.9142 157.48619 274.8283 C 157.65239 275.2438 157.73549 275.7424 157.90169 276.241 C 157.98479 276.7396 158.06789 277.1551 158.15099 277.6537 C 158.40029 279.4819 158.56649 281.3932 158.73269 283.2214 C 158.73269 283.3045 158.64959 283.4707 158.56649 283.4707 C 158.48339 283.4707 158.40029 283.3876 158.31719 283.3045 C 157.98479 281.4763 157.73549 279.6481 157.40309 277.8199 C 157.31999 277.4044 157.23689 276.9058 157.15379 276.4903 C 157.07069 276.0748 156.90449 275.6593 156.73829 275.2438 C 156.40589 274.4128 155.99039 273.5818 155.49179 272.8339 C 154.49459 271.255 153.41428 269.8423 152.25088 268.3465 C 151.66918 267.5986 151.17058 266.8507 150.58888 266.0197 C 150.09028 265.1887 149.67478 264.2746 149.25928 263.5267 C 148.84378 262.6957 148.34518 262.0309 147.76348 261.3661 C 147.43108 261.0337 147.18178 260.7013 146.84938 260.3689 C 146.51698 260.0365 146.26768 259.7041 145.85218 259.4548 C 144.52258 258.2083 143.10988 257.0449 141.61408 255.9646 C 138.70558 253.7209 135.54778 251.6434 132.72237 248.9842 C 132.30687 248.5687 132.30687 247.9039 132.63927 247.4884 C 132.97167 247.0729 133.71957 246.9067 134.13507 247.3222 Z" fill="black"/>
        </g>
        <g id="Graphic_171">
          <path d="M 132.38997 268.0972 C 132.55617 267.4324 132.55617 266.7676 132.38997 266.1859 C 132.22377 265.6042 132.05757 265.0225 131.80827 264.5239 C 131.55897 263.9422 131.22657 263.3605 130.97727 262.6957 C 130.72797 262.0309 130.47867 261.283 130.47867 260.452 L 131.89137 260.3689 C 131.80827 261.283 132.05757 262.2802 132.14067 263.4436 C 131.72517 263.0281 131.39277 262.6126 131.06037 262.114 C 130.72797 261.6154 130.56177 261.0337 130.39557 260.452 C 130.31247 260.0365 130.64487 259.7041 130.97727 259.7041 C 131.30967 259.621 131.64207 259.8703 131.72517 260.2858 L 131.72517 260.452 C 131.97447 261.5323 132.72237 262.6126 133.13787 264.0253 C 133.38717 264.7732 133.47027 265.5211 133.38717 266.269 C 133.38717 266.9338 133.05477 267.6817 132.38997 268.0972 Z" fill="black"/>
        </g>
        <g id="Graphic_170">
          <path d="M 125.90817 253.6378 L 126.82227 254.4688 C 127.07157 254.7181 127.23777 254.8843 127.40397 255.0505 C 127.57017 255.2167 127.73637 255.466 127.90257 255.8815 C 128.06877 256.2139 128.23497 256.7125 128.15187 257.2942 C 127.57017 257.2111 127.23777 257.2111 126.82227 257.128 C 126.48987 256.9618 126.07437 256.7956 125.74197 256.3801 C 125.40957 255.9646 125.24337 255.466 125.24337 254.9674 C 125.24337 254.4688 125.40957 253.9702 125.90817 253.6378 Z" fill="black"/>
        </g>
        <g id="Graphic_169">
          <path d="M 103.30496 320.53334 C 103.96976 321.36434 104.46836 322.27844 104.96696 323.19254 C 105.46556 324.10664 105.88106 325.02074 106.29656 325.93484 C 106.71206 326.84894 107.12756 327.76304 107.45996 328.76024 C 107.79236 329.67434 108.20786 330.67154 108.45716 331.75184 C 107.62616 331.08704 106.87826 330.25604 106.29656 329.42504 C 105.71486 328.59404 105.21626 327.67994 104.71766 326.68274 C 104.30216 325.76864 103.96976 324.77144 103.63736 323.77424 C 103.47116 322.69394 103.30496 321.61364 103.30496 320.53334 Z" fill="black"/>
        </g>
        <g id="Graphic_168">
          <path d="M 110.45156 336.82095 C 111.19946 337.40265 111.69806 338.06745 112.27976 338.73225 C 112.86146 339.39705 113.36006 340.06185 113.94176 340.64355 C 114.44036 341.30835 114.93896 341.97315 115.52066 342.63795 C 116.01926 343.30275 116.51786 344.05065 116.93337 344.88165 C 116.01926 344.54925 115.27136 344.13375 114.52346 343.55205 C 113.77556 342.97035 113.19386 342.38865 112.61216 341.64075 C 112.03046 340.97595 111.61496 340.14495 111.19946 339.39705 C 110.78396 338.56605 110.53466 337.73505 110.45156 336.82095 Z" fill="black"/>
        </g>
        <g id="Graphic_167">
          <path d="M 81.53275 122.00733 C 83.11165 122.00733 84.44125 122.25663 85.85395 122.09043 C 86.51875 122.00733 87.18355 121.92423 87.84835 121.75803 C 88.51315 121.59183 89.09485 121.34253 89.67655 121.01013 C 90.17515 120.76083 90.83995 120.92703 91.08925 121.50873 C 91.33855 122.00733 91.17235 122.67213 90.59065 122.92143 C 89.84275 123.25383 89.09485 123.50313 88.26385 123.66933 C 87.43285 123.83553 86.60185 123.83553 85.85395 123.75243 C 84.27505 123.58623 82.69615 123.25383 81.44965 122.33973 C 81.36655 122.25663 81.36655 122.17353 81.36655 122.00733 C 81.36655 122.09043 81.44965 122.00733 81.53275 122.00733 Z" fill="black"/>
        </g>
        <g id="Graphic_166">
          <path d="M 107.95856 160.23335 C 108.70646 161.06435 109.28816 162.06155 109.62056 163.22495 C 109.95296 164.30525 110.03606 165.38555 109.95296 166.46585 C 109.95296 166.71515 109.86986 167.04755 109.86986 167.21375 C 109.86986 167.37995 109.86986 167.62925 109.86986 167.79545 C 109.95296 168.21096 110.03606 168.62646 110.20226 169.04196 C 110.53466 169.87296 111.11636 170.78706 111.44876 171.70116 C 111.44876 171.78426 111.44876 171.95046 111.28256 171.95046 C 111.19946 171.95046 111.11636 171.95046 111.03326 171.86736 C 110.28536 171.20256 109.62056 170.45466 109.03886 169.54056 C 108.78956 169.12506 108.54026 168.54336 108.37406 167.96165 C 108.29096 167.71235 108.29096 167.37995 108.20786 167.04755 C 108.20786 166.71515 108.20786 166.54895 108.20786 166.29965 C 108.12476 165.38555 108.04166 164.47145 107.70926 163.64045 C 107.37686 162.80945 106.96136 162.14465 106.37966 161.47985 C 105.96416 161.06435 105.96416 160.39955 106.37966 159.98405 C 106.96136 159.73475 107.54306 159.73475 107.95856 160.23335 C 107.95856 160.15025 107.95856 160.23335 107.95856 160.23335 Z" fill="black"/>
        </g>
        <g id="Graphic_165">
          <path d="M 84.69055 119.84673 C 85.52155 119.51433 86.26945 119.18193 87.01735 118.76643 C 87.76525 118.43403 88.43005 118.01853 89.01175 117.51993 C 89.59345 117.02133 90.17515 116.52273 90.67375 115.94103 C 91.17235 115.35933 91.50475 114.69453 91.75405 113.78043 C 92.25265 114.61143 92.16955 115.69173 91.83715 116.60583 C 91.42165 117.51993 90.75685 118.26783 90.00895 118.84953 C 89.26105 119.43123 88.34695 119.76363 87.43285 120.01293 C 86.51875 120.17913 85.52155 120.17913 84.69055 119.84673 Z" fill="black"/>
        </g>
        <g id="Graphic_164">
          <path d="M 96.74005 185.99436 C 96.90625 185.49576 97.07245 185.24646 97.48795 184.99716 C 97.65415 184.91406 97.98655 184.74786 98.40206 184.91406 C 98.81756 184.99716 99.06686 185.32956 99.23306 185.57886 C 99.39926 185.82816 99.39926 185.99436 99.48236 186.24366 C 99.48236 186.40986 99.48236 186.65916 99.48236 186.82537 C 99.39926 186.90847 99.39926 186.99157 99.39926 187.15777 C 99.39926 187.32397 99.48236 187.57327 99.39926 187.82257 C 99.14996 187.73947 98.98376 187.73947 98.81756 187.65637 C 98.65136 187.57327 98.40206 187.40707 98.23586 187.15777 L 97.82035 186.49296 C 97.82035 186.40986 97.82035 186.49296 97.90345 186.49296 C 97.98655 186.49296 97.90345 186.40986 97.82035 186.40986 C 97.57105 186.16056 97.15555 186.16056 96.74005 185.99436 Z" fill="black"/>
        </g>
        <g id="Graphic_163">
          <path d="M 111.36566 187.15777 C 111.19946 189.15217 109.62056 190.98037 107.62616 191.72827 C 106.62896 192.06067 105.46556 192.14377 104.46836 191.89447 C 103.96976 191.72827 103.47116 191.56207 103.05566 191.22967 C 102.64016 190.98037 102.30776 190.64797 101.89226 190.31557 C 102.39086 190.14937 102.88946 190.23247 103.38806 190.23247 C 103.88666 190.23247 104.21906 190.23247 104.63456 190.23247 C 105.46556 190.14937 106.21346 189.98317 106.96136 189.73387 C 107.70926 189.48457 108.37406 189.15217 109.12196 188.73667 C 109.86986 188.32117 110.53466 187.73947 111.36566 187.15777 Z" fill="black"/>
        </g>
        <g id="Graphic_162">
          <path d="M 136.71118 183.66756 C 136.54498 184.33236 136.54498 185.08026 136.54498 185.91126 C 136.54498 186.65916 136.54498 187.49017 136.62808 188.23807 C 136.71118 189.06907 136.71118 189.81697 136.71118 190.64797 C 136.71118 191.06347 136.71118 191.47897 136.71118 191.89447 C 136.71118 192.30997 136.62808 192.80857 136.46188 193.30717 C 136.29568 193.88887 135.71398 194.13817 135.13227 193.97197 C 134.63367 193.80577 134.30127 193.22407 134.46747 192.72547 L 134.46747 192.64237 C 134.55057 192.47617 134.63367 192.06067 134.63367 191.72827 C 134.71677 191.39587 134.71677 190.98037 134.71677 190.56487 C 134.79987 189.81697 134.79987 188.98597 134.88297 188.15497 C 134.96607 187.32397 135.04917 186.49296 135.21537 185.66196 C 135.29847 185.24646 135.38157 184.83096 135.54778 184.41546 C 135.71398 183.99996 135.96328 183.58446 136.37878 183.33516 C 136.46188 183.25206 136.62808 183.25206 136.62808 183.41826 C 136.71118 183.50136 136.71118 183.58446 136.71118 183.66756 Z" fill="black"/>
        </g>
        <g id="Graphic_161">
          <path d="M 125.07717 301.75273 C 123.58137 294.27372 123.08277 286.71162 121.17147 279.3157 C 123.74757 286.46232 124.99407 294.02442 127.07157 301.25413 C 127.23777 301.83583 126.90537 302.41753 126.32367 302.58373 C 125.74197 302.74993 125.16027 302.41753 124.99407 301.83583 C 125.07717 301.83583 125.07717 301.75273 125.07717 301.75273 Z" fill="black"/>
        </g>
        <g id="Graphic_160">
          <path d="M 105.71486 301.58653 C 107.79236 305.32603 109.78676 309.06553 111.78116 312.88813 C 112.77836 314.79943 113.69246 316.71073 114.52346 318.62204 C 115.35446 320.53334 116.26856 322.52774 116.85027 324.52214 C 116.01926 322.52774 115.02206 320.69954 114.02486 318.78824 C 113.02766 316.96003 111.94736 315.13183 110.78396 313.30363 C 108.54026 309.64723 106.29656 306.07393 103.88666 302.58373 C 103.55426 302.08513 103.72046 301.42033 104.13596 301.17103 C 104.71766 300.92173 105.38246 301.08793 105.71486 301.58653 Z" fill="black"/>
        </g>
        <g id="Graphic_159">
          <path d="M 195.8784 327.09824 C 195.7953 327.76304 195.2967 328.26164 194.6319 328.51094 C 194.0502 328.76024 193.3854 328.76024 192.8868 328.76024 C 192.3882 328.76024 191.8896 328.67714 191.4741 328.67714 C 191.0586 328.67714 190.6431 328.76024 189.9783 328.92644 C 189.9783 328.26164 190.4769 327.67994 191.0586 327.43064 C 191.6403 327.18134 192.3051 327.09824 192.8868 327.09824 C 193.4685 327.09824 193.884 327.18134 194.2995 327.26444 C 194.7981 327.34754 195.2136 327.26444 195.8784 327.09824 Z" fill="black"/>
        </g>
        <g id="Graphic_158">
          <path d="M 195.2967 324.68834 C 194.7981 324.93764 194.4657 325.10384 194.0502 325.27004 C 193.6347 325.35314 193.3023 325.43624 192.8868 325.51934 C 192.4713 325.51934 192.0558 325.51934 191.6403 325.43624 C 191.2248 325.35314 190.8093 325.18694 190.3938 324.85454 C 190.8093 324.52214 191.1417 324.35594 191.5572 324.18974 C 191.9727 324.02354 192.3051 323.94044 192.7206 323.94044 C 193.1361 323.94044 193.5516 323.94044 193.9671 324.10664 C 194.5488 324.10664 194.9643 324.27284 195.2967 324.68834 Z" fill="black"/>
        </g>
        <g id="Graphic_157">
          <path d="M 201.1968 298.34562 C 201.6123 298.92732 201.4461 299.84143 201.1137 300.42313 C 200.7813 301.08793 200.2827 301.50343 199.8672 301.91893 C 199.4517 302.33443 199.1193 302.66683 198.7869 303.08233 C 198.4545 303.49783 198.1221 303.99643 197.7066 304.57813 C 197.3742 303.91333 197.3742 303.24853 197.5404 302.50063 C 197.7066 301.83583 198.1221 301.17103 198.6207 300.75553 C 199.1193 300.34003 199.5348 300.00763 199.9503 299.67523 C 200.4489 299.25973 200.8644 299.01043 201.1968 298.34562 Z" fill="black"/>
        </g>
        <g id="Graphic_156">
          <path d="M 200.6151 305.82463 C 200.4489 306.40633 200.4489 306.82183 200.3658 307.23733 C 200.2827 307.65283 200.1996 308.23453 199.8672 308.65003 C 199.6179 309.14863 199.2855 309.56413 198.7869 309.89653 C 198.3714 310.22893 197.8728 310.47823 197.208 310.47823 C 197.3742 309.89653 197.5404 309.48103 197.7897 309.06553 C 197.9559 308.65003 198.2052 308.31763 198.3714 307.90213 C 198.5376 307.56973 198.7869 307.15423 199.1193 306.73873 C 199.5348 306.32323 200.0334 305.82463 200.6151 305.82463 Z" fill="black"/>
        </g>
        <g id="Graphic_155">
          <path d="M 198.6207 314.71633 C 198.039 315.04873 197.7897 315.54733 197.3742 316.04593 C 196.8756 316.54453 196.2939 316.96003 195.7122 317.20933 C 195.0474 317.45863 194.3826 317.62483 193.6347 317.45863 C 192.9699 317.37553 192.222 317.04313 191.8065 316.54453 C 192.4713 316.46143 193.053 316.29523 193.5516 316.12903 C 194.0502 315.96283 194.5488 315.79663 195.0474 315.63043 C 195.546 315.46423 196.0446 315.21493 196.5432 314.96563 C 196.7925 314.79943 197.1249 314.71633 197.4573 314.63323 C 197.8728 314.55013 198.2883 314.46703 198.6207 314.71633 Z" fill="black"/>
        </g>
        <g id="Graphic_154">
          <path d="M 198.2052 318.04034 C 197.9559 318.62204 197.4573 319.12064 197.0418 319.45304 C 196.5432 319.78544 195.9615 320.03474 195.3798 320.20094 C 194.7981 320.36714 194.1333 320.36714 193.5516 320.36714 C 192.9699 320.28404 192.3051 320.11784 191.8065 319.70234 C 192.3882 319.36994 192.8868 319.20374 193.4685 319.03754 C 193.9671 318.87134 194.4657 318.70514 194.9643 318.62204 C 195.4629 318.45584 195.9615 318.37274 196.4601 318.28964 C 197.0418 318.20654 197.5404 318.04034 198.2052 318.04034 Z" fill="black"/>
        </g>
        <g id="Graphic_153">
          <path d="M 183.1641 333.58004 C 183.5796 333.16454 183.8289 332.83214 184.1613 332.49974 C 184.4106 332.16734 184.743 331.83494 185.1585 331.58564 C 185.574 331.25324 185.9895 331.00394 186.6543 330.92084 C 186.9867 330.83774 187.3191 330.92084 187.5684 331.08704 C 187.7346 331.17014 187.8177 331.25324 187.9008 331.33634 C 187.9839 331.41944 188.067 331.58564 188.1501 331.66874 C 187.5684 331.75184 187.236 331.91804 186.9867 332.16734 C 186.7374 332.41664 186.4881 332.66594 186.0726 332.91524 C 185.7402 333.16454 185.3247 333.49694 184.743 333.66314 C 184.3275 333.82934 183.6627 333.91244 183.1641 333.58004 Z" fill="black"/>
        </g>
        <g id="Graphic_152">
          <path d="M 203.9391 316.79383 C 203.6067 316.87693 203.4405 317.04313 203.3574 317.20933 C 203.1912 317.37553 203.1912 317.54173 203.1081 317.70793 C 202.9419 318.04034 202.8588 318.53894 202.4433 319.12064 C 202.1109 319.61924 201.6954 320.03474 201.1137 320.28404 C 200.6151 320.53334 200.0334 320.78264 199.3686 320.69954 C 199.701 320.11784 199.9503 319.70234 200.1996 319.36994 L 200.9475 318.20654 C 201.1968 317.87414 201.4461 317.37553 201.9447 316.96003 C 202.194 316.71073 202.5264 316.54453 202.9419 316.54453 C 203.3574 316.37833 203.7729 316.54453 203.9391 316.79383 Z" fill="black"/>
        </g>
        <g id="Graphic_151">
          <path d="M 203.5236 321.69674 C 203.7729 322.27844 203.6067 322.94324 203.3574 323.44184 C 203.1081 323.94044 202.6926 324.35594 202.2771 324.68834 C 201.8616 325.02074 201.363 325.27004 200.8644 325.51934 C 200.3658 325.68554 199.7841 325.76864 199.2024 325.68554 C 199.5348 325.18694 199.8672 324.77144 200.1996 324.43904 C 200.532 324.10664 200.8644 323.77424 201.2799 323.44184 C 201.6123 323.10944 202.0278 322.86014 202.4433 322.61084 C 202.6926 322.36154 203.1081 322.19534 203.5236 321.69674 Z" fill="black"/>
        </g>
        <g id="Graphic_150">
          <path d="M 230.94663 248.818 C 228.12122 251.4772 225.04652 253.5547 222.05492 255.7984 C 220.55912 256.9618 219.14642 258.0421 217.81682 259.2886 C 217.48442 259.621 217.15202 259.9534 216.81962 260.2027 C 216.48722 260.5351 216.15482 260.8675 215.90552 261.1999 C 215.32382 261.8647 214.82522 262.5295 214.40972 263.3605 C 213.99422 264.1084 213.57872 265.0225 213.08012 265.8535 C 212.58152 266.6845 211.99982 267.4324 211.41812 268.1803 C 210.33782 269.6761 209.17441 271.1719 208.17721 272.6677 C 207.67861 273.4156 207.26311 274.2466 206.93071 275.0776 C 206.76451 275.4931 206.59831 275.9086 206.51521 276.3241 C 206.43211 276.7396 206.34901 277.2382 206.26591 277.6537 C 205.93351 279.4819 205.68421 281.3101 205.35181 283.1383 C 205.35181 283.2214 205.18561 283.3045 205.1025 283.3045 C 205.0194 283.3045 204.9363 283.2214 204.9363 283.0552 C 205.1025 281.227 205.26871 279.3157 205.51801 277.4875 C 205.60111 276.9889 205.68421 276.5734 205.76731 276.0748 C 205.85041 275.5762 206.01661 275.0776 206.18281 274.6621 C 206.51521 273.748 206.93071 272.917 207.42931 272.086 C 209.34061 268.762 211.91672 266.1028 213.24632 262.6957 C 213.66182 261.8647 214.16042 260.9506 214.82522 260.2027 C 215.15762 259.7872 215.40692 259.4548 215.73932 259.1224 C 216.07172 258.79 216.40412 258.3745 216.73652 258.0421 C 218.06612 256.6294 219.47882 255.466 220.97462 254.2195 L 225.37892 250.7293 C 226.79162 249.5659 228.28742 248.4025 229.53393 247.156 C 229.94943 246.7405 230.61423 246.7405 231.02973 247.156 C 231.44523 247.7377 231.44523 248.4025 230.94663 248.818 C 231.02973 248.818 230.94663 248.818 230.94663 248.818 Z" fill="black"/>
        </g>
        <g id="Graphic_149">
          <path d="M 231.27903 268.0972 C 230.69733 267.6817 230.28183 266.9338 230.19873 266.1859 C 230.11563 265.438 230.19873 264.6901 230.44803 263.9422 C 230.86353 262.5295 231.61143 261.4492 231.86073 260.3689 L 231.86073 260.2027 C 231.94383 259.7872 232.27623 259.621 232.69173 259.7041 C 233.02413 259.7872 233.27343 260.1196 233.27343 260.452 C 233.19033 261.1168 232.94103 261.6154 232.60863 262.114 C 232.27623 262.6126 231.94383 263.0281 231.52833 263.4436 C 231.61143 262.2802 231.94383 261.283 231.77763 260.3689 L 233.19033 260.452 C 233.19033 261.283 232.94103 262.0309 232.69173 262.6957 C 232.44243 263.3605 232.11003 263.9422 231.86073 264.5239 C 231.61143 265.1056 231.36213 265.6042 231.27903 266.1859 C 231.11283 266.7676 231.11283 267.4324 231.27903 268.0972 Z" fill="black"/>
        </g>
        <g id="Graphic_148">
          <path d="M 237.76083 253.6378 C 238.17633 253.9702 238.42563 254.4688 238.42563 254.9674 C 238.42563 255.466 238.25943 255.9646 237.92703 256.3801 C 237.59463 256.7956 237.26223 257.0449 236.84673 257.128 C 236.43123 257.2942 236.09883 257.2942 235.51713 257.2942 C 235.35093 256.7125 235.60023 256.2139 235.76643 255.8815 C 235.93263 255.5491 236.09883 255.2167 236.26503 255.0505 C 236.43123 254.8843 236.59743 254.635 236.84673 254.4688 Z" fill="black"/>
        </g>
        <g id="Graphic_147">
          <path d="M 260.44714 320.53334 C 260.44714 321.61364 260.19784 322.61084 259.94854 323.69114 C 259.69924 324.68834 259.36684 325.68554 258.86824 326.59964 C 258.45274 327.51374 257.95414 328.51094 257.28934 329.34194 C 256.70764 330.17294 255.95974 331.00394 255.12874 331.66874 C 255.37804 330.58844 255.79354 329.67434 256.12594 328.67714 C 256.45834 327.76304 256.87384 326.76584 257.28934 325.85174 C 257.70484 324.93764 258.12034 324.02354 258.61894 323.10944 C 259.20064 322.27844 259.78234 321.36434 260.44714 320.53334 Z" fill="black"/>
        </g>
        <g id="Graphic_146">
          <path d="M 253.30054 336.82095 C 253.21744 337.73505 252.88504 338.64915 252.55264 339.39705 C 252.13714 340.22805 251.72164 340.97595 251.13994 341.64075 C 250.55824 342.30555 249.97654 342.97035 249.22864 343.55205 C 248.48074 344.13375 247.73284 344.54925 246.81873 344.88165 C 247.23423 344.05065 247.73284 343.38585 248.23144 342.63795 C 248.73004 341.97315 249.22864 341.30835 249.81034 340.64355 C 250.30894 339.97875 250.89064 339.31395 251.47234 338.73225 C 251.97094 338.06745 252.55264 337.40265 253.30054 336.82095 Z" fill="black"/>
        </g>
        <g id="Graphic_145">
          <path d="M 211.58432 114.52833 C 211.75052 113.61423 211.99982 112.70013 212.16602 111.86912 C 212.74772 109.37612 211.50122 105.80282 209.25751 104.47322 C 207.42931 103.39292 205.1025 102.64502 202.9419 102.56192 C 204.1053 102.39572 205.0194 103.47602 206.01661 104.22392 C 209.25751 106.55072 211.08572 110.53952 211.58432 114.52833 Z" fill="black"/>
        </g>
        <g id="Graphic_144">
          <path d="M 282.30245 122.42283 C 280.97285 123.33693 279.47705 123.66933 277.89815 123.83553 C 277.06715 123.91863 276.31925 123.83553 275.48825 123.75243 C 274.65725 123.58623 273.90935 123.33693 273.16145 123.00453 C 272.66285 122.75523 272.41355 122.17353 272.66285 121.59183 C 272.91215 121.09323 273.49385 120.84393 274.07555 121.09323 C 274.65725 121.42563 275.32205 121.59183 275.90375 121.84113 C 276.56855 122.00733 277.23335 122.17353 277.89815 122.17353 C 279.31085 122.33973 280.64045 122.00733 282.21935 122.09043 C 282.30245 122.09043 282.46865 122.17353 282.46865 122.33973 C 282.38555 122.33973 282.38555 122.33973 282.30245 122.42283 Z" fill="black"/>
        </g>
        <g id="Graphic_143">
          <path d="M 257.20624 161.64605 C 256.62454 162.22775 256.20904 162.97565 255.87664 163.80665 C 255.54424 164.63765 255.46114 165.55175 255.37804 166.46585 C 255.37804 166.71515 255.37804 166.88135 255.37804 167.21375 C 255.37804 167.54615 255.29494 167.79545 255.21184 168.12786 C 255.04564 168.70956 254.79634 169.20816 254.54704 169.70676 C 253.96534 170.62086 253.21744 171.28566 252.55264 172.03356 C 252.46954 172.11666 252.30334 172.11666 252.22024 172.03356 C 252.13714 171.95046 252.13714 171.86736 252.13714 171.78426 C 252.46954 170.78706 253.05124 169.95606 253.38364 169.12506 C 253.54984 168.70956 253.71604 168.29406 253.71604 167.87855 C 253.71604 167.71235 253.71604 167.46305 253.71604 167.29685 C 253.71604 167.13065 253.63294 166.79825 253.63294 166.54895 C 253.54984 165.46865 253.63294 164.38835 253.96534 163.30805 C 254.29774 162.22775 254.87944 161.23055 255.62734 160.31645 C 256.04284 159.90095 256.70764 159.90095 257.12314 160.23335 C 257.62174 160.48265 257.62174 161.14745 257.20624 161.64605 C 257.20624 161.56295 257.20624 161.64605 257.20624 161.64605 Z" fill="black"/>
        </g>
        <g id="Graphic_142">
          <path d="M 278.97845 119.84673 C 278.14745 120.17913 277.15025 120.17913 276.23615 120.01293 C 275.32205 119.84673 274.40795 119.43123 273.66005 118.84953 C 272.91215 118.26783 272.24735 117.51993 271.83185 116.60583 C 271.41635 115.69173 271.41635 114.61143 271.91495 113.78043 C 272.16425 114.69453 272.49665 115.35933 272.99525 115.94103 C 273.49385 116.52273 274.07555 117.02133 274.65725 117.51993 C 275.23895 118.01853 275.98685 118.35093 276.65165 118.76643 C 277.39955 119.18193 278.14745 119.51433 278.97845 119.84673 Z" fill="black"/>
        </g>
        <g id="Graphic_141">
          <path d="M 267.01205 185.99436 C 266.59655 186.16056 266.18104 186.16056 265.93174 186.24366 C 265.84864 186.24366 265.76554 186.32676 265.84864 186.32676 C 265.93174 186.32676 265.93174 186.24366 265.93174 186.32676 L 265.51624 186.99157 C 265.35004 187.24087 265.18384 187.40707 264.93454 187.49017 C 264.68524 187.57327 264.51904 187.57327 264.35284 187.65637 C 264.26974 187.40707 264.35284 187.15777 264.35284 186.99157 C 264.35284 186.82537 264.35284 186.74226 264.26974 186.65916 C 264.26974 186.57606 264.26974 186.32676 264.26974 186.07746 C 264.26974 185.91126 264.35284 185.66196 264.51904 185.41266 C 264.68524 185.16336 264.93454 184.91406 265.35004 184.74786 C 265.76554 184.66476 266.01484 184.74786 266.26414 184.83096 C 266.67965 185.24646 266.84585 185.57886 267.01205 185.99436 Z" fill="black"/>
        </g>
        <g id="Graphic_140">
          <path d="M 252.30334 187.15777 C 253.13434 187.73947 253.79914 188.23807 254.54704 188.73667 C 255.29494 189.15217 255.95974 189.48457 256.70764 189.73387 C 257.45554 189.98317 258.20344 190.14937 259.03444 190.23247 C 259.44994 190.23247 259.86544 190.23247 260.28094 190.23247 C 260.77954 190.23247 261.27814 190.14937 261.77674 190.31557 C 261.36124 190.64797 261.02884 190.89727 260.61334 191.22967 C 260.19784 191.47897 259.69924 191.72827 259.20064 191.89447 C 258.20344 192.14377 257.04004 192.06067 256.04284 191.72827 C 254.04844 190.98037 252.46954 189.23527 252.30334 187.15777 Z" fill="black"/>
        </g>
        <g id="Graphic_139">
          <path d="M 227.29022 183.41826 C 227.70572 183.66756 227.95502 184.16616 228.12122 184.49856 C 228.28742 184.91406 228.37052 185.32956 228.45362 185.74506 C 228.61982 186.57606 228.70292 187.40707 228.78602 188.23807 C 228.86912 189.06907 228.95222 189.81697 228.95222 190.64797 C 228.95222 191.06347 229.03533 191.39587 229.03533 191.81137 C 229.03533 192.14377 229.11843 192.55927 229.20153 192.72547 L 229.20153 192.80857 C 229.36773 193.39027 229.03533 193.97197 228.45362 194.05507 C 227.87192 194.22127 227.37332 193.88887 227.20712 193.39027 C 227.04092 192.80857 226.95782 192.39307 226.95782 191.97757 C 226.95782 191.56207 226.95782 191.14657 226.95782 190.73107 C 226.95782 189.90007 226.95782 189.06907 227.04092 188.32117 C 227.04092 187.49017 227.12402 186.74226 227.12402 185.99436 C 227.12402 185.24646 227.12402 184.41546 226.95782 183.75066 L 226.95782 183.66756 C 226.95782 183.58446 226.95782 183.41826 227.12402 183.41826 C 227.12402 183.33516 227.20712 183.33516 227.29022 183.41826 Z" fill="black"/>
        </g>
        <g id="Graphic_138">
          <path d="M 236.59743 301.25413 C 238.67493 294.02442 239.92143 286.46232 242.49753 279.3157 C 240.58623 286.71162 240.08763 294.19062 238.59183 301.75273 C 238.50873 302.33443 237.92703 302.66683 237.34533 302.58373 C 236.76363 302.50063 236.43123 301.91893 236.51433 301.33723 C 236.59743 301.33723 236.59743 301.25413 236.59743 301.25413 Z" fill="black"/>
        </g>
        <g id="Graphic_137">
          <path d="M 259.69924 302.74993 C 257.37244 306.24013 255.04564 309.81343 252.80194 313.46983 C 251.72164 315.29803 250.64134 317.12623 249.56104 318.95444 C 248.56384 320.78264 247.56663 322.69394 246.73563 324.68834 C 247.40043 322.69394 248.23144 320.69954 249.06244 318.78824 C 249.97654 316.87693 250.89064 314.96563 251.80474 313.05433 C 253.71604 309.23173 255.71044 305.49223 257.87104 301.75273 C 258.12034 301.25413 258.78514 301.08793 259.28374 301.33723 C 259.78234 301.58653 260.03164 302.16823 259.69924 302.74993 C 259.78234 302.66683 259.69924 302.66683 259.69924 302.74993 Z" fill="black"/>
        </g>
        <g id="Graphic_136">
          <path d="M 185.8233 295.02162 C 185.4078 295.68642 184.743 296.18502 184.0782 296.51742 C 183.4134 296.84982 182.6655 297.01602 181.8345 297.01602 C 181.0866 297.01602 180.2556 296.84982 179.5908 296.51742 C 178.926 296.18502 178.2612 295.68642 177.8457 295.02162 C 178.6767 294.93852 179.3415 294.93852 180.0063 294.93852 L 181.8345 294.93852 L 183.6627 294.93852 C 184.3275 295.02162 184.9923 295.02162 185.8233 295.02162 Z" fill="black"/>
        </g>
        <g id="Graphic_135">
          <path d="M 187.4022 279.6481 C 186.7374 280.4791 185.8233 281.0608 184.9092 281.4763 C 183.9951 281.8918 182.9148 282.058 181.8345 282.058 C 180.7542 282.058 179.757 281.8087 178.7598 281.4763 C 177.8457 281.0608 176.9316 280.4791 176.2668 279.6481 C 177.3471 279.7312 178.2612 279.8143 179.1753 279.8974 C 180.0894 279.9805 180.9204 279.9805 181.8345 280.0636 C 182.6655 280.0636 183.5796 279.9805 184.4937 279.9805 C 185.4078 279.8143 186.3219 279.7312 187.4022 279.6481 Z" fill="black"/>
        </g>
        <g id="Graphic_134">
          <path d="M 188.1501 262.1971 C 187.4853 263.2774 186.5712 264.0253 185.4909 264.6901 C 184.4106 265.2718 183.1641 265.6873 181.8345 265.6873 C 180.5049 265.6873 179.2584 265.3549 178.1781 264.6901 C 177.0978 264.1084 176.1837 263.2774 175.5189 262.1971 C 176.6823 262.5295 177.7626 262.945 178.7598 263.1943 C 179.8401 263.4436 180.8373 263.6098 181.8345 263.6098 C 182.8317 263.6098 183.8289 263.4436 184.9092 263.1943 C 185.9064 262.945 186.9867 262.6126 188.1501 262.1971 Z" fill="black"/>
        </g>
        <g id="Graphic_133">
          <path d="M 188.1501 245.5771 C 187.4853 246.6574 186.5712 247.4053 185.4909 248.0701 C 184.4106 248.6518 183.1641 249.0673 181.8345 249.0673 C 180.5049 249.0673 179.2584 248.7349 178.1781 248.0701 C 177.0978 247.4884 176.1837 246.6574 175.5189 245.5771 C 176.6823 245.9095 177.7626 246.325 178.7598 246.5743 C 179.8401 246.8236 180.8373 246.9898 181.8345 246.9898 C 182.8317 246.9898 183.8289 246.8236 184.9092 246.5743 C 185.9064 246.325 186.9867 245.9926 188.1501 245.5771 Z" fill="black"/>
        </g>
        <g id="Graphic_132">
          <path d="M 188.067 228.9571 C 187.4853 230.0374 186.4881 230.7853 185.4909 231.4501 C 184.4106 232.0318 183.1641 232.3642 181.9176 232.4473 C 180.588 232.4473 179.3415 232.1149 178.3443 231.4501 C 177.264 230.8684 176.3499 230.0374 175.7682 228.9571 C 176.9316 229.2895 177.9288 229.6219 179.0091 229.8712 C 180.0063 230.1205 181.0035 230.2867 182.0007 230.2867 C 182.9979 230.2867 183.9951 230.1205 184.9923 229.8712 C 185.9064 229.705 186.9036 229.3726 188.067 228.9571 Z" fill="black"/>
        </g>
        <g id="Graphic_131">
          <path d="M 188.067 212.58638 C 187.4853 213.66668 186.4881 214.41458 185.4909 215.07938 C 184.4106 215.66108 183.1641 215.99348 181.9176 216.07658 C 180.588 216.07658 179.3415 215.74418 178.3443 215.07938 C 177.264 214.49768 176.3499 213.66668 175.7682 212.58638 C 176.9316 212.91878 177.9288 213.25118 179.0091 213.50048 C 180.0063 213.74978 181.0035 213.91598 182.0007 213.91598 C 182.9979 213.91598 183.9951 213.74978 184.9923 213.50048 C 185.9064 213.33428 186.9036 213.00188 188.067 212.58638 Z" fill="black"/>
        </g>
        <g id="Graphic_130">
          <path d="M 188.067 196.29877 C 187.4853 197.37907 186.4881 198.12697 185.4909 198.79177 C 184.4106 199.37347 183.1641 199.70587 181.9176 199.78897 C 180.588 199.78897 179.3415 199.45657 178.3443 198.79177 C 177.264 198.21007 176.3499 197.37907 175.7682 196.29877 C 176.9316 196.63117 177.9288 196.96357 179.0091 197.21287 C 180.0063 197.46217 181.0035 197.62837 182.0007 197.62837 C 182.9979 197.62837 183.9951 197.46217 184.9923 197.21287 C 185.9064 196.96357 186.9036 196.63117 188.067 196.29877 Z" fill="black"/>
        </g>
        <g id="Graphic_129">
          <path d="M 188.067 180.75906 C 187.3191 181.67316 186.3219 182.25486 185.2416 182.67036 C 184.1613 183.08586 182.9979 183.33516 181.8345 183.33516 C 180.6711 183.33516 179.5077 183.08586 178.4274 182.67036 C 177.3471 182.25486 176.3499 181.67316 175.602 180.75906 L 178.8429 181.09146 C 179.8401 181.17456 180.8373 181.25766 181.8345 181.25766 C 182.8317 181.25766 183.8289 181.17456 184.8261 181.09146 Z" fill="black"/>
        </g>
        <g id="Graphic_128">
          <path d="M 188.067 164.38835 C 187.3191 165.30245 186.3219 165.88415 185.2416 166.29965 C 184.1613 166.71515 182.9979 166.96445 181.8345 166.96445 C 180.6711 166.96445 179.5077 166.71515 178.4274 166.29965 C 177.3471 165.88415 176.3499 165.30245 175.602 164.38835 L 178.8429 164.72075 C 179.8401 164.80385 180.8373 164.88695 181.8345 164.88695 C 182.8317 164.88695 183.8289 164.80385 184.8261 164.72075 Z" fill="black"/>
        </g>
        <g id="Graphic_127">
          <path d="M 187.4853 148.10074 C 186.8205 148.93174 185.9064 149.51345 184.9092 149.92895 C 183.912 150.34445 182.8317 150.51065 181.7514 150.59375 C 180.6711 150.59375 179.5908 150.34445 178.5936 149.92895 C 177.5964 149.51345 176.6823 148.93174 176.0175 148.10074 C 177.0978 148.18384 178.0119 148.26694 179.0091 148.35004 C 179.9232 148.43314 180.8373 148.51624 181.7514 148.51624 C 182.6655 148.51624 183.4965 148.43314 184.4937 148.35004 C 185.4909 148.35004 186.4881 148.18384 187.4853 148.10074 Z" fill="black"/>
        </g>
        <g id="Graphic_126">
          <path d="M 187.4853 133.22584 C 186.8205 134.05684 185.9064 134.63854 184.9092 135.05404 C 183.912 135.46954 182.8317 135.63574 181.7514 135.71884 C 180.6711 135.71884 179.5908 135.46954 178.5936 135.05404 C 177.5964 134.63854 176.6823 134.05684 176.0175 133.22584 C 177.0978 133.30894 178.0119 133.39204 179.0091 133.47514 C 179.9232 133.55824 180.8373 133.64134 181.7514 133.64134 C 182.6655 133.64134 183.4965 133.55824 184.4937 133.47514 C 185.4909 133.39204 186.4881 133.22584 187.4853 133.22584 Z" fill="black"/>
        </g>
        <g id="Graphic_125">
          <path d="M 193.4685 80.78971 C 193.3854 81.12211 193.053 81.37141 192.7206 81.45451 C 192.3882 81.53761 191.9727 81.53761 191.6403 81.45451 C 191.3079 81.37141 190.8924 81.20521 190.6431 80.95591 C 190.3938 80.78971 190.0614 80.54041 189.8121 80.29111 C 189.3135 79.79251 188.898 79.29391 188.5656 78.71221 C 188.2332 78.13051 187.9008 77.46571 187.9008 76.46851 C 187.9008 76.21921 187.9839 75.88681 188.067 75.72061 C 188.1501 75.471305 188.2332 75.305105 188.4825 75.055805 C 188.6487 74.806505 188.9811 74.557205 189.3135 74.474105 C 189.4797 74.391005 189.6459 74.391005 189.8121 74.391005 C 189.9783 74.391005 190.1445 74.391005 190.2276 74.474105 C 190.7262 74.640305 191.0586 74.889605 191.391 75.138905 C 191.6403 75.388205 191.8896 75.63751 192.1389 75.88681 C 192.5544 76.38541 192.8868 76.96711 193.1361 77.54881 C 193.3854 78.04741 193.8009 78.71221 193.7178 79.37701 C 193.3023 78.87841 192.8037 78.62911 192.3051 78.21361 C 191.8065 77.79811 191.391 77.46571 190.8924 77.13331 C 190.6431 76.96711 190.4769 76.80091 190.2276 76.71781 C 190.0614 76.55161 189.8121 76.55161 189.729 76.55161 L 189.8121 76.55161 C 189.8952 76.55161 189.9783 76.46851 189.9783 76.55161 C 189.9783 76.55161 189.9783 76.63471 189.8952 76.63471 C 189.8121 76.71781 189.8952 76.71781 189.8952 76.71781 C 189.8952 76.96711 190.0614 77.46571 190.2276 77.96431 C 190.4769 78.46291 190.7262 78.96151 190.9755 79.37701 C 191.1417 79.62631 191.3079 79.87561 191.391 80.04181 C 191.5572 80.29111 191.6403 80.37421 191.8896 80.54041 C 192.3882 80.87281 192.8868 81.12211 193.4685 80.78971 Z" fill="black"/>
        </g>
        <g id="Graphic_124">
          <path d="M 207.34621 123.50313 C 203.1081 125.91303 198.039 124.66653 195.0474 122.67213 C 186.7374 117.10443 187.0698 98.90552 196.7925 97.40972 C 203.6067 96.41252 207.92791 100.48442 210.42092 104.14082 C 213.66182 108.71132 214.57592 118.18473 207.34621 123.50313 Z" fill="#FFFFFF"/>
          <path d="M 207.34621 123.50313 C 203.1081 125.91303 198.039 124.66653 195.0474 122.67213 C 186.7374 117.10443 187.0698 98.90552 196.7925 97.40972 C 203.6067 96.41252 207.92791 100.48442 210.42092 104.14082 C 213.66182 108.71132 214.57592 118.18473 207.34621 123.50313 Z" stroke="black" stroke-linecap="butt" stroke-linejoin="round" stroke-width="1.75"/>
        </g>
        <g id="Graphic_123">
          <path d="M 196.8756 97.32662 C 187.0698 98.82242 186.8205 117.02133 195.1305 122.58903 C 198.1221 124.58343 203.1912 125.82993 207.42931 123.42003 C 207.67861 118.26783 205.93351 110.95502 202.6926 107.04932 C 200.532 104.55632 196.8756 100.48442 196.8756 97.32662 Z" fill="#FFFFFF"/>
          <path d="M 196.8756 97.32662 C 187.0698 98.82242 186.8205 117.02133 195.1305 122.58903 C 198.1221 124.58343 203.1912 125.82993 207.42931 123.42003 C 207.67861 118.26783 205.93351 110.95502 202.6926 107.04932 C 200.532 104.55632 196.8756 100.48442 196.8756 97.32662 Z" stroke="black" stroke-linecap="butt" stroke-linejoin="round" stroke-width="1.75"/>
        </g>
        <g id="Graphic_122">
          <path d="M 209.09131 134.72164 C 210.17161 135.46954 210.91952 136.46674 211.58432 137.63014 C 211.91672 138.21184 212.16602 138.87664 212.16602 139.70764 C 212.16602 140.53864 211.99982 141.20344 211.83362 141.78514 C 211.41812 142.94854 211.00262 144.02884 210.50402 145.10914 C 210.00541 146.18944 209.42371 147.26974 208.59271 148.26694 C 208.59271 147.02044 208.75891 145.77394 208.92511 144.61054 C 209.17441 143.44714 209.50681 142.28374 209.83921 141.12034 C 210.00541 140.53864 210.17161 140.12314 210.17161 139.70764 C 210.17161 139.29214 210.17161 138.79354 210.00541 138.21184 C 209.83921 137.04844 209.42371 135.96814 209.09131 134.72164 Z" fill="black"/>
        </g>
        <g id="Graphic_121">
          <path d="M 191.8065 87.18841 C 192.222 87.68701 192.5544 88.18561 192.8037 88.60111 C 193.053 89.01661 193.3023 89.43211 193.4685 89.93071 C 193.6347 90.42931 193.8009 90.84481 193.884 91.42651 C 193.9671 91.92511 194.0502 92.50681 193.884 93.25471 C 193.2192 93.00541 192.8037 92.58991 192.3882 92.17441 C 191.9727 91.75891 191.7234 91.26031 191.4741 90.76171 C 191.2248 90.26311 191.1417 89.59831 191.1417 89.01661 C 191.2248 88.43491 191.391 87.77011 191.8065 87.18841 Z" fill="black"/>
        </g>
        <g id="Graphic_120">
          <path d="M 209.25751 112.36773 C 209.17441 112.28463 209.25751 111.12122 209.25751 110.87192 C 209.25751 110.37332 209.25751 109.87472 209.17441 109.37612 C 209.09131 108.54512 209.09131 107.71412 208.75891 106.88312 C 208.09411 105.38732 207.51241 103.89152 206.26591 102.81122 C 205.76731 102.31262 203.3574 100.81682 202.9419 101.98022 C 202.6095 102.81122 203.856 103.72532 204.3546 104.22392 C 205.76731 105.71972 206.84761 107.54792 207.59551 109.45922 C 208.01101 110.53952 208.34341 111.70292 209.25751 112.36773 Z" fill="black"/>
        </g>
        <g id="Graphic_119">
          <path d="M 170.2836 80.78971 C 170.8653 81.03901 171.3639 80.78971 171.7794 80.54041 C 171.9456 80.37421 172.1118 80.20801 172.278 80.04181 C 172.4442 79.79251 172.6104 79.62631 172.6935 79.37701 C 172.9428 78.87841 173.2752 78.37981 173.4414 77.96431 C 173.6907 77.46571 173.8569 76.96711 173.7738 76.71781 C 173.7738 76.63471 173.7738 76.71781 173.7738 76.63471 C 173.7738 76.55161 173.6907 76.46851 173.6907 76.55161 C 173.6907 76.46851 173.7738 76.63471 173.8569 76.55161 L 173.94 76.55161 C 173.8569 76.55161 173.6907 76.63471 173.4414 76.71781 C 173.2752 76.80091 173.0259 76.96711 172.7766 77.13331 C 172.3611 77.46571 171.8625 77.88121 171.3639 78.21361 C 170.8653 78.62911 170.3667 78.87841 169.9512 79.37701 C 169.9512 78.71221 170.2836 78.13051 170.5329 77.54881 C 170.7822 76.96711 171.1146 76.46851 171.5301 75.88681 C 171.7794 75.63751 171.9456 75.388205 172.278 75.138905 C 172.5273 74.889605 172.8597 74.640305 173.4414 74.474105 C 173.6076 74.474105 173.6907 74.391005 173.8569 74.391005 C 174.0231 74.391005 174.1893 74.391005 174.3555 74.474105 C 174.6879 74.557205 175.0203 74.806505 175.1865 75.055805 C 175.4358 75.305105 175.4358 75.471305 175.602 75.72061 C 175.6851 75.88681 175.7682 76.21921 175.7682 76.46851 C 175.7682 77.46571 175.4358 78.04741 175.1034 78.71221 C 174.771 79.29391 174.3555 79.79251 173.8569 80.29111 C 173.6076 80.54041 173.3583 80.70661 173.0259 80.95591 C 172.7766 81.12211 172.3611 81.37141 172.0287 81.45451 C 171.6963 81.53761 171.2808 81.53761 170.9484 81.45451 C 170.6991 81.37141 170.4498 81.12211 170.2836 80.78971 Z" fill="black"/>
        </g>
        <g id="Graphic_118">
          <path d="M 156.40589 123.50313 C 160.64399 125.91303 165.7131 124.66653 168.7047 122.67213 C 177.0147 117.10443 176.6823 98.90552 166.9596 97.40972 C 160.14539 96.41252 155.82419 100.48442 153.33118 104.14082 C 150.09028 108.71132 149.17618 118.18473 156.40589 123.50313 Z" fill="#FFFFFF"/>
          <path d="M 156.40589 123.50313 C 160.64399 125.91303 165.7131 124.66653 168.7047 122.67213 C 177.0147 117.10443 176.6823 98.90552 166.9596 97.40972 C 160.14539 96.41252 155.82419 100.48442 153.33118 104.14082 C 150.09028 108.71132 149.17618 118.18473 156.40589 123.50313 Z" stroke="black" stroke-linecap="butt" stroke-linejoin="round" stroke-width="1.75"/>
        </g>
        <g id="Graphic_117">
          <path d="M 166.8765 97.32662 C 176.6823 98.82242 176.9316 117.02133 168.6216 122.58903 C 165.63 124.58343 160.56089 125.82993 156.32279 123.42003 C 156.07349 118.26783 157.81859 110.95502 161.05949 107.04932 C 163.22009 104.55632 166.8765 100.48442 166.8765 97.32662 Z" fill="#FFFFFF"/>
          <path d="M 166.8765 97.32662 C 176.6823 98.82242 176.9316 117.02133 168.6216 122.58903 C 165.63 124.58343 160.56089 125.82993 156.32279 123.42003 C 156.07349 118.26783 157.81859 110.95502 161.05949 107.04932 C 163.22009 104.55632 166.8765 100.48442 166.8765 97.32662 Z" stroke="black" stroke-linecap="butt" stroke-linejoin="round" stroke-width="1.75"/>
        </g>
        <g id="Graphic_116">
          <path d="M 154.66079 134.72164 C 154.32839 135.96814 153.99598 137.04844 153.74668 138.21184 C 153.58048 138.79354 153.58048 139.29214 153.58048 139.70764 C 153.58048 140.12314 153.74668 140.62174 153.91288 141.12034 C 154.32839 142.28374 154.57769 143.44714 154.82699 144.61054 C 155.07629 145.77394 155.24249 147.02044 155.15939 148.26694 C 154.32839 147.26974 153.74668 146.18944 153.24808 145.10914 C 152.74948 144.02884 152.25088 142.86544 151.91848 141.78514 C 151.75228 141.20344 151.50298 140.45554 151.58608 139.70764 C 151.66918 138.87664 151.91848 138.21184 152.16778 137.63014 C 152.74948 136.46674 153.58048 135.46954 154.66079 134.72164 Z" fill="black"/>
        </g>
        <g id="Graphic_115">
          <path d="M 171.9456 87.18841 C 172.3611 87.77011 172.5273 88.35181 172.5273 88.93351 C 172.5273 89.51521 172.4442 90.09691 172.1949 90.67861 C 171.9456 91.17721 171.6963 91.67581 171.2808 92.09131 C 170.8653 92.50681 170.4498 92.83921 169.785 93.17161 C 169.7019 92.50681 169.7019 91.92511 169.785 91.34341 C 169.8681 90.84481 170.0343 90.34621 170.2005 89.84761 C 170.3667 89.34901 170.616 88.93351 170.8653 88.51801 C 171.2808 88.18561 171.5301 87.77011 171.9456 87.18841 Z" fill="black"/>
        </g>
        <g id="Graphic_114">
          <path d="M 154.49459 112.36773 C 154.57769 112.28463 154.49459 111.12122 154.49459 110.87192 C 154.49459 110.37332 154.49459 109.87472 154.57769 109.37612 C 154.66079 108.54512 154.66079 107.71412 154.99319 106.88312 C 155.65799 105.38732 156.23969 103.89152 157.48619 102.81122 C 157.98479 102.31262 160.39469 100.81682 160.81019 101.98022 C 161.14259 102.81122 159.89609 103.72532 159.39749 104.22392 C 157.98479 105.71972 156.90449 107.54792 156.15659 109.45922 C 155.82419 110.53952 155.40869 111.70292 154.49459 112.36773 Z" fill="black"/>
        </g>
      </g>
    </g>
  </g>
</svg>
