<?xml version="1.0" encoding="UTF-8" standalone="no"?>
<!DOCTYPE svg PUBLIC "-//W3C//DTD SVG 1.1//EN" "http://www.w3.org/Graphics/SVG/1.1/DTD/svg11.dtd">
<svg xmlns="http://www.w3.org/2000/svg" xmlns:dc="http://purl.org/dc/elements/1.1/" version="1.1" xmlns:xl="http://www.w3.org/1999/xlink" viewBox="63 76.5 292.5 209.42695" width="292.5" height="209.42695">
  <defs>
    <clipPath id="artboard_clip_path">
      <path d="M 63 76.5 L 355.5 76.5 L 355.5 285.92695 L 63 285.92695 Z"/>
    </clipPath>
  </defs>
  <g id="Frog_Sejant_(2)" fill-opacity="1" stroke="none" stroke-dasharray="none" stroke-opacity="1" fill="none">
    <title>Frog Sejant (2)</title>
    <g id="Frog_Sejant_(2)_Art" clip-path="url(#artboard_clip_path)">
      <title>Art</title>
      <g id="Group_25">
        <g id="Graphic_42">
          <title>path16</title>
          <path d="M 135.70846 194.36157 C 132.31175 201.91076 133.28059 203.32154 132.31175 208.0379 C 129.65018 210.69545 122.83748 216.23942 118.51883 217.82334 C 114.24762 219.38876 109.9472 221.1091 105.58032 220.3024 C 102.57168 219.74547 95.98839 213.22704 91.51269 214.23715 C 87.59874 216.50636 89.84891 224.8542 94.42538 220.2512 C 100.83769 223.25823 102.5347 223.5182 107.21783 225.88656 C 116.64654 230.65813 119.73343 233.67373 131.23115 232.43126 C 136.34711 231.8773 146.34105 230.2966 149.13635 225.05333 C 151.6406 220.3576 148.5797 211.21244 147.81964 206.2873 C 146.53696 197.98448 146.16685 193.3595 139.25203 188.16206 C 134.17895 184.34941 138.12962 188.98564 135.70846 194.36157 Z" fill="#FFFFFF"/>
          <path d="M 135.70846 194.36157 C 132.31175 201.91076 133.28059 203.32154 132.31175 208.0379 C 129.65018 210.69545 122.83748 216.23942 118.51883 217.82334 C 114.24762 219.38876 109.9472 221.1091 105.58032 220.3024 C 102.57168 219.74547 95.98839 213.22704 91.51269 214.23715 C 87.59874 216.50636 89.84891 224.8542 94.42538 220.2512 C 100.83769 223.25823 102.5347 223.5182 107.21783 225.88656 C 116.64654 230.65813 119.73343 233.67373 131.23115 232.43126 C 136.34711 231.8773 146.34105 230.2966 149.13635 225.05333 C 151.6406 220.3576 148.5797 211.21244 147.81964 206.2873 C 146.53696 197.98448 146.16685 193.3595 139.25203 188.16206 C 134.17895 184.34941 138.12962 188.98564 135.70846 194.36157 Z" stroke="black" stroke-linecap="round" stroke-linejoin="round" stroke-width="2"/>
        </g>
        <g id="Graphic_41">
          <title>path20</title>
          <path d="M 135.51496 211.3392 C 129.68074 221.24497 120.687 223.23196 112.91537 224.3624 C 110.18734 224.75772 103.37758 220.74996 101.69155 223.1352 C 99.93504 225.62257 99.8675 228.70035 100.72137 230.67877 C 101.58676 232.68426 103.39419 233.57404 104.61014 233.5132 C 107.85488 233.3473 103.07607 228.89787 107.03961 228.32166 C 110.45534 229.4698 120.62911 232.65102 124.1834 233.09618 C 135.49003 234.51125 138.40888 228.89787 140.61698 219.61978" fill="#FFFFFF"/>
          <path d="M 135.51496 211.3392 C 129.68074 221.24497 120.687 223.23196 112.91537 224.3624 C 110.18734 224.75772 103.37758 220.74996 101.69155 223.1352 C 99.93504 225.62257 99.8675 228.70035 100.72137 230.67877 C 101.58676 232.68426 103.39419 233.57404 104.61014 233.5132 C 107.85488 233.3473 103.07607 228.89787 107.03961 228.32166 C 110.45534 229.4698 120.62911 232.65102 124.1834 233.09618 C 135.49003 234.51125 138.40888 228.89787 140.61698 219.61978" stroke="black" stroke-linecap="round" stroke-linejoin="round" stroke-width="2"/>
        </g>
        <g id="Graphic_40">
          <title>path32</title>
          <path d="M 283.81328 183.5119 C 284.63606 182.3525 285.8019 181.9738 289.0528 181.62567 C 296.1335 180.8656 303.836 180.93743 310.82826 181.86607 C 322.30695 183.39156 331.6148 187.5427 339.25564 195.31192 C 345.95846 202.13455 345.4305 209.90779 339.98193 218.6579 C 335.88413 225.2412 326.34312 220.56772 319.08552 221.48537 C 298.61524 224.07645 303.8092 213.19675 292.84776 199.25053 C 289.17608 194.57946 281.10106 187.31918 283.81328 183.5119 Z" fill="#FFFFFF"/>
          <path d="M 283.81328 183.5119 C 284.63606 182.3525 285.8019 181.9738 289.0528 181.62567 C 296.1335 180.8656 303.836 180.93743 310.82826 181.86607 C 322.30695 183.39156 331.6148 187.5427 339.25564 195.31192 C 345.95846 202.13455 345.4305 209.90779 339.98193 218.6579 C 335.88413 225.2412 326.34312 220.56772 319.08552 221.48537 C 298.61524 224.07645 303.8092 213.19675 292.84776 199.25053 C 289.17608 194.57946 281.10106 187.31918 283.81328 183.5119 Z" stroke="black" stroke-linecap="round" stroke-linejoin="round" stroke-width="2"/>
        </g>
        <g id="Graphic_39">
          <title>path98</title>
          <path d="M 148.9608 89.64313 C 146.13227 84.33662 139.21585 82.21348 134.10283 82.21348 C 129.38754 82.21348 122.77959 84.45722 119.95213 91.05954 C 113.94076 95.30342 103.71741 91.78959 99.43334 91.41465 C 95.62765 91.08313 89.43967 91.15388 83.86515 92.82704 C 76.79247 94.94965 69.94948 99.07908 68.06701 108.03932 C 67.12041 117.00492 70.50774 120.50641 75.73117 125.73038 C 79.619935 129.61915 85.04518 133.03783 95.42316 141.52825 C 105.32464 150.72326 108.39652 162.03552 113.58404 171.01237 C 116.16279 175.47628 124.65054 185.99256 125.61241 190.11475 C 128.91772 204.2668 135.29385 211.2923 137.63756 214.87822 C 145.29475 226.59543 146.83847 227.37774 152.9699 233.5108 C 162.501 243.04 179.034 262.98365 203.09154 265.11215 C 213.1447 266.00193 204.11265 265.46994 213.95328 267.94203 C 226.906 271.19535 272.4016 266.94853 285.8796 266.0601 C 294.6836 265.4796 290.69567 261.45012 299.48358 260.3998 C 321.69858 257.7452 316.65203 252.73993 315.52373 229.73834 C 314.65003 211.91006 310.9194 201.18795 304.2648 195.41966 C 295.05612 187.43657 291.51845 180.1385 284.80758 173.13525 C 281.7389 169.93177 276.54496 167.8952 273.00193 163.2311 C 267.18084 155.57122 264.38018 145.70003 259.14335 144.12094 C 247.9273 140.73897 248.57588 140.93703 235.08956 137.04237 C 230.41741 135.69376 228.80188 132.43106 226.34212 131.38638 C 224.5706 130.63462 217.04473 129.82363 215.77036 129.26377 C 210.14465 126.79704 214.1677 128.03684 208.84858 125.72475 C 207.68624 125.21876 203.56565 120.94058 202.2886 120.41824 C 199.83715 119.41482 196.899 119.61663 194.9951 118.65208 C 192.19523 117.23165 190.3559 114.6679 185.1558 113.3402 C 182.37952 112.6324 180.66884 109.68621 177.50155 108.03369 C 177.07997 107.81527 170.15149 106.41252 169.8473 106.26726 C 162.92257 104.84951 155.3289 100.60993 152.14498 97.78247 C 150.68569 94.24774 150.54445 92.61425 148.9608 89.64313 Z" fill="#FFFFFF"/>
          <path d="M 148.9608 89.64313 C 146.13227 84.33662 139.21585 82.21348 134.10283 82.21348 C 129.38754 82.21348 122.77959 84.45722 119.95213 91.05954 C 113.94076 95.30342 103.71741 91.78959 99.43334 91.41465 C 95.62765 91.08313 89.43967 91.15388 83.86515 92.82704 C 76.79247 94.94965 69.94948 99.07908 68.06701 108.03932 C 67.12041 117.00492 70.50774 120.50641 75.73117 125.73038 C 79.619935 129.61915 85.04518 133.03783 95.42316 141.52825 C 105.32464 150.72326 108.39652 162.03552 113.58404 171.01237 C 116.16279 175.47628 124.65054 185.99256 125.61241 190.11475 C 128.91772 204.2668 135.29385 211.2923 137.63756 214.87822 C 145.29475 226.59543 146.83847 227.37774 152.9699 233.5108 C 162.501 243.04 179.034 262.98365 203.09154 265.11215 C 213.1447 266.00193 204.11265 265.46994 213.95328 267.94203 C 226.906 271.19535 272.4016 266.94853 285.8796 266.0601 C 294.6836 265.4796 290.69567 261.45012 299.48358 260.3998 C 321.69858 257.7452 316.65203 252.73993 315.52373 229.73834 C 314.65003 211.91006 310.9194 201.18795 304.2648 195.41966 C 295.05612 187.43657 291.51845 180.1385 284.80758 173.13525 C 281.7389 169.93177 276.54496 167.8952 273.00193 163.2311 C 267.18084 155.57122 264.38018 145.70003 259.14335 144.12094 C 247.9273 140.73897 248.57588 140.93703 235.08956 137.04237 C 230.41741 135.69376 228.80188 132.43106 226.34212 131.38638 C 224.5706 130.63462 217.04473 129.82363 215.77036 129.26377 C 210.14465 126.79704 214.1677 128.03684 208.84858 125.72475 C 207.68624 125.21876 203.56565 120.94058 202.2886 120.41824 C 199.83715 119.41482 196.899 119.61663 194.9951 118.65208 C 192.19523 117.23165 190.3559 114.6679 185.1558 113.3402 C 182.37952 112.6324 180.66884 109.68621 177.50155 108.03369 C 177.07997 107.81527 170.15149 106.41252 169.8473 106.26726 C 162.92257 104.84951 155.3289 100.60993 152.14498 97.78247 C 150.68569 94.24774 150.54445 92.61425 148.9608 89.64313 Z" stroke="black" stroke-linecap="round" stroke-linejoin="round" stroke-width="2"/>
        </g>
        <g id="Graphic_38">
          <title>path122</title>
          <path d="M 165.23439 185.39812 C 166.20859 194.8338 168.41267 205.6457 166.6508 211.80902 C 164.7643 218.41214 163.34655 222.18727 158.15635 228.79415 C 152.58987 235.87942 150.58063 238.5517 144.94795 244.35966 C 146.15854 249.65117 147.61354 258.1499 150.29038 260.3998 C 151.90726 261.75806 155.87026 258.639 156.8793 261.75404 C 158.93116 268.0956 151.80756 270.71428 144.6301 264.30197 C 141.46549 261.4721 139.46482 260.0321 135.70846 256.62414 C 133.96722 255.04318 130.83611 254.24613 127.93656 255.20773 C 122.60378 256.97523 116.24427 266.05848 109.34473 268.6525 C 102.73624 271.13692 95.34035 268.40648 88.64637 266.86866 C 82.34502 265.42143 76.90825 268.29874 71.07671 266.5299 C 68.89059 257.6857 81.83366 261.53562 85.65569 261.8106 C 92.1358 262.2764 96.61177 260.26715 102.66602 256.62414 C 106.59445 254.2614 111.24623 252.1412 114.32776 246.71892 C 116.64788 235.86817 124.06709 227.37774 128.44255 221.71612 C 132.22036 216.8242 133.04421 214.64184 136.93137 208.51067 C 134.74524 203.55498 134.18029 195.53865 133.63302 190.5859 C 132.36857 179.12705 134.57399 180.20765 129.85762 172.18865" fill="#FFFFFF"/>
          <path d="M 165.23439 185.39812 C 166.20859 194.8338 168.41267 205.6457 166.6508 211.80902 C 164.7643 218.41214 163.34655 222.18727 158.15635 228.79415 C 152.58987 235.87942 150.58063 238.5517 144.94795 244.35966 C 146.15854 249.65117 147.61354 258.1499 150.29038 260.3998 C 151.90726 261.75806 155.87026 258.639 156.8793 261.75404 C 158.93116 268.0956 151.80756 270.71428 144.6301 264.30197 C 141.46549 261.4721 139.46482 260.0321 135.70846 256.62414 C 133.96722 255.04318 130.83611 254.24613 127.93656 255.20773 C 122.60378 256.97523 116.24427 266.05848 109.34473 268.6525 C 102.73624 271.13692 95.34035 268.40648 88.64637 266.86866 C 82.34502 265.42143 76.90825 268.29874 71.07671 266.5299 C 68.89059 257.6857 81.83366 261.53562 85.65569 261.8106 C 92.1358 262.2764 96.61177 260.26715 102.66602 256.62414 C 106.59445 254.2614 111.24623 252.1412 114.32776 246.71892 C 116.64788 235.86817 124.06709 227.37774 128.44255 221.71612 C 132.22036 216.8242 133.04421 214.64184 136.93137 208.51067 C 134.74524 203.55498 134.18029 195.53865 133.63302 190.5859 C 132.36857 179.12705 134.57399 180.20765 129.85762 172.18865" stroke="black" stroke-linecap="round" stroke-linejoin="round" stroke-width="2"/>
        </g>
        <g id="Graphic_37">
          <title>path134</title>
          <path d="M 116.27187 251.90644 C 111.98673 257.11057 110.47089 260.983 104.61014 264.64368 C 101.79929 266.39885 93.91965 262.75746 90.03089 266.5299 C 92.45902 273.60928 102.48485 272.55334 107.48423 269.6696 C 109.8006 268.33332 112.5214 266.81185 114.5628 265.1092 C 116.53586 263.46606 122.99104 257.71895 125.50735 256.62414" fill="#FFFFFF"/>
          <path d="M 116.27187 251.90644 C 111.98673 257.11057 110.47089 260.983 104.61014 264.64368 C 101.79929 266.39885 93.91965 262.75746 90.03089 266.5299 C 92.45902 273.60928 102.48485 272.55334 107.48423 269.6696 C 109.8006 268.33332 112.5214 266.81185 114.5628 265.1092 C 116.53586 263.46606 122.99104 257.71895 125.50735 256.62414" stroke="black" stroke-linecap="round" stroke-linejoin="round" stroke-width="2"/>
        </g>
        <g id="Graphic_36">
          <title>path224</title>
          <path d="M 251.19966 207.80046 C 259.58556 202.49367 269.73494 202.17877 282.68498 200.4914 C 290.99048 199.40946 303.35626 196.94408 309.1023 196.2462 C 318.4852 195.1077 330.70357 198.83432 336.92667 202.84905 C 343.68577 207.2103 348.12127 214.63943 350.134 221.24497 C 351.7179 226.44615 349.1102 236.93778 343.53033 240.5832 C 337.88077 244.27444 296.22195 259.67566 275.64982 261.57716 C 257.2807 263.2739 235.41036 259.03164 236.28487 229.31248" fill="#FFFFFF"/>
          <path d="M 251.19966 207.80046 C 259.58556 202.49367 269.73494 202.17877 282.68498 200.4914 C 290.99048 199.40946 303.35626 196.94408 309.1023 196.2462 C 318.4852 195.1077 330.70357 198.83432 336.92667 202.84905 C 343.68577 207.2103 348.12127 214.63943 350.134 221.24497 C 351.7179 226.44615 349.1102 236.93778 343.53033 240.5832 C 337.88077 244.27444 296.22195 259.67566 275.64982 261.57716 C 257.2807 263.2739 235.41036 259.03164 236.28487 229.31248" stroke="black" stroke-linecap="round" stroke-linejoin="round" stroke-width="2"/>
        </g>
        <g id="Graphic_35">
          <title>path242</title>
          <path d="M 331.7863 224.67035 C 325.88215 236.58267 309.02995 247.23563 301.53114 251.20587 C 291.90706 256.30093 266.29374 263.0059 253.1695 263.0059 C 243.26186 263.0059 221.9546 260.84175 220.1319 260.8723 C 213.33017 261.57823 213.51536 265.5045 216.2434 267.9506 C 219.06496 270.47924 231.21607 274.89463 234.69693 275.43467 C 241.9714 276.5651 250.50284 275.98917 257.79796 277.0309 C 270.59523 278.86005 296.65612 278.3728 308.0973 274.9083 C 319.35085 271.50195 321.5887 268.8101 330.69285 260.75626 C 337.9585 254.33162 352.3772 234.3357 350.134 222.18727" fill="#FFFFFF"/>
          <path d="M 331.7863 224.67035 C 325.88215 236.58267 309.02995 247.23563 301.53114 251.20587 C 291.90706 256.30093 266.29374 263.0059 253.1695 263.0059 C 243.26186 263.0059 221.9546 260.84175 220.1319 260.8723 C 213.33017 261.57823 213.51536 265.5045 216.2434 267.9506 C 219.06496 270.47924 231.21607 274.89463 234.69693 275.43467 C 241.9714 276.5651 250.50284 275.98917 257.79796 277.0309 C 270.59523 278.86005 296.65612 278.3728 308.0973 274.9083 C 319.35085 271.50195 321.5887 268.8101 330.69285 260.75626 C 337.9585 254.33162 352.3772 234.3357 350.134 222.18727" stroke="black" stroke-linecap="round" stroke-linejoin="round" stroke-width="2"/>
        </g>
        <g id="Graphic_34">
          <title>path248</title>
          <path d="M 229.12268 265.3523 C 221.83453 266.29352 216.4905 264.8881 211.38445 264.41132 C 206.18004 263.9265 201.06435 262.99464 195.83529 262.99464 C 193.06598 262.99464 188.5249 263.60837 185.14507 265.1175 C 182.26481 266.4026 179.31032 269.83817 180.76988 272.4306 C 183.44216 273.37182 184.27137 269.9845 186.11472 269.36273 C 188.20704 268.65385 191.46143 269.12795 194.13265 268.8913 C 197.38007 268.60534 217.05867 272.12667 221.10743 272.66536 C 223.90032 273.0387 228.63598 273.60794 232.76783 272.9004" fill="#FFFFFF"/>
          <path d="M 229.12268 265.3523 C 221.83453 266.29352 216.4905 264.8881 211.38445 264.41132 C 206.18004 263.9265 201.06435 262.99464 195.83529 262.99464 C 193.06598 262.99464 188.5249 263.60837 185.14507 265.1175 C 182.26481 266.4026 179.31032 269.83817 180.76988 272.4306 C 183.44216 273.37182 184.27137 269.9845 186.11472 269.36273 C 188.20704 268.65385 191.46143 269.12795 194.13265 268.8913 C 197.38007 268.60534 217.05867 272.12667 221.10743 272.66536 C 223.90032 273.0387 228.63598 273.60794 232.76783 272.9004" stroke="black" stroke-linecap="round" stroke-linejoin="round" stroke-width="2"/>
        </g>
        <g id="Graphic_33">
          <title>path252</title>
          <path d="M 241.7101 269.24695 C 237.34483 269.11804 223.19144 271.0943 219.71594 273.60258 C 217.11093 275.48183 214.49385 277.8518 218.38369 280.21348 C 224.21683 274.5532 239.5256 276.19205 244.94976 276.19473" fill="#FFFFFF"/>
          <path d="M 241.7101 269.24695 C 237.34483 269.11804 223.19144 271.0943 219.71594 273.60258 C 217.11093 275.48183 214.49385 277.8518 218.38369 280.21348 C 224.21683 274.5532 239.5256 276.19205 244.94976 276.19473" stroke="black" stroke-linecap="round" stroke-linejoin="round" stroke-width="2"/>
        </g>
        <g id="Graphic_32">
          <title>path100</title>
          <path d="M 68.06701 108.03932 C 69.00664 117.59078 76.301755 121.20859 81.27273 123.60804 C 94.95362 130.21037 97.14108 130.87904 107.68765 134.92566 C 121.6076 140.26782 125.8429 142.23847 139.28901 144.36107" stroke="black" stroke-linecap="round" stroke-linejoin="round" stroke-width="2"/>
        </g>
        <g id="Graphic_31">
          <title>path128</title>
          <path d="M 150.48093 118.89275 C 144.67003 115.50998 138.47508 120.21509 136.39133 124.55008 C 134.90712 127.63161 136.56527 131.12534 142.21858 134.45692 C 147.34553 137.47922 154.80923 137.73088 156.79917 132.57364 C 158.2531 128.8036 155.33827 121.72262 150.48093 118.89275 Z" stroke="black" stroke-linecap="round" stroke-linejoin="round" stroke-width="2"/>
        </g>
        <g id="Graphic_30">
          <title>path130</title>
          <path d="M 92.59597 139.1706 C 102.49584 146.2489 110.99189 148.60655 118.53438 155.67896" stroke="black" stroke-linecap="round" stroke-linejoin="round" stroke-width="2"/>
        </g>
        <g id="Graphic_29">
          <title>path160</title>
          <path d="M 96.7305 99.07077 C 97.21425 95.29511 93.08347 94.82529 91.99081 97.65275" stroke="black" stroke-linecap="round" stroke-linejoin="round" stroke-width="2"/>
        </g>
        <g id="Graphic_28">
          <title>path192</title>
          <path d="M 149.31457 104.15056 C 148.22138 99.90534 147.24744 98.48732 145.42045 95.30342 C 141.37705 88.25299 129.14714 83.74513 120.65698 90.35362" stroke="black" stroke-linecap="round" stroke-linejoin="round" stroke-width="2"/>
        </g>
        <g id="Graphic_27">
          <title>path262</title>
          <path d="M 142.2368 103.08898 C 142.2368 95.6797 138.02456 90.09097 130.32315 88.70083 C 122.17952 87.23162 115.64608 91.85713 112.87383 98.1365 C 110.68663 103.08898 113.09788 111.44942 118.89056 114.76224 C 122.18944 116.64847 127.92289 117.14589 132.33105 115.82355 C 137.05197 114.40714 142.2368 109.22069 142.2368 103.08898 Z" fill="#FFFFFF"/>
          <path d="M 142.2368 103.08898 C 142.2368 95.6797 138.02456 90.09097 130.32315 88.70083 C 122.17952 87.23162 115.64608 91.85713 112.87383 98.1365 C 110.68663 103.08898 113.09788 111.44942 118.89056 114.76224 C 122.18944 116.64847 127.92289 117.14589 132.33105 115.82355 C 137.05197 114.40714 142.2368 109.22069 142.2368 103.08898 Z" stroke="black" stroke-linecap="round" stroke-linejoin="round" stroke-width="2"/>
        </g>
        <g id="Graphic_26">
          <title>path264</title>
          <path d="M 127.07036 96.6011 C 122.42019 94.96358 120.89444 102.02795 124.88263 102.96758 C 128.83759 103.90185 131.07651 98.01215 127.07036 96.6011" fill="black"/>
          <path d="M 127.07036 96.6011 C 122.42019 94.96358 120.89444 102.02795 124.88263 102.96758 C 128.83759 103.90185 131.07651 98.01215 127.07036 96.6011" stroke="black" stroke-linecap="round" stroke-linejoin="round" stroke-width="2"/>
        </g>
      </g>
    </g>
  </g>
</svg>
