<?xml version="1.0" encoding="UTF-8" standalone="no"?>
<!DOCTYPE svg PUBLIC "-//W3C//DTD SVG 1.1//EN" "http://www.w3.org/Graphics/SVG/1.1/DTD/svg11.dtd">
<svg xmlns="http://www.w3.org/2000/svg" xmlns:xl="http://www.w3.org/1999/xlink" version="1.1" xmlns:dc="http://purl.org/dc/elements/1.1/" viewBox="67.5 76.5 229.5 324" width="229.5" height="324">
  <defs>
    <clipPath id="artboard_clip_path">
      <path d="M 67.5 76.5 L 297 76.5 L 297 350.65385 L 265.22308 400.5 L 67.5 400.5 Z"/>
    </clipPath>
  </defs>
  <g id="Hedgehog_Rampant_(2)" stroke-opacity="1" fill="none" fill-opacity="1" stroke-dasharray="none" stroke="none">
    <title>Hedgehog Rampant (2)</title>
    <g id="Hedgehog_Rampant_(2)_Art" clip-path="url(#artboard_clip_path)">
      <title>Art</title>
      <g id="Group_53">
        <g id="Graphic_142">
          <path d="M 167.68744 80.50565 C 164.06119 81.79849 160.05654 84.79409 158.00692 87.72663 C 156.43028 90.06004 155.9573 89.42939 155.9573 85.04635 C 155.9573 82.71293 155.8627 82.08228 155.51584 82.08228 C 154.91672 82.08228 152.17338 84.28957 150.9436 85.7716 C 149.8715 87.03291 146.81283 92.86645 146.81283 93.62323 C 146.81283 93.87549 146.6867 94.06469 146.56056 94.06469 C 146.15064 94.06469 145.36232 92.42499 144.29021 89.24019 C 143.6911 87.53743 143.06044 86.18153 142.83971 86.18153 C 141.35768 86.18153 138.64587 92.42499 138.61434 95.86205 C 138.61434 96.3981 138.4882 97.21795 138.33054 97.65941 L 138.01522 98.4162 L 135.46107 97.12336 C 133.34838 96.05125 132.52853 95.79898 130.73117 95.70439 C 128.0509 95.54672 128.0509 95.60979 129.81673 98.63692 C 132.18168 102.6731 134.19976 108.09672 134.19976 110.43014 C 134.19976 111.7545 133.88444 112.1329 131.0465 113.99332 C 130.10052 114.65551 127.9563 116.54747 126.28507 118.25023 C 123.16334 121.43503 121.08218 122.91707 117.86585 124.2099 C 113.60894 125.91267 110.73947 126.25953 103.26623 125.9442 C 100.93282 125.81807 100.3337 125.91267 99.07239 126.54332 C 96.99124 127.52083 95.95066 129.19206 95.793 131.7462 C 95.63533 134.30035 96.39212 136.06618 98.56787 138.08427 C 99.45078 138.93565 100.4283 140.0393 100.68056 140.54382 C 101.34274 141.83666 103.83382 144.42233 105.47352 145.55751 C 106.26184 146.09356 107.80694 146.88188 108.94211 147.32334 C 111.71698 148.42698 111.90618 148.55311 112.91522 150.16128 C 114.20806 152.2109 116.60455 154.38665 119.00103 155.64796 C 120.2308 156.31014 124.33004 157.72911 128.68155 159.02195 C 139.0558 162.11215 142.39825 163.78338 146.05604 167.59883 C 149.27237 170.9413 149.3985 171.7296 147.22275 173.77923 C 143.97489 176.80637 135.27187 181.0948 131.89788 181.34707 C 130.41585 181.4732 129.62753 181.31554 127.9563 180.68488 C 126.78959 180.2119 124.42464 179.32898 122.69035 178.72986 C 120.95605 178.0992 116.41535 176.04958 112.5999 174.15762 C 102.57252 169.17547 101.9734 169.1124 92.00908 172.581 C 89.04501 173.62157 85.41875 174.75674 83.99978 175.1036 C 82.54928 175.482 80.78345 176.11265 80.0582 176.5541 C 77.75632 177.87848 73.34175 183.64895 70.62994 188.88337 C 69.71549 190.61767 69.55783 191.24832 69.55783 193.01415 C 69.55783 195.12684 70.31461 197.46025 71.13446 197.96478 C 71.32366 198.0909 71.79665 197.9017 72.17504 197.58638 C 73.46788 196.41968 73.59401 196.4512 74.57152 198.34317 C 75.6121 200.42432 76.999535 201.96942 77.72479 201.8433 C 78.00858 201.78023 78.5131 200.89731 78.89149 199.7306 C 79.26989 198.62696 79.83747 197.49179 80.12127 197.208 C 80.62579 196.735 80.688855 196.76654 81.16184 197.49179 C 82.07629 198.87922 84.66197 201.33877 85.07189 201.21264 C 85.29262 201.11804 85.79714 199.88827 86.17554 198.40623 C 87.27918 194.27546 87.37378 194.1178 89.6126 193.04568 C 90.71624 192.54116 91.94601 191.68978 92.3244 191.15372 C 93.08119 190.14468 94.37403 189.92395 94.65782 190.71227 C 95.00468 191.59518 94.02717 193.20335 91.97754 195.15837 C 90.65317 196.4512 90.02252 197.27106 90.14865 197.58638 C 90.24325 197.87018 91.09463 198.24857 92.10367 198.4693 C 94.65782 199.03689 96.89664 198.50083 101.5004 196.19895 C 103.58156 195.1899 105.44199 194.33852 105.66272 194.33852 C 106.04111 194.33852 108.18533 197.1134 110.8656 201.11804 C 114.46032 206.54166 120.2308 213.2581 121.20831 213.2581 C 121.36598 213.2581 121.71283 212.94279 121.99663 212.53286 C 122.53268 211.74455 122.28042 211.64995 125.55982 214.1095 C 126.75806 215.02394 128.93381 216.41138 130.38431 217.23123 L 133.00152 218.71326 L 132.81233 220.79442 C 132.6862 221.9296 132.497 224.9252 132.33934 227.4478 C 132.2132 229.97042 131.89788 232.42996 131.70869 232.96602 C 131.48796 233.47054 130.57351 234.60572 129.65906 235.48863 C 126.97879 238.01124 121.33444 248.66928 121.01912 251.82255 C 120.86145 253.4307 121.55517 255.79566 122.40655 256.48938 C 122.81648 256.83624 123.1318 256.6155 124.48771 255.165 L 126.09587 253.46224 L 126.47427 255.98486 C 126.695 257.3723 127.07339 258.98046 127.38871 259.5165 C 128.08243 260.87242 129.75366 262.76438 130.25818 262.76438 C 130.47891 262.76438 131.10956 261.5346 131.67715 260.05257 C 132.5916 257.62455 133.9475 255.41727 134.26283 255.8272 C 134.3259 255.9218 134.83042 258.2552 135.398 261.03008 C 136.69084 267.65194 138.80353 274.93598 141.32614 281.46324 C 143.06044 285.9724 143.3127 286.85532 142.99737 287.45444 C 142.77665 287.83283 140.34863 290.3239 137.60529 293.0042 C 131.96095 298.49087 129.2176 301.8964 126.94725 306.31097 C 123.16334 313.6896 121.8705 324.53684 125.18143 321.44664 C 126.222 320.46913 126.56886 320.6268 126.78959 322.2665 C 127.7671 329.992 130.38431 334.848 137.44763 342.069 C 139.65491 344.3078 141.45227 346.3259 141.45227 346.54663 C 141.45227 347.24035 132.56007 349.73143 127.60944 350.4567 C 125.74901 350.70894 123.69939 350.74047 120.98758 350.5828 C 112.7891 350.04676 111.52779 350.33055 108.34299 353.60995 C 107.39701 354.58746 105.82038 355.81723 104.84287 356.3848 C 101.53194 358.2137 99.32465 361.36698 98.97779 364.7725 C 98.85166 366.0338 98.91473 366.47527 99.35618 366.82213 C 99.82917 367.2005 100.01837 367.2005 100.90128 366.696 C 104.30681 364.6779 104.5906 364.7725 104.46447 368.11496 C 104.36988 371.7412 104.6852 371.96195 107.71234 370.00692 C 110.36108 368.30416 112.12691 367.5789 112.88369 367.8627 C 113.26208 368.02037 113.38821 368.49336 113.38821 370.07 C 113.38821 371.29976 113.54588 372.3088 113.82967 372.6872 C 114.27113 373.2863 114.30266 373.2863 115.18558 372.62413 C 119.25329 369.62853 120.1362 369.18707 121.90203 369.18707 C 122.84801 369.2186 124.61384 369.47087 125.81208 369.81773 C 128.65002 370.5745 130.69964 370.2592 135.05115 368.27263 C 140.34863 365.9077 144.35328 365.0563 156.43028 363.82652 C 164.97563 362.9436 165.76395 362.78595 167.56131 361.46158 C 170.52538 359.3489 171.0299 356.03796 169.26407 350.64588 C 168.0343 346.92502 167.9397 344.37088 168.88568 341.7852 C 170.11546 338.5058 174.2147 335.6994 178.15628 335.38407 C 179.95364 335.2264 180.17437 335.28947 181.6564 336.33005 C 182.53932 336.9607 184.30515 338.0013 185.59799 338.63194 C 188.5936 340.11397 191.4946 343.01497 193.60728 346.6097 C 195.3731 349.66836 196.50828 350.99273 198.62097 352.6955 C 200.16607 353.92527 200.73366 353.98834 200.73366 352.9793 C 200.73366 352.6955 200.89132 352.28557 201.08052 352.09638 C 201.36431 351.8126 202.08956 352.2225 204.01306 353.70454 C 205.43203 354.8082 207.89157 356.574 209.49974 357.6146 L 212.40074 359.5381 L 210.88717 361.36698 C 208.55376 364.1734 204.67524 367.5789 202.59409 368.7141 C 200.3868 369.8808 197.2966 370.60604 194.26947 370.60604 C 190.89547 370.63758 189.22424 371.55202 186.89083 374.76835 C 186.1971 375.74587 184.99887 376.91257 184.24208 377.35403 C 181.21495 379.11986 179.07073 382.5254 178.7554 385.994 C 178.62927 387.4445 178.69234 387.88594 179.10226 388.2328 C 179.54372 388.6112 179.82751 388.5166 181.30955 387.50755 C 182.224 386.8769 183.2961 386.37237 183.73756 386.37237 L 184.49434 386.37237 L 184.21055 388.9265 C 183.9583 390.9446 183.98982 391.7329 184.36821 392.7735 C 184.62047 393.4672 184.96733 394.09787 185.125 394.16094 C 185.3142 394.224 186.44937 393.40415 187.6476 392.33204 C 189.8549 390.3455 191.77839 389.27337 192.21984 389.74636 C 192.3775 389.8725 192.53517 391.19687 192.59824 392.6789 C 192.69283 395.4853 193.38655 397.25114 194.2064 396.90428 C 194.3956 396.8097 195.21545 395.98983 195.97223 395.1069 C 197.73806 393.02576 200.26067 391.10227 201.20665 391.10227 C 201.99497 391.10227 202.05803 391.2284 202.62562 393.9402 C 202.81481 394.8862 203.22474 395.98983 203.50853 396.39975 L 204.07612 397.125 L 206.0942 394.7285 C 208.4907 391.85905 210.1304 390.78694 212.14848 390.78694 C 215.8378 390.78694 218.3604 389.14724 221.16682 384.82727 C 223.3741 381.4848 227.25262 377.4171 233.1177 372.27727 C 240.68553 365.68695 242.92435 362.7544 243.20814 359.12816 C 243.39734 356.73168 243.01895 355.53344 240.59093 351.3396 C 238.38365 347.42955 238.25752 346.38897 239.80262 345.00153 C 240.3702 344.497 241.00086 344.15015 241.19005 344.2132 C 241.4423 344.2763 241.56844 345.2538 241.59998 346.9881 C 241.59998 348.4386 241.75764 349.8891 241.9153 350.2044 C 242.1991 350.70894 242.41983 350.5828 243.96493 348.9431 C 244.9109 347.90254 246.51907 345.5691 247.55965 343.7087 C 248.60023 341.84827 249.5462 340.3347 249.67234 340.3347 C 249.76693 340.3347 249.95613 341.43834 250.08226 342.7627 C 250.36605 346.4205 250.46065 346.7043 251.15437 346.35744 C 252.8256 345.443 256.105 340.30317 257.8393 335.794 C 259.79432 330.7803 259.73125 330.90644 260.01505 331.6632 C 260.14118 332.01008 260.42497 333.2714 260.61417 334.50116 C 260.8349 335.6994 261.18175 337.0553 261.40248 337.46523 L 261.8124 338.222 L 262.85298 336.83457 C 266.00625 332.5146 268.21353 325.92428 269.19105 317.8519 C 269.6325 314.38333 269.7271 314.38333 271.20914 318.10418 C 272.31278 320.9421 273.1957 322.6764 273.54255 322.6764 C 273.85788 322.6764 274.39393 321.5097 275.3399 318.76636 C 276.69582 314.79325 277.13728 311.8292 277.32647 304.7028 L 277.51567 297.92328 L 278.9031 300.28823 C 279.6599 301.58107 280.732 303.3469 281.26805 304.19828 L 282.21403 305.74338 L 282.59242 304.82893 C 284.13752 301.045 284.7051 292.12127 283.8222 284.9949 C 283.5384 282.56688 283.22308 280.23346 283.12848 279.792 L 282.93928 279.0037 L 283.79066 279.792 C 284.2952 280.23346 285.1781 281.27404 285.80875 282.15696 C 287.07006 283.95432 288.7413 285.7832 289.05662 285.7832 C 289.18275 285.7832 289.435 284.3327 289.65574 282.56688 C 290.2864 277.49012 289.6242 271.43585 287.63765 264.2464 C 287.1962 262.73284 286.94393 261.50307 287.03853 261.50307 C 287.13313 261.50307 288.39443 262.66978 289.87647 264.08875 C 292.46214 266.61136 292.55674 266.67442 293.02973 266.0753 C 293.40812 265.57078 293.4712 264.84553 293.31353 262.44905 C 292.9982 257.52996 291.3585 251.6964 288.58363 245.6106 C 287.48 243.1826 287.22772 242.26815 287.7007 242.26815 C 287.82684 242.26815 289.3404 243.40333 291.0747 244.79076 C 292.809 246.1782 294.3541 247.28184 294.5433 247.21878 C 295.14242 247.02958 295.04782 244.47544 294.38564 241.70056 C 293.02973 236.27695 290.72785 230.9164 287.1962 224.98826 C 286.2502 223.3801 285.5565 221.99266 285.6511 221.86653 C 285.87182 221.67733 287.2908 222.5287 290.94858 225.08286 C 293.02973 226.53336 293.21893 226.62796 293.59732 226.0919 C 293.94418 225.58738 293.91265 225.08286 293.282 222.78097 C 291.7369 217.07356 289.1512 211.58688 285.90335 207.10925 C 284.86277 205.7218 283.66453 204.05058 283.16 203.3884 C 282.68702 202.75774 282.40323 202.09555 282.52936 201.96942 C 282.6555 201.8433 284.45285 202.66314 286.534 203.73525 C 288.58363 204.8389 290.44405 205.6272 290.63325 205.50108 C 291.89456 204.7443 287.7953 196.10435 283.56994 190.58614 C 282.8447 189.64016 281.1104 187.59053 279.7545 186.04543 C 277.48413 183.4913 277.358 183.23903 278.17785 183.42822 C 278.68237 183.52282 280.8266 184.4688 282.9708 185.50938 C 287.07006 187.49594 287.66918 187.68513 287.95297 186.95988 C 288.1737 186.36076 285.7457 181.1894 283.9168 178.35147 C 281.8041 175.1036 277.98866 170.68903 274.86692 167.9457 C 273.32182 166.58979 272.2497 165.45461 272.47044 165.39155 C 272.97496 165.26542 274.58313 165.76994 279.53376 167.50423 C 281.5203 168.19795 283.22308 168.734 283.28614 168.63941 C 283.50687 168.41868 281.1104 164.1933 279.6599 162.26981 C 276.50662 158.04444 271.14607 153.3776 265.40713 149.90902 L 262.7584 148.30085 L 264.14582 148.30085 C 264.9026 148.30085 267.9928 148.67924 270.9884 149.1207 C 273.984 149.59369 276.50662 149.87748 276.63275 149.78288 C 276.9796 149.4045 275.05612 146.94495 272.31278 144.2016 C 269.19105 141.04834 265.6594 138.62033 260.80336 136.25538 C 258.9114 135.34093 257.2717 134.55261 257.20864 134.52108 C 256.73565 134.23729 257.96542 134.04809 262.12773 133.82736 C 264.74494 133.6697 267.1099 133.41744 267.3937 133.25977 C 268.52886 132.62912 261.93854 127.3947 256.92485 124.93515 C 254.24457 123.61078 247.49658 121.18277 246.48754 121.18277 C 246.04608 121.15124 246.04608 121.1197 246.51907 120.83591 C 246.8344 120.67825 248.91555 120.26832 251.1859 119.92146 C 256.95638 119.07008 257.52397 118.94395 257.39784 118.53403 C 257.14557 117.77724 253.42472 115.09697 250.7129 113.7726 C 247.74884 112.29056 242.23063 110.71393 238.7305 110.304 C 235.6403 109.95715 235.4511 109.86255 236.71242 109.16883 C 237.31154 108.8535 239.42422 107.93906 241.41078 107.15074 C 243.39734 106.36242 245.22623 105.60564 245.4785 105.44798 C 246.1722 105.00652 240.52787 102.42084 237.1854 101.63253 C 233.74835 100.81268 228.60852 100.37122 225.0138 100.56042 L 222.33353 100.71808 L 223.05878 100.08743 C 223.4687 99.74057 225.61292 98.51079 227.88327 97.37562 C 230.1221 96.24044 231.95099 95.16833 231.95099 95.01067 C 231.95099 94.69534 229.1761 93.62323 226.43277 92.86645 C 223.7525 92.1412 216.05853 92.17273 212.2746 92.92951 C 210.76104 93.21331 209.43667 93.4025 209.34207 93.33944 C 209.21594 93.18177 210.09886 92.48806 215.39634 88.42034 C 216.37386 87.66356 217.06757 86.93831 216.9099 86.78065 C 216.78378 86.65452 215.33328 86.37072 213.7251 86.18153 C 209.02675 85.64547 203.54007 86.49685 197.4858 88.70414 C 196.09836 89.24019 194.90012 89.65012 194.83705 89.65012 C 194.3956 89.65012 195.18391 88.60954 197.73806 85.89773 C 199.37776 84.1319 200.73366 82.55527 200.73366 82.366075 C 200.73366 81.98768 196.41369 81.98768 194.36406 82.42914 C 191.6838 82.9652 187.86834 84.25803 184.68354 85.74007 C 183.04384 86.49685 181.6564 87.06444 181.59334 87.00137 C 181.37261 86.81218 182.28706 85.17248 183.80063 82.9652 C 185.75565 80.15879 185.81872 79.875 184.52588 79.875 C 181.62487 79.875 176.0436 81.98768 171.28216 84.88869 C 170.08392 85.61394 169.04334 86.14999 168.98028 86.08693 C 168.91721 85.99233 169.07488 85.33014 169.35867 84.57336 C 170.9353 80.28492 170.87224 80.44258 170.43078 80.15879 C 169.83166 79.7804 169.64247 79.81193 167.68744 80.50565 Z" fill="black"/>
        </g>
        <g id="Graphic_141">
          <path d="M 150.91207 111.9437 C 150.91207 112.25903 150.62828 112.92121 150.28142 113.45727 C 149.71383 114.30865 149.43004 115.82222 149.80843 115.82222 C 149.90303 115.82222 151.2274 115.19157 152.74096 114.43478 C 155.20051 113.20501 158.16458 112.1329 160.78179 111.59684 C 161.7593 111.37611 161.98003 112.00677 161.12865 112.70049 C 160.62413 113.11041 159.61508 114.87624 159.80428 115.0339 C 159.86734 115.09697 161.53857 114.78164 163.52513 114.37172 C 165.51169 113.96179 167.59284 113.61493 168.1289 113.61493 C 169.54787 113.61493 171.09297 113.96179 171.09297 114.27712 C 171.09297 114.43478 170.36772 115.06543 169.51633 115.69609 C 166.61533 117.77724 166.70993 117.90337 171.72362 117.90337 C 174.1201 117.87184 176.16972 117.96644 176.29585 118.09257 C 176.64271 118.43943 175.82287 119.38541 174.0255 120.77284 C 172.6696 121.81342 172.3858 122.16028 172.79573 122.31794 C 174.4039 122.91707 178.25088 121.05664 182.25553 117.74571 C 183.9583 116.32674 186.22864 114.71858 187.30075 114.15099 C 189.09811 113.20501 189.41344 113.14194 192.53517 113.14194 C 195.5623 113.14194 196.00376 113.23654 197.51733 114.02486 C 203.44547 117.14659 205.14823 123.64232 201.80577 130.2957 C 199.72462 134.45802 194.774 138.0212 189.22424 139.34558 C 186.41784 140.00776 185.59799 140.32309 185.59799 140.70148 C 185.59799 140.85914 186.60703 142.08892 187.8368 143.41329 C 189.03505 144.73766 190.01256 145.96743 189.91796 146.18816 C 189.8549 146.37736 189.31884 146.69268 188.71972 146.81882 C 186.8593 147.2918 185.91331 147.73326 185.91331 148.11165 C 185.91331 148.30085 186.41784 149.24683 187.01696 150.1928 C 187.61608 151.13879 188.026 151.99017 187.86834 152.1163 C 187.7422 152.24243 186.73316 152.62082 185.59799 152.99921 C 184.46281 153.3776 183.2015 153.9452 182.79158 154.26052 L 182.00326 154.85964 L 183.23304 155.96328 L 184.43128 157.06693 L 182.94924 157.9183 C 180.7735 159.21115 178.12475 159.90487 174.08857 160.31479 C 170.17852 160.72471 169.89473 160.91391 171.3137 162.17522 L 172.13354 162.90047 L 171.2191 163.40499 C 170.49385 163.81491 169.2956 163.90951 165.10176 163.87798 C 158.73217 163.84645 156.61948 163.43652 146.74976 160.31479 C 142.87124 159.08502 135.83946 157.0354 131.07803 155.74256 C 122.0597 153.283 120.95605 152.77849 120.95605 151.23339 C 120.95605 150.53967 121.05065 150.50814 123.76246 150.50814 C 125.30756 150.50814 128.71308 150.35047 131.29876 150.16128 C 136.56471 149.81442 137.76295 150.03515 138.772 151.58025 C 139.46572 152.65236 139.87564 152.33703 139.87564 150.7604 C 139.87564 149.75135 139.65491 149.27836 138.83506 148.45851 C 137.25843 146.88188 136.09172 146.72422 127.8617 146.75575 C 117.3298 146.85035 114.20806 146.15663 109.44663 142.78264 C 107.30241 141.23754 106.29337 139.8501 106.6087 138.87259 C 106.70329 138.55726 107.33395 137.9266 108.02766 137.48515 C 110.07729 136.09771 110.89714 134.74181 111.18093 132.18766 C 111.43319 129.88578 111.65392 129.50739 113.07289 129.19206 C 121.7759 127.2055 123.88859 126.10186 129.02841 120.96204 C 132.3078 117.71418 134.83042 115.75915 138.33054 113.80413 C 140.34863 112.70049 141.45227 112.38516 141.45227 112.95275 C 141.45227 113.11041 141.16848 113.89873 140.79009 114.71858 C 140.44323 115.50689 140.19097 116.26368 140.28557 116.32674 C 140.38016 116.42134 141.42074 115.85375 142.58745 115.09697 C 145.2362 113.3942 147.19122 112.38516 148.86245 111.8491 C 150.59674 111.31305 150.91207 111.31305 150.91207 111.9437 Z" fill="#FFFFFF"/>
        </g>
        <g id="Graphic_140">
          <path d="M 201.26972 140.89068 C 202.15263 141.14294 203.1932 141.61593 203.5716 141.93125 C 204.23378 142.46731 204.23378 142.49884 201.9319 143.16103 C 199.37776 143.91781 198.05338 144.6746 198.8417 144.92686 C 199.09396 145.02145 200.51293 145.46291 201.99497 145.9359 C 203.477 146.40889 205.52662 147.22874 206.53567 147.73326 C 208.74295 148.8369 211.7701 150.82346 211.7701 151.13879 C 211.7701 151.42258 210.1304 151.76944 208.71142 151.76944 C 208.14383 151.76944 207.1348 151.99017 206.4726 152.27396 L 205.3059 152.74695 L 207.19785 153.756 C 209.90966 155.2065 212.4638 156.97233 214.35577 158.64356 C 216.09006 160.2202 218.51808 163.1212 218.26581 163.34192 C 218.20275 163.43652 217.0045 163.24733 215.61707 162.96353 C 213.25212 162.49054 208.74295 162.26981 208.3961 162.58514 C 208.33303 162.67974 209.6574 163.78338 211.36016 165.07622 C 214.95489 167.7565 218.51808 171.22509 220.0947 173.59004 C 220.72536 174.47295 221.16682 175.26127 221.13529 175.32433 C 221.07222 175.35586 219.62172 175.13514 217.88742 174.78828 C 213.66205 173.96843 210.9187 173.7477 209.43667 174.06303 L 208.17537 174.34682 L 211.80162 176.33338 C 217.69823 179.58124 221.16682 182.5453 223.5633 186.3923 C 224.0363 187.14908 224.35162 187.8428 224.25702 187.9374 C 224.16242 188.032 223.05878 187.6536 221.829 187.11754 C 220.5677 186.54996 218.8334 186.0139 217.9505 185.9193 L 216.34232 185.7301 L 218.6442 188.22119 C 222.64885 192.50963 225.4868 196.67194 227.06342 200.42432 C 227.56795 201.62256 227.56795 201.62256 226.87423 201.2757 C 226.49584 201.05498 225.32913 200.32973 224.28855 199.66754 C 223.24797 199.00535 222.14433 198.43777 221.79747 198.43777 C 221.29295 198.43777 221.32448 198.59543 222.14433 200.07746 C 224.32008 203.95598 225.70752 208.46515 226.30664 213.3527 C 226.68503 216.56904 226.43277 221.29894 225.92825 220.95208 C 225.77059 220.85748 225.203 219.97457 224.69848 218.96552 C 223.78403 217.13663 222.33353 215.15007 221.89207 215.15007 C 221.76594 215.15007 221.76594 216.09605 221.9236 217.26276 C 222.55425 222.18185 222.14433 229.5605 221.19835 230.12808 C 221.0407 230.2542 220.6623 229.87582 220.34697 229.33976 C 220.06318 228.77218 219.55865 227.98386 219.2118 227.5424 C 218.48654 226.5649 218.07662 227.03788 218.07662 228.8983 C 218.07662 229.59203 217.79282 231.2948 217.44597 232.6507 C 216.62612 235.8355 214.0089 241.1645 213.50438 240.66 C 213.44132 240.5654 213.2206 239.4302 213.0314 238.13737 C 212.4638 234.1958 212.21155 233.88047 211.26557 236.0247 C 210.19346 238.51577 208.33303 241.19604 206.40954 243.02494 C 205.33743 244.0655 204.35991 244.7277 204.17072 244.60157 C 203.91846 244.47544 203.88693 243.78172 204.01306 242.55195 C 204.29685 240.187 203.8554 239.93474 201.7427 241.2591 C 198.05338 243.52946 192.34597 244.7277 187.17462 244.31777 C 182.85465 244.00245 179.323 243.30873 170.9353 241.1645 C 166.61533 240.06087 162.38996 239.08335 161.60164 238.95722 C 159.55202 238.6419 159.1421 238.3581 159.83581 237.60132 C 160.52953 236.84454 160.52953 236.27695 159.86734 236.27695 C 158.79523 236.27695 154.69599 238.5473 153.05629 240.02933 C 151.95265 241.03838 150.78594 242.615 149.65076 244.66463 C 147.79034 247.94403 145.11006 251.0973 144.16408 251.0973 C 143.84876 251.0973 143.0289 250.6243 142.36672 250.02518 C 141.70454 249.42606 140.66396 248.82694 140.06484 248.7008 C 139.02426 248.51162 138.9612 248.41702 139.15039 247.66024 C 139.24499 247.21878 139.97024 245.92594 140.72702 244.79076 C 141.4838 243.6556 141.9568 242.7096 141.79913 242.64654 C 141.23155 242.45735 139.02426 243.81325 137.88909 245.07456 C 136.65931 246.43046 135.93406 247.9125 135.5872 249.67833 L 135.398 250.78197 L 134.0421 249.363 C 133.28532 248.60621 132.3078 247.88096 131.86635 247.75483 C 130.60504 247.4395 130.82577 246.39893 132.7808 243.52946 C 133.72678 242.14202 134.51509 240.91225 134.51509 240.84918 C 134.51509 240.3762 133.34838 240.88072 131.51949 242.1105 C 128.80768 243.97092 128.27163 243.68712 129.34374 241.00685 C 129.91132 239.58788 131.39336 238.2635 141.29461 230.28574 C 144.60554 227.637 147.91647 225.17745 148.67325 224.8306 C 149.80843 224.32607 151.19586 224.1684 155.7681 223.94768 C 165.1333 223.50622 169.674 222.56024 180.0167 218.90246 C 184.62047 217.26276 188.5936 216.41138 191.65226 216.41138 C 194.774 216.41138 192.9451 215.087 189.00351 214.51942 C 185.18806 213.9203 185.34573 213.98336 184.96733 212.659 C 184.39975 210.48324 184.08442 204.52357 184.36821 201.14957 C 184.68354 197.58638 185.72412 193.5502 187.17462 190.33387 C 187.71067 189.1987 188.05753 188.18965 187.96294 188.09506 C 187.67914 187.81126 186.1971 189.0095 185.25113 190.33387 C 182.28706 194.40159 180.7735 199.16302 180.14284 206.4786 L 180.07977 207.42457 L 179.51219 206.41553 C 179.2284 205.84794 178.81847 204.30284 178.59774 202.94694 C 178.40854 201.59103 178.15628 200.36126 178.03015 200.23513 C 177.90402 200.07746 177.62023 200.70812 177.3995 201.62256 C 176.67425 204.61817 177.55716 209.6634 179.29146 212.4698 C 180.55276 214.51942 180.33203 214.70861 173.86784 216.85283 C 168.09737 218.77633 162.86295 219.78537 155.7681 220.32143 C 148.0426 220.92055 145.89838 221.67733 141.73607 225.33512 C 138.89813 227.79466 137.3215 228.9929 136.78544 229.02444 C 136.37552 229.02444 136.40705 228.51992 137.2269 221.29894 C 138.20441 212.97432 140.4117 205.21729 143.75416 198.43777 C 144.82627 196.26201 145.77225 194.40159 145.80378 194.24392 C 145.99298 193.834 144.7632 194.0232 144.03795 194.52772 C 143.65956 194.77998 143.0289 194.96917 142.68205 194.9061 C 142.08293 194.8115 142.33519 194.27546 145.07853 189.76629 C 146.7813 186.99141 148.98858 183.1129 149.99762 181.15787 L 151.82652 177.59468 L 152.33104 178.5722 C 152.5833 179.07672 152.9617 180.68488 153.15089 182.10385 C 153.65541 185.76164 153.87614 186.04543 154.56986 183.77508 C 155.26358 181.4732 155.35817 176.68024 154.72752 174.15762 C 154.5068 173.21164 153.81307 171.35122 153.21395 170.05838 C 152.64637 168.76554 152.23644 167.53577 152.2995 167.31504 C 152.70943 166.306 154.69599 167.09431 159.0475 169.96378 C 160.498 170.90976 161.7593 171.60348 161.88543 171.47735 C 162.01156 171.35122 161.69624 170.5629 161.22325 169.71152 C 160.75026 168.8286 160.43493 168.00876 160.498 167.88263 C 160.5926 167.7565 162.61068 167.53577 165.00717 167.44117 C 171.56596 167.15738 176.80038 165.6438 177.43103 163.81491 C 177.6833 163.0266 178.03015 162.80587 179.70138 162.36441 C 182.06633 161.70223 185.4088 159.96793 186.82776 158.6751 C 187.67914 157.9183 187.8368 157.53992 187.7422 156.78313 C 187.55301 155.5849 187.80527 155.42723 190.32788 155.23803 C 192.72437 155.04884 192.7559 154.89117 191.36846 152.2109 C 190.20175 149.94055 190.45402 149.43603 192.72437 149.65675 C 194.08027 149.78288 194.4902 149.71982 194.64786 149.37296 C 194.86859 148.7423 194.0172 146.59809 192.8505 144.83226 C 191.6838 143.09796 191.6838 142.78264 192.72437 142.08892 C 195.12085 140.54382 198.4633 140.07083 201.26972 140.89068 Z" fill="#FFFFFF"/>
        </g>
        <g id="Graphic_139">
          <path d="M 112.12691 178.16227 C 118.02351 181.12634 121.42904 182.57684 126.6004 184.40574 C 132.81233 186.5815 136.43858 187.71666 137.3215 187.71666 C 137.88909 187.71666 137.73142 187.11754 136.88004 186.0139 C 136.43858 185.44631 136.09172 184.8472 136.09172 184.658 C 136.09172 184.3742 143.53343 180.65335 144.60554 180.40109 C 145.80378 180.14883 145.17313 181.88312 142.36672 186.67609 C 140.72702 189.41943 138.29901 193.86553 136.9431 196.5458 C 135.5872 199.22608 134.29436 201.43337 134.10517 201.43337 C 133.88444 201.43337 133.63218 200.67658 133.53758 199.60447 C 133.41145 198.59543 133.25379 197.68098 133.12765 197.58638 C 132.7808 197.23953 132.11861 198.1855 131.74022 199.57294 C 131.51949 200.2982 131.17263 200.96038 130.92037 201.05498 C 130.69964 201.14957 129.56447 200.73965 128.39776 200.14053 C 127.26258 199.5414 126.3166 199.19455 126.3166 199.35221 C 126.3166 199.5414 126.94725 200.42432 127.70404 201.3703 C 128.46082 202.28475 129.24914 203.35686 129.43833 203.73525 C 129.75366 204.33437 129.72213 204.3659 128.90228 204.14518 C 127.45178 203.70372 124.39311 202.0325 121.74437 200.2036 C 120.35693 199.25761 119.19022 198.53236 119.09562 198.59543 C 118.71723 199.00535 121.4921 202.60008 124.80303 206.03714 C 126.88419 208.18136 128.42929 209.97872 128.2401 210.04178 C 127.70404 210.23098 126.06434 209.1904 123.73092 207.1723 C 122.46962 206.1002 120.57766 204.77583 119.53708 204.2713 C 117.77125 203.3884 117.3298 202.9154 113.32515 197.64945 C 110.9602 194.52772 108.75291 191.65825 108.46912 191.27985 C 107.99613 190.61767 107.99613 190.49154 108.78445 189.16717 C 109.2259 188.37885 109.47817 187.68513 109.35204 187.59053 C 108.65832 187.1806 106.29337 188.22119 104.7798 189.60862 C 103.1401 191.09066 102.03646 191.8159 101.43734 191.8159 C 100.74362 191.8159 98.56787 189.54556 98.56787 188.8203 C 98.56787 188.44192 98.91473 187.33827 99.32465 186.42383 C 99.73458 185.47785 100.1445 184.40574 100.27063 183.99581 C 100.61749 182.89217 99.70304 183.1129 98.12641 184.5634 C 96.54978 186.0139 95.66686 186.17156 95.16234 185.0364 C 94.84702 184.34267 94.72088 184.31114 93.83797 184.59493 C 93.30192 184.78413 92.19827 185.79317 91.28383 186.86528 C 89.20267 189.3879 88.91888 189.51403 87.05845 188.69418 C 86.2386 188.31578 85.38722 188.032 85.16649 188.032 C 84.94576 188.032 84.44124 187.77973 84.06285 187.4644 C 83.0538 186.64455 83.40066 185.47785 85.45029 182.76604 C 86.39626 181.50473 87.05845 180.43262 86.96385 180.33802 C 86.61699 179.95963 85.13496 180.14883 84.37818 180.68488 C 82.77001 181.72546 81.760965 182.86064 80.87805 184.62646 C 80.37353 185.60398 79.83747 186.4869 79.67981 186.5815 C 79.52215 186.67609 79.04916 186.4869 78.670765 186.17156 L 77.91398 185.57244 L 78.76536 183.83815 C 79.77441 181.78853 81.28798 179.99116 82.54928 179.32898 C 83.0538 179.07672 85.41875 178.2884 87.7837 177.62622 C 90.14865 176.9325 93.68031 175.86039 95.57227 175.26127 C 98.56787 174.31529 99.38772 174.18916 101.72113 174.25222 L 104.43294 174.31529 L 112.12691 178.16227 Z" fill="#FFFFFF"/>
        </g>
        <g id="Graphic_138">
          <path d="M 165.10176 243.7502 C 167.43518 244.3493 171.5029 245.38988 174.08857 246.05207 C 176.70578 246.71426 180.36357 247.47104 182.224 247.75483 C 186.41784 248.3855 192.6613 248.41702 195.21545 247.8179 C 196.25602 247.56564 197.202 247.4395 197.32813 247.50257 C 197.70653 247.75483 197.0128 248.89 195.7515 250.21438 C 195.05778 250.97116 194.74246 251.50722 194.90012 251.6964 C 195.34158 252.10634 199.09396 251.57028 200.98592 250.8135 C 201.86884 250.46664 203.60313 249.67833 204.8329 249.04767 C 206.03115 248.44855 207.0402 248.0071 207.0402 248.1017 C 207.0402 248.57468 205.24283 251.72795 204.17072 253.20998 C 203.477 254.12443 202.94095 254.94428 202.94095 255.03888 C 202.94095 255.3542 204.45451 255.19654 205.62122 254.69202 C 206.25187 254.43976 206.88253 254.2821 206.97712 254.40822 C 207.22939 254.66048 206.34647 256.17405 204.35991 258.8228 C 202.05803 261.94453 202.1211 261.84993 203.31934 261.59767 C 204.48605 261.37694 206.2834 260.52556 208.04924 259.35885 C 208.71142 258.9174 209.34207 258.6336 209.40514 258.7282 C 209.78353 259.1066 206.5672 264.7194 204.5491 267.242 C 202.62562 269.6385 202.43642 270.0169 203.03554 270.0169 C 204.13919 270.0169 207.38705 268.34565 209.40514 266.70596 C 210.44572 265.8861 211.4863 265.03473 211.70702 264.87706 C 212.02235 264.6248 212.05388 264.7194 211.80162 265.31852 C 210.41418 268.8817 209.1844 270.9944 205.99961 275.37744 C 204.10765 277.9631 203.91846 278.37304 204.45451 278.46764 C 204.80137 278.5307 205.90501 278.21537 206.91406 277.77392 C 207.95464 277.364 208.80602 277.04867 208.86908 277.11173 C 209.15288 277.364 206.851 281.36864 205.2113 283.5444 C 202.59409 286.98145 202.62562 286.85532 204.07612 286.60306 C 204.7383 286.47693 206.1888 285.8778 207.26092 285.2787 C 209.81506 283.85972 210.09886 283.89125 210.31959 285.53095 C 210.47725 286.7292 211.7701 298.9008 211.7701 299.21612 C 211.7701 299.81524 212.9368 298.93233 214.98642 296.75657 C 216.34232 295.3376 217.50903 294.2655 217.60363 294.3601 C 217.9505 294.70695 219.05413 300.4459 219.62172 305.04966 C 219.96858 307.66687 220.31544 309.9057 220.41003 310.0003 C 220.69383 310.2841 221.829 309.11737 223.3741 306.94162 L 224.8246 304.892 L 225.2976 306.31097 C 225.5814 307.1939 225.80212 309.68496 225.86518 313.12202 C 225.95978 316.11762 226.11744 318.57717 226.2751 318.57717 C 226.52737 318.57717 228.4824 316.4645 229.86983 314.6356 L 230.78428 313.43735 L 231.0996 314.19413 C 231.3834 314.9509 231.1942 323.37013 230.8158 325.60895 C 230.50048 327.3117 231.22573 327.15405 233.62222 324.8837 C 234.7574 323.84312 235.76644 322.99174 235.89257 322.99174 C 236.42862 322.99174 235.57724 326.93332 234.12674 331.28483 C 233.27536 333.83897 232.58164 336.01473 232.58164 336.0778 C 232.58164 336.51925 233.65375 336.10932 234.53666 335.321 C 235.57724 334.4381 236.74395 333.71284 237.15387 333.71284 C 237.59533 333.71284 236.93314 336.04626 235.7349 338.695 C 234.5682 341.37528 234.31593 341.62754 233.18076 341.15455 C 231.7618 340.55543 232.61317 344.8754 234.7574 349.25844 C 235.6403 351.02427 236.93314 353.51535 237.62686 354.77665 C 239.23503 357.7092 239.32963 359.41195 237.97372 361.4931 C 236.96468 363.06974 232.96003 366.9798 227.47335 371.8043 C 223.15338 375.55667 220.15777 378.93066 218.70727 381.70554 C 217.41443 384.13355 216.72071 385.07953 215.61707 385.8048 C 214.22963 386.71923 213.18906 386.53003 212.40074 385.26873 C 212.02235 384.6696 211.13943 383.6921 210.41418 383.06144 L 209.08981 381.9578 L 210.225 380.9172 C 210.8241 380.38117 211.61242 379.7505 211.95928 379.5298 C 212.4638 379.21446 212.49534 379.11986 212.08541 378.80453 C 211.51783 378.3946 209.53127 378.64687 208.33303 379.246 C 207.0402 379.9397 205.84195 381.2641 205.43203 382.5254 C 204.95904 383.9759 204.58064 384.4804 203.91846 384.4804 C 203.3824 384.4804 200.41833 381.5794 200.41833 381.04335 C 200.41833 380.66496 201.61657 379.719 203.6662 378.45767 C 205.68429 377.2279 205.5897 376.81798 203.35087 376.97564 C 201.04899 377.1333 198.7471 378.2685 197.45426 379.8451 C 196.28756 381.2956 195.12085 381.3587 194.64786 379.97124 C 194.23793 378.70994 194.99472 377.7009 196.9182 377.07024 C 198.87323 376.4396 199.53542 375.74587 198.4633 375.52514 C 198.08492 375.43054 197.04434 375.3044 196.16143 375.27288 C 194.99472 375.2098 194.5848 375.05215 194.5848 374.7053 C 194.5848 374.3269 195.15238 374.20077 197.1074 374.0431 C 202.94095 373.60165 205.33743 372.27727 211.7701 366.00228 L 216.65765 361.24085 L 219.43252 361.0832 C 221.60828 360.9255 222.55425 360.7048 223.97322 360.01107 C 226.52737 358.71823 226.49584 358.3083 223.91016 358.3083 C 216.34232 358.3083 205.65275 351.4342 199.63002 342.7312 C 198.96783 341.75367 198.30565 341.05995 198.17952 341.15455 C 198.02185 341.24915 197.7696 341.8798 197.5804 342.542 C 197.04434 344.56007 196.44522 344.15015 194.74246 340.55543 C 191.84145 334.50116 190.32788 328.50995 190.32788 323.08634 C 190.32788 319.42855 189.44497 319.23935 187.96294 322.5503 C 186.70163 325.38822 186.41784 325.10443 186.63856 321.38358 C 187.20615 311.92378 190.51708 303.78836 196.69748 296.47278 C 199.0309 293.72944 199.06243 293.63484 197.8642 293.9817 C 195.15238 294.77 190.95854 298.617 188.2152 302.8739 C 184.05289 309.30657 181.87713 318.4195 182.76005 325.7351 C 183.2015 329.36134 183.23304 330.4965 182.94924 330.7803 C 182.85465 330.8749 182.0348 330.5911 181.12035 330.14965 C 173.07952 326.145 158.16458 306.12177 148.2318 285.94087 C 143.37577 276.1027 141.01082 269.5439 140.6009 264.75093 C 140.44323 262.76438 140.47476 262.44905 140.91622 262.44905 C 141.79913 262.44905 142.33519 261.1562 142.36672 258.85433 C 142.39825 256.111 142.77665 255.48033 145.39386 254.25056 C 147.63267 253.17845 148.57865 252.13787 152.14184 246.99805 C 155.79963 241.70056 156.46182 241.5429 165.10176 243.7502 Z" fill="#FFFFFF"/>
        </g>
        <g id="Graphic_137">
          <path d="M 146.24524 292.6258 C 146.4975 292.94112 147.31735 294.32856 148.07413 295.716 C 150.21835 299.65758 151.98418 302.55858 155.89423 308.42366 C 157.88079 311.41926 159.42589 313.94187 159.33129 314.068 C 159.20516 314.1626 158.3853 313.595 157.5024 312.74363 C 156.65101 311.92378 155.83116 311.32466 155.7681 311.41926 C 155.16898 311.98684 159.55202 318.38797 162.73681 321.63584 C 163.99812 322.89714 164.91257 323.93772 164.81797 323.93772 C 164.37651 323.93772 160.81332 321.66737 159.0475 320.27993 C 157.53393 319.0817 157.2186 318.95556 157.2186 319.4601 C 157.2186 319.7754 157.62853 320.68986 158.16458 321.44664 C 158.6691 322.20342 159.11056 323.0548 159.11056 323.3386 C 159.11056 323.59086 158.60604 324.3161 157.97538 324.91523 C 156.80868 326.01887 155.42124 328.3523 155.92576 328.3523 C 156.08343 328.3523 157.25013 327.6901 158.5745 326.9018 C 160.5926 325.672 161.03405 325.51435 161.60164 325.79815 C 161.98003 326.01887 162.26382 326.30267 162.26382 326.49186 C 162.26382 326.68106 161.50704 327.5009 160.5926 328.3523 C 158.73217 330.05505 157.47086 332.26234 156.74561 335.2264 C 156.02036 338.0328 156.65101 338.85266 157.72312 336.4877 C 158.4799 334.78495 161.38091 331.78935 163.17827 330.8749 L 164.5657 330.1812 L 163.46207 331.69475 C 161.16018 334.87955 159.70968 338.695 159.77275 341.596 C 159.80428 344.33935 160.1196 344.33935 161.38091 341.65907 C 162.51609 339.2626 164.9441 336.23545 165.76395 336.23545 C 166.17387 336.23545 166.07928 336.64538 164.91257 339.3887 C 164.21885 340.9969 163.99812 342.069 163.90352 344.43394 C 163.7774 347.2088 163.87199 347.6818 164.91257 350.92967 C 166.2054 354.9028 166.3 356.32175 165.41709 357.4254 C 164.40805 358.74977 162.61068 359.22276 156.8402 359.7273 C 144.98393 360.7994 139.52878 361.90303 134.83042 364.1734 C 131.3303 365.87615 128.74462 366.3176 127.42024 365.4347 C 126.47427 364.80404 125.33909 362.69135 125.30756 361.43004 C 125.27602 360.20027 125.81208 359.6327 127.51484 359.1597 C 128.30316 358.90743 128.99688 358.5921 129.05994 358.4029 C 129.24914 357.8353 127.16798 357.20467 125.21296 357.2362 C 123.28947 357.26773 121.8705 357.8038 119.34789 359.475 C 117.89738 360.421 116.8568 360.3264 116.22615 359.1597 C 115.7847 358.3083 115.7847 358.24524 116.50995 357.64612 C 116.98294 357.26773 117.70819 357.047 118.5911 357.047 C 120.26233 357.047 121.6813 356.5425 121.52364 356.00643 C 121.42904 355.81723 120.19927 355.34424 118.71723 354.96585 L 116.06849 354.3352 L 122.0597 354.3352 C 128.90228 354.36673 130.66811 354.08293 138.5828 351.78105 C 144.47941 350.0783 146.46597 349.82603 148.57865 350.55128 C 149.3985 350.83507 150.34448 351.0558 150.65981 351.0558 C 151.38506 351.0558 151.38506 350.23595 150.69134 349.82603 C 149.8715 349.4161 137.60529 336.3931 136.06019 334.3435 C 134.3259 332.0416 132.46547 328.32076 131.64562 325.4513 C 131.1411 323.68546 130.9519 322.04576 130.8573 318.26184 L 130.69964 313.3743 L 129.84826 313.4058 C 128.61849 313.43735 128.49235 312.9959 129.2176 311.19853 C 130.19512 308.6444 131.80328 305.93258 134.1367 302.93697 C 136.65931 299.65758 144.41634 292.08974 145.20466 292.08974 C 145.51999 292.08974 145.99298 292.342 146.24524 292.6258 Z" fill="#FFFFFF"/>
        </g>
        <g id="Group_63">
          <g id="Graphic_136">
            <path d="M 174.87689 88.98793 C 174.87689 90.46997 173.80478 91.47901 171.4083 92.20426 C 168.28656 93.15024 167.90817 92.96105 169.3902 91.28982 C 170.55691 90.02851 173.61558 88.10502 174.4985 88.07349 C 174.71922 88.07349 174.87689 88.45188 174.87689 88.98793 Z" fill="#FFFFFF"/>
          </g>
          <g id="Graphic_135">
            <path d="M 189.3819 88.83027 C 189.3819 89.36632 187.0485 93.3079 186.1025 94.31695 C 185.75565 94.72687 184.90427 95.35753 184.24208 95.67285 C 183.0123 96.30351 176.1382 97.97474 175.88593 97.69094 C 175.5706 97.37562 177.52563 95.26293 179.98518 93.3079 C 182.53932 91.25828 187.71067 88.38881 188.81432 88.38881 C 189.12964 88.38881 189.3819 88.57801 189.3819 88.83027 Z" fill="#FFFFFF"/>
          </g>
          <g id="Graphic_134">
            <path d="M 163.0206 91.10062 C 162.98908 94.19082 161.19171 97.72248 158.98443 99.07838 C 157.34473 100.11896 157.09247 99.99283 157.3132 98.1324 C 157.66006 95.16833 161.31785 88.83027 162.51609 89.08253 C 162.95754 89.17713 163.05214 89.55552 163.0206 91.10062 Z" fill="#FFFFFF"/>
          </g>
          <g id="Graphic_133">
            <path d="M 201.90037 94.63228 C 198.8417 98.25853 195.97223 100.87574 194.6794 101.25413 C 194.1118 101.44333 192.62977 101.66406 191.36846 101.75866 C 190.1387 101.85325 188.08907 102.16858 186.82776 102.42084 C 185.56645 102.70464 184.46281 102.83077 184.36821 102.70464 C 184.08442 102.42084 188.05753 98.76305 190.20175 97.31255 C 194.86859 94.15929 200.22914 91.8574 202.87788 91.8574 L 204.23378 91.8574 L 201.90037 94.63228 Z" fill="#FFFFFF"/>
          </g>
          <g id="Graphic_132">
            <path d="M 152.42564 94.60074 C 152.5833 94.91607 152.80403 96.30351 152.93016 97.69094 C 153.02476 99.07838 153.27702 101.2226 153.46622 102.48391 C 153.90767 105.19571 153.71848 106.1417 152.64637 106.61468 C 151.25893 107.24534 150.31295 107.08767 149.96609 106.17323 C 149.24084 104.3128 149.90303 96.55577 150.9436 94.63228 C 151.322 93.90703 152.07878 93.90703 152.42564 94.60074 Z" fill="#FFFFFF"/>
          </g>
          <g id="Graphic_131">
            <path d="M 219.18026 97.06029 C 219.14873 97.62788 213.97737 101.28567 212.68453 101.69559 C 211.61242 102.01092 210.95024 101.97938 208.83755 101.53793 C 207.41858 101.25413 205.5897 101.00187 204.76984 101.00187 C 202.46796 101.00187 202.84635 100.30815 205.77888 99.14145 C 208.1123 98.227 212.18 97.12336 214.45036 96.80803 C 216.1216 96.55577 219.18026 96.74496 219.18026 97.06029 Z" fill="#FFFFFF"/>
          </g>
          <g id="Graphic_130">
            <path d="M 167.56131 98.54233 C 167.30905 98.95225 166.2054 100.84421 165.1333 102.79923 C 164.06119 104.72273 162.95754 106.48855 162.67375 106.74081 C 162.07463 107.24534 159.17362 107.93906 158.5745 107.71833 C 158.00692 107.4976 158.03845 107.2138 158.8583 105.51104 C 159.83581 103.46142 163.14674 100.05589 165.3225 98.85765 C 167.59284 97.62788 168.19196 97.53328 167.56131 98.54233 Z" fill="#FFFFFF"/>
          </g>
          <g id="Graphic_129">
            <path d="M 143.91182 98.95225 C 145.67765 100.43428 146.2137 102.42084 145.51999 104.84886 C 144.70014 107.81293 142.71358 105.06958 142.46132 100.59195 C 142.30366 97.88014 142.46132 97.72248 143.91182 98.95225 Z" fill="#FFFFFF"/>
          </g>
          <g id="Graphic_128">
            <path d="M 178.4716 102.01092 C 177.96709 102.5785 176.76884 103.90288 175.82287 104.94345 C 174.87689 105.98403 173.48945 107.52913 172.79573 108.34898 C 171.56596 109.73642 171.4083 109.83101 169.92626 109.83101 C 166.99372 109.83101 166.80453 108.44358 169.45327 106.01556 C 171.43983 104.15514 174.37236 102.45237 177.08417 101.60099 C 179.44912 100.84421 179.54372 100.84421 178.4716 102.01092 Z" fill="#FFFFFF"/>
          </g>
          <g id="Graphic_127">
            <path d="M 205.1167 104.97499 C 205.36896 105.06958 204.39145 105.8579 202.78328 106.86695 C 198.58944 109.54722 198.40024 109.57875 195.05778 109.1373 C 193.1343 108.88504 192.21984 108.60124 192.21984 108.34898 C 192.21984 107.78139 194.774 106.20476 196.60288 105.57411 C 199.4093 104.65966 203.25627 104.37587 205.1167 104.97499 Z" fill="#FFFFFF"/>
          </g>
          <g id="Graphic_126">
            <path d="M 232.07712 105.54257 L 233.05463 105.92097 L 231.478 106.83541 C 230.59508 107.3084 229.2707 108.12825 228.51393 108.63277 C 226.87423 109.67335 225.676 109.73642 223.78403 108.8535 C 221.9236 108.03365 217.91896 106.99308 216.53152 106.99308 C 213.63051 106.99308 218.23428 105.54257 222.5858 105.10112 C 225.73905 104.78579 230.78428 105.00652 232.07712 105.54257 Z" fill="#FFFFFF"/>
          </g>
          <g id="Graphic_125">
            <path d="M 183.5799 110.27247 C 181.15188 112.76355 179.10226 114.78164 179.0392 114.71858 C 178.97613 114.65551 179.16533 114.18252 179.44912 113.61493 C 180.04824 112.47976 179.76445 111.91217 178.50314 111.59684 C 176.76884 111.15539 177.93555 109.57875 181.18342 107.90752 C 182.50779 107.24534 186.8593 105.79484 187.67914 105.7633 C 187.89987 105.73177 186.03944 107.78139 183.5799 110.27247 Z" fill="#FFFFFF"/>
          </g>
          <g id="Graphic_124">
            <path d="M 215.86933 110.4932 C 219.62172 110.96619 219.84245 111.18692 217.25677 112.0383 C 216.05853 112.44822 213.25212 113.45727 211.0133 114.27712 C 208.77449 115.1285 206.59873 115.82222 206.22034 115.82222 C 205.43203 115.82222 203.13014 113.17348 203.35087 112.54282 C 203.54007 112.00677 206.7564 110.84006 208.96368 110.52473 C 211.80162 110.11481 212.8422 110.11481 215.86933 110.4932 Z" fill="#FFFFFF"/>
          </g>
          <g id="Graphic_123">
            <path d="M 242.13603 115.28616 C 244.2172 115.82222 244.50098 116.01141 244.028 116.4844 C 243.52347 116.98893 233.93754 120.23679 232.99156 120.23679 C 232.5501 120.23679 231.3834 119.73227 230.34282 119.10161 C 229.33378 118.47096 227.25262 117.49345 225.73905 116.92586 L 222.9957 115.88528 L 224.25702 115.53842 C 227.00036 114.71858 228.577 114.59245 234.31593 114.71858 C 238.22598 114.78164 240.9378 114.97084 242.13603 115.28616 Z" fill="#FFFFFF"/>
          </g>
          <g id="Graphic_122">
            <path d="M 217.44597 118.66016 C 218.928 118.84935 221.13529 119.25928 222.33353 119.5746 L 224.5408 120.14219 L 221.829 120.99357 C 218.10815 122.12875 213.97737 122.98013 210.95024 123.26392 C 208.42763 123.45312 208.36456 123.45312 207.8285 122.6648 C 207.54471 122.19181 207.35552 121.4035 207.41858 120.80438 C 207.51318 119.88993 207.67084 119.70073 208.77449 119.35388 C 209.8466 119.00702 212.4638 118.53403 214.2927 118.37636 C 214.54496 118.37636 215.96393 118.5025 217.44597 118.66016 Z" fill="#FFFFFF"/>
          </g>
          <g id="Graphic_121">
            <path d="M 231.82485 125.43968 C 232.89696 125.69194 234.59973 126.25953 235.60877 126.73252 L 237.4692 127.5839 L 233.36995 128.30915 C 231.13114 128.71907 228.2932 129.129 227.06342 129.25513 C 224.9192 129.44432 224.79307 129.41279 222.4912 128.18302 C 221.19835 127.4893 220.0947 126.76405 220.03164 126.60639 C 219.9055 126.16493 221.5452 125.31355 223.21644 124.96669 C 224.9192 124.5883 229.3653 124.84056 231.82485 125.43968 Z" fill="#FFFFFF"/>
          </g>
          <g id="Graphic_120">
            <path d="M 246.42447 125.81807 C 249.6408 126.73252 253.45625 128.27762 254.40223 129.0344 C 255.06442 129.60199 255.0329 129.60199 252.57334 130.26417 C 246.23528 131.90387 239.83415 132.59759 239.83415 131.62008 C 239.83415 131.21015 241.06392 130.95789 243.30274 130.92636 C 246.8344 130.89483 246.89746 130.73716 244.56405 128.40375 C 243.42887 127.26857 242.0099 125.97573 241.41078 125.50274 L 240.30714 124.61983 L 242.04143 124.84056 C 242.9874 124.93515 244.97397 125.37661 246.42447 125.81807 Z" fill="#FFFFFF"/>
          </g>
          <g id="Graphic_119">
            <path d="M 213.97737 128.78214 C 216.56305 129.47586 221.57674 131.8408 221.79747 132.43993 C 221.9236 132.91292 215.04948 133.00751 209.12135 132.62912 L 205.71582 132.43993 L 205.87348 131.62008 C 205.96808 131.17862 206.34647 130.10651 206.69333 129.25513 L 207.35552 127.71003 L 209.49974 127.93076 C 210.66645 128.05689 212.68453 128.43528 213.97737 128.78214 Z" fill="#FFFFFF"/>
          </g>
          <g id="Graphic_118">
            <path d="M 235.23038 135.84545 C 236.58628 136.28691 238.7305 137.16982 240.05488 137.83201 C 243.05048 139.31404 242.79822 139.40864 235.57724 139.44017 C 227.09496 139.44017 224.16242 138.87259 223.81556 137.13829 C 223.72096 136.6653 224.06782 136.63377 227.1265 136.69683 L 230.53202 136.79143 L 230.43742 135.71932 L 230.3113 134.64721 L 231.54106 134.8364 C 232.23478 134.96254 233.87448 135.404 235.23038 135.84545 Z" fill="#FFFFFF"/>
          </g>
          <g id="Graphic_117">
            <path d="M 251.3751 137.57975 C 252.731 137.9266 254.6545 138.52573 255.60047 138.87259 C 257.80776 139.69244 262.53766 142.02585 262.53766 142.30965 C 262.53766 142.40424 262.34846 142.78264 262.0962 143.09796 C 261.7178 143.63402 260.96102 143.72862 255.19055 143.98088 C 250.23992 144.17007 248.41103 144.13854 247.37045 143.85475 L 245.98302 143.44482 L 248.50563 143.19256 C 249.86153 143.06643 251.1859 142.87723 251.40663 142.78264 C 252.06882 142.53037 251.40663 141.52133 249.04168 139.06178 L 246.96053 136.9491 L 247.9065 136.9491 C 248.44256 136.9491 249.98766 137.23289 251.3751 137.57975 Z" fill="#FFFFFF"/>
          </g>
          <g id="Graphic_116">
            <path d="M 214.7657 138.4942 C 218.6442 139.53477 224.79307 142.6565 224.16242 143.28716 C 224.0363 143.41329 221.60828 143.44482 218.77034 143.35022 L 213.63051 143.16103 L 212.14848 141.99432 C 211.32863 141.33213 209.4682 140.07083 207.98617 139.15638 L 205.3059 137.51668 L 208.77449 137.67435 C 210.79258 137.76894 213.3152 138.1158 214.7657 138.4942 Z" fill="#FFFFFF"/>
          </g>
          <g id="Graphic_115">
            <path d="M 238.16292 145.30525 C 239.9918 145.90437 242.5775 146.97648 243.90186 147.6702 C 246.39294 148.99457 249.4516 151.07572 249.19935 151.32798 C 249.13628 151.39105 247.46505 151.23339 245.4785 150.98113 C 243.49194 150.69733 240.05488 150.2874 237.78453 150.03515 C 233.2123 149.49909 229.11305 148.71077 229.11305 148.30085 C 229.11305 147.98552 230.24822 147.6702 231.5726 147.6702 C 232.89696 147.6702 233.14923 147.03954 232.29784 145.68364 C 231.91945 145.08452 231.63566 144.51693 231.63566 144.3908 C 231.63566 143.82321 235.16732 144.2962 238.16292 145.30525 Z" fill="#FFFFFF"/>
          </g>
          <g id="Graphic_114">
            <path d="M 221.48214 150.06668 C 225.676 151.64331 231.95099 155.52183 231.95099 156.53087 C 231.95099 157.31919 225.2976 156.12095 222.5858 154.85964 C 220.7569 154.00826 218.42348 151.86404 217.4775 150.1928 L 216.72071 148.86844 L 218.10815 149.08917 C 218.86493 149.2153 220.3785 149.65675 221.48214 150.06668 Z" fill="#FFFFFF"/>
          </g>
          <g id="Graphic_113">
            <path d="M 259.32133 151.95864 C 263.79896 154.16592 268.62346 157.31919 268.78112 158.13904 C 269.00185 159.24268 267.8036 159.40034 263.38904 158.89582 C 259.22673 158.42283 257.11404 157.88678 255.8212 156.97233 L 255.15902 156.49934 L 255.97887 156.49934 C 258.50148 156.49934 258.40688 155.52183 255.4428 151.9271 C 254.71756 151.04419 254.05537 150.1928 253.92924 150.00361 C 253.51932 149.3099 255.3482 149.97208 259.32133 151.95864 Z" fill="#FFFFFF"/>
          </g>
          <g id="Graphic_112">
            <path d="M 242.79822 156.53087 C 247.37045 158.07597 255.09595 163.08966 254.21304 163.97258 C 254.11844 164.0987 252.69947 163.87798 251.0913 163.49959 C 249.51467 163.15273 247.2128 162.67974 246.04608 162.52208 C 243.4604 162.14368 241.5369 161.1031 240.05488 159.24268 C 239.0143 157.94984 237.62686 155.80562 237.62686 155.4903 C 237.62686 155.23803 240.81166 155.86869 242.79822 156.53087 Z" fill="#FFFFFF"/>
          </g>
          <g id="Graphic_111">
            <path d="M 226.1805 161.73376 C 227.44182 162.33288 229.5545 163.65725 230.9104 164.6663 C 233.4015 166.55826 236.68088 169.77459 236.68088 170.34217 C 236.68088 170.7521 230.1221 168.51328 227.631 167.2835 C 225.4868 166.17986 224.6354 165.23388 223.15338 162.23828 L 222.14433 160.25172 L 223.02724 160.47245 C 223.53177 160.56705 224.9192 161.16617 226.1805 161.73376 Z" fill="#FFFFFF"/>
          </g>
          <g id="Graphic_110">
            <path d="M 263.1683 165.23388 C 267.33062 167.4727 274.20474 173.21164 274.20474 174.47295 C 274.20474 175.54506 273.82635 176.04958 273.03803 176.04958 C 272.6281 176.04958 269.75863 175.07207 266.69997 173.87383 C 263.6413 172.70712 260.39344 171.47735 259.51052 171.19355 C 258.59608 170.90976 257.61856 170.3737 257.33477 170.05838 C 256.76718 169.45926 256.7987 169.42773 257.5555 169.42773 C 257.99696 169.42773 259.03753 169.64846 259.8889 169.90072 C 260.7403 170.15298 261.6232 170.3737 261.84394 170.3737 C 262.5692 170.3737 262.22233 168.79707 260.9295 166.24293 C 259.479 163.3104 259.51052 163.27886 263.1683 165.23388 Z" fill="#FFFFFF"/>
          </g>
          <g id="Graphic_109">
            <path d="M 241.47385 166.46366 C 246.01455 168.10336 250.58678 170.72057 254.2761 173.8423 C 255.47434 174.85134 256.16806 175.60813 255.97887 175.79732 C 255.69507 176.08112 245.91995 173.62157 244.50098 172.89632 C 243.23967 172.23413 242.64055 171.54041 240.81166 168.79707 C 238.88817 165.86454 238.76204 165.6438 239.0143 165.6438 C 239.07736 165.6438 240.21254 166.0222 241.47385 166.46366 Z" fill="#FFFFFF"/>
          </g>
          <g id="Graphic_108">
            <path d="M 227.53641 172.42333 C 229.39684 173.3693 232.2663 175.51353 234.72586 177.75235 C 236.807 179.70737 238.7305 181.97772 238.50978 182.22998 C 238.3521 182.38765 229.6491 178.69833 228.60852 178.03614 C 228.23013 177.81541 227.66254 177.09016 227.34722 176.42798 C 227.0319 175.79732 226.2751 174.50448 225.73905 173.59004 C 225.17147 172.67559 224.69848 171.79268 224.69848 171.60348 C 224.69848 171.19355 225.61292 171.47735 227.53641 172.42333 Z" fill="#FFFFFF"/>
          </g>
          <g id="Graphic_107">
            <path d="M 243.87033 178.44606 C 248.0957 180.0227 250.8075 181.44167 254.49683 183.96428 C 258.97447 187.05448 261.59168 189.60862 260.23577 189.60862 C 259.76278 189.60862 246.7398 185.0364 245.82535 184.5634 C 245.03704 184.15347 240.11794 177.31089 240.59093 177.31089 C 240.71706 177.31089 242.1991 177.81541 243.87033 178.44606 Z" fill="#FFFFFF"/>
          </g>
          <g id="Graphic_106">
            <path d="M 269.03338 182.57684 C 272.029 184.81566 277.2634 189.73475 277.51567 190.58614 C 278.05172 192.22583 276.3805 193.32948 274.5516 192.5727 C 272.3443 191.65825 265.21793 187.14908 262.91605 185.25712 C 259.95198 182.8291 259.6682 182.16692 261.6232 182.48224 C 262.38 182.60837 263.48364 182.79757 264.05122 182.89217 L 265.0918 183.04983 L 264.87107 181.41013 L 264.65034 179.77044 L 265.59632 180.24343 C 266.10085 180.52722 267.64595 181.5678 269.03338 182.57684 Z" fill="#FFFFFF"/>
          </g>
          <g id="Graphic_105">
            <path d="M 231.2888 185.13099 C 234.379 187.21214 241.127 195.6629 240.33867 196.4512 C 240.0864 196.70347 236.74395 194.74845 234.69433 193.10875 C 233.68528 192.32043 232.1717 190.8384 231.32033 189.76629 C 229.71217 187.7482 227.85174 184.62646 227.85174 183.96428 C 227.85174 183.3021 229.39684 183.83815 231.2888 185.13099 Z" fill="#FFFFFF"/>
          </g>
          <g id="Graphic_104">
            <path d="M 243.39734 189.4825 C 246.29834 190.71227 250.68138 193.39254 253.58238 195.72596 C 256.64105 198.1855 259.22673 200.92885 258.8168 201.33877 C 258.65914 201.49643 256.04193 200.55045 252.57334 199.06842 C 245.73075 196.16742 244.6271 195.31603 242.41983 191.34292 C 241.69457 190.05008 241.09545 188.9149 241.09545 188.8203 C 241.09545 188.56805 241.34772 188.63111 243.39734 189.4825 Z" fill="#FFFFFF"/>
          </g>
          <g id="Graphic_103">
            <path d="M 265.34406 196.13588 C 267.9928 197.3972 271.49293 200.61352 272.59657 202.75774 C 273.41642 204.3659 273.41642 204.42897 272.65964 204.42897 C 270.86228 204.42897 259.3844 195.53676 260.39344 194.93764 C 261.0241 194.52772 262.9791 195.0007 265.34406 196.13588 Z" fill="#FFFFFF"/>
          </g>
          <g id="Graphic_102">
            <path d="M 232.8339 197.74405 C 234.0952 198.69003 237.34307 202.56854 239.2981 205.43801 C 241.00086 207.96063 243.11354 211.64995 242.92435 211.83914 C 242.70362 212.05987 237.9422 208.9066 236.1133 207.32997 C 233.84294 205.40648 233.14923 204.2713 231.69872 200.07746 C 230.56355 196.76654 230.53202 196.5458 231.13114 196.735 C 231.50953 196.86113 232.2663 197.3026 232.8339 197.74405 Z" fill="#FFFFFF"/>
          </g>
          <g id="Graphic_101">
            <path d="M 248.60023 203.45146 C 251.0913 204.7443 256.92485 210.60937 259.44746 214.26716 C 260.96102 216.5375 260.61417 216.6321 256.92485 214.83474 C 252.51027 212.69052 246.7398 208.40208 244.50098 205.56415 C 243.11354 203.82985 243.33427 203.32533 245.06857 204.2713 C 246.32987 204.9335 247.08666 204.71276 247.08666 203.64065 C 247.08666 202.69467 247.1182 202.69467 248.60023 203.45146 Z" fill="#FFFFFF"/>
          </g>
          <g id="Graphic_100">
            <path d="M 263.51517 208.05522 C 266.60537 209.12733 267.74054 209.91565 270.45235 212.97432 C 273.0065 215.87532 276.41202 220.9836 276.41202 221.86653 C 276.41202 222.40258 276.2859 222.37105 274.93 221.58273 C 268.5604 217.92494 263.6413 213.69957 261.5286 210.07331 C 259.6682 206.95158 259.79432 206.79392 263.51517 208.05522 Z" fill="#FFFFFF"/>
          </g>
          <g id="Graphic_99">
            <path d="M 236.83855 215.9384 C 238.85664 218.99705 240.02334 221.2674 240.96932 224.04228 C 241.69457 226.21803 242.26216 229.02444 241.94684 229.02444 C 241.56844 229.02444 234.69433 220.95208 234.1898 219.9115 C 233.87448 219.28085 233.46455 217.23123 233.24382 215.3708 C 233.05463 213.51037 232.77083 211.74455 232.67624 211.42922 C 232.29784 210.32558 235.19885 213.51037 236.83855 215.9384 Z" fill="#FFFFFF"/>
          </g>
          <g id="Graphic_98">
            <path d="M 250.68138 217.1051 C 253.67698 219.4385 258.40688 224.3576 261.59168 228.51992 C 263.60977 231.1056 250.93364 223.31703 246.14068 219.0286 C 245.35236 218.30334 244.8163 217.64115 244.94244 217.51502 C 245.06857 217.3889 245.85688 217.51502 246.7398 217.83035 C 248.60023 218.42947 248.97862 218.30334 248.97862 217.0105 C 248.97862 216.50598 249.07322 216.09605 249.1678 216.09605 C 249.2624 216.09605 249.95613 216.5375 250.68138 217.1051 Z" fill="#FFFFFF"/>
          </g>
          <g id="Graphic_97">
            <path d="M 264.9972 223.3801 C 265.8486 223.72695 266.13238 223.72695 266.69997 223.3801 C 267.36215 222.97017 267.55135 223.0963 269.94783 225.6189 C 271.33527 227.06941 273.16416 229.21363 273.984 230.3488 C 275.3399 232.2723 277.67333 236.4346 277.67333 237.0022 C 277.67333 237.31753 272.88037 234.2904 270.2001 232.2723 C 267.64595 230.3488 266.13238 228.64605 264.17736 225.46125 C 262.34846 222.46565 262.38 222.33952 264.9972 223.3801 Z" fill="#FFFFFF"/>
          </g>
          <g id="Graphic_96">
            <path d="M 234.379 227.70007 C 235.9241 229.24517 238.19445 231.83084 239.42422 233.47054 C 242.23063 237.22293 244.46945 240.84918 243.80726 240.59692 C 242.51442 240.0924 231.2888 231.2948 230.8158 230.38034 C 230.3113 229.49743 230.3113 229.15057 230.65815 227.164 C 230.87887 225.93424 231.16267 224.9252 231.32033 224.9252 C 231.44646 224.9252 232.8339 226.1865 234.379 227.70007 Z" fill="#FFFFFF"/>
          </g>
          <g id="Graphic_95">
            <path d="M 247.96957 226.5649 C 252.258 229.4659 257.77623 235.61476 258.59608 238.42117 C 258.8168 239.14642 258.56454 238.98876 250.0192 233.28135 C 247.96957 231.92544 247.2128 230.9164 246.61367 228.92984 C 246.14068 227.32167 245.98302 225.55585 246.32987 225.55585 C 246.42447 225.55585 247.14972 225.9973 247.96957 226.5649 Z" fill="#FFFFFF"/>
          </g>
          <g id="Graphic_94">
            <path d="M 230.97347 236.46614 C 232.9285 238.23197 235.10425 241.19604 236.23943 243.6556 C 237.59533 246.61966 237.21694 246.71426 233.84294 244.1601 C 229.6491 240.94378 227.28415 238.86263 227.06342 238.1689 C 226.96883 237.85358 227.18955 236.84454 227.56795 235.99315 C 228.35626 234.13273 228.3878 234.16426 230.97347 236.46614 Z" fill="#FFFFFF"/>
          </g>
          <g id="Graphic_93">
            <path d="M 263.6413 235.2679 C 265.40713 236.15082 270.23162 241.32217 271.80826 244.00245 C 273.16416 246.33586 274.70926 250.37204 274.39393 250.7189 C 274.20474 250.9081 267.36215 244.47544 265.91165 242.77267 C 265.31253 242.0159 264.0197 239.84014 263.01065 237.8851 C 261.08716 234.03813 261.1187 233.97506 263.6413 235.2679 Z" fill="#FFFFFF"/>
          </g>
          <g id="Graphic_92">
            <path d="M 249.86153 238.61036 C 253.204 240.31313 258.0285 244.6331 260.99256 248.57468 C 262.44306 250.49817 264.42962 254.3767 264.42962 255.29114 C 264.42962 255.98486 264.08276 255.76413 259.13213 251.75948 C 250.05073 244.38084 250.58678 244.97996 248.78942 240.62845 C 248.1903 239.20948 247.7173 237.9797 247.7173 237.94818 C 247.7173 237.69592 248.53716 237.94818 249.86153 238.61036 Z" fill="#FFFFFF"/>
          </g>
          <g id="Graphic_91">
            <path d="M 222.86958 239.65094 C 223.12184 239.96627 223.4687 240.59692 223.68943 241.0699 C 223.87863 241.5429 224.60388 242.2051 225.26606 242.55195 C 226.7481 243.30873 228.54546 245.7998 229.42837 248.35395 C 229.99596 249.96212 230.75274 253.93523 230.53202 254.1875 C 230.43742 254.2821 225.1084 248.25936 222.23893 244.8223 C 220.0947 242.23662 219.84245 241.32217 220.9461 239.93474 C 221.70287 238.98876 222.2074 238.89416 222.86958 239.65094 Z" fill="#FFFFFF"/>
          </g>
          <g id="Graphic_90">
            <path d="M 279.21843 243.59252 C 282.02484 244.97996 284.67358 247.59717 285.20963 249.58373 C 286.12408 252.80006 283.79066 252.9262 280.41667 249.86752 C 279.4707 249.01614 276.72735 243.93938 276.72735 243.05647 C 276.72735 242.42582 276.82195 242.42582 279.21843 243.59252 Z" fill="#FFFFFF"/>
          </g>
          <g id="Graphic_89">
            <path d="M 246.929 247.94403 C 248.91555 250.05672 250.49218 253.11538 251.4697 256.8047 C 252.258 259.83184 252.57334 262.13372 252.19495 262.13372 C 251.78502 262.13372 243.555 252.20094 242.92435 250.93963 C 242.4829 250.11978 240.4648 243.62406 240.4648 243.05647 C 240.4648 242.58348 245.25776 246.24127 246.929 247.94403 Z" fill="#FFFFFF"/>
          </g>
          <g id="Graphic_88">
            <path d="M 217.16217 245.7998 C 218.04509 246.7458 219.18026 249.2684 219.62172 251.34956 C 220.06318 253.39918 220.06318 258.00295 219.65325 259.92644 C 219.24333 261.78686 218.04509 264.37254 217.6667 264.2464 C 217.3829 264.1518 214.4819 252.3586 214.07197 249.61526 C 213.85124 248.1963 214.13504 247.21878 215.11255 246.0836 C 216.09006 244.9169 216.27926 244.88536 217.16217 245.7998 Z" fill="#FFFFFF"/>
          </g>
          <g id="Graphic_87">
            <path d="M 236.71242 251.63335 C 237.8476 252.86312 238.41518 254.06136 239.32963 257.21463 C 240.21254 260.21023 240.7486 264.65633 240.24407 264.65633 C 239.67648 264.65633 237.3746 261.94453 236.55475 260.2733 C 235.3565 257.9714 234.78892 255.41727 234.78892 252.61086 C 234.78892 249.836 234.97812 249.7414 236.71242 251.63335 Z" fill="#FFFFFF"/>
          </g>
          <g id="Graphic_86">
            <path d="M 269.75863 252.737 C 271.6506 254.3767 273.66868 257.12003 274.7408 259.45345 C 275.78137 261.7238 277.2634 268.0934 276.91655 268.91324 C 276.0021 271.2782 269.5379 259.13812 268.40273 252.89466 C 268.2766 252.264 268.2766 251.72795 268.40273 251.72795 C 268.49733 251.72795 269.12798 252.1694 269.75863 252.737 Z" fill="#FFFFFF"/>
          </g>
          <g id="Graphic_85">
            <path d="M 227.25262 257.2777 C 228.07247 259.07506 228.32473 263.96262 227.88327 268.2826 C 227.50488 271.7827 226.4643 276.57568 225.99131 277.04867 C 225.676 277.364 224.22549 272.60256 223.5633 269.0709 C 222.93265 265.6969 223.0903 259.16965 223.91016 256.04792 L 224.47775 253.9037 L 225.5814 254.94428 C 226.1805 255.51187 226.9373 256.58398 227.25262 257.2777 Z" fill="#FFFFFF"/>
          </g>
          <g id="Graphic_84">
            <path d="M 257.58703 256.36325 C 260.29884 258.2552 264.27195 263.99415 265.72246 268.21952 C 266.6369 270.77367 266.88916 272.5395 266.3531 272.5395 C 266.22698 272.5395 265.34406 271.65658 264.39808 270.55294 C 263.4521 269.48083 261.5286 267.36814 260.14118 265.8861 C 257.33477 262.8905 256.54645 261.3454 256.0104 257.81375 C 255.60047 255.165 255.69507 255.0704 257.58703 256.36325 Z" fill="#FFFFFF"/>
          </g>
          <g id="Graphic_83">
            <path d="M 246.80286 262.7013 C 249.29394 265.9807 251.6589 272.0665 251.43816 274.52605 L 251.34357 275.59816 L 248.6633 272.69716 C 247.18126 271.089 245.60462 269.03937 245.13163 268.12493 C 244.34332 266.6429 244.24872 266.13837 244.24872 263.3635 C 244.24872 260.30483 244.24872 260.24176 244.9109 260.62016 C 245.25776 260.84088 246.10915 261.78686 246.80286 262.7013 Z" fill="#FFFFFF"/>
          </g>
          <g id="Graphic_82">
            <path d="M 282.90775 264.56174 C 283.4438 266.42216 283.16 267.49427 282.0879 267.49427 C 281.64644 267.49427 281.39418 267.1474 281.17345 266.29603 C 280.66893 264.341 280.41667 262.16526 280.66893 261.59767 C 280.85813 261.09314 280.98426 261.1562 281.64644 261.97606 C 282.05637 262.48058 282.62396 263.6473 282.90775 264.56174 Z" fill="#FFFFFF"/>
          </g>
          <g id="Graphic_81">
            <path d="M 237.0908 267.05282 C 239.70802 270.2376 242.04143 275.78736 242.04143 278.75143 C 242.04143 279.31902 241.94684 279.792 241.8207 279.792 C 241.56844 279.76047 236.05023 272.9179 234.0006 270.07995 C 232.86543 268.4718 232.8339 268.31412 232.96003 266.39063 C 233.05463 265.31852 233.24382 264.2464 233.36995 264.02568 C 233.68528 263.52116 235.23038 264.78247 237.0908 267.05282 Z" fill="#FFFFFF"/>
          </g>
          <g id="Graphic_80">
            <path d="M 258.533 272.47643 C 260.4565 276.57568 262.50612 285.3733 261.6232 285.90934 C 261.0241 286.28773 258.75374 283.51286 257.49243 280.92718 C 255.69507 277.11173 255.12748 273.20168 255.94733 270.2376 C 256.26266 269.10244 256.32572 269.03937 256.83025 269.51236 C 257.14557 269.79616 257.90236 271.12053 258.533 272.47643 Z" fill="#FFFFFF"/>
          </g>
          <g id="Graphic_79">
            <path d="M 273.0065 272.2557 C 273.66868 273.20168 274.6462 275.0621 275.18225 276.44955 C 275.74984 277.80545 276.7904 279.72894 277.5472 280.70645 C 278.9977 282.66148 279.40763 283.9228 279.7545 287.67517 C 279.91215 289.69326 279.8806 290.1347 279.43916 290.48158 C 278.9977 290.85997 278.84004 290.82844 278.4301 290.3239 C 275.1192 286.09854 273.25876 281.68397 271.8398 274.5576 C 271.39833 272.4449 271.05147 270.616 271.05147 270.48988 C 271.05147 269.89075 271.96592 270.7106 273.0065 272.2557 Z" fill="#FFFFFF"/>
          </g>
          <g id="Graphic_78">
            <path d="M 219.27486 275.6297 C 218.80187 280.80105 215.96393 289.441 215.04948 288.52655 C 214.95489 288.43195 214.63956 285.8778 214.35577 282.8822 C 214.0089 278.7199 213.94584 276.891 214.1981 275.12517 C 214.63956 272.22417 214.98642 271.75118 215.96393 272.98095 L 216.68918 273.8954 L 217.9505 272.38183 L 219.18026 270.86827 L 219.36946 271.9719 C 219.46406 272.57103 219.43252 274.21073 219.27486 275.6297 Z" fill="#FFFFFF"/>
          </g>
          <g id="Graphic_77">
            <path d="M 232.58164 276.38648 C 233.68528 278.30997 234.88352 281.77856 235.60877 285.15256 C 236.2079 287.92743 236.3971 295.02228 235.86103 295.55833 C 235.60877 295.8106 234.72586 293.9817 232.61317 289.03107 C 231.005 285.24716 229.61757 281.68397 229.52297 281.11638 C 229.33378 280.04427 230.87887 274.74678 231.3834 274.74678 C 231.50953 274.74678 232.04558 275.50357 232.58164 276.38648 Z" fill="#FFFFFF"/>
          </g>
          <g id="Graphic_76">
            <path d="M 250.74445 281.74703 C 252.41568 284.2381 252.95173 284.83723 253.55085 284.83723 C 254.71756 284.83723 255.15902 285.90934 255.56894 289.66173 C 256.105 294.4547 255.632 297.92328 254.59143 296.8827 C 254.05537 296.34665 247.40198 281.30557 247.08666 279.9812 C 246.929 279.25595 246.7398 278.18384 246.61367 277.58472 L 246.456 276.5126 L 247.59118 277.58472 C 248.22183 278.18384 249.6408 280.0758 250.74445 281.74703 Z" fill="#FFFFFF"/>
          </g>
          <g id="Graphic_75">
            <path d="M 267.86668 281.2425 C 269.5379 283.67052 270.1055 285.8778 270.07396 290.19778 L 270.07396 293.1934 L 269.12798 292.08974 C 266.95223 289.5356 265.3756 284.86876 265.3756 280.80105 C 265.3756 278.7199 265.40713 278.56223 265.94318 278.87756 C 266.22698 279.06676 267.1099 280.13887 267.86668 281.2425 Z" fill="#FFFFFF"/>
          </g>
          <g id="Graphic_74">
            <path d="M 223.5633 284.17505 C 224.06782 285.53095 224.32008 285.84628 225.04533 286.00394 C 225.95978 286.1616 225.95978 286.19314 225.95978 288.43195 C 225.95978 291.61675 224.41468 297.4503 223.31104 298.36474 C 222.86958 298.74313 222.80652 298.7116 222.80652 298.144 C 222.80652 297.79715 222.42812 295.96826 221.98667 294.0763 C 220.97762 289.88246 220.8515 286.31927 221.67134 283.95432 C 221.98667 283.00834 222.3966 282.34615 222.5858 282.40922 C 222.80652 282.47228 223.24797 283.2606 223.5633 284.17505 Z" fill="#FFFFFF"/>
          </g>
          <g id="Graphic_73">
            <path d="M 241.59998 285.6886 C 242.0099 286.13007 242.6721 286.98145 243.01895 287.58057 C 243.7442 288.74728 244.09106 288.84188 244.87937 288.14816 C 245.3839 287.7067 245.44696 287.8013 245.85688 289.6302 C 246.58214 292.94112 246.32987 300.31976 245.4785 299.7837 C 244.9109 299.43685 241.09545 291.4591 240.62246 289.66173 C 240.0864 287.58057 239.9918 284.83723 240.4648 284.83723 C 240.654 284.83723 241.15852 285.21562 241.59998 285.6886 Z" fill="#FFFFFF"/>
          </g>
          <g id="Graphic_72">
            <path d="M 261.27635 293.3195 C 263.29444 296.189 264.74494 300.9504 264.7134 304.7028 C 264.68188 308.0768 264.42962 308.266 262.94758 305.99564 C 260.67723 302.62165 259.16366 297.4503 259.54206 294.48622 C 259.85738 292.0582 260.20424 291.83748 261.27635 293.3195 Z" fill="#FFFFFF"/>
          </g>
          <g id="Graphic_71">
            <path d="M 230.62661 295.243 C 232.2663 297.70255 232.23478 301.3288 230.46895 305.01813 L 229.6491 306.75242 L 228.92385 303.9145 C 228.07247 300.5405 227.97787 297.48183 228.6716 295.4322 C 229.23918 293.76097 229.58604 293.72944 230.62661 295.243 Z" fill="#FFFFFF"/>
          </g>
          <g id="Graphic_70">
            <path d="M 250.8075 303.59916 C 250.93364 307.25695 250.42912 311.10393 249.48314 313.34275 C 249.07322 314.3518 248.88402 314.47792 248.53716 314.1626 C 248.0011 313.75267 247.18126 311.4508 246.89746 309.55883 C 246.7398 308.51825 246.929 307.66687 247.84344 305.23886 C 248.4741 303.56763 248.97862 301.991 248.97862 301.7072 C 248.97862 301.4234 249.19935 300.69816 249.48314 300.03597 C 249.9246 298.96386 249.98766 298.9008 250.33452 299.4999 C 250.52372 299.84677 250.74445 301.67567 250.8075 303.59916 Z" fill="#FFFFFF"/>
          </g>
          <g id="Graphic_69">
            <path d="M 272.78577 304.48207 C 272.78577 308.39212 272.75424 308.6444 272.18665 308.6444 C 271.30373 308.6444 269.19105 304.63974 268.9388 302.4955 L 268.7496 300.88735 L 269.88477 301.07655 C 270.86228 301.26574 271.05147 301.20268 271.556 300.4459 C 272.50198 298.9954 272.78577 299.94137 272.78577 304.48207 Z" fill="#FFFFFF"/>
          </g>
          <g id="Graphic_68">
            <path d="M 239.23503 305.42805 C 238.6359 310.1264 236.2079 316.33835 235.3565 315.48697 C 235.16732 315.29777 234.9466 312.96436 234.852 310.25255 L 234.69433 305.365 L 235.9241 305.2704 C 237.05927 305.1758 237.15387 305.0812 237.78453 303.4415 C 239.04583 300.19363 238.9197 300.31976 239.26656 301.54954 C 239.4873 302.30632 239.4873 303.5361 239.23503 305.42805 Z" fill="#FFFFFF"/>
          </g>
          <g id="Graphic_67">
            <path d="M 257.52397 307.16235 C 258.0285 308.6444 258.0285 312.77516 257.52397 315.26624 C 257.11404 317.1582 255.632 320.9106 255.37975 320.65832 C 254.96982 320.27993 254.02384 315.67617 254.05537 314.1626 C 254.05537 310.9778 254.8437 307.54074 255.78967 306.56323 C 256.26266 306.0587 256.76718 305.74338 256.8933 305.80645 C 257.01944 305.90104 257.30324 306.50016 257.52397 307.16235 Z" fill="#FFFFFF"/>
          </g>
          <g id="Graphic_66">
            <path d="M 243.90186 313.72114 C 244.75324 315.95996 245.32083 320.12227 245.06857 322.6764 C 244.8163 325.38822 243.80726 328.69915 243.01895 329.4244 C 242.41983 329.96046 242.3883 329.96046 242.07297 328.7622 C 241.88377 328.10003 241.4423 325.23056 241.06392 322.32955 C 240.33867 316.71674 240.40174 316.05456 241.88377 312.4283 C 242.32523 311.41926 242.4829 311.29313 242.82975 311.6715 C 243.082 311.92378 243.555 312.83823 243.90186 313.72114 Z" fill="#FFFFFF"/>
          </g>
          <g id="Graphic_65">
            <path d="M 264.3035 316.1807 C 264.68188 317.28433 264.77648 318.29338 264.65034 319.64928 C 264.24042 324.06385 263.29444 326.0504 262.2854 324.66297 C 261.6232 323.74852 260.96102 321.0998 260.96102 319.33395 C 260.96102 317.78885 261.7178 313.7842 262.12773 313.0905 C 262.44306 312.6175 263.7359 314.47792 264.3035 316.1807 Z" fill="#FFFFFF"/>
          </g>
          <g id="Graphic_64">
            <path d="M 251.4697 322.2665 C 251.6589 322.92867 252.00575 324.53684 252.32108 325.82968 C 253.04633 329.17214 253.42472 329.45593 255.2536 328.13156 L 256.0104 327.5955 L 255.85274 329.1406 C 255.66354 331.19023 254.0869 334.7219 253.45625 334.59576 C 253.17246 334.5327 252.66794 333.4921 252.1634 331.8524 C 251.72196 330.4019 251.15437 329.1406 250.9021 329.046 C 250.64985 328.9514 250.05073 329.36134 249.57774 329.96046 C 249.10475 330.55958 248.60023 330.90644 248.44256 330.7803 C 247.78038 330.1181 248.44256 325.8612 249.67234 322.73948 C 250.42912 320.816 251.02824 320.65832 251.4697 322.2665 Z" fill="#FFFFFF"/>
          </g>
        </g>
        <g id="Graphic_62">
          <path d="M 190.10716 117.55651 C 187.33228 118.4079 183.9583 120.93051 180.80502 124.46217 L 179.1338 126.32259 L 180.3005 126.1334 C 180.96269 126.0388 182.35012 125.56581 183.3907 125.09282 C 184.43128 124.61983 185.37726 124.3045 185.47186 124.3991 C 185.53492 124.4937 184.96733 125.31355 184.17902 126.25953 C 183.3907 127.17397 182.76005 128.02535 182.76005 128.18302 C 182.76005 128.46681 183.26457 128.46681 185.53492 128.15149 C 187.52148 127.86769 187.55301 127.96229 186.22864 131.11555 C 185.69259 132.3138 185.28266 133.54357 185.28266 133.82736 C 185.28266 134.52108 187.26922 134.8364 189.35037 134.42648 C 192.34597 133.8589 193.26042 132.84985 190.80087 132.84985 C 189.79183 132.84985 189.31884 132.69219 189.16118 132.34533 C 189.06658 132.09307 189.50804 130.6741 190.1387 129.19206 C 191.05314 127.07938 191.2108 126.41719 190.95854 125.91267 C 190.76934 125.56581 190.48555 125.28201 190.32788 125.28201 C 189.6657 125.28201 190.07562 124.5883 191.1162 123.98918 C 192.2829 123.29546 192.53517 122.63327 191.74685 122.31794 C 191.0216 122.03415 191.17927 121.3089 192.06218 120.93051 C 193.85954 120.11066 195.97223 120.80438 196.63442 122.44408 C 197.0128 123.32699 197.07587 125.43968 196.85514 127.7731 C 196.72901 129.06593 197.51733 128.87674 198.24258 127.42623 C 199.06243 125.81807 199.37776 122.6648 198.87323 121.08817 C 197.73806 117.68264 194.2064 116.26368 190.10716 117.55651 Z" fill="black"/>
        </g>
        <g id="Graphic_61">
          <path d="M 147.03355 125.40814 C 146.4029 125.62887 145.33079 126.228 144.6686 126.70098 C 143.09197 127.86769 140.5063 130.3903 140.5063 130.73716 C 140.5063 130.92636 141.13695 130.95789 142.01986 130.83176 C 144.82627 130.42184 144.70014 130.3903 145.2362 131.80927 C 146.15064 134.23729 148.01107 135.68779 150.31295 135.68779 C 152.33104 135.68779 153.56081 134.74181 154.72752 132.34533 C 155.4843 130.70563 155.79963 130.32724 156.20956 130.4849 C 158.10151 131.24169 158.54297 131.33628 158.88983 130.98942 C 159.39435 130.4849 155.92576 127.04784 153.8446 126.00727 C 151.82652 125.02975 148.76785 124.74596 147.03355 125.40814 Z" fill="black"/>
        </g>
        <g id="Graphic_60">
          <path d="M 150.53368 129.09746 C 150.56521 129.38126 150.34448 129.91731 150.02916 130.32724 C 149.52463 130.92636 149.33544 130.98942 148.76785 130.6741 C 147.47501 129.98038 148.1372 128.30915 149.65076 128.49834 C 150.09222 128.56141 150.47061 128.81367 150.53368 129.09746 Z" fill="#FFFFFF"/>
        </g>
        <g id="Graphic_59">
          <path d="M 232.58164 354.58746 C 233.24382 356.00643 233.43302 358.9705 232.9285 360.26333 C 232.80237 360.67326 232.58164 361.3985 232.4555 361.8715 L 232.23478 362.7544 L 233.18076 362.28142 C 233.68528 361.99763 234.44206 361.36698 234.91505 360.83092 C 236.3971 359.0651 235.89257 355.81723 233.87448 354.11447 C 232.29784 352.82163 231.8564 352.9793 232.58164 354.58746 Z" fill="black"/>
        </g>
        <g id="Graphic_58">
          <path d="M 160.2142 351.3396 C 160.2142 352.9793 160.08807 353.32615 159.29976 354.17753 C 158.7637 354.7451 157.597 355.4073 156.46182 355.7857 C 153.59235 356.73168 153.40315 356.9524 155.16898 357.20467 C 157.25013 357.52 159.83581 356.88934 161.12865 355.75417 C 162.32689 354.7136 162.64222 353.673 162.2323 352.15944 C 161.9485 351.11887 160.84486 349.47917 160.43493 349.47917 C 160.3088 349.47917 160.2142 350.33055 160.2142 351.3396 Z" fill="black"/>
        </g>
        <g id="Group_54">
          <g id="Graphic_57">
            <path d="M 131.99248 252.29554 C 131.99248 252.80006 131.61409 253.6199 131.0465 254.25056 C 130.25818 255.165 130.06899 255.29114 129.7852 254.8812 C 129.596 254.62895 129.53293 254.12443 129.62753 253.77757 C 129.6906 253.4307 129.7852 252.8316 129.7852 252.4532 C 129.7852 252.0748 130.00592 251.53875 130.28972 251.2865 C 130.98343 250.56124 131.99248 251.16036 131.99248 252.29554 Z" fill="#FFFFFF"/>
          </g>
          <g id="Graphic_56">
            <path d="M 140.15944 251.6964 C 140.66396 252.01174 140.5063 254.43976 139.87564 255.98486 L 139.49725 256.93083 L 139.08733 256.14252 C 138.61434 255.32267 138.45667 252.80006 138.80353 251.91714 C 139.02426 251.34956 139.49725 251.2865 140.15944 251.6964 Z" fill="#FFFFFF"/>
          </g>
          <g id="Graphic_55">
            <path d="M 126.96973 247.48028 C 127.19824 247.8322 126.37376 249.3372 125.5101 250.13685 L 124.98628 250.62874 L 124.95922 250.00266 C 124.90126 249.33764 125.55238 247.6782 126.03725 247.21722 C 126.34752 246.9202 126.66865 247.02088 126.96973 247.48028 Z" fill="#FFFFFF"/>
          </g>
        </g>
      </g>
    </g>
  </g>
</svg>
