<?xml version="1.0" encoding="UTF-8" standalone="no"?>
<!DOCTYPE svg PUBLIC "-//W3C//DTD SVG 1.1//EN" "http://www.w3.org/Graphics/SVG/1.1/DTD/svg11.dtd">
<svg xmlns:xl="http://www.w3.org/1999/xlink" xmlns="http://www.w3.org/2000/svg" xmlns:dc="http://purl.org/dc/elements/1.1/" version="1.1" viewBox="33.75 62.33333 297 337.5" width="297" height="337.5">
  <defs>
    <clipPath id="artboard_clip_path">
      <path d="M 33.75 62.33333 L 330.75 62.33333 L 330.75 399.83333 L 33.75 399.83333 Z"/>
    </clipPath>
  </defs>
  <g id="Hen_(1)" stroke-opacity="1" stroke="none" stroke-dasharray="none" fill="none" fill-opacity="1">
    <title>Hen (1)</title>
    <g id="Hen_(1)_Layer_2" clip-path="url(#artboard_clip_path)">
      <title>Layer 2</title>
      <g id="Group_16">
        <g id="Graphic_30">
          <path d="M 146.53988 371.76327 L 148.9105 372.09644 L 145.49271 375.7741 C 142.08825 379.3569 138.733 386.71787 139.9406 387.75787 C 140.29324 388.00082 141.5762 386.44058 142.84428 384.29805 C 145.06933 380.16268 145.2723 380.0945 152.2596 379.91613 C 154.00642 379.87154 156.34884 379.71726 157.62154 379.60603 C 159.88247 379.3436 159.93731 379.6414 159.32582 384.68043 C 158.74098 389.5298 158.91884 390.3284 161.75794 394.2085 C 163.45607 396.5745 165.24749 398.27674 165.77492 397.9641 C 166.38384 397.75956 165.81182 396.3254 164.68418 394.71646 C 161.51909 390.40374 162.01371 387.57233 166.27467 385.46363 C 168.24959 384.4841 170.9831 383.61122 172.36395 383.4185 C 176.46652 383.1248 181.37485 379.85 183.7629 375.93095 C 185.61172 373.09646 186.36878 372.52598 187.92749 373.13183 C 188.93058 373.5629 192.20946 374.3138 195.24384 374.74026 C 199.89025 375.39327 201.06966 375.9458 202.59147 378.19034 C 203.63761 379.69113 204.60534 382.43797 204.6366 384.2796 C 204.90519 389.24894 206.88164 388.94653 206.8027 384.00386 C 206.6597 374.7008 202.82776 368.9406 194.6949 365.57354 C 187.6466 362.7457 187.16787 360.6478 188.4908 340.914 C 189.05155 331.41977 190.22482 329.26392 196.8769 324.59035 C 200.21626 322.15874 212.9325 316.3068 214.26004 316.49336 C 214.5445 316.53334 217.54763 315.11815 220.98336 313.37697 C 229.50527 309.15958 245.1175 296.4623 251.30263 288.9189 C 255.75888 283.35653 256.32475 282.0823 257.08437 276.6773 C 257.53748 273.45326 257.55337 268.52392 257.1546 265.85704 C 256.09615 258.93946 256.579 256.87997 260.108 254.475 C 263.65034 251.97523 266.23982 247.3109 265.27364 245.24115 C 264.23928 242.96844 264.91177 240.9356 267.23625 238.84485 C 270.42595 236.1021 272.67458 230.4229 271.9083 226.93078 C 271.37317 223.85795 271.61613 223.5053 276.58238 221.88252 C 279.84332 220.69696 282.421 216.80454 282.18216 212.99977 C 282.01455 210.75217 282.3923 210.12838 284.5169 209.46 C 285.9244 209.07762 287.50822 208.81672 287.98235 208.88336 C 288.5513 208.96332 291.85375 208.17038 295.291 207.1063 C 300.04096 205.6465 302.0292 204.57217 303.18914 202.51115 C 305.21275 199.12104 304.7176 195.76374 302.25217 195.41724 C 301.30392 195.28398 300.47716 194.97439 300.51714 194.68991 C 300.67706 193.55202 306.54696 190.31568 307.98265 190.42076 C 310.5429 190.78058 318.90183 186.3469 320.83216 183.62056 C 323.96393 179.22582 323.91473 175.4477 320.8178 171.33795 C 319.26935 169.28308 317.19346 167.54087 316.05556 167.38095 C 312.83153 166.92784 314.01966 165.35426 318.64812 164.0708 C 322.88396 162.82886 326.84558 160.0979 328.28845 157.39976 C 329.2454 155.40691 326.8225 149.94143 323.70202 147.37552 C 321.78913 145.84961 321.43494 144.92956 322.232 144.0746 C 324.00085 141.80906 324.17973 137.09602 322.49493 134.6352 C 319.438 130.24097 314.96484 128.35524 306.5403 127.75144 C 287.5918 126.34547 271.95958 130.24045 257.965 139.68395 C 248.13502 146.32833 236.77298 152.17721 231.39925 153.25923 C 229.2065 153.72464 223.92604 154.1429 219.64715 154.31511 C 211.21083 154.48323 197.0143 158.48329 187.92498 163.29781 C 175.91404 169.63568 158.08906 173.99607 156.78202 170.91145 C 156.49601 170.19437 154.7743 169.37222 153.08079 169.03751 C 151.37395 168.79763 148.24166 167.00365 146.08427 165.15329 C 141.851 161.56072 130.23114 149.29092 129.90361 148.18122 C 129.76727 147.77527 127.37718 144.82853 124.53962 141.6255 C 121.70206 138.42248 118.15613 133.37935 116.74094 130.37623 C 115.23092 127.35978 112.48357 122.13879 110.64757 118.68974 C 108.71673 115.22736 105.80639 109.79006 104.12005 106.65214 C 99.55002 97.88727 91.31873 86.96399 87.10032 83.95369 C 84.98445 82.49595 81.45954 80.74349 79.41338 80.16583 L 75.53736 78.84751 L 76.15039 74.48558 C 77.0684 67.26558 73.81156 64.29373 69.9627 68.97447 C 67.96421 71.49783 66.40857 72.24618 66.44548 70.607506 C 66.40396 70.21488 66.42754 68.67103 66.45112 67.12719 C 66.578235 63.470545 65.58693 62.267554 63.49054 63.42339 C 62.54383 63.96722 61.28907 66.01492 60.72474 67.966255 C 60.06558 69.90426 59.21523 71.13852 58.862586 70.895565 C 58.42844 70.54446 58.506866 69.29841 58.88309 67.99752 C 59.34081 66.80478 59.24291 65.43726 58.632446 64.96467 C 56.9907 63.57357 53.869175 66.51928 52.510876 70.67977 L 51.28738 74.56912 L 50.39962 71.25333 C 48.406254 64.10766 46.65379 67.63257 44.42823 83.46828 C 42.815695 94.94205 42.78904 95.1317 39.263103 98.89086 C 34.723823 103.66796 34.9596 106.11854 39.725947 105.91813 C 44.88492 105.6762 46.112 109.32976 45.262674 122.94145 C 44.92233 128.11528 45.241144 131.35111 46.110967 132.73042 C 47.225283 134.43419 46.98848 137.49523 44.49638 155.22743 C 42.20572 172.21436 41.917144 176.3318 42.736735 179.4446 C 43.40512 181.5692 44.221636 183.3278 44.69576 183.39444 C 45.16988 183.46107 45.03405 189.24383 44.264175 196.09786 C 43.32413 205.5388 43.33489 210.2785 44.26571 214.664 C 46.12888 224.11212 47.830084 227.83232 50.1192 228.05733 C 51.16227 228.20393 52.11052 228.3372 52.09719 228.43202 C 51.750695 230.89746 52.92498 241.11904 53.879376 243.9607 C 56.07418 250.3611 76.85152 275.9084 80.26521 276.38816 C 81.0238 276.49477 82.46257 277.95405 83.37391 279.726 C 84.39341 281.41643 86.9998 284.20017 89.29199 285.7794 C 93.61856 288.7082 102.57974 293.0619 105.32965 293.4484 C 108.64851 293.91483 119.8373 307.1877 123.4027 314.8444 C 124.6549 317.63123 127.00654 321.53954 128.4735 323.48627 C 129.9538 325.33817 130.77031 327.09678 130.2562 327.3146 C 129.7421 327.53246 128.92302 330.60836 128.32178 334.19837 C 126.28126 348.02943 122.32271 352.1146 108.56904 354.33962 C 99.67501 355.7005 96.41561 357.56314 92.67798 363.5166 C 91.44987 365.37464 90.65591 367.5838 90.71229 368.5587 C 90.81019 369.9262 91.12131 369.77655 92.24127 368 C 94.3597 364.6232 96.54938 362.8036 98.35105 363.0568 C 99.58377 363.23007 99.72011 363.636 98.66679 364.93845 C 96.1424 368.45157 95.9138 381.0868 98.37616 380.0791 C 98.90359 379.76645 99.09017 378.4389 98.65295 376.7336 C 97.76365 372.7407 98.93845 371.26196 104.7166 369.3665 L 109.80432 367.5674 L 108.82378 371.1041 C 108.27278 372.9606 107.54698 375.37274 107.22407 376.29433 C 106.28197 378.86946 108.01444 384.4313 110.21181 385.9972 C 112.76182 387.80604 113.74851 386.97774 111.98221 384.40876 C 111.26205 383.34057 110.63365 380.9315 110.58906 379.1847 C 110.47014 374.5265 115.73983 369.36855 122.81733 367.1722 C 125.7405 366.32597 128.83844 364.9241 129.62215 364.16397 C 130.73032 363.15934 131.50224 363.17113 132.72317 364.1163 C 133.95743 364.96665 135.58277 365.09838 138.6556 364.56326 C 140.94318 364.11118 144.77461 363.68267 147.19853 363.63654 L 151.55893 363.57247 L 146.98838 366.50793 C 142.72896 369.29373 136.73194 376.1867 138.43879 376.4266 C 138.81808 376.4799 140.3322 375.3389 141.68333 373.98165 C 143.3589 372.3799 145.02269 371.55004 146.53988 371.76327 L 146.53988 371.76327 Z M 170.8524 326.05782 L 170.8524 326.05782 C 175.3435 329.88002 176.87044 340.34456 174.25174 350.03307 C 172.18405 357.86506 169.57816 361.27004 164.4356 362.77134 C 159.09005 364.3408 155.96084 363.90103 153.35444 361.1173 C 151.75268 359.4417 149.73317 358.6744 145.08676 358.0214 C 141.48343 357.51497 138.42085 356.60107 137.85037 355.844 C 136.4649 354.00544 137.6274 347.1099 141.24766 337.17535 C 142.98372 332.39107 144.41019 328.43355 144.42351 328.33873 C 144.42351 328.33873 147.15702 327.46583 150.59429 326.40175 C 153.9234 325.41916 157.02135 324.0173 157.41243 323.29868 C 158.04648 322.2274 159.29252 322.30584 163.77747 323.41964 C 166.9482 324.25205 170.06562 325.46376 170.8524 326.05782 Z" fill="black"/>
        </g>
        <g id="Graphic_29">
          <path d="M 64.38138 68.09337 C 63.50899 71.548575 66.103596 75.10424 68.442945 73.59576 C 69.37633 73.146755 70.41632 71.93915 70.84739 70.93606 C 71.359955 70.04112 72.33332 69.30764 73.09191 69.414255 C 74.04016 69.54752 74.24621 70.83355 73.819756 73.86794 C 73.24671 77.94539 73.12523 78.12172 70.375315 77.73524 C 65.44444 77.04225 57.25723 79.56612 51.470364 83.58771 L 45.899803 87.4463 L 46.66814 79.91517 C 47.06487 75.71624 47.747605 72.23438 48.26171 72.01654 C 48.66766 71.8802 48.8855 72.3943 48.76556 73.247725 C 48.658946 74.00632 49.18945 75.047855 49.989565 75.54709 C 51.96909 76.59888 54.455035 74.04733 54.9348 70.63364 C 55.1347 69.211274 55.82205 67.760714 56.33615 67.542874 C 56.95841 67.24354 57.19111 68.33991 56.95123 70.04676 C 56.59141 72.60702 56.822575 73.0263 58.75905 73.00836 C 60.39772 73.045265 61.208085 72.09548 62.31164 69.05956 C 63.981066 64.749395 65.44188 63.98772 64.38138 68.09337 Z" fill="#FFFFFF"/>
        </g>
        <g id="Graphic_28">
          <path d="M 84.39346 84.63694 L 84.39346 84.63694 C 80.05357 81.80296 69.21384 79.11917 65.24761 79.81882 C 57.815925 81.0951 49.1874 86.07109 45.704514 90.89996 C 43.07198 94.49458 43.39797 94.92719 48.869604 95.21269 C 51.551346 95.39619 54.92505 96.16042 56.18596 96.82112 C 59.141926 98.49362 61.17373 104.67772 59.895395 108.26927 C 59.07478 110.66808 59.374115 111.29033 62.39979 113.84291 C 64.557175 115.69327 65.915985 117.72149 66.0554 119.48164 C 66.139975 120.94399 66.37422 122.71746 66.45725 123.50272 C 66.553614 124.19314 65.97595 126.2393 65.05897 127.94768 C 63.22501 131.36444 60.20703 132.19736 57.3177 130.05074 C 55.730795 128.95743 55.32484 129.09378 54.286385 130.97848 C 53.54419 132.13124 52.07159 133.66483 50.82708 134.26351 C 48.744014 135.32452 48.52925 136.16461 47.31959 146.14785 C 46.574833 152.13512 45.37543 160.66934 44.64092 165.2076 C 42.87718 175.69314 44.0202 184.07307 46.70758 180.77625 C 48.57127 178.52404 48.60407 181.04279 46.78856 192.58473 C 44.5999 206.78177 44.650645 211.23699 47.43387 220.33092 C 49.27603 226.48837 51.188924 228.01428 51.7753 223.842 C 51.98853 222.3248 52.299655 222.17513 53.222785 223.17515 C 53.8066 223.83738 54.19358 227.27619 54.07979 230.838 C 53.966 234.39982 54.35606 239.19282 54.997794 241.50705 C 56.23974 245.7429 63.018926 255.30173 73.39273 267.4931 L 79.38052 274.42657 L 80.10478 271.33734 L 80.82903 268.2481 L 82.69631 273.5388 C 83.74553 276.3938 85.59486 279.74803 86.76248 281.0725 C 89.81635 284.11252 97.89745 288.53596 104.75455 290.66004 C 111.422 292.75745 127.75438 299.01742 134.2204 301.8601 C 136.75554 303.08668 142.50601 306.89248 146.92894 310.5117 C 155.86961 317.7635 159.80201 320.0567 166.06198 321.61336 C 170.64175 322.7405 174.64386 325.9138 175.95243 329.6755 C 176.45629 330.9067 177.85508 332.65044 179.18416 333.5141 C 181.1237 334.85037 181.81413 334.754 184.43795 333.2855 C 186.02024 332.3475 187.79064 330.75907 188.3032 329.86414 C 190.32528 325.79693 199.23674 320.18383 210.29073 315.8388 C 219.81573 312.0525 223.71072 309.79567 233.75547 302.3112 C 249.31593 290.67033 254.01513 284.75533 255.37446 275.08322 C 255.9475 271.00576 255.88344 266.64537 255.34986 264.24964 C 254.10637 259.3367 255.61127 254.13313 258.46626 253.0839 C 261.52422 251.96652 264.37152 247.5318 263.44532 245.1776 C 262.25976 241.91665 263.05372 239.7075 266.72933 236.25947 C 269.959 233.23226 270.12046 232.77146 270.2563 226.9887 C 270.51514 221.7067 270.71658 220.96144 272.13895 221.16134 C 274.88886 221.54782 279.98376 216.9455 280.43687 213.72146 C 280.66342 212.10944 280.4707 210.7286 279.99658 210.66196 C 278.76386 210.4887 281.1355 205.31026 283.19037 203.7618 C 285.77268 201.90068 285.64505 199.3686 283.11708 195.33882 C 280.1683 190.8631 274.89502 188.47813 263.47455 186.4863 C 255.1833 184.93424 255.07514 185.01574 257.12438 186.9476 C 258.33198 187.9876 260.84355 190.75801 262.82615 193.164 C 267.37517 198.6382 267.0984 201.9837 261.47605 206.8987 C 257.71895 210.23857 257.1413 212.28473 259.70155 212.64455 C 262.6411 213.05768 264.77953 218.4832 263.76055 222.98146 C 263.42585 224.67498 257.3499 226.6253 253.02948 226.40488 C 250.6189 226.3562 250.07813 226.76368 249.5553 229.10764 C 248.8859 232.49467 247.22212 233.3245 236.24655 236.42348 C 231.72624 237.62544 227.47707 238.9622 226.76 239.24823 C 224.78508 240.22774 226.4581 243.4605 229.9015 245.1048 C 233.77906 247.10022 239.17124 254.14338 240.0754 258.71854 C 240.89654 262.50845 239.52952 268.79506 237.9175 268.5685 C 237.34856 268.48855 236.836 269.3835 236.66275 270.6162 C 236.2363 273.6506 232.30132 276.1919 227.64313 276.3108 C 225.50368 276.3969 222.79682 277.08016 221.6205 277.8818 C 217.57737 280.5046 214.89717 280.9982 212.19902 279.55534 C 210.20617 278.59838 209.2446 278.55993 208.24458 279.48306 C 207.35272 280.3247 205.48442 280.5456 203.04563 280.00947 C 200.878 279.60813 198.0066 279.39798 196.62575 279.5907 C 195.15007 279.7701 192.33199 279.18065 190.23098 278.3052 C 187.03206 276.98533 186.16531 276.9602 184.75935 278.0197 C 182.60965 279.5548 180.04938 279.195 176.61776 276.77876 C 174.16257 274.98324 173.86477 275.0381 172.28402 276.65318 C 170.33883 278.79724 164.50123 278.3636 161.94968 275.87767 C 160.5924 274.52654 160.02346 274.44658 158.06187 275.33127 C 156.08695 276.31078 154.97571 275.9612 147.3836 272.18668 C 134.91083 265.98566 119.28323 254.0229 120.93061 251.93368 C 121.28172 251.49953 122.46113 252.05208 123.45243 253.25507 C 127.75696 258.4048 138.06516 265.5587 149.45333 271.2205 C 156.7743 274.86022 159.22488 274.62444 155.92498 270.58286 C 152.2176 266.00053 153.92444 266.2404 159.0542 271.02265 C 162.97634 274.7649 164.76622 275.79002 167.36647 275.86537 C 172.17433 276.05758 172.41267 273.67364 167.89492 270.0411 C 161.91175 265.1389 166.22191 266.80834 173.2215 272.04676 C 179.52913 276.70444 183.36517 278.30723 183.6317 276.41074 C 183.79162 275.27285 180.78953 271.17642 178.25285 269.27275 C 177.39789 268.4757 176.8274 267.71865 177.15186 267.47416 C 177.4763 267.22967 180.29747 269.17332 183.5128 271.75255 C 189.07515 276.2088 196.7339 279.5092 197.00043 277.6127 C 197.06707 277.1386 194.98964 274.71928 192.42476 272.32816 C 189.84656 270.03187 187.76913 267.61256 187.83577 267.13843 C 187.96904 266.1902 188.93215 266.90573 197.00607 274.1324 C 201.1312 277.80646 207.29787 280.0269 207.59106 277.94076 C 207.6577 277.46663 206.1774 275.61473 204.20967 273.79102 C 194.01833 264.42953 193.25359 261.61452 203.30858 270.57006 C 212.0878 278.28264 214.16215 279.34775 218.14017 277.87617 C 219.8588 277.34413 221.33294 276.48764 221.38625 276.10834 C 221.43955 275.72904 219.18734 273.86535 216.36618 271.9217 C 210.62904 268.02108 207.79301 265.49516 208.53675 265.0195 C 208.76638 264.76167 212.15648 266.78528 215.94075 269.44447 C 220.1725 272.35995 224.14487 274.3687 226.32584 274.6752 C 230.11882 275.20828 234.31314 273.5737 234.60633 271.48756 C 234.7929 270.16002 225.92194 263.78832 221.1643 261.8626 C 219.79525 261.2834 218.75064 260.45972 218.81727 259.9856 C 218.99052 258.75287 223.0162 260.38232 228.79333 263.99847 C 234.47563 267.6013 236.64327 268.00263 238.20916 265.80527 C 241.20613 261.68168 237.17685 252.50932 230.3136 247.67685 C 228.0214 246.09764 225.6877 244.1258 225.14387 243.1791 C 223.40423 240.42046 225.05007 237.65415 228.83998 236.83302 C 242.40246 233.90422 248.16575 231.42648 248.28108 228.54177 C 248.4497 225.27775 249.0853 224.8836 253.52718 224.92767 C 258.83582 224.99687 262.63752 223.40381 262.98402 220.93838 C 263.34384 218.3781 259.3653 213.66097 255.85526 212.49078 C 251.51844 211.011 251.29907 209.8198 255.3186 208.74085 C 259.32482 207.75673 263.70264 203.44042 264.2639 200.13488 C 264.70368 197.00567 258.5529 189.8559 252.36982 186.37609 C 249.15604 184.47396 244.7244 182.98085 239.73868 181.99006 C 235.30857 181.17406 231.98818 180.03052 232.0548 179.5564 C 232.1481 178.89263 236.61818 179.42416 245.18058 181.11101 C 265.80057 185.07264 271.02925 185.71078 274.69615 184.38888 C 282.93666 181.48571 282.62195 174.09247 273.95396 167.6526 C 269.74887 164.54747 255.44522 163.11741 246.11858 164.80426 C 241.94937 165.57208 238.3076 166.02724 238.15793 165.71611 C 237.42445 164.74275 247.6163 162.40392 254.1428 162.06409 C 264.46073 161.58023 271.68022 156.30952 266.86467 152.73181 C 264.31466 150.92297 260.95582 150.741 255.06798 152.04087 C 249.6809 153.21772 247.71933 154.1024 237.41369 160.00306 C 234.15428 161.86572 231.06966 163.17276 230.52737 162.90315 C 228.9005 162.09432 244.21082 153.60932 251.39647 151.33148 C 259.40736 148.68613 267.5474 149.24996 269.31524 152.49603 C 270.82526 155.51248 270.26093 157.46382 267.21936 159.84058 C 264.08297 162.20402 264.5453 163.04258 269.3132 163.51927 C 273.4988 164.01082 282.24983 171.23594 282.5553 174.5666 C 282.9705 178.49284 279.90996 184.44475 277.08163 185.30432 C 273.64436 186.3684 274.2297 187.70774 279.137 189.94458 C 285.14223 192.6258 287.0464 196.27784 285.6512 202.077 C 284.9003 205.35588 284.98486 206.81823 285.78498 207.31747 C 287.94083 208.49073 300.0512 204.1975 301.6704 201.62082 C 303.897 198.16254 301.84776 196.23068 294.34175 194.5956 C 290.96804 193.83136 288.20327 192.86261 288.25657 192.48332 C 288.30988 192.10402 290.66563 191.8549 293.4422 192.05174 C 299.67243 192.44385 303.63712 191.0671 306.1082 187.93328 L 308.1067 185.40992 L 304.12816 180.69278 C 301.07276 176.97565 299.05172 175.53124 294.90455 174.07812 C 286.06793 170.90226 285.3893 170.2267 290.50674 169.59215 C 292.97064 169.26154 297.54734 169.03448 300.72986 169.09496 C 308.16462 169.17287 309.97808 168.65416 310.27126 166.56802 C 310.41786 165.52495 311.03858 164.5485 311.55268 164.33067 C 314.65062 162.9288 310.6393 155.69292 304.6725 152.05011 C 300.38747 149.51394 294.2787 148.9455 289.1095 150.63645 C 285.9567 151.74052 285.2796 151.74206 285.4262 150.69898 C 285.70606 148.70767 294.17928 146.90088 304.76837 146.55182 C 311.0919 146.28017 317.1576 145.77888 318.17247 145.43802 C 319.20067 145.00234 320.51028 143.25245 321.1561 141.40926 C 322.1515 138.45483 321.97365 137.65626 319.6917 134.62802 C 317.15195 131.37015 316.97563 131.24868 308.3466 130.03594 C 290.3166 127.59869 275.02215 131.15435 258.95784 141.56404 C 240.87863 153.2377 233.23372 156.03119 219.90804 155.89894 C 215.85877 155.81334 210.90432 156.6642 206.2492 158.13731 C 202.2845 159.51406 198.6576 160.5515 198.2783 160.49818 C 197.80417 160.43155 195.207 161.7104 192.27205 163.32857 C 182.61532 168.74023 168.93443 173.19955 160.13369 173.89663 C 157.79126 174.05091 157.53498 174.49838 157.62263 177.31493 C 157.6867 181.67532 154.02442 185.02853 148.98692 185.09413 C 145.10065 185.22484 144.8577 185.57748 145.76494 191.50684 C 146.2734 194.76932 138.2861 195.87082 131.8616 193.42075 C 129.39462 192.39716 128.89385 192.52017 127.53093 194.64937 C 126.16802 196.77857 125.76207 196.9149 121.6431 195.94923 C 119.21764 195.31827 113.04943 192.42073 107.95094 189.48014 C 98.63558 184.20635 95.23368 182.95467 95.00713 184.56669 C 94.94049 185.0408 93.91229 185.4765 92.82924 185.61437 L 90.75796 185.90346 L 92.2813 188.82508 C 95.46433 195.07428 94.12397 201.17124 89.31765 201.65613 C 87.5575 201.79555 86.77378 202.55568 86.65538 204.0862 C 86.28531 208.09549 85.83937 208.5163 81.5205 208.973 C 78.18985 209.27848 76.93201 209.97199 76.31283 211.62552 C 75.01963 214.6348 73.4358 214.8957 67.45878 212.7019 C 63.59609 211.28876 61.83286 210.07398 60.01172 207.2072 C 58.65291 205.17898 57.40071 202.39216 57.289485 201.11946 C 57.15007 199.35931 56.389934 198.5756 54.87274 198.36237 C 52.21765 197.98922 51.15203 193.87486 52.00494 187.80609 C 52.311455 185.62512 52.65334 181.12839 52.72715 177.85104 L 52.997784 171.79713 L 50.430343 174.24053 C 46.079174 178.3672 45.49075 175.67366 47.6097 160.59655 C 48.849085 151.77787 49.70661 147.74039 50.277094 148.49745 C 50.76608 149.14636 50.37243 154.69949 49.47954 161.05274 C 48.37342 168.92318 48.232976 172.67464 48.95159 173.06573 C 49.493887 173.33534 50.34577 172.77818 50.87166 171.78842 C 51.31606 170.6905 52.09977 169.93037 52.47907 169.98368 C 54.56521 170.27687 54.93887 173.8105 54.093645 183.26476 C 53.59184 188.8994 53.27815 193.88358 53.61747 194.22136 C 53.86196 194.5458 54.95988 194.9902 56.09777 195.15013 C 57.614966 195.36335 58.32179 196.52636 59.03323 199.72067 C 60.46944 206.01446 63.95898 210.0827 69.06772 211.57426 C 73.16004 212.72959 73.55267 212.68807 75.05039 210.28772 C 76.13036 208.79565 77.92895 207.69466 79.79725 207.47374 C 83.23606 207.08676 85.81836 205.22563 85.08334 203.57517 C 84.8655 203.06107 82.66967 202.17228 80.20423 201.82578 C 77.75212 201.38447 76.843855 200.96672 78.19805 200.96365 C 83.92597 200.80168 90.78871 199.44543 91.42275 198.37417 C 93.48634 194.6996 88.65849 185.7051 84.29656 185.09206 C 82.58972 184.85218 81.10943 183.00028 82.08279 182.2668 C 82.29909 182.1038 83.59998 182.48003 84.94239 183.24888 C 88.6303 185.21764 94.17882 183.58 94.64526 180.26114 C 95.15167 176.6578 94.04914 174.18211 90.20849 170.54802 L 86.80198 167.26504 L 90.10598 167.1492 C 94.58785 166.9088 96.1686 165.29372 95.98306 161.10965 C 95.80058 158.27977 94.93076 156.90046 91.13163 153.659 C 88.63492 151.47085 86.34119 149.21454 86.11003 148.79526 C 85.89219 148.28116 87.65234 148.14174 90.03628 148.38008 C 97.92005 149.39138 100.97032 144.88849 98.44492 136.02418 C 96.46642 129.46078 98.03692 129.29471 100.31322 135.80327 C 102.97189 143.71933 100.29066 149.72454 93.94049 150.18585 C 90.70466 150.50467 90.05729 151.67075 92.68726 152.91065 C 93.59553 153.32839 95.36029 155.22027 96.46128 157.01886 C 99.31524 161.48126 98.20298 166.6433 94.15679 167.9119 L 91.42327 168.7848 L 94.30235 172.38045 C 96.19013 174.7731 97.04816 176.92434 96.82161 178.53636 C 96.44846 181.19144 96.36696 181.0833 107.20106 187.2474 C 121.07261 195.19218 126.22133 196.39927 126.87434 191.75286 C 127.11422 190.04602 125.36278 188.05932 119.0121 182.3319 C 114.45283 178.30673 110.97815 174.82077 111.28928 174.6711 C 111.51891 174.41328 115.8055 177.62656 120.73073 181.79987 C 133.25424 192.4561 135.12562 193.58939 139.25484 193.10604 C 142.504 192.6924 142.73362 192.43458 143.11856 189.00757 C 143.39689 186.33915 142.94634 184.72867 141.5209 183.17457 C 138.12772 179.79677 130.28495 172.98938 125.65905 169.43833 C 123.29869 167.65614 121.95474 166.2102 122.71334 166.3168 C 123.47194 166.42342 128.39564 169.91963 133.70018 174.14624 C 138.90989 178.35953 144.64703 182.26016 146.3139 182.78451 C 151.76195 184.61386 157.24948 179.97002 155.43705 174.97712 C 155.0962 173.96224 152.8573 172.00373 150.52514 170.70899 C 146.38976 168.48394 139.90427 163.02768 137.09336 159.635 C 136.34656 158.75647 131.62122 153.1608 126.73288 147.34881 C 120.67693 140.21236 116.00336 133.56029 112.73883 127.20294 C 98.7294 100.28608 91.39152 89.19826 84.39346 84.63694 Z" fill="#FFFFFF"/>
        </g>
        <g id="Graphic_27">
          <path d="M 56.43814 100.53107 C 58.4638 104.00678 57.893826 109.43843 55.51142 109.87719 C 53.23717 110.23444 46.9075 107.7977 45.69836 106.08061 C 45.059703 105.12058 45.831627 105.13237 49.2735 106.09958 C 54.029597 107.34819 55.651866 106.12572 51.449856 104.3748 C 48.15611 103.04161 45.85367 102.91142 42.334906 103.86735 C 37.719767 105.05599 37.335856 102.97139 41.59374 99.5085 C 44.87826 96.77909 45.784986 96.51973 50.05209 97.11943 C 54.12955 97.69248 55.11931 98.21837 56.43814 100.53107 Z" fill="#FFFFFF"/>
        </g>
        <g id="Graphic_26">
          <path d="M 323.69484 150.17874 C 328.1757 155.44997 326.19667 160.5869 318.87468 162.45878 C 314.1514 163.72892 313.59576 163.55413 313.9689 160.89904 C 314.38204 157.95948 311.29845 153.7549 307.16307 151.52986 C 305.35987 150.59955 304.07077 149.4514 304.34038 148.90911 C 304.59666 148.46164 307.57466 147.9132 310.892 147.70253 C 314.30413 147.5052 317.36364 147.0649 317.6881 146.82041 C 318.9859 145.84244 320.8573 146.97572 323.69484 150.17874 Z" fill="#FFFFFF"/>
        </g>
        <g id="Graphic_25">
          <path d="M 50.07413 112.78753 C 54.02754 118.37142 54.458095 129.06866 50.8891 131.75809 C 47.860865 134.04003 46.79832 131.27986 47.25245 122.54421 C 47.56768 118.23713 47.62509 113.70041 47.513864 112.42771 C 47.294486 111.23651 47.427754 110.28826 47.71223 110.32824 C 48.091526 110.38155 49.096154 111.48972 50.07413 112.78753 Z" fill="#FFFFFF"/>
        </g>
        <g id="Graphic_24">
          <path d="M 59.488416 113.91723 C 63.44901 116.6979 63.91134 117.53645 63.86726 121.97834 C 63.842655 129.0338 61.05891 131.6402 58.178295 127.36746 C 56.249 124.58217 52.10389 112.10582 52.860946 111.53533 C 53.94246 110.72036 56.05679 111.501 59.488416 113.91723 Z" fill="#FFFFFF"/>
        </g>
        <g id="Graphic_23">
          <path d="M 320.34984 173.97971 C 321.46415 175.68348 322.254 177.63174 322.16073 178.29552 C 321.76093 181.14025 317.91053 185.1439 313.90586 186.80512 C 309.37376 188.77901 308.15436 188.51094 308.55416 185.6662 C 309.15387 181.3991 300.84724 173.07606 295.1711 172.18163 C 290.52468 171.52862 294.4494 170.43634 300.59813 170.7203 C 304.3496 170.86075 308.27585 170.44557 310.1426 169.54756 C 313.97096 167.76486 317.4277 169.31434 320.34984 173.97971 Z" fill="#FFFFFF"/>
        </g>
        <g id="Graphic_22">
          <path d="M 123.73484 300.09637 C 133.20859 303.55516 139.56799 307.15645 147.01659 313.32825 C 151.35801 316.83933 155.38678 319.82297 156.14537 319.9296 C 158.42116 320.24943 155.0003 322.5729 149.4118 324.495 C 146.57014 325.4494 143.49885 326.6616 142.64696 327.21877 C 137.23786 330.61657 131.2962 326.107 124.4145 313.14936 C 121.81682 308.2395 118.17453 302.50594 116.2601 300.30293 L 112.66241 296.3162 L 115.90131 297.35158 C 117.663 297.88926 121.25454 299.1676 123.73484 300.09637 Z" fill="#FFFFFF"/>
        </g>
        <g id="Graphic_21">
          <path d="M 187.0828 335.10768 C 187.05614 335.29733 186.81215 341.1616 186.50307 348.17707 C 186.01357 359.2285 186.22116 361.1916 187.82446 363.5443 C 188.8706 365.0451 190.6205 366.3547 191.66358 366.5013 C 194.40016 366.9826 201.2219 371.42243 201.04865 372.65515 C 200.9287 373.50857 193.8302 372.41424 186.47231 370.4132 C 185.0766 370.02363 184.30621 370.68894 183.053 373.41374 C 181.20724 377.6024 176.39374 380.89053 170.53255 382.00074 C 168.2583 382.358 165.09218 383.5569 163.40174 384.5764 L 160.42681 386.47902 L 160.8666 383.3498 C 161.18644 381.074 162.5227 379.13447 165.83387 376.2154 C 171.26655 371.27377 171.01898 369.59512 165.32694 373.63004 C 160.16233 377.3523 158.4437 377.88433 151.59121 377.79155 C 142.62593 377.59524 144.69413 375.95195 159.9855 371.0421 C 162.00193 370.4552 163.80052 369.3542 163.89381 368.69044 C 164.01375 367.837 163.34998 367.74373 161.3069 368.52027 C 156.4488 370.06155 150.4646 370.671 148.29542 369.59255 C 145.29948 368.20453 147.15291 367.40134 157.02185 365.9841 C 172.2112 363.86413 173.90011 362.16754 176.23383 346.25033 C 177.06009 340.3712 177.9294 335.5618 178.3087 335.6151 C 178.59317 335.6551 179.1903 336.2225 179.7608 336.97957 C 180.57577 338.06108 181.27952 337.8699 183.1181 336.48443 C 185.17297 334.93597 186.99975 334.32243 187.0828 335.10768 Z" fill="#FFFFFF"/>
        </g>
        <g id="Graphic_20">
          <path d="M 138.90318 330.46382 L 141.74792 330.86362 L 140.48445 335.03744 C 139.77198 337.35475 138.46699 341.13595 137.56487 343.4266 C 133.1891 354.60873 134.674 358.4919 143.58751 359.74463 C 146.33742 360.1311 148.5599 360.83025 148.47995 361.3992 C 148.41331 361.8733 147.11396 362.1742 145.50194 361.94764 C 143.98475 361.7344 140.85707 361.97173 138.651 362.53196 C 134.94258 363.46124 134.46846 363.3946 132.4874 361.66573 C 130.50633 359.93684 130.31668 359.9102 129.11523 361.5786 C 128.39968 362.5417 125.46473 364.15987 122.52825 365.10094 C 119.57843 366.13683 115.80493 368.21733 114.04785 369.71095 C 112.27745 371.2994 110.56036 372.50853 110.08623 372.4419 C 108.75869 372.2553 111.60599 367.8206 115.38975 364.2911 C 119.52462 360.3274 118.9244 358.4058 114.72136 362.1665 C 110.96426 365.50637 98.96203 369.7181 99.26854 367.53715 C 99.70832 364.40794 103.26399 361.81334 107.48804 361.3433 C 111.41429 360.92814 115.93153 358.37198 115.03506 357.1823 C 114.79056 356.85786 113.00376 357.18692 111.15032 357.9901 C 109.21539 358.68515 106.1159 359.4099 104.26093 359.536 C 102.40596 359.6621 100.2132 360.1275 99.57762 360.52167 C 98.63091 361.0655 98.25161 361.0122 98.3449 360.34842 C 98.57146 358.7364 100.92567 357.8102 109.53523 356.40936 C 116.37131 355.24276 118.83368 354.23506 122.416 351.4508 C 127.20131 347.67525 128.61599 344.48966 130.1619 333.49 L 130.9615 327.80053 L 133.50997 328.93228 C 134.87903 329.51147 137.29117 330.23727 138.90318 330.46382 Z" fill="#FFFFFF"/>
        </g>
        <g id="Graphic_19">
          <path d="M 63.16095 91.22596 C 61.96975 91.44534 60.40079 92.28851 59.617076 93.04864 C 58.29261 94.21626 58.523774 94.63554 61.29009 96.28139 C 66.74122 99.46494 72.91046 96.85085 69.21794 92.85079 C 67.20868 90.63446 66.27376 90.40637 63.16095 91.22596 Z" fill="black"/>
        </g>
        <g id="Graphic_18">
          <path d="M 62.76115 94.0707 C 62.97899 94.5848 62.72271 95.03227 62.248586 94.96564 C 61.67964 94.88568 61.27215 94.34492 61.33878 93.8708 C 61.41874 93.30185 61.6617 92.9492 61.85135 92.97586 C 62.13582 93.01584 62.55664 93.46177 62.76115 94.0707 Z" fill="#FFFFFF"/>
        </g>
        <g id="Graphic_17">
          <path d="M 229.6191 216.15254 C 230.6104 217.35553 231.9159 219.76305 232.54276 221.495 C 233.56533 224.53965 233.44385 224.71597 231.14602 226.61708 C 228.41558 228.84417 223.55595 229.70836 217.8798 228.81393 C 215.79366 228.52074 213.78901 228.3357 213.40972 228.2824 C 213.0171 228.32392 213.3195 230.30037 214.0294 232.81758 C 215.18985 236.94527 215.20472 237.52754 213.4092 239.98273 C 210.50705 244.11964 205.73046 245.76908 200.36544 244.72498 C 196.23313 243.85413 195.82718 243.99047 196.15625 245.77727 C 197.66524 254.30534 195.73338 256.35457 187.294 255.1685 C 182.36311 254.4755 180.53325 253.73485 178.49734 251.70816 L 175.85097 249.2089 L 175.91504 253.5693 C 175.8889 259.94765 174.29328 260.98047 167.4777 259.24902 C 164.4833 258.5381 160.47093 256.81382 158.53138 255.47756 C 153.51286 251.96803 152.60613 252.22738 155.39192 256.4868 C 158.17771 260.74622 158.28894 262.01892 156.09618 262.48433 C 153.79528 263.03124 142.7864 257.42274 137.23737 252.87167 C 134.53769 250.7517 132.31367 249.37546 132.26036 249.75476 C 131.95384 251.93573 147.03608 262.2747 152.90341 263.87287 C 156.62976 264.88006 159.60623 263.65452 159.35712 261.29877 C 159.13621 259.43047 159.43401 259.37562 164.17678 260.71906 C 166.88671 261.39 170.6797 261.92308 172.52134 261.8918 C 175.44604 261.72266 176.09495 261.23368 177.05037 258.56372 L 178.07243 255.41965 L 184.34571 256.8815 C 194.27718 259.14754 198.67294 256.7677 198.89898 248.96697 C 198.98766 246.2719 199.19064 246.20373 202.99695 246.64197 C 210.71772 247.43697 217.5697 241.34103 216.59275 234.5316 C 216.277 232.64997 216.11094 231.07947 216.12426 230.98464 C 216.15092 230.795 217.30214 230.8601 218.62968 231.04666 C 223.08644 231.67302 229.43507 230.53461 232.23368 228.5105 C 235.55972 226.1737 235.70785 225.80774 234.49256 221.38225 C 233.50843 217.37604 231.40282 214.46928 229.31667 214.1761 C 228.08395 214.00284 228.12547 214.39547 229.6191 216.15254 Z" fill="black"/>
        </g>
      </g>
    </g>
  </g>
</svg>
