<?xml version="1.0" encoding="UTF-8" standalone="no"?>
<!DOCTYPE svg PUBLIC "-//W3C//DTD SVG 1.1//EN" "http://www.w3.org/Graphics/SVG/1.1/DTD/svg11.dtd">
<svg xmlns="http://www.w3.org/2000/svg" xmlns:xl="http://www.w3.org/1999/xlink" version="1.1" xmlns:dc="http://purl.org/dc/elements/1.1/" viewBox="45 58.71797 135 359.78203" width="135" height="359.78203">
  <defs>
    <clipPath id="artboard_clip_path">
      <path d="M 45 58.71797 L 180 58.71797 L 180 418.5 L 45 418.5 Z"/>
    </clipPath>
  </defs>
  <g id="Key_(4)" stroke-opacity="1" fill="none" fill-opacity="1" stroke-dasharray="none" stroke="none">
    <title>Key (4)</title>
    <g id="Key_(4)_Layer_2" clip-path="url(#artboard_clip_path)">
      <title>Layer 2</title>
      <g id="Group_3">
        <g id="Graphic_6">
          <path d="M 113.13744 63.68264 C 110.58587 64.08253 106.91984 65.78115 106.01605 66.93406 C 105.94624 67.00635 105.85463 73.97288 105.78782 82.36039 L 105.62816 97.64338 L 103.00307 97.90241 L 100.30692 98.16268 L 100.15066 89.2105 C 100.03657 82.67399 99.78001 80.19099 99.13685 79.989005 C 98.63703 79.85559 92.94814 79.670605 86.47896 79.57031 L 74.74966 79.419695 L 74.90716 88.44293 L 75.06466 97.46616 L 72.43957 97.72519 L 69.74342 97.98547 L 69.58344 88.82014 L 69.42346 79.65481 L 59.752104 79.32612 C 54.418464 79.13494 49.94113 79.14202 49.730465 79.28784 C 49.59209 79.50347 49.407985 89.31444 49.401946 101.18336 C 49.367184 127.69334 48.190714 125.43961 61.40088 124.92474 L 70.56249 124.55162 L 70.46948 119.22294 L 70.376464 113.89426 L 72.64631 113.64142 L 74.91616 113.38859 L 74.93069 118.29222 C 74.97905 121.06313 75.23685 123.61718 75.45743 124.03975 C 75.75031 124.53213 78.31304 124.77168 81.65234 124.7134 C 87.40732 124.61294 87.33503 124.54313 87.6015 127.59452 C 87.68372 128.23272 86.26645 128.47067 82.28523 128.39803 C 78.37381 128.25309 76.7434 128.49476 76.11636 129.21641 C 75.69999 129.79224 75.3171 132.2864 75.218405 134.7756 C 75.08339 139.25541 75.01482 139.39875 73.100215 139.64538 C 70.831605 139.96926 70.61102 139.54669 70.14912 133.44267 C 69.76819 127.9058 69.76819 127.9058 58.75434 128.02698 C 51.93239 128.07499 51.15333 128.23073 50.74812 129.446 C 50.008747 131.87531 50.442607 173.01768 51.24895 174.42502 C 51.908234 175.55065 52.97645 175.67414 61.715486 175.5216 L 71.44921 175.3517 L 71.14465 166.04675 C 70.98307 160.86141 70.69055 156.31799 70.54101 155.89418 C 70.31794 155.3295 71.097 155.17376 72.94676 155.28362 L 75.72263 155.51945 L 75.88137 164.61373 C 76.01283 172.14493 76.25574 173.84639 77.19302 174.6118 C 78.633845 175.72379 97.8993 176.02714 99.37397 175.00641 C 100.56816 174.2038 101.38003 155.5691 100.40678 152.74325 C 100.03293 151.68372 99.77266 148.98757 99.87507 146.71152 L 100.01505 142.5159 L 102.50177 142.4725 L 104.98849 142.4291 L 105.26752 158.41513 C 105.61973 178.59307 105.73339 246.17934 105.42775 249.0275 C 105.3055 250.16677 105.3271 259.54772 105.4334 269.70898 C 105.54093 279.9413 105.40803 288.61423 105.13128 289.0455 C 104.92433 289.40445 103.37366 290.14223 101.67592 290.5983 C 96.72605 292.03503 87.82843 295.31745 86.987 295.97177 C 86.56691 296.33446 84.66843 297.50473 82.76747 298.5329 C 76.36277 302.12716 67.06206 310.818 63.18873 316.9266 C 54.26399 330.8701 51.156596 344.21458 53.06852 360.10104 C 54.23311 369.8174 56.09491 374.6888 64.01996 388.9778 C 66.149836 392.9206 76.46611 401.69543 83.93211 405.9715 C 94.05544 411.8358 103.55085 414.2997 115.13185 414.09753 C 124.43928 413.93507 137.95508 410.57204 141.24354 407.60074 C 141.80325 407.09347 143.70174 405.9232 145.46308 405.0396 C 150.67483 402.319 154.66881 399.0511 160.04038 393.2717 C 164.92452 388.06936 165.8944 386.631 169.19439 380.2481 C 173.665 371.71267 176.50716 355.38787 175.39873 344.81768 C 174.88067 339.5675 170.639 324.57454 169.11473 322.7533 C 168.7508 322.26216 167.43348 320.08196 166.25949 317.97033 C 165.0855 315.8587 162.61154 312.56156 160.72954 310.60443 C 158.91983 308.7171 156.81848 306.40846 156.0233 305.64056 C 151.02046 299.97116 136.24049 291.98494 129.4049 291.2514 L 125.70167 290.81855 L 125.67742 269.07134 C 125.68098 257.06032 125.66985 227.92152 125.61212 204.25598 C 125.48335 180.59168 125.53423 155.00534 125.61468 147.39937 C 125.69513 139.7934 125.67584 118.33038 125.63388 99.63951 L 125.5409 65.81147 L 122.60184 64.37029 C 119.51945 62.86054 118.66562 62.80437 113.13744 63.68264 Z M 125.6871 314.4143 L 125.6871 314.4143 C 131.83081 316.22595 138.00552 319.81385 142.70308 324.2804 C 146.8971 328.40035 151.3365 334.36387 151.36627 336.06904 C 151.37619 336.63744 151.60298 337.41526 151.89213 337.6945 C 153.11981 338.8102 154.42686 344.47304 154.88752 350.506 C 155.34074 356.1127 155.22344 357.53614 153.74221 362.25267 C 149.76983 374.9015 147.34388 378.42633 138.36245 385.05054 C 133.02969 388.98144 129.00842 390.68626 121.7102 391.9508 C 114.6239 393.14053 104.2945 391.7573 98.05867 388.739 C 95.19066 387.2966 94.54254 386.8104 88.34179 381.7305 C 81.34585 375.88265 76.37722 364.0295 76.2486 352.58936 C 76.1283 345.6976 76.84784 342.1315 79.7302 336.2534 C 81.58156 332.38326 88.74831 323.58754 90.0272 323.5652 C 90.31139 323.56025 91.64272 322.47096 92.97033 321.1685 C 95.97583 318.27322 102.1013 314.9681 106.2085 314.11465 C 112.15678 312.8737 120.61658 313.0103 125.6871 314.4143 Z" fill="black"/>
        </g>
        <g id="Graphic_5">
          <path d="M 122.01201 67.22341 L 122.01201 67.22341 C 118.28397 65.36958 110.55327 66.286295 109.0336 68.800296 C 108.34295 69.94948 108.05695 90.20963 108.2123 123.53908 C 108.34408 155.5186 108.31068 222.82316 108.1457 241.873 C 108.12638 248.90932 107.94936 263.19763 107.91851 273.64556 C 107.73741 291.77176 107.68249 292.69663 106.4036 292.71896 C 105.62206 292.7326 104.42043 293.10893 103.71614 293.47657 C 102.94204 293.9165 100.75068 294.5944 98.76751 294.98437 C 96.78433 295.37434 91.56267 297.52653 87.26712 299.8047 C 80.92727 303.04248 78.32946 304.8646 74.0674 309.0611 C 67.01174 316.0781 60.21139 325.50707 60.25976 328.278 C 60.26844 328.77532 59.79838 330.3471 59.18374 331.77923 C 58.57034 333.2824 57.68515 335.50106 57.13908 336.78987 C 56.59301 338.07867 56.19772 339.86234 56.2126 340.71493 C 56.228724 341.63857 55.89208 342.7105 55.40342 343.21653 C 54.286476 344.37316 54.54779 363.41555 55.70814 364.74564 C 56.073306 365.30783 56.66278 366.50574 56.89329 367.4967 C 59.194666 377.19322 66.50916 389.0765 74.444855 395.83184 C 80.866195 401.33434 82.73455 402.50993 89.76185 406.08295 C 98.07795 410.20203 104.14069 411.44655 115.22434 411.2531 C 126.66324 411.0534 132.1117 409.67904 142.605 404.1656 C 148.80399 401.00133 150.90817 399.40105 155.65518 394.4854 C 161.59018 388.41184 167.13396 380.2841 168.7573 375.5651 C 169.2286 374.06437 169.97789 372.20346 170.32073 371.48676 C 173.06596 365.89533 173.95383 347.5436 171.77435 340.75884 C 171.17371 338.9215 170.1831 335.10096 169.49406 332.27016 C 167.12288 322.64593 164.26763 317.86296 156.09275 309.6193 C 151.3167 304.72772 140.96161 297.8014 138.617 297.84233 C 138.11965 297.851 136.68751 297.23637 135.46727 296.54696 C 134.2458 295.7865 131.52609 294.69685 129.52555 294.09213 C 127.45273 293.4176 125.73143 292.52373 125.72275 292.0264 C 125.71407 291.52904 125.20556 290.89828 124.49135 290.69754 C 123.27484 290.22128 123.11237 280.91385 123.45121 227.03633 C 123.53786 219.7856 123.35576 193.0662 123.12616 167.69796 C 122.96638 142.25743 122.819 117.5274 122.94657 112.62129 C 123.07415 107.71518 123.2198 95.70169 123.26181 85.8932 C 123.45407 68.40644 123.37558 67.98139 122.01201 67.22341 Z M 102.68865 311.9729 L 102.68865 311.9729 C 108.55472 310.09373 120.70659 310.02376 127.13573 311.90152 C 136.77944 314.71816 147.95699 323.97546 152.37247 332.6401 C 155.54044 339.05223 157.8195 347.46986 158.00216 353.86304 C 158.16002 358.83523 156.01418 366.19297 151.76044 374.93785 C 149.97765 378.66464 143.96665 384.4552 137.50578 388.9033 C 129.21625 394.4494 115.5323 396.32286 104.60846 393.4575 C 97.11235 391.5273 93.66727 389.59744 87.31574 384.02265 C 75.2608 373.35925 70.38749 354.7527 75.670125 339.80673 C 80.0052 327.57797 91.73433 315.50443 102.68865 311.9729 Z" fill="#FFFFFF"/>
        </g>
        <g id="Graphic_4">
          <path d="M 67.665475 84.80258 C 67.69276 86.36566 67.62631 90.70214 67.47765 94.40041 L 67.31127 101.15503 L 70.863725 101.09302 C 72.85434 101.12935 75.19152 100.66213 76.034185 100.07885 C 77.58238 99.19898 77.71456 98.62811 77.49805 94.36764 C 77.38112 91.74007 77.2431 87.90466 77.27818 85.84299 L 77.28474 82.1472 L 87.44476 81.96986 L 97.60478 81.79252 L 97.48924 91.46015 C 97.37619 101.26988 97.91694 103.74792 99.80178 101.79611 C 100.29044 101.29008 101.70522 100.91003 103.05515 100.88647 L 105.47082 100.84431 L 105.43802 119.32326 C 105.33117 129.48824 105.12722 138.16243 104.92028 138.5214 C 104.71457 138.95141 102.87225 139.26785 100.88288 139.30258 L 97.33043 139.36458 L 97.89862 155.62986 C 98.12593 164.5808 98.18634 172.11324 97.97691 172.33011 C 97.76749 172.54698 93.29636 172.9093 88.03997 173.07213 L 78.52187 173.3804 L 78.35161 167.69772 C 78.22723 164.64385 78.07681 160.09795 77.96236 157.61247 L 77.81442 153.20867 L 73.55147 153.28308 C 68.43594 153.37237 68.64165 152.94236 68.56332 164.74147 L 68.56384 172.91459 L 61.391604 173.253 L 54.21937 173.5914 L 53.727345 169.83324 C 53.407184 167.77778 53.026615 158.18987 52.85671 148.45615 L 52.55039 130.90703 L 57.73697 130.8165 C 60.50789 130.76813 64.06406 130.91927 65.48876 131.10761 L 68.12502 131.48802 L 68.07841 136.96128 L 68.03057 142.36349 L 71.94199 142.50843 C 75.56797 142.58728 75.920735 142.43898 76.74232 140.64787 C 77.15001 139.5747 77.53042 136.93844 77.493215 134.80696 L 77.42377 130.82822 L 83.46666 130.93595 L 89.50955 131.04368 L 89.42894 126.4255 L 89.34709 121.73625 L 83.09477 121.84539 L 76.9135 121.95328 L 77.03487 116.69193 L 77.22854 111.50039 L 74.94629 111.04273 C 73.66368 110.85191 71.59954 110.67472 70.24961 110.69829 L 67.90499 110.73921 L 67.787334 116.21371 L 67.67092 121.75926 L 60.427635 122.0989 L 53.1133 122.43979 L 52.920716 115.47822 C 52.85375 111.64157 52.62272 102.47748 52.42393 95.16067 L 51.97763 81.80716 L 59.8678 81.88265 L 67.68692 81.95938 L 67.665475 84.80258 Z" fill="#FFFFFF"/>
        </g>
      </g>
    </g>
  </g>
</svg>
