<?xml version="1.0" encoding="UTF-8" standalone="no"?>
<!DOCTYPE svg PUBLIC "-//W3C//DTD SVG 1.1//EN" "http://www.w3.org/Graphics/SVG/1.1/DTD/svg11.dtd">
<svg xmlns:xl="http://www.w3.org/1999/xlink" xmlns="http://www.w3.org/2000/svg" xmlns:dc="http://purl.org/dc/elements/1.1/" version="1.1" viewBox="49.5 72 265.5 297" width="265.5" height="297">
  <defs>
    <clipPath id="artboard_clip_path">
      <path d="M 49.5 72 L 315 72 L 315 345.58533 L 315 369 L 49.5 369 Z"/>
    </clipPath>
  </defs>
  <g id="Knot_of_Two_Hearts_Voided_and_Braced" stroke-opacity="1" stroke="none" stroke-dasharray="none" fill="none" fill-opacity="1">
    <title>Knot of Two Hearts Voided and Braced</title>
    <g id="Knot_of_Two_Hearts_Voided_and_Braced_Content" clip-path="url(#artboard_clip_path)">
      <title>Content</title>
      <g id="Group_1081">
        <g id="Graphic_1103">
          <path d="M 138.87822 136.51608 C 122.97664 117.75779 95.1018 113.87167 74.5547 128.2589 C 52.766195 143.51538 47.46838 173.54273 62.721786 195.32685 L 80.21013 220.3028 L 62.71083 245.2944 C 47.457423 267.0785 52.755236 297.10587 74.54374 312.36234 C 95.09601 326.7532 122.97971 322.8615 138.87926 304.091 L 166.70107 343.82466 L 182.25 366.44167 L 197.79893 343.82466 L 225.62074 304.091 C 241.5203 322.8615 269.404 326.7532 289.95626 312.36234 C 311.74476 297.10587 317.04258 267.0785 301.78917 245.2944 L 284.28987 220.3028 L 301.7782 195.32685 C 317.0316 173.54273 311.7338 143.51538 289.9453 128.2589 C 269.3982 113.87167 241.52336 117.75779 225.62178 136.51608 L 197.79893 96.78094 L 182.25 74.55833 L 166.70107 96.78094 Z M 95.75906 242.50897 L 123.4556 282.06373 L 120.74712 285.93184 L 120.73785 285.92535 C 113.55139 296.1887 99.40552 298.68296 89.14221 291.4965 C 78.87889 284.31006 76.38458 270.1642 83.57105 259.90087 L 83.57781 259.9056 Z M 182.25 321.61848 L 154.55346 282.06373 L 182.25 242.50897 L 209.94654 282.06373 Z M 139.00453 259.85755 L 111.308 220.3028 L 139.00453 180.74805 L 166.70107 220.3028 Z M 95.75906 198.09662 L 83.58877 180.71564 L 83.59804 180.70915 C 76.41157 170.44581 78.90588 156.29996 89.1692 149.1135 C 99.43251 141.92706 113.57837 144.42134 120.76484 154.68467 L 120.75808 154.6894 L 123.4556 158.54187 Z M 268.74094 198.09662 L 241.0444 158.54187 L 243.74192 154.6894 L 243.73516 154.68467 C 250.92163 144.42134 265.0675 141.92706 275.3308 149.1135 C 285.5941 156.29996 288.08843 170.44581 280.90196 180.70915 L 280.91123 180.71564 Z M 182.25 118.98712 L 209.94654 158.54187 L 182.25 198.09662 L 154.55346 158.54187 Z M 225.49547 180.74805 L 253.192 220.3028 L 225.49547 259.85755 L 197.79893 220.3028 Z M 268.74094 242.50897 L 280.9222 259.9056 L 280.92895 259.90087 C 288.11542 270.1642 285.6211 284.31006 275.3578 291.4965 C 265.09448 298.68296 250.9486 296.1887 243.76215 285.92535 L 243.75288 285.93184 L 241.0444 282.06373 Z" fill="#FFFFFF"/>
          <path d="M 138.87822 136.51608 C 122.97664 117.75779 95.1018 113.87167 74.5547 128.2589 C 52.766195 143.51538 47.46838 173.54273 62.721786 195.32685 L 80.21013 220.3028 L 62.71083 245.2944 C 47.457423 267.0785 52.755236 297.10587 74.54374 312.36234 C 95.09601 326.7532 122.97971 322.8615 138.87926 304.091 L 166.70107 343.82466 L 182.25 366.44167 L 197.79893 343.82466 L 225.62074 304.091 C 241.5203 322.8615 269.404 326.7532 289.95626 312.36234 C 311.74476 297.10587 317.04258 267.0785 301.78917 245.2944 L 284.28987 220.3028 L 301.7782 195.32685 C 317.0316 173.54273 311.7338 143.51538 289.9453 128.2589 C 269.3982 113.87167 241.52336 117.75779 225.62178 136.51608 L 197.79893 96.78094 L 182.25 74.55833 L 166.70107 96.78094 Z M 95.75906 242.50897 L 123.4556 282.06373 L 120.74712 285.93184 L 120.73785 285.92535 C 113.55139 296.1887 99.40552 298.68296 89.14221 291.4965 C 78.87889 284.31006 76.38458 270.1642 83.57105 259.90087 L 83.57781 259.9056 Z M 182.25 321.61848 L 154.55346 282.06373 L 182.25 242.50897 L 209.94654 282.06373 Z M 139.00453 259.85755 L 111.308 220.3028 L 139.00453 180.74805 L 166.70107 220.3028 Z M 95.75906 198.09662 L 83.58877 180.71564 L 83.59804 180.70915 C 76.41157 170.44581 78.90588 156.29996 89.1692 149.1135 C 99.43251 141.92706 113.57837 144.42134 120.76484 154.68467 L 120.75808 154.6894 L 123.4556 158.54187 Z M 268.74094 198.09662 L 241.0444 158.54187 L 243.74192 154.6894 L 243.73516 154.68467 C 250.92163 144.42134 265.0675 141.92706 275.3308 149.1135 C 285.5941 156.29996 288.08843 170.44581 280.90196 180.70915 L 280.91123 180.71564 Z M 182.25 118.98712 L 209.94654 158.54187 L 182.25 198.09662 L 154.55346 158.54187 Z M 225.49547 180.74805 L 253.192 220.3028 L 225.49547 259.85755 L 197.79893 220.3028 Z M 268.74094 242.50897 L 280.9222 259.9056 L 280.92895 259.90087 C 288.11542 270.1642 285.6211 284.31006 275.3578 291.4965 C 265.09448 298.68296 250.9486 296.1887 243.76215 285.92535 L 243.75288 285.93184 L 241.0444 282.06373 Z" stroke="black" stroke-linecap="round" stroke-linejoin="round" stroke-width="2"/>
        </g>
        <g id="Group_1100">
          <g id="Line_1102">
            <line x1="138.96279" y1="136.31402" x2="123.4153" y2="158.52961" stroke="black" stroke-linecap="round" stroke-linejoin="round" stroke-width="2"/>
          </g>
          <g id="Line_1101">
            <line x1="154.53516" y1="158.52944" x2="138.98767" y2="180.79972" stroke="black" stroke-linecap="round" stroke-linejoin="round" stroke-width="2"/>
          </g>
        </g>
        <g id="Group_1097">
          <g id="Line_1099">
            <path d="M 225.5956 136.5893 C 223.87513 138.84487 209.86088 158.72099 209.86088 158.72099" stroke="black" stroke-linecap="round" stroke-linejoin="round" stroke-width="2"/>
          </g>
          <g id="Line_1098">
            <line x1="241.02645" y1="158.72099" x2="225.43325" y2="180.89986" stroke="black" stroke-linecap="round" stroke-linejoin="round" stroke-width="2"/>
          </g>
        </g>
        <g id="Group_1094">
          <g id="Line_1096">
            <path d="M 138.99249 304.01745 C 140.71296 301.76188 154.72721 281.88576 154.72721 281.88576" stroke="black" stroke-linecap="round" stroke-linejoin="round" stroke-width="2"/>
          </g>
          <g id="Line_1095">
            <line x1="123.56164" y1="281.88576" x2="139.15484" y2="259.7069" stroke="black" stroke-linecap="round" stroke-linejoin="round" stroke-width="2"/>
          </g>
        </g>
        <g id="Group_1091">
          <g id="Line_1093">
            <line x1="225.51746" y1="304.2107" x2="241.04507" y2="282.04907" stroke="black" stroke-linecap="round" stroke-linejoin="round" stroke-width="2"/>
          </g>
          <g id="Line_1092">
            <line x1="209.8795" y1="282.09443" x2="225.4727" y2="259.8702" stroke="black" stroke-linecap="round" stroke-linejoin="round" stroke-width="2"/>
          </g>
        </g>
        <g id="Group_1088">
          <g id="Line_1090">
            <line x1="182.34576" y1="242.61697" x2="166.69504" y2="220.28216" stroke="black" stroke-linecap="round" stroke-linejoin="round" stroke-width="2"/>
          </g>
          <g id="Line_1089">
            <line x1="197.81627" y1="220.28216" x2="182.2674" y2="198.1033" stroke="black" stroke-linecap="round" stroke-linejoin="round" stroke-width="2"/>
          </g>
        </g>
        <g id="Group_1085">
          <g id="Line_1087">
            <line x1="268.73562" y1="242.4964" x2="253.0849" y2="220.16158" stroke="black" stroke-linecap="round" stroke-linejoin="round" stroke-width="2"/>
          </g>
          <g id="Line_1086">
            <line x1="284.20614" y1="220.16158" x2="268.65727" y2="197.98272" stroke="black" stroke-linecap="round" stroke-linejoin="round" stroke-width="2"/>
          </g>
        </g>
        <g id="Group_1082">
          <g id="Line_1084">
            <line x1="95.71044" y1="242.47578" x2="80.05972" y2="220.14097" stroke="black" stroke-linecap="round" stroke-linejoin="round" stroke-width="2"/>
          </g>
          <g id="Line_1083">
            <line x1="111.18096" y1="220.14097" x2="95.63209" y2="197.9621" stroke="black" stroke-linecap="round" stroke-linejoin="round" stroke-width="2"/>
          </g>
        </g>
      </g>
    </g>
  </g>
</svg>
