<?xml version="1.0" encoding="UTF-8" standalone="no"?>
<!DOCTYPE svg PUBLIC "-//W3C//DTD SVG 1.1//EN" "http://www.w3.org/Graphics/SVG/1.1/DTD/svg11.dtd">
<svg xmlns:xl="http://www.w3.org/1999/xlink" xmlns="http://www.w3.org/2000/svg" xmlns:dc="http://purl.org/dc/elements/1.1/" version="1.1" viewBox="33.75 60.13128 297 301.5" width="297" height="301.5">
  <defs>
    <clipPath id="artboard_clip_path">
      <path d="M 33.75 60.13128 L 330.75 60.13128 L 330.75 361.6313 L 255.32143 361.6313 L 33.75 361.6313 Z"/>
    </clipPath>
  </defs>
  <g id="Knot,_Lacy_(2)" stroke-opacity="1" stroke="none" stroke-dasharray="none" fill="none" fill-opacity="1">
    <title>Knot, Lacy (2)</title>
    <g id="Knot,_Lacy_(2)_Layer_2" clip-path="url(#artboard_clip_path)">
      <title>Layer 2</title>
      <g id="Group_3">
        <g id="Graphic_28">
          <path d="M 183.64096 63.22901 C 179.37827 63.9515 171.7199 68.93668 171.7199 70.8874 C 171.7199 71.46539 171.2864 72.18788 170.78066 72.47687 C 169.11893 73.48836 167.38496 79.05152 167.38496 83.4587 C 167.38496 88.22713 169.04668 91.47833 172.94812 94.07929 L 175.26009 95.59652 L 170.05817 100.94294 C 167.16821 103.90514 162.03854 108.89032 158.64284 112.06927 C 155.1749 115.24822 146.79402 123.26785 139.93038 129.91475 C 133.06673 136.56164 127.28682 141.90806 126.99782 141.83581 C 119.91743 138.58461 118.47245 138.00662 114.57101 136.70614 C 110.01933 135.26116 102.64995 134.46643 102.07195 135.40566 C 101.85521 135.7669 102.50545 139.3071 103.51693 143.2808 C 104.60067 147.18223 105.6844 151.51717 105.9734 153.0344 C 106.26239 154.47937 107.12938 156.93583 107.99636 158.5253 L 109.51359 161.41527 L 97.37578 173.19184 C 81.11977 189.0866 70.93268 198.4067 69.6322 198.4067 C 69.05421 198.4067 67.320234 197.39522 65.80301 196.16699 C 60.23984 191.68755 54.53218 190.17033 48.53552 191.54306 C 39.576657 193.63827 35.241723 199.85168 36.10871 209.38853 C 36.469955 213.79572 36.614452 214.0847 40.443644 217.6249 C 43.622596 220.5871 45.501067 221.67085 49.619254 222.89908 C 55.90491 224.8498 58.144624 224.48855 67.10349 220.00912 C 67.970474 219.57563 69.55995 220.7316 73.96713 225.2833 C 77.073835 228.5345 84.29873 235.75938 90.00639 241.32255 C 95.71405 246.95796 101.56621 252.81012 103.01119 254.3996 C 104.45617 255.91682 107.05713 258.66228 108.71885 260.39626 C 112.3313 264.0087 112.40355 263.21396 107.27387 273.83455 C 105.10641 278.38623 104.52842 280.48145 104.38392 284.31064 C 104.16717 288.71782 104.23942 289.07907 105.75665 289.1513 C 107.99636 289.2958 114.49876 286.98385 121.00117 283.8049 C 122.66289 282.9379 125.11935 282.07092 126.49208 281.85418 C 128.7318 281.4207 129.23754 281.70968 132.77774 285.32213 C 137.97966 290.66854 156.98112 310.75374 160.16007 314.29393 C 161.5328 315.81116 163.77251 318.19537 165.073 319.5681 C 167.7462 322.3858 167.8907 323.3973 166.01223 325.13127 C 163.12227 327.73223 159.22083 337.70258 159.22083 342.6155 C 159.22083 345.8667 160.66581 350.1294 161.6773 350.1294 C 162.03854 350.1294 162.68878 350.92412 163.05002 351.86336 C 163.41127 352.8026 165.073 354.6088 166.80697 355.7648 C 176.34382 362.2672 187.6869 357.78777 190.7936 346.22795 C 191.5161 343.69923 191.87733 340.80928 191.58834 339.87004 C 190.5046 336.04085 188.2649 331.9949 186.53092 330.91118 C 185.51943 330.26094 184.7247 329.39395 184.7247 328.8882 C 184.79694 327.94897 191.58834 320.50734 192.45533 320.50734 C 192.81657 320.50734 198.52423 314.94417 205.17113 308.22503 C 211.81803 301.43363 217.6702 295.9427 218.24818 295.9427 C 218.75392 295.9427 219.83766 295.07573 220.4879 293.992 C 221.21039 292.90826 223.37785 290.52405 225.32857 288.64557 L 228.94102 285.24988 L 232.98696 287.41734 C 237.53864 289.94605 243.60754 292.4025 245.775 292.61926 C 246.56975 292.76376 248.08698 293.05276 249.09846 293.34175 C 252.06067 294.20874 255.74536 292.90826 256.2511 290.81304 C 256.9736 287.9231 254.87837 275.35178 253.36115 273.1843 C 253.07215 272.75082 252.2774 270.9446 251.55492 269.13837 L 250.3267 265.74267 L 253.65014 262.27473 C 255.45636 260.39626 256.9736 258.59003 256.9736 258.2288 C 256.9736 257.9398 257.47933 257.6508 258.05732 257.6508 C 258.63532 257.6508 259.14106 257.28955 259.14106 256.9283 C 259.14106 255.98907 261.81427 253.31586 262.7535 253.31586 C 263.187 253.31586 263.476 252.95462 263.476 252.52113 C 263.476 251.8709 279.8765 235.25364 280.59898 235.25364 C 280.74348 235.25364 283.4167 232.65268 286.59564 229.47373 C 289.7746 226.29478 292.66455 223.69382 293.09804 223.69382 C 293.96503 223.69382 297.07173 225.64454 299.45594 227.6675 C 301.7679 229.61822 309.35404 232.36368 312.60524 232.36368 C 315.56745 232.36368 320.6971 230.34071 323.08133 228.2455 C 323.94832 227.523 325.46555 225.64454 326.54928 224.05506 C 328.28325 221.52635 328.5 220.51486 328.5 215.16845 C 328.5 209.89428 328.211 208.4493 326.33253 204.6201 C 324.6708 201.00766 323.51483 199.63493 320.48037 197.75646 C 313.61673 193.27703 306.53634 193.99952 300.03393 199.92393 L 296.277 203.31963 L 292.7368 199.27369 C 289.12435 195.22775 279.22625 185.5464 271.06213 178.10476 C 266.22145 173.69758 256.6846 164.30522 254.30038 161.55976 C 252.7109 159.6813 252.7109 159.6813 253.93914 156.86358 C 255.8176 152.7454 256.9736 149.4942 258.12957 144.94252 C 260.29704 136.2004 259.2133 134.89992 251.55492 137.06739 C 245.41377 138.87361 238.11663 141.04108 237.0329 141.40232 C 236.5994 141.54682 232.69796 137.93437 228.36303 133.3827 C 224.0281 128.83101 218.24818 122.97885 215.43047 120.37789 C 205.24338 110.91329 193.39456 98.63097 193.39456 97.47499 C 193.39456 96.897 194.4783 94.87403 195.85102 92.99556 C 198.37973 89.52761 200.61945 82.30272 200.61945 77.534295 C 200.61945 72.69362 197.007 65.97447 193.39456 64.02375 C 191.58834 63.084515 186.74766 62.72327 183.64096 63.22901 Z M 184.0022 81.36349 L 184.0022 81.36349 C 184.0022 81.72473 183.7132 82.08598 183.27972 82.08598 C 182.91847 82.08598 182.55723 81.72473 182.55723 81.36349 C 182.55723 80.92999 182.91847 80.641 183.27972 80.641 C 183.7132 80.641 184.0022 80.92999 184.0022 81.36349 Z M 188.33714 113.153 L 188.33714 113.153 C 197.22375 122.7621 206.4716 131.57647 212.54052 136.27265 C 214.34674 137.64538 215.79172 139.09036 215.79172 139.52385 C 215.79172 139.8851 217.59794 142.12481 219.7654 144.36453 C 221.93288 146.60424 223.7391 148.84396 223.7391 149.2052 C 223.7391 150.93918 220.0544 150.86693 217.3812 149.13295 C 215.93622 148.19372 213.552 146.96549 212.17927 146.45974 C 209.21707 145.37601 207.4831 144.72577 204.73764 143.56979 C 203.58166 143.1363 199.17447 141.90806 194.98404 140.89658 C 177.6443 136.6339 161.46055 139.52385 142.67583 150.28894 C 140.86961 151.30042 139.78588 151.58942 139.28014 151.08367 C 138.7744 150.57793 141.4476 147.39898 147.51651 141.33007 C 152.42944 136.3449 156.90887 131.93771 157.41461 131.43197 C 157.92035 130.99848 161.02705 127.89178 164.27826 124.56833 C 167.4572 121.31713 171.86439 117.12669 173.88736 115.32047 C 175.98258 113.51425 178.72803 111.05778 179.95627 109.7573 C 181.1845 108.45682 182.34048 107.44534 182.55723 107.44534 C 182.77397 107.37309 185.37493 109.97405 188.33714 113.153 Z M 184.0022 154.47937 L 184.0022 154.47937 C 186.9644 154.91286 190.57685 155.77985 191.94958 156.35784 C 193.32231 156.93583 194.4783 157.36933 194.4783 157.29708 C 194.4783 157.15258 195.27303 157.36933 199.53572 158.8143 C 200.76395 159.2478 203.07591 160.18703 204.80989 161.05402 C 207.3386 162.28225 207.7721 162.788 207.41085 164.01623 C 207.12185 164.88321 206.54386 166.0392 206.03812 166.61719 C 204.3764 168.49566 198.66873 179.1885 198.16299 181.4282 C 196.93476 186.70238 196.21227 187.49712 192.16633 188.00286 C 190.07111 188.2196 185.80843 188.14736 182.77397 187.71386 C 179.66727 187.28037 173.59836 186.48563 169.26343 185.9799 C 161.46055 185.1129 161.3883 185.1129 160.59356 182.94544 C 160.16007 181.7172 157.7036 176.44304 155.0304 171.16887 C 150.33422 161.55976 149.90072 159.3923 152.79068 159.3923 C 153.44092 159.3923 154.81365 158.74206 155.82513 157.94732 C 156.83662 157.15258 158.1371 156.50234 158.78734 156.50234 C 159.36533 156.50234 160.16007 156.21334 160.59356 155.92435 C 161.46055 155.12961 166.44572 153.68463 169.19118 153.39564 C 172.29788 153.1789 177.7888 153.54014 184.0022 154.47937 Z M 129.09304 161.41527 L 129.09304 161.41527 C 129.09304 162.42675 126.27533 164.73871 125.69734 164.23297 C 125.4806 163.94398 125.84184 163.07699 126.56433 162.28225 C 127.93706 160.76503 129.09304 160.40378 129.09304 161.41527 Z M 235.00993 161.63201 L 235.00993 161.63201 C 235.73242 162.86024 234.0707 164.23297 233.0592 163.22149 C 232.19222 162.3545 232.7702 160.83727 233.85394 160.83727 C 234.2152 160.83727 234.72093 161.19852 235.00993 161.63201 Z M 137.69066 172.8306 L 137.69066 172.8306 C 138.9189 171.38561 140.00263 171.9636 141.5921 174.63681 C 142.67583 176.58753 142.67583 176.87653 141.66435 176.44304 C 141.08636 176.22629 140.29162 176.00954 140.07487 176.00954 C 139.78588 176.00954 138.9189 175.5038 138.1964 174.9258 C 137.11267 174.05882 136.96817 173.69758 137.69066 172.8306 Z M 222.29412 175.0703 L 222.29412 175.0703 C 222.29412 175.3593 214.2745 180.41673 213.1185 180.85022 C 211.1678 181.64496 212.25152 178.466 215.14148 175.14256 L 218.03144 171.6746 L 220.1989 173.26408 C 221.35488 174.13107 222.29412 174.9258 222.29412 175.0703 Z M 118.03896 174.34782 L 118.03896 174.34782 C 118.18346 174.78131 117.67772 175.28705 116.95523 175.43155 C 114.28202 176.15404 109.80259 193.34928 109.0801 205.6316 C 108.28536 219.79237 113.12604 237.92685 120.56767 248.4752 C 121.43466 249.63117 121.7959 251.0039 121.50691 251.7264 C 121.07341 252.81012 120.78442 252.66562 119.19494 250.78715 C 117.31647 248.61969 108.21311 238.50484 104.16717 234.1699 C 103.01119 232.94167 100.04898 229.69047 97.66477 226.94502 C 95.28056 224.2718 90.51213 219.21438 87.04418 215.74644 C 83.50399 212.2785 80.68628 209.09954 80.68628 208.66604 C 80.68628 208.23255 81.33652 207.7268 82.05901 207.43781 C 83.648485 206.93207 92.60735 198.18995 107.05713 183.01769 C 112.25905 177.59902 116.73848 173.26408 117.09972 173.33633 C 117.53322 173.48083 117.89446 173.91432 118.03896 174.34782 Z M 249.96545 179.1885 L 249.96545 179.1885 C 252.4219 181.78945 254.95062 184.46266 255.60086 185.18515 C 256.2511 185.90764 260.58604 190.17033 265.20997 194.722 C 269.8339 199.20144 273.59084 203.17513 273.59084 203.53637 C 273.59084 203.89762 273.87983 204.18661 274.16883 204.18661 C 274.53007 204.18661 276.84204 206.13733 279.2985 208.5938 L 283.85018 213.00098 L 279.0095 217.4804 C 276.3363 219.86462 266.65494 229.25698 257.47933 238.2881 C 243.1018 252.44888 238.91137 256.06132 238.91137 254.3996 C 238.91137 254.2551 240.4286 251.07615 242.23482 247.39145 C 244.04104 243.70676 246.4975 237.92685 247.58123 234.53115 C 248.73722 231.13545 249.96545 227.3785 250.39894 226.22253 C 250.7602 224.9943 251.69942 220.22587 252.34966 215.5297 C 253.50564 207.51006 253.50564 206.64308 252.34966 200.71867 C 251.62717 197.25072 250.4712 192.98803 249.67645 191.25406 C 248.95396 189.52009 248.30372 187.56937 248.30372 186.91913 C 248.30372 186.26889 247.14774 183.88467 245.775 181.5727 C 244.40228 179.26074 243.2463 177.16553 243.2463 176.80428 C 243.2463 176.29854 244.76353 174.56456 245.26927 174.56456 C 245.41377 174.56456 247.509 176.65978 249.96545 179.1885 Z M 131.983 187.56937 L 131.983 187.56937 C 131.983 187.85836 133.06673 188.5086 134.36721 189.0866 C 135.59544 189.59234 137.69066 190.67607 138.84664 191.54306 C 140.07487 192.41004 142.89258 193.85502 145.20455 194.79426 C 147.58876 195.7335 149.61173 196.81723 149.75623 197.25072 C 151.12896 200.93541 150.11747 214.30146 147.58876 224.34406 C 146.64952 228.101 146.07153 231.71344 146.21603 232.36368 C 146.50503 233.30292 145.2768 234.24215 141.08636 236.26512 C 138.0519 237.7101 135.2342 238.86608 134.87295 238.86608 C 133.93372 238.86608 130.10453 230.41296 128.5873 225.1388 C 128.00931 222.97133 127.21457 220.00912 126.78108 218.6364 C 124.39686 210.18327 124.46911 196.45598 126.99782 189.59234 C 127.72031 187.49712 128.37055 185.6909 128.37055 185.61865 C 128.37055 185.5464 129.16529 185.8354 130.17678 186.26889 C 131.18826 186.70238 131.983 187.28037 131.983 187.56937 Z M 235.37117 192.91579 L 238.26113 198.8402 L 238.26113 208.23255 C 238.26113 216.25218 237.97213 218.4919 236.38266 223.69382 C 235.37117 227.0895 234.2152 231.13545 233.7817 232.72493 C 233.13145 235.54263 229.01327 244.646 228.43528 244.646 C 228.21853 244.646 225.97881 243.20102 223.3056 241.46704 C 220.70464 239.66082 216.9477 237.63785 214.99698 236.9876 C 213.04626 236.26512 211.3123 235.1814 211.09554 234.6034 C 210.95104 233.95316 210.0118 230.05172 209.07257 225.86128 C 207.6276 219.35888 207.41085 216.83017 207.69984 208.08805 L 207.98884 197.9732 L 211.0233 196.45598 C 212.61277 195.589 214.78023 194.64976 215.79172 194.43301 C 216.8032 194.14402 218.10368 193.49378 218.68168 193.06028 C 219.25967 192.55454 221.0659 191.7598 222.65536 191.25406 C 224.24484 190.67607 226.8458 189.3756 228.36303 188.2196 C 229.88025 187.06362 231.46973 186.34114 231.83097 186.55788 C 232.19222 186.77463 233.7817 189.66458 235.37117 192.91578 Z M 179.66727 202.5249 L 179.66727 202.5249 C 185.80843 202.74163 190.9381 203.03063 191.0826 203.10288 C 191.15485 203.17513 191.3716 209.17179 191.44384 216.39668 L 191.58834 229.61822 L 188.69838 229.11248 C 184.5802 228.5345 167.4572 228.5345 165.073 229.11248 C 163.91701 229.40148 163.05002 229.40148 163.05002 229.18473 C 163.05002 228.96798 163.55577 225.5723 164.206 221.67085 C 164.85625 217.84165 165.36199 211.62825 165.43424 207.94356 C 165.50649 201.5134 165.65098 201.2244 167.02371 201.6579 C 167.81845 201.87465 173.52611 202.2359 179.66727 202.5249 Z M 56.121655 209.24404 L 56.121655 209.24404 C 56.121655 209.60528 55.83266 209.96652 55.399166 209.96652 C 55.03792 209.96652 54.67668 209.60528 54.67668 209.24404 C 54.67668 208.81054 55.03792 208.52155 55.399166 208.52155 C 55.83266 208.52155 56.121655 208.81054 56.121655 209.24404 Z M 308.9928 212.85648 L 308.9928 212.85648 C 308.9928 213.21773 308.7038 213.57897 308.2703 213.57897 C 307.90906 213.57897 307.54782 213.21773 307.54782 212.85648 C 307.54782 212.42299 307.90906 212.134 308.2703 212.134 C 308.7038 212.134 308.9928 212.42299 308.9928 212.85648 Z M 191.0826 244.86274 L 197.07925 246.30772 L 198.66873 249.9924 C 199.53572 252.01538 201.63094 255.33883 203.29266 257.43405 C 205.53238 260.1795 206.11037 261.3355 205.46013 261.84123 C 204.01515 262.99722 189.78212 266.24842 182.70172 267.04315 C 176.19932 267.76564 173.88736 267.6934 165.2175 266.32067 C 156.90887 265.0202 149.32273 260.97425 151.3457 258.95128 C 151.85144 258.44554 152.21269 257.3618 152.21269 256.42257 C 152.21269 255.55558 152.79068 254.2551 153.58542 253.5326 C 154.3079 252.81012 155.53614 250.7149 156.33088 248.90868 L 157.77585 245.58523 L 163.48352 244.71824 C 166.66247 244.2125 169.69692 243.70676 170.27491 243.56226 C 173.8151 242.76752 185.73618 243.56226 191.0826 244.86274 L 191.0826 244.86274 Z M 131.62175 262.63597 L 131.62175 262.63597 C 132.1275 263.50296 130.75477 264.36994 129.81553 263.79195 C 129.0208 263.2862 129.52654 261.98573 130.53802 261.98573 C 130.89926 261.98573 131.33276 262.27473 131.62175 262.63597 Z M 229.519 264.08095 L 229.519 264.08095 C 229.519 264.94794 228.07403 265.88717 227.5683 265.38143 C 227.06255 264.8757 228.00178 263.4307 228.86877 263.4307 C 229.23001 263.4307 229.519 263.7197 229.519 264.08095 Z M 144.62655 274.1958 L 144.62655 274.1958 C 149.97297 277.5915 160.01557 281.56518 165.073 282.28767 C 167.6017 282.6489 169.98592 283.15466 170.34716 283.3714 C 171.06965 283.8049 183.35196 283.8049 188.33714 283.3714 C 190.14336 283.2269 193.25006 282.72116 195.20078 282.21542 C 197.22375 281.78193 199.31897 281.2762 199.89696 281.1317 C 200.47495 280.9872 201.05294 280.8427 201.19744 280.77044 C 201.2697 280.62595 201.55869 280.5537 201.91993 280.48145 C 206.25486 279.32547 209.65056 278.09724 213.263 276.36326 C 216.9477 274.55704 217.30895 274.4848 215.50272 275.85752 C 212.54052 278.1695 194.98404 295.7982 187.32565 304.10684 C 183.78546 307.93603 180.10076 311.62072 179.08928 312.27096 L 177.2108 313.4992 L 168.68544 304.54033 C 140.65287 275.35178 139.49688 274.0513 140.29162 272.82307 C 140.86961 271.81158 140.86961 271.81158 144.62655 274.1958 Z M 176.05483 341.4595 L 176.05483 341.4595 C 176.05483 341.82076 175.76583 342.182 175.33234 342.182 C 174.9711 342.182 174.60985 341.82076 174.60985 341.4595 C 174.60985 341.02603 174.9711 340.73703 175.33234 340.73703 C 175.76583 340.73703 176.05483 341.02603 176.05483 341.4595 Z" fill="black"/>
        </g>
        <g id="Graphic_27">
          <path d="M 191.29934 66.19122 C 192.02183 66.19122 193.32231 66.91371 194.26155 67.78069 C 197.585 70.959645 198.45198 73.12711 198.45198 78.11229 C 198.45198 82.23047 198.09074 83.53095 195.20078 89.16637 C 191.94958 95.66877 191.2271 96.53576 180.02851 106.28936 C 175.18784 110.55204 171.86439 113.73099 148.16675 136.99514 L 136.53468 148.41046 L 133.57247 146.0985 C 131.91075 144.87027 130.61027 143.56979 130.53802 143.2808 C 130.53802 142.77505 136.96817 136.27265 141.1586 132.58796 C 141.8811 131.93771 146.14378 127.74728 150.55096 123.1956 C 158.93184 114.67023 165.36199 108.52907 171.21415 103.2549 C 173.09262 101.59318 174.60985 100.07595 174.60985 99.93145 C 174.60985 99.20896 179.66727 94.36829 180.38976 94.36829 C 180.751 94.36829 181.11225 93.9348 181.11225 93.3568 C 181.11225 92.77881 181.54574 92.20082 182.05148 91.98407 C 183.49646 91.40608 186.16967 85.33718 186.31417 82.37497 C 186.45867 79.26827 185.51943 78.25678 182.84622 78.61803 C 181.04 78.834775 180.751 79.19602 180.53426 81.21899 C 180.3175 83.16971 180.6065 83.7477 181.76249 84.0367 C 183.7132 84.54244 183.64096 85.84292 181.54574 88.37163 C 180.67875 89.45536 179.52277 91.11709 179.01703 91.98407 C 177.86105 94.29604 176.56057 94.07929 173.23712 90.90034 C 169.40793 87.21565 168.82994 84.18119 170.92515 77.60654 C 172.58688 72.40462 175.04334 69.22567 178.58354 67.708445 C 181.90699 66.19122 188.62613 64.89074 189.42087 65.61323 C 189.78212 65.90222 190.6491 66.19122 191.29934 66.19122 Z" fill="#FFFFFF"/>
        </g>
        <g id="Graphic_26">
          <path d="M 210.22855 119.14966 C 220.84914 129.62575 229.519 138.36787 229.519 138.72911 C 229.519 139.0181 231.10849 140.89658 233.0592 142.8473 C 235.08218 144.87027 237.82763 147.90472 239.20036 149.56645 L 241.65682 152.6009 L 239.48936 155.8521 C 238.33338 157.58607 236.96065 158.9588 236.52715 158.8143 C 236.09366 158.6698 234.43193 157.08033 232.84246 155.20186 C 231.18073 153.39564 229.30226 151.37267 228.65202 150.79468 C 227.92953 150.14444 227.35154 149.3497 227.35154 148.9162 C 227.35154 148.55496 217.95919 138.87361 206.39936 127.45828 C 194.91179 116.1152 185.44718 106.43385 185.44718 105.92811 C 185.44718 105.35012 187.47015 103.18265 190.86585 100.1482 C 190.86585 100.1482 199.53572 108.67357 210.22855 119.14966 Z" fill="#FFFFFF"/>
        </g>
        <g id="Graphic_25">
          <path d="M 114.35427 139.23485 C 115.5825 139.95734 116.81073 140.39084 117.09972 140.10184 C 117.38872 139.81284 117.82221 139.8851 118.11121 140.31859 C 118.4002 140.67983 121.50691 142.48605 125.0471 144.22003 C 128.5873 146.02625 132.84998 148.7717 134.58396 150.43343 L 137.69066 153.32339 L 134.43946 156.06885 L 131.18826 158.8143 L 127.07007 155.2741 C 124.83036 153.25114 122.2294 151.30042 121.29016 150.79468 C 119.26719 149.71094 116.73848 150.36118 117.24422 151.80616 C 117.74996 153.0344 111.39206 159.89804 110.81407 158.8143 C 108.57435 155.2741 104.67291 139.95734 105.61215 138.44012 C 106.33464 137.28413 111.97005 137.78988 114.35427 139.23485 Z" fill="#FFFFFF"/>
        </g>
        <g id="Graphic_24">
          <path d="M 255.88986 143.35304 C 255.45636 147.39898 253.4334 152.52865 248.59272 162.499 C 245.99176 167.91767 242.3793 173.84208 241.80132 173.76983 C 241.58458 173.76983 240.1396 172.1081 238.62237 170.08513 C 236.38266 167.05068 235.94916 166.1837 236.67165 165.24446 C 237.10514 164.59422 237.75538 163.36599 238.11663 162.499 C 238.55012 161.70426 239.1281 160.76503 239.48936 160.54828 C 240.35634 160.04254 243.9688 153.1789 243.9688 152.09516 C 243.9688 151.66166 242.59606 149.71094 241.00658 147.68797 C 237.82763 144.00328 237.82763 143.64204 240.21185 143.1363 C 243.6798 142.48605 250.54344 140.39084 250.83243 139.8851 C 251.04918 139.52385 252.34966 139.3071 253.79464 139.3071 L 256.3956 139.3071 L 255.88986 143.35304 Z" fill="#FFFFFF"/>
        </g>
        <g id="Graphic_23">
          <path d="M 192.31083 142.7028 C 194.69504 143.20854 198.16299 144.22003 200.04146 145.01477 C 201.91993 145.73725 203.9429 146.3875 204.59314 146.3875 C 206.11037 146.3875 214.78023 150.43343 217.01995 152.1674 L 218.60943 153.39564 L 214.63574 157.08033 L 210.66205 160.83727 L 205.67687 158.30856 C 202.93142 156.93583 199.46347 155.49086 197.94624 155.12961 C 196.42901 154.76837 191.66059 153.39564 187.2534 152.1674 C 176.12707 148.9162 167.16821 149.27745 159.79882 153.1789 C 157.92035 154.19038 155.96963 155.05736 155.53614 155.05736 C 154.01891 155.05736 147.58876 159.6813 143.75957 163.51048 C 141.66435 165.6057 139.56913 167.33967 138.99114 167.33967 C 138.4854 167.33967 137.32942 168.27891 136.46243 169.50714 C 135.5232 170.66312 134.58396 171.6746 134.29496 171.6746 C 133.93372 171.6746 132.41649 170.59088 130.89926 169.21815 C 128.37055 166.97843 128.22606 166.61719 129.16529 165.38895 C 129.74328 164.73871 130.68252 163.51048 131.26051 162.788 C 132.41649 161.27077 132.56099 161.12627 136.31793 157.94732 C 137.69066 156.79134 139.06339 155.77985 139.28014 155.77985 C 139.49688 155.77985 140.86961 154.84062 142.31459 153.68463 C 144.6988 151.87841 150.83996 148.55496 154.7414 147.10998 C 155.53614 146.82099 157.48686 146.02625 159.07633 145.44826 C 168.25194 141.76357 181.90699 140.67983 192.31083 142.7028 Z" fill="#FFFFFF"/>
        </g>
        <g id="Graphic_22">
          <path d="M 228.65202 154.62387 C 230.31375 156.35784 231.68648 157.94732 231.68648 158.16406 C 231.68648 158.38081 229.59126 159.75354 226.9903 161.19852 C 220.70464 164.66647 212.75727 172.90284 209.79506 178.8995 C 207.55534 183.45118 207.3386 183.59568 203.5094 184.75166 C 201.34194 185.4019 199.46347 185.90764 199.31897 185.76314 C 199.17447 185.61865 200.18596 183.30668 201.55869 180.63347 C 202.93142 177.88801 204.80989 173.91432 205.67687 171.8191 C 206.6161 169.72389 207.9166 167.70092 208.63908 167.26743 C 209.43382 166.90618 210.0118 166.1837 210.0118 165.67795 C 210.0118 165.1722 211.38454 163.72723 213.1185 162.3545 C 214.78023 160.98177 217.95919 158.01957 220.12665 155.77985 C 222.29412 153.46789 224.4616 151.58942 224.89508 151.51717 C 225.25632 151.51717 226.9903 152.8899 228.65202 154.62387 Z" fill="#FFFFFF"/>
        </g>
        <g id="Graphic_21">
          <path d="M 124.10787 156.2856 C 125.6251 157.44158 126.92557 158.59756 126.92557 158.88655 C 126.92557 159.17555 120.13418 166.3282 111.82556 174.78131 C 103.51693 183.23443 94.34132 192.6268 91.45137 195.7335 C 84.94897 202.66939 79.74704 206.64308 77.94082 206.06508 C 77.21833 205.7761 75.55661 204.4756 74.25613 203.17513 L 71.79967 200.64642 L 75.123115 197.39522 C 76.92934 195.589 78.51881 194.07177 78.73556 194.07177 C 79.2413 194.07177 89.1394 184.75166 98.53176 175.43155 C 103.44468 170.59088 107.77962 166.61719 108.14086 166.61719 C 108.57435 166.61719 108.86335 166.25594 108.86335 165.82245 C 108.86335 164.95546 119.77293 154.33487 120.63992 154.33487 C 121.00117 154.33487 122.51839 155.20186 124.10787 156.2856 Z" fill="#FFFFFF"/>
        </g>
        <g id="Graphic_20">
          <path d="M 262.031 172.97509 C 267.52193 178.466 273.15734 183.74017 274.60232 184.75166 C 276.0473 185.6909 277.42003 187.06362 277.63678 187.71386 C 277.85352 188.43635 278.35926 189.01434 278.7205 189.01434 C 279.08175 189.01434 282.76645 192.4823 286.88463 196.74498 C 302.12915 212.56749 304.36887 214.73495 306.10284 215.5297 C 309.78754 217.04692 312.89424 213.86797 310.65452 210.76126 C 309.49854 209.0273 307.47557 208.81054 305.38035 210.11102 C 304.22437 210.8335 303.71863 210.76126 302.2014 209.31628 C 301.1899 208.37705 300.17843 207.00432 299.9617 206.28183 C 299.3837 204.4756 301.55116 200.86316 303.86313 199.85168 C 304.8746 199.34594 306.39184 198.62345 307.18658 198.18995 C 310.36553 196.52823 317.66267 198.2622 321.1306 201.5134 C 324.3818 204.54786 325.61004 208.08805 325.8268 214.87945 C 325.9713 220.94836 325.8268 221.38185 323.87607 223.9828 C 320.8416 227.9565 316.3622 229.76272 310.9435 229.18473 C 308.5593 228.96798 305.23585 228.101 303.57413 227.234 C 300.17843 225.50004 291.65306 217.98615 291.65306 216.68567 C 291.65306 216.17993 290.93057 215.3852 290.0636 214.9517 C 287.60712 213.65122 256.03436 182.5842 249.96545 175.5038 L 246.71425 171.74686 L 249.09846 167.33967 C 250.4712 164.95546 251.62717 163.00474 251.77167 163.00474 C 251.91617 163.00474 256.5401 167.48417 262.031 172.97509 Z" fill="#FFFFFF"/>
        </g>
        <g id="Graphic_19">
          <path d="M 153.22417 173.26408 C 161.0993 189.59234 162.61653 195.011 162.61653 207.79906 C 162.68878 213.14548 162.47203 218.70864 162.18304 220.08137 C 161.89404 221.4541 161.3883 224.34406 161.17155 226.36702 C 160.73806 229.61822 160.44906 230.19622 159.14858 230.19622 C 158.35385 230.19622 155.75289 230.84646 153.36867 231.6412 C 149.32273 233.01392 147.37201 233.01392 148.239 231.56895 C 149.90072 228.96798 152.93518 209.60528 152.93518 201.87465 C 152.93518 192.12105 148.81699 179.40524 143.39832 172.2526 C 141.51985 169.86839 141.4476 169.50714 142.53134 168.64016 C 143.18158 168.13441 144.5543 166.83393 145.63804 165.82245 C 146.64952 164.73871 147.73326 163.87173 148.02225 163.79948 C 148.31125 163.79948 150.62321 168.06216 153.22417 173.26408 Z" fill="#FFFFFF"/>
        </g>
        <g id="Graphic_18">
          <path d="M 231.54198 165.8947 C 232.7702 167.05068 233.85394 168.35116 233.85394 168.7124 C 233.85394 169.07365 234.64868 169.86839 235.58792 170.51863 C 236.5994 171.09662 237.82763 172.46935 238.33338 173.40858 C 238.83912 174.42007 240.64534 177.67127 242.30706 180.70572 C 245.55827 186.41338 249.09846 196.09474 250.39894 202.45264 C 251.69942 208.95504 249.6042 222.68233 245.6305 233.44742 C 242.45156 242.11728 238.04438 250.78715 236.81615 250.78715 C 235.51567 250.78715 231.03624 247.39145 230.964 246.37997 C 230.964 245.87423 231.90322 243.6345 232.98696 241.32255 C 234.14294 238.93833 235.80466 234.6034 236.67165 231.6412 C 237.53864 228.679 238.83912 224.2718 239.63386 221.8876 C 240.8621 218.27515 241.00658 216.10768 240.78984 208.8828 C 240.4286 198.5512 240.21185 197.39522 237.39414 191.6153 C 233.42045 183.45118 229.808 178.3215 223.4501 172.2526 L 220.6324 169.50714 L 222.22187 167.77317 C 223.66685 166.25594 227.7128 163.72723 228.79652 163.79948 C 229.01327 163.79948 230.2415 164.73871 231.54198 165.8947 Z" fill="#FFFFFF"/>
        </g>
        <g id="Graphic_17">
          <path d="M 127.50357 169.65164 C 131.33276 173.62533 132.05525 174.20332 135.3787 176.0818 C 136.89592 176.94878 139.06339 178.39376 140.14712 179.333 C 141.3031 180.27223 142.89258 181.21146 143.83182 181.50046 C 145.63804 181.93395 148.45575 186.77463 149.10599 190.67607 C 149.32273 192.12105 149.32273 193.34928 149.17824 193.34928 C 148.96149 193.34928 146.28828 192.1933 143.25383 190.82057 C 138.1964 188.5086 135.16195 186.55788 128.80405 181.64496 C 124.83036 178.53825 118.9782 172.5416 118.9782 171.53011 C 119.05044 170.22963 120.78442 168.06216 121.7959 168.06216 C 122.2294 168.06216 122.59064 167.70092 122.59064 167.33967 C 122.59064 165.7502 124.68586 166.76168 127.50357 169.65164 Z" fill="#FFFFFF"/>
        </g>
        <g id="Graphic_16">
          <path d="M 124.32461 181.35596 L 126.49208 183.30668 L 124.75811 188.14736 C 123.16863 192.4823 123.02413 194.21626 123.02413 204.54786 C 123.02413 215.6742 123.09638 216.39668 125.40835 223.33257 C 129.09304 234.6034 131.11601 239.15508 135.73994 246.52447 C 138.12415 250.2814 139.93038 253.60486 139.78588 253.9661 C 139.64138 254.32735 138.26865 256.13357 136.75142 257.9398 L 133.86147 261.26324 L 130.75477 257.7953 C 116.81073 242.69528 108.35761 216.39668 111.7533 198.9847 C 112.90929 193.27703 114.06527 188.72535 114.64326 187.9306 C 114.93226 187.49712 115.36575 185.9799 115.5825 184.46266 C 115.79924 182.94544 116.73848 180.56122 117.60547 179.1885 C 119.1227 176.65978 119.1227 176.65978 120.71217 178.03251 C 121.50691 178.82725 123.16863 180.27223 124.32461 181.35596 Z" fill="#FFFFFF"/>
        </g>
        <g id="Graphic_15">
          <path d="M 227.2793 180.27223 C 228.50753 181.78945 229.3745 183.52343 229.15777 184.10142 C 228.72427 185.2574 222.8721 189.01434 221.49938 189.01434 C 220.9214 189.01434 218.10368 190.17033 215.14148 191.54306 C 212.25152 192.91578 209.50607 194.07177 209.07257 194.07177 C 208.56683 194.07177 206.32711 195.011 204.01515 196.23923 C 201.70318 197.39522 198.45198 198.5512 196.79026 198.8402 C 192.96107 199.49043 173.23712 199.63493 168.4687 199.05694 C 164.6395 198.5512 164.27826 197.9732 163.48352 192.26554 C 163.26677 191.03731 162.90553 189.44784 162.61653 188.72535 C 162.18304 187.56937 162.32753 187.42487 163.48352 187.9306 C 164.206 188.2196 167.3127 188.7976 170.27491 189.15884 C 173.23712 189.44784 178.15004 190.02583 181.11225 190.38707 C 187.2534 191.1818 198.81323 190.24258 200.4027 188.86985 C 200.9807 188.43635 201.99218 187.9306 202.64242 187.85836 C 204.30414 187.64162 211.96253 184.8239 214.63574 183.45118 C 215.79172 182.87319 218.24818 181.28371 220.0544 179.91098 C 221.86063 178.6105 223.7391 177.45452 224.24484 177.45452 C 224.67833 177.45452 226.05106 178.755 227.2793 180.27223 Z" fill="#FFFFFF"/>
        </g>
        <g id="Graphic_14">
          <path d="M 57.63888 194.21626 C 60.16759 195.08325 66.597745 199.49043 68.33172 201.5134 C 68.83746 202.2359 69.6322 202.74163 69.99344 202.74163 C 71.07718 202.74163 93.54658 226.00578 111.39206 245.72973 C 115.2935 249.9924 118.61695 254.3996 118.4002 254.9776 C 118.25571 255.33883 117.02748 257.14506 115.5825 258.87903 L 112.98154 262.05798 L 111.7533 260.035 C 111.10307 258.95128 103.58918 251.1484 95.06381 242.83977 C 86.53844 234.4589 75.55661 223.33257 70.571434 218.2029 C 60.89008 208.08805 56.55515 204.98135 53.88194 206.35408 C 52.798206 207.00432 52.50921 207.7268 52.65371 209.46078 C 52.798206 211.4115 53.2317 211.845 54.893424 211.9895 C 56.049406 212.134 57.349886 211.845 57.92788 211.4115 C 59.15611 210.32777 60.745584 211.19476 63.924536 214.59045 L 66.30875 217.11917 L 61.973816 219.35888 C 57.27764 221.67085 55.68816 221.95984 52.220214 220.80386 C 50.991983 220.44261 49.18576 219.93687 48.174276 219.79237 C 45.717814 219.28663 40.58814 214.87945 39.215413 211.9895 C 37.842684 209.31628 37.698186 205.0536 38.85417 202.2359 C 40.58814 198.04546 41.23838 196.96172 42.10537 196.96172 C 42.61111 196.96172 43.550347 196.38373 44.200587 195.7335 C 46.368054 193.63827 53.520695 192.77129 57.63888 194.21626 Z" fill="#FFFFFF"/>
        </g>
        <g id="Graphic_13">
          <path d="M 205.67687 210.47227 C 205.67687 216.75792 205.96587 223.04358 206.32711 224.4163 C 206.7606 225.78903 207.26635 228.75124 207.4831 230.9187 C 207.7721 233.08617 208.20558 235.1814 208.56683 235.61488 C 208.85583 235.97613 209.65056 238.1436 210.37305 240.31106 C 211.0233 242.47853 212.90176 246.45222 214.49124 249.19768 C 217.30895 253.89385 217.3812 254.1106 216.15296 255.48333 C 215.43047 256.27807 214.5635 256.9283 214.13 256.9283 C 213.76875 256.9283 212.46827 257.6508 211.24004 258.51778 L 209.07257 260.10726 L 206.25486 256.85606 C 204.73764 255.1221 203.29266 253.02687 203.07591 252.23213 C 202.78692 251.4374 201.70318 249.48667 200.6917 247.8972 C 195.41753 239.87757 193.68356 230.05172 193.97255 210.47227 C 194.11705 203.75312 194.26155 202.66939 195.41753 202.30814 C 196.06777 202.0914 197.22375 201.58565 197.874 201.2244 C 198.59648 200.86316 199.82471 200.57417 200.5472 200.57417 C 201.34194 200.57417 202.20893 200.21292 202.42567 199.85168 C 202.64242 199.41819 203.5094 199.1292 204.30414 199.1292 C 205.60462 199.1292 205.67687 199.70718 205.67687 210.47227 Z" fill="#FFFFFF"/>
        </g>
        <g id="Graphic_12">
          <path d="M 289.26885 218.3474 C 292.23105 221.5986 292.3033 221.5986 280.45448 232.00244 C 275.83055 236.04838 270.05064 241.8283 252.2774 260.25176 C 245.19702 267.5489 239.1281 272.82307 237.68314 272.82307 C 237.1774 272.82307 235.66017 271.81158 234.35969 270.58335 L 231.90322 268.34363 L 233.2037 265.59818 C 233.9262 264.1532 235.29892 262.41922 236.23816 261.769 C 237.1774 261.191 240.35634 258.3733 243.2463 255.55558 C 246.2085 252.73787 248.66497 250.4259 248.73722 250.4259 C 248.80947 250.4259 250.3267 248.98093 252.06067 247.1747 C 255.6731 243.41776 255.74536 243.41776 262.53676 236.91536 C 265.4267 234.24215 267.81093 231.6412 267.81093 231.2077 C 267.81093 230.70196 268.6779 229.76272 269.8339 229.11248 C 270.91763 228.39 272.9406 226.65602 274.31333 225.21104 C 278.64826 220.7316 284.71717 215.74644 285.8009 215.74644 C 286.3789 215.74644 287.96837 216.90242 289.26885 218.3474 Z" fill="#FFFFFF"/>
        </g>
        <g id="Graphic_11">
          <path d="M 180.8955 231.6412 C 184.0022 231.56895 187.2534 231.85794 191.66059 232.79718 C 192.88882 233.01392 193.32231 233.80866 193.7558 236.48187 C 193.97255 238.4326 194.40605 240.74456 194.6228 241.6838 C 194.91179 242.83977 194.7673 243.27327 194.26155 242.91202 C 192.81657 242.04504 185.30268 240.9613 178.15004 240.6723 C 167.7462 240.2388 153.15192 243.20102 144.04856 247.53595 C 142.38684 248.3307 140.86961 248.98093 140.58062 248.98093 C 139.64138 248.98093 136.39018 243.05652 136.82367 242.04504 C 137.25717 240.9613 142.89258 238.21584 149.53948 235.90388 C 151.99594 235.10914 154.66915 234.09766 155.46389 233.80866 C 156.25863 233.44742 158.5706 233.01392 160.52131 232.79718 C 170.49166 231.56895 174.8266 230.9187 175.18784 230.55746 C 175.40459 230.41296 175.98258 230.55746 176.48832 230.99095 C 176.99406 231.3522 178.94478 231.6412 180.8955 231.6412 Z" fill="#FFFFFF"/>
        </g>
        <g id="Graphic_10">
          <path d="M 220.12665 242.33403 C 224.82283 245.29624 234.2152 252.88237 236.4549 255.48333 L 238.04438 257.2173 L 235.00993 259.96276 C 233.42045 261.40774 231.83097 262.63597 231.61423 262.70822 C 231.39748 262.70822 228.00178 259.60152 224.1726 255.77233 C 219.4764 251.07615 216.44196 247.39145 214.99698 244.57375 C 213.841 242.26178 212.90176 240.02207 212.90176 239.58857 C 212.90176 238.36034 215.64722 239.37183 220.12665 242.33403 Z" fill="#FFFFFF"/>
        </g>
        <g id="Graphic_9">
          <path d="M 153.94666 248.4752 C 153.72992 249.34217 152.93518 250.7149 152.21269 251.50964 C 151.4902 252.30438 150.69546 253.6771 150.40647 254.5441 C 149.39498 258.0843 139.64138 270.6556 137.97966 270.6556 C 137.40167 270.6556 132.70549 266.46516 132.70549 265.88717 C 132.70549 265.74267 134.43946 263.8642 136.60693 261.769 C 140.72511 257.86754 143.54282 253.74936 143.54282 251.79864 C 143.54282 251.1484 145.06005 250.06466 147.37201 249.12543 C 149.39498 248.25844 151.6347 247.24696 152.21269 246.8857 C 153.72992 246.01872 154.52465 246.66896 153.94666 248.4752 Z" fill="#FFFFFF"/>
        </g>
        <g id="Graphic_8">
          <path d="M 126.49208 256.6393 C 129.23754 259.8905 129.23754 259.8905 127.86481 261.48 C 126.34758 263.1417 122.44614 268.92163 121.07341 271.45034 C 120.35093 272.82307 120.63992 273.3288 123.38538 275.71302 L 126.56433 278.45848 L 121.86815 280.62595 C 116.81073 282.9379 111.8978 284.74413 108.71885 285.39437 C 106.84038 285.82787 106.69588 285.68337 106.69588 283.29916 C 106.69588 281.92643 107.05713 280.04796 107.56287 279.10872 C 107.99636 278.24173 108.6466 277.0135 108.9356 276.4355 C 109.2246 275.85752 110.81407 272.75082 112.40355 269.57187 C 113.99302 266.3929 115.94374 263.06946 116.73848 262.20248 C 117.60547 261.3355 118.25571 260.39626 118.25571 260.1795 C 118.25571 259.96276 118.90595 259.02353 119.77293 258.15654 C 120.56767 257.28955 121.57916 255.84457 121.9404 254.90534 C 122.30165 254.03835 122.80739 253.31586 123.16863 253.31586 C 123.45763 253.31586 124.97485 254.8331 126.49208 256.6393 Z" fill="#FFFFFF"/>
        </g>
        <g id="Graphic_7">
          <path d="M 223.5946 258.95128 L 226.77355 261.69674 L 221.78838 266.3929 C 219.04292 268.99387 215.14148 272.02833 213.19076 273.11206 C 208.35008 275.85752 198.95773 279.03647 193.7558 279.75896 C 191.3716 280.04796 188.77063 280.48145 187.9759 280.62595 C 184.7247 281.2762 170.41941 280.6982 166.37347 279.6867 C 156.90887 277.51924 151.99594 275.49628 144.4098 270.87235 L 142.74808 269.86086 L 144.5543 267.9824 C 145.56579 266.9709 146.43278 265.88717 146.43278 265.67042 C 146.43278 265.45368 147.08302 264.80344 147.87776 264.2977 C 149.17824 263.50296 149.90072 263.64746 152.79068 265.09243 C 157.92035 267.76564 162.68878 268.92163 172.44238 269.7886 C 177.7888 270.29435 186.74766 269.7886 188.98738 268.77713 C 189.63762 268.48813 191.29934 268.19914 192.67207 268.1269 C 195.63428 267.91014 200.76395 266.60966 204.01515 265.16468 C 205.24338 264.5867 206.54386 264.1532 206.97735 264.1532 C 207.84434 264.1532 210.7343 262.63597 212.17927 261.48 C 212.75727 260.97425 214.419 259.60152 215.79172 258.44554 C 217.16445 257.2173 218.82617 256.27807 219.40416 256.27807 C 219.98216 256.27807 221.93288 257.5063 223.5946 258.95128 Z" fill="#FFFFFF"/>
        </g>
        <g id="Graphic_6">
          <path d="M 131.405 268.70488 C 132.70549 270.00536 136.75142 274.26804 140.29162 278.24173 C 143.90407 282.21542 149.53948 288.28433 152.93518 291.68003 C 165.073 303.8901 175.33234 315.01642 175.33234 315.8834 C 175.33234 316.38915 174.60985 317.0394 173.74286 317.3284 C 172.87587 317.54513 171.5754 318.48437 170.8529 319.35136 L 169.55242 320.8686 L 166.95146 317.97863 C 152.14044 301.86712 140.21937 289.1513 132.92223 281.63743 C 128.00931 276.65226 124.03562 272.24507 124.03562 271.88383 C 124.03562 270.87235 127.57581 266.32067 128.37055 266.32067 C 128.7318 266.32067 130.10453 267.4044 131.405 268.70488 Z" fill="#FFFFFF"/>
        </g>
        <g id="Graphic_5">
          <path d="M 231.54198 271.81158 C 235.37117 275.27953 238.69462 277.158 240.93434 277.158 C 242.45156 277.158 242.59606 276.94125 242.16257 274.99053 C 241.72907 273.11206 241.94582 272.75082 243.5353 272.10058 C 244.54678 271.73933 245.775 270.8001 246.28075 269.9331 C 246.7865 269.13837 247.43674 268.48813 247.72573 268.48813 C 249.4597 268.48813 254.08364 282.57667 254.08364 287.9231 L 254.08364 290.37955 L 248.66497 289.94605 C 244.18554 289.51256 242.16257 288.93457 237.3219 286.40586 C 230.8195 283.01016 220.84914 274.26804 220.84914 272.02833 C 220.84914 271.2336 221.93288 269.71636 223.23336 268.56038 C 225.83432 266.17617 224.96733 265.81492 231.54198 271.81158 Z" fill="#FFFFFF"/>
        </g>
        <g id="Graphic_4">
          <path d="M 223.3056 279.9757 L 226.8458 283.5159 L 223.23336 287.0561 C 221.21039 288.93457 212.82951 297.17094 204.5209 305.40732 C 196.21227 313.57144 188.1204 321.37433 186.53092 322.74705 C 180.10076 328.3102 172.22563 339.2198 172.58688 342.0375 C 172.80363 343.7715 173.09262 343.98823 175.33234 343.98823 C 177.57205 343.98823 177.86105 343.7715 178.0778 342.0375 C 178.2223 340.95378 178.00555 339.5088 177.57205 338.71406 C 176.99406 337.63033 177.3553 336.8356 179.30603 334.59587 C 180.67875 333.07865 181.90699 331.48917 182.05148 331.05568 C 182.26823 330.40544 185.95292 334.09013 188.04814 337.05234 C 189.70987 339.43655 189.70987 341.96526 188.2649 346.22795 C 186.53092 351.2131 185.37493 352.6581 181.618 354.53657 C 174.75435 358.07677 165.79548 354.4643 162.61653 346.80594 C 161.46055 344.06048 161.8218 336.8356 163.12227 335.9686 C 163.48352 335.75186 163.77251 335.02937 163.77251 334.30688 C 163.77251 332.64515 165.79548 328.5992 166.95146 327.94897 C 167.4572 327.58773 168.25194 326.72074 168.68544 325.85376 C 169.11893 324.98677 170.92515 323.2528 172.73138 321.88007 C 174.5376 320.50734 176.34382 318.7011 176.84956 317.76188 C 177.3553 316.8949 178.0778 316.1724 178.43904 316.1724 C 179.30603 316.1724 186.16967 309.01976 186.16967 308.15278 C 186.16967 307.79153 186.60316 307.50254 187.1089 307.50254 C 187.5424 307.4303 189.63762 305.5518 191.58834 303.23985 C 193.6113 300.85564 195.92327 298.54367 196.8625 298.03793 C 197.7295 297.5322 198.45198 296.88195 198.45198 296.5207 C 198.45198 295.58147 213.263 280.77044 214.20224 280.77044 C 214.63574 280.77044 215.71947 279.8312 216.6587 278.67523 C 217.59794 277.447 218.68168 276.50776 219.04292 276.50776 C 219.4764 276.4355 221.42713 278.025 223.3056 279.9757 Z" fill="#FFFFFF"/>
        </g>
      </g>
    </g>
  </g>
</svg>
