<?xml version="1.0" encoding="UTF-8" standalone="no"?>
<!DOCTYPE svg PUBLIC "-//W3C//DTD SVG 1.1//EN" "http://www.w3.org/Graphics/SVG/1.1/DTD/svg11.dtd">
<svg xmlns:xl="http://www.w3.org/1999/xlink" xmlns="http://www.w3.org/2000/svg" xmlns:dc="http://purl.org/dc/elements/1.1/" version="1.1" viewBox="35.75 85.24848 293 146" width="293" height="146">
  <defs>
    <clipPath id="artboard_clip_path">
      <path d="M 35.75 85.24848 L 328.75 85.24848 L 328.75 231.24848 L 35.75 231.24848 Z"/>
    </clipPath>
  </defs>
  <g id="Label_(1)" stroke-opacity="1" stroke="none" stroke-dasharray="none" fill="none" fill-opacity="1">
    <title>Label (1)</title>
    <g id="Label_(1)_Layer_2" clip-path="url(#artboard_clip_path)">
      <title>Layer 2</title>
      <g id="Group_27">
        <g id="Graphic_29">
          <path d="M 36.972224 87.16738 C 34.6021 90.148 35.258605 116.92261 37.821326 119.86018 C 38.961133 121.25973 41.500486 121.51946 47.41375 120.76311 C 52.623555 120.15385 56.57106 120.26035 58.55404 121.37064 L 61.81038 123.03361 L 61.3608 168.42318 C 61.013515 193.23327 60.22251 215.6511 59.67843 217.91103 C 58.99465 220.31313 58.882 223.55594 59.60145 225.24106 C 60.90188 228.8944 66.00149 231.80982 68.24298 230.23981 C 69.22463 229.66745 77.535075 229.03113 86.83578 228.80901 C 99.23591 228.4189 104.0229 227.81333 105.55969 226.24948 C 107.37713 224.54223 107.58521 216.08346 106.92328 172.53593 C 106.67606 144.2073 106.89593 120.94877 107.45846 120.80291 C 108.02221 120.79799 120.00198 120.69344 133.81272 120.43197 L 159.0407 120.21181 L 158.86091 131.91216 C 158.63561 138.39779 158.51978 157.42694 158.52398 174.0589 C 158.52817 190.69088 158.0911 205.21246 157.53596 206.20395 C 156.83988 207.19667 156.85832 209.31074 157.43807 211.13802 C 158.01658 212.82437 158.33413 216.90912 158.22025 220.011 C 158.1076 223.2538 158.69841 226.34954 159.54896 226.9059 C 160.39951 227.4623 169.84854 228.08457 180.56232 228.27297 C 195.92953 228.70266 200.29617 228.38266 201.55108 226.82126 C 202.6663 225.40204 203.232 209.46984 203.05315 172.82461 L 203.02211 120.81463 L 229.51485 120.16059 L 256.00882 119.64748 L 255.62935 173.07053 C 255.50222 223.1086 255.53297 226.63207 257.93508 227.31585 C 259.2072 227.7276 268.3719 228.07047 278.24005 228.26625 C 303.18985 228.47136 302.49254 229.32314 301.1301 202.41374 C 300.6089 191.14235 300.40596 167.8875 300.81966 150.68809 L 301.39224 119.39237 L 314.21395 118.85763 L 327.03566 118.32289 L 327.7706 105.63105 C 328.63663 91.81047 327.1879 87.31274 321.114 85.8153 C 319.41905 85.40725 256.5568 85.53299 181.43415 85.90668 C 106.31272 86.4213 43.58895 86.26394 41.89277 85.71495 C 39.91348 85.02747 38.36685 85.46382 36.972224 87.16738 Z" fill="black"/>
        </g>
        <g id="Graphic_28">
          <path d="M 217.2891 92.07744 C 281.13545 91.66121 319.47563 91.89042 320.04676 92.73113 C 320.90592 94.27407 321.18954 110.6217 320.21035 111.47594 C 319.93093 111.76028 314.86206 112.36831 308.80294 112.56214 C 301.75848 112.90551 297.39676 113.78927 296.1406 115.20973 C 293.48493 117.76999 292.77828 133.70341 293.1903 180.9178 L 293.37285 217.98584 L 277.86962 218.12114 L 262.3664 218.25643 L 262.2766 207.96793 C 262.22864 202.47133 262.02692 179.35742 261.8289 156.66633 C 261.56692 126.64643 261.0457 115.37505 259.91082 114.53925 C 258.91933 113.98411 244.81934 113.40241 228.32708 113.26444 C 203.09417 112.92085 198.3035 113.1036 196.9101 114.9481 C 195.51425 116.51073 195.06734 129.9048 194.81476 165.56715 C 194.62318 192.06727 194.25744 214.76328 193.98418 215.75231 C 193.5712 216.8835 189.34797 217.48416 179.2004 217.57272 L 165.10655 217.69572 L 164.88813 208.81782 C 164.8463 204.02591 164.36149 180.77353 164.15486 157.09587 L 163.49785 114.1121 L 132.06488 113.96356 C 107.68007 113.89446 100.49466 114.23907 100.08415 115.65214 C 99.66994 116.6424 99.31282 140.32498 99.27447 168.23326 C 99.23613 196.14153 99.01379 219.1182 99.01625 219.40007 C 98.87654 219.54224 92.1115 219.60128 83.7949 219.5329 L 68.569856 219.24292 L 67.855036 169.63505 C 67.42752 136.79761 66.70879 119.04429 65.565294 117.22193 C 64.27471 114.6961 62.720696 114.28682 53.559696 114.36677 L 42.98931 114.45901 L 42.899525 104.1705 C 42.849097 98.39203 43.087925 93.45672 43.50705 93.03022 C 43.927406 92.74465 60.27504 92.46104 79.72701 92.57318 C 99.31991 92.68409 161.19436 92.42602 217.2891 92.07744 Z" fill="#FFFFFF"/>
        </g>
      </g>
    </g>
  </g>
</svg>
