<?xml version="1.0" encoding="UTF-8" standalone="no"?>
<!DOCTYPE svg PUBLIC "-//W3C//DTD SVG 1.1//EN" "http://www.w3.org/Graphics/SVG/1.1/DTD/svg11.dtd">
<svg xmlns:xl="http://www.w3.org/1999/xlink" xmlns="http://www.w3.org/2000/svg" xmlns:dc="http://purl.org/dc/elements/1.1/" version="1.1" viewBox="33.75 60.75 297 297" width="297" height="297">
  <defs>
    <clipPath id="artboard_clip_path">
      <path d="M 33.75 60.75 L 330.75 60.75 L 330.75 357.75 L 33.75 357.75 Z"/>
    </clipPath>
  </defs>
  <g id="Labyrinth_(6)" stroke-opacity="1" stroke="none" stroke-dasharray="none" fill="none" fill-opacity="1">
    <title>Labyrinth (6)</title>
    <g id="Labyrinth_(6)_Art" clip-path="url(#artboard_clip_path)">
      <title>Art</title>
      <g id="Graphic_72">
        <rect x="325.40625" y="353.25" width="108.28125" height="108.28125" id="path"/>
        <clipPath id="clip_path">
          <use xl:href="#path"/>
        </clipPath>
        <g clip-path="url(#clip_path)">
          <image xl:href="image295.pdf" width="294" height="291" transform="matrix(.37 0 0 .36956057 325.15688 353.61956)"/>
        </g>
      </g>
      <g id="Group_111">
        <title>layer1</title>
        <g id="Group_112">
          <title>g871</title>
          <g id="Graphic_114">
            <title>path829</title>
            <path d="M 166.01575 355.07057 C 155.45084 354.61917 149.2692 353.86025 148.30749 352.89647 C 147.49485 352.08214 145.4227 351.41585 143.70265 351.41585 C 141.9826 351.41585 137.69176 349.82643 134.16741 347.88384 C 130.6431 345.9412 126.93945 344.3421 125.93713 344.33034 C 124.9348 344.3169 122.02373 343.24282 119.46808 341.93984 C 116.91238 340.6369 114.17327 339.57087 113.38109 339.57087 C 112.58891 339.57087 110.9549 338.37156 109.75001 336.90575 C 106.81055 333.32983 100.44313 328.91037 98.2305 328.91037 C 97.24639 328.91037 95.25899 327.3113 93.81404 325.35687 C 92.36905 323.40246 90.72278 321.80338 90.1556 321.80338 C 88.64256 321.80338 79.63631 314.57824 76.86711 311.14288 C 75.55423 309.5142 73.30913 306.99163 71.87802 305.53724 C 70.44691 304.0828 68.571286 301.42252 67.709985 299.6255 C 66.84868 297.8285 64.68305 295.658 62.89742 294.80216 C 60.678065 293.73846 59.65085 292.3369 59.65085 290.3725 C 59.65085 288.792 57.78526 284.5825 55.50511 281.01804 C 53.13722 277.3165 51.359326 273.01885 51.359326 270.9967 C 51.359326 269.0494 50.872693 267.15543 50.2779 266.78784 C 49.683105 266.4203 48.834966 263.9796 48.3931 261.36422 C 47.951236 258.7488 46.860004 255.87928 45.96817 254.98745 C 44.17649 253.19577 39.95751 235.0258 38.86086 224.3783 C 38.474957 220.6323 37.664693 217.56744 37.06014 217.56744 C 35.397438 217.56744 35.741304 213.6335 37.75723 209.59247 C 38.81533 207.47143 39.806283 201.19001 40.168415 194.30811 C 40.88368 180.7151 45.51753 161.324 49.86585 153.72754 C 51.505227 150.86361 52.960964 147.13247 53.10082 145.43606 C 53.51627 140.39688 55.110746 136.52915 57.45178 134.88144 C 58.661245 134.03013 59.65085 132.78167 59.65085 132.107 C 59.65085 131.43235 60.71688 129.52512 62.01982 127.86869 C 63.32281 126.21225 64.388835 123.89029 64.388835 122.70876 C 64.388835 121.52723 65.72141 119.12267 67.35009 117.36528 C 68.97877 115.6079 70.329075 113.31508 70.35074 112.27014 C 70.40715 109.55345 74.30161 105.24695 78.24535 103.54042 C 80.1032 102.73647 82.67595 101.12216 83.96264 99.95307 C 87.01599 97.17868 95.0984 91.00538 100.56472 87.27249 C 102.94972 85.64381 105.79623 83.51172 106.89033 82.53451 C 110.20083 79.5776 114.34777 78.02032 122.42683 76.70015 C 126.66005 76.00838 130.29238 74.936 130.49872 74.31699 C 130.7051 73.69802 131.55356 73.45242 132.38432 73.77121 C 133.21505 74.089965 134.57843 73.52678 135.41408 72.52016 C 136.32874 71.41805 138.85068 70.689485 141.75114 70.689485 C 147.01466 70.689485 158.7236 68.802404 164.7163 66.988296 C 169.12626 65.6533 196.91567 64.771405 197.64007 65.94349 C 197.90958 66.37909 202.01834 67.39605 206.7711 68.20313 C 220.11242 70.46864 226.49063 72.31418 234.1644 76.1293 C 236.00872 77.04625 239.3215 77.79648 241.52608 77.79648 C 246.65928 77.79648 256.58615 81.12623 257.81724 83.26092 C 258.3382 84.16435 259.2167 84.90348 259.76946 84.90348 C 261.0096 84.90348 265.88967 89.36936 284.1135 107.18144 C 298.36593 121.11187 305.8483 130.9574 313.09257 145.31295 C 315.22946 149.54755 317.94355 154.9226 319.12378 157.25754 C 320.41293 159.8079 321.59903 165.7194 322.09444 172.06382 C 322.54803 177.8723 323.38135 183.21086 323.9462 183.92724 C 324.5111 184.64367 325.2422 188.0552 325.57098 191.50843 C 325.89958 194.96169 326.68777 198.41253 327.32228 199.177 C 328.0769 200.0863 328.04023 201.0026 327.21617 201.82653 C 326.3265 202.71621 326.33477 203.31974 327.24304 203.8819 C 328.85963 204.881 328.94137 212.43586 327.346 213.42166 C 326.69453 213.82413 326.1615 215.92086 326.1615 218.08067 C 326.1615 220.24048 325.2599 224.33993 324.15786 227.1906 C 322.98936 230.2132 321.83156 237.8048 321.3802 245.40314 C 320.49575 260.29332 317.9291 270.3681 314.3883 272.84815 C 313.04588 273.78842 311.94753 275.20328 311.94753 275.99233 C 311.94753 276.78137 310.6978 279.28303 309.1704 281.55154 C 307.643 283.82005 306.03374 287.14196 305.59434 288.9335 C 305.1547 290.72505 304.27255 292.19086 303.63348 292.19086 C 302.9944 292.19086 302.4715 292.9969 302.4715 293.98214 C 302.4715 296.43473 266.85546 331.27934 264.34856 331.27934 C 263.24295 331.27934 261.98715 331.8476 261.55796 332.5421 C 259.9077 335.21225 251.05393 340.75535 248.43927 340.75535 C 245.83433 340.75535 237.4034 344.08837 236.13953 345.61784 C 235.81362 346.0118 233.4152 347.02236 230.8093 347.86297 C 228.20342 348.7036 224.8512 350.3397 223.36 351.49876 C 219.1114 354.8011 194.9413 356.30653 166.01405 355.07057 Z" fill="#FFFFFF"/>
          </g>
          <g id="Graphic_113">
            <title>path826</title>
            <path d="M 166.01405 355.07057 C 155.44914 354.61917 149.2675 353.86025 148.30579 352.89647 C 147.49315 352.08214 145.421 351.41585 143.70095 351.41585 C 141.9809 351.41585 137.69006 349.82643 134.1657 347.88384 C 130.6414 345.9412 126.93775 344.3421 125.93542 344.33034 C 124.9331 344.3169 122.02203 343.24282 119.46638 341.93984 C 116.91068 340.6369 114.17157 339.57087 113.37939 339.57087 C 112.58721 339.57087 110.9532 338.37156 109.7483 336.90575 C 106.80885 333.32983 100.44143 328.91037 98.22879 328.91037 C 97.24469 328.91037 95.25729 327.3113 93.81234 325.35687 C 92.36735 323.40246 90.72107 321.80338 90.1539 321.80338 C 88.64086 321.80338 79.63461 314.57824 76.86541 311.14288 C 75.55253 309.5142 73.30743 306.99163 71.87632 305.53724 C 70.445205 304.0828 68.569584 301.42252 67.70828 299.6255 C 66.84698 297.8285 64.68135 295.658 62.89572 294.80216 C 60.676364 293.73846 59.64915 292.3369 59.64915 290.3725 C 59.64915 288.792 57.78356 284.5825 55.50341 281.01804 C 53.135516 277.3165 51.357625 273.01885 51.357625 270.9967 C 51.357625 269.0494 50.87099 267.15543 50.2762 266.78784 C 49.681404 266.4203 48.833265 263.9796 48.3914 261.36422 C 47.949535 258.7488 46.858303 255.87928 45.96647 254.98745 C 44.17479 253.19577 39.95581 235.0258 38.85916 224.3783 C 38.473256 220.6323 37.66299 217.56744 37.05844 217.56744 C 35.395736 217.56744 35.739603 213.6335 37.75553 209.59247 C 38.81363 207.47143 39.80458 201.19001 40.166714 194.30811 C 40.88198 180.7151 45.51583 161.324 49.86415 153.72754 C 51.503526 150.86361 52.95926 147.13247 53.09912 145.43606 C 53.51457 140.39688 55.109045 136.52915 57.45008 134.88144 C 58.659544 134.03013 59.64915 132.78167 59.64915 132.107 C 59.64915 131.43235 60.71518 129.52512 62.01812 127.86869 C 63.32111 126.21225 64.38713 123.89029 64.38713 122.70876 C 64.38713 121.52723 65.71971 119.12267 67.34839 117.36528 C 68.97707 115.6079 70.32737 113.31508 70.34904 112.27014 C 70.40545 109.55345 74.299905 105.24695 78.24365 103.54042 C 80.1015 102.73647 82.67425 101.12216 83.96094 99.95307 C 87.01429 97.17868 95.0967 91.00538 100.56302 87.27249 C 102.94802 85.64381 105.79453 83.51172 106.88863 82.53451 C 110.19912 79.5776 114.34607 78.02032 122.42513 76.70015 C 126.65835 76.00838 130.29068 74.936 130.49702 74.31699 C 130.7034 73.69802 131.55185 73.45242 132.38262 73.77121 C 133.21335 74.089965 134.57673 73.52678 135.41237 72.52016 C 136.32704 71.41805 138.84898 70.689485 141.74944 70.689485 C 147.01296 70.689485 158.7219 68.802404 164.7146 66.988296 C 169.12456 65.6533 196.91397 64.771405 197.63837 65.94349 C 197.90788 66.37909 202.01664 67.39605 206.7694 68.20313 C 220.11072 70.46864 226.48893 72.31418 234.1627 76.1293 C 236.00702 77.04625 239.3198 77.79648 241.52438 77.79648 C 246.65758 77.79648 256.58445 81.12623 257.81554 83.26092 C 258.3365 84.16435 259.215 84.90348 259.76776 84.90348 C 261.0079 84.90348 265.88797 89.36936 284.11178 107.18144 C 298.36423 121.11187 305.8466 130.9574 313.09087 145.31295 C 315.22776 149.54755 317.94185 154.9226 319.12208 157.25754 C 320.41123 159.8079 321.59733 165.7194 322.09274 172.06382 C 322.54633 177.8723 323.37965 183.21086 323.9445 183.92724 C 324.5094 184.64367 325.2405 188.0552 325.56928 191.50843 C 325.89788 194.96169 326.68607 198.41253 327.32057 199.177 C 328.0752 200.0863 328.03853 201.0026 327.21447 201.82653 C 326.3248 202.71621 326.33307 203.31974 327.24133 203.8819 C 328.85792 204.881 328.93967 212.43586 327.3443 213.42166 C 326.69283 213.82413 326.1598 215.92086 326.1598 218.08067 C 326.1598 220.24048 325.25818 224.33993 324.15616 227.1906 C 322.98766 230.2132 321.82986 237.8048 321.3785 245.40314 C 320.49405 260.29332 317.9274 270.3681 314.3866 272.84815 C 313.04417 273.78842 311.94582 275.20328 311.94582 275.99233 C 311.94582 276.78137 310.6961 279.28303 309.1687 281.55154 C 307.6413 283.82005 306.03204 287.14196 305.59264 288.9335 C 305.153 290.72505 304.27085 292.19086 303.63178 292.19086 C 302.9927 292.19086 302.4698 292.9969 302.4698 293.98214 C 302.4698 296.43473 266.85376 331.27934 264.34686 331.27934 C 263.24125 331.27934 261.98545 331.8476 261.55626 332.5421 C 259.906 335.21225 251.05223 340.75535 248.43757 340.75535 C 245.83263 340.75535 237.4017 344.08837 236.13783 345.61784 C 235.81192 346.0118 233.4135 347.02236 230.8076 347.86297 C 228.20172 348.7036 224.8495 350.3397 223.3583 351.49876 C 219.1097 354.8011 194.9396 356.30653 166.01235 355.07057 Z M 192.10575 348.78037 C 193.22004 347.6661 194.06988 347.64992 195.76844 348.71053 C 196.98489 349.4702 198.34585 349.72337 198.79282 349.2731 C 199.58643 348.4736 213.0689 345.8308 220.14881 345.08693 C 222.10323 344.88144 225.9677 344.08944 228.73644 343.32663 C 231.5052 342.5638 235.8759 341.3933 238.44905 340.7255 C 241.36599 339.96846 244.04807 338.21855 245.57225 336.07803 C 247.69285 333.0999 252.09668 331.05545 257.01575 330.7655 C 258.5021 330.67774 270.49003 319.79748 270.49003 318.5361 C 270.49003 317.26224 276.631 312.3272 278.21613 312.3272 C 279.00544 312.3272 281.0061 310.32836 282.6621 307.88535 C 284.31803 305.4423 289.1194 299.85003 293.33185 295.45802 C 299.0747 289.47032 301.67576 285.6181 303.729 280.05954 C 305.23507 275.98234 306.8158 272.37996 307.24178 272.05422 C 308.35396 271.20367 311.94753 260.18798 311.94753 257.6292 C 311.94753 256.4423 312.46 255.47117 313.08635 255.47117 C 314.73826 255.47117 316.63658 247.51124 319.1597 230.00444 C 321.5596 213.35285 321.93524 197.9481 320.1707 188.54695 C 319.5593 185.2896 318.87048 181.5584 318.64 180.25546 C 317.75803 175.26897 313.80273 163.59367 312.42024 161.89573 C 311.62457 160.91852 310.5982 157.58086 310.13946 154.47871 C 309.68072 151.37657 308.38207 147.64539 307.25355 146.18723 C 306.12507 144.72903 304.85414 142.1112 304.4292 140.36975 C 304.00434 138.6283 301.7909 134.75927 299.51057 131.77187 C 297.23025 128.78447 295.36452 126.05194 295.36452 125.69952 C 295.36452 124.53182 287.70038 117.29437 285.69345 116.56693 C 284.60894 116.17386 283.005 114.35702 282.12917 112.52962 C 281.2533 110.70221 279.07573 108.50685 277.29014 107.65102 C 275.5045 106.79522 274.04353 105.32453 274.04353 104.38287 C 274.04353 103.44121 273.25628 102.67075 272.2941 102.67075 C 271.3319 102.67075 269.67153 101.33821 268.60438 99.70949 C 267.5372 98.08081 265.92584 96.74828 265.02358 96.74828 C 264.12127 96.74828 263.38304 96.31805 263.38304 95.7922 C 263.38304 94.51715 249.65818 84.79935 244.43106 82.37339 C 239.78848 80.21868 233.93567 78.53445 224.29455 76.57873 C 220.71146 75.85192 216.70737 74.74027 215.39655 74.10845 C 214.08577 73.47664 211.68717 72.8009 210.06633 72.60683 C 203.60252 71.83301 196.97056 70.33277 196.476 69.53258 C 195.0273 67.1885 156.22385 70.79581 150.26333 73.8287 C 148.30892 74.82318 144.31123 75.79511 141.37961 75.98855 C 128.37732 76.846495 119.00531 80.25812 110.58261 87.1993 C 107.65099 89.61532 102.62483 92.88543 99.41337 94.46625 C 93.07585 97.5859 90.11634 100.2597 79.01949 112.89139 C 74.47929 118.05955 70.99496 123.36968 69.76302 126.99834 C 68.6764 130.19884 67.17639 133.55361 66.42965 134.45341 C 65.68287 135.35321 64.50752 137.22136 63.81777 138.60484 C 63.12802 139.98836 61.45565 141.67273 60.1014 142.34789 C 58.158405 143.31659 57.90282 143.99353 58.889475 145.55774 C 59.83418 147.05543 59.50074 148.81962 57.52551 152.77474 C 56.087594 155.65384 54.911123 158.76525 54.911123 159.68905 C 54.911123 160.6128 54.057254 162.58772 53.013567 164.07775 C 51.969924 165.56782 51.432254 167.10316 51.818785 167.48973 C 52.20514 167.87608 51.85908 168.98827 51.054005 169.96082 C 50.13567 171.06736 49.42833 176.87092 49.16388 185.4683 C 48.93153 193.02482 48.25714 199.8033 47.66539 200.53156 C 44.57887 204.3298 47.71598 247.56524 51.341016 251.19036 C 52.00162 251.85097 52.54256 253.21766 52.543095 254.22746 C 52.54359 255.23725 54.14267 259.44267 56.09659 263.57292 C 58.05047 267.70313 59.651434 272.50034 59.654255 274.23342 C 59.65721 276.07188 61.63074 279.9847 64.39224 283.62705 C 66.995345 287.06053 69.12512 290.39193 69.12512 291.0302 C 69.12512 292.6962 70.57517 292.4651 73.65452 290.30826 C 75.13264 289.27294 77.10223 288.7176 78.0314 289.07412 C 78.96057 289.43048 80.40816 288.81178 81.24824 287.69915 C 82.08837 286.5864 83.9746 285.0013 85.43992 284.1768 C 87.66267 282.9261 88.59251 282.99774 91.05187 284.60927 C 92.67311 285.67154 93.9996 287.29068 93.9996 288.2073 C 93.9996 289.12395 96.26498 291.34433 99.03373 293.14152 C 101.80253 294.93866 105.85658 298.1251 108.04276 300.2224 C 110.22894 302.31973 112.77139 304.03575 113.69268 304.03575 C 114.61392 304.03575 117.60992 305.4512 120.35042 307.1812 C 123.09092 308.9112 129.07683 312.13826 133.65248 314.35242 C 138.22813 316.5666 143.48234 319.14968 145.3285 320.0926 C 147.17462 321.0355 150.9058 322.1225 153.61998 322.50808 C 156.33416 322.89353 160.39126 324.0333 162.63578 325.04054 C 165.67976 326.40656 171.73112 326.9499 186.45 327.1788 C 197.30332 327.3476 206.72431 327.13853 207.38554 326.71734 C 208.17844 326.2106 207.95455 323.22675 206.7279 317.9536 L 204.86808 309.9582 L 200.07118 309.7948 C 197.43293 309.70483 189.94406 309.5065 183.42935 309.3534 C 170.77974 309.05658 168.195 308.726 155.10795 305.73248 C 143.74795 303.13402 140.13075 301.75314 136.64158 298.68274 C 133.51513 295.9315 126.50801 292.2174 124.31848 292.15097 C 122.44433 292.0941 118.30204 288.3983 117.36275 285.9449 C 116.92044 284.79005 115.61396 283.51262 114.45911 283.10613 C 111.23753 281.97228 105.84463 276.5736 105.84463 274.48242 C 105.84463 273.456 107.28335 271.5569 109.04181 270.2622 C 110.80028 268.96748 114.41963 266.26467 117.08487 264.256 L 121.9307 260.60383 L 126.12368 263.25753 C 128.42983 264.71703 132.00039 267.59492 134.05826 269.6528 C 136.11618 271.7107 138.3388 273.06133 138.99748 272.65425 C 139.65616 272.2473 140.19508 272.75812 140.19508 273.79007 C 140.19508 274.82185 141.52766 276.1727 143.15634 276.7919 C 144.78501 277.41113 146.1176 278.464 146.1176 279.13158 C 146.1176 279.79917 147.01489 280.3454 148.11163 280.3454 C 150.46354 280.3454 163.44752 284.62042 166.82964 286.5084 C 168.16612 287.25442 177.16794 288.00214 187.67407 288.23982 L 206.16623 288.6584 L 214.4382 284.5201 C 218.98774 282.24407 223.68226 279.3076 224.8704 277.99473 C 226.05857 276.6818 227.69065 275.60763 228.49715 275.60763 C 229.3037 275.60763 230.2574 274.84204 230.61645 273.9063 C 230.9831 272.95102 233.22927 272.0421 235.7392 271.83342 C 239.336 271.53437 240.74388 270.65207 242.94698 267.3161 C 244.45277 265.03596 248.6009 260.11586 252.16495 256.38252 C 255.729 252.6492 258.64505 248.8736 258.64505 247.99233 C 258.64505 247.111 258.9723 246.06294 259.37182 245.6632 C 260.5462 244.4888 265.13738 230.59673 266.89566 222.8974 C 267.7883 218.98857 268.94628 215.22193 269.46895 214.52717 C 270.7149 212.87096 271.02515 206.8287 269.98903 204.3979 C 268.6791 201.32486 276.6718 197.31073 284.61404 197.05287 L 291.21878 196.83843 L 291.57782 203.78242 C 291.84464 208.9385 291.43635 211.27953 289.9931 212.87445 C 288.92395 214.05585 286.78894 220.79203 285.2486 227.8437 C 282.3218 241.24254 279.56286 247.89496 274.80907 253.01553 C 273.25283 254.69184 271.63096 257.54216 271.2049 259.3495 C 269.18727 267.90884 241.8298 296.92862 235.7784 296.92862 C 234.81833 296.92862 232.77447 297.9874 231.2365 299.28143 L 228.44012 301.63423 L 230.9691 303.7233 C 232.36 304.8723 234.9293 308.12643 236.67868 310.95476 C 239.6385 315.74016 240.0039 315.9663 241.94225 314.21212 C 243.08783 313.17537 244.42018 312.3271 244.90296 312.3271 C 248.67274 312.3271 270.48985 292.4099 270.48985 288.96843 C 270.48985 288.1648 271.76772 286.66992 273.3296 285.64656 C 274.89144 284.6232 277.33007 281.2795 278.74874 278.21616 C 283.5399 267.87056 286.94017 261.61547 288.1941 260.84048 C 288.88034 260.41652 289.44183 259.25205 289.44183 258.25317 C 289.44183 257.2543 290.4939 255.0996 291.77973 253.46492 C 293.06552 251.83024 294.4539 248.7003 294.86486 246.50942 C 295.27583 244.31858 296.3559 241.90874 297.265 241.1543 C 298.17405 240.39986 298.91784 237.76018 298.91784 235.28833 C 298.91784 232.81648 299.5079 230.5974 300.22906 230.357 C 301.1093 230.06376 301.5569 223.89959 301.59083 211.6024 C 301.6517 189.55553 301.57292 188.27068 300.08424 187.35122 C 299.4427 186.95458 298.91784 185.61439 298.91784 184.37264 C 298.91784 181.08887 295.39093 171.08898 293.4641 168.90943 C 292.5548 167.88092 291.80887 166.28183 291.8064 165.35593 C 291.80404 164.42999 290.6047 161.86493 289.1413 159.65574 C 284.48524 152.62673 281.22547 147.20952 279.0849 142.94371 C 277.94076 140.66352 275.40552 136.969 273.4511 134.73362 C 269.0451 129.69421 256.0458 116.8847 255.33778 116.8847 C 255.0508 116.8847 251.42488 114.21958 247.27995 110.96223 C 243.135 107.70483 239.00713 105.03971 238.10684 105.03971 C 237.20655 105.03971 234.4875 103.69438 232.06448 102.05008 C 227.5422 98.98115 207.71987 93.19474 201.72914 93.19474 C 199.88445 93.19474 198.08198 92.72028 197.72357 92.14035 C 196.71287 90.505 171.77822 89.21768 167.2374 90.56642 C 165.06778 91.21082 160.0945 92.43864 156.18567 93.29479 C 152.2768 94.15099 146.44807 95.80143 143.23294 96.96245 C 140.0178 98.12343 137.15517 98.8413 136.8716 98.55773 C 136.58822 98.27435 134.05741 99.74983 131.24806 101.83707 C 128.43865 103.92426 122.59825 108.03056 118.26936 110.96223 C 113.94052 113.89385 109.24072 117.57977 107.82545 119.15316 C 105.38848 121.86232 97.77681 130.78414 92.74806 136.8257 C 91.48191 138.34684 90.44593 140.3457 90.44593 141.26758 C 90.44593 142.18945 89.97223 142.94371 89.39329 142.94371 C 88.8143 142.94371 87.99355 144.79359 87.56937 147.05458 C 87.14542 149.31556 85.48683 152.72392 83.88408 154.62869 C 82.28132 156.53345 80.96996 158.94777 80.96996 159.99379 C 80.96996 161.03985 80.4369 161.89569 79.78543 161.89569 C 79.13396 161.89569 78.60095 163.28096 78.60095 164.97406 C 78.60095 166.66716 77.85085 169.73205 76.93408 171.7849 C 76.01731 173.83781 74.34512 179.51513 73.218075 184.40116 C 72.09107 189.28724 70.69215 194.21423 70.10944 195.35005 C 69.52669 196.48587 69.03222 206.0803 69.01055 216.67104 C 68.97474 233.7971 69.2917 236.97498 71.870185 245.40287 C 74.25961 253.2135 75.233955 254.94854 77.41391 255.2753 C 78.86853 255.49333 80.63684 255.09355 81.34346 254.38692 C 82.05009 253.6803 83.82274 253.1021 85.28269 253.1021 C 88.60061 253.1021 89.68549 251.46385 88.19224 248.70844 C 87.56002 247.54187 86.1097 242.3712 84.96931 237.21808 C 83.12427 228.88084 83.03929 225.6461 84.19799 207.85237 C 85.07062 194.452 86.05933 186.99312 87.19542 185.24021 C 88.12781 183.80153 89.23109 180.45809 89.64712 177.81034 C 90.96542 169.42042 95.71397 156.50073 98.84848 152.77554 C 100.51208 150.79852 102.56484 147.51104 103.41025 145.47004 C 104.25566 143.42909 105.35782 141.75918 105.85954 141.75918 C 106.36121 141.75918 107.6248 139.62708 108.66746 137.0212 C 109.71016 134.41532 111.17472 132.28322 111.92208 132.28322 C 112.6695 132.28322 116.5382 129.44243 120.51933 125.97037 C 124.50042 122.4983 129.49 118.90353 131.60728 117.98197 C 133.7246 117.06041 135.45692 115.98789 135.45692 115.59854 C 135.45692 115.20905 137.7223 114.22939 140.49105 113.42114 C 143.2598 112.61289 148.3985 110.61187 151.91041 108.97442 C 155.42227 107.33692 161.28556 105.58003 164.93987 105.07016 C 175.11951 103.64988 195.05084 104.55716 199.04504 106.62264 C 200.92491 107.59474 204.57668 108.77184 207.1601 109.23837 C 209.74345 109.7049 212.39017 110.48065 213.04164 110.96227 C 213.6931 111.44394 216.225 112.4818 218.668 113.2687 C 221.11102 114.0556 223.1099 115.1911 223.1099 115.79207 C 223.1099 116.393 224.70898 116.8847 226.6634 116.8847 C 228.6178 116.8847 230.2169 117.44493 230.2169 118.12966 C 230.2169 118.81435 232.2157 120.20334 234.65877 121.21627 C 238.6488 122.8706 243.9636 127.22572 257.7565 140.14349 C 260.1995 142.43151 262.19837 144.59925 262.19837 144.96067 C 262.19837 145.32195 264.11576 147.74012 266.4592 150.33405 C 268.80266 152.92798 271.49925 156.91515 272.45156 159.1944 C 273.40392 161.47365 275.08493 163.57433 276.18718 163.86259 C 278.7362 164.5292 287.39922 177.10412 286.65163 179.05236 C 286.34273 179.8572 283.24632 180.8755 279.77058 181.31527 C 276.2949 181.7549 271.73316 182.41935 269.63343 182.79155 C 266.27517 183.38689 265.63928 183.06106 264.34927 180.08512 C 262.8306 176.5814 259.6667 172.20614 254.14922 165.97965 C 252.38727 163.99125 249.34655 160.2846 247.39214 157.7427 C 241.68984 150.32635 226.92224 135.83671 225.06592 135.83671 C 224.1295 135.83671 223.08137 135.10193 222.73675 134.20387 C 222.17324 132.73542 219.24906 132.02499 201.7889 129.11473 C 199.5087 128.73464 197.2786 127.85185 196.83312 127.15293 C 196.2595 126.25308 191.9769 126.32601 182.15998 127.40274 C 166.57164 129.11262 153.1291 134.04974 144.2187 141.3376 C 141.54566 143.52387 138.48076 145.31259 137.4078 145.31259 C 136.33483 145.31259 135.45692 145.84565 135.45692 146.49712 C 135.45692 147.14859 134.6442 147.6816 133.65087 147.6816 C 132.6575 147.6816 131.3658 148.94148 130.78036 150.48129 C 130.19492 152.02115 128.86145 153.6089 127.81709 154.00963 C 126.77277 154.4103 124.84822 157.01494 123.54031 159.79757 C 122.2324 162.58015 120.38874 166.18939 119.44332 167.8181 C 114.49556 177.98418 113.01076 177.45144 112.9514 184.4915 C 112.9514 186.35065 112.05093 190.4223 110.95043 193.53957 C 108.26047 201.15876 108.02203 236.51906 110.66033 236.51906 C 111.19191 236.51906 111.95629 235.98605 112.35893 235.33458 C 112.7614 234.68306 114.89364 234.15005 117.09692 234.15005 C 119.3002 234.15005 121.35547 233.7413 121.66424 233.2417 C 121.97315 232.74212 121.6329 228.2279 120.91128 223.21015 C 119.08961 210.56525 120.91262 194.34599 125.16603 185.3549 C 126.91702 181.65363 128.34965 177.75174 128.34965 176.68406 C 128.34965 175.61642 129.94874 173.14377 131.90315 171.18935 C 133.85757 169.23494 135.45665 167.348 135.45665 166.99611 C 135.45665 166.64423 137.72203 164.24321 140.49078 161.66047 C 143.25953 159.07773 146.9019 155.67542 148.58487 154.09984 C 150.26786 152.52421 152.23968 151.2351 152.96668 151.2351 C 153.69372 151.2351 155.7814 149.6699 157.606 147.75686 C 164.54963 140.47665 189.11047 136.10761 201.8408 139.88813 C 205.30596 140.91718 209.57154 141.7591 211.31984 141.7591 C 213.06819 141.7591 215.76983 142.74557 217.32352 143.95123 C 218.87717 145.15689 221.74745 146.66021 223.70186 147.29194 C 225.65628 147.92367 228.31315 150.03387 229.60598 151.9813 C 230.8988 153.92869 233.97722 156.96063 236.44687 158.71892 C 238.91648 160.4772 241.5861 163.37708 242.37936 165.16307 C 244.12798 169.10014 244.43312 169.54013 249.56068 175.51735 C 251.7961 178.12323 254.42012 182.65394 255.39173 185.5856 C 257.33683 191.45443 257.9503 214.01359 256.16474 214.01359 C 255.57425 214.01359 255.0911 215.3766 255.0911 217.04253 C 255.0911 222.997 252.2943 231.2534 248.98012 235.08253 C 247.12657 237.22407 244.87292 240.74046 243.97196 242.89673 C 243.07104 245.05296 240.06918 248.63104 237.30123 250.84797 C 234.53324 253.06495 230.9831 256.0781 229.412 257.5439 C 227.8409 259.00972 226.16507 260.20902 225.68802 260.20902 C 225.21092 260.20902 223.94012 261.1418 222.86398 262.28193 C 219.7288 265.6033 217.96948 266.8065 214.2074 268.20198 C 212.26311 268.92316 207.80216 270.59822 204.2941 271.92435 C 200.2973 273.43524 197.20148 273.96955 196.00258 273.35546 C 194.95034 272.81645 190.0917 272.3467 185.20563 272.3115 C 174.95476 272.23764 157.13977 269.3365 155.23375 267.43044 C 154.51934 266.71603 153.20471 266.13153 152.3123 266.13153 C 151.41988 266.13153 148.36555 264.53245 145.5249 262.57803 C 142.68425 260.62362 139.92307 259.0076 139.38898 258.98688 C 138.8549 258.9645 137.47584 258.23433 136.32444 257.36062 C 134.11239 255.68203 134.64585 251.91754 137.0958 251.91754 C 137.85794 251.91754 140.5993 249.803 143.18768 247.2185 C 148.72016 241.69443 151.4197 241.35647 161.0953 244.9766 C 167.81097 247.48926 175.1346 247.6088 196.7169 245.55809 C 201.52298 245.10145 211.42545 238.57147 219.9855 230.21418 C 225.20206 225.12118 226.75499 222.73986 227.37073 218.88932 C 227.7996 216.20764 228.5309 214.01359 228.996 214.01359 C 230.2544 214.01359 232.58666 205.44118 232.5783 200.84664 C 232.57475 198.64206 231.7947 195.35 230.84584 193.53093 C 229.89702 191.71185 228.762 188.31164 228.32363 185.97495 C 227.81336 183.2549 226.73202 181.51856 225.3181 181.14882 C 224.10344 180.83096 223.10962 179.6061 223.10962 178.4264 C 223.10962 177.2467 221.77704 175.23334 220.14837 173.9522 C 218.5197 172.6711 217.1871 171.22535 217.1871 170.73943 C 217.1871 169.0902 213.0543 166.7092 210.08011 166.6449 C 208.45144 166.6091 205.78632 165.53859 204.1576 164.26461 C 202.52892 162.99063 200.2636 161.93643 199.12352 161.92192 C 197.9834 161.90849 197.0506 161.36258 197.0506 160.71111 C 197.0506 160.0596 195.05178 159.53961 192.60877 159.55555 C 184.62328 159.60748 175.05894 162.39526 166.0709 167.29029 C 164.34168 168.23208 162.0763 169.0026 161.03678 169.0026 C 159.99721 169.0026 159.27666 169.40238 159.43555 169.89098 C 159.71893 170.76173 157.45405 174.28187 152.5297 180.62543 C 147.43123 187.19324 142.76461 200.0319 142.0082 209.5717 C 141.2218 219.49025 142.36456 221.18366 146.64895 216.44935 C 147.79484 215.18316 150.12912 213.98386 151.83618 213.78424 C 154.78858 213.43907 154.9553 213.04847 155.2548 205.77547 C 155.66353 195.8482 157.37673 190.81232 162.32463 184.99331 C 169.16195 176.95227 170.14314 176.10981 172.6795 176.1023 C 174.03132 176.09826 176.66411 175.29874 178.53015 174.32552 C 183.10804 171.93802 196.25162 171.94285 198.23513 174.33447 C 199.04616 175.31173 200.89886 176.11125 202.35231 176.11125 C 204.99115 176.11125 208.1566 178.85461 214.77637 186.87865 C 218.03973 190.8343 218.30135 191.88282 218.52224 201.89136 L 218.75951 212.65137 L 214.71585 216.6163 C 212.49184 218.79696 209.33964 222.5628 207.71092 224.98473 C 203.43849 231.33818 200.30612 232.40524 184.76322 232.8021 C 170.37593 233.1692 166.25347 232.58006 166.25347 230.1554 C 166.25347 229.09076 169.74962 228.637 178.98684 228.50268 C 199.32672 228.20676 200.89487 227.69175 204.3167 220.18035 C 205.66975 217.21023 207.51998 214.0369 208.42834 213.12856 C 209.492 212.0649 210.07993 208.81485 210.07993 203.99897 C 210.07993 197.57626 209.53667 195.6786 206.23034 190.55217 C 200.1578 181.13682 190.34908 176.25728 183.36282 179.17632 C 181.16075 180.0964 178.16798 180.84918 176.71228 180.84918 C 173.44929 180.84918 166.25347 187.60497 166.25347 190.66843 C 166.25347 191.9198 165.20347 193.19056 163.88446 193.5355 C 162.15702 193.98721 161.51056 195.16006 161.49731 197.86645 C 161.48836 199.90775 160.9848 202.3596 160.38056 203.31495 C 159.77637 204.2703 159.71929 205.60289 160.25387 206.2762 C 160.78836 206.94952 161.58466 208.67248 162.02348 210.10498 C 162.9685 213.19016 159.24143 217.5687 155.6702 217.5687 C 153.02215 217.5687 149.8816 218.85346 142.95027 222.77236 C 139.42054 224.768 137.64198 225.20275 136.73161 224.29238 C 135.16866 222.72943 135.02316 204.9469 136.56552 203.99364 C 137.1754 203.6167 138.86241 199.4543 140.31439 194.7439 C 141.76637 190.03344 143.71957 184.58037 144.65487 182.62596 C 146.71212 178.32715 159.41907 165.89982 162.88084 164.80107 C 164.24646 164.36771 166.91887 162.24188 168.81956 160.0771 C 172.04284 156.40595 176.6197 154.44245 182.24433 154.31768 C 189.39018 154.1592 200.63343 156.55123 207.09692 159.60506 C 211.144 161.51721 214.82589 163.0817 215.2789 163.0817 C 217.1781 163.0817 232.58554 177.6378 232.58554 179.43208 C 232.58554 180.01215 233.65161 181.7159 234.95456 183.2182 C 236.2575 184.7205 237.32357 187.16924 237.32357 188.65976 C 237.32357 190.15033 237.78764 191.6567 238.3548 192.00724 C 239.81722 192.91107 239.96518 207.7844 238.52046 208.67714 C 237.8621 209.08408 237.3234 210.19573 237.3234 211.14755 C 237.3234 213.9656 228.0834 232.38644 225.49475 234.72913 C 224.1828 235.91643 223.1094 237.60474 223.1094 238.481 C 223.1094 239.35725 222.61444 240.07417 222.00948 240.07417 C 221.40457 240.07417 220.20527 240.75183 219.34437 241.58005 C 215.2606 245.50897 210.72474 248.36565 208.57012 248.36565 C 207.26395 248.36565 205.51436 249.29845 204.6821 250.43852 C 201.63687 254.61005 161.20435 253.66454 152.2083 249.21142 C 149.83687 248.0375 149.12268 248.19074 147.47032 250.2279 C 146.40022 251.54717 144.59188 252.98374 143.45181 253.4202 C 137.95285 255.52547 145.1377 260.74338 158.55419 264.38816 C 162.46301 265.45006 167.30284 267.0586 169.30928 267.9627 C 172.83072 269.54947 187.95584 269.64272 196.1546 268.12834 C 202.29443 266.99417 215.06638 262.46714 218.19807 260.31503 C 219.92206 259.13023 224.39752 256.19503 228.14352 253.79226 C 231.88948 251.38954 234.95684 249.0524 234.95988 248.59863 C 234.96342 248.1448 236.53667 246.0972 238.45715 244.04827 C 241.8904 240.38553 245.60184 231.74804 248.36088 220.9997 C 249.13077 218.00062 250.47342 214.69183 251.34466 213.64675 C 253.57995 210.9654 253.33238 196.76375 250.98785 193.18568 C 249.9871 191.65836 249.1663 189.72364 249.16394 188.88638 C 249.1505 184.72802 242.04794 169.7282 238.39878 166.15657 C 236.17857 163.9835 233.72127 161.4699 232.93814 160.5708 C 230.716 158.01968 228.04535 155.97483 226.93554 155.97483 C 226.37906 155.97483 224.75657 154.39607 223.32993 152.46641 C 221.63464 150.17346 218.99276 148.52258 215.70406 147.70121 C 212.93643 147.00994 209.8354 145.97915 208.81285 145.41054 C 207.7903 144.8419 205.4865 144.65713 203.69326 145.00002 C 201.90006 145.34294 199.16032 144.94227 197.60497 144.10984 C 192.068 141.14652 168.35437 145.33018 165.8305 149.71557 C 165.27224 150.68566 162.04076 152.70646 158.64941 154.20625 C 155.2581 155.70604 150.80069 158.84968 148.74407 161.19206 C 146.6874 163.53444 144.70564 165.45093 144.3401 165.45093 C 143.97435 165.45093 141.9594 167.3955 139.86205 169.77212 C 135.88611 174.27744 131.58897 184.77283 132.35187 188.11502 C 132.59496 189.17948 131.7937 190.9066 130.57151 191.95307 C 129.34929 192.99953 128.34934 195.16203 128.34934 196.75865 C 128.34934 198.35527 127.78486 200.01045 127.09488 200.43687 C 126.40496 200.86307 125.95118 202.36057 126.08652 203.76416 C 126.22172 205.16774 125.91595 207.2848 125.40693 208.4687 C 124.18583 211.30827 125.42484 224.5952 127.06493 226.2343 C 127.77138 226.9407 128.34934 228.9797 128.34934 230.76537 C 128.34934 232.55105 128.92153 234.3657 129.62086 234.7979 C 131.54187 235.9852 127.14144 238.60478 119.88017 240.59657 C 116.39477 241.5526 112.3438 242.68793 110.87799 243.1195 C 108.46654 243.82948 108.21284 243.50317 108.21284 239.6902 C 108.21284 237.37248 107.67114 235.1414 107.00901 234.73222 C 106.34693 234.32303 106.02505 233.62527 106.2937 233.18166 C 106.56231 232.738 106.1106 227.84445 105.28999 222.3069 C 104.4693 216.76935 104.23323 211.68106 104.76544 210.99955 C 105.2976 210.31808 105.74654 208.719 105.76306 207.44605 C 105.86066 199.94146 108.46542 174.93692 109.47575 171.80801 C 110.13488 169.76688 110.55141 167.63478 110.40134 167.07003 C 110.25137 166.50527 112.8534 163.25754 116.18377 159.85286 C 119.51415 156.44817 123.92205 151.31895 125.97907 148.45453 C 128.03614 145.59015 131.01007 142.5557 132.58775 141.71132 C 134.16548 140.86699 135.45634 139.73318 135.45634 139.1918 C 135.45634 138.65041 136.0266 138.20743 136.72355 138.20743 C 137.42051 138.20743 140.31493 136.60839 143.15558 134.65393 C 145.99623 132.69952 149.02392 131.08351 149.88374 131.06278 C 150.74357 131.0404 152.48175 130.24253 153.74637 129.28601 C 155.01094 128.32953 156.9354 127.54693 158.02292 127.54693 C 159.11044 127.54693 162.07348 126.12871 164.60742 124.39537 C 168.67133 121.61538 170.65694 121.17759 181.44736 120.68254 C 193.08385 120.14863 201.4958 121.42144 204.69035 124.19942 C 205.30923 124.73762 207.5374 125.17797 209.64183 125.17797 C 215.44195 125.17797 227.96208 131.4776 231.8477 136.3511 C 233.7006 138.67504 235.84612 140.57644 236.61556 140.57644 C 238.75939 140.57644 247.9838 150.46683 247.9838 152.76547 C 247.9838 153.88258 250.1159 156.72282 252.72178 159.0771 C 255.32766 161.43135 257.45976 164.05917 257.45976 164.9167 C 257.45976 165.7742 258.52583 166.81413 259.82878 167.22766 C 261.13172 167.64132 262.1978 168.97999 262.1978 170.2027 C 262.1978 171.42542 263.40363 173.8277 264.8774 175.54107 C 267.4581 178.54128 267.7651 178.60396 273.18903 177.2382 C 276.28665 176.4582 279.10067 175.36764 279.4424 174.8147 C 280.3439 173.35601 276.4312 167.81994 274.49878 167.81994 C 273.59652 167.81994 272.8583 166.98483 272.8583 165.96416 C 272.8583 163.44436 267.03762 155.97492 265.07403 155.97492 C 264.20467 155.97492 262.60814 154.10933 261.52613 151.82918 C 260.44412 149.54903 259.08656 147.68344 258.5093 147.68344 C 257.93207 147.68344 257.451 147.01715 257.4402 146.20281 C 257.3999 142.99954 231.70942 121.62447 227.9021 121.62447 C 226.9199 121.62447 223.4409 120.61431 220.17093 119.37964 C 216.901 118.14502 211.56043 116.52055 208.30307 115.76973 C 205.04567 115.01892 200.33164 113.34642 197.82743 112.05306 C 194.23028 110.19525 190.74837 109.67464 181.24442 109.57351 C 164.91982 109.39981 157.47473 110.57126 149.07809 114.63445 C 145.16922 116.52596 140.24992 118.26826 138.1463 118.50625 C 135.25228 118.83351 131.64918 121.47785 123.34006 129.37215 C 111.45027 140.66835 108.21284 144.96465 108.21284 149.44714 C 108.21284 151.1201 107.22063 152.8691 105.85783 153.59843 C 104.56259 154.29163 103.15843 156.30925 102.73752 158.082 C 102.31669 159.85474 101.33725 162.10471 100.56119 163.08192 C 98.19549 166.0609 91.63032 184.06893 91.62258 187.60036 C 91.61855 189.42486 90.81903 192.4444 89.8458 194.31044 C 87.37633 199.04547 87.34289 236.04568 89.80551 239.29524 C 90.7149 240.49544 91.8008 243.5008 92.21862 245.97385 C 94.31025 254.54088 93.78292 248.84396 94.31025 254.54088 C 94.5032 256.3322 93.84739 257.3049 92.22252 257.6376 C 90.91958 257.90443 87.85325 259.70452 85.40849 261.63785 C 79.94127 265.96128 71.50367 267.46106 71.47654 264.11422 C 71.46758 262.9446 70.61371 259.58902 69.58019 256.65736 C 66.10812 246.8086 64.386776 238.81622 64.386776 232.54375 C 64.386776 229.05392 63.65262 225.30917 62.71781 224.03076 C 61.79235 222.7651 61.43156 220.9493 61.907855 219.95472 C 62.38034 218.96825 62.69923 217.3616 62.61654 216.3844 C 62.53372 215.40718 62.97693 213.27509 63.60167 211.6464 C 64.22615 210.01773 64.86996 205.22047 65.03229 200.98591 C 65.1948 196.7513 65.89973 190.355 66.599144 186.77192 C 69.54545 171.67742 71.535854 163.75053 72.66272 162.62367 C 73.32274 161.96365 73.86279 160.40763 73.86279 159.16588 C 73.86279 157.9241 75.18511 155.86797 76.8013 154.59668 C 78.41753 153.32539 79.64146 151.91608 79.52121 151.46494 C 79.15187 150.07994 86.71228 135.81442 90.87485 130.04152 C 93.03856 127.04083 95.13323 123.67827 95.52975 122.56922 C 95.9264 121.46017 98.60077 119.48216 101.47316 118.17362 C 104.34556 116.86509 107.53603 114.51192 108.56315 112.94435 C 112.52104 106.90383 133.13827 93.52925 137.43067 94.21774 C 138.19057 94.33951 141.75437 93.09365 145.35013 91.4489 C 148.94593 89.80415 152.32188 88.45519 152.8522 88.45116 C 153.38258 88.44713 155.41556 87.51563 157.36997 86.38115 C 160.29595 84.68268 163.7836 84.3312 177.11905 84.39088 C 188.7269 84.44281 193.84997 84.90764 195.20435 86.03169 C 196.24365 86.89424 199.08314 88.04085 201.51425 88.57973 C 217.7374 92.17558 221.8539 93.22424 226.07097 94.83559 C 228.67685 95.83129 232.0866 96.6694 233.6482 96.69796 C 235.20978 96.72482 238.79023 98.63688 241.6047 100.94317 C 244.4192 103.24942 246.8727 105.006 247.05695 104.84667 C 248.03237 104.00328 257.13174 110.31098 258.10192 112.50302 C 258.72617 113.91359 260.43306 115.65772 261.89502 116.3789 C 263.35698 117.10008 264.27317 117.97015 263.93096 118.31236 C 263.58893 118.65439 264.78102 119.89922 266.58044 121.07825 C 270.49558 123.64357 273.94934 127.59408 274.00378 129.5693 C 274.02616 130.35589 275.90876 132.48799 278.1889 134.30733 C 280.469 136.12664 282.3346 138.07375 282.33465 138.6342 C 282.33465 139.19471 284.9998 143.31748 288.25716 147.79594 C 291.51456 152.27445 294.17968 156.48707 294.17968 157.15735 C 294.17968 157.82766 294.66635 159.30162 295.26124 160.43288 C 298.8265 167.21302 302.5618 176.23199 302.3475 177.54308 C 302.21007 178.38437 302.4084 179.8722 302.78848 180.8494 C 303.63903 183.03604 304.59354 188.38242 306.06634 199.20914 C 307.43706 209.28568 306.51783 225.59936 304.2054 232.23498 C 303.27045 234.91796 302.4977 239.41406 302.4882 242.22628 C 302.4748 245.8366 301.60063 248.48057 299.50972 251.22184 C 297.88105 253.35716 296.5485 255.72742 296.5485 256.48912 C 296.5485 257.2508 296.07764 258.79957 295.5022 259.93083 C 294.92673 261.06208 293.74117 263.5867 292.8677 265.54112 C 291.99417 267.49554 289.787 270.86016 287.96286 273.0181 C 286.13872 275.17597 283.5803 279.20917 282.27753 281.98074 C 280.97472 284.75226 277.86107 288.96037 275.35825 291.33202 C 272.85546 293.70368 269.91158 297.5326 268.81627 299.84072 C 267.721 302.14885 266.14324 304.03736 265.31014 304.03736 C 264.4771 304.03736 262.50324 305.4282 260.92386 307.12813 C 259.34447 308.8281 257.2527 310.57164 256.2755 311.00276 C 251.55337 313.08606 243.31673 319.0117 243.28346 320.3496 C 243.23556 322.27344 238.0095 324.69054 235.76227 323.82816 C 234.82048 323.4669 233.40073 320.46507 232.60735 317.1577 C 231.8139 313.85034 230.68485 311.14436 230.09839 311.14436 C 229.51187 311.14436 229.032 310.4167 229.032 309.52732 C 229.032 308.638 227.93916 306.521 226.6034 304.82287 C 224.66264 302.3556 224.43307 301.25276 225.4606 299.33287 C 226.16776 298.01148 227.26682 296.93037 227.90294 296.93037 C 229.96247 296.93037 240.63626 289.31444 242.26064 286.68595 C 244.71265 282.71807 255.0408 272.05588 256.43228 272.05588 C 258.1654 272.05588 263.4442 267.7744 262.668 266.9982 C 261.902 266.2322 264.05586 262.26783 268.2962 256.639 C 270.0215 254.34873 272.02975 250.25904 272.75903 247.55086 C 273.48827 244.84264 274.47523 242.45232 274.95233 242.239 C 277.0951 241.2809 282.13418 228.15456 282.83145 221.71466 C 283.2545 217.8058 284.11554 214.42998 284.7445 214.2128 C 285.3734 213.99568 285.88797 211.14026 285.88797 207.86746 C 285.88797 202.92801 285.56967 202.03914 284.01437 202.63595 C 282.9839 203.03125 280.31873 203.35493 278.09185 203.35493 C 274.08288 203.35493 274.043 203.4073 274.043 208.68515 C 274.043 211.61677 273.58403 214.01542 273.02303 214.01542 C 272.46204 214.01542 271.71714 217.16842 271.36767 221.0221 C 271.01848 224.87576 269.2701 231.67184 267.48293 236.12447 C 265.69573 240.57705 264.1376 245.01965 264.02036 245.9969 C 263.64072 249.15975 261.8594 252.44115 258.7378 255.72657 C 257.05783 257.4948 253.81767 261.3268 251.53752 264.2422 C 249.25737 267.15758 246.81033 269.5753 246.09963 269.61488 C 245.38897 269.65517 242.63244 271.81896 239.97404 274.42485 C 237.3156 277.03078 234.73586 279.16287 234.2413 279.16287 C 233.7467 279.16287 229.39955 281.8883 224.58094 285.21938 L 215.81993 291.27588 L 191.9251 291.38646 C 167.79395 291.49793 161.1388 290.69788 152.03957 286.5911 C 147.22754 284.41923 140.62916 279.77826 137.23333 276.17713 C 135.93035 274.7954 133.132 272.65497 131.01468 271.42057 C 128.8974 270.18617 127.16508 268.75814 127.16508 268.2471 C 127.16508 266.39687 122.74343 267.37417 120.65033 269.687 C 119.47117 270.98994 117.62957 272.056 116.5579 272.056 C 113.01381 272.056 111.5651 274.6081 113.74309 277.0147 C 114.81238 278.19628 116.18588 279.163 116.79536 279.163 C 117.40484 279.163 120.65364 281.4663 124.0149 284.28152 C 131.93552 290.9153 136.89023 293.6881 145.56578 296.34206 C 149.45208 297.53098 153.17705 298.91406 153.84342 299.4156 C 155.53737 300.69056 180.42789 303.9048 191.12805 304.2304 C 196.01408 304.37904 202.27598 304.08356 205.0433 303.57316 C 209.36565 302.77637 210.1693 302.9524 210.74515 304.82215 C 211.11404 306.01926 212.1571 308.5978 213.06349 310.5522 C 214.51569 313.68363 216.01055 321.1983 216.5954 328.30707 C 216.99832 333.207 215.04597 333.59123 191.54695 333.23657 C 165.07696 332.83724 148.49341 330.10377 143.74804 325.35844 C 143.42213 325.03253 140.50054 323.43362 137.25514 321.80494 C 134.00978 320.17627 128.81825 317.11137 125.71843 314.99405 C 122.61862 312.87676 119.06127 311.14445 117.8133 311.14445 C 115.25371 311.14445 108.09841 305.5029 102.3406 298.94513 C 100.22368 296.53412 97.81263 294.56144 96.98266 294.56144 C 96.1527 294.56144 94.81009 293.76192 93.99907 292.7847 C 93.18809 291.8075 91.761 291.00794 90.8278 291.00794 C 89.4573 291.00794 78.88196 295.2668 77.69667 296.2961 C 77.52521 296.44516 78.17166 298.4495 79.13316 300.7507 C 80.73587 304.58645 100.40056 324.14342 105.52641 326.9993 C 106.67835 327.6411 108.32516 328.86704 109.18606 329.7236 C 110.04696 330.5801 111.664 331.2809 112.77949 331.2809 C 113.89503 331.2809 117.7034 333.1465 121.24257 335.4267 C 124.78174 337.70684 128.85666 339.57243 130.29789 339.57243 C 131.73917 339.57243 133.62271 340.2589 134.48356 341.0979 C 136.8939 343.44706 146.30777 346.67334 153.09861 347.4776 C 156.46305 347.87605 159.49813 348.65905 159.8433 349.2175 C 160.86599 350.87222 190.41386 350.4733 192.1052 348.7819 Z M 181.19406 209.08355 C 181.4 201.48495 187.8128 198.13344 191.65368 203.617 C 194.2604 207.3386 194.02233 207.99308 189.35181 209.94453 C 187.07167 210.8972 185.20607 212.20257 185.20607 212.8453 C 185.20607 213.48805 184.27328 214.01435 183.1332 214.01484 C 181.46938 214.01556 181.0867 213.04242 181.19406 209.08355 Z" fill="black"/>
          </g>
        </g>
      </g>
    </g>
  </g>
</svg>
