<?xml version="1.0" encoding="UTF-8" standalone="no"?>
<!DOCTYPE svg PUBLIC "-//W3C//DTD SVG 1.1//EN" "http://www.w3.org/Graphics/SVG/1.1/DTD/svg11.dtd">
<svg xmlns="http://www.w3.org/2000/svg" xmlns:xl="http://www.w3.org/1999/xlink" version="1.1" xmlns:dc="http://purl.org/dc/elements/1.1/" viewBox="33.75 85.5 297 305.5907" width="297" height="305.5907">
  <defs>
    <clipPath id="artboard_clip_path">
      <path d="M 33.75 85.5 L 330.75 85.5 L 330.75 366.99875 L 330.75 391.0907 L 33.75 391.0907 Z"/>
    </clipPath>
  </defs>
  <g id="Laurel_Wreath_(6)" stroke-opacity="1" fill="none" fill-opacity="1" stroke-dasharray="none" stroke="none">
    <title>Laurel Wreath (6)</title>
    <g id="Laurel_Wreath_(6)_Layer_2" clip-path="url(#artboard_clip_path)">
      <title>Layer 2</title>
      <g id="Group_574">
        <g id="Graphic_686">
          <path d="M 195.0518 91.96501 C 193.35468 93.78335 192.26368 94.02579 189.47556 93.29846 C 182.2022 91.23768 168.98896 94.75313 164.62495 100.08692 C 164.01883 100.81425 160.50338 101.78403 156.98793 102.1477 C 150.68436 102.87504 150.56314 102.87504 150.9268 99.60203 L 151.29047 96.32902 L 143.16856 96.57147 C 133.59199 96.93513 126.80353 99.84447 122.80318 105.42071 C 119.89384 109.54227 117.95428 110.14839 117.95428 106.87538 C 117.95428 104.20848 115.65106 101.78403 113.2266 101.78403 C 110.31727 101.78403 103.89247 107.48149 100.2558 113.30017 C 97.34646 117.7854 95.89179 118.8764 92.13389 119.48252 C 83.0422 121.05841 71.76851 137.05978 69.82895 151.24281 C 68.98039 157.18272 66.79839 158.7586 63.52538 155.84927 C 58.67648 151.48526 52.49413 155.4856 50.190905 164.69851 C 47.645233 174.51753 47.40279 181.42722 49.34235 185.18511 C 50.43335 187.2459 51.28191 190.5189 51.28191 192.45846 C 51.28191 194.7617 52.25169 196.70125 53.82758 197.79225 C 56.13081 199.24692 56.25203 199.85304 55.039805 204.21705 C 54.31247 206.88394 53.70636 210.64184 53.70636 212.46018 C 53.70636 214.39974 53.34269 215.73318 52.8578 215.49074 C 52.25169 215.2483 50.43335 214.2785 48.615013 213.42996 C 45.705673 211.97529 44.97834 212.0965 41.09922 214.39974 C 35.644205 217.79397 34.79565 221.7943 37.462543 233.43167 C 39.15966 241.1899 40.25066 243.49314 44.12978 247.49348 C 49.099903 252.70605 49.221125 254.52438 44.735893 254.52438 C 41.341663 254.52438 37.947433 258.03984 37.947433 261.6765 C 37.947433 265.4344 43.52367 273.19265 48.615013 276.7081 C 51.03946 278.284 56.494475 280.34478 60.61604 281.19333 C 67.646945 282.648 68.25306 283.01167 68.25306 285.921 C 68.25306 288.70913 67.52572 289.31524 62.19193 290.52747 C 55.28225 292.22458 48.85746 296.22492 48.85746 298.8918 C 48.85746 303.6195 63.6466 312.7112 71.40484 312.7112 C 74.67785 312.7112 75.16274 314.16585 72.495845 316.34786 C 71.526065 317.1964 70.67751 318.6511 70.67751 319.62087 C 70.67751 322.28776 74.435405 327.2579 76.374965 327.2579 C 77.34475 327.2579 80.01164 328.10644 82.31487 329.19744 C 85.34543 330.6521 88.13355 331.01578 92.25511 330.40967 C 95.4069 330.046 99.04357 329.5611 100.2558 329.4399 C 104.25614 328.83378 103.40758 331.37945 98.43746 334.8949 C 92.13389 339.2589 92.49756 342.28947 99.77091 347.2596 C 104.98348 350.77505 105.83203 350.89627 117.95428 350.89627 C 124.98519 350.89627 132.86465 350.5326 135.53155 350.0477 C 139.53189 349.4416 140.01678 349.4416 138.07722 350.65383 C 136.74377 351.5024 133.59199 353.92683 131.04631 356.23006 C 127.1672 359.6243 126.43986 361.07896 126.6823 364.10952 C 127.1672 369.20087 134.07688 372.7163 143.04734 372.47388 C 149.95702 372.23143 151.16925 373.2012 146.80524 375.14077 C 143.65345 376.4742 141.47145 381.6868 142.68367 384.83857 C 143.28979 386.6569 144.50201 386.89935 150.80558 386.29324 C 154.80592 385.80835 160.86705 384.11124 164.3825 382.53534 C 167.89795 380.83823 172.26196 379.26234 174.0803 378.77745 C 176.50475 378.29256 178.08064 376.8379 179.29287 373.92855 C 181.5961 368.2311 182.6871 367.98864 187.0511 372.1102 C 189.83923 374.6559 192.14245 375.7469 195.0518 375.7469 C 197.35502 375.7469 201.96148 377.20155 205.23448 378.89867 C 210.08338 381.44434 212.14417 381.92923 216.1445 381.2019 C 220.87219 380.35334 225.8423 376.11055 225.8423 372.83754 C 225.8423 370.17065 219.17507 364.83686 215.78084 364.83686 C 212.99272 364.83686 212.50783 364.35197 212.50783 361.2002 C 212.50783 357.0786 212.99272 356.9574 218.69018 359.26062 C 223.6603 361.3214 232.63077 361.07896 236.6311 358.89696 C 238.93434 357.5635 240.51023 357.5635 244.26813 358.6545 C 249.60192 360.35163 254.57204 359.6243 261.3605 356.23006 C 266.57307 353.56317 267.17918 350.89627 262.81517 349.80527 C 257.96627 348.59304 259.1785 347.3808 268.02774 344.95637 C 276.27087 342.65314 286.0899 336.9557 291.42368 331.37945 C 294.09058 328.59133 294.2118 328.10644 292.5147 325.07588 C 291.30246 323.0151 288.878 321.31798 285.84745 320.46942 C 281.72588 319.2572 281.3622 318.89353 283.423 318.1662 C 294.57547 314.16585 307.42505 304.83172 313.24373 296.83104 C 315.3045 293.9217 315.42574 292.8307 314.33473 291.49725 C 313.48618 290.52747 311.78906 289.6789 310.57684 289.6789 C 306.33405 289.6789 306.81894 286.8908 312.27395 281.43578 C 318.21385 275.25343 325.85087 261.43407 324.75987 258.64595 C 324.3962 257.67617 323.18398 256.94883 321.97175 256.94883 C 316.8804 256.8276 316.3955 255.1305 320.27464 249.06937 C 322.2142 245.91759 324.27498 241.6748 324.63865 239.4928 C 325.0023 237.432 326.21454 231.977 327.30554 227.49177 C 329.73 216.9454 329.00266 215.97563 320.0322 218.0364 C 316.3955 218.76375 312.27395 220.58208 310.9405 221.7943 C 306.45527 226.0371 306.81894 224.4612 312.15273 216.58174 L 317.3653 209.06595 L 317.4865 195.97392 C 317.72896 181.06355 317.24407 180.33621 309.48583 183.36678 C 306.94016 184.33656 304.5157 184.82145 304.15204 184.45778 C 303.78838 184.0941 303.4247 181.306 303.4247 178.27543 C 303.4247 175.24487 302.8186 170.5172 302.09126 167.8503 C 301.36393 165.1834 300.51537 159.72839 300.03048 155.72805 C 298.93948 146.27269 296.15136 145.42413 289.72657 152.69748 C 284.39278 158.39494 283.54422 158.7586 284.39278 154.03093 C 285.72622 147.72736 283.30177 136.57489 279.42265 130.87743 C 275.3011 124.81631 264.87595 116.33073 261.60295 116.33073 C 260.51194 116.33073 259.29972 117.42174 258.93605 118.75518 C 257.96627 122.39186 256.9965 121.78575 253.11737 114.99729 C 248.87458 107.60271 240.8739 101.17792 234.81277 99.9657 C 229.84265 99.11714 227.66065 100.81425 229.47898 104.20848 C 230.6912 106.39049 229.6002 116.33073 228.26676 116.33073 C 227.78187 116.33073 226.20598 113.66384 224.87253 110.26961 C 221.84197 102.87504 214.4474 93.90457 210.2046 92.20746 C 208.5075 91.60134 204.87082 90.63156 202.20392 90.2679 C 198.20358 89.66178 196.87013 90.02545 195.0518 91.96501 Z M 179.89898 124.93753 L 179.89898 124.93753 C 178.68676 133.05944 178.9292 133.78677 184.02055 135.36267 C 192.991 138.02956 199.77947 139.48423 206.4467 140.45401 C 215.90206 141.78746 218.56896 142.87846 218.56896 145.06047 C 218.56896 147.60614 222.0844 151.48526 224.38764 151.48526 C 225.35742 151.48526 227.66065 152.8187 229.72143 154.51582 C 231.661 156.21294 234.08544 157.54638 235.05522 157.54638 C 237.35845 157.54638 237.23722 160.69817 234.934 161.66795 C 232.2671 162.63773 232.752 165.78951 235.90378 167.72907 C 237.35845 168.57763 241.23757 169.66863 244.51057 170.15352 C 252.39004 171.1233 255.17815 173.91142 259.7846 185.42756 C 263.66373 195.00414 268.14896 200.58037 275.05864 203.9746 C 278.5741 205.79294 278.81654 206.39905 279.54388 215.00585 C 280.02877 220.0972 281.48344 227.24932 282.81688 231.12844 C 284.15033 235.00756 285.24133 238.28057 285.24133 238.4018 C 285.24133 238.64424 283.66544 238.76546 281.60466 238.76546 C 279.1802 238.76546 277.4831 239.61402 276.27087 241.43235 C 273.84642 245.06903 271.90686 257.7974 272.7554 264.10096 C 273.36153 268.1013 273.11908 269.07108 271.5432 269.07108 C 269.23996 269.07108 262.57273 277.3142 260.8756 282.28434 C 260.14828 284.34512 258.45116 286.28468 256.9965 286.76957 C 250.81414 288.5879 243.66202 298.64937 242.20735 307.4986 C 241.72246 310.40796 241.11634 312.7112 240.75268 312.7112 C 240.389 312.7112 239.17678 311.49896 237.96456 310.0443 L 235.78255 307.3774 L 229.96387 311.01407 C 226.69087 312.95363 222.93297 316.34786 221.59952 318.52986 C 219.41752 321.80287 218.44774 322.28776 213.72006 322.409 C 210.44705 322.409 205.96182 323.6212 202.5676 325.31832 C 199.4158 326.8942 195.0518 328.22766 192.86979 328.10644 C 190.68778 328.10644 185.59644 329.4399 181.71732 331.25823 L 174.5652 334.53123 L 168.1404 327.9852 C 164.14006 323.86365 159.77605 320.8331 156.62426 319.7421 C 152.62392 318.40864 151.16925 317.1964 150.56314 314.65074 C 149.35091 310.1655 146.0779 306.65006 143.04734 306.65006 C 141.83512 306.65006 139.16822 307.61984 137.10744 308.71084 C 133.7132 310.77162 133.47076 310.77162 132.37976 308.83206 C 130.07653 304.7105 124.98519 299.3767 123.4093 299.3767 C 122.43952 299.3767 120.7424 301.07382 119.53018 303.0134 C 116.86328 307.61984 115.52983 307.61984 115.52983 302.89216 C 115.52983 300.71016 114.43883 295.25514 112.98416 290.6487 C 111.16582 284.2239 109.83238 282.0419 107.77159 281.19333 C 105.58959 280.466 104.61981 278.76888 103.89247 274.40487 C 103.28636 271.2531 102.19536 268.46497 101.46802 268.22253 C 100.86191 267.98008 97.95257 269.79842 95.16445 272.22287 C 89.83066 276.82932 87.64866 276.82932 87.64866 272.10165 C 87.64866 270.2833 89.22455 267.98008 92.37634 265.55563 C 96.25546 262.40385 97.34646 260.5855 99.04357 253.79705 C 101.71047 243.3719 100.49824 241.79602 90.67922 241.91724 C 87.04255 242.03847 84.01198 241.79602 84.01198 241.55358 C 84.01198 241.31113 84.73932 239.25035 85.7091 237.06834 C 86.67888 234.76512 87.76988 228.704 88.25477 223.49142 C 88.73966 216.82419 90.07311 211.4904 92.61878 205.79294 C 97.10401 195.8527 96.98279 192.21602 92.01267 191.73113 C 87.28499 191.12502 83.76954 192.21602 80.37531 195.12536 C 78.79942 196.4588 77.34475 197.30736 76.98108 196.9437 C 76.61741 196.58003 79.89042 192.94335 84.25443 188.70057 C 88.61844 184.579 93.10367 179.12399 94.07345 176.57832 C 95.4069 173.54775 96.74035 172.09308 98.43746 172.09308 C 101.10436 172.09308 105.95326 166.88052 108.25648 161.30428 C 109.22626 158.7586 110.80216 157.30394 112.98416 156.81905 C 121.8334 155.00071 134.07688 146.63636 136.25888 140.9389 C 137.4711 137.78712 138.92578 137.6659 148.38113 139.8479 C 154.80592 141.42379 165.35228 140.81768 167.29184 138.87812 C 168.86773 137.30223 168.62529 134.5141 166.44328 130.02888 C 165.23106 127.4832 164.50372 125.05875 164.8674 124.57386 C 165.10984 123.96775 167.41306 123.60408 169.83751 123.60408 C 172.26196 123.60408 175.1713 122.99797 176.14108 122.39186 C 178.80798 120.57352 180.38387 121.66452 179.89898 124.93753 Z" fill="black"/>
        </g>
        <g id="Graphic_685">
          <path d="M 208.26505 96.08658 C 212.75028 98.26858 225.8423 114.0275 225.8423 117.17929 C 225.8423 117.66418 226.69087 118.8764 227.78187 120.08863 C 229.11532 121.5433 229.47898 123.36164 228.87287 125.90731 C 227.29698 133.05944 223.1754 132.45333 214.20495 123.84653 C 210.81072 120.57352 206.9316 117.17929 205.47693 116.45196 C 204.02226 115.72462 202.81003 114.5124 202.81003 113.78506 C 202.81003 113.17895 201.47659 110.51205 199.77947 108.0876 C 196.99135 103.96604 195.6579 95.96535 197.47624 94.14702 C 198.44602 93.29846 204.99204 94.38946 208.26505 96.08658 Z" fill="#FFFFFF"/>
        </g>
        <g id="Graphic_684">
          <path d="M 179.17165 97.78369 C 178.56553 98.99592 177.95942 101.78403 177.59575 103.84482 C 176.98964 108.81494 174.92886 109.05738 174.92886 104.20848 C 174.92886 100.08692 172.62563 99.23836 171.65585 102.99626 C 170.92852 105.9056 168.50407 105.54193 167.89795 102.63259 C 167.41306 100.45059 174.20152 95.72291 177.8382 95.72291 C 179.4141 95.72291 179.77776 96.2078 179.17165 97.78369 Z" fill="#FFFFFF"/>
        </g>
        <g id="Graphic_683">
          <path d="M 192.991 99.84447 C 193.59712 101.29914 194.32446 103.96604 194.80935 105.78438 L 195.6579 109.1786 L 190.68778 106.02682 C 184.62666 102.26892 184.02055 104.8146 189.96045 108.81494 C 193.71835 111.36061 196.1428 115.36095 194.68813 116.81562 C 194.32446 117.17929 192.50612 116.33073 190.68778 114.87606 C 188.86945 113.54262 185.47522 112.33039 183.2932 112.20917 C 179.29287 111.96672 179.17165 111.8455 179.53531 107.36027 C 180.26265 98.63225 181.5961 96.93513 187.17233 97.17758 C 190.93023 97.2988 192.3849 97.90491 192.991 99.84447 Z" fill="#FFFFFF"/>
        </g>
        <g id="Graphic_682">
          <path d="M 146.32035 100.45059 C 147.89624 102.87504 143.16856 114.14873 138.80455 118.51274 C 133.95565 123.36164 123.89419 126.87709 119.16651 125.42242 C 115.8935 124.33142 115.77228 118.14907 119.16651 116.33073 C 120.49996 115.6034 121.59096 114.0275 121.59096 112.81528 C 121.59096 106.51171 143.411 95.72291 146.32035 100.45059 Z" fill="#FFFFFF"/>
        </g>
        <g id="Graphic_681">
          <path d="M 166.20084 107.84516 C 173.47419 112.33039 170.8073 113.66384 160.74583 110.7545 C 159.04871 110.26961 157.9577 110.51205 157.9577 111.23939 C 157.9577 111.96672 158.92749 112.81528 160.13971 113.05773 C 166.20084 114.75484 168.74651 114.99729 169.47385 114.0275 C 170.44363 112.33039 177.95942 115.72462 177.95942 117.7854 C 177.95942 118.8764 175.53497 119.48252 169.11018 119.72496 C 161.7156 119.96741 159.77605 119.72496 157.10915 117.54296 C 155.41204 116.20951 152.38147 115.11851 150.56314 115.11851 C 146.44157 115.11851 145.71424 111.8455 149.22969 108.81494 C 153.71492 104.8146 160.50338 104.45093 166.20084 107.84516 Z" fill="#FFFFFF"/>
        </g>
        <g id="Graphic_680">
          <path d="M 245.48035 112.81528 C 253.35982 120.93719 255.4206 124.69509 256.75405 133.54433 C 257.48138 138.02956 257.23894 139.363 256.0267 139.363 C 253.2386 139.363 251.54148 137.6659 251.1778 134.63533 C 250.93537 132.93822 249.9656 131.48355 249.11703 131.11988 C 248.02603 130.75621 247.78358 131.48355 248.3897 133.908 C 248.9958 136.45367 248.87458 137.181 247.54114 136.69611 C 246.57136 136.33245 245.1167 133.30188 244.1469 129.90765 C 242.20735 122.87675 239.7829 121.30086 241.11634 127.84687 C 241.72246 131.11988 241.48 132.08966 240.14656 132.08966 C 237.84334 132.08966 234.32788 123.48286 233.47933 115.48218 C 232.14588 102.99626 235.17644 102.39015 245.48035 112.81528 Z" fill="#FFFFFF"/>
        </g>
        <g id="Graphic_679">
          <path d="M 114.68128 112.08795 C 115.40861 116.81562 113.83272 123.7253 110.92338 128.33176 C 107.40793 133.908 98.92235 142.15113 97.46768 141.30257 C 95.04323 139.72668 96.01301 137.05978 98.6799 137.78712 C 101.22558 138.51445 101.3468 138.272 100.74069 129.6652 C 100.01335 120.20985 100.86191 117.54296 106.31692 111.36061 C 110.68093 106.51171 113.83272 106.75416 114.68128 112.08795 Z" fill="#FFFFFF"/>
        </g>
        <g id="Graphic_678">
          <path d="M 188.74822 116.20951 C 189.96045 118.14907 188.1421 121.17963 185.71766 121.17963 C 184.38421 121.17963 183.05077 120.33108 182.56588 119.24007 C 181.47487 116.33073 187.17233 113.54262 188.74822 116.20951 Z" fill="#FFFFFF"/>
        </g>
        <g id="Graphic_677">
          <path d="M 156.13937 121.30086 C 160.50338 125.17998 162.92783 128.93787 164.50372 134.15044 C 165.71595 138.15078 163.41272 137.6659 157.71526 132.817 C 154.32103 129.78643 151.29047 128.45298 146.92646 127.84687 C 142.8049 127.24076 140.50167 126.27098 139.65311 124.57386 C 138.19844 121.90697 138.44089 121.5433 142.44123 119.24007 C 147.29013 116.6944 151.53292 117.30051 156.13937 121.30086 Z" fill="#FFFFFF"/>
        </g>
        <g id="Graphic_676">
          <path d="M 207.65893 121.05841 C 207.65893 122.27064 215.5384 130.1501 218.3265 131.72599 C 219.78118 132.57455 222.32686 133.30188 224.02397 133.30188 C 228.75165 133.30188 227.66065 136.33245 222.20563 138.15078 C 218.44774 139.363 216.6294 139.48423 214.32617 138.39323 C 212.62906 137.54467 208.87116 136.93856 206.08304 136.81734 C 200.9917 136.81734 186.56622 133.4231 183.7781 131.72599 C 181.1112 130.02888 181.95976 128.69543 188.627 124.33142 C 193.83957 120.93719 196.02157 120.20985 201.35536 120.33108 C 204.7496 120.33108 207.65893 120.69474 207.65893 121.05841 Z" fill="#FFFFFF"/>
        </g>
        <g id="Graphic_675">
          <path d="M 269.72485 126.75587 C 276.5133 133.05944 280.15 140.09034 281.11977 148.69714 C 281.72588 155.12193 282.12934 161.74292 280.67467 161.74292 C 277.6441 161.74292 275.4223 153.3036 273.96764 145.54536 C 273.11908 141.18135 271.90686 138.15078 271.0583 138.15078 C 269.60363 138.15078 269.72485 141.78746 271.42197 148.4547 C 273.7252 157.18272 273.96764 159.97083 272.39175 159.97083 C 271.5432 159.97083 270.33097 157.30394 269.60363 153.54604 C 267.66407 144.2119 264.14862 133.30188 263.17884 133.30188 C 261.8454 133.30188 261.8454 133.4231 264.75473 145.06047 C 267.17918 155.4856 267.17918 157.30394 264.6335 155.72805 C 262.08784 154.15215 259.7846 146.8788 259.7846 140.69646 C 259.7846 133.05944 262.20906 122.39186 263.90617 122.39186 C 264.6335 122.39186 267.3004 124.33142 269.72485 126.75587 Z" fill="#FFFFFF"/>
        </g>
        <g id="Graphic_674">
          <path d="M 96.13423 128.69543 C 96.01301 133.54433 95.89179 133.78677 94.3159 131.60477 C 91.89145 128.45298 92.01267 123.60408 94.3159 123.60408 C 95.64934 123.60408 96.13423 124.93753 96.13423 128.69543 Z" fill="#FFFFFF"/>
        </g>
        <g id="Graphic_673">
          <path d="M 146.19913 130.27132 C 151.16925 130.99866 159.04871 136.33245 157.47282 137.78712 C 156.2606 138.99934 140.25922 135.96878 136.25888 133.908 C 131.77365 131.72599 130.56142 128.33176 133.22832 126.3922 C 134.92543 125.17998 135.77399 125.3012 138.19844 127.24076 C 139.77433 128.45298 143.411 129.90765 146.19913 130.27132 Z" fill="#FFFFFF"/>
        </g>
        <g id="Graphic_672">
          <path d="M 87.64866 127.24076 C 87.64866 127.84687 87.16377 128.45298 86.55766 128.45298 C 84.86054 128.45298 79.40553 137.181 78.55697 141.18135 C 77.95086 144.2119 78.31453 143.96946 80.8602 139.24179 C 84.98176 131.60477 87.16377 129.90765 89.70944 132.45333 C 92.13389 134.75655 93.95223 145.90902 92.61878 149.42448 C 92.01267 151.00037 88.86088 153.3036 84.86054 155.00071 C 80.8602 156.81905 77.82964 158.87983 77.46597 160.3345 C 77.1023 161.78917 76.13252 162.39528 74.67785 162.15284 C 72.85951 161.78917 72.495845 160.57695 72.61707 154.63704 C 72.73829 150.87915 73.3444 147.12125 74.19296 146.27269 C 74.920295 145.54536 75.52641 143.84824 75.52641 142.63602 C 75.52641 141.30257 76.73863 138.272 78.1933 135.84756 C 82.67854 128.21054 87.64866 123.7253 87.64866 127.24076 Z" fill="#FFFFFF"/>
        </g>
        <g id="Graphic_671">
          <path d="M 124.74274 128.45298 C 126.6823 128.45298 128.2582 129.6652 129.59164 132.21088 C 131.5312 136.09 131.5312 136.09 128.62186 135.24144 C 127.1672 134.75655 123.4093 134.02922 120.37873 133.78677 C 112.01438 132.817 111.52949 132.57455 113.10538 129.54399 C 114.31761 127.4832 115.28739 127.11954 118.19673 127.72565 C 120.25751 128.08932 123.16685 128.45298 124.74274 128.45298 Z" fill="#FFFFFF"/>
        </g>
        <g id="Graphic_670">
          <path d="M 235.5401 130.1501 C 235.5401 130.99866 234.69155 132.45333 233.72177 133.30188 C 232.2671 134.5141 231.90343 134.39289 231.90343 132.45333 C 231.90343 131.11988 232.2671 129.6652 232.752 129.30154 C 234.08544 127.84687 235.5401 128.33176 235.5401 130.1501 Z" fill="#FFFFFF"/>
        </g>
        <g id="Graphic_669">
          <path d="M 127.89453 138.87812 C 129.71287 139.8479 131.28876 141.18135 131.28876 141.78746 C 131.28876 144.33313 119.16651 152.45504 114.07516 153.3036 C 111.16582 153.78849 106.68059 155.00071 104.0137 155.97049 C 99.52846 157.54638 99.1648 157.54638 97.10401 154.87949 C 93.831 150.6367 94.43712 148.4547 100.37702 143.24213 C 108.62015 136.09 119.16651 134.39289 127.89453 138.87812 Z" fill="#FFFFFF"/>
        </g>
        <g id="Graphic_668">
          <path d="M 244.1469 138.02956 C 245.7228 139.24179 248.87458 140.69646 251.1778 141.18135 C 253.60226 141.66624 255.4206 142.87846 255.78427 144.33313 C 256.14793 145.54536 256.9965 146.63636 257.6026 146.63636 C 258.20872 146.63636 258.57238 148.33347 258.32994 150.51548 C 257.96627 154.15215 257.48138 154.63704 251.0566 156.5766 C 244.1469 158.63739 244.02568 158.63739 237.96456 155.84927 C 234.69155 154.27338 231.05488 152.33382 229.96387 151.36404 C 228.87287 150.51548 226.9333 149.18203 225.47864 148.4547 C 221.84197 146.63636 221.72074 145.06047 225.11497 141.42379 C 227.05453 139.363 229.47898 138.15078 231.53977 138.15078 C 233.3581 138.15078 235.78255 137.54467 236.75233 136.93856 C 239.41923 135.24144 240.8739 135.48389 244.1469 138.02956 Z" fill="#FFFFFF"/>
        </g>
        <g id="Graphic_667">
          <path d="M 294.93913 156.09171 C 294.93913 157.42516 295.7877 160.09206 296.8787 162.15284 C 297.84847 164.33484 299.0607 170.88086 299.42437 176.94198 C 300.03048 185.91245 299.78803 188.70057 297.9697 192.7009 C 295.54525 198.0347 293.1208 199.00448 292.151 194.7617 C 291.90857 193.30702 291.18124 191.12502 290.69635 190.03401 C 290.09023 188.45812 290.57512 187.73079 292.99957 187.12467 C 295.7877 186.51856 296.15136 185.79123 296.15136 181.54844 C 296.15136 178.27543 295.66647 176.94198 294.6967 177.30565 C 293.84813 177.5481 293.24202 179.2452 293.48446 181.06355 C 293.84813 184.45778 292.0298 185.42756 290.81757 182.27577 C 290.4539 181.18477 290.09023 177.18443 290.09023 173.18409 C 290.09023 169.18374 289.60534 166.03196 288.878 166.03196 C 287.6658 166.03196 287.05967 172.09308 287.54456 179.36643 C 287.787 183.488 287.787 183.488 285.36256 181.306 C 280.63488 177.0632 282.21077 167.12296 288.99923 158.63739 C 293.1208 153.42482 294.93913 152.69748 294.93913 156.09171 Z" fill="#FFFFFF"/>
        </g>
        <g id="Graphic_666">
          <path d="M 93.95223 162.75895 C 93.34612 172.33553 89.10333 181.18477 81.70876 188.21568 C 75.16274 194.51925 71.526065 195.24658 70.91995 190.39768 C 70.556285 188.09445 70.91995 187.73079 72.61707 188.3369 C 75.76885 189.54912 78.55697 186.1549 82.79976 175.85098 C 85.7091 168.57763 86.31521 165.78951 85.34543 163.48629 C 84.37565 160.94061 84.13321 160.81939 83.40587 162.75895 C 82.92098 163.84995 80.98142 166.51685 79.04186 168.57763 C 77.1023 170.63841 74.920295 174.63876 74.19296 177.30565 C 72.010955 185.54878 71.88973 185.79123 71.1624 185.0639 C 69.586505 183.488 72.495845 172.94164 75.76885 167.8503 C 80.01164 161.4255 88.49722 154.87949 91.89145 155.36438 C 94.07345 155.72805 94.3159 156.45538 93.95223 162.75895 Z" fill="#FFFFFF"/>
        </g>
        <g id="Graphic_665">
          <path d="M 61.94949 157.78883 C 64.13149 159.97083 63.767825 162.15284 60.373595 166.51685 C 58.67648 168.69885 56.494475 173.06286 55.40347 176.21465 C 54.31247 179.36643 52.97902 181.42722 52.25169 181.06355 C 50.43335 179.85132 51.88802 168.33519 54.79736 161.9104 C 57.22181 156.33416 59.28259 155.12193 61.94949 157.78883 Z" fill="#FFFFFF"/>
        </g>
        <g id="Graphic_664">
          <path d="M 259.7846 161.18306 C 259.7846 166.51685 257.36016 168.57763 253.8447 166.39563 C 250.81414 164.45607 251.54148 161.4255 255.54182 158.87983 C 257.6026 157.54638 259.29972 156.45538 259.54216 156.45538 C 259.6634 156.33416 259.7846 158.51616 259.7846 161.18306 Z" fill="#FFFFFF"/>
        </g>
        <g id="Graphic_663">
          <path d="M 103.77125 163.0014 C 101.83169 167.12296 99.77091 168.57763 99.77091 166.03196 C 99.77091 165.30462 100.61947 163.12262 101.58925 161.06184 C 104.25614 155.97049 106.1957 157.91005 103.77125 163.0014 Z" fill="#FFFFFF"/>
        </g>
        <g id="Graphic_662">
          <path d="M 267.7853 162.5165 C 270.08852 163.84995 271.90686 165.78951 271.90686 166.7593 C 271.90686 168.9413 268.3914 170.5172 267.17918 168.82008 C 266.8155 168.21396 265.48207 167.3654 264.39106 166.88052 C 263.0576 166.39563 262.20906 164.81973 262.20906 163.0014 C 262.20906 159.36472 262.57273 159.2435 267.7853 162.5165 Z" fill="#FFFFFF"/>
        </g>
        <g id="Graphic_661">
          <path d="M 248.87458 163.6075 C 248.87458 164.94096 248.3897 166.03196 247.66236 166.03196 C 247.05625 166.03196 246.45013 164.94096 246.45013 163.6075 C 246.45013 162.27406 247.05625 161.18306 247.66236 161.18306 C 248.3897 161.18306 248.87458 162.27406 248.87458 163.6075 Z" fill="#FFFFFF"/>
        </g>
        <g id="Graphic_660">
          <path d="M 244.02568 163.6075 C 244.02568 164.21362 242.69224 164.81973 240.99512 164.81973 C 239.298 164.81973 237.96456 164.21362 237.96456 163.6075 C 237.96456 162.88017 239.298 162.39528 240.99512 162.39528 C 242.69224 162.39528 244.02568 162.88017 244.02568 163.6075 Z" fill="#FFFFFF"/>
        </g>
        <g id="Graphic_659">
          <path d="M 277.36187 169.30497 C 276.3921 173.42653 275.78598 174.03264 274.45253 172.57797 C 273.11908 171.24453 274.93742 166.03196 276.87698 166.03196 C 277.72554 166.03196 277.96798 167.24418 277.36187 169.30497 Z" fill="#FFFFFF"/>
        </g>
        <g id="Graphic_658">
          <path d="M 67.52572 169.18374 C 68.73795 172.2143 68.37428 185.91245 67.04083 187.852 C 65.94983 189.4279 65.707385 189.4279 64.61638 187.852 C 64.01027 186.88223 63.40416 183.97289 63.40416 181.42722 C 63.40416 179.00277 62.798045 176.94198 62.07071 176.94198 C 61.22215 176.94198 60.858485 179.60888 61.22215 184.45778 C 61.58582 192.82213 59.76748 195.00414 57.34303 189.18546 C 54.554915 182.51822 59.64626 167.3654 64.737605 167.24418 C 65.82861 167.24418 67.162055 168.09274 67.52572 169.18374 Z" fill="#FFFFFF"/>
        </g>
        <g id="Graphic_657">
          <path d="M 79.7692 176.82076 C 78.67819 180.215 77.34475 183.0031 76.73863 183.0031 C 75.64763 183.0031 77.46597 175.3661 79.40553 171.72942 C 81.58753 167.48663 81.82998 170.63841 79.7692 176.82076 Z" fill="#FFFFFF"/>
        </g>
        <g id="Graphic_656">
          <path d="M 269.72485 175.3661 C 270.5734 175.9722 272.99786 177.18443 275.05864 178.03299 C 279.42265 179.7301 287.1809 187.00345 288.2719 190.27646 C 288.99923 192.57969 283.18055 202.27749 280.99855 202.3987 C 280.39243 202.3987 277.72554 201.55015 274.93742 200.58037 C 269.3612 198.39837 266.33062 194.2768 262.33028 183.36678 C 260.7544 179.2452 258.81483 175.12365 257.84505 174.3963 C 256.87527 173.66898 256.14793 172.33553 256.14793 171.48697 C 256.14793 170.39597 257.72383 170.5172 262.08784 172.09308 C 265.48207 173.18409 268.8763 174.63876 269.72485 175.3661 Z" fill="#FFFFFF"/>
        </g>
        <g id="Graphic_655">
          <path d="M 280.39243 173.91142 C 280.39243 174.8812 279.90754 175.72976 279.1802 175.72976 C 278.5741 175.72976 277.96798 174.8812 277.96798 173.91142 C 277.96798 172.94164 278.5741 172.09308 279.1802 172.09308 C 279.90754 172.09308 280.39243 172.94164 280.39243 173.91142 Z" fill="#FFFFFF"/>
        </g>
        <g id="Graphic_654">
          <path d="M 312.88006 188.70057 C 314.45596 191.73113 313.24373 207.2476 311.18295 210.88428 C 310.3344 212.5814 309.2434 214.88463 308.7585 215.97563 C 307.42505 219.49108 305.36427 218.5213 302.3337 212.70262 C 299.18192 206.76272 299.78803 203.73216 303.3035 208.2174 C 305.4855 211.12673 307.0614 210.64184 307.0614 207.00516 C 307.0614 205.67172 306.21283 204.82316 304.63693 204.82316 C 301.7276 204.82316 301.60637 203.85338 304.15204 200.2167 C 306.5765 196.58003 305.12182 194.2768 302.09126 197.06492 C 298.93948 199.97426 299.0607 197.06492 302.3337 192.45846 C 304.63693 189.30668 308.1524 187.00345 310.9405 186.761 C 311.4254 186.63978 312.27395 187.60956 312.88006 188.70057 Z" fill="#FFFFFF"/>
        </g>
        <g id="Graphic_653">
          <path d="M 69.82895 198.51959 C 72.010955 202.27749 72.13218 203.36849 70.67751 214.2785 C 69.22284 225.43098 66.91961 232.70433 64.737605 232.70433 C 64.13149 232.70433 62.313155 230.52233 60.49482 227.85543 C 56.979365 222.40042 56.494475 216.3393 58.67648 205.79294 C 60.25237 198.51959 63.16171 193.7919 65.707385 194.2768 C 66.677165 194.39802 68.616725 196.33758 69.82895 198.51959 Z" fill="#FFFFFF"/>
        </g>
        <g id="Graphic_652">
          <path d="M 92.01267 195.73147 C 92.37634 196.70125 91.89145 200.09548 90.80044 203.24727 C 88.98211 208.58106 86.43643 211.85406 79.89042 216.9454 C 77.70841 218.64252 77.58719 218.64252 79.16308 215.73318 C 80.01164 214.03607 81.58753 212.0965 82.67854 211.24795 C 84.01198 210.27817 84.13321 209.79328 83.16343 209.67206 C 80.98142 209.67206 81.22387 206.6415 83.40587 204.82316 C 84.37565 203.9746 85.22421 202.3987 85.22421 201.3077 C 85.10299 198.15592 77.95086 206.76272 77.1023 211.0055 C 76.73863 212.94507 75.890075 214.88463 75.405185 215.2483 C 73.58685 216.3393 74.19296 206.1566 76.13252 202.27749 C 79.52675 195.8527 90.31555 191.24624 92.01267 195.73147 Z" fill="#FFFFFF"/>
        </g>
        <g id="Graphic_651">
          <path d="M 294.57547 206.76272 C 302.69737 220.7033 303.4247 222.2792 303.4247 226.6432 C 303.3035 236.8259 298.69703 246.0388 293.7269 246.0388 C 291.06 246.0388 287.1809 241.79602 288.2719 240.0989 C 288.63556 239.37157 287.787 235.37123 286.33234 231.12844 C 282.69566 221.43064 282.4532 207.00516 285.72622 202.03504 C 286.93845 200.2167 288.39312 198.76203 288.878 198.76203 C 289.48412 198.76203 292.0298 202.3987 294.57547 206.76272 Z" fill="#FFFFFF"/>
        </g>
        <g id="Graphic_650">
          <path d="M 298.81825 202.64115 C 297.9697 203.4897 297.3636 203.61093 297.3636 202.8836 C 297.3636 202.15626 297.72725 201.18648 298.21214 200.82282 C 298.5758 200.33793 299.30314 200.2167 299.6668 200.58037 C 299.90926 200.94404 299.5456 201.91382 298.81825 202.64115 Z" fill="#FFFFFF"/>
        </g>
        <g id="Graphic_649">
          <path d="M 48.49379 217.4303 C 50.06968 219.0062 52.37291 222.7641 53.585135 225.91587 C 54.91858 228.94644 56.85814 231.4921 57.7067 231.4921 C 60.858485 231.4921 62.19193 234.6439 63.04049 244.3417 L 63.767825 253.79705 L 57.10059 247.1298 C 50.43335 240.5838 47.645233 234.88634 47.645233 228.09788 C 47.645233 226.6432 47.160343 225.43098 46.43301 225.43098 C 44.49345 225.43098 44.857115 240.82624 46.796675 242.03847 C 51.40313 244.70536 58.67648 252.09993 57.949145 253.19094 C 55.76714 256.8276 44.735893 245.4327 42.19022 237.06834 C 39.886993 229.3101 39.886993 220.58208 42.311443 217.18785 C 44.61467 213.91485 45.220783 213.91485 48.49379 217.4303 Z" fill="#FFFFFF"/>
        </g>
        <g id="Graphic_648">
          <path d="M 86.43643 219.1274 C 86.43643 223.3702 83.28465 235.37123 80.8602 240.46257 C 77.70841 247.1298 71.76851 254.52438 69.46528 254.52438 C 67.04083 254.52438 65.82861 248.46326 66.79839 241.79602 C 67.88939 234.76512 72.37462 227.00688 78.55697 221.55186 C 82.07242 218.40008 86.43643 217.06663 86.43643 219.1274 Z" fill="#FFFFFF"/>
        </g>
        <g id="Graphic_647">
          <path d="M 321.00197 223.3702 C 323.42642 225.18854 323.06275 230.15866 319.66852 241.91724 C 317.72896 248.58448 311.5466 256.10028 307.1826 257.3125 C 303.54593 258.28228 301.2427 253.91827 303.9096 251.00893 C 305.0006 249.7967 305.84916 248.46326 305.84916 247.97837 C 305.84916 247.49348 307.42505 244.82658 309.3646 242.03847 C 313.24373 236.341 315.06207 231.4921 313.36495 231.4921 C 312.75884 231.4921 311.30417 233.6741 310.09195 236.341 C 308.87972 239.0079 306.94016 242.03847 305.72794 243.12947 C 302.9398 245.67514 302.8186 244.9478 305.24305 240.46257 C 306.21283 238.523 307.0614 235.37123 307.0614 233.43167 C 307.0614 231.00722 308.39483 228.8252 311.5466 225.91587 C 316.51674 221.30942 317.72896 221.06697 321.00197 223.3702 Z" fill="#FFFFFF"/>
        </g>
        <g id="Graphic_646">
          <path d="M 286.33234 244.9478 C 293.96935 250.40282 295.42402 254.88805 294.57547 270.52575 C 293.96935 285.67857 292.5147 288.83035 285.24133 291.01236 C 282.57444 291.8609 280.15 292.22458 279.78632 291.8609 C 278.5741 290.7699 276.27087 268.1013 276.27087 257.55495 C 276.14965 247.37226 277.72554 241.1899 280.2712 241.1899 C 280.7561 241.1899 283.54422 242.88702 286.33234 244.9478 Z" fill="#FFFFFF"/>
        </g>
        <g id="Graphic_645">
          <path d="M 94.3159 246.0388 C 96.4979 246.88737 97.34646 247.85715 96.86157 249.43304 C 96.4979 250.52404 95.64934 253.79705 94.92201 256.58517 C 93.22489 263.13118 91.28533 263.37363 91.28533 257.07006 C 91.28533 251.13015 88.98211 249.1906 83.40587 250.03915 C 78.31453 250.8877 77.82964 249.1906 82.55731 246.76614 C 86.43643 244.58414 89.95189 244.3417 94.3159 246.0388 Z" fill="#FFFFFF"/>
        </g>
        <g id="Graphic_644">
          <path d="M 299.0607 250.40282 C 299.42437 251.49382 299.78803 253.19094 299.78803 254.28194 C 299.6668 255.97905 299.18192 255.7366 297.3636 253.43338 C 296.03014 251.9787 295.3028 250.16037 295.66647 249.55426 C 296.63625 247.85715 298.21214 248.2208 299.0607 250.40282 Z" fill="#FFFFFF"/>
        </g>
        <g id="Graphic_643">
          <path d="M 87.64866 254.6456 C 89.22455 257.43372 88.37599 262.1614 85.7091 266.4042 L 83.89076 269.1923 L 79.52675 266.5254 L 75.16274 263.8585 L 72.980735 266.76786 C 71.76851 268.34375 70.43506 271.49553 69.95017 273.5563 C 69.586505 275.85954 68.4955 277.55666 67.52572 277.55666 C 64.737605 277.55666 65.58616 270.1621 69.22284 263.7373 C 71.526065 259.37328 74.07174 256.94883 77.82964 254.88805 C 84.37565 251.49382 85.95154 251.3726 87.64866 254.6456 Z" fill="#FFFFFF"/>
        </g>
        <g id="Graphic_642">
          <path d="M 54.91858 259.37328 C 63.04049 262.28262 64.61638 264.22218 63.767825 270.04086 C 62.67682 278.52644 61.58582 279.13255 54.19125 275.6171 C 46.43301 271.98042 39.038435 261.79773 41.826553 258.52473 C 43.64489 256.34272 47.281565 256.58517 54.91858 259.37328 Z" fill="#FFFFFF"/>
        </g>
        <g id="Graphic_641">
          <path d="M 317.24407 258.8884 C 319.78975 259.85817 319.66852 264.58585 316.8804 270.04086 C 314.33473 275.1322 301.97004 287.25446 299.5456 287.25446 C 296.27258 287.25446 295.18158 284.83 296.27258 280.22355 C 296.8787 277.7991 297.3636 273.91998 297.3636 271.73798 C 297.3636 267.13152 301.00026 263.37363 308.63728 260.34306 C 314.57718 257.9186 314.6984 257.9186 317.24407 258.8884 Z" fill="#FFFFFF"/>
        </g>
        <g id="Graphic_640">
          <path d="M 80.01164 271.2531 C 82.79976 273.4351 93.69898 295.57176 93.69898 298.35988 C 93.69898 300.6631 91.75942 300.5419 90.78964 298.11744 C 89.81986 295.45054 87.75908 297.14766 88.48641 300.057 C 89.94108 305.63323 81.10264 293.07314 78.67819 286.64835 C 78.43575 285.921 77.82964 285.7998 77.34475 286.4059 C 76.0113 287.61813 79.04186 293.80047 84.49687 300.83138 C 88.25477 305.8015 88.49722 306.65006 86.55766 306.65006 C 83.89076 306.65006 75.04152 296.1037 72.2534 289.6789 C 70.19262 284.58756 70.67751 276.46566 73.58685 272.10165 C 75.890075 268.5862 76.49619 268.46497 80.01164 271.2531 Z" fill="#FFFFFF"/>
        </g>
        <g id="Graphic_639">
          <path d="M 101.46802 279.13255 C 102.19536 284.58756 101.83169 286.4059 99.77091 290.1638 C 98.31624 292.58825 96.61912 294.5278 96.13423 294.5278 C 95.04323 294.5278 91.28533 284.2239 91.28533 281.0721 C 91.28533 278.64766 98.31624 271.13187 99.77091 272.10165 C 100.2558 272.4653 101.10436 275.6171 101.46802 279.13255 Z" fill="#FFFFFF"/>
        </g>
        <g id="Graphic_638">
          <path d="M 273.36153 274.76854 C 275.05864 276.34443 275.54353 278.52644 275.54353 285.67857 C 275.54353 290.52747 275.05864 294.5278 274.45253 294.5278 C 273.7252 294.5278 270.93708 297.55837 268.02774 301.19505 C 265.23962 304.83172 262.4515 307.8623 261.8454 307.8623 C 260.51194 307.8623 262.33028 288.5879 264.26984 282.40556 C 265.96696 277.43544 268.99752 272.70776 270.4522 272.70776 C 270.81586 272.70776 272.1493 273.5563 273.36153 274.76854 Z" fill="#FFFFFF"/>
        </g>
        <g id="Graphic_637">
          <path d="M 110.31727 292.10336 C 112.62049 300.4677 112.74172 309.31695 110.80216 316.22664 C 108.8626 323.0151 107.65037 321.56043 107.65037 312.58996 C 107.65037 308.71084 107.16548 305.55906 106.43815 305.55906 C 105.83203 305.55906 105.22592 307.3774 105.22592 309.5594 C 105.22592 311.86263 104.74103 314.16585 104.25614 314.65074 C 103.77125 315.25686 103.40758 311.7414 103.65003 307.01373 C 104.0137 297.43715 103.16514 295.25514 100.98313 299.49793 C 99.89213 301.31627 99.64969 305.43783 100.13458 311.7414 C 100.49824 316.95397 100.37702 321.19676 99.77091 321.19676 C 94.92201 321.19676 94.19467 306.65006 98.43746 297.8008 C 100.01335 294.64903 101.71047 291.7397 102.31658 291.37602 C 103.04392 291.01236 104.0137 289.31524 104.74103 287.61813 C 106.43815 283.1329 108.3777 284.7088 110.31727 292.10336 Z" fill="#FFFFFF"/>
        </g>
        <g id="Graphic_636">
          <path d="M 258.32994 295.86126 C 258.57238 298.1645 258.0875 303.98316 257.23894 308.83206 L 255.78427 317.5601 L 247.4199 324.34854 C 242.81346 328.10644 238.81312 330.89456 238.32823 330.5309 C 237.96456 330.16722 239.90412 327.01544 242.69224 323.5 C 245.48035 319.98453 247.4199 316.83275 246.93502 316.46908 C 246.57136 316.1054 244.87424 317.31764 243.29835 319.37842 C 240.63145 322.77265 240.389 322.77265 240.389 320.3482 C 240.389 318.89353 240.8739 317.31764 241.60123 316.95397 C 242.20735 316.5903 243.78324 312.58996 245.1167 308.10473 C 247.66236 299.8616 254.08715 290.40624 256.63282 291.2548 C 257.36016 291.49725 258.20872 293.55803 258.32994 295.86126 Z" fill="#FFFFFF"/>
        </g>
        <g id="Graphic_635">
          <path d="M 296.3938 296.46737 C 296.75747 302.28605 295.66647 304.83172 294.57547 300.4677 C 293.48446 296.46737 291.30246 299.01304 291.30246 304.2256 C 291.30246 306.77128 290.81757 309.31695 290.09023 309.68062 C 289.48412 310.0443 288.878 309.31695 288.878 307.9835 C 288.878 306.52884 288.39312 305.43783 287.6658 305.43783 C 287.05967 305.43783 286.45356 306.77128 286.45356 308.34717 C 286.45356 310.0443 285.96867 311.7414 285.24133 312.10507 C 284.63522 312.46874 284.0291 311.98385 284.0291 311.01407 C 284.0291 309.92307 283.54422 309.0745 282.81688 309.0745 C 282.21077 309.0745 281.60466 309.92307 281.60466 310.89285 C 281.60466 311.86263 280.99855 312.7112 280.2712 312.7112 C 278.81654 312.7112 279.54388 306.52884 281.60466 301.31627 C 283.54422 295.98248 288.99923 290.89113 292.5147 290.89113 C 295.66647 290.89113 295.9089 291.2548 296.3938 296.46737 Z" fill="#FFFFFF"/>
        </g>
        <g id="Graphic_634">
          <path d="M 306.45527 292.58825 C 307.90994 293.67925 308.39483 294.89148 307.7887 296.34615 C 307.1826 298.04326 306.6977 298.2857 305.6067 297.1947 C 303.4247 295.0127 302.2125 295.37637 302.2125 298.1645 C 302.2125 299.49793 301.7276 300.58893 301.00026 300.58893 C 300.39415 300.58893 299.78803 299.61915 299.78803 298.40693 C 299.78803 297.31593 299.42437 295.13392 299.0607 293.55803 C 298.4546 291.37602 298.81825 290.89113 301.2427 290.89113 C 302.8186 290.89113 305.24305 291.61847 306.45527 292.58825 Z" fill="#FFFFFF"/>
        </g>
        <g id="Graphic_633">
          <path d="M 68.25306 294.04292 C 70.31384 294.5278 72.37462 295.74003 72.85951 296.83104 C 73.22318 297.92204 75.04152 300.71016 76.98108 303.1346 C 78.79942 305.55906 80.37531 307.9835 80.37531 308.34717 C 80.37531 308.71084 77.82964 309.0745 74.67785 309.0745 C 68.73795 308.9533 53.70636 302.5285 52.73658 299.61915 C 52.37291 298.2857 60.25237 293.4368 62.91927 293.3156 C 63.6466 293.3156 66.07105 293.67925 68.25306 294.04292 Z" fill="#FFFFFF"/>
        </g>
        <g id="Graphic_632">
          <path d="M 277.24065 297.92204 C 278.0892 299.3767 275.66476 316.1054 273.60397 322.5302 C 269.84608 334.41 255.54182 343.38048 247.9048 338.53158 C 241.48 334.2888 241.3588 333.319 247.54114 327.62155 C 250.5717 324.83343 254.08715 322.16654 255.17815 321.80287 C 256.26916 321.4392 258.6936 318.52986 260.51194 315.37808 C 264.14862 309.19573 274.2101 296.95226 275.66476 296.95226 C 276.14965 296.95226 276.87698 297.43715 277.24065 297.92204 Z" fill="#FFFFFF"/>
        </g>
        <g id="Graphic_631">
          <path d="M 128.2582 308.71084 C 129.95531 311.2565 131.28876 314.52952 131.28876 315.9842 C 131.28876 317.43886 131.89487 319.01475 132.50098 319.37842 C 134.07688 320.3482 134.07688 329.68233 132.6222 329.68233 C 132.0161 329.68233 130.80387 327.74277 129.95531 325.43955 C 129.10675 323.1363 127.89453 321.19676 127.40964 321.19676 C 126.19741 321.19676 126.19741 321.56043 127.65208 325.31832 C 128.2582 327.01544 128.37942 328.4701 127.89453 328.4701 C 126.6823 328.4701 124.01541 322.409 124.01541 319.7421 C 124.01541 318.52986 123.4093 317.5601 122.68196 317.5601 C 121.71218 317.5601 121.46974 319.49964 122.07585 323.6212 C 122.9244 330.16722 121.71218 331.37945 118.68162 327.01544 C 115.65106 322.65143 116.25717 314.16585 119.89384 308.83206 C 121.71218 306.2864 123.53052 304.2256 124.13663 304.2256 C 124.74274 304.2256 126.56108 306.2864 128.2582 308.71084 Z" fill="#FFFFFF"/>
        </g>
        <g id="Graphic_630">
          <path d="M 296.15136 306.65006 C 296.15136 307.25617 295.54525 307.8623 294.8179 307.8623 C 294.2118 307.8623 293.96935 307.25617 294.33302 306.65006 C 294.6967 305.92272 295.3028 305.43783 295.66647 305.43783 C 295.9089 305.43783 296.15136 305.92272 296.15136 306.65006 Z" fill="#FFFFFF"/>
        </g>
        <g id="Graphic_629">
          <path d="M 145.35057 312.2263 C 146.92646 314.4083 147.41135 318.1662 147.53257 326.16688 L 147.6538 336.9557 L 143.77468 336.9557 C 138.80455 336.9557 137.83477 335.13735 136.865 323.0151 C 136.13766 313.9234 136.25888 313.19607 138.80455 311.2565 C 142.44123 308.4684 143.04734 308.4684 145.35057 312.2263 Z" fill="#FFFFFF"/>
        </g>
        <g id="Graphic_628">
          <path d="M 236.025 311.01407 C 238.44945 311.98385 238.57067 318.6511 236.14622 321.9241 C 235.17644 323.1363 234.32788 325.43955 234.32788 326.8942 C 234.32788 328.59133 233.60055 329.68233 232.50955 329.68233 C 231.53977 329.68233 230.6912 330.6521 230.56999 331.7431 C 230.56999 333.319 230.20632 333.07656 229.23654 330.89456 C 228.0243 328.10644 227.9031 328.10644 227.4182 330.28845 C 226.3272 335.01612 224.26642 335.3798 225.11497 330.77334 C 225.72109 327.62155 225.35742 325.92444 224.02397 324.83343 C 223.0542 323.98488 222.20563 322.77265 222.20563 322.0453 C 222.20563 320.9543 232.752 310.28673 233.843 310.28673 C 233.96422 310.28673 234.934 310.6504 236.025 311.01407 Z" fill="#FFFFFF"/>
        </g>
        <g id="Graphic_627">
          <path d="M 91.40656 313.68096 C 94.92201 316.71153 93.831 319.8633 89.58822 319.13598 C 87.8911 318.7723 86.43643 319.01475 86.43643 319.7421 C 86.43643 321.19676 89.34577 322.409 92.98245 322.409 C 96.4979 322.409 97.71013 323.6212 96.01301 325.682 C 94.19467 327.864 90.80044 327.62155 82.79976 324.83343 C 74.19296 321.9241 73.465625 319.01475 80.01164 314.65074 C 85.58788 311.01407 87.76988 310.77162 91.40656 313.68096 Z" fill="#FFFFFF"/>
        </g>
        <g id="Graphic_626">
          <path d="M 114.31761 324.7122 C 114.31761 328.955 112.86294 330.16722 108.74137 329.19744 C 105.58959 328.3489 104.74103 326.04566 107.65037 326.04566 C 108.62015 326.04566 109.9536 324.95466 110.68093 323.6212 C 112.62049 320.10576 114.31761 320.59065 114.31761 324.7122 Z" fill="#FFFFFF"/>
        </g>
        <g id="Graphic_625">
          <path d="M 161.83683 326.773 C 164.26128 328.3489 167.6555 331.50067 169.47385 333.8039 C 174.20152 339.98625 176.50475 349.9265 172.26196 345.6837 C 171.4134 344.83515 170.3224 344.22903 169.83751 344.22903 C 167.77673 344.22903 168.98896 346.7747 172.5044 349.80527 C 175.29253 352.35094 175.89864 353.6844 175.29253 356.23006 C 174.32275 360.59407 174.20152 360.7153 170.56485 357.4423 C 156.13937 344.71392 150.68436 337.0769 150.68436 329.68233 C 150.68436 326.53055 151.04803 323.6212 151.53292 323.25754 C 152.62392 322.0453 156.62426 323.37876 161.83683 326.773 Z" fill="#FFFFFF"/>
        </g>
        <g id="Graphic_624">
          <path d="M 287.54456 325.31832 C 290.69635 329.07622 280.63488 338.53158 270.93708 341.19847 C 267.7853 341.9258 264.0274 343.0168 262.57273 343.5017 C 260.8756 343.9866 259.7846 343.86537 259.7846 343.13803 C 259.7846 342.5319 260.8756 341.56214 262.20906 341.19847 C 263.5425 340.8348 267.7853 336.592 271.5432 331.98556 C 277.4831 324.83343 279.059 323.6212 282.332 323.6212 C 284.39278 323.6212 286.81723 324.34854 287.54456 325.31832 Z" fill="#FFFFFF"/>
        </g>
        <g id="Graphic_623">
          <path d="M 210.6895 327.2579 C 210.32583 327.864 209.1136 328.4701 208.26505 328.4701 C 207.29527 328.4701 205.8406 329.80356 204.99204 331.37945 C 203.05248 334.8949 195.6579 341.19847 194.68813 340.10747 C 193.23346 338.6528 198.44602 331.01578 202.6888 328.59133 C 207.29527 325.92444 212.02294 325.1971 210.6895 327.2579 Z" fill="#FFFFFF"/>
        </g>
        <g id="Graphic_622">
          <path d="M 221.59952 328.4701 C 223.1754 331.137 215.90206 341.56214 207.29527 348.59304 C 203.6586 351.6236 193.23346 354.53295 191.65756 352.95705 C 189.718 351.0175 192.74857 345.80493 198.68847 341.07725 C 201.84025 338.41035 206.81038 334.2888 209.71972 331.7431 C 214.81106 327.3791 220.02363 325.92444 221.59952 328.4701 Z" fill="#FFFFFF"/>
        </g>
        <g id="Graphic_621">
          <path d="M 191.9 332.7129 C 194.5669 335.8647 190.44534 343.0168 186.20255 343.0168 C 184.263 343.0168 181.95976 343.5017 180.98998 344.22903 C 178.56553 345.6837 176.14108 343.5017 176.14108 339.86502 C 176.14108 337.5618 177.47453 336.22835 181.95976 334.04634 C 188.86945 330.5309 189.96045 330.40967 191.9 332.7129 Z" fill="#FFFFFF"/>
        </g>
        <g id="Graphic_620">
          <path d="M 132.0161 335.13735 C 137.22866 338.53158 135.2891 339.38013 122.19707 339.38013 C 114.56005 339.38013 109.46871 339.86502 109.46871 340.59236 C 109.46871 341.3197 113.46905 341.8046 118.92406 341.8046 C 126.80353 341.8046 128.50064 342.16825 129.71287 344.1078 C 130.56142 345.32004 130.80387 346.7747 130.4402 347.13837 C 129.95531 347.50204 125.5913 347.8657 120.49996 347.8657 C 111.16582 347.8657 103.16514 345.1988 99.64969 340.95603 C 98.31624 339.38013 98.55868 338.6528 101.58925 336.22835 C 103.5288 334.65246 106.55937 333.1978 108.25648 332.8341 C 114.31761 331.7431 128.98553 333.07656 132.0161 335.13735 Z" fill="#FFFFFF"/>
        </g>
        <g id="Graphic_619">
          <path d="M 240.99512 338.1679 C 242.20735 339.50136 244.1469 340.59236 245.2379 340.59236 C 247.78358 340.59236 258.93605 352.2297 257.96627 353.92683 C 256.75405 355.9876 248.75336 356.71495 243.90446 355.2603 C 238.207 353.56317 232.99444 349.19916 229.6002 343.6229 L 227.17576 339.38013 L 229.84265 337.5618 C 233.47933 335.01612 238.32823 335.25857 240.99512 338.1679 Z" fill="#FFFFFF"/>
        </g>
        <g id="Graphic_618">
          <path d="M 147.04768 341.3197 C 147.53257 341.9258 148.38113 343.5017 148.7448 344.95637 C 149.47213 347.2596 148.98724 347.3808 142.92612 347.3808 C 135.04666 347.2596 132.98587 345.80493 135.53155 342.28947 C 136.74377 340.3499 138.31966 339.86502 141.59267 339.98625 C 144.01712 340.10747 146.44157 340.7136 147.04768 341.3197 Z" fill="#FFFFFF"/>
        </g>
        <g id="Graphic_617">
          <path d="M 225.47864 342.4107 C 226.9333 343.38048 228.75165 346.2898 229.47898 348.8355 C 230.32754 351.25994 231.90343 354.04806 232.99444 354.8966 C 234.69155 356.23006 234.69155 356.59373 233.11566 357.5635 C 230.44876 359.26062 221.23585 357.68473 214.56862 354.2905 L 208.62871 351.38116 L 214.32617 345.92615 C 220.62974 340.10747 221.59952 339.7438 225.47864 342.4107 Z" fill="#FFFFFF"/>
        </g>
        <g id="Graphic_616">
          <path d="M 189.35434 349.19916 C 187.17233 353.44194 188.38456 356.9574 192.14245 356.9574 C 193.9608 356.9574 195.6579 357.4423 195.77913 358.1696 C 196.26402 359.86674 187.89967 360.1092 186.80866 358.41207 C 184.50544 354.8966 186.92989 344.47148 189.59678 346.04737 C 190.2029 346.53226 190.2029 347.7445 189.35434 349.19916 Z" fill="#FFFFFF"/>
        </g>
        <g id="Graphic_615">
          <path d="M 183.05077 353.56317 C 182.92954 356.83617 183.2932 360.35163 183.89932 361.44263 C 184.62666 363.0185 184.38421 363.62463 183.17199 363.62463 C 178.9292 363.62463 177.23209 357.5635 179.77776 351.0175 C 181.5961 346.04737 183.2932 347.3808 183.05077 353.56317 Z" fill="#FFFFFF"/>
        </g>
        <g id="Graphic_614">
          <path d="M 157.83649 351.38116 L 160.86705 353.6844 L 156.62426 356.23006 C 153.95737 357.80595 150.44191 358.77573 146.80524 358.77573 C 141.10778 358.77573 139.16822 360.2304 142.92612 361.68507 C 146.19913 362.8973 149.47213 362.53363 154.32103 359.98796 C 159.29116 357.4423 164.01883 356.83617 164.01883 358.5333 C 164.01883 359.1394 161.83683 360.59407 159.16993 361.8063 C 156.38182 363.0185 153.83614 364.5944 153.47248 365.20053 C 152.38147 367.1401 161.95805 364.83686 164.3825 362.77608 C 166.80695 360.47285 168.74651 361.68507 166.92817 364.4732 C 164.98861 367.50375 156.50304 369.4433 146.44157 368.95842 C 131.5312 368.3523 127.04597 363.3822 135.65277 356.83617 C 139.53189 353.8056 150.56314 349.19916 153.71492 349.19916 C 154.44226 349.07793 156.2606 350.16894 157.83649 351.38116 Z" fill="#FFFFFF"/>
        </g>
        <g id="Graphic_613">
          <path d="M 202.32514 360.95774 C 201.84025 361.3214 200.9917 361.07896 200.14314 360.2304 C 199.17336 359.26062 199.17336 358.41207 200.5068 356.83617 C 202.0827 354.8966 202.20392 354.8966 202.5676 357.4423 C 202.81003 359.01818 202.6888 360.47285 202.32514 360.95774 Z" fill="#FFFFFF"/>
        </g>
        <g id="Graphic_612">
          <path d="M 210.08338 359.38185 C 210.08338 362.2912 209.47727 363.62463 208.26505 363.62463 C 207.29527 363.62463 206.4467 362.8973 206.4467 362.04874 C 206.4467 361.3214 206.08304 359.38185 205.71937 357.80595 C 205.11326 355.62395 205.47693 355.13906 207.5377 355.13906 C 209.5985 355.13906 210.08338 355.8664 210.08338 359.38185 Z" fill="#FFFFFF"/>
        </g>
        <g id="Graphic_611">
          <path d="M 177.8382 366.29153 C 179.89898 369.68576 176.50475 374.04977 170.20118 376.353 C 155.41204 381.56556 149.10847 383.14146 148.01746 382.05045 C 145.95668 379.98967 147.89624 378.535 156.13937 375.7469 C 160.98827 374.171 165.83717 371.38287 169.11018 368.47353 C 174.5652 363.5034 175.77742 363.13974 177.8382 366.29153 Z" fill="#FFFFFF"/>
        </g>
        <g id="Graphic_610">
          <path d="M 202.81003 365.80664 C 207.29527 367.98864 208.38627 370.4131 206.4467 373.32243 C 205.3557 374.89833 204.99204 374.89833 203.53737 373.08 C 202.44637 371.5041 200.87047 371.14043 197.71869 371.6253 C 192.62734 372.47388 187.0511 369.4433 187.0511 365.92786 C 187.0511 363.9883 188.02089 363.62463 192.86979 363.62463 C 196.02157 363.62463 200.5068 364.5944 202.81003 365.80664 Z" fill="#FFFFFF"/>
        </g>
        <g id="Graphic_609">
          <path d="M 217.96285 369.9282 C 219.05385 373.44366 219.05385 375.62566 217.96285 375.7469 C 217.35673 375.7469 216.6294 374.7771 216.38695 373.32243 C 215.78084 369.807 212.50783 370.29187 212.50783 373.92855 C 212.50783 375.62566 212.02294 376.9591 211.2956 376.9591 C 209.96216 376.9591 209.5985 370.5343 210.93194 369.3221 C 212.2654 367.8674 217.35673 368.3523 217.96285 369.9282 Z" fill="#FFFFFF"/>
        </g>
        <g id="Graphic_608">
          <path d="M 202.32514 101.54159 C 201.96148 102.1477 205.47693 106.63293 210.08338 111.48183 C 214.68984 116.33073 218.2053 120.69474 217.84162 121.30086 C 217.47796 121.90697 218.56896 122.39186 220.26607 122.39186 C 221.9632 122.39186 223.41786 121.90697 223.41786 121.30086 C 223.41786 120.33108 204.2647 100.57181 203.29492 100.57181 C 203.1737 100.57181 202.6888 101.0567 202.32514 101.54159 Z" fill="black"/>
        </g>
        <g id="Graphic_607">
          <path d="M 129.47042 113.17895 C 126.80353 115.84584 123.53052 118.75518 122.19707 119.48252 C 120.86362 120.33108 120.13629 121.17963 120.49996 121.66452 C 121.59096 122.75553 132.25854 116.57318 134.31932 113.54262 C 136.25888 110.7545 136.74377 107.72394 135.2891 107.96638 C 134.68299 108.0876 132.13732 110.39083 129.47042 113.17895 Z" fill="black"/>
        </g>
        <g id="Graphic_606">
          <path d="M 104.86225 116.33073 C 101.10436 121.30086 101.3468 130.87743 105.34714 130.87743 C 107.40793 130.87743 107.05985 125.7772 105.36274 123.83764 C 104.6354 122.86786 107.40793 118.02785 108.25648 115.84584 C 109.83238 111.60306 108.13526 111.8455 104.86225 116.33073 Z" fill="black"/>
        </g>
        <g id="Graphic_605">
          <path d="M 199.17336 132.3321 C 199.17336 133.908 202.0827 134.75655 206.08304 134.27166 C 209.1136 133.908 208.99238 133.78677 204.2647 132.57455 C 201.47659 131.84721 199.17336 131.72599 199.17336 132.3321 Z" fill="black"/>
        </g>
        <g id="Graphic_604">
          <path d="M 84.01198 140.69646 C 83.28465 142.0299 82.79976 144.09069 83.0422 145.18169 C 83.40587 146.75758 84.01198 146.27269 85.58788 143.36335 C 88.01233 138.87812 88.13355 138.15078 86.43643 138.15078 C 85.83032 138.15078 84.73932 139.24179 84.01198 140.69646 Z" fill="black"/>
        </g>
        <g id="Graphic_603">
          <path d="M 77.46597 150.15181 C 76.98108 151.00037 76.85986 151.97015 77.22352 152.33382 C 78.31453 153.42482 79.52675 151.84893 78.92064 150.15181 C 78.43575 148.81836 78.1933 148.81836 77.46597 150.15181 Z" fill="black"/>
        </g>
        <g id="Graphic_602">
          <path d="M 112.1356 142.99968 C 109.46871 144.93924 105.83203 146.8788 104.13492 147.3637 C 100.13458 148.33347 100.13458 149.78814 104.13492 150.75792 C 107.77159 151.7277 113.10538 148.81836 113.10538 145.90902 C 113.10538 144.93924 115.04494 143.24213 117.34817 142.27235 C 122.07585 140.33279 122.68196 139.363 119.40895 139.363 C 118.0755 139.363 114.92372 140.9389 112.1356 142.99968 Z" fill="black"/>
        </g>
        <g id="Graphic_601">
          <path d="M 231.29732 144.2119 C 230.93365 144.81802 231.1761 145.42413 232.02466 145.42413 C 232.8732 145.42413 235.5401 146.75758 237.96456 148.4547 C 240.389 150.15181 244.87424 151.84893 248.02603 152.2126 C 252.99615 152.93993 253.72348 152.8187 252.99615 151.00037 C 252.51126 149.78814 250.81414 149.0608 248.14725 149.0608 C 245.84402 149.0608 242.4498 147.9698 240.63145 146.75758 C 236.38867 143.72702 232.2671 142.63602 231.29732 144.2119 Z" fill="black"/>
        </g>
        <g id="Graphic_600">
          <path d="M 255.54182 162.39528 C 255.17815 163.0014 255.4206 163.6075 256.0267 163.6075 C 256.75405 163.6075 257.36016 163.0014 257.36016 162.39528 C 257.36016 161.66795 257.1177 161.18306 256.87527 161.18306 C 256.5116 161.18306 255.9055 161.66795 255.54182 162.39528 Z" fill="black"/>
        </g>
        <g id="Graphic_599">
          <path d="M 268.27018 184.70022 C 268.27018 185.0639 269.3612 187.12467 270.81586 189.54912 C 273.7252 194.64047 278.93776 198.27714 280.63488 196.58003 C 281.3622 195.8527 280.63488 194.64047 278.33165 193.30702 C 276.3921 192.21602 273.96764 189.67035 272.87664 187.73079 C 271.17952 184.82145 268.27018 182.88189 268.27018 184.70022 Z" fill="black"/>
        </g>
        <g id="Graphic_598">
          <path d="M 61.70704 204.94438 C 61.343375 207.00516 61.10093 211.85406 61.10093 215.61196 L 61.22215 222.40042 L 63.16171 212.94507 C 64.49516 206.39905 64.61638 203.12604 63.767825 202.27749 C 62.91927 201.42893 62.313155 202.27749 61.70704 204.94438 Z" fill="black"/>
        </g>
        <g id="Graphic_597">
          <path d="M 64.37394 220.33964 C 63.767825 224.58243 64.37394 226.6432 66.3135 226.6432 C 67.162055 226.6432 67.52572 224.9461 67.28328 221.7943 C 66.677165 216.21807 65.10127 215.36952 64.37394 220.33964 Z" fill="black"/>
        </g>
        <g id="Graphic_596">
          <path d="M 286.57478 216.70296 C 286.45356 222.7641 292.27224 241.1899 294.45424 241.1899 C 297.84847 241.1899 299.0607 237.55323 297.4848 232.34067 C 296.63625 229.55255 295.66647 225.79465 295.3028 223.8551 C 294.93913 222.03675 294.2118 220.58208 293.6057 220.58208 C 292.0298 220.58208 292.27224 224.4612 294.33302 230.27988 C 296.75747 237.18957 296.63625 238.4018 293.7269 235.7349 C 290.9388 233.18922 288.7568 227.1281 287.6658 218.15763 C 286.81723 211.73284 286.81723 211.61162 286.57478 216.70296 Z" fill="black"/>
        </g>
        <g id="Graphic_595">
          <path d="M 75.04152 236.21979 C 74.55663 237.06834 74.435405 238.03812 74.79907 238.4018 C 75.890075 239.4928 77.1023 237.9169 76.49619 236.21979 C 76.0113 234.88634 75.76885 234.88634 75.04152 236.21979 Z" fill="black"/>
        </g>
        <g id="Graphic_594">
          <path d="M 72.2534 244.22047 C 71.1624 247.25103 72.73829 247.73592 74.31418 244.9478 C 75.16274 243.12947 75.16274 242.40213 74.31418 242.40213 C 73.58685 242.40213 72.73829 243.2507 72.2534 244.22047 Z" fill="black"/>
        </g>
        <g id="Graphic_593">
          <path d="M 309.60706 247.25103 C 308.03116 250.64526 307.7887 252.09993 308.7585 252.09993 C 309.60706 252.09993 311.18295 250.16037 312.27395 247.85715 C 314.6984 242.88702 314.6984 242.40213 313.1225 242.40213 C 312.5164 242.40213 310.9405 244.58414 309.60706 247.25103 Z" fill="black"/>
        </g>
        <g id="Graphic_592">
          <path d="M 277.96798 262.04018 C 277.96798 263.61607 278.5741 265.67685 279.1802 266.64663 C 280.02877 267.98008 280.39243 267.25275 280.39243 263.8585 C 280.39243 261.43407 279.90754 259.37328 279.1802 259.37328 C 278.5741 259.37328 277.96798 260.5855 277.96798 262.04018 Z" fill="black"/>
        </g>
        <g id="Graphic_591">
          <path d="M 285.72622 269.31353 C 286.81723 279.13255 288.878 285.3149 290.33268 283.86023 C 291.18124 283.01167 290.9388 280.82967 289.60534 276.82932 C 288.51434 273.67754 287.6658 269.1923 287.6658 267.0103 C 287.6658 264.8283 287.05967 263.00996 286.33234 263.00996 C 285.36256 263.00996 285.1201 264.94952 285.72622 269.31353 Z" fill="black"/>
        </g>
        <g id="Graphic_590">
          <path d="M 280.02877 277.07177 C 279.30143 281.67822 280.87732 285.43612 282.9381 284.10267 C 284.15033 283.37534 283.18055 275.1322 281.60466 273.5563 C 281.11977 272.9502 280.39243 274.64732 280.02877 277.07177 Z" fill="black"/>
        </g>
        <g id="Graphic_589">
          <path d="M 50.06968 266.64663 C 50.06968 267.85886 57.10059 272.70776 58.918925 272.70776 C 60.97971 272.70776 59.52504 270.7682 55.524695 268.1013 C 50.79702 265.07074 50.06968 264.94952 50.06968 266.64663 Z" fill="black"/>
        </g>
        <g id="Graphic_588">
          <path d="M 306.6977 271.8592 C 299.78803 279.13255 298.69703 281.31456 303.06104 278.8901 C 306.0916 277.3142 315.54696 267.13152 315.54696 265.4344 C 315.54696 263.2524 313.84984 264.46463 306.6977 271.8592 Z" fill="black"/>
        </g>
        <g id="Graphic_587">
          <path d="M 267.9065 286.28468 C 267.66407 289.80013 266.93674 293.9217 266.45185 295.37637 C 265.96696 297.07348 266.08818 298.1645 266.8155 298.1645 C 268.51263 298.1645 270.69463 291.37602 270.69463 285.921 C 270.69463 278.8901 268.51263 279.13255 267.9065 286.28468 Z" fill="black"/>
        </g>
        <g id="Graphic_586">
          <path d="M 250.5717 303.7407 C 250.20803 304.95294 249.35947 307.25617 248.75336 308.83206 C 247.4199 312.3475 247.2987 315.4993 248.75336 314.65074 C 250.0868 313.8022 252.99615 303.1346 252.1476 302.16483 C 251.6627 301.80116 251.0566 302.5285 250.5717 303.7407 Z" fill="black"/>
        </g>
        <g id="Graphic_585">
          <path d="M 64.61638 302.40727 C 64.61638 303.86194 71.1624 306.65006 74.67785 306.65006 C 77.22352 306.65006 74.920295 304.2256 70.67751 302.5285 C 64.737605 300.10404 64.61638 300.10404 64.61638 302.40727 Z" fill="black"/>
        </g>
        <g id="Graphic_584">
          <path d="M 265.1184 314.16585 C 263.42128 317.6813 261.11806 321.56043 260.02705 322.65143 C 258.93605 323.98488 258.81483 324.83343 259.54216 324.83343 C 261.11806 324.83343 265.96696 318.52986 268.75507 312.8324 C 271.0583 307.9835 271.0583 307.8623 269.4824 307.8623 C 268.8763 307.8623 266.8155 310.77162 265.1184 314.16585 Z" fill="black"/>
        </g>
        <g id="Graphic_583">
          <path d="M 264.5123 324.591 C 261.48172 327.74277 257.6026 331.137 256.0267 332.228 C 254.45082 333.44023 253.48104 334.65246 253.96593 335.13735 C 254.8145 335.9859 268.14896 325.682 269.84608 322.77265 C 272.39175 318.40864 269.4824 319.37842 264.5123 324.591 Z" fill="black"/>
        </g>
        <g id="Graphic_582">
          <path d="M 253.11737 329.07622 C 251.1778 330.77334 250.0868 332.1068 250.81414 332.1068 C 251.54148 332.1068 253.35982 330.77334 254.9357 329.07622 C 258.57238 325.1971 257.84505 325.31832 253.11737 329.07622 Z" fill="black"/>
        </g>
        <g id="Graphic_581">
          <path d="M 234.08544 313.4385 C 233.47933 313.9234 233.11566 315.37808 233.11566 316.83275 C 233.11566 318.52986 233.47933 318.89353 234.4491 317.92375 C 235.17644 317.1964 235.5401 315.62052 235.29766 314.52952 C 235.17644 313.4385 234.57033 312.95363 234.08544 313.4385 Z" fill="black"/>
        </g>
        <g id="Graphic_580">
          <path d="M 228.26676 318.7723 C 228.26676 319.37842 228.87287 319.98453 229.47898 319.98453 C 230.20632 319.98453 230.6912 319.37842 230.6912 318.7723 C 230.6912 318.04497 230.20632 317.5601 229.47898 317.5601 C 228.87287 317.5601 228.26676 318.04497 228.26676 318.7723 Z" fill="black"/>
        </g>
        <g id="Graphic_579">
          <path d="M 157.47282 337.92546 C 156.74548 339.1377 161.47316 346.6535 162.92783 346.6535 C 164.50372 346.6535 164.3825 346.1686 161.47316 341.3197 C 158.80627 336.71324 158.4426 336.34957 157.47282 337.92546 Z" fill="black"/>
        </g>
        <g id="Graphic_578">
          <path d="M 202.81003 341.9258 C 199.77947 344.47148 198.08236 346.6535 198.93091 346.6535 C 200.74925 346.6535 209.71972 338.6528 208.87116 337.80424 C 208.5075 337.44057 205.8406 339.2589 202.81003 341.9258 Z" fill="black"/>
        </g>
        <g id="Graphic_577">
          <path d="M 184.263 336.4708 C 183.7781 336.9557 183.7781 337.683 184.02055 338.1679 C 184.74788 339.38013 189.47556 338.1679 189.47556 336.83446 C 189.47556 335.62224 185.47522 335.3798 184.263 336.4708 Z" fill="black"/>
        </g>
        <g id="Graphic_576">
          <path d="M 236.75233 344.22903 C 236.75233 344.83515 237.35845 345.44126 238.08578 345.44126 C 238.93434 345.44126 241.11634 347.01715 243.0559 349.07793 C 244.87424 351.0175 247.4199 352.7146 248.63214 352.7146 C 250.0868 352.7146 249.23825 351.25994 245.60158 347.8657 C 240.75268 343.25925 236.75233 341.56214 236.75233 344.22903 Z" fill="black"/>
        </g>
        <g id="Graphic_575">
          <path d="M 222.81175 351.98727 C 224.02397 353.6844 225.47864 355.13906 226.08475 355.13906 C 227.66065 355.13906 224.26642 349.9265 222.32686 349.32038 C 221.23585 348.9567 221.4783 349.9265 222.81175 351.98727 Z" fill="black"/>
        </g>
      </g>
    </g>
  </g>
</svg>
