<?xml version="1.0" encoding="UTF-8" standalone="no"?>
<!DOCTYPE svg PUBLIC "-//W3C//DTD SVG 1.1//EN" "http://www.w3.org/Graphics/SVG/1.1/DTD/svg11.dtd">
<svg xmlns="http://www.w3.org/2000/svg" xmlns:xl="http://www.w3.org/1999/xlink" version="1.1" xmlns:dc="http://purl.org/dc/elements/1.1/" viewBox="63 58.5 238.5 265.5" width="238.5" height="265.5">
  <defs>
    <clipPath id="artboard_clip_path">
      <path d="M 63 58.5 L 301.5 58.5 L 301.5 324 L 63 324 Z"/>
    </clipPath>
  </defs>
  <g id="Lighthouse_(1)" stroke-opacity="1" fill="none" fill-opacity="1" stroke-dasharray="none" stroke="none">
    <title>Lighthouse (1)</title>
    <g id="Lighthouse_(1)_Layer_2" clip-path="url(#artboard_clip_path)">
      <title>Layer 2</title>
      <g id="Group_43">
        <g id="Graphic_28">
          <path d="M 180.31398 64.70414 C 180.06358 65.28842 180.23051 67.37515 180.56439 69.46187 C 181.48255 74.88736 181.48255 80.39631 180.56439 80.39631 C 180.14704 80.39631 178.14379 78.64346 176.14053 76.55674 C 170.13076 70.21309 165.4565 66.707394 164.45487 67.70902 C 163.78712 68.376774 164.45487 69.71228 166.95894 72.29982 C 171.04892 76.807145 172.63483 79.81203 173.21912 83.90201 C 173.63646 87.07383 172.80177 88.07546 171.54974 85.98874 C 169.54648 82.73344 160.44836 78.39306 160.44836 80.64672 C 160.44836 81.73182 163.95406 87.40771 164.78875 87.74159 C 166.20772 88.32587 168.9622 95.00339 170.13076 100.67928 C 170.79851 103.93457 172.13402 109.61047 172.9687 113.36657 C 174.55462 120.0441 174.55462 120.2945 173.05218 124.30101 C 171.71667 127.89018 171.1324 128.391 168.87873 128.6414 C 166.5416 128.89181 166.29119 129.22569 166.29119 131.64629 C 166.29119 134.06689 165.95731 134.48423 163.78712 134.90158 L 161.28305 135.4024 L 161.28305 180.97647 L 161.28305 226.4671 L 151.09983 226.4671 L 140.83314 226.4671 L 141.08355 265.28018 L 141.33395 304.09327 L 113.4553 304.09327 L 85.57665 304.09327 L 85.49318 294.91168 C 85.40971 289.82007 85.15931 285.31274 84.9089 284.8954 C 84.57502 284.39458 80.98586 284.0607 76.89587 284.0607 C 69.46713 284.0607 69.38366 284.0607 69.967946 285.89702 C 70.30182 286.98212 70.55223 294.66127 70.55223 303.09164 L 70.46876 318.283 L 182.56765 318.283 L 294.75 318.283 L 294.41612 315.612 C 294.1657 314.10955 293.9153 306.18 293.6649 297.91656 C 293.4145 289.7366 293.1641 282.89214 292.99715 282.80867 C 292.8302 282.64173 289.15758 282.39133 284.8172 282.30786 L 276.88763 282.14092 L 276.63722 293.15883 L 276.38682 304.09327 L 251.9304 304.09327 L 227.3905 304.09327 L 226.97316 301.75614 C 226.72275 300.5041 226.63928 283.05908 226.72275 263.0265 L 226.80622 226.4671 L 215.70484 226.4671 L 204.68693 226.4671 L 204.93734 180.97647 C 205.18775 132.31404 205.43816 134.65117 201.18124 134.65117 C 199.76226 134.65117 199.51186 134.23383 199.84573 131.72976 C 200.1796 129.05875 200.01267 128.80834 198.00941 128.80834 C 196.34003 128.80834 195.5888 128.05712 194.2533 124.8853 C 193.33515 122.79857 192.08311 120.54491 191.49883 119.96062 C 189.4121 117.8739 191.5823 112.36494 196.1731 108.02456 C 198.5937 105.77089 200.68042 102.93295 201.34817 101.01316 C 202.51674 97.17358 201.93246 96.17196 199.76226 98.50909 C 198.92757 99.42725 197.00778 100.59581 195.5888 101.26357 C 194.16984 101.84785 193.00127 102.59907 193.00127 103.01642 C 193.00127 103.43376 192.50046 103.76764 191.8327 103.76764 C 191.24842 103.76764 190.2468 104.35192 189.66251 105.01967 C 189.07823 105.68742 188.327 106.0213 187.90966 105.85436 C 187.07497 105.27008 187.49232 103.93457 190.58067 97.59093 C 193.08474 92.49932 193.66902 87.40771 192.16658 84.48629 C 190.66414 81.81529 189.99639 82.64998 188.9113 88.49281 C 187.74272 94.91992 185.23865 99.17684 183.81968 97.09012 C 182.73458 95.42073 182.73458 94.1687 184.23703 86.48955 C 185.9064 77.89224 185.82294 71.799 184.07009 68.46024 C 183.31887 66.9578 182.73458 65.53883 182.81805 65.20495 C 183.06846 64.28679 180.56439 63.78598 180.31398 64.70414 Z" fill="black"/>
        </g>
        <g id="Graphic_27">
          <path d="M 183.56927 78.30959 C 183.40234 81.48141 182.73458 86.65649 182.1503 89.74484 C 181.23214 94.66951 181.23214 95.58767 182.4007 97.42399 C 183.15193 98.59256 183.4858 99.67765 183.06846 100.01153 C 182.65111 100.26194 181.98336 101.59744 181.73296 103.09988 C 181.14867 105.43702 181.0652 105.52049 180.23051 104.18498 C 178.97848 101.84785 179.39582 91.49769 181.0652 85.8218 C 181.98336 82.73344 182.48418 78.476525 182.4007 74.55348 C 182.23377 69.54534 182.4007 68.71065 183.06846 70.38003 C 183.56927 71.5486 183.73621 75.054295 183.56927 78.30959 Z" fill="#FFFFFF"/>
        </g>
        <g id="Graphic_26">
          <path d="M 178.22726 89.82831 C 176.80828 96.75624 176.80828 96.92318 178.81154 105.52049 C 180.8148 114.70208 181.98336 118.37471 182.56765 117.8739 C 182.73458 117.62349 182.48418 115.78717 182.06683 113.78392 C 180.98173 108.85925 182.23377 103.76764 185.656 99.51072 C 187.07497 97.75787 188.9113 94.33564 189.74598 91.91504 C 190.99802 87.99199 191.24842 87.82505 191.24842 90.07872 C 191.3319 91.49769 190.2468 94.91992 188.82782 97.59093 C 186.24028 102.68254 185.656 105.77089 187.15844 106.68905 C 187.74272 107.02293 187.74272 107.77415 187.15844 108.77578 C 186.65763 109.69394 185.82294 112.53188 185.23865 115.20289 C 183.73621 121.54654 182.1503 121.88041 179.81317 116.12105 C 178.81154 113.70045 177.80991 110.52863 177.64297 109.19312 C 176.80828 104.43539 175.55625 94.1687 174.97197 87.24077 C 174.55462 81.14753 174.0538 79.81203 171.54974 75.972455 L 168.54485 71.63207 L 174.13728 77.22449 L 179.7297 82.81691 L 178.22726 89.82831 Z" fill="#FFFFFF"/>
        </g>
        <g id="Graphic_25">
          <path d="M 166.12425 83.23426 C 170.0473 85.40445 173.13565 89.41097 173.97034 93.58442 C 174.30421 95.75461 175.05543 101.01316 175.55625 105.35355 C 176.05706 109.94434 177.0587 114.3682 178.06032 116.20452 C 178.895 117.79043 179.64623 119.45981 179.64623 119.79369 C 179.64623 121.12919 177.14216 120.46144 176.39094 118.959 C 175.63972 117.45655 173.46952 109.02618 172.55136 103.51723 C 171.3828 96.92318 170.0473 93.00013 167.45975 89.07709 C 165.95731 86.65649 164.3714 84.48629 163.87059 84.23589 C 162.95243 83.6516 162.61855 82.06569 163.36977 82.06569 C 163.70365 82.06569 164.87221 82.56651 166.12425 83.23426 Z" fill="#FFFFFF"/>
        </g>
        <g id="Graphic_24">
          <path d="M 198.92757 102.68254 C 198.51023 103.6007 196.34003 105.93783 194.08637 108.02456 C 190.58067 111.27985 189.99639 112.198 189.66251 115.87064 C 189.32864 119.37634 188.99476 120.0441 187.40885 120.2945 C 185.23865 120.62838 185.15518 120.37797 186.40722 116.37146 C 189.24517 107.3568 189.74598 106.43864 192.16658 105.43702 C 193.58556 104.85273 194.67065 104.10151 194.67065 103.68417 C 194.67065 103.01642 199.01104 100.51234 199.51186 100.92969 C 199.6788 101.01316 199.42839 101.84785 198.92757 102.68254 Z" fill="#FFFFFF"/>
        </g>
        <g id="Graphic_23">
          <path d="M 191.99964 124.0506 C 195.088 128.6414 194.8376 128.80834 183.81968 128.80834 C 172.9687 128.80834 172.7183 128.72487 174.72156 124.30101 C 175.89012 121.79694 176.72481 121.54654 184.23703 121.3796 C 189.91292 121.29613 190.07986 121.3796 191.99964 124.0506 Z" fill="#FFFFFF"/>
        </g>
        <g id="Graphic_22">
          <path d="M 197.84247 132.73138 L 197.59207 134.98505 L 184.65437 134.90158 C 177.5595 134.81811 170.88198 134.73464 169.88036 134.73464 C 168.37791 134.65117 167.96057 134.15036 167.96057 132.56445 L 167.96057 130.47772 L 183.06846 130.47772 L 198.09288 130.47772 L 197.84247 132.73138 Z" fill="#FFFFFF"/>
        </g>
        <g id="Graphic_21">
          <path d="M 203.01755 138.82462 L 203.01755 141.3287 L 182.985 141.3287 L 162.95243 141.3287 L 162.95243 138.82462 L 162.95243 136.32055 L 182.985 136.32055 L 203.01755 136.32055 L 203.01755 138.82462 Z" fill="#FFFFFF"/>
        </g>
        <g id="Graphic_20">
          <path d="M 182.985 147.33846 C 183.06846 149.75906 183.15193 154.09945 183.2354 156.9374 L 183.4858 162.19595 L 173.21912 162.19595 L 162.95243 162.19595 L 162.95243 152.59701 L 162.95243 142.99807 L 172.9687 142.99807 L 182.985 142.99807 L 182.985 147.33846 Z" fill="#FFFFFF"/>
        </g>
        <g id="Graphic_19">
          <path d="M 203.01755 152.59701 L 203.01755 162.19595 L 193.83596 162.19595 L 184.65437 162.19595 L 184.65437 152.59701 L 184.65437 142.99807 L 193.83596 142.99807 L 203.01755 142.99807 L 203.01755 152.59701 Z" fill="#FFFFFF"/>
        </g>
        <g id="Graphic_18">
          <path d="M 203.01755 173.6312 L 203.01755 182.97973 L 182.985 182.97973 L 162.95243 182.89626 L 162.95243 173.54773 L 162.95243 164.28267 L 182.985 164.28267 L 203.01755 164.28267 L 203.01755 173.6312 Z" fill="#FFFFFF"/>
        </g>
        <g id="Graphic_17">
          <path d="M 183.06846 185.7342 C 183.56927 191.1597 183.65274 199.00578 183.31887 201.17598 L 182.90152 203.93045 L 172.9687 203.93045 L 162.95243 203.93045 L 162.95243 194.33152 L 162.95243 184.73258 L 172.9687 184.73258 C 180.39745 184.73258 182.985 184.98299 183.06846 185.7342 Z" fill="#FFFFFF"/>
        </g>
        <g id="Graphic_16">
          <path d="M 203.01755 194.33152 L 203.01755 203.93045 L 193.83596 203.93045 L 184.65437 203.93045 L 184.65437 194.33152 L 184.65437 184.73258 L 193.83596 184.73258 L 203.01755 184.73258 L 203.01755 194.33152 Z" fill="#FFFFFF"/>
        </g>
        <g id="Graphic_15">
          <path d="M 194.33678 205.59983 L 203.01755 205.59983 L 203.01755 216.03346 L 203.01755 226.4671 L 182.985 226.4671 L 162.95243 226.4671 L 162.95243 216.2004 L 162.95243 205.85024 L 172.7183 205.6833 C 178.06032 205.59983 182.65111 205.34943 182.90152 205.09902 C 183.15193 204.93208 183.81968 204.93208 184.48743 205.1825 C 185.07172 205.4329 189.57904 205.59983 194.33678 205.59983 Z" fill="#FFFFFF"/>
        </g>
        <g id="Graphic_14">
          <path d="M 182.985 238.65356 L 182.985 249.00372 L 162.53508 249.00372 L 142.08517 249.00372 L 142.08517 238.5701 L 142.08517 228.13647 L 162.53508 228.21994 L 182.985 228.21994 L 182.985 238.65356 Z" fill="#FFFFFF"/>
        </g>
        <g id="Graphic_13">
          <path d="M 224.88644 238.19448 C 225.05337 243.61997 224.9699 248.29423 224.80297 248.46117 C 224.63603 248.6281 215.45444 248.79505 204.52 248.79505 L 184.65437 248.79505 L 184.65437 238.52836 L 184.65437 228.34514 L 204.60347 228.34514 L 224.63603 228.34514 L 224.88644 238.19448 Z" fill="#FFFFFF"/>
        </g>
        <g id="Graphic_12">
          <path d="M 162.95243 258.1853 L 162.95243 265.69752 L 152.5188 265.69752 L 142.08517 265.69752 L 142.08517 258.1853 L 142.08517 250.6731 L 152.5188 250.6731 L 162.95243 250.6731 L 162.95243 258.1853 Z" fill="#FFFFFF"/>
        </g>
        <g id="Graphic_11">
          <path d="M 199.6788 258.1853 L 199.6788 265.69752 L 182.1503 265.69752 L 164.6218 265.69752 L 164.6218 258.1853 L 164.6218 250.6731 L 182.1503 250.6731 L 199.6788 250.6731 L 199.6788 258.1853 Z" fill="#FFFFFF"/>
        </g>
        <g id="Graphic_10">
          <path d="M 224.7195 252.50942 C 224.7195 253.59452 224.9699 256.93328 225.30378 260.02163 L 225.8046 265.69752 L 213.53465 265.69752 L 201.34817 265.69752 L 201.34817 258.1853 L 201.34817 250.6731 L 213.03384 250.6731 C 224.55256 250.6731 224.7195 250.6731 224.7195 252.50942 Z" fill="#FFFFFF"/>
        </g>
        <g id="Graphic_9">
          <path d="M 183.40234 273.20973 L 183.40234 278.63522 L 162.70202 278.88563 L 142.08517 279.05257 L 142.08517 273.37667 L 142.08517 267.6173 L 162.78549 267.70078 L 183.40234 267.78425 L 183.40234 273.20973 Z" fill="#FFFFFF"/>
        </g>
        <g id="Graphic_8">
          <path d="M 225.38725 272.95933 L 225.13684 278.63522 L 204.93734 278.88563 L 184.65437 279.05257 L 184.65437 273.46014 L 184.65437 267.78425 L 205.10428 267.53384 L 225.63766 267.28343 L 225.38725 272.95933 Z" fill="#FFFFFF"/>
        </g>
        <g id="Graphic_7">
          <path d="M 157.94429 292.4076 L 157.94429 304.09327 L 150.26514 304.09327 L 142.50252 304.09327 L 142.25211 292.4076 L 142.0017 280.72195 L 149.93126 280.72195 L 157.94429 280.72195 L 157.94429 292.4076 Z" fill="#FFFFFF"/>
        </g>
        <g id="Graphic_6">
          <path d="M 205.6051 282.55826 C 205.68856 284.47805 205.68856 301.0884 205.6051 303.00817 C 205.52162 303.84286 200.34655 304.09327 182.56765 304.09327 L 159.61367 304.09327 L 159.5302 300.92145 C 159.44673 299.25207 159.36326 294.24393 159.19632 289.90354 C 159.11285 285.56315 159.19632 281.72357 159.36326 281.30623 C 159.5302 280.97235 170.0473 280.72195 182.65111 280.72195 L 205.52162 280.72195 L 205.6051 282.55826 Z" fill="#FFFFFF"/>
        </g>
        <g id="Graphic_5">
          <path d="M 225.5542 292.4076 L 225.5542 304.09327 L 216.3726 304.09327 L 207.191 304.09327 L 207.191 292.4076 L 207.191 280.72195 L 216.3726 280.72195 L 225.5542 280.72195 L 225.5542 292.4076 Z" fill="#FFFFFF"/>
        </g>
        <g id="Graphic_4">
          <path d="M 291.8286 287.90028 C 292.079 290.07048 292.3294 297.41575 292.3294 304.17674 L 292.3294 316.61362 L 188.66088 316.78056 C 131.56808 316.9475 82.07095 316.9475 78.56525 316.78056 L 72.22161 316.53015 L 72.30508 301.0884 L 72.38855 285.64662 L 77.81403 285.89702 L 83.23952 286.14743 L 83.74033 294.077 C 83.99074 298.41738 83.90727 302.84123 83.48993 303.84286 L 82.82217 305.76265 L 180.39745 305.76265 L 277.88926 305.76265 L 278.13967 301.75614 C 278.22314 299.58594 278.39007 294.74474 278.39007 290.90517 L 278.39007 284.0607 L 284.8172 284.0607 L 291.2443 284.0607 L 291.8286 287.90028 Z" fill="#FFFFFF"/>
        </g>
      </g>
    </g>
  </g>
</svg>
