<?xml version="1.0" encoding="UTF-8" standalone="no"?>
<!DOCTYPE svg PUBLIC "-//W3C//DTD SVG 1.1//EN" "http://www.w3.org/Graphics/SVG/1.1/DTD/svg11.dtd">
<svg xmlns="http://www.w3.org/2000/svg" xmlns:xl="http://www.w3.org/1999/xlink" version="1.1" xmlns:dc="http://purl.org/dc/elements/1.1/" viewBox="49.5 81 265.5 314.5907" width="265.5" height="314.5907">
  <defs>
    <clipPath id="artboard_clip_path">
      <path d="M 49.5 81 L 315 81 L 315 370.7892 L 315 395.5907 L 49.5 395.5907 Z"/>
    </clipPath>
  </defs>
  <g id="Linden_Branch_Twined_on_Itself_(1)" stroke-opacity="1" fill="none" fill-opacity="1" stroke-dasharray="none" stroke="none">
    <title>Linden Branch Twined on Itself (1)</title>
    <g id="Linden_Branch_Twined_on_Itself_(1)_Layer_2" clip-path="url(#artboard_clip_path)">
      <title>Layer 2</title>
      <g id="Graphic_45">
        <rect x="296.56953" y="393.8976" width="76.752" height="92.1024" id="path"/>
        <clipPath id="clip_path">
          <use xl:href="#path"/>
        </clipPath>
        <g clip-path="url(#clip_path)">
          <image xl:href="image205.pdf" width="258" height="311" transform="translate(303.492 404.1838) scale(.23)"/>
        </g>
      </g>
      <g id="Group_687">
        <g id="Graphic_699">
          <path d="M 116.0055 84.05942 C 116.0055 84.44446 113.31024 85.40705 110.03742 86.08086 C 106.66835 86.75468 103.58805 87.71727 103.10675 88.10231 C 102.5292 88.58361 101.47034 88.96864 100.60401 88.96864 C 99.83393 88.96864 95.69478 90.70131 91.45937 92.81902 C 87.22396 94.93672 80.77458 97.63199 77.02047 98.69084 C 63.9292 102.63747 59.21249 106.96914 55.26586 118.71278 C 53.43693 124.1033 53.34067 125.5472 54.207006 133.8255 C 54.6883 138.83098 55.36212 143.16266 55.650896 143.5477 C 56.22845 144.02899 66.91324 138.5422 67.87583 137.19458 C 68.16461 136.80954 70.474835 135.75069 72.97758 134.7881 C 75.48032 133.8255 78.75314 132.09283 80.19703 130.93772 C 81.64092 129.68635 83.75862 128.24246 84.91374 127.6649 C 87.70526 126.12475 91.94067 117.36515 91.94067 113.03348 C 91.94067 109.85692 92.32571 109.27937 96.07982 107.45044 C 103.78057 103.60006 109.45987 101.48236 111.96261 101.3861 C 113.4065 101.3861 117.4494 100.61603 121.01099 99.65343 C 129.00052 97.63199 137.76012 98.3058 148.73368 101.96366 C 156.43443 104.56266 167.69677 110.72326 169.23692 113.226 C 169.91074 114.18859 168.65937 117.55767 165.09777 124.5846 C 162.4025 130.07138 158.45587 139.31228 156.43443 145.1841 C 154.31672 150.95966 152.10276 156.25393 151.42894 156.92774 C 150.37009 157.9866 149.4075 157.69782 145.8459 155.77263 C 129.96311 147.20555 125.15014 146.1467 115.81299 149.61203 C 112.44391 150.8634 108.30476 152.9811 106.37957 154.52126 C 104.55064 155.96515 100.12271 158.17911 96.56112 159.23797 C 92.90326 160.29682 90.01548 161.45193 90.01548 161.64445 C 90.01548 161.93323 92.03693 162.99208 94.63593 164.05093 C 97.13867 165.20604 103.10675 168.09383 108.01598 170.5003 C 115.71673 174.25442 117.83443 174.92824 125.2464 175.5058 C 132.3696 176.08335 134.10226 175.89083 136.605 174.44694 C 138.24141 173.48435 140.74416 172.23298 142.18805 171.65542 C 143.53568 171.07786 144.97957 170.01901 145.26834 169.24894 C 145.94216 167.51627 149.69627 167.51627 152.19902 169.3452 C 153.6429 170.3078 154.41298 172.23298 154.89428 175.40954 C 155.66435 181.57013 159.12969 191.38859 164.61647 203.03597 C 169.33318 213.23946 169.42944 215.2609 165.29029 217.3786 C 163.17258 218.43746 149.11872 232.49133 144.2095 238.2669 C 141.03293 242.11726 136.31623 245.87137 135.83493 245.00504 C 135.44989 244.42748 135.25737 241.25093 135.35363 237.9781 C 135.54615 228.7372 133.5247 223.25043 128.03792 218.72624 C 126.01648 217.08983 102.24042 204.47986 101.0853 204.47986 C 100.70027 204.47986 100.70027 205.92375 101.0853 207.56016 C 101.37408 209.29282 102.0479 215.45342 102.5292 221.32524 C 103.39553 232.97262 104.1656 236.53422 107.05339 243.07985 C 109.74865 249.04793 116.0055 252.8983 124.18755 253.57212 C 131.50326 254.14968 131.69578 255.016 127.07533 267.1447 C 122.55114 278.88833 120.33717 288.32175 117.93069 306.03346 C 116.87184 314.023 116.0055 320.56863 116.0055 320.6649 C 116.0055 320.76114 114.08032 322.87885 111.86635 325.3816 C 108.11224 329.4245 107.14964 330.00204 103.39553 330.0983 C 94.82845 330.48334 88.47533 335.68134 87.03144 343.5746 C 85.49129 351.75665 82.60351 359.74618 79.81199 363.11526 C 78.27184 365.04044 76.44291 367.63944 75.86536 368.8908 L 74.61399 371.20104 L 81.64092 370.52722 C 85.39503 370.1422 88.76411 369.46837 88.86037 368.98708 C 89.05289 368.5058 90.78556 368.12074 92.71074 368.12074 C 96.75364 368.12074 106.37957 363.9816 106.37957 362.2489 C 106.37957 361.67136 106.95713 361.3826 107.63094 361.67136 C 108.97857 362.15266 114.94665 356.5696 116.87184 353.00802 C 117.4494 351.8529 118.02695 348.38758 118.02695 345.30728 C 118.12321 342.22698 118.41199 340.68683 118.6045 341.84194 C 118.79703 343.0933 119.47084 344.0559 119.95214 344.0559 C 120.43343 344.0559 120.81847 344.5372 120.81847 345.211 C 120.81847 345.78857 121.39603 347.03994 122.1661 347.81 C 122.93618 348.67635 124.66885 352.1417 126.01648 355.4145 C 128.808 362.44144 137.76012 375.3402 143.15064 380.2494 C 147.38605 384.00353 155.37558 388.23894 164.13518 391.223 C 169.33318 393.0519 172.41348 393.3407 181.8469 393.3407 C 188.39253 393.24443 193.78305 392.76313 194.3606 392.1856 C 194.8419 391.7043 196.67083 391.223 198.30724 391.223 C 199.94365 391.223 201.67632 390.83795 202.15762 390.35665 C 202.73517 389.9716 204.46784 389.1053 206.008 388.624 C 209.37707 387.46887 219.9656 379.8644 219.9656 378.613 C 219.9656 378.1317 220.6394 377.74668 221.40949 377.74668 C 223.62345 377.74668 233.34564 364.75166 236.90724 356.95466 C 238.73617 353.1043 240.66135 347.6175 241.14265 344.826 C 241.7202 342.03446 242.49028 339.43546 242.97158 338.95416 C 244.22295 337.7028 245.85936 340.59057 246.9182 345.9811 C 249.13218 357.43595 256.54415 365.4255 268.19153 368.6983 C 279.8389 371.9711 281.66783 372.2599 287.4434 371.0085 C 296.203 369.08333 297.06933 366.2918 289.84988 362.63396 C 286.19202 360.80503 285.42195 359.74618 285.42195 356.28084 C 285.42195 354.83695 285.0369 353.68184 284.5556 353.68184 C 284.07432 353.68184 283.30424 352.23795 283.01547 350.5053 C 282.14913 346.55865 278.10624 339.5317 274.73716 336.06638 C 271.0793 332.31227 266.17008 330.5796 259.43193 330.5796 C 252.8863 330.5796 248.8434 328.9432 247.11073 325.5741 C 245.47432 322.39755 244.03043 312.0978 244.03043 303.43446 C 244.03043 291.69082 238.73617 270.80254 233.34564 260.9841 C 232.2868 259.0589 233.05687 253.8609 234.69327 251.55068 C 236.42594 249.24045 239.69876 247.79656 243.45287 247.79656 C 246.9182 247.79656 252.79003 245.1013 255.77407 242.21352 C 259.14315 238.74818 261.6459 229.50729 261.93467 218.91876 C 262.1272 209.77412 263.57108 201.88085 265.30375 200.62948 C 266.07382 200.05193 267.42145 195.81652 266.8439 195.81652 C 266.17008 195.81652 262.22345 198.03048 257.41048 201.20704 C 255.004 202.7472 251.05736 204.8649 248.74714 205.8275 C 246.4369 206.79008 243.54913 208.04145 242.29776 208.619 C 237.86983 210.73671 232.57557 216.2235 229.97657 221.4215 C 227.66634 226.1382 227.47382 227.48584 227.95512 233.7427 C 228.34016 239.13322 228.14764 241.34719 227.0888 242.88734 C 226.22245 244.04245 225.25986 244.90878 224.87482 244.90878 C 224.39352 244.90878 221.31323 241.34719 218.0404 236.91926 C 214.67133 232.58759 210.2434 227.48584 208.1257 225.6569 C 196.09328 215.2609 192.05039 210.0629 195.13068 209.1003 C 195.70824 208.90779 196.2858 208.04145 196.38206 207.27138 C 196.57457 206.5013 198.01846 203.70978 199.65487 201.11078 C 201.38754 198.41552 202.54265 195.52774 202.35014 194.6614 C 202.06136 193.79507 202.4464 192.25492 203.1202 191.29233 C 204.75662 188.88584 207.1631 180.02998 207.93318 173.38809 C 208.51073 168.96016 209.0883 167.51627 211.01348 166.2649 C 213.22744 164.821 213.61248 164.821 217.3666 166.93871 C 219.58056 168.19008 223.14215 170.40405 225.1636 171.9442 C 228.34016 174.25442 229.78405 174.63946 235.27083 174.63946 C 243.6454 174.5432 249.3247 173.19557 254.23392 169.92275 C 256.4479 168.47886 260.49078 166.2649 263.18604 165.01353 C 268.09527 162.60704 269.34664 160.48934 266.8439 158.4679 C 266.17008 157.89033 261.45337 155.19507 256.25537 152.59607 C 247.11073 147.7831 246.7257 147.68684 238.73617 147.68684 C 229.399 147.68684 224.97108 149.13073 220.25437 153.65492 C 213.99752 159.71926 208.41447 156.35019 206.10425 145.28036 C 204.37158 136.61702 201.86884 130.16764 196.95961 121.60056 C 194.74565 117.84645 193.01298 114.47737 193.01298 113.99607 C 193.01298 112.07089 200.90625 107.16166 209.37707 103.79258 C 218.13667 100.32725 219.09926 100.13473 231.22794 99.94221 C 245.08928 99.65343 248.8434 100.42351 262.22345 106.39159 C 267.999 108.99059 268.86534 109.76066 271.3681 114.47737 C 275.69976 122.85193 281.09028 128.33872 288.1172 131.41902 C 291.4863 132.95916 294.85536 134.21054 295.62544 134.21054 C 296.3955 134.21054 299.18703 136.13572 301.68978 138.5422 C 304.19252 140.94869 306.69526 142.87388 307.27282 142.87388 C 310.93067 142.87388 312.18205 126.22101 309.0055 119.09782 C 308.0429 116.88385 306.79152 115.3437 306.1177 115.53622 C 305.4439 115.825 304.6738 114.86241 304.38504 113.32226 C 303.5187 109.37563 294.37407 99.94221 289.27232 97.72824 C 286.57706 96.47687 282.82295 95.7068 279.3576 95.7068 C 274.54464 95.7068 270.69427 94.64795 269.05786 92.72276 C 267.22893 90.79757 253.3676 86.4659 245.95562 85.50331 C 234.21198 84.05942 214.86385 85.50331 206.58555 88.48735 C 202.73517 89.83498 188.58505 97.63199 183.77208 101.00106 C 182.03941 102.34869 181.55812 102.25243 178.47782 99.94221 C 170.58455 94.07039 151.33268 86.27338 139.6853 84.25194 C 132.75463 83.00057 116.0055 82.90431 116.0055 84.05942 Z M 191.2803 235.47537 L 191.2803 235.47537 C 202.15762 246.35267 207.74066 253.3796 211.6873 261.27287 C 220.6394 278.9846 225.45238 297.85142 224.39352 311.32773 C 223.7197 320.56863 220.4469 333.75616 217.27033 339.72423 C 211.8798 350.12024 200.71373 362.63396 194.93817 364.84792 C 189.06635 367.0619 171.45089 367.2544 167.79303 365.23296 C 166.4454 364.4629 162.69129 362.3452 159.51473 360.6125 C 156.33817 358.87984 153.35413 356.3771 152.68031 355.02947 C 152.10276 353.68184 150.94765 352.43047 150.17757 352.04543 C 148.54116 351.46787 146.23094 346.9437 143.34316 338.76164 C 142.47682 336.06638 141.03293 333.27486 140.35912 332.40852 C 139.58904 331.5422 139.01149 328.9432 139.01149 326.63296 C 139.01149 324.32274 138.81897 318.2584 138.53019 313.2529 C 138.14515 306.70728 138.43393 302.27935 139.49278 297.56264 C 140.35912 293.9048 141.03293 289.09182 141.03293 286.68534 C 141.03293 283.79756 141.51423 282.2574 142.47682 281.87237 C 143.2469 281.48733 143.92071 280.52474 143.92071 279.6584 C 143.92071 278.79207 144.78705 276.3856 145.8459 274.26788 C 146.90475 272.15018 147.77109 269.83995 147.77109 268.97362 C 147.77109 268.20354 149.11872 265.60454 150.65887 263.19806 C 152.19902 260.79157 153.54665 258.28883 153.54665 257.615 C 153.54665 256.9412 154.22046 256.17112 154.99054 255.88235 C 155.76061 255.59357 157.49328 253.47586 158.84091 251.16564 C 160.18854 248.8554 163.26884 245.29382 165.86784 243.27237 C 168.37059 241.25093 171.1621 238.65192 172.1247 237.40055 C 173.0873 236.24544 174.53118 235.28285 175.30126 235.28285 C 176.07133 235.28285 176.6489 234.8978 176.6489 234.4165 C 176.6489 233.93522 177.51522 233.35766 178.67034 233.06888 C 179.7292 232.7801 180.8843 231.625 181.17308 230.56614 C 182.03941 227.29332 183.9646 228.15966 191.2803 235.47537 Z M 188.58505 139.9861 L 188.58505 139.9861 C 192.82046 152.88485 193.97557 166.55368 191.2803 173.00305 C 190.6065 174.5432 190.1252 176.37213 190.1252 177.23846 C 190.1252 179.45243 184.4459 191.38859 182.71323 192.63996 C 181.46186 193.60255 180.59552 193.12125 177.51522 189.17462 C 175.39752 186.57562 173.7611 183.39906 173.7611 182.1477 C 173.7611 180.89632 172.79852 177.91228 171.73966 175.60205 C 168.37059 168.76764 167.8893 165.97612 169.42944 163.85841 C 170.39203 162.41452 170.4883 161.25941 169.81448 159.43048 C 169.33318 158.08285 169.14066 156.25393 169.5257 155.48385 C 169.91074 154.61752 170.39203 151.92226 170.39203 149.32325 C 170.4883 146.82051 171.25837 144.02899 171.93218 143.0664 C 172.70226 142.20006 174.14615 139.0235 175.10874 136.13572 C 176.1676 133.24794 177.804 129.87887 178.95911 128.6275 L 180.98056 126.41353 L 183.57956 129.59009 C 185.02345 131.32276 187.33368 136.03946 188.58505 139.9861 Z" fill="black"/>
        </g>
        <g id="Graphic_698">
          <path d="M 137.66386 87.52475 C 149.21498 90.22002 156.91573 92.6265 161.82495 95.2255 C 163.3651 95.99558 165.09777 96.66939 165.67533 96.66939 C 166.34914 96.66939 167.02296 97.34321 167.31173 98.11328 C 167.69677 98.88336 169.5257 100.32725 171.54715 101.3861 C 175.59004 103.5038 192.05039 119.67538 192.05039 121.60056 C 192.05039 122.17812 193.10924 124.29582 194.3606 126.31727 C 197.2484 130.84146 202.25388 146.43547 201.77258 149.41951 C 201.67632 150.09333 202.4464 152.21103 203.50525 154.23248 C 204.46784 156.15767 205.62295 158.56415 205.91173 159.623 C 206.39303 161.0669 206.77807 161.16315 207.93318 160.20056 C 208.70325 159.52674 211.59103 159.04545 214.19003 159.1417 C 217.65537 159.1417 219.19552 158.75667 219.58056 157.79408 C 219.86934 157.024 222.17956 155.09881 224.77856 153.4624 C 228.91771 150.8634 230.16909 150.47837 236.81098 150.47837 C 241.62395 150.47837 245.37806 150.95966 247.30325 151.92226 C 248.93966 152.69233 252.01996 154.03996 254.13766 155.00255 C 256.25537 155.86889 259.0469 157.79408 260.29826 159.1417 L 262.70474 161.64445 L 260.29826 162.12575 C 259.0469 162.41452 255.1965 164.1472 251.73118 166.16864 C 248.26584 168.09383 243.93417 169.92275 242.00898 170.3078 C 237.19602 171.17412 228.2439 169.24894 224.97108 166.55368 C 221.02445 163.28086 217.07781 162.02949 211.59103 162.222 C 204.5641 162.51078 201.67632 165.68734 202.83143 171.75168 C 203.21647 173.77313 200.80999 183.88036 199.17358 186.96066 C 198.4035 188.40455 197.82595 190.32973 197.82595 191.29233 C 197.82595 192.92874 194.93817 198.80056 191.47283 204.09482 L 189.83642 206.5013 L 187.23742 203.32474 C 184.63842 200.24445 184.54216 200.05193 185.98605 196.7791 C 195.41946 175.12076 197.82595 157.31278 193.10924 143.93273 C 190.31772 135.84694 185.4085 126.02849 183.002 123.23697 C 181.8469 122.08186 179.7292 119.29034 178.18904 117.07637 C 176.6489 114.86241 175.205 113.03348 174.81996 113.03348 C 174.53118 113.03348 172.70226 111.58959 170.87333 109.85692 C 164.23144 103.5038 157.78206 100.13473 144.49827 96.09184 C 141.61049 95.12924 135.73867 94.55169 129.09677 94.55169 C 116.77558 94.45543 113.31024 94.84046 107.34216 97.15069 C 104.93568 98.01702 101.95164 98.97962 100.60401 99.2684 C 94.73219 100.71228 90.208 105.14021 87.99404 111.58959 C 87.32022 113.7073 86.35763 115.825 85.97259 116.40256 C 85.58755 116.88385 85.20251 118.23149 85.20251 119.3866 C 85.20251 120.83049 84.0474 122.17812 81.83344 123.52575 C 80.00451 124.5846 78.46436 125.93223 78.46436 126.41353 C 78.46436 127.37612 70.18606 132.18909 64.98805 134.21054 C 63.159124 134.88435 60.75264 136.32824 59.59753 137.29084 C 56.90227 139.69732 56.32471 139.5048 56.32471 136.03946 C 56.32471 134.40305 55.843414 132.28535 55.26586 131.2265 C 54.59204 129.97513 54.59204 128.91627 55.1696 128.1462 C 55.747155 127.47238 56.42097 125.25842 56.80601 123.14071 C 57.86486 117.75019 61.13768 109.18311 62.19653 109.18311 C 62.67783 109.18311 64.21798 107.93174 65.56561 106.29533 C 68.16461 103.40755 74.806505 100.61603 79.90825 100.42351 C 81.54466 100.32725 87.51274 97.92076 93.19204 95.12924 C 98.87134 92.24146 104.6469 89.93124 105.89827 89.93124 C 107.14964 89.93124 109.36361 89.44994 110.90376 88.87239 C 113.21398 88.00605 123.80251 86.56216 129.96311 86.27338 C 131.02196 86.17712 134.4873 86.75468 137.66386 87.52475 Z" fill="#FFFFFF"/>
        </g>
        <g id="Graphic_697">
          <path d="M 249.9985 88.77613 C 250.57607 89.35368 252.30873 89.93124 253.65637 89.93124 C 255.004 89.93124 256.54415 90.31628 257.1217 90.79757 C 257.603 91.18261 260.202 92.33772 262.99352 93.30032 C 265.78504 94.26291 269.15412 96.1881 270.50175 97.43947 C 272.5232 99.2684 273.6783 99.65343 276.0848 99.17214 C 278.00998 98.7871 280.22394 99.17214 281.9566 100.03847 C 283.4005 100.80854 285.42195 101.48236 286.38454 101.48236 C 288.21347 101.48236 296.6843 107.64296 298.89826 110.627 C 299.66833 111.68585 301.20848 113.41852 302.3636 114.47737 C 306.31023 118.23149 307.65786 121.40804 307.85038 127.1836 C 308.0429 134.49931 307.17656 135.84694 304 133.24794 C 302.65237 132.18909 300.9197 131.32276 300.14963 131.32276 C 299.37955 131.32276 297.55063 130.7452 296.203 129.97513 C 294.7591 129.20505 291.1975 127.85742 288.30973 126.99109 C 285.42195 126.12475 282.34165 124.87338 281.57157 124.29582 C 279.06883 122.27438 275.02594 115.53622 273.9671 111.58959 C 272.61946 106.5841 272.13816 105.91029 268.09527 103.88884 C 266.26634 103.02251 263.85986 101.48236 262.801 100.61603 C 260.97208 98.97962 259.0469 98.3058 248.8434 95.51428 C 242.10524 93.68535 216.78904 94.16665 211.8798 96.28435 C 203.98654 99.55717 199.26984 101.96366 198.49976 103.11877 C 198.11472 103.79258 197.15213 104.37014 196.57457 104.37014 C 195.90076 104.37014 194.64939 105.23647 193.6868 106.29533 C 191.7616 108.60555 186.75612 108.89433 185.88979 106.68036 C 184.73468 103.60006 189.25886 99.46091 199.94365 93.87787 C 209.85836 88.77613 227.37756 85.88835 242.29776 87.04346 C 245.85936 87.33224 249.3247 88.10231 249.9985 88.77613 Z" fill="#FFFFFF"/>
        </g>
        <g id="Graphic_696">
          <path d="M 175.49378 121.11927 C 176.36011 123.04445 176.26385 123.91079 174.81996 125.73971 C 170.58455 131.2265 164.13518 151.44096 164.13518 159.33422 C 164.13518 169.24894 169.0444 185.22799 174.7237 193.60255 C 176.36011 195.91278 177.61148 198.223 177.61148 198.60804 C 177.61148 198.99307 178.47782 200.14819 179.53667 201.11078 C 180.59552 202.07337 181.46186 203.22849 181.46186 203.70978 C 181.46186 205.15367 189.54764 214.1058 190.89527 214.1058 C 191.47283 214.1058 192.05039 214.5871 192.05039 215.16464 C 192.05039 215.7422 196.2858 220.36265 201.4838 225.4644 C 211.30225 235.28285 217.65537 242.59856 219.77308 246.44893 C 221.02445 248.8554 224.77856 250.2993 227.0888 249.43297 C 227.85886 249.1442 229.30275 246.93023 230.3616 244.62 C 231.8055 241.34719 232.09427 239.422 231.51672 235.76414 C 230.3616 228.35217 233.05687 219.49631 237.9661 214.87587 C 240.66135 212.37312 246.9182 209.19656 251.9237 208.04145 C 253.27133 207.65642 255.77407 206.21253 257.50674 204.8649 C 259.14315 203.421 260.6833 202.55467 260.97208 202.7472 C 261.1646 203.03597 260.49078 205.24993 259.43193 207.75267 C 258.37307 210.35168 257.79552 212.75816 258.0843 213.23946 C 258.37307 213.81701 258.0843 217.95617 257.50674 222.57661 C 255.4853 237.20803 251.34614 242.021 239.79502 243.36863 C 234.78953 243.9462 232.4793 245.29382 232.4793 247.41152 C 232.4793 248.08534 231.61298 249.1442 230.65038 249.72175 C 227.95512 251.06938 226.99253 258.3851 228.91771 261.36913 C 233.34564 268.10728 238.9287 291.9796 239.69876 306.99606 C 240.37258 321.91626 241.33517 324.80404 247.207 329.4245 C 250.2873 331.92723 251.63492 332.31227 256.35163 332.31227 C 261.6459 332.216 267.71023 334.3337 272.0419 337.60653 C 274.6409 339.5317 280.60898 351.6604 280.60898 354.9332 C 280.60898 358.39855 281.2828 359.4574 283.97806 360.99755 C 286.28828 362.2489 288.98354 366.7731 288.02095 367.7357 C 287.6359 368.12074 283.68928 367.92822 279.1651 367.44693 C 271.46434 366.48433 270.50175 366.0993 262.60848 360.70877 C 253.27133 354.54817 251.73118 352.3342 249.70973 342.612 C 248.26584 335.2963 246.2444 331.83097 243.26036 331.0609 C 239.6025 330.19456 237.77357 332.88982 235.5596 342.1307 C 232.09427 356.3771 229.59153 362.0564 224.10475 367.92822 C 221.31323 370.816 219.003 373.60752 219.003 374.0888 C 219.003 374.47386 218.32919 374.8589 217.5591 374.8589 C 216.78904 374.8589 216.11522 375.24393 216.11522 375.8215 C 216.11522 376.3028 214.67133 377.36164 213.03492 378.1317 C 211.30225 378.9018 207.6444 380.82697 204.94914 382.36712 C 202.25388 384.00353 198.59602 385.5437 196.7671 385.9287 C 194.93817 386.31376 193.01298 386.98757 192.43542 387.46887 C 191.0878 388.5277 173.18355 387.8539 164.809 386.41 C 160.09228 385.5437 157.01198 384.2923 153.06535 381.5008 C 150.08131 379.47934 147.48231 377.74668 147.19353 377.74668 C 146.42346 377.74668 134.29478 365.8105 134.29478 365.04044 C 134.29478 364.6554 132.94715 362.44144 131.31074 360.03496 C 129.77059 357.62847 128.13418 353.9706 127.8454 352.04543 C 127.46037 350.024 126.40151 346.9437 125.43892 345.11476 C 124.47633 343.3821 123.22495 339.72423 122.6474 337.02897 C 121.20351 329.03945 118.79703 327.59556 115.13917 332.5048 C 113.59902 334.71875 112.9252 337.2215 112.54017 342.9008 C 112.15513 348.00254 111.48131 351.08284 110.22994 352.8155 C 109.17109 354.2594 108.11224 356.47336 107.82346 357.821 C 107.34216 359.55366 106.57209 360.22747 104.74316 360.1312 C 103.39553 360.1312 101.85538 360.9013 101.37408 361.76762 C 100.89279 362.7302 99.25638 363.30777 97.42745 363.30777 C 95.69478 363.30777 93.86586 363.6928 93.38456 364.1741 C 92.807 364.75166 90.59304 365.4255 88.37907 365.8105 C 84.81748 366.38807 84.23992 366.19555 84.23992 364.75166 C 84.23992 363.2115 86.06885 358.39855 88.18655 354.4519 C 88.66785 353.4893 89.05289 350.8903 89.05289 348.67635 C 89.05289 340.4943 96.46486 333.94867 105.22446 334.23745 C 107.82346 334.3337 109.17109 333.6599 111.77009 330.7721 C 117.83443 324.32274 119.37458 319.8948 120.72221 305.7447 C 122.06984 290.3432 125.15014 278.022 130.15563 267.04843 C 133.42845 259.82898 134.006 257.22998 133.42845 252.03197 C 133.33219 250.49182 130.15563 249.72175 122.35862 249.1442 C 118.31573 248.8554 114.94665 248.08534 113.50276 247.0265 C 109.55613 244.1387 105.6095 234.32025 104.93568 225.9457 C 103.78057 211.79557 103.68431 210.35168 104.1656 209.87038 C 104.35812 209.67786 106.37957 210.64045 108.59353 212.1806 C 110.8075 213.6245 114.56161 215.83846 116.9681 216.99357 C 124.28381 220.65143 132.17707 233.16514 130.82944 238.84444 C 130.4444 240.0958 130.73318 241.73222 131.407 242.5023 C 131.98456 243.27237 132.27333 244.33123 131.98456 244.81252 C 131.407 245.67886 135.93119 250.68434 137.37508 250.68434 C 137.76012 250.68434 139.204 249.04793 140.45538 247.0265 C 145.26834 239.9033 154.70176 229.6998 162.49877 223.25043 C 164.42395 221.61402 166.06036 219.88135 166.06036 219.3038 C 166.06036 218.62998 167.31173 217.95617 168.85188 217.76365 C 170.87333 217.47487 172.41348 218.05242 174.7237 220.17013 C 177.51522 222.67287 177.70774 223.15417 176.74515 225.56065 C 176.07133 227.00454 174.43493 228.83347 172.99104 229.6998 C 167.8893 232.7801 154.1242 247.7003 148.54116 256.26738 C 143.2469 264.44943 139.204 274.36414 137.18256 283.8938 C 136.70126 286.01152 135.64241 290.15067 134.77608 293.03845 C 133.71722 296.79257 133.33219 301.99057 133.42845 310.84643 C 133.5247 322.20503 133.81348 324.32274 136.605 332.9861 C 139.97408 343.28583 142.47682 348.7726 144.59453 350.31276 C 145.26834 350.79406 146.61598 352.8155 147.57857 354.54817 C 149.4075 357.91725 163.46136 367.83196 167.50425 368.60204 C 168.5631 368.79456 171.83592 369.46837 174.7237 370.04593 C 178.86286 370.91226 180.98056 370.91226 184.34964 370.04593 C 186.75612 369.3721 189.74016 368.6983 191.0878 368.5058 C 195.41946 367.7357 196.7671 367.0619 202.35014 363.30777 C 211.206 357.3397 213.3237 354.54817 221.89078 337.31775 C 224.87482 331.34967 227.66634 317.00703 227.66634 307.66987 C 227.66634 290.92075 221.02445 269.9362 210.14714 252.2245 C 205.5267 244.81252 193.01298 231.43247 190.70275 231.43247 C 189.83642 231.43247 189.1626 231.04744 189.1626 230.46988 C 189.1626 229.98858 186.85238 227.19706 184.15712 224.40554 C 181.3656 221.51776 177.41897 217.08983 175.30126 214.68335 C 168.5631 206.5013 160.18854 186.47936 157.01198 170.78909 C 156.0494 166.2649 154.41298 164.1472 151.0439 163.1846 C 147.00101 162.02949 143.2469 163.47338 139.6853 167.51627 C 136.99004 170.5003 126.11274 172.71427 119.95214 171.55916 C 115.42795 170.69283 101.37408 164.05093 100.98905 162.60704 C 100.79653 162.02949 102.5292 160.48934 104.74316 158.94919 C 106.95713 157.5053 110.22994 155.29133 112.05887 153.9437 C 117.54565 149.90081 125.63144 150.57462 140.07034 156.0614 C 140.84041 156.35019 142.38056 156.83148 143.43942 157.024 C 144.49827 157.21652 145.65338 157.9866 146.13468 158.75667 C 146.61598 159.623 148.34864 160.20056 150.17757 160.20056 C 152.9691 160.20056 153.93169 159.623 155.85687 156.5427 C 157.2045 154.61752 158.74465 150.76714 159.3222 148.16814 C 160.2848 143.64395 162.4025 137.29084 165.29029 129.39757 C 167.31173 123.91079 170.87333 118.80904 172.70226 118.80904 C 173.66485 118.80904 174.91622 119.8679 175.49378 121.11927 Z" fill="#FFFFFF"/>
        </g>
        <g id="Graphic_695">
          <path d="M 82.31473 103.31129 C 81.54466 103.69632 78.3681 105.23647 75.2878 106.77662 C 71.43743 108.60555 68.838426 110.72326 66.81698 113.61104 C 65.27683 115.825 64.02546 118.03897 64.02546 118.424 C 64.02546 118.80904 63.4479 119.8679 62.67783 120.63797 C 61.13768 122.4669 59.88631 129.39757 61.23394 129.39757 C 61.715234 129.39757 62.10027 128.82001 62.10027 128.1462 C 62.10027 127.37612 62.87035 126.12475 63.83294 125.25842 C 64.79553 124.39208 66.62446 121.60056 67.87583 119.19408 C 70.474835 113.89981 75.19154 109.27937 78.07932 109.18311 C 81.54466 109.18311 88.09029 105.42899 87.51274 103.88884 C 86.83892 102.34869 84.62496 102.05992 82.31473 103.31129 Z" fill="black"/>
        </g>
        <g id="Graphic_694">
          <path d="M 221.89078 159.43048 C 221.89078 161.7407 224.201 162.222 235.94465 162.02949 C 241.91273 162.02949 247.207 162.222 247.6883 162.51078 C 249.13218 163.37712 251.73118 162.12575 251.73118 160.68186 C 251.73118 159.71926 249.61347 159.43048 243.35662 159.43048 C 238.6399 159.43048 231.998 159.04545 228.43642 158.6604 C 222.85338 158.08285 221.89078 158.17911 221.89078 159.43048 Z" fill="black"/>
        </g>
        <g id="Graphic_693">
          <path d="M 273.4858 101.3861 C 272.7157 102.63747 275.6035 104.85144 281.57157 107.5467 C 287.1546 110.1457 297.3581 119.77163 299.86085 124.87338 C 300.63092 126.41353 301.97856 128.04994 302.94115 128.53123 C 304.38504 129.30131 304.6738 129.10879 304.6738 126.99109 C 304.6738 123.91079 300.53467 117.55767 295.7217 113.12974 C 290.90873 108.79807 281.09028 102.44495 279.1651 102.44495 C 278.29876 102.44495 276.7586 101.96366 275.796 101.48236 C 274.83342 100.9048 273.77457 100.9048 273.4858 101.3861 Z" fill="black"/>
        </g>
        <g id="Graphic_692">
          <path d="M 118.02695 161.16315 C 109.94117 161.83697 109.45987 163.47338 117.25688 163.76215 C 121.39603 163.95467 123.60999 164.53223 124.38007 165.59108 C 125.34266 166.93871 125.7277 166.93871 127.8454 165.49482 C 129.09677 164.72475 132.27333 163.95467 134.67982 163.85841 C 137.66386 163.85841 139.97408 163.1846 141.32171 162.02949 C 143.43942 160.20056 143.34316 160.20056 133.81348 160.39308 C 128.51922 160.5856 121.39603 160.87437 118.02695 161.16315 Z" fill="black"/>
        </g>
        <g id="Graphic_691">
          <path d="M 108.01598 216.60853 C 107.7272 216.8973 110.3262 222.76913 113.79154 229.60355 C 119.75962 241.44344 123.99503 246.83397 127.17159 246.83397 C 129.2893 246.83397 128.71174 243.27237 126.209 240.3846 C 124.86136 238.84444 122.74366 236.43796 121.39603 234.8978 C 120.0484 233.35766 118.89328 231.3362 118.89328 230.37362 C 118.89328 229.41103 118.41199 228.35217 117.93069 228.0634 C 117.35313 227.67836 115.42795 225.17562 113.69528 222.28784 C 110.3262 216.99357 108.97857 215.7422 108.01598 216.60853 Z" fill="black"/>
        </g>
        <g id="Graphic_690">
          <path d="M 249.70973 219.59257 C 247.3995 222.3841 243.06784 229.41103 243.06784 230.37362 C 243.06784 230.85492 241.0464 233.45392 238.6399 236.14918 C 234.4045 240.76963 234.30824 241.0584 236.61846 241.0584 C 239.89128 241.0584 246.14814 233.93522 248.55462 227.48584 C 252.21248 217.66739 252.405 216.31976 249.70973 219.59257 Z" fill="black"/>
        </g>
        <g id="Graphic_689">
          <path d="M 251.73118 336.2589 C 251.73118 337.31775 252.69377 338.95416 253.94514 339.91675 C 255.1965 340.87935 260.58704 346.55865 266.07382 352.43047 C 271.94564 358.87984 276.7586 363.30777 277.81746 363.30777 C 280.22394 363.30777 280.1277 362.7302 277.14365 359.6499 C 275.796 358.20603 273.9671 355.8958 273.10075 354.35565 C 272.23442 352.91176 270.98305 351.75665 270.30923 351.75665 C 269.63542 351.75665 269.05786 351.3716 269.05786 350.98658 C 269.05786 350.5053 267.13267 348.00254 264.7262 345.40354 C 262.3197 342.80453 259.0469 339.24294 257.41048 337.51027 C 254.23392 334.04493 251.73118 333.46738 251.73118 336.2589 Z" fill="black"/>
        </g>
        <g id="Graphic_688">
          <path d="M 105.80201 339.91675 C 104.1656 341.9382 101.47034 346.07735 99.73768 349.0614 C 98.00501 352.1417 96.17608 354.83695 95.69478 355.12573 C 95.21349 355.51077 95.02097 356.1846 95.406 356.76214 C 96.07982 357.72473 101.5666 353.00802 101.5666 351.3716 C 101.5666 350.8903 102.24042 349.83147 103.01049 348.96513 C 103.87683 348.0988 105.89827 345.30728 107.53468 342.80453 C 111.2888 336.9327 109.94117 334.71875 105.80201 339.91675 Z" fill="black"/>
        </g>
      </g>
    </g>
  </g>
</svg>
