<?xml version="1.0" encoding="UTF-8" standalone="no"?>
<!DOCTYPE svg PUBLIC "-//W3C//DTD SVG 1.1//EN" "http://www.w3.org/Graphics/SVG/1.1/DTD/svg11.dtd">
<svg xmlns:xl="http://www.w3.org/1999/xlink" xmlns="http://www.w3.org/2000/svg" xmlns:dc="http://purl.org/dc/elements/1.1/" version="1.1" viewBox="67.5 63 157.5 351" width="157.5" height="351">
  <defs>
    <clipPath id="artboard_clip_path">
      <path d="M 67.5 63 L 225 63 L 225 360 L 203.1923 414 L 67.5 414 Z"/>
    </clipPath>
    <clipPath id="outer_stroke_clip_path">
      <path d="M 67.5 63 L 225 63 L 225 414 L 67.5 414 Z M 146.25 65.25 L 72.28253 238.5 L 146.25 411.75 L 220.21747 238.5 Z"/>
    </clipPath>
  </defs>
  <g id="Lozenge_(5)" stroke-opacity="1" stroke="none" stroke-dasharray="none" fill="none" fill-opacity="1">
    <title>Lozenge (5)</title>
    <g id="Lozenge_(5)_Art" clip-path="url(#artboard_clip_path)">
      <title>Art</title>
      <g id="Group_70">
        <g id="Graphic_76">
          <path d="M 146.25 65.25 L 220.21747 238.5 L 146.25 411.75 L 72.28253 238.5 Z" fill="#FFFFFF"/>
          <path d="M 146.25 65.25 L 220.21747 238.5 L 146.25 411.75 L 72.28253 238.5 Z" stroke="black" stroke-linecap="round" stroke-linejoin="round" stroke-width="3" clip-path="url(#outer_stroke_clip_path)"/>
        </g>
        <g id="Graphic_75">
          <path d="M 146.67756 368.8461 C 146.67756 368.8461 156.0947 314.2433 171.56867 279.68743 C 187.04264 245.13158 198.41203 238.5 198.41203 238.5 L 146.67756 238.5 Z" fill="#FFFFFF"/>
        </g>
        <g id="Graphic_74">
          <path d="M 186.44041 159.63856 L 146.67756 66.27504 L 146.67756 238.5 L 155.65627 238.9086 C 155.65627 238.9086 155.96512 209.91739 166.3452 187.83255 C 171.96298 175.88009 186.44041 159.63856 186.44041 159.63856 Z" fill="#FFFFFF"/>
        </g>
        <g id="Graphic_73">
          <path d="M 72.45413 239.0176 L 108.44914 323.32677 C 106.73676 302.79253 110.02116 276.79403 112.04539 270.37146 C 116.10735 257.48353 142.1495 238.5 142.1495 238.5 L 72.28253 238.5 Z" fill="#FFFFFF"/>
        </g>
        <g id="Line_72">
          <line x1="146.25" y1="72.204515" x2="146.25" y2="404.7955" stroke="black" stroke-linecap="round" stroke-linejoin="round" stroke-width=".75"/>
        </g>
        <g id="Line_71">
          <line x1="79.37594" y1="238.5" x2="213.12406" y2="238.5" stroke="black" stroke-linecap="round" stroke-linejoin="round" stroke-width=".75"/>
        </g>
      </g>
    </g>
  </g>
</svg>
