<?xml version="1.0" encoding="UTF-8" standalone="no"?>
<!DOCTYPE svg PUBLIC "-//W3C//DTD SVG 1.1//EN" "http://www.w3.org/Graphics/SVG/1.1/DTD/svg11.dtd">
<svg xmlns:xl="http://www.w3.org/1999/xlink" xmlns="http://www.w3.org/2000/svg" xmlns:dc="http://purl.org/dc/elements/1.1/" version="1.1" viewBox="67.5 63 90 351" width="90" height="351">
  <defs>
    <clipPath id="artboard_clip_path">
      <path d="M 67.5 63 L 157.5 63 L 157.5 414 L 67.5 414 Z"/>
    </clipPath>
  </defs>
  <g id="Lozenge_(3)" stroke-opacity="1" stroke="none" stroke-dasharray="none" fill="none" fill-opacity="1">
    <title>Lozenge (3)</title>
    <g id="Lozenge_(3)_Art" clip-path="url(#artboard_clip_path)">
      <title>Art</title>
      <g id="Graphic_766">
        <path d="M 112.5 411.1875 C 108.5149 411.1875 72.64904 278.35096 72.64904 238.5 C 72.64904 198.64904 108.5149 65.812504 112.5 65.812504 C 116.4851 65.812504 152.35096 198.64904 152.35096 238.5 C 152.35096 278.35096 116.4851 411.1875 112.5 411.1875 Z" fill="#FFFFFF"/>
        <path d="M 112.5 411.1875 C 108.5149 411.1875 72.64904 278.35096 72.64904 238.5 C 72.64904 198.64904 108.5149 65.812504 112.5 65.812504 C 116.4851 65.812504 152.35096 198.64904 152.35096 238.5 C 152.35096 278.35096 116.4851 411.1875 112.5 411.1875 Z" stroke="black" stroke-linecap="round" stroke-linejoin="round" stroke-width="2"/>
      </g>
    </g>
  </g>
</svg>
