<?xml version="1.0" encoding="UTF-8" standalone="no"?>
<!DOCTYPE svg PUBLIC "-//W3C//DTD SVG 1.1//EN" "http://www.w3.org/Graphics/SVG/1.1/DTD/svg11.dtd">
<svg xmlns:xl="http://www.w3.org/1999/xlink" xmlns="http://www.w3.org/2000/svg" xmlns:dc="http://purl.org/dc/elements/1.1/" version="1.1" viewBox="35.75 68.798245 293 291.20176" width="293" height="291.20176">
  <defs>
    <clipPath id="artboard_clip_path">
      <path d="M 35.75 68.798245 L 328.75 68.798245 L 328.75 360 L 35.75 360 Z"/>
    </clipPath>
  </defs>
  <g id="Mullet_of_8_Points_Voided_and_Interlaced_(2)" stroke-opacity="1" stroke="none" stroke-dasharray="none" fill="none" fill-opacity="1">
    <title>Mullet of 8 Points Voided and Interlaced (2)</title>
    <g id="Mullet_of_8_Points_Voided_and_Interlaced_(2)_Layer_2" clip-path="url(#artboard_clip_path)">
      <title>Layer 2</title>
      <g id="Group_188">
        <g id="Graphic_196">
          <path d="M 157.66762 263.5943 L 199.83296 281.05977 L 204.9061 268.8121 L 150.49311 246.27352 Z M 110.63372 184.68601 L 38.89993 214.39912 L 140.34683 256.4198 L 133.17232 239.099 L 73.54152 214.39912 L 115.70686 196.93367 Z" fill="#FFFFFF"/>
          <path d="M 157.66762 263.5943 L 199.83296 281.05977 L 204.9061 268.8121 L 150.49311 246.27352 Z M 110.63372 184.68601 L 38.89993 214.39912 L 140.34683 256.4198 L 133.17232 239.099 L 73.54152 214.39912 L 115.70686 196.93367 Z" stroke="black" stroke-linecap="round" stroke-linejoin="round" stroke-width="2"/>
        </g>
        <g id="Graphic_195">
          <path d="M 130.08138 231.803 L 147.54684 273.96835 L 159.79449 268.8952 L 137.25589 214.4822 Z M 152.61998 142.74842 L 80.88619 113.03532 L 122.90687 214.4822 L 130.08138 197.16142 L 105.3815 137.53062 L 147.54684 154.99608 Z" fill="#FFFFFF"/>
          <path d="M 130.08138 231.803 L 147.54684 273.96835 L 159.79449 268.8952 L 137.25589 214.4822 Z M 152.61998 142.74842 L 80.88619 113.03532 L 122.90687 214.4822 L 130.08138 197.16142 L 105.3815 137.53062 L 147.54684 154.99608 Z" stroke="black" stroke-linecap="round" stroke-linejoin="round" stroke-width="2"/>
        </g>
        <g id="Graphic_194">
          <path d="M 133.05481 189.81674 L 115.58936 231.98208 L 127.837 237.05523 L 150.3756 182.64223 Z M 211.9631 142.78284 L 182.25 71.04905 L 140.22932 172.49595 L 157.55011 165.32144 L 182.25 105.69064 L 199.71546 147.85598 Z" fill="#FFFFFF"/>
          <path d="M 133.05481 189.81674 L 115.58936 231.98208 L 127.837 237.05523 L 150.3756 182.64223 Z M 211.9631 142.78284 L 182.25 71.04905 L 140.22932 172.49595 L 157.55011 165.32144 L 182.25 105.69064 L 199.71546 147.85598 Z" stroke="black" stroke-linecap="round" stroke-linejoin="round" stroke-width="2"/>
        </g>
        <g id="Graphic_193">
          <path d="M 164.84612 162.2305 L 122.68077 179.69596 L 127.75392 191.94361 L 182.16691 169.40501 Z M 253.9007 184.7691 L 283.6138 113.03532 L 182.16691 155.056 L 199.4877 162.2305 L 259.1185 137.53062 L 241.65305 179.69596 Z" fill="#FFFFFF"/>
          <path d="M 164.84612 162.2305 L 122.68077 179.69596 L 127.75392 191.94361 L 182.16691 169.40501 Z M 253.9007 184.7691 L 283.6138 113.03532 L 182.16691 155.056 L 199.4877 162.2305 L 259.1185 137.53062 L 241.65305 179.69596 Z" stroke="black" stroke-linecap="round" stroke-linejoin="round" stroke-width="2"/>
        </g>
        <g id="Graphic_192">
          <path d="M 206.83238 165.20393 L 164.66704 147.73848 L 159.5939 159.98613 L 214.0069 182.52473 Z M 253.86628 244.11223 L 325.60007 214.39912 L 224.15317 172.37844 L 231.32768 189.69924 L 290.95848 214.39912 L 248.79314 231.86458 Z" fill="#FFFFFF"/>
          <path d="M 206.83238 165.20393 L 164.66704 147.73848 L 159.5939 159.98613 L 214.0069 182.52473 Z M 253.86628 244.11223 L 325.60007 214.39912 L 224.15317 172.37844 L 231.32768 189.69924 L 290.95848 214.39912 L 248.79314 231.86458 Z" stroke="black" stroke-linecap="round" stroke-linejoin="round" stroke-width="2"/>
        </g>
        <g id="Graphic_191">
          <path d="M 234.41862 196.99524 L 216.95316 154.8299 L 204.7055 159.90304 L 227.2441 214.31603 Z M 211.88002 286.04982 L 283.6138 315.76293 L 241.59313 214.31603 L 234.41862 231.63683 L 259.1185 291.26763 L 216.95316 273.80217 Z" fill="#FFFFFF"/>
          <path d="M 234.41862 196.99524 L 216.95316 154.8299 L 204.7055 159.90304 L 227.2441 214.31603 Z M 211.88002 286.04982 L 283.6138 315.76293 L 241.59313 214.31603 L 234.41862 231.63683 L 259.1185 291.26763 L 216.95316 273.80217 Z" stroke="black" stroke-linecap="round" stroke-linejoin="round" stroke-width="2"/>
        </g>
        <g id="Graphic_190">
          <path d="M 231.4452 238.9815 L 248.91064 196.81616 L 236.663 191.74302 L 214.1244 246.156 Z M 152.5369 286.0154 L 182.25 357.7492 L 224.27068 256.3023 L 206.94989 263.4768 L 182.25 323.1076 L 164.78454 280.94226 Z" fill="#FFFFFF"/>
          <path d="M 231.4452 238.9815 L 248.91064 196.81616 L 236.663 191.74302 L 214.1244 246.156 Z M 152.5369 286.0154 L 182.25 357.7492 L 224.27068 256.3023 L 206.94989 263.4768 L 182.25 323.1076 L 164.78454 280.94226 Z" stroke="black" stroke-linecap="round" stroke-linejoin="round" stroke-width="2"/>
        </g>
        <g id="Graphic_189">
          <path d="M 199.65388 266.56774 L 241.81923 249.10228 L 236.74608 236.85463 L 182.33309 259.39323 Z M 110.5993 244.02914 L 80.88619 315.76293 L 182.33309 273.74225 L 165.0123 266.56774 L 105.3815 291.26763 L 122.84695 249.10228 Z" fill="#FFFFFF"/>
          <path d="M 199.65388 266.56774 L 241.81923 249.10228 L 236.74608 236.85463 L 182.33309 259.39323 Z M 110.5993 244.02914 L 80.88619 315.76293 L 182.33309 273.74225 L 165.0123 266.56774 L 105.3815 291.26763 L 122.84695 249.10228 Z" stroke="black" stroke-linecap="round" stroke-linejoin="round" stroke-width="2"/>
        </g>
      </g>
    </g>
  </g>
</svg>
