<?xml version="1.0" encoding="UTF-8" standalone="no"?>
<!DOCTYPE svg PUBLIC "-//W3C//DTD SVG 1.1//EN" "http://www.w3.org/Graphics/SVG/1.1/DTD/svg11.dtd">
<svg xmlns="http://www.w3.org/2000/svg" xmlns:xl="http://www.w3.org/1999/xlink" version="1.1" xmlns:dc="http://purl.org/dc/elements/1.1/" viewBox="36 90 292.5 297" width="292.5" height="297">
  <defs>
    <clipPath id="artboard_clip_path">
      <path d="M 36 90 L 328.5 90 L 328.5 341.3077 L 216 387 L 36 387 Z"/>
    </clipPath>
  </defs>
  <g id="Otters,_Five,_Courant_In_Annulo" stroke-opacity="1" fill="none" fill-opacity="1" stroke-dasharray="none" stroke="none">
    <title>Otters, Five, Courant In Annulo</title>
    <g id="Otters,_Five,_Courant_In_Annulo_Art" clip-path="url(#artboard_clip_path)">
      <title>Art</title>
      <g id="Group_53">
        <g id="Group_94">
          <g id="Graphic_103">
            <path d="M 172.78833 105.50994 C 160.52403 106.9474 149.8015 109.63205 148.96376 109.81373 L 147.38262 110.21962 L 146.01865 108.04002 C 145.2633 106.837 143.61578 104.74407 142.37304 103.34127 C 141.13029 101.93846 139.69746 100.16746 139.17847 99.35725 C 138.65947 98.54703 137.97703 97.70928 137.6777 97.49075 C 136.73339 96.81057 135.00934 96.36877 134.2296 96.60716 C 133.83973 96.72636 132.88662 96.39767 132.1491 95.8868 C 131.01968 95.10819 130.5648 95.01472 129.46608 95.35064 C 128.76806 95.6028 127.73436 96.15136 127.20768 96.58368 C 126.10512 97.54085 125.24592 99.54753 125.52765 100.46903 C 125.7552 101.21333 122.20499 104.87588 122.31893 104.94772 C 122.09838 104.86013 120.6112 103.60988 119.59387 103.16486 C 117.30468 102.09507 117.53433 101.95849 117.37292 102.31788 C 117.27449 102.50299 117.43207 102.76486 117.68513 102.95878 C 118.62944 103.63897 121.45268 104.28932 121.9037 105.72867 L 120.67449 107.41248 C 120.67449 107.41248 120.65195 107.4018 119.251 106.32168 C 117.70272 105.17164 117.59189 104.8088 116.26562 104.40041 C 114.45195 103.79224 114.6391 104.2776 116.75414 105.49123 C 118.303 106.37414 117.67042 105.88355 118.71386 106.7039 C 120.4216 108.12308 119.99893 108.05501 119.99893 108.05501 C 119.99893 108.05501 118.09079 109.98999 117.90477 110.39566 C 117.3772 111.33206 118.34452 114.36929 119.28386 114.7797 C 119.6787 114.93028 120.77268 115.71973 121.72488 116.55252 C 123.60763 118.14721 125.50595 118.65199 128.8879 118.43189 C 129.9453 118.34114 131.01355 118.28583 131.28332 118.28086 C 131.63481 118.28967 132.0012 119.10778 132.67505 121.69216 C 133.16764 123.55685 133.54893 125.18427 133.4751 125.3231 C 133.39045 125.4265 131.99532 125.42672 130.38257 125.2222 C 127.2713 124.93323 123.26809 125.14949 121.35419 125.73463 C 120.71622 125.92967 119.45316 126.74214 118.56619 127.51714 C 116.20553 129.55655 115.63483 131.74632 117.27128 132.40867 C 117.67695 132.59469 117.95959 133.01209 117.93701 133.4453 C 117.93905 133.83224 118.33298 134.48691 118.75738 134.86098 C 119.42402 135.39352 119.91435 135.47615 120.97762 135.15107 C 122.0409 134.826 122.43867 134.8594 122.75382 135.38314 C 123.05813 135.87144 123.46673 135.94029 124.42368 135.64772 C 125.41607 135.34431 125.76554 134.96619 126.23103 133.69996 C 126.75951 132.25946 126.9505 132.12356 128.30522 131.8644 C 131.8269 131.21402 134.7973 131.04224 136.33624 131.3856 C 137.25684 131.60797 138.34382 131.74071 138.75536 131.6924 C 139.17774 131.67953 139.58341 131.86555 139.65926 132.11365 C 139.86514 132.78706 138.0754 134.03184 135.51767 135.04635 C 132.44996 136.29428 130.19472 138.80528 129.6694 141.52375 C 129.50415 142.5044 130.2182 143.95259 130.93201 144.00564 C 131.24806 144.02528 131.59075 144.38557 131.73161 144.84633 C 132.05669 145.9096 133.05608 146.2629 134.00806 145.70057 C 134.5318 145.38542 135.02506 145.35088 135.41696 145.61862 C 135.79803 145.85092 136.29919 145.96899 136.58273 145.8823 C 137.43335 145.62224 139.23168 142.63084 139.51793 141.03186 C 139.71072 139.88776 140.07688 139.31075 140.98259 138.7238 C 142.66307 137.6287 148.54541 134.93891 151.12188 134.11245 C 154.5027 133.00132 155.26664 132.45771 155.60414 131.15311 C 155.85404 130.06907 156.03419 129.89772 157.10243 129.84242 C 157.97393 129.76262 170.85386 125.53366 176.9376 125.09896 C 182.19693 124.72316 192.41017 124.10418 195.84522 124.33808 L 197.5353 124.69133 L 198.39646 126.31092 L 198.39646 126.31092 L 198.39646 126.31092 L 198.39646 126.31092 L 198.39646 126.31092 C 198.39649 126.31097 198.39651 126.31103 198.39654 126.31108 L 198.39654 126.31108 C 198.39649 126.31097 198.39651 126.31103 198.39654 126.31108 L 198.39646 126.31092 C 200.0944 129.5043 200.92426 130.33934 203.90528 131.87082 C 205.47356 132.69909 207.07435 133.42103 207.47505 133.50478 C 210.56646 134.2949 210.78882 135.2155 207.95816 135.47399 C 205.4081 135.702 203.54906 136.83887 203.06144 138.43379 C 202.75804 139.42619 202.8476 139.88309 203.39728 140.90055 C 204.20198 142.33603 204.85378 141.12785 204.85378 141.12785 C 204.85378 141.12785 204.33527 143.92288 206.63664 143.85292 C 207.56017 143.74772 207.4114 143.6005 207.5324 144.21882 C 207.64754 144.60283 208.3023 145.23416 208.58584 145.32085 C 209.36558 145.55924 211.1836 143.95444 211.43282 143.13926 C 211.552 142.7494 212.58263 141.77102 213.38224 140.93033 C 214.55996 139.74018 215.10447 139.48034 216.31154 139.46183 C 217.82385 139.45912 219.29099 138.58998 219.64857 137.42038 C 219.8653 136.71153 218.87475 134.96855 218.22928 134.58362 C 217.39018 134.0832 216.0842 132.72638 215.4652 130.94816 C 215.1119 129.94877 214.8541 129.01733 214.89744 128.87556 C 214.94079 128.73379 219.93526 130.14449 225.97134 131.95115 C 237.50102 135.43737 237.9401 135.64912 235.91176 136.57921 C 234.74102 137.11266 229.9224 138.0423 228.74783 137.95448 C 227.11544 137.84297 224.95412 139.0812 224.56403 140.35714 C 224.36898 140.9951 224.43735 141.09516 224.71912 141.7513 C 225.0009 142.40745 225.7934 142.51575 225.7934 142.51575 C 225.7934 142.51575 225.16226 142.71034 225.20155 143.34244 C 225.30675 144.26598 225.52528 144.56532 226.4468 144.84706 C 227.08475 145.0421 227.91136 145.39655 228.2353 145.2243 C 228.6518 145.00284 229.25831 144.32751 229.15467 145.06939 C 229.08297 145.63449 229.97818 146.35302 230.43103 146.6465 C 231.12115 147.05126 231.52976 146.9824 232.83345 146.14081 C 233.66353 145.58073 234.6679 144.95766 235.00267 144.74997 C 235.3729 144.55312 236.02577 143.93885 236.44724 143.44762 C 236.87955 142.92095 237.81008 142.15904 238.47965 141.74366 C 239.16006 141.29284 240.60463 139.9905 241.6898 138.84956 C 242.77497 137.70862 243.95564 136.63563 244.25792 136.53427 C 244.60647 136.4083 244.9433 135.81368 245.04578 135.22493 C 245.22412 134.38808 245.0627 134.02868 244.26626 133.5914 C 243.74252 133.27626 241.63674 132.05113 239.66188 130.90478 C 235.3548 128.38655 233.3111 126.8316 231.35611 124.60617 C 229.2456 122.25568 229.57743 121.93082 233.1621 122.75548 C 235.94536 123.41263 239.3194 123.78533 242.98986 123.82235 C 245.84017 123.87991 252.45664 122.64731 255.32388 121.50863 C 259.95557 119.66922 262.437 117.63747 264.38407 113.9309 C 265.60335 111.59078 265.81328 110.1435 265.01887 109.3193 C 264.27368 108.58765 263.67996 108.75493 263.3657 109.78276 C 262.62887 112.19286 254.41388 117.00606 249.95172 117.65713 C 244.8358 118.41837 237.27547 117.5409 230.25783 115.39539 C 226.5718 114.26846 225.24372 113.66864 222.56498 112.0358 C 219.50427 110.13116 218.8171 109.70356 211.17233 107.32757 C 206.9899 106.04888 205.7822 105.51158 201.61425 104.98776 C 197.4463 104.46394 184.17607 104.17521 172.78833 105.50994 Z" fill="black"/>
          </g>
          <g id="Graphic_102">
            <path d="M 130.628 96.23558 C 131.91387 96.38502 132.73717 97.68353 132.22043 98.65538 C 131.92515 99.21072 131.68789 99.32202 130.94157 99.16264 C 130.40496 99.0554 129.30918 99.27415 128.33846 99.64844 C 127.41401 100.04734 126.56339 100.3074 126.46 100.22275 C 126.00805 100.01212 126.89186 97.95916 127.81427 97.17333 C 128.97688 96.15905 129.3313 96.05069 130.628 96.23558 Z" fill="#FFFFFF"/>
          </g>
          <g id="Graphic_101">
            <path d="M 196.30621 123.24419 C 200.71488 124.25892 204.97076 125.08811 207.76287 125.33786 C 209.00832 125.44735 208.96904 124.81525 207.66466 123.75762 C 207.00706 123.24652 206.27563 122.5966 206.04627 122.3327 C 204.62089 120.65673 202.0909 118.41054 201.0572 117.86197 C 199.78624 117.20211 199.38463 116.61426 200.04924 116.46865 C 200.56123 116.31514 203.9802 118.9494 206.08487 121.06556 C 207.76918 122.78193 210.84953 125.00262 214.14163 126.78422 C 215.96095 127.80551 218.07667 128.4911 233.12307 132.89748 C 235.57944 133.6097 237.74438 134.38786 237.92452 134.5592 C 238.52795 135.24751 237.72925 136.5923 236.4768 137.13952 C 235.81513 137.40229 233.43732 137.95425 231.22 138.3615 C 227.00596 139.08842 225.58216 139.81579 225.84584 140.98156 C 225.96684 141.59988 226.16572 141.58318 227.4999 141.02219 L 229.00835 140.39822 L 227.84642 141.28315 C 226.524 142.3128 226.24722 142.96453 226.8319 143.8409 C 227.20892 144.38246 227.44324 144.3766 228.551 143.66887 C 229.2314 143.21805 230.26826 142.48865 230.78523 142.06537 C 231.94716 141.18043 232.18826 141.91298 231.12475 142.98304 C 230.2897 143.8129 230.17435 144.82402 230.83784 145.56944 C 231.27195 146.05097 231.50628 146.0451 232.10496 145.60805 C 232.5077 145.30486 233.08968 144.66893 233.36938 144.13436 C 233.63824 143.63522 234.33738 142.99635 234.939 142.67646 C 235.5298 142.39202 236.0822 141.97957 236.13638 141.80236 C 236.2014 141.58971 237.02064 141.06507 237.93537 140.60837 C 238.81466 140.14085 240.25132 138.9911 241.0726 138.07953 C 241.85843 137.15712 242.85398 136.18256 243.2705 135.9611 C 244.28568 135.30258 244.05248 134.41742 242.6043 133.70339 C 239.49235 132.09312 232.5824 127.69396 231.27214 126.402 C 230.4915 125.65952 229.53274 124.35875 229.11443 123.57202 C 228.7424 122.76067 227.822 121.58791 227.1152 120.98426 C 225.51056 119.64105 225.5117 118.75003 227.1292 119.67085 C 229.78038 121.14025 230.96082 121.46239 236.74406 122.06784 C 244.6559 122.9365 251.37666 122.12335 256.06456 119.71979 C 259.54922 117.95601 260.34386 117.38509 261.86427 115.83464 C 262.9386 114.72915 265.0374 110.52637 264.57663 110.3855 C 264.4703 110.353 263.72488 111.01648 262.93612 111.82173 C 260.15918 114.69326 257.00435 116.51912 252.21125 117.99914 C 248.44214 119.17214 243.34112 119.12406 236.59212 117.87455 C 228.99545 116.48214 225.07216 115.24392 223.02844 113.68896 C 219.79352 111.13147 207.52429 107.15621 202.02373 106.41073 C 191.32866 104.99801 175.85553 106.30235 168.18384 107.45666 C 160.51216 108.61098 148.60548 111.43012 147.60543 112.08928 C 146.72433 112.62994 146.67806 112.60533 146.22295 111.11675 C 145.96289 110.26612 145.28135 108.92427 144.69147 108.13573 C 142.98978 105.8656 140.46681 102.68388 140.19208 102.41908 C 140.03157 102.27438 139.56991 102.91934 139.14866 103.82324 C 138.43213 105.28248 138.19194 105.51094 136.77717 105.8272 C 135.90487 106.01638 135.21273 106.03422 135.2186 105.79989 C 135.19986 105.61184 135.69899 105.34298 136.2769 105.20504 C 137.78423 104.93798 138.57075 103.96117 138.76444 102.31298 C 138.9394 100.47673 138.11113 98.90846 136.50809 97.84834 C 134.88044 96.8345 133.71083 97.19208 132.82206 98.97527 C 132.0317 100.57334 131.70053 104.43387 132.2333 105.16237 C 132.5297 105.49806 131.69937 105.65018 131.02596 105.85607 C 130.06901 106.14863 129.92633 106.69607 130.77605 106.94011 C 131.10294 106.9952 131.81814 107.22707 131.62128 107.5973 C 131.42443 107.96753 130.95577 107.95578 130.00266 107.62709 C 128.87527 107.23542 128.53462 107.26205 127.92329 107.79775 C 127.52755 108.15128 127.14852 108.30592 127.09434 108.1287 C 126.9318 107.59706 128.76082 105.72019 130.13812 105.02782 C 131.10094 104.50092 131.31946 104.20158 131.13525 103.59906 C 131.01606 103.20919 131.01493 102.31816 131.1251 101.66439 C 131.43595 100.01913 131.32173 99.89903 129.85278 100.03809 C 127.98312 100.2609 125.43148 102.43621 123.13109 105.81364 C 122.08474 107.33496 120.68103 109.0818 120.02049 109.71006 C 118.66396 110.97741 118.65335 112.3371 120.05435 112.10255 C 120.53678 112.03257 120.98872 112.24319 121.21131 112.71772 C 121.40139 113.08591 121.75003 114.49563 121.75003 114.49563 C 121.75003 114.49563 121.93106 115.7462 122.1767 115.89119 C 122.55247 116.09355 124.03193 115.54198 124.03193 115.54198 C 124.03193 115.54198 125.67369 114.76391 126.7399 114.32167 C 127.46253 114.02323 128.08672 113.90991 128.13006 114.05168 C 128.28177 114.54788 127.45778 115.1486 125.59806 115.91094 L 123.7029 116.68413 L 125.14633 117.09545 C 126.62522 117.49593 127.97407 117.4711 132.7491 116.86384 C 136.58391 116.35027 137.98581 115.61162 139.33331 113.30063 C 140.47312 111.32443 141.18288 110.60361 140.63272 111.97323 C 139.12494 115.53464 137.68375 116.90539 134.90343 117.44538 L 133.21889 117.76661 L 133.5846 120.48395 C 134.19186 125.259 136.74552 129.55523 139.73782 130.84945 C 141.75534 131.7441 142.61386 131.63664 141.90185 130.5754 C 140.76047 128.87032 139.934 126.29384 139.90511 124.17112 C 139.88818 122.97488 140.0426 121.95878 140.21981 121.9046 C 140.68056 121.76374 140.7239 121.9055 140.55188 123.62458 C 140.33855 125.58882 140.98374 127.44561 142.58497 129.51392 C 143.3462 130.48262 143.8977 131.39916 143.82388 131.538 C 143.75006 131.67683 142.71635 132.2254 141.53004 132.78187 C 140.34373 133.33834 138.41019 134.23952 137.18843 134.80683 C 133.2613 136.66632 131.78761 137.93074 130.98259 140.11463 C 130.44327 141.51969 130.53515 143.46813 131.10223 143.29476 C 131.20855 143.26225 131.51467 142.74234 131.742 142.09151 C 132.29215 140.7219 132.75787 140.8508 132.32489 142.22335 C 131.95782 143.30446 132.44453 145.40348 133.11997 145.58453 C 133.32969 145.63668 133.8839 145.04093 134.30222 144.2542 C 134.76681 143.49206 135.14675 142.83333 135.21763 142.81166 C 135.28851 142.78999 135.39394 143.26157 135.47182 143.8966 C 135.5655 144.83685 135.69057 144.9924 136.22221 144.82986 C 137.16832 144.50184 137.9528 143.1381 138.30498 141.24767 C 138.81156 138.34116 141.64088 136.31348 148.81203 133.65598 C 151.46232 132.69068 153.76112 131.71658 153.96588 131.49896 C 154.17063 131.28134 154.5061 129.5898 154.75194 127.73188 C 155.00862 125.90942 155.39036 124.24248 155.55967 124.0357 C 155.95835 123.56501 155.99086 123.67134 155.81883 125.39042 C 155.752 126.18596 155.80732 127.2542 155.95902 127.7504 C 156.21908 128.60102 156.3008 128.61479 159.01611 127.86215 C 160.1124 127.55532 169.61327 124.73962 173.85144 124.29376 C 177.72043 123.88674 191.89755 122.22946 196.30621 123.24419 Z" fill="#FFFFFF"/>
          </g>
          <g id="Graphic_100">
            <path d="M 120.44941 113.64825 C 121.08263 114.57856 120.76861 114.94586 119.88142 114.32573 C 118.9834 113.67015 118.8396 113.32656 119.47756 113.13151 C 119.7611 113.04483 120.21305 113.25545 120.44941 113.64825 Z" fill="#FFFFFF"/>
          </g>
          <g id="Graphic_99">
            <path d="M 126.8058 126.19945 C 128.2226 126.27012 130.2961 126.33378 131.42146 126.33853 C 133.13264 126.35794 133.66631 126.58234 134.84698 127.65532 C 136.35949 129.05317 136.68163 130.2336 135.45582 130.02704 C 134.67405 129.8785 130.59409 130.35076 128.00181 130.87201 C 126.61165 131.142 126.4069 131.35962 125.62738 132.99314 C 124.1205 136.05046 122.72334 135.66375 123.61483 132.36827 C 124.26228 129.9225 123.97084 129.85658 122.68339 132.11046 C 121.22369 134.68828 119.29692 134.85105 119.15967 132.3739 C 119.131 131.64631 119.55722 131.01219 120.69522 130.04417 C 121.61763 129.25835 122.07929 128.61338 121.78785 128.54746 C 121.53185 128.4707 120.63698 129.0931 119.83173 129.88186 C 118.11491 131.4919 117.30763 131.89373 117.08008 131.14944 C 116.88503 130.51147 118.32509 128.24969 119.25246 127.73363 C 119.6561 127.53272 120.28617 127.18507 120.65437 126.99498 C 121.78356 126.37847 124.13564 126.08567 126.8058 126.19945 Z" fill="#FFFFFF"/>
          </g>
          <g id="Graphic_98">
            <path d="M 133.92416 101.31245 C 133.77268 102.21138 134.04854 103.36721 134.47589 103.62412 C 134.65016 103.6871 135.0292 103.53246 135.35405 103.20061 C 135.88366 102.65114 135.86198 102.58026 135.13824 101.98766 C 134.56416 101.50434 134.4312 101.19619 134.65265 100.77968 C 134.8495 100.40945 134.817 100.30313 134.49801 100.40065 C 134.28536 100.46566 134.02845 100.89301 133.92416 101.31245 Z" fill="black"/>
          </g>
          <g id="Graphic_97">
            <path d="M 127.11826 109.98165 C 127.0169 110.28393 127.41467 110.31734 128.33618 110.0356 C 129.08048 109.80805 130.7404 109.53309 132.06759 109.43738 C 134.59394 109.20757 135.1836 108.60098 132.81278 108.70573 C 130.24308 108.79376 127.23633 109.48049 127.11826 109.98165 Z" fill="black"/>
          </g>
          <g id="Graphic_96">
            <path d="M 126.58685 111.53932 C 126.65187 111.75197 127.84224 111.96937 130.21802 112.1344 C 133.08413 112.38205 132.58387 111.75988 129.61437 111.42758 C 127.25236 111.18083 126.47849 111.18489 126.58685 111.53932 Z" fill="black"/>
          </g>
          <g id="Graphic_95">
            <path d="M 213.96894 129.25053 C 214.30057 130.32081 214.54754 131.28769 214.49336 131.4649 C 214.33082 131.99654 215.59276 133.70004 217.19739 135.04324 C 218.61103 136.25055 218.75867 136.52822 218.48777 137.41428 C 218.21687 138.30035 217.92837 138.48343 216.58244 138.57576 C 214.5936 138.74282 211.4663 140.73213 210.61636 142.3713 C 209.96734 143.60682 208.96592 144.34705 208.67063 143.7917 C 208.56137 143.64203 208.66092 142.93612 208.8668 142.26271 C 209.18105 141.23487 209.1535 141.07143 208.57356 141.32044 C 208.21416 141.48185 207.8252 141.86675 207.71684 142.22117 C 207.47845 143.00091 206.354 143.50975 205.75644 143.05577 C 205.19432 142.61263 205.53633 140.3531 206.22757 139.86684 C 206.51608 139.68376 207.2378 139.4781 207.78818 139.45259 C 208.34939 139.39164 208.62706 139.244 208.41146 139.06182 C 207.8139 138.60784 205.1722 139.38916 204.66404 140.16393 C 203.98453 141.11885 203.42739 140.40593 203.84209 139.17628 C 204.3789 137.67392 206.0499 136.5183 208.0821 136.20948 C 209.0519 136.07967 210.2039 135.73428 210.7238 135.42816 C 212.14467 134.58363 211.51664 133.84904 208.22544 132.57154 C 203.40727 130.71092 201.54665 129.44447 199.82012 126.97884 C 198.71372 125.40041 199.13813 125.02634 201.52858 125.44713 C 202.67065 125.64127 205.23538 125.99908 207.18676 126.20812 C 212.97 126.81357 213.27814 126.94654 213.96894 129.25053 Z" fill="#FFFFFF"/>
          </g>
        </g>
        <g id="Group_84">
          <g id="Graphic_93">
            <path d="M 59.18666 204.5854 C 56.763895 216.69366 56.0037 227.72099 55.917614 228.57386 L 55.815044 230.20305 L 53.32062 230.82673 C 51.943065 231.17336 49.44347 232.0935 47.725293 232.84192 C 46.007117 233.59035 43.880025 234.40578 42.94909 234.649 C 42.01815 234.89223 41.01051 235.28238 40.71018 235.49955 C 39.771478 236.18745 38.81855 237.6906 38.80432 238.50583 C 38.797204 238.91345 38.190073 239.71834 37.4763 240.2619 C 36.386786 241.09544 36.157333 241.49918 36.13728 242.64792 C 36.1614 243.3897 36.363687 244.54233 36.61209 245.17682 C 37.181704 246.5212 38.824663 247.95844 39.788127 247.97526 C 40.56631 247.98885 42.95252 252.4971 43.05606 252.41093 C 42.904604 252.59362 41.255977 253.62167 40.51837 254.4517 C 38.79354 256.29825 38.734606 256.03763 39.02653 256.3022 C 39.17217 256.453 39.469914 256.38407 39.73254 256.20332 C 40.671244 255.51542 42.1622 253.03132 43.670473 253.04717 L 44.89202 254.73654 C 44.89202 254.73654 44.8749 254.75468 43.41473 255.75328 C 41.84253 256.8704 41.4632 256.86368 40.66496 257.99885 C 39.526103 259.5358 40.04554 259.5078 41.853354 257.87132 C 43.17167 256.6711 42.509614 257.1211 43.61226 256.38224 C 45.489693 255.19664 45.29435 255.57758 45.29435 255.57758 C 45.29435 255.57758 46.54497 257.99028 46.873305 258.29255 C 47.60085 259.08367 50.788346 259.10224 51.468945 258.3357 C 51.734164 258.00672 52.823027 257.21024 53.909307 256.56198 C 56.00775 255.26417 57.07444 253.61474 57.91019 250.3303 C 58.150635 249.2966 58.42814 248.26356 58.50678 248.00546 C 58.62377 247.6739 59.515066 247.57825 62.18119 247.736 C 64.106825 247.84373 65.77242 247.984 65.88165 248.09712 C 65.953825 248.20958 65.52292 249.5365 64.83003 251.0071 C 63.593775 253.8768 62.56239 257.7509 62.52746 259.75196 C 62.51582 260.41898 62.898215 261.8713 63.36119 262.95433 C 64.571305 265.82967 66.47754 267.0491 67.61316 265.69743 C 67.91544 265.3691 68.39975 265.22928 68.80479 265.38462 C 69.17341 265.50225 69.91777 265.3299 70.40468 265.04187 C 71.11716 264.57242 71.34726 264.13163 71.36667 263.01994 C 71.38607 261.90824 71.54076 261.54027 72.13625 261.4024 C 72.69469 261.26387 72.88643 260.89654 72.9039 259.896 C 72.92201 258.85843 72.67038 258.40923 71.60997 257.57523 C 70.40328 256.62748 70.33305 256.40384 70.50521 255.03535 C 70.97492 251.48505 71.72945 248.60694 72.53157 247.24943 C 73.02753 246.4426 73.48967 245.44984 73.570895 245.0435 C 73.68918 244.63783 73.99145 244.3095 74.25085 244.31403 C 74.95492 244.32632 75.58571 246.41312 75.76019 249.15917 C 75.99907 252.46237 77.69027 255.38317 80.11335 256.72283 C 80.99495 257.18303 82.5929 256.95145 82.86393 256.28896 C 82.98028 255.99445 83.42884 255.77987 83.91057 255.78828 C 85.02226 255.8077 85.6671 254.9664 85.42646 253.88722 C 85.28859 253.29174 85.40816 252.81194 85.7839 252.52196 C 86.12258 252.23133 86.38974 251.79118 86.39491 251.49473 C 86.41044 250.60538 84.12116 247.97068 82.6889 247.20432 C 81.660375 246.66742 81.22475 246.14087 80.94641 245.09812 C 80.4242 243.16148 79.68381 236.73585 79.693965 234.0301 C 79.68195 230.47138 79.40102 229.57685 78.26456 228.85273 C 77.3108 228.28007 77.20351 228.05579 77.48102 227.02274 C 77.67443 226.16923 77.63257 212.61287 79.09912 206.69257 C 80.36694 201.5745 82.93432 191.66987 84.21826 188.47523 L 85.07649 186.97701 L 86.88292 186.6585 L 86.88292 186.6585 L 86.88292 186.6585 L 86.88292 186.6585 L 86.88292 186.6585 C 86.88298 186.65848 86.88304 186.65847 86.8831 186.65846 L 86.8831 186.65846 C 86.88298 186.65848 86.88304 186.65847 86.8831 186.65846 L 86.88292 186.6585 C 90.4447 186.03046 91.49531 185.49926 93.87301 183.1374 C 95.14537 181.90182 96.32665 180.60248 96.53013 180.24726 C 98.23687 177.55132 99.18113 177.62432 98.55224 180.39632 C 97.98108 182.89203 98.48784 185.0114 99.85401 185.968 C 100.70408 186.56323 101.1663 186.61924 102.30382 186.41087 C 103.91771 186.08915 102.97008 185.0959 102.97008 185.0959 C 102.97008 185.0959 105.46808 186.45274 106.1127 184.2424 C 106.29804 183.33155 106.11206 183.42754 106.73751 183.50353 C 107.1383 183.5127 107.94106 183.08508 108.11113 182.8422 C 108.5788 182.1743 107.61435 179.94935 106.91608 179.46042 C 106.58213 179.22659 105.97012 177.94407 105.41767 176.92382 C 104.6497 175.43595 104.57085 174.8378 104.92624 173.68409 C 105.39099 172.24496 105.01777 170.58105 104.0159 169.87954 C 103.40872 169.45439 101.44496 169.85784 100.8794 170.35276 C 100.14418 170.99616 98.4502 171.81893 96.56773 171.85814 C 95.50808 171.88531 94.54256 171.84267 94.42112 171.75764 C 94.29968 171.6726 97.18472 167.3585 100.7682 162.17615 C 107.64666 152.28807 107.98374 151.93591 108.24151 154.1524 C 108.38707 155.43068 107.78218 160.30073 107.3357 161.39068 C 106.7252 162.90871 107.23495 165.34689 108.32789 166.11217 C 108.87436 166.49481 108.99064 166.46072 109.70175 166.3955 C 110.41285 166.33026 110.76075 165.61001 110.76075 165.61001 C 110.76075 165.61001 110.75078 166.2704 111.36409 166.42836 C 112.27493 166.6137 112.62715 166.49837 113.17986 165.70902 C 113.5625 165.16256 114.15504 164.48593 114.09133 164.12461 C 114.00941 163.66006 113.55455 162.87456 114.22809 163.20237 C 114.74338 163.4452 115.70338 162.81584 116.12243 162.47584 C 116.72064 161.94458 116.78142 161.5347 116.38388 160.03474 C 116.10772 159.0722 115.82551 157.92447 115.73144 157.5419 C 115.65863 157.12895 115.27617 156.31822 114.93923 155.76558 C 114.57193 155.19168 114.13486 154.07125 113.94672 153.30609 C 113.72822 152.51967 112.93601 150.74336 112.18625 149.35873 C 111.43649 147.9741 110.78087 146.51965 110.77788 146.20084 C 110.76578 145.83042 110.30434 145.32634 109.77608 145.04693 C 109.0353 144.61872 108.64361 144.66117 107.98162 145.28351 C 107.52006 145.68423 105.70416 147.30836 104.00365 148.83232 C 100.27772 152.15042 98.16733 153.61359 95.4467 154.7852 C 92.55906 156.06609 92.35265 155.6501 94.24467 152.4957 C 95.72973 150.05174 97.12683 146.958 98.29627 143.47863 C 99.2318 140.78562 100.10413 134.11208 99.90721 131.0333 C 99.5891 126.0599 98.4236 123.07208 95.50011 120.0749 C 93.65131 118.19217 92.33973 117.54528 91.31038 118.04611 C 90.38426 118.52874 90.35989 119.1451 91.24031 119.76157 C 93.30475 121.20711 95.34381 130.5074 94.58413 134.95235 C 93.7272 140.05312 90.5564 146.97227 86.34734 152.98344 C 84.13652 156.14082 83.15566 157.21855 80.77496 159.2616 C 78.01773 161.58395 77.39871 162.10536 72.77664 168.64174 C 70.26809 172.22432 69.383896 173.20688 67.59774 177.00898 C 65.81159 180.81107 61.436265 193.34257 59.18666 204.5854 Z" fill="black"/>
          </g>
          <g id="Graphic_92">
            <path d="M 37.337963 241.81633 C 37.87745 240.63958 39.36682 240.25783 40.13142 241.0496 C 40.568336 241.50204 40.600867 241.76208 40.21866 242.42263 C 39.950855 242.89983 39.82028 244.00958 39.876285 245.04845 C 39.96999 246.05092 39.954466 246.94027 39.842003 247.01244 C 39.502027 247.3772 37.82266 245.90223 37.36033 244.78213 C 36.75495 243.363 36.76142 242.99243 37.337963 241.81633 Z" fill="#FFFFFF"/>
          </g>
          <g id="Graphic_91">
            <path d="M 83.320365 187.69876 C 85.64779 183.81944 87.75153 180.0281 88.85186 177.44982 C 89.34086 176.29915 88.72756 176.14118 87.31862 177.0549 C 86.62932 177.52238 85.78518 178.01717 85.46332 178.15375 C 83.42892 178.99147 80.51086 180.7035 79.66971 181.5171 C 78.64939 182.52195 77.96621 182.72225 78.0331 182.04518 C 78.04532 181.5108 81.60717 179.0732 84.27014 177.72548 C 86.42298 176.65398 89.48686 174.41063 92.19858 171.8302 C 93.73208 170.41552 95.03792 168.61521 103.87822 155.66688 C 105.31465 153.55082 106.72372 151.7323 106.94235 151.61393 C 107.78344 151.25273 108.8156 152.4279 108.949 153.78815 C 108.99445 154.49864 108.7846 156.93064 108.48674 159.16527 C 107.87587 163.3977 108.12766 164.97659 109.31785 165.08606 C 109.9433 165.16205 109.98887 164.96774 109.86763 163.5255 L 109.74033 161.89806 L 110.2229 163.27658 C 110.79349 164.85247 111.3278 165.3171 112.34195 165.03183 C 112.97352 164.84063 113.04034 164.61596 112.70957 163.34372 C 112.49108 162.5573 112.11778 161.3458 111.87497 160.72333 C 111.3924 159.34481 112.1636 159.34188 112.85264 160.684 C 113.38384 161.73462 114.30984 162.15678 115.2238 161.75612 C 115.81591 161.49205 115.88273 161.26738 115.65208 160.56294 C 115.48818 160.08623 115.06322 159.33622 114.64124 158.90501 C 114.24962 158.49507 113.85806 157.63273 113.73974 156.9617 C 113.65178 156.31193 113.43023 155.6591 113.27843 155.55281 C 113.09628 155.42527 112.85047 154.484 112.6988 153.47291 C 112.52587 152.49218 111.87635 150.77054 111.26318 149.70777 C 110.62875 148.67536 110.00953 147.42738 109.92762 146.96282 C 109.61505 145.79383 108.70115 145.74208 107.57455 146.89873 C 105.08144 149.36078 98.7623 154.57312 97.12869 155.42 C 96.18131 155.933 94.64794 156.44287 93.77044 156.5976 C 92.88384 156.7007 91.48407 157.21364 90.69154 157.69933 C 88.91822 158.81034 88.07115 158.53393 89.44674 157.28015 C 91.66348 155.21278 92.33464 154.18966 94.69757 148.87657 C 97.96861 141.6204 99.27209 134.9773 98.43481 129.7761 C 97.83417 125.91695 97.53675 124.98478 96.53202 123.05967 C 95.81262 121.6963 92.4641 118.40151 92.18775 118.79619 C 92.12398 118.88726 92.52463 119.80123 93.04673 120.80022 C 94.9196 124.3286 95.6812 127.89325 95.60763 132.9091 C 95.5585 136.85621 93.93647 141.69272 90.66256 147.72527 C 86.9908 154.51987 84.60082 157.8685 82.49043 159.33168 C 79.05846 161.61797 71.48636 172.05828 69.0776 177.05925 C 64.429066 186.79431 60.888104 201.9132 59.61524 209.5661 C 58.34238 217.21902 57.344184 229.4141 57.66204 230.5689 C 57.90397 231.57395 57.86627 231.61036 56.3099 231.5832 C 55.420545 231.56767 53.93376 231.8012 53.00153 232.11853 C 50.316653 233.03542 46.511027 234.4517 46.174285 234.63116 C 45.987065 234.7391 46.4578 235.37747 47.18729 236.05742 C 48.353686 237.1898 48.49674 237.48885 48.36034 238.9321 C 48.270706 239.82016 48.07378 240.48395 47.852735 240.40595 C 47.6681 240.36566 47.566636 239.80787 47.61404 239.21562 C 47.82584 237.69954 47.13988 236.64967 45.63221 235.95614 C 43.939905 235.2223 42.192435 235.52542 40.688835 236.7224 C 39.221643 237.9571 39.2003 239.17996 40.621565 240.57627 C 41.89719 241.82177 45.466436 243.32971 46.32391 243.04814 C 46.734765 242.86997 46.622857 243.70668 46.610567 244.41075 C 46.593103 245.41127 47.06966 245.71613 47.56433 244.9834 C 47.71773 244.68955 48.159267 244.081 48.45054 244.38263 C 48.74182 244.68426 48.58583 245.12635 47.9787 245.93124 C 47.25781 246.88242 47.177874 247.21463 47.498445 247.96158 C 47.712375 248.4472 47.74232 248.85546 47.557036 248.85222 C 47.00119 248.84252 45.781376 246.52304 45.5485 244.9992 C 45.34492 243.92068 45.127754 243.62035 44.4978 243.60935 C 44.090176 243.60223 43.24241 243.32796 42.65468 243.02116 C 41.186006 242.2171 41.03649 242.28863 40.71481 243.72865 C 40.34896 245.57565 41.629306 248.67462 44.13057 251.9061 C 45.25409 253.37135 46.48167 255.24616 46.87506 256.06852 C 47.66119 257.7503 48.95105 258.18055 49.16091 256.77564 C 49.243434 256.2952 49.58341 255.93046 50.103494 255.8654 C 50.512406 255.7984 51.960865 255.90245 51.960865 255.90245 C 51.960865 255.90245 53.20617 256.11673 53.41996 255.92792 C 53.72854 255.63307 53.66115 254.05558 53.66115 254.05558 C 53.66115 254.05558 53.42849 252.25373 53.337374 251.10305 C 53.276843 250.32357 53.361953 249.6949 53.51018 249.6975 C 54.02897 249.70655 54.34566 250.67583 54.49601 252.6801 L 54.64572 254.72145 L 55.48295 253.47576 C 56.32083 252.19302 56.714034 250.9025 57.612066 246.17353 C 58.30865 242.3677 58.03936 240.80617 56.25788 238.81048 C 54.73062 237.11578 54.26441 236.21802 55.39699 237.16448 C 58.31816 239.699 59.17647 241.49324 58.83086 244.30435 L 58.61582 246.0057 L 61.31318 246.4976 C 66.04217 247.39563 70.91725 246.29457 73.07281 243.84865 C 74.54711 242.20634 74.71021 241.35663 73.480885 241.70585 C 71.50655 242.26447 68.80078 242.2543 66.77303 241.62583 C 65.6301 241.27228 64.71146 240.81143 64.71469 240.62614 C 64.7231 240.1444 64.87132 240.147 66.453105 240.84183 C 68.255284 241.6517 70.22057 241.61187 72.68246 240.72816 C 73.83897 240.30353 74.88108 240.06224 74.99031 240.17535 C 75.099535 240.28846 75.30182 241.4411 75.46447 242.7413 C 75.62711 244.0415 75.88669 246.1589 76.04869 247.49617 C 76.60362 251.8057 77.35075 253.598 79.179 255.03847 C 80.34863 255.98558 82.2301 256.5003 82.24045 255.9074 C 82.24239 255.79624 81.84252 255.34444 81.29379 254.92712 C 80.16122 253.98066 80.42773 253.57756 81.5993 254.4135 C 82.51407 255.0967 84.66075 255.28243 85.04166 254.696 C 85.15607 254.51266 84.76074 253.80147 84.14177 253.1605 C 83.56051 252.48315 83.05143 251.91825 83.05272 251.84413 C 83.05402 251.77002 83.5351 251.8155 84.16312 251.93765 C 85.08629 252.1391 85.27287 252.06823 85.28257 251.51238 C 85.26298 250.5112 84.2084 249.3437 82.51932 248.4246 C 79.91161 247.04464 78.85748 243.72722 78.546055 236.08584 C 78.44699 233.26697 78.23093 230.77966 78.08723 230.51768 C 77.94354 230.2557 76.43845 229.41394 74.74744 228.606 C 73.09349 227.7987 71.626104 226.92054 71.48176 226.6956 C 71.15731 226.171 71.26848 226.17294 72.85026 226.86777 C 73.58621 227.17716 74.619265 227.45466 75.13805 227.46372 C 76.02741 227.47924 76.06576 227.40577 76.18903 224.59078 C 76.235985 223.45334 76.49403 213.54737 77.37966 209.37886 C 78.18815 205.57345 80.99294 191.57808 83.320365 187.69876 Z" fill="#FFFFFF"/>
          </g>
          <g id="Graphic_90">
            <path d="M 50.753045 256.87756 C 51.8335 256.5628 52.08578 256.97496 51.22184 257.6271 C 50.320844 258.2786 49.949635 258.30918 49.96128 257.64216 C 49.96645 257.3457 50.30643 256.98097 50.753045 256.87756 Z" fill="#FFFFFF"/>
          </g>
          <g id="Graphic_89">
            <path d="M 64.65418 254.7108 C 65.1592 253.3852 65.86049 251.43284 66.21276 250.36403 C 66.76001 248.7426 67.13834 248.3044 68.52365 247.51308 C 70.32047 246.50655 71.54269 246.56495 70.967436 247.66694 C 70.58458 248.36455 69.77295 252.39076 69.46763 255.01724 C 69.294825 256.4228 69.43852 256.68477 70.75121 257.93092 C 73.19324 260.3088 72.39371 261.5181 69.535 259.65187 C 67.409015 258.28032 67.25626 258.53713 69.00198 260.45805 C 71.00257 262.6429 70.56196 264.52566 68.16364 263.89072 C 67.46281 263.69315 66.991425 263.09183 66.42245 261.7104 C 65.960125 260.5903 65.48939 259.95193 65.33663 260.20874 C 65.18453 260.4285 65.499924 261.4719 66.00125 262.48147 C 67.00196 264.6118 67.13466 265.50373 66.35648 265.49015 C 65.689465 265.4785 63.98338 263.41 63.77916 262.36855 C 63.71281 261.92258 63.57687 261.21592 63.509874 260.807 C 63.27247 259.54256 63.72084 257.21512 64.65418 254.7108 Z" fill="#FFFFFF"/>
          </g>
          <g id="Graphic_88">
            <path d="M 43.184926 240.25034 C 43.99305 240.6722 45.17756 240.767 45.553947 240.43996 C 45.667704 240.29368 45.63776 239.8854 45.422536 239.4739 C 45.063616 238.80043 44.9895 238.79913 44.20226 239.30434 C 43.56519 239.70096 43.231036 239.7322 42.90335 239.39287 C 42.61207 239.09124 42.500903 239.0893 42.49508 239.4228 C 42.4912 239.64515 42.81824 240.02153 43.184926 240.25034 Z" fill="black"/>
          </g>
          <g id="Graphic_87">
            <path d="M 49.32669 249.40206 C 49.582847 249.59187 49.73754 249.2239 49.754357 248.26043 C 49.76794 247.48224 50.019385 245.8186 50.338477 244.5268 C 50.900605 242.05306 50.50592 241.30482 49.872915 243.59197 C 49.162563 246.0631 48.88654 249.1349 49.32669 249.40206 Z" fill="black"/>
          </g>
          <g id="Graphic_86">
            <path d="M 50.6439 250.3888 C 50.86624 250.3927 51.440843 249.32776 52.33195 247.11925 C 53.453155 244.46995 52.70685 244.75347 51.473184 247.47494 C 50.50861 249.6451 50.273334 250.38234 50.6439 250.3888 Z" fill="black"/>
          </g>
          <g id="Graphic_85">
            <path d="M 94.49081 172.75657 C 95.61119 172.77191 96.60706 172.83581 96.75886 172.9421 C 97.21425 173.26097 99.22434 172.5872 100.99766 171.47618 C 102.58271 170.5048 102.89242 170.4502 103.6514 170.98165 C 104.41039 171.5131 104.49536 171.84406 104.16726 173.15264 C 103.71155 175.09576 104.63711 178.68472 105.9334 179.9996 C 106.90789 180.99866 107.30244 182.17981 106.68303 182.28903 C 106.50692 182.3467 105.86632 182.03388 105.28949 181.62997 C 104.40906 181.0135 104.24511 180.98918 104.30271 181.6177 C 104.34516 182.00937 104.59103 182.49824 104.89463 182.71082 C 105.56254 183.1785 105.699 184.40515 105.08258 184.83318 C 104.48742 185.23084 102.44417 184.20734 102.19532 183.39967 C 102.11035 183.0687 102.13777 182.31876 102.28359 181.78744 C 102.39904 181.23486 102.34444 180.92515 102.10455 181.0739 C 101.48814 181.50192 101.41488 184.25578 101.9947 184.97848 C 102.69291 185.91982 101.84272 186.2294 100.8014 185.455 C 99.53845 184.4802 98.95576 182.5339 99.29003 180.50573 C 99.46627 179.54327 99.49376 178.34092 99.36329 177.75187 C 98.99916 176.13957 98.10645 176.50987 95.87444 179.24521 C 92.61599 183.2526 90.83656 184.6308 87.95809 185.51091 C 86.11501 186.0754 85.8904 185.55617 87.02929 183.41274 C 87.56685 182.38657 88.69969 180.05792 89.50151 178.26665 C 91.86444 172.95356 92.08612 172.70159 94.49081 172.75657 Z" fill="#FFFFFF"/>
          </g>
        </g>
        <g id="Group_74">
          <g id="Graphic_83">
            <path d="M 118.07551 343.36158 C 128.84246 349.4074 139.09517 353.53804 139.8797 353.88347 L 141.39745 354.48446 L 141.21979 357.04953 C 141.12377 358.46678 141.22644 361.12837 141.4073 362.99373 C 141.58815 364.8591 141.70636 367.13406 141.65 368.0946 C 141.59365 369.05513 141.65333 370.134 141.76706 370.48675 C 142.13122 371.5921 143.26632 372.96287 144.03726 373.22832 C 144.42273 373.36105 145.00062 374.1872 145.297 375.034 C 145.75307 376.32777 146.06614 376.67075 147.15247 377.0448 C 147.8654 377.2511 149.02412 377.4149 149.70431 377.3747 C 151.15891 377.2484 153.03352 376.13 153.34724 375.2189 C 153.60063 374.483 158.62561 373.6067 158.57565 373.4816 C 158.7026 373.6821 159.17088 375.5677 159.73234 376.5257 C 160.95552 378.73673 160.68945 378.71225 161.03128 378.51637 C 161.21972 378.42446 161.24616 378.12 161.15541 377.81436 C 160.79125 376.70902 158.88947 374.5234 159.37062 373.09386 L 161.35478 372.45414 C 161.35478 372.45414 161.36674 372.47603 161.86526 374.1733 C 162.44186 376.0138 162.31825 376.37247 163.1512 377.4824 C 164.261 379.0405 164.39489 378.5378 163.39714 376.3128 C 162.66304 374.6881 162.88644 375.4568 162.52448 374.1798 C 161.97706 372.0279 162.279 372.3314 162.279 372.3314 C 162.279 372.3314 164.96007 371.88755 165.349 371.6687 C 166.32623 371.22123 167.32888 368.19548 166.81017 367.3113 C 166.57925 366.9574 166.15823 365.6757 165.87738 364.4423 C 165.29154 362.0455 164.05247 360.5213 161.18705 358.71153 C 160.27824 358.1634 159.3815 357.58026 159.16034 357.4257 C 158.88115 357.212 159.06561 356.33476 160.03951 353.84788 C 160.73704 352.0498 161.38515 350.50905 161.52647 350.44012 C 161.65573 350.40623 162.78455 351.2261 163.96907 352.3395 C 166.3163 354.40204 169.68207 356.5801 171.57439 357.2317 C 172.20516 357.4489 173.70456 357.534 174.87766 357.42836 C 177.98621 357.166 179.73503 355.7299 178.80043 354.23215 C 178.58157 353.8432 178.59826 353.3394 178.87116 353.0022 C 179.09695 352.68796 179.16306 351.92677 179.03958 351.3747 C 178.81328 350.552 178.46516 350.19695 177.41388 349.83497 C 176.3626 349.47298 176.06043 349.21215 176.11332 348.6032 C 176.15414 348.0293 175.86404 347.7334 174.91788 347.40763 C 173.93668 347.06977 173.4317 347.17027 172.31084 347.92106 C 171.03659 348.7758 170.8022 348.7735 169.55388 348.1869 C 166.3225 346.64306 163.8184 345.03608 162.77522 343.85373 C 162.16113 343.1327 161.35977 342.3864 160.99843 342.1836 C 160.64916 341.94574 160.4303 341.5568 160.51476 341.3115 C 160.74402 340.6457 162.92362 340.69062 165.58918 341.37327 C 168.80453 342.16682 172.10498 341.46097 174.12785 339.57046 C 174.83796 338.87423 175.1115 337.28292 174.5652 336.82043 C 174.32105 336.61877 174.25559 336.12586 174.41245 335.6703 C 174.77443 334.619 174.17358 333.74577 173.07287 333.64114 C 172.46392 333.58825 172.04456 333.32627 171.88488 332.8793 C 171.71313 332.4674 171.37708 332.0773 171.09674 331.98077 C 170.25571 331.6912 167.04254 333.05424 165.8711 334.1796 C 165.04265 334.99186 164.40725 335.24345 163.32952 335.18594 C 161.3263 335.08414 154.98637 333.80267 152.41617 332.95688 C 149.02793 331.8686 148.09037 331.85936 147.0505 332.71643 C 146.21114 333.44655 145.96468 333.4793 145.06795 332.89613 C 144.31598 332.44843 131.41018 328.2991 126.23283 325.07485 C 121.75705 322.2875 113.13053 316.7851 110.48901 314.5768 L 109.32933 313.2976 L 109.58462 311.48115 L 109.58462 311.48115 L 109.58462 311.48115 L 109.58462 311.48115 L 109.58462 311.48115 C 109.58463 311.4811 109.58463 311.48103 109.58464 311.48097 L 109.58464 311.48097 C 109.58463 311.4811 109.58463 311.48103 109.58464 311.48097 L 109.58462 311.48115 C 110.08797 307.89963 109.90743 306.73628 108.39591 303.7451 C 107.614 302.1532 106.74328 300.6282 106.46833 300.32493 C 104.43174 297.86863 104.79297 296.99314 107.23496 298.44785 C 109.43202 299.76227 111.60425 299.93524 112.93621 298.93153 C 113.76499 298.307 113.96109 297.88472 114.11444 296.7385 C 114.30718 295.10416 113.06971 295.6985 113.06971 295.6985 C 113.06971 295.6985 115.13207 293.74203 113.2291 292.44592 C 112.42011 291.9882 112.45393 292.19473 112.71948 291.62337 C 112.85205 291.24504 112.69343 290.34942 112.51499 290.11263 C 112.02429 289.46145 109.61021 289.69115 108.92943 290.20416 C 108.60384 290.4495 107.19498 290.63524 106.05394 290.84538 C 104.40159 291.11598 103.80834 291.00614 102.82092 290.3116 C 101.59585 289.4249 99.89804 289.2657 98.92127 290.00173 C 98.32929 290.44782 98.10616 292.44014 98.4021 293.13096 C 98.78681 294.029 99.04584 295.89433 98.50142 297.6968 C 98.19981 298.71297 97.86089 299.61806 97.7425 299.70728 C 97.6241 299.7965 94.41267 295.71953 90.59131 290.71 C 83.31275 281.1126 83.08199 280.6832 85.26966 281.123 C 86.53035 281.37957 90.97512 283.45978 91.87375 284.22122 C 93.12883 285.27093 95.6052 285.53957 96.67077 284.7366 C 97.20355 284.33513 97.20706 284.214 97.36477 283.51754 C 97.52247 282.82108 96.94498 282.26764 96.94498 282.26764 C 96.94498 282.26764 97.56996 282.4812 97.90972 281.94672 C 98.36745 281.13773 98.36661 280.7671 97.78669 279.99753 C 97.38521 279.46475 96.92481 278.69212 96.56149 278.64106 C 96.09436 278.5754 95.20674 278.76528 95.72665 278.226 C 96.11681 277.81097 95.81492 276.70348 95.62105 276.19987 C 95.30065 275.46677 94.92961 275.2823 93.38022 275.19688 C 92.37946 275.16208 91.20069 275.0758 90.80777 275.04706 C 90.39254 274.9887 89.5033 275.1019 88.87359 275.25158 C 88.21427 275.42356 87.01362 275.493 86.22777 275.4355 C 85.41232 275.40028 83.47814 275.6048 81.92959 275.89 C 80.38105 276.17518 78.79518 276.34927 78.491055 276.2536 C 78.13502 276.15063 77.51302 276.4337 77.08404 276.84978 C 76.44788 277.422 76.36722 277.8076 76.75453 278.62952 C 76.99301 279.19232 77.976505 281.42123 78.90039 283.50943 C 80.90471 288.07835 81.64412 290.5376 81.91767 293.48712 C 82.24353 296.62925 81.78412 296.697 79.36878 293.92283 C 77.50334 291.75523 74.99275 289.4705 72.04505 287.2831 C 69.77294 285.56117 63.69559 282.6693 60.70665 281.9052 C 55.87836 280.67086 52.67661 280.85603 48.92272 282.71025 C 46.56082 283.88677 45.540294 284.93425 45.698524 286.068 C 45.87135 287.09792 46.450005 287.31157 47.308375 286.66474 C 49.321113 285.14803 58.79632 286.08272 62.78896 288.1788 C 67.37527 290.57 72.97595 295.72374 77.39224 301.58435 C 79.7119 304.66266 80.43378 305.92854 81.64117 308.82406 C 82.99782 312.164 83.30242 312.91384 88.09059 319.32953 C 90.72264 322.8224 91.38388 323.96693 94.44793 326.84058 C 97.51199 329.71422 108.07811 337.74785 118.07551 343.36158 Z" fill="black"/>
          </g>
          <g id="Graphic_82">
            <path d="M 146.7326 375.6459 C 145.78016 374.7692 145.87734 373.23475 146.86663 372.75224 C 147.43194 372.47652 147.6893 372.52594 148.19941 373.09356 C 148.5705 373.49572 149.58559 373.96284 150.59092 374.2306 C 151.57328 374.45127 152.4143 374.74085 152.4482 374.8701 C 152.69003 375.30616 150.7683 376.44755 149.56016 376.54112 C 148.02341 376.67833 147.67298 376.55767 146.7326 375.6459 Z" fill="#FFFFFF"/>
          </g>
          <g id="Graphic_81">
            <path d="M 109.47308 315.1908 C 106.50284 311.7785 103.54715 308.60614 101.43508 306.76293 C 100.49184 305.9423 100.15208 306.47676 100.58569 308.0991 C 100.81729 308.8991 101.02701 309.85484 101.05745 310.20316 C 101.2255 312.39686 101.95201 315.70115 102.46586 316.75254 C 103.10623 318.03344 103.08561 318.74508 102.46235 318.47224 C 101.9579 318.2955 100.74028 314.1547 100.28142 311.2056 C 99.92763 308.827 98.74087 305.21986 97.1247 301.84346 C 96.25314 299.94785 94.94447 298.1496 85.36168 285.74073 C 83.79307 283.7207 82.498985 281.81864 82.45396 281.57413 C 82.37036 280.6626 83.80696 280.0441 85.14186 280.33757 C 85.83162 280.5139 88.07974 281.465 90.11296 282.43882 C 93.94947 284.3277 95.52888 284.57613 96.00079 283.478 C 96.26634 282.90666 96.09562 282.80327 94.68651 282.4729 L 93.09938 282.09107 L 94.55955 282.0581 C 96.23463 282.0024 96.84163 281.63783 96.88371 280.58516 C 96.89704 279.92543 96.70401 279.79244 95.39183 279.71388 C 94.57638 279.67867 93.30881 279.65932 92.64178 279.6979 C 91.18161 279.73086 91.41714 278.9965 92.9065 278.7559 C 94.06984 278.57537 94.75749 277.82516 94.65887 276.8321 C 94.59069 276.1874 94.39767 276.0544 93.65643 276.0561 C 93.15241 276.06465 92.30778 276.23705 91.76728 276.50512 C 91.25639 276.7509 90.31525 276.8568 89.6405 276.76197 C 88.99535 276.64484 88.30602 276.65382 88.15802 276.76534 C 87.98043 276.89917 87.00927 276.84207 86.0008 276.67388 C 85.01463 276.53528 83.176545 276.621 81.97631 276.87574 C 80.79838 277.1601 79.42013 277.36335 78.95299 277.2977 C 77.74463 277.23373 77.413 278.0869 78.1649 279.5158 C 79.73604 282.6477 82.74055 290.26826 83.04117 292.08362 C 83.2363 293.14315 83.24738 294.75904 83.12337 295.6414 C 82.94746 296.51647 83.00273 298.00624 83.21974 298.91006 C 83.7284 300.9399 83.20375 301.6601 82.43642 299.9644 C 81.15524 297.2173 80.3896 296.26284 76.06674 292.37372 C 70.17652 287.0205 64.26134 283.728 59.055975 282.91702 C 55.2001 282.29572 54.221646 282.29053 52.08028 282.6512 C 50.56133 282.91408 46.39305 285.08056 46.68301 285.46535 C 46.74992 285.55414 47.742965 285.45553 48.8544 285.2677 C 52.788834 284.5768 56.414364 284.95403 61.162 286.57398 C 64.90074 287.84043 68.99929 290.87763 73.7249 295.85547 C 79.05231 301.44716 81.4985 304.75496 82.23792 307.2142 C 83.35177 311.1847 90.94119 321.61243 94.95305 325.4487 C 102.77517 332.878 116.05987 340.91765 122.94488 344.4931 C 129.8299 348.06854 141.11965 352.78637 142.31615 352.8409 C 143.34677 352.9214 143.36974 352.9685 142.86296 354.4403 C 142.57337 355.28134 142.33603 356.76752 142.34976 357.7522 C 142.3921 360.589 142.56306 364.646 142.62968 365.02173 C 142.67448 365.23314 143.42707 364.9827 144.29916 364.49905 C 145.73657 363.73966 146.06517 363.696 147.39564 364.27173 C 148.21254 364.6314 148.78298 365.0238 148.6405 365.20994 C 148.54513 365.3731 147.98328 365.2972 147.43467 365.0691 C 146.05824 364.3992 144.84778 364.72715 143.7223 365.9467 C 142.50143 367.32943 142.24971 369.08504 142.92347 370.88494 C 143.64435 372.66186 144.80076 373.06004 146.56793 372.1398 C 148.14666 371.3115 150.68376 368.38294 150.68093 367.4804 C 150.63845 367.0346 151.39962 367.3996 152.06543 367.62886 C 153.0116 367.95465 153.4488 367.59562 152.9048 366.89874 C 152.67272 366.66204 152.2304 366.05406 152.60728 365.87025 C 152.98415 365.68644 153.3564 365.9714 153.93428 366.79755 C 154.61614 367.7771 154.90739 367.95577 155.71684 367.8817 C 156.2448 367.8283 156.64234 367.926 156.582 368.1012 C 156.40101 368.62685 153.8181 369.0702 152.29688 368.8208 C 151.20824 368.68112 150.8555 368.79485 150.65038 369.3906 C 150.51765 369.77605 149.99482 370.49757 149.52142 370.96173 C 148.30288 372.11005 148.3247 372.27435 149.59484 373.0253 C 151.23838 373.94398 154.58132 373.68393 158.42758 372.30367 C 160.1683 371.68792 162.3307 371.0998 163.23437 370.97976 C 165.07675 370.7518 165.88454 369.65803 164.61324 369.0243 C 164.18182 368.79735 163.93999 368.3613 164.03883 367.84657 C 164.10147 367.43697 164.64803 366.09156 164.64803 366.09156 C 164.64803 366.09156 165.23664 364.9734 165.12314 364.71175 C 164.93807 364.32715 163.41696 363.90378 163.41696 363.90378 C 163.41696 363.90378 161.63141 363.56824 160.50889 363.2993 C 159.74885 363.116 159.17726 362.8408 159.22552 362.70063 C 159.39445 362.21003 160.41416 362.20837 162.3668 362.68473 L 164.3545 363.17316 L 163.4285 361.99197 C 162.46745 360.7987 161.36161 360.02596 157.14159 357.71054 C 153.7373 355.872 152.16897 355.64555 149.72045 356.72314 C 147.63674 357.65196 146.63885 357.81793 147.88898 357.03326 C 151.20215 355.03827 153.1738 354.7764 155.74052 355.9738 L 157.29216 356.70405 L 158.5935 354.2907 C 160.90893 350.0707 161.36823 345.09396 159.70813 342.28808 C 158.60179 340.37843 157.84407 339.96073 157.7963 341.2378 C 157.71749 343.28814 156.8717 345.85834 155.64737 347.59263 C 154.95793 348.57036 154.23576 349.30164 154.06055 349.2413 C 153.60499 349.08445 153.65325 348.94428 154.80287 347.65463 C 156.13002 346.1909 156.69944 344.3095 156.61974 341.69504 C 156.57328 340.4639 156.66583 339.39825 156.80716 339.3293 C 156.94848 339.2604 158.10721 339.4242 159.39404 339.6713 C 160.68088 339.9184 162.77485 340.32582 164.09672 340.585 C 168.36682 341.38894 170.30226 341.2322 172.2372 339.9386 C 173.4994 339.11888 174.57033 337.48855 174.00964 337.2955 C 173.90451 337.2593 173.35127 337.49998 172.7848 337.8929 C 171.53468 338.67756 171.23367 338.29953 172.39073 337.4436 C 173.32316 336.78474 174.16318 334.8005 173.72315 334.25703 C 173.58414 334.09157 172.7856 334.2478 171.98474 334.6384 C 171.1609 334.9819 170.46634 335.2915 170.39625 335.26735 C 170.32617 335.24322 170.51807 334.79973 170.82832 334.2402 C 171.3052 333.42446 171.29544 333.2251 170.7698 333.04412 C 169.81157 332.75338 168.37533 333.39557 166.97925 334.71795 C 164.861 336.7716 161.3802 336.749 154.01658 334.68387 C 151.30506 333.907 148.87273 333.34387 148.57917 333.39958 C 148.2856 333.4553 147.01994 334.6266 145.729 335.98517 C 144.45012 337.3087 143.16148 338.4329 142.90296 338.50067 C 142.30376 338.64713 142.33996 338.542 143.48958 337.25235 C 144.01125 336.64802 144.5944 335.7513 144.76333 335.2607 C 145.05292 334.41966 144.9949 334.3605 142.35578 333.37336 C 141.28852 332.9772 131.94712 329.6707 128.2563 327.54026 C 124.88698 325.5954 112.44332 318.6031 109.47308 315.1908 Z" fill="#FFFFFF"/>
          </g>
          <g id="Graphic_80">
            <path d="M 165.20218 367.5416 C 165.23671 366.41675 165.70665 366.30418 166.0599 367.32736 C 166.40108 368.38558 166.31546 368.74807 165.68469 368.53088 C 165.40434 368.43435 165.16251 367.9983 165.20218 367.5416 Z" fill="#FFFFFF"/>
          </g>
          <g id="Graphic_79">
            <path d="M 167.43716 353.65126 C 166.33248 352.7613 164.6924 351.49104 163.78475 350.82573 C 162.4118 349.8042 162.11194 349.309 161.78745 347.74695 C 161.38543 345.72704 161.81866 344.5827 162.68895 345.47032 C 163.2341 346.05 166.81244 348.0661 169.21602 349.1681 C 170.49939 349.76677 170.79295 349.71107 172.38375 348.8477 C 175.39989 347.26 176.3029 348.3941 173.64464 350.5362 C 171.68326 352.1343 171.8803 352.35893 174.24666 351.29225 C 176.94279 350.06473 178.59724 351.0656 177.25225 353.1503 C 176.84778 353.7558 176.13024 354.0183 174.6406 354.13252 C 173.43244 354.2261 172.67986 354.47652 172.87689 354.70116 C 173.03888 354.91373 174.12868 354.9362 175.24376 354.7714 C 177.57906 354.47796 178.46835 354.62738 178.21496 355.36328 C 177.99777 355.99405 175.5033 356.97742 174.4497 356.84982 C 174.00506 356.7751 173.29098 356.68603 172.88137 356.6234 C 171.60545 356.45843 169.53048 355.3128 167.43716 353.65126 Z" fill="#FFFFFF"/>
          </g>
          <g id="Graphic_78">
            <path d="M 147.05007 369.6012 C 147.701 368.963 148.1572 367.86575 147.96248 367.40673 C 147.8585 367.25333 147.46097 367.15565 147.0031 367.2332 C 146.25167 367.3664 146.22754 367.4365 146.46474 368.34133 C 146.64509 369.0698 146.57154 369.39723 146.14755 369.60402 C 145.77068 369.78784 145.73449 369.89297 146.04987 370.00156 C 146.26013 370.07396 146.71915 369.87924 147.05007 369.6012 Z" fill="black"/>
          </g>
          <g id="Graphic_77">
            <path d="M 157.65178 366.58808 C 157.91146 366.4031 157.6093 366.14228 156.69818 365.82855 C 155.96228 365.57516 154.45775 364.82193 153.32778 364.11927 C 151.14884 362.82023 150.31525 362.96438 152.29485 364.27317 C 154.42553 365.71237 157.26169 366.92413 157.65178 366.58808 Z" fill="black"/>
          </g>
          <g id="Graphic_76">
            <path d="M 158.99728 365.64026 C 159.06968 365.43 158.23443 364.55444 156.40938 363.0245 C 154.23622 361.13947 154.27524 361.93686 156.48229 363.95112 C 158.24816 365.5391 158.87662 365.9907 158.99728 365.64026 Z" fill="black"/>
          </g>
          <g id="Graphic_75">
            <path d="M 98.71408 299.94968 C 99.07488 298.88888 99.44339 297.9615 99.59139 297.84997 C 100.03537 297.5154 100.01573 295.3955 99.50708 293.36564 C 99.07305 291.558 99.11682 291.24658 99.8568 290.68896 C 100.59678 290.13135 100.93779 290.1528 102.08094 290.86923 C 103.78814 291.9031 107.48746 292.13188 109.13856 291.30535 C 110.38985 290.68728 111.63512 290.67704 111.54758 291.2999 C 111.548 291.4852 111.05254 291.99778 110.49016 292.42156 C 109.63178 293.0684 109.558 293.2168 110.17354 293.35625 C 110.55917 293.4369 111.10009 293.35414 111.39608 293.1311 C 112.04726 292.6404 113.25605 292.88968 113.47264 293.6082 C 113.66693 294.2971 112.06213 295.92407 111.21708 295.91116 C 110.87606 295.8897 110.1713 295.63187 109.71104 295.329 C 109.22118 295.04844 108.90976 295.00467 108.9771 295.2788 C 109.19369 295.9973 111.79013 296.91796 112.65663 296.58984 C 113.76765 296.2167 113.79935 297.12094 112.74108 297.872 C 111.42371 298.7719 109.3926 298.72462 107.567 297.77998 C 106.7061 297.31494 105.5711 296.91725 104.97056 296.8593 C 103.32466 296.7074 103.40096 297.67084 105.3127 300.63888 C 108.11704 304.9762 108.87791 307.0944 108.82545 310.104 C 108.79276 312.0313 108.22954 312.08446 106.54295 310.33895 C 105.73312 309.5106 103.86852 307.7136 102.41269 306.3975 C 98.08983 302.5084 97.91869 302.2197 98.71408 299.94968 Z" fill="#FFFFFF"/>
          </g>
        </g>
        <g id="Group_64">
          <g id="Graphic_73">
            <path d="M 268.25715 330.23915 C 277.33426 321.86743 284.43097 313.39297 285.00192 312.75357 L 286.0425 311.49583 L 288.42713 312.45744 C 289.74535 312.9867 292.3084 313.71154 294.13835 314.11597 C 295.9683 314.5204 298.16845 315.11097 299.06456 315.4614 C 299.96067 315.8118 301.0052 316.08844 301.3758 316.0893 C 302.53958 316.0845 304.19404 315.42857 304.68473 314.7774 C 304.9301 314.4518 305.89437 314.1575 306.7913 314.1373 C 308.1627 314.10334 308.58564 313.91158 309.27708 312.994 C 309.69357 312.37972 310.2074 311.32833 310.3794 310.669 C 310.70877 309.24657 310.2244 307.1181 309.4548 306.5382 C 308.83323 306.0698 309.55263 301.01996 309.4182 301.0288 C 309.64813 300.97004 311.58617 301.10737 312.67078 300.86942 C 315.15157 300.38936 315.04607 300.63484 314.9654 300.2492 C 314.93623 300.0416 314.65482 299.92236 314.3361 299.91422 C 313.17235 299.919 310.50602 301.0523 309.2951 300.15295 L 309.29985 298.0682 C 309.29985 298.0682 309.32436 298.0636 311.09263 298.11398 C 313.0212 298.13432 313.32413 298.36273 314.63715 297.91355 C 316.4619 297.33952 316.0252 297.05686 313.60076 297.3182 C 311.82875 297.5143 312.62888 297.5394 311.30252 297.48903 C 309.08677 297.34467 309.4687 297.1513 309.4687 297.1513 C 309.4687 297.1513 309.8751 294.4643 309.78713 294.02677 C 309.66354 292.9591 307.09572 291.0705 306.09454 291.2906 C 305.6866 291.40087 304.33754 291.4052 303.07768 291.29117 C 300.61717 291.1077 298.7847 291.8151 296.178 293.98103 C 295.3759 294.676 294.54418 295.34863 294.32885 295.5112 C 294.0393 295.7107 293.26202 295.26418 291.1978 293.56946 C 289.70326 292.35043 288.4382 291.25793 288.41633 291.10222 C 288.42404 290.9688 289.5526 290.1486 290.97756 289.3661 C 293.66448 287.77113 296.77603 285.24314 297.98047 283.6448 C 298.38195 283.112 298.92624 281.7123 299.18828 280.56397 C 299.89935 277.5265 299.07395 275.41948 297.3607 275.8455 C 296.92317 275.93347 296.44917 275.7619 296.2128 275.39816 C 295.98372 275.08632 295.28022 274.78822 294.717 274.73506 C 293.86465 274.69606 293.4194 274.91742 292.75027 275.8054 C 292.08114 276.69336 291.7397 276.90014 291.1769 276.66166 C 290.6437 276.4455 290.27265 276.62996 289.67043 277.42914 C 289.0459 278.2579 288.98544 278.76923 289.3531 280.06724 C 289.77227 281.54326 289.69764 281.76547 288.75398 282.7714 C 286.28716 285.36758 283.98503 287.2525 282.53818 287.8793 C 281.6627 288.2405 280.7053 288.77203 280.40074 289.053 C 280.0666 289.3117 279.62906 289.39964 279.42186 289.2435 C 278.85948 288.81972 279.57575 286.7607 281.0487 284.43654 C 282.797 281.6238 283.1456 278.26675 281.9727 275.7587 C 281.52998 274.8682 280.1011 274.1163 279.49242 274.49294 C 279.2252 274.66282 278.73617 274.57276 278.3514 274.2828 C 277.4634 273.61367 276.44722 273.91527 276.0076 274.92977 C 275.7691 275.49257 275.39036 275.81045 274.91593 275.8242 C 274.4711 275.86025 273.99625 276.0593 273.81782 276.2961 C 273.2825 277.00648 273.58594 280.4836 274.2942 281.94545 C 274.81072 282.98436 274.85365 283.6664 274.4659 284.6736 C 273.75007 286.54733 270.57217 292.18097 268.97354 294.364 C 266.8915 297.25013 266.593 298.13894 267.08678 299.39276 C 267.5218 300.41667 267.47675 300.66117 266.64503 301.3338 C 265.98688 301.91063 258.05252 312.90256 253.3862 316.83017 C 249.35218 320.22556 241.45332 326.7295 238.53683 328.55935 L 236.96188 329.26698 L 235.31323 328.46287 L 235.31323 328.46287 L 235.31323 328.46287 L 235.31323 328.46287 L 235.31323 328.46287 C 235.31317 328.46285 235.31312 328.46282 235.31307 328.4628 L 235.31307 328.4628 C 235.31317 328.46285 235.31312 328.46282 235.31307 328.4628 L 235.31323 328.46287 C 232.06254 326.8774 230.90035 326.6896 227.58847 327.20283 C 225.83286 327.45455 224.11345 327.8114 223.74005 327.97918 C 220.77463 329.15705 220.0536 328.54296 222.19174 326.67002 C 224.12076 324.98667 224.95651 322.9742 224.41353 321.39727 C 224.07568 320.41607 223.73466 320.09907 222.69191 319.59902 C 221.19714 318.9107 221.37998 320.27124 221.37998 320.27124 C 221.37998 320.27124 220.15658 317.70524 218.33586 319.11456 C 217.65053 319.7425 217.85742 319.77417 217.3961 319.34505 C 217.07723 319.10206 216.17643 318.97616 215.8961 319.0727 C 215.12515 319.33814 214.59762 321.70505 214.87514 322.51104 C 215.00787 322.8965 214.74915 324.2938 214.5964 325.44394 C 214.34316 327.09905 214.05537 327.6293 213.0897 328.3538 C 211.86783 329.2449 211.19175 330.8104 211.58993 331.9668 C 211.83126 332.66767 213.65711 333.49554 214.40557 333.42756 C 215.37855 333.3392 217.23262 333.66925 218.77863 334.74402 C 219.65187 335.3449 220.40793 335.9469 220.4562 336.08707 C 220.50446 336.22724 215.63465 338.02164 209.68944 340.10794 C 198.31258 344.0645 197.83289 344.1513 198.92717 342.2066 C 199.56076 341.0869 202.91267 337.50248 203.91453 336.88312 C 205.30071 336.01385 206.32144 333.7417 205.88706 332.48016 C 205.66987 331.8494 205.55575 331.80862 204.94211 331.4434 C 204.32848 331.0782 203.62367 331.4564 203.62367 331.4564 C 203.62367 331.4564 204.0199 330.928 203.61657 330.43972 C 202.98863 329.7544 202.63588 329.64067 201.72476 329.9544 C 201.094 330.1716 200.21692 330.3707 200.05608 330.70046 C 199.8493 331.12444 199.75558 332.0273 199.40336 331.3662 C 199.1292 330.86686 197.98263 330.81174 197.44376 330.8405 C 196.64753 330.91867 196.35743 331.21455 195.7974 332.6617 C 195.45506 333.60274 195.00875 334.69716 194.85998 335.06196 C 194.67616 335.43884 194.50904 336.31953 194.4568 336.96468 C 194.41662 337.64487 194.11165 338.80822 193.8141 339.53783 C 193.52863 340.3025 193.12545 342.2052 192.91815 343.7661 C 192.71086 345.32697 192.38636 346.889 192.2014 347.1487 C 191.99345 347.4555 192.07047 348.1345 192.3336 348.67108 C 192.68122 349.45293 193.02305 349.6488 193.92441 349.53443 C 194.53337 349.48154 196.9571 349.23495 199.2286 349.00158 C 204.19327 348.50723 206.76064 348.56395 209.65034 349.21525 C 212.73937 349.8763 212.66185 350.33417 209.27706 351.77402 C 206.6391 352.87834 203.69037 354.56002 200.69915 356.6875 C 198.35937 358.3163 193.73104 363.20258 192.0807 365.8091 C 189.41476 370.01966 188.60147 373.12192 189.20492 377.26507 C 189.594 379.87493 190.27484 381.1692 191.40199 381.36906 C 192.43492 381.52296 192.81692 381.03865 192.467 380.0224 C 191.6465 377.6395 195.46344 368.91687 198.6907 365.76736 C 202.38214 362.14445 209.01434 358.4105 215.95282 356.02137 C 219.59728 354.7665 221.02428 354.4711 224.15118 354.2176 C 227.74688 353.95943 228.55415 353.90145 236.13547 351.3302 C 240.2707 349.9063 241.56358 349.63112 245.24342 347.60504 C 248.92326 345.57896 259.8288 338.0125 268.25715 330.23915 Z" fill="black"/>
          </g>
          <g id="Graphic_72">
            <path d="M 307.8169 312.96104 C 306.68877 313.59595 305.25946 313.02936 305.10628 311.9394 C 305.01874 311.31654 305.14527 311.08704 305.84275 310.7773 C 306.3399 310.54865 307.09783 309.7276 307.66315 308.8542 C 308.17658 307.98812 308.7119 307.27774 308.8453 307.28546 C 309.33473 307.1902 309.8264 309.37058 309.54206 310.5485 C 309.19768 312.05245 308.97463 312.34844 307.8169 312.96104 Z" fill="#FFFFFF"/>
          </g>
          <g id="Graphic_71">
            <path d="M 238.80685 329.7153 C 234.64372 331.4857 230.71326 333.31642 228.3076 334.75553 C 227.23564 335.399 227.63896 335.8873 229.3159 335.97625 C 230.14832 336.0032 231.12207 336.0991 231.46274 336.17777 C 233.601 336.69583 236.96808 337.02596 238.1268 336.86217 C 239.5429 336.64895 240.21333 336.88847 239.76125 337.39692 C 239.43726 337.82206 235.12288 337.7005 232.17632 337.2256 C 229.80482 336.82704 226.00748 336.84105 222.29692 337.33474 C 220.22476 337.57787 218.11012 338.2668 203.34733 343.54603 C 200.94144 344.41364 198.73258 345.0566 198.48613 345.0239 C 197.59337 344.8217 197.44908 343.2643 198.1407 342.0854 C 198.52154 341.4839 200.1208 339.63972 201.67526 338.00695 C 204.65723 334.9419 205.38157 333.51656 204.48303 332.7284 C 204.0217 332.2993 203.87062 332.42972 203.12098 333.66778 L 202.26738 335.05923 L 202.68725 333.66034 C 203.15191 332.05003 202.99275 331.3601 202.0046 330.99477 C 201.38127 330.77823 201.19515 330.9207 200.71495 332.1444 C 200.42948 332.90904 200.01937 334.1086 199.84993 334.7549 C 199.43007 336.1538 198.80443 335.70286 199.03586 334.21206 C 199.22365 333.04986 198.72264 332.16404 197.74773 331.95096 C 197.11349 331.81657 196.92737 331.95905 196.6999 332.66453 C 196.5523 333.14653 196.45526 334.0031 196.5432 334.59998 C 196.61906 335.1618 196.42896 336.0896 196.13026 336.70204 C 195.8195 337.2794 195.61502 337.9378 195.67535 338.113 C 195.74775 338.32326 195.39334 339.22924 194.92175 340.13638 C 194.48519 341.03145 193.9987 342.80606 193.8701 344.02627 C 193.77652 345.23442 193.54394 346.60803 193.33714 347.032 C 192.9029 348.16147 193.61185 348.7405 195.20315 348.46696 C 198.66727 347.94053 206.8433 347.43795 208.6627 347.71303 C 209.73068 347.85486 211.2709 348.34366 212.07176 348.73426 C 212.84964 349.17198 214.28357 349.57977 215.21022 349.65268 C 217.2979 349.79618 217.82073 350.5177 215.9709 350.72348 C 212.96235 351.09304 211.818 351.52627 206.7834 354.43575 C 199.872 358.38344 194.91274 362.99167 192.53292 367.69167 C 190.7505 371.16683 190.4432 372.0958 190.1245 374.2438 C 189.90513 375.76965 190.6775 380.4034 191.13307 380.24653 C 191.2382 380.21034 191.45127 379.2354 191.61608 378.12034 C 192.17482 374.16498 193.65393 370.83346 196.6617 366.8188 C 199.0215 363.6544 203.17657 360.69497 209.37106 357.7389 C 216.33534 354.40015 220.23715 353.09585 222.80453 353.15257 C 226.9249 353.3202 239.18752 349.32456 244.07574 346.69453 C 253.5586 341.55104 265.30997 331.40093 270.838 325.95776 C 276.36604 320.5146 284.3417 311.2353 284.7633 310.1142 C 285.15834 309.1589 285.21024 309.1516 286.4534 310.0884 C 287.16378 310.6237 288.50387 311.3087 289.4446 311.5999 C 292.15563 312.43626 296.06692 313.52736 296.44483 313.5801 C 296.65974 313.60283 296.65413 312.8097 296.46363 311.8308 C 296.1856 310.2291 296.24563 309.9031 297.2043 308.81564 C 297.7988 308.14987 298.3483 307.7286 298.48128 307.92163 C 298.60696 308.06275 298.3612 308.57365 297.97472 309.02493 C 296.91225 310.12697 296.8501 311.37953 297.66218 312.8268 C 298.59996 314.4152 300.19185 315.1971 302.11186 315.1125 C 304.02458 314.97602 304.76062 313.99925 304.43153 312.0342 C 304.1316 310.2768 302.13038 306.9589 301.27116 306.68268 C 300.83405 306.58532 301.4164 305.9742 301.84017 305.4118 C 302.4424 304.61264 302.23604 304.0859 301.40516 304.3879 C 301.10833 304.5355 300.39343 304.76828 300.33507 304.35305 C 300.2767 303.93782 300.66277 303.67185 301.62705 303.37754 C 302.76935 303.03175 303.0293 302.80997 303.209 302.01725 C 303.32135 301.49864 303.5371 301.15074 303.6851 301.26226 C 304.12908 301.59683 303.75257 304.19032 303.04528 305.56 C 302.57604 306.55222 302.5752 306.92284 303.0784 307.302 C 303.40398 307.54736 303.92862 308.26756 304.22377 308.86122 C 304.93934 310.375 305.10234 310.405 306.209 309.42908 C 307.59063 308.14986 308.37634 304.89018 308.2522 300.80565 C 308.2045 298.95985 308.31335 296.72154 308.47846 295.825 C 308.83098 294.00236 308.04036 292.8961 307.0448 293.90935 C 306.69564 294.24953 306.2062 294.34478 305.7472 294.0917 C 305.377 293.90556 304.26634 292.97 304.26634 292.97 C 304.26634 292.97 303.38482 292.06468 303.10088 292.09176 C 302.67792 292.14893 301.80522 293.46475 301.80522 293.46475 C 301.80522 293.46475 300.93435 295.05923 300.3317 296.0437 C 299.9225 296.7099 299.48413 297.16847 299.36574 297.07926 C 298.95135 296.767 299.26487 295.79668 300.32132 294.0868 L 301.40007 292.34734 L 299.99054 292.863 C 298.5587 293.40827 297.48206 294.2212 293.9759 297.51918 C 291.17535 300.1887 290.47536 301.6103 290.74358 304.27197 C 290.98303 306.5407 290.8325 307.54105 290.47256 306.10964 C 289.59903 302.34214 289.95927 300.38608 291.8912 298.315 L 293.0652 297.06495 L 291.17213 295.08153 C 287.87415 291.57538 283.28293 289.60066 280.10138 290.31244 C 277.9433 290.77452 277.3119 291.3661 278.51173 291.80614 C 280.43735 292.5147 282.6204 294.11333 283.89146 295.81366 C 284.6083 296.7715 285.0806 297.6843 284.9691 297.8323 C 284.67913 298.21707 284.56074 298.12785 283.68946 296.63598 C 282.7075 294.92148 281.09414 293.79854 278.583 293.06642 C 277.39777 292.73017 276.41286 292.31284 276.39097 292.15712 C 276.3691 292.0014 276.88294 290.95 277.5156 289.80253 C 278.14826 288.65503 279.18283 286.78945 279.8378 285.61236 C 281.92193 281.7997 282.37096 279.91055 281.73858 277.67056 C 281.34902 276.21684 280.12943 274.69452 279.77256 275.1681 C 279.70564 275.2569 279.7636 275.85744 279.96222 276.5176 C 280.32218 277.949 279.86963 278.11847 279.41316 276.75355 C 279.07467 275.66316 277.44714 274.2511 276.79428 274.50164 C 276.59396 274.58272 276.49576 275.39045 276.61977 276.2728 C 276.69188 277.16247 276.7717 277.9187 276.72708 277.9779 C 276.68248 278.0371 276.32 277.71756 275.88372 277.24958 C 275.25527 276.54397 275.06266 276.49165 274.7281 276.93563 C 274.15547 277.7571 274.3224 279.3215 275.14866 281.0579 C 276.44723 283.7071 275.3501 287.01054 271.11056 293.3756 C 269.5338 295.71434 268.2466 297.8536 268.20887 298.15002 C 268.17113 298.44643 268.894 300.0121 269.78716 301.6597 C 270.65073 303.28497 271.3217 304.85792 271.30626 305.12474 C 271.2604 305.73987 271.1716 305.67295 270.3003 304.18108 C 269.88676 303.4982 269.21412 302.66647 268.79974 302.3542 C 268.08936 301.8189 268.01515 301.8558 266.2608 304.0607 C 265.55425 304.95333 259.5229 312.81575 256.35622 315.6676 C 253.46538 318.271 242.96998 327.9449 238.80685 329.7153 Z" fill="#FFFFFF"/>
          </g>
          <g id="Graphic_70">
            <path d="M 305.81664 292.89106 C 304.75753 292.51062 304.7957 292.0289 305.87795 292.00912 C 306.9898 292.01164 307.3081 292.2051 306.90662 292.73787 C 306.7282 292.97467 306.23875 293.0699 305.81664 292.89106 Z" fill="#FFFFFF"/>
          </g>
          <g id="Graphic_69">
            <path d="M 293.2968 286.47312 C 292.10906 287.24872 290.39414 288.416 289.4809 289.07363 C 288.08513 290.06372 287.52148 290.19587 285.93562 290.02178 C 283.89034 289.77994 282.93587 289.0143 284.049 288.4609 C 284.76877 288.12155 287.79194 285.34134 289.58276 283.39594 C 290.54872 282.3604 290.58646 282.06398 290.25694 280.28425 C 289.67898 276.9251 291.0366 276.41673 292.25242 279.60684 C 293.1662 281.96607 293.44073 281.8481 293.1575 279.26792 C 292.82322 276.32443 294.28634 275.06023 295.8534 276.9836 C 296.30426 277.5554 296.33218 278.31893 295.9805 279.77097 C 295.69615 280.9489 295.70176 281.74204 295.9763 281.62406 C 296.2285 281.5357 296.58665 280.50617 296.77448 279.39473 C 297.21706 277.08306 297.63398 276.28347 298.25556 276.75186 C 298.78834 277.15334 298.95275 279.8296 298.5058 280.7922 C 298.29736 281.192 297.99197 281.8436 297.80582 282.2138 C 297.25466 283.3763 295.5239 284.9957 293.2968 286.47312 Z" fill="#FFFFFF"/>
          </g>
          <g id="Graphic_68">
            <path d="M 302.16615 310.7912 C 301.76032 309.9749 300.85776 309.20197 300.36102 309.2453 C 300.183 309.2968 299.96726 309.6447 299.8995 310.1041 C 299.794 310.85993 299.8532 310.90454 300.78706 310.95855 C 301.5356 311.01214 301.8243 311.18328 301.88994 311.6504 C 301.9483 312.06564 302.0371 312.13255 302.23783 311.86616 C 302.37166 311.68856 302.3283 311.19183 302.16615 310.7912 Z" fill="black"/>
          </g>
          <g id="Graphic_67">
            <path d="M 302.5766 299.77726 C 302.48093 299.47313 302.1395 299.6799 301.55958 300.4495 C 301.09118 301.07106 299.9099 302.2692 298.89243 303.12672 C 296.98365 304.7976 296.86315 305.63493 298.7196 304.15666 C 300.7468 302.575 302.77566 300.2521 302.5766 299.77726 Z" fill="black"/>
          </g>
          <g id="Graphic_66">
            <path d="M 302.09095 298.20472 C 301.91336 298.0709 300.82254 298.5947 298.8035 299.85764 C 296.3392 301.34194 297.10962 301.55124 299.7073 300.07465 C 301.76326 298.88592 302.38695 298.42777 302.09095 298.20472 Z" fill="black"/>
          </g>
          <g id="Graphic_65">
            <path d="M 220.98697 335.23795 C 220.08958 334.567 219.32146 333.92995 219.26113 333.75473 C 219.08014 333.2291 217.0579 332.5927 214.97023 332.4492 C 213.11693 332.30337 212.83428 332.1655 212.53262 331.28944 C 212.23097 330.41337 212.35676 330.09567 213.39136 329.22986 C 214.90218 327.9257 216.26292 324.47814 215.98707 322.65244 C 215.78592 321.2714 216.161 320.0839 216.7263 320.35963 C 216.90267 320.4165 217.23705 321.0461 217.46631 321.71192 C 217.81623 322.72816 217.93458 322.8442 218.2574 322.30187 C 218.4533 321.96004 218.54173 321.42002 218.42107 321.0696 C 218.1556 320.29865 218.76623 319.22605 219.5165 319.2421 C 220.23174 319.2702 221.28316 321.29922 221.00975 322.0989 C 220.88396 322.4166 220.42096 323.0072 219.9907 323.35135 C 219.5725 323.73054 219.43463 324.0132 219.71613 324.03385 C 220.4664 324.0499 222.14435 321.86503 222.10005 320.93954 C 222.0885 319.7676 222.95828 320.01687 223.34555 321.25544 C 223.79432 322.7864 223.12171 324.7035 221.65916 326.14784 C 220.95086 326.8229 220.2219 327.77946 219.98121 328.3327 C 219.32811 329.8511 220.268 330.07626 223.68152 329.17526 C 228.67314 327.8485 230.92281 327.7794 233.76887 328.7593 C 235.59174 329.38597 235.46826 329.93806 233.287 331.0027 C 232.24895 331.51693 229.96372 332.73498 228.26215 333.71285 C 223.22754 336.62233 222.90009 336.6959 220.98697 335.23795 Z" fill="#FFFFFF"/>
          </g>
        </g>
        <g id="Group_54">
          <g id="Graphic_63">
            <path d="M 302.18565 183.35287 C 297.02866 172.13302 291.16197 162.7649 290.7303 162.0243 L 289.85568 160.64597 L 291.5071 158.67522 C 292.41784 157.58508 293.8992 155.37146 294.84933 153.75605 C 295.79945 152.14063 297.041 150.23066 297.6512 149.4867 C 298.26137 148.74274 298.84724 147.83482 298.96256 147.4826 C 299.31765 146.37432 299.20506 144.59814 298.7374 143.93023 C 298.50355 143.59627 298.52163 142.58824 298.7796 141.72895 C 299.17108 140.4142 299.1194 139.9527 298.4604 139.01156 C 298.0049 138.42563 297.16374 137.61203 296.58983 137.24473 C 295.3388 136.49191 293.16482 136.29486 292.37548 136.84757 C 291.73793 137.29398 287.15756 135.04931 287.12445 135.17988 C 287.1396 134.94306 287.8691 133.14231 287.97795 132.03726 C 288.288 129.52953 288.48886 129.70573 288.09717 129.66328 C 287.8907 129.62687 287.69034 129.85765 287.58412 130.15826 C 287.22903 131.26653 287.48294 134.15257 286.2534 135.0263 L 284.27217 134.37757 C 284.27217 134.37757 284.27536 134.35283 284.8697 132.68668 C 285.485 130.8588 285.79584 130.64127 285.7744 129.25371 C 285.79234 127.34087 285.38857 127.66885 284.88792 130.0554 C 284.52685 131.80129 284.79796 131.04807 284.3402 132.29394 C 283.5182 134.35664 283.45232 133.93364 283.45232 133.93364 C 283.45232 133.93364 281.0224 132.71682 280.5791 132.66527 C 279.5255 132.45288 276.93584 134.31142 276.8358 135.33161 C 276.8146 135.75365 276.40184 137.03804 275.90406 138.20099 C 274.96922 140.48437 275.07576 142.44577 276.33016 145.59417 C 276.74323 146.57179 277.12593 147.57066 277.21402 147.82569 C 277.31427 148.1627 276.6494 148.76396 274.39976 150.20346 C 272.77855 151.24815 271.3486 152.11368 271.19375 152.08637 C 271.06926 152.03781 270.63793 150.71103 270.33408 149.11401 C 269.64746 146.06572 268.20473 142.32527 267.0568 140.68586 C 266.67416 140.1394 265.51115 139.18921 264.5 138.58514 C 261.8309 136.97023 259.57197 137.10414 259.44773 138.86518 C 259.39617 139.30848 259.08653 139.70627 258.66755 139.81867 C 258.30018 139.94017 257.79928 140.51712 257.57467 141.03635 C 257.2742 141.83493 257.34713 142.32679 257.98487 143.23757 C 258.6226 144.14835 258.71375 144.53698 258.31303 144.99854 C 257.94267 145.43885 258.00345 145.84873 258.57742 146.66844 C 259.17264 147.5185 259.64025 147.73401 260.98835 147.78544 C 262.52165 147.84291 262.70992 147.98255 263.37502 149.19089 C 265.08183 152.33923 266.16312 155.11117 266.3121 156.68088 C 266.3851 157.62514 266.59476 158.69994 266.7679 159.07641 C 266.91065 159.47414 266.8591 159.91744 266.64657 160.06625 C 266.06974 160.47015 264.33283 159.15266 262.5776 157.03361 C 260.44276 154.50168 257.35774 153.13276 254.61 153.4732 C 253.62627 153.61909 252.46962 154.74569 252.63975 155.44097 C 252.71874 155.74762 252.48197 156.18487 252.0873 156.46122 C 251.1765 157.09896 251.14933 158.1586 251.97833 158.89023 C 252.4399 159.29095 252.62517 159.7494 252.49164 160.20485 C 252.38846 160.63905 252.43104 161.15216 252.6011 161.39504 C 253.1113 162.12366 256.512 162.90958 258.12117 162.6877 C 259.26885 162.51752 259.93077 162.68746 260.76887 163.36746 C 262.32967 164.62728 266.70556 169.39053 268.28775 171.58551 C 270.38922 174.4575 271.1423 175.01607 272.48733 174.9339 C 273.59555 174.83659 273.81417 174.95497 274.19688 175.95384 C 274.54208 176.75803 282.54418 187.70075 284.83758 193.35239 C 286.8202 198.2382 290.56496 207.76028 291.404 211.09948 L 291.5903 212.81602 L 290.3161 214.1355 L 290.3161 214.1355 L 290.3161 214.1355 L 290.3161 214.1355 L 290.3161 214.1355 C 290.31604 214.13554 290.316 214.13559 290.31596 214.13563 L 290.31596 214.13563 C 290.31604 214.13554 290.316 214.13559 290.31596 214.13563 L 290.3161 214.1355 C 287.8037 216.73715 287.26596 217.78444 286.73063 221.0928 C 286.42752 222.84028 286.2356 224.5858 286.27976 224.99278 C 286.4836 228.17704 285.67678 228.673 284.55622 226.06076 C 283.55135 223.70597 281.89565 222.28923 280.2281 222.31833 C 279.19053 222.33645 278.78367 222.56282 277.98586 223.4 C 276.8693 224.6089 278.21977 224.85546 278.21977 224.85546 C 278.21977 224.85546 275.4013 225.22604 276.179 227.39315 C 276.56445 228.23898 276.6585 228.052 276.10782 228.35815 C 275.7782 228.5863 275.3801 229.40412 275.38526 229.70057 C 275.3995 230.5158 277.48754 231.74893 278.33984 231.73406 C 278.74746 231.72694 279.99642 232.4048 281.04306 232.90547 C 282.5389 233.65778 282.95428 234.09534 283.3449 235.23761 C 283.8148 236.67506 285.09477 237.80182 286.31763 237.78047 C 287.05876 237.76753 288.41033 236.28687 288.57696 235.55404 C 288.7936 234.60137 289.68043 232.94004 291.18034 231.80182 C 292.02164 231.157 292.82783 230.62397 292.97605 230.62139 C 293.12428 230.6188 293.326 235.80476 293.47302 242.1037 C 293.7203 254.14638 293.6546 254.6294 292.14322 252.98774 C 291.2741 252.03915 288.90094 247.74365 288.6215 246.59943 C 288.2231 245.01248 286.3776 243.33957 285.04356 243.36286 C 284.37655 243.3745 284.3025 243.47044 283.76556 243.94118 C 283.2286 244.41193 283.3705 245.19912 283.3705 245.19912 C 283.3705 245.19912 282.9904 244.659 282.40138 244.8917 C 281.55555 245.27713 281.3384 245.57746 281.3552 246.54093 C 281.36685 247.20794 281.28518 248.10363 281.5491 248.3585 C 281.88843 248.68617 282.71813 249.0543 281.98054 249.185 C 281.42094 249.29142 281.0142 250.36485 280.87503 250.88623 C 280.70333 251.66765 280.8951 252.03498 282.09836 253.0148 C 282.88754 253.63118 283.79047 254.39384 284.09145 254.64805 C 284.39308 254.93934 285.17902 255.37043 285.77645 255.61947 C 286.41094 255.86788 287.4231 256.51742 288.02506 257.02586 C 288.66408 257.53366 290.34908 258.50507 291.7695 259.18457 C 293.18994 259.86406 294.57526 260.65537 294.76507 260.91153 C 294.99258 261.2041 295.6622 261.34068 296.2538 261.25623 C 297.1048 261.16723 297.39672 260.90266 297.56648 260.01007 C 297.70436 259.41458 298.2188 257.03327 298.6988 254.80083 C 299.7628 249.9264 300.6101 247.5022 302.1225 244.9552 C 303.70576 242.22163 304.11726 242.43685 304.4407 246.1009 C 304.67578 248.951 305.36395 252.2751 306.46298 255.77734 C 307.28903 258.50593 310.5059 264.41767 312.47488 266.7927 C 315.65553 270.6293 318.35464 272.36143 322.4815 273.0678 C 325.08384 273.50428 326.52516 273.2567 327.06354 272.24648 C 327.5291 271.31166 327.18654 270.7987 326.1119 270.81745 C 323.59207 270.86144 316.47586 264.53587 314.4778 260.4933 C 312.1729 255.863 310.67115 248.40155 310.54308 241.06438 C 310.4758 237.21052 310.63587 235.76208 311.361 232.70988 C 312.22662 229.2104 312.42094 228.42472 312.3183 220.4199 C 312.24196 216.04704 312.37975 214.7324 311.58997 210.60658 C 310.8002 206.48075 306.97406 193.7708 302.18565 183.35287 Z" fill="black"/>
          </g>
          <g id="Graphic_62">
            <path d="M 297.97784 140.39008 C 298.23306 141.6592 297.2525 142.84346 296.16855 142.65233 C 295.54914 142.54311 295.36998 142.35185 295.29093 141.5928 C 295.2271 141.04933 294.68044 140.07477 294.0245 139.26722 C 293.35945 138.51129 292.84926 137.78266 292.89782 137.65817 C 292.95848 137.16325 295.18407 137.36941 296.2165 138.00384 C 297.5404 138.79611 297.75297 139.09971 297.97784 140.39008 Z" fill="#FFFFFF"/>
          </g>
          <g id="Graphic_61">
            <path d="M 292.5868 211.19989 C 292.98408 215.70635 293.5106 220.01016 294.1359 222.7428 C 294.41664 223.96113 295.00566 223.72844 295.60845 222.16107 C 295.89132 221.37771 296.2834 220.48125 296.46353 220.18156 C 297.617 218.30804 298.97145 215.20778 299.17373 214.05516 C 299.40855 212.64248 299.84352 212.07888 300.1874 212.66596 C 300.4916 213.10546 299.0428 217.17112 297.68057 219.8267 C 296.5687 221.95897 295.40857 225.5748 294.73147 229.2563 C 294.32237 231.30217 294.32413 233.5262 294.783 249.19782 C 294.8647 251.75407 294.79364 254.0535 294.68635 254.27778 C 294.2182 255.06438 292.6924 254.72033 291.78495 253.69828 C 291.33057 253.1502 290.07084 251.05932 288.99834 249.0764 C 287.00478 245.29322 285.87304 244.16387 284.8458 244.7749 C 284.29514 245.08104 284.37248 245.26503 285.3183 246.36055 L 286.37787 247.60236 L 285.1772 246.77076 C 283.78928 245.83122 283.08392 245.7694 282.43113 246.59628 C 282.03257 247.1222 282.11056 247.34323 283.12596 248.17807 C 283.76497 248.68586 284.7791 249.44658 285.3414 249.80744 C 286.54208 250.63904 285.91988 251.0947 284.57356 250.41392 C 283.52628 249.8762 282.529 250.07894 282.02508 250.9403 C 281.70127 251.50196 281.77927 251.723 282.37993 252.15733 C 282.79272 252.44666 283.57738 252.80365 284.17222 252.90447 C 284.73 253.00593 285.55365 253.47343 286.0438 253.94676 C 286.4969 254.42073 287.05984 254.81865 287.24512 254.81542 C 287.46746 254.81153 288.2196 255.42856 288.9366 256.1574 C 289.65296 256.84918 291.19038 257.86023 292.31113 258.35962 C 293.43123 258.82195 294.66573 259.46762 295.00506 259.7953 C 295.94505 260.55732 296.71483 260.062 296.9464 258.46406 C 297.5162 255.0068 299.56477 247.07564 300.3886 245.43028 C 300.85352 244.4584 301.79435 243.1446 302.4133 242.50366 C 303.06998 241.8991 303.90093 240.66137 304.2566 239.8026 C 305.03822 237.86144 305.886 237.58717 305.51007 239.41005 C 304.93185 242.38556 304.99025 243.60777 306.20156 249.29505 C 307.8203 257.08808 310.6705 263.22863 314.40505 266.94435 C 317.15932 269.71342 317.94785 270.29275 319.89225 271.25963 C 321.27563 271.93976 325.92126 272.6371 325.91285 272.15536 C 325.9109 272.0442 325.04956 271.54028 324.03998 271.03896 C 320.45087 269.2853 317.73948 266.84908 314.85074 262.74792 C 312.57044 259.52577 311.03986 254.65955 310.14266 247.85476 C 309.1194 240.1996 309.08467 236.0857 309.932 233.6615 C 311.36466 229.7946 311.35395 216.89745 310.3632 211.43574 C 308.4018 200.82758 302.37984 186.51481 298.91134 179.5753 C 295.44284 172.6358 289.0823 162.18305 288.14638 161.43563 C 287.3599 160.76473 287.369 160.71312 288.6441 159.82029 C 289.37273 159.3101 290.4383 158.24726 291.00597 157.44258 C 292.63914 155.12266 294.8855 151.73998 295.05243 151.39686 C 295.14046 151.1995 294.3844 150.95973 293.39457 150.83842 C 291.78533 150.60789 291.49383 150.45005 290.75585 149.20226 C 290.30638 148.43111 290.07553 147.77835 290.3002 147.71152 C 290.47326 147.6356 290.8832 148.02721 291.19297 148.53422 C 291.91275 149.88525 293.0848 150.33141 294.71218 150.00631 C 296.5126 149.60527 297.7482 148.33292 298.26105 146.48074 C 298.7223 144.61946 298.0208 143.6176 296.05023 143.32336 C 294.28614 143.06552 290.5122 143.94352 289.984 144.67533 C 289.75634 145.06096 289.35508 144.31828 288.95118 143.74145 C 288.3772 142.92174 287.81248 142.95522 287.84297 143.83876 C 287.8916 144.16667 287.89207 144.91852 287.47914 144.8457 C 287.0662 144.7729 286.93254 144.32355 286.95062 143.31551 C 286.97474 142.12227 286.84414 141.80652 286.14575 141.39065 C 285.68724 141.12353 285.42304 140.81083 285.57484 140.70454 C 286.03023 140.38567 288.38044 141.54519 289.46453 142.64112 C 290.26317 143.394 290.6154 143.50932 291.1315 143.14794 C 291.46545 142.9141 292.31252 142.63769 292.96834 142.54043 C 294.62913 142.32767 294.70805 142.18192 294.12187 140.82784 C 293.3322 139.11854 290.47486 137.364 286.55188 136.21988 C 284.78168 135.69485 282.68656 134.89965 281.88493 134.46558 C 280.26042 133.56708 278.964 133.97715 279.62 135.2371 C 279.83564 135.67429 279.775 136.1692 279.39247 136.52753 C 279.10103 136.82209 277.86804 137.58929 277.86804 137.58929 C 277.86804 137.58929 276.73462 138.14791 276.67264 138.42632 C 276.5963 138.84624 277.57805 140.08284 277.57805 140.08284 C 277.57805 140.08284 278.82537 141.40381 279.57544 142.28118 C 280.08258 142.87622 280.38324 143.43484 280.2618 143.51987 C 279.83677 143.81748 279.01083 143.21946 277.7111 141.68634 L 276.39013 140.12286 L 276.445 141.62275 C 276.5211 143.15301 276.96154 144.42817 279.01465 148.78185 C 280.6881 152.27026 281.8238 153.3753 284.4381 153.9427 C 286.6698 154.41605 287.57466 154.86832 286.10206 154.76833 C 282.24903 154.43488 280.50002 153.48782 279.1273 151.01044 L 278.30123 149.50761 L 275.8299 150.69513 C 271.4762 152.74823 268.17938 156.50452 267.87317 159.7503 C 267.64576 161.94554 268.01325 162.72884 268.80254 161.72373 C 270.07146 160.11131 272.26644 158.52912 274.27634 157.84569 C 275.4088 157.45993 276.42288 157.2928 276.52917 157.4446 C 276.80552 157.83927 276.6841 157.9243 274.996 158.29192 C 273.06196 158.696 271.49542 159.8834 270.02315 162.0454 C 269.3371 163.06871 268.63584 163.87645 268.481 163.84915 C 268.32614 163.82184 267.485 163.00824 266.58916 162.05196 C 265.69333 161.09566 264.23876 159.53524 263.32168 158.54859 C 260.33965 155.38828 258.68172 154.37744 256.35595 154.28668 C 254.853 154.20794 253.0283 154.89743 253.36844 155.38318 C 253.4322 155.47425 254.02126 155.60473 254.7105 155.61981 C 256.18308 155.7198 256.2044 156.20257 254.76523 156.21491 C 253.6236 156.19989 251.77772 157.3114 251.81425 158.00974 C 251.82946 158.22531 252.5673 158.5683 253.4448 158.72303 C 254.3132 158.92937 255.0571 159.08715 255.09962 159.14787 C 255.14214 159.20859 254.7262 159.45458 254.14632 159.7249 C 253.28105 160.10454 253.17176 160.27155 253.49063 160.72694 C 254.09496 161.52539 255.63438 161.85005 257.5411 161.60081 C 260.4619 161.18444 263.26465 163.2487 268.0081 169.24765 C 269.74512 171.46994 271.38192 173.35521 271.65216 173.4827 C 271.9224 173.61018 273.63482 173.40652 275.47777 173.0662 C 277.29036 172.74714 278.99367 172.59509 279.24266 172.69222 C 279.8135 172.92593 279.72242 172.9897 278.03433 173.35732 C 277.25707 173.5396 276.2582 173.9223 275.83317 174.21992 C 275.10454 174.73011 275.1167 174.81209 276.67158 177.16192 C 277.30217 178.10973 282.916 186.2755 284.6497 190.16846 C 286.23237 193.72232 292.1895 206.69343 292.5868 211.19989 Z" fill="#FFFFFF"/>
          </g>
          <g id="Graphic_60">
            <path d="M 278.27203 136.09047 C 277.58293 136.98018 277.13658 136.79504 277.4522 135.75963 C 277.7982 134.70297 278.08052 134.46004 278.46317 135.0065 C 278.63323 135.24938 278.57257 135.7443 278.27203 136.09047 Z" fill="#FFFFFF"/>
          </g>
          <g id="Graphic_59">
            <path d="M 268.29937 146.0143 C 268.66998 147.38359 269.25018 149.37528 269.59342 150.44702 C 270.10374 152.08045 270.05524 152.65735 269.3996 154.1118 C 268.53758 155.98224 267.51446 156.6534 267.3321 155.42374 C 267.2318 154.63433 265.5219 150.9 264.2251 148.59566 C 263.53873 147.35698 263.2685 147.22949 261.47403 146.99291 C 258.1007 146.50455 258.03674 145.05627 261.4464 144.88577 C 263.97255 144.74575 263.94518 144.4482 261.40377 143.92025 C 258.50104 143.32858 257.75084 141.54642 260.06434 140.6504 C 260.74745 140.3983 261.48225 140.6077 262.75455 141.39087 C 263.78696 142.0253 264.543 142.26506 264.51565 141.96751 C 264.50954 141.70032 263.64108 141.04158 262.64208 140.51949 C 260.58032 139.38422 259.9487 138.74062 260.58624 138.2942 C 261.1327 137.91157 263.7288 138.58221 264.50617 139.30473 C 264.82198 139.62653 265.34732 140.11833 265.64188 140.40976 C 266.57716 141.29318 267.58246 143.43966 268.29937 146.0143 Z" fill="#FFFFFF"/>
          </g>
          <g id="Graphic_58">
            <path d="M 294.168 145.09375 C 293.26626 145.22747 292.25225 145.847 292.13997 146.33282 C 292.13392 146.51803 292.39812 146.83072 292.8141 147.03713 C 293.50035 147.37102 293.56107 147.3285 293.901 146.45706 C 294.1833 145.76172 294.43526 145.54004 294.8998 145.62195 C 295.31276 145.69476 295.40383 145.63099 295.2125 145.35775 C 295.08497 145.1756 294.59915 145.06332 294.168 145.09375 Z" fill="black"/>
          </g>
          <g id="Graphic_57">
            <path d="M 283.81997 141.29989 C 283.50117 141.2969 283.5923 141.68552 284.145 142.47487 C 284.59143 143.11242 285.36588 144.60614 285.86703 145.83878 C 286.86628 148.17048 287.6254 148.54383 286.79315 146.32141 C 285.91534 143.90469 284.3331 141.25731 283.81997 141.29989 Z" fill="black"/>
          </g>
          <g id="Graphic_56">
            <path d="M 282.17433 141.27583 C 281.99217 141.40337 282.15326 142.60267 282.73047 144.91316 C 283.3806 147.71552 283.81774 147.04749 283.21615 144.12064 C 282.72092 141.79798 282.47792 141.06325 282.17433 141.27583 Z" fill="black"/>
          </g>
          <g id="Graphic_55">
            <path d="M 292.3325 229.8542 C 291.4171 230.50033 290.57386 231.034 290.38857 231.03723 C 289.83273 231.04693 288.60256 232.77352 287.82096 234.71468 C 287.1096 236.4322 286.89113 236.65843 285.96472 236.6746 C 285.0383 236.69077 284.77503 236.47296 284.2713 235.22144 C 283.49784 233.38157 280.6395 231.02207 278.81792 230.72025 C 277.4423 230.4848 276.42885 229.76112 276.86577 229.30868 C 276.97435 229.15851 277.67647 229.03506 278.38055 229.02277 C 279.4552 229.004 279.6021 228.9273 279.1861 228.4527 C 278.92152 228.16076 278.43526 227.90978 278.0647 227.91625 C 277.24945 227.93048 276.41804 227.0183 276.66514 226.3097 C 276.9129 225.63816 279.16752 225.2652 279.8436 225.77234 C 280.10686 225.99015 280.52548 226.613 280.7198 227.12856 C 280.9512 227.64346 281.17743 227.86192 281.28407 227.60058 C 281.53117 226.89198 279.97176 224.621 279.07788 224.37714 C 277.95972 224.02598 278.46557 223.2758 279.7632 223.29022 C 281.3579 223.3365 282.97333 224.5686 283.89502 226.4059 C 284.31817 227.28815 285.00265 228.27703 285.45444 228.6769 C 286.6967 229.76724 287.20127 228.94294 287.3992 225.41805 C 287.67987 220.26074 288.30937 218.09983 290.1208 215.69588 C 291.28007 214.15587 291.76698 214.4439 292.10548 216.8474 C 292.27375 217.99356 292.726 220.54334 293.1302 222.4638 C 294.3415 228.15108 294.31027 228.48524 292.3325 229.8542 Z" fill="#FFFFFF"/>
          </g>
        </g>
      </g>
    </g>
  </g>
</svg>
