<?xml version="1.0" encoding="UTF-8" standalone="no"?>
<!DOCTYPE svg PUBLIC "-//W3C//DTD SVG 1.1//EN" "http://www.w3.org/Graphics/SVG/1.1/DTD/svg11.dtd">
<svg xmlns="http://www.w3.org/2000/svg" xmlns:xl="http://www.w3.org/1999/xlink" version="1.1" xmlns:dc="http://purl.org/dc/elements/1.1/" viewBox="94.5 63 175.5 328.5" width="175.5" height="328.5">
  <defs>
    <clipPath id="artboard_clip_path">
      <path d="M 94.5 63 L 270 63 L 270 391.5 L 94.5 391.5 Z"/>
    </clipPath>
  </defs>
  <g id="Pear_(1)" stroke-opacity="1" fill="none" fill-opacity="1" stroke-dasharray="none" stroke="none">
    <title>Pear (1)</title>
    <g id="Pear_(1)_Layer_2" clip-path="url(#artboard_clip_path)">
      <title>Layer 2</title>
      <g id="Group_3">
        <g id="Graphic_20">
          <path d="M 210.7793 69.156315 C 209.80158 70.57046 208.64965 73.34255 208.25443 75.38885 C 207.8873 77.83691 205.78856 80.54063 202.59033 82.91751 C 199.77515 84.99845 196.64248 88.31278 195.44373 90.41527 C 194.38826 92.64231 189.78618 99.96213 185.29929 107.00475 C 178.61718 117.29614 176.40043 122.16136 173.88865 132.43029 C 172.09893 139.55346 170.75781 147.31814 170.92638 149.72874 C 171.27287 154.68387 169.78755 156.53724 164.1319 158.41307 C 153.9978 161.67868 142.60032 171.89607 138.55921 181.46449 C 135.90041 187.70638 135.55202 190.4223 136.16446 203.02972 C 136.82373 216.30677 135.10985 230.28807 132.31994 234.65505 C 131.69715 235.3715 130.6576 239.75065 129.75197 244.12045 C 128.57568 250.39326 126.93489 253.87242 122.34499 259.4419 C 111.42138 272.58685 100.97537 292.56185 99.45723 303.56876 C 97.98874 313.361 101.34794 344.07887 104.46653 350.18593 C 107.4231 355.9006 135.01852 381.02095 139.82754 382.43417 C 150.94683 385.55938 163.80993 386.67856 171.65516 385.3225 C 178.84015 384.1472 181.27884 384.3804 188.98452 386.80226 C 193.80291 388.3494 201.1752 389.85255 205.2116 389.83945 C 211.95454 390.0408 213.792 389.37402 224.92536 383.07784 C 231.66457 379.37673 238.41314 375.80955 239.98275 375.1615 C 244.56702 373.36057 264.22185 348.43516 263.95963 344.68533 C 263.89408 343.74787 265.1331 340.2968 266.6587 337.09484 C 269.23978 331.66585 269.39524 330.04005 268.0411 314.5238 C 265.84128 288.83878 262.7845 279.7667 250.00576 260.60827 L 239.32668 244.53287 L 239.20683 235.12085 C 239.04298 223.15493 234.99446 205.67384 231.01615 198.81944 C 229.20305 195.98552 227.73554 192.31998 227.62316 190.7129 C 227.52015 189.23976 225.5104 183.59348 223.25153 178.23377 C 219.26666 169.36116 218.37885 168.21205 211.08712 164.01174 C 206.73886 161.48967 200.58406 158.1519 197.3821 156.6263 C 194.04623 155.11006 191.3706 153.41308 191.3425 153.0113 C 191.30504 152.47562 193.51244 147.47648 196.07477 141.77964 C 198.77103 136.07343 202.5134 128.00626 204.50913 123.82939 C 206.37094 119.66188 209.9672 113.35443 212.41153 109.81908 C 214.98978 106.27436 218.144 101.34359 219.71642 98.81125 C 222.0081 95.01741 223.3005 94.25415 227.58601 93.95448 C 231.60369 93.67354 233.2885 92.74826 235.86674 89.20354 C 237.83157 86.50918 238.71565 83.75581 238.32606 82.03355 C 237.81192 80.45458 236.88946 76.8855 236.3004 74.235145 C 234.7514 67.48002 230.9763 65.45619 220.7982 66.16791 C 214.63778 66.59869 212.1307 67.31231 210.7793 69.156315 Z" fill="black"/>
        </g>
        <g id="Graphic_19">
          <path d="M 228.70428 75.30463 C 232.8596 78.9168 230.0238 88.40092 224.80082 88.76615 C 216.89004 89.18475 212.937 84.61639 215.55834 77.83881 C 216.4518 75.21936 217.7442 74.4561 221.89578 74.1658 C 224.70815 73.96914 227.70127 74.43272 228.70428 75.30463 Z" fill="#FFFFFF"/>
        </g>
        <g id="Graphic_18">
          <path d="M 213.3425 88.49078 C 215.49836 92.37734 214.0664 96.91852 208.9408 102.52545 C 203.317 108.70553 199.702 114.74513 192.9178 129.35014 C 185.92195 144.7774 185.34599 146.16346 184.68666 152.13096 C 184.26053 155.65976 183.54128 156.92125 181.53244 157.06173 C 179.12184 157.2303 178.7978 156.44549 178.7407 149.8552 C 178.53376 141.12215 183.74461 123.26273 189.17177 114.27028 C 191.2237 110.89694 194.95388 104.58013 197.47594 100.23188 C 203.613 89.84402 206.84212 85.98463 209.52057 85.79733 C 210.72587 85.71305 212.4266 86.9399 213.3425 88.49078 Z" fill="#FFFFFF"/>
        </g>
        <g id="Graphic_17">
          <path d="M 187.13937 162.18732 L 187.13937 162.18732 C 181.90985 160.53434 169.77628 164.07435 160.74821 169.685 C 157.65582 171.65076 148.60994 182.78033 146.74812 186.94784 C 145.92304 188.62046 145.24217 196.2044 145.2309 203.7415 C 145.037 218.2894 142.96818 232.9684 139.7025 242.07887 C 134.64993 256.4282 132.79748 260.72964 131.86003 260.7952 C 131.32434 260.83265 129.84837 262.81994 128.66835 265.19027 C 127.47896 267.42668 124.66096 271.3919 122.4002 273.70322 C 120.1488 276.14846 117.03204 281.61492 115.71528 285.8789 C 114.40788 290.2768 112.01693 296.49995 110.64398 299.9604 C 105.31701 312.31026 107.46344 335.30745 115.15222 349.035 C 119.45457 356.6742 128.53785 365.32485 136.20325 369.0953 C 139.8257 370.86066 145.2828 373.8435 148.25437 375.9235 C 152.774 378.9719 155.2408 379.60687 161.95565 379.40648 C 171.90336 379.24917 174.69982 376.9004 179.86477 364.1581 C 181.82304 359.44555 183.73168 355.94766 184.42939 356.3026 C 184.9838 356.533 185.36685 356.23705 185.32939 355.70136 C 185.28256 355.03175 182.62566 353.6026 179.44243 352.34485 C 174.0509 350.29948 173.46838 349.66732 172.70139 344.47244 C 171.7162 338.08163 175.20289 328.28283 178.88716 327.08316 C 180.19829 326.58775 185.37444 325.5529 190.42603 324.66136 C 195.47762 323.7698 202.3573 322.07754 205.63044 320.77204 C 208.90358 319.46654 212.86507 318.38207 214.47213 318.2697 C 218.22196 318.00748 224.41238 310.30743 223.14434 307.56998 C 222.33426 305.60796 221.79857 305.64542 217.8249 308.48026 C 211.29454 313.24338 196.02457 316.19524 184.23285 315.00114 C 178.81977 314.5722 174.31605 313.67593 174.26922 313.0063 C 174.23177 312.47063 181.27346 311.17076 189.95032 310.1603 C 202.77878 308.8595 206.87418 307.76566 213.11516 304.6377 C 222.19942 299.83057 224.2298 298.07367 221.9372 296.08075 C 220.7909 295.0843 218.65752 295.36804 213.93932 297.17832 C 210.54162 298.6271 205.54622 300.3222 203.03916 301.0358 C 196.04428 303.0053 179.9174 303.32553 177.91139 301.58172 C 176.6218 300.4607 178.20078 299.94656 185.81562 299.14492 C 195.42994 298.0689 213.27534 293.4566 217.53558 290.87087 C 220.12038 289.34435 220.09137 283.15583 217.338 282.27175 C 216.23853 281.9449 212.95602 283.11647 209.98819 284.93893 C 202.3677 289.50912 183.65322 293.24016 178.52952 291.17605 C 174.78251 289.554 175.18428 289.5259 185.9477 287.56204 C 192.2046 286.5862 199.85036 284.30206 203.10477 282.72872 C 206.34982 281.02146 210.13992 279.41065 211.6037 279.17372 C 213.05812 278.80286 214.1885 277.6472 214.11358 276.57582 C 214.03866 275.50444 213.05438 274.90038 212.00173 275.24315 C 210.94909 275.5859 207.64785 276.48964 204.74838 277.36528 C 201.83955 278.107 197.112 279.78335 194.11606 281.20404 C 189.15811 283.4348 188.07737 283.3758 179.73954 281.53646 C 174.6814 280.4098 170.27414 278.9685 169.82555 278.32697 C 168.04055 275.89482 172.96758 275.14656 178.88545 277.02055 C 183.97168 278.54897 186.1238 278.53306 192.73564 276.85952 C 201.1943 274.6531 213.68843 266.64684 219.26543 259.79715 C 225.58978 252.08773 229.89776 255.9584 224.00327 264.04147 C 222.2782 266.31533 221.24146 268.81022 221.82397 269.44237 C 223.02646 271.24237 225.14112 270.69077 224.9913 268.548 C 224.79463 265.73564 228.49108 262.7856 230.21053 264.2803 C 232.07326 265.89955 229.6823 272.12272 225.66837 276.30614 C 222.7848 279.3339 222.68835 279.87895 224.33942 282.32047 C 226.2677 284.87717 232.0882 281.50947 232.87863 277.41688 C 233.1493 275.51387 234.1083 273.83188 234.91183 273.7757 C 235.84928 273.71014 236.2014 274.8967 235.65354 276.68453 C 235.2396 278.46298 235.0064 280.90167 235.23396 282.23153 C 235.31824 283.43683 233.99493 285.6826 232.19494 286.8851 C 230.53823 288.21213 229.1962 290.19006 229.26175 291.1275 C 229.46777 294.0738 231.16194 293.28245 234.71792 288.3236 C 236.42427 285.7819 238.45465 284.02498 238.89387 284.53257 C 240.7566 286.15182 238.65223 292.6241 235.04005 296.77943 C 230.6899 301.9284 233.25316 302.01832 239.09519 297.03418 C 244.17114 292.6419 243.5109 292.82266 246.37663 295.3138 C 248.52594 297.18218 248.171 297.8799 242.03958 304.4992 C 238.40868 308.38667 233.72513 312.6169 231.53273 313.98142 C 226.63098 317.01573 226.8801 316.72915 227.99548 319.20813 C 229.41617 322.20406 231.263 321.6712 232.34 317.8277 C 233.23345 315.20827 236.93927 312.39216 246.91416 306.84987 C 247.43112 306.54457 247.89844 307.45393 248.00145 308.92707 C 248.26366 312.6769 236.9411 323.96568 227.24342 329.62316 C 222.71534 332.2276 214.724 335.3434 209.69114 336.50278 C 204.52436 337.67154 200.31376 339.0426 200.34185 339.44436 C 200.36995 339.84613 204.01395 339.99504 208.2901 339.56145 C 212.57561 339.26178 215.62773 338.6446 214.7961 338.29904 C 213.12348 337.47396 220.24291 335.3612 226.40334 334.9304 C 229.48356 334.71503 231.42684 333.6371 233.1332 331.0954 C 234.47523 329.11746 236.24713 327.5132 237.1846 327.44766 C 238.12204 327.3821 240.8033 325.31053 243.198 322.98984 C 245.58332 320.53523 249.31723 318.1209 251.42253 317.43537 C 253.40327 316.89313 255.31846 315.41344 255.63594 314.18004 C 256.34865 310.90035 254.83994 302.79664 252.89292 299.9721 C 252.1203 298.54576 250.22292 294.50655 248.8987 290.96556 C 246.5649 284.53447 230.78184 253.20502 227.32703 248.0635 C 226.4205 246.64656 224.97733 239.4803 224.19443 232.1333 C 223.41152 224.7863 221.81853 215.47729 220.86798 211.50644 C 219.7835 207.54496 218.9294 203.02905 218.8264 201.5559 C 218.11186 193.26209 216.074 187.21403 212.07415 181.97606 C 209.56335 178.7872 207.09 176.13404 206.55432 176.1715 C 206.01863 176.20895 204.99126 178.83776 204.13527 181.9929 C 202.50102 187.49026 200.48 189.3811 187.51855 196.478 C 184.28287 198.31918 183.3576 196.63438 185.99203 193.8932 C 191.02116 188.83132 202.33062 173.50615 201.61419 172.88336 C 201.18433 172.50969 198.41596 175.26024 195.45468 179.1009 C 191.5063 184.22177 188.30807 186.59865 184.24076 188.09426 C 181.0828 189.12255 178.17398 189.86426 177.87804 189.48122 C 176.58845 188.3602 180.39073 184.99905 185.25221 183.31333 C 192.98507 180.3502 199.73836 167.2277 193.31008 167.67722 C 192.37263 167.74277 190.09313 169.78625 188.2435 172.2034 C 186.40322 174.75448 184.36348 176.37746 183.92425 175.86986 C 183.36047 175.50555 184.54986 173.26915 186.2843 171.1292 C 190.0023 166.56275 190.4378 163.16786 187.13937 162.18732 Z" fill="#FFFFFF"/>
        </g>
        <g id="Graphic_16">
          <path d="M 222.91016 323.46647 C 221.6365 324.49757 218.56283 326.73116 216.2646 328.5068 C 212.94182 331.02696 209.64995 332.0646 201.63334 332.89434 L 191.3494 334.0172 L 191.724 339.3741 C 191.88038 343.53505 191.31378 345.055 188.6138 346.85875 C 185.77988 348.67184 184.57457 348.75612 180.86502 347.66975 C 173.14061 344.98004 175.96706 335.362 185.21052 332.83154 C 187.32519 332.27994 189.4024 331.19265 189.7667 330.62886 C 190.12164 329.93116 193.29832 329.1707 196.7803 328.92723 C 200.3962 328.67438 205.4197 327.38106 208.15716 326.11302 C 210.75132 324.72043 214.06192 323.9506 215.56316 324.24937 C 216.93048 324.5575 219.1978 324.26437 220.3469 323.37655 C 223.56386 321.2675 225.85927 321.37616 222.91016 323.46647 Z" fill="#FFFFFF"/>
        </g>
        <g id="Graphic_15">
          <path d="M 254.32383 328.13325 C 253.12508 330.23573 251.459 331.42885 249.95777 331.1301 C 248.59045 330.82198 246.2454 331.928 244.74135 333.51352 C 243.24665 335.23297 241.18818 336.5881 240.1168 336.66302 C 239.04542 336.73794 234.2776 339.7629 229.42266 343.4668 C 224.70165 347.16136 220.20166 350.16758 219.53205 350.2144 C 218.99636 350.25186 215.74195 351.8252 212.37234 353.67575 C 203.1729 358.7601 209.0842 358.6159 221.23931 353.45945 C 233.00202 348.46502 237.6453 345.58337 242.78962 340.2443 C 244.92583 338.07625 247.90303 336.3877 249.65338 336.3999 C 255.8419 336.37088 252.76543 340.48875 241.12446 347.22416 C 237.11334 349.5233 232.36424 352.8161 230.4584 354.4297 C 227.03917 357.49493 214.0028 363.52046 206.7307 365.37474 C 202.09961 366.50604 201.72594 366.9359 202.99398 369.67336 C 203.7947 371.50145 205.15265 371.67564 210.18551 370.51625 C 213.6394 369.871 217.30494 368.4035 218.31077 367.3911 C 219.44115 366.23545 222.409 364.413 224.88796 363.2976 C 227.35757 362.0483 232.14413 359.2912 235.35172 357.04824 C 238.5593 354.8053 242.57043 352.50614 244.27396 351.8487 L 247.1547 350.70523 L 244.3648 355.0722 C 239.0341 363.5196 228.5516 369.5011 211.50038 373.9233 C 206.74472 375.1979 202.94526 376.6748 202.99208 377.3444 C 203.08573 378.6836 195.22458 377.88755 186.60018 375.7991 C 180.98762 374.44204 180.28055 373.9532 180.90615 371.35247 C 182.0047 365.89256 184.0941 363.0549 187.2895 362.5623 C 189.82466 362.25046 190.56264 361.2568 190.59637 357.89002 C 190.73874 352.22782 192.78785 350.73876 203.5419 348.641 C 208.97654 347.4535 215.93396 344.94834 220.5866 342.2006 C 224.99012 339.73944 230.45566 337.06944 232.83817 336.4991 C 236.52244 335.29944 243.26165 331.59833 252.38618 325.4426 C 255.85225 323.047 256.58742 323.93764 254.32383 328.13325 Z" fill="#FFFFFF"/>
        </g>
        <g id="Graphic_14">
          <path d="M 149.36004 199.28088 C 149.6007 204.64714 149.65781 211.23743 149.30005 213.8194 C 147.5459 229.1493 146.79292 233.77758 146.02403 236.25373 C 145.45743 237.7737 143.708 243.54828 142.21704 249.1702 C 140.61089 255.06934 137.94272 261.1773 135.8346 263.74712 C 133.70776 266.04908 132.67103 268.54396 133.24418 269.0422 C 134.96362 270.53688 141.47244 267.3902 141.32261 265.24744 C 141.25706 264.30998 142.97558 260.01792 145.10524 255.83168 C 152.67425 240.90264 154.23639 232.44962 153.32335 209.7699 C 152.69781 193.12608 152.16776 189.39498 150.69461 189.498 C 149.22146 189.601 148.98826 192.0397 149.36004 199.28088 Z" fill="black"/>
        </g>
        <g id="Graphic_13">
          <path d="M 201.08498 194.18357 C 197.44472 197.93713 193.32777 200.6474 189.50957 201.85644 C 180.16029 204.79801 179.89244 204.81674 180.78962 206.09978 C 182.43133 208.40737 188.99353 207.9485 196.60183 205.12866 C 208.00023 200.69802 210.91188 198.07203 210.0297 193.15436 C 209.60264 190.8964 208.64927 188.80984 207.96093 188.58882 C 207.13867 188.37716 204.08373 190.8786 201.08498 194.18357 Z" fill="black"/>
        </g>
        <g id="Graphic_12">
          <path d="M 203.002 204.27738 C 199.11544 206.43324 194.45344 209.04705 192.65344 210.24954 C 190.85345 211.45202 187.23473 213.58915 184.64056 214.98175 C 181.92184 216.51763 179.75754 218.2839 179.795 218.8196 C 179.99166 221.63196 185.17717 220.73104 194.1556 216.33505 C 199.75506 213.65568 205.3639 211.11024 206.9335 210.46217 C 210.61777 209.2625 215.56262 202.99533 214.23557 201.33862 C 212.88044 199.28015 211.03362 199.81302 203.002 204.27738 Z" fill="black"/>
        </g>
        <g id="Graphic_11">
          <path d="M 207.51975 214.9968 C 202.7491 219.90603 189.1274 227.18368 183.90442 227.5489 C 183.10088 227.6051 181.54064 228.38708 180.51608 229.1316 C 178.85938 230.45866 178.8781 230.7265 180.70338 231.81006 C 184.06735 233.72806 188.04757 232.91143 197.40903 228.2195 C 207.03835 223.50883 217.4019 213.90205 215.99058 211.04004 C 214.72254 208.30258 213.67926 208.77927 207.51975 214.9968 Z" fill="black"/>
        </g>
        <g id="Graphic_10">
          <path d="M 211.0092 222.55828 C 209.97527 223.16889 208.08818 225.05035 206.86133 226.75106 C 203.9375 231.1274 197.83981 234.37993 188.71155 236.63316 C 175.73699 239.69367 171.23419 244.58416 182.21582 243.81625 C 188.91194 243.348 200.63437 239.70218 206.05309 236.36257 C 210.1794 233.7862 218.05744 223.2766 216.7585 222.02167 C 215.75548 221.14977 213.74665 221.29024 211.0092 222.55828 Z" fill="black"/>
        </g>
        <g id="Graphic_9">
          <path d="M 210.50062 236.4553 C 208.10593 238.77598 204.59959 242.52018 202.5973 244.67885 C 199.34944 248.2704 197.90439 248.77517 185.783 250.56482 C 166.71639 253.1093 165.9194 255.18368 183.61307 256.09965 C 192.67015 256.6775 194.93747 256.3844 197.36961 254.5994 C 199.02632 253.27235 202.15618 251.8423 204.3954 251.1474 C 209.93585 249.54878 221.83438 236.87396 220.42306 234.01195 C 218.98363 230.74817 215.27127 231.54607 210.50062 236.4553 Z" fill="black"/>
        </g>
        <g id="Graphic_8">
          <path d="M 217.39805 248.48866 C 209.33271 256.31982 201.1859 261.0614 193.48397 262.542 C 176.21453 265.76826 174.7882 266.54088 183.90148 267.92228 C 190.43276 268.94592 205.39743 265.4771 210.52957 261.88837 C 212.7126 260.38994 215.4407 258.98798 216.37815 258.92243 C 218.2437 258.6574 224.17472 245.32325 223.01906 244.19286 C 222.59856 243.9531 220.17578 245.87203 217.39805 248.48866 Z" fill="black"/>
        </g>
        <g id="Graphic_7">
          <path d="M 151.8256 290.35183 C 151.47065 291.04953 151.78532 291.7004 152.45494 291.6536 C 153.25847 291.5974 153.88126 290.88097 153.83443 290.21136 C 153.77825 289.40782 153.47294 288.89086 153.2051 288.9096 C 152.80333 288.9377 152.17118 289.5202 151.8256 290.35183 Z" fill="black"/>
        </g>
        <g id="Graphic_6">
          <path d="M 147.93622 294.39196 C 147.17014 294.98384 144.61062 298.7964 142.19439 302.73353 C 137.97534 309.7574 137.77305 310.7136 138.4754 320.75778 C 139.13094 330.13234 139.65445 331.84524 142.84423 335.1212 C 144.87834 337.26677 146.52005 339.57436 146.56688 340.24397 C 146.62307 341.0475 148.62909 342.7913 150.88422 344.24855 C 153.27328 345.6964 155.1641 347.71743 155.23902 348.7888 C 155.38886 350.93157 150.99752 351.64237 147.10722 349.89575 C 144.04855 348.4947 135.41294 334.6988 135.132 330.68113 C 135.02899 329.208 134.38092 327.63837 133.5493 327.2928 C 132.85159 326.93785 131.8823 322.69916 131.54517 317.87795 C 130.93646 309.173 129.89599 307.7654 127.06863 311.5967 C 125.96634 313.15413 125.95134 316.78876 127.18284 324.7773 C 129.74885 342.22747 130.83614 344.30467 141.1088 350.71893 C 150.97034 357.02736 156.93784 357.6867 166.60461 353.5117 L 171.438 351.42423 L 162.14025 345.4801 C 155.3842 341.24233 152.06987 338.10966 149.88592 333.82133 C 144.62084 323.96163 144.30244 319.40827 148.08134 306.09003 C 149.90851 299.50256 151.39947 293.88063 151.38074 293.6128 C 151.32455 292.80925 149.46837 293.2082 147.93622 294.39196 Z" fill="black"/>
        </g>
        <g id="Graphic_5">
          <path d="M 111.76028 308.2261 C 109.31314 313.64575 109.50227 327.8977 112.16664 337.1318 C 115.75347 349.935 122.2454 358.09396 135.20306 366.33913 C 142.95275 371.3149 158.2049 373.88193 163.67044 371.21193 C 166.53245 369.8006 166.3798 369.54213 160.69887 369.1319 C 149.58613 368.0249 143.40978 366.30356 138.32636 362.89087 C 131.81944 358.3665 126.58618 352.81107 124.95665 348.75312 C 124.28986 346.91567 122.1621 343.43087 120.24317 341.0081 C 118.32425 338.5853 116.60762 335.20633 116.48588 333.46534 C 116.36414 331.72435 115.41358 327.7535 114.39466 324.72948 C 112.8335 319.7247 112.8644 318.2422 115.0718 313.24306 C 117.37566 307.69887 117.179 304.8865 114.50055 305.0738 C 113.83094 305.12062 112.58536 306.5535 111.76028 308.2261 Z" fill="black"/>
        </g>
        <g id="Graphic_4">
          <path d="M 200.1114 359.24333 C 200.93367 359.455 202.54074 359.3426 203.45946 359.0092 C 204.2349 358.55125 203.54656 358.33023 201.67165 358.46134 C 199.79674 358.59244 199.14585 358.9071 200.1114 359.24333 Z" fill="black"/>
        </g>
      </g>
    </g>
  </g>
</svg>
