<?xml version="1.0" encoding="UTF-8" standalone="no"?>
<!DOCTYPE svg PUBLIC "-//W3C//DTD SVG 1.1//EN" "http://www.w3.org/Graphics/SVG/1.1/DTD/svg11.dtd">
<svg xmlns:xl="http://www.w3.org/1999/xlink" xmlns="http://www.w3.org/2000/svg" xmlns:dc="http://purl.org/dc/elements/1.1/" version="1.1" viewBox="33.75 85.5 297 306" width="297" height="306">
  <defs>
    <clipPath id="artboard_clip_path">
      <path d="M 33.75 85.5 L 330.75 85.5 L 330.75 367.3758 L 330.75 391.5 L 33.75 391.5 Z"/>
    </clipPath>
  </defs>
  <g id="Pelican_Vulning_Itself_(2)" stroke-opacity="1" stroke="none" stroke-dasharray="none" fill="none" fill-opacity="1">
    <title>Pelican Vulning Itself (2)</title>
    <g id="Pelican_Vulning_Itself_(2)_Layer_2" clip-path="url(#artboard_clip_path)">
      <title>Layer 2</title>
      <g id="Group_1728">
        <g id="Graphic_1813">
          <path d="M 185.8212 247.33222 C 192.14526 271.68886 190.98392 297.38586 182.4886 321.07276 C 177.80208 323.7909 174.46093 328.3398 173.26914 333.6248 C 167.24112 336.34484 160.17767 335.27068 155.23074 330.88165 C 154.47324 328.0645 151.5754 326.3948 148.75823 327.1523 C 145.94107 327.9098 144.27138 330.80765 145.02889 333.6248 C 145.4232 335.41496 146.59668 336.9353 148.22853 337.77025 C 149.86039 338.6052 151.77994 338.6674 153.46242 337.93983 L 163.4678 339.89707 L 151.70166 339.1187 C 149.48175 338.94582 147.3878 340.1693 146.4485 342.18813 C 145.5092 344.20693 145.92197 346.59674 147.48402 348.1835 C 149.04608 349.7703 151.42912 350.2205 153.46242 349.313 C 155.60241 347.46324 158.28747 346.36216 161.11004 346.1769 C 165.09703 346.03826 168.99555 344.96397 172.49078 343.04076 C 170.12661 346.291 166.62414 348.53066 162.68188 349.313 C 160.8766 349.02355 159.0656 349.79715 158.02661 351.3016 C 156.98762 352.80603 156.9055 354.7736 157.81553 356.3594 C 158.72556 357.94518 160.46579 358.86698 162.28892 358.72895 C 163.4588 359.2089 164.79932 358.9882 165.75363 358.1586 C 166.70793 357.32896 167.11294 356.03217 166.8004 354.8069 C 167.2473 352.6908 169.15045 351.20207 171.3119 351.2778 C 177.41108 349.3246 182.532 345.11216 185.62472 339.5041 C 189.38856 341.07954 193.62703 341.07954 197.39087 339.5041 C 199.77603 340.48738 202.51998 339.53793 203.7874 337.29083 C 205.0548 335.04372 204.44784 332.2043 202.37249 330.67175 C 200.29713 329.1392 197.40482 329.39457 195.6301 331.26706 C 194.90814 332.5936 193.4873 333.38634 191.97927 333.304 C 190.47123 333.22165 189.14516 332.27892 188.57193 330.88165 L 189.74325 319.89387 C 192.0708 304.23077 196.42217 288.93616 202.68828 274.3936 C 204.24354 269.36277 202.79796 263.8854 198.9627 260.27724 L 193.27234 242.62425 C 191.85195 240.8888 189.36046 240.48496 187.4646 241.68285 C 185.56874 242.88074 184.86373 245.3043 185.8212 247.33222 Z" fill="#FFFFFF"/>
          <path d="M 185.8212 247.33222 C 192.14526 271.68886 190.98392 297.38586 182.4886 321.07276 C 177.80208 323.7909 174.46093 328.3398 173.26914 333.6248 C 167.24112 336.34484 160.17767 335.27068 155.23074 330.88165 C 154.47324 328.0645 151.5754 326.3948 148.75823 327.1523 C 145.94107 327.9098 144.27138 330.80765 145.02889 333.6248 C 145.4232 335.41496 146.59668 336.9353 148.22853 337.77025 C 149.86039 338.6052 151.77994 338.6674 153.46242 337.93983 L 163.4678 339.89707 L 151.70166 339.1187 C 149.48175 338.94582 147.3878 340.1693 146.4485 342.18813 C 145.5092 344.20693 145.92197 346.59674 147.48402 348.1835 C 149.04608 349.7703 151.42912 350.2205 153.46242 349.313 C 155.60241 347.46324 158.28747 346.36216 161.11004 346.1769 C 165.09703 346.03826 168.99555 344.96397 172.49078 343.04076 C 170.12661 346.291 166.62414 348.53066 162.68188 349.313 C 160.8766 349.02355 159.0656 349.79715 158.02661 351.3016 C 156.98762 352.80603 156.9055 354.7736 157.81553 356.3594 C 158.72556 357.94518 160.46579 358.86698 162.28892 358.72895 C 163.4588 359.2089 164.79932 358.9882 165.75363 358.1586 C 166.70793 357.32896 167.11294 356.03217 166.8004 354.8069 C 167.2473 352.6908 169.15045 351.20207 171.3119 351.2778 C 177.41108 349.3246 182.532 345.11216 185.62472 339.5041 C 189.38856 341.07954 193.62703 341.07954 197.39087 339.5041 C 199.77603 340.48738 202.51998 339.53793 203.7874 337.29083 C 205.0548 335.04372 204.44784 332.2043 202.37249 330.67175 C 200.29713 329.1392 197.40482 329.39457 195.6301 331.26706 C 194.90814 332.5936 193.4873 333.38634 191.97927 333.304 C 190.47123 333.22165 189.14516 332.27892 188.57193 330.88165 L 189.74325 319.89387 C 192.0708 304.23077 196.42217 288.93616 202.68828 274.3936 C 204.24354 269.36277 202.79796 263.8854 198.9627 260.27724 L 193.27234 242.62425 C 191.85195 240.8888 189.36046 240.48496 187.4646 241.68285 C 185.56874 242.88074 184.86373 245.3043 185.8212 247.33222 Z" stroke="black" stroke-linecap="round" stroke-linejoin="round" stroke-width="1.5"/>
        </g>
        <g id="Graphic_1812">
          <path d="M 149.31604 329.17786 C 146.37372 327.3043 142.59198 327.38994 139.73748 329.39476 C 136.88298 331.39958 135.51915 334.92787 136.2831 338.33137 C 136.6678 336.011 138.23397 334.05887 140.41575 333.18026 C 142.59753 332.30166 145.07948 332.6236 146.96487 334.0298 C 148.28298 334.5619 149.78797 333.98175 150.40784 332.70257 C 151.0277 331.4234 150.55046 329.88267 149.31604 329.17786 Z" fill="#FFFFFF"/>
          <path d="M 149.31604 329.17786 C 146.37372 327.3043 142.59198 327.38994 139.73748 329.39476 C 136.88298 331.39958 135.51915 334.92787 136.2831 338.33137 C 136.6678 336.011 138.23397 334.05887 140.41575 333.18026 C 142.59753 332.30166 145.07948 332.6236 146.96487 334.0298 C 148.28298 334.5619 149.78797 333.98175 150.40784 332.70257 C 151.0277 331.4234 150.55046 329.88267 149.31604 329.17786 Z" stroke="black" stroke-linecap="round" stroke-linejoin="round" stroke-width="1.1335398"/>
        </g>
        <g id="Graphic_1811">
          <path d="M 149.1079 341.89502 C 145.78092 340.84684 142.1502 341.90834 139.91186 344.58365 C 137.67351 347.25895 137.26934 351.02 138.88815 354.1098 C 138.65919 351.76894 139.66674 349.47796 141.54678 348.0646 C 143.42681 346.65126 145.90752 346.31987 148.09262 347.19017 C 149.50354 347.363 150.80708 346.41308 151.07475 345.01705 C 151.34242 343.62102 150.48267 342.25632 149.1079 341.89502 Z" fill="#FFFFFF"/>
          <path d="M 149.1079 341.89502 C 145.78092 340.84684 142.1502 341.90834 139.91186 344.58365 C 137.67351 347.25895 137.26934 351.02 138.88815 354.1098 C 138.65919 351.76894 139.66674 349.47796 141.54678 348.0646 C 143.42681 346.65126 145.90752 346.31987 148.09262 347.19017 C 149.50354 347.363 150.80708 346.41308 151.07475 345.01705 C 151.34242 343.62102 150.48267 342.25632 149.1079 341.89502 Z" stroke="black" stroke-linecap="round" stroke-linejoin="round" stroke-width="1.1335398"/>
        </g>
        <g id="Graphic_1810">
          <path d="M 200.36036 331.0853 C 203.68733 330.0371 207.31805 331.0986 209.5564 333.7739 C 211.79475 336.4492 212.19892 340.21027 210.5801 343.30007 C 210.80906 340.9592 209.8015 338.66823 207.92148 337.25488 C 206.04144 335.84152 203.56073 335.51013 201.37563 336.38044 C 199.96472 336.55326 198.66117 335.60334 198.3935 334.2073 C 198.12583 332.8113 198.98558 331.4466 200.36036 331.0853 Z" fill="#FFFFFF"/>
          <path d="M 200.36036 331.0853 C 203.68733 330.0371 207.31805 331.0986 209.5564 333.7739 C 211.79475 336.4492 212.19892 340.21027 210.5801 343.30007 C 210.80906 340.9592 209.8015 338.66823 207.92148 337.25488 C 206.04144 335.84152 203.56073 335.51013 201.37563 336.38044 C 199.96472 336.55326 198.66117 335.60334 198.3935 334.2073 C 198.12583 332.8113 198.98558 331.4466 200.36036 331.0853 Z" stroke="black" stroke-linecap="round" stroke-linejoin="round" stroke-width="1.1335398"/>
        </g>
        <g id="Graphic_1809">
          <path d="M 108.44702 88.86536 C 104.63618 92.28277 102.20692 98.43609 101.75385 105.81912 C 101.30079 113.20214 102.86574 121.13344 106.06565 127.6716 C 113.13288 140.23134 120.96205 151.8571 129.3819 162.2946 C 132.31833 165.6142 132.64001 170.85547 130.10411 174.0618 C 127.5682 177.26814 123.11478 177.25093 120.10571 174.02318 C 111.88271 161.92234 103.8595 149.65091 96.04124 137.21679 C 91.10682 128.40921 89.63916 117.84664 92.04622 108.46513 C 94.45329 99.08362 100.47849 91.8832 108.44702 88.86536 Z" fill="#FFFFFF"/>
          <path d="M 108.44702 88.86536 C 104.63618 92.28277 102.20692 98.43609 101.75385 105.81912 C 101.30079 113.20214 102.86574 121.13344 106.06565 127.6716 C 113.13288 140.23134 120.96205 151.8571 129.3819 162.2946 C 132.31833 165.6142 132.64001 170.85547 130.10411 174.0618 C 127.5682 177.26814 123.11478 177.25093 120.10571 174.02318 C 111.88271 161.92234 103.8595 149.65091 96.04124 137.21679 C 91.10682 128.40921 89.63916 117.84664 92.04622 108.46513 C 94.45329 99.08362 100.47849 91.8832 108.44702 88.86536 Z" stroke="black" stroke-linecap="round" stroke-linejoin="round" stroke-width="1.5113863"/>
        </g>
        <g id="Graphic_1808">
          <path d="M 84.82902 93.64058 C 81.4741 97.62883 79.8823 104.44704 80.44326 112.42632 C 81.00422 120.4056 83.66615 128.80951 87.7775 135.58103 C 96.59931 148.51377 106.05741 160.37962 115.9449 170.91904 C 119.33828 174.2534 120.37448 179.85407 118.27325 183.50383 C 116.17203 187.1536 111.70957 187.50423 108.24606 184.2917 C 98.32707 171.94644 88.58515 159.40135 79.02658 146.66451 C 72.86257 137.59311 69.93689 126.35117 71.0627 116.06326 C 72.188515 105.77534 77.24582 97.53796 84.82902 93.64058 Z" fill="#FFFFFF"/>
          <path d="M 84.82902 93.64058 C 81.4741 97.62883 79.8823 104.44704 80.44326 112.42632 C 81.00422 120.4056 83.66615 128.80951 87.7775 135.58103 C 96.59931 148.51377 106.05741 160.37962 115.9449 170.91904 C 119.33828 174.2534 120.37448 179.85407 118.27325 183.50383 C 116.17203 187.1536 111.70957 187.50423 108.24606 184.2917 C 98.32707 171.94644 88.58515 159.40135 79.02658 146.66451 C 72.86257 137.59311 69.93689 126.35117 71.0627 116.06326 C 72.188515 105.77534 77.24582 97.53796 84.82902 93.64058 Z" stroke="black" stroke-linecap="round" stroke-linejoin="round" stroke-width="1.5113863"/>
        </g>
        <g id="Graphic_1807">
          <path d="M 60.164564 111.87182 C 58.132096 116.89224 58.82684 124.6687 62.078774 133.29818 C 65.33071 141.92766 70.83978 150.6139 77.25783 157.23123 C 90.49483 169.6834 104.01307 180.84324 117.51678 190.46658 C 122.07838 193.44615 125.0345 199.4037 124.14624 203.82714 C 123.25798 208.25058 118.85615 209.49255 114.27458 206.61242 C 100.13233 195.019 86.10099 183.17226 72.18959 171.07982 C 62.92871 162.34269 56.195894 150.5977 53.8627 139.10968 C 51.5295 127.62165 53.84464 117.61518 60.164564 111.87182 Z" fill="#FFFFFF"/>
          <path d="M 60.164564 111.87182 C 58.132096 116.89224 58.82684 124.6687 62.078774 133.29818 C 65.33071 141.92766 70.83978 150.6139 77.25783 157.23123 C 90.49483 169.6834 104.01307 180.84324 117.51678 190.46658 C 122.07838 193.44615 125.0345 199.4037 124.14624 203.82714 C 123.25798 208.25058 118.85615 209.49255 114.27458 206.61242 C 100.13233 195.019 86.10099 183.17226 72.18959 171.07982 C 62.92871 162.34269 56.195894 150.5977 53.8627 139.10968 C 51.5295 127.62165 53.84464 117.61518 60.164564 111.87182 Z" stroke="black" stroke-linecap="round" stroke-linejoin="round" stroke-width="1.5113863"/>
        </g>
        <g id="Graphic_1806">
          <path d="M 36.01923 182.1556 C 37.67556 187.00071 42.39529 191.64712 49.02338 194.95773 C 55.651466 198.26834 63.5763 199.93767 70.85847 199.5572 C 85.20921 197.97815 98.99797 195.3322 111.92317 191.67722 C 116.15039 190.2092 121.18448 191.95889 123.16712 195.58524 C 125.14977 199.2116 123.33018 203.3414 119.10296 204.80942 C 104.72069 207.63137 90.25953 210.20263 75.72876 212.52154 C 65.67329 213.6088 55.359805 210.81876 47.65508 204.92694 C 39.950354 199.03513 35.67567 190.66958 36.01923 182.1556 Z" fill="#FFFFFF"/>
          <path d="M 36.01923 182.1556 C 37.67556 187.00071 42.39529 191.64712 49.02338 194.95773 C 55.651466 198.26834 63.5763 199.93767 70.85847 199.5572 C 85.20921 197.97815 98.99797 195.3322 111.92317 191.67722 C 116.15039 190.2092 121.18448 191.95889 123.16712 195.58524 C 125.14977 199.2116 123.33018 203.3414 119.10296 204.80942 C 104.72069 207.63137 90.25953 210.20263 75.72876 212.52154 C 65.67329 213.6088 55.359805 210.81876 47.65508 204.92694 C 39.950354 199.03513 35.67567 190.66958 36.01923 182.1556 Z" stroke="black" stroke-linecap="round" stroke-linejoin="round" stroke-width="1.5113863"/>
        </g>
        <g id="Graphic_1805">
          <path d="M 37.64124 206.94242 C 40.11375 211.4263 45.568615 215.18254 52.67089 217.2919 C 59.773164 219.40126 67.86748 219.6691 74.97294 218.02986 C 88.83147 213.98283 101.95129 208.9827 114.04544 203.1388 C 117.95352 200.95903 123.21496 201.80797 125.7972 205.03495 C 128.37943 208.26194 127.30461 212.64497 123.39653 214.82473 C 109.72279 220.10126 95.92782 225.1446 82.02048 229.95154 C 72.30658 232.7684 61.66529 231.81165 53.054515 227.34726 C 44.44374 222.88287 38.781333 215.3867 37.64124 206.94242 Z" fill="#FFFFFF"/>
          <path d="M 37.64124 206.94242 C 40.11375 211.4263 45.568615 215.18254 52.67089 217.2919 C 59.773164 219.40126 67.86748 219.6691 74.97294 218.02986 C 88.83147 213.98283 101.95129 208.9827 114.04544 203.1388 C 117.95352 200.95903 123.21496 201.80797 125.7972 205.03495 C 128.37943 208.26194 127.30461 212.64497 123.39653 214.82473 C 109.72279 220.10126 95.92782 225.1446 82.02048 229.95154 C 72.30658 232.7684 61.66529 231.81165 53.054515 227.34726 C 44.44374 222.88287 38.781333 215.3867 37.64124 206.94242 Z" stroke="black" stroke-linecap="round" stroke-linejoin="round" stroke-width="1.5113863"/>
        </g>
        <g id="Graphic_1804">
          <path d="M 45.25574 148.3562 C 44.620487 153.43704 46.8257 159.68219 51.33171 165.56331 C 55.83772 171.44443 62.22873 176.41883 68.94069 179.26915 C 82.53125 184.14088 96.08442 187.8073 109.30375 190.18826 C 113.74669 190.72191 117.50429 194.50132 117.69658 198.6298 C 117.88888 202.75828 114.44306 205.67247 110.00012 205.13882 C 95.83637 201.3704 81.71159 197.34207 67.634884 193.05643 C 58.12046 189.62562 50.073837 182.59682 45.731676 173.92376 C 41.389516 165.2507 41.21467 155.8579 45.25574 148.3562 Z" fill="#FFFFFF"/>
          <path d="M 45.25574 148.3562 C 44.620487 153.43704 46.8257 159.68219 51.33171 165.56331 C 55.83772 171.44443 62.22873 176.41883 68.94069 179.26915 C 82.53125 184.14088 96.08442 187.8073 109.30375 190.18826 C 113.74669 190.72191 117.50429 194.50132 117.69658 198.6298 C 117.88888 202.75828 114.44306 205.67247 110.00012 205.13882 C 95.83637 201.3704 81.71159 197.34207 67.634884 193.05643 C 58.12046 189.62562 50.073837 182.59682 45.731676 173.92376 C 41.389516 165.2507 41.21467 155.8579 45.25574 148.3562 Z" stroke="black" stroke-linecap="round" stroke-linejoin="round" stroke-width="1.5113863"/>
        </g>
        <g id="Graphic_1803">
          <path d="M 40.946156 237.2423 C 44.49493 240.93346 50.73611 243.1499 58.142325 243.34918 C 65.54854 243.54846 73.436365 241.7122 79.87545 238.2898 C 92.21431 230.79382 103.59295 222.5684 113.7625 213.79342 C 116.97325 210.67645 122.27513 210.1347 125.60458 212.5834 C 128.93403 215.0321 129.03025 219.54396 125.8195 222.66093 C 113.97735 231.2967 101.95774 239.7386 89.76841 247.9812 C 81.11455 253.21623 70.58824 255.04626 61.1154 252.96262 C 51.64256 250.87898 44.232943 245.10378 40.946156 237.2423 Z" fill="#FFFFFF"/>
          <path d="M 40.946156 237.2423 C 44.49493 240.93346 50.73611 243.1499 58.142325 243.34918 C 65.54854 243.54846 73.436365 241.7122 79.87545 238.2898 C 92.21431 230.79382 103.59295 222.5684 113.7625 213.79342 C 116.97325 210.67645 122.27513 210.1347 125.60458 212.5834 C 128.93403 215.0321 129.03025 219.54396 125.8195 222.66093 C 113.97735 231.2967 101.95774 239.7386 89.76841 247.9812 C 81.11455 253.21623 70.58824 255.04626 61.1154 252.96262 C 51.64256 250.87898 44.232943 245.10378 40.946156 237.2423 Z" stroke="black" stroke-linecap="round" stroke-linejoin="round" stroke-width="1.5113863"/>
        </g>
        <g id="Graphic_1802">
          <path d="M 122.41722 230.21115 C 122.51668 232.6129 122.60796 235.01467 122.69107 237.41645 C 122.41888 247.66158 117.3712 257.12282 108.95124 263.17 C 100.53129 269.2172 89.6367 271.20564 79.2961 268.58258 C 85.4756 268.243 91.90046 264.8173 96.99803 259.14397 C 102.0956 253.47065 105.39541 246.07333 106.08975 238.76268 C 106.14636 236.38013 106.16605 234.0036 106.14883 231.63445 C 107.4724 228.47352 110.43924 226.3069 113.85305 226.00823 C 117.26686 225.70956 120.56486 227.32808 122.41722 230.21115 Z" fill="#FFFFFF"/>
          <path d="M 122.41722 230.21115 C 122.51668 232.6129 122.60796 235.01467 122.69107 237.41645 C 122.41888 247.66158 117.3712 257.12282 108.95124 263.17 C 100.53129 269.2172 89.6367 271.20564 79.2961 268.58258 C 85.4756 268.243 91.90046 264.8173 96.99803 259.14397 C 102.0956 253.47065 105.39541 246.07333 106.08975 238.76268 C 106.14636 236.38013 106.16605 234.0036 106.14883 231.63445 C 107.4724 228.47352 110.43924 226.3069 113.85305 226.00823 C 117.26686 225.70956 120.56486 227.32808 122.41722 230.21115 Z" stroke="black" stroke-linecap="round" stroke-linejoin="round" stroke-width="1.5113863"/>
        </g>
        <g id="Graphic_1801">
          <path d="M 105.04375 136.8872 L 129.85701 171.9795 L 128.18239 173.81746 C 119.54351 162.09694 111.21837 150.14837 103.21581 137.98449 C 97.22268 127.81204 95.83785 115.57103 99.40698 104.3168 C 97.32549 115.49831 99.32563 127.05553 105.04375 136.8872 Z" fill="black"/>
          <path d="M 105.04375 136.8872 L 129.85701 171.9795 L 128.18239 173.81746 C 119.54351 162.09694 111.21837 150.14837 103.21581 137.98449 C 97.22268 127.81204 95.83785 115.57103 99.40698 104.3168 C 97.32549 115.49831 99.32563 127.05553 105.04375 136.8872 Z" stroke="black" stroke-linecap="round" stroke-linejoin="round" stroke-width="0"/>
        </g>
        <g id="Graphic_1800">
          <path d="M 86.74686 142.65956 L 115.40191 177.71444 L 113.78009 179.77036 C 103.8376 168.08792 94.2081 156.14268 84.90184 143.94736 C 77.8585 133.69649 75.50615 120.93426 78.43188 108.84587 C 77.065585 120.74911 80.01605 132.74745 86.74686 142.65956 Z" fill="black"/>
          <path d="M 86.74686 142.65956 L 115.40191 177.71444 L 113.78009 179.77036 C 103.8376 168.08792 94.2081 156.14268 84.90184 143.94736 C 77.8585 133.69649 75.50615 120.93426 78.43188 108.84587 C 77.065585 120.74911 80.01605 132.74745 86.74686 142.65956 Z" stroke="black" stroke-linecap="round" stroke-linejoin="round" stroke-width="0"/>
        </g>
        <g id="Graphic_1799">
          <path d="M 76.33661 164.26303 L 117.38968 195.924 L 116.1128 198.6342 C 101.99568 188.18747 88.15937 177.36652 74.61859 166.18285 C 64.10436 156.58107 58.16892 142.9614 58.293675 128.72315 C 59.85952 142.34773 66.26169 154.95834 76.33661 164.26303 Z" fill="black"/>
          <path d="M 76.33661 164.26303 L 117.38968 195.924 L 116.1128 198.6342 C 101.99568 188.18747 88.15937 177.36652 74.61859 166.18285 C 64.10436 156.58107 58.16892 142.9614 58.293675 128.72315 C 59.85952 142.34773 66.26169 154.95834 76.33661 164.26303 Z" stroke="black" stroke-linecap="round" stroke-linejoin="round" stroke-width="0"/>
        </g>
        <g id="Graphic_1798">
          <path d="M 76.38707 203.95395 L 118.51046 194.79822 L 119.5502 197.06831 C 105.34435 200.45085 91.05091 203.4544 76.68511 206.07577 C 64.94415 207.62308 53.099114 204.10462 44.106753 196.39865 C 53.61518 202.70083 65.06942 205.38172 76.38707 203.95395 Z" fill="black"/>
          <path d="M 76.38707 203.95395 L 118.51046 194.79822 L 119.5502 197.06831 C 105.34435 200.45085 91.05091 203.4544 76.68511 206.07577 C 64.94415 207.62308 53.099114 204.10462 44.106753 196.39865 C 53.61518 202.70083 65.06942 205.38172 76.38707 203.95395 Z" stroke="black" stroke-linecap="round" stroke-linejoin="round" stroke-width="0"/>
        </g>
        <g id="Graphic_1797">
          <path d="M 80.376 221.405 L 120.26957 205.0737 L 121.68771 207.12876 C 108.28505 212.92673 94.73032 218.36668 81.03797 223.44282 C 69.74406 227.00542 57.468006 225.59727 47.274134 219.5699 C 57.73247 224.1252 69.47823 224.77636 80.376 221.405 Z" fill="black"/>
          <path d="M 80.376 221.405 L 120.26957 205.0737 L 121.68771 207.12876 C 108.28505 212.92673 94.73032 218.36668 81.03797 223.44282 C 69.74406 227.00542 57.468006 225.59727 47.274134 219.5699 C 57.73247 224.1252 69.47823 224.77636 80.376 221.405 Z" stroke="black" stroke-linecap="round" stroke-linejoin="round" stroke-width="0"/>
        </g>
        <g id="Graphic_1796">
          <path d="M 71.515915 185.59462 L 113.38978 195.83118 L 113.32915 198.32732 C 99.0782 195.14008 84.91468 191.57383 70.85365 187.63235 C 59.62265 183.87616 50.518795 175.52127 45.814586 164.6532 C 51.59801 174.48578 60.71779 181.91656 71.515915 185.59462 Z" fill="black"/>
          <path d="M 71.515915 185.59462 L 113.38978 195.83118 L 113.32915 198.32732 C 99.0782 195.14008 84.91468 191.57383 70.85365 187.63235 C 59.62265 183.87616 50.518795 175.52127 45.814586 164.6532 C 51.59801 174.48578 60.71779 181.91656 71.515915 185.59462 Z" stroke="black" stroke-linecap="round" stroke-linejoin="round" stroke-width="0"/>
        </g>
        <g id="Graphic_1795">
          <path d="M 85.26332 239.61303 L 119.5707 213.513 L 121.47241 215.131 C 110.02705 224.20027 98.34216 232.96308 86.43016 241.4101 C 76.44316 247.77438 64.22094 249.5915 52.814416 246.40786 C 64.09539 248.10113 75.60946 245.69008 85.26332 239.61303 Z" fill="black"/>
          <path d="M 85.26332 239.61303 L 119.5707 213.513 L 121.47241 215.131 C 110.02705 224.20027 98.34216 232.96308 86.43016 241.4101 C 76.44316 247.77438 64.22094 249.5915 52.814416 246.40786 C 64.09539 248.10113 75.60946 245.69008 85.26332 239.61303 Z" stroke="black" stroke-linecap="round" stroke-linejoin="round" stroke-width="0"/>
        </g>
        <g id="Graphic_1794">
          <path d="M 110.77766 232.91448 L 112.91207 233.1388 C 110.80419 244.49512 104.06647 254.46246 94.31418 260.6513 C 102.86955 253.60928 108.69342 243.7975 110.77766 232.91448 Z" fill="black"/>
          <path d="M 110.77766 232.91448 L 112.91207 233.1388 C 110.80419 244.49512 104.06647 254.46246 94.31418 260.6513 C 102.86955 253.60928 108.69342 243.7975 110.77766 232.91448 Z" stroke="black" stroke-linecap="round" stroke-linejoin="round" stroke-width="0"/>
        </g>
        <g id="Graphic_1793">
          <path d="M 169.5842 192.63074 C 165.68197 187.9701 159.78307 185.4611 153.71915 185.8828 C 147.65522 186.30451 142.1604 189.60587 138.94085 194.7618 C 137.7342 196.7362 135.55013 197.89914 133.2384 197.7981 C 130.92667 197.69708 128.85237 196.34805 127.82257 194.2759 C 126.79277 192.20375 126.9701 189.73572 128.28557 187.83209 L 136.2808 179.8444 C 139.0392 177.6028 140.59554 174.20388 140.49034 170.65107 C 140.38515 167.09826 138.63045 163.79736 135.74426 161.72289 L 117.89479 145.20343 C 113.8544 137.8484 114.69834 128.77457 120.02585 122.29082 C 112.87016 125.58242 107.37127 131.65639 104.80529 139.10315 C 102.23931 146.5499 102.82935 154.72199 106.43848 161.72289 C 101.0912 160.6499 95.62512 160.29158 90.18352 160.65736 C 91.43569 166.5321 94.08774 172.01768 97.91426 176.64783 C 92.11816 174.677 85.73928 175.46183 80.59378 178.77888 C 83.16684 182.3517 86.54195 185.27128 90.44802 187.3031 C 83.71738 188.53893 77.237035 190.87778 71.26852 194.22525 C 76.40733 197.12395 82.15804 198.76812 88.05247 199.0239 C 81.38115 198.21117 74.841 201.32665 71.26852 207.01914 C 76.50777 209.47165 82.27852 210.57072 88.05247 210.21572 C 81.61892 210.46756 75.90978 214.41302 73.39958 220.342 C 79.08434 221.0198 84.84854 220.28791 90.18352 218.21095 C 85.83959 221.0121 82.77637 225.41412 81.6593 230.46074 C 85.88527 232.8779 91.19751 232.22923 94.71768 228.86622 C 90.34944 232.7459 88.15867 238.51924 88.8535 244.32015 C 94.79135 243.57654 100.27011 240.74205 104.30743 236.32492 C 102.79865 241.0203 103.58814 246.15202 106.43848 250.17677 C 113.02708 247.86944 117.82961 242.14814 118.96032 235.2594 C 118.17265 240.78044 118.53542 246.40473 120.02585 251.77884 C 127.66244 246.95784 132.13422 238.41793 131.74665 229.3952 C 137.88646 232.3672 140.67932 239.58372 138.13981 245.91466 C 144.09576 241.50402 146.47501 233.72238 144.00399 226.73517 L 165.31454 217.13787 C 170.09623 215.33426 173.56876 211.13795 174.44592 206.10325 C 175.32307 201.06855 173.47423 195.94515 169.5842 192.63074 Z" fill="#FFFFFF"/>
          <path d="M 169.5842 192.63074 C 165.68197 187.9701 159.78307 185.4611 153.71915 185.8828 C 147.65522 186.30451 142.1604 189.60587 138.94085 194.7618 C 137.7342 196.7362 135.55013 197.89914 133.2384 197.7981 C 130.92667 197.69708 128.85237 196.34805 127.82257 194.2759 C 126.79277 192.20375 126.9701 189.73572 128.28557 187.83209 L 136.2808 179.8444 C 139.0392 177.6028 140.59554 174.20388 140.49034 170.65107 C 140.38515 167.09826 138.63045 163.79736 135.74426 161.72289 L 117.89479 145.20343 C 113.8544 137.8484 114.69834 128.77457 120.02585 122.29082 C 112.87016 125.58242 107.37127 131.65639 104.80529 139.10315 C 102.23931 146.5499 102.82935 154.72199 106.43848 161.72289 C 101.0912 160.6499 95.62512 160.29158 90.18352 160.65736 C 91.43569 166.5321 94.08774 172.01768 97.91426 176.64783 C 92.11816 174.677 85.73928 175.46183 80.59378 178.77888 C 83.16684 182.3517 86.54195 185.27128 90.44802 187.3031 C 83.71738 188.53893 77.237035 190.87778 71.26852 194.22525 C 76.40733 197.12395 82.15804 198.76812 88.05247 199.0239 C 81.38115 198.21117 74.841 201.32665 71.26852 207.01914 C 76.50777 209.47165 82.27852 210.57072 88.05247 210.21572 C 81.61892 210.46756 75.90978 214.41302 73.39958 220.342 C 79.08434 221.0198 84.84854 220.28791 90.18352 218.21095 C 85.83959 221.0121 82.77637 225.41412 81.6593 230.46074 C 85.88527 232.8779 91.19751 232.22923 94.71768 228.86622 C 90.34944 232.7459 88.15867 238.51924 88.8535 244.32015 C 94.79135 243.57654 100.27011 240.74205 104.30743 236.32492 C 102.79865 241.0203 103.58814 246.15202 106.43848 250.17677 C 113.02708 247.86944 117.82961 242.14814 118.96032 235.2594 C 118.17265 240.78044 118.53542 246.40473 120.02585 251.77884 C 127.66244 246.95784 132.13422 238.41793 131.74665 229.3952 C 137.88646 232.3672 140.67932 239.58372 138.13981 245.91466 C 144.09576 241.50402 146.47501 233.72238 144.00399 226.73517 L 165.31454 217.13787 C 170.09623 215.33426 173.56876 211.13795 174.44592 206.10325 C 175.32307 201.06855 173.47423 195.94515 169.5842 192.63074 Z" stroke="black" stroke-linecap="round" stroke-linejoin="round" stroke-width="1.5113863"/>
        </g>
        <g id="Graphic_1792">
          <path d="M 127.63428 177.46681 C 125.79624 177.50002 124.18537 176.11568 123.98329 174.32924 C 124.42686 167.78676 121.20155 161.33952 115.53718 157.44592 C 108.74558 153.11978 106.40554 143.89855 110.29113 136.77315 C 108.8485 144.0993 111.7163 151.6061 117.55329 155.7827 C 123.00306 159.5565 126.15124 165.7386 125.84274 172.06074 C 125.52417 173.99424 126.19075 176.0057 127.63428 177.46681 Z" fill="black"/>
        </g>
        <g id="Graphic_1791">
          <path d="M 112.97868 186.44334 C 111.54649 184.14042 111.41154 181.3929 112.64945 179.74035 C 113.88736 178.0878 116.19054 177.94085 118.26839 179.38185 C 117.99862 178.97157 117.69383 178.58884 117.36088 178.24226 C 115.90815 176.67172 114.02302 175.93773 112.43654 176.32494 C 110.85006 176.71215 109.8118 178.15965 109.7244 180.10609 C 109.63699 182.05253 110.51419 184.19173 112.01581 185.69411 C 109.08442 185.09936 106.45362 186.77337 106.046 189.49278 C 105.63837 192.2122 107.59835 195.01346 110.49359 195.84943 C 110.92189 195.95427 111.35588 196.00967 111.78581 196.0144 C 109.57445 194.91768 108.23548 192.61963 108.51798 190.40586 C 108.80048 188.1921 110.6344 186.6115 112.99378 186.54832 C 113.02157 186.54864 113.0494 186.54917 113.07723 186.54992 C 113.03104 186.5483 112.9845 186.5024 112.97325 186.44736 Z M 114.55072 205.30933 C 113.123 208.34056 113.57394 211.91947 115.56409 213.3521 C 117.55425 214.78475 120.34882 213.54216 121.84425 210.55968 C 122.03117 210.09181 122.17933 209.6028 122.28538 209.10372 C 120.86458 211.39857 118.65375 212.29095 116.92533 211.26725 C 115.1969 210.24356 114.39551 207.56711 114.98239 204.77835 C 112.6866 205.35195 110.54623 204.30072 109.79193 202.22908 C 109.03762 200.15744 109.86316 197.5976 111.79389 196.0214 C 111.37355 196.13234 110.96019 196.2943 110.56321 196.50358 C 108.0101 198.12255 106.83303 201.40622 107.93415 203.83786 C 109.03528 206.2695 111.99761 206.9283 114.55072 205.30933 Z" fill="black"/>
        </g>
        <g id="Graphic_1790">
          <path d="M 102.92925 193.53247 C 102.46826 193.35243 101.98593 193.21303 101.49312 193.11739 C 98.16926 192.4773 95.09663 193.92191 94.63021 196.344 C 94.16379 198.76608 96.4802 201.24845 99.80406 201.88853 C 100.29715 201.98274 100.79676 202.03243 101.29164 202.03647 C 98.71135 201.03142 97.17377 198.918 97.56077 196.90834 C 97.94777 194.89868 100.16024 193.5074 102.92925 193.53247 Z" fill="black"/>
        </g>
        <g id="Graphic_1789">
          <path d="M 106.904 182.0131 C 106.50344 181.72327 106.07252 181.46607 105.62093 181.24725 C 102.5765 179.76896 99.26169 180.3145 98.2171 182.46576 C 97.1725 184.61701 98.79369 187.55935 101.83812 189.03764 C 102.28934 189.25721 102.75795 189.4368 103.23342 189.57235 C 100.98529 187.94777 100.01687 185.55086 100.88571 183.76157 C 101.75454 181.97227 104.23705 181.25103 106.904 182.0131 Z" fill="black"/>
        </g>
        <g id="Graphic_1788">
          <path d="M 110.02855 170.20618 C 109.68372 169.79998 109.3017 169.41535 108.89108 169.0609 C 106.12205 166.6623 102.66336 166.11925 101.16589 167.84797 C 99.66842 169.5767 100.69922 172.92257 103.46825 175.32118 C 103.87964 175.67552 104.31649 175.99685 104.76901 176.27797 C 102.83933 173.99681 102.3582 171.38918 103.60205 169.95324 C 104.8459 168.5173 107.4955 168.62159 110.02855 170.20618 Z" fill="black"/>
        </g>
        <g id="Graphic_1787">
          <path d="M 112.13238 227.30978 C 111.96974 227.78424 111.83838 228.27846 111.74127 228.7813 C 111.14109 232.12408 112.15391 235.08212 114.0218 235.44182 C 115.88968 235.80152 117.9286 233.43115 118.61274 230.10455 C 118.7093 229.6016 118.77088 229.09394 118.79607 228.593 C 117.88584 231.24322 116.14568 232.8876 114.57202 232.58456 C 112.99836 232.28152 111.99331 230.1085 112.13238 227.30978 Z" fill="black"/>
        </g>
        <g id="Graphic_1786">
          <path d="M 119.01373 222.7975 C 118.93646 223.30515 118.89271 223.82738 118.8835 224.35237 C 118.85005 227.85395 120.32855 230.695 122.19955 230.72438 C 124.07055 230.75377 125.63756 227.96058 125.71412 224.45967 C 125.72386 223.93527 125.69908 223.41198 125.64034 222.9016 C 125.21517 225.7402 123.8179 227.71398 122.25101 227.68936 C 120.68412 227.66475 119.34954 225.64806 119.01373 222.7975 Z" fill="black"/>
        </g>
        <g id="Graphic_1785">
          <path d="M 124.55515 217.1331 C 124.61707 217.6503 124.71429 218.17278 124.84463 218.68886 C 125.7428 222.1129 127.87749 224.49673 129.64741 224.05215 C 131.41733 223.60758 132.17216 220.49797 131.34568 217.0559 C 131.21668 216.5395 131.05546 216.03307 130.86564 215.54802 C 131.21183 218.45066 130.40628 220.75188 128.91267 221.12705 C 127.41907 221.50222 125.6217 219.8548 124.55515 217.1331 Z" fill="black"/>
        </g>
        <g id="Graphic_1784">
          <path d="M 98.90591 211.46086 C 98.93139 211.45764 98.95684 211.45416 98.98227 211.45042 C 98.96 211.4632 98.93784 211.4762 98.9158 211.48943 Z M 104.82174 222.65566 C 104.8424 222.63812 104.8629 222.62036 104.88326 222.60237 C 104.86832 222.62872 104.85349 222.65518 104.83877 222.68175 Z M 101.09868 217.53914 C 99.68545 218.90992 99.3634 221.10676 100.37239 222.4934 C 101.38138 223.88003 103.35433 223.95198 104.82174 222.65566 C 103.50429 225.56504 103.76203 228.81465 105.4051 230.01056 C 107.04817 231.20646 109.48785 229.92016 110.92687 227.09926 C 111.13658 226.6661 111.3151 226.21215 111.45846 225.7476 C 110.04654 227.77552 108.13049 228.58136 106.73615 227.73368 C 105.34181 226.886 104.79594 224.58343 105.39077 222.05876 C 105.4395 221.99586 105.48658 221.93155 105.53193 221.86593 C 105.49506 221.89016 105.45788 221.9137 105.42042 221.93653 C 105.45973 221.77688 105.50333 221.6177 105.55111 221.45943 C 105.41885 221.6495 105.29265 221.8481 105.17324 222.05411 C 103.86956 222.63284 102.49644 222.31725 101.72074 221.26062 C 100.94503 220.204 100.92745 218.62523 101.67653 217.29106 C 101.74231 217.25718 101.80725 217.22136 101.87126 217.18364 C 102.1209 217.03405 102.3548 216.85636 102.56774 216.65457 C 101.09968 217.1374 99.60356 216.62787 98.89103 215.40237 C 98.1785 214.17687 98.41936 212.52749 99.48296 211.349 C 99.50243 211.32866 99.52212 211.30852 99.54201 211.28858 C 99.7856 211.1971 100.01909 211.08137 100.23824 210.94352 C 98.6336 211.12055 97.16735 210.26287 96.68289 208.86384 C 96.19843 207.4648 96.8203 205.88405 98.19079 205.03085 C 97.9039 205.06416 97.62052 205.13005 97.34705 205.22705 C 95.62658 205.84107 94.61932 207.55004 95.02402 209.16842 C 95.42873 210.7868 97.11191 211.7808 98.90591 211.46086 C 97.3636 212.39442 96.62425 214.2555 97.18174 215.80088 C 97.73924 217.34625 99.4189 218.09165 101.09868 217.53914 Z" fill="black"/>
        </g>
        <g id="Graphic_1783">
          <path d="M 98.90591 211.46086 C 98.93139 211.45764 98.95684 211.45416 98.98227 211.45042 C 98.96 211.4632 98.93784 211.4762 98.9158 211.48943 M 104.82174 222.65566 C 104.8424 222.63812 104.8629 222.62036 104.88326 222.60237 C 104.86832 222.62872 104.85349 222.65518 104.83877 222.68175 M 101.09868 217.53914 C 99.68545 218.90992 99.3634 221.10676 100.37239 222.4934 C 101.38138 223.88003 103.35433 223.95198 104.82174 222.65566 C 103.50429 225.56504 103.76203 228.81465 105.4051 230.01056 C 107.04817 231.20646 109.48785 229.92016 110.92687 227.09926 C 111.13658 226.6661 111.3151 226.21215 111.45846 225.7476 C 110.04654 227.77552 108.13049 228.58136 106.73615 227.73368 C 105.34181 226.886 104.79594 224.58343 105.39077 222.05876 C 105.4395 221.99586 105.48658 221.93155 105.53193 221.86593 C 105.49506 221.89016 105.45788 221.9137 105.42042 221.93653 C 105.45973 221.77688 105.50333 221.6177 105.55111 221.45943 C 105.41885 221.6495 105.29265 221.8481 105.17324 222.05411 C 103.86956 222.63284 102.49644 222.31725 101.72074 221.26062 C 100.94503 220.204 100.92745 218.62523 101.67653 217.29106 C 101.74231 217.25718 101.80725 217.22136 101.87126 217.18364 C 102.1209 217.03405 102.3548 216.85636 102.56774 216.65457 C 101.09968 217.1374 99.60356 216.62787 98.89103 215.40237 C 98.1785 214.17687 98.41936 212.52749 99.48296 211.349 C 99.50243 211.32866 99.52212 211.30852 99.54201 211.28858 C 99.7856 211.1971 100.01909 211.08137 100.23824 210.94352 C 98.6336 211.12055 97.16735 210.26287 96.68289 208.86384 C 96.19843 207.4648 96.8203 205.88405 98.19079 205.03085 C 97.9039 205.06416 97.62052 205.13005 97.34705 205.22705 C 95.62658 205.84107 94.61932 207.55004 95.02402 209.16842 C 95.42873 210.7868 97.11191 211.7808 98.90591 211.46086 C 97.3636 212.39442 96.62425 214.2555 97.18174 215.80088 C 97.73924 217.34625 99.4189 218.09165 101.09868 217.53914" fill="black"/>
        </g>
        <g id="Graphic_1782">
          <path d="M 104.3903 202.7356 C 104.03961 202.83755 103.70052 202.97981 103.38066 203.15918 C 101.22231 204.3605 100.37432 206.95442 101.48663 208.95284 C 102.59894 210.95126 105.25033 211.59744 107.40869 210.39611 C 107.72878 210.21647 108.02714 210.00102 108.29705 209.75463 C 106.33324 210.3216 104.30643 209.55409 103.38215 207.89348 C 102.45787 206.23288 102.87361 204.10587 104.3903 202.7356 Z" fill="black"/>
        </g>
        <g id="Graphic_1781">
          <path d="M 106.97431 211.42212 C 106.67152 211.65015 106.39158 211.91131 106.14074 212.19974 C 104.50445 214.15092 104.50423 216.84837 106.14026 218.26555 C 107.77629 219.68272 110.44614 219.29777 112.14398 217.39991 C 112.39369 217.1105 112.61225 216.79617 112.79477 216.46396 C 111.0998 217.73886 108.95031 217.79812 107.57621 216.60784 C 106.20211 215.41756 105.95419 213.2816 106.97431 211.42212 Z" fill="black"/>
          <path d="M 106.97431 211.42212 C 106.67152 211.65015 106.39158 211.91131 106.14074 212.19974 C 104.50445 214.15092 104.50423 216.84837 106.14026 218.26555 C 107.77629 219.68272 110.44614 219.29777 112.14398 217.39991 C 112.39369 217.1105 112.61225 216.79617 112.79477 216.46396 C 111.0998 217.73886 108.95031 217.79812 107.57621 216.60784 C 106.20211 215.41756 105.95419 213.2816 106.97431 211.42212 Z" stroke="black" stroke-linecap="round" stroke-linejoin="round" stroke-width=".18136636"/>
        </g>
        <g id="Graphic_1780">
          <path d="M 113.43527 216.79852 C 113.32257 217.08898 113.23565 217.39274 113.17645 217.70295 C 112.83674 219.75123 113.75268 221.60257 115.24826 221.89058 C 116.74384 222.17858 118.28181 220.7998 118.72706 218.77183 C 118.7873 218.46182 118.8194 218.1475 118.82263 217.83596 C 118.18852 219.4609 116.85067 220.42846 115.57705 220.1832 C 114.30344 219.93794 113.42058 218.54274 113.43527 216.79852 Z" fill="black"/>
        </g>
        <g id="Graphic_1779">
          <path d="M 161.13702 351.74276 C 157.81005 350.69458 154.17933 351.7561 151.94098 354.4314 C 149.70263 357.1067 149.29846 360.86774 150.91727 363.95755 C 150.68832 361.6167 151.69587 359.3257 153.5759 357.91235 C 155.45594 356.499 157.93665 356.1676 160.12175 357.0379 C 161.53266 357.21073 162.8362 356.2608 163.10388 354.8648 C 163.37155 353.46876 162.5118 352.10406 161.13702 351.74276 Z" fill="#FFFFFF"/>
          <path d="M 161.13702 351.74276 C 157.81005 350.69458 154.17933 351.7561 151.94098 354.4314 C 149.70263 357.1067 149.29846 360.86774 150.91727 363.95755 C 150.68832 361.6167 151.69587 359.3257 153.5759 357.91235 C 155.45594 356.499 157.93665 356.1676 160.12175 357.0379 C 161.53266 357.21073 162.8362 356.2608 163.10388 354.8648 C 163.37155 353.46876 162.5118 352.10406 161.13702 351.74276 Z" stroke="black" stroke-linecap="round" stroke-linejoin="round" stroke-width="1.1335398"/>
        </g>
        <g id="Graphic_1778">
          <path d="M 175.22511 238.49345 C 171.15263 257.12435 173.89894 276.59804 182.96502 293.37605 C 185.75761 300.64462 183.7249 308.8834 177.8719 314.0189 C 183.26524 313.09325 187.61284 309.08784 188.97652 303.78828 C 190.00965 311.07865 196.24546 316.50046 203.60865 316.5104 C 198.63688 314.1894 195.43336 309.2264 195.36563 303.73995 C 197.9217 308.2787 202.61824 311.1982 207.81952 311.4816 C 202.76453 307.27743 199.4172 301.3733 198.4055 294.8768 C 200.70266 297.33455 203.9461 298.6853 207.30875 298.5846 C 203.84942 294.61223 201.86063 289.5715 201.67572 284.30725 C 203.27625 288.35538 207.3415 290.8754 211.67904 290.5082 C 208.0524 289.1749 205.41224 286.0085 204.75266 282.20123 C 204.0931 278.39397 205.51426 274.52398 208.48105 272.0484 C 212.5052 262.51092 210.37575 251.48774 203.08883 244.1353 C 195.80192 236.78287 184.79824 234.55484 175.22511 238.49345 Z" fill="#FFFFFF"/>
          <path d="M 175.22511 238.49345 C 171.15263 257.12435 173.89894 276.59804 182.96502 293.37605 C 185.75761 300.64462 183.7249 308.8834 177.8719 314.0189 C 183.26524 313.09325 187.61284 309.08784 188.97652 303.78828 C 190.00965 311.07865 196.24546 316.50046 203.60865 316.5104 C 198.63688 314.1894 195.43336 309.2264 195.36563 303.73995 C 197.9217 308.2787 202.61824 311.1982 207.81952 311.4816 C 202.76453 307.27743 199.4172 301.3733 198.4055 294.8768 C 200.70266 297.33455 203.9461 298.6853 207.30875 298.5846 C 203.84942 294.61223 201.86063 289.5715 201.67572 284.30725 C 203.27625 288.35538 207.3415 290.8754 211.67904 290.5082 C 208.0524 289.1749 205.41224 286.0085 204.75266 282.20123 C 204.0931 278.39397 205.51426 274.52398 208.48105 272.0484 C 212.5052 262.51092 210.37575 251.48774 203.08883 244.1353 C 195.80192 236.78287 184.79824 234.55484 175.22511 238.49345 Z" stroke="black" stroke-linecap="round" stroke-linejoin="round" stroke-width="1.5113863"/>
        </g>
        <g id="Graphic_1777">
          <path d="M 211.6974 271.5093 C 218.02146 295.86595 216.86012 321.56295 208.3648 345.24985 C 203.67828 347.968 200.33713 352.5169 199.14533 357.8019 C 193.1173 360.52194 186.05386 359.44777 181.10694 355.05875 C 180.34943 352.2416 177.4516 350.5719 174.63443 351.3294 C 171.81726 352.0869 170.14758 354.98475 170.90508 357.8019 C 171.29939 359.59205 172.47287 361.1124 174.10473 361.94735 C 175.73658 362.7823 177.65614 362.84448 179.33862 362.1169 L 189.344 364.07417 L 177.57785 363.2958 C 175.35795 363.1229 173.264 364.3464 172.3247 366.3652 C 171.3854 368.38402 171.79816 370.77384 173.36022 372.3606 C 174.92228 373.94738 177.30532 374.3976 179.33862 373.4901 C 181.4786 371.64033 184.16367 370.53925 186.98623 370.35398 C 190.97323 370.21536 194.87175 369.14106 198.36697 367.21785 C 196.0028 370.4681 192.50033 372.70775 188.55807 373.4901 C 186.75278 373.20065 184.9418 373.97424 183.9028 375.4787 C 182.86382 376.98313 182.7817 378.9507 183.69173 380.5365 C 184.60175 382.12227 186.34198 383.04407 188.16511 382.90604 C 189.335 383.38597 190.67552 383.1653 191.62982 382.33567 C 192.58412 381.50605 192.98913 380.20927 192.6766 378.984 C 193.1235 376.8679 195.02665 375.37916 197.1881 375.4549 C 203.28728 373.5017 208.4082 369.28925 211.50092 363.6812 C 215.26476 365.25664 219.50322 365.25664 223.26706 363.6812 C 225.65222 364.66447 228.39617 363.71503 229.66359 361.4679 C 230.931 359.2208 230.32404 356.3814 228.24868 354.84884 C 226.17333 353.3163 223.281 353.57166 221.5063 355.44415 C 220.78433 356.7707 219.3635 357.56344 217.85546 357.4811 C 216.34742 357.39875 215.02135 356.456 214.44812 355.05875 L 215.61945 344.07097 C 217.94699 328.40786 222.29837 313.11325 228.56447 298.5707 C 230.11973 293.53986 228.67415 288.0625 224.8389 284.45433 L 219.14853 266.80134 C 217.72814 265.0659 215.23665 264.66205 213.3408 265.85994 C 211.44493 267.05784 210.73992 269.4814 211.6974 271.5093 Z" fill="#FFFFFF"/>
          <path d="M 211.6974 271.5093 C 218.02146 295.86595 216.86012 321.56295 208.3648 345.24985 C 203.67828 347.968 200.33713 352.5169 199.14533 357.8019 C 193.1173 360.52194 186.05386 359.44777 181.10694 355.05875 C 180.34943 352.2416 177.4516 350.5719 174.63443 351.3294 C 171.81726 352.0869 170.14758 354.98475 170.90508 357.8019 C 171.29939 359.59205 172.47287 361.1124 174.10473 361.94735 C 175.73658 362.7823 177.65614 362.84448 179.33862 362.1169 L 189.344 364.07417 L 177.57785 363.2958 C 175.35795 363.1229 173.264 364.3464 172.3247 366.3652 C 171.3854 368.38402 171.79816 370.77384 173.36022 372.3606 C 174.92228 373.94738 177.30532 374.3976 179.33862 373.4901 C 181.4786 371.64033 184.16367 370.53925 186.98623 370.35398 C 190.97323 370.21536 194.87175 369.14106 198.36697 367.21785 C 196.0028 370.4681 192.50033 372.70775 188.55807 373.4901 C 186.75278 373.20065 184.9418 373.97424 183.9028 375.4787 C 182.86382 376.98313 182.7817 378.9507 183.69173 380.5365 C 184.60175 382.12227 186.34198 383.04407 188.16511 382.90604 C 189.335 383.38597 190.67552 383.1653 191.62982 382.33567 C 192.58412 381.50605 192.98913 380.20927 192.6766 378.984 C 193.1235 376.8679 195.02665 375.37916 197.1881 375.4549 C 203.28728 373.5017 208.4082 369.28925 211.50092 363.6812 C 215.26476 365.25664 219.50322 365.25664 223.26706 363.6812 C 225.65222 364.66447 228.39617 363.71503 229.66359 361.4679 C 230.931 359.2208 230.32404 356.3814 228.24868 354.84884 C 226.17333 353.3163 223.281 353.57166 221.5063 355.44415 C 220.78433 356.7707 219.3635 357.56344 217.85546 357.4811 C 216.34742 357.39875 215.02135 356.456 214.44812 355.05875 L 215.61945 344.07097 C 217.94699 328.40786 222.29837 313.11325 228.56447 298.5707 C 230.11973 293.53986 228.67415 288.0625 224.8389 284.45433 L 219.14853 266.80134 C 217.72814 265.0659 215.23665 264.66205 213.3408 265.85994 C 211.44493 267.05784 210.73992 269.4814 211.6974 271.5093 Z" stroke="black" stroke-linecap="round" stroke-linejoin="round" stroke-width="1.5"/>
        </g>
        <g id="Graphic_1776">
          <path d="M 175.19223 353.35495 C 172.2499 351.4814 168.46817 351.56703 165.61367 353.57185 C 162.75917 355.57667 161.39534 359.10496 162.1593 362.50847 C 162.544 360.1881 164.11017 358.23596 166.29194 357.35736 C 168.47372 356.47875 170.95567 356.8007 172.84107 358.2069 C 174.15917 358.739 175.66416 358.15884 176.28403 356.87966 C 176.9039 355.60048 176.42665 354.05976 175.19223 353.35495 Z" fill="#FFFFFF"/>
          <path d="M 175.19223 353.35495 C 172.2499 351.4814 168.46817 351.56703 165.61367 353.57185 C 162.75917 355.57667 161.39534 359.10496 162.1593 362.50847 C 162.544 360.1881 164.11017 358.23596 166.29194 357.35736 C 168.47372 356.47875 170.95567 356.8007 172.84107 358.2069 C 174.15917 358.739 175.66416 358.15884 176.28403 356.87966 C 176.9039 355.60048 176.42665 354.05976 175.19223 353.35495 Z" stroke="black" stroke-linecap="round" stroke-linejoin="round" stroke-width="1.1335398"/>
        </g>
        <g id="Graphic_1775">
          <path d="M 174.9841 366.0721 C 171.65711 365.02393 168.0264 366.08543 165.78805 368.76074 C 163.5497 371.43604 163.14553 375.1971 164.76434 378.2869 C 164.53538 375.94604 165.54294 373.65506 167.42297 372.2417 C 169.303 370.82835 171.78372 370.49696 173.96882 371.36727 C 175.37973 371.5401 176.68328 370.59017 176.95095 369.19414 C 177.21862 367.7981 176.35887 366.4334 174.9841 366.0721 Z" fill="#FFFFFF"/>
          <path d="M 174.9841 366.0721 C 171.65711 365.02393 168.0264 366.08543 165.78805 368.76074 C 163.5497 371.43604 163.14553 375.1971 164.76434 378.2869 C 164.53538 375.94604 165.54294 373.65506 167.42297 372.2417 C 169.303 370.82835 171.78372 370.49696 173.96882 371.36727 C 175.37973 371.5401 176.68328 370.59017 176.95095 369.19414 C 177.21862 367.7981 176.35887 366.4334 174.9841 366.0721 Z" stroke="black" stroke-linecap="round" stroke-linejoin="round" stroke-width="1.1335398"/>
        </g>
        <g id="Graphic_1774">
          <path d="M 187.01321 375.91986 C 183.68624 374.87167 180.05552 375.93317 177.81718 378.6085 C 175.57883 381.2838 175.17465 385.04484 176.79347 388.13464 C 176.5645 385.79378 177.57206 383.5028 179.4521 382.08945 C 181.33213 380.6761 183.81284 380.3447 185.99794 381.215 C 187.40885 381.38783 188.7124 380.4379 188.98007 379.0419 C 189.24774 377.64585 188.388 376.28116 187.01321 375.91986 Z" fill="#FFFFFF"/>
          <path d="M 187.01321 375.91986 C 183.68624 374.87167 180.05552 375.93317 177.81718 378.6085 C 175.57883 381.2838 175.17465 385.04484 176.79347 388.13464 C 176.5645 385.79378 177.57206 383.5028 179.4521 382.08945 C 181.33213 380.6761 183.81284 380.3447 185.99794 381.215 C 187.40885 381.38783 188.7124 380.4379 188.98007 379.0419 C 189.24774 377.64585 188.388 376.28116 187.01321 375.91986 Z" stroke="black" stroke-linecap="round" stroke-linejoin="round" stroke-width="1.1335398"/>
        </g>
        <g id="Graphic_1773">
          <path d="M 226.23655 355.2624 C 229.56353 354.2142 233.19424 355.2757 235.4326 357.951 C 237.67094 360.6263 238.0751 364.38736 236.4563 367.47717 C 236.68526 365.1363 235.6777 362.8453 233.79767 361.43197 C 231.91764 360.0186 229.43693 359.68723 227.25183 360.55753 C 225.8409 360.73035 224.53736 359.78043 224.2697 358.3844 C 224.00203 356.98838 224.86178 355.62368 226.23655 355.2624 Z" fill="#FFFFFF"/>
          <path d="M 226.23655 355.2624 C 229.56353 354.2142 233.19424 355.2757 235.4326 357.951 C 237.67094 360.6263 238.0751 364.38736 236.4563 367.47717 C 236.68526 365.1363 235.6777 362.8453 233.79767 361.43197 C 231.91764 360.0186 229.43693 359.68723 227.25183 360.55753 C 225.8409 360.73035 224.53736 359.78043 224.2697 358.3844 C 224.00203 356.98838 224.86178 355.62368 226.23655 355.2624 Z" stroke="black" stroke-linecap="round" stroke-linejoin="round" stroke-width="1.1335398"/>
        </g>
        <g id="Graphic_1772">
          <path d="M 256.62797 301.93004 C 250.01914 297.2269 243.68607 292.1478 237.66007 286.71794 L 256.62797 301.93004 C 260.216 304.4847 263.8829 306.9268 267.6233 309.2527 C 269.18985 310.52584 271.23655 311.04663 273.2211 310.67707 C 275.20563 310.30752 276.92768 309.08493 277.93096 307.33325 L 248.2851 284.80603 C 258.6439 292.57867 268.98684 300.3724 279.31388 308.18718 C 280.73898 309.4798 282.69267 310.0199 284.57936 309.64286 C 286.46604 309.26582 288.0621 308.0163 288.88095 306.27528 C 272.35174 295.5799 257.21518 282.8726 243.81897 268.44528 C 242.33822 241.15102 226.25408 216.7764 201.74197 204.67989 C 199.68145 203.46406 198.21548 201.45022 197.69163 199.11578 C 197.16778 196.78135 197.63269 194.33421 198.97613 192.35453 C 212.37542 183.41213 219.8861 167.9186 218.6062 151.86028 C 217.3263 135.80197 207.45628 121.69372 192.80968 114.98666 C 180.0963 111.58265 166.74919 117.636 160.93454 129.44308 C 151.76032 137.64437 148.4807 150.59244 152.64459 162.17215 C 159.8599 163.64284 167.3614 162.59177 173.89468 159.19472 C 179.77017 152.39165 181.33223 142.86746 177.93764 134.544 C 179.42365 132.3358 181.86603 130.95999 184.52467 130.83346 C 187.1833 130.70693 189.7453 131.84457 191.43432 133.90166 C 194.50154 137.12513 196.03656 141.5107 195.6491 145.94337 C 195.26164 150.37603 192.98903 154.42878 189.40906 157.07122 L 176.66052 167.69626 C 158.10047 184.68588 150.07096 210.3203 155.62202 234.86227 C 160.74479 255.38227 176.60673 271.50178 197.04156 276.95438 C 200.54674 284.01277 205.07988 290.51198 210.4929 296.23967 C 215.0739 302.5362 215.2458 311.0204 210.92364 317.49732 C 215.8907 315.2051 219.0502 310.2114 218.99445 304.74122 C 221.8797 311.5193 229.311 315.14316 236.4283 313.24277 C 231.0252 312.28765 226.64632 308.32287 225.1609 303.0409 C 228.80298 306.7609 234.09158 308.36516 239.18657 307.29546 C 233.2157 304.54288 228.45433 299.70627 225.79569 293.693 C 228.4981 295.37657 231.7697 295.88682 234.85645 295.10613 C 239.05846 298.40868 243.47373 301.43045 248.07352 304.15178 C 252.12043 306.29698 256.83068 306.82634 261.2528 305.63294 Z" fill="#FFFFFF"/>
          <path d="M 256.62797 301.93004 C 250.01914 297.2269 243.68607 292.1478 237.66007 286.71794 L 256.62797 301.93004 C 260.216 304.4847 263.8829 306.9268 267.6233 309.2527 C 269.18985 310.52584 271.23655 311.04663 273.2211 310.67707 C 275.20563 310.30752 276.92768 309.08493 277.93096 307.33325 L 248.2851 284.80603 C 258.6439 292.57867 268.98684 300.3724 279.31388 308.18718 C 280.73898 309.4798 282.69267 310.0199 284.57936 309.64286 C 286.46604 309.26582 288.0621 308.0163 288.88095 306.27528 C 272.35174 295.5799 257.21518 282.8726 243.81897 268.44528 C 242.33822 241.15102 226.25408 216.7764 201.74197 204.67989 C 199.68145 203.46406 198.21548 201.45022 197.69163 199.11578 C 197.16778 196.78135 197.63269 194.33421 198.97613 192.35453 C 212.37542 183.41213 219.8861 167.9186 218.6062 151.86028 C 217.3263 135.80197 207.45628 121.69372 192.80968 114.98666 C 180.0963 111.58265 166.74919 117.636 160.93454 129.44308 C 151.76032 137.64437 148.4807 150.59244 152.64459 162.17215 C 159.8599 163.64284 167.3614 162.59177 173.89468 159.19472 C 179.77017 152.39165 181.33223 142.86746 177.93764 134.544 C 179.42365 132.3358 181.86603 130.95999 184.52467 130.83346 C 187.1833 130.70693 189.7453 131.84457 191.43432 133.90166 C 194.50154 137.12513 196.03656 141.5107 195.6491 145.94337 C 195.26164 150.37603 192.98903 154.42878 189.40906 157.07122 L 176.66052 167.69626 C 158.10047 184.68588 150.07096 210.3203 155.62202 234.86227 C 160.74479 255.38227 176.60673 271.50178 197.04156 276.95438 C 200.54674 284.01277 205.07988 290.51198 210.4929 296.23967 C 215.0739 302.5362 215.2458 311.0204 210.92364 317.49732 C 215.8907 315.2051 219.0502 310.2114 218.99445 304.74122 C 221.8797 311.5193 229.311 315.14316 236.4283 313.24277 C 231.0252 312.28765 226.64632 308.32287 225.1609 303.0409 C 228.80298 306.7609 234.09158 308.36516 239.18657 307.29546 C 233.2157 304.54288 228.45433 299.70627 225.79569 293.693 C 228.4981 295.37657 231.7697 295.88682 234.85645 295.10613 C 239.05846 298.40868 243.47373 301.43045 248.07352 304.15178 C 252.12043 306.29698 256.83068 306.82634 261.2528 305.63294 Z" stroke="black" stroke-linecap="round" stroke-linejoin="round" stroke-width="1.5113863"/>
        </g>
        <g id="Graphic_1771">
          <path d="M 163.48425 151.33294 C 160.66708 151.33294 158.38332 149.04917 158.38332 146.232 C 158.38332 143.41484 160.66708 141.13108 163.48425 141.13108 C 166.30141 141.13108 168.58518 143.41484 168.58518 146.232 C 168.58518 149.04917 166.30141 151.33294 163.48425 151.33294 Z" fill="#FFFFFF"/>
          <path d="M 163.48425 151.33294 C 160.66708 151.33294 158.38332 149.04917 158.38332 146.232 C 158.38332 143.41484 160.66708 141.13108 163.48425 141.13108 C 166.30141 141.13108 168.58518 143.41484 168.58518 146.232 C 168.58518 149.04917 166.30141 151.33294 163.48425 151.33294 Z" stroke="black" stroke-linecap="round" stroke-linejoin="round" stroke-width=".5667699"/>
        </g>
        <g id="Graphic_1770">
          <path d="M 163.485 148.88525 C 162.04462 148.85103 160.89478 147.67356 160.89478 146.23276 C 160.89478 144.79197 162.04462 143.6145 163.485 143.58028 C 164.44767 143.55742 165.34715 144.05792 165.8352 144.888 C 166.32325 145.71809 166.32325 146.74744 165.8352 147.57753 C 165.34715 148.40761 164.44767 148.90811 163.485 148.88525 Z" fill="black"/>
          <path d="M 163.485 148.88525 C 162.04462 148.85103 160.89478 147.67356 160.89478 146.23276 C 160.89478 144.79197 162.04462 143.6145 163.485 143.58028 C 164.44767 143.55742 165.34715 144.05792 165.8352 144.888 C 166.32325 145.71809 166.32325 146.74744 165.8352 147.57753 C 165.34715 148.40761 164.44767 148.90811 163.485 148.88525 Z" stroke="black" stroke-linecap="round" stroke-linejoin="round" stroke-width=".5667699"/>
        </g>
        <g id="Graphic_1769">
          <path d="M 162.85098 146.88946 C 162.18856 146.85912 161.66712 146.31323 161.66712 145.65012 C 161.66712 144.98702 162.18856 144.44113 162.85098 144.41079 C 163.5134 144.44113 164.03484 144.98702 164.03484 145.65012 C 164.03484 146.31323 163.5134 146.85912 162.85098 146.88946 Z" fill="#FFFFFF"/>
          <path d="M 162.85098 146.88946 C 162.18856 146.85912 161.66712 146.31323 161.66712 145.65012 C 161.66712 144.98702 162.18856 144.44113 162.85098 144.41079 C 163.5134 144.44113 164.03484 144.98702 164.03484 145.65012 C 164.03484 146.31323 163.5134 146.85912 162.85098 146.88946 Z" stroke="black" stroke-linecap="round" stroke-linejoin="round" stroke-width=".5667699"/>
        </g>
        <g id="Graphic_1768">
          <path d="M 157.9556 159.61987 L 151.78914 160.4738 C 147.98579 153.43423 148.5649 144.83577 153.27786 138.36978 C 156.83036 129.92438 155.2647 120.19322 149.24246 113.28832 C 154.9528 116.15189 159.18276 121.30053 160.88381 127.45801 C 162.58486 133.6155 161.59776 140.20539 158.1672 145.5942 C 156.0934 150.02387 156.01638 155.12966 157.9556 159.61987 Z" fill="#FFFFFF"/>
          <path d="M 157.9556 159.61987 L 151.78914 160.4738 C 147.98579 153.43423 148.5649 144.83577 153.27786 138.36978 C 156.83036 129.92438 155.2647 120.19322 149.24246 113.28832 C 154.9528 116.15189 159.18276 121.30053 160.88381 127.45801 C 162.58486 133.6155 161.59776 140.20539 158.1672 145.5942 C 156.0934 150.02387 156.01638 155.12966 157.9556 159.61987 Z" stroke="black" stroke-linecap="round" stroke-linejoin="round" stroke-width="1.5113863"/>
        </g>
        <g id="Graphic_1767">
          <path d="M 169.95944 154.38244 C 159.5588 162.58298 153.4632 175.07709 153.40127 188.32165 C 153.09353 193.75784 150.94574 198.92766 147.31083 202.98158 C 153.5354 200.88007 157.65785 194.96026 157.46991 188.3932 C 157.37998 175.62593 164.41442 163.87327 175.70921 157.92022 C 174.24415 156.1289 172.21886 154.88275 169.95944 154.38244 Z" fill="#FFFFFF"/>
          <path d="M 169.95944 154.38244 C 159.5588 162.58298 153.4632 175.07709 153.40127 188.32165 C 153.09353 193.75784 150.94574 198.92766 147.31083 202.98158 C 153.5354 200.88007 157.65785 194.96026 157.46991 188.3932 C 157.37998 175.62593 164.41442 163.87327 175.70921 157.92022 C 174.24415 156.1289 172.21886 154.88275 169.95944 154.38244 Z" stroke="black" stroke-linecap="round" stroke-linejoin="round" stroke-width="1.1335398"/>
        </g>
        <g id="Graphic_1766">
          <path d="M 148.9685 154.70489 C 152.10202 158.69264 157.86186 159.41436 161.8824 156.32305 C 165.3541 152.4624 170.7757 151.01186 175.7114 152.62311 C 176.99503 153.3591 177.79936 154.71368 177.83114 156.193 C 177.86292 157.67231 177.11752 159.06019 175.86668 159.85063 C 168.64427 166.88631 164.15273 176.25655 163.19151 186.29348 L 161.61098 197.28322 C 159.63251 193.46787 158.81213 189.1575 159.2507 184.88213 C 159.52211 174.24643 164.48622 164.27606 172.80953 157.64929 C 170.17838 156.61839 167.19114 157.15365 165.08163 159.034 L 144.10757 192.3696 C 142.85043 194.21491 142.19084 196.40205 142.21814 198.63473 C 139.5113 196.6987 138.65212 193.05997 140.20705 190.11762 C 142.1422 183.10191 144.88895 176.33582 148.39162 169.95645 C 149.41276 166.80155 149.22727 163.38 147.87104 160.35399 C 147.48482 158.3999 147.87873 156.37224 148.9685 154.70489 Z" fill="#FFFFFF"/>
          <path d="M 148.9685 154.70489 C 152.10202 158.69264 157.86186 159.41436 161.8824 156.32305 C 165.3541 152.4624 170.7757 151.01186 175.7114 152.62311 C 176.99503 153.3591 177.79936 154.71368 177.83114 156.193 C 177.86292 157.67231 177.11752 159.06019 175.86668 159.85063 C 168.64427 166.88631 164.15273 176.25655 163.19151 186.29348 L 161.61098 197.28322 C 159.63251 193.46787 158.81213 189.1575 159.2507 184.88213 C 159.52211 174.24643 164.48622 164.27606 172.80953 157.64929 C 170.17838 156.61839 167.19114 157.15365 165.08163 159.034 L 144.10757 192.3696 C 142.85043 194.21491 142.19084 196.40205 142.21814 198.63473 C 139.5113 196.6987 138.65212 193.05997 140.20705 190.11762 C 142.1422 183.10191 144.88895 176.33582 148.39162 169.95645 C 149.41276 166.80155 149.22727 163.38 147.87104 160.35399 C 147.48482 158.3999 147.87873 156.37224 148.9685 154.70489 Z" stroke="black" stroke-linecap="round" stroke-linejoin="round" stroke-width="1.5113863"/>
        </g>
        <g id="Graphic_1765">
          <path d="M 152.5879 171.33712 L 154.43034 164.46105 C 154.6087 164.05212 154.53093 163.57662 154.23157 163.24584 C 153.93221 162.91505 153.46681 162.79035 153.04216 162.92714 C 152.61752 163.06393 152.31241 163.43683 152.26241 163.88016 C 152.25143 164.40903 152.60006 164.87819 153.10961 165.02025 C 153.61917 165.16232 154.16024 164.94122 154.42448 164.48295 Z" fill="#FFFFFF"/>
          <path d="M 152.5879 171.33712 L 154.43034 164.46105 C 154.6087 164.05212 154.53093 163.57662 154.23157 163.24584 C 153.93221 162.91505 153.46681 162.79035 153.04216 162.92714 C 152.61752 163.06393 152.31241 163.43683 152.26241 163.88016 C 152.25143 164.40903 152.60006 164.87819 153.10961 165.02025 C 153.61917 165.16232 154.16024 164.94122 154.42448 164.48295 Z" stroke="black" stroke-linecap="round" stroke-linejoin="round" stroke-width="1.5113863"/>
        </g>
        <g id="Graphic_1764">
          <path d="M 256.05298 88.86536 C 259.86382 92.28277 262.29308 98.43609 262.74615 105.81912 C 263.1992 113.20214 261.63426 121.13344 258.43435 127.6716 C 251.36712 140.23134 243.53795 151.8571 235.1181 162.2946 C 232.18167 165.6142 231.86 170.85547 234.3959 174.0618 C 236.9318 177.26814 241.38522 177.25093 244.3943 174.02318 C 252.6173 161.92234 260.6405 149.65091 268.45876 137.21679 C 273.39318 128.40921 274.86084 117.84664 272.45378 108.46513 C 270.0467 99.08362 264.0215 91.8832 256.05298 88.86536 Z" fill="#FFFFFF"/>
          <path d="M 256.05298 88.86536 C 259.86382 92.28277 262.29308 98.43609 262.74615 105.81912 C 263.1992 113.20214 261.63426 121.13344 258.43435 127.6716 C 251.36712 140.23134 243.53795 151.8571 235.1181 162.2946 C 232.18167 165.6142 231.86 170.85547 234.3959 174.0618 C 236.9318 177.26814 241.38522 177.25093 244.3943 174.02318 C 252.6173 161.92234 260.6405 149.65091 268.45876 137.21679 C 273.39318 128.40921 274.86084 117.84664 272.45378 108.46513 C 270.0467 99.08362 264.0215 91.8832 256.05298 88.86536 Z" stroke="black" stroke-linecap="round" stroke-linejoin="round" stroke-width="1.5113863"/>
        </g>
        <g id="Graphic_1763">
          <path d="M 279.671 93.64058 C 283.0259 97.62883 284.6177 104.44704 284.05674 112.42632 C 283.4958 120.4056 280.83385 128.80951 276.7225 135.58103 C 267.9007 148.51377 258.4426 160.37962 248.5551 170.91904 C 245.16172 174.2534 244.12552 179.85407 246.22675 183.50383 C 248.32797 187.1536 252.79043 187.50423 256.25394 184.2917 C 266.17293 171.94644 275.91485 159.40135 285.47342 146.66451 C 291.63743 137.59311 294.5631 126.35117 293.4373 116.06326 C 292.3115 105.77534 287.25418 97.53796 279.671 93.64058 Z" fill="#FFFFFF"/>
          <path d="M 279.671 93.64058 C 283.0259 97.62883 284.6177 104.44704 284.05674 112.42632 C 283.4958 120.4056 280.83385 128.80951 276.7225 135.58103 C 267.9007 148.51377 258.4426 160.37962 248.5551 170.91904 C 245.16172 174.2534 244.12552 179.85407 246.22675 183.50383 C 248.32797 187.1536 252.79043 187.50423 256.25394 184.2917 C 266.17293 171.94644 275.91485 159.40135 285.47342 146.66451 C 291.63743 137.59311 294.5631 126.35117 293.4373 116.06326 C 292.3115 105.77534 287.25418 97.53796 279.671 93.64058 Z" stroke="black" stroke-linecap="round" stroke-linejoin="round" stroke-width="1.5113863"/>
        </g>
        <g id="Graphic_1762">
          <path d="M 304.33544 111.87182 C 306.3679 116.89224 305.67316 124.6687 302.42123 133.29818 C 299.1693 141.92766 293.66022 150.6139 287.24217 157.23123 C 274.00517 169.6834 260.48693 180.84324 246.98322 190.46658 C 242.42162 193.44615 239.4655 199.4037 240.35376 203.82714 C 241.24202 208.25058 245.64385 209.49255 250.22542 206.61242 C 264.36767 195.019 278.399 183.17226 292.3104 171.07982 C 301.5713 162.34269 308.3041 150.5977 310.6373 139.10968 C 312.9705 127.62165 310.65536 117.61518 304.33544 111.87182 Z" fill="#FFFFFF"/>
          <path d="M 304.33544 111.87182 C 306.3679 116.89224 305.67316 124.6687 302.42123 133.29818 C 299.1693 141.92766 293.66022 150.6139 287.24217 157.23123 C 274.00517 169.6834 260.48693 180.84324 246.98322 190.46658 C 242.42162 193.44615 239.4655 199.4037 240.35376 203.82714 C 241.24202 208.25058 245.64385 209.49255 250.22542 206.61242 C 264.36767 195.019 278.399 183.17226 292.3104 171.07982 C 301.5713 162.34269 308.3041 150.5977 310.6373 139.10968 C 312.9705 127.62165 310.65536 117.61518 304.33544 111.87182 Z" stroke="black" stroke-linecap="round" stroke-linejoin="round" stroke-width="1.5113863"/>
        </g>
        <g id="Graphic_1761">
          <path d="M 328.48077 182.1556 C 326.82444 187.00071 322.1047 191.64712 315.47662 194.95773 C 308.84853 198.26834 300.9237 199.93767 293.64153 199.5572 C 279.2908 197.97815 265.50203 195.3322 252.57683 191.67722 C 248.3496 190.2092 243.31552 191.95889 241.33288 195.58524 C 239.35023 199.2116 241.16982 203.3414 245.39704 204.80942 C 259.7793 207.63137 274.24047 210.20263 288.77124 212.52154 C 298.8267 213.6088 309.1402 210.81876 316.84492 204.92694 C 324.54965 199.03513 328.82433 190.66958 328.48077 182.1556 Z" fill="#FFFFFF"/>
          <path d="M 328.48077 182.1556 C 326.82444 187.00071 322.1047 191.64712 315.47662 194.95773 C 308.84853 198.26834 300.9237 199.93767 293.64153 199.5572 C 279.2908 197.97815 265.50203 195.3322 252.57683 191.67722 C 248.3496 190.2092 243.31552 191.95889 241.33288 195.58524 C 239.35023 199.2116 241.16982 203.3414 245.39704 204.80942 C 259.7793 207.63137 274.24047 210.20263 288.77124 212.52154 C 298.8267 213.6088 309.1402 210.81876 316.84492 204.92694 C 324.54965 199.03513 328.82433 190.66958 328.48077 182.1556 Z" stroke="black" stroke-linecap="round" stroke-linejoin="round" stroke-width="1.5113863"/>
        </g>
        <g id="Graphic_1760">
          <path d="M 326.85876 206.94242 C 324.38625 211.4263 318.9314 215.18254 311.8291 217.2919 C 304.72684 219.40126 296.63252 219.6691 289.52706 218.02986 C 275.66853 213.98283 262.5487 208.9827 250.45456 203.1388 C 246.54648 200.95903 241.28504 201.80797 238.7028 205.03495 C 236.12057 208.26194 237.1954 212.64497 241.10347 214.82473 C 254.7772 220.10126 268.57218 225.1446 282.4795 229.95154 C 292.19342 232.7684 302.8347 231.81165 311.4455 227.34726 C 320.05626 222.88287 325.71867 215.3867 326.85876 206.94242 Z" fill="#FFFFFF"/>
          <path d="M 326.85876 206.94242 C 324.38625 211.4263 318.9314 215.18254 311.8291 217.2919 C 304.72684 219.40126 296.63252 219.6691 289.52706 218.02986 C 275.66853 213.98283 262.5487 208.9827 250.45456 203.1388 C 246.54648 200.95903 241.28504 201.80797 238.7028 205.03495 C 236.12057 208.26194 237.1954 212.64497 241.10347 214.82473 C 254.7772 220.10126 268.57218 225.1446 282.4795 229.95154 C 292.19342 232.7684 302.8347 231.81165 311.4455 227.34726 C 320.05626 222.88287 325.71867 215.3867 326.85876 206.94242 Z" stroke="black" stroke-linecap="round" stroke-linejoin="round" stroke-width="1.5113863"/>
        </g>
        <g id="Graphic_1759">
          <path d="M 319.24426 148.3562 C 319.8795 153.43704 317.6743 159.68219 313.1683 165.56331 C 308.66228 171.44443 302.27127 176.41883 295.5593 179.26915 C 281.96875 184.14088 268.41558 187.8073 255.19625 190.18826 C 250.7533 190.72191 246.9957 194.50132 246.80342 198.6298 C 246.61112 202.75828 250.05694 205.67247 254.49988 205.13882 C 268.66363 201.3704 282.7884 197.34207 296.8651 193.05643 C 306.37954 189.62562 314.42616 182.59682 318.76832 173.92376 C 323.1105 165.2507 323.28533 155.8579 319.24426 148.3562 Z" fill="#FFFFFF"/>
          <path d="M 319.24426 148.3562 C 319.8795 153.43704 317.6743 159.68219 313.1683 165.56331 C 308.66228 171.44443 302.27127 176.41883 295.5593 179.26915 C 281.96875 184.14088 268.41558 187.8073 255.19625 190.18826 C 250.7533 190.72191 246.9957 194.50132 246.80342 198.6298 C 246.61112 202.75828 250.05694 205.67247 254.49988 205.13882 C 268.66363 201.3704 282.7884 197.34207 296.8651 193.05643 C 306.37954 189.62562 314.42616 182.59682 318.76832 173.92376 C 323.1105 165.2507 323.28533 155.8579 319.24426 148.3562 Z" stroke="black" stroke-linecap="round" stroke-linejoin="round" stroke-width="1.5113863"/>
        </g>
        <g id="Graphic_1758">
          <path d="M 323.55384 237.2423 C 320.00507 240.93346 313.7639 243.1499 306.35767 243.34918 C 298.95146 243.54846 291.06364 241.7122 284.62455 238.2898 C 272.2857 230.79382 260.90705 222.5684 250.7375 213.79342 C 247.52675 210.67645 242.22487 210.1347 238.89542 212.5834 C 235.56597 215.0321 235.46975 219.54396 238.6805 222.66093 C 250.52265 231.2967 262.54226 239.7386 274.7316 247.9812 C 283.38545 253.21623 293.91176 255.04626 303.3846 252.96262 C 312.85744 250.87898 320.26706 245.10378 323.55384 237.2423 Z" fill="#FFFFFF"/>
          <path d="M 323.55384 237.2423 C 320.00507 240.93346 313.7639 243.1499 306.35767 243.34918 C 298.95146 243.54846 291.06364 241.7122 284.62455 238.2898 C 272.2857 230.79382 260.90705 222.5684 250.7375 213.79342 C 247.52675 210.67645 242.22487 210.1347 238.89542 212.5834 C 235.56597 215.0321 235.46975 219.54396 238.6805 222.66093 C 250.52265 231.2967 262.54226 239.7386 274.7316 247.9812 C 283.38545 253.21623 293.91176 255.04626 303.3846 252.96262 C 312.85744 250.87898 320.26706 245.10378 323.55384 237.2423 Z" stroke="black" stroke-linecap="round" stroke-linejoin="round" stroke-width="1.5113863"/>
        </g>
        <g id="Graphic_1757">
          <path d="M 242.08278 230.21115 C 241.98332 232.6129 241.89204 235.01467 241.80893 237.41645 C 242.08112 247.66158 247.1288 257.12282 255.54876 263.17 C 263.9687 269.2172 274.8633 271.20564 285.2039 268.58258 C 279.0244 268.243 272.59954 264.8173 267.50197 259.14397 C 262.4044 253.47065 259.1046 246.07333 258.41025 238.76268 C 258.35364 236.38013 258.33395 234.0036 258.35117 231.63445 C 257.0276 228.47352 254.06076 226.3069 250.64695 226.00823 C 247.23314 225.70956 243.93514 227.32808 242.08278 230.21115 Z" fill="#FFFFFF"/>
          <path d="M 242.08278 230.21115 C 241.98332 232.6129 241.89204 235.01467 241.80893 237.41645 C 242.08112 247.66158 247.1288 257.12282 255.54876 263.17 C 263.9687 269.2172 274.8633 271.20564 285.2039 268.58258 C 279.0244 268.243 272.59954 264.8173 267.50197 259.14397 C 262.4044 253.47065 259.1046 246.07333 258.41025 238.76268 C 258.35364 236.38013 258.33395 234.0036 258.35117 231.63445 C 257.0276 228.47352 254.06076 226.3069 250.64695 226.00823 C 247.23314 225.70956 243.93514 227.32808 242.08278 230.21115 Z" stroke="black" stroke-linecap="round" stroke-linejoin="round" stroke-width="1.5113863"/>
        </g>
        <g id="Graphic_1756">
          <path d="M 259.45625 136.8872 L 234.643 171.9795 L 236.3176 173.81746 C 244.9565 162.09694 253.28163 150.14837 261.2842 137.98449 C 267.27732 127.81204 268.66215 115.57103 265.09302 104.3168 C 267.1745 115.49831 265.17437 127.05553 259.45625 136.8872 Z" fill="black"/>
          <path d="M 259.45625 136.8872 L 234.643 171.9795 L 236.3176 173.81746 C 244.9565 162.09694 253.28163 150.14837 261.2842 137.98449 C 267.27732 127.81204 268.66215 115.57103 265.09302 104.3168 C 267.1745 115.49831 265.17437 127.05553 259.45625 136.8872 Z" stroke="black" stroke-linecap="round" stroke-linejoin="round" stroke-width="0"/>
        </g>
        <g id="Graphic_1755">
          <path d="M 277.75314 142.65956 L 249.0981 177.71444 L 250.7199 179.77036 C 260.6624 168.08792 270.2919 156.14268 279.59816 143.94736 C 286.6415 133.69649 288.99385 120.93426 286.06812 108.84587 C 287.4344 120.74911 284.48395 132.74745 277.75314 142.65956 Z" fill="black"/>
          <path d="M 277.75314 142.65956 L 249.0981 177.71444 L 250.7199 179.77036 C 260.6624 168.08792 270.2919 156.14268 279.59816 143.94736 C 286.6415 133.69649 288.99385 120.93426 286.06812 108.84587 C 287.4344 120.74911 284.48395 132.74745 277.75314 142.65956 Z" stroke="black" stroke-linecap="round" stroke-linejoin="round" stroke-width="0"/>
        </g>
        <g id="Graphic_1754">
          <path d="M 288.1634 164.26303 L 247.11032 195.924 L 248.3872 198.6342 C 262.50432 188.18747 276.34063 177.36652 289.8814 166.18285 C 300.39564 156.58107 306.3311 142.9614 306.20632 128.72315 C 304.64048 142.34773 298.2383 154.95834 288.1634 164.26303 Z" fill="black"/>
          <path d="M 288.1634 164.26303 L 247.11032 195.924 L 248.3872 198.6342 C 262.50432 188.18747 276.34063 177.36652 289.8814 166.18285 C 300.39564 156.58107 306.3311 142.9614 306.20632 128.72315 C 304.64048 142.34773 298.2383 154.95834 288.1634 164.26303 Z" stroke="black" stroke-linecap="round" stroke-linejoin="round" stroke-width="0"/>
        </g>
        <g id="Graphic_1753">
          <path d="M 288.11293 203.95395 L 245.98954 194.79822 L 244.9498 197.06831 C 259.15565 200.45085 273.4491 203.4544 287.8149 206.07577 C 299.55585 207.62308 311.4009 204.10462 320.39325 196.39865 C 310.88482 202.70083 299.43058 205.38172 288.11293 203.95395 Z" fill="black"/>
          <path d="M 288.11293 203.95395 L 245.98954 194.79822 L 244.9498 197.06831 C 259.15565 200.45085 273.4491 203.4544 287.8149 206.07577 C 299.55585 207.62308 311.4009 204.10462 320.39325 196.39865 C 310.88482 202.70083 299.43058 205.38172 288.11293 203.95395 Z" stroke="black" stroke-linecap="round" stroke-linejoin="round" stroke-width="0"/>
        </g>
        <g id="Graphic_1752">
          <path d="M 284.124 221.405 L 244.23043 205.0737 L 242.8123 207.12876 C 256.21495 212.92673 269.76968 218.36668 283.46203 223.44282 C 294.75594 227.00542 307.032 225.59727 317.22587 219.5699 C 306.76753 224.1252 295.02177 224.77636 284.124 221.405 Z" fill="black"/>
          <path d="M 284.124 221.405 L 244.23043 205.0737 L 242.8123 207.12876 C 256.21495 212.92673 269.76968 218.36668 283.46203 223.44282 C 294.75594 227.00542 307.032 225.59727 317.22587 219.5699 C 306.76753 224.1252 295.02177 224.77636 284.124 221.405 Z" stroke="black" stroke-linecap="round" stroke-linejoin="round" stroke-width="0"/>
        </g>
        <g id="Graphic_1751">
          <path d="M 292.9841 185.59462 L 251.11022 195.83118 L 251.17085 198.32732 C 265.4218 195.14008 279.58532 191.57383 293.64635 187.63235 C 304.87735 183.87616 313.9812 175.52127 318.6854 164.6532 C 312.902 174.48578 303.7822 181.91656 292.9841 185.59462 Z" fill="black"/>
          <path d="M 292.9841 185.59462 L 251.11022 195.83118 L 251.17085 198.32732 C 265.4218 195.14008 279.58532 191.57383 293.64635 187.63235 C 304.87735 183.87616 313.9812 175.52127 318.6854 164.6532 C 312.902 174.48578 303.7822 181.91656 292.9841 185.59462 Z" stroke="black" stroke-linecap="round" stroke-linejoin="round" stroke-width="0"/>
        </g>
        <g id="Graphic_1750">
          <path d="M 279.23668 239.61303 L 244.9293 213.513 L 243.0276 215.131 C 254.47295 224.20027 266.15784 232.96308 278.06984 241.4101 C 288.05684 247.77438 300.27906 249.5915 311.6856 246.40786 C 300.4046 248.10113 288.89054 245.69008 279.23668 239.61303 Z" fill="black"/>
          <path d="M 279.23668 239.61303 L 244.9293 213.513 L 243.0276 215.131 C 254.47295 224.20027 266.15784 232.96308 278.06984 241.4101 C 288.05684 247.77438 300.27906 249.5915 311.6856 246.40786 C 300.4046 248.10113 288.89054 245.69008 279.23668 239.61303 Z" stroke="black" stroke-linecap="round" stroke-linejoin="round" stroke-width="0"/>
        </g>
        <g id="Graphic_1749">
          <path d="M 253.72234 232.91448 L 251.58793 233.1388 C 253.6958 244.49512 260.43353 254.46246 270.18582 260.6513 C 261.63045 253.60928 255.80658 243.7975 253.72234 232.91448 Z" fill="black"/>
          <path d="M 253.72234 232.91448 L 251.58793 233.1388 C 253.6958 244.49512 260.43353 254.46246 270.18582 260.6513 C 261.63045 253.60928 255.80658 243.7975 253.72234 232.91448 Z" stroke="black" stroke-linecap="round" stroke-linejoin="round" stroke-width="0"/>
        </g>
        <g id="Graphic_1748">
          <path d="M 194.9158 192.63074 C 198.81803 187.9701 204.71693 185.4611 210.78085 185.8828 C 216.84478 186.30451 222.3396 189.60587 225.55915 194.7618 C 226.7658 196.7362 228.94987 197.89914 231.2616 197.7981 C 233.57333 197.69708 235.64763 196.34805 236.67743 194.2759 C 237.70723 192.20375 237.5299 189.73572 236.21443 187.83209 L 228.2192 179.8444 C 225.4608 177.6028 223.90446 174.20388 224.00966 170.65107 C 224.11485 167.09826 225.86955 163.79736 228.75574 161.72289 L 246.6052 145.20343 C 250.6456 137.8484 249.80166 128.77457 244.47415 122.29082 C 251.62984 125.58242 257.12873 131.65639 259.6947 139.10315 C 262.2607 146.5499 261.67065 154.72199 258.06152 161.72289 C 263.4088 160.6499 268.87488 160.29158 274.31648 160.65736 C 273.0643 166.5321 270.41226 172.01768 266.58574 176.64783 C 272.38184 174.677 278.76072 175.46183 283.90622 178.77888 C 281.33316 182.3517 277.95805 185.27128 274.052 187.3031 C 280.78262 188.53893 287.26297 190.87778 293.23148 194.22525 C 288.09267 197.12395 282.34196 198.76812 276.44753 199.0239 C 283.11885 198.21117 289.659 201.32665 293.23148 207.01914 C 287.99223 209.47165 282.22148 210.57072 276.44753 210.21572 C 282.8811 210.46756 288.59022 214.41302 291.10042 220.342 C 285.41566 221.0198 279.65146 220.28791 274.31648 218.21095 C 278.6604 221.0121 281.72363 225.41412 282.8407 230.46074 C 278.61473 232.8779 273.3025 232.22923 269.78232 228.86622 C 274.15056 232.7459 276.34133 238.51924 275.6465 244.32015 C 269.70865 243.57654 264.2299 240.74205 260.19257 236.32492 C 261.70135 241.0203 260.91186 246.15202 258.06152 250.17677 C 251.47292 247.86944 246.6704 242.14814 245.53968 235.2594 C 246.32735 240.78044 245.96458 246.40473 244.47415 251.77884 C 236.83756 246.95784 232.36578 238.41793 232.75335 229.3952 C 226.61354 232.3672 223.82068 239.58372 226.3602 245.91466 C 220.40424 241.50402 218.025 233.72238 220.496 226.73517 L 199.18546 217.13787 C 194.40377 215.33426 190.93124 211.13795 190.05408 206.10325 C 189.17693 201.06855 191.02577 195.94515 194.9158 192.63074 Z" fill="#FFFFFF"/>
          <path d="M 194.9158 192.63074 C 198.81803 187.9701 204.71693 185.4611 210.78085 185.8828 C 216.84478 186.30451 222.3396 189.60587 225.55915 194.7618 C 226.7658 196.7362 228.94987 197.89914 231.2616 197.7981 C 233.57333 197.69708 235.64763 196.34805 236.67743 194.2759 C 237.70723 192.20375 237.5299 189.73572 236.21443 187.83209 L 228.2192 179.8444 C 225.4608 177.6028 223.90446 174.20388 224.00966 170.65107 C 224.11485 167.09826 225.86955 163.79736 228.75574 161.72289 L 246.6052 145.20343 C 250.6456 137.8484 249.80166 128.77457 244.47415 122.29082 C 251.62984 125.58242 257.12873 131.65639 259.6947 139.10315 C 262.2607 146.5499 261.67065 154.72199 258.06152 161.72289 C 263.4088 160.6499 268.87488 160.29158 274.31648 160.65736 C 273.0643 166.5321 270.41226 172.01768 266.58574 176.64783 C 272.38184 174.677 278.76072 175.46183 283.90622 178.77888 C 281.33316 182.3517 277.95805 185.27128 274.052 187.3031 C 280.78262 188.53893 287.26297 190.87778 293.23148 194.22525 C 288.09267 197.12395 282.34196 198.76812 276.44753 199.0239 C 283.11885 198.21117 289.659 201.32665 293.23148 207.01914 C 287.99223 209.47165 282.22148 210.57072 276.44753 210.21572 C 282.8811 210.46756 288.59022 214.41302 291.10042 220.342 C 285.41566 221.0198 279.65146 220.28791 274.31648 218.21095 C 278.6604 221.0121 281.72363 225.41412 282.8407 230.46074 C 278.61473 232.8779 273.3025 232.22923 269.78232 228.86622 C 274.15056 232.7459 276.34133 238.51924 275.6465 244.32015 C 269.70865 243.57654 264.2299 240.74205 260.19257 236.32492 C 261.70135 241.0203 260.91186 246.15202 258.06152 250.17677 C 251.47292 247.86944 246.6704 242.14814 245.53968 235.2594 C 246.32735 240.78044 245.96458 246.40473 244.47415 251.77884 C 236.83756 246.95784 232.36578 238.41793 232.75335 229.3952 C 226.61354 232.3672 223.82068 239.58372 226.3602 245.91466 C 220.40424 241.50402 218.025 233.72238 220.496 226.73517 L 199.18546 217.13787 C 194.40377 215.33426 190.93124 211.13795 190.05408 206.10325 C 189.17693 201.06855 191.02577 195.94515 194.9158 192.63074 Z" stroke="black" stroke-linecap="round" stroke-linejoin="round" stroke-width="1.5113863"/>
        </g>
        <g id="Graphic_1747">
          <path d="M 236.86572 177.46681 C 238.70376 177.50002 240.31463 176.11568 240.51671 174.32924 C 240.07314 167.78676 243.29845 161.33952 248.96282 157.44592 C 255.75442 153.11978 258.09446 143.89855 254.20887 136.77315 C 255.6515 144.0993 252.7837 151.6061 246.9467 155.7827 C 241.49694 159.5565 238.34876 165.7386 238.65726 172.06074 C 238.97583 173.99424 238.30925 176.0057 236.86572 177.46681 Z" fill="black"/>
        </g>
        <g id="Graphic_1746">
          <path d="M 251.52132 186.44334 C 252.9535 184.14042 253.08846 181.3929 251.85055 179.74035 C 250.61264 178.0878 248.30946 177.94085 246.2316 179.38185 C 246.50138 178.97157 246.80617 178.58884 247.13912 178.24226 C 248.59185 176.67172 250.47698 175.93773 252.06346 176.32494 C 253.64994 176.71215 254.6882 178.15965 254.7756 180.10609 C 254.863 182.05253 253.9858 184.19173 252.4842 185.69411 C 255.41558 185.09936 258.04638 186.77337 258.454 189.49278 C 258.86163 192.2122 256.90165 195.01346 254.0064 195.84943 C 253.5781 195.95427 253.14412 196.00967 252.7142 196.0144 C 254.92555 194.91768 256.26452 192.61963 255.98202 190.40586 C 255.69952 188.1921 253.8656 186.6115 251.50622 186.54832 C 251.47843 186.54864 251.4506 186.54917 251.42277 186.54992 C 251.46896 186.5483 251.5155 186.5024 251.52675 186.44736 Z M 249.94928 205.30933 C 251.377 208.34056 250.92606 211.91947 248.9359 213.3521 C 246.94575 214.78475 244.15118 213.54216 242.65575 210.55968 C 242.46883 210.09181 242.32067 209.6028 242.21462 209.10372 C 243.63542 211.39857 245.84625 212.29095 247.57467 211.26725 C 249.3031 210.24356 250.1045 207.56711 249.5176 204.77835 C 251.8134 205.35195 253.95377 204.30072 254.70807 202.22908 C 255.46238 200.15744 254.63684 197.5976 252.7061 196.0214 C 253.12645 196.13234 253.5398 196.2943 253.9368 196.50358 C 256.4899 198.12255 257.66697 201.40622 256.56585 203.83786 C 255.46472 206.2695 252.5024 206.9283 249.94928 205.30933 Z" fill="black"/>
        </g>
        <g id="Graphic_1745">
          <path d="M 261.57075 193.53247 C 262.03174 193.35243 262.51407 193.21303 263.00688 193.11739 C 266.33074 192.4773 269.40337 193.92191 269.8698 196.344 C 270.3362 198.76608 268.0198 201.24845 264.69594 201.88853 C 264.20285 201.98274 263.70324 202.03243 263.20836 202.03647 C 265.78865 201.03142 267.32623 198.918 266.93923 196.90834 C 266.55223 194.89868 264.33976 193.5074 261.57075 193.53247 Z" fill="black"/>
        </g>
        <g id="Graphic_1744">
          <path d="M 257.596 182.0131 C 257.99656 181.72327 258.42748 181.46607 258.87907 181.24725 C 261.9235 179.76896 265.2383 180.3145 266.2829 182.46576 C 267.3275 184.61701 265.7063 187.55935 262.66188 189.03764 C 262.21066 189.25721 261.74205 189.4368 261.26658 189.57235 C 263.5147 187.94777 264.48313 185.55086 263.6143 183.76157 C 262.74546 181.97227 260.26295 181.25103 257.596 182.0131 Z" fill="black"/>
        </g>
        <g id="Graphic_1743">
          <path d="M 254.47145 170.20618 C 254.81628 169.79998 255.1983 169.41535 255.60892 169.0609 C 258.37795 166.6623 261.83664 166.11925 263.3341 167.84797 C 264.83158 169.5767 263.80078 172.92257 261.03175 175.32118 C 260.62036 175.67552 260.1835 175.99685 259.731 176.27797 C 261.66067 173.99681 262.1418 171.38918 260.89795 169.95324 C 259.6541 168.5173 257.0045 168.62159 254.47145 170.20618 Z" fill="black"/>
        </g>
        <g id="Graphic_1742">
          <path d="M 252.36762 227.30978 C 252.53026 227.78424 252.66162 228.27846 252.75873 228.7813 C 253.3589 232.12408 252.3461 235.08212 250.4782 235.44182 C 248.61032 235.80152 246.5714 233.43115 245.88726 230.10455 C 245.7907 229.6016 245.72912 229.09394 245.70393 228.593 C 246.61416 231.24322 248.35432 232.8876 249.92798 232.58456 C 251.50164 232.28152 252.5067 230.1085 252.36762 227.30978 Z" fill="black"/>
        </g>
        <g id="Graphic_1741">
          <path d="M 245.48627 222.7975 C 245.56354 223.30515 245.6073 223.82738 245.6165 224.35237 C 245.64995 227.85395 244.17145 230.695 242.30045 230.72438 C 240.42945 230.75377 238.86244 227.96058 238.78588 224.45967 C 238.77614 223.93527 238.80092 223.41198 238.85966 222.9016 C 239.28483 225.7402 240.6821 227.71398 242.249 227.68936 C 243.81588 227.66475 245.15046 225.64806 245.48627 222.7975 Z" fill="black"/>
        </g>
        <g id="Graphic_1740">
          <path d="M 239.94485 217.1331 C 239.88293 217.6503 239.7857 218.17278 239.65537 218.68886 C 238.7572 222.1129 236.6225 224.49673 234.8526 224.05215 C 233.08267 223.60758 232.32784 220.49797 233.15432 217.0559 C 233.28332 216.5395 233.44454 216.03307 233.63436 215.54802 C 233.28817 218.45066 234.09372 220.75188 235.58733 221.12705 C 237.08093 221.50222 238.8783 219.8548 239.94485 217.1331 Z" fill="black"/>
        </g>
        <g id="Graphic_1739">
          <path d="M 265.5941 211.46086 C 265.5686 211.45764 265.54316 211.45416 265.51773 211.45042 C 265.54 211.4632 265.56216 211.4762 265.5842 211.48943 Z M 259.67826 222.65566 C 259.6576 222.63812 259.6371 222.62036 259.61674 222.60237 C 259.63168 222.62872 259.6465 222.65518 259.66123 222.68175 Z M 263.40132 217.53914 C 264.81455 218.90992 265.1366 221.10676 264.1276 222.4934 C 263.11862 223.88003 261.14567 223.95198 259.67826 222.65566 C 260.9957 225.56504 260.73797 228.81465 259.0949 230.01056 C 257.45183 231.20646 255.01215 229.92016 253.57313 227.09926 C 253.36342 226.6661 253.1849 226.21215 253.04154 225.7476 C 254.45346 227.77552 256.3695 228.58136 257.76385 227.73368 C 259.1582 226.886 259.70406 224.58343 259.10923 222.05876 C 259.0605 221.99586 259.01342 221.93155 258.96807 221.86593 C 259.00494 221.89016 259.0421 221.9137 259.07958 221.93653 C 259.04027 221.77688 258.99667 221.6177 258.9489 221.45943 C 259.08115 221.6495 259.20735 221.8481 259.32676 222.05411 C 260.63044 222.63284 262.00356 222.31725 262.77926 221.26062 C 263.55497 220.204 263.57255 218.62523 262.82347 217.29106 C 262.7577 217.25718 262.69275 217.22136 262.62874 217.18364 C 262.3791 217.03405 262.1452 216.85636 261.93226 216.65457 C 263.40032 217.1374 264.89644 216.62787 265.60897 215.40237 C 266.3215 214.17687 266.08064 212.52749 265.01704 211.349 C 264.99757 211.32866 264.97788 211.30852 264.958 211.28858 C 264.7144 211.1971 264.4809 211.08137 264.26176 210.94352 C 265.8664 211.12055 267.33265 210.26287 267.8171 208.86384 C 268.30157 207.4648 267.6797 205.88405 266.3092 205.03085 C 266.5961 205.06416 266.87948 205.13005 267.15295 205.22705 C 268.87342 205.84107 269.88068 207.55004 269.47598 209.16842 C 269.07127 210.7868 267.3881 211.7808 265.5941 211.46086 C 267.1364 212.39442 267.87575 214.2555 267.31826 215.80088 C 266.76076 217.34625 265.0811 218.09165 263.40132 217.53914 Z" fill="black"/>
        </g>
        <g id="Graphic_1738">
          <path d="M 265.5941 211.46086 C 265.5686 211.45764 265.54316 211.45416 265.51773 211.45042 C 265.54 211.4632 265.56216 211.4762 265.5842 211.48943 M 259.67826 222.65566 C 259.6576 222.63812 259.6371 222.62036 259.61674 222.60237 C 259.63168 222.62872 259.6465 222.65518 259.66123 222.68175 M 263.40132 217.53914 C 264.81455 218.90992 265.1366 221.10676 264.1276 222.4934 C 263.11862 223.88003 261.14567 223.95198 259.67826 222.65566 C 260.9957 225.56504 260.73797 228.81465 259.0949 230.01056 C 257.45183 231.20646 255.01215 229.92016 253.57313 227.09926 C 253.36342 226.6661 253.1849 226.21215 253.04154 225.7476 C 254.45346 227.77552 256.3695 228.58136 257.76385 227.73368 C 259.1582 226.886 259.70406 224.58343 259.10923 222.05876 C 259.0605 221.99586 259.01342 221.93155 258.96807 221.86593 C 259.00494 221.89016 259.0421 221.9137 259.07958 221.93653 C 259.04027 221.77688 258.99667 221.6177 258.9489 221.45943 C 259.08115 221.6495 259.20735 221.8481 259.32676 222.05411 C 260.63044 222.63284 262.00356 222.31725 262.77926 221.26062 C 263.55497 220.204 263.57255 218.62523 262.82347 217.29106 C 262.7577 217.25718 262.69275 217.22136 262.62874 217.18364 C 262.3791 217.03405 262.1452 216.85636 261.93226 216.65457 C 263.40032 217.1374 264.89644 216.62787 265.60897 215.40237 C 266.3215 214.17687 266.08064 212.52749 265.01704 211.349 C 264.99757 211.32866 264.97788 211.30852 264.958 211.28858 C 264.7144 211.1971 264.4809 211.08137 264.26176 210.94352 C 265.8664 211.12055 267.33265 210.26287 267.8171 208.86384 C 268.30157 207.4648 267.6797 205.88405 266.3092 205.03085 C 266.5961 205.06416 266.87948 205.13005 267.15295 205.22705 C 268.87342 205.84107 269.88068 207.55004 269.47598 209.16842 C 269.07127 210.7868 267.3881 211.7808 265.5941 211.46086 C 267.1364 212.39442 267.87575 214.2555 267.31826 215.80088 C 266.76076 217.34625 265.0811 218.09165 263.40132 217.53914" fill="black"/>
        </g>
        <g id="Graphic_1737">
          <path d="M 260.1097 202.7356 C 260.4604 202.83755 260.79948 202.97981 261.11934 203.15918 C 263.2777 204.3605 264.12568 206.95442 263.01337 208.95284 C 261.90106 210.95126 259.24967 211.59744 257.0913 210.39611 C 256.77122 210.21647 256.47286 210.00102 256.20295 209.75463 C 258.16676 210.3216 260.19357 209.55409 261.11785 207.89348 C 262.04213 206.23288 261.6264 204.10587 260.1097 202.7356 Z" fill="black"/>
        </g>
        <g id="Graphic_1736">
          <path d="M 257.5257 211.42212 C 257.82848 211.65015 258.10842 211.91131 258.35926 212.19974 C 259.99555 214.15092 259.99577 216.84837 258.35974 218.26555 C 256.7237 219.68272 254.05386 219.29777 252.35602 217.39991 C 252.1063 217.1105 251.88775 216.79617 251.70523 216.46396 C 253.4002 217.73886 255.5497 217.79812 256.9238 216.60784 C 258.2979 215.41756 258.5458 213.2816 257.5257 211.42212 Z" fill="black"/>
        </g>
        <g id="Graphic_1735">
          <path d="M 251.06473 216.79852 C 251.17743 217.08898 251.26435 217.39274 251.32355 217.70295 C 251.66326 219.75123 250.74732 221.60257 249.25174 221.89058 C 247.75616 222.17858 246.2182 220.7998 245.77294 218.77183 C 245.7127 218.46182 245.6806 218.1475 245.67737 217.83596 C 246.31148 219.4609 247.64933 220.42846 248.92295 220.1832 C 250.19656 219.93794 251.07942 218.54274 251.06473 216.79852 Z" fill="black"/>
        </g>
        <g id="Group_1729">
          <g id="Graphic_1734">
            <path d="M 166.49418 209.3135 C 166.19077 210.0388 166.0341 210.81704 166.0332 211.60325 C 166.0332 214.88994 168.6976 217.55433 171.98429 217.55433 C 175.27098 217.55433 177.93537 214.88994 177.93537 211.60325 C 177.93488 210.82263 177.78081 210.04975 177.48195 209.3286 C 176.87324 206.42153 175.64647 203.67934 173.88485 201.28803 C 173.17014 199.85937 173.2503 198.16174 174.09645 196.80677 C 174.7971 194.05975 173.33313 191.22269 170.68827 190.20202 C 171.43675 192.72474 171.04765 195.44846 169.62275 197.6607 C 167.94838 199.24573 167.3623 201.667 168.12647 203.84228 C 168.04552 205.76042 167.4561 207.62256 166.4186 209.23793 C 166.44366 209.26325 166.46885 209.28844 166.49418 209.3135 Z" fill="#FFFFFF"/>
            <path d="M 166.49418 209.3135 C 166.19077 210.0388 166.0341 210.81704 166.0332 211.60325 C 166.0332 214.88994 168.6976 217.55433 171.98429 217.55433 C 175.27098 217.55433 177.93537 214.88994 177.93537 211.60325 C 177.93488 210.82263 177.78081 210.04975 177.48195 209.3286 C 176.87324 206.42153 175.64647 203.67934 173.88485 201.28803 C 173.17014 199.85937 173.2503 198.16174 174.09645 196.80677 C 174.7971 194.05975 173.33313 191.22269 170.68827 190.20202 C 171.43675 192.72474 171.04765 195.44846 169.62275 197.6607 C 167.94838 199.24573 167.3623 201.667 168.12647 203.84228 C 168.04552 205.76042 167.4561 207.62256 166.4186 209.23793 C 166.44366 209.26325 166.46885 209.28844 166.49418 209.3135 Z" stroke="black" stroke-linecap="round" stroke-linejoin="round" stroke-width="1.6322973"/>
          </g>
          <g id="Graphic_1733">
            <path d="M 149.49108 227.45013 C 149.18768 228.17544 149.031 228.95367 149.0301 229.73988 C 149.0301 233.02657 151.6945 235.69097 154.98119 235.69097 C 158.26788 235.69097 160.93227 233.02657 160.93227 229.73988 C 160.93178 228.95927 160.77772 228.18638 160.47886 227.46525 C 159.87014 224.55816 158.64338 221.81598 156.88176 219.42467 C 156.16704 217.996 156.2472 216.29837 157.09335 214.9434 C 157.79401 212.1964 156.33004 209.35932 153.68518 208.33865 C 154.43365 210.86138 154.04455 213.5851 152.61965 215.79734 C 150.94528 217.38237 150.3592 219.80363 151.12338 221.9789 C 151.04243 223.89705 150.453 225.7592 149.41551 227.37456 C 149.44057 227.39988 149.46576 227.42507 149.49108 227.45013 Z" fill="#FFFFFF"/>
            <path d="M 149.49108 227.45013 C 149.18768 228.17544 149.031 228.95367 149.0301 229.73988 C 149.0301 233.02657 151.6945 235.69097 154.98119 235.69097 C 158.26788 235.69097 160.93227 233.02657 160.93227 229.73988 C 160.93178 228.95927 160.77772 228.18638 160.47886 227.46525 C 159.87014 224.55816 158.64338 221.81598 156.88176 219.42467 C 156.16704 217.996 156.2472 216.29837 157.09335 214.9434 C 157.79401 212.1964 156.33004 209.35932 153.68518 208.33865 C 154.43365 210.86138 154.04455 213.5851 152.61965 215.79734 C 150.94528 217.38237 150.3592 219.80363 151.12338 221.9789 C 151.04243 223.89705 150.453 225.7592 149.41551 227.37456 C 149.44057 227.39988 149.46576 227.42507 149.49108 227.45013 Z" stroke="black" stroke-linecap="round" stroke-linejoin="round" stroke-width="1.6322973"/>
          </g>
          <g id="Graphic_1732">
            <path d="M 168.19448 247.28708 C 167.89108 248.01238 167.7344 248.79062 167.73351 249.57683 C 167.73351 252.86352 170.3979 255.5279 173.6846 255.5279 C 176.97129 255.5279 179.63568 252.86352 179.63568 249.57683 C 179.63519 248.79622 179.48112 248.02333 179.18226 247.3022 C 178.57355 244.3951 177.34678 241.65293 175.58516 239.26162 C 174.87045 237.83295 174.9506 236.13532 175.79676 234.78036 C 176.49742 232.03333 175.03344 229.19627 172.38858 228.1756 C 173.13706 230.69833 172.74796 233.42204 171.32305 235.6343 C 169.64869 237.2193 169.0626 239.64058 169.82678 241.81586 C 169.74583 243.734 169.15641 245.59614 168.11892 247.2115 C 168.14397 247.23683 168.16916 247.26202 168.19448 247.28708 Z" fill="#FFFFFF"/>
            <path d="M 168.19448 247.28708 C 167.89108 248.01238 167.7344 248.79062 167.73351 249.57683 C 167.73351 252.86352 170.3979 255.5279 173.6846 255.5279 C 176.97129 255.5279 179.63568 252.86352 179.63568 249.57683 C 179.63519 248.79622 179.48112 248.02333 179.18226 247.3022 C 178.57355 244.3951 177.34678 241.65293 175.58516 239.26162 C 174.87045 237.83295 174.9506 236.13532 175.79676 234.78036 C 176.49742 232.03333 175.03344 229.19627 172.38858 228.1756 C 173.13706 230.69833 172.74796 233.42204 171.32305 235.6343 C 169.64869 237.2193 169.0626 239.64058 169.82678 241.81586 C 169.74583 243.734 169.15641 245.59614 168.11892 247.2115 C 168.14397 247.23683 168.16916 247.26202 168.19448 247.28708 Z" stroke="black" stroke-linecap="round" stroke-linejoin="round" stroke-width="1.6322973"/>
          </g>
          <g id="Graphic_1731">
            <path d="M 154.592 273.92526 C 154.2886 274.65057 154.13193 275.4288 154.13104 276.215 C 154.13104 279.5017 156.79543 282.1661 160.08212 282.1661 C 163.36881 282.1661 166.0332 279.5017 166.0332 276.215 C 166.03271 275.4344 165.87865 274.6615 165.57979 273.94037 C 164.97107 271.0333 163.7443 268.2911 161.98269 265.8998 C 161.26797 264.47113 161.34813 262.7735 162.19428 261.41854 C 162.89494 258.67152 161.43096 255.83445 158.7861 254.81378 C 159.53458 257.3365 159.14548 260.06023 157.72058 262.27247 C 156.0462 263.8575 155.46013 266.27876 156.2243 268.45404 C 156.14335 270.37218 155.55394 272.23432 154.51644 273.8497 C 154.5415 273.875 154.56669 273.9002 154.592 273.92526 Z" fill="#FFFFFF"/>
            <path d="M 154.592 273.92526 C 154.2886 274.65057 154.13193 275.4288 154.13104 276.215 C 154.13104 279.5017 156.79543 282.1661 160.08212 282.1661 C 163.36881 282.1661 166.0332 279.5017 166.0332 276.215 C 166.03271 275.4344 165.87865 274.6615 165.57979 273.94037 C 164.97107 271.0333 163.7443 268.2911 161.98269 265.8998 C 161.26797 264.47113 161.34813 262.7735 162.19428 261.41854 C 162.89494 258.67152 161.43096 255.83445 158.7861 254.81378 C 159.53458 257.3365 159.14548 260.06023 157.72058 262.27247 C 156.0462 263.8575 155.46013 266.27876 156.2243 268.45404 C 156.14335 270.37218 155.55394 272.23432 154.51644 273.8497 C 154.5415 273.875 154.56669 273.9002 154.592 273.92526 Z" stroke="black" stroke-linecap="round" stroke-linejoin="round" stroke-width="1.6322973"/>
          </g>
          <g id="Graphic_1730">
            <path d="M 176.12926 286.96097 C 175.82586 287.68628 175.66919 288.4645 175.6683 289.25072 C 175.6683 292.5374 178.33268 295.2018 181.61937 295.2018 C 184.90607 295.2018 187.57046 292.5374 187.57046 289.25072 C 187.56997 288.4701 187.4159 287.69722 187.11704 286.97608 C 186.50833 284.069 185.28156 281.32682 183.51994 278.9355 C 182.80522 277.50684 182.88538 275.8092 183.73154 274.45425 C 184.4322 271.70723 182.96822 268.87016 180.32336 267.8495 C 181.07184 270.37222 180.68274 273.09593 179.25783 275.30818 C 177.58346 276.8932 176.99739 279.31447 177.76156 281.48975 C 177.6806 283.4079 177.0912 285.27003 176.0537 286.8854 C 176.07875 286.91072 176.10394 286.9359 176.12926 286.96097 Z" fill="#FFFFFF"/>
            <path d="M 176.12926 286.96097 C 175.82586 287.68628 175.66919 288.4645 175.6683 289.25072 C 175.6683 292.5374 178.33268 295.2018 181.61937 295.2018 C 184.90607 295.2018 187.57046 292.5374 187.57046 289.25072 C 187.56997 288.4701 187.4159 287.69722 187.11704 286.97608 C 186.50833 284.069 185.28156 281.32682 183.51994 278.9355 C 182.80522 277.50684 182.88538 275.8092 183.73154 274.45425 C 184.4322 271.70723 182.96822 268.87016 180.32336 267.8495 C 181.07184 270.37222 180.68274 273.09593 179.25783 275.30818 C 177.58346 276.8932 176.99739 279.31447 177.76156 281.48975 C 177.6806 283.4079 177.0912 285.27003 176.0537 286.8854 C 176.07875 286.91072 176.10394 286.9359 176.12926 286.96097 Z" stroke="black" stroke-linecap="round" stroke-linejoin="round" stroke-width="1.6322973"/>
          </g>
        </g>
      </g>
    </g>
  </g>
</svg>
