<?xml version="1.0" encoding="UTF-8" standalone="no"?>
<!DOCTYPE svg PUBLIC "-//W3C//DTD SVG 1.1//EN" "http://www.w3.org/Graphics/SVG/1.1/DTD/svg11.dtd">
<svg xmlns="http://www.w3.org/2000/svg" xmlns:xl="http://www.w3.org/1999/xlink" version="1.1" xmlns:dc="http://purl.org/dc/elements/1.1/" viewBox="47 63 262 261" width="262" height="261">
  <defs>
    <clipPath id="artboard_clip_path">
      <path d="M 47 63 L 309 63 L 309 324 L 47 324 Z"/>
    </clipPath>
  </defs>
  <g id="Pomegranate_Slipped_and_Leaved_(1)" stroke-opacity="1" fill="none" fill-opacity="1" stroke-dasharray="none" stroke="none">
    <title>Pomegranate Slipped and Leaved (1)</title>
    <g id="Pomegranate_Slipped_and_Leaved_(1)_Layer_2" clip-path="url(#artboard_clip_path)">
      <title>Layer 2</title>
      <g id="Group_927">
        <g id="Graphic_1058">
          <path d="M 169.96956 63.778944 C 168.78771 63.993825 167.28355 64.63847 166.53146 65.28311 C 165.67194 65.927755 164.4901 65.927755 163.09336 65.17567 C 160.62223 63.778944 155.7874 65.28311 154.82044 67.646805 C 154.49812 68.61377 152.77907 69.15097 150.84514 69.15097 C 144.82847 69.04353 137.73739 72.37419 136.4481 75.81229 C 135.3737 78.4983 135.58858 79.14295 138.38203 81.82896 C 140.10108 83.44057 141.49781 85.3745 141.49781 86.23402 C 141.49781 86.98611 142.89454 89.13492 144.72103 91.17629 L 147.8368 94.82927 L 141.7127 97.73016 C 138.05971 99.44921 133.86953 102.56499 131.29096 105.46588 C 128.92726 108.1519 125.27428 112.23464 123.12547 114.49089 C 118.18321 119.97036 114.53023 128.35073 109.80284 145.43378 C 106.68707 156.50015 108.72844 168.42606 115.60463 179.81476 C 117.32368 182.60821 118.93529 186.15375 119.25761 187.65792 C 120.33202 192.06298 140.9606 209.68324 150.63026 214.30318 C 153.6386 215.6999 156.86181 217.31152 157.82878 217.84872 C 158.90318 218.27848 160.29991 218.70824 161.052 218.70824 C 161.80408 218.70824 165.77938 219.78265 169.86212 221.07194 C 176.73832 223.3282 177.38296 223.75795 179.42433 228.3779 C 181.14338 231.92343 181.68058 235.46897 181.68058 241.80797 C 181.68058 249.97345 179.96153 256.84964 178.77969 253.08923 C 175.44903 242.02285 168.89516 232.03087 162.01896 227.19605 C 157.50646 224.08027 145.04335 219.78265 140.31596 219.78265 C 137.62995 219.78265 136.87787 219.138 135.58858 216.12967 C 134.72905 214.0883 131.82816 210.54276 129.14215 208.2865 C 124.84452 204.74097 123.12547 204.09633 116.14184 203.12936 C 109.80284 202.1624 107.33171 202.26984 104.6457 203.45168 C 102.60432 204.3112 99.70343 204.5261 97.33974 204.20377 C 93.36444 203.55912 93.257 203.55912 75.20698 212.69157 C 67.79358 216.452 63.38852 221.28682 59.73554 229.9895 C 56.08256 238.6922 55.115594 239.98148 50.92541 241.05588 C 43.619453 242.9898 48.024516 247.39487 57.69417 247.82464 C 62.958755 248.14696 63.6034 247.93208 63.6034 246.1056 C 63.6034 243.7419 63.49596 243.7419 73.05817 245.78327 C 78.21532 246.85767 79.82692 246.75023 82.72782 245.3535 C 85.30639 244.17166 86.81056 243.95678 88.63705 244.8163 C 90.46354 245.67583 92.07515 245.56839 94.54628 244.60142 C 98.09182 243.2047 109.26564 242.34517 109.26564 243.41957 C 109.26564 244.60142 102.17456 250.9404 100.99272 250.9404 C 98.8439 250.9404 92.07515 258.13893 92.07515 260.39518 C 92.07515 261.57703 90.78586 263.6184 89.17425 264.9077 C 84.87663 268.23835 81.33109 274.4699 81.33109 278.76752 C 81.33109 280.70145 80.47157 284.67675 79.5046 287.4702 C 77.89299 292.09015 77.78555 293.70176 78.9674 301.9747 C 80.14925 310.2476 80.14925 311.64433 78.64508 314.00803 C 76.173945 317.76845 77.24835 320.0247 80.68645 318.52053 C 82.4055 317.661 84.44687 314.86755 86.48824 310.14017 C 90.67842 300.90028 93.7942 297.9994 100.24063 297.46218 C 103.03409 297.2473 106.57963 296.06545 108.29867 294.99105 C 109.91028 293.8092 111.73677 292.84224 112.48886 292.84224 C 114.95999 292.84224 119.57993 289.72646 121.0841 287.04044 C 121.83619 285.53628 123.34035 284.247 124.30732 284.247 C 127.9603 284.247 133.11745 280.70145 135.9109 276.40383 C 137.41507 273.9327 140.31596 270.06483 142.35734 267.80858 C 145.79543 263.83328 146.01031 263.18864 145.79543 256.52732 C 145.688 252.55202 145.58055 248.68416 145.688 247.93208 C 145.79543 247.07255 147.72936 246.6428 151.70466 246.6428 C 158.1511 246.6428 164.4901 249.65113 167.7133 254.3785 C 171.04397 258.99846 169.5398 268.02346 164.06033 276.18895 C 157.6139 286.07348 155.57252 303.69373 159.7627 313.04106 C 162.6636 319.4875 166.1017 324 167.9282 324 C 170.6142 324 183.18475 316.26428 183.72195 314.33035 C 183.93683 313.25594 182.5401 309.9253 180.49874 306.70207 C 176.9532 301.2226 176.84576 300.4705 177.27552 293.37944 C 177.92016 281.77586 184.9038 271.0318 193.9288 267.70114 C 207.03656 262.75888 213.91275 261.7919 219.17734 263.72584 C 221.32615 264.58537 222.29312 266.19697 223.68985 271.0318 C 226.26842 280.48657 227.23538 282.31306 230.9958 286.07348 C 235.93807 291.1232 241.52498 296.06545 242.06218 296.06545 C 242.27706 296.06545 244.31843 297.2473 246.5747 298.64403 C 252.1616 302.08212 272.89763 304.23094 276.12084 301.65236 C 276.87293 301.00772 278.9143 300.4705 280.63335 300.57796 C 289.33603 300.6854 299.43545 296.38777 305.667 289.94134 C 310.1795 285.1065 310.07206 283.81723 305.34468 284.67675 C 301.6917 285.42884 301.1545 285.1065 291.26996 275.22198 C 280.2036 264.1556 272.46786 258.46125 268.81488 258.46125 C 267.5256 258.46125 265.59167 257.4943 264.51726 256.31244 C 263.44286 255.1306 261.1866 254.16363 259.46755 254.16363 C 257.7485 254.16363 255.27737 253.62643 253.9881 252.87434 C 250.12022 250.83297 237.01248 251.47762 231.96277 254.0562 C 227.66515 256.31244 221.00383 257.17197 221.00383 255.45292 C 221.00383 255.02316 222.83032 253.73387 225.08657 252.55202 C 227.23538 251.47762 229.70652 249.97345 230.56604 249.43625 C 231.31813 248.7916 235.40087 248.2544 239.4836 248.03952 C 247.21933 247.82464 247.1119 247.82464 260.54196 238.90707 C 263.0131 237.18802 265.6991 234.60945 266.55863 232.99784 C 267.41816 231.2788 269.1372 229.02254 270.4265 227.8407 C 274.7241 224.08027 279.02174 217.41896 279.02174 214.6255 C 279.02174 213.12133 280.2036 210.43532 281.49287 208.60883 C 284.5012 204.63353 286.54258 199.15406 286.54258 194.85644 C 286.54258 193.13739 287.617 189.6993 288.90627 187.22816 C 291.5923 181.85613 292.88157 167.78141 290.94764 164.12843 C 289.5509 161.44242 287.07978 161.01266 286.22026 163.37635 C 285.5756 164.88052 277.51757 169.39302 272.5753 170.8972 C 268.6 172.07904 250.97975 184.11238 247.86397 187.65792 C 246.3598 189.4844 243.9961 191.41834 242.49194 192.17042 C 241.09522 192.9225 238.62408 196.03828 237.01248 199.15406 C 235.5083 202.26984 233.14462 205.6005 231.85533 206.46002 C 228.73955 208.71627 226.69818 212.90645 225.83866 219.24545 C 225.4089 222.25378 224.54937 225.26212 223.90473 226.0142 C 222.93776 227.3035 223.36752 235.2541 224.76425 239.87404 C 225.62378 242.6675 222.93776 244.2791 208.64817 249.3288 C 203.38358 251.26274 198.22643 253.08923 197.3669 253.519 C 195.97018 254.0562 195.86274 252.87434 196.07762 245.24606 C 196.39994 237.61778 196.07762 235.36153 193.71393 229.4523 C 190.38327 221.28682 190.27583 220.85705 193.06928 220.85705 C 195.54042 220.85705 209.18537 212.58413 209.18537 211.07996 C 209.18537 210.6502 211.87138 208.5014 215.20204 206.35258 C 222.508 201.6252 230.24372 193.6746 231.21068 189.80673 C 231.533 188.30256 233.03717 185.29423 234.4339 183.25286 C 238.62408 177.12874 241.3101 167.4591 242.70683 154.02902 C 244.10355 139.4171 243.1366 135.01204 235.93807 122.9787 C 233.68182 119.11084 231.7479 115.45786 231.7479 114.81321 C 231.7479 112.87928 216.27645 99.23433 211.6565 97.08552 C 206.82168 94.93671 205.8547 93.3251 208.64817 92.35814 C 211.22674 91.39117 215.73924 82.79592 215.84668 78.92806 C 215.95412 76.13461 215.20204 74.73788 212.30114 72.37419 C 210.36721 70.76258 207.46632 69.36585 205.8547 69.36585 C 203.7059 69.36585 202.84637 68.72121 202.30917 66.78728 C 201.5571 63.56406 193.9288 61.952454 191.35023 64.53103 C 189.30886 66.5724 188.98654 66.5724 187.05261 64.53103 C 184.9038 62.48966 178.67225 62.48966 176.9532 64.53103 C 175.77135 65.927755 175.34159 65.927755 173.83742 64.74591 C 172.87046 63.993825 171.1514 63.45662 169.96956 63.778944 Z" fill="black"/>
        </g>
        <g id="Graphic_1057">
          <path d="M 183.8294 69.580735 C 184.9038 73.77092 184.58148 84.62241 183.18475 88.38283 C 182.11035 91.39117 182.11035 92.2507 183.39963 93.00278 C 185.441 94.18462 184.04428 95.58135 181.68058 94.72183 C 180.49874 94.29207 180.17641 93.43254 180.71362 92.14325 C 182.21779 88.59772 182.75499 74.73788 181.35826 74.73788 C 180.71362 74.73788 180.17641 75.81229 180.28386 77.10157 C 180.3913 78.4983 180.3913 80.75455 180.3913 82.15128 C 180.17641 84.30009 179.96153 84.40753 178.5648 83.33313 C 176.09367 81.29176 176.30855 69.79562 178.88713 68.39889 C 181.78802 66.67984 183.0773 67.00216 183.8294 69.580735 Z" fill="white"/>
        </g>
        <g id="Graphic_1056">
          <path d="M 198.4413 73.448595 C 198.4413 80.00247 196.8297 82.68848 195.86274 77.9611 C 195.00321 73.55604 195.00321 68.82865 195.86274 67.96913 C 197.3669 66.46496 198.4413 68.72121 198.4413 73.448595 Z" fill="white"/>
        </g>
        <g id="Graphic_1055">
          <path d="M 172.65558 69.90306 C 174.37462 72.05187 175.55647 85.05218 173.94486 83.97777 C 173.19278 83.54801 172.65558 81.82896 172.65558 80.10991 C 172.65558 76.34949 171.6886 73.55604 170.50676 74.20068 C 170.077 74.41556 170.077 76.77925 170.6142 79.25039 C 171.79605 85.3745 171.79605 88.70516 170.6142 88.70516 C 170.18444 88.70516 169.43236 86.66379 169.0026 84.08521 C 168.68027 81.61408 168.03563 77.74622 167.7133 75.59741 C 166.6389 69.04353 169.32492 65.927755 172.65558 69.90306 Z" fill="white"/>
        </g>
        <g id="Graphic_1054">
          <path d="M 164.38265 75.70485 C 165.45706 78.92806 166.20914 83.33313 165.99426 85.3745 C 165.67194 89.02748 165.5645 88.92004 164.27521 83.11825 C 163.52313 79.68015 162.34128 76.56437 161.69664 76.24205 C 160.83711 75.70485 160.72967 76.34949 161.26687 78.06854 C 162.77104 83.44057 163.30825 90.85397 162.1264 90.85397 C 161.5892 90.85397 160.83711 88.27539 160.5148 85.15962 C 160.29991 82.15128 159.44039 78.06854 158.6883 76.24205 C 156.96925 72.26675 157.93622 69.04353 160.5148 69.580735 C 161.80408 69.79562 163.2008 72.05187 164.38265 75.70485 Z" fill="white"/>
        </g>
        <g id="Graphic_1053">
          <path d="M 192.20976 73.12627 C 192.20976 75.16764 192.3172 77.31646 192.42464 77.9611 C 192.53208 78.4983 192.10232 79.035505 191.45767 79.035505 C 190.92047 79.035505 190.38327 78.39086 190.27583 77.63878 C 190.06095 74.63044 189.73863 74.30812 188.77166 75.81229 C 188.01958 76.99413 187.69725 76.34949 187.69725 73.341155 C 187.69725 70.11794 188.12702 69.36585 189.84607 69.36585 C 191.56512 69.36585 191.99488 70.11794 192.20976 73.12627 Z" fill="white"/>
        </g>
        <g id="Graphic_1052">
          <path d="M 207.03656 74.20068 C 207.03656 75.0602 205.63983 76.77925 203.81334 78.06854 C 202.0943 79.35783 200.91244 80.86199 201.23477 81.29176 C 201.44965 81.72152 201.12733 82.4736 200.48268 82.90337 C 199.30084 83.54801 199.62316 80.21735 201.23477 74.41556 C 201.98685 72.15931 207.03656 71.83699 207.03656 74.20068 Z" fill="white"/>
        </g>
        <g id="Graphic_1051">
          <path d="M 155.46508 77.10157 C 156.64693 79.035505 157.6139 81.61408 157.50646 82.79592 C 157.50646 84.40753 157.0767 84.08521 155.89485 81.3992 C 153.96092 76.99413 151.91955 76.77925 153.53115 81.29176 C 155.2502 86.34146 153.85348 86.12658 151.2749 80.86199 C 148.48145 75.0602 148.48145 73.66348 151.16746 73.66348 C 152.45675 73.66348 154.1758 75.0602 155.46508 77.10157 Z" fill="white"/>
        </g>
        <g id="Graphic_1050">
          <path d="M 212.40859 77.63878 C 212.40859 80.75455 209.83 86.55634 208.54072 86.55634 C 207.78864 86.55634 206.49935 86.87867 205.5324 87.20099 C 202.84637 88.16795 203.38358 84.40753 206.49935 79.78759 C 209.40025 75.59741 212.40859 74.523 212.40859 77.63878 Z" fill="white"/>
        </g>
        <g id="Graphic_1049">
          <path d="M 147.8368 79.68015 C 149.12609 81.29176 150.09306 83.11825 150.09306 83.87033 C 150.09306 84.51497 151.06002 86.01914 152.24187 87.09355 C 153.42371 88.16795 154.06836 89.45724 153.74604 89.887 C 152.67163 91.82093 151.2749 90.74653 150.09306 87.20099 C 149.34097 84.8373 147.51448 82.68848 145.15079 81.29176 C 143.10942 80.10991 141.49781 78.60574 141.49781 77.9611 C 141.49781 75.81229 145.688 76.88669 147.8368 79.68015 Z" fill="white"/>
        </g>
        <g id="Graphic_1048">
          <path d="M 188.3419 83.97777 C 187.69725 87.30843 186.62285 88.8126 186.62285 86.23402 C 186.62285 84.30009 187.69725 81.18432 188.3419 81.18432 C 188.66422 81.18432 188.55678 82.4736 188.3419 83.97777 Z" fill="white"/>
        </g>
        <g id="Graphic_1047">
          <path d="M 198.01155 92.68046 C 196.8297 93.8623 196.18506 92.2507 197.04458 90.20932 C 197.79667 88.27539 197.9041 88.27539 198.22643 90.10188 C 198.4413 91.17629 198.33387 92.35814 198.01155 92.68046 Z" fill="white"/>
        </g>
        <g id="Graphic_1046">
          <path d="M 164.06033 96.226 C 164.06033 96.7632 163.63057 97.3004 162.98592 97.3004 C 162.44872 97.3004 161.91152 96.7632 161.91152 96.226 C 161.91152 95.58135 162.44872 95.15159 162.98592 95.15159 C 163.63057 95.15159 164.06033 95.58135 164.06033 96.226 Z" fill="white"/>
        </g>
        <g id="Graphic_1045">
          <path d="M 190.7056 99.23433 C 191.2428 102.56499 189.09398 102.13523 188.44934 98.91201 C 188.12702 97.19296 188.44934 96.33344 189.20142 96.54832 C 189.84607 96.7632 190.4907 97.94504 190.7056 99.23433 Z" fill="white"/>
        </g>
        <g id="Graphic_1044">
          <path d="M 205.42495 97.3004 C 205.10263 97.8376 204.35054 98.37481 203.7059 98.37481 C 203.1687 98.37481 202.73893 97.8376 202.73893 97.3004 C 202.73893 96.65576 203.49102 96.226 204.45798 96.226 C 205.3175 96.226 205.74727 96.65576 205.42495 97.3004 Z" fill="white"/>
        </g>
        <g id="Graphic_1043">
          <path d="M 180.17641 103.74684 C 180.17641 104.92868 177.06064 108.04446 175.8788 108.04446 C 174.26718 108.04446 171.58117 104.7138 171.58117 102.77987 C 171.58117 101.70546 172.65558 100.30874 174.0523 99.66409 C 175.98623 98.80457 176.73832 98.91201 178.34993 100.7385 C 179.3169 101.92035 180.17641 103.31707 180.17641 103.74684 Z" fill="white"/>
        </g>
        <g id="Graphic_1042">
          <path d="M 208.00352 111.0528 C 211.01186 114.81321 213.483 118.4662 213.483 119.11084 C 213.483 119.86292 214.66484 121.79685 216.06156 123.62334 C 218.74758 126.954 218.74758 130.60698 216.06156 128.35073 C 214.23508 126.84656 214.23508 126.4168 216.7062 134.9046 C 218.64014 141.13615 218.85502 141.35103 218.42526 137.2683 C 217.78061 130.60698 219.6071 131.78882 221.00383 138.8799 C 221.64847 142.318 222.40056 145.64866 222.61544 146.2933 C 223.0452 147.69003 221.32615 174.1204 220.57407 177.88083 C 219.17734 184.00494 215.6318 191.95554 212.40859 196.03828 C 210.36721 198.50942 208.64817 200.22847 208.32584 200.01358 C 208.11096 199.69126 209.07793 197.22013 210.5821 194.31923 C 215.41692 185.40167 220.03687 171.11207 219.82198 166.27725 C 219.71454 163.69867 218.5327 166.707 215.52436 176.80642 C 213.37555 183.8975 213.05323 184.54214 212.51603 181.74869 C 212.1937 179.9222 211.44162 178.52547 210.79698 178.52547 C 210.25977 178.41803 209.93745 177.88083 210.0449 177.34362 C 211.01186 174.6576 211.54906 152.0951 210.68954 152.0951 C 210.15233 152.0951 209.61513 157.03736 209.61513 163.16147 C 209.5077 170.35999 208.64817 177.88083 207.03656 184.75702 C 204.99519 193.6746 204.7803 195.39364 206.0696 196.25316 C 207.35888 197.00525 207.35888 197.22013 205.96215 197.22013 C 205.10263 197.22013 202.95382 200.12103 201.12733 203.66656 C 198.119 209.89812 195.2181 212.69157 195.2181 209.5758 C 195.2181 208.71627 195.64786 207.96419 196.18506 207.96419 C 197.25947 207.96419 202.41661 192.70763 204.02822 184.86446 C 204.67286 181.85613 205.3175 173.15344 205.63983 165.31028 C 206.39191 145.00401 203.38358 130.71442 194.57345 112.34208 C 193.28416 109.65607 192.42464 107.29237 192.63952 107.07749 C 193.3916 106.21797 196.50738 109.65607 198.76363 113.84625 C 200.2678 116.85458 201.12733 117.71411 201.44965 116.42482 C 201.5571 115.45786 199.83804 112.1272 197.47435 109.01142 C 195.11065 105.89565 193.3916 103.10219 193.71393 102.77987 C 194.466 102.02779 203.7059 112.34208 206.28447 116.85458 C 207.46632 119.11084 208.97049 120.93733 209.40025 120.93733 C 211.1193 120.93733 204.99519 110.94535 200.05292 105.46588 C 197.3669 102.67243 195.2181 99.77153 195.2181 99.23433 C 195.2181 97.40784 202.41661 104.06916 208.00352 111.0528 Z" fill="white"/>
        </g>
        <g id="Graphic_1041">
          <path d="M 170.50676 101.06082 C 170.50676 101.92035 170.077 102.67243 169.43236 102.67243 C 168.89516 102.67243 168.35795 101.92035 168.35795 101.06082 C 168.35795 100.2013 168.89516 99.44921 169.43236 99.44921 C 170.077 99.44921 170.50676 100.2013 170.50676 101.06082 Z" fill="white"/>
        </g>
        <g id="Graphic_1040">
          <path d="M 143.75406 102.45755 C 138.16715 106.54029 131.82816 112.6644 131.82816 114.06113 C 131.82816 114.92065 131.3984 115.5653 130.8612 115.5653 C 128.60494 115.5653 121.29898 133.8302 120.5469 141.35103 C 120.33202 144.03705 120.0097 146.40074 120.0097 146.72306 C 119.15017 149.1942 120.11714 160.0457 121.51386 163.80611 C 122.48083 166.707 122.80315 169.28558 122.26595 170.1451 C 121.51386 171.54183 121.19154 171.4344 120.76178 169.71534 C 118.39809 161.54986 117.646 157.03736 117.646 150.69836 C 117.75344 146.72306 117.32368 143.49985 116.67904 143.49985 C 115.17487 143.49985 115.49719 140.38407 117.75344 133.72275 C 120.65434 125.02007 122.69571 121.58197 128.06774 115.88762 C 130.75375 112.98672 132.90257 110.08583 132.90257 109.33374 C 132.90257 108.6891 133.33233 108.04446 133.86953 108.04446 C 134.40673 108.04446 136.87787 106.32541 139.349 104.28404 C 141.82013 102.24267 144.3987 100.52362 145.04335 100.52362 C 145.79543 100.63106 145.15079 101.49058 143.75406 102.45755 Z" fill="white"/>
        </g>
        <g id="Graphic_1039">
          <path d="M 158.58086 111.80488 C 155.57252 117.39179 153.31627 122.87126 153.6386 123.83822 C 153.85348 125.12751 154.92788 123.83822 156.86181 119.86292 C 158.47342 116.6397 159.54783 114.92065 159.33294 116.1025 C 157.93622 122.87126 157.50646 127.38376 158.47342 127.38376 C 159.01062 127.38376 160.08503 124.5903 160.83711 121.15221 C 161.5892 117.82155 162.87848 113.84625 163.738 112.34208 C 164.81241 110.30071 165.13474 110.19327 164.70497 111.80488 C 161.80408 124.48287 161.37432 128.5656 161.48176 148.33467 C 161.5892 171.86416 163.2008 182.93053 169.43236 200.55079 C 171.1514 205.17073 172.11837 209.0386 171.58117 209.0386 C 170.39932 209.0386 164.4901 193.88947 162.55616 185.93887 C 160.5148 177.34362 158.6883 159.72337 158.6883 147.79747 C 158.6883 142.10312 158.25854 138.12782 157.6139 138.12782 C 154.1758 138.12782 159.01062 186.7984 163.09336 194.31923 C 163.738 195.50108 163.95289 196.57549 163.738 196.8978 C 161.80408 198.83174 156.64693 180.9966 155.7874 169.50046 C 155.03532 159.93825 153.31627 157.35968 153.31627 166.06236 C 153.31627 173.15344 156.86181 188.19512 160.83711 197.435 C 164.59753 206.24514 164.70497 206.99722 162.01896 203.55912 C 157.93622 198.29454 154.60556 190.02161 153.20883 181.85613 C 152.45675 177.34362 151.38234 173.5832 150.84514 173.5832 C 149.87817 173.5832 150.30794 179.9222 151.8121 186.15375 C 152.3493 188.30256 152.24187 188.83977 151.2749 188.08768 C 150.63026 187.44304 148.80377 181.42637 147.19216 174.6576 C 142.14245 153.38438 143.8615 133.07811 151.8121 117.28435 C 155.46508 110.19327 161.5892 101.70546 163.2008 101.59802 C 163.52313 101.59802 161.48176 106.21797 158.58086 111.80488 Z" fill="white"/>
        </g>
        <g id="Graphic_1038">
          <path d="M 185.76332 104.49892 C 185.441 106.32541 185.01124 106.86261 184.68892 105.89565 C 184.3666 105.03612 183.72195 103.6394 183.0773 102.88731 C 182.32523 101.92035 182.64755 101.59802 184.15172 101.59802 C 185.9782 101.59802 186.19309 102.13523 185.76332 104.49892 Z" fill="white"/>
        </g>
        <g id="Graphic_1037">
          <path d="M 145.90287 105.57333 C 139.67132 113.63137 134.94394 121.15221 135.3737 122.33405 C 135.58858 122.9787 137.20019 121.47453 138.8118 118.78851 C 143.8615 110.94535 147.94424 105.89565 150.41538 104.60636 C 152.67163 103.42451 152.67163 103.42451 150.95258 106.00309 C 148.26657 109.76351 142.57222 119.43316 142.57222 120.29268 C 142.57222 121.79685 144.82847 120.82989 145.47311 119.0034 C 146.65496 115.88762 152.99395 106.43285 155.03532 104.82124 C 156.10973 103.85428 155.7874 104.92868 153.96092 107.50726 C 149.98562 113.41649 143.64662 126.4168 143.64662 128.5656 C 143.64662 129.53257 142.7871 130.60698 141.60525 130.9293 C 138.2746 131.78882 136.87787 145.54122 138.2746 162.94659 C 139.02668 170.8972 139.99364 178.0957 140.53085 179.17011 C 141.82013 181.5338 141.82013 184.32726 140.53085 184.32726 C 139.99364 184.32726 138.70436 180.56684 137.62995 175.9469 C 135.69602 167.02933 133.97697 163.59123 133.97697 168.85582 C 133.97697 170.57487 135.69602 176.80642 137.73739 182.71565 C 139.67132 188.62488 141.17549 193.56715 140.85317 193.88947 C 140.63829 194.10435 140.4234 193.78203 140.4234 193.13739 C 140.4234 192.3853 139.13412 191.8481 137.62995 191.8481 C 135.9109 191.8481 133.65465 190.66626 132.15048 189.05465 C 129.14215 185.83143 129.5719 184.21982 132.58024 187.22816 C 134.94394 189.37697 137.20019 190.12905 137.20019 188.73232 C 137.20019 188.19512 136.01834 184.11238 134.51417 179.59988 C 133.01 175.08737 131.50584 168.74838 131.18352 165.41772 C 130.75375 161.97962 130.00167 159.93825 129.46447 160.47546 C 128.39006 161.54986 130.43143 176.69898 132.04304 178.63291 C 132.79512 179.59988 132.79512 180.02964 132.04304 180.02964 C 130.8612 180.02964 130.21655 178.20315 127.4231 166.92189 C 126.77845 164.12843 126.34869 158.00432 126.56357 153.1695 C 126.8859 147.69003 126.56357 144.6817 125.91893 144.89657 C 125.38173 145.11145 124.84452 147.79747 124.73708 150.91324 C 124.62964 153.92158 124.30732 156.71504 123.985 157.1448 C 123.23291 157.78944 123.12547 157.46712 122.69571 152.0951 C 122.48083 150.59092 122.05107 148.657 121.6213 147.69003 C 121.29898 146.61562 121.40642 145.54122 122.05107 145.11145 C 122.69571 144.78913 123.23291 143.3924 123.23291 142.10312 C 123.34035 133.72275 131.29096 118.25131 140.31596 109.01142 C 146.7624 102.35011 149.77073 100.52362 145.90287 105.57333 Z" fill="white"/>
        </g>
        <g id="Graphic_1036">
          <path d="M 189.9535 105.14356 C 188.55678 106.54029 187.16005 105.46588 188.23446 103.85428 C 188.55678 103.20963 189.4163 102.99475 190.06095 103.31707 C 190.7056 103.74684 190.7056 104.39148 189.9535 105.14356 Z" fill="white"/>
        </g>
        <g id="Graphic_1035">
          <path d="M 173.72998 111.59 C 173.72998 113.95369 170.93653 117.06947 169.64724 116.20994 C 168.03563 115.24298 167.9282 110.19327 169.5398 110.19327 C 170.077 110.19327 170.29188 109.65607 169.86212 109.01142 C 169.43236 108.1519 169.86212 108.1519 171.47373 109.01142 C 172.65558 109.76351 173.72998 110.83791 173.72998 111.59 Z" fill="white"/>
        </g>
        <g id="Graphic_1034">
          <path d="M 182.86243 112.34208 C 182.86243 114.06113 182.21779 115.13554 180.82106 115.35042 C 178.24248 115.88762 176.84576 113.52393 178.13504 110.94535 C 179.63921 108.1519 182.86243 109.11886 182.86243 112.34208 Z" fill="white"/>
        </g>
        <g id="Graphic_1033">
          <path d="M 191.99488 112.1272 C 191.99488 113.2016 192.42464 114.49089 192.96184 115.0281 C 194.466 116.6397 199.08595 131.14418 201.12733 140.70639 C 203.81334 153.06206 202.95382 176.69898 199.40828 191.52578 C 198.01155 197.6499 196.39994 202.59216 195.86274 202.59216 C 195.32554 202.59216 195.2181 200.8731 195.54042 198.83174 C 195.86274 196.79037 195.7553 195.07132 195.32554 195.07132 C 194.78833 195.07132 194.1437 197.435 193.71393 200.44335 C 193.17672 204.3112 192.53208 205.81538 191.2428 205.81538 C 189.9535 205.81538 189.84607 205.49305 190.81303 204.41865 C 192.96184 201.73263 193.49905 194.53412 193.3916 167.56653 C 193.28416 147.90491 192.8544 138.12782 191.56512 131.03674 C 190.59815 125.77215 189.63118 120.29268 189.30886 118.78851 C 188.98654 116.74714 189.20142 116.96203 190.4907 119.75548 C 191.35023 121.68941 192.3172 123.08614 192.74696 122.76382 C 193.3916 122.01173 191.02791 114.38345 189.73863 112.87928 C 188.3419 111.37512 188.55678 110.19327 190.38327 110.19327 C 191.2428 110.19327 191.99488 111.0528 191.99488 112.1272 Z" fill="white"/>
        </g>
        <g id="Graphic_1032">
          <path d="M 226.05354 113.30905 C 231.42557 120.18524 238.19432 135.76412 238.19432 141.35103 C 238.19432 143.49985 238.73152 144.57425 239.80593 144.57425 C 241.8473 144.57425 241.95474 146.2933 239.91337 147.04538 C 238.83897 147.47515 238.30176 150.37604 237.97944 157.682 C 237.76456 166.06236 237.11992 168.64094 234.54134 174.1204 C 230.67348 181.85613 229.81396 180.56684 232.8223 171.54183 C 235.18599 164.45076 235.5083 162.40939 234.00414 163.26891 C 233.46694 163.59123 232.49997 165.95492 231.85533 168.42606 C 230.24372 174.6576 228.20235 177.66595 228.95443 172.5088 C 230.56604 162.7317 230.9958 152.0951 229.70652 152.0951 C 228.95443 152.0951 228.52467 154.13646 228.52467 157.35968 C 228.52467 165.6326 225.4089 181.31893 223.0452 184.86446 C 221.32615 187.44304 221.00383 187.55048 221.54103 185.61655 C 221.9708 184.32726 222.29312 182.17845 222.508 180.78172 C 222.61544 179.385 223.0452 177.77339 223.47496 177.12874 C 223.90473 176.4841 224.22705 174.76505 224.3345 173.47576 C 224.3345 172.07904 224.6568 166.81445 224.8717 161.87218 C 225.9461 145.11145 223.5824 134.15252 214.87972 116.1025 L 213.37555 112.87928 L 215.6318 115.78018 C 217.88805 118.68107 217.9955 118.68107 220.57407 116.96203 C 223.26008 115.24298 223.26008 115.24298 222.61544 117.92899 C 222.07824 119.97036 222.508 121.04477 224.1196 122.22661 C 225.4089 123.08614 226.05354 124.0531 225.83866 124.37542 C 224.97913 125.23495 228.6321 132.75579 230.9958 135.11948 C 231.96277 136.19389 232.8223 138.02038 232.8223 139.30966 C 232.8223 140.49151 233.25206 141.2436 233.78926 140.92127 C 234.75622 140.27663 233.3595 133.18555 231.7479 131.14418 C 231.31813 130.49954 230.35116 127.70608 229.70652 124.80519 C 228.95443 121.90429 227.0205 117.71411 225.194 115.45786 C 223.47496 113.30905 222.07824 111.16023 222.07824 110.83791 C 222.07824 109.44119 223.79729 110.51559 226.05354 113.30905 Z" fill="white"/>
        </g>
        <g id="Graphic_1031">
          <path d="M 185.54844 119.32572 C 187.37493 121.47453 186.08565 124.16054 183.39963 124.16054 C 182.21779 124.16054 180.9285 123.40846 180.60618 122.54893 C 179.96153 120.93733 181.78802 117.71411 183.39963 117.71411 C 183.8294 117.71411 184.79636 118.4662 185.54844 119.32572 Z" fill="white"/>
        </g>
        <g id="Graphic_1030">
          <path d="M 175.55647 120.0778 C 176.84576 121.68941 178.0276 126.30935 177.27552 126.30935 C 176.9532 126.30935 175.98623 125.44983 175.23415 124.37542 C 173.94486 122.65638 173.72998 122.65638 171.9035 124.48287 C 170.18444 126.09447 170.18444 126.52424 171.58117 127.4912 C 172.87046 128.35073 172.65558 128.45817 170.50676 128.24328 C 167.1761 127.81352 165.13474 122.9787 167.28355 120.50756 C 168.89516 118.4662 174.15974 118.25131 175.55647 120.0778 Z" fill="white"/>
        </g>
        <g id="Graphic_1029">
          <path d="M 186.62285 129.42513 C 188.12702 132.43347 188.01958 137.59061 186.19309 139.09478 C 185.11868 139.9543 183.93683 139.84687 181.4657 138.66502 C 176.20111 135.979 175.66391 131.03674 180.49874 128.67305 C 184.04428 126.954 185.33356 127.16888 186.62285 129.42513 Z" fill="white"/>
        </g>
        <g id="Graphic_1028">
          <path d="M 174.80439 133.8302 C 174.80439 136.19389 173.30022 138.12782 171.47373 138.12782 C 168.57283 138.12782 167.60587 134.9046 169.86212 133.18555 C 171.79605 131.78882 174.80439 132.21859 174.80439 133.8302 Z" fill="white"/>
        </g>
        <g id="Graphic_1027">
          <path d="M 141.17549 141.56592 C 140.85317 142.318 140.63829 141.7808 140.63829 140.27663 C 140.63829 138.77246 140.85317 138.23526 141.17549 138.8799 C 141.39037 139.63199 141.39037 140.92127 141.17549 141.56592 Z" fill="white"/>
        </g>
        <g id="Graphic_1026">
          <path d="M 171.25885 142.96264 C 171.04397 143.49985 169.64724 144.14449 168.14307 144.35937 C 166.1017 144.57425 165.13474 144.14449 164.59753 142.53288 C 164.27521 141.2436 164.16777 139.84687 164.59753 139.30966 C 165.34962 138.02038 171.6886 141.45847 171.25885 142.96264 Z" fill="white"/>
        </g>
        <g id="Graphic_1025">
          <path d="M 180.17641 143.49985 C 180.17641 145.2189 179.74665 146.72306 179.20945 146.72306 C 176.84576 146.72306 174.80439 145.32634 174.80439 143.60729 C 174.80439 141.13615 175.77135 140.27663 178.24248 140.27663 C 179.63921 140.27663 180.17641 141.13615 180.17641 143.49985 Z" fill="white"/>
        </g>
        <g id="Graphic_1024">
          <path d="M 189.30886 144.14449 C 189.30886 146.50818 188.77166 147.3677 186.94517 147.58259 C 185.01124 147.90491 184.47404 147.47515 184.47404 145.43378 C 184.47404 142.64032 186.40797 140.06175 188.23446 140.59895 C 188.77166 140.81383 189.30886 142.42544 189.30886 144.14449 Z" fill="white"/>
        </g>
        <g id="Graphic_1023">
          <path d="M 118.18321 168.5335 C 119.36505 172.93856 119.4725 174.6576 118.61297 174.33529 C 116.78648 173.79809 114.74511 165.84748 114.2079 156.92992 C 113.6707 146.8305 114.95999 145.2189 115.81951 154.99599 C 116.24928 158.97129 117.32368 165.0954 118.18321 168.5335 Z" fill="white"/>
        </g>
        <g id="Graphic_1022">
          <path d="M 173.08534 149.1942 C 174.26718 150.05372 174.91183 151.66533 174.5895 153.27694 C 174.15974 156.71504 168.57283 157.46712 165.88682 154.45878 C 164.27521 152.73973 164.27521 152.30997 165.77938 150.16116 C 167.60587 147.47515 170.29188 147.15282 173.08534 149.1942 Z" fill="white"/>
        </g>
        <g id="Graphic_1021">
          <path d="M 187.69725 153.1695 C 189.4163 156.39271 187.2675 159.61593 183.50707 159.61593 C 179.53177 159.61593 176.84576 156.6076 178.13504 153.38438 C 179.3169 150.16116 185.9782 149.94628 187.69725 153.1695 Z" fill="white"/>
        </g>
        <g id="Graphic_1020">
          <path d="M 168.03563 163.26891 C 167.06867 166.06236 165.13474 164.88052 165.13474 161.54986 C 165.24218 158.2192 165.24218 158.11176 166.74634 160.15313 C 167.7133 161.22754 168.25051 162.7317 168.03563 163.26891 Z" fill="white"/>
        </g>
        <g id="Graphic_1019">
          <path d="M 178.34993 160.79778 C 177.70528 161.44242 177.38296 162.62427 177.59784 163.37635 C 178.34993 165.31028 176.30855 166.38469 173.72998 165.52516 C 171.6886 164.88052 170.82909 161.76474 172.33325 160.36801 C 172.65558 159.93825 174.48206 159.61593 176.30855 159.61593 C 178.67225 159.61593 179.20945 159.93825 178.34993 160.79778 Z" fill="white"/>
        </g>
        <g id="Graphic_1018">
          <path d="M 141.17549 165.20284 C 140.85317 166.06236 140.53085 165.74004 140.53085 164.5582 C 140.4234 163.37635 140.74573 162.7317 141.06805 163.16147 C 141.39037 163.4838 141.49781 164.45076 141.17549 165.20284 Z" fill="white"/>
        </g>
        <g id="Graphic_1017">
          <path d="M 188.77166 166.06236 C 188.77166 169.71534 186.40797 170.35999 182.86243 167.78141 C 179.96153 165.74004 181.4657 162.83915 185.54844 162.83915 C 188.44934 162.83915 188.77166 163.16147 188.77166 166.06236 Z" fill="white"/>
        </g>
        <g id="Graphic_1016">
          <path d="M 174.80439 171.32695 C 174.80439 173.69065 170.93653 174.97993 168.14307 173.47576 C 165.99426 172.29392 165.5645 169.28558 167.39099 167.4591 C 169.21748 165.6326 174.80439 168.64094 174.80439 171.32695 Z" fill="white"/>
        </g>
        <g id="Graphic_1015">
          <path d="M 144.07638 174.55017 C 145.04335 177.5585 145.79543 180.56684 145.79543 181.31893 C 145.79543 182.071 146.7624 184.54214 147.94424 186.7984 C 149.12609 188.9472 150.09306 191.63322 150.09306 192.70763 C 150.09306 193.78203 150.41538 195.07132 150.84514 195.39364 C 151.16746 195.8234 152.3493 198.1871 153.53115 200.65823 L 155.46508 205.27817 L 153.31627 202.59216 C 152.13443 201.088 150.7377 199.36894 150.09306 198.61686 C 149.55585 197.86477 149.01865 196.8978 149.01865 196.3606 C 149.01865 195.8234 148.05169 193.02995 146.7624 190.2365 C 142.67966 180.88916 139.99364 169.28558 141.92757 169.28558 C 142.14245 169.28558 143.10942 171.64927 144.07638 174.55017 Z" fill="white"/>
        </g>
        <g id="Graphic_1014">
          <path d="M 287.617 174.1204 C 287.617 176.80642 286.65002 181.42637 285.46817 184.54214 C 284.28633 187.65792 283.31936 191.52578 283.31936 193.13739 C 283.31936 194.749 282.56728 197.97221 281.6003 200.3359 C 280.31102 203.66656 279.4515 204.5261 277.3027 204.3112 C 275.90596 204.3112 274.7241 203.88144 274.7241 203.34424 C 274.7241 202.26984 270.2116 202.37728 268.27768 203.66656 C 266.9884 204.41865 267.09583 204.74097 268.81488 205.38561 C 270.7488 206.1377 270.7488 206.24514 268.70744 206.99722 C 265.3768 208.2865 261.83125 208.07163 261.83125 206.46002 C 261.83125 204.95585 265.05446 197.00525 267.95536 191.20346 C 269.45953 188.30256 270.2116 187.8728 273.75715 187.98024 C 279.34406 188.08768 283.53424 184.75702 284.60865 179.49244 C 285.68305 174.33529 284.60865 173.15344 281.17055 175.73202 C 278.9143 177.45107 278.80686 177.88083 280.41846 177.88083 C 281.49287 177.88083 282.03007 178.3106 281.70775 178.95523 C 281.38543 179.49244 279.77382 180.02964 278.26965 180.02964 C 276.65805 180.02964 274.50923 180.88916 273.43483 181.85613 C 271.60834 183.46774 271.28602 183.46774 270.4265 182.17845 C 269.1372 180.24452 269.1372 179.81476 270.2116 178.20315 C 271.07114 176.91386 285.14585 169.39302 286.8649 169.28558 C 287.29466 169.28558 287.617 171.4344 287.617 174.1204 Z" fill="white"/>
        </g>
        <g id="Graphic_1013">
          <path d="M 186.30053 174.22785 C 186.62285 175.19481 186.08565 176.69898 185.11868 177.66595 C 183.39963 179.385 183.2922 179.385 184.04428 177.5585 C 184.58148 176.16178 184.15172 175.73202 182.43267 175.73202 C 179.96153 175.73202 179.42433 177.34362 181.57314 178.3106 C 182.21779 178.63291 181.68058 178.74035 180.17641 178.63291 C 178.0276 178.41803 177.59784 177.88083 177.81272 175.73202 C 178.5648 170.46743 184.47404 169.39302 186.30053 174.22785 Z" fill="white"/>
        </g>
        <g id="Graphic_1012">
          <path d="M 127.53054 175.73202 C 127.53054 176.26922 127.31566 176.80642 127.10077 176.80642 C 126.77845 176.80642 126.24125 176.26922 125.91893 175.73202 C 125.5966 175.08737 125.81149 174.6576 126.34869 174.6576 C 126.99333 174.6576 127.53054 175.08737 127.53054 175.73202 Z" fill="white"/>
        </g>
        <g id="Graphic_1011">
          <path d="M 174.5895 179.17011 C 175.77135 180.35196 176.52344 186.47607 175.44903 186.47607 C 175.23415 186.47607 174.0523 186.7984 172.9779 187.22816 C 171.36629 187.8728 171.25885 187.65792 172.4407 186.2612 C 173.19278 185.40167 173.5151 183.79006 173.08534 182.8231 C 171.9035 179.81476 170.50676 180.9966 170.50676 184.9719 C 170.50676 187.01328 170.077 188.51744 169.5398 188.19512 C 168.4654 187.44304 167.1761 180.02964 167.9282 178.74035 C 168.78771 177.45107 173.08534 177.66595 174.5895 179.17011 Z" fill="white"/>
        </g>
        <g id="Graphic_1010">
          <path d="M 190.92047 181.64125 C 190.92047 184.11238 190.38327 185.40167 189.4163 185.40167 C 187.48237 185.40167 186.62285 183.03797 187.37493 180.13708 C 188.3419 176.37666 190.92047 177.45107 190.92047 181.64125 Z" fill="white"/>
        </g>
        <g id="Graphic_1009">
          <path d="M 267.95536 183.46774 C 267.74048 187.8728 267.5256 188.08768 264.30238 188.41 C 260.6494 188.73232 260.6494 188.9472 260.32708 195.2862 C 260.1122 199.7987 258.07083 199.36894 257.7485 194.749 C 257.53362 192.60019 256.99642 190.7737 256.35178 190.7737 C 255.81457 190.7737 255.3848 189.4844 255.3848 187.76536 C 255.3848 185.40167 256.35178 184.32726 260.54196 181.96357 C 267.41816 177.98827 268.17024 178.0957 267.95536 183.46774 Z" fill="white"/>
        </g>
        <g id="Graphic_1008">
          <path d="M 279.9887 183.79006 C 278.05477 185.72399 272.5753 187.12072 272.5753 185.61655 C 272.5753 184.54214 280.31102 180.9966 281.0631 181.74869 C 281.38543 182.071 280.84823 182.93053 279.9887 183.79006 Z" fill="white"/>
        </g>
        <g id="Graphic_1007">
          <path d="M 184.9038 184.64958 C 186.40797 186.90584 183.50707 190.12905 180.9285 189.05465 C 178.77969 188.30256 178.5648 185.29423 180.3913 183.46774 C 182.0029 181.85613 183.39963 182.2859 184.9038 184.64958 Z" fill="white"/>
        </g>
        <g id="Graphic_1006">
          <path d="M 129.5719 190.2365 C 132.58024 194.96388 134.72905 197.22013 136.12578 197.22013 C 137.30763 197.22013 138.2746 197.6499 138.2746 198.29454 C 138.2746 202.26984 128.28262 193.6746 126.13381 187.76536 C 125.16684 185.29423 124.62964 183.25286 124.84452 183.25286 C 125.0594 183.25286 127.20821 186.36863 129.5719 190.2365 Z" fill="white"/>
        </g>
        <g id="Graphic_1005">
          <path d="M 143.64662 186.47607 C 143.64662 187.01328 143.21686 187.55048 142.57222 187.55048 C 142.03501 187.55048 141.49781 187.01328 141.49781 186.47607 C 141.49781 185.83143 142.03501 185.40167 142.57222 185.40167 C 143.21686 185.40167 143.64662 185.83143 143.64662 186.47607 Z" fill="white"/>
        </g>
        <g id="Graphic_1004">
          <path d="M 209.18537 187.55048 C 209.18537 188.08768 208.97049 188.62488 208.7556 188.62488 C 208.43328 188.62488 207.89608 188.08768 207.57376 187.55048 C 207.25144 186.90584 207.46632 186.47607 208.00352 186.47607 C 208.64817 186.47607 209.18537 186.90584 209.18537 187.55048 Z" fill="white"/>
        </g>
        <g id="Graphic_1003">
          <path d="M 227.98747 188.62488 C 228.3098 189.16209 228.0949 189.6993 227.5577 189.6993 C 226.91306 189.6993 226.37586 189.16209 226.37586 188.62488 C 226.37586 187.98024 226.59074 187.55048 226.80562 187.55048 C 227.12794 187.55048 227.66515 187.98024 227.98747 188.62488 Z" fill="white"/>
        </g>
        <g id="Graphic_1002">
          <path d="M 178.0276 190.66626 C 179.8541 194.10435 179.3169 196.14572 176.73832 196.14572 C 175.34159 196.14572 173.5151 195.71596 172.65558 195.07132 C 171.36629 194.31923 171.36629 193.78203 172.65558 191.41834 C 174.37462 188.08768 176.416 187.8728 178.0276 190.66626 Z" fill="white"/>
        </g>
        <g id="Graphic_1001">
          <path d="M 252.48392 195.8234 C 251.9467 203.774 253.34344 209.0386 255.92202 209.0386 C 256.88898 209.0386 257.42618 209.46835 256.99642 210.00556 C 256.6741 210.54276 255.16993 210.86508 253.7732 210.54276 C 251.51695 210.113 251.0872 210.54276 251.0872 212.4767 C 250.97975 214.94782 250.97975 214.94782 249.47558 212.2618 C 248.61606 210.75764 247.9714 210.22044 247.86397 210.86508 C 247.86397 213.22877 245.71516 212.36925 245.71516 210.113 C 245.71516 208.93115 245.17796 207.96419 244.64076 207.96419 C 243.24403 207.96419 244.31843 215.27015 245.93004 217.31152 C 246.5747 218.0636 246.78957 219.24545 246.5747 219.99753 C 246.25236 220.85705 245.50028 220.4273 244.53332 218.70824 C 243.6738 217.09663 243.02915 212.799 243.02915 207.7493 C 243.02915 198.61686 241.95474 197.6499 240.88034 205.70793 C 240.45057 209.25347 240.7729 213.33621 241.95474 218.0636 C 242.9217 222.0389 243.4589 225.58444 243.1366 226.0142 C 242.70683 226.33652 242.16962 225.58444 241.73986 224.29515 C 241.20266 221.93146 239.26873 220.9645 239.26873 223.00587 C 239.26873 223.54307 238.51664 224.08027 237.65712 224.08027 C 236.69015 224.08027 236.0455 223.1133 236.0455 221.39426 C 236.0455 219.8901 235.5083 218.70824 234.86366 218.70824 C 234.00414 218.70824 233.8967 220.31985 234.4339 223.75795 C 235.7232 232.78296 238.83897 233.85736 244.7482 227.51837 C 246.897 225.36956 249.69046 221.71658 251.0872 219.46033 C 254.20297 214.19574 255.16993 215.05526 252.37648 220.53473 C 248.1863 228.59278 231.21068 246.6428 227.66515 246.6428 C 227.12794 246.6428 225.51633 247.50232 224.1196 248.68416 C 222.72288 249.75857 218.85502 251.47762 215.6318 252.55202 C 206.17703 255.56036 204.13566 258.3538 211.1193 258.67613 C 215.0946 258.78358 215.0946 258.78358 210.25977 259.42822 C 207.144 259.85798 204.99519 259.75054 204.35054 258.89102 C 203.38358 257.8166 200.37524 258.67613 198.4413 260.61006 C 197.9041 261.14727 194.03625 263.40352 189.9535 265.55233 C 185.76332 267.80858 178.88713 275.86663 176.09367 281.8833 C 172.54813 289.72646 172.33325 301.54492 175.66391 307.23927 C 178.5648 312.18154 178.5648 312.82618 175.77135 314.4378 C 173.62254 315.5122 173.5151 315.40475 173.94486 312.82618 C 174.5895 309.60296 174.0523 309.3881 171.36629 311.8592 C 169.75468 313.25594 169.43236 313.25594 169.43236 312.0741 C 169.43236 311.21457 170.18444 309.3881 171.1514 308.0988 C 172.4407 306.16487 172.4407 305.7351 171.36629 305.7351 C 170.50676 305.7351 169.21748 306.37975 168.4654 307.0244 C 167.28355 308.20624 167.1761 307.8839 167.82075 305.7351 C 168.25051 304.23094 169.0026 302.61933 169.5398 301.9747 C 170.82909 300.6854 170.72164 299.28867 169.43236 299.28867 C 168.89516 299.28867 167.7133 300.57796 166.85378 302.18956 C 165.45706 304.76814 165.24218 304.87558 165.13474 302.94165 C 165.13474 301.7598 166.31658 299.18123 167.82075 297.13986 C 171.04397 292.7348 170.39932 291.55295 166.74634 294.99105 C 162.77104 298.75147 163.2008 295.0985 167.28355 290.69342 C 171.25885 286.50324 171.36629 285.53628 167.82075 287.89997 C 164.16777 290.26366 164.38265 288.2223 168.03563 285.53628 C 171.79605 282.85026 170.6142 281.23865 166.85378 283.7098 C 165.34962 284.7842 164.06033 285.1065 164.06033 284.5693 C 164.06033 283.06514 167.39099 280.2717 171.04397 278.76752 C 173.5151 277.80056 173.83742 277.3708 172.4407 277.04847 C 169.86212 276.40383 169.96956 275.0071 172.65558 274.25502 C 174.48206 273.82525 174.69695 273.28805 173.83742 271.13924 C 173.30022 269.84995 173.19278 266.19697 173.40766 263.0812 C 173.83742 258.67613 173.5151 256.7422 171.47373 253.19667 C 170.18444 250.72553 168.68027 248.7916 168.35795 248.7916 C 167.9282 248.7916 166.20914 247.7172 164.59753 246.4279 L 161.5892 244.06422 L 164.4901 243.31213 C 168.25051 242.23773 170.50676 243.09725 170.50676 245.67583 C 170.50676 246.75023 171.1514 248.03952 171.9035 248.46928 C 173.62254 249.65113 175.8788 256.205 175.8788 260.39518 C 175.8788 263.94072 177.92016 265.01513 179.8541 262.43655 C 184.47404 256.41988 187.58981 234.82433 184.3666 230.95647 C 183.72195 230.09694 183.39963 229.4523 183.8294 229.4523 C 184.25916 229.4523 183.8294 228.05557 182.86243 226.33652 C 181.03594 222.79098 182.32523 220.9645 184.79636 223.54307 C 185.76332 224.4026 186.94517 225.15468 187.58981 225.15468 C 189.20142 225.15468 189.09398 226.98117 187.48237 227.73325 C 186.40797 228.27045 186.40797 228.48533 187.37493 229.02254 C 188.12702 229.34486 188.44934 230.20438 188.12702 230.95647 C 187.8047 231.816 188.66422 232.67552 190.06095 233.10528 C 192.3172 233.74992 192.42464 233.85736 190.7056 235.2541 C 189.63118 236.00617 188.77166 236.97314 188.77166 237.4029 C 188.77166 237.72522 189.63118 238.04755 190.7056 238.04755 C 192.3172 238.155 192.3172 238.26243 190.4907 239.65915 C 188.55678 241.05588 188.55678 241.27076 190.27583 241.9154 C 191.78 242.4526 191.88744 242.88237 190.7056 243.527 C 189.52374 244.2791 189.63118 244.70886 190.92047 245.56839 C 192.3172 246.4279 192.20976 246.6428 190.7056 246.6428 C 188.12702 246.6428 188.23446 248.46928 190.92047 249.3288 C 192.10232 249.65113 193.06928 250.72553 193.06928 251.58506 C 193.06928 253.41155 192.53208 253.41155 189.84607 251.79994 C 187.16005 250.0809 185.65588 251.58506 188.23446 253.519 C 190.06095 254.80827 190.06095 254.9157 187.58981 255.77524 C 185.441 256.41988 185.33356 256.63476 186.94517 257.06453 C 187.91214 257.2794 188.77166 258.0315 188.77166 258.5687 C 188.77166 259.21334 187.8047 259.32078 186.62285 258.99846 C 185.441 258.67613 184.47404 258.78358 184.47404 259.42822 C 184.47404 259.96542 185.33356 260.7175 186.40797 260.9324 C 187.8047 261.36215 187.8047 261.4696 185.9782 261.57703 C 183.93683 261.68447 181.57314 265.55233 182.75499 266.84162 C 184.25916 268.23835 193.06928 260.9324 193.06928 258.3538 C 193.06928 257.70917 193.71393 257.38685 194.466 257.70917 C 195.11065 257.92405 197.25947 257.2794 198.97851 256.31244 C 200.805 255.23804 205.10263 253.519 208.64817 252.55202 C 219.17734 249.5437 230.35116 242.77493 237.11992 235.36153 C 239.6985 232.46064 239.6985 232.46064 237.44224 233.10528 C 233.8967 234.17969 232.6074 230.7416 233.03717 221.28682 C 233.25206 216.88175 232.92973 213.22877 232.49997 213.0139 C 230.9958 212.58413 232.92973 209.14603 234.9711 208.5014 C 236.0455 208.17907 237.54968 206.35258 238.30176 204.5261 C 240.0208 200.44335 244.42587 195.07132 246.03748 195.07132 C 246.78957 195.07132 248.29374 193.56715 249.47558 191.8481 C 250.65743 190.12905 251.9467 188.62488 252.26904 188.62488 C 252.6988 188.62488 252.6988 191.8481 252.48392 195.8234 Z" fill="white"/>
        </g>
        <g id="Graphic_1000">
          <path d="M 146.86984 196.03828 C 146.86984 197.22013 146.54752 197.22013 145.25823 196.14572 C 144.3987 195.39364 143.64662 193.78203 143.64662 192.60019 C 143.64662 190.45137 143.64662 190.45137 145.25823 192.49274 C 146.11775 193.56715 146.86984 195.17876 146.86984 196.03828 Z" fill="white"/>
        </g>
        <g id="Graphic_999">
          <path d="M 170.50676 192.9225 C 170.50676 193.4597 169.96956 193.99691 169.32492 193.99691 C 168.78771 193.99691 168.57283 193.4597 168.89516 192.9225 C 169.21748 192.27786 169.75468 191.8481 170.077 191.8481 C 170.29188 191.8481 170.50676 192.27786 170.50676 192.9225 Z" fill="white"/>
        </g>
        <g id="Graphic_998">
          <path d="M 188.77166 193.4597 C 190.16839 195.17876 189.73863 195.50108 185.01124 196.46805 C 183.0773 196.79037 183.18475 197.00525 185.76332 198.29454 C 187.37493 199.04662 188.44934 200.12103 188.12702 200.55079 C 187.2675 202.05496 184.25916 201.6252 182.21779 199.7987 C 180.3913 198.1871 180.3913 197.75733 181.89546 194.96388 C 183.61451 191.52578 186.62285 190.88114 188.77166 193.4597 Z" fill="white"/>
        </g>
        <g id="Graphic_997">
          <path d="M 255.70713 197.54245 C 255.92202 199.69126 256.78154 202.26984 257.53362 203.12936 C 259.14523 205.0633 258.2857 206.35258 256.1369 205.49305 C 254.5253 204.8484 253.236 198.07965 254.09553 194.749 C 254.74017 192.06298 255.16993 192.81507 255.70713 197.54245 Z" fill="white"/>
        </g>
        <g id="Graphic_996">
          <path d="M 157.0767 199.36894 C 157.39901 199.90614 157.18413 200.44335 156.64693 200.44335 C 156.00229 200.44335 155.46508 199.90614 155.46508 199.36894 C 155.46508 198.7243 155.67997 198.29454 155.89485 198.29454 C 156.21717 198.29454 156.75437 198.7243 157.0767 199.36894 Z" fill="white"/>
        </g>
        <g id="Graphic_995">
          <path d="M 179.63921 202.59216 C 179.63921 204.5261 178.99457 205.38561 177.38296 205.6005 C 174.5895 206.03026 173.08534 203.02192 174.91183 200.76567 C 176.84576 198.50942 179.63921 199.58382 179.63921 202.59216 Z" fill="white"/>
        </g>
        <g id="Graphic_994">
          <path d="M 144.72103 201.51775 C 144.72103 202.05496 144.29127 202.59216 143.75406 202.59216 C 143.10942 202.59216 142.35734 202.05496 142.03501 201.51775 C 141.7127 200.8731 142.14245 200.44335 143.00198 200.44335 C 143.96894 200.44335 144.72103 200.8731 144.72103 201.51775 Z" fill="white"/>
        </g>
        <g id="Graphic_993">
          <path d="M 207.03656 204.74097 C 207.03656 205.27817 206.0696 205.81538 204.88775 205.81538 C 203.7059 205.81538 202.73893 205.27817 202.73893 204.74097 C 202.73893 204.09633 203.7059 203.66656 204.88775 203.66656 C 206.0696 203.66656 207.03656 204.09633 207.03656 204.74097 Z" fill="white"/>
        </g>
        <g id="Graphic_992">
          <path d="M 187.8047 207.10466 C 186.83773 209.89812 183.8294 210.97252 182.0029 209.14603 C 180.3913 207.53442 183.0773 204.74097 186.19309 204.74097 C 188.3419 204.74097 188.55678 205.0633 187.8047 207.10466 Z" fill="white"/>
        </g>
        <g id="Graphic_991">
          <path d="M 114.2079 206.99722 C 114.63767 207.64186 116.24928 207.96419 118.07577 207.53442 C 122.26595 206.6749 128.60494 210.32788 128.60494 213.44366 C 128.60494 214.0883 127.4231 213.12133 126.02637 211.50973 C 123.87756 209.14603 123.12547 208.71627 122.05107 209.79068 C 120.86922 210.97252 120.97666 211.1874 122.26595 211.1874 C 123.985 211.1874 128.60494 217.41896 128.60494 219.78265 C 128.60494 220.64217 126.24125 218.6008 123.34035 215.37759 C 120.43946 212.15437 117.75344 209.89812 117.32368 210.32788 C 116.89392 210.6502 118.39809 212.799 120.43946 215.05526 C 124.5222 219.35289 124.95196 220.31985 123.23291 221.39426 C 122.69571 221.71658 121.6213 220.85705 120.86922 219.35289 C 120.22458 217.84872 119.25761 216.55943 118.72041 216.55943 C 117.53856 216.55943 117.646 217.31152 118.93529 219.8901 C 119.90226 221.60914 119.68738 221.93146 117.646 221.93146 C 116.14184 221.93146 114.74511 220.9645 114.10047 219.46033 C 113.45582 218.17104 112.27398 217.20408 111.52189 217.41896 C 110.76981 217.5264 108.72844 216.452 106.90195 214.94782 C 104.75314 213.12133 102.92665 212.36925 101.52992 212.90645 C 100.45551 213.22877 98.8439 213.0139 98.09182 212.36925 C 97.2323 211.61717 94.76116 211.40228 91.64539 211.83205 C 86.16592 212.58413 85.09151 213.76598 89.60402 214.19574 C 93.257 214.51806 97.44718 217.20408 97.44718 219.24545 C 97.44718 220.10497 97.01742 220.85705 96.37277 220.85705 C 95.83557 220.85705 95.29837 220.4273 95.29837 219.78265 C 95.29837 218.49336 91.00074 216.12967 90.24866 216.9892 C 89.92634 217.31152 90.24866 218.27848 90.8933 219.138 C 93.04211 221.60914 88.42217 222.46866 84.98407 220.10497 C 83.26502 219.03056 81.8683 218.70824 81.65341 219.35289 C 81.43853 219.8901 79.5046 220.2124 77.35579 219.99753 C 74.66978 219.6752 73.70281 219.8901 74.240015 220.74961 C 74.66978 221.39426 75.95906 221.93146 77.14091 221.93146 C 78.21532 221.93146 79.18228 222.36122 79.18228 222.89843 C 79.18228 223.43563 77.24835 223.6505 74.88466 223.3282 C 72.19864 222.89843 70.587036 223.1133 70.587036 223.8654 C 70.587036 224.51003 71.87632 225.15468 73.48793 225.36956 C 76.173945 225.69188 76.0665 225.90676 70.80192 229.12998 C 66.93406 231.49367 65.21501 233.32016 65.21501 234.82433 C 65.21501 236.11362 65.75221 236.75826 66.28941 236.43594 C 66.93406 236.11362 67.36382 235.0392 67.36382 234.28713 C 67.36382 232.99784 73.48793 229.4523 75.5293 229.4523 C 77.03347 229.4523 75.42186 231.49367 73.05817 232.56808 C 70.479595 233.74992 70.372154 233.9648 71.98376 235.5764 C 73.48793 237.18802 73.91769 237.18802 76.28139 235.5764 C 77.78555 234.60945 80.04181 232.13831 81.33109 230.09694 C 83.80223 226.0142 84.33943 225.90676 96.15789 226.0142 C 100.88528 226.12164 101.31504 226.65885 99.59599 230.09694 C 97.7695 233.32016 93.47188 236.22106 94.54628 233.32016 C 95.51325 230.84903 94.22396 231.17135 90.67842 234.502 C 88.63705 236.43594 87.67009 236.8657 88.09985 235.68385 C 89.06681 232.8904 87.67009 232.56808 84.76919 234.82433 C 83.37246 236.00617 81.22365 236.97314 80.14925 236.97314 C 78.9674 236.97314 78.107875 237.72522 78.107875 238.6922 C 78.107875 239.98148 78.75252 240.3038 80.90133 239.7666 C 82.9427 239.2294 83.58734 239.44427 83.26502 240.41124 C 82.72782 241.80797 79.39716 242.02285 67.90102 241.16332 C 65.000126 240.94844 61.132266 241.16332 59.305776 241.70052 L 56.08256 242.6675 L 58.55369 240.3038 C 59.84298 239.0145 60.917384 237.4029 60.917384 236.75826 C 60.917384 236.11362 62.20667 232.99784 63.71084 229.88206 C 66.93406 223.22075 72.52097 217.84872 77.03347 216.88175 C 78.75252 216.55943 80.90133 215.1627 81.76085 213.76598 C 84.23199 210.113 94.3314 207.10466 98.73646 208.8237 C 101.52992 209.89812 102.38944 209.79068 104.75314 207.96419 C 107.65403 205.6005 113.02606 205.0633 114.2079 206.99722 Z" fill="white"/>
        </g>
        <g id="Graphic_990">
          <path d="M 145.79543 206.88978 C 145.79543 207.42698 145.04335 207.96419 144.07638 207.96419 C 143.21686 207.96419 142.7871 207.42698 143.10942 206.88978 C 143.43174 206.24514 144.18382 205.81538 144.82847 205.81538 C 145.36567 205.81538 145.79543 206.24514 145.79543 206.88978 Z" fill="white"/>
        </g>
        <g id="Graphic_989">
          <path d="M 155.7874 207.42698 C 155.46508 208.39395 154.92788 208.93115 154.713 208.60883 C 154.39068 208.2865 154.49812 207.64186 154.92788 206.99722 C 155.89485 205.27817 156.53949 205.6005 155.7874 207.42698 Z" fill="white"/>
        </g>
        <g id="Graphic_988">
          <path d="M 160.83711 209.5758 C 160.83711 210.43532 160.08503 211.1874 159.2255 211.1874 C 158.36598 211.1874 157.6139 210.43532 157.6139 209.5758 C 157.6139 208.71627 158.36598 207.96419 159.2255 207.96419 C 160.08503 207.96419 160.83711 208.71627 160.83711 209.5758 Z" fill="white"/>
        </g>
        <g id="Graphic_987">
          <path d="M 276.87293 209.0386 C 277.73245 209.5758 277.94733 210.113 277.3027 210.113 C 276.65805 210.113 275.58364 212.04693 274.83156 214.51806 C 273.54227 218.70824 266.88095 227.3035 264.94702 227.3035 C 263.12053 227.3035 263.98006 225.04724 266.9884 222.25378 C 268.6 220.74961 269.78185 219.03056 269.56697 218.49336 C 269.45953 217.84872 269.78185 216.77431 270.4265 216.02223 C 271.28602 214.94782 271.28602 214.41062 270.4265 213.87342 C 268.81488 212.90645 266.12887 215.27015 266.7735 217.09663 C 267.09583 217.84872 266.4512 218.81568 265.1619 219.24545 C 262.69077 219.99753 262.04613 221.93146 264.30238 221.93146 C 266.88095 221.93146 262.4759 224.08027 259.78988 224.08027 C 257.2113 224.08027 257.2113 224.1877 259.25267 225.58444 C 261.1866 227.0886 261.1866 227.19605 258.39315 227.8407 C 256.78154 228.27045 255.0625 228.27045 254.41785 227.94813 C 253.88064 227.51837 253.12856 227.73325 252.80624 228.27045 C 251.73183 229.9895 256.02946 230.63415 259.0378 229.34486 C 260.54196 228.59278 262.15357 228.3779 262.58333 228.80766 C 263.87262 229.9895 259.46755 236.97314 257.53362 236.97314 C 256.45922 236.97314 255.0625 237.72522 254.3104 238.58475 C 252.80624 240.41124 251.0872 240.73356 251.0872 239.2294 C 251.0872 238.6922 253.236 236.8657 255.92202 235.14665 C 260.97172 231.92343 262.261 229.77462 258.39315 231.0639 C 253.9881 232.46064 249.15326 232.8904 248.61606 231.92343 C 248.40118 231.49367 250.3351 227.3035 252.91368 222.68354 C 257.2113 215.37759 258.17827 214.41062 260.86428 214.41062 C 263.98006 214.41062 264.94702 213.0139 262.90565 211.7246 C 260.86428 210.43532 261.83125 209.0386 264.30238 209.5758 C 265.59167 209.89812 268.17024 209.68324 269.8893 209.14603 C 274.1869 207.85675 274.939 207.85675 276.87293 209.0386 Z" fill="white"/>
        </g>
        <g id="Graphic_986">
          <path d="M 185.01124 213.33621 C 185.441 213.98086 185.11868 215.1627 184.47404 216.12967 C 182.96987 217.84872 180.17641 216.34455 180.17641 213.76598 C 180.17641 212.04693 184.04428 211.7246 185.01124 213.33621 Z" fill="white"/>
        </g>
        <g id="Graphic_985">
          <path d="M 100.56295 215.9148 C 101.95968 217.41896 102.92665 219.03056 102.71177 219.6752 C 102.49688 220.31985 100.88528 219.138 99.27367 217.09663 C 95.83557 212.799 96.90997 211.9395 100.56295 215.9148 Z" fill="white"/>
        </g>
        <g id="Graphic_984">
          <path d="M 107.76147 220.53473 C 107.33171 220.9645 106.2573 220.4273 105.39778 219.35289 C 103.03409 216.02223 103.57129 214.73294 106.2573 217.31152 C 107.54659 218.70824 108.19123 220.10497 107.76147 220.53473 Z" fill="white"/>
        </g>
        <g id="Graphic_983">
          <path d="M 230.24372 221.5017 C 229.81396 222.46866 229.27675 223.1133 229.06187 222.79098 C 228.73955 222.46866 228.73955 221.39426 229.16931 220.4273 C 229.59908 219.46033 230.13628 218.81568 230.35116 219.138 C 230.67348 219.46033 230.67348 220.53473 230.24372 221.5017 Z" fill="white"/>
        </g>
        <g id="Graphic_982">
          <path d="M 112.48886 220.85705 C 112.48886 221.39426 112.27398 221.93146 112.0591 221.93146 C 111.73677 221.93146 111.19957 221.39426 110.87725 220.85705 C 110.55493 220.2124 110.76981 219.78265 111.30701 219.78265 C 111.95165 219.78265 112.48886 220.2124 112.48886 220.85705 Z" fill="white"/>
        </g>
        <g id="Graphic_981">
          <path d="M 147.94424 224.29515 C 148.91121 224.9398 147.19216 224.9398 143.10942 224.51003 C 139.56388 224.08027 135.80346 223.75795 134.8365 223.8654 C 133.76209 223.8654 132.90257 223.43563 132.90257 222.89843 C 132.90257 221.60914 145.47311 222.79098 147.94424 224.29515 Z" fill="white"/>
        </g>
        <g id="Graphic_980">
          <path d="M 126.45613 224.29515 C 126.45613 225.69188 113.24094 225.79932 103.46385 224.61747 C 95.29837 223.6505 98.52158 223.1133 112.38142 223.3282 C 120.11714 223.43563 126.45613 223.8654 126.45613 224.29515 Z" fill="white"/>
        </g>
        <g id="Graphic_979">
          <path d="M 155.03532 226.5514 C 161.48176 230.20438 168.68027 239.12195 166.85378 241.05588 C 165.99426 241.80797 162.98592 239.12195 162.98592 237.61778 C 162.87848 235.7913 157.0767 229.77462 153.42371 227.8407 C 151.59722 226.98117 150.09306 225.90676 150.09306 225.69188 C 150.09306 224.72492 152.77907 225.15468 155.03532 226.5514 Z" fill="white"/>
        </g>
        <g id="Graphic_978">
          <path d="M 230.02884 229.9895 C 229.70652 231.92343 229.9214 233.74992 230.4586 234.17969 C 231.64045 234.93177 230.88836 239.12195 229.59908 239.12195 C 227.66515 239.12195 226.59074 230.63415 228.0949 226.87373 C 229.27675 223.8654 230.78092 226.22908 230.02884 229.9895 Z" fill="white"/>
        </g>
        <g id="Graphic_977">
          <path d="M 125.38173 231.0639 C 123.77012 232.78296 121.6213 233.74992 119.57993 233.74992 C 117.53856 233.74992 114.53023 235.14665 112.0591 236.97314 C 107.76147 240.3038 102.49688 241.16332 101.10016 238.90707 C 100.6704 238.26243 101.2076 236.97314 102.38944 236.00617 C 103.46385 235.0392 105.29034 232.99784 106.36474 231.2788 C 107.33171 229.66718 108.94332 228.3779 109.80284 228.3779 C 112.5963 228.3779 111.52189 231.38623 107.76147 234.502 C 103.35641 237.9401 103.78617 240.08892 108.19123 236.97314 C 109.80284 235.7913 111.62933 234.82433 112.27398 234.82433 C 112.81118 234.82433 113.88558 234.07224 114.63767 233.21272 C 115.38975 232.3532 117.53856 231.6011 119.4725 231.6011 C 121.51386 231.6011 123.66268 230.7416 124.84452 229.4523 C 125.91893 228.27045 127.10077 227.51837 127.31566 227.8407 C 127.63798 228.163 126.77845 229.55974 125.38173 231.0639 Z" fill="white"/>
        </g>
        <g id="Graphic_976">
          <path d="M 144.9359 228.48533 C 149.01865 229.34486 151.8121 230.7416 154.713 233.53504 C 156.86181 235.68385 158.6883 237.72522 158.6883 238.04755 C 158.6883 239.12195 141.17549 239.5517 129.67935 238.79963 C 122.48083 238.26243 120.0097 239.0145 116.0344 242.6675 C 114.53023 243.95678 113.02606 244.49398 111.73677 244.06422 C 110.12516 243.41957 110.34005 242.88237 113.56326 240.41124 C 115.60463 238.79963 118.29065 237.51034 119.68738 237.4029 C 124.09244 237.18802 128.17518 234.7169 130.10911 231.0639 C 132.4728 226.76629 134.8365 226.33652 144.9359 228.48533 Z" fill="white"/>
        </g>
        <g id="Graphic_975">
          <path d="M 104.96802 229.12998 C 104.96802 230.31182 100.34807 234.82433 99.16623 234.82433 C 98.62902 234.82433 99.16623 233.85736 100.45551 232.67552 C 101.7448 231.38623 102.8192 229.9895 102.8192 229.4523 C 102.8192 228.80766 103.35641 228.3779 103.89361 228.3779 C 104.53826 228.3779 104.96802 228.70022 104.96802 229.12998 Z" fill="white"/>
        </g>
        <g id="Graphic_974">
          <path d="M 250.55 234.82433 C 250.97975 235.46897 249.7979 235.89873 247.86397 235.89873 C 245.93004 235.89873 244.7482 235.46897 245.17796 234.82433 C 245.50028 234.17969 246.78957 233.74992 247.86397 233.74992 C 248.93838 233.74992 250.22767 234.17969 250.55 234.82433 Z" fill="white"/>
        </g>
        <g id="Graphic_973">
          <path d="M 245.07052 237.4029 C 247.32677 238.4773 247.54165 239.0145 246.3598 239.44427 C 245.39284 239.87404 243.9961 239.33683 243.02915 238.4773 C 240.12825 235.5764 240.88034 235.14665 245.07052 237.4029 Z" fill="white"/>
        </g>
        <g id="Graphic_972">
          <path d="M 96.15789 239.33683 C 95.62069 240.94844 91.64539 241.70052 89.28169 240.841 C 86.59568 239.7666 88.74449 238.04755 92.71979 238.04755 C 95.29837 238.04755 96.37277 238.4773 96.15789 239.33683 Z" fill="white"/>
        </g>
        <g id="Graphic_971">
          <path d="M 244.85564 242.34517 C 245.93004 242.34517 246.78957 242.77493 246.78957 243.41957 C 246.78957 244.60142 240.0208 244.92374 238.9464 243.7419 C 238.51664 243.41957 238.73152 242.4526 239.4836 241.59308 C 240.34313 240.51868 240.98778 240.41124 241.8473 241.27076 C 242.3845 241.80797 243.78123 242.34517 244.85564 242.34517 Z" fill="white"/>
        </g>
        <g id="Graphic_970">
          <path d="M 133.43977 242.23773 L 136.66298 242.56005 L 133.43977 243.527 C 131.72072 243.95678 129.24959 244.17166 127.85286 243.84934 C 126.45613 243.41957 124.62964 243.7419 123.77012 244.49398 C 122.91059 245.13862 121.40642 245.56839 120.33202 245.3535 C 118.72041 245.03118 118.93529 244.60142 121.40642 243.31213 C 124.19988 241.80797 125.91893 241.70052 133.43977 242.23773 Z" fill="white"/>
        </g>
        <g id="Graphic_969">
          <path d="M 157.0767 242.34517 C 157.50646 242.9898 156.3246 243.41957 154.39068 243.41957 C 147.40704 243.41957 139.45644 246.6428 133.11745 252.12226 C 129.78679 255.02316 126.56357 257.38685 126.13381 257.38685 C 125.5966 257.38685 120.76178 259.53566 115.38975 262.22167 C 109.05076 265.4449 106.36474 266.41186 107.54659 265.01513 C 108.621 263.83328 113.24094 261.36215 117.96833 259.53566 C 124.19988 256.9571 127.53054 254.9157 130.10911 251.79994 C 134.62161 246.53535 139.8862 243.63446 147.19216 242.4526 C 155.03532 241.16332 156.3246 241.16332 157.0767 242.34517 Z" fill="white"/>
        </g>
        <g id="Graphic_968">
          <path d="M 124.62964 249.5437 C 129.0347 251.79994 127.53054 252.33714 122.69571 250.29577 C 120.11714 249.22136 117.21624 248.89904 114.95999 249.3288 C 110.44749 250.18833 110.34005 251.58506 114.95999 251.58506 C 116.78648 251.58506 119.79482 252.01482 121.51386 252.44458 C 124.41476 253.19667 124.5222 253.3041 122.91059 255.02316 C 121.29898 256.52732 120.43946 256.63476 116.24928 255.45292 C 109.6954 253.73387 105.50522 253.8413 103.89361 255.77524 C 103.14153 256.63476 101.95968 257.38685 101.31504 257.38685 C 100.6704 257.38685 99.48855 258.3538 98.73646 259.53566 C 97.44718 261.57703 97.66206 261.68447 102.49688 261.68447 L 107.43915 261.68447 L 104.96802 264.26304 C 103.35641 266.08953 101.10016 267.0565 98.09182 267.27138 C 94.76116 267.48626 93.47188 268.1309 92.39747 270.17228 C 91.75283 271.569 90.3561 273.1806 89.49658 273.7178 C 88.52961 274.25502 87.77753 275.97407 87.77753 277.47823 C 87.77753 279.84193 87.99241 280.0568 89.38913 278.87496 C 91.75283 276.94103 92.82723 278.4452 90.78586 280.70145 C 87.99241 283.92467 83.26502 294.02408 83.90967 295.6357 C 84.66175 297.46218 86.70312 297.56962 86.70312 295.74313 C 86.81056 292.09015 97.12486 275.32942 100.02575 274.25502 C 101.2076 273.82525 101.52992 274.68478 101.31504 278.66008 C 101.2076 282.85026 100.88528 283.60235 99.38111 283.38747 C 98.09182 283.1726 97.44718 283.81723 97.44718 285.1065 C 97.44718 286.28836 96.69509 287.4702 95.83557 287.89997 C 94.97604 288.2223 94.22396 289.61902 94.22396 290.9083 C 94.22396 292.41247 92.71979 294.5613 90.3561 296.4952 C 88.20729 298.10682 85.95104 301.00772 85.41383 302.72677 C 84.55431 305.09046 84.01711 305.52022 83.37246 304.4458 C 81.8683 302.18956 82.29806 291.33807 83.90967 287.25533 C 84.76919 285.21395 85.52127 281.56098 85.41383 279.19728 C 85.41383 274.36246 88.42217 269.31275 92.71979 266.94906 C 94.43884 266.08953 95.29837 264.6928 95.29837 262.65144 C 95.29837 260.61006 96.37277 258.89102 98.62902 257.17197 C 100.34807 255.77524 103.67873 253.19667 105.82754 251.26274 C 111.41445 246.53535 117.53856 245.99815 124.62964 249.5437 Z" fill="white"/>
        </g>
        <g id="Graphic_967">
          <path d="M 129.35703 247.28743 C 129.0347 247.60976 128.06774 247.7172 127.31566 247.39487 C 126.45613 247.07255 126.77845 246.75023 127.9603 246.75023 C 129.14215 246.6428 129.78679 246.9651 129.35703 247.28743 Z" fill="white"/>
        </g>
        <g id="Graphic_966">
          <path d="M 140.20852 252.55202 C 140.31596 253.94875 140.4234 255.56036 140.53085 255.99012 C 140.85317 257.8166 140.4234 259.53566 139.67132 259.53566 C 139.13412 259.53566 138.70436 257.38685 138.48947 254.70083 C 138.16715 249.75857 139.77876 247.7172 140.20852 252.55202 Z" fill="white"/>
        </g>
        <g id="Graphic_965">
          <path d="M 137.20019 258.5687 C 137.20019 260.28774 136.77043 261.68447 136.23322 261.68447 C 135.15882 261.68447 133.86953 256.205 134.72905 254.9157 C 135.69602 253.3041 137.20019 255.45292 137.20019 258.5687 Z" fill="white"/>
        </g>
        <g id="Graphic_964">
          <path d="M 253.55832 256.205 C 255.27737 256.84964 257.64106 257.38685 258.93035 257.38685 C 260.21964 257.38685 261.83125 258.24637 262.58333 259.42822 C 263.22797 260.50262 265.914 261.89935 268.49256 262.544 C 271.17858 263.18864 275.69108 265.7672 279.02174 268.56067 C 286.8649 275.0071 287.4021 275.5443 292.77413 281.99074 C 295.5676 285.21395 298.2536 287.4702 299.5429 287.4702 C 303.19587 287.4702 301.36938 289.94134 295.67503 292.84224 C 292.4518 294.3464 287.83186 295.6357 283.964 295.85057 C 280.31102 296.1729 276.33572 297.0324 275.04644 297.89194 C 273.3274 298.96635 271.28602 299.28867 268.6 298.8589 C 266.34375 298.42914 261.4015 297.7845 257.53362 297.2473 C 247.86397 295.958 246.897 295.4208 245.50028 290.04878 C 244.7482 287.4702 243.56635 285.3214 242.81427 285.3214 C 242.06218 285.3214 241.73986 286.07348 242.06218 286.933 C 242.81427 288.65205 240.88034 289.18926 239.91337 287.57765 C 238.83897 285.8586 240.45057 283.28002 242.16962 283.92467 C 243.6738 284.46187 243.78123 283.92467 243.24403 279.62705 C 242.81427 276.94103 242.9217 274.4699 243.4589 274.14758 C 243.88867 273.82525 245.93004 274.79222 247.9714 276.2964 C 250.01278 277.80056 253.88064 280.2717 256.78154 281.6684 C 260.21964 283.4949 261.83125 284.99907 261.83125 286.3958 C 261.83125 289.61902 265.05446 296.92498 266.7735 297.56962 C 268.70744 298.3217 268.70744 298.3217 266.02143 292.30503 C 264.51726 288.86693 264.0875 286.933 264.83958 286.18092 C 266.4512 284.5693 268.27768 286.07348 268.27768 288.86693 C 268.27768 290.15622 268.81488 291.9827 269.3521 292.84224 C 270.64137 294.8836 277.94733 295.20593 277.94733 293.272 C 277.94733 292.41247 277.19525 291.76783 276.33572 291.76783 C 275.4762 291.76783 274.7241 291.23063 274.7241 290.586 C 274.7241 289.94134 273.97203 289.61902 273.1125 290.04878 C 272.14554 290.3711 271.07114 289.72646 270.4265 288.5446 C 269.3521 286.50324 269.6744 286.3958 275.36876 286.3958 C 279.88126 286.3958 281.8152 286.933 283.10448 288.43717 C 284.5012 289.94134 285.89793 290.3711 289.0137 289.94134 C 293.2039 289.40414 294.60062 287.4702 290.8402 287.4702 C 289.65835 287.4702 286.97234 286.82556 284.93097 285.96604 C 282.1375 284.7842 281.49287 283.92467 281.92263 282.31306 C 282.24495 281.1312 283.53424 279.84193 284.7161 279.30472 C 286.75746 278.66008 286.65002 278.4452 283.53424 278.12288 C 281.38543 277.80056 278.26965 278.55264 275.36876 279.94937 C 271.5009 281.77586 270.2116 281.99074 267.63304 281.02377 C 264.73214 279.84193 264.6247 279.7345 266.4512 278.33776 C 268.38512 276.94103 268.27768 276.8336 265.3768 276.51127 C 262.4759 276.18895 262.4759 276.0815 266.66607 274.79222 C 274.29435 272.21365 274.4018 272.1062 270.9637 271.35412 C 267.74048 270.4946 267.74048 270.4946 271.82322 270.38716 C 273.97203 270.38716 275.79852 269.7425 275.79852 269.09787 C 275.79852 267.27138 266.12887 268.6681 260.1122 271.24668 C 256.99642 272.6434 255.5997 272.96573 256.35178 272.1062 C 257.9634 270.06483 256.56666 269.09787 254.09553 270.38716 C 251.4095 271.89132 249.04582 270.06483 250.8723 267.91602 C 251.4095 267.16394 251.9467 266.08953 251.83927 265.4449 C 251.73183 264.9077 253.45088 264.04816 255.70713 263.51096 C 258.60803 262.75888 259.68244 262.0068 259.46755 260.7175 C 258.93035 258.13893 254.3104 258.0315 247.75653 260.50262 C 241.52498 262.97376 239.26873 263.29608 239.26873 261.89935 C 239.26873 260.50262 244.42587 258.46125 247.86397 258.46125 C 249.69046 258.46125 251.0872 257.92405 251.0872 257.38685 C 251.0872 255.56036 244.7482 256.205 240.2357 258.46125 C 235.5083 260.9324 228.847 260.50262 228.847 257.8166 C 228.847 256.9571 229.59908 256.52732 230.56604 256.84964 C 231.533 257.06453 233.46694 256.7422 234.86366 255.99012 C 237.97944 254.48595 249.2607 254.5934 253.55832 256.205 Z" fill="white"/>
        </g>
        <g id="Graphic_963">
          <path d="M 114.63767 257.38685 C 115.49719 257.92405 115.81951 258.67613 115.38975 259.1059 C 114.95999 259.53566 113.77814 259.1059 112.81118 258.13893 C 110.87725 256.205 111.95165 255.6678 114.63767 257.38685 Z" fill="white"/>
        </g>
        <g id="Graphic_962">
          <path d="M 133.43977 259.6431 C 134.08441 261.68447 133.43977 263.72584 132.4728 262.65144 C 131.3984 261.36215 130.75375 257.38685 131.72072 257.38685 C 132.25792 257.38685 133.11745 258.3538 133.43977 259.6431 Z" fill="white"/>
        </g>
        <g id="Graphic_961">
          <path d="M 233.78926 262.75888 C 241.20266 265.7672 254.63273 274.89966 255.81457 277.6931 C 256.35178 278.76752 255.92202 278.66008 254.09553 277.3708 C 240.12825 267.37882 227.88003 260.82495 222.61544 260.61006 C 221.4336 260.50262 219.49966 259.96542 218.31782 259.42822 C 213.05323 256.9571 227.0205 259.96542 233.78926 262.75888 Z" fill="white"/>
        </g>
        <g id="Graphic_960">
          <path d="M 126.45613 264.9077 C 126.45613 266.62674 126.02637 268.23835 125.48917 268.56067 C 124.41476 269.31275 122.91059 262.97376 123.87756 261.57703 C 124.95196 259.75054 126.45613 261.7919 126.45613 264.9077 Z" fill="white"/>
        </g>
        <g id="Graphic_959">
          <path d="M 252.26904 262.11423 C 251.6244 262.97376 249.47558 263.83328 247.6491 264.04816 L 244.42587 264.58537 L 246.897 262.65144 C 250.01278 260.1803 254.20297 259.85798 252.26904 262.11423 Z" fill="white"/>
        </g>
        <g id="Graphic_958">
          <path d="M 122.05107 270.81692 C 122.05107 273.28805 121.83619 273.61037 121.0841 272.42853 C 120.5469 271.569 120.11714 268.883 120.11714 266.5193 C 120.22458 262.75888 120.33202 262.544 121.0841 264.9077 C 121.51386 266.41186 121.94363 268.99043 122.05107 270.81692 Z" fill="white"/>
        </g>
        <g id="Graphic_957">
          <path d="M 227.66515 264.58537 C 229.9214 266.5193 230.35116 271.7839 228.3098 271.13924 C 227.5577 270.81692 226.80562 269.52763 226.59074 268.23835 C 226.37586 266.94906 225.51633 265.55233 224.6568 265.23 C 223.79729 264.9077 223.47496 264.26304 223.79729 263.72584 C 224.6568 262.3291 225.4089 262.544 227.66515 264.58537 Z" fill="white"/>
        </g>
        <g id="Graphic_956">
          <path d="M 117.32368 268.3458 C 117.32368 269.84995 117.646 271.569 118.18321 271.99877 C 119.68738 273.50293 118.93529 276.51127 116.5716 278.12288 L 114.10047 279.84193 L 116.46416 280.594 C 118.72041 281.23865 118.82785 281.45354 117.32368 284.35443 C 116.35672 286.18092 114.42279 287.6851 112.70374 288.11485 C 111.09213 288.43717 107.86891 289.72646 105.39778 290.80086 C 103.03409 291.87527 99.81087 292.84224 98.19926 292.84224 L 95.29837 292.84224 L 97.44718 290.69342 C 98.62902 289.51158 99.91831 288.5446 100.34807 288.5446 C 100.6704 288.5446 102.60432 287.36277 104.53826 285.8586 C 106.47219 284.35443 108.621 283.1726 109.37308 283.1726 C 110.2326 283.1726 110.44749 280.91633 110.12516 275.22198 C 109.6954 267.91602 109.80284 267.16394 111.84421 266.08953 C 115.38975 264.3705 117.32368 265.12257 117.32368 268.3458 Z" fill="white"/>
        </g>
        <g id="Graphic_955">
          <path d="M 131.82816 270.17228 C 131.07608 271.67644 131.07608 272.42853 131.72072 272.42853 C 132.4728 272.42853 132.4728 273.3955 131.61328 275.11454 C 130.43143 277.6931 125.91893 279.94937 122.05107 279.94937 C 119.15017 279.94937 119.57993 277.908 122.58827 277.1559 C 125.38173 276.51127 128.60494 272.53597 128.60494 269.7425 C 128.60494 268.883 129.35703 268.1309 130.21655 268.1309 C 131.07608 268.1309 131.82816 267.48626 131.9356 266.73418 C 131.9356 265.7672 132.15048 265.7672 132.4728 266.73418 C 132.79512 267.48626 132.4728 268.99043 131.82816 270.17228 Z" fill="white"/>
        </g>
        <g id="Graphic_954">
          <path d="M 138.2746 266.41186 C 138.2746 266.73418 137.84483 267.27138 137.20019 267.5937 C 136.66298 267.91602 136.12578 267.70114 136.12578 267.16394 C 136.12578 266.5193 136.66298 265.9821 137.20019 265.9821 C 137.84483 265.9821 138.2746 266.19697 138.2746 266.41186 Z" fill="white"/>
        </g>
        <g id="Graphic_953">
          <path d="M 232.49997 270.4946 C 232.17765 271.35412 231.85533 271.0318 231.85533 269.84995 C 231.7479 268.6681 232.0702 268.02346 232.39253 268.45323 C 232.71485 268.77555 232.8223 269.7425 232.49997 270.4946 Z" fill="white"/>
        </g>
        <g id="Graphic_952">
          <path d="M 238.51664 282.85026 C 238.83897 284.247 238.73152 285.3214 238.30176 285.3214 C 237.76456 285.3214 237.01248 284.0321 236.69015 282.52794 C 236.15295 280.37913 235.5083 279.94937 233.68182 280.48657 C 232.0702 281.02377 231.64045 280.8089 231.96277 279.84193 C 232.2851 278.9824 233.25206 278.4452 234.11158 278.66008 C 235.29343 278.76752 235.5083 278.12288 235.18599 275.65174 C 234.9711 273.9327 235.07855 271.569 235.61575 270.60204 C 236.15295 269.2053 236.69015 270.38716 237.22736 274.57734 C 237.54968 277.80056 238.19432 281.56098 238.51664 282.85026 Z" fill="white"/>
        </g>
        <g id="Graphic_951">
          <path d="M 241.41754 275.11454 C 241.41754 276.51127 240.98778 277.908 240.45057 278.23032 C 239.26873 278.9824 238.08688 274.89966 238.9464 272.8583 C 239.80593 270.70948 241.41754 272.1062 241.41754 275.11454 Z" fill="white"/>
        </g>
        <g id="Graphic_950">
          <path d="M 266.12887 272.1062 C 265.26934 272.42853 263.65774 273.1806 262.69077 273.7178 C 261.50893 274.25502 260.75684 274.25502 260.75684 273.61037 C 260.75684 272.53597 263.22797 271.67644 266.12887 271.569 C 267.5256 271.569 267.5256 271.569 266.12887 272.1062 Z" fill="white"/>
        </g>
        <g id="Graphic_949">
          <path d="M 104.96802 273.50293 C 104.96802 274.04014 104.75314 274.57734 104.53826 274.57734 C 104.21593 274.57734 103.67873 274.04014 103.35641 273.50293 C 103.03409 272.8583 103.24897 272.42853 103.78617 272.42853 C 104.43081 272.42853 104.96802 272.8583 104.96802 273.50293 Z" fill="white"/>
        </g>
        <g id="Graphic_948">
          <path d="M 260.21964 280.8089 C 259.89732 281.1312 259.0378 280.8089 258.2857 280.0568 C 257.31874 278.9824 257.42618 278.87496 258.93035 279.5196 C 260.00476 279.84193 260.54196 280.48657 260.21964 280.8089 Z" fill="white"/>
        </g>
        <g id="Graphic_947">
          <path d="M 277.94733 281.45354 C 277.94733 281.77586 277.51757 282.31306 276.87293 282.63538 C 276.33572 282.9577 275.79852 282.74282 275.79852 282.20562 C 275.79852 281.56098 276.33572 281.02377 276.87293 281.02377 C 277.51757 281.02377 277.94733 281.23865 277.94733 281.45354 Z" fill="white"/>
        </g>
        <g id="Graphic_946">
          <path d="M 208.2184 82.90337 C 208.2184 84.08521 208.54072 84.40753 208.86305 83.54801 C 209.18537 82.79592 209.07793 81.82896 208.7556 81.50664 C 208.43328 81.07688 208.11096 81.72152 208.2184 82.90337 Z" fill="black"/>
        </g>
        <g id="Graphic_945">
          <path d="M 175.77135 100.52362 C 175.23415 103.6394 175.34159 105.89565 176.09367 105.89565 C 177.70528 105.89565 178.34993 102.56499 177.06064 101.2757 C 176.416 100.63106 175.8788 100.30874 175.77135 100.52362 Z" fill="black"/>
        </g>
        <g id="Graphic_944">
          <path d="M 214.34252 155.10343 C 214.66484 163.69867 214.44996 169.17814 213.483 171.86416 C 211.97882 176.59154 212.7309 178.0957 214.77228 174.44273 C 216.59877 171.32695 216.7062 145.2189 214.98716 143.49985 C 214.12763 142.64032 213.91275 145.7561 214.34252 155.10343 Z" fill="black"/>
        </g>
        <g id="Graphic_943">
          <path d="M 219.0699 144.57425 C 219.0699 146.07842 219.28478 146.61562 219.6071 145.86354 C 219.82198 145.2189 219.82198 143.9296 219.6071 143.17752 C 219.28478 142.53288 219.0699 143.07008 219.0699 144.57425 Z" fill="black"/>
        </g>
        <g id="Graphic_942">
          <path d="M 218.85502 154.13646 C 218.85502 157.03736 219.39222 159.83081 219.92943 160.15313 C 220.57407 160.5829 221.00383 158.7564 221.00383 155.42575 C 221.00383 152.52485 220.57407 149.7314 219.92943 149.40908 C 219.28478 148.97931 218.85502 150.8058 218.85502 154.13646 Z" fill="black"/>
        </g>
        <g id="Graphic_941">
          <path d="M 129.89423 133.07811 C 128.39006 137.37573 128.28262 138.12782 129.5719 138.12782 C 130.10911 138.12782 130.8612 136.94597 131.18352 135.54924 C 131.50584 134.15252 132.15048 132.21859 132.4728 131.25162 C 132.79512 130.28466 132.68768 129.53257 132.15048 129.53257 C 131.61328 129.53257 130.64631 131.14418 129.89423 133.07811 Z" fill="black"/>
        </g>
        <g id="Graphic_940">
          <path d="M 197.3669 177.0213 C 197.3669 180.78172 197.04458 185.72399 196.72226 188.08768 C 196.2925 191.09602 196.50738 191.8481 197.15202 190.7737 C 198.87107 188.19512 199.94548 171.86416 198.54875 171.00463 C 197.68923 170.46743 197.3669 172.29392 197.3669 177.0213 Z" fill="black"/>
        </g>
        <g id="Graphic_939">
          <path d="M 234.00414 152.0951 C 233.8967 158.32664 234.21902 160.69034 234.9711 159.61593 C 236.2604 157.682 236.2604 148.11979 234.9711 145.11145 C 234.32646 143.71473 234.00414 145.97098 234.00414 152.0951 Z" fill="black"/>
        </g>
        <g id="Graphic_938">
          <path d="M 183.39963 133.29299 C 183.39963 134.15252 182.43267 134.9046 181.14338 134.9046 C 179.96153 134.9046 179.3169 135.33436 179.63921 135.979 C 180.49874 137.37573 185.54844 137.37573 185.54844 136.08645 C 185.54844 135.54924 185.87077 134.3674 186.19309 133.40043 C 186.62285 132.21859 186.30053 131.68138 185.11868 131.68138 C 184.15172 131.68138 183.39963 132.43347 183.39963 133.29299 Z" fill="black"/>
        </g>
        <g id="Graphic_937">
          <path d="M 171.04397 152.0951 C 170.6142 152.73973 169.86212 152.95462 169.32492 152.6323 C 168.78771 152.20253 168.35795 152.73973 168.35795 153.59926 C 168.35795 154.56622 169.0026 155.3183 169.75468 155.3183 C 171.25885 155.3183 173.72998 153.1695 173.72998 151.88021 C 173.72998 150.69836 171.79605 150.8058 171.04397 152.0951 Z" fill="black"/>
        </g>
        <g id="Graphic_936">
          <path d="M 182.43267 155.74807 C 181.57314 156.82248 181.4657 157.46712 182.32523 158.00432 C 183.72195 158.86385 185.54844 157.682 185.54844 155.74807 C 185.54844 153.81414 184.04428 153.81414 182.43267 155.74807 Z" fill="black"/>
        </g>
        <g id="Graphic_935">
          <path d="M 184.58148 165.95492 C 183.72195 166.59957 183.61451 167.13677 184.25916 167.56653 C 184.9038 167.88885 185.76332 167.67397 186.08565 167.02933 C 187.05261 165.52516 186.30053 164.88052 184.58148 165.95492 Z" fill="black"/>
        </g>
        <g id="Graphic_934">
          <path d="M 168.35795 171.4344 C 168.35795 171.9716 169.11004 172.5088 169.96956 172.5088 C 170.82909 172.5088 171.58117 171.9716 171.58117 171.4344 C 171.58117 170.78975 170.82909 170.35999 169.96956 170.35999 C 169.11004 170.35999 168.35795 170.78975 168.35795 171.4344 Z" fill="black"/>
        </g>
        <g id="Graphic_933">
          <path d="M 275.79852 193.13739 C 273.43483 194.2118 273.3274 194.42667 275.15388 194.749 C 276.22828 195.07132 277.94733 194.53412 278.80686 193.56715 C 280.84823 191.63322 279.66638 191.41834 275.79852 193.13739 Z" fill="black"/>
        </g>
        <g id="Graphic_932">
          <path d="M 274.1869 197.86477 L 270.9637 199.36894 L 274.61667 199.04662 C 276.65805 198.93918 278.48453 198.1871 278.80686 197.435 C 279.34406 195.8234 278.26965 195.93084 274.1869 197.86477 Z" fill="black"/>
        </g>
        <g id="Graphic_931">
          <path d="M 276.33572 201.51775 C 276.0134 202.05496 276.22828 202.59216 276.7655 202.59216 C 277.41013 202.59216 277.94733 202.05496 277.94733 201.51775 C 277.94733 200.8731 277.73245 200.44335 277.51757 200.44335 C 277.19525 200.44335 276.65805 200.8731 276.33572 201.51775 Z" fill="black"/>
        </g>
        <g id="Graphic_930">
          <path d="M 179.102 268.6681 C 179.102 269.52763 179.63921 270.2797 180.17641 270.2797 C 180.82106 270.2797 181.25082 269.52763 181.25082 268.6681 C 181.25082 267.80858 180.82106 267.0565 180.17641 267.0565 C 179.63921 267.0565 179.102 267.80858 179.102 268.6681 Z" fill="black"/>
        </g>
        <g id="Graphic_929">
          <path d="M 108.19123 208.93115 C 108.19123 209.46835 109.05076 210.22044 110.2326 210.6502 C 111.30701 210.97252 113.02606 212.15437 114.10047 213.33621 C 115.17487 214.51806 116.78648 215.48503 117.75344 215.48503 C 118.93529 215.48503 118.18321 214.19574 115.49719 211.7246 C 111.62933 208.17907 108.19123 206.88978 108.19123 208.93115 Z" fill="black"/>
        </g>
        <g id="Graphic_928">
          <path d="M 245.71516 282.09818 C 245.71516 286.71812 248.50862 291.6604 251.9467 292.94968 C 256.1369 294.5613 259.68244 295.20593 259.68244 294.23896 C 259.575 292.7348 255.3848 288.0074 255.3848 289.2967 C 255.3848 291.55295 253.236 290.80086 253.236 288.65205 C 253.236 286.07348 251.51695 284.7842 250.44255 286.50324 C 249.36814 288.2223 247.86397 285.53628 247.86397 281.77586 C 247.86397 280.16425 247.4342 278.87496 246.78957 278.87496 C 246.25236 278.87496 245.71516 280.37913 245.71516 282.09818 Z" fill="black"/>
        </g>
      </g>
    </g>
  </g>
</svg>
