<?xml version="1.0" encoding="UTF-8" standalone="no"?>
<!DOCTYPE svg PUBLIC "-//W3C//DTD SVG 1.1//EN" "http://www.w3.org/Graphics/SVG/1.1/DTD/svg11.dtd">
<svg xmlns="http://www.w3.org/2000/svg" xmlns:xl="http://www.w3.org/1999/xlink" version="1.1" xmlns:dc="http://purl.org/dc/elements/1.1/" viewBox="33.95 61.887264 296.6 301.6681" width="296.6" height="301.6681">
  <defs>
    <clipPath id="artboard_clip_path">
      <path d="M 33.95 61.887264 L 330.55 61.887264 L 330.55 363.55536 L 33.95 363.55536 Z"/>
    </clipPath>
  </defs>
  <g id="Quatrefoil_(2)" stroke-opacity="1" fill="none" fill-opacity="1" stroke-dasharray="none" stroke="none">
    <title>Quatrefoil (2)</title>
    <g id="Quatrefoil_(2)_Layer_2" clip-path="url(#artboard_clip_path)">
      <title>Layer 2</title>
      <g id="Group_3">
        <g id="Graphic_9">
          <path d="M 186.48355 63.00808 C 185.71382 63.00808 182.63487 66.087024 179.74836 69.743274 C 176.6694 73.20709 170.12664 78.017945 165.31579 80.13472 C 160.3125 82.44393 153 87.44722 148.95888 91.29591 C 144.91776 95.14459 139.91447 101.11005 137.7977 104.57387 C 135.68092 107.84525 133.17928 115.54262 132.2171 121.50808 C 131.0625 128.43571 131.25493 136.13308 132.40954 143.0607 C 133.56414 149.02617 136.45066 156.91597 138.75987 160.76466 C 141.26151 164.61334 147.03454 170.96367 151.65296 175.00479 C 156.27138 179.0459 162.0444 184.24163 164.54605 186.3584 C 166.85526 188.47518 168.7796 191.74656 168.7796 193.6709 C 168.7796 195.59525 167.43257 197.5196 165.8931 198.0969 C 164.16118 198.86663 160.8898 196.55742 157.23355 192.13143 C 154.1546 188.28275 151.46053 184.24163 151.46053 183.08702 C 151.46053 181.93242 148.18914 177.8913 144.34046 174.23505 C 140.29934 170.38637 134.52632 165.57551 131.25493 163.45873 C 128.17599 161.34196 120.47862 158.45545 114.32072 157.1084 C 107.77796 155.76137 99.11842 155.3765 93.53783 156.14623 C 87.7648 156.91597 80.4523 159.80248 74.87171 163.45873 C 69.86842 166.92255 62.55592 174.42748 58.5148 180.20051 C 54.66612 185.97354 50.0477 193.47847 48.508224 196.94229 C 46.96875 200.79097 44.082237 203.67748 41.00329 204.44722 C 38.30921 205.02452 36 206.75643 36 208.2959 C 36 209.83538 37.34704 210.98998 38.886513 210.98998 C 40.425987 210.98998 43.120066 213.2992 45.04441 216.1857 C 46.776316 219.26466 51.779605 227.15446 56.398026 234.0821 C 60.82401 241.00972 67.55921 249.09196 71.407895 252.1709 C 75.25658 255.05742 83.14638 259.09854 88.91941 261.02288 C 97.19408 263.9094 101.62007 264.29426 110.66447 262.94722 C 117.0148 262.1775 124.51974 260.0607 127.59868 258.52123 C 130.67763 256.78933 136.6431 251.78604 141.06908 247.16762 C 145.30263 242.5492 150.69079 235.814 153 232.15775 C 155.11678 228.5015 158.77303 224.46038 160.8898 223.11334 C 163.77632 221.189 165.12336 221.38143 167.0477 223.69064 C 168.7796 225.99985 168.7796 227.53933 166.85526 231.00314 C 165.50822 233.5048 162.23684 236.77617 159.35033 238.1232 C 156.65625 239.47025 150.11349 244.08867 145.1102 248.1298 C 140.1069 252.36334 134.52632 258.3288 132.98684 261.40775 C 131.25493 264.67913 128.75329 271.2219 127.21382 276.22518 C 125.86678 281.03604 124.51974 287.77123 124.51974 291.23505 C 124.51974 294.69887 126.44408 302.39623 128.56086 308.3617 C 130.87007 314.5196 135.87336 322.4094 140.1069 326.64295 C 144.14803 330.68406 151.65296 336.07222 156.84868 338.7663 C 161.85197 341.26795 167.0477 344.53933 168.2023 346.0788 C 169.3569 347.42584 171.08882 351.46696 172.05099 355.1232 C 173.01316 358.77946 174.55263 362.05084 175.5148 362.4357 C 176.6694 362.62814 180.13322 358.77946 183.21217 353.77617 C 186.86842 348.00314 191.8717 343.38472 196.875 340.88308 C 201.10855 338.7663 208.80592 333.57058 213.8092 329.33702 C 219.19737 324.7186 224.77796 317.4061 227.8569 311.05577 C 231.32072 303.74327 233.05263 296.81564 233.4375 288.7334 C 233.62993 280.45873 232.66776 274.30084 230.16612 268.5278 C 228.04934 264.10183 223.2385 256.5969 219.58224 251.97847 C 215.92599 247.36005 210.53783 243.1265 207.65132 242.35676 C 204.7648 241.77946 200.53125 239.08538 198.22204 236.58373 C 195.7204 234.0821 193.79605 230.61827 193.79605 229.0788 C 193.79605 227.53933 195.1431 225.80742 196.875 225.03768 C 199.1842 224.26795 201.8783 225.99985 205.53454 230.42584 C 208.61349 234.0821 215.15625 242.35676 219.9671 248.89952 C 227.08717 258.52123 230.74342 261.60018 237.8635 264.10183 C 242.67434 265.6413 248.0625 267.75808 249.60197 268.5278 C 251.14145 269.29755 255.56743 269.68242 259.22368 269.49 C 262.87993 269.10512 268.65296 268.33538 271.7319 267.75808 C 275.0033 266.98834 280.96875 264.87156 285.2023 262.94722 C 289.43586 261.02288 295.20888 257.1742 298.0954 254.28768 C 300.9819 251.40117 305.9852 245.05084 309.25658 240.23998 C 312.33553 235.42913 315.0296 229.46367 315.0296 226.96202 C 315.0296 224.26795 316.1842 222.53604 317.9161 222.53604 C 319.4556 222.53604 320.80263 221.7663 320.80263 220.80413 C 320.80263 219.84196 322.53454 218.68735 324.6513 218.11005 C 326.7681 217.53275 328.5 216.37814 328.5 215.41597 C 328.5 214.4538 325.0362 210.79755 320.80263 207.33373 C 316.56908 203.86992 313.10526 199.44393 313.10526 197.32716 C 313.10526 195.21038 310.9885 190.2071 308.2944 185.97354 C 305.60033 181.73998 299.8273 175.5821 295.20888 172.3107 C 290.7829 169.03933 284.0477 164.9982 280.39145 163.45873 C 276.7352 161.91926 269.03783 160.37979 263.07237 160.37979 C 256.91447 160.18735 248.25493 161.72683 242.09704 163.8436 C 234.78454 166.53768 229.0115 170.5788 222.85362 177.12156 C 218.04276 182.31729 211.69243 189.05248 208.80592 192.13143 C 206.11184 195.01795 201.8783 197.5196 199.56908 197.5196 C 196.2977 197.5196 195.52796 196.55742 196.10526 192.32387 C 196.49013 188.28275 198.79934 185.97354 205.3421 182.50972 C 210.15296 180.00808 217.27303 174.81235 221.50658 170.96367 C 225.5477 167.11498 231.1283 159.03275 233.82237 153.25972 C 237.67105 145.36992 239.0181 139.78933 239.0181 131.12979 C 238.82566 123.62485 237.47862 116.50479 234.97697 110.73176 C 232.66776 105.9209 228.24178 98.99327 224.9704 95.33702 C 221.89145 91.87321 214.19408 86.29262 208.22862 83.02123 C 200.91612 79.36498 195.52796 74.74656 192.44901 70.12814 C 189.94737 66.087024 187.2533 62.81564 186.48355 63.00808 Z" fill="black"/>
        </g>
        <g id="Graphic_8">
          <path d="M 188.79276 73.97683 C 189.94737 76.0936 193.02632 79.55742 195.7204 81.48176 C 198.41447 83.59854 203.41776 86.29262 206.68914 87.63966 C 210.15296 88.9867 215.92599 93.60512 219.58224 97.64623 C 223.2385 101.68735 227.8569 107.84525 229.58882 111.30906 C 231.7056 115.54262 232.8602 122.27781 233.05263 131.12979 C 233.05263 142.4834 232.2829 146.13966 227.47204 154.7992 C 224.3931 160.57222 218.8125 167.49985 215.15625 170.38637 C 211.30757 173.27288 205.3421 176.7367 201.8783 178.27617 C 198.41447 179.6232 194.37336 182.50972 192.83388 184.81893 C 191.2944 186.9357 189.94737 191.55413 189.94737 194.8255 C 189.94737 200.21367 190.7171 201.17584 195.52796 202.33045 C 199.37664 203.10018 203.0329 202.52288 206.68914 200.21367 C 209.57566 198.28933 213.8092 195.01795 215.92599 192.90117 C 218.04276 190.59196 221.89145 185.7811 224.3931 181.93242 C 226.89474 178.27617 232.09046 173.46531 235.93914 171.1561 C 239.78783 169.03933 245.56086 166.53768 248.6398 165.76795 C 251.91118 164.9982 257.1069 164.22847 260.18586 163.8436 C 263.45724 163.65117 269.80757 164.80577 274.61842 166.34525 C 279.42928 167.69229 286.54934 171.1561 290.59046 173.85018 C 294.43914 176.54426 299.63487 181.93242 302.1365 185.7811 C 304.44572 189.62979 306.37007 193.47847 306.5625 194.63308 C 306.5625 195.59525 307.52467 198.28933 308.2944 200.4061 C 309.06414 202.52288 312.1431 206.75643 314.83717 209.64295 L 319.84046 215.22354 L 314.4523 219.4571 C 311.5658 221.7663 308.2944 226.7696 307.33224 230.61827 C 306.17763 234.27452 302.7138 241.00972 299.63487 245.24327 C 296.17105 250.05413 289.82072 255.4423 283.85526 258.52123 C 275.5806 262.7548 270.96217 263.71696 260.18586 263.9094 C 249.40954 263.9094 244.79112 262.94722 237.09375 258.9061 C 229.39638 254.86498 225.5477 251.0163 216.5033 237.5459 C 210.3454 228.30906 203.6102 220.41926 201.68586 219.64952 C 199.56908 219.07222 196.10526 219.4571 193.98849 220.41926 C 191.8717 221.57387 189.5625 224.46038 188.9852 226.57716 C 188.02303 229.27123 188.9852 232.35018 191.2944 235.814 C 193.41118 238.50808 199.37664 243.31893 204.57237 246.20545 C 209.57566 249.2844 214.96382 253.13308 216.31086 254.86498 C 217.85033 256.78933 221.1217 262.36992 223.8158 267.75808 C 228.24178 276.03275 228.81908 278.91926 228.04934 290.85018 C 227.2796 301.0492 225.93257 306.24492 222.27632 312.01795 C 219.58224 316.2515 214.96382 322.21696 211.88487 325.2959 C 208.80592 328.1824 202.4556 332.80084 197.64474 335.11005 C 192.83388 337.6117 186.09868 342.42255 182.63487 345.88637 C 179.17105 349.3502 176.47697 351.27452 176.47697 350.1199 C 176.47697 348.9653 174.3602 345.30906 171.66612 342.2301 C 169.16447 339.15117 164.16118 336.07222 160.69737 335.3025 C 156.65625 334.53275 150.88322 330.2992 144.34046 323.564 C 138.75987 317.79097 134.14145 311.44064 134.14145 309.70873 C 134.14145 307.7844 132.98684 303.9357 131.44737 301.0492 C 129.9079 298.16268 129.13816 295.4686 129.71546 294.8913 C 130.29276 294.50643 130.87007 289.69558 131.25493 284.30742 C 131.44737 278.72683 133.75658 270.45216 136.25822 265.25643 C 138.75987 260.25314 142.99342 254.28768 145.6875 251.97847 C 148.38158 249.47683 154.92434 245.4357 160.12007 242.93406 C 165.50822 240.43242 170.70395 237.16104 171.85855 235.814 C 173.01316 234.27452 174.55263 231.58045 175.12993 229.84854 C 175.70724 228.11663 174.55263 224.46038 172.43586 221.7663 C 170.31908 219.07222 166.66283 216.763 164.16118 216.763 C 161.85197 216.763 157.23355 219.64952 153.76974 222.9209 C 150.49836 226.38472 145.6875 233.11992 143.18586 237.93077 C 140.29934 243.51137 135.48849 248.51466 129.71546 252.1709 C 124.9046 255.05742 117.0148 258.13637 112.20395 258.52123 C 107.39309 259.09854 99.69572 258.9061 94.88487 258.3288 C 89.11184 257.36663 82.76151 254.28768 75.64145 249.09196 C 68.52138 243.89623 63.90296 238.50808 60.82401 231.9653 C 58.32237 226.7696 55.62829 222.53604 54.85855 222.53604 C 53.89638 222.53604 53.31908 221.57387 53.31908 220.22683 C 53.31908 218.8798 51.00987 215.6084 48.31579 212.7219 C 43.504934 207.7186 43.504934 207.52617 47.161184 206.37156 C 49.470395 205.60183 53.89638 199.2515 58.32237 190.39952 C 62.36349 182.50972 68.52138 173.65775 71.79276 170.96367 C 75.25658 168.26959 81.79934 164.4209 86.41776 162.689 C 91.03618 160.76466 97.96382 159.22518 101.8125 159.22518 C 105.85362 159.03275 112.97368 160.37979 117.97697 162.1117 C 122.98026 163.8436 129.52303 166.92255 132.60197 169.23176 C 135.48849 171.34854 141.45395 178.66104 145.6875 185.2038 C 150.11349 191.74656 155.11678 198.48176 157.23355 200.4061 C 159.92763 202.90775 162.62171 203.48505 167.81743 202.52288 C 173.39803 201.36827 174.55263 200.4061 174.55263 196.36498 C 174.55263 193.6709 173.2056 189.05248 171.66612 186.16597 C 170.12664 183.08702 164.93092 178.27617 160.3125 175.5821 C 155.50164 172.69558 149.34375 167.69229 146.64967 164.03604 C 143.9556 160.57222 140.29934 153.45216 138.75987 148.44887 C 136.45066 141.9061 135.87336 135.74821 136.6431 126.31893 C 137.41283 116.88966 139.14474 110.9242 142.60855 105.53604 C 145.30263 101.30248 151.2681 94.75972 155.88651 90.91104 C 160.50493 87.06235 165.70066 83.98341 167.43257 83.98341 C 168.97204 83.98341 173.97533 80.90446 178.59375 77.05577 C 186.48355 70.51301 186.86842 70.32058 188.79276 73.97683 Z" fill="#FFFFFF"/>
        </g>
        <g id="Graphic_7">
          <path d="M 207.84375 94.18242 C 206.68914 93.79755 205.14967 94.18242 204.57237 95.33702 C 203.80263 96.49163 205.53454 98.6084 208.03618 100.34031 C 210.73026 102.07222 214.77138 106.69064 216.88816 110.53933 C 219.19737 114.19558 221.50658 121.31564 222.08388 126.31893 C 222.85362 132.8617 222.08388 137.48012 219.19737 143.83045 C 217.0806 148.44887 213.61678 154.2219 211.30757 156.5311 C 208.99836 159.03275 203.80263 162.689 199.56908 164.80577 C 195.33553 166.92255 188.79276 168.65446 184.75164 168.65446 C 180.71053 168.65446 173.7829 166.92255 169.3569 164.9982 C 165.12336 162.88143 159.54276 158.64788 157.04112 155.3765 C 154.34704 151.72025 152.03783 149.98834 150.88322 151.14295 C 149.72862 152.29755 150.49836 154.99163 153.19243 158.26301 C 155.30921 160.95709 161.27467 165.57551 166.27796 168.07716 C 173.97533 172.3107 177.05428 172.88801 187.2533 171.92584 C 196.49013 171.34854 201.10855 169.61663 207.84375 164.9982 C 212.6546 161.72683 217.27303 157.30084 217.85033 155.18406 C 218.42763 153.06729 219.77467 151.33538 220.73684 151.33538 C 221.699 151.33538 223.43092 148.25643 224.58553 144.40775 C 226.125 140.1742 226.50987 132.2844 225.93257 124.9719 C 225.16283 114.00314 224.20066 111.5015 217.46546 103.80413 C 213.2319 98.80084 208.99836 94.56729 207.84375 94.18242 Z" fill="black"/>
        </g>
        <g id="Graphic_6">
          <path d="M 124.13487 171.92584 C 121.05592 170.0015 118.55428 169.4242 117.78454 170.5788 C 117.20724 171.7334 117.20724 173.27288 117.78454 174.42748 C 118.36184 175.38966 120.09375 176.35183 121.24836 176.35183 C 122.5954 176.54426 125.48191 178.08373 127.59868 180.00808 C 129.9079 181.73998 133.75658 187.12814 136.06579 191.74656 C 139.5296 198.28933 140.1069 202.33045 139.5296 211.37485 C 138.9523 219.84196 137.2204 224.65281 132.98684 230.8107 C 129.71546 235.42913 123.75 240.8173 118.74671 243.1265 C 114.12829 245.62814 106.81579 247.55248 102.58224 247.55248 C 98.34868 247.55248 91.42105 245.82058 86.99507 243.7038 C 81.99178 241.20216 77.18092 236.77617 73.717105 231.19558 C 70.63816 226.38472 67.36678 222.53604 66.59704 222.53604 C 65.63487 222.53604 64.86513 223.69064 64.86513 225.03768 C 64.86513 226.38472 66.98191 230.61827 69.67599 234.6594 C 72.37007 238.50808 78.14309 243.51137 82.56908 245.82058 C 86.80263 247.93735 95.0773 250.24656 100.6579 250.82387 C 107.9704 251.5936 112.78125 251.0163 117.78454 248.7071 C 121.63322 246.78275 127.79112 242.74163 131.44737 239.47025 C 135.10362 236.19887 139.5296 230.8107 141.26151 227.53933 C 143.18586 223.88308 144.34046 216.763 144.34046 209.06564 C 144.5329 200.02123 143.37829 194.44064 140.49178 188.86005 C 138.18257 184.6265 134.91118 179.81564 132.98684 178.08373 C 130.87007 176.54426 127.02138 173.65775 124.13487 171.92584 Z" fill="black"/>
        </g>
        <g id="Graphic_5">
          <path d="M 285.97204 180.20051 C 285.00987 180.20051 284.24013 180.97025 284.24013 181.73998 C 284.24013 182.70216 286.54934 185.39623 289.24342 188.09031 C 292.12993 190.59196 295.59375 195.40281 296.9408 198.86663 C 298.48026 202.33045 299.63487 209.25808 299.63487 214.4538 C 299.63487 220.22683 298.0954 226.7696 295.4013 232.15775 C 292.89967 236.9686 287.70395 242.93406 283.27796 246.013 C 279.0444 248.89952 271.7319 251.78604 267.30592 252.55577 C 262.30263 253.3255 255.56743 252.94064 251.14145 251.5936 C 246.9079 250.24656 240.36513 246.20545 236.90132 242.5492 C 233.24507 238.89295 229.78125 236.00643 229.39638 236.00643 C 228.81908 236.00643 228.4342 237.35347 228.4342 238.89295 C 228.4342 240.43242 230.74342 243.7038 233.4375 246.39788 C 236.324 248.89952 243.25164 252.55577 249.02467 254.28768 C 255.9523 256.40446 262.1102 257.1742 267.30592 256.40446 C 271.53947 255.63472 277.50493 253.9028 280.58388 252.36334 C 283.66283 250.63143 289.051 246.78275 292.70724 243.51137 C 296.74836 240.04755 300.59704 234.0821 302.32895 228.69393 C 304.2533 223.11334 305.02303 215.99327 304.63816 210.60512 C 304.06086 205.79426 301.75164 198.48176 299.63487 194.44064 C 297.32566 190.2071 293.86184 185.39623 291.55263 183.4719 C 289.43586 181.73998 286.9342 180.20051 285.97204 180.20051 Z" fill="black"/>
        </g>
        <g id="Graphic_4">
          <path d="M 207.84375 259.09854 C 205.9194 259.09854 206.4967 261.02288 209.96053 265.25643 C 212.46217 268.72025 215.54112 275.45545 216.88816 279.88143 C 218.04276 284.49985 218.42763 291.0426 217.6579 294.314 C 217.0806 297.7778 214.77138 303.55084 212.84704 307.39952 C 210.9227 311.2482 206.4967 316.44393 203.0329 318.94558 C 199.56908 321.63966 194.18092 324.7186 191.2944 326.06564 C 188.4079 327.4127 183.4046 328.37485 180.13322 328.37485 C 177.05428 328.37485 171.28125 327.0278 167.43257 325.48834 C 163.58388 323.75643 158.00329 319.7153 154.92434 316.44393 C 152.03783 313.17255 149.15132 308.74656 148.38158 306.82222 C 147.80428 304.89788 146.07237 303.3584 144.5329 303.3584 C 142.99342 303.3584 141.83882 304.12814 141.83882 304.89788 C 141.83882 305.86005 144.34046 310.0936 147.4194 314.32716 C 150.49836 318.5607 156.07895 323.94887 159.92763 326.4505 C 165.12336 329.52946 169.93421 330.68406 178.01645 330.68406 C 183.9819 330.68406 190.33224 330.2992 192.06414 329.91433 C 193.79605 329.52946 197.25987 327.79755 199.76151 326.06564 C 202.4556 324.52617 207.65132 319.90775 211.69243 315.86663 C 215.54112 312.01795 219.3898 306.43735 220.15954 303.55084 C 220.92928 300.85676 221.699 293.7367 221.699 287.77123 C 221.699 281.80577 220.35197 274.49327 218.8125 271.41433 C 217.27303 268.33538 214.77138 264.29426 213.2319 262.36992 C 211.69243 260.638 209.38322 259.09854 207.84375 259.09854 Z" fill="black"/>
        </g>
      </g>
    </g>
  </g>
</svg>
