<?xml version="1.0" encoding="UTF-8" standalone="no"?>
<!DOCTYPE svg PUBLIC "-//W3C//DTD SVG 1.1//EN" "http://www.w3.org/Graphics/SVG/1.1/DTD/svg11.dtd">
<svg xmlns="http://www.w3.org/2000/svg" xmlns:xl="http://www.w3.org/1999/xlink" version="1.1" xmlns:dc="http://purl.org/dc/elements/1.1/" viewBox="36 99 292.5 290.60197" width="292.5" height="290.60197">
  <defs>
    <clipPath id="artboard_clip_path">
      <path d="M 36 99 L 328.5 99 L 328.5 366.6917 L 328.5 389.60197 L 36 389.60197 Z"/>
    </clipPath>
  </defs>
  <g id="Rope,_Annulet_of_(2)" stroke-opacity="1" fill="none" fill-opacity="1" stroke-dasharray="none" stroke="none">
    <title>Rope, Annulet of (2)</title>
    <g id="Rope,_Annulet_of_(2)_Layer_2" clip-path="url(#artboard_clip_path)">
      <title>Layer 2</title>
      <g id="Group_180">
        <g id="Graphic_182">
          <path d="M 171.3502 103.03069 C 168.84302 103.33459 163.9806 103.79044 160.56172 104.01837 C 157.14284 104.2463 154.02786 104.62617 153.572 104.93007 C 153.11616 105.158 151.1408 105.68982 149.08947 106.0697 C 147.11412 106.3736 143.61926 107.43725 141.34 108.34896 C 139.06075 109.18468 134.80614 110.55224 131.99505 111.38796 C 129.18397 112.14771 125.53716 113.59124 124.01766 114.6549 C 122.49816 115.71855 120.29488 116.70623 119.23122 117.01013 C 118.16757 117.23805 116.04027 118.3017 114.52076 119.36536 C 112.92528 120.35303 110.19018 121.94851 108.36677 122.78424 C 106.54337 123.61997 104.03619 125.13947 102.74461 126.20312 C 101.529 127.1908 99.7056 128.4064 98.71792 128.86226 C 97.04647 129.622 94.91916 131.06554 89.37298 135.1682 C 84.96642 138.43513 76.00134 146.4885 76.00134 147.0963 C 76.00134 147.47618 74.709765 149.14763 73.19026 150.81908 C 67.41615 156.97307 64.757016 160.46793 62.401785 165.10242 C 61.03423 167.68557 59.36278 170.26873 58.754976 170.80056 C 58.0712 171.33238 56.32377 174.3714 54.95622 177.48637 C 53.51269 180.60136 51.46136 184.85597 50.397706 186.98327 C 47.81455 192.0736 42.80019 207.4206 42.192386 212.05508 C 41.888485 214.1824 41.20471 217.60127 40.596907 219.80455 C 39.989106 222.00783 39.533255 224.74294 39.533255 225.88257 C 39.60923 227.0222 39.30533 231.5807 38.925453 235.98727 C 37.937776 245.86404 38.545577 254.67716 40.976783 268.27672 C 41.35666 270.32805 42.040436 274.8106 42.57226 278.1535 C 43.028113 281.4964 43.86384 284.9153 44.31969 285.751 C 44.699567 286.58674 45.079443 287.42247 45.00347 287.6504 C 44.395667 289.62575 52.06916 306.9481 58.754976 318.64827 C 61.793984 323.96653 71.67076 336.80634 75.92537 340.909 C 76.98902 341.97265 78.43255 343.49215 79.11633 344.32788 C 79.8001 345.08763 81.77546 346.987 83.52289 348.43054 C 85.34629 349.87407 87.70152 352.07735 88.76517 353.21698 C 89.82883 354.3566 94.38734 357.62354 98.7939 360.35864 C 103.20046 363.16972 107.60702 366.20873 108.67067 367.12043 C 110.722 369.0198 121.81438 374.41405 129.94372 377.45306 C 136.85747 380.1122 139.28867 380.72 157.67467 384.3668 C 168.38717 386.4941 191.63557 386.64606 202.50003 384.59473 C 215.79568 382.1635 232.13035 377.14916 240.48762 372.97052 C 252.71962 366.81653 261.76067 361.9541 263.58407 360.4346 C 264.79968 359.44694 267.61076 357.4716 269.73806 356.02806 C 271.94134 354.58453 274.8284 352.2293 276.19595 350.86174 C 277.63948 349.57017 279.083 348.43054 279.53886 348.43054 C 281.8941 348.43054 298.6846 329.2848 303.16715 321.45935 C 304.38275 319.33204 305.67433 317.2807 306.0542 316.90084 C 306.43408 316.445 308.71333 312.03843 311.06856 307.02406 C 313.49977 302.0097 316.08293 296.61546 316.91865 295.09596 C 317.6784 293.57646 318.3622 291.67708 318.3622 290.91732 C 318.3622 290.23355 318.81803 288.2582 319.42583 286.51076 C 320.03364 284.8393 321.24924 280.05287 322.16094 275.87424 C 323.07264 271.6956 324.1363 267.0611 324.51617 265.6176 C 326.33958 258.09604 326.5675 232.41643 324.89605 220.79223 C 323.98435 214.41031 322.2369 206.88877 319.8057 198.75942 C 318.51413 194.5808 310.23284 177.63832 308.02956 174.75127 C 306.88993 173.30774 304.61067 169.81288 302.86324 166.92582 C 299.6723 161.60756 297.62096 158.79648 293.67025 154.01004 C 292.37867 152.49054 290.7832 150.4392 290.0994 149.37555 C 289.41564 148.3119 286.98443 145.95667 284.70518 144.0573 C 282.34994 142.15791 280.22264 140.10658 279.9947 139.49878 C 279.7668 138.815 278.4752 137.67538 277.18363 136.91562 C 275.81608 136.15587 273.68877 134.5604 272.3972 133.42077 C 271.1816 132.28114 268.4465 130.38176 266.31918 129.24213 C 264.26785 128.02653 262.21652 126.65897 261.76067 126.12715 C 260.69702 124.68362 242.84285 115.94647 241.09542 115.94647 C 240.33567 115.94647 239.0441 115.49062 238.20836 114.88282 C 237.37264 114.351 235.70118 113.66722 234.4096 113.36332 C 233.194 113.05942 231.59852 112.37564 230.99072 111.84381 C 230.38292 111.23601 229.01537 110.62821 227.9517 110.47626 C 226.88806 110.24833 224.001 109.48858 221.49382 108.72883 C 204.62733 103.9424 182.9744 101.43521 171.3502 103.03069 Z M 195.28238 117.46598 L 195.28238 117.46598 C 199.2331 117.92183 204.24745 118.75756 206.29878 119.36536 C 233.64985 127.11483 237.4486 128.55835 245.80588 134.63637 C 248.31306 136.3838 252.41572 139.19488 254.9229 140.71438 C 257.43008 142.30986 261.53274 145.12094 264.03993 147.02032 C 269.20624 150.97103 283.4136 164.79852 283.4136 165.93815 C 283.4136 166.31802 283.94542 167.15375 284.70518 167.68557 C 286.1487 168.97715 294.7339 181.9689 296.8612 186.22352 C 301.1918 194.96067 305.29445 205.52122 306.662 211.6752 C 310.0049 226.79427 310.15686 228.16182 310.23284 243.2049 C 310.3088 253.46156 310.0049 259.53957 309.3971 261.81883 C 308.8653 263.7182 307.80163 267.97282 306.9659 271.31573 C 305.1425 279.21715 300.35606 292.58878 296.78523 299.80642 C 289.03576 315.4573 272.3972 334.67903 258.79764 343.6441 C 255.15083 346.0753 250.13647 349.34224 247.78124 350.86174 C 245.426 352.45722 243.2987 353.7488 242.9948 353.7488 C 242.6909 353.7488 239.57592 355.11635 236.15703 356.71183 C 229.47122 359.8268 212.30082 365.29703 204.93123 366.5886 C 202.50003 367.04446 200.1448 367.5763 199.76492 367.8802 C 198.6253 368.56396 186.69719 369.3237 177.04834 369.24774 C 158.5104 369.17176 140.96013 364.61325 121.96633 355.0404 C 108.8986 348.43054 104.11216 345.8474 103.42839 344.8597 C 103.20046 344.5558 100.46535 342.20057 97.42635 339.76937 C 92.56393 335.81866 89.14505 332.3238 83.21899 325.0302 C 82.38326 324.0425 80.48388 321.76325 78.96438 320.01582 C 72.58246 312.64623 66.80835 303.14933 62.705686 293.34853 C 57.61535 281.04055 57.1595 279.74897 56.703646 275.49436 C 56.399746 273.2151 55.86792 269.79622 55.488044 267.89684 C 53.892565 260.29932 52.52501 241.45748 53.20879 237.35482 C 53.66464 235.15154 54.27244 230.0612 54.652316 226.1105 C 55.56402 216.53762 56.62767 211.9791 59.36278 205.36927 C 60.654356 202.40623 62.249835 198.07565 63.00959 195.87237 C 63.76934 193.74506 65.28884 190.63008 66.352495 189.0346 C 67.41615 187.5151 68.93565 185.00792 69.6954 183.48841 C 71.29088 180.29746 77.90072 170.11678 81.09168 165.86217 C 83.90276 162.06341 98.49 147.62813 101.83291 145.2729 C 103.27643 144.20924 106.39142 142.08194 108.67067 140.56243 C 110.94993 139.04293 113.68503 137.21953 114.74869 136.45977 C 117.1799 134.78832 127.20862 129.622 127.96837 129.622 C 128.27227 129.622 129.56385 128.93823 130.77945 128.02653 C 134.73016 125.29142 150.38105 120.12511 159.57405 118.6056 C 166.25986 117.54195 182.0627 116.1744 185.02573 116.40232 C 186.69719 116.55428 191.33167 117.01013 195.28238 117.46598 Z" fill="black"/>
        </g>
        <g id="Graphic_181">
          <path d="M 191.33167 105.23397 C 191.02777 104.39825 177.12431 103.71447 173.55348 104.32227 C 171.12227 104.77812 168.69107 107.74115 168.15924 110.93211 C 167.55144 114.57892 169.2229 114.57892 172.33788 111.00809 C 174.3892 108.72883 174.76908 108.57688 175.14896 109.79248 C 175.37688 110.62821 176.06066 111.61589 176.66846 112.14771 C 177.5042 112.83149 178.112 112.37564 179.70747 109.86846 C 180.8471 108.12103 181.91075 106.90543 182.13868 107.13335 C 182.3666 107.36128 181.98673 108.42493 181.30295 109.41261 C 179.70747 111.91979 179.70747 113.97112 181.30295 113.36332 C 181.98673 113.13539 182.89843 112.90747 183.35428 112.90747 C 183.8861 112.90747 184.7978 111.91979 185.55756 110.70419 C 186.24134 109.48858 187.6089 108.04505 188.59657 107.5892 L 190.344 106.60153 L 188.67254 108.5009 C 186.62121 110.70419 186.54524 111.16004 188.06474 112.67954 C 189.1284 113.66722 189.66022 113.43929 193.00313 110.09638 C 195.05446 108.12103 196.80189 106.14567 196.80189 105.7658 C 196.80189 105.4619 195.66226 105.38592 194.21873 105.61385 C 192.54728 105.91775 191.48362 105.7658 191.33167 105.23397 Z M 163.0689 105.30995 C 162.08123 104.32227 161.92928 104.32227 158.43442 106.29763 C 155.92724 107.74115 155.31944 108.5009 154.78761 111.31199 C 153.572 117.54195 156.53504 117.31403 159.57405 110.93211 C 161.47343 107.13335 162.91695 106.3736 161.62538 109.86846 C 160.86562 111.76784 160.9416 112.37564 161.8533 112.90747 C 163.0689 113.66722 165.57609 111.61589 168.0073 107.74115 C 169.98265 104.70215 169.5268 104.09434 166.33584 105.23397 C 164.66438 105.84177 163.60073 105.84177 163.0689 105.30995 Z M 155.01554 107.51323 C 155.69931 106.3736 155.54736 106.0697 154.4837 106.0697 C 152.50835 106.0697 146.81022 109.71651 146.43034 111.23601 C 144.83486 116.85818 145.13876 118.14975 148.02582 118.22573 C 149.69727 118.22573 152.73628 114.351 152.73628 112.07174 C 152.73628 110.93211 153.04018 109.71651 153.49603 109.48858 C 153.8759 109.26066 154.63566 108.34896 155.01554 107.51323 Z M 206.67866 106.6775 C 206.67866 105.4619 200.90455 106.14567 198.77724 107.51323 C 196.7259 108.88078 193.76288 112.60357 193.76288 113.89514 C 193.76288 114.80685 198.3214 113.66722 200.4487 112.29966 C 203.1838 110.55224 206.67866 107.36128 206.67866 106.6775 Z M 214.27618 108.72883 C 214.27618 107.8931 213.44045 107.5892 211.23717 107.5892 C 208.95792 107.5892 207.59036 108.12103 205.53903 109.94443 C 204.01953 111.31199 202.50003 112.98344 202.04417 113.7432 C 201.3604 115.03477 201.58832 115.18672 203.86758 115.18672 C 205.69098 115.18672 207.28646 114.42697 209.48974 112.52759 C 211.23717 111.08406 212.90863 109.86846 213.2885 109.86846 C 213.5924 109.86846 213.2885 110.24833 212.52875 110.70419 C 210.62937 111.84381 209.3378 115.2627 210.62937 116.02245 C 211.1612 116.32635 211.99692 116.25037 212.52875 115.79452 C 213.06058 115.33867 214.95996 114.19904 216.70739 113.28734 C 221.03797 111.00809 221.2659 109.86846 217.39116 109.86846 C 215.1119 109.86846 214.27618 109.56456 214.27618 108.72883 Z M 145.13876 110.55224 C 146.20241 108.57688 144.45498 108.57688 141.9478 110.55224 C 140.80818 111.46394 139.74452 111.76784 139.06075 111.38796 C 137.6932 110.55224 134.73016 112.52759 133.28663 115.2627 C 132.147 117.61793 131.8431 122.40436 132.90676 121.72059 C 133.28663 121.41669 133.81846 121.72059 134.04638 122.17644 C 134.65419 123.69594 137.54124 119.89718 137.54124 117.54195 C 137.54124 115.11075 138.68087 113.13539 139.36465 114.351 C 139.66855 114.80685 139.5166 115.79452 139.06075 116.63025 C 137.9971 118.6056 138.07307 118.83353 139.66855 119.13743 C 141.26403 119.44133 144.37901 115.94647 144.37901 113.66722 C 144.37901 112.75552 144.75889 111.38796 145.13876 110.55224 Z M 227.19196 112.14771 C 225.5205 111.08406 223.31723 111.23601 220.73407 112.60357 C 217.6191 114.19904 215.7197 116.70623 216.78336 117.84585 C 218.37884 119.51731 220.962 118.45365 227.9517 113.13539 C 228.10366 112.98344 227.79976 112.52759 227.19196 112.14771 Z M 131.15933 118.37768 C 131.8431 115.79452 132.29896 113.43929 132.07103 113.28734 C 131.2353 112.45162 127.05667 116.02245 125.84106 118.6056 C 124.54949 121.26474 124.54949 121.64461 125.68911 123.99984 C 126.29692 125.44337 127.13264 126.583 127.51252 126.583 C 128.5002 126.583 129.7158 123.77192 131.15933 118.37768 Z M 233.64985 114.42697 C 231.0667 113.43929 230.30694 113.51527 227.87574 114.80685 C 225.90038 115.8705 223.3932 119.06146 223.3932 120.50498 C 223.3932 121.94851 227.7238 121.26474 230.53487 119.36536 L 233.26998 117.46598 L 232.20632 119.59328 C 230.61084 122.70827 231.0667 124.7596 233.34595 124.4557 C 235.54923 124.1518 239.27202 121.87254 241.1714 119.82121 C 242.46297 118.37768 242.46297 118.3017 240.94347 117.54195 C 240.10774 117.0861 238.3603 116.70623 237.06873 116.70623 C 235.70118 116.70623 234.86545 116.40232 235.16936 115.94647 C 235.39728 115.49062 234.7135 114.80685 233.64985 114.42697 Z M 125.00534 118.14975 C 125.23326 117.39 125.15729 116.63025 124.77741 116.40232 C 123.48583 115.64257 120.14293 118.98548 119.23122 122.10046 C 118.6994 123.69594 118.01562 125.0635 117.55977 125.0635 C 116.87599 125.0635 117.02794 123.77192 118.16757 121.03681 C 119.0033 118.98548 116.49612 119.44133 114.44479 121.64461 C 111.9376 124.30374 111.25383 128.55835 112.92528 130.45773 C 114.59674 132.35711 114.82466 132.28114 116.64807 129.622 C 118.01562 127.57068 118.24355 127.4947 119.76305 128.48238 C 122.0423 129.9259 122.95401 128.78628 123.86571 123.46802 C 124.16961 121.18876 124.70144 118.83353 125.00534 118.14975 Z M 248.92086 121.64461 C 246.56563 119.82121 243.45065 120.27706 240.71554 122.70827 C 238.28434 124.91155 238.20836 124.98752 239.72787 126.12715 C 241.55127 127.4947 243.45065 127.03885 246.41368 124.60764 C 247.6293 123.61997 248.99684 122.78424 249.4527 122.78424 C 249.98452 122.78424 249.68062 122.25241 248.92086 121.64461 Z M 111.0259 127.7986 C 111.40578 123.24009 110.49408 122.70827 107.60702 125.74727 C 104.79594 128.7103 104.34009 132.88894 106.61934 135.01625 L 108.21482 136.53575 L 109.5064 134.02857 C 110.19018 132.66101 110.87395 129.84993 111.0259 127.7986 Z M 255.75863 124.7596 C 252.87157 123.39204 251.8839 123.31607 249.52866 124.30374 C 248.00916 124.91155 246.79356 126.81093 247.17343 127.7986 C 247.2494 128.02653 246.48966 128.7103 245.426 129.24213 L 243.52663 130.30578 L 245.95783 130.38176 C 247.2494 130.38176 249.90854 129.69798 251.8839 128.86226 C 253.85925 128.02653 256.06253 127.34275 256.89826 127.34275 C 259.1775 127.34275 258.6457 126.12715 255.75863 124.7596 Z M 104.41606 133.34479 C 104.49204 129.16616 104.18814 127.34275 103.58034 127.34275 C 102.66863 127.34275 99.55365 130.91359 99.55365 131.90126 C 99.55365 132.28114 98.94585 132.35711 98.11012 132.12919 C 96.51464 131.74931 93.47564 135.09222 93.47564 137.2955 C 93.47564 138.13123 93.17174 138.73903 92.79186 138.73903 C 92.41198 138.73903 92.26003 138.13123 92.48796 137.2955 C 93.09576 134.94027 91.42431 134.78832 89.37298 136.9916 C 87.70152 138.815 87.39762 139.87866 87.32165 144.0573 C 87.24567 148.3119 87.1697 148.69178 86.56189 146.71642 C 86.18202 145.42485 86.03007 143.52547 86.18202 142.30986 C 86.86579 138.96695 84.58654 139.87866 82.53521 143.82937 C 81.16766 146.56447 80.93973 151.047 82.07936 153.25029 C 82.91509 154.7698 86.56189 155.30162 86.71384 153.93407 C 86.78982 153.47821 86.94177 152.79444 87.01775 152.41456 C 87.09372 151.95871 87.24567 151.27493 87.32165 150.89506 C 87.32165 150.4392 88.23335 150.1353 89.297 150.1353 C 90.74053 150.1353 91.27236 149.60348 91.88016 147.24825 C 92.33601 145.72875 92.71588 143.37352 92.71588 142.15791 C 92.79186 140.10658 92.86783 140.0306 93.62759 141.39816 C 94.53929 143.06961 96.43867 144.81704 97.42635 144.81704 C 97.73025 144.81704 98.03415 143.82937 98.03415 142.61376 C 98.03415 140.3345 99.62963 138.5111 100.16145 140.10658 C 100.54133 141.24621 103.12448 141.32219 103.73229 140.18256 C 104.03619 139.7267 104.34009 136.6877 104.41606 133.34479 Z M 261.9886 129.0142 C 260.62104 127.64665 256.06253 127.95055 252.87157 129.622 C 249.4527 131.44541 248.61696 132.66101 250.6683 132.66101 C 251.58 132.66101 252.26377 132.96492 252.26377 133.42077 C 252.26377 134.48442 256.67033 133.42077 260.01324 131.52139 C 262.21652 130.30578 262.67237 129.69798 261.9886 129.0142 Z M 267.07893 134.5604 C 267.07893 132.43309 262.21652 132.35711 257.0502 134.33247 C 252.64365 136.00392 252.56767 136.6877 256.36643 137.97928 C 259.8613 139.1189 267.07893 136.83965 267.07893 134.5604 Z M 272.01732 138.73903 C 272.85305 138.2072 271.86537 138.05525 268.59844 138.05525 C 262.44445 138.13123 257.58203 140.71438 261.0769 142.08194 C 264.1159 143.22156 273.9167 141.47414 271.86537 140.10658 C 271.10562 139.65073 271.10562 139.34683 272.01732 138.73903 Z M 277.18363 143.75339 C 274.44853 142.91766 272.0933 142.84169 269.20624 143.60144 C 265.10358 144.6651 264.64773 145.19692 266.851 146.56447 C 270.42184 148.9197 278.09533 148.15995 278.09533 145.50082 C 278.09533 144.6651 277.63948 143.90534 277.18363 143.75339 Z M 80.33193 151.42688 C 79.87608 149.07165 79.04035 147.0963 78.5845 147.0963 C 78.05267 147.0963 77.065 148.6158 76.22927 150.51518 C 75.24159 152.94639 74.557815 153.78212 73.64611 153.55419 C 72.810386 153.25029 72.05063 154.08602 71.06296 156.21332 C 70.303205 157.88478 69.23955 159.25233 68.707726 159.25233 C 67.34017 159.25233 66.42847 161.1517 65.74469 165.1784 C 65.28884 167.98948 65.06092 168.29338 64.301165 167.15375 C 63.46544 166.01412 63.16154 166.24205 62.02191 168.74923 C 59.5907 173.83956 62.249835 182.12086 65.97262 180.98123 C 67.41615 180.52538 67.5681 179.99355 67.2642 177.03052 C 67.11225 175.20712 66.58042 173.00384 66.12457 172.24409 C 65.74469 171.40836 65.36482 170.26873 65.36482 169.7369 C 65.44079 169.20508 66.12457 170.0408 66.88432 171.5603 C 68.4798 174.44737 69.92333 175.8909 69.92333 174.52334 C 69.92333 174.0675 70.455155 173.68761 71.06296 173.68761 C 72.658435 173.68761 72.58246 168.90118 70.98698 166.46997 C 70.303205 165.4823 69.92333 164.19072 70.07528 163.65889 C 70.303205 163.12706 71.06296 163.81084 71.82271 165.1784 C 73.57014 168.14143 75.01367 168.29338 76.00134 165.63424 C 76.98902 163.05109 76.98902 162.06341 75.84939 162.74719 C 75.24159 163.12706 75.16562 162.89914 75.46952 161.98744 C 75.77342 161.22768 76.00134 160.24 76.00134 159.78416 C 76.00134 159.17635 76.30524 159.25233 76.91305 159.86013 C 78.35657 161.30366 79.04035 160.92378 80.104 158.26465 C 80.93973 156.36527 80.93973 154.84577 80.33193 151.42688 Z M 284.47725 150.1353 C 283.64152 149.29958 279.083 148.84373 274.90438 149.2236 C 271.1816 149.5275 271.10562 151.35091 274.67645 152.87041 C 276.80376 153.70614 278.01936 153.78212 280.45057 153.17431 C 282.12202 152.71846 283.26165 152.03469 283.03372 151.65481 C 282.72982 151.19896 283.18567 150.89506 283.86945 150.89506 C 284.78115 150.89506 285.00908 150.66713 284.47725 150.1353 Z M 288.20003 156.21332 C 287.44028 154.31394 286.98443 153.93407 284.78115 154.01004 C 282.72982 154.08602 278.62716 155.14967 277.41156 155.9854 C 277.2596 156.06137 277.5635 156.66917 278.09533 157.35295 C 278.70314 158.03673 280.3746 158.49258 282.57787 158.56855 C 285.99675 158.64453 286.07273 158.64453 283.64152 159.3283 C 280.52654 160.24 280.52654 160.99976 283.33762 162.97511 C 285.08505 164.2667 286.37663 164.49462 290.1754 164.2667 C 292.75855 164.11474 295.11378 163.81084 295.3417 163.58291 C 296.02548 162.82316 292.98647 159.48025 291.92282 159.86013 C 291.46697 160.01208 291.0111 159.78416 291.0111 159.3283 C 291.0111 158.87245 290.55526 158.49258 290.02344 158.49258 C 289.4916 158.49258 288.6559 157.42892 288.20003 156.21332 Z M 296.93718 166.01412 C 295.18975 165.02644 286.4526 165.55827 286.4526 166.54595 C 286.4526 168.29338 290.1754 169.88885 294.27805 169.88885 C 297.92486 169.88885 298.3807 169.7369 298.22876 168.29338 C 298.1528 167.38167 297.62096 166.394 296.93718 166.01412 Z M 299.0645 172.16811 C 296.5573 171.2564 290.25136 171.18043 290.25136 172.01616 C 290.25136 173.45969 293.8222 175.8909 296.78523 176.57467 C 300.508 177.4104 302.4074 176.65065 301.03984 174.9792 C 300.508 174.44737 300.35606 173.68761 300.584 173.45969 C 300.8879 173.15579 300.2041 172.62396 299.0645 172.16811 Z M 60.046555 176.57467 C 60.046555 173.99151 59.05888 173.83956 57.4634 176.11882 C 55.791944 178.55003 55.86792 185.46377 57.61535 187.66705 C 58.679 189.0346 59.36278 189.26253 60.654356 188.80668 C 62.02191 188.27485 62.32581 187.59107 62.32581 184.93194 C 62.32581 183.10854 61.793984 180.98123 61.18618 180.22148 C 60.57838 179.38575 60.046555 177.79027 60.046555 176.57467 Z M 304.2308 179.99355 C 302.17947 178.70198 294.05012 177.7143 294.05012 178.77795 C 294.05012 180.7533 300.508 184.24816 304.45872 184.32414 C 306.662 184.32414 306.51005 181.51306 304.2308 179.99355 Z M 55.488044 185.0839 C 55.488044 183.56439 55.10817 182.80464 54.348416 182.80464 C 52.75294 182.80464 52.06916 184.70402 52.06916 189.26253 C 52.06916 192.22556 52.600987 193.82104 54.27244 196.32822 C 56.01987 198.8354 56.703646 199.36723 57.4634 198.68345 C 58.9829 197.46785 58.754976 193.82104 57.00755 190.40215 C 56.17182 188.7307 55.488044 186.37547 55.488044 185.0839 Z M 304.38275 185.91962 C 301.87557 185.46377 299.5963 185.0839 299.21644 185.0839 C 297.92486 185.0839 298.6846 186.52742 301.03984 188.50278 C 302.93922 190.09825 304.07885 190.47813 306.3581 190.2502 C 307.9536 190.09825 309.24516 190.2502 309.24516 190.5541 C 309.24516 190.93398 307.5737 191.1619 305.4464 191.1619 C 303.39507 191.1619 301.64764 191.4658 301.64764 191.7697 C 301.64764 193.06129 304.5347 194.96067 308.1815 196.1003 C 313.27184 197.6198 313.80367 197.46785 311.14454 195.34054 C 308.7893 193.36519 309.62504 192.75739 312.5121 194.2769 L 314.18355 195.1886 L 312.5121 193.28921 C 311.5244 192.30153 310.76466 190.70606 310.76466 189.87033 C 310.76466 187.66705 309.4731 186.83132 304.38275 185.91962 Z M 53.05684 197.3159 C 51.76526 194.80872 50.397706 192.6814 50.01783 192.6814 C 48.650277 192.6814 47.81455 196.63212 48.650277 199.06333 C 49.789905 202.63416 54.044515 207.49657 54.80427 206.205 C 55.943895 204.3816 55.488044 202.10233 53.05684 197.3159 Z M 311.75234 198.5315 C 308.33346 196.78407 303.9269 196.17627 303.9269 197.46785 C 303.9269 198.98735 306.3581 200.9627 309.0932 201.72246 C 310.9166 202.25428 311.67637 202.10233 312.66404 201.03868 C 313.87965 199.67113 313.80367 199.59515 311.75234 198.5315 Z M 50.549657 205.67317 C 49.10613 202.71013 47.738575 200.27893 47.51065 200.27893 C 46.52297 200.27893 45.535294 203.84976 45.76322 206.96474 C 45.91517 209.8518 46.295046 210.68753 47.890525 211.44728 C 48.95418 211.9791 50.397706 213.04276 51.08148 213.95446 C 52.297086 215.47397 52.297086 215.47397 52.82891 213.27069 C 53.20879 211.59923 52.600987 209.77583 50.549657 205.67317 Z M 310.0809 203.54586 C 305.37043 202.33026 305.37043 202.33026 306.3581 204.53354 C 307.42176 206.8128 310.23284 208.40827 314.48745 209.09205 C 316.61475 209.39595 317.60243 209.31998 317.60243 208.71217 C 317.60243 208.25632 317.0706 207.87645 316.38683 207.87645 C 315.77903 207.87645 315.39915 207.57255 315.62708 207.19267 C 316.31085 206.12902 313.87965 204.53354 310.0809 203.54586 Z M 316.23488 210.99143 C 313.7277 209.62388 307.8776 207.95242 307.42176 208.48425 C 306.662 209.244 306.9659 209.92778 308.94126 211.9791 C 310.53674 213.4986 310.6887 213.95446 309.701 213.95446 C 308.2575 213.95446 308.1815 214.33434 309.24516 216.23372 C 310.0809 217.75322 317.9823 220.64028 318.894 219.72858 C 319.8817 218.81687 317.90633 216.6136 315.2472 215.7019 L 312.66404 214.7902 L 314.86732 214.7902 C 316.38683 214.71421 316.91865 214.41031 316.61475 213.65056 C 316.38683 213.04276 316.53878 212.43496 317.0706 212.20703 C 317.60243 212.05508 317.22255 211.52326 316.23488 210.99143 Z M 49.71393 217.2214 C 46.598947 213.04276 44.31969 210.91545 43.86384 211.44728 C 43.55994 211.6752 43.332014 213.8025 43.332014 216.0058 C 43.332014 219.3487 43.71189 220.41235 45.231394 221.93186 C 47.20675 223.98319 48.650277 224.36306 48.650277 222.9955 C 48.650277 222.3877 48.95418 222.31173 49.637954 222.9955 C 52.297086 225.12281 52.37306 220.64028 49.71393 217.2214 Z M 317.45048 221.7799 C 316.4628 220.8682 314.18355 219.9565 312.4361 219.6526 C 309.1692 219.12077 309.1692 219.19675 310.0049 220.71625 C 310.46076 221.62796 312.1322 222.91953 313.65172 223.6033 C 315.17122 224.2111 317.0706 225.04684 317.83036 225.42671 C 319.8057 226.49037 319.5018 223.67929 317.45048 221.7799 Z M 45.45932 224.2871 C 44.243716 222.76758 42.72421 221.55198 42.11641 221.55198 C 40.596907 221.55198 40.74886 226.49037 42.344337 229.1495 C 43.55994 231.2768 48.194426 234.3918 48.95418 233.63203 C 49.789905 232.7963 47.586624 226.87024 45.45932 224.2871 Z M 315.32317 225.73062 C 313.27184 224.66696 311.37247 223.83124 311.14454 223.83124 C 310.3088 223.83124 310.84064 226.49037 311.98027 227.78195 C 313.04392 228.8456 313.04392 229.30145 312.28417 230.28913 C 310.76466 232.11253 313.1199 234.9996 316.61475 235.68336 C 318.21023 235.98727 319.65376 236.06324 319.8817 235.9113 C 320.56546 235.37946 319.72974 233.32813 318.13426 231.50473 L 316.4628 229.7573 L 318.2862 230.28913 C 319.8057 230.74498 320.03364 230.59303 319.65376 229.52937 C 319.34986 228.8456 319.12193 228.16182 319.12193 227.9339 C 319.12193 227.78195 317.45048 226.79427 315.32317 225.73062 Z M 44.77554 234.08789 C 43.028113 232.1885 41.280684 230.669 40.824833 230.669 C 40.36898 230.669 40.293007 232.1885 40.596907 234.77166 C 40.90081 237.50677 40.74886 239.10225 40.21703 239.48212 C 39.15338 240.08993 39.837155 245.94 41.20471 248.1433 C 42.648237 250.42255 48.650277 253.76546 49.56198 252.85376 C 51.15746 251.25828 49.334054 247.5355 45.15542 243.96466 C 40.90081 240.31785 39.76118 238.26652 42.80019 239.862 C 43.71189 240.31785 45.383344 241.60943 46.446997 242.5971 C 47.890525 243.88868 48.650277 244.19259 49.03015 243.58478 C 49.334054 243.12893 49.182103 242.2932 48.72625 241.83735 C 48.2704 241.3815 47.890525 240.24188 47.890525 239.2542 C 47.890525 238.19055 46.52297 235.98727 44.77554 234.08789 Z M 317.83036 237.65872 C 313.4238 235.98727 312.28417 235.83532 312.28417 237.05092 C 312.28417 238.3425 317.45048 242.82503 318.894 242.82503 C 319.5018 242.82503 319.8817 241.91333 319.8817 240.62175 C 319.8817 238.9503 319.42583 238.26652 317.83036 237.65872 Z M 317.3745 244.57246 C 315.47513 242.74906 313.49977 241.30553 313.1199 241.30553 C 311.2965 241.30553 312.5121 243.88868 316.08293 247.68744 C 320.64144 252.47388 321.0213 253.68948 316.91865 250.49853 C 313.49977 247.76342 312.28417 247.5355 312.28417 249.6628 C 312.28417 251.71413 314.3355 255.7408 315.39915 255.7408 C 315.77903 255.7408 316.91865 256.57654 317.90633 257.6402 L 319.72974 259.53957 L 320.26156 253.68948 L 320.7934 247.8394 L 317.3745 244.57246 Z M 44.85152 253.0057 C 43.10409 252.01803 41.50861 251.1823 41.35666 251.1823 C 41.20471 251.1823 41.05276 252.32193 41.05276 253.68948 C 41.05276 256.50057 42.344337 258.02007 46.21907 259.53957 C 51.689284 261.66688 50.549657 256.19666 44.85152 253.0057 Z M 315.09525 257.41227 C 311.8283 255.28496 311.5244 255.36094 311.5244 257.56422 C 311.5244 259.99542 318.43816 266.8332 319.34986 265.2377 C 320.33754 263.49028 317.9823 259.1597 315.09525 257.41227 Z M 45.61127 260.83115 C 43.71189 259.91945 41.96446 259.08372 41.66056 258.93177 C 40.672883 258.47592 40.976783 261.81883 42.192386 264.09808 C 43.40799 266.37734 46.06712 268.6566 47.6626 268.6566 C 48.11845 268.6566 49.03015 268.12477 49.71393 267.51697 C 51.537334 265.6176 49.71393 262.65456 45.61127 260.83115 Z M 314.3355 263.87016 C 313.04392 262.73053 311.67637 261.81883 311.37247 261.81883 C 310.15686 261.81883 310.84064 264.85784 312.4361 266.37734 C 313.34782 267.21307 313.87965 268.12477 313.57575 268.3527 C 313.27184 268.6566 312.4361 268.3527 311.67637 267.66892 C 309.92894 266.07344 309.24516 266.68124 309.24516 269.79622 C 309.24516 271.23975 309.85296 272.75925 310.76466 273.59498 C 312.96794 275.57034 312.66404 276.558 310.3088 275.0385 C 308.63736 273.89888 308.2575 273.89888 307.64968 274.8106 C 307.2698 275.4184 307.11785 276.78594 307.2698 277.92557 C 307.49773 279.14117 307.34578 280.05287 306.9659 280.05287 C 306.51005 280.05287 305.82628 280.8886 305.37043 281.87628 C 304.68665 283.24383 304.8386 284.15553 305.7503 286.0549 C 306.88993 288.18222 306.28213 289.54977 305.06652 287.6504 C 304.15482 286.20686 303.16715 286.89064 303.16715 289.01794 C 303.16715 290.30952 304.30677 292.43683 306.20615 294.79206 C 307.8776 296.7674 309.24516 298.81874 309.24516 299.35057 C 309.32114 300.7941 311.5244 297.3752 311.5244 295.8557 C 311.5244 295.09596 310.9926 293.57646 310.3088 292.58878 C 309.32114 291.06927 309.24516 290.6894 310.0809 290.6894 C 313.1199 290.61342 313.19587 289.39782 310.76466 284.99126 C 308.4854 280.8886 308.71333 280.35677 311.6004 282.78798 C 312.58807 283.69968 312.96794 283.6237 314.25952 282.63603 C 315.2472 281.8003 315.39915 281.34445 314.79135 281.11653 C 314.25952 280.8886 313.80367 279.9769 313.80367 279.14117 C 313.80367 277.8496 314.0316 277.77362 314.9433 278.53337 C 315.855 279.29312 316.08293 279.0652 316.53878 277.4697 C 316.7667 276.40606 316.61475 274.4307 316.1589 273.13913 C 315.09525 270.10012 315.09525 270.10012 316.53878 270.70792 C 318.74206 271.54365 317.0706 266.2254 314.3355 263.87016 Z M 47.738575 270.48 C 45.535294 269.2644 43.40799 268.12477 43.028113 267.97282 C 41.888485 267.51697 43.180064 272.68328 44.699567 274.65863 C 45.91517 276.3301 52.06916 279.14117 52.82891 278.38142 C 53.05684 278.22947 52.82891 276.8619 52.449036 275.4184 C 51.841235 273.2151 50.85356 272.22743 47.738575 270.48 Z M 50.85356 279.90092 C 44.395667 276.70996 42.72421 277.39374 45.61127 282.18018 C 47.20675 284.68736 49.41003 285.97894 53.892565 286.6627 C 56.32377 287.11856 56.399746 287.0426 55.41207 285.29516 C 54.95622 284.30748 54.27244 282.93993 53.96854 282.33213 C 53.740614 281.72433 52.297086 280.5847 50.85356 279.90092 Z M 49.41003 286.51076 C 45.079443 284.00358 44.47164 285.5231 48.194426 289.4738 C 50.397706 291.82903 51.233433 292.2089 54.196465 292.2089 C 56.095845 292.2089 57.91925 291.82903 58.22315 291.2972 C 58.9829 290.0816 55.71597 287.6504 53.28476 287.6504 C 52.22111 287.5744 50.47368 287.11856 49.41003 286.51076 Z M 56.399746 293.95633 C 54.88024 293.4245 52.449036 292.96865 51.08148 292.96865 C 48.95418 292.96865 48.72625 293.1206 49.334054 294.3362 C 50.92953 297.29924 53.20879 298.5908 57.7673 298.89472 C 60.42643 299.12264 62.32581 298.89472 62.32581 298.51484 C 62.32581 297.29924 59.36278 295.02 56.399746 293.95633 Z M 304.76262 294.6401 C 303.54702 293.7284 302.33142 292.96865 302.1035 292.96865 C 301.1158 292.96865 300.8119 294.86803 301.26777 297.3752 C 301.7236 299.65447 301.57167 299.95837 300.65996 299.19862 C 299.82424 298.43887 299.44436 298.51484 298.83656 299.19862 C 297.1651 301.32592 297.1651 302.0097 298.6846 303.90908 C 299.52034 304.97273 299.9002 305.88444 299.44436 305.88444 C 299.0645 305.88444 298.4567 305.50456 298.22876 305.1247 C 298.00083 304.66883 297.24108 304.36493 296.63328 304.36493 C 295.18975 304.36493 295.18975 309.22734 296.70925 310.44295 C 297.31706 310.97477 297.8489 311.73452 297.8489 312.19038 C 297.8489 312.64623 296.8612 312.1144 295.72158 310.97477 C 291.6189 307.02406 290.7072 312.64623 294.65792 317.8885 C 296.70925 320.54765 297.54498 320.3957 298.00083 317.2807 C 298.1528 315.8372 298.60863 315.4573 299.82424 315.60926 C 301.1918 315.7612 301.4957 315.30536 301.95154 312.79818 C 302.17947 311.12672 302.17947 309.15137 301.87557 308.3916 C 301.4197 307.176 301.4957 307.176 302.63532 308.01174 C 303.3191 308.61954 304.2308 308.84747 304.61067 308.54357 C 305.4464 308.0877 305.29445 304.4409 304.38275 302.9214 C 304.07885 302.46555 304.2308 302.08568 304.68665 302.08568 C 305.1425 302.08568 305.67433 302.6175 305.90225 303.2253 C 306.51005 304.7448 307.49773 304.66883 308.4854 302.9214 C 309.54906 300.87007 307.72566 296.8434 304.76262 294.6401 Z M 59.5907 300.33825 C 57.91925 300.11032 55.488044 299.65447 54.196465 299.42654 C 52.52501 299.04667 51.689284 299.12264 51.689284 299.73045 C 51.689284 301.7058 56.62767 305.9604 59.5907 306.41626 C 61.71801 306.72016 62.401785 306.6442 62.02191 306.0364 C 61.64203 305.4286 62.02191 305.1247 63.00959 305.1247 C 63.92129 305.1247 64.605066 304.7448 64.605066 304.36493 C 64.605066 303.90908 64.301165 303.60518 63.92129 303.60518 C 63.54141 303.60518 63.08556 302.99738 62.85764 302.16165 C 62.62971 301.24995 61.56606 300.64215 59.5907 300.33825 Z M 67.03627 309.15137 C 65.97262 307.8598 64.757016 307.4799 60.654356 307.252 C 57.7673 307.10004 55.488044 307.176 55.488044 307.40394 C 55.488044 308.3916 59.51473 311.96245 61.03423 312.34233 C 61.945934 312.57025 63.997264 312.34233 65.51677 311.8105 C 68.251875 310.82282 68.251875 310.74685 67.03627 309.15137 Z M 69.61943 313.6339 C 68.4798 312.7222 66.352495 312.64623 62.17386 313.25403 C 59.66668 313.6339 59.66668 313.70988 61.33813 316.52096 C 63.16154 319.63594 65.59274 320.54765 69.3915 319.408 C 74.48184 317.9645 74.48184 317.6606 69.61943 313.6339 Z M 293.97415 320.6996 C 293.97415 317.73656 291.0111 313.78585 289.64356 315.1534 C 288.0481 316.7489 288.5799 320.62362 290.63124 322.59898 C 291.6949 323.58665 292.53062 324.9542 292.6066 325.562 C 292.75855 327.4614 293.89817 323.20678 293.97415 320.6996 Z M 288.73186 321.83922 C 286.98443 318.34437 286.7565 318.2684 285.69285 320.24375 C 284.47725 322.523 284.78115 325.3341 286.52858 329.05687 L 288.20003 332.55173 L 289.1877 330.5004 C 290.63124 327.7653 290.4793 325.3341 288.73186 321.83922 Z M 79.57218 322.29508 C 78.2806 320.47167 71.29088 320.01582 67.03627 321.45935 C 65.44079 322.06715 67.34017 324.7263 70.303205 325.9419 C 72.506485 326.8536 73.34221 326.8536 76.68512 325.8659 C 80.863755 324.6503 81.09168 324.3464 79.57218 322.29508 Z M 284.70518 327.00554 C 283.26165 322.97885 282.95775 322.90288 281.36227 326.01786 C 280.52654 327.53736 279.53886 328.677 279.159 328.52504 C 278.7791 328.44907 277.9434 329.36077 277.33558 330.72832 C 276.72778 332.09587 275.51218 333.2355 274.67645 333.38745 C 273.6128 333.5394 272.92902 334.60305 272.24525 337.03426 C 271.7894 338.93364 271.33354 339.6934 271.33354 338.7817 C 271.25757 336.12256 269.966 336.0466 268.1426 338.55376 C 267.1549 339.76937 266.01528 340.833 265.48345 340.833 C 263.812 340.833 262.14055 344.02398 262.14055 347.13896 C 262.14055 348.96236 261.83664 349.87407 261.30482 349.57017 C 260.92494 349.26627 260.62104 348.2026 260.773 347.063 C 261.0769 344.40385 259.4814 344.09995 257.88594 346.60713 C 256.29046 348.96236 256.21448 354.43258 257.734 355.3443 C 258.2658 355.72416 259.2535 355.42026 260.01324 354.7365 C 261.00092 353.82478 261.3808 353.82478 261.3808 354.50855 C 261.3808 355.2683 261.60872 355.2683 262.5964 354.50855 C 263.2042 353.90075 263.66005 352.60917 263.5081 351.54552 C 263.35615 350.4059 263.66005 349.64614 264.19188 349.7221 C 264.64773 349.7981 265.25553 349.03834 265.55943 347.8987 L 266.01528 345.92336 L 267.53478 347.5948 C 268.7504 348.8864 269.3582 349.1143 270.1939 348.35456 C 270.80172 347.8987 271.25757 346.987 271.25757 346.4552 C 271.25757 345.8474 271.63744 345.39153 272.01732 345.39153 C 272.47317 345.39153 272.77707 345.7714 272.77707 346.30323 C 272.77707 347.51884 275.89205 344.5558 276.6518 342.58045 C 277.03168 341.44082 277.71546 340.98497 278.4752 341.28887 C 279.61484 341.74472 283.4136 338.32584 285.00908 335.4388 C 285.99675 333.61538 285.8448 330.34844 284.70518 327.00554 Z M 82.83911 327.53736 C 81.62351 326.92956 80.55985 326.39774 80.4079 326.4737 C 76.761095 327.4614 72.12661 328.3731 71.82271 328.0692 C 71.59478 327.84126 71.44283 328.22114 71.44283 328.9049 C 71.44283 331.26015 74.86172 332.70368 79.04035 332.17185 C 81.16766 331.86795 83.37094 331.48807 83.97874 331.26015 C 85.80214 330.5004 85.27032 328.82894 82.83911 327.53736 Z M 87.39762 333.2355 C 83.82679 331.4121 84.51056 331.48807 81.69948 332.9316 C 78.812425 334.37513 77.6728 335.51476 78.96438 335.51476 C 79.4962 335.51476 79.72413 335.81866 79.4962 336.19853 C 79.26828 336.50243 79.72413 337.41414 80.48388 338.0979 C 81.85143 339.3135 82.07936 339.3135 85.04239 337.87 C 86.71384 336.9583 88.61322 336.2745 89.297 336.2745 C 91.34833 336.2745 90.5126 334.831 87.39762 333.2355 Z M 94.53929 339.23754 C 92.71588 337.1862 87.32165 337.2622 85.49824 339.3135 C 84.73849 340.14924 84.51056 340.833 84.96642 340.833 C 85.49824 340.833 85.80214 341.28887 85.72617 341.74472 C 85.42227 343.26423 88.84115 343.3402 92.48796 341.97265 C 95.67892 340.75704 95.83087 340.6051 94.53929 339.23754 Z M 99.0978 342.80837 C 95.67892 341.5168 88.91712 343.948 88.3853 346.7591 C 88.00542 348.5065 92.71588 348.12664 97.12244 345.99933 C 100.54133 344.40385 101.07315 343.56813 99.0978 342.80837 Z M 104.87191 346.91103 C 104.26411 346.4552 102.36473 346.1513 100.6173 346.1513 C 98.1861 346.1513 97.12244 346.60713 95.37502 348.43054 C 94.15941 349.64614 93.62759 350.7098 94.15941 350.7098 C 94.69124 350.7098 94.84319 351.0137 94.61526 351.46955 C 94.38734 351.84942 95.07111 352.38125 96.13477 352.68515 C 97.73025 353.06502 98.64195 352.68515 100.54133 350.9377 C 101.90888 349.64614 103.65631 348.43054 104.49204 348.12664 C 105.70764 347.6708 105.78362 347.44286 104.87191 346.91103 Z M 255.30278 351.2416 C 255.30278 348.8104 253.47937 348.43054 252.11182 350.7098 C 251.58 351.54552 250.44037 352.2293 249.52866 352.2293 C 246.71758 352.2293 244.66625 355.2683 244.66625 359.67487 C 244.66625 363.09375 244.89418 363.62558 246.10978 363.62558 C 247.70526 363.62558 248.08514 362.78985 248.8449 357.1677 C 249.30074 354.20465 249.52866 353.67283 250.13647 354.7365 C 250.51634 355.49623 250.6683 357.4716 250.3644 359.14304 C 250.0605 360.8145 250.13647 362.10607 250.59232 362.10607 C 252.64365 362.10607 255.30278 356.02806 255.30278 351.2416 Z M 110.19018 350.55784 C 110.19018 350.25394 108.67067 349.95004 106.84727 349.95004 C 104.18814 349.95004 103.20046 350.3299 102.28876 351.6215 C 99.47768 355.6482 102.06083 356.4839 107.0752 353.21698 C 108.82262 352.07735 110.19018 350.9377 110.19018 350.55784 Z M 114.06491 353.06502 C 113.22918 352.60917 111.9376 352.2293 111.17785 352.2293 C 109.5064 352.2293 103.80826 357.7755 104.56801 358.53524 C 105.47971 359.37097 107.83495 359.14304 110.19018 357.92744 C 113.15321 356.40793 113.15321 357.4716 110.19018 359.44694 C 108.97457 360.28267 107.91092 361.19437 107.91092 361.4223 C 107.91092 361.87815 111.70968 362.86582 113.53308 362.86582 C 114.67271 362.86582 121.1306 356.8638 120.59878 356.33196 C 120.37085 356.10403 119.0033 355.8761 117.4838 355.8761 C 115.58441 355.8761 114.97661 355.5722 115.20454 354.88843 C 115.43246 354.28063 114.90064 353.52088 114.06491 353.06502 Z M 243.14675 358.3833 C 243.14675 354.6605 242.387 354.50855 239.80384 357.54756 C 237.29666 360.58657 234.63753 369.7036 236.30898 369.7036 C 239.57592 369.7036 243.14675 363.77753 243.14675 358.3833 Z M 257.58203 357.62354 C 257.58203 357.1677 257.27813 356.63586 256.82228 356.40793 C 256.4424 356.18 256.06253 356.4839 256.06253 357.0917 C 256.06253 357.7755 256.4424 358.3073 256.82228 358.3073 C 257.27813 358.3073 257.58203 358.0034 257.58203 357.62354 Z M 125.84106 359.14304 L 125.84106 359.14304 C 124.70144 357.31964 121.20658 358.3073 117.93965 361.27034 L 114.67271 364.23338 L 116.34417 365.449 C 117.7877 366.43666 118.31952 366.43666 119.99098 365.52496 C 122.80206 364.08143 126.37289 360.1307 125.84106 359.14304 Z M 235.24533 363.16972 C 235.9291 360.8145 236.30898 358.76316 236.15703 358.6872 C 236.00508 358.53524 234.78948 359.37097 233.42193 360.4346 C 231.52255 362.0301 230.68682 363.5496 229.8511 367.04446 C 228.71146 371.90687 228.78744 372.3627 230.53487 371.7549 C 232.2823 371.07114 234.02973 367.8802 235.24533 363.16972 Z M 130.85543 361.4223 C 130.0197 360.96644 129.18397 360.58657 129.03202 360.66254 C 126.14497 361.19437 121.58645 366.20873 123.33388 366.8925 C 124.01766 367.1964 124.01766 367.34836 123.33388 367.34836 C 122.80206 367.42433 122.3462 367.8042 122.3462 368.26006 C 122.3462 368.7919 123.02998 368.94384 124.16961 368.63994 C 125.30924 368.33604 126.29692 368.63994 126.90472 369.3237 C 127.43654 369.9315 128.65215 370.46334 129.7158 370.46334 C 131.91908 370.46334 137.9971 364.99313 137.23734 363.77753 C 136.17369 362.0301 133.59053 362.86582 131.00738 365.6769 C 129.56385 367.1964 128.42422 368.26006 128.42422 367.95616 C 128.42422 367.1964 130.85543 363.39765 131.76713 362.78985 C 132.147 362.48595 131.69115 361.87815 130.85543 361.4223 Z M 229.01537 364.53728 C 229.39524 362.334 229.2433 362.10607 227.57184 362.10607 C 225.59648 362.10607 222.86138 364.99313 222.1776 367.95616 C 221.64577 369.9315 222.93735 373.50235 224.07698 373.50235 C 225.14063 373.50235 228.40756 367.5003 229.01537 364.53728 Z M 221.5698 366.74056 C 221.94967 364.91715 221.79772 364.38533 220.88602 364.38533 C 220.20224 364.38533 219.1386 365.1451 218.45481 366.0568 C 217.46714 367.5003 217.16324 367.65226 216.55543 366.6646 C 215.94763 365.6769 215.56776 365.6769 213.5924 366.8925 C 211.99692 367.8042 211.31315 367.95616 211.08522 367.2724 C 210.70535 366.13276 206.60269 367.65226 204.93123 369.55164 C 203.63965 371.07114 201.81625 376.4654 202.34808 376.9972 C 202.95588 377.605 208.19816 374.03418 208.19816 373.0465 C 208.19816 372.51467 208.88194 371.37504 209.71767 370.38737 L 211.31315 368.56396 L 210.09754 371.07114 C 208.80597 373.73028 209.18584 376.54136 210.8573 376.54136 C 211.38912 376.54136 212.75668 375.40173 213.8963 374.03418 L 215.87166 371.60297 L 215.4158 374.11015 C 214.95996 376.4654 215.03593 376.61733 216.3275 375.93356 C 218.75872 374.566 221.11395 371.98285 221.11395 370.5393 C 221.11395 369.77957 221.34187 368.03214 221.5698 366.74056 Z M 144.60694 366.2847 C 142.32768 363.92948 136.78149 365.6769 134.04638 369.6276 C 132.98273 371.07114 132.98273 371.29907 134.12236 371.67895 C 135.33796 372.1348 138.22502 371.7549 140.96013 370.76724 C 142.47963 370.2354 142.47963 370.2354 141.0361 371.8309 C 139.5166 373.6543 139.5166 374.03418 141.34 374.2621 C 143.54328 374.566 144.30303 374.2621 147.72192 371.1471 C 151.4447 367.72824 151.59665 366.2847 148.02582 366.9685 C 146.50631 367.2724 145.36669 367.04446 144.60694 366.2847 Z M 158.05454 369.3997 C 158.05454 369.17176 156.61101 368.94384 154.86358 368.94384 C 152.20445 368.94384 151.36873 369.3997 148.78557 372.1348 C 147.1901 373.88223 145.89851 375.5537 145.89851 375.93356 C 145.89851 376.92123 149.6213 376.61733 151.82458 375.4777 C 153.79993 374.41405 158.05454 370.3114 158.05454 369.3997 Z M 202.50003 370.6153 C 203.71563 366.3607 197.25774 370.2354 195.35836 374.8699 C 194.14276 377.83294 194.44666 378.2888 197.10579 377.605 C 199.00517 377.14916 201.43637 374.03418 202.50003 370.6153 Z M 165.19621 370.38737 C 164.51243 369.17176 161.5494 369.77957 158.66234 371.67895 C 157.06687 372.66662 155.77529 373.73028 155.77529 373.9582 C 155.77529 374.9459 157.44674 377.3011 158.13052 377.3011 C 159.34612 377.3011 165.65206 371.1471 165.19621 370.38737 Z M 195.66226 370.46334 C 194.97848 369.3237 194.44666 369.47566 191.2557 371.60297 C 189.7362 372.66662 187.53291 374.9459 186.54524 376.54136 C 184.4939 379.7323 184.03806 381.2518 185.55756 379.7323 C 186.08939 379.2005 187.15304 378.8206 187.9128 378.8206 C 188.67254 378.8206 190.41997 377.681 191.78752 376.23746 C 195.5103 372.21077 196.1181 371.2231 195.66226 370.46334 Z M 172.8697 371.2231 C 172.64178 370.76724 171.3502 370.46334 170.1346 370.46334 C 168.38717 370.46334 166.86766 371.451 163.6767 374.64198 C 161.39745 376.92123 159.65002 379.1245 159.95392 379.5044 C 160.56172 380.56804 166.63974 378.5927 169.14692 376.61733 C 171.88203 374.49003 173.4775 372.21077 172.8697 371.2231 Z M 188.06474 371.1471 C 187.45694 370.15944 186.84914 370.2354 183.8861 371.90687 C 182.44258 372.66662 180.16332 374.8699 178.79577 376.7693 C 176.44054 380.1122 176.44054 380.18817 178.03602 380.644 C 179.3276 380.9479 180.61917 380.1122 184.11403 376.4654 C 186.46926 373.9582 188.29267 371.527 188.06474 371.1471 Z M 180.8471 371.67895 C 180.8471 371.451 179.70747 371.2231 178.26394 371.2231 C 176.13664 371.2231 175.14896 371.8309 172.18593 375.32575 C 170.28655 377.605 168.69107 379.65634 168.69107 379.88427 C 168.69107 380.72 171.80605 380.3401 173.93336 379.2005 C 175.90871 378.2128 180.8471 372.81857 180.8471 371.67895 Z M 293.13842 162.82316 L 293.13842 162.82316 C 292.53062 162.59524 292.75855 162.36731 293.59427 162.36731 C 294.43 162.29134 294.88585 162.51926 294.58195 162.74719 C 294.35402 162.97511 293.67025 163.05109 293.13842 162.82316 Z M 52.600987 203.46989 L 52.600987 203.46989 C 52.145135 202.10233 53.740614 202.40623 54.27244 203.77379 C 54.57634 204.53354 54.348416 204.83744 53.81659 204.6855 C 53.36074 204.53354 52.75294 203.92574 52.600987 203.46989 Z M 68.7837 316.59694 L 68.7837 316.59694 C 69.3915 315.5333 71.44283 315.5333 71.44283 316.52096 C 71.44283 317.43266 69.31553 318.42034 68.707726 317.81254 C 68.4798 317.5846 68.4798 317.0528 68.7837 316.59694 Z M 279.6908 329.96857 L 279.6908 329.96857 C 279.6908 329.43674 280.22264 330.1965 280.83044 331.64002 C 281.43824 333.00758 281.81812 334.37513 281.5902 334.60305 C 281.13434 335.0589 279.61484 331.33612 279.6908 329.96857 Z M 275.81608 335.4388 L 275.81608 335.4388 C 275.81608 334.98293 276.11998 334.831 276.49986 335.0589 C 277.41156 335.6667 278.09533 338.55376 277.33558 338.55376 C 276.72778 338.55376 275.81608 336.73036 275.81608 335.4388 Z" fill="#FFFFFF"/>
        </g>
      </g>
    </g>
  </g>
</svg>
