<?xml version="1.0" encoding="UTF-8" standalone="no"?>
<!DOCTYPE svg PUBLIC "-//W3C//DTD SVG 1.1//EN" "http://www.w3.org/Graphics/SVG/1.1/DTD/svg11.dtd">
<svg xmlns="http://www.w3.org/2000/svg" xmlns:xl="http://www.w3.org/1999/xlink" version="1.1" xmlns:dc="http://purl.org/dc/elements/1.1/" viewBox="45 75.16667 274.5 279" width="274.5" height="279">
  <defs>
    <clipPath id="artboard_clip_path">
      <path d="M 45 75.16667 L 319.5 75.16667 L 319.5 354.16667 L 45 354.16667 Z"/>
    </clipPath>
  </defs>
  <g id="Rose_(14)" stroke-opacity="1" fill="none" fill-opacity="1" stroke-dasharray="none" stroke="none">
    <title>Rose (14)</title>
    <g id="Rose_(14)_Layer_2" clip-path="url(#artboard_clip_path)">
      <title>Layer 2</title>
      <g id="Group_73">
        <g id="Graphic_69">
          <path d="M 167.68222 200.3714 C 167.68222 200.3714 118.51404 126.50915 120.44958 109.42125 C 122.38512 92.33336 145.26762 96.79629 156.41294 93.38111 C 167.55827 89.96593 178.85155 89.37408 183.90634 77.78486 L 183.94074 77.77808 C 188.38207 89.61596 199.6289 90.79805 210.58022 94.79184 C 221.53153 98.78564 244.61624 95.52641 245.65482 112.69218 C 246.6934 129.85795 193.72695 201.04573 193.72695 201.04573 Z" fill="#FFFFFF"/>
          <path d="M 167.68222 200.3714 C 167.68222 200.3714 118.51404 126.50915 120.44958 109.42125 C 122.38512 92.33336 145.26762 96.79629 156.41294 93.38111 C 167.55827 89.96593 178.85155 89.37408 183.90634 77.78486 L 183.94074 77.77808 C 188.38207 89.61596 199.6289 90.79805 210.58022 94.79184 C 221.53153 98.78564 244.61624 95.52641 245.65482 112.69218 C 246.6934 129.85795 193.72695 201.04573 193.72695 201.04573 Z" stroke="black" stroke-linecap="round" stroke-linejoin="round" stroke-width="2"/>
        </g>
        <g id="Graphic_68">
          <path d="M 157.72264 227.68137 C 157.72264 227.68137 72.28165 251.6184 56.62821 244.49714 C 40.97477 237.37588 52.290354 216.99245 52.48642 205.33727 C 52.68249 193.6821 55.60942 182.75864 46.149434 174.36999 L 46.15361 174.33517 C 58.78455 173.76933 63.38425 163.43824 70.56672 154.25707 C 77.74919 145.0759 81.78304 122.11388 98.4296 126.43065 C 115.07615 130.74743 166.41222 203.11974 166.41222 203.11974 Z" fill="#FFFFFF"/>
          <path d="M 157.72264 227.68137 C 157.72264 227.68137 72.28165 251.6184 56.62821 244.49714 C 40.97477 237.37588 52.290354 216.99245 52.48642 205.33727 C 52.68249 193.6821 55.60942 182.75864 46.149434 174.36999 L 46.15361 174.33517 C 58.78455 173.76933 63.38425 163.43824 70.56672 154.25707 C 77.74919 145.0759 81.78304 122.11388 98.4296 126.43065 C 115.07615 130.74743 166.41222 203.11974 166.41222 203.11974 Z" stroke="black" stroke-linecap="round" stroke-linejoin="round" stroke-width="2"/>
        </g>
        <g id="Graphic_72">
          <path d="M 180.61828 245.59274 C 180.61828 245.59274 176.98102 334.2489 165.37112 346.9356 C 153.76123 359.62233 137.87214 342.56174 126.848 338.77362 C 115.82385 334.9855 106.3395 328.8263 95.43812 335.23104 L 95.4063 335.2163 C 98.77132 323.0287 90.36726 315.46166 83.85496 305.7936 C 77.34265 296.12552 56.751 285.19344 66.00056 270.69558 C 75.25013 256.19772 159.944 229.7385 159.944 229.7385 Z" fill="#FFFFFF"/>
          <path d="M 180.61828 245.59274 C 180.61828 245.59274 176.98102 334.2489 165.37112 346.9356 C 153.76123 359.62233 137.87214 342.56174 126.848 338.77362 C 115.82385 334.9855 106.3395 328.8263 95.43812 335.23104 L 95.4063 335.2163 C 98.77132 323.0287 90.36726 315.46166 83.85496 305.7936 C 77.34265 296.12552 56.751 285.19344 66.00056 270.69558 C 75.25013 256.19772 159.944 229.7385 159.944 229.7385 Z" stroke="black" stroke-linecap="round" stroke-linejoin="round" stroke-width="2"/>
        </g>
        <g id="Graphic_71">
          <path d="M 204.72814 229.3526 C 204.72814 229.3526 287.92118 260.2081 296.3993 275.1702 C 304.87744 290.13226 283.74186 299.97167 276.7325 309.28567 C 269.72313 318.59966 260.93455 325.7165 263.6571 338.0635 L 263.63327 338.08922 C 253.08203 331.12272 243.28834 336.7771 232.08104 339.9831 C 220.87375 343.18905 204.11355 359.3947 193.18354 346.11774 C 182.25353 332.8408 183.26116 244.11578 183.26116 244.11578 Z" fill="#FFFFFF"/>
          <path d="M 204.72814 229.3526 C 204.72814 229.3526 287.92118 260.2081 296.3993 275.1702 C 304.87744 290.13226 283.74186 299.97167 276.7325 309.28567 C 269.72313 318.59966 260.93455 325.7165 263.6571 338.0635 L 263.63327 338.08922 C 253.08203 331.12272 243.28834 336.7771 232.08104 339.9831 C 220.87375 343.18905 204.11355 359.3947 193.18354 346.11774 C 182.25353 332.8408 183.26116 244.11578 183.26116 244.11578 Z" stroke="black" stroke-linecap="round" stroke-linejoin="round" stroke-width="2"/>
        </g>
        <g id="Graphic_70">
          <path d="M 196.73322 201.4043 C 196.73322 201.4043 251.7866 131.81788 268.63627 128.37824 C 285.48594 124.9386 288.31252 148.08027 295.00464 157.62475 C 301.69676 167.16924 305.74947 177.7269 318.33348 178.95302 L 318.35057 178.98364 C 308.46452 186.8657 310.81575 197.92736 310.40156 209.57683 C 309.98737 221.2263 320.22066 242.174 304.21598 248.46627 C 288.2113 254.75853 204.14017 226.38267 204.14017 226.38267 Z" fill="#FFFFFF"/>
          <path d="M 196.73322 201.4043 C 196.73322 201.4043 251.7866 131.81788 268.63627 128.37824 C 285.48594 124.9386 288.31252 148.08027 295.00464 157.62475 C 301.69676 167.16924 305.74947 177.7269 318.33348 178.95302 L 318.35057 178.98364 C 308.46452 186.8657 310.81575 197.92736 310.40156 209.57683 C 309.98737 221.2263 320.22066 242.174 304.21598 248.46627 C 288.2113 254.75853 204.14017 226.38267 204.14017 226.38267 Z" stroke="black" stroke-linecap="round" stroke-linejoin="round" stroke-width="2"/>
        </g>
        <g id="Graphic_56">
          <circle cx="181.4969" cy="220.88048" r="26.8584078153536" fill="#FFFFFF"/>
          <circle cx="181.4969" cy="220.88048" r="26.8584078153536" stroke="black" stroke-linecap="round" stroke-linejoin="round" stroke-width="2"/>
        </g>
        <g id="Graphic_55">
          <circle cx="181.4969" cy="220.88048" r="7.06800205667199" fill="#FFFFFF"/>
          <circle cx="181.4969" cy="220.88048" r="7.06800205667199" stroke="black" stroke-linecap="round" stroke-linejoin="round" stroke-width="2"/>
        </g>
        <g id="Graphic_54">
          <circle cx="190.85465" cy="237.37652" r="7.068002056672" fill="#FFFFFF"/>
          <circle cx="190.85465" cy="237.37652" r="7.068002056672" stroke="black" stroke-linecap="round" stroke-linejoin="round" stroke-width="2"/>
        </g>
        <g id="Graphic_53">
          <circle cx="164.11308" cy="213.2983" r="7.06800205667199" fill="#FFFFFF"/>
          <circle cx="164.11308" cy="213.2983" r="7.06800205667199" stroke="black" stroke-linecap="round" stroke-linejoin="round" stroke-width="2"/>
        </g>
        <g id="Graphic_52">
          <path d="M 185.75272 194.3582 C 189.12435 194.89598 192.42007 196.08014 195.443 197.921 C 196.47552 200.36835 196.07858 203.29822 194.18365 205.40274 C 191.57167 208.30365 187.1026 208.53787 184.20171 205.92588 C 181.3008 203.3139 181.06659 198.84483 183.67858 195.94394 C 184.28432 195.27119 184.98994 194.74186 185.75272 194.3582 Z M 202.58317 204.238 C 205.51861 207.94813 207.34513 212.27777 208.03827 216.76066 C 205.38452 218.87529 201.5151 218.82484 198.91018 216.47934 C 196.00927 213.86736 195.77505 209.3983 198.38705 206.4974 C 199.52695 205.2314 201.02056 204.4733 202.58317 204.238 Z M 200.75994 239.59746 C 200.5303 239.4357 200.30783 239.25855 200.0939 239.06592 C 197.19298 236.45394 196.95876 231.98487 199.57076 229.08398 C 201.64239 226.7832 204.88222 226.15988 207.58133 227.30362 C 206.56013 231.46633 204.52525 235.44408 201.45653 238.85222 C 201.22802 239.106 200.99577 239.35442 200.75994 239.59745 Z M 164.85442 199.79422 C 168.56454 196.85877 172.89418 195.03226 177.37707 194.33911 C 179.4917 196.99286 179.44125 200.86228 177.09576 203.4672 C 174.48378 206.36812 170.01471 206.60233 167.11382 203.99034 C 165.84781 202.85043 165.0897 201.35682 164.85442 199.79422 Z M 186.91164 247.18918 C 182.5243 248.08852 177.94408 247.88794 173.61821 246.564 C 173.918 245.83775 174.3449 245.1495 174.90068 244.53226 C 177.51266 241.63135 181.98172 241.39714 184.88262 244.00913 C 185.87071 244.8988 186.54942 246.00394 186.91165 247.18917 Z" fill="#FFFFFF"/>
          <path d="M 185.75272 194.3582 C 189.12435 194.89598 192.42007 196.08014 195.443 197.921 C 196.47552 200.36835 196.07858 203.29822 194.18365 205.40274 C 191.57167 208.30365 187.1026 208.53787 184.20171 205.92588 C 181.3008 203.3139 181.06659 198.84483 183.67858 195.94394 C 184.28432 195.27119 184.98994 194.74186 185.75272 194.3582 Z M 202.58317 204.238 C 205.51861 207.94813 207.34513 212.27777 208.03827 216.76066 C 205.38452 218.87529 201.5151 218.82484 198.91018 216.47934 C 196.00927 213.86736 195.77505 209.3983 198.38705 206.4974 C 199.52695 205.2314 201.02056 204.4733 202.58317 204.238 Z M 200.75994 239.59746 C 200.5303 239.4357 200.30783 239.25855 200.0939 239.06592 C 197.19298 236.45394 196.95876 231.98487 199.57076 229.08398 C 201.64239 226.7832 204.88222 226.15988 207.58133 227.30362 C 206.56013 231.46633 204.52525 235.44408 201.45653 238.85222 C 201.22802 239.106 200.99577 239.35442 200.75994 239.59745 Z M 164.85442 199.79422 C 168.56454 196.85877 172.89418 195.03226 177.37707 194.33911 C 179.4917 196.99286 179.44125 200.86228 177.09576 203.4672 C 174.48378 206.36812 170.01471 206.60233 167.11382 203.99034 C 165.84781 202.85043 165.0897 201.35682 164.85442 199.79422 Z M 186.91164 247.18918 C 182.5243 248.08852 177.94408 247.88794 173.61821 246.564 C 173.918 245.83775 174.3449 245.1495 174.90068 244.53226 C 177.51266 241.63135 181.98172 241.39714 184.88262 244.00913 C 185.87071 244.8988 186.54942 246.00394 186.91165 247.18917 Z" stroke="black" stroke-linecap="round" stroke-linejoin="round" stroke-width="2"/>
        </g>
        <g id="Graphic_51">
          <circle cx="168.12011" cy="235.7369" r="7.06800205667199" fill="#FFFFFF"/>
          <circle cx="168.12011" cy="235.7369" r="7.06800205667199" stroke="black" stroke-linecap="round" stroke-linejoin="round" stroke-width="2"/>
        </g>
        <g id="Graphic_50">
          <circle cx="164.70493" cy="224.5916" r="7.068002056672" fill="#FFFFFF"/>
          <circle cx="164.70493" cy="224.5916" r="7.068002056672" stroke="black" stroke-linecap="round" stroke-linejoin="round" stroke-width="2"/>
        </g>
        <g id="Graphic_49">
          <circle cx="179.4134" cy="235.14506" r="7.06800205667199" fill="#FFFFFF"/>
          <circle cx="179.4134" cy="235.14506" r="7.06800205667199" stroke="black" stroke-linecap="round" stroke-linejoin="round" stroke-width="2"/>
        </g>
        <g id="Graphic_48">
          <circle cx="195.76147" cy="222.96399" r="7.06800205667199" fill="#FFFFFF"/>
          <circle cx="195.76147" cy="222.96399" r="7.06800205667199" stroke="black" stroke-linecap="round" stroke-linejoin="round" stroke-width="2"/>
        </g>
        <g id="Graphic_47">
          <circle cx="189.375" cy="209.1433" r="7.06800205667199" fill="#FFFFFF"/>
          <circle cx="189.375" cy="209.1433" r="7.06800205667199" stroke="black" stroke-linecap="round" stroke-linejoin="round" stroke-width="2"/>
        </g>
        <g id="Graphic_46">
          <circle cx="172.43508" cy="210.0311" r="7.06800205667199" fill="#FFFFFF"/>
          <circle cx="172.43508" cy="210.0311" r="7.06800205667199" stroke="black" stroke-linecap="round" stroke-linejoin="round" stroke-width="2"/>
        </g>
        <g id="Line_45">
          <path d="M 204.4637 236.723 C 216.48104 246.94566 232.60662 250.7593 232.60662 250.7593" stroke="black" stroke-linecap="round" stroke-linejoin="round" stroke-width="1"/>
        </g>
        <g id="Line_44">
          <path d="M 199.039 241.2539 C 209.05083 249.22244 217.02012 259.79487 217.02012 259.79487" stroke="black" stroke-linecap="round" stroke-linejoin="round" stroke-width="1"/>
        </g>
        <g id="Line_43">
          <path d="M 196.46296 243.11902 C 201.42955 256.85683 217.4401 285.36252 218.35754 285.31444" stroke="black" stroke-linecap="round" stroke-linejoin="round" stroke-width="1"/>
        </g>
        <g id="Line_42">
          <path d="M 188.31425 246.6917 C 192.72875 255.89728 196.86232 279.78903 196.86232 279.78903" stroke="black" stroke-linecap="round" stroke-linejoin="round" stroke-width="1"/>
        </g>
        <g id="Line_41">
          <path d="M 201.61694 239.04863 C 224.3821 261.10595 260.94606 275.05468 260.94606 275.05468" stroke="black" stroke-linecap="round" stroke-linejoin="round" stroke-width="1"/>
        </g>
        <g id="Line_40">
          <path d="M 201.52513 202.25088 C 213.86048 190.34242 248.14868 165.10153 248.14868 165.10153" stroke="black" stroke-linecap="round" stroke-linejoin="round" stroke-width="1"/>
        </g>
        <g id="Line_39">
          <path d="M 206.57388 213.19633 C 217.2439 206.13849 272.37008 196.92422 272.37008 196.92422" stroke="black" stroke-linecap="round" stroke-linejoin="round" stroke-width="1"/>
        </g>
        <g id="Line_38">
          <path d="M 208.23122 218.8295 C 222.36032 210.96682 253.82346 206.65625 254.0612 205.76905" stroke="black" stroke-linecap="round" stroke-linejoin="round" stroke-width="1"/>
        </g>
        <g id="Line_37">
          <path d="M 208.05496 222.4032 C 218.17192 221.04974 251.23514 223.99472 251.23514 223.99472" stroke="black" stroke-linecap="round" stroke-linejoin="round" stroke-width="1"/>
        </g>
        <g id="Line_36">
          <path d="M 205.6461 208.99834 C 233.65255 194.16672 246.24264 191.01941 246.24264 191.01941" stroke="black" stroke-linecap="round" stroke-linejoin="round" stroke-width="1"/>
        </g>
        <g id="Line_35">
          <path d="M 172.11605 194.65344 C 167.54415 161.61011 145.86664 126.54165 145.86664 126.54165" stroke="black" stroke-linecap="round" stroke-linejoin="round" stroke-width="1"/>
        </g>
        <g id="Line_34">
          <path d="M 181.2566 193.99785 C 177.8414 181.66907 186.91602 112.22324 186.91602 112.22324" stroke="black" stroke-linecap="round" stroke-linejoin="round" stroke-width="1"/>
        </g>
        <g id="Line_33">
          <path d="M 185.55015 193.9494 C 181.8556 174.21422 193.40767 147.45379 192.63736 146.95354" stroke="black" stroke-linecap="round" stroke-linejoin="round" stroke-width="1"/>
        </g>
        <g id="Line_32">
          <path d="M 191.03656 196.08068 C 192.87566 186.04064 207.5161 142.8968 207.5161 142.8968" stroke="black" stroke-linecap="round" stroke-linejoin="round" stroke-width="1"/>
        </g>
        <g id="Line_31">
          <path d="M 175.7853 194.4453 C 170.33406 163.22636 169.27087 122.64426 169.27087 122.64426" stroke="black" stroke-linecap="round" stroke-linejoin="round" stroke-width="1"/>
        </g>
        <g id="Line_30">
          <path d="M 154.8977 226.07597 C 136.06574 229.14022 122.52759 226.8707 122.52759 226.8707" stroke="black" stroke-linecap="round" stroke-linejoin="round" stroke-width="1"/>
        </g>
        <g id="Line_29">
          <path d="M 155.26433 214.83282 C 142.48361 214.27107 81.13723 194.62733 81.13723 194.62733" stroke="black" stroke-linecap="round" stroke-linejoin="round" stroke-width="1"/>
        </g>
        <g id="Line_28">
          <path d="M 155.09096 211.52467 C 140.97652 209.59355 100.48433 186.9397 99.77053 187.51772" stroke="black" stroke-linecap="round" stroke-linejoin="round" stroke-width="1"/>
        </g>
        <g id="Line_27">
          <path d="M 158.2512 205.12712 C 149.27086 200.2755 134.3795 182.38492 134.3795 182.38492" stroke="black" stroke-linecap="round" stroke-linejoin="round" stroke-width="1"/>
        </g>
        <g id="Line_26">
          <path d="M 154.47514 218.13148 C 125.72567 218.70205 82.85825 210.479 82.85825 210.479" stroke="black" stroke-linecap="round" stroke-linejoin="round" stroke-width="1"/>
        </g>
        <g id="Line_25">
          <path d="M 175.01697 247.5752 C 169.00952 262.16016 168.856 278.80258 168.856 278.80258" stroke="black" stroke-linecap="round" stroke-linejoin="round" stroke-width="1"/>
        </g>
        <g id="Line_24">
          <path d="M 165.29855 243.3364 C 160.81483 255.318 148.26574 280.73034 148.26574 280.73034" stroke="black" stroke-linecap="round" stroke-linejoin="round" stroke-width="1"/>
        </g>
        <g id="Line_23">
          <path d="M 161.42303 239.68164 C 152.74224 252.8972 128.63517 273.46543 128.96433 274.32292" stroke="black" stroke-linecap="round" stroke-linejoin="round" stroke-width="1"/>
        </g>
        <g id="Line_22">
          <path d="M 159.03957 235.43056 C 151.65032 242.47213 109.26824 274.20966 109.26824 274.20966" stroke="black" stroke-linecap="round" stroke-linejoin="round" stroke-width="1"/>
        </g>
        <g id="Line_21">
          <path d="M 170.41684 245.71808 C 156.47695 274.1789 151.46706 313.50276 151.46706 313.50276" stroke="black" stroke-linecap="round" stroke-linejoin="round" stroke-width="1"/>
        </g>
      </g>
    </g>
  </g>
</svg>
