<?xml version="1.0" encoding="UTF-8" standalone="no"?>
<!DOCTYPE svg PUBLIC "-//W3C//DTD SVG 1.1//EN" "http://www.w3.org/Graphics/SVG/1.1/DTD/svg11.dtd">
<svg xmlns:xl="http://www.w3.org/1999/xlink" xmlns="http://www.w3.org/2000/svg" xmlns:dc="http://purl.org/dc/elements/1.1/" version="1.1" viewBox="36 63 220.5 351" width="220.5" height="351">
  <defs>
    <clipPath id="artboard_clip_path">
      <path d="M 36 63 L 256.5 63 L 256.5 360 L 225.96923 414 L 36 414 Z"/>
    </clipPath>
  </defs>
  <g id="Rustre_(2)" stroke-opacity="1" stroke="none" stroke-dasharray="none" fill="none" fill-opacity="1">
    <title>Rustre (2)</title>
    <g id="Rustre_(2)_Art" clip-path="url(#artboard_clip_path)">
      <title>Art</title>
      <g id="Graphic_76">
        <path d="M 146.25 67.5 L 37.68362 238.5 L 146.25 409.5 L 254.81638 238.5 Z M 191.58769 193.16231 C 216.62714 218.20164 216.62714 258.79836 191.58769 283.8377 C 166.54836 308.87714 125.95164 308.87714 100.91231 283.8377 C 75.87286 258.79836 75.87286 218.20164 100.91231 193.16231 C 125.95164 168.12286 166.54836 168.12286 191.58769 193.16231" fill="#FFFFFF"/>
        <path d="M 146.25 67.5 L 37.68362 238.5 L 146.25 409.5 L 254.81638 238.5 Z M 191.58769 193.16231 C 216.62714 218.20164 216.62714 258.79836 191.58769 283.8377 C 166.54836 308.87714 125.95164 308.87714 100.91231 283.8377 C 75.87286 258.79836 75.87286 218.20164 100.91231 193.16231 C 125.95164 168.12286 166.54836 168.12286 191.58769 193.16231" stroke="black" stroke-linecap="round" stroke-linejoin="round" stroke-width="2"/>
      </g>
    </g>
  </g>
</svg>
