<?xml version="1.0" encoding="UTF-8" standalone="no"?>
<!DOCTYPE svg PUBLIC "-//W3C//DTD SVG 1.1//EN" "http://www.w3.org/Graphics/SVG/1.1/DTD/svg11.dtd">
<svg xmlns="http://www.w3.org/2000/svg" xmlns:xl="http://www.w3.org/1999/xlink" version="1.1" xmlns:dc="http://purl.org/dc/elements/1.1/" viewBox="63 63 99 351" width="99" height="351">
  <defs>
    <clipPath id="artboard_clip_path">
      <path d="M 63 63 L 162 63 L 162 414 L 63 414 Z"/>
    </clipPath>
  </defs>
  <g id="Scepter_(4)" stroke-opacity="1" fill="none" fill-opacity="1" stroke-dasharray="none" stroke="none">
    <title>Scepter (4)</title>
    <g id="Scepter_(4)_Art" clip-path="url(#artboard_clip_path)">
      <title>Art</title>
      <g id="Group_768">
        <g id="Graphic_771">
          <path d="M 111.25 146.25 L 113.75 146.25 C 119.27285 146.25 122.00328 150.72715 122.00328 156.25 L 123.75 401.75 C 123.75 407.27285 119.27285 411.75 113.75 411.75 L 111.25 411.75 C 105.72715 411.75 101.25 407.27285 101.25 401.75 L 103.55922 154.6875 C 103.55922 149.16465 105.72715 146.25 111.25 146.25 Z" fill="#FFFFFF"/>
          <path d="M 111.25 146.25 L 113.75 146.25 C 119.27285 146.25 122.00328 150.72715 122.00328 156.25 L 123.75 401.75 C 123.75 407.27285 119.27285 411.75 113.75 411.75 L 111.25 411.75 C 105.72715 411.75 101.25 407.27285 101.25 401.75 L 103.55922 154.6875 C 103.55922 149.16465 105.72715 146.25 111.25 146.25 Z" stroke="black" stroke-linecap="round" stroke-linejoin="round" stroke-width="1.5"/>
        </g>
        <g id="Graphic_770">
          <path d="M 112.49911 65.25 C 112.49911 65.25 97.47701 87.27277 97.47701 98.79958 C 97.47701 110.3264 103.51417 114.37572 106.17505 122.86039 C 108.83592 131.34506 107.10206 137.99724 107.10206 137.99724 C 107.10206 137.99724 100.86448 113.25866 83.80687 113.25866 C 70.72844 113.25866 65.5071 122.032 65.5071 129.2992 C 65.5071 136.5664 73.06852 142.35277 82.33837 144.43605 C 78.11752 137.58713 81.25388 128.55721 89.0031 128.50847 C 96.75233 128.45973 103.83486 137.02021 98.84289 150.8374 L 126.15171 150.80647 C 121.07445 137.16525 128.24767 128.45973 135.9969 128.50847 C 143.74612 128.55721 146.88248 137.58713 142.66163 144.43605 C 151.93148 142.35277 159.4929 136.5664 159.4929 129.2992 C 159.4929 122.032 154.27156 113.25866 141.19313 113.25866 C 124.13552 113.25866 117.89794 137.99724 117.89794 137.99724 C 117.89794 137.99724 116.16408 131.34506 118.82495 122.86039 C 121.48583 114.37572 127.523 110.3264 127.523 98.79958 C 127.523 87.27277 112.49911 65.25 112.49911 65.25 Z" fill="#FFFFFF"/>
          <path d="M 112.49911 65.25 C 112.49911 65.25 97.47701 87.27277 97.47701 98.79958 C 97.47701 110.3264 103.51417 114.37572 106.17505 122.86039 C 108.83592 131.34506 107.10206 137.99724 107.10206 137.99724 C 107.10206 137.99724 100.86448 113.25866 83.80687 113.25866 C 70.72844 113.25866 65.5071 122.032 65.5071 129.2992 C 65.5071 136.5664 73.06852 142.35277 82.33837 144.43605 C 78.11752 137.58713 81.25388 128.55721 89.0031 128.50847 C 96.75233 128.45973 103.83486 137.02021 98.84289 150.8374 L 126.15171 150.80647 C 121.07445 137.16525 128.24767 128.45973 135.9969 128.50847 C 143.74612 128.55721 146.88248 137.58713 142.66163 144.43605 C 151.93148 142.35277 159.4929 136.5664 159.4929 129.2992 C 159.4929 122.032 154.27156 113.25866 141.19313 113.25866 C 124.13552 113.25866 117.89794 137.99724 117.89794 137.99724 C 117.89794 137.99724 116.16408 131.34506 118.82495 122.86039 C 121.48583 114.37572 127.523 110.3264 127.523 98.79958 C 127.523 87.27277 112.49911 65.25 112.49911 65.25 Z" stroke="black" stroke-linecap="round" stroke-linejoin="round" stroke-width="1.5"/>
        </g>
        <g id="Graphic_769">
          <path d="M 95.27213 150.8374 L 129.72787 150.8374 C 133.02141 150.8374 135.69136 153.50735 135.69136 156.8009 L 135.69136 156.8009 C 135.69136 160.09444 133.02141 162.7644 129.72787 162.7644 L 95.27213 162.7644 C 91.97859 162.7644 89.30864 160.09444 89.30864 156.8009 L 89.30864 156.8009 C 89.30864 153.50735 91.97859 150.8374 95.27213 150.8374 Z" fill="#FFFFFF"/>
          <path d="M 95.27213 150.8374 L 129.72787 150.8374 C 133.02141 150.8374 135.69136 153.50735 135.69136 156.8009 L 135.69136 156.8009 C 135.69136 160.09444 133.02141 162.7644 129.72787 162.7644 L 95.27213 162.7644 C 91.97859 162.7644 89.30864 160.09444 89.30864 156.8009 L 89.30864 156.8009 C 89.30864 153.50735 91.97859 150.8374 95.27213 150.8374 Z" stroke="black" stroke-linecap="round" stroke-linejoin="round" stroke-width="1.5"/>
        </g>
      </g>
    </g>
  </g>
</svg>
