<?xml version="1.0" encoding="UTF-8" standalone="no"?>
<!DOCTYPE svg PUBLIC "-//W3C//DTD SVG 1.1//EN" "http://www.w3.org/Graphics/SVG/1.1/DTD/svg11.dtd">
<svg xmlns:xl="http://www.w3.org/1999/xlink" version="1.1" xmlns="http://www.w3.org/2000/svg" xmlns:dc="http://purl.org/dc/elements/1.1/" viewBox="63 63 238.5 351" width="238.5" height="351">
  <defs>
    <clipPath id="artboard_clip_path">
      <path d="M 63 63 L 301.5 63 L 301.5 360 L 268.47692 414 L 63 414 Z"/>
    </clipPath>
  </defs>
  <g id="Sea-Ferret" stroke-opacity="1" stroke="none" fill="none" fill-opacity="1" stroke-dasharray="none">
    <title>Sea-Ferret</title>
    <g id="Sea-Ferret_Art" clip-path="url(#artboard_clip_path)">
      <title>Art</title>
      <g id="Group_1371">
        <g id="Graphic_1461">
          <path d="M 167.90512 75.07307 C 168.44158 75.62037 171.34064 75.84254 172.26184 75.64204 C 173.4052 75.3982 175.3018 73.76714 176.85157 73.16565 C 191.80205 67.335015 196.34843 78.06425 195.40555 91.17775 C 195.23757 93.52952 194.09962 95.66452 194.36514 98.16801 C 194.67944 101.15377 197.6381 107.49919 198.4997 111.40073 C 205.14857 141.57805 196.82528 170.21644 186.61084 198.34003 C 174.36976 232.03957 151.03097 272.64268 166.7726 308.94325 C 178.80234 336.6821 212.74573 338.6654 228.02134 312.9044 C 246.8246 281.19355 228.1568 247.3477 198.67851 231.51937 C 196.52725 230.36516 185.29948 225.91633 184.82805 225.32026 C 184.10735 224.40448 187.06601 221.87932 187.81923 221.22906 C 204.36284 206.96677 229.5928 216.66643 242.28363 231.24843 C 247.76204 221.22906 256.06907 210.97668 266.95003 206.61454 C 275.79894 203.06523 287.70947 202.881 296.05443 207.82294 C 296.49877 208.08304 296.93227 207.71456 296.75887 208.7658 C 296.52044 210.23972 287.6932 216.67726 285.8779 218.49798 C 278.02607 226.38776 270.5698 238.46086 267.09634 249.02753 C 259.41247 272.3934 266.3106 295.88393 262.447 319.69957 C 256.23705 357.98885 227.19768 385.85776 188.9084 391.1194 C 190.68036 392.5608 197.71938 399.0634 196.3972 401.3176 C 184.34578 409.7601 168.25734 400.3097 156.74239 409.5 C 151.17185 404.61224 146.70676 398.5161 143.47173 391.85095 C 142.56137 389.97605 141.38008 385.22376 140.39385 384.09123 C 139.40763 382.9587 130.53163 378.71035 128.26657 377.2527 C 110.04855 365.5535 96.96755 348.067 89.22408 327.93616 C 82.80822 328.70563 77.52488 326.511 71.629225 330.40713 C 70.62675 330.18496 69.80309 325.28094 69.70555 324.18634 C 68.79519 313.92855 70.87059 303.26976 74.42533 293.70015 C 75.50909 290.7794 79.6328 283.7133 79.968765 281.9034 C 80.7003 277.95852 80.12049 270.76777 80.53774 266.21597 C 82.58605 243.8038 89.56547 222.31824 99.47646 202.26324 C 99.44937 201.42875 93.87342 193.64735 93.16355 193.4306 C 86.47675 191.39312 82.10377 199.23413 74.1869 194.5252 C 69.34249 191.64239 68.822284 185.22652 70.51837 180.33334 C 73.31989 172.24307 82.79196 170.53073 90.28075 169.75584 L 87.75017 166.19568 C 86.11911 165.8543 81.76239 169.18144 79.04215 169.34943 C 67.0124 170.0918 63.4089 154.0955 73.850935 147.9018 C 93.15272 136.45728 103.50263 155.88912 116.28559 166.50997 C 117.21763 167.28486 119.7753 169.67997 120.62605 169.24105 C 121.14626 168.97011 127.22616 162.18577 128.20154 161.0695 C 132.8563 155.73739 138.58397 148.61166 141.09288 141.98988 C 142.3934 138.55436 144.27372 133.87793 140.83278 131.12518 C 132.55826 128.88721 119.87826 131.03848 113.08308 125.27829 C 111.0727 123.57679 110.76383 121.55015 109.49583 120.19545 C 108.5367 119.17672 105.95193 118.1363 104.646 116.91708 C 101.1292 113.61702 97.5582 107.82974 100.01834 103.06119 C 102.06665 99.08379 117.94916 92.67334 122.61476 89.92059 C 128.5917 86.39295 132.88339 82.78403 139.6027 79.81452 C 141.51555 78.96919 144.08948 78.74702 145.75305 77.83666 C 147.41662 76.9263 149.64375 73.30112 151.50782 71.67006 C 155.74533 67.969016 162.03656 64.977836 166.0519 70.68384 C 166.79427 71.7405 167.64502 74.812965 167.89429 75.07307 Z M 164.52379 75.1977 C 162.80603 67.00989 155.12758 71.71883 152.06054 76.28146 L 164.52379 75.1977 Z M 185.66254 107.71053 C 185.17485 107.23909 189.60743 100.16755 190.10055 98.87788 C 192.306 93.11769 194.28928 79.52191 188.01972 75.82628 C 183.58172 73.209 177.62646 76.23269 173.57861 78.55736 C 171.5032 79.7495 166.47456 84.11163 164.81099 84.42051 C 164.009 84.57223 163.84102 84.39341 163.9819 83.59143 C 164.25285 82.085 166.82136 80.56232 167.7805 79.2618 C 160.1779 77.24601 150.00681 79.60861 142.57763 82.23673 C 135.14845 84.86485 132.41195 88.08362 126.43501 91.56249 C 120.04624 95.27979 113.07224 98.27097 106.55342 101.76068 C 107.36082 103.33755 109.34952 102.58434 110.87763 103.66268 C 112.82298 105.02822 112.90426 107.74846 111.46286 109.50415 C 110.82886 110.27904 109.88057 110.07854 109.39829 110.5554 C 108.71552 111.23275 108.34162 113.67663 107.19284 114.49487 C 116.15012 123.95068 132.14101 111.25443 140.69189 120.46097 C 139.87365 123.54427 137.5544 120.3526 135.83664 119.892 C 130.02226 118.3368 120.55561 122.6881 114.14516 121.26838 C 119.0275 127.25615 128.07691 125.70096 134.94254 126.74679 C 140.25838 127.5596 145.49295 128.90889 150.79254 129.8626 C 152.5374 130.17689 155.66404 129.2557 154.51526 132.10057 L 145.57965 131.0168 C 147.59544 141.65392 140.11207 152.15014 133.64202 159.99115 C 128.9114 165.72425 123.24876 170.59033 118.79992 176.57811 C 117.99252 177.6673 114.18851 182.54963 114.75207 183.51418 L 127.43207 191.57736 C 132.3686 186.44034 141.29337 179.03283 148.57625 178.16582 C 149.8009 178.01951 149.33488 178.63184 149.38365 179.5151 C 145.09737 181.5309 140.85445 183.78512 137.19676 186.84675 C 135.6795 188.11475 129.12274 195.46806 128.505 195.5331 C 127.14488 195.5385 126.1424 194.70943 125.03696 194.10253 C 111.26778 186.55955 93.08769 165.25281 76.79876 176.84363 C 75.87215 177.50473 71.88933 182.37623 74.31695 181.40627 C 75.94801 180.756 80.64612 177.02787 82.73236 178.4205 L 82.7161 180.05157 C 77.9909 180.82104 68.638045 184.77134 74.58789 190.08177 C 75.57953 185.5083 80.83577 184.1536 84.88904 183.58463 L 84.86195 185.71422 C 81.09046 185.99058 75.93717 187.36695 76.8367 192.17885 C 80.89538 193.99415 84.19001 190.50444 88.4221 190.0872 C 90.7576 189.8596 93.98721 189.81083 95.92173 191.2414 C 98.45773 193.1163 104.81398 203.9539 107.42585 207.37318 C 111.83133 213.13879 120.91867 224.4099 127.94686 226.40944 C 134.92628 228.39814 141.48845 224.66458 147.37327 221.40246 C 149.17232 220.4054 160.37298 212.54272 161.29418 213.38263 C 160.61141 215.34966 157.82615 217.35462 156.13548 218.78518 C 150.22356 223.78674 138.75195 231.4164 130.74296 230.66862 C 119.61274 229.6282 108.59631 213.77279 101.95827 205.80714 C 93.39114 222.56209 85.99989 242.98556 84.35258 261.88635 C 83.92449 266.77953 83.68606 268.7628 87.30583 272.46927 C 94.11184 279.42702 103.93072 278.48957 110.34116 271.61852 C 111.94513 269.90076 112.93135 267.45688 114.2427 265.7662 C 114.70872 265.16473 114.78458 264.6391 115.7708 264.86127 C 116.88708 275.0974 117.66739 285.3877 120.91867 295.20658 C 121.77484 297.78593 127.22616 310.5743 129.05771 311.45757 C 130.02226 311.91817 130.98139 308.74817 130.85676 308.07082 C 125.09657 298.50663 121.46597 287.77198 119.56939 276.78264 L 121.69898 276.81516 C 123.24334 287.2897 127.30202 297.2007 132.03806 306.58065 C 133.00802 307.258 134.8179 303.49193 135.81496 303.06384 C 132.14101 300.99386 122.34923 277.21073 123.90443 275.69888 L 125.57342 276.024 C 126.85768 280.65167 128.38578 285.2089 130.31488 289.60895 C 131.2144 291.66268 135.3056 300.19188 136.61153 301.21603 C 136.92582 301.4653 137.14799 301.79043 137.61942 301.6441 L 141.23919 299.2761 C 137.7549 297.52583 126.23994 275.52548 127.6976 274.07866 L 129.56708 274.6422 C 130.66168 278.5817 140.19336 297.6613 143.25498 298.3874 C 144.08406 298.5825 144.78308 297.9268 145.57423 297.91598 C 137.6682 287.45227 129.98975 275.54716 128.78135 262.1627 C 129.89221 261.93512 130.03852 262.7046 130.50995 263.40903 C 131.79421 265.31645 132.42821 267.58693 134.20016 269.47268 C 138.55688 274.0949 145.83433 276.46835 151.90881 274.18162 C 153.51278 273.58013 157.95078 270.55102 158.83404 269.18548 C 159.98283 267.4027 161.28876 257.20992 162.10158 254.02908 C 173.52984 209.1668 201.64802 173.01254 197.05287 123.1758 C 196.6898 119.20923 194.3814 105.17453 192.45773 102.30256 C 191.905 101.4789 191.89959 101.86906 191.36313 102.29714 C 190.52863 102.95824 187.19065 109.1736 185.68422 107.72136 Z M 83.24172 158.64729 C 80.65153 157.82363 71.81888 162.78725 75.1081 165.4208 C 78.72786 168.31444 86.3467 161.85522 88.81225 162.52173 C 91.06106 163.12864 93.1473 169.53909 94.63747 170.82876 C 95.53699 171.60365 97.53653 171.9071 98.78827 172.63864 C 103.08538 175.16922 106.99776 178.20917 111.2461 180.8102 L 117.82995 172.45982 C 110.68255 166.56958 104.27752 158.9074 97.34145 152.95212 C 92.83843 149.0831 89.90685 147.28406 83.66439 147.96682 C 80.104235 148.35698 73.74256 150.58953 72.669635 154.30683 C 75.07017 152.70286 77.87169 151.57033 80.79784 151.60284 C 82.03333 154.1551 76.81502 154.28515 74.74504 155.30389 C 71.01148 157.14086 69.84644 159.0808 71.86765 162.98233 C 73.15733 163.28037 72.74008 162.75474 73.06521 162.27789 C 73.88345 161.08575 74.02434 160.2621 75.38446 159.19459 C 77.05887 157.87782 82.80822 155.22802 83.2363 158.64729 Z M 282.65372 206.88007 C 280.23152 207.33525 274.74227 206.95593 272.94323 208.2727 C 272.32006 208.72788 269.55106 212.9383 268.88454 213.96786 C 264.02387 221.4675 260.1982 230.54398 257.776 239.1653 C 255.66808 246.6595 254.24835 254.3759 253.93948 262.14645 C 255.4459 262.41197 254.84984 261.82674 255.1587 260.95973 C 256.14493 258.19614 256.56218 254.79855 257.4617 251.85614 C 262.08936 236.6889 268.5594 223.5754 278.87682 211.4969 C 279.42412 210.85747 283.33108 207.47613 282.65372 206.88007 Z M 291.3238 209.053 C 289.5356 208.8796 286.5932 206.93425 285.08677 207.90964 C 283.3094 209.06384 279.31032 213.9516 277.79306 215.83193 C 269.23676 226.47988 262.86425 239.82098 259.08193 252.93448 C 258.41 255.26457 255.83064 264.27604 256.37794 265.89626 C 256.81145 267.1751 258.5834 269.2776 259.6238 270.26924 C 260.81594 263.72332 261.47704 257.0853 263.29776 250.64775 C 268.0121 233.99576 278.4975 220.26993 291.3184 209.0476 Z M 269.1067 209.58947 C 268.51606 209.02591 261.74256 212.7432 260.778 213.47475 C 258.42083 215.26838 257.6947 216.95904 256.63804 219.60342 C 251.70693 231.95287 250.5419 246.23684 250.6882 259.44247 L 252.30842 259.44247 C 253.1375 246.88168 256.49716 234.42385 261.60167 222.9414 Z M 239.3033 262.15187 C 234.41553 246.75163 223.96807 231.20508 211.67822 220.6926 C 210.52402 219.70638 207.93383 217.40338 206.63874 217.34378 L 198.1258 218.80685 C 197.91446 219.7714 198.40757 219.87978 199.0199 220.3458 C 202.11403 222.67588 206.55204 224.65374 209.9984 227.24935 C 218.89065 233.94158 226.92132 243.18606 233.0283 252.4468 C 235.11997 255.6168 236.70768 259.57252 239.29787 262.1573 Z M 242.0127 259.43705 C 242.8201 258.54295 236.16038 241.39785 235.06578 239.0244 C 233.24507 235.06327 227.02428 223.24486 223.6267 221.20197 C 220.2291 219.15908 215.37385 218.3896 211.66739 217.7231 C 221.3562 226.1981 228.83416 235.89776 235.06037 247.15804 C 236.95153 250.58272 238.43628 255.05866 240.27867 258.19614 C 240.7176 258.94394 240.9452 259.64838 242.0127 259.43705 Z M 236.58847 269.1909 C 237.4934 266.35144 238.13825 265.53862 236.8865 262.66666 C 232.08002 251.65023 218.9611 236.73226 209.44568 229.4223 C 207.4353 227.87793 196.40261 220.23742 194.6957 220.54087 C 194.08879 220.64925 189.60202 223.67836 189.99759 224.21482 C 205.9397 230.04004 220.00693 240.90474 229.23515 255.1562 L 236.58847 269.19632 Z M 253.39218 221.51084 C 251.99955 221.17487 252.4439 221.95518 251.9833 222.52415 C 250.2601 224.6429 244.4674 232.5652 244.18563 234.83568 C 244.05558 235.86525 244.5758 242.63334 244.7546 243.96636 C 244.88466 244.9309 245.59994 245.72206 245.75167 246.76247 C 246.31522 250.62607 246.79208 254.51136 247.44233 258.3533 C 248.20638 259.15527 248.42314 258.2991 248.52068 257.5513 C 248.77536 255.5572 248.3852 253.14582 248.52068 251.04332 C 249.18177 241.02395 250.91037 231.2105 253.38676 221.50542 Z M 245.26397 258.3533 L 242.15358 235.7352 L 237.1466 230.44645 L 230.09674 225.30942 C 232.29136 229.96417 235.14707 234.31547 237.2333 239.02983 C 239.68802 244.5787 241.15652 252.17043 243.61124 257.03652 C 244.0068 257.81683 244.1152 258.57546 245.2694 258.3533 Z M 255.02324 268.10714 C 253.66312 262.68833 248.36895 258.31536 242.92305 261.7021 C 238.42002 264.50363 237.00572 274.0949 238.22495 278.95016 C 239.6501 279.00977 240.13779 277.44374 241.44372 277.0265 C 242.48413 276.69594 244.0339 276.9994 244.7492 276.5388 C 245.14476 276.2787 245.9901 273.47717 246.66203 272.49095 C 248.5261 269.74903 251.7882 268.37266 255.02324 268.11256 Z M 260.43663 287.61483 L 259.6184 272.9949 C 255.39714 267.92832 248.2118 270.79486 246.89503 276.7718 C 251.268 276.2841 253.49514 284.59656 254.48136 285.17637 C 255.23457 285.6207 256.57844 285.42564 257.59175 285.85914 C 258.66468 286.31432 259.11986 287.75572 260.43663 287.61483 Z M 98.41438 280.5758 C 97.80747 287.9508 107.29038 292.63806 111.87469 286.17343 C 115.01217 281.7517 113.5491 277.9206 113.58703 272.98948 C 109.50125 277.01023 104.44009 280.7167 98.41438 280.5758 Z M 83.24714 273.53136 C 82.80822 274.05157 83.6969 286.49856 84.05454 287.07837 C 84.47179 287.76656 86.96444 288.69317 87.85854 288.7311 C 92.12314 288.9316 95.6562 284.64533 95.48822 280.5433 L 90.66007 278.8418 L 83.24714 273.52594 Z M 158.56852 285.45273 L 158.56852 274.07324 C 157.17047 274.924 155.9133 275.97524 154.43397 276.7122 C 153.19849 277.32994 150.48367 277.5196 150.39697 278.6684 C 150.73835 282.98176 154.13052 286.27097 158.56852 285.4473 Z M 147.73091 278.40287 C 143.16286 278.9068 139.29384 276.40875 135.2785 274.87522 L 142.11161 287.6582 C 146.9181 287.44685 148.26738 282.51032 147.73091 278.39745 Z M 251.7015 285.3823 C 251.76654 280.01767 245.89256 277.01023 241.27573 279.5625 C 236.90276 281.97928 239.55797 288.7311 238.23037 293.03364 L 244.73835 291.68977 C 246.22852 288.68776 248.3581 286.26555 251.70693 285.3823 Z M 158.56852 287.61483 C 154.33102 288.2109 151.95758 286.23846 149.35656 283.2852 C 149.18857 286.70447 146.47375 288.3247 143.94317 290.0587 C 148.0994 298.17066 158.96951 297.5475 158.56852 287.62025 Z M 97.3252 284.91085 C 95.81335 284.51528 96.2306 286.07047 95.41778 287.04586 C 93.94386 288.8178 92.18275 290.1725 89.7768 290.35675 C 89.73345 302.20767 104.88985 304.07174 106.04405 291.76022 C 102.41345 290.41635 98.30058 289.19712 97.33061 284.91085 Z M 117.92207 296.8268 L 114.94715 284.91085 L 109.32243 291.5814 C 111.07812 294.7568 114.13433 297.1411 117.92207 296.8268 Z M 260.44205 300.0835 C 260.16027 296.0194 261.68837 291.5814 258.01442 288.68776 C 253.63603 285.23598 248.39062 288.31386 246.38025 292.77353 C 249.51774 294.71347 251.50644 297.3145 251.23008 301.16184 C 254.27545 299.73128 257.1474 300.04557 260.44205 300.0835 Z M 81.0742 288.16213 C 79.833295 287.90203 80.20719 288.28676 79.85497 288.85032 C 77.77957 292.1883 75.00514 301.86087 74.19232 305.9304 C 73.23861 310.69894 72.127755 320.13308 72.95141 324.73364 C 73.06521 325.36222 73.22235 325.73612 73.77507 326.08834 L 76.77167 324.64152 C 75.79629 317.59708 76.6362 309.8265 78.19682 302.88502 C 79.3456 297.7751 81.85993 293.53217 81.0742 288.1567 Z M 98.32226 302.33772 C 91.82511 302.25102 87.95608 297.0002 87.88564 290.8336 L 83.78902 289.78777 C 84.46095 293.07157 86.62848 311.6147 88.65511 312.8231 C 89.50586 313.33248 92.63793 313.21326 93.70002 312.9694 C 97.26559 312.1566 99.95873 305.5565 98.32226 302.33772 Z M 117.38561 298.45244 C 115.86293 298.5608 114.66537 298.51747 113.19145 298.0406 C 110.79092 297.2549 109.96185 294.68637 107.63176 294.1228 C 107.34998 297.44996 104.2721 300.91258 101.12378 301.71456 C 104.5322 313.6305 118.61026 310.93195 117.38561 298.45244 Z M 159.64686 294.1228 C 157.58772 294.58883 157.07835 296.44207 154.92709 297.2549 C 153.21474 297.89972 151.70832 298.05145 149.89302 297.91598 C 151.59994 302.587 148.55457 307.66983 145.02693 310.64475 C 148.2186 315.39162 155.29015 316.2749 158.47098 311.0945 C 159.21336 309.89154 160.70895 303.95795 160.75772 302.5003 C 160.84442 299.9643 159.26755 296.82138 159.64145 294.1174 Z M 234.43178 307.12253 C 239.5363 309.08955 239.60132 305.822 242.94473 304.53234 C 246.6566 303.09636 250.2818 305.66487 249.4798 300.4845 C 248.62363 294.9573 241.98018 291.66268 238.06238 295.71053 C 236.75103 297.06523 236.06284 304.99836 234.43178 307.1171 Z M 82.70526 324.4627 C 80.71656 316.71923 84.29839 308.65605 82.46683 301.13475 C 82.27718 300.35444 82.00082 299.21107 81.08504 298.99974 C 78.78205 307.29593 77.9909 315.86306 78.3648 324.46812 L 82.70526 324.46812 Z M 148.26738 300.6254 C 145.76389 300.06183 134.76913 306.46685 136.35142 308.74275 C 142.65891 311.3221 148.0127 307.27967 148.26738 300.6254 Z M 119.55855 301.16726 C 119.3147 302.68995 118.88662 304.68407 118.20385 306.0442 C 116.65407 309.1329 113.33234 309.25212 116.83831 313.35957 C 117.8137 314.49752 120.56103 316.08523 122.02952 316.302 C 123.666 316.54583 127.54045 316.3887 126.93354 314.1453 L 119.56397 301.16184 Z M 259.34745 318.50744 C 259.98687 317.85718 260.72924 305.19885 260.43663 303.60572 C 259.78637 300.01848 252.2705 302.22935 252.28674 304.6895 C 252.29216 305.8762 254.8932 307.20923 255.43507 309.14374 C 256.11784 311.59304 255.7277 314.34038 255.63015 316.81677 L 259.34745 318.50744 Z M 245.1285 305.63778 C 244.19647 305.8762 240.90184 307.9462 240.91267 309.02453 C 240.9181 309.7127 243.0206 311.7556 243.3999 313.598 C 243.75755 315.3266 243.32946 317.41284 243.72503 318.69168 C 244.54327 321.3198 247.85958 317.0552 249.58276 316.58918 C 252.0158 315.9335 254.35673 317.24486 254.38382 313.365 C 254.42175 308.62354 249.9079 304.39687 245.12309 305.63778 Z M 112.50327 310.9211 C 107.59383 312.71473 103.91988 309.80484 100.59273 306.58607 C 100.53855 308.0058 100.05627 309.3063 99.40602 310.55263 C 98.35477 312.5576 96.94046 313.18617 95.79709 314.87142 C 99.73656 327.30216 114.02053 323.7745 112.50869 310.9211 Z M 161.82522 306.58607 C 163.03904 309.1871 158.8774 313.3108 158.77986 314.44333 C 158.72567 315.07733 159.58726 316.55667 159.66854 317.70545 C 159.92864 321.2006 158.25423 323.5686 156.42268 326.29968 C 160.47052 331.47464 170.30565 328.79775 169.99678 322.0134 C 169.88299 319.5045 166.49623 315.73843 165.1632 313.2566 C 164.04693 311.1812 163.5755 308.16294 161.8198 306.58065 Z M 226.84546 320.12224 C 231.42435 322.7666 232.86575 319.2769 236.69684 318.3286 C 238.8427 317.79757 242.13732 318.7296 241.91515 316.2153 C 241.51416 311.696 238.08406 308.43388 233.43472 309.38217 Z M 142.7727 311.53885 C 139.58645 311.45757 136.90956 311.83147 134.18932 309.83735 C 132.7154 312.02113 131.5341 316.81135 128.75968 316.8872 C 127.63799 318.10645 132.24397 321.67744 133.62035 322.0405 C 140.55642 323.87747 145.1624 317.9764 142.7727 311.53344 Z M 88.12407 324.4573 L 84.33632 312.54675 C 84.26046 315.2453 83.65897 321.8129 84.41218 324.11048 C 84.94865 325.74696 86.94818 324.71197 88.12407 324.4573 Z M 114.94715 314.18323 C 113.79836 315.7059 113.97718 317.57 113.14269 319.41238 C 112.58455 320.64245 109.92933 323.31933 110.02145 323.9479 C 114.57325 334.09734 127.65424 330.54802 125.97441 319.39612 C 125.52465 318.0306 123.37339 318.68084 122.12706 318.36655 C 119.01667 317.59166 117.00087 316.7951 114.94173 314.18323 Z M 145.5634 314.71427 C 145.5634 317.50496 144.27372 320.12224 142.35004 322.10552 C 145.2491 328.48887 155.26847 328.0933 157.11086 321.1139 C 159.19169 313.24036 155.43645 316.8493 151.9359 316.7355 C 149.57873 316.65962 147.70924 315.26157 145.5634 314.70885 Z M 94.01972 315.31576 L 88.66595 315.51626 C 90.17779 318.7838 94.26357 334.35744 96.62075 335.73923 C 99.17301 337.24024 103.58391 336.17274 105.46424 333.95103 C 107.82684 331.15493 106.95983 327.8386 107.08988 324.4627 C 100.64692 325.50853 95.29314 321.62325 94.01972 315.31576 Z M 246.35857 352.0986 C 250.3143 348.5818 260.06815 324.70113 258.56172 321.2385 C 257.20702 318.1227 252.09167 317.52663 249.2197 318.93552 C 244.91175 321.04344 248.40688 323.37894 248.5586 326.89575 C 248.65615 329.25293 247.2906 331.54508 247.4315 332.851 C 247.5182 333.66925 249.15468 335.31657 249.7074 336.55747 C 251.08377 339.65703 250.87786 341.64573 249.54483 344.7236 C 248.30392 347.59558 244.89008 349.08575 246.35857 352.0986 Z M 245.7625 331.4692 C 249.133 322.45233 240.04025 315.93892 233.04457 322.85874 C 234.32883 326.96077 235.19584 330.01156 233.35344 334.22197 C 237.18996 330.93817 240.84765 330.39087 245.7625 331.4692 Z M 139.06083 324.4627 C 134.76371 324.9775 131.50701 323.9154 128.22322 321.21684 C 128.25573 325.63316 126.76014 327.74108 123.68226 330.38004 C 122.40884 331.47464 125.18869 333.81556 126.08279 334.4604 C 133.84252 340.01467 140.81652 332.85643 139.0554 324.46812 Z M 231.71696 333.1382 C 232.98496 329.1283 232.41057 323.35727 227.5228 322.40356 C 224.24985 321.76414 219.5951 328.04453 216.56057 329.616 C 217.6931 329.8165 219.3946 332.60175 219.61135 332.63426 C 220.59216 332.7914 223.56708 331.42045 225.49076 331.4638 C 227.92922 331.5234 229.4248 332.97023 231.71696 333.1328 Z M 168.31695 338.54618 C 173.00422 340.61074 179.00825 337.3378 179.5989 332.17908 C 180.12995 327.55142 174.6136 326.55436 172.38106 323.38436 C 172.32145 325.25385 168.60415 328.8953 168.40365 329.71894 C 168.02434 331.2579 169.86673 336.23776 168.31695 338.54618 Z M 152.58074 328.83026 C 148.22944 329.28544 144.4688 327.76275 141.23377 325.01 C 141.2988 327.93074 141.48303 330.25 140.2367 332.9594 C 139.1096 335.4141 136.63862 335.9289 139.41305 338.47573 C 146.48459 344.9783 155.64779 337.32694 152.58074 328.82484 Z M 166.66422 330.9978 C 164.32871 330.7973 161.92818 331.26872 159.60893 330.73226 C 157.28968 330.1958 156.27637 328.25587 154.22806 327.7194 C 154.42856 329.45884 155.2793 331.54508 155.17635 333.27368 C 154.94334 337.18606 150.6679 339.7058 155.8537 341.5265 C 163.03362 344.04626 168.72336 338.08016 166.6588 330.9978 Z M 120.6098 332.08154 C 118.74573 332.08154 117.16344 332.16282 115.31563 331.68597 C 112.85007 331.05197 111.52246 328.99824 109.2574 328.2667 C 109.39287 330.082 109.1111 331.8973 108.2766 333.51752 C 107.21993 335.57125 104.66226 336.5629 104.09328 337.47325 C 102.73316 339.6516 107.26328 344.4852 109.39829 345.1842 C 118.55607 348.1754 122.80441 339.94423 120.60438 332.08154 Z M 181.32208 345.60146 C 187.19607 346.9724 193.70947 337.67375 188.89757 333.42 C 188.62121 333.17614 182.75807 330.6239 182.12407 330.43423 C 180.7802 330.0278 181.4684 333.50127 181.07824 334.78553 C 180.77478 335.7826 179.33338 336.88802 179.2521 337.82547 C 179.1654 338.82253 182.41668 343.5044 181.32208 345.60146 Z M 204.16776 338.4703 C 204.56875 338.71416 208.61118 338.7575 210.41564 339.5378 C 212.4748 340.4265 213.95954 342.17136 215.1896 343.965 C 218.56552 341.50484 220.41334 335.4466 217.05368 332.3579 C 213.3743 328.97115 206.99638 334.27074 202.44458 333.9456 C 201.53964 334.65005 202.18448 334.53626 202.43916 335.04563 C 202.72094 335.6092 203.99978 338.3782 204.16234 338.47573 Z M 233.35344 346.14334 C 237.13577 344.49602 241.6713 345.18963 244.45657 348.2946 C 247.82707 345.2655 249.98375 339.9388 247.1443 335.8693 C 244.30485 331.79976 237.6939 332.51505 234.68647 335.83135 C 233.15837 337.5166 234.6973 339.6787 234.45346 342.09007 C 234.29631 343.629 233.26132 344.62066 233.35344 346.14334 Z M 198.19082 345.52018 C 201.61009 347.47636 203.96727 335.82594 198.8194 334.33035 L 191.6178 333.6801 L 192.2193 340.66493 C 195.075 339.9605 197.37258 345.05416 198.19082 345.5256 Z M 227.39276 348.84732 C 228.37356 349.5355 231.71696 344.52854 232.00416 343.4502 C 233.66231 337.23482 228.75288 331.8702 222.4779 333.92394 C 219.96358 334.7476 221.1828 337.14812 220.76014 339.2506 C 220.4567 340.7733 218.92858 342.59944 218.16995 343.9704 C 221.80597 343.52064 226.08683 345.2709 227.39276 348.84732 Z M 135.77703 337.4841 C 132.54742 338.73583 130.1469 338.90924 126.9227 337.41365 C 125.22662 336.6225 124.51134 335.08898 122.799 334.76927 C 123.90985 336.9368 122.89653 340.2206 121.99701 342.361 C 121.22212 344.198 119.50436 344.2359 120.49058 346.5335 C 121.3576 348.5493 124.97194 350.89563 127.10153 351.3183 C 135.47358 352.99813 139.20172 344.2251 135.77161 337.4841 Z M 97.87791 338.557 C 97.50943 338.88214 101.94744 346.2788 102.52725 347.17833 C 103.9253 349.3296 112.66583 361.19136 114.37275 361.2835 C 121.46055 361.67905 120.05166 347.32464 116.61614 347.2542 C 115.78164 347.23794 114.5895 347.81233 113.33776 347.8015 C 107.28496 347.75814 103.65436 344.33346 101.68733 338.80628 L 97.8725 338.56243 Z M 178.02745 339.6787 C 173.89832 341.1743 171.08054 341.48317 166.69673 340.72453 C 167.813 344.6098 169.2544 347.9424 167.7805 352.0986 C 176.09294 353.61587 181.73933 347.61184 178.02745 339.68412 Z M 204.14609 340.78956 C 203.81554 344.3714 200.98692 346.3601 199.20956 349.11284 C 200.9219 350.2779 202.5909 350.23454 204.48747 351.42667 C 206.50869 352.7001 207.289 354.6292 209.14222 355.843 C 218.16453 351.13406 214.04624 339.3265 204.14609 340.78956 Z M 150.94968 341.82997 C 146.53878 343.21177 143.2875 343.32556 139.06083 341.27183 C 139.51059 345.14628 138.59481 348.067 135.89625 350.8306 C 142.58305 363.29385 157.61481 354.32573 150.94968 341.82997 Z M 182.95314 348.8419 C 183.35955 349.3079 185.09357 349.62763 186.11772 351.3725 C 188.502 355.4366 185.1044 359.75538 192.01338 357.10016 C 199.43715 354.24445 199.21497 345.04332 191.79121 342.4152 L 191.08135 342.5832 C 189.43403 346.0404 186.88178 346.52807 183.75513 347.76356 C 183.26201 347.95864 182.05362 347.81233 182.95856 348.8419 Z M 153.6916 342.89206 C 153.62657 344.68026 154.74285 346.3005 154.7862 348.0616 C 154.87832 351.7843 151.07432 354.72673 157.2084 355.3499 C 164.85975 356.1302 168.84258 349.63305 165.0765 343.12506 C 163.91146 342.39353 162.75726 343.77532 161.51635 343.9433 C 158.6769 344.32262 156.32514 343.75365 153.6916 342.89206 Z M 220.40792 360.70367 C 221.92518 361.59777 225.041 357.90214 225.66958 356.6179 C 229.09968 349.5951 222.84096 344.51228 216.03494 346.17043 C 216.58224 350.4296 215.13542 353.1607 212.75657 356.43365 C 215.6448 356.57454 219.37293 357.76667 220.41334 360.70367 Z M 226.30358 359.68493 C 230.55734 359.77705 233.38595 361.93374 235.2446 365.6402 L 243.90385 356.42823 C 245.91965 348.36505 238.91314 345.4172 232.31845 348.636 C 231.8416 348.869 228.7041 350.939 228.5903 351.13406 C 227.96173 352.23408 228.85583 357.8642 226.30358 359.68493 Z M 169.94801 354.27696 C 170.5495 355.9026 172.19682 357.98885 172.4244 359.66326 C 172.61406 361.09924 171.17266 364.4318 173.00422 365.0333 C 183.74429 367.03825 190.9513 355.60457 180.42256 349.45423 C 178.591 350.66262 178.36342 352.01732 176.11461 353.12276 C 174.10423 354.109 172.20765 354.4883 169.95343 354.2824 Z M 124.61971 365.45596 C 128.80303 369.623 136.8066 369.4767 138.69777 363.3914 C 140.63228 357.1652 137.21301 356.6775 133.81 352.71635 C 129.06855 354.21736 124.92858 353.96267 121.17877 350.47296 C 122.21918 356.477 119.60732 360.46524 124.61971 365.45054 Z M 198.69477 367.7969 C 209.23434 366.57765 210.07426 353.75676 199.51843 351.54047 C 198.23417 355.27402 196.18044 357.577 192.71783 359.414 C 195.8824 361.4352 197.99574 364.0254 198.70019 367.79146 Z M 156.44435 368.30625 C 167.35782 373.763 176.13087 362.3564 166.40411 354.2824 L 165.64548 354.30406 C 164.05777 357.5391 158.5306 358.27604 155.32266 356.98095 C 155.38768 358.53614 156.65027 359.48985 156.90495 361.07756 C 157.30052 363.55938 156.56898 365.88946 156.44435 368.31167 Z M 152.51572 356.5366 C 151.11225 355.71295 148.71172 358.2869 146.88016 358.57408 C 145.0486 358.86127 143.04365 358.4603 141.22293 358.6066 C 141.59683 361.782 140.72982 364.4264 139.12043 367.1087 L 139.29384 367.82398 C 146.26784 375.4049 158.08083 370.0511 154.3527 359.8475 C 154.19555 359.4194 152.67828 356.63956 152.51572 356.54202 Z M 210.1176 374.7817 C 223.9789 374.45117 223.53457 355.76714 209.03385 358.68245 C 209.3373 362.9362 207.13185 366.4422 203.5446 368.63138 C 206.37863 369.8235 209.2506 371.64965 210.12303 374.7817 Z M 182.94772 376.48864 C 197.33465 379.1601 202.75345 362.3239 187.09853 360.1943 C 185.41328 363.5323 182.6497 366.5614 178.61268 366.7402 C 181.13784 369.52006 183.56547 372.4191 182.9423 376.48864 Z M 120.06792 361.33225 L 116.30185 363.22883 C 115.94963 364.65397 128.90599 373.8226 130.97597 375.07975 C 132.49324 376.00637 137.41351 379.5557 138.7953 378.1197 C 140.53474 375.031 139.66231 371.6984 137.43519 369.1245 C 135.35978 369.17326 134.0376 370.5063 131.74544 370.56047 C 126.5488 370.6851 121.36843 366.18208 120.07334 361.32683 Z M 210.04716 381.90203 C 216.92363 378.9217 225.46908 374.6625 230.88789 369.42252 C 236.72936 363.77613 227.42527 360.0751 222.49416 362.65444 C 221.5296 363.38056 222.09317 366.92987 221.83306 368.4959 C 221.0365 373.3403 215.1842 376.6187 210.63781 377.0793 L 210.04175 381.90203 Z M 162.98485 380.737 C 178.0708 390.55044 190.53405 371.35704 171.37858 366.69145 C 168.95637 371.09693 164.9898 372.0994 160.18875 371.61714 C 162.31834 374.35905 163.15283 377.26895 162.98485 380.7424 Z M 140.14459 380.27097 C 145.09737 381.2626 153.26351 387.2775 157.99955 384.3188 C 163.71097 380.74782 160.10204 372.3812 154.94334 370.05652 C 150.84673 373.55707 146.82055 374.82507 141.77565 372.1536 C 142.13329 375.28025 141.51555 377.55073 140.14459 380.2764 Z M 196.50015 386.2425 C 201.14407 385.34297 207.8363 384.70355 208.43778 378.93252 C 209.09345 372.6142 204.24904 370.24076 198.65142 370.20283 C 197.41051 373.7413 195.57896 376.8192 191.62323 377.57782 C 194.50603 379.89707 196.61395 382.25425 196.50015 386.2425 Z M 158.56852 386.77895 C 170.18644 388.8652 181.74475 389.53712 193.41685 387.2233 C 194.51145 386.91984 194.38682 385.874 194.35973 384.90947 C 194.17549 379.28475 187.19065 378.0926 182.77432 378.6345 C 179.0245 386.86024 169.7421 386.3346 162.62179 383.00205 L 158.57394 386.78437 Z M 148.6792 386.91984 C 148.09397 386.3617 145.47669 385.79815 144.49047 385.42425 C 144.97274 388.9573 154.48274 405.12702 157.19757 405.19747 C 157.97787 405.1162 159.8582 404.35755 159.6306 403.34966 C 159.53307 402.91615 154.94876 397.6328 154.10885 396.3919 C 152.99257 394.7392 149.09103 387.3154 148.6792 386.92526 Z M 157.33304 389.6455 C 156.59066 389.02776 153.61032 388.48046 152.46695 388.26912 C 152.03886 388.18784 151.07432 387.3154 151.52408 388.6701 C 152.12015 390.4583 160.93112 402.694 162.15577 402.9324 L 167.22777 401.9516 C 167.2928 400.23926 165.23907 399.80576 164.22575 398.7274 C 162.35627 396.72246 158.64439 390.7401 157.32762 389.6455 Z M 177.53434 401.9516 C 176.11461 400.223 173.99044 399.13925 172.37022 397.63824 C 168.17606 393.7367 167.0327 389.77013 160.19416 390.04107 C 159.7986 390.3987 162.73016 393.883 163.16367 394.38154 C 164.05235 395.40027 169.86131 401.39347 170.49531 401.68067 C 172.29435 402.4989 175.5077 401.68067 177.52892 401.95702 Z M 187.28277 400.8787 C 185.14776 399.7245 182.75807 398.22347 180.82897 396.7604 C 177.1225 393.95887 175.61066 390.3933 169.94801 391.6613 C 169.31943 392.19234 172.19682 394.75543 172.64658 395.18894 C 176.20673 398.58653 179.72354 402.31467 184.84972 401.95702 C 185.46747 401.91367 187.27735 401.7836 187.28277 400.8787 Z M 178.07622 391.6667 L 189.47196 400.6294 L 192.13802 399.524 C 188.46949 394.6037 184.89307 390.26324 178.07622 391.6667 Z" fill="black"/>
        </g>
        <g id="Graphic_1460">
          <path d="M 182.94772 106.62677 L 182.94772 106.63218 C 180.68808 106.82184 181.80436 104.1016 180.8073 103.08829 C 180.10827 102.38384 178.2171 102.54099 177.53434 101.4789 C 177.2363 100.24883 181.11075 99.48478 180.23832 97.42022 C 178.94865 98.02712 177.47473 98.49314 176.456 97.13844 L 179.70186 93.63247 L 174.83035 93.62164 C 174.23429 91.12357 177.49099 91.35658 177.53434 89.29201 C 175.84367 89.01565 174.45104 90.09399 172.89042 90.33784 C 170.58201 90.7009 171.39483 88.7989 172.68993 87.9644 C 173.98502 87.12991 178.358 86.04073 179.5718 87.25454 C 180.9807 88.66343 179.58806 90.74425 179.70186 90.9014 C 179.79398 91.03145 181.97234 91.14524 182.3625 92.35905 C 182.98024 93.53493 181.3004 94.67288 181.40878 95.4261 C 181.6147 96.83499 184.26991 97.89707 181.86396 100.9316 L 182.94772 101.20796 C 186.04728 96.27685 188.11184 89.54128 186.51872 83.83527 C 184.92559 78.12927 179.01367 81.63524 175.3614 83.59143 C 173.519 84.57765 171.42193 86.78852 169.64998 87.0974 C 168.86425 87.23828 168.09478 87.43336 168.32779 86.31709 C 171.62784 83.23921 182.49796 76.02136 186.49162 79.52191 C 190.19808 82.77319 189.136 92.10437 187.5537 96.32562 C 186.09605 100.21632 183.00733 102.23753 182.94772 106.62677 Z M 156.93746 97.42022 L 156.93746 97.42022 C 156.3143 99.91287 152.67828 99.43059 150.70042 101.20254 C 148.23486 103.41342 148.14816 106.87061 143.40129 107.49919 C 138.00416 108.21448 136.47606 102.68188 132.01096 102.29172 C 131.29026 101.63063 135.71742 98.13008 136.38394 97.72367 C 139.29925 95.95172 141.49929 95.49654 144.83185 96.25517 C 146.72302 96.68326 149.22109 98.34141 150.76003 98.49314 C 152.74873 98.68822 154.86748 97.17095 156.93746 97.42022 Z M 174.08798 117.5565 L 174.0934 117.56191 C 175.2205 117.61068 177.01413 118.80824 177.01413 119.90826 L 176.1688 121.26838 L 172.65741 119.35554 Z M 170.22979 122.3413 L 170.22979 122.3413 C 171.82834 122.02159 175.37765 126.04234 172.91752 126.67634 C 171.4978 127.04482 167.93222 123.71226 170.22979 122.3413 Z M 167.77507 130.4695 L 167.77507 130.4695 C 166.3987 131.45573 162.2208 126.79556 164.80557 126.13446 C 166.59377 125.67928 169.28692 129.38033 167.77507 130.4695 Z M 159.38676 127.76552 L 159.38676 127.76552 C 160.606 127.5 162.95775 131.13602 160.99615 132.09515 C 158.75276 132.72915 157.73945 128.12858 159.38676 127.76552 Z M 129.07289 262.1122 C 129.90822 262.08095 130.06505 262.76578 130.48828 263.3982 C 131.76712 265.3056 132.40654 267.5815 134.17848 269.46184 C 138.54062 274.08408 145.81266 276.4575 151.88714 274.17078 C 153.4911 273.5693 157.93452 270.5456 158.81237 269.17464 C 159.96116 267.39185 161.26709 257.19908 162.0799 254.01825 C 173.50817 209.15596 201.62634 173.0017 197.0312 123.16496 C 196.66814 119.19839 194.35973 105.16369 192.43605 102.29172 C 191.88333 101.46806 191.88333 101.85822 191.34145 102.2863 C 190.50696 102.94198 187.16897 109.15735 185.66254 107.71053 L 185.64087 107.69969 C 185.15318 107.23367 189.58576 100.15671 190.07887 98.86704 C 192.28432 93.10685 194.27302 79.51107 187.99805 75.81544 C 183.56005 73.19816 177.6102 76.21644 173.55694 78.54652 C 171.48153 79.73866 166.45288 84.1008 164.78931 84.40967 C 163.98733 84.56139 163.81393 84.37716 163.96023 83.58059 C 164.23117 82.07416 166.79969 80.5569 167.75881 79.25097 C 160.15623 77.23517 149.78464 79.66821 142.55596 82.22589 C 135.32727 84.78357 132.39028 88.07278 126.41334 91.55165 C 120.02457 95.26895 113.05057 98.26013 106.53174 101.74984 C 107.33915 103.32671 109.32243 102.5735 110.85595 103.65184 C 112.8013 105.01738 112.88258 107.73762 111.44118 109.49331 C 110.80718 110.2682 109.85889 110.06771 109.37662 110.54456 C 108.69385 111.22733 108.31995 113.66579 107.17116 114.48403 C 116.12845 123.93985 132.11934 111.24359 140.67021 120.45014 C 139.85197 123.53344 137.53272 120.34176 135.81496 119.88116 C 130.006 118.32596 120.53393 122.67726 114.12349 121.25754 C 119.01125 127.2399 128.05524 125.6847 134.92086 126.73595 C 140.2367 127.54877 145.47127 128.89805 150.77086 129.85176 C 152.51572 130.16605 155.64237 129.23944 154.49358 132.08973 L 145.55797 131.00597 C 147.57377 141.64308 140.0904 152.1393 133.62035 159.98031 C 128.88973 165.7134 123.22708 170.5795 118.77824 176.56727 C 117.97084 177.65645 114.16684 182.5388 114.7304 183.50334 L 127.4104 191.56652 C 132.34693 186.4295 141.2717 179.022 148.55457 178.15498 C 149.77922 178.0141 149.3132 178.62642 149.36197 179.50427 C 145.0757 181.52548 140.8382 183.7797 137.17508 186.8359 C 135.65782 188.1039 129.10106 195.46265 128.48332 195.52225 C 127.1232 195.52767 126.12072 194.6986 125.01529 194.09169 C 111.24069 186.5433 93.06602 165.24197 76.77709 176.8328 C 75.85047 177.4939 71.86765 182.3654 74.29528 181.39543 C 75.92092 180.74517 80.62444 177.01704 82.71068 178.40967 L 82.69442 180.04073 C 77.96923 180.81562 68.61637 184.7605 74.56622 190.07093 C 75.56328 185.49746 80.8141 184.14818 84.86736 183.57379 L 84.84027 185.70338 C 81.06878 185.97974 75.92092 187.35611 76.81502 192.16801 C 80.87371 193.98331 84.16834 190.4936 88.40042 190.07635 C 90.73593 189.84335 93.96554 189.8 95.90005 191.23056 C 98.43605 193.10547 104.79231 203.94307 107.40417 207.36234 C 111.80966 213.12253 120.897 224.39906 127.92518 226.3986 C 134.89919 228.3873 141.46678 224.65916 147.3516 221.39162 C 149.15064 220.39456 160.3513 212.53188 161.2725 213.3718 C 160.58974 215.33882 157.80447 217.34378 156.1138 218.77434 C 150.20189 223.78132 138.73028 231.40557 130.72129 230.65778 C 119.58564 229.6228 108.57463 213.76195 101.9366 205.7963 C 93.37489 222.55125 85.98364 242.97472 84.3309 261.8755 C 83.90282 266.7687 83.65897 268.75197 87.28415 272.45844 C 94.09017 279.41618 103.90904 278.4733 110.31949 271.6077 C 111.92345 269.88992 112.90968 267.44062 114.22103 265.75538 C 114.64814 265.2041 114.74752 264.71655 115.52043 264.81004 C 117.96865 258.02958 126.10527 257.69488 129.07289 262.1122 Z" fill="#FFFFFF"/>
        </g>
        <g id="Graphic_1459">
          <path d="M 164.52379 75.1977 L 152.06054 76.28146 C 155.12216 71.72425 162.8006 67.015306 164.52379 75.1977 Z" fill="#FFFFFF"/>
        </g>
        <g id="Graphic_1458">
          <path d="M 83.24172 158.64729 C 82.80822 155.22802 77.06429 157.88324 75.389875 159.19459 C 74.029755 160.2621 73.894285 161.08575 73.07063 162.27789 C 72.7455 162.75474 73.16275 163.28037 71.87307 162.98233 C 69.85186 159.07537 71.0169 157.13544 74.75046 155.30389 C 76.82044 154.28515 82.04417 154.1551 80.80326 151.60284 C 77.87711 151.57033 75.075585 152.70286 72.67505 154.30683 C 73.74798 150.58953 80.10965 148.35698 83.66981 147.96682 C 89.91227 147.28406 92.84384 149.08852 97.34687 152.95212 C 104.28294 158.9074 110.68797 166.56958 117.83537 172.45982 L 111.25152 180.8102 C 107.00318 178.20917 103.09622 175.16922 98.79369 172.63864 C 97.54195 171.90168 95.54241 171.59823 94.64289 170.82876 C 93.15272 169.53909 91.06106 163.13406 88.81767 162.52173 C 86.35212 161.85522 78.73328 168.30902 75.11352 165.4208 C 71.8243 162.78725 80.65153 157.82363 83.24714 158.64729 Z" fill="#FFFFFF"/>
        </g>
        <g id="Graphic_1457">
          <path d="M 182.94772 106.62677 C 180.68808 106.82184 181.80436 104.1016 180.8073 103.08287 C 180.10827 102.373 178.22253 102.53015 177.53434 101.47348 C 177.23088 100.24883 181.11075 99.47936 180.23832 97.4148 C 178.94323 98.0217 177.46931 98.49314 176.456 97.13302 L 179.70186 93.62705 L 174.83035 93.61622 C 174.23429 91.11815 177.49099 91.35116 177.53434 89.28659 C 175.84367 89.01023 174.45104 90.08858 172.89042 90.33242 C 170.58201 90.69006 171.45444 88.75555 172.68993 87.95898 C 173.92541 87.16242 178.358 86.03531 179.5718 87.24912 C 180.9807 88.65801 179.59348 90.73883 179.70186 90.89598 C 179.79398 91.02061 181.97234 91.1344 182.3625 92.35364 C 182.98024 93.52952 181.3004 94.66205 181.40878 95.42068 C 181.60928 96.82957 184.26991 97.89165 181.86396 100.92618 L 182.94772 101.20254 C 186.04728 96.27143 188.13894 89.63881 186.51872 83.82986 C 184.8985 78.0209 179.0191 81.62982 175.3614 83.58601 C 173.519 84.57223 171.42735 86.7831 169.64998 87.09198 C 168.86425 87.22745 168.09478 87.42794 168.32779 86.31167 C 171.62242 83.23921 182.49796 76.01594 186.49162 79.51649 C 190.19808 82.76777 189.14142 92.09895 187.5537 96.3202 C 186.09605 100.2109 183.00733 102.23212 182.94772 106.62135 Z" fill="black"/>
        </g>
        <g id="Graphic_1456">
          <path d="M 156.93746 97.42022 C 156.3143 99.91287 152.67828 99.43059 150.70042 101.20254 C 148.24028 103.408 148.14816 106.86519 143.40129 107.49919 C 137.99874 108.21448 136.47606 102.68188 132.01096 102.29172 C 131.29026 101.63605 135.71742 98.13008 136.38394 97.72367 C 139.29384 95.95172 141.49929 95.49654 144.83185 96.25517 C 146.7176 96.68326 149.22109 98.34141 150.76003 98.49314 C 152.75415 98.69364 154.86748 97.17095 156.93746 97.42022 Z M 148.78758 99.61483 L 145.5634 98.5094 C 148.27821 106.32331 137.09922 107.72678 138.51353 99.04586 C 133.52281 100.20006 137.5544 104.19914 140.16626 105.25581 C 144.19243 106.88687 148.27821 103.47302 148.793 99.61483 Z" fill="black"/>
        </g>
        <g id="Graphic_1455">
          <path d="M 167.77507 130.4695 C 166.3987 131.46115 162.22622 126.80097 164.80557 126.13446 C 166.59377 125.67386 169.28692 129.38033 167.77507 130.4695 Z" fill="black"/>
        </g>
        <g id="Graphic_1454">
          <path d="M 170.22979 122.3413 C 171.82834 122.02159 175.37765 126.04776 172.91752 126.67634 C 171.4978 127.0394 167.93222 123.71226 170.22979 122.3413 Z" fill="black"/>
        </g>
        <g id="Graphic_1453">
          <path d="M 174.08798 117.5565 C 175.2151 117.60526 177.01413 118.80282 177.00871 119.90284 L 176.16338 121.26296 L 172.652 119.35012 L 174.08256 117.55108 Z" fill="black"/>
        </g>
        <g id="Graphic_1452">
          <path d="M 159.38676 127.76552 C 160.606 127.49458 162.96317 131.13602 160.99615 132.09515 C 158.74734 132.73457 157.73945 128.12858 159.38676 127.76552 Z" fill="black"/>
        </g>
        <g id="Graphic_1451">
          <path d="M 148.78758 99.61483 C 148.2728 103.47302 144.19243 106.88145 140.16084 105.25581 C 137.5544 104.19914 133.51739 100.20548 138.50811 99.04586 C 137.09922 107.72678 148.2728 106.32331 145.55797 98.5094 L 148.78216 99.61483 Z" fill="#FFFFFF"/>
        </g>
        <g id="Group_1372">
          <g id="Graphic_1450">
            <path d="M 291.3238 209.053 C 278.50292 220.27535 268.01753 234.00118 263.30317 250.65317 C 261.48246 257.0907 260.82136 263.72874 259.62922 270.27466 C 258.5888 269.28302 256.81687 267.18052 256.38336 265.90168 C 255.83606 264.28146 258.4154 255.27 259.08734 252.9399 C 262.86967 239.82098 269.23676 226.47988 277.79848 215.83735 C 279.31032 213.95702 283.31482 209.06926 285.0922 207.91506 C 286.5986 206.93425 289.54644 208.88502 291.32923 209.05843 Z" fill="#FFFFFF"/>
          </g>
          <g id="Graphic_1449">
            <path d="M 282.65372 206.88007 C 283.33108 207.47613 279.42412 210.85747 278.87682 211.4969 C 268.554 223.5754 262.08936 236.6889 257.4617 251.85614 C 256.56218 254.79855 256.14493 258.19614 255.1587 260.95973 C 254.84984 261.82674 255.45133 262.41197 253.93948 262.14645 C 254.24835 254.3759 255.66808 246.6595 257.776 239.1653 C 260.1982 230.5494 264.02387 221.4675 268.88454 213.96786 C 269.55106 212.9383 272.32006 208.72788 272.94323 208.2727 C 274.74227 206.95593 280.23152 207.33525 282.65372 206.88007 Z" fill="#FFFFFF"/>
          </g>
          <g id="Graphic_1448">
            <path d="M 239.3033 262.15187 C 236.70768 259.5671 235.11997 255.6168 233.03373 252.44137 C 226.92674 243.18064 218.89607 233.94158 210.00381 227.24393 C 206.55745 224.64833 202.11945 222.67046 199.02532 220.34038 C 198.40757 219.87436 197.91988 219.76598 198.13121 218.80144 L 206.64416 217.33836 C 207.93925 217.39255 210.52944 219.70096 211.68364 220.68718 C 223.96807 231.20508 234.41553 246.75163 239.3087 262.14645 Z" fill="#FFFFFF"/>
          </g>
          <g id="Graphic_1447">
            <path d="M 162.98485 380.737 C 163.15283 377.26895 162.31834 374.35905 160.18875 371.6117 C 164.9898 372.094 168.95637 371.0915 171.37858 366.68603 C 190.53405 371.3516 178.0708 390.545 162.98485 380.73157 Z" fill="#FFFFFF"/>
          </g>
          <g id="Graphic_1446">
            <path d="M 236.58847 269.1909 L 229.23515 255.15078 C 220.00693 240.90474 205.9397 230.03462 189.99759 224.2094 C 189.60743 223.67294 194.08879 220.64383 194.6957 220.53545 C 196.40261 220.232 207.4353 227.87251 209.44568 229.41687 C 218.9611 236.72684 232.08002 251.6394 236.8865 262.66124 C 238.13825 265.5332 237.4934 266.34603 236.58847 269.18548 Z" fill="#FFFFFF"/>
          </g>
          <g id="Graphic_1445">
            <path d="M 124.61971 365.45596 C 119.61274 360.46524 122.2246 356.4824 121.17877 350.4784 C 124.92858 353.9735 129.06855 354.22278 133.81 352.72177 C 137.21301 356.6775 140.63228 357.1706 138.69777 363.3968 C 136.8066 369.4767 128.80303 369.623 124.61971 365.46138 Z" fill="#FFFFFF"/>
          </g>
          <g id="Graphic_1444">
            <path d="M 269.1067 209.58947 L 261.60167 222.9414 C 256.49716 234.42927 253.14292 246.88168 252.30842 259.44247 L 250.6882 259.44247 C 250.5419 246.23684 251.70693 231.95287 256.63804 219.60342 C 257.6947 216.95904 258.42625 215.26838 260.778 213.47475 C 261.74256 212.7432 268.51606 209.02591 269.1067 209.58947 Z" fill="#FFFFFF"/>
          </g>
          <g id="Graphic_1443">
            <path d="M 140.14459 380.27097 C 141.51013 377.5453 142.12787 375.27483 141.77565 372.1482 C 146.82055 374.81965 150.85215 373.55165 154.94334 370.0511 C 160.10204 372.37577 163.71097 380.74782 157.99955 384.3134 C 153.26351 387.27206 145.09737 381.2572 140.14459 380.26555 Z" fill="#FFFFFF"/>
          </g>
          <g id="Graphic_1442">
            <path d="M 226.30358 359.68493 C 228.85583 357.8642 227.96173 352.22866 228.5903 351.13406 C 228.7041 350.939 231.8416 348.869 232.31845 348.636 C 238.91314 345.42264 245.91965 348.36505 243.90385 356.42823 L 235.2446 365.6402 C 233.38595 361.93374 230.55734 359.77705 226.30358 359.68493 Z" fill="#FFFFFF"/>
          </g>
          <g id="Graphic_1441">
            <path d="M 94.01972 315.31576 C 95.29314 321.62325 100.6415 325.5031 107.08988 324.4627 C 106.96525 327.8386 107.83226 331.16034 105.46424 333.95103 C 103.58391 336.17274 99.17301 337.24566 96.62075 335.73923 C 94.26357 334.35202 90.18321 318.7838 88.66595 315.51626 L 94.01972 315.31576 Z" fill="#FFFFFF"/>
          </g>
          <g id="Graphic_1440">
            <path d="M 120.6098 332.08154 C 122.80441 339.94423 118.55607 348.1808 109.40371 345.1842 C 107.2687 344.4852 102.73858 339.65703 104.0987 337.47325 C 104.66768 336.5629 107.22535 335.56583 108.28202 333.51752 C 109.11651 331.8973 109.39829 330.0766 109.26282 328.2667 C 111.52246 329.00366 112.85549 331.05197 115.32104 331.68597 C 117.16886 332.16282 118.75115 332.07612 120.61522 332.08154 Z" fill="#FFFFFF"/>
          </g>
          <g id="Graphic_1439">
            <path d="M 242.0127 259.43705 C 240.9452 259.64838 240.7176 258.94394 240.27867 258.19614 C 238.43628 255.05866 236.95695 250.5773 235.06037 247.15804 C 228.83416 235.90318 221.3562 226.1981 211.66739 217.7231 C 215.37385 218.39503 220.38624 219.25662 223.6267 221.20197 C 227.02428 223.24486 233.24507 235.06327 235.06578 239.0244 C 236.16038 241.40327 242.8201 258.54295 242.0127 259.43705 Z" fill="#FFFFFF"/>
          </g>
          <g id="Graphic_1438">
            <path d="M 246.35857 352.0986 C 244.89008 349.08575 248.2985 347.59558 249.54483 344.7236 C 250.87786 341.64573 251.08377 339.65703 249.7074 336.55747 C 249.15468 335.31657 247.5182 333.66383 247.4315 332.851 C 247.2906 331.54508 248.66156 329.25293 248.5586 326.89575 C 248.4123 323.37894 244.91717 321.038 249.2197 318.93552 C 252.0971 317.52663 257.20702 318.1227 258.56172 321.2385 C 260.06815 324.70113 250.30888 348.5872 246.35857 352.0986 Z" fill="#FFFFFF"/>
          </g>
          <g id="Graphic_1437">
            <path d="M 158.56852 386.77895 L 162.61637 382.99663 C 169.73668 386.3346 179.0191 386.8548 182.7689 378.62907 C 187.18523 378.0926 194.17007 379.27933 194.3543 384.90405 C 194.38682 385.8686 194.50603 386.909 193.41143 387.21788 C 181.74475 389.5317 170.18102 388.85977 158.5631 386.77353 Z" fill="#FFFFFF"/>
          </g>
          <g id="Graphic_1436">
            <path d="M 182.94772 376.48864 C 183.57089 372.4137 181.14326 369.51464 178.6181 366.7402 C 182.6551 366.5614 185.4187 363.5323 187.10395 360.1943 C 202.75887 362.3293 197.34007 379.1601 182.95314 376.48864 Z" fill="#FFFFFF"/>
          </g>
          <g id="Graphic_1435">
            <path d="M 159.64686 294.1228 C 159.27297 296.82138 160.84442 299.9643 160.76314 302.5057 C 160.71437 303.96337 159.21336 309.89696 158.4764 311.09993 C 155.29556 316.2803 148.22403 315.39704 145.03235 310.65017 C 148.55999 307.67525 151.60536 302.5924 149.89844 297.9214 C 151.71374 298.05687 153.22016 297.90514 154.9325 297.2603 C 157.08377 296.4475 157.59314 294.58883 159.65228 294.12824 Z" fill="#FFFFFF"/>
          </g>
          <g id="Graphic_1434">
            <path d="M 135.77703 337.4841 C 139.20713 344.2251 135.47358 352.99813 127.10694 351.3183 C 124.97735 350.8902 121.36843 348.5493 120.496 346.5335 C 119.50436 344.2305 121.22754 344.198 122.00243 342.361 C 122.90737 340.2206 123.91527 336.9368 122.80441 334.76927 C 124.51676 335.08898 125.23204 336.6279 126.92812 337.41365 C 130.1469 338.90924 132.54742 338.73583 135.78245 337.4841 Z" fill="#FFFFFF"/>
          </g>
          <g id="Graphic_1433">
            <path d="M 150.94968 341.82997 C 157.61481 354.33115 142.58305 363.29385 135.89625 350.8306 C 138.59481 348.067 139.51059 345.14086 139.06083 341.27183 C 143.2875 343.32556 146.53878 343.21177 150.94968 341.82997 Z" fill="#FFFFFF"/>
          </g>
          <g id="Graphic_1432">
            <path d="M 97.87791 338.557 L 101.69275 338.80086 C 103.65978 344.32804 107.29038 347.75272 113.34318 347.79607 C 114.60034 347.8069 115.78706 347.2325 116.62156 347.24878 C 120.05708 347.3192 121.46597 361.67905 114.37817 361.27806 C 112.67125 361.1805 103.93072 349.32418 102.53267 347.1729 C 101.94744 346.2734 97.51485 338.87672 97.88333 338.5516 Z" fill="#FFFFFF"/>
          </g>
          <g id="Graphic_1431">
            <path d="M 98.32226 302.33772 C 99.95873 305.5565 97.26559 312.1566 93.70002 312.9694 C 92.63793 313.21326 89.50586 313.33248 88.65511 312.8231 C 86.62848 311.6147 84.46095 293.07157 83.78902 289.78777 L 87.88564 290.8336 C 87.95608 297.0002 91.82511 302.25102 98.32226 302.33772 Z" fill="#FFFFFF"/>
          </g>
          <g id="Graphic_1430">
            <path d="M 255.02324 268.10714 C 251.7828 268.36724 248.52068 269.7382 246.66203 272.48553 C 245.9901 273.47717 245.15018 276.2787 244.7492 276.53338 C 244.0339 276.9994 242.48413 276.69052 241.44372 277.02107 C 240.13779 277.43832 239.6555 279.00977 238.22495 278.94475 C 237.00572 274.0949 238.4146 264.50363 242.92305 261.6967 C 248.36895 258.30994 253.66312 262.6829 255.02324 268.10172 Z" fill="#FFFFFF"/>
          </g>
          <g id="Graphic_1429">
            <path d="M 210.1176 374.7817 C 209.24518 371.64965 206.37863 369.8235 203.53918 368.63138 C 207.13185 366.4422 209.3373 362.9362 209.02843 358.68245 C 223.52915 355.76714 223.9789 374.45117 210.1122 374.7817 Z" fill="#FFFFFF"/>
          </g>
          <g id="Graphic_1428">
            <path d="M 152.51572 356.5366 C 152.67828 356.63414 154.19555 359.40857 154.3527 359.84208 C 158.08083 370.0457 146.26784 375.39946 139.29384 367.81856 L 139.12043 367.10327 C 140.72982 364.42097 141.59683 361.7766 141.22293 358.60117 C 143.04365 358.45486 145.09737 358.845 146.88016 358.56866 C 148.66295 358.2923 151.11225 355.70753 152.51572 356.5312 Z" fill="#FFFFFF"/>
          </g>
          <g id="Graphic_1427">
            <path d="M 196.50015 386.2425 C 196.61395 382.25425 194.50603 379.89165 191.62323 377.57782 C 195.57354 376.8192 197.41051 373.74673 198.65142 370.20283 C 204.24904 370.24076 209.09887 372.6142 208.43778 378.93252 C 207.8363 384.69813 201.14407 385.33755 196.50015 386.2425 Z" fill="#FFFFFF"/>
          </g>
          <g id="Graphic_1426">
            <path d="M 112.50327 310.9211 C 114.01511 323.7745 99.73656 327.30216 95.79167 314.87142 C 96.93504 313.18617 98.35477 312.5576 99.4006 310.55263 C 100.05085 309.3063 100.53855 308.0112 100.58732 306.58607 C 103.91446 309.81026 107.58841 312.71473 112.49785 310.9211 Z" fill="#FFFFFF"/>
          </g>
          <g id="Graphic_1425">
            <path d="M 156.44435 368.30625 C 156.56898 365.88404 157.30052 363.55938 156.90495 361.07215 C 156.65027 359.48444 155.38768 358.53073 155.32266 356.97553 C 158.5306 358.27062 164.05777 357.53367 165.64548 354.29864 L 166.40411 354.27696 C 176.13629 362.351 167.36324 373.75757 156.44435 368.30083 Z" fill="#FFFFFF"/>
          </g>
          <g id="Graphic_1424">
            <path d="M 161.82522 306.58607 C 163.58092 308.17378 164.05235 311.18663 165.16863 313.26203 C 166.50165 315.74385 169.8884 319.5099 170.0022 322.01882 C 170.31107 328.80316 160.47594 331.48005 156.4281 326.3051 C 158.25423 323.574 159.93406 321.206 159.67396 317.71087 C 159.58726 316.5621 158.73109 315.08275 158.78527 314.44875 C 158.88281 313.31622 163.04446 309.1925 161.83064 306.5915 Z" fill="#FFFFFF"/>
          </g>
          <g id="Graphic_1423">
            <path d="M 233.35344 346.14334 C 233.26132 344.62066 234.29631 343.629 234.45346 342.09007 C 234.6973 339.6787 233.16378 337.5166 234.68647 335.83135 C 237.68849 332.51505 244.35362 331.88646 247.1443 335.8693 C 249.93498 339.8521 247.82707 345.2655 244.45657 348.2946 C 241.6713 345.18963 237.1412 344.49602 233.35344 346.14334 Z" fill="#FFFFFF"/>
          </g>
          <g id="Graphic_1422">
            <path d="M 114.94715 314.18323 C 117.00629 316.7951 119.02209 317.59166 122.13248 318.36655 C 123.37339 318.67542 125.52465 318.0306 125.97983 319.39612 C 127.65966 330.54802 114.57867 334.09734 110.02687 323.9479 C 109.93475 323.32475 112.58997 320.64786 113.1481 319.41238 C 113.9826 317.57 113.80378 315.7059 114.95257 314.18323 Z" fill="#FFFFFF"/>
          </g>
          <g id="Graphic_1421">
            <path d="M 169.94801 354.27696 C 172.20223 354.4829 174.09882 354.109 176.1092 353.11734 C 178.36342 352.0119 178.58559 350.6572 180.41714 349.4488 C 190.9513 355.59915 183.73887 367.03825 172.9988 365.02787 C 171.16182 364.4264 172.60864 361.0938 172.41899 359.65784 C 172.19682 357.98343 170.5495 355.8972 169.9426 354.27155 Z" fill="#FFFFFF"/>
          </g>
          <g id="Graphic_1420">
            <path d="M 210.04716 381.90203 L 210.64323 377.0793 C 215.1896 376.6187 221.04192 373.3403 221.83848 368.4959 C 222.09859 366.92987 221.53503 363.38056 222.49958 362.65444 C 227.42527 360.0751 236.73478 363.77613 230.8933 369.42252 C 225.4745 374.6625 216.92905 378.9217 210.05258 381.90203 Z" fill="#FFFFFF"/>
          </g>
          <g id="Graphic_1419">
            <path d="M 117.38561 298.45244 C 118.61568 310.93195 104.53762 313.6251 101.12378 301.71456 C 104.2721 300.91258 107.34456 297.44996 107.63176 294.1228 C 109.96185 294.6918 110.79092 297.2549 113.19145 298.0406 C 114.66537 298.5229 115.86293 298.5608 117.38561 298.45244 Z" fill="#FFFFFF"/>
          </g>
          <g id="Graphic_1418">
            <path d="M 152.58074 328.83026 C 155.64779 337.33236 146.48459 344.9837 139.41305 338.48115 C 136.63862 335.9343 139.11501 335.4141 140.2367 332.9648 C 141.47761 330.2554 141.2988 327.93074 141.23377 325.01542 C 144.47421 327.76817 148.22944 329.29086 152.58074 328.83568 Z" fill="#FFFFFF"/>
          </g>
          <g id="Graphic_1417">
            <path d="M 139.06083 324.4627 C 140.81652 332.85643 133.84794 340.00925 126.08821 334.45498 C 125.1941 333.81556 122.41426 331.4692 123.68768 330.3746 C 126.76556 327.73566 128.26115 325.62775 128.22864 321.21142 C 131.51243 323.9154 134.76371 324.97207 139.06625 324.4573 Z" fill="#FFFFFF"/>
          </g>
          <g id="Graphic_1416">
            <path d="M 97.3252 284.91085 C 98.29516 289.19712 102.40803 290.42177 106.03863 291.76022 C 104.88985 304.06632 89.72803 302.20767 89.77138 290.35675 C 92.17733 290.1725 93.93844 288.8178 95.41236 287.04586 C 96.22518 286.07047 95.80793 284.51528 97.31978 284.91085 Z" fill="#FFFFFF"/>
          </g>
          <g id="Graphic_1415">
            <path d="M 98.41438 280.5758 C 104.43467 280.7167 109.49583 277.01023 113.58703 272.98948 C 113.5491 277.9206 115.01217 281.7517 111.87469 286.17343 C 107.29038 292.63806 97.80747 287.9508 98.41438 280.5758 Z" fill="#FFFFFF"/>
          </g>
          <g id="Graphic_1414">
            <path d="M 260.43663 287.61483 C 259.12528 287.75572 258.6701 286.31432 257.59175 285.85914 C 256.57302 285.42564 255.22916 285.6207 254.48136 285.17637 C 253.49514 284.59114 251.268 276.2841 246.89503 276.7718 C 248.2118 270.79486 255.39714 267.93374 259.6184 272.9949 Z" fill="#FFFFFF"/>
          </g>
          <g id="Graphic_1413">
            <path d="M 204.14609 340.78956 C 214.05166 339.3319 218.16453 351.13948 209.14222 355.843 C 207.28357 354.6292 206.50869 352.7001 204.48747 351.42667 C 202.5909 350.23454 200.92732 350.2779 199.20956 349.11284 C 200.98692 346.35467 203.81554 344.36597 204.14609 340.78956 Z" fill="#FFFFFF"/>
          </g>
          <g id="Graphic_1412">
            <path d="M 260.44205 300.0835 C 257.1474 300.04557 254.27545 299.73128 251.23008 301.16184 C 251.50102 297.3145 249.51232 294.71347 246.38025 292.77353 C 248.39062 288.31386 253.63603 285.23598 258.01442 288.68776 C 261.68837 291.5814 260.16027 296.0194 260.44205 300.0835 Z" fill="#FFFFFF"/>
          </g>
          <g id="Graphic_1411">
            <path d="M 227.39276 348.84732 C 226.09224 345.2709 221.80597 343.52064 218.16995 343.9704 C 218.92858 342.59944 220.45127 340.7733 220.76014 339.2506 C 221.1828 337.15354 219.96358 334.7476 222.4779 333.92394 C 228.75288 331.8702 233.66231 337.23482 232.00416 343.4502 C 231.71696 344.53395 228.37356 349.5355 227.39276 348.84732 Z" fill="#FFFFFF"/>
          </g>
          <g id="Graphic_1410">
            <path d="M 198.69477 367.7969 C 197.99032 364.0254 195.8824 361.4352 192.7124 359.4194 C 196.17503 357.58244 198.22875 355.27402 199.513 351.5459 C 210.06884 353.76218 209.22892 366.58307 198.68935 367.8023 Z" fill="#FFFFFF"/>
          </g>
          <g id="Graphic_1409">
            <path d="M 166.66422 330.9978 C 168.72878 338.07474 163.04446 344.04084 155.85912 341.5265 C 150.67332 339.7058 154.94876 337.18606 155.18177 333.27368 C 155.28473 331.54508 154.43397 329.45884 154.23348 327.7194 C 156.28179 328.25587 157.38722 330.21747 159.61435 330.73226 C 161.84148 331.24705 164.33413 330.7973 166.66964 330.9978 Z" fill="#FFFFFF"/>
          </g>
          <g id="Graphic_1408">
            <path d="M 182.95314 348.8419 C 182.0482 347.81775 183.26201 347.95864 183.7497 347.76356 C 186.87636 346.52807 189.42861 346.0404 191.07593 342.5832 L 191.7858 342.4152 C 199.21497 345.04332 199.43715 354.24445 192.00796 357.10016 C 185.099 359.7608 188.49658 355.4366 186.1123 351.3725 C 185.08815 349.62763 183.35413 349.3025 182.94772 348.8419 Z" fill="#FFFFFF"/>
          </g>
          <g id="Graphic_1407">
            <path d="M 253.39218 221.51084 C 250.91037 231.2105 249.1872 241.02395 248.5261 251.04874 C 248.3852 253.15124 248.77536 255.5572 248.5261 257.55672 C 248.42856 258.30452 248.2118 259.1607 247.44775 258.3587 C 246.7975 254.51678 246.32064 250.6315 245.75709 246.76789 C 245.60536 245.72747 244.89008 244.93633 244.76003 243.97178 C 244.5812 242.63876 244.06642 235.86525 244.19105 234.8411 C 244.47283 232.57604 250.26553 224.65374 251.9887 222.52957 C 252.4493 221.9606 251.99955 221.1803 253.3976 221.51626 Z" fill="#FFFFFF"/>
          </g>
          <g id="Graphic_1406">
            <path d="M 220.40792 360.70367 C 219.3675 357.76667 215.63937 356.57454 212.75115 356.43365 C 215.13 353.1607 216.57682 350.4296 216.02952 346.17043 C 222.83554 344.51228 229.09426 349.5951 225.66416 356.6179 C 225.03558 357.90214 221.92518 361.59777 220.4025 360.70367 Z" fill="#FFFFFF"/>
          </g>
          <g id="Graphic_1405">
            <path d="M 234.43178 307.12253 C 236.05743 305.00378 236.75103 297.07065 238.06238 295.71595 C 241.98018 291.6681 248.62363 294.96273 249.4798 300.4899 C 250.2818 305.66487 246.6566 303.10178 242.94473 304.53776 C 239.60132 305.82743 239.5363 309.09497 234.43178 307.12795 Z" fill="#FFFFFF"/>
          </g>
          <g id="Graphic_1404">
            <path d="M 153.6916 342.89206 C 156.32514 343.75365 158.6769 344.32262 161.51635 343.9433 C 162.75726 343.77532 163.91146 342.39353 165.0765 343.12506 C 168.84258 349.63305 164.85975 356.1302 157.2084 355.3499 C 151.07432 354.7213 154.87832 351.7843 154.7862 348.0616 C 154.74285 346.3005 153.62115 344.68026 153.6916 342.89206 Z" fill="#FFFFFF"/>
          </g>
          <g id="Graphic_1403">
            <path d="M 245.7625 331.4692 C 240.84765 330.38546 237.18996 330.93817 233.35344 334.22197 C 235.19584 330.01156 234.33425 326.96077 233.04457 322.85874 C 240.03483 315.94434 249.133 322.45775 245.7625 331.4692 Z" fill="#FFFFFF"/>
          </g>
          <g id="Graphic_1402">
            <path d="M 251.7015 285.3823 C 248.3527 286.26555 246.22852 288.68776 244.73293 291.68977 L 238.22495 293.03364 C 239.55797 288.7257 236.90276 281.97386 241.27032 279.5625 C 245.88714 277.01565 251.76112 280.01767 251.6961 285.3823 Z" fill="#FFFFFF"/>
          </g>
          <g id="Graphic_1401">
            <path d="M 145.5634 314.71427 C 147.70924 315.267 149.57873 316.66504 151.9359 316.7409 C 155.43645 316.8493 159.19169 313.24578 157.11086 321.1193 C 155.26847 328.09872 145.2491 328.48887 142.35004 322.11094 C 144.2683 320.12766 145.5634 317.51038 145.5634 314.7197 Z" fill="#FFFFFF"/>
          </g>
          <g id="Graphic_1400">
            <path d="M 142.7727 311.53885 C 145.1624 317.9818 140.55642 323.8829 133.62035 322.0459 C 132.24397 321.68286 127.63799 318.11186 128.75968 316.89263 C 131.5341 316.81677 132.7154 312.02113 134.18932 309.84277 C 136.90956 311.8369 139.58645 311.463 142.7727 311.54427 Z" fill="#FFFFFF"/>
          </g>
          <g id="Graphic_1399">
            <path d="M 245.26397 258.3533 C 244.10977 258.57546 244.0014 257.81683 243.60582 257.03652 C 241.1511 252.17043 239.6826 244.57327 237.2279 239.02983 C 235.14165 234.31547 232.28594 229.96417 230.09132 225.30942 L 237.1412 230.44645 L 242.14816 235.7352 L 245.25856 258.3533 Z" fill="#FFFFFF"/>
          </g>
          <g id="Graphic_1398">
            <path d="M 245.1285 305.63778 C 249.9133 304.4023 254.42717 308.62896 254.38924 313.365 C 254.35673 317.24486 252.0158 315.9335 249.58818 316.58918 C 247.865 317.0552 244.5487 321.3198 243.73045 318.69168 C 243.33488 317.41284 243.76297 315.332 243.40532 313.598 C 243.026 311.7502 240.9235 309.7127 240.9181 309.02453 C 240.90726 307.9462 244.2019 305.8762 245.13392 305.63778 Z" fill="#FFFFFF"/>
          </g>
          <g id="Graphic_1397">
            <path d="M 168.31695 338.54618 C 169.86673 336.23776 168.02434 331.2579 168.40365 329.71894 C 168.60957 328.8953 172.32145 325.25385 172.38106 323.38436 C 174.6136 326.55436 180.12995 327.55142 179.5989 332.17908 C 179.00825 337.3378 173.00422 340.61616 168.31695 338.54618 Z" fill="#FFFFFF"/>
          </g>
          <g id="Graphic_1396">
            <path d="M 204.16776 338.4703 C 204.0052 338.37277 202.72636 335.60376 202.44458 335.0402 C 202.1899 334.53084 201.54506 334.64464 202.45 333.9402 C 207.0018 334.2653 213.37973 328.96573 217.0591 332.3525 C 220.41334 335.4412 218.56552 341.50484 215.19503 343.95956 C 213.96496 342.16594 212.4802 340.4211 210.42106 339.5324 C 208.61118 338.7521 204.57417 338.70874 204.17318 338.4649 Z" fill="#FFFFFF"/>
          </g>
          <g id="Graphic_1395">
            <path d="M 81.0742 288.16213 C 81.85451 293.5376 79.34018 297.7805 78.19682 302.89044 C 76.64162 309.83193 75.79629 317.59708 76.77167 324.64694 L 73.77507 326.09376 C 73.216935 325.74154 73.05979 325.36764 72.95141 324.73906 C 72.127755 320.13308 73.23861 310.70436 74.19232 305.9358 C 75.00514 301.8663 77.77957 292.19372 79.85497 288.85574 C 80.20719 288.2922 79.82788 287.90745 81.0742 288.16755 Z" fill="#FFFFFF"/>
          </g>
          <g id="Graphic_1394">
            <path d="M 83.24714 273.53136 L 90.66007 278.8472 L 95.48822 280.5487 C 95.65078 284.65075 92.11772 288.9316 87.85854 288.73653 C 86.96444 288.69317 84.47179 287.77198 84.05454 287.0838 C 83.70232 286.50398 82.80822 274.05157 83.24714 273.53678 Z" fill="#FFFFFF"/>
          </g>
          <g id="Graphic_1393">
            <path d="M 178.02745 339.6787 C 181.73933 347.61184 176.09294 353.61045 167.7805 352.0932 C 169.25982 347.93696 167.813 344.6098 166.69673 340.7191 C 171.07512 341.48317 173.89832 341.1743 178.02745 339.6733 Z" fill="#FFFFFF"/>
          </g>
          <g id="Graphic_1392">
            <path d="M 181.32208 345.60146 C 182.41668 343.5044 179.1654 338.82253 179.2521 337.82547 C 179.33338 336.88802 180.7802 335.7826 181.07824 334.78553 C 181.4684 333.50127 180.7802 330.03323 182.12407 330.43423 C 182.75807 330.6239 188.62121 333.17072 188.89757 333.42 C 193.70947 337.67375 187.19607 346.9724 181.32208 345.60146 Z" fill="#FFFFFF"/>
          </g>
          <g id="Graphic_1391">
            <path d="M 120.06792 361.33225 C 121.36301 366.1875 126.54339 370.69052 131.74002 370.5659 C 134.03218 370.5117 135.35436 369.17868 137.42977 369.1299 C 139.6569 371.6984 140.52932 375.031 138.78989 378.12512 C 137.40809 379.5611 132.48782 376.0118 130.97055 375.08517 C 128.90057 373.8226 115.94421 364.6594 116.29643 363.23425 L 120.0625 361.33767 Z" fill="#FFFFFF"/>
          </g>
          <g id="Graphic_1390">
            <path d="M 231.71696 333.1382 C 229.4248 332.97023 227.92922 331.52882 225.49076 331.4692 C 223.56166 331.42045 220.59216 332.79682 219.61135 332.63968 C 219.3946 332.60717 217.6931 329.8219 216.56057 329.6214 C 219.5951 328.04995 224.24985 321.76956 227.5228 322.40898 C 232.41057 323.3627 232.98496 329.1337 231.71696 333.14363 Z" fill="#FFFFFF"/>
          </g>
          <g id="Graphic_1389">
            <path d="M 158.56852 287.61483 C 158.96951 297.5421 148.0994 298.17066 143.94317 290.0533 C 146.47375 288.3247 149.19399 286.69905 149.35656 283.2798 C 151.95216 286.23304 154.33102 288.2109 158.56852 287.6094 Z" fill="#FFFFFF"/>
          </g>
          <g id="Graphic_1388">
            <path d="M 226.84546 320.12224 L 233.43472 309.38217 C 238.08406 308.43388 241.51958 311.696 241.91515 316.2153 C 242.13732 318.7296 238.8427 317.79757 236.69684 318.3286 C 232.86575 319.2769 231.42435 322.7666 226.84546 320.12224 Z" fill="#FFFFFF"/>
          </g>
          <g id="Graphic_1387">
            <path d="M 119.55855 301.16726 L 126.92812 314.1507 C 127.54045 316.3941 123.66058 316.55125 122.0241 316.3074 C 120.55561 316.08523 117.80828 314.50294 116.83289 313.365 C 113.32692 309.25754 116.65407 309.1329 118.19843 306.0496 C 118.8812 304.6895 119.30928 302.68995 119.55313 301.17268 Z" fill="#FFFFFF"/>
          </g>
          <g id="Graphic_1386">
            <path d="M 82.70526 324.4627 L 78.3648 324.4627 C 77.98548 315.86306 78.78205 307.29593 81.08504 298.99974 C 81.9954 299.21107 82.27176 300.34902 82.46683 301.13475 C 84.29839 308.66147 80.71656 316.71923 82.70526 324.4627 Z" fill="#FFFFFF"/>
          </g>
          <g id="Graphic_1385">
            <path d="M 259.34745 318.50744 L 255.63015 316.81677 C 255.7277 314.34038 256.12326 311.59304 255.43507 309.14374 C 254.8932 307.2038 252.29216 305.8708 252.28674 304.6895 C 252.2705 302.23477 259.78095 300.01848 260.43663 303.60572 C 260.72382 305.19885 259.98687 317.85718 259.34745 318.50744 Z" fill="#FFFFFF"/>
          </g>
          <g id="Graphic_1384">
            <path d="M 198.19082 345.52018 C 197.37258 345.05416 195.075 339.9605 192.2193 340.6595 L 191.6178 333.67467 L 198.8194 334.32493 C 203.96727 335.8205 201.60467 347.47095 198.19082 345.51476 Z" fill="#FFFFFF"/>
          </g>
          <g id="Graphic_1383">
            <path d="M 147.73091 278.40287 C 148.26196 282.51032 146.91267 287.44685 142.11161 287.6636 L 135.2785 274.88064 C 139.29384 276.41416 143.16828 278.9068 147.73091 278.4083 Z" fill="#FFFFFF"/>
          </g>
          <g id="Graphic_1382">
            <path d="M 157.33304 389.6455 C 158.6498 390.7401 162.36169 396.72246 164.23117 398.7274 C 165.23907 399.8112 167.29822 400.2447 167.2332 401.9516 L 162.16119 402.9324 C 160.93654 402.694 152.12556 390.4583 151.5295 388.6701 C 151.07973 387.3154 152.04428 388.18784 152.47237 388.26912 C 153.61032 388.48046 156.59608 389.03318 157.33845 389.6455 Z" fill="#FFFFFF"/>
          </g>
          <g id="Graphic_1381">
            <path d="M 148.6792 386.91984 C 149.09103 387.3154 152.998 394.73376 154.10885 396.3865 C 154.94876 397.6274 159.52765 402.91073 159.6306 403.34424 C 159.8582 404.35755 157.97787 405.11077 157.19757 405.19205 C 154.48274 405.12702 144.97274 388.9519 144.49047 385.41883 C 145.47669 385.79273 148.09397 386.3563 148.6792 386.91442 Z" fill="#FFFFFF"/>
          </g>
          <g id="Graphic_1380">
            <path d="M 177.53434 401.9516 C 175.51312 401.67525 172.29977 402.4935 170.50073 401.67525 C 169.86673 401.38805 164.05777 395.40027 163.16909 394.3761 C 162.73558 393.8776 159.80401 390.3933 160.19958 390.03565 C 167.03811 389.7647 168.18148 393.7313 172.37564 397.6328 C 173.99044 399.13925 176.11461 400.223 177.53976 401.9462 Z" fill="#FFFFFF"/>
          </g>
          <g id="Graphic_1379">
            <path d="M 187.28277 400.8787 C 187.28277 401.7836 185.47289 401.91367 184.84972 401.95702 C 179.72354 402.31467 176.20673 398.58653 172.64658 395.18894 C 172.19682 394.75543 169.31943 392.19234 169.94801 391.6613 C 175.61066 390.3987 177.1225 393.95887 180.82897 396.7604 C 182.75807 398.22347 185.14776 399.7245 187.28277 400.8787 Z" fill="#FFFFFF"/>
          </g>
          <g id="Graphic_1378">
            <path d="M 158.56852 285.45273 C 154.13052 286.2764 150.73835 282.98176 150.39697 278.6738 C 150.48909 277.5196 153.19849 277.33536 154.43397 276.71762 C 155.9133 275.97524 157.17047 274.9294 158.56852 274.07866 L 158.56852 285.45815 Z" fill="#FFFFFF"/>
          </g>
          <g id="Graphic_1377">
            <path d="M 148.26738 300.6254 C 148.0127 307.27967 142.65891 311.3221 136.35142 308.74275 C 134.76913 306.46685 145.76389 300.0564 148.26738 300.6254 Z" fill="#FFFFFF"/>
          </g>
          <g id="Graphic_1376">
            <path d="M 117.92207 296.8268 C 114.13433 297.13567 111.07812 294.7568 109.32243 291.5814 L 114.94715 284.91085 L 117.92207 296.8268 Z" fill="#FFFFFF"/>
          </g>
          <g id="Graphic_1375">
            <path d="M 178.07622 391.6667 C 184.89307 390.26866 188.46949 394.6037 192.13802 399.524 L 189.47196 400.6294 Z" fill="#FFFFFF"/>
          </g>
          <g id="Graphic_1374">
            <path d="M 88.12407 324.4573 C 86.94818 324.71197 84.94865 325.74696 84.41218 324.11048 C 83.65897 321.8129 84.26046 315.2399 84.33632 312.54675 L 88.12407 324.4573 Z" fill="#FFFFFF"/>
          </g>
          <g id="Graphic_1373">
            <path d="M 129.05066 262.1132 C 126.11314 257.61088 117.866 257.92866 115.43149 264.80162 C 115.52578 264.80792 115.63092 264.8238 115.74913 264.85044 C 116.8654 275.08656 117.64571 285.37145 120.897 295.19574 C 121.75317 297.7805 127.20448 310.5689 129.03604 311.44673 C 129.99517 311.90733 130.95971 308.73733 130.83508 308.06 C 125.06947 298.4958 121.4443 287.76114 119.54771 276.7718 L 121.6773 276.80432 C 123.22166 287.27887 127.28035 297.18986 132.01638 306.5698 C 132.98635 307.24716 134.79623 303.4865 135.79329 303.053 C 132.11934 300.98302 122.32756 277.1999 123.88276 275.68804 L 125.55175 276.01317 C 126.836 280.64083 128.3641 285.19805 130.2932 289.5981 C 131.19272 291.65184 135.28392 300.18104 136.58985 301.2052 C 136.90414 301.45446 137.12631 301.7796 137.59775 301.63328 L 141.21751 299.26526 C 137.73322 297.515 126.21826 275.51464 127.67592 274.06782 L 129.5454 274.63138 C 130.64 278.57085 140.1771 297.65046 143.2333 298.37658 C 144.05696 298.57166 144.76141 297.91598 145.55255 297.90514 C 137.65194 287.44685 129.96807 275.53632 128.75968 262.15187 C 128.86499 262.1304 128.96162 262.1178 129.05066 262.1132 Z" fill="#FFFFFF"/>
          </g>
        </g>
      </g>
    </g>
  </g>
</svg>
