<?xml version="1.0" encoding="UTF-8" standalone="no"?>
<!DOCTYPE svg PUBLIC "-//W3C//DTD SVG 1.1//EN" "http://www.w3.org/Graphics/SVG/1.1/DTD/svg11.dtd">
<svg xmlns:xl="http://www.w3.org/1999/xlink" version="1.1" xmlns="http://www.w3.org/2000/svg" xmlns:dc="http://purl.org/dc/elements/1.1/" viewBox="36 63 220.5 351" width="220.5" height="351">
  <defs>
    <clipPath id="artboard_clip_path">
      <path d="M 36 63 L 256.5 63 L 256.5 360 L 225.96923 414 L 36 414 Z"/>
    </clipPath>
  </defs>
  <g id="Sea-Squirrel" stroke-opacity="1" stroke="none" fill="none" fill-opacity="1" stroke-dasharray="none">
    <title>Sea-Squirrel</title>
    <g id="Sea-Squirrel_Art" clip-path="url(#artboard_clip_path)">
      <title>Art</title>
      <g id="Group_70">
        <g id="Group_207">
          <g id="Graphic_212">
            <path d="M 185.6967 342.2671 C 184.67407 346.5387 181.93552 351.4191 180.21554 355.5179 L 175.96897 358.27267 C 188.95907 339.93525 188.00366 315.12636 174.92522 297.1985 C 177.8268 297.85217 181.07416 297.1486 183.12287 299.68696 C 188.1369 305.88676 191.241 321.22614 190.74458 329.09437 C 190.39785 334.64233 187.66873 348.622 184.13777 352.67475 C 183.84508 353.0078 182.407 353.99773 181.86794 354.29615 C 186.05323 345.32134 188.68754 335.74367 188.00535 325.76405 C 186.4464 325.94052 187.59215 328.7422 187.53248 329.1668 C 186.95416 333.2817 186.63106 338.35724 185.69072 342.2716 Z M 185.89578 314.2261 C 186.10623 313.6035 185.50241 311.43393 185.15183 311.9887 C 184.94139 312.61126 185.5452 314.78085 185.89578 314.2261 Z M 186.57582 316.9944 C 186.78626 316.3718 186.18245 314.20223 185.83186 314.757 C 185.62142 315.37956 186.22523 317.54915 186.57582 316.9944 Z M 186.7635 317.56065 L 186.68983 318.08484 C 187.05487 317.95975 187.07992 317.78152 186.7635 317.56065 Z M 187.33204 322.986 L 187.55231 321.41867 L 187.0386 321.34648 L 186.81833 322.9138 Z M 187.56155 325.15645 L 187.78182 323.5891 L 187.26811 323.5169 L 187.04784 325.08425 Z" fill="#FFFFFF"/>
          </g>
          <g id="Graphic_211">
            <path d="M 203.9159 338.1458 C 203.9173 338.0979 203.4298 338.0294 203.4805 337.28815 C 203.65287 334.7305 204.3549 332.01747 204.608 329.41773 C 204.67094 328.77978 205.28045 327.52373 204.34543 327.5206 C 203.3529 331.19777 203.32206 336.74202 199.58027 338.60557 C 200.67314 334.93716 201.81622 331.29184 202.23722 327.45952 C 202.44182 325.5853 202.8043 321.37057 201.63454 320.1852 C 201.20198 320.90483 201.93985 321.77827 201.89564 322.0928 L 200.05389 335.1976 C 200.00305 335.55927 198.88584 339.05855 198.66393 339.5726 C 198.48222 339.99073 197.08427 341.83623 196.44362 341.90656 C 199.07447 331.13637 200.73806 319.67967 197.33586 308.89548 C 199.22972 307.85736 203.48604 316.9762 204.08555 318.56787 C 205.7892 323.10505 206.28789 327.77222 206.3041 332.60145 C 213.30341 327.26146 222.40404 324.54207 231.20757 326.48493 L 215.36567 333.1266 L 204.25042 341.39475 C 202.85882 341.74975 203.9144 338.8031 203.91066 338.14507 L 205.744 337.15724 L 212.09607 331.28797 C 209.97114 333.09543 207.25713 334.6063 205.2169 336.45774 C 204.6409 336.98083 203.83498 337.12414 203.91066 338.14507 Z M 213.2196 330.90063 L 213.14593 331.42482 C 213.51097 331.29972 213.53601 331.1215 213.2196 330.90063 Z" fill="#FFFFFF"/>
          </g>
          <g id="Graphic_210">
            <path d="M 247.93175 336.84285 C 228.1116 336.49484 212.73303 351.02203 199.26291 363.6846 L 202.9371 356.4447 L 201.8992 356.29885 C 201.83945 353.7193 204.49835 351.3454 206.29576 349.7004 C 214.62018 342.08238 227.54332 335.1374 238.86153 333.83084 C 242.6163 333.39636 245.9363 332.70834 247.93175 336.84285 Z M 221.85695 341.74704 L 219.51738 342.9898 L 218.0505 344.14673 C 219.1741 343.79683 221.27093 342.7979 221.85695 341.74704 Z M 209.71275 350.18596 C 210.7025 350.56026 211.03023 349.8259 211.64897 349.34087 C 213.51496 347.89258 216.00609 346.1419 217.2214 344.30283 C 215.18684 345.69536 213.04304 347.1046 211.05429 348.5517 C 210.41752 349.0128 209.62126 349.1254 209.70825 350.17998 Z" fill="#FFFFFF"/>
          </g>
          <g id="Graphic_209">
            <path d="M 195.44078 306.10075 C 196.64968 308.03464 197.65578 317.91546 197.6873 320.58193 C 197.75742 326.73905 196.46105 337.71282 193.97113 343.29634 C 193.57193 344.19707 192.95094 345.3446 191.7344 344.98654 C 195.07205 335.91932 197.19727 322.69935 194.29897 313.27424 C 194.0418 312.44162 194.56555 311.98603 193.15607 312.04987 C 196.1856 322.89928 194.50244 334.30512 190.88053 344.78635 C 190.64626 345.46437 190.05468 347.6958 189.01168 347.28196 C 188.6775 347.14946 190.63305 341.2984 190.81054 340.3398 C 193.51438 325.77924 192.83197 312.0738 184.17797 299.82455 C 186.74897 300.2821 194.1883 304.09658 195.44078 306.10075 Z" fill="#FFFFFF"/>
          </g>
          <g id="Graphic_208">
            <path d="M 243.27772 331.9231 L 234.97217 333.01695 C 222.52698 335.49615 212.54333 341.98828 202.82983 349.75317 C 202.91512 347.09243 205.57668 346.221 206.91898 344.9236 C 209.73208 342.21325 211.99832 339.6666 215.70146 337.9259 C 211.1555 339.38778 207.8677 343.3838 204.1273 346.18835 C 203.44705 344.6388 205.0965 343.438 206.00383 342.45903 C 210.24854 337.89187 218.34294 332.8234 224.0942 330.39234 C 225.92952 329.6186 232.38689 327.26005 234.0438 327.37532 C 237.40034 327.6065 240.3379 330.5905 243.28296 331.92383 Z M 233.65458 330.03076 L 233.5809 330.55495 C 233.94594 330.42986 233.971 330.25163 233.65458 330.03076 Z M 232.79388 330.4497 L 229.3076 331.10365 L 223.82417 333.45475 L 232.79388 330.4497 Z" fill="#FFFFFF"/>
          </g>
        </g>
        <g id="Group_196">
          <g id="Graphic_206">
            <path d="M 159.42192 392.2962 L 159.43314 392.29245 C 158.02293 392.36153 156.57168 392.49434 155.16668 392.22204 L 160.49833 389.61975 C 162.11165 387.3448 161.85602 385.20813 159.89327 383.2752 C 156.6678 380.0957 155.42988 384.8342 151.554 383.69613 C 151.46166 382.26126 152.03717 382.8446 152.76937 382.54127 C 154.79544 381.70347 156.2706 381.55264 157.28405 379.172 C 159.11285 374.86937 156.54278 373.83464 153.34488 372.2466 C 152.56544 371.8591 151.78086 372.4972 152.27297 370.97343 C 158.40007 371.1931 161.22549 375.8879 158.28109 381.4343 C 164.46227 383.0567 164.99088 389.0324 159.4279 392.2917 C 164.97966 392.00287 170.21432 389.2159 175.16899 386.74773 C 175.91376 385.06167 172.20147 387.05765 173.2226 385.42112 C 173.67161 384.69845 175.39671 384.1765 176.00466 382.8935 C 178.18465 378.2981 175.22617 375.99536 170.83945 375.7156 C 171.49146 374.38536 173.59619 374.88963 174.87638 375.2513 C 179.09297 376.43724 179.82608 382.13697 176.51131 384.80354 C 175.46075 386.99186 182.2152 381.9489 182.57236 381.6516 C 194.02748 372.06815 200.52378 356.1964 201.29894 341.5145 C 189.80145 350.9049 180.07339 361.81623 165.22626 366.09604 C 132.65701 375.4864 110.46172 352.13986 124.85694 320.60956 C 126.76316 316.44073 129.5618 312.3118 132.16063 308.53966 C 130.95083 308.51396 129.66537 309.78727 128.4047 309.78115 C 124.46323 309.7564 121.03785 304.91846 122.95812 301.33426 C 123.33531 300.62822 122.91857 300.3986 124.17476 300.74085 C 123.33035 305.03752 125.54536 308.94097 130.3426 307.36474 C 131.5477 306.9675 132.36753 305.69823 133.15977 305.46212 C 133.78444 305.2773 134.4312 305.9241 134.60172 305.85186 C 134.85676 305.74873 137.12096 302.30374 137.72503 301.6189 C 139.44616 299.67983 148.23114 291.143 148.61009 289.89196 C 148.92664 288.85666 148.09128 287.57395 148.12115 286.2204 C 148.17337 283.83298 149.20325 282.09612 149.56534 280.01417 C 150.81558 272.79177 149.68712 265.0747 141.01147 264.38997 C 140.94862 260.1208 140.63204 256.85835 136.52167 254.65032 C 131.99906 252.21863 130.63599 253.93005 126.77607 253.55328 C 124.72444 253.3558 123.09995 252.3631 120.64192 252.20474 C 110.51779 251.55698 103.91884 258.15596 95.87162 262.24216 C 94.39257 262.99113 90.3376 264.07833 89.74007 264.67857 C 86.71585 267.71205 80.45148 283.18874 79.03508 287.7899 C 66.359006 329.03396 76.23122 372.70395 119.28578 389.49924 C 128.42238 393.0658 150.8827 397.29684 159.42192 392.2962 Z M 114.19906 257.655 L 114.19382 257.65427 C 112.69545 264.39812 118.79699 268.52705 124.2872 263.8837 C 126.61164 264.87857 122.81751 266.77218 121.9962 267.063 C 116.81625 268.89013 112.1676 265.68168 112.34824 260.17452 C 112.38182 259.13688 112.7349 257.04297 114.19906 257.655 Z M 102.83192 262.46666 L 102.83192 262.46666 C 101.37342 267.97597 105.33109 272.82993 110.98522 270.48144 C 111.35992 270.32563 115.63039 267.2107 113.97428 270.09436 C 111.39877 274.57538 102.13185 272.96296 101.27904 267.6206 C 101.13325 266.7181 101.0746 261.6584 102.83192 262.46666 Z M 137.13316 269.4309 L 137.13242 269.43615 C 135.26816 276.9197 140.93453 280.95007 147.3308 276.7441 C 144.43336 283.51583 134.6293 279.7539 135.11153 272.5572 C 135.15129 271.932 136.2995 267.9079 137.13316 269.4309 Z M 122.39062 271.63534 L 122.39062 271.63534 C 119.39688 278.86395 126.17641 283.87395 132.33666 278.91317 C 134.6611 279.90803 130.86623 281.80688 130.04565 282.09246 C 122.82512 284.6324 118.39488 278.04425 120.82328 271.41507 Z M 134.91528 281.4084 L 134.91528 281.4084 C 133.64515 288.77234 138.57958 292.22942 144.92 288.1546 C 145.6702 289.51086 143.85708 290.50688 142.83332 290.98307 C 138.65826 292.9247 133.3633 290.5876 133.28182 285.6904 C 133.27374 285.10127 133.83137 279.46 134.91528 281.4084 Z M 114.70908 284.45395 L 114.70908 284.45395 C 113.89919 288.1247 108.73366 289.0505 105.67861 287.73913 C 102.33132 286.30117 100.92717 281.45863 102.29429 278.23502 C 103.68451 274.9612 103.65016 282.58434 103.80246 283.0601 C 104.59345 285.5714 106.9125 286.83276 109.49385 286.57013 C 111.84169 286.33348 112.64577 284.7199 114.70908 284.45395 Z M 132.17174 293.3227 L 132.17174 293.3227 C 127.68786 301.6836 116.11669 295.43356 119.83063 286.5796 C 120.08751 285.9689 120.79775 285.55555 121.12609 286.4142 C 121.86486 288.34618 119.71825 290.49806 122.00401 293.25148 C 123.37997 294.9095 125.62935 295.48757 127.76457 295.24242 C 128.76444 295.12636 131.74743 292.72854 132.17174 293.3227 Z M 103.79172 289.8687 L 103.79696 289.86945 C 101.74935 295.72895 92.61944 294.77724 91.16564 288.8426 C 90.73116 287.06564 90.50933 283.66148 92.47201 282.93237 C 91.83547 288.1082 93.35875 292.33136 99.4033 291.8071 C 101.28118 291.64337 102.00834 289.77844 103.79172 289.8687 Z M 109.41049 291.72747 L 109.41049 291.72747 C 108.61338 296.4103 109.94287 300.6811 115.36097 300.5445 C 117.39931 300.49422 118.51757 298.77513 119.95366 298.56 C 122.25259 298.21492 118.63071 301.127 117.93455 301.47817 C 111.72903 304.63117 105.66577 298.89864 108.11109 292.7957 C 108.47287 291.89504 107.98188 291.2808 109.41049 291.72747 Z M 79.84324 292.9175 L 79.84324 292.9175 C 78.67548 297.2329 81.08407 301.66067 85.93814 300.06035 C 86.45355 299.89224 91.76951 295.65204 90.1312 298.78943 C 88.07548 302.72877 81.51445 303.27668 79.07086 299.59235 C 78.21076 298.29547 76.84166 292.4048 79.84324 292.9175 Z M 96.47077 296.3181 L 96.46627 296.31213 C 95.04718 304.01327 102.13926 307.21767 107.67572 302.16923 C 108.02262 305.5963 102.81414 307.05594 100.12535 306.4856 C 97.99753 306.03155 95.02828 303.27294 94.84807 301.05598 C 94.79715 300.39133 95.34475 294.28895 96.47077 296.3181 Z M 111.83593 304.89743 L 111.83593 304.89743 C 110.7009 310.7676 114.05828 314.3398 119.8827 312.14888 C 120.15945 312.04344 124.1906 309.03388 122.52777 311.92727 C 119.73304 316.78908 109.72299 314.94928 109.89875 307.9554 C 109.9204 307.26887 110.99998 303.3527 111.83593 304.89743 Z M 84.7293 303.75522 L 84.7293 303.75522 C 84.87947 308.2398 86.97686 312.1053 92.16251 310.8082 C 93.75764 310.4123 95.41853 307.98903 95.63779 307.95035 C 96.25214 307.8389 97.27275 307.95562 96.83252 308.92008 C 93.31646 313.93174 86.35772 314.7231 83.98877 308.3017 C 83.59104 307.21412 82.479185 303.1824 84.7293 303.75522 Z M 102.41822 311.05215 L 102.41822 311.05215 C 101.93701 315.7313 104.03465 318.7202 109.04559 318.28586 C 109.94898 318.2097 114.91427 314.48683 113.9176 316.67203 C 111.69709 321.55574 102.70502 321.63904 101.22524 315.4709 C 100.99395 314.49223 100.50906 310.2974 102.41822 311.05215 Z M 102.51665 321.76224 L 102.51665 321.76224 C 99.39986 330.51304 87.27057 327.05507 89.18759 317.75078 C 91.12163 318.25244 90.34291 320.4843 91.45884 322.35704 C 92.99934 324.93623 95.48576 325.72935 98.33315 324.60072 C 100.0706 323.9148 100.6526 321.7515 102.51665 321.76224 Z M 120.497 323.2201 L 121.5078 323.6348 C 119.39772 331.65042 107.8889 329.78708 109.74058 321.7084 C 111.76526 327.84088 117.20005 329.44927 120.497 323.2201 Z M 112.56696 330.1238 L 112.56696 330.1238 C 111.37736 336.68654 102.58757 338.48744 99.76266 332.03937 C 99.40295 331.21372 98.34689 328.34447 100.43164 328.95284 C 100.74468 332.96317 104.59437 335.42857 108.33305 333.51113 C 110.28015 332.51256 110.51584 330.15092 112.56696 330.1238 Z M 93.02453 328.4464 L 93.02453 328.4464 C 91.67509 337.47764 79.08482 336.72918 79.23004 327.82268 C 79.24664 326.5635 79.95549 327.18696 80.87798 327.2792 C 80.73566 331.52486 84.69631 334.72215 88.75225 332.41098 C 90.91966 331.1761 90.83598 328.61455 93.02453 328.4464 Z M 107.12627 338.44644 L 107.12627 338.44644 C 108.73636 338.7048 109.00059 340.6663 110.42897 341.3428 C 112.61949 342.37762 115.23067 342.39715 116.71411 340.2857 C 116.92007 339.99927 119.5063 333.3121 119.66007 336.7441 C 119.70036 337.67452 117.99674 341.39073 117.21101 342.18903 C 113.67224 345.76492 107.20867 343.41326 107.12627 338.44644 Z M 89.00907 338.0384 L 89.00907 338.0384 C 90.86072 338.5178 90.64518 340.8502 92.3505 341.83824 C 96.95675 344.51153 99.98063 341.32833 101.91816 337.43118 L 102.89517 338.1244 C 100.9184 346.82696 89.82321 347.11716 89.00907 338.0384 Z M 112.45362 346.14424 L 112.45362 346.14424 C 112.43395 354.95613 99.00294 355.1693 98.9384 347.1848 C 98.91598 344.56772 101.42641 349.3359 101.81802 349.7063 C 104.09792 351.85487 107.55968 351.94582 109.54826 349.43497 C 110.45149 348.29504 110.54916 345.81244 112.45362 346.14424 Z M 94.78694 346.33408 L 94.78694 346.33408 C 94.97678 352.13385 88.51327 356.39986 83.98009 351.95145 C 83.10151 351.0903 81.74258 348.36023 82.62427 347.29745 C 86.47858 353.1151 90.16631 354.14654 93.51375 347.40598 C 93.90125 346.62655 93.26316 345.84196 94.78694 346.33408 Z M 185.13524 372.92454 L 185.13597 372.9193 C 184.76351 372.4126 190.45366 367.792 186.85779 364.3573 C 184.5013 362.1071 181.72986 363.38005 178.97077 363.5001 C 185.4072 357.5251 193.62564 365.8751 187.08497 372.0974 C 186.50457 372.65193 186.04251 373.23914 185.13524 372.92454 Z M 119.95738 353.60802 L 119.95812 353.6028 C 120.34664 359.20597 117.11402 363.76034 111.07238 361.9437 C 109.31869 361.41394 107.30642 359.75736 107.62003 357.75412 C 109.25684 358.24074 110.06333 359.99514 111.83037 360.468 C 114.97866 361.306 118.01407 358.91556 118.52744 355.8713 C 118.77492 354.4147 117.19928 352.8462 119.95738 353.60802 Z M 106.4835 354.39247 L 106.48948 354.38796 C 106.37302 363.43214 94.64373 364.69697 93.49771 355.50743 L 94.57769 355.39194 C 95.28758 359.7734 100.93633 361.6471 103.84846 358.0419 C 104.88386 356.7602 104.80722 353.9965 106.4835 354.39247 Z M 178.1819 376.7582 L 178.1819 376.7582 C 179.43452 373.5506 181.36508 368.562 176.5564 367.4051 C 175.99838 367.26785 169.70278 367.67667 171.63911 366.2222 C 179.4879 363.4338 185.52263 371.76556 178.1819 376.7582 Z M 123.60153 373.35847 L 123.60153 373.35847 C 122.88364 372.3809 123.8443 372.4678 124.53671 372.44753 C 128.35507 372.32133 132.48148 372.36137 131.61237 367.0969 C 131.47347 366.25952 128.63386 362.23622 130.63992 363.13823 C 137.31158 366.1392 131.02317 378.28766 123.60153 373.35847 Z M 107.09385 361.422 L 107.09385 361.422 C 108.62608 367.9396 102.43614 373.3399 96.55975 369.13036 C 96.08886 368.79156 95.16172 367.9717 95.03481 367.4674 C 94.52872 365.47728 97.71297 368.3035 98.08163 368.4569 C 101.16436 369.76146 104.03345 368.63053 105.22702 365.4627 C 105.46736 364.8176 105.9429 359.9506 107.09385 361.422 Z M 109.8974 371.9777 L 109.8974 371.9777 C 116.06657 375.89164 121.2379 371.91977 119.98738 364.84304 C 121.68965 363.49468 123.20708 371.41074 118.40823 374.2536 C 114.03477 376.84624 108.49446 372.94585 109.8974 371.9777 Z M 129.61414 383.8253 L 129.61414 383.8253 C 129.45207 382.0118 131.29198 383.2593 132.53945 383.0551 C 138.96686 382.01265 138.20435 376.2179 134.41614 372.47825 C 136.6456 371.8668 138.69105 374.61854 138.92906 376.57636 C 139.64769 382.4932 134.87944 385.9551 129.61414 383.8253 Z M 126.9393 375.5488 L 126.92881 375.5473 C 127.43124 375.92797 127.9611 379.15625 127.81333 380.0175 C 127.32501 382.8835 124.597 385.4829 121.6428 385.39377 C 120.1148 385.35007 114.5383 383.64693 116.50337 381.98805 C 116.8127 381.72683 120.75848 385.2962 124.11316 383.06823 C 126.50062 381.48474 126.34305 377.6994 125.47057 375.23547 C 125.95365 375.33543 126.51935 375.22785 126.9393 375.5488 Z M 99.64108 277.5266 C 99.55928 279.92526 96.06465 281.13877 94.07423 281.04075 C 88.45158 280.76905 86.3107 274.89286 88.88842 270.3961 L 89.86616 271.0841 C 87.90767 274.9783 90.43061 279.65737 95.03424 279.1925 C 97.00663 278.9891 97.87903 277.69217 99.64107 277.5266 Z M 192.15951 364.82356 C 196.23846 358.5017 192.83503 353.7743 185.77801 356.9785 C 184.80177 355.63324 191.5807 352.46995 194.61305 356.6433 C 196.247 358.89242 195.74822 364.76652 192.15951 364.82356 Z M 164.04494 382.25053 C 164.04495 382.25053 164.04495 382.25053 164.04495 382.25053 Z M 164.04495 382.25053 C 166.74738 379.90557 170.16933 377.58124 167.68687 373.65288 C 166.18276 371.27123 164.29164 371.8714 162.09542 371.2955 C 161.3636 371.10176 160.63822 370.786 161.46622 370.1433 C 166.14062 368.87055 171.37087 373.0374 169.96195 377.96567 C 169.36887 380.0568 166.46348 383.1366 164.04495 382.25054 Z M 142.47945 379.7641 C 142.47959 379.7641 142.47972 379.76407 142.47986 379.76406 C 142.47986 379.76406 142.47986 379.76406 142.47986 379.76406 C 142.47972 379.76407 142.47959 379.7641 142.47945 379.7641 Z M 142.47986 379.76406 L 142.47986 379.76406 C 142.42736 380.63194 143.8849 380.4651 144.74102 381.09223 C 148.09584 383.54153 148.08754 389.11568 144.09331 390.91167 C 142.5924 391.58808 137.5073 392.66414 137.86237 389.7954 C 140.52929 390.2932 144.18908 390.2302 145.08823 387.29364 C 146.4704 382.7839 141.33623 381.69884 141.94566 379.41646 C 142.26408 378.2157 144.82999 378.40528 146.04113 376.70993 C 148.6231 373.0958 146.36559 371.24436 143.51059 369.3464 C 142.84033 368.90474 142.02265 369.47404 142.52836 368.00562 C 151.05085 369.20873 150.9604 379.09548 142.47986 379.76406 Z M 142.47986 379.76406 C 142.47996 379.76233 142.48007 379.7606 142.4802 379.75885 Z" fill="#FFFFFF"/>
          </g>
          <g id="Graphic_205">
            <path d="M 145.88287 397.34787 C 145.1858 400.59616 145.0296 403.34315 146.20977 406.4704 C 138.08632 407.98006 134.6652 402.0469 131.10098 396.0669 C 135.08214 395.7711 136.8318 401.12193 139.68398 403.4204 C 139.31551 400.7173 135.50985 399.84032 135.2562 396.9288 C 136.04127 397.1621 137.03423 396.6388 137.721 396.77276 C 139.16795 397.05095 138.81167 399.05353 139.8611 397.0254 L 145.88287 397.34787 Z" fill="#FFFFFF"/>
          </g>
          <g id="Graphic_204">
            <path d="M 115.18181 391.4295 L 118.70551 392.75325 L 124.56459 404.5028 C 121.02666 405.48626 117.79373 403.31067 115.74017 400.6166 C 114.79711 399.37756 110.79314 391.27774 110.58057 389.97565 C 110.44618 389.14426 110.75758 389.13457 111.45419 389.31265 C 114.63991 390.1506 114.66456 393.09406 116.50677 395.35216 L 115.18034 391.43996 Z M 116.9468 395.94855 L 116.87314 396.47274 C 117.23817 396.34764 117.26322 396.1694 116.9468 395.94855 Z" fill="#FFFFFF"/>
          </g>
          <g id="Graphic_203">
            <path d="M 75.04408 289.03042 C 73.899955 288.91773 73.839545 289.34757 73.170195 289.96444 C 71.2361 291.74528 68.74213 293.89645 67.38286 295.9612 C 69.58489 293.49104 73.25608 291.52135 75.04408 289.03042 C 76.14627 289.1372 74.42245 293.18735 74.09643 293.6814 C 72.32826 296.3355 65.594374 300.54748 62.95324 302.83298 C 62.339316 293.24248 71.14259 289.1396 77.1687 283.4597 C 76.74748 285.54404 76.28806 287.29158 75.04408 289.03042 Z" fill="#FFFFFF"/>
          </g>
          <g id="Graphic_202">
            <path d="M 134.12147 325.12957 C 135.02532 319.6492 131.82098 311.603 137.06557 307.90868 C 136.64675 310.39426 136.50519 312.99898 136.62244 315.5118 C 136.65239 316.1735 136.40044 317.96622 137.23914 318.0841 C 137.96134 313.7061 135.91481 306.85426 140.27662 304.07826 C 139.40899 307.70348 140.94487 313.8528 140.03969 317.09856 C 139.81689 317.8851 137.4104 322.95114 136.93647 323.5848 C 136.5745 324.06846 134.52572 325.7904 134.12147 325.12957 Z" fill="#FFFFFF"/>
          </g>
          <g id="Graphic_201">
            <path d="M 124.22287 394.45877 C 124.62284 394.8838 124.7178 396.148 125.41877 396.5993 L 125.44464 394.47546 C 130.24277 394.94667 131.03393 399.5106 133.33219 402.82173 C 133.83014 403.5385 136.88462 405.9189 136.02313 406.64773 C 127.31458 408.289 124.16875 399.63626 120.76448 393.5451 C 121.70437 393.0571 123.54448 393.73267 124.22287 394.45877 Z M 130.09594 403.142 C 129.91253 401.8226 128.52416 399.64433 127.75295 398.5898 C 127.28588 397.95754 127.1845 397.1575 126.12467 397.24376 L 126.96975 399.18 L 130.10118 403.14273 Z" fill="#FFFFFF"/>
          </g>
          <g id="Graphic_200">
            <path d="M 141.88518 315.52978 C 142.0907 310.75844 139.55959 303.475 143.39395 299.8498 C 143.7824 299.4821 143.51452 298.87782 144.68193 299.35727 C 144.20418 302.2622 143.78998 305.1333 144.01227 308.0778 C 144.08098 308.9962 143.2049 309.56263 144.85551 309.5327 C 145.1997 305.82855 144.37487 300.287 145.97247 297.02094 C 146.1446 296.67095 147.3917 294.986 147.96593 295.0079 C 145.82096 302.1687 150.57965 311.97287 141.88518 315.52978 Z" fill="#FFFFFF"/>
          </g>
          <g id="Graphic_199">
            <path d="M 63.140674 305.26478 L 73.15274 296.7828 C 73.84776 300.54745 68.74828 302.867 66.8205 305.78194 L 72.48971 301.5005 C 73.42526 305.03705 69.64462 306.6065 67.67564 308.5214 C 67.40374 308.78253 67.39011 309.37396 67.133115 309.6051 C 65.586636 310.98606 63.82983 312.3802 61.99354 313.389 L 63.13543 305.26404 Z" fill="#FFFFFF"/>
          </g>
          <g id="Graphic_198">
            <path d="M 69.31287 313.1508 L 64.67482 317.24573 C 66.17438 316.95935 67.71239 316.13314 68.23457 314.6617 L 71.204724 312.54538 C 71.28151 316.0307 67.60871 317.28923 65.91285 319.80914 L 69.13187 318.16613 C 69.92555 317.57742 70.133445 315.83195 71.1132 317.07615 C 71.69573 319.4352 62.59109 324.0089 61.73232 322.96877 C 63.455666 321.014 62.17596 316.57916 63.0808 315.1615 C 63.50525 314.4995 65.548015 313.42885 66.36896 312.6462 C 68.189375 310.91353 69.84089 308.97538 71.68457 307.26736 C 72.37367 309.74294 70.747034 311.428 69.31361 313.14556 Z" fill="#FFFFFF"/>
          </g>
          <g id="Graphic_197">
            <path d="M 130.76707 333.7454 C 129.3095 334.7219 126.4532 326.97583 126.56266 325.39826 C 126.64962 324.13292 127.51638 321.7691 128.20117 320.70003 C 128.62562 320.03805 128.37072 319.87394 129.46294 320.20384 C 129.1278 322.28423 129.3222 324.81857 129.59642 326.89907 C 129.69469 327.6452 129.33512 328.53013 130.37574 328.88485 C 130.82065 324.0456 128.3773 318.15362 132.18018 314.18187 L 132.8467 326.8213 L 130.76707 333.7454 Z" fill="#FFFFFF"/>
          </g>
        </g>
        <g id="Group_187">
          <g id="Graphic_195">
            <path d="M 153.30949 74.45708 L 153.29606 74.476575 C 152.98511 74.02662 148.96195 76.59898 148.39013 76.97833 C 143.85363 79.97033 139.25389 84.78159 135.99087 89.13391 C 134.66237 90.90363 128.67652 101.12747 127.8543 101.34868 C 127.60966 101.41586 126.52484 101.37565 126.58967 100.91436 L 127.59649 97.59201 C 118.73305 96.30357 109.15647 96.78047 100.85579 100.34996 C 88.64073 105.60371 82.13693 117.83948 74.19134 127.78255 C 73.89649 128.81554 74.133 128.46391 74.84836 128.66067 C 76.11954 129.01037 79.512565 128.82974 80.07419 129.89224 C 80.4675 132.98908 77.525735 134.75124 76.17746 137.04204 C 77.94965 141.43383 80.53476 144.14915 85.46313 144.60658 C 88.32864 144.87032 90.96306 143.58348 93.79633 144.15272 C 95.31524 146.12484 86.37638 148.87231 84.75147 147.69246 C 87.20492 151.76305 91.57982 150.79565 95.18544 151.27031 C 105.94389 152.69144 115.77019 156.02887 125.81008 150.23956 L 133.92633 143.91262 C 130.79804 150.23497 124.69511 155.05413 117.64884 156.20203 C 114.16387 156.77065 110.71747 156.19007 107.25485 156.71372 C 104.76466 163.82065 98.49124 169.05418 97.24497 176.70478 C 106.5324 179.7687 109.27945 173.68677 114.945 168.78475 C 115.38209 168.4132 119.98897 164.76826 118.89174 167.17452 C 118.1662 168.76172 113.95801 174.24808 112.59115 175.60616 C 100.58664 187.53925 88.71087 174.40422 76.767375 170.34695 C 72.44608 168.879 65.027294 166.85815 60.735126 168.98645 C 59.941755 169.38277 59.021756 169.72922 59.063124 170.80412 C 61.44253 169.96253 64.157985 170.07688 66.50707 171.04848 C 62.432515 172.08482 55.935796 171.94686 54.9655 177.17733 C 58.36708 175.49048 62.09695 173.97806 65.95905 174.9859 C 64.87213 176.32987 62.84178 175.94296 61.28156 176.54688 C 58.44982 177.6403 56.536886 179.84105 55.272676 182.5606 C 59.111006 182.3303 61.94912 179.09961 65.88937 179.24712 C 66.06729 181.44238 64.780495 180.4811 63.40023 181.21188 C 61.089816 182.43735 59.570085 183.39977 59.54838 186.3688 C 59.80002 186.74627 63.89566 185.1035 64.795114 184.94126 C 77.95091 182.54055 82.92994 195.41725 90.30579 203.25863 C 107.50911 221.5417 127.28684 217.0568 141.64063 198.60101 C 143.25888 196.5192 144.43792 193.8732 146.38938 192.15895 C 145.66268 198.50879 141.0768 203.4877 137.20755 208.23591 C 138.68518 213.1262 139.86214 218.13994 139.93742 223.27146 C 140.56036 223.97374 144.21851 222.8575 143.40038 224.87535 L 140.20335 224.99265 C 139.56017 230.21564 138.8124 235.19407 136.824 240.09972 C 135.1639 244.19088 132.47389 247.69897 130.0604 251.33144 C 136.78144 251.3566 143.46758 255.12937 142.36332 262.68232 C 150.29723 263.09176 152.85375 272.66662 151.8101 279.2178 C 151.3953 281.8269 149.47178 283.64662 149.93323 286.75304 C 150.00396 287.23873 149.968 288.21724 150.83198 287.92706 C 151.44911 287.7198 158.57254 279.67107 159.61327 278.42752 C 176.65844 258.05142 184.3899 233.9235 180.77123 207.25962 C 177.44489 182.7376 159.94522 169.11152 154.56356 146.39605 C 153.56964 142.20986 150.62643 118.61298 147.45748 117.57961 C 146.83942 117.37515 145.8413 117.93513 145.10406 117.66581 C 144.7805 117.26754 150.01613 110.28986 150.5996 109.10499 C 153.1228 104.00724 153.62456 99.1439 153.7676 93.56197 C 153.92998 87.27181 152.95029 80.77838 153.30949 74.45708 Z M 150.03473 82.544225 L 150.03252 82.55995 C 150.0041 88.50545 151.55536 94.50724 150.13146 100.41698 C 149.3832 103.53513 146.83775 110.0463 143.86204 111.36536 C 148.36326 104.70677 149.971 97.33683 149.0748 89.37444 L 147.69737 89.70471 C 148.04235 91.6241 145.48287 91.9593 147.54224 92.59618 L 144.97792 95.74241 L 148.19224 95.65426 L 144.75765 97.30974 L 147.33202 97.93347 L 142.7739 99.97629 L 145.35426 100.59552 L 141.95503 101.99939 L 143.41333 102.99547 L 140.6533 103.6927 L 140.76356 104.77194 L 143.09156 105.36104 L 140.2541 106.57125 L 142.90141 106.67603 L 141.14015 107.75952 L 143.20459 108.32227 C 143.23318 109.374 141.84909 108.42042 141.55908 108.62021 C 141.20405 108.86432 143.62558 114.37904 140.83286 113.8636 C 142.05154 110.21288 136.46445 107.13981 135.81581 105.66952 C 134.58702 102.88824 145.0183 84.84336 148.14892 82.84046 C 148.88896 82.36716 149.1268 82.2723 150.03473 82.544225 Z M 117.76718 114.3584 L 117.76718 114.3584 C 115.57631 113.17384 114.20469 111.44693 111.58837 110.8173 C 103.06085 108.77426 100.89115 113.94307 98.21547 120.46801 C 97.86778 121.30649 98.52979 122.07306 96.97759 121.59298 C 97.68125 113.01086 104.68998 105.55005 113.48765 109.85477 C 114.22735 110.22066 119.00557 113.45801 117.76718 114.3584 Z M 100.42592 123.68125 L 100.42592 123.68125 C 100.27017 117.06841 106.66692 109.77818 113.07379 114.85341 C 118.25972 118.95523 113.4197 127.07362 107.286 126.25435 C 104.81485 125.92309 102.98009 123.65 100.42592 123.68125 Z M 119.20017 119.37605 L 119.19493 119.37532 C 118.71613 130.38915 108.6765 133.32403 100.50358 126.89409 C 100.56977 126.04278 100.41322 125.67332 101.42001 125.96449 C 102.84329 126.37299 104.01193 127.71858 105.92795 128.19633 C 113.52011 130.08654 115.46152 126.58015 117.96229 120.50103 C 118.30998 119.66255 117.64871 118.89074 119.20017 119.37605 Z M 168.60316 182.43577 L 168.60316 182.43577 C 166.7871 180.48603 166.236 177.7893 164.77325 175.49366 C 165.82344 174.79132 168.99653 181.2723 168.60316 182.43577 Z M 163.95837 181.25379 L 163.95837 181.25379 C 162.97864 182.32951 165.49473 183.32993 164.63914 184.01684 C 163.78354 184.70376 161.63926 180.2971 163.95837 181.25379 Z M 165.61311 184.69362 L 165.61311 184.69362 C 164.97638 186.48573 167.50023 187.27876 167.12125 189.1766 L 164.46618 185.32356 Z M 163.83128 193.53047 L 163.83128 193.53047 C 162.54347 191.13112 160.52956 188.42124 160.67962 185.6039 C 162.31926 187.66783 163.582 190.8922 163.83128 193.53047 Z M 174.5506 197.1698 L 174.54537 197.16907 C 173.11869 197.24118 173.67453 196.74734 173.41368 195.94093 C 172.64473 193.57708 171.7166 190.67235 171.5403 188.19936 C 173.33052 190.63725 174.16738 194.2294 174.5506 197.1698 Z M 158.0407 190.8404 L 158.03545 190.83967 C 158.586 191.63868 159.40246 192.18106 159.03989 193.39163 C 158.02239 194.31772 157.36627 190.5425 157.3416 190.22364 C 157.9717 189.46762 157.81461 190.50928 158.0407 190.8404 Z M 160.0146 194.06316 L 160.0146 194.06316 L 160.62694 197.35115 C 158.79298 197.73486 158.57908 192.22036 160.0146 194.06316 Z M 166.24497 199.21515 L 166.24497 199.21515 L 165.20707 199.06928 L 165.42735 197.50195 L 166.354 198.43934 Z M 154.19307 197.5267 L 154.19233 197.53195 L 154.70604 197.60415 L 154.75982 199.1993 L 154.08404 198.30251 Z M 167.5998 204.751 L 167.59906 204.75625 C 166.93308 204.5504 166.59213 202.75452 166.44694 202.11404 C 166.2707 201.31418 165.85138 200.60845 166.1758 199.74532 C 167.54304 200.8569 167.94791 203.11077 167.5998 204.751 Z M 173.60391 211.47483 L 173.60391 211.47483 C 172.71151 210.78814 172.59412 208.5426 172.43293 207.4455 C 172.2033 205.88443 171.89579 204.30706 172.17143 202.72613 L 173.71541 208.81778 Z M 162.95574 203.56378 L 162.95648 203.55854 L 163.71868 209.54566 C 162.8337 208.50187 162.03546 205.43365 161.86335 204.14793 C 161.72854 203.12939 162.21728 203.41724 162.95574 203.56378 Z M 177.4121 207.19913 L 177.87962 215.28302 C 176.33982 215.3232 177.05513 214.83572 176.93327 213.91522 C 176.70027 212.18796 176.44226 209.99214 176.2991 208.27216 C 176.20966 207.121 176.17835 206.84934 177.4121 207.19913 Z M 148.37754 212.20586 L 148.3768 212.2111 L 146.465 207.3293 L 146.19985 204.95606 C 147.68697 206.77404 148.70021 209.9099 148.37754 212.20586 Z M 170.1074 221.1398 L 170.1074 221.1398 C 169.35586 221.16246 169.47249 220.10442 169.42035 219.56254 C 169.13542 216.72148 169.0716 213.6763 168.89593 210.81852 C 170.686 213.52366 170.49415 218.04567 170.1074 221.1398 Z M 144.65677 219.70112 L 144.66201 219.70186 C 143.14024 219.76595 143.8517 219.22983 143.64392 218.38812 C 143.10899 216.22287 142.67566 213.63891 142.62642 211.40294 C 144.18998 213.5898 144.5445 217.07676 144.65677 219.70112 Z M 165.10024 222.57427 L 165.10024 222.57427 C 163.71516 222.50255 164.21977 222.52536 164.18333 221.64358 C 164.10816 219.85833 164.1822 217.84815 164.42146 216.06967 C 165.19848 216.05593 165.01445 217.09915 165.09583 217.66117 C 165.31423 219.226 165.33698 221.0039 165.10024 222.57427 Z M 174.46276 224.41928 L 174.46727 224.42526 C 172.8481 224.45963 173.68455 223.909 173.58742 223.00266 C 173.38103 221.12413 173.45762 219.24795 173.85691 217.39573 C 174.55375 217.344 174.56383 218.48934 174.56789 218.95496 C 174.58327 220.78527 174.04834 222.57566 174.46276 224.41928 Z M 178.79366 220.22773 L 178.78842 220.227 C 178.18118 222.15154 178.5282 223.98035 178.50173 225.8422 C 178.48765 226.89327 178.28032 226.58082 177.3914 226.43986 C 177.36848 224.5871 177.1164 222.69146 177.63699 220.85095 C 177.83677 220.15205 178.25097 219.25877 178.79366 220.22773 Z M 149.5955 218.79158 L 149.5955 218.79158 C 148.88425 220.73358 149.73919 223.05606 149.29493 224.88592 C 149.0561 225.86264 149.26248 225.76336 148.11958 225.5279 C 148.83083 223.5859 147.9759 221.2634 148.42015 219.43356 C 148.65899 218.45683 148.4526 218.55612 149.5955 218.79158 Z M 178.44231 230.33472 L 178.44231 230.33472 C 178.07682 231.90837 178.15896 233.79617 177.7417 235.31978 C 177.53455 236.0711 177.1097 236.88805 176.5843 235.94824 C 176.94978 234.3746 176.86764 232.4868 177.2849 230.96318 C 177.49205 230.21186 177.9169 229.3949 178.44231 230.33472 Z M 156.35332 227.7595 L 155.24827 235.6224 L 154.19989 235.47505 L 155.30494 227.61217 Z M 165.64143 230.13396 L 164.61005 237.47264 L 163.56167 237.3253 L 164.59305 229.98662 Z M 173.88043 232.3663 L 173.8864 232.3618 C 173.61167 234.01236 173.4815 235.69926 173.1858 237.34687 C 173.07045 237.97746 173.30489 239.35212 172.41048 239.09812 C 172.12013 237.17037 172.20848 234.8682 172.72899 232.99027 C 172.92427 232.2854 173.34224 231.40333 173.88043 232.3663 Z M 151.26651 229.72268 L 151.26651 229.72268 L 150.01684 234.88716 C 150.2364 233.66718 148.99617 229.14167 151.26651 229.72268 Z M 156.15707 240.56637 L 156.15634 240.5716 C 155.93895 242.42266 155.37113 244.56122 154.54395 246.225 C 154.11845 247.08462 154.34167 247.47414 153.10857 247.08167 C 153.8712 245.34467 154.22397 243.44316 154.91993 241.6861 C 155.26008 240.82517 154.61986 240.09374 156.15707 240.56637 Z M 142.16373 245.00893 L 142.15923 245.00295 C 140.16835 246.5032 142.43708 241.42847 142.65843 240.99453 C 142.99533 240.34697 143.03514 239.4171 144.02249 239.39016 C 144.05723 241.50115 142.94183 243.16185 142.16373 245.00893 Z M 172.64976 252.4954 L 172.64976 252.4954 L 172.64976 252.4954 C 171.70426 252.4908 172.29804 251.23254 172.44198 250.66477 C 172.83598 249.1165 173.74065 246.63507 174.38781 245.1491 C 174.61047 244.62982 174.7361 243.58373 175.474 243.81038 Z M 164.18828 251.8461 L 163.19099 251.44935 C 164.59149 249.73785 164.0648 246.25878 166.19438 245.17894 Z M 146.2921 249.8655 L 146.28759 249.85952 L 145.42556 249.03277 C 146.78503 247.385 146.96006 244.352 148.82238 243.27201 C 148.76812 245.75002 147.07082 247.63363 146.2921 249.8655 Z M 168.83308 253.02808 L 168.83308 253.02808 C 167.88831 253.01825 168.48136 251.76523 168.6253 251.19746 C 168.89754 250.09714 169.66 247.29637 170.76477 246.89036 Z M 157.6078 253.0648 L 157.6078 253.0648 C 156.9356 254.72898 156.10148 256.63233 155.03873 258.07057 C 154.81409 258.37577 154.23754 259.96786 153.5846 258.90857 C 153.44181 258.66934 155.8172 254.7375 156.26253 254.04104 C 156.70787 253.34457 156.15364 252.57177 157.6078 253.0648 Z M 156.958 265.25733 L 156.95874 265.2521 L 157.00702 263.7675 L 160.60961 258.29224 C 160.3253 260.99984 158.20603 262.9952 156.958 265.25733 Z M 169.00118 259.47694 L 169.00045 259.48218 C 169.26118 259.90905 165.0059 267.40402 163.5605 267.79957 C 164.7484 265.43278 166.14995 262.53473 167.56507 260.33885 C 168.04324 259.5989 167.67365 259.0338 169.00118 259.47694 Z M 157.53776 270.6789 L 157.53776 270.6789 L 159.44587 266.68676 C 160.6841 267.68932 158.45373 270.20896 157.53776 270.6789 Z M 156.93842 271.13992 L 156.93842 271.13992 C 157.25484 271.3608 157.22979 271.539 156.86475 271.6641 Z M 97.6643 131.85077 C 97.6643 131.85077 97.6643 131.85077 97.6643 131.85077 Z M 170.1184 194.41622 L 171.15858 200.42422 L 169.02322 195.00317 Z M 151.79523 203.06785 C 151.86056 205.35243 153.6759 207.2909 153.01383 209.64483 L 150.702 203.65374 Z M 158.27714 248.3424 C 158.27714 248.3424 158.27714 248.3424 158.27714 248.3424 Z" fill="#FFFFFF"/>
          </g>
          <g id="Graphic_194">
            <path d="M 138.5308 225.25472 L 137.24157 234.42807 C 136.96973 236.36234 134.0419 242.28523 132.91294 244.23267 C 131.9607 245.87353 128.61581 250.77027 127.10679 251.50434 L 126.45608 251.76034 C 113.9351 246.90562 104.97802 255.14565 95.0345 260.51553 C 94.43261 260.84254 92.86179 262.05436 92.30674 261.24937 C 103.66686 245.76186 118.65609 228.56602 138.5308 225.25472 Z" fill="#FFFFFF"/>
          </g>
          <g id="Graphic_193">
            <path d="M 111.97386 235.41522 C 110.97594 235.40326 111.73523 234.8311 111.85837 234.33524 C 113.22555 228.82913 115.20784 223.54845 115.57733 217.80056 C 123.10495 217.63974 130.01997 214.07864 135.68669 209.35853 C 136.71263 209.5134 139.05072 222.12586 138.0827 223.08029 C 128.5774 223.96277 118.41479 228.45727 111.97386 235.41522 Z" fill="#FFFFFF"/>
          </g>
          <g id="Graphic_192">
            <path d="M 130.69557 71.81345 C 129.32148 75.92342 131.54053 92.1594 128.84871 94.53934 C 127.79902 95.46625 122.27316 93.97335 120.38797 93.88481 C 117.4404 93.74852 114.45217 94.16778 111.51403 94.2306 C 114.39527 86.58528 118.56693 80.17971 124.88908 74.97976 L 130.70081 71.81418 Z" fill="#FFFFFF"/>
          </g>
          <g id="Graphic_191">
            <path d="M 90.3526 206.72906 C 90.13097 207.6975 87.70591 206.2395 87.24502 206.0197 C 83.19217 204.08702 78.78791 200.6991 75.939 197.19834 C 73.38211 194.05401 72.98829 193.69932 74.59883 189.5424 C 81.19296 194.00783 84.11325 201.90723 90.34736 206.72832 Z" fill="#FFFFFF"/>
          </g>
          <g id="Graphic_190">
            <path d="M 41.521 181.6703 L 41.52463 177.99314 L 44.688424 178.07429 L 45.092136 181.13517 Z" fill="#FFFFFF"/>
          </g>
          <g id="Graphic_189">
            <path d="M 46.07759 182.90938 L 47.115344 187.27813 C 44.673376 187.2717 43.52313 185.45295 42.28836 183.6651 C 43.31266 182.76668 44.777734 182.45942 46.07759 182.90938 Z" fill="#FFFFFF"/>
          </g>
          <g id="Graphic_188">
            <path d="M 41.705093 176.36675 C 41.18249 175.67323 43.099104 172.45736 44.38 172.47167 L 44.169163 176.21593 L 41.705093 176.36675 Z" fill="#FFFFFF"/>
          </g>
        </g>
        <g id="Graphic_186">
          <path d="M 100.42592 123.68125 C 100.27017 117.06841 106.66692 109.77818 113.07379 114.85341 C 118.25448 118.95449 113.4197 127.07362 107.286 126.25435 C 104.81485 125.92309 102.98009 123.65 100.42592 123.68125 Z M 108.3222 115.76253 C 106.12556 115.98835 106.0456 119.67617 108.16333 119.9738 C 110.81574 120.34657 111.06072 115.48457 108.3222 115.76253 Z" fill="black"/>
        </g>
        <g id="Graphic_185">
          <path d="M 97.66864 131.85181 L 93.75267 133.16702 C 94.86277 136.75482 98.28466 136.1025 101.1773 137.42845 C 102.06083 137.83593 102.39515 137.70117 102.02201 138.87284 L 94.83517 136.79905 C 92.40465 138.53684 102.24018 141.65641 102.6269 142.17581 L 101.80015 143.03784 L 94.45319 140.01144 L 93.64418 141.43188 C 95.40047 141.79097 97.35554 142.9798 97.99355 144.71587 L 92.44772 142.33817 L 93.41319 139.27193 L 90.27328 138.83064 C 89.97506 136.73073 93.04334 138.59453 93.56127 138.2183 C 93.36752 137.61911 93.39225 134.66655 93.28846 134.45418 C 93.00495 133.88514 91.11491 133.64089 92.51445 132.16446 C 93.29787 131.34445 96.53089 131.57966 97.66266 131.85632 Z" fill="black"/>
        </g>
        <g id="Graphic_184">
          <path d="M 117.76718 114.3584 C 115.57631 113.17384 114.20469 111.44693 111.58837 110.8173 C 103.06085 108.77426 100.89115 113.94307 98.21547 120.46801 C 97.87302 121.30723 98.5343 122.07904 96.97759 121.59298 C 97.68125 113.01086 104.68998 105.55005 113.48765 109.85477 C 114.22809 110.21542 119.00033 113.45728 117.76718 114.3584 Z" fill="black"/>
        </g>
        <g id="Graphic_183">
          <path d="M 119.20017 119.37605 C 118.72137 130.38989 108.68174 133.32477 100.50883 126.89483 C 100.57502 126.04351 100.42371 125.6748 101.42525 125.96522 C 102.84853 126.37373 104.01643 127.72455 105.93319 128.19706 C 113.52011 130.08654 115.46676 126.58088 117.96753 120.50176 C 118.30998 119.66255 117.64871 118.89074 119.20542 119.37679 Z" fill="black"/>
        </g>
        <g id="Graphic_182">
          <path d="M 170.1074 221.1398 C 169.35062 221.16173 169.47249 220.10442 169.42035 219.56254 C 169.14066 216.72222 169.0716 213.6763 168.89593 210.81852 C 170.68527 213.5289 170.49415 218.04567 170.1074 221.1398 Z" fill="black"/>
        </g>
        <g id="Graphic_181">
          <path d="M 169.00118 259.47694 C 169.26192 259.9038 165.01188 267.39952 163.56123 267.79433 C 164.74914 265.42754 166.14995 262.53473 167.5658 260.3336 C 168.038 259.59816 167.67438 259.02854 169.00192 259.4717 Z" fill="black"/>
        </g>
        <g id="Graphic_180">
          <path d="M 174.5506 197.1698 C 173.11869 197.24118 173.67977 196.74808 173.41892 195.94167 C 172.65071 193.57258 171.72184 190.6731 171.54555 188.2001 C 173.33052 190.63725 174.16665 194.23465 174.55585 197.17055 Z" fill="black"/>
        </g>
        <g id="Graphic_179">
          <path d="M 155.30494 227.61217 L 156.35332 227.7595 L 155.24827 235.6224 L 154.19989 235.47505 Z" fill="black"/>
        </g>
        <g id="Graphic_178">
          <path d="M 177.4121 207.19913 L 177.87962 215.28302 C 176.33982 215.3232 177.05513 214.83572 176.93327 213.91522 C 176.70027 212.18796 176.43701 209.9914 176.2991 208.27216 C 176.20368 207.12552 176.17761 206.85458 177.4121 207.19913 Z" fill="black"/>
        </g>
        <g id="Graphic_177">
          <path d="M 164.59305 229.98662 L 165.64143 230.13396 L 164.61005 237.47264 L 163.56167 237.3253 Z" fill="black"/>
        </g>
        <g id="Graphic_176">
          <path d="M 172.64976 252.4954 C 171.70426 252.4908 172.29804 251.23254 172.44198 250.66477 C 172.83598 249.1165 173.74065 246.63507 174.38781 245.1491 C 174.6157 244.63056 174.73684 243.5785 175.474 243.81038 Z" fill="black"/>
        </g>
        <g id="Graphic_175">
          <path d="M 144.65677 219.70112 C 143.13573 219.75997 143.84719 219.22385 143.63867 218.38738 C 143.10374 216.22213 142.67566 213.63891 142.62118 211.4022 C 144.18925 213.59505 144.53853 217.08127 144.65152 219.70039 Z" fill="black"/>
        </g>
        <g id="Graphic_174">
          <path d="M 156.15707 240.56637 C 155.93895 242.42266 155.37186 244.55597 154.54469 246.21976 C 154.11919 247.07938 154.3424 247.4689 153.1093 247.07643 C 153.8712 245.34467 154.2247 243.43792 154.92066 241.68085 C 155.26082 240.81993 154.62133 240.08326 156.15781 240.56112 Z" fill="black"/>
        </g>
        <g id="Graphic_173">
          <path d="M 173.60391 211.47483 C 172.71225 210.7829 172.59412 208.5426 172.43293 207.4455 C 172.2078 205.8904 171.9003 204.31304 172.17143 202.72613 L 173.71541 208.81778 L 173.60391 211.47483 Z" fill="black"/>
        </g>
        <g id="Graphic_172">
          <path d="M 146.2921 249.8655 L 145.43007 249.03875 C 146.78954 247.39097 146.96456 244.35797 148.82689 243.278 C 148.76812 245.75002 147.07606 247.63437 146.2966 249.87147 Z" fill="black"/>
        </g>
        <g id="Graphic_171">
          <path d="M 149.5955 218.79158 C 148.88498 220.72834 149.73919 223.05606 149.29493 224.88592 C 149.05536 225.86788 149.26248 225.76336 148.11958 225.5279 C 148.8301 223.59114 147.9759 221.2634 148.42015 219.43356 C 148.65972 218.4516 148.4526 218.55612 149.5955 218.79158 Z" fill="black"/>
        </g>
        <g id="Graphic_170">
          <path d="M 155.9854 199.91144 L 157.64865 207.09429 L 154.8863 200.50534 Z" fill="black"/>
        </g>
        <g id="Graphic_169">
          <path d="M 173.88043 232.3663 C 173.61167 234.01236 173.47552 235.70377 173.17982 237.35137 C 173.06971 237.9827 173.29891 239.35662 172.4045 239.10263 C 172.11489 237.16964 172.20324 234.86747 172.723 232.99477 C 172.91903 232.28465 173.33626 231.40783 173.87445 232.37082 Z" fill="black"/>
        </g>
        <g id="Graphic_168">
          <path d="M 164.18828 251.8461 L 163.19099 251.44935 C 164.59149 249.73785 164.0648 246.25878 166.19438 245.17894 Z" fill="black"/>
        </g>
        <g id="Graphic_167">
          <path d="M 178.79366 220.22773 C 178.18044 222.15679 178.53344 223.98109 178.50697 225.84293 C 178.4929 226.894 178.28556 226.58156 177.39665 226.4406 C 177.37446 224.5826 177.12163 222.6922 177.64223 220.8517 C 177.84202 220.15279 178.2517 219.25353 178.7989 220.22847 Z" fill="black"/>
        </g>
        <g id="Graphic_166">
          <path d="M 148.37754 212.20586 L 146.46574 207.32405 L 146.20059 204.95082 C 147.6877 206.7688 148.70021 209.9099 148.37828 212.20062 Z" fill="black"/>
        </g>
        <g id="Graphic_165">
          <path d="M 157.6078 253.0648 C 156.9356 254.72898 156.10148 256.63233 155.03873 258.07057 C 154.81409 258.37577 154.23754 259.96786 153.5846 258.90857 C 153.43583 258.67385 155.82391 254.72776 156.26253 254.04104 C 156.70115 253.35432 156.15364 252.57177 157.6078 253.0648 Z" fill="black"/>
        </g>
        <g id="Graphic_164">
          <path d="M 158.27682 248.34257 C 158.60315 246.6672 159.06869 244.6479 159.7007 243.07963 C 159.90615 242.5686 160.06922 241.52244 160.79662 241.7476 C 160.46599 243.83398 160.39042 247.14823 158.27756 248.33732 Z" fill="black"/>
        </g>
        <g id="Graphic_163">
          <path d="M 151.80037 203.0651 C 151.86395 205.3512 153.68148 207.29045 153.01907 209.64557 L 150.70725 203.65448 L 151.80561 203.06583 Z" fill="black"/>
        </g>
        <g id="Graphic_162">
          <path d="M 178.44231 230.33472 C 178.08206 231.9091 178.15823 233.8014 177.7417 235.31978 C 177.53455 236.0711 177.11494 236.88878 176.5843 235.94824 C 176.94454 234.37385 176.86837 232.48155 177.2849 230.96318 C 177.49205 230.21186 177.91166 229.39417 178.44231 230.33472 Z" fill="black"/>
        </g>
        <g id="Graphic_161">
          <path d="M 142.16373 245.00893 C 140.17359 246.50392 142.44158 241.43445 142.66293 241.0005 C 142.99459 240.3522 143.0344 239.42235 144.027 239.39614 C 144.05723 241.50115 142.9411 243.1671 142.16824 245.0149 Z" fill="black"/>
        </g>
        <g id="Graphic_160">
          <path d="M 165.10024 222.57427 C 163.70992 222.5018 164.2205 222.52012 164.18333 221.64358 C 164.10292 219.8576 164.1822 217.84815 164.42146 216.06967 C 165.19848 216.05593 165.01519 217.0939 165.09583 217.66117 C 165.31423 219.226 165.33624 221.00914 165.10024 222.57427 Z" fill="black"/>
        </g>
        <g id="Graphic_159">
          <path d="M 174.46276 224.41928 C 172.84287 224.4589 173.6793 223.90826 173.58291 222.99668 C 173.38177 221.11888 173.45311 219.24197 173.8524 217.38976 C 174.5485 217.34326 174.55933 218.48336 174.56338 218.94899 C 174.57877 220.7793 174.04383 222.56968 174.45826 224.4133 Z" fill="black"/>
        </g>
        <g id="Graphic_158">
          <path d="M 163.83128 193.53047 C 162.54347 191.13112 160.52956 188.42124 160.67962 185.6039 C 162.31926 187.66783 163.582 190.8922 163.83128 193.53047 Z" fill="black"/>
        </g>
        <g id="Graphic_157">
          <path d="M 156.958 265.25733 L 157.00629 263.77273 L 160.60887 258.29748 C 160.3253 260.99984 158.2053 263.00044 156.95727 265.26257 Z" fill="black"/>
        </g>
        <g id="Graphic_156">
          <path d="M 162.95574 203.56378 L 163.71794 209.5509 C 162.83296 208.5071 162.02948 205.43815 161.86261 204.15317 C 161.72854 203.12939 162.21654 203.42248 162.955 203.56903 Z" fill="black"/>
        </g>
        <g id="Graphic_155">
          <path d="M 170.12158 194.41452 L 171.15784 200.42946 L 169.02248 195.0084 Z" fill="black"/>
        </g>
        <g id="Graphic_154">
          <path d="M 168.83308 253.02808 C 167.88758 253.0235 168.48586 251.7712 168.6253 251.19746 C 168.89828 250.0919 169.66 247.29637 170.76477 246.89036 Z" fill="black"/>
        </g>
        <g id="Graphic_153">
          <path d="M 151.26651 229.72268 L 150.01684 234.88716 C 150.23566 233.67242 148.99617 229.14167 151.26651 229.72268 Z" fill="black"/>
        </g>
        <g id="Graphic_152">
          <path d="M 167.5998 204.751 C 166.93382 204.54516 166.59287 202.74928 166.44768 202.1088 C 166.26546 201.31344 165.85138 200.60845 166.17654 199.74008 C 167.54304 200.8569 167.94791 203.11077 167.60053 204.74577 Z" fill="black"/>
        </g>
        <g id="Graphic_151">
          <path d="M 168.60316 182.43577 C 166.7871 180.48603 166.23673 177.78406 164.77325 175.49366 C 165.82344 174.79132 168.9958 181.27753 168.60316 182.43577 Z" fill="black"/>
        </g>
        <g id="Graphic_150">
          <path d="M 160.0146 194.06316 L 160.62694 197.35115 C 158.79298 197.73486 158.57908 192.22036 160.0146 194.06316 Z" fill="black"/>
        </g>
        <g id="Graphic_149">
          <path d="M 165.61311 184.69362 C 164.97638 186.48573 167.50023 187.27876 167.12125 189.1766 L 164.46618 185.32356 L 165.61311 184.69362 Z" fill="black"/>
        </g>
        <g id="Graphic_148">
          <path d="M 158.0407 190.8404 C 158.586 191.63868 159.4077 192.1818 159.04513 193.39237 C 158.02239 194.31772 157.37151 190.54323 157.34683 190.22438 C 157.97694 189.46835 157.81461 190.50928 158.04594 190.84114 Z" fill="black"/>
        </g>
        <g id="Graphic_147">
          <path d="M 159.44587 266.68676 C 160.68336 267.69457 158.45373 270.20896 157.53776 270.6789 Z" fill="black"/>
        </g>
        <g id="Graphic_146">
          <path d="M 163.95837 181.25379 C 162.97864 182.32951 165.494 183.33517 164.63914 184.01684 C 163.78428 184.69852 161.63926 180.2971 163.95837 181.25379 Z" fill="black"/>
        </g>
        <g id="Graphic_145">
          <path d="M 166.24497 199.21515 L 165.20183 199.06854 L 165.42284 197.49597 L 166.34876 198.4386 Z" fill="black"/>
        </g>
        <g id="Graphic_144">
          <path d="M 150.03473 82.544225 C 150.00631 88.48972 151.56208 94.4975 150.13367 100.40126 C 149.38016 103.51867 146.83996 110.03057 143.86425 111.34964 C 148.36547 104.69104 149.97321 97.3211 149.07702 89.35872 L 147.69958 89.68899 C 148.04456 91.60838 145.48508 91.94358 147.54445 92.58046 L 144.98013 95.72668 L 148.19445 95.63853 L 144.75986 97.29402 L 147.33423 97.91775 L 142.77611 99.96056 L 145.35647 100.57979 L 141.95724 101.98366 L 143.41554 102.97974 L 140.65552 103.67697 L 140.76577 104.75621 L 143.09377 105.34532 L 140.25631 106.55552 L 142.90362 106.6603 L 141.14236 107.74379 L 143.2068 108.30655 C 143.23015 109.35754 141.8513 108.4047 141.56129 108.60449 C 141.20626 108.84859 143.6278 114.36331 140.83507 113.84788 C 142.05375 110.19715 136.46666 107.12408 135.81802 105.6538 C 134.58923 102.87252 145.02575 84.82837 148.15113 82.82474 C 148.89117 82.35144 149.12901 82.25657 150.03694 82.5285 Z" fill="black"/>
        </g>
        <g id="Graphic_143">
          <path d="M 154.19307 197.5267 L 154.70678 197.5989 L 154.76055 199.19406 L 154.08404 198.30251 Z" fill="black"/>
        </g>
        <g id="Graphic_142">
          <path d="M 156.93842 271.13992 C 157.25484 271.3608 157.22979 271.539 156.86475 271.6641 Z" fill="black"/>
        </g>
        <g id="Graphic_141">
          <path d="M 142.47945 379.7641 C 142.4208 380.63785 143.88171 380.47433 144.74028 381.09747 C 148.09437 383.552 148.0913 389.1269 144.09257 390.9169 C 142.59166 391.5933 137.50657 392.6694 137.86163 389.80066 C 140.52855 390.2984 144.1831 390.23473 145.08749 387.2989 C 146.46966 382.78914 141.33476 381.70933 141.94492 379.4217 C 142.26408 378.2157 144.8345 378.41126 146.04039 376.71517 C 148.6231 373.0958 146.36559 371.24436 143.50985 369.35163 C 142.84033 368.90474 142.02191 369.4793 142.52763 368.01086 C 151.05098 369.20874 150.95966 379.10104 142.47872 379.76934 Z" fill="black"/>
        </g>
        <g id="Graphic_140">
          <path d="M 51.092806 158.97702 C 51.262984 158.75505 51.345523 158.51007 51.69067 158.5265 C 51.592573 158.84413 51.312627 158.85824 51.092806 158.97702 Z" fill="black"/>
        </g>
        <g id="Graphic_139">
          <path d="M 48.62769 161.3033 C 48.58955 161.65074 48.529706 162.00047 48.481083 162.34644 C 48.15977 162.27456 47.495773 162.2828 47.43794 162.19984 C 47.38011 162.11687 47.57032 161.48611 47.58528 161.15145 C 47.92133 161.1185 48.380014 161.35402 48.633666 161.2988 Z" fill="black"/>
        </g>
        <g id="Graphic_138">
          <path d="M 123.10537 338.8159 L 123.10987 338.82188 C 123.19051 336.4224 123.86794 333.42795 124.21493 330.959 C 124.22377 330.8961 125.12235 330.01744 125.3437 330.5724 C 126.88856 333.42483 128.70878 337.20864 132.42632 337.19122 C 133.03948 334.57794 133.92557 331.1638 135.3098 328.88338 C 136.56276 326.81438 138.80483 326.15126 139.6602 324.70526 C 140.66322 323.0074 140.80781 320.41913 142.11231 318.63 C 143.41681 316.84085 145.32736 316.5588 146.71341 315.40652 C 152.58487 310.52276 148.18186 298.454 151.35337 291.71008 C 152.19077 289.93548 158.44197 284.47967 160.25106 282.37123 C 181.15226 258.0255 190.57528 226.8441 181.1714 195.24583 C 176.61808 179.94867 165.8092 168.84518 160.17448 154.35822 C 155.98854 143.59752 156.1091 132.73647 152.8214 121.9363 C 152.341 120.37206 150.41123 117.13946 150.27205 115.84769 C 150.11 114.3763 153.537 110.03633 154.35554 107.86351 C 158.68485 96.38054 155.30988 82.09356 156.06929 70.03404 C 154.14275 68.22379 134.20326 83.5586 133.80179 87.74647 C 132.9199 88.39227 132.86037 87.56071 132.87365 86.81956 C 132.96189 81.17112 133.44982 75.49333 133.59571 69.853 C 133.61736 69.16648 133.7071 67.80531 132.6276 67.80327 C 129.89217 67.79301 122.20103 73.41529 120.05555 75.40696 C 114.51853 80.53551 110.69264 87.56164 108.65939 94.80228 C 96.33613 96.9084 89.02694 103.92072 81.49826 113.17936 C 79.70811 115.38133 70.87986 126.62224 70.39489 128.32343 C 69.16791 132.60375 74.932145 142.47975 78.19511 145.35448 C 79.04124 146.10416 80.37524 146.42527 81.26872 147.25644 C 82.43151 148.33928 83.17184 150.2982 84.90471 151.54668 C 90.27727 155.4235 98.2978 153.42896 104.53413 155.2676 C 105.32393 156.26595 93.65434 172.28193 94.17496 175.72808 L 75.15862 166.38972 C 74.24185 165.19179 75.59358 162.1157 75.27335 160.21047 C 74.93041 158.20049 70.96183 154.14681 69.1755 153.0886 C 67.389165 152.03038 62.85479 151.01359 62.25611 150.44301 C 60.99272 149.23913 62.68139 144.86867 56.58753 145.43947 C 52.25402 145.84608 54.132044 151.34856 53.67645 151.81373 C 53.53305 151.95928 50.81119 152.65119 49.81463 153.23811 C 44.9365 156.11261 42.13845 160.50355 42.05047 166.26428 L 44.152477 166.5597 C 44.408763 169.64262 41.570817 169.98145 40.199927 172.20493 C 37.38952 176.75984 38.467654 185.06318 42.83587 188.40327 C 44.709133 189.83185 47.599385 190.10976 48.713845 191.00406 C 49.328084 191.50199 51.93785 196.17186 53.157345 197.49786 C 56.16071 200.77443 60.2426 203.2992 63.99097 205.6488 C 64.8951 205.56739 70.05111 198.47162 71.23632 197.22699 C 71.4753 196.97192 71.38752 196.22726 72.23379 196.70968 C 72.74874 197.00122 76.048855 201.39927 77.10894 202.41422 C 83.83035 208.86467 86.7189 208.39398 94.6852 211.19739 C 96.83991 211.95457 100.00164 214.75093 102.86746 215.81118 C 105.73329 216.87144 108.36901 217.47706 111.44477 217.69017 C 112.6316 218.14562 111.37478 225.11052 111.09716 226.47735 C 108.3828 239.7054 104.6488 240.71477 96.8917 249.92527 C 91.32957 256.52563 86.67605 263.69737 82.4935 271.24533 C 81.11797 273.7301 80.074 277.50693 78.43994 279.5491 C 76.80588 281.59126 72.382606 284.00583 70.14646 285.95803 C 64.20459 291.15263 60.62875 294.23153 60.28873 302.73647 C 60.11014 307.16414 60.5678 312.88395 60.366506 317.20686 C 60.242314 319.87817 59.486486 322.63176 59.25451 325.3093 C 63.501 326.47273 67.375684 324.12004 70.92033 322.1379 C 70.7241 345.17597 80.57329 367.8244 99.06935 381.7776 C 100.65011 382.9673 107.05367 386.58274 107.59356 387.3054 C 108.21601 388.12523 108.521 390.8996 109.00434 392.1008 C 111.43452 398.12454 115.10564 407.33754 122.77457 407.4264 C 124.05022 407.44 125.3698 406.68465 126.60035 406.9431 C 127.91403 407.2186 129.70393 408.86 131.66965 409.13626 C 134.23368 409.49126 136.69135 408.1689 138.79038 408.14315 C 141.5856 408.10836 145.38412 409.79683 148.01568 408.5684 C 150.37729 407.47304 148.40893 406.03645 148.26783 404.2259 C 148.18379 403.15033 148.11879 397.6033 148.60527 397.22266 C 162.7495 396.9173 177.23971 391.0692 187.3864 381.211 C 190.37647 378.30634 192.67017 374.9938 195.50602 372.0835 C 210.70546 356.47274 229.83435 336.25586 253.85296 340.3531 C 246.67505 327.37583 232.42457 320.4499 217.69883 323.78993 C 214.56303 324.4985 211.74617 326.2087 208.6818 327.0556 C 207.77255 306.74873 188.28596 293.07327 168.73114 294.18444 C 167.29647 294.69376 170.8242 297.12995 171.60335 298.05196 C 184.22812 313.00814 185.77337 336.4727 175.6963 353.2524 C 173.18375 357.43756 170.22584 360.98818 165.5369 362.78275 C 147.09376 369.8286 122.32908 361.5693 123.10537 338.8159 Z M 153.30949 74.45708 L 153.32292 74.43759 C 152.96372 80.75889 153.94341 87.25232 153.78103 93.54248 C 153.63873 99.11917 153.131 103.98701 150.61303 109.0855 C 150.02957 110.27037 144.7932 117.25328 145.11749 117.64631 C 145.85473 117.91564 146.85285 117.35566 147.47091 117.56012 C 150.63913 118.59873 153.58757 142.19634 154.57699 146.37656 C 159.95865 169.09203 177.45832 182.7181 180.78466 207.24013 C 184.4026 233.90925 176.66662 258.0312 159.6267 278.40802 C 158.58597 279.65158 151.4573 287.69956 150.84541 287.90757 C 149.98143 288.19774 150.01665 287.22447 149.94666 286.73355 C 149.4852 283.62713 151.40874 281.8074 151.82353 279.1983 C 152.86644 272.65237 150.30992 263.0775 142.37675 262.66283 C 143.48101 255.10988 136.79561 251.33187 130.07383 251.31195 C 132.48732 247.67947 135.17733 244.17138 136.83744 240.08022 C 138.82509 235.17982 139.57287 230.2014 140.21678 224.97316 L 143.4138 224.85585 C 144.23194 222.838 140.5738 223.95424 139.95086 223.25197 C 139.87033 218.1197 138.69337 213.10597 137.22098 208.21642 C 141.09547 203.46894 145.68136 198.49003 146.40282 192.13946 C 144.45061 193.85895 143.27231 196.49971 141.65406 198.58152 C 127.301 217.03207 107.52254 221.5222 90.31922 203.23913 C 82.94263 195.403 77.96434 182.52106 64.808545 184.92177 C 63.90835 185.08926 59.81869 186.7275 59.56181 186.3493 C 59.58876 183.38101 61.10325 182.41786 63.41366 181.19239 C 64.793926 180.4616 66.08072 181.42289 65.902804 179.22763 C 61.96182 179.08536 59.1237 182.31605 55.286107 182.54111 C 56.550316 179.82155 58.46325 177.6208 61.29499 176.5274 C 62.85521 175.92346 64.88556 176.31038 65.97248 174.9664 C 62.11038 173.95857 58.38051 175.47099 54.97893 177.15783 C 55.943984 171.92663 62.43997 172.06983 66.5205 171.02899 C 64.17215 170.05215 61.45596 169.94303 59.076555 170.78463 C 59.035186 169.70972 59.949944 169.36254 60.74856 168.96696 C 65.040725 166.83866 72.46475 168.86025 76.78081 170.32745 C 88.7198 174.37875 100.59483 187.51902 112.60458 175.58666 C 113.97144 174.22858 118.17963 168.74222 118.90517 167.15503 C 120.00166 164.754 115.39028 168.39297 114.95843 168.76526 C 109.29288 173.66727 106.55107 179.74994 97.2584 176.68528 C 98.49943 169.03395 104.77809 163.80116 107.26828 156.69423 C 110.73614 156.17131 114.1773 156.75115 117.66227 156.18253 C 124.70854 155.03464 130.81147 150.21548 133.93976 143.89313 L 125.82351 150.22007 C 115.77912 156.0034 105.95732 152.67195 95.19887 151.25082 C 91.59325 150.77615 87.21311 151.74282 84.7649 147.67296 C 86.38457 148.85208 95.32867 146.10535 93.80976 144.13323 C 90.97125 143.56325 88.34207 144.85083 85.47656 144.58709 C 80.54819 144.12965 77.95784 141.4136 76.19089 137.02255 C 77.53917 134.73174 80.48093 132.96958 80.08762 129.87274 C 79.52526 128.81549 76.13297 128.99088 74.86179 128.64117 C 74.14643 128.44442 73.90918 128.80129 74.20477 127.76305 C 82.14512 117.81925 88.64892 105.58348 100.86922 100.33046 C 109.1699 96.76097 118.74649 96.28408 127.60992 97.57251 L 126.6031 100.89487 C 126.53827 101.35616 127.62309 101.39636 127.86773 101.32918 C 128.68995 101.10797 134.6758 90.88414 136.0043 89.11441 C 139.27183 84.76807 143.86633 79.95608 148.40356 76.95883 C 148.97538 76.57949 152.99854 74.007126 153.30949 74.45708 Z M 59.16567 151.01897 L 59.16567 151.01897 L 55.95136 151.10712 C 55.962636 146.84303 59.88441 146.43737 59.16567 151.01897 Z M 66.63747 154.29812 L 66.63747 154.29812 L 66.43321 156.32207 L 63.974125 155.37243 L 64.185106 153.33873 Z M 56.924086 155.5202 L 56.924086 155.5202 C 56.94942 156.78528 57.53838 157.69125 56.3889 159.1761 L 53.86258 158.2865 C 53.71218 157.9874 54.57715 156.81537 54.67998 156.2739 C 53.99102 156.4978 52.97981 157.22699 52.70919 157.06066 C 51.014915 155.994 52.7246 154.28854 54.19214 154.07784 C 54.93556 154.75963 54.854605 155.37367 54.67998 156.2739 C 55.4637 156.02066 55.99752 155.75902 56.92322 155.52041 C 56.905664 154.93327 56.140876 154.53058 57.13246 153.65719 C 58.93897 152.06155 60.27733 153.6448 58.85348 155.29422 C 58.29126 155.94754 57.34007 155.41294 56.924086 155.5202 L 56.92335 155.52543 C 56.92331 155.52376 56.92327 155.52209 56.923216 155.52042 C 56.923506 155.52034 56.923796 155.52027 56.924086 155.5202 Z M 59.7713 154.3167 L 59.7713 154.3167 L 62.0931 155.14014 C 63.53074 157.9187 58.17744 159.22968 59.7713 154.3167 Z M 69.88154 158.41033 L 69.88154 158.41033 C 68.46761 158.1635 67.02478 157.05735 67.63344 155.427 C 69.04737 155.67383 70.4902 156.77998 69.88154 158.41033 Z M 64.84513 159.82466 L 64.84587 159.81942 L 62.342726 158.91704 L 63.294036 155.87554 L 65.53103 157.26436 Z M 66.746136 157.97503 L 66.746136 157.97503 C 68.608065 157.05001 69.501145 161.00287 67.60034 161.29166 C 65.22958 161.65338 66.10829 158.29164 66.746136 157.97503 Z M 51.092806 158.97702 L 51.087564 158.97628 C 49.27814 159.9461 48.335614 158.28483 49.75031 156.89071 C 51.165004 155.49659 52.20718 156.86716 51.685426 158.52576 C 52.47401 158.65797 55.10242 159.01134 54.589306 160.19006 L 52.503136 162.25421 C 51.762524 161.8187 51.17112 161.15828 50.26869 160.99938 C 50.266056 161.81687 52.26011 163.03257 50.99457 163.51754 C 50.059977 163.70158 48.451133 163.66256 47.623137 163.31634 C 47.058143 163.07657 47.48676 162.27084 47.431226 162.20958 C 47.24586 162.00713 46.110915 161.98126 45.996755 161.15805 C 45.83621 160.0183 47.82063 157.65118 48.43731 158.89247 C 48.629275 159.69454 48.71714 160.47663 48.62769 161.3033 C 49.14621 161.18908 49.72648 160.9018 50.27393 161.00012 C 50.272686 160.78078 50.929343 159.18925 51.092806 158.97702 Z M 60.74853 158.73575 L 59.249116 161.7216 L 56.87212 159.99772 L 58.28687 157.31 Z M 63.67267 160.75035 L 63.67267 160.75035 C 64.35758 162.03865 60.43189 162.70034 59.71012 162.32094 L 61.163634 159.88991 Z M 57.611144 162.04199 L 57.61712 162.03748 C 58.575685 163.50856 54.229965 162.82297 53.733485 163.08462 L 55.15923 160.62296 Z M 72.28999 164.09427 L 72.295964 164.08977 L 72.00202 166.1813 C 68.32228 164.71265 56.387424 166.10895 55.011434 170.04226 C 54.62166 171.1421 54.699326 172.37712 54.28482 173.4628 C 53.44532 175.63266 50.79373 177.2699 51.28664 180.38073 L 53.38938 180.6709 L 52.725613 185.39388 L 56.99282 185.45905 L 56.329784 190.17677 C 61.198704 188.85117 66.97221 185.9956 71.8313 188.58148 C 72.92898 190.66011 65.03193 202.1976 63.092 201.73787 C 62.70925 201.64666 57.454046 197.69547 56.78943 197.0996 C 48.60776 189.78108 46.58424 176.90815 46.8426 166.39788 Z M 41.705093 176.36675 L 41.705093 176.36675 C 41.17651 175.67774 43.09386 172.45662 44.38 172.47167 L 44.169163 176.21593 Z M 41.521 181.6703 L 41.52463 177.99314 L 44.688424 178.07429 L 45.092136 181.13517 Z M 46.07759 182.90938 L 47.115344 187.27813 C 44.673376 187.2717 43.52313 185.45295 42.28836 183.6651 C 43.31266 182.76668 44.777734 182.45942 46.07759 182.90938 Z M 90.3526 206.72906 L 90.35784 206.7298 C 90.13621 207.69825 87.71116 206.24023 87.25026 206.02044 C 83.19741 204.08776 78.793155 200.69983 75.94424 197.19908 C 73.38137 194.05926 72.98829 193.69932 74.60407 189.54313 C 81.19821 194.00857 84.11849 201.90797 90.3526 206.72906 Z M 111.97386 235.41522 L 111.97386 235.41522 C 110.97594 235.40326 111.73523 234.8311 111.85837 234.33524 C 113.22555 228.82913 115.20784 223.54845 115.57733 217.80056 C 123.0997 217.639 130.02071 214.0734 135.68669 209.35853 C 136.7119 209.51865 139.05072 222.12586 138.0827 223.08029 C 128.5774 223.96277 118.42003 228.458 111.97386 235.41522 Z M 138.5308 225.25472 L 138.5308 225.25472 L 137.24157 234.42807 C 136.96973 236.36234 134.04264 242.27998 132.91294 244.23267 C 131.96594 245.87427 128.61581 250.77027 127.10679 251.50434 L 126.45608 251.76034 C 113.94034 246.90635 104.97802 255.14565 95.0345 260.51553 C 94.43261 260.84254 92.86179 262.05436 92.30674 261.24937 C 103.66686 245.76186 118.65609 228.56602 138.5308 225.25472 Z M 159.42192 392.2962 L 159.4107 392.3 C 150.87672 397.30134 128.41116 393.0696 119.27456 389.503 C 76.22 372.7077 66.347785 329.03772 79.02386 287.79367 C 80.43501 283.19178 86.69939 267.7151 89.72885 264.68234 C 90.32638 264.0821 94.38135 262.9949 95.8604 262.24593 C 103.90688 258.16497 110.50657 251.56075 120.6307 252.2085 C 123.08947 252.36163 124.71322 253.35958 126.76485 253.55705 C 130.62477 253.9338 131.9826 252.22166 136.51045 254.65408 C 140.62082 256.86212 140.9374 260.12458 141.00025 264.39374 C 149.68041 265.08446 150.80362 272.8008 149.55412 280.01794 C 149.19203 282.0999 148.1569 283.836 148.10992 286.22417 C 148.07932 287.58296 148.91542 288.86043 148.59887 289.89573 C 148.21541 291.14078 139.4297 299.68287 137.71381 301.62266 C 137.1045 302.30677 134.84554 305.7525 134.5905 305.85563 C 134.41999 305.9279 133.77322 305.28106 133.14855 305.4659 C 132.35631 305.702 131.53648 306.97125 130.33137 307.3685 C 125.5289 308.944 123.31913 305.0413 124.16354 300.74462 C 122.90808 300.39712 123.3241 300.632 122.9469 301.33803 C 121.0259 304.92747 124.45201 309.76018 128.39348 309.7849 C 129.65415 309.79104 130.9396 308.51773 132.14941 308.54343 C 129.55058 312.31557 126.75194 316.4445 124.84572 320.61333 C 110.45574 352.14436 132.65103 375.4909 165.21504 366.0998 C 180.0629 361.81476 189.79023 350.9087 201.28772 341.51826 C 200.51256 356.2002 194.01102 372.0712 182.56114 381.6554 C 182.20398 381.95265 175.45026 386.9904 176.5001 384.8073 C 179.81486 382.14073 179.08175 376.441 174.86516 375.25506 C 173.58423 374.89864 171.4795 374.39437 170.82823 375.7194 C 175.21421 376.00437 178.1727 378.3071 175.99344 382.89727 C 175.3855 384.18026 173.65965 384.70746 173.21137 385.4249 C 172.19024 387.0614 175.90254 385.06544 175.15777 386.7515 C 170.2031 389.21967 164.96844 392.00664 159.41668 392.2955 C 164.97966 389.03615 164.4563 383.0612 158.26987 381.43806 C 161.21427 375.8917 158.38885 371.19685 152.26175 370.9772 C 151.77037 372.49574 152.55422 371.8629 153.33365 372.2504 C 156.53156 373.8384 159.10163 374.87313 157.27283 379.1758 C 156.25864 381.56165 154.78422 381.70723 152.75815 382.54503 C 152.02595 382.8484 151.45044 382.26503 151.54279 383.6999 C 155.41866 384.83796 156.65133 380.09873 159.88205 383.27896 C 161.8448 385.2119 162.10043 387.3486 160.48711 389.6235 L 155.15546 392.2258 C 156.56046 392.4981 158.01621 392.3713 159.42192 392.2962 Z M 75.04408 289.03042 L 75.04408 289.03042 C 73.899955 288.91773 73.839545 289.34757 73.170195 289.96444 C 71.2361 291.74528 68.74213 293.89645 67.38286 295.9612 C 69.58489 293.49104 73.25608 291.52135 75.04408 289.03042 C 76.15151 289.13795 74.42769 293.18808 74.09643 293.6814 C 72.32899 296.33026 65.594374 300.54748 62.95324 302.83298 C 62.339316 293.24248 71.14259 289.1396 77.1687 283.4597 C 76.74748 285.54404 76.28806 287.29158 75.04408 289.03042 Z M 185.6967 342.2671 L 185.70267 342.26258 C 184.6793 346.53944 181.9415 351.4146 180.22152 355.5134 L 175.97495 358.26816 C 188.9643 339.936 188.0044 315.12112 174.9312 297.194 C 177.83205 297.8529 181.0749 297.14335 183.12885 299.68245 C 188.14287 305.88225 191.24625 321.22688 190.75056 329.08987 C 190.40456 334.6326 187.67995 348.61825 184.14375 352.67025 C 183.85106 353.0033 182.41299 353.99322 181.87392 354.29164 C 186.05995 345.3116 188.69352 335.73917 188.01133 325.75955 C 186.45312 325.93078 187.59886 328.73245 187.53845 329.1623 C 186.96014 333.2772 186.63704 338.35273 185.6967 342.2671 Z M 195.44078 306.10075 L 195.44078 306.10075 C 196.64894 308.0399 197.65578 317.91546 197.6873 320.58193 C 197.75742 326.73905 196.4558 337.7121 193.97113 343.29634 C 193.5712 344.2023 192.9502 345.34984 191.7344 344.98654 C 195.07279 335.9141 197.19727 322.69935 194.29897 313.27424 C 194.0418 312.44162 194.56628 311.9808 193.15607 312.04987 C 196.1856 322.89928 194.50244 334.30512 190.88053 344.78635 C 190.64552 345.4696 190.05468 347.6958 189.01168 347.28196 C 188.6775 347.14946 190.63305 341.2984 190.81054 340.3398 C 193.51438 325.77924 192.82673 312.07307 184.17797 299.82455 C 186.74897 300.2821 194.1883 304.09658 195.44078 306.10075 Z M 141.88518 315.52978 L 141.88518 315.52978 C 142.0907 310.75844 139.55959 303.475 143.39395 299.8498 C 143.7824 299.4821 143.51452 298.87782 144.68193 299.35727 C 144.20418 302.2622 143.78998 305.1333 144.01227 308.0778 C 144.08098 308.9962 143.2049 309.56263 144.85551 309.5327 C 145.19895 305.8338 144.38011 300.28773 145.97247 297.02094 C 146.1446 296.67095 147.39243 294.98075 147.96593 295.0079 C 145.8217 302.16346 150.57965 311.97287 141.88518 315.52978 Z M 134.12147 325.12957 L 134.12147 325.12957 C 135.02459 319.65446 131.815 311.6075 137.06557 307.90868 C 136.64675 310.39426 136.50519 312.99898 136.62244 315.5118 C 136.65239 316.1735 136.40044 317.96622 137.23914 318.0841 C 137.96134 313.7061 135.91555 306.84902 140.27662 304.07826 C 139.40825 307.70872 140.94413 313.85803 140.03969 317.09856 C 139.82213 317.88583 137.4104 322.95114 136.93647 323.5848 C 136.5745 324.06846 134.52572 325.7904 134.12147 325.12957 Z M 63.140674 305.26478 L 63.145916 305.2655 L 73.15798 296.78353 C 73.853 300.5482 68.75876 302.86846 66.82574 305.78268 L 72.49495 301.50125 C 73.42526 305.03705 69.64462 306.6065 67.68088 308.52213 C 67.40898 308.78327 67.39462 309.37994 67.13836 309.60585 C 65.59188 310.9868 63.83507 312.38095 61.99878 313.38975 Z M 243.27772 331.9231 L 243.27248 331.92236 L 234.96693 333.0162 C 222.52698 335.49615 212.5381 341.98754 202.8246 349.75243 C 202.90537 347.0857 205.57218 346.215 206.91374 344.92287 C 209.72684 342.2125 211.99832 339.6666 215.69622 337.92517 C 211.15026 339.38704 207.86845 343.37857 204.12206 346.1876 C 203.4418 344.63805 205.09125 343.4373 205.99859 342.4583 C 210.24256 337.89638 218.3377 332.82266 224.08896 330.3916 C 225.92502 329.61262 232.38164 327.2593 234.03857 327.3746 C 237.39436 327.611 240.33267 330.58978 243.27772 331.9231 Z M 130.76707 333.7454 L 130.76707 333.7454 C 129.3095 334.7219 126.4532 326.97583 126.56266 325.39826 C 126.6556 324.1284 127.52162 321.76984 128.20117 320.70003 C 128.62038 320.0373 128.36474 319.87844 129.46294 320.20384 C 129.12256 322.2835 129.3222 324.81857 129.59642 326.89907 C 129.68945 327.64447 129.32988 328.5294 130.37574 328.88485 C 130.82065 324.0456 128.3773 318.15362 132.18018 314.18187 L 132.8467 326.8213 Z M 69.31287 313.1508 L 69.31214 313.15605 L 64.67409 317.25097 C 66.178886 316.96533 67.71689 316.13912 68.23383 314.66694 L 71.20399 312.55062 C 71.28675 316.03145 67.607974 317.29447 65.91211 319.8144 L 69.13113 318.17137 C 69.92482 317.58266 70.13271 315.8372 71.112465 317.0814 C 71.695 319.44043 62.595594 324.01486 61.731585 322.974 C 63.44969 321.0185 62.17522 316.5844 63.08006 315.16673 C 63.50525 314.4995 65.54728 313.4341 66.36822 312.65143 C 68.18864 310.91877 69.83418 308.98512 71.68384 307.2726 C 72.37294 309.74818 70.747034 311.428 69.31287 313.1508 Z M 247.93175 336.84285 L 247.93175 336.84285 C 228.1116 336.49484 212.73303 351.02203 199.26291 363.6846 L 202.93637 356.44996 L 201.89847 356.3041 C 201.83945 353.7193 204.49835 351.3454 206.29576 349.7004 C 214.62018 342.08238 227.54332 335.1374 238.86153 333.83084 C 242.6163 333.39636 245.9363 332.70834 247.93175 336.84285 Z M 115.18181 391.4295 L 115.18328 391.419 L 118.70699 392.74276 L 124.56606 404.4923 C 121.0274 405.481 117.7952 403.3002 115.74165 400.6061 C 114.79785 399.3723 110.79461 391.26726 110.58204 389.96517 C 110.44765 389.13377 110.76503 389.11958 111.45566 389.30217 C 114.64138 390.1401 114.6653 393.0888 116.50824 395.3417 Z M 124.22287 394.45877 L 124.22287 394.45877 C 124.62284 394.8838 124.7178 396.148 125.41877 396.5993 L 125.44464 394.47546 C 130.24277 394.94667 131.03393 399.5106 133.33219 402.82173 C 133.8249 403.53777 136.88388 405.9241 136.02313 406.64773 C 127.31982 408.28973 124.16949 399.631 120.76448 393.5451 C 121.70511 393.05187 123.54448 393.73267 124.22287 394.45877 Z M 145.88287 397.34787 L 145.88287 397.34787 C 145.1858 400.59616 145.0296 403.34315 146.20977 406.4704 C 138.08632 407.98006 134.6652 402.0469 131.10098 396.0669 C 135.08738 395.77186 136.8318 401.12193 139.68398 403.4204 C 139.31551 400.7173 135.50985 399.84032 135.2562 396.9288 C 136.04651 397.16284 137.03423 396.6388 137.721 396.77276 C 139.16795 397.05095 138.8124 399.0483 139.8611 397.0254 Z M 130.68887 71.8171 C 129.32379 75.92973 131.53507 92.15427 128.84347 94.5386 C 127.79378 95.46552 122.26792 93.97262 120.38273 93.88407 C 117.43516 93.74778 114.44692 94.16705 111.50879 94.22986 C 114.39003 86.58454 118.56169 80.17898 124.88384 74.97903 Z M 203.92114 338.14654 Z M 203.92114 338.14654 L 205.75448 337.1587 L 212.10656 331.28944 C 209.98162 333.0969 207.26761 334.60777 205.22737 336.4592 C 204.65167 336.98204 203.84102 337.12474 203.92102 338.14503 L 203.92103 338.14503 C 203.91237 338.0971 203.43557 338.02234 203.48575 337.2889 C 203.65287 334.7305 204.3549 332.01747 204.61325 329.41847 C 204.67618 328.7805 205.28495 327.5297 204.35067 327.52135 C 203.35887 331.19327 203.32804 336.7375 199.5855 338.6063 C 200.67838 334.9379 201.82146 331.2926 202.24246 327.46026 C 202.44706 325.58603 202.8043 321.37057 201.63978 320.18592 C 201.20722 320.90557 201.94509 321.779 201.90089 322.09353 L 200.05913 335.1983 C 200.00756 335.56525 198.89035 339.06453 198.66917 339.57334 C 198.48672 339.9967 197.08877 341.8422 196.44886 341.9073 C 199.0797 331.1371 200.74404 319.67516 197.3411 308.8962 C 199.23496 307.8581 203.49128 316.97693 204.0908 318.5686 C 205.7937 323.11103 206.28715 327.77747 206.30934 332.6022 C 213.30866 327.2622 222.40928 324.5428 231.2128 326.48567 L 215.3709 333.12734 L 204.25566 341.3955 C 202.86406 341.7505 203.91964 338.80382 203.9159 338.1458 Z" fill="black"/>
        </g>
        <g id="Graphic_137">
          <path d="M 132.17174 293.3227 C 127.68786 301.6836 116.11669 295.43356 119.83063 286.5796 C 120.08751 285.9689 120.79324 285.54957 121.12609 286.4142 C 121.86486 288.34618 119.71825 290.49806 122.00401 293.25148 C 123.37997 294.9095 125.62935 295.48757 127.76457 295.24242 C 128.7592 295.12562 131.74145 292.73304 132.17174 293.3227 Z" fill="black"/>
        </g>
        <g id="Graphic_136">
          <path d="M 103.79172 289.8687 C 101.74935 295.72895 92.61419 294.7765 91.1604 288.84186 C 90.72592 287.0649 90.50408 283.66075 92.46677 282.93164 C 91.8295 288.1127 93.3535 292.33062 99.39806 291.80635 C 101.27594 291.64263 102.00834 289.77844 103.78648 289.86797 Z" fill="black"/>
        </g>
        <g id="Graphic_135">
          <path d="M 96.47077 296.3181 C 95.05168 304.01925 102.14451 307.2184 107.68023 302.1752 C 108.02787 305.59704 102.81865 307.0619 100.12985 306.4916 C 98.00203 306.03753 95.03352 303.27368 94.85258 301.06196 C 94.79642 300.39657 95.34402 294.2942 96.47528 296.3241 Z" fill="black"/>
        </g>
        <g id="Graphic_134">
          <path d="M 109.41049 291.72747 C 108.61338 296.4103 109.94811 300.68182 115.36097 300.5445 C 117.39931 300.49422 118.51757 298.77513 119.95366 298.56 C 122.24735 298.2142 118.62547 301.12626 117.93455 301.47817 C 111.72379 304.63043 105.66053 298.8979 108.11109 292.7957 C 108.47287 291.89504 107.98188 291.2808 109.41049 291.72747 Z" fill="black"/>
        </g>
        <g id="Graphic_133">
          <path d="M 114.70908 284.45395 C 113.89845 288.12995 108.73292 289.05573 105.67861 287.73913 C 102.33132 286.30117 100.92717 281.45863 102.29429 278.23502 C 103.68451 274.9612 103.65016 282.58434 103.80246 283.0601 C 104.59345 285.5714 106.9125 286.83276 109.49385 286.57013 C 111.84169 286.33348 112.64577 284.7199 114.70908 284.45395 Z" fill="black"/>
        </g>
        <g id="Graphic_132">
          <path d="M 89.00907 338.0384 C 90.86072 338.5178 90.64518 340.8502 92.3505 341.83824 C 96.95675 344.51153 99.97465 341.33284 101.91816 337.43118 L 102.89517 338.1244 C 100.91913 346.8217 89.82321 347.11716 89.00907 338.0384 Z" fill="black"/>
        </g>
        <g id="Graphic_131">
          <path d="M 122.39062 271.63534 C 119.39688 278.86395 126.17567 283.8792 132.33666 278.91317 C 134.6611 279.90803 130.86623 281.80688 130.04565 282.09246 C 122.82512 284.6324 118.39488 278.04425 120.82476 271.4046 L 122.39209 271.62486 Z" fill="black"/>
        </g>
        <g id="Graphic_130">
          <path d="M 93.02453 328.4464 C 91.66984 337.4769 79.07958 336.72844 79.23004 327.82268 C 79.25189 326.56422 79.95549 327.18696 80.87798 327.2792 C 80.73566 331.52486 84.69631 334.72215 88.75225 332.41098 C 90.91441 331.17536 90.83598 328.61455 93.02453 328.4464 Z" fill="black"/>
        </g>
        <g id="Graphic_129">
          <path d="M 114.19906 257.655 C 112.70069 264.39886 118.79699 268.52705 124.29244 263.88445 C 126.61688 264.8793 122.82201 266.77815 122.00144 267.06374 C 116.82149 268.89087 112.17285 265.68242 112.35348 260.17526 C 112.38706 259.13762 112.74087 257.03847 114.2043 257.65574 Z" fill="black"/>
        </g>
        <g id="Graphic_128">
          <path d="M 102.51665 321.76224 C 99.39986 330.51304 87.27057 327.05507 89.18759 317.75078 C 91.12613 318.25842 90.34217 320.48955 91.45884 322.35704 C 92.99934 324.93623 95.48126 325.72337 98.33315 324.60072 C 100.0706 323.9148 100.64735 321.75076 102.51665 321.76224 Z" fill="black"/>
        </g>
        <g id="Graphic_127">
          <path d="M 111.83593 304.89743 C 110.70164 310.76234 114.05828 314.3398 119.8827 312.14888 C 120.15945 312.04344 124.1906 309.03388 122.52777 311.92727 C 119.73304 316.78908 109.72299 314.94928 109.89875 307.9554 C 109.91515 307.26814 110.99998 303.3527 111.83593 304.89743 Z" fill="black"/>
        </g>
        <g id="Graphic_126">
          <path d="M 84.7293 303.75522 C 84.87947 308.2398 86.97686 312.1053 92.16251 310.8082 C 93.75837 310.40705 95.41853 307.98903 95.63779 307.95035 C 96.2514 307.84415 97.26751 307.9549 96.83252 308.92008 C 93.31573 313.937 86.35772 314.7231 83.98877 308.3017 C 83.5858 307.2134 82.479185 303.1824 84.7293 303.75522 Z" fill="black"/>
        </g>
        <g id="Graphic_125">
          <path d="M 112.45362 346.14424 C 112.43395 354.95613 99.00368 355.16405 98.9384 347.1848 C 98.91598 344.56772 101.42641 349.3359 101.81802 349.7063 C 104.09792 351.85487 107.55968 351.94582 109.54826 349.43497 C 110.45149 348.29504 110.5544 345.81318 112.45362 346.14424 Z" fill="black"/>
        </g>
        <g id="Graphic_124">
          <path d="M 102.41822 311.05215 C 101.93701 315.7313 104.03465 318.7202 109.04559 318.28586 C 109.94972 318.20445 114.915 314.4816 113.9176 316.67203 C 111.69709 321.55574 102.70428 321.64428 101.22524 315.4709 C 100.9887 314.4915 100.50906 310.2974 102.41822 311.05215 Z" fill="black"/>
        </g>
        <g id="Graphic_123">
          <path d="M 137.13316 269.4309 C 135.26366 276.91373 140.93527 280.94482 147.33155 276.73885 C 144.43934 283.51132 134.63528 279.74938 135.11227 272.55195 C 135.15202 271.92677 136.30547 267.9034 137.1339 269.42567 Z" fill="black"/>
        </g>
        <g id="Graphic_122">
          <path d="M 102.83192 262.46666 C 101.36818 267.97523 105.33109 272.82993 110.98522 270.48144 C 111.35992 270.32563 115.63563 267.21145 113.97428 270.09436 C 111.39877 274.57538 102.13185 272.96296 101.27904 267.6206 C 101.13325 266.7181 101.0746 261.6584 102.83192 262.46666 Z" fill="black"/>
        </g>
        <g id="Graphic_121">
          <path d="M 134.91528 281.4084 C 133.64515 288.77234 138.57958 292.22942 144.92 288.1546 C 145.6702 289.51086 143.85708 290.50688 142.83332 290.98307 C 138.65826 292.9247 133.3633 290.5876 133.28182 285.6904 C 133.27374 285.10127 133.83137 279.46 134.91528 281.4084 Z" fill="black"/>
        </g>
        <g id="Graphic_120">
          <path d="M 106.4835 354.39247 C 106.36778 363.4314 94.63775 364.70147 93.49173 355.51194 L 94.57171 355.39645 C 95.2816 359.77792 100.93035 361.6516 103.84248 358.04642 C 104.87788 356.7647 104.80124 354.00102 106.47752 354.39697 Z" fill="black"/>
        </g>
        <g id="Graphic_119">
          <path d="M 79.84324 292.9175 C 78.67548 297.2329 81.08407 301.66067 85.93814 300.06035 C 86.45953 299.88774 91.76951 295.65204 90.1312 298.78943 C 88.07548 302.72877 81.51371 303.28192 79.07086 299.59235 C 78.21076 298.29547 76.84166 292.4048 79.84324 292.9175 Z" fill="black"/>
        </g>
        <g id="Graphic_118">
          <path d="M 99.64636 277.52612 C 99.56572 279.9256 96.07097 281.1343 94.07947 281.0415 C 88.45158 280.76905 86.3107 274.89286 88.89366 270.39685 L 89.8714 271.08485 C 87.91291 274.97905 90.43586 279.6581 95.03948 279.19325 C 97.0131 278.99487 97.89125 277.69105 99.6516 277.52685 Z" fill="black"/>
        </g>
        <g id="Graphic_117">
          <path d="M 112.56696 330.1238 C 111.37736 336.68654 102.58757 338.48744 99.76266 332.03937 C 99.39771 331.213 98.34689 328.34447 100.43164 328.95284 C 100.73944 332.96243 104.59437 335.42857 108.33305 333.51113 C 110.28015 332.51256 110.51584 330.15092 112.56696 330.1238 Z" fill="black"/>
        </g>
        <g id="Graphic_116">
          <path d="M 164.04122 382.24917 C 166.74435 379.9029 170.17143 377.57817 167.68761 373.64763 C 166.1835 371.266 164.29238 371.86617 162.09616 371.29024 C 161.3636 371.10176 160.64347 370.78673 161.46696 370.13807 C 166.14062 368.87055 171.3716 373.03215 169.96269 377.96043 C 169.36406 380.0519 166.46123 383.1345 164.04195 382.24392 Z" fill="black"/>
        </g>
        <g id="Graphic_115">
          <path d="M 119.95738 353.60802 C 120.3459 359.2112 117.11328 363.7656 111.07165 361.94896 C 109.31796 361.4192 107.31093 359.76334 107.61929 357.75936 C 109.2561 358.246 110.06259 360.0004 111.82963 360.47323 C 114.97792 361.31126 118.01333 358.9208 118.5267 355.87656 C 118.77418 354.41995 117.1933 352.85072 119.95664 353.61327 Z" fill="black"/>
        </g>
        <g id="Graphic_114">
          <path d="M 129.61414 383.8253 C 129.45207 382.0118 131.29272 383.25405 132.53945 383.0551 C 138.96612 382.0179 138.20435 376.2179 134.41614 372.47825 C 136.64634 371.86158 138.69105 374.61854 138.92906 376.57636 C 139.64769 382.4932 134.87944 385.9551 129.61414 383.8253 Z" fill="black"/>
        </g>
        <g id="Graphic_113">
          <path d="M 126.9393 375.5488 C 127.43648 375.9287 127.97158 379.15773 127.82382 380.01896 C 127.33026 382.88425 124.60225 385.4836 121.65329 385.39524 C 120.12602 385.3463 114.54879 383.6484 116.51386 381.9895 C 116.82319 381.7283 120.76896 385.2977 124.12365 383.0697 C 126.5111 381.4862 126.34903 377.6949 125.48105 375.23694 C 125.95889 375.33617 126.52983 375.2293 126.94978 375.55027 Z" fill="black"/>
        </g>
        <g id="Graphic_112">
          <path d="M 107.12627 338.44644 C 108.73186 338.6988 108.99608 340.6603 110.42897 341.3428 C 112.61949 342.37762 115.23067 342.39715 116.71411 340.2857 C 116.92081 339.99403 119.5063 333.3121 119.66007 336.7441 C 119.70036 337.67452 118.00124 341.3967 117.21101 342.18903 C 113.67224 345.76492 107.21391 343.414 107.12627 338.44644 Z" fill="black"/>
        </g>
        <g id="Graphic_111">
          <path d="M 109.8974 371.9777 C 116.06657 375.89164 121.2379 371.91977 119.98738 364.84304 C 121.68965 363.49468 123.20708 371.41074 118.40823 374.2536 C 114.03477 376.84624 108.49446 372.94585 109.8974 371.9777 Z" fill="black"/>
        </g>
        <g id="Graphic_110">
          <path d="M 123.60153 373.35847 C 122.88364 372.3809 123.8443 372.4678 124.53671 372.44753 C 128.34909 372.32584 132.47623 372.36063 131.61237 367.0969 C 131.47347 366.25952 128.63386 362.23622 130.63992 363.13823 C 137.31158 366.1392 131.02317 378.28766 123.60153 373.35847 Z" fill="black"/>
        </g>
        <g id="Graphic_109">
          <path d="M 107.09385 361.422 C 108.62534 367.94486 102.43614 373.3399 96.55975 369.13036 C 96.08361 368.7908 95.16172 367.9717 95.03481 367.4674 C 94.52872 365.47728 97.71371 368.2983 98.08163 368.4569 C 101.16436 369.76146 104.03271 368.63578 105.22702 365.4627 C 105.46736 364.8176 105.9429 359.9506 107.09385 361.422 Z" fill="black"/>
        </g>
        <g id="Graphic_108">
          <path d="M 94.78694 346.33408 C 94.97678 352.13385 88.514 356.3946 83.98009 351.95145 C 83.10151 351.0903 81.74185 348.36547 82.62427 347.29745 C 86.47858 353.1151 90.16631 354.14654 93.51375 347.40598 C 93.90125 346.62655 93.2684 345.8427 94.78694 346.33408 Z" fill="black"/>
        </g>
        <g id="Graphic_107">
          <path d="M 185.13524 372.92454 C 184.76278 372.41783 190.45292 367.79724 186.85705 364.36256 C 184.50057 362.11236 181.72912 363.3853 178.97003 363.50535 C 185.40646 357.53033 193.6249 365.88034 187.08424 372.10263 C 186.50457 372.65193 186.04178 373.2444 185.1345 372.9298 Z" fill="black"/>
        </g>
        <g id="Graphic_106">
          <path d="M 178.1819 376.7582 C 179.43976 373.55133 181.36508 368.562 176.5564 367.4051 C 175.99838 367.26785 169.70204 367.6819 171.63911 366.2222 C 179.48864 363.42856 185.52263 371.76556 178.1819 376.7582 Z" fill="black"/>
        </g>
        <g id="Graphic_105">
          <path d="M 120.497 323.2201 L 121.5078 323.6348 C 119.39772 331.65042 107.8889 329.78708 109.74058 321.7084 C 111.76526 327.84088 117.20005 329.44927 120.497 323.2201 Z" fill="black"/>
        </g>
        <g id="Graphic_104">
          <path d="M 192.15374 364.82365 C 196.23278 358.50663 192.82936 353.77868 185.77277 356.97777 C 184.79653 355.6325 191.5762 352.46397 194.6078 356.64255 C 196.24264 358.8929 195.74244 364.7721 192.1485 364.8229 Z" fill="black"/>
        </g>
        <g id="Graphic_103">
          <path d="M 51.98041 186.89278 C 51.03015 187.75883 50.95277 185.9893 50.825545 185.67742 C 48.832343 180.88039 47.517446 173.8053 48.13098 168.71713 C 49.161114 169.07038 48.82923 169.9485 48.916273 170.6984 C 49.19183 173.03567 49.09611 175.39026 49.5132 177.74742 C 49.761976 179.1722 52.335274 186.57382 51.98565 186.89352 Z" fill="black"/>
        </g>
        <g id="Graphic_102">
          <path d="M 68.60573 190.3091 C 68.336495 193.0616 67.97718 196.03662 65.66748 197.90365 C 66.673815 195.68773 66.8479 193.2319 67.45356 190.9383 C 67.65768 190.17052 68.09384 189.38723 68.61097 190.30984 Z" fill="black"/>
        </g>
        <g id="Graphic_101">
          <path d="M 52.161384 187.4688 C 52.53679 187.95454 53.20186 189.07968 52.928517 189.69341 C 52.55311 189.20767 51.88804 188.08253 52.161384 187.4688 Z" fill="black"/>
        </g>
        <g id="Graphic_100">
          <path d="M 187.26811 323.5169 L 187.78182 323.5891 L 187.56155 325.15645 L 187.04784 325.08425 Z" fill="black"/>
        </g>
        <g id="Graphic_99">
          <path d="M 187.0386 321.34648 L 187.55231 321.41867 L 187.33204 322.986 L 186.81833 322.9138 Z" fill="black"/>
        </g>
        <g id="Graphic_98">
          <path d="M 185.89578 314.2261 C 185.53996 314.7801 184.94065 312.6165 185.15183 311.9887 C 185.50766 311.43466 186.10696 313.59827 185.89578 314.2261 Z" fill="black"/>
        </g>
        <g id="Graphic_97">
          <path d="M 186.57582 316.9944 C 186.21999 317.5484 185.62068 315.3848 185.83186 314.757 C 186.18769 314.20296 186.787 316.36657 186.57582 316.9944 Z" fill="black"/>
        </g>
        <g id="Graphic_96">
          <path d="M 186.7635 317.56065 C 187.07992 317.78152 187.05487 317.95975 186.68983 318.08484 Z" fill="black"/>
        </g>
        <g id="Graphic_95">
          <path d="M 213.2196 330.90063 C 213.53601 331.1215 213.51097 331.29972 213.14593 331.42482 Z" fill="black"/>
        </g>
        <g id="Graphic_94">
          <path d="M 209.71275 350.18596 C 209.62576 349.13137 210.42203 349.01877 211.0588 348.55768 C 213.04828 347.10535 215.1861 345.7006 217.2259 344.3088 C 216.0106 346.1479 213.5202 347.8933 211.65348 349.34685 C 211.03473 349.83186 210.70702 350.56624 209.71726 350.19193 Z" fill="black"/>
        </g>
        <g id="Graphic_93">
          <path d="M 221.85695 341.74704 C 221.27093 342.7979 219.1741 343.79683 218.0505 344.14673 L 219.51738 342.9898 Z" fill="black"/>
        </g>
        <g id="Graphic_92">
          <path d="M 232.79388 330.4497 L 223.82417 333.45475 L 229.3076 331.10365 Z" fill="black"/>
        </g>
        <g id="Graphic_91">
          <path d="M 233.65458 330.03076 C 233.971 330.25163 233.94594 330.42986 233.5809 330.55495 Z" fill="black"/>
        </g>
        <g id="Graphic_90">
          <path d="M 116.9468 395.94855 C 117.26322 396.1694 117.23817 396.34764 116.87314 396.47274 Z" fill="black"/>
        </g>
        <g id="Graphic_89">
          <path d="M 130.09594 403.142 L 126.9645 399.17925 L 126.11943 397.243 C 127.18 397.15153 127.28064 397.9568 127.7477 398.58906 C 128.52416 399.64433 129.91253 401.8226 130.0907 403.14126 Z" fill="black"/>
        </g>
        <g id="Graphic_88">
          <path d="M 108.3222 115.76253 C 111.06146 115.47932 110.81648 120.34133 108.16333 119.9738 C 106.05084 119.67691 106.1308 115.98909 108.3222 115.76253 Z" fill="#FFFFFF"/>
        </g>
        <g id="Group_71">
          <g id="Graphic_87">
            <path d="M 72.28999 164.09427 L 71.99604 166.1858 C 68.3163 164.71715 56.38669 166.1142 55.0107 170.0475 C 54.62543 171.15332 54.703095 172.38834 54.28408 173.46803 C 53.44982 175.63864 50.79299 177.27514 51.2859 180.38598 L 53.39315 180.68213 L 52.73012 185.39986 L 56.99208 185.4643 L 56.32905 190.18202 C 61.20321 188.85714 66.976715 186.00158 71.8358 188.58746 C 72.93422 190.66085 65.03717 202.19834 63.0965 201.74385 C 62.71376 201.65264 57.45855 197.70145 56.79393 197.10557 C 48.607023 189.78632 46.588747 176.91413 46.847106 166.40385 L 72.29449 164.10025 Z M 51.98041 186.89278 C 52.33003 186.57308 49.761976 179.1722 49.507956 177.74668 C 49.09087 175.38952 49.186586 173.03494 48.91103 170.69767 C 48.82399 169.94776 49.15587 169.06964 48.125736 168.7164 C 47.517446 173.8053 48.826365 180.8849 50.820304 185.67669 C 50.95277 185.9893 51.02491 187.7581 51.97517 186.89205 Z M 52.161384 187.4688 C 51.88804 188.08253 52.55311 189.20767 52.928517 189.69341 C 53.20186 189.07968 52.53679 187.95454 52.161384 187.4688 Z M 68.60573 190.3091 C 68.088596 189.3865 67.6517 190.17502 67.44832 190.93756 C 66.84266 193.23117 66.673815 195.68773 65.66224 197.9029 C 67.97194 196.03588 68.33576 193.06683 68.60049 190.30836 Z" fill="#FFFFFF"/>
          </g>
          <g id="Graphic_86">
            <path d="M 51.69067 158.5265 C 52.48449 158.65945 55.10766 159.01207 54.59455 160.1908 L 52.50838 162.25495 C 51.762524 161.8187 51.176364 161.15902 50.27393 161.00012 C 50.272034 161.81236 52.26535 163.0333 50.99981 163.51828 C 50.059977 163.70158 48.451133 163.66256 47.62838 163.31707 C 47.063385 163.0773 47.492004 162.27158 47.43647 162.21032 C 47.495036 162.28804 48.15903 162.2798 48.47961 162.35692 C 48.52823 162.01096 48.59332 161.66196 48.626214 161.31378 C 49.14474 161.19957 49.725005 160.91228 50.27246 161.0106 C 50.27121 160.79126 50.92787 159.19973 51.09133 158.9875 C 51.311153 158.86873 51.5911 158.85462 51.689195 158.53698 Z" fill="#FFFFFF"/>
          </g>
          <g id="Graphic_85">
            <path d="M 51.69067 158.5265 C 51.345523 158.51007 51.262984 158.75505 51.092806 158.97702 C 49.28862 159.94757 48.36477 158.26755 49.75555 156.89145 C 51.14633 155.51534 52.212424 156.8679 51.69067 158.5265 Z" fill="#FFFFFF"/>
          </g>
          <g id="Graphic_84">
            <path d="M 47.431963 162.20434 C 47.2466 162.00189 46.11165 161.97602 45.99749 161.15281 C 45.83695 160.01305 47.816126 157.6452 48.438044 158.88723 C 48.629275 159.69454 48.717877 160.4714 48.628424 161.29806 C 48.380014 161.35402 47.91609 161.11776 47.58004 161.15072 C 47.56508 161.48538 47.37413 162.12138 47.4327 162.1991 Z" fill="#FFFFFF"/>
          </g>
          <g id="Graphic_83">
            <path d="M 60.74853 158.73575 L 59.249116 161.7216 L 56.87138 160.00297 L 58.286134 157.31525 Z" fill="#FFFFFF"/>
          </g>
          <g id="Graphic_82">
            <path d="M 59.16567 151.01897 L 55.95136 151.10712 C 55.96714 146.84901 59.883675 146.4426 59.16567 151.01897 Z" fill="#FFFFFF"/>
          </g>
          <g id="Graphic_81">
            <path d="M 64.84513 159.82466 L 62.34723 158.92302 L 63.2933 155.88078 L 65.53103 157.26436 Z" fill="#FFFFFF"/>
          </g>
          <g id="Graphic_80">
            <path d="M 56.924086 155.5202 C 56.91601 154.93106 56.138054 154.53307 57.1332 153.65194 C 58.93897 152.06155 60.272085 153.64407 58.85422 155.28898 C 58.292 155.9423 57.340804 155.4077 56.92482 155.51495 C 56.950154 156.78004 57.539855 157.68077 56.389636 159.17086 L 53.863315 158.28126 C 53.712915 157.98216 54.57789 156.81013 54.680715 156.26865 C 53.986515 156.49182 52.97457 157.22625 52.709924 157.05542 C 51.014915 155.994 52.7246 154.28854 54.19288 154.0726 C 54.93703 154.74915 54.85534 155.36843 54.680715 156.26865 C 55.46468 156.01534 55.99859 155.75361 56.92482 155.51495 Z" fill="#FFFFFF"/>
          </g>
          <g id="Graphic_79">
            <path d="M 59.7713 154.3167 L 62.0931 155.14014 C 63.53074 157.9187 58.17146 159.23419 59.7713 154.3167 Z" fill="#FFFFFF"/>
          </g>
          <g id="Graphic_78">
            <path d="M 66.746136 157.97503 C 68.60733 157.05525 69.50041 161.00811 67.60034 161.29166 C 65.23031 161.64814 66.10305 158.2909 66.746136 157.97503 Z" fill="#FFFFFF"/>
          </g>
          <g id="Graphic_77">
            <path d="M 63.60775 160.70916 C 64.29266 161.99745 60.36697 162.65915 59.6452 162.27975 L 61.098714 159.84871 L 63.60775 160.70916 Z" fill="#FFFFFF"/>
          </g>
          <g id="Graphic_76">
            <path d="M 57.611144 162.04199 C 58.569706 163.51307 54.223986 162.82748 53.727506 163.08912 L 55.15325 160.62746 L 57.605165 162.0465 Z" fill="#FFFFFF"/>
          </g>
          <g id="Graphic_75">
            <path d="M 66.63747 154.29812 L 66.43321 156.32207 L 63.974125 155.37243 L 64.185106 153.33873 Z" fill="#FFFFFF"/>
          </g>
          <g id="Graphic_74">
            <path d="M 69.88154 158.41033 C 68.46761 158.1635 67.02478 157.05735 67.63344 155.427 C 69.04737 155.67383 70.4902 156.77998 69.88154 158.41033 Z" fill="#FFFFFF"/>
          </g>
          <g id="Graphic_73">
            <path d="M 63.2697 154.1929 C 62.165294 154.51163 60.7384 154.22195 60.60414 152.83474 C 61.70855 152.51601 63.13544 152.8057 63.2697 154.1929 Z" fill="#FFFFFF"/>
          </g>
          <g id="Graphic_72">
            <path d="M 70.98877 159.77636 C 71.22021 160.60999 69.59483 161.19703 69.3146 160.97084 L 69.9976 159.29579 L 70.98877 159.77636 Z" fill="#FFFFFF"/>
          </g>
        </g>
      </g>
    </g>
  </g>
</svg>
