<?xml version="1.0" encoding="UTF-8" standalone="no"?>
<!DOCTYPE svg PUBLIC "-//W3C//DTD SVG 1.1//EN" "http://www.w3.org/Graphics/SVG/1.1/DTD/svg11.dtd">
<svg xmlns="http://www.w3.org/2000/svg" xmlns:dc="http://purl.org/dc/elements/1.1/" version="1.1" xmlns:xl="http://www.w3.org/1999/xlink" viewBox="90 63 184.5 351" width="184.5" height="351">
  <defs>
    <clipPath id="artboard_clip_path">
      <path d="M 90 63 L 274.5 63 L 274.5 386.3281 L 274.5 414 L 90 414 Z"/>
    </clipPath>
  </defs>
  <g id="Serpents,_Two,_Entwined" fill-opacity="1" stroke="none" stroke-dasharray="none" stroke-opacity="1" fill="none">
    <title>Serpents, Two, Entwined</title>
    <g id="Serpents,_Two,_Entwined_Layer_2" clip-path="url(#artboard_clip_path)">
      <title>Layer 2</title>
      <g id="Group_527">
        <g id="Graphic_666">
          <path d="M 132.30828 68.86227 C 130.75694 69.34947 127.60751 70.323055 125.25671 71.07682 C 122.95266 71.8314 119.24319 72.748456 117.03913 73.13076 C 112.53755 73.89373 110.93539 74.61381 110.91173 75.96923 C 110.90357 76.43661 110.65275 77.41404 110.31497 78.01593 C 109.8772 78.9901 109.91741 79.36482 110.46685 80.02895 C 110.87852 80.550415 111.09345 81.62948 111.02631 82.79713 C 110.90428 84.43134 110.47222 85.07834 107.7608 87.74267 C 101.95591 93.53219 96.44277 106.71373 95.12362 118.00487 C 94.50996 123.698 94.60602 134.26579 95.34999 137.17744 C 95.61247 138.21059 96.09396 140.0891 96.44503 141.4043 C 96.79691 142.67277 97.14471 144.17493 97.27595 144.6915 C 97.61967 146.42735 99.67746 151.74633 101.07577 154.6694 C 101.84259 156.27238 102.47163 157.7327 102.46919 157.87291 C 102.46592 158.05987 102.91944 158.86258 103.51317 159.66774 C 104.05935 160.51882 104.74248 161.5593 104.96883 161.98403 C 107.46357 166.37558 111.73193 170.93835 116.39705 174.19897 C 122.9556 178.8017 124.94659 179.91178 128.52342 181.23653 C 130.52176 181.92595 132.42335 182.8007 132.65133 183.13194 C 132.92687 183.41727 134.27168 184.04853 135.66649 184.49365 C 143.70901 187.11193 156.71747 191.82725 157.22344 192.30361 C 157.45305 192.54138 157.30794 192.81937 156.79055 192.99735 C 155.80252 193.35412 154.1873 194.82202 154.17751 195.38288 C 154.17425 195.56983 153.55115 196.44726 152.83457 197.32305 C 151.4506 198.93524 147.92692 205.27886 147.91142 206.1669 C 147.90653 206.44732 147.4663 207.5617 146.88504 208.72038 C 146.35052 209.87987 145.01516 214.0643 143.91757 218.01913 C 140.0207 232.35095 140.13925 246.98663 144.28768 258.41995 C 146.51773 264.5835 147.64133 267.1745 149.23557 269.5867 C 149.91788 270.67394 150.50753 271.7128 150.50345 271.9465 C 150.47653 273.48885 163.69305 285.0337 169.33967 288.31146 C 172.6714 290.28648 172.6665 290.5669 169.3271 294.3891 C 167.75209 296.2317 166.4116 298.03167 166.4067 298.3121 C 166.40099 298.63927 166.11403 299.0083 165.78441 299.1428 C 164.98496 299.40935 161.45884 305.8932 159.79549 310.11865 C 156.8631 317.40765 155.40454 328.6496 156.56287 334.6074 C 157.7655 340.70626 158.20922 342.06984 160.06105 345.79563 C 161.3716 348.3899 163.06013 350.757 165.6769 353.51435 L 169.3942 357.50646 L 167.4518 358.96865 C 163.37682 362.0767 159.379 366.12116 157.26784 369.21674 C 152.70939 375.9163 151.65609 380.0122 151.85296 390.16096 C 152.06697 399.32823 153.41528 402.43745 158.738 405.52253 C 161.00534 406.8712 162.02869 407.16956 165.38978 407.462 L 169.35848 407.76503 L 170.92695 406.2963 C 171.78293 405.4697 172.72994 404.78495 173.0571 404.79066 C 174.1329 404.7627 171.95986 403.36893 170.83813 403.34935 C 170.27727 403.33956 169.5819 403.00015 169.26126 402.62053 C 168.94062 402.2409 168.38547 401.90395 168.0583 401.89824 C 167.4507 401.88764 166.04178 399.57216 166.05891 398.59065 C 166.06462 398.2635 165.60784 397.64772 165.05432 397.2173 C 164.17935 396.45397 164.05137 395.75045 163.92886 392.05484 C 163.83515 389.3883 164.01779 386.96035 164.41617 385.5647 C 165.55969 381.65745 169.13663 374.94074 170.36162 374.4011 C 170.54939 374.3576 171.21841 373.52774 171.84315 372.55684 C 173.28446 370.33786 179.29857 365.95458 182.54555 364.74893 C 184.8045 363.90006 186.2091 363.7843 193.3158 363.7681 C 202.75943 363.7927 206.20747 364.46066 211.81306 367.41042 C 217.88196 370.60204 221.15902 375.70853 221.96245 383.24975 C 222.64115 389.9005 221.21476 393.94307 218.13002 393.88923 C 214.39094 393.82396 211.91754 398.9236 214.29817 401.81706 C 215.76362 403.5725 217.71603 404.21436 221.17713 404.1345 C 223.7502 404.03917 224.22002 403.9071 224.70372 402.9805 C 224.99476 402.3778 225.80726 401.3634 226.47384 400.67376 C 227.09368 399.9833 228.14803 398.5056 228.7293 397.34693 C 229.31055 396.18826 230.22305 394.8016 230.7937 394.25053 C 231.50865 393.4682 231.60947 393.0492 231.24372 392.5753 C 230.9239 392.14893 230.89102 391.35356 231.24185 390.00386 C 231.99677 386.93135 231.37575 374.29727 230.4975 373.7209 C 230.26627 373.5766 230.08747 373.10597 230.09563 372.6386 C 230.1152 371.51686 228.13132 367.32124 226.4428 364.95413 C 225.71374 363.8661 225.22 362.68865 225.3192 362.3631 C 225.7578 361.3422 221.209 356.77455 217.92157 354.94056 C 216.16182 353.9748 214.17246 352.77125 213.47954 352.29162 L 212.13963 351.37993 L 213.52278 349.8145 C 217.1467 345.7635 219.17417 342.10542 221.33835 335.97184 C 224.39277 327.04863 224.41164 317.93217 221.37514 307.0793 C 219.92333 301.8644 215.79658 294.5457 211.8062 290.12803 C 210.61384 288.79814 209.61007 287.37804 209.61741 286.9574 C 209.62394 286.58348 210.63563 284.8713 211.8351 283.11562 C 213.03375 281.4067 214.4775 279.0475 215.01203 277.88802 C 215.59328 276.72934 216.50824 275.20247 217.08297 274.4177 C 218.37428 272.75715 221.283 266.82357 222.95044 262.36442 C 225.98936 254.32924 226.18937 253.58468 226.83484 246.06876 C 227.36807 239.6262 227.35397 237.75583 226.74018 232.74258 C 226.37583 229.51028 225.89002 225.20055 225.69223 223.13997 C 225.4477 221.07859 224.8029 217.8414 224.1812 215.96043 C 222.8492 211.91645 219.73683 205.41024 218.72409 204.50426 C 218.3559 204.17057 217.62684 203.08253 217.12903 202.13878 C 216.272 200.34722 215.08127 198.92385 209.70914 193.31326 L 206.86193 190.3649 L 209.0978 188.15979 C 211.2853 186.04734 213.49996 185.05744 218.00235 184.24773 C 218.65914 184.11894 219.97924 183.48744 220.92461 182.89616 C 221.8708 182.25813 224.41345 181.2272 226.5281 180.60957 C 228.6895 179.99276 231.5142 178.87325 232.7892 178.14746 C 234.11092 177.42249 236.32884 176.24563 237.74324 175.56903 C 239.20518 174.8465 241.04675 173.80334 241.8511 173.25634 C 242.65544 172.70935 243.45815 172.25583 243.59837 172.25828 C 244.1125 172.26726 253.14886 166.16012 254.2918 164.9645 C 254.95756 164.32158 255.907 163.4966 256.42766 163.13167 C 257.56407 162.30996 261.34044 157.56034 262.64236 155.29218 C 263.17198 154.41313 263.93775 153.39793 264.3633 153.12484 C 265.2152 152.53193 269.1299 145.21333 269.14622 144.27856 C 269.15193 143.95139 269.54216 143.02314 269.9775 142.1892 C 270.41282 141.35524 270.95713 139.6349 271.1661 138.37622 C 271.32917 137.06999 271.9898 134.04259 272.59308 131.62198 C 274.36028 124.12563 274.19674 120.10204 271.45046 108.69319 C 270.09947 103.05928 269.24815 100.94055 267.32756 98.47588 C 266.4583 97.3854 265.77516 96.34491 265.77924 96.11122 C 265.7825 95.92427 266.49255 95.42238 267.34037 95.06316 C 268.51862 94.52269 268.80558 94.15368 268.72842 93.21728 C 268.6931 92.56212 268.6233 91.20507 268.54694 90.22193 C 268.491 88.07033 268.12116 87.83011 263.9253 87.14909 C 260.24275 86.52377 255.97626 84.53244 252.70188 81.95064 C 249.5669 79.41802 245.76535 77.57506 242.45752 76.90954 C 240.96597 76.64974 235.73778 76.18446 230.8327 75.95858 C 225.97433 75.73352 219.25051 75.24213 215.89187 74.80949 C 210.899 74.25481 209.45012 74.22952 207.66508 74.71264 C 205.31673 75.32619 202.67164 76.86961 201.85506 78.11768 C 201.03766 79.41249 202.62864 82.01166 204.81066 82.8913 C 206.48182 83.57501 206.61878 83.76441 206.5894 85.44699 C 206.569 86.61546 206.92252 87.79044 207.60729 88.73745 C 209.20397 91.00945 213.02616 94.34886 214.83672 95.08176 C 215.71905 95.42443 218.36274 96.63939 220.63417 97.75435 C 234.30944 104.44493 235.00562 104.7376 238.0379 105.1178 C 239.71724 105.33412 241.34737 105.68985 241.66965 105.97599 C 242.4987 106.69175 244.6179 111.17025 245.5923 114.27294 C 246.74306 117.98649 246.1829 125.97143 244.47037 130.3363 C 242.07168 136.51254 234.47465 145.87074 228.99017 149.37497 C 227.5717 150.28526 223.422 152.3167 219.74784 153.88892 C 203.54253 160.89948 197.59719 164.02164 187.99098 170.63311 C 184.58338 173.00477 181.51112 174.91476 181.18395 174.90905 C 180.85678 174.90334 179.32501 174.26882 177.74896 173.49326 C 174.55092 171.8946 163.6408 167.49642 157.04228 165.18386 C 154.62656 164.30015 151.7008 163.17377 150.54213 162.5925 C 147.52778 161.18406 146.92426 160.93976 143.81236 159.76338 C 139.26054 158.04758 130.38628 152.18885 127.54315 149.00679 C 120.48085 141.12256 118.94535 135.34517 120.61207 122.89128 C 122.17797 110.85641 124.47584 105.09918 130.0003 99.30477 C 133.33481 95.76301 132.3927 96.16734 143.98524 93.61128 C 147.8333 92.79014 152.48489 91.46875 154.32074 90.75275 C 156.15741 89.99002 157.89734 89.4126 158.22451 89.41831 C 158.50494 89.42321 159.56011 87.89879 160.4816 85.99801 C 162.08025 82.79997 162.41395 82.43178 164.9123 81.25981 C 168.8726 79.36533 171.20276 77.11512 171.23866 75.05862 C 171.28924 72.160835 170.49876 71.91327 158.76985 71.56829 C 149.93872 71.27388 148.35124 71.152665 147.6624 70.43935 C 146.19043 69.05783 144.18883 68.55536 139.56498 68.28764 C 136.24818 68.13624 134.42212 68.29138 132.30828 68.86227 Z M 188.9125 206.22803 L 188.9125 206.22803 C 192.68714 209.61336 198.23889 215.64786 198.22583 216.39568 C 198.2185 216.81633 198.53424 217.47638 198.94917 217.8109 C 200.33093 219.00383 203.34901 225.55514 204.2177 229.35727 C 205.78607 235.93003 205.9461 237.47566 205.56125 243.4533 C 205.03723 252.04665 202.8608 258.88132 198.43197 266.19094 C 196.02651 270.0762 191.60233 274.44047 189.53686 274.9187 C 187.51895 275.351 179.84928 270.12108 176.27629 265.89772 C 171.69707 260.39447 167.93363 253.6899 167.4364 250.0345 C 167.2682 248.95625 166.95899 247.9223 166.77448 247.7788 C 166.54324 247.63452 166.40523 244.82695 166.46397 241.46177 C 166.56432 235.71294 167.49617 230.53965 169.00217 227.29325 C 169.24483 226.7832 170.02202 225.11367 170.75002 223.58354 C 173.51772 217.69425 173.71039 217.37034 180.1596 209.4882 C 182.73894 206.35403 185.0634 204.431 186.18512 204.45057 C 186.55903 204.4571 187.8071 205.27368 188.9125 206.22803 Z M 195.2919 298.76954 L 195.2919 298.76954 C 200.48011 301.525 202.72298 304.27582 205.7272 311.6217 C 208.37218 318.11973 208.80799 322.6156 207.39244 328.7155 C 206.8867 330.90405 206.28424 333.27792 206.13015 334.07003 C 205.97688 334.8154 205.3448 336.20695 204.7217 337.08437 C 204.0986 337.9618 203.56817 338.8876 203.56327 339.16803 C 203.55838 339.44846 201.65294 341.4723 199.32278 343.72253 L 195.09045 347.80965 L 190.79621 347.40742 C 183.1409 346.71277 179.21054 344.213 176.18104 338.31605 C 174.0553 334.21145 173.83712 333.31934 173.55947 327.79767 C 173.24407 321.76107 174.15226 317.9432 177.1406 312.8058 C 177.47756 312.25065 178.62376 310.86808 179.7175 309.81185 C 180.81126 308.75563 181.67213 307.6486 181.67703 307.36816 C 181.69008 306.62035 187.57376 301.67375 189.1751 301.0004 C 189.92782 300.73303 191.0183 299.86377 191.68651 299.08063 C 192.30798 298.2967 192.88027 297.65214 192.97374 297.65377 C 193.0213 297.60784 194.0873 298.14073 195.2919 298.76954 Z" fill="black"/>
        </g>
        <g id="Graphic_665">
          <path d="M 144.43663 70.4298 C 145.22303 70.91105 145.81839 71.622734 145.80942 72.13686 C 145.79963 72.69772 146.16619 73.12489 146.72542 73.22816 C 147.23791 73.33061 147.93328 73.67002 148.25637 73.90942 C 148.67049 74.29067 149.04603 74.20372 149.6626 73.7002 C 150.27918 73.196685 152.33975 72.99889 158.88722 72.87941 C 168.14797 72.66704 169.40501 72.969495 168.66722 75.06049 C 168.36966 76.0371 168.27618 76.03547 167.53979 75.36808 C 166.57378 74.46292 165.54635 74.39823 163.33659 75.1077 C 161.08009 75.81636 161.12764 75.77044 162.09039 76.86255 C 162.59472 77.43239 163.2909 77.72506 163.90095 77.59545 C 164.46344 77.51176 165.82212 77.34847 166.99303 77.22865 L 169.10116 76.98493 L 167.91557 77.94604 C 166.20769 79.36556 162.06044 81.25679 158.15911 82.45101 C 156.27978 82.97924 154.72436 83.70014 154.71865 84.02731 C 154.70886 84.58817 151.32574 85.55768 149.36272 85.52341 C 148.14752 85.5022 146.05432 87.56954 146.50865 88.32551 C 146.96216 89.12822 147.9502 88.77145 148.53227 87.56604 C 149.0668 86.40655 149.20782 86.36226 151.5866 86.68429 C 153.59145 86.99981 154.15395 86.91612 154.35069 86.35852 C 154.54499 85.94114 155.11156 85.62376 155.62568 85.63273 C 156.1398 85.64171 156.56453 85.41536 156.56943 85.13492 C 156.57432 84.85449 157.04415 84.72244 157.65012 84.82652 C 158.2561 84.9306 158.67021 85.31185 158.66124 85.82598 C 158.63921 87.08791 152.93245 89.93373 149.2287 90.52361 C 145.807 91.02492 145.24205 91.24882 145.23226 91.80969 C 145.2241 92.27707 144.89449 92.41158 144.05727 92.1632 C 143.40538 92.01156 142.61001 92.04443 142.27795 92.31915 C 141.99344 92.54795 140.63231 92.85146 139.32037 93.01557 C 137.40001 93.21581 136.84078 93.11255 136.61688 92.54761 C 136.12723 91.13648 130.73435 92.0709 130.70743 93.61327 C 130.69927 94.08066 130.50253 94.63826 130.21965 94.77358 C 129.98351 94.90971 129.74003 95.4665 129.73105 95.98062 C 129.72126 96.54148 129.2449 97.04745 128.53893 97.31564 C 127.88051 97.53791 127.3566 98.0898 127.35007 98.46371 C 127.34273 98.88436 127.05496 99.30011 126.6786 99.4338 C 126.30225 99.56748 125.91937 100.07508 125.77018 100.58676 C 125.6218 101.0517 125.19381 101.465 124.86664 101.45929 C 124.49274 101.45276 123.92372 101.91036 123.6335 102.46632 C 123.29572 103.06821 122.8612 103.85543 122.62099 104.22525 C 122.33403 104.59427 121.46255 106.30891 120.59107 108.02355 C 119.42692 110.43437 119.12773 111.50446 119.3394 112.77048 C 119.55188 113.98976 119.2986 115.1074 118.08772 117.51741 C 117.16542 119.46492 116.66867 121.13935 116.79665 121.84288 C 116.92544 122.49966 116.86238 123.43362 116.66646 123.94448 C 116.27623 124.87272 116.88046 133.11175 117.55893 137.09758 C 117.72794 138.12909 118.26514 139.4943 118.72192 140.11005 C 119.27055 140.82092 119.57732 141.99509 119.55611 143.2103 C 119.52429 145.0331 119.6145 145.22168 120.9191 145.47821 C 121.89653 145.72904 122.35658 146.15784 122.57558 147.00322 C 123.05381 149.06868 130.59574 156.26 132.32506 156.29018 C 132.51201 156.29344 133.7158 156.969 135.00979 157.83313 C 138.19803 159.99265 139.03035 160.52146 139.81838 160.90924 C 140.18902 161.10272 140.83602 161.53478 141.20422 161.86848 C 141.57323 162.15544 142.77946 162.69077 143.8028 162.98915 C 144.8729 163.28835 145.98483 163.86879 146.30548 164.2484 C 146.62612 164.62803 147.60028 165.0658 148.57853 165.2699 C 150.72197 165.68133 154.67435 166.91913 155.6928 167.49795 C 156.15611 167.7398 156.9474 167.94062 157.41479 167.94878 C 157.92891 167.95775 158.43977 168.15368 158.57672 168.34308 C 158.71286 168.57922 159.96746 169.0219 161.41064 169.37435 C 163.7386 169.92927 164.1076 170.21623 164.69073 171.62899 C 165.09424 172.61784 165.6445 173.23523 166.15944 173.19746 C 166.62683 173.20562 166.72275 173.06704 166.39803 172.92111 C 166.07249 172.82192 165.7994 172.39638 165.80674 171.97574 C 165.8149 171.50835 166.09696 171.41977 166.88744 171.66733 C 169.95586 172.65594 184.41916 179.7343 190.85463 183.3531 C 193.95674 185.09034 201.3468 190.26862 204.15705 192.65531 C 207.05915 195.13711 209.29467 198.30857 209.26694 199.89768 C 209.2596 200.31832 209.58432 200.46425 210.14763 200.33382 C 210.75767 200.20421 211.54 200.91916 213.13586 203.2379 C 217.83163 210.099 220.87932 217.63265 222.23218 225.838 C 223.16335 231.41782 222.97129 247.77793 221.9533 252.52894 C 220.22469 260.49348 215.70016 270.6066 209.6955 279.8056 C 206.95635 284.05902 206.67102 284.33456 205.50745 284.03373 C 203.92487 283.6321 200.9146 281.98995 199.39426 280.7011 C 198.70216 280.17473 197.0859 279.02445 195.79027 278.2538 C 193.2925 276.7141 192.97593 276.1008 194.1607 275.18642 C 195.82022 273.85956 202.07162 263.91684 202.09447 262.60816 C 202.09854 262.37447 202.73225 260.88944 203.5078 259.3134 C 204.28336 257.73733 205.1638 255.50857 205.51138 254.3458 C 205.85894 253.18306 206.29998 252.02194 206.53857 251.7456 C 206.77716 251.46924 206.94406 247.2644 206.98217 242.4028 C 206.97004 235.0624 206.8198 232.9559 206.03316 229.80974 C 204.89383 225.44184 202.69175 220.3541 200.23477 216.4775 C 197.868 212.78947 192.13093 206.65823 187.79544 203.2631 C 185.85934 201.68647 184.20042 200.3017 184.11102 200.06636 C 184.0208 199.87778 183.74282 199.73267 183.50913 199.7286 C 183.27544 199.7245 180.81543 198.69976 178.07825 197.48317 C 175.34108 196.26657 169.85775 194.3475 165.90211 193.29665 C 157.66611 191.04902 151.06759 188.73646 139.1833 183.9005 C 134.588 181.99693 129.4794 180.03765 127.8058 179.49416 C 124.59878 178.40962 122.05346 176.91585 115.4998 172.03268 C 111.66864 169.2074 110.10564 167.68403 108.60569 165.2267 C 107.87827 164.04519 106.55794 162.01177 105.6452 160.73352 C 104.04851 158.46151 102.32955 155.15882 100.30545 150.58847 C 97.87703 145.07601 96.27742 137.6144 95.71993 129.3762 C 95.19857 121.7464 97.62126 108.83818 100.87756 101.74185 C 101.2186 100.953 101.99905 99.09652 102.63357 97.56475 C 104.5904 92.59637 108.03144 88.30843 112.14338 85.76205 C 113.3249 85.03463 113.32571 84.98789 112.454 84.03762 C 111.62984 83.04142 111.63065 82.99469 112.68093 81.75069 L 113.68528 80.45915 L 112.52334 80.06485 C 111.3614 79.67054 110.78562 77.837135 111.81387 77.85508 C 112.0943 77.85998 112.29186 77.25564 112.30573 76.46109 C 112.33265 74.91872 112.04977 75.05404 117.72145 74.21798 C 119.54914 73.96937 123.82274 72.875145 127.25505 71.76624 C 130.68735 70.65733 134.35254 69.59924 135.47834 69.38513 C 138.1514 68.91751 142.72362 69.46484 144.43663 70.4298 Z" fill="#FFFFFF"/>
        </g>
        <g id="Graphic_664">
          <path d="M 215.40083 76.156745 C 217.7353 76.33775 220.34858 76.61713 221.2809 76.77366 C 222.21322 76.93019 227.58326 77.30444 233.2821 77.59093 L 243.55885 78.09758 L 246.75607 79.74298 C 248.4707 80.61446 250.41333 81.81719 251.05788 82.38947 C 253.9559 85.10496 257.8436 87.3702 260.0354 87.68897 C 261.24816 87.8504 262.69134 88.20286 263.20057 88.49227 C 263.75654 88.78249 264.9693 88.94391 265.95325 88.82083 C 267.49888 88.6608 267.77768 88.75917 267.76544 89.46025 C 267.75728 89.92763 267.4195 90.52952 267.0399 90.85017 C 266.4233 91.35368 266.4676 91.49471 267.3434 92.21129 C 268.81782 93.4526 267.96266 94.23247 265.3953 94.00064 L 263.24778 93.8229 L 263.357 95.60141 C 263.4309 96.72477 264.19526 98.46796 265.5156 100.50138 C 266.60795 102.20354 267.50927 104.13614 267.49867 104.74374 C 267.48806 105.35134 267.70544 106.29019 267.9769 106.8092 C 268.519 107.89398 269.28523 112.2086 269.42405 114.96944 C 269.45284 115.9985 269.6588 117.59169 269.82943 118.52972 C 269.99762 119.60797 269.93294 120.6354 269.5476 121.28322 C 269.1131 122.07043 269.10412 122.58455 269.55274 123.6677 C 269.95462 124.75002 269.94646 125.21741 269.51847 125.63071 C 269.23315 125.90625 268.9815 126.93042 268.96437 127.91192 C 268.94724 128.89343 268.4915 130.89585 267.9521 132.33577 C 267.4127 133.77568 267.1086 135.1262 267.24473 135.36235 C 267.4276 135.5993 266.83656 137.31884 265.96345 139.12695 C 265.13626 140.98262 264.21315 142.97688 263.9213 143.62632 C 262.11937 147.75586 260.64273 149.31968 260.68108 147.12297 C 260.69332 146.4219 260.52186 145.5306 260.29633 145.05914 C 260.06998 144.63441 259.57462 143.55045 259.26132 142.75019 C 258.94883 141.90318 258.44858 141.09965 258.12386 140.95373 C 257.38094 140.66024 257.33664 140.51921 258.36023 143.4825 C 258.93602 145.3159 259.05747 146.39334 258.7591 147.4167 C 258.41234 148.5327 258.50092 148.81477 259.24547 149.01478 C 260.12943 149.26397 260.57397 150.5808 259.7794 150.56694 C 259.54572 150.56286 259.01773 151.34844 258.58077 152.27586 C 258.143 153.25003 256.89597 155.05162 255.8457 156.29561 C 254.79624 157.49286 253.9321 158.78686 253.92557 159.16077 C 253.91905 159.53467 253.68046 159.81103 253.44677 159.80695 C 253.16634 159.80205 252.4571 160.2572 251.88645 160.80827 C 249.69895 162.92071 246.05195 165.61547 245.06473 165.9255 C 244.5006 166.10267 242.796 167.33524 241.2759 168.71129 C 239.75578 170.08734 238.19302 171.22888 237.8191 171.22235 C 237.4452 171.21582 236.69167 171.52994 236.21776 171.89569 C 235.6971 172.26062 234.80337 172.5723 234.2425 172.5625 C 233.68165 172.55271 232.74035 172.9103 232.1246 173.36708 C 230.79797 174.37249 225.89637 176.62457 225.10182 176.6107 C 224.77465 176.60499 223.9752 176.87155 223.31433 177.23403 C 219.72957 179.04157 212.15083 181.99496 211.16932 181.97783 C 210.93563 181.97375 209.91472 181.53516 208.89545 181.00309 C 206.39442 179.65035 205.3178 179.72507 206.88325 181.10822 C 208.0805 182.15768 209.0253 184.27804 208.27748 184.265 C 208.09053 184.26173 207.287 184.76198 206.52776 185.40327 C 204.86744 186.77687 204.72723 186.77442 203.67264 185.5872 C 203.21422 185.06491 202.47375 184.63121 202.00637 184.62306 C 201.58572 184.61571 200.1909 184.1706 198.93876 183.5877 C 197.73253 183.05237 195.78338 182.22355 194.62145 181.82925 C 190.487 180.30774 184.4222 176.88244 184.4377 175.9944 C 184.44585 175.52702 185.35183 174.51428 186.48824 173.69256 C 187.5771 172.91677 188.90372 171.91137 189.42437 171.54643 C 189.94502 171.1815 191.0347 170.35897 191.7923 169.81116 C 194.49229 167.80117 202.5686 163.12661 203.36315 163.14048 C 203.7838 163.14782 204.96287 162.56062 206.00498 161.78401 C 206.99955 161.05333 208.22617 160.4202 208.69355 160.42836 C 209.20768 160.43733 210.1498 160.033 210.85902 159.57785 C 211.56908 159.07597 213.07776 158.35426 214.25357 157.954 C 215.38263 157.55294 219.3413 155.75193 223.0179 154.0395 C 230.79665 150.34156 234.63305 147.50985 238.9809 142.16243 C 242.75318 137.6465 244.6388 134.07946 246.32744 128.4051 C 247.4685 124.63804 247.62912 123.47203 247.45988 119.77561 C 247.26348 114.95665 246.20702 111.19799 243.84514 107.22953 C 242.80034 105.48144 242.4009 104.2589 242.59929 103.60782 C 242.8001 102.81653 242.66397 102.58039 241.91616 102.56734 C 241.3553 102.55755 240.79117 102.73471 240.64606 103.0127 C 240.21317 103.70643 235.49503 103.48382 233.7312 102.75174 C 232.89644 102.36315 231.64837 101.54657 230.86524 100.87836 C 230.12884 100.21097 227.30064 98.85252 224.60694 97.8237 C 214.85304 94.14699 208.84475 90.16163 208.06056 86.87525 C 207.5807 84.90326 207.93153 83.55356 208.71467 84.22177 C 209.03694 84.50791 210.43012 85.04651 211.7782 85.49081 C 217.73217 87.23108 223.17692 88.68195 224.06495 88.69745 C 226.3092 88.68987 221.80495 86.92815 216.63574 85.76261 C 215.61075 85.55771 213.84366 85.01258 212.72928 84.57236 C 211.6149 84.13213 210.31193 83.78212 209.84455 83.77396 C 209.37716 83.7658 208.2636 83.27884 207.4329 82.65655 C 206.55467 82.08019 205.1672 81.21442 204.37999 80.77991 C 202.8523 79.91169 202.50287 78.50301 203.68765 77.58864 C 204.63629 76.8104 209.66423 75.35532 210.50144 75.6037 C 210.87372 75.7037 213.11309 75.97655 215.40083 76.156745 Z" fill="#FFFFFF"/>
        </g>
        <g id="Graphic_663">
          <path d="M 135.38944 93.22747 C 135.38536 93.46116 134.96063 93.68751 134.44651 93.67854 C 133.93239 93.66957 133.51582 93.42853 133.5199 93.19484 C 133.5248 92.91441 133.9487 92.7348 134.46283 92.74377 C 134.97695 92.75274 135.39433 92.94704 135.38944 93.22747 Z" fill="#FFFFFF"/>
        </g>
        <g id="Graphic_662">
          <path d="M 166.0597 194.9825 C 167.31511 195.37843 168.614 195.96214 168.93627 196.24828 C 169.25936 196.48768 169.77022 196.6836 170.14576 196.59666 C 170.80255 196.46787 174.47694 197.56056 175.6348 198.18856 C 176.00463 198.42878 178.0891 199.54048 180.2203 200.653 L 184.11207 202.68454 L 182.73952 203.64239 C 181.98273 204.14346 180.74714 205.2907 179.93708 206.16487 C 177.74387 208.60448 175.74985 210.34628 175.09552 210.33486 C 174.81508 210.32996 174.38628 210.79 174.23627 211.34842 C 174.03871 211.95276 173.07947 213.3386 172.07757 214.48993 C 171.1224 215.64207 170.16234 217.07465 169.96396 217.72572 C 169.3721 219.492 167.67833 222.78188 167.20523 223.1009 C 166.9691 223.23702 166.77317 223.74788 166.765 224.21527 C 166.75603 224.7294 166.45684 225.79948 166.06825 226.63425 C 163.87772 231.59856 163.22036 234.439 163.12898 239.6737 C 162.9876 245.09456 163.37423 249.72983 163.96714 250.58173 C 164.15002 250.81868 164.72907 252.46514 165.25974 254.20425 C 166.4507 258.29253 168.674 262.16506 171.74755 265.53815 C 173.07686 267.05744 174.77029 269.14412 175.5469 270.18624 C 176.27595 271.27428 177.93242 272.79928 179.22723 273.61668 C 180.47612 274.38652 181.9538 275.44087 182.46058 275.8705 C 182.96655 276.34685 184.1236 277.0216 185.00591 277.36426 C 185.88742 277.75367 187.4602 278.71617 188.47377 279.5754 C 189.48733 280.43466 191.15523 281.30532 192.18022 281.51022 C 196.28015 282.32983 200.77544 284.60567 200.75423 285.82088 C 200.7428 286.4752 202.44276 288.188 203.19058 288.20104 C 204.59192 288.27225 210.45755 292.39537 210.44205 293.2834 C 210.43797 293.5171 211.16865 294.51166 212.0871 295.46274 C 213.00556 296.41383 214.50714 298.77768 215.3609 300.7562 C 216.2614 302.73553 217.34642 304.85834 217.8032 305.4741 C 218.25998 306.08986 218.5249 306.9828 218.37735 307.401 C 218.2298 307.8192 218.63086 308.94825 219.22215 309.89362 C 220.8623 312.3534 221.44893 316.2441 221.28635 322.88016 C 221.21048 327.22684 220.88762 329.65235 220.0925 332.35013 C 218.49896 337.93264 214.58832 345.01755 211.11278 348.6036 C 209.96984 349.7992 209.68778 349.8878 207.68373 349.52555 C 206.47098 349.36413 204.69736 349.1929 203.71586 349.17578 C 201.47078 349.2301 198.2605 348.3325 198.27274 347.63143 C 198.27682 347.39774 199.75345 345.8339 201.55807 344.22907 C 207.06703 339.3227 209.27305 333.47035 209.44438 323.65527 C 209.61873 310.98832 204.81048 302.53565 194.33813 297.1633 C 191.74362 295.80894 189.19095 294.73582 188.67683 294.72685 C 187.50837 294.70645 181.23783 292.35287 177.52894 290.55828 C 175.9988 289.83028 173.86596 288.81124 172.79914 288.3251 C 170.75814 287.40116 164.42431 283.31662 163.64526 282.41472 C 163.41728 282.08348 161.94204 280.8889 160.42088 279.6468 C 154.74874 275.15302 151.54312 271.3101 149.15735 266.03214 C 146.5879 260.56398 144.68093 254.63984 143.56445 248.96327 C 142.44633 243.38018 142.75332 228.47142 144.01968 222.8832 C 145.13114 218.13382 147.6043 210.36928 148.86682 207.67966 C 149.40053 206.5669 149.79483 205.40497 149.80054 205.0778 C 149.81686 204.14303 155.35274 197.69428 156.4818 197.2932 C 156.9992 197.11523 157.42718 196.70193 157.4337 196.32802 C 157.44431 195.72042 158.57827 195.03892 160.27065 194.50743 C 161.63423 194.0637 163.78175 194.24145 166.0597 194.9825 Z" fill="#FFFFFF"/>
        </g>
        <g id="Graphic_661">
          <path d="M 175.84903 293.0536 C 175.83109 294.08185 176.66422 294.56392 177.70226 294.021 C 178.45578 293.7069 180.45983 294.06914 184.97143 295.4102 C 186.27359 295.80696 187.90454 296.11595 188.55888 296.12737 C 190.19472 296.15592 190.21944 297.41868 188.57298 297.99773 C 187.34962 298.4439 186.02463 299.35583 182.99094 301.734 C 182.08986 302.46633 181.19204 303.0117 180.9116 303.0068 C 180.02357 302.9913 175.42491 309.31615 173.3901 313.39487 C 170.483 319.23498 169.81013 322.96345 170.69293 328.63594 C 171.82189 336.27634 174.30603 341.2755 178.73092 344.90594 C 180.43658 346.29154 181.50096 346.9179 186.09136 349.1019 C 186.97205 349.53805 189.48859 350.00275 191.68285 350.1813 C 193.87793 350.31313 195.65154 350.48435 195.65073 350.5311 C 195.65073 350.5311 196.91104 350.6466 198.45177 350.767 C 201.76613 351.0586 205.39786 351.9168 207.15842 352.83583 C 207.85298 353.22197 208.9698 353.522 209.67088 353.5342 C 212.33498 353.58072 216.25961 356.40764 214.47295 356.98424 C 214.14414 357.072 214.13354 357.6796 214.44194 358.7603 C 214.66014 359.6524 214.86935 361.05865 214.85467 361.89994 C 214.8408 362.6945 215.0598 363.53986 215.29105 363.68416 C 215.79947 364.0203 215.90926 363.08716 215.88105 359.34645 C 215.87429 357.05545 215.92347 356.91605 217.0452 356.93563 C 220.0832 356.98866 224.2983 361.9245 227.35577 368.8973 C 229.5111 373.9842 230.19855 377.4559 230.09576 383.34496 C 230.0158 387.92533 229.85193 389.2783 228.67066 392.67063 C 226.15646 400.1072 223.82711 402.31066 219.02202 401.7125 C 215.7093 401.3274 214.42183 400.08937 214.88246 397.80653 C 215.28818 395.99025 216.56807 394.98403 218.91152 394.6509 C 220.22346 394.4868 221.12047 393.9882 221.98052 392.9279 C 222.98488 391.63633 223.2202 391.54694 223.4884 392.2529 C 223.62127 392.676 224.08212 393.05807 224.45603 393.0646 C 224.97016 393.07357 225.06934 392.74803 224.8979 391.85674 C 224.67888 391.01136 224.8289 390.45295 225.3028 390.0872 C 225.7759 389.7682 225.92345 389.35 225.65036 388.92445 C 225.19603 388.16847 224.20637 388.61873 224.18923 389.60024 C 224.1827 389.97414 223.94412 390.2505 223.71043 390.2464 C 223.38326 390.2407 223.26262 389.11653 223.38792 387.29536 C 223.51974 385.1003 223.76567 384.4033 224.2798 384.41226 C 224.74718 384.4204 225.0374 383.86445 225.15372 382.5574 C 225.27738 380.8297 225.23227 380.7354 224.56325 381.5653 C 223.98933 382.3033 223.8483 382.3476 223.62521 381.73593 C 223.4456 381.312 223.41844 380.1895 223.52905 379.2096 C 223.64945 377.66887 223.56087 377.3868 222.90408 377.5156 C 222.38833 377.6001 222.06524 377.3607 222.07258 376.94005 C 222.08808 376.052 217.90317 369.38684 217.25128 369.2352 C 216.97166 369.18356 215.49072 368.31617 214.01222 367.30855 C 211.42423 365.5803 208.82564 364.4596 204.12545 363.20875 C 203.00862 362.90874 198.52662 362.55 194.2283 362.38145 C 189.88326 362.2121 185.30778 361.85172 184.09748 361.5501 C 173.76314 358.9853 173.76314 358.9853 167.17906 353.16654 C 166.1655 352.3073 164.29083 349.8902 162.9713 347.81004 C 159.69343 342.7503 158.20793 336.78675 158.03087 328.18116 C 157.93203 323.13014 158.09998 321.54348 159.05573 317.6797 C 160.11229 313.39687 162.5224 306.5663 163.4841 305.04024 C 163.77105 304.67122 164.30394 303.6052 164.69335 302.7237 C 165.37298 301.28623 167.63087 297.8192 168.29663 297.17627 C 168.4393 297.0385 169.25017 296.1176 170.15615 295.10486 C 172.01648 292.9867 173.33984 292.16825 174.83629 292.14762 C 175.53736 292.15986 175.85964 292.446 175.84903 293.0536 Z" fill="#FFFFFF"/>
        </g>
        <g id="Graphic_660">
          <path d="M 172.9096 359.6717 C 173.646 360.3391 174.66527 360.87116 175.13266 360.8793 C 175.60004 360.88748 176.1109 361.0834 176.24704 361.31955 C 176.38318 361.5557 177.45245 361.9016 178.61847 362.06223 C 179.78366 362.2696 180.71272 362.61306 180.70864 362.84676 C 180.70457 363.08045 179.80511 363.7193 178.72034 364.2614 C 177.58882 364.80267 176.03014 365.7105 175.17824 366.30343 C 174.37308 366.89716 173.47607 367.3958 173.19564 367.3909 C 172.91521 367.386 171.30163 368.7604 169.58886 370.46037 C 164.92608 375.101 161.42957 382.56716 160.75204 389.241 C 160.2392 394.5151 161.20871 397.8982 164.63252 402.63324 C 165.6371 404.0066 166.41045 405.2357 166.40719 405.42263 C 166.39658 406.03023 160.28852 405.08207 158.90105 404.2163 C 153.21177 400.70404 151.05246 387.80935 154.45771 377.53643 C 156.47842 371.58735 161.50425 364.89593 165.37108 362.9998 C 166.36156 362.50282 167.16672 361.9091 167.1708 361.6754 C 167.18222 361.02106 170.17243 358.4551 170.92025 358.46815 C 171.24742 358.47386 172.12647 359.0035 172.9096 359.6717 Z" fill="#FFFFFF"/>
        </g>
        <g id="Graphic_659">
          <path d="M 147.17061 395.9233 C 147.30675 396.15946 147.53636 396.39723 147.67658 396.3997 C 147.77005 396.4013 147.86761 396.16925 147.87169 395.93556 C 147.87658 395.65513 147.64616 395.4641 147.36572 395.4592 C 147.13203 395.4551 147.0353 395.64044 147.17061 395.9233 Z" fill="black"/>
        </g>
        <g id="Graphic_658">
          <path d="M 135.31739 75.9277 C 134.46712 76.42714 133.80054 77.1168 133.79402 77.4907 C 133.78749 77.86461 133.26113 78.556715 132.59782 79.05942 C 130.98668 80.29362 131.12037 80.66997 133.04236 80.37625 C 134.02713 80.20643 135.007 80.31704 135.60808 80.70155 C 136.4404 81.23036 136.6749 81.1877 137.06105 80.49315 C 137.34883 80.0774 137.86948 79.71247 138.24338 79.71899 C 138.61729 79.72552 139.04365 79.40569 139.19039 79.03423 C 139.62899 78.01333 140.79418 78.22068 140.77542 79.29566 C 140.76645 79.80979 140.9928 80.23451 141.27323 80.23941 C 141.55366 80.2443 141.70774 79.4522 141.63548 78.23536 C 141.52871 76.31664 141.48279 76.26908 139.80102 76.19297 C 138.86625 76.17666 137.79616 75.87746 137.47388 75.59132 C 136.96629 75.20844 136.45135 75.2462 135.31739 75.9277 Z" fill="black"/>
        </g>
        <g id="Graphic_657">
          <path d="M 137.19858 77.97091 C 137.33227 78.34726 137.27656 78.86057 137.08471 79.13774 C 136.60427 79.87739 135.45131 78.96897 135.79398 78.08665 C 136.18339 77.20514 136.8861 77.1239 137.19858 77.97091 Z" fill="#FFFFFF"/>
        </g>
        <g id="Graphic_656">
          <path d="M 125.47517 93.38169 C 125.05289 93.46782 124.52979 93.97297 124.38142 94.43791 C 124.23223 94.94958 123.46973 95.77782 122.6662 96.27808 C 121.9086 96.82589 121.28794 97.5631 121.28141 97.937 C 121.2757 98.26417 120.84527 98.8177 120.32543 99.13589 C 119.75804 99.50001 119.37108 100.2413 119.35803 100.98911 C 119.34498 101.73693 119.00557 102.4323 118.43981 102.70294 C 117.96753 102.97521 117.43709 103.901 117.28056 104.83333 C 117.12484 105.71891 116.54114 107.0178 116.01478 107.7099 C 115.4425 108.35445 115.00308 109.4221 114.99166 110.07643 C 114.98024 110.73077 114.39327 112.21662 113.6718 113.37284 C 112.85277 114.76113 112.31172 116.29452 112.23806 117.83608 C 111.93829 121.61782 111.89039 127.0403 112.08493 129.28782 C 112.20475 130.45873 112.40091 132.61278 112.51584 134.06413 C 112.74976 136.73311 113.57066 137.91626 113.60982 135.67281 C 113.62124 135.01847 113.86636 134.36822 114.15005 134.18616 C 114.81092 133.82367 114.28921 131.57043 113.36668 130.85304 C 112.76724 130.37505 112.72458 130.14054 113.24931 129.54191 C 113.583 129.17372 113.84117 127.77564 113.81646 126.51288 C 113.80725 124.3621 114.38524 123.39038 114.87571 124.75477 C 115.05206 125.36563 115.41757 123.17463 116.02388 117.90216 C 116.29184 115.94322 116.20978 115.28725 115.87364 115.79566 C 115.63342 116.16549 115.25625 116.34592 115.1193 116.15652 C 114.56823 115.58587 115.39052 114.01063 116.3761 113.79407 C 117.22148 113.57506 117.31985 113.29626 117.05981 112.1229 C 116.84489 111.04384 116.94652 110.57808 117.46391 110.4001 C 117.84026 110.26642 118.65929 108.87813 119.24789 107.29881 C 119.88323 105.72031 120.94737 103.68176 121.61721 102.80515 C 122.28705 101.92854 123.00445 101.00601 123.1963 100.72884 C 123.38733 100.49841 124.29412 99.43893 125.24684 98.427 C 127.0588 96.4015 127.30147 95.89146 126.22648 95.8727 C 125.85257 95.86617 125.52867 95.6735 125.53275 95.43981 C 125.5458 94.692 126.96182 93.92192 127.89252 94.17193 C 128.40419 94.32111 128.91913 94.28335 129.06343 94.0521 C 129.4955 93.40511 127.16591 92.94367 125.47517 93.38169 Z" fill="black"/>
        </g>
        <g id="Graphic_655">
          <path d="M 115.1524 119.6168 C 115.00566 119.98826 114.8679 119.8456 114.87687 119.33147 C 114.8391 118.81653 114.98421 118.53855 115.12117 118.72795 C 115.25893 118.87061 115.29833 119.29208 115.1524 119.6168 Z" fill="#FFFFFF"/>
        </g>
        <g id="Graphic_654">
          <path d="M 114.35869 138.30404 C 114.12115 141.19856 114.19668 142.22844 114.70183 142.75154 C 115.06921 143.13197 115.33496 143.97816 115.32272 144.67924 C 115.30151 145.89444 115.30151 145.89444 116.0189 144.9719 C 116.54608 144.23306 116.60424 143.57954 116.29747 142.40537 C 116.07928 141.51326 115.9717 139.64127 116.09046 138.19401 C 116.26657 136.13996 116.13778 135.48318 115.49078 135.0511 C 114.75031 134.61741 114.65194 134.8962 114.35869 138.30404 Z" fill="black"/>
        </g>
        <g id="Graphic_653">
          <path d="M 117.15637 146.76836 C 117.13108 148.21726 116.96394 149.75718 116.81638 150.17538 C 116.52371 150.87156 116.61719 150.8732 117.46746 150.37376 C 118.93185 149.51101 119.57069 150.41047 119.56766 153.26233 C 119.59237 154.52509 119.66709 155.6017 119.85404 155.60497 C 120.60186 155.61802 121.23312 154.27321 121.26248 152.59062 C 121.30083 150.39391 120.93916 149.68631 119.41066 148.86483 C 118.5767 148.4295 118.30525 147.91048 118.32401 146.8355 C 118.3387 145.9942 118.07458 145.05454 117.79905 144.76922 C 117.29308 144.29286 117.19308 144.66513 117.15637 146.76836 Z" fill="black"/>
        </g>
        <g id="Graphic_652">
          <path d="M 122.61709 152.66102 C 122.13991 153.21373 122.13338 153.58763 122.5418 154.29605 C 122.8608 154.76915 123.079 155.66126 123.0692 156.22212 L 123.05126 157.25037 L 124.0499 156.286 C 124.95343 155.41346 125.00506 155.13385 124.51705 153.62924 C 123.94208 151.7491 123.57144 151.55561 122.61709 152.66102 Z" fill="black"/>
        </g>
        <g id="Graphic_651">
          <path d="M 125.84007 158.18735 C 125.8107 159.86993 125.98134 160.80797 126.26503 160.6259 C 126.54791 160.49059 126.74465 159.93299 126.75281 159.4656 C 126.77973 157.92323 127.57265 158.03058 128.33784 159.72704 C 129.14895 161.47104 129.7041 161.808 130.14351 160.74036 C 130.58292 159.67272 129.1789 157.07681 128.33271 157.34256 C 127.95554 157.52298 127.26099 157.13684 126.75665 156.567 L 125.93412 155.47733 L 125.84007 158.18735 Z" fill="black"/>
        </g>
        <g id="Graphic_650">
          <path d="M 131.41687 160.10805 C 131.40463 160.80913 131.62609 161.51428 131.85733 161.65858 C 132.13532 161.80369 132.31003 162.50803 132.29943 163.11563 C 132.28637 163.86345 132.51354 164.24143 132.8899 164.10774 C 133.73608 163.842 133.41357 160.89095 132.35735 159.7972 C 131.43808 158.89285 131.43808 158.89285 131.41687 160.10805 Z" fill="black"/>
        </g>
        <g id="Graphic_649">
          <path d="M 135.1225 162.0896 C 135.10374 163.16458 136.36836 165.7113 136.92922 165.7211 C 137.77052 165.73578 137.42516 164.0934 136.28117 162.67085 C 135.41272 161.53363 135.18066 161.43607 135.1225 162.0896 Z" fill="black"/>
        </g>
        <g id="Graphic_648">
          <path d="M 140.21642 164.89017 C 140.20418 165.59124 141.7025 168.14205 142.12314 168.14939 C 142.684 168.15918 142.60521 167.31625 141.83676 165.80675 C 141.16016 164.39236 140.23355 163.90866 140.21642 164.89017 Z" fill="black"/>
        </g>
        <g id="Graphic_647">
          <path d="M 144.85437 167.02824 C 144.83969 167.86954 146.34371 170.09317 146.90457 170.10296 C 147.93282 170.1209 147.76953 168.76223 146.61901 167.71358 C 145.55871 166.85353 144.86253 166.56086 144.85437 167.02824 Z" fill="black"/>
        </g>
        <g id="Graphic_646">
          <path d="M 148.5543 169.33696 C 148.54776 169.71086 148.86514 170.27744 149.23334 170.61113 C 149.78605 171.0883 149.92626 171.09076 149.93687 170.48316 C 149.9434 170.10925 149.62601 169.54267 149.25782 169.20898 C 148.70511 168.7318 148.5649 168.72936 148.5543 169.33696 Z" fill="black"/>
        </g>
        <g id="Graphic_645">
          <path d="M 151.33576 170.69458 C 151.32923 171.0685 151.64416 171.77528 152.00991 172.2492 C 152.69549 173.14946 152.69549 173.14946 152.7118 172.2147 C 152.72078 171.70057 152.40585 170.99378 152.03765 170.66008 C 151.48495 170.1829 151.34473 170.18046 151.33576 170.69458 Z" fill="black"/>
        </g>
        <g id="Graphic_644">
          <path d="M 155.7343 173.15575 C 156.16417 175.31388 156.30193 175.45654 157.34079 174.8669 C 158.09676 174.41256 158.37638 174.4642 158.92418 175.2218 C 159.42607 175.93185 159.70487 176.03022 160.22715 175.5718 C 160.79536 175.16095 161.02742 175.2585 161.52522 176.20225 C 162.15753 177.47561 162.6684 177.67154 163.14883 176.93189 C 163.7252 176.05364 164.60588 176.4898 165.09472 177.94766 C 165.67376 179.59411 166.6118 179.42347 166.6428 177.64741 C 166.65422 176.99307 166.9428 176.53058 167.31672 176.5371 C 168.0178 176.54935 168.51479 177.53983 168.49031 178.94198 C 168.47807 179.64306 168.71014 179.74062 169.88186 179.57406 C 171.0544 179.36076 171.33239 179.50587 171.78182 180.54228 C 172.18697 181.43765 172.69538 181.7738 173.67689 181.79093 C 174.61166 181.80724 174.98149 182.04746 174.9717 182.60832 C 174.9611 183.21592 175.1005 183.2651 175.52848 182.8518 C 176.3369 182.07112 176.70918 182.17112 176.97003 183.29774 C 177.10046 183.86105 177.5154 184.19556 177.8442 184.1078 C 178.83141 183.79776 178.57872 182.20376 177.51353 181.62413 C 176.95756 181.33391 176.2179 180.85347 175.89563 180.56733 C 175.52661 180.28037 174.73777 179.93933 174.1318 179.83525 C 172.91905 179.67383 172.64596 179.24828 171.48052 176.37602 C 170.81045 174.58772 170.71779 174.53935 170.46533 175.61026 L 170.11776 176.77301 L 169.11318 175.39965 C 168.15288 174.16731 167.96756 174.07057 167.023 174.61512 C 166.31376 175.07027 165.9866 175.06456 165.8529 174.6882 C 165.63063 174.02978 163.57414 173.99389 163.14207 174.64088 C 162.94859 175.01153 162.57876 174.7713 162.2179 174.01697 C 161.675 172.97893 161.35027 172.833 159.80464 172.99303 C 158.54025 173.11122 157.84162 172.95877 157.42995 172.4373 C 157.06338 172.01013 156.50823 171.67317 156.13432 171.66665 C 155.6202 171.65767 155.5202 172.02995 155.7343 173.15575 Z" fill="black"/>
        </g>
        <g id="Graphic_643">
          <path d="M 173.85684 176.83828 C 174.8704 177.69752 176.45707 177.86547 176.46849 177.21113 C 176.47338 176.9307 176.10192 176.78396 175.68128 176.77662 C 175.2139 176.76846 174.42178 176.61438 173.9101 176.46519 C 172.98187 176.07496 172.98105 176.1217 173.85684 176.83828 Z" fill="black"/>
        </g>
        <g id="Graphic_642">
          <path d="M 184.65554 182.26308 C 184.78923 182.63943 184.63922 183.19785 184.35227 183.56686 C 183.9702 184.02772 184.05634 184.45 184.696 185.3027 C 185.15195 185.9652 185.64813 187.00243 185.731 187.61166 C 185.80898 188.50132 186.08533 188.7399 186.92744 188.70786 C 187.67688 188.62743 188.09264 188.9152 188.36001 189.66792 C 188.5831 190.2796 189.1309 191.0372 189.59177 191.41927 C 190.32816 192.08666 190.37572 192.04074 190.06976 190.81983 C 189.63582 188.8954 190.9396 189.19866 192.02462 191.32148 C 192.65693 192.59484 193.1629 193.0712 193.86479 193.0367 C 194.5675 192.95546 195.11938 193.47937 195.84436 194.8011 C 196.4332 195.8867 197.21388 196.69511 197.68126 196.70327 C 198.19539 196.71225 198.6989 197.32882 199.05487 198.3636 C 199.41082 199.39837 199.96108 200.01576 200.4752 200.02473 C 201.03607 200.03452 201.30997 200.41333 201.29692 201.16114 C 201.26918 202.75025 202.01128 203.09047 202.8738 201.88996 C 203.54526 200.91987 203.59118 200.96742 203.69387 203.11984 C 203.79248 205.50595 204.93891 206.7883 204.97726 204.59158 C 204.98868 203.93724 205.18542 203.37964 205.41912 203.38372 C 206.07346 203.39514 206.42207 204.85056 205.99082 205.45082 C 205.51365 206.00352 205.7337 209.46707 206.24783 209.47604 C 206.43478 209.4793 206.82093 208.78475 207.20952 207.95 C 207.7473 206.60355 207.8416 206.55844 208.20082 207.40626 C 208.65026 208.44266 208.25945 212.08256 207.58309 213.33307 C 207.05183 214.3056 207.4972 215.5757 208.33848 215.5904 C 208.7124 215.59692 209.00098 215.13443 209.01158 214.52683 C 209.0222 213.91923 209.45834 213.03854 209.98062 212.58013 C 210.88333 211.75433 210.92926 211.8019 210.91294 212.73666 C 210.90397 213.25078 210.64417 214.74233 210.29416 216.0453 C 209.89006 217.7681 209.87538 218.6094 210.19684 218.94227 C 210.56422 219.3227 210.80036 219.18657 211.04629 218.48957 C 211.1963 217.93116 211.57754 217.51704 211.81124 217.52112 C 212.41884 217.53172 212.30007 218.97898 211.5294 220.2746 C 210.90223 221.38573 211.00736 223.39793 211.70028 223.87755 C 212.16277 224.16614 212.1636 224.1194 213.15873 220.67707 C 213.85468 218.30483 214.3286 217.93908 214.76987 219.44287 C 215.07827 220.52357 213.6717 226.10934 213.01328 226.3316 C 212.73121 226.4202 212.53365 227.02453 212.52305 227.63213 C 212.51244 228.23973 212.31652 228.7506 212.03608 228.7457 C 211.8024 228.74162 211.563 229.0647 211.55646 229.43862 C 211.54994 229.81253 211.77792 230.14377 212.0116 230.14785 C 212.29204 230.15275 212.48307 229.92232 212.48797 229.6419 C 212.49694 229.12776 214.39667 227.43107 215.00508 227.39494 C 215.5192 227.40391 215.35044 229.03731 214.77979 229.58839 C 214.20913 230.13946 214.5659 231.1275 215.31373 231.14055 C 215.54742 231.14463 215.73927 230.86746 215.7458 230.49355 C 215.7621 229.55878 216.65912 229.06016 217.30203 229.72592 C 217.6235 230.0588 217.5694 230.47863 216.99794 231.07644 C 216.56914 231.53648 216.18463 232.13756 216.17973 232.418 C 216.16668 233.1658 213.34524 234.09836 211.47733 233.97225 L 209.8431 233.85022 L 211.83981 234.63312 C 213.55772 235.31764 214.07184 235.32662 215.06232 234.82962 C 215.91177 234.37692 216.4259 234.3859 217.0737 234.77123 C 218.0438 235.4427 218.65874 235.03266 217.97235 234.17913 C 217.6066 233.70522 217.70742 233.2862 218.2354 232.50062 C 219.28813 231.11641 219.2281 229.1985 218.17025 228.19823 C 216.65235 226.76916 215.69566 219.9733 216.87718 219.2459 C 217.34946 218.97362 217.31122 213.12886 216.80607 212.60576 C 216.66912 212.41636 216.5232 212.74108 216.5134 213.30194 C 216.4873 214.79757 215.59519 215.01577 215.10554 213.60464 C 214.88327 212.94622 214.06237 211.76307 213.28087 211.00139 C 212.36241 210.0503 211.91053 209.1541 211.92766 208.1726 C 211.94316 207.28457 211.71844 206.76637 211.2978 206.75903 C 210.97063 206.75331 210.09728 205.89652 209.41415 204.85604 C 208.73102 203.81555 207.85768 202.95876 207.48377 202.95223 C 207.01638 202.94407 206.88106 202.6612 207.07617 202.19707 C 207.22292 201.82561 207.1425 201.07617 206.87104 200.55715 C 206.511 199.75607 206.27812 199.70525 205.7091 200.16284 C 205.14008 200.62044 204.95476 200.5237 204.73575 199.67833 C 204.56103 198.97399 204.3306 198.78295 203.90343 199.14952 C 203.47707 199.46935 203.1097 199.0889 202.52983 197.4892 C 201.9459 196.12317 201.35134 195.36475 200.74537 195.26067 C 200.1394 195.15659 199.72692 194.68186 199.64486 194.0259 C 199.51851 193.22889 199.19542 192.98948 198.12044 192.97072 C 196.71828 192.94625 196.7191 192.8995 196.84602 190.98486 C 197.01316 189.44494 196.8811 188.9751 196.13818 188.68162 C 194.745 188.14302 194.5105 188.18568 194.49744 188.9335 C 194.48113 189.86827 193.12652 189.79787 192.1146 188.84515 C 191.51678 188.27368 191.09695 188.2196 190.38935 188.58127 C 189.06843 189.2595 188.01548 187.9788 188.83287 186.684 C 189.1682 186.22232 189.4125 185.6188 189.4174 185.33837 C 189.43045 184.59055 188.1177 184.8014 187.58888 185.63372 C 187.20355 186.28153 187.01578 186.325 186.41716 185.80028 C 185.5881 185.08452 185.46991 183.82013 186.18323 183.1313 C 186.5161 182.80983 186.33486 182.4794 185.54684 182.09162 C 184.57267 181.65384 184.43245 181.6514 184.65554 182.26308 Z" fill="black"/>
        </g>
        <g id="Graphic_641">
          <path d="M 179.45696 182.78012 C 179.07245 183.3812 179.56618 184.55863 180.35502 184.89967 C 180.72648 185.04641 181.2751 185.75728 181.5433 186.46325 L 182.08132 187.78172 L 182.29193 186.42957 C 182.55989 184.47063 180.27436 181.48531 179.45696 182.78012 Z" fill="black"/>
        </g>
        <g id="Graphic_640">
          <path d="M 198.6835 190.17538 C 198.67943 190.40908 198.90904 190.64685 199.18948 190.65174 C 199.42317 190.65582 199.52072 190.42376 199.3846 190.18762 C 199.24927 189.90474 199.01884 189.7137 198.87862 189.71126 C 198.78515 189.70963 198.6884 189.89495 198.6835 190.17538 Z" fill="black"/>
        </g>
        <g id="Graphic_639">
          <path d="M 201.44377 192.74821 C 201.43398 193.30907 204.05402 195.87946 204.33934 195.60392 C 205.05266 194.91508 204.6475 194.0197 203.30433 193.29497 C 201.91441 192.56942 201.44948 192.42104 201.44377 192.74821 Z" fill="black"/>
        </g>
        <g id="Graphic_638">
          <path d="M 218.02256 217.91005 C 218.15543 218.33315 218.2777 219.36384 218.2622 220.25187 C 218.2467 221.1399 218.46815 221.84506 218.74859 221.84995 C 219.16923 221.8573 219.17307 218.9587 218.82854 217.26958 C 218.78261 217.22203 218.54974 217.1712 218.2693 217.16632 C 217.98888 217.16142 217.8897 217.48696 218.02256 217.91005 Z" fill="black"/>
        </g>
        <g id="Graphic_637">
          <path d="M 215.39952 236.93938 C 213.78757 238.22032 214.10168 238.97385 215.98264 238.35214 C 216.73535 238.08477 217.306 237.5337 217.4109 236.881 C 217.6207 235.57557 217.15332 235.5674 215.39952 236.93938 Z" fill="black"/>
        </g>
        <g id="Graphic_636">
          <path d="M 211.63107 238.5567 C 211.48677 238.78795 211.57617 239.02327 211.80986 239.02735 C 212.0903 239.03225 212.32807 238.80263 212.33215 238.56894 C 212.33704 238.2885 212.24683 238.09992 212.15335 238.0983 C 212.01314 238.09584 211.77618 238.27872 211.63107 238.5567 Z" fill="black"/>
        </g>
        <g id="Graphic_635">
          <path d="M 217.02092 240.47414 C 216.26005 241.2089 215.7337 241.901 215.87146 242.04367 C 216.19291 242.37655 219.78583 240.10163 219.7948 239.5875 C 219.8095 238.7462 218.39918 239.18912 217.02092 240.47414 Z" fill="black"/>
        </g>
        <g id="Graphic_634">
          <path d="M 213.89457 242.80396 C 214.0307 243.0401 214.26032 243.27787 214.40053 243.28032 C 214.494 243.28195 214.59157 243.0499 214.59565 242.8162 C 214.60054 242.53577 214.37011 242.34473 214.08968 242.33984 C 213.856 242.33576 213.75925 242.52108 213.89457 242.80396 Z" fill="black"/>
        </g>
        <g id="Graphic_633">
          <path d="M 216.93012 242.9972 C 216.92441 243.32437 216.4456 243.97055 215.87659 244.42815 L 214.83284 245.29823 L 215.85456 245.6901 C 218.26946 246.62054 215.6056 249.23895 212.80945 248.72262 C 211.92387 248.5669 211.22197 248.6014 211.2179 248.8351 C 211.19505 250.14377 215.64663 249.56694 217.77842 247.9678 L 218.96238 247.10016 L 217.85534 246.2393 L 216.79586 245.3325 L 217.84124 244.36894 C 218.41107 243.8646 218.74966 243.21597 218.5676 242.93228 C 218.1592 242.22386 216.94318 242.2494 216.93012 242.9972 Z" fill="black"/>
        </g>
        <g id="Graphic_632">
          <path d="M 215.3754 251.71283 C 214.04878 252.71823 214.2333 252.8617 216.0216 252.19163 C 216.68 251.96936 217.24821 251.5585 217.2531 251.27808 C 217.26535 250.577 216.70204 250.70742 215.3754 251.71283 Z" fill="black"/>
        </g>
        <g id="Graphic_631">
          <path d="M 210.11867 252.8834 C 210.4434 253.02932 210.86486 252.98992 211.00752 252.85216 C 211.19692 252.7152 210.91894 252.5701 210.404 252.60786 C 209.88987 252.59888 209.7472 252.73665 210.11867 252.8834 Z" fill="black"/>
        </g>
        <g id="Graphic_630">
          <path d="M 212.31293 253.06195 C 212.16864 253.2932 212.25804 253.52852 212.49173 253.5326 C 212.77216 253.5375 213.00993 253.30788 213.014 253.0742 C 213.0189 252.79376 212.9287 252.60517 212.83522 252.60354 C 212.695 252.6011 212.45804 252.78397 212.31293 253.06195 Z" fill="black"/>
        </g>
        <g id="Graphic_629">
          <path d="M 214.61886 254.8788 C 214.10147 255.0568 213.25284 255.46275 212.73382 255.7342 C 211.9303 256.23446 211.8811 256.37386 212.48136 256.8051 C 212.94303 257.14044 213.31776 257.10023 213.65227 256.6853 C 213.9384 256.36302 214.50662 255.95216 214.97726 255.77337 C 215.40036 255.6405 215.7808 255.2731 215.7857 254.99268 C 215.78977 254.759 215.7471 254.52448 215.69955 254.5704 C 215.60526 254.6155 215.13543 254.74757 214.61886 254.8788 Z" fill="black"/>
        </g>
        <g id="Graphic_628">
          <path d="M 215.7245 258.49807 C 215.71797 258.87198 215.71063 259.29262 215.70818 259.43284 C 215.70574 259.57305 215.32286 260.08065 214.89323 260.58743 C 214.41606 261.14013 214.02828 261.92816 213.9742 262.348 C 213.92012 262.76782 213.85707 263.70178 213.7981 264.40204 C 213.7334 265.42947 213.35215 265.8436 212.03369 266.3816 C 210.33886 267.05332 210.33805 267.10006 211.1171 268.00196 C 211.5755 268.52424 212.12903 268.95467 212.31598 268.95794 C 213.0638 268.971 215.50352 263.12273 215.8772 260.46435 C 216.09025 258.97198 216.15738 257.80433 216.01717 257.8019 C 215.87695 257.79944 215.73103 258.12416 215.7245 258.49807 Z" fill="black"/>
        </g>
        <g id="Graphic_627">
          <path d="M 212.9161 258.6828 C 212.91203 258.9165 213.14165 259.15427 213.42208 259.15917 C 213.65577 259.16325 213.75333 258.9312 213.6172 258.69505 C 213.48187 258.41217 213.25144 258.22114 213.11122 258.2187 C 213.01775 258.21706 212.921 258.40238 212.9161 258.6828 Z" fill="black"/>
        </g>
        <g id="Graphic_626">
          <path d="M 207.14933 259.6107 C 208.24903 260.89223 208.04657 261.777 206.44686 262.35686 C 205.50638 262.6677 205.36127 262.9457 205.6262 263.83862 C 206.2922 265.86062 206.04382 266.69783 204.68024 267.14156 C 203.73976 267.4524 203.13216 267.4418 202.48435 267.05647 C 201.83817 266.57767 201.51018 266.6187 201.12812 267.07955 C 200.6993 267.5396 200.88137 267.8233 201.85635 268.21433 C 204.9207 269.43664 206.17856 269.69236 206.4196 269.2758 C 206.61062 269.04536 207.3617 268.87146 208.10952 268.8845 C 209.23124 268.9041 209.51494 268.72203 209.38614 268.06525 C 209.3 267.64297 208.79323 267.21335 208.18726 267.10927 C 206.8351 266.89865 206.8498 266.05736 208.25195 266.08184 C 209.4204 266.10223 211.86794 265.16315 211.8761 264.69576 C 211.87936 264.5088 211.18318 264.21614 210.3919 264.0153 C 209.0881 263.71204 208.99626 263.61693 209.7957 263.35037 C 211.81607 262.77785 212.67042 262.04472 212.07342 261.4265 C 211.66012 260.99852 211.33295 260.9928 210.90578 261.35938 C 210.24165 261.90882 208.66315 261.27348 209.23461 260.67567 C 209.90037 260.03275 208.6629 258.60857 207.4477 258.58736 L 206.2325 258.56615 L 207.14933 259.6107 Z" fill="black"/>
        </g>
        <g id="Graphic_625">
          <path d="M 210.10038 259.2882 C 210.09304 259.70885 211.49111 259.967 211.73133 259.5972 C 211.92318 259.32002 211.59928 259.12735 211.08515 259.11838 C 210.5243 259.1086 210.10201 259.19472 210.10038 259.2882 Z" fill="black"/>
        </g>
        <g id="Graphic_624">
          <path d="M 206.21306 270.39425 C 204.5264 270.59857 202.88157 271.08414 202.50114 271.45152 C 201.97886 271.90994 201.27615 271.99118 200.01747 271.7822 C 198.15364 271.4224 197.6781 271.88162 198.82943 272.88352 C 199.29029 273.2656 199.5699 273.31722 199.81012 272.9474 C 200.48322 271.88383 200.83674 273.05882 200.2916 274.8259 C 199.8424 276.4544 199.60382 276.73076 198.62476 276.5734 C 197.97205 276.46852 197.23321 275.94134 196.91665 275.32803 C 196.42047 274.2908 196.42047 274.2908 195.61042 275.16497 C 194.84792 275.9932 194.84629 276.0867 195.8623 276.8057 C 196.41582 277.23615 197.15792 277.57637 197.43835 277.58127 C 197.71878 277.58616 198.31904 278.0174 198.73153 278.49214 C 199.69346 279.631 201.78935 280.08836 202.08365 279.2987 C 202.22957 278.97398 202.75022 278.60904 203.2668 278.4778 C 204.53444 278.17266 204.40647 277.46913 202.9198 276.9289 C 201.71195 276.48704 201.7595 276.44112 204.4342 275.88002 C 208.61106 274.97112 208.80862 274.3668 204.83014 274.6246 C 202.95815 274.7322 201.36986 274.65772 201.23372 274.42158 C 200.82531 273.71316 202.52748 272.6208 204.4962 272.3279 C 208.47959 271.78964 210.78772 270.80137 209.58312 270.17256 C 209.35106 270.075 207.85298 270.1891 206.21306 270.39425 Z" fill="black"/>
        </g>
        <g id="Graphic_623">
          <path d="M 211.46677 272.07555 C 211.12655 272.81765 210.78225 273.79345 210.63306 274.30513 C 210.48387 274.8168 210.2363 275.60728 210.042 276.02466 C 209.40912 277.46295 210.4939 276.92085 211.36292 275.34643 C 211.89336 274.42063 212.09663 273.48912 211.91947 272.925 C 211.69638 272.31332 211.74557 272.17392 212.1154 272.41414 C 212.48523 272.65436 212.67626 272.42393 212.68687 271.81633 C 212.71052 270.4609 212.10048 270.59052 211.46677 272.07555 Z" fill="black"/>
        </g>
        <g id="Graphic_622">
          <path d="M 209.06726 278.29853 C 208.87541 278.5757 208.82378 278.8553 208.96155 278.99798 C 209.05258 279.13982 209.29035 278.9102 209.4379 278.492 C 209.77895 277.70317 209.50096 277.55806 209.06726 278.29853 Z" fill="black"/>
        </g>
        <g id="Graphic_621">
          <path d="M 233.53502 81.84984 C 233.39072 82.08109 233.66708 82.31968 234.1812 82.32865 C 234.74206 82.33844 235.15945 82.53274 235.15455 82.81317 C 235.15047 83.04686 234.63227 83.27158 234.02467 83.26097 C 232.57577 83.23568 232.03228 84.90929 233.28035 85.72587 C 233.74284 86.01446 234.15451 86.53593 234.1488 86.8631 C 234.13657 87.56418 234.88275 87.67071 235.31482 87.02371 C 235.45993 86.74573 236.16427 86.57101 236.8186 86.58243 C 237.84686 86.60038 237.99033 86.41587 237.8205 85.4311 C 237.56292 84.11753 237.98602 83.98466 239.32675 84.84961 C 240.66667 85.7613 240.9134 85.01756 239.72269 83.59419 C 239.0363 82.74066 238.38685 82.44881 237.68332 82.57679 C 237.16675 82.70803 236.32872 82.50639 235.82113 82.12351 C 234.80675 81.31101 233.9671 81.20285 233.53502 81.84984 Z" fill="black"/>
        </g>
        <g id="Graphic_620">
          <path d="M 236.52326 84.75392 C 236.51918 84.98761 236.32896 85.1713 236.04853 85.16641 C 235.81484 85.16233 235.58685 84.83108 235.5942 84.41043 C 235.60072 84.03653 235.83768 83.85365 236.06892 83.99795 C 236.3469 84.14306 236.52815 84.47349 236.52326 84.75392 Z" fill="#FFFFFF"/>
        </g>
        <g id="Graphic_619">
          <path d="M 241.6653 84.79692 C 241.66123 85.03061 241.98432 85.27002 242.40496 85.27736 C 242.77887 85.28389 242.9699 85.05346 242.83377 84.81732 C 242.69845 84.53444 242.37454 84.34177 242.0941 84.33688 C 241.86042 84.3328 241.6702 84.51649 241.6653 84.79692 Z" fill="black"/>
        </g>
        <g id="Graphic_618">
          <path d="M 220.31037 89.52022 C 220.02096 90.02945 221.83153 90.76234 222.30707 90.30311 C 222.49647 90.16616 222.31523 89.83573 221.9454 89.59551 C 221.06716 89.01915 220.69325 89.01262 220.31037 89.52022 Z" fill="black"/>
        </g>
        <g id="Graphic_617">
          <path d="M 255.98292 94.86491 C 255.97884 95.0986 256.3954 95.33964 256.90953 95.34861 C 257.42365 95.35759 257.84838 95.13124 257.85246 94.89754 C 257.85735 94.61711 257.43997 94.42282 256.92585 94.41384 C 256.41172 94.40487 255.9878 94.58448 255.98292 94.86491 Z" fill="black"/>
        </g>
        <g id="Graphic_616">
          <path d="M 259.86466 94.79241 C 259.01847 95.05816 259.09808 95.85434 259.89264 95.86821 C 260.6872 95.88208 261.30784 95.14487 260.79943 94.80873 C 260.56737 94.71117 260.14672 94.70383 259.86466 94.79241 Z" fill="black"/>
        </g>
        <g id="Graphic_615">
          <path d="M 258.9067 101.46133 C 258.47382 102.15506 258.6116 102.29773 260.5246 102.51813 C 261.73817 102.63282 262.16127 102.49995 262.17024 101.98582 C 262.18493 101.14453 259.38796 100.67493 258.9067 101.46133 Z" fill="black"/>
        </g>
        <g id="Graphic_614">
          <path d="M 236.6896 102.00858 C 236.68552 102.24228 237.0086 102.48168 237.42926 102.48902 C 237.80317 102.49555 237.9942 102.26512 237.85806 102.02898 C 237.72274 101.7461 237.39884 101.55344 237.1184 101.54854 C 236.88471 101.54446 236.6945 101.72815 236.6896 102.00858 Z" fill="black"/>
        </g>
        <g id="Graphic_613">
          <path d="M 263.333 102.33339 C 263.3289 102.56708 263.5077 103.03773 263.7816 103.41653 C 264.28105 104.2668 264.94437 103.7641 264.5884 102.72932 C 264.3202 102.02335 263.3436 101.72579 263.333 102.33339 Z" fill="black"/>
        </g>
        <g id="Graphic_612">
          <path d="M 260.71914 104.76566 C 260.14277 105.6439 261.20634 106.317 263.44652 106.54312 C 265.63915 106.81515 266.16143 106.35674 264.91744 105.30647 C 263.9498 104.49478 261.1512 104.11866 260.71914 104.76566 Z" fill="black"/>
        </g>
        <g id="Graphic_611">
          <path d="M 263.12285 109.01536 C 263.96088 109.217 265.0277 109.70315 265.44183 110.0844 C 267.4214 111.8488 268.27085 111.3961 266.47987 109.54148 C 265.83695 108.87572 265.00055 108.58061 263.59758 108.60287 C 261.587 108.61453 261.587 108.61453 263.12285 109.01536 Z" fill="black"/>
        </g>
        <g id="Graphic_610">
          <path d="M 264.83447 112.7387 C 264.59425 113.10853 264.81815 113.67347 265.41596 114.24494 C 266.6575 115.43543 266.71835 117.3066 265.55886 116.77208 C 263.84177 116.04082 263.0956 115.93429 263.08743 116.40167 C 263.07682 117.00927 265.23356 119.3378 265.79442 119.3476 C 266.0281 119.35167 266.53326 119.87477 266.9425 120.53645 C 267.85278 121.95492 268.59897 122.06145 268.6218 120.75278 C 268.6316 120.19191 268.26667 119.67126 267.70825 119.52126 C 266.77756 119.27125 266.37976 117.95523 267.2678 117.97073 C 267.50148 117.97481 267.92865 117.60824 268.1705 117.14494 C 268.55665 116.45039 268.286 115.88463 266.9124 114.22431 C 265.67576 112.75339 265.0755 112.32214 264.83447 112.7387 Z" fill="black"/>
        </g>
        <g id="Graphic_609">
          <path d="M 263.4667 121.45759 C 263.46344 121.64454 264.24168 122.59318 265.2077 123.49835 C 266.17288 124.45025 267.08807 125.58829 267.26768 126.0122 C 267.62446 127.00023 268.51004 127.15595 268.52636 126.22118 C 268.54675 125.05272 268.00302 124.06142 267.3487 124.05 C 267.02152 124.04429 266.60984 123.52282 266.4343 122.86522 C 266.30552 122.20843 265.89384 121.68697 265.56668 121.68126 C 265.2395 121.67555 264.63435 121.52472 264.21615 121.37717 C 263.79795 121.22961 263.4708 121.2239 263.4667 121.45759 Z" fill="black"/>
        </g>
        <g id="Graphic_608">
          <path d="M 264.52993 127.50725 C 264.7079 128.02464 264.97365 128.87083 265.1057 129.34066 C 265.36738 130.42054 266.97304 132.17842 267.35347 131.81104 C 267.8282 131.39855 266.56358 128.85183 265.36877 127.66215 C 264.26418 126.66106 264.21744 126.66025 264.52993 127.50725 Z" fill="black"/>
        </g>
        <g id="Graphic_607">
          <path d="M 262.55678 133.41041 C 262.73313 134.02127 263.04887 134.68132 263.2785 134.9191 C 263.5073 135.2036 263.6763 136.23511 263.65834 137.26336 C 263.67326 139.08698 263.7192 139.13453 264.38903 138.25792 C 265.44175 136.87372 264.21057 132.41071 262.76168 132.38542 C 262.48125 132.38053 262.38043 132.79954 262.55678 133.41041 Z" fill="black"/>
        </g>
        <g id="Graphic_606">
          <path d="M 261.0108 138.947 C 261.18225 139.8383 261.43658 141.33882 261.55966 142.32278 C 261.72133 143.77493 261.9042 144.01189 262.42648 143.55348 C 263.28 142.86708 263.311 141.09102 262.43604 140.3277 C 262.06784 139.99401 261.7521 139.33396 261.76025 138.86657 C 261.7684 138.39919 261.5437 137.88099 261.26652 137.68914 C 260.8967 137.44892 260.7967 137.8212 261.0108 138.947 Z" fill="black"/>
        </g>
        <g id="Graphic_605">
          <path d="M 254.60426 147.06365 C 254.59692 147.4843 254.81184 148.56336 255.12433 149.41037 C 255.52458 150.58617 255.51153 151.33399 255.11967 152.35571 C 254.43596 154.02687 255.1797 154.27362 256.88676 152.90083 C 257.97643 152.0783 257.97888 151.93809 257.45554 149.77833 C 257.1504 148.51068 256.6583 147.23977 256.38358 146.9077 C 255.6972 146.05417 254.62057 146.12888 254.60426 147.06365 Z" fill="black"/>
        </g>
        <g id="Graphic_604">
          <path d="M 250.23905 150.72768 C 249.9472 151.37712 250.11318 155.2605 250.46424 156.5757 C 250.90144 158.31318 251.27698 158.22623 252.38705 156.23524 C 253.06423 154.93798 253.16586 154.47223 252.74767 154.32467 C 252.42294 154.17875 252.15393 153.51951 252.16617 152.81844 C 252.19472 151.18259 250.72602 149.61411 250.23905 150.72768 Z" fill="black"/>
        </g>
        <g id="Graphic_603">
          <path d="M 245.6828 154.62213 C 244.92194 155.3569 244.96134 155.77836 245.97164 156.82455 C 246.66048 157.53787 246.7901 158.14791 246.57703 159.64028 C 246.36396 161.13265 246.4501 161.55493 247.01096 161.56472 C 247.899 161.58022 248.29003 160.60524 248.3349 158.03462 C 248.39283 154.71619 247.157 153.19853 245.6828 154.62213 Z" fill="black"/>
        </g>
        <g id="Graphic_602">
          <path d="M 240.59613 159.44238 C 240.7233 160.19264 241.0866 160.80677 241.31865 160.90433 C 241.55072 161.00188 241.72543 161.70622 241.7132 162.4073 C 241.683 164.13662 242.51533 164.66543 243.05393 163.27225 C 243.73927 161.50761 243.21593 159.34785 241.9646 158.71822 C 240.3418 157.94185 240.2467 158.0337 240.59613 159.44238 Z" fill="black"/>
        </g>
        <g id="Graphic_601">
          <path d="M 236.12334 161.23442 C 236.116 161.65506 236.43093 162.36185 236.84342 162.83658 C 237.2559 163.3113 237.70453 164.39445 237.8768 165.239 C 238.2189 167.06833 239.43 167.32324 239.7398 165.64555 C 239.8996 164.52627 238.68988 161.51298 237.76653 160.84232 C 236.98258 160.22085 236.13802 160.39312 236.12334 161.23442 Z" fill="black"/>
        </g>
        <g id="Graphic_600">
          <path d="M 232.04917 164.29573 C 231.90243 164.6672 231.98367 165.3699 232.2543 165.93566 C 232.52576 166.45468 232.74477 167.30005 232.73498 167.86091 C 232.7048 169.59024 233.8904 168.62913 234.06324 166.76203 C 234.29098 164.42837 232.78125 162.5319 232.04917 164.29573 Z" fill="black"/>
        </g>
        <g id="Graphic_599">
          <path d="M 225.28782 165.95432 C 225.27477 166.70214 226.69756 168.22306 227.39863 168.2353 C 227.67907 168.24019 228.32443 168.76573 228.87387 169.42986 C 230.0646 170.85323 230.81078 170.95976 230.832 169.74456 C 230.84994 168.71631 228.32746 165.91387 227.3927 165.89755 C 227.06552 165.89184 226.46037 165.74102 226.04217 165.59346 C 225.57804 165.39835 225.29517 165.53367 225.28782 165.95432 Z" fill="black"/>
        </g>
        <g id="Graphic_598">
          <path d="M 221.33568 167.38142 C 221.46937 167.75778 222.02208 168.23495 222.48701 168.38333 C 222.99787 168.57925 224.15165 169.44094 224.97744 170.34366 C 226.99804 172.43605 227.1111 171.31596 225.14132 168.99069 C 223.5373 167.13933 220.84603 165.9703 221.33568 167.38142 Z" fill="black"/>
        </g>
        <g id="Graphic_597">
          <path d="M 218.19628 170.45906 C 218.1922 170.69275 218.8843 171.2191 219.71907 171.6077 C 220.60058 171.99711 221.52474 172.62103 221.89212 173.00146 C 222.48586 173.80662 223.74372 174.06234 223.75514 173.408 C 223.7633 172.94062 222.10682 171.41562 220.6726 170.54903 C 219.37617 169.82511 218.20852 169.75798 218.19628 170.45906 Z" fill="black"/>
        </g>
        <g id="Graphic_596">
          <path d="M 214.42539 172.2166 C 215.34955 172.8405 215.95715 172.85111 215.59385 172.23699 C 215.45853 171.9541 214.94767 171.75818 214.52702 171.75084 C 213.82594 171.7386 213.8243 171.83208 214.42539 172.2166 Z" fill="black"/>
        </g>
        <g id="Graphic_595">
          <path d="M 209.95178 174.05537 C 209.5197 174.70236 209.61156 174.79747 212.03625 175.16706 L 214.13377 175.53095 L 212.98162 174.57578 C 211.73845 173.47877 210.43303 173.26897 209.95178 174.05537 Z" fill="black"/>
        </g>
        <g id="Graphic_594">
          <path d="M 205.93985 176.22947 C 205.9317 176.69686 207.04444 177.23056 208.11943 177.24932 C 208.72703 177.25993 208.72947 177.11971 208.27188 176.5507 C 207.67733 175.79227 205.95209 175.5284 205.93985 176.22947 Z" fill="black"/>
        </g>
        <g id="Graphic_593">
          <path d="M 209.65364 177.74363 C 210.5778 178.36755 211.1854 178.37815 210.8221 177.76403 C 210.68678 177.48115 210.17592 177.28522 209.75527 177.27788 C 209.0542 177.26564 209.05256 177.35912 209.65364 177.74363 Z" fill="black"/>
        </g>
        <g id="Graphic_592">
          <path d="M 203.30723 179.73673 C 204.22894 180.50086 205.0235 180.51473 204.98981 179.7661 C 204.9947 179.48566 204.39119 179.24137 203.69174 179.13565 C 202.43143 179.02015 202.43143 179.02015 203.30723 179.73673 Z" fill="black"/>
        </g>
        <g id="Graphic_591">
          <path d="M 201.40098 181.80733 C 201.01646 182.4084 202.31617 182.94537 203.35094 182.5894 C 204.05691 182.32121 204.05854 182.22773 203.5042 181.84404 C 202.58004 181.22012 201.78467 181.253 201.40098 181.80733 Z" fill="black"/>
        </g>
        <g id="Graphic_590">
          <path d="M 205.11558 183.27475 C 205.25172 183.51089 205.48133 183.74866 205.62155 183.7511 C 205.71502 183.75274 205.81258 183.52068 205.81666 183.28698 C 205.82155 183.00655 205.59112 182.81552 205.3107 182.81062 C 205.077 182.80654 204.98026 182.99187 205.11558 183.27475 Z" fill="black"/>
        </g>
        <g id="Graphic_589">
          <path d="M 166.6145 200.69602 C 166.93923 200.84194 167.3607 200.80255 167.50335 200.66478 C 167.69275 200.52783 167.41477 200.38272 166.89983 200.42048 C 166.3857 200.4115 166.24305 200.54927 166.6145 200.69602 Z" fill="black"/>
        </g>
        <g id="Graphic_588">
          <path d="M 171.41878 201.3409 C 171.0408 201.56807 171.97148 201.81808 173.9788 201.99338 C 177.38662 202.28663 178.0426 202.20457 176.97985 201.48473 C 176.1016 200.90837 172.3166 200.79555 171.41878 201.3409 Z" fill="black"/>
        </g>
        <g id="Graphic_587">
          <path d="M 167.96037 203.94545 C 167.1052 204.72532 167.75465 205.01717 170.83694 205.21123 C 173.77902 205.40284 174.7646 205.18628 173.7937 204.56155 C 173.05405 204.0811 168.29325 203.624 167.96037 203.94545 Z" fill="black"/>
        </g>
        <g id="Graphic_586">
          <path d="M 166.0772 207.37228 L 164.93997 208.24073 L 166.10762 208.30786 C 167.74347 208.33642 171.3619 207.27751 170.99534 206.85034 C 170.3065 206.13702 167.1685 206.45627 166.0772 207.37228 Z" fill="black"/>
        </g>
        <g id="Graphic_585">
          <path d="M 164.67691 209.91924 C 163.03046 210.49828 162.93453 210.63687 163.4701 212.09555 C 163.6932 212.70723 163.45297 213.07706 162.51086 213.4814 C 161.47445 213.93083 161.28179 214.25473 161.49672 215.3338 C 161.66654 216.31857 161.51817 216.7835 160.80975 217.19192 C 159.81763 217.78238 159.51273 219.17964 160.29912 219.6609 C 160.53037 219.8052 161.2347 219.63048 161.80128 219.3131 C 162.4154 218.9498 163.92165 218.3683 165.14256 218.06234 C 166.69227 217.66862 167.35395 217.2594 167.2227 216.74282 C 167.18331 216.32136 166.72 216.0795 166.20425 216.164 C 162.64152 216.7096 162.22087 216.70227 162.22903 216.23488 C 162.24861 215.11316 164.50756 214.26429 166.65182 214.62898 C 168.60913 214.99042 168.79771 214.9002 168.8124 214.0589 C 168.82627 213.26436 168.50236 213.0717 167.10265 212.907 C 166.16952 212.7972 165.33312 212.5021 165.24454 212.22003 C 165.0239 211.46813 167.79697 210.62824 169.14667 210.97906 C 170.49556 211.37663 172.05588 210.3753 171.13172 209.7514 C 170.2543 209.1283 166.55869 209.2508 164.67691 209.91924 Z" fill="black"/>
        </g>
        <g id="Graphic_584">
          <path d="M 161.44393 221.0367 C 159.00373 221.55515 158.23879 222.5236 159.29093 223.85105 C 160.06835 224.84642 160.8178 224.766 162.99306 223.35463 C 166.20717 221.35362 165.43138 220.26476 161.44393 221.0367 Z" fill="black"/>
        </g>
        <g id="Graphic_583">
          <path d="M 160.19062 225.87712 C 160.18654 226.1108 159.66507 226.52248 159.00584 226.7915 C 157.82759 227.33196 157.38002 228.86699 158.25826 229.44335 C 159.04466 229.9246 163.4362 227.42986 163.45334 226.44835 C 163.46558 225.74727 163.14167 225.5546 161.833 225.53176 C 160.94496 225.51626 160.19388 225.69016 160.19062 225.87712 Z" fill="black"/>
        </g>
        <g id="Graphic_582">
          <path d="M 157.55742 232.09602 C 156.50307 233.5737 156.54736 233.71474 158.50385 234.1229 C 159.94785 234.42863 160.37094 234.29576 161.0867 233.4667 C 161.7549 232.68357 161.85573 232.26455 161.44324 231.78983 C 160.6199 230.7469 158.37237 230.94143 157.55742 232.09602 Z" fill="black"/>
        </g>
        <g id="Graphic_581">
          <path d="M 157.20112 236.4378 C 157.19377 236.85845 156.85274 237.6473 156.42148 238.24755 C 155.55653 239.5883 156.1076 240.15894 157.891 239.7693 C 158.54861 239.59376 159.01436 239.6954 159.00947 239.97583 C 159.00539 240.20952 158.67414 240.4375 158.2535 240.43016 C 157.73937 240.42118 157.59508 240.65243 157.77306 241.16982 C 157.90593 241.5929 157.61081 242.4293 157.08527 243.07467 C 155.93825 244.504 156.2089 245.06974 158.0317 245.10156 C 159.71428 245.13093 159.70939 245.41136 158.1458 246.59964 C 157.38738 247.1942 157.00124 247.88874 157.0833 248.5447 C 157.24659 249.9034 158.64548 250.11482 158.99631 248.7651 C 159.24469 247.9279 159.43327 247.83768 159.84658 248.26567 C 160.3058 248.74122 160.25335 249.06757 159.63433 249.7113 C 158.63406 250.76916 158.29652 254.03596 159.13292 254.33107 C 159.4109 254.47618 159.6946 254.29412 159.70112 253.92022 C 159.70683 253.59305 160.14624 252.5254 160.6775 251.55287 C 161.69083 249.7472 162.0145 247.27495 161.27484 246.79452 C 160.99685 246.6494 160.87296 245.7122 160.8909 244.68394 C 160.90885 243.6557 160.69555 242.48315 160.37491 242.10353 C 159.96242 241.6288 159.96977 241.20816 160.30428 240.79322 C 160.87738 240.10194 160.83122 237.38947 160.2334 236.818 C 159.95706 236.57942 159.21495 236.2392 158.51714 236.04 C 157.5397 235.78918 157.2109 235.87694 157.20112 236.4378 Z" fill="black"/>
        </g>
        <g id="Graphic_580">
          <path d="M 162.03479 254.14796 C 162.02336 254.8023 161.6709 256.24548 161.27823 257.31394 C 160.73719 258.84734 160.67984 259.45412 161.04478 259.97477 C 161.7771 260.87586 161.92139 260.6446 162.68202 257.24494 C 163.2402 254.73003 163.24917 254.2159 162.69891 253.59852 C 162.14784 253.02787 162.05355 253.07297 162.03479 254.14796 Z" fill="black"/>
        </g>
        <g id="Graphic_579">
          <path d="M 163.79256 260.58377 C 163.7689 261.93918 163.94606 262.5033 164.41345 262.51147 C 165.4417 262.5294 165.95116 265.48373 165.4332 268.37336 C 165.32993 268.9326 165.60302 269.35813 166.1155 269.46058 C 166.7674 269.61222 166.9125 269.33424 166.93535 268.02556 C 166.95167 267.0908 167.19923 266.3003 167.4813 266.21173 C 168.04542 266.03457 166.69548 263.01883 165.77131 262.3949 C 165.49414 262.20306 165.1341 261.40198 164.9602 260.6509 C 164.53035 258.49277 163.82927 258.48053 163.79256 260.58377 Z" fill="black"/>
        </g>
        <g id="Graphic_578">
          <path d="M 162.84415 264.0269 C 162.41453 264.5337 162.45638 264.81494 163.00908 265.29212 C 163.56179 265.7693 163.74956 265.72582 163.99467 265.07556 C 164.43408 264.0079 163.55992 263.19786 162.84415 264.0269 Z" fill="black"/>
        </g>
        <g id="Graphic_577">
          <path d="M 168.30324 270.01305 C 168.52796 270.53125 168.74534 271.4701 168.73392 272.12444 C 168.71107 273.43312 169.3597 273.7717 169.79911 272.70407 C 170.14097 271.86848 169.70703 269.94405 169.06003 269.51198 C 168.13668 268.84132 167.80462 269.11604 168.30324 270.01305 Z" fill="black"/>
        </g>
        <g id="Graphic_576">
          <path d="M 171.61294 273.25 C 171.6901 274.1864 172.05666 274.61358 172.8947 274.81522 C 173.63925 275.01523 174.09847 275.49077 174.18053 276.14674 C 174.34546 277.41194 175.18512 277.5201 175.20633 276.3049 C 175.2153 275.79078 175.36775 275.09215 175.51531 274.67395 C 175.71043 274.20983 175.5751 273.92695 175.2012 273.92042 C 174.82729 273.9139 174.04008 273.47938 173.39471 272.95384 C 171.82681 271.7109 171.4521 271.7511 171.61294 273.25 Z" fill="black"/>
        </g>
        <g id="Graphic_575">
          <path d="M 179.18236 276.1873 C 179.36116 276.65794 179.62446 277.64435 179.79917 278.3487 C 180.14127 280.178 180.93664 280.14515 181.1554 278.3256 C 181.37173 276.6463 180.69186 275.41885 179.57014 275.39927 C 179.05602 275.3903 178.95846 275.62235 179.18236 276.1873 Z" fill="black"/>
        </g>
        <g id="Graphic_574">
          <path d="M 177.13671 278.2087 C 177.17366 278.7704 177.53778 279.33777 177.8625 279.4837 C 178.2807 279.63126 178.47255 279.3541 178.34539 278.60383 C 178.30844 278.04215 177.94432 277.47476 177.6196 277.32884 C 177.2014 277.18128 177.00955 277.45845 177.13671 278.2087 Z" fill="black"/>
        </g>
        <g id="Graphic_573">
          <path d="M 182.7339 278.96095 C 182.72086 279.70876 182.80944 279.99082 182.95781 279.5259 C 183.05863 279.10687 183.07005 278.45253 182.98229 278.12373 C 182.84697 277.84085 182.74778 278.1664 182.7339 278.96095 Z" fill="black"/>
        </g>
        <g id="Graphic_572">
          <path d="M 185.40314 281.39193 C 185.4458 281.62644 185.71399 282.3324 186.07648 282.99327 C 186.6645 284.1256 186.71123 284.12642 186.7743 283.19246 C 186.78408 282.6316 186.46915 281.9248 186.10095 281.59112 C 185.73275 281.25742 185.40721 281.15823 185.40314 281.39193 Z" fill="black"/>
        </g>
        <g id="Graphic_571">
          <path d="M 183.59933 282.95003 C 183.58791 283.60437 183.67731 283.8397 183.82324 283.51498 C 183.9216 283.23618 183.9314 282.6753 183.84363 282.3465 C 183.70831 282.06364 183.61076 282.2957 183.59933 282.95003 Z" fill="black"/>
        </g>
        <g id="Graphic_570">
          <path d="M 192.33967 285.7675 C 192.33151 286.2349 192.55297 286.94005 192.78013 287.31803 C 193.3255 288.21585 194.3225 287.34495 194.11002 286.12567 C 193.94346 284.95395 192.35925 284.64578 192.33967 285.7675 Z" fill="black"/>
        </g>
        <g id="Graphic_569">
          <path d="M 195.035 286.70285 C 194.70212 287.0243 195.13198 289.18244 195.59365 289.51777 C 195.8249 289.66206 196.02083 289.1512 196.0347 288.35665 C 196.05754 287.04797 195.5581 286.1977 195.035 286.70285 Z" fill="black"/>
        </g>
        <g id="Graphic_568">
          <path d="M 196.99639 286.8306 C 196.9923 287.0643 197.48604 288.24172 198.0708 289.561 L 199.19928 291.8716 L 199.23762 289.67488 C 199.31455 287.94637 199.1382 287.3355 198.44365 286.94936 C 197.33172 286.36892 197.00536 286.31647 196.99639 286.8306 Z" fill="black"/>
        </g>
        <g id="Graphic_567">
          <path d="M 201.60416 290.698 C 201.07208 291.71727 201.58318 294.5781 202.45326 295.62185 C 203.18803 296.38272 203.83234 294.2901 203.4435 292.45995 C 202.971 290.0673 202.32726 289.4483 201.60416 290.698 Z" fill="black"/>
        </g>
        <g id="Graphic_566">
          <path d="M 204.91467 293.8882 C 204.62526 294.39744 204.61058 295.23874 204.9198 296.2727 C 205.31679 297.63545 205.54722 297.8265 206.4385 297.65503 C 207.33062 297.43684 207.60616 297.72217 208.2303 299.4629 C 208.6773 300.63953 208.84467 301.76452 208.69956 302.0425 C 208.50853 302.27293 208.5963 302.60173 208.87346 302.7936 C 209.1047 302.93788 209.34167 302.755 209.3482 302.3811 C 209.35553 301.96045 209.68841 301.639 210.06232 301.6455 C 210.85688 301.6594 211.25305 303.06888 211.2984 305.8281 C 211.35353 308.02643 211.81602 308.315 212.31522 306.50037 C 212.61768 305.24333 212.66441 305.24414 213.25733 306.09604 C 213.7141 306.7118 213.82903 308.16314 213.73906 310.63947 C 213.50747 315.87173 214.4947 315.5617 215.00834 310.24085 C 215.29832 307.01997 215.2277 305.70966 214.68967 304.3912 C 214.33208 303.4499 213.78509 302.64555 213.5514 302.64147 C 213.3177 302.6374 212.76826 301.97326 212.36148 301.17137 C 211.8202 300.03985 211.54385 299.80127 211.2077 300.30968 C 210.58216 301.32732 209.16998 299.1988 209.38548 297.5662 C 209.43793 297.23986 209.17055 296.48715 208.76051 295.8722 C 208.3972 295.25808 208.17494 294.59966 208.3176 294.4619 C 208.46108 294.2774 208.32005 294.32168 207.98799 294.5964 C 207.60837 294.91704 207.0967 294.76785 206.40785 294.05454 C 205.48858 293.1502 205.34837 293.14774 204.91467 293.8882 Z" fill="black"/>
        </g>
        <g id="Graphic_565">
          <path d="M 211.07867 296.98798 C 211.2148 297.22412 211.58464 297.46434 211.81833 297.46842 C 212.09876 297.4733 212.14958 297.24044 212.01344 297.0043 C 211.87812 296.72142 211.50748 296.52794 211.27379 296.52386 C 210.99336 296.51897 210.94335 296.7051 211.07867 296.98798 Z" fill="black"/>
        </g>
        <g id="Graphic_564">
          <path d="M 215.5629 313.28945 C 215.37864 315.8109 215.14518 318.4717 215.03784 319.26464 C 214.76907 321.2703 216.2155 321.43582 216.95085 319.48504 C 217.93294 316.79053 217.54935 309.3034 216.38741 308.9091 C 216.01595 308.76235 215.75942 310.06695 215.5629 313.28945 Z" fill="black"/>
        </g>
        <g id="Graphic_563">
          <path d="M 218.44543 316.89298 C 218.39567 319.74403 217.38095 324.3081 216.61763 325.18306 C 215.4255 326.5181 215.96598 327.69633 217.2024 326.50234 C 217.63038 326.08904 217.66814 326.60398 217.44774 328.517 C 217.23142 330.1963 217.30694 331.2262 217.6776 331.41968 C 217.95476 331.61152 218.17376 332.4569 218.20663 333.25227 L 218.22727 334.7487 L 218.8675 332.8898 C 219.41018 331.2629 219.4159 330.93574 218.72378 330.40938 C 218.0325 329.83628 218.03413 329.7428 218.78929 329.3352 C 219.4977 328.9268 219.60342 328.22735 219.466 322.70813 C 219.38533 319.29377 219.34652 316.16066 219.35468 315.69328 C 219.36202 315.27263 219.1816 314.89546 218.90116 314.89056 C 218.66747 314.8865 218.465 315.77125 218.44543 316.89298 Z" fill="black"/>
        </g>
        <g id="Graphic_562">
          <path d="M 214.07722 342.1567 C 213.63537 343.36457 213.72395 343.64663 214.30113 342.72165 C 214.58971 342.25916 214.7389 341.7475 214.60032 341.65156 C 214.5093 341.5097 214.27152 341.73933 214.07722 342.1567 Z" fill="black"/>
        </g>
        <g id="Graphic_561">
          <path d="M 176.60443 295.31092 C 176.12888 295.77015 176.19544 297.31415 176.66282 297.3223 C 176.94326 297.3272 177.6821 297.85438 178.32583 298.4734 C 179.6133 299.71144 180.87605 299.68673 181.92633 298.44274 C 182.45106 297.8441 182.40595 297.74982 181.41955 298.01312 C 180.52744 298.2313 179.97147 297.9411 178.82585 296.61202 C 177.31285 294.9025 177.12753 294.80577 176.60443 295.31092 Z" fill="black"/>
        </g>
        <g id="Graphic_560">
          <path d="M 174.7723 301.1698 C 174.7568 302.0578 176.46084 303.5369 177.02823 303.17278 C 177.92524 302.67415 177.61765 301.54672 176.36387 301.0573 C 174.8321 300.4228 174.78536 300.42197 174.7723 301.1698 Z" fill="black"/>
        </g>
        <g id="Graphic_559">
          <path d="M 170.93533 306.71314 C 170.91983 307.60117 171.88665 308.4596 172.86816 308.47673 C 174.1301 308.49875 173.92007 307.13926 172.52689 306.60066 C 171.04186 305.96695 170.94838 305.96532 170.93533 306.71314 Z" fill="black"/>
        </g>
        <g id="Graphic_558">
          <path d="M 168.58256 312.93694 C 167.68882 313.2486 168.37685 314.00866 169.68552 314.0315 C 170.3866 314.04374 170.81214 313.77065 170.81948 313.35 C 170.83172 312.64893 169.80674 312.44402 168.58256 312.93694 Z" fill="black"/>
        </g>
        <g id="Graphic_557">
          <path d="M 167.14556 317.58713 C 166.0165 317.9882 166.51838 318.69825 167.8295 318.58087 C 168.53222 318.49963 169.05124 318.22818 169.00858 317.99367 C 168.9249 317.43117 167.94665 317.2271 167.14556 317.58713 Z" fill="black"/>
        </g>
        <g id="Graphic_556">
          <path d="M 166.18085 321.96505 C 165.84389 322.5202 166.71805 323.33025 167.7463 323.3482 C 168.02673 323.3531 168.3145 322.93734 168.32347 322.42322 C 168.34142 321.39497 166.7572 321.0868 166.18085 321.96505 Z" fill="black"/>
        </g>
        <g id="Graphic_555">
          <path d="M 166.72726 325.48104 C 166.06068 326.1707 166.4191 327.06525 167.35386 327.08157 C 168.0082 327.093 168.24597 326.86338 168.16228 326.3009 C 168.03675 325.45714 167.24954 325.02263 166.72726 325.48104 Z" fill="black"/>
        </g>
        <g id="Graphic_554">
          <path d="M 166.5965 330.2943 C 166.40464 330.57146 165.98236 330.6576 165.61172 330.4641 C 164.7294 330.12144 164.71798 330.77578 165.49214 331.9581 C 166.4057 333.18963 168.75323 332.6228 168.54482 331.16985 C 168.42337 330.0924 167.07775 329.5079 166.5965 330.2943 Z" fill="black"/>
        </g>
        <g id="Graphic_553">
          <path d="M 163.9 334.78224 C 163.89347 335.15614 164.39373 335.95967 165.03746 336.5787 C 165.6812 337.1977 166.18063 338.048 166.1733 338.46863 C 166.14882 339.8708 167.06237 341.1023 168.1841 341.1219 C 169.11887 341.1382 169.255 341.37434 169.1789 343.0561 C 169.09545 345.15852 169.96798 346.06206 170.418 344.3868 C 170.9172 342.57217 171.8283 343.9439 171.46606 345.94795 C 171.15626 347.62564 171.19973 347.8134 171.95326 347.4993 C 173.83585 346.7841 174.20568 347.02433 174.31081 349.03653 C 174.45698 351.3767 174.96784 351.57265 175.98116 349.76698 L 176.70427 348.51728 L 177.28576 350.0235 C 177.95502 351.85855 179.49168 352.21264 179.52105 350.53006 C 179.5439 349.2214 178.26867 347.28226 177.5635 347.5037 C 177.2347 347.5915 176.36952 346.2673 175.55841 344.5233 C 174.7473 342.7793 173.79272 341.2198 173.37452 341.07222 C 173.00387 340.87874 172.68813 340.2187 172.69955 339.56435 C 172.71097 338.91 172.533 338.39263 172.34604 338.38936 C 172.11234 338.3853 171.96397 338.85022 171.955 339.36435 C 171.99113 339.97276 171.60743 340.5271 170.94901 340.74937 C 169.96098 341.10614 169.86995 340.9643 169.89442 339.56214 C 169.9091 338.72085 169.59907 337.73363 169.23087 337.39993 C 168.86268 337.06624 168.54693 336.4062 168.5559 335.89207 C 168.57222 334.9573 168.24831 334.76463 165.68422 334.34585 C 164.33207 334.13524 163.90897 334.2681 163.9 334.78224 Z" fill="black"/>
        </g>
        <g id="Graphic_552">
          <path d="M 167.5787 338.30615 C 167.57463 338.53984 167.3836 338.77027 167.10317 338.76538 C 166.86947 338.7613 166.63986 338.52353 166.64394 338.28983 C 166.64883 338.0094 166.88579 337.82653 167.11948 337.8306 C 167.39991 337.8355 167.5836 338.0257 167.5787 338.30615 Z" fill="#FFFFFF"/>
        </g>
        <g id="Graphic_551">
          <path d="M 180.1311 350.40045 C 180.2656 350.73007 180.1156 351.2885 179.83027 351.564 C 179.44984 351.9314 179.44494 352.21183 179.85825 352.6398 C 180.31747 353.11536 180.50443 353.11862 180.83976 352.65695 C 181.321 351.87055 180.98381 349.7608 180.37621 349.7502 C 180.09578 349.7453 179.9974 350.0241 180.1311 350.40045 Z" fill="black"/>
        </g>
        <g id="Graphic_550">
          <path d="M 182.49926 351.3301 C 182.15578 352.25915 182.6093 353.06186 183.49732 353.07736 C 184.33862 353.09204 184.3582 351.9703 183.48322 351.207 C 182.93051 350.72983 182.74274 350.7733 182.49926 351.3301 Z" fill="black"/>
        </g>
        <g id="Graphic_549">
          <path d="M 186.52938 350.79265 C 186.17202 352.51626 186.15244 353.638 186.47635 353.83065 C 186.93884 354.11924 188.34915 353.67633 188.35731 353.20894 C 188.3171 352.8342 186.58183 350.4663 186.52938 350.79265 Z" fill="black"/>
        </g>
        <g id="Graphic_548">
          <path d="M 189.43148 353.27445 C 189.51925 353.60325 189.88826 353.8902 190.21543 353.8959 C 190.5426 353.90163 190.9214 353.62772 191.06733 353.303 C 191.16652 352.97746 190.84343 352.73806 190.23583 352.72745 C 189.62822 352.71685 189.29698 352.94483 189.43148 353.27445 Z" fill="black"/>
        </g>
        <g id="Graphic_547">
          <path d="M 201.12776 355.48897 C 202.2348 356.34985 202.93425 356.45556 202.71524 355.6102 C 202.57992 355.3273 202.02477 354.99035 201.37206 354.88545 C 200.2987 354.7732 200.2987 354.7732 201.12776 355.48897 Z" fill="black"/>
        </g>
        <g id="Graphic_546">
          <path d="M 205.60405 356.1749 C 205.59997 356.4086 205.91899 356.8817 206.28718 357.21538 C 206.65538 357.54907 206.98173 357.60152 206.98663 357.3211 C 206.9907 357.0874 206.6717 356.6143 206.3035 356.2806 C 205.9353 355.9469 205.60895 355.89446 205.60405 356.1749 Z" fill="black"/>
        </g>
        <g id="Graphic_545">
          <path d="M 210.2567 357.47168 C 210.24609 358.07928 210.46917 358.69096 210.70123 358.7885 C 210.98003 358.8869 211.2515 359.4059 211.28762 360.0143 C 211.35744 361.37137 212.05852 361.3836 212.083 359.98145 C 212.1042 358.76625 211.1643 356.36545 210.65018 356.35648 C 210.41649 356.3524 210.2673 356.86408 210.2567 357.47168 Z" fill="black"/>
        </g>
        <g id="Graphic_544">
          <path d="M 217.95654 360.97227 C 218.07473 362.23666 218.18802 363.7815 218.22416 364.3899 C 218.2603 364.9983 218.57685 365.61162 218.90158 365.75755 C 219.83145 366.0543 219.46196 360.4375 218.4976 359.43888 C 217.80875 358.72556 217.8063 358.86578 217.95654 360.97227 Z" fill="black"/>
        </g>
        <g id="Graphic_543">
          <path d="M 221.3456 362.3405 C 221.2505 362.43235 221.13255 363.83288 221.10563 365.37525 C 221.11647 367.43256 221.33221 368.4649 221.88329 369.03553 C 222.61805 369.7964 222.6656 369.7505 222.6917 368.25485 C 222.6768 366.43123 221.6785 362.01905 221.3456 362.3405 Z" fill="black"/>
        </g>
        <g id="Graphic_542">
          <path d="M 224.0026 365.47257 C 223.85586 365.84403 223.5985 367.19536 223.48218 368.5024 C 223.2626 370.3687 223.39058 371.0722 224.07615 371.9725 C 224.53293 372.58824 224.9397 373.39014 224.93318 373.76404 C 224.92666 374.13795 225.1916 375.0309 225.55407 375.69174 C 225.91574 376.39935 226.535 378.42052 226.9722 380.158 C 227.36266 381.89467 227.8966 383.44683 228.12785 383.59113 C 228.31235 383.7346 228.48625 384.4857 228.4732 385.2335 C 228.45933 386.02806 228.6373 386.54544 228.87345 386.4093 C 229.5827 385.95416 229.07438 377.57655 228.29533 376.67465 C 227.88284 376.1999 227.48585 374.83716 227.36766 373.57277 C 227.17884 370.99808 224.44282 364.3582 224.0026 365.47257 Z" fill="black"/>
        </g>
        <g id="Graphic_541">
          <path d="M 227.94545 388.684 C 227.93892 389.0579 228.1669 389.38915 228.4006 389.39323 C 228.68102 389.39812 228.8737 389.0742 228.88022 388.7003 C 228.88674 388.3264 228.7055 387.99597 228.42507 387.99107 C 228.19138 387.987 227.95197 388.3101 227.94545 388.684 Z" fill="black"/>
        </g>
        <g id="Graphic_540">
          <path d="M 220.54376 400.243 C 219.6435 400.92856 219.6435 400.92856 220.76522 400.94814 C 221.37363 400.912 222.40677 400.6495 223.06764 400.28703 L 224.24752 399.6531 L 222.84537 399.6286 C 222.09755 399.61556 221.01767 399.87723 220.54376 400.243 Z" fill="black"/>
        </g>
        <g id="Graphic_539">
          <path d="M 171.84628 361.6635 C 171.82751 362.7385 173.20601 364.1184 174.281 364.13714 C 175.4962 364.15836 175.2723 363.5934 173.47478 362.1127 C 172.04629 360.91895 171.86015 360.86895 171.84628 361.6635 Z" fill="black"/>
        </g>
        <g id="Graphic_538">
          <path d="M 170.38946 364.7705 C 170.37478 365.6118 171.48671 366.19224 172.24269 365.7379 C 172.62067 365.51075 172.62557 365.2303 172.21308 364.7556 C 171.5275 363.8553 170.40496 363.88248 170.38946 364.7705 Z" fill="black"/>
        </g>
        <g id="Graphic_537">
          <path d="M 165.67482 367.02585 C 165.66095 367.8204 168.8753 368.4843 169.54106 367.8414 C 170.20683 367.19846 169.97558 367.05417 167.6911 366.68702 C 166.24547 366.4748 165.68298 366.55847 165.67482 367.02585 Z" fill="black"/>
        </g>
        <g id="Graphic_536">
          <path d="M 163.75225 370.0312 C 163.18568 370.3486 163.1816 370.5823 163.64083 371.05784 C 164.28375 371.7236 166.58454 371.15597 166.92884 370.18017 C 167.12722 369.5291 164.83866 369.39565 163.75225 370.0312 Z" fill="black"/>
        </g>
        <g id="Graphic_535">
          <path d="M 160.89573 372.97353 C 160.87778 374.0018 161.66744 374.2961 163.21552 373.99583 C 165.37365 373.56598 165.02014 372.391 162.7767 372.35183 C 161.46802 372.329 160.90389 372.50615 160.89573 372.97353 Z" fill="black"/>
        </g>
        <g id="Graphic_534">
          <path d="M 158.7305 376.48895 C 158.25006 377.2286 159.3522 378.3699 160.61414 378.39194 C 161.96956 378.4156 162.49674 377.67675 161.76442 376.77567 C 161.12395 375.9697 159.16338 375.7952 158.7305 376.48895 Z" fill="black"/>
        </g>
        <g id="Graphic_533">
          <path d="M 157.57311 381.19077 C 157.6519 382.0337 158.0201 382.3674 158.99998 382.478 C 160.44561 382.69025 160.84073 381.48157 159.49347 380.99053 C 159.02853 380.84216 158.37909 380.5503 158.05437 380.40438 C 157.59025 380.20926 157.44595 380.4405 157.57311 381.19077 Z" fill="black"/>
        </g>
        <g id="Graphic_532">
          <path d="M 156.48531 384.58473 C 156.45839 386.1271 157.05538 386.7453 158.59775 386.77223 C 159.48579 386.78773 160.19094 386.5663 160.19502 386.3326 C 160.19992 386.05216 159.78253 385.85786 159.26841 385.8489 C 158.75429 385.8399 158.10729 385.40784 157.7891 384.888 C 157.10678 383.8008 156.50163 383.64996 156.48531 384.58473 Z" fill="black"/>
        </g>
        <g id="Graphic_531">
          <path d="M 155.81 388.45342 C 155.3763 389.1939 155.74555 392.14577 156.33602 393.1379 C 157.01751 394.27184 158.36803 394.57593 158.89603 393.79035 C 159.04114 393.51237 158.8599 393.18193 158.48843 393.0352 C 157.5602 392.64497 157.5265 391.89634 158.46128 391.91265 C 158.88192 391.92 159.1697 391.50424 159.18275 390.75643 C 159.19499 390.05535 158.92271 389.58307 158.5488 389.57654 C 158.22164 389.57083 157.66648 389.23387 157.34584 388.85425 C 156.70456 388.095 156.14614 387.945 155.81 388.45342 Z" fill="black"/>
        </g>
        <g id="Graphic_530">
          <path d="M 156.0001 396.3112 C 156.46528 399.1245 157.23781 400.4003 158.67773 400.9397 C 160.67606 401.62913 161.44101 400.66067 160.7791 398.405 C 160.38129 397.08897 159.9688 396.61424 158.89708 396.4085 C 158.15253 396.2085 157.13244 395.7232 156.62647 395.2468 C 155.75231 394.43677 155.70476 394.4827 156.0001 396.3112 Z" fill="black"/>
        </g>
        <g id="Graphic_529">
          <path d="M 158.58565 398.1797 C 158.5832 398.3199 158.39217 398.55033 158.10929 398.68566 C 157.87315 398.8218 157.64109 398.72424 157.64517 398.49054 C 157.65006 398.2101 157.88783 397.9805 158.12153 397.9846 C 158.40196 397.98947 158.58728 398.0862 158.58565 398.1797 Z" fill="#FFFFFF"/>
        </g>
        <g id="Graphic_528">
          <path d="M 162.7138 402.74 C 162.70971 402.9737 162.93933 403.21147 163.21976 403.21637 C 163.45345 403.22045 163.551 402.9884 163.41487 402.75225 C 163.27955 402.46937 163.04912 402.27834 162.9089 402.2759 C 162.81543 402.27426 162.71869 402.4596 162.7138 402.74 Z" fill="black"/>
        </g>
      </g>
    </g>
  </g>
</svg>
