<?xml version="1.0" encoding="UTF-8" standalone="no"?>
<!DOCTYPE svg PUBLIC "-//W3C//DTD SVG 1.1//EN" "http://www.w3.org/Graphics/SVG/1.1/DTD/svg11.dtd">
<svg xmlns:xl="http://www.w3.org/1999/xlink" version="1.1" xmlns="http://www.w3.org/2000/svg" xmlns:dc="http://purl.org/dc/elements/1.1/" viewBox="54 60.75 256.5 297" width="256.5" height="297">
  <defs>
    <clipPath id="artboard_clip_path">
      <path d="M 54 60.75 L 310.5 60.75 L 310.5 346.5 L 295.92614 357.75 L 54 357.75 Z"/>
    </clipPath>
  </defs>
  <g id="Snowflake_(1)" stroke-opacity="1" stroke="none" fill="none" fill-opacity="1" stroke-dasharray="none">
    <title>Snowflake (1)</title>
    <g id="Snowflake_(1)_Art" clip-path="url(#artboard_clip_path)">
      <title>Art</title>
      <g id="Graphic_113">
        <path d="M 215.03394 152.4665 C 212.29914 150.5858 208.61797 150.31685 205.54778 152.08058 C 205.49271 152.11221 205.49271 152.11221 205.2327 152.26162 C 204.87702 152.466 204.87702 152.466 204.3437 152.77253 C 203.38662 153.32266 202.32022 153.93584 201.17182 154.59644 C 197.89044 156.484 194.60896 158.37363 191.5456 160.14047 C 191.50344 160.16478 191.50344 160.16478 191.4613 160.1891 C 191.34958 160.25353 191.2385 160.3176 191.12807 160.3813 C 191.12442 159.29095 191.12133 158.12483 191.1188 156.8849 C 191.10687 151.04836 191.10735 143.68062 191.1186 135.05086 C 194.13997 133.29277 198.58994 130.71778 203.95752 127.62185 C 204.01066 127.5912 204.01066 127.5912 204.0638 127.56055 C 207.92695 125.33242 212.06675 122.94853 216.20664 120.56713 C 217.65568 119.73359 219.0012 118.95992 220.20864 118.26589 C 220.8813 117.87927 220.8813 117.87927 221.3296 117.62166 C 221.65708 117.43349 221.65708 117.43349 221.7257 117.39407 C 225.98936 114.94473 227.46016 109.50277 225.01082 105.23911 C 222.56148 100.97546 217.11952 99.50466 212.85587 101.954 C 212.7864 101.9939 212.7864 101.9939 212.45798 102.18261 C 212.0087 102.44078 212.0087 102.44078 211.335 102.828 C 210.12592 103.52298 208.77872 104.29761 207.32792 105.13216 C 203.18256 107.51672 199.0371 109.90386 195.16735 112.1358 C 195.1141 112.16651 195.1141 112.16651 195.06086 112.19722 C 193.68465 112.991 192.38373 113.74176 191.15935 114.44885 C 191.17137 109.69335 191.18527 104.79864 191.20072 99.8166 C 191.22056 93.42038 191.24182 87.24444 191.26308 81.52004 C 191.27052 79.51657 191.27743 77.71269 191.28363 76.1373 C 191.28708 75.2637 191.28708 75.2637 191.28938 74.69083 C 191.29106 74.27555 191.29106 74.27555 191.29142 74.189905 C 191.31167 69.27283 187.34202 65.27033 182.42494 65.25008 C 177.50787 65.22982 173.50537 69.199476 173.48512 74.11655 C 173.48476 74.20296 173.48476 74.20296 173.48308 74.619045 C 173.48077 75.19275 173.48077 75.19275 173.47731 76.06723 C 173.4711 77.64391 173.4642 79.4491 173.45675 81.45392 C 173.43548 87.18177 173.41421 93.36129 173.39436 99.76136 C 173.37884 104.76486 173.36489 109.68048 173.35282 114.45588 L 173.35282 114.45588 C 172.1249 113.74674 170.81992 112.99363 169.43914 112.19722 C 169.3859 112.16651 169.3859 112.16651 169.33265 112.1358 C 165.4629 109.90386 161.31744 107.51672 157.17208 105.13216 C 155.72128 104.29761 154.37408 103.52298 153.165 102.828 C 152.4913 102.44078 152.4913 102.44078 152.04202 102.18261 C 151.7136 101.9939 151.7136 101.9939 151.64413 101.954 C 147.38048 99.50466 141.93852 100.97546 139.48918 105.23911 C 137.03984 109.50277 138.51064 114.94473 142.7743 117.39407 C 142.84292 117.43349 142.84292 117.43349 143.17041 117.62166 C 143.61871 117.87927 143.61871 117.87927 144.29136 118.26589 C 145.49881 118.95992 146.84432 119.73359 148.29336 120.56713 C 152.43325 122.94853 156.57305 125.33242 160.4362 127.56055 C 160.48934 127.5912 160.48934 127.5912 160.54248 127.62185 C 165.86923 130.69422 170.29227 133.25356 173.3122 135.01058 C 173.30089 143.66625 173.3004 151.0587 173.31238 156.92129 C 173.31486 158.1349 173.31787 159.27901 173.32143 160.35218 C 173.22765 160.29807 173.1334 160.24371 173.0387 160.1891 C 172.99656 160.16478 172.99656 160.16478 172.9544 160.14047 C 169.89104 158.37363 166.60956 156.484 163.32818 154.59644 C 162.17978 153.93584 161.11338 153.32266 160.15629 152.77253 C 159.62298 152.466 159.62298 152.466 159.2673 152.26162 C 159.00729 152.11221 159.00729 152.11221 158.95222 152.08058 C 155.88203 150.31685 152.20086 150.5858 149.46606 152.4665 C 146.4699 153.89455 144.39638 156.94808 144.38872 160.48882 C 144.38858 160.55233 144.38858 160.55233 144.38796 160.85221 C 144.38713 161.26243 144.38713 161.26243 144.38593 161.87755 C 144.38382 162.98148 144.38164 164.2116 144.37954 165.53644 C 144.37352 169.32198 144.36925 173.10864 144.3677 176.64501 C 144.36767 176.69367 144.36767 176.69367 144.36765 176.74233 C 144.3676 176.8713 144.36755 176.99952 144.3675 177.127 C 143.4214 176.585 142.40997 176.00462 141.33489 175.38685 C 136.27434 172.4789 129.89392 168.79462 122.42596 164.47 C 122.4141 160.97437 122.40907 155.83308 122.4117 149.63666 C 122.41173 149.57532 122.41173 149.57532 122.41176 149.51397 C 122.41372 145.05432 122.41911 140.2772 122.4267 135.50125 C 122.42936 133.82958 122.4321 132.2775 122.43477 130.8848 C 122.43627 130.10896 122.43627 130.10896 122.43732 129.59191 C 122.4381 129.21421 122.4381 129.21421 122.43828 129.13507 C 122.44892 124.21797 118.47144 120.22324 113.55434 120.2126 C 108.63724 120.20196 104.64251 124.17944 104.63187 129.09654 C 104.6317 129.17666 104.6317 129.17666 104.63091 129.55543 C 104.62986 130.0736 104.62986 130.0736 104.62835 130.85065 C 104.62567 132.24524 104.62293 133.79926 104.62027 135.47296 C 104.61267 140.25523 104.60727 145.03888 104.60531 149.50615 C 104.60528 149.56762 104.60528 149.56762 104.60526 149.62908 C 104.60458 151.2178 104.6043 152.71981 104.60447 154.1337 C 100.4921 151.74554 96.2601 149.28615 91.95325 146.78174 C 86.42389 143.56645 81.08599 140.46007 76.13915 137.57947 C 74.40782 136.57129 72.84906 135.66336 71.48784 134.8703 C 70.733 134.43051 70.733 134.43051 70.23803 134.14208 C 69.87923 133.93298 69.87923 133.93298 69.805235 133.88986 C 65.55705 131.41378 60.10596 132.85035 57.62988 137.09853 C 55.1538 141.34672 56.590375 146.7978 60.83856 149.27389 C 60.91321 149.3174 60.91321 149.3174 61.27271 149.5269 C 61.7684 149.81575 61.7684 149.81575 62.524 150.25599 C 63.886335 151.0497 65.44622 151.95828 67.17872 152.96714 C 72.12855 155.84948 77.46954 158.95766 83.00224 162.1749 C 87.32764 164.69008 91.57771 167.15998 95.7073 169.55812 L 95.7073 169.55812 C 94.4792 170.26697 93.17449 171.02056 91.7944 171.81814 C 91.74118 171.8489 91.74118 171.8489 91.68796 171.87965 C 87.82017 174.11499 83.68011 176.51149 79.54235 178.9092 C 78.09421 179.74836 76.74976 180.52774 75.54335 181.22735 C 74.87115 181.61719 74.87115 181.61719 74.42293 181.87718 C 74.0953 182.06725 74.0953 182.06725 74.026 182.10746 C 69.772985 184.57522 68.32575 190.0235 70.79352 194.27651 C 73.26129 198.52953 78.70956 199.97676 82.96258 197.509 C 83.03102 197.46928 83.03102 197.46928 83.35774 197.27975 C 83.80499 197.02031 83.80499 197.02031 84.47613 196.6311 C 85.68091 195.93243 87.02368 195.15401 88.47006 194.31588 C 92.60237 191.92133 96.73677 189.5281 100.59796 187.29658 C 100.65107 187.26588 100.65107 187.26588 100.70419 187.23519 C 106.02831 184.15828 110.45629 181.60748 113.48787 179.87066 C 120.97825 184.20828 127.38006 187.90493 132.4632 190.82585 C 133.51546 191.4305 134.50779 191.99996 135.43896 192.53346 C 135.34521 192.58762 135.25101 192.64206 135.15636 192.69676 C 135.11423 192.7211 135.11423 192.7211 135.0721 192.74546 C 132.01029 194.515 128.73308 196.41202 125.45772 198.31 C 124.31142 198.97424 123.24719 199.59118 122.29222 200.14498 C 121.7601 200.45358 121.7601 200.45358 121.40527 200.6594 C 121.14587 200.80989 121.14587 200.80989 121.09094 200.84176 C 118.02841 202.61876 116.42074 205.9412 116.68208 209.24998 C 116.42072 212.55876 118.0284 215.88123 121.09094 217.65824 C 121.14587 217.6901 121.14587 217.6901 121.40527 217.8406 C 121.7601 218.04642 121.7601 218.04642 122.29222 218.35502 C 123.24719 218.90882 124.31142 219.52576 125.45772 220.19 C 128.73308 222.08798 132.01029 223.985 135.0721 225.75454 C 135.11423 225.7789 135.11423 225.7789 135.15636 225.80324 C 135.26802 225.86777 135.37904 225.93193 135.48942 225.99571 C 134.54698 226.54405 133.53864 227.1298 132.4661 227.75195 C 127.41747 230.68055 121.03657 234.364 113.55736 238.66913 C 110.52413 236.9316 106.06913 234.3653 100.70419 231.2648 C 100.65107 231.23412 100.65107 231.23412 100.59796 231.20342 C 96.73677 228.9719 92.60237 226.57867 88.47006 224.18412 C 87.02368 223.346 85.68091 222.56757 84.47613 221.8689 C 83.80499 221.47969 83.80499 221.47969 83.35774 221.22025 C 83.03102 221.03072 83.03102 221.03072 82.96258 220.991 C 78.70956 218.52324 73.26129 219.97047 70.79352 224.2235 C 68.32575 228.4765 69.772985 233.92478 74.026 236.39254 C 74.0953 236.43275 74.0953 236.43275 74.42293 236.62282 C 74.87115 236.8828 74.87115 236.8828 75.54335 237.27265 C 76.74976 237.97226 78.09421 238.75164 79.54235 239.5908 C 83.68011 241.9885 87.82017 244.385 91.68796 246.62035 C 91.74118 246.6511 91.74118 246.6511 91.7944 246.68186 C 93.16993 247.4768 94.47057 248.22805 95.69512 248.93485 C 91.57072 251.3022 87.32484 253.7375 83.00253 256.21515 C 77.453325 259.39607 72.09417 262.46563 67.12607 265.30942 C 65.3873 266.3047 63.82164 267.20067 62.45421 267.983 C 61.69592 268.4168 61.69592 268.4168 61.19865 268.70125 C 60.838166 268.90743 60.838166 268.90743 60.76382 268.94995 C 56.49538 271.39095 55.01394 276.83 57.454936 281.09846 C 59.89593 285.3669 65.335 286.84833 69.60344 284.40734 C 69.67845 284.36444 69.67845 284.36444 70.039635 284.15786 C 70.53763 283.873 70.53763 283.873 71.29668 283.43875 C 72.66523 282.6558 74.23203 281.75918 75.97197 280.76322 C 80.94307 277.9177 86.30533 274.84637 91.85788 271.66353 C 96.1988 269.17522 100.46283 266.7295 104.60448 264.35224 L 104.60448 264.35224 C 104.6043 265.77023 104.60458 267.27693 104.60526 268.87092 C 104.60528 268.9324 104.60528 268.9324 104.60531 268.99385 C 104.60727 273.46112 104.61267 278.24477 104.62027 283.02704 C 104.62293 284.70074 104.62567 286.25476 104.62835 287.64935 C 104.62986 288.4264 104.62986 288.4264 104.63091 288.94457 C 104.6317 289.32334 104.6317 289.32334 104.63187 289.40346 C 104.64251 294.32056 108.63724 298.29804 113.55434 298.2874 C 118.47144 298.27676 122.44892 294.28203 122.43828 289.36493 C 122.4381 289.2858 122.4381 289.2858 122.43732 288.9081 C 122.43627 288.39104 122.43627 288.39104 122.43477 287.6152 C 122.4321 286.2225 122.42936 284.67042 122.4267 282.99875 C 122.41911 278.2228 122.41372 273.44568 122.41176 268.98603 C 122.41173 268.92468 122.41173 268.92468 122.4117 268.86334 C 122.40909 262.71406 122.41402 257.60392 122.42568 254.11008 C 129.92736 249.79204 136.32966 246.09623 141.40082 243.15456 C 142.4506 242.5456 143.43992 241.97094 144.36753 241.43128 C 144.36756 241.53955 144.3676 241.64834 144.36765 241.75767 C 144.36767 241.80633 144.36767 241.80633 144.3677 241.855 C 144.36925 245.39136 144.37352 249.17802 144.37954 252.96356 C 144.38164 254.2884 144.38382 255.51852 144.38593 256.62245 C 144.38713 257.23757 144.38713 257.23757 144.38796 257.6478 C 144.38858 257.94767 144.38858 257.94767 144.38872 258.01118 C 144.39638 261.55192 146.4699 264.60545 149.46606 266.0335 C 152.20086 267.9142 155.88203 268.18315 158.95222 266.41942 C 159.00729 266.3878 159.00729 266.3878 159.2673 266.23838 C 159.62298 266.034 159.62298 266.034 160.15629 265.72747 C 161.11338 265.17734 162.17978 264.56416 163.32818 263.90356 C 166.60956 262.016 169.89104 260.12637 172.9544 258.35953 C 172.99656 258.33522 172.99656 258.33522 173.0387 258.3109 C 173.15042 258.24647 173.2615 258.1824 173.37193 258.1187 C 173.37558 259.20905 173.37867 260.37517 173.3812 261.6151 C 173.39313 267.45164 173.39265 274.8194 173.3814 283.44914 C 170.36003 285.20723 165.91006 287.78222 160.54248 290.87815 C 160.48934 290.9088 160.48934 290.9088 160.4362 290.93945 C 156.57305 293.16758 152.43325 295.55147 148.29336 297.93287 C 146.84432 298.7664 145.49881 299.54008 144.29136 300.2341 C 143.61871 300.62073 143.61871 300.62073 143.17041 300.87834 C 142.84292 301.0665 142.84292 301.0665 142.7743 301.10593 C 138.51064 303.55527 137.03984 308.99723 139.48918 313.2609 C 141.93852 317.52454 147.38048 318.99534 151.64413 316.546 C 151.7136 316.5061 151.7136 316.5061 152.04202 316.3174 C 152.4913 316.0592 152.4913 316.0592 153.165 315.672 C 154.37408 314.97702 155.72128 314.2024 157.17208 313.36784 C 161.31744 310.9833 165.4629 308.59614 169.33265 306.3642 C 169.3859 306.3335 169.3859 306.3335 169.43914 306.30278 C 170.81535 305.509 172.11627 304.75824 173.34065 304.05115 C 173.32863 308.80665 173.31473 313.70136 173.29928 318.6834 C 173.27944 325.07962 173.25818 331.25556 173.23692 336.97996 C 173.22948 338.98343 173.22257 340.7873 173.21637 342.3627 C 173.21292 343.2363 173.21292 343.2363 173.21062 343.80917 C 173.20894 344.22445 173.20894 344.22445 173.20858 344.3101 C 173.18833 349.22717 177.15798 353.22967 182.07506 353.24992 C 186.99213 353.2702 190.99463 349.30052 191.01488 344.38345 C 191.01524 344.29704 191.01524 344.29704 191.01692 343.88095 C 191.01923 343.30725 191.01923 343.30725 191.02269 342.43277 C 191.0289 340.8561 191.0358 339.0509 191.04325 337.0461 C 191.06452 331.31823 191.0858 325.1387 191.10564 318.73864 C 191.12116 313.73514 191.13511 308.8195 191.14718 304.0441 L 191.14718 304.0441 C 192.3751 304.75326 193.68008 305.50637 195.06086 306.30278 C 195.1141 306.3335 195.1141 306.3335 195.16735 306.3642 C 199.0371 308.59614 203.18256 310.9833 207.32792 313.36784 C 208.77872 314.2024 210.12592 314.97702 211.335 315.672 C 212.0087 316.0592 212.0087 316.0592 212.45798 316.3174 C 212.7864 316.5061 212.7864 316.5061 212.85587 316.546 C 217.11952 318.99534 222.56148 317.52454 225.01082 313.2609 C 227.46016 308.99723 225.98936 303.55527 221.7257 301.10593 C 221.65708 301.0665 221.65708 301.0665 221.3296 300.87834 C 220.8813 300.62073 220.8813 300.62073 220.20864 300.2341 C 219.0012 299.54008 217.65568 298.7664 216.20664 297.93287 C 212.06675 295.55147 207.92695 293.16758 204.0638 290.93945 C 204.01066 290.9088 204.01066 290.9088 203.95752 290.87815 C 198.63077 287.80578 194.20773 285.24644 191.1878 283.48942 C 191.19911 274.83375 191.1996 267.4413 191.18762 261.5787 C 191.18514 260.3651 191.18213 259.221 191.17857 258.14782 C 191.27235 258.20193 191.3666 258.2563 191.4613 258.3109 C 191.50344 258.33522 191.50344 258.33522 191.5456 258.35953 C 194.60896 260.12637 197.89044 262.016 201.17182 263.90356 C 202.32022 264.56416 203.38662 265.17734 204.3437 265.72747 C 204.87702 266.034 204.87702 266.034 205.2327 266.23838 C 205.49271 266.3878 205.49271 266.3878 205.54778 266.41942 C 208.61797 268.18315 212.29914 267.9142 215.03394 266.0335 C 218.0301 264.60545 220.10362 261.55192 220.11128 258.01118 C 220.11142 257.94767 220.11142 257.94767 220.11204 257.6478 C 220.11287 257.23757 220.11287 257.23757 220.11407 256.62245 C 220.11618 255.51852 220.11836 254.2884 220.12046 252.96356 C 220.12648 249.17802 220.13075 245.39136 220.1323 241.855 C 220.13233 241.80633 220.13233 241.80633 220.13235 241.75767 C 220.1324 241.6287 220.13245 241.50048 220.1325 241.373 C 221.0786 241.915 222.09003 242.49538 223.1651 243.11315 C 228.22566 246.0211 234.60608 249.70538 242.07404 254.03 C 242.0859 257.52563 242.09093 262.6669 242.0883 268.86334 C 242.08827 268.92468 242.08827 268.92468 242.08824 268.98603 C 242.08628 273.44568 242.0809 278.2228 242.0733 282.99875 C 242.07064 284.67042 242.0679 286.2225 242.06523 287.6152 C 242.06373 288.39104 242.06373 288.39104 242.06268 288.9081 C 242.0619 289.2858 242.0619 289.2858 242.06172 289.36493 C 242.05108 294.28203 246.02856 298.27676 250.94566 298.2874 C 255.86276 298.29804 259.8575 294.32056 259.86813 289.40346 C 259.8683 289.32334 259.8683 289.32334 259.8691 288.94457 C 259.87014 288.4264 259.87014 288.4264 259.87165 287.64935 C 259.87433 286.25476 259.87707 284.70074 259.87973 283.02704 C 259.88733 278.24477 259.89273 273.46112 259.8947 268.99385 C 259.89472 268.9324 259.89472 268.9324 259.89474 268.87092 C 259.89542 267.2822 259.8957 265.7802 259.89553 264.3663 C 264.0079 266.75446 268.2399 269.21385 272.54675 271.71826 C 278.0761 274.93355 283.414 278.03993 288.36085 280.92053 C 290.0922 281.9287 291.65094 282.83664 293.01216 283.6297 C 293.767 284.0695 293.767 284.0695 294.26197 284.35792 C 294.62077 284.567 294.62077 284.567 294.69476 284.61014 C 298.94295 287.08622 304.39404 285.64965 306.87012 281.40147 C 309.3462 277.1533 307.90963 271.7022 303.66144 269.2261 C 303.5868 269.1826 303.5868 269.1826 303.2273 268.9731 C 302.7316 268.68425 302.7316 268.68425 301.976 268.244 C 300.61366 267.4503 299.05378 266.54172 297.32128 265.53286 C 292.37145 262.65052 287.03046 259.54234 281.49776 256.3251 C 277.17236 253.80992 272.9223 251.34002 268.7927 248.94188 L 268.7927 248.94188 C 270.0208 248.23303 271.3255 247.47944 272.7056 246.68186 C 272.75882 246.6511 272.75882 246.6511 272.81204 246.62035 C 276.67983 244.385 280.8199 241.9885 284.95765 239.5908 C 286.4058 238.75164 287.75024 237.97226 288.95665 237.27265 C 289.62885 236.8828 289.62885 236.8828 290.07707 236.62282 C 290.4047 236.43275 290.4047 236.43275 290.474 236.39254 C 294.727 233.92478 296.17425 228.4765 293.70648 224.2235 C 291.2387 219.97047 285.79044 218.52324 281.53742 220.991 C 281.46898 221.03072 281.46898 221.03072 281.14226 221.22025 C 280.695 221.47969 280.695 221.47969 280.02387 221.8689 C 278.8191 222.56757 277.47632 223.346 276.02994 224.18412 C 271.89763 226.57867 267.76323 228.9719 263.90204 231.20342 C 263.84893 231.23412 263.84893 231.23412 263.7958 231.2648 C 258.4717 234.34172 254.0437 236.89252 251.01213 238.62934 C 243.52175 234.29172 237.11994 230.59507 232.0368 227.67415 C 230.98454 227.0695 229.9922 226.50004 229.06104 225.96654 C 229.1548 225.91238 229.24899 225.85794 229.34364 225.80324 C 229.38577 225.7789 229.38577 225.7789 229.4279 225.75454 C 232.4897 223.985 235.76692 222.08798 239.04228 220.19 C 240.18858 219.52576 241.2528 218.90882 242.20778 218.35502 C 242.7399 218.04642 242.7399 218.04642 243.09473 217.8406 C 243.35413 217.6901 243.35413 217.6901 243.40906 217.65824 C 246.4716 215.88124 248.07926 212.5588 247.81792 209.25002 C 248.07928 205.94124 246.4716 202.61877 243.40906 200.84176 C 243.35413 200.80989 243.35413 200.80989 243.09473 200.6594 C 242.7399 200.45358 242.7399 200.45358 242.20778 200.14498 C 241.2528 199.59118 240.18858 198.97424 239.04228 198.31 C 235.76692 196.41202 232.4897 194.515 229.4279 192.74546 C 229.38577 192.7211 229.38577 192.7211 229.34364 192.69676 C 229.23198 192.63223 229.12096 192.56807 229.01058 192.50429 C 229.95302 191.95595 230.96136 191.37021 232.0339 190.74805 C 237.08253 187.81945 243.46343 184.136 250.94264 179.83087 C 253.97587 181.5684 258.43087 184.1347 263.7958 187.23519 C 263.84893 187.26588 263.84893 187.26588 263.90204 187.29658 C 267.76323 189.5281 271.89763 191.92133 276.02994 194.31588 C 277.47632 195.15401 278.8191 195.93243 280.02387 196.6311 C 280.695 197.02031 280.695 197.02031 281.14226 197.27975 C 281.46898 197.46928 281.46898 197.46928 281.53742 197.509 C 285.79044 199.97676 291.2387 198.52953 293.70648 194.27651 C 296.17425 190.0235 294.727 184.57522 290.474 182.10746 C 290.4047 182.06725 290.4047 182.06725 290.07707 181.87718 C 289.62885 181.61719 289.62885 181.61719 288.95665 181.22735 C 287.75024 180.52774 286.4058 179.74836 284.95765 178.9092 C 280.8199 176.51149 276.67983 174.11499 272.81204 171.87965 C 272.75882 171.8489 272.75882 171.8489 272.7056 171.81814 C 271.33007 171.0232 270.02943 170.27195 268.80488 169.56515 C 272.92928 167.1978 277.17516 164.7625 281.49747 162.28485 C 287.04668 159.10393 292.40583 156.03437 297.37393 153.19058 C 299.1127 152.19529 300.67836 151.29933 302.0458 150.517 C 302.80408 150.0832 302.80408 150.0832 303.30135 149.79875 C 303.66183 149.59257 303.66183 149.59257 303.73618 149.55005 C 308.00462 147.10905 309.48606 141.66998 307.04506 137.40154 C 304.60407 133.1331 299.165 131.65167 294.89656 134.09266 L 294.89656 134.09266 C 294.82155 134.13556 294.82155 134.13556 294.46036 134.34214 C 293.96237 134.627 293.96237 134.627 293.2033 135.06125 C 291.83477 135.84421 290.26797 136.74082 288.52803 137.73678 C 283.55693 140.58229 278.19467 143.65363 272.64212 146.83647 C 268.3012 149.32478 264.03717 151.7705 259.89552 154.14776 C 259.8957 152.72977 259.89542 151.22307 259.89474 149.62908 C 259.89472 149.56762 259.89472 149.56762 259.8947 149.50615 C 259.89273 145.03888 259.88733 140.25523 259.87973 135.47296 C 259.87707 133.79926 259.87433 132.24524 259.87165 130.85065 C 259.87014 130.0736 259.87014 130.0736 259.8691 129.55543 C 259.8683 129.17666 259.8683 129.17666 259.86813 129.09654 C 259.8575 124.17944 255.86276 120.20196 250.94566 120.2126 C 246.02856 120.22324 242.05108 124.21797 242.06172 129.13507 C 242.0619 129.21421 242.0619 129.21421 242.06268 129.59191 C 242.06373 130.10896 242.06373 130.10896 242.06523 130.8848 C 242.0679 132.2775 242.07064 133.82958 242.0733 135.50125 C 242.0809 140.2772 242.08628 145.05432 242.08824 149.51397 C 242.08827 149.57532 242.08827 149.57532 242.0883 149.63666 C 242.0909 155.78594 242.08598 160.89608 242.07432 164.38992 C 234.57264 168.70796 228.17034 172.40377 223.09918 175.34544 C 222.0494 175.9544 221.06008 176.52906 220.13247 177.06872 C 220.13244 176.96045 220.1324 176.85166 220.13235 176.74233 C 220.13233 176.69367 220.13233 176.69367 220.1323 176.64501 C 220.13075 173.10864 220.12648 169.32198 220.12046 165.53644 C 220.11836 164.2116 220.11618 162.98148 220.11407 161.87755 C 220.11287 161.26243 220.11287 161.26243 220.11204 160.85221 C 220.11142 160.55233 220.11142 160.55233 220.11128 160.48882 C 220.10362 156.94808 218.0301 153.89455 215.03394 152.4665 Z M 202.32459 174.4798 C 202.32512 175.21306 202.32554 175.9381 202.32585 176.65284 C 202.32588 176.70137 202.32588 176.70137 202.3259 176.74991 C 202.3286 183.10095 202.3208 188.1099 202.30503 190.61 C 201.84244 192.78586 202.22357 195.03308 203.3079 196.913 C 203.36108 197.00166 203.41127 197.0921 203.46297 197.18158 C 204.54885 199.06072 206.3045 200.5145 208.42023 201.20184 C 210.59327 202.43822 214.93505 204.93595 220.43385 208.1138 C 220.47587 208.1381 220.47587 208.1381 220.5179 208.16238 C 221.13672 208.52002 221.76441 208.8829 222.39917 209.25 C 221.7644 209.6171 221.13672 209.97998 220.5179 210.33762 C 220.47587 210.3619 220.47587 210.3619 220.43385 210.3862 C 214.93505 213.56405 210.59327 216.06178 208.42023 217.29817 C 206.30458 217.98548 204.549 219.43916 203.4631 221.31819 C 203.41292 221.40856 203.35968 221.49725 203.30805 221.58676 C 202.2236 223.46673 201.84242 225.71405 202.30503 227.89 C 202.3208 230.3901 202.3286 235.39905 202.3259 241.7501 C 202.32588 241.79863 202.32588 241.79863 202.32585 241.84716 C 202.32554 242.5619 202.32512 243.28694 202.32459 244.0202 C 201.6893 243.65403 201.06118 243.29188 200.44204 242.93478 C 200.4 242.91053 200.4 242.91053 200.35795 242.88628 C 194.85645 239.7131 190.52246 237.20188 188.3652 235.93816 C 186.71214 234.44962 184.57543 233.65607 182.4052 233.65519 C 182.30183 233.6569 182.19842 233.65515 182.09508 233.65519 C 179.92475 233.656 177.78793 234.44955 176.1348 235.93816 C 173.97754 237.20188 169.64355 239.7131 164.14205 242.88628 C 164.1 242.91053 164.1 242.91053 164.05796 242.93478 C 163.43882 243.29188 162.8107 243.65403 162.17541 244.0202 C 162.17488 243.28694 162.17446 242.5619 162.17415 241.84716 C 162.17412 241.79863 162.17412 241.79863 162.1741 241.7501 C 162.1714 235.39905 162.1792 230.3901 162.19497 227.89 C 162.65756 225.71414 162.27643 223.46692 161.19209 221.587 C 161.13892 221.49834 161.08873 221.4079 161.03703 221.31842 C 159.95115 219.43928 158.19551 217.9855 156.07977 217.29816 C 153.90673 216.06178 149.56495 213.56405 144.06615 210.3862 C 144.02413 210.3619 144.02413 210.3619 143.9821 210.33762 C 143.36328 209.97998 142.73559 209.6171 142.10083 209.25 C 142.73559 208.8829 143.36328 208.52002 143.9821 208.16238 C 144.02413 208.1381 144.02413 208.1381 144.06615 208.1138 C 149.56495 204.93595 153.90673 202.43822 156.07977 201.20183 C 158.19542 200.51452 159.951 199.06084 161.03689 197.18181 C 161.08708 197.09144 161.14032 197.00275 161.19195 196.91324 C 162.2764 195.03327 162.65758 192.78595 162.19497 190.61 C 162.1792 188.1099 162.1714 183.10095 162.1741 176.74991 C 162.17412 176.70137 162.17412 176.70137 162.17415 176.65284 C 162.17446 175.9381 162.17488 175.21306 162.17541 174.4798 C 162.8107 174.84597 163.43882 175.20812 164.05796 175.56522 C 164.1 175.58947 164.1 175.58947 164.14205 175.61372 C 169.64355 178.7869 173.97754 181.29812 176.1348 182.56184 C 177.78786 184.05038 179.92457 184.84393 182.0948 184.84481 C 182.19817 184.8431 182.30158 184.84485 182.40492 184.84481 C 184.57525 184.844 186.71207 184.05045 188.3652 182.56184 C 190.52246 181.29812 194.85645 178.7869 200.35795 175.61372 C 200.4 175.58947 200.4 175.58947 200.44204 175.56522 C 201.06118 175.20812 201.6893 174.84597 202.32459 174.4798 Z" fill="#FFFFFF"/>
        <path d="M 215.03394 152.4665 C 212.29914 150.5858 208.61797 150.31685 205.54778 152.08058 C 205.49271 152.11221 205.49271 152.11221 205.2327 152.26162 C 204.87702 152.466 204.87702 152.466 204.3437 152.77253 C 203.38662 153.32266 202.32022 153.93584 201.17182 154.59644 C 197.89044 156.484 194.60896 158.37363 191.5456 160.14047 C 191.50344 160.16478 191.50344 160.16478 191.4613 160.1891 C 191.34958 160.25353 191.2385 160.3176 191.12807 160.3813 C 191.12442 159.29095 191.12133 158.12483 191.1188 156.8849 C 191.10687 151.04836 191.10735 143.68062 191.1186 135.05086 C 194.13997 133.29277 198.58994 130.71778 203.95752 127.62185 C 204.01066 127.5912 204.01066 127.5912 204.0638 127.56055 C 207.92695 125.33242 212.06675 122.94853 216.20664 120.56713 C 217.65568 119.73359 219.0012 118.95992 220.20864 118.26589 C 220.8813 117.87927 220.8813 117.87927 221.3296 117.62166 C 221.65708 117.43349 221.65708 117.43349 221.7257 117.39407 C 225.98936 114.94473 227.46016 109.50277 225.01082 105.23911 C 222.56148 100.97546 217.11952 99.50466 212.85587 101.954 C 212.7864 101.9939 212.7864 101.9939 212.45798 102.18261 C 212.0087 102.44078 212.0087 102.44078 211.335 102.828 C 210.12592 103.52298 208.77872 104.29761 207.32792 105.13216 C 203.18256 107.51672 199.0371 109.90386 195.16735 112.1358 C 195.1141 112.16651 195.1141 112.16651 195.06086 112.19722 C 193.68465 112.991 192.38373 113.74176 191.15935 114.44885 C 191.17137 109.69335 191.18527 104.79864 191.20072 99.8166 C 191.22056 93.42038 191.24182 87.24444 191.26308 81.52004 C 191.27052 79.51657 191.27743 77.71269 191.28363 76.1373 C 191.28708 75.2637 191.28708 75.2637 191.28938 74.69083 C 191.29106 74.27555 191.29106 74.27555 191.29142 74.189905 C 191.31167 69.27283 187.34202 65.27033 182.42494 65.25008 C 177.50787 65.22982 173.50537 69.199476 173.48512 74.11655 C 173.48476 74.20296 173.48476 74.20296 173.48308 74.619045 C 173.48077 75.19275 173.48077 75.19275 173.47731 76.06723 C 173.4711 77.64391 173.4642 79.4491 173.45675 81.45392 C 173.43548 87.18177 173.41421 93.36129 173.39436 99.76136 C 173.37884 104.76486 173.36489 109.68048 173.35282 114.45588 L 173.35282 114.45588 C 172.1249 113.74674 170.81992 112.99363 169.43914 112.19722 C 169.3859 112.16651 169.3859 112.16651 169.33265 112.1358 C 165.4629 109.90386 161.31744 107.51672 157.17208 105.13216 C 155.72128 104.29761 154.37408 103.52298 153.165 102.828 C 152.4913 102.44078 152.4913 102.44078 152.04202 102.18261 C 151.7136 101.9939 151.7136 101.9939 151.64413 101.954 C 147.38048 99.50466 141.93852 100.97546 139.48918 105.23911 C 137.03984 109.50277 138.51064 114.94473 142.7743 117.39407 C 142.84292 117.43349 142.84292 117.43349 143.17041 117.62166 C 143.61871 117.87927 143.61871 117.87927 144.29136 118.26589 C 145.49881 118.95992 146.84432 119.73359 148.29336 120.56713 C 152.43325 122.94853 156.57305 125.33242 160.4362 127.56055 C 160.48934 127.5912 160.48934 127.5912 160.54248 127.62185 C 165.86923 130.69422 170.29227 133.25356 173.3122 135.01058 C 173.30089 143.66625 173.3004 151.0587 173.31238 156.92129 C 173.31486 158.1349 173.31787 159.27901 173.32143 160.35218 C 173.22765 160.29807 173.1334 160.24371 173.0387 160.1891 C 172.99656 160.16478 172.99656 160.16478 172.9544 160.14047 C 169.89104 158.37363 166.60956 156.484 163.32818 154.59644 C 162.17978 153.93584 161.11338 153.32266 160.15629 152.77253 C 159.62298 152.466 159.62298 152.466 159.2673 152.26162 C 159.00729 152.11221 159.00729 152.11221 158.95222 152.08058 C 155.88203 150.31685 152.20086 150.5858 149.46606 152.4665 C 146.4699 153.89455 144.39638 156.94808 144.38872 160.48882 C 144.38858 160.55233 144.38858 160.55233 144.38796 160.85221 C 144.38713 161.26243 144.38713 161.26243 144.38593 161.87755 C 144.38382 162.98148 144.38164 164.2116 144.37954 165.53644 C 144.37352 169.32198 144.36925 173.10864 144.3677 176.64501 C 144.36767 176.69367 144.36767 176.69367 144.36765 176.74233 C 144.3676 176.8713 144.36755 176.99952 144.3675 177.127 C 143.4214 176.585 142.40997 176.00462 141.33489 175.38685 C 136.27434 172.4789 129.89392 168.79462 122.42596 164.47 C 122.4141 160.97437 122.40907 155.83308 122.4117 149.63666 C 122.41173 149.57532 122.41173 149.57532 122.41176 149.51397 C 122.41372 145.05432 122.41911 140.2772 122.4267 135.50125 C 122.42936 133.82958 122.4321 132.2775 122.43477 130.8848 C 122.43627 130.10896 122.43627 130.10896 122.43732 129.59191 C 122.4381 129.21421 122.4381 129.21421 122.43828 129.13507 C 122.44892 124.21797 118.47144 120.22324 113.55434 120.2126 C 108.63724 120.20196 104.64251 124.17944 104.63187 129.09654 C 104.6317 129.17666 104.6317 129.17666 104.63091 129.55543 C 104.62986 130.0736 104.62986 130.0736 104.62835 130.85065 C 104.62567 132.24524 104.62293 133.79926 104.62027 135.47296 C 104.61267 140.25523 104.60727 145.03888 104.60531 149.50615 C 104.60528 149.56762 104.60528 149.56762 104.60526 149.62908 C 104.60458 151.2178 104.6043 152.71981 104.60447 154.1337 C 100.4921 151.74554 96.2601 149.28615 91.95325 146.78174 C 86.42389 143.56645 81.08599 140.46007 76.13915 137.57947 C 74.40782 136.57129 72.84906 135.66336 71.48784 134.8703 C 70.733 134.43051 70.733 134.43051 70.23803 134.14208 C 69.87923 133.93298 69.87923 133.93298 69.805235 133.88986 C 65.55705 131.41378 60.10596 132.85035 57.62988 137.09853 C 55.1538 141.34672 56.590375 146.7978 60.83856 149.27389 C 60.91321 149.3174 60.91321 149.3174 61.27271 149.5269 C 61.7684 149.81575 61.7684 149.81575 62.524 150.25599 C 63.886335 151.0497 65.44622 151.95828 67.17872 152.96714 C 72.12855 155.84948 77.46954 158.95766 83.00224 162.1749 C 87.32764 164.69008 91.57771 167.15998 95.7073 169.55812 L 95.7073 169.55812 C 94.4792 170.26697 93.17449 171.02056 91.7944 171.81814 C 91.74118 171.8489 91.74118 171.8489 91.68796 171.87965 C 87.82017 174.11499 83.68011 176.51149 79.54235 178.9092 C 78.09421 179.74836 76.74976 180.52774 75.54335 181.22735 C 74.87115 181.61719 74.87115 181.61719 74.42293 181.87718 C 74.0953 182.06725 74.0953 182.06725 74.026 182.10746 C 69.772985 184.57522 68.32575 190.0235 70.79352 194.27651 C 73.26129 198.52953 78.70956 199.97676 82.96258 197.509 C 83.03102 197.46928 83.03102 197.46928 83.35774 197.27975 C 83.80499 197.02031 83.80499 197.02031 84.47613 196.6311 C 85.68091 195.93243 87.02368 195.15401 88.47006 194.31588 C 92.60237 191.92133 96.73677 189.5281 100.59796 187.29658 C 100.65107 187.26588 100.65107 187.26588 100.70419 187.23519 C 106.02831 184.15828 110.45629 181.60748 113.48787 179.87066 C 120.97825 184.20828 127.38006 187.90493 132.4632 190.82585 C 133.51546 191.4305 134.50779 191.99996 135.43896 192.53346 C 135.34521 192.58762 135.25101 192.64206 135.15636 192.69676 C 135.11423 192.7211 135.11423 192.7211 135.0721 192.74546 C 132.01029 194.515 128.73308 196.41202 125.45772 198.31 C 124.31142 198.97424 123.24719 199.59118 122.29222 200.14498 C 121.7601 200.45358 121.7601 200.45358 121.40527 200.6594 C 121.14587 200.80989 121.14587 200.80989 121.09094 200.84176 C 118.02841 202.61876 116.42074 205.9412 116.68208 209.24998 C 116.42072 212.55876 118.0284 215.88123 121.09094 217.65824 C 121.14587 217.6901 121.14587 217.6901 121.40527 217.8406 C 121.7601 218.04642 121.7601 218.04642 122.29222 218.35502 C 123.24719 218.90882 124.31142 219.52576 125.45772 220.19 C 128.73308 222.08798 132.01029 223.985 135.0721 225.75454 C 135.11423 225.7789 135.11423 225.7789 135.15636 225.80324 C 135.26802 225.86777 135.37904 225.93193 135.48942 225.99571 C 134.54698 226.54405 133.53864 227.1298 132.4661 227.75195 C 127.41747 230.68055 121.03657 234.364 113.55736 238.66913 C 110.52413 236.9316 106.06913 234.3653 100.70419 231.2648 C 100.65107 231.23412 100.65107 231.23412 100.59796 231.20342 C 96.73677 228.9719 92.60237 226.57867 88.47006 224.18412 C 87.02368 223.346 85.68091 222.56757 84.47613 221.8689 C 83.80499 221.47969 83.80499 221.47969 83.35774 221.22025 C 83.03102 221.03072 83.03102 221.03072 82.96258 220.991 C 78.70956 218.52324 73.26129 219.97047 70.79352 224.2235 C 68.32575 228.4765 69.772985 233.92478 74.026 236.39254 C 74.0953 236.43275 74.0953 236.43275 74.42293 236.62282 C 74.87115 236.8828 74.87115 236.8828 75.54335 237.27265 C 76.74976 237.97226 78.09421 238.75164 79.54235 239.5908 C 83.68011 241.9885 87.82017 244.385 91.68796 246.62035 C 91.74118 246.6511 91.74118 246.6511 91.7944 246.68186 C 93.16993 247.4768 94.47057 248.22805 95.69512 248.93485 C 91.57072 251.3022 87.32484 253.7375 83.00253 256.21515 C 77.453325 259.39607 72.09417 262.46563 67.12607 265.30942 C 65.3873 266.3047 63.82164 267.20067 62.45421 267.983 C 61.69592 268.4168 61.69592 268.4168 61.19865 268.70125 C 60.838166 268.90743 60.838166 268.90743 60.76382 268.94995 C 56.49538 271.39095 55.01394 276.83 57.454936 281.09846 C 59.89593 285.3669 65.335 286.84833 69.60344 284.40734 C 69.67845 284.36444 69.67845 284.36444 70.039635 284.15786 C 70.53763 283.873 70.53763 283.873 71.29668 283.43875 C 72.66523 282.6558 74.23203 281.75918 75.97197 280.76322 C 80.94307 277.9177 86.30533 274.84637 91.85788 271.66353 C 96.1988 269.17522 100.46283 266.7295 104.60448 264.35224 L 104.60448 264.35224 C 104.6043 265.77023 104.60458 267.27693 104.60526 268.87092 C 104.60528 268.9324 104.60528 268.9324 104.60531 268.99385 C 104.60727 273.46112 104.61267 278.24477 104.62027 283.02704 C 104.62293 284.70074 104.62567 286.25476 104.62835 287.64935 C 104.62986 288.4264 104.62986 288.4264 104.63091 288.94457 C 104.6317 289.32334 104.6317 289.32334 104.63187 289.40346 C 104.64251 294.32056 108.63724 298.29804 113.55434 298.2874 C 118.47144 298.27676 122.44892 294.28203 122.43828 289.36493 C 122.4381 289.2858 122.4381 289.2858 122.43732 288.9081 C 122.43627 288.39104 122.43627 288.39104 122.43477 287.6152 C 122.4321 286.2225 122.42936 284.67042 122.4267 282.99875 C 122.41911 278.2228 122.41372 273.44568 122.41176 268.98603 C 122.41173 268.92468 122.41173 268.92468 122.4117 268.86334 C 122.40909 262.71406 122.41402 257.60392 122.42568 254.11008 C 129.92736 249.79204 136.32966 246.09623 141.40082 243.15456 C 142.4506 242.5456 143.43992 241.97094 144.36753 241.43128 C 144.36756 241.53955 144.3676 241.64834 144.36765 241.75767 C 144.36767 241.80633 144.36767 241.80633 144.3677 241.855 C 144.36925 245.39136 144.37352 249.17802 144.37954 252.96356 C 144.38164 254.2884 144.38382 255.51852 144.38593 256.62245 C 144.38713 257.23757 144.38713 257.23757 144.38796 257.6478 C 144.38858 257.94767 144.38858 257.94767 144.38872 258.01118 C 144.39638 261.55192 146.4699 264.60545 149.46606 266.0335 C 152.20086 267.9142 155.88203 268.18315 158.95222 266.41942 C 159.00729 266.3878 159.00729 266.3878 159.2673 266.23838 C 159.62298 266.034 159.62298 266.034 160.15629 265.72747 C 161.11338 265.17734 162.17978 264.56416 163.32818 263.90356 C 166.60956 262.016 169.89104 260.12637 172.9544 258.35953 C 172.99656 258.33522 172.99656 258.33522 173.0387 258.3109 C 173.15042 258.24647 173.2615 258.1824 173.37193 258.1187 C 173.37558 259.20905 173.37867 260.37517 173.3812 261.6151 C 173.39313 267.45164 173.39265 274.8194 173.3814 283.44914 C 170.36003 285.20723 165.91006 287.78222 160.54248 290.87815 C 160.48934 290.9088 160.48934 290.9088 160.4362 290.93945 C 156.57305 293.16758 152.43325 295.55147 148.29336 297.93287 C 146.84432 298.7664 145.49881 299.54008 144.29136 300.2341 C 143.61871 300.62073 143.61871 300.62073 143.17041 300.87834 C 142.84292 301.0665 142.84292 301.0665 142.7743 301.10593 C 138.51064 303.55527 137.03984 308.99723 139.48918 313.2609 C 141.93852 317.52454 147.38048 318.99534 151.64413 316.546 C 151.7136 316.5061 151.7136 316.5061 152.04202 316.3174 C 152.4913 316.0592 152.4913 316.0592 153.165 315.672 C 154.37408 314.97702 155.72128 314.2024 157.17208 313.36784 C 161.31744 310.9833 165.4629 308.59614 169.33265 306.3642 C 169.3859 306.3335 169.3859 306.3335 169.43914 306.30278 C 170.81535 305.509 172.11627 304.75824 173.34065 304.05115 C 173.32863 308.80665 173.31473 313.70136 173.29928 318.6834 C 173.27944 325.07962 173.25818 331.25556 173.23692 336.97996 C 173.22948 338.98343 173.22257 340.7873 173.21637 342.3627 C 173.21292 343.2363 173.21292 343.2363 173.21062 343.80917 C 173.20894 344.22445 173.20894 344.22445 173.20858 344.3101 C 173.18833 349.22717 177.15798 353.22967 182.07506 353.24992 C 186.99213 353.2702 190.99463 349.30052 191.01488 344.38345 C 191.01524 344.29704 191.01524 344.29704 191.01692 343.88095 C 191.01923 343.30725 191.01923 343.30725 191.02269 342.43277 C 191.0289 340.8561 191.0358 339.0509 191.04325 337.0461 C 191.06452 331.31823 191.0858 325.1387 191.10564 318.73864 C 191.12116 313.73514 191.13511 308.8195 191.14718 304.0441 L 191.14718 304.0441 C 192.3751 304.75326 193.68008 305.50637 195.06086 306.30278 C 195.1141 306.3335 195.1141 306.3335 195.16735 306.3642 C 199.0371 308.59614 203.18256 310.9833 207.32792 313.36784 C 208.77872 314.2024 210.12592 314.97702 211.335 315.672 C 212.0087 316.0592 212.0087 316.0592 212.45798 316.3174 C 212.7864 316.5061 212.7864 316.5061 212.85587 316.546 C 217.11952 318.99534 222.56148 317.52454 225.01082 313.2609 C 227.46016 308.99723 225.98936 303.55527 221.7257 301.10593 C 221.65708 301.0665 221.65708 301.0665 221.3296 300.87834 C 220.8813 300.62073 220.8813 300.62073 220.20864 300.2341 C 219.0012 299.54008 217.65568 298.7664 216.20664 297.93287 C 212.06675 295.55147 207.92695 293.16758 204.0638 290.93945 C 204.01066 290.9088 204.01066 290.9088 203.95752 290.87815 C 198.63077 287.80578 194.20773 285.24644 191.1878 283.48942 C 191.19911 274.83375 191.1996 267.4413 191.18762 261.5787 C 191.18514 260.3651 191.18213 259.221 191.17857 258.14782 C 191.27235 258.20193 191.3666 258.2563 191.4613 258.3109 C 191.50344 258.33522 191.50344 258.33522 191.5456 258.35953 C 194.60896 260.12637 197.89044 262.016 201.17182 263.90356 C 202.32022 264.56416 203.38662 265.17734 204.3437 265.72747 C 204.87702 266.034 204.87702 266.034 205.2327 266.23838 C 205.49271 266.3878 205.49271 266.3878 205.54778 266.41942 C 208.61797 268.18315 212.29914 267.9142 215.03394 266.0335 C 218.0301 264.60545 220.10362 261.55192 220.11128 258.01118 C 220.11142 257.94767 220.11142 257.94767 220.11204 257.6478 C 220.11287 257.23757 220.11287 257.23757 220.11407 256.62245 C 220.11618 255.51852 220.11836 254.2884 220.12046 252.96356 C 220.12648 249.17802 220.13075 245.39136 220.1323 241.855 C 220.13233 241.80633 220.13233 241.80633 220.13235 241.75767 C 220.1324 241.6287 220.13245 241.50048 220.1325 241.373 C 221.0786 241.915 222.09003 242.49538 223.1651 243.11315 C 228.22566 246.0211 234.60608 249.70538 242.07404 254.03 C 242.0859 257.52563 242.09093 262.6669 242.0883 268.86334 C 242.08827 268.92468 242.08827 268.92468 242.08824 268.98603 C 242.08628 273.44568 242.0809 278.2228 242.0733 282.99875 C 242.07064 284.67042 242.0679 286.2225 242.06523 287.6152 C 242.06373 288.39104 242.06373 288.39104 242.06268 288.9081 C 242.0619 289.2858 242.0619 289.2858 242.06172 289.36493 C 242.05108 294.28203 246.02856 298.27676 250.94566 298.2874 C 255.86276 298.29804 259.8575 294.32056 259.86813 289.40346 C 259.8683 289.32334 259.8683 289.32334 259.8691 288.94457 C 259.87014 288.4264 259.87014 288.4264 259.87165 287.64935 C 259.87433 286.25476 259.87707 284.70074 259.87973 283.02704 C 259.88733 278.24477 259.89273 273.46112 259.8947 268.99385 C 259.89472 268.9324 259.89472 268.9324 259.89474 268.87092 C 259.89542 267.2822 259.8957 265.7802 259.89553 264.3663 C 264.0079 266.75446 268.2399 269.21385 272.54675 271.71826 C 278.0761 274.93355 283.414 278.03993 288.36085 280.92053 C 290.0922 281.9287 291.65094 282.83664 293.01216 283.6297 C 293.767 284.0695 293.767 284.0695 294.26197 284.35792 C 294.62077 284.567 294.62077 284.567 294.69476 284.61014 C 298.94295 287.08622 304.39404 285.64965 306.87012 281.40147 C 309.3462 277.1533 307.90963 271.7022 303.66144 269.2261 C 303.5868 269.1826 303.5868 269.1826 303.2273 268.9731 C 302.7316 268.68425 302.7316 268.68425 301.976 268.244 C 300.61366 267.4503 299.05378 266.54172 297.32128 265.53286 C 292.37145 262.65052 287.03046 259.54234 281.49776 256.3251 C 277.17236 253.80992 272.9223 251.34002 268.7927 248.94188 L 268.7927 248.94188 C 270.0208 248.23303 271.3255 247.47944 272.7056 246.68186 C 272.75882 246.6511 272.75882 246.6511 272.81204 246.62035 C 276.67983 244.385 280.8199 241.9885 284.95765 239.5908 C 286.4058 238.75164 287.75024 237.97226 288.95665 237.27265 C 289.62885 236.8828 289.62885 236.8828 290.07707 236.62282 C 290.4047 236.43275 290.4047 236.43275 290.474 236.39254 C 294.727 233.92478 296.17425 228.4765 293.70648 224.2235 C 291.2387 219.97047 285.79044 218.52324 281.53742 220.991 C 281.46898 221.03072 281.46898 221.03072 281.14226 221.22025 C 280.695 221.47969 280.695 221.47969 280.02387 221.8689 C 278.8191 222.56757 277.47632 223.346 276.02994 224.18412 C 271.89763 226.57867 267.76323 228.9719 263.90204 231.20342 C 263.84893 231.23412 263.84893 231.23412 263.7958 231.2648 C 258.4717 234.34172 254.0437 236.89252 251.01213 238.62934 C 243.52175 234.29172 237.11994 230.59507 232.0368 227.67415 C 230.98454 227.0695 229.9922 226.50004 229.06104 225.96654 C 229.1548 225.91238 229.24899 225.85794 229.34364 225.80324 C 229.38577 225.7789 229.38577 225.7789 229.4279 225.75454 C 232.4897 223.985 235.76692 222.08798 239.04228 220.19 C 240.18858 219.52576 241.2528 218.90882 242.20778 218.35502 C 242.7399 218.04642 242.7399 218.04642 243.09473 217.8406 C 243.35413 217.6901 243.35413 217.6901 243.40906 217.65824 C 246.4716 215.88124 248.07926 212.5588 247.81792 209.25002 C 248.07928 205.94124 246.4716 202.61877 243.40906 200.84176 C 243.35413 200.80989 243.35413 200.80989 243.09473 200.6594 C 242.7399 200.45358 242.7399 200.45358 242.20778 200.14498 C 241.2528 199.59118 240.18858 198.97424 239.04228 198.31 C 235.76692 196.41202 232.4897 194.515 229.4279 192.74546 C 229.38577 192.7211 229.38577 192.7211 229.34364 192.69676 C 229.23198 192.63223 229.12096 192.56807 229.01058 192.50429 C 229.95302 191.95595 230.96136 191.37021 232.0339 190.74805 C 237.08253 187.81945 243.46343 184.136 250.94264 179.83087 C 253.97587 181.5684 258.43087 184.1347 263.7958 187.23519 C 263.84893 187.26588 263.84893 187.26588 263.90204 187.29658 C 267.76323 189.5281 271.89763 191.92133 276.02994 194.31588 C 277.47632 195.15401 278.8191 195.93243 280.02387 196.6311 C 280.695 197.02031 280.695 197.02031 281.14226 197.27975 C 281.46898 197.46928 281.46898 197.46928 281.53742 197.509 C 285.79044 199.97676 291.2387 198.52953 293.70648 194.27651 C 296.17425 190.0235 294.727 184.57522 290.474 182.10746 C 290.4047 182.06725 290.4047 182.06725 290.07707 181.87718 C 289.62885 181.61719 289.62885 181.61719 288.95665 181.22735 C 287.75024 180.52774 286.4058 179.74836 284.95765 178.9092 C 280.8199 176.51149 276.67983 174.11499 272.81204 171.87965 C 272.75882 171.8489 272.75882 171.8489 272.7056 171.81814 C 271.33007 171.0232 270.02943 170.27195 268.80488 169.56515 C 272.92928 167.1978 277.17516 164.7625 281.49747 162.28485 C 287.04668 159.10393 292.40583 156.03437 297.37393 153.19058 C 299.1127 152.19529 300.67836 151.29933 302.0458 150.517 C 302.80408 150.0832 302.80408 150.0832 303.30135 149.79875 C 303.66183 149.59257 303.66183 149.59257 303.73618 149.55005 C 308.00462 147.10905 309.48606 141.66998 307.04506 137.40154 C 304.60407 133.1331 299.165 131.65167 294.89656 134.09266 L 294.89656 134.09266 C 294.82155 134.13556 294.82155 134.13556 294.46036 134.34214 C 293.96237 134.627 293.96237 134.627 293.2033 135.06125 C 291.83477 135.84421 290.26797 136.74082 288.52803 137.73678 C 283.55693 140.58229 278.19467 143.65363 272.64212 146.83647 C 268.3012 149.32478 264.03717 151.7705 259.89552 154.14776 C 259.8957 152.72977 259.89542 151.22307 259.89474 149.62908 C 259.89472 149.56762 259.89472 149.56762 259.8947 149.50615 C 259.89273 145.03888 259.88733 140.25523 259.87973 135.47296 C 259.87707 133.79926 259.87433 132.24524 259.87165 130.85065 C 259.87014 130.0736 259.87014 130.0736 259.8691 129.55543 C 259.8683 129.17666 259.8683 129.17666 259.86813 129.09654 C 259.8575 124.17944 255.86276 120.20196 250.94566 120.2126 C 246.02856 120.22324 242.05108 124.21797 242.06172 129.13507 C 242.0619 129.21421 242.0619 129.21421 242.06268 129.59191 C 242.06373 130.10896 242.06373 130.10896 242.06523 130.8848 C 242.0679 132.2775 242.07064 133.82958 242.0733 135.50125 C 242.0809 140.2772 242.08628 145.05432 242.08824 149.51397 C 242.08827 149.57532 242.08827 149.57532 242.0883 149.63666 C 242.0909 155.78594 242.08598 160.89608 242.07432 164.38992 C 234.57264 168.70796 228.17034 172.40377 223.09918 175.34544 C 222.0494 175.9544 221.06008 176.52906 220.13247 177.06872 C 220.13244 176.96045 220.1324 176.85166 220.13235 176.74233 C 220.13233 176.69367 220.13233 176.69367 220.1323 176.64501 C 220.13075 173.10864 220.12648 169.32198 220.12046 165.53644 C 220.11836 164.2116 220.11618 162.98148 220.11407 161.87755 C 220.11287 161.26243 220.11287 161.26243 220.11204 160.85221 C 220.11142 160.55233 220.11142 160.55233 220.11128 160.48882 C 220.10362 156.94808 218.0301 153.89455 215.03394 152.4665 Z M 202.32459 174.4798 C 202.32512 175.21306 202.32554 175.9381 202.32585 176.65284 C 202.32588 176.70137 202.32588 176.70137 202.3259 176.74991 C 202.3286 183.10095 202.3208 188.1099 202.30503 190.61 C 201.84244 192.78586 202.22357 195.03308 203.3079 196.913 C 203.36108 197.00166 203.41127 197.0921 203.46297 197.18158 C 204.54885 199.06072 206.3045 200.5145 208.42023 201.20184 C 210.59327 202.43822 214.93505 204.93595 220.43385 208.1138 C 220.47587 208.1381 220.47587 208.1381 220.5179 208.16238 C 221.13672 208.52002 221.76441 208.8829 222.39917 209.25 C 221.7644 209.6171 221.13672 209.97998 220.5179 210.33762 C 220.47587 210.3619 220.47587 210.3619 220.43385 210.3862 C 214.93505 213.56405 210.59327 216.06178 208.42023 217.29817 C 206.30458 217.98548 204.549 219.43916 203.4631 221.31819 C 203.41292 221.40856 203.35968 221.49725 203.30805 221.58676 C 202.2236 223.46673 201.84242 225.71405 202.30503 227.89 C 202.3208 230.3901 202.3286 235.39905 202.3259 241.7501 C 202.32588 241.79863 202.32588 241.79863 202.32585 241.84716 C 202.32554 242.5619 202.32512 243.28694 202.32459 244.0202 C 201.6893 243.65403 201.06118 243.29188 200.44204 242.93478 C 200.4 242.91053 200.4 242.91053 200.35795 242.88628 C 194.85645 239.7131 190.52246 237.20188 188.3652 235.93816 C 186.71214 234.44962 184.57543 233.65607 182.4052 233.65519 C 182.30183 233.6569 182.19842 233.65515 182.09508 233.65519 C 179.92475 233.656 177.78793 234.44955 176.1348 235.93816 C 173.97754 237.20188 169.64355 239.7131 164.14205 242.88628 C 164.1 242.91053 164.1 242.91053 164.05796 242.93478 C 163.43882 243.29188 162.8107 243.65403 162.17541 244.0202 C 162.17488 243.28694 162.17446 242.5619 162.17415 241.84716 C 162.17412 241.79863 162.17412 241.79863 162.1741 241.7501 C 162.1714 235.39905 162.1792 230.3901 162.19497 227.89 C 162.65756 225.71414 162.27643 223.46692 161.19209 221.587 C 161.13892 221.49834 161.08873 221.4079 161.03703 221.31842 C 159.95115 219.43928 158.19551 217.9855 156.07977 217.29816 C 153.90673 216.06178 149.56495 213.56405 144.06615 210.3862 C 144.02413 210.3619 144.02413 210.3619 143.9821 210.33762 C 143.36328 209.97998 142.73559 209.6171 142.10083 209.25 C 142.73559 208.8829 143.36328 208.52002 143.9821 208.16238 C 144.02413 208.1381 144.02413 208.1381 144.06615 208.1138 C 149.56495 204.93595 153.90673 202.43822 156.07977 201.20183 C 158.19542 200.51452 159.951 199.06084 161.03689 197.18181 C 161.08708 197.09144 161.14032 197.00275 161.19195 196.91324 C 162.2764 195.03327 162.65758 192.78595 162.19497 190.61 C 162.1792 188.1099 162.1714 183.10095 162.1741 176.74991 C 162.17412 176.70137 162.17412 176.70137 162.17415 176.65284 C 162.17446 175.9381 162.17488 175.21306 162.17541 174.4798 C 162.8107 174.84597 163.43882 175.20812 164.05796 175.56522 C 164.1 175.58947 164.1 175.58947 164.14205 175.61372 C 169.64355 178.7869 173.97754 181.29812 176.1348 182.56184 C 177.78786 184.05038 179.92457 184.84393 182.0948 184.84481 C 182.19817 184.8431 182.30158 184.84485 182.40492 184.84481 C 184.57525 184.844 186.71207 184.05045 188.3652 182.56184 C 190.52246 181.29812 194.85645 178.7869 200.35795 175.61372 C 200.4 175.58947 200.4 175.58947 200.44204 175.56522 C 201.06118 175.20812 201.6893 174.84597 202.32459 174.4798 Z" stroke="black" stroke-linecap="round" stroke-linejoin="round" stroke-width="2"/>
      </g>
    </g>
  </g>
</svg>
