<?xml version="1.0" encoding="UTF-8" standalone="no"?>
<!DOCTYPE svg PUBLIC "-//W3C//DTD SVG 1.1//EN" "http://www.w3.org/Graphics/SVG/1.1/DTD/svg11.dtd">
<svg xmlns="http://www.w3.org/2000/svg" xmlns:xl="http://www.w3.org/1999/xlink" version="1.1" xmlns:dc="http://purl.org/dc/elements/1.1/" viewBox="33.99687 85.5 317.00313 193.5" width="317.00313" height="193.5">
  <defs>
    <clipPath id="artboard_clip_path">
      <path d="M 33.99687 85.5 L 351 85.5 L 351 279 L 33.99687 279 Z"/>
    </clipPath>
  </defs>
  <g id="Stag_s_Massacre_(1)" stroke-opacity="1" fill="none" fill-opacity="1" stroke-dasharray="none" stroke="none">
    <title>Stag&apos;s Massacre (1)</title>
    <g id="Stag_s_Massacre_(1)_Layer_2" clip-path="url(#artboard_clip_path)">
      <title>Layer 2</title>
      <g id="Group_3">
        <g id="Graphic_36">
          <path d="M 294.558 88.12278 C 294.558 88.44381 295.90636 90.04899 297.51153 91.71836 C 299.1167 93.45195 300.72187 95.57077 301.1071 96.46967 C 301.49235 97.36856 301.8776 101.60622 302.0702 105.84387 C 302.26284 111.7509 302.7123 114.76862 303.9322 118.74944 C 304.8953 121.89558 305.40897 124.59226 305.15214 125.61957 C 304.44587 128.31626 295.97057 135.82846 289.8709 139.0388 C 286.0185 141.09342 279.4052 147.83514 274.14024 155.0263 C 269.83838 160.93333 263.80294 167.41822 253.59405 177.04925 C 251.66785 178.84704 249.87006 181.73635 247.5586 186.74448 C 239.78959 203.18143 235.3593 210.56521 229.06704 217.49955 C 223.73788 223.40658 222.83898 223.85603 219.43602 222.05824 C 218.02347 221.28776 215.26257 221.09514 207.75037 221.15934 C 202.357 221.15934 196.44997 220.8383 194.58797 220.38886 C 191.69867 219.7468 190.73556 219.811 186.69053 221.03093 C 184.18647 221.8014 181.36137 222.7645 180.39826 223.14975 C 179.43516 223.535 176.41744 223.79182 173.65655 223.72762 C 169.67572 223.5992 168.26317 223.79182 166.52959 224.81913 L 164.41076 226.10327 L 158.95318 222.05824 C 152.98194 217.62797 149.25795 213.39031 146.68967 208.12535 C 145.79078 206.26336 143.1583 200.80578 140.84685 196.05447 C 138.5354 191.30316 135.45348 185.9098 133.91251 184.0478 C 129.9959 179.29649 123.4468 171.8485 120.30067 168.44553 C 118.7597 166.84036 114.84308 162.41009 111.50433 158.49347 C 108.16557 154.64106 104.31316 150.46762 102.96482 149.18348 C 101.55227 147.96355 99.9471 146.42259 99.43344 145.84472 C 98.85558 145.26686 95.64524 143.46907 92.24228 141.8639 C 87.7478 139.74508 85.30794 138.1399 83.189115 135.82846 C 79.07988 131.39819 78.69464 128.7657 81.00608 119.3273 C 82.35443 113.74131 82.67546 110.72359 82.67546 104.75235 C 82.67546 98.01063 83.38174 94.02981 84.53746 93.9656 C 85.43635 93.9014 87.87621 91.39733 87.55518 90.81947 C 86.97732 89.85636 81.32712 91.91098 79.336705 93.77298 C 76.38319 96.59808 75.16326 100.06525 74.71381 107.38483 C 74.32857 112.90662 73.94333 114.576 72.59499 116.88744 C 70.73299 120.09778 69.76989 120.73985 66.04589 121.31771 C 63.02817 121.76716 60.5241 120.48302 56.15804 116.05275 C 53.84659 113.74131 50.44363 107.44904 49.544734 103.91766 C 48.517424 99.74422 37.987503 91.46154 36.18971 93.32353 C 35.676057 93.83719 36.18971 94.60767 37.923296 96.02022 C 40.49157 98.07484 42.032534 100.96415 42.93143 105.2018 C 45.17867 116.37379 46.077564 118.29999 52.30563 125.36274 C 54.93811 128.31626 63.22079 133.90225 71.43926 138.26832 C 73.55809 139.42404 76.96105 141.99231 79.01567 143.98273 C 83.12491 148.02776 82.99649 148.413 77.28209 148.4772 C 70.219334 148.60562 65.27541 146.35838 56.67169 139.23142 C 50.315216 133.90225 48.38901 132.61812 46.719633 132.36129 C 45.820737 132.23288 44.472394 131.78343 43.70191 131.33398 C 42.09674 130.43508 40.29895 130.30667 40.29895 131.14136 C 40.29895 131.4624 41.06943 132.23288 42.09674 132.81074 C 43.059843 133.4528 47.74694 137.88308 52.49825 142.69859 C 60.39569 150.66024 61.55141 151.55913 65.339615 152.90748 C 67.65106 153.74217 71.56768 154.70527 74.00754 155.0263 C 76.5116 155.34734 80.81346 155.9252 83.63856 156.24623 C 90.44449 157.08092 97.76407 160.48388 101.48806 164.52891 C 103.79951 167.09719 115.16412 180.4522 117.98922 184.112 C 118.88812 185.26772 118.7597 185.33193 112.40322 184.88248 C 105.91833 184.43303 103.79951 184.75407 94.74635 187.45075 C 93.78324 187.77179 93.65483 187.12972 93.78324 181.47952 C 93.84745 176.5356 93.59062 174.6736 92.69173 172.74739 C 91.02235 169.40863 86.01422 163.95105 84.53746 163.95105 C 82.93229 163.95105 82.99649 164.27209 85.11532 167.09719 C 87.81201 170.50015 88.51828 172.8758 88.58249 178.14076 C 88.6467 183.02048 87.29835 187.70758 85.8858 187.70758 C 84.47325 187.70758 78.05257 183.02048 77.34629 181.47952 C 77.02526 180.70904 76.4474 180.00276 76.19057 180.00276 C 75.93374 180.00276 74.71381 178.65442 73.55809 176.92083 C 70.09092 172.10532 67.20161 169.72967 63.47762 168.38132 C 58.662104 166.71195 57.05693 167.80346 61.101964 169.9865 C 64.63334 171.9127 68.22892 176.15035 71.11823 181.86476 C 72.65919 184.81827 74.97064 188.34965 76.31898 189.63379 C 78.56622 191.81682 83.63856 194.77033 85.11532 194.77033 C 85.43635 194.77033 85.8858 196.3113 86.07842 198.1091 C 86.27104 199.97109 87.10573 203.18143 87.94042 205.17184 C 93.59062 218.7837 106.62461 225.14017 131.79369 226.55272 C 143.80037 227.19478 146.68967 228.2221 150.47788 233.23023 C 151.76201 234.8996 153.62401 236.50478 154.71553 236.89002 C 155.80705 237.21105 156.77015 238.04574 156.89856 238.6236 C 156.96277 239.20146 157.60484 240.93505 158.37532 242.476 C 159.0816 243.95277 159.98049 247.0989 160.42994 249.41035 C 161.13621 253.26276 161.32883 253.648 162.54876 253.32697 C 163.31924 253.13435 164.60338 252.29966 165.37386 251.52917 L 166.91483 250.05242 L 169.80414 252.7491 C 173.39972 256.15207 174.2344 256.6015 177.0595 256.79414 C 178.27944 256.92255 179.49937 256.98676 179.8204 256.98676 C 180.07723 257.05096 180.26985 257.56462 180.26985 258.2709 C 180.26985 259.4266 183.09495 262.50854 189.32301 268.15874 C 191.9555 270.5344 191.9555 270.5986 191.57025 273.74474 C 191.185 276.56984 191.24922 276.95508 192.27653 276.95508 C 195.16583 276.95508 198.88983 272.20378 198.88983 268.544 C 198.88983 265.8473 202.2928 260.2613 203.89796 260.2613 C 204.47583 260.2613 205.69576 259.49082 206.53044 258.59193 C 207.36513 257.69303 208.9061 256.79414 209.9334 256.6015 C 211.7954 256.21627 216.86775 250.63028 216.86775 248.9609 C 216.86775 247.80518 216.73933 247.80518 219.75705 249.34614 C 221.1696 250.05242 223.0316 250.63028 223.9947 250.63028 C 225.7283 250.63028 225.7283 250.56607 225.40725 247.22732 C 225.08622 244.08118 225.21463 243.56753 226.884 241.76974 C 228.16815 240.4214 230.35118 239.32988 234.01097 238.10995 C 236.96448 237.14684 239.46855 236.18374 239.66117 235.8627 C 239.8538 235.54167 238.82648 234.38595 237.41393 233.23023 C 236.00138 232.0745 234.84566 230.85457 234.84566 230.40513 C 234.84566 230.01989 236.194 228.73575 237.9276 227.51582 C 242.42207 224.36968 251.1542 222.31506 260.14315 222.31506 C 266.62804 222.31506 270.9299 221.8014 281.07458 219.61838 C 286.21113 218.46265 291.79712 215.44493 294.75064 212.17039 C 297.51153 209.08846 300.33663 201.70467 300.52925 197.14599 L 300.65766 193.6146 L 304.8311 191.6884 C 312.66434 188.02862 318.18613 180.58062 319.27765 172.29794 C 319.8555 167.99608 320.8828 165.2994 322.7448 163.69422 C 324.22157 162.34588 324.5426 160.74071 323.25847 160.74071 C 322.16695 160.74071 318.37875 164.4005 316.25993 167.48243 C 315.36103 168.89498 313.69165 172.29794 312.53593 174.99463 C 310.86655 179.10387 309.90345 180.4522 307.27097 182.57103 C 304.95952 184.36883 303.41856 185.1393 301.9418 185.1393 C 298.9883 185.1393 297.76836 184.56145 297.76836 183.2131 C 297.76836 182.57103 297.3189 181.03007 296.80525 179.81014 C 296.2916 178.526 295.84215 175.7651 295.84215 173.7105 C 295.84215 170.56436 296.1632 169.40863 297.76836 167.09719 C 298.79567 165.55622 299.37353 164.01526 299.1167 163.75843 C 298.0252 162.66692 295.77795 164.72153 293.78753 168.63815 C 291.86133 172.23373 291.6687 173.19684 291.6687 178.26918 L 291.6687 183.85517 L 288.45837 183.46993 C 286.72478 183.2131 284.0923 182.63524 282.67975 182.12159 C 281.2672 181.60793 277.86424 181.03007 275.16755 180.83745 C 272.40666 180.64483 270.15942 180.25959 270.15942 180.06697 C 270.15942 179.87435 271.12252 178.4618 272.27824 177.04925 C 273.36976 175.57249 274.7823 173.7105 275.29596 172.8758 C 275.80962 172.10532 278.4421 169.21601 281.203 166.58353 C 289.7425 158.10823 297.83256 154.32003 312.2149 152.07279 C 327.04667 149.76134 332.63267 146.22997 337.89763 135.70004 C 339.31018 132.81074 341.3648 130.5635 343.2268 129.85722 C 344.76776 129.27936 345.153 127.35316 343.74045 127.35316 C 341.429 127.35316 338.86073 129.08674 333.46736 134.3517 C 325.05626 142.44176 324.35 142.7628 314.0127 143.21224 C 302.13442 143.7259 302.0702 143.7901 318.31454 134.67274 C 333.21053 126.19743 338.02604 120.54723 340.5301 108.47635 C 341.87845 101.92725 344.83197 95.44236 347.40024 93.25933 C 349.13382 91.78257 349.26224 91.46154 348.36334 91.07629 C 347.72127 90.81947 345.73086 91.71836 342.84156 93.58036 C 338.02604 96.7907 333.8526 102.18408 331.1559 108.79738 C 329.42233 112.90662 325.76254 116.56641 321.7817 118.10737 C 319.27765 119.07047 318.50716 119.13468 316.51675 118.3642 C 314.0127 117.52951 311.50862 115.6033 310.5455 113.74131 C 310.2245 113.09924 309.06876 108.60476 308.10566 103.66083 C 307.07835 98.78111 305.7942 93.9014 305.21635 92.80988 C 303.9322 90.37002 299.30932 87.54492 296.61263 87.54492 C 295.4569 87.54492 294.558 87.80175 294.558 88.12278 Z M 286.53216 191.49578 L 286.53216 191.49578 C 291.4761 192.45889 291.98974 192.77992 292.05395 195.02716 C 292.24657 199.58585 290.7056 203.05301 286.72478 206.84122 C 281.65244 211.72094 277.28638 212.68404 264.76604 211.52832 C 253.52985 210.4368 252.82357 210.11577 252.82357 206.5844 C 252.82357 202.47515 253.65826 200.9342 257.7675 197.65964 C 266.1786 190.85372 274.26866 189.18434 286.53216 191.49578 Z M 121.39218 196.69654 L 121.39218 196.69654 C 128.58335 200.0995 130.83059 202.9246 130.83059 208.5748 C 130.83059 211.72094 131.21583 211.4641 125.82245 211.78514 C 124.85935 211.84935 122.4837 212.2988 120.5575 212.74825 C 118.63129 213.1977 114.84308 213.58294 112.2106 213.64714 C 108.10137 213.64714 106.81723 213.3261 103.54268 211.65673 C 100.46075 210.11577 99.30503 209.08846 97.57145 206.26336 C 95.51683 202.8604 94.42531 199.90688 94.10428 196.69654 C 93.91166 195.21978 94.16848 195.02716 96.80096 194.70613 C 98.40613 194.5135 103.35006 194.25668 107.84454 194.25668 L 116.06301 194.12826 L 121.39218 196.69654 Z" fill="black"/>
        </g>
        <g id="Graphic_35">
          <path d="M 303.41856 92.74567 C 303.868 93.45195 305.21635 98.6527 306.37207 104.3029 C 308.6193 115.08965 309.06876 116.05275 313.178 118.68523 C 316.45255 120.73985 319.14923 121.06089 322.35957 119.84096 C 327.1751 117.97896 330.32122 115.15386 331.9264 111.30145 C 333.46736 107.38483 337.38397 100.57891 338.34708 100.00104 C 338.7323 99.74422 338.6681 100.19367 338.28287 100.96415 C 337.31977 102.76194 335.20094 109.69628 334.6231 112.90662 C 333.981 116.82324 335.26515 114.96124 336.93453 109.50366 C 338.6039 104.2387 339.567 103.40401 338.79652 107.89849 C 337.4482 116.11696 335.07253 120.54723 329.48653 125.23433 C 326.212 127.99522 318.6998 132.55391 312.2149 135.82846 C 310.09607 136.91997 307.4636 138.52515 306.37207 139.35983 C 305.28056 140.19452 303.9322 140.70818 303.35435 140.51556 C 302.8407 140.25873 302.19863 140.45135 301.9418 140.83659 C 301.68497 141.22183 300.9145 141.35025 300.2082 141.09342 C 299.2451 140.83659 298.282 141.41445 296.2916 143.53328 C 294.81484 145.13845 293.08126 146.551 292.5034 146.80783 C 291.86133 147.00045 291.34767 147.64252 291.34767 148.22038 C 291.34767 149.4403 291.28347 149.4403 294.3012 148.15617 C 297.89677 146.6152 302.19863 145.97314 312.53593 145.33107 C 317.67248 145.07424 322.87323 144.43217 324.09316 143.98273 C 326.4046 143.21224 329.80757 140.83659 333.65998 137.36942 L 335.9072 135.37901 L 334.7515 137.30522 C 329.61495 145.71631 325.89095 147.89934 312.92117 150.14658 C 301.74918 152.137 295.3285 153.93479 291.4761 156.18203 C 287.36685 158.55768 279.2768 164.65733 277.28638 166.77615 C 276.4517 167.67505 275.5528 168.44553 275.23176 168.44553 C 274.91072 168.44553 274.6539 168.76656 274.6539 169.21601 C 274.6539 169.60125 273.6266 171.46325 272.34245 173.32525 C 270.67307 175.7009 269.70997 176.5356 268.87528 176.34297 C 268.0406 176.15035 267.1417 176.92083 265.66494 179.16807 C 263.4819 182.37841 262.00515 183.85517 260.91363 183.85517 C 260.5926 183.85517 261.10625 183.02048 262.06936 181.99317 C 263.09667 180.96586 263.5461 180.00276 263.22508 179.74593 C 262.3904 179.23228 257.31805 184.49724 257.31805 185.84558 C 257.31805 186.42344 256.8686 187.25813 256.35495 187.70758 C 255.8413 188.15703 255.39185 188.7349 255.39185 189.05592 C 255.39185 189.7622 257.12543 189.8264 257.44646 189.12013 C 257.8317 188.15703 261.5557 185.9098 265.4081 184.36883 C 269.9668 182.50683 276.06645 182.12159 280.4325 183.53414 C 282.03768 183.98358 284.927 184.75407 286.8532 185.1393 C 291.41188 186.0382 291.92554 186.35924 292.24657 188.9275 C 292.4392 190.91792 292.375 191.04634 290.7698 190.6611 C 280.75355 188.41386 277.92845 188.15703 272.21404 189.05592 C 266.56384 189.89061 263.99556 190.85372 259.30846 194.12826 C 253.2088 198.3017 250.89737 201.44784 250.89737 205.7497 C 250.89737 207.93273 248.58592 210.56521 246.85234 210.30839 C 245.82503 210.11577 245.82503 210.30839 247.10916 212.68404 C 248.4575 215.31652 249.228 215.83017 249.87006 214.73866 C 250.83316 213.1977 255.7771 212.2988 260.5284 212.81245 C 263.16087 213.1335 267.2059 213.51873 269.45314 213.71135 C 271.70038 213.83976 273.6908 214.1608 273.8192 214.2892 C 274.5897 215.0597 266.05018 216.1512 256.8686 216.53645 C 246.98075 216.9217 246.33868 216.9859 244.99034 218.46265 L 243.51358 219.9394 L 245.11875 219.10472 C 246.14606 218.59107 250.89737 218.07741 257.96012 217.82059 C 264.12398 217.56376 270.48045 217.0501 272.08562 216.66486 C 273.6908 216.27962 275.23176 216.0228 275.5528 215.9586 C 275.80962 215.9586 275.93803 215.50914 275.6812 214.99549 C 275.4886 214.41762 275.6812 214.03238 276.19486 214.03238 C 277.4148 214.03238 283.64285 211.3357 285.8901 209.85894 C 288.8436 207.93273 290.5772 205.7497 292.5676 201.70467 C 294.23698 198.3017 294.3654 197.59543 294.23698 191.04634 C 294.10857 187.25813 293.85174 182.50683 293.5949 180.58062 C 292.88864 175.18725 294.17277 177.43449 296.42 185.46034 C 299.43773 196.2471 298.92408 202.79619 294.558 209.85894 C 292.5676 213.06928 285.56906 217.1143 280.3683 217.949 C 278.12107 218.33424 275.4886 218.9121 274.5897 219.23314 C 272.9203 219.8752 270.48045 220.13203 259.24426 220.7741 C 251.92468 221.15934 243.96303 222.6361 240.56007 224.11286 C 239.0191 224.81913 236.38662 226.4243 234.71725 227.70844 C 232.98366 228.99258 231.63532 229.76306 231.63532 229.37782 C 231.63532 228.2221 228.87442 229.50623 226.30615 231.81768 C 224.8936 233.0376 223.60946 233.8723 223.41684 233.61547 C 223.16001 233.35864 223.8663 232.58816 224.8936 231.81768 C 227.97553 229.57044 229.77332 227.3874 229.38808 226.2959 C 229.13125 225.71803 229.5807 224.88334 230.4796 224.24127 C 231.25008 223.5992 231.76373 222.89293 231.5069 222.7003 C 230.99325 222.12244 227.97553 223.72762 224.31574 226.55272 C 221.42643 228.73575 219.43602 229.44202 219.43602 228.1579 C 219.43602 227.83685 220.2707 227.13058 221.36222 226.55272 C 224.8294 224.75492 227.97553 222.37927 229.32387 220.51727 C 230.09435 219.48996 231.4427 217.69217 232.3416 216.53645 C 238.50545 208.4464 240.8169 204.59398 246.4029 193.16516 C 251.09 183.46993 253.2088 179.74593 255.13502 178.01235 C 256.48336 176.72821 260.01474 173.45366 262.96825 170.82118 C 265.92177 168.1245 269.1321 164.84995 270.15942 163.4374 C 271.18673 162.02485 272.27824 160.6765 272.6635 160.41968 C 273.04873 160.22706 274.5897 158.23664 276.06645 156.05361 C 279.5336 150.85286 286.0827 143.40486 287.17423 143.40486 C 287.62368 143.40486 288.13733 143.14804 288.26575 142.89121 C 288.39416 142.57018 290.89823 140.64397 293.91595 138.58935 C 296.93367 136.53473 300.0798 134.15908 300.9787 133.3886 C 301.8776 132.61812 303.6754 131.01295 305.02373 129.92143 C 307.07835 128.12364 307.3994 127.48157 307.3994 125.17012 C 307.3994 123.75757 306.6931 120.54723 305.7942 118.10737 C 304.51007 114.576 304.18904 112.45717 304.18904 107.70586 C 304.18904 100.45049 303.29014 96.02022 301.23553 93.0025 C 300.40084 91.71836 299.69456 90.56264 299.69456 90.43423 C 299.69456 89.72795 302.7123 91.65416 303.41856 92.74567 Z" fill="#FFFFFF"/>
        </g>
        <g id="Graphic_34">
          <path d="M 81.07029 95.24974 C 80.87767 95.57077 80.68505 99.48739 80.68505 103.91766 C 80.68505 109.11842 80.36401 113.42027 79.72195 115.98855 C 77.28209 125.8764 77.15367 127.09633 77.85995 130.30667 C 78.82305 134.54432 79.52933 135.70004 82.48284 137.81887 C 86.65628 140.83659 89.73821 142.7628 90.44449 142.7628 C 90.82973 142.7628 93.46221 144.30376 96.41572 146.22997 C 100.65337 148.99086 102.96482 151.1739 108.10137 157.27354 C 111.56854 161.44699 116.38405 166.90457 118.7597 169.40863 C 133.27045 184.75407 134.93982 187.25813 144.50664 207.6117 C 146.0476 210.95046 148.42326 214.93128 149.7716 216.47224 C 152.08305 219.16893 159.0816 224.69072 164.7318 228.2863 C 168.07055 230.46933 168.32738 231.36823 165.05283 229.37782 C 163.70449 228.54313 162.09932 227.64423 161.52145 227.259 C 160.9436 226.87375 160.17311 226.80954 159.91628 227.13058 C 159.65946 227.3874 159.85208 227.83685 160.36573 228.1579 C 162.22773 229.1852 166.33697 232.65237 165.6949 232.65237 C 165.30966 232.65237 163.96131 231.9461 162.67718 231.0472 C 160.0447 229.2494 159.72366 229.1852 159.72366 230.0841 C 159.72366 230.46933 161.0078 231.68926 162.67718 232.84499 C 166.46538 235.54167 165.18124 235.9269 160.9436 233.29443 C 159.1458 232.20292 157.47642 231.43244 157.2838 231.62506 C 157.09118 231.81768 158.05428 233.0376 159.46683 234.32174 C 161.39304 236.11953 161.58566 236.37636 160.17311 235.54167 C 159.1458 234.9638 157.86166 234.64278 157.348 234.8354 C 156.70594 235.09223 155.55022 234.45016 154.20187 233.0376 C 151.82622 230.59775 144.44244 225.58961 143.2225 225.58961 C 142.77306 225.58961 142.38782 225.26858 142.38782 224.94755 C 142.38782 224.24127 137.12286 221.7372 135.5819 221.7372 C 133.97672 221.7372 134.61879 222.89293 136.6092 223.5992 C 137.70072 223.92024 138.5354 224.36968 138.5354 224.5623 C 138.5354 225.01175 126.40031 224.36968 120.87853 223.5992 C 106.11096 221.54458 96.92938 217.1143 94.10428 210.75783 C 93.65483 209.79473 92.82014 208.83163 92.24228 208.70322 C 90.89394 208.31797 89.22456 203.43826 88.7109 198.2375 C 88.26145 194.25668 89.93083 182.25 91.02235 181.09428 C 91.27918 180.77324 91.34338 183.34152 91.15076 186.68027 C 90.76552 194.64192 91.79283 199.65005 95.00317 205.23605 C 98.21351 210.75783 99.30503 211.72094 104.44158 213.71135 C 109.19288 215.50914 114.32943 215.76597 119.97963 214.54604 C 126.72135 213.1335 133.7199 214.0966 136.80182 216.9859 C 137.70072 217.82059 138.79223 218.52686 139.17747 218.52686 C 140.01216 218.52686 140.01216 216.79328 139.11327 216.27962 C 138.72803 216.0228 138.66382 214.99549 138.92065 213.83976 C 139.30589 211.78514 139.30589 211.78514 138.02175 213.00507 C 136.67341 214.1608 136.67341 214.1608 137.05865 211.84935 C 137.5081 209.15266 136.99444 208.96004 135.26086 210.95046 L 134.10514 212.4272 L 134.04093 209.15266 C 134.04093 203.24563 130.18852 198.81536 121.5206 194.64192 L 117.02612 192.5231 L 106.43199 192.6515 C 100.58917 192.6515 96.2231 192.5873 96.67255 192.39468 C 97.95669 191.88103 97.50724 190.91792 95.96628 190.91792 C 90.38028 190.91792 96.92938 187.836 104.37737 187.0013 C 113.94419 185.84558 124.73094 187.51496 127.04238 190.46847 C 127.62024 191.17475 128.39073 191.56 128.84017 191.30316 C 130.18852 190.46847 127.42762 187.77179 124.08887 186.74448 C 121.5206 185.974 120.5575 185.26772 119.14494 183.08469 C 117.21874 180.06697 110.60543 172.04111 104.24896 164.91415 C 100.9102 161.25437 99.17662 159.90602 94.81055 157.7872 C 88.45408 154.64106 87.94042 154.51265 77.53891 153.42113 C 68.0363 152.39382 63.60603 150.85286 59.239966 147.12886 C 55.96542 144.36797 47.55432 135.05798 48.324804 135.05798 C 48.77425 135.05798 52.30563 137.75466 57.95583 142.44176 C 65.98168 149.11927 68.80678 150.08238 81.39132 150.14658 C 86.14263 150.21079 90.82973 150.46762 91.85704 150.72444 C 92.82014 151.04548 93.59062 150.98127 93.59062 150.72444 C 93.59062 149.95396 90.70131 148.66983 87.81201 148.15617 C 86.27104 147.83514 84.21642 146.4868 81.39132 143.7259 C 77.85995 140.38714 71.24664 136.02108 62.45031 131.26977 C 59.561 129.72881 54.809694 125.8764 52.62666 123.43654 C 50.315216 120.73985 48.902665 118.04317 47.3617 113.16345 C 46.655426 111.10883 45.884944 108.9258 45.56391 108.28373 C 44.665014 106.55014 44.08715 100.25787 44.857635 100.77153 C 45.17867 100.96415 46.912253 104.11028 48.710045 107.77007 C 51.535145 113.80551 52.369834 114.83282 56.67169 118.62103 C 62.12927 123.37233 63.734444 124.0144 67.45844 122.85868 C 71.37506 121.70295 72.65919 120.61144 74.52119 116.88744 C 75.86954 114.19076 76.31898 112.26455 76.64002 106.80697 C 76.96105 101.09256 77.28209 99.68001 78.75884 97.36856 C 79.65774 95.8276 80.68505 94.60767 80.94188 94.60767 C 81.26291 94.60767 81.26291 94.8645 81.07029 95.24974 Z" fill="#FFFFFF"/>
        </g>
        <g id="Graphic_33">
          <path d="M 339.567 103.78925 C 338.92494 104.36711 338.86073 104.3029 339.24597 103.40401 C 339.4386 102.76194 339.82383 102.4409 340.01645 102.63352 C 340.20907 102.82615 340.01645 103.3398 339.567 103.78925 Z" fill="#FFFFFF"/>
        </g>
        <g id="Graphic_32">
          <path d="M 298.92408 143.40486 C 297.44732 145.39528 297.1263 145.6521 297.1263 144.81742 C 297.1263 144.23955 299.56615 141.47866 300.0798 141.47866 C 300.2082 141.47866 299.75877 142.31335 298.92408 143.40486 Z" fill="#FFFFFF"/>
        </g>
        <g id="Graphic_31">
          <path d="M 302.26284 143.08383 C 301.8134 143.6617 301.29973 143.91852 301.0429 143.7259 C 300.8503 143.53328 301.1071 143.08383 301.62077 142.7628 C 302.9691 141.8639 303.16173 141.99231 302.26284 143.08383 Z" fill="#FFFFFF"/>
        </g>
        <g id="Graphic_30">
          <path d="M 316.0673 175.95773 C 315.55365 178.84704 312.4075 184.1762 310.03186 186.29503 C 307.6562 188.41386 300.9145 191.75261 300.27242 191.11054 C 300.0156 190.85372 299.56615 189.8264 299.37353 188.7991 C 298.92408 187.12972 298.9883 187.06551 301.49235 187.06551 C 305.73 187.06551 311.95807 182.12159 314.59055 176.72821 C 315.36103 174.99463 316.1315 173.58208 316.25993 173.58208 C 316.45255 173.58208 316.32413 174.6736 316.0673 175.95773 Z" fill="#FFFFFF"/>
        </g>
        <g id="Graphic_29">
          <path d="M 81.45553 187.70758 L 84.28063 189.24854 L 82.03339 189.7622 C 80.10719 190.14744 79.52933 189.95482 78.05257 188.47806 C 76.31898 186.74448 71.7603 179.55331 71.7603 178.5902 C 71.7603 178.26918 73.30126 179.87435 75.16326 182.05738 C 77.02526 184.30462 79.85036 186.80869 81.45553 187.70758 Z" fill="#FFFFFF"/>
        </g>
        <g id="Graphic_28">
          <path d="M 251.53944 210.24418 C 251.53944 210.56521 251.2826 210.82204 250.89737 210.82204 C 250.57633 210.82204 250.2553 210.3726 250.2553 209.79473 C 250.2553 209.28108 250.57633 209.02425 250.89737 209.21687 C 251.2826 209.4095 251.53944 209.85894 251.53944 210.24418 Z" fill="#FFFFFF"/>
        </g>
        <g id="Graphic_27">
          <path d="M 197.09204 223.4708 C 198.05514 223.92024 199.33928 225.01175 199.91714 225.84644 C 200.88024 227.3874 202.67803 228.47892 203.1917 227.90106 C 203.3843 227.77265 202.80645 226.68113 202.03597 225.58961 C 200.75183 223.92024 200.68762 223.535 201.4581 222.95713 C 202.03597 222.6361 203.64114 222.5719 205.31051 222.82872 C 208.26403 223.27817 209.09872 223.27817 214.6847 222.95713 C 216.86775 222.89293 218.4087 223.14975 219.3718 223.79182 L 220.84857 224.81913 L 219.43602 225.58961 C 218.2803 226.23168 217.50981 226.16748 215.5194 225.20437 C 212.88692 224.04865 211.08913 224.5623 213.27216 225.84644 C 215.391 227.06637 218.60133 230.46933 219.69285 232.52395 C 220.91278 234.8354 222.0685 235.60588 225.7925 236.44057 C 229.19546 237.14684 232.59842 235.7985 232.08476 233.8723 C 231.89214 233.16602 232.02056 232.52395 232.3416 232.33133 C 233.11207 231.81768 236.90028 234.70698 236.32242 235.28485 C 236.00138 235.60588 234.13938 236.24795 232.14897 236.7616 C 230.09435 237.27526 227.7187 238.23836 226.884 238.88043 C 224.70098 240.4856 222.51795 245.1727 223.0316 247.0989 C 223.35264 248.31883 223.16001 248.70407 222.45374 248.70407 C 220.91278 248.70407 217.63823 245.62215 217.3814 244.01698 C 217.25299 243.2465 216.73933 242.60442 216.22568 242.60442 C 215.5194 242.60442 215.19837 243.56753 214.94154 246.2642 C 214.74892 248.38304 214.17106 250.37345 213.5932 250.9513 C 212.6301 251.91442 212.50168 251.8502 212.11644 249.924 C 211.60278 247.29152 209.9334 244.65904 209.16292 245.1727 C 208.77768 245.42953 208.9061 246.45683 209.48396 247.86939 C 210.96072 251.33655 210.7039 253.07014 208.39244 255.18896 C 207.23672 256.21627 206.081 257.05096 205.82417 257.05096 C 205.50314 257.05096 205.31051 255.76683 205.31051 254.22586 C 205.31051 250.8229 204.79686 249.34614 203.70534 249.34614 C 203.1917 249.34614 202.99907 250.24504 203.2559 252.42807 C 203.57693 255.89524 202.80645 257.88565 199.66031 261.54544 L 197.7341 263.79268 L 197.02783 261.9949 C 196.6426 260.96758 196.32156 259.3624 196.32156 258.3351 C 196.32156 257.3078 196.00052 255.70262 195.61528 254.73952 C 195.29425 253.7122 194.97321 250.8229 194.97321 248.25463 C 194.97321 245.68635 194.71639 243.56753 194.39535 243.56753 C 193.36804 243.56753 192.9828 249.15352 193.68908 252.6207 C 194.07432 254.41848 194.58797 258.59193 194.71639 261.80227 L 195.03742 267.6451 L 192.9828 263.47165 C 191.82708 261.1602 190.28612 258.01407 189.64405 256.4089 C 188.61674 254.03324 188.3599 253.7764 188.1673 254.93214 C 187.91046 256.15207 188.87357 258.91296 191.57025 265.20523 C 192.9186 268.15874 192.72598 268.22295 189.83667 265.9115 C 182.7097 260.1971 182.5813 260.06868 182.5813 256.4731 C 182.5813 253.07014 182.06764 252.42807 180.97612 254.29007 C 180.39826 255.31738 180.20564 255.31738 179.62778 254.4827 C 178.7931 253.26276 178.7931 251.27235 179.62778 251.27235 C 180.01302 251.27235 180.26985 250.43766 180.26985 249.41035 C 180.26985 246.90628 181.23295 244.46642 183.15916 242.15498 C 184.76433 240.29298 185.27798 238.43098 184.18647 238.43098 C 182.96654 238.43098 178.98571 245.49373 178.98571 247.67676 C 178.98571 249.08932 178.60047 249.9882 177.9584 250.24504 C 177.12371 250.56607 176.9953 251.20814 177.25213 253.13435 L 177.57316 255.6384 L 175.51854 254.41848 C 174.106 253.648 173.1429 252.29966 172.56503 250.6945 C 171.66613 247.86939 172.17979 246.45683 175.26172 243.3107 C 177.0595 241.3845 177.50896 240.35719 176.48165 240.35719 C 175.32592 240.35719 172.56503 243.05387 171.15248 245.62215 L 169.67572 248.25463 L 169.35469 246.45683 C 168.84103 243.76015 167.6211 243.82435 166.20855 246.64946 C 164.98862 249.0251 162.934 250.6945 162.934 249.34614 C 162.934 248.9609 163.19083 248.70407 163.57607 248.70407 C 163.8971 248.70407 164.7318 247.41994 165.43807 245.81477 C 166.5938 243.1823 167.17165 242.73284 171.60193 240.74243 C 176.0322 238.6878 177.83 237.08264 176.80268 236.05533 C 176.61006 235.8627 175.90378 236.11953 175.32592 236.6974 C 174.68385 237.21105 171.98717 238.6878 169.29048 239.90774 C 165.11704 241.76974 164.28235 242.476 163.64028 244.2738 L 162.8698 246.45683 L 161.9067 244.2738 C 160.68676 241.3203 160.68676 241.19187 163.44766 239.77932 C 164.98862 239.00884 166.52959 237.33946 167.94214 235.02802 C 169.16207 233.0376 170.83144 230.983 171.66613 230.40513 C 173.97758 228.92837 173.59234 228.09368 170.76724 228.54313 C 168.96945 228.79996 168.13476 228.67154 167.49269 227.90106 C 166.5938 226.80954 166.52959 226.93796 169.61151 225.97485 C 170.12517 225.78223 173.07868 227.13058 176.16061 228.86416 C 179.17833 230.59775 181.87502 231.9461 182.06764 231.75347 C 182.51709 231.23981 180.91192 229.44202 180.01302 229.44202 C 179.62778 229.44202 178.0226 228.54313 176.41744 227.4516 C 174.81227 226.3601 174.106 225.65382 174.81227 225.91065 C 176.16061 226.4243 182.7097 226.3601 183.6086 225.84644 C 183.92964 225.65382 183.99385 225.20437 183.80123 224.88334 C 183.5444 224.5623 184.25067 224.30548 185.3422 224.30548 C 187.13998 224.30548 188.1673 225.14017 190.35032 228.54313 C 191.0566 229.63464 191.1208 229.63464 191.1208 228.02947 C 191.185 227.06637 190.47874 225.4612 189.51563 224.36968 C 188.61674 223.27817 188.10308 222.37927 188.42412 222.37927 C 189.32301 222.37927 191.37763 224.94755 192.8544 227.70844 C 193.49646 229.05678 194.33115 230.34092 194.58797 230.53354 C 195.8721 231.36823 195.61528 229.95568 193.8175 226.2959 C 192.72598 224.17706 191.82708 222.25086 191.82708 222.05824 C 191.82708 221.54458 195.03742 222.37927 197.09204 223.4708 Z" fill="#FFFFFF"/>
        </g>
        <g id="Graphic_26">
          <path d="M 225.9209 228.79996 C 223.35264 231.1756 221.36222 232.0745 221.36222 230.85457 C 221.36222 230.40513 227.7187 226.2959 228.42498 226.2959 C 228.6176 226.2959 227.46187 227.4516 225.9209 228.79996 Z" fill="#FFFFFF"/>
        </g>
        <g id="Graphic_25">
          <path d="M 227.7829 234.57857 C 227.7829 234.8996 227.6545 235.22064 227.52608 235.22064 C 227.33346 235.22064 227.01243 234.8996 226.8198 234.57857 C 226.62718 234.19333 226.7556 233.9365 227.07663 233.9365 C 227.46187 233.9365 227.7829 234.19333 227.7829 234.57857 Z" fill="#FFFFFF"/>
        </g>
        <g id="Graphic_24">
          <path d="M 311.1876 121.70295 C 311.1876 121.83137 311.05917 123.1155 310.93076 124.59226 C 310.73814 127.35316 311.3802 128.25205 312.1507 126.32585 C 312.79276 124.72068 312.60014 121.57454 311.89386 121.57454 C 311.57283 121.57454 311.2518 121.63875 311.1876 121.70295 Z" fill="black"/>
        </g>
        <g id="Graphic_23">
          <path d="M 318.37875 126.06902 C 316.1315 128.18785 314.39793 130.11405 314.65475 130.30667 C 315.04 130.69191 324.09316 123.50075 324.09316 122.73026 C 324.09316 121.44613 322.16695 122.53764 318.37875 126.06902 Z" fill="black"/>
        </g>
        <g id="Graphic_22">
          <path d="M 314.9116 125.10592 C 314.2053 126.51847 314.0769 127.41736 314.52634 127.7384 C 314.9116 127.93102 315.2326 127.99522 315.36103 127.93102 C 317.8009 124.27123 318.18613 122.85868 316.8378 122.85868 C 316.38834 122.85868 315.48944 123.88599 314.9116 125.10592 Z" fill="black"/>
        </g>
        <g id="Graphic_21">
          <path d="M 294.75064 150.14658 C 288.13733 151.75175 279.85465 156.43885 274.52548 161.5112 C 271.8288 164.07947 269.38894 166.84036 269.1963 167.61084 C 268.61845 169.72967 269.70997 169.40863 271.0583 167.09719 C 272.47086 164.72153 275.93803 161.44699 280.62513 158.23664 C 285.69747 154.70527 290.96243 152.45803 297.3189 151.10969 C 299.30932 150.72444 300.9787 150.08238 300.9787 149.76134 C 300.9787 148.99086 298.92408 149.11927 294.75064 150.14658 Z" fill="black"/>
        </g>
        <g id="Graphic_20">
          <path d="M 259.6295 176.92083 C 256.7402 178.5902 252.43833 185.0109 250.89737 189.95482 C 250.44792 191.36737 249.09958 194.4493 247.94385 196.76074 C 246.72392 199.0722 245.76082 201.19102 245.76082 201.44784 C 245.76082 202.28253 240.30324 209.66632 238.44124 211.3999 C 236.96448 212.81245 236.194 214.67445 237.0929 214.67445 C 238.50545 214.67445 247.68703 202.60357 247.68703 200.80578 C 247.68703 200.29212 248.3933 198.81536 249.228 197.46702 C 250.06268 196.11868 251.47523 192.97254 252.43833 190.34006 C 254.30033 185.26772 256.8686 181.09428 260.07894 178.07656 C 262.13356 176.15035 261.94094 175.57249 259.6295 176.92083 Z" fill="black"/>
        </g>
        <g id="Graphic_19">
          <path d="M 263.4177 187.0013 C 259.5653 187.9644 256.0339 190.40427 256.0339 192.13785 C 256.09812 193.10096 256.16233 193.10096 256.8686 192.13785 C 257.8317 190.85372 262.13356 188.67068 264.89446 188.02862 C 265.98597 187.836 266.94908 187.32234 266.94908 187.0013 C 266.94908 186.35924 266.1786 186.35924 263.4177 187.0013 Z" fill="black"/>
        </g>
        <g id="Graphic_18">
          <path d="M 63.15658 126.00481 C 62.707135 126.64688 66.30272 129.92143 67.45844 129.92143 C 67.84368 129.92143 67.20161 128.89412 65.98168 127.67419 C 63.54182 125.17012 63.60603 125.23433 63.15658 126.00481 Z" fill="black"/>
        </g>
        <g id="Graphic_17">
          <path d="M 71.7603 125.9406 C 71.7603 127.22474 73.87912 132.4897 74.39278 132.4897 C 74.97064 132.4897 74.52119 129.40777 73.6223 126.8395 C 73.10864 125.49116 71.7603 124.84909 71.7603 125.9406 Z" fill="black"/>
        </g>
        <g id="Graphic_16">
          <path d="M 67.90789 126.71109 C 67.90789 127.09633 68.164716 127.86681 68.48575 128.50888 C 68.80678 129.08674 69.25623 130.17826 69.51306 130.82033 C 69.76989 131.71922 70.09092 131.84763 70.54037 131.39819 C 71.05402 130.88453 70.92561 129.98564 70.15513 128.38047 C 69.12782 126.19743 67.90789 125.29854 67.90789 126.71109 Z" fill="black"/>
        </g>
        <g id="Graphic_15">
          <path d="M 89.09614 151.75175 C 89.09614 152.52224 90.5729 153.54954 92.49911 153.999 C 93.78324 154.32003 94.23269 154.19161 94.23269 153.54954 C 94.23269 153.03589 93.14117 152.32961 91.66442 151.94437 C 90.25187 151.62334 89.09614 151.49493 89.09614 151.75175 Z" fill="black"/>
        </g>
        <g id="Graphic_14">
          <path d="M 108.3582 165.62043 C 108.3582 166.13408 120.42908 181.15848 121.19956 181.60793 C 123.18997 182.82786 120.6217 178.91124 114.45784 171.46325 C 109.89916 165.87726 108.3582 164.4005 108.3582 165.62043 Z" fill="black"/>
        </g>
        <g id="Graphic_13">
          <path d="M 122.4837 192.20206 C 122.4837 192.5873 123.12577 193.10096 123.96046 193.422 C 124.73094 193.74302 126.07928 194.77033 126.91397 195.66923 C 127.81287 196.56812 128.90438 197.3386 129.48224 197.3386 C 130.70217 197.3386 127.36342 193.74302 124.92356 192.45889 C 122.86894 191.36737 122.4837 191.36737 122.4837 192.20206 Z" fill="black"/>
        </g>
        <g id="Graphic_12">
          <path d="M 137.82913 204.52977 C 139.81954 208.5106 142.00258 213.3261 142.64464 215.25231 C 143.92878 219.23314 148.29485 224.24127 151.31257 225.397 C 152.46829 225.78223 153.30298 225.84644 153.30298 225.5254 C 153.30298 225.20437 152.5967 224.69072 151.82622 224.36968 C 149.12953 223.34237 145.34133 218.27003 143.73616 213.64714 C 142.1952 209.08846 137.82913 200.42053 136.09555 198.43012 C 133.91251 195.92606 134.42617 197.72385 137.82913 204.52977 Z" fill="black"/>
        </g>
        <g id="Graphic_11">
          <path d="M 128.90438 215.9586 C 128.0697 216.53645 128.0697 216.66486 128.84017 217.17852 C 129.9959 217.949 132.94941 217.62797 133.20624 216.79328 C 133.33465 216.40804 132.821 215.9586 131.98631 215.70176 C 130.0601 215.1881 130.0601 215.25231 128.90438 215.9586 Z" fill="black"/>
        </g>
        <g id="Graphic_10">
          <path d="M 104.50578 217.56376 C 106.11096 219.55417 109.83495 220.51727 115.61357 220.58148 C 119.08074 220.58148 121.5848 220.32465 122.03425 219.8752 C 122.5479 219.36155 121.13535 219.16893 116.38405 219.23314 C 111.1833 219.23314 109.3855 219.04052 106.81723 217.949 C 104.37737 216.85748 103.86372 216.79328 104.50578 217.56376 Z" fill="black"/>
        </g>
        <g id="Graphic_9">
          <path d="M 131.0232 218.9121 C 130.50955 220.19624 130.70217 220.32465 133.97672 220.51727 C 135.83872 220.6457 136.93024 220.45307 137.12286 219.9394 C 137.31548 219.23314 136.545 218.9121 135.19665 219.10472 C 134.93982 219.10472 133.97672 218.8479 133.07783 218.52686 C 131.79369 218.0132 131.34424 218.14162 131.0232 218.9121 Z" fill="black"/>
        </g>
        <g id="Graphic_8">
          <path d="M 209.805 226.68113 C 209.805 226.87375 210.7039 228.02947 211.7312 229.2494 C 212.82271 230.40513 213.6574 231.75347 213.6574 232.1387 C 213.6574 232.52395 214.29947 233.74388 215.13416 234.8354 C 217.06037 237.33946 219.1792 241.96236 219.75705 244.65904 C 220.01388 245.81477 220.46333 246.77787 220.78436 246.77787 C 221.68326 246.77787 221.49064 243.82435 220.39912 241.19187 C 219.88547 239.97194 219.43602 238.88043 219.43602 238.81622 C 219.43602 238.6878 220.33491 238.75201 221.36222 238.94464 C 223.73788 239.26567 223.9305 238.10995 221.55484 237.46788 C 219.56443 237.01843 215.96885 233.35864 213.7216 229.57044 C 212.88692 228.1579 211.667 226.80954 210.96072 226.68113 C 210.31865 226.4885 209.805 226.4885 209.805 226.68113 Z" fill="black"/>
        </g>
        <g id="Graphic_7">
          <path d="M 208.19982 229.44202 C 209.16292 232.58816 209.9334 235.60588 210.31865 238.04574 C 210.7681 240.614 212.37327 242.09077 212.37327 239.90774 C 212.37327 237.5963 209.9334 229.95568 208.8419 228.86416 C 207.81458 227.90106 207.75037 227.96527 208.19982 229.44202 Z" fill="black"/>
        </g>
        <g id="Graphic_6">
          <path d="M 172.56503 232.1387 C 172.56503 232.52395 171.98717 233.55126 171.21669 234.32174 C 170.4462 235.15643 170.18938 235.8627 170.51041 236.11953 C 171.15248 236.50478 174.49123 233.0376 174.49123 231.9461 C 174.49123 231.62506 174.04179 231.36823 173.52813 231.36823 C 173.01448 231.36823 172.56503 231.68926 172.56503 232.1387 Z" fill="black"/>
        </g>
        <g id="Graphic_5">
          <path d="M 201.00866 232.9092 C 202.54962 236.95422 201.97176 241.4487 199.33928 244.98008 C 198.633 245.87897 198.31197 246.9705 198.5688 247.41994 C 199.91714 249.53876 203.3843 242.476 203.3843 237.53208 C 203.3843 233.42285 202.93486 232.0103 201.65073 232.0103 C 201.07286 232.0103 200.81604 232.39554 201.00866 232.9092 Z" fill="black"/>
        </g>
        <g id="Graphic_4">
          <path d="M 187.97467 246.39263 C 187.97467 247.9978 188.2957 249.34614 188.61674 249.34614 C 189.00198 249.34614 189.2588 248.19042 189.2588 246.84208 C 189.2588 245.42953 189.00198 244.08118 188.61674 243.88856 C 188.2315 243.63173 187.97467 244.65904 187.97467 246.39263 Z" fill="black"/>
        </g>
      </g>
    </g>
  </g>
</svg>
