<?xml version="1.0" encoding="UTF-8" standalone="no"?>
<!DOCTYPE svg PUBLIC "-//W3C//DTD SVG 1.1//EN" "http://www.w3.org/Graphics/SVG/1.1/DTD/svg11.dtd">
<svg xmlns="http://www.w3.org/2000/svg" xmlns:dc="http://purl.org/dc/elements/1.1/" version="1.1" xmlns:xl="http://www.w3.org/1999/xlink" viewBox="101.25 61.59375 99 353.8125" width="99" height="353.8125">
  <defs>
    <clipPath id="artboard_clip_path">
      <path d="M 101.25 61.59375 L 200.25 61.59375 L 200.25 415.40625 L 101.25 415.40625 Z"/>
    </clipPath>
  </defs>
  <g id="Sword_(4)" fill-opacity="1" stroke="none" stroke-dasharray="none" stroke-opacity="1" fill="none">
    <title>Sword (4)</title>
    <g id="Sword_(4)_Layer_2" clip-path="url(#artboard_clip_path)">
      <title>Layer 2</title>
      <g id="Group_3">
        <g id="Graphic_20">
          <title>rect27</title>
          <rect x="145.062" y="333.10637" width="11.254413" height="56.27199" stroke="black" stroke-linecap="round" stroke-linejoin="round" stroke-width="2"/>
        </g>
        <g id="Graphic_19">
          <title>rect32</title>
          <rect x="145.062" y="335.92012" width="11.254413" height="47.83116" stroke="black" stroke-linecap="round" stroke-linejoin="round" stroke-width="1"/>
        </g>
        <g id="Graphic_18">
          <title>rect37</title>
          <rect x="145.062" y="338.73327" width="11.254413" height="42.203993" stroke="black" stroke-linecap="round" stroke-linejoin="round" stroke-width="1"/>
        </g>
        <g id="Graphic_17">
          <title>rect42</title>
          <rect x="145.062" y="341.54727" width="11.254413" height="36.57675" stroke="black" stroke-linecap="round" stroke-linejoin="round" stroke-width="1"/>
        </g>
        <g id="Graphic_16">
          <title>rect47</title>
          <rect x="145.062" y="344.3604" width="11.254413" height="30.94958" stroke="black" stroke-linecap="round" stroke-linejoin="round" stroke-width="1"/>
        </g>
        <g id="Graphic_15">
          <title>rect52</title>
          <rect x="145.062" y="347.1743" width="11.254413" height="25.32241" stroke="black" stroke-linecap="round" stroke-linejoin="round" stroke-width="1"/>
        </g>
        <g id="Graphic_14">
          <title>rect57</title>
          <rect x="145.062" y="349.9875" width="11.254413" height="19.695166" stroke="black" stroke-linecap="round" stroke-linejoin="round" stroke-width="1"/>
        </g>
        <g id="Graphic_13">
          <title>rect62</title>
          <rect x="145.062" y="352.8014" width="11.254413" height="14.067998" stroke="black" stroke-linecap="round" stroke-linejoin="round" stroke-width="1"/>
        </g>
        <g id="Graphic_12">
          <title>rect67</title>
          <rect x="145.062" y="355.6146" width="11.254413" height="8.440829" stroke="black" stroke-linecap="round" stroke-linejoin="round" stroke-width="1"/>
        </g>
        <g id="Graphic_11">
          <title>rect72</title>
          <rect x="145.062" y="358.42854" width="11.254413" height="2.8135995" stroke="black" stroke-linecap="round" stroke-linejoin="round" stroke-width="1"/>
        </g>
        <g id="Graphic_10">
          <title>path80</title>
          <path d="M 156.22432 414 L 145.15037 414 L 137.32458 406.16665 L 137.32458 395.10025 L 145.15037 387.2669 L 156.22432 387.2669 L 164.05012 395.10025 L 164.05012 406.16665 Z" fill="#FFFFFF"/>
          <path d="M 156.22432 414 L 145.15037 414 L 137.32458 406.16665 L 137.32458 395.10025 L 145.15037 387.2669 L 156.22432 387.2669 L 164.05012 395.10025 L 164.05012 406.16665 Z" stroke="black" stroke-linecap="round" stroke-linejoin="round" stroke-width="2"/>
        </g>
        <g id="Graphic_9">
          <title>path85</title>
          <circle cx="150.68735" cy="400.63345" r="8.44143308898441" stroke="black" stroke-linecap="round" stroke-linejoin="round" stroke-width="1"/>
        </g>
        <g id="Graphic_8">
          <title>rect93</title>
          <rect x="116.926" y="321.8516" width="67.5264" height="11.254413" fill="#FFFFFF"/>
          <rect x="116.926" y="321.8516" width="67.5264" height="11.254413" stroke="black" stroke-linecap="round" stroke-linejoin="round" stroke-width="2"/>
        </g>
        <g id="Graphic_7">
          <title>path98</title>
          <circle cx="111.29943" cy="327.48237" r="8.44143308898439" fill="#FFFFFF"/>
          <circle cx="111.29943" cy="327.48237" r="8.44143308898439" stroke="black" stroke-linecap="round" stroke-linejoin="round" stroke-width="2"/>
        </g>
        <g id="Graphic_6">
          <title>path103</title>
          <circle cx="190.0801" cy="327.48237" r="8.44143308898439" fill="#FFFFFF"/>
          <circle cx="190.0801" cy="327.48237" r="8.44143308898439" stroke="black" stroke-linecap="round" stroke-linejoin="round" stroke-width="2"/>
        </g>
        <g id="Graphic_5">
          <title>path111</title>
          <path d="M 139.54806 108.02098 L 139.43475 108.02098 L 150.8033 63 L 162.1794 108.02098 L 162.05854 108.02098 L 162.05854 321.8555 L 139.54806 321.8555 Z" fill="#FFFFFF"/>
          <path d="M 139.54806 108.02098 L 139.43475 108.02098 L 150.8033 63 L 162.1794 108.02098 L 162.05854 108.02098 L 162.05854 321.8555 L 139.54806 321.8555 Z" stroke="black" stroke-linecap="round" stroke-linejoin="round" stroke-width="2"/>
        </g>
        <g id="Graphic_4">
          <title>path116</title>
          <path d="M 149.39896 96.76717 C 149.37282 95.72946 149.63475 94.74741 150.08023 94.21287 C 150.52572 93.67833 151.08224 93.67833 151.52773 94.21287 C 151.97321 94.74741 152.23514 95.72946 152.209 96.76717 L 152.209 321.8494 L 149.39896 321.8494 Z" stroke="black" stroke-linecap="round" stroke-linejoin="round" stroke-width="1"/>
        </g>
      </g>
    </g>
  </g>
</svg>
