<?xml version="1.0" encoding="UTF-8" standalone="no"?>
<!DOCTYPE svg PUBLIC "-//W3C//DTD SVG 1.1//EN" "http://www.w3.org/Graphics/SVG/1.1/DTD/svg11.dtd">
<svg xmlns="http://www.w3.org/2000/svg" xmlns:xl="http://www.w3.org/1999/xlink" version="1.1" xmlns:dc="http://purl.org/dc/elements/1.1/" viewBox="36 99 292.5 279" width="292.5" height="279">
  <defs>
    <clipPath id="artboard_clip_path">
      <path d="M 36 99 L 328.5 99 L 328.5 378 L 36 378 Z"/>
    </clipPath>
  </defs>
  <g id="Tree_Stump_Eradicated_(2)" stroke-opacity="1" fill="none" fill-opacity="1" stroke-dasharray="none" stroke="none">
    <title>Tree Stump Eradicated (2)</title>
    <g id="Tree_Stump_Eradicated_(2)_Art" clip-path="url(#artboard_clip_path)">
      <title>Art</title>
      <g id="Group_317">
        <g id="Graphic_361">
          <path d="M 149.68011 102.98663 C 144.42009 104.69259 135.46383 106.9672 129.77732 107.96233 C 117.40915 110.09478 111.29615 113.50668 107.17343 120.3305 C 103.61936 125.87485 104.04585 130.99271 108.73722 144.35602 C 112.00696 153.73877 113.57075 175.63184 113.42859 209.0401 C 113.28643 235.90888 112.57562 238.8943 103.90368 249.41435 C 100.7761 253.3949 99.92312 253.67924 91.39335 253.3949 C 78.5987 252.96842 75.47112 254.67438 69.50028 265.19443 C 64.382415 274.435 63.6716 274.8615 54.288854 276.4253 C 50.45046 277.1361 47.6072 278.98422 43.910967 283.2491 C 41.209873 286.51885 38.93527 290.35725 38.93527 291.77888 C 38.93527 294.90646 41.209873 295.1908 42.347176 292.20536 C 43.768804 288.36697 50.02397 287.0875 58.411576 288.6513 C 67.51 290.2151 73.907325 288.2248 81.01547 281.401 C 86.84414 275.71448 92.67282 274.29285 98.5015 276.7096 C 101.20259 277.84692 104.75666 278.6999 106.60478 278.6999 C 109.73236 278.6999 110.01668 279.26855 110.01668 286.09236 C 110.01668 295.4751 109.30587 296.3281 101.20259 300.02432 C 93.95228 303.1519 93.66796 303.72055 92.24633 313.67195 C 91.67768 317.51035 90.25605 322.20172 89.11875 323.90768 C 87.98145 325.7558 87.27063 327.6039 87.69712 327.88824 C 89.40307 329.5942 94.94742 325.61363 97.64852 320.63793 C 100.49177 315.52007 101.77124 314.80925 109.30587 312.96114 C 124.37513 309.54923 125.08594 308.98058 130.6303 298.46053 C 136.03248 288.2248 137.59627 286.80318 145.27307 285.09722 C 149.25363 284.24425 149.82228 284.52857 149.82228 287.0875 C 149.82228 288.6513 148.68497 290.78374 147.26335 291.77888 C 141.15034 296.3281 138.44925 301.73027 138.44925 309.54923 C 138.44925 318.079 135.606 326.0401 130.77246 331.30014 C 126.22325 336.27584 125.2281 341.3937 127.78704 347.64887 C 130.48813 354.0462 133.18923 353.47755 134.32653 346.3694 C 135.32167 340.54073 137.02762 338.83477 142.99846 337.5553 C 149.25363 336.13368 152.09688 332.15312 154.79798 321.2066 C 157.3569 310.8287 162.47477 303.1519 165.46019 305.00002 C 166.31317 305.56867 166.5975 309.2649 166.02884 314.6671 C 165.46019 321.34875 165.74451 325.04498 167.7348 329.8785 C 169.01426 333.4326 170.29373 339.1191 170.43589 342.67317 C 170.86238 349.92347 173.13698 351.62943 175.55375 346.3694 C 177.6862 341.67803 180.38729 341.67803 183.3727 346.22724 C 185.78947 349.92347 186.0738 353.47755 184.65217 360.5857 C 183.3727 366.41436 186.21596 376.79225 189.05922 376.79225 C 190.90734 376.79225 191.19166 375.7971 190.48085 372.24304 C 189.9122 368.68897 190.623 365.98787 193.18194 361.43866 C 199.8636 349.63915 199.4371 346.65373 188.49057 330.44717 C 183.94136 323.90768 183.7992 322.91254 184.51 314.38277 C 184.9365 309.2649 185.93164 304.57353 186.64245 303.8627 C 189.4857 301.01946 191.0495 304.7157 191.0495 313.8141 C 191.0495 326.1823 194.31924 331.30014 205.40794 336.13368 C 214.7907 340.2564 218.06044 344.0948 218.06044 351.3451 C 218.06044 354.33052 218.48693 357.60027 218.91341 358.87973 C 220.19288 362.0073 224.17344 361.86515 223.1783 358.5954 C 222.89397 357.31594 222.18316 351.91375 221.6145 346.7959 C 220.9037 338.83477 219.90855 336.27584 215.21718 330.02068 C 208.39336 321.06442 207.25606 316.2309 210.09932 309.2649 C 211.37878 306.2795 212.37392 301.44595 212.37392 298.31837 C 212.37392 288.50913 219.19774 289.21994 224.45776 299.45567 C 227.86967 305.853 237.25242 311.39735 244.6449 311.39735 C 248.19896 311.39735 250.7579 312.81898 255.7336 317.79467 C 260.2828 322.05956 263.97903 324.33416 267.5331 324.9028 C 270.37636 325.3293 274.92557 326.75093 277.62666 327.88824 C 280.1856 329.02554 282.74453 329.73635 283.02885 329.30986 C 284.7348 327.6039 281.46506 323.0547 277.058 320.92226 C 274.21476 319.50063 271.3715 316.79953 270.51852 314.6671 C 265.685 302.58325 265.40066 302.15676 258.29252 299.59783 C 251.0422 297.0389 245.49786 290.4994 247.06165 286.3767 C 248.0568 283.6756 260.2828 283.6756 264.97417 286.51885 C 266.96445 287.65615 272.0823 290.35725 276.3472 292.34753 C 283.88183 296.18592 284.3083 296.18592 295.53918 294.62213 C 311.74574 292.34753 317.57442 294.19564 317.57442 301.5881 C 317.57442 306.5638 319.28037 306.84814 322.2658 302.29893 C 328.3788 293.05834 325.96203 286.09236 315.2998 281.401 C 310.18195 278.98422 307.3387 278.6999 298.66676 279.55287 C 288.28888 280.40585 288.1467 280.40585 285.30346 276.4253 C 283.73967 274.1507 282.17587 271.16527 281.60722 269.8858 C 280.46992 266.4739 275.35206 263.48847 264.26336 259.5079 C 250.18924 254.39005 249.1941 252.54193 250.18924 235.90888 C 250.7579 228.51642 251.32654 207.61848 251.61087 189.70596 C 252.03735 171.79345 252.606 150.8955 253.0325 143.36088 C 253.88547 127.5808 253.0325 124.87971 243.36542 115.3548 C 233.55619 105.68773 230.71293 104.69259 214.3642 105.11908 C 206.54525 105.26124 197.02034 104.69259 193.3241 103.83961 C 185.78947 102.13366 181.38243 101.56501 168.30345 100.4277 C 160.91098 99.85905 157.21474 100.28554 149.68011 102.98663 Z" fill="black"/>
        </g>
        <g id="Graphic_360">
          <path d="M 190.33868 107.53585 C 197.44683 108.81531 208.53553 109.95261 215.21718 110.09478 C 228.72265 110.52126 231.5659 111.65857 238.67405 119.1932 C 244.6449 125.59052 245.3557 130.13974 240.09568 128.86027 C 237.53674 128.14946 236.25728 128.7181 235.11998 130.70839 C 233.98267 132.98299 234.267 133.6938 236.68377 134.40462 C 238.95837 135.11543 239.2427 135.82625 237.82107 137.39004 C 236.9681 138.52734 234.6935 139.38032 232.98753 139.38032 C 231.28158 139.38032 226.02156 141.3706 221.47234 143.6452 C 211.94743 148.6209 193.3241 152.17497 177.54403 152.17497 C 168.16128 152.17497 160.48449 150.32686 144.84658 144.49818 C 141.719 143.36088 136.03248 142.36574 132.33625 142.22358 C 120.82106 142.22358 111.43831 134.97327 111.43831 126.30134 C 111.43831 120.61483 118.54645 114.2175 126.22325 113.0802 C 129.49299 112.51154 136.88546 110.94775 142.71414 109.52612 C 148.54281 107.96233 154.65581 106.5407 156.2196 106.25638 C 162.7591 104.83475 178.397 105.4034 190.33868 107.53585 Z" fill="#FFFFFF"/>
        </g>
        <g id="Graphic_359">
          <path d="M 245.07137 149.33172 C 245.07137 152.4593 244.07624 157.435 242.93893 160.27826 C 241.5173 163.69016 241.23298 165.96477 242.22812 167.10207 C 244.07624 169.37668 240.38 172.64642 233.27186 174.92103 C 225.31074 177.47996 223.74695 175.91617 231.28158 172.93075 C 234.9778 171.50912 237.96323 169.51884 237.96323 168.38154 C 237.96323 165.8226 236.25728 165.8226 230.14428 168.38154 C 227.15886 169.661 224.88425 169.94533 224.45776 169.09235 C 223.8891 168.38154 224.45776 167.81289 225.4529 167.81289 C 226.5902 167.81289 230.14428 166.10693 233.41402 163.97449 C 237.53674 161.2734 239.38486 159.14095 239.38486 156.86635 C 239.38486 153.02795 239.10054 152.88579 233.69835 155.72905 C 231.28158 157.00851 227.7275 158.5723 225.59507 159.28312 C 222.18316 160.42042 222.041 160.42042 224.45776 158.85663 C 225.8794 158.00365 230.4286 154.16525 234.40916 150.46902 C 243.22326 142.08141 245.07137 141.93925 245.07137 149.33172 Z" fill="#FFFFFF"/>
        </g>
        <g id="Graphic_358">
          <path d="M 231.5659 146.3463 C 233.1297 148.90523 216.78097 155.1604 203.13334 157.15067 C 189.34354 159.14095 186.50029 163.548 199.15278 163.548 C 203.55983 163.548 206.82957 163.83233 206.54525 164.25882 C 205.40794 165.39612 186.64245 169.51884 179.39215 170.22965 C 173.8478 170.7983 172.56833 171.50912 172.56833 173.64156 C 172.56833 175.20535 171.5732 176.76914 170.43589 177.19563 C 169.29859 177.76428 168.30345 179.18591 168.30345 180.46538 C 168.30345 181.74484 167.59263 183.59296 166.5975 184.5881 C 163.61207 187.57352 167.45047 193.4022 172.56833 193.4022 C 176.97538 193.4022 178.11268 195.81896 175.26942 198.66222 C 174.27428 199.65736 173.70563 205.91253 173.70563 214.15797 L 173.70563 228.08993 L 178.397 231.35967 L 183.08838 234.62942 L 185.78947 230.36453 C 187.35326 227.94776 188.49057 223.39855 188.49057 219.70232 C 188.63273 214.72662 189.20138 213.305 190.76517 213.58932 C 194.03492 214.15797 194.74573 230.64886 191.76031 233.2078 C 190.623 234.20293 189.62787 235.76672 189.62787 236.90402 C 189.62787 239.17863 184.9365 240.74242 176.40673 241.02674 C 172.284 241.1689 169.01426 242.02188 168.30345 243.1592 C 167.3083 244.86514 166.5975 244.72298 164.32289 242.7327 C 161.05314 239.74728 159.77368 239.60512 159.77368 242.44837 C 159.77368 246.5711 166.88182 251.68896 172.7105 251.68896 C 178.8235 251.68896 181.24026 254.10573 177.6862 256.80682 C 174.27428 259.2236 175.69591 261.0717 181.80891 262.209 C 188.49057 263.48847 191.19166 261.78252 185.93164 259.5079 L 181.80891 257.6598 L 187.77975 255.10087 C 191.0495 253.53707 194.4614 250.97814 195.17222 249.13003 C 196.0252 247.42407 197.30466 246.00244 198.15764 246.00244 C 199.15278 246.00244 199.4371 244.86514 198.86845 243.1592 C 197.87331 240.0316 199.15278 239.60512 212.37392 238.32565 C 223.8891 237.18835 238.53188 231.92832 236.39944 229.79588 C 235.68863 229.08507 220.05072 233.2078 213.36906 235.90888 C 205.40794 239.03647 198.7263 237.04619 202.42253 232.49697 C 203.41767 231.35967 203.41767 230.36453 202.5647 229.79588 C 201.7117 229.22723 201.42739 227.94776 201.99604 226.81046 C 202.42253 225.531 201.85387 224.67802 200.5744 224.67802 C 197.87331 224.67802 196.59385 215.43743 199.01062 212.1677 C 199.8636 210.88822 200.43225 209.0401 200.00576 208.04497 C 199.57927 206.90766 200.43225 206.19685 202.42253 206.19685 C 204.12848 206.19685 209.3885 205.2017 214.07988 203.92225 C 218.77125 202.78494 222.89397 202.07413 223.1783 202.35845 C 223.46262 202.64278 220.76153 204.34873 216.92313 206.19685 C 206.40308 211.59904 213.51123 211.45688 226.87453 206.19685 C 233.1297 203.63792 238.53188 202.07413 238.95837 202.50062 C 240.52216 204.0644 241.9438 216.85906 241.37514 224.53586 C 241.09082 229.65372 240.09568 232.7813 238.38972 234.06077 C 235.4043 236.1932 214.07988 243.1592 210.5258 243.1592 C 209.24634 243.1592 208.10904 243.87 208.10904 244.58082 C 208.10904 247.56624 230.8551 241.5954 235.97295 237.3305 C 237.82107 235.76672 239.38486 237.18835 239.38486 240.4581 C 239.38486 241.73756 240.38 243.1592 241.5173 243.72784 C 242.6546 244.15433 243.64975 246.1446 243.64975 248.27705 C 243.64975 253.8214 253.31682 263.06198 259.1455 263.06198 C 265.40066 263.06198 272.36664 266.18957 276.91585 271.0231 C 281.03857 275.5723 281.7494 281.11666 278.33748 282.5383 C 274.21476 284.10208 281.89155 288.6513 288.5732 288.6513 C 294.2597 288.6513 302.50516 285.66587 304.06895 282.82262 C 305.0641 281.401 310.7506 282.25397 315.58414 284.67073 C 318.14307 285.80804 321.8393 291.21022 321.8393 293.627 C 321.8393 295.61727 319.42254 293.91132 318.28523 291.21022 C 317.43226 289.3621 315.0155 287.0875 312.59872 285.9502 C 308.9025 284.10208 307.90735 284.24425 303.0738 287.0875 C 295.39702 291.49455 282.60236 291.6367 276.48936 287.37183 C 271.3715 283.6756 270.945 282.1118 274.92557 280.83234 C 276.48936 280.40585 277.76883 279.1264 277.76883 278.13124 C 277.76883 274.8615 276.06287 274.57717 273.07745 277.42043 C 269.94987 280.40585 267.5331 278.41557 270.51852 275.43015 C 272.65096 273.2977 272.5088 269.175 270.37636 268.46417 C 269.38122 268.03768 267.9596 269.03282 267.1066 270.5966 C 264.68985 275.5723 261.98875 275.288 262.9839 270.3123 C 263.6947 266.75822 263.41038 265.90524 261.4201 265.90524 C 260.14064 265.90524 257.72387 267.46903 256.16008 269.60147 C 252.74817 273.86636 251.61087 273.2977 253.45898 268.17985 C 255.3071 263.48847 254.8806 263.48847 249.33626 268.7485 C 244.78705 272.87122 241.23298 273.2977 242.79677 269.31715 C 243.36542 267.75336 243.0811 267.6112 240.8065 268.7485 C 237.25242 270.5966 234.6935 270.5966 235.4043 268.46417 C 235.68863 267.6112 239.10054 266.0474 242.79677 264.9101 C 248.48328 263.20415 249.33626 262.6355 247.77247 260.78738 C 246.63517 259.36575 245.64003 259.08142 244.50272 260.21873 C 243.0811 261.64036 237.96323 262.209 237.96323 261.0717 C 237.96323 258.7971 239.9535 255.95384 241.65947 255.95384 C 242.6546 255.95384 243.22326 255.10087 242.79677 253.96356 C 242.37028 252.82626 240.94865 252.2576 239.2427 252.6841 C 237.39458 253.25275 236.5416 252.6841 236.5416 250.97814 C 236.5416 249.13003 235.8308 248.70354 233.41402 249.5565 C 231.5659 250.12517 228.29616 250.83598 225.8794 251.26247 C 223.6048 251.68896 220.61937 252.82626 219.48207 253.8214 C 218.34476 254.81654 215.78583 255.95384 213.79555 256.23817 C 211.23662 256.5225 210.38364 257.37547 210.66797 259.2236 C 210.9523 260.92954 210.09932 262.209 208.10904 262.6355 C 205.5501 263.3463 205.26578 264.05712 206.11876 267.89552 C 206.54525 270.3123 207.68255 272.5869 208.39336 272.87122 C 209.24634 273.15554 210.9523 274.57717 212.0896 275.9988 C 213.36906 277.5626 216.21232 278.6999 218.48693 278.6999 C 223.8891 278.6999 230.71293 282.39613 232.41888 286.23453 C 237.39458 297.32323 241.5173 301.44595 247.6303 301.44595 C 253.88547 301.44595 262.27308 306.13732 265.11633 311.2552 C 267.9596 316.2309 266.53796 320.06928 262.9839 317.22602 C 261.70443 316.08872 260.7093 314.52493 260.7093 313.38763 C 260.7093 309.83356 254.8806 305.99516 247.6303 305.1422 C 237.11026 303.72055 232.56105 300.8773 229.43346 293.76916 C 227.15886 288.2248 225.8794 287.22967 219.3399 285.09722 C 215.21718 283.6756 208.53553 282.5383 204.55497 282.39613 C 197.1625 282.25397 192.47113 279.97936 192.47113 276.56745 C 192.47113 274.00852 188.91706 272.87122 183.94136 274.00852 C 179.10782 274.8615 179.10782 275.14582 181.24026 281.401 C 182.80405 285.80804 187.77975 288.50913 190.90734 286.661 C 192.75545 285.38155 201.14306 288.93562 203.702 292.0632 C 205.40794 294.05348 205.40794 294.7643 203.98632 295.75944 C 202.84901 296.3281 201.99604 299.59783 201.7117 303.00974 C 201.56955 306.42165 201.0009 312.3925 200.29008 316.08872 C 199.29494 322.05956 199.57927 323.19686 202.42253 326.32444 C 205.69227 329.73635 205.69227 329.8785 202.84901 329.8785 C 197.1625 329.8785 194.8879 325.04498 195.03006 313.5298 C 195.17222 303.5784 194.8879 302.58325 190.90734 298.6027 C 188.49057 296.3281 185.78947 294.3378 184.9365 294.3378 C 184.08352 294.3378 181.52459 292.63185 179.39215 290.4994 C 175.12726 286.3767 173.8478 288.50913 177.54403 293.48483 C 180.24512 297.0389 180.24512 305.853 177.54403 312.3925 C 174.27428 320.06928 174.84294 321.9174 182.37757 330.16284 C 186.0738 334.28556 189.62787 339.1191 190.33868 340.9672 C 191.33382 344.23696 191.19166 344.23696 187.2111 342.2467 C 185.07866 341.10938 181.95108 338.6926 180.38729 336.98666 L 177.54403 333.85907 L 176.69105 337.83963 L 175.69591 341.96236 L 175.55375 337.271 C 175.55375 334.71205 174.13212 330.7315 172.42617 328.59905 C 169.29859 324.33416 169.29859 322.05956 171.99968 306.70597 C 172.56833 303.00974 172.14184 299.3135 170.57805 295.04862 C 168.16128 288.93562 164.03856 283.81776 164.03856 286.94534 C 164.03856 287.7983 162.7591 289.7886 161.05314 291.3524 C 159.34719 292.91618 158.49421 294.90646 159.06286 295.75944 C 159.77368 296.89674 157.7834 299.59783 154.08716 302.86758 C 148.68497 307.7011 147.97416 308.98058 147.40551 315.8044 C 146.55253 327.3196 145.84172 329.5942 142.71414 331.30014 C 138.02276 333.85907 136.7433 331.58447 140.01304 326.75093 C 142.57197 323.19686 142.99846 321.2066 142.28765 313.95628 C 141.43467 304.00488 142.71414 299.17134 146.83686 297.89188 C 151.52823 296.47025 154.51365 288.93562 154.79798 277.98908 C 154.94014 272.44473 155.36663 267.1847 155.65095 266.0474 C 156.6461 262.49333 152.66553 262.77766 151.10174 266.4739 C 150.1066 268.46417 148.54281 270.17013 147.54767 270.17013 C 146.55253 270.17013 144.98874 271.30743 144.27793 272.72906 C 143.56711 274.00852 139.72872 276.4253 135.74816 277.84692 C 127.50271 280.83234 125.08594 283.10694 126.36541 287.22967 C 126.93406 289.21994 126.64974 290.07292 125.2281 290.07292 C 124.0908 290.07292 122.81134 291.92104 122.24269 294.3378 C 121.24755 300.02432 115.41887 305.71083 110.7275 305.71083 C 108.73722 305.71083 105.89396 306.42165 104.33017 307.4168 C 102.90854 308.41193 101.20259 308.69625 100.63394 308.26976 C 99.21231 306.70597 101.48691 304.2892 104.33017 304.2892 C 105.7518 304.2892 108.87938 302.58325 111.29615 300.59297 C 115.27671 297.32323 115.7032 296.18592 115.7032 288.93562 C 115.7032 280.548 116.69834 278.2734 124.65946 268.322 C 129.35083 262.49333 131.19895 254.10573 128.49785 250.97814 C 125.93892 247.85056 123.94864 248.27705 124.94378 251.68896 C 126.08108 255.24303 120.53673 267.1847 117.26699 268.322 C 115.98752 268.7485 113.85508 270.17013 112.43345 271.30743 C 110.44317 273.15554 109.02154 273.2977 105.32531 271.87608 C 96.36905 268.7485 88.97658 268.17985 85.28035 270.73878 C 80.446815 273.86636 79.16735 273.58203 82.29493 270.17013 C 86.84414 265.05226 97.64852 264.34145 109.73236 268.03768 C 111.58048 268.60633 112.85994 268.46417 112.85994 267.6112 C 112.85994 265.90524 106.60478 264.4836 94.94742 263.48847 C 86.70198 262.91982 86.13333 263.06198 80.16249 268.03768 C 76.60842 271.0231 72.77002 275.14582 71.49056 277.27827 C 68.50514 281.96964 66.51486 283.39127 64.382415 282.1118 C 63.387275 281.54315 64.95107 278.98422 68.50514 275.288 C 71.49056 272.1604 75.47112 267.46903 77.17707 264.9101 C 80.73114 259.5079 86.70198 257.37547 96.79554 257.6598 C 105.60964 257.94412 109.02154 255.52735 113.0021 246.5711 C 114.42373 243.30135 116.69834 239.88944 117.83564 238.8943 C 119.1151 237.89916 119.68376 235.90888 119.25727 234.62942 C 118.11997 230.93318 122.10052 230.0802 125.08594 233.34995 C 126.36541 234.77158 128.21353 236.05105 129.0665 236.05105 C 129.91948 236.05105 128.35569 233.9186 125.51243 231.35967 L 120.39457 226.52614 L 119.96808 201.079 C 119.82592 187.14703 119.68376 172.3621 119.5416 168.5237 C 119.25727 161.84205 119.39943 161.41556 122.81134 161.41556 C 126.7919 161.41556 127.07622 160.27826 124.23297 154.59174 C 123.23783 152.4593 122.81134 150.32686 123.37999 149.61604 C 125.37027 147.76793 143.28279 148.90523 149.82228 151.322 C 153.37635 152.60146 158.49421 155.30256 161.33747 157.29284 C 165.74451 160.27826 166.88182 160.56258 171.00454 159.14095 C 174.84294 157.71932 176.5489 157.86149 180.52945 159.7096 C 184.9365 161.84205 185.36299 161.84205 187.2111 159.28312 C 188.63273 157.15067 191.90248 156.15553 200.85873 155.1604 C 209.53067 154.16525 214.93285 152.74363 220.76153 149.61604 C 229.85995 144.7825 230.4286 144.64034 231.5659 146.3463 Z" fill="#FFFFFF"/>
        </g>
        <g id="Graphic_357">
          <path d="M 216.6388 162.12637 C 215.5015 162.83719 212.94257 163.40584 210.9523 163.40584 C 207.68255 163.26368 207.68255 163.12151 211.6631 162.12637 C 217.7761 160.56258 219.05558 160.56258 216.6388 162.12637 Z" fill="#FFFFFF"/>
        </g>
        <g id="Graphic_356">
          <path d="M 218.6291 170.65614 C 216.6388 172.64642 197.44683 176.48482 194.74573 175.48968 C 193.46627 175.0632 192.47113 173.78372 192.47113 172.64642 C 192.47113 171.36696 195.17222 170.65614 201.42739 170.22965 C 206.26092 169.94533 212.51609 169.661 215.21718 169.51884 C 218.48693 169.37668 219.62423 169.661 218.6291 170.65614 Z" fill="#FFFFFF"/>
        </g>
        <g id="Graphic_355">
          <path d="M 242.22812 174.49454 C 242.22812 174.92103 241.09082 176.62698 239.81135 178.0486 C 237.53674 180.60754 237.53674 180.60754 239.81135 179.75456 C 242.08596 178.90159 242.08596 179.32808 240.66433 182.59782 C 239.38486 185.15675 237.82107 186.29405 235.26214 186.29405 C 233.27186 186.29405 230.00211 186.72054 228.01184 187.14703 C 226.02156 187.57352 227.15886 186.57838 230.57077 185.01459 C 233.8405 183.4508 236.5416 181.74484 236.5416 181.31836 C 236.5416 180.89187 233.8405 180.89187 230.57077 181.31836 L 224.45776 182.17133 L 232.27672 178.0486 C 240.8065 173.4994 242.22812 173.07291 242.22812 174.49454 Z" fill="#FFFFFF"/>
        </g>
        <g id="Graphic_354">
          <path d="M 219.48207 177.62212 C 219.48207 179.47024 211.6631 181.74484 203.84415 182.3135 C 198.86845 182.59782 197.44683 182.3135 197.44683 180.60754 C 197.44683 179.04375 200.00576 178.33294 208.10904 177.62212 C 213.93771 177.19563 218.91341 176.76914 219.19774 176.62698 C 219.3399 176.48482 219.48207 176.9113 219.48207 177.62212 Z" fill="#FFFFFF"/>
        </g>
        <g id="Graphic_353">
          <path d="M 189.34354 179.47024 C 191.33382 182.02917 192.6133 189.5638 191.33382 191.26975 C 190.05436 193.26003 172.284 191.8384 171.5732 189.70596 C 171.28886 188.71082 173.13698 185.7254 175.83808 182.88215 C 180.95594 177.62212 186.50029 176.2005 189.34354 179.47024 Z" fill="#FFFFFF"/>
        </g>
        <g id="Graphic_352">
          <path d="M 218.77125 186.1519 C 217.20746 187.71568 200.85873 190.55894 199.29494 189.5638 C 198.58413 189.27947 198.15764 188 198.15764 186.8627 C 198.15764 185.29891 200.5744 184.87243 209.10418 184.87243 C 216.07016 184.87243 219.48207 185.44108 218.77125 186.1519 Z" fill="#FFFFFF"/>
        </g>
        <g id="Graphic_351">
          <path d="M 241.65947 192.2649 C 241.37514 196.95627 238.95837 198.66222 231.13942 198.94655 C 226.44804 199.0887 228.43832 196.8141 233.98267 195.53464 L 238.67405 194.39734 L 232.98753 193.4022 C 228.43832 192.69138 227.86967 192.2649 230.14428 191.41192 C 231.70807 190.84326 234.55133 189.5638 236.5416 188.56866 C 241.23298 186.1519 241.9438 186.72054 241.65947 192.2649 Z" fill="#FFFFFF"/>
        </g>
        <g id="Graphic_350">
          <path d="M 214.93285 192.2649 C 214.50637 193.26003 212.8004 194.39734 210.81013 194.5395 C 208.96202 194.82382 206.82957 195.6768 205.9766 196.52978 C 204.55497 198.09357 213.08474 197.2406 219.05558 195.39248 C 221.47234 194.68166 221.47234 194.68166 219.05558 196.67194 C 216.92313 198.52006 200.00576 201.50548 198.86845 200.226 C 198.58413 199.94169 198.7263 198.09357 199.15278 195.96113 C 199.8636 192.54922 200.5744 192.12273 206.54525 191.55408 C 210.09932 191.26975 213.6534 190.98543 214.22204 190.84326 C 214.93285 190.7011 215.21718 191.41192 214.93285 192.2649 Z" fill="#FFFFFF"/>
        </g>
        <g id="Graphic_349">
          <path d="M 192.89762 196.8141 C 193.7506 199.0887 192.6133 200.79466 190.90734 199.65736 C 189.20138 198.66222 189.34354 194.82382 190.90734 194.82382 C 191.61815 194.82382 192.47113 195.6768 192.89762 196.8141 Z" fill="#FFFFFF"/>
        </g>
        <g id="Graphic_348">
          <path d="M 195.03006 208.04497 C 195.31438 209.60876 194.60357 210.46174 192.75545 210.46174 C 189.34354 210.46174 188.20624 209.32443 189.20138 206.7655 C 190.19652 203.92225 194.4614 204.91739 195.03006 208.04497 Z" fill="#FFFFFF"/>
        </g>
        <g id="Graphic_347">
          <path d="M 173.98996 247.42407 C 173.98996 248.1349 172.99482 248.8457 171.71535 248.8457 C 170.57805 248.8457 170.0094 248.1349 170.43589 247.42407 C 170.86238 246.5711 171.85752 246.00244 172.7105 246.00244 C 173.4213 246.00244 173.98996 246.5711 173.98996 247.42407 Z" fill="#FFFFFF"/>
        </g>
        <g id="Graphic_346">
          <path d="M 232.27672 258.0863 C 232.27672 258.51277 230.00211 259.65008 227.30102 260.78738 C 224.59993 261.92468 222.32532 263.7728 222.32532 264.76794 C 222.32532 266.0474 221.89883 266.0474 220.9037 264.4836 C 218.77125 261.21387 219.19774 260.21873 222.89397 260.21873 C 224.88425 260.21873 226.87453 259.5079 227.30102 258.7971 C 228.154 257.37547 232.27672 256.80682 232.27672 258.0863 Z" fill="#FFFFFF"/>
        </g>
        <g id="Graphic_345">
          <path d="M 233.1297 265.3366 C 231.5659 266.4739 229.2913 267.32687 228.154 267.32687 C 226.73237 267.32687 227.58535 266.18957 230.14428 264.4836 C 234.83565 261.4982 237.39458 262.06684 233.1297 265.3366 Z" fill="#FFFFFF"/>
        </g>
        <g id="Graphic_344">
          <path d="M 215.21718 266.4739 C 215.21718 267.6112 214.64853 268.89066 214.07988 269.31715 C 212.23176 270.45445 209.10418 267.75336 210.09932 266.0474 C 211.52095 263.7728 215.21718 264.05712 215.21718 266.4739 Z" fill="#FFFFFF"/>
        </g>
        <g id="Graphic_343">
          <path d="M 223.46262 273.2977 C 222.46748 275.9988 218.06044 276.4253 218.06044 273.86636 C 218.06044 272.44473 219.3399 271.59175 221.04586 271.59175 C 222.7518 271.59175 223.74695 272.30257 223.46262 273.2977 Z" fill="#FFFFFF"/>
        </g>
        <g id="Graphic_342">
          <path d="M 240.8065 275.85664 C 240.8065 276.56745 240.52216 277.27827 240.23784 277.27827 C 239.81135 277.27827 239.10054 276.56745 238.67405 275.85664 C 238.24756 275.00366 238.53188 274.435 239.2427 274.435 C 240.09568 274.435 240.8065 275.00366 240.8065 275.85664 Z" fill="#FFFFFF"/>
        </g>
        <g id="Graphic_341">
          <path d="M 232.84537 278.84206 C 232.41888 279.55287 231.42374 279.8372 230.71293 279.26855 C 230.00211 278.84206 229.7178 277.84692 230.28644 277.1361 C 230.71293 276.4253 231.70807 276.14096 232.41888 276.7096 C 233.1297 277.1361 233.41402 278.13124 232.84537 278.84206 Z" fill="#FFFFFF"/>
        </g>
        <g id="Graphic_340">
          <path d="M 239.10054 283.10694 C 238.8162 283.95992 237.96323 284.52857 237.25242 284.52857 C 236.5416 284.52857 235.68863 283.95992 235.4043 283.10694 C 235.11998 282.25397 235.97295 281.54315 237.25242 281.54315 C 238.53188 281.54315 239.38486 282.25397 239.10054 283.10694 Z" fill="#FFFFFF"/>
        </g>
        <g id="Graphic_339">
          <path d="M 295.53918 282.96478 C 295.1127 283.6756 293.5489 284.3864 292.26944 284.3864 C 290.137 284.3864 290.137 284.10208 291.9851 282.96478 C 294.82837 281.11666 296.6765 281.11666 295.53918 282.96478 Z" fill="#FFFFFF"/>
        </g>
        <g id="Graphic_338">
          <path d="M 245.07137 295.75944 C 245.07137 296.47025 244.50272 297.18106 243.64975 297.18106 C 242.93893 297.18106 242.22812 296.47025 242.22812 295.75944 C 242.22812 294.90646 242.93893 294.3378 243.64975 294.3378 C 244.50272 294.3378 245.07137 294.90646 245.07137 295.75944 Z" fill="#FFFFFF"/>
        </g>
        <g id="Graphic_337">
          <path d="M 189.62787 118.90887 C 184.36785 120.61483 180.52945 120.61483 167.45047 119.33536 C 149.11146 117.34508 143.70928 118.76671 142.99846 125.44836 C 142.00332 133.83597 157.21474 137.5322 176.97538 133.55164 C 181.24026 132.84083 190.33868 131.98785 197.1625 131.70353 C 206.40308 131.4192 210.24148 130.70839 211.94743 129.00243 C 214.07988 126.86999 214.07988 126.4435 211.52095 123.60025 C 208.2512 119.90401 201.99604 116.63427 198.58413 116.77643 C 197.1625 116.77643 193.18194 117.77157 189.62787 118.90887 Z" fill="black"/>
        </g>
        <g id="Graphic_336">
          <path d="M 200.29008 119.33536 C 201.42739 121.32564 198.44197 122.74727 195.5987 121.60997 C 193.60843 120.89915 193.60843 120.61483 195.31438 119.47752 C 198.01548 117.77157 199.15278 117.77157 200.29008 119.33536 Z" fill="#FFFFFF"/>
        </g>
        <g id="Graphic_335">
          <path d="M 171.1467 123.74241 C 174.70077 125.87485 171.00454 127.86513 162.90126 128.14946 C 155.36663 128.43378 151.52823 126.72783 153.23419 123.88457 C 154.51365 122.03645 168.16128 121.89429 171.1467 123.74241 Z" fill="#FFFFFF"/>
        </g>
        <g id="Graphic_334">
          <path d="M 183.94136 125.16404 C 183.94136 125.87485 182.94622 126.58566 181.80891 126.58566 C 180.67161 126.58566 179.67647 125.87485 179.67647 125.16404 C 179.67647 124.31106 180.67161 123.74241 181.80891 123.74241 C 182.94622 123.74241 183.94136 124.31106 183.94136 125.16404 Z" fill="#FFFFFF"/>
        </g>
        <g id="Graphic_333">
          <path d="M 203.13334 125.02187 C 202.28036 126.58566 195.31438 127.86513 192.89762 127.01215 C 189.34354 125.59052 191.19166 124.45322 197.44683 124.1689 C 201.0009 124.02673 203.55983 124.45322 203.13334 125.02187 Z" fill="#FFFFFF"/>
        </g>
        <g id="Graphic_332">
          <path d="M 115.7032 127.86513 C 115.7032 129.71325 119.82592 132.84083 120.96322 131.84569 C 121.95836 130.70839 118.83078 126.58566 116.98266 126.58566 C 116.27185 126.58566 115.7032 127.15432 115.7032 127.86513 Z" fill="black"/>
        </g>
        <g id="Graphic_331">
          <path d="M 219.48207 133.6938 C 218.34476 134.40462 217.91827 135.39976 218.34476 135.82625 C 218.91341 136.3949 220.76153 135.82625 222.60965 134.54678 C 226.02156 132.13002 223.32046 131.27704 219.48207 133.6938 Z" fill="black"/>
        </g>
        <g id="Graphic_330">
          <path d="M 131.05678 198.3779 C 130.34597 201.7898 133.47355 206.19685 136.60113 206.19685 C 138.87574 206.19685 138.02276 197.66708 135.606 196.24545 C 132.33625 194.25517 131.7676 194.5395 131.05678 198.3779 Z" fill="black"/>
        </g>
        <g id="Graphic_329">
          <path d="M 162.61693 203.49576 C 162.61693 204.4909 163.32775 207.61848 164.32289 210.6039 C 165.60235 215.1531 165.46019 217.1434 163.61207 221.83476 C 161.33747 227.52128 162.04828 229.65372 165.88668 228.08993 C 170.43589 226.38397 170.0094 206.48118 165.31803 203.63792 C 163.32775 202.35845 162.61693 202.35845 162.61693 203.49576 Z" fill="black"/>
        </g>
        <g id="Graphic_328">
          <path d="M 125.6546 205.6282 C 125.6546 208.18713 129.35083 212.30985 131.19895 211.7412 C 132.33625 211.31471 131.62543 209.89308 129.35083 207.76064 C 127.36055 205.77036 125.6546 204.91739 125.6546 205.6282 Z" fill="black"/>
        </g>
        <g id="Graphic_327">
          <path d="M 143.42495 207.61848 C 143.85144 208.3293 144.98874 209.0401 145.69956 209.0401 C 146.55253 209.0401 146.6947 208.3293 146.2682 207.61848 C 145.84172 206.7655 144.70442 206.19685 143.9936 206.19685 C 143.14062 206.19685 142.99846 206.7655 143.42495 207.61848 Z" fill="black"/>
        </g>
        <g id="Graphic_326">
          <path d="M 232.84537 207.61848 C 232.13456 208.3293 227.44318 210.03525 222.32532 211.31471 C 210.09932 214.30013 207.25606 216.00609 213.93771 216.14825 C 219.3399 216.14825 232.98753 211.31471 236.5416 208.04497 C 238.24756 206.48118 238.24756 206.19685 236.39944 206.19685 C 235.26214 206.19685 233.69835 206.7655 232.84537 207.61848 Z" fill="black"/>
        </g>
        <g id="Graphic_325">
          <path d="M 233.27186 215.5796 C 232.84537 216.00609 226.5902 217.8542 219.48207 219.70232 C 212.37392 221.55044 206.11876 223.39855 205.69227 223.82504 C 203.98632 225.531 220.33504 224.53586 225.59507 222.68774 C 231.13942 220.83962 236.25728 216.85906 234.9778 215.43743 C 234.55133 215.01095 233.8405 215.1531 233.27186 215.5796 Z" fill="black"/>
        </g>
        <g id="Graphic_324">
          <path d="M 133.04706 222.1191 C 133.47355 223.11423 135.1795 224.10937 137.16979 224.3937 C 140.5817 224.96234 140.5817 224.82018 137.73844 222.68774 C 134.32653 219.98665 132.33625 219.84448 133.04706 222.1191 Z" fill="black"/>
        </g>
        <g id="Graphic_323">
          <path d="M 229.43346 223.2564 C 227.44318 223.9672 222.041 225.531 217.34962 226.95262 C 212.65825 228.2321 208.2512 229.93804 207.54039 230.64886 C 204.8393 232.92346 219.7664 231.78616 225.59507 229.08507 C 228.8648 227.66344 232.7032 226.09965 234.12484 225.67316 C 236.82593 224.67802 237.39458 221.83476 234.83565 221.97693 C 233.8405 221.97693 231.42374 222.54558 229.43346 223.2564 Z" fill="black"/>
        </g>
        <g id="Graphic_322">
          <path d="M 135.606 231.78616 C 135.606 232.63914 136.60113 233.2078 137.73844 233.2078 C 138.87574 233.2078 139.87088 232.92346 139.87088 232.63914 C 139.87088 232.3548 138.87574 231.78616 137.73844 231.2175 C 136.60113 230.79102 135.606 231.07535 135.606 231.78616 Z" fill="black"/>
        </g>
        <g id="Graphic_321">
          <path d="M 218.06044 247.42407 C 207.96688 249.84084 207.68255 249.983 213.79555 249.983 C 217.34962 250.12517 223.03614 248.8457 226.5902 247.42407 C 234.55133 244.15433 231.85023 244.15433 218.06044 247.42407 Z" fill="black"/>
        </g>
        <g id="Graphic_320">
          <path d="M 183.94136 267.32687 C 183.94136 268.03768 184.9365 268.7485 186.21596 268.7485 C 187.35326 268.7485 187.92192 268.03768 187.49543 267.32687 C 187.06894 266.4739 186.0738 265.90524 185.22082 265.90524 C 184.51 265.90524 183.94136 266.4739 183.94136 267.32687 Z" fill="black"/>
        </g>
        <g id="Graphic_319">
          <path d="M 130.6303 270.17013 C 130.2038 270.88094 130.34597 271.59175 131.19895 271.59175 C 131.90976 271.59175 133.04706 270.88094 133.47355 270.17013 C 133.90004 269.31715 133.75788 268.7485 132.9049 268.7485 C 132.19409 268.7485 131.05678 269.31715 130.6303 270.17013 Z" fill="black"/>
        </g>
        <g id="Graphic_318">
          <path d="M 164.32289 277.27827 C 164.32289 279.26855 164.60721 279.97936 165.0337 278.98422 C 165.31803 278.13124 165.31803 276.4253 165.0337 275.43015 C 164.60721 274.57717 164.32289 275.288 164.32289 277.27827 Z" fill="black"/>
        </g>
      </g>
    </g>
  </g>
</svg>
