<?xml version="1.0" encoding="UTF-8" standalone="no"?>
<!DOCTYPE svg PUBLIC "-//W3C//DTD SVG 1.1//EN" "http://www.w3.org/Graphics/SVG/1.1/DTD/svg11.dtd">
<svg xmlns:xl="http://www.w3.org/1999/xlink" version="1.1" xmlns="http://www.w3.org/2000/svg" xmlns:dc="http://purl.org/dc/elements/1.1/" viewBox="63 63 297 234" width="297" height="234">
  <defs>
    <clipPath id="artboard_clip_path">
      <path d="M 63 63 L 360 63 L 360 297 L 63 297 Z"/>
    </clipPath>
  </defs>
  <g id="Trimount_Couped_(1)" stroke-opacity="1" stroke="none" fill="none" fill-opacity="1" stroke-dasharray="none">
    <title>Trimount Couped (1)</title>
    <g id="Trimount_Couped_(1)_Layer_2" clip-path="url(#artboard_clip_path)">
      <title>Layer 2</title>
      <g id="Group_1701">
        <g id="Graphic_1704">
          <path d="M 284.30388 138.28755 C 284.3039 138.26291 284.3039 138.23827 284.3039 138.21364 C 284.3039 119.3588 277.134 100.50398 262.79415 86.11822 C 234.11461 57.34656 187.61593 57.34656 158.9364 86.11822 C 144.59655 100.50398 137.42663 119.35881 137.42663 138.21365 L 137.42667 138.28755 L 137.42667 230.3063 L 284.30388 230.3063 Z" fill="#FFFFFF"/>
          <path d="M 284.30388 138.28755 C 284.3039 138.26291 284.3039 138.23827 284.3039 138.21364 C 284.3039 119.3588 277.134 100.50398 262.79415 86.11822 C 234.11461 57.34656 187.61593 57.34656 158.9364 86.11822 C 144.59655 100.50398 137.42663 119.35881 137.42663 138.21365 L 137.42667 138.28755 L 137.42667 230.3063 L 284.30388 230.3063 Z" stroke="black" stroke-linecap="round" stroke-linejoin="round" stroke-width="2"/>
        </g>
        <g id="Graphic_1703">
          <path d="M 212.12724 203.44177 C 212.12727 203.41713 212.12728 203.3925 212.12728 203.36786 C 212.12728 184.51303 204.95736 165.6582 190.61752 151.27244 C 161.93798 122.50078 115.4393 122.50078 86.75976 151.27244 C 72.41992 165.6582 65.25 184.51304 65.25 203.36787 L 65.25004 203.44177 L 65.25004 295.46053 L 212.12724 295.46053 Z" fill="#FFFFFF"/>
          <path d="M 212.12724 203.44177 C 212.12727 203.41713 212.12728 203.3925 212.12728 203.36786 C 212.12728 184.51303 204.95736 165.6582 190.61752 151.27244 C 161.93798 122.50078 115.4393 122.50078 86.75976 151.27244 C 72.41992 165.6582 65.25 184.51304 65.25 203.36787 L 65.25004 203.44177 L 65.25004 295.46053 L 212.12724 295.46053 Z" stroke="black" stroke-linecap="round" stroke-linejoin="round" stroke-width="2"/>
        </g>
        <g id="Graphic_1702">
          <path d="M 357.74996 203.44177 C 357.75 203.41713 357.75 203.3925 357.75 203.36786 C 357.75 184.51303 350.58008 165.6582 336.24024 151.27244 C 307.5607 122.50078 261.06202 122.50078 232.38248 151.27244 C 218.04264 165.6582 210.87272 184.51304 210.87272 203.36787 L 210.87276 203.44177 L 210.87276 295.46053 L 357.74996 295.46053 Z" fill="#FFFFFF"/>
          <path d="M 357.74996 203.44177 C 357.75 203.41713 357.75 203.3925 357.75 203.36786 C 357.75 184.51303 350.58008 165.6582 336.24024 151.27244 C 307.5607 122.50078 261.06202 122.50078 232.38248 151.27244 C 218.04264 165.6582 210.87272 184.51304 210.87272 203.36787 L 210.87276 203.44177 L 210.87276 295.46053 L 357.74996 295.46053 Z" stroke="black" stroke-linecap="round" stroke-linejoin="round" stroke-width="2"/>
        </g>
      </g>
    </g>
  </g>
</svg>
