<?xml version="1.0" encoding="UTF-8" standalone="no"?>
<!DOCTYPE svg PUBLIC "-//W3C//DTD SVG 1.1//EN" "http://www.w3.org/Graphics/SVG/1.1/DTD/svg11.dtd">
<svg xmlns="http://www.w3.org/2000/svg" xmlns:xl="http://www.w3.org/1999/xlink" version="1.1" xmlns:dc="http://purl.org/dc/elements/1.1/" viewBox="72 63 220.5 346.5" width="220.5" height="346.5">
  <defs>
    <clipPath id="artboard_clip_path">
      <path d="M 72 63 L 292.5 63 L 292.5 382.1829 L 220.5 409.5 L 72 409.5 Z"/>
    </clipPath>
  </defs>
  <g id="Tulip_of_Three_Blossoms_Slipped_and_Leaved" stroke-opacity="1" fill="none" fill-opacity="1" stroke-dasharray="none" stroke="none">
    <title>Tulip of Three Blossoms Slipped and Leaved</title>
    <g id="Tulip_of_Three_Blossoms_Slipped_and_Leaved_Content" clip-path="url(#artboard_clip_path)">
      <title>Content</title>
      <g id="Group_1143">
        <g id="Graphic_1158">
          <path d="M 188.63522 65.72675 C 187.91717 66.53381 184.01204 70.130264 180.02268 73.72231 C 173.19201 79.95293 170.9312 81.18595 169.16184 79.48831 C 168.67407 79.12487 167.02905 78.27843 165.45502 77.68912 C 162.80355 76.705475 161.55764 76.3023 155.47008 74.8007 C 151.71911 73.843895 148.7134 74.78447 148.59861 76.97466 C 148.54564 77.98551 150.75085 85.87225 152.45399 88.83346 C 157.96692 98.07612 158.46387 99.87602 159.11344 110.04637 C 159.70525 119.70688 162.59535 137.09007 164.18334 140.63653 C 164.79544 141.85118 165.9663 143.6864 166.933 144.58175 C 167.8953 145.56134 168.5828 146.94888 168.53866 147.79126 C 168.4945 148.63364 168.78731 149.49367 169.19084 149.8527 C 170.41468 150.67706 174.50917 161.19689 175.14847 165.11598 C 175.9875 170.05917 176.11064 185.43902 175.44915 201.28457 C 175.15814 208.4492 175.1066 215.8798 175.26219 217.74627 C 175.8404 226.05456 175.99229 231.21514 175.83956 242.18814 C 175.75676 248.60346 175.88658 254.18524 176.11722 254.61967 C 176.34786 255.0541 176.3228 261.97927 176.15612 269.9951 C 175.9096 277.9223 175.97428 289.58244 176.24609 295.67847 C 176.51348 301.85874 176.5013 306.92625 176.2486 306.913 C 175.65893 306.8821 174.40347 303.43754 172.27366 295.7237 C 169.92646 287.3227 168.93254 283.7229 168.28477 281.57722 C 167.91214 280.62853 167.02454 276.61196 166.22118 272.5998 C 165.41782 268.58765 164.3485 264.81496 163.87397 264.1988 C 162.68987 262.6163 159.64191 253.08048 158.3824 251.3251 C 157.20713 249.5741 154.70469 240.91157 152.27838 235.6318 C 149.9363 230.35642 147.368 224.56238 146.61833 222.74924 C 145.78 221.01592 144.38734 218.5778 143.35405 217.34108 C 139.54461 212.66456 139.58876 211.82218 143.65795 208.3188 C 151.35307 201.71113 153.4182 197.76484 153.341 189.56728 C 153.2329 181.95938 153.05966 180.42985 150.9475 172.37905 C 147.70828 160.04572 145.80326 146.4308 146.24473 138.00702 C 146.50926 131.34781 146.34042 129.73405 144.99668 127.97424 C 143.18282 125.51404 143.3557 125.43864 140.55044 130.61318 C 136.99181 137.26869 135.2011 139.2021 132.84244 139.07849 C 130.48378 138.95488 116.22885 133.73094 112.70374 131.68787 C 109.91912 130.02149 106.97521 129.78274 106.82034 131.12613 C 106.7052 131.71138 106.59041 133.90156 106.56428 136.01193 C 106.53815 138.12229 105.82523 142.05498 105.00564 144.79951 C 102.09037 153.68494 103.05672 152.97536 95.33774 151.97954 C 75.37301 149.32831 71.89718 149.5685 73.622745 153.71346 C 74.06637 154.91928 76.07077 156.96711 77.94202 158.33222 C 87.38693 165.07793 94.23 174.72818 99.17641 188.33355 C 101.83373 195.6527 106.81915 205.29006 107.99848 205.35186 C 108.2512 205.3651 109.54603 206.4466 110.82761 207.7808 C 113.07149 210.0946 121.81529 214.10055 122.70181 213.30231 C 123.22931 212.90761 128.36078 221.37006 128.3034 222.46515 C 128.28573 222.8021 128.75143 223.58673 129.39884 224.12748 C 130.04184 224.75246 130.73376 226.05576 130.92909 227.1641 C 131.12441 228.27243 132.70798 231.90313 134.38904 235.28553 C 136.07452 238.5837 137.42304 241.8642 137.3789 242.70658 C 137.33916 243.46472 137.60989 244.74595 137.98693 245.6104 C 138.36839 246.3906 139.44654 249.99482 140.44487 253.51038 C 141.4432 257.02594 143.17795 262.60736 144.35358 265.96327 C 146.27005 271.3008 149.15394 280.74355 151.03987 288.2757 C 151.73215 291.18392 156.43683 314.23717 156.40592 314.82684 C 156.3971 314.9953 155.88725 315.05306 155.38624 314.94234 C 154.8054 314.74296 153.70554 313.16487 152.87163 311.3473 C 152.03331 309.614 150.8448 308.11573 150.25513 308.08483 C 149.66546 308.05392 149.04012 307.092 148.76497 305.895 C 148.57407 304.70243 148.03296 303.7449 147.52754 303.71842 C 147.10635 303.69634 146.95553 303.35056 147.31456 302.94703 C 147.58934 302.5391 146.80877 301.3156 145.678 300.3272 C 144.46741 299.2501 143.83324 298.45665 144.1702 298.4743 C 144.50714 298.49197 143.96163 297.6187 142.92392 296.4662 C 141.79757 295.39355 140.92835 294.2499 140.78194 293.81987 C 140.59104 292.6273 133.96536 283.6642 133.29145 283.62888 C 132.20078 283.48725 130.29826 281.10688 130.36007 279.92755 C 130.44395 278.32703 124.92697 270.77354 117.04213 261.65998 C 113.05539 257.14312 109.80471 253.08717 109.82679 252.66598 C 109.84886 252.2448 109.27686 251.87694 108.60295 251.84162 C 107.92905 251.8063 106.95793 250.99518 106.41682 250.03766 C 105.10398 247.6882 100.38666 247.44097 99.00831 249.56493 C 97.24444 252.59785 97.45957 262.99884 99.49667 272.4817 C 100.24229 275.984 101.49404 282.72267 102.17785 287.40432 C 103.58997 297.53016 104.29549 300.1857 107.13453 307.26095 C 108.33223 310.19567 109.43245 313.3787 109.54795 314.39838 C 109.66345 315.41806 110.47529 317.6568 111.40226 319.3103 C 112.245 320.9594 112.91484 322.68388 112.89277 323.10507 C 112.86628 323.6105 113.70019 325.42805 114.79123 327.1746 C 115.88226 328.92118 116.71175 330.82297 116.68527 331.3284 C 116.65436 331.91806 118.01171 335.0301 119.78143 338.33267 C 130.45745 358.65798 132.66159 361.7299 150.77703 381.9383 C 159.95228 392.21758 170.86967 401.49006 180.0571 406.70183 C 185.79923 409.9592 187.25334 409.61305 194.61592 402.9035 C 198.25068 399.63074 201.02981 396.56656 200.71494 396.1277 C 200.4843 395.69328 201.49038 394.22556 202.99306 392.9528 C 204.4159 391.5914 205.6747 390.1369 205.7012 389.6315 C 205.72327 389.2103 208.14338 386.54965 211.06891 383.9155 C 213.99886 381.1971 216.60952 378.12407 216.99945 377.13087 C 217.38496 376.2219 218.4043 374.5015 219.30406 373.45054 C 220.28807 372.404 221.04585 370.8388 221.09 369.99643 C 221.12973 369.2383 221.70138 368.0012 222.32194 367.44245 C 222.9425 366.8837 224.4051 364.76413 225.61056 362.7156 C 226.73178 360.6626 228.0303 358.45 228.48682 357.79816 C 228.94333 357.14633 229.86958 355.58996 230.52547 354.3573 C 231.18136 353.12463 232.66602 350.5839 233.6986 348.61075 C 234.8154 346.642 237.16415 342.1193 239.04316 338.50113 C 240.83792 334.87854 243.58102 329.2784 245.18083 326.1524 C 248.11006 320.22413 251.07425 312.01703 251.6897 308.33263 C 251.83573 307.1577 252.25215 305.6591 252.54018 304.99844 C 252.8282 304.33778 253.66105 301.34053 254.40964 298.33887 C 255.074 295.3328 255.827 292.2469 256.03522 291.4976 C 256.24342 290.74828 256.8195 289.42696 257.28482 288.60665 C 258.118 287.21434 258.44578 285.79554 259.0605 278.90128 C 259.23303 277.22094 259.64503 275.80655 259.98198 275.8242 C 260.82436 275.86836 261.1699 254.76916 260.40663 251.6038 C 259.97625 250.14526 259.88283 248.7044 260.1488 248.46492 C 261.0309 247.75093 259.80634 243.7167 258.71125 243.6593 C 256.85802 243.56218 243.71644 260.612 243.22425 260.3328 C 242.2443 259.69016 237.12966 267.02434 236.69964 267.17074 C 236.26962 267.31715 235.72887 267.96456 235.5295 268.5454 C 235.3257 269.21047 234.49693 270.51854 233.60599 271.401 C 231.64238 273.40984 224.7992 283.10304 224.75505 283.9454 C 224.7374 284.28237 222.59684 288.05577 220.09285 292.31694 C 217.50462 296.5737 214.90316 301.08317 214.3315 302.32025 C 213.6712 303.63715 212.8601 304.60828 212.52314 304.5906 C 211.84923 304.5553 208.86225 309.97373 207.6704 313.3745 C 207.27605 314.45194 206.64224 315.2634 206.22105 315.24134 C 205.79986 315.21926 204.97108 316.52734 204.38178 318.10137 C 203.01703 321.57755 201.9131 321.68864 200.81288 318.5056 C 199.93888 315.84127 200.0607 305.45793 201.02705 304.74836 C 201.37725 304.5133 202.16963 299.06433 202.76228 292.59126 C 203.35051 286.20242 204.5457 277.9026 205.41386 274.23146 C 206.19778 270.5559 207.26495 264.69898 207.69866 261.25847 C 208.13238 257.81796 208.98693 252.7946 209.54497 250.2053 C 210.19167 247.53617 211.72454 242.46388 211.83968 241.87863 C 212.04311 239.60862 212.8627 236.8641 214.71045 232.23065 C 215.77392 229.66783 217.36454 225.10539 218.2816 222.11256 C 219.19868 219.11972 220.4126 215.29776 220.9265 213.55084 L 221.93223 210.47818 L 228.39206 211.32354 L 234.85189 212.1689 L 239.73697 209.2151 C 242.44546 207.49871 247.2728 204.03506 250.3668 201.40972 C 259.1081 194.18113 268.75393 187.4223 272.63292 185.9362 C 273.9274 185.41276 277.70855 182.57003 280.23533 181.09753 C 284.33137 178.69365 288.56498 176.88826 296.6555 174.01797 C 298.29135 173.42795 299.0138 172.53665 299.09328 171.02037 C 299.1948 169.0829 298.8667 168.89676 295.6745 168.56053 C 291.29853 168.24672 291.30294 168.16248 287.06862 166.758 C 285.24187 166.15545 281.9919 165.30938 279.81497 164.94188 C 277.63803 164.57438 275.65164 163.79453 275.33676 163.35568 C 275.10612 162.92125 274.888 159.02423 274.86045 154.71485 C 274.87226 148.0424 274.03728 141.41004 273.1949 141.3659 C 273.11066 141.36148 271.31076 141.85844 269.24932 142.51063 C 267.18788 143.16281 263.24672 144.2233 260.50696 144.92441 L 255.5417 146.18464 L 254.72986 143.9459 C 254.29066 142.65584 253.80253 140.68746 253.69586 139.4993 C 253.46486 137.45994 248.69206 126.98903 246.42575 123.49148 C 245.32588 121.9134 245.07317 121.90015 242.99407 122.88929 C 241.6996 123.41274 240.4408 124.86721 240.21052 126.03771 C 238.3988 133.20712 237.23344 136.10247 234.50764 139.76073 C 229.14912 146.9132 216.09619 163.88319 213.86257 167.82065 C 212.74135 169.87362 211.4649 171.66505 211.19894 171.90452 C 210.4143 172.37021 209.53733 176.20984 207.95662 185.41861 C 206.88503 191.35977 206.86773 193.30165 207.75497 195.7133 C 208.7842 198.63919 208.66906 199.22444 204.97357 208.49132 C 200.5957 219.4963 199.67423 222.57336 198.42128 230.36334 C 197.9254 233.37824 197.36294 236.05178 197.18122 236.29566 C 196.44992 237.35544 192.95334 263.78 191.60876 278.15377 C 189.87055 296.81484 189.01862 293.7293 189.56318 270.44433 C 189.97566 251.29144 190.94177 229.63347 191.05297 211.39395 C 191.04342 208.35255 191.0909 202.61113 191.223 198.47906 C 191.35066 194.43123 191.18588 191.1283 190.93317 191.11505 C 190.59622 191.0974 190.59109 187.97176 190.95822 184.18989 C 191.32978 180.32378 191.97504 171.23492 192.5276 163.91505 C 193.48667 150.45024 193.81002 149.11567 196.847 149.19037 C 198.11056 149.25659 202.91988 144.52495 205.31314 140.76479 C 208.80996 135.28861 213.59171 126.2476 214.01696 124.5805 C 214.1321 123.99525 214.70816 122.67393 215.3508 121.69398 C 216.72916 119.57001 221.14126 103.07633 222.35448 96.0445 C 222.75288 93.27789 223.53237 89.68657 224.03744 88.10812 C 224.45827 86.52526 225.304 81.67037 225.8661 77.3919 L 226.86191 69.672916 L 224.75597 69.56255 C 223.57664 69.50074 222.19793 70.01977 221.57295 70.66277 C 221.0322 71.310186 218.34136 72.68961 215.66818 73.732085 C 212.91076 74.77014 209.258 76.77491 207.3297 78.10983 L 203.9918 80.55344 L 201.13142 77.10924 C 199.53937 75.25195 198.20004 73.4079 198.2177 73.07095 C 198.27068 72.0601 191.9069 64.5467 190.9847 64.4139 C 190.47927 64.38741 189.4331 65.00834 188.63522 65.72675 Z" fill="black"/>
        </g>
        <g id="Graphic_1157">
          <path d="M 191.97874 71.57536 C 192.70598 72.20476 193.33573 73.08246 193.31366 73.50365 C 193.29159 73.92484 194.06774 75.23255 195.10103 76.46927 C 196.05008 77.70158 197.62447 79.89582 198.56027 81.38084 L 200.27665 84.08934 L 197.36472 88.07572 C 193.2694 93.68947 190.75622 96.51419 189.74537 96.46121 C 189.23994 96.43472 187.475 94.65284 185.73213 92.44977 C 183.98927 90.2467 182.3928 88.47365 182.05586 88.45599 C 181.7189 88.43833 180.26443 87.17954 178.65914 85.57496 L 175.85208 82.72483 L 182.76698 76.49863 C 186.57904 73.06623 189.85036 70.28125 190.10307 70.294495 C 190.35579 70.30774 191.16726 70.94155 191.97874 71.57536 Z" fill="#FFFFFF"/>
        </g>
        <g id="Graphic_1156">
          <path d="M 221.13566 80.95905 C 220.76375 83.22023 219.74514 88.15053 218.86375 92.07439 C 217.98235 95.99826 216.6757 101.58922 216.0956 104.5997 C 215.43124 107.60578 214.28388 111.76911 213.4952 113.92398 C 212.7065 116.07885 212.0863 118.24254 212.05981 118.74797 C 212.03333 119.2534 210.13666 123.20852 207.79673 127.56276 C 205.46122 131.83276 203.56456 135.78788 203.53807 136.29331 C 203.50717 136.88298 201.96917 138.82963 200.09422 140.75863 C 197.32392 143.65434 195.7635 144.41726 191.23266 145.44684 C 185.25213 146.73833 178.26039 146.37191 176.4068 144.66985 C 175.75938 144.1291 175.31576 142.92329 175.3555 142.16515 C 175.4791 139.80649 178.19058 131.58614 180.97783 125.14361 C 182.32934 121.92014 184.07077 117.70347 184.85504 115.63284 C 185.6393 113.56221 186.72044 110.66245 187.30092 109.2569 C 188.18267 106.93797 190.65134 103.3507 200.89865 89.95031 C 203.261 86.77982 210.08726 80.63344 211.0981 80.68641 C 211.60354 80.7129 212.468 80.33586 213.08856 79.7771 C 214.1524 78.81922 218.887 77.12456 220.74907 77.05321 C 221.4274 77.00429 221.53406 78.19245 221.13566 80.95905 Z" fill="#FFFFFF"/>
        </g>
        <g id="Graphic_1155">
          <path d="M 160.65359 80.99915 C 166.70583 83.17466 172.12426 86.16164 177.3124 90.31913 C 182.74444 94.65833 187.23696 100.80662 186.4571 102.79301 C 186.16025 103.62215 184.7245 106.8412 183.373 110.06467 C 181.16182 115.18588 179.12794 120.14745 173.64687 134.47337 C 172.8626 136.544 172.13166 139.20871 172.06544 140.47228 C 171.9948 141.82008 171.60488 142.81328 171.26793 142.79562 C 169.92012 142.72498 167.06856 139.1123 167.14803 137.59602 C 167.19217 136.75364 166.66432 135.54341 166.02132 134.91843 C 165.37832 134.29344 164.99244 133.59747 165.17858 133.26934 C 165.44895 132.94564 164.9428 129.70928 164.21044 125.95425 C 163.47807 122.19922 162.78102 117.7703 162.61218 116.15653 C 162.52759 114.54718 162.20794 112.58764 161.99054 111.90049 C 161.77315 111.21334 161.72828 108.84585 161.9273 106.66008 C 162.29003 102.96245 160.58618 96.79137 157.65885 91.40086 C 155.43227 87.14518 153.17885 81.78999 153.24066 80.61066 C 153.32454 79.01014 155.262 79.111675 160.65359 80.99915 Z" fill="#FFFFFF"/>
        </g>
        <g id="Graphic_1154">
          <path d="M 248.32577 137.54243 C 250.85875 144.01038 253.07793 154.85427 252.6799 159.22581 L 252.37492 163.43329 L 245.05983 164.40143 C 237.062 165.50273 234.45982 166.80233 227.02183 173.339 C 224.36666 175.64945 220.57226 178.7449 218.55974 180.0754 C 216.5428 181.49015 213.9763 183.72078 212.8904 185.09985 L 210.90472 187.52986 L 211.7372 182.92768 C 212.9504 175.89585 215.65377 171.05384 225.25402 158.71764 C 227.0624 156.44728 230.2491 152.05295 232.35434 148.95345 C 234.464 145.7697 237.46016 141.78774 238.82085 140.00073 C 240.35443 138.1383 241.49773 135.66415 241.66143 134.15228 C 241.73207 132.80447 242.3258 131.1462 242.8577 130.66727 C 244.1875 129.46992 246.01018 131.76164 248.32577 137.54243 Z" fill="#FFFFFF"/>
        </g>
        <g id="Graphic_1153">
          <path d="M 142.79326 151.01729 C 144.28115 162.92096 145.32434 168.804 147.63623 177.8789 C 149.18926 183.7042 149.46918 186.4219 148.94717 191.54716 C 148.35893 197.936 148.1728 198.26411 142.62336 204.224 C 139.40097 207.6873 136.81202 208.7342 130.8933 208.84635 C 123.36523 209.0431 123.75993 209.5706 123.0482 198.97465 C 122.89261 197.10817 122.5862 194.89591 122.37322 194.12453 C 121.79203 192.32022 122.01575 181.60435 122.60541 181.63525 C 122.85813 181.6485 123.07958 180.64647 123.23445 179.30308 C 123.7561 172.57288 125.81575 163.89602 127.5752 160.94734 C 128.31533 159.71909 128.8958 158.31353 128.91788 157.89234 C 128.94437 157.38691 130.4202 155.01465 132.15316 152.5714 C 133.88612 150.12814 135.8317 146.85133 136.42101 145.2773 C 137.01473 143.61903 138.41516 141.07388 139.50106 139.69481 L 141.41574 137.00767 L 141.54485 139.37958 C 141.6471 140.65197 142.22018 145.83463 142.79326 151.01729 Z" fill="#FFFFFF"/>
        </g>
        <g id="Graphic_1152">
          <path d="M 118.97387 139.71713 C 122.36582 141.07746 126.35184 142.38446 127.94353 142.63682 C 131.71658 143.17243 132.5858 144.31608 131.10114 146.85682 C 130.36985 147.9166 128.41102 151.44612 126.64715 154.47904 C 122.73833 161.3696 123.09735 160.96607 121.88676 159.889 C 121.31917 159.4369 119.00907 158.38667 116.68131 157.6734 C 109.95076 155.5468 106.34141 153.49933 106.42529 151.8988 C 106.46503 151.14067 106.84612 150.31595 107.28056 150.0853 C 107.71499 149.85467 107.93644 148.85264 107.72788 147.99702 C 107.51931 147.1414 107.85149 145.63836 108.40989 144.654 C 109.04812 143.75828 109.58409 141.59017 109.75221 139.99406 C 110.11052 136.38067 110.7046 136.32733 118.97387 139.71713 Z" fill="#FFFFFF"/>
        </g>
        <g id="Graphic_1151">
          <path d="M 269.94173 148.98053 C 270.13706 150.08886 270.28417 153.72875 270.3647 157.02727 L 270.46363 163.1987 L 264.81528 162.98716 C 259.16692 162.77561 256.89692 162.57218 256.41798 162.04026 C 255.61533 161.23797 256.6417 151.3244 257.61687 150.44634 C 258.76936 149.40864 265.81372 147.15927 268.1812 147.1144 C 269.11224 147.07873 269.7464 147.87219 269.94173 148.98053 Z" fill="#FFFFFF"/>
        </g>
        <g id="Graphic_1150">
          <path d="M 187.40318 170.16457 C 186.84251 180.86278 186.29986 192.82897 186.34508 196.8014 C 186.3903 200.77382 186.10955 214.18972 185.70447 226.7544 C 185.38805 239.23927 185.2309 250.2965 185.35082 251.23195 C 185.55497 252.1718 185.44604 260.6975 185.28413 270.23403 C 184.691 294.4456 184.68253 296.21903 185.50391 301.49917 C 186.31205 307.032 186.52539 309.40834 187.03774 320.58513 C 187.30035 325.2447 188.32624 333.06963 189.24952 338.01724 L 191.0604 346.9814 L 187.96746 354.42155 C 182.66334 366.9829 183.12426 366.24683 181.70952 364.2299 C 181.08418 363.26796 179.55835 360.1471 178.44047 357.30103 C 176.71932 353.07183 176.47066 351.3694 176.98862 347.93332 C 177.36494 345.5879 178.0738 343.3444 178.5259 342.7768 C 180.23237 340.83897 180.9355 312.9165 179.9145 287.2688 C 179.75855 283.7974 180.35024 253.16608 180.5934 250.13793 C 180.64197 249.2113 180.33115 247.0833 179.90519 245.54052 C 179.48364 243.91352 179.29607 237.8219 179.51645 232.00507 C 179.9392 219.10343 178.26445 204.31802 178.6323 203.74601 C 178.99575 203.25824 179.51406 201.42708 179.68218 199.83098 C 179.76606 198.23046 180.1067 194.95401 180.31014 192.684 C 180.518 190.32976 180.47683 184.66816 180.2142 180.0086 C 178.94157 159.16246 178.78157 157.38022 176.73707 154.4856 C 175.71703 152.99616 174.87429 151.34708 174.89636 150.92589 C 174.91844 150.5047 177.96866 150.32668 181.67954 150.43669 L 188.41857 150.78986 L 187.40318 170.16457 Z" fill="#FFFFFF"/>
        </g>
        <g id="Graphic_1149">
          <path d="M 96.44657 156.95082 C 102.80008 158.21295 109.63695 159.92276 111.45045 160.77803 C 121.76387 165.45752 121.35592 165.18274 121.09068 168.63207 C 120.91373 170.39665 120.33397 175.01208 119.70529 178.94918 C 118.83308 184.3095 118.772 188.6987 119.36786 196.67004 C 119.82139 202.52219 120.07076 207.43447 119.89346 207.59412 C 119.26847 208.23712 115.26002 205.74637 112.85649 203.25527 C 109.40644 199.78016 104.32389 191.99603 104.41218 190.31128 C 104.45191 189.55314 103.62684 187.5671 102.52256 186.07325 C 101.50693 184.49958 100.90808 183.03222 101.17845 182.70851 C 101.4444 182.46904 101.07619 181.43611 100.28238 180.46535 C 99.48856 179.49459 99.1071 178.71437 99.44405 178.73203 C 99.781 178.7497 99.41279 177.71676 98.55681 176.3204 C 97.69642 175.00826 96.7871 173.01782 96.50754 171.90507 C 96.2324 170.70808 93.1502 166.66096 89.7178 162.8489 C 86.20558 158.94818 83.4206 155.67687 83.42501 155.59263 C 83.44709 155.17144 91.68033 156.02527 96.44657 156.95082 Z" fill="#FFFFFF"/>
        </g>
        <g id="Graphic_1148">
          <path d="M 277.42113 169.05384 C 279.7577 169.59864 282.01448 170.05479 282.43125 170.1611 C 282.93227 170.27182 284.10277 170.5021 285.19786 170.5595 C 287.796 170.94907 287.47264 172.28363 284.3606 173.64098 C 282.88884 174.32407 279.75915 176.01837 279.12975 176.74561 C 278.50477 177.38861 277.6315 177.93413 277.2103 177.91206 C 276.45216 177.87232 273.14075 179.81051 268.5838 182.95046 C 267.3559 183.81527 265.43203 185.06595 264.30162 185.68247 C 259.42095 188.55204 250.84373 195.8737 250.04585 196.5921 C 249.24798 197.31051 247.48376 198.7385 246.1672 199.68314 C 244.76643 200.62335 242.66084 202.11792 241.42854 203.06697 C 240.19623 204.01602 238.44084 205.27553 237.4789 205.90087 C 235.39097 207.05848 228.73654 208.31466 228.09795 207.60544 C 227.85848 207.33948 226.8653 206.94955 225.86326 206.7281 C 224.777 206.50223 222.05013 205.3457 219.66904 204.03833 C 216.46322 202.34988 215.01316 201.00684 214.03285 198.75927 C 213.363 197.03478 212.2543 195.62517 211.66465 195.59426 C 211.07498 195.56336 210.6137 194.6945 210.66668 193.68364 C 210.7638 191.8304 216.00313 186.95236 223.53896 181.77233 C 225.99475 180.0427 228.91587 177.49278 230.09042 176.0339 C 234.51387 170.60628 242.3252 168.22817 257.21728 167.7416 C 265.59657 167.4205 271.99423 167.84026 277.42113 169.05384 Z" fill="#FFFFFF"/>
        </g>
        <g id="Graphic_1147">
          <path d="M 214.81486 206.40248 C 216.52205 207.67452 217.98535 208.76484 218.06076 208.93773 C 218.38005 209.29234 215.13737 221.2015 214.18904 223.17906 C 212.5804 226.47353 208.02596 240.84802 206.5067 247.27253 C 206.26758 248.6115 205.75369 250.35842 205.5499 251.0235 C 205.3461 251.68857 204.73508 255.28873 204.28812 258.98195 C 203.5623 264.7723 202.40649 270.70903 200.63928 278.641 C 199.97934 281.56283 199.1428 287.85418 197.35496 302.62707 C 196.1204 313.28996 196.05894 316.07422 196.9333 320.3435 C 198.3447 327.2595 198.08388 330.6246 195.91243 334.98765 L 194.029 338.69006 L 193.23889 334.4252 C 192.77283 332.03563 192.24903 329.13622 192.06254 327.8594 C 191.87605 326.5826 191.50342 325.6339 191.15322 325.86897 C 190.80744 326.0198 191.04476 316.65613 191.74265 304.9515 C 192.97065 284.74323 195.01897 265.0003 197.7419 248.50257 C 199.93805 235.6094 200.17275 234.35466 201.04567 232.2042 C 201.6129 231.05137 201.9539 229.37985 201.91824 228.44882 C 201.8822 225.91286 204.21258 218.51723 206.25565 214.99212 C 207.18632 213.3515 208.046 211.45377 208.0769 210.8641 C 208.12988 209.85325 211.0547 204.00922 211.4759 204.0313 C 211.64436 204.04012 213.10767 205.13044 214.81486 206.40248 Z" fill="#FFFFFF"/>
        </g>
        <g id="Graphic_1146">
          <path d="M 136.09946 214.27181 C 136.05532 215.1142 136.81823 216.67462 137.85152 217.91134 C 143.08453 224.43632 152.1111 243.99943 156.50353 258.50493 C 157.7325 262.45492 159.28958 266.59104 159.9061 267.72145 C 160.5226 268.85186 161.81815 273.14322 162.78558 277.24845 C 163.753 281.35367 166.28229 291.11572 168.40768 298.9138 C 172.2991 313.30858 175.17118 329.4238 174.72457 334.72194 C 174.4814 337.7501 172.49752 348.20477 172.30661 347.0122 C 172.32427 346.67524 172.26652 346.1654 172.20436 345.7398 C 171.97336 343.70043 168.80215 338.1282 165.77329 334.67517 C 163.94618 332.4677 162.52702 330.535 162.78857 330.37975 C 162.96587 330.2201 162.50423 327.7463 161.71889 325.00213 C 160.93354 322.25796 159.89035 316.3749 159.44602 311.95922 C 159.00168 307.54353 158.4731 303.12343 158.26895 302.18357 C 158.0648 301.2437 157.53217 298.51278 157.14594 296.21187 C 156.14284 291.1756 152.46 277.63647 151.05814 273.7619 C 150.45928 272.29452 150.0554 270.33056 150.10837 269.3197 C 150.16135 268.30885 149.86413 267.53305 149.52718 267.5154 C 149.19023 267.49774 148.29857 265.17034 147.68612 262.35076 C 146.98942 259.52676 146.1066 257.03088 145.61441 256.75168 C 145.21088 256.39266 144.9269 255.36414 144.97547 254.43753 C 145.02845 253.42667 144.51383 251.96373 143.87966 251.17027 C 143.24549 250.3768 142.58006 248.56808 142.48222 247.21145 C 142.38438 245.8548 141.91391 243.54948 141.56336 242.1796 C 140.78684 239.26696 131.8754 219.1186 129.85739 215.71854 C 129.16106 214.49947 128.71302 213.3779 128.89474 213.134 C 129.15628 212.97878 130.85428 212.81436 132.71193 212.82724 C 135.4962 212.8887 136.15686 213.17672 136.09946 214.27181 Z" fill="#FFFFFF"/>
        </g>
        <g id="Graphic_1145">
          <path d="M 256.31586 260.69498 C 256.2989 264.2418 256.03033 272.59017 255.6323 276.9617 C 255.3185 281.33767 254.77846 285.19495 254.41944 285.59848 C 253.2228 287.47856 248.18094 303.09454 247.45037 307.3642 C 246.5605 313.06146 242.61707 323.8358 239.87361 327.831 C 238.77447 329.4628 237.17466 332.58878 236.22192 334.65058 C 233.93532 339.5989 230.63382 346.1834 229.62332 347.73537 C 227.9746 350.18304 213.79305 375.7942 213.76656 376.29964 C 213.7489 376.6366 212.49894 377.9226 210.99185 379.2796 C 209.48917 380.55234 207.4325 382.72523 206.35542 383.9358 C 205.27393 385.23065 203.30592 387.3237 202.05154 388.69395 C 200.71733 389.97553 199.09068 392.002 198.43921 393.15044 C 196.77725 395.85083 192.68598 399.7754 188.66094 402.4364 L 185.50918 404.5519 L 185.23737 398.4559 C 185.077 395.0687 184.91188 390.16083 184.87584 387.62487 C 184.79494 382.7214 184.41683 377.04216 184.16411 377.0289 C 183.2375 376.98035 183.85258 371.69103 184.99146 369.3011 C 185.8423 367.57184 187.77429 362.9428 189.33842 358.8858 C 190.89813 354.913 192.98093 350.62977 194.06683 349.2507 C 195.14832 347.95587 195.81745 346.4705 195.5868 346.03606 C 195.0457 345.07854 199.38825 334.74747 203.7889 326.53117 C 205.47736 323.32536 206.88661 320.61173 206.9841 320.36343 C 207.20996 319.27717 212.78076 309.68622 215.33808 306.01913 C 216.8095 303.7311 219.1141 300.05077 220.41263 297.83815 C 221.71558 295.5413 223.0895 293.50157 223.4397 293.26652 C 223.87414 293.03588 224.14893 292.62793 224.07352 292.45504 C 223.93595 291.85655 225.9036 288.15855 227.81387 285.55565 C 228.7313 284.16775 230.84095 280.984 232.4985 278.36787 C 234.0674 275.83155 237.96775 270.7144 239.04041 269.58804 C 240.1929 268.55034 241.36304 267.1757 241.558 266.6791 C 241.75738 266.09825 243.7298 263.92095 245.95054 261.84114 C 248.17127 259.76132 251.1233 256.62173 252.56823 254.83913 C 255.8127 250.95464 256.44245 251.83234 256.31586 260.69498 Z" fill="#FFFFFF"/>
        </g>
        <g id="Graphic_1144">
          <path d="M 107.34429 256.85776 C 108.20027 258.25413 111.85006 262.75334 115.43327 266.91118 C 119.01649 271.06902 121.94787 274.77036 121.92138 275.27578 C 121.8993 275.69697 122.20977 276.22006 122.53789 276.4062 C 122.87043 276.5081 124.83952 279.22983 126.78654 282.37276 C 128.81779 285.5201 131.25258 289.02648 132.28586 290.2632 C 133.31915 291.49992 135.52771 294.48762 137.26174 296.85917 C 138.99137 299.31495 140.65882 301.34513 140.98694 301.53127 C 141.3993 301.7218 141.62111 302.32473 141.59904 302.7459 C 141.57255 303.25134 142.10924 304.2931 142.74341 305.08656 C 144.8898 307.64866 149.0189 314.2847 152.09704 320.021 C 157.31752 330.00856 160.34233 335.15077 163.3403 339.19347 C 164.99892 341.39212 167.2564 345.05814 168.39635 347.48302 C 169.54073 349.82366 170.92457 352.43027 171.47891 353.13507 C 172.03326 353.83988 173.25304 356.3534 174.22452 358.76946 C 175.20041 361.10128 176.57542 363.87635 177.285 364.8427 C 177.99458 365.80905 178.73984 367.70643 178.9175 369.1517 C 179.09958 370.51277 179.87204 375.1146 180.49368 379.37063 C 181.20398 383.54685 181.67516 389.06204 181.62696 391.5936 C 181.49451 394.12073 181.61037 396.74535 181.82335 397.51673 C 181.9521 398.2837 181.72181 399.4542 181.2653 400.10603 C 180.53843 401.08157 180.11724 401.0595 177.74056 399.6679 C 174.87612 397.91287 167.88771 392.6474 165.47094 390.409 C 164.74812 389.6954 163.68393 389.04832 163.26274 389.02625 C 162.75732 388.99976 162.44244 388.5609 162.46451 388.13973 C 162.491 387.6343 162.1717 387.2797 161.83476 387.26203 C 159.89728 387.1605 144.58007 369.9707 137.33788 359.8772 C 135.60826 357.42142 133.52844 355.2007 132.78354 354.90825 C 131.95882 354.52715 131.31582 353.90217 131.3379 353.48098 C 131.40853 352.13317 128.38778 345.3018 126.87556 343.53315 C 126.16598 342.5668 124.2322 339.17116 122.62655 335.96165 C 121.0209 332.75214 119.39318 329.9638 118.98965 329.6048 C 118.5817 329.33 118.44413 328.7315 118.71892 328.32357 C 119.07794 327.92004 118.84289 327.56984 118.33746 327.54335 C 117.83203 327.51686 117.59698 327.16667 117.87177 326.75872 C 118.59865 325.7832 116.70902 321.54516 115.52969 321.48336 C 114.94003 321.45245 114.71821 320.84955 115.0949 320.10906 C 115.38734 319.36417 115.17878 318.50854 114.69542 318.06087 C 114.12342 317.693 113.58673 316.65125 113.4624 315.80005 C 113.33807 314.94884 113.21816 314.0134 113.06293 313.75185 C 112.99193 313.49472 112.86319 312.72775 112.89851 312.05385 C 112.84959 311.37553 112.37065 310.8436 111.77657 310.89695 C 111.26231 311.03894 111.03167 310.6045 111.3197 309.94384 C 111.60774 309.2832 111.12844 307.14634 110.21912 305.1559 C 109.31422 303.0812 108.44022 300.41685 108.24932 299.22428 C 107.6365 294.79976 106.39871 291.01824 105.25911 290.1983 C 104.85116 289.9235 104.68233 288.30975 104.85928 286.54517 C 105.03622 284.7806 104.77396 281.72595 104.19719 279.8374 C 103.70906 277.86902 103.20733 274.54843 103.14481 272.5179 C 102.99805 270.48294 102.55407 267.6722 102.11486 266.38213 C 101.68448 264.9236 101.67494 261.8822 102.1664 258.95154 C 103.1361 253.34292 104.69211 252.66424 107.34429 256.85776 Z" fill="#FFFFFF"/>
        </g>
      </g>
    </g>
  </g>
</svg>
