<?xml version="1.0" encoding="UTF-8" standalone="no"?>
<!DOCTYPE svg PUBLIC "-//W3C//DTD SVG 1.1//EN" "http://www.w3.org/Graphics/SVG/1.1/DTD/svg11.dtd">
<svg xmlns="http://www.w3.org/2000/svg" xmlns:xl="http://www.w3.org/1999/xlink" version="1.1" xmlns:dc="http://purl.org/dc/elements/1.1/" viewBox="38.25 60.760815 261 359.10194" width="261" height="359.10194">
  <defs>
    <clipPath id="artboard_clip_path">
      <path d="M 38.25 60.760815 L 299.25 60.760815 L 299.25 419.86276 L 38.25 419.86276 Z"/>
    </clipPath>
  </defs>
  <g id="Tulip_Slipped_and_Leaved_(1)" stroke-opacity="1" fill="none" fill-opacity="1" stroke-dasharray="none" stroke="none">
    <title>Tulip Slipped and Leaved (1)</title>
    <g id="Tulip_Slipped_and_Leaved_(1)_Layer_2" clip-path="url(#artboard_clip_path)">
      <title>Layer 2</title>
      <g id="Group_155">
        <g id="Graphic_173">
          <path d="M 156.10935 331.12815 C 166.21928 310.5761 164.60924 285.6599 151.9525 266.79886 C 139.29576 247.93784 117.77288 238.38146 96.3842 242.12595 C 88.86704 243.9855 81.02388 241.02876 76.24651 234.5344 C 70.89263 226.2494 63.406394 219.8131 54.700245 216.01002 C 47.17053 209.84593 42.430026 200.54942 41.65456 190.4264 C 38.230084 228.81343 61.8094 264.00043 96.83461 272.77062 C 126.09747 276.86805 149.81296 300.21657 156.10935 331.12815 Z" fill="#FFFFFF"/>
          <path d="M 156.10935 331.12815 C 166.21928 310.5761 164.60924 285.6599 151.9525 266.79886 C 139.29576 247.93784 117.77288 238.38146 96.3842 242.12595 C 88.86704 243.9855 81.02388 241.02876 76.24651 234.5344 C 70.89263 226.2494 63.406394 219.8131 54.700245 216.01002 C 47.17053 209.84593 42.430026 200.54942 41.65456 190.4264 C 38.230084 228.81343 61.8094 264.00043 96.83461 272.77062 C 126.09747 276.86805 149.81296 300.21657 156.10935 331.12815 Z" stroke="black" stroke-linecap="round" stroke-linejoin="round" stroke-width="2"/>
        </g>
        <g id="Graphic_172">
          <path d="M 162.9865 404.4336 C 152.66191 391.6567 149.38771 374.5731 154.25663 358.88425 C 161.2554 340.4752 171.5481 323.4946 184.63104 308.77343 C 207.53307 289.09217 233.0918 272.73305 260.5548 260.17764 C 273.76023 255.0837 286.06386 247.90613 296.99754 238.918 C 271.10254 291.79342 227.8071 334.152 174.37794 358.88425 C 164.43275 371.83273 160.30747 388.3279 162.9865 404.4336 Z" fill="#FFFFFF"/>
          <path d="M 162.9865 404.4336 C 152.66191 391.6567 149.38771 374.5731 154.25663 358.88425 C 161.2554 340.4752 171.5481 323.4946 184.63104 308.77343 C 207.53307 289.09217 233.0918 272.73305 260.5548 260.17764 C 273.76023 255.0837 286.06386 247.90613 296.99754 238.918 C 271.10254 291.79342 227.8071 334.152 174.37794 358.88425 C 164.43275 371.83273 160.30747 388.3279 162.9865 404.4336 Z" stroke="black" stroke-linecap="round" stroke-linejoin="round" stroke-width="2"/>
        </g>
        <g id="Graphic_171">
          <rect x="150.20288" y="161.8782" width="13.205377" height="255.74537" fill="#FFFFFF"/>
          <rect x="150.20288" y="161.8782" width="13.205377" height="255.74537" stroke="black" stroke-linecap="round" stroke-linejoin="round" stroke-width="2"/>
        </g>
        <g id="Graphic_170">
          <path d="M 152.96218 340.3164 C 165.38035 320.6782 165.61441 295.7035 153.5665 275.836 C 141.51858 255.96852 119.26433 244.63105 96.10983 246.5646 C 87.93046 247.7849 79.781 244.17777 75.18479 237.30273 C 70.112 228.5926 62.614835 221.54634 53.60717 217.02288 C 46.04254 210.24452 41.704865 200.57786 41.670096 190.42067 C 34.99809 228.40124 57.439454 265.4632 94.18716 277.1527 C 125.14231 283.69934 148.6578 308.9707 152.96218 340.3164 Z" fill="#FFFFFF"/>
          <path d="M 152.96218 340.3164 C 165.38035 320.6782 165.61441 295.7035 153.5665 275.836 C 141.51858 255.96852 119.26433 244.63105 96.10983 246.5646 C 87.93046 247.7849 79.781 244.17777 75.18479 237.30273 C 70.112 228.5926 62.614835 221.54634 53.60717 217.02288 C 46.04254 210.24452 41.704865 200.57786 41.670096 190.42067 C 34.99809 228.40124 57.439454 265.4632 94.18716 277.1527 C 125.14231 283.69934 148.6578 308.9707 152.96218 340.3164 Z" stroke="black" stroke-linecap="round" stroke-linejoin="round" stroke-width="2"/>
        </g>
        <g id="Graphic_169">
          <path d="M 162.61225 405.95207 C 155.92608 398.4644 152.55616 388.5888 153.27049 378.57583 C 153.98482 368.56286 158.72254 359.26564 166.40394 352.803 C 177.19023 347.6419 186.47246 339.8005 193.36338 330.0283 C 199.60574 319.42727 210.69144 312.6041 222.968 311.80694 C 230.9075 308.25047 238.01943 303.07968 243.85092 296.62383 C 250.69463 286.21163 260.66395 278.2379 272.3254 273.84916 C 283.20784 264.3318 291.66622 252.35867 297 238.92145 C 278.684 282.61606 246.8977 319.3228 206.26985 343.6964 C 183.61147 357.38703 167.76439 379.98495 162.61225 405.95207 Z" fill="#FFFFFF"/>
          <path d="M 162.61225 405.95207 C 155.92608 398.4644 152.55616 388.5888 153.27049 378.57583 C 153.98482 368.56286 158.72254 359.26564 166.40394 352.803 C 177.19023 347.6419 186.47246 339.8005 193.36338 330.0283 C 199.60574 319.42727 210.69144 312.6041 222.968 311.80694 C 230.9075 308.25047 238.01943 303.07968 243.85092 296.62383 C 250.69463 286.21163 260.66395 278.2379 272.3254 273.84916 C 283.20784 264.3318 291.66622 252.35867 297 238.92145 C 278.684 282.61606 246.8977 319.3228 206.26985 343.6964 C 183.61147 357.38703 167.76439 379.98495 162.61225 405.95207 Z" stroke="black" stroke-linecap="round" stroke-linejoin="round" stroke-width="2"/>
        </g>
        <g id="Graphic_168">
          <path d="M 157.3885 160.4467 L 157.3885 160.57773 L 157.50314 160.51222 L 157.6178 160.57773 L 157.6178 160.4467 C 171.07685 152.68299 180.8968 139.88651 184.91377 124.877 C 188.93075 109.86749 186.8151 93.87671 179.03303 80.42826 C 175.26895 73.292765 169.26363 67.59246 161.94179 64.205095 C 159.26529 62.61309 155.93604 62.597416 153.24467 64.16415 C 145.8272 67.49931 139.74282 73.22613 135.96507 80.42826 C 128.18368 93.8777 126.06928 109.86923 130.08783 124.87886 C 134.10637 139.88849 143.92805 152.68436 157.3885 160.4467 Z" fill="#FFFFFF"/>
          <path d="M 157.3885 160.4467 L 157.3885 160.57773 L 157.50314 160.51222 L 157.6178 160.57773 L 157.6178 160.4467 C 171.07685 152.68299 180.8968 139.88651 184.91377 124.877 C 188.93075 109.86749 186.8151 93.87671 179.03303 80.42826 C 175.26895 73.292765 169.26363 67.59246 161.94179 64.205095 C 159.26529 62.61309 155.93604 62.597416 153.24467 64.16415 C 145.8272 67.49931 139.74282 73.22613 135.96507 80.42826 C 128.18368 93.8777 126.06928 109.86923 130.08783 124.87886 C 134.10637 139.88849 143.92805 152.68436 157.3885 160.4467 Z" stroke="black" stroke-linecap="round" stroke-linejoin="round" stroke-width="2"/>
        </g>
        <g id="Graphic_167">
          <path d="M 120.3408 84.56799 C 121.78852 81.21305 124.66012 78.68088 128.16985 77.66434 C 129.82911 77.30468 131.2261 76.19253 131.94856 74.65612 C 132.67101 73.1197 132.63645 71.33441 131.85507 69.827105 C 131.47827 69.016855 131.62875 68.059205 132.23589 67.403565 C 132.84303 66.747924 133.78631 66.52444 134.62308 66.83798 C 141.86839 69.2015 148.3757 73.40613 153.5078 79.04016 C 179.22963 104.44883 180.54703 145.55101 156.5051 172.5547 C 133.43894 149.06316 120.46191 117.49041 120.3408 84.56799 Z" fill="#FFFFFF"/>
          <path d="M 120.3408 84.56799 C 121.78852 81.21305 124.66012 78.68088 128.16985 77.66434 C 129.82911 77.30468 131.2261 76.19253 131.94856 74.65612 C 132.67101 73.1197 132.63645 71.33441 131.85507 69.827105 C 131.47827 69.016855 131.62875 68.059205 132.23589 67.403565 C 132.84303 66.747924 133.78631 66.52444 134.62308 66.83798 C 141.86839 69.2015 148.3757 73.40613 153.5078 79.04016 C 179.22963 104.44883 180.54703 145.55101 156.5051 172.5547 C 133.43894 149.06316 120.46191 117.49041 120.3408 84.56799 Z" stroke="black" stroke-linecap="round" stroke-linejoin="round" stroke-width="2"/>
        </g>
        <g id="Graphic_166">
          <path d="M 133.93238 66.83529 C 136.55974 70.1146 137.25723 74.53874 135.76624 78.46733 C 134.27524 82.39592 130.81804 85.24325 126.67651 85.95359" stroke="black" stroke-linecap="round" stroke-linejoin="round" stroke-width="1"/>
        </g>
        <g id="Graphic_165">
          <path d="M 194.96694 84.56799 C 193.51922 81.21305 190.64762 78.68088 187.1379 77.66434 C 185.47863 77.30468 184.08164 76.19253 183.35918 74.65612 C 182.63673 73.1197 182.6713 71.33441 183.45267 69.827105 C 183.82947 69.016855 183.679 68.059205 183.07185 67.403565 C 182.46471 66.747924 181.52143 66.52444 180.68466 66.83798 C 173.43935 69.2015 166.93205 73.40613 161.79995 79.04016 C 136.07811 104.44883 134.76071 145.55101 158.80264 172.5547 C 181.8688 149.06316 194.84583 117.49041 194.96694 84.56799 Z" fill="#FFFFFF"/>
          <path d="M 194.96694 84.56799 C 193.51922 81.21305 190.64762 78.68088 187.1379 77.66434 C 185.47863 77.30468 184.08164 76.19253 183.35918 74.65612 C 182.63673 73.1197 182.6713 71.33441 183.45267 69.827105 C 183.82947 69.016855 183.679 68.059205 183.07185 67.403565 C 182.46471 66.747924 181.52143 66.52444 180.68466 66.83798 C 173.43935 69.2015 166.93205 73.40613 161.79995 79.04016 C 136.07811 104.44883 134.76071 145.55101 158.80264 172.5547 C 181.8688 149.06316 194.84583 117.49041 194.96694 84.56799 Z" stroke="black" stroke-linecap="round" stroke-linejoin="round" stroke-width="2"/>
        </g>
        <g id="Graphic_164">
          <path d="M 181.37536 66.83529 C 178.748 70.1146 178.0505 74.53874 179.5415 78.46733 C 181.0325 82.39592 184.4897 85.24325 188.63123 85.95359" stroke="black" stroke-linecap="round" stroke-linejoin="round" stroke-width="1"/>
        </g>
        <g id="Graphic_163">
          <path d="M 157.3885 174.06674 L 157.3885 174.19777 L 157.50314 174.13226 L 157.6178 174.19777 L 157.6178 174.06674 C 171.07685 166.30303 180.8968 153.50655 184.91377 138.49704 C 188.93075 123.48753 186.8151 107.49675 179.03303 94.0483 C 175.26895 86.91281 169.26363 81.2125 161.94179 77.82514 C 159.26529 76.23313 155.93604 76.21746 153.24467 77.78419 C 145.8272 81.11935 139.74282 86.84617 135.96507 94.0483 C 128.18368 107.49774 126.06928 123.48927 130.08783 138.4989 C 134.10637 153.50853 143.92805 166.3044 157.3885 174.06674 Z" fill="#FFFFFF"/>
          <path d="M 157.3885 174.06674 L 157.3885 174.19777 L 157.50314 174.13226 L 157.6178 174.19777 L 157.6178 174.06674 C 171.07685 166.30303 180.8968 153.50655 184.91377 138.49704 C 188.93075 123.48753 186.8151 107.49675 179.03303 94.0483 C 175.26895 86.91281 169.26363 81.2125 161.94179 77.82514 C 159.26529 76.23313 155.93604 76.21746 153.24467 77.78419 C 145.8272 81.11935 139.74282 86.84617 135.96507 94.0483 C 128.18368 107.49774 126.06928 123.48927 130.08783 138.4989 C 134.10637 153.50853 143.92805 166.3044 157.3885 174.06674 Z" stroke="black" stroke-linecap="round" stroke-linejoin="round" stroke-width="2"/>
        </g>
        <g id="Graphic_162">
          <path d="M 144.75539 95.42821 C 146.4421 90.09918 151.25048 86.36998 156.8316 86.06235 C 162.41272 85.75471 167.60184 88.93285 169.86403 94.0442 C 175.39975 104.20672 178.178 115.6416 177.92238 127.2112" stroke="black" stroke-linecap="round" stroke-linejoin="round" stroke-width="1"/>
        </g>
        <g id="Graphic_161">
          <path d="M 157.88903 174.13525 C 147.88581 175.37743 137.84298 172.15305 130.43243 165.31995 C 123.02189 158.48685 118.99514 148.73799 119.4235 138.66704 L 119.65281 105.50005 C 118.99566 97.97451 115.6425 90.93955 110.21045 85.68994 C 109.74496 83.82246 110.68239 81.88945 112.43704 81.09865 C 114.19168 80.30785 116.2608 80.88585 117.35159 82.47151 C 118.28762 84.3255 120.50372 85.13233 122.41263 84.31412 C 123.80822 84.29836 125.13687 84.91119 126.03083 85.98299 C 126.92479 87.05479 127.28922 88.47185 127.02325 89.84195 C 127.26873 90.97633 128.02783 91.932 129.07722 92.42782 C 130.12662 92.92363 131.34692 92.90318 132.3791 92.37247 C 139.31295 93.23098 145.0435 98.18861 146.89069 104.92679 C 151.04915 116.6854 151.42995 129.44945 147.97988 141.43505 C 145.35736 153.3172 149.112 165.70751 157.88903 174.13525 Z" fill="#FFFFFF"/>
          <path d="M 157.88903 174.13525 C 147.88581 175.37743 137.84298 172.15305 130.43243 165.31995 C 123.02189 158.48685 118.99514 148.73799 119.4235 138.66704 L 119.65281 105.50005 C 118.99566 97.97451 115.6425 90.93955 110.21045 85.68994 C 109.74496 83.82246 110.68239 81.88945 112.43704 81.09865 C 114.19168 80.30785 116.2608 80.88585 117.35159 82.47151 C 118.28762 84.3255 120.50372 85.13233 122.41263 84.31412 C 123.80822 84.29836 125.13687 84.91119 126.03083 85.98299 C 126.92479 87.05479 127.28922 88.47185 127.02325 89.84195 C 127.26873 90.97633 128.02783 91.932 129.07722 92.42782 C 130.12662 92.92363 131.34692 92.90318 132.3791 92.37247 C 139.31295 93.23098 145.0435 98.18861 146.89069 104.92679 C 151.04915 116.6854 151.42995 129.44945 147.97988 141.43505 C 145.35736 153.3172 149.112 165.70751 157.88903 174.13525 Z" stroke="black" stroke-linecap="round" stroke-linejoin="round" stroke-width="2"/>
        </g>
        <g id="Graphic_160">
          <path d="M 126.7929 91.2198 C 136.06473 100.9452 140.61009 114.2446 139.23022 127.61045" stroke="black" stroke-linecap="round" stroke-linejoin="round" stroke-width="1"/>
        </g>
        <g id="Graphic_159">
          <path d="M 118.50087 84.30957 C 124.2625 94.38298 128.53181 105.25035 131.16744 116.55182" stroke="black" stroke-linecap="round" stroke-linejoin="round" stroke-width="1"/>
        </g>
        <g id="Graphic_158">
          <path d="M 157.1135 174.13525 C 167.11671 175.37743 177.15955 172.15305 184.57009 165.31995 C 191.98063 158.48685 196.00738 148.73799 195.57902 138.66704 L 195.34972 105.50005 C 196.00686 97.97451 199.36003 90.93955 204.79207 85.68994 C 205.25757 83.82246 204.32013 81.88945 202.56549 81.09865 C 200.81084 80.30785 198.74172 80.88585 197.65093 82.47151 C 196.7149 84.3255 194.4988 85.13233 192.5899 84.31412 C 191.1943 84.29836 189.86565 84.91119 188.9717 85.98299 C 188.07774 87.05479 187.7133 88.47185 187.97927 89.84195 C 187.7338 90.97633 186.9747 91.932 185.9253 92.42782 C 184.8759 92.92363 183.6556 92.90318 182.62342 92.37247 C 175.68958 93.23098 169.95903 98.18861 168.11183 104.92679 C 163.95337 116.6854 163.57257 129.44945 167.02265 141.43505 C 169.64517 153.3172 165.89053 165.70751 157.1135 174.13525 Z" fill="#FFFFFF"/>
          <path d="M 157.1135 174.13525 C 167.11671 175.37743 177.15955 172.15305 184.57009 165.31995 C 191.98063 158.48685 196.00738 148.73799 195.57902 138.66704 L 195.34972 105.50005 C 196.00686 97.97451 199.36003 90.93955 204.79207 85.68994 C 205.25757 83.82246 204.32013 81.88945 202.56549 81.09865 C 200.81084 80.30785 198.74172 80.88585 197.65093 82.47151 C 196.7149 84.3255 194.4988 85.13233 192.5899 84.31412 C 191.1943 84.29836 189.86565 84.91119 188.9717 85.98299 C 188.07774 87.05479 187.7133 88.47185 187.97927 89.84195 C 187.7338 90.97633 186.9747 91.932 185.9253 92.42782 C 184.8759 92.92363 183.6556 92.90318 182.62342 92.37247 C 175.68958 93.23098 169.95903 98.18861 168.11183 104.92679 C 163.95337 116.6854 163.57257 129.44945 167.02265 141.43505 C 169.64517 153.3172 165.89053 165.70751 157.1135 174.13525 Z" stroke="black" stroke-linecap="round" stroke-linejoin="round" stroke-width="2"/>
        </g>
        <g id="Graphic_157">
          <path d="M 188.20962 91.2198 C 178.9378 100.9452 174.39243 114.2446 175.7723 127.61045" stroke="black" stroke-linecap="round" stroke-linejoin="round" stroke-width="1"/>
        </g>
        <g id="Graphic_156">
          <path d="M 196.50165 84.30957 C 190.74003 94.38298 186.47071 105.25035 183.83508 116.55182" stroke="black" stroke-linecap="round" stroke-linejoin="round" stroke-width="1"/>
        </g>
      </g>
    </g>
  </g>
</svg>
