<?xml version="1.0" encoding="UTF-8" standalone="no"?>
<!DOCTYPE svg PUBLIC "-//W3C//DTD SVG 1.1//EN" "http://www.w3.org/Graphics/SVG/1.1/DTD/svg11.dtd">
<svg xmlns="http://www.w3.org/2000/svg" xmlns:xl="http://www.w3.org/1999/xlink" version="1.1" xmlns:dc="http://purl.org/dc/elements/1.1/" viewBox="36 63 292.5 292.5" width="292.5" height="292.5">
  <defs>
    <clipPath id="artboard_clip_path">
      <path d="M 36 63 L 328.5 63 L 328.5 355.5 L 36 355.5 Z"/>
    </clipPath>
  </defs>
  <g id="Water-Wheel_(1)" stroke-opacity="1" fill="none" fill-opacity="1" stroke-dasharray="none" stroke="none">
    <title>Water-Wheel (1)</title>
    <g id="Water-Wheel_(1)_Layer_2" clip-path="url(#artboard_clip_path)">
      <title>Layer 2</title>
      <g id="Group_3">
        <g id="Group_16">
          <g id="Graphic_32">
            <path d="M 316.58426 157.94419 L 281.82588 143.5468 L 279.2515 149.7619 L 314.0099 164.15929 Z" fill="#FFFFFF"/>
            <path d="M 316.58426 157.94419 L 281.82588 143.5468 L 279.2515 149.7619 L 314.0099 164.15929 Z" stroke="black" stroke-linecap="round" stroke-linejoin="round" stroke-width="2"/>
          </g>
          <g id="Graphic_31">
            <path d="M 240.76032 78.33654 L 206.00194 92.73393 L 208.57632 98.94903 L 243.3347 84.55164 Z" fill="#FFFFFF"/>
            <path d="M 240.76032 78.33654 L 206.00194 92.73393 L 208.57632 98.94903 L 243.3347 84.55164 Z" stroke="black" stroke-linecap="round" stroke-linejoin="round" stroke-width="2"/>
          </g>
          <g id="Graphic_30">
            <path d="M 326.25 213.05503 L 299.6471 186.45212 L 294.89026 191.20895 L 321.49317 217.81186 Z" fill="#FFFFFF"/>
            <path d="M 326.25 213.05503 L 299.6471 186.45212 L 294.89026 191.20895 L 321.49317 217.81186 Z" stroke="black" stroke-linecap="round" stroke-linejoin="round" stroke-width="2"/>
          </g>
          <g id="Graphic_29">
            <rect x="249.04015" y="110.49058" width="37.622196" height="6.727173" fill="#FFFFFF"/>
            <rect x="249.04015" y="110.49058" width="37.622196" height="6.727173" stroke="black" stroke-linecap="round" stroke-linejoin="round" stroke-width="2"/>
          </g>
          <g id="Graphic_28">
            <path d="M 130.67239 75.00634 L 116.275 109.76472 L 122.49009 112.3391 L 136.88748 77.58072 Z" fill="#FFFFFF"/>
            <path d="M 130.67239 75.00634 L 116.275 109.76472 L 122.49009 112.3391 L 136.88748 77.58072 Z" stroke="black" stroke-linecap="round" stroke-linejoin="round" stroke-width="2"/>
          </g>
          <g id="Graphic_27">
            <path d="M 51.064735 150.83028 L 65.462126 185.58866 L 71.67722 183.01428 L 57.27983 148.2559 Z" fill="#FFFFFF"/>
            <path d="M 51.064735 150.83028 L 65.462126 185.58866 L 71.67722 183.01428 L 57.27983 148.2559 Z" stroke="black" stroke-linecap="round" stroke-linejoin="round" stroke-width="2"/>
          </g>
          <g id="Graphic_26">
            <path d="M 185.78322 65.3406 L 159.18031 91.94351 L 163.93714 96.70034 L 190.54005 70.09743 Z" fill="#FFFFFF"/>
            <path d="M 185.78322 65.3406 L 159.18031 91.94351 L 163.93714 96.70034 L 190.54005 70.09743 Z" stroke="black" stroke-linecap="round" stroke-linejoin="round" stroke-width="2"/>
          </g>
          <g id="Graphic_25">
            <rect x="83.21878" y="104.92826" width="6.727173" height="37.622196" fill="#FFFFFF"/>
            <rect x="83.21878" y="104.92826" width="6.727173" height="37.622196" stroke="black" stroke-linecap="round" stroke-linejoin="round" stroke-width="2"/>
          </g>
          <g id="Graphic_24">
            <path d="M 47.91574 260.737 L 82.67412 275.1344 L 85.24849 268.9193 L 50.49012 254.52192 Z" fill="#FFFFFF"/>
            <path d="M 47.91574 260.737 L 82.67412 275.1344 L 85.24849 268.9193 L 50.49012 254.52192 Z" stroke="black" stroke-linecap="round" stroke-linejoin="round" stroke-width="2"/>
          </g>
          <g id="Graphic_23">
            <path d="M 123.73968 340.34466 L 158.49806 325.94727 L 155.92368 319.73218 L 121.1653 334.12957 Z" fill="#FFFFFF"/>
            <path d="M 123.73968 340.34466 L 158.49806 325.94727 L 155.92368 319.73218 L 121.1653 334.12957 Z" stroke="black" stroke-linecap="round" stroke-linejoin="round" stroke-width="2"/>
          </g>
          <g id="Graphic_22">
            <path d="M 38.25 205.62618 L 64.85291 232.2291 L 69.60974 227.47226 L 43.00683 200.86935 Z" fill="#FFFFFF"/>
            <path d="M 38.25 205.62618 L 64.85291 232.2291 L 69.60974 227.47226 L 43.00683 200.86935 Z" stroke="black" stroke-linecap="round" stroke-linejoin="round" stroke-width="2"/>
          </g>
          <g id="Graphic_21">
            <rect x="77.83766" y="301.46345" width="37.622196" height="6.727173" fill="#FFFFFF"/>
            <rect x="77.83766" y="301.46345" width="37.622196" height="6.727173" stroke="black" stroke-linecap="round" stroke-linejoin="round" stroke-width="2"/>
          </g>
          <g id="Graphic_20">
            <path d="M 233.6464 343.49366 L 248.0438 308.73528 L 241.8287 306.1609 L 227.43131 340.9193 Z" fill="#FFFFFF"/>
            <path d="M 233.6464 343.49366 L 248.0438 308.73528 L 241.8287 306.1609 L 227.43131 340.9193 Z" stroke="black" stroke-linecap="round" stroke-linejoin="round" stroke-width="2"/>
          </g>
          <g id="Graphic_19">
            <path d="M 313.25406 267.66972 L 298.85667 232.91134 L 292.64157 235.48572 L 307.03896 270.2441 Z" fill="#FFFFFF"/>
            <path d="M 313.25406 267.66972 L 298.85667 232.91134 L 292.64157 235.48572 L 307.03896 270.2441 Z" stroke="black" stroke-linecap="round" stroke-linejoin="round" stroke-width="2"/>
          </g>
          <g id="Graphic_18">
            <path d="M 178.53557 353.1594 L 205.13848 326.5565 L 200.38166 321.79966 L 173.77875 348.40257 Z" fill="#FFFFFF"/>
            <path d="M 178.53557 353.1594 L 205.13848 326.5565 L 200.38166 321.79966 L 173.77875 348.40257 Z" stroke="black" stroke-linecap="round" stroke-linejoin="round" stroke-width="2"/>
          </g>
          <g id="Graphic_17">
            <rect x="274.37285" y="275.94955" width="6.727173" height="37.622196" fill="#FFFFFF"/>
            <rect x="274.37285" y="275.94955" width="6.727173" height="37.622196" stroke="black" stroke-linecap="round" stroke-linejoin="round" stroke-width="2"/>
          </g>
        </g>
        <g id="Graphic_15">
          <path d="M 203.19195 200.68814 L 280.00918 200.68814 L 280.00918 217.81186 L 202.82955 217.81186 L 257.585 272.5673 L 245.4767 284.6756 L 190.90246 230.10135 L 190.90246 307.281 L 173.77875 307.281 L 173.77875 230.10135 L 119.2045 284.6756 L 107.09621 272.5673 L 161.85166 217.81186 L 84.30961 217.81186 L 84.30961 200.68814 L 161.48925 200.68814 L 107.09621 146.2951 L 119.2045 134.18681 L 173.77875 188.76105 L 173.77875 111.58142 L 190.90246 111.58142 L 190.90246 188.76105 L 245.4767 134.18681 L 257.585 146.2951 Z" fill="#FFFFFF"/>
          <path d="M 203.19195 200.68814 L 280.00918 200.68814 L 280.00918 217.81186 L 202.82955 217.81186 L 257.585 272.5673 L 245.4767 284.6756 L 190.90246 230.10135 L 190.90246 307.281 L 173.77875 307.281 L 173.77875 230.10135 L 119.2045 284.6756 L 107.09621 272.5673 L 161.85166 217.81186 L 84.30961 217.81186 L 84.30961 200.68814 L 161.48925 200.68814 L 107.09621 146.2951 L 119.2045 134.18681 L 173.77875 188.76105 L 173.77875 111.58142 L 190.90246 111.58142 L 190.90246 188.76105 L 245.4767 134.18681 L 257.585 146.2951 Z" stroke="black" stroke-linecap="round" stroke-linejoin="round" stroke-width="2"/>
        </g>
        <g id="Graphic_14">
          <path d="M 96.53656 123.62717 C 143.82477 76.33872 220.49403 76.33872 267.78223 123.62717 C 315.07068 170.91537 315.07068 247.58463 267.78223 294.87283 C 220.49403 342.16128 143.82477 342.16128 96.53656 294.87283 C 49.24812 247.58463 49.24812 170.91537 96.53656 123.62717 M 117.66554 144.85807 C 82.11517 180.40825 82.11517 238.04645 117.66554 273.59663 C 153.21573 309.147 210.85392 309.147 246.4041 273.59663 C 281.95447 238.04645 281.95447 180.40825 246.4041 144.85807 C 210.85392 109.3077 153.21573 109.3077 117.66554 144.85807" fill="#FFFFFF"/>
          <path d="M 96.53656 123.62717 C 143.82477 76.33872 220.49403 76.33872 267.78223 123.62717 C 315.07068 170.91537 315.07068 247.58463 267.78223 294.87283 C 220.49403 342.16128 143.82477 342.16128 96.53656 294.87283 C 49.24812 247.58463 49.24812 170.91537 96.53656 123.62717 M 117.66554 144.85807 C 82.11517 180.40825 82.11517 238.04645 117.66554 273.59663 C 153.21573 309.147 210.85392 309.147 246.4041 273.59663 C 281.95447 238.04645 281.95447 180.40825 246.4041 144.85807 C 210.85392 109.3077 153.21573 109.3077 117.66554 144.85807" stroke="black" stroke-linecap="round" stroke-linejoin="round" stroke-width="2"/>
        </g>
        <g id="Graphic_13">
          <rect x="173.77875" y="200.86935" width="17.123712" height="17.123712" fill="#FFFFFF"/>
          <rect x="173.77875" y="200.86935" width="17.123712" height="17.123712" stroke="black" stroke-linecap="round" stroke-linejoin="round" stroke-width="2"/>
        </g>
        <g id="Group_4">
          <g id="Graphic_12">
            <rect x="71.82924" y="205.71426" width="6.7085645" height="6.7085645" fill="#FFFFFF"/>
            <rect x="71.82924" y="205.71426" width="6.7085645" height="6.7085645" stroke="black" stroke-linecap="round" stroke-linejoin="round" stroke-width="2"/>
          </g>
          <g id="Graphic_11">
            <rect x="285.5998" y="205.89497" width="6.7085645" height="6.7085645" fill="#FFFFFF"/>
            <rect x="285.5998" y="205.89497" width="6.7085645" height="6.7085645" stroke="black" stroke-linecap="round" stroke-linejoin="round" stroke-width="2"/>
          </g>
          <g id="Graphic_10">
            <path d="M 106.2449 289.2373 L 110.98857 284.4936 L 106.2449 279.74994 L 101.50123 284.4936 Z" fill="#FFFFFF"/>
            <path d="M 106.2449 289.2373 L 110.98857 284.4936 L 106.2449 279.74994 L 101.50123 284.4936 Z" stroke="black" stroke-linecap="round" stroke-linejoin="round" stroke-width="2"/>
          </g>
          <g id="Graphic_9">
            <path d="M 257.5313 128.7191 L 252.78762 133.46278 L 257.5313 138.20645 L 262.27496 133.46278 Z" fill="#FFFFFF"/>
            <path d="M 257.5313 128.7191 L 252.78762 133.46278 L 257.5313 138.20645 L 262.27496 133.46278 Z" stroke="black" stroke-linecap="round" stroke-linejoin="round" stroke-width="2"/>
          </g>
          <g id="Graphic_8">
            <rect x="178.44346" y="312.5092" width="6.7085645" height="6.7085645" fill="#FFFFFF"/>
            <rect x="178.44346" y="312.5092" width="6.7085645" height="6.7085645" stroke="black" stroke-linecap="round" stroke-linejoin="round" stroke-width="2"/>
          </g>
          <g id="Graphic_7">
            <rect x="178.62416" y="98.73864" width="6.7085645" height="6.7085645" fill="#FFFFFF"/>
            <rect x="178.62416" y="98.73864" width="6.7085645" height="6.7085645" stroke="black" stroke-linecap="round" stroke-linejoin="round" stroke-width="2"/>
          </g>
          <g id="Graphic_6">
            <path d="M 261.96648 284.4407 L 257.2228 279.697 L 252.47914 284.4407 L 257.2228 289.18436 Z" fill="#FFFFFF"/>
            <path d="M 261.96648 284.4407 L 257.2228 279.697 L 252.47914 284.4407 L 257.2228 289.18436 Z" stroke="black" stroke-linecap="round" stroke-linejoin="round" stroke-width="2"/>
          </g>
          <g id="Graphic_5">
            <path d="M 101.4483 133.1543 L 106.19198 137.89797 L 110.93565 133.1543 L 106.19198 128.41063 Z" fill="#FFFFFF"/>
            <path d="M 101.4483 133.1543 L 106.19198 137.89797 L 110.93565 133.1543 L 106.19198 128.41063 Z" stroke="black" stroke-linecap="round" stroke-linejoin="round" stroke-width="2"/>
          </g>
        </g>
      </g>
    </g>
  </g>
</svg>
