<?xml version="1.0" encoding="UTF-8" standalone="no"?>
<!DOCTYPE svg PUBLIC "-//W3C//DTD SVG 1.1//EN" "http://www.w3.org/Graphics/SVG/1.1/DTD/svg11.dtd">
<svg xmlns:xl="http://www.w3.org/1999/xlink" xmlns="http://www.w3.org/2000/svg" xmlns:dc="http://purl.org/dc/elements/1.1/" version="1.1" viewBox="36 62.73805 292.5 292.5" width="292.5" height="292.5">
  <defs>
    <clipPath id="artboard_clip_path">
      <path d="M 36 62.73805 L 328.5 62.73805 L 328.5 355.23805 L 36 355.23805 Z"/>
    </clipPath>
  </defs>
  <g id="Well_Frame_(1)" stroke-opacity="1" stroke="none" stroke-dasharray="none" fill="none" fill-opacity="1">
    <title>Well Frame (1)</title>
    <g id="Well_Frame_(1)_Layer_2" clip-path="url(#artboard_clip_path)">
      <title>Layer 2</title>
      <g id="Group_53">
        <g id="Graphic_57">
          <path d="M 181.8663 293.42585 L 56.67762 168.23716 L 38.187653 186.72713 L 163.37634 311.9158 Z M 181.86281 330.4023 L 204.59737 353.13685 L 223.08734 334.64688 L 200.35278 311.91232 Z" fill="#FFFFFF"/>
          <path d="M 181.8663 293.42585 L 56.67762 168.23716 L 38.187653 186.72713 L 163.37634 311.9158 Z M 181.86281 330.4023 L 204.59737 353.13685 L 223.08734 334.64688 L 200.35278 311.91232 Z" stroke="black" stroke-linecap="round" stroke-linejoin="round" stroke-width="2"/>
        </g>
        <g id="Graphic_56">
          <path d="M 182.99598 87.04213 L 160.34787 64.39402 L 141.8579 82.88399 L 164.50601 105.5321 Z M 182.99249 124.01857 L 308.2676 249.2937 L 326.7576 230.80374 L 201.48246 105.5286 Z" fill="#FFFFFF"/>
          <path d="M 182.99598 87.04213 L 160.34787 64.39402 L 141.8579 82.88399 L 164.50601 105.5321 Z M 182.99249 124.01857 L 308.2676 249.2937 L 326.7576 230.80374 L 201.48246 105.5286 Z" stroke="black" stroke-linecap="round" stroke-linejoin="round" stroke-width="2"/>
        </g>
        <g id="Graphic_55">
          <path d="M 60.772765 209.2888 L 38.397885 231.66367 L 56.88436 250.15015 L 79.25924 227.77527 Z M 97.74921 209.2853 L 223.26266 83.77186 L 204.77618 65.28538 L 79.26273 190.79882 Z" fill="#FFFFFF"/>
          <path d="M 60.772765 209.2888 L 38.397885 231.66367 L 56.88436 250.15015 L 79.25924 227.77527 Z M 97.74921 209.2853 L 223.26266 83.77186 L 204.77618 65.28538 L 79.26273 190.79882 Z" stroke="black" stroke-linecap="round" stroke-linejoin="round" stroke-width="2"/>
        </g>
        <g id="Graphic_54">
          <path d="M 267.13303 208.18257 L 141.17435 334.14125 L 159.66083 352.62773 L 285.6195 226.66905 Z M 304.10948 208.17908 L 326.03912 186.24944 L 307.55264 167.76296 L 285.623 189.6926 Z" fill="#FFFFFF"/>
          <path d="M 267.13303 208.18257 L 141.17435 334.14125 L 159.66083 352.62773 L 285.6195 226.66905 Z M 304.10948 208.17908 L 326.03912 186.24944 L 307.55264 167.76296 L 285.623 189.6926 Z" stroke="black" stroke-linecap="round" stroke-linejoin="round" stroke-width="2"/>
        </g>
      </g>
      <g id="Group_48">
        <g id="Graphic_52">
          <path d="M 446.69423 243.93445 L 347.45387 144.6941 L 332.7964 159.35158 L 432.03675 258.59194 Z M 446.69146 273.24665 L 464.71374 291.26893 L 479.3712 276.61145 L 461.34895 258.58917 Z" fill="#FFFFFF"/>
          <path d="M 446.69423 243.93445 L 347.45387 144.6941 L 332.7964 159.35158 L 432.03675 258.59194 Z M 446.69146 273.24665 L 464.71374 291.26893 L 479.3712 276.61145 L 461.34895 258.58917 Z" stroke="black" stroke-linecap="round" stroke-linejoin="round" stroke-width="2"/>
        </g>
        <g id="Graphic_51">
          <path d="M 447.58975 80.32866 L 429.636 62.37491 L 414.9785 77.03239 L 432.93227 94.98614 Z M 447.587 109.64086 L 546.8959 208.94974 L 561.55335 194.29226 L 462.24447 94.98337 Z" fill="#FFFFFF"/>
          <path d="M 447.58975 80.32866 L 429.636 62.37491 L 414.9785 77.03239 L 432.93227 94.98614 Z M 447.587 109.64086 L 546.8959 208.94974 L 561.55335 194.29226 L 462.24447 94.98337 Z" stroke="black" stroke-linecap="round" stroke-linejoin="round" stroke-width="2"/>
        </g>
        <g id="Graphic_50">
          <path d="M 350.7002 177.2368 L 332.96304 194.97395 L 347.61776 209.62867 L 365.3549 191.89151 Z M 380.0124 177.23403 L 479.5102 77.73623 L 464.8555 63.08151 L 365.3577 162.57932 Z" fill="#FFFFFF"/>
          <path d="M 350.7002 177.2368 L 332.96304 194.97395 L 347.61776 209.62867 L 365.3549 191.89151 Z M 380.0124 177.23403 L 479.5102 77.73623 L 464.8555 63.08151 L 365.3577 162.57932 Z" stroke="black" stroke-linecap="round" stroke-linejoin="round" stroke-width="2"/>
        </g>
        <g id="Graphic_49">
          <path d="M 514.2874 176.35987 L 414.43665 276.21063 L 429.09136 290.86534 L 528.9421 191.01458 Z M 543.5996 176.3571 L 560.9838 158.9729 L 546.3291 144.31818 L 528.9449 161.70238 Z" fill="#FFFFFF"/>
          <path d="M 514.2874 176.35987 L 414.43665 276.21063 L 429.09136 290.86534 L 528.9421 191.01458 Z M 543.5996 176.3571 L 560.9838 158.9729 L 546.3291 144.31818 L 528.9449 161.70238 Z" stroke="black" stroke-linecap="round" stroke-linejoin="round" stroke-width="2"/>
        </g>
      </g>
    </g>
  </g>
</svg>
