<?xml version="1.0" encoding="UTF-8" standalone="no"?>
<!DOCTYPE svg PUBLIC "-//W3C//DTD SVG 1.1//EN" "http://www.w3.org/Graphics/SVG/1.1/DTD/svg11.dtd">
<svg xmlns:xl="http://www.w3.org/1999/xlink" xmlns="http://www.w3.org/2000/svg" xmlns:dc="http://purl.org/dc/elements/1.1/" version="1.1" viewBox="63 81 238.5 256.5" width="238.5" height="256.5">
  <defs>
    <clipPath id="artboard_clip_path">
      <path d="M 63 81 L 301.5 81 L 301.5 327.7841 L 287.94886 337.5 L 63 337.5 Z"/>
    </clipPath>
    <clipPath id="outer_stroke_clip_path">
      <path d="M 63 81 L 301.5 81 L 301.5 337.5 L 63 337.5 Z M 265.99353 86.54283 L 265.99353 86.54283 C 266.66223 86.90689 266.7146 87.12918 266.79294 89.47678 C 266.82014 90.41969 266.90085 92.12605 266.9604 93.29054 C 267.03995 94.45573 267.09663 97.42387 267.09002 99.9088 C 267.09085 102.75475 267.18738 104.5819 267.33703 104.88776 C 267.8046 105.84604 268.30014 106.00364 270.86654 105.97301 C 272.16976 105.95839 275.53824 105.91569 278.34415 105.91346 C 290.59145 105.86015 289.99163 105.81916 290.26952 106.4702 C 290.50877 107.0798 290.51475 121.83065 290.273 131.62257 C 290.15132 136.82914 289.81198 142.52916 289.62553 142.70302 C 289.27336 143.03143 286.7449 143.12351 280.25372 143.05717 C 271.97962 142.96864 268.86437 143.2206 268.15443 144.03756 C 267.69517 144.56265 267.59757 146.78386 267.71373 152.64007 C 267.76253 154.68603 267.80174 158.1546 267.80492 160.35929 C 267.8281 162.56468 267.92044 170.82505 268.04607 178.7058 C 268.30337 194.86834 268.3802 200.70314 268.41814 207.0777 C 268.43364 209.50328 268.45607 213.45226 268.493 215.8385 C 268.5092 218.24407 268.57236 222.17443 268.58927 224.55998 C 268.6255 226.96624 268.58132 231.67448 268.52394 235.03947 C 268.46656 238.40446 268.49553 241.5921 268.57605 242.15607 C 268.67728 242.70073 268.75188 245.72962 268.74222 248.87582 C 268.728 256.17048 268.9579 270.24773 269.10005 271.91615 C 269.23267 273.2836 269.59412 273.83736 270.64595 274.13463 C 270.9234 274.22448 275.41145 274.26096 280.6022 274.26185 C 285.79365 274.24272 290.22095 274.29712 290.45906 274.36556 C 290.67645 274.45332 290.90967 274.66188 290.98275 274.86485 C 291.05652 275.0478 291.0252 278.81453 290.93146 283.2204 C 290.8177 287.6256 290.82292 291.49382 290.91183 291.8176 C 291.12617 292.5666 290.65853 305.95814 290.40504 306.33007 C 290.10872 306.7807 288.52037 306.92563 284.05094 306.9299 C 281.74616 306.92957 279.2191 306.9816 278.43563 307.03443 C 277.67218 307.08793 275.78846 307.08228 274.28787 307.00983 C 271.82645 306.90384 271.48476 306.932 271.1326 307.2604 C 270.7597 307.60812 270.7257 308.00777 270.4766 315.7151 C 270.20442 324.083 269.79664 330.02112 269.4796 330.49105 C 269.0569 331.1176 260.70342 331.0063 250.16902 330.21754 C 247.31076 329.99748 243.5324 329.72524 241.77228 329.6237 C 240.01286 329.50213 238.37494 329.34472 238.1168 329.2756 C 237.36245 329.06887 237.23027 328.2626 237.2281 323.7331 C 237.19952 310.204 237.11087 309.29903 235.82164 308.9133 C 235.52347 308.84277 228.71133 308.78526 220.65392 308.8045 C 208.08705 308.82662 200.31617 308.6755 165.5737 307.82303 C 143.32619 307.28662 124.94269 306.8651 124.70109 306.89676 C 124.07706 306.97518 123.48906 308.31748 123.63566 309.2846 C 123.76155 310.27103 123.73492 319.06838 123.58412 324.53448 C 123.42869 329.5595 123.21218 330.5941 122.10679 331.25696 C 121.49229 331.63633 121.05051 331.661 113.37623 331.61345 C 108.52717 331.5844 105.09793 331.64503 104.75275 331.77327 C 103.41274 332.2676 96.73372 332.41516 95.30506 332.0045 C 94.80953 331.84692 94.23392 331.68653 94.03585 331.6195 C 93.32152 331.41417 93.26452 330.7508 93.29826 324.61924 C 93.37795 316.02417 93.30678 314.61877 92.74585 314.038 L 92.30153 313.56154 L 81.22991 313.23503 C 71.01903 312.9386 70.13897 312.8878 69.88993 312.55845 C 69.27664 311.7554 69.13881 306.51973 69.40628 293.12122 C 69.52918 286.73223 69.66257 280.043 69.684744 278.26006 C 69.70692 276.47712 69.80078 274.9372 69.90366 274.86062 C 70.09081 274.66674 74.18131 274.60917 82.357425 274.63414 C 89.51056 274.68352 91.51858 274.57327 92.43613 274.1243 C 93.23148 273.7312 93.43121 273.17702 93.30208 271.70947 C 93.21902 270.64436 92.78184 165.51074 92.82518 157.95656 C 92.85257 153.72873 92.92456 151.66696 93.07523 149.64802 C 93.20913 148.10949 92.84697 147.57576 91.59218 147.35156 C 90.99446 147.25053 79.04227 148.03564 75.24084 148.42398 C 74.21507 148.52845 73.98395 148.25984 73.83341 146.83162 C 73.56887 144.07668 73.5139 132.45062 73.71801 120.29247 C 73.86169 112.16059 73.87288 111.84031 74.24577 111.49259 C 74.59795 111.16418 75.68377 111.0618 82.8737 110.63147 C 91.89079 110.1046 92.67706 109.97172 92.97433 108.9199 C 93.06488 108.62244 93.16605 104.57756 93.1874 99.94869 C 93.20875 95.31982 93.30642 91.37503 93.37347 91.17695 C 93.45983 90.99959 93.72704 90.80851 93.96934 90.75685 C 94.19163 90.70448 99.04489 90.61342 104.71954 90.531 C 110.3942 90.44858 116.61003 90.36502 118.49584 90.31062 C 122.72786 90.21791 123.38843 90.24098 123.76037 90.49446 C 124.11299 90.72724 124.22534 92.6752 124.23951 99.73035 C 124.26722 105.82397 124.31996 108.33102 124.42049 108.89569 C 124.47146 109.15801 124.77985 109.50949 125.11385 109.70153 C 125.76253 110.06489 127.10439 110.0917 132.00327 109.8419 C 133.22781 109.78446 136.05514 109.7429 138.31988 109.74182 C 140.58392 109.76076 143.0109 109.70522 143.73501 109.6303 C 144.45983 109.53536 147.24781 109.47238 149.95433 109.44665 C 152.66015 109.44093 156.4504 109.37287 158.37624 109.31987 C 160.3014 109.28689 164.33114 109.24724 167.29719 109.2506 C 170.28325 109.25467 173.79255 109.19685 175.11718 109.1429 C 177.92728 109.02057 185.80733 108.91496 192.36135 108.90333 C 194.90634 108.91203 198.51573 108.8577 200.38082 108.82262 C 205.69657 108.68759 209.16654 108.60835 221.43805 108.43563 L 232.86814 108.25357 L 233.49032 107.654 C 234.3411 106.82192 234.72682 105.53269 234.6219 103.94573 C 234.58632 103.24303 234.54615 100.37568 234.5239 97.56907 C 234.5217 94.76317 234.506 91.19521 234.49977 89.65179 C 234.4987 87.38704 234.5604 86.76791 234.81178 86.45602 C 235.14744 86.02683 235.8094 86.00986 249.41368 86.12418 C 252.4598 86.13035 255.0262 86.09972 255.10975 86.00243 C 255.19262 85.92515 257.55675 85.94759 260.33914 86.04475 C 264.50272 86.19015 265.5215 86.28585 265.99353 86.54283 Z M 233.31487 144.2439 L 233.31487 144.2439 C 232.93104 144.3307 210.94534 144.90573 184.46878 145.52435 C 157.99223 146.14298 134.92489 146.70028 133.21993 146.74095 C 131.51427 146.80164 128.92786 146.83157 127.48592 146.80126 C 125.18254 146.7609 124.7801 146.80697 124.4086 147.11467 C 123.8921 147.55759 123.92705 146.55673 123.87125 163.65029 C 123.85708 169.22137 123.80141 176.55466 123.74193 179.9797 C 123.70317 183.38543 123.68397 186.23067 123.72121 186.31213 C 123.75915 186.37358 123.66421 191.96188 123.488 198.7298 C 123.31178 205.49772 123.24639 211.38768 123.3311 211.83155 C 123.48189 212.67856 123.4608 216.72624 123.18398 249.9055 L 122.99842 270.14108 L 123.75996 271.29 C 125.09197 273.32064 125.19066 273.36417 129.11892 273.36106 C 130.98262 273.366 138.55402 273.49012 145.92386 273.64727 C 153.3137 273.80512 162.22766 273.93603 165.75489 273.93895 C 181.34576 273.98236 185.05244 274.0116 192.60452 274.11498 C 197.0118 274.16868 200.84 274.16207 201.12303 274.0918 C 201.40606 274.0215 206.31378 274.09268 212.0401 274.25256 C 217.76643 274.41245 224.8374 274.51908 227.7641 274.50103 C 230.69081 274.483 233.77696 274.49055 234.6391 274.48057 C 236.382 274.50135 236.48488 274.42478 236.69045 273.12925 C 236.89742 271.7937 237.0735 262.1598 236.97076 258.78923 C 236.91007 257.08357 236.81456 252.93162 236.75184 249.56244 C 236.68912 246.19325 236.61363 242.042 236.57296 240.33704 C 236.41072 234.07839 236.34197 230.30816 236.30956 225.49703 C 236.28382 222.79052 236.24976 218.60063 236.23426 216.17505 C 236.02074 193.0195 235.63794 146.58972 235.6666 145.76902 C 235.72183 144.18766 235.19255 143.8485 233.31487 144.2439 Z"/>
    </clipPath>
  </defs>
  <g id="Well_Frame_(2)" stroke-opacity="1" stroke="none" stroke-dasharray="none" fill="none" fill-opacity="1">
    <title>Well Frame (2)</title>
    <g id="Well_Frame_(2)_Art" clip-path="url(#artboard_clip_path)">
      <title>Art</title>
      <g id="Graphic_113">
        <path d="M 265.99353 86.54283 L 265.99353 86.54283 C 265.5215 86.28585 264.50272 86.19015 260.33914 86.04475 C 257.55675 85.94759 255.19262 85.92515 255.10975 86.00243 C 255.0262 86.09972 252.4598 86.13035 249.41368 86.12418 C 235.8094 86.00986 235.14744 86.02683 234.81178 86.45602 C 234.5604 86.76791 234.4987 87.38704 234.49977 89.65179 C 234.506 91.19521 234.5217 94.76317 234.5239 97.56907 C 234.54615 100.37568 234.58632 103.24303 234.6219 103.94573 C 234.72682 105.53269 234.3411 106.82192 233.49032 107.654 L 232.86814 108.25357 L 221.43805 108.43563 C 209.16654 108.60835 205.69657 108.68759 200.38082 108.82262 C 198.51573 108.8577 194.90634 108.91203 192.36135 108.90333 C 185.80733 108.91496 177.92728 109.02057 175.11718 109.1429 C 173.79255 109.19685 170.28325 109.25467 167.29719 109.2506 C 164.33114 109.24724 160.3014 109.28689 158.37624 109.31987 C 156.4504 109.37287 152.66015 109.44093 149.95433 109.44665 C 147.24781 109.47238 144.45983 109.53536 143.73501 109.6303 C 143.0109 109.70522 140.58392 109.76076 138.31988 109.74182 C 136.05514 109.7429 133.22781 109.78446 132.00327 109.8419 C 127.10439 110.0917 125.76253 110.06489 125.11385 109.70153 C 124.77985 109.50949 124.47146 109.15801 124.42049 108.89569 C 124.31996 108.33102 124.26722 105.82397 124.23951 99.73035 C 124.22534 92.6752 124.11299 90.72724 123.76037 90.49446 C 123.38843 90.24098 122.72786 90.21791 118.49584 90.31062 C 116.61003 90.36502 110.3942 90.44858 104.71954 90.531 C 99.04489 90.61342 94.19163 90.70448 93.96934 90.75685 C 93.72704 90.80851 93.45983 90.99959 93.37347 91.17695 C 93.30642 91.37503 93.20875 95.31982 93.1874 99.94869 C 93.16605 104.57756 93.06488 108.62244 92.97433 108.9199 C 92.67706 109.97172 91.89079 110.1046 82.8737 110.63147 C 75.68377 111.0618 74.59795 111.16418 74.24577 111.49259 C 73.87288 111.84031 73.86169 112.16059 73.71801 120.29247 C 73.5139 132.45062 73.56887 144.07668 73.83341 146.83162 C 73.98395 148.25984 74.21507 148.52845 75.24084 148.42398 C 79.04227 148.03564 90.99446 147.25053 91.59218 147.35156 C 92.84697 147.57576 93.20913 148.10949 93.07523 149.64802 C 92.92456 151.66696 92.85257 153.72873 92.82518 157.95656 C 92.78184 165.51074 93.21902 270.64436 93.30208 271.70947 C 93.43121 273.17702 93.23148 273.7312 92.43613 274.1243 C 91.51858 274.57327 89.51056 274.68352 82.357425 274.63414 C 74.18131 274.60917 70.09081 274.66674 69.90366 274.86062 C 69.80078 274.9372 69.70692 276.47712 69.684744 278.26006 C 69.66257 280.043 69.52918 286.73223 69.40628 293.12122 C 69.13881 306.51973 69.27664 311.7554 69.88993 312.55845 C 70.13897 312.8878 71.01903 312.9386 81.22991 313.23503 L 92.30153 313.56154 L 92.74585 314.038 C 93.30678 314.61877 93.37795 316.02417 93.29826 324.61924 C 93.26452 330.7508 93.32152 331.41417 94.03585 331.6195 C 94.23392 331.68653 94.80953 331.84692 95.30506 332.0045 C 96.73372 332.41516 103.41274 332.2676 104.75275 331.77327 C 105.09793 331.64503 108.52717 331.5844 113.37623 331.61345 C 121.05051 331.661 121.49229 331.63633 122.10679 331.25696 C 123.21218 330.5941 123.42869 329.5595 123.58412 324.53448 C 123.73492 319.06838 123.76155 310.27103 123.63566 309.2846 C 123.48906 308.31748 124.07706 306.97518 124.70109 306.89676 C 124.94269 306.8651 143.32619 307.28662 165.5737 307.82303 C 200.31617 308.6755 208.08705 308.82662 220.65392 308.8045 C 228.71133 308.78526 235.52347 308.84277 235.82164 308.9133 C 237.11087 309.29903 237.19952 310.204 237.2281 323.7331 C 237.23027 328.2626 237.36245 329.06887 238.1168 329.2756 C 238.37494 329.34472 240.01286 329.50213 241.77228 329.6237 C 243.5324 329.72524 247.31076 329.99748 250.16902 330.21754 C 260.70342 331.0063 269.0569 331.1176 269.4796 330.49105 C 269.79664 330.02112 270.20442 324.083 270.4766 315.7151 C 270.7257 308.00777 270.7597 307.60812 271.1326 307.2604 C 271.48476 306.932 271.82645 306.90384 274.28787 307.00983 C 275.78846 307.08228 277.67218 307.08793 278.43563 307.03443 C 279.2191 306.9816 281.74616 306.92957 284.05094 306.9299 C 288.52037 306.92563 290.10872 306.7807 290.40504 306.33007 C 290.65853 305.95814 291.12617 292.5666 290.91183 291.8176 C 290.82292 291.49382 290.8177 287.6256 290.93146 283.2204 C 291.0252 278.81453 291.05652 275.0478 290.98275 274.86485 C 290.90967 274.66188 290.67645 274.45332 290.45906 274.36556 C 290.22095 274.29712 285.79365 274.24272 280.6022 274.26185 C 275.41145 274.26096 270.9234 274.22448 270.64595 274.13463 C 269.59412 273.83736 269.23267 273.2836 269.10005 271.91615 C 268.9579 270.24773 268.728 256.17048 268.74222 248.87582 C 268.75188 245.72962 268.67728 242.70073 268.57605 242.15607 C 268.49553 241.5921 268.46656 238.40446 268.52394 235.03947 C 268.58132 231.67448 268.6255 226.96624 268.58927 224.55998 C 268.57236 222.17443 268.5092 218.24407 268.493 215.8385 C 268.45607 213.45226 268.43364 209.50328 268.41814 207.0777 C 268.3802 200.70314 268.30337 194.86834 268.04607 178.7058 C 267.92044 170.82505 267.8281 162.56468 267.80492 160.35929 C 267.80174 158.1546 267.76253 154.68603 267.71373 152.64007 C 267.59757 146.78386 267.69517 144.56265 268.15443 144.03756 C 268.86437 143.2206 271.97962 142.96864 280.25372 143.05717 C 286.7449 143.12351 289.27336 143.03143 289.62553 142.70302 C 289.81198 142.52916 290.15132 136.82914 290.273 131.62257 C 290.51475 121.83065 290.50877 107.0798 290.26952 106.4702 C 289.99163 105.81916 290.59145 105.86015 278.34415 105.91346 C 275.53824 105.91569 272.16976 105.95839 270.86654 105.97301 C 268.30014 106.00364 267.8046 105.84604 267.33703 104.88776 C 267.18738 104.5819 267.09085 102.75475 267.09002 99.9088 C 267.09663 97.42387 267.03995 94.45573 266.9604 93.29054 C 266.90085 92.12605 266.82014 90.41969 266.79294 89.47678 C 266.7146 87.12918 266.66223 86.90689 265.99353 86.54283 Z M 233.31487 144.2439 L 233.31487 144.2439 C 235.19255 143.8485 235.72183 144.18766 235.6666 145.76902 C 235.63794 146.58972 236.02074 193.0195 236.23426 216.17505 C 236.24976 218.60063 236.28382 222.79052 236.30956 225.49703 C 236.34197 230.30816 236.41072 234.07839 236.57296 240.33704 C 236.61363 242.042 236.68912 246.19325 236.75184 249.56244 C 236.81456 252.93162 236.91007 257.08357 236.97076 258.78923 C 237.0735 262.1598 236.89742 271.7937 236.69045 273.12925 C 236.48488 274.42478 236.382 274.50135 234.6391 274.48057 C 233.77696 274.49055 230.69081 274.483 227.7641 274.50103 C 224.8374 274.51908 217.76643 274.41245 212.0401 274.25256 C 206.31378 274.09268 201.40606 274.0215 201.12303 274.0918 C 200.84 274.16207 197.0118 274.16868 192.60452 274.11498 C 185.05244 274.0116 181.34576 273.98236 165.75489 273.93895 C 162.22766 273.93603 153.3137 273.80512 145.92386 273.64727 C 138.55402 273.49012 130.98262 273.366 129.11892 273.36106 C 125.19066 273.36417 125.09197 273.32064 123.75996 271.29 L 122.99842 270.14108 L 123.18398 249.9055 C 123.4608 216.72624 123.48189 212.67856 123.3311 211.83155 C 123.24639 211.38768 123.31178 205.49772 123.488 198.7298 C 123.66421 191.96188 123.75915 186.37358 123.72121 186.31213 C 123.68397 186.23067 123.70317 183.38543 123.74193 179.9797 C 123.80141 176.55466 123.85708 169.22137 123.87125 163.65029 C 123.92705 146.55673 123.8921 147.55759 124.4086 147.11467 C 124.7801 146.80697 125.18254 146.7609 127.48592 146.80126 C 128.92786 146.83157 131.51427 146.80164 133.21993 146.74095 C 134.92489 146.70028 157.99223 146.14298 184.46878 145.52435 C 210.94534 144.90573 232.93104 144.3307 233.31487 144.2439 Z" fill="#FFFFFF"/>
        <path d="M 265.99353 86.54283 L 265.99353 86.54283 C 265.5215 86.28585 264.50272 86.19015 260.33914 86.04475 C 257.55675 85.94759 255.19262 85.92515 255.10975 86.00243 C 255.0262 86.09972 252.4598 86.13035 249.41368 86.12418 C 235.8094 86.00986 235.14744 86.02683 234.81178 86.45602 C 234.5604 86.76791 234.4987 87.38704 234.49977 89.65179 C 234.506 91.19521 234.5217 94.76317 234.5239 97.56907 C 234.54615 100.37568 234.58632 103.24303 234.6219 103.94573 C 234.72682 105.53269 234.3411 106.82192 233.49032 107.654 L 232.86814 108.25357 L 221.43805 108.43563 C 209.16654 108.60835 205.69657 108.68759 200.38082 108.82262 C 198.51573 108.8577 194.90634 108.91203 192.36135 108.90333 C 185.80733 108.91496 177.92728 109.02057 175.11718 109.1429 C 173.79255 109.19685 170.28325 109.25467 167.29719 109.2506 C 164.33114 109.24724 160.3014 109.28689 158.37624 109.31987 C 156.4504 109.37287 152.66015 109.44093 149.95433 109.44665 C 147.24781 109.47238 144.45983 109.53536 143.73501 109.6303 C 143.0109 109.70522 140.58392 109.76076 138.31988 109.74182 C 136.05514 109.7429 133.22781 109.78446 132.00327 109.8419 C 127.10439 110.0917 125.76253 110.06489 125.11385 109.70153 C 124.77985 109.50949 124.47146 109.15801 124.42049 108.89569 C 124.31996 108.33102 124.26722 105.82397 124.23951 99.73035 C 124.22534 92.6752 124.11299 90.72724 123.76037 90.49446 C 123.38843 90.24098 122.72786 90.21791 118.49584 90.31062 C 116.61003 90.36502 110.3942 90.44858 104.71954 90.531 C 99.04489 90.61342 94.19163 90.70448 93.96934 90.75685 C 93.72704 90.80851 93.45983 90.99959 93.37347 91.17695 C 93.30642 91.37503 93.20875 95.31982 93.1874 99.94869 C 93.16605 104.57756 93.06488 108.62244 92.97433 108.9199 C 92.67706 109.97172 91.89079 110.1046 82.8737 110.63147 C 75.68377 111.0618 74.59795 111.16418 74.24577 111.49259 C 73.87288 111.84031 73.86169 112.16059 73.71801 120.29247 C 73.5139 132.45062 73.56887 144.07668 73.83341 146.83162 C 73.98395 148.25984 74.21507 148.52845 75.24084 148.42398 C 79.04227 148.03564 90.99446 147.25053 91.59218 147.35156 C 92.84697 147.57576 93.20913 148.10949 93.07523 149.64802 C 92.92456 151.66696 92.85257 153.72873 92.82518 157.95656 C 92.78184 165.51074 93.21902 270.64436 93.30208 271.70947 C 93.43121 273.17702 93.23148 273.7312 92.43613 274.1243 C 91.51858 274.57327 89.51056 274.68352 82.357425 274.63414 C 74.18131 274.60917 70.09081 274.66674 69.90366 274.86062 C 69.80078 274.9372 69.70692 276.47712 69.684744 278.26006 C 69.66257 280.043 69.52918 286.73223 69.40628 293.12122 C 69.13881 306.51973 69.27664 311.7554 69.88993 312.55845 C 70.13897 312.8878 71.01903 312.9386 81.22991 313.23503 L 92.30153 313.56154 L 92.74585 314.038 C 93.30678 314.61877 93.37795 316.02417 93.29826 324.61924 C 93.26452 330.7508 93.32152 331.41417 94.03585 331.6195 C 94.23392 331.68653 94.80953 331.84692 95.30506 332.0045 C 96.73372 332.41516 103.41274 332.2676 104.75275 331.77327 C 105.09793 331.64503 108.52717 331.5844 113.37623 331.61345 C 121.05051 331.661 121.49229 331.63633 122.10679 331.25696 C 123.21218 330.5941 123.42869 329.5595 123.58412 324.53448 C 123.73492 319.06838 123.76155 310.27103 123.63566 309.2846 C 123.48906 308.31748 124.07706 306.97518 124.70109 306.89676 C 124.94269 306.8651 143.32619 307.28662 165.5737 307.82303 C 200.31617 308.6755 208.08705 308.82662 220.65392 308.8045 C 228.71133 308.78526 235.52347 308.84277 235.82164 308.9133 C 237.11087 309.29903 237.19952 310.204 237.2281 323.7331 C 237.23027 328.2626 237.36245 329.06887 238.1168 329.2756 C 238.37494 329.34472 240.01286 329.50213 241.77228 329.6237 C 243.5324 329.72524 247.31076 329.99748 250.16902 330.21754 C 260.70342 331.0063 269.0569 331.1176 269.4796 330.49105 C 269.79664 330.02112 270.20442 324.083 270.4766 315.7151 C 270.7257 308.00777 270.7597 307.60812 271.1326 307.2604 C 271.48476 306.932 271.82645 306.90384 274.28787 307.00983 C 275.78846 307.08228 277.67218 307.08793 278.43563 307.03443 C 279.2191 306.9816 281.74616 306.92957 284.05094 306.9299 C 288.52037 306.92563 290.10872 306.7807 290.40504 306.33007 C 290.65853 305.95814 291.12617 292.5666 290.91183 291.8176 C 290.82292 291.49382 290.8177 287.6256 290.93146 283.2204 C 291.0252 278.81453 291.05652 275.0478 290.98275 274.86485 C 290.90967 274.66188 290.67645 274.45332 290.45906 274.36556 C 290.22095 274.29712 285.79365 274.24272 280.6022 274.26185 C 275.41145 274.26096 270.9234 274.22448 270.64595 274.13463 C 269.59412 273.83736 269.23267 273.2836 269.10005 271.91615 C 268.9579 270.24773 268.728 256.17048 268.74222 248.87582 C 268.75188 245.72962 268.67728 242.70073 268.57605 242.15607 C 268.49553 241.5921 268.46656 238.40446 268.52394 235.03947 C 268.58132 231.67448 268.6255 226.96624 268.58927 224.55998 C 268.57236 222.17443 268.5092 218.24407 268.493 215.8385 C 268.45607 213.45226 268.43364 209.50328 268.41814 207.0777 C 268.3802 200.70314 268.30337 194.86834 268.04607 178.7058 C 267.92044 170.82505 267.8281 162.56468 267.80492 160.35929 C 267.80174 158.1546 267.76253 154.68603 267.71373 152.64007 C 267.59757 146.78386 267.69517 144.56265 268.15443 144.03756 C 268.86437 143.2206 271.97962 142.96864 280.25372 143.05717 C 286.7449 143.12351 289.27336 143.03143 289.62553 142.70302 C 289.81198 142.52916 290.15132 136.82914 290.273 131.62257 C 290.51475 121.83065 290.50877 107.0798 290.26952 106.4702 C 289.99163 105.81916 290.59145 105.86015 278.34415 105.91346 C 275.53824 105.91569 272.16976 105.95839 270.86654 105.97301 C 268.30014 106.00364 267.8046 105.84604 267.33703 104.88776 C 267.18738 104.5819 267.09085 102.75475 267.09002 99.9088 C 267.09663 97.42387 267.03995 94.45573 266.9604 93.29054 C 266.90085 92.12605 266.82014 90.41969 266.79294 89.47678 C 266.7146 87.12918 266.66223 86.90689 265.99353 86.54283 Z M 233.31487 144.2439 L 233.31487 144.2439 C 235.19255 143.8485 235.72183 144.18766 235.6666 145.76902 C 235.63794 146.58972 236.02074 193.0195 236.23426 216.17505 C 236.24976 218.60063 236.28382 222.79052 236.30956 225.49703 C 236.34197 230.30816 236.41072 234.07839 236.57296 240.33704 C 236.61363 242.042 236.68912 246.19325 236.75184 249.56244 C 236.81456 252.93162 236.91007 257.08357 236.97076 258.78923 C 237.0735 262.1598 236.89742 271.7937 236.69045 273.12925 C 236.48488 274.42478 236.382 274.50135 234.6391 274.48057 C 233.77696 274.49055 230.69081 274.483 227.7641 274.50103 C 224.8374 274.51908 217.76643 274.41245 212.0401 274.25256 C 206.31378 274.09268 201.40606 274.0215 201.12303 274.0918 C 200.84 274.16207 197.0118 274.16868 192.60452 274.11498 C 185.05244 274.0116 181.34576 273.98236 165.75489 273.93895 C 162.22766 273.93603 153.3137 273.80512 145.92386 273.64727 C 138.55402 273.49012 130.98262 273.366 129.11892 273.36106 C 125.19066 273.36417 125.09197 273.32064 123.75996 271.29 L 122.99842 270.14108 L 123.18398 249.9055 C 123.4608 216.72624 123.48189 212.67856 123.3311 211.83155 C 123.24639 211.38768 123.31178 205.49772 123.488 198.7298 C 123.66421 191.96188 123.75915 186.37358 123.72121 186.31213 C 123.68397 186.23067 123.70317 183.38543 123.74193 179.9797 C 123.80141 176.55466 123.85708 169.22137 123.87125 163.65029 C 123.92705 146.55673 123.8921 147.55759 124.4086 147.11467 C 124.7801 146.80697 125.18254 146.7609 127.48592 146.80126 C 128.92786 146.83157 131.51427 146.80164 133.21993 146.74095 C 134.92489 146.70028 157.99223 146.14298 184.46878 145.52435 C 210.94534 144.90573 232.93104 144.3307 233.31487 144.2439 Z" stroke="black" stroke-linecap="round" stroke-linejoin="round" stroke-width="4" clip-path="url(#outer_stroke_clip_path)"/>
      </g>
    </g>
  </g>
</svg>
