<?xml version="1.0" encoding="UTF-8" standalone="no"?>
<!DOCTYPE svg PUBLIC "-//W3C//DTD SVG 1.1//EN" "http://www.w3.org/Graphics/SVG/1.1/DTD/svg11.dtd">
<svg xmlns="http://www.w3.org/2000/svg" xmlns:xl="http://www.w3.org/1999/xlink" version="1.1" xmlns:dc="http://purl.org/dc/elements/1.1/" viewBox="75.51624 60.75 67.5 360" width="67.5" height="360">
  <defs>
    <clipPath id="artboard_clip_path">
      <path d="M 75.51624 60.75 L 143.01624 60.75 L 143.01624 420.75 L 75.51624 420.75 Z"/>
    </clipPath>
  </defs>
  <g id="Wheat,_Stalk_of_(2)" stroke-opacity="1" fill="none" fill-opacity="1" stroke-dasharray="none" stroke="none">
    <title>Wheat, Stalk of (2)</title>
    <g id="Wheat,_Stalk_of_(2)_Layer_2" clip-path="url(#artboard_clip_path)">
      <title>Layer 2</title>
      <g id="Group_89">
        <g id="Graphic_76">
          <path d="M 101.95658 123.25503 C 102.05628 124.74286 102.02145 125.95486 101.81627 125.88422 C 101.6111 125.81357 101.13913 124.96256 100.7591 124.0667 C 100.33422 123.0789 97.96082 120.19618 95.46968 117.65541 C 92.9337 115.0227 89.93801 112.61421 88.84375 112.23742 C 87.74949 111.86064 86.4007 111.77871 85.75711 112.09261 C 85.11353 112.4065 84.34769 113.5198 83.97091 114.61407 C 83.61767 115.63994 83.4919 119.11563 83.6442 122.22807 C 83.98362 127.24094 84.29526 128.11325 86.31218 130.03172 C 87.5813 131.23372 88.39297 132.4312 88.07005 132.70251 C 87.67874 132.95027 87.03741 133.03544 86.55868 132.8706 C 86.07994 132.70576 84.91051 132.99159 83.99111 133.44001 C 82.44942 134.36267 82.35522 134.63623 82.15429 138.77454 C 82.08463 141.19856 82.25822 144.47133 82.5631 146.0298 C 82.86797 147.58828 83.82419 150.36553 84.58425 152.15724 C 85.83758 154.9603 85.8992 155.67001 84.9069 156.55233 C 84.21396 157.23174 83.11167 159.98869 82.28068 163.06855 C 80.95517 167.58464 80.91809 169.02537 81.75656 172.14458 C 82.30919 174.09436 83.60962 176.76064 84.71841 177.98392 C 85.73525 179.25205 86.49983 180.58632 86.35853 180.99666 C 86.21724 181.40701 85.89658 181.4496 85.55688 181.10313 C 85.28557 180.7802 83.89193 180.60634 82.51734 180.82153 C 80.18075 181.16448 79.926225 181.45934 79.53591 183.92594 C 79.24655 185.4328 79.14883 188.38266 79.33371 190.51182 C 79.51858 192.64097 80.06445 195.27693 80.51061 196.42505 C 80.98033 197.5048 82.47366 199.16649 83.79214 200.00297 C 85.15545 200.9314 85.99067 202.0605 85.80228 202.60762 C 85.59034 203.22314 84.76513 203.398 83.73926 203.04477 C 82.50822 202.62088 81.63591 202.93252 80.64135 204.04357 C 79.94616 204.9517 79.15 206.81955 78.88419 208.25803 C 78.64194 209.6281 78.77294 212.58022 79.16299 214.78002 C 79.55078 217.20855 80.5799 219.5519 81.68869 220.7752 C 82.77618 221.83814 83.6798 222.99078 83.88271 223.29015 C 83.99369 223.63436 83.3714 224.1086 82.36231 224.37313 C 81.42162 224.66123 80.08284 225.88325 79.43023 227.11204 C 78.405355 228.97764 78.41537 230.2816 79.15964 233.67436 C 79.73132 236.0132 80.749155 239.50017 81.48567 241.36027 C 82.22218 243.22038 83.66616 245.24758 84.75817 245.85308 C 85.75823 246.50343 86.43538 247.4251 86.27054 247.90383 C 86.08215 248.45096 85.20758 248.99133 84.31398 249.14264 C 83.42039 249.29395 81.94934 250.01142 81.02768 250.68857 C 79.46018 251.90834 79.434375 252.20545 80.34674 257.1096 C 80.89035 259.97428 82.25015 263.579 83.35442 265.25973 C 84.41386 266.84852 85.24457 268.43506 85.21876 268.73217 C 85.10102 269.07413 84.62002 269.138 84.14128 268.97316 C 83.59415 268.78477 82.42473 269.0706 81.48178 269.58742 C 80.44689 270.14908 79.796535 271.14914 79.67202 272.17727 C 79.63945 273.16056 80.52051 276.60043 81.72223 279.9977 C 82.9475 283.3266 84.49117 286.84163 85.26026 287.71845 C 85.96096 288.57172 86.50132 289.44628 86.43067 289.65145 C 86.36003 289.85663 85.2119 290.3028 83.8373 290.518 C 82.50755 290.8251 81.24393 291.3845 81.12619 291.72647 C 80.984895 292.13682 81.332355 294.01596 81.8166 295.9422 C 82.36923 297.892 82.75928 300.0918 82.8209 300.8015 C 82.81414 301.48767 83.73453 303.2581 84.86461 304.6417 C 85.99469 306.02533 88.60133 308.45286 90.68889 310.16617 C 92.8 311.81108 94.86852 313.13533 95.39436 313.1634 C 95.9202 313.19145 96.89671 313.9102 97.64225 314.8554 C 98.38779 315.8006 99.6995 317.32327 100.60536 318.2472 C 101.51123 319.1711 102.56616 321.21734 102.98426 322.8913 C 103.42592 324.49687 103.61305 326.3973 103.37756 327.08122 C 103.14207 327.76513 103.00402 330.1656 103.16534 332.36315 C 103.30312 334.6291 103.63028 338.56673 103.94742 341.20043 C 104.19617 343.8106 104.59948 349.30445 104.74276 353.3318 C 104.88604 357.3591 105.24901 362.3036 105.48098 364.29597 C 105.71296 366.28835 105.88429 369.78984 105.86174 372.07707 C 105.83918 374.3643 106.15506 379.44557 106.619 383.4303 C 107.0381 387.3231 107.44817 392.1308 107.47497 394.05254 C 107.50177 395.97427 107.44213 399.70223 107.41506 402.4469 C 107.3196 405.16804 107.06155 408.1392 106.80025 409.1202 C 106.53896 410.10124 106.41219 411.3581 106.5893 411.9546 C 106.69803 412.5275 106.55448 413.1666 106.27865 413.3011 C 105.97928 413.50403 106.33577 414.46828 107.12615 415.5054 C 107.98492 416.5661 109.5747 417.72553 110.80575 418.1494 C 112.31036 418.6675 113.59301 418.49714 114.97437 417.5958 C 116.35574 416.69443 116.93544 415.89954 116.71574 414.9824 C 116.58572 414.2491 116.54891 411.02345 116.55694 407.8897 C 116.56498 404.756 116.54395 399.92924 116.43424 397.13747 C 116.39292 394.36924 115.92799 388.16565 115.49436 383.42635 C 115.08429 378.61865 114.65869 370.7456 114.50089 365.87177 C 114.41148 361.0215 114.4501 352.4668 114.45939 346.8855 C 114.56063 341.25936 115.02638 333.46373 115.54572 329.51156 C 116.06506 325.5594 116.85572 321.93013 117.24928 321.45364 C 117.64285 320.97716 119.5052 320.01192 121.34176 319.3438 C 123.2467 318.69922 126.12266 317.012 127.69242 315.5635 C 130.04479 313.6195 131.06742 311.9826 132.75392 307.97333 C 133.87977 305.148 134.89914 301.521 135.00687 299.8751 C 135.16396 297.86367 134.67746 296.16616 133.43414 294.66705 C 131.74015 292.47726 131.71886 292.31693 133.44019 287.09564 C 134.38441 284.13126 134.91602 281.2543 134.69181 280.7946 C 134.42276 280.24297 134.36339 279.30452 134.55178 278.7574 C 134.69533 278.11832 134.34787 276.23918 133.70104 274.56296 C 132.74031 272.24316 132.68546 270.84727 133.43903 268.65874 C 133.9571 267.15413 134.48872 264.2772 134.53031 262.379 C 134.59546 260.41244 134.81642 258.88202 134.9532 258.92912 C 135.08999 258.97622 134.77835 258.1039 134.26379 256.93224 C 133.72568 255.82895 132.48462 254.10112 131.57875 253.1772 C 130.28834 251.81488 129.9767 250.94258 130.46897 249.73508 C 130.86705 248.80115 132.10612 246.0913 133.22745 243.7234 C 134.58202 240.90032 135.41075 238.04918 135.66428 235.53548 C 135.91557 233.2505 135.57036 231.14264 134.9616 230.24453 C 134.01315 228.99995 134.09282 227.87988 135.36898 223.7293 C 136.22126 220.80977 136.71254 217.38343 136.54896 215.4146 C 136.33828 213.58256 135.60628 211.26502 134.86074 210.3198 C 134.13875 209.3062 133.69484 207.92936 133.95388 207.17705 C 134.21292 206.42475 134.95521 205.37984 135.6246 204.76883 C 136.52496 203.93135 137.0453 202.19801 137.60723 198.5665 C 138.02335 195.80279 138.17042 192.48743 137.8633 191.15768 C 137.53713 189.43887 136.63351 188.28623 135.04147 187.35555 C 133.81268 186.70294 132.81262 186.0526 132.83617 185.9842 C 132.83617 185.9842 133.83299 184.64443 134.90045 183.0995 C 136.47697 180.96483 137.08699 179.41538 137.36182 177.06201 C 137.51665 175.27933 137.3408 172.23528 136.85656 170.30904 C 136.4407 168.40635 135.43288 166.22333 134.68509 165.50684 C 133.57404 164.51228 133.53371 163.9629 134.44085 162.43925 C 135.0228 161.41563 136.0522 159.09258 136.66447 157.3144 C 137.36869 155.49139 137.81062 152.43056 137.71543 150.48528 C 137.68863 148.56356 136.9163 145.69662 136.13043 144.20202 C 134.64838 141.39671 134.62708 141.23638 136.59392 136.63512 C 137.7646 133.90172 138.68753 130.77701 138.65622 129.31273 C 138.6933 127.872 138.03646 124.89183 137.21252 122.61913 L 135.62851 118.55471 L 137.83084 113.26954 C 139.65864 108.8499 139.948 107.34304 139.66117 103.95478 C 139.49985 101.75723 138.99882 99.21321 138.48201 98.27026 C 137.87551 97.14343 137.88904 95.77109 138.59552 93.71935 C 139.13714 92.14634 139.54876 89.84007 139.5152 88.60452 C 139.52647 87.4609 138.81802 85.07496 138.07925 83.44358 C 137.29563 81.72026 135.51421 79.11787 134.04217 77.61651 C 132.57013 76.11515 130.29869 74.49153 128.93086 74.02055 C 126.87912 73.314075 126.1223 73.51248 123.81703 75.31971 C 122.27308 76.47108 120.68654 77.3018 120.2762 77.1605 C 119.86585 77.01921 119.44774 75.34524 119.35255 73.39997 C 119.1296 70.4927 118.63634 69.48136 116.0768 66.91704 C 114.35475 65.25309 112.08331 63.62947 110.92065 63.229136 C 109.82639 62.85235 108.22533 62.83656 107.46626 63.26369 C 106.66234 63.59888 105.44131 64.478945 104.67998 65.1348 C 103.98705 65.8142 102.96442 67.45108 102.38021 68.70342 C 101.86439 69.97931 101.23307 71.36843 101.06823 71.84717 C 100.81145 72.37075 99.80687 72.17785 97.57576 71.10361 C 94.5475 69.6784 94.31878 69.676145 91.28249 71.38467 C 88.7059 72.868974 88.17329 73.52708 87.87943 75.4914 C 87.75266 76.74825 87.81527 79.6768 88.08983 81.98984 C 88.34084 84.37127 88.95961 86.57333 89.43609 86.96689 C 90.13905 87.59144 90.0684 87.79661 88.91801 88.4715 C 88.15894 88.89863 86.88856 90.14421 86.05433 91.23396 C 84.68749 92.98182 84.63363 93.80477 85.37889 99.41638 C 85.89444 102.8069 86.73066 106.15483 87.31812 106.89261 C 87.90558 107.63039 90.30478 110.216 92.5672 112.75451 C 94.92156 115.24818 97.37011 117.46828 98.05403 117.70377 C 98.73794 117.93927 99.74478 117.90345 100.38836 117.58955 C 101.03194 117.27565 101.84488 116.02557 102.24521 114.86292 C 102.6691 113.63187 103.43494 112.51857 103.84754 112.43114 C 104.35208 112.29887 104.13112 113.82929 103.23626 116.42816 C 102.45914 118.68508 101.92527 121.79075 101.95658 123.25503 Z M 101.52431 95.1837 L 101.52431 95.1837 C 101.79788 95.2779 102.14985 96.69959 102.36278 98.30291 C 102.48378 99.95107 102.64736 101.91989 102.77737 102.65316 C 102.83448 103.82032 102.74254 103.86517 101.83893 102.71253 C 101.22792 102.04314 100.82434 101.21568 100.94208 100.87372 C 101.03628 100.60015 100.59237 99.2233 99.96457 97.93614 C 99.06773 96.09733 99.05095 95.47955 99.94454 95.32824 C 100.54103 95.15113 101.25075 95.0895 101.52431 95.1837 Z M 120.91715 102.62619 L 120.91715 102.62619 C 122.01141 103.00297 121.93851 103.43687 120.65233 106.2835 C 119.87973 108.08297 119.16875 110.59216 119.17876 111.89611 C 119.18877 113.20006 118.99587 114.20463 118.65391 114.08689 C 118.38035 113.99269 117.7245 113.23136 117.16058 112.4252 C 116.37246 111.15932 116.37471 110.9306 117.4522 110.6896 C 118.46128 110.42506 118.57903 110.0831 118.1306 109.1637 C 117.86155 108.61206 118.03993 106.76098 118.6051 105.11959 C 119.42932 102.72589 119.82289 102.2494 120.91715 102.62619 Z M 120.63798 121.65506 L 120.63798 121.65506 C 120.97994 121.7728 121.06511 122.41413 120.78478 123.0061 C 120.54929 123.69002 119.87539 124.75847 119.34279 125.41658 C 118.46371 126.41439 118.39532 126.39084 118.50531 124.51621 C 118.67692 123.3513 118.98531 122.2335 119.30823 121.96218 C 119.72309 121.64603 120.22763 121.51376 120.63798 121.65506 Z M 117.05979 129.60298 L 117.05979 129.60298 C 117.47014 129.74428 117.41402 130.79595 117.01369 131.9586 C 116.61335 133.12126 116.08075 133.77937 115.7646 133.3645 C 115.49329 133.04159 115.48102 131.96636 115.8107 131.00888 C 116.11684 130.1198 116.71784 129.48524 117.05979 129.60298 Z M 116.00532 139.1084 L 116.00532 139.1084 C 116.54342 140.21168 116.57699 141.44723 116.25407 141.71854 C 115.86276 141.9663 115.42886 141.8934 115.27304 141.45725 C 115.09367 141.08949 114.96817 139.89877 115.09268 138.87065 L 115.20267 136.99602 L 116.00532 139.1084 Z M 99.65246 143.49915 L 99.65246 143.49915 C 99.58407 143.4756 98.88563 142.3936 97.93718 141.14903 L 96.31383 138.75407 L 98.51814 137.90657 C 99.75821 137.41556 101.04989 136.33032 101.33248 135.50963 C 101.94024 134.1889 101.94024 134.1889 101.74508 135.4222 C 101.62282 136.2216 101.12153 138.34399 100.57764 140.14572 C 100.0786 142.03938 99.65246 143.49915 99.65246 143.49915 Z M 118.26972 146.08459 L 118.26972 146.08459 C 118.74846 146.24943 118.48716 147.23046 117.67197 148.70926 C 116.97227 150.07483 115.9306 151.32266 115.37896 151.59172 C 114.73538 151.90561 114.73763 151.67689 115.36218 150.97394 C 115.80284 150.36067 116.5261 148.9267 116.90288 147.83245 C 117.27967 146.73818 117.92776 145.96684 118.26972 146.08459 Z M 120.76654 166.6048 L 120.76654 166.6048 C 120.25748 167.19452 119.42325 168.28427 118.98033 169.12626 C 118.49257 169.8763 117.77608 170.6241 117.36348 170.71153 C 116.95087 170.79896 116.7715 170.4312 116.98345 169.81568 C 117.17184 169.26854 116.5721 167.45554 115.69655 165.77706 C 114.88939 164.12214 114.3558 162.5614 114.67871 162.2901 C 114.97808 162.08718 115.73039 162.34622 116.27301 162.99206 L 116.27301 162.99206 C 116.83918 163.5695 118.29443 164.45309 119.45709 164.85342 C 121.30365 165.48925 121.50657 165.78862 120.76654 166.6048 Z M 101.40853 157.9503 L 101.40853 157.9503 C 101.70564 157.9761 101.43984 159.41458 100.85111 161.12437 C 100.26239 162.83415 99.65462 164.15488 99.44945 164.08424 C 99.24427 164.01359 98.56487 163.32065 97.84063 162.53577 C 97.16122 161.84284 96.50537 161.08151 96.39214 160.96602 C 96.2789 160.85053 97.22411 160.105 98.51353 159.24848 C 99.77941 158.46035 101.06657 157.83256 101.40853 157.9503 Z M 113.18204 179.52274 L 113.18204 179.52274 C 113.38721 179.59339 114.10694 180.83571 114.82442 182.30676 C 115.72127 184.14557 117.03523 185.4395 119.10601 186.53503 L 122.08717 188.09702 L 119.78189 189.90425 C 118.51376 190.9211 117.27144 191.64083 116.99787 191.54663 C 116.65592 191.42889 116.56849 191.01628 116.73333 190.53754 C 116.87463 190.1272 116.5675 188.79744 116.05294 187.62577 C 115.53838 186.4541 114.61121 185.36984 113.99569 185.1579 C 113.38017 184.94596 112.67722 184.32142 112.36332 183.67783 C 112.04943 183.03425 112.0607 181.89063 112.36684 181.00155 C 112.67298 180.11246 113.04525 179.47564 113.18204 179.52274 Z M 100.98581 177.61824 L 100.98581 177.61824 C 101.19099 177.6889 102.16525 178.63635 103.11596 179.65221 C 104.11151 180.76 104.94899 181.66037 104.99383 181.75231 C 105.06223 181.77586 103.85798 183.2737 102.33081 185.04286 C 99.531 188.2863 99.46261 188.26276 98.86288 186.44975 C 98.52994 185.41712 98.3596 184.13446 98.4796 183.56378 C 98.5996 182.9931 99.07284 181.39655 99.63576 179.98388 C 100.10674 178.61605 100.78064 177.5476 100.98581 177.61824 Z M 95.07329 185.6804 L 95.07329 185.6804 C 95.74818 186.83078 96.19435 187.9789 96.0766 188.32086 C 95.98241 188.59443 95.68304 188.79735 95.40947 188.70315 C 95.06752 188.5854 94.32198 187.6402 93.66838 186.65014 C 93.01478 185.6601 92.77379 184.58261 93.18865 184.26646 C 93.65061 183.81353 94.30872 184.34613 95.07329 185.6804 Z M 99.32402 199.99603 L 99.32402 199.99603 C 99.52919 200.06668 100.38796 201.12738 101.19964 202.32486 C 102.0797 203.5459 102.56846 205.01468 102.38007 205.5618 C 102.16812 206.17733 101.58842 206.97222 101.05807 207.4016 C 100.32029 207.98907 99.94026 207.09322 99.53569 204.04691 C 99.19274 201.71033 99.11884 199.92538 99.32402 199.99603 Z M 126.68057 209.41565 L 126.68057 209.41565 C 126.99898 209.60178 125.8486 210.27668 124.01204 210.9448 C 122.17549 211.61292 119.91957 213.05464 118.90145 214.23408 C 117.90689 215.34512 116.81588 216.95846 116.50974 217.84754 C 116.2036 218.73663 115.671 219.39474 115.32904 219.277 C 114.98708 219.15925 114.90868 217.83175 115.19803 216.3249 C 115.39545 214.86286 115.64222 213.03533 115.64898 212.34916 C 115.65801 211.43427 116.82968 210.91971 119.94438 210.5387 C 122.28097 210.19574 124.57271 209.76085 125.1008 209.5602 C 125.5605 209.33598 126.27022 209.27435 126.68057 209.41565 Z M 114.00561 207.3463 L 114.00561 207.3463 C 114.41596 207.4876 114.64242 207.71858 114.59533 207.85536 C 114.52468 208.06054 114.13337 208.3083 113.65237 208.37218 C 113.23977 208.4596 112.94491 208.20508 113.06266 207.86312 C 113.20395 207.45277 113.66365 207.22856 114.00561 207.3463 Z M 100.29917 224.0468 L 100.29917 224.0468 C 100.50435 224.11744 101.09407 224.6265 101.63668 225.27233 C 102.38448 225.98882 102.399 226.83532 101.76995 227.99572 C 101.23509 228.88255 100.63409 229.5171 100.36053 229.42292 C 100.15535 229.35227 99.82242 228.31963 99.7653 227.15247 C 99.6398 225.96175 99.60624 224.7262 99.70043 224.45263 C 99.79463 224.17906 100.094 223.97615 100.29917 224.0468 Z M 117.8532 232.38613 L 117.8532 232.38613 C 119.4946 232.9513 119.51589 233.11164 118.10421 234.76756 C 117.31708 235.72052 116.37187 236.46606 116.0983 236.37187 C 115.82474 236.27767 115.62182 235.9783 115.73956 235.63634 C 115.83376 235.36278 115.93472 234.40304 116.03569 233.4433 C 116.11761 232.09452 116.41698 231.8916 117.8532 232.38613 Z M 95.69511 231.64148 L 95.69511 231.64148 C 96.44742 231.90052 97.46652 232.93993 98.00463 234.0432 C 98.4979 235.05456 98.69405 236.0401 98.48662 236.19817 C 98.23434 236.2643 97.12104 235.49847 95.96516 234.41197 C 94.83282 233.25707 93.9976 232.12798 94.11534 231.78603 C 94.23309 231.44407 94.94281 231.38244 95.69511 231.64148 Z M 101.1601 245.76323 L 101.1601 245.76323 C 101.54239 246.43036 101.64435 247.68946 101.36176 248.51016 C 101.05562 249.39925 100.45011 250.49125 100.033 251.03613 C 99.61588 251.581 99.04294 251.68973 98.77163 251.3668 C 98.50033 251.0439 98.76839 249.3767 99.35711 247.6669 C 100.27553 244.99964 100.53005 244.70478 101.1601 245.76323 Z M 114.98942 256.03304 L 117.17568 257.01533 L 115.4779 262.16823 C 114.51239 264.97228 113.67915 268.28087 113.64432 269.49288 C 113.5153 270.97845 113.35045 271.4572 112.92107 270.92684 C 112.64976 270.60392 112.81361 267.90634 113.27683 265.00584 C 113.7849 262.19728 113.84228 258.69805 113.44321 257.41313 L 112.73476 255.0272 L 114.98942 256.03304 Z M 101.0142 267.51548 L 101.0142 267.51548 C 101.44358 268.04583 102.03105 268.7836 102.39204 269.2904 C 102.68464 269.77366 102.63078 270.5966 102.23721 271.0731 C 101.84365 271.54958 101.292 271.81863 101.01844 271.72443 C 100.74487 271.63024 100.52292 270.9418 100.48484 270.1637 C 100.49161 269.47753 100.41095 268.37876 100.39416 267.76098 C 100.2877 266.95932 100.51642 266.96158 101.0142 267.51548 Z M 113.76179 273.81732 L 113.76179 273.81732 C 113.89857 273.86442 113.94116 274.1851 113.79987 274.59543 C 113.68212 274.9374 113.22242 275.1616 112.81207 275.0203 C 112.47011 274.90256 112.45108 274.5135 112.774 274.2422 C 113.12046 273.9025 113.55662 273.74668 113.76179 273.81732 Z M 116.98395 276.4568 L 116.98395 276.4568 C 118.21499 276.88068 118.32597 277.2249 117.56013 278.3382 C 117.04882 279.15664 116.30201 280.659 115.90168 281.82164 C 115.3836 283.32625 115.08423 283.52917 114.93292 282.63557 C 114.77936 281.9707 114.8658 280.16446 115.08676 278.63405 C 115.40869 276.1439 115.61612 275.98582 116.98395 276.4568 Z M 120.37211 297.05443 L 120.37211 297.05443 C 120.50664 297.33025 119.74531 297.9861 118.64202 298.5242 C 117.51519 299.1307 116.78192 299.26073 116.92321 298.85038 C 117.08806 298.37164 117.84939 297.7158 118.67685 297.3122 C 119.50431 296.90862 120.30597 296.80216 120.37211 297.05443 Z M 100.91413 291.5785 L 100.91413 291.5785 C 101.32448 291.7198 101.75386 292.25015 101.81774 292.73115 C 101.95001 293.2357 101.87711 293.6696 101.60129 293.8041 C 101.41741 293.8938 100.96447 293.43184 100.69768 292.65148 C 100.36249 291.84756 100.50378 291.4372 100.91413 291.5785 Z M 97.98882 293.63124 L 97.98882 293.63124 C 98.39916 293.77254 98.78371 294.21095 98.84759 294.69194 C 98.93502 295.10454 98.54371 295.3523 97.99658 295.1639 C 97.38105 294.95197 97.02006 294.44517 97.1378 294.1032 C 97.2791 293.69287 97.64686 293.5135 97.98882 293.63124 Z M 103.39417 311.48095 L 103.39417 311.48095 C 104.95589 313.1662 105.76531 314.5924 105.3056 314.8166 C 104.8459 315.0408 103.79648 314.75597 102.9332 314.15272 C 102.11476 313.6414 101.05081 312.51006 100.71562 311.70615 C 100.28849 310.94708 100.11589 309.89315 100.30428 309.346 C 100.51622 308.7305 101.4479 309.3573 103.39417 311.48095 Z M 93.6257 207.21394 L 93.6257 207.21394 C 94.58318 207.54362 95.4913 208.23882 95.57873 208.65142 C 95.68745 209.22436 95.18516 209.1279 93.97992 208.4069 C 93.04825 207.7801 92.11657 207.1533 92.02689 206.96942 C 91.9372 206.78554 92.59983 206.8607 93.6257 207.21394 Z" fill="black"/>
        </g>
        <g id="Graphic_75">
          <path d="M 108.8238 67.09713 C 109.50771 67.33262 110.9775 69.062705 111.94273 70.92506 C 112.99991 72.74258 113.86193 75.79339 113.95712 77.73867 C 114.06909 80.30172 113.69005 81.62471 112.69097 83.1932 C 111.64706 84.66975 110.81959 85.07333 109.54145 84.78623 C 108.56042 84.52493 106.97064 83.36553 106.06702 82.21289 C 105.09502 81.0367 104.46948 79.52081 104.70497 78.8369 C 104.96401 78.08459 104.72527 76.77839 104.16362 75.74349 C 103.53357 74.68505 103.5 73.449495 104.03486 72.56266 C 104.45424 71.789064 104.73908 70.739645 104.56197 70.14316 C 104.45324 69.57022 105.1036 68.57016 105.95686 67.86946 C 106.81013 67.16877 108.13988 66.86164 108.8238 67.09713 Z" fill="#FFFFFF"/>
        </g>
        <g id="Graphic_74">
          <path d="M 128.07182 77.62625 C 128.68734 77.83819 129.7087 78.648875 130.31746 79.54699 C 130.94976 80.37671 131.35109 81.43289 131.20979 81.84324 C 131.0685 82.25359 130.52362 81.83647 130.0068 80.89352 C 129.31062 79.582805 128.81059 79.25763 127.98313 79.66121 C 127.2476 80.01995 126.89437 81.04582 126.73277 83.51468 C 126.5544 85.36576 126.11923 87.74042 125.7189 88.90307 C 125.34211 89.99733 124.36884 91.26871 123.54138 91.67229 C 122.18582 92.27653 121.98065 92.20589 121.28446 90.89517 C 120.78894 90.11255 120.26987 89.39832 119.99631 89.30412 C 119.79113 89.23348 119.59823 90.23805 119.5163 91.58684 C 119.45793 92.86724 119.51278 94.26313 119.737 94.72283 C 119.9612 95.18253 120.62157 95.48642 121.23935 95.46963 C 121.85713 95.45285 123.46721 94.55375 124.87212 93.584 C 126.46317 92.29584 127.83001 90.54798 128.67326 88.54334 C 129.33038 86.8571 129.96395 85.23926 130.0817 84.8973 C 130.24428 84.64729 130.65688 84.55986 130.99884 84.6776 C 131.40919 84.8189 131.14113 86.4861 130.5053 88.33266 C 129.70464 90.65797 128.38039 92.72649 126.5561 94.46984 C 124.9628 95.98672 123.09593 97.40941 122.29202 97.7446 C 121.14389 98.19076 120.66515 98.02592 119.62475 96.82618 C 118.90051 96.04131 118.20658 94.50187 118.08108 93.31115 C 117.93202 92.18883 118.32685 89.26478 118.92235 86.86883 C 119.80043 83.65218 120.68852 81.73948 122.26279 79.83354 C 123.53543 78.35925 125.07938 77.20787 125.742 77.28303 C 126.42817 77.2898 127.50114 77.50625 128.07182 77.62625 Z" fill="#FFFFFF"/>
        </g>
        <g id="Graphic_73">
          <path d="M 93.87784 74.95582 C 94.2198 75.07356 94.42271 75.37293 94.32852 75.6465 C 94.21077 75.98845 94.90019 77.98534 95.81607 80.2132 C 97.18038 83.36047 97.35073 84.64312 96.58263 85.98515 C 95.83809 87.25878 95.85487 87.87656 96.763 88.57175 C 97.44465 89.03596 98.31019 89.41049 98.7228 89.32306 C 99.15895 89.16724 99.53573 88.07298 99.59637 86.56386 C 99.63345 85.12313 99.01919 82.46362 98.28268 80.60352 C 97.47777 78.71987 96.87578 77.13559 96.92288 76.99881 C 96.96998 76.86202 97.74132 77.51012 98.5788 78.41049 C 99.48467 79.3344 100.56088 81.54097 101.09223 83.33043 C 101.60002 85.18827 101.76134 87.38582 101.43165 88.3433 C 101.10197 89.30078 100.24419 90.45892 99.52996 90.97799 C 98.6083 91.65514 97.78535 91.60127 96.60365 90.81188 C 95.67198 90.18508 94.18316 88.06594 93.19663 86.04325 C 92.2101 84.02056 91.25614 81.01459 91.15869 79.29804 C 90.86284 76.82467 91.09833 76.14075 92.08838 75.48716 C 92.75552 75.10487 93.53588 74.83807 93.87784 74.95582 Z" fill="#FFFFFF"/>
        </g>
        <g id="Graphic_72">
          <path d="M 110.64996 90.67592 C 110.92353 90.77011 111.66907 91.71532 112.41235 92.88925 C 113.11079 93.97125 113.89215 95.92329 114.0625 97.20594 C 114.25639 98.42021 114.37061 100.75454 114.39967 102.44754 C 114.35356 104.80316 114.04517 105.92097 112.81737 107.48721 C 111.95959 108.64535 110.89889 109.50412 110.3495 109.54445 C 109.89206 109.53994 109.02877 108.93669 108.41776 108.2673 C 107.73836 107.57436 106.50633 104.93164 105.66334 102.26988 C 104.42129 98.32321 104.31934 97.0641 105.21195 94.69395 C 106.0552 92.68931 106.86588 91.66795 108.31112 91.24759 C 109.36731 90.84626 110.44479 90.60527 110.64996 90.67592 Z" fill="#FFFFFF"/>
        </g>
        <g id="Graphic_71">
          <path d="M 130.96094 100.11755 C 132.0765 100.65466 132.54847 101.50568 132.49009 102.78607 C 132.43397 103.83775 131.86203 106.16531 131.31814 107.96704 C 130.75071 109.83715 129.44324 112.52346 128.46772 114.02355 C 127.49219 115.52365 125.7834 117.15377 124.70366 117.62348 C 123.44005 118.18289 122.20449 118.21645 121.68316 117.73094 C 121.13829 117.31383 120.76051 116.18925 120.74599 115.34275 C 120.75501 114.42785 121.02533 112.53193 121.33598 111.1854 C 121.57823 109.81532 122.03018 108.05843 122.28922 107.30613 C 122.54826 106.55382 123.17957 105.1647 123.64604 104.25432 C 124.1809 103.36749 125.68226 101.89545 126.99523 100.97054 C 128.69951 99.79787 129.777 99.55688 130.96094 100.11755 Z" fill="#FFFFFF"/>
        </g>
        <g id="Graphic_70">
          <path d="M 91.72278 96.32226 C 92.48284 98.11397 93.55455 100.77799 94.06685 102.17839 C 94.48722 103.62363 94.65305 105.36373 94.32562 106.09249 C 93.8356 107.07126 94.17305 107.64645 95.56217 108.27776 C 96.74611 108.83843 97.43228 108.8452 97.66777 108.16128 C 97.85617 107.61415 97.37418 105.45919 96.73186 103.32552 C 96.02115 101.1683 94.98978 99.05368 94.51329 98.66011 C 93.99197 98.1746 93.70162 97.46263 93.84291 97.05228 C 93.98421 96.64193 94.98202 97.521 96.04145 99.1098 C 97.0325 100.67504 98.22646 102.53965 98.63004 103.36712 C 99.05717 104.12619 99.58851 105.91564 99.78015 107.35863 C 99.97179 108.80162 99.956 110.40268 99.74406 111.0182 C 99.53212 111.63372 98.84143 112.0844 98.20011 112.16958 C 97.51394 112.16281 95.85351 111.20858 94.49245 110.05143 C 93.06299 108.87073 91.09769 106.35802 90.08761 104.40372 C 88.96655 102.10521 88.32874 99.5141 88.4455 96.9533 C 88.47257 94.20862 88.71257 93.06726 89.39874 93.07403 C 89.85618 93.07854 90.89433 94.507 91.72278 96.32226 Z" fill="#FFFFFF"/>
        </g>
        <g id="Graphic_69">
          <path d="M 110.90313 113.71308 C 111.51865 113.92502 112.44807 114.78054 112.94359 115.56317 C 113.46266 116.2774 114.33596 118.1846 114.80117 119.72178 C 115.44349 121.85545 115.3593 123.43296 114.41734 126.16861 C 113.71087 128.22036 112.31372 130.72278 111.38755 131.85737 C 110.18555 133.12649 109.05872 133.73299 108.23802 133.4504 C 107.55411 133.21491 106.46887 131.92323 105.88818 130.49928 C 105.28393 129.14373 104.66742 126.71294 104.56997 124.9964 C 104.44898 123.34823 104.79446 120.78969 105.31254 119.28508 C 105.80707 117.84886 107.01583 115.89357 107.93974 114.9877 C 108.9556 114.03699 110.21922 113.47759 110.90313 113.71308 Z" fill="#FFFFFF"/>
        </g>
        <g id="Graphic_68">
          <path d="M 129.68595 122.70502 C 130.31825 123.53474 130.98637 125.3713 131.15447 126.88267 C 131.39095 128.4176 131.06676 131.13647 130.38384 133.11982 C 129.51253 135.6503 128.25892 137.51365 125.99623 139.64154 C 123.5945 141.95106 122.37573 142.6024 120.9608 142.2682 C 119.45394 141.97885 119.07165 141.31171 118.73096 138.7464 C 118.47544 136.82242 118.81866 134.4926 119.49932 132.73798 C 120.10934 131.18853 121.32487 128.54707 122.18716 126.93148 C 123.1672 124.97393 124.62372 123.40996 126.18671 122.64764 C 128.34844 121.47948 128.73749 121.46044 129.68595 122.70502 Z" fill="#FFFFFF"/>
        </g>
        <g id="Graphic_67">
          <path d="M 90.15419 116.20764 C 90.89973 117.15285 92.34596 118.95133 93.4312 120.243 C 94.53999 121.46629 96.07365 123.67737 96.81468 125.08003 C 97.6241 126.50623 98.41222 127.7721 98.6174 127.84275 C 98.89096 127.93695 99.13196 129.01443 99.21036 130.34193 C 99.30555 132.2872 99.09361 132.90272 97.6416 134.00926 C 96.60445 134.79964 95.2747 135.10677 94.31722 134.77708 C 93.42813 134.47094 92.09062 133.2454 91.30249 131.97953 C 90.49082 130.78205 89.52333 129.14841 89.11974 128.32095 C 88.71616 127.49348 88.22967 125.79597 87.99093 124.48977 C 87.82058 123.20711 87.54828 120.66535 87.47439 118.88041 C 87.3321 117.07192 87.60016 115.40472 88.03857 115.02018 C 88.56892 114.59079 89.13734 114.93951 90.15419 116.20764 Z" fill="#FFFFFF"/>
        </g>
        <g id="Graphic_66">
          <path d="M 115.75106 134.73685 C 115.88559 135.01267 115.74204 135.65174 115.37202 136.05983 C 114.97845 136.53632 114.84393 136.2605 115.10297 135.50819 C 115.29361 134.73234 115.64008 134.39263 115.75106 134.73685 Z" fill="#FFFFFF"/>
        </g>
        <g id="Graphic_65">
          <path d="M 109.60783 138.35906 C 110.30402 139.66978 111.3925 142.95157 111.93837 145.58753 C 112.50328 148.61254 112.63654 151.33592 112.14201 152.77214 C 111.71813 154.00319 110.69776 155.41135 109.89384 155.74654 C 109.13477 156.17367 107.87567 156.27562 107.19175 156.04013 C 106.43945 155.78109 105.18937 154.96815 104.32834 154.13618 C 103.42247 153.21226 102.7095 151.28377 102.54818 149.08622 C 102.3846 147.1174 102.74136 143.41524 103.47589 140.83766 C 104.64107 136.34287 104.80366 136.09285 106.52021 135.9954 C 107.98449 135.9641 108.59775 136.40476 109.60783 138.35906 Z" fill="#FFFFFF"/>
        </g>
        <g id="Graphic_64">
          <path d="M 127.77414 144.92022 C 129.46263 145.34862 129.9133 146.0393 130.50853 148.30975 C 130.98826 150.69343 130.8402 151.78995 129.39369 154.65787 C 128.4372 156.54703 127.18135 158.6391 126.51196 159.25011 C 125.91096 159.88467 124.50605 160.85442 123.47116 161.41608 C 122.41271 162.04613 120.8094 162.25906 119.9887 161.97647 C 119.168 161.69388 118.08276 160.4022 117.66015 159.18569 C 117.19268 157.87723 117.18944 155.88711 117.58977 154.72446 C 117.9901 153.5618 119.10918 151.42263 120.01631 149.89899 C 120.99184 148.39889 122.6345 146.5165 123.80843 145.77322 C 125.02946 144.89315 126.51954 144.56473 127.77414 144.92022 Z" fill="#FFFFFF"/>
        </g>
        <g id="Graphic_63">
          <path d="M 87.87363 136.38337 C 88.14719 136.47757 89.7986 138.3467 91.53744 140.62842 C 93.23143 142.81821 95.19223 145.78836 95.77292 147.21231 C 96.42201 148.65981 96.90174 151.0435 96.9095 152.57617 C 96.91726 154.10884 96.55725 155.82088 96.14014 156.36575 C 95.65463 156.88708 94.53231 157.03613 93.57483 156.70644 C 92.61735 156.37676 91.11725 155.40123 90.27977 154.50087 C 89.44229 153.6005 88.31898 151.53071 87.74054 149.87804 C 87.1621 148.22537 86.62526 144.67452 86.46845 142.01953 C 86.31163 139.36453 86.44968 136.96407 86.7726 136.69276 C 87.09552 136.42145 87.60006 136.28918 87.87363 136.38337 Z" fill="#FFFFFF"/>
        </g>
        <g id="Graphic_62">
          <path d="M 131.93392 161.49954 C 132.0023 161.52309 131.9765 161.8202 131.8352 162.23055 C 131.71746 162.57251 131.05259 162.72607 130.43706 162.51413 C 129.4112 162.1609 129.3899 162.00057 130.46738 161.75957 C 131.13226 161.606 131.79713 161.45244 131.93392 161.49954 Z" fill="#FFFFFF"/>
        </g>
        <g id="Graphic_61">
          <path d="M 105.60395 159.3184 C 106.49304 159.62454 107.98412 161.51496 109.17357 163.83702 C 110.70046 166.73427 111.09276 168.70535 110.83923 171.21905 C 110.56214 173.80114 110.11471 175.10058 108.88917 176.43809 C 107.91815 177.48074 106.79132 178.08724 106.03902 177.8282 C 105.3551 177.5927 104.06243 176.4591 103.09043 175.28292 C 102.09487 174.17512 101.24512 172.19953 101.05123 170.98527 C 100.85733 169.771 101.13893 166.73147 101.66603 164.31197 C 102.19313 161.89246 102.97025 159.63555 103.36156 159.38779 C 103.70803 159.04809 104.71486 159.01227 105.60395 159.3184 Z" fill="#FFFFFF"/>
        </g>
        <g id="Graphic_60">
          <path d="M 125.79394 167.11187 C 126.09105 167.13768 126.95208 167.96965 127.62922 168.89131 C 128.30637 169.81297 128.88255 171.69437 128.86902 173.0667 C 128.83194 174.50744 128.1445 176.94823 127.16447 178.90578 C 126.18443 180.86332 124.63371 182.70087 123.45978 183.44415 C 122.21746 184.16388 120.68253 184.40037 119.65666 184.04713 C 118.69918 183.71744 117.58814 182.72288 117.2765 181.85058 C 116.9413 181.04666 116.82708 178.71233 116.96062 176.76931 C 117.24221 173.72977 117.61674 172.86424 119.09456 171.46059 C 120.04202 170.48633 120.99174 169.28334 121.13304 168.873 C 121.29788 168.39426 122.28793 167.74066 123.36541 167.49966 C 124.39805 167.16673 125.52037 167.01768 125.79394 167.11187 Z" fill="#FFFFFF"/>
        </g>
        <g id="Graphic_59">
          <path d="M 88.19519 159.44408 C 88.67393 159.60893 90.16275 161.72807 91.53382 164.18917 C 92.92844 166.58187 94.36114 169.75269 94.78151 171.19793 C 95.20187 172.64317 95.45739 174.56715 95.44837 175.48205 C 95.43934 176.39694 94.57705 178.01253 93.467 179.2368 C 91.80079 181.18758 91.36464 181.3434 89.86454 180.36788 C 88.86448 179.71753 87.4676 177.55355 86.6414 175.50956 C 85.59098 173.00588 85.22674 170.50896 85.57448 167.7217 C 85.80221 165.50511 85.80573 162.82882 85.58603 161.91168 C 85.34729 160.60547 85.46729 160.0348 86.29475 159.63121 C 86.8464 159.36216 87.71645 159.27924 88.19519 159.44408 Z" fill="#FFFFFF"/>
        </g>
        <g id="Graphic_58">
          <path d="M 131.70058 182.83919 C 132.11093 182.98048 131.8306 183.57246 131.13766 184.25186 C 130.39988 184.83932 129.73275 185.2216 129.66661 184.96934 C 129.57693 184.78546 129.81242 184.10154 130.29793 183.58021 C 130.71504 183.03534 131.35863 182.72144 131.70058 182.83919 Z" fill="#FFFFFF"/>
        </g>
        <g id="Graphic_57">
          <path d="M 127.7872 189.9832 C 128.40272 190.19514 129.21665 191.1639 129.4812 192.17299 C 129.81413 193.20563 129.56285 195.4906 128.97412 197.20039 C 128.3854 198.91017 126.8492 201.59422 125.62141 203.16045 C 124.32522 204.70314 122.17802 206.7178 120.8202 207.55076 C 118.61138 208.8557 118.15393 208.8512 117.08999 207.71984 C 116.41059 207.0269 115.76376 205.35069 115.50147 204.11287 C 115.33112 202.83022 115.46466 200.8872 115.77305 199.7694 C 116.0579 198.71997 117.17697 196.5808 118.24444 195.03586 C 119.24351 193.46737 120.81778 191.56143 121.71814 190.72395 C 122.61851 189.88648 124.04246 189.30578 124.91025 189.45159 C 125.84644 189.62094 127.14813 189.83965 127.7872 189.9832 Z" fill="#FFFFFF"/>
        </g>
        <g id="Graphic_56">
          <path d="M 107.14176 186.6229 C 108.16763 186.97614 109.37061 187.92586 109.81903 188.84526 C 110.29101 189.69627 110.532 190.77375 110.34361 191.32089 C 110.17876 191.79963 110.25717 193.12712 110.49816 194.2046 C 110.80755 195.30563 110.64595 197.7745 110.26015 199.78364 C 109.56594 202.9106 109.26432 203.34225 107.70584 203.64712 C 106.74385 203.77488 105.1002 203.43843 104.10014 202.78808 C 102.96329 202.09063 101.9958 200.457 101.40057 198.18655 C 100.89278 196.3287 100.83017 193.40014 101.19017 191.6881 C 101.66792 189.6341 102.43601 188.29208 103.6122 187.32008 C 104.74129 186.48485 105.9791 186.22257 107.14176 186.6229 Z" fill="#FFFFFF"/>
        </g>
        <g id="Graphic_55">
          <path d="M 86.64536 184.38492 C 88.07933 185.10818 90.30141 187.0973 91.54247 188.82513 C 93.23647 191.01492 94.10525 193.37957 94.44143 196.40232 C 94.88634 199.99801 94.78537 200.95775 93.81887 201.54296 C 93.15174 201.92524 91.96103 202.05075 91.07194 201.7446 C 90.25124 201.46202 88.77469 200.4181 87.80043 199.47064 C 86.84972 198.45478 85.56607 196.4063 84.96408 194.822 C 84.3621 193.23773 83.74784 190.57822 83.582 188.83812 C 83.41617 187.09802 83.41292 185.1079 83.67196 184.3556 C 84.04875 183.26134 84.50619 183.26585 86.64536 184.38492 Z" fill="#FFFFFF"/>
        </g>
        <g id="Graphic_54">
          <path d="M 131.9044 206.24186 C 131.97053 206.49413 131.57696 206.9706 131.02532 207.23967 C 130.38174 207.55356 130.01623 207.5042 130.15753 207.09386 C 130.29882 206.6835 130.69239 206.20703 131.0366 206.09605 C 131.33597 205.89313 131.76987 205.96603 131.9044 206.24186 Z" fill="#FFFFFF"/>
        </g>
        <g id="Graphic_53">
          <path d="M 128.89941 209.41466 C 129.44654 209.60305 130.03626 210.1121 130.10014 210.5931 C 130.18757 211.0057 129.65948 211.20637 128.90717 210.94733 C 128.08647 210.66474 127.5887 210.11084 127.70644 209.76888 C 127.84774 209.35853 128.35228 209.22626 128.89941 209.41466 Z" fill="#FFFFFF"/>
        </g>
        <g id="Graphic_52">
          <path d="M 129.81078 212.09997 C 129.87918 212.12351 129.83208 212.2603 129.66949 212.51031 C 129.48335 212.82872 129.60886 214.01944 129.87114 215.25725 C 130.35764 216.95476 130.11539 218.32485 128.82921 221.17148 C 127.91757 223.15257 126.47557 225.56305 125.5752 226.40053 C 124.67484 227.238 122.85507 228.5239 121.47596 229.19655 C 120.1417 229.96112 118.83324 230.42858 118.49128 230.31084 C 118.21772 230.21664 117.47218 229.27143 116.91052 228.23654 C 116.41725 227.2252 116.11689 225.20927 116.29076 223.81564 C 116.55882 222.14844 117.58596 220.05411 119.07054 217.9643 C 120.46092 216.14805 122.08003 214.33405 122.70232 213.85982 C 123.393 213.40914 125.206 212.8094 126.74093 212.57293 C 128.27586 212.33645 129.65045 212.12126 129.81078 212.09997 Z" fill="#FFFFFF"/>
        </g>
        <g id="Graphic_51">
          <path d="M 107.32554 207.41767 C 107.62265 207.44348 108.5453 208.98517 109.35021 210.86882 C 110.11027 212.66053 110.63485 215.13616 110.46324 216.30107 C 110.29163 217.46598 109.76678 219.65676 109.27225 221.09297 C 108.80127 222.4608 107.75735 223.93735 106.99828 224.36448 C 105.91855 224.8342 105.14269 224.64355 103.66614 223.59963 C 102.55284 222.8338 101.30953 221.3347 101.00014 220.23366 C 100.59882 219.17747 100.34781 216.79604 100.3423 215.03465 C 100.35034 211.90092 100.49163 211.49057 102.54689 209.52075 C 103.79373 208.34357 105.19864 207.37382 105.74802 207.3335 C 106.29741 207.29316 107.05197 207.32348 107.32554 207.41767 Z" fill="#FFFFFF"/>
        </g>
        <g id="Graphic_50">
          <path d="M 85.08453 205.80298 C 85.56327 205.96782 87.39856 207.74726 89.23159 209.75542 C 90.99623 211.74004 93.05348 214.2079 93.79902 215.15311 C 94.52101 216.16671 95.37076 218.1423 95.5624 219.5853 C 95.82243 221.05183 95.54985 223.17647 94.94209 224.4972 C 93.98334 226.61508 93.70752 226.7496 91.37996 226.17766 C 89.12079 225.62926 88.57817 224.98343 86.15668 220.01864 C 84.6085 216.96106 83.25321 212.8989 82.99769 210.97492 C 82.74217 209.05094 82.9228 206.97113 83.40831 206.4498 C 83.82543 205.90493 84.60579 205.63813 85.08453 205.80298 Z" fill="#FFFFFF"/>
        </g>
        <g id="Graphic_49">
          <path d="M 131.65202 227.19245 C 132.06237 227.33374 132.24174 227.7015 132.124 228.04346 C 131.9827 228.4538 131.5443 228.83835 131.0633 228.90223 C 130.6507 228.98966 130.40293 228.59835 130.59132 228.05122 C 130.80327 227.4357 131.31007 227.0747 131.65202 227.19245 Z" fill="#FFFFFF"/>
        </g>
        <g id="Graphic_48">
          <path d="M 126.88989 234.5797 C 128.02448 235.50588 128.15224 236.46787 127.69353 238.91092 C 127.40192 240.6465 126.57544 243.26893 125.87574 244.6345 C 125.24443 246.02363 123.595 248.59218 122.32011 250.2952 C 120.25808 252.9512 119.5674 253.40187 117.30372 253.31092 C 115.40554 253.26932 114.44806 252.93963 113.74736 252.08637 C 113.20474 251.44053 112.80793 249.9269 112.77437 248.69134 C 112.8092 247.47933 113.05596 245.6518 113.4092 244.62593 C 113.73889 243.66845 114.99474 241.57638 116.19899 240.07854 C 117.33485 238.55714 119.89466 236.45506 121.8725 235.37658 C 124.95363 233.76 125.6869 233.63 126.88989 234.5797 Z" fill="#FFFFFF"/>
        </g>
        <g id="Graphic_47">
          <path d="M 107.62481 228.0992 C 107.89838 228.1934 108.48358 229.1599 108.9533 230.23965 C 109.39947 231.38777 109.76822 233.42724 109.79953 234.89152 C 109.76244 236.33225 109.39793 238.50174 108.97405 239.7328 C 108.50307 241.1006 107.34592 242.46167 105.9881 243.29464 L 103.80283 244.5312 L 102.29497 242.023 C 101.21424 240.27387 100.93517 238.41828 101.18645 236.1333 C 101.43773 233.84833 102.05001 232.07015 103.02328 230.79877 C 103.83396 229.77742 105.12564 228.69218 105.83761 228.40183 C 106.59443 228.20342 107.41964 228.02856 107.62481 228.0992 Z" fill="#FFFFFF"/>
        </g>
        <g id="Graphic_46">
          <path d="M 85.19316 227.26037 C 85.6719 227.42521 86.91972 228.46687 87.98367 229.59822 C 89.04761 230.72957 90.81226 232.71418 91.80555 234.0507 C 92.79885 235.38722 94.21251 238.16898 94.87838 240.23426 C 95.8133 242.85118 95.86591 244.4758 95.25814 245.79652 C 94.48779 247.36726 94.05164 247.52308 91.99764 247.04533 C 90.58272 246.71114 88.80905 245.64142 87.70026 244.41813 C 86.70471 243.31033 85.31008 240.91763 84.64196 239.08107 C 83.97384 237.24452 83.36635 233.89885 83.31826 231.8168 C 83.29372 229.66634 83.51919 227.67848 83.81856 227.47556 C 84.14148 227.20425 84.78281 227.11908 85.19316 227.26037 Z" fill="#FFFFFF"/>
        </g>
        <g id="Graphic_45">
          <path d="M 128.75143 247.61368 C 128.9566 247.68433 129.13597 248.0521 129.29179 248.48825 C 129.37922 248.90085 129.0776 249.3325 128.57305 249.46476 C 128.16044 249.5522 127.91268 249.16088 128.10108 248.61375 C 128.31302 247.99823 128.61464 247.56659 128.75143 247.61368 Z" fill="#FFFFFF"/>
        </g>
        <g id="Graphic_44">
          <path d="M 105.68169 248.85013 C 105.95526 248.94433 106.7737 249.45564 107.45536 249.91985 C 108.2054 250.40762 109.30517 252.5458 109.90265 254.58752 C 110.65594 257.0654 110.81501 259.49167 110.31146 261.8428 C 109.78661 264.03356 108.91981 266.1066 107.92525 267.21764 C 107.06972 268.14706 106.05612 268.86905 105.64577 268.72776 C 105.23543 268.58646 103.97533 266.46958 102.83298 264.01073 C 101.2422 260.6325 100.91829 258.68496 101.19763 255.87414 C 101.61601 252.8817 101.96925 251.85583 103.44706 250.4522 C 104.46292 249.50147 105.47652 248.7795 105.68169 248.85013 Z" fill="#FFFFFF"/>
        </g>
        <g id="Graphic_43">
          <path d="M 123.77509 255.8452 C 123.77509 255.8452 124.68322 256.54038 125.70458 257.35106 C 126.72594 258.16175 127.42212 259.47246 127.4131 260.38735 C 127.33568 261.2787 126.85793 263.3327 126.3163 264.9057 C 125.77468 266.4787 124.81819 268.36785 124.1701 269.1392 C 123.522 269.91054 122.52518 271.2503 121.96677 272.20553 C 121.33997 273.1372 120.18733 274.04082 119.29373 274.19213 C 118.17141 274.34118 117.4191 274.08214 116.71841 273.22887 C 116.13095 272.4911 115.6893 270.88552 115.63444 269.48963 C 115.62442 268.18568 116.10668 265.67424 116.71896 263.89606 C 117.30768 262.18628 118.5187 260.00227 119.35067 259.14124 C 120.11426 258.25666 121.49787 257.12658 122.2805 256.63106 C 123.03957 256.20393 123.7067 255.82164 123.77509 255.8452 Z" fill="#FFFFFF"/>
        </g>
        <g id="Graphic_42">
          <path d="M 86.53607 251.13176 C 87.46775 251.75856 89.62144 253.72414 91.27285 255.59327 C 92.92426 257.4624 94.54986 259.62863 94.84021 260.3406 C 95.10701 261.12097 95.5677 263.1156 95.82548 264.81086 L 96.29844 267.8807 L 94.27801 268.63852 C 93.12988 269.0847 91.57366 269.16084 90.66102 268.9231 C 89.77193 268.61695 88.36378 267.5966 87.45791 266.67267 C 86.55204 265.74875 85.42872 263.67897 84.93997 262.21018 C 84.47476 260.673 83.86276 257.78476 83.58369 255.92917 C 83.35172 253.9368 83.50881 251.9254 83.97302 251.24373 C 84.66821 250.3356 85.2176 250.29528 86.53607 251.13176 Z" fill="#FFFFFF"/>
        </g>
        <g id="Graphic_41">
          <path d="M 130.23564 271.07473 C 130.5776 271.19247 130.50243 271.8551 130.03822 272.53675 C 129.574 273.2184 129.0885 273.73974 128.95172 273.69264 C 128.81494 273.64554 128.8901 272.98292 129.14913 272.2306 C 129.40817 271.4783 129.89368 270.95698 130.23564 271.07473 Z" fill="#FFFFFF"/>
        </g>
        <g id="Graphic_40">
          <path d="M 126.23934 277.3487 C 127.06004 277.63128 128.12398 278.76262 128.5937 279.84236 C 129.10826 281.01404 129.36378 282.93802 129.21346 284.26326 C 129.0183 285.49656 128.12795 287.638 127.29146 288.95646 C 126.36303 290.31977 124.70134 291.8131 123.6216 292.28282 C 122.44993 292.79738 120.73112 293.12355 119.67944 293.06743 C 118.58293 292.91937 117.42253 292.2903 116.81377 291.3922 C 115.95726 290.10278 116.01112 289.27982 117.74924 284.6763 C 119.5793 280.02795 120.06706 279.2779 122.29718 278.1333 C 123.67629 277.46066 125.41864 277.0661 126.23934 277.3487 Z" fill="#FFFFFF"/>
        </g>
        <g id="Graphic_39">
          <path d="M 107.46978 271.6508 C 108.19854 271.97824 109.37798 272.99636 109.96318 273.96286 C 110.59323 275.0213 111.27362 277.93308 111.43044 280.58807 C 111.79793 285.0751 111.74857 285.4406 109.87494 287.54947 C 108.6023 289.02376 107.45191 289.69865 106.44734 289.50575 C 105.35082 289.3577 104.22074 287.97407 102.94386 285.2394 C 101.41922 282.11343 101.11434 280.55495 101.62015 277.97512 C 101.93531 276.17114 102.61824 274.1878 103.15084 273.52968 C 103.6599 272.93996 104.49187 272.07893 105.06706 271.7415 C 105.55031 271.4489 106.64909 271.36822 107.46978 271.6508 Z" fill="#FFFFFF"/>
        </g>
        <g id="Graphic_38">
          <path d="M 87.08987 271.51844 C 87.56861 271.6833 89.56649 273.2127 91.49372 274.9473 C 93.3761 276.58996 95.50174 279.08138 96.19792 280.3921 C 97.09703 282.00218 97.21802 283.65034 96.66962 285.9095 C 96.28382 287.91867 95.56056 289.35263 94.77794 289.84815 C 94.11081 290.23044 92.8517 290.3324 91.89422 290.0027 C 91.00514 289.69657 89.52859 288.65265 88.66756 287.82068 C 87.83008 286.9203 86.45675 284.68794 85.78863 282.85138 C 85.02856 281.05967 84.23494 278.0324 84.04781 276.13197 C 83.64098 273.3144 83.80808 272.60693 84.86652 271.97688 C 85.5572 271.5262 86.54274 271.33005 87.08987 271.51844 Z" fill="#FFFFFF"/>
        </g>
        <g id="Graphic_37">
          <path d="M 127.25961 296.825 C 128.42226 297.22532 128.87294 297.916 128.74392 299.40157 C 128.70909 300.61358 127.94875 303.48828 127.0326 305.9268 C 125.92579 309.1412 124.87962 310.8465 123.28857 312.13464 C 122.08883 313.17504 120.22648 314.14028 119.19384 314.4732 C 118.18475 314.73775 117.22501 314.6368 116.97725 314.24548 C 116.82143 313.80933 116.67689 312.22956 116.73752 310.72044 C 116.77912 308.82226 117.36785 307.11247 118.765 304.61005 C 119.88182 302.6996 121.87545 300.02007 123.16939 298.7061 C 125.04077 296.82598 125.96017 296.37756 127.25961 296.825 Z" fill="#FFFFFF"/>
        </g>
        <g id="Graphic_36">
          <path d="M 110.3063 292.5175 C 111.127 292.8001 112.28063 294.1153 112.88488 295.47087 C 113.46557 296.8948 113.96208 299.89628 114.00792 302.20706 C 113.98536 304.4943 113.52214 307.3948 112.96147 308.57874 C 112.25951 310.17303 111.3614 310.7818 109.66614 311.03956 C 108.38349 311.2099 106.91921 311.2412 106.37208 311.05282 C 105.82495 310.86443 105.07941 309.91922 104.65454 308.93143 C 104.18482 307.8517 103.83961 305.74383 103.69507 304.16406 C 103.61892 302.60784 104.12699 299.79928 104.76281 297.9527 C 105.44348 296.1981 106.56255 294.0589 107.41582 293.35822 C 108.22425 292.5656 109.41722 292.21136 110.3063 292.5175 Z" fill="#FFFFFF"/>
        </g>
        <g id="Graphic_35">
          <path d="M 89.07538 292.8571 C 91.58231 293.7968 93.74278 295.0762 95.44128 296.80855 C 97.25302 298.6564 98.08373 300.24292 98.337 302.39563 C 98.65188 305.25805 98.53414 305.6 96.96664 306.81977 C 95.39914 308.03954 94.96524 307.96664 92.2341 306.56723 C 90.55012 305.6814 88.59709 304.2439 87.828 303.3671 C 87.08246 302.42188 85.75623 300.05272 84.93003 298.00874 C 84.01189 296.0096 83.36731 294.10465 83.46151 293.8311 C 83.53216 293.6259 83.97282 293.01265 84.38994 292.46777 C 85.01448 291.76482 86.13455 291.8445 89.07538 292.8571 Z" fill="#FFFFFF"/>
        </g>
        <g id="Graphic_34">
          <path d="M 110.35177 320.37914 C 109.89757 322.36474 109.62274 324.7181 109.77405 325.6117 C 109.92536 326.5053 110.00024 330.5091 109.93835 334.46578 C 109.94484 338.446 110.28174 348.354 110.61314 356.5006 C 110.96809 364.57883 111.60436 374.2839 112.00216 378.0164 C 112.39997 381.74886 112.7236 388.3628 112.5888 392.7534 C 112.5224 397.1675 112.4134 401.261 112.2934 401.83166 C 112.24179 402.4259 112.27536 403.66145 112.42666 404.55504 C 112.57797 405.44864 112.61704 408.4456 112.49803 411.2351 C 112.26904 415.89926 112.19613 416.33316 111.17026 415.97993 C 110.48635 415.74443 109.75985 415.1883 109.3753 414.74987 C 109.05915 414.335 108.91912 412.2978 109.1446 410.30994 C 109.32523 408.23013 109.47456 404.68605 109.5655 402.42237 C 109.58806 400.13514 109.59059 395.24 109.55829 391.5569 C 109.50244 387.94216 109.10491 379.5433 108.62094 372.95064 C 108.13697 366.358 107.6059 359.90214 107.5275 358.57465 C 107.3807 357.2236 107.27324 354.2031 107.15901 351.86877 C 107.11318 349.558 106.9847 341.71075 106.91785 334.57324 C 106.87454 327.36733 106.48477 320.50112 106.0857 319.2162 L 105.39854 316.9906 L 108.28225 316.83605 L 111.16597 316.6815 L 110.35177 320.37914 Z" fill="#FFFFFF"/>
        </g>
        <g id="Graphic_33">
          <path d="M 108.25411 69.19597 C 107.36502 68.88983 106.61046 68.85951 106.53981 69.06469 C 106.44562 69.33825 107.22472 71.51902 108.32223 73.88592 C 109.41974 76.25282 110.15174 78.57037 110.01045 78.98072 C 109.8927 79.32268 109.02265 79.40559 108.06517 79.07591 C 107.0393 78.72267 106.21409 78.89753 106.0257 79.44466 C 105.83731 79.99179 106.51445 80.91345 107.58291 81.58735 C 108.58298 82.2377 109.81402 82.66158 110.31857 82.52931 C 110.73117 82.44188 111.49701 81.32858 111.89734 80.16593 C 112.32123 78.934885 112.2541 76.46377 111.74631 74.60593 C 111.30691 72.77163 110.63878 70.93508 110.32263 70.52022 C 110.00648 70.10536 109.0748 69.47856 108.25411 69.19597 Z" fill="black"/>
        </g>
        <g id="Graphic_32">
          <path d="M 109.80671 92.68056 C 109.46475 92.56282 109.0499 92.87897 108.88505 93.35771 C 108.69666 93.90484 108.9825 95.07426 109.54415 96.10915 C 110.12936 97.07566 110.70554 98.95705 110.89944 100.17131 C 111.06978 101.45397 110.82301 103.2815 110.30945 104.32866 C 109.79588 105.37583 109.73976 106.4275 110.03462 106.68203 C 110.39787 106.9601 111.06951 106.12037 111.65372 104.86803 C 112.23794 103.6157 112.75827 101.88236 112.85924 100.92263 C 112.89181 99.93934 112.40982 97.78438 111.71815 96.01622 C 111.00293 94.31645 110.14867 92.79831 109.80671 92.68056 Z" fill="black"/>
        </g>
        <g id="Graphic_31">
          <path d="M 130.61772 102.44736 C 130.30608 101.57506 129.99218 100.93148 129.85314 101.1131 C 129.7141 101.29473 128.7273 103.93844 127.5992 106.9925 C 126.04722 111.27761 125.16364 112.73287 123.82937 113.49744 C 122.88642 114.01426 122.21478 114.85399 122.34705 115.35854 C 122.43448 115.77114 122.91096 116.16471 123.4155 116.03244 C 123.82811 115.94501 125.25883 114.67814 126.59986 113.2274 C 127.8725 111.7531 129.45353 109.161 130.0658 107.38282 C 130.67808 105.60465 130.90581 103.38806 130.61772 102.44736 Z" fill="black"/>
        </g>
        <g id="Graphic_30">
          <path d="M 110.94896 116.02386 C 110.60701 115.90611 110.2628 116.01709 110.1686 116.29066 C 110.05085 116.63262 110.35122 118.64854 110.80965 120.87189 C 111.26809 123.09524 111.33747 125.33763 110.96746 125.74572 C 110.57389 126.2222 109.35737 126.64483 108.35054 126.68065 C 107.27531 126.69292 106.44785 127.0965 106.41979 127.62233 C 106.41528 128.07978 106.8637 128.99918 107.33793 129.62147 C 108.03863 130.47474 108.63285 130.52635 109.82808 129.9434 C 110.93136 129.4053 111.83624 128.11037 112.61336 125.85345 C 113.48468 123.32297 113.52176 121.88224 112.67652 119.4492 C 112.12163 117.72814 111.35931 116.16515 110.94896 116.02386 Z" fill="black"/>
        </g>
        <g id="Graphic_29">
          <path d="M 128.94366 123.74993 C 128.67009 123.65573 128.16555 123.788 127.84263 124.05931 C 127.45132 124.30707 127.02067 126.22429 126.79519 128.21215 C 126.54617 130.2684 125.85648 132.93792 125.29581 134.12187 C 124.40771 136.03457 124.10834 136.23749 122.51405 135.53553 C 121.37494 135.0668 120.52844 135.08133 120.34005 135.62846 C 120.17521 136.1072 120.4375 137.34501 120.90721 138.42475 C 121.44532 139.52804 121.89374 140.44744 122.09892 140.51809 C 122.2357 140.56519 123.27285 139.7748 124.44904 138.8028 C 125.60168 137.89919 127.36433 135.44612 128.29953 133.39663 C 129.72249 130.5971 130.03539 129.02184 129.80568 126.80074 C 129.59274 125.19743 129.21722 123.84412 128.94366 123.74993 Z" fill="black"/>
        </g>
        <g id="Graphic_28">
          <path d="M 91.28301 120.03882 C 90.39392 119.73269 90.37037 119.80108 91.00042 120.85952 C 91.38271 121.52665 92.50377 123.82516 93.39836 125.8927 C 94.83106 129.06351 94.89268 129.77323 93.85779 130.33489 C 92.86774 130.98848 92.84193 131.2856 93.68167 131.95724 C 94.20299 132.44275 95.07079 132.58856 95.62243 132.3195 C 96.35795 131.96076 96.57215 131.11652 96.45116 129.46836 C 96.37275 128.14086 96.15531 126.99499 95.88174 126.90079 C 95.60818 126.8066 94.75392 125.28845 93.90191 123.54158 C 93.04991 121.79471 91.83014 120.22722 91.28301 120.03882 Z" fill="black"/>
        </g>
        <g id="Graphic_27">
          <path d="M 107.1748 139.2043 C 106.62767 139.0159 106.2812 139.3556 106.27443 140.04178 C 106.3596 140.6831 106.60511 141.30314 106.87867 141.39733 C 107.15224 141.49153 107.63648 143.41777 108.00298 145.68596 C 108.30109 147.9306 108.43886 150.19655 108.27402 150.67529 C 108.10917 151.15403 107.41849 151.6047 106.73232 151.59794 C 106.11455 151.61472 105.67614 151.99926 105.74002 152.48026 C 105.82745 152.89286 106.5304 153.5174 107.21431 153.7529 C 107.89822 153.98839 108.74473 153.97386 109.06764 153.70255 C 109.45896 153.4548 109.91315 151.46919 110.16218 149.41293 C 110.43701 147.05957 110.11987 144.42587 109.38335 142.56576 C 108.66813 140.866 107.72193 139.39269 107.1748 139.2043 Z" fill="black"/>
        </g>
        <g id="Graphic_26">
          <path d="M 128.70906 147.53714 C 128.27742 147.23551 127.86707 147.09422 127.75158 147.20745 C 127.72803 147.27584 127.12027 148.59657 126.39701 150.03054 C 125.74215 151.48805 124.13757 154.14855 122.83913 155.91995 C 121.54068 157.69136 120.63129 159.44373 120.81066 159.8115 C 120.99003 160.17926 122.09106 159.86987 123.33338 159.15014 C 124.5757 158.4304 126.28676 156.57157 127.0571 155.00082 C 127.89585 153.45363 128.71781 151.28865 128.95781 150.14729 C 129.2662 149.02948 129.04876 147.8836 128.70906 147.53714 Z" fill="black"/>
        </g>
        <g id="Graphic_25">
          <path d="M 89.94865 141.68786 C 89.60669 141.57011 89.17054 141.72593 89.07634 141.9995 C 88.9586 142.34145 89.4709 143.74185 90.25677 145.23645 C 90.99779 146.6391 91.70625 149.02504 91.87434 150.53642 C 92.04243 152.0478 92.62538 153.24302 93.08283 153.24754 C 93.60866 153.2756 94.3229 152.75653 94.60323 152.16455 C 95.06744 151.4829 94.38028 149.25729 92.96662 146.47553 C 91.68748 143.96958 90.359 141.82915 89.94865 141.68786 Z" fill="black"/>
        </g>
        <g id="Graphic_24">
          <path d="M 105.78657 161.67628 C 105.44461 161.55854 105.75174 162.8883 106.46696 164.58806 C 107.15864 166.35622 107.64062 168.51118 107.5845 169.56286 C 107.48354 170.5226 107.10675 171.61686 106.6919 171.933 C 106.27703 172.24916 105.47763 172.1269 104.79597 171.66269 C 104.20626 171.15363 103.54363 171.07847 103.42589 171.42043 C 103.30814 171.76239 103.64108 172.79503 104.15789 173.73798 C 104.62987 174.589 105.58283 175.37613 106.20061 175.35934 C 106.81839 175.34256 107.67166 174.64187 108.11458 173.79988 C 108.5575 172.95789 108.96234 171.33779 109.06556 170.14933 C 109.16878 168.96087 108.62066 166.55364 107.8135 164.89871 C 107.07473 163.26733 106.12853 161.79403 105.78657 161.67628 Z" fill="black"/>
        </g>
        <g id="Graphic_23">
          <path d="M 126.82856 171.21662 C 126.40143 170.45755 125.91818 170.75015 125.03459 172.2054 C 124.42908 173.29741 123.56454 175.14173 123.18775 176.23599 C 122.81097 177.33025 121.71995 178.94358 120.81959 179.78106 C 119.89567 180.68693 119.26887 181.6186 119.4034 181.89443 C 119.53792 182.17025 120.22184 182.40574 120.83961 182.38896 C 121.45739 182.37217 123.00134 181.2208 124.25043 179.8149 C 125.7989 178.20608 126.70828 176.4537 126.97635 174.7865 C 127.24215 173.34803 127.166 171.79181 126.82856 171.21662 Z" fill="black"/>
        </g>
        <g id="Graphic_22">
          <path d="M 88.45395 163.35818 C 88.112 163.24044 88.05362 164.52084 88.47173 166.1948 C 88.79789 167.9136 89.4357 170.50472 89.92445 171.97351 C 90.41321 173.4423 90.69002 175.52662 90.61035 176.64668 C 90.46003 177.97192 90.72909 178.52357 91.37267 178.20967 C 91.83237 177.98546 92.44014 176.66473 92.63755 175.2027 C 92.85852 173.6723 92.22297 170.85245 91.08287 168.16489 C 90.03246 165.6612 88.8643 163.49948 88.45395 163.35818 Z" fill="black"/>
        </g>
        <g id="Graphic_21">
          <path d="M 127.34753 192.8153 C 127.00557 192.69756 126.45393 192.96662 126.17585 193.32987 C 125.80584 193.73796 124.8729 195.55872 124.05545 197.26625 C 123.238 198.97378 121.38566 201.24296 120.02559 202.30465 C 118.59713 203.3428 117.51062 204.49868 117.59805 204.91129 C 117.70903 205.2555 118.23036 205.741 118.7091 205.90585 C 119.25623 206.09424 120.3808 205.71646 121.23407 205.01577 C 122.0638 204.38347 123.89259 202.18267 125.19329 200.18254 C 126.56238 198.20596 127.70726 195.76967 127.80822 194.80994 C 127.8408 193.82665 127.68949 192.93305 127.34753 192.8153 Z" fill="black"/>
        </g>
        <g id="Graphic_20">
          <path d="M 107.48245 189.1882 C 107.05081 188.88658 106.59336 188.88207 106.47562 189.22403 C 106.38142 189.4976 106.30951 192.15033 106.37212 195.0789 C 106.43474 198.00745 106.52316 200.6389 106.68124 200.84632 C 106.74737 201.0986 107.48515 200.51114 108.24873 199.62656 C 109.38234 198.3339 109.4833 197.37415 108.9229 193.8917 C 108.48802 191.59995 107.82215 189.53468 107.48245 189.1882 Z" fill="black"/>
        </g>
        <g id="Graphic_19">
          <path d="M 87.89418 187.64543 C 87.34705 187.45703 87.78871 189.0626 89.0017 191.31628 C 90.14631 193.5464 91.23705 196.59947 91.40515 198.11084 L 91.76713 200.83648 L 92.4736 198.78474 C 92.87394 197.6221 92.87069 195.63197 92.56356 194.30222 C 92.23288 193.04086 91.24635 191.01817 90.45597 189.98102 C 89.5972 188.92032 88.44131 187.83382 87.89418 187.64543 Z" fill="black"/>
        </g>
        <g id="Graphic_18">
          <path d="M 127.72972 214.3669 C 127.38776 214.24915 126.41449 215.52053 125.59704 217.22806 C 124.68765 218.98043 123.08307 221.64092 121.94721 223.16232 C 120.78781 224.7521 119.76744 226.16026 119.67324 226.43382 C 119.6026 226.639 119.9423 226.98547 120.42104 227.1503 C 120.96817 227.3387 122.04565 227.0977 122.9886 226.5809 C 123.83962 226.10892 125.50582 224.15814 126.64619 222.1793 C 128.25077 219.5188 128.72175 218.15098 128.55366 216.6396 C 128.473 215.54083 128.07168 214.48464 127.72972 214.3669 Z" fill="black"/>
        </g>
        <g id="Graphic_17">
          <path d="M 107.48912 209.3865 C 107.01263 208.99293 106.57874 208.92003 106.48454 209.1936 C 106.3668 209.53555 106.47552 210.10849 106.63134 210.54464 C 106.832 211.07273 106.9059 212.85768 106.79816 214.50358 C 106.73528 216.24143 106.37076 218.4109 106.01753 219.43678 C 105.61719 220.59944 105.74721 221.3327 106.49951 221.59174 C 107.45699 221.92143 107.78217 221.4214 108.33282 218.9335 C 108.66927 217.28985 108.83312 214.59227 108.68858 213.0125 C 108.47565 211.40919 107.9656 209.78006 107.48912 209.3865 Z" fill="black"/>
        </g>
        <g id="Graphic_16">
          <path d="M 86.53627 209.36285 C 85.82881 209.19575 86.02721 209.95257 86.94986 211.49426 C 87.75928 212.92047 89.10906 215.22123 89.89493 216.71583 C 90.74919 218.23397 91.59443 220.667 91.85446 222.13355 C 92.22096 224.40174 92.37904 224.60917 93.03164 223.38038 C 93.45101 222.60678 93.37937 220.59312 92.89288 218.8956 C 92.42993 217.1297 91.06111 214.43987 89.82005 212.71204 C 88.55544 211.0526 87.0834 209.55124 86.53627 209.36285 Z" fill="black"/>
        </g>
        <g id="Graphic_15">
          <path d="M 125.11045 236.415 C 124.97366 236.3679 123.97233 238.1651 122.8981 240.39622 C 121.80032 242.69573 120.17444 245.1959 119.34247 246.05692 C 118.4421 246.8944 117.53722 248.18932 117.25463 249.01002 C 116.9485 249.8991 117.2624 250.5427 118.15148 250.84883 C 119.10896 251.1785 120.1887 250.7088 121.29875 249.48452 C 122.20137 248.41832 122.89882 247.28147 122.81139 246.86886 C 122.7688 246.5482 122.31361 246.31497 121.90101 246.4024 C 121.46486 246.55822 121.26194 246.25885 121.37968 245.9169 C 121.52098 245.50654 122.11746 245.32943 122.6646 245.51782 C 123.21172 245.7062 124.15693 244.96067 124.83309 243.6635 C 125.69312 242.27663 125.93764 240.67782 125.74825 239.0061 C 125.53306 237.63152 125.24723 236.4621 125.11045 236.415 Z" fill="black"/>
        </g>
        <g id="Graphic_14">
          <path d="M 107.22222 229.4906 C 106.81187 229.3493 106.32862 229.6419 106.18733 230.05225 C 106.02248 230.53098 106.14799 231.7217 106.45963 232.594 C 106.74772 233.5347 106.54354 235.6829 105.97836 237.3243 C 105.27189 239.37603 105.26287 240.29092 105.92549 240.36608 C 106.40648 240.3022 107.19136 239.57796 107.68138 238.59918 C 108.14785 237.6888 108.37783 235.2435 108.21426 233.27467 C 108.05068 231.30585 107.56418 229.60833 107.22222 229.4906 Z" fill="black"/>
        </g>
        <g id="Graphic_13">
          <path d="M 85.9913 229.8302 C 85.78612 229.75954 86.97332 232.31033 88.65829 235.415 C 91.01589 239.8988 91.50239 241.5963 90.98431 243.10092 C 90.56043 244.33196 90.64335 245.20201 91.25887 245.41396 C 91.806 245.60235 92.58637 245.33555 93.00348 244.79067 C 93.39705 244.3142 93.47897 242.9654 93.19314 241.79598 C 92.9073 240.62656 92.1282 238.4458 91.43427 236.90636 C 90.74034 235.36692 89.34346 233.20293 88.27952 232.0716 C 87.23912 230.87185 86.19647 229.90084 85.9913 229.8302 Z" fill="black"/>
        </g>
        <g id="Graphic_12">
          <path d="M 107.32633 251.40543 C 106.83307 250.39408 106.2198 249.95342 106.10206 250.29537 C 105.96076 250.70572 106.13562 251.53093 106.54146 252.12967 C 106.92374 252.7968 107.04474 254.44496 106.82377 255.97538 C 106.55797 257.41385 106.30443 259.92755 106.2438 261.43668 C 106.15961 263.0142 106.3748 264.38878 106.71676 264.50653 C 106.99033 264.60072 107.66423 263.53227 108.15875 262.09605 C 108.62974 260.72822 108.83843 258.12258 108.6726 256.38248 C 108.50676 254.64238 107.91154 252.37193 107.32633 251.40543 Z" fill="black"/>
        </g>
        <g id="Graphic_11">
          <path d="M 124.58099 259.94768 C 124.24354 259.3725 123.66384 260.16738 122.79704 262.24042 C 122.11637 263.99504 120.99279 266.59166 120.26953 268.02562 L 118.91722 270.61998 L 120.91862 269.47312 C 122.55225 268.50563 123.11066 267.5504 124.01004 264.49408 C 124.55618 262.46364 124.82875 260.339 124.58099 259.94768 Z" fill="black"/>
        </g>
        <g id="Graphic_10">
          <path d="M 87.44519 254.0458 C 86.96645 253.88095 86.53255 253.80805 86.48545 253.94483 C 86.43836 254.08162 87.49779 255.6704 88.76014 257.55857 C 90.83643 260.4155 90.98999 261.08037 90.08286 262.604 C 89.26766 264.08282 89.33154 264.5638 90.44484 265.32965 C 91.19489 265.81742 92.19947 266.01032 92.65917 265.7861 C 93.11887 265.5619 93.29274 264.16827 93.08206 262.33622 C 92.80299 260.48063 91.84001 258.38955 90.45991 256.84335 C 89.26144 255.43618 87.85554 254.1871 87.44519 254.0458 Z" fill="black"/>
        </g>
        <g id="Graphic_9">
          <path d="M 126.88942 281.01503 C 126.57326 280.60017 126.32325 280.43758 126.20776 280.5508 C 126.16066 280.6876 125.46096 282.05317 124.66706 283.6923 C 123.87316 285.33144 122.50406 287.30803 121.5353 288.12195 C 120.56655 288.9359 119.93975 289.86756 120.11912 290.23532 C 120.2301 290.57953 120.91401 290.81502 121.62373 290.7534 C 122.3099 290.76017 123.71481 289.7904 124.73292 288.61098 C 125.95846 287.27347 126.79946 285.49755 126.99688 284.03553 C 127.21558 282.73383 127.16073 281.33795 126.88942 281.01503 Z" fill="black"/>
        </g>
        <g id="Graphic_8">
          <path d="M 107.95628 273.34833 C 107.68272 273.25413 107.36205 273.29672 107.31496 273.4335 C 107.26786 273.57028 107.38434 275.6759 107.6118 278.1257 C 107.83926 280.57553 107.67315 283.50183 107.29637 284.5961 C 106.89603 285.75875 106.93185 286.76558 107.27381 286.88333 C 107.68416 287.02462 108.31096 286.09295 108.73484 284.8619 C 109.13517 283.69925 109.57033 281.3246 109.67807 279.67868 C 109.7858 278.03278 109.57737 275.972 109.19734 275.07616 C 108.86215 274.27224 108.29824 273.46607 107.95628 273.34833 Z" fill="black"/>
        </g>
        <g id="Graphic_7">
          <path d="M 88.99906 275.08283 C 87.97544 274.50087 87.13119 274.28667 87.037 274.56024 C 86.9428 274.8338 88.09418 276.37775 89.54267 277.9475 C 91.05955 279.5408 92.36449 281.74963 92.53709 282.80357 C 92.75453 283.94944 92.42034 285.36436 91.84063 286.15925 C 91.0064 287.249 91.14093 287.52483 92.23745 287.6729 C 93.03685 287.79514 93.84302 287.23123 94.38014 286.11568 C 94.87015 285.1369 95.09112 283.6065 94.96336 282.6445 C 94.81205 281.7509 93.77842 279.865 92.71673 278.50492 C 91.63149 277.21325 89.95428 275.64124 88.99906 275.08283 Z" fill="black"/>
        </g>
        <g id="Graphic_6">
          <path d="M 125.71539 302.64277 C 126.08216 300.24456 125.97343 299.67162 125.43632 300.78718 C 125.03824 301.7211 124.26563 303.52058 123.74981 304.79646 C 123.1656 306.0488 121.56552 308.25185 120.2032 309.54226 C 118.81733 310.90107 117.79696 312.30923 117.93149 312.58505 C 118.11086 312.9528 119.21188 312.64343 120.47776 311.8553 C 121.72008 311.13557 123.33693 309.5503 124.05793 308.34506 C 124.71054 307.11627 125.51346 304.56224 125.71539 302.64277 Z" fill="black"/>
        </g>
        <g id="Graphic_5">
          <path d="M 110.41151 295.76672 C 109.7534 295.2341 109.47532 295.59736 109.27565 297.2881 C 109.08049 298.5214 108.61952 301.1932 108.11823 303.31558 C 107.68532 305.4615 107.25242 307.60745 107.29275 308.15684 C 107.26243 308.9114 107.67278 309.0527 108.88704 308.8588 C 110.1013 308.6649 110.7494 307.89356 111.38522 306.047 C 111.87975 304.61077 112.06715 301.8448 111.81163 299.92082 C 111.48772 297.9733 110.91154 296.0919 110.41151 295.76672 Z" fill="black"/>
        </g>
        <g id="Graphic_4">
          <path d="M 90.1516 295.06367 C 88.26244 294.10718 87.28141 293.8459 87.09302 294.393 C 86.95173 294.80337 87.38111 295.3337 88.06503 295.5692 C 88.74894 295.8047 90.56745 296.96636 92.13368 298.19415 C 94.38157 299.88617 94.85355 300.73718 94.45321 301.89983 C 94.17062 302.72053 93.47543 303.62865 92.83185 303.94255 C 92.00439 304.34613 92.13891 304.62195 93.57513 305.1165 C 95.14813 305.6581 95.5159 305.47874 96.12817 303.70057 C 96.6698 302.12756 96.40526 301.11847 94.86934 299.1361 C 93.7628 297.6841 91.6304 295.87886 90.1516 295.06367 Z" fill="black"/>
        </g>
      </g>
    </g>
  </g>
</svg>
